<?xml version="1.0" encoding="UTF-8" standalone="no"?>
<svg
   width="20.32mm"
   height="128.5mm"
   viewBox="0 0 20.320001 128.5"
   version="1.1"
   id="svg7171"
   inkscape:version="1.3.2 (091e20e, 2023-11-25)"
   sodipodi:docname="Bypass.svg"
   inkscape:export-filename="/home/befaco/Dropbox/Modulos/In process/Molten bypass/Panel/Molten Bypass.png"
   inkscape:export-xdpi="600"
   inkscape:export-ydpi="600"
   xmlns:inkscape="http://www.inkscape.org/namespaces/inkscape"
   xmlns:sodipodi="http://sodipodi.sourceforge.net/DTD/sodipodi-0.dtd"
   xmlns="http://www.w3.org/2000/svg"
   xmlns:svg="http://www.w3.org/2000/svg"
   xmlns:rdf="http://www.w3.org/1999/02/22-rdf-syntax-ns#"
   xmlns:cc="http://creativecommons.org/ns#"
   xmlns:dc="http://purl.org/dc/elements/1.1/">
  <defs
     id="defs7165">
    <inkscape:path-effect
       only_selected="false"
       apply_with_weight="true"
       apply_no_weight="true"
       helper_size="0"
       steps="2"
       weight="33.333333"
       is_visible="true"
       id="path-effect1254"
       effect="bspline"
       lpeversion="0"
       uniform="false" />
    <inkscape:path-effect
       only_selected="false"
       apply_with_weight="true"
       apply_no_weight="true"
       helper_size="0"
       steps="2"
       weight="33.333333"
       is_visible="true"
       id="path-effect2628"
       effect="bspline"
       lpeversion="0"
       uniform="false" />
    <inkscape:path-effect
       only_selected="false"
       apply_with_weight="true"
       apply_no_weight="true"
       helper_size="0"
       steps="2"
       weight="33.333333"
       is_visible="true"
       id="path-effect2580"
       effect="bspline"
       lpeversion="0"
       uniform="false" />
    <inkscape:path-effect
       only_selected="false"
       apply_with_weight="true"
       apply_no_weight="true"
       helper_size="0"
       steps="2"
       weight="33.333333"
       is_visible="true"
       id="path-effect2576"
       effect="bspline"
       lpeversion="0"
       uniform="false" />
    <inkscape:path-effect
       only_selected="false"
       apply_with_weight="true"
       apply_no_weight="true"
       helper_size="0"
       steps="2"
       weight="33.333333"
       is_visible="true"
       id="path-effect2572"
       effect="bspline"
       lpeversion="0"
       uniform="false" />
    <inkscape:path-effect
       only_selected="false"
       apply_with_weight="true"
       apply_no_weight="true"
       helper_size="0"
       steps="2"
       weight="33.333333"
       is_visible="true"
       id="path-effect2184"
       effect="bspline"
       lpeversion="0"
       uniform="false" />
    <inkscape:path-effect
       only_selected="false"
       apply_with_weight="true"
       apply_no_weight="true"
       helper_size="0"
       steps="2"
       weight="33.333333"
       is_visible="true"
       id="path-effect2140"
       effect="bspline"
       lpeversion="0"
       uniform="false" />
    <inkscape:path-effect
       only_selected="false"
       apply_with_weight="true"
       apply_no_weight="true"
       helper_size="0"
       steps="2"
       weight="33.333333"
       is_visible="true"
       id="path-effect2136"
       effect="bspline"
       lpeversion="0"
       uniform="false" />
    <inkscape:path-effect
       only_selected="false"
       apply_with_weight="true"
       apply_no_weight="true"
       helper_size="0"
       steps="2"
       weight="33.333333"
       is_visible="true"
       id="path-effect2132"
       effect="bspline"
       lpeversion="0"
       uniform="false" />
    <inkscape:path-effect
       effect="bspline"
       id="path-effect2076"
       is_visible="true"
       weight="33.333333"
       steps="2"
       helper_size="0"
       apply_no_weight="true"
       apply_with_weight="true"
       only_selected="false"
       lpeversion="0"
       uniform="false" />
    <inkscape:path-effect
       effect="bspline"
       id="path-effect1928"
       is_visible="true"
       weight="33.333333"
       steps="2"
       helper_size="0"
       apply_no_weight="true"
       apply_with_weight="true"
       only_selected="false"
       lpeversion="0"
       uniform="false" />
    <inkscape:path-effect
       effect="spiro"
       id="path-effect4993"
       is_visible="true"
       lpeversion="0" />
    <inkscape:path-effect
       effect="spiro"
       id="path-effect4257"
       is_visible="true"
       lpeversion="0" />
    <inkscape:path-effect
       effect="spiro"
       id="path-effect3122"
       is_visible="true"
       lpeversion="0" />
    <inkscape:path-effect
       effect="spiro"
       id="path-effect2418"
       is_visible="true"
       lpeversion="0" />
    <inkscape:path-effect
       effect="spiro"
       id="path-effect14454"
       is_visible="true"
       lpeversion="0" />
    <radialGradient
       gradientUnits="userSpaceOnUse"
       id="Gradient-1-2-5"
       r="1"
       cy="0"
       cx="0">
      <stop
         id="stop4862-3-9"
         stop-color="#595959"
         offset="0" />
      <stop
         id="stop4864-1-9"
         stop-color="#010a05"
         offset="1" />
    </radialGradient>
    <radialGradient
       gradientUnits="userSpaceOnUse"
       id="Gradient-1-2-5-6"
       r="1"
       cy="0"
       cx="0">
      <stop
         id="stop4862-3-9-2"
         stop-color="#595959"
         offset="0" />
      <stop
         id="stop4864-1-9-9"
         stop-color="#010a05"
         offset="1" />
    </radialGradient>
    <inkscape:path-effect
       effect="bspline"
       id="path-effect1928-7"
       is_visible="true"
       weight="33.333333"
       steps="2"
       helper_size="0"
       apply_no_weight="true"
       apply_with_weight="true"
       only_selected="false"
       lpeversion="0"
       uniform="false" />
    <inkscape:path-effect
       effect="bspline"
       id="path-effect1928-1"
       is_visible="true"
       weight="33.333333"
       steps="2"
       helper_size="0"
       apply_no_weight="true"
       apply_with_weight="true"
       only_selected="false"
       lpeversion="0"
       uniform="false" />
    <inkscape:path-effect
       effect="bspline"
       id="path-effect2076-6"
       is_visible="true"
       weight="33.333333"
       steps="2"
       helper_size="0"
       apply_no_weight="true"
       apply_with_weight="true"
       only_selected="false"
       lpeversion="0"
       uniform="false" />
    <inkscape:path-effect
       effect="bspline"
       id="path-effect1928-1-5"
       is_visible="true"
       weight="33.333333"
       steps="2"
       helper_size="0"
       apply_no_weight="true"
       apply_with_weight="true"
       only_selected="false"
       lpeversion="0"
       uniform="false" />
    <inkscape:path-effect
       effect="bspline"
       id="path-effect1928-7-8"
       is_visible="true"
       weight="33.333333"
       steps="2"
       helper_size="0"
       apply_no_weight="true"
       apply_with_weight="true"
       only_selected="false"
       lpeversion="0"
       uniform="false" />
    <inkscape:path-effect
       effect="bspline"
       id="path-effect1928-79"
       is_visible="true"
       weight="33.333333"
       steps="2"
       helper_size="0"
       apply_no_weight="true"
       apply_with_weight="true"
       only_selected="false"
       lpeversion="0"
       uniform="false" />
    <inkscape:path-effect
       effect="bspline"
       id="path-effect1928-4"
       is_visible="true"
       weight="33.333333"
       steps="2"
       helper_size="0"
       apply_no_weight="true"
       apply_with_weight="true"
       only_selected="false"
       lpeversion="0"
       uniform="false" />
    <inkscape:path-effect
       effect="bspline"
       id="path-effect1928-1-4"
       is_visible="true"
       weight="33.333333"
       steps="2"
       helper_size="0"
       apply_no_weight="true"
       apply_with_weight="true"
       only_selected="false"
       lpeversion="0"
       uniform="false" />
    <inkscape:path-effect
       effect="bspline"
       id="path-effect1928-7-6"
       is_visible="true"
       weight="33.333333"
       steps="2"
       helper_size="0"
       apply_no_weight="true"
       apply_with_weight="true"
       only_selected="false"
       lpeversion="0"
       uniform="false" />
    <inkscape:path-effect
       effect="bspline"
       id="path-effect2076-0"
       is_visible="true"
       weight="33.333333"
       steps="2"
       helper_size="0"
       apply_no_weight="true"
       apply_with_weight="true"
       only_selected="false"
       lpeversion="0"
       uniform="false" />
  </defs>
  <sodipodi:namedview
     id="base"
     pagecolor="#7b7a7a"
     bordercolor="#666666"
     borderopacity="1.0"
     inkscape:pageopacity="1"
     inkscape:pageshadow="2"
     inkscape:zoom="2.0011288"
     inkscape:cx="-6.7461924"
     inkscape:cy="231.61927"
     inkscape:document-units="mm"
     inkscape:current-layer="layer1"
     showgrid="false"
     showguides="false"
     inkscape:guide-bbox="true"
     inkscape:window-width="1392"
     inkscape:window-height="1212"
     inkscape:window-x="0"
     inkscape:window-y="25"
     inkscape:window-maximized="0"
     showborder="false"
     fit-margin-top="10"
     fit-margin-left="20"
     fit-margin-right="0"
     fit-margin-bottom="10"
     inkscape:snap-global="true"
     inkscape:snap-bbox="false"
     inkscape:snap-object-midpoints="true"
     inkscape:snap-center="false"
     inkscape:document-rotation="0"
     inkscape:pagecheckerboard="0"
     inkscape:snap-others="true"
     inkscape:snap-nodes="false"
     inkscape:snap-bbox-midpoints="false"
     inkscape:snap-bbox-edge-midpoints="false"
     inkscape:bbox-nodes="false"
     inkscape:bbox-paths="false"
     inkscape:object-paths="false"
     inkscape:snap-intersection-paths="false"
     inkscape:object-nodes="false"
     inkscape:snap-smooth-nodes="false"
     inkscape:snap-midpoints="false"
     inkscape:snap-to-guides="true"
     inkscape:showpageshadow="0"
     inkscape:deskcolor="#d1d1d1">
    <sodipodi:guide
       position="4.9829996,84.374319"
       orientation="1,0"
       id="guide9653"
       inkscape:locked="false"
       inkscape:label=""
       inkscape:color="rgb(0,0,255)" />
    <sodipodi:guide
       position="14.979828,84.460309"
       orientation="1,0"
       id="guide9657"
       inkscape:locked="false"
       inkscape:label=""
       inkscape:color="rgb(0,0,255)" />
    <sodipodi:guide
       position="6.6675002,4.3466814"
       orientation="1,0"
       id="guide4422"
       inkscape:locked="false" />
    <sodipodi:guide
       position="10.000001,-11.210624"
       orientation="1,0"
       id="guide4424"
       inkscape:label=""
       inkscape:color="rgb(0,0,255)"
       inkscape:locked="false" />
    <sodipodi:guide
       position="10.013286,-12.798144"
       orientation="0,1"
       id="guide4438"
       inkscape:locked="false" />
    <sodipodi:guide
       position="2.8422866,-19.144328"
       orientation="0,1"
       id="guide4425"
       inkscape:locked="false" />
    <sodipodi:guide
       position="2.8364032,-20.271423"
       orientation="1,0"
       id="guide4427"
       inkscape:locked="false" />
    <inkscape:grid
       type="xygrid"
       id="grid14459"
       originx="-4.9754431e-07"
       originy="2.5024558e-06"
       spacingy="1"
       spacingx="1"
       units="mm"
       visible="false" />
    <sodipodi:guide
       position="-4.7179336,95.503769"
       orientation="0,1"
       id="guide4407"
       inkscape:label=""
       inkscape:color="rgb(0,0,255)"
       inkscape:locked="false" />
    <sodipodi:guide
       position="-3.8333212,-26.996234"
       orientation="0,1"
       id="guide4409"
       inkscape:label=""
       inkscape:color="rgb(0,0,255)"
       inkscape:locked="false" />
    <sodipodi:guide
       position="14.978874,83.503769"
       orientation="0,1"
       id="guide20101"
       inkscape:label=""
       inkscape:locked="false"
       inkscape:color="rgb(0,0,255)" />
    <sodipodi:guide
       position="4.9788876,70.564669"
       orientation="0,1"
       id="guide4627"
       inkscape:label=""
       inkscape:color="rgb(0,0,255)"
       inkscape:locked="false" />
    <sodipodi:guide
       position="5.0010936,57.611253"
       orientation="0,1"
       id="guide4629"
       inkscape:locked="false" />
    <sodipodi:guide
       position="14.956672,44.680136"
       orientation="0,1"
       id="guide4631"
       inkscape:label=""
       inkscape:locked="false"
       inkscape:color="rgb(0,0,255)" />
    <sodipodi:guide
       position="9.9999995,33.415639"
       orientation="0,1"
       id="guide4633"
       inkscape:locked="false" />
    <sodipodi:guide
       position="9.9999915,19.600882"
       orientation="0,1"
       id="guide4635"
       inkscape:locked="false" />
    <sodipodi:guide
       position="6.66873,3.4973734"
       orientation="0,1"
       id="guide4637"
       inkscape:locked="false" />
    <sodipodi:guide
       position="15.446599,3.8498304"
       orientation="1,0"
       id="guide4639"
       inkscape:locked="false" />
  </sodipodi:namedview>
  <metadata
     id="metadata7168">
    <rdf:RDF>
      <cc:Work
         rdf:about="">
        <dc:format>image/svg+xml</dc:format>
        <dc:type
           rdf:resource="http://purl.org/dc/dcmitype/StillImage" />
      </cc:Work>
    </rdf:RDF>
  </metadata>
  <g
     inkscape:label="Serigrafia"
     inkscape:groupmode="layer"
     id="layer1"
     transform="translate(20,-153.18449)"
     style="display:inline">
    <text
       xml:space="preserve"
       style="font-size:10.5833px;line-height:1.2;font-family:Miso;-inkscape-font-specification:Miso;stroke-width:0.264583"
       x="22.02252"
       y="288.44272"
       id="text2989" />
    <path
       inkscape:connector-curvature="0"
       id="path50225"
       d="M -19.91345,153.27104 H 0.23345133 v 128.3269 H -19.91345 Z"
       style="display:inline;fill:#171717;fill-opacity:1;stroke:#000000;stroke-width:0.173098;stroke-linecap:butt;stroke-linejoin:round;stroke-miterlimit:4;stroke-dasharray:none;stroke-opacity:1"
       inkscape:export-filename="C:\Users\Pascu\Dropbox\Modulos\In process\Molten bypass\Panel\Molten Bypass.png"
       inkscape:export-xdpi="600"
       inkscape:export-ydpi="600" />
    <path
       style="font-weight:bold;font-stretch:condensed;font-size:3.52778px;line-height:0.77;font-family:Miso;-inkscape-font-specification:'Miso Bold Condensed';text-align:end;letter-spacing:-0.0126114px;word-spacing:0px;text-anchor:end;fill:#f6f6f6;stroke-width:0.284733"
       d="m -11.454948,214.49771 c 0.296333,0 0.536222,-0.23989 0.536222,-0.53622 v -1.19945 c 0,-0.29633 -0.239889,-0.53622 -0.536222,-0.53622 -0.296334,0 -0.536223,0.23989 -0.536223,0.53622 v 1.19945 c 0,0.29633 0.239889,0.53622 0.536223,0.53622 z m 0,-2.04611 c 0.169333,0 0.310445,0.14111 0.310445,0.31044 v 1.19945 c 0,0.17286 -0.141112,0.31044 -0.310445,0.31044 -0.172861,0 -0.310445,-0.13758 -0.310445,-0.31044 v -1.19945 c 0,-0.16933 0.137584,-0.31044 0.310445,-0.31044 z m 1.158613,1.50989 v -1.62278 c 0,-0.067 -0.05292,-0.11289 -0.112889,-0.11289 -0.06703,0 -0.112889,0.0459 -0.112889,0.11289 v 1.62278 c 0,0.29633 0.239889,0.53622 0.5362224,0.53622 0.2928057,0 0.5362226,-0.23989 0.5362226,-0.53622 v -1.62278 c 0,-0.067 -0.052917,-0.11289 -0.112889,-0.11289 -0.067028,0 -0.112889,0.0459 -0.112889,0.11289 v 1.62278 c 0,0.17286 -0.1411112,0.31044 -0.3104446,0.31044 -0.1728614,0 -0.3104444,-0.13758 -0.3104444,-0.31044 z m 2.1746112,-1.72156 h -0.9172228 c -0.059972,0 -0.112889,0.0459 -0.112889,0.11289 0,0.067 0.052917,0.11289 0.112889,0.11289 h 0.3457224 v 1.91911 c 0,0.067 0.052917,0.11289 0.112889,0.11289 0.067028,0 0.112889,-0.0459 0.112889,-0.11289 v -1.91911 h 0.3457224 c 0.067028,0 0.112889,-0.0459 0.112889,-0.11289 0,-0.067 -0.045861,-0.11289 -0.112889,-0.11289 z"
       id="text50233"
       aria-label="OUT" />
    <path
       style="font-weight:bold;font-stretch:condensed;font-size:3.52778px;line-height:0.77;font-family:Miso;-inkscape-font-specification:'Miso Bold Condensed';text-align:end;letter-spacing:-0.0126114px;word-spacing:0px;text-anchor:end;fill:#f6f6f6;stroke-width:0.284733"
       d="m -14.416164,201.27243 c 0.06703,0 0.112889,-0.0459 0.112889,-0.11289 v -0.93133 h 0.522112 c 0.06703,0 0.112889,-0.0459 0.112889,-0.11289 0,-0.067 -0.04586,-0.11289 -0.112889,-0.11289 h -0.522112 v -0.74789 h 0.592667 c 0.06703,0 0.112889,-0.0459 0.112889,-0.11289 0,-0.067 -0.04586,-0.11289 -0.112889,-0.11289 h -0.705556 c -0.05997,0 -0.112889,0.0459 -0.112889,0.11289 v 2.01789 c 0,0.067 0.05292,0.11289 0.112889,0.11289 z m 2.216948,-1.50989 v -0.19756 c 0,-0.29633 -0.239889,-0.53622 -0.536223,-0.53622 h -0.423333 c -0.05997,0 -0.112889,0.0459 -0.112889,0.11289 v 2.032 c 0,0.067 0.05292,0.11289 0.112889,0.11289 0.06703,0 0.112889,-0.0459 0.112889,-0.11289 v -0.87489 h 0.289278 l 0.338667,0.9137 c 0.02469,0.06 0.08819,0.0917 0.144639,0.067 0.05997,-0.0247 0.09172,-0.0882 0.06703,-0.14464 l -0.324555,-0.87489 c 0.197555,-0.0811 0.331611,-0.27164 0.331611,-0.49742 z m -0.536223,0.31045 h -0.310444 v -0.81845 h 0.310444 c 0.172862,0 0.310445,0.14111 0.310445,0.31044 v 0.19756 c 0,0.17286 -0.137583,0.31045 -0.310445,0.31045 z m 1.412613,1.21355 c 0.296334,0 0.536223,-0.23989 0.536223,-0.53622 v -1.19945 c 0,-0.29633 -0.239889,-0.53622 -0.536223,-0.53622 -0.296333,0 -0.536222,0.23989 -0.536222,0.53622 v 1.19945 c 0,0.29633 0.239889,0.53622 0.536222,0.53622 z m 0,-2.04611 c 0.169334,0 0.310445,0.14111 0.310445,0.31044 v 1.19945 c 0,0.17286 -0.141111,0.31044 -0.310445,0.31044 -0.172861,0 -0.310444,-0.13758 -0.310444,-0.31044 v -1.19945 c 0,-0.16933 0.137583,-0.31044 0.310444,-0.31044 z m 1.073947,2.04611 c 0.05997,0 0.112889,-0.0459 0.112889,-0.11289 v -1.54164 c 0.08114,0.17992 0.1693332,0.36336 0.236361,0.50448 0.038806,0.0811 0.077611,0.16227 0.1128889,0.23988 0.017639,0.0423 0.052917,0.0635 0.1023057,0.0635 0.045861,0 0.077611,-0.0212 0.1023056,-0.0635 0.035278,-0.0776 0.074083,-0.15875 0.112889,-0.23988 0.067028,-0.14112 0.1516945,-0.32456 0.2363612,-0.50448 v 1.54164 c 0,0.067 0.045861,0.11289 0.112889,0.11289 0.059972,0 0.1128889,-0.0459 0.1128889,-0.11289 v -2.04611 c 0,-0.0529 -0.035278,-0.0988 -0.088195,-0.10936 -0.052917,-0.0106 -0.1023056,0.0141 -0.127,0.06 -0.059972,0.13053 -0.1199446,0.25753 -0.1799168,0.381 -0.1023056,0.20814 -0.2151946,0.45861 -0.2822224,0.60325 -0.070556,-0.14464 -0.1834446,-0.39158 -0.2822224,-0.60325 -0.059972,-0.12347 -0.1199442,-0.25047 -0.1799172,-0.381 -0.02469,-0.0459 -0.07408,-0.0705 -0.127,-0.06 -0.05292,0.0106 -0.08819,0.0564 -0.08819,0.10936 v 2.04611 c 0,0.067 0.04586,0.11289 0.112889,0.11289 z m 2.4865558,-0.0141 c 0.067028,0 0.112889,-0.0459 0.112889,-0.11289 v -0.93133 h 0.5221114 c 0.067028,0 0.112889,-0.0459 0.112889,-0.11289 0,-0.067 -0.045861,-0.11289 -0.112889,-0.11289 h -0.5221114 v -0.74789 h 0.592667 c 0.067028,0 0.112889,-0.0459 0.112889,-0.11289 0,-0.067 -0.045861,-0.11289 -0.112889,-0.11289 h -0.705556 c -0.059972,0 -0.1128889,0.0459 -0.1128889,0.11289 v 2.01789 c 0,0.067 0.052917,0.11289 0.1128889,0.11289 z m 1.0704191,0.004 c 0.052917,0.0282 0.1234723,0.004 0.1516946,-0.0529 l 0.4268614,-0.85372 0.4268613,0.85372 c 0.028222,0.0565 0.09525,0.0811 0.1516946,0.0529 0.056445,-0.0282 0.077611,-0.0952 0.052917,-0.1517 l -0.5044726,-1.00894 0.4691948,-0.93839 c 0.024694,-0.0529 0.00353,-0.12347 -0.052917,-0.1517 -0.056444,-0.0247 -0.1234723,-0.004 -0.1516946,0.0529 l -0.3915835,0.78317 -0.3915836,-0.78317 c -0.028222,-0.0564 -0.098778,-0.0776 -0.1516946,-0.0529 -0.056444,0.0282 -0.081139,0.0988 -0.052917,0.1517 l 0.4691948,0.93839 -0.5044726,1.00894 c -0.028222,0.0565 -0.00353,0.12348 0.052917,0.1517 z"
       id="text50237"
       aria-label="FROM FX" />
    <path
       style="font-weight:bold;font-stretch:condensed;font-size:3.52778px;line-height:0.77;font-family:Miso;-inkscape-font-specification:'Miso Bold Condensed';text-align:end;letter-spacing:-0.0126114px;word-spacing:0px;text-anchor:end;fill:#f6f6f6;stroke-width:0.284733"
       d="m -11.948731,186.38895 h -0.917223 c -0.05997,0 -0.112889,0.0459 -0.112889,0.11288 0,0.067 0.05292,0.11289 0.112889,0.11289 h 0.345722 v 1.91912 c 0,0.067 0.05292,0.11289 0.112889,0.11289 0.06703,0 0.112889,-0.0459 0.112889,-0.11289 v -1.91912 h 0.345723 c 0.06703,0 0.112889,-0.0459 0.112889,-0.11289 0,-0.067 -0.04586,-0.11288 -0.112889,-0.11288 z m 0.897552,2.25778 c 0.296333,0 0.536222,-0.23989 0.536222,-0.53623 v -1.19944 c 0,-0.29634 -0.239889,-0.53623 -0.536222,-0.53623 -0.296334,0 -0.536223,0.23989 -0.536223,0.53623 v 1.19944 c 0,0.29634 0.239889,0.53623 0.536223,0.53623 z m 0,-2.04612 c 0.169333,0 0.310444,0.14111 0.310444,0.31045 v 1.19944 c 0,0.17286 -0.141111,0.31045 -0.310444,0.31045 -0.172861,0 -0.310445,-0.13759 -0.310445,-0.31045 v -1.19944 c 0,-0.16934 0.137584,-0.31045 0.310445,-0.31045 z m 1.7386663,2.032 c 0.067028,0 0.1128889,-0.0459 0.1128889,-0.11288 v -0.93134 h 0.5221115 c 0.067028,0 0.112889,-0.0459 0.112889,-0.11289 0,-0.067 -0.045861,-0.11289 -0.112889,-0.11289 h -0.5221115 v -0.74789 h 0.5926671 c 0.067028,0 0.112889,-0.0459 0.112889,-0.11289 0,-0.067 -0.045861,-0.11288 -0.112889,-0.11288 h -0.705556 c -0.059972,0 -0.112889,0.0459 -0.112889,0.11288 v 2.0179 c 0,0.067 0.052917,0.11288 0.112889,0.11288 z m 1.0704191,0.004 c 0.052917,0.0282 0.1234723,0.004 0.1516945,-0.0529 l 0.4268614,-0.85373 0.4268614,0.85373 c 0.028222,0.0564 0.09525,0.0811 0.1516946,0.0529 0.056444,-0.0282 0.077611,-0.0953 0.052917,-0.15169 l -0.5044726,-1.00895 0.4691948,-0.93839 c 0.024694,-0.0529 0.00353,-0.12347 -0.052917,-0.15169 -0.056444,-0.0247 -0.1234723,-0.004 -0.1516946,0.0529 l -0.3915836,0.78317 -0.3915836,-0.78317 c -0.028222,-0.0564 -0.098778,-0.0776 -0.1516945,-0.0529 -0.056445,0.0282 -0.081139,0.0988 -0.052917,0.15169 l 0.4691947,0.93839 -0.5044725,1.00895 c -0.028222,0.0564 -0.00353,0.12347 0.052917,0.15169 z"
       id="text50241"
       aria-label="TO FX" />
    <path
       style="font-weight:bold;font-stretch:condensed;font-size:2.26937px;line-height:0.77;font-family:Miso;-inkscape-font-specification:'Miso Bold Condensed';text-align:end;letter-spacing:-0.00813305px;word-spacing:0px;text-anchor:end;fill:#ffffff;stroke-width:0.284733"
       d="m -6.1884095,242.71999 v 0.77158 c 0,0.19063 0.1543171,0.34495 0.3449442,0.34495 0.1906271,0 0.3449443,-0.15432 0.3449443,-0.34495 v -0.3631 c 0,-0.0431 -0.029502,-0.0726 -0.07262,-0.0726 h -0.226937 c -0.038579,0 -0.07262,0.0295 -0.07262,0.0726 0,0.0431 0.03404,0.0726 0.07262,0.0726 h 0.1543172 v 0.29048 c 0,0.1112 -0.088505,0.19971 -0.1997046,0.19971 -0.1089297,0 -0.1997045,-0.0885 -0.1997045,-0.19971 v -0.77158 c 0,-0.0908 0.061273,-0.16794 0.1497784,-0.1929 0.088505,-0.025 0.1792802,0.0136 0.2223983,0.093 0.020424,0.034 0.065812,0.0477 0.099852,0.0272 0.03631,-0.0204 0.047657,-0.0658 0.027232,-0.0999 -0.079428,-0.13389 -0.2360145,-0.20424 -0.3880623,-0.16112 -0.1520478,0.0431 -0.2564388,0.17701 -0.2564388,0.3336 z m 1.7233978,1.02575 -0.3630992,-1.31623 c -0.00908,-0.034 -0.03631,-0.0545 -0.07035,-0.0545 -0.034041,0 -0.061273,0.0204 -0.07035,0.0545 l -0.3630992,1.31623 c -0.011347,0.0386 0.011347,0.0772 0.049926,0.0885 0.043118,0.0113 0.079428,-0.0113 0.090775,-0.0499 0.00681,-0.0227 0.013616,-0.0477 0.020424,-0.0749 0.015886,-0.0477 0.027232,-0.1112 0.052195,-0.19063 h 0.4402578 c 0.020424,0.0794 0.03631,0.14297 0.052195,0.19063 0.00681,0.0272 0.013616,0.0522 0.020424,0.0749 0.011347,0.0386 0.049926,0.0613 0.088506,0.0499 0.043118,-0.0113 0.063542,-0.0499 0.052195,-0.0885 z m -0.2541695,-0.37218 h -0.3585605 c 0.061273,-0.22466 0.1316235,-0.49018 0.1792803,-0.65357 0.043118,0.16339 0.1180072,0.42891 0.1792802,0.65357 z m 0.9155006,-0.98944 h -0.5900362 c -0.038579,0 -0.07262,0.0295 -0.07262,0.0726 0,0.0431 0.034041,0.0726 0.07262,0.0726 h 0.2223982 v 1.23454 c 0,0.0431 0.034041,0.0726 0.07262,0.0726 0.043118,0 0.07262,-0.0295 0.07262,-0.0726 v -1.23454 h 0.2223983 c 0.043118,0 0.07262,-0.0295 0.07262,-0.0726 0,-0.0431 -0.029502,-0.0726 -0.07262,-0.0726 z m 0.2823444,0.0726 v 1.29808 c 0,0.0431 0.029502,0.0726 0.07262,0.0726 h 0.453874 c 0.043118,0 0.07262,-0.0295 0.07262,-0.0726 0,-0.0431 -0.029502,-0.0726 -0.07262,-0.0726 h -0.3812542 v -0.5265 h 0.3358668 c 0.043118,0 0.07262,-0.0295 0.07262,-0.0726 0,-0.0431 -0.029502,-0.0726 -0.07262,-0.0726 h -0.3358668 v -0.48111 h 0.3812542 c 0.043118,0 0.07262,-0.0295 0.07262,-0.0726 0,-0.0431 -0.029502,-0.0726 -0.07262,-0.0726 h -0.453874 c -0.043118,0 -0.07262,0.0295 -0.07262,0.0726 z"
       id="text50245"
       aria-label="GATE" />
    <path
       style="font-weight:bold;font-stretch:condensed;font-size:2.26937px;line-height:0.77;font-family:Miso;-inkscape-font-specification:'Miso Bold Condensed';text-align:end;letter-spacing:-0.00813305px;word-spacing:0px;text-anchor:end;fill:#ffffff;stroke-width:0.284733"
       d="m -6.5078941,254.0399 h 0.453874 c 0.038579,0 0.07262,-0.0295 0.07262,-0.0726 0,-0.0431 -0.034041,-0.0726 -0.07262,-0.0726 h -0.3812542 v -1.23454 c 0,-0.0431 -0.034041,-0.0726 -0.07262,-0.0726 -0.043118,0 -0.07262,0.0295 -0.07262,0.0726 v 1.30716 c 0,0.0431 0.029502,0.0726 0.07262,0.0726 z m 1.4783034,-0.0817 -0.3630992,-1.31623 c -0.00908,-0.034 -0.03631,-0.0545 -0.07035,-0.0545 -0.034041,0 -0.061273,0.0204 -0.07035,0.0545 l -0.3630992,1.31623 c -0.011347,0.0386 0.011347,0.0772 0.049926,0.0885 0.043118,0.0114 0.079428,-0.0113 0.090775,-0.0499 0.00681,-0.0227 0.013616,-0.0477 0.020424,-0.0749 0.015886,-0.0477 0.027232,-0.11119 0.052195,-0.19062 h 0.4402578 c 0.020424,0.0794 0.03631,0.14297 0.052195,0.19062 0.00681,0.0272 0.013616,0.0522 0.020424,0.0749 0.011347,0.0386 0.049926,0.0613 0.088506,0.0499 0.043118,-0.0113 0.063542,-0.0499 0.052195,-0.0885 z m -0.2541695,-0.37217 h -0.3585604 c 0.061273,-0.22467 0.1316234,-0.49019 0.1792802,-0.65358 0.043118,0.16339 0.1180072,0.42891 0.1792802,0.65358 z m 0.9155006,-0.98945 h -0.5900362 c -0.038579,0 -0.07262,0.0295 -0.07262,0.0726 0,0.0431 0.034041,0.0726 0.07262,0.0726 h 0.2223983 v 1.23454 c 0,0.0431 0.03404,0.0726 0.07262,0.0726 0.043118,0 0.07262,-0.0295 0.07262,-0.0726 v -1.23454 h 0.2223983 c 0.043118,0 0.07262,-0.0295 0.07262,-0.0726 0,-0.0431 -0.029502,-0.0726 -0.07262,-0.0726 z m 0.5115509,1.44105 c 0.1497784,0.0409 0.3109037,-0.025 0.3880623,-0.16112 0.018155,-0.034 0.00681,-0.0794 -0.027233,-0.0999 -0.03404,-0.0181 -0.079428,-0.007 -0.099852,0.0272 -0.045387,0.0794 -0.1361622,0.118 -0.2246676,0.093 -0.088505,-0.025 -0.1475091,-0.10212 -0.1475091,-0.1929 v -0.77158 c 0,-0.0908 0.059004,-0.16793 0.1475091,-0.1929 0.088505,-0.025 0.1792802,0.0136 0.2246676,0.0931 0.020424,0.034 0.065812,0.0476 0.099852,0.0272 0.034041,-0.0204 0.045387,-0.0658 0.027233,-0.0998 -0.079428,-0.1339 -0.2360145,-0.20425 -0.3880623,-0.16113 -0.1543172,0.0431 -0.2564388,0.17701 -0.2564388,0.3336 v 0.77158 c 0,0.15659 0.1021216,0.29048 0.2564388,0.3336 z m 1.1810173,-1.37751 v 0.56281 h -0.3994092 v -0.56281 c 0,-0.0431 -0.029502,-0.0726 -0.07262,-0.0726 -0.038579,0 -0.07262,0.0295 -0.07262,0.0726 v 1.31624 c 0,0.0431 0.034041,0.0726 0.07262,0.0726 0.043118,0 0.07262,-0.0295 0.07262,-0.0726 v -0.60819 h 0.3994092 v 0.60819 c 0,0.0431 0.03404,0.0726 0.07262,0.0726 0.043118,0 0.07262,-0.0295 0.07262,-0.0726 v -1.31624 c 0,-0.0431 -0.029502,-0.0726 -0.07262,-0.0726 -0.038579,0 -0.07262,0.0295 -0.07262,0.0726 z"
       id="text50249"
       aria-label="LATCH" />
    <path
       sodipodi:nodetypes="ccc"
       id="path50251"
       d="m -13.317968,248.82505 c -0.01391,4.82944 -0.619806,5.70896 1.586455,6.69976 2.3594885,0.93711 1.701779,2.72883 1.7911345,3.44904"
       style="fill:none;stroke:#ffffff;stroke-width:0.265;stroke-linecap:butt;stroke-linejoin:miter;stroke-miterlimit:4;stroke-dasharray:none;stroke-opacity:1"
       inkscape:connector-curvature="0"
       inkscape:export-filename="C:\Users\Pascu\Dropbox\Modulos\In process\Molten bypass\Panel\Molten Bypass.png"
       inkscape:export-xdpi="600"
       inkscape:export-ydpi="600" />
    <rect
       style="display:inline;fill:#ffffff;fill-opacity:1;stroke:#ffffff;stroke-width:0.1;stroke-linecap:round;stroke-miterlimit:4;stroke-dasharray:none;stroke-opacity:1"
       id="rect50255"
       width="9.5049801"
       height="9.5049801"
       x="-19.723612"
       y="176.37109"
       ry="0.76484388"
       rx="0.89386809"
       inkscape:export-filename="C:\Users\Pascu\Dropbox\Modulos\In process\Molten bypass\Panel\Molten Bypass.png"
       inkscape:export-xdpi="600"
       inkscape:export-ydpi="600" />
    <path
       style="font-weight:bold;font-stretch:condensed;font-size:3.52778px;line-height:0.77;font-family:Miso;-inkscape-font-specification:'Miso Bold Condensed';text-align:end;letter-spacing:-0.017084px;word-spacing:0px;text-anchor:end;fill:#ffffff;stroke-width:0.284733"
       d="m -10.838129,174.83484 c 0.06703,0 0.112889,-0.0459 0.112889,-0.11289 v -2.04612 c 0,-0.067 -0.04586,-0.11288 -0.112889,-0.11288 -0.05997,0 -0.112889,0.0459 -0.112889,0.11288 v 2.04612 c 0,0.067 0.05292,0.11289 0.112889,0.11289 z m 1.7009479,-0.004 c 0.052917,-0.0106 0.088195,-0.0565 0.088195,-0.10936 v -2.04612 c 0,-0.067 -0.045861,-0.11288 -0.112889,-0.11288 -0.067028,0 -0.1128889,0.0459 -0.1128889,0.11288 v 1.55223 c -0.1305279,-0.27164 -0.3280836,-0.67734 -0.4868337,-1.00542 -0.09525,-0.19403 -0.1905001,-0.39511 -0.2857498,-0.59619 -0.0247,-0.0459 -0.07408,-0.0706 -0.127,-0.06 -0.05292,0.0106 -0.0882,0.0564 -0.0882,0.10936 v 2.04612 c 0,0.067 0.04586,0.11289 0.112889,0.11289 0.06703,0 0.112889,-0.0459 0.112889,-0.11289 v -1.55223 c 0.1305278,0.27164 0.3245557,0.67734 0.4833058,1.00542 0.09525,0.19403 0.1905002,0.39511 0.289278,0.5962 0.024694,0.0459 0.074083,0.0741 0.1270001,0.06 z"
       id="text50259"
       aria-label="IN" />
    <g
       id="text50263"
       style="font-weight:bold;font-stretch:condensed;line-height:0%;font-family:Miso;-inkscape-font-specification:'Miso Bold Condensed';text-align:end;letter-spacing:-0.017084px;word-spacing:0px;text-anchor:end;fill:#ffffff;stroke-width:0.284733"
       aria-label="L(M)">
      <path
         style="font-size:3.13972px;line-height:0.77"
         d="m -16.579472,162.86537 h 0.627944 c 0.05337,0 0.100471,-0.0408 0.100471,-0.10047 0,-0.0597 -0.0471,-0.10047 -0.100471,-0.10047 h -0.527473 v -1.70801 c 0,-0.0597 -0.0471,-0.10047 -0.100471,-0.10047 -0.05965,0 -0.100471,0.0408 -0.100471,0.10047 v 1.80848 c 0,0.0596 0.04082,0.10047 0.100471,0.10047 z"
         id="path4" />
      <path
         style="font-size:2.5px;line-height:0.77"
         d="m -15.215407,161.02537 c 0.0275,-0.0375 0.0225,-0.085 -0.015,-0.1125 -0.0375,-0.0275 -0.085,-0.025 -0.1125,0.0125 -0.11,0.1425 -0.1925,0.295 -0.25,0.465 -0.0575,0.1625 -0.085,0.3325 -0.085,0.51 0,0.1775 0.0275,0.3475 0.085,0.51 0.055,0.1675 0.1375,0.3225 0.25,0.465 0.0275,0.0375 0.075,0.04 0.1125,0.0125 0.0375,-0.0275 0.0425,-0.075 0.015,-0.1125 -0.1,-0.1275 -0.175,-0.2675 -0.2275,-0.4175 -0.05,-0.1475 -0.075,-0.3 -0.075,-0.4575 0,-0.1575 0.025,-0.31 0.075,-0.4575 0.0525,-0.15 0.1275,-0.29 0.2275,-0.4175 z m 0.300415,1.68 c 0.0425,0 0.08,-0.0325 0.08,-0.08 v -1.0925 c 0.0575,0.1275 0.12,0.2575 0.1675,0.3575 0.0275,0.0575 0.055,0.115 0.08,0.17 0.0125,0.03 0.0375,0.045 0.0725,0.045 0.0325,0 0.055,-0.015 0.0725,-0.045 0.025,-0.055 0.0525,-0.1125 0.08,-0.17 0.0475,-0.1 0.1075,-0.23 0.1675,-0.3575 v 1.0925 c 0,0.0475 0.0325,0.08 0.08,0.08 0.0425,0 0.08,-0.0325 0.08,-0.08 v -1.45 c 0,-0.0375 -0.025,-0.07 -0.0625,-0.0775 -0.0375,-0.007 -0.0725,0.01 -0.09,0.0425 -0.0425,0.0925 -0.085,0.1825 -0.1275,0.27 -0.0725,0.1475 -0.1525,0.325 -0.2,0.4275 -0.05,-0.1025 -0.13,-0.2775 -0.2,-0.4275 -0.0425,-0.0875 -0.085,-0.1775 -0.1275,-0.27 -0.0175,-0.0325 -0.0525,-0.05 -0.09,-0.0425 -0.0375,0.007 -0.0625,0.04 -0.0625,0.0775 v 1.45 c 0,0.0475 0.0325,0.08 0.08,0.08 z m 1.562918,-0.83 c 0,-0.1775 -0.0275,-0.3475 -0.085,-0.51 -0.0575,-0.165 -0.14,-0.32 -0.2525,-0.465 -0.0275,-0.0375 -0.075,-0.04 -0.1125,-0.0125 -0.0325,0.0275 -0.04,0.075 -0.0125,0.1125 0.1,0.1275 0.175,0.2675 0.2275,0.4175 0.05,0.1475 0.075,0.3 0.075,0.4575 0,0.1575 -0.025,0.31 -0.075,0.4575 -0.0525,0.15 -0.1275,0.29 -0.2275,0.4175 -0.0275,0.0375 -0.02,0.085 0.0125,0.1125 0.0375,0.0275 0.085,0.025 0.1125,-0.0125 0.11,-0.14 0.195,-0.295 0.2525,-0.465 0.0575,-0.1625 0.085,-0.3325 0.085,-0.51 z"
         id="path5" />
    </g>
    <path
       style="font-weight:bold;font-stretch:condensed;font-size:3.13972px;line-height:0.77;font-family:Miso;-inkscape-font-specification:'Miso Bold Condensed';text-align:end;letter-spacing:-0.017084px;word-spacing:0px;text-anchor:end;fill:#ffffff;stroke-width:0.284733"
       d="m -4.5444394,161.61157 v -0.17583 c 0,-0.26373 -0.2135009,-0.47723 -0.4772374,-0.47723 h -0.3767664 c -0.053375,0 -0.100471,0.0408 -0.100471,0.10047 v 1.80848 c 0,0.0597 0.047096,0.10047 0.100471,0.10047 0.059655,0 0.100471,-0.0408 0.100471,-0.10047 v -0.77865 h 0.2574571 l 0.3014131,0.81318 c 0.021978,0.0534 0.078493,0.0816 0.1287285,0.0597 0.053375,-0.022 0.081633,-0.0785 0.059655,-0.12873 l -0.2888542,-0.77865 c 0.1758243,-0.0722 0.2951336,-0.24176 0.2951336,-0.4427 z m -0.4772374,0.27629 h -0.2762954 v -0.72841 h 0.2762954 c 0.1538463,0 0.2762954,0.12559 0.2762954,0.27629 v 0.17583 c 0,0.15384 -0.1224491,0.27629 -0.2762954,0.27629 z"
       id="text50267"
       aria-label="R" />
    <rect
       inkscape:export-ydpi="600"
       inkscape:export-xdpi="600"
       inkscape:export-filename="C:\Users\Pascu\Dropbox\Modulos\In process\Molten bypass\Panel\Molten Bypass.png"
       rx="0.89386809"
       ry="0.76484388"
       y="176.37109"
       x="-9.7736158"
       height="9.5049801"
       width="9.5049801"
       id="rect50269"
       style="display:inline;fill:#ffffff;fill-opacity:1;stroke:#ffffff;stroke-width:0.1;stroke-linecap:round;stroke-miterlimit:4;stroke-dasharray:none;stroke-opacity:1" />
    <rect
       inkscape:export-ydpi="600"
       inkscape:export-xdpi="600"
       inkscape:export-filename="C:\Users\Pascu\Dropbox\Modulos\In process\Molten bypass\Panel\Molten Bypass.png"
       rx="0.89386809"
       ry="0.76484388"
       y="-211.73831"
       x="-19.773615"
       height="9.5049801"
       width="9.5049801"
       id="rect50271"
       style="display:inline;fill:#ffffff;fill-opacity:1;stroke:#ffffff;stroke-width:0.1;stroke-linecap:round;stroke-miterlimit:4;stroke-dasharray:none;stroke-opacity:1"
       transform="scale(1,-1)" />
    <rect
       style="display:inline;fill:#ffffff;fill-opacity:1;stroke:#ffffff;stroke-width:0.1;stroke-linecap:round;stroke-miterlimit:4;stroke-dasharray:none;stroke-opacity:1"
       id="rect50273"
       width="9.5049801"
       height="9.5049801"
       x="-9.7736158"
       y="-211.73831"
       ry="0.76484388"
       rx="0.89386809"
       inkscape:export-filename="C:\Users\Pascu\Dropbox\Modulos\In process\Molten bypass\Panel\Molten Bypass.png"
       inkscape:export-xdpi="600"
       inkscape:export-ydpi="600"
       transform="scale(1,-1)" />
    <path
       style="font-weight:bold;font-stretch:condensed;font-size:3.52778px;line-height:0.77;font-family:Miso;-inkscape-font-specification:'Miso Bold Condensed';text-align:end;letter-spacing:-0.0126114px;word-spacing:0px;text-anchor:end;fill:#f6f6f6;stroke-width:0.284733"
       d="m -14.041302,273.54196 h 0.705556 c 0.05997,0 0.112889,-0.0459 0.112889,-0.11289 0,-0.067 -0.05292,-0.11289 -0.112889,-0.11289 h -0.592667 v -1.91911 c 0,-0.067 -0.05292,-0.11289 -0.112889,-0.11289 -0.06703,0 -0.112888,0.0459 -0.112888,0.11289 v 2.032 c 0,0.067 0.04586,0.11289 0.112888,0.11289 z m 2.298083,-0.127 -0.564444,-2.04611 c -0.01411,-0.0529 -0.05645,-0.0847 -0.109362,-0.0847 -0.05292,0 -0.09525,0.0317 -0.109361,0.0847 l -0.564445,2.04611 c -0.01764,0.06 0.01764,0.11995 0.07761,0.13759 0.06703,0.0176 0.123472,-0.0176 0.141111,-0.0776 0.01058,-0.0353 0.02117,-0.0741 0.03175,-0.11641 0.02469,-0.0741 0.04233,-0.17286 0.08114,-0.29634 h 0.684389 c 0.03175,0.12348 0.05645,0.22225 0.08114,0.29634 0.01058,0.0423 0.02117,0.0811 0.03175,0.11641 0.01764,0.06 0.07761,0.0953 0.137584,0.0776 0.06703,-0.0176 0.09878,-0.0776 0.08114,-0.13759 z m -0.395111,-0.57855 h -0.557389 c 0.09525,-0.34925 0.204611,-0.762 0.278694,-1.016 0.06703,0.254 0.183445,0.66675 0.278695,1.016 z m 0.908136,0.18344 v -1.62278 c 0,-0.067 -0.05292,-0.11289 -0.112889,-0.11289 -0.06703,0 -0.112889,0.0459 -0.112889,0.11289 v 1.62278 c 0,0.29633 0.239889,0.53622 0.536223,0.53622 0.292806,0 0.536223,-0.23989 0.536223,-0.53622 v -1.62278 c 0,-0.067 -0.05292,-0.11289 -0.112889,-0.11289 -0.06703,0 -0.112889,0.0459 -0.112889,0.11289 v 1.62278 c 0,0.17286 -0.141112,0.31044 -0.310445,0.31044 -0.172861,0 -0.310445,-0.13758 -0.310445,-0.31044 z m 2.410973,0.5327 c 0.052917,-0.0106 0.088195,-0.0564 0.088195,-0.10937 v -2.04611 c 0,-0.067 -0.045861,-0.11289 -0.112889,-0.11289 -0.067028,0 -0.112889,0.0459 -0.112889,0.11289 v 1.55222 c -0.1305278,-0.27163 -0.3280835,-0.67733 -0.4868336,-1.00541 -0.09525,-0.19403 -0.1905001,-0.39511 -0.2857502,-0.5962 -0.024694,-0.0459 -0.074083,-0.0706 -0.1270001,-0.06 -0.052917,0.0106 -0.088195,0.0564 -0.088195,0.10936 v 2.04611 c 0,0.067 0.045861,0.11289 0.112889,0.11289 0.067028,0 0.112889,-0.0459 0.112889,-0.11289 v -1.55222 c 0.1305278,0.27164 0.3245557,0.67733 0.4833058,1.00542 0.09525,0.19403 0.1905001,0.39511 0.289278,0.59619 0.024694,0.0459 0.074083,0.0741 0.1270001,0.06 z m 0.9116657,-0.0141 c 0.2328335,0.0635 0.4833058,-0.0388 0.6032504,-0.25047 0.028222,-0.0529 0.010583,-0.12347 -0.042333,-0.15522 -0.052917,-0.0282 -0.1234723,-0.0106 -0.1552223,0.0423 -0.070556,0.12347 -0.2116668,0.18345 -0.3492502,0.14464 -0.1375835,-0.0388 -0.2293057,-0.15875 -0.2293057,-0.29986 v -1.19944 c 0,-0.14112 0.091722,-0.26106 0.2293057,-0.29987 0.1375834,-0.0388 0.2786946,0.0212 0.3492502,0.14464 0.03175,0.0529 0.1023056,0.0741 0.1552223,0.0423 0.052917,-0.0317 0.070556,-0.10231 0.042333,-0.15523 -0.1234723,-0.20814 -0.3668892,-0.3175 -0.6032504,-0.25047 -0.2398891,0.067 -0.3986392,0.27517 -0.3986392,0.51859 v 1.19944 c 0,0.24342 0.1587501,0.45156 0.3986392,0.51858 z m 1.8359458,-2.14136 v 0.87489 h -0.6208893 v -0.87489 c 0,-0.067 -0.045861,-0.11289 -0.112889,-0.11289 -0.059972,0 -0.1128889,0.0459 -0.1128889,0.11289 v 2.04611 c 0,0.067 0.052917,0.11289 0.1128889,0.11289 0.067028,0 0.112889,-0.0459 0.112889,-0.11289 v -0.94544 h 0.6208893 v 0.94544 c 0,0.067 0.052917,0.11289 0.112889,0.11289 0.067028,0 0.1128889,-0.0459 0.1128889,-0.11289 v -2.04611 c 0,-0.067 -0.045861,-0.11289 -0.1128889,-0.11289 -0.059972,0 -0.112889,0.0459 -0.112889,0.11289 z"
       id="text50281"
       aria-label="LAUNCH" />
    <path
       id="path50283"
       d="m -8.3637681,248.19086 h 1.1749474"
       style="fill:none;stroke:#ffffff;stroke-width:0.265;stroke-linecap:round;stroke-linejoin:miter;stroke-miterlimit:4;stroke-dasharray:none;stroke-opacity:1"
       inkscape:connector-curvature="0"
       inkscape:export-filename="C:\Users\Pascu\Dropbox\Modulos\In process\Molten bypass\Panel\Molten Bypass.png"
       inkscape:export-xdpi="600"
       inkscape:export-ydpi="600" />
    <circle
       r="5.7987289"
       cy="264.48642"
       cx="-9.9867144"
       id="circle50285"
       style="opacity:1;fill:none;fill-opacity:1;stroke:#ffffff;stroke-width:0.665;stroke-linecap:round;stroke-miterlimit:4;stroke-dasharray:none;stroke-dashoffset:0;stroke-opacity:1"
       inkscape:export-filename="C:\Users\Pascu\Dropbox\Modulos\In process\Molten bypass\Panel\Molten Bypass.png"
       inkscape:export-xdpi="600"
       inkscape:export-ydpi="600" />
    <path
       inkscape:connector-curvature="0"
       inkscape:export-ydpi="600"
       inkscape:export-xdpi="600"
       inkscape:export-filename="C:\Users\Pascu\Dropbox\Modulos\In process\Molten bypass\Panel\Molten Bypass.png"
       id="path50293"
       d="m -4.6651635,153.99757 v 0.69165 h -0.235068 v 0.27122 h 0.235068 v 1.09397 h 0.271232 v -1.09397 h 0.235068 v -0.27122 h -0.235068 v -0.69165 h -0.271232 m -0.61027,0.004 v 2.05231 h 0.271232 v -2.05231 h -0.271232 m -3.512442,0.68711 v 1.3652 h 0.271232 v -0.61026 c 0,-0.0997 -0.01731,-0.21748 0.02045,-0.31193 0.01226,-0.0306 0.0339,-0.0578 0.05658,-0.0814 0.12582,-0.13062 0.327523,-0.11364 0.428508,0.0407 0.05947,0.0909 0.04144,0.20859 0.04144,0.31191 v 0.65096 h 0.271232 v -0.61479 c 0,-0.095 -0.01759,-0.21336 0.02084,-0.30287 0.0911,-0.21242 0.373948,-0.23344 0.493983,-0.0361 0.05399,0.0887 0.03672,0.20823 0.03672,0.30739 v 0.64644 h 0.271231 v -0.6374 c 0,-0.14688 0.01,-0.29397 -0.05776,-0.42944 -0.141202,-0.28241 -0.517581,-0.38937 -0.783063,-0.21394 -0.04225,0.0279 -0.08253,0.0601 -0.113016,0.10092 h -0.0047 c -0.154092,-0.20631 -0.469946,-0.2341 -0.682583,-0.11301 v -0.0723 h -0.271283 m 2.649022,0.002 c -0.104519,0.0123 -0.203898,0.0406 -0.293834,0.0967 -0.07792,0.0486 -0.149447,0.11497 -0.201742,0.1906 -0.205337,0.29692 -0.145341,0.71439 0.142976,0.93509 0.05919,0.0453 0.123888,0.0814 0.194384,0.10589 0.100828,0.035 0.21114,0.0416 0.316436,0.0288 0.09295,-0.0111 0.18253,-0.0438 0.262191,-0.0927 0.340517,-0.2089 0.428599,-0.67031 0.193564,-0.99077 -0.04515,-0.0616 -0.09896,-0.11347 -0.161921,-0.15661 -0.06358,-0.0436 -0.133172,-0.0782 -0.207945,-0.0976 -0.07814,-0.0203 -0.163614,-0.029 -0.244109,-0.0195 m 3.209567,1.1643 v -0.004 l -0.131093,-0.13102 c -0.01478,-0.0149 -0.03638,-0.0458 -0.05877,-0.0483 -0.0205,-0.003 -0.04311,0.025 -0.05877,0.0356 -0.03862,0.0263 -0.08151,0.0477 -0.126577,0.0603 -0.157992,0.0443 -0.324076,-0.0174 -0.427097,-0.1426 -0.02932,-0.0356 -0.04668,-0.0761 -0.06564,-0.11753 h 0.773006 0.198904 c 0.0205,0 0.06071,0.008 0.07784,-0.006 0.01206,-0.009 0.01169,-0.0304 0.0134,-0.044 0.0047,-0.0385 0.0079,-0.0789 0.0047,-0.11753 -0.01349,-0.16159 -0.0674,-0.31214 -0.178743,-0.43379 -0.303328,-0.3314 -0.853607,-0.26894 -1.087545,0.10831 -0.04387,0.0708 -0.07391,0.14865 -0.08883,0.23055 -0.0165,0.0906 -0.01574,0.18579 0.0047,0.27574 0.091,0.40365 0.535363,0.63979 0.92015,0.48724 0.08657,-0.0343 0.164724,-0.0872 0.230548,-0.15271 m 0.316431,-1.1663 v 1.36521 h 0.271232 v -0.53795 c 0,-0.12395 -0.0067,-0.24952 0.05633,-0.36164 0.118571,-0.21082 0.427325,-0.25901 0.617227,-0.11329 0.05425,0.0416 0.09141,0.10054 0.117398,0.16301 0.0422,0.10138 0.03176,0.21372 0.03176,0.32096 v 0.52891 h 0.271233 v -0.51987 c 0,-0.1368 0.0061,-0.27063 -0.03786,-0.40232 -0.0216,-0.0645 -0.05473,-0.12509 -0.09347,-0.18083 -0.1702,-0.24501 -0.501322,-0.31362 -0.777303,-0.23171 -0.06722,0.02 -0.124904,0.0526 -0.185338,0.0871 v -0.11754 h -0.271234 m -3.123678,0.45205 -0.212466,0.13724 -0.131093,0.0797 0.01807,0.0316 0.348079,-0.2215 c 0.06408,0.12092 0.0717,0.26025 0.0097,0.38424 -0.112797,0.22559 -0.424293,0.3093 -0.624495,0.14282 -0.04549,-0.0378 -0.0845,-0.0859 -0.111757,-0.13831 -0.10481,-0.20164 -0.01421,-0.45216 0.184084,-0.55629 0.163371,-0.0858 0.432676,-0.0351 0.519857,0.14041 m 2.707792,0.0949 h -0.768485 c 0.09656,-0.2777 0.455846,-0.36655 0.668989,-0.16238 0.04396,0.0421 0.08856,0.10116 0.0995,0.16238 m -1.966429,1.18891 v 0.82273 c -0.06857,-0.0516 -0.147482,-0.0913 -0.230543,-0.11347 -0.366924,-0.0978 -0.765096,0.13124 -0.847865,0.50675 -0.02623,0.11892 -0.01988,0.24549 0.01626,0.36164 0.0257,0.0826 0.06563,0.16021 0.121875,0.22603 0.06189,0.0725 0.136181,0.13445 0.221493,0.17742 0.104375,0.0526 0.213872,0.0719 0.329993,0.0712 0.145108,-0.001 0.266082,-0.0613 0.388768,-0.1311 v 0.1311 h 0.271231 v -2.05232 h -0.271231 m 1.871495,0 v 2.05232 h 0.271232 v -2.05232 h -0.271235 m -6.4779,0.68712 v 1.3652 h 0.271232 v -0.61028 c 0,-0.0997 -0.01731,-0.21748 0.02046,-0.31191 0.01226,-0.0306 0.0339,-0.0578 0.05658,-0.0814 0.125809,-0.13062 0.327518,-0.11365 0.428503,0.0407 0.05947,0.0909 0.04144,0.20859 0.04144,0.31192 v 0.65095 h 0.271232 v -0.61478 c 0,-0.095 -0.0176,-0.21336 0.02084,-0.30288 0.09111,-0.21242 0.373948,-0.23343 0.493983,-0.0361 0.05399,0.0887 0.03672,0.20824 0.03672,0.3074 v 0.64643 h 0.271232 v -0.6374 c 0,-0.14688 0.01,-0.29397 -0.05776,-0.42944 -0.141202,-0.28241 -0.517582,-0.38937 -0.783063,-0.21395 -0.04224,0.0279 -0.08253,0.0601 -0.113011,0.10094 h -0.0048 c -0.154096,-0.20631 -0.46996,-0.2341 -0.682588,-0.11302 v -0.0723 h -0.271233 m 2.649022,0.002 c -0.104518,0.0124 -0.203897,0.0406 -0.293834,0.0967 -0.07792,0.0486 -0.149447,0.11497 -0.201746,0.1906 -0.205333,0.29691 -0.145337,0.71438 0.14298,0.93508 0.05919,0.0453 0.123883,0.0814 0.194384,0.1059 0.100828,0.035 0.211141,0.0416 0.316436,0.0288 0.09295,-0.0111 0.182526,-0.0438 0.262187,-0.0927 0.340521,-0.20889 0.428598,-0.67031 0.193563,-0.99078 -0.04511,-0.0615 -0.09896,-0.11345 -0.161915,-0.1566 -0.06358,-0.0436 -0.133172,-0.0782 -0.207946,-0.0976 -0.07814,-0.0204 -0.163618,-0.029 -0.244109,-0.0195 m 2.346147,-0.002 c 0,0.35729 -0.05379,0.77603 0.155416,1.08945 0.04034,0.0604 0.08851,0.11477 0.147458,0.15745 0.336331,0.24357 0.819437,0.0866 0.986017,-0.28402 0.06433,-0.14318 0.07129,-0.29323 0.07649,-0.44754 0.0057,-0.17155 0.0043,-0.34349 0.0043,-0.51534 h -0.271244 v 0.43397 c 0,0.13288 -4.69e-4,0.27295 -0.05194,0.3978 -0.08164,0.19794 -0.333702,0.33533 -0.535726,0.22339 -0.06279,-0.0348 -0.113373,-0.0943 -0.149041,-0.15557 -0.08494,-0.1461 -0.09055,-0.32405 -0.09055,-0.48822 v -0.41137 h -0.271235 m 2.965463,1.2341 v 0.1311 h 0.271232 v -1.3652 h -0.271232 v 0.13562 c -0.07102,-0.0535 -0.153247,-0.0936 -0.239589,-0.11527 -0.08404,-0.0211 -0.171734,-0.0261 -0.257671,-0.0156 -0.07798,0.01 -0.156184,0.0328 -0.226022,0.0692 -0.367339,0.19097 -0.474566,0.65694 -0.251523,0.99739 0.05958,0.091 0.14895,0.1631 0.242478,0.21687 0.10551,0.0607 0.224038,0.077 0.343563,0.077 0.146328,-5e-5 0.265172,-0.0601 0.388763,-0.13111 m 0.388764,-1.23409 v 1.3652 h 0.271231 v -0.44301 c 0,-0.17905 -0.01836,-0.36219 0.117714,-0.50174 0.0257,-0.0264 0.05434,-0.0494 0.08571,-0.0687 0.03943,-0.0243 0.08187,-0.0419 0.126577,-0.0539 0.07106,-0.0191 0.143573,-0.0266 0.216982,-0.0266 v -0.27123 c -0.135976,0 -0.271728,0.0193 -0.397805,0.0725 -0.05275,0.0222 -0.09981,0.0529 -0.149174,0.0812 v -0.15369 h -0.271231 m -5.641608,0.69163 h 0.0048 l 0.0226,-0.0226 v -0.004 l -0.167623,-0.17629 -0.112658,-0.12657 c 0.139737,-0.10004 0.316469,-0.12369 0.470131,-0.0344 0.227281,0.13208 0.265291,0.44677 0.08978,0.6356 -0.03758,0.0404 -0.08428,0.0752 -0.134988,0.0974 -0.04225,0.0185 -0.08562,0.0265 -0.131094,0.0317 -0.194403,0.0224 -0.384433,-0.11882 -0.433133,-0.30541 -0.0277,-0.10606 -0.0086,-0.22252 0.04616,-0.31643 0.01159,-0.0199 0.03953,-0.0694 0.06607,-0.0694 0.02866,0 0.05991,0.0506 0.07743,0.0694 0.06723,0.0723 0.145508,0.14097 0.20281,0.2215 m 1.577661,-0.41137 -0.09945,0.39782 0.03614,0.004 0.09945,-0.38877 c 0.06084,0.0123 0.114942,0.0522 0.15822,0.095 0.119478,0.11822 0.161606,0.28922 0.09723,0.4475 -0.07386,0.18147 -0.263154,0.28356 -0.454358,0.25025 -0.05342,-0.009 -0.104209,-0.0286 -0.149175,-0.059 -0.05129,-0.0346 -0.09794,-0.0797 -0.130621,-0.1325 -0.116039,-0.18757 -0.0518,-0.43215 0.126106,-0.55565 0.09695,-0.0673 0.203353,-0.0746 0.316431,-0.0592 m 3.54861,0.69617 c -0.02613,0.0301 -0.06012,0.0536 -0.09493,0.0728 -0.255276,0.1412 -0.580801,-0.0572 -0.6006,-0.33954 -0.0053,-0.0758 0.01349,-0.14987 0.04801,-0.21699 0.02022,-0.0393 0.04654,-0.073 0.07794,-0.10388 0.179555,-0.17674 0.462855,-0.14391 0.616055,0.0497 0.08711,0.11004 0.105644,0.27435 0.04896,0.40232 -0.01359,0.0307 -0.02961,0.0713 -0.05592,0.0933 -0.0266,0.0223 -0.05379,-0.0172 -0.07115,-0.0346 -0.05506,-0.0551 -0.107813,-0.11221 -0.162741,-0.16726 -0.01016,-0.0102 -0.06107,-0.0739 -0.07685,-0.0517 -0.01398,0.0198 0.04511,0.0656 0.05678,0.0788 0.06731,0.0758 0.142756,0.14529 0.214454,0.21699 z"
       style="display:inline;fill:#ffffff;stroke:none;stroke-width:0.00789922" />
    <g
       transform="matrix(-0.20182325,0,0,0.20182325,179.18229,113.8509)"
       id="g50309"
       inkscape:label="Capa 1"
       inkscape:export-filename="/home/diego/Escritorio/tirar kick all"
       inkscape:export-xdpi="600"
       inkscape:export-ydpi="600"
       style="display:inline;enable-background:new">
      <g
         transform="matrix(1.4349548,0,0,1.4349548,-276.94874,-296.6147)"
         id="g50307">
        <g
           style="fill:#ffffff"
           id="g50305">
          <g
             id="g50303">
            <path
               sodipodi:open="true"
               sodipodi:end="1.0646776"
               sodipodi:start="2.0832953"
               transform="scale(-1,1)"
               sodipodi:ry="19.50185"
               sodipodi:rx="19.499994"
               sodipodi:cy="614.89569"
               sodipodi:cx="-846.23914"
               id="path50295"
               style="display:inline;fill:none;stroke:#ffffff;stroke-width:1.15325px;stroke-linecap:butt;stroke-linejoin:miter;stroke-opacity:1;enable-background:new"
               sodipodi:type="arc"
               sodipodi:arc-type="arc"
               d="m -855.80109,631.89198 a 19.499994,19.50185 0 0 1 -9.29341,-21.9692 19.499994,19.50185 0 0 1 18.91757,-14.52884 19.499994,19.50185 0 0 1 18.8245,14.64925 19.499994,19.50185 0 0 1 -9.43338,21.90946" />
            <path
               inkscape:connector-curvature="0"
               d="m 835.73596,630.70064 c 0.56677,-0.3272 1.29157,-0.13299 1.61882,0.43376 0.32724,0.56682 0.13302,1.29165 -0.43377,1.61884 -0.5668,0.32727 -1.29159,0.13306 -1.61881,-0.43376 -0.32726,-0.56674 -0.13305,-1.29157 0.43376,-1.61884"
               style="display:inline;fill:#ffffff;fill-opacity:1;fill-rule:nonzero;stroke:none;stroke-width:1.06667;enable-background:new"
               id="path50297" />
            <path
               inkscape:connector-curvature="0"
               d="m 854.34316,631.72691 c 3e-5,-0.65454 0.5307,-1.1852 1.18525,-1.18524 0.6546,4e-5 1.1853,0.53072 1.18526,1.18527 3e-5,0.65461 -0.53064,1.18527 -1.18524,1.18524 -0.65455,3e-5 -1.18524,-0.53065 -1.18527,-1.18527"
               style="display:inline;fill:#ffffff;fill-opacity:1;fill-rule:nonzero;stroke:none;stroke-width:1.06667;enable-background:new"
               id="path50299" />
            <path
               inkscape:connector-curvature="0"
               d="m 844.66871,595.39638 c 4e-5,-0.86723 0.70316,-1.57034 1.57041,-1.57039 0.86732,5e-5 1.57047,0.70318 1.57042,1.57043 4e-5,0.86733 -0.70308,1.57044 -1.57039,1.5704 -0.86725,4e-5 -1.5704,-0.70309 -1.57044,-1.57044"
               style="display:inline;fill:#ffffff;fill-opacity:1;fill-rule:nonzero;stroke:none;stroke-width:1.06667;enable-background:new"
               id="path50301" />
          </g>
        </g>
      </g>
    </g>
    <path
       style="font-weight:bold;font-stretch:condensed;font-size:3.32412px;line-height:81%;font-family:Miso;-inkscape-font-specification:'Miso Bold Condensed';text-align:center;letter-spacing:-0.0142462px;word-spacing:0px;text-anchor:middle;fill:#ffffff;stroke-width:0.282223"
       d="m -13.863108,240.66661 c 0.06316,0 0.106372,-0.0432 0.106372,-0.10637 v -0.87757 h 0.49197 c 0.06316,0 0.106372,-0.0432 0.106372,-0.10637 0,-0.0632 -0.04321,-0.10637 -0.106372,-0.10637 h -0.49197 v -0.70472 h 0.558452 c 0.06316,0 0.106372,-0.0432 0.106372,-0.10637 0,-0.0632 -0.04321,-0.10637 -0.106372,-0.10637 h -0.664824 c -0.05651,0 -0.106372,0.0432 -0.106372,0.10637 v 1.9014 c 0,0.0632 0.04986,0.10637 0.106372,0.10637 z m 1.006261,0.003 c 0.04986,0.0266 0.116344,0.003 0.142937,-0.0499 l 0.402219,-0.80443 0.402218,0.80443 c 0.02659,0.0532 0.08975,0.0765 0.142937,0.0499 0.05319,-0.0266 0.07313,-0.0897 0.04986,-0.14293 l -0.475349,-0.9507 0.442108,-0.88422 c 0.02327,-0.0499 0.0033,-0.11634 -0.04986,-0.14293 -0.05319,-0.0233 -0.116344,-0.003 -0.142937,0.0499 l -0.368977,0.73795 -0.368978,-0.73795 c -0.02659,-0.0532 -0.09308,-0.0731 -0.142937,-0.0499 -0.05319,0.0266 -0.07646,0.0931 -0.04986,0.14293 l 0.442108,0.88422 -0.475349,0.9507 c -0.02659,0.0532 -0.0033,0.11634 0.04986,0.14293 z m 2.042436,-1.62549 v 1.1302 c 0,0.27923 0.22604,0.50527 0.505266,0.50527 0.279226,0 0.505266,-0.22604 0.505266,-0.50527 v -0.53186 c 0,-0.0632 -0.043214,-0.10637 -0.1063718,-0.10637 h -0.3324122 c -0.05651,0 -0.106372,0.0432 -0.106372,0.10637 0,0.0632 0.04986,0.10637 0.106372,0.10637 h 0.22604 v 0.42549 c 0,0.16288 -0.12964,0.29252 -0.292522,0.29252 -0.159558,0 -0.292523,-0.12964 -0.292523,-0.29252 v -1.1302 c 0,-0.13296 0.08975,-0.24598 0.219392,-0.28255 0.129641,-0.0366 0.262606,0.0199 0.325764,0.13629 0.02992,0.0499 0.096399,0.0698 0.1462612,0.0399 0.053186,-0.0299 0.069807,-0.0964 0.039889,-0.14626 -0.1163442,-0.19613 -0.3457086,-0.29917 -0.5684246,-0.23602 -0.222716,0.0632 -0.375625,0.25929 -0.375625,0.48865 z m 2.5220592,1.5025 -0.5318593,-1.92799 c -0.013296,-0.0499 -0.053186,-0.0798 -0.1030477,-0.0798 -0.049862,0 -0.089751,0.0299 -0.1030477,0.0798 l -0.5318592,1.92799 c -0.016621,0.0565 0.016621,0.11302 0.073131,0.12964 0.063158,0.0166 0.1163442,-0.0166 0.1329648,-0.0731 0.00997,-0.0332 0.019945,-0.0698 0.029917,-0.10969 0.023269,-0.0698 0.03989,-0.16289 0.076455,-0.27923 h 0.6448793 c 0.029917,0.11634 0.053186,0.20942 0.076455,0.27923 0.00997,0.0399 0.019945,0.0764 0.029917,0.10969 0.016621,0.0565 0.073131,0.0897 0.1296407,0.0731 0.063158,-0.0166 0.093075,-0.0731 0.076455,-0.12964 z m -0.3723015,-0.54515 h -0.525211 c 0.089751,-0.32909 0.192799,-0.71801 0.2626055,-0.95735 0.063158,0.23934 0.1728543,0.62826 0.2626055,0.95735 z m 0.7735677,0.67812 c 0.063158,0 0.1063718,-0.0432 0.1063718,-0.10637 v -1.92799 c 0,-0.0632 -0.043214,-0.10638 -0.1063718,-0.10638 -0.05651,0 -0.1063719,0.0432 -0.1063719,0.10638 v 1.92799 c 0,0.0631 0.049862,0.10637 0.1063719,0.10637 z m 1.6046028,-0.003 c 0.049862,-0.01 0.083103,-0.0532 0.083103,-0.10304 v -1.92799 c 0,-0.0632 -0.043214,-0.10638 -0.1063718,-0.10638 -0.063158,0 -0.1063719,0.0432 -0.1063719,0.10638 v 1.46261 c -0.1229924,-0.25596 -0.3091431,-0.63823 -0.4587285,-0.94738 -0.089751,-0.18282 -0.1795025,-0.3723 -0.2692538,-0.56177 -0.023269,-0.0432 -0.069806,-0.0665 -0.1196683,-0.0565 -0.049862,0.01 -0.083103,0.0532 -0.083103,0.10305 v 1.92799 c 0,0.0631 0.043214,0.10637 0.1063719,0.10637 0.063158,0 0.1063718,-0.0432 0.1063718,-0.10637 v -1.46262 c 0.1229924,0.25596 0.305819,0.63823 0.4554044,0.94738 0.089751,0.18282 0.1795025,0.3723 0.2725779,0.56177 0.023269,0.0432 0.069806,0.0698 0.1196683,0.0565 z"
       id="text50313"
       aria-label="FX GAIN" />
    <path
       style="font-weight:bold;font-stretch:condensed;font-size:2.26937px;line-height:0.77;font-family:Miso;-inkscape-font-specification:'Miso Bold Condensed';text-align:end;letter-spacing:-0.00813305px;word-spacing:0px;text-anchor:end;fill:#ffffff;stroke-width:0.284733"
       d="m -17.992235,217.61459 v 0.56281 h -0.399409 v -0.56281 c 0,-0.0431 -0.0295,-0.0726 -0.07262,-0.0726 -0.03858,0 -0.07262,0.0295 -0.07262,0.0726 v 1.31624 c 0,0.0431 0.03404,0.0726 0.07262,0.0726 0.04312,0 0.07262,-0.0295 0.07262,-0.0726 v -0.60819 h 0.399409 v 0.60819 c 0,0.0431 0.03404,0.0726 0.07262,0.0726 0.04312,0 0.07262,-0.0295 0.07262,-0.0726 v -1.31624 c 0,-0.0431 -0.0295,-0.0726 -0.07262,-0.0726 -0.03858,0 -0.07262,0.0295 -0.07262,0.0726 z m 1.215059,1.29808 -0.363099,-1.31623 c -0.0091,-0.034 -0.03631,-0.0545 -0.07035,-0.0545 -0.03404,0 -0.06127,0.0204 -0.07035,0.0545 l -0.363099,1.31623 c -0.01135,0.0386 0.01135,0.0772 0.04993,0.0885 0.04312,0.0113 0.07943,-0.0113 0.09078,-0.0499 0.0068,-0.0227 0.01362,-0.0477 0.02042,-0.0749 0.01589,-0.0477 0.02723,-0.1112 0.0522,-0.19062 h 0.440257 c 0.02043,0.0794 0.03631,0.14297 0.0522,0.19062 0.0068,0.0272 0.01362,0.0522 0.02042,0.0749 0.01135,0.0386 0.04993,0.0613 0.08851,0.0499 0.04312,-0.0113 0.06354,-0.0499 0.05219,-0.0885 z m -0.254169,-0.37217 h -0.358561 c 0.06127,-0.22467 0.131624,-0.49019 0.17928,-0.65358 0.04312,0.16339 0.118008,0.42891 0.179281,0.65358 z m 1.146974,-0.51742 v -0.12709 c 0,-0.19062 -0.154317,-0.34494 -0.344944,-0.34494 h -0.272324 c -0.03858,0 -0.07262,0.0295 -0.07262,0.0726 v 1.30716 c 0,0.0431 0.03404,0.0726 0.07262,0.0726 0.04312,0 0.07262,-0.0295 0.07262,-0.0726 v -0.56281 h 0.186089 l 0.217859,0.58777 c 0.01589,0.0386 0.05674,0.059 0.09304,0.0431 0.03858,-0.0159 0.059,-0.0567 0.04312,-0.0931 l -0.208782,-0.5628 c 0.127085,-0.0522 0.213321,-0.17474 0.213321,-0.31998 z m -0.344944,0.1997 h -0.199705 v -0.52649 h 0.199705 c 0.111199,0 0.199705,0.0908 0.199705,0.1997 v 0.12709 c 0,0.1112 -0.08851,0.1997 -0.199705,0.1997 z m 0.935926,-0.67173 h -0.272325 c -0.04312,0 -0.07262,0.0295 -0.07262,0.0726 v 1.29808 c 0,0.0431 0.0295,0.0726 0.07262,0.0726 h 0.272325 c 0.190627,0 0.344944,-0.15432 0.344944,-0.34494 v -0.75344 c 0,-0.19062 -0.154317,-0.34494 -0.344944,-0.34494 z m 0.199704,0.34494 v 0.75344 c 0,0.11119 -0.0885,0.1997 -0.199704,0.1997 h -0.199705 v -1.15284 h 0.199705 c 0.111199,0 0.199704,0.0908 0.199704,0.1997 z"
       id="text50351"
       aria-label="HARD" />
    <path
       style="font-weight:bold;font-stretch:condensed;font-size:2.26937px;line-height:0.77;font-family:Miso;-inkscape-font-specification:'Miso Bold Condensed';text-align:end;letter-spacing:-0.00813305px;word-spacing:0px;text-anchor:end;fill:#ffffff;stroke-width:0.284733"
       d="m -4.6638553,218.8151 c -0.049926,0.0386 -0.1066604,0.0499 -0.1679334,0.0386 -0.061273,-0.0113 -0.1111992,-0.0477 -0.140701,-0.0999 -0.020424,-0.0363 -0.065812,-0.0477 -0.099852,-0.0272 -0.03404,0.0204 -0.045387,0.0635 -0.027232,0.0999 0.052195,0.0885 0.1384316,0.14978 0.2382839,0.1702 0.099852,0.0204 0.2042433,-0.005 0.2859406,-0.0658 0.081697,-0.0613 0.1316235,-0.15431 0.1407009,-0.25644 0.00681,-0.10212 -0.029502,-0.20197 -0.099852,-0.27459 l -0.3630993,-0.37445 c -0.040849,-0.0431 -0.059004,-0.0953 -0.054465,-0.15431 0.00454,-0.0613 0.029502,-0.10893 0.077159,-0.14297 0.047657,-0.0363 0.1021217,-0.0477 0.1611253,-0.0363 0.059004,0.0113 0.104391,0.0431 0.1338929,0.0953 0.018155,0.034 0.063542,0.0477 0.097583,0.0272 0.03631,-0.0204 0.047657,-0.0658 0.027232,-0.0999 -0.052196,-0.0885 -0.1316235,-0.14524 -0.2292064,-0.16566 -0.097583,-0.0204 -0.1974352,0.002 -0.2768631,0.0635 -0.079428,0.0613 -0.1293541,0.14978 -0.1361622,0.24963 -0.00908,0.0976 0.024963,0.19516 0.095314,0.26552 l 0.3630992,0.37217 c 0.043118,0.0431 0.065812,0.10212 0.059004,0.1634 -0.00454,0.0635 -0.031771,0.11347 -0.083967,0.15204 z m 0.7861464,0.18836 c 0.1906271,0 0.3449442,-0.15431 0.3449442,-0.34494 v -0.77159 c 0,-0.19062 -0.1543171,-0.34494 -0.3449442,-0.34494 -0.1906271,0 -0.3449443,0.15432 -0.3449443,0.34494 v 0.77159 c 0,0.19063 0.1543172,0.34494 0.3449443,0.34494 z m 0,-1.31623 c 0.1089297,0 0.1997045,0.0908 0.1997045,0.1997 v 0.77159 c 0,0.1112 -0.090775,0.1997 -0.1997045,0.1997 -0.1111992,0 -0.1997046,-0.0885 -0.1997046,-0.1997 v -0.77159 c 0,-0.10893 0.088505,-0.1997 0.1997046,-0.1997 z m 0.6908338,1.30715 c 0.043118,0 0.07262,-0.0295 0.07262,-0.0726 v -0.59911 h 0.3358668 c 0.043118,0 0.07262,-0.0295 0.07262,-0.0726 0,-0.0431 -0.029502,-0.0726 -0.07262,-0.0726 h -0.3358668 v -0.4811 h 0.3812542 c 0.043118,0 0.07262,-0.0295 0.07262,-0.0726 0,-0.0431 -0.029502,-0.0726 -0.07262,-0.0726 h -0.453874 c -0.038579,0 -0.07262,0.0295 -0.07262,0.0726 v 1.29807 c 0,0.0431 0.034041,0.0726 0.07262,0.0726 z m 1.3081029,-1.44331 h -0.5900362 c -0.038579,0 -0.07262,0.0295 -0.07262,0.0726 0,0.0431 0.034041,0.0726 0.07262,0.0726 h 0.2223982 v 1.23453 c 0,0.0431 0.034041,0.0726 0.07262,0.0726 0.043118,0 0.07262,-0.0295 0.07262,-0.0726 v -1.23453 h 0.2223983 c 0.043118,0 0.07262,-0.0295 0.07262,-0.0726 0,-0.0431 -0.029502,-0.0726 -0.07262,-0.0726 z"
       id="text50355"
       aria-label="SOFT" />
    <rect
       style="display:inline;opacity:1;fill:none;fill-opacity:1;stroke:#ffffff;stroke-width:0.273095;stroke-linecap:round;stroke-miterlimit:4;stroke-dasharray:none;stroke-dashoffset:0;stroke-opacity:1"
       id="rect50357"
       width="4.1782546"
       height="7.674026"
       x="2.4642739"
       y="-252.02803"
       rx="0.63522077"
       ry="0.63522071"
       transform="scale(-1)"
       inkscape:export-filename="C:\Users\Pascu\Dropbox\Modulos\In process\Molten bypass\Panel\Molten Bypass.png"
       inkscape:export-xdpi="600"
       inkscape:export-ydpi="600" />
    <rect
       style="display:inline;opacity:1;fill:none;fill-opacity:1;stroke:#ffffff;stroke-width:0.273095;stroke-linecap:round;stroke-miterlimit:4;stroke-dasharray:none;stroke-dashoffset:0;stroke-opacity:1"
       id="rect50359"
       width="4.1782546"
       height="7.674026"
       x="-220.36185"
       y="-13.837014"
       rx="0.63522077"
       ry="0.63522071"
       transform="rotate(-90)"
       inkscape:export-filename="C:\Users\Pascu\Dropbox\Modulos\In process\Molten bypass\Panel\Molten Bypass.png"
       inkscape:export-xdpi="600"
       inkscape:export-ydpi="600" />
    <path
       style="font-weight:bold;font-stretch:condensed;font-size:2.76307px;line-height:0.77;font-family:Miso;-inkscape-font-specification:'Miso Bold Condensed';text-align:end;letter-spacing:-0.00990226px;word-spacing:0px;text-anchor:end;fill:#ffffff;stroke-width:0.284733"
       d="m -11.10413,225.51299 c 0.229335,0 0.419986,-0.18789 0.419986,-0.41999 v -0.93944 c 0,-0.2321 -0.190651,-0.41999 -0.419986,-0.41999 -0.232098,0 -0.419987,0.18789 -0.419987,0.41999 v 0.93944 c 0,0.2321 0.187889,0.41999 0.419987,0.41999 z m 0,-1.60258 c 0.132627,0 0.24315,0.11052 0.24315,0.24315 v 0.93944 c 0,0.13539 -0.110523,0.24315 -0.24315,0.24315 -0.135391,0 -0.24315,-0.10776 -0.24315,-0.24315 v -0.93944 c 0,-0.13263 0.107759,-0.24315 0.24315,-0.24315 z m 1.084274,1.586 h 0.2763073 c 0.044209,0 0.082892,-0.0359 0.082892,-0.0829 v -1.64679 c 0,-0.047 -0.038683,-0.0829 -0.082892,-0.0829 -0.046972,0 -0.082892,0.0359 -0.082892,0.0829 v 0.48077 h -0.1934152 c -0.198941,0 -0.359199,0.16026 -0.359199,0.3592 v 0.53051 c 0,0.19894 0.160258,0.3592 0.359199,0.3592 z m 0,-1.08312 h 0.1934152 v 0.91734 h -0.1934152 c -0.107759,0 -0.193415,-0.0857 -0.193415,-0.19342 v -0.53051 c 0,-0.10776 0.08566,-0.19341 0.193415,-0.19341 z m 0.7306022,-0.58025 v 1.58048 c 0,0.0525 0.03592,0.0884 0.088418,0.0884 h 0.3315684 c 0.2320979,0 0.4199867,-0.18789 0.4199867,-0.41999 v -0.15473 c 0,-0.13539 -0.063551,-0.2542 -0.1630211,-0.33157 0.099471,-0.0774 0.1630211,-0.19618 0.1630211,-0.33157 v -0.0995 c 0,-0.2321 -0.1878888,-0.41998 -0.4199867,-0.41998 h -0.3315684 c -0.052498,0 -0.088418,0.0359 -0.088418,0.0884 z m 0.6631368,1.09418 v 0.15473 c 0,0.13539 -0.1105228,0.24315 -0.2431502,0.24315 h -0.2431501 v -0.64103 h 0.2431501 c 0.1326274,0 0.2431502,0.11052 0.2431502,0.24315 z m 0,-0.76261 v 0.0995 c 0,0.13539 -0.1105228,0.24315 -0.2431502,0.24315 h -0.2431501 v -0.58577 h 0.2431501 c 0.1326274,0 0.2431502,0.11052 0.2431502,0.24315 z"
       id="text91071"
       aria-label="0dB" />
    <g
       id="text4662"
       style="font-weight:bold;font-stretch:condensed;font-size:10.8383px;line-height:0%;font-family:Miso;-inkscape-font-specification:'Miso Bold Condensed';text-align:center;text-anchor:middle;fill:#ffffff;stroke-width:0.202184"
       transform="scale(1.107169,0.90320447)"
       aria-label="MOLTEN&#10;BYPASS">
      <path
         style="font-size:2.97553px;line-height:92%"
         d="m -7.9379634,307.65076 c 0.050584,0 0.095217,-0.0387 0.095217,-0.0952 v -1.30031 c 0.068437,0.15176 0.1428255,0.30648 0.1993605,0.4255 0.032731,0.0684 0.065462,0.13688 0.095217,0.20234 0.014878,0.0357 0.044633,0.0536 0.08629,0.0536 0.038682,0 0.065462,-0.0178 0.08629,-0.0536 0.029755,-0.0655 0.062486,-0.1339 0.095217,-0.20234 0.056535,-0.11902 0.1279478,-0.27374 0.1993605,-0.4255 v 1.30031 c 0,0.0565 0.038682,0.0952 0.095217,0.0952 0.050584,0 0.095217,-0.0387 0.095217,-0.0952 v -1.72581 c 0,-0.0446 -0.029755,-0.0833 -0.074388,-0.0922 -0.044633,-0.009 -0.08629,0.0119 -0.107119,0.0506 -0.050584,0.11009 -0.1011681,0.21721 -0.1517521,0.32135 -0.08629,0.17556 -0.1815073,0.38682 -0.2380424,0.50882 -0.059511,-0.122 -0.1547275,-0.33029 -0.2380423,-0.50882 -0.050584,-0.10414 -0.1011681,-0.21126 -0.1517521,-0.32135 -0.020829,-0.0387 -0.062486,-0.0595 -0.107119,-0.0506 -0.044633,0.009 -0.074388,0.0476 -0.074388,0.0922 v 1.72581 c 0,0.0565 0.038682,0.0952 0.095217,0.0952 z m 1.8686342,0 c 0.2499445,0 0.4522805,-0.20234 0.4522805,-0.45228 v -1.01168 c 0,-0.24995 -0.202336,-0.45228 -0.4522805,-0.45228 -0.2499445,0 -0.4522806,0.20233 -0.4522806,0.45228 v 1.01168 c 0,0.24994 0.2023361,0.45228 0.4522806,0.45228 z m 0,-1.72581 c 0.1428254,0 0.2618466,0.11902 0.2618466,0.26185 v 1.01168 c 0,0.1458 -0.1190212,0.26184 -0.2618466,0.26184 -0.145801,0 -0.2618467,-0.11604 -0.2618467,-0.26184 v -1.01168 c 0,-0.14283 0.1160457,-0.26185 0.2618467,-0.26185 z m 0.9164643,1.7139 h 0.595106 c 0.050584,0 0.095217,-0.0387 0.095217,-0.0952 0,-0.0565 -0.044633,-0.0952 -0.095217,-0.0952 h -0.499889 v -1.61869 c 0,-0.0565 -0.044633,-0.0952 -0.095217,-0.0952 -0.056535,0 -0.095217,0.0387 -0.095217,0.0952 v 1.71391 c 0,0.0565 0.038682,0.0952 0.095217,0.0952 z m 1.5115695,-1.89243 h -0.7736378 c -0.050584,0 -0.095217,0.0387 -0.095217,0.0952 0,0.0565 0.044633,0.0952 0.095217,0.0952 h 0.291602 v 1.61869 c 0,0.0565 0.044633,0.0952 0.095217,0.0952 0.056535,0 0.095217,-0.0387 0.095217,-0.0952 v -1.61869 h 0.2916019 c 0.056535,0 0.095217,-0.0387 0.095217,-0.0952 0,-0.0565 -0.038682,-0.0952 -0.095217,-0.0952 z m 0.3808654,0.0952 v 1.70201 c 0,0.0565 0.038682,0.0952 0.095217,0.0952 h 0.595106 c 0.056535,0 0.095217,-0.0387 0.095217,-0.0952 0,-0.0565 -0.038682,-0.0952 -0.095217,-0.0952 h -0.499889 v -0.69032 h 0.4403784 c 0.056535,0 0.095217,-0.0387 0.095217,-0.0952 0,-0.0565 -0.038682,-0.0952 -0.095217,-0.0952 h -0.4403784 v -0.63081 h 0.499889 c 0.056535,0 0.095217,-0.0387 0.095217,-0.0952 0,-0.0565 -0.038682,-0.0952 -0.095217,-0.0952 h -0.595106 c -0.056535,0 -0.095217,0.0387 -0.095217,0.0952 z m 2.044189,1.80615 c 0.044633,-0.009 0.074388,-0.0476 0.074388,-0.0922 v -1.72581 c 0,-0.0565 -0.038682,-0.0952 -0.095217,-0.0952 -0.056535,0 -0.095217,0.0387 -0.095217,0.0952 v 1.30924 c -0.1100946,-0.22912 -0.2767243,-0.57131 -0.4106232,-0.84803 -0.080339,-0.16365 -0.1606786,-0.33326 -0.2410179,-0.50286 -0.020829,-0.0387 -0.062486,-0.0595 -0.107119,-0.0506 -0.044633,0.009 -0.074388,0.0476 -0.074388,0.0922 v 1.72581 c 0,0.0565 0.038682,0.0952 0.095217,0.0952 0.056535,0 0.095217,-0.0387 0.095217,-0.0952 v -1.30923 c 0.1100946,0.22911 0.2737488,0.5713 0.4076476,0.84802 0.080339,0.16366 0.1606786,0.33326 0.2439935,0.50287 0.020829,0.0387 0.062486,0.0625 0.107119,0.0506 z"
         id="path2" />
      <path
         style="font-size:2.97553px;line-height:92%"
         d="m -7.9349851,309.29493 v 1.702 c 0,0.0565 0.038682,0.0952 0.095217,0.0952 h 0.3570636 c 0.2499445,0 0.4522805,-0.20234 0.4522805,-0.45228 v -0.16663 c 0,-0.1458 -0.068437,-0.27375 -0.1755563,-0.35707 0.1071191,-0.0833 0.1755563,-0.21126 0.1755563,-0.35706 v -0.10712 c 0,-0.24994 -0.202336,-0.45228 -0.4522805,-0.45228 h -0.3570636 c -0.056535,0 -0.095217,0.0387 -0.095217,0.0952 z m 0.7141272,1.17831 v 0.16663 c 0,0.1458 -0.1190212,0.26184 -0.2618466,0.26184 h -0.2618467 v -0.69032 h 0.2618467 c 0.1428254,0 0.2618466,0.11902 0.2618466,0.26185 z m 0,-0.82125 v 0.10712 c 0,0.1458 -0.1190212,0.26185 -0.2618466,0.26185 h -0.2618467 v -0.63082 h 0.2618467 c 0.1428254,0 0.2618466,0.11903 0.2618466,0.26185 z m 0.8599267,0.48799 v 0.86885 c 0,0.0565 0.038682,0.0952 0.095217,0.0952 0.056535,0 0.095217,-0.0387 0.095217,-0.0952 v -0.86885 l 0.4076476,-0.8153 c 0.023804,-0.0446 0.00298,-0.10414 -0.044633,-0.12795 -0.047608,-0.0208 -0.1041435,-0.003 -0.1279477,0.0446 l -0.3302839,0.66057 -0.3302838,-0.66057 c -0.023804,-0.0476 -0.083315,-0.0655 -0.1279478,-0.0446 -0.047608,0.0238 -0.068437,0.0833 -0.044633,0.12795 z m 0.8956357,-0.84505 v 1.7139 c 0,0.0565 0.038682,0.0952 0.095217,0.0952 0.056535,0 0.095217,-0.0387 0.095217,-0.0952 v -0.73793 h 0.2618467 c 0.2499445,0 0.4522805,-0.20234 0.4522805,-0.45228 v -0.16663 c 0,-0.24994 -0.202336,-0.45228 -0.4522805,-0.45228 h -0.3570636 c -0.056535,0 -0.095217,0.0387 -0.095217,0.0952 z m 0.7141272,0.35706 v 0.16663 c 0,0.1458 -0.1190212,0.26185 -0.2618466,0.26185 h -0.2618467 v -0.69033 h 0.2618467 c 0.1428254,0 0.2618466,0.11903 0.2618466,0.26185 z m 1.3657642,1.33304 -0.4760848,-1.72581 c -0.011902,-0.0446 -0.047608,-0.0714 -0.092241,-0.0714 -0.044633,0 -0.080339,0.0268 -0.092241,0.0714 l -0.4760848,1.72581 c -0.014878,0.0506 0.014878,0.10117 0.065462,0.11604 0.056535,0.0149 0.1041435,-0.0149 0.1190212,-0.0655 0.00893,-0.0298 0.017853,-0.0625 0.02678,-0.0982 0.020829,-0.0625 0.035706,-0.1458 0.068437,-0.24995 h 0.5772528 c 0.02678,0.10415 0.047608,0.18746 0.068437,0.24995 0.00893,0.0357 0.017853,0.0684 0.02678,0.0982 0.014878,0.0506 0.065462,0.0803 0.1160456,0.0655 0.056535,-0.0149 0.083315,-0.0655 0.068437,-0.11604 z m -0.3332593,-0.48799 h -0.4701337 c 0.080339,-0.29458 0.1725807,-0.64271 0.2350668,-0.85695 0.056535,0.21424 0.1547276,0.56237 0.2350669,0.85695 z m 1.1217725,0.36004 c -0.065462,0.0506 -0.13985,0.0655 -0.2201893,0.0506 -0.080339,-0.0149 -0.1458009,-0.0625 -0.1844828,-0.13092 -0.02678,-0.0476 -0.08629,-0.0625 -0.1309233,-0.0357 -0.044633,0.0268 -0.059511,0.0833 -0.035706,0.13093 0.068437,0.11604 0.1815073,0.19638 0.3124307,0.22316 0.1309233,0.0268 0.2677976,-0.006 0.3749167,-0.0863 0.1071191,-0.0803 0.1725808,-0.20233 0.1844829,-0.33623 0.00893,-0.1339 -0.038682,-0.26482 -0.1309233,-0.36004 l -0.4760848,-0.49096 c -0.05356,-0.0565 -0.077364,-0.12498 -0.071413,-0.20234 0.00595,-0.0803 0.038682,-0.14283 0.101168,-0.18746 0.062486,-0.0476 0.1338988,-0.0625 0.2112626,-0.0476 0.077364,0.0149 0.1368744,0.0565 0.1755563,0.12498 0.023804,0.0446 0.083315,0.0625 0.1279477,0.0357 0.047608,-0.0268 0.062486,-0.0863 0.035706,-0.13092 -0.068437,-0.11605 -0.1725807,-0.19044 -0.3005285,-0.21722 -0.1279478,-0.0268 -0.2588711,0.003 -0.3630147,0.0833 -0.1041435,0.0803 -0.1696052,0.19638 -0.1785318,0.32731 -0.011902,0.12795 0.032731,0.25589 0.1249723,0.34813 l 0.4760848,0.48799 c 0.056535,0.0565 0.08629,0.1339 0.077364,0.21424 -0.00595,0.0833 -0.041657,0.14878 -0.1100946,0.19936 z m 1.1366524,0 c -0.065462,0.0506 -0.1398499,0.0655 -0.2201892,0.0506 -0.080339,-0.0149 -0.145801,-0.0625 -0.1844828,-0.13092 -0.02678,-0.0476 -0.08629,-0.0625 -0.1309234,-0.0357 -0.044633,0.0268 -0.059511,0.0833 -0.035706,0.13093 0.068437,0.11604 0.1815073,0.19638 0.3124306,0.22316 0.1309233,0.0268 0.2677977,-0.006 0.3749168,-0.0863 0.1071191,-0.0803 0.1725807,-0.20233 0.1844828,-0.33623 0.00893,-0.1339 -0.038682,-0.26482 -0.1309233,-0.36004 l -0.4760848,-0.49096 c -0.053559,-0.0565 -0.077364,-0.12498 -0.071413,-0.20234 0.00595,-0.0803 0.038682,-0.14283 0.101168,-0.18746 0.062486,-0.0476 0.1338989,-0.0625 0.2112627,-0.0476 0.077364,0.0149 0.1368743,0.0565 0.1755562,0.12498 0.023804,0.0446 0.083315,0.0625 0.1279478,0.0357 0.047608,-0.0268 0.062486,-0.0863 0.035706,-0.13092 -0.068437,-0.11605 -0.1725808,-0.19044 -0.3005285,-0.21722 -0.1279478,-0.0268 -0.2588711,0.003 -0.3630147,0.0833 -0.1041435,0.0803 -0.1696052,0.19638 -0.1785318,0.32731 -0.011902,0.12795 0.032731,0.25589 0.1249723,0.34813 l 0.4760848,0.48799 c 0.056535,0.0565 0.08629,0.1339 0.077364,0.21424 -0.00595,0.0833 -0.041657,0.14878 -0.1100946,0.19936 z"
         id="path3" />
    </g>
  </g>
  <g
     inkscape:groupmode="layer"
     id="layer2"
     inkscape:label="components"
     style="display:none;opacity:0.97">
    <circle
       style="display:inline;fill:#00ff00;stroke:none;stroke-width:0.3;stroke-linejoin:bevel;stroke-miterlimit:1.5"
       id="path1"
       cx="-14.994238"
       cy="168.21477"
       r="1.1899534"
       transform="translate(19.999999,-153.18449)"
       inkscape:label="in_l" />
    <circle
       style="display:inline;fill:#00ff00;stroke:none;stroke-width:0.3;stroke-linejoin:bevel;stroke-miterlimit:1.5"
       id="path1-3"
       cx="15.016044"
       cy="15.03028"
       r="1.1899534"
       inkscape:label="in_r" />
    <circle
       style="display:inline;opacity:0.97;fill:#0000ff;stroke:none;stroke-width:0.3;stroke-linejoin:bevel;stroke-miterlimit:1.5"
       id="path1-8"
       cx="4.9566617"
       cy="27.961397"
       r="1.1899534"
       inkscape:label="tofx_l" />
    <circle
       style="display:inline;opacity:0.97;fill:#0000ff;stroke:none;stroke-width:0.3;stroke-linejoin:bevel;stroke-miterlimit:1.5"
       id="path1-3-7"
       cx="14.956672"
       cy="27.961397"
       r="1.1899534"
       inkscape:label="tofx_r" />
    <circle
       style="display:inline;opacity:0.97;fill:#0000ff;stroke:none;stroke-width:0.3;stroke-linejoin:bevel;stroke-miterlimit:1.5"
       id="path1-8-2"
       cx="4.9467716"
       cy="53.845936"
       r="1.1899534"
       inkscape:label="out_l" />
    <circle
       style="display:inline;opacity:0.97;fill:#0000ff;stroke:none;stroke-width:0.3;stroke-linejoin:bevel;stroke-miterlimit:1.5"
       id="path1-3-7-8"
       cx="14.956672"
       cy="53.823639"
       r="1.1899534"
       inkscape:label="out_r" />
    <circle
       style="display:inline;opacity:0.97;fill:#00ff00;stroke:none;stroke-width:0.3;stroke-linejoin:bevel;stroke-miterlimit:1.5"
       id="path1-5"
       cx="5.0010939"
       cy="40.892525"
       r="1.1899534"
       inkscape:label="from_fx_l" />
    <circle
       style="display:inline;opacity:0.97;fill:#00ff00;stroke:none;stroke-width:0.3;stroke-linejoin:bevel;stroke-miterlimit:1.5"
       id="path1-5-7"
       cx="6.647604"
       cy="95.027534"
       r="1.1899534"
       inkscape:label="launch" />
    <circle
       style="display:inline;opacity:0.97;fill:#00ff00;stroke:none;stroke-width:0.3;stroke-linejoin:bevel;stroke-miterlimit:1.5"
       id="path1-5-8"
       cx="15.001097"
       cy="40.892525"
       r="1.1899534"
       inkscape:label="from_fx_r" />
    <circle
       style="display:inline;opacity:0.97;fill:#ff0000;stroke:none;stroke-width:0.3;stroke-linejoin:bevel;stroke-miterlimit:1.5"
       id="path1-6"
       cx="9.9999933"
       cy="78.902885"
       r="1.1899534"
       inkscape:label="fx_gain" />
    <circle
       style="display:inline;opacity:0.97;fill:#ff0000;stroke:none;stroke-width:0.3;stroke-linejoin:bevel;stroke-miterlimit:1.5"
       id="path1-6-3"
       cx="10.000002"
       cy="111.28659"
       r="1.1899534"
       inkscape:label="launch" />
    <rect
       style="fill:#ff0000;stroke:none;stroke-width:0.3;stroke-linejoin:bevel;stroke-miterlimit:1.5"
       id="rect1"
       width="3.2393174"
       height="1.65271"
       x="6.9744487"
       y="63.662502"
       rx="0"
       inkscape:label="mode" />
    <rect
       style="display:inline;opacity:0.97;fill:#ff0000;stroke:none;stroke-width:0.3;stroke-linejoin:bevel;stroke-miterlimit:1.5"
       id="rect1-9"
       width="3.2393174"
       height="1.65271"
       x="14.091114"
       y="92.140518"
       rx="0"
       inkscape:label="latch" />
  </g>
</svg>
