<?xml version="1.0" encoding="UTF-8" standalone="no"?>
<svg xmlns:osb="http://www.openswatchbook.org/uri/2009/osb" xmlns:dc="http://purl.org/dc/elements/1.1/" xmlns:cc="http://creativecommons.org/ns#" xmlns:rdf="http://www.w3.org/1999/02/22-rdf-syntax-ns#" xmlns:svg="http://www.w3.org/2000/svg" xmlns="http://www.w3.org/2000/svg" xmlns:sodipodi="http://sodipodi.sourceforge.net/DTD/sodipodi-0.dtd" xmlns:inkscape="http://www.inkscape.org/namespaces/inkscape" width="66.040001mm" height="128.5mm" viewBox="0 0 66.040011 128.50002" version="1.1" id="svg8" inkscape:version="0.92.5 (2060ec1f9f, 2020-04-08)" sodipodi:docname="prince_of_perception.svg">
  <defs id="defs2">
    <inkscape:path-effect effect="spiro" id="path-effect1125" is_visible="true" />
    <inkscape:path-effect effect="spiro" id="path-effect1085" is_visible="true" />
    <linearGradient id="linearGradient1021" osb:paint="gradient">
      <stop id="stop1017" offset="0" style="stop-color:#ffffff;stop-opacity:1;" />
      <stop id="stop1019" offset="1" style="stop-color:#ffffff;stop-opacity:0;" />
    </linearGradient>
    <inkscape:path-effect effect="spiro" id="path-effect1085-5" is_visible="true" />
    <inkscape:path-effect effect="spiro" id="path-effect1085-5-3" is_visible="true" />
    <inkscape:path-effect effect="spiro" id="path-effect1125-2" is_visible="true" />
    <inkscape:path-effect effect="spiro" id="path-effect1125-8" is_visible="true" />
    <inkscape:path-effect effect="spiro" id="path-effect1125-81" is_visible="true" />
    <inkscape:path-effect effect="spiro" id="path-effect1125-8-5" is_visible="true" />
    <inkscape:path-effect effect="spiro" id="path-effect1125-23" is_visible="true" />
    <inkscape:path-effect effect="spiro" id="path-effect1125-8-4" is_visible="true" />
    <inkscape:path-effect effect="spiro" id="path-effect1125-27" is_visible="true" />
    <inkscape:path-effect effect="spiro" id="path-effect1125-8-6" is_visible="true" />
    <inkscape:path-effect effect="spiro" id="path-effect1125-3" is_visible="true" />
    <inkscape:path-effect effect="spiro" id="path-effect1125-8-1" is_visible="true" />
    <inkscape:path-effect effect="spiro" id="path-effect1125-27-0" is_visible="true" />
    <inkscape:path-effect effect="spiro" id="path-effect1125-8-6-6" is_visible="true" />
    <inkscape:path-effect effect="spiro" id="path-effect1125-27-1" is_visible="true" />
    <inkscape:path-effect effect="spiro" id="path-effect1125-8-6-8" is_visible="true" />
    <inkscape:path-effect effect="spiro" id="path-effect1125-27-2" is_visible="true" />
    <inkscape:path-effect effect="spiro" id="path-effect1125-8-6-2" is_visible="true" />
    <inkscape:path-effect effect="spiro" id="path-effect1125-27-2-3" is_visible="true" />
    <inkscape:path-effect effect="spiro" id="path-effect1125-8-6-2-6" is_visible="true" />
    <inkscape:path-effect effect="spiro" id="path-effect1125-27-2-0" is_visible="true" />
    <inkscape:path-effect effect="spiro" id="path-effect1125-8-6-2-4" is_visible="true" />
  </defs>
  <sodipodi:namedview inkscape:object-nodes="false" id="base" pagecolor="#72717b" bordercolor="#666666" borderopacity="1.0" inkscape:pageopacity="0" inkscape:pageshadow="2" inkscape:zoom="255.99999" inkscape:cx="139.26032" inkscape:cy="83.121562" inkscape:document-units="mm" inkscape:current-layer="layer3" showgrid="true" units="mm" inkscape:snap-bbox="true" inkscape:snap-page="true" inkscape:bbox-nodes="false" inkscape:snap-bbox-edge-midpoints="false" inkscape:window-width="2709" inkscape:window-height="1864" inkscape:window-x="872" inkscape:window-y="114" inkscape:window-maximized="0" inkscape:snap-bbox-midpoints="true" inkscape:snap-nodes="false" inkscape:document-rotation="0" showguides="true" inkscape:guide-bbox="true" inkscape:snap-global="false" inkscape:showpageshadow="2" inkscape:pagecheckerboard="0" inkscape:deskcolor="#72717b">
    <inkscape:grid type="xygrid" id="grid68" visible="true" enabled="true" snapvisiblegridlinesonly="true" dotted="false" empspacing="8" spacingx="1.2700002" spacingy="1.2700002" units="mm" originx="0" originy="0" />
    <sodipodi:guide position="2.5355763,124.11176" orientation="1,0" id="guide1040" inkscape:locked="false" />
    <sodipodi:guide position="124.41399,132.83299" orientation="1,0" id="guide925" inkscape:locked="false" />
    <sodipodi:guide position="45.743187,116.3224" orientation="1,0" id="guide905" inkscape:locked="false" />
    <sodipodi:guide position="48.230654,10.158554" orientation="0,1" id="guide906" inkscape:locked="false" />
    <sodipodi:guide position="63.491746,122.34502" orientation="1,0" id="guide1088" inkscape:locked="false" inkscape:label="" inkscape:color="rgb(0,0,255)" />
    <sodipodi:guide position="17.118617,53.647688" orientation="0,1" id="guide1122" inkscape:locked="false" />
    <sodipodi:guide position="8.2682309,24.176307" orientation="1,0" id="guide985" inkscape:locked="false" />
  </sodipodi:namedview>
  <metadata id="metadata5">
    <rdf:RDF>
      <cc:Work rdf:about="">
        <dc:format>image/svg+xml</dc:format>
        <dc:type rdf:resource="http://purl.org/dc/dcmitype/StillImage" />
        <dc:title />
      </cc:Work>
    </rdf:RDF>
  </metadata>
  <g inkscape:label="Background" inkscape:groupmode="layer" id="layer1" transform="translate(0,-168.49998)" style="display:inline">
    <rect style="display:inline;opacity:1;vector-effect:none;fill:#909090;fill-opacity:1;fill-rule:evenodd;stroke:none;stroke-width:1.10370004;stroke-linecap:butt;stroke-linejoin:miter;stroke-miterlimit:4;stroke-dasharray:none;stroke-dashoffset:0;stroke-opacity:1;paint-order:normal" id="rect420" width="66.040001" height="128.50002" x="-66.0401" y="168.49998" transform="scale(-1,1)" />
    <text xml:space="preserve" style="font-style:normal;font-variant:normal;font-weight:500;font-stretch:normal;font-size:4px;line-height:1.25;font-family:Quicksand;-inkscape-font-specification:'Quicksand, Medium';font-variant-ligatures:normal;font-variant-caps:normal;font-variant-numeric:normal;font-feature-settings:normal;text-align:start;letter-spacing:0px;word-spacing:0px;writing-mode:lr-tb;text-anchor:start;stroke-width:0.26458332" x="103.17941" y="159.95752" id="text1160"><tspan sodipodi:role="line" id="tspan1158" x="103.17941" y="163.65752" style="stroke-width:0.26458332" /></text>
  </g>
  <g inkscape:groupmode="layer" id="layer4" inkscape:label="Lines" style="display:inline">
    <path style="display:inline;fill:#ecedf1;fill-opacity:1;stroke:none;stroke-width:0.62655991;stroke-miterlimit:4;stroke-dasharray:none;stroke-opacity:1" d="M 10.089067,3.1765587 H 55.876263 V 3.5833066 H 10.089067 Z" id="rect4583-9-8" inkscape:connector-curvature="0" />
    <path style="display:inline;fill:#ecedf1;fill-opacity:1;stroke:none;stroke-width:0.62634283;stroke-miterlimit:4;stroke-dasharray:none;stroke-opacity:1" d="M 10.094621,1.639988 H 55.865775 V 2.0428875 H 10.094621 Z" id="rect4583-9-8-3" inkscape:connector-curvature="0" />
    <path style="display:inline;fill:#ecedf1;fill-opacity:1;stroke:none;stroke-width:0.313434;stroke-miterlimit:4;stroke-dasharray:none;stroke-opacity:1" d="m 60.962514,1.6439082 h 2.5282 v 0.3917641 h -2.5282 z" id="rect4583-9-9-5-4" inkscape:connector-curvature="0" />
    <rect rx="1.2714761" ry="1.2477406" y="18.051477" x="45.715382" height="100.29536" width="17.790781" id="rect4574" style="display:inline;fill:#202020;fill-opacity:1;stroke-width:0.59299499" />
    <g aria-label="REL." style="font-style:normal;font-variant:normal;font-weight:600;font-stretch:normal;font-size:4px;line-height:1.25;font-family:Quicksand;-inkscape-font-specification:'Quicksand, Semi-Bold';font-variant-ligatures:normal;font-variant-caps:normal;font-variant-numeric:normal;font-feature-settings:normal;text-align:start;letter-spacing:0px;word-spacing:0px;writing-mode:lr-tb;text-anchor:start;fill:#ecedf1;fill-opacity:1;stroke-width:0.26458299" id="text936" transform="matrix(0.72484706,0,0,0.72484706,30.142598,33.097261)" />
    <path style="display:inline;fill:#242424;fill-opacity:1;stroke-width:0.88660294" d="m 48.684979,19.390471 c -1.080276,0.01725 -1.950519,0.826822 -1.950519,1.854954 V 43.247664 L 62.75969,34.001642 V 21.051763 c 0,-1.028133 -0.868471,-1.872208 -1.948745,-1.854955 z" id="rect893" inkscape:connector-curvature="0" sodipodi:nodetypes="ssccsss" />
    <text xml:space="preserve" style="font-style:normal;font-variant:normal;font-weight:bold;font-stretch:normal;font-size:3px;line-height:1.25;font-family:Quicksand;-inkscape-font-specification:'Quicksand, Bold';font-variant-ligatures:normal;font-variant-caps:normal;font-variant-numeric:normal;font-feature-settings:normal;text-align:start;letter-spacing:0px;word-spacing:0px;writing-mode:lr-tb;text-anchor:start;stroke-width:0.26458299" x="-6.8791666" y="8.6437502" id="text946"><tspan sodipodi:role="line" id="tspan943" x="-6.8791666" y="11.41875" style="font-style:normal;font-variant:normal;font-weight:bold;font-stretch:normal;font-size:4px;font-family:Quicksand;-inkscape-font-specification:'Quicksand, Bold';font-variant-ligatures:normal;font-variant-caps:normal;font-variant-numeric:normal;font-feature-settings:normal;text-align:start;writing-mode:lr-tb;text-anchor:start;stroke-width:0.26458299" /></text>
    <path style="display:inline;fill:#ecedf1;fill-opacity:1;stroke:none;stroke-width:0.31059542;stroke-miterlimit:4;stroke-dasharray:none;stroke-opacity:1" d="M 2.5365813,3.1513808 H 5.0344038 V 3.5431449 H 2.5365813 Z" id="rect4583-9-9-4-9-062" inkscape:connector-curvature="0" />
    <path style="display:inline;fill:#ecedf1;fill-opacity:1;stroke:none;stroke-width:0.31021532;stroke-miterlimit:4;stroke-dasharray:none;stroke-opacity:1" d="m 2.5373385,1.6128858 h 2.4917139 v 0.391764 H 2.5373385 Z" id="rect4583-9-9-4-9-0-36" inkscape:connector-curvature="0" />
    <path style="display:inline;fill:#ecedf1;fill-opacity:1;stroke:none;stroke-width:0.99027056;stroke-miterlimit:4;stroke-dasharray:none;stroke-opacity:1" d="M 2.5219144,12.446176 H 63.506745 V 12.83794 H 2.5219144 Z" id="rect4583-9-9-4-9-06" inkscape:connector-curvature="0" />
    <path style="display:inline;fill:#ecedf1;fill-opacity:1;stroke:none;stroke-width:0.9903568;stroke-miterlimit:4;stroke-dasharray:none;stroke-opacity:1" d="M 2.5152318,10.907681 H 63.56735 v 0.391764 H 2.5152318 Z" id="rect4583-9-9-4-9-0-3" inkscape:connector-curvature="0" />
    <path inkscape:connector-curvature="0" id="path1052" d="m 60.965936,3.1815432 h 2.5282 v 0.3917641 h -2.5282 z" style="display:inline;fill:#ecedf1;fill-opacity:1;stroke:none;stroke-width:0.313434;stroke-miterlimit:4;stroke-dasharray:none;stroke-opacity:1" />
    <g aria-label="DELAY" style="font-style:normal;font-variant:normal;font-weight:500;font-stretch:normal;font-size:4px;line-height:1.25;font-family:Quicksand;-inkscape-font-specification:'Quicksand, Medium';font-variant-ligatures:normal;font-variant-caps:normal;font-variant-numeric:normal;font-feature-settings:normal;text-align:start;letter-spacing:0px;word-spacing:0px;writing-mode:lr-tb;text-anchor:start;fill:#ecedf1;fill-opacity:1;stroke-width:0.26458299" id="g1105" transform="translate(-7.1537737,-21.86101)">
      <path style="fill:#ecedf1;fill-opacity:1;stroke-width:0.26458299" d="m 27.308875,38.056773 c 0.396964,-0.01266 0.7982,0.206439 0.979248,0.564279 0.223103,0.413632 0.251311,0.915454 0.130529,1.364733 -0.0996,0.357607 -0.347546,0.699068 -0.71328,0.813934 -0.284335,0.08802 -0.584642,0.04833 -0.877301,0.05707 -0.18462,-0.0011 -0.369559,0.0029 -0.553976,-0.0029 -0.126226,-0.02407 -0.136721,-0.17062 -0.125182,-0.273746 0.0016,-0.799236 -0.0034,-1.598741 0.0025,-2.397809 0.01685,-0.09878 0.12777,-0.14034 0.21711,-0.125604 0.313436,0 0.626873,0 0.940309,0 z m -0.04,2.488 c 0.268791,0.01124 0.545365,-0.115201 0.686924,-0.34887 0.174963,-0.276536 0.209615,-0.619764 0.176967,-0.939192 -0.03257,-0.304431 -0.159815,-0.629227 -0.437706,-0.787992 -0.162733,-0.09649 -0.35493,-0.110939 -0.539604,-0.103946 -0.235527,0 -0.471054,0 -0.706581,0 0.05358,-0.06606 0.02545,0.07076 0.032,0.105298 0,0.704902 0,1.409805 0,2.114707 -0.05397,-0.066 0.07502,-0.03236 0.113288,-0.04 0.224903,-3e-6 0.449812,7e-6 0.674712,-5e-6 z" id="path1095" inkscape:connector-curvature="0" />
      <path style="fill:#ecedf1;fill-opacity:1;stroke-width:0.26458299" d="m 29.183875,38.056773 c 0.487342,0.0018 0.974942,-0.0036 1.462122,0.0027 0.137582,0.01917 0.176157,0.236257 0.04052,0.288405 -0.102155,0.03245 -0.211616,0.01151 -0.317406,0.01687 -0.349745,0 -0.699491,0 -1.049236,0 0.02326,-0.06259 0.0446,-0.06958 0.036,-0.0023 0,0.315446 0,0.630893 0,0.946339 -0.0862,-0.08702 0.134344,-0.02615 0.181684,-0.0439 0.309448,0.0013 0.619153,-0.0034 0.928439,0.0026 0.137583,0.01917 0.176159,0.236257 0.04052,0.288405 -0.102155,0.03245 -0.211616,0.01151 -0.317406,0.01687 -0.287079,0 -0.574157,0 -0.861236,0 0.04652,-0.06501 0.02229,0.07184 0.028,0.107267 0,0.29758 0,0.595159 0,0.892738 -0.04911,-0.05783 0.109598,-0.01436 0.143015,-0.02792 0.382487,0.002 0.765428,-0.0045 1.147631,0.0034 0.142432,0.02435 0.173238,0.250632 0.0274,0.295145 -0.11775,0.02898 -0.241548,0.0055 -0.361832,0.01326 -0.387625,-0.0015 -0.775572,0.0036 -1.162995,-0.0027 -0.126226,-0.02407 -0.13672,-0.170621 -0.125181,-0.273746 0.0014,-0.798294 -0.003,-1.596814 0.0022,-2.394968 0.01181,-0.07368 0.08357,-0.130949 0.157725,-0.128443 z" id="path1097" inkscape:connector-curvature="0" />
      <path style="fill:#ecedf1;fill-opacity:1;stroke-width:0.26458299" d="m 32.849125,40.540773 c 0.148143,-0.01249 0.229643,0.212357 0.09528,0.288583 -0.110402,0.053 -0.238398,0.01653 -0.356414,0.02733 -0.385843,-0.0015 -0.772009,0.0036 -1.157649,-0.0027 -0.126225,-0.02407 -0.136724,-0.17062 -0.125179,-0.273746 0.0013,-0.797601 -0.0029,-1.595414 0.0021,-2.392883 0.02142,-0.145836 0.250969,-0.179056 0.311152,-0.0437 0.03621,0.09134 0.01208,0.192087 0.01867,0.288049 0,0.727039 0,1.454078 0,2.181117 -0.0489,-0.04093 -0.112046,-0.08733 -0.01433,-0.072 0.408777,0 0.817555,0 1.226332,0 z" id="path1099" inkscape:connector-curvature="0" />
      <path style="fill:#ecedf1;fill-opacity:1;stroke-width:0.26458299" d="m 34.445,38.472773 c -0.316544,0.770232 -0.632737,1.540608 -0.9495,2.31075 -0.05483,0.132901 -0.29513,0.09247 -0.278425,-0.05987 0.01237,-0.107731 0.07694,-0.200769 0.109904,-0.302855 0.317701,-0.769546 0.63073,-1.541269 0.951568,-2.309364 0.07409,-0.118309 0.279772,-0.07023 0.301852,0.06493 0.342431,0.829185 0.686254,1.657818 1.027815,2.487349 0.04127,0.121113 -0.09768,0.246742 -0.213343,0.188985 -0.09607,-0.05251 -0.109041,-0.171227 -0.154672,-0.261257 -0.294401,-0.707553 -0.588803,-1.415105 -0.883204,-2.122658 0.02934,0.0013 0.05867,0.0027 0.08801,0.004 z m -0.74,1.636 c 0.05546,-0.09765 0.08032,-0.242031 0.153909,-0.312 0.390031,0 0.780061,0 1.170091,0 0.02,0.104 0.04,0.208 0.06,0.312 -0.461333,0 -0.922667,0 -1.384,0 z" id="path1101" inkscape:connector-curvature="0" />
      <path style="fill:#ecedf1;fill-opacity:1;stroke-width:0.26458299" d="m 37.58725,38.040773 c 0.136783,-0.0031 0.212438,0.187019 0.117454,0.282644 -0.302856,0.425619 -0.609302,0.848665 -0.913454,1.273356 0.01597,-0.04819 0.04464,-0.193265 0.05198,-0.175552 -0.0022,0.436522 0.0046,0.873519 -0.0035,1.309744 -0.02397,0.137939 -0.236506,0.174166 -0.296717,0.04351 -0.03699,-0.100182 -0.01409,-0.209675 -0.01976,-0.314501 0,-0.342402 0,-0.684803 0,-1.027205 0.01306,0.05108 0.04709,0.145439 -0.0079,0.05527 -0.294851,-0.399545 -0.592453,-0.797064 -0.885057,-1.198265 -0.08784,-0.124078 0.0763,-0.305194 0.208118,-0.233805 0.08324,0.05179 0.123585,0.146468 0.184915,0.22 0.237322,0.325602 0.474645,0.651203 0.711967,0.976805 -0.149055,0.0064 0.02021,-0.119913 0.04334,-0.179884 0.234116,-0.327753 0.465118,-0.657913 0.701269,-0.984098 0.02742,-0.0294 0.06667,-0.04911 0.107393,-0.04802 z" id="path1103" inkscape:connector-curvature="0" />
    </g>
    <rect ry="1.0788095" rx="1.0326582" y="75.843643" x="2.9199429" height="27.605" width="21.26" id="rect1107" style="display:inline;fill:none;fill-opacity:1;fill-rule:nonzero;stroke:#acacac;stroke-width:0.29899994;stroke-linecap:round;stroke-linejoin:round;stroke-miterlimit:4;stroke-dasharray:none;stroke-dashoffset:0;stroke-opacity:1;paint-order:markers stroke fill" />
    <path style="display:inline;fill:none;fill-opacity:1;stroke:#acacac;stroke-width:0.26458332px;stroke-linecap:butt;stroke-linejoin:miter;stroke-opacity:1" d="m 13.476681,100.72234 c 0.0222,-6.512195 0.0444,-13.024375 0.0666,-19.536568" id="path1109" inkscape:connector-curvature="0" />
    <rect style="display:inline;fill:#acacac;fill-opacity:1;fill-rule:nonzero;stroke:none;stroke-width:0.29899994;stroke-linecap:round;stroke-linejoin:round;stroke-miterlimit:4;stroke-dasharray:none;stroke-dashoffset:0;stroke-opacity:1;paint-order:markers stroke fill" id="rect1111" width="21.559" height="27.903999" x="12.903812" y="42.803867" rx="1.0326582" ry="1.0788095" />
    <path inkscape:connector-curvature="0" id="path1113" d="m 23.559788,68.481326 c 0.0222,-6.51219 0.0444,-13.02437 0.0666,-19.536557" style="display:inline;fill:none;fill-opacity:1;stroke:#909090;stroke-width:0.26458332px;stroke-linecap:butt;stroke-linejoin:miter;stroke-opacity:1" />
    <rect ry="1.0788095" rx="1.0326582" y="42.949764" x="3.0415459" height="27.632296" width="9.1478052" id="rect1115" style="display:inline;fill:none;fill-opacity:1;fill-rule:nonzero;stroke:#acacac;stroke-width:0.29899994;stroke-linecap:round;stroke-linejoin:round;stroke-miterlimit:4;stroke-dasharray:none;stroke-dashoffset:0;stroke-opacity:1;paint-order:markers stroke fill" />
    <rect style="display:inline;fill:none;fill-opacity:1;fill-rule:nonzero;stroke:#acacac;stroke-width:0.29899994;stroke-linecap:round;stroke-linejoin:round;stroke-miterlimit:4;stroke-dasharray:none;stroke-dashoffset:0;stroke-opacity:1;paint-order:markers stroke fill" id="rect1117" width="9.2867432" height="27.698441" x="35.309696" y="42.826603" rx="1.0326582" ry="1.0788095" />
    <rect rx="1.0326574" ry="1.0788087" y="105.06626" x="35.367634" height="13.337568" width="9" id="rect1119" style="display:inline;fill:#202020;fill-opacity:1;stroke-width:0.21477801" />
    <rect style="display:inline;fill:#202020;fill-opacity:1;stroke-width:0.21477801" id="rect1121" width="9" height="13.337568" x="25.318151" y="105.00981" ry="1.0788087" rx="1.0326574" />
    <rect rx="1.0326574" ry="1.0788087" y="75.873199" x="25.465401" height="6.3407893" width="18.751617" id="rect1123" style="display:inline;fill:#202020;fill-opacity:1;stroke-width:0.21477801" />
    <rect rx="1.0326574" ry="1.0788087" y="104.99532" x="3.7624335" height="13.337568" width="9" id="rect1127" style="display:inline;fill:#ecedf1;fill-opacity:1;stroke-width:0.21477801" />
    <path sodipodi:nodetypes="ccccccccccccccc" inkscape:connector-curvature="0" d="m 11.325568,21.269376 0.449213,0.169954 -0.596897,1.715381 -0.151534,-0.01502 -0.142145,-0.703044 z m -1.6145956,0.492472 0.9067996,-0.01746 0.111725,0.728566 -0.7518855,2.004517 0.6507695,0.441754 0.455709,-1.2768 0.525937,2.155109 H 8.7015353 Z" style="fill:#ecedf1;fill-opacity:1;fill-rule:nonzero;stroke:none;stroke-width:0.29899994;stroke-linecap:round;stroke-linejoin:round;stroke-miterlimit:4;stroke-dasharray:none;stroke-dashoffset:0;stroke-opacity:1;paint-order:markers stroke fill" id="path1129" />
    <rect style="display:inline;fill:#ecedf1;fill-opacity:1;stroke-width:0.21477801" id="rect1046" width="8.6473589" height="8.6742878" x="3.8825779" y="94.191612" ry="1.0788087" rx="1.0326574" />
  </g>
  <g inkscape:groupmode="layer" id="layer3" inkscape:label="Text" style="display:inline">
    <text xml:space="preserve" style="font-size:4px;line-height:1.25;font-family:'Bebas Neue';-inkscape-font-specification:'Bebas Neue, Normal';letter-spacing:0px;word-spacing:0px;stroke-width:0.26458299" x="2.2612731" y="4.3884163" id="text4746"><tspan sodipodi:role="line" id="tspan4744" x="2.2612731" y="7.8884163" style="stroke-width:0.26458299" /></text>
    <g id="g950" transform="matrix(0.00173387,0,0,-0.00173387,0.84458141,12.976536)" style="fill:#000000;stroke:none" />
    <g transform="translate(-11.849997,-27.420874)" id="g1139" style="font-style:normal;font-variant:normal;font-weight:600;font-stretch:normal;font-size:4px;line-height:1.25;font-family:Quicksand;-inkscape-font-specification:'Quicksand, Semi-Bold';font-variant-ligatures:normal;font-variant-caps:normal;font-variant-numeric:normal;font-feature-settings:normal;text-align:start;letter-spacing:0px;word-spacing:0px;writing-mode:lr-tb;text-anchor:start;display:inline;fill:#ecedf1;fill-opacity:1;stroke-width:0.26458299" aria-label="MIX">
      <path sodipodi:nodetypes="ccccccccccccccccccccccccccc" inkscape:connector-curvature="0" id="path1133" d="m 27.883299,104.26203 c 0.109213,0.003 0.188453,0.0912 0.23971,0.17888 0.04531,0.0802 0.09758,0.1558 0.149416,0.23175 l 0.71489,1.09191 c 0.0057,0.007 0.01142,0.006 0.01845,-0.002 0.324183,-0.48167 0.620045,-0.93675 0.944488,-1.41824 0.04646,-0.0727 0.145968,-0.1042 0.223962,-0.0647 0.104646,0.0466 0.171733,0.17306 0.137091,0.28493 -0.0023,0.77999 0.0046,1.56001 -0.0035,2.33999 -0.0092,0.0933 -0.09727,0.16369 -0.189467,0.15945 -0.110803,0.003 -0.232567,-0.0797 -0.231353,-0.1988 0.004,-0.0397 0.01118,-0.0786 0.0083,-0.1188 v -1.66302 c 0.0016,-0.006 -0.0015,-0.0159 -0.01273,-0.005 -0.02621,0.0448 -0.01837,0.0312 -0.08062,0.12067 -0.221923,0.33701 -0.442204,0.67518 -0.665149,1.01146 -0.04601,0.066 -0.136555,0.0964 -0.211181,0.0628 -0.09326,-0.0374 -0.158906,-0.12155 -0.199754,-0.21052 -0.252861,-0.39359 -0.396093,-0.62934 -0.648949,-1.02294 -0.0088,0.004 -0.0098,-0.004 -0.01385,0.0121 -0.0014,0.67102 0.0045,1.18129 -0.0032,1.85229 -0.0076,0.0894 -0.08904,0.1628 -0.179219,0.15749 -0.111187,0.002 -0.226081,-0.0919 -0.213977,-0.20938 0.01639,-0.0824 0.006,-0.16736 0.0091,-0.25107 8.92e-4,-0.72526 -0.0047,-1.45055 0.0034,-2.17579 0.01684,-0.0943 0.109636,-0.16556 0.204204,-0.1635 z" style="fill:#ecedf1;fill-opacity:1;stroke-width:0.26458299" />
      <path inkscape:connector-curvature="0" id="path1135" d="m 31.384361,106.86203 c 0.006,0.094 -0.06747,0.17985 -0.1597,0.19323 -0.106867,0.0231 -0.242407,-0.0327 -0.263073,-0.14921 -0.0057,-0.0659 0.0079,-0.13178 0.0031,-0.19823 0.0015,-0.75993 -0.0049,-1.51988 0.0035,-2.27978 0.01261,-0.0961 0.106675,-0.16562 0.201728,-0.15719 0.110845,0.002 0.226775,0.09 0.221049,0.2082 -0.01186,0.077 -0.0045,0.15563 -0.0065,0.23348 -3.3e-5,0.71646 6.7e-5,1.43328 -5e-5,2.1495 z" style="fill:#ecedf1;fill-opacity:1;stroke-width:0.26458299" />
      <path inkscape:connector-curvature="0" id="path1137" d="m 33.910674,104.25803 c 0.08471,-0.002 0.16489,0.0612 0.176074,0.14615 0.01682,0.0918 -0.02418,0.18777 -0.0951,0.24619 -0.258991,0.34655 -0.517981,0.69311 -0.776972,1.03966 -0.076,-0.10533 -0.151998,-0.21067 -0.228,-0.316 0.267294,-0.3534 0.527933,-0.71184 0.7995,-1.062 0.03263,-0.0327 0.07768,-0.0548 0.1245,-0.054 z m -1.824,-0.004 c 0.115958,0.0101 0.192249,0.10981 0.251097,0.1998 0.06278,0.0971 0.139857,0.18355 0.206085,0.27825 0.51001,0.68566 1.021066,1.37054 1.530068,2.05695 0.04851,0.0733 0.03192,0.17838 -0.03839,0.23164 -0.08476,0.074 -0.235274,0.0813 -0.306044,-0.0158 -0.03452,-0.0659 -0.08235,-0.1233 -0.126472,-0.18327 -0.565108,-0.75742 -1.132894,-1.51284 -1.695598,-2.27205 -0.07969,-0.12608 0.03767,-0.29769 0.17925,-0.2955 z m -0.028,2.828 c -0.07896,0.003 -0.157077,-0.0523 -0.16845,-0.13251 -0.01867,-0.0992 0.02707,-0.20167 0.100999,-0.26687 0.261147,-0.35354 0.522299,-0.70708 0.783451,-1.06062 0.07333,0.108 0.146667,0.216 0.22,0.324 -0.269661,0.36074 -0.531797,0.7271 -0.80625,1.08425 -0.03418,0.0334 -0.08203,0.0525 -0.12975,0.0517 z" style="fill:#ecedf1;fill-opacity:1;stroke-width:0.26458299" />
    </g>
    <path d="m 6.8795637,108.36563 q -0.004,0.088 -0.068,0.148 -0.06,0.056 -0.144,0.056 -0.092,0 -0.152,-0.056 -0.056,-0.06 -0.056,-0.148 v -2.392 q 0,-0.088 0.06,-0.144 0.06,-0.06 0.156,-0.06 0.08,0 0.14,0.06 0.064,0.056 0.064,0.144 z" style="font-style:normal;font-variant:normal;font-weight:600;font-stretch:normal;font-size:4px;line-height:1.25;font-family:Quicksand;-inkscape-font-specification:'Quicksand, Semi-Bold';font-variant-ligatures:normal;font-variant-caps:normal;font-variant-numeric:normal;font-feature-settings:normal;text-align:start;letter-spacing:0px;word-spacing:0px;writing-mode:lr-tb;text-anchor:start;fill:#181818;fill-opacity:1;stroke-width:0.26458299" id="path1141" inkscape:connector-curvature="0" />
    <path style="font-style:normal;font-variant:normal;font-weight:600;font-stretch:normal;font-size:4px;line-height:1.25;font-family:Quicksand;-inkscape-font-specification:'Quicksand, Semi-Bold';font-variant-ligatures:normal;font-variant-caps:normal;font-variant-numeric:normal;font-feature-settings:normal;text-align:start;letter-spacing:0px;word-spacing:0px;writing-mode:lr-tb;text-anchor:start;fill:#181818;fill-opacity:1;stroke-width:0.26458299" d="m 9.6298737,105.76963 c 0.1483695,-0.005 0.2033895,0.16545 0.1799595,0.28726 -5e-4,0.77676 10e-4,1.55353 -9e-4,2.3303 -0.005,0.17375 -0.2521995,0.24599 -0.3609395,0.11784 -0.54916,-0.70733 -1.0945,-1.41852 -1.64212,-2.1274 0.0864,-0.0834 0.10694,-0.0168 0.0919,0.073 -3.4e-4,0.65124 10e-4,1.30248 -7.5e-4,1.95372 -1.1e-4,0.17931 -0.29362,0.23161 -0.35082,0.0596 -0.0348,-0.12612 -0.008,-0.25955 -0.0163,-0.3889 3.5e-4,-0.70793 -0.001,-1.41587 8.6e-4,-2.1238 0.005,-0.16913 0.2382,-0.23946 0.35266,-0.12627 0.11453,0.13413 0.21716,0.27904 0.32659,0.41789 0.43194,0.56227 0.86387,1.12454 1.29581,1.68681 -0.10306,0.12571 -0.0456,-0.10623 -0.0599,-0.16621 10e-4,-0.61415 -0.004,-1.22857 0.003,-1.84254 0.0139,-0.0848 0.0945,-0.15509 0.18128,-0.15125 z" id="path1143" inkscape:connector-curvature="0" />
    <g id="g1153" style="font-style:normal;font-variant:normal;font-weight:bold;font-stretch:normal;font-size:3px;line-height:1.25;font-family:Quicksand;-inkscape-font-specification:'Quicksand, Bold';font-variant-ligatures:normal;font-variant-caps:normal;font-variant-numeric:normal;font-feature-settings:normal;text-align:start;letter-spacing:0px;word-spacing:0px;writing-mode:lr-tb;text-anchor:start;fill:#ecedf1;fill-opacity:1;stroke-width:0.0700043" aria-label="FB" transform="translate(0.11911545,-26.234937)">
      <path inkscape:connector-curvature="0" id="path1149" d="m 5.6092293,72.805206 c -0.089367,0.0057 -0.1720664,-0.07729 -0.16326,-0.167154 -0.00165,-0.527694 -2.678e-4,-1.055422 -7.719e-4,-1.583129 5.806e-4,-0.304776 -0.00113,-0.609636 0.00109,-0.914359 0.00947,-0.08489 0.097069,-0.146681 0.1802234,-0.135355 0.4663644,2.54e-4 0.9327377,-5.29e-4 1.3990966,3.98e-4 0.091021,0.0037 0.1680218,0.09736 0.1445592,0.18766 -0.017652,0.08062 -0.1051188,0.130055 -0.1841701,0.119939 H 5.7833373 c -0.010682,0.0021 -0.010106,2.5e-4 -0.010106,0.01807 v 0.865826 c 1.047e-4,0.01265 -0.00305,0.01949 0.018856,0.02009 0.3558957,3.79e-4 0.6983838,-8.1e-4 1.0542618,6.08e-4 0.097489,0.0065 0.1763668,0.116564 0.1377523,0.20985 -0.026596,0.07161 -0.1070749,0.11078 -0.1806823,0.101534 H 5.7845089 c -0.00724,-3.86e-4 -0.011153,0.0076 -0.011282,0.01634 -3.494e-4,0.37823 7.504e-4,0.733746 -5.621e-4,1.111961 -0.00601,0.08119 -0.081799,0.150461 -0.1634268,0.147673 z" style="font-style:normal;font-variant:normal;font-weight:500;font-stretch:normal;font-size:4px;font-family:Quicksand;-inkscape-font-specification:'Quicksand, Medium';font-variant-ligatures:normal;font-variant-caps:normal;font-variant-numeric:normal;font-feature-settings:normal;text-align:start;writing-mode:lr-tb;text-anchor:start;fill:#ecedf1;fill-opacity:1;stroke-width:0.0700043" sodipodi:nodetypes="cccccccccccccccccccc" />
      <path inkscape:connector-curvature="0" id="path1151" d="m 8.9070418,70.005206 c 0.1900157,-0.0013 0.3925358,0.04317 0.5339895,0.177902 0.1334995,0.119562 0.1927889,0.301576 0.1977853,0.47687 0.010629,0.200434 -0.06371,0.411607 -0.2237506,0.538854 -0.060235,0.06228 -0.07658,0.07077 -0.1514791,0.111963 0.00101,0.0058 0.00341,0.0077 0.00753,0.0092 0.1106974,0.03834 0.2150699,0.07104 0.3139899,0.164535 0.1290339,0.126889 0.1978501,0.307839 0.1971959,0.487822 0.00664,0.18348 -0.029726,0.375834 -0.1431221,0.524607 -0.1180888,0.15991 -0.3068109,0.254182 -0.4996918,0.287709 -0.1706905,0.03205 -0.3451475,0.01714 -0.5176877,0.02058 -0.261029,-6.93e-4 -0.5221625,0.0016 -0.7831259,-0.0012 -0.082612,-0.0097 -0.1447817,-0.09334 -0.1356283,-0.17507 2.418e-4,-0.826765 -4.928e-4,-1.653538 3.708e-4,-2.4803 0.00447,-0.08819 0.094607,-0.155087 0.1802808,-0.143423 0.3411168,-1e-6 0.6822349,3e-6 1.0233508,-2e-6 z m -0.048,0.316 H 8.0507182 l -0.00368,0.0076 v 0.848205 c 0.00191,0.01113 0.00572,0.01246 0.017787,0.01619 0.2910715,-5.68e-4 0.5480694,0.0013 0.8391201,-9.99e-4 0.1665957,-0.0085 0.3304606,-0.123941 0.3704708,-0.29009 0.031597,-0.118799 0.0298,-0.249798 -0.018756,-0.363764 -0.058874,-0.125988 -0.1930408,-0.204601 -0.3294541,-0.213871 -0.022312,-0.0023 -0.044748,-0.0033 -0.067168,-0.0033 z m 0.032,1.192 h -0.832536 c 0,0 -0.00207,0.0065 -0.011464,0.01073 v 0.962887 l 0.00893,0.0064 c 0.3130011,-7.92e-4 0.5851191,0.0016 0.8980932,-0.0013 0.1564207,-0.0079 0.3215523,-0.07061 0.4117552,-0.204736 0.081739,-0.127476 0.084353,-0.288179 0.060026,-0.433036 -0.025507,-0.134106 -0.126126,-0.248106 -0.2541207,-0.293852 -0.089332,-0.03325 -0.1857752,-0.04582 -0.2806794,-0.04711 z" style="font-style:normal;font-variant:normal;font-weight:500;font-stretch:normal;font-size:4px;font-family:Quicksand;-inkscape-font-specification:'Quicksand, Medium';font-variant-ligatures:normal;font-variant-caps:normal;font-variant-numeric:normal;font-feature-settings:normal;text-align:start;writing-mode:lr-tb;text-anchor:start;fill:#ecedf1;fill-opacity:1;stroke-width:0.0700043" sodipodi:nodetypes="ccccccccccccccccccccccccccccccccccccccc" />
    </g>
    <g transform="translate(4.4555656,-7.0390092)" id="g1161" style="font-style:normal;font-variant:normal;font-weight:600;font-stretch:normal;font-size:4px;line-height:1.25;font-family:Quicksand;-inkscape-font-specification:'Quicksand, Semi-Bold';font-variant-ligatures:normal;font-variant-caps:normal;font-variant-numeric:normal;font-feature-settings:normal;text-align:start;letter-spacing:0px;word-spacing:0px;writing-mode:lr-tb;text-anchor:start;fill:#ecedf1;fill-opacity:1;stroke-width:0.26458299" aria-label="OUT">
      <path inkscape:connector-curvature="0" id="path1155" d="m 24.040057,114.26125 c 0.0066,0.43367 -0.17575,0.87333 -0.515785,1.14882 -0.372017,0.31288 -0.920458,0.37163 -1.364672,0.18982 -0.425688,-0.17759 -0.73059,-0.59172 -0.799543,-1.04464 -0.07757,-0.45605 0.02433,-0.95732 0.340828,-1.30568 0.29192,-0.32502 0.750737,-0.48003 1.181,-0.41509 0.436567,0.056 0.826895,0.35219 1.010402,0.75052 0.10091,0.21024 0.148799,0.44349 0.14777,0.67625 z m -0.432,0 c 0.0064,-0.37681 -0.176909,-0.77664 -0.52425,-0.95022 -0.333295,-0.16479 -0.773385,-0.10352 -1.029566,0.17322 -0.288505,0.3016 -0.34687,0.76631 -0.231356,1.15564 0.09507,0.32537 0.372132,0.6043 0.715168,0.6506 0.290852,0.0478 0.605683,-0.0493 0.800789,-0.27471 0.182727,-0.20483 0.271866,-0.48221 0.269215,-0.75453 z" style="fill:#ecedf1;fill-opacity:1;stroke-width:0.26458299" />
      <path inkscape:connector-curvature="0" id="path1157" d="m 26.522932,112.85725 c 0.124829,-0.008 0.208758,0.12128 0.192,0.23609 -7.96e-4,0.51443 0.0016,1.02891 -0.0012,1.54331 -0.0075,0.41145 -0.260467,0.81854 -0.64952,0.96985 -0.336782,0.12688 -0.739233,0.10634 -1.046121,-0.0892 -0.307199,-0.19643 -0.486356,-0.55852 -0.482992,-0.92012 3.05e-4,-0.51913 -0.0013,-1.03833 8e-4,-1.55743 0.0076,-0.16506 0.242316,-0.24645 0.351063,-0.1225 0.09227,0.0782 0.0569,0.20545 0.064,0.31088 9.38e-4,0.46709 -0.0019,0.93426 0.0014,1.40131 0.0035,0.32994 0.281095,0.62603 0.609266,0.65272 0.304727,0.0358 0.616877,-0.15064 0.726031,-0.43799 0.0711,-0.18386 0.04056,-0.38283 0.04727,-0.57501 4.98e-4,-0.4098 -9.98e-4,-0.81963 7.5e-4,-1.22941 0.002,-0.0995 0.08463,-0.18864 0.18725,-0.1825 z" style="fill:#ecedf1;fill-opacity:1;stroke-width:0.26458299" />
      <path inkscape:connector-curvature="0" id="path1159" d="m 28.282869,115.66125 c -0.123161,0.0114 -0.228335,-0.10167 -0.212,-0.22326 0,-0.79224 0,-1.58449 0,-2.37674 0.142667,0 0.285333,0 0.428,0 -6.66e-4,0.80585 0.0013,1.61175 -10e-4,2.41756 -0.0076,0.10689 -0.110305,0.18753 -0.215,0.18244 z m -0.908,-2.416 c -0.131945,0.0101 -0.240259,-0.12928 -0.195562,-0.2545 0.03284,-0.10727 0.153264,-0.13901 0.253328,-0.1295 0.59426,5.8e-4 1.188568,-0.001 1.782797,8.7e-4 0.135395,0.006 0.227191,0.16965 0.155999,0.28707 -0.05128,0.0956 -0.164748,0.10068 -0.260002,0.0961 -0.578853,0 -1.157707,0 -1.73656,0 z" style="fill:#ecedf1;fill-opacity:1;stroke-width:0.26458299" />
    </g>
    <g aria-label="FRZ" style="font-style:normal;font-variant:normal;font-weight:500;font-stretch:normal;font-size:4px;line-height:1.25;font-family:Quicksand;-inkscape-font-specification:'Quicksand, Medium';font-variant-ligatures:normal;font-variant-caps:normal;font-variant-numeric:normal;font-feature-settings:normal;text-align:start;letter-spacing:0px;word-spacing:0px;writing-mode:lr-tb;text-anchor:start;display:inline;fill:#ecedf1;fill-opacity:1;stroke-width:0.26458332" id="g1169" transform="translate(43.452114,-28.062122)">
      <path style="fill:#ecedf1;fill-opacity:1;stroke-width:0.26458332" d="m -28.389199,74.618462 c -0.0938,0.0068 -0.176066,-0.08519 -0.163999,-0.177469 2.52e-4,-0.826486 -5.12e-4,-1.65298 3.86e-4,-2.479462 0.0047,-0.09199 0.101576,-0.157512 0.189461,-0.143059 0.466435,8.11e-4 0.932929,-0.0017 1.399327,0.0013 0.101844,0.0081 0.174557,0.131008 0.122897,0.222117 -0.03622,0.06989 -0.120244,0.09324 -0.193428,0.08459 -0.404881,0 -0.809763,0 -1.214644,0 0.03392,-0.05755 0.02222,0.02046 0.024,0.04734 0,0.300208 0,0.600415 0,0.900623 -0.05264,-0.07017 0.05576,-0.03653 0.09465,-0.04391 0.329125,7.56e-4 0.658371,-0.0021 0.98742,0.0016 0.106892,0.01194 0.179857,0.149289 0.11295,0.239661 -0.0412,0.06407 -0.121794,0.07673 -0.191916,0.07067 -0.343695,0 -0.687389,0 -1.031084,0 0.04858,-0.07692 0.02082,0.05971 0.02791,0.09374 -6.41e-4,0.347499 0.0019,0.695102 -0.0014,1.042534 -0.0098,0.07798 -0.08371,0.142268 -0.16251,0.139758 z" id="path1163" inkscape:connector-curvature="0" />
      <path style="fill:#ecedf1;fill-opacity:1;stroke-width:0.26458332" d="m -26.111387,74.618462 c -0.0987,0.0062 -0.198856,-0.08251 -0.183999,-0.184998 2.52e-4,-0.823977 -5.12e-4,-1.647961 3.86e-4,-2.471933 0.0047,-0.09098 0.100038,-0.15696 0.187312,-0.143056 0.381209,0.0013 0.762496,-0.0027 1.143654,0.0021 0.299608,0.01753 0.581343,0.221799 0.680526,0.506894 0.111831,0.299423 0.02927,0.666154 -0.217848,0.874058 -0.06807,0.05841 -0.146489,0.104456 -0.230028,0.136936 -0.02933,-0.02133 -0.05867,-0.04267 -0.088,-0.064 0.270256,0.05865 0.48615,0.312164 0.490767,0.59045 0.01059,0.138988 0.0066,0.284223 0.06274,0.414565 0.04457,0.06359 0.137502,0.097 0.140868,0.185669 0.0068,0.08486 -0.07406,0.15881 -0.157634,0.150775 -0.105928,-3.38e-4 -0.190326,-0.08222 -0.248648,-0.162693 -0.112594,-0.17406 -0.116116,-0.389005 -0.117496,-0.58928 -0.0071,-0.16125 -0.118806,-0.31605 -0.278444,-0.355813 -0.150008,-0.04143 -0.306929,-0.02101 -0.460499,-0.02568 -0.207884,0 -0.415769,0 -0.623653,0 0.016,-0.024 0.032,-0.048 0.048,-0.072 -0.0013,0.358361 0.0026,0.716891 -0.002,1.075147 -0.0089,0.071 -0.07096,0.137951 -0.146034,0.132858 z m 0.1,-1.424 c 0.329595,-4.57e-4 0.659262,9.15e-4 0.988813,-6.86e-4 0.203901,-0.01881 0.3638,-0.192547 0.416194,-0.382912 0.0546,-0.181095 0.03217,-0.3969 -0.102305,-0.538469 -0.09695,-0.109753 -0.248342,-0.157228 -0.391835,-0.145933 -0.298288,0 -0.596575,0 -0.894863,0 0.01542,-0.035 0.03849,-0.107902 0.032,-0.03442 0,0.391473 0,0.782945 0,1.174418 -0.016,-0.024 -0.032,-0.04801 -0.048,-0.072 z" id="path1165" inkscape:connector-curvature="0" />
      <path style="fill:#ecedf1;fill-opacity:1;stroke-width:0.26458332" d="m -21.708262,71.818462 c 0.100575,-0.0076 0.205777,0.09305 0.169655,0.196089 -0.02885,0.07703 -0.09103,0.134494 -0.137117,0.201361 -0.537513,0.707516 -1.075025,1.415033 -1.612538,2.12255 -0.04816,-0.05684 0.09883,-0.01555 0.132718,-0.02792 0.485536,5.79e-4 0.971131,-0.0017 1.456629,0.0012 0.100567,0.0082 0.173457,0.1285 0.123703,0.219499 -0.045,0.09389 -0.158813,0.09245 -0.24748,0.08719 -0.593592,-4.15e-4 -1.187216,9.16e-4 -1.780788,-6.83e-4 -0.110834,-0.0078 -0.194104,-0.153433 -0.120902,-0.245791 0.220901,-0.29599 0.446414,-0.588555 0.669451,-0.88296 0.351555,-0.462184 0.70311,-0.924369 1.054665,-1.386553 0.06195,0.03555 -0.05754,0.0146 -0.08286,0.01994 -0.468811,-6.49e-4 -0.937681,0.0017 -1.406454,-0.0012 -0.09978,-0.008 -0.174273,-0.128215 -0.1231,-0.218479 0.03694,-0.07153 0.123375,-0.09193 0.197568,-0.08422 0.568945,0 1.137943,0 1.706854,0 z" id="path1167" inkscape:connector-curvature="0" />
    </g>
    <g aria-label="SCAN" style="font-style:normal;font-variant:normal;font-weight:500;font-stretch:normal;font-size:4px;line-height:1.25;font-family:Quicksand;-inkscape-font-specification:'Quicksand, Medium';font-variant-ligatures:normal;font-variant-caps:normal;font-variant-numeric:normal;font-feature-settings:normal;text-align:start;letter-spacing:0px;word-spacing:0px;writing-mode:lr-tb;text-anchor:start;display:inline;fill:#ecedf1;fill-opacity:1;stroke-width:0.26458332" id="g1177" transform="translate(10.848762,-12.194146)">
      <path style="fill:#ecedf1;fill-opacity:1;stroke-width:0.26458332" d="m 15.597985,58.832931 c -0.280723,0.0042 -0.566808,-0.06886 -0.79375,-0.238625 -0.08229,-0.0704 -0.202577,-0.128903 -0.22125,-0.245625 -0.02054,-0.116944 0.11751,-0.228759 0.224312,-0.166563 0.0961,0.08147 0.189857,0.169275 0.304032,0.226282 0.224573,0.118518 0.49703,0.144134 0.74089,0.07556 0.17273,-0.05018 0.351217,-0.181148 0.364454,-0.374531 0.01644,-0.163524 -0.07837,-0.319592 -0.216469,-0.402109 -0.186396,-0.1165 -0.403417,-0.164274 -0.61341,-0.219004 -0.243253,-0.07059 -0.500235,-0.180921 -0.631121,-0.411153 -0.09602,-0.173925 -0.107467,-0.388571 -0.05569,-0.578234 0.06962,-0.241519 0.284142,-0.414506 0.517813,-0.487406 0.345005,-0.106792 0.738679,-0.06994 1.050187,0.116406 0.08604,0.05768 0.174898,0.124258 0.22275,0.218437 0.05834,0.123833 -0.111485,0.274624 -0.223625,0.190063 -0.232724,-0.24233 -0.606206,-0.333466 -0.927078,-0.238531 -0.165826,0.04505 -0.332721,0.170044 -0.347375,0.353437 -0.01961,0.14096 0.03998,0.289394 0.159766,0.369094 0.16882,0.121613 0.376339,0.168208 0.573781,0.222266 0.2187,0.06529 0.450195,0.130738 0.620281,0.291484 0.180809,0.181514 0.228723,0.462027 0.175035,0.705578 -0.0729,0.290273 -0.344367,0.489263 -0.625027,0.555988 -0.09754,0.02437 -0.198071,0.03569 -0.298508,0.03718 z" id="path1171" inkscape:connector-curvature="0" />
      <path style="fill:#ecedf1;fill-opacity:1;stroke-width:0.26458332" d="m 19.09486,56.176931 c 0.130485,0.05929 0.08524,0.28147 -0.052,0.296 -0.113687,0.0057 -0.197263,-0.08952 -0.302953,-0.116984 -0.394861,-0.159253 -0.885819,-0.07696 -1.185047,0.232984 -0.239203,0.242786 -0.330902,0.599115 -0.29875,0.9325 0.02516,0.349778 0.214256,0.699328 0.531047,0.865359 0.35243,0.189114 0.805542,0.17096 1.143703,-0.04186 0.08435,-0.04999 0.205952,-0.01157 0.235563,0.08513 0.04963,0.111239 -0.05308,0.195972 -0.1465,0.23075 -0.432167,0.227186 -0.977606,0.232435 -1.405973,-0.007 -0.393395,-0.21404 -0.662689,-0.633115 -0.698231,-1.079164 -0.04016,-0.367429 0.04269,-0.753871 0.266954,-1.052126 0.27218,-0.371568 0.737725,-0.583095 1.196,-0.560687 0.25134,0.009 0.502831,0.08084 0.716187,0.215125 z" id="path1173" inkscape:connector-curvature="0" />
      <path style="fill:#ecedf1;fill-opacity:1;stroke-width:0.26458332" d="m 21.958933,56.009467 c 0.09284,-0.0066 0.161831,0.08608 0.148,0.173712 -5e-4,0.825611 10e-4,1.651264 -7.5e-4,2.476851 -0.0017,0.115389 -0.13549,0.180388 -0.23525,0.137437 -0.07016,-0.03422 -0.102615,-0.110412 -0.152149,-0.167151 l -1.560309,-2.063767 c 0.02667,-0.016 -0.0022,0.03524 0.02446,0.01923 -4.58e-4,0.743891 9.16e-4,1.347505 -6.87e-4,2.09137 -0.0037,0.122932 -0.173281,0.176256 -0.255313,0.09231 -0.06081,-0.06826 -0.034,-0.16394 -0.04,-0.246842 4.58e-4,-0.790236 -9.16e-4,-1.580507 6.87e-4,-2.370721 0.0011,-0.109965 0.133868,-0.175993 0.227313,-0.126437 0.06758,0.02369 0.09559,0.0961 0.140647,0.146638 l 1.557658,2.081513 c -0.0152,0.01189 0.0021,-0.0066 -0.0023,-0.02521 4.16e-4,-0.736442 -8.33e-4,-1.350141 6.25e-4,-2.086563 0.003,-0.07528 0.07329,-0.135044 0.147375,-0.132375 z" id="path1175" inkscape:connector-curvature="0" sodipodi:nodetypes="cccccccccccccccccc" />
    </g>
    <path style="font-style:normal;font-variant:normal;font-weight:500;font-stretch:normal;font-size:4px;line-height:1.25;font-family:Quicksand;-inkscape-font-specification:'Quicksand, Medium';font-variant-ligatures:normal;font-variant-caps:normal;font-variant-numeric:normal;font-feature-settings:normal;text-align:start;letter-spacing:0px;word-spacing:0px;writing-mode:lr-tb;text-anchor:start;fill:#ecedf1;fill-opacity:1;stroke-width:0.26458332" d="m 36.665739,46.549052 c -0.0988,0.0062 -0.19896,-0.08267 -0.184,-0.185225 7.4e-4,-0.826706 -10e-4,-1.653505 0.001,-2.480153 0.0104,-0.09158 0.10875,-0.149629 0.19576,-0.134596 0.37815,0.0012 0.75638,-0.0027 1.13448,0.0021 0.30455,0.01762 0.59,0.228713 0.68532,0.520371 0.1047,0.296848 0.0207,0.655797 -0.22265,0.860581 -0.0681,0.05841 -0.1041,0.08546 -0.18764,0.117935 -0.007,-4.69e-4 -0.0132,0.0039 10e-4,0.0063 0.25406,0.07178 0.35465,0.273196 0.35926,0.539152 0.011,0.139337 0.006,0.285788 0.0639,0.415921 0.0465,0.06355 0.14062,0.100016 0.13989,0.19089 0.004,0.08707 -0.085,0.15627 -0.16875,0.143801 -0.10553,-0.0065 -0.18722,-0.08982 -0.244,-0.171895 -0.10631,-0.173024 -0.10987,-0.382947 -0.11117,-0.579696 -0.007,-0.161263 -0.11883,-0.316067 -0.27848,-0.355822 -0.15178,-0.04164 -0.31048,-0.02095 -0.46584,-0.02566 h -0.5642 l -0.006,0.004 c -0.001,0.358356 0.003,0.640875 -0.002,0.999126 -0.009,0.07105 -0.0707,0.137973 -0.14603,0.132864 z m 0.15116,-1.424 c 0.32964,-4.65e-4 0.60821,9.3e-4 0.93781,-6.97e-4 0.20728,-0.0192 0.36834,-0.198075 0.41874,-0.392056 0.0523,-0.182469 0.0258,-0.399105 -0.11299,-0.537693 -0.0979,-0.106137 -0.24767,-0.148388 -0.3887,-0.137554 0,0 -0.76806,0 -0.84868,0 -0.006,0.0074 -0.009,0.0098 -0.009,0.0098 v 1.052711 l 0.002,0.0025 z" id="path1179" inkscape:connector-curvature="0" sodipodi:nodetypes="cccccccccccccccccccccccccccccccc" />
    <path style="font-style:normal;font-variant:normal;font-weight:500;font-stretch:normal;font-size:4px;line-height:1.25;font-family:Quicksand;-inkscape-font-specification:'Quicksand, Medium';font-variant-ligatures:normal;font-variant-caps:normal;font-variant-numeric:normal;font-feature-settings:normal;text-align:start;letter-spacing:0px;word-spacing:0px;writing-mode:lr-tb;text-anchor:start;fill:#ecedf1;fill-opacity:1;stroke-width:0.26458332" d="m 39.344859,43.749052 c 0.48308,8.45e-4 0.96622,-0.0017 1.44926,0.0013 0.1,0.0084 0.17022,0.125409 0.12716,0.217161 -0.0328,0.07637 -0.12334,0.09728 -0.19868,0.08954 l -1.20227,-0.0029 c -0.006,-5.21e-4 -0.006,0.0023 -0.005,0.008 l 0.003,0.881887 c -0.003,0.01046 0.004,0.01291 0.0225,0.01305 0.35777,6.64e-4 0.71559,-0.0017 1.07332,0.0012 0.1,0.0084 0.17022,0.125409 0.12716,0.217161 -0.0328,0.07637 -0.12334,0.09728 -0.19868,0.08954 l -1.01573,0.0029 c 0,0 7.7e-4,-0.0051 -0.009,7.3e-4 l -10e-4,0.96859 c 0.11928,0.0021 0.86297,0.0025 1.27809,0.0015 0.10718,0.01223 0.17929,0.150812 0.1125,0.241065 -0.0493,0.07475 -0.14535,0.07316 -0.2245,0.06923 -0.45432,-7.85e-4 -0.90872,0.0019 -1.36299,-0.0014 -0.088,-0.0097 -0.14784,-0.102876 -0.1351,-0.187613 7.2e-4,-0.82497 -0.001,-1.650028 10e-4,-2.474943 0.008,-0.07688 0.082,-0.138767 0.15891,-0.136008 z" id="path1181" inkscape:connector-curvature="0" sodipodi:nodetypes="cccccccccccccccccccccc" />
    <path style="font-style:normal;font-variant:normal;font-weight:500;font-stretch:normal;font-size:4px;line-height:1.25;font-family:Quicksand;-inkscape-font-specification:'Quicksand, Medium';font-variant-ligatures:normal;font-variant-caps:normal;font-variant-numeric:normal;font-feature-settings:normal;text-align:start;letter-spacing:0px;word-spacing:0px;writing-mode:lr-tb;text-anchor:start;fill:#ecedf1;fill-opacity:1;stroke-width:0.26458332" d="m 43.498109,43.745052 c 0.10151,-0.0078 0.19871,0.104818 0.15382,0.2028 -0.052,0.14123 -0.11639,0.277608 -0.17276,0.417152 -0.29484,0.698628 -0.58881,1.397647 -0.88418,2.096037 -0.0464,0.0946 -0.19277,0.120163 -0.26069,0.03445 -0.0505,-0.06692 -0.0695,-0.151155 -0.10596,-0.225823 -0.32527,-0.77356 -0.65122,-1.546829 -0.97598,-2.320607 -0.028,-0.08232 0.024,-0.174404 0.10547,-0.199858 0.0866,-0.03108 0.18773,0.02797 0.209,0.116317 0.30413,0.722597 0.60097,1.448231 0.90451,2.171075 0.2925,-0.730679 0.5859,-1.461012 0.87875,-2.191558 0.0243,-0.05785 0.0836,-0.103506 0.14802,-0.09998 z" id="path1183" inkscape:connector-curvature="0" />
    <g transform="translate(-86.02935,-17.14971)" id="g1195" style="font-style:normal;font-variant:normal;font-weight:500;font-stretch:normal;font-size:4px;line-height:1.25;font-family:Quicksand;-inkscape-font-specification:'Quicksand, Medium';font-variant-ligatures:normal;font-variant-caps:normal;font-variant-numeric:normal;font-feature-settings:normal;text-align:start;letter-spacing:0px;word-spacing:0px;writing-mode:lr-tb;text-anchor:start;display:inline;fill:#ecedf1;fill-opacity:1;stroke:none;stroke-width:0.26458332;stroke-opacity:1" aria-label="DUCK">
      <path inkscape:connector-curvature="0" id="path1187" d="m 91.091033,94.074969 c 0.390253,-0.01081 0.782271,0.196971 0.969078,0.544359 0.254522,0.465968 0.275193,1.046564 0.08704,1.539578 -0.133438,0.349965 -0.441274,0.647086 -0.821902,0.697704 -0.250018,0.03249 -0.503049,0.01304 -0.754551,0.01836 -0.170756,-0.0019 -0.341949,0.0038 -0.512418,-0.003 -0.116498,-0.01832 -0.136191,-0.145171 -0.12725,-0.242302 4.58e-4,-0.80377 -9.17e-4,-1.607577 6.87e-4,-2.411323 0.0057,-0.120219 0.133018,-0.155436 0.232485,-0.143375 0.308942,0 0.617885,0 0.926828,0 z m -0.04,2.488 c 0.268644,0.0098 0.542244,-0.113643 0.686328,-0.346141 0.21119,-0.349407 0.23277,-0.790203 0.131438,-1.178672 -0.07231,-0.305076 -0.308048,-0.585297 -0.627782,-0.638343 -0.224366,-0.03035 -0.451882,-0.01164 -0.677795,-0.01684 -0.11073,0 -0.221459,0 -0.332189,0 0.05105,-0.07292 0.0265,0.03665 0.032,0.07369 0,0.715436 0,1.430872 0,2.146308 -0.05966,-0.06253 0.04176,-0.03386 0.08169,-0.04 0.235436,0 0.470872,0 0.706308,0 z" style="fill:#ecedf1;fill-opacity:1;stroke:none;stroke-width:0.26458332;stroke-opacity:1" />
      <path inkscape:connector-curvature="0" id="path1189" d="m 94.790033,94.070969 c 0.127463,-0.0042 0.169697,0.132804 0.156,0.237172 -0.0014,0.530262 0.0029,1.060638 -0.0023,1.590828 -0.01861,0.48655 -0.410639,0.937288 -0.899813,0.992926 -0.356848,0.05284 -0.74539,-0.06471 -0.978875,-0.347988 -0.195923,-0.219916 -0.274913,-0.520444 -0.259062,-0.81037 4.59e-4,-0.50508 -9.17e-4,-1.010199 6.87e-4,-1.515255 0.0029,-0.153849 0.226115,-0.199306 0.302063,-0.07406 0.05156,0.09146 0.02095,0.201415 0.02925,0.302135 10e-4,0.476946 -0.002,0.953966 0.0016,1.430865 0.0093,0.364292 0.321207,0.693477 0.688875,0.70425 0.358286,0.03392 0.708419,-0.226611 0.788891,-0.575188 0.03651,-0.199646 0.01473,-0.404063 0.02067,-0.606082 0.0017,-0.399287 -0.0033,-0.798894 0.0025,-1.19798 0.0094,-0.07399 0.07289,-0.135838 0.1495,-0.13125 z" style="fill:#ecedf1;fill-opacity:1;stroke:none;stroke-width:0.26458332;stroke-opacity:1" />
      <path inkscape:connector-curvature="0" id="path1191" d="m 97.665783,94.258969 c 0.141204,0.06367 0.07493,0.313668 -0.08,0.296 -0.128796,-0.02938 -0.236055,-0.12139 -0.368,-0.148 -0.457375,-0.146231 -1.013484,0.04044 -1.247,0.470875 -0.20024,0.361789 -0.199803,0.828759 -0.0066,1.193266 0.185804,0.367633 0.614138,0.560458 1.014891,0.525109 0.196383,-0.0098 0.382193,-0.08447 0.55075,-0.181 0.153406,-0.07084 0.298488,0.159898 0.16875,0.2655 -0.497453,0.320675 -1.192287,0.315357 -1.668391,-0.04484 -0.344702,-0.252794 -0.547864,-0.673754 -0.551375,-1.099219 -0.02734,-0.48223 0.196599,-0.978833 0.60395,-1.24723 0.460571,-0.320122 1.109597,-0.327052 1.583066,-0.03046 z" style="fill:#ecedf1;fill-opacity:1;stroke:none;stroke-width:0.26458332;stroke-opacity:1" />
      <path inkscape:connector-curvature="0" id="path1193" d="m 100.20391,96.882969 c -0.11616,-0.003 -0.16061,-0.127602 -0.230415,-0.200716 -0.317862,-0.405095 -0.635725,-0.810189 -0.953587,-1.215284 0.08133,-0.08267 0.162667,-0.165333 0.244,-0.248 0.361334,0.462667 0.722668,0.925333 1.084002,1.388 0.0935,0.11737 -0.002,0.278501 -0.144,0.276 z m -0.012,-2.812 c 0.15481,0.0047 0.19598,0.225011 0.0646,0.297518 -0.577522,0.546161 -1.155042,1.092321 -1.732562,1.638482 -0.0093,-0.124 -0.01867,-0.248 -0.028,-0.372 0.527783,-0.505943 1.054977,-1.012509 1.583132,-1.518062 0.0311,-0.02722 0.0709,-0.04636 0.11287,-0.04594 z m -1.800002,2.804 c -0.124323,0.0087 -0.180195,-0.123274 -0.164,-0.229042 5e-4,-0.808168 -0.001,-1.616379 7.5e-4,-2.42452 0.0066,-0.163985 0.266557,-0.203232 0.32025,-0.04744 0.02261,0.130636 0.0058,0.265747 0.011,0.398338 -5e-4,0.718444 0.001,1.436933 -7.5e-4,2.15535 -0.0063,0.08312 -0.08384,0.152001 -0.16725,0.147312 z" style="fill:#ecedf1;fill-opacity:1;stroke:none;stroke-width:0.26458332;stroke-opacity:1" />
    </g>
    <g aria-label="Prince of Perception" style="font-style:normal;font-variant:normal;font-weight:500;font-stretch:normal;font-size:4px;line-height:1.25;font-family:Quicksand;-inkscape-font-specification:'Quicksand, Medium';font-variant-ligatures:normal;font-variant-caps:normal;font-variant-numeric:normal;font-feature-settings:normal;text-align:start;letter-spacing:0px;word-spacing:0px;writing-mode:lr-tb;text-anchor:start;display:inline;fill:#ecedf1;fill-opacity:1;stroke-width:0.26458332" id="text985" transform="translate(0.59531253)">
      <path style="font-style:normal;font-variant:normal;font-weight:600;font-stretch:normal;font-size:4px;font-family:Quicksand;-inkscape-font-specification:'Quicksand, Semi-Bold';font-variant-ligatures:normal;font-variant-caps:normal;font-variant-numeric:normal;font-feature-settings:normal;text-align:start;writing-mode:lr-tb;text-anchor:start;fill:#ecedf1;fill-opacity:1" d="m 14.747312,5.8437445 c 0.541005,-0.00577 0.907272,0.6019826 0.761,1.097 -0.08533,0.3915925 -0.470072,0.6938419 -0.874489,0.643 -0.219504,0 -0.439007,0 -0.658511,0 0.06249,-0.1462911 0.01921,0.1554639 0.032,0.219723 -0.0078,0.2387247 0.01661,0.4810669 -0.014,0.717277 -0.128129,0.2724756 -0.457587,0.043125 -0.374,-0.1944892 0.0025,-0.7734481 -0.005,-1.5473411 0.0037,-2.3205108 0.06066,-0.228855 0.328511,-0.1470241 0.502888,-0.162 0.207121,0 0.414241,0 0.621362,0 z m 0,1.356 c 0.458698,-0.046349 0.517888,-0.7944297 0.099,-0.955 -0.289647,-0.036522 -0.586385,-0.00793 -0.879,-0.017 0.07787,-0.1385676 0.02418,0.157368 0.04,0.223723 0,0.266759 0,0.533518 0,0.800277 -0.08823,-0.1068267 0.17838,-0.027734 0.247723,-0.052 0.164092,0 0.328185,0 0.492277,0 z" id="path995" inkscape:connector-curvature="0" />
      <path style="font-style:normal;font-variant:normal;font-weight:600;font-stretch:normal;font-size:4px;font-family:Quicksand;-inkscape-font-specification:'Quicksand, Semi-Bold';font-variant-ligatures:normal;font-variant-caps:normal;font-variant-numeric:normal;font-feature-settings:normal;text-align:start;writing-mode:lr-tb;text-anchor:start;fill:#ecedf1;fill-opacity:1" d="m 16.181562,8.6437445 c -0.226348,0.0026 -0.204946,-0.2536426 -0.2,-0.4120636 0.0023,-0.5099311 -0.0046,-1.0202476 0.0035,-1.5299364 0.05384,-0.2845603 0.477661,-0.1433865 0.3965,0.1176595 0,0.1241135 0,0.248227 0,0.3723405 -0.105915,-0.2283262 0.07953,-0.4575636 0.26325,-0.582 0.199712,-0.2144647 0.834056,-0.136777 0.59675,0.238 -0.254454,0.06499 -0.629864,-0.096388 -0.769,0.264 -0.149277,0.2951113 -0.0714,0.6358094 -0.091,0.9543609 -0.01881,0.1730606 0.04856,0.3729554 -0.06,0.5216391 -0.03616,0.037428 -0.08834,0.056857 -0.14,0.056 z" id="path997" inkscape:connector-curvature="0" />
      <path style="font-style:normal;font-variant:normal;font-weight:600;font-stretch:normal;font-size:4px;font-family:Quicksand;-inkscape-font-specification:'Quicksand, Semi-Bold';font-variant-ligatures:normal;font-variant-caps:normal;font-variant-numeric:normal;font-feature-settings:normal;text-align:start;writing-mode:lr-tb;text-anchor:start;fill:#ecedf1;fill-opacity:1" d="m 18.029437,8.4397445 c 0.01293,0.3053387 -0.480885,0.2323718 -0.4,-0.056745 0.0023,-0.5657037 -0.0047,-1.1317942 0.0035,-1.6972554 0.05494,-0.2836494 0.479886,-0.1454984 0.3965,0.1176595 0,0.5454468 0,1.0908937 0,1.6363409 z m -0.204,-2.18 c -0.338829,0.047093 -0.269358,-0.5502953 0.05975,-0.42525 0.258752,0.00361 0.219184,0.4966549 -0.05975,0.42525 z" id="path999" inkscape:connector-curvature="0" />
      <path style="font-style:normal;font-variant:normal;font-weight:600;font-stretch:normal;font-size:4px;font-family:Quicksand;-inkscape-font-specification:'Quicksand, Semi-Bold';font-variant-ligatures:normal;font-variant-caps:normal;font-variant-numeric:normal;font-feature-settings:normal;text-align:start;writing-mode:lr-tb;text-anchor:start;fill:#ecedf1;fill-opacity:1" d="m 19.651499,6.4917445 c 0.353256,-0.038295 0.667284,0.241171 0.695,0.58975 0.04835,0.4503216 0.01523,0.9056238 0.025,1.35825 0.0086,0.3037754 -0.480047,0.2330246 -0.4,-0.056745 -0.01026,-0.4028506 0.02328,-0.8091255 -0.0225,-1.2092554 -0.09633,-0.4523603 -0.799456,-0.3858113 -0.94325,0 -0.07234,0.2914735 -0.02436,0.5988433 -0.03825,0.8978501 -0.0187,0.1712668 0.04843,0.369238 -0.06,0.5161499 -0.197226,0.1756824 -0.400151,-0.07699 -0.34,-0.2804041 0.0023,-0.5351509 -0.0046,-1.0706874 0.0035,-1.6055959 0.05384,-0.2845603 0.477661,-0.1433865 0.3965,0.1176595 0.05621,0.1457881 -0.152259,0.2736148 -0.0075,0.056341 0.154401,-0.2241381 0.414556,-0.3859212 0.6915,-0.3840001 z" id="path1001" inkscape:connector-curvature="0" />
      <path style="font-style:normal;font-variant:normal;font-weight:600;font-stretch:normal;font-size:4px;font-family:Quicksand;-inkscape-font-specification:'Quicksand, Semi-Bold';font-variant-ligatures:normal;font-variant-caps:normal;font-variant-numeric:normal;font-feature-settings:normal;text-align:start;writing-mode:lr-tb;text-anchor:start;fill:#ecedf1;fill-opacity:1" d="m 21.842874,6.4917445 c 0.272451,0.00338 0.769739,0.062016 0.729,0.43 -0.224481,0.3087545 -0.55574,-0.2435139 -0.879,-0.038 -0.615975,0.1504886 -0.664996,1.1338804 -0.095,1.378 0.314722,0.1808535 0.615481,-0.080512 0.898,-0.108 0.321299,0.3210861 -0.305168,0.5330279 -0.56925,0.52675 -0.503967,0.067616 -1.009334,-0.2932506 -1.09675,-0.79675 -0.139026,-0.5473652 0.142932,-1.2151846 0.723,-1.356 0.09448,-0.025049 0.19237,-0.036024 0.29,-0.036 z" id="path1003" inkscape:connector-curvature="0" />
      <path style="font-style:normal;font-variant:normal;font-weight:600;font-stretch:normal;font-size:4px;font-family:Quicksand;-inkscape-font-specification:'Quicksand, Semi-Bold';font-variant-ligatures:normal;font-variant-caps:normal;font-variant-numeric:normal;font-feature-settings:normal;text-align:start;writing-mode:lr-tb;text-anchor:start;fill:#ecedf1;fill-opacity:1" d="m 23.949374,8.6837445 c -0.529523,0.031213 -1.047798,-0.3781732 -1.07975,-0.92025 -0.07695,-0.5183802 0.209256,-1.1023245 0.74175,-1.23775 0.610629,-0.1865736 1.253728,0.3697225 1.234,0.99 -0.0343,0.2495551 -0.312792,0.1714046 -0.487723,0.184 -0.422759,0 -0.845518,0 -1.268277,0 -0.032,-0.1133333 -0.064,-0.2266667 -0.096,-0.34 0.501333,0 1.002667,0 1.504,0 -0.154988,0.1907321 -0.03866,-0.3498509 -0.266,-0.367 -0.318464,-0.2678935 -0.887591,-0.1008733 -0.95675,0.32725 -0.111603,0.3813721 0.05492,0.8780805 0.47575,0.97375 0.35227,0.1806187 0.636844,-0.2713029 0.935,-0.15 0.157282,0.3174285 -0.344107,0.4783881 -0.582813,0.52875 -0.05068,0.00759 -0.101942,0.011255 -0.153187,0.01125 z" id="path1005" inkscape:connector-curvature="0" />
      <path style="font-style:normal;font-variant:normal;font-weight:600;font-stretch:normal;font-size:4px;font-family:Quicksand;-inkscape-font-specification:'Quicksand, Semi-Bold';font-variant-ligatures:normal;font-variant-caps:normal;font-variant-numeric:normal;font-feature-settings:normal;text-align:start;writing-mode:lr-tb;text-anchor:start;fill:#ecedf1;fill-opacity:1" d="M 28.387812,7.5917445 C 28.42082,8.1989109 27.86078,8.7503494 27.250625,8.681557 26.658861,8.668194 26.195141,8.0900183 26.262,7.5119945 c 0.0012,-0.6378518 0.660355,-1.1476135 1.278375,-1 0.501925,0.090553 0.864661,0.5765181 0.847437,1.07975 z m -0.4,0 c 0.03703,-0.437718 -0.406771,-0.8474197 -0.84,-0.708 -0.592918,0.1597196 -0.660378,1.0921194 -0.1215,1.3615625 0.38424,0.2143227 0.902812,-0.067812 0.949125,-0.5013125 0.0086,-0.050265 0.01238,-0.1012823 0.01238,-0.15225 z" id="path1007" inkscape:connector-curvature="0" />
      <path style="font-style:normal;font-variant:normal;font-weight:600;font-stretch:normal;font-size:4px;font-family:Quicksand;-inkscape-font-specification:'Quicksand, Semi-Bold';font-variant-ligatures:normal;font-variant-caps:normal;font-variant-numeric:normal;font-feature-settings:normal;text-align:start;writing-mode:lr-tb;text-anchor:start;fill:#ecedf1;fill-opacity:1" d="m 29.797499,5.6877445 c 0.336655,-0.097505 0.484673,0.4837981 0.076,0.376 -0.296157,-0.1247898 -0.433003,0.1972333 -0.388,0.4371487 -0.0025,0.6603121 0.005,1.3210659 -0.0038,1.9811013 -0.05568,0.2839207 -0.481151,0.1466809 -0.39625,-0.1179095 0.0018,-0.7052403 -0.0037,-1.4106351 0.0028,-2.115778 0.01264,-0.3649582 0.37077,-0.5835998 0.709187,-0.5605625 z m 0.08,0.888 c 0.366891,0.072853 0.09625,0.4647016 -0.170234,0.368 -0.311951,-0.00769 -0.62675,0.015998 -0.936766,-0.013 -0.302325,-0.2122118 0.06813,-0.4211261 0.297978,-0.355 0.269674,0 0.539348,0 0.809022,0 z" id="path1009" inkscape:connector-curvature="0" />
      <path style="font-style:normal;font-variant:normal;font-weight:600;font-stretch:normal;font-size:4px;font-family:Quicksand;-inkscape-font-specification:'Quicksand, Semi-Bold';font-variant-ligatures:normal;font-variant-caps:normal;font-variant-numeric:normal;font-feature-settings:normal;text-align:start;writing-mode:lr-tb;text-anchor:start;fill:#ecedf1;fill-opacity:1" d="m 32.684812,5.8437445 c 0.541005,-0.00577 0.907272,0.6019826 0.761,1.097 -0.08533,0.3915925 -0.470072,0.6938419 -0.874489,0.643 -0.219504,0 -0.439007,0 -0.658511,0 0.06249,-0.1462911 0.01921,0.1554639 0.032,0.219723 -0.0078,0.2387247 0.01661,0.4810669 -0.014,0.717277 -0.128129,0.2724756 -0.457587,0.043125 -0.374,-0.1944892 0.0025,-0.7734481 -0.005,-1.5473411 0.0038,-2.3205108 0.06066,-0.228855 0.328511,-0.1470241 0.502888,-0.162 0.207121,0 0.414241,0 0.621362,0 z m 0,1.356 c 0.458698,-0.046349 0.517888,-0.7944297 0.099,-0.955 -0.289647,-0.036522 -0.586385,-0.00793 -0.879,-0.017 0.07787,-0.1385676 0.02418,0.157368 0.04,0.223723 0,0.266759 0,0.533518 0,0.800277 -0.08823,-0.1068267 0.17838,-0.027734 0.247723,-0.052 0.164092,0 0.328185,0 0.492277,0 z" id="path1011" inkscape:connector-curvature="0" />
      <path style="font-style:normal;font-variant:normal;font-weight:600;font-stretch:normal;font-size:4px;font-family:Quicksand;-inkscape-font-specification:'Quicksand, Semi-Bold';font-variant-ligatures:normal;font-variant-caps:normal;font-variant-numeric:normal;font-feature-settings:normal;text-align:start;writing-mode:lr-tb;text-anchor:start;fill:#ecedf1;fill-opacity:1" d="m 34.839999,8.6837445 c -0.529523,0.031213 -1.047798,-0.3781732 -1.07975,-0.92025 -0.07695,-0.5183802 0.209256,-1.1023245 0.74175,-1.23775 0.610629,-0.1865736 1.253728,0.3697225 1.234,0.99 -0.0343,0.2495551 -0.312792,0.1714046 -0.487723,0.184 -0.422759,0 -0.845518,0 -1.268277,0 -0.032,-0.1133333 -0.064,-0.2266667 -0.096,-0.34 0.501333,0 1.002667,0 1.504,0 -0.154988,0.1907321 -0.03866,-0.3498509 -0.266,-0.367 -0.318464,-0.2678935 -0.887591,-0.1008733 -0.95675,0.32725 -0.111603,0.3813721 0.05492,0.8780805 0.47575,0.97375 0.35227,0.1806187 0.636844,-0.2713029 0.935,-0.15 0.157282,0.3174285 -0.344107,0.4783881 -0.582812,0.52875 -0.05069,0.00759 -0.101943,0.011255 -0.153188,0.01125 z" id="path1013" inkscape:connector-curvature="0" />
      <path style="font-style:normal;font-variant:normal;font-weight:600;font-stretch:normal;font-size:4px;font-family:Quicksand;-inkscape-font-specification:'Quicksand, Semi-Bold';font-variant-ligatures:normal;font-variant-caps:normal;font-variant-numeric:normal;font-feature-settings:normal;text-align:start;writing-mode:lr-tb;text-anchor:start;fill:#ecedf1;fill-opacity:1" d="m 36.369062,8.6437445 c -0.226348,0.0026 -0.204946,-0.2536426 -0.2,-0.4120636 0.0023,-0.5099311 -0.0046,-1.0202476 0.0035,-1.5299364 0.05384,-0.2845603 0.477661,-0.1433865 0.3965,0.1176595 0,0.1241135 0,0.248227 0,0.3723405 -0.105915,-0.2283262 0.07953,-0.4575636 0.26325,-0.582 0.199712,-0.2144647 0.834056,-0.136777 0.59675,0.238 -0.254454,0.06499 -0.629864,-0.096388 -0.769,0.264 -0.149277,0.2951113 -0.0714,0.6358094 -0.091,0.9543609 -0.01881,0.1730606 0.04856,0.3729554 -0.06,0.5216391 -0.03616,0.037428 -0.08834,0.056857 -0.14,0.056 z" id="path1015" inkscape:connector-curvature="0" />
      <path style="font-style:normal;font-variant:normal;font-weight:600;font-stretch:normal;font-size:4px;font-family:Quicksand;-inkscape-font-specification:'Quicksand, Semi-Bold';font-variant-ligatures:normal;font-variant-caps:normal;font-variant-numeric:normal;font-feature-settings:normal;text-align:start;writing-mode:lr-tb;text-anchor:start;fill:#ecedf1;fill-opacity:1" d="m 38.670999,6.4917445 c 0.272451,0.00338 0.769739,0.062016 0.729,0.43 -0.224481,0.3087545 -0.55574,-0.2435139 -0.879,-0.038 -0.615975,0.1504886 -0.664996,1.1338804 -0.095,1.378 0.314722,0.1808535 0.615481,-0.080512 0.898,-0.108 0.321299,0.3210861 -0.305168,0.5330279 -0.56925,0.52675 -0.503967,0.067616 -1.009334,-0.2932506 -1.09675,-0.79675 -0.139026,-0.5473652 0.142932,-1.2151846 0.723,-1.356 0.09448,-0.025049 0.19237,-0.036024 0.29,-0.036 z" id="path1017" inkscape:connector-curvature="0" />
      <path style="font-style:normal;font-variant:normal;font-weight:600;font-stretch:normal;font-size:4px;font-family:Quicksand;-inkscape-font-specification:'Quicksand, Semi-Bold';font-variant-ligatures:normal;font-variant-caps:normal;font-variant-numeric:normal;font-feature-settings:normal;text-align:start;writing-mode:lr-tb;text-anchor:start;fill:#ecedf1;fill-opacity:1" d="m 40.777499,8.6837445 c -0.529523,0.031213 -1.047798,-0.3781732 -1.07975,-0.92025 -0.07695,-0.5183802 0.209256,-1.1023245 0.74175,-1.23775 0.610629,-0.1865736 1.253728,0.3697225 1.234,0.99 -0.0343,0.2495551 -0.312792,0.1714046 -0.487723,0.184 -0.422759,0 -0.845518,0 -1.268277,0 -0.032,-0.1133333 -0.064,-0.2266667 -0.096,-0.34 0.501333,0 1.002667,0 1.504,0 -0.154988,0.1907321 -0.03866,-0.3498509 -0.266,-0.367 -0.318464,-0.2678935 -0.887591,-0.1008733 -0.95675,0.32725 -0.111603,0.3813721 0.05492,0.8780805 0.47575,0.97375 0.35227,0.1806187 0.636844,-0.2713029 0.935,-0.15 0.157282,0.3174285 -0.344107,0.4783881 -0.582812,0.52875 -0.05069,0.00759 -0.101943,0.011255 -0.153188,0.01125 z" id="path1019" inkscape:connector-curvature="0" />
      <path style="font-style:normal;font-variant:normal;font-weight:600;font-stretch:normal;font-size:4px;font-family:Quicksand;-inkscape-font-specification:'Quicksand, Semi-Bold';font-variant-ligatures:normal;font-variant-caps:normal;font-variant-numeric:normal;font-feature-settings:normal;text-align:start;writing-mode:lr-tb;text-anchor:start;fill:#ecedf1;fill-opacity:1" d="m 43.166562,6.5037445 c 0.586074,-0.02166 1.019213,0.5699827 0.9715,1.1237187 0.01903,0.5536609 -0.453363,1.1169934 -1.0345,1.0492813 -0.24758,0.0047 -0.795807,-0.3014877 -0.636831,-0.5338223 0.08907,-0.026125 0.01617,0.2054982 0.03983,0.2834602 -0.0093,0.2972613 0.01903,0.5990718 -0.015,0.8933621 -0.113156,0.2553968 -0.4649,0.06616 -0.385,-0.1745743 0.0023,-0.8165916 -0.0047,-1.6335857 0.0035,-2.4499257 0.0527,-0.2864893 0.476636,-0.1451983 0.3965,0.1161595 0.05458,0.1708787 -0.105772,0.2737955 -0.01675,0.048091 0.14811,-0.2207994 0.411659,-0.3564522 0.67675,-0.35575 z m -0.044,0.368 c -0.42033,-0.019211 -0.696824,0.4316979 -0.631,0.81575 0.01463,0.3625928 0.34839,0.6919186 0.722,0.6185 0.660264,-0.094603 0.72998,-1.1659358 0.12525,-1.39675 -0.06884,-0.026234 -0.142762,-0.037579 -0.21625,-0.0375 z" id="path1021" inkscape:connector-curvature="0" />
      <path style="font-style:normal;font-variant:normal;font-weight:600;font-stretch:normal;font-size:4px;font-family:Quicksand;-inkscape-font-specification:'Quicksand, Semi-Bold';font-variant-ligatures:normal;font-variant-caps:normal;font-variant-numeric:normal;font-feature-settings:normal;text-align:start;writing-mode:lr-tb;text-anchor:start;fill:#ecedf1;fill-opacity:1" d="m 44.539499,6.5637445 c 0.337313,0.00839 0.677872,-0.01738 1.013,0.014 0.304267,0.2169164 -0.07129,0.417936 -0.299978,0.354 -0.26208,-0.00732 -0.526787,0.01549 -0.787022,-0.013 -0.187156,-0.065011 -0.127636,-0.3716948 0.074,-0.355 z m 0.42,-0.52 c 0.224583,7.694e-4 0.205773,0.2532787 0.2,0.4120636 0.0039,0.5708895 -0.0079,1.1425064 0.006,1.7129364 0.06,0.260313 0.58619,-0.056596 0.432,0.346 -0.242743,0.2551921 -0.815786,0.1316876 -0.830125,-0.2628125 -0.01777,-0.6674519 -0.0031,-1.336214 -0.0079,-2.0041875 -0.0059,-0.1095923 0.0905,-0.2074304 0.2,-0.204 z" id="path1023" inkscape:connector-curvature="0" />
      <path style="font-style:normal;font-variant:normal;font-weight:600;font-stretch:normal;font-size:4px;font-family:Quicksand;-inkscape-font-specification:'Quicksand, Semi-Bold';font-variant-ligatures:normal;font-variant-caps:normal;font-variant-numeric:normal;font-feature-settings:normal;text-align:start;writing-mode:lr-tb;text-anchor:start;fill:#ecedf1;fill-opacity:1" d="m 46.490374,8.4397445 c 0.01293,0.3053387 -0.480885,0.2323718 -0.4,-0.056745 0.0023,-0.5657037 -0.0047,-1.1317942 0.0035,-1.6972554 0.05494,-0.2836494 0.479886,-0.1454984 0.3965,0.1176595 0,0.5454468 0,1.0908937 0,1.6363409 z m -0.204,-2.18 c -0.338829,0.047093 -0.269358,-0.5502953 0.05975,-0.42525 0.258752,0.00361 0.219184,0.4966549 -0.05975,0.42525 z" id="path1025" inkscape:connector-curvature="0" />
      <path style="font-style:normal;font-variant:normal;font-weight:600;font-stretch:normal;font-size:4px;font-family:Quicksand;-inkscape-font-specification:'Quicksand, Semi-Bold';font-variant-ligatures:normal;font-variant-caps:normal;font-variant-numeric:normal;font-feature-settings:normal;text-align:start;writing-mode:lr-tb;text-anchor:start;fill:#ecedf1;fill-opacity:1" d="m 49.028437,7.5917445 c 0.03301,0.6071664 -0.527032,1.1586049 -1.137188,1.0898125 -0.591763,-0.013363 -1.055483,-0.5915387 -0.988625,-1.1695625 0.0012,-0.6378518 0.660356,-1.1476135 1.278376,-1 0.501925,0.090553 0.864661,0.5765181 0.847437,1.07975 z m -0.4,0 c 0.03703,-0.437718 -0.406771,-0.8474197 -0.84,-0.708 -0.592918,0.1597196 -0.660378,1.0921194 -0.1215,1.3615625 0.38424,0.2143227 0.902812,-0.067812 0.949125,-0.5013125 0.0086,-0.050265 0.01238,-0.1012823 0.01237,-0.15225 z" id="path1027" inkscape:connector-curvature="0" />
      <path style="font-style:normal;font-variant:normal;font-weight:600;font-stretch:normal;font-size:4px;font-family:Quicksand;-inkscape-font-specification:'Quicksand, Semi-Bold';font-variant-ligatures:normal;font-variant-caps:normal;font-variant-numeric:normal;font-feature-settings:normal;text-align:start;writing-mode:lr-tb;text-anchor:start" d="m 50.542124,6.4917445 c 0.353256,-0.038295 0.667284,0.241171 0.695,0.58975 0.04835,0.4503216 0.01523,0.9056238 0.025,1.35825 0.0086,0.3037754 -0.480047,0.2330246 -0.4,-0.056745 -0.01026,-0.4028506 0.02328,-0.8091255 -0.0225,-1.2092554 -0.09633,-0.4523603 -0.799456,-0.3858113 -0.94325,0 -0.07234,0.2914735 -0.02436,0.5988433 -0.03825,0.8978501 -0.0187,0.1712668 0.04843,0.369238 -0.06,0.5161499 -0.197226,0.1756824 -0.400151,-0.07699 -0.34,-0.2804041 0.0023,-0.5351509 -0.0046,-1.0706874 0.0035,-1.6055959 0.05384,-0.2845603 0.477661,-0.1433865 0.3965,0.1176595 0.05621,0.1457881 -0.152259,0.2736148 -0.0075,0.056341 0.154401,-0.2241381 0.414556,-0.3859212 0.6915,-0.3840001 z" id="path1029" inkscape:connector-curvature="0" />
    </g>
    <g aria-label="FILTER" style="font-style:normal;font-variant:normal;font-weight:bold;font-stretch:normal;font-size:4px;line-height:1.25;font-family:Quicksand;-inkscape-font-specification:'Quicksand, Bold';font-variant-ligatures:normal;font-variant-caps:normal;font-variant-numeric:normal;font-feature-settings:normal;text-align:start;letter-spacing:0px;word-spacing:0px;writing-mode:lr-tb;text-anchor:start;fill:#ffffff;fill-opacity:0.06976743;stroke-width:0.26458332" id="text1000">
      <path style="fill:#ffffff;fill-opacity:0.06976743;stroke-width:0.26458332" d="m 28.862417,80.312759 c -0.143648,0.01266 -0.27328,-0.12615 -0.251984,-0.268525 0.0013,-0.775291 -0.0027,-1.550682 0.0021,-2.325912 0.01659,-0.162326 0.197236,-0.230546 0.340195,-0.205482 0.418754,0.0024 0.838007,-0.0054 1.256448,0.0041 0.159975,0.02583 0.253554,0.243626 0.138404,0.367938 -0.08922,0.111029 -0.23801,0.08549 -0.363544,0.08788 -0.30318,0 -0.606359,0 -0.909539,0 0.05477,-0.09058 0.03173,0.04498 0.036,0.08456 0,0.223806 0,0.447613 0,0.67142 -0.06518,-0.09822 0.124798,-0.03395 0.17674,-0.05185 0.247254,0.0018 0.495002,-0.005 0.741943,0.0041 0.159974,0.02583 0.253553,0.243626 0.138403,0.367937 -0.08922,0.11103 -0.23801,0.08549 -0.363544,0.08788 -0.24318,0 -0.486359,0 -0.729539,0 0.07177,-0.06903 0.02072,0.139153 0.03583,0.187038 -0.0018,0.264307 0.005,0.529139 -0.004,0.793111 -0.02094,0.111894 -0.130174,0.199485 -0.243841,0.195794 z" id="path1002" inkscape:connector-curvature="0" />
      <path style="fill:#ffffff;fill-opacity:0.06976743;stroke-width:0.26458332" d="m 31.360417,80.068759 c 0.009,0.183664 -0.21909,0.302366 -0.374253,0.218856 -0.134255,-0.06608 -0.132848,-0.23048 -0.125672,-0.358693 0.0016,-0.738309 -0.0036,-1.476825 0.0027,-2.215004 0.02487,-0.186115 0.288978,-0.269911 0.41851,-0.134318 0.109926,0.09583 0.0725,0.250224 0.07873,0.379186 1.3e-5,0.703318 -2.7e-5,1.406689 2e-5,2.109973 z" id="path1004" inkscape:connector-curvature="0" />
      <path style="fill:#ffffff;fill-opacity:0.06976743;stroke-width:0.26458332" d="m 33.50598,79.844759 c 0.172483,-0.01338 0.308016,0.198312 0.216921,0.348191 -0.07025,0.131613 -0.233236,0.125808 -0.361213,0.119692 -0.40221,-0.0018 -0.804741,0.0043 -1.206749,-0.0033 -0.161342,-0.02375 -0.215268,-0.20352 -0.192897,-0.34422 0.0016,-0.75038 -0.0036,-1.500968 0.0027,-2.251218 0.02487,-0.186115 0.288978,-0.269911 0.41851,-0.134318 0.10993,0.09583 0.07249,0.250225 0.07872,0.379186 0,0.651324 0,1.302649 0,1.953973 -0.05186,-0.03373 -0.113873,-0.08306 -0.01855,-0.068 0.35419,2.5e-5 0.708423,-4.9e-5 1.062585,3.7e-5 z" id="path1006" inkscape:connector-curvature="0" />
      <path style="fill:#ffffff;fill-opacity:0.06976743;stroke-width:0.26458332" d="m 34.761542,80.312759 c -0.149254,0.01241 -0.281347,-0.134783 -0.256,-0.28188 0,-0.760706 0,-1.521413 0,-2.28212 0.173333,0 0.346667,0 0.52,0 -7.9e-4,0.781833 0.0016,1.563669 -0.0012,2.3455 -0.008,0.129734 -0.137457,0.225746 -0.2628,0.2185 z m -0.884,-2.34 c -0.147742,0.01341 -0.278072,-0.138735 -0.240254,-0.282796 0.02788,-0.151142 0.201158,-0.194883 0.333243,-0.177149 0.574078,9.69e-4 1.148216,-0.0023 1.722258,0.0017 0.166969,0.0117 0.26714,0.22916 0.165472,0.363398 -0.07999,0.110572 -0.223344,0.09546 -0.343613,0.09484 -0.545702,0 -1.091404,0 -1.637106,0 z" id="path1008" inkscape:connector-curvature="0" />
      <path style="fill:#ffffff;fill-opacity:0.06976743;stroke-width:0.26458332" d="m 36.565355,77.512759 c 0.465104,0.0028 0.930739,-0.0056 1.39551,0.0044 0.164519,0.0273 0.253141,0.253935 0.135182,0.378815 -0.106398,0.109833 -0.268031,0.06978 -0.405345,0.07685 -0.301783,0 -0.603565,0 -0.905347,0 0.0252,-0.06798 0.04449,-0.06589 0.036,0.0014 0,0.236851 0,0.473703 0,0.710554 -0.06639,-0.06158 0.111114,-0.02005 0.148939,-0.03185 0.270125,0.0021 0.540777,-0.0053 0.810568,0.0042 0.164519,0.0273 0.253141,0.253935 0.135182,0.378815 -0.106398,0.109833 -0.268031,0.06978 -0.405345,0.07685 -0.236449,0 -0.472898,0 -0.709347,0 0.03866,-0.05848 0.01324,0.08512 0.02,0.119519 0,0.218827 0,0.437655 0,0.656482 -0.05262,-0.07566 0.165852,-0.01793 0.22169,-0.03584 0.306055,0.0024 0.612847,-0.0062 0.918439,0.0049 0.159626,0.02997 0.252982,0.250964 0.134225,0.374306 -0.108027,0.118762 -0.282596,0.07107 -0.424046,0.08048 -0.385744,-0.0016 -0.77181,0.0042 -1.157352,-0.0033 -0.161344,-0.02375 -0.215264,-0.203521 -0.192901,-0.344221 5.23e-4,-0.744604 -0.0014,-1.489211 10e-4,-2.233814 0.0057,-0.122281 0.121961,-0.223386 0.242906,-0.218577 z" id="path1010" inkscape:connector-curvature="0" />
      <path style="fill:#ffffff;fill-opacity:0.06976743;stroke-width:0.26458332" d="m 38.898417,80.312759 c -0.1532,0.0085 -0.31505,-0.125209 -0.287984,-0.287316 0.0013,-0.769028 -0.0027,-1.538155 0.0021,-2.307121 0.01621,-0.159351 0.192938,-0.230384 0.334481,-0.205437 0.382297,0.0027 0.765031,-0.0064 1.147049,0.0051 0.393938,0.04683 0.705207,0.419189 0.708489,0.811475 0.01223,0.321185 -0.183358,0.634947 -0.468056,0.779392 -0.02155,-0.08965 0.03859,-0.102452 0.08935,-0.03859 0.163725,0.117752 0.262904,0.312214 0.274748,0.512106 0.02031,0.115848 -0.0097,0.280276 0.118209,0.340879 0.107998,0.07453 0.148231,0.2548 0.033,0.341945 -0.140749,0.112308 -0.349062,0.03654 -0.456611,-0.08695 -0.152126,-0.164689 -0.174987,-0.400905 -0.172052,-0.614883 -0.0145,-0.156165 -0.164451,-0.27495 -0.318874,-0.266605 -0.281676,-0.0086 -0.563702,-0.0019 -0.845547,-0.004 0.0028,-0.02678 0.07424,-0.13513 0.0537,-0.03024 -0.0012,0.284338 0.003,0.568823 -0.0023,0.853069 -0.01036,0.104556 -0.09756,0.207055 -0.209648,0.197185 z m 0.156,-1.432 c 0.321084,-0.0026 0.643066,0.0053 0.963588,-0.004 0.158522,-0.04536 0.225187,-0.220515 0.255042,-0.36718 0.03791,-0.193682 -0.02363,-0.436055 -0.2168,-0.522845 -0.119704,-0.02792 -0.244376,-0.0089 -0.366551,-0.01393 -0.209093,0 -0.418186,0 -0.627279,0 0.02327,-0.05963 0.05776,-0.181109 0.048,-0.05855 0,0.354184 0,0.708367 0,1.062551 -0.01867,-0.032 -0.03733,-0.064 -0.056,-0.096 z" id="path1012" inkscape:connector-curvature="0" />
    </g>
    <g aria-label="EOC" style="font-style:normal;font-variant:normal;font-weight:bold;font-stretch:normal;font-size:4px;line-height:1.25;font-family:Quicksand;-inkscape-font-specification:'Quicksand, Bold';font-variant-ligatures:normal;font-variant-caps:normal;font-variant-numeric:normal;font-feature-settings:normal;text-align:start;letter-spacing:0px;word-spacing:0px;writing-mode:lr-tb;text-anchor:start;fill:#ecedf1;fill-opacity:1;stroke-width:0.26458332" id="text993" transform="translate(4.0691787,11.739815)">
      <path style="font-style:normal;font-variant:normal;font-weight:600;font-stretch:normal;font-size:4px;font-family:Quicksand;-inkscape-font-specification:'Quicksand, Semi-Bold';font-variant-ligatures:normal;font-variant-caps:normal;font-variant-numeric:normal;font-feature-settings:normal;text-align:start;writing-mode:lr-tb;text-anchor:start;fill:#ecedf1;fill-opacity:1;stroke-width:0.26458332" d="m 32.410294,94.115359 c 0.46818,5.81e-4 0.936422,-0.0012 1.404563,8.75e-4 0.116711,0.0064 0.206853,0.131715 0.173578,0.2445 -0.02356,0.09414 -0.125285,0.148512 -0.218032,0.138625 H 32.63797 c -0.0063,0.0063 -0.01054,0.01771 -0.01168,0.02192 l 0,0.751306 c -0.0012,0.005 0.0023,0.0139 0.0066,0.01478 0.341544,5.8e-4 0.660411,-0.0012 1.001915,8.75e-4 0.11514,0.0063 0.202652,0.127516 0.175688,0.239125 -0.0186,0.09901 -0.124275,0.158608 -0.220141,0.148 h -0.953868 c -0.0097,0.0033 -0.01144,0.0036 -0.01024,0.01154 v 0.833082 c 0.0035,0.0028 0.0074,0.0046 0.01837,0.01141 0.394893,6.22e-4 0.77539,-0.0012 1.170239,9.38e-4 0.115597,0.0097 0.211054,0.136715 0.171,0.250125 -0.0264,0.09108 -0.124436,0.142692 -0.215454,0.132937 -0.460237,-5.81e-4 -0.920536,0.0012 -1.380734,-8.75e-4 -0.109329,-0.0053 -0.19487,-0.111419 -0.183375,-0.219052 1.56e-4,-0.795649 -3.12e-4,-1.591304 2.34e-4,-2.386948 9.8e-4,-0.105408 0.09953,-0.195706 0.203766,-0.193125 z" id="path996" inkscape:connector-curvature="0" sodipodi:nodetypes="ccccccccccccccccccccccc" />
      <path style="font-style:normal;font-variant:normal;font-weight:600;font-stretch:normal;font-size:4px;font-family:Quicksand;-inkscape-font-specification:'Quicksand, Semi-Bold';font-variant-ligatures:normal;font-variant-caps:normal;font-variant-numeric:normal;font-feature-settings:normal;text-align:start;writing-mode:lr-tb;text-anchor:start;fill:#ecedf1;fill-opacity:1;stroke-width:0.26458332" d="m 37.039544,95.515359 c 0.0033,0.369841 -0.123115,0.745951 -0.378271,1.017859 -0.210667,0.234129 -0.509611,0.386797 -0.823866,0.414521 -0.306528,0.03198 -0.627632,-0.03073 -0.8848,-0.205243 -0.330156,-0.213828 -0.546578,-0.581413 -0.598688,-0.968793 -0.05387,-0.37549 0.006,-0.776424 0.215438,-1.097828 0.233201,-0.372178 0.667203,-0.60329 1.105073,-0.600489 0.377267,-0.0073 0.755948,0.154844 1.003786,0.440739 0.242573,0.271101 0.364096,0.63795 0.361328,0.999234 z m -0.432,0 c 0.0034,-0.317283 -0.119671,-0.645389 -0.369234,-0.849484 -0.244688,-0.203751 -0.602946,-0.242332 -0.894907,-0.126235 -0.298145,0.121269 -0.497856,0.415625 -0.553656,0.726235 -0.05882,0.327816 -0.0063,0.689668 0.203231,0.95673 0.156715,0.204282 0.407774,0.331123 0.665573,0.332455 0.238631,0.0093 0.480826,-0.07915 0.648056,-0.251763 0.204098,-0.2065 0.303768,-0.500631 0.300937,-0.787938 z" id="path998" inkscape:connector-curvature="0" />
      <path style="font-style:normal;font-variant:normal;font-weight:600;font-stretch:normal;font-size:4px;font-family:Quicksand;-inkscape-font-specification:'Quicksand, Semi-Bold';font-variant-ligatures:normal;font-variant-caps:normal;font-variant-numeric:normal;font-feature-settings:normal;text-align:start;writing-mode:lr-tb;text-anchor:start;fill:#ecedf1;fill-opacity:1;stroke-width:0.26458332" d="m 39.522419,94.275359 c 0.115176,0.04948 0.134438,0.214436 0.056,0.304 -0.05884,0.08718 -0.18512,0.08467 -0.266547,0.03259 -0.18396,-0.0937 -0.392659,-0.140639 -0.599098,-0.120957 -0.261564,0.01647 -0.518822,0.137697 -0.681234,0.346351 -0.175881,0.213287 -0.23226,0.500156 -0.214449,0.770543 0.0135,0.291881 0.138405,0.591962 0.380027,0.766656 0.21703,0.160086 0.500871,0.20268 0.76377,0.170688 0.133135,-0.01755 0.261744,-0.06203 0.379469,-0.126125 0.08324,-0.03767 0.196556,-0.0197 0.246218,0.06277 0.0737,0.08467 0.05226,0.231975 -0.04992,0.283828 -0.197893,0.109167 -0.421847,0.169853 -0.646625,0.187312 -0.40108,0.02345 -0.815482,-0.113284 -1.104281,-0.396984 -0.228378,-0.221024 -0.365233,-0.527812 -0.393457,-0.84312 -0.03569,-0.33462 0.01857,-0.686958 0.200204,-0.974776 0.235456,-0.385394 0.675875,-0.622536 1.122847,-0.644139 0.278953,-0.01742 0.562938,0.04472 0.807078,0.181363 z" id="path1000" inkscape:connector-curvature="0" />
    </g>
  </g>
  <g inkscape:groupmode="layer" id="layer2" inkscape:label="components" style="display:none">
    <text xml:space="preserve" style="font-style:normal;font-variant:normal;font-weight:600;font-stretch:normal;font-size:4px;line-height:1.25;font-family:Quicksand;-inkscape-font-specification:'Quicksand, Semi-Bold';font-variant-ligatures:normal;font-variant-caps:normal;font-variant-numeric:normal;font-feature-settings:normal;text-align:start;letter-spacing:0px;word-spacing:0px;writing-mode:lr-tb;text-anchor:start;stroke-width:0.26458299" x="16.089626" y="7.1729927" id="text1014"><tspan sodipodi:role="line" id="tspan1012" x="16.089626" y="10.872993" style="stroke-width:0.26458299" /><tspan sodipodi:role="line" x="16.089626" y="15.872993" id="tspan1016" style="stroke-width:0.26458299" /></text>
    <circle r="1.4860785" style="fill:#ffff00;fill-opacity:1;stroke-width:0.40513301" id="circle990" cx="63.469864" cy="118.34007" inkscape:label="meter1" />
    <circle r="1.5" inkscape:label="meter0" cy="18.025164" cx="45.766895" id="circle884" style="fill:#ffff00;fill-opacity:1;stroke-width:0.40892899" />
    <circle inkscape:label="over_L" cy="15.522526" cx="55.203503" id="circle951" style="font-style:normal;font-variant:normal;font-weight:600;font-stretch:normal;font-size:4.34368992px;line-height:1.25;font-family:Quicksand;-inkscape-font-specification:'Quicksand, Semi-Bold';font-variant-ligatures:normal;font-variant-caps:normal;font-variant-numeric:normal;font-feature-settings:normal;text-align:start;letter-spacing:0px;word-spacing:0px;writing-mode:lr-tb;text-anchor:start;display:inline;fill:#ff00ff;fill-opacity:1;stroke-width:0.26458299" r="1.5" />
    <circle r="3.8099999" style="display:inline;opacity:1;vector-effect:none;fill:#0000ff;fill-opacity:1;fill-rule:evenodd;stroke:none;stroke-width:1;stroke-linecap:butt;stroke-linejoin:miter;stroke-miterlimit:4;stroke-dasharray:none;stroke-dashoffset:0;stroke-opacity:1;paint-order:normal" id="circle1215" cx="29.767815" cy="113.74162" inkscape:label="main_L" />
    <circle r="3.5" style="display:inline;opacity:1;vector-effect:none;fill:#ff0000;fill-opacity:1;fill-rule:evenodd;stroke:none;stroke-width:0.875;stroke-linecap:butt;stroke-linejoin:miter;stroke-miterlimit:4;stroke-dasharray:none;stroke-dashoffset:0;stroke-opacity:1;paint-order:normal" id="circle1217" cx="19.164438" cy="83.944504" inkscape:label="mix_L" />
    <circle r="7.5" style="display:inline;opacity:1;fill:#ff0000;fill-opacity:1;fill-rule:evenodd;stroke:none;stroke-width:1.125;stroke-linecap:butt;stroke-linejoin:miter;stroke-miterlimit:4;stroke-dasharray:none;stroke-dashoffset:0;stroke-opacity:1;paint-order:normal" id="circle1219" cx="25.025089" cy="27.98299" inkscape:label="delay_L" />
    <circle inkscape:label="dj_filter_center" cy="85.23568" cx="29.81967" id="circle1221" style="display:inline;opacity:1;vector-effect:none;fill:#ff0000;fill-opacity:1;fill-rule:evenodd;stroke:none;stroke-width:1;stroke-linecap:butt;stroke-linejoin:miter;stroke-miterlimit:4;stroke-dasharray:none;stroke-dashoffset:0;stroke-opacity:1;paint-order:normal" r="2.5" />
    <circle inkscape:label="dj_filter_width" style="display:inline;opacity:1;vector-effect:none;fill:#ff0000;fill-opacity:1;fill-rule:evenodd;stroke:none;stroke-width:1;stroke-linecap:butt;stroke-linejoin:miter;stroke-miterlimit:4;stroke-dasharray:none;stroke-dashoffset:0;stroke-opacity:1;paint-order:normal" id="circle1223" cx="39.908859" cy="85.126724" r="2.5" />
    <circle r="3.5" style="display:inline;opacity:1;vector-effect:none;fill:#ff0000;fill-opacity:1;fill-rule:evenodd;stroke:none;stroke-width:0.875;stroke-linecap:butt;stroke-linejoin:miter;stroke-miterlimit:4;stroke-dasharray:none;stroke-dashoffset:0;stroke-opacity:1;paint-order:normal" id="circle1225" cx="8.1458569" cy="84.05114" inkscape:label="duck_L" />
    <circle r="3.8099999" cy="98.534004" cx="8.2757473" id="circle1227" style="display:inline;opacity:1;vector-effect:none;fill:#00ff00;fill-opacity:1;fill-rule:evenodd;stroke:none;stroke-width:1;stroke-linecap:butt;stroke-linejoin:miter;stroke-miterlimit:4;stroke-dasharray:none;stroke-dashoffset:0;stroke-opacity:1;paint-order:normal" inkscape:label="duck_L" />
    <circle r="3.5" inkscape:label="fb_L" cy="51.438297" cx="7.5602684" id="circle1229" style="display:inline;opacity:1;vector-effect:none;fill:#ff0000;fill-opacity:1;fill-rule:evenodd;stroke:none;stroke-width:0.875;stroke-linecap:butt;stroke-linejoin:miter;stroke-miterlimit:4;stroke-dasharray:none;stroke-dashoffset:0;stroke-opacity:1;paint-order:normal" />
    <circle inkscape:label="main_L" style="display:inline;opacity:1;vector-effect:none;fill:#00ff00;fill-opacity:1;fill-rule:evenodd;stroke:none;stroke-width:1;stroke-linecap:butt;stroke-linejoin:miter;stroke-miterlimit:4;stroke-dasharray:none;stroke-dashoffset:0;stroke-opacity:1;paint-order:normal" id="circle1231" cx="8.3000441" cy="113.60816" r="3.8099999" />
    <circle r="3.5" style="display:inline;opacity:1;vector-effect:none;fill:#ff0000;fill-opacity:1;fill-rule:evenodd;stroke:none;stroke-width:1;stroke-linecap:butt;stroke-linejoin:miter;stroke-miterlimit:4;stroke-dasharray:none;stroke-dashoffset:0;stroke-opacity:1;paint-order:normal" id="circle1233" cx="18.360403" cy="51.398869" inkscape:label="freeze_L" />
    <circle r="3.5" inkscape:label="rev_L" cy="51.343243" cx="40.190876" id="circle1235" style="display:inline;opacity:1;vector-effect:none;fill:#ff0000;fill-opacity:1;fill-rule:evenodd;stroke:none;stroke-width:1;stroke-linecap:butt;stroke-linejoin:miter;stroke-miterlimit:4;stroke-dasharray:none;stroke-dashoffset:0;stroke-opacity:1;paint-order:normal" />
    <circle cy="65.67485" cx="18.385635" id="circle1237" style="display:inline;opacity:1;vector-effect:none;fill:#00ff00;fill-opacity:1;fill-rule:evenodd;stroke:none;stroke-width:1;stroke-linecap:butt;stroke-linejoin:miter;stroke-miterlimit:4;stroke-dasharray:none;stroke-dashoffset:0;stroke-opacity:1;paint-order:normal" inkscape:label="freeze_L" r="3.8099999" />
    <circle r="3.8099999" inkscape:label="rev_L" style="display:inline;opacity:1;vector-effect:none;fill:#00ff00;fill-opacity:1;fill-rule:evenodd;stroke:none;stroke-width:1;stroke-linecap:butt;stroke-linejoin:miter;stroke-miterlimit:4;stroke-dasharray:none;stroke-dashoffset:0;stroke-opacity:1;paint-order:normal" id="circle1239" cx="40.04681" cy="65.480858" />
    <circle r="3.8099999" inkscape:label="fb_L" style="display:inline;opacity:1;vector-effect:none;fill:#00ff00;fill-opacity:1;fill-rule:evenodd;stroke:none;stroke-width:1;stroke-linecap:butt;stroke-linejoin:miter;stroke-miterlimit:4;stroke-dasharray:none;stroke-dashoffset:0;stroke-opacity:1;paint-order:normal" id="circle1241" cx="7.5132484" cy="65.655037" />
    <circle r="1.5" style="font-style:normal;font-variant:normal;font-weight:600;font-stretch:normal;font-size:4.34368992px;line-height:1.25;font-family:Quicksand;-inkscape-font-specification:'Quicksand, Semi-Bold';font-variant-ligatures:normal;font-variant-caps:normal;font-variant-numeric:normal;font-feature-settings:normal;text-align:start;letter-spacing:0px;word-spacing:0px;writing-mode:lr-tb;text-anchor:start;display:inline;fill:#ff00ff;fill-opacity:1;stroke-width:0.26458299" id="circle1243" cx="10.292387" cy="91.326958" inkscape:label="duck_L_0" />
    <circle r="2.5" style="display:inline;opacity:1;vector-effect:none;fill:#ff0000;fill-opacity:1;fill-rule:evenodd;stroke:none;stroke-width:0.875;stroke-linecap:butt;stroke-linejoin:miter;stroke-miterlimit:4;stroke-dasharray:none;stroke-dashoffset:0;stroke-opacity:1;paint-order:normal" id="circle1245" cx="7.5753288" cy="58.201885" inkscape:label="fb_att_L" />
    <circle r="1.5" inkscape:label="duck_L_1" cy="91.340508" cx="6.0030727" id="circle1247" style="font-style:normal;font-variant:normal;font-weight:600;font-stretch:normal;font-size:4.34368992px;line-height:1.25;font-family:Quicksand;-inkscape-font-specification:'Quicksand, Semi-Bold';font-variant-ligatures:normal;font-variant-caps:normal;font-variant-numeric:normal;font-feature-settings:normal;text-align:start;letter-spacing:0px;word-spacing:0px;writing-mode:lr-tb;text-anchor:start;display:inline;fill:#ff00ff;fill-opacity:1;stroke-width:0.26458299" />
    <circle r="3.8099999" inkscape:label="delay_L" style="display:inline;opacity:1;vector-effect:none;fill:#00ff00;fill-opacity:1;fill-rule:evenodd;stroke:none;stroke-width:1;stroke-linecap:butt;stroke-linejoin:miter;stroke-miterlimit:4;stroke-dasharray:none;stroke-dashoffset:0;stroke-opacity:1;paint-order:normal" id="circle1249" cx="38.554558" cy="31.283413" />
    <circle r="2.5" style="display:inline;opacity:1;vector-effect:none;fill:#ff0000;fill-opacity:1;fill-rule:evenodd;stroke:none;stroke-width:0.875;stroke-linecap:butt;stroke-linejoin:miter;stroke-miterlimit:4;stroke-dasharray:none;stroke-dashoffset:0;stroke-opacity:1;paint-order:normal" id="circle1251" cx="38.402374" cy="23.545488" inkscape:label="delay_att_L" />
    <circle style="display:inline;opacity:1;vector-effect:none;fill:#0000ff;fill-opacity:1;fill-rule:evenodd;stroke:none;stroke-width:1;stroke-linecap:butt;stroke-linejoin:miter;stroke-miterlimit:4;stroke-dasharray:none;stroke-dashoffset:0;stroke-opacity:1;paint-order:normal" id="circle1253" cx="39.886879" cy="113.63613" inkscape:label="eoc_L" r="3.8099999" />
    <circle r="3.8099999" inkscape:label="delay_vpo_clk_L" style="display:inline;opacity:1;vector-effect:none;fill:#00ff00;fill-opacity:1;fill-rule:evenodd;stroke:none;stroke-width:1;stroke-linecap:butt;stroke-linejoin:miter;stroke-miterlimit:4;stroke-dasharray:none;stroke-dashoffset:0;stroke-opacity:1;paint-order:normal" id="circle1255" cx="10.101791" cy="31.23468" />
    <circle r="3.5" inkscape:label="scan_L" cy="51.427326" cx="29.322369" id="circle1257" style="display:inline;opacity:1;vector-effect:none;fill:#ff0000;fill-opacity:1;fill-rule:evenodd;stroke:none;stroke-width:0.875;stroke-linecap:butt;stroke-linejoin:miter;stroke-miterlimit:4;stroke-dasharray:none;stroke-dashoffset:0;stroke-opacity:1;paint-order:normal" />
    <circle cy="65.529922" cx="29.2859" id="circle1259" style="display:inline;opacity:1;vector-effect:none;fill:#00ff00;fill-opacity:1;fill-rule:evenodd;stroke:none;stroke-width:1;stroke-linecap:butt;stroke-linejoin:miter;stroke-miterlimit:4;stroke-dasharray:none;stroke-dashoffset:0;stroke-opacity:1;paint-order:normal" inkscape:label="scan_L" r="3.8099999" />
    <circle inkscape:label="scan_att_L" cy="58.185925" cx="29.251667" id="circle1261" style="display:inline;opacity:1;vector-effect:none;fill:#ff0000;fill-opacity:1;fill-rule:evenodd;stroke:none;stroke-width:0.875;stroke-linecap:butt;stroke-linejoin:miter;stroke-miterlimit:4;stroke-dasharray:none;stroke-dashoffset:0;stroke-opacity:1;paint-order:normal" r="2.5" />
    <circle r="3.8099999" inkscape:label="mix_L" style="display:inline;opacity:1;vector-effect:none;fill:#00ff00;fill-opacity:1;fill-rule:evenodd;stroke:none;stroke-width:1;stroke-linecap:butt;stroke-linejoin:miter;stroke-miterlimit:4;stroke-dasharray:none;stroke-dashoffset:0;stroke-opacity:1;paint-order:normal" id="circle1263" cx="19.033609" cy="98.235558" />
    <circle r="2.5" style="display:inline;opacity:1;vector-effect:none;fill:#ff0000;fill-opacity:1;fill-rule:evenodd;stroke:none;stroke-width:0.875;stroke-linecap:butt;stroke-linejoin:miter;stroke-miterlimit:4;stroke-dasharray:none;stroke-dashoffset:0;stroke-opacity:1;paint-order:normal" id="circle1265" cx="19.091349" cy="90.643288" inkscape:label="mix_att_L" />
    <circle r="1.5" inkscape:label="freeze_L" cy="58.222576" cx="18.429466" id="circle1267" style="font-style:normal;font-variant:normal;font-weight:600;font-stretch:normal;font-size:4.34368992px;line-height:1.25;font-family:Quicksand;-inkscape-font-specification:'Quicksand, Semi-Bold';font-variant-ligatures:normal;font-variant-caps:normal;font-variant-numeric:normal;font-feature-settings:normal;text-align:start;letter-spacing:0px;word-spacing:0px;writing-mode:lr-tb;text-anchor:start;display:inline;fill:#ff00ff;fill-opacity:1;stroke-width:0.26458299" />
    <circle r="1.5" style="font-style:normal;font-variant:normal;font-weight:600;font-stretch:normal;font-size:4.34368992px;line-height:1.25;font-family:Quicksand;-inkscape-font-specification:'Quicksand, Semi-Bold';font-variant-ligatures:normal;font-variant-caps:normal;font-variant-numeric:normal;font-feature-settings:normal;text-align:start;letter-spacing:0px;word-spacing:0px;writing-mode:lr-tb;text-anchor:start;display:inline;fill:#ff00ff;fill-opacity:1;stroke-width:0.26458299" id="circle1269" cx="40.190121" cy="57.860363" inkscape:label="rev_L" />
    <circle style="fill:#ffff00;fill-opacity:1;stroke-width:0.40892899" id="circle983" cx="26.417635" cy="76.704185" inkscape:label="dj0" r="1.5" />
    <circle r="1.5" inkscape:label="dj1" cy="81.256729" cx="43.430042" id="circle985" style="fill:#ffff00;fill-opacity:1;stroke-width:0.40892899" />
    <circle inkscape:label="dj_filter_center_att" cy="90.702957" cx="29.806974" id="circle978" style="display:inline;opacity:1;vector-effect:none;fill:#ff0000;fill-opacity:1;fill-rule:evenodd;stroke:none;stroke-width:0.875;stroke-linecap:butt;stroke-linejoin:miter;stroke-miterlimit:4;stroke-dasharray:none;stroke-dashoffset:0;stroke-opacity:1;paint-order:normal" r="2.5" />
    <circle cy="98.295227" cx="29.848455" id="circle980" style="display:inline;opacity:1;vector-effect:none;fill:#00ff00;fill-opacity:1;fill-rule:evenodd;stroke:none;stroke-width:1;stroke-linecap:butt;stroke-linejoin:miter;stroke-miterlimit:4;stroke-dasharray:none;stroke-dashoffset:0;stroke-opacity:1;paint-order:normal" inkscape:label="dj_filter_center" r="3.8099999" />
    <circle r="2.5" style="display:inline;opacity:1;vector-effect:none;fill:#ff0000;fill-opacity:1;fill-rule:evenodd;stroke:none;stroke-width:0.875;stroke-linecap:butt;stroke-linejoin:miter;stroke-miterlimit:4;stroke-dasharray:none;stroke-dashoffset:0;stroke-opacity:1;paint-order:normal" id="circle982" cx="39.927288" cy="90.702957" inkscape:label="dj_filter_width_att" />
    <circle r="3.8099999" inkscape:label="dj_filter_width" style="display:inline;opacity:1;vector-effect:none;fill:#00ff00;fill-opacity:1;fill-rule:evenodd;stroke:none;stroke-width:1;stroke-linecap:butt;stroke-linejoin:miter;stroke-miterlimit:4;stroke-dasharray:none;stroke-dashoffset:0;stroke-opacity:1;paint-order:normal" id="circle984" cx="39.869545" cy="98.295227" />
  </g>
</svg>
