<?xml version="1.0" encoding="UTF-8" standalone="no"?>
<!DOCTYPE svg PUBLIC "-//W3C//DTD SVG 1.1//EN" "http://www.w3.org/Graphics/SVG/1.1/DTD/svg11.dtd">
<svg width="45px" height="380px" version="1.1" xmlns="http://www.w3.org/2000/svg" xmlns:xlink="http://www.w3.org/1999/xlink" xml:space="preserve" xmlns:serif="http://www.serif.com/" style="fill-rule:evenodd;clip-rule:evenodd;stroke-linejoin:round;stroke-miterlimit:2;">
    <g id="background">
        <rect id="rect817" x="-0" y="0" width="75" height="380" style="fill:#101010;"/>
        <g id="text4438">
            <path id="path4443" d="M18.816,357.931l-3.164,0l0,-6.853c0,-0.9 -0.423,-1.35 -1.27,-1.35c-0.685,0 -1.236,0.309 -1.653,0.927l0,7.276l-3.164,0l0,-6.853c0,-0.9 -0.423,-1.35 -1.27,-1.35c-0.699,0 -1.243,0.309 -1.633,0.927l0,7.276l-3.185,0l0,-7.659l-0.181,-3.023l2.842,0l0.222,1.29c0.739,-1.035 1.807,-1.552 3.205,-1.552c1.357,0 2.291,0.551 2.802,1.653c0.752,-1.102 1.848,-1.653 3.285,-1.653c1.062,0 1.854,0.329 2.378,0.988c0.524,0.658 0.786,1.525 0.786,2.6l-0,7.357Z" style="fill:#eee;fill-rule:nonzero;"/>
            <path id="path4445" d="M24.526,346.987c1.156,0 2.069,0.39 2.741,1.169l0,-6.349l3.185,0l0,13.101l0.181,3.023l-2.862,0l-0.222,-1.27c-0.699,1.021 -1.707,1.532 -3.023,1.532c-2.647,0 -3.971,-1.747 -3.971,-5.241l0,-0.726c0,-3.494 1.324,-5.241 3.971,-5.241l-0,-0Zm2.741,3.749c-0.457,-0.672 -1.062,-1.008 -1.814,-1.008c-1.156,0 -1.733,0.833 -1.733,2.499l0,0.726c0,1.666 0.578,2.499 1.733,2.499c0.752,0 1.357,-0.336 1.814,-1.008l0,-3.709Z" style="fill:#eee;fill-rule:nonzero;"/>
            <path id="path4447" d="M34.826,357.931l-3.104,-10.683l3.285,0l2.056,8.123l2.036,-8.123l3.306,0l-3.124,10.683l-4.454,0Z" style="fill:#eee;fill-rule:nonzero;"/>
        </g>
    </g>
    <g id="labels">
        <g id="text4267">
            <path id="path4274" d="M13.189,214.469l0,4.221l-1.158,0l0,-4.221l-1.531,0l0,-1.112l4.221,0l0,1.112l-1.531,0Z" style="fill:#232323;fill-rule:nonzero;"/>
            <path id="path4276" d="M15.515,218.689l0,-5.333l2.598,0c0.64,0 1.102,0.16 1.387,0.48c0.289,0.32 0.434,0.734 0.434,1.242c0,0.315 -0.086,0.622 -0.259,0.922c-0.173,0.3 -0.409,0.51 -0.709,0.632l0.998,2.057l-1.295,0l-0.968,-1.882l-1.028,0l0,1.882l-1.158,0Zm1.158,-2.979l1.455,0c0.401,0 0.602,-0.211 0.602,-0.632c0,-0.178 -0.048,-0.325 -0.145,-0.442c-0.091,-0.122 -0.244,-0.183 -0.457,-0.183l-1.455,0l0,1.257l-0,0Z" style="fill:#232323;fill-rule:nonzero;"/>
            <path id="path4278" d="M22.916,218.781c-0.396,0 -0.749,-0.076 -1.059,-0.229c-0.31,-0.157 -0.556,-0.368 -0.739,-0.632c-0.183,-0.264 -0.323,-0.556 -0.419,-0.876c-0.091,-0.32 -0.137,-0.66 -0.137,-1.021c0,-0.335 0.048,-0.66 0.145,-0.975c0.096,-0.32 0.236,-0.615 0.419,-0.884c0.188,-0.269 0.437,-0.485 0.747,-0.648c0.31,-0.168 0.658,-0.251 1.044,-0.251c0.472,0 0.858,0.109 1.158,0.328c0.305,0.218 0.574,0.515 0.808,0.891l-1.013,0.571c-0.284,-0.452 -0.602,-0.678 -0.952,-0.678c-0.274,0 -0.503,0.091 -0.686,0.274c-0.183,0.178 -0.307,0.383 -0.373,0.617c-0.061,0.234 -0.091,0.485 -0.091,0.754c0,0.462 0.094,0.853 0.282,1.173c0.193,0.315 0.483,0.472 0.869,0.472c0.218,0 0.409,-0.071 0.571,-0.213c0.163,-0.142 0.244,-0.307 0.244,-0.495l0,-0.038l-0.869,0l0,-1.105l2.057,0l0,0.838c0,0.665 -0.188,1.186 -0.564,1.562c-0.371,0.376 -0.851,0.564 -1.44,0.564l0,0Z" style="fill:#232323;fill-rule:nonzero;"/>
            <rect id="path4280" x="27.799" y="213.357" width="1.158" height="5.333" style="fill:#232323;fill-rule:nonzero;"/>
            <path id="path4282" d="M34.5,218.689l-1.013,0l-2.011,-2.826c-0.051,-0.066 -0.127,-0.201 -0.229,-0.404c0.015,0.086 0.023,0.221 0.023,0.404l0,2.826l-1.143,0l0,-5.333l1.059,0l1.958,2.796c0.097,0.137 0.17,0.269 0.221,0.396c-0.015,-0.107 -0.023,-0.241 -0.023,-0.404l0,-2.788l1.158,0l0,5.333l0,0Z" style="fill:#232323;fill-rule:nonzero;"/>
        </g>
        <path id="rect934" d="M37.5,258.794l0,41.413c0,0.438 -0.356,0.794 -0.794,0.794l-28.412,0c-0.438,0 -0.794,-0.356 -0.794,-0.794l0,-41.413c0,-0.438 0.356,-0.794 0.794,-0.794l28.412,0c0.438,0 0.794,0.356 0.794,0.794Z" style="fill:#999999;"/>
        <path id="rect4360" d="M37.5,208.794l0,41.413c0,0.438 -0.356,0.794 -0.794,0.794l-28.412,0c-0.438,0 -0.794,-0.356 -0.794,-0.794l0,-41.413c0,-0.438 0.356,-0.794 0.794,-0.794l28.412,0c0.438,0 0.794,0.356 0.794,0.794Z" style="fill:#999999;"/>
        <g id="text4709">
            <path id="path4719" d="M14.873,335.311c-0.535,0 -1.005,-0.105 -1.411,-0.315c-0.399,-0.217 -0.711,-0.504 -0.934,-0.863c-0.223,-0.359 -0.389,-0.745 -0.498,-1.158c-0.102,-0.413 -0.152,-0.853 -0.152,-1.32c0,-0.426 0.054,-0.843 0.162,-1.249c0.108,-0.413 0.274,-0.802 0.498,-1.168c0.223,-0.372 0.535,-0.67 0.934,-0.894c0.406,-0.23 0.873,-0.345 1.401,-0.345c0.643,0 1.191,0.166 1.645,0.498c0.454,0.332 0.775,0.734 0.965,1.208l-1.381,0.619c-0.196,-0.291 -0.386,-0.504 -0.569,-0.64c-0.176,-0.135 -0.396,-0.203 -0.66,-0.203c-0.25,0 -0.47,0.068 -0.66,0.203c-0.19,0.129 -0.335,0.305 -0.437,0.528c-0.102,0.217 -0.176,0.447 -0.223,0.69c-0.047,0.237 -0.071,0.487 -0.071,0.751c0,0.359 0.044,0.697 0.132,1.015c0.095,0.318 0.25,0.592 0.467,0.822c0.223,0.223 0.487,0.335 0.792,0.335c0.44,0 0.843,-0.305 1.208,-0.914l1.411,0.528c-0.575,1.246 -1.449,1.868 -2.62,1.868Z" style="fill:#eee;fill-rule:nonzero;"/>
            <path id="path4721" d="M18.577,335.209l0,-7.108l1.543,0l0,5.615l3.412,0l0,1.493l-4.955,0Z" style="fill:#eee;fill-rule:nonzero;"/>
            <rect id="path4723" x="24.419" y="328.102" width="1.543" height="7.108" style="fill:#eee;fill-rule:nonzero;"/>
            <path id="path4725" d="M27.522,335.209l0,-7.108l3.148,0c0.846,0 1.469,0.22 1.868,0.66c0.406,0.44 0.609,0.982 0.609,1.625c0,0.278 -0.047,0.548 -0.142,0.812c-0.095,0.257 -0.237,0.498 -0.426,0.721c-0.19,0.223 -0.45,0.403 -0.782,0.538c-0.332,0.135 -0.707,0.203 -1.127,0.203l-1.604,0l0,2.549l-1.543,0l-0,0Zm3.209,-4.001c0.271,0 0.474,-0.081 0.609,-0.244c0.135,-0.162 0.203,-0.355 0.203,-0.579c0,-0.217 -0.064,-0.406 -0.193,-0.569c-0.129,-0.169 -0.335,-0.254 -0.619,-0.254l-1.665,0l0,1.645l1.665,0l0,0Z" style="fill:#eee;fill-rule:nonzero;"/>
        </g>
        <g id="text4843">
            <path id="path4850" d="M17.179,270.633l-0.652,-1.704l-3.295,0l-0.652,1.704l-2.08,0l3.458,-8.771l1.829,0l3.471,8.771l-2.08,0Zm-1.291,-3.458l-0.752,-1.892c-0.117,-0.284 -0.205,-0.53 -0.263,-0.739c-0.033,0.142 -0.121,0.388 -0.263,0.739l-0.752,1.892l2.03,0Z" style="fill:#101010;fill-rule:nonzero;"/>
            <path id="path4852" d="M19.3,272.262l4.924,-10.55l1.892,0l-4.924,10.55l-1.892,0Z" style="fill:#101010;fill-rule:nonzero;"/>
            <path id="path4854" d="M27.182,261.862l4.135,0c1.002,0 1.733,0.23 2.193,0.689c0.468,0.451 0.702,1.015 0.702,1.692c0,0.902 -0.33,1.508 -0.99,1.817c0.426,0.159 0.743,0.422 0.952,0.789c0.217,0.368 0.326,0.752 0.326,1.153c0,0.727 -0.246,1.349 -0.739,1.867c-0.493,0.51 -1.253,0.764 -2.28,0.764l-4.298,0l0,-8.771l-0,0Zm3.947,3.421c0.76,0 1.14,-0.276 1.14,-0.827c0,-0.543 -0.313,-0.814 -0.94,-0.814l-2.243,0l0,1.641l2.042,0Zm0.439,3.559c0.351,0 0.606,-0.088 0.764,-0.263c0.159,-0.175 0.238,-0.38 0.238,-0.614c0,-0.643 -0.447,-0.965 -1.341,-0.965l-2.143,0l0,1.842l2.481,0Z" style="fill:#101010;fill-rule:nonzero;"/>
        </g>
        <g id="text4893">
            <path id="path4906" d="M18.86,95.136l4.133,0c1.002,0 1.733,0.23 2.192,0.689c0.468,0.451 0.701,1.015 0.701,1.691c0,0.902 -0.33,1.507 -0.989,1.816c0.426,0.159 0.743,0.422 0.952,0.789c0.217,0.367 0.326,0.751 0.326,1.152c0,0.726 -0.246,1.349 -0.739,1.866c-0.493,0.509 -1.252,0.764 -2.28,0.764l-4.296,0l-0,-8.768Zm3.945,3.419c0.76,0 1.14,-0.276 1.14,-0.827c0,-0.543 -0.313,-0.814 -0.939,-0.814l-2.242,0l0,1.641l2.042,0Zm0.438,3.557c0.351,0 0.605,-0.088 0.764,-0.263c0.159,-0.175 0.238,-0.38 0.238,-0.614c0,-0.643 -0.447,-0.964 -1.34,-0.964l-2.142,0l0,1.841l2.48,0l0,-0Z" style="fill:#eee;fill-rule:nonzero;"/>
        </g>
        <g id="text4897">
            <path id="path4909" d="M24.663,30.742l-0.651,-1.703l-3.294,0l-0.651,1.703l-2.079,0l3.457,-8.768l1.829,0l3.469,8.768l-2.079,0Zm-1.29,-3.457l-0.751,-1.891c-0.117,-0.284 -0.205,-0.53 -0.263,-0.739c-0.033,0.142 -0.121,0.388 -0.263,0.739l-0.752,1.891l2.029,0Z" style="fill:#eee;fill-rule:nonzero;"/>
        </g>
        <g id="text4919">
            <path id="path4938" d="M16.404,220.384l-0.651,-1.703l-3.294,0l-0.651,1.703l-2.079,0l3.457,-8.768l1.829,0l3.469,8.768l-2.079,0Zm-1.29,-3.457l-0.751,-1.891c-0.117,-0.284 -0.205,-0.53 -0.263,-0.739c-0.033,0.142 -0.121,0.388 -0.263,0.739l-0.751,1.891l2.029,0Z" style="fill:#101010;fill-rule:nonzero;"/>
            <path id="path4940" d="M22.671,217.365l-1.779,1.804l-1.315,-1.328l1.779,-1.766l-1.766,-1.791l1.278,-1.265l1.779,1.766l1.766,-1.779l1.328,1.303l-1.791,1.791l1.779,1.766l-1.29,1.29l-1.766,-1.791Z" style="fill:#101010;fill-rule:nonzero;"/>
            <path id="path4942" d="M27.554,211.616l4.133,0c1.002,0 1.733,0.23 2.192,0.689c0.468,0.451 0.701,1.015 0.701,1.691c0,0.902 -0.33,1.507 -0.989,1.816c0.426,0.159 0.743,0.422 0.952,0.789c0.217,0.367 0.326,0.751 0.326,1.152c0,0.726 -0.246,1.349 -0.739,1.866c-0.493,0.509 -1.253,0.764 -2.28,0.764l-4.296,0l0,-8.768Zm3.945,3.419c0.76,0 1.14,-0.276 1.14,-0.827c0,-0.543 -0.313,-0.814 -0.939,-0.814l-2.242,0l0,1.641l2.042,0Zm0.438,3.557c0.351,0 0.605,-0.088 0.764,-0.263c0.159,-0.175 0.238,-0.38 0.238,-0.614c0,-0.643 -0.447,-0.964 -1.34,-0.964l-2.142,0l0,1.841l2.48,0l-0,-0Z" style="fill:#101010;fill-rule:nonzero;"/>
        </g>
        <g id="g933">
            <g id="text915">
                <path id="path1018" d="M29.713,86.194l0,-4.47l-0.913,0l0,-1.1c0.633,0 1.02,-0.213 1.162,-0.639l1.1,0l0,6.208l-1.348,0Z" style="fill:#eee;fill-rule:nonzero;"/>
                <path id="path1020" d="M35.176,86.301c-0.355,0 -0.671,-0.062 -0.949,-0.186c-0.272,-0.13 -0.494,-0.299 -0.665,-0.506c-0.171,-0.207 -0.313,-0.452 -0.426,-0.736c-0.106,-0.284 -0.183,-0.571 -0.231,-0.86c-0.041,-0.29 -0.062,-0.597 -0.062,-0.922c0,-0.426 0.038,-0.819 0.115,-1.18c0.077,-0.361 0.201,-0.698 0.372,-1.011c0.171,-0.319 0.414,-0.568 0.727,-0.745c0.313,-0.183 0.686,-0.275 1.117,-0.275c0.438,0 0.813,0.092 1.126,0.275c0.313,0.183 0.553,0.435 0.718,0.754c0.171,0.313 0.293,0.65 0.364,1.011c0.077,0.361 0.115,0.751 0.115,1.171c0,0.42 -0.038,0.813 -0.115,1.18c-0.077,0.361 -0.201,0.698 -0.372,1.011c-0.166,0.313 -0.405,0.562 -0.718,0.745c-0.313,0.183 -0.686,0.275 -1.117,0.275l0,-0Zm0,-1.277c0.349,0 0.6,-0.18 0.754,-0.541c0.16,-0.367 0.239,-0.831 0.239,-1.392c0,-0.355 -0.03,-0.668 -0.089,-0.94c-0.053,-0.278 -0.16,-0.511 -0.319,-0.701c-0.154,-0.195 -0.349,-0.293 -0.585,-0.293c-0.349,0 -0.603,0.183 -0.763,0.55c-0.16,0.361 -0.239,0.822 -0.239,1.384c0,0.349 0.03,0.662 0.089,0.94c0.059,0.272 0.166,0.506 0.319,0.701c0.154,0.195 0.352,0.293 0.594,0.293l0,-0Z" style="fill:#eee;fill-rule:nonzero;"/>
            </g>
            <g id="g927">
                <g id="text919">
                    <path id="path1023" d="M8.212,86.824l3.485,-7.467l1.339,0l-3.485,7.467l-1.339,0Z" style="fill:#eee;fill-rule:nonzero;"/>
                </g>
                <g id="text925">
                    <path id="path1026" d="M14.243,86.194l0,-4.47l-0.913,0l0,-1.1c0.633,0 1.02,-0.213 1.162,-0.639l1.1,0l0,6.208l-1.348,0Z" style="fill:#eee;fill-rule:nonzero;"/>
                </g>
            </g>
            <g id="text931">
                <path id="path1029" d="M22.3,86.247c-0.769,0 -1.416,-0.204 -1.942,-0.612l0.701,-1.055c0.414,0.26 0.828,0.39 1.242,0.39c0.325,0 0.582,-0.08 0.772,-0.239c0.189,-0.16 0.284,-0.39 0.284,-0.692c0,-0.237 -0.062,-0.426 -0.186,-0.568c-0.124,-0.148 -0.304,-0.222 -0.541,-0.222c-0.355,0 -0.662,0.148 -0.922,0.443l-1.171,-0.612l0.133,-3.148l3.636,0l0,1.295l-2.395,0l-0.036,0.878c0.284,-0.089 0.538,-0.133 0.763,-0.133c0.656,0 1.162,0.195 1.517,0.585c0.361,0.39 0.541,0.89 0.541,1.499c0,0.668 -0.225,1.2 -0.674,1.596c-0.449,0.396 -1.023,0.594 -1.721,0.594l0,0Z" style="fill:#eee;fill-rule:nonzero;"/>
            </g>
        </g>
        <g id="text937">
            <path id="path1032" d="M10.129,173.204c-0.317,0 -0.605,-0.05 -0.865,-0.151c-0.255,-0.101 -0.466,-0.235 -0.634,-0.404c-0.168,-0.173 -0.31,-0.372 -0.425,-0.598c-0.111,-0.226 -0.192,-0.459 -0.245,-0.699c-0.048,-0.245 -0.072,-0.497 -0.072,-0.757c0,-0.259 0.024,-0.509 0.072,-0.75c0.053,-0.245 0.135,-0.48 0.245,-0.706c0.115,-0.226 0.257,-0.423 0.425,-0.591c0.168,-0.173 0.38,-0.31 0.634,-0.411c0.259,-0.101 0.548,-0.151 0.865,-0.151c0.389,0 0.733,0.077 1.031,0.231c0.298,0.149 0.531,0.353 0.699,0.613c0.168,0.255 0.293,0.531 0.375,0.829c0.086,0.298 0.13,0.61 0.13,0.937c0,0.327 -0.043,0.639 -0.13,0.937c-0.082,0.298 -0.207,0.577 -0.375,0.836c-0.168,0.255 -0.401,0.459 -0.699,0.613c-0.298,0.149 -0.641,0.223 -1.031,0.223l0,-0Zm0,-1.059c0.25,0 0.461,-0.084 0.634,-0.252c0.173,-0.173 0.293,-0.37 0.36,-0.591c0.067,-0.226 0.101,-0.461 0.101,-0.706c0,-0.259 -0.031,-0.5 -0.094,-0.721c-0.062,-0.226 -0.18,-0.42 -0.353,-0.584c-0.173,-0.168 -0.389,-0.252 -0.649,-0.252c-0.259,0 -0.478,0.086 -0.656,0.259c-0.173,0.168 -0.291,0.365 -0.353,0.591c-0.062,0.221 -0.094,0.456 -0.094,0.706c0,0.187 0.019,0.368 0.058,0.541c0.038,0.173 0.098,0.339 0.18,0.497c0.082,0.154 0.197,0.279 0.346,0.375c0.149,0.091 0.322,0.137 0.519,0.137l-0,-0Z" style="fill:#eee;fill-rule:nonzero;"/>
            <path id="path1034" d="M15.33,173.204c-0.269,0 -0.524,-0.034 -0.764,-0.101c-0.235,-0.072 -0.456,-0.183 -0.663,-0.332c-0.207,-0.154 -0.372,-0.368 -0.497,-0.641c-0.12,-0.274 -0.18,-0.593 -0.18,-0.959l0,-3.099l1.096,0l0,3.099c0,0.36 0.079,0.613 0.238,0.757c0.163,0.144 0.42,0.216 0.771,0.216c0.341,0 0.593,-0.072 0.757,-0.216c0.168,-0.149 0.252,-0.401 0.252,-0.757l0,-3.099l1.096,0l0,3.099c0,0.36 -0.06,0.677 -0.18,0.951c-0.12,0.269 -0.283,0.48 -0.49,0.634c-0.202,0.154 -0.423,0.267 -0.663,0.339c-0.24,0.072 -0.497,0.108 -0.771,0.108l0,0Z" style="fill:#eee;fill-rule:nonzero;"/>
            <path id="path1036" d="M20.704,169.125l0,3.993l-1.096,0l0,-3.993l-1.449,0l0,-1.052l3.993,0l0,1.052l-1.449,0Z" style="fill:#eee;fill-rule:nonzero;"/>
            <path id="path1038" d="M26.668,173.204c-0.49,0 -0.913,-0.13 -1.268,-0.389c-0.351,-0.264 -0.603,-0.627 -0.757,-1.088l0.98,-0.368c0.115,0.245 0.267,0.442 0.454,0.591c0.187,0.144 0.394,0.216 0.62,0.216c0.235,0 0.42,-0.043 0.555,-0.13c0.135,-0.091 0.202,-0.221 0.202,-0.389c0,-0.111 -0.05,-0.209 -0.151,-0.296c-0.096,-0.086 -0.199,-0.149 -0.31,-0.187c-0.106,-0.043 -0.271,-0.101 -0.497,-0.173c-0.149,-0.048 -0.262,-0.084 -0.339,-0.108c-0.072,-0.029 -0.178,-0.072 -0.317,-0.13c-0.139,-0.058 -0.245,-0.111 -0.317,-0.159c-0.072,-0.048 -0.159,-0.113 -0.259,-0.195c-0.101,-0.082 -0.178,-0.166 -0.231,-0.252c-0.048,-0.091 -0.091,-0.199 -0.13,-0.324c-0.038,-0.13 -0.058,-0.267 -0.058,-0.411c0,-0.404 0.159,-0.742 0.476,-1.016c0.317,-0.274 0.747,-0.411 1.29,-0.411c0.452,0 0.831,0.118 1.139,0.353c0.308,0.235 0.512,0.538 0.613,0.908l-0.98,0.317c-0.159,-0.36 -0.435,-0.541 -0.829,-0.541c-0.408,0 -0.613,0.137 -0.613,0.411c0,0.062 0.019,0.118 0.058,0.166c0.038,0.048 0.108,0.096 0.209,0.144c0.101,0.048 0.183,0.084 0.245,0.108c0.067,0.024 0.183,0.065 0.346,0.123c0.173,0.058 0.305,0.103 0.396,0.137c0.096,0.034 0.226,0.086 0.389,0.159c0.163,0.067 0.291,0.142 0.382,0.223c0.096,0.077 0.195,0.171 0.295,0.281c0.101,0.111 0.173,0.24 0.216,0.389c0.048,0.149 0.072,0.312 0.072,0.49c0,0.476 -0.178,0.853 -0.533,1.132c-0.356,0.279 -0.805,0.418 -1.348,0.418l-0,0Z" style="fill:#eee;fill-rule:nonzero;"/>
            <path id="path1040" d="M31.354,173.19c-0.38,0 -0.714,-0.074 -1.002,-0.223c-0.283,-0.154 -0.505,-0.358 -0.663,-0.613c-0.159,-0.255 -0.276,-0.529 -0.353,-0.822c-0.072,-0.293 -0.108,-0.605 -0.108,-0.937c0,-0.303 0.038,-0.598 0.115,-0.886c0.077,-0.293 0.195,-0.569 0.353,-0.829c0.159,-0.264 0.38,-0.476 0.663,-0.634c0.288,-0.163 0.62,-0.245 0.995,-0.245c0.456,0 0.846,0.118 1.168,0.353c0.322,0.235 0.55,0.521 0.685,0.858l-0.98,0.44c-0.139,-0.207 -0.274,-0.358 -0.404,-0.454c-0.125,-0.096 -0.281,-0.144 -0.468,-0.144c-0.178,0 -0.334,0.048 -0.468,0.144c-0.135,0.091 -0.238,0.216 -0.31,0.375c-0.072,0.154 -0.125,0.317 -0.159,0.49c-0.034,0.168 -0.05,0.346 -0.05,0.533c0,0.255 0.031,0.495 0.094,0.721c0.067,0.226 0.178,0.42 0.332,0.584c0.159,0.159 0.346,0.238 0.562,0.238c0.312,0 0.598,-0.216 0.858,-0.649l1.002,0.375c-0.408,0.884 -1.028,1.326 -1.859,1.326l-0,-0Z" style="fill:#eee;fill-rule:nonzero;"/>
            <path id="path1042" d="M33.983,173.118l0,-5.045l1.096,0l0,3.986l2.422,0l0,1.059l-3.517,0Z" style="fill:#eee;fill-rule:nonzero;"/>
        </g>
        <g id="g959">
            <g id="text941">
                <path id="path1045" d="M29.53,200l0,-4.575l-0.935,0l0,-1.126c0.647,0 1.044,-0.218 1.189,-0.654l1.126,0l0,6.354l-1.38,0Z" style="fill:#eee;fill-rule:nonzero;"/>
                <path id="path1047" d="M35.122,200.109c-0.363,0 -0.687,-0.064 -0.971,-0.191c-0.278,-0.133 -0.505,-0.306 -0.681,-0.517c-0.175,-0.212 -0.321,-0.463 -0.436,-0.753c-0.109,-0.29 -0.188,-0.584 -0.236,-0.88c-0.042,-0.297 -0.064,-0.611 -0.064,-0.944c0,-0.436 0.039,-0.838 0.118,-1.207c0.079,-0.369 0.206,-0.714 0.381,-1.035c0.175,-0.327 0.424,-0.581 0.744,-0.762c0.321,-0.188 0.702,-0.281 1.144,-0.281c0.448,0 0.832,0.094 1.153,0.281c0.321,0.188 0.566,0.445 0.735,0.772c0.175,0.321 0.3,0.666 0.372,1.035c0.079,0.369 0.118,0.769 0.118,1.198c0,0.43 -0.039,0.832 -0.118,1.207c-0.079,0.369 -0.206,0.714 -0.381,1.035c-0.169,0.321 -0.415,0.575 -0.735,0.762c-0.321,0.188 -0.702,0.281 -1.144,0.281l0,-0Zm0,-1.307c0.357,0 0.614,-0.185 0.772,-0.554c0.163,-0.375 0.245,-0.85 0.245,-1.425c0,-0.363 -0.03,-0.684 -0.091,-0.962c-0.054,-0.284 -0.163,-0.523 -0.327,-0.717c-0.157,-0.2 -0.357,-0.3 -0.599,-0.3c-0.357,0 -0.617,0.188 -0.781,0.563c-0.163,0.369 -0.245,0.841 -0.245,1.416c0,0.357 0.03,0.678 0.091,0.962c0.061,0.278 0.169,0.517 0.327,0.717c0.157,0.2 0.36,0.3 0.608,0.3l0,-0Z" style="fill:#eee;fill-rule:nonzero;"/>
            </g>
            <g id="g953">
                <g id="text945">
                    <path id="path1050" d="M10.112,197.749l-1.289,1.307l-0.953,-0.962l1.289,-1.28l-1.28,-1.298l0.926,-0.917l1.289,1.28l1.28,-1.289l0.962,0.944l-1.298,1.298l1.289,1.28l-0.935,0.935l-1.28,-1.298Z" style="fill:#eee;fill-rule:nonzero;"/>
                </g>
                <g id="text951">
                    <path id="path1053" d="M13.697,200l0,-4.575l-0.935,0l0,-1.126c0.647,0 1.044,-0.218 1.189,-0.654l1.126,0l0,6.354l-1.38,0Z" style="fill:#eee;fill-rule:nonzero;"/>
                </g>
            </g>
            <g id="text957">
                <path id="path1056" d="M21.943,200.054c-0.787,0 -1.449,-0.209 -1.988,-0.626l0.717,-1.08c0.424,0.266 0.847,0.399 1.271,0.399c0.333,0 0.596,-0.082 0.79,-0.245c0.194,-0.163 0.29,-0.399 0.29,-0.708c0,-0.242 -0.064,-0.436 -0.191,-0.581c-0.127,-0.151 -0.312,-0.227 -0.554,-0.227c-0.363,0 -0.678,0.151 -0.944,0.454l-1.198,-0.626l0.136,-3.222l3.722,0l0,1.325l-2.451,0l-0.037,0.899c0.29,-0.091 0.551,-0.136 0.781,-0.136c0.672,0 1.189,0.2 1.552,0.599c0.369,0.399 0.554,0.911 0.554,1.534c0,0.684 -0.23,1.228 -0.69,1.634c-0.46,0.405 -1.047,0.608 -1.761,0.608l0,0Z" style="fill:#eee;fill-rule:nonzero;"/>
            </g>
        </g>
        <g id="g981">
            <g id="text963">
                <path id="path1059" d="M29.776,159.169l0,-4.434l-0.906,0l0,-1.091c0.628,0 1.012,-0.211 1.152,-0.633l1.091,0l0,6.158l-1.337,0Z" style="fill:#eee;fill-rule:nonzero;"/>
                <path id="path1061" d="M35.195,159.275c-0.352,0 -0.666,-0.062 -0.941,-0.185c-0.27,-0.129 -0.49,-0.296 -0.66,-0.501c-0.17,-0.205 -0.311,-0.449 -0.422,-0.73c-0.106,-0.282 -0.182,-0.566 -0.229,-0.853c-0.041,-0.287 -0.062,-0.592 -0.062,-0.915c0,-0.422 0.038,-0.812 0.114,-1.17c0.076,-0.358 0.199,-0.692 0.369,-1.003c0.17,-0.317 0.411,-0.563 0.721,-0.739c0.311,-0.182 0.68,-0.273 1.108,-0.273c0.434,0 0.806,0.091 1.117,0.273c0.311,0.182 0.548,0.431 0.713,0.748c0.17,0.311 0.29,0.645 0.361,1.003c0.076,0.358 0.114,0.745 0.114,1.161c0,0.416 -0.038,0.806 -0.114,1.17c-0.076,0.358 -0.199,0.692 -0.369,1.003c-0.164,0.311 -0.402,0.557 -0.713,0.739c-0.311,0.182 -0.68,0.273 -1.108,0.273l0,-0Zm0,-1.267c0.346,0 0.595,-0.179 0.748,-0.537c0.158,-0.364 0.238,-0.824 0.238,-1.381c0,-0.352 -0.029,-0.663 -0.088,-0.933c-0.053,-0.276 -0.158,-0.507 -0.317,-0.695c-0.152,-0.194 -0.346,-0.29 -0.581,-0.29c-0.346,0 -0.598,0.182 -0.757,0.545c-0.158,0.358 -0.238,0.815 -0.238,1.372c0,0.346 0.029,0.657 0.088,0.933c0.059,0.27 0.164,0.501 0.317,0.695c0.152,0.194 0.349,0.29 0.589,0.29l0,-0Z" style="fill:#eee;fill-rule:nonzero;"/>
            </g>
            <g id="g975">
                <g id="text967">
                    <path id="path1064" d="M8.448,159.794l3.457,-7.407l1.328,0l-3.457,7.407l-1.328,0Z" style="fill:#eee;fill-rule:nonzero;"/>
                </g>
                <g id="text973">
                    <path id="path1067" d="M14.43,159.169l0,-4.434l-0.906,0l0,-1.091c0.628,0 1.012,-0.211 1.152,-0.633l1.091,0l0,6.158l-1.337,0Z" style="fill:#eee;fill-rule:nonzero;"/>
                </g>
            </g>
            <g id="text979">
                <path id="path1070" d="M22.422,159.222c-0.762,0 -1.405,-0.202 -1.927,-0.607l0.695,-1.047c0.411,0.258 0.821,0.387 1.232,0.387c0.323,0 0.578,-0.079 0.765,-0.238c0.188,-0.158 0.281,-0.387 0.281,-0.686c0,-0.235 -0.062,-0.422 -0.185,-0.563c-0.123,-0.147 -0.302,-0.22 -0.537,-0.22c-0.352,0 -0.657,0.147 -0.915,0.44l-1.161,-0.607l0.132,-3.123l3.607,0l0,1.284l-2.375,0l-0.035,0.871c0.282,-0.088 0.534,-0.132 0.757,-0.132c0.651,0 1.152,0.194 1.504,0.581c0.358,0.387 0.537,0.883 0.537,1.487c0,0.663 -0.223,1.191 -0.669,1.584c-0.446,0.393 -1.015,0.589 -1.707,0.589l0,0Z" style="fill:#eee;fill-rule:nonzero;"/>
            </g>
        </g>
        <rect id="rect4306" x="-0" y="0" width="15" height="15" style="fill:#fe9500;"/>
        <g id="text4312">
            <rect id="path4317" x="2.5" y="2" width="2.116" height="10.715" style="fill-rule:nonzero;"/>
            <path id="path4319" d="M5.977,5.616l2.103,0l0,4.46c0,0.661 0.313,0.991 0.938,0.991c0.527,0 0.942,-0.223 1.246,-0.67l0,-4.782l2.116,0l0,5.09l0.121,2.009l-1.888,0l-0.161,-0.897c-0.518,0.714 -1.277,1.071 -2.277,1.071c-0.759,0 -1.317,-0.232 -1.674,-0.696c-0.348,-0.464 -0.522,-1.054 -0.522,-1.768l0,-4.808Z" style="fill-rule:nonzero;"/>
        </g>
    </g>
</svg>
