<?xml version="1.0" encoding="UTF-8" standalone="no"?>
<!DOCTYPE svg PUBLIC "-//W3C//DTD SVG 1.1//EN" "http://www.w3.org/Graphics/SVG/1.1/DTD/svg11.dtd">
<svg width="45px" height="380px" version="1.1" xmlns="http://www.w3.org/2000/svg" xmlns:xlink="http://www.w3.org/1999/xlink" xml:space="preserve" xmlns:serif="http://www.serif.com/" style="fill-rule:evenodd;clip-rule:evenodd;">
    <g id="background">
        <rect id="rect817" x="-0" y="0" width="75" height="380" style="fill:#101010;"/>
        <g id="text4279">
            <path id="path4286" d="M15.702,358.193c-1.156,0 -2.069,-0.39 -2.741,-1.169l0,4.938l-3.185,0l0,-11.69l-0.181,-3.023l2.842,0l0.222,1.31c0.699,-1.048 1.713,-1.572 3.044,-1.572c2.647,0 3.971,1.747 3.971,5.241l0,0.726c0,3.494 -1.324,5.241 -3.971,5.241Zm-0.927,-8.465c-0.752,0 -1.357,0.336 -1.814,1.008l0,3.709c0.457,0.672 1.062,1.008 1.814,1.008c1.142,0 1.713,-0.833 1.713,-2.499l0,-0.726c0,-1.666 -0.571,-2.499 -1.713,-2.499Z" style="fill:#eee;fill-rule:nonzero;"/>
            <rect id="path4288" x="21.37" y="341.807" width="3.185" height="16.125" style="fill:#eee;fill-rule:nonzero;"/>
            <path id="path4290" d="M30.957,355.775c0.954,0 1.431,-0.349 1.431,-1.048c0,-0.336 -0.114,-0.585 -0.343,-0.746c-0.228,-0.161 -0.645,-0.269 -1.25,-0.323c-1.545,-0.121 -2.654,-0.403 -3.326,-0.847c-0.672,-0.457 -1.008,-1.176 -1.008,-2.157l0,-0.181c0,-1.169 0.41,-2.042 1.23,-2.62c0.82,-0.578 1.908,-0.867 3.265,-0.867c2.997,0 4.495,1.223 4.495,3.668l0,0.101l-3.124,0c0,-0.9 -0.457,-1.35 -1.371,-1.35c-0.43,0 -0.766,0.087 -1.008,0.262c-0.228,0.175 -0.343,0.41 -0.343,0.705c0,0.336 0.107,0.578 0.322,0.726c0.215,0.148 0.618,0.249 1.209,0.302c1.505,0.121 2.62,0.396 3.346,0.826c0.739,0.417 1.109,1.149 1.109,2.197l0,0.181c0,1.129 -0.396,2.009 -1.189,2.64c-0.779,0.632 -1.928,0.947 -3.447,0.947c-1.518,0 -2.667,-0.322 -3.447,-0.967c-0.779,-0.645 -1.169,-1.505 -1.169,-2.58l0,-0.101l3.164,0c0,0.82 0.484,1.23 1.451,1.23l0,0Z" style="fill:#eee;fill-rule:nonzero;"/>
        </g>
    </g>
    <g id="labels">
        <g id="text4267">
            <path id="path4274" d="M13.189,170.661l0,4.221l-1.158,0l0,-4.221l-1.531,0l0,-1.112l4.221,0l0,1.112l-1.531,0Z" style="fill:#eee;fill-rule:nonzero;"/>
            <path id="path4276" d="M15.515,174.882l0,-5.333l2.598,0c0.64,0 1.102,0.16 1.387,0.48c0.289,0.32 0.434,0.734 0.434,1.242c0,0.315 -0.086,0.622 -0.259,0.922c-0.173,0.3 -0.409,0.51 -0.709,0.632l0.998,2.057l-1.295,0l-0.968,-1.882l-1.028,0l0,1.882l-1.158,0Zm1.158,-2.979l1.455,0c0.401,0 0.602,-0.211 0.602,-0.632c0,-0.178 -0.048,-0.325 -0.145,-0.442c-0.091,-0.122 -0.244,-0.183 -0.457,-0.183l-1.455,0l0,1.257l-0,0Z" style="fill:#eee;fill-rule:nonzero;"/>
            <path id="path4278" d="M22.916,174.973c-0.396,0 -0.749,-0.076 -1.059,-0.229c-0.31,-0.157 -0.556,-0.368 -0.739,-0.632c-0.183,-0.264 -0.323,-0.556 -0.419,-0.876c-0.091,-0.32 -0.137,-0.66 -0.137,-1.021c0,-0.335 0.048,-0.66 0.145,-0.975c0.096,-0.32 0.236,-0.615 0.419,-0.884c0.188,-0.269 0.437,-0.485 0.747,-0.648c0.31,-0.168 0.658,-0.251 1.044,-0.251c0.472,0 0.858,0.109 1.158,0.328c0.305,0.218 0.574,0.515 0.808,0.891l-1.013,0.571c-0.284,-0.452 -0.602,-0.678 -0.952,-0.678c-0.274,0 -0.503,0.091 -0.686,0.274c-0.183,0.178 -0.307,0.383 -0.373,0.617c-0.061,0.234 -0.091,0.485 -0.091,0.754c0,0.462 0.094,0.853 0.282,1.173c0.193,0.315 0.483,0.472 0.869,0.472c0.218,0 0.409,-0.071 0.571,-0.213c0.163,-0.142 0.244,-0.307 0.244,-0.495l0,-0.038l-0.869,0l0,-1.105l2.057,0l0,0.838c0,0.665 -0.188,1.186 -0.564,1.562c-0.371,0.376 -0.851,0.564 -1.44,0.564l0,0Z" style="fill:#eee;fill-rule:nonzero;"/>
            <rect id="path4280" x="27.799" y="169.549" width="1.158" height="5.333" style="fill:#eee;fill-rule:nonzero;"/>
            <path id="path4282" d="M34.5,174.882l-1.013,0l-2.011,-2.826c-0.051,-0.066 -0.127,-0.201 -0.229,-0.404c0.015,0.086 0.023,0.221 0.023,0.404l0,2.826l-1.143,0l0,-5.333l1.059,0l1.958,2.796c0.097,0.137 0.17,0.269 0.221,0.396c-0.015,-0.107 -0.023,-0.241 -0.023,-0.404l0,-2.788l1.158,0l0,5.333l0,0Z" style="fill:#eee;fill-rule:nonzero;"/>
        </g>
        <g id="g4692">
            <path id="rect934" d="M37.5,260.794l0,41.413c0,0.438 -0.356,0.794 -0.794,0.794l-28.412,0c-0.438,0 -0.794,-0.356 -0.794,-0.794l0,-41.413c0,-0.438 0.356,-0.794 0.794,-0.794l28.412,0c0.438,0 0.794,0.356 0.794,0.794Z" style="fill:#999999;"/>
        </g>
        <g id="g5013">
            <path id="path5015" d="M25,69l0,-4.785l1.039,0l0,3.78l2.297,0l0,1.005l-3.335,0Z" style="fill:#eee;fill-rule:nonzero;"/>
            <path id="path5017" d="M30.746,69.082c-0.301,0 -0.574,-0.048 -0.82,-0.144c-0.242,-0.096 -0.442,-0.223 -0.601,-0.383c-0.159,-0.164 -0.294,-0.353 -0.403,-0.567c-0.105,-0.214 -0.182,-0.435 -0.232,-0.663c-0.046,-0.232 -0.068,-0.472 -0.068,-0.718c0,-0.246 0.023,-0.483 0.068,-0.711c0.05,-0.232 0.128,-0.456 0.232,-0.67c0.109,-0.214 0.244,-0.401 0.403,-0.56c0.159,-0.164 0.36,-0.294 0.601,-0.39c0.246,-0.096 0.519,-0.144 0.82,-0.144c0.369,0 0.695,0.073 0.977,0.219c0.283,0.141 0.504,0.335 0.663,0.581c0.159,0.242 0.278,0.504 0.355,0.786c0.082,0.283 0.123,0.579 0.123,0.889c0,0.31 -0.041,0.606 -0.123,0.889c-0.077,0.283 -0.196,0.547 -0.355,0.793c-0.159,0.242 -0.38,0.435 -0.663,0.581c-0.283,0.141 -0.608,0.212 -0.977,0.212Zm0,-1.005c0.237,0 0.437,-0.08 0.601,-0.239c0.164,-0.164 0.278,-0.351 0.342,-0.56c0.064,-0.214 0.096,-0.437 0.096,-0.67c0,-0.246 -0.03,-0.474 -0.089,-0.684c-0.059,-0.214 -0.171,-0.399 -0.335,-0.554c-0.164,-0.159 -0.369,-0.239 -0.615,-0.239c-0.246,0 -0.453,0.082 -0.622,0.246c-0.164,0.159 -0.276,0.346 -0.335,0.56c-0.059,0.21 -0.089,0.433 -0.089,0.67c0,0.178 0.018,0.349 0.055,0.513c0.036,0.164 0.093,0.321 0.171,0.472c0.077,0.146 0.187,0.264 0.328,0.355c0.141,0.087 0.305,0.13 0.492,0.13l-0,-0Z" style="fill:#eee;fill-rule:nonzero;"/>
            <path id="path5019" d="M35.658,69.082c-0.355,0 -0.672,-0.068 -0.95,-0.205c-0.278,-0.141 -0.499,-0.33 -0.663,-0.567c-0.164,-0.237 -0.289,-0.499 -0.376,-0.786c-0.082,-0.287 -0.123,-0.592 -0.123,-0.916c0,-0.301 0.043,-0.592 0.13,-0.875c0.087,-0.287 0.212,-0.551 0.376,-0.793c0.169,-0.242 0.392,-0.435 0.67,-0.581c0.278,-0.15 0.59,-0.226 0.936,-0.226c0.424,0 0.77,0.098 1.039,0.294c0.273,0.196 0.515,0.462 0.725,0.8l-0.909,0.513c-0.255,-0.406 -0.54,-0.608 -0.854,-0.608c-0.246,0 -0.451,0.082 -0.615,0.246c-0.164,0.159 -0.276,0.344 -0.335,0.554c-0.055,0.21 -0.082,0.435 -0.082,0.677c0,0.415 0.084,0.766 0.253,1.053c0.173,0.283 0.433,0.424 0.779,0.424c0.196,0 0.367,-0.064 0.513,-0.191c0.146,-0.128 0.219,-0.276 0.219,-0.444l0,-0.034l-0.779,0l0,-0.991l1.845,0l0,0.752c0,0.597 -0.169,1.064 -0.506,1.401c-0.333,0.337 -0.763,0.506 -1.292,0.506l0,-0Z" style="fill:#eee;fill-rule:nonzero;"/>
            <path id="path5021" d="M26.141,77.544l0,-4.785l1.039,0l0,3.78l2.297,0l0,1.005l-3.335,0Z" style="fill:#eee;fill-rule:nonzero;"/>
            <rect id="path5023" x="30.074" y="72.759" width="1.039" height="4.785" style="fill:#eee;fill-rule:nonzero;"/>
            <path id="path5025" d="M36.085,77.544l-0.909,0l-1.804,-2.536c-0.046,-0.059 -0.114,-0.18 -0.205,-0.362c0.014,0.077 0.02,0.198 0.02,0.362l0,2.536l-1.025,0l0,-4.785l0.95,0l1.757,2.508c0.087,0.123 0.153,0.241 0.198,0.355c-0.014,-0.096 -0.02,-0.216 -0.02,-0.362l0,-2.502l1.039,0l0,4.785Z" style="fill:#eee;fill-rule:nonzero;"/>
        </g>
        <g id="g4321">
            <path id="path4323" d="M25,69l0,-4.785l1.039,0l0,3.78l2.297,0l0,1.005l-3.335,0Z" style="fill:#eee;fill-rule:nonzero;"/>
            <path id="path4325" d="M30.746,69.082c-0.301,0 -0.574,-0.048 -0.82,-0.144c-0.242,-0.096 -0.442,-0.223 -0.601,-0.383c-0.159,-0.164 -0.294,-0.353 -0.403,-0.567c-0.105,-0.214 -0.182,-0.435 -0.232,-0.663c-0.046,-0.232 -0.068,-0.472 -0.068,-0.718c0,-0.246 0.023,-0.483 0.068,-0.711c0.05,-0.232 0.128,-0.456 0.232,-0.67c0.109,-0.214 0.244,-0.401 0.403,-0.56c0.159,-0.164 0.36,-0.294 0.601,-0.39c0.246,-0.096 0.519,-0.144 0.82,-0.144c0.369,0 0.695,0.073 0.977,0.219c0.283,0.141 0.504,0.335 0.663,0.581c0.159,0.242 0.278,0.504 0.355,0.786c0.082,0.283 0.123,0.579 0.123,0.889c0,0.31 -0.041,0.606 -0.123,0.889c-0.077,0.283 -0.196,0.547 -0.355,0.793c-0.159,0.242 -0.38,0.435 -0.663,0.581c-0.283,0.141 -0.608,0.212 -0.977,0.212Zm0,-1.005c0.237,0 0.437,-0.08 0.601,-0.239c0.164,-0.164 0.278,-0.351 0.342,-0.56c0.064,-0.214 0.096,-0.437 0.096,-0.67c0,-0.246 -0.03,-0.474 -0.089,-0.684c-0.059,-0.214 -0.171,-0.399 -0.335,-0.554c-0.164,-0.159 -0.369,-0.239 -0.615,-0.239c-0.246,0 -0.453,0.082 -0.622,0.246c-0.164,0.159 -0.276,0.346 -0.335,0.56c-0.059,0.21 -0.089,0.433 -0.089,0.67c0,0.178 0.018,0.349 0.055,0.513c0.036,0.164 0.093,0.321 0.171,0.472c0.077,0.146 0.187,0.264 0.328,0.355c0.141,0.087 0.305,0.13 0.492,0.13l-0,-0Z" style="fill:#eee;fill-rule:nonzero;"/>
            <path id="path4327" d="M35.658,69.082c-0.355,0 -0.672,-0.068 -0.95,-0.205c-0.278,-0.141 -0.499,-0.33 -0.663,-0.567c-0.164,-0.237 -0.289,-0.499 -0.376,-0.786c-0.082,-0.287 -0.123,-0.592 -0.123,-0.916c0,-0.301 0.043,-0.592 0.13,-0.875c0.087,-0.287 0.212,-0.551 0.376,-0.793c0.169,-0.242 0.392,-0.435 0.67,-0.581c0.278,-0.15 0.59,-0.226 0.936,-0.226c0.424,0 0.77,0.098 1.039,0.294c0.273,0.196 0.515,0.462 0.725,0.8l-0.909,0.513c-0.255,-0.406 -0.54,-0.608 -0.854,-0.608c-0.246,0 -0.451,0.082 -0.615,0.246c-0.164,0.159 -0.276,0.344 -0.335,0.554c-0.055,0.21 -0.082,0.435 -0.082,0.677c0,0.415 0.084,0.766 0.253,1.053c0.173,0.283 0.433,0.424 0.779,0.424c0.196,0 0.367,-0.064 0.513,-0.191c0.146,-0.128 0.219,-0.276 0.219,-0.444l0,-0.034l-0.779,0l0,-0.991l1.845,0l0,0.752c0,0.597 -0.169,1.064 -0.506,1.401c-0.333,0.337 -0.763,0.506 -1.292,0.506l0,-0Z" style="fill:#eee;fill-rule:nonzero;"/>
            <path id="path4329" d="M26.141,77.544l0,-4.785l1.039,0l0,3.78l2.297,0l0,1.005l-3.335,0Z" style="fill:#eee;fill-rule:nonzero;"/>
            <rect id="path4331" x="30.074" y="72.759" width="1.039" height="4.785" style="fill:#eee;fill-rule:nonzero;"/>
            <path id="path4333" d="M36.085,77.544l-0.909,0l-1.804,-2.536c-0.046,-0.059 -0.114,-0.18 -0.205,-0.362c0.014,0.077 0.02,0.198 0.02,0.362l0,2.536l-1.025,0l0,-4.785l0.95,0l1.757,2.508c0.087,0.123 0.153,0.241 0.198,0.355c-0.014,-0.096 -0.02,-0.216 -0.02,-0.362l0,-2.502l1.039,0l0,4.785Z" style="fill:#eee;fill-rule:nonzero;"/>
        </g>
        <g id="g4349">
            <path id="path4351" d="M25,69l0,-4.785l1.039,0l0,3.78l2.297,0l0,1.005l-3.335,0Z" style="fill:#eee;fill-rule:nonzero;"/>
            <path id="path4353" d="M30.746,69.082c-0.301,0 -0.574,-0.048 -0.82,-0.144c-0.242,-0.096 -0.442,-0.223 -0.601,-0.383c-0.159,-0.164 -0.294,-0.353 -0.403,-0.567c-0.105,-0.214 -0.182,-0.435 -0.232,-0.663c-0.046,-0.232 -0.068,-0.472 -0.068,-0.718c0,-0.246 0.023,-0.483 0.068,-0.711c0.05,-0.232 0.128,-0.456 0.232,-0.67c0.109,-0.214 0.244,-0.401 0.403,-0.56c0.159,-0.164 0.36,-0.294 0.601,-0.39c0.246,-0.096 0.519,-0.144 0.82,-0.144c0.369,0 0.695,0.073 0.977,0.219c0.283,0.141 0.504,0.335 0.663,0.581c0.159,0.242 0.278,0.504 0.355,0.786c0.082,0.283 0.123,0.579 0.123,0.889c0,0.31 -0.041,0.606 -0.123,0.889c-0.077,0.283 -0.196,0.547 -0.355,0.793c-0.159,0.242 -0.38,0.435 -0.663,0.581c-0.283,0.141 -0.608,0.212 -0.977,0.212Zm0,-1.005c0.237,0 0.437,-0.08 0.601,-0.239c0.164,-0.164 0.278,-0.351 0.342,-0.56c0.064,-0.214 0.096,-0.437 0.096,-0.67c0,-0.246 -0.03,-0.474 -0.089,-0.684c-0.059,-0.214 -0.171,-0.399 -0.335,-0.554c-0.164,-0.159 -0.369,-0.239 -0.615,-0.239c-0.246,0 -0.453,0.082 -0.622,0.246c-0.164,0.159 -0.276,0.346 -0.335,0.56c-0.059,0.21 -0.089,0.433 -0.089,0.67c0,0.178 0.018,0.349 0.055,0.513c0.036,0.164 0.093,0.321 0.171,0.472c0.077,0.146 0.187,0.264 0.328,0.355c0.141,0.087 0.305,0.13 0.492,0.13l-0,-0Z" style="fill:#eee;fill-rule:nonzero;"/>
            <path id="path4355" d="M35.658,69.082c-0.355,0 -0.672,-0.068 -0.95,-0.205c-0.278,-0.141 -0.499,-0.33 -0.663,-0.567c-0.164,-0.237 -0.289,-0.499 -0.376,-0.786c-0.082,-0.287 -0.123,-0.592 -0.123,-0.916c0,-0.301 0.043,-0.592 0.13,-0.875c0.087,-0.287 0.212,-0.551 0.376,-0.793c0.169,-0.242 0.392,-0.435 0.67,-0.581c0.278,-0.15 0.59,-0.226 0.936,-0.226c0.424,0 0.77,0.098 1.039,0.294c0.273,0.196 0.515,0.462 0.725,0.8l-0.909,0.513c-0.255,-0.406 -0.54,-0.608 -0.854,-0.608c-0.246,0 -0.451,0.082 -0.615,0.246c-0.164,0.159 -0.276,0.344 -0.335,0.554c-0.055,0.21 -0.082,0.435 -0.082,0.677c0,0.415 0.084,0.766 0.253,1.053c0.173,0.283 0.433,0.424 0.779,0.424c0.196,0 0.367,-0.064 0.513,-0.191c0.146,-0.128 0.219,-0.276 0.219,-0.444l0,-0.034l-0.779,0l0,-0.991l1.845,0l0,0.752c0,0.597 -0.169,1.064 -0.506,1.401c-0.333,0.337 -0.763,0.506 -1.292,0.506l0,-0Z" style="fill:#eee;fill-rule:nonzero;"/>
            <path id="path4357" d="M26.141,77.544l0,-4.785l1.039,0l0,3.78l2.297,0l0,1.005l-3.335,0Z" style="fill:#eee;fill-rule:nonzero;"/>
            <rect id="path4359" x="30.074" y="72.759" width="1.039" height="4.785" style="fill:#eee;fill-rule:nonzero;"/>
            <path id="path4361" d="M36.085,77.544l-0.909,0l-1.804,-2.536c-0.046,-0.059 -0.114,-0.18 -0.205,-0.362c0.014,0.077 0.02,0.198 0.02,0.362l0,2.536l-1.025,0l0,-4.785l0.95,0l1.757,2.508c0.087,0.123 0.153,0.241 0.198,0.355c-0.014,-0.096 -0.02,-0.216 -0.02,-0.362l0,-2.502l1.039,0l0,4.785Z" style="fill:#eee;fill-rule:nonzero;"/>
        </g>
        <g id="text4403">
            <path id="path4410" d="M19.127,134.707c-0.564,0 -1.06,-0.111 -1.488,-0.332c-0.421,-0.228 -0.749,-0.532 -0.985,-0.91c-0.236,-0.378 -0.41,-0.785 -0.525,-1.22c-0.107,-0.435 -0.161,-0.899 -0.161,-1.392c0,-0.45 0.057,-0.888 0.171,-1.317c0.114,-0.435 0.289,-0.846 0.525,-1.231c0.236,-0.393 0.564,-0.707 0.985,-0.942c0.428,-0.243 0.921,-0.364 1.477,-0.364c0.678,0 1.256,0.175 1.734,0.525c0.478,0.35 0.817,0.774 1.017,1.274l-1.456,0.653c-0.207,-0.307 -0.407,-0.532 -0.599,-0.674c-0.186,-0.143 -0.417,-0.214 -0.696,-0.214c-0.264,0 -0.496,0.071 -0.696,0.214c-0.2,0.136 -0.353,0.321 -0.46,0.557c-0.107,0.228 -0.186,0.471 -0.236,0.728c-0.05,0.25 -0.075,0.514 -0.075,0.792c0,0.378 0.046,0.735 0.139,1.07c0.1,0.335 0.264,0.624 0.492,0.867c0.236,0.236 0.514,0.353 0.835,0.353c0.464,0 0.888,-0.321 1.274,-0.963l1.488,0.557c-0.607,1.313 -1.527,1.97 -2.762,1.97l0,-0Z" style="fill:#eee;fill-rule:nonzero;"/>
            <path id="path4412" d="M24.859,134.6l-2.698,-7.493l1.766,0l1.616,4.721c0.021,0.05 0.043,0.118 0.064,0.203l0.032,0.118c0.014,-0.064 0.046,-0.171 0.096,-0.321l1.616,-4.721l1.745,0l-2.687,7.493l-1.552,0l0,-0Z" style="fill:#eee;fill-rule:nonzero;"/>
        </g>
        <g id="text4420">
            <path id="path4427" d="M12.274,90.87c-0.361,0 -0.679,-0.071 -0.953,-0.213c-0.27,-0.146 -0.48,-0.341 -0.631,-0.583c-0.151,-0.242 -0.263,-0.503 -0.336,-0.782c-0.069,-0.279 -0.103,-0.576 -0.103,-0.892c0,-0.288 0.037,-0.569 0.11,-0.844c0.073,-0.279 0.185,-0.542 0.336,-0.789c0.151,-0.251 0.361,-0.453 0.631,-0.604c0.274,-0.155 0.59,-0.233 0.947,-0.233c0.434,0 0.805,0.112 1.111,0.336c0.306,0.224 0.524,0.496 0.652,0.816l-0.933,0.418c-0.133,-0.197 -0.261,-0.341 -0.384,-0.432c-0.119,-0.091 -0.268,-0.137 -0.446,-0.137c-0.169,0 -0.318,0.046 -0.446,0.137c-0.128,0.087 -0.226,0.206 -0.295,0.357c-0.069,0.146 -0.119,0.302 -0.151,0.466c-0.032,0.16 -0.048,0.329 -0.048,0.508c0,0.242 0.03,0.471 0.089,0.686c0.064,0.215 0.169,0.4 0.316,0.556c0.151,0.151 0.329,0.226 0.535,0.226c0.297,0 0.569,-0.206 0.816,-0.617l0.953,0.357c-0.389,0.841 -0.979,1.262 -1.77,1.262Z" style="fill:#eee;fill-rule:nonzero;"/>
            <path id="path4429" d="M15.948,90.801l-1.728,-4.801l1.132,0l1.036,3.025c0.014,0.032 0.027,0.075 0.041,0.13l0.021,0.075c0.009,-0.041 0.03,-0.11 0.062,-0.206l1.036,-3.025l1.118,0l-1.722,4.801l-0.995,0l0,0Z" style="fill:#eee;fill-rule:nonzero;"/>
            <path id="path4431" d="M23.849,90.801l-0.357,-0.933l-1.804,0l-0.357,0.933l-1.139,0l1.893,-4.801l1.001,0l1.9,4.801l-1.139,0Zm-0.706,-1.893l-0.412,-1.036c-0.064,-0.155 -0.112,-0.29 -0.144,-0.405c-0.018,0.078 -0.066,0.213 -0.144,0.405l-0.412,1.036l1.111,0Z" style="fill:#eee;fill-rule:nonzero;"/>
            <path id="path4433" d="M30.128,90.801l-1.043,0l0,-2.38c0,-0.046 0.002,-0.096 0.007,-0.151c-0.023,0.055 -0.043,0.101 -0.062,0.137l-1.166,2.476l-1.18,-2.462c-0.014,-0.032 -0.032,-0.082 -0.055,-0.151l0,2.531l-1.043,0l0,-4.801l1.063,0l1.118,2.449c0.032,0.073 0.071,0.174 0.117,0.302c0.046,-0.128 0.085,-0.229 0.117,-0.302l1.152,-2.449l0.974,0l-0,4.801Z" style="fill:#eee;fill-rule:nonzero;"/>
            <path id="path4435" d="M33.273,87.001l0,3.8l-1.043,0l0,-3.8l-1.379,0l0,-1.001l3.8,0l0,1.001l-1.379,0Z" style="fill:#eee;fill-rule:nonzero;"/>
        </g>
        <g id="g1056">
        </g>
        <g id="g4379">
            <path id="path4381" d="M13.5,96.082l4,0" style="fill:none;stroke:#eee;stroke-width:1px;"/>
        </g>
        <g id="g4375">
            <path id="path4367" d="M27.5,96.082l4,0" style="fill:none;stroke:#eee;stroke-width:1px;"/>
            <path id="path4373" d="M29.5,94.082l0,4" style="fill:none;stroke:#eee;stroke-width:1px;"/>
        </g>
        <circle id="path1033" cx="22.5" cy="96" r="1" style="fill:#eee;"/>
        <g id="g1085">
            <path id="rect1075" d="M37.5,212.794l0,41.413c0,0.438 -0.356,0.794 -0.794,0.794l-28.412,0c-0.438,0 -0.794,-0.356 -0.794,-0.794l0,-41.413c0,-0.438 0.356,-0.794 0.794,-0.794l28.412,0c0.438,0 0.794,0.356 0.794,0.794Z" style="fill:#999999;"/>
            <g id="g1083">
                <path id="path1077" d="M14.666,225.174c-0.701,0 -1.326,-0.135 -1.874,-0.404c-0.548,-0.279 -0.984,-0.652 -1.308,-1.119c-0.324,-0.467 -0.571,-0.984 -0.742,-1.55c-0.162,-0.566 -0.243,-1.168 -0.243,-1.807c0,-0.593 0.085,-1.168 0.256,-1.726c0.171,-0.566 0.418,-1.088 0.742,-1.564c0.333,-0.476 0.773,-0.858 1.321,-1.146c0.548,-0.297 1.164,-0.445 1.847,-0.445c0.836,0 1.519,0.193 2.049,0.58c0.539,0.386 1.016,0.912 1.429,1.577l-1.793,1.011c-0.503,-0.8 -1.065,-1.2 -1.685,-1.2c-0.485,0 -0.89,0.162 -1.213,0.485c-0.324,0.315 -0.544,0.679 -0.661,1.092c-0.108,0.413 -0.162,0.858 -0.162,1.335c0,0.818 0.166,1.51 0.499,2.076c0.342,0.557 0.854,0.836 1.537,0.836c0.386,0 0.724,-0.126 1.011,-0.377c0.288,-0.252 0.431,-0.544 0.431,-0.876l0,-0.067l-1.537,0l0,-1.955l3.64,0l0,1.483c0,1.177 -0.333,2.099 -0.998,2.764c-0.656,0.665 -1.506,0.998 -2.548,0.998l0,0Z" style="fill:#101010;fill-rule:nonzero;"/>
                <path id="path1079" d="M25.563,225.012l-0.701,-1.834l-3.546,0l-0.701,1.834l-2.238,0l3.721,-9.438l1.968,0l3.735,9.438l-2.238,0Zm-1.389,-3.721l-0.809,-2.036c-0.126,-0.306 -0.22,-0.571 -0.283,-0.795c-0.036,0.153 -0.13,0.418 -0.283,0.795l-0.809,2.036l2.184,0Z" style="fill:#101010;fill-rule:nonzero;"/>
                <path id="path1081" d="M31.79,217.543l0,7.469l-2.049,0l0,-7.469l-2.71,0l0,-1.968l7.469,0l0,1.968l-2.71,0Z" style="fill:#101010;fill-rule:nonzero;"/>
            </g>
        </g>
        <g id="text1093">
            <path id="path1095" d="M12.496,273l0,-9.438l6.579,0l0,1.941l-4.53,0l0,1.658l2.845,0l0,1.941l-2.845,0l0,3.896l-2.049,0Z" style="fill:#101010;fill-rule:nonzero;"/>
            <rect id="path1097" x="20.384" y="263.562" width="2.049" height="9.438" style="fill:#101010;fill-rule:nonzero;"/>
            <path id="path1099" d="M32.243,273l-1.793,0l-3.559,-5.002c-0.09,-0.117 -0.225,-0.355 -0.404,-0.715c0.027,0.153 0.04,0.391 0.04,0.715l0,5.002l-2.022,0l0,-9.438l1.874,0l3.465,4.948c0.171,0.243 0.301,0.476 0.391,0.701c-0.027,-0.189 -0.04,-0.427 -0.04,-0.715l0,-4.935l2.049,0l0,9.438Z" style="fill:#101010;fill-rule:nonzero;"/>
        </g>
        <rect id="rect4306" x="-0" y="0" width="15" height="15" style="fill:#fe9500;"/>
        <g id="text4312">
            <rect id="path4317" x="2.5" y="2" width="2.116" height="10.715" style="fill-rule:nonzero;"/>
            <path id="path4319" d="M5.977,5.616l2.103,0l0,4.46c0,0.661 0.313,0.991 0.938,0.991c0.527,0 0.942,-0.223 1.246,-0.67l0,-4.782l2.116,0l0,5.09l0.121,2.009l-1.888,0l-0.161,-0.897c-0.518,0.714 -1.277,1.071 -2.277,1.071c-0.759,0 -1.317,-0.232 -1.674,-0.696c-0.348,-0.464 -0.522,-1.054 -0.522,-1.768l0,-4.808Z" style="fill-rule:nonzero;"/>
        </g>
    </g>
    <g id="text">
        <g id="text880">
            <text x="7.925px" y="357.931px" style="font-family:'Arial-BoldMT', 'Arial', sans-serif;font-weight:700;font-size:20.156px;fill:#eee;">pls</text>
        </g>
        <g id="text851">
            <text x="11.918px" y="273px" style="font-family:'OverpassRoman-Regular', 'Overpass';font-size:13.482px;fill:#101010;">FIN</text>
        </g>
        <g id="text4263">
            <text x="10.688px" y="174.859px" style="font-family:'OverpassRoman-Regular', 'Overpass';font-size:7.618px;fill:#eee;">TR<tspan x="20.093px " y="174.859px ">G</tspan> IN</text>
        </g>
        <g id="text5027">
            <text x="10.425px" y="91px" style="font-family:'OverpassRoman-Regular', 'Overpass';font-size:6.859px;fill:#eee;">CV<tspan x="18.992px 20.329px 24.85px " y="91px 91px 91px "> AM</tspan>T</text>
        </g>
        <g id="text1089">
            <text x="10.125px" y="225px" style="font-family:'OverpassRoman-Regular', 'Overpass';font-size:13.482px;fill:#101010;">G<tspan x="19.131px 26.735px " y="225px 225px ">AT</tspan></text>
        </g>
        <g id="text4332">
            <text x="1.489px" y="12.715px" style="font-family:'Arial-BoldMT', 'Arial', sans-serif;font-weight:700;font-size:13.394px;">lu</text>
        </g>
    </g>
</svg>
