<svg width="150px" height="380px" version="1.1" xmlns="http://www.w3.org/2000/svg" xmlns:xlink="http://www.w3.org/1999/xlink" xml:space="preserve" xmlns:serif="http://www.serif.com/" style="fill-rule:evenodd;clip-rule:evenodd;stroke-linejoin:round;stroke-miterlimit:1.4142;">
  <defs>
    <linearGradient id="_Linear1" x1="0" y1="0" x2="1" y2="0" gradientUnits="userSpaceOnUse" gradientTransform="matrix(0.007008,-37.8989,37.8989,0.007008,75.2834,112.195)">
      <stop offset="0" style="stop-color:#101010;stop-opacity:1"/>
      <stop offset="1" style="stop-color:#101010;stop-opacity:1"/>
    </linearGradient>
    <linearGradient id="_Linear2" x1="0" y1="0" x2="1" y2="0" gradientUnits="userSpaceOnUse" gradientTransform="matrix(-4.88,-92.58,92.58,-4.88,277.54,345.91)">
      <stop offset="0" style="stop-color:#101010;stop-opacity:1"/>
      <stop offset="1" style="stop-color:#101010;stop-opacity:1"/>
    </linearGradient>
    <linearGradient id="_Linear3" x1="0" y1="0" x2="1" y2="0" gradientUnits="userSpaceOnUse" gradientTransform="matrix(-4.75,94.86,-94.86,-4.75,277.54,158.47)">
      <stop offset="0" style="stop-color:#101010;stop-opacity:1"/>
      <stop offset="1" style="stop-color:#101010;stop-opacity:1"/>
    </linearGradient>
    <linearGradient id="_Linear4" x1="0" y1="0" x2="1" y2="0" gradientUnits="userSpaceOnUse" gradientTransform="matrix(1.15392e-16,-1.8845,1.8845,1.15392e-16,56.519,1.9362)">
      <stop offset="0" style="stop-color:#101010;stop-opacity:1"/>
      <stop offset="1" style="stop-color:#101010;stop-opacity:1"/>
    </linearGradient>
  </defs>
  <g id="Panel">
    <g>
      <rect x="0" y="0" width="150" height="380" style="fill:url(#_Linear1);"/>
      <rect x="0" y="253.33" width="150" height="126.67" style="fill:url(#_Linear2);"/>
      <rect x="0" y="126.67" width="150" height="126.67" style="fill:url(#_Linear3);"/>
      <rect x="0" y="0" width="150" height="380" style="fill:#103550;fill-opacity:0.1;"/>
      <rect x="0" y="0" width="150" height="2" style="fill:url(#_Linear4);"/>
    </g>
    <path d="M13.812,263.05c-5.359,0 -9.723,4.362 -9.723,9.721l0,71.504c0,5.36 4.364,9.722 9.723,9.722l122.38,0c5.36,0 9.723,-4.363 9.723,-9.722l0,-71.504c0,-5.359 -4.363,-9.721 -9.723,-9.721l-122.38,0Z" style="fill:none;stroke:#f8f8f8;stroke-width:1.2px;"/>
    <g>
      <path d="M67.4,363.597l3.443,10.383c0.322,0.968 0.909,1.451 1.756,1.451c0.835,0 1.414,-0.476 1.737,-1.435l3.46,-10.398l-2.66,0l-2.574,8.318l-2.49,-8.318l-2.672,-0.001Zm10.598,0l0,8.793c0,0.736 0.078,1.265 0.234,1.588c0.423,0.881 1.214,1.32 2.373,1.32l3.243,0c1.126,0 1.912,-0.429 2.357,-1.287c0.168,-0.324 0.25,-0.87 0.25,-1.639l0,-8.775l-2.506,0l0,8.658l-0.018,0.084c-0.056,0.29 -0.34,0.436 -0.853,0.436l-1.705,0c-0.535,0 -0.826,-0.157 -0.87,-0.469l0,-8.709l-2.505,0Zm9.611,0l0,8.842c0,0.914 0.19,1.598 0.569,2.049c0.378,0.452 1.019,0.717 1.922,0.795c0.123,0.011 0.268,0.015 0.435,0.015l4.664,0l0.016,-2.523l-4.463,0c-0.424,0 -0.634,-0.178 -0.634,-0.535l0,-8.643l-2.509,0Zm7.69,0l0,2.525l2.49,0l0,9.176l2.508,0l0,-9.176l2.523,0l0,-2.525l-7.521,0Z" style="fill:#666;fill-rule:nonzero;"/>
      <path d="M63.8,369.517c0,-4.509 -3.655,-8.165 -8.164,-8.165c-4.509,0 -8.165,3.656 -8.165,8.165c0,4.509 3.656,8.165 8.165,8.165c4.509,0 8.164,-3.656 8.164,-8.165Z" style="fill:#757575;fill-rule:nonzero;stroke:#353535;stroke-width:0.61px;stroke-linecap:round;stroke-miterlimit:10;"/>
      <g>
        <path d="M53.82,374.49l0.553,-0.89l-1.064,-2.393l-2.216,-2.284l0.46,3.101l0.597,1.28l0.833,1.263l0.837,-0.077Z" style="fill:#2b2b2b;fill-rule:nonzero;"/>
        <path d="M57.55,374.5l-0.553,-0.891l1.064,-2.393l2.216,-2.284l-0.46,3.101l-0.597,1.28l-0.833,1.264l-0.837,-0.077Z" style="fill:#101010;fill-rule:nonzero;"/>
        <path d="M53.14,363.46l2.584,-0.661l0,13.448l-1.349,-2.651l-1.061,-2.385l-1.022,-0.581l-2.052,-2.921l-0.057,-0.775l1.148,-2.067l1.809,-1.407Z" style="fill:#424242;fill-rule:nonzero;"/>
        <path d="M58.3,363.46l-2.584,-0.66l0,13.448l1.35,-2.651l1.06,-2.385l1.023,-0.581l2.051,-2.921l0.058,-0.775l-1.149,-2.068l-1.809,-1.407Z" style="fill:#333;fill-rule:nonzero;"/>
        <path d="M54,369.34l1.723,-1.685l0,1.23l-1.723,1.718l0,-1.263" style="fill:#4c4c4c;fill-rule:nonzero;"/>
        <path d="M55.72,368.88l-1.723,1.718l0.377,3.004l1.346,2.643l0,-7.365Z" style="fill:#5b5b5b;fill-rule:nonzero;"/>
        <path d="M55.72,376.25l-1.346,-2.643l1.346,-0.635l0,3.278Z" style="fill:#333;fill-rule:nonzero;"/>
        <path d="M54,370.6l0,-1.264l-1.249,-1.579l-1.477,-1.19l-0.001,0.932l0.775,1.823l1.952,1.278Z" style="fill:#f8f8f8;fill-rule:nonzero;"/>
        <path d="M57.44,369.34l-1.722,-1.684l0,1.23l1.722,1.718l0,-1.264" style="fill:#2d2d2d;fill-rule:nonzero;"/>
        <path d="M55.72,368.88l1.722,1.718l-0.376,3.004l-1.347,2.643l0.001,-7.365Z" style="fill:#353535;fill-rule:nonzero;"/>
        <path d="M55.72,376.25l1.347,-2.643l-1.346,-0.635l-0.001,3.278Z" style="fill:#101010;fill-rule:nonzero;"/>
        <path d="M57.44,370.6l0,-1.264l1.249,-1.579l1.478,-1.19l0.001,0.932l-0.775,1.823l-1.953,1.278Z" style="fill:#f8f8f8;fill-rule:nonzero;"/>
        <path d="M53.15,363.44l2.566,4.216l-0.005,-4.87" style="fill:#383838;fill-rule:nonzero;"/>
        <path d="M58.28,363.44l-2.566,4.215l0.006,-4.87" style="fill:#2d2d2d;fill-rule:nonzero;"/>
        <path d="M53.31,371.21l0.688,-0.61l0.375,3.006l-1.063,-2.396Z" style="fill:#333;fill-rule:nonzero;"/>
        <path d="M58.13,371.23l-0.688,-0.61l-0.375,3.006l1.063,-2.396Z" style="fill:#1c1c1c;fill-rule:nonzero;"/>
      </g>
    </g>
    <path d="M24.89,122.69c-0.331,0.006 -0.596,0.279 -0.589,0.611l0.002,1.408c-2.521,0.13 -5.007,1.043 -7.047,2.756c-4.419,3.708 -5.55,10.112 -2.668,15.105l0.3,0.52l10.035,-5.793l10.035,5.793l0.301,-0.52c2.882,-4.993 1.752,-11.398 -2.668,-15.105c-2.051,-1.722 -4.555,-2.636 -7.09,-2.758l-0.002,-1.41c0.004,-0.338 -0.271,-0.612 -0.609,-0.607l0,0Zm-0.586,3.219l0.02,10.35l-8.902,5.14c-2.21,-4.402 -1.21,-9.813 2.605,-13.014c1.819,-1.527 4.032,-2.348 6.277,-2.476Zm1.2,0c2.259,0.121 4.487,0.94 6.316,2.476l0.002,0c3.816,3.201 4.813,8.612 2.604,13.014l-8.903,-5.14l-0.019,-10.35Zm8.851,16.951c-0.331,0.007 -0.925,0.28 -0.919,0.611l0.01,1.582l-1.606,0.008c-0.831,-0.028 -0.824,1.235 0.006,1.199l1.606,-0.008l0.01,1.629c-0.026,0.831 1.236,0.822 1.199,-0.008l-0.008,-1.625l1.604,-0.008c0.8,-0.004 0.794,-1.205 -0.006,-1.201l-1.606,0.008l-0.008,-1.584c0.002,-0.338 -0.275,-0.611 -0.613,-0.604l0.331,0.001Zm-16.092,2.056l-4.414,0.02c-0.801,0.004 -0.795,1.205 0.006,1.201l4.414,-0.022c0.831,0.028 0.825,-1.235 -0.006,-1.199Z" style="fill:#f8f8f8;fill-rule:nonzero;"/>
    <path d="M109.953,60.142c-0.331,0.006 -0.595,0.278 -0.589,0.609l0,2.125c-5.337,0.14 -10.637,2.003 -14.955,5.627c-8.984,7.539 -11.281,20.566 -5.415,30.723c0.392,0.723 1.469,0.101 1.04,-0.599c-5.577,-9.655 -3.393,-22.037 5.146,-29.203c4.097,-3.438 9.123,-5.209 14.186,-5.348l0.041,23.023c-0.031,0.831 1.233,0.829 1.199,-0.002l-0.041,-23.025c5.091,0.122 10.149,1.895 14.268,5.352c8.544,7.166 10.723,19.548 5.151,29.203c-0.4,0.694 0.641,1.293 1.041,0.599c5.862,-10.157 3.567,-23.184 -5.42,-30.723c-4.342,-3.643 -9.676,-5.509 -15.041,-5.631l0,-2.123c0.004,-0.338 -0.272,-0.612 -0.61,-0.607l-0.001,0Zm19.013,40.668c-0.331,0.007 -0.594,0.28 -0.588,0.611l0.022,3.963l-4.005,0.018c-0.803,0.005 -0.793,1.21 0.01,1.201l4.003,-0.019l0.021,4.054c-0.026,0.831 1.237,0.823 1.2,-0.008l-0.021,-4.051l4.009,-0.019c0.831,0.024 0.821,-1.238 -0.01,-1.199l-4.007,0.017l-0.022,-3.964c0.002,-0.338 -0.274,-0.61 -0.612,-0.604l0,0Zm-33.319,4.289l-9.213,0.043c-0.83,-0.024 -0.82,1.238 0.01,1.199l9.213,-0.043c0.831,0.025 0.82,-1.237 -0.01,-1.199Z" style="fill:#f8f8f8;"/>
    <path d="M39.893,61.475c-5.706,0 -11.412,1.934 -16.027,5.805c-9.229,7.745 -11.587,21.128 -5.564,31.564c0.391,0.722 1.468,0.101 1.039,-0.6c-5.733,-9.934 -3.488,-22.672 5.297,-30.045c8.785,-7.369 21.725,-7.369 30.51,0c8.785,7.373 11.03,20.111 5.296,30.045c-0.429,0.701 0.648,1.322 1.039,0.6c6.023,-10.436 3.666,-23.819 -5.564,-31.564c-4.615,-3.871 -10.32,-5.805 -16.025,-5.805l-0.001,0Zm-18.883,41.52c-2.371,0 -4.307,1.936 -4.307,4.307c0,2.371 1.936,4.304 4.307,4.304c2.371,0 4.307,-1.933 4.307,-4.304c0,-2.371 -1.936,-4.307 -4.307,-4.307Zm37.766,0c-2.371,0 -4.305,1.934 -4.305,4.305c0,2.371 1.934,4.306 4.305,4.306c2.371,0 4.307,-1.935 4.307,-4.306c0,-2.371 -1.936,-4.305 -4.307,-4.305Zm-37.766,1.199c1.722,0 3.105,1.385 3.105,3.108c0,1.722 -1.383,3.105 -3.105,3.105c-1.723,0 -3.106,-1.383 -3.106,-3.105c0,-1.723 1.383,-3.108 3.106,-3.108Z" style="fill:#f8f8f8;fill-rule:nonzero;"/>
    <path d="M14.232,37.714l0,-5.112l1.323,0l0,0.964c0.403,-0.72 0.978,-1.08 1.722,-1.08c0.386,0 0.702,0.094 0.95,0.284c0.249,0.189 0.4,0.455 0.456,0.796c0.478,-0.72 1.056,-1.08 1.733,-1.08c0.933,0 1.4,0.516 1.4,1.546l0,3.682l-1.321,0l0,-3.231c0,-0.605 -0.202,-0.908 -0.606,-0.908c-0.413,0 -0.815,0.298 -1.206,0.894l0,3.245l-1.322,0l0,-3.231c0,-0.608 -0.203,-0.912 -0.61,-0.912c-0.406,0 -0.804,0.299 -1.196,0.898l0,3.245l-1.323,0Z" style="fill:#f8f8f8;fill-rule:nonzero;"/>
    <path d="M27.641,37.542c-0.655,0.192 -1.276,0.289 -1.863,0.289c-0.853,0 -1.526,-0.243 -2.02,-0.727c-0.493,-0.484 -0.74,-1.145 -0.74,-1.983c0,-0.792 0.226,-1.428 0.678,-1.911c0.451,-0.483 1.048,-0.724 1.789,-0.724c0.749,0 1.295,0.236 1.639,0.707c0.344,0.472 0.517,1.219 0.517,2.24l-3.17,0c0.093,0.975 0.628,1.462 1.606,1.462c0.461,0 0.983,-0.107 1.564,-0.321l0,0.968Zm-3.189,-2.887l1.833,0c0,-0.872 -0.28,-1.307 -0.841,-1.307c-0.572,0 -0.902,0.435 -0.992,1.307Z" style="fill:#f8f8f8;fill-rule:nonzero;"/>
    <path d="M32.836,37.602c-0.571,0.152 -1.1,0.229 -1.587,0.229c-0.816,0 -1.461,-0.241 -1.934,-0.719c-0.474,-0.48 -0.711,-1.133 -0.711,-1.958c0,-0.835 0.244,-1.489 0.732,-1.961c0.487,-0.471 1.16,-0.707 2.02,-0.707c0.416,0 0.896,0.067 1.439,0.2l0,0.996c-0.566,-0.183 -1.017,-0.274 -1.355,-0.274c-0.413,0 -0.745,0.158 -0.997,0.475c-0.251,0.316 -0.377,0.736 -0.377,1.262c0,0.536 0.136,0.966 0.408,1.289c0.271,0.323 0.633,0.484 1.086,0.484c0.413,0 0.839,-0.09 1.276,-0.27l0,0.954Z" style="fill:#f8f8f8;fill-rule:nonzero;"/>
    <path d="M34.139,37.714l0,-7.351l1.379,0l0,3.203c0.45,-0.72 1.03,-1.08 1.741,-1.08c0.456,0 0.816,0.144 1.081,0.433c0.263,0.289 0.394,0.683 0.394,1.183l0,3.612l-1.377,0l0,-3.272c0,-0.581 -0.193,-0.871 -0.577,-0.871c-0.438,0 -0.859,0.308 -1.262,0.927l0,3.216l-1.379,0Z" style="fill:#f8f8f8;fill-rule:nonzero;"/>
    <path d="M42.906,37.165c-0.46,0.443 -0.951,0.666 -1.476,0.666c-0.447,0 -0.81,-0.137 -1.089,-0.41c-0.28,-0.273 -0.419,-0.627 -0.419,-1.062c0,-0.564 0.226,-1 0.677,-1.305c0.452,-0.306 1.098,-0.459 1.94,-0.459l0.367,0l0,-0.466c0,-0.53 -0.303,-0.796 -0.907,-0.796c-0.538,0 -1.08,0.152 -1.63,0.456l0,-0.949c0.624,-0.236 1.241,-0.354 1.853,-0.354c1.337,0 2.006,0.533 2.006,1.597l0,2.262c0,0.4 0.129,0.601 0.387,0.601c0.046,0 0.107,-0.006 0.181,-0.018l0.033,0.772c-0.293,0.087 -0.55,0.131 -0.773,0.131c-0.565,0 -0.928,-0.223 -1.09,-0.666l-0.06,0Zm0,-0.74l0,-1.039l-0.326,0c-0.891,0 -1.336,0.279 -1.336,0.839c0,0.189 0.064,0.348 0.193,0.477c0.129,0.128 0.288,0.193 0.477,0.193c0.323,0 0.654,-0.157 0.992,-0.47Z" style="fill:#f8f8f8;fill-rule:nonzero;"/>
    <path d="M46.007,37.714l0,-5.112l1.378,0l0,0.964c0.45,-0.72 1.03,-1.08 1.741,-1.08c0.456,0 0.817,0.144 1.08,0.433c0.264,0.289 0.395,0.683 0.395,1.183l0,3.612l-1.377,0l0,-3.272c0,-0.581 -0.193,-0.871 -0.577,-0.871c-0.439,0 -0.859,0.308 -1.262,0.927l0,3.216l-1.378,0Z" style="fill:#f8f8f8;fill-rule:nonzero;"/>
    <path d="M52.269,37.714l0,-5.112l1.377,0l0,5.112l-1.377,0Zm0,-5.972l0,-1.151l1.377,0l0,1.151l-1.377,0Z" style="fill:#f8f8f8;fill-rule:nonzero;"/>
    <path d="M59.14,37.602c-0.572,0.152 -1.101,0.229 -1.588,0.229c-0.816,0 -1.461,-0.241 -1.934,-0.719c-0.474,-0.48 -0.71,-1.133 -0.71,-1.958c0,-0.835 0.244,-1.489 0.731,-1.961c0.487,-0.471 1.16,-0.707 2.02,-0.707c0.416,0 0.896,0.067 1.439,0.2l0,0.996c-0.565,-0.183 -1.017,-0.274 -1.354,-0.274c-0.413,0 -0.746,0.158 -0.997,0.475c-0.252,0.316 -0.378,0.736 -0.378,1.262c0,0.536 0.137,0.966 0.408,1.289c0.272,0.323 0.634,0.484 1.087,0.484c0.413,0 0.838,-0.09 1.276,-0.27l0,0.954Z" style="fill:#f8f8f8;fill-rule:nonzero;"/>
    <path d="M62.947,37.165c-0.458,0.443 -0.95,0.666 -1.474,0.666c-0.448,0 -0.81,-0.137 -1.09,-0.41c-0.279,-0.273 -0.419,-0.627 -0.419,-1.062c0,-0.564 0.225,-1 0.677,-1.305c0.451,-0.306 1.098,-0.459 1.939,-0.459l0.367,0l0,-0.466c0,-0.53 -0.301,-0.796 -0.907,-0.796c-0.537,0 -1.08,0.152 -1.629,0.456l0,-0.949c0.623,-0.236 1.242,-0.354 1.852,-0.354c1.339,0 2.007,0.533 2.007,1.597l0,2.262c0,0.4 0.129,0.601 0.386,0.601c0.047,0 0.107,-0.006 0.182,-0.018l0.032,0.772c-0.291,0.087 -0.548,0.131 -0.772,0.131c-0.565,0 -0.928,-0.223 -1.089,-0.666l-0.062,0Zm0,-0.74l0,-1.039l-0.325,0c-0.891,0 -1.336,0.279 -1.336,0.839c0,0.189 0.065,0.348 0.193,0.477c0.129,0.128 0.288,0.193 0.477,0.193c0.323,0 0.654,-0.157 0.991,-0.47Z" style="fill:#f8f8f8;fill-rule:nonzero;"/>
    <rect x="66.049" y="30.363" width="1.379" height="7.351" style="fill:#f8f8f8;"/>
    <g>
      <path d="M76.062,37.602c-0.57,0.152 -1.1,0.229 -1.587,0.229c-0.816,0 -1.461,-0.241 -1.934,-0.719c-0.473,-0.48 -0.71,-1.133 -0.71,-1.958c0,-0.835 0.243,-1.489 0.73,-1.961c0.488,-0.471 1.162,-0.707 2.021,-0.707c0.416,0 0.895,0.067 1.438,0.2l0,0.996c-0.564,-0.183 -1.016,-0.274 -1.354,-0.274c-0.413,0 -0.745,0.158 -0.996,0.475c-0.252,0.316 -0.377,0.736 -0.377,1.262c0,0.536 0.135,0.966 0.407,1.289c0.271,0.323 0.633,0.484 1.087,0.484c0.413,0 0.838,-0.09 1.275,-0.27l0,0.954Z" style="fill:#f8f8f8;fill-rule:nonzero;"/>
      <path d="M77.366,37.714l0,-7.351l1.378,0l0,3.203c0.45,-0.72 1.03,-1.08 1.741,-1.08c0.456,0 0.816,0.144 1.08,0.433c0.265,0.289 0.396,0.683 0.396,1.183l0,3.612l-1.378,0l0,-3.272c0,-0.581 -0.192,-0.871 -0.578,-0.871c-0.437,0 -0.857,0.308 -1.261,0.927l0,3.216l-1.378,0Z" style="fill:#f8f8f8;fill-rule:nonzero;"/>
      <path d="M86.132,37.165c-0.459,0.443 -0.951,0.666 -1.476,0.666c-0.446,0 -0.809,-0.137 -1.089,-0.41c-0.28,-0.273 -0.419,-0.627 -0.419,-1.062c0,-0.564 0.226,-1 0.677,-1.305c0.452,-0.306 1.098,-0.459 1.94,-0.459l0.367,0l0,-0.466c0,-0.53 -0.302,-0.796 -0.908,-0.796c-0.537,0 -1.08,0.152 -1.628,0.456l0,-0.949c0.623,-0.236 1.24,-0.354 1.852,-0.354c1.338,0 2.007,0.533 2.007,1.597l0,2.262c0,0.4 0.128,0.601 0.386,0.601c0.047,0 0.107,-0.006 0.181,-0.018l0.033,0.772c-0.292,0.087 -0.549,0.131 -0.773,0.131c-0.565,0 -0.927,-0.223 -1.089,-0.666l-0.061,0Zm0,-0.74l0,-1.039l-0.326,0c-0.89,0 -1.336,0.279 -1.336,0.839c0,0.189 0.065,0.348 0.194,0.477c0.128,0.128 0.288,0.193 0.476,0.193c0.323,0 0.654,-0.157 0.992,-0.47Z" style="fill:#f8f8f8;fill-rule:nonzero;"/>
      <path d="M91.379,37.831c-0.798,0 -1.432,-0.242 -1.902,-0.725c-0.47,-0.482 -0.705,-1.131 -0.705,-1.948c0,-0.826 0.237,-1.477 0.71,-1.955c0.474,-0.478 1.116,-0.717 1.929,-0.717c0.817,0 1.462,0.239 1.935,0.717c0.473,0.478 0.71,1.126 0.71,1.946c0,0.838 -0.238,1.495 -0.712,1.969c-0.476,0.476 -1.13,0.713 -1.965,0.713Zm0.023,-0.862c0.792,0 1.188,-0.607 1.188,-1.82c0,-0.556 -0.105,-0.994 -0.315,-1.317c-0.209,-0.323 -0.497,-0.484 -0.864,-0.484c-0.363,0 -0.649,0.161 -0.858,0.484c-0.21,0.323 -0.315,0.764 -0.315,1.326c0,0.556 0.104,0.997 0.313,1.323c0.207,0.326 0.491,0.488 0.851,0.488Z" style="fill:#f8f8f8;fill-rule:nonzero;"/>
      <path d="M95.187,37.551l0,-1.01c0.683,0.286 1.266,0.428 1.751,0.428c0.565,0 0.847,-0.192 0.847,-0.577c0,-0.248 -0.233,-0.465 -0.699,-0.651l-0.464,-0.187c-0.506,-0.205 -0.869,-0.425 -1.086,-0.661c-0.217,-0.235 -0.326,-0.528 -0.326,-0.875c0,-0.485 0.186,-0.861 0.554,-1.13c0.37,-0.268 0.886,-0.402 1.551,-0.402c0.415,0 0.911,0.06 1.485,0.182l0,0.968c-0.552,-0.193 -1.011,-0.288 -1.374,-0.288c-0.57,0 -0.856,0.177 -0.856,0.53c0,0.233 0.21,0.43 0.633,0.591l0.4,0.154c0.599,0.226 1.017,0.456 1.251,0.689c0.234,0.233 0.351,0.532 0.351,0.899c0,0.48 -0.199,0.871 -0.598,1.171c-0.399,0.298 -0.918,0.449 -1.558,0.449c-0.614,0 -1.235,-0.094 -1.862,-0.28Z" style="fill:#f8f8f8;fill-rule:nonzero;"/>
      <path d="M103.72,37.551l0,-1.01c0.683,0.286 1.266,0.428 1.75,0.428c0.565,0 0.848,-0.192 0.848,-0.577c0,-0.248 -0.233,-0.465 -0.699,-0.651l-0.466,-0.187c-0.505,-0.205 -0.867,-0.425 -1.084,-0.661c-0.217,-0.235 -0.326,-0.528 -0.326,-0.875c0,-0.485 0.184,-0.861 0.554,-1.13c0.369,-0.268 0.886,-0.402 1.551,-0.402c0.415,0 0.91,0.06 1.484,0.182l0,0.968c-0.552,-0.193 -1.01,-0.288 -1.373,-0.288c-0.571,0 -0.857,0.177 -0.857,0.53c0,0.233 0.211,0.43 0.634,0.591l0.4,0.154c0.599,0.226 1.015,0.456 1.25,0.689c0.234,0.233 0.352,0.532 0.352,0.899c0,0.48 -0.2,0.871 -0.598,1.171c-0.4,0.298 -0.918,0.449 -1.558,0.449c-0.615,0 -1.236,-0.094 -1.862,-0.28Z" style="fill:#f8f8f8;fill-rule:nonzero;"/>
      <path d="M111.39,37.831c-0.798,0 -1.432,-0.242 -1.902,-0.725c-0.47,-0.482 -0.705,-1.131 -0.705,-1.948c0,-0.826 0.237,-1.477 0.71,-1.955c0.474,-0.478 1.116,-0.717 1.929,-0.717c0.817,0 1.461,0.239 1.935,0.717c0.473,0.478 0.71,1.126 0.71,1.946c0,0.838 -0.237,1.495 -0.712,1.969c-0.475,0.476 -1.13,0.713 -1.965,0.713Zm0.023,-0.862c0.792,0 1.188,-0.607 1.188,-1.82c0,-0.556 -0.105,-0.994 -0.315,-1.317c-0.209,-0.323 -0.497,-0.484 -0.864,-0.484c-0.363,0 -0.649,0.161 -0.858,0.484c-0.21,0.323 -0.315,0.764 -0.315,1.326c0,0.556 0.104,0.997 0.313,1.323c0.207,0.326 0.491,0.488 0.851,0.488Z" style="fill:#f8f8f8;fill-rule:nonzero;"/>
      <path d="M118.5,37.714l0,-0.963c-0.447,0.72 -1.027,1.08 -1.741,1.08c-0.456,0 -0.816,-0.144 -1.08,-0.433c-0.263,-0.289 -0.396,-0.683 -0.396,-1.183l0,-3.613l1.379,0l0,3.273c0,0.58 0.194,0.87 0.581,0.87c0.435,0 0.853,-0.308 1.257,-0.926l0,-3.217l1.378,0l0,5.112l-1.378,0Z" style="fill:#f8f8f8;fill-rule:nonzero;"/>
      <path d="M121.6,37.714l0,-5.112l1.377,0l0,0.964c0.357,-0.72 0.9,-1.08 1.63,-1.08c0.087,0 0.172,0.01 0.256,0.028l0,1.229c-0.195,-0.071 -0.377,-0.107 -0.544,-0.107c-0.55,0 -0.996,0.278 -1.342,0.833l0,3.245l-1.377,0Z" style="fill:#f8f8f8;fill-rule:nonzero;"/>
      <path d="M129.7,37.602c-0.571,0.152 -1.1,0.229 -1.587,0.229c-0.817,0 -1.461,-0.241 -1.935,-0.719c-0.473,-0.48 -0.71,-1.133 -0.71,-1.958c0,-0.835 0.244,-1.489 0.732,-1.961c0.487,-0.471 1.16,-0.707 2.02,-0.707c0.416,0 0.895,0.067 1.439,0.2l0,0.996c-0.566,-0.183 -1.017,-0.274 -1.356,-0.274c-0.413,0 -0.745,0.158 -0.996,0.475c-0.251,0.316 -0.377,0.736 -0.377,1.262c0,0.536 0.136,0.966 0.408,1.289c0.271,0.323 0.633,0.484 1.086,0.484c0.413,0 0.839,-0.09 1.276,-0.27l0,0.954Z" style="fill:#f8f8f8;fill-rule:nonzero;"/>
      <path d="M135.17,37.542c-0.654,0.192 -1.274,0.289 -1.862,0.289c-0.853,0 -1.527,-0.243 -2.02,-0.727c-0.494,-0.484 -0.74,-1.145 -0.74,-1.983c0,-0.792 0.225,-1.428 0.677,-1.911c0.451,-0.483 1.048,-0.724 1.79,-0.724c0.748,0 1.294,0.236 1.639,0.707c0.345,0.472 0.516,1.219 0.516,2.24l-3.17,0c0.093,0.975 0.629,1.462 1.606,1.462c0.463,0 0.984,-0.107 1.564,-0.321l0,0.968Zm-3.189,-2.887l1.835,0c0,-0.872 -0.282,-1.307 -0.843,-1.307c-0.57,0 -0.902,0.435 -0.992,1.307Z" style="fill:#f8f8f8;fill-rule:nonzero;"/>
      <path d="M57.514,19.88c-0.57,-0.696 -1.275,-1.044 -2.114,-1.044c-0.369,0 -0.711,0.067 -1.026,0.201c-0.314,0.135 -0.584,0.317 -0.811,0.548c-0.226,0.23 -0.405,0.504 -0.534,0.823c-0.13,0.319 -0.196,0.663 -0.196,1.032c0,0.377 0.066,0.725 0.196,1.044c0.129,0.319 0.31,0.596 0.541,0.83c0.23,0.234 0.501,0.42 0.811,0.554c0.31,0.133 0.646,0.201 1.007,0.201c0.787,0 1.496,-0.335 2.126,-1.007l0,2.919l-0.252,0.089c-0.378,0.133 -0.73,0.232 -1.058,0.295c-0.326,0.063 -0.65,0.094 -0.968,0.094c-0.654,0 -1.281,-0.124 -1.881,-0.371c-0.599,-0.247 -1.128,-0.595 -1.585,-1.044c-0.456,-0.449 -0.824,-0.981 -1.1,-1.598c-0.277,-0.617 -0.415,-1.289 -0.415,-2.019c0,-0.729 0.136,-1.399 0.409,-2.006c0.273,-0.609 0.638,-1.132 1.094,-1.573c0.457,-0.44 0.987,-0.783 1.591,-1.031c0.604,-0.248 1.237,-0.372 1.9,-0.372c0.377,0 0.749,0.04 1.114,0.12c0.363,0.08 0.747,0.204 1.151,0.372l0,2.943Z" style="fill:#f8f8f8;fill-rule:nonzero;"/>
      <path d="M64.457,22.672l-1.107,-3.157l-1.107,3.157l2.214,0Zm0.654,1.875l-3.522,0l-0.566,1.648l-2.629,0l3.611,-9.485l2.692,0l3.609,9.485l-2.629,0l-0.566,-1.648Z" style="fill:#f8f8f8;fill-rule:nonzero;"/>
      <path d="M71.591,16.71l0,5.158c0,0.277 0.009,0.559 0.03,0.848c0.022,0.29 0.084,0.551 0.189,0.787c0.106,0.235 0.271,0.425 0.497,0.573c0.227,0.146 0.545,0.22 0.957,0.22c0.41,0 0.727,-0.074 0.949,-0.22c0.223,-0.148 0.388,-0.338 0.497,-0.573c0.109,-0.236 0.175,-0.497 0.195,-0.787c0.021,-0.289 0.031,-0.571 0.031,-0.848l0,-5.158l2.454,0l0,5.497c0,1.476 -0.338,2.554 -1.014,3.233c-0.675,0.679 -1.713,1.019 -3.112,1.019c-1.402,0 -2.442,-0.34 -3.121,-1.019c-0.679,-0.679 -1.019,-1.757 -1.019,-3.233l0,-5.497l2.467,0Z" style="fill:#f8f8f8;fill-rule:nonzero;"/>
      <path d="M81.842,24.107l0.567,0c0.427,0 0.809,-0.067 1.145,-0.202c0.336,-0.134 0.618,-0.318 0.848,-0.554c0.231,-0.234 0.408,-0.512 0.529,-0.836c0.121,-0.322 0.183,-0.677 0.183,-1.063c0,-0.377 -0.063,-0.73 -0.189,-1.056c-0.126,-0.328 -0.304,-0.609 -0.535,-0.843c-0.23,-0.235 -0.514,-0.42 -0.849,-0.553c-0.336,-0.135 -0.713,-0.202 -1.132,-0.202l-0.567,0l0,5.309Zm-2.465,-7.397l3.648,0c0.646,0 1.252,0.13 1.818,0.389c0.566,0.261 1.061,0.606 1.484,1.039c0.424,0.432 0.758,0.935 1,1.509c0.244,0.574 0.365,1.176 0.365,1.805c0,0.621 -0.12,1.219 -0.358,1.793c-0.24,0.574 -0.57,1.08 -0.994,1.516c-0.423,0.436 -0.919,0.784 -1.485,1.044c-0.566,0.259 -1.176,0.39 -1.83,0.39l-3.648,0l0,-9.485Z" style="fill:#f8f8f8;fill-rule:nonzero;"/>
      <path d="M94.02,22.672l-1.107,-3.157l-1.106,3.157l2.213,0Zm0.654,1.875l-3.523,0l-0.566,1.648l-2.629,0l3.611,-9.485l2.692,0l3.61,9.485l-2.629,0l-0.566,-1.648Z" style="fill:#f8f8f8;fill-rule:nonzero;"/>
      <path d="M101.42,16.71l0,7.397l2.957,0l0,2.088l-5.422,0l0,-9.485l2.465,0Z" style="fill:#f8f8f8;fill-rule:nonzero;"/>
    </g>
    <path d="M93.728,265.86c-0.368,0 -0.721,0.071 -1.057,0.207c-0.336,0.136 -0.632,0.328 -0.884,0.572c-0.256,0.248 -0.46,0.537 -0.608,0.877c-0.152,0.341 -0.228,0.713 -0.228,1.117c0,0.404 0.076,0.779 0.228,1.123c0.156,0.341 0.359,0.641 0.615,0.889c0.252,0.248 0.549,0.444 0.881,0.58c0.332,0.14 0.681,0.209 1.045,0.209c0.18,0 0.359,-0.021 0.539,-0.053c0.184,-0.036 0.38,-0.092 0.588,-0.164l0.141,-0.052l0,-1.625c-0.348,0.376 -0.744,0.562 -1.184,0.562c-0.2,0 -0.383,-0.037 -0.56,-0.113c-0.172,-0.072 -0.322,-0.177 -0.45,-0.309c-0.128,-0.128 -0.226,-0.283 -0.302,-0.459c-0.072,-0.176 -0.11,-0.372 -0.11,-0.58c0,-0.208 0.038,-0.396 0.11,-0.576c0.076,-0.176 0.17,-0.328 0.298,-0.457c0.124,-0.128 0.278,-0.233 0.454,-0.305c0.173,-0.076 0.364,-0.111 0.568,-0.111c0.468,0 0.86,0.191 1.176,0.58l0,-1.637c-0.224,-0.096 -0.437,-0.163 -0.641,-0.207c-0.204,-0.044 -0.407,-0.068 -0.619,-0.068l0,0Zm-65.037,0.148l-2.01,5.278l1.467,0l0.314,-0.916l1.957,0l0.317,0.916l1.465,0l-2.008,-5.278l-1.502,0Zm30.496,0l0,5.278l2.205,0c0.28,0 0.532,-0.032 0.756,-0.096c0.224,-0.068 0.416,-0.165 0.572,-0.297c0.156,-0.132 0.276,-0.292 0.364,-0.484c0.084,-0.188 0.128,-0.408 0.128,-0.656c0,-0.16 -0.02,-0.308 -0.056,-0.448c-0.036,-0.14 -0.1,-0.268 -0.184,-0.38c-0.088,-0.108 -0.2,-0.204 -0.336,-0.28c-0.14,-0.08 -0.304,-0.136 -0.5,-0.172c0.196,-0.124 0.34,-0.273 0.436,-0.445c0.096,-0.176 0.144,-0.396 0.144,-0.664c0,-0.436 -0.129,-0.772 -0.381,-1.004c-0.252,-0.236 -0.618,-0.352 -1.103,-0.352l-2.045,0Zm63.998,0.051l0,5.28l2.029,0c0.364,0 0.706,-0.073 1.022,-0.217c0.317,-0.144 0.592,-0.34 0.824,-0.58c0.236,-0.244 0.421,-0.526 0.557,-0.846c0.132,-0.32 0.195,-0.652 0.195,-0.996c0,-0.352 -0.063,-0.687 -0.199,-1.004c-0.136,-0.32 -0.321,-0.6 -0.557,-0.84c-0.236,-0.24 -0.513,-0.436 -0.83,-0.58c-0.312,-0.144 -0.652,-0.217 -1.012,-0.217l-2.029,0Zm-62.627,0.996l0.252,0c0.428,0 0.646,0.172 0.646,0.512c0,0.341 -0.218,0.514 -0.646,0.514l-0.252,0l0,-1.026Zm64,0.164l0.316,0c0.232,0 0.445,0.04 0.629,0.112c0.188,0.076 0.343,0.18 0.471,0.308c0.128,0.133 0.23,0.289 0.303,0.473c0.068,0.18 0.103,0.376 0.103,0.588c0,0.212 -0.035,0.408 -0.103,0.588c-0.065,0.18 -0.165,0.336 -0.293,0.468c-0.128,0.128 -0.285,0.233 -0.473,0.309c-0.188,0.073 -0.401,0.113 -0.637,0.113l-0.316,0l0,-2.959Zm-95.117,0.348l0.615,1.758l-1.228,0l0.613,-1.758Zm31.117,1.533l0.301,0c0.348,0 0.594,0.045 0.746,0.133c0.148,0.092 0.223,0.232 0.223,0.428c0,0.196 -0.075,0.34 -0.223,0.429c-0.152,0.088 -0.398,0.131 -0.746,0.131l-0.301,0l0,-1.121Z" style="fill:#f8f8f8;fill-rule:nonzero;"/>
    <path d="M12.006,288.09l-1.644,-2.465l1.692,0l0.717,1.364l0.88,-1.364l1.693,0l-1.741,2.465l1.965,2.813l-1.673,0l-1.056,-1.721l-1.237,1.721l-1.661,0l2.065,-2.813Z" style="fill:#f8f8f8;fill-rule:nonzero;"/>
    <path d="M12.084,313.42l-1.737,-3.101l1.469,0l0.961,1.84l0.932,-1.84l1.456,0l-2.885,5.382l-1.42,0l1.224,-2.281Z" style="fill:#f8f8f8;fill-rule:nonzero;"/>
    <path d="M29.446,109.87c-0.32,0 -0.609,0.049 -0.869,0.145c-0.26,0.097 -0.474,0.232 -0.654,0.404c-0.18,0.172 -0.316,0.381 -0.416,0.625c-0.101,0.244 -0.151,0.51 -0.151,0.81c0,0.3 0.048,0.546 0.141,0.743c0.092,0.196 0.217,0.356 0.369,0.484c0.152,0.128 0.324,0.231 0.52,0.307c0.196,0.076 0.391,0.148 0.595,0.212c0.172,0.06 0.318,0.113 0.438,0.161c0.12,0.048 0.215,0.1 0.291,0.156c0.076,0.056 0.128,0.115 0.16,0.183c0.033,0.068 0.049,0.145 0.049,0.237c0,0.148 -0.065,0.282 -0.189,0.398c-0.124,0.116 -0.317,0.178 -0.573,0.178c-0.224,0 -0.451,-0.052 -0.679,-0.152c-0.228,-0.1 -0.46,-0.257 -0.696,-0.465l-0.674,1.265c0.653,0.452 1.358,0.68 2.122,0.68c0.368,0 0.698,-0.048 0.99,-0.148c0.292,-0.1 0.534,-0.236 0.734,-0.416c0.2,-0.18 0.353,-0.393 0.457,-0.645c0.104,-0.253 0.156,-0.532 0.156,-0.84c0,-0.46 -0.119,-0.833 -0.355,-1.117c-0.236,-0.284 -0.613,-0.511 -1.125,-0.684c-0.128,-0.044 -0.257,-0.085 -0.389,-0.121c-0.132,-0.036 -0.247,-0.079 -0.351,-0.13c-0.104,-0.052 -0.188,-0.112 -0.252,-0.18c-0.064,-0.068 -0.098,-0.158 -0.098,-0.266c0,-0.156 0.065,-0.279 0.193,-0.375c0.128,-0.096 0.293,-0.144 0.497,-0.144c0.16,0 0.324,0.031 0.496,0.099c0.172,0.068 0.339,0.169 0.511,0.309l0.625,-1.225c-0.3,-0.16 -0.611,-0.28 -0.935,-0.365c-0.324,-0.084 -0.638,-0.123 -0.938,-0.123l0,0Zm3.106,0.168l0,6.035l1.568,0l0,-2.002l0.93,0c0.676,0 1.195,-0.175 1.555,-0.527c0.36,-0.352 0.541,-0.847 0.541,-1.488c0,-0.64 -0.181,-1.137 -0.541,-1.489c-0.36,-0.352 -0.879,-0.529 -1.555,-0.529l-2.498,0l0,0Zm5.426,0l0,6.035l3.433,0l0,-1.33l-1.863,0l0,-1.039l1.76,0l0,-1.328l-1.76,0l0,-1.01l1.863,0l0,-1.328l-3.433,0Zm4.562,0l0,6.035l3.434,0l0,-1.33l-1.865,0l0,-1.039l1.759,0l0,-1.328l-1.759,0l0,-1.01l1.865,0l0,-1.328l-3.434,0Zm4.563,0l0,6.035l2.32,0c0.416,0 0.804,-0.084 1.164,-0.248c0.36,-0.164 0.675,-0.388 0.943,-0.664c0.269,-0.276 0.481,-0.601 0.633,-0.965c0.152,-0.364 0.229,-0.744 0.229,-1.14c0,-0.4 -0.077,-0.785 -0.233,-1.149c-0.156,-0.364 -0.367,-0.685 -0.636,-0.961c-0.268,-0.276 -0.584,-0.496 -0.944,-0.66c-0.36,-0.164 -0.744,-0.248 -1.156,-0.248l-2.32,0l0,0Zm-12.982,1.266l0.519,0c0.577,0 0.865,0.252 0.865,0.752c0,0.501 -0.288,0.752 -0.865,0.752l-0.519,0l0,-1.504l0,0Zm14.551,0.062l0.359,0c0.269,0 0.509,0.045 0.721,0.129c0.212,0.084 0.391,0.204 0.539,0.352c0.148,0.148 0.262,0.329 0.342,0.537c0.08,0.209 0.119,0.432 0.119,0.672c0,0.244 -0.04,0.471 -0.116,0.675c-0.076,0.204 -0.187,0.386 -0.335,0.534c-0.148,0.148 -0.33,0.267 -0.542,0.351c-0.212,0.084 -0.455,0.127 -0.728,0.127l-0.359,0l0,-3.377l0,0Z" style="fill:#f8f8f8;fill-rule:nonzero;"/>
    <path d="M117.549,109.896c-0.484,0 -0.924,0.078 -1.32,0.235c-0.397,0.156 -0.734,0.37 -1.014,0.646c-0.28,0.276 -0.496,0.612 -0.648,1.004c-0.152,0.392 -0.227,0.825 -0.227,1.293c0,0.476 0.074,0.909 0.23,1.301c0.156,0.392 0.373,0.73 0.649,1.01c0.276,0.28 0.609,0.494 0.998,0.65c0.388,0.156 0.815,0.232 1.283,0.232c0.34,0 0.669,-0.043 0.977,-0.126c0.309,-0.084 0.591,-0.21 0.851,-0.374c0.26,-0.164 0.486,-0.363 0.678,-0.607c0.192,-0.244 0.343,-0.522 0.455,-0.838c0.08,-0.224 0.132,-0.466 0.16,-0.726c0.028,-0.26 0.039,-0.553 0.039,-0.873l-3.111,0l0,1.216l1.289,0c-0.028,0.176 -0.076,0.324 -0.152,0.448c-0.076,0.124 -0.168,0.224 -0.285,0.3c-0.116,0.076 -0.245,0.132 -0.389,0.168c-0.144,0.036 -0.291,0.053 -0.447,0.053c-0.26,0 -0.492,-0.045 -0.688,-0.133c-0.196,-0.088 -0.364,-0.213 -0.496,-0.373c-0.132,-0.16 -0.233,-0.346 -0.301,-0.566c-0.069,-0.22 -0.101,-0.457 -0.101,-0.713c0,-0.284 0.04,-0.541 0.117,-0.77c0.076,-0.228 0.184,-0.424 0.32,-0.588c0.136,-0.163 0.3,-0.287 0.492,-0.375c0.192,-0.088 0.405,-0.132 0.641,-0.132c0.284,0 0.536,0.072 0.756,0.216c0.221,0.144 0.401,0.379 0.541,0.711l1.486,-0.615c-0.276,-0.572 -0.651,-0.991 -1.127,-1.264c-0.476,-0.273 -1.028,-0.41 -1.656,-0.41l0,0Zm-24.947,0.168l0,6.035l3.434,0l0,-1.328l-1.866,0l0,-1.041l1.762,0l0,-1.328l-1.762,0l0,-1.008l1.866,0l0,-1.33l-3.434,0l0,0Zm4.562,0l0,6.035l1.569,0l0,-3.689l2.898,3.689l1.559,0l0,-6.035l-1.559,0l0,3.692l-2.898,-3.692l-1.569,0Zm7.291,0l0,6.035l3.434,0l0,-1.328l-1.865,0l0,-1.041l1.76,0l0,-1.328l-1.76,0l0,-1.008l1.865,0l0,-1.33l-3.434,0l0,0Zm4.563,0l0,6.035l1.568,0l0,-2.32l1.496,2.32l1.954,0l-1.897,-2.472c0.432,-0.1 0.759,-0.296 0.979,-0.58c0.22,-0.284 0.332,-0.657 0.332,-1.117c0,-0.256 -0.039,-0.495 -0.123,-0.719c-0.084,-0.224 -0.206,-0.422 -0.37,-0.594c-0.164,-0.172 -0.367,-0.302 -0.619,-0.402c-0.252,-0.1 -0.545,-0.151 -0.881,-0.151l-2.439,0l0,0Zm11.492,0l2.201,3.139l0,2.896l1.569,0l0,-2.896l2.209,-3.139l-1.873,0l-1.112,1.651l-1.121,-1.651l-1.873,0l0,0Zm-9.924,1.209l0.295,0c0.308,0 0.549,0.066 0.713,0.194c0.164,0.128 0.248,0.31 0.248,0.55c0,0.24 -0.084,0.424 -0.248,0.553c-0.164,0.128 -0.405,0.194 -0.713,0.194l-0.295,0l0,-1.491l0,0Z" style="fill:#f8f8f8;fill-rule:nonzero;"/>
    <path d="M11.421,333.45l-2.434,6.275c-0.024,0.063 -0.036,0.13 -0.036,0.198c0,0.302 0.248,0.55 0.55,0.55c0.058,0 0.115,-0.009 0.17,-0.027l5.932,-1.937l-0.342,-1.045l-1.612,0.525c-0.257,-1.113 -0.985,-1.88 -1.9,-2.34l0.699,-1.802l-1.027,-0.397Zm-0.074,3.234c0.675,0.345 1.106,0.811 1.25,1.649l-2.164,0.707l0.914,-2.356Z" style="fill:#f8f8f8;fill-rule:nonzero;"/>
    <path d="M124.89,122.69c-0.331,0.006 -0.596,0.279 -0.589,0.611l0.002,1.408c-2.521,0.13 -5.007,1.043 -7.047,2.756c-4.419,3.708 -5.55,10.112 -2.668,15.105l0.3,0.52l10.035,-5.793l10.035,5.793l0.301,-0.52c2.882,-4.993 1.752,-11.398 -2.668,-15.105c-2.051,-1.722 -4.555,-2.636 -7.09,-2.758l-0.002,-1.41c0.004,-0.338 -0.271,-0.612 -0.609,-0.607l0,0Zm-0.586,3.219l0.02,10.35l-8.902,5.14c-2.21,-4.402 -1.21,-9.813 2.605,-13.014c1.819,-1.527 4.032,-2.348 6.277,-2.476Zm1.2,0c2.259,0.121 4.487,0.94 6.316,2.476l0.002,0c3.816,3.201 4.813,8.612 2.604,13.014l-8.903,-5.14l-0.019,-10.35Zm8.851,16.951c-0.331,0.007 -0.925,0.28 -0.919,0.611l0.01,1.582l-1.606,0.008c-0.831,-0.028 -0.824,1.235 0.006,1.199l1.606,-0.008l0.01,1.629c-0.026,0.831 1.236,0.822 1.199,-0.008l-0.008,-1.625l1.604,-0.008c0.8,-0.004 0.794,-1.205 -0.006,-1.201l-1.606,0.008l-0.008,-1.584c0.002,-0.338 -0.275,-0.611 -0.613,-0.604l0.331,0.001Zm-16.092,2.056l-4.414,0.02c-0.801,0.004 -0.795,1.205 0.006,1.201l4.414,-0.022c0.831,0.028 0.825,-1.235 -0.006,-1.199Z" style="fill:#f8f8f8;fill-rule:nonzero;"/>
    <path d="M7.804,190.6l134.39,0" style="fill:none;stroke:#f8f8f8;stroke-width:1.2px;stroke-linecap:round;stroke-linejoin:miter;stroke-miterlimit:4;"/>
    <path d="M7.804,251.59l134.39,0" style="fill:none;stroke:#f8f8f8;stroke-width:1.2px;stroke-linecap:round;stroke-linejoin:miter;stroke-miterlimit:4;"/>
    <path d="M20.25,216.15l0,5.277l1.373,0l0,-2.177l1.98,0l0,2.177l1.374,0l0,-5.277l-1.374,0l0,2.037l-1.98,0l0,-2.037l-1.373,0Zm5.83,0l0,5.277l1.373,0l0,-5.277l-1.373,0Zm1.983,0l0,1.158l1.127,0l0,4.119l1.373,0l0,-4.119l1.128,0l0,-1.158l-3.628,0Z" style="fill:#f8f8f8;fill-rule:nonzero;"/>
    <path d="M51.687,216.15l0,5.277l1.373,0l0,-2.029l1.309,2.029l1.709,0l-1.661,-2.166c0.38,-0.088 0.664,-0.255 0.86,-0.503c0.192,-0.252 0.287,-0.576 0.287,-0.977c0,-0.224 -0.036,-0.435 -0.108,-0.631c-0.072,-0.196 -0.18,-0.37 -0.32,-0.518c-0.144,-0.151 -0.323,-0.267 -0.543,-0.355c-0.22,-0.084 -0.475,-0.127 -0.767,-0.127l-2.139,0Zm4.963,0l0,5.277l3.004,0l0,-1.16l-1.633,0l0,-0.912l1.541,0l0,-1.16l-1.541,0l0,-0.887l1.633,0l0,-1.158l-3.004,0Zm3.437,0l2.221,5.277l1.092,0l2.227,-5.277l-1.495,0l-1.281,3.213l-1.271,-3.213l-1.493,0Zm-7.027,1.055l0.26,0c0.269,0 0.477,0.056 0.621,0.168c0.148,0.112 0.221,0.273 0.221,0.486c0,0.208 -0.073,0.37 -0.221,0.482c-0.144,0.112 -0.352,0.168 -0.621,0.168l-0.26,0l0,-1.304Z" style="fill:#f8f8f8;fill-rule:nonzero;"/>
    <path d="M81.924,216c-0.28,0 -0.536,0.043 -0.76,0.127c-0.228,0.084 -0.42,0.201 -0.576,0.353c-0.156,0.152 -0.275,0.335 -0.363,0.547c-0.084,0.212 -0.129,0.449 -0.129,0.709c0,0.261 0.041,0.477 0.125,0.649c0.08,0.172 0.186,0.312 0.318,0.424c0.132,0.112 0.285,0.199 0.457,0.267c0.168,0.068 0.344,0.128 0.52,0.184c0.148,0.052 0.277,0.1 0.381,0.14c0.109,0.044 0.192,0.089 0.256,0.141c0.068,0.048 0.112,0.1 0.14,0.16c0.028,0.056 0.045,0.127 0.045,0.203c0,0.132 -0.056,0.249 -0.164,0.354c-0.112,0.104 -0.278,0.152 -0.502,0.152c-0.196,0 -0.396,-0.045 -0.596,-0.133c-0.2,-0.089 -0.403,-0.224 -0.607,-0.404l-0.588,1.106c0.568,0.396 1.188,0.595 1.852,0.595c0.325,0 0.613,-0.045 0.865,-0.133c0.256,-0.084 0.47,-0.207 0.642,-0.363c0.176,-0.156 0.309,-0.344 0.401,-0.56c0.092,-0.22 0.137,-0.465 0.137,-0.737c0,-0.4 -0.105,-0.728 -0.313,-0.976c-0.208,-0.248 -0.536,-0.448 -0.984,-0.6c-0.112,-0.036 -0.224,-0.071 -0.336,-0.103c-0.116,-0.032 -0.221,-0.074 -0.309,-0.118c-0.092,-0.044 -0.165,-0.096 -0.221,-0.156c-0.056,-0.061 -0.084,-0.14 -0.084,-0.232c0,-0.136 0.056,-0.244 0.168,-0.328c0.112,-0.084 0.257,-0.129 0.434,-0.129c0.14,0 0.284,0.034 0.432,0.09c0.152,0.06 0.301,0.147 0.449,0.271l0.547,-1.072c-0.26,-0.14 -0.537,-0.245 -0.821,-0.321c-0.284,-0.072 -0.555,-0.107 -0.816,-0.107l0,0Zm9.121,0c-0.428,0 -0.826,0.071 -1.181,0.215c-0.356,0.14 -0.664,0.34 -0.92,0.588c-0.256,0.252 -0.456,0.548 -0.6,0.888c-0.148,0.337 -0.221,0.706 -0.221,1.098c0,0.388 0.073,0.756 0.221,1.092c0.144,0.341 0.344,0.637 0.6,0.889c0.256,0.252 0.564,0.447 0.92,0.587c0.356,0.144 0.753,0.217 1.181,0.217c0.424,0 0.816,-0.073 1.176,-0.217c0.356,-0.14 0.668,-0.335 0.924,-0.587c0.26,-0.252 0.465,-0.548 0.609,-0.889c0.144,-0.336 0.215,-0.704 0.215,-1.092c0,-0.392 -0.071,-0.761 -0.215,-1.098c-0.144,-0.34 -0.349,-0.636 -0.609,-0.888c-0.256,-0.248 -0.568,-0.448 -0.924,-0.588c-0.36,-0.144 -0.752,-0.215 -1.176,-0.215Zm-6.867,0.148l0,1.159l1.125,0l0,4.119l1.371,0l0,-4.119l1.129,0l0,-1.159l-3.625,0Zm10.66,0l0,5.278l1.373,0l0,-2.029l1.309,2.029l1.709,0l-1.663,-2.166c0.38,-0.088 0.666,-0.256 0.858,-0.504c0.196,-0.252 0.291,-0.576 0.291,-0.977c0,-0.224 -0.036,-0.434 -0.108,-0.63c-0.072,-0.197 -0.18,-0.37 -0.324,-0.518c-0.14,-0.152 -0.321,-0.268 -0.541,-0.356c-0.22,-0.084 -0.475,-0.126 -0.771,-0.126l-2.133,-0.001Zm4.963,0l0,5.278l3.004,0l0,-1.16l-1.633,0l0,-0.912l1.541,0l0,-1.161l-1.541,0l0,-0.886l1.633,0l0,-1.159l-3.004,0Zm-3.59,1.055l0.256,0c0.272,0 0.481,0.056 0.625,0.168c0.144,0.112 0.215,0.273 0.215,0.486c0,0.208 -0.071,0.371 -0.215,0.483c-0.144,0.112 -0.353,0.168 -0.625,0.168l-0.256,0l0,-1.305Zm-5.166,0.129c0.2,0 0.386,0.035 0.566,0.107c0.181,0.072 0.343,0.173 0.479,0.305c0.14,0.133 0.246,0.285 0.326,0.461c0.076,0.18 0.117,0.372 0.117,0.584c0,0.208 -0.041,0.4 -0.117,0.58c-0.08,0.176 -0.186,0.331 -0.326,0.459c-0.136,0.132 -0.298,0.233 -0.479,0.305c-0.18,0.072 -0.366,0.109 -0.566,0.109c-0.2,0 -0.392,-0.037 -0.572,-0.109c-0.18,-0.072 -0.337,-0.173 -0.473,-0.305c-0.136,-0.128 -0.24,-0.283 -0.32,-0.459c-0.08,-0.18 -0.119,-0.372 -0.119,-0.58c0,-0.212 0.039,-0.404 0.119,-0.584c0.08,-0.176 0.184,-0.328 0.32,-0.461c0.136,-0.132 0.293,-0.233 0.473,-0.305c0.18,-0.072 0.372,-0.107 0.572,-0.107Z" style="fill:#f8f8f8;fill-rule:nonzero;"/>
    <path d="M122.48,216c-0.372,0 -0.725,0.071 -1.061,0.207c-0.337,0.136 -0.628,0.328 -0.884,0.572c-0.252,0.248 -0.456,0.537 -0.608,0.877c-0.152,0.341 -0.228,0.713 -0.228,1.117c0,0.404 0.076,0.78 0.232,1.123c0.152,0.341 0.356,0.641 0.612,0.889c0.252,0.248 0.547,0.444 0.88,0.58c0.336,0.14 0.685,0.209 1.049,0.209c0.176,0 0.355,-0.021 0.535,-0.053c0.184,-0.036 0.38,-0.092 0.588,-0.164l0.141,-0.052l0,-1.625c-0.349,0.376 -0.744,0.562 -1.18,0.562c-0.2,0 -0.388,-0.037 -0.56,-0.113c-0.172,-0.072 -0.324,-0.177 -0.452,-0.309c-0.128,-0.128 -0.229,-0.283 -0.302,-0.459c-0.072,-0.176 -0.108,-0.372 -0.108,-0.58c0,-0.208 0.036,-0.396 0.108,-0.576c0.073,-0.176 0.175,-0.328 0.299,-0.457c0.128,-0.128 0.275,-0.233 0.451,-0.305c0.176,-0.076 0.364,-0.111 0.568,-0.111c0.468,0 0.859,0.191 1.176,0.58l0,-1.637c-0.225,-0.096 -0.437,-0.163 -0.641,-0.207c-0.2,-0.044 -0.407,-0.068 -0.615,-0.068l0,0Zm-11.498,0.148l0,5.278l1.373,0l0,-2.029l1.309,2.029l1.709,0l-1.661,-2.166c0.381,-0.088 0.664,-0.256 0.86,-0.504c0.192,-0.252 0.289,-0.576 0.289,-0.977c0,-0.224 -0.036,-0.435 -0.108,-0.631c-0.072,-0.196 -0.18,-0.369 -0.32,-0.517c-0.144,-0.152 -0.324,-0.268 -0.545,-0.356c-0.22,-0.084 -0.475,-0.127 -0.767,-0.127l-2.139,0Zm4.963,0l0,5.278l3.006,0l0,-1.16l-1.633,0l0,-0.912l1.539,0l0,-1.161l-1.539,0l0,-0.886l1.633,0l0,-1.159l-3.006,0Zm10.293,0l-2.01,5.278l1.461,0l0.316,-0.916l1.961,0l0.315,0.916l1.461,0l-2.008,-5.278l-1.496,0Zm4.109,0l0,5.278l3.018,0l0,-1.16l-1.645,0l0,-4.118l-1.373,0Zm3.721,0l0,5.278l3.018,0l0,-1.16l-1.645,0l0,-4.118l-1.373,0Zm-21.713,1.055l0.26,0c0.268,0 0.477,0.056 0.621,0.168c0.148,0.112 0.221,0.273 0.221,0.486c0,0.208 -0.073,0.371 -0.221,0.483c-0.144,0.112 -0.353,0.168 -0.621,0.168l-0.26,0l0,-1.305Zm14.631,0.504l0.615,1.758l-1.23,0l0.615,-1.758Z" style="fill:#f8f8f8;fill-rule:nonzero;"/>
    <path d="M62.741,157.992l0,-4.984l3.479,0l0,1.029l-2.184,0l0,0.91l2.044,0l0,1.022l-2.044,0l0,2.023l-1.295,0Z" style="fill:#f8f8f8;fill-rule:nonzero;"/>
    <rect x="66.829" y="153.008" width="1.316" height="4.984" style="fill:#f8f8f8;fill-rule:nonzero;"/>
    <path d="M70.847,158.055c-0.373,0 -0.742,-0.049 -1.106,-0.147c-0.364,-0.098 -0.66,-0.231 -0.889,-0.399l0.413,-0.931c0.243,0.154 0.501,0.272 0.774,0.353c0.273,0.082 0.547,0.123 0.822,0.123c0.28,0 0.495,-0.039 0.644,-0.116c0.15,-0.077 0.224,-0.185 0.224,-0.325c0,-0.126 -0.067,-0.23 -0.203,-0.312c-0.135,-0.081 -0.389,-0.162 -0.763,-0.241c-0.471,-0.093 -0.837,-0.209 -1.099,-0.347c-0.261,-0.137 -0.444,-0.299 -0.549,-0.486c-0.105,-0.187 -0.158,-0.413 -0.158,-0.679c0,-0.303 0.087,-0.578 0.259,-0.823c0.173,-0.245 0.416,-0.436 0.728,-0.573c0.313,-0.138 0.67,-0.207 1.071,-0.207c0.36,0 0.709,0.05 1.047,0.15c0.338,0.101 0.603,0.233 0.794,0.396l-0.406,0.931c-0.219,-0.154 -0.45,-0.272 -0.693,-0.353c-0.242,-0.082 -0.485,-0.123 -0.728,-0.123c-0.238,0 -0.429,0.046 -0.574,0.136c-0.144,0.091 -0.217,0.214 -0.217,0.368c0,0.084 0.026,0.154 0.077,0.21c0.052,0.056 0.147,0.111 0.287,0.165c0.14,0.053 0.35,0.11 0.63,0.171c0.453,0.098 0.809,0.216 1.068,0.353c0.259,0.138 0.442,0.299 0.549,0.483c0.108,0.185 0.161,0.405 0.161,0.662c0,0.485 -0.189,0.867 -0.567,1.144c-0.378,0.278 -0.91,0.417 -1.596,0.417Z" style="fill:#f8f8f8;fill-rule:nonzero;"/>
    <path d="M77.049,153.008l1.288,0l0,4.984l-1.288,0l0,-2.016l-2.016,0l0,2.016l-1.288,0l0,-4.984l1.288,0l0,1.939l2.016,0l0,-1.939Z" style="fill:#f8f8f8;fill-rule:nonzero;"/>
    <rect x="79.233" y="155.605" width="2.268" height="0.98" style="fill:#f8f8f8;fill-rule:nonzero;"/>
    <path d="M83.139,157.992l0,-3.92l-1.484,0l0,-1.064l4.298,0l0,1.064l-1.484,0l0,3.92l-1.33,0Z" style="fill:#f8f8f8;fill-rule:nonzero;"/>
    <path d="M89.635,157.992l-0.441,-1.029l-2.212,0l-0.441,1.029l-1.316,0l2.331,-4.984l1.036,0l2.338,4.984l-1.295,0Zm-2.226,-2.016l1.358,0l-0.679,-1.575l-0.679,1.575Z" style="fill:#f8f8f8;fill-rule:nonzero;"/>
    <path d="M94.437,153.008l1.239,0l0,4.984l-0.973,0l-2.261,-2.828l0,2.828l-1.225,0l0,-4.984l0.959,0l2.261,2.814l0,-2.814Z" style="fill:#f8f8f8;fill-rule:nonzero;"/>
    <path d="M101.451,157.992l-1.561,0l-1.995,-2.261l0,2.261l-1.316,0l0,-4.984l1.316,0l0,2.142l1.939,-2.142l1.54,0l-2.205,2.366l2.282,2.618Z" style="fill:#f8f8f8;fill-rule:nonzero;"/>
    <path d="M62.741,142.563l2.373,0c0.57,0 1.011,0.136 1.323,0.409c0.313,0.273 0.469,0.643 0.469,1.11c0,0.462 -0.158,0.831 -0.476,1.106c-0.317,0.275 -0.756,0.413 -1.316,0.413l-1.057,0l0,1.946l-1.316,0l0,-4.984Zm2.198,2.058c0.495,0 0.743,-0.175 0.743,-0.525c0,-0.177 -0.06,-0.312 -0.179,-0.403c-0.119,-0.091 -0.307,-0.136 -0.563,-0.136l-0.882,0l0,1.064l0.882,0Z" style="fill:#f8f8f8;fill-rule:nonzero;"/>
    <path d="M67.536,147.547l0,-4.984l1.316,0l0,3.92l2.107,0l0,1.064l-3.423,0Z" style="fill:#f8f8f8;fill-rule:nonzero;"/>
    <path d="M75.425,147.547l-0.441,-1.029l-2.212,0l-0.441,1.029l-1.316,0l2.331,-4.984l1.036,0l2.338,4.984l-1.295,0Zm-2.226,-2.016l1.358,0l-0.679,-1.575l-0.679,1.575Z" style="fill:#f8f8f8;fill-rule:nonzero;"/>
    <path d="M80.227,142.563l1.239,0l0,4.984l-0.973,0l-2.261,-2.828l0,2.828l-1.225,0l0,-4.984l0.959,0l2.261,2.814l0,-2.814Z" style="fill:#f8f8f8;fill-rule:nonzero;"/>
    <path d="M82.369,147.547l0,-4.984l3.556,0l0,1.008l-2.275,0l0,0.938l2.128,0l0,1.008l-2.128,0l0,1.022l2.275,0l0,1.008l-3.556,0Z" style="fill:#f8f8f8;fill-rule:nonzero;"/>
    <path d="M87.836,147.547l0,-3.92l-1.484,0l0,-1.064l4.298,0l0,1.064l-1.484,0l0,3.92l-1.33,0Z" style="fill:#f8f8f8;fill-rule:nonzero;"/>
    <path d="M92.855,147.61c-0.373,0 -0.742,-0.049 -1.106,-0.147c-0.364,-0.098 -0.66,-0.231 -0.889,-0.399l0.413,-0.931c0.243,0.154 0.501,0.272 0.774,0.353c0.273,0.082 0.547,0.123 0.822,0.123c0.28,0 0.495,-0.039 0.644,-0.116c0.15,-0.077 0.224,-0.185 0.224,-0.325c0,-0.126 -0.067,-0.23 -0.203,-0.312c-0.135,-0.081 -0.389,-0.162 -0.763,-0.241c-0.471,-0.093 -0.837,-0.209 -1.099,-0.347c-0.261,-0.137 -0.444,-0.299 -0.549,-0.486c-0.105,-0.187 -0.158,-0.413 -0.158,-0.679c0,-0.303 0.087,-0.578 0.259,-0.823c0.173,-0.245 0.416,-0.436 0.728,-0.573c0.313,-0.138 0.67,-0.207 1.071,-0.207c0.36,0 0.709,0.05 1.047,0.15c0.338,0.101 0.603,0.233 0.794,0.396l-0.406,0.931c-0.219,-0.154 -0.45,-0.272 -0.693,-0.353c-0.242,-0.082 -0.485,-0.123 -0.728,-0.123c-0.238,0 -0.429,0.046 -0.574,0.136c-0.144,0.091 -0.217,0.214 -0.217,0.368c0,0.084 0.026,0.154 0.077,0.21c0.052,0.056 0.147,0.111 0.287,0.165c0.14,0.053 0.35,0.11 0.63,0.171c0.453,0.098 0.809,0.216 1.068,0.353c0.259,0.138 0.442,0.299 0.549,0.483c0.108,0.185 0.161,0.405 0.161,0.662c0,0.485 -0.189,0.867 -0.567,1.144c-0.378,0.278 -0.91,0.417 -1.596,0.417Z" style="fill:#f8f8f8;fill-rule:nonzero;"/>
    <path d="M62.741,132.563l2.373,0c0.57,0 1.011,0.136 1.323,0.409c0.313,0.273 0.469,0.643 0.469,1.11c0,0.462 -0.158,0.831 -0.476,1.106c-0.317,0.275 -0.756,0.413 -1.316,0.413l-1.057,0l0,1.946l-1.316,0l0,-4.984Zm2.198,2.058c0.495,0 0.743,-0.175 0.743,-0.525c0,-0.177 -0.06,-0.312 -0.179,-0.403c-0.119,-0.091 -0.307,-0.136 -0.563,-0.136l-0.882,0l0,1.064l0.882,0Z" style="fill:#f8f8f8;fill-rule:nonzero;"/>
    <path d="M67.536,137.547l0,-4.984l3.556,0l0,1.008l-2.275,0l0,0.938l2.128,0l0,1.008l-2.128,0l0,1.022l2.275,0l0,1.008l-3.556,0Z" style="fill:#f8f8f8;fill-rule:nonzero;"/>
    <path d="M74.984,132.563l1.239,0l0,4.984l-0.973,0l-2.261,-2.828l0,2.828l-1.225,0l0,-4.984l0.959,0l2.261,2.814l0,-2.814Z" style="fill:#f8f8f8;fill-rule:nonzero;"/>
    <path d="M77.126,132.563l2.037,0c0.551,0 1.026,0.099 1.425,0.297c0.399,0.199 0.705,0.485 0.917,0.858c0.212,0.373 0.318,0.817 0.318,1.33c0,0.518 -0.105,0.965 -0.315,1.34c-0.21,0.376 -0.514,0.663 -0.913,0.861c-0.399,0.199 -0.876,0.298 -1.432,0.298l-2.037,0l0,-4.984Zm1.946,3.934c0.486,0 0.849,-0.12 1.089,-0.361c0.24,-0.24 0.36,-0.603 0.36,-1.088c0,-0.957 -0.483,-1.435 -1.449,-1.435l-0.63,0l0,2.884l0.63,0Z" style="fill:#f8f8f8;fill-rule:nonzero;"/>
    <path d="M84.784,137.61c-0.728,0 -1.278,-0.183 -1.652,-0.55c-0.373,-0.366 -0.56,-0.904 -0.56,-1.613l0,-2.884l1.281,0l0,2.933c0,0.359 0.081,0.635 0.242,0.826c0.161,0.191 0.391,0.287 0.689,0.287c0.294,0 0.521,-0.097 0.679,-0.291c0.159,-0.193 0.238,-0.467 0.238,-0.822l0,-2.933l1.295,0l0,2.884c0,0.7 -0.19,1.235 -0.57,1.606c-0.38,0.371 -0.928,0.557 -1.642,0.557Z" style="fill:#f8f8f8;fill-rule:nonzero;"/>
    <path d="M87.857,137.547l0,-4.984l1.316,0l0,3.92l2.107,0l0,1.064l-3.423,0Z" style="fill:#f8f8f8;fill-rule:nonzero;"/>
    <path d="M95.746,137.547l-0.441,-1.029l-2.212,0l-0.441,1.029l-1.316,0l2.331,-4.984l1.036,0l2.338,4.984l-1.295,0Zm-2.226,-2.016l1.358,0l-0.679,-1.575l-0.679,1.575Z" style="fill:#f8f8f8;fill-rule:nonzero;"/>
  </g>
</svg>