<svg width="150px" height="380px" version="1.1" xmlns="http://www.w3.org/2000/svg" xmlns:xlink="http://www.w3.org/1999/xlink" xml:space="preserve" xmlns:serif="http://www.serif.com/" style="fill-rule:evenodd;clip-rule:evenodd;stroke-linecap:round;stroke-miterlimit:10;">
  <defs>
    <linearGradient id="_Linear1" x1="0" y1="0" x2="1" y2="0" gradientUnits="userSpaceOnUse" gradientTransform="matrix(0.007008,-37.8989,37.8989,0.007008,75.2834,112.195)">
      <stop offset="0" style="stop-color:#101010;stop-opacity:1"/>
      <stop offset="1" style="stop-color:#101010;stop-opacity:1"/>
    </linearGradient>
    <linearGradient id="_Linear2" x1="0" y1="0" x2="1" y2="0" gradientUnits="userSpaceOnUse" gradientTransform="matrix(-4.88,-92.58,92.58,-4.88,277.54,345.91)">
      <stop offset="0" style="stop-color:#101010;stop-opacity:1"/>
      <stop offset="1" style="stop-color:#101010;stop-opacity:1"/>
    </linearGradient>
    <linearGradient id="_Linear3" x1="0" y1="0" x2="1" y2="0" gradientUnits="userSpaceOnUse" gradientTransform="matrix(-4.75,94.86,-94.86,-4.75,277.54,158.47)">
      <stop offset="0" style="stop-color:#101010;stop-opacity:1"/>
      <stop offset="1" style="stop-color:#101010;stop-opacity:1"/>
    </linearGradient>
    <linearGradient id="_Linear4" x1="0" y1="0" x2="1" y2="0" gradientUnits="userSpaceOnUse" gradientTransform="matrix(1.15392e-16,-1.8845,1.8845,1.15392e-16,56.519,1.9362)">
      <stop offset="0" style="stop-color:#101010;stop-opacity:1"/>
      <stop offset="1" style="stop-color:#101010;stop-opacity:1"/>
    </linearGradient>
  </defs>
  <g id="Calque1">
    <g>
      <rect x="0" y="0" width="150" height="380" style="fill:url(#_Linear1);"/>
      <rect x="0" y="253.33" width="150" height="126.67" style="fill:url(#_Linear2);"/>
      <rect x="0" y="126.67" width="150" height="126.67" style="fill:url(#_Linear3);"/>
      <rect x="0" y="0" width="150" height="380" style="fill:rgb(16,53,80);fill-opacity:0.1;"/>
      <rect x="0" y="0" width="150" height="2" style="fill:url(#_Linear4);"/>
    </g>
    <g>
      <g>
        <path d="M62.9,363.496l3.443,10.383c0.322,0.968 0.909,1.451 1.756,1.451c0.835,0 1.414,-0.476 1.737,-1.435l3.46,-10.398l-2.66,0l-2.574,8.318l-2.49,-8.318l-2.672,-0.001Zm10.598,0l0,8.793c0,0.736 0.078,1.265 0.234,1.588c0.423,0.881 1.214,1.32 2.373,1.32l3.243,0c1.126,0 1.912,-0.429 2.357,-1.287c0.168,-0.324 0.25,-0.87 0.25,-1.639l0,-8.775l-2.506,0l0,8.658l-0.018,0.084c-0.056,0.29 -0.34,0.436 -0.853,0.436l-1.705,0c-0.535,0 -0.826,-0.157 -0.87,-0.469l0,-8.709l-2.505,0Zm9.611,0l0,8.842c0,0.914 0.19,1.598 0.569,2.049c0.378,0.452 1.019,0.717 1.922,0.795c0.123,0.011 0.268,0.015 0.435,0.015l4.664,0l0.016,-2.523l-4.463,0c-0.424,0 -0.634,-0.178 -0.634,-0.535l0,-8.643l-2.509,0Zm7.69,0l0,2.525l2.49,0l0,9.176l2.508,0l0,-9.176l2.523,0l0,-2.525l-7.521,0Z" style="fill:rgb(102,102,102);fill-rule:nonzero;"/>
        <path d="M59.3,369.416c0,-4.509 -3.655,-8.165 -8.164,-8.165c-4.509,0 -8.165,3.656 -8.165,8.165c0,4.509 3.656,8.165 8.165,8.165c4.509,0 8.164,-3.656 8.164,-8.165Z" style="fill:rgb(117,117,117);fill-rule:nonzero;stroke:rgb(53,53,53);stroke-width:0.61px;"/>
        <g>
          <path d="M49.32,374.389l0.553,-0.89l-1.064,-2.393l-2.216,-2.284l0.46,3.101l0.597,1.28l0.833,1.263l0.837,-0.077Z" style="fill:rgb(43,43,43);fill-rule:nonzero;"/>
          <path d="M53.05,374.399l-0.553,-0.891l1.064,-2.393l2.216,-2.284l-0.46,3.101l-0.597,1.28l-0.833,1.264l-0.837,-0.077Z" style="fill:#101010;fill-rule:nonzero;"/>
          <path d="M48.64,363.359l2.584,-0.661l0,13.448l-1.349,-2.651l-1.061,-2.385l-1.022,-0.581l-2.052,-2.921l-0.057,-0.775l1.148,-2.067l1.809,-1.407Z" style="fill:rgb(66,66,66);fill-rule:nonzero;"/>
          <path d="M53.8,363.359l-2.584,-0.66l0,13.448l1.35,-2.651l1.06,-2.385l1.023,-0.581l2.051,-2.921l0.058,-0.775l-1.149,-2.068l-1.809,-1.407Z" style="fill:rgb(51,51,51);fill-rule:nonzero;"/>
          <path d="M49.5,369.239l1.723,-1.685l0,1.23l-1.723,1.718l0,-1.263" style="fill:rgb(76,76,76);fill-rule:nonzero;"/>
          <path d="M51.22,368.779l-1.723,1.718l0.377,3.004l1.346,2.643l0,-7.365Z" style="fill:rgb(91,91,91);fill-rule:nonzero;"/>
          <path d="M51.22,376.149l-1.346,-2.643l1.346,-0.635l0,3.278Z" style="fill:rgb(51,51,51);fill-rule:nonzero;"/>
          <path d="M49.5,370.499l0,-1.264l-1.249,-1.579l-1.477,-1.19l-0.001,0.932l0.775,1.823l1.952,1.278Z" style="fill:#f8f8f8;fill-rule:nonzero;"/>
          <path d="M52.94,369.239l-1.722,-1.684l0,1.23l1.722,1.718l0,-1.264" style="fill:rgb(45,45,45);fill-rule:nonzero;"/>
          <path d="M51.22,368.779l1.722,1.718l-0.376,3.004l-1.347,2.643l0.001,-7.365Z" style="fill:rgb(53,53,53);fill-rule:nonzero;"/>
          <path d="M51.22,376.149l1.347,-2.643l-1.346,-0.635l-0.001,3.278Z" style="fill:#101010;fill-rule:nonzero;"/>
          <path d="M52.94,370.499l0,-1.264l1.249,-1.579l1.478,-1.19l0.001,0.932l-0.775,1.823l-1.953,1.278Z" style="fill:#f8f8f8;fill-rule:nonzero;"/>
          <path d="M48.65,363.339l2.566,4.216l-0.005,-4.87" style="fill:rgb(56,56,56);fill-rule:nonzero;"/>
          <path d="M53.78,363.339l-2.566,4.215l0.006,-4.87" style="fill:rgb(45,45,45);fill-rule:nonzero;"/>
          <path d="M48.81,371.109l0.688,-0.61l0.375,3.006l-1.063,-2.396Z" style="fill:rgb(51,51,51);fill-rule:nonzero;"/>
          <path d="M53.63,371.129l-0.688,-0.61l-0.375,3.006l1.063,-2.396Z" style="fill:rgb(28,28,28);fill-rule:nonzero;"/>
        </g>
      </g>
      <path d="M25.095,350.84l0,6.035l1.57,0l0,-6.035l-1.57,0Zm2.834,0l0,6.035l1.568,0l0,-3.689l2.897,3.689l1.56,0l0,-6.035l-1.56,0l0,3.691l-2.897,-3.691l-1.568,0Zm7.291,0l0,6.035l1.569,0l-0.001,-2l0.928,0c0.676,0 1.197,-0.177 1.557,-0.529c0.361,-0.352 0.541,-0.848 0.541,-1.488c0,-0.64 -0.18,-1.137 -0.541,-1.489c-0.36,-0.353 -0.881,-0.529 -1.557,-0.529l-2.496,0Zm5.426,0l0,3.498c0,0.94 0.216,1.626 0.648,2.059c0.432,0.432 1.093,0.646 1.985,0.646c0.892,0 1.552,-0.214 1.98,-0.646c0.428,-0.433 0.645,-1.119 0.645,-2.059l0,-3.498l-1.561,0l0,3.283c0,0.176 -0.01,0.355 -0.019,0.539c-0.012,0.184 -0.056,0.352 -0.125,0.5c-0.068,0.148 -0.176,0.273 -0.316,0.365c-0.14,0.092 -0.344,0.139 -0.604,0.139c-0.26,0 -0.463,-0.047 -0.607,-0.139c-0.144,-0.092 -0.249,-0.217 -0.317,-0.365c-0.068,-0.148 -0.109,-0.316 -0.121,-0.5c-0.012,-0.184 -0.02,-0.363 -0.02,-0.539l0,-3.283l-1.568,0Zm5.953,0l0,1.33l1.289,0l0,4.705l1.57,0l0,-4.705l1.287,0l0,-1.33l-4.146,0Zm-9.81,1.266l0.519,0c0.576,0 0.865,0.252 0.865,0.752c0,0.5 -0.289,0.752 -0.865,0.752l-0.519,0l0,-1.504Z" style="fill:#f8f8f8;"/>
      <path d="M25.19,321.32l0,3.529l1.412,0l0,0.997l-2.589,0l0,-4.526l1.177,0Z" style="fill:rgb(140,140,140);fill-rule:nonzero;"/>
      <path d="M49.827,323.35l0.224,0c0.232,0 0.408,-0.048 0.532,-0.144c0.124,-0.096 0.188,-0.236 0.188,-0.416c0,-0.181 -0.064,-0.317 -0.188,-0.413c-0.124,-0.096 -0.3,-0.144 -0.532,-0.144l-0.224,0l0,1.117Zm2.589,2.501l-1.465,0l-1.124,-1.741l0,1.741l-1.177,0l0,-4.526l1.833,0c0.252,0 0.472,0.04 0.66,0.112c0.188,0.076 0.34,0.176 0.464,0.304c0.12,0.128 0.213,0.276 0.277,0.444c0.06,0.168 0.092,0.348 0.092,0.541c0,0.344 -0.084,0.624 -0.249,0.836c-0.168,0.212 -0.412,0.36 -0.736,0.436l1.425,1.853Z" style="fill:rgb(140,140,140);fill-rule:nonzero;"/>
    </g>
    <path d="M22.688,317.99c-5.507,0 -9.988,4.481 -9.988,9.988l0,13.145c0,0.801 1.201,0.801 1.201,0l0,-13.145c0,-4.857 3.93,-8.789 8.787,-8.789l30.464,0c4.857,0 8.789,3.932 8.789,8.789l0,13.145c0,0.843 1.231,0.831 1.199,0l0,-13.145c0,-5.506 -4.481,-9.988 -9.988,-9.988l-30.464,0Z" style="fill:#f8f8f8;"/>
    <path d="M96.599,317.99c-5.359,0 -9.723,4.362 -9.723,9.721l0,23.115c0,5.36 4.364,9.722 9.723,9.722l30.994,0c5.36,0 9.723,-4.363 9.723,-9.722l0,-23.115c0,-5.359 -4.363,-9.721 -9.723,-9.721l-30.994,0Z" style="fill:none;stroke:#f8f8f8;stroke-width:1.2px;stroke-linecap:butt;stroke-miterlimit:4;"/>
    <g>
      <path d="M97.765,350.76c-0.493,0 -0.942,0.08 -1.35,0.244c-0.408,0.16 -0.758,0.389 -1.05,0.678c-0.293,0.288 -0.526,0.624 -0.69,1.008c-0.164,0.388 -0.248,0.805 -0.248,1.254c0,0.448 0.084,0.868 0.248,1.252c0.164,0.388 0.397,0.723 0.69,1.011c0.292,0.289 0.642,0.512 1.05,0.676c0.408,0.164 0.857,0.244 1.35,0.244c0.484,0 0.932,-0.08 1.34,-0.244c0.412,-0.164 0.763,-0.387 1.06,-0.676c0.296,-0.288 0.53,-0.623 0.694,-1.011c0.168,-0.384 0.248,-0.804 0.248,-1.252c0,-0.449 -0.08,-0.866 -0.248,-1.254c-0.164,-0.384 -0.398,-0.72 -0.694,-1.008c-0.297,-0.289 -0.648,-0.518 -1.06,-0.678c-0.408,-0.164 -0.856,-0.244 -1.34,-0.244Zm4.334,0.168l0,3.494c0,0.94 0.216,1.626 0.648,2.059c0.433,0.432 1.093,0.646 1.985,0.646c0.889,0 1.548,-0.214 1.98,-0.646c0.428,-0.433 0.645,-1.119 0.645,-2.059l0,-3.494l-1.561,0l0,3.279c0,0.176 -0.01,0.355 -0.019,0.539c-0.016,0.184 -0.057,0.352 -0.125,0.5c-0.072,0.148 -0.174,0.274 -0.314,0.366c-0.14,0.092 -0.345,0.138 -0.606,0.138c-0.26,0 -0.465,-0.046 -0.609,-0.138c-0.144,-0.092 -0.247,-0.218 -0.314,-0.366c-0.068,-0.148 -0.109,-0.316 -0.122,-0.5c-0.012,-0.184 -0.019,-0.363 -0.019,-0.539l0,-3.279l-1.569,0Zm5.955,0l0,1.326l1.283,0l0,4.705l1.569,0l0,-4.705l1.289,0l0,-1.326l-4.141,0Zm4.838,0l0,6.031l1.568,0l0,-2l0.928,0c0.676,0 1.197,-0.177 1.557,-0.529c0.361,-0.352 0.541,-0.848 0.541,-1.488c0,-0.64 -0.18,-1.133 -0.541,-1.485c-0.36,-0.353 -0.881,-0.529 -1.557,-0.529l-2.496,0Zm5.422,0l0,3.494c0,0.94 0.216,1.626 0.648,2.059c0.433,0.432 1.097,0.646 1.985,0.646c0.893,0 1.552,-0.214 1.98,-0.646c0.428,-0.433 0.645,-1.119 0.645,-2.059l0,-3.494l-1.561,0l0,3.279c0,0.176 -0.01,0.355 -0.02,0.539c-0.012,0.184 -0.057,0.352 -0.125,0.5c-0.068,0.148 -0.176,0.274 -0.316,0.366c-0.14,0.092 -0.34,0.138 -0.604,0.138c-0.26,0 -0.463,-0.046 -0.607,-0.138c-0.144,-0.092 -0.249,-0.218 -0.317,-0.366c-0.064,-0.148 -0.105,-0.316 -0.121,-0.5c-0.012,-0.184 -0.02,-0.363 -0.02,-0.539l0,-3.279l-1.567,0Zm5.955,0l0,1.326l1.287,0l0,4.705l1.57,0l0,-4.705l1.284,0l0,-1.326l-4.141,0Zm-9.809,1.262l0.52,0c0.576,0 0.865,0.252 0.865,0.752c0,0.504 -0.289,0.752 -0.865,0.752l-0.52,0l0,-1.504Zm-16.695,0.088c0.228,0 0.445,0.045 0.653,0.125c0.204,0.084 0.383,0.199 0.539,0.347c0.16,0.152 0.285,0.328 0.373,0.528c0.092,0.204 0.137,0.425 0.137,0.666c0,0.24 -0.045,0.464 -0.137,0.664c-0.088,0.204 -0.213,0.379 -0.373,0.527c-0.156,0.152 -0.335,0.264 -0.539,0.348c-0.208,0.084 -0.425,0.125 -0.653,0.125c-0.233,0 -0.448,-0.041 -0.652,-0.125c-0.208,-0.084 -0.389,-0.196 -0.541,-0.348c-0.156,-0.148 -0.279,-0.323 -0.367,-0.527c-0.092,-0.2 -0.137,-0.424 -0.137,-0.664c0,-0.241 0.045,-0.462 0.137,-0.666c0.088,-0.2 0.211,-0.376 0.367,-0.528c0.152,-0.148 0.333,-0.263 0.541,-0.347c0.204,-0.08 0.419,-0.125 0.652,-0.125Z" style="fill:#f8f8f8;fill-rule:nonzero;"/>
      <path d="M99.377,321.32l0,3.529l1.412,0l0,0.997l-2.589,0l0,-4.526l1.177,0Z" style="fill:rgb(140,140,140);fill-rule:nonzero;"/>
      <path d="M124.01,323.35l0.224,0c0.232,0 0.408,-0.048 0.532,-0.144c0.124,-0.096 0.188,-0.236 0.188,-0.416c0,-0.181 -0.064,-0.317 -0.188,-0.413c-0.124,-0.096 -0.3,-0.144 -0.532,-0.144l-0.224,0l0,1.117Zm2.589,2.501l-1.465,0l-1.124,-1.741l0,1.741l-1.177,0l0,-4.526l1.833,0c0.252,0 0.472,0.04 0.66,0.112c0.188,0.076 0.34,0.176 0.464,0.304c0.12,0.128 0.213,0.276 0.277,0.444c0.06,0.168 0.092,0.348 0.092,0.541c0,0.344 -0.084,0.624 -0.249,0.836c-0.168,0.212 -0.412,0.36 -0.736,0.436l1.425,1.853Z" style="fill:rgb(140,140,140);fill-rule:nonzero;"/>
    </g>
    <path d="M35.061,38.559l-1.42,-5.112l1.281,0l1.005,3.58l1.072,-3.58l1.191,0l0.964,3.599l1.084,-3.599l0.96,0l-1.519,5.112l-1.321,0l-0.932,-3.506l-1.043,3.506l-1.322,0Z" style="fill:#f8f8f8;fill-rule:nonzero;"/>
    <path d="M44.89,38.009c-0.46,0.444 -0.952,0.666 -1.476,0.666c-0.447,0 -0.81,-0.136 -1.09,-0.409c-0.279,-0.273 -0.419,-0.627 -0.419,-1.062c0,-0.565 0.226,-1 0.678,-1.306c0.451,-0.306 1.098,-0.458 1.938,-0.458l0.369,0l0,-0.466c0,-0.531 -0.303,-0.796 -0.909,-0.796c-0.536,0 -1.08,0.152 -1.629,0.456l0,-0.95c0.625,-0.236 1.242,-0.353 1.853,-0.353c1.338,0 2.006,0.532 2.006,1.596l0,2.263c0,0.4 0.129,0.6 0.387,0.6c0.046,0 0.108,-0.005 0.182,-0.018l0.033,0.773c-0.293,0.087 -0.55,0.13 -0.773,0.13c-0.566,0 -0.929,-0.222 -1.09,-0.666l-0.06,0Zm0,-0.74l0,-1.038l-0.326,0c-0.891,0 -1.337,0.279 -1.337,0.838c0,0.19 0.065,0.349 0.193,0.478c0.129,0.128 0.288,0.192 0.478,0.192c0.323,0 0.653,-0.156 0.992,-0.47Z" style="fill:#f8f8f8;fill-rule:nonzero;"/>
    <path d="M49.252,38.559l-1.951,-5.112l1.452,0l1.43,3.687l1.42,-3.687l0.996,0l-1.969,5.112l-1.378,0Z" style="fill:#f8f8f8;fill-rule:nonzero;"/>
    <path d="M57.809,38.386c-0.655,0.193 -1.276,0.289 -1.862,0.289c-0.854,0 -1.527,-0.242 -2.021,-0.726c-0.494,-0.484 -0.741,-1.145 -0.741,-1.983c0,-0.792 0.227,-1.428 0.678,-1.911c0.452,-0.483 1.048,-0.724 1.791,-0.724c0.747,0 1.293,0.236 1.639,0.707c0.344,0.472 0.516,1.219 0.516,2.239l-3.171,0c0.093,0.975 0.629,1.462 1.606,1.462c0.463,0 0.984,-0.106 1.565,-0.32l0,0.967Zm-3.189,-2.886l1.834,0c0,-0.872 -0.281,-1.307 -0.843,-1.307c-0.57,0 -0.901,0.435 -0.991,1.307Z" style="fill:#f8f8f8;fill-rule:nonzero;"/>
    <path d="M65.594,38.559l0,-0.964c-0.355,0.72 -0.912,1.08 -1.672,1.08c-0.614,0 -1.097,-0.225 -1.449,-0.675c-0.35,-0.45 -0.525,-1.069 -0.525,-1.857c0,-0.857 0.197,-1.54 0.593,-2.049c0.396,-0.509 0.928,-0.763 1.595,-0.763c0.533,0 1.019,0.21 1.458,0.633l0,-2.756l1.381,0l0,7.351l-1.381,0Zm0,-3.776c-0.333,-0.372 -0.689,-0.559 -1.067,-0.559c-0.338,0 -0.608,0.163 -0.811,0.489c-0.201,0.327 -0.301,0.764 -0.301,1.313c0,1.046 0.334,1.569 1.004,1.569c0.41,0 0.802,-0.262 1.175,-0.786l0,-2.026Z" style="fill:#f8f8f8;fill-rule:nonzero;"/>
    <path d="M72.856,38.386c-0.656,0.193 -1.276,0.289 -1.863,0.289c-0.853,0 -1.526,-0.242 -2.02,-0.726c-0.493,-0.484 -0.74,-1.145 -0.74,-1.983c0,-0.792 0.226,-1.428 0.677,-1.911c0.452,-0.483 1.049,-0.724 1.79,-0.724c0.749,0 1.295,0.236 1.639,0.707c0.344,0.472 0.517,1.219 0.517,2.239l-3.17,0c0.092,0.975 0.628,1.462 1.606,1.462c0.462,0 0.984,-0.106 1.564,-0.32l0,0.967Zm-3.189,-2.886l1.834,0c0,-0.872 -0.281,-1.307 -0.842,-1.307c-0.572,0 -0.902,0.435 -0.992,1.307Z" style="fill:#f8f8f8;fill-rule:nonzero;"/>
    <path d="M74.146,38.396l0,-1.01c0.682,0.286 1.266,0.428 1.75,0.428c0.565,0 0.848,-0.192 0.848,-0.577c0,-0.248 -0.233,-0.465 -0.699,-0.652l-0.466,-0.186c-0.506,-0.205 -0.867,-0.426 -1.084,-0.662c-0.217,-0.235 -0.326,-0.527 -0.326,-0.874c0,-0.485 0.184,-0.861 0.554,-1.13c0.369,-0.268 0.886,-0.402 1.55,-0.402c0.416,0 0.911,0.06 1.485,0.182l0,0.968c-0.553,-0.193 -1.01,-0.288 -1.373,-0.288c-0.571,0 -0.857,0.176 -0.857,0.53c0,0.233 0.211,0.43 0.633,0.591l0.401,0.153c0.599,0.227 1.015,0.457 1.25,0.69c0.234,0.233 0.352,0.532 0.352,0.899c0,0.48 -0.2,0.871 -0.599,1.171c-0.399,0.298 -0.918,0.448 -1.557,0.448c-0.615,0 -1.236,-0.093 -1.862,-0.279Z" style="fill:#f8f8f8;fill-rule:nonzero;"/>
    <path d="M82.307,38.531c-0.33,0.096 -0.588,0.144 -0.777,0.144c-1.196,0 -1.793,-0.559 -1.793,-1.676l0,-2.691l-0.573,0l0,-0.861l0.573,0l0,-0.861l1.378,-0.159l0,1.02l1.094,0l0,0.861l-1.094,0l0,2.509c0,0.628 0.256,0.942 0.768,0.942c0.118,0 0.26,-0.023 0.424,-0.066l0,0.838Z" style="fill:#f8f8f8;fill-rule:nonzero;"/>
    <path d="M83.536,38.559l0,-5.112l1.377,0l0.001,0.964c0.356,-0.72 0.899,-1.08 1.629,-1.08c0.087,0 0.173,0.009 0.256,0.027l0,1.229c-0.195,-0.07 -0.377,-0.106 -0.544,-0.106c-0.55,0 -0.996,0.278 -1.342,0.833l0,3.245l-1.377,0Z" style="fill:#f8f8f8;fill-rule:nonzero;"/>
    <path d="M91.031,38.559l0,-0.964c-0.447,0.72 -1.027,1.08 -1.74,1.08c-0.457,0 -0.817,-0.144 -1.08,-0.433c-0.265,-0.289 -0.396,-0.683 -0.396,-1.182l0,-3.613l1.377,0l0,3.273c0,0.58 0.195,0.87 0.582,0.87c0.435,0 0.854,-0.308 1.257,-0.926l0,-3.217l1.379,0l0,5.112l-1.379,0Z" style="fill:#f8f8f8;fill-rule:nonzero;"/>
    <path d="M97.903,38.447c-0.571,0.152 -1.1,0.228 -1.587,0.228c-0.817,0 -1.461,-0.24 -1.935,-0.718c-0.473,-0.48 -0.71,-1.133 -0.71,-1.958c0,-0.836 0.243,-1.489 0.731,-1.961c0.488,-0.471 1.161,-0.707 2.021,-0.707c0.416,0 0.895,0.066 1.439,0.2l0,0.996c-0.566,-0.183 -1.017,-0.274 -1.356,-0.274c-0.413,0 -0.744,0.158 -0.996,0.474c-0.251,0.317 -0.377,0.737 -0.377,1.262c0,0.537 0.136,0.967 0.408,1.29c0.271,0.323 0.633,0.484 1.086,0.484c0.413,0 0.839,-0.09 1.276,-0.27l0,0.954Z" style="fill:#f8f8f8;fill-rule:nonzero;"/>
    <path d="M101.842,38.531c-0.33,0.096 -0.588,0.144 -0.778,0.144c-1.195,0 -1.792,-0.559 -1.792,-1.676l0,-2.691l-0.573,0l0,-0.861l0.573,0l0,-0.861l1.378,-0.159l0,1.02l1.094,0l0,0.861l-1.094,0l0,2.509c0,0.628 0.256,0.942 0.768,0.942c0.118,0 0.259,-0.023 0.424,-0.066l0,0.838Z" style="fill:#f8f8f8;fill-rule:nonzero;"/>
    <path d="M103.071,38.559l0,-5.112l1.378,0l0,5.112l-1.378,0Zm0,-5.973l0,-1.151l1.378,0l0,1.151l-1.378,0Z" style="fill:#f8f8f8;fill-rule:nonzero;"/>
    <path d="M108.317,38.675c-0.797,0 -1.431,-0.241 -1.901,-0.724c-0.47,-0.483 -0.706,-1.132 -0.706,-1.948c0,-0.826 0.238,-1.477 0.711,-1.956c0.473,-0.477 1.116,-0.716 1.929,-0.716c0.816,0 1.461,0.239 1.934,0.716c0.474,0.479 0.711,1.127 0.711,1.947c0,0.838 -0.237,1.495 -0.713,1.969c-0.474,0.475 -1.129,0.712 -1.965,0.712Zm0.024,-0.861c0.791,0 1.187,-0.607 1.187,-1.82c0,-0.556 -0.104,-0.995 -0.314,-1.318c-0.21,-0.323 -0.498,-0.483 -0.864,-0.483c-0.363,0 -0.649,0.16 -0.859,0.483c-0.209,0.323 -0.314,0.765 -0.314,1.327c0,0.556 0.104,0.996 0.312,1.322c0.208,0.327 0.492,0.489 0.852,0.489Z" style="fill:#f8f8f8;fill-rule:nonzero;"/>
    <path d="M112.261,38.559l0,-5.112l1.378,0l0,0.964c0.45,-0.72 1.031,-1.08 1.741,-1.08c0.457,0 0.817,0.144 1.08,0.433c0.264,0.289 0.396,0.683 0.396,1.182l0,3.613l-1.378,0l0,-3.273c0,-0.58 -0.193,-0.87 -0.577,-0.87c-0.437,0 -0.859,0.308 -1.262,0.926l0,3.217l-1.378,0Z" style="fill:#f8f8f8;fill-rule:nonzero;"/>
    <path d="M41.148,25.107l0.566,0c0.428,0 0.81,-0.067 1.145,-0.202c0.336,-0.134 0.618,-0.318 0.849,-0.554c0.232,-0.234 0.407,-0.512 0.529,-0.836c0.121,-0.322 0.182,-0.677 0.182,-1.063c0,-0.377 -0.063,-0.73 -0.189,-1.056c-0.125,-0.328 -0.304,-0.609 -0.534,-0.843c-0.231,-0.235 -0.514,-0.42 -0.85,-0.553c-0.334,-0.134 -0.712,-0.202 -1.132,-0.202l-0.566,0l0,5.309Zm-2.465,-7.396l3.648,0c0.646,0 1.252,0.129 1.818,0.388c0.566,0.262 1.06,0.606 1.483,1.039c0.424,0.432 0.758,0.935 1.001,1.509c0.243,0.574 0.365,1.176 0.365,1.805c0,0.621 -0.12,1.219 -0.359,1.793c-0.238,0.574 -0.57,1.08 -0.993,1.516c-0.424,0.436 -0.919,0.784 -1.485,1.044c-0.566,0.259 -1.176,0.39 -1.83,0.39l-3.648,0l0,-9.484Z" style="fill:#f8f8f8;fill-rule:nonzero;"/>
    <path d="M53.967,19.798l-2.931,0l0,1.585l2.768,0l0,2.088l-2.768,0l0,1.636l2.931,0l0,2.088l-5.396,0l0,-9.484l5.396,0l0,2.087Z" style="fill:#f8f8f8;fill-rule:nonzero;"/>
    <path d="M58.207,25.282l0.541,0c0.62,0 1.064,-0.078 1.333,-0.238c0.268,-0.16 0.402,-0.416 0.402,-0.767c0,-0.353 -0.134,-0.609 -0.402,-0.767c-0.269,-0.16 -0.713,-0.24 -1.333,-0.24l-0.541,0l0,2.012Zm0,-3.849l0.453,0c0.771,0 1.157,-0.306 1.157,-0.917c0,-0.613 -0.386,-0.919 -1.157,-0.919l-0.453,0l0,1.836Zm-2.467,-3.722l3.674,0c0.872,0 1.535,0.209 1.988,0.628c0.453,0.42 0.679,1.023 0.679,1.812c0,0.478 -0.086,0.873 -0.258,1.188c-0.172,0.315 -0.434,0.58 -0.786,0.799c0.352,0.068 0.652,0.17 0.899,0.309c0.248,0.137 0.449,0.307 0.604,0.509c0.155,0.201 0.266,0.427 0.334,0.679c0.066,0.252 0.1,0.519 0.1,0.806c0,0.443 -0.077,0.837 -0.232,1.181c-0.156,0.345 -0.374,0.634 -0.655,0.868c-0.281,0.235 -0.622,0.412 -1.024,0.529c-0.404,0.117 -0.857,0.176 -1.359,0.176l-3.964,0l0,-9.484Z" style="fill:#f8f8f8;fill-rule:nonzero;"/>
    <path d="M66.911,21.949l0.466,0c0.486,0 0.859,-0.1 1.12,-0.301c0.26,-0.201 0.389,-0.492 0.389,-0.869c0,-0.377 -0.129,-0.666 -0.389,-0.868c-0.261,-0.201 -0.634,-0.301 -1.12,-0.301l-0.466,0l0,2.339Zm5.422,5.246l-3.069,0l-2.353,-3.648l0,3.648l-2.465,0l0,-9.484l3.837,0c0.529,0 0.989,0.077 1.384,0.231c0.394,0.156 0.719,0.368 0.975,0.636c0.255,0.269 0.448,0.579 0.578,0.931c0.13,0.353 0.195,0.729 0.195,1.132c0,0.722 -0.174,1.306 -0.522,1.755c-0.349,0.449 -0.861,0.753 -1.541,0.913l2.981,3.886Z" style="fill:#f8f8f8;fill-rule:nonzero;"/>
    <rect x="73.365" y="17.711" width="2.465" height="9.484" style="fill:#f8f8f8;"/>
    <path d="M82.976,23.672l-1.108,-3.156l-1.107,3.156l2.215,0Zm0.654,1.875l-3.523,0l-0.566,1.648l-2.629,0l3.611,-9.484l2.692,0l3.61,9.484l-2.629,0l-0.566,-1.648Z" style="fill:#f8f8f8;fill-rule:nonzero;"/>
    <path d="M91.09,19.798l0,7.397l-2.466,0l0,-7.397l-2.025,0l0,-2.087l6.516,0l0,2.087l-2.025,0Z" style="fill:#f8f8f8;fill-rule:nonzero;"/>
    <path d="M96.675,17.711l0,5.157c0,0.277 0.011,0.559 0.032,0.848c0.02,0.29 0.084,0.551 0.188,0.787c0.105,0.235 0.27,0.425 0.496,0.573c0.227,0.146 0.546,0.22 0.957,0.22c0.411,0 0.728,-0.074 0.949,-0.22c0.223,-0.148 0.389,-0.338 0.497,-0.573c0.109,-0.236 0.175,-0.497 0.196,-0.787c0.021,-0.289 0.031,-0.571 0.031,-0.848l0,-5.157l2.453,0l0,5.496c0,1.476 -0.337,2.554 -1.012,3.233c-0.676,0.679 -1.713,1.019 -3.114,1.019c-1.4,0 -2.44,-0.34 -3.12,-1.019c-0.679,-0.679 -1.018,-1.757 -1.018,-3.233l0,-5.496l2.465,0Z" style="fill:#f8f8f8;fill-rule:nonzero;"/>
    <path d="M109.67,20.137c-0.269,-0.217 -0.537,-0.379 -0.806,-0.483c-0.267,-0.105 -0.527,-0.157 -0.779,-0.157c-0.319,0 -0.579,0.074 -0.78,0.226c-0.201,0.151 -0.303,0.348 -0.303,0.591c0,0.168 0.051,0.305 0.152,0.415c0.1,0.109 0.232,0.203 0.396,0.283c0.164,0.08 0.349,0.149 0.554,0.208c0.205,0.059 0.409,0.121 0.61,0.188c0.804,0.269 1.394,0.627 1.767,1.076c0.373,0.449 0.56,1.034 0.56,1.754c0,0.488 -0.082,0.927 -0.245,1.321c-0.164,0.395 -0.403,0.733 -0.717,1.013c-0.314,0.281 -0.7,0.499 -1.157,0.655c-0.457,0.154 -0.975,0.232 -1.555,0.232c-1.198,0 -2.309,-0.356 -3.333,-1.068l1.057,-1.989c0.369,0.328 0.734,0.57 1.094,0.73c0.361,0.16 0.718,0.238 1.069,0.238c0.404,0 0.703,-0.092 0.901,-0.275c0.197,-0.186 0.295,-0.395 0.295,-0.63c0,-0.143 -0.025,-0.265 -0.076,-0.371c-0.05,-0.105 -0.134,-0.201 -0.251,-0.289c-0.118,-0.089 -0.271,-0.17 -0.46,-0.246c-0.188,-0.075 -0.417,-0.159 -0.686,-0.25c-0.318,-0.102 -0.63,-0.212 -0.936,-0.335c-0.307,-0.121 -0.58,-0.282 -0.818,-0.483c-0.24,-0.203 -0.432,-0.456 -0.579,-0.762c-0.147,-0.306 -0.22,-0.694 -0.22,-1.163c0,-0.47 0.077,-0.896 0.233,-1.277c0.154,-0.382 0.373,-0.709 0.654,-0.982c0.281,-0.271 0.625,-0.483 1.032,-0.635c0.406,-0.151 0.862,-0.227 1.364,-0.227c0.47,0 0.96,0.066 1.472,0.196c0.511,0.129 1.003,0.32 1.471,0.572l-0.98,1.924Z" style="fill:#f8f8f8;fill-rule:nonzero;"/>
    <g>
      <path d="M50.085,247.13c-5.706,0 -11.412,1.934 -16.027,5.805c-9.229,7.745 -11.587,21.128 -5.564,31.564c0.391,0.722 1.468,0.101 1.039,-0.6c-5.733,-9.934 -3.488,-22.672 5.297,-30.045c8.785,-7.369 21.725,-7.369 30.51,0c8.785,7.373 11.029,20.111 5.296,30.045c-0.429,0.701 0.648,1.322 1.039,0.6c6.023,-10.436 3.666,-23.819 -5.564,-31.564c-4.615,-3.871 -10.32,-5.805 -16.025,-5.805l-0.001,0Zm-18.883,41.52c-2.371,0 -4.307,1.936 -4.307,4.307c0,2.371 1.936,4.304 4.307,4.304c2.371,0 4.307,-1.933 4.307,-4.304c0,-2.371 -1.936,-4.307 -4.307,-4.307Zm37.766,0c-2.371,0 -4.305,1.934 -4.305,4.305c0,2.371 1.934,4.306 4.305,4.306c2.371,0 4.307,-1.935 4.307,-4.306c0,-2.371 -1.936,-4.305 -4.307,-4.305Zm-37.766,1.199c1.722,0 3.105,1.385 3.105,3.108c0,1.722 -1.383,3.105 -3.105,3.105c-1.723,0 -3.106,-1.383 -3.106,-3.105c0,-1.723 1.383,-3.108 3.106,-3.108Z" style="fill:#f8f8f8;fill-rule:nonzero;"/>
      <path d="M112.86,247.13c-0.332,0.006 -0.596,0.28 -0.59,0.611l0.002,1.409c-2.52,0.129 -5.006,1.042 -7.047,2.755c-4.419,3.708 -5.55,10.112 -2.668,15.105l0.301,0.52l10.035,-5.793l10.035,5.793l0.301,-0.52c2.882,-4.993 1.752,-11.398 -2.668,-15.105c-2.052,-1.722 -4.555,-2.636 -7.09,-2.757l-0.002,-1.411c0.004,-0.338 -0.271,-0.612 -0.609,-0.607l0,0Zm-0.586,3.219l0.02,10.35l-8.903,5.14c-2.209,-4.402 -1.209,-9.813 2.606,-13.014c1.819,-1.527 4.031,-2.348 6.277,-2.476Zm1.199,0c2.26,0.121 4.488,0.94 6.317,2.476l0.002,0c3.815,3.201 4.813,8.612 2.603,13.014l-8.902,-5.14l-0.02,-10.35Zm8.852,16.951c-0.331,0.007 -0.926,0.28 -0.919,0.611l0.01,1.582l-1.606,0.008c-0.831,-0.028 -0.825,1.235 0.006,1.199l1.606,-0.008l0.01,1.629c-0.027,0.831 1.236,0.823 1.199,-0.008l-0.008,-1.625l1.603,-0.008c0.801,-0.004 0.795,-1.205 -0.006,-1.201l-1.605,0.008l-0.008,-1.584c0.002,-0.338 -0.276,-0.611 -0.614,-0.603l0.332,0Zm-16.092,2.056l-4.414,0.02c-0.801,0.004 -0.795,1.205 0.006,1.201l4.414,-0.021c0.831,0.027 0.824,-1.236 -0.006,-1.2Z" style="fill:#f8f8f8;fill-rule:nonzero;"/>
      <path d="M50.085,47.143c-5.706,0 -11.412,1.934 -16.027,5.805c-9.229,7.745 -11.587,21.128 -5.564,31.564c0.391,0.722 1.468,0.101 1.039,-0.6c-5.733,-9.934 -3.488,-22.672 5.297,-30.045c8.785,-7.369 21.725,-7.369 30.51,0c8.785,7.373 11.029,20.111 5.296,30.045c-0.429,0.701 0.648,1.322 1.039,0.6c6.023,-10.436 3.666,-23.819 -5.564,-31.564c-4.615,-3.871 -10.32,-5.805 -16.025,-5.805l-0.001,0Zm-18.883,41.52c-2.371,0 -4.307,1.936 -4.307,4.307c0,2.371 1.936,4.304 4.307,4.304c2.371,0 4.307,-1.933 4.307,-4.304c0,-2.371 -1.936,-4.307 -4.307,-4.307Zm37.766,0c-2.371,0 -4.305,1.934 -4.305,4.305c0,2.371 1.934,4.306 4.305,4.306c2.371,0 4.307,-1.935 4.307,-4.306c0,-2.371 -1.936,-4.305 -4.307,-4.305Zm-37.766,1.199c1.722,0 3.105,1.385 3.105,3.108c0,1.722 -1.383,3.105 -3.105,3.105c-1.723,0 -3.106,-1.383 -3.106,-3.105c0,-1.723 1.383,-3.108 3.106,-3.108Z" style="fill:#f8f8f8;fill-rule:nonzero;"/>
      <path d="M112.86,47.143c-0.332,0.006 -0.596,0.279 -0.59,0.611l0.002,1.409c-2.52,0.129 -5.006,1.042 -7.047,2.755c-4.419,3.708 -5.55,10.112 -2.668,15.105l0.301,0.52l10.035,-5.793l10.035,5.793l0.301,-0.52c2.882,-4.993 1.752,-11.398 -2.668,-15.105c-2.052,-1.722 -4.555,-2.636 -7.09,-2.757l-0.002,-1.411c0.004,-0.338 -0.271,-0.612 -0.609,-0.607l0,0Zm-0.586,3.219l0.02,10.35l-8.903,5.14c-2.209,-4.402 -1.209,-9.813 2.606,-13.014c1.819,-1.527 4.031,-2.348 6.277,-2.476Zm1.199,0c2.26,0.121 4.488,0.94 6.317,2.476l0.002,0c3.815,3.201 4.813,8.612 2.603,13.014l-8.902,-5.14l-0.02,-10.35Zm8.852,16.951c-0.331,0.007 -0.926,0.28 -0.919,0.611l0.01,1.582l-1.606,0.008c-0.831,-0.028 -0.825,1.235 0.006,1.199l1.606,-0.008l0.01,1.629c-0.027,0.831 1.236,0.823 1.199,-0.008l-0.008,-1.625l1.603,-0.008c0.801,-0.004 0.795,-1.205 -0.006,-1.201l-1.605,0.008l-0.008,-1.584c0.002,-0.338 -0.276,-0.611 -0.614,-0.603l0.332,0Zm-16.092,2.056l-4.414,0.02c-0.801,0.004 -0.795,1.205 0.006,1.201l4.414,-0.021c0.831,0.027 0.824,-1.236 -0.006,-1.2Z" style="fill:#f8f8f8;fill-rule:nonzero;"/>
    </g>
    <g>
      <path d="M46.178,99.875c-0.492,0 -0.941,0.08 -1.35,0.244c-0.408,0.164 -0.76,0.388 -1.052,0.676c-0.292,0.288 -0.524,0.623 -0.688,1.012c-0.164,0.388 -0.248,0.803 -0.248,1.252c0,0.448 0.084,0.865 0.248,1.254c0.164,0.388 0.396,0.723 0.688,1.011c0.292,0.288 0.644,0.512 1.052,0.676c0.409,0.164 0.858,0.244 1.35,0.244c0.484,0 0.932,-0.08 1.344,-0.244c0.412,-0.164 0.764,-0.388 1.06,-0.676c0.296,-0.288 0.528,-0.623 0.692,-1.011c0.164,-0.389 0.248,-0.806 0.248,-1.254c0,-0.449 -0.084,-0.864 -0.248,-1.252c-0.164,-0.389 -0.396,-0.724 -0.692,-1.012c-0.296,-0.288 -0.648,-0.512 -1.06,-0.676c-0.412,-0.164 -0.86,-0.244 -1.344,-0.244Zm-7.451,0.168l0,6.033l1.568,0l0,-2.369l1.721,0l0,-1.328l-1.721,0l0,-1.008l1.889,0l0,-1.328l-3.457,0Zm11.789,0l0,6.033l3.449,0l0,-1.328l-1.881,0l0,-4.705l-1.568,0Zm4.258,0l0,6.033l2.32,0c0.416,0 0.804,-0.084 1.164,-0.248c0.36,-0.164 0.677,-0.388 0.945,-0.664c0.268,-0.276 0.479,-0.601 0.631,-0.965c0.152,-0.364 0.229,-0.744 0.229,-1.14c0,-0.401 -0.077,-0.785 -0.233,-1.149c-0.156,-0.364 -0.366,-0.683 -0.634,-0.959c-0.269,-0.276 -0.586,-0.496 -0.946,-0.66c-0.36,-0.164 -0.744,-0.248 -1.156,-0.248l-2.32,0Zm1.568,1.328l0.359,0c0.268,0 0.509,0.043 0.721,0.127c0.212,0.084 0.391,0.205 0.539,0.354c0.148,0.148 0.262,0.327 0.342,0.535c0.08,0.208 0.119,0.431 0.119,0.672c0,0.244 -0.039,0.473 -0.115,0.677c-0.076,0.204 -0.188,0.384 -0.336,0.532c-0.148,0.148 -0.329,0.269 -0.541,0.353c-0.212,0.084 -0.457,0.127 -0.729,0.127l-0.359,0l0,-3.377Zm-10.164,0.023c0.228,0 0.448,0.041 0.652,0.125c0.204,0.084 0.387,0.2 0.543,0.348c0.156,0.148 0.281,0.323 0.373,0.527c0.092,0.205 0.135,0.424 0.135,0.665c0,0.24 -0.043,0.461 -0.135,0.666c-0.092,0.204 -0.217,0.379 -0.373,0.527c-0.156,0.148 -0.339,0.264 -0.543,0.348c-0.204,0.084 -0.424,0.125 -0.652,0.125c-0.228,0 -0.448,-0.041 -0.652,-0.125c-0.204,-0.084 -0.385,-0.2 -0.541,-0.348c-0.156,-0.148 -0.276,-0.323 -0.368,-0.527c-0.092,-0.205 -0.136,-0.426 -0.136,-0.666c0,-0.241 0.044,-0.46 0.136,-0.665c0.092,-0.204 0.212,-0.379 0.368,-0.527c0.156,-0.148 0.337,-0.264 0.541,-0.348c0.204,-0.084 0.424,-0.125 0.652,-0.125Z" style="fill:#f8f8f8;fill-rule:nonzero;"/>
      <path d="M38.631,166.54c-0.42,0 -0.825,0.08 -1.209,0.236c-0.384,0.156 -0.72,0.376 -1.012,0.657c-0.292,0.28 -0.523,0.611 -0.695,1c-0.172,0.388 -0.262,0.813 -0.262,1.277c0,0.464 0.09,0.891 0.266,1.283c0.176,0.392 0.407,0.734 0.699,1.018c0.292,0.284 0.628,0.508 1.008,0.664c0.38,0.156 0.781,0.236 1.197,0.236c0.204,0 0.409,-0.02 0.617,-0.06c0.208,-0.04 0.432,-0.104 0.672,-0.188l0.16,-0.057l0,-1.857c-0.4,0.428 -0.853,0.641 -1.353,0.641c-0.228,0 -0.445,-0.043 -0.641,-0.127c-0.196,-0.084 -0.367,-0.206 -0.515,-0.354c-0.148,-0.148 -0.26,-0.323 -0.344,-0.527c-0.084,-0.204 -0.125,-0.424 -0.125,-0.664c0,-0.236 0.041,-0.452 0.125,-0.656c0.084,-0.205 0.196,-0.378 0.34,-0.526c0.144,-0.148 0.315,-0.263 0.515,-0.347c0.2,-0.085 0.417,-0.127 0.653,-0.127c0.532,0 0.981,0.219 1.345,0.664l0,-1.873c-0.256,-0.108 -0.5,-0.185 -0.732,-0.237c-0.232,-0.052 -0.469,-0.076 -0.709,-0.076l0,0Zm16.639,0c-0.32,0 -0.607,0.049 -0.867,0.145c-0.26,0.096 -0.476,0.232 -0.656,0.404c-0.181,0.172 -0.316,0.379 -0.416,0.623c-0.1,0.244 -0.149,0.512 -0.149,0.812c0,0.3 0.047,0.545 0.139,0.741c0.092,0.196 0.217,0.356 0.369,0.484c0.152,0.128 0.323,0.233 0.519,0.309c0.197,0.076 0.394,0.148 0.598,0.212c0.172,0.06 0.316,0.113 0.436,0.161c0.12,0.048 0.215,0.098 0.291,0.154c0.076,0.056 0.128,0.117 0.16,0.185c0.032,0.068 0.049,0.145 0.049,0.237c0,0.148 -0.064,0.284 -0.188,0.4c-0.124,0.116 -0.316,0.176 -0.572,0.176c-0.224,0 -0.454,-0.052 -0.682,-0.152c-0.228,-0.1 -0.459,-0.257 -0.695,-0.465l-0.672,1.265c0.652,0.453 1.357,0.68 2.121,0.68c0.368,0 0.696,-0.048 0.988,-0.148c0.293,-0.1 0.537,-0.236 0.737,-0.416c0.2,-0.18 0.351,-0.393 0.455,-0.645c0.104,-0.252 0.156,-0.532 0.156,-0.84c0,-0.46 -0.119,-0.833 -0.355,-1.117c-0.236,-0.284 -0.613,-0.511 -1.125,-0.684c-0.128,-0.044 -0.257,-0.085 -0.389,-0.121c-0.132,-0.036 -0.248,-0.079 -0.352,-0.131c-0.104,-0.052 -0.188,-0.111 -0.252,-0.179c-0.064,-0.068 -0.095,-0.158 -0.095,-0.266c0,-0.156 0.063,-0.279 0.191,-0.375c0.128,-0.096 0.292,-0.144 0.496,-0.144c0.16,0 0.324,0.031 0.496,0.099c0.172,0.068 0.34,0.169 0.512,0.309l0.625,-1.225c-0.3,-0.16 -0.611,-0.279 -0.935,-0.363c-0.325,-0.084 -0.638,-0.125 -0.938,-0.125l0,0Zm-14.205,0.168l0,6.035l1.568,0l0,-2.322l1.497,2.322l1.953,0l-1.897,-2.473c0.432,-0.1 0.76,-0.295 0.981,-0.58c0.22,-0.284 0.332,-0.657 0.332,-1.117c0,-0.256 -0.041,-0.496 -0.125,-0.721c-0.084,-0.224 -0.204,-0.419 -0.368,-0.591c-0.164,-0.172 -0.369,-0.305 -0.621,-0.405c-0.252,-0.1 -0.542,-0.148 -0.879,-0.148l-2.441,0Zm5.617,0l0,3.498c0,0.94 0.216,1.624 0.649,2.057c0.432,0.432 1.094,0.648 1.986,0.648c0.892,0 1.552,-0.216 1.98,-0.648c0.429,-0.433 0.645,-1.117 0.645,-2.057l0,-3.498l-1.561,0l0,3.281c0,0.176 -0.009,0.357 -0.021,0.541c-0.012,0.184 -0.055,0.352 -0.123,0.5c-0.068,0.148 -0.176,0.271 -0.316,0.363c-0.141,0.093 -0.344,0.141 -0.604,0.141c-0.26,0 -0.465,-0.049 -0.609,-0.141c-0.144,-0.092 -0.249,-0.215 -0.317,-0.363c-0.068,-0.148 -0.107,-0.316 -0.119,-0.5c-0.012,-0.184 -0.019,-0.365 -0.019,-0.541l0,-3.281l-1.571,0Zm11.693,0l0,6.035l1.569,0l0,-2.49l2.265,0l0,2.49l1.569,0l0,-6.035l-1.569,0l0,2.33l-2.265,0l0,-2.33l-1.569,0Zm-15.742,1.209l0.297,0c0.308,0 0.547,0.063 0.711,0.191c0.164,0.128 0.248,0.313 0.248,0.553c0,0.24 -0.084,0.425 -0.248,0.553c-0.164,0.128 -0.403,0.191 -0.711,0.191l-0.297,0l0,-1.488Z" style="fill:#f8f8f8;fill-rule:nonzero;"/>
      <path d="M43.914,233.21c-0.32,0 -0.607,0.048 -0.867,0.145c-0.26,0.096 -0.476,0.232 -0.656,0.404c-0.181,0.172 -0.316,0.379 -0.416,0.623c-0.101,0.244 -0.149,0.512 -0.149,0.812c0,0.3 0.047,0.545 0.139,0.741c0.092,0.196 0.217,0.356 0.369,0.484c0.152,0.128 0.323,0.233 0.519,0.309c0.197,0.076 0.394,0.148 0.598,0.212c0.172,0.06 0.316,0.113 0.436,0.161c0.12,0.048 0.215,0.098 0.291,0.154c0.076,0.056 0.128,0.117 0.16,0.185c0.032,0.068 0.049,0.145 0.049,0.237c0,0.148 -0.064,0.284 -0.188,0.4c-0.124,0.116 -0.316,0.176 -0.572,0.176c-0.224,0 -0.454,-0.052 -0.682,-0.152c-0.228,-0.1 -0.459,-0.257 -0.695,-0.465l-0.672,1.265c0.652,0.453 1.357,0.68 2.121,0.68c0.368,0 0.696,-0.048 0.988,-0.148c0.293,-0.1 0.537,-0.236 0.737,-0.416c0.2,-0.18 0.351,-0.393 0.455,-0.645c0.104,-0.252 0.156,-0.532 0.156,-0.84c0,-0.46 -0.119,-0.833 -0.355,-1.117c-0.236,-0.284 -0.613,-0.511 -1.125,-0.684c-0.128,-0.044 -0.257,-0.085 -0.389,-0.121c-0.132,-0.036 -0.248,-0.079 -0.352,-0.131c-0.104,-0.052 -0.188,-0.111 -0.252,-0.179c-0.064,-0.068 -0.095,-0.158 -0.095,-0.266c0,-0.156 0.063,-0.279 0.191,-0.375c0.128,-0.096 0.292,-0.144 0.496,-0.144c0.16,0 0.324,0.031 0.496,0.099c0.172,0.068 0.342,0.169 0.514,0.309l0.623,-1.225c-0.3,-0.16 -0.611,-0.279 -0.935,-0.363c-0.325,-0.084 -0.638,-0.125 -0.938,-0.125l0,0Zm10.43,0c-0.492,0 -0.941,0.08 -1.35,0.244c-0.408,0.164 -0.76,0.388 -1.052,0.676c-0.292,0.288 -0.524,0.625 -0.688,1.014c-0.164,0.388 -0.248,0.803 -0.248,1.252c0,0.448 0.084,0.863 0.248,1.252c0.164,0.388 0.396,0.725 0.688,1.013c0.292,0.288 0.644,0.512 1.052,0.676c0.409,0.164 0.858,0.244 1.35,0.244c0.484,0 0.932,-0.08 1.344,-0.244c0.412,-0.164 0.764,-0.388 1.06,-0.676c0.296,-0.288 0.528,-0.625 0.692,-1.013c0.164,-0.389 0.248,-0.804 0.248,-1.252c0,-0.449 -0.084,-0.864 -0.248,-1.252c-0.164,-0.389 -0.396,-0.726 -0.692,-1.014c-0.296,-0.288 -0.648,-0.512 -1.06,-0.676c-0.412,-0.164 -0.86,-0.244 -1.344,-0.244Zm-21.617,0.168l0,6.035l2.32,0c0.416,0 0.804,-0.084 1.164,-0.248c0.361,-0.164 0.678,-0.388 0.946,-0.664c0.268,-0.276 0.479,-0.601 0.631,-0.965c0.152,-0.364 0.228,-0.744 0.228,-1.14c0,-0.401 -0.076,-0.785 -0.232,-1.149c-0.156,-0.364 -0.367,-0.685 -0.635,-0.961c-0.268,-0.276 -0.585,-0.496 -0.945,-0.66c-0.361,-0.164 -0.744,-0.248 -1.157,-0.248l-2.32,0Zm6.289,0l0,6.035l1.57,0l0,-6.035l-1.57,0Zm7.477,0l0,1.328l1.287,0l0,4.707l1.57,0l0,-4.707l1.287,0l0,-1.328l-4.144,0Zm12.189,0l0,6.035l1.568,0l0,-2.322l1.496,2.322l1.953,0l-1.896,-2.473c0.432,-0.1 0.76,-0.295 0.98,-0.58c0.22,-0.284 0.332,-0.657 0.332,-1.117c0,-0.256 -0.041,-0.496 -0.125,-0.721c-0.084,-0.224 -0.203,-0.419 -0.367,-0.591c-0.164,-0.172 -0.369,-0.305 -0.621,-0.405c-0.252,-0.1 -0.545,-0.148 -0.881,-0.148l-2.439,0Zm5.113,0l0,1.328l1.289,0l0,4.707l1.569,0l-0.001,-4.707l1.29,0l0,-1.328l-4.147,0Zm-3.545,1.209l0.295,0c0.308,0 0.549,0.063 0.713,0.191c0.164,0.128 0.248,0.313 0.248,0.553c0,0.24 -0.084,0.425 -0.248,0.553c-0.164,0.128 -0.405,0.191 -0.713,0.191l-0.295,0l0,-1.488Zm-25.955,0.119l0.359,0c0.269,0 0.509,0.045 0.721,0.129c0.212,0.084 0.393,0.204 0.541,0.352c0.148,0.148 0.26,0.329 0.34,0.537c0.08,0.208 0.119,0.431 0.119,0.672c0,0.244 -0.039,0.471 -0.115,0.675c-0.076,0.204 -0.188,0.385 -0.336,0.534c-0.148,0.148 -0.329,0.267 -0.541,0.351c-0.212,0.084 -0.456,0.129 -0.729,0.129l-0.359,0l0,-3.379Zm20.049,0.026c0.228,0 0.448,0.039 0.652,0.123c0.205,0.084 0.387,0.199 0.543,0.347c0.156,0.148 0.281,0.325 0.373,0.53c0.093,0.204 0.135,0.423 0.135,0.664c0,0.24 -0.043,0.46 -0.135,0.664c-0.092,0.204 -0.217,0.381 -0.373,0.529c-0.156,0.148 -0.338,0.264 -0.543,0.348c-0.204,0.084 -0.424,0.123 -0.652,0.123c-0.228,0 -0.448,-0.039 -0.652,-0.123c-0.204,-0.084 -0.385,-0.2 -0.541,-0.348c-0.156,-0.148 -0.275,-0.325 -0.367,-0.529c-0.092,-0.204 -0.137,-0.424 -0.137,-0.664c0,-0.241 0.045,-0.46 0.137,-0.664c0.092,-0.205 0.211,-0.382 0.367,-0.53c0.156,-0.148 0.337,-0.263 0.541,-0.347c0.204,-0.084 0.424,-0.123 0.652,-0.123Z" style="fill:#f8f8f8;fill-rule:nonzero;"/>
      <path d="M31.791,299.88c-0.32,0 -0.609,0.047 -0.869,0.143c-0.26,0.096 -0.476,0.232 -0.656,0.404c-0.18,0.172 -0.316,0.381 -0.416,0.625c-0.1,0.244 -0.149,0.512 -0.149,0.812c0,0.3 0.049,0.545 0.141,0.741c0.092,0.196 0.217,0.356 0.369,0.484c0.152,0.128 0.323,0.233 0.519,0.309c0.197,0.076 0.392,0.147 0.596,0.211c0.172,0.06 0.318,0.112 0.438,0.16c0.12,0.048 0.215,0.1 0.291,0.156c0.076,0.056 0.128,0.116 0.16,0.184c0.032,0.068 0.049,0.144 0.049,0.236c0,0.148 -0.066,0.284 -0.19,0.4c-0.124,0.116 -0.316,0.176 -0.572,0.176c-0.224,0 -0.452,-0.052 -0.68,-0.152c-0.228,-0.1 -0.459,-0.255 -0.695,-0.463l-0.674,1.263c0.652,0.453 1.357,0.68 2.121,0.68c0.368,0 0.696,-0.046 0.988,-0.146c0.293,-0.1 0.537,-0.238 0.737,-0.418c0.2,-0.18 0.353,-0.391 0.457,-0.643c0.104,-0.252 0.156,-0.534 0.156,-0.842c0,-0.46 -0.121,-0.831 -0.357,-1.115c-0.236,-0.284 -0.611,-0.513 -1.123,-0.685c-0.128,-0.044 -0.257,-0.084 -0.389,-0.12c-0.132,-0.036 -0.248,-0.08 -0.352,-0.132c-0.104,-0.052 -0.187,-0.112 -0.251,-0.18c-0.065,-0.068 -0.098,-0.156 -0.098,-0.264c0,-0.156 0.065,-0.281 0.193,-0.377c0.128,-0.096 0.292,-0.142 0.496,-0.142c0.16,0 0.324,0.031 0.496,0.099c0.172,0.068 0.34,0.169 0.512,0.309l0.625,-1.225c-0.3,-0.16 -0.613,-0.281 -0.937,-0.365c-0.325,-0.084 -0.636,-0.123 -0.936,-0.123l0,0Zm4.713,0.168l-2.297,6.033l1.674,0l0.359,-1.047l2.242,0l0.36,1.047l1.672,0l-2.297,-6.033l-1.713,0Zm3.867,0l0,1.328l1.287,0l0,4.705l1.569,0l0,-4.705l1.289,0l0,-1.328l-4.145,0Zm4.842,0l0,3.496c0,0.94 0.216,1.625 0.648,2.057c0.433,0.432 1.092,0.648 1.985,0.648c0.892,0 1.552,-0.216 1.98,-0.648c0.428,-0.433 0.645,-1.117 0.645,-2.057l0,-3.496l-1.561,0l0,3.281c0,0.176 -0.007,0.355 -0.019,0.539c-0.012,0.184 -0.057,0.352 -0.125,0.5c-0.068,0.148 -0.177,0.273 -0.317,0.365c-0.14,0.093 -0.343,0.141 -0.603,0.141c-0.26,0 -0.466,-0.049 -0.61,-0.141c-0.144,-0.092 -0.246,-0.217 -0.314,-0.365c-0.068,-0.148 -0.109,-0.316 -0.121,-0.5c-0.012,-0.184 -0.02,-0.363 -0.02,-0.539l0,-3.281l-1.568,0Zm6.521,0l0,6.033l1.569,0l0,-2.32l1.498,2.32l1.953,0l-1.899,-2.472c0.433,-0.1 0.761,-0.296 0.981,-0.581c0.22,-0.284 0.332,-0.657 0.332,-1.117c0,-0.256 -0.039,-0.494 -0.123,-0.718c-0.084,-0.225 -0.205,-0.422 -0.369,-0.594c-0.164,-0.172 -0.367,-0.304 -0.619,-0.405c-0.252,-0.1 -0.545,-0.146 -0.881,-0.146l-2.442,0Zm7.397,0l-2.297,6.033l1.672,0l0.359,-1.047l2.242,0l0.36,1.047l1.674,0l-2.297,-6.033l-1.713,0Zm3.865,0l0,1.328l1.289,0l0,4.705l1.569,0l0,-4.705l1.287,0l0,-1.328l-4.145,0Zm4.842,0l0,6.033l3.433,0l0,-1.328l-1.865,0l0,-1.041l1.762,0l0,-1.328l-1.762,0l0,-1.008l1.865,0l0,-1.328l-3.433,0Zm-14.535,1.207l0.297,0c0.308,0 0.549,0.065 0.713,0.193c0.164,0.128 0.248,0.311 0.248,0.551c0,0.24 -0.084,0.425 -0.248,0.553c-0.164,0.128 -0.405,0.193 -0.713,0.193l-0.297,0l0,-1.49Zm-15.941,0.576l0.703,2.01l-1.408,0l0.705,-2.01Zm22.625,0l0.705,2.01l-1.41,0l0.705,-2.01Z" style="fill:#f8f8f8;fill-rule:nonzero;"/>
    </g>
    <g>
      <path d="M50.085,113.8c-5.706,0 -11.412,1.934 -16.027,5.805c-9.229,7.745 -11.587,21.128 -5.564,31.564c0.391,0.722 1.468,0.101 1.039,-0.6c-5.733,-9.934 -3.488,-22.672 5.297,-30.045c8.785,-7.369 21.725,-7.369 30.51,0c8.785,7.373 11.029,20.111 5.296,30.045c-0.429,0.701 0.648,1.322 1.039,0.6c6.023,-10.436 3.666,-23.819 -5.564,-31.564c-4.615,-3.871 -10.32,-5.805 -16.025,-5.805l-0.001,0Zm-18.883,41.52c-2.371,0 -4.307,1.936 -4.307,4.307c0,2.371 1.936,4.304 4.307,4.304c2.371,0 4.307,-1.933 4.307,-4.304c0,-2.371 -1.936,-4.307 -4.307,-4.307Zm37.766,0c-2.371,0 -4.305,1.934 -4.305,4.305c0,2.371 1.934,4.306 4.305,4.306c2.371,0 4.307,-1.935 4.307,-4.306c0,-2.371 -1.936,-4.305 -4.307,-4.305Zm-37.766,1.199c1.722,0 3.105,1.385 3.105,3.108c0,1.722 -1.383,3.105 -3.105,3.105c-1.723,0 -3.106,-1.383 -3.106,-3.105c0,-1.723 1.383,-3.108 3.106,-3.108Z" style="fill:#f8f8f8;fill-rule:nonzero;"/>
      <path d="M112.86,113.8c-0.332,0.006 -0.596,0.279 -0.59,0.611l0.002,1.409c-2.52,0.129 -5.006,1.042 -7.047,2.755c-4.419,3.708 -5.55,10.112 -2.668,15.105l0.301,0.52l10.035,-5.793l10.035,5.793l0.301,-0.52c2.882,-4.993 1.752,-11.398 -2.668,-15.105c-2.052,-1.722 -4.555,-2.636 -7.09,-2.757l-0.002,-1.411c0.004,-0.338 -0.271,-0.612 -0.609,-0.607l0,0Zm-0.586,3.219l0.02,10.35l-8.903,5.14c-2.209,-4.402 -1.209,-9.813 2.606,-13.014c1.819,-1.527 4.031,-2.348 6.277,-2.476Zm1.199,0c2.26,0.121 4.488,0.94 6.317,2.476l0.002,0c3.815,3.201 4.813,8.612 2.603,13.014l-8.902,-5.14l-0.02,-10.35Zm8.852,16.951c-0.331,0.007 -0.926,0.28 -0.919,0.611l0.01,1.582l-1.606,0.008c-0.831,-0.028 -0.825,1.235 0.006,1.199l1.606,-0.008l0.01,1.629c-0.027,0.831 1.236,0.823 1.199,-0.008l-0.008,-1.625l1.603,-0.008c0.801,-0.004 0.795,-1.205 -0.006,-1.201l-1.605,0.008l-0.008,-1.584c0.002,-0.338 -0.276,-0.611 -0.614,-0.603l0.332,0Zm-16.092,2.056l-4.414,0.02c-0.801,0.004 -0.795,1.205 0.006,1.201l4.414,-0.021c0.831,0.027 0.824,-1.236 -0.006,-1.2Z" style="fill:#f8f8f8;fill-rule:nonzero;"/>
      <path d="M50.085,180.46c-5.706,0 -11.412,1.934 -16.027,5.805c-9.229,7.745 -11.587,21.128 -5.564,31.564c0.391,0.722 1.468,0.101 1.039,-0.6c-5.733,-9.934 -3.488,-22.672 5.297,-30.045c8.785,-7.369 21.725,-7.369 30.51,0c8.785,7.373 11.029,20.111 5.296,30.045c-0.429,0.701 0.648,1.322 1.039,0.6c6.023,-10.436 3.666,-23.819 -5.564,-31.564c-4.615,-3.871 -10.32,-5.805 -16.025,-5.805l-0.001,0Zm-18.883,41.52c-2.371,0 -4.307,1.936 -4.307,4.307c0,2.371 1.936,4.304 4.307,4.304c2.371,0 4.307,-1.933 4.307,-4.304c0,-2.371 -1.936,-4.307 -4.307,-4.307Zm37.766,0c-2.371,0 -4.305,1.934 -4.305,4.305c0,2.371 1.934,4.306 4.305,4.306c2.371,0 4.307,-1.935 4.307,-4.306c0,-2.371 -1.936,-4.305 -4.307,-4.305Zm-37.766,1.199c1.722,0 3.105,1.385 3.105,3.108c0,1.722 -1.383,3.105 -3.105,3.105c-1.723,0 -3.106,-1.383 -3.106,-3.105c0,-1.723 1.383,-3.108 3.106,-3.108Z" style="fill:#f8f8f8;fill-rule:nonzero;"/>
      <path d="M112.86,180.47c-0.332,0.006 -0.596,0.28 -0.59,0.611l0.002,1.409c-2.52,0.129 -5.006,1.042 -7.047,2.755c-4.419,3.708 -5.55,10.112 -2.668,15.105l0.301,0.52l10.035,-5.793l10.035,5.793l0.301,-0.52c2.882,-4.993 1.752,-11.398 -2.668,-15.105c-2.052,-1.722 -4.555,-2.636 -7.09,-2.757l-0.002,-1.411c0.004,-0.338 -0.271,-0.612 -0.609,-0.607l0,0Zm-0.586,3.219l0.02,10.35l-8.903,5.14c-2.209,-4.402 -1.209,-9.813 2.606,-13.014c1.819,-1.527 4.031,-2.348 6.277,-2.476Zm1.199,0c2.26,0.121 4.488,0.94 6.317,2.476l0.002,0c3.815,3.201 4.813,8.612 2.603,13.014l-8.902,-5.14l-0.02,-10.35Zm8.852,16.951c-0.331,0.007 -0.926,0.28 -0.919,0.611l0.01,1.582l-1.606,0.008c-0.831,-0.028 -0.825,1.235 0.006,1.199l1.606,-0.008l0.01,1.629c-0.027,0.831 1.236,0.823 1.199,-0.008l-0.008,-1.625l1.603,-0.008c0.801,-0.004 0.795,-1.205 -0.006,-1.201l-1.605,0.008l-0.008,-1.584c0.002,-0.338 -0.276,-0.611 -0.614,-0.603l0.332,0Zm-16.092,2.056l-4.414,0.02c-0.801,0.004 -0.795,1.205 0.006,1.201l4.414,-0.021c0.831,0.027 0.824,-1.236 -0.006,-1.2Z" style="fill:#f8f8f8;fill-rule:nonzero;"/>
    </g>
  </g>
</svg>