<svg width="60px" height="380px" version="1.1" xmlns="http://www.w3.org/2000/svg" xmlns:xlink="http://www.w3.org/1999/xlink" xml:space="preserve" xmlns:serif="http://www.serif.com/" style="fill-rule:evenodd;clip-rule:evenodd;stroke-linecap:round;stroke-miterlimit:10;">
  <defs>
    <linearGradient id="_Linear1" x1="0" y1="0" x2="1" y2="0" gradientUnits="userSpaceOnUse" gradientTransform="matrix(0.007008,-37.8989,37.8989,0.007008,45.2834,112.195)">
      <stop offset="0" style="stop-color:#101010;stop-opacity:1"/>
      <stop offset="1" style="stop-color:#101010;stop-opacity:1"/>
    </linearGradient>
    <linearGradient id="_Linear2" x1="0" y1="0" x2="1" y2="0" gradientUnits="userSpaceOnUse" gradientTransform="matrix(-4.75,94.86,-94.86,-4.75,247.47,158.47)">
      <stop offset="0" style="stop-color:#101010;stop-opacity:1"/>
      <stop offset="1" style="stop-color:#101010;stop-opacity:1"/>
    </linearGradient>
    <linearGradient id="_Linear3" x1="0" y1="0" x2="1" y2="0" gradientUnits="userSpaceOnUse" gradientTransform="matrix(-4.88,-92.58,92.58,-4.88,247.47,345.92)">
      <stop offset="0" style="stop-color:#101010;stop-opacity:1"/>
      <stop offset="1" style="stop-color:#101010;stop-opacity:1"/>
    </linearGradient>
    <linearGradient id="_Linear4" x1="0" y1="0" x2="1" y2="0" gradientUnits="userSpaceOnUse" gradientTransform="matrix(1.15392e-16,-1.8845,1.8845,1.15392e-16,27.6195,1.9358)">
      <stop offset="0" style="stop-color:#101010;stop-opacity:1"/>
      <stop offset="1" style="stop-color:#101010;stop-opacity:1"/>
    </linearGradient>
  </defs>
  <g id="Panel">
    <g>
      <rect x="0" y="0" width="60" height="380" style="fill:url(#_Linear1);"/>
      <rect x="0" y="126.67" width="60" height="126.67" style="fill:url(#_Linear2);"/>
      <rect x="0" y="253.33" width="60" height="126.67" style="fill:url(#_Linear3);"/>
    </g>
    <rect x="0" y="0" width="60" height="380" style="fill:#103550;fill-opacity:0.1;"/>
    <rect x="0" y="0" width="60" height="2" style="fill:url(#_Linear4);"/>
    <path d="M14.964,180.95c-0.332,0.006 -0.596,0.279 -0.59,0.611l0,1.409c-2.52,0.129 -5.006,1.042 -7.047,2.755c-4.419,3.708 -5.55,10.112 -2.668,15.105l0.301,0.52l10.035,-5.793l10.035,5.793l0.301,-0.52c2.882,-4.993 1.752,-11.398 -2.668,-15.105c-2.052,-1.722 -4.555,-2.636 -7.09,-2.757l0,-1.411c0,-0.338 -0.271,-0.612 -0.609,-0.607l0,0Zm-0.586,3.219l0.019,10.35l-8.902,5.14c-2.21,-4.402 -1.209,-9.813 2.605,-13.014c1.819,-1.527 4.032,-2.348 6.278,-2.476l0,0Zm1.199,0c2.26,0.121 4.488,0.94 6.317,2.476c3.815,3.201 4.813,8.612 2.603,13.014l-8.902,-5.14l-0.018,-10.35Zm7.933,17.562l0.01,1.582l-1.606,0.008c-0.831,-0.028 -0.825,1.235 0.01,1.199l1.606,-0.008l0.01,1.629c-0.026,0.831 1.236,0.822 1.199,-0.008l-0.01,-1.625l1.603,-0.008c0.801,-0.004 0.795,-1.205 -0.01,-1.201l-1.605,0.008l-0.01,-1.584c0,-0.771 -1.197,-0.756 -1.197,0.008l0,0Zm-15.172,1.445l-4.415,0.02c-0.8,0.004 -0.794,1.205 0.01,1.201l4.415,-0.022c0.83,0.028 0.824,-1.235 -0.01,-1.199Z" style="fill:#f8f8f8;fill-rule:nonzero;"/>
    <path d="M29.976,65.062c-0.329,0.006 -0.595,0.281 -0.59,0.609l0.004,2.125c-5.337,0.14 -10.637,2.003 -14.955,5.627c-8.984,7.539 -11.283,20.566 -5.416,30.723c0.105,0.194 0.308,0.315 0.528,0.315c0.329,0 0.6,-0.271 0.6,-0.601c0,-0.11 -0.031,-0.219 -0.089,-0.313c-5.576,-9.655 -3.391,-22.037 5.149,-29.203c4.097,-3.439 9.122,-5.209 14.186,-5.348l0.041,23.023c-0.001,0.008 -0.001,0.015 -0.001,0.023c0,0.329 0.271,0.6 0.6,0.6c0.329,0 0.6,-0.271 0.6,-0.6c0,-0.009 0,-0.017 0,-0.025l-0.041,-23.025c5.089,0.123 10.147,1.896 14.266,5.352l0.002,0c8.543,7.166 10.723,19.548 5.15,29.203c-0.058,0.094 -0.088,0.203 -0.088,0.313c0,0.33 0.27,0.6 0.6,0.6c0.22,0 0.422,-0.12 0.527,-0.314c5.863,-10.157 3.568,-23.184 -5.42,-30.723c-4.341,-3.643 -9.673,-5.509 -15.039,-5.631l-0.004,-2.123c0,-0.002 0,-0.005 0,-0.007c0,-0.329 -0.27,-0.6 -0.6,-0.6c-0.003,0 -0.006,0 -0.009,0l-0.001,0Zm19.766,40.666c-0.325,0.007 -0.588,0.275 -0.588,0.6c0,0.004 0,0.009 0,0.013l0.022,3.961l-4.004,0.02c-0.329,0.001 -0.598,0.272 -0.598,0.6c0,0.33 0.271,0.601 0.601,0.601c0.001,0 0.002,0 0.003,0l4.005,-0.02l0.022,4.055c0.002,0.328 0.273,0.597 0.601,0.597c0.329,0 0.6,-0.271 0.6,-0.601c0,-0.001 0,-0.002 0,-0.004l-0.021,-4.051l4.006,-0.019c0.328,-0.002 0.597,-0.272 0.597,-0.601c0,-0.329 -0.271,-0.6 -0.6,-0.6c-0.001,0 -0.002,0 -0.003,0l-4.008,0.019l-0.022,-3.965c0,-0.001 0,-0.003 0,-0.005c0,-0.329 -0.27,-0.6 -0.6,-0.6c-0.004,0 -0.008,0 -0.013,0l0,0Zm-33.619,4.291l-9.213,0.043c-0.007,0 -0.013,0 -0.02,0c-0.329,0 -0.6,0.271 -0.6,0.6c0,0.329 0.271,0.6 0.6,0.6c0.008,0 0.017,0 0.026,-0.001l9.213,-0.043c0.007,0 0.013,0.001 0.02,0.001c0.329,0 0.6,-0.271 0.6,-0.601c0,-0.329 -0.271,-0.6 -0.6,-0.6c-0.008,0 -0.017,0.001 -0.026,0.001l0,0Z" style="fill:#f8f8f8;fill-rule:nonzero;"/>
    <g>
      <g>
        <path d="M38.68,346.459c0,-4.509 -3.655,-8.165 -8.164,-8.165c-4.509,0 -8.165,3.656 -8.165,8.165c0,4.509 3.656,8.165 8.165,8.165c4.509,0 8.164,-3.656 8.164,-8.165Z" style="fill:#757575;fill-rule:nonzero;stroke:#353535;stroke-width:0.61px;"/>
        <path d="M28.62,351.429l0.553,-0.89l-1.064,-2.393l-2.216,-2.284l0.46,3.101l0.597,1.28l0.833,1.263l0.837,-0.077Z" style="fill:#2b2b2b;fill-rule:nonzero;"/>
        <path d="M32.35,351.439l-0.553,-0.891l1.064,-2.393l2.216,-2.284l-0.46,3.101l-0.597,1.28l-0.833,1.264l-0.837,-0.077Z" style="fill:#101010;fill-rule:nonzero;"/>
        <path d="M27.94,340.399l2.584,-0.661l0,13.448l-1.349,-2.651l-1.061,-2.385l-1.022,-0.581l-2.052,-2.921l-0.057,-0.775l1.148,-2.067l1.809,-1.407Z" style="fill:#424242;fill-rule:nonzero;"/>
        <path d="M33.1,340.399l-2.584,-0.66l0,13.448l1.35,-2.651l1.06,-2.385l1.023,-0.581l2.051,-2.921l0.058,-0.775l-1.149,-2.068l-1.809,-1.407Z" style="fill:#333;fill-rule:nonzero;"/>
        <path d="M28.8,346.279l1.723,-1.685l0,1.23l-1.723,1.718l0,-1.263" style="fill:#4c4c4c;fill-rule:nonzero;"/>
        <path d="M30.52,345.819l-1.723,1.718l0.377,3.004l1.346,2.643l0,-7.365Z" style="fill:#5b5b5b;fill-rule:nonzero;"/>
        <path d="M30.52,353.189l-1.346,-2.643l1.346,-0.635l0,3.278Z" style="fill:#333;fill-rule:nonzero;"/>
        <path d="M28.8,347.539l0,-1.264l-1.249,-1.579l-1.477,-1.19l-0.001,0.932l0.775,1.823l1.952,1.278Z" style="fill:#f8f8f8;fill-rule:nonzero;"/>
        <path d="M32.24,346.279l-1.722,-1.684l0,1.23l1.722,1.718l0,-1.264" style="fill:#2d2d2d;fill-rule:nonzero;"/>
        <path d="M30.52,345.819l1.722,1.718l-0.376,3.004l-1.347,2.643l0.001,-7.365Z" style="fill:#353535;fill-rule:nonzero;"/>
        <path d="M30.52,353.189l1.347,-2.643l-1.346,-0.635l-0.001,3.278Z" style="fill:#101010;fill-rule:nonzero;"/>
        <path d="M32.24,347.539l0,-1.264l1.249,-1.579l1.478,-1.19l0.001,0.932l-0.775,1.823l-1.953,1.278Z" style="fill:#f8f8f8;fill-rule:nonzero;"/>
        <path d="M27.95,340.379l2.566,4.216l-0.005,-4.87" style="fill:#383838;fill-rule:nonzero;"/>
        <path d="M33.08,340.379l-2.566,4.215l0.006,-4.87" style="fill:#2d2d2d;fill-rule:nonzero;"/>
        <path d="M28.11,348.149l0.688,-0.61l0.375,3.006l-1.063,-2.396Z" style="fill:#333;fill-rule:nonzero;"/>
        <path d="M32.93,348.169l-0.688,-0.61l-0.375,3.006l1.063,-2.396Z" style="fill:#1c1c1c;fill-rule:nonzero;"/>
      </g>
      <path d="M18.9,356.107l2.26,6.811c0.211,0.635 0.595,0.951 1.15,0.951c0.548,0 0.929,-0.313 1.141,-0.942l2.269,-6.82l-1.744,0l-1.689,5.455l-1.633,-5.455l-1.754,0Zm6.953,0l0,5.768c0,0.482 0.052,0.829 0.154,1.041c0.278,0.578 0.797,0.867 1.557,0.867l2.127,0c0.739,0 1.255,-0.281 1.547,-0.844c0.11,-0.213 0.164,-0.572 0.164,-1.076l0,-5.756l-1.645,0l0,5.68l-0.01,0.054c-0.037,0.191 -0.224,0.285 -0.56,0.285l-1.119,0c-0.351,0 -0.54,-0.101 -0.569,-0.306l0,-5.713l-1.646,0Zm6.305,0l0,5.801c0,0.599 0.124,1.046 0.373,1.342c0.248,0.296 0.669,0.47 1.262,0.521c0.081,0.007 0.175,0.012 0.285,0.012l3.06,0l0.01,-1.656l-2.927,0c-0.279,0 -0.416,-0.118 -0.416,-0.352l0,-5.668l-1.647,0Zm5.043,0l0,1.656l1.635,0l0,6.02l1.644,0l0,-6.02l1.656,0l0,-1.656l-4.935,0Z" style="fill:#666;fill-rule:nonzero;"/>
    </g>
    <path d="M13.057,292.99c-5.764,0 -10.457,4.362 -10.457,9.721l0,23.115c0,5.36 4.693,9.722 10.457,9.722l33.334,0c5.764,0 10.457,-4.363 10.457,-9.722l0,-23.115c0,-5.359 -4.693,-9.721 -10.457,-9.721l-33.334,0Z" style="fill:none;stroke:#f8f8f8;stroke-width:1.25px;stroke-linecap:butt;stroke-linejoin:round;stroke-miterlimit:1.5;"/>
    <path d="M15.848,327.625c-0.493,0 -0.941,0.08 -1.349,0.244c-0.408,0.16 -0.759,0.389 -1.051,0.678c-0.293,0.288 -0.526,0.624 -0.689,1.008c-0.165,0.388 -0.248,0.805 -0.248,1.254c0,0.448 0.084,0.868 0.248,1.252c0.164,0.388 0.396,0.723 0.689,1.011c0.292,0.289 0.643,0.512 1.051,0.676c0.408,0.164 0.856,0.244 1.349,0.244c0.484,0 0.932,-0.08 1.34,-0.244c0.412,-0.164 0.764,-0.387 1.061,-0.676c0.296,-0.288 0.529,-0.623 0.693,-1.011c0.168,-0.384 0.248,-0.804 0.248,-1.252c0,-0.449 -0.08,-0.866 -0.248,-1.254c-0.164,-0.384 -0.397,-0.72 -0.693,-1.008c-0.297,-0.289 -0.649,-0.518 -1.061,-0.678c-0.408,-0.164 -0.856,-0.244 -1.34,-0.244Zm4.334,0.168l0,3.494c0,0.94 0.216,1.626 0.649,2.059c0.432,0.432 1.092,0.646 1.984,0.646c0.889,0 1.549,-0.214 1.981,-0.646c0.428,-0.433 0.644,-1.119 0.644,-2.059l0,-3.494l-1.56,0l0,3.279c0,0.176 -0.01,0.355 -0.019,0.539c-0.016,0.184 -0.057,0.352 -0.125,0.5c-0.072,0.148 -0.175,0.274 -0.315,0.366c-0.14,0.092 -0.344,0.138 -0.605,0.138c-0.26,0 -0.466,-0.046 -0.61,-0.138c-0.144,-0.092 -0.246,-0.218 -0.314,-0.366c-0.068,-0.148 -0.109,-0.316 -0.121,-0.5c-0.012,-0.184 -0.019,-0.363 -0.019,-0.539l0,-3.279l-1.57,0Zm5.955,0l0,1.326l1.284,0l0,4.705l1.568,0l0,-4.705l1.289,0l0,-1.326l-4.141,0Zm4.838,0l0,6.031l1.569,0l0,-2l0.927,0c0.676,0 1.197,-0.177 1.557,-0.529c0.361,-0.352 0.541,-0.848 0.541,-1.488c0,-0.64 -0.18,-1.133 -0.541,-1.485c-0.36,-0.353 -0.881,-0.529 -1.557,-0.529l-2.496,0Zm5.422,0l0,3.494c0,0.94 0.217,1.626 0.649,2.059c0.433,0.432 1.096,0.646 1.984,0.646c0.893,0 1.552,-0.214 1.98,-0.646c0.428,-0.433 0.645,-1.119 0.645,-2.059l0,-3.494l-1.561,0l0,3.279c0,0.176 -0.01,0.355 -0.02,0.539c-0.012,0.184 -0.057,0.352 -0.125,0.5c-0.068,0.148 -0.176,0.274 -0.316,0.366c-0.14,0.092 -0.34,0.138 -0.604,0.138c-0.26,0 -0.463,-0.046 -0.607,-0.138c-0.144,-0.092 -0.248,-0.218 -0.316,-0.366c-0.064,-0.148 -0.105,-0.316 -0.121,-0.5c-0.012,-0.184 -0.02,-0.363 -0.02,-0.539l0,-3.279l-1.568,0Zm5.955,0l0,1.326l1.287,0l0,4.705l1.571,0l0,-4.705l1.283,0l0,-1.326l-4.141,0Zm-9.808,1.262l0.519,0c0.576,0 0.865,0.252 0.865,0.752c0,0.504 -0.289,0.752 -0.865,0.752l-0.519,0l0,-1.504Zm-16.695,0.088c0.228,0 0.444,0.045 0.652,0.125c0.204,0.084 0.383,0.199 0.539,0.347c0.16,0.152 0.285,0.328 0.373,0.528c0.092,0.204 0.137,0.425 0.137,0.666c0,0.24 -0.045,0.464 -0.137,0.664c-0.088,0.204 -0.213,0.379 -0.373,0.527c-0.156,0.152 -0.335,0.264 -0.539,0.348c-0.208,0.084 -0.424,0.125 -0.652,0.125c-0.233,0 -0.449,-0.041 -0.653,-0.125c-0.208,-0.084 -0.389,-0.196 -0.541,-0.348c-0.156,-0.148 -0.279,-0.323 -0.367,-0.527c-0.092,-0.2 -0.137,-0.424 -0.137,-0.664c0,-0.241 0.045,-0.462 0.137,-0.666c0.088,-0.2 0.211,-0.376 0.367,-0.528c0.152,-0.148 0.333,-0.263 0.541,-0.347c0.204,-0.08 0.42,-0.125 0.653,-0.125Z" style="fill:#f8f8f8;fill-rule:nonzero;"/>
    <path d="M15.654,296.32l0,3.529l1.412,0l0,0.997l-2.589,0l0,-4.526l1.177,0Z" style="fill:#898989;fill-rule:nonzero;"/>
    <path d="M40.29,298.35l0.224,0c0.232,0 0.408,-0.048 0.532,-0.144c0.124,-0.096 0.188,-0.236 0.188,-0.416c0,-0.181 -0.064,-0.317 -0.188,-0.413c-0.124,-0.096 -0.3,-0.144 -0.532,-0.144l-0.224,0l0,1.117Zm2.589,2.501l-1.465,0l-1.124,-1.741l0,1.741l-1.177,0l0,-4.526l1.833,0c0.252,0 0.472,0.04 0.66,0.112c0.188,0.076 0.34,0.176 0.464,0.304c0.12,0.128 0.213,0.276 0.277,0.444c0.06,0.168 0.092,0.348 0.092,0.541c0,0.344 -0.084,0.624 -0.249,0.836c-0.168,0.212 -0.412,0.36 -0.736,0.436l1.425,1.853Z" style="fill:#898989;fill-rule:nonzero;"/>
    <path d="M16.411,284.84l0,6.035l1.57,0l0,-6.035l-1.57,0Zm2.834,0l0,6.035l1.568,0l0,-3.689l2.897,3.689l1.56,0l0,-6.035l-1.56,0l0,3.691l-2.897,-3.691l-1.568,0Zm7.291,0l0,6.035l1.569,0l0,-2l0.927,0c0.676,0 1.197,-0.177 1.557,-0.529c0.361,-0.352 0.541,-0.848 0.541,-1.488c0,-0.64 -0.18,-1.137 -0.541,-1.489c-0.36,-0.353 -0.881,-0.529 -1.557,-0.529l-2.496,0Zm5.426,0l0,3.498c0,0.94 0.216,1.626 0.648,2.059c0.432,0.432 1.093,0.646 1.985,0.646c0.892,0 1.552,-0.214 1.98,-0.646c0.428,-0.433 0.645,-1.119 0.645,-2.059l0,-3.498l-1.561,0l0,3.283c0,0.176 -0.01,0.355 -0.019,0.539c-0.012,0.184 -0.056,0.352 -0.125,0.5c-0.068,0.148 -0.176,0.273 -0.316,0.365c-0.14,0.092 -0.344,0.139 -0.604,0.139c-0.26,0 -0.463,-0.047 -0.607,-0.139c-0.144,-0.092 -0.249,-0.217 -0.317,-0.365c-0.068,-0.148 -0.109,-0.316 -0.121,-0.5c-0.012,-0.184 -0.02,-0.363 -0.02,-0.539l0,-3.283l-1.568,0Zm5.953,0l0,1.33l1.289,0l0,4.705l1.57,0l0,-4.705l1.287,0l0,-1.33l-4.146,0Zm-9.81,1.266l0.519,0c0.576,0 0.865,0.252 0.865,0.752c0,0.5 -0.289,0.752 -0.865,0.752l-0.519,0l0,-1.504Z" style="fill:#f8f8f8;"/>
    <path d="M16.506,252.32l0,3.529l1.412,0l0,0.997l-2.589,0l0,-4.526l1.177,0Z" style="fill:#8c8c8c;fill-rule:nonzero;"/>
    <path d="M43.144,254.35l0.224,0c0.232,0 0.408,-0.048 0.532,-0.144c0.124,-0.096 0.188,-0.236 0.188,-0.416c0,-0.181 -0.064,-0.317 -0.188,-0.413c-0.124,-0.096 -0.3,-0.144 -0.532,-0.144l-0.224,0l0,1.117Zm2.589,2.501l-1.465,0l-1.124,-1.741l0,1.741l-1.177,0l0,-4.526l1.833,0c0.252,0 0.472,0.04 0.66,0.112c0.188,0.076 0.34,0.176 0.464,0.304c0.12,0.128 0.213,0.276 0.277,0.444c0.06,0.168 0.092,0.348 0.092,0.541c0,0.344 -0.084,0.624 -0.249,0.836c-0.168,0.212 -0.412,0.36 -0.736,0.436l1.425,1.853Z" style="fill:#8c8c8c;fill-rule:nonzero;"/>
    <path d="M12.721,248.99c-6.033,0 -10.942,4.481 -10.942,9.988l0,13.145c0,0.801 1.316,0.801 1.316,0l0,-13.145c0,-4.857 4.305,-8.789 9.626,-8.789l33.375,0c5.321,0 9.629,3.932 9.629,8.789l0,13.145c0,0.843 1.349,0.831 1.313,0l0,-13.145c0,-5.506 -4.909,-9.988 -10.942,-9.988l-33.375,0Z" style="fill:#f8f8f8;"/>
    <path d="M2,23.111l3.58,0c0.967,0 1.802,0.174 2.503,0.523c0.701,0.348 1.238,0.85 1.612,1.506c0.373,0.657 0.559,1.436 0.559,2.338c0,0.91 -0.184,1.695 -0.553,2.355c-0.369,0.661 -0.904,1.165 -1.606,1.514c-0.701,0.348 -1.539,0.522 -2.515,0.522l-3.58,0l0,-8.758Zm3.42,6.913c0.853,0 1.49,-0.211 1.913,-0.633c0.422,-0.423 0.633,-1.06 0.633,-1.913c0,-1.681 -0.849,-2.522 -2.546,-2.522l-1.107,0l0,5.068l1.107,0Z" style="fill:#f8f8f8;fill-rule:nonzero;"/>
    <rect x="11.607" y="23.111" width="2.313" height="8.759" style="fill:#f8f8f8;fill-rule:nonzero;"/>
    <path d="M18.669,31.98c-0.657,0 -1.304,-0.086 -1.944,-0.258c-0.64,-0.172 -1.161,-0.406 -1.562,-0.701l0.725,-1.637c0.427,0.271 0.88,0.478 1.36,0.622c0.479,0.143 0.961,0.215 1.445,0.215c0.492,0 0.869,-0.068 1.132,-0.203c0.262,-0.135 0.394,-0.326 0.394,-0.572c0,-0.221 -0.119,-0.404 -0.357,-0.547c-0.238,-0.144 -0.685,-0.285 -1.341,-0.425c-0.828,-0.164 -1.472,-0.367 -1.931,-0.609c-0.46,-0.242 -0.782,-0.527 -0.966,-0.855c-0.185,-0.328 -0.277,-0.725 -0.277,-1.193c0,-0.533 0.152,-1.015 0.455,-1.445c0.304,-0.431 0.73,-0.767 1.28,-1.009c0.549,-0.242 1.176,-0.363 1.882,-0.363c0.631,0 1.244,0.088 1.839,0.264c0.594,0.177 1.06,0.408 1.396,0.696l-0.713,1.636c-0.386,-0.271 -0.792,-0.478 -1.218,-0.622c-0.427,-0.143 -0.853,-0.215 -1.28,-0.215c-0.418,0 -0.754,0.08 -1.008,0.24c-0.255,0.16 -0.382,0.375 -0.382,0.646c0,0.147 0.045,0.27 0.136,0.369c0.09,0.098 0.258,0.195 0.504,0.289c0.246,0.094 0.615,0.195 1.107,0.301c0.796,0.173 1.421,0.38 1.876,0.622c0.455,0.241 0.777,0.524 0.966,0.848c0.188,0.324 0.283,0.712 0.283,1.163c0,0.853 -0.332,1.523 -0.997,2.011c-0.664,0.488 -1.599,0.732 -2.804,0.732Z" style="fill:#f8f8f8;fill-rule:nonzero;"/>
    <path d="M22.949,32.226c0.411,0.041 0.71,0.062 0.898,0.062c0.37,0 0.616,-0.074 0.739,-0.222c0.123,-0.147 0.184,-0.43 0.184,-0.849l0,-8.106l2.313,0l0,8.069c0,1.034 -0.209,1.792 -0.628,2.276c-0.418,0.484 -1.135,0.726 -2.152,0.726c-0.402,0 -0.853,-0.037 -1.354,-0.111l0,-1.845Z" style="fill:#f8f8f8;fill-rule:nonzero;"/>
    <path d="M32.84,31.98c-0.894,0 -1.673,-0.182 -2.337,-0.547c-0.665,-0.365 -1.175,-0.888 -1.532,-1.569c-0.357,-0.68 -0.535,-1.476 -0.535,-2.386c0,-0.911 0.18,-1.702 0.541,-2.374c0.361,-0.673 0.872,-1.192 1.532,-1.557c0.66,-0.365 1.437,-0.547 2.331,-0.547c0.894,0 1.671,0.182 2.331,0.547c0.66,0.365 1.167,0.884 1.519,1.557c0.353,0.672 0.529,1.463 0.529,2.374c0,0.91 -0.176,1.706 -0.529,2.386c-0.352,0.681 -0.859,1.204 -1.519,1.569c-0.66,0.365 -1.437,0.547 -2.331,0.547Zm0,-1.759c0.656,0 1.171,-0.234 1.544,-0.701c0.373,-0.468 0.559,-1.148 0.559,-2.042c0,-0.886 -0.186,-1.56 -0.559,-2.024c-0.373,-0.463 -0.888,-0.695 -1.544,-0.695c-0.656,0 -1.169,0.23 -1.538,0.689c-0.369,0.459 -0.553,1.136 -0.553,2.03c0,0.902 0.184,1.585 0.553,2.048c0.369,0.463 0.882,0.695 1.538,0.695Z" style="fill:#f8f8f8;fill-rule:nonzero;"/>
    <rect x="38.572" y="23.111" width="2.313" height="8.759" style="fill:#f8f8f8;fill-rule:nonzero;"/>
    <path d="M48.118,23.111l2.178,0l0,8.758l-1.71,0l-3.974,-4.969l0,4.969l-2.152,0l0,-8.758l1.685,0l3.973,4.945l0,-4.945Z" style="fill:#f8f8f8;fill-rule:nonzero;"/>
    <path d="M53.851,31.869l0,-6.888l-2.608,0l0,-1.87l7.553,0l0,1.87l-2.608,0l0,6.888l-2.337,0Z" style="fill:#f8f8f8;fill-rule:nonzero;"/>
    <g transform="matrix(1,0,0,1,-26.6862,-0.0207013)">
      <g transform="matrix(11,0,0,11,37.8347,45.0207)">
        <path d="M0.569,-0.736l0,0.736l-0.149,0l0,-0.075c-0.015,0.026 -0.037,0.046 -0.065,0.061c-0.028,0.015 -0.06,0.022 -0.095,0.022c-0.043,0 -0.082,-0.011 -0.116,-0.034c-0.034,-0.022 -0.061,-0.053 -0.08,-0.094c-0.019,-0.04 -0.028,-0.086 -0.028,-0.138c0,-0.052 0.009,-0.098 0.028,-0.138c0.019,-0.039 0.046,-0.07 0.08,-0.091c0.033,-0.022 0.072,-0.033 0.116,-0.033c0.034,0 0.065,0.007 0.093,0.022c0.028,0.014 0.05,0.034 0.065,0.059l0,-0.297l0.151,0Zm-0.265,0.629c0.037,0 0.066,-0.013 0.086,-0.039c0.02,-0.025 0.03,-0.062 0.03,-0.11c0,-0.047 -0.01,-0.084 -0.03,-0.109c-0.021,-0.026 -0.049,-0.039 -0.086,-0.039c-0.037,0 -0.066,0.013 -0.087,0.038c-0.021,0.025 -0.031,0.061 -0.031,0.108c0,0.048 0.01,0.085 0.031,0.112c0.021,0.026 0.05,0.039 0.087,0.039Z" style="fill:#f8f8f8;fill-rule:nonzero;"/>
      </g>
      <g transform="matrix(11,0,0,11,44.7647,45.0207)">
        <path d="M-0.065,0.093c0.019,0.005 0.036,0.007 0.049,0.007c0.023,0 0.041,-0.007 0.056,-0.02c0.014,-0.013 0.021,-0.034 0.021,-0.062l0,-0.525l0.151,0l0,0.529c0,0.064 -0.016,0.114 -0.049,0.149c-0.033,0.035 -0.08,0.053 -0.142,0.053c-0.035,0 -0.063,-0.004 -0.086,-0.013l0,-0.118Zm0.12,-0.838l0.161,0l0,0.142l-0.161,0l0,-0.142Z" style="fill:#f8f8f8;fill-rule:nonzero;"/>
      </g>
      <g transform="matrix(11,0,0,11,50.8697,45.0207)">
        <path d="M0.255,0.008c-0.096,0 -0.172,-0.021 -0.227,-0.062l0.04,-0.105c0.027,0.019 0.056,0.034 0.089,0.045c0.033,0.01 0.066,0.015 0.1,0.015c0.026,0 0.046,-0.004 0.06,-0.012c0.014,-0.008 0.021,-0.02 0.021,-0.035c0,-0.013 -0.005,-0.023 -0.015,-0.03c-0.01,-0.007 -0.028,-0.014 -0.053,-0.019l-0.083,-0.019c-0.049,-0.011 -0.085,-0.028 -0.108,-0.051c-0.023,-0.023 -0.034,-0.054 -0.034,-0.093c0,-0.031 0.009,-0.059 0.027,-0.084c0.019,-0.025 0.044,-0.044 0.077,-0.057c0.033,-0.014 0.07,-0.021 0.113,-0.021c0.036,0 0.071,0.005 0.106,0.016c0.035,0.012 0.066,0.027 0.093,0.047l-0.042,0.101c-0.026,-0.018 -0.052,-0.032 -0.079,-0.041c-0.027,-0.009 -0.054,-0.014 -0.079,-0.014c-0.025,0 -0.044,0.004 -0.058,0.013c-0.014,0.009 -0.021,0.021 -0.021,0.036c0,0.011 0.004,0.02 0.013,0.027c0.008,0.007 0.023,0.013 0.044,0.018l0.085,0.019c0.052,0.012 0.09,0.03 0.113,0.054c0.023,0.024 0.035,0.056 0.035,0.096c0,0.048 -0.019,0.086 -0.058,0.114c-0.039,0.028 -0.092,0.042 -0.159,0.042Z" style="fill:#f8f8f8;fill-rule:nonzero;"/>
      </g>
      <g transform="matrix(11,0,0,11,56.3477,45.0207)">
        <path d="M0.251,-0.394l0,0.197c0,0.028 0.007,0.049 0.022,0.062c0.015,0.012 0.034,0.019 0.057,0.019c0.015,0 0.031,-0.002 0.05,-0.007l0,0.117c-0.024,0.009 -0.053,0.014 -0.087,0.014c-0.063,0 -0.11,-0.018 -0.143,-0.053c-0.033,-0.035 -0.05,-0.085 -0.05,-0.149l0,-0.2l-0.096,0l0,-0.113l0.096,0l0,-0.119l0.151,-0.049l0,0.168l0.129,0l0,0.113l-0.129,0Z" style="fill:#f8f8f8;fill-rule:nonzero;"/>
      </g>
      <g transform="matrix(11,0,0,11,60.8137,45.0207)">
        <path d="M0.561,-0.507l-0.234,0.534c-0.029,0.065 -0.065,0.112 -0.109,0.142c-0.043,0.031 -0.097,0.05 -0.16,0.059l-0.035,-0.116c0.047,-0.01 0.082,-0.023 0.105,-0.038c0.024,-0.015 0.043,-0.038 0.056,-0.067l0.015,-0.033l-0.209,-0.481l0.158,0l0.13,0.329l0.134,-0.329l0.149,0Z" style="fill:#f8f8f8;fill-rule:nonzero;"/>
      </g>
      <g transform="matrix(11,0,0,11,66.8637,45.0207)">
        <rect x="0.061" y="-0.736" width="0.151" height="0.736" style="fill:#f8f8f8;fill-rule:nonzero;"/>
      </g>
      <g transform="matrix(11,0,0,11,69.8777,45.0207)">
        <path d="M0.516,-0.241l-0.334,0c0.003,0.047 0.015,0.082 0.037,0.103c0.022,0.022 0.055,0.033 0.098,0.033c0.026,0 0.052,-0.004 0.078,-0.013c0.026,-0.009 0.05,-0.021 0.072,-0.038l0.04,0.102c-0.024,0.019 -0.054,0.034 -0.09,0.045c-0.035,0.011 -0.071,0.017 -0.107,0.017c-0.085,0 -0.152,-0.024 -0.201,-0.071c-0.049,-0.047 -0.073,-0.111 -0.073,-0.192c0,-0.051 0.01,-0.097 0.031,-0.138c0.021,-0.04 0.051,-0.071 0.089,-0.093c0.038,-0.023 0.081,-0.034 0.129,-0.034c0.071,0 0.128,0.023 0.169,0.07c0.041,0.046 0.062,0.108 0.062,0.187l0,0.022Zm-0.227,-0.173c-0.029,0 -0.052,0.008 -0.07,0.025c-0.017,0.017 -0.029,0.041 -0.034,0.073l0.201,0c-0.008,-0.065 -0.04,-0.098 -0.097,-0.098Z" style="fill:#f8f8f8;fill-rule:nonzero;"/>
      </g>
      <g transform="matrix(11,0,0,11,44.2972,56.0207)">
        <path d="M0.439,-0.75l0.165,0l0,0.145l-0.165,0l0,-0.145Zm-0.188,0.243l0.346,0l0,0.507l-0.152,0l0,-0.394l-0.194,0l0,0.394l-0.151,0l0,-0.394l-0.096,0l0,-0.113l0.096,0l0,-0.041c0,-0.048 0.008,-0.086 0.023,-0.113c0.015,-0.027 0.039,-0.047 0.073,-0.059c0.034,-0.013 0.08,-0.019 0.139,-0.019l0.04,0l0,0.109l-0.024,0c-0.029,0 -0.051,0.002 -0.064,0.007c-0.014,0.005 -0.023,0.014 -0.028,0.027c-0.005,0.013 -0.008,0.033 -0.008,0.061l0,0.028Z" style="fill:#f8f8f8;fill-rule:nonzero;"/>
      </g>
      <g transform="matrix(11,0,0,11,51.5352,56.0207)">
        <rect x="0.061" y="-0.736" width="0.151" height="0.736" style="fill:#f8f8f8;fill-rule:nonzero;"/>
      </g>
      <g transform="matrix(11,0,0,11,54.5492,56.0207)">
        <path d="M0.251,-0.394l0,0.197c0,0.028 0.007,0.049 0.022,0.062c0.015,0.012 0.034,0.019 0.057,0.019c0.015,0 0.031,-0.002 0.05,-0.007l0,0.117c-0.024,0.009 -0.053,0.014 -0.087,0.014c-0.063,0 -0.11,-0.018 -0.143,-0.053c-0.033,-0.035 -0.05,-0.085 -0.05,-0.149l0,-0.2l-0.096,0l0,-0.113l0.096,0l0,-0.119l0.151,-0.049l0,0.168l0.129,0l0,0.113l-0.129,0Z" style="fill:#f8f8f8;fill-rule:nonzero;"/>
      </g>
      <g transform="matrix(11,0,0,11,58.9052,56.0207)">
        <path d="M0.516,-0.241l-0.334,0c0.003,0.047 0.015,0.082 0.037,0.103c0.022,0.022 0.055,0.033 0.098,0.033c0.026,0 0.052,-0.004 0.078,-0.013c0.026,-0.009 0.05,-0.021 0.072,-0.038l0.04,0.102c-0.024,0.019 -0.054,0.034 -0.09,0.045c-0.035,0.011 -0.071,0.017 -0.107,0.017c-0.085,0 -0.152,-0.024 -0.201,-0.071c-0.049,-0.047 -0.073,-0.111 -0.073,-0.192c0,-0.051 0.01,-0.097 0.031,-0.138c0.021,-0.04 0.051,-0.071 0.089,-0.093c0.038,-0.023 0.081,-0.034 0.129,-0.034c0.071,0 0.128,0.023 0.169,0.07c0.041,0.046 0.062,0.108 0.062,0.187l0,0.022Zm-0.227,-0.173c-0.029,0 -0.052,0.008 -0.07,0.025c-0.017,0.017 -0.029,0.041 -0.034,0.073l0.201,0c-0.008,-0.065 -0.04,-0.098 -0.097,-0.098Z" style="fill:#f8f8f8;fill-rule:nonzero;"/>
      </g>
      <g transform="matrix(11,0,0,11,64.9552,56.0207)">
        <path d="M0.356,-0.519c0.021,0 0.039,0.003 0.054,0.01l-0.001,0.138c-0.025,-0.011 -0.049,-0.017 -0.074,-0.017c-0.04,0 -0.07,0.011 -0.091,0.033c-0.021,0.021 -0.032,0.051 -0.032,0.09l0,0.265l-0.151,0l0,-0.362c0,-0.054 -0.003,-0.102 -0.008,-0.145l0.142,0l0.01,0.087c0.013,-0.032 0.033,-0.056 0.06,-0.074c0.027,-0.017 0.057,-0.025 0.091,-0.025Z" style="fill:#f8f8f8;fill-rule:nonzero;"/>
      </g>
    </g>
    <path d="M18.872,123.5l0,-6.408l4.473,0l0,1.323l-2.808,0l0,1.17l2.628,0l0,1.314l-2.628,0l0,2.601l-1.665,0Z" style="fill:#f8f8f8;fill-rule:nonzero;"/>
    <path d="M29.699,123.5l-1.791,0l-0.828,-2.133c-0.096,-0.24 -0.321,-0.36 -0.675,-0.36l-0.612,0l0,2.493l-1.665,0l0,-6.408l2.979,0c0.774,0 1.356,0.166 1.746,0.499c0.39,0.334 0.585,0.809 0.585,1.427c0,0.432 -0.115,0.805 -0.346,1.12c-0.231,0.316 -0.557,0.539 -0.977,0.671c0.18,0.036 0.342,0.12 0.486,0.252c0.144,0.132 0.258,0.309 0.342,0.531l0.756,1.908Zm-2.862,-3.753c0.36,0 0.621,-0.056 0.783,-0.167c0.162,-0.111 0.243,-0.283 0.243,-0.517c0,-0.246 -0.079,-0.423 -0.238,-0.531c-0.159,-0.108 -0.422,-0.162 -0.788,-0.162l-1.062,0l0,1.377l1.062,0Z" style="fill:#f8f8f8;fill-rule:nonzero;"/>
    <path d="M30.554,123.5l0,-6.408l4.572,0l0,1.296l-2.925,0l0,1.206l2.736,0l0,1.296l-2.736,0l0,1.314l2.925,0l0,1.296l-4.572,0Z" style="fill:#f8f8f8;fill-rule:nonzero;"/>
    <path d="M40.769,123.167c0.132,0.222 0.296,0.43 0.491,0.626c0.195,0.194 0.418,0.397 0.67,0.607l-1.125,0.819c-0.66,-0.432 -1.185,-0.978 -1.575,-1.638l-0.18,0c-0.654,0 -1.224,-0.133 -1.71,-0.401c-0.486,-0.267 -0.859,-0.649 -1.12,-1.147c-0.261,-0.498 -0.392,-1.08 -0.392,-1.746c0,-0.666 0.132,-1.245 0.396,-1.737c0.264,-0.492 0.638,-0.872 1.121,-1.139c0.483,-0.267 1.051,-0.4 1.705,-0.4c0.654,0 1.223,0.133 1.706,0.4c0.483,0.267 0.853,0.647 1.111,1.139c0.258,0.492 0.387,1.071 0.387,1.737c0,0.666 -0.129,1.246 -0.387,1.741c-0.258,0.495 -0.624,0.875 -1.098,1.139Zm-3.249,-2.88c0,0.66 0.135,1.159 0.405,1.498c0.27,0.339 0.645,0.509 1.125,0.509c0.48,0 0.857,-0.171 1.13,-0.513c0.273,-0.342 0.409,-0.84 0.409,-1.494c0,-0.648 -0.136,-1.142 -0.409,-1.481c-0.273,-0.339 -0.65,-0.508 -1.13,-0.508c-0.48,0 -0.855,0.168 -1.125,0.504c-0.27,0.336 -0.405,0.831 -0.405,1.485Z" style="fill:#f8f8f8;fill-rule:nonzero;"/>
    <path d="M44.964,180.95c-0.332,0.006 -0.596,0.279 -0.59,0.611l0,1.409c-2.52,0.129 -5.006,1.042 -7.047,2.755c-4.419,3.708 -5.55,10.112 -2.668,15.105l0.301,0.52l10.035,-5.793l10.035,5.793l0.301,-0.52c2.882,-4.993 1.752,-11.398 -2.668,-15.105c-2.052,-1.722 -4.555,-2.636 -7.09,-2.757l0,-1.411c0,-0.338 -0.271,-0.612 -0.609,-0.607l0,0Zm-0.586,3.219l0.019,10.35l-8.902,5.14c-2.21,-4.402 -1.209,-9.813 2.605,-13.014c1.819,-1.527 4.032,-2.348 6.278,-2.476l0,0Zm1.199,0c2.26,0.121 4.488,0.94 6.317,2.476c3.815,3.201 4.813,8.612 2.603,13.014l-8.902,-5.14l-0.018,-10.35Zm7.933,17.562l0.01,1.582l-1.606,0.008c-0.831,-0.028 -0.825,1.235 0.01,1.199l1.606,-0.008l0.01,1.629c-0.026,0.831 1.236,0.822 1.199,-0.008l-0.01,-1.625l1.603,-0.008c0.801,-0.004 0.795,-1.205 -0.01,-1.201l-1.605,0.008l-0.01,-1.584c0,-0.771 -1.197,-0.756 -1.197,0.008l0,0Zm-15.172,1.445l-4.415,0.02c-0.8,0.004 -0.794,1.205 0.01,1.201l4.415,-0.022c0.83,0.028 0.824,-1.235 -0.01,-1.199Z" style="fill:#f8f8f8;fill-rule:nonzero;"/>
    <path d="M25.372,168.42l0.259,0c0.271,0 0.478,-0.056 0.623,-0.168c0.145,-0.112 0.217,-0.273 0.217,-0.483c0,-0.21 -0.072,-0.371 -0.217,-0.483c-0.145,-0.112 -0.352,-0.168 -0.623,-0.168l-0.259,0l0,1.302Zm3.017,2.919l-1.708,0l-1.309,-2.03l0,2.03l-1.372,0l0,-5.278l2.135,0c0.294,0 0.551,0.043 0.77,0.13c0.219,0.086 0.4,0.204 0.543,0.353c0.142,0.149 0.249,0.322 0.322,0.518c0.072,0.196 0.108,0.406 0.108,0.63c0,0.401 -0.097,0.727 -0.29,0.977c-0.194,0.249 -0.48,0.418 -0.858,0.507l1.659,2.163Z" style="fill:#f8f8f8;fill-rule:nonzero;"/>
    <path d="M31.966,167.223l-1.631,0l0,0.882l1.54,0l0,1.162l-1.54,0l0,0.91l1.631,0l0,1.162l-3.003,0l0,-5.278l3.003,0l0,1.162Z" style="fill:#f8f8f8;fill-rule:nonzero;"/>
    <path d="M35.851,167.412c-0.149,-0.121 -0.299,-0.211 -0.448,-0.269c-0.149,-0.059 -0.294,-0.088 -0.434,-0.088c-0.177,0 -0.322,0.042 -0.434,0.126c-0.112,0.084 -0.168,0.194 -0.168,0.329c0,0.093 0.028,0.17 0.084,0.231c0.056,0.061 0.13,0.113 0.221,0.158c0.09,0.044 0.193,0.082 0.308,0.115c0.114,0.033 0.227,0.068 0.339,0.105c0.448,0.149 0.776,0.349 0.984,0.599c0.207,0.249 0.311,0.575 0.311,0.976c0,0.271 -0.045,0.516 -0.136,0.735c-0.091,0.219 -0.224,0.407 -0.399,0.564c-0.175,0.156 -0.39,0.277 -0.644,0.364c-0.255,0.086 -0.543,0.129 -0.865,0.129c-0.667,0 -1.286,-0.198 -1.855,-0.595l0.588,-1.106c0.205,0.182 0.408,0.317 0.609,0.406c0.201,0.089 0.399,0.133 0.595,0.133c0.224,0 0.391,-0.051 0.501,-0.154c0.109,-0.103 0.164,-0.219 0.164,-0.35c0,-0.079 -0.014,-0.148 -0.042,-0.206c-0.028,-0.059 -0.075,-0.112 -0.14,-0.161c-0.065,-0.049 -0.15,-0.095 -0.255,-0.137c-0.105,-0.042 -0.233,-0.089 -0.382,-0.14c-0.177,-0.056 -0.351,-0.118 -0.521,-0.185c-0.171,-0.068 -0.322,-0.158 -0.455,-0.27c-0.133,-0.112 -0.241,-0.253 -0.322,-0.423c-0.082,-0.171 -0.123,-0.387 -0.123,-0.648c0,-0.261 0.043,-0.498 0.13,-0.71c0.086,-0.213 0.207,-0.395 0.364,-0.546c0.156,-0.152 0.347,-0.27 0.574,-0.354c0.226,-0.084 0.479,-0.126 0.759,-0.126c0.261,0 0.534,0.036 0.819,0.109c0.285,0.072 0.558,0.178 0.819,0.318l-0.546,1.071Z" style="fill:#f8f8f8;fill-rule:nonzero;"/>
    <path d="M8.717,209.237l-1.652,0l0,0.882l1.505,0l0,1.162l-1.505,0l0,2.072l-1.372,0l0,-5.278l3.024,0l0,1.162Z" style="fill:#f8f8f8;fill-rule:nonzero;"/>
    <path d="M10.908,210.434l0.259,0c0.271,0 0.478,-0.056 0.623,-0.168c0.145,-0.112 0.217,-0.273 0.217,-0.483c0,-0.21 -0.072,-0.371 -0.217,-0.483c-0.145,-0.112 -0.352,-0.168 -0.623,-0.168l-0.259,0l0,1.302Zm3.017,2.919l-1.708,0l-1.309,-2.03l0,2.03l-1.372,0l0,-5.278l2.135,0c0.294,0 0.551,0.043 0.77,0.13c0.219,0.086 0.4,0.204 0.543,0.353c0.142,0.149 0.249,0.322 0.322,0.518c0.072,0.196 0.108,0.406 0.108,0.63c0,0.401 -0.097,0.727 -0.29,0.977c-0.194,0.249 -0.48,0.418 -0.858,0.507l1.659,2.163Z" style="fill:#f8f8f8;fill-rule:nonzero;"/>
    <path d="M17.502,209.237l-1.631,0l0,0.882l1.54,0l0,1.162l-1.54,0l0,0.91l1.631,0l0,1.162l-3.003,0l0,-5.278l3.003,0l0,1.162Z" style="fill:#f8f8f8;fill-rule:nonzero;"/>
    <path d="M18.251,210.714c0,-0.392 0.072,-0.757 0.217,-1.095c0.145,-0.339 0.345,-0.634 0.602,-0.886c0.257,-0.252 0.564,-0.449 0.921,-0.591c0.357,-0.143 0.75,-0.214 1.179,-0.214c0.425,0 0.817,0.071 1.176,0.214c0.359,0.142 0.669,0.339 0.928,0.591c0.259,0.252 0.46,0.547 0.605,0.886c0.145,0.338 0.217,0.703 0.217,1.095c0,0.364 -0.059,0.702 -0.178,1.015c-0.119,0.313 -0.291,0.59 -0.515,0.833l0.896,0.938l-1.26,0.196l-0.483,-0.497c-0.205,0.093 -0.423,0.167 -0.654,0.221c-0.231,0.053 -0.475,0.08 -0.732,0.08c-0.429,0 -0.822,-0.071 -1.179,-0.213c-0.357,-0.143 -0.664,-0.34 -0.921,-0.592c-0.257,-0.252 -0.457,-0.547 -0.602,-0.885c-0.145,-0.339 -0.217,-0.704 -0.217,-1.096Zm1.435,0c0,0.21 0.04,0.404 0.119,0.581c0.079,0.177 0.187,0.331 0.322,0.462c0.135,0.131 0.293,0.232 0.473,0.305c0.179,0.072 0.369,0.108 0.57,0.108c0.121,0 0.243,-0.014 0.364,-0.042l-0.784,-0.826l1.295,-0.161l0.364,0.385c0.168,-0.233 0.252,-0.504 0.252,-0.812c0,-0.21 -0.04,-0.404 -0.119,-0.581c-0.079,-0.177 -0.188,-0.331 -0.325,-0.462c-0.138,-0.131 -0.297,-0.232 -0.476,-0.304c-0.18,-0.073 -0.37,-0.109 -0.571,-0.109c-0.201,0 -0.391,0.036 -0.57,0.109c-0.18,0.072 -0.338,0.173 -0.473,0.304c-0.135,0.131 -0.243,0.285 -0.322,0.462c-0.079,0.177 -0.119,0.371 -0.119,0.581Z" style="fill:#f8f8f8;fill-rule:nonzero;"/>
    <path d="M40.372,210.506l0.259,0c0.271,0 0.478,-0.056 0.623,-0.168c0.145,-0.112 0.217,-0.273 0.217,-0.483c0,-0.21 -0.072,-0.371 -0.217,-0.483c-0.145,-0.112 -0.352,-0.168 -0.623,-0.168l-0.259,0l0,1.302Zm3.017,2.919l-1.708,0l-1.309,-2.03l0,2.03l-1.372,0l0,-5.278l2.135,0c0.294,0 0.551,0.043 0.77,0.13c0.219,0.086 0.4,0.204 0.542,0.353c0.143,0.149 0.25,0.322 0.322,0.518c0.073,0.196 0.109,0.406 0.109,0.63c0,0.401 -0.097,0.727 -0.291,0.977c-0.193,0.249 -0.479,0.418 -0.857,0.507l1.659,2.163Z" style="fill:#f8f8f8;fill-rule:nonzero;"/>
    <path d="M46.966,209.309l-1.631,0l0,0.882l1.54,0l0,1.162l-1.54,0l0,0.91l1.631,0l0,1.162l-3.003,0l0,-5.278l3.003,0l0,1.162Z" style="fill:#f8f8f8;fill-rule:nonzero;"/>
    <path d="M50.851,209.498c-0.149,-0.121 -0.299,-0.211 -0.448,-0.269c-0.149,-0.059 -0.294,-0.088 -0.434,-0.088c-0.177,0 -0.322,0.042 -0.434,0.126c-0.112,0.084 -0.168,0.194 -0.168,0.329c0,0.093 0.028,0.17 0.084,0.231c0.056,0.061 0.13,0.113 0.221,0.158c0.09,0.044 0.193,0.082 0.308,0.115c0.114,0.033 0.227,0.068 0.339,0.105c0.448,0.149 0.776,0.349 0.984,0.599c0.207,0.249 0.311,0.575 0.311,0.976c0,0.271 -0.045,0.516 -0.136,0.735c-0.091,0.219 -0.224,0.407 -0.399,0.564c-0.175,0.156 -0.39,0.277 -0.644,0.364c-0.255,0.086 -0.543,0.129 -0.865,0.129c-0.667,0 -1.286,-0.198 -1.855,-0.595l0.588,-1.106c0.205,0.182 0.408,0.317 0.609,0.406c0.201,0.089 0.399,0.133 0.595,0.133c0.224,0 0.391,-0.051 0.501,-0.154c0.109,-0.103 0.164,-0.219 0.164,-0.35c0,-0.079 -0.014,-0.148 -0.042,-0.207c-0.028,-0.058 -0.075,-0.112 -0.14,-0.161c-0.065,-0.048 -0.15,-0.094 -0.255,-0.136c-0.105,-0.042 -0.233,-0.089 -0.382,-0.14c-0.177,-0.056 -0.351,-0.118 -0.521,-0.186c-0.171,-0.067 -0.322,-0.157 -0.455,-0.269c-0.133,-0.112 -0.241,-0.253 -0.322,-0.424c-0.082,-0.17 -0.123,-0.386 -0.123,-0.647c0,-0.261 0.043,-0.498 0.13,-0.71c0.086,-0.213 0.207,-0.395 0.364,-0.547c0.156,-0.151 0.347,-0.269 0.574,-0.353c0.226,-0.084 0.479,-0.126 0.759,-0.126c0.261,0 0.534,0.036 0.819,0.109c0.285,0.072 0.558,0.178 0.819,0.318l-0.546,1.071Z" style="fill:#f8f8f8;fill-rule:nonzero;"/>
    <path d="M30.002,127.078c-4.145,0 -8.292,1.407 -11.645,4.221c-6.707,5.627 -8.42,15.35 -4.043,22.932c0.391,0.722 1.468,0.1 1.039,-0.6c-4.087,-7.08 -2.487,-16.157 3.775,-21.412c6.262,-5.255 15.482,-5.255 21.744,0c6.262,5.254 7.863,14.332 3.775,21.412c-0.429,0.7 0.648,1.322 1.039,0.6c4.377,-7.583 2.664,-17.304 -4.043,-22.933c-3.353,-2.813 -7.497,-4.22 -11.643,-4.22l0.002,0Zm-13.6,29.889c-1.798,0 -3.268,1.468 -3.268,3.265c0,1.798 1.47,3.268 3.268,3.268c1.797,0 3.265,-1.47 3.265,-3.268c0,-1.797 -1.468,-3.265 -3.265,-3.265Zm27.195,0c-1.798,0 -3.268,1.468 -3.268,3.265c0,1.798 1.47,3.268 3.268,3.268c1.797,0 3.267,-1.47 3.267,-3.268c0,-1.797 -1.47,-3.265 -3.267,-3.265Zm-27.195,1.199c1.148,0 2.066,0.918 2.066,2.066c0,1.149 -0.918,2.069 -2.066,2.069c-1.149,0 -2.069,-0.92 -2.069,-2.069c0,-1.148 0.92,-2.066 2.069,-2.066Z" style="fill:#f8f8f8;"/>
  </g>
</svg>