<svg width="150px" height="380px" version="1.1" xmlns="http://www.w3.org/2000/svg" xmlns:xlink="http://www.w3.org/1999/xlink" xml:space="preserve" xmlns:serif="http://www.serif.com/" style="fill-rule:evenodd;clip-rule:evenodd;stroke-linecap:round;stroke-miterlimit:10;">
  <defs>
    <linearGradient id="_Linear1" x1="0" y1="0" x2="1" y2="0" gradientUnits="userSpaceOnUse" gradientTransform="matrix(0.007008,-37.8989,37.8989,0.007008,75.2834,112.195)">
      <stop offset="0" style="stop-color:#101010;stop-opacity:1"/>
      <stop offset="1" style="stop-color:#101010;stop-opacity:1"/>
    </linearGradient>
    <linearGradient id="_Linear2" x1="0" y1="0" x2="1" y2="0" gradientUnits="userSpaceOnUse" gradientTransform="matrix(-4.88,-92.58,92.58,-4.88,277.54,345.91)">
      <stop offset="0" style="stop-color:#101010;stop-opacity:1"/>
      <stop offset="1" style="stop-color:#101010;stop-opacity:1"/>
    </linearGradient>
    <linearGradient id="_Linear3" x1="0" y1="0" x2="1" y2="0" gradientUnits="userSpaceOnUse" gradientTransform="matrix(-4.75,94.86,-94.86,-4.75,277.54,158.47)">
      <stop offset="0" style="stop-color:#101010;stop-opacity:1"/>
      <stop offset="1" style="stop-color:#101010;stop-opacity:1"/>
    </linearGradient>
    <linearGradient id="_Linear4" x1="0" y1="0" x2="1" y2="0" gradientUnits="userSpaceOnUse" gradientTransform="matrix(1.15392e-16,-1.8845,1.8845,1.15392e-16,56.519,1.9362)">
      <stop offset="0" style="stop-color:#101010;stop-opacity:1"/>
      <stop offset="1" style="stop-color:#101010;stop-opacity:1"/>
    </linearGradient>
  </defs>
  <g id="Panel">
    <g>
      <rect x="0" y="0" width="150" height="380" style="fill:url(#_Linear1);"/>
      <rect x="0" y="253.33" width="150" height="126.67" style="fill:url(#_Linear2);"/>
      <rect x="0" y="126.67" width="150" height="126.67" style="fill:url(#_Linear3);"/>
      <rect x="0" y="0" width="150" height="380" style="fill:rgb(16,53,80);fill-opacity:0.1;"/>
      <rect x="0" y="0" width="150" height="2" style="fill:url(#_Linear4);"/>
    </g>
    <g>
      <path d="M63.3,363.496l3.443,10.383c0.322,0.968 0.909,1.451 1.756,1.451c0.835,0 1.414,-0.476 1.737,-1.435l3.46,-10.398l-2.66,0l-2.574,8.318l-2.49,-8.318l-2.672,-0.001Zm10.598,0l0,8.793c0,0.736 0.078,1.265 0.234,1.588c0.423,0.881 1.214,1.32 2.373,1.32l3.243,0c1.126,0 1.912,-0.429 2.357,-1.287c0.168,-0.324 0.25,-0.87 0.25,-1.639l0,-8.775l-2.506,0l0,8.658l-0.018,0.084c-0.056,0.29 -0.34,0.436 -0.853,0.436l-1.705,0c-0.535,0 -0.826,-0.157 -0.87,-0.469l0,-8.709l-2.505,0Zm9.611,0l0,8.842c0,0.914 0.19,1.598 0.569,2.049c0.378,0.452 1.019,0.717 1.922,0.795c0.123,0.011 0.268,0.015 0.435,0.015l4.664,0l0.016,-2.523l-4.463,0c-0.424,0 -0.634,-0.178 -0.634,-0.535l0,-8.643l-2.509,0Zm7.69,0l0,2.525l2.49,0l0,9.176l2.508,0l0,-9.176l2.523,0l0,-2.525l-7.521,0Z" style="fill:rgb(102,102,102);fill-rule:nonzero;"/>
      <path d="M59.7,369.416c0,-4.509 -3.655,-8.165 -8.164,-8.165c-4.509,0 -8.165,3.656 -8.165,8.165c0,4.509 3.656,8.165 8.165,8.165c4.509,0 8.164,-3.656 8.164,-8.165Z" style="fill:rgb(117,117,117);fill-rule:nonzero;stroke:rgb(53,53,53);stroke-width:0.61px;"/>
      <g>
        <path d="M49.72,374.389l0.553,-0.89l-1.064,-2.393l-2.216,-2.284l0.46,3.101l0.597,1.28l0.833,1.263l0.837,-0.077Z" style="fill:rgb(43,43,43);fill-rule:nonzero;"/>
        <path d="M53.45,374.399l-0.553,-0.891l1.064,-2.393l2.216,-2.284l-0.46,3.101l-0.597,1.28l-0.833,1.264l-0.837,-0.077Z" style="fill:#101010;fill-rule:nonzero;"/>
        <path d="M49.04,363.359l2.584,-0.661l0,13.448l-1.349,-2.651l-1.061,-2.385l-1.022,-0.581l-2.052,-2.921l-0.057,-0.775l1.148,-2.067l1.809,-1.407Z" style="fill:rgb(66,66,66);fill-rule:nonzero;"/>
        <path d="M54.2,363.359l-2.584,-0.66l0,13.448l1.35,-2.651l1.06,-2.385l1.023,-0.581l2.051,-2.921l0.058,-0.775l-1.149,-2.068l-1.809,-1.407Z" style="fill:rgb(51,51,51);fill-rule:nonzero;"/>
        <path d="M49.9,369.239l1.723,-1.685l0,1.23l-1.723,1.718l0,-1.263" style="fill:rgb(76,76,76);fill-rule:nonzero;"/>
        <path d="M51.62,368.779l-1.723,1.718l0.377,3.004l1.346,2.643l0,-7.365Z" style="fill:rgb(91,91,91);fill-rule:nonzero;"/>
        <path d="M51.62,376.149l-1.346,-2.643l1.346,-0.635l0,3.278Z" style="fill:rgb(51,51,51);fill-rule:nonzero;"/>
        <path d="M49.9,370.499l0,-1.264l-1.249,-1.579l-1.477,-1.19l-0.001,0.932l0.775,1.823l1.952,1.278Z" style="fill:#f8f8f8;fill-rule:nonzero;"/>
        <path d="M53.34,369.239l-1.722,-1.684l0,1.23l1.722,1.718l0,-1.264" style="fill:rgb(45,45,45);fill-rule:nonzero;"/>
        <path d="M51.62,368.779l1.722,1.718l-0.376,3.004l-1.347,2.643l0.001,-7.365Z" style="fill:rgb(53,53,53);fill-rule:nonzero;"/>
        <path d="M51.62,376.149l1.347,-2.643l-1.346,-0.635l-0.001,3.278Z" style="fill:#101010;fill-rule:nonzero;"/>
        <path d="M53.34,370.499l0,-1.264l1.249,-1.579l1.478,-1.19l0.001,0.932l-0.775,1.823l-1.953,1.278Z" style="fill:#f8f8f8;fill-rule:nonzero;"/>
        <path d="M49.05,363.339l2.566,4.216l-0.005,-4.87" style="fill:rgb(56,56,56);fill-rule:nonzero;"/>
        <path d="M54.18,363.339l-2.566,4.215l0.006,-4.87" style="fill:rgb(45,45,45);fill-rule:nonzero;"/>
        <path d="M49.21,371.109l0.688,-0.61l0.375,3.006l-1.063,-2.396Z" style="fill:rgb(51,51,51);fill-rule:nonzero;"/>
        <path d="M54.03,371.129l-0.688,-0.61l-0.375,3.006l1.063,-2.396Z" style="fill:rgb(28,28,28);fill-rule:nonzero;"/>
      </g>
    </g>
    <path d="M111.81,320.68c-5.359,0 -9.723,4.362 -9.723,9.721l0,21.908c0,5.36 4.364,9.722 9.723,9.722l22.364,0c5.36,0 9.723,-4.363 9.723,-9.722l0,-21.908c0,-5.359 -4.363,-9.721 -9.723,-9.721l-22.364,0Z" style="fill:none;stroke:#f8f8f8;stroke-width:1.2px;stroke-linecap:butt;stroke-miterlimit:4;"/>
    <path d="M109.66,350.54c-0.493,0 -0.942,0.08 -1.35,0.244c-0.408,0.16 -0.758,0.389 -1.05,0.678c-0.293,0.288 -0.526,0.624 -0.69,1.008c-0.164,0.388 -0.248,0.805 -0.248,1.254c0,0.448 0.084,0.868 0.248,1.252c0.164,0.388 0.397,0.723 0.69,1.011c0.292,0.289 0.642,0.512 1.05,0.676c0.408,0.164 0.857,0.244 1.35,0.244c0.484,0 0.932,-0.08 1.34,-0.244c0.412,-0.164 0.763,-0.387 1.06,-0.676c0.296,-0.288 0.53,-0.623 0.694,-1.011c0.168,-0.384 0.248,-0.804 0.248,-1.252c0,-0.449 -0.08,-0.866 -0.248,-1.254c-0.164,-0.384 -0.398,-0.72 -0.694,-1.008c-0.297,-0.289 -0.648,-0.518 -1.06,-0.678c-0.408,-0.164 -0.856,-0.244 -1.34,-0.244Zm4.334,0.168l0,3.494c0,0.94 0.216,1.626 0.648,2.059c0.433,0.432 1.093,0.646 1.985,0.646c0.889,0 1.548,-0.214 1.98,-0.646c0.428,-0.433 0.645,-1.119 0.645,-2.059l0,-3.494l-1.561,0l0,3.279c0,0.176 -0.01,0.355 -0.019,0.539c-0.016,0.184 -0.057,0.352 -0.125,0.5c-0.072,0.148 -0.174,0.274 -0.314,0.366c-0.14,0.092 -0.345,0.138 -0.606,0.138c-0.26,0 -0.465,-0.046 -0.609,-0.138c-0.144,-0.092 -0.247,-0.218 -0.314,-0.366c-0.068,-0.148 -0.109,-0.316 -0.122,-0.5c-0.012,-0.184 -0.019,-0.363 -0.019,-0.539l0,-3.279l-1.569,0Zm5.955,0l0,1.326l1.283,0l0,4.705l1.569,0l0,-4.705l1.289,0l0,-1.326l-4.141,0Zm4.838,0l0,6.031l1.568,0l0,-2l0.928,0c0.676,0 1.197,-0.177 1.557,-0.529c0.361,-0.352 0.541,-0.848 0.541,-1.488c0,-0.64 -0.18,-1.133 -0.541,-1.485c-0.36,-0.353 -0.881,-0.529 -1.557,-0.529l-2.496,0Zm5.422,0l0,3.494c0,0.94 0.216,1.626 0.648,2.059c0.433,0.432 1.097,0.646 1.985,0.646c0.893,0 1.552,-0.214 1.98,-0.646c0.428,-0.433 0.645,-1.119 0.645,-2.059l0,-3.494l-1.561,0l0,3.279c0,0.176 -0.01,0.355 -0.02,0.539c-0.012,0.184 -0.057,0.352 -0.125,0.5c-0.068,0.148 -0.176,0.274 -0.316,0.366c-0.14,0.092 -0.34,0.138 -0.604,0.138c-0.26,0 -0.463,-0.046 -0.607,-0.138c-0.144,-0.092 -0.249,-0.218 -0.317,-0.366c-0.064,-0.148 -0.105,-0.316 -0.121,-0.5c-0.012,-0.184 -0.02,-0.363 -0.02,-0.539l0,-3.279l-1.567,0Zm5.955,0l0,1.326l1.287,0l0,4.705l1.57,0l0,-4.705l1.284,0l0,-1.326l-4.141,0Zm-9.809,1.262l0.52,0c0.576,0 0.865,0.252 0.865,0.752c0,0.504 -0.289,0.752 -0.865,0.752l-0.52,0l0,-1.504Zm-16.695,0.088c0.228,0 0.445,0.045 0.653,0.125c0.204,0.084 0.383,0.199 0.539,0.347c0.16,0.152 0.285,0.328 0.373,0.528c0.092,0.204 0.137,0.425 0.137,0.666c0,0.24 -0.045,0.464 -0.137,0.664c-0.088,0.204 -0.213,0.379 -0.373,0.527c-0.156,0.152 -0.335,0.264 -0.539,0.348c-0.208,0.084 -0.425,0.125 -0.653,0.125c-0.233,0 -0.448,-0.041 -0.652,-0.125c-0.208,-0.084 -0.389,-0.196 -0.541,-0.348c-0.156,-0.148 -0.279,-0.323 -0.367,-0.527c-0.092,-0.2 -0.137,-0.424 -0.137,-0.664c0,-0.241 0.045,-0.462 0.137,-0.666c0.088,-0.2 0.211,-0.376 0.367,-0.528c0.152,-0.148 0.333,-0.263 0.541,-0.347c0.204,-0.08 0.419,-0.125 0.652,-0.125Z" style="fill:#f8f8f8;fill-rule:nonzero;"/>
    <path d="M54.443,226.381c-5.706,0 -11.412,1.934 -16.027,5.805c-9.229,7.745 -11.587,21.128 -5.565,31.564c0.392,0.722 1.469,0.101 1.039,-0.6c-5.733,-9.934 -3.488,-22.672 5.297,-30.045c8.786,-7.368 21.725,-7.368 30.51,0c8.786,7.373 11.03,20.111 5.297,30.045c-0.429,0.701 0.648,1.322 1.039,0.6c6.023,-10.436 3.666,-23.819 -5.564,-31.564c-4.615,-3.871 -10.32,-5.805 -16.025,-5.805l-0.001,0Zm-18.883,41.52c-2.371,0 -4.307,1.936 -4.307,4.307c0,2.371 1.936,4.304 4.307,4.304c2.371,0 4.306,-1.933 4.306,-4.304c0,-2.371 -1.935,-4.307 -4.306,-4.307Zm37.766,0c-2.371,0 -4.305,1.934 -4.305,4.305c0,2.371 1.934,4.306 4.305,4.306c2.371,0 4.306,-1.935 4.306,-4.306c0,-2.371 -1.935,-4.305 -4.306,-4.305Zm-37.766,1.199c1.722,0 3.105,1.385 3.105,3.108c0,1.722 -1.383,3.105 -3.105,3.105c-1.723,0 -3.106,-1.383 -3.106,-3.105c0,-1.723 1.383,-3.108 3.106,-3.108Z" style="fill:#f8f8f8;fill-rule:nonzero;"/>
    <path d="M116.966,228.006c-0.331,0.006 -0.596,0.279 -0.589,0.611l0,1.408c-2.521,0.13 -5.007,1.043 -7.047,2.756c-4.419,3.708 -5.55,10.112 -2.668,15.105l0.301,0.52l10.035,-5.793l10.035,5.793l0.3,-0.52c2.882,-4.993 1.753,-11.398 -2.668,-15.105c-2.051,-1.722 -4.555,-2.636 -7.089,-2.758l0,-1.41c0,-0.338 -0.272,-0.612 -0.61,-0.607l0,0Zm-0.585,3.219l0.019,10.35l-8.903,5.14c-2.209,-4.402 -1.209,-9.813 2.606,-13.014c1.818,-1.527 4.031,-2.348 6.277,-2.476l0.001,0Zm1.199,0c2.259,0.121 4.487,0.94 6.316,2.476c3.816,3.201 4.813,8.612 2.604,13.014l-8.903,-5.14l-0.017,-10.35Zm7.932,17.562l0.01,1.582l-1.606,0.008c-0.83,-0.028 -0.824,1.235 0.01,1.199l1.606,-0.008l0.01,1.629c-0.026,0.831 1.236,0.822 1.199,-0.008l-0.01,-1.625l1.604,-0.008c0.8,-0.004 0.794,-1.205 -0.01,-1.201l-1.606,0.008l-0.01,-1.584c0,-0.771 -1.197,-0.756 -1.197,0.008l0,0Zm-15.172,1.445l-4.414,0.019c-0.801,0.004 -0.795,1.206 0.01,1.202l4.414,-0.022c0.831,0.028 0.825,-1.235 -0.01,-1.199Z" style="fill:#f8f8f8;fill-rule:nonzero;"/>
    <path d="M54.145,165.5c-5.706,0 -11.412,1.934 -16.027,5.804c-9.229,7.746 -11.587,21.128 -5.564,31.564c0.391,0.723 1.468,0.101 1.039,-0.599c-5.733,-9.934 -3.488,-22.672 5.296,-30.045c8.786,-7.369 21.725,-7.369 30.511,0c8.785,7.372 11.029,20.111 5.296,30.045c-0.429,0.7 0.648,1.322 1.039,0.599c6.023,-10.436 3.666,-23.819 -5.564,-31.564c-4.615,-3.87 -10.32,-5.804 -16.025,-5.804l-0.001,0Zm-18.883,41.52c-2.371,0 -4.307,1.935 -4.307,4.306c0,2.371 1.936,4.305 4.307,4.305c2.371,0 4.307,-1.934 4.307,-4.305c0,-2.371 -1.936,-4.306 -4.307,-4.306Zm37.766,0c-2.371,0 -4.305,1.933 -4.305,4.304c0,2.371 1.934,4.307 4.305,4.307c2.371,0 4.307,-1.936 4.307,-4.307c0,-2.371 -1.936,-4.304 -4.307,-4.304Zm-37.766,1.199c1.722,0 3.105,1.385 3.105,3.107c0,1.723 -1.383,3.106 -3.105,3.106c-1.723,0 -3.106,-1.383 -3.106,-3.106c0,-1.722 1.383,-3.107 3.106,-3.107Z" style="fill:#f8f8f8;fill-rule:nonzero;"/>
    <path d="M116.944,164.942c-0.331,0.006 -0.596,0.279 -0.589,0.611l0,1.408c-2.521,0.13 -5.007,1.042 -7.047,2.756c-4.419,3.707 -5.55,10.112 -2.668,15.105l0.3,0.52l10.035,-5.793l10.035,5.793l0.301,-0.52c2.882,-4.993 1.752,-11.398 -2.668,-15.105c-2.051,-1.723 -4.555,-2.636 -7.09,-2.758l0,-1.41c0,-0.338 -0.271,-0.613 -0.609,-0.607l0,0Zm-0.586,3.218l0.019,10.35l-8.902,5.141c-2.209,-4.402 -1.209,-9.813 2.606,-13.014c1.818,-1.527 4.031,-2.348 6.277,-2.477l0,0Zm1.2,0c2.259,0.122 4.487,0.941 6.316,2.477c3.816,3.2 4.813,8.611 2.604,13.014l-8.903,-5.141l-0.017,-10.35Zm7.932,17.562l0.01,1.582l-1.606,0.008c-0.831,-0.027 -0.824,1.236 0.01,1.2l1.606,-0.008l0.01,1.628c-0.026,0.831 1.236,0.823 1.199,-0.008l-0.01,-1.625l1.604,-0.008c0.8,-0.004 0.794,-1.205 -0.01,-1.201l-1.606,0.008l-0.01,-1.584c0,-0.77 -1.197,-0.755 -1.197,0.008l0,0Zm-15.172,1.446l-4.414,0.019c-0.801,0.004 -0.795,1.205 0.01,1.201l4.414,-0.021c0.831,0.028 0.824,-1.235 -0.01,-1.199Z" style="fill:#f8f8f8;fill-rule:nonzero;"/>
    <path d="M116.88,104.823c-0.332,0.006 -0.596,0.28 -0.59,0.612l0,1.408c-2.52,0.13 -5.006,1.042 -7.047,2.756c-4.419,3.707 -5.55,10.112 -2.668,15.105l0.301,0.519l10.035,-5.793l10.035,5.793l0.301,-0.519c2.882,-4.993 1.752,-11.398 -2.668,-15.105c-2.051,-1.723 -4.555,-2.636 -7.09,-2.758l0,-1.41c0,-0.338 -0.271,-0.613 -0.609,-0.608l0,0Zm-0.586,3.219l0.019,10.35l-8.902,5.141c-2.21,-4.403 -1.209,-9.814 2.605,-13.014c1.819,-1.528 4.032,-2.348 6.278,-2.477l0,0Zm1.199,0c2.26,0.121 4.488,0.941 6.317,2.477c3.816,3.2 4.813,8.611 2.603,13.014l-8.902,-5.141l-0.018,-10.35Zm7.933,17.562l0.01,1.582l-1.606,0.008c-0.831,-0.028 -0.824,1.235 0.01,1.199l1.606,-0.008l0.01,1.629c-0.026,0.831 1.236,0.823 1.199,-0.008l-0.01,-1.625l1.603,-0.008c0.801,-0.004 0.795,-1.205 -0.01,-1.201l-1.605,0.008l-0.01,-1.584c0,-0.771 -1.197,-0.755 -1.197,0.008l0,0Zm-15.172,1.445l-4.414,0.02c-0.801,0.004 -0.795,1.205 0.01,1.201l4.414,-0.021c0.831,0.027 0.824,-1.236 -0.01,-1.2Z" style="fill:#f8f8f8;fill-rule:nonzero;"/>
    <path d="M54.039,103.07c-0.329,0.006 -0.595,0.281 -0.59,0.609l0,2.125c-5.336,0.14 -10.637,2.003 -14.955,5.627c-8.983,7.539 -11.281,20.566 -5.414,30.723c0.105,0.194 0.308,0.315 0.528,0.315c0.329,0 0.6,-0.271 0.6,-0.601c0,-0.11 -0.031,-0.219 -0.089,-0.313c-5.576,-9.655 -3.393,-22.037 5.147,-29.203c4.097,-3.438 9.123,-5.209 14.186,-5.348l0.041,23.023c-0.001,0.008 -0.001,0.015 -0.001,0.023c0,0.329 0.271,0.6 0.6,0.6c0.33,0 0.6,-0.271 0.6,-0.6c0,-0.009 0,-0.017 0,-0.025l-0.041,-23.025c5.09,0.122 10.149,1.895 14.268,5.352c8.543,7.166 10.723,19.548 5.15,29.203c-0.053,0.091 -0.08,0.195 -0.08,0.3c0,0.33 0.271,0.601 0.6,0.601c0.215,0 0.414,-0.115 0.521,-0.302c5.863,-10.157 3.568,-23.184 -5.42,-30.723c-4.341,-3.643 -9.675,-5.509 -15.041,-5.631l0,-2.123c0,-0.002 0,-0.005 0,-0.007c0,-0.329 -0.27,-0.6 -0.6,-0.6c-0.003,0 -0.006,0 -0.009,0l-0.001,0Zm19.768,40.668c-0.329,0.007 -0.594,0.282 -0.588,0.611l0.022,3.963l-4.006,0.018c-0.327,0.003 -0.595,0.273 -0.595,0.6c0,0.33 0.271,0.601 0.6,0.601c0.002,0 0.004,0 0.005,0l4.004,-0.019l0.021,4.054c0,0.007 0,0.013 0,0.019c0,0.33 0.271,0.6 0.6,0.6c0.329,0 0.6,-0.27 0.6,-0.6c0,-0.009 0,-0.018 -0.001,-0.027l-0.021,-4.051l4.01,-0.019c0.006,0 0.012,0 0.018,0c0.329,0 0.6,-0.271 0.6,-0.6c0,-0.329 -0.271,-0.6 -0.6,-0.6c-0.009,0 -0.019,0 -0.028,0.001l-4.008,0.017l-0.022,-3.964c0,-0.002 0,-0.003 0,-0.004c0,-0.329 -0.271,-0.6 -0.6,-0.6c-0.003,0 -0.007,0 -0.011,0l0,0Zm-33.621,4.289l-9.213,0.043c-0.006,0 -0.012,0 -0.018,0c-0.329,0 -0.6,0.271 -0.6,0.6c0,0.329 0.271,0.6 0.6,0.6c0.009,0 0.019,0 0.028,-0.001l9.213,-0.043c0.006,0 0.012,0.001 0.018,0.001c0.329,0 0.6,-0.271 0.6,-0.6c0,-0.33 -0.271,-0.601 -0.6,-0.601c-0.009,0 -0.019,0.001 -0.028,0.001Z" style="fill:#f8f8f8;"/>
    <path d="M116.883,43.182c-0.331,0.006 -0.596,0.28 -0.589,0.612l0,1.408c-2.521,0.13 -5.007,1.042 -7.047,2.756c-4.419,3.707 -5.55,10.112 -2.668,15.105l0.3,0.519l10.035,-5.793l10.035,5.793l0.301,-0.519c2.882,-4.993 1.752,-11.398 -2.668,-15.105c-2.051,-1.723 -4.555,-2.636 -7.09,-2.758l0,-1.41c0,-0.338 -0.271,-0.613 -0.609,-0.608l0,0Zm-0.586,3.219l0.019,10.35l-8.902,5.141c-2.209,-4.402 -1.209,-9.814 2.606,-13.014c1.818,-1.528 4.031,-2.348 6.277,-2.477l0,0Zm1.2,0c2.259,0.121 4.487,0.941 6.316,2.477c3.816,3.2 4.813,8.611 2.604,13.014l-8.903,-5.141l-0.017,-10.35Zm7.932,17.562l0.01,1.582l-1.606,0.008c-0.831,-0.028 -0.824,1.236 0.01,1.199l1.606,-0.008l0.01,1.629c-0.026,0.831 1.236,0.823 1.199,-0.008l-0.01,-1.625l1.604,-0.008c0.8,-0.004 0.794,-1.205 -0.01,-1.201l-1.606,0.008l-0.01,-1.584c0,-0.77 -1.197,-0.755 -1.197,0.008l0,0Zm-15.172,1.446l-4.414,0.019c-0.801,0.004 -0.795,1.205 0.01,1.201l4.414,-0.021c0.831,0.028 0.824,-1.236 -0.01,-1.199Z" style="fill:#f8f8f8;fill-rule:nonzero;"/>
    <path d="M53.974,40.999c-0.329,0.005 -0.595,0.28 -0.59,0.609l0,2.125c-5.336,0.14 -10.637,2.003 -14.955,5.627c-8.983,7.539 -11.281,20.566 -5.414,30.723c0.105,0.193 0.308,0.314 0.528,0.314c0.329,0 0.6,-0.271 0.6,-0.6c0,-0.11 -0.031,-0.219 -0.089,-0.313c-5.576,-9.655 -3.393,-22.037 5.147,-29.203c4.097,-3.438 9.123,-5.209 14.186,-5.348l0.041,23.023c0,0.007 -0.001,0.015 -0.001,0.022c0,0.33 0.271,0.6 0.601,0.6c0.329,0 0.6,-0.27 0.6,-0.6c0,-0.008 -0.001,-0.016 -0.001,-0.024l-0.041,-23.025c5.091,0.122 10.149,1.895 14.268,5.351c8.543,7.167 10.723,19.548 5.151,29.203c-0.053,0.092 -0.081,0.196 -0.081,0.301c0,0.33 0.271,0.601 0.6,0.601c0.215,0 0.415,-0.115 0.522,-0.302c5.862,-10.157 3.567,-23.184 -5.42,-30.723c-4.342,-3.643 -9.676,-5.509 -15.041,-5.631l0,-2.123c0,-0.002 0,-0.005 0,-0.007c0,-0.329 -0.271,-0.6 -0.6,-0.6c-0.004,0 -0.007,0 -0.01,0l-0.001,0Zm19.768,40.668c-0.329,0.006 -0.594,0.282 -0.588,0.611l0.022,3.963l-4.006,0.018c-0.327,0.002 -0.595,0.273 -0.595,0.6c0,0.33 0.271,0.601 0.6,0.601c0.002,0 0.004,0 0.005,0l4.004,-0.02l0.021,4.055c0,0.006 0,0.013 0,0.019c0,0.329 0.271,0.6 0.6,0.6c0.329,0 0.6,-0.271 0.6,-0.6c0,-0.009 0,-0.018 0,-0.027l-0.021,-4.051l4.009,-0.019c0.006,0 0.012,0 0.018,0c0.329,0 0.6,-0.271 0.6,-0.6c0,-0.329 -0.271,-0.6 -0.6,-0.6c-0.009,0 -0.018,0 -0.028,0.001l-4.007,0.017l-0.022,-3.965c0,-0.001 0,-0.002 0,-0.003c0,-0.329 -0.271,-0.6 -0.601,-0.6c-0.003,0 -0.007,0 -0.011,0l0,0Zm-33.621,4.289l-9.213,0.043c-0.006,0 -0.012,0 -0.018,0c-0.329,0 -0.6,0.271 -0.6,0.6c0,0.329 0.271,0.6 0.6,0.6c0.01,0 0.019,0 0.028,-0.001l9.213,-0.043c0.006,0 0.012,0 0.018,0c0.329,0 0.6,-0.27 0.6,-0.6c0,-0.329 -0.271,-0.6 -0.6,-0.6c-0.009,0 -0.018,0 -0.028,0.001Z" style="fill:#f8f8f8;"/>
    <path d="M61.77,93.979c-0.484,0 -0.924,0.076 -1.32,0.232c-0.396,0.156 -0.731,0.372 -1.012,0.649c-0.28,0.276 -0.496,0.612 -0.648,1.004c-0.152,0.392 -0.229,0.824 -0.229,1.293c0,0.476 0.076,0.907 0.232,1.299c0.156,0.392 0.373,0.728 0.649,1.009c0.277,0.28 0.608,0.497 0.996,0.653c0.388,0.156 0.817,0.232 1.285,0.232c0.34,0 0.669,-0.045 0.977,-0.129c0.308,-0.084 0.591,-0.207 0.851,-0.371c0.26,-0.164 0.484,-0.364 0.676,-0.609c0.192,-0.244 0.345,-0.52 0.457,-0.836c0.08,-0.224 0.132,-0.469 0.16,-0.729c0.028,-0.26 0.041,-0.552 0.041,-0.873l-3.115,0l0,1.217l1.289,0c-0.028,0.176 -0.076,0.325 -0.152,0.449c-0.076,0.124 -0.167,0.223 -0.283,0.299c-0.116,0.076 -0.245,0.132 -0.389,0.168c-0.144,0.036 -0.293,0.053 -0.449,0.053c-0.26,0 -0.492,-0.045 -0.688,-0.133c-0.196,-0.088 -0.364,-0.211 -0.496,-0.371c-0.132,-0.16 -0.231,-0.348 -0.299,-0.568c-0.068,-0.22 -0.101,-0.457 -0.101,-0.713c0,-0.285 0.041,-0.54 0.117,-0.768c0.076,-0.228 0.184,-0.424 0.32,-0.588c0.136,-0.164 0.3,-0.289 0.492,-0.377c0.192,-0.088 0.403,-0.131 0.639,-0.131c0.284,0 0.538,0.071 0.758,0.215c0.22,0.144 0.399,0.381 0.539,0.713l1.49,-0.617c-0.277,-0.572 -0.653,-0.991 -1.129,-1.264c-0.476,-0.272 -1.029,-0.408 -1.658,-0.408l0,0Zm-22.432,0.168l0,6.035l1.568,0l0,-2.322l1.497,2.322l1.953,0l-1.899,-2.474c0.433,-0.1 0.763,-0.295 0.983,-0.579c0.22,-0.285 0.332,-0.657 0.332,-1.117c0,-0.256 -0.041,-0.496 -0.125,-0.72c-0.084,-0.224 -0.204,-0.42 -0.368,-0.592c-0.164,-0.173 -0.368,-0.305 -0.621,-0.405c-0.252,-0.1 -0.544,-0.148 -0.88,-0.148l-2.44,0l0,0Zm7.395,0l-2.297,6.035l1.672,0l0.361,-1.049l2.24,0l0.359,1.049l1.674,0l-2.297,-6.035l-1.713,0l0.001,0Zm4.697,0l0,6.035l1.568,0l0,-3.691l2.899,3.691l1.56,0l0,-6.035l-1.56,0l0,3.689l-2.899,-3.689l-1.568,0Zm14.447,0l0,6.035l3.431,0l0,-1.33l-1.863,0l0,-1.039l1.76,0l0,-1.33l-1.76,0l0,-1.008l1.863,0l0,-1.328l-3.431,0Zm-24.971,1.209l0.295,0c0.308,0 0.549,0.063 0.713,0.191c0.164,0.128 0.248,0.313 0.248,0.553c0,0.24 -0.084,0.423 -0.248,0.551c-0.164,0.128 -0.405,0.193 -0.713,0.193l-0.295,0l0,-1.488l0,0Zm6.681,0.576l0.705,2.008l-1.408,0l0.703,-2.008Z" style="fill:#f8f8f8;fill-rule:nonzero;"/>
    <path d="M40.672,217.09c-0.32,0 -0.607,0.048 -0.867,0.145c-0.26,0.096 -0.476,0.23 -0.656,0.402c-0.18,0.173 -0.316,0.381 -0.416,0.625c-0.1,0.244 -0.149,0.512 -0.149,0.812c0,0.3 0.049,0.545 0.141,0.741c0.092,0.196 0.215,0.356 0.367,0.484c0.152,0.128 0.323,0.233 0.519,0.309c0.196,0.076 0.392,0.148 0.596,0.212c0.172,0.06 0.318,0.113 0.438,0.161c0.121,0.048 0.217,0.098 0.293,0.154c0.076,0.056 0.128,0.117 0.16,0.185c0.032,0.068 0.047,0.143 0.047,0.235c0,0.148 -0.064,0.284 -0.188,0.4c-0.124,0.116 -0.316,0.176 -0.572,0.176c-0.224,0 -0.454,-0.05 -0.682,-0.15c-0.228,-0.1 -0.459,-0.257 -0.695,-0.465l-0.672,1.265c0.653,0.452 1.355,0.68 2.119,0.68c0.369,0 0.698,-0.048 0.99,-0.148c0.292,-0.1 0.537,-0.236 0.737,-0.416c0.2,-0.18 0.351,-0.393 0.455,-0.645c0.104,-0.252 0.156,-0.532 0.156,-0.84c0,-0.46 -0.119,-0.833 -0.355,-1.117c-0.236,-0.285 -0.613,-0.512 -1.125,-0.684c-0.128,-0.044 -0.255,-0.085 -0.387,-0.121c-0.132,-0.036 -0.25,-0.079 -0.354,-0.131c-0.104,-0.052 -0.188,-0.113 -0.252,-0.181c-0.064,-0.068 -0.095,-0.156 -0.095,-0.264c0,-0.156 0.063,-0.279 0.191,-0.375c0.128,-0.096 0.291,-0.144 0.496,-0.144c0.16,0 0.324,0.031 0.496,0.099c0.172,0.068 0.342,0.169 0.514,0.309l0.623,-1.225c-0.3,-0.16 -0.612,-0.281 -0.936,-0.365c-0.324,-0.084 -0.636,-0.123 -0.937,-0.123l0,0Zm6.172,0c-0.492,0 -0.941,0.08 -1.35,0.244c-0.408,0.164 -0.76,0.387 -1.052,0.676c-0.292,0.288 -0.524,0.626 -0.688,1.014c-0.164,0.388 -0.248,0.803 -0.248,1.252c0,0.448 0.084,0.864 0.248,1.252c0.164,0.388 0.396,0.723 0.688,1.011c0.292,0.289 0.644,0.514 1.052,0.678c0.409,0.164 0.858,0.244 1.35,0.244c0.484,0 0.931,-0.08 1.344,-0.244c0.412,-0.164 0.764,-0.389 1.06,-0.678c0.296,-0.288 0.528,-0.623 0.692,-1.011c0.164,-0.388 0.248,-0.804 0.248,-1.252c0,-0.449 -0.084,-0.864 -0.248,-1.252c-0.164,-0.388 -0.396,-0.726 -0.692,-1.014c-0.296,-0.289 -0.648,-0.512 -1.06,-0.676c-0.413,-0.164 -0.86,-0.244 -1.344,-0.244Zm28.34,0c-0.42,0 -0.825,0.08 -1.209,0.236c-0.384,0.156 -0.72,0.376 -1.012,0.657c-0.292,0.28 -0.525,0.612 -0.697,1c-0.173,0.388 -0.26,0.812 -0.26,1.277c0,0.464 0.087,0.891 0.264,1.283c0.176,0.392 0.409,0.732 0.701,1.016c0.292,0.285 0.628,0.51 1.008,0.666c0.38,0.156 0.781,0.236 1.197,0.236c0.204,0 0.407,-0.02 0.615,-0.06c0.208,-0.04 0.432,-0.104 0.672,-0.188l0.16,-0.057l0,-1.857c-0.4,0.428 -0.851,0.641 -1.351,0.641c-0.228,0 -0.445,-0.045 -0.641,-0.129c-0.197,-0.084 -0.369,-0.204 -0.517,-0.352c-0.148,-0.148 -0.26,-0.323 -0.344,-0.527c-0.084,-0.204 -0.123,-0.424 -0.123,-0.664c0,-0.237 0.039,-0.452 0.123,-0.656c0.084,-0.204 0.196,-0.378 0.34,-0.526c0.144,-0.148 0.316,-0.264 0.517,-0.348c0.2,-0.084 0.417,-0.126 0.653,-0.126c0.532,0 0.979,0.22 1.343,0.664l0,-1.873c-0.256,-0.108 -0.5,-0.185 -0.732,-0.237c-0.232,-0.052 -0.467,-0.076 -0.707,-0.076l0,0Zm-46.812,0.168l0,6.035l1.568,0l0,-2.322l1.498,2.322l1.952,0l-1.897,-2.472c0.432,-0.1 0.76,-0.297 0.98,-0.581c0.22,-0.285 0.333,-0.657 0.333,-1.117c-0.001,-0.256 -0.04,-0.496 -0.124,-0.72c-0.084,-0.224 -0.205,-0.42 -0.369,-0.592c-0.164,-0.173 -0.367,-0.305 -0.619,-0.405c-0.252,-0.1 -0.544,-0.148 -0.881,-0.148l-2.441,0Zm5.676,0l0,6.035l3.431,0l0,-1.33l-1.865,0l0,-1.039l1.762,0l0,-1.33l-1.762,0l0,-1.008l1.865,0l0,-1.328l-3.431,0Zm17.135,0l0,6.035l1.566,0l0,-3.691l2.899,3.691l1.56,0l0,-6.035l-1.56,0l0,3.689l-2.899,-3.689l-1.566,0Zm9.027,0l-2.297,6.035l1.672,0l0.359,-1.049l2.243,0l0.361,1.049l1.672,0l-2.297,-6.035l-1.713,0Zm4.697,0l0,6.035l1.569,0l0,-3.691l2.896,3.691l1.563,0l0,-6.035l-1.563,0l0,3.689l-2.896,-3.689l-1.569,0Zm12.709,0l0,6.035l3.434,0l0,-1.33l-1.865,0l0,-1.039l1.761,0l0,-1.33l-1.761,0l0,-1.008l1.865,0l0,-1.328l-3.434,0Zm-47.676,1.209l0.297,0c0.308,0 0.547,0.063 0.711,0.191c0.164,0.128 0.25,0.313 0.25,0.553c0,0.24 -0.086,0.423 -0.25,0.551c-0.164,0.128 -0.403,0.193 -0.711,0.193l-0.297,0l0,-1.488Zm16.904,0.145c0.228,0 0.447,0.039 0.651,0.123c0.204,0.084 0.388,0.199 0.545,0.347c0.156,0.148 0.281,0.326 0.373,0.53c0.092,0.204 0.136,0.423 0.136,0.664c0,0.24 -0.044,0.46 -0.136,0.664c-0.092,0.204 -0.217,0.379 -0.373,0.527c-0.157,0.148 -0.341,0.266 -0.545,0.35c-0.204,0.084 -0.423,0.123 -0.651,0.123c-0.228,0 -0.448,-0.039 -0.652,-0.123c-0.204,-0.084 -0.385,-0.202 -0.541,-0.35c-0.157,-0.148 -0.277,-0.323 -0.369,-0.527c-0.092,-0.204 -0.135,-0.424 -0.135,-0.664c0,-0.241 0.043,-0.46 0.135,-0.664c0.092,-0.204 0.212,-0.382 0.369,-0.53c0.156,-0.148 0.337,-0.263 0.541,-0.347c0.204,-0.084 0.424,-0.123 0.652,-0.123Zm14.221,0.431l0.705,2.008l-1.408,0l0.703,-2.008Z" style="fill:#f8f8f8;fill-rule:nonzero;"/>
    <path d="M62.175,350.62l0,6.035l1.568,0l0,-6.035l-1.568,0Zm2.832,0l0,6.035l1.57,0l0,-3.691l2.897,3.691l1.56,0l0,-6.035l-1.56,0l0,3.689l-2.897,-3.689l-1.57,0Zm7.291,0l0,6.035l1.57,0l0,-2.002l0.928,0c0.677,0 1.197,-0.175 1.557,-0.527c0.36,-0.352 0.541,-0.848 0.541,-1.488c0,-0.64 -0.181,-1.137 -0.541,-1.489c-0.36,-0.353 -0.88,-0.529 -1.557,-0.529l-2.498,0Zm5.428,0l0,3.498c0,0.94 0.216,1.624 0.648,2.057c0.432,0.432 1.092,0.648 1.985,0.648c0.892,0 1.551,-0.216 1.98,-0.648c0.428,-0.433 0.645,-1.117 0.645,-2.057l0,-3.498l-1.561,0l0,3.281c0,0.176 -0.007,0.357 -0.019,0.541c-0.012,0.184 -0.057,0.352 -0.125,0.5c-0.068,0.148 -0.177,0.271 -0.317,0.363c-0.14,0.092 -0.343,0.141 -0.603,0.141c-0.26,0 -0.464,-0.048 -0.608,-0.141c-0.145,-0.092 -0.248,-0.215 -0.316,-0.363c-0.068,-0.148 -0.109,-0.316 -0.121,-0.5c-0.012,-0.184 -0.02,-0.365 -0.02,-0.541l0,-3.281l-1.568,0Zm5.955,0l0,1.328l1.287,0l0,4.707l1.568,0l0,-4.707l1.289,0l0,-1.328l-4.144,0Zm-9.813,1.266l0.52,0c0.577,0 0.865,0.252 0.865,0.752c0,0.5 -0.288,0.751 -0.865,0.751l-0.52,0l0,-1.503Z" style="fill:#f8f8f8;"/>
    <path d="M18.421,350.53c-0.484,0 -0.924,0.076 -1.32,0.232c-0.396,0.156 -0.732,0.372 -1.012,0.649c-0.281,0.276 -0.498,0.612 -0.65,1.004c-0.152,0.392 -0.227,0.824 -0.227,1.293c0,0.476 0.075,0.909 0.231,1.301c0.156,0.392 0.373,0.726 0.65,1.007c0.276,0.28 0.608,0.497 0.996,0.653c0.388,0.156 0.815,0.232 1.283,0.232c0.341,0 0.669,-0.045 0.977,-0.129c0.308,-0.084 0.593,-0.207 0.853,-0.371c0.26,-0.164 0.484,-0.364 0.676,-0.609c0.193,-0.244 0.345,-0.52 0.457,-0.836c0.08,-0.224 0.132,-0.469 0.16,-0.729c0.028,-0.26 0.039,-0.552 0.039,-0.873l-3.113,0l0,1.217l1.289,0c-0.028,0.176 -0.076,0.325 -0.152,0.449c-0.076,0.124 -0.169,0.223 -0.285,0.299c-0.116,0.076 -0.243,0.132 -0.387,0.168c-0.144,0.036 -0.292,0.053 -0.449,0.053c-0.26,0 -0.492,-0.045 -0.688,-0.133c-0.196,-0.088 -0.364,-0.211 -0.496,-0.371c-0.132,-0.16 -0.233,-0.349 -0.301,-0.569c-0.068,-0.22 -0.099,-0.454 -0.099,-0.71c0,-0.285 0.039,-0.542 0.115,-0.77c0.076,-0.228 0.184,-0.424 0.32,-0.588c0.136,-0.164 0.3,-0.289 0.492,-0.377c0.192,-0.088 0.405,-0.131 0.641,-0.131c0.285,0 0.536,0.071 0.756,0.215c0.22,0.144 0.401,0.381 0.541,0.713l1.488,-0.617c-0.276,-0.572 -0.653,-0.991 -1.129,-1.264c-0.476,-0.272 -1.027,-0.408 -1.656,-0.408l0,0Zm5.602,0.168l-2.297,6.035l1.674,0l0.359,-1.049l2.242,0l0.359,1.049l1.672,0l-2.295,-6.035l-1.714,0Zm3.865,0l0,1.328l1.289,0l0,4.707l1.57,0l0,-4.707l1.287,0l0,-1.328l-4.146,0Zm4.842,0l0,6.035l3.435,0l0,-1.33l-1.865,0l0,-1.039l1.76,0l0,-1.33l-1.76,0l0,-1.008l1.865,0l0,-1.328l-3.435,0Zm-7.85,1.785l0.703,2.008l-1.408,0l0.705,-2.008Z" style="fill:#f8f8f8;fill-rule:nonzero;"/>
    <path d="M58.349,17.71l0,6.579c0,0.277 -0.014,0.532 -0.044,0.767c-0.029,0.236 -0.077,0.437 -0.144,0.605c-0.109,0.267 -0.258,0.512 -0.447,0.735c-0.188,0.222 -0.409,0.411 -0.661,0.566c-0.251,0.156 -0.53,0.277 -0.836,0.365c-0.306,0.088 -0.626,0.132 -0.962,0.132c-1.015,0 -1.84,-0.465 -2.478,-1.396l1.61,-1.648c0.042,0.285 0.134,0.512 0.277,0.679c0.142,0.168 0.318,0.252 0.529,0.252c0.46,0 0.691,-0.365 0.691,-1.095l0,-6.541l2.465,0Z" style="fill:#f8f8f8;fill-rule:nonzero;"/>
    <path d="M62.815,17.71l0,5.157c0,0.278 0.011,0.56 0.032,0.849c0.02,0.29 0.084,0.551 0.188,0.787c0.105,0.235 0.27,0.425 0.498,0.573c0.227,0.146 0.545,0.22 0.955,0.22c0.412,0 0.729,-0.074 0.95,-0.22c0.222,-0.148 0.389,-0.338 0.497,-0.573c0.109,-0.236 0.174,-0.497 0.195,-0.787c0.022,-0.289 0.031,-0.571 0.031,-0.849l0,-5.157l2.453,0l0,5.497c0,1.476 -0.337,2.553 -1.012,3.233c-0.675,0.679 -1.713,1.019 -3.114,1.019c-1.4,0 -2.44,-0.34 -3.119,-1.019c-0.68,-0.68 -1.019,-1.757 -1.019,-3.233l0,-5.497l2.465,0Z" style="fill:#f8f8f8;fill-rule:nonzero;"/>
    <path d="M73.068,17.71l0,7.396l2.956,0l0,2.089l-5.421,0l0,-9.485l2.465,0Z" style="fill:#f8f8f8;fill-rule:nonzero;"/>
    <path d="M82.654,20.137c-0.269,-0.217 -0.537,-0.38 -0.806,-0.483c-0.267,-0.106 -0.527,-0.158 -0.779,-0.158c-0.319,0 -0.579,0.075 -0.78,0.227c-0.201,0.15 -0.303,0.347 -0.303,0.591c0,0.168 0.051,0.305 0.152,0.414c0.1,0.11 0.232,0.204 0.396,0.284c0.164,0.08 0.349,0.149 0.554,0.208c0.205,0.059 0.409,0.121 0.61,0.188c0.804,0.269 1.394,0.627 1.767,1.076c0.373,0.449 0.56,1.033 0.56,1.754c0,0.488 -0.082,0.927 -0.245,1.321c-0.164,0.395 -0.403,0.733 -0.717,1.013c-0.314,0.281 -0.701,0.499 -1.157,0.655c-0.457,0.154 -0.975,0.232 -1.555,0.232c-1.198,0 -2.309,-0.356 -3.334,-1.069l1.058,-1.988c0.369,0.328 0.734,0.57 1.095,0.73c0.359,0.16 0.716,0.238 1.068,0.238c0.404,0 0.703,-0.092 0.9,-0.276c0.198,-0.185 0.296,-0.394 0.296,-0.63c0,-0.142 -0.025,-0.265 -0.076,-0.37c-0.05,-0.105 -0.134,-0.201 -0.252,-0.289c-0.117,-0.089 -0.27,-0.17 -0.459,-0.246c-0.188,-0.075 -0.417,-0.159 -0.685,-0.251c-0.319,-0.101 -0.631,-0.211 -0.937,-0.334c-0.307,-0.121 -0.58,-0.282 -0.818,-0.483c-0.239,-0.203 -0.432,-0.456 -0.578,-0.762c-0.148,-0.307 -0.221,-0.694 -0.221,-1.163c0,-0.47 0.077,-0.896 0.233,-1.277c0.154,-0.383 0.373,-0.709 0.654,-0.982c0.281,-0.272 0.624,-0.483 1.032,-0.635c0.406,-0.151 0.862,-0.227 1.364,-0.227c0.47,0 0.96,0.066 1.472,0.196c0.511,0.129 1.003,0.32 1.471,0.571l-0.98,1.925Z" style="fill:#f8f8f8;fill-rule:nonzero;"/>
    <path d="M89.233,19.797l0,7.398l-2.466,0l0,-7.398l-2.024,0l0,-2.087l6.515,0l0,2.087l-2.025,0Z" style="fill:#f8f8f8;fill-rule:nonzero;"/>
    <path d="M97.75,19.797l-2.931,0l0,1.585l2.767,0l0,2.089l-2.767,0l0,1.635l2.931,0l0,2.089l-5.397,0l0,-9.485l5.397,0l0,2.087Z" style="fill:#f8f8f8;fill-rule:nonzero;"/>
    <path d="M31.574,278.64c-0.321,0 -0.609,0.047 -0.869,0.143c-0.26,0.096 -0.476,0.232 -0.656,0.404c-0.18,0.173 -0.316,0.381 -0.416,0.625c-0.1,0.244 -0.149,0.512 -0.149,0.812c0,0.3 0.049,0.545 0.141,0.741c0.092,0.196 0.215,0.356 0.367,0.484c0.152,0.128 0.325,0.233 0.521,0.309c0.196,0.076 0.392,0.147 0.596,0.211c0.172,0.06 0.318,0.112 0.438,0.16c0.12,0.048 0.215,0.1 0.291,0.156c0.076,0.056 0.128,0.116 0.16,0.184c0.032,0.068 0.049,0.144 0.049,0.236c0,0.148 -0.066,0.284 -0.19,0.4c-0.124,0.116 -0.315,0.176 -0.572,0.176c-0.224,0 -0.452,-0.052 -0.68,-0.152c-0.228,-0.1 -0.461,-0.255 -0.697,-0.463l-0.672,1.263c0.652,0.452 1.356,0.682 2.121,0.682c0.368,0 0.696,-0.048 0.988,-0.148c0.292,-0.1 0.537,-0.236 0.737,-0.416c0.2,-0.18 0.351,-0.393 0.455,-0.645c0.104,-0.252 0.156,-0.532 0.156,-0.84c0,-0.46 -0.119,-0.833 -0.355,-1.117c-0.236,-0.285 -0.611,-0.513 -1.123,-0.685c-0.128,-0.044 -0.257,-0.084 -0.389,-0.12c-0.132,-0.036 -0.248,-0.08 -0.352,-0.132c-0.104,-0.052 -0.189,-0.112 -0.253,-0.18c-0.064,-0.068 -0.096,-0.156 -0.096,-0.264c0,-0.156 0.064,-0.279 0.193,-0.375c0.128,-0.096 0.292,-0.144 0.496,-0.144c0.16,0 0.324,0.031 0.496,0.099c0.172,0.068 0.34,0.169 0.512,0.309l0.623,-1.225c-0.3,-0.16 -0.611,-0.281 -0.935,-0.365c-0.324,-0.084 -0.636,-0.123 -0.936,-0.123l0,0Zm41.209,0c-0.32,0 -0.609,0.047 -0.869,0.143c-0.26,0.096 -0.476,0.232 -0.656,0.404c-0.18,0.173 -0.316,0.381 -0.416,0.625c-0.1,0.244 -0.149,0.512 -0.149,0.812c0,0.3 0.049,0.545 0.141,0.741c0.092,0.196 0.215,0.356 0.367,0.484c0.152,0.128 0.325,0.233 0.521,0.309c0.196,0.076 0.391,0.147 0.596,0.211c0.172,0.06 0.318,0.112 0.438,0.16c0.12,0.048 0.215,0.1 0.291,0.156c0.076,0.056 0.128,0.116 0.16,0.184c0.032,0.068 0.049,0.144 0.049,0.236c0,0.148 -0.066,0.284 -0.19,0.4c-0.124,0.116 -0.316,0.176 -0.572,0.176c-0.224,0 -0.452,-0.052 -0.68,-0.152c-0.228,-0.1 -0.461,-0.255 -0.697,-0.463l-0.672,1.263c0.652,0.452 1.356,0.682 2.121,0.682c0.368,0 0.696,-0.048 0.988,-0.148c0.292,-0.1 0.537,-0.236 0.737,-0.416c0.2,-0.18 0.352,-0.393 0.457,-0.645c0.104,-0.252 0.156,-0.532 0.156,-0.84c0,-0.46 -0.12,-0.833 -0.357,-1.117c-0.236,-0.285 -0.611,-0.513 -1.123,-0.685c-0.128,-0.044 -0.257,-0.084 -0.389,-0.12c-0.132,-0.036 -0.248,-0.08 -0.352,-0.132c-0.104,-0.052 -0.188,-0.112 -0.252,-0.18c-0.064,-0.068 -0.095,-0.156 -0.095,-0.264c0,-0.156 0.063,-0.279 0.191,-0.375c0.128,-0.096 0.292,-0.144 0.496,-0.144c0.16,0 0.324,0.031 0.496,0.099c0.172,0.068 0.34,0.169 0.512,0.309l0.623,-1.225c-0.3,-0.16 -0.611,-0.281 -0.935,-0.365c-0.324,-0.084 -0.636,-0.123 -0.936,-0.123l0,0Zm5.17,0c-0.32,0 -0.608,0.047 -0.869,0.143c-0.26,0.096 -0.476,0.232 -0.656,0.404c-0.18,0.173 -0.317,0.381 -0.417,0.625c-0.1,0.244 -0.148,0.512 -0.148,0.812c0,0.3 0.049,0.545 0.141,0.741c0.092,0.196 0.215,0.356 0.367,0.484c0.152,0.128 0.325,0.233 0.521,0.309c0.196,0.076 0.392,0.147 0.596,0.211c0.172,0.06 0.318,0.112 0.438,0.16c0.12,0.048 0.215,0.1 0.291,0.156c0.076,0.056 0.128,0.116 0.16,0.184c0.032,0.068 0.049,0.144 0.049,0.236c0,0.148 -0.066,0.284 -0.19,0.4c-0.124,0.116 -0.316,0.176 -0.572,0.176c-0.224,0 -0.451,-0.052 -0.68,-0.152c-0.228,-0.1 -0.461,-0.255 -0.697,-0.463l-0.672,1.263c0.652,0.452 1.356,0.682 2.121,0.682c0.368,0 0.696,-0.048 0.988,-0.148c0.292,-0.1 0.537,-0.236 0.737,-0.416c0.201,-0.18 0.353,-0.393 0.457,-0.645c0.104,-0.252 0.156,-0.532 0.156,-0.84c0,-0.46 -0.119,-0.833 -0.355,-1.117c-0.237,-0.285 -0.613,-0.513 -1.125,-0.685c-0.128,-0.044 -0.257,-0.084 -0.389,-0.12c-0.132,-0.036 -0.248,-0.08 -0.352,-0.132c-0.104,-0.052 -0.188,-0.112 -0.252,-0.18c-0.064,-0.068 -0.095,-0.156 -0.095,-0.264c0,-0.156 0.063,-0.279 0.191,-0.375c0.128,-0.096 0.292,-0.144 0.496,-0.144c0.16,0 0.324,0.031 0.496,0.099c0.172,0.068 0.34,0.169 0.512,0.309l0.625,-1.225c-0.3,-0.16 -0.614,-0.281 -0.938,-0.365c-0.324,-0.084 -0.635,-0.123 -0.935,-0.123l0,0Zm-43.273,0.168l0,6.035l1.568,0l0,-2.49l2.264,0l0,2.49l1.568,0l0,-6.035l-1.568,0l0,2.328l-2.264,0l0,-2.328l-1.568,0Zm8.387,0l-2.297,6.035l1.672,0l0.361,-1.049l2.24,0l0.36,1.049l1.673,0l-2.297,-6.035l-1.712,0l0,0Zm4.697,0l0,6.035l1.568,0l0,-2.322l1.498,2.322l1.952,0l-1.895,-2.474c0.432,-0.1 0.759,-0.295 0.979,-0.579c0.22,-0.285 0.332,-0.657 0.332,-1.117c0,-0.256 -0.039,-0.496 -0.123,-0.72c-0.085,-0.224 -0.206,-0.42 -0.37,-0.592c-0.164,-0.173 -0.367,-0.306 -0.619,-0.406c-0.252,-0.1 -0.545,-0.147 -0.881,-0.147l-2.441,0l0,0Zm5.676,0l0,6.035l1.568,0l0,-2.002l0.928,0c0.676,0 1.196,-0.175 1.556,-0.527c0.361,-0.352 0.541,-0.85 0.541,-1.49c0,-0.64 -0.18,-1.135 -0.541,-1.487c-0.36,-0.353 -0.88,-0.529 -1.556,-0.529l-2.496,0l0,0Zm5.426,0l0,6.035l1.568,0l0,-3.691l2.896,3.691l1.561,0l0,-6.035l-1.561,0l0,3.689l-2.896,-3.689l-1.568,0Zm7.291,0l0,6.035l3.433,0l0,-1.33l-1.865,0l0,-1.039l1.76,0l0,-1.33l-1.76,0l0,-1.008l1.865,0l0,-1.328l-3.433,0Zm-16.824,1.209l0.296,0c0.308,0 0.549,0.063 0.713,0.191c0.164,0.128 0.248,0.313 0.248,0.553c0,0.24 -0.084,0.423 -0.248,0.551c-0.164,0.128 -0.405,0.193 -0.713,0.193l-0.296,0l0,-1.488l0,0Zm5.675,0.055l0.52,0c0.576,0 0.865,0.252 0.865,0.752c0,0.5 -0.289,0.752 -0.865,0.752l-0.52,0l0,-1.504Zm-11.084,0.521l0.703,2.008l-1.408,0l0.705,-2.008Z" style="fill:#f8f8f8;fill-rule:nonzero;"/>
    <path d="M63.926,297.89l1.093,2.757l1.1,-2.757l1.277,0l-1.909,4.526l-0.936,0l-1.901,-4.526l1.276,0Z" style="fill:#f8f8f8;fill-rule:nonzero;"/>
    <path d="M70.913,299.4c-0.272,-0.333 -0.608,-0.497 -1.008,-0.497c-0.176,0 -0.34,0.032 -0.488,0.096c-0.152,0.064 -0.28,0.152 -0.389,0.26c-0.108,0.113 -0.192,0.241 -0.256,0.393c-0.06,0.152 -0.092,0.316 -0.092,0.492c0,0.18 0.032,0.348 0.092,0.5c0.064,0.152 0.148,0.284 0.26,0.396c0.109,0.112 0.237,0.2 0.385,0.264c0.148,0.064 0.308,0.096 0.48,0.096c0.376,0 0.716,-0.16 1.016,-0.48l0,1.393l-0.12,0.04c-0.18,0.064 -0.348,0.112 -0.504,0.14c-0.156,0.032 -0.312,0.044 -0.464,0.044c-0.312,0 -0.608,-0.056 -0.897,-0.176c-0.284,-0.116 -0.536,-0.284 -0.756,-0.497c-0.216,-0.216 -0.392,-0.468 -0.524,-0.764c-0.132,-0.292 -0.196,-0.612 -0.196,-0.96c0,-0.348 0.064,-0.669 0.192,-0.957c0.132,-0.292 0.304,-0.54 0.524,-0.752c0.216,-0.208 0.468,-0.372 0.756,-0.492c0.289,-0.116 0.593,-0.176 0.909,-0.176c0.18,0 0.356,0.02 0.528,0.056c0.176,0.04 0.36,0.096 0.552,0.176l0,1.405Z" style="fill:#f8f8f8;fill-rule:nonzero;"/>
    <path d="M74.223,300.73l-0.529,-1.505l-0.528,1.505l1.057,0Zm0.312,0.896l-1.681,0l-0.268,0.785l-1.253,0l1.721,-4.526l1.285,0l1.72,4.526l-1.252,0l-0.272,-0.785Z" style="fill:#f8f8f8;fill-rule:nonzero;"/>
    <path d="M68.523,308.76c-0.368,0 -0.704,0.06 -1.012,0.184c-0.304,0.12 -0.567,0.287 -0.787,0.503c-0.221,0.216 -0.393,0.474 -0.517,0.762c-0.124,0.293 -0.184,0.604 -0.184,0.94c0,0.336 0.06,0.649 0.184,0.937c0.124,0.292 0.296,0.543 0.517,0.76c0.22,0.216 0.483,0.384 0.787,0.508c0.308,0.12 0.644,0.179 1.012,0.179c0.364,0 0.702,-0.059 1.01,-0.179c0.308,-0.124 0.571,-0.292 0.791,-0.508c0.224,-0.217 0.397,-0.468 0.521,-0.76c0.124,-0.288 0.188,-0.601 0.188,-0.937c0,-0.336 -0.064,-0.647 -0.188,-0.94c-0.124,-0.288 -0.297,-0.546 -0.521,-0.762c-0.22,-0.216 -0.483,-0.383 -0.791,-0.503c-0.308,-0.124 -0.646,-0.184 -1.01,-0.184Zm20.234,0c-0.24,0 -0.458,0.035 -0.654,0.107c-0.192,0.072 -0.356,0.173 -0.492,0.305c-0.132,0.128 -0.235,0.285 -0.311,0.469c-0.072,0.18 -0.113,0.383 -0.113,0.607c0,0.225 0.037,0.409 0.109,0.557c0.068,0.144 0.159,0.265 0.275,0.361c0.112,0.096 0.245,0.171 0.389,0.231c0.148,0.056 0.294,0.112 0.447,0.16c0.128,0.044 0.237,0.085 0.329,0.121c0.088,0.036 0.16,0.071 0.216,0.115c0.056,0.04 0.095,0.089 0.119,0.137c0.024,0.052 0.038,0.112 0.038,0.18c0,0.112 -0.045,0.21 -0.141,0.298c-0.092,0.088 -0.236,0.133 -0.428,0.133c-0.168,0 -0.341,-0.039 -0.513,-0.115c-0.172,-0.076 -0.344,-0.194 -0.52,-0.35l-0.504,0.95c0.488,0.34 1.017,0.507 1.59,0.507c0.276,0 0.522,-0.035 0.738,-0.107c0.22,-0.076 0.405,-0.18 0.553,-0.312c0.152,-0.136 0.264,-0.296 0.344,-0.485c0.076,-0.188 0.117,-0.395 0.117,-0.627c0,-0.344 -0.09,-0.626 -0.27,-0.842c-0.176,-0.212 -0.456,-0.383 -0.84,-0.511c-0.096,-0.032 -0.191,-0.06 -0.291,-0.088c-0.096,-0.028 -0.183,-0.06 -0.263,-0.1c-0.076,-0.036 -0.142,-0.085 -0.19,-0.137c-0.048,-0.052 -0.07,-0.115 -0.07,-0.195c0,-0.116 0.047,-0.213 0.143,-0.285c0.096,-0.072 0.221,-0.107 0.373,-0.107c0.12,0 0.243,0.028 0.371,0.076c0.128,0.052 0.257,0.128 0.385,0.232l0.466,-0.92c-0.224,-0.12 -0.459,-0.209 -0.703,-0.273c-0.244,-0.06 -0.475,-0.092 -0.699,-0.092l0,0Zm3.873,0c-0.24,0 -0.456,0.035 -0.648,0.107c-0.196,0.072 -0.361,0.173 -0.493,0.305c-0.136,0.128 -0.24,0.285 -0.312,0.469c-0.076,0.18 -0.111,0.383 -0.111,0.607c0,0.225 0.035,0.409 0.103,0.557c0.072,0.144 0.163,0.265 0.275,0.361c0.116,0.096 0.245,0.171 0.393,0.231c0.144,0.056 0.291,0.112 0.443,0.16c0.128,0.044 0.241,0.085 0.329,0.121c0.092,0.036 0.164,0.071 0.22,0.115c0.056,0.04 0.095,0.089 0.119,0.137c0.024,0.052 0.037,0.112 0.037,0.18c0,0.112 -0.048,0.21 -0.14,0.298c-0.096,0.088 -0.24,0.133 -0.432,0.133c-0.168,0 -0.336,-0.039 -0.508,-0.115c-0.172,-0.076 -0.343,-0.194 -0.519,-0.35l-0.504,0.95c0.488,0.34 1.016,0.507 1.588,0.507c0.276,0 0.523,-0.035 0.74,-0.107c0.22,-0.076 0.405,-0.18 0.553,-0.312c0.152,-0.136 0.264,-0.296 0.34,-0.485c0.08,-0.188 0.119,-0.395 0.119,-0.627c0,-0.344 -0.092,-0.626 -0.268,-0.842c-0.176,-0.212 -0.46,-0.383 -0.845,-0.511c-0.096,-0.032 -0.192,-0.06 -0.288,-0.088c-0.1,-0.028 -0.187,-0.06 -0.263,-0.1c-0.08,-0.036 -0.146,-0.085 -0.194,-0.137c-0.048,-0.052 -0.07,-0.115 -0.07,-0.195c0,-0.116 0.047,-0.213 0.143,-0.285c0.096,-0.072 0.221,-0.107 0.373,-0.107c0.12,0 0.243,0.028 0.371,0.076c0.129,0.052 0.257,0.128 0.385,0.232l0.468,-0.92c-0.224,-0.12 -0.455,-0.209 -0.699,-0.273c-0.245,-0.06 -0.481,-0.092 -0.705,-0.092l0,0Zm-29.51,0.125l0,4.525l2.59,0l0,-0.998l-1.412,0l0,-3.527l-1.178,0l0,0Zm8.107,0l1.35,4.525l1.199,0l0.891,-2.621l0.887,2.621l1.201,0l1.347,-4.525l-1.226,0l-0.781,2.924l-0.961,-2.924l-0.936,0l-0.961,2.924l-0.781,-2.924l-1.229,0l0,0Zm7.352,0l0,4.525l1.178,0l0,-1.502l0.695,0c0.508,0 0.896,-0.13 1.164,-0.394c0.272,-0.264 0.404,-0.637 0.404,-1.117c0,-0.481 -0.132,-0.854 -0.404,-1.118c-0.268,-0.264 -0.656,-0.394 -1.164,-0.394l-1.873,0l0,0Zm5.107,0l-1.724,4.525l1.256,0l0.267,-0.785l1.682,0l0.271,0.785l1.252,0l-1.72,-4.525l-1.284,0l0,0Zm-3.929,0.947l0.386,0c0.432,0 0.649,0.188 0.649,0.565c0,0.376 -0.217,0.564 -0.649,0.564l-0.386,0l0,-1.129l0,0Zm-11.234,0.069c0.172,0 0.336,0.031 0.488,0.091c0.157,0.064 0.294,0.148 0.41,0.26c0.12,0.113 0.211,0.245 0.279,0.397c0.068,0.152 0.1,0.32 0.1,0.5c0,0.18 -0.032,0.344 -0.1,0.496c-0.068,0.152 -0.159,0.284 -0.279,0.396c-0.116,0.112 -0.253,0.2 -0.41,0.26c-0.152,0.064 -0.316,0.096 -0.488,0.096c-0.172,0 -0.337,-0.032 -0.489,-0.096c-0.156,-0.06 -0.29,-0.148 -0.406,-0.26c-0.116,-0.112 -0.205,-0.244 -0.273,-0.396c-0.068,-0.152 -0.104,-0.316 -0.104,-0.496c0,-0.18 0.036,-0.348 0.104,-0.5c0.068,-0.152 0.157,-0.284 0.273,-0.397c0.116,-0.112 0.25,-0.196 0.406,-0.26c0.152,-0.06 0.317,-0.091 0.489,-0.091Zm15.803,0.324l0.529,1.504l-1.057,0l0.528,-1.504l0,0Z" style="fill:#f8f8f8;fill-rule:nonzero;"/>
    <path d="M42.402,155.53c-0.492,0 -0.94,0.08 -1.348,0.244c-0.408,0.164 -0.76,0.387 -1.052,0.676c-0.292,0.288 -0.526,0.624 -0.69,1.012c-0.164,0.388 -0.248,0.805 -0.248,1.254c0,0.448 0.084,0.863 0.248,1.252c0.164,0.388 0.398,0.723 0.69,1.011c0.292,0.289 0.644,0.514 1.052,0.678c0.408,0.164 0.856,0.244 1.348,0.244c0.485,0 0.932,-0.08 1.344,-0.244c0.412,-0.164 0.764,-0.389 1.06,-0.678c0.296,-0.288 0.53,-0.623 0.694,-1.011c0.164,-0.388 0.248,-0.804 0.248,-1.252c0,-0.449 -0.084,-0.866 -0.248,-1.254c-0.164,-0.388 -0.398,-0.724 -0.694,-1.012c-0.296,-0.289 -0.648,-0.512 -1.06,-0.676c-0.412,-0.164 -0.859,-0.244 -1.344,-0.244Zm15.191,0c-0.32,0 -0.609,0.047 -0.869,0.143c-0.26,0.096 -0.476,0.232 -0.656,0.404c-0.18,0.173 -0.316,0.381 -0.416,0.625c-0.1,0.244 -0.149,0.512 -0.149,0.812c0,0.3 0.049,0.545 0.141,0.741c0.092,0.196 0.215,0.356 0.367,0.484c0.152,0.128 0.323,0.233 0.519,0.309c0.196,0.076 0.394,0.147 0.598,0.211c0.173,0.06 0.316,0.112 0.436,0.16c0.12,0.048 0.217,0.1 0.293,0.156c0.076,0.056 0.128,0.116 0.16,0.184c0.032,0.068 0.047,0.144 0.047,0.236c0,0.148 -0.064,0.284 -0.188,0.4c-0.124,0.116 -0.316,0.176 -0.572,0.176c-0.225,0 -0.454,-0.052 -0.682,-0.152c-0.228,-0.1 -0.459,-0.255 -0.695,-0.463l-0.672,1.265c0.652,0.452 1.356,0.68 2.121,0.68c0.368,0 0.696,-0.048 0.988,-0.148c0.292,-0.1 0.537,-0.236 0.737,-0.416c0.2,-0.18 0.351,-0.393 0.455,-0.645c0.104,-0.252 0.158,-0.532 0.158,-0.84c0,-0.46 -0.121,-0.833 -0.357,-1.117c-0.236,-0.285 -0.613,-0.514 -1.125,-0.686c-0.128,-0.044 -0.255,-0.083 -0.387,-0.119c-0.132,-0.036 -0.25,-0.08 -0.354,-0.132c-0.104,-0.052 -0.187,-0.112 -0.252,-0.18c-0.064,-0.068 -0.095,-0.156 -0.095,-0.264c0,-0.156 0.064,-0.279 0.193,-0.375c0.128,-0.096 0.29,-0.144 0.494,-0.144c0.16,0 0.324,0.031 0.496,0.099c0.172,0.068 0.342,0.169 0.514,0.309l0.623,-1.225c-0.3,-0.16 -0.611,-0.281 -0.935,-0.365c-0.324,-0.084 -0.636,-0.123 -0.936,-0.123l0,0Zm-10.854,0.168l0,6.035l1.568,0l0,-2.369l1.721,0l0,-1.33l-1.721,0l0,-1.008l1.889,0l0,-1.328l-3.457,0Zm4.395,0l0,6.035l1.568,0l0,-2.369l1.721,0l0,-1.33l-1.721,0l0,-1.008l1.889,0l0,-1.328l-3.457,0Zm9.562,0l0,6.035l3.434,0l0,-1.33l-1.864,0l0,-1.039l1.76,0l0,-1.33l-1.76,0l0,-1.008l1.864,0l0,-1.328l-3.434,0Zm3.994,0l0,1.328l1.289,0l0,4.707l1.569,0l0,-4.707l1.289,0l0,-1.328l-4.147,0Zm-22.289,1.352c0.228,0 0.448,0.041 0.652,0.125c0.204,0.084 0.389,0.199 0.545,0.347c0.156,0.148 0.279,0.324 0.371,0.528c0.092,0.204 0.137,0.425 0.137,0.666c0,0.24 -0.045,0.46 -0.137,0.664c-0.092,0.204 -0.215,0.379 -0.371,0.527c-0.156,0.148 -0.341,0.264 -0.545,0.348c-0.204,0.084 -0.424,0.125 -0.652,0.125c-0.228,0 -0.448,-0.041 -0.652,-0.125c-0.204,-0.084 -0.383,-0.2 -0.539,-0.348c-0.156,-0.148 -0.277,-0.323 -0.369,-0.527c-0.092,-0.204 -0.137,-0.424 -0.137,-0.664c0,-0.241 0.045,-0.462 0.137,-0.666c0.092,-0.204 0.213,-0.38 0.369,-0.528c0.156,-0.148 0.335,-0.263 0.539,-0.347c0.204,-0.084 0.424,-0.125 0.652,-0.125Z" style="fill:#f8f8f8;fill-rule:nonzero;"/>
    <g>
      <path d="M23.098,37.551l0,-1.01c0.683,0.286 1.267,0.428 1.751,0.428c0.565,0 0.848,-0.192 0.848,-0.577c0,-0.248 -0.233,-0.465 -0.699,-0.652l-0.466,-0.186c-0.506,-0.205 -0.867,-0.426 -1.084,-0.662c-0.217,-0.235 -0.326,-0.527 -0.326,-0.874c0,-0.485 0.184,-0.861 0.553,-1.13c0.37,-0.268 0.887,-0.402 1.55,-0.402c0.417,0 0.912,0.06 1.486,0.182l0,0.968c-0.553,-0.193 -1.01,-0.288 -1.373,-0.288c-0.571,0 -0.857,0.176 -0.857,0.53c0,0.233 0.211,0.43 0.633,0.591l0.401,0.153c0.599,0.227 1.015,0.457 1.25,0.69c0.234,0.233 0.351,0.532 0.351,0.899c0,0.48 -0.2,0.871 -0.598,1.171c-0.399,0.298 -0.918,0.448 -1.557,0.448c-0.615,0 -1.236,-0.093 -1.863,-0.279Z" style="fill:#f8f8f8;fill-rule:nonzero;"/>
      <path d="M28.624,37.714l0,-5.112l1.379,0l0,5.112l-1.379,0Zm0,-5.973l0,-1.151l1.379,0l0,1.151l-1.379,0Z" style="fill:#f8f8f8;fill-rule:nonzero;"/>
      <path d="M31.725,37.714l0,-5.112l1.322,0l0,0.964c0.404,-0.72 0.978,-1.08 1.722,-1.08c0.386,0 0.702,0.094 0.95,0.283c0.249,0.19 0.402,0.456 0.457,0.797c0.478,-0.72 1.055,-1.08 1.732,-1.08c0.934,0 1.402,0.515 1.402,1.545l0,3.683l-1.323,0l0,-3.231c0,-0.605 -0.202,-0.908 -0.605,-0.908c-0.413,0 -0.815,0.298 -1.206,0.894l0,3.245l-1.322,0l0,-3.231c0,-0.608 -0.203,-0.912 -0.61,-0.912c-0.406,0 -0.805,0.298 -1.197,0.898l0,3.245l-1.322,0Z" style="fill:#f8f8f8;fill-rule:nonzero;"/>
      <path d="M40.971,39.553l0,-6.951l1.378,0l0,0.964c0.354,-0.72 0.911,-1.08 1.671,-1.08c0.615,0 1.098,0.225 1.451,0.675c0.352,0.45 0.528,1.07 0.528,1.857c0,0.857 -0.198,1.54 -0.596,2.049c-0.397,0.509 -0.93,0.763 -1.597,0.763c-0.536,0 -1.022,-0.21 -1.457,-0.633l0,2.356l-1.378,0Zm1.378,-3.175c0.335,0.372 0.693,0.559 1.071,0.559c0.339,0 0.609,-0.164 0.81,-0.491c0.202,-0.328 0.303,-0.765 0.303,-1.311c0,-1.046 -0.337,-1.569 -1.01,-1.569c-0.407,0 -0.798,0.262 -1.174,0.786l0,2.026Z" style="fill:#f8f8f8;fill-rule:nonzero;"/>
      <rect x="47.289" y="30.363" width="1.379" height="7.351" style="fill:#f8f8f8;"/>
      <path d="M54.552,37.541c-0.655,0.193 -1.276,0.289 -1.862,0.289c-0.854,0 -1.527,-0.242 -2.022,-0.726c-0.493,-0.484 -0.74,-1.145 -0.74,-1.983c0,-0.792 0.227,-1.428 0.678,-1.911c0.452,-0.483 1.048,-0.724 1.79,-0.724c0.748,0 1.294,0.236 1.639,0.707c0.345,0.472 0.517,1.219 0.517,2.239l-3.171,0c0.093,0.975 0.629,1.462 1.606,1.462c0.463,0 0.984,-0.106 1.565,-0.32l0,0.967Zm-3.189,-2.886l1.834,0c0,-0.872 -0.281,-1.307 -0.843,-1.307c-0.571,0 -0.901,0.435 -0.991,1.307Z" style="fill:#f8f8f8;fill-rule:nonzero;"/>
      <rect x="59.119" y="30.363" width="1.379" height="7.351" style="fill:#f8f8f8;"/>
      <path d="M64.843,37.83c-0.798,0 -1.432,-0.241 -1.902,-0.724c-0.47,-0.483 -0.705,-1.132 -0.705,-1.948c0,-0.826 0.236,-1.477 0.709,-1.956c0.473,-0.477 1.117,-0.716 1.93,-0.716c0.817,0 1.462,0.239 1.935,0.716c0.473,0.479 0.709,1.127 0.709,1.947c0,0.838 -0.237,1.495 -0.712,1.969c-0.475,0.475 -1.13,0.712 -1.964,0.712Zm0.023,-0.861c0.791,0 1.187,-0.607 1.187,-1.82c0,-0.556 -0.105,-0.995 -0.315,-1.318c-0.209,-0.323 -0.496,-0.483 -0.863,-0.483c-0.363,0 -0.65,0.16 -0.859,0.483c-0.209,0.323 -0.314,0.765 -0.314,1.327c0,0.556 0.104,0.996 0.312,1.322c0.208,0.327 0.492,0.489 0.852,0.489Z" style="fill:#f8f8f8;fill-rule:nonzero;"/>
      <path d="M69.689,37.714l-1.42,-5.112l1.28,0l1.006,3.58l1.07,-3.58l1.192,0l0.964,3.599l1.085,-3.599l0.96,0l-1.519,5.112l-1.322,0l-0.931,-3.506l-1.043,3.506l-1.322,0Z" style="fill:#f8f8f8;fill-rule:nonzero;"/>
      <path d="M80.441,39.553l0,-6.951l1.378,0l0,0.964c0.354,-0.72 0.911,-1.08 1.671,-1.08c0.615,0 1.098,0.225 1.451,0.675c0.352,0.45 0.528,1.07 0.528,1.857c0,0.857 -0.199,1.54 -0.596,2.049c-0.397,0.509 -0.93,0.763 -1.597,0.763c-0.537,0 -1.023,-0.21 -1.457,-0.633l0,2.356l-1.378,0Zm1.378,-3.175c0.335,0.372 0.692,0.559 1.071,0.559c0.338,0 0.608,-0.164 0.81,-0.491c0.202,-0.328 0.303,-0.765 0.303,-1.311c0,-1.046 -0.337,-1.569 -1.01,-1.569c-0.407,0 -0.799,0.262 -1.174,0.786l0,2.026Z" style="fill:#f8f8f8;fill-rule:nonzero;"/>
      <path d="M89.263,37.164c-0.459,0.444 -0.951,0.666 -1.475,0.666c-0.448,0 -0.81,-0.136 -1.09,-0.409c-0.279,-0.273 -0.419,-0.627 -0.419,-1.062c0,-0.565 0.226,-1 0.678,-1.306c0.451,-0.306 1.098,-0.458 1.938,-0.458l0.368,0l0,-0.466c0,-0.531 -0.302,-0.796 -0.908,-0.796c-0.536,0 -1.08,0.152 -1.629,0.456l0,-0.95c0.623,-0.236 1.242,-0.353 1.853,-0.353c1.338,0 2.006,0.532 2.006,1.596l0,2.263c0,0.4 0.129,0.6 0.387,0.6c0.046,0 0.107,-0.005 0.182,-0.018l0.032,0.773c-0.292,0.087 -0.549,0.13 -0.772,0.13c-0.566,0 -0.929,-0.222 -1.09,-0.666l-0.061,0Zm0,-0.74l0,-1.038l-0.325,0c-0.892,0 -1.337,0.279 -1.337,0.838c0,0.19 0.065,0.349 0.193,0.478c0.129,0.128 0.288,0.192 0.478,0.192c0.323,0 0.653,-0.156 0.991,-0.47Z" style="fill:#f8f8f8;fill-rule:nonzero;"/>
      <path d="M92.228,37.551l0,-1.01c0.683,0.286 1.267,0.428 1.752,0.428c0.564,0 0.847,-0.192 0.847,-0.577c0,-0.248 -0.233,-0.465 -0.699,-0.652l-0.465,-0.186c-0.506,-0.205 -0.868,-0.426 -1.085,-0.662c-0.217,-0.235 -0.326,-0.527 -0.326,-0.874c0,-0.485 0.185,-0.861 0.555,-1.13c0.369,-0.268 0.886,-0.402 1.55,-0.402c0.416,0 0.91,0.06 1.485,0.182l0,0.968c-0.553,-0.193 -1.011,-0.288 -1.374,-0.288c-0.571,0 -0.857,0.176 -0.857,0.53c0,0.233 0.212,0.43 0.633,0.591l0.402,0.153c0.598,0.227 1.015,0.457 1.249,0.69c0.234,0.233 0.352,0.532 0.352,0.899c0,0.48 -0.199,0.871 -0.599,1.171c-0.399,0.298 -0.918,0.448 -1.557,0.448c-0.614,0 -1.235,-0.093 -1.863,-0.279Z" style="fill:#f8f8f8;fill-rule:nonzero;"/>
      <path d="M97.62,37.551l0,-1.01c0.683,0.286 1.266,0.428 1.751,0.428c0.564,0 0.847,-0.192 0.847,-0.577c0,-0.248 -0.233,-0.465 -0.699,-0.652l-0.464,-0.186c-0.507,-0.205 -0.869,-0.426 -1.086,-0.662c-0.217,-0.235 -0.326,-0.527 -0.326,-0.874c0,-0.485 0.185,-0.861 0.554,-1.13c0.369,-0.268 0.886,-0.402 1.551,-0.402c0.416,0 0.911,0.06 1.484,0.182l0,0.968c-0.551,-0.193 -1.01,-0.288 -1.373,-0.288c-0.57,0 -0.856,0.176 -0.856,0.53c0,0.233 0.211,0.43 0.633,0.591l0.4,0.153c0.599,0.227 1.016,0.457 1.25,0.69c0.234,0.233 0.352,0.532 0.352,0.899c0,0.48 -0.199,0.871 -0.598,1.171c-0.399,0.298 -0.918,0.448 -1.558,0.448c-0.614,0 -1.235,-0.093 -1.862,-0.279Z" style="fill:#f8f8f8;fill-rule:nonzero;"/>
      <path d="M106.326,39.301l0.112,-1c0.568,0.26 1.109,0.39 1.625,0.39c0.509,0 0.876,-0.108 1.103,-0.325c0.227,-0.218 0.34,-0.569 0.34,-1.058l0,-0.697c-0.336,0.736 -0.889,1.103 -1.662,1.103c-0.608,0 -1.091,-0.228 -1.448,-0.682c-0.357,-0.455 -0.536,-1.07 -0.536,-1.846c0,-0.817 0.201,-1.47 0.601,-1.962c0.4,-0.493 0.933,-0.738 1.597,-0.738c0.521,0 1.004,0.21 1.448,0.633l0.144,-0.517l1.239,0l0,3.902c0,0.779 -0.048,1.34 -0.142,1.685c-0.095,0.345 -0.279,0.638 -0.552,0.88c-0.459,0.397 -1.106,0.595 -1.942,0.595c-0.593,0 -1.235,-0.12 -1.927,-0.363Zm3.18,-3.491l0,-1.885c-0.333,-0.376 -0.68,-0.564 -1.043,-0.564c-0.347,0 -0.624,0.158 -0.829,0.475c-0.204,0.316 -0.307,0.742 -0.307,1.275c0,1 0.322,1.5 0.963,1.5c0.445,0 0.85,-0.267 1.216,-0.801Z" style="fill:#f8f8f8;fill-rule:nonzero;"/>
      <path d="M115.084,37.164c-0.46,0.444 -0.952,0.666 -1.476,0.666c-0.447,0 -0.81,-0.136 -1.09,-0.409c-0.279,-0.273 -0.419,-0.627 -0.419,-1.062c0,-0.565 0.225,-1 0.678,-1.306c0.451,-0.306 1.098,-0.458 1.938,-0.458l0.369,0l0,-0.466c0,-0.531 -0.303,-0.796 -0.909,-0.796c-0.537,0 -1.08,0.152 -1.629,0.456l0,-0.95c0.623,-0.236 1.242,-0.353 1.853,-0.353c1.338,0 2.006,0.532 2.006,1.596l0,2.263c0,0.4 0.129,0.6 0.387,0.6c0.046,0 0.108,-0.005 0.182,-0.018l0.032,0.773c-0.292,0.087 -0.549,0.13 -0.772,0.13c-0.566,0 -0.929,-0.222 -1.09,-0.666l-0.06,0Zm0,-0.74l0,-1.038l-0.326,0c-0.891,0 -1.337,0.279 -1.337,0.838c0,0.19 0.065,0.349 0.193,0.478c0.129,0.128 0.288,0.192 0.478,0.192c0.323,0 0.653,-0.156 0.992,-0.47Z" style="fill:#f8f8f8;fill-rule:nonzero;"/>
      <path d="M120.819,37.686c-0.329,0.096 -0.588,0.144 -0.777,0.144c-1.195,0 -1.792,-0.559 -1.792,-1.676l0,-2.691l-0.573,0l0,-0.861l0.573,0l0,-0.861l1.377,-0.159l0,1.02l1.095,0l0,0.861l-1.095,0l0,2.509c0,0.628 0.256,0.942 0.769,0.942c0.117,0 0.259,-0.023 0.423,-0.066l0,0.838Z" style="fill:#f8f8f8;fill-rule:nonzero;"/>
      <path d="M126.211,37.541c-0.656,0.193 -1.276,0.289 -1.863,0.289c-0.853,0 -1.527,-0.242 -2.02,-0.726c-0.494,-0.484 -0.741,-1.145 -0.741,-1.983c0,-0.792 0.226,-1.428 0.677,-1.911c0.453,-0.483 1.049,-0.724 1.791,-0.724c0.747,0 1.294,0.236 1.639,0.707c0.344,0.472 0.517,1.219 0.517,2.239l-3.171,0c0.093,0.975 0.628,1.462 1.606,1.462c0.462,0 0.984,-0.106 1.565,-0.32l0,0.967Zm-3.189,-2.886l1.833,0c0,-0.872 -0.28,-1.307 -0.842,-1.307c-0.571,0 -0.901,0.435 -0.991,1.307Z" style="fill:#f8f8f8;fill-rule:nonzero;"/>
    </g>
  </g>
</svg>