<svg width="90px" height="380px" version="1.1" xmlns="http://www.w3.org/2000/svg" xmlns:xlink="http://www.w3.org/1999/xlink" xml:space="preserve" xmlns:serif="http://www.serif.com/" style="fill-rule:evenodd;clip-rule:evenodd;stroke-linecap:round;stroke-linejoin:round;stroke-miterlimit:10;">
  <defs>
    <linearGradient id="_Linear1" x1="0" y1="0" x2="1" y2="0" gradientUnits="userSpaceOnUse" gradientTransform="matrix(0.007008,-37.8989,37.8989,0.007008,60.2334,112.195)">
      <stop offset="0" style="stop-color:#101010;stop-opacity:1"/>
      <stop offset="1" style="stop-color:#101010;stop-opacity:1"/>
    </linearGradient>
    <linearGradient id="_Linear2" x1="0" y1="0" x2="1" y2="0" gradientUnits="userSpaceOnUse" gradientTransform="matrix(-4.88,-92.58,92.58,-4.88,262.5,345.91)">
      <stop offset="0" style="stop-color:#101010;stop-opacity:1"/>
      <stop offset="1" style="stop-color:#101010;stop-opacity:1"/>
    </linearGradient>
    <linearGradient id="_Linear3" x1="0" y1="0" x2="1" y2="0" gradientUnits="userSpaceOnUse" gradientTransform="matrix(-4.75,94.86,-94.86,-4.75,262.5,158.47)">
      <stop offset="0" style="stop-color:#101010;stop-opacity:1"/>
      <stop offset="1" style="stop-color:#101010;stop-opacity:1"/>
    </linearGradient>
    <linearGradient id="_Linear4" x1="0" y1="0" x2="1" y2="0" gradientUnits="userSpaceOnUse" gradientTransform="matrix(1.15392e-16,-1.8845,1.8845,1.15392e-16,41.469,1.9369)">
      <stop offset="0" style="stop-color:#101010;stop-opacity:1"/>
      <stop offset="1" style="stop-color:#101010;stop-opacity:1"/>
    </linearGradient>
  </defs>
  <g id="Panel">
    <g>
      <rect x="-0.01" y="0" width="90" height="380" style="fill:url(#_Linear1);"/>
      <rect x="-0.01" y="253.33" width="90" height="126.67" style="fill:url(#_Linear2);"/>
      <rect x="-0.01" y="126.67" width="90" height="126.67" style="fill:url(#_Linear3);"/>
      <rect x="0" y="0" width="90" height="380" style="fill:rgb(16,53,80);fill-opacity:0.1;"/>
      <rect x="-0.01" y="0" width="90" height="2" style="fill:url(#_Linear4);"/>
    </g>
    <g>
      <path d="M53.17,358.429c0,-4.509 -3.655,-8.165 -8.164,-8.165c-4.509,0 -8.165,3.656 -8.165,8.165c0,4.509 3.656,8.165 8.165,8.165c4.509,0 8.164,-3.656 8.164,-8.165Z" style="fill:rgb(117,117,117);fill-rule:nonzero;stroke:rgb(53,53,53);stroke-width:0.61px;"/>
      <path d="M43.11,363.399l0.553,-0.89l-1.064,-2.393l-2.216,-2.284l0.46,3.101l0.597,1.28l0.833,1.263l0.837,-0.077Z" style="fill:rgb(43,43,43);fill-rule:nonzero;"/>
      <path d="M46.84,363.409l-0.553,-0.891l1.064,-2.393l2.216,-2.284l-0.46,3.101l-0.597,1.28l-0.833,1.264l-0.837,-0.077Z" style="fill:#101010;fill-rule:nonzero;"/>
      <path d="M42.43,352.369l2.584,-0.661l0,13.448l-1.349,-2.651l-1.061,-2.385l-1.022,-0.581l-2.052,-2.921l-0.057,-0.775l1.148,-2.067l1.809,-1.407Z" style="fill:rgb(66,66,66);fill-rule:nonzero;"/>
      <path d="M47.59,352.369l-2.584,-0.66l0,13.448l1.35,-2.651l1.06,-2.385l1.023,-0.581l2.051,-2.921l0.058,-0.775l-1.149,-2.068l-1.809,-1.407Z" style="fill:rgb(51,51,51);fill-rule:nonzero;"/>
      <path d="M43.29,358.249l1.723,-1.685l0,1.23l-1.723,1.718l0,-1.263" style="fill:rgb(76,76,76);fill-rule:nonzero;"/>
      <path d="M45.01,357.789l-1.723,1.718l0.377,3.004l1.346,2.643l0,-7.365Z" style="fill:rgb(91,91,91);fill-rule:nonzero;"/>
      <path d="M45.01,365.159l-1.346,-2.643l1.346,-0.635l0,3.278Z" style="fill:rgb(51,51,51);fill-rule:nonzero;"/>
      <path d="M43.29,359.509l0,-1.264l-1.249,-1.579l-1.477,-1.19l-0.001,0.932l0.775,1.823l1.952,1.278Z" style="fill:#f8f8f8;fill-rule:nonzero;"/>
      <path d="M46.73,358.249l-1.722,-1.684l0,1.23l1.722,1.718l0,-1.264" style="fill:rgb(45,45,45);fill-rule:nonzero;"/>
      <path d="M45.01,357.789l1.722,1.718l-0.376,3.004l-1.347,2.643l0.001,-7.365Z" style="fill:rgb(53,53,53);fill-rule:nonzero;"/>
      <path d="M45.01,365.159l1.347,-2.643l-1.346,-0.635l-0.001,3.278Z" style="fill:#101010;fill-rule:nonzero;"/>
      <path d="M46.73,359.509l0,-1.264l1.249,-1.579l1.478,-1.19l0.001,0.932l-0.775,1.823l-1.953,1.278Z" style="fill:#f8f8f8;fill-rule:nonzero;"/>
      <path d="M42.44,352.349l2.566,4.216l-0.005,-4.87" style="fill:rgb(56,56,56);fill-rule:nonzero;"/>
      <path d="M47.57,352.349l-2.566,4.215l0.006,-4.87" style="fill:rgb(45,45,45);fill-rule:nonzero;"/>
      <path d="M42.6,360.119l0.688,-0.61l0.375,3.006l-1.063,-2.396Z" style="fill:rgb(51,51,51);fill-rule:nonzero;"/>
      <path d="M47.42,360.139l-0.688,-0.61l-0.375,3.006l1.063,-2.396Z" style="fill:rgb(28,28,28);fill-rule:nonzero;"/>
    </g>
    <path d="M33.39,368.08l2.26,6.811c0.211,0.635 0.595,0.951 1.15,0.951c0.548,0 0.929,-0.313 1.141,-0.942l2.269,-6.82l-1.744,0l-1.689,5.455l-1.633,-5.455l-1.754,0Zm6.953,0l0,5.768c0,0.482 0.052,0.829 0.154,1.041c0.278,0.578 0.797,0.867 1.557,0.867l2.127,0c0.739,0 1.255,-0.281 1.547,-0.844c0.109,-0.212 0.164,-0.572 0.164,-1.076l0,-5.756l-1.645,0l0,5.68l-0.01,0.054c-0.037,0.191 -0.224,0.285 -0.56,0.285l-1.119,0c-0.351,0 -0.54,-0.101 -0.569,-0.306l0,-5.713l-1.646,0Zm6.305,0l0,5.801c0,0.599 0.124,1.046 0.373,1.342c0.248,0.296 0.669,0.47 1.262,0.521c0.081,0.007 0.175,0.012 0.285,0.012l3.06,0l0.01,-1.656l-2.927,0c-0.279,0 -0.416,-0.118 -0.416,-0.352l0,-5.668l-1.647,0Zm5.043,0l0,1.656l1.635,0l0,6.02l1.644,0l0,-6.02l1.656,0l0,-1.656l-4.935,0Z" style="fill:rgb(102,102,102);fill-rule:nonzero;"/>
    <path d="M70.416,310.29c-5.359,0 -9.723,4.364 -9.723,9.723l0,21.178c0,5.359 4.364,9.72 9.723,9.72l7.796,0c5.36,0 9.721,-4.361 9.721,-9.72l0,-21.178c0,-5.359 -4.361,-9.723 -9.721,-9.723l-7.796,0Z" style="fill:none;stroke:#f8f8f8;stroke-width:1px;"/>
    <g>
      <path d="M28.458,263.72l-1.401,0l0,0.757l1.321,0l0,0.996l-1.321,0l0,0.78l1.401,0l0,0.997l-2.577,0l0,-4.526l2.577,0l0,0.996Z" style="fill:#f8f8f8;fill-rule:nonzero;"/>
      <path d="M30.599,264.84l-1.409,-2.113l1.449,0l0.612,1.172l0.756,-1.172l1.453,0l-1.493,2.113l1.685,2.413l-1.433,0l-0.908,-1.477l-1.06,1.477l-1.421,0l1.769,-2.413Z" style="fill:#f8f8f8;fill-rule:nonzero;"/>
      <path d="M35.301,264.8l0.392,0c0.432,0 0.648,-0.188 0.648,-0.564c0,-0.377 -0.216,-0.565 -0.648,-0.565l-0.392,0l0,1.129Zm0,2.449l-1.173,0l0,-4.526l1.869,0c0.508,0 0.9,0.132 1.168,0.396c0.273,0.264 0.405,0.636 0.405,1.117c0,0.48 -0.132,0.852 -0.405,1.116c-0.268,0.264 -0.66,0.396 -1.168,0.396l-0.696,0l0,1.501Z" style="fill:#f8f8f8;fill-rule:nonzero;"/>
      <path d="M27.057,250.92l0,3.53l1.413,0l0,0.996l-2.589,0l0,-4.526l1.176,0Z" style="fill:#f8f8f8;fill-rule:nonzero;"/>
    </g>
    <rect x="29.074" y="250.92" width="1.176" height="4.526" style="fill:#f8f8f8;"/>
    <g>
      <path d="M31.199,255.45l0,-4.526l1.176,0l2.173,2.769l0,-2.769l1.169,0l0,4.526l-1.169,0l-2.173,-2.765l0,2.765l-1.176,0Z" style="fill:#f8f8f8;fill-rule:nonzero;"/>
      <path d="M28.458,275.62l-1.401,0l0,0.756l1.321,0l0,0.997l-1.321,0l0,0.78l1.401,0l0,0.997l-2.577,0l0,-4.526l2.577,0l0,0.996Z" style="fill:#f8f8f8;fill-rule:nonzero;"/>
      <path d="M29.302,279.15l0,-4.526l1.177,0l2.173,2.769l0,-2.769l1.168,0l0,4.526l-1.168,0l-2.173,-2.766l0,2.766l-1.177,0Z" style="fill:#f8f8f8;fill-rule:nonzero;"/>
      <path d="M35.573,274.63l1.092,2.757l1.097,-2.757l1.28,0l-1.909,4.526l-0.936,0l-1.901,-4.526l1.277,0Z" style="fill:#f8f8f8;fill-rule:nonzero;"/>
    </g>
    <g>
      <path d="M14.778,27.561l0,-9.256l2.444,0l0,7.28l3.913,0l0,1.976l-6.357,0Z" style="fill:#f8f8f8;fill-rule:nonzero;"/>
      <path d="M22.305,27.561l0,-9.256l6.604,0l0,1.872l-4.225,0l0,1.742l3.952,0l0,1.872l-3.952,0l0,1.898l4.225,0l0,1.872l-6.604,0Z" style="fill:#f8f8f8;fill-rule:nonzero;"/>
      <path d="M37.099,27.561l-0.819,-1.911l-4.108,0l-0.819,1.911l-2.444,0l4.329,-9.256l1.924,0l4.342,9.256l-2.405,0Zm-4.134,-3.744l2.522,0l-1.261,-2.925l-1.261,2.925Z" style="fill:#f8f8f8;fill-rule:nonzero;"/>
      <path d="M49.085,27.561l-2.899,0l-3.705,-4.199l0,4.199l-2.444,0l0,-9.256l2.444,0l0,3.978l3.601,-3.978l2.86,0l-4.095,4.394l4.238,4.862Z" style="fill:#f8f8f8;fill-rule:nonzero;"/>
      <path d="M56.17,27.561l-0.819,-1.911l-4.108,0l-0.819,1.911l-2.444,0l4.329,-9.256l1.924,0l4.342,9.256l-2.405,0Zm-4.134,-3.744l2.522,0l-1.261,-2.925l-1.261,2.925Z" style="fill:#f8f8f8;fill-rule:nonzero;"/>
      <path d="M67.077,22.335l0,4.641c-0.494,0.225 -1.047,0.399 -1.658,0.52c-0.611,0.121 -1.237,0.182 -1.878,0.182c-1.006,0 -1.879,-0.191 -2.62,-0.572c-0.741,-0.381 -1.311,-0.929 -1.709,-1.644c-0.399,-0.715 -0.598,-1.563 -0.598,-2.542c0,-0.953 0.199,-1.787 0.598,-2.502c0.398,-0.715 0.962,-1.266 1.69,-1.651c0.728,-0.386 1.577,-0.579 2.548,-0.579c0.667,0 1.297,0.087 1.891,0.26c0.594,0.173 1.077,0.412 1.45,0.715l-0.767,1.729c-0.425,-0.277 -0.835,-0.479 -1.229,-0.604c-0.394,-0.126 -0.817,-0.189 -1.267,-0.189c-0.824,0 -1.437,0.232 -1.84,0.696c-0.403,0.463 -0.604,1.172 -0.604,2.125c0,0.988 0.21,1.72 0.63,2.197c0.42,0.477 1.068,0.715 1.944,0.715c0.407,0 0.814,-0.043 1.222,-0.13l0,-1.716l-1.612,0l0,-1.651l3.809,0Z" style="fill:#f8f8f8;fill-rule:nonzero;"/>
      <path d="M68.624,27.561l0,-9.256l6.604,0l0,1.872l-4.225,0l0,1.742l3.952,0l0,1.872l-3.952,0l0,1.898l4.225,0l0,1.872l-6.604,0Z" style="fill:#f8f8f8;fill-rule:nonzero;"/>
      <path d="M28.567,37.772l-1.951,-5.112l1.453,0l1.429,3.687l1.42,-3.687l0.996,0l-1.969,5.112l-1.378,0Z" style="fill:#f8f8f8;fill-rule:nonzero;"/>
      <path d="M35.108,37.888c-0.798,0 -1.432,-0.241 -1.902,-0.724c-0.47,-0.482 -0.705,-1.132 -0.705,-1.948c0,-0.826 0.236,-1.477 0.71,-1.955c0.473,-0.478 1.116,-0.717 1.929,-0.717c0.817,0 1.461,0.239 1.935,0.717c0.473,0.478 0.71,1.126 0.71,1.946c0,0.838 -0.238,1.494 -0.713,1.969c-0.475,0.475 -1.129,0.712 -1.964,0.712Zm0.023,-0.861c0.791,0 1.187,-0.607 1.187,-1.82c0,-0.556 -0.105,-0.995 -0.314,-1.318c-0.21,-0.323 -0.497,-0.484 -0.864,-0.484c-0.363,0 -0.649,0.161 -0.859,0.484c-0.209,0.323 -0.314,0.765 -0.314,1.327c0,0.555 0.104,0.996 0.312,1.322c0.208,0.326 0.492,0.489 0.852,0.489Z" style="fill:#f8f8f8;fill-rule:nonzero;"/>
      <rect x="39.051" y="30.421" width="1.378" height="7.351" style="fill:#f8f8f8;"/>
      <path d="M44.786,37.744c-0.328,0.096 -0.588,0.144 -0.777,0.144c-1.195,0 -1.792,-0.558 -1.792,-1.676l0,-2.691l-0.573,0l0,-0.861l0.573,0l0,-0.861l1.378,-0.158l0,1.019l1.094,0l0,0.861l-1.094,0l0,2.51c0,0.627 0.256,0.94 0.768,0.94c0.118,0 0.259,-0.022 0.423,-0.065l0,0.838Z" style="fill:#f8f8f8;fill-rule:nonzero;"/>
      <path d="M48.52,37.222c-0.459,0.444 -0.951,0.666 -1.476,0.666c-0.447,0 -0.81,-0.136 -1.089,-0.409c-0.279,-0.274 -0.419,-0.627 -0.419,-1.062c0,-0.565 0.226,-1 0.677,-1.306c0.452,-0.306 1.098,-0.458 1.939,-0.458l0.368,0l0,-0.466c0,-0.531 -0.302,-0.796 -0.908,-0.796c-0.537,0 -1.08,0.152 -1.629,0.456l0,-0.949c0.624,-0.236 1.241,-0.354 1.853,-0.354c1.338,0 2.006,0.532 2.006,1.597l0,2.262c0,0.4 0.129,0.601 0.387,0.601c0.046,0 0.107,-0.007 0.181,-0.019l0.033,0.773c-0.292,0.087 -0.549,0.13 -0.773,0.13c-0.565,0 -0.928,-0.222 -1.089,-0.666l-0.061,0Zm0,-0.74l0,-1.038l-0.326,0c-0.89,0 -1.336,0.279 -1.336,0.838c0,0.189 0.065,0.348 0.193,0.477c0.129,0.129 0.288,0.193 0.478,0.193c0.322,0 0.653,-0.156 0.991,-0.47Z" style="fill:#f8f8f8;fill-rule:nonzero;"/>
      <path d="M51.658,39.359l0.112,-1.001c0.568,0.261 1.109,0.391 1.625,0.391c0.509,0 0.876,-0.108 1.103,-0.325c0.226,-0.218 0.34,-0.57 0.34,-1.057l0,-0.699c-0.335,0.736 -0.889,1.104 -1.662,1.104c-0.609,0 -1.091,-0.228 -1.448,-0.682c-0.357,-0.455 -0.536,-1.07 -0.536,-1.846c0,-0.816 0.201,-1.47 0.601,-1.962c0.4,-0.492 0.933,-0.738 1.597,-0.738c0.521,0 1.004,0.211 1.448,0.633l0.144,-0.517l1.238,0l0,3.901c0,0.779 -0.047,1.341 -0.142,1.686c-0.094,0.344 -0.278,0.637 -0.551,0.88c-0.46,0.397 -1.107,0.595 -1.942,0.595c-0.592,0 -1.235,-0.121 -1.927,-0.363Zm3.18,-3.491l0,-1.886c-0.332,-0.375 -0.68,-0.563 -1.043,-0.563c-0.348,0 -0.624,0.158 -0.829,0.475c-0.205,0.316 -0.307,0.742 -0.307,1.275c0,1 0.321,1.499 0.964,1.499c0.443,0 0.848,-0.266 1.215,-0.8Z" style="fill:#f8f8f8;fill-rule:nonzero;"/>
      <path d="M62.072,37.6c-0.654,0.192 -1.275,0.288 -1.862,0.288c-0.853,0 -1.527,-0.242 -2.02,-0.726c-0.494,-0.484 -0.741,-1.145 -0.741,-1.983c0,-0.792 0.226,-1.429 0.678,-1.911c0.451,-0.483 1.048,-0.724 1.79,-0.724c0.748,0 1.294,0.236 1.639,0.707c0.344,0.472 0.516,1.219 0.516,2.24l-3.17,0c0.093,0.974 0.628,1.461 1.606,1.461c0.463,0 0.984,-0.107 1.564,-0.321l0,0.969Zm-3.189,-2.887l1.835,0c0,-0.872 -0.281,-1.308 -0.843,-1.308c-0.571,0 -0.902,0.436 -0.992,1.308Z" style="fill:#f8f8f8;fill-rule:nonzero;"/>
      <g>
        <path d="M21.097,49.611l0,-6.951l1.378,0l0,0.964c0.354,-0.72 0.911,-1.08 1.671,-1.08c0.615,0 1.098,0.225 1.451,0.675c0.352,0.45 0.528,1.07 0.528,1.857c0,0.857 -0.198,1.54 -0.596,2.049c-0.397,0.509 -0.93,0.763 -1.597,0.763c-0.536,0 -1.022,-0.21 -1.457,-0.633l0,2.356l-1.378,0Zm1.379,-3.175c0.334,0.372 0.692,0.559 1.07,0.559c0.339,0 0.609,-0.164 0.81,-0.492c0.202,-0.327 0.303,-0.764 0.303,-1.31c0,-1.046 -0.337,-1.569 -1.01,-1.569c-0.407,0 -0.798,0.262 -1.174,0.786l0.001,2.026Z" style="fill:#f8f8f8;fill-rule:nonzero;"/>
        <path d="M27.414,47.772l0,-5.112l1.378,0l0,0.964c0.357,-0.72 0.9,-1.08 1.63,-1.08c0.087,0 0.171,0.009 0.256,0.027l0,1.23c-0.196,-0.071 -0.378,-0.107 -0.545,-0.107c-0.55,0 -0.996,0.278 -1.341,0.833l0,3.245l-1.378,0Z" style="fill:#f8f8f8;fill-rule:nonzero;"/>
        <path d="M33.895,47.888c-0.797,0 -1.431,-0.241 -1.902,-0.724c-0.47,-0.483 -0.705,-1.132 -0.705,-1.948c0,-0.826 0.236,-1.477 0.71,-1.956c0.473,-0.477 1.117,-0.717 1.93,-0.717c0.816,0 1.461,0.24 1.934,0.717c0.473,0.479 0.71,1.127 0.71,1.946c0,0.839 -0.238,1.495 -0.713,1.969c-0.474,0.476 -1.13,0.713 -1.964,0.713l0,0Zm0.023,-0.862c0.791,0 1.187,-0.607 1.187,-1.82c0,-0.556 -0.105,-0.994 -0.314,-1.317c-0.21,-0.323 -0.497,-0.484 -0.863,-0.484c-0.363,0 -0.65,0.161 -0.86,0.484c-0.208,0.323 -0.313,0.764 -0.313,1.327c0,0.556 0.103,0.996 0.311,1.322c0.209,0.326 0.492,0.488 0.852,0.488l0,0Z" style="fill:#f8f8f8;fill-rule:nonzero;"/>
        <path d="M41.609,47.66c-0.572,0.152 -1.1,0.229 -1.588,0.229c-0.817,0 -1.461,-0.241 -1.935,-0.719c-0.473,-0.48 -0.709,-1.133 -0.709,-1.958c0,-0.835 0.244,-1.489 0.731,-1.961c0.487,-0.471 1.161,-0.707 2.021,-0.707c0.415,0 0.894,0.067 1.438,0.2l0,0.996c-0.565,-0.183 -1.017,-0.274 -1.355,-0.274c-0.413,0 -0.745,0.158 -0.996,0.475c-0.252,0.316 -0.377,0.736 -0.377,1.262c0,0.536 0.136,0.966 0.407,1.289c0.272,0.323 0.634,0.484 1.087,0.484c0.413,0 0.839,-0.09 1.276,-0.27l0,0.954Z" style="fill:#f8f8f8;fill-rule:nonzero;"/>
        <path d="M47.075,47.599c-0.655,0.193 -1.276,0.289 -1.862,0.289c-0.854,0 -1.527,-0.242 -2.02,-0.726c-0.494,-0.484 -0.741,-1.146 -0.741,-1.983c0,-0.792 0.226,-1.429 0.677,-1.911c0.452,-0.483 1.049,-0.725 1.79,-0.725c0.749,0 1.295,0.236 1.639,0.708c0.344,0.472 0.517,1.218 0.517,2.239l-3.17,0c0.093,0.975 0.628,1.462 1.606,1.462c0.462,0 0.984,-0.107 1.564,-0.321l0,0.968Zm-3.189,-2.886l1.834,0c0,-0.873 -0.281,-1.308 -0.842,-1.308c-0.572,0 -0.902,0.435 -0.992,1.308l0,0Z" style="fill:#f8f8f8;fill-rule:nonzero;"/>
        <path d="M48.364,47.609l0,-1.01c0.683,0.286 1.266,0.428 1.75,0.428c0.565,0 0.848,-0.192 0.848,-0.577c0,-0.248 -0.233,-0.465 -0.699,-0.652l-0.465,-0.186c-0.507,-0.205 -0.868,-0.425 -1.085,-0.662c-0.217,-0.235 -0.326,-0.527 -0.326,-0.874c0,-0.485 0.184,-0.861 0.554,-1.13c0.369,-0.268 0.886,-0.402 1.55,-0.402c0.416,0 0.912,0.06 1.485,0.182l0,0.968c-0.552,-0.193 -1.01,-0.288 -1.373,-0.288c-0.57,0 -0.856,0.176 -0.856,0.53c0,0.233 0.21,0.43 0.633,0.591l0.4,0.153c0.599,0.227 1.015,0.457 1.25,0.69c0.234,0.233 0.352,0.532 0.352,0.899c0,0.48 -0.2,0.871 -0.598,1.171c-0.399,0.298 -0.918,0.449 -1.558,0.449c-0.615,0 -1.235,-0.094 -1.862,-0.28l0,0Z" style="fill:#f8f8f8;fill-rule:nonzero;"/>
        <path d="M53.755,47.609l0,-1.01c0.683,0.286 1.266,0.428 1.75,0.428c0.565,0 0.847,-0.192 0.847,-0.577c0,-0.248 -0.232,-0.465 -0.698,-0.652l-0.465,-0.186c-0.507,-0.205 -0.868,-0.425 -1.085,-0.662c-0.218,-0.235 -0.326,-0.527 -0.326,-0.874c0,-0.485 0.184,-0.861 0.554,-1.13c0.369,-0.268 0.886,-0.402 1.55,-0.402c0.416,0 0.912,0.06 1.485,0.182l0,0.968c-0.552,-0.193 -1.01,-0.288 -1.373,-0.288c-0.571,0 -0.856,0.176 -0.856,0.53c0,0.233 0.21,0.43 0.633,0.591l0.4,0.153c0.599,0.227 1.015,0.457 1.25,0.69c0.234,0.233 0.351,0.532 0.351,0.899c0,0.48 -0.199,0.871 -0.598,1.171c-0.398,0.298 -0.917,0.449 -1.557,0.449c-0.615,0 -1.235,-0.094 -1.862,-0.28l0,0Z" style="fill:#f8f8f8;fill-rule:nonzero;"/>
        <path d="M61.427,47.888c-0.797,0 -1.431,-0.241 -1.902,-0.724c-0.47,-0.483 -0.705,-1.132 -0.705,-1.948c0,-0.826 0.236,-1.477 0.71,-1.956c0.473,-0.477 1.117,-0.717 1.93,-0.717c0.816,0 1.461,0.24 1.934,0.717c0.473,0.479 0.711,1.127 0.711,1.946c0,0.839 -0.239,1.495 -0.713,1.969c-0.475,0.476 -1.13,0.713 -1.965,0.713l0,0Zm0.023,-0.862c0.792,0 1.187,-0.607 1.187,-1.82c0,-0.556 -0.104,-0.994 -0.313,-1.317c-0.21,-0.323 -0.498,-0.484 -0.864,-0.484c-0.363,0 -0.649,0.161 -0.859,0.484c-0.209,0.323 -0.314,0.764 -0.314,1.327c0,0.556 0.103,0.996 0.312,1.322c0.208,0.326 0.491,0.488 0.851,0.488l0,0Z" style="fill:#f8f8f8;fill-rule:nonzero;"/>
        <path d="M65.371,47.772l0,-5.112l1.377,0l0.001,0.964c0.356,-0.72 0.899,-1.08 1.629,-1.08c0.087,0 0.172,0.009 0.256,0.027l0,1.23c-0.196,-0.071 -0.377,-0.107 -0.545,-0.107c-0.549,0 -0.996,0.278 -1.341,0.833l0,3.245l-1.377,0Z" style="fill:#f8f8f8;fill-rule:nonzero;"/>
      </g>
    </g>
    <g>
      <path d="M35.797,106.62l-1.661,0l-0.767,-1.978c-0.089,-0.222 -0.298,-0.334 -0.626,-0.334l-0.568,0l0,2.312l-1.544,0l0,-5.942l2.763,0c0.717,0 1.257,0.154 1.619,0.463c0.361,0.309 0.542,0.75 0.542,1.323c0,0.401 -0.107,0.747 -0.321,1.039c-0.214,0.292 -0.516,0.499 -0.906,0.622c0.167,0.033 0.318,0.111 0.451,0.233c0.134,0.123 0.239,0.287 0.317,0.493l0.701,1.769Zm-2.654,-3.48c0.334,0 0.576,-0.052 0.726,-0.154c0.151,-0.103 0.226,-0.263 0.226,-0.48c0,-0.228 -0.074,-0.393 -0.221,-0.493c-0.148,-0.1 -0.391,-0.15 -0.731,-0.15l-0.984,0l0,1.277l0.984,0Z" style="fill:#f8f8f8;fill-rule:nonzero;"/>
      <path d="M41.03,106.62l-0.526,-1.227l-2.637,0l-0.526,1.227l-1.569,0l2.779,-5.942l1.236,0l2.787,5.942l-1.544,0Zm-2.654,-2.403l1.619,0l-0.809,-1.878l-0.81,1.878Z" style="fill:#f8f8f8;fill-rule:nonzero;"/>
      <path d="M46.755,100.68l1.477,0l0,5.942l-1.16,0l-2.695,-3.372l0,3.372l-1.461,0l0,-5.942l1.144,0l2.695,3.355l0,-3.355Z" style="fill:#f8f8f8;fill-rule:nonzero;"/>
      <path d="M54.584,103.26l0,2.98c-0.317,0.144 -0.672,0.256 -1.064,0.333c-0.393,0.078 -0.795,0.117 -1.206,0.117c-0.646,0 -1.206,-0.122 -1.682,-0.367c-0.476,-0.245 -0.842,-0.597 -1.098,-1.056c-0.255,-0.459 -0.383,-1.003 -0.383,-1.631c0,-0.612 0.128,-1.148 0.383,-1.607c0.256,-0.459 0.618,-0.812 1.085,-1.06c0.468,-0.247 1.013,-0.371 1.636,-0.371c0.429,0 0.833,0.055 1.214,0.167c0.382,0.111 0.692,0.264 0.931,0.459l-0.492,1.11c-0.273,-0.178 -0.536,-0.308 -0.789,-0.388c-0.253,-0.081 -0.524,-0.121 -0.814,-0.121c-0.528,0 -0.922,0.148 -1.181,0.446c-0.258,0.298 -0.388,0.753 -0.388,1.365c0,0.634 0.135,1.104 0.405,1.41c0.27,0.306 0.686,0.459 1.248,0.459c0.261,0 0.523,-0.028 0.784,-0.083l0,-1.102l-1.035,0l0,-1.06l2.446,0Z" style="fill:#f8f8f8;fill-rule:nonzero;"/>
      <path d="M55.577,106.62l0,-5.942l4.239,0l0,1.202l-2.712,0l0,1.118l2.537,0l0,1.202l-2.537,0l0,1.218l2.712,0l0,1.202l-4.239,0Z" style="fill:#f8f8f8;fill-rule:nonzero;"/>
      <path d="M31.989,162.56c-0.606,0 -1.135,-0.123 -1.585,-0.371c-0.451,-0.247 -0.797,-0.602 -1.04,-1.064c-0.242,-0.462 -0.363,-1.001 -0.363,-1.619c0,-0.618 0.123,-1.155 0.368,-1.611c0.244,-0.456 0.591,-0.808 1.039,-1.056c0.448,-0.247 0.975,-0.371 1.581,-0.371c0.607,0 1.134,0.124 1.582,0.371c0.448,0.248 0.791,0.6 1.03,1.056c0.24,0.456 0.359,0.993 0.359,1.611c0,0.618 -0.119,1.157 -0.359,1.619c-0.239,0.462 -0.582,0.817 -1.03,1.064c-0.448,0.248 -0.975,0.371 -1.582,0.371Zm0,-1.193c0.445,0 0.794,-0.159 1.048,-0.476c0.253,-0.317 0.379,-0.779 0.379,-1.385c0,-0.601 -0.126,-1.059 -0.379,-1.373c-0.254,-0.314 -0.603,-0.471 -1.048,-0.471c-0.445,0 -0.793,0.155 -1.043,0.467c-0.25,0.311 -0.376,0.77 -0.376,1.377c0,0.612 0.126,1.075 0.376,1.389c0.25,0.315 0.598,0.472 1.043,0.472Z" style="fill:#f8f8f8;fill-rule:nonzero;"/>
      <path d="M35.878,162.49l0,-5.942l4.148,0l0,1.227l-2.604,0l0,1.085l2.437,0l0,1.218l-2.437,0l0,2.412l-1.544,0Z" style="fill:#f8f8f8;fill-rule:nonzero;"/>
      <path d="M40.752,162.49l0,-5.942l4.148,0l0,1.227l-2.604,0l0,1.085l2.437,0l0,1.218l-2.437,0l0,2.412l-1.544,0Z" style="fill:#f8f8f8;fill-rule:nonzero;"/>
      <path d="M47.671,162.56c-0.445,0 -0.885,-0.058 -1.319,-0.175c-0.434,-0.117 -0.787,-0.275 -1.06,-0.475l0.493,-1.11c0.289,0.183 0.597,0.324 0.922,0.421c0.326,0.097 0.652,0.146 0.981,0.146c0.334,0 0.589,-0.046 0.767,-0.138c0.179,-0.091 0.268,-0.221 0.268,-0.388c0,-0.15 -0.081,-0.274 -0.242,-0.371c-0.162,-0.098 -0.465,-0.193 -0.91,-0.288c-0.562,-0.111 -0.999,-0.249 -1.31,-0.413c-0.312,-0.164 -0.53,-0.358 -0.656,-0.58c-0.125,-0.223 -0.187,-0.493 -0.187,-0.81c0,-0.361 0.103,-0.688 0.308,-0.98c0.206,-0.292 0.496,-0.521 0.868,-0.685c0.373,-0.164 0.799,-0.246 1.277,-0.246c0.429,0 0.845,0.06 1.248,0.179c0.403,0.12 0.719,0.277 0.947,0.472l-0.484,1.11c-0.261,-0.184 -0.537,-0.324 -0.826,-0.421c-0.289,-0.098 -0.579,-0.146 -0.868,-0.146c-0.284,0 -0.512,0.054 -0.684,0.162c-0.173,0.109 -0.259,0.255 -0.259,0.438c0,0.101 0.03,0.184 0.092,0.251c0.061,0.067 0.175,0.132 0.342,0.196c0.167,0.064 0.417,0.132 0.751,0.204c0.54,0.117 0.964,0.258 1.273,0.422c0.309,0.164 0.527,0.356 0.655,0.576c0.128,0.219 0.192,0.482 0.192,0.788c0,0.579 -0.226,1.034 -0.676,1.365c-0.451,0.331 -1.085,0.496 -1.903,0.496Z" style="fill:#f8f8f8;fill-rule:nonzero;"/>
      <path d="M51.126,162.49l0,-5.942l4.24,0l0,1.202l-2.713,0l0,1.118l2.538,0l0,1.202l-2.538,0l0,1.219l2.713,0l0,1.201l-4.24,0Z" style="fill:#f8f8f8;fill-rule:nonzero;"/>
      <path d="M57.644,162.49l0,-4.673l-1.769,0l0,-1.269l5.124,0l0,1.269l-1.769,0l0,4.673l-1.586,0Z" style="fill:#f8f8f8;fill-rule:nonzero;"/>
    </g>
    <g>
      <path d="M61.045,287.317l-1.267,0l-0.585,-1.509c-0.068,-0.169 -0.227,-0.254 -0.478,-0.254l-0.433,0l0,1.763l-1.178,0l0,-4.533l2.108,0c0.547,0 0.959,0.118 1.235,0.354c0.276,0.235 0.414,0.572 0.414,1.009c0,0.306 -0.082,0.57 -0.245,0.792c-0.163,0.223 -0.394,0.381 -0.691,0.475c0.127,0.025 0.242,0.085 0.344,0.178c0.102,0.094 0.182,0.219 0.242,0.376l0.534,1.349Zm-2.024,-2.654c0.254,0 0.439,-0.04 0.553,-0.118c0.116,-0.078 0.173,-0.201 0.173,-0.366c0,-0.174 -0.057,-0.3 -0.169,-0.376c-0.113,-0.077 -0.298,-0.115 -0.557,-0.115l-0.751,0l0,0.975l0.751,0Z" style="fill:#f8f8f8;fill-rule:nonzero;"/>
      <path d="M65.038,287.317l-0.402,-0.936l-2.011,0l-0.402,0.936l-1.197,0l2.12,-4.533l0.943,0l2.126,4.533l-1.177,0Zm-2.025,-1.833l1.235,0l-0.617,-1.433l-0.618,1.433Z" style="fill:#f8f8f8;fill-rule:nonzero;"/>
      <path d="M66.903,287.317l0,-3.565l-1.35,0l0,-0.968l3.909,0l0,0.968l-1.349,0l0,3.565l-1.21,0Z" style="fill:#f8f8f8;fill-rule:nonzero;"/>
      <path d="M69.947,287.317l0,-4.533l3.234,0l0,0.917l-2.069,0l0,0.853l1.935,0l0,0.917l-1.935,0l0,0.929l2.069,0l0,0.917l-3.234,0Z" style="fill:#f8f8f8;fill-rule:nonzero;"/>
    </g>
    <g>
      <path d="M67.97,343.65c0,0.21 0.04,0.403 0.119,0.581c0.079,0.177 0.187,0.331 0.322,0.462c0.135,0.13 0.293,0.232 0.472,0.304c0.18,0.072 0.37,0.109 0.571,0.109c0.201,0 0.391,-0.037 0.57,-0.109c0.18,-0.072 0.339,-0.174 0.476,-0.304c0.138,-0.131 0.247,-0.285 0.326,-0.462c0.079,-0.178 0.119,-0.371 0.119,-0.581c0,-0.21 -0.04,-0.404 -0.119,-0.581c-0.079,-0.178 -0.188,-0.332 -0.326,-0.462c-0.137,-0.131 -0.296,-0.233 -0.476,-0.305c-0.179,-0.072 -0.369,-0.108 -0.57,-0.108c-0.201,0 -0.391,0.036 -0.571,0.108c-0.179,0.072 -0.337,0.174 -0.472,0.305c-0.135,0.13 -0.243,0.284 -0.322,0.462c-0.079,0.177 -0.119,0.371 -0.119,0.581Zm-1.435,0c0,-0.392 0.072,-0.758 0.217,-1.096c0.145,-0.338 0.345,-0.633 0.602,-0.885c0.257,-0.252 0.563,-0.45 0.92,-0.592c0.357,-0.142 0.751,-0.213 1.18,-0.213c0.425,0 0.817,0.071 1.176,0.213c0.359,0.142 0.668,0.34 0.927,0.592c0.259,0.252 0.461,0.547 0.606,0.885c0.145,0.338 0.217,0.704 0.217,1.096c0,0.392 -0.072,0.757 -0.217,1.095c-0.145,0.338 -0.347,0.634 -0.606,0.886c-0.259,0.252 -0.568,0.449 -0.927,0.591c-0.359,0.142 -0.751,0.214 -1.176,0.214c-0.429,0 -0.823,-0.072 -1.18,-0.214c-0.357,-0.142 -0.663,-0.339 -0.92,-0.591c-0.257,-0.252 -0.457,-0.548 -0.602,-0.886c-0.145,-0.338 -0.217,-0.703 -0.217,-1.095Z" style="fill:#f8f8f8;fill-rule:nonzero;"/>
      <path d="M74.62,341.01l0,2.87c0,0.154 0.006,0.311 0.017,0.472c0.012,0.161 0.047,0.307 0.105,0.438c0.059,0.13 0.151,0.236 0.277,0.318c0.126,0.082 0.303,0.123 0.532,0.123c0.229,0 0.405,-0.041 0.528,-0.123c0.124,-0.082 0.216,-0.188 0.277,-0.318c0.061,-0.131 0.097,-0.277 0.108,-0.438c0.012,-0.161 0.018,-0.318 0.018,-0.472l0,-2.87l1.365,0l0,3.059c0,0.821 -0.188,1.421 -0.564,1.799c-0.375,0.378 -0.953,0.567 -1.732,0.567c-0.779,0 -1.358,-0.189 -1.736,-0.567c-0.378,-0.378 -0.567,-0.978 -0.567,-1.799l0,-3.059l1.372,0Z" style="fill:#f8f8f8;fill-rule:nonzero;"/>
      <path d="M80.96,342.17l0,4.116l-1.372,0l0,-4.116l-1.127,0l0,-1.162l3.626,0l0,1.162l-1.127,0Z" style="fill:#f8f8f8;fill-rule:nonzero;"/>
    </g>
    <path d="M11.472,340.68l0,5.941l1.57,0l0,-5.941l-1.57,0Zm2.639,0l0,5.941l1.461,0l0,-3.371l2.695,3.371l1.158,0l0,-5.941l-1.477,0l0,3.356l-2.695,-3.356l-1.142,0Z" style="fill:#f8f8f8;fill-rule:nonzero;"/>
    <path d="M39.788,340.6c-0.618,0 -1.156,0.125 -1.615,0.379c-0.459,0.253 -0.812,0.609 -1.059,1.068c-0.248,0.459 -0.373,0.989 -0.373,1.59c0,0.606 0.125,1.14 0.373,1.602c0.247,0.462 0.6,0.82 1.059,1.074c0.459,0.253 0.997,0.379 1.615,0.379c0.389,0 0.767,-0.059 1.131,-0.176c0.365,-0.117 0.658,-0.274 0.881,-0.475l-0.477,-1.111c-0.484,0.351 -0.985,0.526 -1.502,0.526c-0.479,0 -0.845,-0.153 -1.101,-0.459c-0.256,-0.306 -0.385,-0.759 -0.385,-1.36c0,-0.596 0.129,-1.044 0.385,-1.347c0.256,-0.303 0.622,-0.456 1.101,-0.456c0.517,0 1.018,0.175 1.502,0.526l0.477,-1.11c-0.223,-0.201 -0.516,-0.359 -0.881,-0.476c-0.364,-0.117 -0.742,-0.174 -1.131,-0.174l0,0Zm2.83,0.074l0,5.942l4.08,0l0,-1.268l-2.511,0l0,-4.674l-1.569,0Zm4.832,0l0,5.942l1.569,0l-0.001,-2.696l2.379,2.696l1.862,0l-2.721,-3.122l2.629,-2.82l-1.836,0l-2.313,2.555l0.001,-2.555l-1.569,0Z" style="fill:#f8f8f8;fill-rule:nonzero;"/>
    <path d="M33.6,239.52c-0.436,0 -0.815,0.09 -1.137,0.268c-0.322,0.178 -0.57,0.431 -0.746,0.759c-0.176,0.328 -0.265,0.713 -0.265,1.157c0,0.443 0.087,0.832 0.261,1.164c0.174,0.332 0.424,0.587 0.748,0.765c0.324,0.178 0.703,0.268 1.139,0.268c0.436,0 0.815,-0.09 1.137,-0.268c0.322,-0.178 0.57,-0.433 0.742,-0.765c0.172,-0.332 0.258,-0.72 0.258,-1.164c0,-0.444 -0.086,-0.829 -0.258,-1.157c-0.172,-0.328 -0.42,-0.581 -0.742,-0.759c-0.322,-0.178 -0.701,-0.268 -1.137,-0.268l0,0Zm11.527,0c-0.436,0 -0.817,0.09 -1.139,0.268c-0.322,0.178 -0.57,0.431 -0.746,0.759c-0.176,0.328 -0.263,0.713 -0.263,1.157c0,0.443 0.085,0.832 0.259,1.164c0.174,0.332 0.424,0.587 0.748,0.765c0.324,0.178 0.705,0.268 1.141,0.268c0.436,0 0.815,-0.09 1.137,-0.268c0.322,-0.178 0.568,-0.433 0.74,-0.765c0.172,-0.332 0.258,-0.72 0.258,-1.164c0,-0.444 -0.086,-0.829 -0.258,-1.157c-0.172,-0.328 -0.418,-0.581 -0.74,-0.759c-0.322,-0.178 -0.701,-0.268 -1.137,-0.268l0,0Zm-17.053,0.055l0,4.271l1.109,0l0,-1.734l1.752,0l0,-0.875l-1.752,0l0,-0.78l1.873,0l0,-0.882l-2.982,0l0,0Zm8.322,0l0,4.271l2.934,0l0,-0.912l-1.807,0l0,-3.359l-1.127,0l0,0Zm3.473,0l0,4.271l2.936,0l0,-0.912l-1.807,0l0,-3.359l-1.129,0l0,0Zm7.615,0l1.524,4.271l0.894,0l0.912,-2.537l0.893,2.537l0.894,0l1.532,-4.271l-1.069,0l-0.918,2.742l-0.918,-2.742l-0.767,0l-0.955,2.693l-0.875,-2.693l-1.147,0l0,0Zm7.104,0l0,4.271l3.049,0l0,-0.863l-1.952,0l0,-0.877l1.825,0l0,-0.863l-1.825,0l0,-0.805l1.952,0l0,-0.863l-3.049,0l0,0Zm3.625,0l0,4.271l1.109,0l0,-1.662l0.408,0c0.236,0 0.386,0.08 0.45,0.24l0.552,1.422l1.194,0l-0.504,-1.271c-0.056,-0.148 -0.133,-0.266 -0.229,-0.354c-0.096,-0.088 -0.204,-0.144 -0.324,-0.168c0.28,-0.088 0.498,-0.237 0.652,-0.447c0.154,-0.21 0.231,-0.46 0.231,-0.748c0,-0.412 -0.131,-0.729 -0.391,-0.951c-0.26,-0.222 -0.648,-0.332 -1.164,-0.332l-1.984,0l0,0Zm-24.613,0.804c0.32,0 0.572,0.112 0.754,0.338c0.182,0.226 0.273,0.555 0.273,0.987c0,0.436 -0.091,0.768 -0.273,0.996c-0.182,0.228 -0.434,0.343 -0.754,0.343c-0.32,0 -0.57,-0.113 -0.75,-0.339c-0.18,-0.226 -0.27,-0.56 -0.27,-1c0,-0.436 0.09,-0.765 0.27,-0.989c0.18,-0.224 0.43,-0.336 0.75,-0.336Zm11.527,0c0.32,0 0.57,0.112 0.752,0.338c0.182,0.226 0.273,0.555 0.273,0.987c0,0.436 -0.091,0.768 -0.273,0.996c-0.182,0.228 -0.432,0.343 -0.752,0.343c-0.32,0 -0.57,-0.113 -0.75,-0.339c-0.18,-0.226 -0.272,-0.56 -0.272,-1c0,-0.436 0.092,-0.765 0.272,-0.989c0.18,-0.224 0.43,-0.336 0.75,-0.336Zm14.184,0.047l0.707,0c0.244,0 0.419,0.036 0.525,0.108c0.106,0.072 0.158,0.191 0.158,0.355c0,0.156 -0.054,0.27 -0.162,0.344c-0.108,0.074 -0.281,0.111 -0.521,0.111l-0.707,0l0,-0.918Z" style="fill:#f8f8f8;fill-rule:nonzero;"/>
    <path d="M22.954,297.15c-0.458,0 -0.856,0.094 -1.193,0.281c-0.338,0.187 -0.602,0.451 -0.786,0.795c-0.185,0.345 -0.277,0.751 -0.277,1.217c0,0.466 0.092,0.873 0.274,1.221c0.183,0.349 0.445,0.615 0.785,0.802c0.34,0.187 0.739,0.28 1.197,0.28c0.457,0 0.853,-0.093 1.191,-0.28c0.338,-0.187 0.599,-0.453 0.78,-0.802c0.18,-0.348 0.271,-0.755 0.271,-1.221c0,-0.466 -0.091,-0.872 -0.271,-1.217c-0.181,-0.344 -0.442,-0.608 -0.78,-0.795c-0.338,-0.187 -0.734,-0.281 -1.191,-0.281Zm6.699,0c-0.361,0 -0.681,0.062 -0.963,0.186c-0.281,0.124 -0.5,0.296 -0.656,0.517c-0.155,0.22 -0.232,0.467 -0.232,0.74c0,0.239 0.048,0.442 0.142,0.61c0.095,0.168 0.257,0.313 0.492,0.437c0.236,0.124 0.567,0.229 0.991,0.313c0.336,0.071 0.564,0.143 0.685,0.217c0.122,0.073 0.184,0.166 0.184,0.279c0,0.126 -0.067,0.224 -0.201,0.293c-0.135,0.069 -0.328,0.105 -0.58,0.105c-0.247,0 -0.495,-0.038 -0.741,-0.111c-0.245,-0.074 -0.477,-0.18 -0.695,-0.318l-0.371,0.837c0.206,0.151 0.471,0.272 0.799,0.36c0.327,0.088 0.66,0.131 0.996,0.131c0.617,0 1.093,-0.124 1.433,-0.373c0.34,-0.25 0.512,-0.593 0.512,-1.03c0,-0.231 -0.048,-0.429 -0.144,-0.595c-0.097,-0.166 -0.263,-0.311 -0.496,-0.434c-0.233,-0.124 -0.552,-0.23 -0.959,-0.318c-0.252,-0.055 -0.441,-0.106 -0.567,-0.155c-0.126,-0.048 -0.212,-0.097 -0.258,-0.148c-0.046,-0.05 -0.07,-0.113 -0.07,-0.189c0,-0.138 0.065,-0.249 0.195,-0.331c0.13,-0.082 0.302,-0.123 0.516,-0.123c0.219,0 0.438,0.037 0.656,0.11c0.219,0.074 0.425,0.18 0.623,0.318l0.365,-0.836c-0.172,-0.147 -0.41,-0.267 -0.714,-0.357c-0.304,-0.09 -0.619,-0.135 -0.942,-0.135l0,0Zm-13.658,0.057l0,4.484l1.102,0l0,-2.545l2.035,2.545l0.875,0l0,-4.484l-1.115,0l0,2.531l-2.033,-2.531l-0.864,0Zm9.893,0l0,4.482l1.183,0l0,-4.482l-1.183,0Zm6.222,0l0,4.484l3.198,0l0,-0.908l-2.047,0l0,-0.918l1.914,0l0,-0.908l-1.914,0l0,-0.844l2.047,0l0,-0.906l-3.198,0Zm-9.156,0.843c0.336,0 0.598,0.119 0.789,0.356c0.191,0.237 0.287,0.583 0.287,1.037c0,0.457 -0.096,0.806 -0.287,1.045c-0.191,0.239 -0.453,0.359 -0.789,0.359c-0.336,0 -0.598,-0.12 -0.787,-0.357c-0.189,-0.237 -0.285,-0.586 -0.285,-1.047c0,-0.458 0.096,-0.804 0.285,-1.039c0.189,-0.235 0.451,-0.354 0.787,-0.354l0,0Z" style="fill:#f8f8f8;fill-rule:nonzero;"/>
    <path d="M71.957,297.15c-0.361,0 -0.682,0.063 -0.963,0.187c-0.281,0.124 -0.499,0.296 -0.654,0.516c-0.155,0.22 -0.235,0.467 -0.235,0.74c0,0.239 0.048,0.442 0.143,0.61c0.094,0.168 0.259,0.314 0.494,0.437c0.235,0.124 0.564,0.229 0.988,0.313c0.336,0.071 0.564,0.144 0.686,0.217c0.122,0.074 0.184,0.167 0.184,0.281c0,0.125 -0.067,0.222 -0.202,0.291c-0.134,0.07 -0.328,0.105 -0.58,0.105c-0.248,0 -0.494,-0.037 -0.74,-0.111c-0.246,-0.073 -0.477,-0.177 -0.695,-0.316l-0.371,0.837c0.205,0.151 0.472,0.27 0.799,0.358c0.328,0.089 0.66,0.133 0.996,0.133c0.617,0 1.095,-0.125 1.435,-0.375c0.34,-0.25 0.51,-0.593 0.51,-1.03c0,-0.23 -0.048,-0.429 -0.145,-0.595c-0.096,-0.165 -0.261,-0.31 -0.494,-0.434c-0.233,-0.124 -0.554,-0.23 -0.961,-0.318c-0.252,-0.055 -0.44,-0.107 -0.566,-0.155c-0.126,-0.049 -0.212,-0.098 -0.258,-0.148c-0.046,-0.051 -0.07,-0.113 -0.07,-0.188c0,-0.139 0.065,-0.25 0.195,-0.332c0.13,-0.082 0.304,-0.123 0.518,-0.123c0.218,0 0.436,0.038 0.654,0.112c0.218,0.073 0.426,0.179 0.623,0.318l0.365,-0.838c-0.173,-0.147 -0.411,-0.266 -0.715,-0.357c-0.305,-0.09 -0.617,-0.135 -0.941,-0.135l0,0Zm4.006,0.014c-0.268,0 -0.509,0.048 -0.719,0.144c-0.209,0.097 -0.372,0.231 -0.488,0.406c-0.115,0.174 -0.174,0.375 -0.174,0.602c0,0.323 0.132,0.622 0.393,0.895c-0.282,0.164 -0.488,0.346 -0.621,0.55c-0.132,0.204 -0.2,0.436 -0.2,0.696c0,0.252 0.07,0.475 0.211,0.67c0.141,0.196 0.338,0.348 0.59,0.455c0.252,0.107 0.538,0.158 0.861,0.158c0.487,0 0.933,-0.154 1.336,-0.465c0.277,0.223 0.615,0.382 1.014,0.479l0.535,-0.782c-0.331,-0.063 -0.633,-0.198 -0.906,-0.408c0.147,-0.235 0.264,-0.493 0.35,-0.775c0.086,-0.281 0.138,-0.575 0.154,-0.881l-0.934,0c-0.025,0.357 -0.112,0.698 -0.263,1.025l-0.641,-0.592c0.503,-0.285 0.754,-0.659 0.754,-1.121c0,-0.319 -0.113,-0.574 -0.34,-0.767c-0.226,-0.193 -0.53,-0.289 -0.912,-0.289l0,0Zm2.916,0.045l0,4.482l1.156,0l0,-1.813l1.815,0l0,1.813l1.16,0l0,-4.482l-1.16,0l0,1.742l-1.815,0l0,-1.742l-1.156,0Zm-2.899,0.691c0.101,0 0.185,0.033 0.25,0.098c0.065,0.065 0.096,0.153 0.096,0.267c0,0.104 -0.033,0.198 -0.105,0.278c-0.071,0.079 -0.188,0.16 -0.348,0.244c-0.113,-0.113 -0.188,-0.202 -0.228,-0.27c-0.04,-0.067 -0.061,-0.139 -0.061,-0.215c0,-0.126 0.037,-0.223 0.111,-0.295c0.073,-0.071 0.168,-0.107 0.285,-0.107l0,0Zm-0.408,1.877l0.932,0.889c-0.214,0.147 -0.432,0.218 -0.654,0.218c-0.181,0 -0.323,-0.046 -0.428,-0.138c-0.105,-0.093 -0.158,-0.216 -0.158,-0.371c0,-0.244 0.102,-0.443 0.308,-0.598Z" style="fill:#f8f8f8;fill-rule:nonzero;"/>
    <path d="M65.049,245.95c-4.145,0 -8.291,1.407 -11.645,4.221c-6.706,5.627 -8.42,15.35 -4.043,22.932c0.392,0.722 1.469,0.101 1.039,-0.6c-4.087,-7.08 -2.486,-16.157 3.776,-21.412c6.262,-5.254 15.482,-5.254 21.744,0c6.262,5.255 7.862,14.332 3.775,21.412c-0.429,0.701 0.648,1.322 1.039,0.6c4.377,-7.582 2.663,-17.304 -4.043,-22.932c-3.353,-2.814 -7.497,-4.221 -11.643,-4.221l0.001,0Zm-13.6,29.889c-1.797,0 -3.267,1.469 -3.267,3.266c0,1.797 1.47,3.267 3.267,3.267c1.798,0 3.266,-1.47 3.266,-3.267c0,-1.797 -1.468,-3.266 -3.266,-3.266Zm27.195,0c-1.797,0 -3.267,1.469 -3.267,3.266c0,1.797 1.47,3.267 3.267,3.267c1.798,0 3.268,-1.47 3.268,-3.267c0,-1.797 -1.47,-3.266 -3.268,-3.266Zm-27.195,1.199c1.149,0 2.067,0.918 2.067,2.067c0,1.148 -0.918,2.068 -2.067,2.068c-1.148,0 -2.068,-0.92 -2.068,-2.068c0,-1.149 0.92,-2.067 2.068,-2.067Z" style="fill:#f8f8f8;"/>
    <path d="M45.078,106.92c-0.329,0.006 -0.595,0.281 -0.59,0.609l0.004,2.067c-5.177,0.141 -10.317,1.964 -14.506,5.506c-8.725,7.376 -10.955,20.116 -5.26,30.053c0.104,0.196 0.309,0.32 0.531,0.32c0.329,0 0.6,-0.271 0.6,-0.6c0,-0.112 -0.031,-0.221 -0.09,-0.316c-5.408,-9.435 -3.289,-21.539 4.992,-28.541c3.969,-3.355 8.833,-5.085 13.734,-5.225l0.041,22.498c0,0.008 0,0.015 0,0.023c0,0.329 0.271,0.6 0.6,0.6c0.329,0 0.6,-0.271 0.6,-0.6c0,-0.008 0,-0.016 0,-0.025l-0.039,-22.5c4.928,0.124 9.823,1.856 13.812,5.229c8.285,7.001 10.403,19.106 4.998,28.541c-0.059,0.095 -0.09,0.204 -0.09,0.316c0,0.329 0.271,0.6 0.6,0.6c0.222,0 0.427,-0.124 0.531,-0.32c5.692,-9.937 3.465,-22.676 -5.264,-30.053c-4.212,-3.561 -9.384,-5.387 -14.59,-5.51l-0.004,-2.065c0,-0.002 0,-0.005 0,-0.007c0,-0.329 -0.271,-0.6 -0.6,-0.6c-0.004,0 -0.008,0 -0.011,0l0.001,0Zm19.184,39.762c-0.325,0.007 -0.588,0.275 -0.588,0.6c0,0.004 0,0.009 0,0.013l0.022,3.862l-3.87,0.017c-0.007,0 -0.014,0 -0.021,0c-0.329,0 -0.6,0.271 -0.6,0.6c0,0.329 0.271,0.6 0.6,0.6c0.008,0 0.017,0 0.025,-0.001l3.871,-0.017l0.022,3.951c0.002,0.328 0.273,0.597 0.601,0.597c0.329,0 0.6,-0.272 0.6,-0.601c0,-0.001 0,-0.003 0,-0.004l-0.021,-3.949l3.869,-0.018c0.007,0 0.013,0.001 0.02,0.001c0.329,0 0.6,-0.271 0.6,-0.601c0,-0.329 -0.271,-0.6 -0.6,-0.6c-0.009,0 -0.017,0.001 -0.026,0.001l-3.871,0.018l-0.022,-3.864c0,-0.002 0,-0.003 0,-0.005c0,-0.329 -0.271,-0.6 -0.6,-0.6c-0.003,0 -0.007,0 -0.011,0l0,0Zm-32.627,4.197l-8.941,0.041c-0.007,0 -0.014,0 -0.021,0c-0.329,0 -0.6,0.271 -0.6,0.6c0,0.329 0.271,0.6 0.6,0.6c0.009,0 0.018,0 0.027,0l8.941,-0.041c0.007,0 0.013,0 0.02,0c0.329,0 0.6,-0.271 0.6,-0.6c0,-0.329 -0.271,-0.6 -0.6,-0.6c-0.008,0 -0.017,0 -0.026,0Z" style="fill:#f8f8f8;fill-rule:nonzero;"/>
    <g>
      <path d="M6.713,306.8c-0.008,0 -0.016,0 -0.024,0c-0.329,0 -0.6,0.27 -0.6,0.6c0,0.329 0.271,0.6 0.6,0.6c0.008,0 0.016,0 0.024,-0.001l76.004,0c0.008,0.001 0.016,0.001 0.023,0.001c0.33,0 0.6,-0.271 0.6,-0.6c0,-0.33 -0.27,-0.6 -0.6,-0.6c-0.007,0 -0.015,0 -0.023,0l-76.004,0Z" style="fill:#f8f8f8;"/>
      <path d="M6.713,291.1c-0.008,0 -0.016,0 -0.024,0c-0.329,0 -0.6,0.27 -0.6,0.6c0,0.329 0.271,0.6 0.6,0.6c0.008,0 0.016,0 0.024,-0.001l76.004,0c0.008,0.001 0.016,0.001 0.023,0.001c0.33,0 0.6,-0.271 0.6,-0.6c0,-0.33 -0.27,-0.6 -0.6,-0.6c-0.007,0 -0.015,0 -0.023,0l-76.004,0Z" style="fill:#f8f8f8;"/>
      <path d="M6.713,234.97c-0.33,0 -0.601,0.271 -0.601,0.601c0,0.329 0.271,0.6 0.601,0.6c0,0 76.004,0 76.004,0c0.329,0 0.601,-0.271 0.601,-0.6c0,-0.33 -0.272,-0.601 -0.601,-0.601c0,0 -76.004,0 -76.004,0Z" style="fill:#f8f8f8;"/>
    </g>
    <path d="M25.079,226.24c-0.523,0 -0.981,0.103 -1.373,0.311c-0.392,0.208 -0.696,0.505 -0.91,0.89c-0.215,0.385 -0.322,0.834 -0.322,1.348c0,0.527 0.107,0.982 0.322,1.367c0.214,0.385 0.521,0.681 0.92,0.887c0.399,0.205 0.87,0.306 1.412,0.306c0.345,0 0.681,-0.032 1.01,-0.097c0.329,-0.066 0.628,-0.159 0.894,-0.28l0,-2.5l-2.053,0l0,0.891l0.87,0l0,0.924c-0.22,0.046 -0.44,0.07 -0.659,0.07c-0.472,0 -0.82,-0.131 -1.046,-0.387c-0.226,-0.257 -0.34,-0.649 -0.34,-1.181c0,-0.514 0.109,-0.897 0.326,-1.147c0.217,-0.25 0.546,-0.373 0.99,-0.373c0.242,0 0.47,0.034 0.682,0.102c0.212,0.068 0.433,0.176 0.662,0.326l0.414,-0.932c-0.201,-0.164 -0.461,-0.291 -0.781,-0.384c-0.32,-0.094 -0.659,-0.141 -1.018,-0.141l0,0Zm-18.139,0.062l0,4.985l1.295,0l0,-1.94l0.476,0c0.275,0 0.451,0.095 0.526,0.282l0.644,1.658l2.688,0l0.441,-1.029l2.211,0l0.442,1.029l1.294,0l-2.337,-4.984l-1.036,0l-2.32,4.959l-0.578,-1.459c-0.066,-0.173 -0.154,-0.311 -0.266,-0.413c-0.112,-0.103 -0.239,-0.167 -0.379,-0.195c0.326,-0.103 0.58,-0.278 0.76,-0.523c0.18,-0.245 0.27,-0.535 0.27,-0.871c0,-0.481 -0.152,-0.851 -0.455,-1.11c-0.304,-0.259 -0.756,-0.388 -1.358,-0.388l-2.318,-0.001Zm10.305,0l0,4.985l1.225,0l0,-2.828l2.261,2.828l0.973,0l0,-4.985l-1.238,0l0,2.815l-2.262,-2.815l-0.959,0Zm10.619,0l0,4.985l3.557,0l0,-1.008l-2.276,0l0,-1.021l2.127,0l0,-1.008l-2.127,0l0,-0.94l2.276,0l0,-1.007l-3.557,-0.001Zm-19.643,0.995l0.826,0c0.284,0 0.489,0.043 0.613,0.127c0.124,0.084 0.186,0.22 0.186,0.412c0,0.182 -0.063,0.316 -0.189,0.402c-0.126,0.086 -0.33,0.131 -0.61,0.131l-0.826,0l0,-1.072Zm5.894,0.4l0.68,1.574l-1.359,0l0.679,-1.574Z" style="fill:rgb(236,236,236);fill-rule:nonzero;"/>
    <path d="M14.526,167.812c-0.448,0 -0.839,0.09 -1.175,0.268c-0.336,0.178 -0.596,0.432 -0.78,0.762c-0.184,0.33 -0.275,0.716 -0.275,1.156c0,0.452 0.091,0.842 0.275,1.172c0.184,0.33 0.447,0.583 0.789,0.759c0.342,0.176 0.745,0.264 1.209,0.264c0.296,0 0.585,-0.028 0.867,-0.084c0.282,-0.056 0.536,-0.136 0.764,-0.24l0,-2.143l-1.758,0l0,0.764l0.744,0l0,0.791c-0.188,0.04 -0.376,0.061 -0.564,0.061c-0.404,0 -0.702,-0.111 -0.896,-0.331c-0.194,-0.22 -0.291,-0.557 -0.291,-1.013c0,-0.44 0.093,-0.769 0.279,-0.983c0.186,-0.214 0.469,-0.32 0.849,-0.32c0.208,0 0.402,0.03 0.584,0.088c0.182,0.058 0.373,0.149 0.569,0.277l0.353,-0.797c-0.172,-0.14 -0.396,-0.25 -0.67,-0.33c-0.274,-0.08 -0.565,-0.121 -0.873,-0.121l0,0Zm3.866,0.055l-1.998,4.271l1.127,0l0.378,-0.88l1.897,0l0.377,0.88l1.109,0l-2.004,-4.271l-0.886,0Zm2.267,0l0,0.912l1.272,0l0,3.359l1.14,0l0,-3.359l1.272,0l0,-0.912l-3.684,0Zm4.141,0l0,4.271l3.047,0l0,-0.863l-1.95,0l0,-0.877l1.825,0l0,-0.863l-1.825,0l0,-0.805l1.95,0l0,-0.863l-3.047,0Zm-5.953,1.193l0.582,1.352l-1.164,0l0.582,-1.352Z" style="fill:#f8f8f8;fill-rule:nonzero;"/>
    <path d="M19.897,173.859c-0.332,0.006 -0.596,0.279 -0.59,0.611l0,1.408c-2.52,0.13 -5.006,1.043 -7.047,2.756c-4.419,3.708 -5.55,10.112 -2.668,15.105l0.301,0.52l10.035,-5.793l10.035,5.793l0.301,-0.52c2.882,-4.993 1.752,-11.398 -2.668,-15.105c-2.052,-1.722 -4.555,-2.636 -7.09,-2.757l0,-1.411c0,-0.338 -0.271,-0.612 -0.609,-0.607l0,0Zm-0.586,3.219l0.019,10.35l-8.902,5.14c-2.21,-4.402 -1.209,-9.813 2.605,-13.014c1.819,-1.527 4.032,-2.348 6.278,-2.476l0,0Zm1.199,0c2.26,0.121 4.488,0.94 6.317,2.476c3.815,3.201 4.813,8.612 2.603,13.014l-8.902,-5.14l-0.018,-10.35Zm7.933,17.562l0.01,1.582l-1.606,0.008c-0.831,-0.028 -0.825,1.235 0.01,1.199l1.606,-0.008l0.01,1.629c-0.026,0.831 1.236,0.822 1.199,-0.008l-0.01,-1.625l1.603,-0.008c0.801,-0.004 0.795,-1.205 -0.01,-1.201l-1.605,0.008l-0.01,-1.584c0,-0.771 -1.197,-0.756 -1.197,0.008l0,0Zm-15.172,1.445l-4.415,0.02c-0.8,0.004 -0.794,1.205 0.01,1.201l4.415,-0.022c0.83,0.028 0.824,-1.235 -0.01,-1.199Z" style="fill:#f8f8f8;fill-rule:nonzero;"/>
    <path d="M57.727,226.24c-0.509,0 -0.95,0.103 -1.326,0.311c-0.376,0.208 -0.666,0.503 -0.871,0.886c-0.206,0.382 -0.309,0.834 -0.309,1.352c0,0.518 0.102,0.969 0.305,1.357c0.203,0.387 0.493,0.685 0.871,0.893c0.378,0.208 0.821,0.31 1.33,0.31c0.508,0 0.95,-0.102 1.326,-0.31c0.376,-0.208 0.664,-0.506 0.865,-0.893c0.2,-0.388 0.301,-0.839 0.301,-1.357c0,-0.518 -0.101,-0.97 -0.301,-1.352c-0.201,-0.383 -0.489,-0.678 -0.865,-0.886c-0.376,-0.208 -0.818,-0.311 -1.326,-0.311Zm13.322,0c-0.402,0 -0.76,0.069 -1.072,0.207c-0.313,0.138 -0.555,0.327 -0.727,0.572c-0.173,0.245 -0.26,0.521 -0.26,0.825c0,0.266 0.052,0.492 0.157,0.679c0.105,0.186 0.288,0.347 0.55,0.485c0.261,0.138 0.628,0.253 1.1,0.347c0.373,0.079 0.626,0.158 0.762,0.24c0.135,0.082 0.203,0.187 0.203,0.313c0,0.14 -0.074,0.249 -0.223,0.326c-0.15,0.077 -0.364,0.115 -0.644,0.115c-0.276,0 -0.55,-0.041 -0.823,-0.123c-0.273,-0.082 -0.531,-0.199 -0.773,-0.353l-0.414,0.931c0.228,0.168 0.525,0.301 0.889,0.399c0.364,0.098 0.733,0.146 1.107,0.146c0.686,0 1.218,-0.138 1.596,-0.416c0.378,-0.278 0.566,-0.659 0.566,-1.144c0,-0.257 -0.053,-0.478 -0.16,-0.662c-0.108,-0.184 -0.292,-0.345 -0.551,-0.483c-0.259,-0.138 -0.614,-0.255 -1.066,-0.353c-0.28,-0.061 -0.491,-0.118 -0.631,-0.172c-0.14,-0.054 -0.236,-0.108 -0.287,-0.164c-0.052,-0.056 -0.076,-0.125 -0.076,-0.209c0,-0.154 0.071,-0.278 0.216,-0.369c0.144,-0.091 0.337,-0.135 0.575,-0.135c0.242,0 0.485,0.039 0.728,0.121c0.242,0.082 0.472,0.2 0.692,0.354l0.406,-0.93c-0.192,-0.164 -0.457,-0.297 -0.795,-0.397c-0.338,-0.1 -0.686,-0.15 -1.045,-0.15l0,0Zm-10.059,0.062l0,4.985l1.295,0l0,-2.024l2.043,0l0,-1.021l-2.043,0l0,-0.91l2.184,0l-0.001,-1.029l-3.478,-0.001Zm4.088,0l0,4.985l1.295,0l0,-2.024l2.043,0l0,-1.021l-2.043,0l0,-0.91l2.183,0l0,-1.029l-3.478,-0.001Zm8.701,0l0,4.985l3.555,0l0,-1.008l-2.276,0l0,-1.021l2.129,0l0,-1.008l-2.129,0l0,-0.94l2.276,0l0,-1.007l-3.555,-0.001Zm3.983,0l-0.001,1.065l1.485,0l0,3.92l1.33,0l0,-3.92l1.482,0l0,-1.065l-4.296,0Zm-20.035,0.94c0.373,0 0.666,0.13 0.878,0.394c0.212,0.264 0.319,0.649 0.319,1.153c0,0.508 -0.107,0.896 -0.319,1.162c-0.212,0.266 -0.505,0.398 -0.878,0.398c-0.374,0 -0.665,-0.132 -0.875,-0.396c-0.21,-0.264 -0.315,-0.651 -0.315,-1.164c0,-0.509 0.105,-0.896 0.315,-1.156c0.21,-0.262 0.501,-0.391 0.875,-0.391l0,0Z" style="fill:rgb(236,236,236);fill-rule:nonzero;"/>
    <path d="M71.688,167.447c-0.444,0 -0.831,0.091 -1.161,0.273c-0.33,0.182 -0.583,0.438 -0.761,0.768c-0.178,0.33 -0.268,0.712 -0.268,1.144c0,0.436 0.09,0.819 0.268,1.151c0.178,0.332 0.431,0.589 0.761,0.771c0.33,0.182 0.717,0.274 1.161,0.274c0.28,0 0.55,-0.043 0.812,-0.127c0.262,-0.084 0.473,-0.198 0.633,-0.342l-0.342,-0.797c-0.348,0.252 -0.708,0.377 -1.08,0.377c-0.344,0 -0.607,-0.11 -0.791,-0.33c-0.184,-0.22 -0.275,-0.545 -0.275,-0.977c0,-0.428 0.091,-0.752 0.275,-0.97c0.184,-0.218 0.447,-0.326 0.791,-0.326c0.372,0 0.732,0.126 1.08,0.378l0.342,-0.798c-0.16,-0.144 -0.371,-0.258 -0.633,-0.342c-0.262,-0.084 -0.532,-0.127 -0.812,-0.127l0,0Zm-6.762,0.055l0,4.271l1.746,0c0.476,0 0.885,-0.084 1.227,-0.254c0.342,-0.17 0.603,-0.416 0.783,-0.738c0.18,-0.322 0.269,-0.705 0.269,-1.148c0,-0.44 -0.089,-0.821 -0.271,-1.141c-0.182,-0.32 -0.445,-0.564 -0.787,-0.734c-0.342,-0.17 -0.749,-0.256 -1.221,-0.256l-1.746,0Zm1.129,0.9l0.539,0c0.828,0 1.242,0.41 1.242,1.23c0,0.416 -0.103,0.726 -0.309,0.932c-0.206,0.206 -0.517,0.311 -0.933,0.311l-0.539,0l0,-2.473Z" style="fill:#f8f8f8;fill-rule:nonzero;"/>
    <path d="M68.907,173.866c-0.332,0.006 -0.596,0.28 -0.59,0.612l0,1.408c-2.52,0.13 -5.006,1.042 -7.046,2.756c-4.42,3.707 -5.55,10.112 -2.668,15.105l0.3,0.519l10.035,-5.793l10.035,5.793l0.301,-0.519c2.882,-4.993 1.752,-11.398 -2.668,-15.105c-2.051,-1.723 -4.555,-2.636 -7.09,-2.758l0,-1.41c0,-0.338 -0.271,-0.613 -0.609,-0.608l0,0Zm-0.586,3.219l0.019,10.35l-8.902,5.141c-2.21,-4.403 -1.209,-9.814 2.605,-13.014c1.819,-1.528 4.032,-2.348 6.278,-2.477l0,0Zm1.2,0c2.259,0.121 4.487,0.94 6.316,2.477c3.816,3.2 4.813,8.611 2.603,13.014l-8.902,-5.141l-0.017,-10.35Zm7.932,17.562l0.01,1.582l-1.606,0.008c-0.831,-0.028 -0.824,1.235 0.01,1.199l1.606,-0.008l0.01,1.629c-0.026,0.831 1.236,0.823 1.199,-0.008l-0.01,-1.625l1.604,-0.008c0.8,-0.004 0.794,-1.205 -0.01,-1.201l-1.606,0.008l-0.01,-1.584c0,-0.771 -1.197,-0.756 -1.197,0.008l0,0Zm-15.172,1.445l-4.414,0.02c-0.801,0.004 -0.795,1.205 0.01,1.201l4.414,-0.021c0.831,0.027 0.824,-1.236 -0.01,-1.2Z" style="fill:#f8f8f8;fill-rule:nonzero;"/>
    <path d="M45.078,51.57c-0.329,0.006 -0.595,0.281 -0.59,0.609l0.004,2.067c-5.177,0.141 -10.317,1.964 -14.506,5.506c-8.725,7.376 -10.955,20.116 -5.26,30.053c0.104,0.196 0.309,0.32 0.531,0.32c0.329,0 0.6,-0.271 0.6,-0.6c0,-0.112 -0.031,-0.221 -0.09,-0.316c-5.408,-9.435 -3.289,-21.539 4.992,-28.541c3.969,-3.355 8.833,-5.085 13.734,-5.225l0.041,22.498c0,0.008 0,0.015 0,0.023c0,0.329 0.271,0.6 0.6,0.6c0.329,0 0.6,-0.271 0.6,-0.6c0,-0.008 0,-0.016 0,-0.025l-0.039,-22.5c4.928,0.124 9.823,1.856 13.812,5.229c8.285,7.001 10.403,19.106 4.998,28.541c-0.059,0.095 -0.09,0.204 -0.09,0.316c0,0.329 0.271,0.6 0.6,0.6c0.222,0 0.427,-0.124 0.531,-0.32c5.692,-9.937 3.465,-22.676 -5.264,-30.053c-4.212,-3.561 -9.384,-5.387 -14.59,-5.51l-0.004,-2.065c0,-0.002 0,-0.005 0,-0.007c0,-0.329 -0.271,-0.6 -0.6,-0.6c-0.004,0 -0.008,0 -0.011,0l0.001,0Zm19.184,39.762c-0.325,0.007 -0.588,0.275 -0.588,0.6c0,0.004 0,0.009 0,0.013l0.022,3.862l-3.87,0.017c-0.007,0 -0.014,0 -0.021,0c-0.329,0 -0.6,0.271 -0.6,0.6c0,0.329 0.271,0.6 0.6,0.6c0.008,0 0.017,0 0.025,-0.001l3.871,-0.017l0.022,3.951c0.002,0.328 0.273,0.597 0.601,0.597c0.329,0 0.6,-0.272 0.6,-0.601c0,-0.001 0,-0.003 0,-0.004l-0.021,-3.949l3.869,-0.018c0.007,0 0.013,0.001 0.02,0.001c0.329,0 0.6,-0.271 0.6,-0.601c0,-0.329 -0.271,-0.6 -0.6,-0.6c-0.009,0 -0.017,0.001 -0.026,0.001l-3.871,0.018l-0.022,-3.864c0,-0.002 0,-0.003 0,-0.005c0,-0.329 -0.271,-0.6 -0.6,-0.6c-0.003,0 -0.007,0 -0.011,0l0,0Zm-32.627,4.197l-8.941,0.041c-0.007,0 -0.014,0 -0.021,0c-0.329,0 -0.6,0.271 -0.6,0.6c0,0.329 0.271,0.6 0.6,0.6c0.009,0 0.018,0 0.027,0l8.941,-0.041c0.007,0 0.013,0 0.02,0c0.329,0 0.6,-0.271 0.6,-0.6c0,-0.329 -0.271,-0.6 -0.6,-0.6c-0.008,0 -0.017,0 -0.026,0Z" style="fill:#f8f8f8;fill-rule:nonzero;"/>
  </g>
</svg>