<svg width="150px" height="380px" version="1.1" xmlns="http://www.w3.org/2000/svg" xmlns:xlink="http://www.w3.org/1999/xlink" xml:space="preserve" xmlns:serif="http://www.serif.com/" style="fill-rule:evenodd;clip-rule:evenodd;stroke-linecap:round;stroke-miterlimit:10;">
  <defs>
    <linearGradient id="_Linear1" x1="0" y1="0" x2="1" y2="0" gradientUnits="userSpaceOnUse" gradientTransform="matrix(0.007008,-37.8989,37.8989,0.007008,75.2834,112.195)">
      <stop offset="0" style="stop-color:#101010;stop-opacity:1"/>
      <stop offset="1" style="stop-color:#101010;stop-opacity:1"/>
    </linearGradient>
    <linearGradient id="_Linear2" x1="0" y1="0" x2="1" y2="0" gradientUnits="userSpaceOnUse" gradientTransform="matrix(-4.88,-92.58,92.58,-4.88,277.54,345.91)">
      <stop offset="0" style="stop-color:#101010;stop-opacity:1"/>
      <stop offset="1" style="stop-color:#101010;stop-opacity:1"/>
    </linearGradient>
    <linearGradient id="_Linear3" x1="0" y1="0" x2="1" y2="0" gradientUnits="userSpaceOnUse" gradientTransform="matrix(-4.75,94.86,-94.86,-4.75,277.54,158.47)">
      <stop offset="0" style="stop-color:#101010;stop-opacity:1"/>
      <stop offset="1" style="stop-color:#101010;stop-opacity:1"/>
    </linearGradient>
    <linearGradient id="_Linear4" x1="0" y1="0" x2="1" y2="0" gradientUnits="userSpaceOnUse" gradientTransform="matrix(1.15392e-16,-1.8845,1.8845,1.15392e-16,56.519,1.9362)">
      <stop offset="0" style="stop-color:#101010;stop-opacity:1"/>
      <stop offset="1" style="stop-color:#101010;stop-opacity:1"/>
    </linearGradient>
  </defs>
  <g id="Panel">
    <g>
      <rect x="0" y="0" width="150" height="380" style="fill:url(#_Linear1);"/>
      <rect x="0" y="253.33" width="150" height="126.67" style="fill:url(#_Linear2);"/>
      <rect x="0" y="126.67" width="150" height="126.67" style="fill:url(#_Linear3);"/>
      <rect x="0" y="0" width="150" height="380" style="fill:#103550;fill-opacity:0.1;"/>
      <rect x="0" y="0" width="150" height="2" style="fill:url(#_Linear4);"/>
    </g>
    <g>
      <path d="M62.9,363.496l3.443,10.383c0.322,0.968 0.909,1.451 1.756,1.451c0.835,0 1.414,-0.476 1.737,-1.435l3.46,-10.398l-2.66,0l-2.574,8.318l-2.49,-8.318l-2.672,-0.001Zm10.598,0l0,8.793c0,0.736 0.078,1.265 0.234,1.588c0.423,0.881 1.214,1.32 2.373,1.32l3.243,0c1.126,0 1.912,-0.429 2.357,-1.287c0.168,-0.324 0.25,-0.87 0.25,-1.639l0,-8.775l-2.506,0l0,8.658l-0.018,0.084c-0.056,0.29 -0.34,0.436 -0.853,0.436l-1.705,0c-0.535,0 -0.826,-0.157 -0.87,-0.469l0,-8.709l-2.505,0Zm9.611,0l0,8.842c0,0.914 0.19,1.598 0.569,2.049c0.378,0.452 1.019,0.717 1.922,0.795c0.123,0.011 0.268,0.015 0.435,0.015l4.664,0l0.016,-2.523l-4.463,0c-0.424,0 -0.634,-0.178 -0.634,-0.535l0,-8.643l-2.509,0Zm7.69,0l0,2.525l2.49,0l0,9.176l2.508,0l0,-9.176l2.523,0l0,-2.525l-7.521,0Z" style="fill:#666;fill-rule:nonzero;"/>
      <path d="M59.3,369.416c0,-4.509 -3.655,-8.165 -8.164,-8.165c-4.509,0 -8.165,3.656 -8.165,8.165c0,4.509 3.656,8.165 8.165,8.165c4.509,0 8.164,-3.656 8.164,-8.165Z" style="fill:#757575;fill-rule:nonzero;stroke:#353535;stroke-width:0.61px;"/>
      <g>
        <path d="M49.32,374.389l0.553,-0.89l-1.064,-2.393l-2.216,-2.284l0.46,3.101l0.597,1.28l0.833,1.263l0.837,-0.077Z" style="fill:#2b2b2b;fill-rule:nonzero;"/>
        <path d="M53.05,374.399l-0.553,-0.891l1.064,-2.393l2.216,-2.284l-0.46,3.101l-0.597,1.28l-0.833,1.264l-0.837,-0.077Z" style="fill:#101010;fill-rule:nonzero;"/>
        <path d="M48.64,363.359l2.584,-0.661l0,13.448l-1.349,-2.651l-1.061,-2.385l-1.022,-0.581l-2.052,-2.921l-0.057,-0.775l1.148,-2.067l1.809,-1.407Z" style="fill:#424242;fill-rule:nonzero;"/>
        <path d="M53.8,363.359l-2.584,-0.66l0,13.448l1.35,-2.651l1.06,-2.385l1.023,-0.581l2.051,-2.921l0.058,-0.775l-1.149,-2.068l-1.809,-1.407Z" style="fill:#333;fill-rule:nonzero;"/>
        <path d="M49.5,369.239l1.723,-1.685l0,1.23l-1.723,1.718l0,-1.263" style="fill:#4c4c4c;fill-rule:nonzero;"/>
        <path d="M51.22,368.779l-1.723,1.718l0.377,3.004l1.346,2.643l0,-7.365Z" style="fill:#5b5b5b;fill-rule:nonzero;"/>
        <path d="M51.22,376.149l-1.346,-2.643l1.346,-0.635l0,3.278Z" style="fill:#333;fill-rule:nonzero;"/>
        <path d="M49.5,370.499l0,-1.264l-1.249,-1.579l-1.477,-1.19l-0.001,0.932l0.775,1.823l1.952,1.278Z" style="fill:#f8f8f8;fill-rule:nonzero;"/>
        <path d="M52.94,369.239l-1.722,-1.684l0,1.23l1.722,1.718l0,-1.264" style="fill:#2d2d2d;fill-rule:nonzero;"/>
        <path d="M51.22,368.779l1.722,1.718l-0.376,3.004l-1.347,2.643l0.001,-7.365Z" style="fill:#353535;fill-rule:nonzero;"/>
        <path d="M51.22,376.149l1.347,-2.643l-1.346,-0.635l-0.001,3.278Z" style="fill:#101010;fill-rule:nonzero;"/>
        <path d="M52.94,370.499l0,-1.264l1.249,-1.579l1.478,-1.19l0.001,0.932l-0.775,1.823l-1.953,1.278Z" style="fill:#f8f8f8;fill-rule:nonzero;"/>
        <path d="M48.65,363.339l2.566,4.216l-0.005,-4.87" style="fill:#383838;fill-rule:nonzero;"/>
        <path d="M53.78,363.339l-2.566,4.215l0.006,-4.87" style="fill:#2d2d2d;fill-rule:nonzero;"/>
        <path d="M48.81,371.109l0.688,-0.61l0.375,3.006l-1.063,-2.396Z" style="fill:#333;fill-rule:nonzero;"/>
        <path d="M53.63,371.129l-0.688,-0.61l-0.375,3.006l1.063,-2.396Z" style="fill:#1c1c1c;fill-rule:nonzero;"/>
      </g>
    </g>
    <g>
      <path d="M39.158,38.559l0,-7.351l1.378,0l0,3.203c0.45,-0.72 1.03,-1.08 1.742,-1.08c0.455,0 0.815,0.144 1.08,0.433c0.264,0.289 0.395,0.683 0.395,1.183l0,3.612l-1.378,0l0,-3.273c0,-0.58 -0.192,-0.87 -0.577,-0.87c-0.438,0 -0.858,0.308 -1.262,0.927l0,3.216l-1.378,0Z" style="fill:#f8f8f8;fill-rule:nonzero;"/>
      <path d="M45.42,38.559l0,-5.112l1.378,0l0,5.112l-1.378,0Zm0,-5.972l0,-1.151l1.378,0l0,1.151l-1.378,0Z" style="fill:#f8f8f8;fill-rule:nonzero;"/>
      <path d="M51.156,38.532c-0.33,0.095 -0.589,0.144 -0.778,0.144c-1.195,0 -1.792,-0.559 -1.792,-1.676l0,-2.692l-0.573,0l0,-0.861l0.573,0l0,-0.86l1.378,-0.159l0,1.019l1.093,0l0,0.861l-1.093,0l0,2.509c0,0.628 0.256,0.942 0.768,0.942c0.118,0 0.259,-0.023 0.424,-0.066l0,0.839Z" style="fill:#f8f8f8;fill-rule:nonzero;"/>
      <path d="M55.019,38.532c-0.328,0.095 -0.587,0.144 -0.777,0.144c-1.195,0 -1.792,-0.559 -1.792,-1.676l0,-2.692l-0.573,0l0,-0.861l0.573,0l0,-0.86l1.378,-0.159l0,1.019l1.094,0l0,0.861l-1.094,0l0,2.509c0,0.628 0.255,0.942 0.768,0.942c0.118,0 0.259,-0.023 0.423,-0.066l0,0.839Z" style="fill:#f8f8f8;fill-rule:nonzero;"/>
      <path d="M56.248,38.559l0,-5.112l1.379,0l0,5.112l-1.379,0Zm0,-5.972l0,-1.151l1.379,0l0,1.151l-1.379,0Z" style="fill:#f8f8f8;fill-rule:nonzero;"/>
      <path d="M59.35,38.559l0,-5.112l1.377,0l0,0.964c0.45,-0.72 1.03,-1.08 1.742,-1.08c0.456,0 0.816,0.144 1.08,0.433c0.263,0.289 0.395,0.683 0.395,1.183l0,3.612l-1.378,0l0,-3.273c0,-0.58 -0.193,-0.87 -0.577,-0.87c-0.438,0 -0.859,0.308 -1.262,0.927l0,3.216l-1.377,0Z" style="fill:#f8f8f8;fill-rule:nonzero;"/>
      <path d="M65.648,40.146l0.111,-1c0.569,0.26 1.11,0.39 1.626,0.39c0.509,0 0.876,-0.108 1.103,-0.325c0.226,-0.218 0.34,-0.569 0.34,-1.057l0,-0.698c-0.336,0.736 -0.89,1.103 -1.663,1.103c-0.607,0 -1.09,-0.228 -1.447,-0.682c-0.357,-0.455 -0.536,-1.07 -0.536,-1.846c0,-0.817 0.2,-1.47 0.601,-1.962c0.4,-0.492 0.932,-0.738 1.597,-0.738c0.521,0 1.004,0.211 1.448,0.633l0.144,-0.517l1.238,0l0,3.902c0,0.779 -0.047,1.34 -0.141,1.685c-0.096,0.345 -0.279,0.638 -0.552,0.88c-0.46,0.397 -1.106,0.595 -1.942,0.595c-0.593,0 -1.234,-0.12 -1.927,-0.363Zm3.18,-3.491l0,-1.885c-0.333,-0.376 -0.68,-0.564 -1.043,-0.564c-0.347,0 -0.624,0.158 -0.829,0.475c-0.205,0.316 -0.307,0.742 -0.307,1.276c0,0.999 0.322,1.499 0.963,1.499c0.445,0 0.849,-0.267 1.216,-0.801Z" style="fill:#f8f8f8;fill-rule:nonzero;"/>
      <path d="M79.205,38.387c-0.655,0.192 -1.276,0.289 -1.863,0.289c-0.853,0 -1.526,-0.243 -2.02,-0.727c-0.493,-0.484 -0.74,-1.145 -0.74,-1.983c0,-0.792 0.226,-1.428 0.678,-1.911c0.451,-0.483 1.048,-0.724 1.789,-0.724c0.749,0 1.295,0.236 1.639,0.707c0.344,0.472 0.517,1.219 0.517,2.239l-3.17,0c0.093,0.976 0.628,1.463 1.606,1.463c0.462,0 0.983,-0.107 1.564,-0.321l0,0.968Zm-3.189,-2.887l1.835,0c0,-0.872 -0.282,-1.307 -0.843,-1.307c-0.572,0 -0.902,0.435 -0.992,1.307Z" style="fill:#f8f8f8;fill-rule:nonzero;"/>
      <path d="M80.63,38.559l0,-5.112l1.377,0l0,0.964c0.45,-0.72 1.03,-1.08 1.742,-1.08c0.456,0 0.816,0.144 1.08,0.433c0.264,0.289 0.396,0.683 0.396,1.183l0,3.612l-1.379,0l0,-3.273c0,-0.58 -0.192,-0.87 -0.577,-0.87c-0.438,0 -0.858,0.308 -1.262,0.927l0,3.216l-1.377,0Z" style="fill:#f8f8f8;fill-rule:nonzero;"/>
      <path d="M88.152,38.559l-1.95,-5.112l1.453,0l1.429,3.687l1.42,-3.687l0.996,0l-1.969,5.112l-1.379,0Z" style="fill:#f8f8f8;fill-rule:nonzero;"/>
      <path d="M96.709,38.387c-0.654,0.192 -1.275,0.289 -1.862,0.289c-0.853,0 -1.527,-0.243 -2.02,-0.727c-0.494,-0.484 -0.74,-1.145 -0.74,-1.983c0,-0.792 0.225,-1.428 0.677,-1.911c0.451,-0.483 1.049,-0.724 1.79,-0.724c0.748,0 1.295,0.236 1.639,0.707c0.344,0.472 0.516,1.219 0.516,2.239l-3.17,0c0.094,0.976 0.628,1.463 1.607,1.463c0.461,0 0.983,-0.107 1.563,-0.321l0,0.968Zm-3.189,-2.887l1.835,0c0,-0.872 -0.281,-1.307 -0.843,-1.307c-0.571,0 -0.902,0.435 -0.992,1.307Z" style="fill:#f8f8f8;fill-rule:nonzero;"/>
    </g>
    <rect x="98.134" y="31.208" width="1.379" height="7.351" style="fill:#f8f8f8;"/>
    <path d="M103.38,38.676c-0.798,0 -1.432,-0.242 -1.902,-0.725c-0.47,-0.482 -0.705,-1.131 -0.705,-1.948c0,-0.826 0.236,-1.477 0.709,-1.955c0.474,-0.478 1.117,-0.717 1.93,-0.717c0.817,0 1.462,0.239 1.935,0.717c0.473,0.478 0.709,1.126 0.709,1.946c0,0.838 -0.237,1.495 -0.711,1.969c-0.476,0.475 -1.13,0.713 -1.965,0.713Zm0.023,-0.862c0.792,0 1.187,-0.607 1.187,-1.82c0,-0.556 -0.105,-0.994 -0.314,-1.317c-0.209,-0.323 -0.497,-0.484 -0.864,-0.484c-0.363,0 -0.649,0.161 -0.858,0.484c-0.21,0.323 -0.315,0.764 -0.315,1.326c0,0.556 0.104,0.997 0.312,1.323c0.208,0.326 0.492,0.488 0.852,0.488Z" style="fill:#f8f8f8;fill-rule:nonzero;"/>
    <path d="M107.32,40.398l0,-6.951l1.378,0l0,0.964c0.354,-0.72 0.911,-1.08 1.672,-1.08c0.614,0 1.098,0.225 1.449,0.675c0.353,0.45 0.529,1.07 0.529,1.857c0,0.857 -0.198,1.54 -0.596,2.049c-0.398,0.509 -0.929,0.764 -1.597,0.764c-0.537,0 -1.023,-0.211 -1.457,-0.634l0,2.356l-1.378,0Zm1.378,-3.175c0.336,0.373 0.692,0.559 1.07,0.559c0.339,0 0.609,-0.164 0.81,-0.491c0.203,-0.327 0.303,-0.765 0.303,-1.311c0,-1.046 -0.336,-1.569 -1.01,-1.569c-0.406,0 -0.797,0.262 -1.173,0.787l0,2.025Z" style="fill:#f8f8f8;fill-rule:nonzero;"/>
    <path d="M117.8,38.387c-0.654,0.192 -1.276,0.289 -1.862,0.289c-0.854,0 -1.527,-0.243 -2.02,-0.727c-0.494,-0.484 -0.74,-1.145 -0.74,-1.983c0,-0.792 0.225,-1.428 0.677,-1.911c0.451,-0.483 1.048,-0.724 1.79,-0.724c0.748,0 1.294,0.236 1.639,0.707c0.345,0.472 0.516,1.219 0.516,2.239l-3.17,0c0.093,0.976 0.628,1.463 1.606,1.463c0.463,0 0.984,-0.107 1.564,-0.321l0,0.968Zm-3.189,-2.887l1.835,0c0,-0.872 -0.282,-1.307 -0.843,-1.307c-0.571,0 -0.902,0.435 -0.992,1.307Z" style="fill:#f8f8f8;fill-rule:nonzero;"/>
    <path d="M63.89,20.137c-0.268,-0.217 -0.537,-0.38 -0.804,-0.483c-0.269,-0.106 -0.529,-0.158 -0.781,-0.158c-0.318,0 -0.578,0.075 -0.779,0.227c-0.201,0.15 -0.302,0.347 -0.302,0.591c0,0.168 0.05,0.305 0.15,0.414c0.101,0.11 0.233,0.204 0.397,0.284c0.164,0.08 0.348,0.149 0.553,0.208c0.206,0.059 0.409,0.121 0.611,0.188c0.805,0.269 1.393,0.627 1.768,1.076c0.372,0.449 0.559,1.033 0.559,1.754c0,0.488 -0.083,0.927 -0.245,1.321c-0.164,0.395 -0.404,0.733 -0.718,1.013c-0.314,0.281 -0.699,0.499 -1.157,0.655c-0.457,0.154 -0.975,0.232 -1.554,0.232c-1.198,0 -2.31,-0.356 -3.333,-1.069l1.056,-1.988c0.369,0.328 0.734,0.57 1.095,0.73c0.361,0.16 0.716,0.238 1.069,0.238c0.403,0 0.702,-0.092 0.899,-0.276c0.197,-0.185 0.296,-0.394 0.296,-0.63c0,-0.142 -0.025,-0.265 -0.075,-0.37c-0.05,-0.105 -0.134,-0.201 -0.251,-0.289c-0.119,-0.089 -0.271,-0.17 -0.46,-0.246c-0.189,-0.075 -0.417,-0.159 -0.686,-0.251c-0.318,-0.101 -0.631,-0.211 -0.937,-0.334c-0.305,-0.121 -0.578,-0.282 -0.817,-0.483c-0.24,-0.203 -0.433,-0.456 -0.579,-0.762c-0.147,-0.307 -0.22,-0.694 -0.22,-1.163c0,-0.47 0.077,-0.896 0.233,-1.277c0.155,-0.383 0.373,-0.709 0.654,-0.982c0.281,-0.272 0.625,-0.483 1.031,-0.635c0.407,-0.151 0.862,-0.227 1.365,-0.227c0.47,0 0.96,0.066 1.472,0.196c0.511,0.129 1.002,0.32 1.472,0.571l-0.982,1.925Z" style="fill:#f8f8f8;fill-rule:nonzero;"/>
    <path d="M69.275,17.71l0,7.396l2.956,0l0,2.089l-5.421,0l0,-9.485l2.465,0Z" style="fill:#f8f8f8;fill-rule:nonzero;"/>
    <path d="M79.049,23.672l-1.107,-3.157l-1.107,3.157l2.214,0Zm0.655,1.875l-3.523,0l-0.566,1.648l-2.629,0l3.611,-9.485l2.691,0l3.611,9.485l-2.629,0l-0.566,-1.648Z" style="fill:#f8f8f8;fill-rule:nonzero;"/>
    <path d="M86.446,22.062l0.818,0c0.906,0 1.358,-0.393 1.358,-1.182c0,-0.788 -0.452,-1.182 -1.358,-1.182l-0.818,0l0,2.364Zm0,5.133l-2.465,0l0,-9.485l3.925,0c1.064,0 1.881,0.276 2.447,0.83c0.566,0.553 0.848,1.333 0.848,2.34c0,1.006 -0.282,1.786 -0.848,2.339c-0.566,0.554 -1.383,0.831 -2.447,0.831l-1.46,0l0,3.145Z" style="fill:#f8f8f8;fill-rule:nonzero;"/>
    <path d="M50.11,43.306c-5.706,0 -11.412,1.934 -16.027,5.805c-9.229,7.745 -11.587,21.128 -5.564,31.564c0.391,0.722 1.468,0.101 1.039,-0.6c-5.733,-9.934 -3.488,-22.672 5.297,-30.045c8.785,-7.369 21.725,-7.369 30.51,0c8.785,7.373 11.03,20.111 5.296,30.045c-0.429,0.701 0.648,1.322 1.039,0.6c6.023,-10.436 3.666,-23.819 -5.564,-31.564c-4.615,-3.871 -10.32,-5.805 -16.025,-5.805l-0.001,0Zm-18.883,41.52c-2.371,0 -4.307,1.936 -4.307,4.307c0,2.371 1.936,4.304 4.307,4.304c2.371,0 4.307,-1.933 4.307,-4.304c0,-2.371 -1.936,-4.307 -4.307,-4.307Zm37.766,0c-2.371,0 -4.305,1.934 -4.305,4.305c0,2.371 1.934,4.306 4.305,4.306c2.371,0 4.307,-1.935 4.307,-4.306c0,-2.371 -1.936,-4.305 -4.307,-4.305Zm-37.766,1.199c1.722,0 3.105,1.385 3.105,3.108c0,1.722 -1.382,3.105 -3.105,3.105c-1.722,0 -3.105,-1.383 -3.105,-3.105c0,-1.723 1.383,-3.108 3.105,-3.108Z" style="fill:#f8f8f8;fill-rule:nonzero;"/>
    <path d="M112.959,43.709c-0.332,0.006 -0.596,0.28 -0.59,0.612l0,1.408c-2.52,0.13 -5.006,1.042 -7.047,2.756c-4.419,3.707 -5.55,10.112 -2.668,15.105l0.301,0.519l10.035,-5.793l10.035,5.793l0.301,-0.519c2.882,-4.993 1.752,-11.398 -2.668,-15.105c-2.052,-1.723 -4.555,-2.636 -7.09,-2.758l0,-1.41c0,-0.338 -0.271,-0.613 -0.609,-0.608l0,0Zm-0.586,3.219l0.019,10.35l-8.902,5.141c-2.21,-4.402 -1.21,-9.814 2.605,-13.014c1.819,-1.528 4.031,-2.348 6.277,-2.477l0.001,0Zm1.199,0c2.26,0.121 4.488,0.941 6.317,2.477c3.815,3.2 4.813,8.611 2.603,13.014l-8.902,-5.141l-0.018,-10.35Zm7.932,17.562l0.01,1.582l-1.605,0.008c-0.831,-0.028 -0.825,1.236 0.01,1.199l1.605,-0.008l0.01,1.629c-0.026,0.831 1.237,0.823 1.2,-0.008l-0.01,-1.625l1.603,-0.008c0.801,-0.004 0.795,-1.205 -0.01,-1.201l-1.605,0.008l-0.01,-1.584c0,-0.771 -1.198,-0.755 -1.198,0.008Zm-15.172,1.446l-4.414,0.019c-0.801,0.004 -0.795,1.205 0.01,1.201l4.414,-0.021c0.831,0.028 0.825,-1.236 -0.01,-1.199Z" style="fill:#f8f8f8;fill-rule:nonzero;"/>
    <path d="M57.175,94.197c-0.42,0 -0.824,0.08 -1.209,0.236c-0.384,0.156 -0.72,0.378 -1.012,0.659c-0.292,0.28 -0.525,0.612 -0.697,1c-0.172,0.388 -0.26,0.812 -0.26,1.277c0,0.464 0.088,0.891 0.264,1.283c0.176,0.392 0.409,0.732 0.701,1.016c0.292,0.285 0.628,0.51 1.008,0.666c0.381,0.156 0.781,0.234 1.197,0.234c0.204,0 0.407,-0.019 0.615,-0.059c0.208,-0.04 0.432,-0.105 0.672,-0.189l0.162,-0.055l0,-1.857c-0.401,0.428 -0.853,0.64 -1.353,0.64c-0.228,0 -0.445,-0.044 -0.641,-0.128c-0.196,-0.084 -0.366,-0.204 -0.515,-0.352c-0.148,-0.148 -0.262,-0.323 -0.346,-0.527c-0.084,-0.204 -0.123,-0.424 -0.123,-0.664c0,-0.237 0.039,-0.455 0.123,-0.659c0.084,-0.204 0.196,-0.375 0.34,-0.523c0.145,-0.148 0.317,-0.264 0.517,-0.348c0.2,-0.084 0.417,-0.129 0.653,-0.129c0.532,0 0.98,0.22 1.345,0.664l0,-1.873c-0.257,-0.108 -0.502,-0.184 -0.734,-0.236c-0.232,-0.052 -0.467,-0.076 -0.707,-0.076l0,0Zm-21.801,0.17l-2.297,6.033l1.672,0l0.361,-1.049l2.241,0l0.359,1.049l1.674,0l-2.297,-6.033l-1.713,0Zm3.865,0l0,1.328l1.289,0l0,4.705l1.569,0l0,-4.705l1.287,0l0,-1.328l-4.145,0Zm4.274,0l0,1.328l1.289,0l0,4.705l1.568,0l0,-4.705l1.289,0l0,-1.328l-4.146,0Zm6.283,0l-2.297,6.033l1.672,0l0.361,-1.049l2.24,0l0.36,1.049l1.673,0l-2.296,-6.033l-1.713,0Zm10.068,0l0,6.033l1.568,0l0,-2.615l2.041,2.615l2.031,0l-2.617,-3.178l2.395,-2.855l-1.938,0l-1.912,2.488l0,-2.488l-1.568,0Zm-23.635,1.783l0.705,2.01l-1.408,0l0.703,-2.01Zm14.422,0l0.705,2.01l-1.408,0l0.703,-2.01Z" style="fill:#f8f8f8;fill-rule:nonzero;"/>
    <path d="M50.11,102.57c-5.706,0 -11.412,1.934 -16.027,5.805c-9.229,7.745 -11.587,21.128 -5.564,31.564c0.391,0.722 1.468,0.101 1.039,-0.6c-5.733,-9.934 -3.488,-22.672 5.297,-30.045c8.785,-7.369 21.725,-7.369 30.51,0c8.785,7.373 11.03,20.111 5.296,30.045c-0.429,0.701 0.648,1.322 1.039,0.6c6.023,-10.436 3.666,-23.819 -5.564,-31.564c-4.615,-3.871 -10.32,-5.805 -16.025,-5.805l-0.001,0Zm-18.883,41.52c-2.371,0 -4.307,1.936 -4.307,4.307c0,2.371 1.936,4.304 4.307,4.304c2.371,0 4.307,-1.933 4.307,-4.304c0,-2.371 -1.936,-4.307 -4.307,-4.307Zm37.766,0c-2.371,0 -4.305,1.934 -4.305,4.305c0,2.371 1.934,4.306 4.305,4.306c2.371,0 4.307,-1.935 4.307,-4.306c0,-2.371 -1.936,-4.305 -4.307,-4.305Zm-37.766,1.199c1.722,0 3.105,1.385 3.105,3.108c0,1.722 -1.382,3.105 -3.105,3.105c-1.722,0 -3.105,-1.383 -3.105,-3.105c0,-1.723 1.383,-3.108 3.105,-3.108Z" style="fill:#f8f8f8;fill-rule:nonzero;"/>
    <path d="M112.925,102.75c-0.331,0.006 -0.596,0.279 -0.589,0.611l0,1.408c-2.521,0.13 -5.007,1.042 -7.047,2.756c-4.419,3.707 -5.55,10.112 -2.668,15.105l0.301,0.52l10.035,-5.793l10.035,5.793l0.3,-0.52c2.882,-4.993 1.753,-11.398 -2.668,-15.105c-2.051,-1.723 -4.555,-2.636 -7.089,-2.758l0,-1.41c0,-0.338 -0.272,-0.613 -0.61,-0.607l0,0Zm-0.585,3.218l0.019,10.35l-8.903,5.141c-2.209,-4.402 -1.209,-9.813 2.606,-13.014c1.818,-1.527 4.031,-2.348 6.277,-2.477l0.001,0Zm1.199,0c2.259,0.122 4.487,0.941 6.316,2.477c3.816,3.2 4.813,8.611 2.604,13.014l-8.903,-5.141l-0.017,-10.35Zm7.932,17.562l0.01,1.582l-1.606,0.008c-0.83,-0.027 -0.824,1.236 0.01,1.2l1.606,-0.008l0.01,1.629c-0.026,0.83 1.236,0.822 1.199,-0.008l-0.01,-1.625l1.604,-0.008c0.8,-0.004 0.794,-1.206 -0.01,-1.202l-1.606,0.008l-0.01,-1.584c0,-0.77 -1.197,-0.755 -1.197,0.008Zm-15.172,1.446l-4.414,0.019c-0.801,0.004 -0.795,1.205 0.01,1.201l4.414,-0.021c0.831,0.028 0.825,-1.235 -0.01,-1.199Z" style="fill:#f8f8f8;fill-rule:nonzero;"/>
    <path d="M49.412,153.46c-0.42,0 -0.824,0.08 -1.209,0.236c-0.384,0.156 -0.72,0.376 -1.012,0.657c-0.292,0.28 -0.525,0.612 -0.697,1c-0.172,0.388 -0.26,0.812 -0.26,1.277c0,0.464 0.088,0.891 0.264,1.283c0.176,0.392 0.409,0.734 0.701,1.018c0.292,0.285 0.628,0.508 1.008,0.664c0.381,0.156 0.781,0.236 1.197,0.236c0.204,0 0.407,-0.02 0.615,-0.06c0.208,-0.04 0.432,-0.104 0.672,-0.188l0.16,-0.057l0,-1.855c-0.4,0.428 -0.851,0.639 -1.351,0.639c-0.228,0 -0.445,-0.043 -0.641,-0.127c-0.196,-0.084 -0.369,-0.206 -0.517,-0.354c-0.148,-0.148 -0.26,-0.323 -0.344,-0.527c-0.084,-0.204 -0.123,-0.424 -0.123,-0.664c0,-0.237 0.039,-0.452 0.123,-0.656c0.084,-0.204 0.196,-0.378 0.34,-0.526c0.144,-0.148 0.317,-0.264 0.517,-0.348c0.2,-0.084 0.417,-0.126 0.653,-0.126c0.532,0 0.979,0.22 1.343,0.664l0,-1.873c-0.256,-0.108 -0.5,-0.185 -0.732,-0.237c-0.232,-0.052 -0.467,-0.076 -0.707,-0.076l0,0Zm-13.758,0.168l0,6.035l2.32,0c0.416,0 0.803,-0.084 1.164,-0.248c0.36,-0.164 0.678,-0.389 0.946,-0.666c0.268,-0.276 0.479,-0.599 0.631,-0.963c0.152,-0.364 0.228,-0.744 0.228,-1.14c0,-0.401 -0.076,-0.785 -0.232,-1.149c-0.156,-0.364 -0.367,-0.685 -0.635,-0.961c-0.268,-0.276 -0.585,-0.496 -0.945,-0.66c-0.361,-0.164 -0.745,-0.248 -1.157,-0.248l-2.32,0Zm6.291,0l0,6.035l3.432,0l0,-1.33l-1.866,0l0,-1.039l1.762,0l0,-1.328l-1.762,0l0,-1.01l1.866,0l0,-1.328l-3.432,0Zm11.764,0l-2.297,6.035l1.672,0l0.361,-1.049l2.241,0l0.361,1.049l1.672,0l-2.297,-6.035l-1.713,0Zm3.385,0l2.201,3.139l0,2.896l1.57,0l0,-2.896l2.209,-3.139l-1.873,0l-1.113,1.648l-1.121,-1.648l-1.873,0Zm-19.871,1.328l0.359,0c0.268,0 0.509,0.045 0.721,0.129c0.212,0.084 0.391,0.204 0.539,0.352c0.149,0.148 0.262,0.329 0.342,0.537c0.08,0.208 0.119,0.431 0.119,0.672c0,0.244 -0.039,0.471 -0.115,0.675c-0.076,0.204 -0.189,0.386 -0.338,0.534c-0.148,0.148 -0.327,0.267 -0.539,0.351c-0.212,0.084 -0.457,0.127 -0.729,0.127l-0.359,0l0,-3.377Zm17.344,0.457l0.703,2.01l-1.408,0l0.705,-2.01Z" style="fill:#f8f8f8;fill-rule:nonzero;"/>
    <path d="M50.11,161.83c-5.706,0 -11.412,1.934 -16.027,5.805c-9.229,7.745 -11.587,21.128 -5.564,31.564c0.391,0.722 1.468,0.101 1.039,-0.6c-5.733,-9.934 -3.488,-22.672 5.297,-30.045c8.785,-7.369 21.725,-7.369 30.51,0c8.785,7.373 11.03,20.111 5.296,30.045c-0.429,0.701 0.648,1.322 1.039,0.6c6.023,-10.436 3.666,-23.819 -5.564,-31.564c-4.615,-3.871 -10.32,-5.805 -16.025,-5.805l-0.001,0Zm-18.883,41.52c-2.371,0 -4.307,1.936 -4.307,4.307c0,2.371 1.936,4.304 4.307,4.304c2.371,0 4.307,-1.933 4.307,-4.304c0,-2.371 -1.936,-4.307 -4.307,-4.307Zm37.766,0c-2.371,0 -4.305,1.934 -4.305,4.305c0,2.371 1.934,4.306 4.305,4.306c2.371,0 4.307,-1.935 4.307,-4.306c0,-2.371 -1.936,-4.305 -4.307,-4.305Zm-37.766,1.199c1.722,0 3.105,1.385 3.105,3.108c0,1.722 -1.382,3.105 -3.105,3.105c-1.722,0 -3.105,-1.383 -3.105,-3.105c0,-1.723 1.383,-3.108 3.105,-3.108Z" style="fill:#f8f8f8;fill-rule:nonzero;"/>
    <path d="M113.008,161.913c-0.332,0.006 -0.596,0.279 -0.59,0.611l0,1.408c-2.52,0.13 -5.006,1.043 -7.047,2.756c-4.419,3.708 -5.55,10.112 -2.668,15.105l0.301,0.52l10.035,-5.793l10.035,5.793l0.301,-0.52c2.882,-4.993 1.752,-11.398 -2.668,-15.105c-2.052,-1.722 -4.555,-2.636 -7.09,-2.758l0,-1.41c0,-0.338 -0.271,-0.612 -0.609,-0.607l0,0Zm-0.586,3.219l0.019,10.35l-8.902,5.14c-2.21,-4.402 -1.21,-9.813 2.605,-13.014c1.819,-1.527 4.031,-2.348 6.277,-2.476l0.001,0Zm1.199,0c2.26,0.121 4.488,0.94 6.317,2.476c3.815,3.2 4.813,8.611 2.603,13.014l-8.902,-5.14l-0.018,-10.35Zm7.932,17.561l0.01,1.583l-1.605,0.008c-0.831,-0.028 -0.825,1.235 0.01,1.199l1.605,-0.008l0.01,1.629c-0.026,0.83 1.237,0.822 1.2,-0.008l-0.01,-1.625l1.603,-0.008c0.801,-0.004 0.795,-1.206 -0.01,-1.202l-1.605,0.008l-0.01,-1.584c0,-0.77 -1.198,-0.755 -1.198,0.008Zm-15.172,1.446l-4.414,0.019c-0.801,0.004 -0.795,1.206 0.01,1.202l4.414,-0.022c0.831,0.028 0.825,-1.235 -0.01,-1.199Z" style="fill:#f8f8f8;fill-rule:nonzero;"/>
    <path d="M33.718,212.72c-0.32,0 -0.609,0.048 -0.869,0.145c-0.26,0.096 -0.476,0.232 -0.656,0.404c-0.18,0.173 -0.316,0.381 -0.416,0.625c-0.1,0.244 -0.149,0.51 -0.149,0.81c0,0.3 0.049,0.545 0.141,0.741c0.092,0.196 0.215,0.358 0.367,0.486c0.152,0.128 0.324,0.231 0.521,0.307c0.196,0.076 0.392,0.148 0.596,0.212c0.172,0.06 0.318,0.113 0.438,0.161c0.12,0.048 0.215,0.1 0.291,0.156c0.076,0.056 0.128,0.115 0.16,0.183c0.032,0.068 0.049,0.145 0.049,0.237c0,0.148 -0.066,0.282 -0.19,0.398c-0.124,0.116 -0.316,0.176 -0.572,0.176c-0.224,0 -0.452,-0.05 -0.68,-0.15c-0.228,-0.1 -0.461,-0.257 -0.697,-0.465l-0.672,1.265c0.652,0.452 1.357,0.68 2.121,0.68c0.368,0 0.696,-0.048 0.988,-0.148c0.292,-0.1 0.537,-0.236 0.737,-0.416c0.2,-0.18 0.353,-0.393 0.457,-0.645c0.104,-0.252 0.156,-0.532 0.156,-0.84c0,-0.46 -0.119,-0.833 -0.355,-1.117c-0.236,-0.285 -0.613,-0.512 -1.125,-0.684c-0.128,-0.044 -0.257,-0.085 -0.389,-0.121c-0.132,-0.036 -0.248,-0.079 -0.352,-0.131c-0.104,-0.052 -0.188,-0.111 -0.252,-0.179c-0.064,-0.068 -0.097,-0.158 -0.097,-0.266c0,-0.156 0.065,-0.279 0.193,-0.375c0.128,-0.096 0.292,-0.144 0.496,-0.144c0.16,0 0.324,0.031 0.496,0.099c0.172,0.068 0.339,0.169 0.512,0.309l0.625,-1.225c-0.3,-0.16 -0.612,-0.281 -0.937,-0.365c-0.324,-0.084 -0.636,-0.123 -0.936,-0.123l0,0Zm11.693,0c-0.32,0 -0.609,0.049 -0.869,0.145c-0.261,0.096 -0.476,0.232 -0.656,0.404c-0.18,0.173 -0.316,0.381 -0.416,0.625c-0.1,0.244 -0.149,0.51 -0.149,0.81c0,0.3 0.049,0.545 0.141,0.741c0.092,0.196 0.215,0.358 0.367,0.486c0.152,0.128 0.323,0.231 0.519,0.307c0.197,0.076 0.394,0.148 0.598,0.212c0.172,0.06 0.316,0.113 0.436,0.161c0.12,0.048 0.217,0.1 0.293,0.156c0.076,0.056 0.128,0.115 0.16,0.183c0.032,0.068 0.047,0.145 0.047,0.237c0,0.148 -0.064,0.282 -0.188,0.398c-0.124,0.116 -0.316,0.176 -0.572,0.176c-0.224,0 -0.451,-0.05 -0.68,-0.15c-0.228,-0.1 -0.461,-0.257 -0.697,-0.465l-0.672,1.265c0.652,0.452 1.356,0.68 2.121,0.68c0.368,0 0.696,-0.048 0.988,-0.148c0.292,-0.1 0.537,-0.236 0.737,-0.416c0.201,-0.18 0.353,-0.393 0.457,-0.645c0.104,-0.252 0.156,-0.532 0.156,-0.84c0,-0.46 -0.121,-0.833 -0.357,-1.117c-0.236,-0.285 -0.613,-0.512 -1.125,-0.684c-0.128,-0.044 -0.255,-0.085 -0.387,-0.121c-0.132,-0.036 -0.25,-0.079 -0.354,-0.131c-0.104,-0.052 -0.188,-0.111 -0.252,-0.179c-0.064,-0.068 -0.095,-0.158 -0.095,-0.266c0,-0.156 0.065,-0.279 0.193,-0.375c0.128,-0.096 0.292,-0.144 0.496,-0.144c0.16,0 0.324,0.031 0.496,0.099c0.172,0.068 0.34,0.169 0.512,0.309l0.625,-1.225c-0.3,-0.16 -0.613,-0.281 -0.937,-0.365c-0.324,-0.084 -0.636,-0.123 -0.936,-0.123l0,0Zm-8.588,0.168l0,3.498c0,0.94 0.216,1.624 0.649,2.057c0.432,0.432 1.092,0.648 1.984,0.648c0.893,0 1.552,-0.216 1.98,-0.648c0.428,-0.433 0.645,-1.117 0.645,-2.057l0,-3.498l-1.561,0l0,3.281c0,0.176 -0.007,0.357 -0.019,0.541c-0.012,0.184 -0.057,0.352 -0.125,0.5c-0.068,0.148 -0.176,0.271 -0.316,0.363c-0.14,0.092 -0.343,0.141 -0.604,0.141c-0.26,0 -0.465,-0.049 -0.609,-0.141c-0.144,-0.092 -0.247,-0.215 -0.315,-0.363c-0.068,-0.148 -0.109,-0.316 -0.121,-0.5c-0.012,-0.184 -0.019,-0.365 -0.019,-0.541l0,-3.281l-1.569,0Zm11.164,0l0,1.328l1.289,0l0,4.707l1.569,0l0,-4.707l1.289,0l0,-1.328l-4.147,0Zm6.283,0l-2.297,6.035l1.672,0l0.36,-1.049l2.242,0l0.361,1.049l1.672,0l-2.297,-6.035l-1.713,0Zm4.698,0l0,6.035l1.568,0l0,-6.035l-1.568,0Zm2.834,0l0,6.035l1.568,0l0,-3.689l2.897,3.689l1.56,0l0,-6.035l-1.56,0l0,3.689l-2.897,-3.689l-1.568,0Zm-6.676,1.785l0.705,2.01l-1.408,0l0.703,-2.01Z" style="fill:#f8f8f8;fill-rule:nonzero;"/>
    <path d="M50.11,221.09c-5.706,0 -11.412,1.934 -16.027,5.805c-9.229,7.745 -11.587,21.128 -5.564,31.564c0.391,0.722 1.468,0.101 1.039,-0.6c-5.733,-9.934 -3.488,-22.672 5.297,-30.045c8.785,-7.369 21.725,-7.369 30.51,0c8.785,7.373 11.03,20.111 5.296,30.045c-0.429,0.701 0.648,1.322 1.039,0.6c6.023,-10.436 3.666,-23.819 -5.564,-31.564c-4.615,-3.871 -10.32,-5.805 -16.025,-5.805l-0.001,0Zm-18.883,41.52c-2.371,0 -4.307,1.936 -4.307,4.307c0,2.371 1.936,4.304 4.307,4.304c2.371,0 4.307,-1.933 4.307,-4.304c0,-2.371 -1.936,-4.307 -4.307,-4.307Zm37.766,0c-2.371,0 -4.305,1.934 -4.305,4.305c0,2.371 1.934,4.306 4.305,4.306c2.371,0 4.307,-1.935 4.307,-4.306c0,-2.371 -1.936,-4.305 -4.307,-4.305Zm-37.766,1.199c1.722,0 3.105,1.385 3.105,3.108c0,1.722 -1.382,3.105 -3.105,3.105c-1.722,0 -3.105,-1.383 -3.105,-3.105c0,-1.723 1.383,-3.108 3.105,-3.108Z" style="fill:#f8f8f8;fill-rule:nonzero;"/>
    <path d="M112.962,221.973c-0.332,0.006 -0.596,0.279 -0.59,0.611l0,1.408c-2.521,0.13 -5.006,1.043 -7.047,2.756c-4.419,3.708 -5.55,10.112 -2.668,15.105l0.301,0.52l10.035,-5.793l10.035,5.793l0.301,-0.52c2.882,-4.993 1.752,-11.398 -2.668,-15.105c-2.052,-1.722 -4.555,-2.636 -7.09,-2.757l0,-1.411c0,-0.338 -0.272,-0.612 -0.61,-0.607l0.001,0Zm-0.586,3.219l0.019,10.35l-8.903,5.14c-2.209,-4.402 -1.209,-9.813 2.606,-13.014c1.819,-1.527 4.031,-2.348 6.277,-2.476l0.001,0Zm1.199,0c2.259,0.121 4.487,0.94 6.316,2.476c3.816,3.201 4.814,8.612 2.604,13.014l-8.902,-5.14l-0.018,-10.35Zm7.932,17.562l0.01,1.582l-1.605,0.008c-0.831,-0.028 -0.825,1.235 0.01,1.199l1.605,-0.008l0.01,1.629c-0.026,0.831 1.237,0.822 1.199,-0.008l-0.01,-1.625l1.604,-0.008c0.801,-0.004 0.795,-1.205 -0.01,-1.201l-1.606,0.008l-0.01,-1.584c0,-0.771 -1.197,-0.756 -1.197,0.008Zm-15.172,1.445l-4.414,0.02c-0.801,0.004 -0.795,1.205 0.01,1.201l4.414,-0.022c0.831,0.028 0.825,-1.235 -0.01,-1.199Z" style="fill:#f8f8f8;fill-rule:nonzero;"/>
    <path d="M60.193,271.98c-0.321,0 -0.609,0.048 -0.869,0.145c-0.26,0.096 -0.476,0.232 -0.656,0.404c-0.18,0.173 -0.316,0.381 -0.416,0.625c-0.1,0.244 -0.147,0.51 -0.147,0.81c0,0.3 0.047,0.545 0.139,0.741c0.092,0.196 0.217,0.358 0.369,0.486c0.152,0.128 0.323,0.231 0.519,0.307c0.196,0.076 0.392,0.148 0.596,0.212c0.172,0.06 0.318,0.113 0.438,0.161c0.12,0.048 0.215,0.1 0.291,0.156c0.076,0.056 0.128,0.115 0.16,0.183c0.032,0.068 0.049,0.145 0.049,0.237c0,0.148 -0.066,0.282 -0.19,0.398c-0.124,0.116 -0.315,0.176 -0.572,0.176c-0.224,0 -0.452,-0.05 -0.68,-0.15c-0.228,-0.1 -0.459,-0.257 -0.695,-0.465l-0.672,1.265c0.652,0.452 1.355,0.68 2.119,0.68c0.369,0 0.696,-0.048 0.988,-0.148c0.292,-0.1 0.537,-0.236 0.737,-0.416c0.2,-0.18 0.353,-0.393 0.457,-0.645c0.104,-0.252 0.156,-0.532 0.156,-0.84c0,-0.46 -0.121,-0.833 -0.357,-1.117c-0.236,-0.285 -0.611,-0.512 -1.123,-0.684c-0.128,-0.044 -0.257,-0.085 -0.389,-0.121c-0.132,-0.036 -0.248,-0.079 -0.352,-0.131c-0.104,-0.052 -0.189,-0.111 -0.253,-0.179c-0.064,-0.068 -0.096,-0.158 -0.096,-0.266c0,-0.156 0.063,-0.279 0.191,-0.375c0.129,-0.096 0.294,-0.144 0.498,-0.144c0.16,0 0.324,0.031 0.496,0.099c0.172,0.068 0.34,0.169 0.512,0.309l0.625,-1.225c-0.3,-0.16 -0.613,-0.281 -0.937,-0.365c-0.324,-0.084 -0.636,-0.123 -0.936,-0.123l0,0Zm-27.539,0.168l0,6.035l1.568,0l0,-2.32l1.496,2.32l1.954,0l-1.897,-2.473c0.433,-0.1 0.761,-0.296 0.981,-0.58c0.22,-0.285 0.332,-0.657 0.332,-1.117c0,-0.256 -0.041,-0.497 -0.125,-0.721c-0.084,-0.224 -0.204,-0.419 -0.368,-0.591c-0.164,-0.173 -0.369,-0.305 -0.621,-0.405c-0.253,-0.1 -0.545,-0.148 -0.881,-0.148l-2.439,0Zm5.674,0l0,6.035l3.433,0l0,-1.33l-1.865,0l0,-1.039l1.762,0l0,-1.328l-1.762,0l0,-1.01l1.865,0l0,-1.328l-3.433,0Zm4.56,0l0,6.035l3.451,0l0,-1.33l-1.88,0l0,-4.705l-1.571,0Zm4.26,0l0,6.035l3.434,0l0,-1.33l-1.866,0l0,-1.039l1.76,0l0,-1.328l-1.76,0l0,-1.01l1.866,0l0,-1.328l-3.434,0Zm6.281,0l-2.297,6.035l1.674,0l0.36,-1.049l2.242,0l0.359,1.049l1.672,0l-2.297,-6.035l-1.713,0Zm9.869,0l0,6.035l3.434,0l0,-1.33l-1.865,0l0,-1.039l1.76,0l0,-1.328l-1.76,0l0,-1.01l1.865,0l0,-1.328l-3.434,0Zm-29.076,1.209l0.295,0c0.308,0 0.549,0.063 0.713,0.191c0.164,0.128 0.248,0.313 0.248,0.553c0,0.24 -0.084,0.425 -0.248,0.553c-0.164,0.128 -0.405,0.191 -0.713,0.191l-0.295,0l0,-1.488Zm20.064,0.576l0.704,2.01l-1.409,0l0.705,-2.01Z" style="fill:#f8f8f8;fill-rule:nonzero;"/>
    <path d="M33.95,285.47c-0.344,0 -0.65,0.058 -0.918,0.176c-0.268,0.118 -0.475,0.282 -0.623,0.492c-0.148,0.21 -0.223,0.445 -0.223,0.705c0,0.228 0.045,0.422 0.135,0.582c0.09,0.16 0.249,0.3 0.473,0.418c0.224,0.118 0.537,0.217 0.941,0.297c0.32,0.068 0.538,0.137 0.654,0.207c0.116,0.07 0.174,0.158 0.174,0.266c0,0.12 -0.065,0.213 -0.193,0.279c-0.128,0.066 -0.311,0.099 -0.551,0.099c-0.236,0 -0.471,-0.035 -0.705,-0.105c-0.234,-0.07 -0.456,-0.171 -0.664,-0.303l-0.354,0.799c0.196,0.144 0.45,0.258 0.762,0.342c0.312,0.084 0.629,0.125 0.949,0.125c0.588,0 1.044,-0.12 1.368,-0.358c0.324,-0.238 0.486,-0.564 0.486,-0.98c0,-0.22 -0.047,-0.408 -0.139,-0.566c-0.092,-0.158 -0.248,-0.296 -0.47,-0.414c-0.222,-0.118 -0.526,-0.219 -0.914,-0.303c-0.24,-0.052 -0.422,-0.103 -0.542,-0.149c-0.12,-0.046 -0.202,-0.092 -0.246,-0.14c-0.044,-0.048 -0.066,-0.108 -0.066,-0.18c0,-0.132 0.063,-0.236 0.187,-0.314c0.124,-0.078 0.289,-0.118 0.493,-0.118c0.208,0 0.415,0.036 0.623,0.106c0.208,0.07 0.405,0.171 0.593,0.303l0.348,-0.799c-0.164,-0.14 -0.39,-0.252 -0.68,-0.338c-0.29,-0.086 -0.59,-0.129 -0.898,-0.129l0,0Zm4.375,0c-0.436,0 -0.815,0.088 -1.137,0.266c-0.322,0.178 -0.572,0.431 -0.748,0.759c-0.176,0.328 -0.263,0.715 -0.263,1.159c0,0.444 0.087,0.832 0.261,1.164c0.174,0.332 0.422,0.585 0.746,0.763c0.324,0.178 0.705,0.268 1.141,0.268c0.436,0 0.815,-0.09 1.137,-0.268c0.322,-0.178 0.568,-0.431 0.74,-0.763c0.172,-0.332 0.26,-0.72 0.26,-1.164c0,-0.444 -0.088,-0.831 -0.26,-1.159c-0.172,-0.328 -0.418,-0.581 -0.74,-0.759c-0.322,-0.178 -0.701,-0.266 -1.137,-0.266l0,0Zm2.795,0.053l0,4.273l1.111,0l0,-1.734l1.752,0l0,-0.877l-1.752,0l0,-0.78l1.871,0l0,-0.882l-2.982,0Zm3.35,0l0,0.912l1.271,0l0,3.361l1.141,0l0,-3.361l1.271,0l0,-0.912l-3.683,0Zm-6.145,0.804c0.32,0 0.57,0.114 0.752,0.34c0.182,0.226 0.273,0.555 0.273,0.987c0,0.436 -0.091,0.768 -0.273,0.996c-0.182,0.228 -0.432,0.341 -0.752,0.341c-0.32,0 -0.57,-0.113 -0.75,-0.339c-0.18,-0.226 -0.27,-0.558 -0.27,-0.998c0,-0.436 0.09,-0.767 0.27,-0.991c0.18,-0.224 0.43,-0.336 0.75,-0.336Zm-6.066,10.195l0,4.274l1.103,0l0,-1.729l1.729,0l0,1.729l1.103,0l0,-4.274l-1.103,0l0,1.662l-1.729,0l0,-1.662l-1.103,0Zm6.179,0l-1.998,4.274l1.129,0l0.377,-0.883l1.897,0l0.379,0.883l1.109,0l-2.004,-4.274l-0.889,0Zm3.139,0l0,4.274l1.109,0l0,-1.662l0.409,0c0.236,0 0.387,0.078 0.451,0.238l0.551,1.424l1.195,0l-0.506,-1.274c-0.056,-0.148 -0.131,-0.265 -0.227,-0.353c-0.096,-0.088 -0.204,-0.144 -0.324,-0.168c0.28,-0.088 0.497,-0.237 0.651,-0.447c0.154,-0.21 0.23,-0.458 0.23,-0.746c0,-0.412 -0.129,-0.73 -0.389,-0.952c-0.26,-0.222 -0.648,-0.334 -1.164,-0.334l-1.986,0Zm4.283,0l0,4.274l1.746,0c0.476,0 0.887,-0.086 1.229,-0.256c0.342,-0.17 0.601,-0.416 0.781,-0.738c0.18,-0.322 0.272,-0.705 0.272,-1.149c0,-0.44 -0.092,-0.82 -0.274,-1.14c-0.182,-0.32 -0.445,-0.565 -0.787,-0.735c-0.342,-0.17 -0.749,-0.256 -1.221,-0.256l-1.746,0Zm-3.185,0.854l0.709,0c0.244,0 0.417,0.035 0.523,0.107c0.106,0.072 0.16,0.19 0.16,0.354c0,0.156 -0.054,0.272 -0.162,0.346c-0.108,0.074 -0.281,0.111 -0.521,0.111l-0.709,0l0,-0.918Zm4.314,0.047l0.539,0c0.828,0 1.242,0.41 1.242,1.23c0,0.416 -0.102,0.728 -0.308,0.934c-0.206,0.206 -0.518,0.308 -0.934,0.308l-0.539,0l0,-2.472Zm-8.094,0.295l0.582,1.349l-1.164,0l0.582,-1.349Zm-4.517,10.752c-0.448,0 -0.842,0.087 -1.178,0.265c-0.336,0.178 -0.595,0.432 -0.779,0.762c-0.184,0.33 -0.276,0.716 -0.276,1.156c0,0.452 0.092,0.842 0.276,1.172c0.184,0.33 0.447,0.584 0.789,0.76c0.342,0.176 0.745,0.264 1.209,0.264c0.296,0 0.585,-0.028 0.867,-0.084c0.282,-0.056 0.538,-0.137 0.766,-0.241l0,-2.14l-1.758,0l0,0.761l0.742,0l0,0.791c-0.188,0.04 -0.374,0.061 -0.562,0.061c-0.404,0 -0.705,-0.11 -0.899,-0.33c-0.194,-0.22 -0.291,-0.558 -0.291,-1.014c0,-0.44 0.093,-0.766 0.279,-0.98c0.186,-0.214 0.47,-0.323 0.85,-0.323c0.208,0 0.402,0.03 0.584,0.088c0.182,0.058 0.372,0.152 0.568,0.28l0.354,-0.799c-0.172,-0.14 -0.394,-0.25 -0.668,-0.33c-0.274,-0.08 -0.565,-0.119 -0.873,-0.119l0,0Zm2.386,0.052l0,4.274l3.049,0l0,-0.865l-1.951,0l0,-0.875l1.824,0l0,-0.866l-1.824,0l0,-0.802l1.951,0l0,-0.866l-3.049,0Zm3.625,0l0,4.274l1.049,0l0,-2.426l1.94,2.426l0.834,0l0,-4.274l-1.063,0l0,2.413l-1.937,-2.413l-0.823,0Zm4.284,0l0,0.913l1.271,0l0,3.361l1.141,0l0,-3.361l1.271,0l0,-0.913l-3.683,0Zm4.14,0l0,4.274l2.934,0l0,-0.912l-1.807,0l0,-3.362l-1.127,0Zm3.473,0l0,4.274l3.049,0l0,-0.865l-1.949,0l0,-0.875l1.824,0l0,-0.866l-1.824,0l0,-0.802l1.949,0l0,-0.866l-3.049,0Z" style="fill:#f8f8f8;fill-rule:nonzero;"/>
    <path d="M49.616,348.1c-0.492,0 -0.942,0.08 -1.35,0.244c-0.408,0.16 -0.76,0.389 -1.052,0.678c-0.292,0.288 -0.524,0.624 -0.688,1.008c-0.164,0.388 -0.248,0.805 -0.248,1.254c0,0.448 0.084,0.868 0.248,1.252c0.164,0.388 0.396,0.723 0.688,1.011c0.292,0.289 0.644,0.512 1.052,0.676c0.408,0.164 0.858,0.244 1.35,0.244c0.485,0 0.932,-0.08 1.34,-0.244c0.412,-0.164 0.764,-0.387 1.06,-0.676c0.296,-0.288 0.53,-0.623 0.694,-1.011c0.168,-0.384 0.248,-0.804 0.248,-1.252c0,-0.449 -0.08,-0.866 -0.248,-1.254c-0.164,-0.384 -0.398,-0.72 -0.694,-1.008c-0.296,-0.289 -0.648,-0.518 -1.06,-0.678c-0.408,-0.164 -0.855,-0.244 -1.34,-0.244Zm4.334,0.168l0,3.494c0,0.94 0.215,1.626 0.647,2.059c0.433,0.432 1.094,0.646 1.986,0.646c0.889,0 1.548,-0.214 1.98,-0.646c0.428,-0.433 0.645,-1.119 0.645,-2.059l0,-3.494l-1.561,0l0,3.279c0,0.176 -0.008,0.355 -0.019,0.539c-0.016,0.184 -0.057,0.352 -0.125,0.5c-0.072,0.148 -0.176,0.274 -0.317,0.366c-0.14,0.092 -0.343,0.138 -0.603,0.138c-0.26,0 -0.466,-0.046 -0.61,-0.138c-0.144,-0.092 -0.246,-0.218 -0.314,-0.366c-0.068,-0.148 -0.109,-0.316 -0.121,-0.5c-0.012,-0.184 -0.02,-0.363 -0.02,-0.539l0,-3.279l-1.568,0Zm5.955,0l0,1.326l1.283,0l0,4.705l1.569,0l0,-4.705l1.289,0l0,-1.326l-4.141,0Zm-10.289,1.35c0.228,0 0.444,0.045 0.652,0.125c0.204,0.084 0.384,0.199 0.54,0.347c0.16,0.152 0.285,0.328 0.373,0.528c0.092,0.204 0.136,0.425 0.136,0.666c0,0.24 -0.044,0.464 -0.136,0.664c-0.088,0.204 -0.213,0.379 -0.373,0.527c-0.156,0.152 -0.336,0.264 -0.54,0.348c-0.208,0.084 -0.424,0.125 -0.652,0.125c-0.232,0 -0.448,-0.041 -0.652,-0.125c-0.208,-0.084 -0.389,-0.196 -0.541,-0.348c-0.156,-0.148 -0.279,-0.323 -0.367,-0.527c-0.092,-0.2 -0.137,-0.424 -0.137,-0.664c0,-0.241 0.045,-0.462 0.137,-0.666c0.088,-0.2 0.211,-0.376 0.367,-0.528c0.152,-0.148 0.333,-0.263 0.541,-0.347c0.204,-0.08 0.42,-0.125 0.652,-0.125Z" style="fill:#f8f8f8;fill-rule:nonzero;"/>
    <path d="M12.753,347.928c-0.484,0 -0.924,0.077 -1.32,0.233c-0.396,0.156 -0.734,0.371 -1.014,0.648c-0.28,0.276 -0.494,0.614 -0.646,1.006c-0.153,0.392 -0.231,0.824 -0.231,1.293c0,0.476 0.078,0.907 0.235,1.299c0.156,0.392 0.372,0.728 0.648,1.009c0.276,0.28 0.606,0.497 0.994,0.653c0.388,0.156 0.817,0.23 1.285,0.23c0.34,0 0.669,-0.043 0.977,-0.127c0.308,-0.084 0.592,-0.209 0.853,-0.373c0.26,-0.164 0.484,-0.362 0.676,-0.607c0.192,-0.244 0.343,-0.522 0.455,-0.838c0.08,-0.224 0.132,-0.467 0.16,-0.727c0.028,-0.26 0.041,-0.552 0.041,-0.873l-3.113,0l0,1.217l1.287,0c-0.028,0.176 -0.074,0.323 -0.15,0.447c-0.076,0.124 -0.169,0.225 -0.285,0.301c-0.116,0.076 -0.243,0.132 -0.387,0.168c-0.144,0.036 -0.293,0.053 -0.449,0.053c-0.26,0 -0.492,-0.045 -0.688,-0.133c-0.197,-0.088 -0.366,-0.213 -0.498,-0.373c-0.132,-0.16 -0.231,-0.346 -0.299,-0.566c-0.068,-0.22 -0.099,-0.457 -0.099,-0.713c0,-0.285 0.039,-0.542 0.115,-0.77c0.076,-0.228 0.184,-0.424 0.32,-0.588c0.136,-0.164 0.3,-0.287 0.493,-0.375c0.192,-0.088 0.404,-0.133 0.64,-0.133c0.284,0 0.536,0.073 0.756,0.217c0.22,0.144 0.401,0.379 0.541,0.711l1.488,-0.615c-0.276,-0.572 -0.652,-0.993 -1.129,-1.266c-0.476,-0.272 -1.028,-0.408 -1.656,-0.408l0,0Zm5.602,0.168l-2.297,6.035l1.674,0l0.359,-1.049l2.24,0l0.362,1.049l1.671,0l-2.296,-6.035l-1.713,0Zm3.867,0l0,1.33l1.287,0l0,4.705l1.568,0l0,-4.705l1.29,0l0,-1.33l-4.145,0Zm4.842,0l0,6.035l3.431,0l0,-1.328l-1.863,0l0,-1.041l1.76,0l0,-1.328l-1.76,0l0,-1.008l1.863,0l0,-1.33l-3.431,0Zm-7.854,1.785l0.705,2.01l-1.408,0l0.703,-2.01Z" style="fill:#f8f8f8;fill-rule:nonzero;"/>
    <path d="M106.982,281.674l1.134,0l-1.944,4.272l-0.894,0l-1.944,-4.272l1.17,0l1.23,2.868l1.248,-2.868Z" style="fill:#f8f8f8;fill-rule:nonzero;"/>
    <path d="M110.312,286c-0.444,0 -0.831,-0.091 -1.161,-0.273c-0.33,-0.182 -0.584,-0.439 -0.762,-0.771c-0.178,-0.332 -0.267,-0.716 -0.267,-1.152c0,-0.432 0.089,-0.813 0.267,-1.143c0.178,-0.33 0.432,-0.586 0.762,-0.768c0.33,-0.182 0.717,-0.273 1.161,-0.273c0.28,0 0.551,0.042 0.813,0.126c0.262,0.084 0.473,0.198 0.633,0.342l-0.342,0.798c-0.348,-0.252 -0.708,-0.378 -1.08,-0.378c-0.344,0 -0.608,0.109 -0.792,0.327c-0.184,0.218 -0.276,0.541 -0.276,0.969c0,0.432 0.092,0.758 0.276,0.978c0.184,0.22 0.448,0.33 0.792,0.33c0.372,0 0.732,-0.126 1.08,-0.378l0.342,0.798c-0.16,0.144 -0.371,0.258 -0.633,0.342c-0.262,0.084 -0.533,0.126 -0.813,0.126Z" style="fill:#f8f8f8;fill-rule:nonzero;"/>
    <path d="M115.556,285.946l-0.378,-0.882l-1.896,0l-0.378,0.882l-1.128,0l1.998,-4.272l0.888,0l2.004,4.272l-1.11,0Zm-1.908,-1.728l1.164,0l-0.582,-1.35l-0.582,1.35Z" style="fill:#f8f8f8;fill-rule:nonzero;"/>
    <path d="M78.111,296.218l0,-6.657c0,-5.416 4.397,-9.813 9.813,-9.813l45.558,0c5.416,0 9.813,4.397 9.813,9.813l0,6.657" style="fill:none;stroke:#f8f8f8;stroke-width:1px;stroke-linejoin:round;stroke-miterlimit:1.5;"/>
    <path d="M143.295,328.561c0,-5.416 -4.397,-9.813 -9.813,-9.813l-45.558,0c-5.416,0 -9.813,4.397 -9.813,9.813l0,19.626c0,5.416 4.397,9.813 9.813,9.813l45.558,0c5.416,0 9.813,-4.397 9.813,-9.813l0,-19.626Z" style="fill:none;stroke:#f8f8f8;stroke-width:1px;stroke-linejoin:round;stroke-miterlimit:1.5;"/>
    <path d="M72.592,327.294c0,-4.717 -3.83,-8.546 -8.546,-8.546l-17.092,0c-4.716,0 -8.546,3.829 -8.546,8.546l0,22.16c0,4.717 3.83,8.546 8.546,8.546l17.092,0c4.716,0 8.546,-3.829 8.546,-8.546l0,-22.16Z" style="fill:none;stroke:#f8f8f8;stroke-width:1px;stroke-linejoin:round;stroke-miterlimit:1.5;"/>
    <path d="M93.136,353.71l0,-5.696l1.504,0l0,4.48l2.408,0l0,1.216l-3.912,0Z" style="fill:#f8f8f8;fill-rule:nonzero;"/>
    <path d="M128.494,353.71l-1.592,0l-0.736,-1.896c-0.086,-0.213 -0.286,-0.32 -0.6,-0.32l-0.544,0l0,2.216l-1.48,0l0,-5.696l2.648,0c0.688,0 1.205,0.148 1.552,0.444c0.346,0.296 0.52,0.719 0.52,1.268c0,0.384 -0.103,0.716 -0.308,0.996c-0.206,0.28 -0.495,0.479 -0.868,0.596c0.16,0.032 0.304,0.107 0.432,0.224c0.128,0.117 0.229,0.275 0.304,0.472l0.672,1.696Zm-2.544,-3.336c0.32,0 0.552,-0.049 0.696,-0.148c0.144,-0.099 0.216,-0.252 0.216,-0.46c0,-0.219 -0.071,-0.376 -0.212,-0.472c-0.142,-0.096 -0.375,-0.144 -0.7,-0.144l-0.944,0l0,1.224l0.944,0Z" style="fill:#f8f8f8;fill-rule:nonzero;"/>
    <path d="M93.136,315.71l0,-5.696l1.504,0l0,4.48l2.408,0l0,1.216l-3.912,0Z" style="fill:#f8f8f8;fill-rule:nonzero;"/>
    <path d="M128.494,315.71l-1.592,0l-0.736,-1.896c-0.086,-0.213 -0.286,-0.32 -0.6,-0.32l-0.544,0l0,2.216l-1.48,0l0,-5.696l2.648,0c0.688,0 1.205,0.148 1.552,0.444c0.346,0.296 0.52,0.719 0.52,1.268c0,0.384 -0.103,0.716 -0.308,0.996c-0.206,0.28 -0.495,0.479 -0.868,0.596c0.16,0.032 0.304,0.107 0.432,0.224c0.128,0.117 0.229,0.275 0.304,0.472l0.672,1.696Zm-2.544,-3.336c0.32,0 0.552,-0.049 0.696,-0.148c0.144,-0.099 0.216,-0.252 0.216,-0.46c0,-0.219 -0.071,-0.376 -0.212,-0.472c-0.142,-0.096 -0.375,-0.144 -0.7,-0.144l-0.944,0l0,1.224l0.944,0Z" style="fill:#f8f8f8;fill-rule:nonzero;"/>
  </g>
</svg>