<svg width="150px" height="380px" version="1.1" xmlns="http://www.w3.org/2000/svg" xmlns:xlink="http://www.w3.org/1999/xlink" xml:space="preserve" xmlns:serif="http://www.serif.com/" style="fill-rule:evenodd;clip-rule:evenodd;stroke-linecap:round;stroke-miterlimit:10;">
  <defs>
    <linearGradient id="_Linear1" x1="0" y1="0" x2="1" y2="0" gradientUnits="userSpaceOnUse" gradientTransform="matrix(0.007008,-37.8989,37.8989,0.007008,75.2834,112.195)">
      <stop offset="0" style="stop-color:#101010;stop-opacity:1"/>
      <stop offset="1" style="stop-color:#101010;stop-opacity:1"/>
    </linearGradient>
    <linearGradient id="_Linear2" x1="0" y1="0" x2="1" y2="0" gradientUnits="userSpaceOnUse" gradientTransform="matrix(-4.88,-92.58,92.58,-4.88,277.54,345.91)">
      <stop offset="0" style="stop-color:#101010;stop-opacity:1"/>
      <stop offset="1" style="stop-color:#101010;stop-opacity:1"/>
    </linearGradient>
    <linearGradient id="_Linear3" x1="0" y1="0" x2="1" y2="0" gradientUnits="userSpaceOnUse" gradientTransform="matrix(-4.75,94.86,-94.86,-4.75,277.54,158.47)">
      <stop offset="0" style="stop-color:#101010;stop-opacity:1"/>
      <stop offset="1" style="stop-color:#101010;stop-opacity:1"/>
    </linearGradient>
    <linearGradient id="_Linear4" x1="0" y1="0" x2="1" y2="0" gradientUnits="userSpaceOnUse" gradientTransform="matrix(1.15392e-16,-1.8845,1.8845,1.15392e-16,56.519,1.9362)">
      <stop offset="0" style="stop-color:#101010;stop-opacity:1"/>
      <stop offset="1" style="stop-color:#101010;stop-opacity:1"/>
    </linearGradient>
  </defs>
  <g id="Panel">
    <g>
      <rect x="0" y="0" width="150" height="380" style="fill:url(#_Linear1);"/>
      <rect x="0" y="253.33" width="150" height="126.67" style="fill:url(#_Linear2);"/>
      <rect x="0" y="126.67" width="150" height="126.67" style="fill:url(#_Linear3);"/>
      <rect x="0" y="0" width="150" height="380" style="fill:#103550;fill-opacity:0.1;"/>
      <rect x="0" y="0" width="150" height="2" style="fill:url(#_Linear4);"/>
    </g>
    <g>
      <path d="M62.9,363.496l3.443,10.383c0.322,0.968 0.909,1.451 1.756,1.451c0.835,0 1.414,-0.476 1.737,-1.435l3.46,-10.398l-2.66,0l-2.574,8.318l-2.49,-8.318l-2.672,-0.001Zm10.598,0l0,8.793c0,0.736 0.078,1.265 0.234,1.588c0.423,0.881 1.214,1.32 2.373,1.32l3.243,0c1.126,0 1.912,-0.429 2.357,-1.287c0.168,-0.324 0.25,-0.87 0.25,-1.639l0,-8.775l-2.506,0l0,8.658l-0.018,0.084c-0.056,0.29 -0.34,0.436 -0.853,0.436l-1.705,0c-0.535,0 -0.826,-0.157 -0.87,-0.469l0,-8.709l-2.505,0Zm9.611,0l0,8.842c0,0.914 0.19,1.598 0.569,2.049c0.378,0.452 1.019,0.717 1.922,0.795c0.123,0.011 0.268,0.015 0.435,0.015l4.664,0l0.016,-2.523l-4.463,0c-0.424,0 -0.634,-0.178 -0.634,-0.535l0,-8.643l-2.509,0Zm7.69,0l0,2.525l2.49,0l0,9.176l2.508,0l0,-9.176l2.523,0l0,-2.525l-7.521,0Z" style="fill:#666;fill-rule:nonzero;"/>
      <path d="M59.3,369.416c0,-4.509 -3.655,-8.165 -8.164,-8.165c-4.509,0 -8.165,3.656 -8.165,8.165c0,4.509 3.656,8.165 8.165,8.165c4.509,0 8.164,-3.656 8.164,-8.165Z" style="fill:#757575;fill-rule:nonzero;stroke:#353535;stroke-width:0.61px;"/>
      <g>
        <path d="M49.32,374.389l0.553,-0.89l-1.064,-2.393l-2.216,-2.284l0.46,3.101l0.597,1.28l0.833,1.263l0.837,-0.077Z" style="fill:#2b2b2b;fill-rule:nonzero;"/>
        <path d="M53.05,374.399l-0.553,-0.891l1.064,-2.393l2.216,-2.284l-0.46,3.101l-0.597,1.28l-0.833,1.264l-0.837,-0.077Z" style="fill:#101010;fill-rule:nonzero;"/>
        <path d="M48.64,363.359l2.584,-0.661l0,13.448l-1.349,-2.651l-1.061,-2.385l-1.022,-0.581l-2.052,-2.921l-0.057,-0.775l1.148,-2.067l1.809,-1.407Z" style="fill:#424242;fill-rule:nonzero;"/>
        <path d="M53.8,363.359l-2.584,-0.66l0,13.448l1.35,-2.651l1.06,-2.385l1.023,-0.581l2.051,-2.921l0.058,-0.775l-1.149,-2.068l-1.809,-1.407Z" style="fill:#333;fill-rule:nonzero;"/>
        <path d="M49.5,369.239l1.723,-1.685l0,1.23l-1.723,1.718l0,-1.263" style="fill:#4c4c4c;fill-rule:nonzero;"/>
        <path d="M51.22,368.779l-1.723,1.718l0.377,3.004l1.346,2.643l0,-7.365Z" style="fill:#5b5b5b;fill-rule:nonzero;"/>
        <path d="M51.22,376.149l-1.346,-2.643l1.346,-0.635l0,3.278Z" style="fill:#333;fill-rule:nonzero;"/>
        <path d="M49.5,370.499l0,-1.264l-1.249,-1.579l-1.477,-1.19l-0.001,0.932l0.775,1.823l1.952,1.278Z" style="fill:#f8f8f8;fill-rule:nonzero;"/>
        <path d="M52.94,369.239l-1.722,-1.684l0,1.23l1.722,1.718l0,-1.264" style="fill:#2d2d2d;fill-rule:nonzero;"/>
        <path d="M51.22,368.779l1.722,1.718l-0.376,3.004l-1.347,2.643l0.001,-7.365Z" style="fill:#353535;fill-rule:nonzero;"/>
        <path d="M51.22,376.149l1.347,-2.643l-1.346,-0.635l-0.001,3.278Z" style="fill:#101010;fill-rule:nonzero;"/>
        <path d="M52.94,370.499l0,-1.264l1.249,-1.579l1.478,-1.19l0.001,0.932l-0.775,1.823l-1.953,1.278Z" style="fill:#f8f8f8;fill-rule:nonzero;"/>
        <path d="M48.65,363.339l2.566,4.216l-0.005,-4.87" style="fill:#383838;fill-rule:nonzero;"/>
        <path d="M53.78,363.339l-2.566,4.215l0.006,-4.87" style="fill:#2d2d2d;fill-rule:nonzero;"/>
        <path d="M48.81,371.109l0.688,-0.61l0.375,3.006l-1.063,-2.396Z" style="fill:#333;fill-rule:nonzero;"/>
        <path d="M53.63,371.129l-0.688,-0.61l-0.375,3.006l1.063,-2.396Z" style="fill:#1c1c1c;fill-rule:nonzero;"/>
      </g>
    </g>
    <g>
      <path d="M50.3,195.4c-5.706,0 -11.412,1.934 -16.027,5.805c-9.229,7.745 -11.587,21.128 -5.564,31.564c0.391,0.722 1.468,0.101 1.039,-0.6c-5.733,-9.934 -3.488,-22.672 5.296,-30.045c8.786,-7.369 21.725,-7.369 30.511,0c8.785,7.373 11.029,20.111 5.296,30.045c-0.429,0.701 0.648,1.322 1.039,0.6c6.023,-10.436 3.666,-23.819 -5.564,-31.564c-4.615,-3.871 -10.32,-5.805 -16.025,-5.805l-0.001,0Zm-18.883,41.52c-2.371,0 -4.307,1.936 -4.307,4.307c0,2.371 1.936,4.304 4.307,4.304c2.371,0 4.307,-1.933 4.307,-4.304c0,-2.371 -1.936,-4.307 -4.307,-4.307Zm37.766,0c-2.371,0 -4.305,1.934 -4.305,4.305c0,2.371 1.934,4.306 4.305,4.306c2.371,0 4.307,-1.935 4.307,-4.306c0,-2.371 -1.936,-4.305 -4.307,-4.305Zm-37.766,1.199c1.722,0 3.105,1.385 3.105,3.108c0,1.722 -1.383,3.105 -3.105,3.105c-1.723,0 -3.106,-1.383 -3.106,-3.105c0,-1.723 1.383,-3.108 3.106,-3.108Z" style="fill:#f8f8f8;fill-rule:nonzero;"/>
      <path d="M113.03,195.61c-0.332,0.006 -0.596,0.28 -0.59,0.611l0,1.409c-2.52,0.129 -5.006,1.042 -7.047,2.755c-4.419,3.708 -5.55,10.112 -2.668,15.105l0.301,0.52l10.035,-5.793l10.035,5.793l0.301,-0.52c2.882,-4.993 1.752,-11.398 -2.668,-15.105c-2.052,-1.722 -4.555,-2.636 -7.09,-2.757l0,-1.411c0,-0.338 -0.271,-0.612 -0.609,-0.607l0,0Zm-0.586,3.219l0.019,10.35l-8.902,5.14c-2.21,-4.402 -1.209,-9.813 2.605,-13.014c1.819,-1.527 4.032,-2.348 6.278,-2.476l0,0Zm1.199,0c2.26,0.121 4.488,0.94 6.317,2.476c3.815,3.201 4.813,8.612 2.603,13.014l-8.902,-5.14l-0.018,-10.35Zm7.933,17.562l0.01,1.582l-1.606,0.008c-0.831,-0.028 -0.825,1.235 0.01,1.199l1.606,-0.008l0.01,1.629c-0.026,0.831 1.236,0.822 1.199,-0.008l-0.01,-1.625l1.603,-0.008c0.801,-0.004 0.795,-1.205 -0.01,-1.201l-1.605,0.008l-0.01,-1.584c0,-0.771 -1.197,-0.756 -1.197,0.008Zm-15.172,1.445l-4.415,0.02c-0.8,0.004 -0.794,1.205 0.01,1.201l4.415,-0.022c0.83,0.028 0.824,-1.235 -0.01,-1.199Z" style="fill:#f8f8f8;fill-rule:nonzero;"/>
      <path d="M50.3,62.077c-5.706,0 -11.412,1.934 -16.027,5.805c-9.229,7.745 -11.587,21.128 -5.564,31.564c0.391,0.722 1.468,0.101 1.039,-0.6c-5.733,-9.934 -3.488,-22.672 5.296,-30.045c8.786,-7.369 21.725,-7.369 30.511,0c8.785,7.373 11.029,20.111 5.296,30.045c-0.429,0.701 0.648,1.322 1.039,0.6c6.023,-10.436 3.666,-23.819 -5.564,-31.564c-4.615,-3.871 -10.32,-5.805 -16.025,-5.805l-0.001,0Zm-18.883,41.52c-2.371,0 -4.307,1.936 -4.307,4.307c0,2.371 1.936,4.304 4.307,4.304c2.371,0 4.307,-1.933 4.307,-4.304c0,-2.371 -1.936,-4.307 -4.307,-4.307Zm37.766,0c-2.371,0 -4.305,1.934 -4.305,4.305c0,2.371 1.934,4.306 4.305,4.306c2.371,0 4.307,-1.935 4.307,-4.306c0,-2.371 -1.936,-4.305 -4.307,-4.305Zm-37.766,1.199c1.722,0 3.105,1.385 3.105,3.108c0,1.722 -1.383,3.105 -3.105,3.105c-1.723,0 -3.106,-1.383 -3.106,-3.105c0,-1.723 1.383,-3.108 3.106,-3.108Z" style="fill:#f8f8f8;fill-rule:nonzero;"/>
      <path d="M113.03,62.28c-0.332,0.006 -0.596,0.279 -0.59,0.611l0,1.409c-2.52,0.129 -5.006,1.042 -7.047,2.755c-4.419,3.708 -5.55,10.112 -2.668,15.105l0.301,0.52l10.035,-5.793l10.035,5.793l0.301,-0.52c2.882,-4.993 1.752,-11.398 -2.668,-15.105c-2.052,-1.722 -4.555,-2.636 -7.09,-2.757l0,-1.411c0,-0.338 -0.271,-0.612 -0.609,-0.607l0,0Zm-0.586,3.219l0.019,10.35l-8.902,5.14c-2.21,-4.402 -1.209,-9.813 2.605,-13.014c1.819,-1.527 4.032,-2.348 6.278,-2.476l0,0Zm1.199,0c2.26,0.121 4.488,0.94 6.317,2.476c3.815,3.201 4.813,8.612 2.603,13.014l-8.902,-5.14l-0.018,-10.35Zm7.933,17.562l0.01,1.582l-1.606,0.008c-0.831,-0.028 -0.825,1.235 0.01,1.199l1.606,-0.008l0.01,1.629c-0.026,0.831 1.236,0.822 1.199,-0.008l-0.01,-1.625l1.603,-0.008c0.801,-0.004 0.795,-1.205 -0.01,-1.201l-1.605,0.008l-0.01,-1.584c0,-0.771 -1.197,-0.756 -1.197,0.008Zm-15.172,1.445l-4.415,0.02c-0.8,0.004 -0.794,1.205 0.01,1.201l4.415,-0.022c0.83,0.028 0.824,-1.235 -0.01,-1.199Z" style="fill:#f8f8f8;fill-rule:nonzero;"/>
    </g>
    <g>
      <path d="M42.375,38.559l0,-0.963c-0.353,0.72 -0.911,1.08 -1.671,1.08c-0.615,0 -1.097,-0.226 -1.448,-0.676c-0.35,-0.45 -0.526,-1.069 -0.526,-1.857c0,-0.857 0.198,-1.539 0.594,-2.049c0.395,-0.509 0.926,-0.763 1.595,-0.763c0.533,0 1.019,0.211 1.456,0.633l0,-2.756l1.383,0l0,7.351l-1.383,0Zm0,-3.775c-0.332,-0.373 -0.687,-0.56 -1.066,-0.56c-0.339,0 -0.609,0.164 -0.81,0.49c-0.202,0.326 -0.303,0.763 -0.303,1.313c0,1.046 0.336,1.569 1.006,1.569c0.41,0 0.801,-0.263 1.173,-0.787l0,-2.025Z" style="fill:#f8f8f8;fill-rule:nonzero;"/>
      <path d="M45.475,38.559l0,-5.112l1.379,0l0,0.964c0.357,-0.72 0.9,-1.08 1.629,-1.08c0.087,0 0.172,0.009 0.257,0.027l0,1.23c-0.196,-0.071 -0.378,-0.107 -0.546,-0.107c-0.549,0 -0.996,0.278 -1.34,0.833l0,3.245l-1.379,0Z" style="fill:#f8f8f8;fill-rule:nonzero;"/>
      <path d="M52.972,38.559l0,-0.963c-0.448,0.72 -1.029,1.08 -1.742,1.08c-0.456,0 -0.816,-0.144 -1.08,-0.433c-0.264,-0.29 -0.396,-0.683 -0.396,-1.183l0,-3.613l1.378,0l0,3.273c0,0.58 0.194,0.87 0.582,0.87c0.435,0 0.854,-0.308 1.258,-0.926l0,-3.217l1.377,0l0,5.112l-1.377,0Z" style="fill:#f8f8f8;fill-rule:nonzero;"/>
      <path d="M56.072,38.559l0,-5.112l1.322,0l0,0.964c0.403,-0.72 0.977,-1.08 1.723,-1.08c0.384,0 0.701,0.094 0.949,0.284c0.248,0.189 0.401,0.455 0.457,0.796c0.477,-0.72 1.054,-1.08 1.731,-1.08c0.935,0 1.402,0.516 1.402,1.546l0,3.682l-1.323,0l0,-3.231c0,-0.605 -0.201,-0.908 -0.605,-0.908c-0.412,0 -0.815,0.298 -1.205,0.894l0,3.245l-1.323,0l0,-3.231c0,-0.608 -0.203,-0.912 -0.61,-0.912c-0.406,0 -0.805,0.299 -1.196,0.898l0,3.245l-1.322,0Z" style="fill:#f8f8f8;fill-rule:nonzero;"/>
      <path d="M72.622,38.387c-0.655,0.192 -1.275,0.289 -1.862,0.289c-0.853,0 -1.527,-0.243 -2.021,-0.727c-0.494,-0.484 -0.74,-1.145 -0.74,-1.983c0,-0.792 0.226,-1.428 0.677,-1.911c0.452,-0.483 1.048,-0.724 1.791,-0.724c0.747,0 1.293,0.236 1.639,0.707c0.344,0.472 0.516,1.219 0.516,2.239l-3.171,0c0.093,0.976 0.629,1.463 1.606,1.463c0.463,0 0.984,-0.107 1.565,-0.321l0,0.968Zm-3.189,-2.887l1.834,0c0,-0.872 -0.28,-1.307 -0.843,-1.307c-0.57,0 -0.901,0.435 -0.991,1.307Z" style="fill:#f8f8f8;fill-rule:nonzero;"/>
      <path d="M74.046,38.559l0,-5.112l1.379,0l0,0.964c0.45,-0.72 1.03,-1.08 1.741,-1.08c0.456,0 0.816,0.144 1.079,0.433c0.264,0.289 0.396,0.683 0.396,1.183l0,3.612l-1.377,0l0,-3.273c0,-0.58 -0.193,-0.87 -0.578,-0.87c-0.437,0 -0.858,0.308 -1.261,0.927l0,3.216l-1.379,0Z" style="fill:#f8f8f8;fill-rule:nonzero;"/>
      <path d="M81.57,38.559l-1.951,-5.112l1.452,0l1.43,3.687l1.419,-3.687l0.997,0l-1.97,5.112l-1.377,0Z" style="fill:#f8f8f8;fill-rule:nonzero;"/>
      <path d="M90.127,38.387c-0.655,0.192 -1.276,0.289 -1.862,0.289c-0.854,0 -1.527,-0.243 -2.022,-0.727c-0.493,-0.484 -0.74,-1.145 -0.74,-1.983c0,-0.792 0.227,-1.428 0.678,-1.911c0.452,-0.483 1.048,-0.724 1.79,-0.724c0.748,0 1.294,0.236 1.639,0.707c0.344,0.472 0.517,1.219 0.517,2.239l-3.171,0c0.093,0.976 0.629,1.463 1.606,1.463c0.463,0 0.984,-0.107 1.565,-0.321l0,0.968Zm-3.189,-2.887l1.834,0c0,-0.872 -0.281,-1.307 -0.843,-1.307c-0.571,0 -0.901,0.435 -0.991,1.307Z" style="fill:#f8f8f8;fill-rule:nonzero;"/>
    </g>
    <rect x="91.551" y="31.208" width="1.379" height="7.351" style="fill:#f8f8f8;"/>
    <g>
      <path d="M96.798,38.676c-0.798,0 -1.431,-0.242 -1.902,-0.725c-0.47,-0.482 -0.705,-1.131 -0.705,-1.948c0,-0.826 0.237,-1.477 0.71,-1.955c0.473,-0.478 1.116,-0.717 1.929,-0.717c0.816,0 1.461,0.239 1.934,0.717c0.474,0.478 0.711,1.126 0.711,1.946c0,0.838 -0.237,1.495 -0.713,1.969c-0.474,0.475 -1.129,0.713 -1.964,0.713Zm0.024,-0.862c0.79,0 1.186,-0.607 1.186,-1.82c0,-0.556 -0.104,-0.994 -0.314,-1.317c-0.21,-0.323 -0.498,-0.484 -0.864,-0.484c-0.363,0 -0.649,0.161 -0.859,0.484c-0.209,0.323 -0.314,0.764 -0.314,1.326c0,0.556 0.105,0.997 0.312,1.323c0.208,0.326 0.493,0.488 0.853,0.488Z" style="fill:#f8f8f8;fill-rule:nonzero;"/>
      <path d="M100.74,40.398l0,-6.951l1.379,0l0,0.964c0.353,-0.72 0.91,-1.08 1.67,-1.08c0.614,0 1.098,0.225 1.451,0.675c0.351,0.45 0.528,1.07 0.528,1.857c0,0.857 -0.199,1.54 -0.596,2.049c-0.397,0.509 -0.929,0.764 -1.596,0.764c-0.537,0 -1.023,-0.211 -1.457,-0.634l0,2.356l-1.379,0Zm1.379,-3.175c0.334,0.373 0.691,0.559 1.07,0.559c0.338,0 0.608,-0.164 0.81,-0.491c0.201,-0.327 0.303,-0.765 0.303,-1.311c0,-1.046 -0.337,-1.569 -1.01,-1.569c-0.407,0 -0.799,0.262 -1.173,0.787l0,2.025Z" style="fill:#f8f8f8;fill-rule:nonzero;"/>
      <path d="M111.22,38.387c-0.656,0.192 -1.276,0.289 -1.863,0.289c-0.853,0 -1.526,-0.243 -2.02,-0.727c-0.493,-0.484 -0.74,-1.145 -0.74,-1.983c0,-0.792 0.226,-1.428 0.677,-1.911c0.452,-0.483 1.048,-0.724 1.79,-0.724c0.748,0 1.294,0.236 1.639,0.707c0.344,0.472 0.517,1.219 0.517,2.239l-3.171,0c0.093,0.976 0.629,1.463 1.606,1.463c0.463,0 0.985,-0.107 1.565,-0.321l0,0.968Zm-3.189,-2.887l1.834,0c0,-0.872 -0.281,-1.307 -0.843,-1.307c-0.571,0 -0.901,0.435 -0.991,1.307Z" style="fill:#f8f8f8;fill-rule:nonzero;"/>
      <path d="M55.89,20.137c-0.268,-0.217 -0.537,-0.38 -0.804,-0.483c-0.269,-0.106 -0.529,-0.158 -0.781,-0.158c-0.318,0 -0.578,0.075 -0.779,0.227c-0.201,0.15 -0.302,0.347 -0.302,0.591c0,0.168 0.05,0.305 0.15,0.414c0.101,0.11 0.233,0.204 0.397,0.284c0.164,0.08 0.348,0.149 0.553,0.208c0.206,0.059 0.409,0.121 0.611,0.188c0.805,0.269 1.393,0.627 1.768,1.076c0.372,0.449 0.559,1.033 0.559,1.754c0,0.488 -0.083,0.927 -0.245,1.321c-0.164,0.395 -0.404,0.733 -0.718,1.013c-0.314,0.281 -0.699,0.499 -1.157,0.655c-0.457,0.154 -0.975,0.232 -1.554,0.232c-1.198,0 -2.31,-0.356 -3.333,-1.069l1.056,-1.988c0.369,0.328 0.734,0.57 1.095,0.73c0.361,0.16 0.716,0.238 1.069,0.238c0.403,0 0.702,-0.092 0.899,-0.276c0.197,-0.185 0.296,-0.394 0.296,-0.63c0,-0.142 -0.025,-0.265 -0.075,-0.37c-0.05,-0.105 -0.134,-0.201 -0.251,-0.289c-0.119,-0.089 -0.271,-0.17 -0.46,-0.246c-0.189,-0.075 -0.417,-0.159 -0.686,-0.251c-0.318,-0.101 -0.631,-0.211 -0.937,-0.334c-0.305,-0.121 -0.578,-0.282 -0.817,-0.483c-0.24,-0.203 -0.433,-0.456 -0.579,-0.762c-0.147,-0.307 -0.22,-0.694 -0.22,-1.163c0,-0.47 0.077,-0.896 0.233,-1.277c0.155,-0.383 0.373,-0.709 0.654,-0.982c0.281,-0.272 0.625,-0.483 1.031,-0.635c0.407,-0.151 0.862,-0.227 1.365,-0.227c0.47,0 0.96,0.066 1.472,0.196c0.511,0.129 1.002,0.32 1.472,0.571l-0.982,1.925Z" style="fill:#f8f8f8;fill-rule:nonzero;"/>
      <path d="M61.275,22.062l0.818,0c0.906,0 1.358,-0.393 1.358,-1.182c0,-0.788 -0.452,-1.182 -1.358,-1.182l-0.818,0l0,2.364Zm0,5.133l-2.465,0l0,-9.485l3.923,0c1.066,0 1.881,0.276 2.447,0.83c0.566,0.553 0.85,1.333 0.85,2.34c0,1.006 -0.284,1.786 -0.85,2.339c-0.566,0.554 -1.381,0.831 -2.447,0.831l-1.458,0l0,3.145Z" style="fill:#f8f8f8;fill-rule:nonzero;"/>
      <path d="M71.968,23.672l-1.107,-3.157l-1.107,3.157l2.214,0Zm0.654,1.875l-3.523,0l-0.566,1.648l-2.63,0l3.611,-9.485l2.692,0l3.611,9.485l-2.629,0l-0.566,-1.648Z" style="fill:#f8f8f8;fill-rule:nonzero;"/>
      <path d="M76.898,27.195l0,-9.485l2.467,0l4.554,5.799l0,-5.799l2.452,0l0,9.485l-2.452,0l-4.554,-5.799l0,5.799l-2.467,0Z" style="fill:#f8f8f8;fill-rule:nonzero;"/>
      <path d="M90.825,21.622l3.006,-3.912l3.045,0l-3.761,4.49l4.113,4.995l-3.196,0l-3.207,-4.113l0,4.113l-2.465,0l0,-9.485l2.465,0l0,3.912Z" style="fill:#f8f8f8;fill-rule:nonzero;"/>
      <path d="M57.613,114.87c-0.42,0 -0.824,0.08 -1.209,0.236c-0.384,0.156 -0.72,0.378 -1.012,0.659c-0.292,0.28 -0.525,0.612 -0.697,1c-0.172,0.388 -0.26,0.812 -0.26,1.277c0,0.464 0.088,0.891 0.264,1.283c0.176,0.392 0.409,0.732 0.701,1.016c0.292,0.285 0.628,0.51 1.008,0.666c0.381,0.156 0.781,0.234 1.197,0.234c0.204,0 0.407,-0.019 0.615,-0.059c0.208,-0.04 0.432,-0.105 0.672,-0.189l0.162,-0.055l0,-1.857c-0.401,0.428 -0.853,0.64 -1.353,0.64c-0.228,0 -0.445,-0.044 -0.641,-0.128c-0.196,-0.084 -0.366,-0.204 -0.515,-0.352c-0.148,-0.148 -0.262,-0.323 -0.346,-0.527c-0.084,-0.204 -0.123,-0.424 -0.123,-0.664c0,-0.237 0.039,-0.455 0.123,-0.659c0.084,-0.204 0.196,-0.375 0.34,-0.523c0.145,-0.148 0.317,-0.264 0.517,-0.348c0.2,-0.084 0.417,-0.129 0.653,-0.129c0.532,0 0.98,0.22 1.345,0.664l0,-1.873c-0.257,-0.108 -0.502,-0.184 -0.734,-0.236c-0.232,-0.052 -0.467,-0.076 -0.707,-0.076l0,0Zm-21.801,0.17l-2.297,6.033l1.672,0l0.361,-1.049l2.241,0l0.359,1.049l1.674,0l-2.297,-6.033l-1.713,0Zm3.865,0l0,1.328l1.289,0l0,4.705l1.569,0l0,-4.705l1.287,0l0,-1.328l-4.145,0Zm4.274,0l0,1.328l1.289,0l0,4.705l1.568,0l0,-4.705l1.289,0l0,-1.328l-4.146,0Zm6.283,0l-2.297,6.033l1.672,0l0.361,-1.049l2.24,0l0.36,1.049l1.673,0l-2.296,-6.033l-1.713,0Zm10.068,0l0,6.033l1.568,0l0,-2.615l2.041,2.615l2.031,0l-2.617,-3.178l2.395,-2.855l-1.938,0l-1.912,2.488l0,-2.488l-1.568,0Zm-23.635,1.783l0.705,2.01l-1.408,0l0.703,-2.01Zm14.422,0l0.705,2.01l-1.408,0l0.703,-2.01Z" style="fill:#f8f8f8;fill-rule:nonzero;"/>
      <path d="M47.822,181.54c-0.492,0 -0.94,0.08 -1.348,0.244c-0.409,0.164 -0.76,0.389 -1.052,0.678c-0.292,0.288 -0.524,0.624 -0.688,1.012c-0.164,0.388 -0.248,0.803 -0.248,1.252c0,0.448 0.084,0.864 0.248,1.252c0.164,0.388 0.396,0.723 0.688,1.011c0.292,0.289 0.643,0.514 1.052,0.678c0.408,0.164 0.856,0.244 1.348,0.244c0.484,0 0.934,-0.08 1.346,-0.244c0.412,-0.164 0.764,-0.389 1.06,-0.678c0.296,-0.288 0.528,-0.623 0.692,-1.011c0.165,-0.388 0.25,-0.804 0.25,-1.252c0,-0.449 -0.085,-0.864 -0.25,-1.252c-0.164,-0.388 -0.396,-0.724 -0.692,-1.012c-0.296,-0.289 -0.648,-0.514 -1.06,-0.678c-0.412,-0.164 -0.862,-0.244 -1.346,-0.244Zm-9.73,0.168l0,6.035l1.568,0l0,-2.488l2.266,0l0,2.488l1.566,0l0,-6.035l-1.566,0l0,2.328l-2.266,0l0,-2.328l-1.568,0Zm14.068,0l0,6.035l3.449,0l0,-1.33l-1.879,0l0,-4.705l-1.571,0Zm4.26,0l0,6.035l2.321,0c0.416,0 0.804,-0.084 1.164,-0.248c0.36,-0.164 0.676,-0.389 0.945,-0.666c0.268,-0.276 0.479,-0.599 0.631,-0.963c0.152,-0.364 0.228,-0.744 0.228,-1.14c0,-0.401 -0.076,-0.785 -0.232,-1.149c-0.156,-0.364 -0.367,-0.685 -0.635,-0.961c-0.269,-0.276 -0.585,-0.496 -0.945,-0.66c-0.36,-0.164 -0.744,-0.248 -1.156,-0.248l-2.321,0l0,0Zm1.567,1.328l0.361,0c0.268,0 0.509,0.045 0.721,0.129c0.212,0.084 0.391,0.204 0.539,0.352c0.148,0.148 0.26,0.329 0.34,0.537c0.08,0.208 0.121,0.431 0.121,0.672c0,0.244 -0.041,0.471 -0.117,0.675c-0.076,0.204 -0.188,0.386 -0.336,0.534c-0.148,0.148 -0.327,0.267 -0.539,0.351c-0.212,0.084 -0.457,0.127 -0.729,0.127l-0.361,0l0,-3.377l0,0Zm-10.164,0.025c0.228,0 0.448,0.039 0.652,0.123c0.205,0.084 0.389,0.2 0.545,0.348c0.156,0.148 0.281,0.325 0.373,0.529c0.092,0.204 0.135,0.424 0.135,0.665c0,0.24 -0.043,0.46 -0.135,0.664c-0.092,0.204 -0.217,0.381 -0.373,0.529c-0.156,0.148 -0.34,0.264 -0.545,0.348c-0.204,0.084 -0.424,0.123 -0.652,0.123c-0.228,0 -0.447,-0.039 -0.651,-0.123c-0.204,-0.084 -0.385,-0.2 -0.541,-0.348c-0.156,-0.148 -0.275,-0.325 -0.367,-0.529c-0.092,-0.204 -0.137,-0.424 -0.137,-0.664c0,-0.241 0.045,-0.461 0.137,-0.665c0.092,-0.204 0.211,-0.381 0.367,-0.529c0.156,-0.148 0.337,-0.264 0.541,-0.348c0.204,-0.083 0.423,-0.123 0.651,-0.123Z" style="fill:#f8f8f8;fill-rule:nonzero;"/>
      <path d="M49.85,248.21c-0.42,0 -0.824,0.08 -1.209,0.236c-0.384,0.156 -0.72,0.376 -1.012,0.657c-0.292,0.28 -0.525,0.612 -0.697,1c-0.172,0.388 -0.26,0.812 -0.26,1.277c0,0.464 0.088,0.891 0.264,1.283c0.176,0.392 0.409,0.734 0.701,1.018c0.292,0.285 0.628,0.508 1.008,0.664c0.381,0.156 0.781,0.236 1.197,0.236c0.204,0 0.407,-0.02 0.615,-0.06c0.208,-0.04 0.432,-0.104 0.672,-0.188l0.16,-0.057l0,-1.855c-0.4,0.428 -0.851,0.639 -1.351,0.639c-0.228,0 -0.445,-0.043 -0.641,-0.127c-0.196,-0.084 -0.369,-0.206 -0.517,-0.354c-0.148,-0.148 -0.26,-0.323 -0.344,-0.527c-0.084,-0.204 -0.123,-0.424 -0.123,-0.664c0,-0.237 0.039,-0.453 0.123,-0.657c0.084,-0.204 0.196,-0.377 0.34,-0.525c0.144,-0.148 0.317,-0.264 0.517,-0.348c0.2,-0.084 0.417,-0.127 0.653,-0.127c0.532,0 0.979,0.221 1.343,0.665l0,-1.873c-0.256,-0.108 -0.5,-0.185 -0.732,-0.237c-0.232,-0.052 -0.467,-0.076 -0.707,-0.076l0,0Zm-13.758,0.168l0,6.035l2.32,0c0.416,0 0.803,-0.084 1.164,-0.248c0.36,-0.164 0.678,-0.389 0.946,-0.666c0.268,-0.276 0.479,-0.599 0.631,-0.963c0.152,-0.364 0.228,-0.744 0.228,-1.14c0,-0.401 -0.076,-0.785 -0.232,-1.149c-0.156,-0.364 -0.367,-0.685 -0.635,-0.961c-0.268,-0.276 -0.585,-0.496 -0.945,-0.66c-0.361,-0.164 -0.745,-0.248 -1.157,-0.248l-2.32,0l0,0Zm6.291,0l0,6.035l3.432,0l0,-1.33l-1.866,0l0,-1.039l1.762,0l0,-1.328l-1.762,0l0,-1.01l1.866,0l0,-1.328l-3.432,0Zm11.764,0l-2.297,6.035l1.672,0l0.361,-1.049l2.241,0l0.361,1.049l1.672,0l-2.297,-6.035l-1.713,0l0,0Zm3.385,0l2.201,3.139l0,2.896l1.57,0l0,-2.896l2.209,-3.139l-1.873,0l-1.113,1.648l-1.121,-1.648l-1.873,0Zm-19.871,1.328l0.359,0c0.268,0 0.509,0.045 0.721,0.129c0.212,0.084 0.391,0.204 0.539,0.352c0.149,0.148 0.262,0.329 0.342,0.537c0.08,0.208 0.119,0.431 0.119,0.672c0,0.244 -0.039,0.471 -0.115,0.675c-0.076,0.204 -0.189,0.386 -0.338,0.534c-0.148,0.148 -0.327,0.267 -0.539,0.351c-0.212,0.084 -0.457,0.127 -0.729,0.127l-0.359,0l0,-3.377l0,0Zm17.344,0.457l0.703,2.01l-1.408,0l0.705,-2.01Z" style="fill:#f8f8f8;fill-rule:nonzero;"/>
      <path d="M50.3,128.8c-5.706,0 -11.412,1.934 -16.027,5.805c-9.229,7.745 -11.587,21.128 -5.564,31.564c0.391,0.722 1.468,0.101 1.039,-0.6c-5.733,-9.934 -3.488,-22.672 5.296,-30.045c8.786,-7.369 21.725,-7.369 30.511,0c8.785,7.373 11.029,20.111 5.296,30.045c-0.429,0.701 0.648,1.322 1.039,0.6c6.023,-10.436 3.666,-23.819 -5.564,-31.564c-4.615,-3.871 -10.32,-5.805 -16.025,-5.805l-0.001,0Zm-18.883,41.52c-2.371,0 -4.307,1.936 -4.307,4.307c0,2.371 1.936,4.304 4.307,4.304c2.371,0 4.307,-1.933 4.307,-4.304c0,-2.371 -1.936,-4.307 -4.307,-4.307Zm37.766,0c-2.371,0 -4.305,1.934 -4.305,4.305c0,2.371 1.934,4.306 4.305,4.306c2.371,0 4.307,-1.935 4.307,-4.306c0,-2.371 -1.936,-4.305 -4.307,-4.305Zm-37.766,1.199c1.722,0 3.105,1.385 3.105,3.108c0,1.722 -1.383,3.105 -3.105,3.105c-1.723,0 -3.106,-1.383 -3.106,-3.105c0,-1.723 1.383,-3.108 3.106,-3.108Z" style="fill:#f8f8f8;fill-rule:nonzero;"/>
      <path d="M113.03,129c-0.332,0.006 -0.596,0.28 -0.59,0.611l0,1.409c-2.52,0.129 -5.006,1.042 -7.047,2.755c-4.419,3.708 -5.55,10.112 -2.668,15.105l0.301,0.52l10.035,-5.793l10.035,5.793l0.301,-0.52c2.882,-4.993 1.752,-11.398 -2.668,-15.105c-2.052,-1.722 -4.555,-2.636 -7.09,-2.757l0,-1.411c0,-0.338 -0.271,-0.612 -0.609,-0.607l0,0Zm-0.586,3.219l0.019,10.35l-8.902,5.14c-2.21,-4.402 -1.209,-9.813 2.605,-13.014c1.819,-1.527 4.032,-2.348 6.278,-2.476l0,0Zm1.199,0c2.26,0.121 4.488,0.94 6.317,2.476c3.815,3.201 4.813,8.612 2.603,13.014l-8.902,-5.14l-0.018,-10.35Zm7.933,17.562l0.01,1.582l-1.606,0.008c-0.831,-0.028 -0.825,1.235 0.01,1.199l1.606,-0.008l0.01,1.629c-0.026,0.831 1.236,0.822 1.199,-0.008l-0.01,-1.625l1.603,-0.008c0.801,-0.004 0.795,-1.205 -0.01,-1.201l-1.605,0.008l-0.01,-1.584c0,-0.771 -1.197,-0.756 -1.197,0.008Zm-15.172,1.445l-4.415,0.02c-0.8,0.004 -0.794,1.205 0.01,1.201l4.415,-0.022c0.83,0.028 0.824,-1.235 -0.01,-1.199Z" style="fill:#f8f8f8;fill-rule:nonzero;"/>
    </g>
    <path d="M49.616,348.1c-0.492,0 -0.942,0.08 -1.35,0.244c-0.408,0.16 -0.76,0.389 -1.052,0.678c-0.292,0.288 -0.524,0.624 -0.688,1.008c-0.164,0.388 -0.248,0.805 -0.248,1.254c0,0.448 0.084,0.868 0.248,1.252c0.164,0.388 0.396,0.723 0.688,1.011c0.292,0.289 0.644,0.512 1.052,0.676c0.408,0.164 0.858,0.244 1.35,0.244c0.485,0 0.932,-0.08 1.34,-0.244c0.412,-0.164 0.764,-0.387 1.06,-0.676c0.296,-0.288 0.53,-0.623 0.694,-1.011c0.168,-0.384 0.248,-0.804 0.248,-1.252c0,-0.449 -0.08,-0.866 -0.248,-1.254c-0.164,-0.384 -0.398,-0.72 -0.694,-1.008c-0.296,-0.289 -0.648,-0.518 -1.06,-0.678c-0.408,-0.164 -0.855,-0.244 -1.34,-0.244Zm4.334,0.168l0,3.494c0,0.94 0.215,1.626 0.647,2.059c0.433,0.432 1.094,0.646 1.986,0.646c0.889,0 1.548,-0.214 1.98,-0.646c0.428,-0.433 0.645,-1.119 0.645,-2.059l0,-3.494l-1.561,0l0,3.279c0,0.176 -0.008,0.355 -0.019,0.539c-0.016,0.184 -0.057,0.352 -0.125,0.5c-0.072,0.148 -0.176,0.274 -0.317,0.366c-0.14,0.092 -0.343,0.138 -0.603,0.138c-0.26,0 -0.466,-0.046 -0.61,-0.138c-0.144,-0.092 -0.246,-0.218 -0.314,-0.366c-0.068,-0.148 -0.109,-0.316 -0.121,-0.5c-0.012,-0.184 -0.02,-0.363 -0.02,-0.539l0,-3.279l-1.568,0Zm5.955,0l0,1.326l1.283,0l0,4.705l1.569,0l0,-4.705l1.289,0l0,-1.326l-4.141,0Zm-10.289,1.35c0.228,0 0.444,0.045 0.652,0.125c0.204,0.084 0.384,0.199 0.54,0.347c0.16,0.152 0.285,0.328 0.373,0.528c0.092,0.204 0.136,0.425 0.136,0.666c0,0.24 -0.044,0.464 -0.136,0.664c-0.088,0.204 -0.213,0.379 -0.373,0.527c-0.156,0.152 -0.336,0.264 -0.54,0.348c-0.208,0.084 -0.424,0.125 -0.652,0.125c-0.232,0 -0.448,-0.041 -0.652,-0.125c-0.208,-0.084 -0.389,-0.196 -0.541,-0.348c-0.156,-0.148 -0.279,-0.323 -0.367,-0.527c-0.092,-0.2 -0.137,-0.424 -0.137,-0.664c0,-0.241 0.045,-0.462 0.137,-0.666c0.088,-0.2 0.211,-0.376 0.367,-0.528c0.152,-0.148 0.333,-0.263 0.541,-0.347c0.204,-0.08 0.42,-0.125 0.652,-0.125Z" style="fill:#f8f8f8;fill-rule:nonzero;"/>
    <path d="M12.753,347.928c-0.484,0 -0.924,0.077 -1.32,0.233c-0.396,0.156 -0.734,0.371 -1.014,0.648c-0.28,0.276 -0.494,0.614 -0.646,1.006c-0.153,0.392 -0.231,0.824 -0.231,1.293c0,0.476 0.078,0.907 0.235,1.299c0.156,0.392 0.372,0.728 0.648,1.009c0.276,0.28 0.606,0.497 0.994,0.653c0.388,0.156 0.817,0.23 1.285,0.23c0.34,0 0.669,-0.043 0.977,-0.127c0.308,-0.084 0.592,-0.209 0.853,-0.373c0.26,-0.164 0.484,-0.362 0.676,-0.607c0.192,-0.244 0.343,-0.522 0.455,-0.838c0.08,-0.224 0.132,-0.467 0.16,-0.727c0.028,-0.26 0.041,-0.552 0.041,-0.873l-3.113,0l0,1.217l1.287,0c-0.028,0.176 -0.074,0.323 -0.15,0.447c-0.076,0.124 -0.169,0.225 -0.285,0.301c-0.116,0.076 -0.243,0.132 -0.387,0.168c-0.144,0.036 -0.293,0.053 -0.449,0.053c-0.26,0 -0.492,-0.045 -0.688,-0.133c-0.197,-0.088 -0.366,-0.213 -0.498,-0.373c-0.132,-0.16 -0.231,-0.346 -0.299,-0.566c-0.068,-0.22 -0.099,-0.457 -0.099,-0.713c0,-0.285 0.039,-0.542 0.115,-0.77c0.076,-0.228 0.184,-0.424 0.32,-0.588c0.136,-0.164 0.3,-0.287 0.493,-0.375c0.192,-0.088 0.404,-0.133 0.64,-0.133c0.284,0 0.536,0.073 0.756,0.217c0.22,0.144 0.401,0.379 0.541,0.711l1.488,-0.615c-0.276,-0.572 -0.652,-0.993 -1.129,-1.266c-0.476,-0.272 -1.028,-0.408 -1.656,-0.408l0,0Zm5.602,0.168l-2.297,6.035l1.674,0l0.359,-1.049l2.24,0l0.362,1.049l1.671,0l-2.296,-6.035l-1.713,0Zm3.867,0l0,1.33l1.287,0l0,4.705l1.568,0l0,-4.705l1.29,0l0,-1.33l-4.145,0Zm4.842,0l0,6.035l3.431,0l0,-1.328l-1.863,0l0,-1.041l1.76,0l0,-1.328l-1.76,0l0,-1.008l1.863,0l0,-1.33l-3.431,0Zm-7.854,1.785l0.705,2.01l-1.408,0l0.703,-2.01Z" style="fill:#f8f8f8;fill-rule:nonzero;"/>
    <g>
      <path d="M34.923,282.96l1.701,0l0,-1.749l1.176,0l0,4.526l-1.176,0l0,-1.865l-1.701,0l0,1.865l-1.176,0l0,-4.526l1.176,0l0,1.749Z" style="fill:#f8f8f8;fill-rule:nonzero;"/>
      <path d="M41.206,284.05l-0.528,-1.505l-0.529,1.505l1.057,0Zm0.312,0.896l-1.681,0l-0.268,0.785l-1.256,0l1.724,-4.526l1.285,0l1.721,4.526l-1.253,0l-0.272,-0.785Z" style="fill:#f8f8f8;fill-rule:nonzero;"/>
      <path d="M44.735,283.23l0.22,0c0.232,0 0.413,-0.048 0.537,-0.144c0.124,-0.096 0.184,-0.236 0.184,-0.416c0,-0.181 -0.06,-0.317 -0.184,-0.413c-0.124,-0.096 -0.305,-0.144 -0.537,-0.144l-0.22,0l0,1.117Zm2.585,2.501l-1.464,0l-1.121,-1.741l0,1.741l-1.176,0l0,-4.526l1.829,0c0.252,0 0.472,0.04 0.66,0.112c0.188,0.076 0.344,0.176 0.464,0.304c0.124,0.128 0.216,0.276 0.276,0.444c0.064,0.168 0.096,0.348 0.096,0.541c0,0.344 -0.084,0.624 -0.252,0.836c-0.164,0.212 -0.408,0.36 -0.732,0.436l1.42,1.853Z" style="fill:#f8f8f8;fill-rule:nonzero;"/>
      <path d="M48.989,284.74l0.268,0c0.204,0 0.388,-0.032 0.548,-0.096c0.16,-0.064 0.296,-0.152 0.405,-0.264c0.108,-0.112 0.192,-0.244 0.252,-0.4c0.056,-0.152 0.088,-0.32 0.088,-0.504c0,-0.18 -0.032,-0.348 -0.092,-0.504c-0.06,-0.156 -0.144,-0.292 -0.256,-0.404c-0.109,-0.113 -0.245,-0.201 -0.405,-0.265c-0.16,-0.064 -0.34,-0.096 -0.54,-0.096l-0.268,0l0,2.533Zm-1.176,-3.529l1.74,0c0.308,0 0.596,0.064 0.865,0.188c0.272,0.124 0.508,0.288 0.708,0.496c0.204,0.204 0.364,0.444 0.48,0.721c0.116,0.272 0.172,0.56 0.172,0.86c0,0.296 -0.056,0.58 -0.172,0.852c-0.112,0.276 -0.272,0.516 -0.472,0.725c-0.204,0.208 -0.44,0.376 -0.708,0.5c-0.272,0.124 -0.561,0.184 -0.873,0.184l-1.74,0l0,-4.526Z" style="fill:#f8f8f8;fill-rule:nonzero;"/>
      <path d="M34.753,292.72l0,3.529l1.413,0l0,0.997l-2.589,0l0,-4.526l1.176,0Z" style="fill:#f8f8f8;fill-rule:nonzero;"/>
      <path d="M37.706,294.98c0,0.18 0.036,0.344 0.104,0.496c0.068,0.152 0.157,0.284 0.273,0.396c0.116,0.112 0.252,0.2 0.408,0.26c0.152,0.064 0.316,0.096 0.488,0.096c0.172,0 0.336,-0.032 0.488,-0.096c0.156,-0.06 0.292,-0.148 0.408,-0.26c0.12,-0.112 0.212,-0.244 0.28,-0.396c0.068,-0.152 0.1,-0.316 0.1,-0.496c0,-0.18 -0.032,-0.348 -0.1,-0.5c-0.068,-0.152 -0.16,-0.284 -0.28,-0.397c-0.116,-0.112 -0.252,-0.196 -0.408,-0.26c-0.152,-0.06 -0.316,-0.092 -0.488,-0.092c-0.172,0 -0.336,0.032 -0.488,0.092c-0.156,0.064 -0.292,0.148 -0.408,0.26c-0.116,0.113 -0.205,0.245 -0.273,0.397c-0.068,0.152 -0.104,0.32 -0.104,0.5Zm-1.228,0c0,-0.336 0.06,-0.648 0.184,-0.941c0.124,-0.288 0.296,-0.544 0.516,-0.76c0.22,-0.216 0.484,-0.384 0.789,-0.504c0.308,-0.124 0.644,-0.184 1.012,-0.184c0.364,0 0.7,0.06 1.008,0.184c0.308,0.12 0.573,0.288 0.793,0.504c0.224,0.216 0.396,0.472 0.52,0.76c0.124,0.293 0.188,0.605 0.188,0.941c0,0.336 -0.064,0.648 -0.188,0.936c-0.124,0.292 -0.296,0.544 -0.52,0.761c-0.22,0.216 -0.485,0.384 -0.793,0.508c-0.308,0.12 -0.644,0.18 -1.008,0.18c-0.368,0 -0.704,-0.06 -1.012,-0.18c-0.305,-0.124 -0.569,-0.292 -0.789,-0.508c-0.22,-0.217 -0.392,-0.469 -0.516,-0.761c-0.124,-0.288 -0.184,-0.6 -0.184,-0.936Z" style="fill:#f8f8f8;fill-rule:nonzero;"/>
      <path d="M43.257,294.98c0,0.18 0.032,0.344 0.1,0.496c0.068,0.152 0.16,0.284 0.276,0.396c0.116,0.112 0.252,0.2 0.408,0.26c0.152,0.064 0.316,0.096 0.488,0.096c0.172,0 0.336,-0.032 0.488,-0.096c0.153,-0.06 0.289,-0.148 0.409,-0.26c0.116,-0.112 0.212,-0.244 0.28,-0.396c0.068,-0.152 0.1,-0.316 0.1,-0.496c0,-0.18 -0.032,-0.348 -0.1,-0.5c-0.068,-0.152 -0.164,-0.284 -0.28,-0.397c-0.12,-0.112 -0.256,-0.196 -0.409,-0.26c-0.152,-0.06 -0.316,-0.092 -0.488,-0.092c-0.172,0 -0.336,0.032 -0.488,0.092c-0.156,0.064 -0.292,0.148 -0.408,0.26c-0.116,0.113 -0.208,0.245 -0.276,0.397c-0.068,0.152 -0.1,0.32 -0.1,0.5Zm-1.229,0c0,-0.336 0.06,-0.648 0.184,-0.941c0.124,-0.288 0.296,-0.544 0.516,-0.76c0.221,-0.216 0.485,-0.384 0.789,-0.504c0.308,-0.124 0.644,-0.184 1.012,-0.184c0.364,0 0.701,0.06 1.009,0.184c0.308,0.12 0.572,0.288 0.792,0.504c0.224,0.216 0.396,0.472 0.52,0.76c0.124,0.293 0.188,0.605 0.188,0.941c0,0.336 -0.064,0.648 -0.188,0.936c-0.124,0.292 -0.296,0.544 -0.52,0.761c-0.22,0.216 -0.484,0.384 -0.792,0.508c-0.308,0.12 -0.645,0.18 -1.009,0.18c-0.368,0 -0.704,-0.06 -1.012,-0.18c-0.304,-0.124 -0.568,-0.292 -0.789,-0.508c-0.22,-0.217 -0.392,-0.469 -0.516,-0.761c-0.124,-0.288 -0.184,-0.6 -0.184,-0.936Z" style="fill:#f8f8f8;fill-rule:nonzero;"/>
      <path d="M48.955,294.8l0.392,0c0.432,0 0.649,-0.188 0.649,-0.564c0,-0.377 -0.217,-0.565 -0.649,-0.565l-0.392,0l0,1.129Zm0,2.449l-1.176,0l0,-4.526l1.872,0c0.509,0 0.897,0.132 1.169,0.396c0.268,0.264 0.404,0.636 0.404,1.117c0,0.48 -0.136,0.852 -0.404,1.116c-0.272,0.264 -0.66,0.396 -1.169,0.396l-0.696,0l0,1.501Z" style="fill:#f8f8f8;fill-rule:nonzero;"/>
      <path d="M36.232,270.86c-0.128,-0.104 -0.256,-0.18 -0.384,-0.232c-0.128,-0.048 -0.253,-0.076 -0.373,-0.076c-0.152,0 -0.276,0.036 -0.372,0.108c-0.096,0.072 -0.144,0.168 -0.144,0.284c0,0.08 0.024,0.145 0.072,0.197c0.048,0.052 0.112,0.1 0.192,0.136c0.076,0.04 0.164,0.072 0.264,0.1c0.096,0.028 0.192,0.056 0.289,0.088c0.384,0.128 0.664,0.3 0.844,0.512c0.176,0.216 0.268,0.496 0.268,0.84c0,0.232 -0.04,0.44 -0.12,0.628c-0.076,0.189 -0.192,0.349 -0.34,0.485c-0.152,0.132 -0.336,0.236 -0.552,0.312c-0.217,0.072 -0.465,0.108 -0.741,0.108c-0.572,0 -1.104,-0.168 -1.592,-0.508l0.504,-0.949c0.176,0.156 0.352,0.272 0.524,0.348c0.172,0.076 0.34,0.116 0.508,0.116c0.192,0 0.336,-0.044 0.432,-0.132c0.092,-0.088 0.14,-0.188 0.14,-0.3c0,-0.068 -0.012,-0.128 -0.036,-0.18c-0.024,-0.048 -0.064,-0.096 -0.12,-0.136c-0.056,-0.044 -0.128,-0.08 -0.22,-0.116c-0.088,-0.036 -0.2,-0.076 -0.328,-0.12c-0.152,-0.048 -0.3,-0.104 -0.444,-0.16c-0.148,-0.06 -0.276,-0.136 -0.392,-0.232c-0.112,-0.096 -0.204,-0.216 -0.276,-0.36c-0.068,-0.148 -0.104,-0.332 -0.104,-0.557c0,-0.224 0.036,-0.428 0.112,-0.608c0.072,-0.184 0.176,-0.34 0.312,-0.468c0.132,-0.132 0.296,-0.232 0.492,-0.304c0.192,-0.072 0.408,-0.108 0.648,-0.108c0.224,0 0.461,0.032 0.705,0.092c0.244,0.064 0.476,0.152 0.7,0.272l-0.468,0.92Z" style="fill:#f8f8f8;fill-rule:nonzero;"/>
      <path d="M38.649,271.96c0,0.18 0.036,0.344 0.104,0.496c0.068,0.152 0.16,0.284 0.276,0.396c0.116,0.112 0.252,0.2 0.404,0.26c0.156,0.064 0.316,0.096 0.488,0.096c0.172,0 0.336,-0.032 0.492,-0.096c0.153,-0.06 0.289,-0.148 0.405,-0.26c0.12,-0.112 0.212,-0.244 0.28,-0.396c0.068,-0.152 0.104,-0.316 0.104,-0.496c0,-0.18 -0.036,-0.348 -0.104,-0.5c-0.068,-0.152 -0.16,-0.284 -0.28,-0.397c-0.116,-0.112 -0.252,-0.196 -0.405,-0.26c-0.156,-0.06 -0.32,-0.092 -0.492,-0.092c-0.172,0 -0.332,0.032 -0.488,0.092c-0.152,0.064 -0.288,0.148 -0.404,0.26c-0.116,0.113 -0.208,0.245 -0.276,0.397c-0.068,0.152 -0.104,0.32 -0.104,0.5Zm-1.229,0c0,-0.336 0.064,-0.648 0.188,-0.941c0.124,-0.288 0.296,-0.544 0.513,-0.76c0.22,-0.216 0.484,-0.384 0.792,-0.504c0.304,-0.124 0.64,-0.184 1.008,-0.184c0.364,0 0.701,0.06 1.009,0.184c0.308,0.12 0.572,0.288 0.796,0.504c0.22,0.216 0.396,0.472 0.52,0.76c0.124,0.293 0.184,0.605 0.184,0.941c0,0.336 -0.06,0.648 -0.184,0.936c-0.124,0.292 -0.3,0.544 -0.52,0.761c-0.224,0.216 -0.488,0.384 -0.796,0.508c-0.308,0.12 -0.645,0.18 -1.009,0.18c-0.368,0 -0.704,-0.06 -1.008,-0.18c-0.308,-0.124 -0.572,-0.292 -0.792,-0.508c-0.217,-0.217 -0.389,-0.469 -0.513,-0.761c-0.124,-0.288 -0.188,-0.6 -0.188,-0.936Z" style="fill:#f8f8f8;fill-rule:nonzero;"/>
      <path d="M45.768,270.69l-1.417,0l0,0.757l1.289,0l0,0.996l-1.289,0l0,1.777l-1.176,0l0,-4.526l2.593,0l0,0.996Z" style="fill:#f8f8f8;fill-rule:nonzero;"/>
      <path d="M48.185,270.69l0,3.53l-1.177,0l0,-3.53l-0.964,0l0,-0.996l3.105,0l0,0.996l-0.964,0Z" style="fill:#f8f8f8;fill-rule:nonzero;"/>
    </g>
    <path d="M78.111,296.218l0,-6.657c0,-5.416 4.397,-9.813 9.813,-9.813l45.558,0c5.416,0 9.813,4.397 9.813,9.813l0,6.657" style="fill:none;stroke:#f8f8f8;stroke-width:1px;stroke-linejoin:round;stroke-miterlimit:1.5;"/>
    <path d="M106.982,281.674l1.134,0l-1.944,4.272l-0.894,0l-1.944,-4.272l1.17,0l1.23,2.868l1.248,-2.868Z" style="fill:#f8f8f8;fill-rule:nonzero;"/>
    <path d="M110.312,286c-0.444,0 -0.831,-0.091 -1.161,-0.273c-0.33,-0.182 -0.584,-0.439 -0.762,-0.771c-0.178,-0.332 -0.267,-0.716 -0.267,-1.152c0,-0.432 0.089,-0.813 0.267,-1.143c0.178,-0.33 0.432,-0.586 0.762,-0.768c0.33,-0.182 0.717,-0.273 1.161,-0.273c0.28,0 0.551,0.042 0.813,0.126c0.262,0.084 0.473,0.198 0.633,0.342l-0.342,0.798c-0.348,-0.252 -0.708,-0.378 -1.08,-0.378c-0.344,0 -0.608,0.109 -0.792,0.327c-0.184,0.218 -0.276,0.541 -0.276,0.969c0,0.432 0.092,0.758 0.276,0.978c0.184,0.22 0.448,0.33 0.792,0.33c0.372,0 0.732,-0.126 1.08,-0.378l0.342,0.798c-0.16,0.144 -0.371,0.258 -0.633,0.342c-0.262,0.084 -0.533,0.126 -0.813,0.126Z" style="fill:#f8f8f8;fill-rule:nonzero;"/>
    <path d="M115.556,285.946l-0.378,-0.882l-1.896,0l-0.378,0.882l-1.128,0l1.998,-4.272l0.888,0l2.004,4.272l-1.11,0Zm-1.908,-1.728l1.164,0l-0.582,-1.35l-0.582,1.35Z" style="fill:#f8f8f8;fill-rule:nonzero;"/>
    <path d="M143.295,328.561c0,-5.416 -4.397,-9.813 -9.813,-9.813l-45.558,0c-5.416,0 -9.813,4.397 -9.813,9.813l0,19.626c0,5.416 4.397,9.813 9.813,9.813l45.558,0c5.416,0 9.813,-4.397 9.813,-9.813l0,-19.626Z" style="fill:none;stroke:#f8f8f8;stroke-width:1px;stroke-linejoin:round;stroke-miterlimit:1.5;"/>
    <path d="M72.592,327.294c0,-4.717 -3.83,-8.546 -8.546,-8.546l-17.092,0c-4.716,0 -8.546,3.829 -8.546,8.546l0,22.16c0,4.717 3.83,8.546 8.546,8.546l17.092,0c4.716,0 8.546,-3.829 8.546,-8.546l0,-22.16Z" style="fill:none;stroke:#f8f8f8;stroke-width:1px;stroke-linejoin:round;stroke-miterlimit:1.5;"/>
    <path d="M93.136,353.71l0,-5.696l1.504,0l0,4.48l2.408,0l0,1.216l-3.912,0Z" style="fill:#f8f8f8;fill-rule:nonzero;"/>
    <path d="M128.494,353.71l-1.592,0l-0.736,-1.896c-0.086,-0.213 -0.286,-0.32 -0.6,-0.32l-0.544,0l0,2.216l-1.48,0l0,-5.696l2.648,0c0.688,0 1.205,0.148 1.552,0.444c0.346,0.296 0.52,0.719 0.52,1.268c0,0.384 -0.103,0.716 -0.308,0.996c-0.206,0.28 -0.495,0.479 -0.868,0.596c0.16,0.032 0.304,0.107 0.432,0.224c0.128,0.117 0.229,0.275 0.304,0.472l0.672,1.696Zm-2.544,-3.336c0.32,0 0.552,-0.049 0.696,-0.148c0.144,-0.099 0.216,-0.252 0.216,-0.46c0,-0.219 -0.071,-0.376 -0.212,-0.472c-0.142,-0.096 -0.375,-0.144 -0.7,-0.144l-0.944,0l0,1.224l0.944,0Z" style="fill:#f8f8f8;fill-rule:nonzero;"/>
    <path d="M93.136,315.71l0,-5.696l1.504,0l0,4.48l2.408,0l0,1.216l-3.912,0Z" style="fill:#f8f8f8;fill-rule:nonzero;"/>
    <path d="M128.494,315.71l-1.592,0l-0.736,-1.896c-0.086,-0.213 -0.286,-0.32 -0.6,-0.32l-0.544,0l0,2.216l-1.48,0l0,-5.696l2.648,0c0.688,0 1.205,0.148 1.552,0.444c0.346,0.296 0.52,0.719 0.52,1.268c0,0.384 -0.103,0.716 -0.308,0.996c-0.206,0.28 -0.495,0.479 -0.868,0.596c0.16,0.032 0.304,0.107 0.432,0.224c0.128,0.117 0.229,0.275 0.304,0.472l0.672,1.696Zm-2.544,-3.336c0.32,0 0.552,-0.049 0.696,-0.148c0.144,-0.099 0.216,-0.252 0.216,-0.46c0,-0.219 -0.071,-0.376 -0.212,-0.472c-0.142,-0.096 -0.375,-0.144 -0.7,-0.144l-0.944,0l0,1.224l0.944,0Z" style="fill:#f8f8f8;fill-rule:nonzero;"/>
  </g>
</svg>