<svg width="60px" height="380px" version="1.1" xmlns="http://www.w3.org/2000/svg" xmlns:xlink="http://www.w3.org/1999/xlink" xml:space="preserve" xmlns:serif="http://www.serif.com/" style="fill-rule:evenodd;clip-rule:evenodd;">
  <defs>
    <linearGradient id="_Linear1" x1="0" y1="0" x2="1" y2="0" gradientUnits="userSpaceOnUse" gradientTransform="matrix(0.007008,-37.8989,37.8989,0.007008,45.2834,112.195)">
      <stop offset="0" style="stop-color:#101010;stop-opacity:1"/>
      <stop offset="1" style="stop-color:#101010;stop-opacity:1"/>
    </linearGradient>
    <linearGradient id="_Linear2" x1="0" y1="0" x2="1" y2="0" gradientUnits="userSpaceOnUse" gradientTransform="matrix(-4.75,94.86,-94.86,-4.75,247.47,158.47)">
      <stop offset="0" style="stop-color:#101010;stop-opacity:1"/>
      <stop offset="1" style="stop-color:#101010;stop-opacity:1"/>
    </linearGradient>
    <linearGradient id="_Linear3" x1="0" y1="0" x2="1" y2="0" gradientUnits="userSpaceOnUse" gradientTransform="matrix(-4.88,-92.58,92.58,-4.88,247.47,345.92)">
      <stop offset="0" style="stop-color:#101010;stop-opacity:1"/>
      <stop offset="1" style="stop-color:#101010;stop-opacity:1"/>
    </linearGradient>
    <linearGradient id="_Linear4" x1="0" y1="0" x2="1" y2="0" gradientUnits="userSpaceOnUse" gradientTransform="matrix(1.15392e-16,-1.8845,1.8845,1.15392e-16,27.6195,1.9358)">
      <stop offset="0" style="stop-color:#101010;stop-opacity:1"/>
      <stop offset="1" style="stop-color:#101010;stop-opacity:1"/>
    </linearGradient>
  </defs>
  <g>
    <g>
      <rect x="0" y="0" width="60" height="380" style="fill:url(#_Linear1);"/>
      <rect x="0" y="126.67" width="60" height="126.67" style="fill:url(#_Linear2);"/>
      <rect x="0" y="253.33" width="60" height="126.67" style="fill:url(#_Linear3);"/>
    </g>
    <rect x="0" y="0" width="60" height="380" style="fill:rgb(16,53,80);fill-opacity:0.1;"/>
    <rect x="0" y="0" width="60" height="2" style="fill:url(#_Linear4);"/>
    <path d="M14.694,249.473c-5.359,0 -9.723,4.362 -9.723,9.72l0,23.115c0,5.36 4.364,9.723 9.723,9.723l30.994,0c5.36,0 9.723,-4.363 9.723,-9.723l0,-23.115c0,-5.358 -4.363,-9.72 -9.723,-9.72l-30.994,0Z" style="fill:none;stroke:#f8f8f8;stroke-width:1.2px;"/>
    <path d="M14.578,291.29c-5.507,0 -9.988,4.481 -9.988,9.988l0,13.145c0,0.801 1.201,0.801 1.201,0l0,-13.145c0,-4.857 3.93,-8.789 8.787,-8.789l30.464,0c4.857,0 8.789,3.932 8.789,8.789l0,13.145c0,0.843 1.231,0.831 1.199,0l0,-13.145c0,-5.506 -4.481,-9.988 -9.988,-9.988l-30.464,0Z" style="fill:#f8f8f8;"/>
    <path d="M14.313,154.591c-5.359,0 -9.723,4.362 -9.723,9.721l0,23.115c0,5.359 4.364,9.722 9.723,9.722l30.994,0c5.36,0 9.723,-4.363 9.723,-9.722l0,-23.115c0,-5.359 -4.363,-9.721 -9.723,-9.721l-30.994,0Z" style="fill:none;stroke:#f8f8f8;stroke-width:1.2px;"/>
    <path d="M14.578,196.761c-5.507,0 -9.988,4.482 -9.988,9.988l0,13.145c0,0.801 1.201,0.801 1.201,0l0,-13.145c0,-4.857 3.93,-8.789 8.787,-8.789l30.464,0c4.857,0 8.789,3.932 8.789,8.789l0,13.145c0,0.843 1.231,0.831 1.199,0l0,-13.145c0,-5.506 -4.481,-9.988 -9.988,-9.988l-30.464,0Z" style="fill:#f8f8f8;"/>
    <path d="M7.606,238.92l44.408,0" style="fill:none;stroke:#f8f8f8;stroke-width:1.2px;stroke-linecap:round;"/>
    <path d="M7.796,142.91l44.408,0" style="fill:none;stroke:#f8f8f8;stroke-width:1.2px;stroke-linecap:round;"/>
  </g>
  <g id="Panel">
    <path id="path8355" d="M25.903,130.662c2.737,-4.742 1.665,-10.824 -2.533,-14.346c-4.194,-3.521 -10.372,-3.521 -14.566,0c-4.198,3.522 -5.27,9.604 -2.533,14.346l9.816,-5.666l9.816,5.666Z" style="fill:none;stroke:#f8f8f8;stroke-width:1.04px;"/>
    <path id="path8358" d="M25.531,132.859l0.024,4.409" style="fill:#f8f8f8;fill-rule:nonzero;stroke:#f8f8f8;stroke-width:1.04px;"/>
    <path id="path8361" d="M27.748,135.032l-4.41,0.02" style="fill:#f8f8f8;fill-rule:nonzero;stroke:#f8f8f8;stroke-width:1.04px;"/>
    <path id="path8364" d="M9.428,134.908l-4.414,0.02" style="fill:#f8f8f8;fill-rule:nonzero;stroke:#f8f8f8;stroke-width:1.04px;"/>
    <path id="path8367" d="M16.087,125l-0.024,-13.31" style="fill:none;stroke:#f8f8f8;stroke-width:1.16px;"/>
    <path id="path8370" d="M25.903,130.662c2.737,-4.742 1.665,-10.824 -2.533,-14.346c-4.194,-3.521 -10.372,-3.521 -14.566,0c-4.198,3.522 -5.27,9.604 -2.533,14.346l9.816,-5.666l9.816,5.666Z" style="fill:none;stroke:#f8f8f8;stroke-width:1px;stroke-linecap:round;"/>
    <path id="path8373" d="M25.531,132.859l0.024,4.409" style="fill:#f8f8f8;fill-rule:nonzero;stroke:#f8f8f8;stroke-width:1px;stroke-linecap:round;"/>
    <path id="path8376" d="M27.748,135.032l-4.41,0.02" style="fill:#f8f8f8;fill-rule:nonzero;stroke:#f8f8f8;stroke-width:1px;stroke-linecap:round;"/>
    <path id="path8379" d="M9.428,134.908l-4.414,0.02" style="fill:#f8f8f8;fill-rule:nonzero;stroke:#f8f8f8;stroke-width:1px;stroke-linecap:round;"/>
    <path id="path8390" d="M16.087,125l-0.024,-13.31" style="fill:none;stroke:#f8f8f8;stroke-width:1px;stroke-linecap:round;"/>
    <rect id="rect8393" x="18.73" y="293.596" width="1.569" height="6.035" style="fill:#f8f8f8;"/>
    <path id="path8395" d="M21.563,299.631l0,-6.035l1.568,0l2.898,3.69l0,-3.69l1.56,0l0,6.035l-1.56,0l-2.898,-3.69l0,3.69l-1.568,0Z" style="fill:#f8f8f8;fill-rule:nonzero;"/>
    <path id="path8397" d="M30.423,296.365l0.52,0c0.576,0 0.864,-0.252 0.864,-0.752c0,-0.5 -0.288,-0.752 -0.864,-0.752l-0.52,0l0,1.504Zm0,3.266l-1.569,0l0,-6.035l2.497,0c0.676,0 1.196,0.176 1.557,0.529c0.36,0.352 0.54,0.848 0.54,1.488c0,0.64 -0.18,1.137 -0.54,1.489c-0.361,0.352 -0.881,0.528 -1.557,0.528l-0.928,0l0,2.001Z" style="fill:#f8f8f8;fill-rule:nonzero;"/>
    <path id="path8399" d="M35.849,293.596l0,3.282c0,0.176 0.008,0.356 0.02,0.54c0.012,0.184 0.052,0.352 0.12,0.5c0.068,0.148 0.172,0.272 0.316,0.364c0.144,0.092 0.348,0.14 0.608,0.14c0.26,0 0.464,-0.048 0.604,-0.14c0.141,-0.092 0.249,-0.216 0.317,-0.364c0.068,-0.148 0.112,-0.316 0.124,-0.5c0.012,-0.184 0.02,-0.364 0.02,-0.54l0,-3.282l1.56,0l0,3.498c0,0.94 -0.216,1.624 -0.644,2.057c-0.428,0.432 -1.088,0.648 -1.981,0.648c-0.892,0 -1.552,-0.216 -1.985,-0.648c-0.432,-0.433 -0.648,-1.117 -0.648,-2.057l0,-3.498l1.569,0Z" style="fill:#f8f8f8;fill-rule:nonzero;"/>
    <path id="path8401" d="M43.092,294.925l0,4.706l-1.569,0l0,-4.706l-1.288,0l0,-1.329l4.145,0l0,1.329l-1.288,0Z" style="fill:#f8f8f8;fill-rule:nonzero;"/>
    <path id="path8406" d="M18.89,25.383c-0.268,-0.217 -0.537,-0.379 -0.804,-0.483c-0.269,-0.105 -0.529,-0.157 -0.781,-0.157c-0.318,0 -0.578,0.074 -0.779,0.226c-0.201,0.151 -0.302,0.348 -0.302,0.592c0,0.167 0.05,0.305 0.15,0.414c0.101,0.109 0.233,0.204 0.397,0.283c0.164,0.08 0.348,0.15 0.553,0.208c0.206,0.059 0.409,0.121 0.611,0.188c0.805,0.269 1.393,0.627 1.768,1.076c0.372,0.449 0.559,1.034 0.559,1.754c0,0.488 -0.083,0.927 -0.245,1.322c-0.164,0.394 -0.404,0.732 -0.718,1.012c-0.314,0.281 -0.699,0.499 -1.157,0.655c-0.457,0.155 -0.975,0.232 -1.554,0.232c-1.198,0 -2.31,-0.356 -3.333,-1.068l1.056,-1.989c0.369,0.328 0.734,0.57 1.095,0.73c0.361,0.16 0.716,0.238 1.069,0.238c0.403,0 0.702,-0.091 0.899,-0.275c0.197,-0.185 0.296,-0.394 0.296,-0.63c0,-0.143 -0.025,-0.265 -0.075,-0.371c-0.05,-0.105 -0.134,-0.201 -0.251,-0.289c-0.119,-0.089 -0.271,-0.17 -0.46,-0.246c-0.189,-0.075 -0.417,-0.158 -0.686,-0.25c-0.318,-0.102 -0.631,-0.212 -0.937,-0.335c-0.305,-0.121 -0.578,-0.282 -0.817,-0.483c-0.24,-0.203 -0.433,-0.456 -0.579,-0.762c-0.147,-0.306 -0.22,-0.694 -0.22,-1.163c0,-0.47 0.077,-0.896 0.233,-1.277c0.155,-0.382 0.373,-0.709 0.654,-0.982c0.281,-0.271 0.625,-0.483 1.031,-0.635c0.407,-0.151 0.862,-0.226 1.365,-0.226c0.47,0 0.96,0.065 1.472,0.195c0.511,0.13 1.002,0.32 1.472,0.572l-0.982,1.924Z" style="fill:#f8f8f8;fill-rule:nonzero;"/>
    <path id="path8408" d="M27.205,25.044l-2.93,0l0,1.585l2.768,0l0,2.088l-2.768,0l0,1.636l2.93,0l0,2.088l-5.395,0l0,-9.484l5.395,0l0,2.087Z" style="fill:#f8f8f8;fill-rule:nonzero;"/>
    <path id="path8410" d="M28.979,32.441l0,-9.484l2.466,0l4.554,5.799l0,-5.799l2.453,0l0,9.484l-2.453,0l-4.554,-5.799l0,5.799l-2.466,0Z" style="fill:#f8f8f8;fill-rule:nonzero;"/>
    <path id="path8412" d="M42.906,30.353l0.566,0c0.428,0 0.808,-0.067 1.144,-0.201c0.336,-0.135 0.619,-0.319 0.85,-0.554c0.23,-0.235 0.406,-0.513 0.527,-0.837c0.123,-0.322 0.183,-0.677 0.183,-1.063c0,-0.377 -0.063,-0.73 -0.188,-1.056c-0.127,-0.328 -0.305,-0.609 -0.535,-0.843c-0.231,-0.235 -0.513,-0.42 -0.849,-0.553c-0.336,-0.134 -0.714,-0.202 -1.132,-0.202l-0.566,0l0,5.309Zm-2.467,-7.396l3.648,0c0.646,0 1.252,0.129 1.818,0.389c0.566,0.261 1.062,0.606 1.485,1.038c0.424,0.432 0.757,0.935 1.001,1.509c0.242,0.575 0.365,1.177 0.365,1.805c0,0.621 -0.12,1.219 -0.36,1.793c-0.238,0.574 -0.57,1.08 -0.994,1.516c-0.423,0.437 -0.917,0.784 -1.483,1.044c-0.566,0.26 -1.176,0.39 -1.832,0.39l-3.648,0l0,-9.484Z" style="fill:#f8f8f8;fill-rule:nonzero;"/>
    <path id="path8417" d="M50.143,86.847c5.718,-9.906 3.48,-22.611 -5.286,-29.963c-8.761,-7.353 -21.66,-7.353 -30.422,0c-8.762,7.352 -11.004,20.057 -5.282,29.963" style="fill:none;stroke:#f8f8f8;stroke-width:1.5px;stroke-linecap:round;"/>
    <path id="path9630" d="M49.369,89.338l0.05,9.217" style="fill:#f8f8f8;stroke:#f8f8f8;stroke-width:1.5px;stroke-linecap:round;"/>
    <path id="path9630-1" d="M54,93.88l-9.213,0.043" style="fill:#f8f8f8;stroke:#f8f8f8;stroke-width:1.5px;stroke-linecap:round;"/>
    <path id="path9630-1-6" d="M15.739,93.619l-9.213,0.043" style="fill:#f8f8f8;stroke:#f8f8f8;stroke-width:1.5px;stroke-linecap:round;"/>
    <path id="path9948" d="M29.646,75.018l-0.047,-26.347" style="fill:none;stroke:#f8f8f8;stroke-width:1.5px;stroke-linecap:round;"/>
    <path id="path8426" d="M17.876,107.964l0.344,0c0.397,0 0.677,-0.052 0.849,-0.152c0.172,-0.1 0.256,-0.264 0.256,-0.488c0,-0.224 -0.084,-0.388 -0.256,-0.488c-0.172,-0.1 -0.452,-0.152 -0.849,-0.152l-0.344,0l0,1.28Zm0,-2.449l0.288,0c0.493,0 0.737,-0.196 0.737,-0.584c0,-0.388 -0.244,-0.584 -0.737,-0.584l-0.288,0l0,1.168Zm-1.568,-2.369l2.337,0c0.556,0 0.976,0.132 1.264,0.4c0.288,0.269 0.432,0.653 0.432,1.153c0,0.304 -0.056,0.556 -0.164,0.756c-0.108,0.2 -0.276,0.368 -0.5,0.508c0.224,0.044 0.416,0.109 0.572,0.197c0.156,0.088 0.284,0.196 0.384,0.324c0.1,0.128 0.168,0.272 0.212,0.432c0.044,0.16 0.064,0.332 0.064,0.512c0,0.284 -0.048,0.532 -0.148,0.752c-0.1,0.22 -0.236,0.405 -0.416,0.553c-0.18,0.148 -0.396,0.26 -0.652,0.336c-0.256,0.076 -0.544,0.112 -0.864,0.112l-2.521,0l0,-6.035Z" style="fill:#f8f8f8;fill-rule:nonzero;"/>
    <path id="path8428" d="M23.415,103.146l0,4.706l1.88,0l0,1.329l-3.449,0l0,-6.035l1.569,0Z" style="fill:#f8f8f8;fill-rule:nonzero;"/>
    <path id="path8430" d="M29.537,104.475l-1.865,0l0,1.008l1.761,0l0,1.329l-1.761,0l0,1.04l1.865,0l0,1.329l-3.433,0l0,-6.035l3.433,0l0,1.329Z" style="fill:#f8f8f8;fill-rule:nonzero;"/>
    <path id="path8432" d="M30.666,109.181l0,-6.035l1.568,0l2.897,3.69l0,-3.69l1.561,0l0,6.035l-1.561,0l-2.897,-3.69l0,3.69l-1.568,0Z" style="fill:#f8f8f8;fill-rule:nonzero;"/>
    <path id="path8434" d="M39.525,107.852l0.36,0c0.272,0 0.517,-0.044 0.729,-0.128c0.212,-0.084 0.392,-0.204 0.54,-0.352c0.148,-0.148 0.26,-0.328 0.336,-0.532c0.076,-0.204 0.116,-0.432 0.116,-0.676c0,-0.241 -0.04,-0.465 -0.12,-0.673c-0.08,-0.208 -0.192,-0.388 -0.34,-0.536c-0.148,-0.148 -0.328,-0.268 -0.54,-0.352c-0.212,-0.084 -0.453,-0.128 -0.721,-0.128l-0.36,0l0,3.377Zm-1.568,-4.706l2.321,0c0.412,0 0.796,0.084 1.156,0.248c0.36,0.164 0.676,0.385 0.944,0.661c0.268,0.276 0.481,0.596 0.637,0.96c0.156,0.364 0.232,0.748 0.232,1.149c0,0.396 -0.076,0.776 -0.228,1.14c-0.152,0.364 -0.365,0.688 -0.633,0.964c-0.268,0.277 -0.584,0.501 -0.944,0.665c-0.36,0.164 -0.748,0.248 -1.164,0.248l-2.321,0l0,-6.035Z" style="fill:#f8f8f8;fill-rule:nonzero;"/>
    <path id="path42" d="M18.394,356.094l1.752,0l1.632,5.451l1.687,-5.451l1.743,0l-2.268,6.814c-0.212,0.628 -0.591,0.942 -1.139,0.942c-0.555,0 -0.938,-0.317 -1.15,-0.952l-2.257,-6.804Z" style="fill:rgb(173,181,187);fill-rule:nonzero;"/>
    <path id="path44" d="M25.339,361.856l0,-5.762l1.643,0l0,5.707c0.029,0.205 0.219,0.307 0.57,0.307l1.117,0c0.336,0 0.522,-0.095 0.559,-0.285l0.011,-0.054l0,-5.675l1.643,0l0,5.751c0,0.504 -0.055,0.862 -0.165,1.074c-0.292,0.562 -0.806,0.843 -1.544,0.843l-2.125,0c-0.76,0 -1.278,-0.288 -1.556,-0.865c-0.102,-0.212 -0.153,-0.559 -0.153,-1.041l0,0Z" style="fill:rgb(173,181,187);fill-rule:nonzero;"/>
    <path id="path46" d="M31.638,361.889l0,-5.794l1.643,0l0,5.663c0,0.233 0.138,0.35 0.416,0.35l2.925,0l-0.011,1.654l-3.057,0c-0.109,0 -0.204,-0.004 -0.284,-0.011c-0.592,-0.051 -1.012,-0.224 -1.26,-0.52c-0.248,-0.296 -0.372,-0.743 -0.372,-1.342l0,0Z" style="fill:rgb(173,181,187);fill-rule:nonzero;"/>
    <path id="path48" d="M36.676,357.748l0,-1.654l4.929,0l0,1.654l-1.654,0l0,6.014l-1.643,0l0,-6.014l-1.632,0Z" style="fill:rgb(173,181,187);fill-rule:nonzero;"/>
    <path id="path4" d="M38.383,346.417c0,-4.509 -3.655,-8.164 -8.164,-8.164c-4.509,0 -8.165,3.655 -8.165,8.164c0,4.509 3.655,8.165 8.165,8.165c4.509,0 8.164,-3.656 8.164,-8.165Z" style="fill:rgb(117,117,117);fill-rule:nonzero;stroke:rgb(65,76,85);stroke-width:0.61px;stroke-miterlimit:10;"/>
    <path id="polygon6" d="M28.321,351.394l0.553,-0.891l-1.064,-2.393l-2.216,-2.284l0.46,3.101l0.597,1.28l0.833,1.264l0.837,-0.077Z" style="fill:rgb(43,43,43);fill-rule:nonzero;"/>
    <path id="polygon8" d="M32.048,351.401l-0.553,-0.89l1.064,-2.393l2.216,-2.285l-0.46,3.101l-0.597,1.281l-0.833,1.263l-0.837,-0.077Z" style="fill:#101010;fill-rule:nonzero;"/>
    <path id="polygon12" d="M27.636,340.359l2.584,-0.66l0,13.447l-1.349,-2.651l-1.061,-2.385l-1.023,-0.581l-2.051,-2.92l-0.057,-0.776l1.148,-2.067l1.809,-1.407Z" style="fill:rgb(66,66,66);fill-rule:nonzero;"/>
    <path id="polygon14" d="M32.801,340.364l-2.584,-0.661l0,13.448l1.35,-2.651l1.06,-2.385l1.023,-0.581l2.051,-2.921l0.058,-0.775l-1.149,-2.067l-1.809,-1.407Z" style="fill:rgb(51,51,51);fill-rule:nonzero;"/>
    <path id="polyline16" d="M28.496,346.237l1.723,-1.684l0,1.229l-1.723,1.719l0,-1.264" style="fill:rgb(76,76,76);fill-rule:nonzero;"/>
    <path id="polygon18" d="M30.22,345.781l-1.723,1.718l0.377,3.004l1.346,2.643l0,-7.365Z" style="fill:rgb(91,91,91);fill-rule:nonzero;"/>
    <path id="polygon20" d="M30.22,353.146l-1.346,-2.643l1.346,-0.635l0,3.278Z" style="fill:rgb(51,51,51);fill-rule:nonzero;"/>
    <path id="polygon22" d="M28.497,347.499l0,-1.263l-1.249,-1.58l-1.477,-1.19l-0.001,0.932l0.775,1.823l1.952,1.278Z" style="fill:#f8f8f8;fill-rule:nonzero;"/>
    <path id="polyline24" d="M31.942,346.238l-1.723,-1.685l0,1.23l1.723,1.718l0,-1.263" style="fill:rgb(45,45,45);fill-rule:nonzero;"/>
    <path id="polygon26" d="M30.218,345.781l1.722,1.718l-0.376,3.004l-1.347,2.643l0.001,-7.365Z" style="fill:rgb(53,53,53);fill-rule:nonzero;"/>
    <path id="polygon28" d="M30.217,353.146l1.347,-2.643l-1.346,-0.635l-0.001,3.278Z" style="fill:#101010;fill-rule:nonzero;"/>
    <path id="polygon30" d="M31.94,347.499l0,-1.263l1.249,-1.58l1.478,-1.19l0.001,0.932l-0.775,1.823l-1.953,1.278Z" style="fill:#f8f8f8;fill-rule:nonzero;"/>
    <path id="polyline32" d="M27.652,340.338l2.566,4.215l-0.005,-4.87" style="fill:rgb(56,56,56);fill-rule:nonzero;"/>
    <path id="polyline34" d="M32.785,340.338l-2.566,4.215l0.006,-4.869" style="fill:rgb(45,45,45);fill-rule:nonzero;"/>
    <path id="polygon36" d="M27.811,348.111l0.688,-0.611l0.375,3.006l-1.063,-2.395Z" style="fill:rgb(51,51,51);fill-rule:nonzero;"/>
    <path id="polygon38" d="M32.631,348.125l-0.688,-0.61l-0.375,3.006l1.063,-2.396Z" style="fill:rgb(28,28,28);fill-rule:nonzero;"/>
    <path id="path8471" d="M15.692,285.139l0,4.116l1.645,0l0,1.162l-3.017,0l0,-5.278l1.372,0Z" style="fill:rgb(128,128,128);fill-rule:nonzero;"/>
    <path id="path8475" d="M44.624,287.498l0.259,0c0.271,0 0.479,-0.056 0.623,-0.168c0.145,-0.112 0.217,-0.273 0.217,-0.483c0,-0.21 -0.072,-0.371 -0.217,-0.483c-0.144,-0.112 -0.352,-0.168 -0.623,-0.168l-0.259,0l0,1.302Zm3.017,2.919l-1.708,0l-1.309,-2.03l0,2.03l-1.372,0l0,-5.278l2.135,0c0.294,0 0.551,0.043 0.77,0.13c0.22,0.086 0.401,0.204 0.543,0.353c0.142,0.149 0.25,0.322 0.322,0.518c0.072,0.196 0.108,0.406 0.108,0.63c0,0.401 -0.096,0.727 -0.29,0.977c-0.194,0.249 -0.48,0.418 -0.858,0.507l1.659,2.163Z" style="fill:rgb(128,128,128);fill-rule:nonzero;"/>
    <path id="path8487" d="M15.692,189.851l0,3.561l1.645,0l0,1.005l-3.017,0l0,-4.566l1.372,0Z" style="fill:rgb(140,140,140);fill-rule:nonzero;"/>
    <path id="path8491" d="M44.624,191.892l0.259,0c0.271,0 0.479,-0.049 0.623,-0.145c0.145,-0.097 0.217,-0.237 0.217,-0.418c0,-0.182 -0.072,-0.321 -0.217,-0.418c-0.144,-0.097 -0.352,-0.146 -0.623,-0.146l-0.259,0l0,1.127Zm3.017,2.525l-1.708,0l-1.309,-1.756l0,1.756l-1.372,0l0,-4.566l2.135,0c0.294,0 0.551,0.037 0.77,0.113c0.22,0.074 0.401,0.176 0.543,0.305c0.142,0.129 0.25,0.278 0.322,0.448c0.072,0.17 0.108,0.351 0.108,0.545c0,0.347 -0.096,0.629 -0.29,0.845c-0.194,0.216 -0.48,0.362 -0.858,0.439l1.659,1.871Z" style="fill:rgb(140,140,140);fill-rule:nonzero;"/>
    <path id="path8507" d="M14.642,255.782c0,0.24 0.044,0.46 0.136,0.664c0.092,0.204 0.212,0.38 0.368,0.528c0.156,0.148 0.336,0.264 0.54,0.348c0.204,0.084 0.424,0.124 0.652,0.124c0.228,0 0.449,-0.04 0.653,-0.124c0.204,-0.084 0.388,-0.2 0.544,-0.348c0.156,-0.148 0.28,-0.324 0.372,-0.528c0.092,-0.204 0.136,-0.424 0.136,-0.664c0,-0.241 -0.044,-0.461 -0.136,-0.665c-0.092,-0.204 -0.216,-0.38 -0.372,-0.528c-0.156,-0.148 -0.34,-0.264 -0.544,-0.348c-0.204,-0.084 -0.425,-0.124 -0.653,-0.124c-0.228,0 -0.448,0.04 -0.652,0.124c-0.204,0.084 -0.384,0.2 -0.54,0.348c-0.156,0.148 -0.276,0.324 -0.368,0.528c-0.092,0.204 -0.136,0.424 -0.136,0.665Zm-1.641,0c0,-0.449 0.084,-0.865 0.248,-1.253c0.164,-0.388 0.396,-0.724 0.688,-1.012c0.292,-0.289 0.645,-0.513 1.053,-0.677c0.408,-0.164 0.856,-0.244 1.348,-0.244c0.485,0 0.933,0.08 1.345,0.244c0.412,0.164 0.764,0.388 1.06,0.677c0.296,0.288 0.529,0.624 0.693,1.012c0.164,0.388 0.248,0.804 0.248,1.253c0,0.448 -0.084,0.864 -0.248,1.252c-0.164,0.388 -0.397,0.724 -0.693,1.012c-0.296,0.289 -0.648,0.513 -1.06,0.677c-0.412,0.164 -0.86,0.244 -1.345,0.244c-0.492,0 -0.94,-0.08 -1.348,-0.244c-0.408,-0.164 -0.761,-0.388 -1.053,-0.677c-0.292,-0.288 -0.524,-0.624 -0.688,-1.012c-0.164,-0.388 -0.248,-0.804 -0.248,-1.252Z" style="fill:#f8f8f8;fill-rule:nonzero;"/>
    <path id="path8509" d="M22.245,252.764l0,3.282c0,0.176 0.008,0.356 0.02,0.54c0.012,0.184 0.052,0.352 0.12,0.5c0.068,0.148 0.172,0.272 0.316,0.364c0.144,0.092 0.348,0.14 0.608,0.14c0.26,0 0.464,-0.048 0.604,-0.14c0.141,-0.092 0.249,-0.216 0.317,-0.364c0.068,-0.148 0.112,-0.316 0.124,-0.5c0.012,-0.184 0.02,-0.364 0.02,-0.54l0,-3.282l1.56,0l0,3.498c0,0.94 -0.216,1.624 -0.644,2.057c-0.428,0.432 -1.088,0.648 -1.981,0.648c-0.892,0 -1.552,-0.216 -1.985,-0.648c-0.432,-0.433 -0.648,-1.117 -0.648,-2.057l0,-3.498l1.569,0Z" style="fill:#f8f8f8;fill-rule:nonzero;"/>
    <path id="path8511" d="M29.488,254.093l0,4.706l-1.569,0l0,-4.706l-1.288,0l0,-1.329l4.145,0l0,1.329l-1.288,0Z" style="fill:#f8f8f8;fill-rule:nonzero;"/>
    <path id="path8513" d="M33.041,255.533l0.52,0c0.577,0 0.865,-0.252 0.865,-0.752c0,-0.5 -0.288,-0.752 -0.865,-0.752l-0.52,0l0,1.504Zm0,3.266l-1.568,0l0,-6.035l2.497,0c0.676,0 1.196,0.176 1.556,0.529c0.36,0.352 0.541,0.848 0.541,1.488c0,0.64 -0.181,1.137 -0.541,1.489c-0.36,0.352 -0.88,0.528 -1.556,0.528l-0.929,0l0,2.001Z" style="fill:#f8f8f8;fill-rule:nonzero;"/>
    <path id="path8515" d="M38.468,252.764l0,3.282c0,0.176 0.008,0.356 0.02,0.54c0.012,0.184 0.052,0.352 0.12,0.5c0.068,0.148 0.172,0.272 0.316,0.364c0.144,0.092 0.348,0.14 0.608,0.14c0.26,0 0.464,-0.048 0.604,-0.14c0.14,-0.092 0.248,-0.216 0.316,-0.364c0.068,-0.148 0.112,-0.316 0.124,-0.5c0.012,-0.184 0.02,-0.364 0.02,-0.54l0,-3.282l1.561,0l0,3.498c0,0.94 -0.216,1.624 -0.644,2.057c-0.428,0.432 -1.089,0.648 -1.981,0.648c-0.892,0 -1.553,-0.216 -1.985,-0.648c-0.432,-0.433 -0.648,-1.117 -0.648,-2.057l0,-3.498l1.569,0Z" style="fill:#f8f8f8;fill-rule:nonzero;"/>
    <path id="path8517" d="M45.711,254.093l0,4.706l-1.569,0l0,-4.706l-1.289,0l0,-1.329l4.146,0l0,1.329l-1.288,0Z" style="fill:#f8f8f8;fill-rule:nonzero;"/>
    <path id="path8522" d="M22.435,158.309c-0.172,-0.14 -0.34,-0.24 -0.512,-0.308c-0.172,-0.068 -0.336,-0.1 -0.496,-0.1c-0.204,0 -0.368,0.048 -0.496,0.144c-0.128,0.096 -0.192,0.22 -0.192,0.376c0,0.108 0.032,0.196 0.096,0.264c0.064,0.068 0.148,0.128 0.252,0.18c0.104,0.052 0.22,0.096 0.352,0.132c0.132,0.036 0.26,0.076 0.388,0.12c0.512,0.172 0.889,0.4 1.125,0.685c0.236,0.284 0.356,0.656 0.356,1.116c0,0.308 -0.052,0.588 -0.156,0.84c-0.104,0.252 -0.256,0.465 -0.456,0.645c-0.201,0.18 -0.445,0.316 -0.737,0.416c-0.292,0.1 -0.62,0.148 -0.988,0.148c-0.765,0 -1.469,-0.228 -2.121,-0.68l0.672,-1.265c0.236,0.208 0.468,0.364 0.696,0.464c0.229,0.1 0.457,0.152 0.681,0.152c0.256,0 0.448,-0.06 0.572,-0.176c0.124,-0.116 0.188,-0.252 0.188,-0.4c0,-0.092 -0.016,-0.168 -0.048,-0.236c-0.032,-0.068 -0.084,-0.128 -0.16,-0.184c-0.076,-0.056 -0.172,-0.108 -0.292,-0.156c-0.12,-0.048 -0.264,-0.1 -0.436,-0.16c-0.204,-0.064 -0.4,-0.136 -0.597,-0.212c-0.196,-0.076 -0.368,-0.18 -0.52,-0.308c-0.152,-0.128 -0.276,-0.289 -0.368,-0.485c-0.092,-0.196 -0.14,-0.44 -0.14,-0.74c0,-0.3 0.048,-0.568 0.148,-0.812c0.1,-0.244 0.236,-0.452 0.416,-0.625c0.18,-0.172 0.396,-0.308 0.657,-0.404c0.26,-0.096 0.548,-0.144 0.868,-0.144c0.3,0 0.612,0.04 0.936,0.124c0.324,0.084 0.637,0.204 0.937,0.364l-0.625,1.225Z" style="fill:#f8f8f8;fill-rule:nonzero;"/>
    <path id="path8524" d="M27.726,158.093l-1.865,0l0,1.008l1.761,0l0,1.329l-1.761,0l0,1.04l1.865,0l0,1.329l-3.434,0l0,-6.035l3.434,0l0,1.329Z" style="fill:#f8f8f8;fill-rule:nonzero;"/>
    <path id="path8526" d="M28.854,162.799l0,-6.035l1.569,0l2.897,3.69l0,-3.69l1.561,0l0,6.035l-1.561,0l-2.897,-3.69l0,3.69l-1.569,0Z" style="fill:#f8f8f8;fill-rule:nonzero;"/>
    <path id="path8528" d="M37.714,161.47l0.36,0c0.272,0 0.516,-0.044 0.728,-0.128c0.212,-0.084 0.392,-0.204 0.54,-0.352c0.148,-0.148 0.261,-0.328 0.337,-0.532c0.076,-0.204 0.116,-0.432 0.116,-0.676c0,-0.241 -0.04,-0.465 -0.12,-0.673c-0.08,-0.208 -0.193,-0.388 -0.341,-0.536c-0.148,-0.148 -0.328,-0.268 -0.54,-0.352c-0.212,-0.084 -0.452,-0.128 -0.72,-0.128l-0.36,0l0,3.377Zm-1.569,-4.706l2.321,0c0.412,0 0.796,0.084 1.157,0.248c0.36,0.164 0.676,0.385 0.944,0.661c0.268,0.276 0.48,0.596 0.636,0.96c0.156,0.364 0.232,0.748 0.232,1.149c0,0.396 -0.076,0.776 -0.228,1.14c-0.152,0.364 -0.364,0.688 -0.632,0.964c-0.268,0.277 -0.584,0.501 -0.944,0.665c-0.361,0.164 -0.749,0.248 -1.165,0.248l-2.321,0l0,-6.035Z" style="fill:#f8f8f8;fill-rule:nonzero;"/>
    <path id="path8533" d="M14.662,201.461l0.296,0c0.308,0 0.548,-0.064 0.712,-0.192c0.164,-0.128 0.248,-0.312 0.248,-0.552c0,-0.24 -0.084,-0.424 -0.248,-0.552c-0.164,-0.128 -0.404,-0.192 -0.712,-0.192l-0.296,0l0,1.488Zm3.449,3.338l-1.953,0l-1.496,-2.321l0,2.321l-1.569,0l0,-6.035l2.441,0c0.336,0 0.628,0.048 0.881,0.148c0.252,0.1 0.456,0.232 0.62,0.405c0.164,0.172 0.284,0.368 0.368,0.592c0.084,0.224 0.124,0.464 0.124,0.72c0,0.46 -0.112,0.832 -0.332,1.117c-0.22,0.284 -0.548,0.48 -0.981,0.58l1.897,2.473Z" style="fill:#f8f8f8;fill-rule:nonzero;"/>
    <path id="path8535" d="M22.201,200.093l-1.865,0l0,1.008l1.761,0l0,1.329l-1.761,0l0,1.04l1.865,0l0,1.329l-3.434,0l0,-6.035l3.434,0l0,1.329Z" style="fill:#f8f8f8;fill-rule:nonzero;"/>
    <path id="path8537" d="M25.618,200.093l0,4.706l-1.568,0l0,-4.706l-1.289,0l0,-1.329l4.146,0l0,1.329l-1.289,0Z" style="fill:#f8f8f8;fill-rule:nonzero;"/>
    <path id="path8539" d="M29.172,198.764l0,3.282c0,0.176 0.008,0.356 0.02,0.54c0.012,0.184 0.052,0.352 0.12,0.5c0.068,0.148 0.172,0.272 0.316,0.364c0.144,0.092 0.348,0.14 0.608,0.14c0.26,0 0.464,-0.048 0.604,-0.14c0.141,-0.092 0.249,-0.216 0.317,-0.364c0.068,-0.148 0.112,-0.316 0.124,-0.5c0.012,-0.184 0.02,-0.364 0.02,-0.54l0,-3.282l1.56,0l0,3.498c0,0.94 -0.216,1.624 -0.644,2.057c-0.428,0.432 -1.088,0.648 -1.981,0.648c-0.892,0 -1.552,-0.216 -1.985,-0.648c-0.432,-0.433 -0.648,-1.117 -0.648,-2.057l0,-3.498l1.569,0Z" style="fill:#f8f8f8;fill-rule:nonzero;"/>
    <path id="path8541" d="M35.695,201.461l0.296,0c0.308,0 0.548,-0.064 0.712,-0.192c0.164,-0.128 0.248,-0.312 0.248,-0.552c0,-0.24 -0.084,-0.424 -0.248,-0.552c-0.164,-0.128 -0.404,-0.192 -0.712,-0.192l-0.296,0l0,1.488Zm3.449,3.338l-1.953,0l-1.496,-2.321l0,2.321l-1.569,0l0,-6.035l2.441,0c0.336,0 0.628,0.048 0.88,0.148c0.252,0.1 0.456,0.232 0.62,0.405c0.165,0.172 0.285,0.368 0.369,0.592c0.084,0.224 0.124,0.464 0.124,0.72c0,0.46 -0.112,0.832 -0.332,1.117c-0.221,0.284 -0.549,0.48 -0.981,0.58l1.897,2.473Z" style="fill:#f8f8f8;fill-rule:nonzero;"/>
    <path id="path8543" d="M39.8,204.799l0,-6.035l1.569,0l2.897,3.69l0,-3.69l1.561,0l0,6.035l-1.561,0l-2.897,-3.69l0,3.69l-1.569,0Z" style="fill:#f8f8f8;fill-rule:nonzero;"/>
  </g>
</svg>