<svg width="120px" height="380px" version="1.1" xmlns="http://www.w3.org/2000/svg" xmlns:xlink="http://www.w3.org/1999/xlink" xml:space="preserve" xmlns:serif="http://www.serif.com/" style="fill-rule:evenodd;clip-rule:evenodd;stroke-linecap:round;stroke-linejoin:round;stroke-miterlimit:1.5;">
  <defs>
    <linearGradient id="_Linear1" x1="0" y1="0" x2="1" y2="0" gradientUnits="userSpaceOnUse" gradientTransform="matrix(0.007008,-37.8989,37.8989,0.007008,60.2834,112.195)">
      <stop offset="0" style="stop-color:#101010;stop-opacity:1"/>
      <stop offset="1" style="stop-color:#101010;stop-opacity:1"/>
    </linearGradient>
    <linearGradient id="_Linear2" x1="0" y1="0" x2="1" y2="0" gradientUnits="userSpaceOnUse" gradientTransform="matrix(-4.75,94.86,-94.86,-4.75,262.55,158.47)">
      <stop offset="0" style="stop-color:#101010;stop-opacity:1"/>
      <stop offset="1" style="stop-color:#101010;stop-opacity:1"/>
    </linearGradient>
    <linearGradient id="_Linear3" x1="0" y1="0" x2="1" y2="0" gradientUnits="userSpaceOnUse" gradientTransform="matrix(-4.88,-92.58,92.58,-4.88,262.55,345.92)">
      <stop offset="0" style="stop-color:#101010;stop-opacity:1"/>
      <stop offset="1" style="stop-color:#101010;stop-opacity:1"/>
    </linearGradient>
    <linearGradient id="_Linear4" x1="0" y1="0" x2="1" y2="0" gradientUnits="userSpaceOnUse" gradientTransform="matrix(1.15392e-16,-1.8845,1.8845,1.15392e-16,41.519,1.9395)">
      <stop offset="0" style="stop-color:#101010;stop-opacity:1"/>
      <stop offset="1" style="stop-color:#101010;stop-opacity:1"/>
    </linearGradient>
  </defs>
  <g id="Panel">
    <g>
      <rect x="0" y="0.002" width="120" height="380" style="fill:url(#_Linear1);"/>
      <rect x="0" y="126.67" width="120" height="126.67" style="fill:url(#_Linear2);"/>
      <rect x="0" y="253.33" width="120" height="126.66" style="fill:url(#_Linear3);"/>
      <rect x="0" y="0" width="120" height="380" style="fill:rgb(16,53,80);fill-opacity:0.1;"/>
      <rect x="0" y="0.003" width="120" height="2" style="fill:url(#_Linear4);"/>
    </g>
    <g>
      <path d="M11.052,228.255l4.579,0" style="fill:none;stroke:#f8f8f8;stroke-width:1px;"/>
      <path d="M29.052,228.255l4.579,0" style="fill:none;stroke:#f8f8f8;stroke-width:1px;"/>
      <path d="M31.252,230.719l0,-4.579" style="fill:none;stroke:#f8f8f8;stroke-width:1px;"/>
      <path d="M32.152,225.051c0.945,-1.706 1.442,-3.624 1.442,-5.575c0,-6.347 -5.153,-11.5 -11.5,-11.5c-6.348,0 -11.5,5.153 -11.5,11.5c0,2.019 0.531,4.002 1.54,5.75l9.96,-5.75l10.058,5.575Z" style="fill:none;stroke:#f8f8f8;stroke-width:1px;"/>
    </g>
    <g>
      <path d="M86.102,228.279l4.579,0" style="fill:none;stroke:#f8f8f8;stroke-width:1px;"/>
      <path d="M104.102,228.279l4.579,0" style="fill:none;stroke:#f8f8f8;stroke-width:1px;"/>
      <path d="M106.302,230.743l0,-4.579" style="fill:none;stroke:#f8f8f8;stroke-width:1px;"/>
      <path d="M107.201,225.075c0.946,-1.706 1.442,-3.624 1.442,-5.575c0,-6.347 -5.153,-11.5 -11.5,-11.5c-6.347,0 -11.5,5.153 -11.5,11.5c0,2.019 0.531,4.002 1.541,5.75l9.959,-5.75l10.058,5.575Z" style="fill:none;stroke:#f8f8f8;stroke-width:1px;"/>
    </g>
    <path d="M60,47.744c-7.925,0 -15.848,2.688 -22.258,8.065c-12.82,10.758 -16.096,29.349 -7.73,43.841c0.107,0.186 0.305,0.3 0.519,0.3c0.329,0 0.6,-0.271 0.6,-0.6c0,-0.106 -0.027,-0.21 -0.08,-0.301c-8.076,-13.991 -4.913,-31.935 7.463,-42.32c12.375,-10.379 30.599,-10.379 42.975,0c12.375,10.386 15.537,28.329 7.46,42.32c-0.053,0.091 -0.08,0.195 -0.08,0.301c0,0.329 0.271,0.6 0.6,0.6c0.214,0 0.412,-0.114 0.52,-0.3c8.365,-14.493 5.09,-33.083 -7.729,-43.842c-6.41,-5.376 -14.335,-8.064 -22.26,-8.064Zm-29.098,56.055c-2.371,0 -4.307,1.936 -4.307,4.307c0,2.371 1.936,4.304 4.307,4.304c2.371,0 4.307,-1.933 4.307,-4.304c0,-2.371 -1.936,-4.307 -4.307,-4.307Zm58.779,0.1c-2.317,0 -4.207,1.89 -4.207,4.207c0,2.317 1.89,4.205 4.207,4.205c2.317,0 4.205,-1.888 4.205,-4.205c0,-2.317 -1.888,-4.207 -4.205,-4.207Zm-58.779,1.099c1.723,0 3.106,1.385 3.106,3.108c0,1.722 -1.383,3.105 -3.106,3.105c-1.722,0 -3.105,-1.383 -3.105,-3.105c0,-1.723 1.383,-3.108 3.105,-3.108Z" style="fill:#f8f8f8;"/>
    <path d="M88.057,305.77c-5.359,0 -9.723,4.364 -9.723,9.723l0,23.115c0,5.359 4.364,9.72 9.723,9.72l18.244,0c5.36,0 9.721,-4.361 9.721,-9.72l0,-23.115c0,-5.359 -4.361,-9.723 -9.721,-9.723l-18.244,0Z" style="fill:none;stroke:#f8f8f8;stroke-width:1.2px;stroke-linejoin:miter;stroke-miterlimit:4;"/>
    <path d="M59.689,321.322l-3.437,0.846l3.441,5.65l0,-1.58l-0.004,-4.916Zm0.62,0.008l-0.006,4.908l0,1.58l3.436,-5.642l-3.43,-0.846Zm-4.512,1.238l-2.631,2.05l-1.779,3.198l0.082,1.076l1.353,1.926l0.002,0.003c0.008,0.008 0.014,0.012 0.02,0.019l1.846,2.614l0.877,0.513l0.533,0.303l0.654,-0.584l-2.826,-1.848c-0.049,-0.034 -0.087,-0.08 -0.109,-0.134l-1.256,-2.938c-0.016,-0.038 -0.024,-0.076 -0.024,-0.117l0,-1.498c-0.003,-0.184 0.158,-0.327 0.34,-0.303c0.057,0.008 0.11,0.031 0.155,0.067l2.376,1.918c0.017,0.015 0.032,0.03 0.045,0.045l1.807,2.281l2.361,-2.305l-3.826,-6.286Zm8.404,0l-3.824,6.285l2.361,2.305l1.807,-2.282c0.013,-0.015 0.028,-0.03 0.045,-0.045l2.377,-1.918c0.044,-0.037 0.097,-0.059 0.154,-0.066c0.182,-0.023 0.343,0.119 0.34,0.303l0,1.498c0,0.04 -0.008,0.08 -0.024,0.117l-1.255,2.937c-0.023,0.055 -0.061,0.102 -0.11,0.135l-2.826,1.848l0.654,0.584l0.534,-0.303l0.877,-0.514l1.845,-2.613c0.006,-0.007 0.013,-0.011 0.02,-0.019l0.002,-0.003l1.353,-1.926l0.082,-1.076l-1.779,-3.198l-2.633,-2.049Zm-4.506,7.05l-2.168,2.117l0,1.188l2.168,-2.168l0,-1.137Zm0.608,0l0,1.137l2.168,2.168l0,-1.188l-2.168,-2.117Zm0,1.992l0,5.657l1.615,0.764l0.537,-4.274l-2.152,-2.147Zm-0.608,0.002l-2.15,2.145l0.537,4.273l1.613,-0.761l0,-5.657Zm-6.586,0.661l0.588,3.587l0.946,2.024l1.218,1.846l1.018,-0.09l0.66,-1.055l-1.613,-3.637l-0.051,-0.105l-0.608,-0.355l-0.935,-0.532c-0.041,-0.022 -0.076,-0.051 -0.104,-0.088l-1.119,-1.595Zm13.782,0l-1.12,1.595c-0.027,0.038 -0.062,0.067 -0.103,0.088l-0.936,0.531l-0.607,0.356l-0.051,0.105l-1.613,3.637l0.66,1.055l1.018,0.09l1.218,-1.846l0.946,-2.023l0.588,-3.588Zm-9.885,1.994l-0.512,0.453l0.147,0.332l0.621,1.307l-0.256,-2.092Zm5.988,0l-0.256,2.092l0.621,-1.307l0.147,-0.332l-0.512,-0.453Zm-2.691,3.666l0,3.527l1.451,-2.846l-1.451,-0.681Zm-0.608,0.002l-1.449,0.679l1.449,2.842l0,-3.521Z" style="fill:#f8f8f8;"/>
    <g>
      <path d="M60.004,317.618c-7.53,0 -13.649,6.113 -13.649,13.642c0,7.53 6.119,13.649 13.649,13.649c7.53,0 13.641,-6.119 13.641,-13.649c0,-7.529 -6.111,-13.642 -13.641,-13.642Zm0,0.997c6.989,0 12.645,5.656 12.645,12.645c0,6.99 -5.656,12.645 -12.645,12.645c-6.989,0 -12.646,-5.655 -12.646,-12.645c0,-6.989 5.657,-12.645 12.646,-12.645Z" style="fill:#f8f8f8;"/>
      <g>
        <path d="M44.305,348.762l2.37,0l2.206,7.37l2.281,-7.37l2.358,0l-3.067,9.214c-0.287,0.85 -0.8,1.274 -1.541,1.274c-0.75,0 -1.269,-0.429 -1.555,-1.287l-3.052,-9.201Z" style="fill:#f8f8f8;fill-rule:nonzero;"/>
        <path d="M53.696,356.547l0,-7.792l2.222,0l0,7.719c0.039,0.275 0.296,0.415 0.77,0.415l1.511,0c0.455,0 0.706,-0.129 0.756,-0.386l0.015,-0.075l0,-7.673l2.222,0l0,7.777c0,0.681 -0.074,1.165 -0.222,1.452c-0.395,0.76 -1.092,1.14 -2.089,1.14l-2.874,0c-1.027,0 -1.728,-0.39 -2.104,-1.17c-0.138,-0.286 -0.207,-0.755 -0.207,-1.407l0,0Z" style="fill:#f8f8f8;fill-rule:nonzero;"/>
        <path d="M62.214,356.585l0,-7.836l2.222,0l0,7.659c0,0.316 0.188,0.474 0.563,0.474l3.955,0l-0.014,2.237l-4.134,0c-0.148,0 -0.276,-0.004 -0.385,-0.015c-0.8,-0.069 -1.368,-0.304 -1.703,-0.704c-0.336,-0.4 -0.504,-1.005 -0.504,-1.815l0,0Z" style="fill:#f8f8f8;fill-rule:nonzero;"/>
        <path d="M69.028,350.991l0,-2.237l6.667,0l0,2.237l-2.237,0l0,8.133l-2.222,0l0,-8.133l-2.208,0Z" style="fill:#f8f8f8;fill-rule:nonzero;"/>
      </g>
    </g>
    <path d="M12.77,305.77c-5.507,0 -9.99,4.483 -9.99,9.99l0,13.143c0,0.801 1.201,0.801 1.201,0l0,-13.143c0,-4.857 3.932,-8.789 8.789,-8.789l18.777,0c4.857,0 8.789,3.932 8.789,8.789l0,13.143c-0.032,0.831 1.232,0.831 1.199,0l0,-13.143c0,-5.507 -4.481,-9.99 -9.988,-9.99l-18.777,0Z" style="fill:#f8f8f8;fill-rule:nonzero;"/>
    <path d="M48.551,18.305l2.457,0l-4.212,9.256l-1.937,0l-4.212,-9.256l2.535,0l2.665,6.214l2.704,-6.214Z" style="fill:#f8f8f8;fill-rule:nonzero;"/>
    <path d="M55.675,27.678c-0.945,0 -1.768,-0.193 -2.47,-0.578c-0.702,-0.386 -1.242,-0.939 -1.619,-1.658c-0.377,-0.719 -0.565,-1.56 -0.565,-2.522c0,-0.962 0.19,-1.798 0.572,-2.509c0.381,-0.711 0.92,-1.259 1.618,-1.644c0.698,-0.386 1.519,-0.579 2.464,-0.579c0.944,0 1.765,0.193 2.463,0.579c0.698,0.385 1.233,0.933 1.606,1.644c0.372,0.711 0.559,1.547 0.559,2.509c0,0.962 -0.187,1.803 -0.559,2.522c-0.373,0.719 -0.908,1.272 -1.606,1.658c-0.698,0.385 -1.519,0.578 -2.463,0.578Zm0,-1.859c0.693,0 1.237,-0.247 1.631,-0.741c0.394,-0.494 0.592,-1.213 0.592,-2.158c0,-0.936 -0.198,-1.649 -0.592,-2.138c-0.394,-0.49 -0.938,-0.735 -1.631,-0.735c-0.694,0 -1.235,0.243 -1.625,0.728c-0.39,0.485 -0.585,1.2 -0.585,2.145c0,0.953 0.195,1.675 0.585,2.165c0.39,0.489 0.931,0.734 1.625,0.734Z" style="fill:#f8f8f8;fill-rule:nonzero;"/>
    <path d="M69.78,27.561l-2.587,0l-1.196,-3.081c-0.139,-0.347 -0.464,-0.52 -0.975,-0.52l-0.884,0l0,3.601l-2.405,0l0,-9.256l4.303,0c1.118,0 1.958,0.241 2.522,0.722c0.563,0.481 0.845,1.167 0.845,2.06c0,0.624 -0.167,1.164 -0.501,1.619c-0.334,0.455 -0.804,0.777 -1.41,0.968c0.26,0.052 0.494,0.173 0.702,0.364c0.208,0.191 0.372,0.446 0.494,0.767l1.092,2.756Zm-4.134,-5.421c0.52,0 0.897,-0.08 1.131,-0.24c0.234,-0.161 0.351,-0.41 0.351,-0.748c0,-0.355 -0.115,-0.611 -0.345,-0.767c-0.23,-0.156 -0.609,-0.234 -1.137,-0.234l-1.534,0l0,1.989l1.534,0Z" style="fill:#f8f8f8;fill-rule:nonzero;"/>
    <path d="M79.166,22.335l0,4.641c-0.494,0.225 -1.047,0.399 -1.658,0.52c-0.611,0.121 -1.237,0.182 -1.878,0.182c-1.006,0 -1.879,-0.191 -2.62,-0.572c-0.741,-0.381 -1.311,-0.929 -1.709,-1.644c-0.399,-0.715 -0.598,-1.563 -0.598,-2.542c0,-0.953 0.199,-1.787 0.598,-2.502c0.398,-0.715 0.962,-1.266 1.69,-1.651c0.728,-0.386 1.577,-0.579 2.548,-0.579c0.667,0 1.297,0.087 1.891,0.26c0.594,0.173 1.077,0.412 1.45,0.715l-0.767,1.729c-0.425,-0.277 -0.835,-0.479 -1.229,-0.604c-0.394,-0.126 -0.817,-0.189 -1.267,-0.189c-0.824,0 -1.437,0.232 -1.84,0.696c-0.403,0.463 -0.604,1.172 -0.604,2.125c0,0.988 0.21,1.72 0.63,2.197c0.42,0.477 1.068,0.715 1.944,0.715c0.407,0 0.814,-0.043 1.222,-0.13l0,-1.716l-1.612,0l0,-1.651l3.809,0Z" style="fill:#f8f8f8;fill-rule:nonzero;"/>
    <rect x="22.521" y="31.26" width="1.448" height="5.888" style="fill:#f8f8f8;fill-rule:nonzero;"/>
    <path d="M26.881,37.212c-0.453,0 -0.848,-0.085 -1.184,-0.256c-0.336,-0.17 -0.594,-0.416 -0.776,-0.736c-0.181,-0.32 -0.272,-0.696 -0.272,-1.128c0,-0.432 0.091,-0.808 0.272,-1.128c0.182,-0.32 0.44,-0.565 0.776,-0.736c0.336,-0.17 0.731,-0.256 1.184,-0.256c0.448,0 0.839,0.087 1.172,0.26c0.334,0.174 0.591,0.419 0.772,0.736c0.182,0.318 0.272,0.692 0.272,1.124c0,0.432 -0.09,0.807 -0.272,1.124c-0.181,0.318 -0.438,0.563 -0.772,0.736c-0.333,0.174 -0.724,0.26 -1.172,0.26Zm0,-1.08c0.523,0 0.784,-0.346 0.784,-1.04c0,-0.352 -0.065,-0.612 -0.196,-0.78c-0.13,-0.168 -0.326,-0.252 -0.588,-0.252c-0.266,0 -0.466,0.084 -0.6,0.252c-0.133,0.168 -0.2,0.428 -0.2,0.78c0,0.358 0.067,0.62 0.2,0.788c0.134,0.168 0.334,0.252 0.6,0.252Z" style="fill:#f8f8f8;fill-rule:nonzero;"/>
    <path d="M35.145,33.084l1.392,0l-1.696,4.064l-1.192,0l-0.816,-2.016l-0.768,2.016l-1.2,0l-1.696,-4.064l1.472,0l0.904,2.344l0.88,-2.344l0.928,0l0.904,2.392l0.888,-2.392Z" style="fill:#f8f8f8;fill-rule:nonzero;"/>
    <path d="M37.249,37.66l-1.16,0l2.104,-6.576l1.168,0l-2.112,6.576Z" style="fill:#f8f8f8;fill-rule:nonzero;"/>
    <path d="M42.297,32.972c0.48,0 0.839,0.146 1.076,0.436c0.238,0.291 0.356,0.73 0.356,1.316l0,2.424l-1.448,0l0,-2.36c0,-0.25 -0.042,-0.43 -0.128,-0.54c-0.085,-0.109 -0.218,-0.164 -0.4,-0.164c-0.218,0 -0.394,0.074 -0.528,0.22c-0.133,0.147 -0.2,0.34 -0.2,0.58l0,2.264l-1.448,0l0,-5.888l1.448,0l0,2.32c0.315,-0.405 0.739,-0.608 1.272,-0.608Z" style="fill:#f8f8f8;fill-rule:nonzero;"/>
    <path d="M44.569,37.148l0,-4.064l1.448,0l0,4.064l-1.448,0Zm-0.04,-6.056l1.512,0l0,1.304l-1.512,0l0,-1.304Z" style="fill:#f8f8f8;fill-rule:nonzero;"/>
    <path d="M51.209,33.084l0,3.808c0,0.667 -0.2,1.175 -0.6,1.524c-0.4,0.35 -0.986,0.524 -1.76,0.524c-0.661,0 -1.234,-0.117 -1.72,-0.352l0.216,-1.056c0.24,0.107 0.487,0.191 0.74,0.252c0.254,0.062 0.492,0.092 0.716,0.092c0.331,0 0.575,-0.07 0.732,-0.212c0.158,-0.141 0.236,-0.361 0.236,-0.66l0,-0.6c-0.133,0.176 -0.313,0.326 -0.54,0.448c-0.226,0.123 -0.468,0.184 -0.724,0.184c-0.346,0 -0.657,-0.084 -0.932,-0.252c-0.274,-0.168 -0.489,-0.405 -0.644,-0.712c-0.154,-0.306 -0.232,-0.662 -0.232,-1.068c0,-0.4 0.078,-0.753 0.232,-1.06c0.155,-0.306 0.37,-0.545 0.644,-0.716c0.275,-0.17 0.586,-0.256 0.932,-0.256c0.272,0 0.52,0.056 0.744,0.168c0.224,0.112 0.398,0.264 0.52,0.456l0,-0.512l1.44,0Zm-2.256,2.872c0.256,0 0.456,-0.084 0.6,-0.252c0.144,-0.168 0.216,-0.401 0.216,-0.7c0,-0.288 -0.072,-0.516 -0.216,-0.684c-0.144,-0.168 -0.344,-0.252 -0.6,-0.252c-0.256,0 -0.457,0.083 -0.604,0.248c-0.146,0.166 -0.22,0.395 -0.22,0.688c0,0.294 0.075,0.526 0.224,0.696c0.15,0.171 0.35,0.256 0.6,0.256Z" style="fill:#f8f8f8;fill-rule:nonzero;"/>
    <path d="M54.777,32.972c0.48,0 0.839,0.146 1.076,0.436c0.238,0.291 0.356,0.73 0.356,1.316l0,2.424l-1.448,0l0,-2.36c0,-0.25 -0.042,-0.43 -0.128,-0.54c-0.085,-0.109 -0.218,-0.164 -0.4,-0.164c-0.218,0 -0.394,0.074 -0.528,0.22c-0.133,0.147 -0.2,0.34 -0.2,0.58l0,2.264l-1.448,0l0,-5.888l1.448,0l0,2.32c0.315,-0.405 0.739,-0.608 1.272,-0.608Z" style="fill:#f8f8f8;fill-rule:nonzero;"/>
    <path d="M62.049,32.972c0.347,0 0.656,0.091 0.928,0.272c0.272,0.182 0.486,0.435 0.64,0.76c0.155,0.326 0.232,0.699 0.232,1.12c0,0.416 -0.076,0.783 -0.228,1.1c-0.152,0.318 -0.364,0.562 -0.636,0.732c-0.272,0.171 -0.584,0.256 -0.936,0.256c-0.266,0 -0.509,-0.052 -0.728,-0.156c-0.218,-0.104 -0.386,-0.249 -0.504,-0.436l0,2.256l-1.448,0l0,-4.624c0,-0.437 -0.021,-0.826 -0.064,-1.168l1.36,0l0.08,0.632c0.102,-0.224 0.27,-0.404 0.504,-0.54c0.235,-0.136 0.502,-0.204 0.8,-0.204Zm-0.44,3.16c0.262,0 0.459,-0.085 0.592,-0.256c0.134,-0.17 0.2,-0.421 0.2,-0.752c0,-0.336 -0.068,-0.596 -0.204,-0.78c-0.136,-0.184 -0.332,-0.276 -0.588,-0.276c-0.261,0 -0.461,0.088 -0.6,0.264c-0.138,0.176 -0.208,0.435 -0.208,0.776c0,0.331 0.07,0.584 0.208,0.76c0.139,0.176 0.339,0.264 0.6,0.264Z" style="fill:#f8f8f8;fill-rule:nonzero;"/>
    <path d="M68.809,33.084l0,4.064l-1.424,0l0,-0.552c-0.117,0.192 -0.288,0.343 -0.512,0.452c-0.224,0.11 -0.469,0.164 -0.736,0.164c-0.346,0 -0.656,-0.085 -0.928,-0.256c-0.272,-0.17 -0.484,-0.414 -0.636,-0.732c-0.152,-0.317 -0.228,-0.684 -0.228,-1.1c0,-0.421 0.078,-0.794 0.232,-1.12c0.155,-0.325 0.368,-0.578 0.64,-0.76c0.272,-0.181 0.579,-0.272 0.92,-0.272c0.267,0 0.511,0.058 0.732,0.172c0.222,0.115 0.394,0.268 0.516,0.46l0,-0.52l1.424,0Zm-2.224,3.048c0.256,0 0.454,-0.088 0.592,-0.264c0.139,-0.176 0.208,-0.429 0.208,-0.76c0,-0.336 -0.069,-0.593 -0.208,-0.772c-0.138,-0.178 -0.336,-0.268 -0.592,-0.268c-0.25,0 -0.448,0.092 -0.592,0.276c-0.144,0.184 -0.216,0.444 -0.216,0.78c0,0.326 0.07,0.575 0.208,0.748c0.139,0.174 0.339,0.26 0.6,0.26Z" style="fill:#f8f8f8;fill-rule:nonzero;"/>
    <path d="M71.313,37.212c-0.81,0 -1.45,-0.162 -1.92,-0.488l0.368,-0.984c0.219,0.15 0.467,0.266 0.744,0.348c0.278,0.083 0.55,0.124 0.816,0.124c0.166,0 0.294,-0.024 0.384,-0.072c0.091,-0.048 0.136,-0.114 0.136,-0.2c0,-0.074 -0.033,-0.134 -0.1,-0.18c-0.066,-0.045 -0.193,-0.086 -0.38,-0.124l-0.656,-0.152c-0.416,-0.085 -0.716,-0.22 -0.9,-0.404c-0.184,-0.184 -0.276,-0.438 -0.276,-0.764c0,-0.261 0.078,-0.493 0.232,-0.696c0.155,-0.202 0.37,-0.361 0.644,-0.476c0.275,-0.114 0.591,-0.172 0.948,-0.172c0.294,0 0.582,0.043 0.864,0.128c0.283,0.086 0.547,0.206 0.792,0.36l-0.384,0.96c-0.213,-0.138 -0.432,-0.245 -0.656,-0.32c-0.224,-0.074 -0.434,-0.112 -0.632,-0.112c-0.16,0 -0.285,0.026 -0.376,0.076c-0.09,0.051 -0.136,0.124 -0.136,0.22c0,0.059 0.027,0.106 0.08,0.14c0.054,0.035 0.155,0.071 0.304,0.108l0.68,0.152c0.432,0.102 0.743,0.25 0.932,0.444c0.19,0.195 0.284,0.46 0.284,0.796c0,0.4 -0.158,0.715 -0.476,0.944c-0.317,0.23 -0.756,0.344 -1.316,0.344Z" style="fill:#f8f8f8;fill-rule:nonzero;"/>
    <path d="M75.369,37.212c-0.81,0 -1.45,-0.162 -1.92,-0.488l0.368,-0.984c0.219,0.15 0.467,0.266 0.744,0.348c0.278,0.083 0.55,0.124 0.816,0.124c0.166,0 0.294,-0.024 0.384,-0.072c0.091,-0.048 0.136,-0.114 0.136,-0.2c0,-0.074 -0.033,-0.134 -0.1,-0.18c-0.066,-0.045 -0.193,-0.086 -0.38,-0.124l-0.656,-0.152c-0.416,-0.085 -0.716,-0.22 -0.9,-0.404c-0.184,-0.184 -0.276,-0.438 -0.276,-0.764c0,-0.261 0.078,-0.493 0.232,-0.696c0.155,-0.202 0.37,-0.361 0.644,-0.476c0.275,-0.114 0.591,-0.172 0.948,-0.172c0.294,0 0.582,0.043 0.864,0.128c0.283,0.086 0.547,0.206 0.792,0.36l-0.384,0.96c-0.213,-0.138 -0.432,-0.245 -0.656,-0.32c-0.224,-0.074 -0.434,-0.112 -0.632,-0.112c-0.16,0 -0.285,0.026 -0.376,0.076c-0.09,0.051 -0.136,0.124 -0.136,0.22c0,0.059 0.027,0.106 0.08,0.14c0.054,0.035 0.155,0.071 0.304,0.108l0.68,0.152c0.432,0.102 0.743,0.25 0.932,0.444c0.19,0.195 0.284,0.46 0.284,0.796c0,0.4 -0.158,0.715 -0.476,0.944c-0.317,0.23 -0.756,0.344 -1.316,0.344Z" style="fill:#f8f8f8;fill-rule:nonzero;"/>
    <path d="M83.305,31.052l1.536,0l0,1.328l-1.536,0l0,-1.328Zm-1.4,2.032l2.896,0l0,4.064l-1.456,0l0,-3l-1.44,0l0,3l-1.448,0l0,-3l-0.76,0l0,-1.064l0.76,0l0,-0.248c0,-0.405 0.066,-0.722 0.196,-0.952c0.131,-0.229 0.342,-0.394 0.632,-0.496c0.291,-0.101 0.69,-0.152 1.196,-0.152l0.352,0l0,1.032l-0.192,0c-0.218,0 -0.377,0.016 -0.476,0.048c-0.098,0.032 -0.166,0.094 -0.204,0.184c-0.037,0.091 -0.056,0.238 -0.056,0.44l0,0.144Z" style="fill:#f8f8f8;fill-rule:nonzero;"/>
    <rect x="85.657" y="31.26" width="1.448" height="5.888" style="fill:#f8f8f8;fill-rule:nonzero;"/>
    <path d="M90.369,36.044c0.096,0 0.224,-0.016 0.384,-0.048l0,1.096c-0.197,0.08 -0.448,0.12 -0.752,0.12c-0.549,0 -0.966,-0.154 -1.252,-0.464c-0.285,-0.309 -0.428,-0.738 -0.428,-1.288l0,-1.312l-0.76,0l0,-1.064l0.76,0l0,-0.92l1.448,-0.464l0,1.384l0.976,0l0,1.064l-0.976,0l0,1.312c0,0.192 0.058,0.338 0.172,0.436c0.115,0.099 0.258,0.148 0.428,0.148Z" style="fill:#f8f8f8;fill-rule:nonzero;"/>
    <path d="M95.049,35.26l-2.552,0c0.027,0.315 0.118,0.542 0.272,0.68c0.155,0.139 0.382,0.208 0.68,0.208c0.203,0 0.406,-0.033 0.608,-0.1c0.203,-0.066 0.387,-0.158 0.552,-0.276l0.368,0.96c-0.202,0.15 -0.448,0.267 -0.736,0.352c-0.288,0.086 -0.576,0.128 -0.864,0.128c-0.464,0 -0.866,-0.085 -1.208,-0.256c-0.341,-0.17 -0.602,-0.414 -0.784,-0.732c-0.181,-0.317 -0.272,-0.692 -0.272,-1.124c0,-0.41 0.087,-0.777 0.26,-1.1c0.174,-0.322 0.414,-0.574 0.72,-0.756c0.307,-0.181 0.658,-0.272 1.052,-0.272c0.384,0 0.72,0.086 1.008,0.256c0.288,0.171 0.51,0.415 0.664,0.732c0.155,0.318 0.232,0.687 0.232,1.108l0,0.192Zm-1.864,-1.296c-0.357,0 -0.581,0.208 -0.672,0.624l1.296,0c-0.053,-0.416 -0.261,-0.624 -0.624,-0.624Z" style="fill:#f8f8f8;fill-rule:nonzero;"/>
    <path d="M98.289,32.988c0.198,0 0.35,0.03 0.456,0.088l0,1.32c-0.229,-0.106 -0.45,-0.16 -0.664,-0.16c-0.608,0 -0.912,0.291 -0.912,0.872l0,2.04l-1.448,0l0,-2.896c0,-0.437 -0.021,-0.826 -0.064,-1.168l1.36,0l0.088,0.68c0.096,-0.25 0.251,-0.442 0.464,-0.576c0.214,-0.133 0.454,-0.2 0.72,-0.2Z" style="fill:#f8f8f8;fill-rule:nonzero;"/>
    <path d="M42.795,121.42c-0.772,0 -1.446,0.159 -2.02,0.475c-0.572,0.317 -1.015,0.762 -1.324,1.335c-0.31,0.573 -0.465,1.236 -0.465,1.987c0,0.758 0.155,1.427 0.465,2.004c0.309,0.577 0.752,1.023 1.325,1.34c0.573,0.317 1.247,0.474 2.019,0.474c0.487,0 0.958,-0.073 1.414,-0.219c0.455,-0.146 0.822,-0.344 1.1,-0.595l-0.594,-1.387c-0.605,0.438 -1.23,0.656 -1.877,0.656c-0.598,0 -1.057,-0.191 -1.377,-0.574c-0.32,-0.382 -0.481,-0.948 -0.481,-1.699c0,-0.744 0.161,-1.307 0.481,-1.686c0.32,-0.379 0.779,-0.566 1.377,-0.566c0.647,0 1.272,0.218 1.877,0.656l0.594,-1.389c-0.278,-0.25 -0.645,-0.447 -1.1,-0.593c-0.456,-0.146 -0.927,-0.219 -1.414,-0.219l0,0Zm21.168,0c-0.758,0 -1.419,0.155 -1.978,0.465c-0.56,0.309 -0.993,0.748 -1.299,1.318c-0.306,0.571 -0.459,1.242 -0.459,2.014c0,0.772 0.153,1.445 0.455,2.023c0.303,0.577 0.736,1.02 1.299,1.33c0.563,0.309 1.224,0.465 1.982,0.465c0.758,0 1.417,-0.156 1.977,-0.465c0.56,-0.31 0.988,-0.753 1.287,-1.33c0.299,-0.578 0.449,-1.251 0.449,-2.023c0,-0.772 -0.15,-1.443 -0.449,-2.014c-0.299,-0.57 -0.727,-1.009 -1.287,-1.318c-0.56,-0.31 -1.219,-0.465 -1.977,-0.465Zm-17.662,0.094l0,4.299c0,1.057 0.278,1.858 0.834,2.404c0.556,0.546 1.378,0.818 2.463,0.818c1.064,0 1.878,-0.277 2.445,-0.83c0.567,-0.553 0.852,-1.349 0.852,-2.392l0,-4.299l-1.93,0l0,4.371c0,0.528 -0.119,0.936 -0.355,1.224c-0.237,0.289 -0.574,0.434 -1.012,0.434c-0.445,0 -0.789,-0.143 -1.029,-0.428c-0.24,-0.286 -0.36,-0.695 -0.36,-1.23l0,-4.371l-1.908,0l0,0Zm7.334,0l0,1.586l2.211,0l0,5.841l1.982,0l0,-5.841l2.211,0l0,-1.586l-6.404,0l0,0Zm15.189,0l0,7.427l1.93,0l0,-3.015l3.047,0l0,-1.524l-3.047,0l0,-1.355l3.254,0l0,-1.533l-5.184,0Zm6.092,0l0,7.427l1.929,0l0,-3.015l3.047,0l0,-1.524l-3.047,0l0,-1.355l3.256,0l0,-1.533l-5.185,0l0,0Zm-10.953,1.396c0.557,0 0.992,0.197 1.308,0.59c0.317,0.393 0.475,0.966 0.475,1.717c0,0.758 -0.158,1.335 -0.475,1.732c-0.316,0.396 -0.751,0.594 -1.308,0.594c-0.556,0 -0.992,-0.197 -1.305,-0.59c-0.313,-0.393 -0.469,-0.971 -0.469,-1.736c0,-0.758 0.156,-1.332 0.469,-1.721c0.313,-0.39 0.749,-0.586 1.305,-0.586l0,0Z" style="fill:#f8f8f8;fill-rule:nonzero;"/>
    <path d="M103.07,166.78c-0.479,0 -0.904,0.082 -1.277,0.246c-0.373,0.164 -0.664,0.393 -0.87,0.686c-0.206,0.292 -0.308,0.619 -0.308,0.98c0,0.317 0.062,0.586 0.187,0.809c0.125,0.222 0.345,0.416 0.657,0.58c0.311,0.164 0.748,0.303 1.31,0.414c0.445,0.094 0.747,0.189 0.908,0.287c0.161,0.097 0.243,0.221 0.243,0.371c0,0.167 -0.088,0.298 -0.266,0.389c-0.178,0.092 -0.436,0.138 -0.77,0.138c-0.328,0 -0.654,-0.049 -0.98,-0.146c-0.325,-0.097 -0.632,-0.238 -0.922,-0.422l-0.492,1.109c0.272,0.201 0.626,0.36 1.061,0.477c0.434,0.117 0.873,0.174 1.318,0.174c0.818,0 1.452,-0.165 1.902,-0.496c0.451,-0.331 0.676,-0.785 0.676,-1.364c0,-0.306 -0.063,-0.57 -0.191,-0.789c-0.128,-0.22 -0.346,-0.412 -0.655,-0.576c-0.309,-0.164 -0.733,-0.305 -1.273,-0.422c-0.333,-0.072 -0.585,-0.139 -0.752,-0.203c-0.167,-0.064 -0.281,-0.13 -0.342,-0.197c-0.061,-0.067 -0.092,-0.149 -0.092,-0.25c0,-0.183 0.088,-0.329 0.26,-0.438c0.172,-0.108 0.401,-0.164 0.684,-0.164c0.29,0 0.578,0.049 0.867,0.147c0.29,0.097 0.566,0.238 0.828,0.422l0.482,-1.11c-0.229,-0.195 -0.543,-0.352 -0.947,-0.472c-0.403,-0.119 -0.818,-0.18 -1.246,-0.18l0,0Zm-13.271,0.076l0,5.942l1.545,0l0,-2.311l0.566,0c0.329,0 0.538,0.11 0.627,0.332l0.768,1.979l1.66,0l-0.701,-1.77c-0.078,-0.206 -0.184,-0.37 -0.317,-0.492c-0.134,-0.123 -0.284,-0.199 -0.451,-0.232c0.39,-0.122 0.692,-0.332 0.907,-0.624c0.214,-0.292 0.32,-0.638 0.32,-1.039c0,-0.573 -0.181,-1.013 -0.543,-1.322c-0.361,-0.308 -0.899,-0.463 -1.617,-0.463l-2.764,0Zm5.959,0l0,5.942l4.24,0l0,-1.202l-2.713,0l0,-1.218l2.537,0l0,-1.202l-2.537,0l0,-1.119l2.713,0l0,-1.201l-4.24,0Zm-4.432,1.184l0.987,0c0.339,0 0.581,0.05 0.728,0.15c0.148,0.101 0.221,0.266 0.221,0.494c0,0.217 -0.075,0.376 -0.225,0.479c-0.15,0.103 -0.39,0.154 -0.724,0.154l-0.987,0l0,-1.277Z" style="fill:#f8f8f8;fill-rule:nonzero;"/>
    <path d="M9.566,166.68l0,5.941l2.43,0c0.662,0 1.23,-0.116 1.705,-0.353c0.476,-0.236 0.84,-0.579 1.09,-1.027c0.251,-0.448 0.375,-0.981 0.375,-1.598c0,-0.612 -0.126,-1.141 -0.379,-1.586c-0.253,-0.445 -0.618,-0.786 -1.094,-1.022c-0.476,-0.237 -1.041,-0.355 -1.697,-0.355l-2.43,0Zm6.518,0l0,5.941l1.545,0l0,-2.31l0.566,0c0.329,0 0.538,0.112 0.627,0.334l0.768,1.976l1.66,0l-0.701,-1.767c-0.078,-0.206 -0.184,-0.371 -0.317,-0.494c-0.134,-0.122 -0.284,-0.2 -0.451,-0.233c0.39,-0.123 0.692,-0.329 0.906,-0.621c0.214,-0.292 0.321,-0.639 0.321,-1.039c0,-0.573 -0.18,-1.015 -0.541,-1.324c-0.362,-0.309 -0.901,-0.463 -1.619,-0.463l-2.764,0Zm5.959,0l0,5.941l1.57,0l0,-5.941l-1.57,0Zm1.912,0l2.703,5.941l1.244,0l2.705,-5.941l-1.578,0l-1.736,3.99l-1.711,-3.99l-1.627,0Zm6.994,0l0,5.941l4.24,0l0,-1.201l-2.713,0l0,-1.219l2.538,0l0,-1.201l-2.538,0l0,-1.117l2.713,0l0,-1.203l-4.24,0Zm-13.338,1.186l0.986,0c0.339,0 0.582,0.05 0.729,0.15c0.148,0.1 0.223,0.263 0.223,0.492c0,0.217 -0.077,0.377 -0.227,0.479c-0.15,0.103 -0.391,0.156 -0.725,0.156l-0.986,0l0,-1.277Zm-6.474,0.066l0.75,0c1.152,0 1.728,0.57 1.728,1.711c0,0.578 -0.144,1.011 -0.43,1.297c-0.287,0.287 -0.72,0.429 -1.298,0.429l-0.75,0l0,-3.437Z" style="fill:#f8f8f8;fill-rule:nonzero;"/>
    <path d="M16.212,235.46c-0.617,0 -1.156,0.128 -1.615,0.381c-0.459,0.253 -0.813,0.609 -1.061,1.068c-0.247,0.459 -0.371,0.988 -0.371,1.588c0,0.607 0.124,1.142 0.371,1.604c0.248,0.462 0.602,0.819 1.061,1.072c0.459,0.253 0.998,0.381 1.615,0.381c0.39,0 0.767,-0.059 1.131,-0.176c0.365,-0.117 0.658,-0.277 0.881,-0.477l-0.477,-1.109c-0.484,0.351 -0.985,0.525 -1.502,0.525c-0.479,0 -0.845,-0.153 -1.101,-0.459c-0.256,-0.306 -0.385,-0.76 -0.385,-1.361c0,-0.595 0.129,-1.043 0.385,-1.346c0.256,-0.304 0.622,-0.455 1.101,-0.455c0.517,0 1.018,0.176 1.502,0.526l0.477,-1.11c-0.223,-0.201 -0.516,-0.359 -0.881,-0.476c-0.364,-0.117 -0.741,-0.176 -1.131,-0.176l0,0Zm2.027,0.076l2.703,5.942l1.244,0l2.706,-5.942l-1.579,0l-1.736,3.988l-1.711,-3.988l-1.627,0Zm9.147,0l-1.836,1.043l0,1.344l1.193,-0.686l0,2.997l-1.275,0l0,1.244l4.123,0l0,-1.244l-1.287,0l0,-4.698l-0.918,0Z" style="fill:#f8f8f8;fill-rule:nonzero;"/>
    <g>
      <path d="M15.755,290.62c-0.617,0 -1.156,-0.126 -1.615,-0.38c-0.459,-0.253 -0.812,-0.61 -1.06,-1.072c-0.247,-0.462 -0.371,-0.996 -0.371,-1.602c0,-0.601 0.124,-1.131 0.371,-1.59c0.248,-0.459 0.601,-0.815 1.06,-1.068c0.459,-0.254 0.998,-0.38 1.615,-0.38c0.39,0 0.767,0.058 1.131,0.175c0.365,0.117 0.658,0.275 0.881,0.476l-0.476,1.11c-0.484,-0.351 -0.985,-0.526 -1.502,-0.526c-0.479,0 -0.846,0.152 -1.102,0.455c-0.256,0.303 -0.384,0.752 -0.384,1.348c0,0.601 0.128,1.054 0.384,1.36c0.256,0.306 0.623,0.459 1.102,0.459c0.517,0 1.018,-0.175 1.502,-0.526l0.476,1.11c-0.223,0.201 -0.516,0.359 -0.881,0.476c-0.364,0.117 -0.741,0.175 -1.131,0.175Z" style="fill:#f8f8f8;fill-rule:nonzero;"/>
      <path d="M22.857,284.6l1.578,0l-2.704,5.942l-1.244,0l-2.704,-5.942l1.628,0l1.711,3.989l1.735,-3.989Z" style="fill:#f8f8f8;fill-rule:nonzero;"/>
      <path d="M27.848,289.3l1.286,0l0,1.243l-4.123,0l0,-1.243l1.277,0l0,-2.997l-1.194,0.685l0,-1.344l1.836,-1.043l0.918,0l0,4.699Z" style="fill:#f8f8f8;fill-rule:nonzero;"/>
    </g>
    <path d="M18.035,338.22l0,5.943l1.57,0l0,-5.943l-1.57,0Zm2.639,0l0,5.943l1.461,0l0,-3.371l2.695,3.371l1.16,0l0,-5.943l-1.477,0l0,3.356l-2.697,-3.356l-1.142,0l0,0Z" style="fill:#f8f8f8;fill-rule:nonzero;"/>
    <path d="M91.243,338.14c-0.606,0 -1.134,0.123 -1.582,0.371c-0.447,0.248 -0.794,0.601 -1.039,1.057c-0.244,0.456 -0.367,0.993 -0.367,1.611c0,0.617 0.121,1.157 0.363,1.619c0.242,0.461 0.589,0.815 1.039,1.063c0.451,0.247 0.98,0.371 1.586,0.371c0.606,0 1.134,-0.124 1.582,-0.371c0.447,-0.248 0.792,-0.602 1.031,-1.063c0.24,-0.462 0.358,-1.002 0.358,-1.619c0,-0.618 -0.118,-1.155 -0.358,-1.611c-0.239,-0.456 -0.584,-0.809 -1.031,-1.057c-0.448,-0.248 -0.976,-0.371 -1.582,-0.371l0,0Zm3.865,0.076l0,3.438c0,0.846 0.223,1.486 0.668,1.923c0.445,0.438 1.101,0.655 1.969,0.655c0.852,0 1.504,-0.22 1.957,-0.662c0.454,-0.443 0.682,-1.081 0.682,-1.916l0,-3.438l-1.545,0l0,3.496c0,0.423 -0.094,0.75 -0.283,0.981c-0.189,0.231 -0.46,0.347 -0.811,0.347c-0.356,0 -0.63,-0.115 -0.822,-0.343c-0.192,-0.229 -0.287,-0.557 -0.287,-0.985l0,-3.496l-1.528,0Zm5.867,0l0,1.268l1.77,0l0,4.674l1.584,0l0,-4.674l1.771,0l0,-1.268l-5.125,0Zm-9.732,1.117c0.445,0 0.794,0.158 1.047,0.473c0.254,0.314 0.381,0.772 0.381,1.373c0,0.606 -0.127,1.068 -0.381,1.385c-0.253,0.317 -0.602,0.476 -1.047,0.476c-0.445,0 -0.793,-0.157 -1.043,-0.472c-0.251,-0.314 -0.375,-0.777 -0.375,-1.389c0,-0.607 0.124,-1.066 0.375,-1.377c0.25,-0.312 0.598,-0.469 1.043,-0.469l0,0Z" style="fill:#f8f8f8;fill-rule:nonzero;"/>
    <path d="M91.568,235.46c-0.617,0 -1.154,0.128 -1.613,0.381c-0.459,0.253 -0.813,0.609 -1.061,1.068c-0.247,0.459 -0.371,0.988 -0.371,1.588c0,0.607 0.124,1.142 0.371,1.604c0.248,0.462 0.602,0.819 1.061,1.072c0.459,0.253 0.996,0.381 1.613,0.381c0.39,0 0.769,-0.059 1.133,-0.176c0.365,-0.117 0.658,-0.277 0.881,-0.477l-0.477,-1.109c-0.484,0.351 -0.985,0.525 -1.502,0.525c-0.479,0 -0.845,-0.153 -1.102,-0.459c-0.256,-0.306 -0.384,-0.76 -0.384,-1.361c0,-0.595 0.128,-1.043 0.384,-1.346c0.256,-0.304 0.623,-0.455 1.102,-0.455c0.517,0 1.018,0.176 1.502,0.526l0.477,-1.11c-0.223,-0.201 -0.516,-0.359 -0.881,-0.476c-0.364,-0.117 -0.743,-0.176 -1.133,-0.176l0,0Zm10.842,0c-0.395,0 -0.783,0.058 -1.164,0.172c-0.381,0.114 -0.691,0.268 -0.93,0.463l0.492,1.109c0.262,-0.173 0.522,-0.304 0.78,-0.396c0.259,-0.091 0.506,-0.137 0.74,-0.137c0.456,0 0.684,0.192 0.684,0.576c0,0.328 -0.181,0.681 -0.543,1.059l-1.936,2.019l0,1.153l4.189,0l0,-1.244l-2.269,0l1.184,-1.209c0.329,-0.35 0.561,-0.667 0.697,-0.948c0.136,-0.281 0.205,-0.594 0.205,-0.939c0,-0.339 -0.089,-0.636 -0.264,-0.889c-0.175,-0.253 -0.422,-0.448 -0.742,-0.584c-0.32,-0.136 -0.694,-0.205 -1.123,-0.205l0,0Zm-8.812,0.076l2.703,5.942l1.244,0l2.705,-5.942l-1.578,0l-1.737,3.989l-1.71,-3.989l-1.627,0Z" style="fill:#f8f8f8;fill-rule:nonzero;"/>
    <g>
      <path d="M92.997,290.37c-0.617,0 -1.156,-0.127 -1.615,-0.38c-0.459,-0.253 -0.812,-0.611 -1.06,-1.072c-0.247,-0.462 -0.371,-0.996 -0.371,-1.603c0,-0.601 0.124,-1.131 0.371,-1.59c0.248,-0.459 0.601,-0.815 1.06,-1.068c0.459,-0.253 0.998,-0.38 1.615,-0.38c0.39,0 0.767,0.059 1.131,0.176c0.365,0.117 0.658,0.275 0.881,0.475l-0.476,1.11c-0.484,-0.35 -0.985,-0.525 -1.502,-0.525c-0.479,0 -0.846,0.151 -1.102,0.454c-0.256,0.304 -0.384,0.753 -0.384,1.348c0,0.601 0.128,1.055 0.384,1.361c0.256,0.306 0.623,0.459 1.102,0.459c0.517,0 1.018,-0.176 1.502,-0.526l0.476,1.11c-0.223,0.2 -0.516,0.359 -0.881,0.476c-0.364,0.116 -0.741,0.175 -1.131,0.175Z" style="fill:#f8f8f8;fill-rule:nonzero;"/>
      <path d="M100.1,284.35l1.577,0l-2.704,5.942l-1.244,0l-2.704,-5.942l1.628,0l1.711,3.989l1.736,-3.989Z" style="fill:#f8f8f8;fill-rule:nonzero;"/>
      <path d="M106.15,289.05l0,1.244l-4.189,0l0,-1.152l1.936,-2.02c0.362,-0.378 0.542,-0.731 0.542,-1.06c0,-0.384 -0.228,-0.575 -0.684,-0.575c-0.234,0 -0.48,0.045 -0.739,0.137c-0.258,0.092 -0.518,0.224 -0.78,0.397l-0.492,-1.11c0.239,-0.195 0.549,-0.349 0.93,-0.464c0.381,-0.114 0.769,-0.171 1.164,-0.171c0.429,0 0.803,0.069 1.123,0.205c0.32,0.136 0.568,0.331 0.743,0.584c0.175,0.253 0.263,0.55 0.263,0.889c0,0.345 -0.069,0.658 -0.205,0.939c-0.136,0.281 -0.368,0.597 -0.697,0.947l-1.185,1.21l2.27,0Z" style="fill:#f8f8f8;fill-rule:nonzero;"/>
    </g>
    <path d="M12.77,252.9c-5.507,0 -9.99,4.484 -9.99,9.99l0,13.145c0,0.33 0.271,0.601 0.6,0.601c0.33,0 0.601,-0.271 0.601,-0.601l0,-13.145c0,-4.857 3.932,-8.789 8.789,-8.789l18.777,0c4.857,0 8.789,3.932 8.789,8.789l0,13.145c0,0.008 0,0.016 0,0.024c0,0.329 0.271,0.6 0.6,0.6c0.329,0 0.6,-0.271 0.6,-0.6c0,-0.008 0,-0.016 -0.001,-0.024l0,-13.145c0,-5.507 -4.481,-9.99 -9.988,-9.99l-18.777,0l0,0Zm75.111,0c-5.507,0 -9.988,4.484 -9.988,9.99l0,13.145c-0.001,0.008 -0.001,0.016 -0.001,0.024c0,0.329 0.271,0.6 0.6,0.6c0.329,0 0.6,-0.271 0.6,-0.6c0,-0.008 0,-0.016 0,-0.024l0,-13.145c0,-4.857 3.932,-8.789 8.789,-8.789l18.777,0c4.857,0 8.789,3.932 8.789,8.789l0,13.145c0,0.33 0.271,0.601 0.601,0.601c0.329,0 0.6,-0.271 0.6,-0.601c0,0 0,-13.145 0,-13.145c0,-5.507 -4.483,-9.99 -9.99,-9.99l-18.777,0l0,0Z" style="fill:#f8f8f8;fill-rule:nonzero;"/>
    <path d="M97.076,137.2c-2.744,0 -5.489,0.932 -7.709,2.795c-4.441,3.726 -5.576,10.163 -2.679,15.182c0.104,0.193 0.307,0.314 0.527,0.314c0.329,0 0.6,-0.271 0.6,-0.6c0,-0.111 -0.03,-0.219 -0.088,-0.314c-2.607,-4.516 -1.586,-10.31 2.412,-13.664c3.994,-3.353 9.879,-3.353 13.873,0c3.998,3.354 5.018,9.148 2.412,13.664c-0.058,0.095 -0.089,0.203 -0.089,0.314c0,0.329 0.271,0.6 0.601,0.6c0.219,0 0.422,-0.121 0.527,-0.314c2.896,-5.019 1.762,-11.455 -2.68,-15.182c-2.219,-1.863 -4.962,-2.795 -7.707,-2.795Zm-8.925,19.266c-1.707,0 -3.104,1.397 -3.104,3.103c0,1.707 1.397,3.102 3.104,3.102c1.706,0 3.101,-1.395 3.101,-3.102c0,-1.706 -1.395,-3.103 -3.101,-3.103Zm17.799,0c-1.707,0 -3.104,1.397 -3.104,3.103c0,1.707 1.397,3.102 3.104,3.102c1.706,0 3.101,-1.395 3.101,-3.102c0,-1.706 -1.395,-3.103 -3.101,-3.103Zm-17.799,1.201c1.057,0 1.902,0.845 1.902,1.902c0,1.058 -0.845,1.903 -1.902,1.903c-1.058,0 -1.903,-0.845 -1.903,-1.903c0,-1.057 0.845,-1.902 1.903,-1.902Z" style="fill:#f8f8f8;fill-rule:nonzero;"/>
    <path d="M22.078,137.222c-2.745,0 -5.49,0.932 -7.709,2.795c-4.442,3.726 -5.576,10.163 -2.68,15.182c0.105,0.193 0.308,0.314 0.527,0.314c0.33,0 0.6,-0.271 0.6,-0.6c0,-0.111 -0.03,-0.219 -0.088,-0.314c-2.606,-4.516 -1.586,-10.31 2.412,-13.664c3.994,-3.353 9.879,-3.353 13.873,0c3.998,3.354 5.019,9.148 2.412,13.664c-0.058,0.095 -0.088,0.203 -0.088,0.314c0,0.329 0.27,0.6 0.6,0.6c0.22,0 0.422,-0.121 0.527,-0.314c2.897,-5.019 1.762,-11.455 -2.679,-15.182c-2.22,-1.863 -4.963,-2.795 -7.707,-2.795Zm-8.926,19.266c-1.707,0 -3.104,1.397 -3.104,3.103c0,1.707 1.397,3.102 3.104,3.102c1.706,0 3.101,-1.395 3.101,-3.102c0,-1.706 -1.395,-3.103 -3.101,-3.103Zm17.799,0c-1.707,0 -3.104,1.397 -3.104,3.103c0,1.707 1.397,3.102 3.104,3.102c1.706,0 3.101,-1.395 3.101,-3.102c0,-1.706 -1.395,-3.103 -3.101,-3.103Zm-17.799,1.201c1.058,0 1.902,0.845 1.902,1.902c0,1.058 -0.844,1.903 -1.902,1.903c-1.058,0 -1.903,-0.845 -1.903,-1.903c0,-1.057 0.845,-1.902 1.903,-1.902Z" style="fill:#f8f8f8;fill-rule:nonzero;"/>
    <path d="M60.172,179.95l0,4.484l1.158,0l0,-1.814l1.815,0l0,1.814l1.158,0l0,-4.484l-1.158,0l0,1.744l-1.815,0l0,-1.744l-1.158,0Zm4.936,0l-0.001,4.484l1.186,0l0,-1.752l0.951,0c0.504,0 0.899,-0.123 1.184,-0.371c0.285,-0.248 0.428,-0.578 0.428,-0.994c0,-0.42 -0.14,-0.753 -0.422,-0.998c-0.281,-0.246 -0.678,-0.369 -1.19,-0.369l-2.136,0Zm1.185,0.895l0.793,0c0.231,0 0.401,0.042 0.508,0.123c0.107,0.082 0.16,0.201 0.16,0.361c0,0.314 -0.223,0.473 -0.668,0.473l-0.793,0l0,-0.957Zm-6.121,8.121l0,4.482l3.08,0l0,-0.957l-1.896,0l0,-3.525l-1.184,0Zm3.646,0l0,4.482l1.184,0l0,-1.75l0.951,0c0.504,0 0.899,-0.124 1.184,-0.371c0.286,-0.248 0.428,-0.581 0.428,-0.996c0,-0.42 -0.14,-0.753 -0.422,-0.998c-0.281,-0.246 -0.678,-0.367 -1.19,-0.367l-2.135,0Zm1.184,0.892l0.793,0c0.231,0 0.401,0.041 0.508,0.123c0.107,0.082 0.16,0.205 0.16,0.364c0,0.315 -0.223,0.472 -0.668,0.472l-0.793,0l0,-0.959Z" style="fill:#f8f8f8;fill-rule:nonzero;"/>
  </g>
</svg>