<svg width="180px" height="380px" version="1.1" xmlns="http://www.w3.org/2000/svg" xmlns:xlink="http://www.w3.org/1999/xlink" xml:space="preserve" xmlns:serif="http://www.serif.com/" style="fill-rule:evenodd;clip-rule:evenodd;stroke-linecap:round;stroke-linejoin:round;stroke-miterlimit:1.5;">
  <defs>
    <linearGradient id="_Linear1" x1="0" y1="0" x2="1" y2="0" gradientUnits="userSpaceOnUse" gradientTransform="matrix(0.00584,-37.8989,37.8989,0.00584,90.3401,112.195)">
      <stop offset="0" style="stop-color:#101010;stop-opacity:1"/>
      <stop offset="1" style="stop-color:#101010;stop-opacity:1"/>
    </linearGradient>
    <linearGradient id="_Linear2" x1="0" y1="0" x2="1" y2="0" gradientUnits="userSpaceOnUse" gradientTransform="matrix(-4.07011,-92.6584,92.6584,-4.07011,333.048,345.91)">
      <stop offset="0" style="stop-color:#101010;stop-opacity:1"/>
      <stop offset="1" style="stop-color:#101010;stop-opacity:1"/>
    </linearGradient>
    <linearGradient id="_Linear3" x1="0" y1="0" x2="1" y2="0" gradientUnits="userSpaceOnUse" gradientTransform="matrix(-3.96136,94.9326,-94.9326,-3.96136,333.048,158.47)">
      <stop offset="0" style="stop-color:#101010;stop-opacity:1"/>
      <stop offset="1" style="stop-color:#101010;stop-opacity:1"/>
    </linearGradient>
    <linearGradient id="_Linear4" x1="0" y1="0" x2="1" y2="0" gradientUnits="userSpaceOnUse" gradientTransform="matrix(1.15392e-16,-1.8845,1.8845,1.15392e-16,67.8228,1.9362)">
      <stop offset="0" style="stop-color:#101010;stop-opacity:1"/>
      <stop offset="1" style="stop-color:#101010;stop-opacity:1"/>
    </linearGradient>
  </defs>
  <g>
    <rect x="0" y="0" width="180" height="380" style="fill:url(#_Linear1);"/>
    <rect x="0" y="253.33" width="180" height="126.67" style="fill:url(#_Linear2);"/>
    <rect x="0" y="126.67" width="180" height="126.67" style="fill:url(#_Linear3);"/>
    <rect x="0" y="0" width="180" height="380" style="fill:#103550;fill-opacity:0.1;"/>
    <rect x="0" y="0" width="180" height="2" style="fill:url(#_Linear4);"/>
  </g>
  <g id="Panel">
    <path d="M127.692,235.227c-0,-1.388 -1.128,-2.516 -2.517,-2.516l-70.83,0c-1.389,0 -2.517,1.128 -2.517,2.516l-0,20.144c-0,1.389 1.128,2.516 2.517,2.516l70.83,0c1.389,0 2.517,-1.127 2.517,-2.516l-0,-20.144Z" style="fill:none;stroke:#757575;stroke-width:0.83px;"/>
    <g>
      <g>
        <path id="path7809" d="M48.85,201.673l0.029,5.262" style="fill:none;fill-rule:nonzero;stroke:#f8f8f8;stroke-width:1.19px;stroke-linejoin:miter;stroke-miterlimit:4;"/>
        <path id="path7812" d="M51.495,204.266l-5.261,0.024" style="fill:none;fill-rule:nonzero;stroke:#f8f8f8;stroke-width:1.19px;stroke-linejoin:miter;stroke-miterlimit:4;"/>
        <path id="path7815" d="M29.638,204.118l-5.267,0.024" style="fill:none;fill-rule:nonzero;stroke:#f8f8f8;stroke-width:1.19px;stroke-linejoin:miter;stroke-miterlimit:4;"/>
        <path id="path7818" d="M49.294,200.246c3.266,-5.658 1.986,-12.916 -3.022,-17.117c-5.004,-4.202 -12.376,-4.202 -17.379,0c-5.009,4.201 -6.288,11.459 -3.023,17.117l11.712,-6.761l11.712,6.761Z" style="fill:none;stroke:#f8f8f8;stroke-width:1.19px;stroke-linejoin:miter;stroke-miterlimit:4;"/>
      </g>
      <path id="path7821" d="M37.582,193.49l-0.028,-15.88" style="fill:none;stroke:#f8f8f8;stroke-width:1.19px;stroke-linejoin:miter;stroke-miterlimit:4;"/>
    </g>
    <g>
      <g>
        <path id="path78091" serif:id="path7809" d="M41.557,148.61l0.029,5.261" style="fill:none;fill-rule:nonzero;stroke:#f8f8f8;stroke-width:1.19px;stroke-linejoin:miter;stroke-miterlimit:4;"/>
        <path id="path78121" serif:id="path7812" d="M44.202,151.202l-5.261,0.024" style="fill:none;fill-rule:nonzero;stroke:#f8f8f8;stroke-width:1.19px;stroke-linejoin:miter;stroke-miterlimit:4;"/>
        <path id="path78151" serif:id="path7815" d="M22.344,151.054l-5.266,0.024" style="fill:none;fill-rule:nonzero;stroke:#f8f8f8;stroke-width:1.19px;stroke-linejoin:miter;stroke-miterlimit:4;"/>
        <path id="path78181" serif:id="path7818" d="M42.001,147.182c3.266,-5.658 1.986,-12.915 -3.022,-17.116c-5.004,-4.202 -12.376,-4.202 -17.379,-0c-5.009,4.201 -6.288,11.458 -3.023,17.116l11.712,-6.761l11.712,6.761Z" style="fill:none;stroke:#f8f8f8;stroke-width:1.19px;stroke-linejoin:miter;stroke-miterlimit:4;"/>
      </g>
      <path id="path78211" serif:id="path7821" d="M30.289,140.426l-0.028,-15.88" style="fill:none;stroke:#f8f8f8;stroke-width:1.19px;stroke-linejoin:miter;stroke-miterlimit:4;"/>
    </g>
    <path id="path7458" d="M121.741,159.222c9.064,-15.704 5.516,-35.845 -8.373,-47.501c-13.89,-11.65 -34.345,-11.65 -48.235,0c-13.89,11.656 -17.438,31.797 -8.373,47.501" style="fill:none;stroke:#f8f8f8;stroke-width:1.65px;stroke-linejoin:miter;stroke-miterlimit:4;"/>
    <circle id="circle7461" cx="57.167" cy="169.439" r="4.086" style="fill:none;stroke:#f8f8f8;stroke-width:1.1px;stroke-linecap:butt;stroke-linejoin:miter;stroke-miterlimit:4;"/>
    <circle id="circle74611" serif:id="circle7461" cx="15.402" cy="100.279" r="4.086" style="fill:none;stroke:#f8f8f8;stroke-width:1.1px;stroke-linecap:butt;stroke-linejoin:miter;stroke-miterlimit:4;"/>
    <circle id="circle74612" serif:id="circle7461" cx="114.741" cy="100.279" r="4.086" style="fill:none;stroke:#f8f8f8;stroke-width:1.1px;stroke-linecap:butt;stroke-linejoin:miter;stroke-miterlimit:4;"/>
    <circle id="circle7464" cx="121.976" cy="168.874" r="4.086" style="fill:#f8f8f8;stroke:#f8f8f8;stroke-width:1.1px;stroke-linecap:butt;stroke-linejoin:miter;stroke-miterlimit:4;"/>
    <circle id="circle74641" serif:id="circle7464" cx="66.957" cy="99.652" r="4.086" style="fill:#f8f8f8dfd;stroke:#f8f8f8;stroke-width:1.1px;stroke-linecap:butt;stroke-linejoin:miter;stroke-miterlimit:4;"/>
    <circle id="circle74642" serif:id="circle7464" cx="166.75" cy="99.595" r="4.086" style="fill:#f8f8f8;stroke:#f8f8f8;stroke-width:1.1px;stroke-linecap:butt;stroke-linejoin:miter;stroke-miterlimit:4;"/>
    <path id="path7499" d="M168.709,87.605c8.05,-13.947 4.899,-31.834 -7.437,-42.186c-12.335,-10.346 -30.502,-10.346 -42.837,0c-12.336,10.352 -15.487,28.239 -7.437,42.186" style="fill:none;stroke:#f8f8f8;stroke-width:2.05px;stroke-linejoin:miter;stroke-miterlimit:4;"/>
    <path id="path74991" serif:id="path7499" d="M69.121,87.605c8.05,-13.947 4.899,-31.834 -7.437,-42.186c-12.335,-10.346 -30.502,-10.346 -42.837,0c-12.336,10.352 -15.487,28.239 -7.437,42.186" style="fill:none;stroke:#f8f8f8;stroke-width:2.05px;stroke-linejoin:miter;stroke-miterlimit:4;"/>
    <path d="M23.928,314.483l0,4.313l1.723,0l0,1.218l-3.161,0l0,-5.531l1.438,0Z" style="fill:#f8f8f8;fill-rule:nonzero;"/>
    <path d="M53.352,316.955l0.271,0c0.284,0 0.501,-0.059 0.653,-0.176c0.151,-0.117 0.227,-0.286 0.227,-0.506c-0,-0.22 -0.076,-0.389 -0.227,-0.506c-0.152,-0.118 -0.369,-0.176 -0.653,-0.176l-0.271,0l-0,1.364Zm3.161,3.059l-1.79,-0l-1.371,-2.127l-0,2.127l-1.438,-0l-0,-5.531l2.237,-0c0.308,-0 0.577,0.045 0.807,0.136c0.23,0.09 0.419,0.214 0.568,0.37c0.149,0.157 0.262,0.338 0.338,0.543c0.076,0.206 0.113,0.426 0.113,0.66c-0,0.421 -0.101,0.762 -0.304,1.024c-0.203,0.261 -0.502,0.438 -0.898,0.531l1.738,2.267Z" style="fill:#f8f8f8;fill-rule:nonzero;"/>
    <path id="path7711" d="M172.896,319.461c-0,-3.303 -2.922,-5.985 -6.521,-5.985l-51.086,0c-3.599,0 -6.522,2.682 -6.522,5.985l-0,31.412c-0,3.303 2.923,5.984 6.522,5.984l51.086,0c3.599,0 6.521,-2.681 6.521,-5.984l-0,-31.412Z" style="fill:#999999;stroke:#999999;stroke-width:1.11px;stroke-linecap:butt;stroke-linejoin:miter;stroke-miterlimit:1.41421;"/>
    <path d="M124.733,352.206c0,0.22 0.042,0.423 0.125,0.609c0.083,0.186 0.196,0.347 0.338,0.484c0.141,0.137 0.306,0.243 0.495,0.319c0.188,0.076 0.387,0.114 0.598,0.114c0.21,0 0.409,-0.038 0.597,-0.114c0.189,-0.076 0.355,-0.182 0.499,-0.319c0.144,-0.137 0.258,-0.298 0.341,-0.484c0.083,-0.186 0.125,-0.389 0.125,-0.609c0,-0.22 -0.042,-0.423 -0.125,-0.609c-0.083,-0.186 -0.197,-0.347 -0.341,-0.484c-0.144,-0.137 -0.31,-0.243 -0.499,-0.319c-0.188,-0.076 -0.387,-0.114 -0.597,-0.114c-0.211,0 -0.41,0.038 -0.598,0.114c-0.189,0.076 -0.354,0.182 -0.495,0.319c-0.142,0.137 -0.255,0.298 -0.338,0.484c-0.083,0.186 -0.125,0.389 -0.125,0.609Zm-1.503,0c0,-0.411 0.076,-0.793 0.227,-1.148c0.152,-0.354 0.362,-0.664 0.631,-0.928c0.269,-0.264 0.59,-0.47 0.965,-0.62c0.374,-0.149 0.786,-0.223 1.236,-0.223c0.444,0 0.855,0.074 1.232,0.223c0.376,0.15 0.7,0.356 0.972,0.62c0.271,0.264 0.483,0.574 0.634,0.928c0.152,0.355 0.228,0.737 0.228,1.148c0,0.411 -0.076,0.793 -0.228,1.148c-0.151,0.354 -0.363,0.664 -0.634,0.928c-0.272,0.264 -0.596,0.47 -0.972,0.62c-0.377,0.149 -0.788,0.223 -1.232,0.223c-0.45,0 -0.862,-0.074 -1.236,-0.223c-0.375,-0.15 -0.696,-0.356 -0.965,-0.62c-0.269,-0.264 -0.479,-0.574 -0.631,-0.928c-0.151,-0.355 -0.227,-0.737 -0.227,-1.148Z" style="fill-rule:nonzero;"/>
    <path d="M131.702,349.441l0,3.007c0,0.161 0.006,0.326 0.018,0.495c0.012,0.169 0.049,0.322 0.11,0.459c0.061,0.137 0.158,0.248 0.29,0.333c0.132,0.086 0.318,0.129 0.557,0.129c0.24,-0 0.424,-0.043 0.554,-0.129c0.13,-0.085 0.226,-0.196 0.29,-0.333c0.063,-0.137 0.101,-0.29 0.113,-0.459c0.013,-0.169 0.019,-0.334 0.019,-0.495l0,-3.007l1.43,-0l0,3.205c0,0.861 -0.197,1.489 -0.59,1.885c-0.394,0.396 -0.999,0.594 -1.816,0.594c-0.816,-0 -1.423,-0.198 -1.819,-0.594c-0.396,-0.396 -0.594,-1.024 -0.594,-1.885l0,-3.205l1.438,-0Z" style="fill-rule:nonzero;"/>
    <path d="M138.34,350.658l0,4.313l-1.438,0l0,-4.313l-1.181,0l0,-1.217l3.8,0l0,1.217l-1.181,0Z" style="fill-rule:nonzero;"/>
    <path d="M141.597,351.979l0.476,0c0.529,0 0.793,-0.23 0.793,-0.69c0,-0.46 -0.264,-0.689 -0.793,-0.689l-0.476,0l0,1.379Zm0,2.992l-1.438,0l0,-5.53l2.288,0c0.622,0 1.097,0.161 1.427,0.484c0.33,0.323 0.495,0.777 0.495,1.364c0,0.587 -0.165,1.042 -0.495,1.364c-0.33,0.323 -0.805,0.485 -1.427,0.485l-0.85,0l0,1.833Z" style="fill-rule:nonzero;"/>
    <path d="M146.57,349.441l0,3.007c0,0.161 0.006,0.326 0.018,0.495c0.012,0.169 0.049,0.322 0.11,0.459c0.061,0.137 0.158,0.248 0.29,0.333c0.132,0.086 0.318,0.129 0.557,0.129c0.24,-0 0.424,-0.043 0.554,-0.129c0.13,-0.085 0.226,-0.196 0.29,-0.333c0.063,-0.137 0.101,-0.29 0.114,-0.459c0.012,-0.169 0.018,-0.334 0.018,-0.495l0,-3.007l1.43,-0l0,3.205c0,0.861 -0.197,1.489 -0.59,1.885c-0.394,0.396 -0.999,0.594 -1.816,0.594c-0.816,-0 -1.423,-0.198 -1.819,-0.594c-0.396,-0.396 -0.594,-1.024 -0.594,-1.885l0,-3.205l1.438,-0Z" style="fill-rule:nonzero;"/>
    <path d="M153.208,350.658l0,4.313l-1.438,0l0,-4.313l-1.181,0l0,-1.217l3.8,0l0,1.217l-1.181,0Z" style="fill-rule:nonzero;"/>
    <path d="M158.071,350.856c-0.156,-0.127 -0.313,-0.221 -0.469,-0.282c-0.157,-0.061 -0.309,-0.092 -0.455,-0.092c-0.186,0 -0.338,0.044 -0.455,0.132c-0.117,0.088 -0.176,0.203 -0.176,0.345c0,0.098 0.029,0.179 0.088,0.242c0.059,0.064 0.136,0.119 0.231,0.165c0.095,0.047 0.203,0.087 0.323,0.121c0.12,0.034 0.238,0.071 0.356,0.11c0.469,0.157 0.812,0.366 1.03,0.627c0.218,0.262 0.327,0.603 0.327,1.024c0,0.283 -0.048,0.54 -0.144,0.77c-0.095,0.23 -0.234,0.426 -0.418,0.59c-0.183,0.164 -0.408,0.291 -0.674,0.382c-0.267,0.09 -0.569,0.135 -0.906,0.135c-0.7,0 -1.348,-0.208 -1.944,-0.623l0.616,-1.159c0.215,0.191 0.428,0.332 0.638,0.425c0.21,0.093 0.418,0.14 0.624,0.14c0.234,0 0.409,-0.054 0.524,-0.162c0.115,-0.107 0.172,-0.229 0.172,-0.366c0,-0.084 -0.014,-0.156 -0.044,-0.217c-0.029,-0.061 -0.078,-0.117 -0.146,-0.168c-0.069,-0.052 -0.158,-0.1 -0.268,-0.144c-0.11,-0.044 -0.243,-0.092 -0.4,-0.146c-0.186,-0.059 -0.368,-0.124 -0.546,-0.195c-0.179,-0.071 -0.338,-0.165 -0.477,-0.282c-0.139,-0.117 -0.252,-0.265 -0.337,-0.444c-0.086,-0.178 -0.129,-0.404 -0.129,-0.678c0,-0.274 0.046,-0.522 0.136,-0.745c0.09,-0.222 0.218,-0.413 0.381,-0.572c0.164,-0.159 0.365,-0.282 0.602,-0.37c0.237,-0.088 0.502,-0.132 0.796,-0.132c0.274,0 0.56,0.038 0.858,0.113c0.298,0.076 0.584,0.187 0.858,0.334l-0.572,1.122Z" style="fill-rule:nonzero;"/>
    <path d="M125.779,314.483l0,4.313l1.724,0l0,1.218l-3.161,0l0,-5.531l1.437,0Z" style="fill-rule:nonzero;"/>
    <path d="M154.952,316.955l0.271,0c0.284,0 0.501,-0.059 0.653,-0.176c0.151,-0.117 0.227,-0.286 0.227,-0.506c0,-0.22 -0.076,-0.389 -0.227,-0.506c-0.152,-0.118 -0.369,-0.176 -0.653,-0.176l-0.271,0l0,1.364Zm3.161,3.059l-1.79,-0l-1.371,-2.127l0,2.127l-1.438,-0l0,-5.531l2.237,-0c0.308,-0 0.577,0.045 0.807,0.136c0.23,0.09 0.419,0.214 0.568,0.37c0.149,0.157 0.262,0.338 0.338,0.543c0.076,0.206 0.113,0.426 0.113,0.66c0,0.421 -0.101,0.762 -0.304,1.024c-0.203,0.261 -0.502,0.438 -0.898,0.531l1.738,2.267Z" style="fill-rule:nonzero;"/>
    <path d="M136.556,292.351l0,-14.269c0,-4.963 -4.029,-8.993 -8.993,-8.993l-74.434,0c-4.964,0 -8.993,4.03 -8.993,8.993l0,14.269" style="fill:none;stroke:#f8f8f8;stroke-width:1.05px;"/>
    <path d="M73.559,334.319l0,-12.478c0,-4.964 -4.029,-8.993 -8.993,-8.993l-49.914,0c-4.964,0 -8.994,4.029 -8.994,8.993l0,12.935" style="fill:none;stroke:#f8f8f8;stroke-width:1.05px;"/>
    <path d="M44.136,292.351l0,-13.202c0,-5.205 -4.226,-9.431 -9.431,-9.431l-18.861,0c-5.205,0 -9.431,4.226 -9.431,9.431l0,13.202" style="fill:none;stroke:#f8f8f8;stroke-width:1.05px;"/>
    <path d="M174.405,292.351l0,-13.202c0,-5.205 -4.226,-9.431 -9.431,-9.431l-18.861,0c-5.205,0 -9.431,4.226 -9.431,9.431l0,13.202" style="fill:none;stroke:#f8f8f8;stroke-width:1.05px;"/>
    <g>
      <g>
        <path id="path3539" d="M103.203,345.163c0,-7.291 -5.911,-13.203 -13.203,-13.203c-7.292,0 -13.203,5.912 -13.203,13.203c0,7.292 5.911,13.203 13.203,13.203c7.292,0 13.203,-5.911 13.203,-13.203Z" style="fill:none;fill-rule:nonzero;stroke:#f8f8f8;stroke-width:1.16px;stroke-linecap:butt;stroke-linejoin:miter;stroke-miterlimit:10;"/>
        <path id="polygon3543" d="M84.231,351.292l1.346,2.043l1.354,-0.124l0.894,-1.44l-1.72,-3.87l-3.583,-3.694l0.743,5.015l0.966,2.07Z" style="fill:#f8f8f8;fill-rule:nonzero;stroke:#000;stroke-width:0.42px;stroke-linecap:butt;stroke-miterlimit:1.41421;"/>
        <path id="polygon3545" d="M95.658,351.304l-1.346,2.043l-1.354,-0.125l-0.894,-1.439l1.72,-3.87l3.583,-3.694l-0.743,5.015l-0.966,2.07Z" style="fill:#f8f8f8;fill-rule:nonzero;stroke:#000;stroke-width:0.42px;stroke-linecap:butt;stroke-miterlimit:1.41421;"/>
        <path id="polygon3549" d="M90.003,334.299l0,21.746l-2.183,-4.288l-1.715,-3.856l-1.654,-0.94l-3.317,-4.722l-0.093,-1.254l1.857,-3.343l2.926,-2.275l4.179,-1.068Z" style="fill:#f8f8f8;fill-rule:nonzero;stroke:#000;stroke-width:0.42px;stroke-linecap:butt;stroke-miterlimit:1.41421;"/>
        <path id="polygon3551" d="M89.998,334.307l0,21.746l2.182,-4.288l1.715,-3.856l1.654,-0.94l3.317,-4.723l0.093,-1.253l-1.857,-3.343l-2.926,-2.276l-4.178,-1.067Z" style="fill:#f8f8f8;fill-rule:nonzero;stroke:#000;stroke-width:0.42px;stroke-linecap:butt;stroke-miterlimit:1.41421;"/>
        <path id="polyline3553" d="M87.214,344.872l2.786,-2.724l0,1.989l-2.786,2.778l0,-2.043" style="fill:#f8f8f8;fill-rule:nonzero;stroke:#000;stroke-width:0.42px;stroke-linecap:butt;stroke-miterlimit:1.41421;"/>
        <path id="polygon3555" d="M90.002,344.134l-2.786,2.779l0.609,4.858l2.178,4.274l-0.001,-11.911Z" style="fill:#f8f8f8;fill-rule:nonzero;stroke:#000;stroke-width:0.42px;stroke-linecap:butt;stroke-miterlimit:1.41421;"/>
        <path id="polygon3557" d="M87.825,351.771l2.177,-1.027l0.001,5.301l-2.178,-4.274Z" style="fill:#f8f8f8;fill-rule:nonzero;stroke:#000;stroke-width:0.42px;stroke-linecap:butt;stroke-miterlimit:1.41421;"/>
        <path id="polygon3559" d="M82.806,341.898l1.253,2.948l3.157,2.067l0,-2.043l-2.019,-2.554l-2.389,-1.925l-0.002,1.507Z" style="fill-rule:nonzero;stroke:#000;stroke-width:0.42px;stroke-linecap:butt;stroke-miterlimit:1.41421;"/>
        <path id="polyline3561" d="M92.787,344.873l-2.786,-2.724l0,1.989l2.786,2.778l0,-2.043" style="fill:#f8f8f8;fill-rule:nonzero;stroke:#000;stroke-width:0.42px;stroke-linecap:butt;stroke-miterlimit:1.41421;"/>
        <path id="polygon3563" d="M89.998,344.134l2.786,2.779l-0.608,4.858l-2.178,4.274l0,-11.911Z" style="fill:#f8f8f8;fill-rule:nonzero;stroke:#000;stroke-width:0.42px;stroke-linecap:butt;stroke-miterlimit:1.41421;"/>
        <path id="polygon3565" d="M92.176,351.771l-2.178,-1.027l0,5.301l2.178,-4.274Z" style="fill:#f8f8f8;fill-rule:nonzero;stroke:#000;stroke-width:0.42px;stroke-linecap:butt;stroke-miterlimit:1.41421;"/>
        <path id="polygon3567" d="M97.195,341.898l-1.254,2.949l-3.157,2.066l-0,-2.043l2.02,-2.554l2.388,-1.925l0.003,1.507Z" style="fill-rule:nonzero;stroke:#000;stroke-width:0.42px;stroke-linecap:butt;stroke-miterlimit:1.41421;"/>
        <path id="polyline3569" d="M85.85,335.332l4.149,6.817l-0.009,-7.875" style="fill:#f8f8f8;fill-rule:nonzero;stroke:#000;stroke-width:0.42px;stroke-linecap:butt;stroke-miterlimit:1.41421;"/>
        <path id="polyline3571" d="M94.15,335.333l-4.15,6.816l0.009,-7.874" style="fill:#f8f8f8;fill-rule:nonzero;stroke:#000;stroke-width:0.42px;stroke-linecap:butt;stroke-miterlimit:1.41421;"/>
        <path id="polygon3573" d="M87.218,346.915l0.607,4.861l-1.719,-3.874l1.112,-0.987Z" style="fill:#f8f8f8;fill-rule:nonzero;stroke:#000;stroke-width:0.42px;stroke-linecap:butt;stroke-miterlimit:1.41421;"/>
        <path id="polygon3575" d="M92.788,346.939l-0.607,4.861l1.719,-3.875l-1.112,-0.986Z" style="fill:#f8f8f8;fill-rule:nonzero;stroke:#000;stroke-width:0.42px;stroke-linecap:butt;stroke-miterlimit:1.41421;"/>
      </g>
      <g>
        <path d="M74.235,362.738l2.38,0l2.216,7.403l2.292,-7.403l2.367,0l-3.08,9.255c-0.288,0.853 -0.803,1.279 -1.547,1.279c-0.754,0 -1.275,-0.43 -1.562,-1.292l-3.066,-9.242Z" style="fill:#f8f8f8;fill-rule:nonzero;"/>
        <path d="M83.669,370.564l0,-7.826l2.232,0l0,7.752c0.039,0.278 0.297,0.417 0.773,0.417l1.518,0c0.456,0 0.709,-0.129 0.759,-0.387l0.015,-0.075l0,-7.707l2.232,0l0,7.811c0,0.685 -0.075,1.171 -0.223,1.459c-0.397,0.764 -1.097,1.145 -2.098,1.145l-2.887,0c-1.032,0 -1.736,-0.391 -2.113,-1.175c-0.139,-0.288 -0.208,-0.759 -0.208,-1.414Z" style="fill:#f8f8f8;fill-rule:nonzero;"/>
        <path d="M92.224,370.609l0,-7.871l2.232,0l0,7.693c0,0.317 0.189,0.476 0.566,0.476l3.973,0l-0.015,2.247l-4.152,0c-0.148,0 -0.277,-0.005 -0.386,-0.015c-0.804,-0.07 -1.375,-0.305 -1.712,-0.707c-0.337,-0.402 -0.506,-1.009 -0.506,-1.823Z" style="fill:#f8f8f8;fill-rule:nonzero;"/>
        <path d="M99.069,364.984l0,-2.246l6.696,0l0,2.246l-2.247,0l0,8.169l-2.232,0l0,-8.169l-2.217,0Z" style="fill:#f8f8f8;fill-rule:nonzero;"/>
      </g>
    </g>
    <g>
      <g>
        <path id="path78092" serif:id="path7809" d="M101.319,211.733l0.028,5.261" style="fill:none;fill-rule:nonzero;stroke:#f8f8f8;stroke-width:1.19px;stroke-linejoin:miter;stroke-miterlimit:4;"/>
        <path id="path78122" serif:id="path7812" d="M103.964,214.325l-5.262,0.024" style="fill:none;fill-rule:nonzero;stroke:#f8f8f8;stroke-width:1.19px;stroke-linejoin:miter;stroke-miterlimit:4;"/>
        <path id="path78152" serif:id="path7815" d="M82.106,214.177l-5.266,0.024" style="fill:none;fill-rule:nonzero;stroke:#f8f8f8;stroke-width:1.19px;stroke-linejoin:miter;stroke-miterlimit:4;"/>
        <path id="path78182" serif:id="path7818" d="M101.763,210.305c3.265,-5.658 1.986,-12.915 -3.023,-17.117c-5.003,-4.201 -12.375,-4.201 -17.379,0c-5.008,4.202 -6.288,11.459 -3.022,17.117l11.712,-6.761l11.712,6.761Z" style="fill:none;stroke:#f8f8f8;stroke-width:1.19px;stroke-linejoin:miter;stroke-miterlimit:4;"/>
      </g>
      <path id="path78212" serif:id="path7821" d="M90.051,203.549l-0.029,-15.88" style="fill:none;stroke:#f8f8f8;stroke-width:1.19px;stroke-linejoin:miter;stroke-miterlimit:4;"/>
    </g>
    <g>
      <g>
        <path id="path78093" serif:id="path7809" d="M153.913,201.673l0.029,5.262" style="fill:none;fill-rule:nonzero;stroke:#f8f8f8;stroke-width:1.19px;stroke-linejoin:miter;stroke-miterlimit:4;"/>
        <path id="path78123" serif:id="path7812" d="M156.558,204.266l-5.261,0.024" style="fill:none;fill-rule:nonzero;stroke:#f8f8f8;stroke-width:1.19px;stroke-linejoin:miter;stroke-miterlimit:4;"/>
        <path id="path78153" serif:id="path7815" d="M134.701,204.118l-5.267,0.024" style="fill:none;fill-rule:nonzero;stroke:#f8f8f8;stroke-width:1.19px;stroke-linejoin:miter;stroke-miterlimit:4;"/>
        <path id="path78183" serif:id="path7818" d="M154.357,200.246c3.266,-5.658 1.987,-12.916 -3.022,-17.117c-5.004,-4.202 -12.375,-4.202 -17.379,0c-5.009,4.201 -6.288,11.459 -3.022,17.117l11.711,-6.761l11.712,6.761Z" style="fill:none;stroke:#f8f8f8;stroke-width:1.19px;stroke-linejoin:miter;stroke-miterlimit:4;"/>
      </g>
      <path id="path78213" serif:id="path7821" d="M142.645,193.49l-0.028,-15.88" style="fill:none;stroke:#f8f8f8;stroke-width:1.19px;stroke-linejoin:miter;stroke-miterlimit:4;"/>
    </g>
    <g>
      <g>
        <path id="path78094" serif:id="path7809" d="M161.209,148.861l0.029,5.262" style="fill:none;fill-rule:nonzero;stroke:#f8f8f8;stroke-width:1.19px;stroke-linejoin:miter;stroke-miterlimit:4;"/>
        <path id="path78124" serif:id="path7812" d="M163.854,151.454l-5.262,0.024" style="fill:none;fill-rule:nonzero;stroke:#f8f8f8;stroke-width:1.19px;stroke-linejoin:miter;stroke-miterlimit:4;"/>
        <path id="path78154" serif:id="path7815" d="M141.996,151.306l-5.266,0.024" style="fill:none;fill-rule:nonzero;stroke:#f8f8f8;stroke-width:1.19px;stroke-linejoin:miter;stroke-miterlimit:4;"/>
        <path id="path78184" serif:id="path7818" d="M161.653,147.434c3.266,-5.658 1.986,-12.915 -3.022,-17.117c-5.004,-4.202 -12.376,-4.202 -17.38,0c-5.008,4.202 -6.288,11.459 -3.022,17.117l11.712,-6.761l11.712,6.761Z" style="fill:none;stroke:#f8f8f8;stroke-width:1.19px;stroke-linejoin:miter;stroke-miterlimit:4;"/>
      </g>
      <path id="path78214" serif:id="path7821" d="M149.941,140.678l-0.029,-15.88" style="fill:none;stroke:#f8f8f8;stroke-width:1.19px;stroke-linejoin:miter;stroke-miterlimit:4;"/>
    </g>
    <circle cx="157.916" cy="246.45" r="8.168" style="fill:none;stroke:#f8f8f8;stroke-width:1px;"/>
    <circle cx="22.114" cy="246.45" r="8.168" style="fill:none;stroke:#f8f8f8;stroke-width:1px;"/>
    <path d="M70.742,7.847l2.646,0l-4.536,9.968l-2.086,0l-4.536,-9.968l2.73,0l2.87,6.692l2.912,-6.692Z" style="fill:#f8f8f8;fill-rule:nonzero;"/>
    <path d="M82.628,17.815l-2.786,0l-1.288,-3.318c-0.15,-0.373 -0.5,-0.56 -1.05,-0.56l-0.952,0l-0,3.878l-2.59,0l-0,-9.968l4.634,0c1.204,0 2.109,0.259 2.716,0.777c0.606,0.518 0.91,1.258 0.91,2.219c-0,0.672 -0.18,1.253 -0.539,1.743c-0.36,0.49 -0.866,0.838 -1.519,1.043c0.28,0.056 0.532,0.187 0.756,0.392c0.224,0.206 0.401,0.481 0.532,0.826l1.176,2.968Zm-4.452,-5.838c0.56,0 0.966,-0.086 1.218,-0.259c0.252,-0.172 0.378,-0.441 0.378,-0.805c-0,-0.382 -0.124,-0.658 -0.371,-0.826c-0.248,-0.168 -0.656,-0.252 -1.225,-0.252l-1.652,0l-0,2.142l1.652,0Z" style="fill:#f8f8f8;fill-rule:nonzero;"/>
    <path d="M91.406,17.815l-0.882,-2.058l-4.424,0l-0.882,2.058l-2.632,0l4.662,-9.968l2.072,0l4.676,9.968l-2.59,0Zm-4.452,-4.032l2.716,0l-1.358,-3.15l-1.358,3.15Z" style="fill:#f8f8f8;fill-rule:nonzero;"/>
    <rect x="94.57" y="7.847" width="2.632" height="9.968" style="fill:#f8f8f8;fill-rule:nonzero;"/>
    <path d="M98.994,7.847l4.074,0c1.101,0 2.051,0.199 2.849,0.595c0.798,0.397 1.409,0.969 1.834,1.715c0.424,0.747 0.637,1.634 0.637,2.66c-0,1.036 -0.21,1.93 -0.63,2.681c-0.42,0.752 -1.029,1.326 -1.827,1.722c-0.798,0.397 -1.753,0.595 -2.863,0.595l-4.074,0l-0,-9.968Zm3.892,7.868c0.97,0 1.696,-0.24 2.177,-0.721c0.48,-0.48 0.721,-1.206 0.721,-2.177c-0,-1.913 -0.966,-2.87 -2.898,-2.87l-1.26,0l-0,5.768l1.26,0Z" style="fill:#f8f8f8;fill-rule:nonzero;"/>
    <path d="M113.54,17.941c-0.747,0 -1.484,-0.098 -2.212,-0.294c-0.728,-0.196 -1.321,-0.462 -1.778,-0.798l0.826,-1.862c0.485,0.308 1.001,0.544 1.547,0.707c0.546,0.164 1.094,0.245 1.645,0.245c0.56,0 0.989,-0.077 1.288,-0.231c0.298,-0.154 0.448,-0.371 0.448,-0.651c-0,-0.252 -0.136,-0.459 -0.406,-0.623c-0.271,-0.163 -0.78,-0.324 -1.526,-0.483c-0.943,-0.186 -1.676,-0.417 -2.198,-0.693c-0.523,-0.275 -0.889,-0.599 -1.099,-0.973c-0.21,-0.373 -0.315,-0.826 -0.315,-1.358c-0,-0.606 0.172,-1.155 0.518,-1.645c0.345,-0.49 0.83,-0.872 1.456,-1.148c0.625,-0.275 1.339,-0.413 2.142,-0.413c0.718,0 1.416,0.101 2.093,0.301c0.676,0.201 1.206,0.465 1.589,0.791l-0.812,1.862c-0.439,-0.308 -0.901,-0.543 -1.386,-0.707c-0.486,-0.163 -0.971,-0.245 -1.456,-0.245c-0.476,0 -0.859,0.091 -1.148,0.273c-0.29,0.182 -0.434,0.427 -0.434,0.735c-0,0.168 0.051,0.308 0.154,0.42c0.102,0.112 0.294,0.222 0.574,0.329c0.28,0.108 0.7,0.222 1.26,0.343c0.905,0.196 1.617,0.432 2.135,0.707c0.518,0.276 0.884,0.598 1.099,0.966c0.214,0.369 0.322,0.81 0.322,1.323c-0,0.971 -0.378,1.734 -1.134,2.289c-0.756,0.556 -1.82,0.833 -3.192,0.833Z" style="fill:#f8f8f8;fill-rule:nonzero;"/>
    <path d="M26.1,110.096l0,-6.408l4.473,0l0,1.323l-2.808,0l0,1.17l2.628,0l0,1.314l-2.628,0l0,2.601l-1.665,0Z" style="fill:#f8f8f8;fill-rule:nonzero;"/>
    <rect x="31.356" y="103.688" width="1.692" height="6.408" style="fill:#f8f8f8;fill-rule:nonzero;"/>
    <path d="M38.34,103.688l1.593,0l0,6.408l-1.251,0l-2.907,-3.636l0,3.636l-1.575,0l0,-6.408l1.233,0l2.907,3.618l0,-3.618Z" style="fill:#f8f8f8;fill-rule:nonzero;"/>
    <path d="M41.094,110.096l0,-6.408l4.572,0l0,1.296l-2.925,0l0,1.206l2.736,0l0,1.296l-2.736,0l0,1.314l2.925,0l0,1.296l-4.572,0Z" style="fill:#f8f8f8;fill-rule:nonzero;"/>
    <rect x="46.476" y="107.027" width="2.916" height="1.26" style="fill:#f8f8f8;fill-rule:nonzero;"/>
    <path d="M50.526,110.096l0,-6.408l1.692,0l0,5.04l2.709,0l0,1.368l-4.401,0Z" style="fill:#f8f8f8;fill-rule:nonzero;"/>
    <path d="M126.1,110.096l0,-6.408l4.473,0l0,1.323l-2.808,0l0,1.17l2.628,0l0,1.314l-2.628,0l0,2.601l-1.665,0Z" style="fill:#f8f8f8;fill-rule:nonzero;"/>
    <rect x="131.356" y="103.688" width="1.692" height="6.408" style="fill:#f8f8f8;fill-rule:nonzero;"/>
    <path d="M138.34,103.688l1.593,0l0,6.408l-1.251,0l-2.907,-3.636l0,3.636l-1.575,0l0,-6.408l1.233,0l2.907,3.618l0,-3.618Z" style="fill:#f8f8f8;fill-rule:nonzero;"/>
    <path d="M141.094,110.096l0,-6.408l4.572,0l0,1.296l-2.925,0l0,1.206l2.736,0l0,1.296l-2.736,0l0,1.314l2.925,0l0,1.296l-4.572,0Z" style="fill:#f8f8f8;fill-rule:nonzero;"/>
    <rect x="146.476" y="107.027" width="2.916" height="1.26" style="fill:#f8f8f8;fill-rule:nonzero;"/>
    <path d="M156.097,110.096l-1.791,0l-0.828,-2.133c-0.096,-0.24 -0.321,-0.36 -0.675,-0.36l-0.612,0l0,2.493l-1.665,0l0,-6.408l2.979,0c0.774,0 1.356,0.167 1.746,0.5c0.39,0.333 0.585,0.808 0.585,1.426c0,0.432 -0.115,0.806 -0.346,1.121c-0.231,0.315 -0.557,0.538 -0.977,0.67c0.18,0.036 0.342,0.12 0.486,0.252c0.144,0.132 0.258,0.309 0.342,0.531l0.756,1.908Zm-2.862,-3.753c0.36,0 0.621,-0.055 0.783,-0.166c0.162,-0.111 0.243,-0.284 0.243,-0.518c0,-0.246 -0.079,-0.423 -0.238,-0.531c-0.159,-0.108 -0.422,-0.162 -0.788,-0.162l-1.062,0l0,1.377l1.062,0Z" style="fill:#f8f8f8;fill-rule:nonzero;"/>
    <path d="M72.993,184.95c-0.74,0 -1.385,-0.152 -1.935,-0.455c-0.55,-0.303 -0.974,-0.732 -1.27,-1.285c-0.297,-0.553 -0.445,-1.193 -0.445,-1.92c-0,-0.72 0.148,-1.355 0.445,-1.905c0.296,-0.55 0.72,-0.977 1.27,-1.28c0.55,-0.303 1.195,-0.455 1.935,-0.455c0.466,0 0.918,0.07 1.355,0.21c0.436,0.14 0.788,0.33 1.055,0.57l-0.57,1.33c-0.58,-0.42 -1.18,-0.63 -1.8,-0.63c-0.574,0 -1.014,0.182 -1.32,0.545c-0.307,0.363 -0.46,0.902 -0.46,1.615c-0,0.72 0.153,1.263 0.46,1.63c0.306,0.367 0.746,0.55 1.32,0.55c0.62,0 1.22,-0.21 1.8,-0.63l0.57,1.33c-0.267,0.24 -0.619,0.43 -1.055,0.57c-0.437,0.14 -0.889,0.21 -1.355,0.21Z" style="fill:#f8f8f8;fill-rule:nonzero;"/>
    <path d="M79.613,184.95c-0.727,0 -1.36,-0.148 -1.9,-0.445c-0.54,-0.297 -0.955,-0.722 -1.245,-1.275c-0.29,-0.553 -0.435,-1.2 -0.435,-1.94c-0,-0.74 0.146,-1.383 0.44,-1.93c0.293,-0.547 0.708,-0.968 1.245,-1.265c0.536,-0.297 1.168,-0.445 1.895,-0.445c0.726,0 1.358,0.148 1.895,0.445c0.536,0.297 0.948,0.718 1.235,1.265c0.286,0.547 0.43,1.19 0.43,1.93c-0,0.74 -0.144,1.387 -0.43,1.94c-0.287,0.553 -0.699,0.978 -1.235,1.275c-0.537,0.297 -1.169,0.445 -1.895,0.445Zm-0,-1.43c0.533,0 0.951,-0.19 1.255,-0.57c0.303,-0.38 0.455,-0.933 0.455,-1.66c-0,-0.72 -0.152,-1.268 -0.455,-1.645c-0.304,-0.377 -0.722,-0.565 -1.255,-0.565c-0.534,0 -0.95,0.187 -1.25,0.56c-0.3,0.373 -0.45,0.923 -0.45,1.65c-0,0.733 0.15,1.288 0.45,1.665c0.3,0.377 0.716,0.565 1.25,0.565Z" style="fill:#f8f8f8;fill-rule:nonzero;"/>
    <path d="M89.493,184.86l-0.63,-1.47l-3.16,0l-0.63,1.47l-1.88,0l3.33,-7.12l1.48,0l3.34,7.12l-1.85,0Zm-3.18,-2.88l1.94,0l-0.97,-2.25l-0.97,2.25Z" style="fill:#f8f8f8;fill-rule:nonzero;"/>
    <path d="M97.943,184.86l-1.99,0l-0.92,-2.37c-0.107,-0.267 -0.357,-0.4 -0.75,-0.4l-0.68,0l-0,2.77l-1.85,0l-0,-7.12l3.31,0c0.86,0 1.506,0.185 1.94,0.555c0.433,0.37 0.65,0.898 0.65,1.585c-0,0.48 -0.129,0.895 -0.385,1.245c-0.257,0.35 -0.619,0.598 -1.085,0.745c0.2,0.04 0.38,0.133 0.54,0.28c0.16,0.147 0.286,0.343 0.38,0.59l0.84,2.12Zm-3.18,-4.17c0.4,0 0.69,-0.062 0.87,-0.185c0.18,-0.123 0.27,-0.315 0.27,-0.575c-0,-0.273 -0.089,-0.47 -0.265,-0.59c-0.177,-0.12 -0.469,-0.18 -0.875,-0.18l-1.18,0l-0,1.53l1.18,0Z" style="fill:#f8f8f8;fill-rule:nonzero;"/>
    <path d="M101.413,184.95c-0.534,0 -1.06,-0.07 -1.58,-0.21c-0.52,-0.14 -0.944,-0.33 -1.27,-0.57l0.59,-1.33c0.346,0.22 0.715,0.388 1.105,0.505c0.39,0.117 0.781,0.175 1.175,0.175c0.4,0 0.706,-0.055 0.92,-0.165c0.213,-0.11 0.32,-0.265 0.32,-0.465c-0,-0.18 -0.097,-0.328 -0.29,-0.445c-0.194,-0.117 -0.557,-0.232 -1.09,-0.345c-0.674,-0.133 -1.197,-0.298 -1.57,-0.495c-0.374,-0.197 -0.635,-0.428 -0.785,-0.695c-0.15,-0.267 -0.225,-0.59 -0.225,-0.97c-0,-0.433 0.123,-0.825 0.37,-1.175c0.246,-0.35 0.593,-0.623 1.04,-0.82c0.446,-0.197 0.956,-0.295 1.53,-0.295c0.513,0 1.011,0.072 1.495,0.215c0.483,0.143 0.861,0.332 1.135,0.565l-0.58,1.33c-0.314,-0.22 -0.644,-0.388 -0.99,-0.505c-0.347,-0.117 -0.694,-0.175 -1.04,-0.175c-0.34,0 -0.614,0.065 -0.82,0.195c-0.207,0.13 -0.31,0.305 -0.31,0.525c-0,0.12 0.036,0.22 0.11,0.3c0.073,0.08 0.21,0.158 0.41,0.235c0.2,0.077 0.5,0.158 0.9,0.245c0.646,0.14 1.155,0.308 1.525,0.505c0.37,0.197 0.631,0.427 0.785,0.69c0.153,0.263 0.23,0.578 0.23,0.945c-0,0.693 -0.27,1.238 -0.81,1.635c-0.54,0.397 -1.3,0.595 -2.28,0.595Z" style="fill:#f8f8f8;fill-rule:nonzero;"/>
    <path d="M105.553,184.86l-0,-7.12l5.08,0l-0,1.44l-3.25,0l-0,1.34l3.04,0l-0,1.44l-3.04,0l-0,1.46l3.25,0l-0,1.44l-5.08,0Z" style="fill:#f8f8f8;fill-rule:nonzero;"/>
    <path d="M142.025,159.733c-0.444,-0 -0.831,-0.091 -1.161,-0.273c-0.33,-0.182 -0.584,-0.439 -0.762,-0.771c-0.178,-0.332 -0.267,-0.716 -0.267,-1.152c0,-0.432 0.089,-0.813 0.267,-1.143c0.178,-0.33 0.432,-0.586 0.762,-0.768c0.33,-0.182 0.717,-0.273 1.161,-0.273c0.28,-0 0.551,0.042 0.813,0.126c0.262,0.084 0.473,0.198 0.633,0.342l-0.342,0.798c-0.348,-0.252 -0.708,-0.378 -1.08,-0.378c-0.344,-0 -0.608,0.109 -0.792,0.327c-0.184,0.218 -0.276,0.541 -0.276,0.969c0,0.432 0.092,0.758 0.276,0.978c0.184,0.22 0.448,0.33 0.792,0.33c0.372,-0 0.732,-0.126 1.08,-0.378l0.342,0.798c-0.16,0.144 -0.371,0.258 -0.633,0.342c-0.262,0.084 -0.533,0.126 -0.813,0.126Z" style="fill:#f8f8f8;fill-rule:nonzero;"/>
    <path d="M145.997,159.733c-0.436,-0 -0.816,-0.089 -1.14,-0.267c-0.324,-0.178 -0.573,-0.433 -0.747,-0.765c-0.174,-0.332 -0.261,-0.72 -0.261,-1.164c0,-0.444 0.088,-0.83 0.264,-1.158c0.176,-0.328 0.425,-0.581 0.747,-0.759c0.322,-0.178 0.701,-0.267 1.137,-0.267c0.436,-0 0.815,0.089 1.137,0.267c0.322,0.178 0.569,0.431 0.741,0.759c0.172,0.328 0.258,0.714 0.258,1.158c0,0.444 -0.086,0.832 -0.258,1.164c-0.172,0.332 -0.419,0.587 -0.741,0.765c-0.322,0.178 -0.701,0.267 -1.137,0.267Zm0,-0.858c0.32,-0 0.571,-0.114 0.753,-0.342c0.182,-0.228 0.273,-0.56 0.273,-0.996c0,-0.432 -0.091,-0.761 -0.273,-0.987c-0.182,-0.226 -0.433,-0.339 -0.753,-0.339c-0.32,-0 -0.57,0.112 -0.75,0.336c-0.18,0.224 -0.27,0.554 -0.27,0.99c0,0.44 0.09,0.773 0.27,0.999c0.18,0.226 0.43,0.339 0.75,0.339Z" style="fill:#f8f8f8;fill-rule:nonzero;"/>
    <path d="M148.793,159.679l0,-4.272l1.128,-0l0,3.36l1.806,-0l0,0.912l-2.934,-0Z" style="fill:#f8f8f8;fill-rule:nonzero;"/>
    <path d="M154.049,159.733c-0.436,-0 -0.816,-0.089 -1.14,-0.267c-0.324,-0.178 -0.573,-0.433 -0.747,-0.765c-0.174,-0.332 -0.261,-0.72 -0.261,-1.164c0,-0.444 0.088,-0.83 0.264,-1.158c0.176,-0.328 0.425,-0.581 0.747,-0.759c0.322,-0.178 0.701,-0.267 1.137,-0.267c0.436,-0 0.815,0.089 1.137,0.267c0.322,0.178 0.569,0.431 0.741,0.759c0.172,0.328 0.258,0.714 0.258,1.158c0,0.444 -0.086,0.832 -0.258,1.164c-0.172,0.332 -0.419,0.587 -0.741,0.765c-0.322,0.178 -0.701,0.267 -1.137,0.267Zm0,-0.858c0.32,-0 0.571,-0.114 0.753,-0.342c0.182,-0.228 0.273,-0.56 0.273,-0.996c0,-0.432 -0.091,-0.761 -0.273,-0.987c-0.182,-0.226 -0.433,-0.339 -0.753,-0.339c-0.32,-0 -0.57,0.112 -0.75,0.336c-0.18,0.224 -0.27,0.554 -0.27,0.99c0,0.44 0.09,0.773 0.27,0.999c0.18,0.226 0.43,0.339 0.75,0.339Z" style="fill:#f8f8f8;fill-rule:nonzero;"/>
    <path d="M160.559,159.679l-1.194,-0l-0.552,-1.422c-0.064,-0.16 -0.214,-0.24 -0.45,-0.24l-0.408,-0l0,1.662l-1.11,-0l0,-4.272l1.986,-0c0.516,-0 0.904,0.111 1.164,0.333c0.26,0.222 0.39,0.539 0.39,0.951c0,0.288 -0.077,0.537 -0.231,0.747c-0.154,0.21 -0.371,0.359 -0.651,0.447c0.12,0.024 0.228,0.08 0.324,0.168c0.096,0.088 0.172,0.206 0.228,0.354l0.504,1.272Zm-1.908,-2.502c0.24,-0 0.414,-0.037 0.522,-0.111c0.108,-0.074 0.162,-0.189 0.162,-0.345c0,-0.164 -0.053,-0.282 -0.159,-0.354c-0.106,-0.072 -0.281,-0.108 -0.525,-0.108l-0.708,-0l0,0.918l0.708,-0Z" style="fill:#f8f8f8;fill-rule:nonzero;"/>
    <path d="M126.025,212.733c-0.444,-0 -0.831,-0.091 -1.161,-0.273c-0.33,-0.182 -0.584,-0.439 -0.762,-0.771c-0.178,-0.332 -0.267,-0.716 -0.267,-1.152c0,-0.432 0.089,-0.813 0.267,-1.143c0.178,-0.33 0.432,-0.586 0.762,-0.768c0.33,-0.182 0.717,-0.273 1.161,-0.273c0.28,-0 0.551,0.042 0.813,0.126c0.262,0.084 0.473,0.198 0.633,0.342l-0.342,0.798c-0.348,-0.252 -0.708,-0.378 -1.08,-0.378c-0.344,-0 -0.608,0.109 -0.792,0.327c-0.184,0.218 -0.276,0.541 -0.276,0.969c0,0.432 0.092,0.758 0.276,0.978c0.184,0.22 0.448,0.33 0.792,0.33c0.372,-0 0.732,-0.126 1.08,-0.378l0.342,0.798c-0.16,0.144 -0.371,0.258 -0.633,0.342c-0.262,0.084 -0.533,0.126 -0.813,0.126Z" style="fill:#f8f8f8;fill-rule:nonzero;"/>
    <path d="M129.997,212.733c-0.436,-0 -0.816,-0.089 -1.14,-0.267c-0.324,-0.178 -0.573,-0.433 -0.747,-0.765c-0.174,-0.332 -0.261,-0.72 -0.261,-1.164c0,-0.444 0.088,-0.83 0.264,-1.158c0.176,-0.328 0.425,-0.581 0.747,-0.759c0.322,-0.178 0.701,-0.267 1.137,-0.267c0.436,-0 0.815,0.089 1.137,0.267c0.322,0.178 0.569,0.431 0.741,0.759c0.172,0.328 0.258,0.714 0.258,1.158c0,0.444 -0.086,0.832 -0.258,1.164c-0.172,0.332 -0.419,0.587 -0.741,0.765c-0.322,0.178 -0.701,0.267 -1.137,0.267Zm0,-0.858c0.32,-0 0.571,-0.114 0.753,-0.342c0.182,-0.228 0.273,-0.56 0.273,-0.996c0,-0.432 -0.091,-0.761 -0.273,-0.987c-0.182,-0.226 -0.433,-0.339 -0.753,-0.339c-0.32,-0 -0.57,0.112 -0.75,0.336c-0.18,0.224 -0.27,0.554 -0.27,0.99c0,0.44 0.09,0.773 0.27,0.999c0.18,0.226 0.43,0.339 0.75,0.339Z" style="fill:#f8f8f8;fill-rule:nonzero;"/>
    <path d="M132.793,212.679l0,-4.272l1.128,-0l0,3.36l1.806,-0l0,0.912l-2.934,-0Z" style="fill:#f8f8f8;fill-rule:nonzero;"/>
    <path d="M138.049,212.733c-0.436,-0 -0.816,-0.089 -1.14,-0.267c-0.324,-0.178 -0.573,-0.433 -0.747,-0.765c-0.174,-0.332 -0.261,-0.72 -0.261,-1.164c0,-0.444 0.088,-0.83 0.264,-1.158c0.176,-0.328 0.425,-0.581 0.747,-0.759c0.322,-0.178 0.701,-0.267 1.137,-0.267c0.436,-0 0.815,0.089 1.137,0.267c0.322,0.178 0.569,0.431 0.741,0.759c0.172,0.328 0.258,0.714 0.258,1.158c0,0.444 -0.086,0.832 -0.258,1.164c-0.172,0.332 -0.419,0.587 -0.741,0.765c-0.322,0.178 -0.701,0.267 -1.137,0.267Zm0,-0.858c0.32,-0 0.571,-0.114 0.753,-0.342c0.182,-0.228 0.273,-0.56 0.273,-0.996c0,-0.432 -0.091,-0.761 -0.273,-0.987c-0.182,-0.226 -0.433,-0.339 -0.753,-0.339c-0.32,-0 -0.57,0.112 -0.75,0.336c-0.18,0.224 -0.27,0.554 -0.27,0.99c0,0.44 0.09,0.773 0.27,0.999c0.18,0.226 0.43,0.339 0.75,0.339Z" style="fill:#f8f8f8;fill-rule:nonzero;"/>
    <path d="M144.559,212.679l-1.194,-0l-0.552,-1.422c-0.064,-0.16 -0.214,-0.24 -0.45,-0.24l-0.408,-0l0,1.662l-1.11,-0l0,-4.272l1.986,-0c0.516,-0 0.904,0.111 1.164,0.333c0.26,0.222 0.39,0.539 0.39,0.951c0,0.288 -0.077,0.537 -0.231,0.747c-0.154,0.21 -0.371,0.359 -0.651,0.447c0.12,0.024 0.228,0.08 0.324,0.168c0.096,0.088 0.172,0.206 0.228,0.354l0.504,1.272Zm-1.908,-2.502c0.24,-0 0.414,-0.037 0.522,-0.111c0.108,-0.074 0.162,-0.189 0.162,-0.345c0,-0.164 -0.053,-0.282 -0.159,-0.354c-0.106,-0.072 -0.281,-0.108 -0.525,-0.108l-0.708,-0l0,0.918l0.708,-0Z" style="fill:#f8f8f8;fill-rule:nonzero;"/>
    <path d="M145.519,213.063l-0.87,-0l1.578,-4.932l0.876,-0l-1.584,4.932Z" style="fill:#f8f8f8;fill-rule:nonzero;"/>
    <path d="M150.769,208.407l0.876,-0l0,4.272l-0.984,-0l-0.006,-1.956l-0.81,1.956l-0.714,-0l-0.816,-1.932l0,1.932l-0.978,-0l0,-4.272l0.882,-0l1.278,2.916l1.272,-2.916Z" style="fill:#f8f8f8;fill-rule:nonzero;"/>
    <path d="M154.465,212.733c-0.436,-0 -0.816,-0.089 -1.14,-0.267c-0.324,-0.178 -0.573,-0.433 -0.747,-0.765c-0.174,-0.332 -0.261,-0.72 -0.261,-1.164c0,-0.444 0.088,-0.83 0.264,-1.158c0.176,-0.328 0.425,-0.581 0.747,-0.759c0.322,-0.178 0.701,-0.267 1.137,-0.267c0.436,-0 0.815,0.089 1.137,0.267c0.322,0.178 0.569,0.431 0.741,0.759c0.172,0.328 0.258,0.714 0.258,1.158c0,0.444 -0.086,0.832 -0.258,1.164c-0.172,0.332 -0.419,0.587 -0.741,0.765c-0.322,0.178 -0.701,0.267 -1.137,0.267Zm0,-0.858c0.32,-0 0.571,-0.114 0.753,-0.342c0.182,-0.228 0.273,-0.56 0.273,-0.996c0,-0.432 -0.091,-0.761 -0.273,-0.987c-0.182,-0.226 -0.433,-0.339 -0.753,-0.339c-0.32,-0 -0.57,0.112 -0.75,0.336c-0.18,0.224 -0.27,0.554 -0.27,0.99c0,0.44 0.09,0.773 0.27,0.999c0.18,0.226 0.43,0.339 0.75,0.339Z" style="fill:#f8f8f8;fill-rule:nonzero;"/>
    <path d="M157.261,208.407l1.746,-0c0.472,-0 0.879,0.085 1.221,0.255c0.342,0.17 0.604,0.415 0.786,0.735c0.182,0.32 0.273,0.7 0.273,1.14c0,0.444 -0.09,0.827 -0.27,1.149c-0.18,0.322 -0.441,0.568 -0.783,0.738c-0.342,0.17 -0.751,0.255 -1.227,0.255l-1.746,-0l0,-4.272Zm1.668,3.372c0.416,-0 0.727,-0.103 0.933,-0.309c0.206,-0.206 0.309,-0.517 0.309,-0.933c0,-0.82 -0.414,-1.23 -1.242,-1.23l-0.54,-0l0,2.472l0.54,-0Z" style="fill:#f8f8f8;fill-rule:nonzero;"/>
    <path d="M18.909,212.679l0,-3.36l-1.272,-0l0,-0.912l3.684,-0l0,0.912l-1.272,-0l0,3.36l-1.14,-0Z" style="fill:#f8f8f8;fill-rule:nonzero;"/>
    <rect x="21.777" y="208.407" width="1.128" height="4.272" style="fill:#f8f8f8;fill-rule:nonzero;"/>
    <path d="M27.123,208.407l0.876,-0l0,4.272l-0.984,-0l-0.006,-1.956l-0.81,1.956l-0.714,-0l-0.816,-1.932l0,1.932l-0.978,-0l0,-4.272l0.882,-0l1.278,2.916l1.272,-2.916Z" style="fill:#f8f8f8;fill-rule:nonzero;"/>
    <path d="M31.659,210.465c0.252,0.072 0.446,0.199 0.582,0.381c0.136,0.182 0.204,0.403 0.204,0.663c0,0.236 -0.062,0.442 -0.186,0.618c-0.124,0.176 -0.301,0.312 -0.531,0.408c-0.23,0.096 -0.501,0.144 -0.813,0.144l-2.13,-0l0,-4.272l2.076,-0c0.448,-0 0.804,0.1 1.068,0.3c0.264,0.2 0.396,0.47 0.396,0.81c0,0.22 -0.058,0.414 -0.174,0.582c-0.116,0.168 -0.28,0.29 -0.492,0.366Zm-1.776,-0.384l0.786,-0c0.208,-0 0.36,-0.032 0.456,-0.096c0.096,-0.064 0.144,-0.166 0.144,-0.306c0,-0.144 -0.049,-0.25 -0.147,-0.318c-0.098,-0.068 -0.249,-0.102 -0.453,-0.102l-0.786,-0l0,0.822Zm0.9,1.746c0.216,-0 0.371,-0.034 0.465,-0.102c0.094,-0.068 0.141,-0.182 0.141,-0.342c0,-0.164 -0.046,-0.28 -0.138,-0.348c-0.092,-0.068 -0.248,-0.102 -0.468,-0.102l-0.9,-0l0,0.894l0.9,-0Z" style="fill:#f8f8f8;fill-rule:nonzero;"/>
    <path d="M36.711,212.679l-1.194,-0l-0.552,-1.422c-0.064,-0.16 -0.214,-0.24 -0.45,-0.24l-0.408,-0l0,1.662l-1.11,-0l0,-4.272l1.986,-0c0.516,-0 0.904,0.111 1.164,0.333c0.26,0.222 0.39,0.539 0.39,0.951c0,0.288 -0.077,0.537 -0.231,0.747c-0.154,0.21 -0.371,0.359 -0.651,0.447c0.12,0.024 0.228,0.08 0.324,0.168c0.096,0.088 0.172,0.206 0.228,0.354l0.504,1.272Zm-1.908,-2.502c0.24,-0 0.414,-0.037 0.522,-0.111c0.108,-0.074 0.162,-0.189 0.162,-0.345c0,-0.164 -0.053,-0.282 -0.159,-0.354c-0.106,-0.072 -0.281,-0.108 -0.525,-0.108l-0.708,-0l0,0.918l0.708,-0Z" style="fill:#f8f8f8;fill-rule:nonzero;"/>
    <path d="M37.281,212.679l0,-4.272l3.048,-0l0,0.864l-1.95,-0l0,0.804l1.824,-0l0,0.864l-1.824,-0l0,0.876l1.95,-0l0,0.864l-3.048,-0Z" style="fill:#f8f8f8;fill-rule:nonzero;"/>
    <path d="M41.397,213.063l-0.87,-0l1.578,-4.932l0.876,-0l-1.584,4.932Z" style="fill:#f8f8f8;fill-rule:nonzero;"/>
    <path d="M46.647,208.407l0.876,-0l0,4.272l-0.984,-0l-0.006,-1.956l-0.81,1.956l-0.714,-0l-0.816,-1.932l0,1.932l-0.978,-0l0,-4.272l0.882,-0l1.278,2.916l1.272,-2.916Z" style="fill:#f8f8f8;fill-rule:nonzero;"/>
    <path d="M50.343,212.733c-0.436,-0 -0.816,-0.089 -1.14,-0.267c-0.324,-0.178 -0.573,-0.433 -0.747,-0.765c-0.174,-0.332 -0.261,-0.72 -0.261,-1.164c0,-0.444 0.088,-0.83 0.264,-1.158c0.176,-0.328 0.425,-0.581 0.747,-0.759c0.322,-0.178 0.701,-0.267 1.137,-0.267c0.436,-0 0.815,0.089 1.137,0.267c0.322,0.178 0.569,0.431 0.741,0.759c0.172,0.328 0.258,0.714 0.258,1.158c0,0.444 -0.086,0.832 -0.258,1.164c-0.172,0.332 -0.419,0.587 -0.741,0.765c-0.322,0.178 -0.701,0.267 -1.137,0.267Zm0,-0.858c0.32,-0 0.571,-0.114 0.753,-0.342c0.182,-0.228 0.273,-0.56 0.273,-0.996c0,-0.432 -0.091,-0.761 -0.273,-0.987c-0.182,-0.226 -0.433,-0.339 -0.753,-0.339c-0.32,-0 -0.57,0.112 -0.75,0.336c-0.18,0.224 -0.27,0.554 -0.27,0.99c0,0.44 0.09,0.773 0.27,0.999c0.18,0.226 0.43,0.339 0.75,0.339Z" style="fill:#f8f8f8;fill-rule:nonzero;"/>
    <path d="M53.139,208.407l1.746,-0c0.472,-0 0.879,0.085 1.221,0.255c0.342,0.17 0.604,0.415 0.786,0.735c0.182,0.32 0.273,0.7 0.273,1.14c0,0.444 -0.09,0.827 -0.27,1.149c-0.18,0.322 -0.441,0.568 -0.783,0.738c-0.342,0.17 -0.751,0.255 -1.227,0.255l-1.746,-0l0,-4.272Zm1.668,3.372c0.416,-0 0.727,-0.103 0.933,-0.309c0.206,-0.206 0.309,-0.517 0.309,-0.933c0,-0.82 -0.414,-1.23 -1.242,-1.23l-0.54,-0l0,2.472l0.54,-0Z" style="fill:#f8f8f8;fill-rule:nonzero;"/>
    <path d="M14.323,262.14c-0.373,0 -0.742,-0.049 -1.106,-0.147c-0.364,-0.098 -0.66,-0.231 -0.889,-0.399l0.413,-0.931c0.243,0.154 0.501,0.272 0.774,0.354c0.273,0.081 0.547,0.122 0.822,0.122c0.28,0 0.495,-0.038 0.644,-0.115c0.15,-0.077 0.224,-0.186 0.224,-0.326c0,-0.126 -0.067,-0.23 -0.203,-0.311c-0.135,-0.082 -0.389,-0.163 -0.763,-0.242c-0.471,-0.093 -0.837,-0.209 -1.099,-0.346c-0.261,-0.138 -0.444,-0.3 -0.549,-0.487c-0.105,-0.187 -0.158,-0.413 -0.158,-0.679c0,-0.303 0.087,-0.577 0.259,-0.822c0.173,-0.245 0.416,-0.437 0.728,-0.574c0.313,-0.138 0.67,-0.207 1.071,-0.207c0.36,0 0.709,0.05 1.047,0.151c0.338,0.1 0.603,0.232 0.794,0.395l-0.406,0.931c-0.219,-0.154 -0.45,-0.272 -0.693,-0.353c-0.242,-0.082 -0.485,-0.123 -0.728,-0.123c-0.238,0 -0.429,0.046 -0.574,0.137c-0.144,0.091 -0.217,0.213 -0.217,0.367c0,0.084 0.026,0.154 0.077,0.21c0.052,0.056 0.147,0.111 0.287,0.165c0.14,0.053 0.35,0.11 0.63,0.171c0.453,0.098 0.809,0.216 1.068,0.354c0.259,0.137 0.442,0.298 0.549,0.483c0.108,0.184 0.161,0.404 0.161,0.661c0,0.485 -0.189,0.867 -0.567,1.145c-0.378,0.277 -0.91,0.416 -1.596,0.416Z" style="fill:#f8f8f8;fill-rule:nonzero;"/>
    <path d="M17.221,262.077l0,-4.984l3.556,0l0,1.008l-2.275,0l0,0.938l2.128,0l0,1.008l-2.128,0l0,1.022l2.275,0l0,1.008l-3.556,0Z" style="fill:#f8f8f8;fill-rule:nonzero;"/>
    <path d="M21.449,262.077l0,-4.984l1.316,0l0,3.92l2.107,0l0,1.064l-3.423,0Z" style="fill:#f8f8f8;fill-rule:nonzero;"/>
    <rect x="25.306" y="259.69" width="2.268" height="0.98" style="fill:#f8f8f8;fill-rule:nonzero;"/>
    <path d="M28.456,262.077l0,-4.984l1.316,0l0,3.92l2.107,0l0,1.064l-3.423,0Z" style="fill:#f8f8f8;fill-rule:nonzero;"/>
    <path d="M13.446,277.933l0,-3.92l-1.484,-0l0,-1.064l4.298,-0l0,1.064l-1.484,-0l0,3.92l-1.33,-0Z" style="fill:#f8f8f8;fill-rule:nonzero;"/>
    <rect x="16.792" y="272.949" width="1.316" height="4.984" style="fill:#f8f8f8;fill-rule:nonzero;"/>
    <path d="M23.029,272.949l1.022,-0l0,4.984l-1.148,-0l-0.007,-2.282l-0.945,2.282l-0.833,-0l-0.952,-2.254l0,2.254l-1.141,-0l0,-4.984l1.029,-0l1.491,3.402l1.484,-3.402Z" style="fill:#f8f8f8;fill-rule:nonzero;"/>
    <path d="M28.321,275.35c0.294,0.084 0.52,0.232 0.679,0.444c0.159,0.212 0.238,0.47 0.238,0.774c0,0.275 -0.072,0.515 -0.217,0.721c-0.145,0.205 -0.351,0.364 -0.619,0.476c-0.269,0.112 -0.585,0.168 -0.949,0.168l-2.485,-0l0,-4.984l2.422,-0c0.523,-0 0.938,0.116 1.246,0.35c0.308,0.233 0.462,0.548 0.462,0.945c0,0.256 -0.068,0.483 -0.203,0.679c-0.135,0.196 -0.327,0.338 -0.574,0.427Zm-2.072,-0.448l0.917,-0c0.243,-0 0.42,-0.038 0.532,-0.112c0.112,-0.075 0.168,-0.194 0.168,-0.357c0,-0.168 -0.057,-0.292 -0.171,-0.371c-0.115,-0.08 -0.291,-0.119 -0.529,-0.119l-0.917,-0l0,0.959Zm1.05,2.037c0.252,-0 0.433,-0.04 0.543,-0.119c0.109,-0.08 0.164,-0.213 0.164,-0.399c0,-0.192 -0.054,-0.327 -0.161,-0.406c-0.107,-0.08 -0.289,-0.119 -0.546,-0.119l-1.05,-0l0,1.043l1.05,-0Z" style="fill:#f8f8f8;fill-rule:nonzero;"/>
    <path d="M34.215,277.933l-1.393,-0l-0.644,-1.659c-0.075,-0.187 -0.25,-0.28 -0.525,-0.28l-0.476,-0l0,1.939l-1.295,-0l0,-4.984l2.317,-0c0.602,-0 1.055,0.129 1.358,0.388c0.303,0.259 0.455,0.629 0.455,1.11c0,0.336 -0.09,0.626 -0.269,0.871c-0.18,0.245 -0.433,0.419 -0.76,0.522c0.14,0.028 0.266,0.093 0.378,0.196c0.112,0.102 0.201,0.24 0.266,0.413l0.588,1.484Zm-2.226,-2.919c0.28,-0 0.483,-0.044 0.609,-0.13c0.126,-0.086 0.189,-0.22 0.189,-0.402c0,-0.192 -0.062,-0.329 -0.185,-0.413c-0.124,-0.084 -0.328,-0.126 -0.613,-0.126l-0.826,-0l0,1.071l0.826,-0Z" style="fill:#f8f8f8;fill-rule:nonzero;"/>
    <path d="M34.88,277.933l0,-4.984l3.556,-0l0,1.008l-2.275,-0l0,0.938l2.128,-0l0,1.008l-2.128,-0l0,1.022l2.275,-0l0,1.008l-3.556,-0Z" style="fill:#f8f8f8;fill-rule:nonzero;"/>
    <path d="M145.748,277.996c-0.518,-0 -0.969,-0.107 -1.354,-0.319c-0.385,-0.212 -0.682,-0.512 -0.889,-0.899c-0.208,-0.388 -0.312,-0.836 -0.312,-1.344c0,-0.504 0.104,-0.949 0.312,-1.334c0.207,-0.385 0.504,-0.684 0.889,-0.896c0.385,-0.212 0.836,-0.318 1.354,-0.318c0.327,-0 0.643,0.049 0.949,0.147c0.305,0.098 0.551,0.231 0.738,0.399l-0.399,0.931c-0.406,-0.294 -0.826,-0.441 -1.26,-0.441c-0.401,-0 -0.709,0.127 -0.924,0.381c-0.215,0.254 -0.322,0.631 -0.322,1.131c0,0.504 0.107,0.884 0.322,1.141c0.215,0.256 0.523,0.385 0.924,0.385c0.434,-0 0.854,-0.147 1.26,-0.441l0.399,0.931c-0.187,0.168 -0.433,0.301 -0.738,0.399c-0.306,0.098 -0.622,0.147 -0.949,0.147Z" style="fill:#f8f8f8;fill-rule:nonzero;"/>
    <path d="M150.382,277.996c-0.509,-0 -0.952,-0.104 -1.33,-0.312c-0.378,-0.208 -0.668,-0.505 -0.871,-0.892c-0.203,-0.388 -0.305,-0.84 -0.305,-1.358c0,-0.518 0.103,-0.969 0.308,-1.351c0.205,-0.383 0.496,-0.678 0.872,-0.886c0.375,-0.208 0.817,-0.311 1.326,-0.311c0.509,-0 0.951,0.103 1.327,0.311c0.375,0.208 0.663,0.503 0.864,0.886c0.201,0.382 0.301,0.833 0.301,1.351c0,0.518 -0.1,0.97 -0.301,1.358c-0.201,0.387 -0.489,0.684 -0.864,0.892c-0.376,0.208 -0.818,0.312 -1.327,0.312Zm0,-1.001c0.373,-0 0.666,-0.133 0.879,-0.399c0.212,-0.266 0.318,-0.654 0.318,-1.162c0,-0.504 -0.106,-0.888 -0.318,-1.152c-0.213,-0.264 -0.506,-0.395 -0.879,-0.395c-0.373,-0 -0.665,0.13 -0.875,0.392c-0.21,0.261 -0.315,0.646 -0.315,1.155c0,0.513 0.105,0.901 0.315,1.165c0.21,0.264 0.502,0.396 0.875,0.396Z" style="fill:#f8f8f8;fill-rule:nonzero;"/>
    <path d="M153.644,277.933l0,-4.984l1.316,-0l0,3.92l2.107,-0l0,1.064l-3.423,-0Z" style="fill:#f8f8f8;fill-rule:nonzero;"/>
    <path d="M159.776,277.996c-0.509,-0 -0.952,-0.104 -1.33,-0.312c-0.378,-0.208 -0.668,-0.505 -0.871,-0.892c-0.203,-0.388 -0.305,-0.84 -0.305,-1.358c0,-0.518 0.103,-0.969 0.308,-1.351c0.205,-0.383 0.496,-0.678 0.872,-0.886c0.375,-0.208 0.817,-0.311 1.326,-0.311c0.509,-0 0.951,0.103 1.327,0.311c0.375,0.208 0.663,0.503 0.864,0.886c0.201,0.382 0.301,0.833 0.301,1.351c0,0.518 -0.1,0.97 -0.301,1.358c-0.201,0.387 -0.489,0.684 -0.864,0.892c-0.376,0.208 -0.818,0.312 -1.327,0.312Zm0,-1.001c0.373,-0 0.666,-0.133 0.879,-0.399c0.212,-0.266 0.318,-0.654 0.318,-1.162c0,-0.504 -0.106,-0.888 -0.318,-1.152c-0.213,-0.264 -0.506,-0.395 -0.879,-0.395c-0.373,-0 -0.665,0.13 -0.875,0.392c-0.21,0.261 -0.315,0.646 -0.315,1.155c0,0.513 0.105,0.901 0.315,1.165c0.21,0.264 0.502,0.396 0.875,0.396Z" style="fill:#f8f8f8;fill-rule:nonzero;"/>
    <path d="M167.371,277.933l-1.393,-0l-0.644,-1.659c-0.075,-0.187 -0.25,-0.28 -0.525,-0.28l-0.476,-0l0,1.939l-1.295,-0l0,-4.984l2.317,-0c0.602,-0 1.055,0.129 1.358,0.388c0.303,0.259 0.455,0.629 0.455,1.11c0,0.336 -0.09,0.626 -0.269,0.871c-0.18,0.245 -0.433,0.419 -0.76,0.522c0.14,0.028 0.266,0.093 0.378,0.196c0.112,0.102 0.201,0.24 0.266,0.413l0.588,1.484Zm-2.226,-2.919c0.28,-0 0.483,-0.044 0.609,-0.13c0.126,-0.086 0.189,-0.22 0.189,-0.402c0,-0.192 -0.062,-0.329 -0.185,-0.413c-0.124,-0.084 -0.328,-0.126 -0.613,-0.126l-0.826,-0l0,1.071l0.826,-0Z" style="fill:#f8f8f8;fill-rule:nonzero;"/>
    <path d="M122.659,277.933l-1.393,-0l-0.644,-1.659c-0.075,-0.187 -0.25,-0.28 -0.525,-0.28l-0.476,-0l0,1.939l-1.295,-0l0,-4.984l2.317,-0c0.602,-0 1.055,0.129 1.358,0.388c0.303,0.259 0.455,0.629 0.455,1.11c0,0.336 -0.09,0.626 -0.269,0.871c-0.18,0.245 -0.433,0.419 -0.76,0.522c0.14,0.028 0.266,0.093 0.378,0.196c0.112,0.102 0.201,0.24 0.266,0.413l0.588,1.484Zm-2.226,-2.919c0.28,-0 0.483,-0.044 0.609,-0.13c0.126,-0.086 0.189,-0.22 0.189,-0.402c0,-0.192 -0.062,-0.329 -0.185,-0.413c-0.124,-0.084 -0.328,-0.126 -0.613,-0.126l-0.826,-0l0,1.071l0.826,-0Z" style="fill:#f8f8f8;fill-rule:nonzero;"/>
    <path d="M82.558,277.95l-0.441,-1.029l-2.212,-0l-0.441,1.029l-1.316,-0l2.331,-4.984l1.036,-0l2.338,4.984l-1.295,-0Zm-2.226,-2.016l1.358,-0l-0.679,-1.575l-0.679,1.575Z" style="fill:#f8f8f8;fill-rule:nonzero;"/>
    <path d="M88.165,272.966l1.022,-0l-0,4.984l-1.148,-0l-0.007,-2.282l-0.945,2.282l-0.833,-0l-0.952,-2.254l-0,2.254l-1.141,-0l-0,-4.984l1.029,-0l1.491,3.402l1.484,-3.402Z" style="fill:#f8f8f8;fill-rule:nonzero;"/>
    <path d="M90.475,278.398l-1.015,-0l1.841,-5.754l1.022,-0l-1.848,5.754Z" style="fill:#f8f8f8;fill-rule:nonzero;"/>
    <path d="M92.575,277.95l-0,-4.984l3.479,-0l-0,1.029l-2.184,-0l-0,0.91l2.044,-0l-0,1.022l-2.044,-0l-0,2.023l-1.295,-0Z" style="fill:#f8f8f8;fill-rule:nonzero;"/>
    <path d="M100.688,272.966l1.022,-0l-0,4.984l-1.148,-0l-0.007,-2.282l-0.945,2.282l-0.833,-0l-0.952,-2.254l-0,2.254l-1.141,-0l-0,-4.984l1.029,-0l1.491,3.402l1.484,-3.402Z" style="fill:#f8f8f8;fill-rule:nonzero;"/>
    <path d="M57.326,277.933l0,-4.984l1.316,-0l0,3.92l2.107,-0l0,1.064l-3.423,-0Z" style="fill:#f8f8f8;fill-rule:nonzero;"/>
    <path d="M150.323,262.14c-0.373,0 -0.742,-0.049 -1.106,-0.147c-0.364,-0.098 -0.66,-0.231 -0.889,-0.399l0.413,-0.931c0.243,0.154 0.501,0.272 0.774,0.354c0.273,0.081 0.547,0.122 0.822,0.122c0.28,0 0.495,-0.038 0.644,-0.115c0.15,-0.077 0.224,-0.186 0.224,-0.326c0,-0.126 -0.067,-0.23 -0.203,-0.311c-0.135,-0.082 -0.389,-0.163 -0.763,-0.242c-0.471,-0.093 -0.837,-0.209 -1.099,-0.346c-0.261,-0.138 -0.444,-0.3 -0.549,-0.487c-0.105,-0.187 -0.158,-0.413 -0.158,-0.679c0,-0.303 0.087,-0.577 0.259,-0.822c0.173,-0.245 0.416,-0.437 0.728,-0.574c0.313,-0.138 0.67,-0.207 1.071,-0.207c0.36,0 0.709,0.05 1.047,0.151c0.338,0.1 0.603,0.232 0.794,0.395l-0.406,0.931c-0.219,-0.154 -0.45,-0.272 -0.693,-0.353c-0.242,-0.082 -0.485,-0.123 -0.728,-0.123c-0.238,0 -0.429,0.046 -0.574,0.137c-0.144,0.091 -0.217,0.213 -0.217,0.367c0,0.084 0.026,0.154 0.077,0.21c0.052,0.056 0.147,0.111 0.287,0.165c0.14,0.053 0.35,0.11 0.63,0.171c0.453,0.098 0.809,0.216 1.068,0.354c0.259,0.137 0.442,0.298 0.549,0.483c0.108,0.184 0.161,0.404 0.161,0.661c0,0.485 -0.189,0.867 -0.567,1.145c-0.378,0.277 -0.91,0.416 -1.596,0.416Z" style="fill:#f8f8f8;fill-rule:nonzero;"/>
    <path d="M153.221,262.077l0,-4.984l3.556,0l0,1.008l-2.275,0l0,0.938l2.128,0l0,1.008l-2.128,0l0,1.022l2.275,0l0,1.008l-3.556,0Z" style="fill:#f8f8f8;fill-rule:nonzero;"/>
    <path d="M157.449,262.077l0,-4.984l1.316,0l0,3.92l2.107,0l0,1.064l-3.423,0Z" style="fill:#f8f8f8;fill-rule:nonzero;"/>
    <rect x="161.306" y="259.69" width="2.268" height="0.98" style="fill:#f8f8f8;fill-rule:nonzero;"/>
    <path d="M168.789,262.077l-1.393,0l-0.644,-1.659c-0.074,-0.187 -0.249,-0.28 -0.525,-0.28l-0.476,0l0,1.939l-1.295,0l0,-4.984l2.317,0c0.602,0 1.055,0.13 1.358,0.389c0.304,0.259 0.455,0.628 0.455,1.109c0,0.336 -0.089,0.627 -0.269,0.872c-0.18,0.245 -0.433,0.418 -0.76,0.521c0.14,0.028 0.266,0.093 0.378,0.196c0.112,0.103 0.201,0.24 0.266,0.413l0.588,1.484Zm-2.226,-2.919c0.28,0 0.483,-0.043 0.609,-0.129c0.126,-0.087 0.189,-0.221 0.189,-0.403c0,-0.191 -0.061,-0.329 -0.185,-0.413c-0.124,-0.084 -0.328,-0.126 -0.613,-0.126l-0.826,0l0,1.071l0.826,0Z" style="fill:#f8f8f8;fill-rule:nonzero;"/>
    <path d="M21.509,354.943l-0,-3.92l-1.484,0l-0,-1.064l4.298,0l-0,1.064l-1.484,0l-0,3.92l-1.33,0Z" style="fill:#f8f8f8;fill-rule:nonzero;"/>
    <path d="M29.188,354.943l-1.393,0l-0.644,-1.659c-0.075,-0.187 -0.25,-0.28 -0.525,-0.28l-0.476,0l-0,1.939l-1.295,0l-0,-4.984l2.317,0c0.602,0 1.055,0.13 1.358,0.389c0.303,0.259 0.455,0.628 0.455,1.109c-0,0.336 -0.09,0.627 -0.27,0.872c-0.179,0.245 -0.432,0.418 -0.759,0.521c0.14,0.028 0.266,0.093 0.378,0.196c0.112,0.103 0.201,0.24 0.266,0.413l0.588,1.484Zm-2.226,-2.919c0.28,0 0.483,-0.043 0.609,-0.129c0.126,-0.087 0.189,-0.221 0.189,-0.403c-0,-0.191 -0.062,-0.329 -0.186,-0.413c-0.123,-0.084 -0.327,-0.126 -0.612,-0.126l-0.826,0l-0,1.071l0.826,0Z" style="fill:#f8f8f8;fill-rule:nonzero;"/>
    <rect x="29.853" y="349.959" width="1.316" height="4.984" style="fill:#f8f8f8;fill-rule:nonzero;"/>
    <path d="M36.489,352.129l-0,2.499c-0.266,0.121 -0.564,0.215 -0.893,0.28c-0.329,0.065 -0.666,0.098 -1.011,0.098c-0.541,0 -1.012,-0.103 -1.411,-0.308c-0.399,-0.205 -0.705,-0.5 -0.92,-0.885c-0.215,-0.385 -0.322,-0.842 -0.322,-1.369c-0,-0.513 0.107,-0.962 0.322,-1.347c0.215,-0.385 0.518,-0.682 0.91,-0.889c0.392,-0.208 0.849,-0.312 1.372,-0.312c0.359,0 0.699,0.047 1.018,0.14c0.32,0.093 0.58,0.222 0.781,0.385l-0.413,0.931c-0.229,-0.149 -0.449,-0.258 -0.662,-0.325c-0.212,-0.068 -0.439,-0.102 -0.682,-0.102c-0.443,0 -0.774,0.125 -0.991,0.375c-0.217,0.249 -0.325,0.631 -0.325,1.144c-0,0.532 0.113,0.926 0.339,1.183c0.227,0.257 0.576,0.385 1.047,0.385c0.219,0 0.439,-0.023 0.658,-0.07l-0,-0.924l-0.868,0l-0,-0.889l2.051,0Z" style="fill:#f8f8f8;fill-rule:nonzero;"/>
    <path d="M41.746,352.129l-0,2.499c-0.266,0.121 -0.564,0.215 -0.893,0.28c-0.329,0.065 -0.666,0.098 -1.011,0.098c-0.541,0 -1.012,-0.103 -1.411,-0.308c-0.399,-0.205 -0.705,-0.5 -0.92,-0.885c-0.215,-0.385 -0.322,-0.842 -0.322,-1.369c-0,-0.513 0.107,-0.962 0.322,-1.347c0.215,-0.385 0.518,-0.682 0.91,-0.889c0.392,-0.208 0.849,-0.312 1.372,-0.312c0.359,0 0.699,0.047 1.018,0.14c0.32,0.093 0.58,0.222 0.781,0.385l-0.413,0.931c-0.229,-0.149 -0.449,-0.258 -0.662,-0.325c-0.212,-0.068 -0.439,-0.102 -0.682,-0.102c-0.443,0 -0.774,0.125 -0.991,0.375c-0.217,0.249 -0.325,0.631 -0.325,1.144c-0,0.532 0.113,0.926 0.339,1.183c0.227,0.257 0.576,0.385 1.047,0.385c0.219,0 0.439,-0.023 0.658,-0.07l-0,-0.924l-0.868,0l-0,-0.889l2.051,0Z" style="fill:#f8f8f8;fill-rule:nonzero;"/>
    <path d="M42.579,354.943l-0,-4.984l3.556,0l-0,1.008l-2.275,0l-0,0.938l2.128,0l-0,1.008l-2.128,0l-0,1.022l2.275,0l-0,1.008l-3.556,0Z" style="fill:#f8f8f8;fill-rule:nonzero;"/>
    <path d="M51.14,354.943l-1.393,0l-0.644,-1.659c-0.075,-0.187 -0.25,-0.28 -0.525,-0.28l-0.476,0l-0,1.939l-1.295,0l-0,-4.984l2.317,0c0.602,0 1.055,0.13 1.358,0.389c0.303,0.259 0.455,0.628 0.455,1.109c-0,0.336 -0.09,0.627 -0.27,0.872c-0.179,0.245 -0.432,0.418 -0.759,0.521c0.14,0.028 0.266,0.093 0.378,0.196c0.112,0.103 0.201,0.24 0.266,0.413l0.588,1.484Zm-2.226,-2.919c0.28,0 0.483,-0.043 0.609,-0.129c0.126,-0.087 0.189,-0.221 0.189,-0.403c-0,-0.191 -0.062,-0.329 -0.186,-0.413c-0.123,-0.084 -0.327,-0.126 -0.612,-0.126l-0.826,0l-0,1.071l0.826,0Z" style="fill:#f8f8f8;fill-rule:nonzero;"/>
    <path d="M53.569,355.006c-0.373,0 -0.742,-0.049 -1.106,-0.147c-0.364,-0.098 -0.66,-0.231 -0.889,-0.399l0.413,-0.931c0.243,0.154 0.5,0.272 0.773,0.354c0.273,0.081 0.548,0.122 0.823,0.122c0.28,0 0.495,-0.038 0.644,-0.115c0.149,-0.077 0.224,-0.186 0.224,-0.326c-0,-0.126 -0.068,-0.23 -0.203,-0.311c-0.135,-0.082 -0.39,-0.163 -0.763,-0.242c-0.471,-0.093 -0.838,-0.209 -1.099,-0.346c-0.261,-0.138 -0.445,-0.3 -0.55,-0.487c-0.105,-0.187 -0.157,-0.413 -0.157,-0.679c-0,-0.303 0.086,-0.577 0.259,-0.822c0.173,-0.245 0.415,-0.437 0.728,-0.574c0.313,-0.138 0.67,-0.207 1.071,-0.207c0.359,0 0.708,0.05 1.046,0.151c0.339,0.1 0.604,0.232 0.795,0.395l-0.406,0.931c-0.219,-0.154 -0.45,-0.272 -0.693,-0.353c-0.243,-0.082 -0.485,-0.123 -0.728,-0.123c-0.238,0 -0.429,0.046 -0.574,0.137c-0.145,0.091 -0.217,0.213 -0.217,0.367c-0,0.084 0.026,0.154 0.077,0.21c0.051,0.056 0.147,0.111 0.287,0.165c0.14,0.053 0.35,0.11 0.63,0.171c0.453,0.098 0.808,0.216 1.067,0.354c0.259,0.137 0.443,0.298 0.55,0.483c0.107,0.184 0.161,0.404 0.161,0.661c-0,0.485 -0.189,0.867 -0.567,1.145c-0.378,0.277 -0.91,0.416 -1.596,0.416Z" style="fill:#f8f8f8;fill-rule:nonzero;"/>
    <path d="M83.667,222.679l-0.378,-0.882l-1.896,-0l-0.378,0.882l-1.128,-0l1.998,-4.272l0.888,-0l2.004,4.272l-1.11,-0Zm-1.908,-1.728l1.164,-0l-0.582,-1.35l-0.582,1.35Z" style="fill:#f8f8f8;fill-rule:nonzero;"/>
    <path d="M88.473,218.407l0.876,-0l-0,4.272l-0.984,-0l-0.006,-1.956l-0.81,1.956l-0.714,-0l-0.816,-1.932l-0,1.932l-0.978,-0l-0,-4.272l0.882,-0l1.278,2.916l1.272,-2.916Z" style="fill:#f8f8f8;fill-rule:nonzero;"/>
    <path d="M90.453,223.063l-0.87,-0l1.578,-4.932l0.876,-0l-1.584,4.932Z" style="fill:#f8f8f8;fill-rule:nonzero;"/>
    <path d="M92.253,222.679l-0,-4.272l2.982,-0l-0,0.882l-1.872,-0l-0,0.78l1.752,-0l-0,0.876l-1.752,-0l-0,1.734l-1.11,-0Z" style="fill:#f8f8f8;fill-rule:nonzero;"/>
    <path d="M99.207,218.407l0.876,-0l-0,4.272l-0.984,-0l-0.006,-1.956l-0.81,1.956l-0.714,-0l-0.816,-1.932l-0,1.932l-0.978,-0l-0,-4.272l0.882,-0l1.278,2.916l1.272,-2.916Z" style="fill:#f8f8f8;fill-rule:nonzero;"/>
    <path d="M19.909,159.679l0,-3.36l-1.272,-0l0,-0.912l3.684,-0l0,0.912l-1.272,-0l0,3.36l-1.14,-0Z" style="fill:#f8f8f8;fill-rule:nonzero;"/>
    <rect x="22.777" y="155.407" width="1.128" height="4.272" style="fill:#f8f8f8;fill-rule:nonzero;"/>
    <path d="M28.123,155.407l0.876,-0l0,4.272l-0.984,-0l-0.006,-1.956l-0.81,1.956l-0.714,-0l-0.816,-1.932l0,1.932l-0.978,-0l0,-4.272l0.882,-0l1.278,2.916l1.272,-2.916Z" style="fill:#f8f8f8;fill-rule:nonzero;"/>
    <path d="M32.659,157.465c0.252,0.072 0.446,0.199 0.582,0.381c0.136,0.182 0.204,0.403 0.204,0.663c0,0.236 -0.062,0.442 -0.186,0.618c-0.124,0.176 -0.301,0.312 -0.531,0.408c-0.23,0.096 -0.501,0.144 -0.813,0.144l-2.13,-0l0,-4.272l2.076,-0c0.448,-0 0.804,0.1 1.068,0.3c0.264,0.2 0.396,0.47 0.396,0.81c0,0.22 -0.058,0.414 -0.174,0.582c-0.116,0.168 -0.28,0.29 -0.492,0.366Zm-1.776,-0.384l0.786,-0c0.208,-0 0.36,-0.032 0.456,-0.096c0.096,-0.064 0.144,-0.166 0.144,-0.306c0,-0.144 -0.049,-0.25 -0.147,-0.318c-0.098,-0.068 -0.249,-0.102 -0.453,-0.102l-0.786,-0l0,0.822Zm0.9,1.746c0.216,-0 0.371,-0.034 0.465,-0.102c0.094,-0.068 0.141,-0.182 0.141,-0.342c0,-0.164 -0.046,-0.28 -0.138,-0.348c-0.092,-0.068 -0.248,-0.102 -0.468,-0.102l-0.9,-0l0,0.894l0.9,-0Z" style="fill:#f8f8f8;fill-rule:nonzero;"/>
    <path d="M37.711,159.679l-1.194,-0l-0.552,-1.422c-0.064,-0.16 -0.214,-0.24 -0.45,-0.24l-0.408,-0l0,1.662l-1.11,-0l0,-4.272l1.986,-0c0.516,-0 0.904,0.111 1.164,0.333c0.26,0.222 0.39,0.539 0.39,0.951c0,0.288 -0.077,0.537 -0.231,0.747c-0.154,0.21 -0.371,0.359 -0.651,0.447c0.12,0.024 0.228,0.08 0.324,0.168c0.096,0.088 0.172,0.206 0.228,0.354l0.504,1.272Zm-1.908,-2.502c0.24,-0 0.414,-0.037 0.522,-0.111c0.108,-0.074 0.162,-0.189 0.162,-0.345c0,-0.164 -0.053,-0.282 -0.159,-0.354c-0.106,-0.072 -0.281,-0.108 -0.525,-0.108l-0.708,-0l0,0.918l0.708,-0Z" style="fill:#f8f8f8;fill-rule:nonzero;"/>
    <path d="M38.281,159.679l0,-4.272l3.048,-0l0,0.864l-1.95,-0l0,0.804l1.824,-0l0,0.864l-1.824,-0l0,0.876l1.95,-0l0,0.864l-3.048,-0Z" style="fill:#f8f8f8;fill-rule:nonzero;"/>
    <path d="M52.595,24.598c0.638,0 1.113,0.193 1.425,0.578c0.311,0.385 0.467,0.973 0.467,1.765l0,3.377l-1.661,0l0,-3.322c0,-0.388 -0.062,-0.669 -0.187,-0.841c-0.124,-0.173 -0.33,-0.259 -0.616,-0.259c-0.337,0 -0.597,0.118 -0.781,0.352c-0.183,0.235 -0.275,0.565 -0.275,0.99l0,3.08l-1.661,0l0,-3.322c0,-0.381 -0.064,-0.66 -0.192,-0.836c-0.129,-0.176 -0.332,-0.264 -0.611,-0.264c-0.337,0 -0.599,0.118 -0.786,0.352c-0.187,0.235 -0.281,0.565 -0.281,0.99l0,3.08l-1.661,0l0,-3.982c0,-0.594 -0.029,-1.125 -0.088,-1.595l1.562,0l0.099,0.836c0.169,-0.315 0.405,-0.557 0.71,-0.726c0.304,-0.168 0.654,-0.253 1.05,-0.253c0.829,0 1.379,0.345 1.65,1.034c0.184,-0.315 0.438,-0.566 0.765,-0.753c0.326,-0.187 0.684,-0.281 1.072,-0.281Z" style="fill:#f8f8f8;fill-rule:nonzero;"/>
    <path d="M61.384,24.741l0,5.577l-1.639,0l0,-0.825c-0.168,0.286 -0.407,0.51 -0.715,0.671c-0.308,0.162 -0.656,0.242 -1.045,0.242c-0.484,0 -0.911,-0.117 -1.281,-0.352c-0.371,-0.234 -0.66,-0.57 -0.869,-1.006c-0.209,-0.437 -0.314,-0.941 -0.314,-1.513c0,-0.572 0.105,-1.081 0.314,-1.529c0.209,-0.447 0.5,-0.794 0.874,-1.039c0.374,-0.246 0.8,-0.369 1.276,-0.369c0.389,0 0.737,0.085 1.045,0.253c0.308,0.169 0.547,0.396 0.715,0.682l0,-0.792l1.639,0Zm-2.915,4.4c0.411,0 0.726,-0.139 0.946,-0.418c0.22,-0.278 0.33,-0.682 0.33,-1.21c0,-0.528 -0.11,-0.933 -0.33,-1.215c-0.22,-0.283 -0.535,-0.424 -0.946,-0.424c-0.41,0 -0.729,0.147 -0.957,0.44c-0.227,0.294 -0.341,0.701 -0.341,1.221c0,0.521 0.112,0.919 0.336,1.194c0.223,0.275 0.544,0.412 0.962,0.412Z" style="fill:#f8f8f8;fill-rule:nonzero;"/>
    <path d="M65.366,30.406c-0.909,0 -1.622,-0.256 -2.139,-0.77c-0.517,-0.513 -0.776,-1.213 -0.776,-2.101c0,-0.579 0.125,-1.091 0.374,-1.534c0.25,-0.444 0.6,-0.789 1.051,-1.034c0.451,-0.246 0.973,-0.369 1.567,-0.369c0.404,0 0.796,0.063 1.177,0.187c0.382,0.125 0.686,0.294 0.913,0.506l-0.44,1.155c-0.22,-0.176 -0.462,-0.313 -0.726,-0.412c-0.264,-0.099 -0.52,-0.149 -0.77,-0.149c-0.454,0 -0.808,0.138 -1.061,0.413c-0.253,0.275 -0.38,0.676 -0.38,1.204c0,0.536 0.125,0.941 0.374,1.216c0.25,0.275 0.605,0.412 1.067,0.412c0.25,0 0.506,-0.049 0.77,-0.148c0.264,-0.099 0.506,-0.237 0.726,-0.413l0.44,1.155c-0.242,0.213 -0.557,0.38 -0.946,0.501c-0.388,0.121 -0.795,0.181 -1.221,0.181Z" style="fill:#f8f8f8;fill-rule:nonzero;"/>
    <path d="M71.57,24.609c0.235,0 0.433,0.037 0.594,0.11l-0.011,1.518c-0.271,-0.124 -0.542,-0.187 -0.814,-0.187c-0.44,0 -0.775,0.119 -1.006,0.358c-0.231,0.238 -0.347,0.57 -0.347,0.995l0,2.915l-1.661,0l0,-3.982c0,-0.594 -0.029,-1.125 -0.088,-1.595l1.562,0l0.11,0.957c0.14,-0.352 0.358,-0.621 0.655,-0.808c0.297,-0.187 0.632,-0.281 1.006,-0.281Z" style="fill:#f8f8f8;fill-rule:nonzero;"/>
    <path d="M75.387,30.406c-0.594,0 -1.113,-0.117 -1.556,-0.352c-0.444,-0.234 -0.785,-0.572 -1.023,-1.012c-0.239,-0.44 -0.358,-0.953 -0.358,-1.54c0,-0.586 0.119,-1.1 0.358,-1.54c0.238,-0.44 0.579,-0.777 1.023,-1.012c0.443,-0.234 0.962,-0.352 1.556,-0.352c0.587,0 1.1,0.118 1.54,0.352c0.44,0.235 0.779,0.572 1.018,1.012c0.238,0.44 0.357,0.954 0.357,1.54c0,0.587 -0.119,1.1 -0.357,1.54c-0.239,0.44 -0.578,0.778 -1.018,1.012c-0.44,0.235 -0.953,0.352 -1.54,0.352Zm0,-1.265c0.411,0 0.724,-0.135 0.941,-0.407c0.216,-0.271 0.324,-0.682 0.324,-1.232c0,-0.542 -0.108,-0.951 -0.324,-1.226c-0.217,-0.275 -0.53,-0.413 -0.941,-0.413c-0.418,0 -0.737,0.138 -0.957,0.413c-0.22,0.275 -0.33,0.684 -0.33,1.226c0,1.093 0.429,1.639 1.287,1.639Z" style="fill:#f8f8f8;fill-rule:nonzero;"/>
    <path d="M85.122,30.406c-0.594,0 -1.113,-0.117 -1.556,-0.352c-0.444,-0.234 -0.785,-0.572 -1.023,-1.012c-0.239,-0.44 -0.358,-0.953 -0.358,-1.54c0,-0.586 0.119,-1.1 0.358,-1.54c0.238,-0.44 0.579,-0.777 1.023,-1.012c0.443,-0.234 0.962,-0.352 1.556,-0.352c0.587,0 1.1,0.118 1.54,0.352c0.44,0.235 0.779,0.572 1.018,1.012c0.238,0.44 0.357,0.954 0.357,1.54c0,0.587 -0.119,1.1 -0.357,1.54c-0.239,0.44 -0.578,0.778 -1.018,1.012c-0.44,0.235 -0.953,0.352 -1.54,0.352Zm0,-1.265c0.411,0 0.724,-0.135 0.941,-0.407c0.216,-0.271 0.324,-0.682 0.324,-1.232c0,-0.542 -0.108,-0.951 -0.324,-1.226c-0.217,-0.275 -0.53,-0.413 -0.941,-0.413c-0.418,0 -0.737,0.138 -0.957,0.413c-0.22,0.275 -0.33,0.684 -0.33,1.226c0,1.093 0.429,1.639 1.287,1.639Z" style="fill:#f8f8f8;fill-rule:nonzero;"/>
    <path d="M91.238,30.406c-1.056,0 -1.888,-0.227 -2.497,-0.682l0.44,-1.155c0.294,0.213 0.62,0.376 0.979,0.49c0.36,0.113 0.726,0.17 1.1,0.17c0.286,0 0.506,-0.044 0.66,-0.132c0.154,-0.088 0.231,-0.216 0.231,-0.385c0,-0.139 -0.055,-0.249 -0.165,-0.33c-0.11,-0.08 -0.304,-0.15 -0.583,-0.209l-0.913,-0.209c-0.535,-0.117 -0.929,-0.304 -1.182,-0.561c-0.253,-0.256 -0.38,-0.597 -0.38,-1.023c0,-0.344 0.101,-0.652 0.303,-0.924c0.201,-0.271 0.482,-0.482 0.841,-0.632c0.36,-0.151 0.774,-0.226 1.243,-0.226c0.396,0 0.785,0.061 1.166,0.182c0.382,0.121 0.723,0.291 1.023,0.511l-0.462,1.111c-0.286,-0.198 -0.577,-0.348 -0.874,-0.451c-0.297,-0.102 -0.585,-0.154 -0.864,-0.154c-0.271,0 -0.484,0.048 -0.638,0.143c-0.154,0.096 -0.231,0.228 -0.231,0.396c0,0.125 0.046,0.226 0.138,0.303c0.091,0.077 0.255,0.141 0.489,0.192l0.935,0.209c0.572,0.132 0.987,0.33 1.243,0.594c0.257,0.264 0.385,0.616 0.385,1.056c0,0.528 -0.212,0.946 -0.638,1.254c-0.425,0.308 -1.008,0.462 -1.749,0.462Z" style="fill:#f8f8f8;fill-rule:nonzero;"/>
    <path d="M97.277,30.406c-0.909,0 -1.622,-0.256 -2.139,-0.77c-0.517,-0.513 -0.776,-1.213 -0.776,-2.101c0,-0.579 0.125,-1.091 0.374,-1.534c0.25,-0.444 0.6,-0.789 1.051,-1.034c0.451,-0.246 0.973,-0.369 1.567,-0.369c0.404,0 0.796,0.063 1.177,0.187c0.382,0.125 0.686,0.294 0.913,0.506l-0.44,1.155c-0.22,-0.176 -0.462,-0.313 -0.726,-0.412c-0.264,-0.099 -0.52,-0.149 -0.77,-0.149c-0.454,0 -0.808,0.138 -1.061,0.413c-0.253,0.275 -0.38,0.676 -0.38,1.204c0,0.536 0.125,0.941 0.374,1.216c0.25,0.275 0.605,0.412 1.067,0.412c0.25,0 0.506,-0.049 0.77,-0.148c0.264,-0.099 0.506,-0.237 0.726,-0.413l0.44,1.155c-0.242,0.213 -0.557,0.38 -0.946,0.501c-0.388,0.121 -0.795,0.181 -1.221,0.181Z" style="fill:#f8f8f8;fill-rule:nonzero;"/>
    <path d="M100.236,30.318l0,-5.577l1.661,0l0,5.577l-1.661,0Zm-0.055,-8.195l1.771,0l0,1.562l-1.771,0l0,-1.562Z" style="fill:#f8f8f8;fill-rule:nonzero;"/>
    <rect x="103.25" y="22.222" width="1.661" height="8.096" style="fill:#f8f8f8;fill-rule:nonzero;"/>
    <rect x="106.264" y="22.222" width="1.661" height="8.096" style="fill:#f8f8f8;fill-rule:nonzero;"/>
    <path d="M114.866,24.741l0,5.577l-1.639,0l0,-0.825c-0.168,0.286 -0.407,0.51 -0.715,0.671c-0.308,0.162 -0.656,0.242 -1.045,0.242c-0.484,0 -0.911,-0.117 -1.281,-0.352c-0.371,-0.234 -0.66,-0.57 -0.869,-1.006c-0.209,-0.437 -0.314,-0.941 -0.314,-1.513c0,-0.572 0.105,-1.081 0.314,-1.529c0.209,-0.447 0.5,-0.794 0.874,-1.039c0.374,-0.246 0.8,-0.369 1.276,-0.369c0.389,0 0.737,0.085 1.045,0.253c0.308,0.169 0.547,0.396 0.715,0.682l0,-0.792l1.639,0Zm-2.915,4.4c0.411,0 0.726,-0.139 0.946,-0.418c0.22,-0.278 0.33,-0.682 0.33,-1.21c0,-0.528 -0.11,-0.933 -0.33,-1.215c-0.22,-0.283 -0.535,-0.424 -0.946,-0.424c-0.41,0 -0.729,0.147 -0.957,0.44c-0.227,0.294 -0.341,0.701 -0.341,1.221c0,0.521 0.112,0.919 0.336,1.194c0.223,0.275 0.544,0.412 0.962,0.412Z" style="fill:#f8f8f8;fill-rule:nonzero;"/>
    <path d="M118.298,25.984l0,2.167c0,0.308 0.081,0.534 0.242,0.677c0.162,0.143 0.371,0.214 0.627,0.214c0.162,0 0.345,-0.025 0.55,-0.077l0,1.287c-0.264,0.103 -0.583,0.154 -0.957,0.154c-0.689,0 -1.215,-0.194 -1.578,-0.583c-0.363,-0.388 -0.545,-0.935 -0.545,-1.639l0,-2.2l-1.056,0l0,-1.243l1.056,0l0,-1.309l1.661,-0.539l0,1.848l1.419,0l0,1.243l-1.419,0Z" style="fill:#f8f8f8;fill-rule:nonzero;"/>
    <path d="M123.226,30.406c-0.594,0 -1.113,-0.117 -1.556,-0.352c-0.444,-0.234 -0.785,-0.572 -1.023,-1.012c-0.239,-0.44 -0.358,-0.953 -0.358,-1.54c0,-0.586 0.119,-1.1 0.358,-1.54c0.238,-0.44 0.579,-0.777 1.023,-1.012c0.443,-0.234 0.962,-0.352 1.556,-0.352c0.587,0 1.1,0.118 1.54,0.352c0.44,0.235 0.779,0.572 1.018,1.012c0.238,0.44 0.357,0.954 0.357,1.54c0,0.587 -0.119,1.1 -0.357,1.54c-0.239,0.44 -0.578,0.778 -1.018,1.012c-0.44,0.235 -0.953,0.352 -1.54,0.352Zm0,-1.265c0.411,0 0.724,-0.135 0.941,-0.407c0.216,-0.271 0.324,-0.682 0.324,-1.232c0,-0.542 -0.108,-0.951 -0.324,-1.226c-0.217,-0.275 -0.53,-0.413 -0.941,-0.413c-0.418,0 -0.737,0.138 -0.957,0.413c-0.22,0.275 -0.33,0.684 -0.33,1.226c0,1.093 0.429,1.639 1.287,1.639Z" style="fill:#f8f8f8;fill-rule:nonzero;"/>
    <path d="M130.453,24.609c0.235,0 0.433,0.037 0.594,0.11l-0.011,1.518c-0.271,-0.124 -0.542,-0.187 -0.814,-0.187c-0.44,0 -0.775,0.119 -1.006,0.358c-0.231,0.238 -0.347,0.57 -0.347,0.995l0,2.915l-1.661,0l0,-3.982c0,-0.594 -0.029,-1.125 -0.088,-1.595l1.562,0l0.11,0.957c0.14,-0.352 0.358,-0.621 0.655,-0.808c0.297,-0.187 0.632,-0.281 1.006,-0.281Z" style="fill:#f8f8f8;fill-rule:nonzero;"/>
  </g>
</svg>