<?xml version="1.0" encoding="utf-8"?>
<!-- Generator: Adobe Illustrator 28.7.1, SVG Export Plug-In . SVG Version: 9.03 Build 54978)  -->
<svg version="1.0"
	 id="svg71790" xmlns:inkscape="http://www.inkscape.org/namespaces/inkscape" xmlns:sodipodi="http://sodipodi.sourceforge.net/DTD/sodipodi-0.dtd" xmlns:dc="http://purl.org/dc/elements/1.1/" xmlns:rdf="http://www.w3.org/1999/02/22-rdf-syntax-ns#" xmlns:svg="http://www.w3.org/2000/svg" xmlns:cc="http://creativecommons.org/ns#" inkscape:version="0.92.4 5da689c313, 2019-01-14"
	 xmlns="http://www.w3.org/2000/svg" xmlns:xlink="http://www.w3.org/1999/xlink" x="0px" y="0px" width="90.13565px"
	 height="380px" viewBox="0 0 90.13565 380" enable-background="new 0 0 90.13565 380" xml:space="preserve">
<sodipodi:namedview  bordercolor="#666666" borderopacity="1.0" fit-margin-bottom="0" fit-margin-left="0" fit-margin-right="0" fit-margin-top="0" id="base" inkscape:bbox-nodes="true" inkscape:bbox-paths="true" inkscape:current-layer="layer1" inkscape:cx="-19.04536" inkscape:cy="273.37083" inkscape:document-units="mm" inkscape:pageopacity="0.0" inkscape:pageshadow="2" inkscape:snap-bbox="true" inkscape:window-height="882" inkscape:window-maximized="0" inkscape:window-width="1600" inkscape:window-x="0" inkscape:window-y="18" inkscape:zoom="1.979899" pagecolor="#FDBB3C" showgrid="false" units="mm">
	</sodipodi:namedview>
<g id="layer1" transform="translate(-44.480238,-30.910884)" inkscape:groupmode="layer" inkscape:label="Layer 1">
	
		<linearGradient id="path6332_00000152959238644776234870000008943011638657829277_" gradientUnits="userSpaceOnUse" x1="89.54807" y1="30.91088" x2="89.54807" y2="410.91089">
		<stop  offset="0" style="stop-color:#401B5C"/>
		<stop  offset="1" style="stop-color:#401B5C"/>
	</linearGradient>
	
		<path id="path6332" inkscape:connector-curvature="0" fill="url(#path6332_00000152959238644776234870000008943011638657829277_)" d="
		M44.48024,30.91088h90.13565v380H44.48024V30.91088z"/>
	<g id="g6928" transform="matrix(0.35277777,0,0,-0.35277777,54.871095,151.22059)">
		<path id="path6930" inkscape:connector-curvature="0" fill="#FDBB3C" d="M57.64829-667.47644c0.64763,0,0.64763,0,2.04343,0.17444
			c0.68312,0.07983,1.25977,0.29871,1.62942,0.5412v5.30225c-0.27798,0.18634-0.83097,0.33417-1.53479,0.38147
			c-1.4579,0.10352-1.4579,0.10352-2.1144,0.10352c-0.7393,0-1.2716-0.13898-1.61759-0.66833
			c-0.34599-0.53229-0.50864-1.00543-0.50864-2.54321c0-1.55841,0.15082-2.01971,0.48498-2.57568
			C56.36486-667.31384,56.89716-667.47644,57.64829-667.47644 M58.34028-674.66248c-0.81915,0-1.69744,0.0473-2.44857,0.10352
			c-0.75113,0.05914-1.3958,0.12714-1.76545,0.20996l0.24249,2.03162c0.54117-0.0799,1.22429-0.14789,1.91627-0.19519
			c0.69198-0.0473,1.42241-0.07098,2.03455-0.07098c1.24498,0,1.99612,0.08282,2.43674,0.59143
			c0.43767,0.49683,0.56483,1.39581,0.56483,3.06073v0.42584c-0.35782-0.24249-0.98179-0.51752-1.88374-0.68018
			c-1.8246-0.32233-1.8246-0.32233-2.73541-0.32233c-0.61214,0-1.22429,0.06799-1.75658,0.34601
			c-0.5323,0.27502-1.00545,0.78363-1.32779,1.62646c-0.33712,0.84576-0.5323,1.59686-0.5323,3.30615
			c0,2.0907,0.46132,3.54565,1.16809,4.34119c0.69199,0.7984,1.61463,0.9729,2.57573,0.9729c0.88716,0,0.88716,0,2.72654-0.20996
			c0.8635-0.09167,1.53479-0.31049,1.85712-0.50867l0.47611,0.9256h1.8246v-10.22302c0-2.20605-0.21883-3.64032-1.00545-4.51862
			C61.92145-674.32532,60.57001-674.66248,58.34028-674.66248"/>
	</g>
	<g id="g6932" transform="matrix(0.35277777,0,0,-0.35277777,55.884978,150.17467)">
		<path id="path6934" inkscape:connector-curvature="0" fill="#FDBB3C" d="M63.27331-661.67365h1.93993l0.35783-1.30414
			c0.47315,0.27502,1.06459,0.62396,1.75658,0.91083c0.69199,0.28979,1.53774,0.54413,2.41604,0.67126l0.23066-2.2179
			c-0.64763-0.08276-1.46677-0.21881-2.25339-0.40515c-0.79845-0.19513-1.55845-0.43762-2.03456-0.71564v-8.06427h-2.41308
			V-661.67365z"/>
	</g>
	<g id="g6936" transform="matrix(0.35277777,0,0,-0.35277777,57.251641,151.28949)">
		<path id="path6938" inkscape:connector-curvature="0" fill="#FDBB3C" d="M70.85552-667.85858
			c0.60031,0,1.2716,0.15082,1.88374,0.34601c0.61214,0.19812,1.14148,0.45245,1.50226,0.64764v2.50769
			c-1.38693,0-2.34506-0.0473-3.02818-0.12714c-0.69199-0.08282-1.09713-0.19818-1.37511-0.349
			c-0.23066-0.13599-0.34599-0.35779-0.414-0.62396c-0.07098-0.27502-0.0828-0.58844-0.0828-0.86346
			c0-0.6358,0.13898-1.01727,0.3933-1.23615C69.98906-667.79053,70.35871-667.85858,70.85552-667.85858 M69.90922-669.79852
			c-0.7393,0-1.49043,0.18335-2.04639,0.70386c-0.56483,0.50861-0.93448,1.37506-0.93448,2.7265s0.23067,2.28595,1.01728,2.7384
			c0.61214,0.35779,1.35144,0.56482,2.34506,0.68018c0.99362,0.1153,2.25043,0.12714,3.95083,0.12714v0.49683
			c0,0.78662-0.07098,1.32776-0.36078,1.68561c-0.28685,0.36078-0.81915,0.50861-1.70927,0.50861
			c-1.67377,0-3.00156-0.23065-3.8-0.40216l-0.33417,1.99609c0.69199,0.13898,2.15876,0.44061,4.19331,0.44061
			c1.62943,0,2.73837-0.26611,3.43036-0.86646c0.68016-0.61212,0.95814-1.58209,0.95814-3.00452v-7.67096h-1.90444l-0.35782,1.15625
			c-0.28981-0.1745-0.85464-0.50861-1.62943-0.78662C71.95264-669.55603,70.98268-669.79852,69.90922-669.79852"/>
	</g>
	<g id="g6940" transform="matrix(0.35277777,0,0,-0.35277777,58.083983,150.17467)">
		<path id="path6942" inkscape:connector-curvature="0" fill="#FDBB3C" d="M75.47336-661.67365h2.55207
			c0.58848-1.5141,1.13261-2.87738,1.60576-4.06616c0.19814-0.50861,0.39331-1.00543,0.58849-1.49042
			c0.19813-0.49683,0.36965-0.92267,0.52047-1.30414s0.26614-0.69495,0.35782-0.9256
			c0.09463-0.24249,0.13899-0.35785,0.13899-0.35785l3.13168,8.14417h2.26226l-6.18943-15.8595h-2.41603l1.91922,4.89716
			L75.47336-661.67365z"/>
	</g>
	<g id="g6944" transform="matrix(0.35277777,0,0,-0.35277777,60.028073,151.52652)">
		<path id="path6946" inkscape:connector-curvature="0" fill="#FDBB3C" d="M86.25912-669.17371
			c-0.78662,0-1.67378,0.07983-2.44857,0.18335c-0.78661,0.10645-1.45494,0.24542-1.83642,0.38147l0.3105,1.81573
			c0.32529-0.09467,0.96996-0.2218,1.72109-0.33716c0.7393-0.1153,1.58211-0.20697,2.27705-0.20697
			c1.06163,0,1.72109,0.09167,2.1144,0.33417c0.39035,0.24249,0.50864,0.65942,0.50864,1.30707
			c0,0.47314-0.10646,0.76294-0.46429,0.95813c-0.36964,0.19519-0.95813,0.32233-1.92809,0.4613
			c-1.75658,0.24249-2.85371,0.47314-3.52203,0.95813c-0.67128,0.48798-0.90195,1.23615-0.90195,2.54321
			c0,1.24792,0.40514,2.06708,1.16514,2.58759c0.76296,0.50861,1.89557,0.71564,3.40966,0.71564
			c0.8428,0,1.72109-0.04736,2.47222-0.11536c0.7393-0.06799,1.33961-0.1745,1.66195-0.25433l-0.33416-1.84821
			c-0.36965,0.05914-1.05277,0.15082-1.78024,0.23065c-0.72747,0.08276-1.50226,0.12714-2.06709,0.12714
			c-0.8428,0-1.39876-0.07983-1.73292-0.29865c-0.33417-0.23364-0.47315-0.56781-0.47315-1.07648
			c0-0.55298,0.11533-0.87823,0.5323-1.07343c0.41401-0.19519,1.13261-0.30164,2.33323-0.43768
			c1.57028-0.18628,2.57573-0.45245,3.18787-0.96106c0.61214-0.50867,0.83097-1.23615,0.83097-2.37762
			c0-1.52594-0.43767-2.4397-1.2716-2.94537C89.18084-669.02289,87.92107-669.17371,86.25912-669.17371"/>
	</g>
	<g id="g6948" transform="matrix(0.35277777,0,0,-0.35277777,61.408491,151.5334)">
		<path id="path6950" inkscape:connector-curvature="0" fill="#FDBB3C" d="M93.91765-669.21179
			c-1.86008,0-3.22336,0.36963-4.11347,1.2923c-0.88716,0.9256-1.32779,2.40417-1.32779,4.62213
			c0,2.20605,0.45245,3.67285,1.36327,4.59845c0.91377,0.92261,2.28888,1.2923,4.16965,1.2923
			c0.60032,0,1.25977-0.05621,1.87192-0.13904c0.60031-0.07983,1.15627-0.18329,1.53774-0.27496l-0.40514-2.02277
			c-0.70381,0.15082-1.79207,0.35785-3.07253,0.35785c-1.00546,0-1.75658-0.1272-2.2534-0.66833
			c-0.50864-0.54413-0.75113-1.47864-0.75113-3.08435c0-1.61761,0.26615-2.59943,0.77479-3.16718
			c0.50864-0.56482,1.2716-0.73932,2.27409-0.73932c1.10007,0,2.22973,0.1745,3.05183,0.39331l0.42583-1.96356
			c-0.47315-0.1272-1.0498-0.25433-1.66195-0.34601C95.18925-669.15265,94.52979-669.21179,93.91765-669.21179"/>
	</g>
	<g id="g6952" transform="matrix(0.35277777,0,0,-0.35277777,62.441708,151.28949)">
		<path id="path6954" inkscape:connector-curvature="0" fill="#FDBB3C" d="M99.64993-667.85858
			c0.60032,0,1.2716,0.15082,1.88374,0.34601c0.61214,0.19812,1.14148,0.45245,1.50226,0.64764v2.50769
			c-1.38692,0-2.34506-0.0473-3.02818-0.12714c-0.69199-0.08282-1.09712-0.19818-1.3751-0.349
			c-0.23067-0.13599-0.34599-0.35779-0.41401-0.62396c-0.07098-0.27502-0.0828-0.58844-0.0828-0.86346
			c0-0.6358,0.13898-1.01727,0.39331-1.23615C98.78347-667.79053,99.15312-667.85858,99.64993-667.85858 M98.70362-669.79852
			c-0.7393,0-1.49043,0.18335-2.04639,0.70386c-0.56482,0.50861-0.93447,1.37506-0.93447,2.7265s0.23066,2.28595,1.01727,2.7384
			c0.61214,0.35779,1.35145,0.56482,2.34507,0.68018c0.99361,0.1153,2.25043,0.12714,3.95082,0.12714v0.49683
			c0,0.78662-0.07097,1.32776-0.36078,1.68561c-0.28685,0.36078-0.81915,0.50861-1.70927,0.50861
			c-1.67377,0-3.00156-0.23065-3.8-0.40216l-0.33417,1.99609c0.69199,0.13898,2.15876,0.44061,4.19332,0.44061
			c1.62942,0,2.73837-0.26611,3.43035-0.86646c0.68016-0.61212,0.95814-1.58209,0.95814-3.00452v-7.67096h-1.90444l-0.35782,1.15625
			c-0.28981-0.1745-0.85464-0.50861-1.62942-0.78662C100.74706-669.55603,99.77709-669.79852,98.70362-669.79852"/>
	</g>
	<path id="path6956" inkscape:connector-curvature="0" fill="#FDBB3C" d="M100.50414,381.27155h0.84397v6.25107h-0.84397V381.27155z
		"/>
	<g id="g6958" transform="matrix(0.35277777,0,0,-0.35277777,64.825355,150.68317)">
		<path id="path6960" inkscape:connector-curvature="0" fill="#FDBB3C" d="M112.87437-664.49475
			c0,1.12079-0.17447,1.83643-0.57665,2.2652c-0.41697,0.42584-1.04094,0.57666-1.93105,0.57666
			c-0.69199,0-1.2923-0.13898-1.72109-0.56482c-0.42584-0.42877-0.70382-1.13263-0.78366-2.27704H112.87437z M110.9581-671.62164
			c-1.90739,0-3.30615,0.36969-4.21697,1.2923c-0.92561,0.9256-1.36327,2.40424-1.36327,4.62213
			c0,2.27411,0.5323,3.76453,1.43129,4.69012c0.90195,0.91083,2.16171,1.25977,3.62849,1.25977
			c1.62943,0,2.85371-0.31348,3.64919-1.13263c0.79845-0.82208,1.20062-2.12622,1.20062-4.10162v-1.08527h-7.47285
			c0.01183-1.4668,0.30164-2.32141,0.83098-2.83008c0.5323-0.50861,1.31891-0.64764,2.33323-0.64764
			c0.55596,0,1.21542,0.03552,1.82755,0.09167c0.60032,0.05914,1.1888,0.15082,1.60577,0.25433l0.35782-1.96356
			c-0.38148-0.10352-1.01727-0.21887-1.71222-0.29871C112.36573-671.56543,111.60277-671.62164,110.9581-671.62164"/>
	</g>
	<g>
		<g id="g6908" transform="matrix(0.35277777,0,0,-0.35277777,54.043938,70.418819)">
			
				<path id="path6910" inkscape:connector-curvature="0" fill="none" stroke="#FDBB3C" stroke-width="1.04324" stroke-linecap="round" stroke-linejoin="round" d="
				M51.81623-217.31969h95.80752"/>
		</g>
		<g id="g6912" transform="matrix(0.35277777,0,0,-0.35277777,54.043938,84.418842)">
			
				<path id="path6914" inkscape:connector-curvature="0" fill="none" stroke="#FDBB3C" stroke-width="1.04324" stroke-linecap="round" stroke-linejoin="round" d="
				M51.81623-294.99164h95.80752"/>
		</g>
		<g id="g6916" transform="matrix(0.35277777,0,0,-0.35277777,54.043938,98.419004)">
			
				<path id="path6918" inkscape:connector-curvature="0" fill="none" stroke="#FDBB3C" stroke-width="1.04324" stroke-linecap="round" stroke-linejoin="round" d="
				M51.81623-372.66425h95.80752"/>
		</g>
		<g id="g6920" transform="matrix(0.35277777,0,0,-0.35277777,54.043938,112.41902)">
			
				<path id="path6922" inkscape:connector-curvature="0" fill="none" stroke="#FDBB3C" stroke-width="1.04324" stroke-linecap="round" stroke-linejoin="round" d="
				M51.81623-450.33621h95.80752"/>
		</g>
		<g id="g6924" transform="matrix(0.35277777,0,0,-0.35277777,58.435387,140.41885)">
			<path id="path6926" inkscape:connector-curvature="0" fill="#FDBB3C" d="M76.17992-605.67871
				c0-26.45813-21.45452-47.90674-47.90967-47.90674c-26.45219,0-47.90376,21.44861-47.90376,47.90674
				s21.45156,47.90674,47.90376,47.90674C54.7254-557.77197,76.17992-579.22058,76.17992-605.67871"/>
		</g>
		<g id="g6962" transform="matrix(0.35277777,0,0,-0.35277777,54.043938,126.41866)">
			
				<path id="path6964" inkscape:connector-curvature="0" fill="none" stroke="#FDBB3C" stroke-width="1.04324" stroke-linecap="round" stroke-linejoin="round" d="
				M51.81623-528.00598h95.80752"/>
		</g>
		<g id="g6966" transform="matrix(0.35277777,0,0,-0.35277777,54.043938,140.4185)">
			
				<path id="path6968" inkscape:connector-curvature="0" fill="none" stroke="#FDBB3C" stroke-width="1.04324" stroke-linecap="round" stroke-linejoin="round" d="
				M51.81623-605.67682h95.80752"/>
		</g>
		<g id="g6970" transform="matrix(0.35277777,0,0,-0.35277777,58.435387,126.41901)">
			<path id="path6972" inkscape:connector-curvature="0" fill="#FDBB3C" d="M76.17992-528.00787
				c0-26.45813-21.45452-47.90674-47.90967-47.90674c-26.45219,0-47.90376,21.44861-47.90376,47.90674
				c0,26.4581,21.45156,47.90671,47.90376,47.90671C54.7254-480.10117,76.17992-501.54977,76.17992-528.00787"/>
		</g>
		<g id="g6974" transform="matrix(0.35277777,0,0,-0.35277777,58.435387,112.4192)">
			<path id="path6976" inkscape:connector-curvature="0" fill="#FDBB3C" d="M76.17992-450.33716
				c0-26.4581-21.45452-47.90671-47.90967-47.90671c-26.45219,0-47.90376,21.44861-47.90376,47.90671
				c0,26.45813,21.45156,47.90674,47.90376,47.90674C54.7254-402.43042,76.17992-423.87903,76.17992-450.33716"/>
		</g>
		<g id="g6978" transform="matrix(0.35277777,0,0,-0.35277777,58.435387,98.419356)">
			<path id="path6980" inkscape:connector-curvature="0" fill="#FDBB3C" d="M76.17992-372.66632
				c0-26.4581-21.45452-47.90967-47.90967-47.90967c-26.45219,0-47.90376,21.45157-47.90376,47.90967
				s21.45156,47.90671,47.90376,47.90671C54.7254-324.75961,76.17992-346.20822,76.17992-372.66632"/>
		</g>
		<g id="g6982" transform="matrix(0.35277777,0,0,-0.35277777,58.435387,84.419336)">
			<path id="path6984" inkscape:connector-curvature="0" fill="#FDBB3C" d="M76.17992-294.99438
				c0-26.4581-21.45452-47.90671-47.90967-47.90671c-26.45219,0-47.90376,21.44861-47.90376,47.90671
				c0,26.45813,21.45156,47.90672,47.90376,47.90672C54.7254-247.08766,76.17992-268.53625,76.17992-294.99438"/>
		</g>
		<g id="g6986" transform="matrix(0.35277777,0,0,-0.35277777,58.435387,70.419348)">
			<path id="path6988" inkscape:connector-curvature="0" fill="#FDBB3C" d="M76.17992-217.32269
				c0-26.4581-21.45452-47.90671-47.90967-47.90671c-26.45219,0-47.90376,21.44861-47.90376,47.90671
				s21.45156,47.90672,47.90376,47.90672C54.7254-169.41597,76.17992-190.86458,76.17992-217.32269"/>
		</g>
	</g>
	<g id="g6990" transform="matrix(0.35277777,0,0,-0.35277777,53.817595,40.351217)">
		<path id="path6992" inkscape:connector-curvature="0" fill="#FDBB3C" d="M51.80351-52.37503
			c0.90786,0,1.73292,0.15969,2.31845,0.6358c0.5737,0.47611,0.94039,1.28638,0.94039,2.57277s-0.3667,2.11145-0.94039,2.6053
			c-0.58553,0.4909-1.41059,0.65059-2.31845,0.65059H45.8477v-6.46445H51.80351z M51.18545-42.28801
			c0.9049,0,1.72997,0.09463,2.31549,0.52343c0.5737,0.42879,0.94039,1.17401,0.94039,2.46039s-0.36669,2.06709-0.95518,2.47814
			c-0.58553,0.41401-1.41059,0.50864-2.3007,0.50864H45.8477v-5.9706H51.18545z M41.13095-32.41094h10.0545
			c2.6053,0,4.62211-0.26911,5.98538-1.17401c1.36623-0.9049,2.08483-2.44561,2.08483-4.93853
			c0-1.65308-0.30459-2.85962-0.90786-3.68468c-0.60327-0.8428-1.4786-1.35144-2.6053-1.62055
			c1.16218-0.207,2.19129-0.70086,2.93946-1.62055c0.74522-0.92265,1.19175-2.25635,1.19175-4.09869
			c0-2.43082-0.61805-4.09869-1.93993-5.16328c-1.31891-1.06164-3.33573-1.50817-6.13028-1.50817H41.13095V-32.41094z"/>
	</g>
	<path id="path6994" inkscape:connector-curvature="0" fill="#FDBB3C" d="M76.06527,51.78508h1.70361v8.3991h-1.70361V51.78508z"/>
	<g id="g6996" transform="matrix(0.35277777,0,0,-0.35277777,56.210558,37.969649)">
		<path id="path6998" inkscape:connector-curvature="0" fill="#FDBB3C" d="M65.07962-39.16208h4.74632L80.30923-54.3148v15.15272
			h4.57479v-23.80845h-4.09573L69.67216-46.80054v-16.16999h-4.59254V-39.16208z"/>
	</g>
	<g id="g7000" transform="matrix(0.35277777,0,0,-0.35277777,60.196522,38.736872)">
		<path id="path7002" inkscape:connector-curvature="0" fill="#FDBB3C" d="M87.19367-43.41862
			c-0.65058-1.76249-1.23611-3.32094-1.74475-4.68421c-0.22475-0.58849-0.42879-1.17697-0.6358-1.73292
			c-0.41401-1.1267-0.76-2.00203-0.96996-2.54024C83.73374-52.64805,83.68347-52.79,83.68347-52.79h7.00562L87.19367-43.41862z
			 M80.66712-60.95484h-4.7818l9.22944,23.96814h4.40031l9.22648-23.96814H93.7084l-1.58802,4.2909h-9.86523L80.66712-60.95484z"/>
	</g>
	<g id="g7004" transform="matrix(0.35277777,0,0,-0.35277777,62.981526,39.443627)">
		<path id="path7006" inkscape:connector-curvature="0" fill="#FDBB3C" d="M102.64482-47.33974
			c1.28934,0,2.28592,0.15673,2.97199,0.76c0.68311,0.60623,1.03207,1.63829,1.03207,3.46289
			c0,1.84529-0.39626,2.89215-1.09712,3.48063c-0.71269,0.58553-1.74475,0.71564-2.96903,0.71564h-4.68422v-8.41916H102.64482z
			 M112.98617-58.793h-5.46491l-5.09527,7.57635h-4.52748V-58.793h-4.74927v23.80845h9.49558
			c2.93946,0,5.14554-0.34599,6.6064-1.52296c1.46381-1.17401,2.17946-3.22335,2.17946-6.54429
			c0-2.33324-0.36374-3.92125-1.0646-5.03316c-0.71564-1.11191-1.77728-1.74771-3.16125-2.08187L112.98617-58.793z"/>
	</g>
	<g id="g7008" transform="matrix(0.35277777,0,0,-0.35277777,65.255287,39.796052)">
		<path id="path7010" inkscape:connector-curvature="0" fill="#FDBB3C" d="M115.25961-49.29488l-9.00764,15.30945h5.19581
			l6.31955-10.64002l6.30476,10.64002h4.93854l-8.97216-15.21482v-8.59364h-4.77885V-49.29488z"/>
	</g>
	<g id="g7012" transform="matrix(0.35277777,0,0,-0.35277777,49.872269,45.70596)">
		<path id="path7014" inkscape:connector-curvature="0" fill="#FDBB3C" d="M29.91489-82.08298h1.8453v-11.30539h6.73947v-1.62942
			h-8.58476V-82.08298z"/>
	</g>
	<g id="g7016" transform="matrix(0.35277777,0,0,-0.35277777,51.705726,47.077279)">
		<path id="path7018" inkscape:connector-curvature="0" fill="#FDBB3C" d="M40.08689-89.69104
			c1.15331,0,2.07891,0.22475,2.71176,0.89899c0.63284,0.6772,0.97883,1.81277,0.97883,3.67581v0.90786
			c0,1.84825-0.35486,2.98973-0.99658,3.6758c-0.64171,0.68311-1.57619,0.89899-2.7295,0.89899
			c-1.14148,0-2.07004-0.20701-2.70288-0.88125c-0.63284-0.6772-0.98771-1.81277-0.98771-3.65807v-0.91082
			c0-1.86008,0.35487-3.00452,1.00545-3.68763C38.01684-89.46629,38.94245-89.69104,40.08689-89.69104 M40.0514-91.32933
			c-1.07346,0-2.06117,0.12125-2.89214,0.49385c-0.83985,0.37261-1.52592,0.99658-2.00203,1.97542
			c-0.47611,0.97883-0.74522,2.33914-0.74522,4.18444s0.26911,3.21449,0.75409,4.20219
			c0.48498,0.98771,1.17697,1.61168,2.01977,1.99316c0.83984,0.37261,1.82755,0.50272,2.90102,0.50272
			c1.07346,0,2.06117-0.12125,2.90102-0.49385c0.83393-0.37261,1.51705-0.99658,2.00203-1.97541
			c0.47611-0.97884,0.74522-2.33915,0.74522-4.18445c0-1.84529-0.26911-3.20561-0.75409-4.19331
			c-0.48498-0.99066-1.17697-1.62055-2.01681-1.99316C42.12144-91.19921,41.12782-91.32933,40.0514-91.32933"/>
	</g>
	<g id="g7020" transform="matrix(0.35277777,0,0,-0.35277777,53.232266,47.269507)">
		<path id="path7022" inkscape:connector-curvature="0" fill="#FDBB3C" d="M48.5561-90.75758
			c-1.04094,0-2.00203,0.08576-2.79752,0.42584c-0.80732,0.33416-1.47269,0.91673-1.93401,1.89557
			c-0.45837,0.97883-0.7186,2.36576-0.7186,4.30569s0.2691,3.32685,0.73634,4.32343
			c0.46724,0.99657,1.14444,1.58506,1.97541,1.93105c0.82506,0.34895,1.81276,0.44358,2.8951,0.44358
			c0.93447,0,1.75658-0.0621,2.41603-0.15673c0.65059-0.09463,1.12669-0.19814,1.3958-0.29572l-0.31347-1.60872
			c-0.37261,0.06802-0.89899,0.16265-1.51409,0.24249c-0.62397,0.06802-1.32779,0.13012-2.01977,0.13012
			c-1.28343,0-2.18242-0.22771-2.76499-0.90195c-0.58848-0.6772-0.85759-1.80981-0.85759-3.60484v-0.91082
			c0-1.75658,0.26911-2.90102,0.85759-3.62257c0.59144-0.71564,1.49043-0.98475,2.74725-0.98475
			c1.21245,0,1.9488,0.12125,2.41012,0.23362v4.59254h1.75658v-5.89075c-0.3105-0.10645-0.86646-0.23657-1.59393-0.34895
			C50.49603-90.67182,49.58817-90.75758,48.5561-90.75758"/>
	</g>
	<path id="path7024" inkscape:connector-curvature="0" fill="#FDBB3C" d="M72.73943,74.66325h0.65724v4.56311h-0.65724V74.66325z"/>
	<g id="g7026" transform="matrix(0.35277777,0,0,-0.35277777,55.181504,47.269507)">
		<path id="path7028" inkscape:connector-curvature="0" fill="#FDBB3C" d="M59.37044-90.75758
			c-1.04094,0-2.00203,0.08576-2.79752,0.42584c-0.80732,0.33416-1.47269,0.91673-1.93401,1.89557
			c-0.45837,0.97883-0.7186,2.36576-0.7186,4.30569s0.2691,3.32685,0.72747,4.32343
			c0.46133,0.99657,1.13557,1.58506,1.95176,1.93105c0.81323,0.34895,1.76545,0.44358,2.80639,0.44358
			c0.93447,0,1.69743-0.07097,2.29479-0.1656c0.58849-0.09463,1.02319-0.207,1.30117-0.28685l-0.33121-1.59393
			c-0.37261,0.07098-0.84872,0.15674-1.40171,0.23658c-0.56483,0.06802-1.20654,0.12125-1.89853,0.12125
			c-1.21246,0-2.07891-0.22771-2.64965-0.90195c-0.5737-0.6772-0.85168-1.80981-0.85168-3.60484v-0.91082
			c0-1.75658,0.27798-2.89214,0.86646-3.60188c0.58257-0.70972,1.4579-0.9877,2.67036-0.9877
			c0.75409,0,1.48156,0.06801,2.07004,0.16264c0.57961,0.09759,1.03206,0.18334,1.21245,0.24249l0.33712-1.59393
			C62.27145-90.55058,61.12997-90.75758,59.37044-90.75758"/>
	</g>
	<g id="g7030" transform="matrix(0.35277777,0,0,-0.35277777,51.283027,49.8995)">
		<path id="path7032" inkscape:connector-curvature="0" fill="#FDBB3C" d="M37.74176-105.34868
			c1.15331,0,2.07891,0.22475,2.71175,0.89899c0.63284,0.6772,0.97884,1.81277,0.97884,3.6758v0.90786
			c0,1.84825-0.35486,2.98974-0.99658,3.6758c-0.64171,0.68311-1.57619,0.89899-2.7295,0.89899
			c-1.14148,0-2.07004-0.20701-2.70288-0.88125c-0.63284-0.6772-0.98771-1.81277-0.98771-3.65807v-0.91082
			c0-1.86008,0.35486-3.00452,1.00545-3.68763C35.67171-105.12393,36.59732-105.34868,37.74176-105.34868 M37.70627-106.98697
			c-1.07346,0-2.06117,0.12125-2.89215,0.49385c-0.83984,0.37261-1.52592,0.99658-2.00203,1.97542
			c-0.47611,0.97884-0.74522,2.33915-0.74522,4.18444c0,1.8453,0.2691,3.21449,0.75409,4.20219
			c0.48498,0.98771,1.17696,1.61168,2.01977,1.99316c0.83985,0.37261,1.82755,0.50272,2.90102,0.50272
			c1.07346,0,2.06117-0.12124,2.90102-0.49385c0.83393-0.3726,1.51705-0.99657,2.00203-1.97541
			c0.47611-0.97884,0.74521-2.33915,0.74521-4.18445c0-1.84529-0.2691-3.2056-0.75409-4.19331
			c-0.48498-0.99066-1.17697-1.62054-2.01682-1.99316C39.77632-106.85685,38.7827-106.98697,37.70627-106.98697"/>
	</g>
	<g id="g7034" transform="matrix(0.35277777,0,0,-0.35277777,52.81747,50.09173)">
		<path id="path7036" inkscape:connector-curvature="0" fill="#FDBB3C" d="M46.25482-106.41523
			c-1.69743,0-2.98973,0.21587-3.85619,0.91969c-0.86646,0.70085-1.30709,1.8867-1.30709,3.82662v8.36002h1.86304v-8.19441
			c0-1.24794,0.21587-2.0523,0.74522-2.53728c0.52047-0.48498,1.35144-0.65945,2.59051-0.65945
			c1.22132,0,2.0523,0.14786,2.57277,0.6151c0.52047,0.46724,0.72747,1.25681,0.72747,2.54615v8.2299h1.79206v-8.32453
			c0-1.91331-0.42288-3.11098-1.28047-3.82958C49.23568-106.18161,47.95226-106.41523,46.25482-106.41523"/>
	</g>
	<g id="g7038" transform="matrix(0.35277777,0,0,-0.35277777,54.147973,48.727467)">
		<path id="path7040" inkscape:connector-curvature="0" fill="#FDBB3C" d="M53.63643-98.84636h-4.27908v1.67082H59.7194v-1.67082
			h-4.23767v-11.26399h-1.84529V-98.84636z"/>
	</g>
	<g id="g7042" transform="matrix(0.35277777,0,0,-0.35277777,64.41779,49.30574)">
		
			<path id="path7044" inkscape:connector-curvature="0" fill="none" stroke="#FDBB3C" stroke-width="0.52162" stroke-miterlimit="10" d="
			M110.61322-102.0545c0-3.85915-3.12872-6.98787-6.98492-6.98787c-3.85915,0-6.98788,3.12872-6.98788,6.98787
			c0,3.85915,3.12872,6.98788,6.98788,6.98788C107.4845-95.06662,110.61322-98.19534,110.61322-102.0545z"/>
	</g>
	<g id="g7046" transform="matrix(0.35277777,0,0,-0.35277777,64.003702,46.480414)">
		<path id="path7048" inkscape:connector-curvature="0" fill="#FDBB3C" d="M108.31584-86.37965
			c0-1.93993-1.57323-3.5102-3.51316-3.5102c-1.94288,0-3.51611,1.57027-3.51611,3.5102s1.57323,3.5102,3.51611,3.5102
			C106.74261-82.86945,108.31584-84.43973,108.31584-86.37965"/>
	</g>
	<g id="g7050" transform="matrix(0.35277777,0,0,-0.35277777,64.41779,46.480414)">
		
			<path id="path7052" inkscape:connector-curvature="0" fill="none" stroke="#FDBB3C" stroke-width="0.52162" stroke-miterlimit="10" d="
			M110.61322-86.37965c0-3.85915-3.12872-6.98492-6.98492-6.98492c-3.85915,0-6.98788,3.12576-6.98788,6.98492
			c0,3.85619,3.12872,6.98492,6.98788,6.98492C107.4845-79.39474,110.61322-82.52346,110.61322-86.37965z"/>
	</g>
	<g id="g7054" transform="matrix(0.35277777,0,0,-0.35277777,66.107279,47.016282)">
		<path id="path7056" inkscape:connector-curvature="0" fill="#FDBB3C" d="M119.98645-89.35261
			c1.11782,0,1.93993,0.21587,2.47813,0.83984c0.53822,0.6151,0.78662,1.61168,0.78662,3.17013v0.96405
			c0,1.55844-0.26615,2.55502-0.81323,3.16125c-0.54413,0.60623-1.36919,0.81323-2.48701,0.81323
			c-1.11783,0-1.93106-0.207-2.46927-0.79549c-0.53526-0.59736-0.79549-1.58506-0.79549-3.14647v-0.96109
			c0-1.55845,0.26023-2.57277,0.81323-3.18787C118.04652-89.11899,118.86863-89.35261,119.98645-89.35261 M119.95097-91.57051
			c-1.17697,0-2.24452,0.13012-3.13464,0.49385c-0.89307,0.36374-1.6028,0.97884-2.08778,1.97542
			c-0.49385,0.99657-0.77183,2.36576-0.77183,4.24654c0,1.86895,0.27798,3.23814,0.77183,4.23472
			c0.49385,0.99657,1.22133,1.62054,2.12032,1.98428c0.89307,0.36374,1.95176,0.48498,3.1376,0.48498
			c1.17696,0,2.24451-0.11237,3.1376-0.4761c0.89011-0.36374,1.6028-0.96996,2.09666-1.95767
			c0.48498-0.98771,0.76-2.36576,0.76-4.23767s-0.26615-3.24702-0.76888-4.24359c-0.50272-1.00545-1.22133-1.62942-2.1144-2.00203
			C122.19548-91.44926,121.13089-91.57051,119.95097-91.57051"/>
	</g>
	<g id="g7058" transform="matrix(0.35277777,0,0,-0.35277777,67.684797,46.50987)">
		<path id="path7060" inkscape:connector-curvature="0" fill="#FDBB3C" d="M128.73851-86.54308
			c0.70085,0,1.24794,0.08575,1.62054,0.41696c0.3726,0.32825,0.56187,0.89012,0.56187,1.8867
			c0,1.00546-0.21588,1.57619-0.59735,1.89853c-0.39035,0.31937-0.95222,0.39035-1.62056,0.39035h-2.55502v-4.59254H128.73851z
			 M134.3779-92.7887h-2.98087l-2.77977,4.13122h-2.46927v-4.13122h-2.59051v12.98508h5.18102
			c1.6028,0,2.80638-0.18926,3.60483-0.83097c0.79549-0.64172,1.18584-1.75954,1.18584-3.56935
			c0-1.27455-0.19812-2.14101-0.57961-2.74724c-0.39035-0.60623-0.96997-0.95222-1.72404-1.13261L134.3779-92.7887z"/>
	</g>
	<g id="g7062" transform="matrix(0.35277777,0,0,-0.35277777,65.459262,48.535239)">
		<path id="path7064" inkscape:connector-curvature="0" fill="#FDBB3C" d="M116.39125-97.77981h1.80981l6.49993-9.61683v9.61683
			h1.77432v-12.93481h-1.62054l-6.68624,9.88593v-9.88593h-1.77728V-97.77981z"/>
	</g>
	<g id="g7066" transform="matrix(0.35277777,0,0,-0.35277777,67.601752,49.906733)">
		<path id="path7068" inkscape:connector-curvature="0" fill="#FDBB3C" d="M128.27777-105.38882
			c1.15332,0,2.07892,0.22475,2.71176,0.90195c0.63284,0.67425,0.97884,1.80981,0.97884,3.67285v0.90786
			c0,1.84825-0.35487,2.98974-0.99658,3.6758c-0.64171,0.68311-1.57619,0.89899-2.72949,0.89899
			c-1.14149,0-2.07005-0.20701-2.70289-0.88125c-0.63284-0.6772-0.98771-1.81277-0.98771-3.65807v-0.90786
			c0-1.86304,0.35487-3.00748,1.00545-3.69059C126.20773-105.16408,127.13334-105.38882,128.27777-105.38882 M128.24229-107.02711
			c-1.07347,0-2.06118,0.12125-2.89215,0.49385c-0.83985,0.37261-1.52592,0.99658-2.00203,1.97542s-0.74522,2.33915-0.74522,4.18444
			c0,1.8453,0.2691,3.21449,0.75409,4.20219c0.48498,0.98771,1.17696,1.61168,2.01977,1.99316
			c0.83985,0.37261,1.82755,0.50272,2.90102,0.50272c1.07347,0,2.06117-0.12124,2.90102-0.49385
			c0.83394-0.3726,1.51704-0.99657,2.00203-1.97541c0.47612-0.97884,0.74522-2.33915,0.74522-4.18445
			c0-1.84529-0.2691-3.2056-0.75409-4.19331s-1.17697-1.62054-2.01682-1.99316
			C130.31233-106.897,129.31871-107.02711,128.24229-107.02711"/>
	</g>
	<g id="g7070" transform="matrix(0.35277777,0,0,-0.35277777,69.106562,49.339324)">
		<path id="path7072" inkscape:connector-curvature="0" fill="#FDBB3C" d="M136.62642-102.24086
			c0.83098,0,1.50818,0.06802,1.97542,0.42583c0.46724,0.34599,0.72746,0.98771,0.72746,2.12919
			c0,1.15331-0.27797,1.81277-0.76295,2.16763s-1.16809,0.42287-1.97542,0.42287h-2.89214v-5.14553H136.62642z M141.84293-108.4362
			h-2.14102l-3.02226,4.61028h-2.98085v-4.61028h-1.84531v12.93481h4.77293c1.53479,0,2.6674-0.24249,3.43036-0.87534
			c0.75409-0.62988,1.11783-1.67082,1.11783-3.27363c0-1.22428-0.22476-2.08778-0.65947-2.69401
			c-0.43175-0.60623-1.07346-0.9611-1.89557-1.14444L141.84293-108.4362z"/>
	</g>
	<g id="g7074" transform="matrix(0.35277777,0,0,-0.35277777,54.043938,56.418799)">
		
			<path id="path7076" inkscape:connector-curvature="0" fill="none" stroke="#FDBB3C" stroke-width="1.04324" stroke-linecap="round" stroke-linejoin="round" d="
			M53.05925-141.51768h95.80751"/>
	</g>
</g>
<g id="layer2" inkscape:groupmode="layer" inkscape:label="widgets" display="none">
	
		<rect id="rect73637" x="8.88534" y="57.83481" display="inline" fill-rule="evenodd" clip-rule="evenodd" fill="#0000FF" fill-opacity="0.49606" width="28.945" height="28.946"/>
	
		<rect id="rect74184" x="8.88534" y="97.51981" display="inline" fill-rule="evenodd" clip-rule="evenodd" fill="#00FF00" fill-opacity="0.49606" width="28.945" height="28.946"/>
	
		<rect id="rect74186" x="8.88534" y="137.20488" display="inline" fill-rule="evenodd" clip-rule="evenodd" fill="#00FF00" fill-opacity="0.49606" width="28.945" height="28.946"/>
	
		<rect id="rect74188" x="8.88534" y="176.88991" display="inline" fill-rule="evenodd" clip-rule="evenodd" fill="#00FF00" fill-opacity="0.49606" width="28.945" height="28.946"/>
	
		<rect id="rect74190" x="8.88534" y="216.57492" display="inline" fill-rule="evenodd" clip-rule="evenodd" fill="#00FF00" fill-opacity="0.49606" width="28.945" height="28.94601"/>
	
		<rect id="rect74192" x="8.88534" y="256.25998" display="inline" fill-rule="evenodd" clip-rule="evenodd" fill="#00FF00" fill-opacity="0.49606" width="28.945" height="28.94601"/>
	
		<rect id="rect74194" x="8.88534" y="295.94498" display="inline" fill-rule="evenodd" clip-rule="evenodd" fill="#00FF00" fill-opacity="0.49606" width="28.945" height="28.94601"/>
	
		<rect id="rect74196" x="48.86976" y="296.24332" display="inline" fill-rule="evenodd" clip-rule="evenodd" fill="#FF0000" fill-opacity="0.49606" width="28.346" height="28.34602"/>
	
		<rect id="rect82282" x="48.86976" y="256.55826" display="inline" fill-rule="evenodd" clip-rule="evenodd" fill="#FF0000" fill-opacity="0.49606" width="28.346" height="28.34602"/>
	
		<rect id="rect82284" x="48.86976" y="216.87326" display="inline" fill-rule="evenodd" clip-rule="evenodd" fill="#FF0000" fill-opacity="0.49606" width="28.346" height="28.34602"/>
	
		<rect id="rect82286" x="48.86976" y="177.18822" display="inline" fill-rule="evenodd" clip-rule="evenodd" fill="#FF0000" fill-opacity="0.49606" width="28.346" height="28.34602"/>
	
		<rect id="rect82288" x="48.86976" y="137.50322" display="inline" fill-rule="evenodd" clip-rule="evenodd" fill="#FF0000" fill-opacity="0.49606" width="28.346" height="28.34602"/>
	
		<rect id="rect82290" x="48.86976" y="97.81815" display="inline" fill-rule="evenodd" clip-rule="evenodd" fill="#FF0000" fill-opacity="0.49606" width="28.346" height="28.34602"/>
	
		<rect id="rect82292" x="48.86976" y="58.1331" display="inline" fill-rule="evenodd" clip-rule="evenodd" fill="#FF0000" fill-opacity="0.49606" width="28.346" height="28.34603"/>
	
		<rect id="rect82294" x="50.28727" y="297.66135" display="inline" fill-rule="evenodd" clip-rule="evenodd" fill="#FF00FF" fill-opacity="0.49606" width="25.512" height="25.50999"/>
	
		<rect id="rect82296" x="50.28776" y="257.97632" display="inline" fill-rule="evenodd" clip-rule="evenodd" fill="#FF00FF" fill-opacity="0.49606" width="25.512" height="25.50999"/>
	
		<rect id="rect82298" x="50.28816" y="218.29118" display="inline" fill-rule="evenodd" clip-rule="evenodd" fill="#FF00FF" fill-opacity="0.49606" width="25.512" height="25.50999"/>
	
		<rect id="rect82300" x="50.28776" y="178.60625" display="inline" fill-rule="evenodd" clip-rule="evenodd" fill="#FF00FF" fill-opacity="0.49606" width="25.512" height="25.50998"/>
	
		<rect id="rect82302" x="50.28816" y="138.92116" display="inline" fill-rule="evenodd" clip-rule="evenodd" fill="#FF00FF" fill-opacity="0.49606" width="25.512" height="25.50999"/>
	
		<rect id="rect82304" x="50.28816" y="99.23609" display="inline" fill-rule="evenodd" clip-rule="evenodd" fill="#FF00FF" fill-opacity="0.49606" width="25.512" height="25.50999"/>
	
		<rect id="rect82306" x="50.28816" y="59.55113" display="inline" fill-rule="evenodd" clip-rule="evenodd" fill="#FF00FF" fill-opacity="0.49606" width="25.512" height="25.50999"/>
</g>
</svg>
