<?xml version="1.0" encoding="utf-8"?>
<!-- Generator: Adobe Illustrator 28.7.1, SVG Export Plug-In . SVG Version: 9.03 Build 54978)  -->
<svg version="1.0"
	 id="svg1" xmlns:inkscape="http://www.inkscape.org/namespaces/inkscape" xmlns:sodipodi="http://sodipodi.sourceforge.net/DTD/sodipodi-0.dtd" xmlns:svg="http://www.w3.org/2000/svg" inkscape:version="1.3.2 (091e20ef0f, 2023-11-25, custom)"
	 xmlns="http://www.w3.org/2000/svg" xmlns:xlink="http://www.w3.org/1999/xlink" x="0px" y="0px" width="270.40625px"
	 height="380px" viewBox="0 0 270.40625 380" enable-background="new 0 0 270.40625 380" xml:space="preserve">
<sodipodi:namedview  bordercolor="#666666" borderopacity="1.0" id="namedview1" inkscape:current-layer="layer-MC0" inkscape:cx="190.3365" inkscape:cy="383.47894" inkscape:deskcolor="#d1d1d1" inkscape:document-units="mm" inkscape:pagecheckerboard="0" inkscape:pageopacity="0.0" inkscape:showpageshadow="2" inkscape:window-height="1480" inkscape:window-maximized="1" inkscape:window-width="2256" inkscape:window-x="0" inkscape:window-y="24" inkscape:zoom="1.0691591" pagecolor="#FDBB3C">
	<inkscape:page  bleed="0" height="485.66931" id="page1" inkscape:label="1" margin="0" width="345.60001" x="0" y="0">
		</inkscape:page>
</sodipodi:namedview>
<g id="layer1" inkscape:groupmode="layer" inkscape:label="components" display="none">
	
		<circle id="path603" inkscape:label="sel" display="inline" fill-rule="evenodd" clip-rule="evenodd" fill="#FF0000" cx="41.0344" cy="67.7589" r="7.5">
	</circle>
	
		<circle id="circle603" inkscape:label="amp" display="inline" fill-rule="evenodd" clip-rule="evenodd" fill="#FF0000" cx="218.19989" cy="67.7589" r="7.5">
	</circle>
	
		<circle id="circle604" inkscape:label="var" display="inline" fill-rule="evenodd" clip-rule="evenodd" fill="#FF0000" cx="23.3237" cy="132.95419" r="7.5">
	</circle>
	
		<circle id="circle605" inkscape:label="key" display="inline" fill-rule="evenodd" clip-rule="evenodd" fill="#FF0000" cx="58.7568" cy="132.95419" r="7.5">
	</circle>
	
		<circle id="circle606" inkscape:label="10v" display="inline" fill-rule="evenodd" clip-rule="evenodd" fill="#FF0000" cx="200.38348" cy="132.9545" r="7.5">
	</circle>
	
		<circle id="circle607" inkscape:label="mod" display="inline" fill-rule="evenodd" clip-rule="evenodd" fill="#FF0000" cx="235.91789" cy="132.95419" r="7.5">
	</circle>
	
		<circle id="circle608" inkscape:label="nexus" display="inline" fill-rule="evenodd" clip-rule="evenodd" fill="#FF0000" cx="129.61639" cy="89.1134" r="7.5">
	</circle>
	
		<circle id="circle609" inkscape:label="ch1" display="inline" fill-rule="evenodd" clip-rule="evenodd" fill="#00FF00" cx="23.3235" cy="188.22961" r="7.5">
	</circle>
	
		<circle id="circle610" inkscape:label="ch2" display="inline" fill-rule="evenodd" clip-rule="evenodd" fill="#00FF00" cx="23.3235" cy="232.16611" r="7.5">
	</circle>
	
		<circle id="circle611" inkscape:label="ch3" display="inline" fill-rule="evenodd" clip-rule="evenodd" fill="#00FF00" cx="58.7566" cy="188.22961" r="7.5">
	</circle>
	
		<circle id="circle612" inkscape:label="ch4" display="inline" fill-rule="evenodd" clip-rule="evenodd" fill="#00FF00" cx="58.7566" cy="232.16611" r="7.5">
	</circle>
	
		<circle id="circle613" inkscape:label="ch5" display="inline" fill-rule="evenodd" clip-rule="evenodd" fill="#00FF00" cx="94.1843" cy="188.22961" r="7.5">
	</circle>
	
		<circle id="circle614" inkscape:label="ch6" display="inline" fill-rule="evenodd" clip-rule="evenodd" fill="#00FF00" cx="94.1843" cy="232.16611" r="7.5">
	</circle>
	
		<circle id="circle615" inkscape:label="ch7" display="inline" fill-rule="evenodd" clip-rule="evenodd" fill="#00FF00" cx="129.61009" cy="188.22961" r="7.5">
	</circle>
	
		<circle id="circle616" inkscape:label="ch8" display="inline" fill-rule="evenodd" clip-rule="evenodd" fill="#00FF00" cx="129.61009" cy="232.16611" r="7.5">
	</circle>
	
		<circle id="circle617" inkscape:label="ch9" display="inline" fill-rule="evenodd" clip-rule="evenodd" fill="#00FF00" cx="165.0564" cy="188.22961" r="7.5">
	</circle>
	
		<circle id="circle618" inkscape:label="ch10" display="inline" fill-rule="evenodd" clip-rule="evenodd" fill="#00FF00" cx="165.0564" cy="232.16611" r="7.5">
	</circle>
	
		<circle id="circle619" inkscape:label="ch11" display="inline" fill-rule="evenodd" clip-rule="evenodd" fill="#00FF00" cx="200.4841" cy="188.22961" r="7.5">
	</circle>
	
		<circle id="circle620" inkscape:label="ch12" display="inline" fill-rule="evenodd" clip-rule="evenodd" fill="#00FF00" cx="200.4841" cy="232.16611" r="7.5">
	</circle>
	
		<circle id="circle621" inkscape:label="mod" display="inline" fill-rule="evenodd" clip-rule="evenodd" fill="#00FF00" cx="235.91721" cy="188.22961" r="7.5">
	</circle>
	
		<circle id="circle622" inkscape:label="ch1" display="inline" fill-rule="evenodd" clip-rule="evenodd" fill="#FF00FF" cx="23.323" cy="165.5555" r="7.5">
	</circle>
	
		<circle id="circle623" inkscape:label="ch2" display="inline" fill-rule="evenodd" clip-rule="evenodd" fill="#FF00FF" cx="23.323" cy="209.49249" r="7.5">
	</circle>
	
		<circle id="circle624" inkscape:label="ch3" display="inline" fill-rule="evenodd" clip-rule="evenodd" fill="#FF00FF" cx="58.7566" cy="165.5555" r="7.5">
	</circle>
	
		<circle id="circle625" inkscape:label="ch4" display="inline" fill-rule="evenodd" clip-rule="evenodd" fill="#FF00FF" cx="58.7566" cy="209.49249" r="7.5">
	</circle>
	
		<circle id="circle626" inkscape:label="ch5" display="inline" fill-rule="evenodd" clip-rule="evenodd" fill="#FF00FF" cx="94.1898" cy="165.5555" r="7.5">
	</circle>
	
		<circle id="circle627" inkscape:label="ch6" display="inline" fill-rule="evenodd" clip-rule="evenodd" fill="#FF00FF" cx="94.1898" cy="209.49249" r="7.5">
	</circle>
	
		<circle id="circle628" inkscape:label="ch7" display="inline" fill-rule="evenodd" clip-rule="evenodd" fill="#FF00FF" cx="129.62289" cy="165.5555" r="7.5">
	</circle>
	
		<circle id="circle629" inkscape:label="ch8" display="inline" fill-rule="evenodd" clip-rule="evenodd" fill="#FF00FF" cx="129.62289" cy="209.49249" r="7.5">
	</circle>
	
		<circle id="circle630" inkscape:label="ch9" display="inline" fill-rule="evenodd" clip-rule="evenodd" fill="#FF00FF" cx="165.05551" cy="165.5555" r="7.5">
	</circle>
	
		<circle id="circle631" inkscape:label="ch10" display="inline" fill-rule="evenodd" clip-rule="evenodd" fill="#FF00FF" cx="165.05551" cy="209.49249" r="7.5">
	</circle>
	
		<circle id="circle632" inkscape:label="ch11" display="inline" fill-rule="evenodd" clip-rule="evenodd" fill="#FF00FF" cx="200.48911" cy="165.5555" r="7.5">
	</circle>
	
		<circle id="circle633" inkscape:label="ch12" display="inline" fill-rule="evenodd" clip-rule="evenodd" fill="#FF00FF" cx="200.48911" cy="209.49249" r="7.5">
	</circle>
	
		<circle id="circle647" inkscape:label="ch1" display="inline" fill-rule="evenodd" clip-rule="evenodd" fill="#0000FF" cx="23.3176" cy="276.10358" r="7.5">
	</circle>
	
		<circle id="circle648" inkscape:label="ch2" display="inline" fill-rule="evenodd" clip-rule="evenodd" fill="#0000FF" cx="23.3176" cy="320.0401" r="7.5">
	</circle>
	
		<circle id="circle649" inkscape:label="ch3" display="inline" fill-rule="evenodd" clip-rule="evenodd" fill="#0000FF" cx="58.7507" cy="276.10358" r="7.5">
	</circle>
	
		<circle id="circle650" inkscape:label="ch4" display="inline" fill-rule="evenodd" clip-rule="evenodd" fill="#0000FF" cx="58.7507" cy="320.0401" r="7.5">
	</circle>
	
		<circle id="circle651" inkscape:label="ch5" display="inline" fill-rule="evenodd" clip-rule="evenodd" fill="#0000FF" cx="94.1833" cy="276.10358" r="7.5">
	</circle>
	
		<circle id="circle652" inkscape:label="ch6" display="inline" fill-rule="evenodd" clip-rule="evenodd" fill="#0000FF" cx="94.1833" cy="320.0401" r="7.5">
	</circle>
	
		<circle id="circle653" inkscape:label="ch7" display="inline" fill-rule="evenodd" clip-rule="evenodd" fill="#0000FF" cx="129.61639" cy="276.10358" r="7.5">
	</circle>
	
		<circle id="circle654" inkscape:label="ch8" display="inline" fill-rule="evenodd" clip-rule="evenodd" fill="#0000FF" cx="129.61639" cy="320.0401" r="7.5">
	</circle>
	
		<circle id="circle655" inkscape:label="ch9" display="inline" fill-rule="evenodd" clip-rule="evenodd" fill="#0000FF" cx="165.0495" cy="276.10358" r="7.5">
	</circle>
	
		<circle id="circle656" inkscape:label="ch10" display="inline" fill-rule="evenodd" clip-rule="evenodd" fill="#0000FF" cx="165.0495" cy="320.0401" r="7.5">
	</circle>
	
		<circle id="circle657" inkscape:label="ch11" display="inline" fill-rule="evenodd" clip-rule="evenodd" fill="#0000FF" cx="200.48259" cy="276.10358" r="7.5">
	</circle>
	
		<circle id="circle658" inkscape:label="ch12" display="inline" fill-rule="evenodd" clip-rule="evenodd" fill="#0000FF" cx="200.48259" cy="320.0401" r="7.5">
	</circle>
	
		<circle id="circle659" inkscape:label="key" display="inline" fill-rule="evenodd" clip-rule="evenodd" fill="#0000FF" cx="235.91579" cy="232.16611" r="7.5">
	</circle>
	
		<circle id="circle660" inkscape:label="odd" display="inline" fill-rule="evenodd" clip-rule="evenodd" fill="#0000FF" cx="235.91579" cy="276.10358" r="7.5">
	</circle>
	
		<circle id="circle661" inkscape:label="even" display="inline" fill-rule="evenodd" clip-rule="evenodd" fill="#0000FF" cx="235.91579" cy="320.0401" r="7.5">
	</circle>
</g>
<g id="layer-MC0" inkscape:groupmode="layer" inkscape:label="bg black">
	
		<linearGradient id="path1_00000072271599258393444640000003541362678748867468_" gradientUnits="userSpaceOnUse" x1="135.20259" y1="6.891915e-06" x2="135.20259" y2="380">
		<stop  offset="0" style="stop-color:#401B5C"/>
		<stop  offset="1" style="stop-color:#401B5C"/>
	</linearGradient>
	<path id="path1" fill="url(#path1_00000072271599258393444640000003541362678748867468_)" d="M0.00002,380h270.40515v-380H0.00002
		V380z"/>
	<path id="path2" d="M0.00002,380h270.40515V0H0.00002V380z M0.5206,0.52162h269.36298v378.95679H0.5206V0.52162z"/>
</g>
<g id="layer-MC2" inkscape:groupmode="layer" inkscape:label="gfx diptrace">
	<rect x="0.00003" fill="none" width="270.40619" height="380"/>
	<path id="path183" fill="#FDBB3C" d="M135.22034,38.78067c-14.4707,0-28.07343,5.63346-38.30859,15.86446
		C86.67554,64.87821,81.03686,78.48302,81.03477,92.95476c-0.00522,29.87822,24.29796,54.19078,54.17513,54.196h0.00938
		c14.4707,0.00104,28.07552-5.63347,38.31067-15.86342c10.23622-10.23308,15.87489-23.83997,15.87698-38.3138
		c0.00522-29.87613-24.299-54.18764-54.17616-54.19286H135.22034z M135.21928,148.19398h-0.00938
		c-30.45303-0.00522-55.22358-24.78514-55.21836-55.23923c0.00208-14.75028,5.74927-28.61799,16.18265-39.0472
		c10.43024-10.42816,24.29691-16.17012,39.04615-16.17012h0.01044c30.45303,0.00521,55.22461,24.7841,55.21941,55.23609h-0.52162
		h0.52162c-0.00209,14.75341-5.74927,28.62112-16.18369,39.05137C163.83624,142.45203,149.96854,148.19398,135.21928,148.19398"/>
	<rect x="0.00002" fill="none" width="270.40622" height="380"/>
	<path id="path185" fill="#FDBB3C" d="M120.71291,366.88577c0.22847,0,0.22847,0,0.72087-0.06155
		c0.24099-0.02817,0.44442-0.10535,0.57482-0.19089v-1.87054c-0.09806-0.0657-0.29314-0.11786-0.54144-0.13455
		c-0.51431-0.03653-0.51431-0.03653-0.74591-0.03653c-0.26081,0-0.44859,0.04904-0.57065,0.23578
		c-0.12206,0.18777-0.17944,0.35471-0.17944,0.89719c0,0.54977,0.0532,0.71252,0.17109,0.90866
		C120.26015,366.8284,120.44793,366.88577,120.71291,366.88577 M120.95703,369.42084c-0.28898,0-0.59882-0.01669-0.8638-0.0365
		c-0.26498-0.02087-0.49241-0.04486-0.62281-0.0741l0.08555-0.71667c0.19091,0.02817,0.43189,0.05215,0.67601,0.06885
		s0.5018,0.02502,0.71775,0.02502c0.4392,0,0.70418-0.02921,0.85962-0.20865c0.1544-0.17526,0.19926-0.4924,0.19926-1.07974
		v-0.15024c-0.12623,0.08557-0.34635,0.18259-0.66454,0.23996c-0.64368,0.11371-0.64368,0.11371-0.965,0.11371
		c-0.21594,0-0.43189-0.02399-0.61967-0.12204c-0.18778-0.09705-0.35471-0.27646-0.46841-0.57379
		c-0.11893-0.29837-0.18778-0.56335-0.18778-1.16635c0-0.73755,0.16274-1.25082,0.41208-1.53146
		c0.24412-0.28168,0.5696-0.3432,0.90865-0.3432c0.31297,0,0.31297,0,0.96186,0.07407
		c0.30463,0.03232,0.54144,0.10953,0.65515,0.17941l0.16796-0.32651h0.64368v3.60645c0,0.77826-0.0772,1.28421-0.3547,1.59406
		C122.22038,369.30191,121.74363,369.42084,120.95703,369.42084"/>
	<rect x="0.00003" fill="none" width="270.40619" height="380"/>
	<path id="path187" fill="#FDBB3C" d="M123.75196,363.79282h0.68436l0.12624,0.46008
		c0.16692-0.09705,0.37556-0.22012,0.61967-0.32132c0.24412-0.10223,0.54249-0.19196,0.85233-0.23682l0.08138,0.78241
		c-0.22847,0.02921-0.51745,0.07721-0.79494,0.14294c-0.28168,0.06885-0.54979,0.15439-0.71775,0.25244v2.84491h-0.85127V363.79282z
		"/>
	<rect x="0.00002" fill="none" width="270.40622" height="380"/>
	<path id="path189" fill="#FDBB3C" d="M127.76392,367.08954c0.21178,0,0.44859-0.05319,0.66454-0.12207
		c0.21594-0.06989,0.40268-0.15961,0.52997-0.22845v-0.88467c-0.48929,0-0.82729,0.01669-1.06828,0.04486
		c-0.24412,0.02921-0.38704,0.06992-0.48511,0.12311c-0.08138,0.04797-0.12206,0.12622-0.14605,0.22012
		c-0.02504,0.09702-0.02921,0.20761-0.02921,0.30463c0,0.2243,0.04903,0.35886,0.13875,0.43607
		C127.45826,367.06555,127.58866,367.08954,127.76392,367.08954 M127.43009,367.7739c-0.26081,0-0.52579-0.06467-0.72192-0.24829
		c-0.19926-0.17944-0.32967-0.48511-0.32967-0.96185c0-0.47678,0.08138-0.80643,0.35887-0.96603
		c0.21595-0.12625,0.47676-0.19925,0.82729-0.23996c0.35052-0.04068,0.7939-0.04486,1.39377-0.04486v-0.17526
		c0-0.2775-0.02504-0.46841-0.12729-0.59464c-0.10118-0.12726-0.28897-0.17944-0.60298-0.17944
		c-0.59047,0-1.05888,0.08139-1.34055,0.14188l-0.11789-0.70416c0.24412-0.04904,0.76156-0.15546,1.4793-0.15546
		c0.57483,0,0.96603,0.0939,1.21016,0.30566c0.23994,0.21597,0.338,0.55814,0.338,1.05994v2.70615h-0.67183l-0.12624-0.4079
		c-0.10223,0.06155-0.3015,0.17944-0.57483,0.2775C128.15097,367.68835,127.80878,367.7739,127.43009,367.7739"/>
	<rect x="0.00002" fill="none" width="270.40622" height="380"/>
	<path id="path191" fill="#FDBB3C" d="M130.22429,363.79282h0.90031c0.20761,0.53415,0.39957,1.01508,0.56648,1.43445
		c0.06989,0.17944,0.13875,0.35471,0.2076,0.52579c0.0699,0.17526,0.1304,0.3255,0.18361,0.46008
		c0.05321,0.13455,0.09389,0.24515,0.12624,0.32651c0.03339,0.08554,0.04903,0.12625,0.04903,0.12625l1.10478-2.87308h0.79808
		l-2.18349,5.59488h-0.85233l0.67706-1.7276L130.22429,363.79282z"/>
	<rect x="0.00002" fill="none" width="270.40622" height="380"/>
	<path id="path193" fill="#FDBB3C" d="M136.02217,367.79053c-0.27751,0-0.59048-0.02817-0.8638-0.0647
		c-0.27751-0.03754-0.51328-0.08658-0.64786-0.13455l0.10954-0.64056c0.11476,0.03339,0.34218,0.07825,0.60716,0.11893
		c0.2608,0.04068,0.55814,0.07303,0.80328,0.07303c0.37453,0,0.60716-0.03235,0.74593-0.11789
		c0.1377-0.08554,0.17943-0.23264,0.17943-0.46109c0-0.16693-0.03755-0.26917-0.16379-0.33801
		c-0.1304-0.06885-0.33801-0.11371-0.68019-0.16275c-0.61967-0.08554-1.00671-0.16693-1.24249-0.33801
		c-0.2368-0.17212-0.31818-0.43607-0.31818-0.89719c0-0.44025,0.14291-0.72922,0.41103-0.91281
		c0.26917-0.17944,0.66872-0.25247,1.20285-0.25247c0.29732,0,0.60716,0.01669,0.87215,0.04068
		c0.2608,0.02402,0.47258,0.06155,0.5863,0.08972l-0.11789,0.65204c-0.1304-0.02087-0.3714-0.05322-0.62804-0.08139
		c-0.25662-0.02921-0.52995-0.04486-0.72922-0.04486c-0.29732,0-0.49344,0.02817-0.61133,0.10538
		c-0.11789,0.0824-0.16692,0.20029-0.16692,0.37973c0,0.1951,0.04068,0.30984,0.18777,0.37869
		c0.14606,0.06885,0.39957,0.10641,0.82312,0.15439c0.55396,0.06573,0.90865,0.15964,1.1246,0.33905
		c0.21594,0.17944,0.29315,0.4361,0.29315,0.83878c0,0.5383-0.1544,0.86066-0.44859,1.03906
		C137.05287,367.7373,136.60846,367.79053,136.02217,367.79053"/>
	<rect x="0.00002" fill="none" width="270.40622" height="380"/>
	<path id="path195" fill="#FDBB3C" d="M140.22264,367.81082c-0.6562,0-1.13713-0.1304-1.45114-0.45587
		c-0.31297-0.32654-0.46841-0.84814-0.46841-1.63058c0-0.77826,0.15962-1.29568,0.48093-1.62222
		c0.32237-0.3255,0.80746-0.4559,1.47096-0.4559c0.21178,0,0.44443,0.01984,0.66037,0.04904
		c0.21178,0.02817,0.4079,0.06467,0.54248,0.09702l-0.14291,0.71356c-0.24829-0.05319-0.6322-0.12622-1.08392-0.12622
		c-0.35471,0-0.61969,0.04486-0.79495,0.23578c-0.17943,0.19196-0.26498,0.52161-0.26498,1.08807
		c0,0.57065,0.0939,0.91702,0.27333,1.11731c0.17944,0.19925,0.44859,0.2608,0.80225,0.2608
		c0.38809,0,0.78661-0.06155,1.07661-0.13873l0.15024,0.69269c-0.16692,0.04486-0.37035,0.08972-0.5863,0.12207
		C140.67123,367.78998,140.43858,367.81082,140.22264,367.81082"/>
	<rect x="0.00002" fill="none" width="270.40622" height="380"/>
	<path id="path197" fill="#FDBB3C" d="M143.32993,367.08954c0.21178,0,0.44859-0.05319,0.66454-0.12207
		c0.21596-0.06989,0.40269-0.15961,0.52997-0.22845v-0.88467c-0.48927,0-0.82729,0.01669-1.06827,0.04486
		c-0.24413,0.02921-0.38704,0.06992-0.48511,0.12311c-0.08138,0.04797-0.12206,0.12622-0.14606,0.22012
		c-0.02504,0.09702-0.02921,0.20761-0.02921,0.30463c0,0.2243,0.04903,0.35886,0.13875,0.43607
		C143.02426,367.06555,143.15466,367.08954,143.32993,367.08954 M142.99609,367.7739c-0.26082,0-0.52579-0.06467-0.72192-0.24829
		c-0.19925-0.17944-0.32965-0.48511-0.32965-0.96185c0-0.47678,0.08136-0.80643,0.35887-0.96603
		c0.21594-0.12625,0.47675-0.19925,0.82727-0.23996c0.35054-0.04068,0.79391-0.04486,1.39377-0.04486v-0.17526
		c0-0.2775-0.02504-0.46841-0.12727-0.59464c-0.1012-0.12726-0.28897-0.17944-0.603-0.17944
		c-0.59047,0-1.05888,0.08139-1.34055,0.14188l-0.11789-0.70416c0.24411-0.04904,0.76157-0.15546,1.47931-0.15546
		c0.57481,0,0.96603,0.0939,1.21014,0.30566c0.23994,0.21597,0.33801,0.55814,0.33801,1.05994v2.70615h-0.67184l-0.12624-0.4079
		c-0.10223,0.06155-0.30148,0.17944-0.57481,0.2775C143.71696,367.68835,143.37479,367.7739,142.99609,367.7739"/>
	<rect x="0.00002" fill="none" width="270.40622" height="380"/>
	<path id="path199" fill="#FDBB3C" d="M146.26453,361.46591h0.84398v6.25107h-0.84398V361.46591z"/>
	<rect x="0.00001" fill="none" width="270.40622" height="380"/>
	<path id="path201" fill="#FDBB3C" d="M150.4868,365.29654c0-0.39539-0.06155-0.64786-0.20343-0.7991
		c-0.14709-0.15024-0.36722-0.20343-0.68124-0.20343c-0.24411,0-0.45589,0.04901-0.60715,0.19925
		c-0.15024,0.15128-0.24829,0.39957-0.27646,0.80328H150.4868z M149.81078,367.81073c-0.67288,0-1.16634-0.1304-1.48764-0.4559
		c-0.32654-0.32651-0.48094-0.84814-0.48094-1.63055c0-0.80225,0.18779-1.32803,0.50493-1.65457
		c0.31819-0.32132,0.7626-0.44443,1.28004-0.44443c0.57483,0,1.00673,0.1106,1.28735,0.39957
		c0.28168,0.29001,0.42355,0.75009,0.42355,1.44696v0.38287h-2.63625c0.00417,0.51746,0.1064,0.81894,0.29315,0.99838
		c0.18777,0.17941,0.46527,0.22845,0.8231,0.22845c0.19612,0,0.42877-0.01251,0.64471-0.03235
		c0.21178-0.02084,0.41939-0.05319,0.56648-0.08972l0.12622,0.69272c-0.13457,0.03653-0.35887,0.07721-0.60402,0.10538
		C150.30736,367.79092,150.03821,367.81073,149.81078,367.81073"/>
	<rect x="0.00002" fill="none" width="270.40622" height="380"/>
	<path id="path203" fill="#FDBB3C" d="M98.77757,195.89845h-1.04323v-23.48007h1.04323V195.89845z"/>
	<rect x="0.00002" fill="none" width="270.40622" height="380"/>
	<path id="path205" fill="#FDBB3C" d="M135.73621,195.89845h-1.04323v-23.48007h1.04323V195.89845z"/>
	<rect x="0.00002" fill="none" width="270.40622" height="380"/>
	<path id="path207" fill="#FDBB3C" d="M172.71468,195.89845h-1.04323v-23.48007h1.04323V195.89845z"/>
	<rect x="0.00002" fill="none" width="270.40622" height="380"/>
	<path id="path209" fill="#FDBB3C" d="M209.67436,195.89845h-1.04323v-23.48007h1.04323V195.89845z"/>
	<rect x="0.00002" fill="none" width="270.40622" height="380"/>
	<path id="path211" fill="#FDBB3C" d="M61.81893,195.89845h-1.04324v-23.48007h1.04324V195.89845z"/>
	<rect x="0.00002" fill="none" width="270.40622" height="380"/>
	<path id="path213" fill="#FDBB3C" d="M24.85402,195.89845h-1.04323v-23.48007h1.04323V195.89845z"/>
	<rect x="0.00002" fill="none" width="270.40622" height="380"/>
	<path id="path215" fill="#FDBB3C" d="M112.30184,350.88586H84.2086c-1.63266,0-2.95757-1.32388-2.95757-2.95654v-36.96594
		c0-1.63266,1.32491-2.95755,2.95757-2.95755h28.09325c1.63266,0,2.95757,1.32489,2.95757,2.95755v36.96594
		C115.25941,349.56198,113.9345,350.88586,112.30184,350.88586"/>
	<rect x="0.00002" fill="none" width="270.40622" height="380"/>
	<path id="path217" fill="#401B5C" d="M98.29152,317.43521c0.41312,0,0.67706-0.04279,0.84502-0.18259
		c0.16796-0.13977,0.22742-0.36304,0.22742-0.73026c0-0.31088-0.03443-0.51328-0.15231-0.6416
		c-0.11789-0.12518-0.32445-0.17526-0.66663-0.17526c-0.26811,0-0.52475,0.01776-0.75322,0.04697
		c-0.22742,0.02817-0.42773,0.06677-0.58108,0.09909v0.46008c0,0.43918,0.06051,0.71564,0.22533,0.88675
		C97.59985,317.37051,97.86693,317.43521,98.29152,317.43521 M98.27692,318.26248c-0.61551,0-1.05784-0.0751-1.36872-0.23682
		c-0.31089-0.15961-0.49241-0.41626-0.59569-0.77304s-0.13145-0.82416-0.13145-1.40836l0.00104-0.48511
		c0-0.48093,0.02817-0.85651,0.10641-1.15591c0.07824-0.29941,0.21386-0.52786,0.4319-0.71252
		c0.42773-0.37137,1.43653-0.6134,3.02433-0.75217l0.10954,0.88467c-0.79494,0.09494-1.33639,0.17526-1.71821,0.2608
		c-0.38599,0.08868-0.60299,0.18466-0.73548,0.30255c-0.10954,0.09702-0.15648,0.22742-0.17422,0.38181
		c-0.01043,0.07721-0.0146,0.15961-0.0146,0.24518v0.25662c0.11788-0.03131,0.35678-0.08243,0.62698-0.11685
		c0.2681-0.0365,0.56438-0.06155,0.79598-0.06155c0.48198,0,0.83876,0.02924,1.09853,0.11478
		c0.25977,0.08972,0.4246,0.23785,0.52475,0.47778c0.09806,0.23892,0.13353,0.56335,0.13353,1.01611
		c0,0.37451-0.0386,0.69583-0.15335,0.9556c-0.11372,0.26083-0.30984,0.46008-0.62073,0.59882
		C99.3045,318.19467,98.87364,318.26248,98.27692,318.26248"/>
	<rect x="0.00002" fill="none" width="270.40622" height="380"/>
	<path id="path219" fill="#FDBB3C" d="M149.26738,350.88586h-28.09429c-1.63266,0-2.95652-1.32388-2.95652-2.95654v-36.96594
		c0-1.63266,1.32387-2.95755,2.95652-2.95755h28.09429c1.63266,0,2.95653,1.32489,2.95653,2.95755v36.96594
		C152.22391,349.56198,150.90004,350.88586,149.26738,350.88586"/>
	<rect x="0.00002" fill="none" width="270.40622" height="380"/>
	<path id="path221" fill="#401B5C" d="M135.61061,315.02469c0.32445-0.14291,0.48824-0.23682,0.57378-0.35678
		c0.08241-0.12207,0.08241-0.2681,0.08241-0.53519c0-0.21072-0.09702-0.33487-0.27959-0.40997
		c-0.18152-0.07095-0.44441-0.09286-0.78764-0.09286c-0.32758,0-0.55917,0.02191-0.7094,0.09286
		c-0.14919,0.0751-0.217,0.19925-0.217,0.40997c0,0.16068,0.02087,0.2702,0.08241,0.35263
		c0.05946,0.08554,0.15962,0.14291,0.31715,0.20761c0.07407,0.03232,0.16795,0.06674,0.27332,0.10327
		c0.10432,0.03442,0.22847,0.07718,0.3714,0.12833L135.61061,315.02469z M135.19853,317.39282
		c0.41417,0,0.71043-0.03754,0.90657-0.12933c0.19508-0.09286,0.28481-0.2504,0.28481-0.49243
		c0-0.20343-0.02087-0.34531-0.09285-0.45691c-0.07407-0.10956-0.19614-0.18781-0.39644-0.27335
		c-0.09911-0.04276-0.22011-0.08868-0.35887-0.13562c-0.13979-0.04694-0.3067-0.10431-0.49657-0.17108l-0.2097-0.07617
		c-0.2608,0.11478-0.43503,0.20032-0.55605,0.28586c-0.12206,0.08554-0.18152,0.17944-0.21803,0.30359
		c-0.03546,0.1283-0.03859,0.29208-0.03859,0.52368c0,0.24203,0.09492,0.39957,0.28897,0.49243
		C134.50269,317.35529,134.80002,317.39282,135.19853,317.39282 M135.19853,318.26291c-0.81581,0-1.36873-0.09705-1.71404-0.32864
		c-0.34636-0.22845-0.48927-0.59882-0.48927-1.1413c0-0.28168,0.0146-0.48511,0.07198-0.65619
		c0.05634-0.17108,0.15231-0.29941,0.31297-0.42145c0.15857-0.12,0.37973-0.22849,0.68958-0.35681
		c-0.35574-0.1669-0.5696-0.32339-0.6927-0.51639c-0.11998-0.19196-0.15648-0.42044-0.15648-0.73026
		c0-0.52789,0.15126-0.87006,0.47467-1.08081c0.32443-0.21072,0.81685-0.28583,1.51164-0.28583
		c0.69896,0,1.2164,0.0751,1.55859,0.28583c0.34322,0.21075,0.51013,0.55292,0.51013,1.08081
		c0,0.31714-0.01877,0.53101-0.13249,0.70938c-0.11475,0.17841-0.32861,0.32758-0.724,0.50909
		c0.4319,0.1857,0.69063,0.34219,0.84502,0.55606c0.15231,0.21387,0.19196,0.48926,0.19196,0.90656
		c0,0.54248-0.15753,0.91284-0.51431,1.1413C136.5829,318.16586,136.01538,318.26291,135.19853,318.26291"/>
	<rect x="0.00002" fill="none" width="270.40622" height="380"/>
	<path id="path223" fill="#FDBB3C" d="M186.23186,350.88586h-28.09323c-1.63266,0-2.95757-1.32388-2.95757-2.95654v-36.96594
		c0-1.63266,1.32491-2.95755,2.95757-2.95755h28.09323c1.63268,0,2.95758,1.32489,2.95758,2.95755v36.96594
		C189.18944,349.56198,187.86453,350.88586,186.23186,350.88586"/>
	<rect x="0.00002" fill="none" width="270.40622" height="380"/>
	<path id="path225" fill="#401B5C" d="M169.24664,313.73181h-0.85544v-0.89822l1.92059,0.00104l-0.00105,5.34552l-1.06618-0.00104
		L169.24664,313.73181z"/>
	<rect x="0.00002" fill="none" width="270.40622" height="380"/>
	<path id="path227" fill="#401B5C" d="M173.66005,317.35568c0.4173,0,0.69897-0.08554,0.87424-0.32758
		c0.17526-0.23892,0.2462-0.62805,0.2462-1.22998V315.216c0-0.60196-0.07303-0.99002-0.25247-1.22684
		c-0.17734-0.2337-0.46214-0.3161-0.88048-0.3161c-0.41313,0-0.69479,0.0824-0.87006,0.31088
		c-0.17526,0.23056-0.24622,0.61237-0.24622,1.21536l-0.00208,0.5842c0,0.60196,0.07928,0.99527,0.25664,1.23834
		C172.96526,317.26385,173.24693,317.35568,173.66005,317.35568 M173.64545,318.26849c-0.52371,0-0.94099-0.06677-1.26544-0.24203
		c-0.32758-0.17108-0.56439-0.44232-0.71671-0.85648c-0.15335-0.40897-0.22012-0.95145-0.22012-1.66397
		c0-1.07034,0.16484-1.75888,0.52162-2.18243s0.91283-0.57794,1.69734-0.57794s1.33638,0.15439,1.69316,0.57169
		c0.3568,0.41623,0.51328,1.10477,0.51328,2.17514c-0.00209,1.06931-0.16483,1.7641-0.52162,2.18869
		C174.98601,318.10889,174.42996,318.26849,173.64545,318.26849"/>
	<rect fill="none" width="270.40619" height="380"/>
	<path id="path229" fill="#FDBB3C" d="M223.19739,350.88586H195.1031c-1.63266,0-2.95653-1.32388-2.95653-2.95654v-36.96594
		c0-1.63266,1.32387-2.95755,2.95653-2.95755h28.09428c1.63266,0,2.95653,1.32489,2.95653,2.95755v36.96594
		C226.15392,349.56198,224.83005,350.88586,223.19739,350.88586"/>
	<rect x="0.00002" fill="none" width="270.40622" height="380"/>
	<path id="path231" fill="#401B5C" d="M206.4924,313.73282l-0.85545-0.00104v-0.89822l1.92059,0.00104v5.34552h-1.06618
		L206.4924,313.73282z"/>
	<rect x="0.00002" fill="none" width="270.40622" height="380"/>
	<path id="path233" fill="#401B5C" d="M208.67464,317.36993l1.56172-1.34369c0.338-0.28793,0.57587-0.49658,0.73547-0.66348
		c0.15962-0.16693,0.24933-0.29941,0.29628-0.4465c0.0459-0.14188,0.05737-0.30566,0.05737-0.53311
		c0-0.25662-0.05112-0.4277-0.19403-0.53934c-0.14502-0.1106-0.39122-0.15649-0.78973-0.15649
		c-0.31401,0-0.62802,0.02505-0.88884,0.05322c-0.2608,0.03232-0.4632,0.06781-0.56021,0.0918l-0.14606-0.91284
		c0.17422-0.0459,0.43503-0.08868,0.72505-0.11996c0.28793-0.03235,0.60194-0.05426,0.88362-0.05426
		c0.77408,0,1.27588,0.09702,1.58676,0.34012c0.31088,0.24619,0.42043,0.64261,0.42043,1.24142
		c0,0.32446-0.02817,0.56232-0.10329,0.77304c-0.07512,0.21387-0.20343,0.39642-0.40373,0.60925
		c-0.2003,0.21387-0.47363,0.46005-0.84502,0.79077l-0.90657,0.80328l2.42447,0.00104v0.87634l-3.8537-0.00107V317.36993z"/>
	<rect x="0.00002" fill="none" width="270.40622" height="380"/>
	<path id="path235" fill="#FDBB3C" d="M75.33736,350.88586H47.24412c-1.63371,0-2.95757-1.32388-2.95757-2.95654v-36.96594
		c0-1.63266,1.32386-2.95755,2.95757-2.95755h28.09325c1.63266,0,2.95757,1.32489,2.95757,2.95755v36.96594
		C78.29493,349.56198,76.97002,350.88586,75.33736,350.88586"/>
	<rect x="0.00002" fill="none" width="270.40622" height="380"/>
	<path id="path237" fill="#401B5C" d="M61.78596,317.13556h-2.69572v-0.99213l2.05517-3.32373h1.08079l-2.11255,3.43118h1.67231
		l0.00104-1.51999h1.03802l-0.00104,1.51999h0.61342v0.88467h-0.61342v1.04428h-1.03802V317.13556z"/>
	<rect x="0.00002" fill="none" width="270.40622" height="380"/>
	<path id="path239" fill="#FDBB3C" d="M38.37235,350.88586H10.27911c-1.6337,0-2.95757-1.32388-2.95757-2.95654v-36.96594
		c0-1.63266,1.32386-2.95755,2.95757-2.95755h28.09324c1.63266,0,2.95652,1.32489,2.95652,2.95755v36.96594
		C41.32888,349.56198,40.00501,350.88586,38.37235,350.88586"/>
	<rect x="0.00002" fill="none" width="270.40622" height="380"/>
	<path id="path241" fill="#401B5C" d="M22.38198,317.36993l1.56172-1.34369c0.33905-0.28793,0.57482-0.49658,0.73548-0.66348
		c0.16066-0.16693,0.24933-0.29941,0.29523-0.4465c0.04695-0.14188,0.05738-0.30566,0.05738-0.53311
		c0-0.25662-0.04903-0.4277-0.19196-0.53934c-0.14605-0.1106-0.3933-0.15649-0.79181-0.15649
		c-0.31401,0-0.62803,0.02505-0.88779,0.05322c-0.25977,0.03232-0.4632,0.06781-0.55917,0.0918l-0.1471-0.91284
		c0.17526-0.0459,0.43503-0.08868,0.724-0.11996c0.28897-0.03235,0.60299-0.05426,0.88362-0.05426
		c0.77512,0,1.27796,0.09702,1.5878,0.34012c0.30984,0.24515,0.42042,0.64157,0.42042,1.24039
		c0,0.32446-0.02817,0.56232-0.10224,0.77304c-0.07615,0.21387-0.20447,0.39642-0.40477,0.61029s-0.47467,0.46005-0.84606,0.79077
		l-0.90448,0.80328h2.42448v0.87631h-3.85475V317.36993z"/>
	<rect x="0.00002" fill="none" width="270.40622" height="380"/>
	<path id="path243" fill="#FDBB3C" d="M112.30184,305.0498H84.2086c-1.63266,0-2.95757-1.32492-2.95757-2.95758v-36.9649
		c0-1.6337,1.32491-2.95755,2.95757-2.95755h28.09325c1.63266,0,2.95757,1.32385,2.95757,2.95755v36.9649
		C115.25941,303.72488,113.9345,305.0498,112.30184,305.0498"/>
	<rect x="0.00002" fill="none" width="270.40622" height="380"/>
	<path id="path245" fill="#401B5C" d="M96.46284,271.54108c0.75948-0.02817,1.31865-0.06155,1.72134-0.11789
		c0.39956-0.05737,0.65202-0.13562,0.79494-0.2504c0.17109-0.12518,0.21386-0.36722,0.21386-0.63428
		c0-0.25662-0.0532-0.47467-0.20551-0.59152c-0.12832-0.10013-0.38391-0.19299-0.80225-0.26392
		c-0.4173-0.07199-0.99837-0.12415-1.77245-0.14294l0.07198-2.54236h3.42702v0.94101h-2.52045l-0.02921,0.80225
		c0.68749,0.04279,1.21223,0.12207,1.60345,0.2243c0.3933,0.10431,0.65307,0.23682,0.83563,0.38181
		c0.17109,0.14294,0.2775,0.31403,0.34113,0.51746c0.06364,0.20343,0.08138,0.43607,0.08138,0.70209
		c0,0.50388-0.08138,0.89197-0.35157,1.14859c-0.2003,0.22849-0.53622,0.39645-1.07036,0.51016
		c-0.53518,0.11475-1.27692,0.17734-2.27529,0.20654L96.46284,271.54108z"/>
	<rect x="0.00002" fill="none" width="270.40622" height="380"/>
	<path id="path247" fill="#FDBB3C" d="M149.26738,305.0498h-28.09429c-1.63266,0-2.95652-1.32492-2.95652-2.95758v-36.9649
		c0-1.6337,1.32387-2.95755,2.95652-2.95755h28.09429c1.63266,0,2.95653,1.32385,2.95653,2.95755v36.9649
		C152.22391,303.72488,150.90004,305.0498,149.26738,305.0498"/>
	<rect x="0.00002" fill="none" width="270.40622" height="380"/>
	<path id="path249" fill="#401B5C" d="M136.15862,267.93851h-2.944v-0.94098h4.0394v0.94934l-2.04787,4.39618h-1.1799
		L136.15862,267.93851z"/>
	<rect x="0.00002" fill="none" width="270.40622" height="380"/>
	<path id="path251" fill="#FDBB3C" d="M186.23186,305.0498h-28.09323c-1.63266,0-2.95757-1.32492-2.95757-2.95758v-36.9649
		c0-1.6337,1.32491-2.95755,2.95757-2.95755h28.09323c1.63268,0,2.95758,1.32385,2.95758,2.95755v36.9649
		C189.18944,303.72488,187.86453,305.0498,186.23186,305.0498"/>
	<rect x="0.00003" fill="none" width="270.40619" height="380"/>
	<path id="path253" fill="#401B5C" d="M171.90775,269.45862c0.2608,0,0.51744-0.0188,0.74591-0.04697
		c0.22847-0.02399,0.42772-0.06155,0.58003-0.09283v-0.45901c0-0.43921-0.05634-0.71359-0.21594-0.88467
		c-0.16066-0.16797-0.4319-0.22534-0.85545-0.22534c-0.41312,0-0.68436,0.04279-0.85336,0.17422
		c-0.16692,0.13248-0.22847,0.35678-0.22847,0.72504c0,0.30984,0.03651,0.51328,0.15648,0.63846
		C171.36005,269.41165,171.56557,269.45862,171.90775,269.45862 M170.59119,271.56906
		c0.79494-0.0751,1.34055-0.16064,1.72655-0.25662c0.38078-0.09598,0.59465-0.19614,0.72713-0.32132
		c0.10329-0.10016,0.15231-0.23474,0.17528-0.3912c0.01042-0.07928,0.01355-0.16171,0.01355-0.24725v-0.25247
		c-0.11787,0.03235-0.35574,0.07513-0.62489,0.1106c-0.26706,0.03546-0.5623,0.06363-0.79077,0.06363
		c-0.48511,0-0.84502-0.02817-1.10582-0.11685c-0.25977-0.08554-0.42877-0.23679-0.5258-0.47467
		c-0.10014-0.23889-0.13457-0.56647-0.13457-1.01297c0-0.37451,0.03859-0.69897,0.15648-0.95978
		c0.11371-0.25662,0.30984-0.46216,0.62386-0.59882c0.31401-0.13458,0.748-0.20239,1.34473-0.20239
		c0.61551,0,1.05679,0.07407,1.36873,0.23474c0.30983,0.16171,0.49136,0.41833,0.59569,0.77408
		c0.10327,0.35678,0.13249,0.82416,0.13249,1.40836l-0.00209,0.48093c0,0.48511-0.02504,0.85233-0.10851,1.14966
		c-0.08136,0.29941-0.21385,0.52264-0.42981,0.70834c-0.41728,0.35678-1.44487,0.63535-3.03163,0.77408L170.59119,271.56906z"/>
	<rect fill="none" width="270.40619" height="380"/>
	<path id="path255" fill="#FDBB3C" d="M223.19739,305.0498H195.1031c-1.63266,0-2.95653-1.32492-2.95653-2.95758v-36.9649
		c0-1.6337,1.32387-2.95755,2.95653-2.95755h28.09428c1.63266,0,2.95653,1.32385,2.95653,2.95755v36.9649
		C226.15392,303.72488,224.83005,305.0498,223.19739,305.0498"/>
	<rect x="0.00002" fill="none" width="270.40622" height="380"/>
	<path id="path257" fill="#401B5C" d="M207.40115,267.89572h-0.85545v-0.89822h1.92165l-0.00105,5.34555h-1.06618
		L207.40115,267.89572z"/>
	<rect x="0.00002" fill="none" width="270.40622" height="380"/>
	<path id="path259" fill="#401B5C" d="M210.33723,267.89572h-0.85545v-0.89822h1.92061v5.34555h-1.06619L210.33723,267.89572z"/>
	<rect x="0.00002" fill="none" width="270.40622" height="380"/>
	<path id="path261" fill="#FDBB3C" d="M75.33736,305.0498H47.24412c-1.63371,0-2.95757-1.32492-2.95757-2.95758v-36.9649
		c0-1.6337,1.32386-2.95755,2.95757-2.95755h28.09325c1.63266,0,2.95757,1.32385,2.95757,2.95755v36.9649
		C78.29493,303.72488,76.97002,305.0498,75.33736,305.0498"/>
	<rect x="0.00003" fill="none" width="270.40619" height="380"/>
	<path id="path263" fill="#401B5C" d="M59.42241,271.54108c0.76052-0.02817,1.31969-0.0647,1.72133-0.12521
		c0.40373-0.05737,0.65306-0.13977,0.79912-0.24933c0.16796-0.13248,0.21074-0.36096,0.21074-0.62802
		c0-0.25662-0.05008-0.46005-0.20239-0.57794c-0.13249-0.09912-0.31819-0.15649-0.53518-0.19925
		c-0.21699-0.04279-0.4705-0.07095-0.73757-0.10016v-0.66977l1.06618-1.05887h-2.40257v-0.93475h3.52926v0.92639l-1.1413,1.13089
		c0.42772,0.08136,0.80225,0.20969,1.04532,0.40997c0.30984,0.24203,0.40791,0.59882,0.40791,1.10165
		c0,0.50388-0.08137,0.88467-0.35157,1.1413c-0.2003,0.22849-0.53205,0.39539-1.06618,0.50909
		c-0.53622,0.11893-1.27796,0.1857-2.27842,0.2149L59.42241,271.54108z"/>
	<rect x="0.00002" fill="none" width="270.40622" height="380"/>
	<path id="path265" fill="#FDBB3C" d="M38.37235,305.0498H10.27911c-1.6337,0-2.95757-1.32492-2.95757-2.95758v-36.9649
		c0-1.6337,1.32386-2.95755,2.95757-2.95755h28.09324c1.63266,0,2.95652,1.32385,2.95652,2.95755v36.9649
		C41.32888,303.72488,40.00501,305.0498,38.37235,305.0498"/>
	<rect x="0.00002" fill="none" width="270.40622" height="380"/>
	<path id="path267" fill="#401B5C" d="M24.04562,267.89572h-0.85545v-0.89822h1.92059v5.34555h-1.06618L24.04562,267.89572z"/>
	<rect x="0.00002" fill="none" width="270.40622" height="380"/>
	<path id="path269" fill="#FDBB3C" d="M61.81893,241.55035h-1.04324v-23.48633h1.04324V241.55035z"/>
	<rect x="0.00002" fill="none" width="270.40622" height="380"/>
	<path id="path271" fill="#FDBB3C" d="M98.77757,241.55035h-1.04323v-23.48633h1.04323V241.55035z"/>
	<rect x="0.00002" fill="none" width="270.40622" height="380"/>
	<path id="path273" fill="#FDBB3C" d="M135.73621,241.55035h-1.04323v-23.48633h1.04323V241.55035z"/>
	<rect x="0.00002" fill="none" width="270.40622" height="380"/>
	<path id="path275" fill="#FDBB3C" d="M172.71468,241.55035h-1.04323v-23.48633h1.04323V241.55035z"/>
	<rect x="0.00002" fill="none" width="270.40622" height="380"/>
	<path id="path277" fill="#FDBB3C" d="M209.67436,241.55035h-1.04323v-23.48633h1.04323V241.55035z"/>
	<rect x="0.00002" fill="none" width="270.40622" height="380"/>
	<path id="path279" fill="#FDBB3C" d="M24.85402,241.55035h-1.04323v-23.48633h1.04323V241.55035z"/>
	<rect x="0.00002" fill="none" width="270.40622" height="380"/>
	<path id="path281" fill="#FDBB3C" d="M260.16187,350.88586h-28.09325c-1.63266,0-2.95757-1.32388-2.95757-2.95654v-36.96594
		c0-1.63266,1.32491-2.95755,2.95757-2.95755h28.09325c1.63266,0,2.95755,1.32489,2.95755,2.95755v36.96594
		C263.11942,349.56198,261.79453,350.88586,260.16187,350.88586"/>
	<rect x="0.00002" fill="none" width="270.40622" height="380"/>
	<path id="path283" fill="#401B5C" d="M236.36205,312.83221l3.55534,0.00104v0.94101l-2.48186-0.00107v1.19244l1.95816,0.00104
		v0.94098l-1.95816-0.00104v1.35098l2.48186,0.00107v0.9201l-3.55534-0.00104V312.83221z"/>
	<rect x="0.00001" fill="none" width="270.40622" height="380"/>
	<path id="path285" fill="#401B5C" d="M240.67155,312.83322h1.12251l1.46887,3.89023l1.45949-3.88919h1.07974l-2.07185,5.38101
		l-0.98898-0.00104L240.67155,312.83322z"/>
	<rect x="0.00001" fill="none" width="270.40622" height="380"/>
	<path id="path287" fill="#401B5C" d="M246.74556,312.83432l3.55534,0.00104v0.94101l-2.48184-0.00107v1.19241l1.95815,0.00107
		v0.94098l-1.95815-0.00104v1.35098l2.48184,0.00104v0.92014l-3.55534-0.00104V312.83432z"/>
	<rect x="0.00002" fill="none" width="270.40622" height="380"/>
	<path id="path289" fill="#401B5C" d="M251.42584,312.83533h1.06514l2.35353,3.40408v-3.40305h1.02759v5.34555h-0.92117
		l-2.49437-3.63046l-0.00209,3.62939h-1.02863V312.83533z"/>
	<rect x="0.00002" fill="none" width="270.40622" height="380"/>
	<path id="path291" fill="#FDBB3C" d="M260.16187,305.0498h-28.09325c-1.63266,0-2.95757-1.32492-2.95757-2.95758v-36.9649
		c0-1.6337,1.32491-2.95755,2.95757-2.95755h28.09325c1.63266,0,2.95755,1.32385,2.95755,2.95755v36.9649
		C263.11942,303.72488,261.79453,305.0498,260.16187,305.0498"/>
	<rect x="0.00002" fill="none" width="270.40622" height="380"/>
	<path id="path293" fill="#401B5C" d="M240.60228,271.51752c0.46007,0,0.79912-0.08868,1.02132-0.34534
		c0.21909-0.25348,0.32341-0.66348,0.32341-1.30508v-0.39539c0-0.64157-0.10954-1.05261-0.33383-1.30194
		c-0.2243-0.24933-0.56439-0.33487-1.02342-0.33487c-0.46007,0-0.79599,0.08554-1.01611,0.32758
		c-0.2222,0.24619-0.32861,0.65305-0.32861,1.29465v0.39539c0,0.64264,0.10641,1.05994,0.33488,1.31238
		C239.80316,271.42154,240.14429,271.51752,240.60228,271.51752 M240.58766,272.43033c-0.48509,0-0.92221-0.05319-1.28943-0.20239
		c-0.36722-0.15021-0.66037-0.40268-0.85962-0.81372c-0.20448-0.40997-0.31819-0.97229-0.3161-1.74637
		c0-0.77094,0.11371-1.33429,0.3161-1.74429c0.20343-0.40997,0.50284-0.66663,0.87422-0.81683
		c0.36618-0.1492,0.80225-0.19925,1.29152-0.19925c0.48511,0,0.92326,0.0459,1.28944,0.19714
		c0.36722,0.14816,0.66037,0.39853,0.8638,0.80435c0.2003,0.4079,0.31401,0.97437,0.31401,1.74429
		c-0.00209,0.7699-0.11163,1.33636-0.31714,1.74741c-0.20865,0.41312-0.50389,0.66977-0.87006,0.82416
		C241.51302,272.38132,241.07277,272.43033,240.58766,272.43033"/>
	<rect x="0.00001" fill="none" width="270.40622" height="380"/>
	<path id="path295" fill="#401B5C" d="M246.17293,271.48694c0.46841,0,0.79286-0.10327,0.99838-0.35992
		c0.2076-0.25662,0.29732-0.66663,0.29732-1.28003v-0.35367c0-0.61655-0.08972-1.02341-0.29524-1.27274
		c-0.2076-0.24933-0.53204-0.34531-0.99837-0.34531h-0.92117v3.61166H246.17293z M244.18036,266.99686h2.00092
		c0.52788,0,0.97334,0.03964,1.3343,0.17944c0.35678,0.14291,0.62802,0.38077,0.80954,0.77615
		c0.18048,0.39645,0.27437,0.94934,0.27437,1.71613c-0.00208,0.76575-0.09389,1.31866-0.27437,1.71509
		c-0.18361,0.39957-0.45485,0.63846-0.81163,0.77719c-0.35887,0.14191-0.80434,0.18155-1.33221,0.18155h-2.00092V266.99686z"/>
	<rect x="0.00002" fill="none" width="270.40622" height="380"/>
	<path id="path297" fill="#401B5C" d="M251.69478,271.48804c0.46841,0,0.79286-0.1033,0.99838-0.35992
		c0.2076-0.25665,0.29732-0.66663,0.29732-1.28006v-0.35364c0-0.61655-0.08972-1.02344-0.29523-1.27277
		c-0.20761-0.24933-0.53206-0.34531-0.99838-0.34531h-0.92117v3.61169H251.69478z M249.70221,266.99796h2.00092
		c0.52788,0,0.97334,0.03964,1.3343,0.17941c0.35678,0.14294,0.62802,0.3808,0.80954,0.77618
		c0.18048,0.39642,0.27437,0.94934,0.27437,1.71613c-0.00208,0.76572-0.09389,1.31863-0.27437,1.71506
		c-0.18361,0.39957-0.45485,0.63846-0.81163,0.77722c-0.35887,0.14188-0.80434,0.18152-1.33221,0.18152h-2.00092V266.99796z"/>
	<rect x="0.00003" fill="none" width="270.40619" height="380"/>
	<path id="path299" fill="#FDBB3C" d="M82.41893,139.22401H61.52922v-1.04323h20.88971c1.72238,0,3.37069-0.64055,4.64135-1.80479
		l47.80827-43.79496l0.70523,0.76887L87.7655,137.14485C86.30289,138.48541,84.40316,139.22401,82.41893,139.22401"/>
	<rect x="0.00002" fill="none" width="270.40622" height="380"/>
	<path id="path301" fill="#FDBB3C" d="M61.52891,139.22372h-37.2038v-1.04323h37.2038L61.52891,139.22372z"/>
	<rect x="0.00002" fill="none" width="270.40622" height="380"/>
	<path id="path303" fill="#FDBB3C" d="M57.47552,110.71891h0.88466l-2.02283,2.0677l2.11464,3.25593h-0.88884l-1.76098-2.71762
		l-0.69584,0.7094v2.00822h-0.76678l0.00104-5.32362h0.76678l-0.00104,2.41092L57.47552,110.71891z"/>
	<rect x="0.00002" fill="none" width="270.40622" height="380"/>
	<path id="path305" fill="#FDBB3C" d="M59.69344,110.71891l3.30288,0.00105v0.68749h-2.54236v1.51895h1.97171l-0.00104,0.6781
		h-1.97171v1.76828h2.54236v0.6708l-3.30288-0.00105L59.69344,110.71891z"/>
	<rect x="0.00002" fill="none" width="270.40622" height="380"/>
	<path id="path307" fill="#FDBB3C" d="M65.89317,113.99335l-1.99258-3.27367h0.83146l1.56485,2.5507l1.56276-2.54967h0.78869
		l-1.99467,3.26219v2.06143h-0.76051V113.99335z"/>
	<rect x="0.00002" fill="none" width="270.40622" height="380"/>
	<path id="path309" fill="#FDBB3C" d="M37.06424,37.02729c-0.45381,0-0.92222-0.0459-1.32595-0.10537
		c-0.40269-0.05424-0.73339-0.12831-0.9024-0.18256l0.1617-0.84919c0.16483,0.04173,0.51327,0.1158,0.9024,0.17005
		c0.38495,0.05946,0.8252,0.10537,1.17364,0.10537c0.53205,0,0.9024-0.0459,1.1413-0.20238
		c0.23786-0.15545,0.34844-0.42147,0.34844-0.87945c0-0.39017-0.06364-0.61446-0.27541-0.76573
		c-0.20969-0.15127-0.56856-0.23786-1.15069-0.36618c-0.88466-0.19822-1.44279-0.37243-1.78393-0.66558
		c-0.33801-0.29315-0.45694-0.71044-0.45694-1.40315c0-0.65932,0.21178-1.11835,0.61029-1.4115
		c0.39852-0.29315,0.98481-0.41834,1.73698-0.41834c0.42668,0,0.88049,0.03756,1.25188,0.0845
		c0.37244,0.04382,0.67393,0.10537,0.80225,0.14188l-0.16066,0.84398c-0.15127-0.02504-0.44442-0.07407-0.78868-0.11684
		c-0.34844-0.04069-0.75634-0.07303-1.12774-0.07303c-0.45381,0-0.7793,0.05112-0.9942,0.19404
		c-0.22012,0.14605-0.32549,0.37974-0.32549,0.74696c0,0.39747,0.06885,0.62803,0.28793,0.79286
		c0.2149,0.16483,0.58212,0.26081,1.17364,0.38913c0.75634,0.16587,1.31552,0.30775,1.68169,0.58734
		c0.36722,0.27959,0.54561,0.7021,0.54561,1.43132c0,0.76574-0.2243,1.25605-0.64576,1.54816
		C38.51851,36.92192,37.88422,37.02729,37.06424,37.02729"/>
	<rect x="0.00002" fill="none" width="270.40622" height="380"/>
	<path id="path311" fill="#FDBB3C" d="M41.3247,30.12815l4.24596,0.00104v0.8857l-3.26845-0.00104l-0.00104,1.95293l2.53506,0.00105
		v0.8711l-2.53506-0.00104v2.2732l3.26845,0.00105v0.86171h-4.24596L41.3247,30.12815z"/>
	<rect x="0.00002" fill="none" width="270.40622" height="380"/>
	<path id="path313" fill="#FDBB3C" d="M47.17662,30.12911h0.97751l-0.00104,5.98295l3.56577,0.00104v0.86171h-4.54329
		L47.17662,30.12911z"/>
	<rect fill="none" width="270.40619" height="380"/>
	<path id="path315" fill="#FDBB3C" d="M219.97389,31.45359l-1.22058,3.20899h2.43491L219.97389,31.45359z M217.8822,36.97229
		h-0.96707l2.6373-6.88952h0.88466l2.63521,6.89056h-1.01402l-0.55396-1.47617h-3.06711L217.8822,36.97229z"/>
	<rect x="0.00002" fill="none" width="270.40622" height="380"/>
	<path id="path317" fill="#FDBB3C" d="M227.44574,36.97437l-2.0343-4.87399l-0.00104,4.87399h-0.8951l0.00104-6.84466h1.03801
		l2.32747,5.53853l2.32433-5.53749h1.03697l-0.00105,6.84466h-0.95769l0.00105-4.87399l-2.04161,4.87294H227.44574z"/>
	<rect x="0.00002" fill="none" width="270.40622" height="380"/>
	<path id="path319" fill="#FDBB3C" d="M235.81393,33.79475c0.4079,0,0.76468-0.03651,1.02132-0.22534
		c0.25247-0.18778,0.40373-0.53518,0.40479-1.17364c0-0.64159-0.15962-0.9942-0.41626-1.19137
		c-0.26184-0.19717-0.62386-0.22847-1.02759-0.22847l-1.62744-0.00104l-0.00104,2.81882L235.81393,33.79475z M233.19229,30.13091
		l2.62268,0.00104c0.81059,0,1.4115,0.13666,1.81001,0.4851s0.59256,0.90866,0.59256,1.75681
		c-0.00105,0.84293-0.20343,1.4115-0.60612,1.75993c-0.40373,0.35262-1.0088,0.49554-1.81627,0.49554l-1.62744-0.00104v2.34727
		h-0.97647L233.19229,30.13091z"/>
	<rect x="0.00002" fill="none" width="270.40622" height="380"/>
	<path id="path321" fill="#FDBB3C" d="M115.61391,14.30594h1.67439l3.69722,5.34553l0.00105-5.34449h1.61388l-0.00105,8.39908
		h-1.44488l-3.92152-5.70545l-0.00105,5.7044h-1.61909L115.61391,14.30594z"/>
	<rect x="0.00002" fill="none" width="270.40622" height="380"/>
	<path id="path323" fill="#FDBB3C" d="M124.45489,14.3069l5.58651,0.00104v1.47931h-3.8996l-0.00104,1.87052h3.0765v1.47931h-3.0765
		v2.12402h3.8996v1.44592l-5.58652-0.00104L124.45489,14.3069z"/>
	<rect x="0.00003" fill="none" width="270.40619" height="380"/>
	<path id="path325" fill="#FDBB3C" d="M134.17511,18.21902l-2.59244-3.91004h1.98215l1.80583,2.77291l1.73073-2.77187h1.75264
		l-2.59453,4.10617l2.84698,4.29291h-1.98422l-2.06665-3.15578l-1.97276,3.15474h-1.75471L134.17511,18.21902z"/>
	<rect x="0.00002" fill="none" width="270.40622" height="380"/>
	<path id="path327" fill="#FDBB3C" d="M143.93196,22.82188c-1.19345,0-2.08438-0.14084-2.66754-0.59464
		c-0.58734-0.45381-0.8784-1.22163-0.8784-2.47664l0.00104-5.44046l1.69734,0.00104l-0.00104,5.32154
		c0,0.68958,0.13979,1.09852,0.44128,1.34473c0.30357,0.24725,0.7626,0.32027,1.42923,0.32027
		c0.65515,0,1.12669-0.06155,1.42401-0.29106c0.29732-0.23055,0.4319-0.6395,0.4319-1.35099l0.00104-5.34449h1.61911
		l-0.00105,5.41751c0,1.23936-0.27437,2.01135-0.85233,2.47664C145.99861,22.67062,145.12543,22.82188,143.93196,22.82188"/>
	<rect x="0.00002" fill="none" width="270.40622" height="380"/>
	<path id="path329" fill="#FDBB3C" d="M151.80818,22.80049c-0.63326,0-1.27171-0.05633-1.79332-0.1231
		c-0.52162-0.06781-0.93474-0.14605-1.13191-0.20656l0.26393-1.41254c0.11267,0.02712,0.35887,0.06781,0.6729,0.11267
		c0.30774,0.04903,0.67183,0.09389,1.0307,0.13353c0.35262,0.03964,0.70001,0.06155,0.96918,0.06155
		c0.59985,0,0.98586-0.04486,1.23206-0.19091c0.24203-0.14397,0.33174-0.39643,0.33174-0.83876
		c0-0.38704-0.06259-0.60508-0.2921-0.76365c-0.22951-0.15023-0.63951-0.23994-1.32803-0.37452
		c-0.76157-0.15231-1.33847-0.29732-1.7589-0.48302c-0.42668-0.18465-0.69583-0.42564-0.8638-0.76678
		c-0.16795-0.33696-0.23369-0.77929-0.23369-1.38959c0-0.87423,0.27959-1.46887,0.80121-1.83818
		c0.52057-0.37035,1.28317-0.51536,2.24191-0.51536c0.50909,0,1.12042,0.03964,1.64622,0.10119
		c0.52788,0.06155,0.9702,0.12832,1.15486,0.19091l-0.26917,1.42297c-0.26289-0.04486-0.66141-0.10015-1.11-0.15023
		c-0.44859-0.05216-0.95769-0.09076-1.43445-0.09076c-0.48718,0-0.81685,0.05529-1.02444,0.18883
		c-0.20865,0.14084-0.29837,0.37139-0.29837,0.71253c0,0.39852,0.06781,0.61655,0.29837,0.77304
		c0.22845,0.15753,0.61967,0.24099,1.28734,0.37556c0.73444,0.15127,1.30508,0.27542,1.73698,0.44859
		c0.42564,0.17944,0.72296,0.40373,0.91284,0.73965c0.19196,0.34218,0.26393,0.79703,0.26393,1.42923
		c0,0.94204-0.26393,1.55233-0.80641,1.93311C153.76424,22.6607,152.93486,22.80049,151.80818,22.80049"/>
	<rect x="0.00002" fill="none" width="270.40622" height="380"/>
	<path id="path331" fill="#FDBB3C" d="M16.50972,110.71796h0.78868l1.62119,4.28039l1.6264-4.27934h0.75321l-2.05204,5.35909
		h-0.68749L16.50972,110.71796z"/>
	<rect x="0.00002" fill="none" width="270.40622" height="380"/>
	<path id="path333" fill="#FDBB3C" d="M24.4094,111.74992l-0.94934,2.49646h1.89347L24.4094,111.74992z M22.78195,116.04179
		h-0.75113l2.051-5.35805h0.68854l2.04891,5.35909h-0.78868l-0.43085-1.14756h-2.38588L22.78195,116.04179z"/>
	<rect x="0.00002" fill="none" width="270.40622" height="380"/>
	<path id="path335" fill="#FDBB3C" d="M29.90776,113.49414c0.34218,0,0.62072-0.02817,0.81268-0.17422
		c0.193-0.14292,0.30045-0.40686,0.30045-0.87736c0-0.47468-0.11371-0.74592-0.31297-0.89092
		c-0.2003-0.14606-0.48093-0.17422-0.81372-0.17422h-1.19033l-0.00104,2.11672H29.90776z M32.05474,116.04381h-0.88153
		l-1.24354-1.8966h-1.22684v1.8966l-0.75947-0.00105l0.00104-5.32258l1.96441,0.00105c0.63116,0,1.09853,0.09911,1.4115,0.35992
		c0.30984,0.25976,0.46111,0.68748,0.46111,1.34785c-0.00104,0.50284-0.09493,0.85963-0.27228,1.10792
		c-0.17944,0.25037-0.44233,0.39642-0.78138,0.4705L32.05474,116.04381z"/>
	<rect x="0.00003" fill="none" width="270.40619" height="380"/>
	<path id="path337" fill="#FDBB3C" d="M247.53102,122.15221c0,0.78138-0.63324,1.41358-1.41359,1.41358
		c-0.78137,0-1.41357-0.6322-1.41357-1.41358c0-0.78034,0.6322-1.41358,1.41357-1.41358
		C246.89778,120.73862,247.53102,121.37186,247.53102,122.15221"/>
	<rect x="0.00002" fill="none" width="270.40622" height="380"/>
	<path id="path339" fill="#FDBB3C" d="M246.63612,195.89845h-1.04323v-57.19633h1.04323V195.89845z"/>
	<rect x="0.00002" fill="none" width="270.40622" height="380"/>
	<path id="path341" fill="#FDBB3C" d="M203.72636,111.38119h-0.94727v-0.66245h1.70778l-0.00105,5.32362h-0.76051
		L203.72636,111.38119z"/>
	<rect x="0.00002" fill="none" width="270.40622" height="380"/>
	<path id="path343" fill="#FDBB3C" d="M207.85139,115.45123c0.45381,0,0.77408-0.10432,0.97751-0.37766
		c0.20343-0.27437,0.29628-0.7167,0.29628-1.39793v-0.58213c0.00104-0.68018-0.09181-1.12669-0.30254-1.40106
		c-0.21074-0.27332-0.53101-0.38182-0.98482-0.38182c-0.45172-0.00105-0.7699,0.10328-0.97229,0.37452
		c-0.20343,0.2702-0.29628,0.71253-0.29732,1.39376v0.58108c0,0.68228,0.09283,1.12357,0.30357,1.40107
		C207.08148,115.34064,207.39864,115.45018,207.85139,115.45123 M207.83679,116.12515c-0.71254,0-1.22893-0.15127-1.56068-0.56752
		c-0.33174-0.41729-0.48927-1.10165-0.48927-2.17097c0.00104-1.07036,0.15857-1.76307,0.49658-2.18245
		c0.33905-0.42251,0.85545-0.57482,1.56902-0.57378c0.71358,0,1.22685,0.14919,1.56277,0.56647
		c0.33383,0.4173,0.49136,1.1027,0.49031,2.17201c0,1.06932-0.16066,1.75785-0.49971,2.17828
		C209.06781,115.96867,208.55035,116.12515,207.83679,116.12515"/>
	<rect x="0.00002" fill="none" width="270.40622" height="380"/>
	<path id="path345" fill="#FDBB3C" d="M210.79063,110.71993h0.78868l1.62119,4.27934l1.6264-4.2783h0.75322l-2.05205,5.35909
		l-0.68748-0.00105L210.79063,110.71993z"/>
	<rect x="0.00002" fill="none" width="270.40622" height="380"/>
	<path id="path347" fill="#FDBB3C" d="M240.21921,116.04212l-1.58362-3.79216v3.79111h-0.69688l0.00209-5.32362h0.80745
		l1.80898,4.30856l1.81001-4.30751h0.80434v5.32362h-0.74593l0.00209-3.79111l-1.58884,3.79111H240.21921z"/>
	<rect x="0.00002" fill="none" width="270.40622" height="380"/>
	<path id="path349" fill="#FDBB3C" d="M246.79648,115.45123c0.47467,0,0.85545-0.09285,1.11626-0.37035
		c0.2608-0.27855,0.40373-0.74592,0.40373-1.5127v-0.37452c0.00209-0.75948-0.145-1.22997-0.40999-1.51164
		c-0.26289-0.28168-0.64786-0.37139-1.12253-0.37139c-0.47049,0-0.85127,0.08554-1.11208,0.36513
		c-0.26082,0.27646-0.40582,0.74487-0.40791,1.5033v0.37556c0,0.76573,0.14709,1.23623,0.41417,1.51894
		C245.94519,115.35838,246.32597,115.45123,246.79648,115.45123 M246.78188,116.12515c-0.4413,0-0.84711-0.05007-1.1893-0.20343
		c-0.34634-0.15231-0.62802-0.40895-0.8231-0.81372c-0.19821-0.40373-0.30775-0.96291-0.30775-1.72134
		c0.00209-0.76052,0.11163-1.32387,0.31194-1.73073c0.19925-0.40477,0.48405-0.66141,0.83041-0.81894
		c0.34634-0.15335,0.75217-0.20656,1.19449-0.20656c0.44234,0,0.8492,0.05008,1.19347,0.20343
		c0.34323,0.15336,0.62595,0.41,0.8252,0.81372c0.19614,0.40165,0.30566,0.96082,0.30463,1.72134
		c0,0.75948-0.11058,1.31969-0.30984,1.72551c-0.2003,0.40686-0.48509,0.66663-0.83145,0.81998
		C247.63628,116.07195,247.2242,116.12515,246.78188,116.12515"/>
	<rect x="0.00002" fill="none" width="270.40622" height="380"/>
	<path id="path351" fill="#FDBB3C" d="M252.25301,115.40232c0.47467,0,0.84189-0.10015,1.0881-0.37765
		c0.2462-0.27854,0.3766-0.73444,0.3766-1.46262v-0.35365c0.00209-0.72713-0.1304-1.18616-0.37453-1.46053
		c-0.2462-0.27541-0.61342-0.37035-1.08809-0.37035h-1.08392l-0.00208,4.0248H252.25301z M250.41066,110.72029l1.85069,0.00105
		c0.48302,0,0.89197,0.0459,1.22685,0.19508c0.33592,0.15022,0.59256,0.39539,0.76782,0.79181
		c0.17317,0.39643,0.26706,0.93787,0.26497,1.67961c0,0.73756-0.0918,1.28004-0.26706,1.6723s-0.4319,0.64159-0.76573,0.78764
		c-0.33698,0.14605-0.74591,0.19613-1.22685,0.19613l-1.85278-0.00105L250.41066,110.72029z"/>
	<rect x="0.00003" fill="none" width="270.40619" height="380"/>
	<path id="path353" fill="#FDBB3C" d="M135.22137,93.50199l-0.12207-0.02921L42.68549,71.19556l0.24516-1.01402l92.29072,22.24801
		l92.28967-22.24801l0.24411,1.01402L135.22137,93.50199z"/>
	<rect x="0.00002" fill="none" width="270.40622" height="380"/>
	<path id="path355" fill="#FDBB3C" d="M260.16187,259.21271h-28.09325c-1.63266,0-2.95757-1.32385-2.95757-2.95651v-36.96596
		c0-1.63266,1.32491-2.95653,2.95757-2.95653h28.09325c1.63266,0,2.95755,1.32387,2.95755,2.95653v36.96596
		C263.11942,257.88885,261.79453,259.21271,260.16187,259.21271"/>
	<rect x="0.00001" fill="none" width="270.40622" height="380"/>
	<path id="path357" fill="#401B5C" d="M241.96338,221.16014h1.19763l-2.03117,2.14803l2.15219,3.19751h-1.255l-1.62224-2.43178
		l-0.49553,0.5237v1.90808h-1.07974v-5.34554h1.07974v2.16159L241.96338,221.16014z"/>
	<rect x="0.00002" fill="none" width="270.40622" height="380"/>
	<path id="path359" fill="#401B5C" d="M244.35751,221.16116h3.55533v0.94099H245.431v1.19241h1.95605v0.94101h-1.95815v1.35098
		h2.48186v0.92014h-3.55325V221.16116z"/>
	<rect x="0.00002" fill="none" width="270.40622" height="380"/>
	<path id="path361" fill="#401B5C" d="M250.68816,224.59956l-2.02074-3.43851l1.16528,0.00105l1.41985,2.39005l1.41359-2.39005
		h1.11104l-2.01553,3.41658v1.92894h-1.07349V224.59956z"/>
</g>
</svg>
