<?xml version="1.0" encoding="utf-8"?>
<!-- Generator: Adobe Illustrator 28.7.1, SVG Export Plug-In . SVG Version: 9.03 Build 54978)  -->
<svg version="1.0"
	 id="svg18117" xmlns:inkscape="http://www.inkscape.org/namespaces/inkscape" xmlns:sodipodi="http://sodipodi.sourceforge.net/DTD/sodipodi-0.dtd" xmlns:dc="http://purl.org/dc/elements/1.1/" xmlns:rdf="http://www.w3.org/1999/02/22-rdf-syntax-ns#" xmlns:svg="http://www.w3.org/2000/svg" xmlns:cc="http://creativecommons.org/ns#" inkscape:version="0.92.4 5da689c313, 2019-01-14"
	 xmlns="http://www.w3.org/2000/svg" xmlns:xlink="http://www.w3.org/1999/xlink" x="0px" y="0px" width="90.87648px"
	 height="380px" viewBox="0 0 90.87648 380" enable-background="new 0 0 90.87648 380" xml:space="preserve">
<sodipodi:namedview  bordercolor="#666666" borderopacity="1.0" fit-margin-bottom="0" fit-margin-left="0" fit-margin-right="0" fit-margin-top="0" id="base" inkscape:current-layer="layer5" inkscape:cx="55.491533" inkscape:cy="228.45869" inkscape:document-units="mm" inkscape:pageopacity="0.0" inkscape:pageshadow="2" inkscape:snap-bbox="true" inkscape:snap-bbox-midpoints="true" inkscape:snap-nodes="false" inkscape:snap-others="false" inkscape:window-height="882" inkscape:window-maximized="0" inkscape:window-width="1600" inkscape:window-x="0" inkscape:window-y="18" inkscape:zoom="1.4" pagecolor="#FDBB3C" showgrid="false">
	</sodipodi:namedview>
<g id="layer1" transform="translate(-28.445834,-95.02406)" inkscape:groupmode="layer" inkscape:label="Layer 1">
	
		<linearGradient id="path304_00000120530987523167003510000015500270758992494497_" gradientUnits="userSpaceOnUse" x1="73.88407" y1="95.02406" x2="73.88407" y2="475.02405">
		<stop  offset="0" style="stop-color:#401B5C"/>
		<stop  offset="1" style="stop-color:#401B5C"/>
	</linearGradient>
	
		<path id="path304" inkscape:connector-curvature="0" fill="url(#path304_00000120530987523167003510000015500270758992494497_)" d="
		M28.44583,475.02405h90.87649v-380H28.44583V475.02405z"/>
	<path id="path728" inkscape:connector-curvature="0" fill="#FDBB3C" d="M66.04921,443.71616h-25.5758
		c-1.08568,0-1.96391-0.87827-1.96391-1.96393v-23.29071h29.50768v23.29071
		C68.01718,442.83789,67.13489,443.71616,66.04921,443.71616"/>
	<path id="path730" inkscape:connector-curvature="0" fill="#FDBB3C" d="M107.3771,443.71616H81.8013
		c-1.08569,0-1.96391-0.87827-1.96391-1.96393v-23.29071h29.50769v23.29071
		C109.34508,442.83789,108.46279,443.71616,107.3771,443.71616"/>
	<path id="path732" inkscape:connector-curvature="0" fill="#FDBB3C" d="M48.9106,152.13557
		c0.20734,0,0.39847-0.01474,0.54076-0.13013c0.13823-0.10976,0.22764-0.3253,0.22764-0.71564
		c0-0.39035-0.09368-0.5977-0.23575-0.7075c-0.14647-0.10976-0.33746-0.12599-0.54492-0.12599h-0.96359v1.67931L48.9106,152.13557z
		 M47.02392,149.69997h1.88668c0.56512,0,0.98399,0.0773,1.26451,0.30902c0.28052,0.23161,0.42282,0.63434,0.42282,1.26862
		c0,0.64651-0.14635,1.045-0.42688,1.28082c-0.2846,0.23988-0.71157,0.31717-1.27274,0.31717h-0.96358v1.39468h-0.91081
		L47.02392,149.69997z"/>
	<path id="path734" inkscape:connector-curvature="0" fill="#FDBB3C" d="M53.34266,153.56685
		c0.39441,0,0.68305-0.07732,0.87417-0.29684c0.18704-0.21539,0.27648-0.5652,0.27648-1.11411v-0.34157
		c0-0.5489-0.09368-0.89861-0.28459-1.11003c-0.19519-0.21539-0.48382-0.28857-0.87833-0.28857
		c-0.39441,0-0.679,0.07318-0.87011,0.28061c-0.18704,0.21156-0.27648,0.55705-0.27648,1.10596v0.34157
		c0,0.5489,0.08952,0.90266,0.28459,1.12225c0.19111,0.21953,0.48392,0.30086,0.87428,0.30086 M53.33027,154.34766
		c-0.41471,0-0.78881-0.04485-1.10181-0.17499c-0.31313-0.12599-0.56524-0.34557-0.73605-0.69524
		c-0.17477-0.34969-0.2724-0.83357-0.2724-1.49226c0-0.65871,0.09785-1.14258,0.2724-1.49225
		c0.17488-0.34967,0.43104-0.56927,0.74821-0.69937c0.31311-0.12599,0.68711-0.17084,1.10192-0.17084
		c0.41471,0,0.79287,0.04073,1.10598,0.16672c0.313,0.13011,0.56512,0.34155,0.73593,0.69122
		c0.17082,0.3456,0.26836,0.83356,0.26836,1.49225c0,0.65872-0.09368,1.14258-0.26836,1.49225
		c-0.17892,0.35376-0.43104,0.57336-0.74406,0.70345c-0.31717,0.13426-0.69534,0.17882-1.11015,0.17882"/>
	<path id="path736" inkscape:connector-curvature="0" fill="#FDBB3C" d="M57.69746,154.31905
		c-0.34569,0-0.69128-0.02951-0.97587-0.06493c-0.28471-0.03658-0.51234-0.08145-0.6181-0.11388l0.14228-0.76846
		c0.06453,0.01474,0.19923,0.03658,0.37005,0.06107c0.16674,0.02953,0.36599,0.05281,0.56116,0.0732
		c0.19112,0.02066,0.37806,0.03246,0.52452,0.03246c0.32529,0,0.5367-0.02362,0.67087-0.10179
		c0.13013-0.08113,0.17892-0.21954,0.17892-0.45949c0-0.21156-0.03225-0.32935-0.15459-0.41473
		c-0.12606-0.08145-0.34965-0.13011-0.72375-0.20331c-0.41471-0.08144-0.73188-0.16258-0.95963-0.26437
		c-0.23171-0.09737-0.37806-0.2278-0.46758-0.41473c-0.09368-0.18292-0.13013-0.42693-0.13013-0.7563
		c0-0.47574,0.15459-0.80101,0.4351-1.00024c0.28459-0.20329,0.69939-0.28059,1.21986-0.28059
		c0.28052,0,0.61394,0.02066,0.89863,0.05281c0.28867,0.03246,0.52857,0.06905,0.63017,0.10562l-0.15042,0.77254
		c-0.14231-0.02362-0.35787-0.05281-0.60176-0.08145c-0.24399-0.02951-0.52046-0.04869-0.78069-0.04869
		c-0.26429,0-0.44322,0.02951-0.5571,0.10179c-0.11386,0.0773-0.16258,0.20331-0.16258,0.39038
		c0,0.21539,0.03643,0.33339,0.16258,0.41878c0.12201,0.08528,0.33746,0.13013,0.69939,0.20331
		c0.40253,0.08527,0.71157,0.15048,0.94735,0.24402c0.2318,0.09766,0.39441,0.21954,0.4961,0.40256
		c0.102,0.18707,0.14228,0.43509,0.14228,0.78069c0,0.51234-0.14228,0.84166-0.43917,1.05312
		c-0.29677,0.20331-0.74406,0.28061-1.35799,0.28061"/>
	<path id="path738" inkscape:connector-curvature="0" fill="#FDBB3C" d="M88.5266,149.69995h0.91496l2.01262,2.90726v-2.90726
		h0.87428v4.57031h-0.78475l-2.13473-3.10246v3.10246h-0.88239L88.5266,149.69995z"/>
	<path id="path740" inkscape:connector-curvature="0" fill="#FDBB3C" d="M93.30433,149.69995h3.04147v0.8051h-2.12254v1.01649
		h1.6712v0.8051h-1.6712v1.15884h2.12254v0.78476h-3.04147V149.69995z"/>
	<path id="path742" inkscape:connector-curvature="0" fill="#FDBB3C" d="M98.94405,154.33125
		c-0.41479,0-0.78069-0.04073-1.08568-0.17085c-0.30499-0.12599-0.54076-0.34154-0.69939-0.68716
		c-0.16257-0.34967-0.24805-0.82948-0.24805-1.48817c0-0.65872,0.09368-1.14258,0.25617-1.49225
		c0.16676-0.34561,0.40668-0.56113,0.71563-0.69125c0.30499-0.13011,0.67505-0.17084,1.10193-0.17084
		c0.37411,0,0.6791,0.02362,0.91892,0.04898c0.23588,0.02951,0.40668,0.06493,0.51234,0.09354l-0.13823,0.79698
		c-0.34559-0.06493-0.81723-0.13426-1.30521-0.13426c-0.4147,0-0.68722,0.08528-0.85793,0.29269
		c-0.17082,0.21158-0.244,0.55298-0.244,1.07346v0.34154c0,0.50827,0.06453,0.86612,0.23995,1.09381
		c0.17069,0.23161,0.4554,0.33746,0.89864,0.33746c0.28867,0,0.5367-0.03658,0.67493-0.06107v-1.56544h0.85793v2.19569
		c-0.10982,0.03659-0.31311,0.08113-0.58552,0.11803c-0.27647,0.04073-0.62205,0.06905-1.01241,0.06905"/>
	<path id="path744" inkscape:connector-curvature="0" fill="#FDBB3C" d="M50.97612,117.67124h1.52891l2.00461,5.29813
		l1.98421-5.29813h1.47197l-2.82194,7.32713h-1.34581L50.97612,117.67124z"/>
	<path id="path746" inkscape:connector-curvature="0" fill="#FDBB3C" d="M61.11294,119.59043
		c-0.2033,0.53672-0.38223,1.01246-0.5367,1.43127c-0.0687,0.17881-0.13013,0.36188-0.19519,0.52858
		c-0.12605,0.34564-0.2318,0.61401-0.29687,0.77663c-0.03225,0.08527-0.04477,0.13012-0.04477,0.13012h2.13868L61.11294,119.59043z
		 M59.11645,124.94956h-1.46374l2.82183-7.32713h1.34592l2.82184,7.32713h-1.54098l-0.48392-1.3093h-3.01701L59.11645,124.94956z"/>
	<path id="path748" inkscape:connector-curvature="0" fill="#FDBB3C" d="M68.59863,121.44863
		c0.3944,0,0.69939-0.04869,0.91081-0.23162c0.20734-0.18293,0.3131-0.50014,0.3131-1.05721
		c0-0.56518-0.11794-0.8864-0.33341-1.0653c-0.21964-0.17881-0.53264-0.21954-0.91081-0.21954h-1.43127v2.57383L68.59863,121.44863z
		 M71.76211,124.94956h-1.6712l-1.55732-2.31361h-1.38651v2.31361h-1.45156v-7.27832h2.90314
		c0.89863,0,1.57356,0.10563,2.02085,0.46759c0.44728,0.35783,0.66682,0.98401,0.66682,2.00053
		c0,0.71157-0.11378,1.19949-0.32529,1.53698c-0.21954,0.34157-0.54482,0.53673-0.96764,0.63837L71.76211,124.94956z"/>
	<path id="path750" inkscape:connector-curvature="0" fill="#FDBB3C" d="M72.8965,117.67124h1.47604v7.28239H72.8965V117.67124z"/>
	<path id="path752" inkscape:connector-curvature="0" fill="#FDBB3C" d="M78.9144,119.59043
		c-0.19923,0.53672-0.37817,1.01246-0.53263,1.43127c-0.0687,0.17881-0.13428,0.36188-0.19519,0.52858
		c-0.12605,0.34564-0.2318,0.61401-0.29688,0.77663c-0.03225,0.08527-0.04892,0.13012-0.04892,0.13012h2.14285L78.9144,119.59043z
		 M76.91791,124.94956h-1.45969l2.82184-7.32713h1.34591l2.82184,7.32713h-1.54109l-0.48788-1.3093h-3.01295L76.91791,124.94956z"/>
	<path id="path754" inkscape:connector-curvature="0" fill="#FDBB3C" d="M83.50092,117.67124h1.45168l3.20813,4.63129v-4.63129
		h1.39463v7.27832h-1.25233l-3.39924-4.94437v4.94437h-1.40285L83.50092,117.67124z"/>
	<path id="path756" inkscape:connector-curvature="0" fill="#FDBB3C" d="M93.0034,118.95206h-2.36644v-1.28082h6.18861v1.28082
		h-2.36237v5.9975H93.0034V118.95206z"/>
	<path id="path758" inkscape:connector-curvature="0" fill="#FDBB3C" d="M41.74198,133.85027h0.67503l1.38651,3.65947
		l1.39057-3.65947h0.64651l-1.75655,4.58658h-0.58552L41.74198,133.85027z"/>
	<path id="path760" inkscape:connector-curvature="0" fill="#FDBB3C" d="M48.34538,137.9001
		c0.40253,0,0.73188-0.08115,0.9514-0.31715c0.22369-0.23988,0.34569-0.63837,0.34569-1.29303v-0.32118
		c0-0.65059-0.12605-1.05315-0.34975-1.29303c-0.22764-0.23988-0.557-0.31717-0.96359-0.31717
		c-0.39857,0-0.72791,0.07318-0.94744,0.30902c-0.2236,0.23988-0.34965,0.63841-0.34965,1.28894v0.32124
		c0,0.65465,0.12605,1.05721,0.3537,1.29709c0.22776,0.24402,0.55304,0.32527,0.95963,0.32527 M48.32883,138.47345
		c-0.37411,0-0.72385-0.04073-1.01656-0.17085c-0.29688-0.13425-0.5367-0.35374-0.70346-0.69531
		c-0.16665-0.3456-0.26429-0.82541-0.26429-1.476c0-0.6465,0.09785-1.13036,0.26836-1.47598
		c0.17082-0.34967,0.41075-0.56927,0.70752-0.70345c0.29688-0.13011,0.64651-0.17497,1.02468-0.17497
		c0.37411,0,0.72375,0.04071,1.02063,0.17084c0.29271,0.13426,0.53263,0.35373,0.70335,0.6953
		c0.16674,0.3456,0.26429,0.82541,0.26429,1.47597c0,0.64655-0.09785,1.12633-0.26836,1.476
		c-0.17073,0.34566-0.41471,0.56927-0.70752,0.6994c-0.29676,0.13426-0.64651,0.1788-1.02864,0.1788"/>
	<path id="path762" inkscape:connector-curvature="0" fill="#FDBB3C" d="M51.29328,133.85027h0.65058v3.98071h2.3706v0.5733
		h-3.02118V133.85027z"/>
	<path id="path764" inkscape:connector-curvature="0" fill="#FDBB3C" d="M55.83108,134.43985h-1.50444v-0.58551h3.64729v0.58551
		h-1.49226v3.96446h-0.65058L55.83108,134.43985z"/>
	<path id="path766" inkscape:connector-curvature="0" fill="#FDBB3C" d="M60.01508,134.7326l-0.80912,2.13472h1.61832
		L60.01508,134.7326z M58.62451,138.40431h-0.64246l1.7525-4.5825h0.58958l1.7525,4.5825h-0.67088l-0.37005-0.97993h-2.04115
		L58.62451,138.40431z"/>
	<path id="path768" inkscape:connector-curvature="0" fill="#FDBB3C" d="M64.51624,138.4653
		c-0.36588,0-0.70335-0.02953-0.98399-0.1505c-0.28459-0.11803-0.51641-0.3212-0.679-0.66684
		c-0.1627-0.3456-0.25211-0.83354-0.25211-1.51666c0-0.67903,0.09369-1.17104,0.25617-1.52071
		c0.16666-0.34967,0.40252-0.55705,0.69534-0.67903c0.29271-0.12186,0.6383-0.15462,1.02052-0.15462
		c0.32935,0,0.6181,0.02066,0.84982,0.05281c0.22776,0.03247,0.39847,0.06905,0.49204,0.10562l-0.10982,0.56519
		c-0.13417-0.02362-0.31717-0.05696-0.53264-0.08528c-0.21954-0.02361-0.46758-0.04485-0.71157-0.04485
		c-0.45135,0-0.76852,0.07732-0.97587,0.31717c-0.2033,0.23576-0.30093,0.63837-0.30093,1.26863v0.3212
		c0,0.61807,0.09785,1.02058,0.30093,1.27269c0.21142,0.252,0.52452,0.34967,0.96775,0.34967
		c0.42699,0,0.68721-0.04483,0.84982-0.08527v-1.61424h0.6181v2.0737c-0.10983,0.03659-0.30499,0.08145-0.56116,0.12186
		c-0.26021,0.04073-0.5774,0.06905-0.94338,0.06905"/>
	<path id="path770" inkscape:connector-curvature="0" fill="#FDBB3C" d="M67.07795,133.85027h2.8259v0.58955h-2.17532v1.30118
		h1.68744v0.57738h-1.68744v1.51259h2.17532v0.5733h-2.8259V133.85027z"/>
	<path id="path772" inkscape:connector-curvature="0" fill="#FDBB3C" d="M72.51022,133.85027h2.826v0.58955h-2.17543v1.30118
		h1.68744v0.57738h-1.68744v1.51259h2.17543v0.5733h-2.826V133.85027z"/>
	<path id="path774" inkscape:connector-curvature="0" fill="#FDBB3C" d="M77.70265,136.00124l-1.42315-2.1469h0.7604
		l1.10599,1.67931l1.07746-1.67931h0.69534l-1.41503,2.20381l1.55328,2.34613h-0.75626l-1.24016-1.87852l-1.21986,1.87852h-0.69128
		L77.70265,136.00124z"/>
	<path id="path776" inkscape:connector-curvature="0" fill="#FDBB3C" d="M82.7324,136.28992
		c0.27253,0,0.50829-0.02361,0.6791-0.15048c0.16666-0.12599,0.26836-0.3578,0.26836-0.78069
		c0-0.42693-0.10575-0.66277-0.27647-0.79286c-0.17489-0.13011-0.41482-0.1546-0.68317-0.1546h-1.08558v1.87852L82.7324,136.28992z
		 M80.98813,133.85027h1.74427c0.54087,0,0.93934,0.09354,1.20362,0.32527c0.26429,0.23163,0.39441,0.60178,0.39441,1.16698
		c0,0.56113-0.13417,0.93925-0.40252,1.17104c-0.26836,0.23576-0.67098,0.32939-1.20769,0.32939h-1.08558v1.56137h-0.64651
		V133.85027z"/>
	<path id="path778" inkscape:connector-curvature="0" fill="#FDBB3C" d="M86.64815,134.7326l-0.81326,2.13472h1.61832
		L86.64815,134.7326z M85.25748,138.40431h-0.64246l1.75249-4.5825h0.58958l1.7525,4.5825h-0.67493l-0.37005-0.97993h-2.03709
		L85.25748,138.40431z"/>
	<path id="path780" inkscape:connector-curvature="0" fill="#FDBB3C" d="M89.55534,133.85027h0.63434l2.2892,3.38707v-3.38707
		h0.62622v4.55405h-0.57333l-2.3502-3.48061v3.48061h-0.62622L89.55534,133.85027z"/>
	<path id="path782" inkscape:connector-curvature="0" fill="#FDBB3C" d="M95.83752,137.85539
		c0.40659,0,0.7197-0.08528,0.93111-0.32124c0.21142-0.23988,0.32123-0.63025,0.32123-1.25238v-0.30086
		c0-0.62212-0.10983-1.01654-0.32123-1.25235c-0.21142-0.23163-0.52452-0.31717-0.93111-0.31717h-0.92704v3.444H95.83752z
		 M94.2599,133.85027h1.58575c0.41064,0,0.7604,0.04073,1.04904,0.17084c0.28459,0.12601,0.50423,0.33749,0.65464,0.67499
		c0.15042,0.33748,0.22776,0.80101,0.22776,1.43533s-0.07704,1.09784-0.22776,1.43126
		c-0.15042,0.33749-0.37005,0.54895-0.65464,0.675c-0.28867,0.12599-0.6384,0.16672-1.04904,0.16672H94.2599V133.85027z"/>
	<path id="path784" inkscape:connector-curvature="0" fill="#FDBB3C" d="M98.76919,133.85027h2.8259v0.58955h-2.17532v1.30118
		h1.68744v0.57738h-1.68744v1.51259h2.17532v0.5733h-2.8259V133.85027z"/>
	<path id="path786" inkscape:connector-curvature="0" fill="#FDBB3C" d="M104.20144,136.22487
		c0.29282,0,0.53275-0.02362,0.69534-0.1505c0.16677-0.12186,0.25617-0.3456,0.25617-0.74812
		c0-0.40663-0.09785-0.63841-0.26836-0.76443c-0.17081-0.12599-0.41064-0.15048-0.69534-0.15048h-1.01646v1.81346
		L104.20144,136.22487z M106.03941,138.40431h-0.75633l-1.06123-1.62239h-1.04904v1.62239h-0.65057v-4.55405h1.67921
		c0.54087,0,0.93934,0.08528,1.20769,0.30902c0.26429,0.22365,0.3944,0.5896,0.3944,1.15475c0,0.42696-0.0812,0.7319-0.2318,0.9474
		c-0.15446,0.21156-0.37806,0.33749-0.66682,0.40256L106.03941,138.40431z"/>
	<path id="path788" inkscape:connector-curvature="0" fill="#FDBB3C" d="M51.80563,318.80533
		c0.64652-0.02359,1.12628-0.0528,1.47197-0.10178c0.34153-0.04868,0.557-0.11801,0.679-0.21539
		c0.14635-0.10562,0.183-0.31311,0.183-0.54077c0-0.21954-0.04477-0.40662-0.17488-0.50827
		c-0.10971-0.0853-0.32935-0.1626-0.68711-0.22369c-0.35787-0.0611-0.85387-0.10562-1.51674-0.12186l0.0614-2.17535h2.93166v0.80505
		H52.5989l-0.02803,0.68719c0.58958,0.03659,1.03687,0.10181,1.37434,0.19122c0.33746,0.08942,0.557,0.19919,0.71563,0.32529
		c0.14635,0.12189,0.23588,0.26852,0.28867,0.44321c0.05725,0.17496,0.07285,0.37006,0.07285,0.60178
		c0,0.42691-0.07285,0.76041-0.30082,0.97995c-0.17082,0.19531-0.45946,0.34152-0.91486,0.43506
		c-0.45946,0.09738-1.09381,0.1546-1.94767,0.17877L51.80563,318.80533z"/>
	<path id="path790" inkscape:connector-curvature="0" fill="#FDBB3C" d="M54.13958,357.06735h-2.51695v-0.80508h3.45212v0.81323
		l-1.74844,3.75711h-1.00834L54.13958,357.06735z"/>
	<path id="path792" inkscape:connector-curvature="0" fill="#FDBB3C" d="M53.09866,233.06735h-0.73188v-0.76849h1.64268v4.57031
		h-0.91081V233.06735z"/>
	<path id="path794" inkscape:connector-curvature="0" fill="#FDBB3C" d="M51.74057,277.49365
		c0.65058-0.02359,1.12628-0.05283,1.47197-0.10565c0.34559-0.04865,0.557-0.11798,0.68305-0.21536
		c0.14228-0.10977,0.17892-0.30496,0.17892-0.53268c0-0.21954-0.0406-0.39441-0.17082-0.49612
		c-0.11377-0.08527-0.2724-0.13425-0.45946-0.17084c-0.18704-0.03662-0.40252-0.06113-0.63018-0.0853v-0.57333l0.91081-0.90671
		h-2.05341v-0.79697h3.01701v0.79291l-0.97587,0.96774c0.36599,0.06906,0.68721,0.17877,0.89457,0.3497
		c0.26429,0.2074,0.34965,0.5123,0.34965,0.93927c0,0.431-0.0687,0.76035-0.30082,0.97992
		c-0.17082,0.19122-0.4554,0.33749-0.91081,0.43506c-0.45946,0.09766-1.0938,0.15875-1.95173,0.18295L51.74057,277.49365z"/>
	<path id="path796" inkscape:connector-curvature="0" fill="#FDBB3C" d="M94.73154,318.8541
		c0.35371,0,0.5774-0.03659,0.7197-0.15842c0.14635-0.11801,0.19516-0.30905,0.19516-0.62213
		c0-0.26822-0.02803-0.43918-0.13013-0.54895c-0.102-0.10974-0.27647-0.15045-0.56927-0.15045
		c-0.23171,0-0.45135,0.0177-0.64246,0.03659c-0.19923,0.02951-0.36995,0.0611-0.50007,0.0853v0.39438
		c0,0.37817,0.05309,0.61398,0.19519,0.76041C94.13789,318.79718,94.36553,318.8541,94.73154,318.8541 M94.715,319.56158
		c-0.52452,0-0.90269-0.06491-1.17104-0.20328c-0.26429-0.1384-0.41886-0.35785-0.50828-0.66278
		c-0.08537-0.30493-0.10983-0.70343-0.10983-1.20355v-0.41476c0-0.41064,0.0239-0.7319,0.08952-0.98804
		c0.0687-0.25613,0.183-0.45132,0.37005-0.60992c0.366-0.31714,1.22798-0.52454,2.58607-0.64246l0.09368,0.75632
		c-0.679,0.08145-1.14252,0.15045-1.4678,0.22366c-0.32935,0.07318-0.51641,0.15463-0.63029,0.25613
		c-0.09368,0.08145-0.13416,0.19507-0.15042,0.32935c-0.01033,0.06494-0.01239,0.13428-0.01239,0.20743v0.21954
		c0.102-0.02948,0.30489-0.06906,0.5367-0.09766c0.23171-0.03247,0.48383-0.05283,0.68306-0.05283
		c0.41075,0,0.71564,0.02362,0.93932,0.09766c0.21954,0.07733,0.36183,0.20331,0.44729,0.40668
		c0.08536,0.2074,0.11377,0.48386,0.11377,0.87012c0,0.32123-0.03225,0.59366-0.13013,0.81729
		c-0.09785,0.22369-0.26429,0.39441-0.52857,0.51233c-0.26836,0.11801-0.6384,0.17877-1.15064,0.17877"/>
	<path id="path798" inkscape:connector-curvature="0" fill="#FDBB3C" d="M95.03237,358.13678
		c0.27657-0.12189,0.41886-0.20328,0.49205-0.30493c0.0687-0.10562,0.0687-0.23193,0.0687-0.45947
		c0-0.17877-0.0812-0.28473-0.23588-0.3497c-0.15854-0.0611-0.38213-0.08112-0.67493-0.08112
		c-0.28052,0-0.47977,0.02066-0.60582,0.08112c-0.13013,0.06494-0.18704,0.17087-0.18704,0.3497
		c0,0.13809,0.01653,0.23166,0.0687,0.30493c0.05309,0.07318,0.13824,0.12189,0.2724,0.17499
		c0.06453,0.02948,0.14229,0.05695,0.23588,0.08942c0.08537,0.02948,0.19519,0.06491,0.31717,0.10974L95.03237,358.13678z
		 M94.68272,360.16171c0.35381,0,0.60581-0.03247,0.77257-0.10977c0.16676-0.08145,0.24399-0.21539,0.24399-0.42285
		c0-0.17087-0.01653-0.29684-0.07704-0.39035c-0.06454-0.09354-0.17082-0.1626-0.33758-0.23193
		c-0.08537-0.03659-0.19111-0.0773-0.30895-0.11801c-0.11794-0.04068-0.26428-0.08942-0.42293-0.14636l-0.18299-0.06491
		c-0.2236,0.09766-0.36995,0.17087-0.47571,0.24402c-0.102,0.07315-0.15446,0.1546-0.183,0.26022
		c-0.03225,0.10977-0.03643,0.24817-0.03643,0.44727c0,0.20743,0.0812,0.34155,0.24794,0.42291
		c0.16676,0.0773,0.41886,0.10977,0.7604,0.10977 M94.68299,360.90579c-0.6994,0-1.17104-0.08142-1.4678-0.28058
		c-0.29688-0.19504-0.41886-0.51236-0.41886-0.97586c0-0.2399,0.01239-0.41476,0.06139-0.56113
		c0.04892-0.14639,0.13417-0.25613,0.26836-0.36191c0.13417-0.10147,0.32529-0.19531,0.58958-0.30493
		c-0.30489-0.14224-0.48788-0.27649-0.58958-0.43918c-0.10566-0.16672-0.13417-0.36188-0.13417-0.62619
		c0-0.45129,0.12605-0.74408,0.40252-0.92706c0.27657-0.17877,0.69939-0.23987,1.29304-0.23987
		c0.59769,0,1.04093,0.0611,1.33374,0.23987c0.29271,0.18292,0.43501,0.47571,0.43501,0.92706
		c0,0.27237-0.0124,0.45541-0.10971,0.6059c-0.09785,0.15045-0.28065,0.28058-0.62217,0.43506
		c0.37005,0.15845,0.59364,0.29269,0.72376,0.47571c0.13013,0.18295,0.16676,0.41882,0.16676,0.77667
		c0,0.4635-0.13416,0.7807-0.43916,0.97586c-0.30905,0.19919-0.79288,0.28058-1.49226,0.28058"/>
	<path id="path800" inkscape:connector-curvature="0" fill="#FDBB3C" d="M95.12595,277.28632H92.8204v-0.84576l1.75655-2.84625
		h0.92309l-1.80537,2.9357h1.43127v-1.30112h0.88645V276.53h0.52452v0.75632h-0.52452v0.89456h-0.88645L95.12595,277.28632z"/>
	<path id="path802" inkscape:connector-curvature="0" fill="#FDBB3C" d="M93.04005,236.17793l1.33363-1.15071
		c0.28875-0.24817,0.49205-0.42285,0.63028-0.56517c0.13417-0.14223,0.21142-0.25615,0.25211-0.38225
		c0.0406-0.12189,0.04891-0.26439,0.04891-0.45541c0-0.21953-0.04476-0.37001-0.16674-0.46352
		c-0.12605-0.09352-0.33341-0.13426-0.67493-0.13426c-0.26836,0-0.5368,0.02359-0.7604,0.04868
		c-0.22359,0.02359-0.3944,0.05695-0.47976,0.0773l-0.12201-0.7807c0.14635-0.04071,0.36994-0.07732,0.61799-0.10149
		c0.24805-0.0295,0.51234-0.04868,0.75633-0.04868c0.66276,0,1.08975,0.08145,1.3581,0.29271
		c0.26428,0.20741,0.35777,0.54892,0.35777,1.06123c0,0.27649-0.0239,0.47981-0.08952,0.65874
		c-0.0614,0.18294-0.17488,0.34155-0.34559,0.52452c-0.16675,0.18294-0.40263,0.39035-0.7197,0.67499l-0.77663,0.68719h2.07362
		v0.74815h-3.29348L93.04005,236.17793z"/>
	<path id="path804" inkscape:connector-curvature="0" fill="#FDBB3C" d="M59.47025,460.61896c0.22764,0,0.22764,0,0.7197-0.0611
		c0.23995-0.02951,0.44322-0.10565,0.57334-0.19122v-1.86636c-0.09785-0.06491-0.29282-0.11801-0.54086-0.13425
		c-0.51223-0.03662-0.51223-0.03662-0.74406-0.03662c-0.26025,0-0.44728,0.04868-0.56927,0.23575
		c-0.12201,0.18707-0.17892,0.35376-0.17892,0.89456c0,0.54895,0.05308,0.71155,0.17082,0.90674
		c0.11794,0.19504,0.30499,0.25198,0.56927,0.25198 M59.71426,463.14758c-0.28875,0-0.5978-0.01477-0.86209-0.03659
		c-0.26429-0.02066-0.49194-0.04486-0.62206-0.07318l0.08537-0.71564c0.19111,0.02948,0.43105,0.05283,0.67493,0.06906
		c0.24399,0.0177,0.50016,0.02359,0.71563,0.02359c0.43917,0,0.70346-0.02948,0.85803-0.20743
		c0.15446-0.17496,0.19923-0.49194,0.19923-1.07748v-0.15048c-0.12605,0.0853-0.34569,0.18295-0.66275,0.2399
		c-0.64246,0.11392-0.64246,0.11392-0.96369,0.11392c-0.21557,0-0.43104-0.02359-0.6181-0.12189
		c-0.18704-0.09766-0.35371-0.27649-0.46758-0.57333c-0.11794-0.29678-0.18704-0.56113-0.18704-1.1629
		c0-0.73599,0.1627-1.24832,0.41064-1.52887c0.24399-0.28058,0.56927-0.34152,0.90675-0.34152c0.3131,0,0.3131,0,0.95963,0.07315
		c0.30499,0.03247,0.54075,0.10977,0.65464,0.17877l0.16677-0.32529h0.64246v3.59851c0,0.77658-0.07705,1.28082-0.35381,1.58981
		c-0.27648,0.30902-0.75217,0.42694-1.53693,0.42694"/>
	<path id="path806" inkscape:connector-curvature="0" fill="#FDBB3C" d="M62.50351,457.53278h0.68316l0.12606,0.45947
		c0.16665-0.09738,0.37411-0.21954,0.61799-0.3212c0.24399-0.10181,0.54087-0.19122,0.84982-0.23575l0.0812,0.7807
		c-0.22777,0.02948-0.51641,0.0773-0.79288,0.14224c-0.28064,0.06906-0.54898,0.1546-0.71563,0.25198v2.83813H62.5033
		L62.50351,457.53278z"/>
	<path id="path808" inkscape:connector-curvature="0" fill="#FDBB3C" d="M66.50461,460.82227
		c0.21142,0,0.44728-0.0528,0.66276-0.12189c0.21545-0.06906,0.40252-0.15875,0.52857-0.22775v-0.88239
		c-0.48788,0-0.82535,0.0177-1.06528,0.04486c-0.244,0.02948-0.38629,0.06906-0.48392,0.12213
		c-0.0812,0.04868-0.12189,0.12598-0.14635,0.21954c-0.0239,0.09738-0.02803,0.20743-0.02803,0.30493
		c0,0.22369,0.04892,0.35785,0.13824,0.43506c0.08952,0.08115,0.21953,0.10565,0.3944,0.10565 M66.17159,461.50549
		c-0.26022,0-0.52453-0.06491-0.7197-0.24817c-0.19923-0.17877-0.32935-0.48386-0.32935-0.95963
		c0-0.47571,0.0812-0.80505,0.35777-0.96362c0.21558-0.12598,0.47581-0.19919,0.82546-0.2399
		c0.34965-0.04068,0.79287-0.04483,1.39056-0.04483v-0.17496c0-0.27649-0.0239-0.46759-0.12605-0.59363
		c-0.102-0.12598-0.28867-0.1788-0.60176-0.1788c-0.58958,0-1.05716,0.08145-1.33768,0.14224l-0.11794-0.70346
		c0.2439-0.04868,0.76028-0.1546,1.47591-0.1546c0.57334,0,0.96369,0.09351,1.20769,0.30493
		c0.23995,0.21539,0.33746,0.55707,0.33746,1.05719v2.69992h-0.67088l-0.12605-0.40665
		c-0.102,0.0611-0.30093,0.17877-0.57333,0.27649c-0.27241,0.10147-0.61395,0.18707-0.9921,0.18707"/>
	<path id="path810" inkscape:connector-curvature="0" fill="#FDBB3C" d="M68.96056,457.53278h0.89863
		c0.20734,0.53268,0.39847,1.01245,0.56512,1.4313c0.0687,0.17877,0.13824,0.3537,0.20734,0.52451
		c0.0687,0.17496,0.13013,0.32529,0.183,0.45947c0.05308,0.13425,0.09368,0.24402,0.12605,0.32529
		c0.03228,0.08527,0.04892,0.12598,0.04892,0.12598l1.10192-2.86661h0.79694l-2.17937,5.58276H69.8593l0.67493-1.72403
		L68.96056,457.53278z"/>
	<path id="path812" inkscape:connector-curvature="0" fill="#FDBB3C" d="M74.74664,461.52161
		c-0.27657,0-0.58958-0.02948-0.8621-0.06491c-0.27647-0.03662-0.51224-0.08527-0.64651-0.13428l0.10983-0.63837
		c0.11386,0.03247,0.34152,0.0773,0.6058,0.11801c0.26025,0.04068,0.55711,0.07315,0.8011,0.07315
		c0.37411,0,0.60583-0.03247,0.74406-0.11801c0.13824-0.08527,0.17892-0.23163,0.17892-0.45944
		c0-0.16675-0.03644-0.26822-0.1627-0.33749c-0.13013-0.06909-0.33746-0.11392-0.67899-0.1626
		c-0.618-0.08527-1.00428-0.16672-1.24016-0.33749c-0.23588-0.17087-0.31717-0.43506-0.31717-0.89456
		c0-0.43912,0.14231-0.72781,0.41064-0.91083c0.26846-0.17877,0.66692-0.25198,1.19956-0.25198
		c0.29677,0,0.60582,0.01477,0.87011,0.04068c0.26021,0.02359,0.47164,0.0611,0.58552,0.08942l-0.11794,0.6506
		c-0.13013-0.02066-0.36994-0.05283-0.62611-0.08145c-0.25617-0.02948-0.52858-0.04483-0.72781-0.04483
		c-0.29688,0-0.49205,0.02948-0.60999,0.10562c-0.11794,0.08142-0.16665,0.19916-0.16665,0.37814
		c0,0.19504,0.0406,0.30905,0.18703,0.37811c0.14635,0.06906,0.39847,0.10562,0.82128,0.1546
		c0.55305,0.06491,0.90675,0.15845,1.12222,0.33743c0.21557,0.1788,0.29282,0.43512,0.29282,0.83762
		c0,0.53674-0.15446,0.85797-0.44728,1.03687c-0.29688,0.18292-0.73999,0.23572-1.32551,0.23572"/>
	<path id="path814" inkscape:connector-curvature="0" fill="#FDBB3C" d="M78.93876,461.54196
		c-0.65464,0-1.1344-0.13013-1.45156-0.45541c-0.30905-0.32529-0.46353-0.84576-0.46353-1.62646
		c0-0.77661,0.15854-1.29303,0.47976-1.61832c0.32123-0.32529,0.80505-0.45535,1.46385-0.45535
		c0.21142,0,0.44719,0.02066,0.66276,0.04865c0.21142,0.02951,0.40659,0.06494,0.54076,0.09766l-0.14229,0.71155
		c-0.24805-0.0528-0.63434-0.12595-1.08163-0.12595c-0.3537,0-0.61799,0.04483-0.79287,0.23572
		c-0.17892,0.19122-0.26429,0.52048-0.26429,1.08566c0,0.56921,0.09368,0.91483,0.27241,1.11411
		c0.17892,0.19919,0.44728,0.26022,0.79693,0.26022c0.39034,0,0.78476-0.0611,1.07757-0.13809l0.15042,0.69125
		c-0.16665,0.04483-0.36994,0.08942-0.58551,0.12189c-0.21546,0.03244-0.44729,0.0528-0.66276,0.0528"/>
	<path id="path816" inkscape:connector-curvature="0" fill="#FDBB3C" d="M82.03716,460.82227
		c0.21142,0,0.44729-0.0528,0.66276-0.12189c0.21548-0.06906,0.40252-0.15875,0.52857-0.22775v-0.88239
		c-0.48788,0-0.82545,0.0177-1.06528,0.04486c-0.244,0.02948-0.38629,0.06906-0.48392,0.12213
		c-0.0812,0.04868-0.12198,0.12598-0.14635,0.21954c-0.0239,0.09738-0.02803,0.20743-0.02803,0.30493
		c0,0.22369,0.04892,0.35785,0.13824,0.43506c0.08952,0.08115,0.21954,0.10565,0.3944,0.10565 M81.70414,461.50549
		c-0.26022,0-0.52452-0.06491-0.7197-0.24817c-0.19934-0.17877-0.32945-0.48386-0.32945-0.95963
		c0-0.47571,0.0812-0.80505,0.35786-0.96362c0.21548-0.12598,0.47571-0.19919,0.82546-0.2399
		c0.34965-0.04068,0.79287-0.04483,1.39056-0.04483v-0.17496c0-0.27649-0.0239-0.46759-0.12605-0.59363
		c-0.102-0.12598-0.28867-0.1788-0.60176-0.1788c-0.58958,0-1.05716,0.08145-1.33779,0.14224l-0.11794-0.70346
		c0.244-0.04868,0.7604-0.1546,1.47604-0.1546c0.57333,0,0.96368,0.09351,1.20768,0.30493
		c0.23983,0.21539,0.33746,0.55707,0.33746,1.05719v2.69992h-0.67088l-0.12605-0.40665
		c-0.102,0.0611-0.30093,0.17877-0.57333,0.27649c-0.27241,0.10147-0.61404,0.18707-0.9921,0.18707"/>
	<path id="path818" inkscape:connector-curvature="0" fill="#FDBB3C" d="M84.96476,455.21106h0.84169v6.2374h-0.84169V455.21106z"/>
	<path id="path820" inkscape:connector-curvature="0" fill="#FDBB3C" d="M89.17718,459.03317
		c0-0.39441-0.06143-0.64655-0.2033-0.79697c-0.14635-0.15045-0.36588-0.20328-0.679-0.20328
		c-0.24399,0-0.4554,0.04868-0.60581,0.19919c-0.15051,0.15048-0.24805,0.3985-0.27657,0.80103L89.17718,459.03317z
		 M88.50224,461.54196c-0.67088,0-1.16292-0.13013-1.48415-0.45541c-0.32529-0.32529-0.47976-0.84576-0.47976-1.62646
		c0-0.80099,0.18703-1.32553,0.50422-1.65082c0.31716-0.3212,0.76028-0.44321,1.27669-0.44321
		c0.57334,0,1.00439,0.10977,1.28492,0.39844c0.28053,0.28857,0.42293,0.74817,0.42293,1.44351v0.3822h-2.63082
		c0,0.51636,0.10574,0.81729,0.29282,0.99619c0.18695,0.17877,0.46353,0.22778,0.82128,0.22778
		c0.19519,0,0.42699-0.01181,0.64246-0.03247c0.21142-0.02066,0.41886-0.05283,0.56522-0.08942l0.12605,0.69125
		c-0.13417,0.03659-0.35786,0.0773-0.60186,0.10562c-0.2439,0.03244-0.51225,0.0528-0.73999,0.0528"/>
	<path id="path1236" inkscape:connector-curvature="0" fill="#401B5C" d="M48.92278,438.32446
		c0.20734,0,0.39847-0.02066,0.5367-0.13425c0.14229-0.10977,0.2318-0.32126,0.2318-0.71161s-0.09368-0.60178-0.23588-0.71155
		c-0.14635-0.10977-0.34152-0.12598-0.54482-0.12598H47.9469v1.68338H48.92278z M47.03205,435.88483h1.89074
		c0.56106,0,0.98398,0.0773,1.26451,0.30905c0.28052,0.23575,0.41887,0.63434,0.41887,1.27267
		c0,0.64249-0.14647,1.04092-0.42699,1.28085c-0.28459,0.23575-0.71157,0.31717-1.26858,0.31717H47.9469v1.39462h-0.91486
		L47.03205,435.88483z"/>
	<path id="path1238" inkscape:connector-curvature="0" fill="#401B5C" d="M53.35483,439.75171
		c0.39441,0,0.68305-0.07315,0.87011-0.29269c0.19111-0.21954,0.27647-0.56927,0.27647-1.11819v-0.33749
		c0-0.54892-0.09368-0.90268-0.28459-1.11411c-0.19111-0.21158-0.48382-0.28473-0.87417-0.28473
		c-0.39441,0-0.6791,0.07315-0.87021,0.27649c-0.18704,0.21155-0.28052,0.56113-0.28052,1.11005v0.33749
		c0,0.54892,0.09368,0.90674,0.28867,1.12225c0.19111,0.21954,0.47986,0.30087,0.87427,0.30087 M53.34248,440.53238
		c-0.41481,0-0.79298-0.04486-1.10599-0.17087c-0.3131-0.13013-0.56116-0.34561-0.73198-0.69534
		c-0.17477-0.3537-0.2724-0.83353-0.2724-1.49631c0-0.65869,0.09785-1.13852,0.2724-1.49225
		c0.17082-0.3497,0.42699-0.56927,0.74416-0.69534c0.31311-0.13013,0.68711-0.17087,1.10598-0.17087
		c0.41471,0,0.78881,0.03659,1.10192,0.16672c0.3131,0.12598,0.56512,0.34155,0.73999,0.68716
		c0.17082,0.34967,0.26836,0.83356,0.26836,1.49225c0,0.65872-0.09368,1.14258-0.2724,1.49225
		c-0.17488,0.35373-0.43105,0.57333-0.74405,0.70749c-0.31717,0.13428-0.69128,0.17496-1.10599,0.17496"/>
	<path id="path1240" inkscape:connector-curvature="0" fill="#401B5C" d="M57.70557,440.50797
		c-0.34164,0-0.69128-0.03247-0.97587-0.06906c-0.28064-0.03662-0.50828-0.08145-0.61404-0.11392l0.14228-0.76849
		c0.0614,0.01477,0.19519,0.03659,0.36599,0.0611c0.16674,0.02948,0.366,0.05283,0.56116,0.07315
		c0.19111,0.02069,0.38223,0.03662,0.52857,0.03662c0.32529,0,0.5367-0.02359,0.67088-0.10562
		c0.13013-0.08145,0.17892-0.21539,0.17892-0.45541c0-0.21158-0.03225-0.32941-0.15863-0.41476
		c-0.12597-0.08527-0.34559-0.13425-0.72375-0.20743c-0.4147-0.08145-0.72781-0.15842-0.95546-0.26022
		c-0.2318-0.10181-0.37817-0.23166-0.47174-0.41882c-0.08952-0.18292-0.12606-0.42288-0.12606-0.75629
		c0-0.47571,0.15051-0.79697,0.43511-1.00027c0.2847-0.19919,0.69939-0.28061,1.21986-0.28061
		c0.27648,0,0.60987,0.02069,0.89863,0.05698c0.28459,0.03244,0.52452,0.06906,0.62612,0.10178l-0.14635,0.77258
		c-0.14228-0.02069-0.35777-0.05283-0.60581-0.08115c-0.23995-0.02359-0.52046-0.04868-0.78069-0.04868
		c-0.26429,0-0.44322,0.03247-0.55711,0.10562c-0.10971,0.07318-0.15854,0.19919-0.15854,0.38626
		c0,0.21539,0.03644,0.33344,0.15854,0.41882c0.12606,0.08527,0.33747,0.13425,0.70346,0.2074
		c0.39847,0.08115,0.71157,0.14639,0.94339,0.24405c0.23171,0.09766,0.39441,0.21951,0.50006,0.40256
		c0.102,0.18292,0.14231,0.431,0.14231,0.77658c0,0.51233-0.14231,0.84576-0.43906,1.0531
		c-0.29688,0.20743-0.74822,0.28473-1.36215,0.28473"/>
	<path id="path1242" inkscape:connector-curvature="0" fill="#401B5C" d="M88.53888,435.88483h0.91081l2.01273,2.91135v-2.91135
		h0.87823v4.57437h-0.78476l-2.13472-3.10651v3.10651h-0.88229V435.88483z"/>
	<path id="path1244" inkscape:connector-curvature="0" fill="#401B5C" d="M93.31651,435.88483h3.03741v0.80508h-2.12254v1.02057
		h1.67526v0.80505h-1.67526v1.15479h2.12254v0.78879h-3.03741V435.88483z"/>
	<path id="path1246" inkscape:connector-curvature="0" fill="#401B5C" d="M98.95624,440.52017
		c-0.41887,0-0.78476-0.04486-1.08569-0.17087c-0.30499-0.13013-0.54076-0.34155-0.6994-0.69119
		c-0.16258-0.34561-0.24795-0.82541-0.24795-1.48822c0-0.65869,0.08952-1.14258,0.25607-1.49225
		c0.1627-0.34564,0.40668-0.56113,0.71157-0.69122c0.30499-0.13013,0.67909-0.17087,1.10597-0.17087
		c0.37411,0,0.6791,0.02359,0.91903,0.0528c0.23576,0.02951,0.40252,0.06494,0.51225,0.08942l-0.13824,0.79697
		c-0.34559-0.06491-0.81723-0.13013-1.30521-0.13013c-0.41471,0-0.69118,0.08115-0.86198,0.29269
		c-0.17081,0.20743-0.23995,0.54895-0.23995,1.07346v0.33749c0,0.50827,0.06453,0.86606,0.23588,1.09381
		c0.17081,0.2319,0.45947,0.33749,0.90269,0.33749c0.28867,0,0.5367-0.03662,0.67493-0.05698v-1.56949h0.85387v2.19974
		c-0.10971,0.03247-0.30895,0.0773-0.58552,0.11392c-0.27241,0.04068-0.618,0.07315-1.00835,0.07315"/>
	
		<path id="path1320" inkscape:connector-curvature="0" fill="none" stroke="#FDBB3C" stroke-width="1.04092" stroke-miterlimit="28.34645" d="
		M53.28165,169.78651v42.12892"/>
	
		<path id="path1322" inkscape:connector-curvature="0" fill="none" stroke="#FDBB3C" stroke-width="1.04092" stroke-miterlimit="28.34645" d="
		M94.58924,169.78651v42.12892"/>
	
		<path id="path1324" inkscape:connector-curvature="0" fill="none" stroke="#FDBB3C" stroke-width="1.04092" stroke-miterlimit="11.33858" d="
		M73.94148,386.54663l5.96095-9.07553c0.45135-0.69122,1.49633-1.25232,2.32178-1.25232h12.26334"/>
	
		<path id="path1326" inkscape:connector-curvature="0" fill="none" stroke="#FDBB3C" stroke-width="1.04092" stroke-miterlimit="11.33858" d="
		M73.94148,345.23907l5.96095-9.07962c0.45135-0.68713,1.49633-1.25232,2.32178-1.25232h12.26334"/>
	
		<path id="path1328" inkscape:connector-curvature="0" fill="none" stroke="#FDBB3C" stroke-width="1.04092" stroke-miterlimit="11.33858" d="
		M73.94148,303.92743l5.96095-9.07553c0.45135-0.68719,1.49633-1.25232,2.32178-1.25232h12.26334"/>
	
		<path id="path1330" inkscape:connector-curvature="0" fill="none" stroke="#FDBB3C" stroke-width="1.04092" stroke-miterlimit="11.33858" d="
		M73.94148,262.61981l5.96095-9.07553c0.45135-0.69124,1.49633-1.25237,2.32178-1.25237h12.26334"/>
	
		<path id="path1332" inkscape:connector-curvature="0" fill="none" stroke="#FDBB3C" stroke-width="1.04092" stroke-miterlimit="11.33858" d="
		M73.94148,241.96402l-5.9649,9.07553c-0.45135,0.68719-1.49633,1.25232-2.31772,1.25232h-12.2675"/>
	
		<path id="path1334" inkscape:connector-curvature="0" fill="none" stroke="#FDBB3C" stroke-width="1.04092" stroke-miterlimit="11.33858" d="
		M73.94148,283.27158l-5.9649,9.07553c-0.45135,0.69125-1.49633,1.25238-2.31772,1.25238h-12.2675"/>
	
		<path id="path1336" inkscape:connector-curvature="0" fill="none" stroke="#FDBB3C" stroke-width="1.04092" stroke-miterlimit="11.33858" d="
		M73.94148,324.58322l-5.9649,9.07553c-0.45135,0.68719-1.49633,1.25238-2.31772,1.25238h-12.2675"/>
	
		<path id="path1338" inkscape:connector-curvature="0" fill="none" stroke="#FDBB3C" stroke-width="1.04092" stroke-miterlimit="11.33858" d="
		M73.94148,365.89084l-5.9649,9.07553c-0.45135,0.68719-1.49633,1.25238-2.31772,1.25238h-12.2675"/>
	<path id="path1364" inkscape:connector-curvature="0" fill="#FDBB3C" d="M68.01718,418.42493
		c0,8.1485-6.60737,14.75183-14.75593,14.75183c-8.14439,0-14.75176-6.60339-14.75176-14.75183
		c0-8.1485,6.60737-14.75592,14.75176-14.75592C61.40981,403.66901,68.01718,410.27643,68.01718,418.42493"/>
	<path id="path1366" inkscape:connector-curvature="0" fill="#FDBB3C" d="M109.34506,418.42493
		c0,8.1485-6.60736,14.75183-14.75582,14.75183c-8.14449,0-14.75186-6.60339-14.75186-14.75183
		c0-8.1485,6.60737-14.75592,14.75186-14.75592C102.7377,403.66901,109.34506,410.27643,109.34506,418.42493"/>
</g>
<g id="layer5" inkscape:groupmode="layer" inkscape:label="widgets" display="none">
	
		<circle id="circle67678" display="inline" fill-rule="evenodd" clip-rule="evenodd" fill="#FF0000" cx="63.541" cy="71.7138" r="12.12183"/>
	
		<circle id="path67332" display="inline" fill-rule="evenodd" clip-rule="evenodd" fill="#FF0000" cx="23.85155" cy="71.7138" r="12.12183"/>
	
		<circle id="circle67680" display="inline" fill-rule="evenodd" clip-rule="evenodd" fill="#FF0000" cx="23.85155" cy="151.08348" r="12.12183"/>
	
		<circle id="circle67682" display="inline" fill-rule="evenodd" clip-rule="evenodd" fill="#FF0000" cx="63.541" cy="151.08348" r="12.12183"/>
	
		<circle id="circle67684" display="inline" fill-rule="evenodd" clip-rule="evenodd" fill="#FF0000" cx="23.85155" cy="190.76796" r="12.12183"/>
	
		<circle id="circle67686" display="inline" fill-rule="evenodd" clip-rule="evenodd" fill="#FF0000" cx="63.541" cy="190.76796" r="12.12183"/>
	
		<circle id="circle67688" display="inline" fill-rule="evenodd" clip-rule="evenodd" fill="#FF0000" cx="23.85155" cy="230.45012" r="12.12183"/>
	
		<circle id="circle67690" display="inline" fill-rule="evenodd" clip-rule="evenodd" fill="#FF0000" cx="63.541" cy="230.45012" r="12.12183"/>
	
		<circle id="circle67692" display="inline" fill-rule="evenodd" clip-rule="evenodd" fill="#FF0000" cx="23.85155" cy="270.13815" r="12.12183"/>
	
		<circle id="circle67694" display="inline" fill-rule="evenodd" clip-rule="evenodd" fill="#FF0000" cx="63.541" cy="270.13815" r="12.12183"/>
	
		<circle id="circle67400" display="inline" fill-rule="evenodd" clip-rule="evenodd" fill="#FF00FF" cx="43.69725" cy="141.16551" r="3.5504"/>
	
		<circle id="circle67711" display="inline" fill-rule="evenodd" clip-rule="evenodd" fill="#FF00FF" cx="43.69725" cy="161.00871" r="3.5504"/>
	
		<circle id="circle67715" display="inline" fill-rule="evenodd" clip-rule="evenodd" fill="#FF00FF" cx="43.69725" cy="180.85054" r="3.5504"/>
	
		<circle id="circle67717" display="inline" fill-rule="evenodd" clip-rule="evenodd" fill="#FF00FF" cx="43.69725" cy="200.69373" r="3.5504"/>
	
		<circle id="circle67719" display="inline" fill-rule="evenodd" clip-rule="evenodd" fill="#FF00FF" cx="43.69725" cy="220.53662" r="3.5504"/>
	
		<circle id="circle67721" display="inline" fill-rule="evenodd" clip-rule="evenodd" fill="#FF00FF" cx="43.69725" cy="240.37981" r="3.5504"/>
	
		<circle id="circle67723" display="inline" fill-rule="evenodd" clip-rule="evenodd" fill="#FF00FF" cx="43.69725" cy="260.22409" r="3.5504"/>
	
		<circle id="circle67725" display="inline" fill-rule="evenodd" clip-rule="evenodd" fill="#FF00FF" cx="43.69725" cy="280.06729" r="3.5504"/>
	
		<circle id="circle67392" display="inline" fill-rule="evenodd" clip-rule="evenodd" fill="#00FF00" cx="23.8574" cy="309.8212" r="12.12183"/>
	
		<circle id="circle67742" display="inline" fill-rule="evenodd" clip-rule="evenodd" fill="#00FF00" cx="63.5449" cy="310.68451" r="12.12183"/>
	
		<circle id="circle67346" display="inline" fill-rule="evenodd" clip-rule="evenodd" fill="#0000FF" cx="63.53906" cy="111.40131" r="12.12183"/>
	
		<circle id="circle67759" display="inline" fill-rule="evenodd" clip-rule="evenodd" fill="#0000FF" cx="23.8574" cy="111.40131" r="12.12183"/>
</g>
</svg>
