<?xml version="1.0" encoding="UTF-8" standalone="no"?>
<!DOCTYPE svg PUBLIC "-//W3C//DTD SVG 1.1//EN" "http://www.w3.org/Graphics/SVG/1.1/DTD/svg11.dtd">
<svg width="151px" height="380px" version="1.1" xmlns="http://www.w3.org/2000/svg" xmlns:xlink="http://www.w3.org/1999/xlink" xml:space="preserve" xmlns:serif="http://www.serif.com/" style="fill-rule:evenodd;clip-rule:evenodd;">
    <g id="SFONDO">
        <rect id="rect5256" x="0.377" y="0.429" width="140.474" height="381.024" style="fill:#101010;"/>
    </g>
    <g id="LOGO">
        <g id="text3433">
            <path id="path3438" d="M22.641,357.017c0.016,0.034 0.04,0.093 0.073,0.178c0.016,0.051 0.024,0.094 0.024,0.128c0,0.085 -0.04,0.153 -0.121,0.204c-0.049,0.017 -0.089,0.026 -0.121,0.026c-0.065,0 -0.121,-0.042 -0.17,-0.127c-0.032,-0.085 -0.057,-0.136 -0.073,-0.153c0.097,-0.068 0.227,-0.153 0.389,-0.255c0.146,0.238 0.259,0.459 0.34,0.663c0.308,0.714 0.461,1.385 0.461,2.014c0,0.527 -0.113,1.028 -0.34,1.504c-0.486,1.003 -1.287,1.674 -2.404,2.014c-0.502,0.153 -0.988,0.229 -1.457,0.229c-0.567,0 -1.109,-0.11 -1.627,-0.331c-0.955,-0.425 -1.562,-1.147 -1.821,-2.167c-0.081,-0.306 -0.121,-0.603 -0.121,-0.892c0,-0.765 0.259,-1.512 0.777,-2.243c0.567,-0.85 1.376,-1.572 2.428,-2.167c0.826,-0.476 2.007,-0.952 3.545,-1.427c0.729,-0.221 1.441,-0.416 2.137,-0.586c0.971,-0.255 1.676,-0.399 2.113,-0.433c0.178,-0.017 0.38,-0.026 0.607,-0.026c0.453,0 0.979,0.026 1.578,0.077c1.182,0.102 1.846,0.17 1.991,0.204c1.166,0.204 2.25,0.722 3.254,1.555c1.036,0.85 1.813,1.81 2.331,2.88c0.55,1.173 0.882,2.388 0.996,3.645c0.032,0.34 0.049,0.773 0.049,1.3c0,0.765 -0.032,1.742 -0.097,2.931c-0.016,0.238 -0.032,0.586 -0.049,1.045c0,0.476 -0.008,0.824 -0.024,1.045c-0.065,1.342 -0.097,2.107 -0.097,2.294c0,0.731 0.081,1.461 0.243,2.192c0.146,0.663 0.324,1.13 0.534,1.402c0.356,0.425 0.842,0.688 1.457,0.79l0.194,0c0.291,0 0.801,-0.043 1.53,-0.128l0.049,0c0.113,0 0.17,0.068 0.17,0.204c0,0.17 -0.073,0.263 -0.219,0.28c-0.745,0.085 -1.23,0.128 -1.457,0.128l-0.073,0c-0.518,-0.034 -0.979,-0.178 -1.384,-0.433c-0.599,-0.374 -1.012,-1.079 -1.238,-2.116c-0.162,-0.697 -0.251,-1.325 -0.267,-1.886l0,-0.408c0,-0.408 0.016,-0.901 0.049,-1.478c0.032,-0.459 0.065,-1.062 0.097,-1.81c0.032,-0.884 0.057,-1.478 0.073,-1.784c0.032,-0.731 0.049,-1.393 0.049,-1.988c0,-0.935 -0.04,-1.682 -0.121,-2.243c-0.21,-1.309 -0.639,-2.481 -1.287,-3.518c-0.68,-1.088 -1.578,-1.963 -2.695,-2.626c-0.55,-0.323 -1.109,-0.561 -1.676,-0.714c-0.308,-0.085 -0.963,-0.161 -1.967,-0.229c-0.874,-0.085 -1.53,-0.128 -1.967,-0.128l-0.194,0c-0.583,0.017 -1.311,0.136 -2.186,0.357c-1.781,0.459 -3.173,0.884 -4.177,1.275c-1.279,0.493 -2.283,1.079 -3.011,1.759c-1.02,0.935 -1.554,1.886 -1.603,2.855l0,0.178c0,1.02 0.389,1.793 1.166,2.32c0.567,0.391 1.206,0.586 1.918,0.586c0.356,0 0.729,-0.051 1.117,-0.153c1.247,-0.323 2.064,-0.994 2.453,-2.014c0.146,-0.391 0.219,-0.782 0.219,-1.173c0,-0.765 -0.251,-1.555 -0.753,-2.371c-0.032,-0.051 -0.049,-0.102 -0.049,-0.153c0,-0.068 0.04,-0.119 0.121,-0.153c0.049,-0.034 0.097,-0.051 0.146,-0.051c0.065,0 0.121,0.034 0.17,0.102l-0,-0.001Zm3.035,-0.765c-0.988,0.051 -2.105,0.459 -3.351,1.224c-0.032,0.017 -0.065,0.026 -0.097,0.026c-0.081,0 -0.146,-0.042 -0.194,-0.127c-0.032,-0.051 -0.049,-0.102 -0.049,-0.153c0,-0.068 0.04,-0.119 0.121,-0.153c1.311,-0.816 2.477,-1.249 3.497,-1.3l0.17,0c1.117,0 1.991,0.45 2.623,1.351c0.518,0.731 0.818,1.691 0.898,2.88c0.016,0.17 0.024,0.331 0.024,0.484c0,0.476 -0.04,0.884 -0.121,1.224c-0.146,0.697 -0.389,1.207 -0.729,1.529c-0.291,0.272 -0.753,0.45 -1.384,0.535c-0.486,0.068 -1.036,0.187 -1.651,0.357c-2.04,0.544 -3.392,0.977 -4.055,1.3c-1.862,0.901 -2.93,1.444 -3.205,1.631c-0.874,0.578 -1.643,1.504 -2.307,2.778c-0.486,0.952 -0.729,1.937 -0.729,2.957c0,0.187 0.008,0.382 0.024,0.586c0.113,1.224 0.55,2.294 1.311,3.212c0.405,0.476 0.826,0.824 1.263,1.045c0.534,0.289 1.141,0.552 1.821,0.79c1.133,0.391 2.145,0.586 3.035,0.586c0.291,0 0.567,-0.017 0.826,-0.051c0.664,-0.102 1.263,-0.272 1.797,-0.51c0.486,-0.204 1.02,-0.544 1.603,-1.02c0.664,-0.51 1.198,-0.901 1.603,-1.173c0.631,-0.391 1.02,-0.773 1.166,-1.147c0.032,-0.085 0.081,-0.128 0.146,-0.128c0.049,0 0.097,0.017 0.146,0.051c0.097,0.051 0.146,0.128 0.146,0.229c0,0.034 -0.008,0.068 -0.024,0.102c-0.178,0.425 -0.607,0.85 -1.287,1.275c-0.389,0.255 -0.963,0.68 -1.724,1.275c-0.615,0.476 -1.214,0.833 -1.797,1.071c-0.615,0.238 -1.263,0.391 -1.943,0.459c-0.243,0.034 -0.486,0.051 -0.729,0.051c-0.939,0 -1.967,-0.204 -3.084,-0.612c-1.489,-0.527 -2.525,-1.113 -3.108,-1.759c-0.793,-0.884 -1.303,-1.929 -1.53,-3.135c-0.081,-0.442 -0.121,-0.884 -0.121,-1.325c0,-0.748 0.13,-1.478 0.389,-2.192c0.21,-0.544 0.486,-1.071 0.826,-1.58c0.437,-0.697 0.801,-1.19 1.093,-1.478c0.567,-0.561 1.554,-1.164 2.963,-1.81c0.13,-0.068 0.421,-0.213 0.874,-0.433c0.356,-0.17 0.639,-0.306 0.85,-0.408c0.583,-0.238 1.255,-0.459 2.016,-0.663c0.21,-0.068 0.55,-0.162 1.02,-0.28c0.453,-0.119 0.793,-0.212 1.02,-0.28c0.194,-0.051 0.453,-0.102 0.777,-0.153c0.421,-0.068 0.68,-0.111 0.777,-0.128c0.34,-0.068 0.583,-0.153 0.729,-0.255c0.178,-0.136 0.34,-0.34 0.486,-0.612c0.243,-0.493 0.364,-1.079 0.364,-1.759c-0.016,-1.258 -0.235,-2.252 -0.656,-2.982c-0.55,-0.935 -1.336,-1.402 -2.356,-1.402l-0.17,0l-0,-0.001Zm4.322,19.729c-0.194,-0.357 -0.332,-0.578 -0.413,-0.663c-0.049,-0.051 -0.073,-0.102 -0.073,-0.153c0,-0.051 0.032,-0.11 0.097,-0.178c0.049,-0.068 0.097,-0.102 0.146,-0.102c0.065,0 0.121,0.034 0.17,0.102c0.113,0.136 0.259,0.365 0.437,0.688c0.162,0.323 0.308,0.552 0.437,0.688c0.356,0.391 0.769,0.705 1.238,0.943c0.842,0.459 1.87,0.722 3.084,0.79l0.51,0c0.971,0 1.935,-0.119 2.89,-0.357c0.729,-0.187 1.279,-0.391 1.651,-0.612c0.615,-0.34 1.06,-0.518 1.336,-0.535c0.146,0 0.219,0.076 0.219,0.229c0,0.17 -0.073,0.255 -0.219,0.255l-1.384,0.612c-0.502,0.238 -1.109,0.433 -1.821,0.586c-0.874,0.204 -1.74,0.306 -2.598,0.306c-0.275,0 -0.542,-0.009 -0.801,-0.026c-1.279,-0.102 -2.339,-0.391 -3.181,-0.867c-0.502,-0.289 -0.915,-0.62 -1.238,-0.994c-0.21,-0.221 -0.372,-0.459 -0.486,-0.714l0,0Zm11.243,-0.306c-0.243,-0.731 -0.372,-1.173 -0.389,-1.325l0,-0.051c0,-0.119 0.073,-0.178 0.219,-0.178c0.146,0 0.227,0.076 0.243,0.229c0,0.034 0.008,0.068 0.024,0.102c0.016,0.051 0.032,0.094 0.049,0.128c0.016,0.102 0.049,0.229 0.097,0.382c0.13,0.425 0.219,0.714 0.267,0.867c0.13,0.442 0.194,0.782 0.194,1.02c0,0.136 -0.024,0.238 -0.073,0.306c-0.049,0.068 -0.105,0.102 -0.17,0.102c-0.049,0 -0.097,-0.026 -0.146,-0.077c-0.065,-0.068 -0.097,-0.128 -0.097,-0.178c0,-0.068 0.024,-0.128 0.073,-0.178c-0.016,0.017 -0.024,0.034 -0.024,0.051l0,-0.128c0,-0.068 -0.016,-0.162 -0.049,-0.28c-0.049,-0.187 -0.121,-0.45 -0.219,-0.79l0,-0.001Zm-12.433,-9.686c-0.081,-0.068 -0.121,-0.136 -0.121,-0.204c0,-0.051 0.016,-0.102 0.049,-0.153c0.049,-0.085 0.105,-0.127 0.17,-0.127c0.032,0 0.073,0.017 0.121,0.051c0.097,0.085 0.154,0.263 0.17,0.535c0.016,0.102 0.024,0.229 0.024,0.382c0,0.136 -0.008,0.306 -0.024,0.51c0,0.425 -0.024,1.156 -0.073,2.192c-0.016,0.391 -0.024,0.62 -0.024,0.688l-0.17,1.988c-0.097,1.02 -0.154,1.733 -0.17,2.141c0,0.153 -0.073,0.229 -0.219,0.229c-0.162,0 -0.243,-0.076 -0.243,-0.229c0.016,-0.544 0.081,-1.325 0.194,-2.345c0.097,-1.054 0.154,-1.835 0.17,-2.345c0.049,-1.292 0.073,-1.988 0.073,-2.09c0.016,-0.204 0.024,-0.382 0.024,-0.535c0,-0.153 -0.008,-0.28 -0.024,-0.382l0,-0.382l0.073,0.077l0,-0.001Zm-1.894,0.867c0.777,-0.374 1.368,-0.697 1.773,-0.969c0.049,-0.034 0.097,-0.051 0.146,-0.051c0.065,0 0.113,0.043 0.146,0.128c0.032,0.051 0.049,0.102 0.049,0.153c0,0.068 -0.032,0.128 -0.097,0.178c-0.372,0.238 -0.793,0.476 -1.263,0.714c-1.765,0.884 -2.865,1.555 -3.303,2.014c-0.939,0.952 -1.408,1.963 -1.408,3.033l0,0.204c0.032,0.663 0.227,1.173 0.583,1.529c0.372,0.357 0.818,0.586 1.336,0.688c0.243,0.051 0.486,0.077 0.729,0.077c0.324,0 0.648,-0.051 0.971,-0.153c0.13,-0.051 0.696,-0.323 1.7,-0.816c0.032,-0.017 0.065,-0.026 0.097,-0.026c0.081,0 0.154,0.051 0.219,0.153c0.032,0.051 0.049,0.093 0.049,0.127c0,0.068 -0.049,0.128 -0.146,0.178c-1.408,0.68 -2.38,1.02 -2.914,1.02c-1.182,0 -2.056,-0.416 -2.623,-1.249c-0.34,-0.493 -0.51,-1.037 -0.51,-1.631c0,-0.527 0.13,-1.096 0.389,-1.708c0.469,-1.105 1.23,-1.988 2.283,-2.651c0.34,-0.221 0.939,-0.535 1.797,-0.943l0,0.001Zm-10.175,8.922c1.117,1.241 1.821,2.133 2.113,2.676l0,0.026c0,0.034 -0.008,0.06 -0.024,0.077l-0.097,0c-0.194,-0.204 -0.421,-0.476 -0.68,-0.816c-0.356,-0.493 -0.567,-0.782 -0.631,-0.867c-0.567,-0.697 -0.988,-1.181 -1.263,-1.453c-0.032,-0.017 -0.105,-0.077 -0.219,-0.178c-0.113,-0.102 -0.21,-0.187 -0.291,-0.255c-0.194,-0.204 -0.291,-0.365 -0.291,-0.484l0,-0.051c0.016,-0.034 0.04,-0.051 0.073,-0.051l0.097,0c0.032,0.017 0.049,0.034 0.049,0.051c0,0.017 -0.016,0.034 -0.049,0.051c0,0.017 0.008,0.034 0.024,0.051c0.049,0.051 0.089,0.093 0.121,0.127c0.113,0.119 0.219,0.221 0.316,0.306c0.308,0.306 0.559,0.569 0.753,0.79l-0,-0.001Zm4.274,3.212c0.032,0.017 0.049,0.043 0.049,0.077c0,0.034 -0.016,0.068 -0.049,0.102c-0.016,0.017 -0.04,0.026 -0.073,0.026c-0.016,0 -0.04,-0.009 -0.073,-0.026c-1.376,-1.427 -2.477,-2.719 -3.303,-3.875c-0.308,-0.442 -0.785,-1.045 -1.433,-1.81c-0.567,-0.663 -0.915,-1.122 -1.044,-1.376l0,-0.102l0.024,0c0.016,0 0.032,0.009 0.049,0.026c3.902,4.622 5.852,6.942 5.852,6.959l-0,-0.001Zm-5.488,-8.386c3.044,2.804 5.682,5.531 7.916,8.182c0.032,0.034 0.049,0.068 0.049,0.102c0,0.017 -0.016,0.043 -0.049,0.077c-0.032,0.034 -0.065,0.051 -0.097,0.051c-0.016,0 -0.04,-0.017 -0.073,-0.051c-1.085,-1.258 -3.683,-4.019 -7.795,-8.284c-0.016,-0.017 -0.024,-0.034 -0.024,-0.051c0,-0.017 0.008,-0.026 0.024,-0.026l0.024,-0.026c0.016,0 0.024,0.009 0.024,0.026l-0,0Zm6.168,4.257c1.247,1.546 2.323,2.923 3.23,4.129c0.032,0.034 0.049,0.068 0.049,0.102c0,0.017 -0.016,0.043 -0.049,0.077c-0.032,0.034 -0.065,0.051 -0.097,0.051c-0.016,0 -0.04,-0.017 -0.073,-0.051c-2.768,-3.603 -4.671,-5.905 -5.707,-6.908c-1.052,-1.037 -1.781,-1.81 -2.186,-2.32c-0.469,-0.595 -0.704,-1.02 -0.704,-1.275c0,-0.051 0.008,-0.093 0.024,-0.127c0.016,-0.017 0.032,-0.026 0.049,-0.026l0.024,0c0.032,0.017 0.049,0.034 0.049,0.051l0,0.077c0,0.17 0.105,0.399 0.316,0.688c0.227,0.306 0.534,0.663 0.923,1.071c0.405,0.459 1.093,1.156 2.064,2.09c0.518,0.51 1.214,1.3 2.088,2.371l-0,-0Zm-0.121,-2.269c1.765,1.614 3.262,3.518 4.492,5.71c0.016,0.017 0.024,0.043 0.024,0.077c0,0.034 -0.024,0.068 -0.073,0.102c-0.016,0.017 -0.04,0.026 -0.073,0.026c-0.032,0 -0.065,-0.026 -0.097,-0.077c-1.279,-2.26 -2.882,-4.257 -4.808,-5.99c-2.364,-2.141 -3.756,-3.739 -4.177,-4.792l-0.024,0l0,-0.051c0,-0.034 0.016,-0.06 0.049,-0.077l0.049,0c0.016,0 0.032,0.009 0.049,0.026l0.024,0l0,0.026c0.016,0.017 0.024,0.034 0.024,0.051c0.081,0.153 0.178,0.28 0.291,0.382c0.016,0.017 0.024,0.034 0.024,0.051c-0.016,0.017 -0.04,0.026 -0.073,0.026c0.421,0.748 1.854,2.252 4.298,4.512l-0,-0.002Zm3.521,1.937c0.939,0.884 1.603,1.733 1.991,2.549l0,0.051c0,0.034 -0.008,0.06 -0.024,0.077c-0.016,0.017 -0.04,0.026 -0.073,0.026c-0.016,0 -0.032,-0.009 -0.049,-0.026c-0.146,-0.17 -0.316,-0.399 -0.51,-0.688c-0.259,-0.374 -0.429,-0.603 -0.51,-0.688c-0.113,-0.136 -0.429,-0.527 -0.947,-1.173c-0.016,-0.017 -0.024,-0.034 -0.024,-0.051c0,-0.034 0.008,-0.06 0.024,-0.077c0.016,-0.017 0.032,-0.026 0.049,-0.026c0.032,0 0.057,0.009 0.073,0.026l0,-0Zm3.06,1.376c0.259,0.289 0.397,0.442 0.413,0.459c0.016,0.017 0.024,0.034 0.024,0.051c0,0.017 -0.008,0.034 -0.024,0.051c-0.016,0.017 -0.04,0.026 -0.073,0.026l-0.024,0c-0.113,-0.017 -0.389,-0.272 -0.826,-0.765c-0.437,-0.51 -0.656,-0.782 -0.656,-0.816l-0.073,0c-0.016,-0.017 -0.024,-0.034 -0.024,-0.051l0,-0.026c0.016,-0.034 0.04,-0.051 0.073,-0.051c0.097,0 0.291,0.153 0.583,0.459c0.065,0.068 0.162,0.179 0.291,0.331c0.13,0.136 0.235,0.246 0.316,0.331l0,-0Zm0.753,-1.555c0.113,0.136 0.389,0.391 0.826,0.765c0.032,0.017 0.049,0.043 0.049,0.077c0,0.017 -0.008,0.034 -0.024,0.051c-0.016,0.034 -0.049,0.051 -0.097,0.051l-0.024,0c-0.259,-0.068 -0.542,-0.297 -0.85,-0.688c-0.356,-0.476 -0.583,-0.79 -0.68,-0.943l0,-0.026c0,-0.034 0.008,-0.06 0.024,-0.077c0.016,-0.017 0.032,-0.026 0.049,-0.026c0.016,0 0.032,0.009 0.049,0.026c0.065,0.051 0.291,0.314 0.68,0.79l0,0Zm-7.285,-3.39c0.518,0.442 0.809,0.714 0.874,0.816l0,0.026c0,0.017 -0.008,0.034 -0.024,0.051c-0.016,0.017 -0.032,0.026 -0.049,0.026l-0.024,0c-0.113,-0.051 -0.518,-0.382 -1.214,-0.994c-0.664,-0.544 -1.174,-1.003 -1.53,-1.376c-0.567,-0.544 -0.963,-0.977 -1.19,-1.3c-0.259,-0.357 -0.389,-0.637 -0.389,-0.841c0,-0.051 0.008,-0.093 0.024,-0.127c0.016,-0.017 0.032,-0.026 0.049,-0.026c0.032,0 0.057,0.009 0.073,0.026c0.227,0.68 0.89,1.512 1.991,2.498c0.34,0.306 0.809,0.714 1.408,1.224l0,-0.001Zm-2.161,-4.971c0.13,0.255 1.408,1.716 3.837,4.384c0.032,0.034 0.049,0.06 0.049,0.077c0,0.034 -0.008,0.06 -0.024,0.077c-0.016,0.017 -0.04,0.026 -0.073,0.026c-0.032,0 -0.065,-0.009 -0.097,-0.026c-0.89,-0.782 -1.667,-1.538 -2.331,-2.269c-0.939,-1.003 -1.433,-1.75 -1.481,-2.243c0,-0.017 0.016,-0.034 0.049,-0.051c0.032,0 0.057,0.009 0.073,0.026l0,-0.001Zm2.744,1.224c0.712,0.68 1.166,1.241 1.36,1.682l0,0.051c0,0.034 -0.016,0.06 -0.049,0.077c-0.016,0.017 -0.032,0.026 -0.049,0.026c-0.016,0 -0.04,-0.017 -0.073,-0.051c-0.518,-0.731 -1.052,-1.351 -1.603,-1.861c-0.615,-0.595 -1.004,-0.994 -1.166,-1.198l-0.024,0c-0.065,-0.068 -0.113,-0.136 -0.146,-0.204c-0.016,-0.017 -0.024,-0.034 -0.024,-0.051c0,-0.017 0.008,-0.026 0.024,-0.026c0.032,-0.017 0.057,-0.026 0.073,-0.026c0.016,0 0.024,0.009 0.024,0.026c0.178,0.17 0.453,0.425 0.826,0.765c0.372,0.34 0.648,0.603 0.826,0.79l-0,-0Zm1.7,0.127c0.356,0.425 0.55,0.688 0.583,0.79c0.016,0.017 0.024,0.034 0.024,0.051c0,0.034 -0.016,0.06 -0.049,0.077c-0.016,0.017 -0.032,0.026 -0.049,0.026c-0.016,0 -0.04,-0.017 -0.073,-0.051l-1.384,-1.682c-0.34,-0.408 -0.631,-0.739 -0.874,-0.994l-0.437,-0.51l-0.024,0c-0.016,0 -0.032,-0.009 -0.049,-0.026l0,-0.051c0,-0.017 0.008,-0.026 0.024,-0.026c0.016,-0.017 0.04,-0.026 0.073,-0.026c0.13,0 0.332,0.153 0.607,0.459c0.097,0.119 0.219,0.263 0.364,0.433l0.219,0.28c0.372,0.425 0.72,0.841 1.044,1.249l-0,0.001Zm0.996,-1.351c0.534,0.544 0.971,0.986 1.311,1.325c0.016,0.017 0.024,0.043 0.024,0.077c0,0.017 -0.008,0.034 -0.024,0.051c-0.016,0.034 -0.04,0.051 -0.073,0.051c-0.016,0 -0.032,-0.009 -0.049,-0.026c-0.729,-0.527 -1.595,-1.419 -2.598,-2.676c-0.016,-0.034 -0.024,-0.06 -0.024,-0.077c0,-0.017 0.008,-0.034 0.024,-0.051c0.016,-0.017 0.032,-0.026 0.049,-0.026c0.016,0 0.032,0.009 0.049,0.026c0.162,0.17 0.599,0.612 1.311,1.325l0,0Zm1.141,-0.484c0.729,0.697 1.093,1.054 1.093,1.071c0.016,0 0.024,0.009 0.024,0.026c0,0.017 -0.008,0.034 -0.024,0.051c-0.016,0.034 -0.032,0.051 -0.049,0.051c-0.016,0 -0.032,-0.009 -0.049,-0.026c-0.308,-0.204 -0.72,-0.578 -1.238,-1.122c-0.486,-0.51 -0.801,-0.943 -0.947,-1.3c-0.016,-0.017 -0.024,-0.034 -0.024,-0.051c0,-0.017 0.016,-0.034 0.049,-0.051c0.016,-0.017 0.032,-0.026 0.049,-0.026c0.016,0 0.032,0.017 0.049,0.051c0.227,0.408 0.583,0.85 1.068,1.325l0,0Zm1.627,-0.535c0.405,0.34 0.664,0.595 0.777,0.765l0,0.026c0,0.034 -0.008,0.06 -0.024,0.077c-0.016,0.017 -0.032,0.026 -0.049,0.026c-0.016,0 -0.032,-0.009 -0.049,-0.026c-0.178,-0.119 -0.712,-0.578 -1.603,-1.376c-0.194,-0.153 -0.372,-0.365 -0.534,-0.637l0,-0.026c0,-0.034 0.008,-0.06 0.024,-0.077l0.024,-0.026c0.016,0 0.032,0.009 0.049,0.026c0.065,0.051 0.162,0.153 0.291,0.306c0.113,0.136 0.21,0.229 0.291,0.28c0.016,0 0.283,0.221 0.801,0.663l-0,-0Zm3.278,9.89c0.113,0.119 0.988,1.172 2.623,3.161c0.032,0.017 0.049,0.043 0.049,0.077c0,0.034 -0.016,0.068 -0.049,0.102c-0.016,0.017 -0.04,0.026 -0.073,0.026c-0.016,0 -0.04,-0.009 -0.073,-0.026c-1.7,-2.073 -2.623,-3.178 -2.768,-3.314c-1.279,-1.241 -1.999,-2.056 -2.161,-2.447c-0.016,-0.017 -0.024,-0.034 -0.024,-0.051c0,-0.034 0.016,-0.06 0.049,-0.077l0.049,0c0.016,0 0.032,0.009 0.049,0.026c0.097,0.187 0.874,1.028 2.331,2.524l0,-0Zm1.748,-0.535c1.603,1.495 2.728,2.761 3.375,3.798c0.016,0.017 0.024,0.034 0.024,0.051c0,0.034 -0.016,0.06 -0.049,0.077c-0.032,0.017 -0.057,0.026 -0.073,0.026c-0.032,0 -0.065,-0.017 -0.097,-0.051c-0.923,-1.275 -2.08,-2.558 -3.473,-3.849c-1.991,-1.869 -3.189,-3.059 -3.594,-3.569l0,-0.077c0.016,-0.017 0.032,-0.026 0.049,-0.026c0.016,0 0.032,0.009 0.049,0.026c0.583,0.561 1.846,1.759 3.788,3.594l-0,-0Zm2.307,0.816c1.068,1.19 1.918,2.192 2.55,3.008c0.016,0.034 0.024,0.06 0.024,0.077c0,0.034 -0.016,0.068 -0.049,0.102c-0.016,0.017 -0.04,0.026 -0.073,0.026c-0.016,0 -0.04,-0.009 -0.073,-0.026c-1.02,-1.292 -2.639,-3.161 -4.857,-5.608c-0.583,-0.629 -1.384,-1.385 -2.404,-2.269c-0.113,-0.102 -0.348,-0.331 -0.704,-0.688c-0.291,-0.272 -0.437,-0.433 -0.437,-0.484c0,0.017 -0.016,0.034 -0.049,0.051c-0.032,0 -0.049,-0.009 -0.049,-0.026c-0.016,-0.034 -0.024,-0.06 -0.024,-0.077c0,-0.034 0.016,-0.06 0.049,-0.077l0.024,0c0.13,0 0.316,0.119 0.559,0.357c0.065,0.068 0.154,0.17 0.267,0.306c0.113,0.119 0.186,0.195 0.219,0.229c0.146,0.119 0.526,0.45 1.141,0.994c0.469,0.408 0.842,0.756 1.117,1.045c0.049,0.051 0.971,1.071 2.768,3.059l-0,0Zm-0.971,-3.365c2.655,2.651 4.379,4.452 5.172,5.404c0.032,0.017 0.049,0.043 0.049,0.077c0,0.034 -0.016,0.068 -0.049,0.102c-0.016,0.017 -0.04,0.026 -0.073,0.026c-0.016,0 -0.04,-0.009 -0.073,-0.026c-2.445,-2.6 -4.169,-4.401 -5.172,-5.404c-2.347,-2.345 -4.08,-4.155 -5.197,-5.429c-0.016,-0.017 -0.024,-0.034 -0.024,-0.051c0,-0.017 0.008,-0.034 0.024,-0.051c0.016,-0.017 0.032,-0.026 0.049,-0.026c0.016,0 0.032,0.009 0.049,0.026c1.117,1.207 2.865,2.991 5.245,5.353l-0,-0Zm5.731,4.18c0.34,0.374 0.631,0.671 0.874,0.892c0.032,0.017 0.049,0.043 0.049,0.077c0,0.017 -0.016,0.043 -0.049,0.077c-0.032,0.034 -0.065,0.051 -0.097,0.051c-0.016,0 -0.04,-0.009 -0.073,-0.026c-0.437,-0.391 -1.149,-1.181 -2.137,-2.371c-0.016,-0.017 -0.024,-0.034 -0.024,-0.051c0,-0.034 0.008,-0.06 0.024,-0.077c0.016,-0.017 0.032,-0.026 0.049,-0.026c0.032,0 0.057,0.009 0.073,0.026l0.219,0.229c-0.032,-0.017 0.089,0.042 0.364,0.178c0.016,0.017 0.024,0.043 0.024,0.077c-0.016,0.017 -0.04,0.026 -0.073,0.026c-0.016,-0.017 -0.04,-0.026 -0.073,-0.026c0.081,0.068 0.364,0.382 0.85,0.943l-0,0Zm1.36,-0.331c0,0.034 -0.008,0.06 -0.024,0.077c-0.016,0.017 -0.032,0.026 -0.049,0.026c-0.016,0 -0.032,-0.009 -0.049,-0.026c-0.178,-0.136 -0.518,-0.552 -1.02,-1.249c-0.016,-0.017 -0.024,-0.034 -0.024,-0.051c0,-0.034 0.016,-0.06 0.049,-0.077c0.016,-0.017 0.032,-0.026 0.049,-0.026c0.032,0 0.057,0.017 0.073,0.051c0.016,0.017 0.186,0.23 0.51,0.637c0.308,0.408 0.469,0.612 0.486,0.612l0,0.026l0,0Zm-6.508,-5.404c0.971,0.901 1.684,1.674 2.137,2.32c0.016,0.017 0.024,0.034 0.024,0.051c0,0.034 -0.016,0.06 -0.049,0.077c-0.032,0.017 -0.057,0.026 -0.073,0.026c-0.032,0 -0.057,-0.009 -0.073,-0.026c-0.486,-0.646 -1.247,-1.444 -2.283,-2.396c-0.583,-0.561 -1.311,-1.317 -2.186,-2.269c-0.405,-0.476 -1.141,-1.215 -2.21,-2.218c-0.988,-0.918 -1.724,-1.665 -2.21,-2.243l0,-0.026c0,-0.034 0.008,-0.06 0.024,-0.077l0.024,-0.026c0.016,0 0.032,0.009 0.049,0.026c0.389,0.408 1.166,1.156 2.331,2.243c0.988,0.918 1.748,1.691 2.283,2.32c0.356,0.425 1.093,1.164 2.21,2.218l-0,0Zm-0.583,-2.09c1.004,1.258 1.862,2.218 2.574,2.88c0.032,0.034 0.049,0.06 0.049,0.077c0,0.034 -0.008,0.06 -0.024,0.077c-0.032,0.034 -0.065,0.051 -0.097,0.051c-0.032,0 -0.057,-0.009 -0.073,-0.026c-0.599,-0.527 -1.408,-1.427 -2.428,-2.702c-1.004,-1.258 -1.813,-2.15 -2.428,-2.676c-1.133,-1.003 -1.821,-1.623 -2.064,-1.861c-0.615,-0.612 -0.923,-1.037 -0.923,-1.275l0,-0.026c0,-0.034 0.016,-0.051 0.049,-0.051l0.024,0c0.016,0 0.032,0.009 0.049,0.026c0.065,0.289 0.502,0.799 1.311,1.529c0.227,0.187 0.559,0.467 0.996,0.841c0.453,0.391 0.785,0.68 0.996,0.867c0.389,0.357 1.052,1.113 1.991,2.269l-0,0Zm-1.311,-3.288c0.907,0.918 2.25,2.405 4.031,4.461c0.016,0.034 0.024,0.06 0.024,0.077c0,0.051 -0.016,0.094 -0.049,0.128c-0.016,0.017 -0.04,0.026 -0.073,0.026c-0.016,0 -0.04,-0.009 -0.073,-0.026c-2.428,-2.736 -3.813,-4.282 -4.152,-4.639c-2.234,-2.141 -3.497,-3.433 -3.788,-3.875c-0.016,-0.017 -0.024,-0.034 -0.024,-0.051c0,-0.017 0.008,-0.026 0.024,-0.026l0.024,0c0.016,0 0.032,0.009 0.049,0.026c0.437,0.612 1.077,1.291 1.918,2.039c1.247,1.088 1.943,1.708 2.088,1.861l-0,-0Zm3.861,1.937c0.275,0.051 0.486,0.17 0.631,0.357c0.016,0.017 0.024,0.034 0.024,0.051c0,0.017 -0.008,0.034 -0.024,0.051c-0.016,0.034 -0.032,0.051 -0.049,0.051l-0.024,0l-0.437,-0.28l-0.073,-0.026l0,0.026c0,0.051 -0.024,0.085 -0.073,0.102l-0.024,0c-0.049,0 -0.081,-0.026 -0.097,-0.077c-0.243,-0.646 -0.737,-1.317 -1.481,-2.014c-0.178,-0.153 -0.494,-0.433 -0.947,-0.841c-0.405,-0.34 -0.712,-0.612 -0.923,-0.816c-2.428,-2.43 -3.918,-3.993 -4.468,-4.69c-0.016,-0.017 -0.024,-0.034 -0.024,-0.051c0,-0.017 0.008,-0.034 0.024,-0.051c0.032,-0.034 0.057,-0.051 0.073,-0.051c0.016,0 0.032,0.017 0.049,0.051c0.615,0.731 1.425,1.58 2.428,2.549c0.194,0.17 0.575,0.544 1.141,1.122c0.469,0.476 0.85,0.85 1.141,1.122c1.392,1.275 2.048,1.869 1.967,1.784c0.615,0.629 1.004,1.173 1.166,1.631l0,-0Zm-2.865,-5.914c0.615,0.816 1.068,1.376 1.36,1.682c-0.016,0 0.38,0.357 1.19,1.071c0.486,0.425 0.793,0.85 0.923,1.275c0.016,0.017 0.024,0.034 0.024,0.051c0,0.034 -0.024,0.06 -0.073,0.077c-0.032,0.017 -0.057,0.026 -0.073,0.026c-0.032,0 -0.057,-0.017 -0.073,-0.051c-0.21,-0.442 -0.599,-0.918 -1.166,-1.427c-0.712,-0.646 -1.149,-1.071 -1.311,-1.275c-1.473,-1.869 -2.347,-2.94 -2.623,-3.212l-5.512,-5.276c-0.016,0 -0.024,-0.009 -0.024,-0.026c-0.016,0 -0.024,-0.017 -0.024,-0.051l-0.194,-0.28l0,-0.051c0.016,-0.034 0.04,-0.051 0.073,-0.051l0.049,0c0.032,0.017 0.057,0.043 0.073,0.077l0.024,0.077c0.858,1.037 1.797,2.005 2.817,2.906c1.846,1.597 2.898,2.524 3.157,2.778c0.372,0.374 0.834,0.935 1.384,1.682l-0,-0Zm-1.093,-3.084c2.121,2.158 3.562,3.866 4.322,5.124c0.016,0.017 0.024,0.043 0.024,0.077c0,0.034 -0.024,0.06 -0.073,0.077c-0.032,0.017 -0.057,0.026 -0.073,0.026c-0.032,0 -0.057,-0.017 -0.073,-0.051c-1.279,-1.903 -2.801,-3.688 -4.565,-5.353c-0.259,-0.255 -0.631,-0.586 -1.117,-0.994c-0.567,-0.476 -0.947,-0.799 -1.141,-0.969c-0.874,-0.782 -1.514,-1.529 -1.918,-2.243l0,-0.026c0,-0.034 0.008,-0.06 0.024,-0.077l0.024,0c0.016,0 0.032,0.009 0.049,0.026c0.486,0.663 1.206,1.419 2.161,2.269c1.328,1.156 2.113,1.861 2.356,2.116l-0,-0Zm1.093,-0.535c1.813,2.005 2.817,3.084 3.011,3.237c0.032,0.034 0.049,0.068 0.049,0.102c0,0.017 -0.008,0.034 -0.024,0.051c-0.032,0.051 -0.065,0.077 -0.097,0.077c-0.016,0 -0.032,-0.009 -0.049,-0.026c-0.081,-0.068 -1.101,-1.164 -3.06,-3.288c-0.583,-0.629 -1.854,-1.827 -3.813,-3.594c-0.016,-0.017 -0.024,-0.034 -0.024,-0.051c0,-0.017 0.008,-0.034 0.024,-0.051c0.016,-0.017 0.032,-0.026 0.049,-0.026c0.016,0 0.032,0.009 0.049,0.026c2.007,1.716 3.303,2.897 3.885,3.543l0,0Zm0.51,-1.045c1.052,0.918 1.748,1.623 2.088,2.116l0,0.051c0,0.034 -0.008,0.06 -0.024,0.077c-0.016,0.017 -0.04,0.026 -0.073,0.026c-0.016,0 -0.032,-0.009 -0.049,-0.026c-0.971,-1.02 -1.667,-1.708 -2.088,-2.065c-1.376,-1.207 -2.105,-1.844 -2.186,-1.912l0,-0.102c0.016,-0.034 0.032,-0.051 0.049,-0.051c0.016,0 0.032,0.009 0.049,0.026c0.696,0.544 1.441,1.164 2.234,1.861l0,-0Zm-8.621,-0.918c0.13,0.153 0.227,0.272 0.291,0.357c0.016,0.017 0.024,0.034 0.024,0.051c0,0.017 -0.008,0.043 -0.024,0.077c-0.016,0.034 -0.04,0.051 -0.073,0.051c-0.016,0 -0.032,-0.009 -0.049,-0.026c-0.146,-0.102 -0.356,-0.331 -0.631,-0.688c-0.065,-0.085 -0.267,-0.34 -0.607,-0.765c-0.016,-0.034 -0.024,-0.06 -0.024,-0.077c0,-0.017 0.008,-0.034 0.024,-0.051c0.016,-0.034 0.032,-0.051 0.049,-0.051c0.032,0 0.057,0.017 0.073,0.051c0.113,0.102 0.324,0.34 0.631,0.714c0.065,0.085 0.17,0.204 0.316,0.357l0,0Zm-1.068,0.79c0,0.034 -0.008,0.06 -0.024,0.077l-0.073,0c-0.243,-0.119 -0.518,-0.374 -0.826,-0.765c-0.227,-0.272 -0.397,-0.552 -0.51,-0.841l0,-0.026c0,-0.017 0.016,-0.034 0.049,-0.051l0.024,0c0.016,0 0.032,0.009 0.049,0.026c0.146,0.323 0.356,0.62 0.631,0.892c0.437,0.442 0.664,0.663 0.68,0.663l0,0.026l0,-0Zm-1.676,0.026c0.259,0.238 0.405,0.399 0.437,0.484l0,0.026c0,0.017 -0.008,0.034 -0.024,0.051c-0.016,0.017 -0.032,0.026 -0.049,0.026l-0.024,0c-0.049,-0.034 -0.21,-0.178 -0.486,-0.433c-0.194,-0.187 -0.397,-0.382 -0.607,-0.586c-0.275,-0.238 -0.461,-0.408 -0.559,-0.51c-0.194,-0.187 -0.299,-0.28 -0.316,-0.28c-0.032,-0.017 -0.049,-0.043 -0.049,-0.077l0,-0.026c0.016,-0.034 0.04,-0.051 0.073,-0.051l0.024,0c0.097,0.034 0.397,0.28 0.898,0.739c0.243,0.204 0.469,0.416 0.68,0.637l0,-0Zm-1.408,0.637c0.356,0.323 0.761,0.671 1.214,1.045c0.016,0.017 0.024,0.034 0.024,0.051c0,0.017 -0.008,0.034 -0.024,0.051c-0.016,0.017 -0.032,0.026 -0.049,0.026l-0.049,0c-0.34,-0.153 -0.898,-0.629 -1.676,-1.427c-0.437,-0.442 -0.656,-0.731 -0.656,-0.867c0,-0.051 0.024,-0.085 0.073,-0.102c0.032,0 0.057,0.017 0.073,0.051c0,0.017 -0.008,0.034 -0.024,0.051l0,0.026c0,0.068 0.364,0.433 1.093,1.096l0,-0.001Zm0.121,1.708c1.036,0.884 1.643,1.512 1.821,1.886l0,0.026c0,0.051 -0.016,0.093 -0.049,0.127c-0.016,0.017 -0.04,0.026 -0.073,0.026c-0.032,0 -0.057,-0.026 -0.073,-0.077c-0.113,-0.221 -0.745,-0.867 -1.894,-1.937c-0.858,-0.799 -1.635,-1.58 -2.331,-2.345c-0.032,-0.017 -0.049,-0.034 -0.049,-0.051c0,-0.017 0.008,-0.034 0.024,-0.051c0.016,-0.017 0.04,-0.026 0.073,-0.026l0.049,0c0.032,0.017 0.089,0.043 0.17,0.077c0.081,0.034 0.138,0.06 0.17,0.077c0.016,0.017 0.024,0.034 0.024,0.051l0,0.026c0,0.017 -0.016,0.026 -0.049,0.026c-0.049,-0.017 -0.065,-0.026 -0.049,-0.026c0.21,0.204 0.583,0.578 1.117,1.122c0.453,0.476 0.826,0.833 1.117,1.071l-0,-0.001Zm-1.336,1.122c1.36,1.495 2.121,2.379 2.283,2.651c0.016,0.017 0.024,0.034 0.024,0.051c0,0.034 -0.024,0.06 -0.073,0.077c-0.016,0.017 -0.032,0.026 -0.049,0.026c-0.032,0 -0.057,-0.017 -0.073,-0.051c-0.113,-0.17 -1.012,-1.19 -2.695,-3.059c-0.68,-0.748 -1.133,-1.275 -1.36,-1.58c-0.21,-0.289 -0.316,-0.501 -0.316,-0.637l0,-0.051c0.016,-0.034 0.04,-0.051 0.073,-0.051c0.032,0 0.049,0.017 0.049,0.051c0,0.102 0.227,0.425 0.68,0.969c0.324,0.374 0.809,0.909 1.457,1.606l-0,-0Zm-0.024,2.014c0.502,0.527 0.769,0.824 0.801,0.892l0,0.051c0,0.017 -0.008,0.034 -0.024,0.051c-0.016,0.017 -0.032,0.026 -0.049,0.026l-0.024,0c-0.097,-0.051 -0.421,-0.374 -0.971,-0.969c-0.486,-0.51 -0.89,-0.96 -1.214,-1.351c-0.939,-1.122 -1.481,-1.929 -1.627,-2.422c0,-0.034 0.016,-0.06 0.049,-0.077c0.032,0 0.057,0.009 0.073,0.026c0.729,1.122 1.352,1.98 1.87,2.575c0.324,0.357 0.696,0.756 1.117,1.198l0,-0.001Zm-3.278,-1.606c0.032,0.051 0.348,0.467 0.947,1.249c0.842,1.122 1.295,1.767 1.36,1.937l0,0.026c0,0.017 -0.016,0.034 -0.049,0.051c-0.016,0.017 -0.032,0.026 -0.049,0.026c-0.016,0 -0.032,-0.009 -0.049,-0.026c-0.049,-0.068 -0.656,-0.884 -1.821,-2.447c-0.016,-0.017 -0.097,-0.119 -0.243,-0.306c-0.146,-0.17 -0.267,-0.323 -0.364,-0.459c-0.243,-0.34 -0.364,-0.578 -0.364,-0.714c0,-0.034 0.008,-0.06 0.024,-0.077l0.024,-0.026c0.016,0 0.032,0.009 0.049,0.026c0.016,0.017 0.024,0.043 0.024,0.077c0.016,0 0.186,0.221 0.51,0.663l-0,-0Z" style="fill:#999;fill-rule:nonzero;"/>
        </g>
        <g id="text3787">
            <path id="path3792" d="M22.862,15.697l-0.856,-3.571l0,3.869c0,0.214 -0.046,0.375 -0.138,0.482c-0.09,0.107 -0.21,0.161 -0.361,0.161c-0.146,0 -0.265,-0.052 -0.357,-0.157c-0.092,-0.107 -0.138,-0.269 -0.138,-0.486l0,-4.435c0,-0.245 0.061,-0.409 0.182,-0.493c0.121,-0.087 0.285,-0.13 0.492,-0.13l0.335,0c0.202,0 0.347,0.019 0.437,0.057c0.092,0.038 0.16,0.107 0.204,0.206c0.044,0.099 0.093,0.261 0.149,0.486l0.776,3.07l0.776,-3.07c0.056,-0.224 0.106,-0.386 0.149,-0.486c0.044,-0.099 0.11,-0.168 0.2,-0.206c0.092,-0.038 0.239,-0.057 0.441,-0.057l0.335,0c0.206,0 0.37,0.043 0.492,0.13c0.121,0.084 0.182,0.249 0.182,0.493l0,4.435c0,0.214 -0.046,0.375 -0.138,0.482c-0.09,0.107 -0.211,0.161 -0.364,0.161c-0.143,0 -0.261,-0.054 -0.353,-0.161c-0.092,-0.107 -0.138,-0.268 -0.138,-0.482l0,-3.869l-0.856,3.571c-0.056,0.232 -0.102,0.403 -0.138,0.512c-0.034,0.107 -0.098,0.205 -0.193,0.294c-0.095,0.089 -0.226,0.134 -0.393,0.134c-0.126,0 -0.233,-0.029 -0.321,-0.088c-0.087,-0.056 -0.155,-0.129 -0.204,-0.218c-0.049,-0.089 -0.087,-0.187 -0.117,-0.294c-0.027,-0.11 -0.055,-0.223 -0.084,-0.34Z" style="fill:#eee;fill-rule:nonzero;"/>
            <path id="path3794" d="M27.288,14.225l0,-2.696c0,-0.229 0.049,-0.401 0.146,-0.516c0.1,-0.115 0.229,-0.172 0.39,-0.172c0.168,0 0.3,0.057 0.397,0.172c0.1,0.115 0.149,0.287 0.149,0.516l0,2.757c0,0.314 0.033,0.576 0.098,0.788c0.068,0.209 0.187,0.372 0.357,0.489c0.17,0.115 0.408,0.172 0.714,0.172c0.423,0 0.721,-0.117 0.896,-0.352c0.175,-0.237 0.262,-0.595 0.262,-1.074l0,-2.78c0,-0.232 0.049,-0.404 0.146,-0.516c0.097,-0.115 0.227,-0.172 0.39,-0.172c0.163,0 0.294,0.057 0.393,0.172c0.102,0.112 0.153,0.284 0.153,0.516l0,2.696c0,0.438 -0.041,0.804 -0.124,1.097c-0.08,0.293 -0.233,0.551 -0.459,0.772c-0.194,0.189 -0.42,0.326 -0.678,0.413c-0.257,0.087 -0.559,0.13 -0.903,0.13c-0.41,0 -0.764,-0.046 -1.06,-0.138c-0.296,-0.094 -0.538,-0.238 -0.725,-0.432c-0.187,-0.196 -0.324,-0.446 -0.412,-0.749c-0.087,-0.306 -0.131,-0.67 -0.131,-1.094Z" style="fill:#eee;fill-rule:nonzero;"/>
            <path id="path3796" d="M34.008,11.53l0,4.08l2.193,0c0.175,0 0.308,0.045 0.401,0.134c0.095,0.089 0.142,0.201 0.142,0.336c0,0.138 -0.046,0.25 -0.138,0.336c-0.092,0.084 -0.227,0.126 -0.404,0.126l-2.612,0c-0.236,0 -0.406,-0.055 -0.51,-0.164c-0.102,-0.11 -0.153,-0.287 -0.153,-0.531l0,-4.317c0,-0.229 0.049,-0.401 0.146,-0.516c0.1,-0.115 0.229,-0.172 0.39,-0.172c0.163,0 0.294,0.057 0.393,0.172c0.102,0.112 0.153,0.284 0.153,0.516l-0,0Z" style="fill:#eee;fill-rule:nonzero;"/>
            <path id="path3798" d="M39.986,11.874l-1.18,0l0,4.072c0,0.235 -0.05,0.409 -0.149,0.524c-0.1,0.112 -0.228,0.168 -0.386,0.168c-0.16,0 -0.291,-0.057 -0.393,-0.172c-0.1,-0.115 -0.149,-0.288 -0.149,-0.52l0,-4.072l-1.18,0c-0.185,0 -0.322,-0.042 -0.412,-0.126c-0.09,-0.087 -0.135,-0.2 -0.135,-0.34c0,-0.145 0.046,-0.26 0.138,-0.344c0.095,-0.084 0.231,-0.126 0.408,-0.126l3.439,0c0.187,0 0.325,0.043 0.415,0.13c0.092,0.087 0.138,0.2 0.138,0.34c0,0.14 -0.046,0.254 -0.138,0.34c-0.092,0.084 -0.231,0.126 -0.415,0.126l-0,0Z" style="fill:#eee;fill-rule:nonzero;"/>
        </g>
    </g>
    <g id="TESTO-3" serif:id="TESTO 3">
        <g id="g3708">
            <g id="text3700">
                <path id="path3736" d="M19.902,57.67l0,-4.416c0,-0.229 0.05,-0.401 0.149,-0.516c0.1,-0.115 0.228,-0.172 0.386,-0.172c0.163,0 0.294,0.057 0.393,0.172c0.102,0.112 0.153,0.284 0.153,0.516l0,4.416c0,0.232 -0.051,0.405 -0.153,0.52c-0.1,0.115 -0.231,0.172 -0.393,0.172c-0.155,0 -0.284,-0.057 -0.386,-0.172c-0.1,-0.117 -0.149,-0.291 -0.149,-0.52Z" style="fill:#eee;fill-rule:nonzero;"/>
                <path id="path3738" d="M23.599,53.246l2.08,3.304l0,-3.334c0,-0.217 0.044,-0.379 0.131,-0.486c0.09,-0.11 0.21,-0.164 0.361,-0.164c0.155,0 0.278,0.055 0.368,0.164c0.09,0.107 0.135,0.269 0.135,0.486l0,4.409c0,0.492 -0.194,0.738 -0.583,0.738c-0.097,0 -0.185,-0.015 -0.262,-0.046c-0.078,-0.028 -0.151,-0.074 -0.219,-0.138c-0.068,-0.064 -0.131,-0.138 -0.189,-0.222c-0.058,-0.087 -0.117,-0.175 -0.175,-0.264l-2.029,-3.265l0,3.284c0,0.214 -0.047,0.376 -0.142,0.486c-0.095,0.11 -0.216,0.164 -0.364,0.164c-0.153,0 -0.276,-0.055 -0.368,-0.164c-0.092,-0.112 -0.138,-0.274 -0.138,-0.486l0,-4.324c0,-0.184 0.019,-0.328 0.058,-0.432c0.046,-0.115 0.123,-0.208 0.229,-0.279c0.107,-0.074 0.222,-0.111 0.346,-0.111c0.097,0 0.18,0.017 0.248,0.05c0.07,0.033 0.131,0.078 0.182,0.134c0.053,0.056 0.107,0.129 0.16,0.218c0.056,0.089 0.113,0.182 0.171,0.279l0,0Z" style="fill:#eee;fill-rule:nonzero;"/>
                <path id="path3740" d="M29.38,57.743l0,-3.479c-0.617,0.497 -1.032,0.746 -1.246,0.746c-0.102,0 -0.193,-0.042 -0.273,-0.126c-0.078,-0.087 -0.117,-0.186 -0.117,-0.298c0,-0.13 0.039,-0.226 0.117,-0.287c0.078,-0.061 0.215,-0.14 0.412,-0.237c0.294,-0.145 0.528,-0.298 0.703,-0.459c0.177,-0.161 0.334,-0.34 0.47,-0.539c0.136,-0.199 0.225,-0.321 0.266,-0.367c0.041,-0.046 0.119,-0.069 0.233,-0.069c0.129,0 0.232,0.052 0.31,0.157c0.078,0.105 0.117,0.249 0.117,0.432l0,4.378c0,0.512 -0.166,0.769 -0.499,0.769c-0.148,0 -0.267,-0.052 -0.357,-0.157c-0.09,-0.104 -0.135,-0.259 -0.135,-0.463Z" style="fill:#eee;fill-rule:nonzero;"/>
            </g>
            <g id="text3704">
                <path id="path3743" d="M56.243,57.67l0,-4.416c0,-0.229 0.05,-0.401 0.149,-0.516c0.1,-0.115 0.228,-0.172 0.386,-0.172c0.163,0 0.294,0.057 0.393,0.172c0.102,0.112 0.153,0.284 0.153,0.516l0,4.416c0,0.232 -0.051,0.405 -0.153,0.52c-0.1,0.115 -0.231,0.172 -0.393,0.172c-0.155,0 -0.284,-0.057 -0.386,-0.172c-0.1,-0.117 -0.149,-0.291 -0.149,-0.52Z" style="fill:#eee;fill-rule:nonzero;"/>
                <path id="path3745" d="M59.941,53.246l2.08,3.304l0,-3.334c0,-0.217 0.044,-0.379 0.131,-0.486c0.09,-0.11 0.21,-0.164 0.361,-0.164c0.155,0 0.278,0.055 0.368,0.164c0.09,0.107 0.135,0.269 0.135,0.486l0,4.409c0,0.492 -0.194,0.738 -0.583,0.738c-0.097,0 -0.185,-0.015 -0.262,-0.046c-0.078,-0.028 -0.151,-0.074 -0.219,-0.138c-0.068,-0.064 -0.131,-0.138 -0.189,-0.222c-0.058,-0.087 -0.117,-0.175 -0.175,-0.264l-2.029,-3.265l0,3.284c0,0.214 -0.047,0.376 -0.142,0.486c-0.095,0.11 -0.216,0.164 -0.364,0.164c-0.153,0 -0.276,-0.055 -0.368,-0.164c-0.092,-0.112 -0.138,-0.274 -0.138,-0.486l0,-4.324c0,-0.184 0.019,-0.328 0.058,-0.432c0.046,-0.115 0.123,-0.208 0.229,-0.279c0.107,-0.074 0.222,-0.111 0.346,-0.111c0.097,0 0.18,0.017 0.248,0.05c0.07,0.033 0.131,0.078 0.182,0.134c0.053,0.056 0.107,0.129 0.16,0.218c0.056,0.089 0.113,0.182 0.171,0.279l-0,0Z" style="fill:#eee;fill-rule:nonzero;"/>
                <path id="path3747" d="M65.28,57.364l1.901,0c0.189,0 0.334,0.041 0.433,0.122c0.1,0.082 0.149,0.192 0.149,0.333c0,0.125 -0.04,0.231 -0.12,0.317c-0.078,0.087 -0.197,0.13 -0.357,0.13l-2.681,0c-0.182,0 -0.324,-0.052 -0.426,-0.157c-0.102,-0.107 -0.153,-0.232 -0.153,-0.375c0,-0.092 0.033,-0.213 0.098,-0.363c0.066,-0.153 0.137,-0.273 0.215,-0.359c0.323,-0.352 0.614,-0.653 0.874,-0.902c0.26,-0.252 0.446,-0.418 0.557,-0.497c0.199,-0.148 0.364,-0.296 0.495,-0.444c0.134,-0.15 0.234,-0.303 0.302,-0.459c0.07,-0.158 0.106,-0.312 0.106,-0.463c0,-0.163 -0.038,-0.308 -0.113,-0.436c-0.073,-0.13 -0.174,-0.231 -0.302,-0.302c-0.126,-0.071 -0.265,-0.107 -0.415,-0.107c-0.318,0 -0.568,0.147 -0.75,0.44c-0.024,0.038 -0.066,0.143 -0.124,0.314c-0.056,0.171 -0.12,0.302 -0.193,0.394c-0.07,0.092 -0.175,0.138 -0.313,0.138c-0.121,0 -0.222,-0.042 -0.302,-0.126c-0.08,-0.084 -0.12,-0.199 -0.12,-0.344c0,-0.176 0.038,-0.359 0.113,-0.551c0.075,-0.191 0.187,-0.364 0.335,-0.52c0.151,-0.156 0.34,-0.28 0.568,-0.375c0.231,-0.097 0.5,-0.145 0.809,-0.145c0.372,0 0.688,0.061 0.951,0.184c0.17,0.082 0.319,0.194 0.448,0.336c0.129,0.143 0.228,0.308 0.299,0.497c0.073,0.186 0.109,0.38 0.109,0.581c0,0.316 -0.075,0.604 -0.226,0.864c-0.148,0.257 -0.3,0.46 -0.455,0.608c-0.155,0.145 -0.416,0.375 -0.783,0.688c-0.364,0.314 -0.614,0.557 -0.75,0.73c-0.058,0.069 -0.118,0.152 -0.178,0.249l-0,0Z" style="fill:#eee;fill-rule:nonzero;"/>
            </g>
        </g>
    </g>
    <g id="LINEA">
        <path id="path3717" d="M24.371,75.479l1.629,246.907" style="fill:none;stroke:#eee;stroke-width:1.03px;"/>
    </g>
</svg>
