<?xml version="1.0" encoding="UTF-8"?>
<svg id="a" data-name="Capa 1" xmlns="http://www.w3.org/2000/svg" width="40.36mm" height="128.51mm" viewBox="0 0 114.41 364.29">
  <rect x="11.46" y="4.11" width="17.59" height="8.79" rx="4.39" ry="4.39" style="fill: #fff;"/>
  <rect width="114.41" height="364.25" style="fill: #010100;"/>
  <path d="M100.09,342.29c-3.58,0-3.58,2.26-7.15,2.26s-3.57-2.26-7.15-2.26-3.57,2.26-7.14,2.26-3.58-2.26-7.15-2.26-3.57,2.26-7.14,2.26-3.58-2.26-7.15-2.26-3.57,2.26-7.14,2.26-3.58-2.26-7.15-2.26-3.57,2.26-7.15,2.26-3.57-2.26-7.14-2.26-3.57,2.26-7.15,2.26-3.57-2.26-7.14-2.26-3.57,2.26-7.15,2.26-3.57-2.26-7.14-2.26v22h114.41v-22c-3.58,0-3.58,2.26-7.16,2.26s-3.58-2.26-7.15-2.26Z" style="fill: #fff;"/>
  <path d="M82.08,12.08v-3.78l-1.85,3.11h-.66l-1.84-3v3.7h-1.38v-6.33h1.16l2.4,3.91,2.32-3.91h1.2v6.3h-1.35Z" style="fill: #fff;"/>
  <path d="M89.09,10.73h-2.92l-.56,1.35h-1.49l2.8-6.3h1.44l2.82,6.3h-1.53l-.56-1.35ZM88.63,9.62l-1-2.41-1,2.41h2Z" style="fill: #fff;"/>
  <path d="M95.85,12.08l-1.21-1.76h-1.34v1.76h-1.46v-6.3h2.72c.5-.01,1,.08,1.46.28.39.16.72.44.95.79.23.36.34.78.33,1.21.01.43-.1.85-.34,1.21-.25.36-.59.63-1,.78l1.41,2-1.52.03ZM95.51,7.25c-.29-.2-.65-.29-1-.25h-1.21v2.16h1.21c.36.03.71-.07,1-.29.24-.2.37-.5.35-.81.02-.31-.11-.61-.35-.81Z" style="fill: #fff;"/>
  <path d="M24.77,2.31h-9c-3.42,0-6.19,2.77-6.19,6.19s2.77,6.19,6.19,6.19h9c3.42,0,6.19-2.77,6.19-6.19,0-3.42-2.77-6.19-6.19-6.19,0,0,0,0,0,0ZM24.66,12.9h-8.8c-2.43.12-4.49-1.76-4.6-4.19-.12-2.43,1.76-4.49,4.19-4.6.14,0,.28,0,.42,0h8.8c2.43-.12,4.49,1.76,4.6,4.19.12,2.43-1.76,4.49-4.19,4.6-.14,0-.28,0-.42,0Z" style="fill: #ffc300;"/>
  <path d="M101.81,356.74c.08-.32.12-.65.12-1,0-.15-.01-.3-.03-.45,0,.15.02.3.02.45h0c0,.35-.04.68-.11,1ZM101.81,356.74c.08-.32.12-.65.12-1,0-.15-.01-.3-.03-.45,0,.15.02.3.02.45h0c0,.35-.04.68-.11,1ZM101.81,356.74c.08-.32.12-.65.12-1,0-.15-.01-.3-.03-.45,0,.15.02.3.02.45h0c0,.35-.04.68-.11,1Z" style="fill: #ffc300;"/>
  <path d="M98.15,349.55h-9c-3.42,0-6.19,2.77-6.19,6.19s2.77,6.19,6.19,6.19h9c3.42,0,6.19-2.77,6.19-6.19s-2.77-6.19-6.19-6.19ZM98.46,360.14c-.14.01-.28.01-.42,0h-8.81c-2.43.11-4.48-1.76-4.59-4.19-.12-2.42,1.75-4.48,4.18-4.6.11-.01.23-.01.34,0,.02-.01.05-.01.07-.01h8.81s.05,0,.07.01c2.4-.08,4.42,1.78,4.53,4.19.12,2.42-1.75,4.48-4.18,4.6Z" style="fill: #ffc300;"/>
  <circle cx="57.2" cy="51.73" r="2.83" style="fill: red;"/>
  <rect x="66.49" y="245.89" width="9.29" height="9.29" rx="4.64" ry="4.64" style="fill: #ffc300;"/>
  <rect x="95.27" y="245.83" width="9.29" height="9.29" rx="4.64" ry="4.64" style="fill: #fff;"/>
  <rect x="95.27" y="282.88" width="9.29" height="9.29" rx="4.64" ry="4.64" style="fill: #fff;"/>
  <rect x="66.27" y="282.88" width="9.29" height="9.29" rx="4.64" ry="4.64" style="fill: #fff;"/>
  <rect x="38.42" y="245.89" width="9.29" height="9.29" rx="4.64" ry="4.64" style="fill: #fff;"/>
  <rect x="38.42" y="282.88" width="9.29" height="9.29" rx="4.64" ry="4.64" style="fill: #fff;"/>
  <rect x="9.85" y="282.88" width="9.29" height="9.29" rx="4.64" ry="4.64" style="fill: #fff;"/>
  <rect x="9.85" y="245.89" width="9.29" height="9.29" rx="4.64" ry="4.64" style="fill: #fff;"/>
  <path d="M13.78,287.61c.31.29.49.7.49,1.12v1.33h-.85v-1.33c0-.39-.31-.7-.7-.7-.39,0-.7.31-.7.7v1.33h-.85v-1.33c.62-.58.65-1.56.07-2.18-.02-.03-.05-.05-.07-.07v-1.32h.85v1.32c0,.25.13.49.35.61.22.13.48.13.7,0,.22-.12.35-.36.35-.61v-1.32h.85v1.32c0,.43-.18.84-.49,1.13Z" style="fill: #040006;"/>
  <path d="M17.28,287.61c.57.55.58,1.46.03,2.02-.37.38-.91.52-1.42.38-.63-.16-1.06-.73-1.06-1.38h.85c0,.33.26.59.59.59.33,0,.59-.26.59-.59,0-.33-.26-.59-.59-.59,0,0,0,0,0,0h-.31v-.85h.31c.24,0,.46-.14.55-.36.09-.22.04-.48-.13-.65-.17-.17-.42-.22-.64-.13-.22.1-.36.31-.36.55h-.85c-.07-.79.52-1.49,1.32-1.55.79-.07,1.49.52,1.55,1.32,0,.08,0,.16,0,.24,0,.38-.15.74-.42,1.01Z" style="fill: #040006;"/>
  <path d="M42.57,250.48c.31.29.48.7.48,1.12v1.33h-.85v-1.33c0-.38-.31-.69-.69-.69,0,0,0,0-.01,0-.38,0-.69.31-.7.69v1.33h-.84v-1.33c.62-.6.64-1.58.04-2.21-.01-.02-.03-.03-.04-.04v-1.35h.84v1.32c0,.39.33.71.72.7.12,0,.24-.03.34-.09.22-.13.35-.36.34-.61v-1.32h.85v1.32c.01.44-.16.86-.48,1.16Z" style="fill: #040006;"/>
  <path d="M44.51,252.09h1.84v.84h-2.74v-.42c-.01-.14-.01-.28,0-.42.17-.63.58-1.16,1.14-1.49.72-.57.85-.78.85-1.13-.01-.32-.27-.57-.59-.58-.32,0-.58.25-.59.57,0,0,0,0,0,.01h-.81c-.07-.79.52-1.49,1.32-1.55.79-.07,1.49.52,1.55,1.32,0,.08,0,.16,0,.24,0,.81-.48,1.26-1.17,1.8-.33.2-.61.48-.8.82Z" style="fill: #040006;"/>
  <path d="M42.57,287.61c.31.29.48.7.48,1.12v1.33h-.85v-1.33c.02-.38-.27-.71-.65-.73-.01,0-.03,0-.04,0-.38,0-.69.31-.7.69v1.33h-.84v-1.33c.62-.6.64-1.58.04-2.21-.01-.02-.03-.03-.04-.04v-1.32h.84v1.32c0,.25.13.49.35.62.22.12.49.12.71,0,.22-.13.35-.37.34-.62v-1.32h.85v1.32c.01.44-.17.87-.49,1.17Z" style="fill: #040006;"/>
  <path d="M46.51,285.16v4.9h-.84v-2.15c-.73.31-1.58-.03-1.89-.77-.07-.17-.11-.36-.11-.54v-1.44h.84v1.44c0,.32.25.58.57.59,0,0,.01,0,.02,0,.33,0,.59-.26.59-.59v-1.44h.82Z" style="fill: #040006;"/>
  <path d="M14.59,250.67c.31.29.49.7.49,1.12v1.33h-.85v-1.33c0-.39-.31-.7-.7-.7-.39,0-.7.31-.7.7v1.33h-.85v-1.33c.62-.58.65-1.56.07-2.18-.02-.03-.05-.05-.07-.07v-1.32h.85v1.32c0,.25.13.49.35.62.22.12.48.12.7,0,.22-.13.35-.37.35-.62v-1.32h.85v1.32c0,.43-.18.84-.49,1.13Z" style="fill: #040006;"/>
  <path d="M16.89,249.05v4.07h-.85v-4.05h-.4v-.85h.42c.46,0,.82.37.83.83Z" style="fill: #040006;"/>
  <path d="M70.96,285.16v1.32c.01.7-.45,1.33-1.12,1.52v2.09h-.85v-2.09c-.66-.19-1.12-.8-1.12-1.49v-1.32h.84v1.32c.05.39.4.67.79.62.33-.04.58-.3.62-.62v-1.32l.84-.03Z" style="fill: #040006;"/>
  <path d="M73.98,287.61c.46.46.55,1.18.22,1.74-.4.68-1.29.91-1.97.51-.44-.26-.7-.72-.71-1.23h.85c0,.24.14.45.36.54.3.12.65-.02.77-.32.06-.14.06-.3,0-.45-.09-.22-.3-.36-.54-.36h-.31v-.85h.31c.24,0,.45-.14.54-.36.09-.22.04-.47-.12-.65-.23-.23-.61-.22-.83.01-.11.11-.16.25-.17.41h-.87c-.07-.79.52-1.49,1.32-1.55.79-.07,1.49.52,1.55,1.32,0,.08,0,.16,0,.24,0,.38-.14.74-.4,1.01Z" style="fill: #040006;"/>
  <path d="M99.75,248v1.32c0,.69-.46,1.3-1.13,1.49v2.09h-.84v-2.09c-.67-.19-1.13-.8-1.13-1.49v-1.32h.86v1.32c0,.39.31.7.7.7s.7-.31.7-.7v-1.32h.84Z" style="fill: #040006;"/>
  <path d="M101.22,252.09h1.83v.84h-2.75v-.42c0-.14,0-.28,0-.42.19-.64.63-1.17,1.21-1.49.73-.57.85-.78.85-1.13,0-.33-.26-.59-.59-.59s-.59.26-.59.59h-.85c0-.8.65-1.44,1.44-1.44.79,0,1.44.64,1.44,1.44,0,.81-.49,1.26-1.18,1.8-.33.2-.61.48-.81.82Z" style="fill: #040006;"/>
  <path d="M99.75,285.16v1.32c.02.71-.45,1.33-1.13,1.52v2.09h-.85v-2.09c-.66-.19-1.12-.8-1.12-1.49v-1.32h.86v1.32c0,.39.31.7.7.7s.7-.31.7-.7v-1.32l.84-.03Z" style="fill: #040006;"/>
  <path d="M103.18,285.16v4.9h-.85v-2.15c-.73.31-1.58-.03-1.89-.77-.07-.17-.11-.36-.11-.54v-1.44h.85v1.44c0,.33.26.59.59.59.32,0,.58-.25.59-.57,0,0,0-.01,0-.02v-1.44h.82Z" style="fill: #040006;"/>
  <path d="M71.77,248.22v1.32c-.01.68-.47,1.27-1.12,1.46v2.09h-.85v-2.09c-.66-.19-1.12-.8-1.12-1.49v-1.32h.83v1.32c-.05.39.23.74.62.79.39.05.74-.23.79-.62,0-.06,0-.11,0-.17v-1.32l.85.03Z" style="fill: #040006;"/>
  <path d="M73.58,249.05v4.07h-.84v-4.05h-.41v-.85h.42c.46,0,.82.37.83.83Z" style="fill: #040006;"/>
  <path d="M56.67,291.46c-.28,0-.5-.22-.5-.5v-64.76c0-.27.23-.49.5-.5.28,0,.5.22.5.5v64.8c-.02.26-.24.46-.5.46Z" style="fill: #fff;"/>
  <path d="M59.41,82.41v1.9c0,.98-.65,1.85-1.6,2.12v3h-1.21v-3c-.95-.27-1.61-1.13-1.61-2.12v-1.9h1.21v1.9c0,.55.45,1,1,1s1-.45,1-1v-1.9h1.21Z" style="fill: #fff;"/>
  <path d="M36.51,140.85l-1-1.73.81-.5,1.09,1.68-.9.55Z" style="fill: #fff;"/>
  <polygon points="37.36 140.31 37.32 140.29 36.26 138.65 36.34 138.59 36.38 138.63 37.44 140.27 37.43 140.28 37.44 140.31 37.36 140.31" style="fill: #fff;"/>
  <path d="M14.69,140.32h0l-.28-.19h0l1.12-1.67h0l.25.17h0l-1.09,1.69ZM39.06,139.1l-1.25-1.56h0c.5-.4.98-.82,1.43-1.27h0l1.36,1.39h0v.05h-.1c-.48.46-1,.93-1.56,1.38h.12ZM12.74,138.9h0c-.55-.44-1.07-.92-1.56-1.42h0l1.33-1.48h0c.43.44.89.86,1.36,1.25h0l.07.09h0l-1.2,1.56ZM42.1,136.21l-1.59-1.32h0c.4-.48.79-1,1.15-1.52v-.05h.05l1.61,1.09h0c-.4.58-.82,1.15-1.27,1.68l.05.12ZM9.78,135.93v-.05c-.44-.55-.86-1.13-1.24-1.7v-.05l1.61-1.13h0c.35.53.73,1.05,1.13,1.54h0l-1.5,1.39ZM44.42,132.7l-1.75-.95h0c.3-.56.58-1.14.82-1.72h0l1.8.76h0c-.27.65-.57,1.29-.91,1.91h.04ZM7.42,132.42v-.06c-.33-.62-.62-1.26-.88-1.91h0l1.85-.74h0c.23.59.5,1.18.8,1.74h0l-1.77.97ZM46.01,128.83l-1.92-.57h0c.18-.6.33-1.22.46-1.85h0l1.91.37h0c-.13.7-.3,1.38-.51,2.06h.06ZM5.87,128.53v-.06c-.19-.67-.35-1.36-.48-2.06h.12l1.86-.41h0c.12.64.26,1.26.43,1.86v.14l-1.93.53ZM46.87,124.72l-2-.19h0c.06-.58.09-1.17.09-1.76v-.2h1.94c0,.06,0,.11,0,.17,0,.64,0,1.3-.09,2l.06-.02ZM5.17,124.39v-.06c0-.53-.06-1.07-.06-1.61v-.54h2v2.02l-1.94.19ZM44.86,120.74h0c-.07-.62-.17-1.26-.3-1.88h0l1.91-.41v.06c.14.68.25,1.38.33,2.09h0l-1.94.14ZM7.23,120.44l-2-.3c.09-.7.21-1.39.37-2.07h0l1.95.44v.05c-.14.62-.25,1.25-.33,1.88h.01ZM44.08,117h0c-.18-.57-.4-1.15-.64-1.71h0l-.05-.11h0l1.79-.78h0c.29.66.53,1.32.75,2h0l-1.85.6ZM8.08,116.71h0l-1.85-.63v-.1h0c.22-.65.47-1.29.75-1.91h0l1.83.83h0c-.25.56-.48,1.16-.69,1.78l-.04.03ZM42.61,113.52v-.05c-.31-.55-.65-1.09-1-1.61h0l1.63-1.15h0c.39.56.76,1.15,1.1,1.76h.16l-1.89,1.05ZM9.61,113.25h0l-1.69-1h0l-.09-.07h.14c.35-.6.72-1.18,1.13-1.74h0l1.62,1.17h0c-.36.52-.69,1.05-1,1.6l-.11.04ZM40.42,110.4h0c-.41-.47-.85-.93-1.3-1.37h-.19l.17-.09,1.34-1.42h.07-.05c.5.47.97.97,1.41,1.49h0l-1.45,1.39ZM11.87,110.22l-.09-.08-1.46-1.29h0v-.07h0c.45-.5.93-1,1.44-1.47h0l1.36,1.47h0c-.46.43-.9.88-1.32,1.35l.07.09ZM37.68,107.77h0c-.5-.38-1-.75-1.56-1.09h0l1-1.65h.05c.58.37,1.16.78,1.73,1.21h0l-1.22,1.53ZM14.68,107.68l-1.29-1.68h0c.56-.42,1.15-.82,1.76-1.19h0l1,1.72h0c-.54.33-1.06.68-1.56,1.06l.09.09ZM34.51,105.77h-.05c-.56-.27-1.14-.53-1.74-.76v-.06l.68-1.83h0c.66.24,1.31.52,1.94.84h.05l-.88,1.81ZM17.9,105.62h-.05l-.84-1.75h.05c.66-.31,1.31-.58,2-.81h0l.68,1.88h-.05c-.58.21-1.17.45-1.76.73l-.03-.05ZM30.96,104.42h-.05c-.63-.17-1.26-.31-1.9-.42h-.05l.35-2h0c.69.11,1.38.26,2.06.43h.05l-.46,1.99ZM21.46,104.35h0l-.46-1.89h0c.71-.17,1.4-.3,2.08-.4h.05l.28,2h-.05c-.62.09-1.25.21-1.87.36l-.03-.07ZM27.22,103.82h-2.02l-.08-2h2.16l.05.05-.11,1.95Z" style="fill: #fff;"/>
  <path d="M15.51,140.85c-.3-.18-.6-.36-.89-.55l1.08-1.68.81.5-1,1.73Z" style="fill: #fff;"/>
  <path d="M98.85,140.85l-1-1.73c.28-.16.55-.33.81-.5l1.09,1.68c-.24.19-.59.37-.9.55Z" style="fill: #fff;"/>
  <polygon points="99.72 140.31 99.68 140.29 98.62 138.65 98.65 138.63 98.65 138.49 99.78 140.23 99.93 140.31 99.72 140.31" style="fill: #fff;"/>
  <path d="M77.06,140.32h0l-.21-.14-.11-.07,1.12-1.67h0l.22.15.07.05-1.09,1.68ZM101.43,139.08h-.06l-1.2-1.5h0c.5-.41,1-.84,1.42-1.27h0l1.37,1.39h-.1c-.48.47-1,.92-1.52,1.35l.05.05.04-.02ZM75.1,138.9h0c-.56-.46-1.09-.94-1.59-1.46h0l1.42-1.4h0c.45.46.92.89,1.41,1.29h0v.05l-1.24,1.52ZM104.51,136.21l-1.58-1.32h0c.4-.48.78-1,1.15-1.52h0l1.61,1.09h0c-.39.58-.8,1.14-1.25,1.67l.07.08ZM72.18,135.93v-.05c-.44-.55-.86-1.12-1.24-1.7v-.05l1.57-1.13h0c.34.53.72,1.05,1.12,1.54h0l-1.45,1.39ZM106.83,132.7l-1.76-.95h0c.3-.56.58-1.14.82-1.72h.06l1.8.75v.06c-.27.65-.57,1.28-.91,1.9v-.04ZM69.83,132.42h0c-.32-.62-.62-1.27-.88-1.92v-.07h.06l1.8-.71h0c.24.59.5,1.17.8,1.73v.05h0l-1.78.92ZM108.41,128.83l-1.91-.57h0c.18-.61.34-1.23.46-1.85h0l1.91.37h0c-.13.7-.3,1.38-.51,2.06h.05ZM68.27,128.53v-.06c-.19-.68-.35-1.37-.48-2.06h0l2-.35h0c.12.64.26,1.26.43,1.86h-.06l-1.89.61ZM109.22,124.72l-2-.19h0c0-.58.08-1.17.08-1.76v-.2h2v.22c0,.67-.03,1.33-.09,2v-.07ZM67.51,124.4v-.07c0-.53-.06-1.07-.06-1.61v-.54h2v2.02l-1.94.2ZM107.22,120.74h0c-.07-.63-.17-1.27-.3-1.88v-.07l1.95-.41h0c.14.7.25,1.39.33,2.09h0l-1.98.27ZM69.51,120.44l-1.92-.3c.08-.7.2-1.39.36-2.07h0l2,.44v.05c-.14.6-.25,1.21-.33,1.83h0l-.11.05ZM106.45,117h0c-.19-.61-.41-1.2-.67-1.78h0l1.78-.78.06.12h0c.27.62.5,1.27.71,1.91h0l-1.88.53ZM70.38,116.71h0l-1.87-.6v-.06c.23-.67.49-1.33.77-2h0l1.83.83h0c-.27.58-.5,1.17-.7,1.77l-.03.06ZM104.95,113.52v-.05c-.3-.54-.64-1.08-1-1.6h-.09l1.69-1.18h0c.41.58.78,1.18,1.13,1.8h0l-1.73,1.03ZM71.95,113.25h0l-1.68-1h0v-.07c.34-.58.71-1.16,1.12-1.73v-.08l1.66,1.2h0c-.37.52-.72,1.06-1,1.6l-.1.08ZM102.76,110.4h0c-.41-.48-.85-.94-1.31-1.38h0l1.34-1.41h0c.5.48,1,1,1.45,1.53h0l-1.48,1.26ZM74.16,110.17h0l-1.47-1.31h0c.47-.53.96-1.03,1.48-1.51h0l1.36,1.47h0c-.47.44-.92.9-1.33,1.36h-.04ZM100.02,107.77h0c-.5-.38-1-.75-1.56-1.09h0l1-1.65h0c.6.37,1.17.77,1.73,1.2h0l-1.17,1.54ZM76.93,107.59l-1.17-1.59h0c.56-.43,1.15-.83,1.75-1.2h0l1,1.71h0c-.54.33-1.07.69-1.58,1.07h0ZM96.81,105.75h0c-.58-.28-1.16-.54-1.75-.76v-.06l.69-1.82h0c.67.25,1.32.54,1.94.84h0l-.88,1.8ZM80.19,105.61h0l-.84-1.76h0c.66-.31,1.31-.58,2-.81h0l.66,1.83h0c-.59.21-1.19.46-1.76.73h-.06ZM93.26,104.4h0c-.62-.17-1.24-.3-1.87-.39h-.06l.32-2h0c.69.11,1.39.26,2.07.43h0l-.46,1.96ZM83.76,104.33h0l-.47-1.9h.06c.67-.16,1.37-.3,2.07-.4h0l.28,2h0c-.64.09-1.27.22-1.87.36l-.07-.06ZM89.52,103.8h-2.01l-.08-2h.08c.7-.04,1.4-.04,2.1,0h0l-.09,2Z" style="fill: #fff;"/>
  <path d="M77.92,140.85c-.31-.18-.61-.36-.9-.55l1.09-1.68c.26.17.53.34.81.5l-1,1.73Z" style="fill: #fff;"/>
  <path d="M36.51,206.06l-1-1.73.81-.49,1.09,1.68-.9.54Z" style="fill: #fff;"/>
  <polygon points="37.36 205.54 37.31 205.49 36.26 203.86 36.28 203.85 36.28 203.71 37.43 205.48 37.36 205.54" style="fill: #fff;"/>
  <path d="M14.69,205.54h0l-.28-.18h0l1.11-1.66h.05l.25.16h0l-1.13,1.68ZM39.07,204.3h0l-1.22-1.53h0c.49-.4.97-.82,1.42-1.26h0l1.37,1.4h0c-.5.48-1,.94-1.54,1.37h0l-.03.02ZM12.74,204.11h0c-.53-.43-1.04-.9-1.52-1.39l-.05.05v-.12l1.34-1.44h0c.45.45.92.88,1.41,1.29h0v.05l-1.18,1.56ZM42.06,201.39l-1.55-1.29h0c.4-.48.78-1,1.14-1.52v-.08l1.69,1.14v.06c-.39.57-.82,1.14-1.27,1.68h-.01ZM9.78,201.14h0c-.45-.56-.88-1.14-1.27-1.75h0l1.68-1.09h0c.36.54.74,1,1.13,1.54h0l-1.54,1.3ZM44.35,198.05v-.17l-1.69-.88h0c.3-.55.57-1.13.82-1.72h.1l1.77.73h0c-.27.65-.57,1.3-.91,1.92l-.09.12ZM7.51,197.64h0c-.32-.61-.61-1.25-.86-1.89v-.08l1.85-.74v.05c.23.57.49,1.14.77,1.68h0v.14l-1.76.84ZM46.09,194.05l-1.92-.58v-.05c.18-.59.33-1.21.46-1.84l.1-.05h0l1.87.36h0c-.13.69-.3,1.38-.51,2.05v.11ZM5.94,193.74v-.06c-.2-.67-.36-1.36-.48-2.05v-.06l1.92-.34v.05c.11.62.26,1.24.43,1.85v.06h0l-1.87.55ZM46.94,189.93l-2-.18v-.05c.06-.59.09-1.18.09-1.77,0-.04,0-.09,0-.13v-.06h2v.05c0,.05,0,.11,0,.16,0,.67-.03,1.32-.09,1.95v.03ZM5.24,189.61v-.05c0-.55-.06-1.09-.06-1.63v-.53h2v1.96h0l-1.94.25ZM44.85,186h0c-.07-.61-.16-1.23-.29-1.84v-.09h0l1.91-.4h0v.09c.14.66.24,1.35.32,2v.05l-1.94.19ZM7.23,185.71h-.06l-1.93-.29c.09-.69.21-1.39.36-2.08v-.05l1.95.45h0c-.15.62-.26,1.24-.33,1.87v.1ZM44.09,182.29v-.05c-.19-.6-.42-1.2-.67-1.78v-.06l1.84-.8v.06c.28.64.52,1.31.74,2h0l-1.91.63ZM8.02,181.99h0l-1.84-.62h0c.22-.68.47-1.35.77-2h.06l1.78.8h0c-.25.57-.49,1.17-.69,1.77l-.08.05ZM42.59,178.8h0c-.3-.55-.64-1.09-1-1.61h0l1.59-1.12h0c.39.56.77,1.16,1.12,1.78v.05l-1.71.9ZM9.59,178.54l-1.73-1h0c.35-.61.73-1.19,1.14-1.76v-.08l1.66,1.2h0c-.36.51-.7,1.05-1,1.6l-.07.04ZM40.41,175.68h0c-.4-.47-.83-.92-1.28-1.35h0l-.09-.06,1.4-1.47.15.12h0c.47.46.93.94,1.35,1.43h.11l-1.64,1.33ZM11.81,175.46h0l-1.46-1.29v-.05c.46-.51,1-1,1.46-1.49v-.1l1.42,1.47h0c-.47.43-.91.88-1.33,1.36l-.09.1ZM37.68,173h0c-.5-.39-1.02-.75-1.56-1.09h0l1.06-1.68h.05c.6.38,1.18.79,1.73,1.21h0l-1.28,1.56ZM14.61,172.82h0l-1.18-1.56h0v-.14l.07.1c.55-.41,1.11-.8,1.7-1.15h0l1,1.71h0c-.54.32-1.05.67-1.55,1.05h-.04ZM34.51,171h0c-.57-.28-1.15-.54-1.75-.76h-.06v-.06l.68-1.82h0c.66.24,1.3.52,1.93.84l.2.09h-.19l-.81,1.71ZM17.89,170.87h0l-.84-1.76h.06c.63-.31,1.28-.58,1.94-.81h0l.68,1.88h-.05c-.6.21-1.19.46-1.76.73l-.03-.04ZM30.96,169.66h-.05c-.61-.17-1.23-.3-1.86-.4h-.05l.3-1.93h.05c.71.11,1.4.26,2.07.43h.05l-.51,1.9ZM21.45,169.58l-.49-1.94h.06c.69-.17,1.38-.3,2.07-.4h.05l.28,2h-.05c-.63.09-1.25.21-1.86.36l-.06-.02ZM27.22,169.05h-2.02l-.12-2.05h2.16l.05.05-.07,2Z" style="fill: #fff;"/>
  <path d="M15.51,206.06c-.3-.17-.6-.35-.89-.54l1.08-1.68c.27.17.54.34.82.5l-1.01,1.72Z" style="fill: #fff;"/>
  <path d="M98.85,206.07l-1-1.74c.28-.16.55-.32.81-.49l1.09,1.68c-.24.19-.59.37-.9.55Z" style="fill: #fff;"/>
  <polygon points="99.72 205.52 99.68 205.5 98.62 203.87 98.75 203.83 98.75 203.86 99.84 205.52 99.72 205.52" style="fill: #fff;"/>
  <path d="M77.06,205.54h0l-.28-.18v-.06h0l1.09-1.62.12.08.17.11h0l-1.1,1.67ZM101.43,204.3h-.06l-1.2-1.51h0c.5-.39.97-.81,1.42-1.26h0l1.37,1.4h0v.05h-.1c-.49.48-1,.93-1.53,1.36h0l.1-.04ZM75.1,204.12v-.05c-.53-.44-1.04-.91-1.53-1.4h-.16l1.48-1.46h0c.45.45.92.88,1.41,1.28h0v.07l-1.2,1.56ZM104.42,201.39l-1.53-1.29h0c.38-.46.76-1,1.12-1.49l-.09-.06h.09v-.07l1.73,1.16v.06c-.39.58-.82,1.14-1.27,1.68h-.05ZM72.14,201.14h0c-.44-.54-.86-1.11-1.24-1.7h0l1.61-1.19v.05c.34.51.71,1,1.12,1.52h.12l-1.61,1.32ZM106.72,198.05v-.17l-1.69-.91h0c.3-.56.58-1.14.82-1.72h.06l1.81.75h0c-.27.65-.57,1.3-.91,1.92l-.09.13ZM69.83,197.64v-.06c-.32-.61-.61-1.25-.88-1.91h0l1.81-.72v.05c.24.59.5,1.17.8,1.73v.05h-.06l-1.67.86ZM108.33,194.33v-.33l-1.83-.55v-.05c.18-.61.34-1.23.46-1.85h0l1.91.37h0c-.13.69-.3,1.38-.51,2.05l-.03.36ZM68.27,193.74v-.05c-.19-.68-.35-1.38-.48-2.06h0l2-.35v.05c.12.63.26,1.25.43,1.85h0v.05l-1.95.51ZM109.13,190v-.08l-1.9-.17v-.05c0-.58.08-1.18.08-1.77v-.2h2v.21c0,.64,0,1.28-.09,1.9h.07l-.16.16ZM67.51,189.61v-.06c0-.53-.06-1.08-.06-1.62v-.53h2v2.02l-1.94.19ZM107.22,186h0c-.07-.63-.17-1.26-.3-1.88v-.12l1.95-.41h0c.14.69.25,1.39.33,2.09h0v.05l-1.98.27ZM69.58,185.71l-2-.25v-.09c.09-.67.21-1.33.36-2v-.05l2,.45h0c-.14.62-.25,1.25-.33,1.88l-.03.06ZM106.45,182.29v-.05c-.19-.6-.41-1.18-.65-1.74h0v-.1h.06l1.77-.77.06.11h0c.27.63.5,1.27.71,1.91h0l-1.95.64ZM70.45,182.01h-.06l-1.88-.69v-.06c.22-.65.48-1.3.77-1.94v-.07l1.85.83h0c-.27.58-.5,1.17-.7,1.77l.02.16ZM104.98,178.8h0c-.3-.56-.64-1.1-1-1.62v-.18l1.53-1.1h0c.41.58.79,1.17,1.13,1.79v.06h0l-1.66,1.05ZM71.98,178.53h0l-1.66-1-.36-.09h.38c.35-.6.73-1.19,1.13-1.74h0l1.62,1.17h0c-.36.52-.69,1.05-1,1.6l-.11.06ZM102.82,175.69h0c-.41-.48-.85-.94-1.31-1.38h-.05l1.34-1.41h0c.51.49,1,1,1.45,1.52h0l-1.43,1.27ZM74.23,175.46h-.05l-1.45-1.29v-.05c.47-.52.96-1.03,1.48-1.5h0l1.38,1.38h0c-.46.43-.91.88-1.32,1.34l-.04.12ZM100.04,173h0c-.49-.38-1-.75-1.56-1.09h-.05v-.05l1-1.64h0c.6.37,1.17.78,1.73,1.21h0l-1.12,1.57ZM76.97,172.82h0l-1.17-1.55h0c.54-.46,1.12-.88,1.71-1.27h0l1,1.71h0c-.55.33-1.07.68-1.58,1.07l.04.04ZM96.83,171h0c-.56-.28-1.13-.52-1.71-.74l-.08-.08.69-1.83h.08c.62.24,1.25.51,1.88.82h.07l-.93,1.83ZM80.25,170.85h0l-.91-1.85h0v-.13l.06.1c.63-.29,1.25-.55,1.87-.77h0l.66,1.84h0c-.57.23-1.13.5-1.68.79v.02ZM93.25,169.66h0c-.62-.17-1.24-.3-1.87-.4h0v-.06l.31-1.93h0c.69.11,1.38.25,2.07.43h.05l-.56,1.96ZM83.78,169.57v-.05h0l-.47-1.88h0c.69-.17,1.39-.3,2.07-.4h0l.28,2h0c-.63.09-1.26.21-1.87.36v-.03ZM89.51,169h-1.91l-.16-2h2.11l-.04,2Z" style="fill: #fff;"/>
  <path d="M77.91,206.06c-.3-.17-.6-.35-.89-.54l1.09-1.68c.26.17.53.34.81.5l-1.01,1.72Z" style="fill: #fff;"/>
  <path d="M87.79,150h2.09v1h-3.14v-.48c-.01-.16-.01-.32,0-.48.12-.67.54-1.1,1.3-1.7s1-.89,1-1.29c-.01-.37-.31-.66-.68-.66-.36,0-.66.29-.67.65,0,0,0,0,0,.01h-1c0-.91.73-1.64,1.64-1.64.91,0,1.64.73,1.64,1.64h0c0,.93-.55,1.44-1.34,2-.35.25-.64.57-.84.95Z" style="fill: #fff;"/>
  <path d="M27.18,213.71c.64.64.63,1.68-.01,2.32-.41.41-1.01.57-1.57.42-.72-.2-1.22-.85-1.22-1.59h1c0,.37.3.67.67.67s.67-.3.67-.67c0-.37-.3-.67-.67-.67h-.35v-1h.35c.27,0,.52-.16.62-.41.15-.34-.01-.73-.35-.88-.17-.07-.36-.07-.53,0-.25.1-.41.35-.41.62h-1c0-.91.73-1.64,1.64-1.64.91,0,1.64.73,1.64,1.64,0,.43-.17.85-.48,1.16v.03Z" style="fill: #fff;"/>
  <path d="M90.02,210.91v5.59h-1v-2.5c-.51.23-1.1.19-1.57-.12-.46-.3-.75-.82-.75-1.37v-1.64h1v1.64c.05.37.38.64.76.59.31-.04.55-.28.59-.59v-1.64l.97.04Z" style="fill: #fff;"/>
  <path d="M26.74,146.3v4.64h-1v-4.62h-.43v-1h.48c.53.03.94.45.95.98Z" style="fill: #fff;"/>
  <path d="M58.72,165.54c.44.42.69,1,.69,1.61v1.85h-1.21v-1.89c0-.55-.45-1-1-1s-1,.45-1,1v1.89h-1.21v-1.89c0-.61.25-1.19.69-1.61-.44-.41-.69-.99-.69-1.6v-1.89h1.21v1.89c0,.36.19.69.5.87.31.18.69.18,1,0,.31-.18.5-.51.5-.87v-1.89h1.21v1.89c.01.62-.24,1.22-.69,1.64Z" style="fill: #fff;"/>
  <circle cx="57.2" cy="97.09" r="2.81" style="fill: #f0f;"/>
  <circle cx="26.02" cy="122.6" r="2.83" style="fill: red;"/>
  <circle cx="88.38" cy="122.6" r="2.83" style="fill: red;"/>
  <circle cx="26.02" cy="187.79" r="2.83" style="fill: red;"/>
  <circle cx="14.68" cy="233.15" r="2.83" style="fill: lime;"/>
  <circle cx="43.03" cy="233.15" r="2.83" style="fill: lime;"/>
  <circle cx="99.72" cy="233.15" r="2.83" style="fill: lime;"/>
  <circle cx="71.38" cy="233.15" r="2.83" style="fill: lime;"/>
  <circle cx="14.68" cy="270" r="2.83" style="fill: lime;"/>
  <circle cx="43.03" cy="270" r="2.83" style="fill: lime;"/>
  <circle cx="99.72" cy="270" r="2.83" style="fill: lime;"/>
  <circle cx="71.38" cy="270" r="2.83" style="fill: lime;"/>
  <circle cx="88.38" cy="187.79" r="2.83" style="fill: red;"/>
  <circle cx="57.2" cy="155.2" r="2.81" style="fill: #f0f;"/>
  <path d="M41.72,78.49c-14.78-8.58-19.81-27.51-11.23-42.29,8.58-14.78,27.51-19.81,42.29-11.23,14.78,8.58,19.81,27.51,11.23,42.29-2.7,4.66-6.57,8.53-11.23,11.23l-1.51-2.59c13.38-7.75,17.96-24.88,10.21-38.26-7.75-13.38-24.88-17.96-38.26-10.21-13.38,7.75-17.96,24.88-10.21,38.26,2.45,4.24,5.97,7.76,10.21,10.21l-1.5,2.59Z" style="fill: #ffc300;"/>
  <path d="M99.69,294.67H14.69c-6.73,0-12.18,5.45-12.18,12.18s5.45,12.18,12.18,12.18h85c6.73,0,12.19-5.44,12.19-12.17,0-6.73-5.44-12.19-12.17-12.19h-.03Z" style="fill: #ffc300;"/>
  <rect x="17.48" y="86.1" width="4.59" height="4.59" transform="translate(-56.71 39.88) rotate(-45)" style="fill: #ffc300;"/>
  <rect x="17.48" y="79.61" width="4.59" height="4.59" transform="translate(-52.13 37.97) rotate(-45)" style="fill: #ffc300;"/>
  <rect x="23.97" y="86.1" width="4.59" height="4.59" transform="translate(-54.81 44.46) rotate(-45)" style="fill: #ffc300;"/>
  <rect x="23.97" y="79.61" width="4.59" height="4.59" transform="translate(-50.22 42.56) rotate(-45)" style="fill: #ffc300;"/>
  <rect x="82.8" y="86.1" width="4.59" height="4.59" transform="translate(-37.58 86.06) rotate(-45)" style="fill: #ffc300;"/>
  <rect x="82.8" y="79.61" width="4.59" height="4.59" transform="translate(-32.99 84.16) rotate(-45)" style="fill: #ffc300;"/>
  <rect x="89.29" y="86.1" width="4.59" height="4.59" transform="translate(-35.68 90.65) rotate(-45)" style="fill: #ffc300;"/>
  <rect x="89.29" y="79.61" width="4.59" height="4.59" transform="translate(-31.09 88.75) rotate(-45)" style="fill: #ffc300;"/>
  <path d="M13.27,324.87c.35.33.55.8.55,1.28v1.51h-1v-1.51c0-.44-.36-.8-.8-.8s-.8.36-.8.8h0v1.51h-1v-1.51c0-.48.2-.95.55-1.28-.35-.34-.55-.8-.55-1.29v-1.51h1v1.51c0,.29.14.55.39.7.25.14.56.14.81,0,.25-.14.4-.41.4-.7v-1.51h1v1.51c0,.49-.2.95-.55,1.29Z" style="fill: #fff;"/>
  <path d="M17.02,324.47v.81h-.88v.87h-.8v-.87h-.83v-.81h.87v-.87h.8v.87h.84Z" style="fill: #fff;"/>
  <path d="M41.62,324.87c.35.33.55.8.55,1.28v1.51h-1v-1.51c0-.44-.36-.8-.8-.8-.44,0-.8.36-.8.8v1.51h-1v-1.51c0-.49.19-.95.55-1.28-.36-.33-.55-.8-.55-1.29v-1.51h1v1.51c0,.29.15.56.4.7.25.14.55.14.8,0,.25-.14.4-.41.4-.7v-1.51h1v1.51c0,.49-.2.95-.55,1.29Z" style="fill: #fff;"/>
  <path d="M42.81,325.28v-.81h2.55v.81h-2.55Z" style="fill: #fff;"/>
  <path d="M72.11,322.07v1.51c0,.79-.52,1.48-1.28,1.7v2.38h-1v-2.38c-.76-.22-1.28-.91-1.28-1.7v-1.51h1v1.51c0,.44.34.79.78.8,0,0,0,0,.01,0,.44,0,.8-.35.81-.79,0,0,0,0,0-.01v-1.51h.96Z" style="fill: #fff;"/>
  <path d="M97.22,324.87c.35.33.55.8.55,1.28v1.51h-1v-1.51c0-.44-.36-.8-.8-.8-.44,0-.8.36-.8.8v1.51h-1v-1.51c0-.48.2-.95.55-1.28-.35-.34-.55-.8-.55-1.29v-1.51h1v1.51c0,.29.15.56.4.7.25.14.55.14.8,0,.25-.14.4-.41.4-.7v-1.51h1v1.51c0,.49-.2.95-.55,1.29Z" style="fill: #fff;"/>
  <path d="M100.97,324.47v.81h-.87v.87h-.81v-.87h-.87v-.81h.87v-.87h.81v.87h.87Z" style="fill: #fff;"/>
  <path d="M105.14,322.07v1.51c0,.79-.52,1.48-1.28,1.7v2.38h-1v-2.38c-.76-.22-1.28-.91-1.28-1.7v-1.51h1v1.51c0,.44.36.8.8.8.44,0,.8-.36.8-.8v-1.51h.96Z" style="fill: #fff;"/>
  <g>
    <polygon points="52.61 359.16 54.69 361.24 59.06 361.24 56.98 359.16 52.61 359.16" style="fill: #ffc300;"/>
    <polygon points="62.66 359.16 58.29 359.16 60.37 361.24 64.74 361.24 62.66 359.16" style="fill: #ffc300;"/>
    <path d="M63.32,358.5l2.08,2.08v-7.48c0-1.17-.47-2.29-1.3-3.12l-1.08-1.08c.2.53.3,1.09.3,1.65v7.95Z" style="fill: #ffc300;"/>
    <path d="M61.43,348c-.75-.88-1.85-1.38-3-1.38h-2.53c-2.19,0-3.97,1.76-4,3.95v7.68h4.81v-7c0-.25.21-.46.46-.46.25,0,.46.21.46.46v7h4.76v-7.68c0-.94-.34-1.86-.96-2.57Z" style="fill: #ffc300;"/>
  </g>
  <polygon points="104.99 6.58 104.99 8.78 107.19 6.58 107.19 4.39 104.99 6.58" style="fill: #fff; stroke: #040006; stroke-miterlimit: 10; stroke-width: .25px;"/>
  <polygon points="102.8 10.97 102.8 13.16 104.99 10.97 104.99 8.78 102.8 10.97" style="fill: #fff; stroke: #040006; stroke-miterlimit: 10; stroke-width: .25px;"/>
  <polygon points="102.8 6.58 100.61 6.58 102.8 8.78 104.99 8.78 102.8 6.58" style="fill: #fff; stroke: #040006; stroke-miterlimit: 10; stroke-width: .25px;"/>
  <polygon points="102.8 4.39 102.8 6.58 104.99 8.78 104.99 6.58 102.8 4.39" style="fill: #ffc300; stroke: #040006; stroke-miterlimit: 10; stroke-width: .25px;"/>
  <polygon points="107.19 6.58 104.99 8.78 107.19 8.78 109.38 6.58 107.19 6.58" style="fill: #ffc300; stroke: #040006; stroke-miterlimit: 10; stroke-width: .25px;"/>
  <polygon points="102.8 8.78 100.61 10.97 102.8 10.97 104.99 8.78 102.8 8.78" style="fill: #ffc300; stroke: #040006; stroke-miterlimit: 10; stroke-width: .25px;"/>
  <polygon points="107.19 8.78 104.99 8.78 107.19 10.97 109.38 10.97 107.19 8.78" style="fill: #fff; stroke: #040006; stroke-miterlimit: 10; stroke-width: .25px;"/>
  <polygon points="104.99 8.78 104.99 10.97 107.19 13.16 107.19 10.97 104.99 8.78" style="fill: #ffc300; stroke: #040006; stroke-miterlimit: 10; stroke-width: .25px;"/>
  <path d="M101.92,355.75h0c0-.16-.01-.31-.02-.46.02.15.03.3.03.45,0,.35-.04.68-.12,1,.07-.32.11-.65.11-.99Z" style="fill: #010100;"/>
  <path d="M98.11,351.35h-8.95c-.11-.01-.23-.01-.34,0-2.43.12-4.3,2.18-4.18,4.6.11,2.43,2.16,4.3,4.59,4.19h8.81c.14.01.28.01.42,0,2.43-.12,4.3-2.18,4.18-4.6-.11-2.41-2.13-4.27-4.53-4.19Z" style="fill: #010100;"/>
  <path d="M24.66,12.9h-8.8c-2.43.12-4.49-1.76-4.6-4.19-.12-2.43,1.76-4.49,4.19-4.6.14,0,.28,0,.42,0h8.8c2.43-.12,4.49,1.76,4.6,4.19.12,2.43-1.76,4.49-4.19,4.6-.14,0-.28,0-.42,0Z" style="fill: #010100;"/>
  <path d="M29.06,8.5c0,2.43-1.97,4.4-4.4,4.4h-8.8c-2.43.12-4.49-1.76-4.6-4.19-.12-2.43,1.76-4.49,4.19-4.6.14,0,.28,0,.42,0h8.8c2.43,0,4.39,1.96,4.4,4.39Z" style="fill: #010100;"/>
  <circle cx="14.68" cy="306.85" r="2.83" style="fill: blue;"/>
  <circle cx="43.03" cy="306.85" r="2.83" style="fill: blue;"/>
  <circle cx="99.72" cy="306.85" r="2.83" style="fill: blue;"/>
  <circle cx="71.38" cy="306.85" r="2.83" style="fill: blue;"/>
</svg>