<?xml version="1.0" encoding="UTF-8"?>
<svg id="a" xmlns="http://www.w3.org/2000/svg" width="50.57mm" height="128.5mm" viewBox="0 0 143.35 364.25">
  <rect width="143.35" height="364.25"/>
  <g>
    <path d="M17.24,284.8v.85h-.99v4.05h-.85v-4.05h-.99v-.85h2.83Z" style="fill: #fff;"/>
    <path d="M20.34,287.25c.27.27.42.63.42,1.01v1.44h-.85v-1.44c0-.32-.25-.58-.57-.59h-.61v2.03h-.85v-4.05h-.37v-.85h1.8c.79,0,1.44.64,1.44,1.44,0,.38-.15.74-.42,1.01h.01ZM19.34,286.82c.32-.01.57-.28.57-.6s-.27-.58-.59-.58h-.59v1.18h.61Z" style="fill: #fff;"/>
    <path d="M22.53,285.67v3.2h.37v.85h-1.58v-.85h.37v-3.2h-.37v-.85h1.59v.85h-.38Z" style="fill: #fff;"/>
    <path d="M26.72,286.83v1.24c0,.9-.73,1.62-1.63,1.62s-1.62-.72-1.63-1.62v-1.64c0-.66.4-1.25,1.01-1.5s1.31-.11,1.78.35l-.6.6c-.22-.22-.56-.29-.85-.17s-.48.41-.48.72v1.64c0,.43.35.78.78.78s.78-.35.78-.78v-.4h-.78v-.85h1.63-.01Z" style="fill: #fff;"/>
  </g>
  <g>
    <path d="M51.61,285.67v3.2h.37v.85h-1.58v-.85h.37v-3.2h-.37v-.85h1.59v.85h-.38Z" style="fill: #fff;"/>
    <path d="M55.91,286.36v3.34h-.85v-3.34c0-.26-.13-.49-.35-.62-.22-.13-.49-.13-.71,0s-.35.37-.35.62v3.34h-.85v-4.04h-.41v-.85h.42c.24,0,.47.1.63.29.26-.19.58-.3.91-.29.86,0,1.55.7,1.55,1.55h0Z" style="fill: #fff;"/>
  </g>
  <g>
    <path d="M81.63,286.43v1.64c0,.9-.73,1.63-1.63,1.63s-1.63-.73-1.63-1.63v-1.64c0-.9.73-1.63,1.63-1.63s1.63.73,1.63,1.63ZM80.78,286.43c0-.43-.35-.78-.78-.78s-.78.35-.78.78v1.64c0,.43.35.78.78.78s.78-.35.78-.78v-1.64Z" style="fill: #fff;"/>
    <path d="M83.04,285.95c-.11.18-.11.41,0,.59s.3.29.51.29h1.57v.85h-1.57c-.2,0-.4-.04-.59-.13v2.15h-.85v-3.46c0-.79.64-1.44,1.44-1.44h1.57v.85h-1.57c-.21,0-.41.11-.51.29h0Z" style="fill: #fff;"/>
    <path d="M86.6,285.95c-.11.18-.11.41,0,.59s.3.29.51.29h1.57v.85h-1.57c-.2,0-.4-.04-.59-.13v2.15h-.85v-3.46c0-.79.64-1.44,1.44-1.44h1.57v.85h-1.57c-.21,0-.41.11-.51.29h0Z" style="fill: #fff;"/>
    <path d="M92.22,288.35c-.03.77-.67,1.35-1.49,1.35-1.02,0-1.38-.72-1.46-.94l.81-.31c.07.17.23.38.65.38.35,0,.61-.22.63-.53,0-.11.02-.45-.77-.72-1.15-.4-1.37-1.07-1.35-1.57.03-.77.67-1.35,1.49-1.35,1.02,0,1.38.72,1.46.94l-.81.31c-.07-.17-.23-.38-.65-.38-.35,0-.61.22-.63.53,0,.11-.02.45.77.72,1.15.4,1.37,1.07,1.35,1.57Z" style="fill: #fff;"/>
    <path d="M93.62,286.24c0,.33.26.59.59.59h1.57v.85h-1.57c-.2,0-.4-.04-.59-.13v.72c0,.33.26.59.59.59h1.57v.85h-1.57c-.79,0-1.44-.64-1.44-1.44v-2.03c0-.79.64-1.44,1.44-1.44h1.57v.85h-1.57c-.33,0-.59.26-.59.59Z" style="fill: #fff;"/>
    <path d="M99.03,284.8v.85h-.99v4.05h-.85v-4.05h-.99v-.85s2.83,0,2.83,0Z" style="fill: #fff;"/>
  </g>
  <g>
    <path d="M117.77,325.75c-.03.77-.67,1.35-1.49,1.35-1.02,0-1.38-.72-1.46-.94l.81-.31c.07.17.23.38.65.38.35,0,.61-.22.63-.53,0-.11.02-.45-.77-.72-1.15-.4-1.37-1.07-1.35-1.57.03-.77.67-1.35,1.49-1.35,1.02,0,1.38.72,1.46.94l-.81.31c-.07-.17-.23-.38-.65-.38-.35,0-.61.22-.63.53,0,.11-.02.45.77.72,1.15.4,1.37,1.07,1.35,1.57Z" style="fill: #fff;"/>
    <path d="M123.64,323.67v3.43h-.85v-3.43c0-.35-.28-.63-.63-.63s-.63.28-.63.63v3.43h-.85v-3.43c0-.35-.28-.63-.63-.63s-.63.28-.63.63v3.43h-.85v-4.04h-.4v-.85h.42c.23,0,.45.09.6.26.59-.42,1.39-.35,1.9.17.28-.28.66-.44,1.05-.44.81,0,1.47.66,1.47,1.47h.03Z" style="fill: #fff;"/>
    <path d="M126.89,322.2v.85h-.99v4.05h-.85v-4.05h-.99v-.85s2.83,0,2.83,0Z" style="fill: #fff;"/>
    <path d="M130.57,322.21v4.89h-.85v-2.02h-1.57v2.03h-.85v-4.9h.85v2.02h1.57v-2.02h.85Z" style="fill: #fff;"/>
  </g>
  <g>
    <path d="M17.03,325.75c-.03.77-.67,1.35-1.49,1.35-1.02,0-1.38-.72-1.46-.94l.81-.31c.07.17.23.38.65.38.35,0,.61-.22.63-.53,0-.11.02-.45-.77-.72-1.15-.4-1.37-1.07-1.35-1.57.03-.77.67-1.35,1.49-1.35,1.02,0,1.38.72,1.46.94l-.81.31c-.07-.17-.23-.38-.65-.38-.35,0-.61.22-.63.53,0,.11-.02.45.77.72,1.15.4,1.37,1.07,1.35,1.57Z" style="fill: #fff;"/>
    <path d="M20.28,322.2v.85h-.99v4.05h-.85v-4.05h-.99v-.85h2.83Z" style="fill: #fff;"/>
    <path d="M21.54,323.64c0,.33.26.59.59.59h1.57v.85h-1.57c-.2,0-.4-.04-.59-.13v.72c0,.33.26.59.59.59h1.57v.85h-1.57c-.79,0-1.44-.64-1.44-1.44v-2.03c0-.79.64-1.44,1.44-1.44h1.57v.85h-1.57c-.33,0-.59.26-.59.59Z" style="fill: #fff;"/>
    <path d="M25.92,322.2c.79,0,1.44.64,1.44,1.44s-.64,1.44-1.44,1.44h-.59v2.03h-.85v-4.05h-.37v-.85h1.81ZM26.51,323.63c0-.33-.26-.59-.59-.59h-.59v1.18h.59c.33,0,.59-.26.59-.59Z" style="fill: #fff;"/>
  </g>
  <g>
    <path d="M52.88,326.26v.85h-2.83v-4.9h.85v4.05h1.99-.01Z" style="fill: #fff;"/>
    <path d="M54.65,323.07v3.2h.37v.85h-1.58v-.85h.37v-3.2h-.37v-.85h1.59v.85h-.38Z" style="fill: #fff;"/>
    <path d="M58.96,323.76v3.34h-.85v-3.34c0-.26-.13-.49-.35-.62-.22-.13-.49-.13-.71,0s-.35.37-.35.62v3.34h-.85v-4.04h-.41v-.85h.42c.24,0,.47.1.63.29.26-.19.58-.3.91-.29.86,0,1.55.7,1.55,1.55h0Z" style="fill: #fff;"/>
  </g>
  <g>
    <path d="M84.42,323.64c0,.33.26.59.59.59h1.57v.85h-1.57c-.2,0-.4-.04-.59-.13v.72c0,.33.26.59.59.59h1.57v.85h-1.57c-.79,0-1.44-.64-1.44-1.44v-2.03c0-.79.64-1.44,1.44-1.44h1.57v.85h-1.57c-.33,0-.59.26-.59.59Z" style="fill: #fff;"/>
    <path d="M89.75,324.65c.31.29.49.7.48,1.12v1.33h-.85v-1.33c0-.38-.32-.7-.7-.7s-.7.31-.7.7v1.33h-.85v-1.33c0-.43.17-.83.48-1.12-.31-.29-.48-.7-.48-1.12v-1.33h.85v1.33c0,.25.13.48.35.61.22.13.49.13.7,0,.22-.13.35-.36.35-.61v-1.33h.85v1.33c0,.42-.17.83-.48,1.12Z" style="fill: #fff;"/>
    <path d="M92.46,322.2c.79,0,1.44.64,1.44,1.44s-.64,1.44-1.44,1.44h-.59v2.03h-.85v-4.05h-.37v-.85h1.81ZM93.05,323.63c0-.33-.26-.59-.59-.59h-.59v1.18h.59c.33,0,.59-.26.59-.59Z" style="fill: #fff;"/>
  </g>
  <g>
    <path d="M16.82,206.04c.25.25.39.59.39.94v1.34h-.79v-1.34c0-.29-.23-.54-.53-.55h-.57v1.88h-.79v-3.76h-.34v-.79h1.67c.74,0,1.33.6,1.33,1.33,0,.35-.14.69-.39.94h.02ZM15.89,205.64c.3,0,.53-.26.53-.56s-.25-.54-.55-.54h-.55v1.09h.57Z" style="fill: #fff;"/>
    <path d="M20.75,205.28v3.03h-.79v-1.61h-1.45v1.62h-.79v-3.04c0-.83.68-1.51,1.51-1.51s1.51.68,1.51,1.51h.01ZM19.96,205.91v-.63c0-.4-.32-.72-.72-.72s-.72.32-.72.72v.63h1.45-.01Z" style="fill: #fff;"/>
    <path d="M23.76,203.77v.79h-.92v3.76h-.79v-3.76h-.92v-.79h2.63Z" style="fill: #fff;"/>
    <path d="M24.93,205.1c0,.3.25.55.55.55h1.45v.79h-1.45c-.19,0-.38-.04-.55-.12v.67c0,.3.25.55.55.55h1.45v.79h-1.45c-.74,0-1.33-.6-1.33-1.33v-1.88c0-.74.6-1.33,1.33-1.33h1.45v.79h-1.45c-.3,0-.55.25-.55.55v-.03Z" style="fill: #fff;"/>
  </g>
  <g>
    <path d="M117.23,207.06c-.03.72-.62,1.26-1.38,1.26-.95,0-1.28-.67-1.36-.87l.75-.28c.06.16.22.36.61.36.32,0,.57-.21.58-.49,0-.1.02-.42-.71-.67-1.07-.37-1.27-1-1.25-1.46.03-.72.62-1.26,1.38-1.26.95,0,1.28.67,1.36.87l-.75.28c-.06-.16-.22-.36-.61-.36-.32,0-.57.21-.58.49,0,.1-.02.42.71.67,1.07.37,1.27,1,1.25,1.46Z" style="fill: #fff;"/>
    <path d="M120.78,203.77v4.54h-.79v-1.88h-1.45v1.88h-.79v-4.55h.79v1.88h1.45v-1.88h.79Z" style="fill: #fff;"/>
    <path d="M124.31,205.28v3.03h-.79v-1.61h-1.45v1.62h-.79v-3.04c0-.83.68-1.51,1.51-1.51s1.51.68,1.51,1.51h0ZM123.53,205.91v-.63c0-.4-.32-.72-.72-.72s-.72.32-.72.72v.63h1.45,0Z" style="fill: #fff;"/>
    <path d="M127.71,205.1c0,.74-.6,1.33-1.33,1.33h-.55v1.88h-.79v-3.76h-.34v-.79h1.67c.74,0,1.33.6,1.33,1.33h.01ZM126.92,205.1c0-.3-.24-.55-.55-.55h-.55v1.09h.55c.3,0,.55-.25.55-.55h0Z" style="fill: #fff;"/>
    <path d="M128.89,205.1c0,.3.25.55.55.55h1.45v.79h-1.45c-.19,0-.38-.04-.55-.12v.67c0,.3.25.55.55.55h1.45v.79h-1.45c-.74,0-1.33-.6-1.33-1.33v-1.88c0-.74.6-1.33,1.33-1.33h1.45v.79h-1.45c-.3,0-.55.25-.55.55v-.03Z" style="fill: #fff;"/>
  </g>
  <g>
    <path d="M85.46,206.04c.25.25.39.59.39.94v1.34h-.79v-1.34c0-.29-.23-.54-.53-.55h-.57v1.88h-.79v-3.76h-.34v-.79h1.67c.74,0,1.33.6,1.33,1.33,0,.35-.14.69-.39.94h.02ZM84.54,205.64c.3,0,.53-.26.53-.56s-.25-.54-.55-.54h-.55v1.09h.57Z" style="fill: #fff;"/>
    <path d="M89.51,205.21v3.1h-.79v-3.1c0-.24-.12-.46-.33-.58s-.46-.12-.66,0c-.21.12-.33.34-.33.58v3.1h-.79v-3.75h-.38v-.79h.39c.22,0,.44.1.58.27.25-.18.54-.27.85-.27.8,0,1.44.65,1.44,1.44h.02Z" style="fill: #fff;"/>
    <path d="M93.14,205.23v1.63c0,.8-.65,1.46-1.46,1.46h-1.45v-3.76h-.34v-.79h1.79c.8,0,1.46.65,1.46,1.46h0ZM92.36,205.23c0-.37-.3-.67-.67-.67h-.66v2.97h.66c.37,0,.67-.3.67-.67v-1.63Z" style="fill: #fff;"/>
  </g>
  <g>
    <path d="M51.14,205.1c0,.74-.6,1.33-1.33,1.33h-.55v1.88h-.79v-3.76h-.34v-.79h1.67c.74,0,1.33.6,1.33,1.33h.01ZM50.35,205.1c0-.3-.24-.55-.55-.55h-.55v1.09h.55c.3,0,.55-.25.55-.55h0Z" style="fill: #fff;"/>
    <path d="M54.02,206.04c.25.25.39.59.39.94v1.34h-.79v-1.34c0-.29-.23-.54-.53-.55h-.57v1.88h-.79v-3.76h-.34v-.79h1.67c.74,0,1.33.6,1.33,1.33,0,.35-.14.69-.39.94h.02ZM53.09,205.64c.3,0,.53-.26.53-.56s-.25-.54-.55-.54h-.55v1.09h.57Z" style="fill: #fff;"/>
    <path d="M57.89,205.28v1.52c0,.83-.68,1.51-1.51,1.51s-1.51-.68-1.51-1.51v-1.52c0-.83.68-1.51,1.51-1.51s1.51.68,1.51,1.51ZM57.1,205.28c0-.4-.33-.73-.73-.73s-.73.33-.73.73v1.52c0,.4.33.73.73.73s.73-.33.73-.73v-1.52Z" style="fill: #fff;"/>
    <path d="M61.61,207.33c-.16.58-.68.98-1.29.98h-1.77v-3.76h-.34v-.79h1.67c.49,0,.94.27,1.17.7s.21.96-.06,1.36c.52.31.77.92.61,1.5h.01ZM59.34,205.65h.55c.2,0,.38-.1.48-.27s.1-.38,0-.55-.28-.27-.48-.27h-.55v1.09h0ZM60.32,207.53c.3,0,.55-.25.55-.55s-.24-.55-.55-.55h-.98v1.09h.98Z" style="fill: #fff;"/>
  </g>
  <g>
    <path d="M81.07,10.73c.41-.18.72-.44.95-.78.22-.34.33-.74.33-1.21s-.11-.88-.33-1.22-.54-.6-.95-.79-.89-.27-1.46-.27h-2.73v6.3h1.46v-1.75h1.34l1.21,1.76h1.58l-1.41-2.02h.01v-.02ZM80.54,7.93c.22.19.33.46.33.81s-.11.61-.33.81c-.22.19-.56.29-1.01.29h-1.19v-2.2h1.19c.45,0,.79.1,1.01.29Z" style="fill: #fff;"/>
    <path d="M85.48,6.45l-2.81,6.3h1.49l.56-1.35h2.92l.56,1.35h1.53l-2.82-6.3h-1.44.01ZM85.19,10.29l1-2.41,1,2.41h-2Z" style="fill: #fff;"/>
    <polygon points="94.74 10.27 91.6 6.45 90.4 6.45 90.4 12.75 91.84 12.75 91.84 8.93 94.98 12.75 96.18 12.75 96.18 6.45 94.74 6.45 94.74 10.27" style="fill: #fff;"/>
    <path d="M102.34,6.84c-.52-.26-1.12-.39-1.81-.39h-2.86v6.3h2.86c.68,0,1.29-.13,1.81-.39s.93-.63,1.22-1.1.44-1.02.44-1.66-.15-1.2-.44-1.67c-.29-.47-.7-.83-1.22-1.09ZM102.27,10.64c-.17.29-.41.52-.72.68-.31.16-.67.24-1.09.24h-1.33v-3.91h1.33c.42,0,.78.08,1.09.24s.55.38.72.67.26.64.26,1.04-.09.74-.26,1.03h0Z" style="fill: #fff;"/>
    <path d="M110.62,7.27c-.31-.29-.67-.52-1.09-.68s-.88-.24-1.37-.24-.95.08-1.37.24-.79.39-1.1.68-.55.64-.72,1.04-.26.83-.26,1.3.09.9.26,1.3.41.74.72,1.04c.31.29.68.52,1.1.68.42.16.88.24,1.38.24s.95-.08,1.36-.24c.42-.16.78-.39,1.09-.68s.55-.64.72-1.04.26-.83.26-1.3-.09-.91-.26-1.3c-.17-.39-.42-.74-.72-1.03h0ZM109.98,10.42c-.1.25-.24.46-.42.64s-.39.32-.63.41c-.24.1-.5.14-.78.14s-.54-.05-.78-.14c-.24-.1-.45-.23-.62-.41-.18-.18-.32-.39-.41-.64s-.15-.52-.15-.81.05-.57.15-.82.24-.46.42-.64c.18-.18.39-.32.63-.41.24-.1.5-.14.78-.14s.54.05.78.14c.24.1.45.23.62.41.18.18.32.39.41.64.1.25.15.52.15.82s-.05.57-.15.82h0Z" style="fill: #fff;"/>
    <polygon points="119.8 12.75 119.78 6.45 118.59 6.45 116.27 10.36 113.91 6.45 112.7 6.45 112.7 12.75 114.07 12.75 114.07 9.05 115.91 12.08 116.57 12.08 118.42 8.97 118.43 12.75 119.8 12.75" style="fill: #fff;"/>
  </g>
  <path d="M136.2,344.49c-3.58,0-3.58-2.27-7.16-2.27h0c-3.58,0-3.58,2.27-7.16,2.27s-3.58-2.27-7.16-2.27-3.59,2.27-7.17,2.27-3.59-2.27-7.17-2.27-3.58,2.27-7.17,2.27-3.58-2.27-7.16-2.27-3.58,2.27-7.17,2.27-3.58-2.27-7.17-2.27-3.58,2.27-7.17,2.27-3.58-2.27-7.17-2.27-3.58,2.27-7.16,2.27-3.58-2.27-7.17-2.27-3.58,2.27-7.17,2.27-3.58-2.27-7.17-2.27-3.58,2.27-7.17,2.27-3.58-2.27-7.17-2.27-3.58,2.27-7.17,2.27-3.58-2.27-7.16-2.27v21.97h143.34v-21.97c-3.57,0-3.58,2.27-7.16,2.27h.01Z" style="fill: #fff;"/>
  <g>
    <polygon points="66.27 359.1 68.35 361.18 72.72 361.18 70.64 359.1 66.27 359.1" style="fill: #fec600;"/>
    <polygon points="76.33 359.1 71.96 359.1 74.03 361.18 78.4 361.18 76.33 359.1" style="fill: #fec600;"/>
    <path d="M76.98,358.44l2.08,2.08v-7.48c0-1.17-.46-2.29-1.29-3.12l-1.08-1.08c.19.52.3,1.07.3,1.66v7.95h-.01Z" style="fill: #fec600;"/>
    <path d="M75.1,347.92c-.72-.84-1.8-1.38-3-1.38h-2.54c-2.18,0-3.95,1.77-3.95,3.95v7.68h4.76v-6.98c0-.26.21-.46.46-.46s.46.21.46.46v6.98h4.75v-7.68c0-.98-.36-1.88-.96-2.57h.02Z" style="fill: #fec600;"/>
  </g>
  <g>
    <path d="M11.69,197.27l-.03-.04c-.35-.42-.67-.86-.94-1.31l-.03-.04,1.27-.79.03.04c.25.39.53.77.84,1.13l.03.03h0l-.04.05-1.11.93h-.02ZM14,199.54l-.04-.03c-.44-.32-.85-.68-1.22-1.05l-.03-.04,1.05-1.06.03.04c.34.32.69.63,1.08.91l.03.03h0l-.03.05-.87,1.16h0ZM29.64,197.19h-.05l-1.11-.94.03-.04c.3-.35.55-.72.8-1.1h0l.06-.07.05.02,1.23.76-.03.05c-.28.45-.6.89-.94,1.31l-.02.02h-.02ZM27.17,199.44l-.05-.02-.83-1.19.03-.03c.37-.26.72-.55,1.06-.85h0l.08-.06.04.03.99,1.05-.04.04c-.39.36-.81.71-1.25,1.02h-.03ZM9.98,194.57l-.02-.05c-.22-.49-.41-1-.57-1.51l-.02-.07h.07l1.38-.4v.05c.13.43.3.87.49,1.32l.02.02-.05.05-1.3.59h0ZM31.33,194.49l-1.38-.61.03-.05c.2-.45.35-.88.48-1.32l.06-.04h.01l1.37.46c-.15.53-.33,1.04-.55,1.51,0,0-.02.05-.02.05ZM9.06,191.5v-.07c-.08-.5-.12-1.04-.13-1.6v-.05h1.5s0,.04,0,.04c0,.45.04.91.11,1.36v.09l-.03.02-1.44.21h-.01ZM32.22,191.42l-1.48-.22v-.05c.02-.06.03-.12.04-.18.05-.38.07-.78.08-1.18v-.09h.05s1.44,0,1.44,0v.07c0,.47-.03.94-.08,1.4,0,.07-.02.14-.04.21v.05h-.01ZM10.45,188.47l-1.43-.23c.07-.55.17-1.08.31-1.59v-.04l1.46.38-.02.05c-.12.47-.21.93-.26,1.39h-.1l.04.04h0ZM30.77,188.41v-.05c-.08-.47-.17-.94-.29-1.38v-.06l1.42-.4.03.05c.14.51.24,1.03.31,1.54l-1.47.29h0ZM11.22,185.77h-.05l-1.34-.57.03-.06c.22-.51.46-.98.72-1.43v-.06l1.32.78-.02.04c-.24.39-.46.82-.64,1.26v.04h-.02ZM30.03,185.71l-.02-.04c-.19-.44-.41-.86-.65-1.25v-.02l.03-.07,1.22-.74.03.05c.28.45.53.93.74,1.43l.03.04-1.38.59h0ZM12.62,183.35l-.05-.03-1.12-.9.04-.04c.34-.42.71-.82,1.1-1.19l.04-.03,1.02,1.1-.03.04c-.33.3-.64.65-.92.99M28.59,183.31l-.04-.04c-.3-.37-.61-.72-.95-1.04h-.03l.03-.09.98-1.05.03.04c.4.36.76.76,1.1,1.18l.03.04-1.17.94.02.02ZM14.66,181.44l-.05-.04-.84-1.18.04-.03c.44-.31.9-.59,1.38-.85l.04-.02.7,1.33-.05.02c-.4.21-.79.46-1.17.73l-.06.04h.01ZM26.57,181.4l-.05-.03c-.37-.27-.77-.52-1.2-.73l-.05-.02.03-.06.66-1.29.05.03c.47.25.93.53,1.38.84l.05.03s-.87,1.23-.87,1.23ZM18.3,178.32l-.03.02.29,1.38h-.04c-.44.1-.87.22-1.3.37l-.11.05-.03-.04-.49-1.37h.04c.51-.19,1.01-.34,1.52-.45M24.09,180.1l-.05-.02c-.44-.16-.9-.28-1.35-.37l-.04-.07.29-1.43.06.02c.53.11,1.05.25,1.55.43h.07l-.04.06-.48,1.37h0Z" style="fill: #fff;"/>
    <rect x="19.73" y="176.35" width="1.72" height="3.18" style="fill: #fec600;"/>
  </g>
  <g>
    <path d="M45.71,197.27l-.03-.04c-.35-.42-.67-.86-.94-1.31l-.03-.04,1.27-.79.03.04c.25.39.53.77.84,1.13l.03.03h0l-.04.05-1.11.93h-.02ZM48.02,199.54l-.04-.03c-.44-.32-.85-.68-1.22-1.05l-.03-.04,1.05-1.06.03.04c.34.32.69.63,1.08.91l.03.03h0l-.03.05-.87,1.16h0ZM63.66,197.19h-.05l-1.11-.94.03-.04c.3-.35.55-.72.8-1.1h0l.06-.07.05.02,1.23.76-.03.05c-.28.45-.6.89-.94,1.31l-.02.02h-.02ZM61.18,199.44l-.05-.02-.83-1.19.03-.03c.37-.26.72-.55,1.06-.85h0l.08-.06.04.03.99,1.05-.04.04c-.39.36-.81.71-1.25,1.02h-.03ZM44,194.57l-.02-.05c-.22-.49-.41-1-.57-1.51l-.02-.07h.07l1.38-.4v.05c.13.43.3.87.49,1.32l.02.02-.05.05-1.3.59h0ZM65.35,194.49l-1.38-.61.03-.05c.2-.45.35-.88.48-1.32l.06-.04h0l1.37.46c-.15.53-.33,1.04-.55,1.51l-.02.05ZM43.07,191.5v-.07c-.08-.5-.12-1.04-.13-1.6v-.05h1.5s0,.04,0,.04c0,.45.04.91.11,1.36v.09l-.03.02-1.44.21h-.01ZM66.23,191.42l-1.48-.22v-.05c.02-.06.03-.12.04-.18.05-.38.07-.78.08-1.18v-.09h.05s1.44,0,1.44,0v.07c0,.47-.03.94-.08,1.4,0,.07-.02.14-.04.21v.05h-.01ZM44.47,188.47l-1.43-.23c.07-.55.17-1.08.31-1.59v-.04l1.46.38-.02.05c-.12.47-.21.93-.26,1.39h-.1l.04.04h0ZM64.78,188.41v-.05c-.08-.47-.17-.94-.29-1.38v-.06l1.42-.4.03.05c.14.51.24,1.03.31,1.54l-1.47.29h0ZM45.23,185.77h-.05l-1.34-.57.03-.06c.22-.51.46-.98.72-1.43v-.06l1.32.78-.02.04c-.24.39-.46.82-.64,1.26v.04h-.02ZM64.04,185.71l-.02-.04c-.19-.44-.41-.86-.65-1.25v-.02l.03-.07,1.22-.74.03.05c.28.45.53.93.74,1.43l.03.04-1.38.59h0ZM46.63,183.35l-.05-.03-1.12-.9.04-.04c.34-.42.71-.82,1.1-1.19l.04-.03,1.02,1.1-.03.04c-.33.3-.64.65-.92.99M62.61,183.31l-.04-.04c-.3-.37-.61-.72-.95-1.04h-.03l.03-.09.98-1.05.03.04c.4.36.76.76,1.1,1.18l.03.04-1.17.94.02.02ZM48.68,181.44l-.05-.04-.84-1.18.04-.03c.44-.31.9-.59,1.38-.85l.04-.02.7,1.33-.05.02c-.4.21-.79.46-1.17.73l-.06.04h0ZM60.58,181.4l-.05-.03c-.37-.27-.77-.52-1.2-.73l-.05-.02.03-.06.66-1.29.05.03c.47.25.93.53,1.38.84l.05.03-.87,1.23ZM52.32,178.32l-.03.02.29,1.38h-.04c-.44.1-.87.22-1.3.37l-.11.05-.03-.04-.49-1.37h.04c.51-.19,1.01-.34,1.52-.45M58.1,180.1l-.05-.02c-.44-.16-.9-.28-1.35-.37l-.04-.07.29-1.43.06.02c.53.11,1.05.25,1.55.43h.07l-.04.06-.48,1.37h-.01Z" style="fill: #fff;"/>
    <rect x="53.75" y="176.35" width="1.72" height="3.18" style="fill: #fec600;"/>
  </g>
  <g>
    <path d="M79.72,197.27l-.03-.04c-.35-.42-.67-.86-.94-1.31l-.03-.04,1.27-.79.03.04c.25.39.53.77.84,1.13l.03.03h0l-.04.05-1.11.93h-.02ZM82.03,199.54l-.04-.03c-.44-.32-.85-.68-1.22-1.05l-.03-.04,1.05-1.06.03.04c.34.32.69.63,1.08.91l.03.03h0l-.03.05-.87,1.16h0ZM97.67,197.19h-.05l-1.11-.94.03-.04c.3-.35.55-.72.8-1.1h0l.06-.07.05.02,1.23.76-.03.05c-.28.45-.6.89-.94,1.31l-.02.02h-.02ZM95.2,199.44l-.05-.02-.83-1.19.03-.03c.37-.26.72-.55,1.06-.85h0l.08-.06.04.03.99,1.05-.04.04c-.39.36-.81.71-1.25,1.02h-.03,0ZM78.02,194.57l-.02-.05c-.22-.49-.41-1-.57-1.51l-.02-.07h.07l1.38-.4v.05c.13.43.3.87.49,1.32l.02.02-.05.05-1.3.59h0ZM99.36,194.49l-1.38-.61.03-.05c.2-.45.35-.88.48-1.32l.06-.04h.01l1.37.46c-.15.53-.33,1.04-.55,1.51,0,0-.02.05-.02.05ZM77.09,191.5v-.07c-.08-.5-.12-1.04-.13-1.6v-.05h1.5s0,.04,0,.04c0,.45.04.91.11,1.36v.09l-.03.02-1.44.21h-.01ZM100.25,191.42l-1.48-.22v-.05c.02-.06.03-.12.04-.18.05-.38.07-.78.08-1.18v-.09h.05s1.44,0,1.44,0v.07c0,.47-.03.94-.08,1.4,0,.07-.02.14-.04.21v.05h-.01ZM78.49,188.47l-1.43-.23c.07-.55.17-1.08.31-1.59v-.04l1.46.38-.02.05c-.12.47-.21.93-.26,1.39h-.1l.04.04h0ZM98.8,188.41v-.05c-.08-.47-.17-.94-.29-1.38v-.06l1.42-.4.03.05c.14.51.24,1.03.31,1.54l-1.47.29h0ZM79.25,185.77h-.05l-1.34-.57.03-.06c.22-.51.46-.98.72-1.43v-.06l1.32.78-.02.04c-.24.39-.46.82-.64,1.26v.04h-.02ZM98.06,185.71l-.02-.04c-.19-.44-.41-.86-.65-1.25v-.02l.03-.07,1.22-.74.03.05c.28.45.53.93.74,1.43l.03.04-1.38.59h0ZM80.65,183.35l-.05-.03-1.12-.9.04-.04c.34-.42.71-.82,1.1-1.19l.04-.03,1.02,1.1-.03.04c-.33.3-.64.65-.92.99M96.63,183.31l-.04-.04c-.3-.37-.61-.72-.95-1.04h-.03l.03-.09.98-1.05.03.04c.4.36.76.76,1.1,1.18l.03.04-1.17.94.02.02ZM82.69,181.44l-.05-.04-.84-1.18.04-.03c.44-.31.9-.59,1.38-.85l.04-.02.7,1.33-.05.02c-.4.21-.79.46-1.17.73l-.06.04h.01ZM94.6,181.4l-.05-.03c-.37-.27-.77-.52-1.2-.73l-.05-.02.03-.06.66-1.29.05.03c.47.25.93.53,1.38.84l.05.03-.87,1.23ZM86.34,178.32l-.03.02.29,1.38h-.04c-.44.1-.87.22-1.3.37l-.11.05-.03-.04-.49-1.37h.04c.51-.19,1.01-.34,1.52-.45M92.12,180.1l-.05-.02c-.44-.16-.9-.28-1.35-.37l-.04-.07.29-1.43.06.02c.53.11,1.05.25,1.55.43h.07l-.04.06-.48,1.37h0Z" style="fill: #fff;"/>
    <rect x="87.76" y="176.35" width="1.72" height="3.18" style="fill: #fec600;"/>
  </g>
  <g>
    <path d="M113.74,197.27l-.03-.04c-.35-.42-.67-.86-.94-1.31l-.03-.04,1.27-.79.03.04c.25.39.53.77.84,1.13l.03.03h0l-.04.05-1.11.93h-.02ZM116.05,199.54l-.04-.03c-.44-.32-.85-.68-1.22-1.05l-.03-.04,1.05-1.06.03.04c.34.32.69.63,1.08.91l.03.03h0l-.03.05-.87,1.16h0ZM131.69,197.19h-.05l-1.11-.94.03-.04c.3-.35.55-.72.8-1.1h0l.06-.07.05.02,1.23.76-.03.05c-.28.45-.6.89-.94,1.31l-.02.02h-.02ZM129.21,199.44l-.05-.02-.83-1.19.03-.03c.37-.26.72-.55,1.06-.85h0l.08-.06.04.03.99,1.05-.04.04c-.39.36-.81.71-1.25,1.02h-.03ZM112.03,194.57l-.02-.05c-.22-.49-.41-1-.57-1.51l-.02-.07h.07l1.38-.4v.05c.13.43.3.87.49,1.32l.02.02-.05.05-1.3.59h0ZM133.38,194.49l-1.38-.61.03-.05c.2-.45.35-.88.48-1.32l.06-.04h0l1.37.46c-.15.53-.33,1.04-.55,1.51l-.02.05h0ZM111.11,191.5v-.07c-.08-.5-.12-1.04-.13-1.6v-.05h1.5s0,.04,0,.04c0,.45.04.91.11,1.36v.09l-.03.02-1.44.21h-.01ZM134.27,191.42l-1.48-.22v-.05c.02-.06.03-.12.04-.18.05-.38.07-.78.08-1.18v-.09h.05s1.44,0,1.44,0v.07c0,.47-.03.94-.08,1.4,0,.07-.02.14-.04.21v.05h-.01ZM112.5,188.47l-1.43-.23c.07-.55.17-1.08.31-1.59v-.04l1.46.38-.02.05c-.12.47-.21.93-.26,1.39h-.1l.04.04h0ZM132.82,188.41v-.05c-.08-.47-.17-.94-.29-1.38v-.06l1.42-.4.03.05c.14.51.24,1.03.31,1.54l-1.47.29h0ZM113.26,185.77h-.05l-1.34-.57.03-.06c.22-.51.46-.98.72-1.43v-.06l1.32.78-.02.04c-.24.39-.46.82-.64,1.26v.04h-.02ZM132.08,185.71l-.02-.04c-.19-.44-.41-.86-.65-1.25v-.02l.03-.07,1.22-.74.03.05c.28.45.53.93.74,1.43l.03.04-1.38.59h0ZM114.66,183.35l-.05-.03-1.12-.9.04-.04c.34-.42.71-.82,1.1-1.19l.04-.03,1.02,1.1-.03.04c-.33.3-.64.65-.92.99M130.64,183.31l-.04-.04c-.3-.37-.61-.72-.95-1.04h-.03l.03-.09.98-1.05.03.04c.4.36.76.76,1.1,1.18l.03.04-1.17.94.02.02ZM116.71,181.44l-.05-.04-.84-1.18.04-.03c.44-.31.9-.59,1.38-.85l.04-.02.7,1.33-.05.02c-.4.21-.79.46-1.17.73l-.06.04h.01ZM128.61,181.4l-.05-.03c-.37-.27-.77-.52-1.2-.73l-.05-.02.03-.06.66-1.29.05.03c.47.25.93.53,1.38.84l.05.03-.87,1.23ZM120.35,178.32l-.03.02.29,1.38h-.04c-.44.1-.87.22-1.3.37l-.11.05-.03-.04-.49-1.37h.04c.51-.19,1.01-.34,1.52-.45M126.14,180.1l-.05-.02c-.44-.16-.9-.28-1.35-.37l-.04-.07.29-1.43.06.02c.53.11,1.05.25,1.55.43h.07l-.04.06-.48,1.37h0Z" style="fill: #fff;"/>
    <rect x="121.78" y="176.35" width="1.72" height="3.18" style="fill: #fec600;"/>
  </g>
  <g>
    <path d="M30.6,143.62c-.2,0-.35-.16-.35-.35V59.4c0-.2.16-.35.35-.35s.35.16.35.35v83.86c0,.2-.16.35-.35.35h0Z" style="fill: #fec600;"/>
    <g>
      <circle cx="30.6" cy="59.4" r="1.09" style="fill: #fec600;"/>
      <path d="M30.6,60.85c-.8,0-1.44-.65-1.44-1.44s.65-1.44,1.44-1.44,1.45.65,1.45,1.44-.65,1.44-1.45,1.44ZM30.6,58.67c-.41,0-.74.33-.74.74s.33.74.74.74.74-.33.74-.74-.33-.74-.74-.74Z" style="fill: #fec600;"/>
    </g>
    <g>
      <circle cx="30.6" cy="144.35" r="1.09" style="fill: #fec600;"/>
      <path d="M30.6,145.8c-.8,0-1.44-.65-1.44-1.44s.65-1.44,1.44-1.44,1.45.65,1.45,1.44-.65,1.44-1.45,1.44ZM30.6,143.62c-.41,0-.74.33-.74.74s.33.74.74.74.74-.33.74-.74-.33-.74-.74-.74Z" style="fill: #fec600;"/>
    </g>
  </g>
  <g>
    <path d="M64.6,143.87c-.2,0-.35-.16-.35-.35V59.65c0-.2.16-.35.35-.35s.35.16.35.35v83.86c0,.2-.16.35-.35.35h0Z" style="fill: #fec600;"/>
    <g>
      <circle cx="64.6" cy="59.65" r="1.09" style="fill: #fec600;"/>
      <path d="M64.6,61.1c-.8,0-1.44-.65-1.44-1.44s.65-1.44,1.44-1.44,1.45.65,1.45,1.44-.65,1.44-1.45,1.44ZM64.6,58.92c-.41,0-.74.33-.74.74s.33.74.74.74.74-.33.74-.74-.33-.74-.74-.74Z" style="fill: #fec600;"/>
    </g>
    <g>
      <circle cx="64.6" cy="144.6" r="1.09" style="fill: #fec600;"/>
      <path d="M64.6,146.05c-.8,0-1.44-.65-1.44-1.44s.65-1.44,1.44-1.44,1.45.65,1.45,1.44-.65,1.44-1.45,1.44ZM64.6,143.87c-.41,0-.74.33-.74.74s.33.74.74.74.74-.33.74-.74-.33-.74-.74-.74Z" style="fill: #fec600;"/>
    </g>
  </g>
  <g>
    <path d="M98.6,143.85c-.2,0-.35-.16-.35-.35V59.64c0-.2.16-.35.35-.35s.35.16.35.35v83.86c0,.2-.16.35-.35.35Z" style="fill: #fec600;"/>
    <g>
      <circle cx="98.6" cy="59.64" r="1.09" style="fill: #fec600;"/>
      <path d="M98.6,61.08c-.8,0-1.44-.65-1.44-1.44s.65-1.44,1.44-1.44,1.44.65,1.44,1.44-.65,1.44-1.44,1.44ZM98.6,58.9c-.41,0-.74.33-.74.74s.33.74.74.74.74-.33.74-.74-.33-.74-.74-.74Z" style="fill: #fec600;"/>
    </g>
    <g>
      <circle cx="98.6" cy="144.59" r="1.09" style="fill: #fec600;"/>
      <path d="M98.6,146.03c-.8,0-1.44-.65-1.44-1.44s.65-1.44,1.44-1.44,1.44.65,1.44,1.44-.65,1.44-1.44,1.44ZM98.6,143.85c-.41,0-.74.33-.74.74s.33.74.74.74.74-.33.74-.74-.33-.74-.74-.74Z" style="fill: #fec600;"/>
    </g>
  </g>
  <g>
    <path d="M132.6,143.87c-.2,0-.35-.16-.35-.35V59.65c0-.2.16-.35.35-.35s.35.16.35.35v83.86c0,.2-.16.35-.35.35h0Z" style="fill: #fec600;"/>
    <g>
      <circle cx="132.6" cy="59.65" r="1.09" style="fill: #fec600;"/>
      <path d="M132.6,61.1c-.8,0-1.45-.65-1.45-1.44s.65-1.44,1.45-1.44,1.44.65,1.44,1.44-.65,1.44-1.44,1.44ZM132.6,58.92c-.41,0-.74.33-.74.74s.33.74.74.74.74-.33.74-.74-.33-.74-.74-.74Z" style="fill: #fec600;"/>
    </g>
    <g>
      <circle cx="132.6" cy="144.6" r="1.09" style="fill: #fec600;"/>
      <path d="M132.6,146.05c-.8,0-1.45-.65-1.45-1.44s.65-1.44,1.45-1.44,1.44.65,1.44,1.44-.65,1.44-1.44,1.44ZM132.6,143.87c-.41,0-.74.33-.74.74s.33.74.74.74.74-.33.74-.74-.33-.74-.74-.74Z" style="fill: #fec600;"/>
    </g>
  </g>
  <g>
    <path d="M18.42,164.58c0-.21-.17-.38-.38-.38h-2c-.2,0-.37.17-.37.38s.17.37.37.37h2c.21,0,.38-.17.38-.37Z" style="fill: #fec600;"/>
    <path d="M25.66,164.58c0-.21-.17-.38-.38-.38h-2c-.2,0-.37.17-.37.38s.17.37.37.37h2c.21,0,.38-.17.38-.37Z" style="fill: #fec600;"/>
    <circle cx="20.55" cy="164.57" r=".54" style="fill: #fec600;"/>
    <path d="M20.55,167.1c-.21,0-.38.17-.38.38v2c0,.2.17.37.38.37s.37-.17.37-.37v-2c0-.21-.17-.38-.37-.38Z" style="fill: #fec600;"/>
    <path d="M20.55,159.1c-.21,0-.38.17-.38.38v2c0,.2.17.37.38.37s.37-.17.37-.37v-2c0-.21-.17-.38-.37-.38Z" style="fill: #fec600;"/>
  </g>
  <g>
    <path d="M52.4,164.58c0-.21-.17-.38-.38-.38h-2c-.2,0-.37.17-.37.38s.17.37.37.37h2c.21,0,.38-.17.38-.37Z" style="fill: #fec600;"/>
    <path d="M59.64,164.58c0-.21-.17-.38-.38-.38h-2c-.2,0-.37.17-.37.38s.17.37.37.37h2c.21,0,.38-.17.38-.37Z" style="fill: #fec600;"/>
    <circle cx="54.54" cy="164.57" r=".54" style="fill: #fec600;"/>
    <path d="M54.54,167.1c-.21,0-.38.17-.38.38v2c0,.2.17.37.38.37s.37-.17.37-.37v-2c0-.21-.17-.38-.37-.38Z" style="fill: #fec600;"/>
    <path d="M54.54,159.1c-.21,0-.38.17-.38.38v2c0,.2.17.37.38.37s.37-.17.37-.37v-2c0-.21-.17-.38-.37-.38Z" style="fill: #fec600;"/>
  </g>
  <g>
    <path d="M86.42,164.58c0-.21-.17-.38-.38-.38h-2c-.2,0-.37.17-.37.38s.17.37.37.37h2c.21,0,.38-.17.38-.37Z" style="fill: #fec600;"/>
    <path d="M93.66,164.58c0-.21-.17-.38-.38-.38h-2c-.2,0-.37.17-.37.38s.17.37.37.37h2c.21,0,.38-.17.38-.37Z" style="fill: #fec600;"/>
    <circle cx="88.55" cy="164.57" r=".54" style="fill: #fec600;"/>
    <path d="M88.56,167.1c-.21,0-.38.17-.38.38v2c0,.2.17.37.38.37s.37-.17.37-.37v-2c0-.21-.17-.38-.37-.38Z" style="fill: #fec600;"/>
    <path d="M88.56,159.1c-.21,0-.38.17-.38.38v2c0,.2.17.37.38.37s.37-.17.37-.37v-2c0-.21-.17-.38-.37-.38Z" style="fill: #fec600;"/>
  </g>
  <g>
    <path d="M120.43,164.58c0-.21-.17-.38-.38-.38h-2c-.2,0-.37.17-.37.38s.17.37.37.37h2c.21,0,.38-.17.38-.37Z" style="fill: #fec600;"/>
    <path d="M127.67,164.58c0-.21-.17-.38-.38-.38h-2c-.2,0-.37.17-.37.38s.17.37.37.37h2c.21,0,.38-.17.38-.37Z" style="fill: #fec600;"/>
    <circle cx="122.57" cy="164.57" r=".54" style="fill: #fec600;"/>
    <path d="M122.57,167.1c-.21,0-.38.17-.38.38v2c0,.2.17.37.38.37s.37-.17.37-.37v-2c0-.21-.17-.38-.37-.38Z" style="fill: #fec600;"/>
    <path d="M122.57,159.1c-.21,0-.38.17-.38.38v2c0,.2.17.37.38.37s.37-.17.37-.37v-2c0-.21-.17-.38-.37-.38Z" style="fill: #fec600;"/>
  </g>
  <g>
    <path d="M15.85,26.63h-.55v1.09h.57c.3-.01.53-.26.53-.56s-.25-.54-.55-.54h0Z" style="fill: #fec600;"/>
    <path d="M19.22,26.63c-.4,0-.72.32-.72.72v.63h1.45v-.63c0-.4-.32-.72-.72-.72h-.01Z" style="fill: #fec600;"/>
    <path d="M28.03,24.47h-14.8c-1.97,0-3.57,1.6-3.57,3.57s1.6,3.57,3.57,3.57h14.8c1.97,0,3.57-1.6,3.57-3.57s-1.6-3.57-3.57-3.57ZM17.19,29.05v1.34h-.79v-1.34c0-.29-.23-.54-.53-.55h-.57v1.88h-.79v-3.76h-.34v-.79h1.67c.74,0,1.33.6,1.33,1.33,0,.35-.14.69-.39.94.25.25.39.59.39.94h.02ZM20.73,30.39h-.79v-1.61h-1.45v1.62h-.79v-3.04c0-.83.68-1.51,1.51-1.51s1.51.68,1.51,1.51v3.03h.01ZM23.74,26.63h-.92v3.76h-.79v-3.76h-.92v-.79h2.63v.79ZM26.92,26.63h-1.45c-.3,0-.55.25-.55.55s.25.55.55.55h1.45v.79h-1.45c-.19,0-.38-.04-.55-.12v.67c0,.3.25.55.55.55h1.45v.79h-1.45c-.74,0-1.33-.6-1.33-1.33v-1.88c0-.74.6-1.33,1.33-1.33h1.45v.79-.03Z" style="fill: #fec600;"/>
  </g>
  <g>
    <path d="M122.86,26.63c-.4,0-.72.32-.72.72v.63h1.45v-.63c0-.4-.32-.72-.72-.72h0Z" style="fill: #fec600;"/>
    <path d="M130.08,24.47h-14.8c-1.97,0-3.57,1.6-3.57,3.57s1.6,3.57,3.57,3.57h14.8c1.97,0,3.57-1.6,3.57-3.57s-1.6-3.57-3.57-3.57ZM115.9,30.39c-.95,0-1.28-.67-1.36-.87l.75-.28c.06.16.22.36.61.36.32,0,.57-.21.58-.49,0-.1.02-.42-.71-.67-1.07-.37-1.27-1-1.25-1.46.03-.72.63-1.26,1.38-1.26.95,0,1.28.67,1.36.87l-.75.28c-.06-.16-.22-.36-.61-.36-.32,0-.57.21-.58.49,0,.1-.02.42.71.67,1.07.37,1.27,1,1.25,1.46-.03.72-.62,1.26-1.38,1.26ZM120.83,30.39h-.79v-1.88h-1.45v1.88h-.79v-4.55h.79v1.88h1.45v-1.88h.79v4.54h0ZM124.37,30.39h-.79v-1.61h-1.45v1.62h-.79v-3.04c0-.83.68-1.51,1.51-1.51s1.51.68,1.51,1.51v3.03h0ZM126.43,28.51h-.55v1.88h-.79v-3.76h-.34v-.79h1.67c.74,0,1.33.6,1.33,1.33s-.6,1.33-1.33,1.33h.01ZM130.94,26.63h-1.45c-.3,0-.55.25-.55.55s.24.55.55.55h1.45v.79h-1.45c-.19,0-.38-.04-.55-.12v.67c0,.3.25.55.55.55h1.45v.79h-1.45c-.74,0-1.33-.6-1.33-1.33v-1.88c0-.74.6-1.33,1.33-1.33h1.45v.79-.03Z" style="fill: #fec600;"/>
    <path d="M126.43,26.63h-.55v1.09h.55c.3,0,.55-.25.55-.55s-.25-.55-.55-.55h0Z" style="fill: #fec600;"/>
  </g>
  <g>
    <path d="M85.11,26.63h-.55v1.09h.57c.3-.01.53-.26.53-.56s-.25-.54-.55-.54h0Z" style="fill: #fec600;"/>
    <path d="M92.28,26.63h-.66v2.97h.66c.37,0,.67-.3.67-.67v-1.63c0-.37-.3-.67-.67-.67Z" style="fill: #fec600;"/>
    <path d="M96.06,24.47h-14.8c-1.97,0-3.57,1.6-3.57,3.57s1.6,3.57,3.57,3.57h14.8c1.97,0,3.57-1.6,3.57-3.57s-1.6-3.57-3.57-3.57ZM86.44,29.05v1.34h-.79v-1.34c0-.29-.23-.54-.53-.55h-.57v1.88h-.79v-3.76h-.34v-.79h1.67c.74,0,1.33.6,1.33,1.33,0,.35-.14.69-.39.94.25.25.39.59.39.94h.02ZM90.1,30.39h-.79v-3.1c0-.24-.12-.46-.33-.58s-.46-.12-.66,0c-.21.12-.33.34-.33.58v3.1h-.79v-3.75h-.38v-.79h.39c.22,0,.44.1.58.27.25-.18.54-.27.85-.27.8,0,1.44.65,1.44,1.44v3.1h.02ZM93.74,28.94c0,.8-.65,1.46-1.46,1.46h-1.45v-3.76h-.34v-.79h1.79c.8,0,1.46.65,1.46,1.46,0,0,0,1.63,0,1.63Z" style="fill: #fec600;"/>
  </g>
  <g>
    <path d="M60.06,27.45c.1-.17.1-.38,0-.55s-.28-.27-.48-.27h-.55v1.09h.55c.2,0,.38-.1.48-.27Z" style="fill: #fec600;"/>
    <path d="M56.07,26.63c-.4,0-.73.33-.73.73v1.52c0,.4.33.73.73.73s.73-.33.73-.73v-1.52c0-.4-.32-.73-.73-.73Z" style="fill: #fec600;"/>
    <path d="M49.5,26.63h-.55v1.09h.55c.3,0,.55-.25.55-.55s-.25-.55-.55-.55h0Z" style="fill: #fec600;"/>
    <path d="M52.77,26.63h-.55v1.09h.57c.3-.01.53-.26.53-.56s-.25-.54-.55-.54h0Z" style="fill: #fec600;"/>
    <path d="M60.01,28.51h-.98v1.09h.98c.3,0,.55-.25.55-.55s-.25-.55-.55-.55h0Z" style="fill: #fec600;"/>
    <path d="M62.05,24.47h-14.8c-1.97,0-3.57,1.6-3.57,3.57s1.6,3.57,3.57,3.57h14.8c1.97,0,3.57-1.6,3.57-3.57s-1.6-3.57-3.57-3.57ZM49.5,28.51h-.55v1.88h-.79v-3.76h-.34v-.79h1.68c.74,0,1.33.6,1.33,1.33s-.6,1.33-1.33,1.33h0ZM54.1,29.05v1.34h-.79v-1.34c0-.29-.23-.54-.53-.55h-.57v1.88h-.79v-3.76h-.34v-.79h1.67c.74,0,1.33.6,1.33,1.33,0,.35-.14.69-.39.94.25.25.39.59.39.94h.02ZM57.58,28.88c0,.83-.68,1.51-1.51,1.51s-1.51-.68-1.51-1.51v-1.52c0-.83.68-1.51,1.51-1.51s1.51.68,1.51,1.51v1.52ZM61.3,29.41c-.16.58-.69.98-1.29.98h-1.77v-3.76h-.34v-.79h1.67c.49,0,.94.27,1.17.7s.21.96-.06,1.36h0c.52.31.77.92.61,1.5h.01Z" style="fill: #fec600;"/>
  </g>
  <path d="M50.5,10.59c-.17-.16-.25-.37-.25-.64s.08-.48.24-.63c.16-.16.37-.24.63-.24s.47.08.63.24.24.37.24.63-.08.48-.24.64c-.16.16-.37.24-.63.24s-.46-.08-.63-.24h0Z" style="fill: #fec600;"/>
  <path d="M122.71,10.59c-.17-.16-.25-.37-.25-.64s.08-.48.24-.63c.16-.16.37-.24.63-.24s.47.08.63.24c.16.16.24.37.24.63s-.08.48-.24.64c-.16.16-.37.24-.63.24s-.46-.08-.63-.24h.01Z" style="fill: #fec600;"/>
  <g id="b">
    <g id="c">
      <g id="d">
        <g id="e">
          <g id="f">
            <path d="M56.99,12.92c-.29,0-.56-.17-.69-.43l-2.51-5.02c-.19-.38-.04-.84.35-1.04.38-.19.84-.04,1.04.35l1.82,3.63,1.82-3.63c.19-.38.65-.54,1.04-.35.38.19.54.65.35,1.04l-2.51,5.02c-.13.26-.4.43-.69.43" style="fill: #fec600;"/>
            <path d="M56.99,13.02c-.33,0-.63-.19-.78-.48l-2.51-5.02c-.1-.21-.12-.45-.05-.67.07-.22.23-.4.44-.51.21-.1.45-.12.67-.05.22.07.4.23.51.44l1.72,3.45,1.72-3.45c.1-.21.29-.37.51-.44.22-.07.46-.06.67.05.43.22.61.74.39,1.18l-2.51,5.02c-.15.3-.45.48-.78.48ZM54.49,6.46c-.1,0-.2.02-.3.07-.16.08-.28.22-.33.39s-.04.35.04.51l2.51,5.02c.11.23.34.37.6.37s.48-.14.6-.37l2.51-5.02c.16-.33.03-.73-.3-.89-.16-.08-.34-.09-.51-.04-.17.06-.31.18-.39.33l-1.91,3.82-1.91-3.82c-.08-.16-.22-.28-.39-.33-.07-.02-.14-.03-.21-.03h0Z" style="fill: #1c1c19;"/>
          </g>
          <g id="g">
            <path d="M70.45,12.92c-.29,0-.56-.17-.69-.43l-2.51-5.02c-.19-.38-.04-.84.35-1.04.38-.19.84-.04,1.04.35l1.82,3.63,1.82-3.63c.19-.38.65-.54,1.04-.35.38.19.54.65.35,1.04l-2.51,5.02c-.13.26-.4.43-.69.43" style="fill: #fec600;"/>
            <path d="M70.45,13.02c-.33,0-.63-.19-.78-.48l-2.51-5.02c-.22-.43-.04-.96.39-1.18.21-.1.45-.12.67-.05.22.07.4.23.51.44l1.72,3.45,1.72-3.45c.1-.21.28-.37.51-.44.22-.07.46-.06.67.05.43.22.61.74.39,1.18l-2.51,5.02c-.15.3-.45.48-.78.48ZM67.94,6.46c-.1,0-.2.02-.3.07-.33.16-.46.57-.3.89l2.51,5.02c.11.23.34.37.6.37s.48-.14.6-.37l2.51-5.02c.16-.33.03-.73-.3-.89-.33-.17-.73-.03-.89.3l-1.91,3.82-1.91-3.82c-.08-.16-.22-.28-.39-.33-.07-.02-.14-.03-.21-.03h0Z" style="fill: #1c1c19;"/>
          </g>
          <g id="h">
            <path d="M64.11,12.92c-1.81,0-3.28-1.47-3.28-3.28s1.47-3.28,3.28-3.28c.72,0,1.4.23,1.97.66.34.26.41.74.15,1.08s-.74.41-1.08.15c-.3-.23-.66-.35-1.04-.35-.96,0-1.74.78-1.74,1.74s.78,1.74,1.74,1.74c.38,0,.74-.12,1.04-.35.34-.26.82-.19,1.08.15.26.34.19.82-.15,1.08-.57.43-1.25.66-1.97.66" style="fill: #fec600;"/>
            <path d="M64.11,13.02c-1.87,0-3.38-1.52-3.38-3.38s1.52-3.38,3.38-3.38c.74,0,1.44.23,2.03.68.39.29.46.84.17,1.23-.14.19-.35.31-.58.34-.24.03-.46-.03-.65-.17-.28-.21-.62-.33-.98-.33-.9,0-1.63.73-1.63,1.63s.73,1.63,1.63,1.63c.36,0,.69-.11.98-.33.19-.14.42-.2.65-.17s.44.15.58.34c.29.39.21.94-.17,1.23-.59.44-1.29.68-2.03.68ZM64.11,6.46c-1.75,0-3.17,1.42-3.17,3.17s1.42,3.17,3.17,3.17c.69,0,1.35-.22,1.91-.63.29-.22.35-.64.13-.93-.11-.14-.26-.23-.44-.26-.17-.02-.35.02-.49.13-.32.24-.7.37-1.1.37-1.02,0-1.84-.83-1.84-1.84s.83-1.84,1.84-1.84c.4,0,.78.13,1.1.37.14.11.32.15.5.13.18-.02.33-.12.44-.26.22-.29.16-.71-.13-.93-.55-.42-1.21-.63-1.91-.63v-.02Z" style="fill: #1c1c19;"/>
          </g>
          <g id="i">
            <path d="M65.16,9.6c0,.55-.45,1-1,1s-1-.45-1-1,.45-1,1-1,1,.45,1,1" style="fill: #fec600;"/>
            <path d="M64.16,10.71c-.61,0-1.11-.5-1.11-1.11s.5-1.11,1.11-1.11,1.11.5,1.11,1.11-.5,1.11-1.11,1.11ZM64.16,8.7c-.5,0-.9.4-.9.9s.4.9.9.9.9-.4.9-.9-.4-.9-.9-.9Z" style="fill: #1c1c19;"/>
          </g>
        </g>
      </g>
    </g>
  </g>
  <path d="M122.22,294.62H20.36c-6.73,0-12.18,5.45-12.18,12.18s5.45,12.18,12.18,12.18h101.86c6.73,0,12.18-5.45,12.18-12.18s-5.45-12.18-12.18-12.18Z" style="fill: #fec600;"/>
  <path d="M122.68,282.5c-6.92,0-12.55-5.63-12.55-12.55s5.63-12.55,12.55-12.55,12.55,5.63,12.55,12.55-5.63,12.55-12.55,12.55ZM122.68,258.14c-6.51,0-11.8,5.3-11.8,11.8s5.29,11.8,11.8,11.8,11.8-5.29,11.8-11.8-5.3-11.8-11.8-11.8Z" style="fill: #fec600;"/>
  <g>
    <path d="M119.29,284.8v.85h-.99v4.05h-.85v-4.05h-.99v-.85s2.83,0,2.83,0Z" style="fill: #fec600;"/>
    <path d="M122.39,287.25c.27.27.42.63.42,1.01v1.44h-.85v-1.44c0-.32-.25-.58-.57-.59h-.61v2.03h-.85v-4.05h-.37v-.85h1.8c.79,0,1.44.64,1.44,1.44,0,.38-.15.74-.42,1.01h0ZM121.39,286.83c.32-.01.57-.28.57-.6s-.27-.58-.59-.58h-.59v1.18s.61,0,.61,0Z" style="fill: #fec600;"/>
    <path d="M124.58,285.67v3.2h.37v.85h-1.58v-.85h.37v-3.2h-.37v-.85h1.59v.85h-.38Z" style="fill: #fec600;"/>
    <path d="M128.77,286.84v1.24c0,.9-.73,1.62-1.63,1.62s-1.62-.72-1.63-1.62v-1.64c0-.66.4-1.25,1.01-1.5s1.31-.11,1.78.35l-.6.6c-.22-.22-.56-.29-.85-.17s-.48.41-.48.72v1.64c0,.43.35.78.78.78s.78-.35.78-.78v-.4h-.78v-.85h1.63-.01Z" style="fill: #fec600;"/>
  </g>
  <g>
    <path d="M78.92,268.32h-.08c-.21-.05-.34-.25-.29-.46,1.03-4.73,5.28-8.17,10.12-8.17s9.1,3.43,10.12,8.17c.04.21-.09.41-.3.46-.21.04-.41-.09-.46-.3-.95-4.38-4.89-7.56-9.37-7.56s-8.42,3.18-9.37,7.56c-.04.18-.2.3-.38.3h.01Z" style="fill: #fec600;"/>
    <path d="M90.77,280.2c-.18,0-.34-.12-.38-.3-.04-.21.09-.41.3-.46,3.67-.79,6.55-3.67,7.34-7.35.04-.21.24-.34.46-.3.21.04.34.25.3.46-.86,3.97-3.97,7.09-7.94,7.94h-.08Z" style="fill: #fec600;"/>
    <path d="M86.55,280.2h-.08c-3.96-.86-7.07-3.98-7.92-7.96-.04-.21.09-.41.3-.46.21-.04.41.09.46.3.79,3.68,3.66,6.57,7.33,7.36.21.05.34.25.29.46-.04.18-.2.3-.38.3h0Z" style="fill: #fec600;"/>
  </g>
  <g>
    <path d="M67.05,251.5h.72c0,.77-.62,1.39-1.39,1.39s-1.39-.62-1.39-1.39v-1.41c0-.77.62-1.39,1.39-1.39s1.39.62,1.39,1.39h-.72c0-.37-.3-.67-.67-.67s-.67.3-.67.67v1.41c0,.37.3.67.67.67s.67-.3.67-.67Z" style="fill: #fec600;"/>
    <path d="M71.51,248.71l-1.33,4.19h-.76l-1.33-4.19h.76l.95,3,.95-3h.76Z" style="fill: #fec600;"/>
    <path d="M74.57,249.45v2.74h.31v.73h-1.35v-.73h.31v-2.74h-.31v-.73h1.34v.73h-.31.01Z" style="fill: #fec600;"/>
    <path d="M78.26,250.04v2.86h-.73v-2.86c0-.22-.11-.42-.3-.53s-.42-.11-.61,0-.3.31-.3.53v2.86h-.72v-3.46h-.35v-.72h.36c.21,0,.4.09.54.25.23-.17.5-.25.78-.25.74,0,1.33.6,1.33,1.33h0Z" style="fill: #fec600;"/>
  </g>
  <path d="M77.66,254.64h-12.07c-2.14,0-3.88-1.74-3.88-3.88s1.74-3.88,3.88-3.88h12.07c2.14,0,3.88,1.74,3.88,3.88s-1.74,3.88-3.88,3.88ZM65.59,247.51c-1.79,0-3.25,1.46-3.25,3.25s1.46,3.25,3.25,3.25h12.07c1.79,0,3.25-1.46,3.25-3.25s-1.46-3.25-3.25-3.25h-12.07Z" style="fill: #fec600;"/>
  <path d="M60.02,251.13h-2c-.2,0-.37-.17-.37-.38s.17-.37.37-.37h2c.21,0,.38.17.38.37s-.17.38-.38.38ZM56.02,251.13h-2c-.2,0-.37-.17-.37-.38s.17-.37.37-.37h2c.21,0,.38.17.38.37s-.17.38-.38.38ZM52.02,251.13h-2c-.2,0-.37-.17-.37-.38s.17-.37.37-.37h2c.21,0,.38.17.38.37s-.17.38-.38.38ZM48.02,251.13h-2c-.2,0-.37-.17-.37-.38s.17-.37.37-.37h2c.21,0,.38.17.38.37s-.17.38-.38.38ZM44.02,251.13h-2c-.2,0-.37-.17-.37-.38s.17-.37.37-.37h2c.21,0,.38.17.38.37s-.17.38-.38.38ZM40.02,251.13h-2c-.2,0-.37-.17-.37-.38s.17-.37.37-.37h2c.21,0,.38.17.38.37s-.17.38-.38.38ZM36.02,251.13h-2c-.2,0-.37-.17-.37-.38s.17-.37.37-.37h2c.21,0,.38.17.38.37s-.17.38-.38.38ZM32.02,251.13h-2c-.2,0-.37-.17-.37-.38s.17-.37.37-.37h2c.21,0,.38.17.38.37s-.17.38-.38.38ZM28.02,251.13h-2c-.2,0-.37-.17-.37-.38s.17-.37.37-.37h2c.21,0,.38.17.38.37s-.17.38-.38.38ZM24.05,250.87s-.07,0-.1-.02t-.02,0h-.04c-.66-.23-1.27-.58-1.81-1.05-.08-.07-.13-.17-.13-.28,0-.09.04-.18.1-.25.13-.15.38-.17.53-.04.47.42,1,.73,1.59.92.39.13.39.13,0,0,.15.05.25.2.24.36v.11c-.06.15-.2.25-.36.25h0ZM21.13,248.3c-.15,0-.28-.08-.34-.21-.32-.65-.49-1.35-.53-2.07v-.02c0-.2.16-.36.36-.37h.02c.19,0,.36.15.37.35.03.62.18,1.22.45,1.78.03.05.04.11.04.16,0,.15-.08.28-.21.34-.05.03-.11.04-.16.04h0Z" style="fill: #fec600;"/>
  <path d="M117.47,251.13h-2c-.21,0-.38-.17-.38-.38s.17-.37.38-.37h2c.21,0,.37.17.37.37s-.16.38-.37.38ZM113.47,251.13h-2c-.21,0-.38-.17-.38-.38s.17-.37.38-.37h2c.2,0,.37.17.37.37s-.17.38-.37.38ZM109.47,251.13h-2c-.21,0-.38-.17-.38-.38s.17-.37.38-.37h2c.2,0,.37.17.37.37s-.17.38-.37.38ZM105.47,251.13h-2c-.21,0-.38-.17-.38-.38s.17-.37.38-.37h2c.21,0,.37.17.37.37s-.16.38-.37.38ZM101.47,251.13h-2c-.21,0-.38-.17-.38-.38s.17-.37.38-.37h2c.21,0,.37.17.37.37s-.16.38-.37.38ZM97.47,251.13h-2c-.21,0-.38-.17-.38-.38s.17-.37.38-.37h2c.2,0,.37.17.37.37s-.17.38-.37.38ZM93.47,251.13h-2c-.21,0-.38-.17-.38-.38s.17-.37.38-.37h2c.2,0,.37.17.37.37s-.17.38-.37.38ZM89.47,251.13h-2c-.21,0-.38-.17-.38-.38s.17-.37.38-.37h2c.21,0,.37.17.37.37s-.16.38-.37.38ZM85.47,251.13h-2c-.21,0-.38-.17-.38-.38s.17-.37.38-.37h2c.21,0,.37.17.37.37s-.16.38-.37.38ZM119.43,250.78c-.16,0-.3-.09-.35-.23-.02-.04-.03-.09-.03-.13,0-.16.09-.3.24-.36.58-.23,1.1-.56,1.54-1,.15-.14.39-.13.53,0,.07.07.11.17.11.27s-.04.19-.11.26c-.52.51-1.13.89-1.8,1.16-.04.02-.09.02-.13.02ZM122.22,248.07c-.06,0-.11,0-.15-.03-.14-.06-.23-.2-.23-.35,0-.05,0-.1.03-.14.24-.57.36-1.17.36-1.8,0-.21.17-.38.38-.38s.37.17.37.38c0,.72-.14,1.42-.42,2.09-.06.14-.19.23-.34.23h0Z" style="fill: #fec600;"/>
  <g>
    <path d="M20.63,218.51c-.2,0-.35-.16-.35-.35v-5.84c0-.2.16-.35.35-.35s.35.16.35.35v5.84c0,.2-.16.35-.35.35Z" style="fill: #fec600;"/>
    <path d="M20.63,220.69c-.8,0-1.45-.65-1.45-1.45s.65-1.44,1.45-1.44,1.44.65,1.44,1.44-.65,1.45-1.44,1.45ZM20.63,218.51c-.41,0-.74.33-.74.74s.33.74.74.74.74-.33.74-.74-.33-.74-.74-.74Z" style="fill: #fec600;"/>
  </g>
  <g>
    <path d="M54.65,218.51c-.2,0-.35-.16-.35-.35v-5.84c0-.2.16-.35.35-.35s.35.16.35.35v5.84c0,.2-.16.35-.35.35Z" style="fill: #fec600;"/>
    <path d="M54.65,220.69c-.8,0-1.44-.65-1.44-1.45s.65-1.44,1.44-1.44,1.44.65,1.44,1.44-.65,1.45-1.44,1.45ZM54.65,218.51c-.41,0-.74.33-.74.74s.33.74.74.74.74-.33.74-.74-.33-.74-.74-.74Z" style="fill: #fec600;"/>
  </g>
  <g>
    <path d="M88.66,218.51c-.2,0-.35-.16-.35-.35v-5.84c0-.2.16-.35.35-.35s.35.16.35.35v5.84c0,.2-.16.35-.35.35Z" style="fill: #fec600;"/>
    <path d="M88.66,220.69c-.8,0-1.44-.65-1.44-1.45s.65-1.44,1.44-1.44,1.45.65,1.45,1.44-.65,1.45-1.45,1.45ZM88.66,218.51c-.41,0-.74.33-.74.74s.33.74.74.74.74-.33.74-.74-.33-.74-.74-.74Z" style="fill: #fec600;"/>
  </g>
  <g>
    <path d="M122.68,218.51c-.2,0-.35-.16-.35-.35v-5.84c0-.2.16-.35.35-.35s.35.16.35.35v5.84c0,.2-.16.35-.35.35Z" style="fill: #fec600;"/>
    <path d="M122.68,220.69c-.8,0-1.44-.65-1.44-1.45s.65-1.44,1.44-1.44,1.45.65,1.45,1.44-.65,1.45-1.45,1.45ZM122.68,218.51c-.41,0-.74.33-.74.74s.33.74.74.74.74-.33.74-.74-.33-.74-.74-.74Z" style="fill: #fec600;"/>
  </g>
  <rect x="19.73" y="176.36" width="1.72" height="3.18" style="fill: #fec600;"/>
  <rect x="53.75" y="176.36" width="1.72" height="3.18" style="fill: #fec600;"/>
  <rect x="87.76" y="176.36" width="1.72" height="3.18" style="fill: #fec600;"/>
  <rect x="121.78" y="176.36" width="1.72" height="3.18" style="fill: #fec600;"/>
  <path d="M127.32,349.49h-9.03c-3.41,0-6.19,2.78-6.19,6.19s2.78,6.19,6.19,6.19h9.03c3.41,0,6.19-2.78,6.19-6.19s-2.78-6.19-6.19-6.19ZM127.21,360.07h-8.8c-2.43,0-4.39-1.97-4.39-4.39s1.97-4.39,4.39-4.39h8.8c2.43,0,4.39,1.97,4.39,4.39s-1.97,4.39-4.39,4.39Z" style="fill: #fec600;"/>
  <g>
    <path d="M127.2,360.08h-8.8c-2.43,0-4.4-1.97-4.4-4.4s1.97-4.39,4.4-4.39h8.8c2.43,0,4.4,1.97,4.4,4.39s-1.97,4.4-4.4,4.4Z" style="fill: #a19e9e;"/>
    <path d="M131.6,355.68c0,2.43-1.97,4.4-4.4,4.4h-8.8c-2.43,0-4.4-1.97-4.4-4.4s1.97-4.39,4.4-4.39h8.8c2.43,0,4.4,1.97,4.4,4.39Z"/>
  </g>
  <g>
    <path d="M30.54,8.45c0,3.42-2.78,6.19-6.19,6.19h-9.02c-3.42,0-6.19-2.77-6.19-6.19s2.77-6.18,6.19-6.18h9.02c3.41,0,6.19,2.77,6.19,6.18Z" style="fill: #fec600;"/>
    <g>
      <path d="M24.24,12.85h-8.8c-2.43,0-4.4-1.97-4.4-4.4s1.97-4.39,4.4-4.39h8.8c2.43,0,4.4,1.97,4.4,4.39s-1.97,4.4-4.4,4.4Z" style="fill: #a19e9e;"/>
      <path d="M28.64,8.45c0,2.43-1.97,4.4-4.4,4.4h-8.8c-2.43,0-4.4-1.97-4.4-4.4s1.97-4.39,4.4-4.39h8.8c2.43,0,4.4,1.97,4.4,4.39Z"/>
    </g>
  </g>
  <g>
    <circle cx="20.63" cy="38.34" r="4.89" style="fill: #2f2f2f;"/>
    <polygon points="21.76 36.38 19.5 36.38 18.37 38.34 19.5 40.3 21.76 40.3 22.89 38.34 21.76 36.38" style="fill: #141414;"/>
  </g>
  <g>
    <circle cx="54.65" cy="38.34" r="4.89" style="fill: #2f2f2f;"/>
    <polygon points="55.78 36.38 53.52 36.38 52.39 38.34 53.52 40.3 55.78 40.3 56.91 38.34 55.78 36.38" style="fill: #141414;"/>
  </g>
  <g>
    <circle cx="88.66" cy="38.34" r="4.89" style="fill: #2f2f2f;"/>
    <polygon points="89.79 36.38 87.53 36.38 86.4 38.34 87.53 40.3 89.79 40.3 90.92 38.34 89.79 36.38" style="fill: #141414;"/>
  </g>
  <g>
    <circle cx="122.68" cy="38.34" r="4.89" style="fill: #2f2f2f;"/>
    <polygon points="123.81 36.38 121.55 36.38 120.42 38.34 121.55 40.3 123.81 40.3 124.94 38.34 123.81 36.38" style="fill: #141414;"/>
  </g>
  <circle cx="122.68" cy="233.09" r="1.71" style="fill: #e30613;"/>
  <circle cx="122.68" cy="269.94" r="1.71" style="fill: #e30613;"/>
  <circle cx="88.66" cy="233.09" r="1.71" style="fill: #e30613;"/>
  <circle cx="88.66" cy="269.94" r="1.71" style="fill: #e30613;"/>
  <circle cx="54.65" cy="233.09" r="1.71" style="fill: #e30613;"/>
  <circle cx="54.65" cy="269.94" r="1.71" style="fill: #e30613;"/>
  <circle cx="20.63" cy="233.09" r="1.71" style="fill: #e30613;"/>
  <circle cx="20.63" cy="269.94" r="1.71" style="fill: #e30613;"/>
  <circle cx="122.68" cy="306.79" r="1.71" style="fill: #e30613;"/>
  <circle cx="88.66" cy="306.79" r="1.71" style="fill: #e30613;"/>
  <circle cx="54.65" cy="306.79" r="1.71" style="fill: #e30613;"/>
  <circle cx="20.63" cy="306.79" r="1.71" style="fill: #e30613;"/>
  <circle cx="54.66" cy="189.71" r="1.71" style="fill: #e30613;"/>
  <circle cx="20.63" cy="189.71" r="1.71" style="fill: #e30613;"/>
  <circle cx="88.66" cy="189.71" r="1.71" style="fill: #e30613;"/>
  <circle cx="122.68" cy="189.71" r="1.71" style="fill: #e30613;"/>
  <circle cx="54.66" cy="99.29" r="1.71" style="fill: #e30613;"/>
  <circle cx="20.63" cy="99.29" r="1.71" style="fill: #e30613;"/>
  <circle cx="88.66" cy="99.29" r="1.71" style="fill: #e30613;"/>
  <circle cx="122.68" cy="99.29" r="1.71" style="fill: #e30613;"/>
</svg>