<?xml version="1.0" encoding="UTF-8" standalone="no"?>
<svg
   xmlns:dc="http://purl.org/dc/elements/1.1/"
   xmlns:cc="http://creativecommons.org/ns#"
   xmlns:rdf="http://www.w3.org/1999/02/22-rdf-syntax-ns#"
   xmlns:svg="http://www.w3.org/2000/svg"
   xmlns="http://www.w3.org/2000/svg"
   xmlns:sodipodi="http://sodipodi.sourceforge.net/DTD/sodipodi-0.dtd"
   xmlns:inkscape="http://www.inkscape.org/namespaces/inkscape"
   sodipodi:docname="sceneButton_2.svg"
   inkscape:version="1.0 (4035a4fb49, 2020-05-01)"
   id="svg7595"
   version="1.1"
   viewBox="0 0 19.755555 5.5"
   height="19.48819"
   width="70">
  <defs
     id="defs7589">
    <clipPath
       id="clip444">
      <path
         inkscape:connector-curvature="0"
         id="path24586"
         d="m 1201.582,338.19922 h 18 v 18 h -18 z m 0,0" />
    </clipPath>
    <clipPath
       id="clipPath4146"
       clipPathUnits="userSpaceOnUse">
      <path
         transform="rotate(40.498613,53.873585,67.818425)"
         inkscape:transform-center-y="0.96615435"
         inkscape:transform-center-x="0.5346633"
         d="m 51.905105,66.733425 -4.966977,-0.837257 -4.984986,-0.722341 3.208575,-3.8829 3.118059,-3.955953 1.758402,4.720156 z"
         inkscape:randomized="0"
         inkscape:rounded="0"
         inkscape:flatsided="false"
         sodipodi:arg2="1.7262447"
         sodipodi:arg1="0.67904714"
         sodipodi:r2="2.8497884"
         sodipodi:r1="5.8158951"
         sodipodi:cy="63.080742"
         sodipodi:cx="47.379341"
         sodipodi:sides="3"
         id="path4148"
         style="opacity:1;fill:#0a0d0c;fill-opacity:0.412651;fill-rule:nonzero;stroke:none;stroke-width:1.06299;stroke-miterlimit:4;stroke-dasharray:none;stroke-dashoffset:0;stroke-opacity:1"
         sodipodi:type="star" />
    </clipPath>
  </defs>
  <sodipodi:namedview
     inkscape:document-rotation="0"
     units="px"
     inkscape:window-maximized="1"
     inkscape:window-y="-9"
     inkscape:window-x="2391"
     inkscape:window-height="1271"
     inkscape:window-width="2400"
     fit-margin-bottom="0"
     fit-margin-right="0"
     fit-margin-left="0"
     fit-margin-top="0"
     showgrid="false"
     inkscape:current-layer="layer1"
     inkscape:document-units="mm"
     inkscape:cy="28.712569"
     inkscape:cx="14.755775"
     inkscape:zoom="7.919596"
     inkscape:pageshadow="2"
     inkscape:pageopacity="0.0"
     borderopacity="1.0"
     bordercolor="#666666"
     pagecolor="#ffffff"
     id="base" />
  <metadata
     id="metadata7592">
    <rdf:RDF>
      <cc:Work
         rdf:about="">
        <dc:format>image/svg+xml</dc:format>
        <dc:type
           rdf:resource="http://purl.org/dc/dcmitype/StillImage" />
        <dc:title />
      </cc:Work>
    </rdf:RDF>
  </metadata>
  <g
     transform="translate(-46.755712,-67.095536)"
     id="layer1"
     inkscape:groupmode="layer"
     inkscape:label="Layer 1">
    <rect
       ry="0.74957395"
       y="67.231003"
       x="46.87748"
       height="5.2470403"
       width="19.519262"
       id="rect843"
       style="fill:#38393a;fill-opacity:1;stroke:#111012;stroke-width:0.23175;stroke-linecap:round;stroke-miterlimit:4;stroke-dasharray:none;stroke-opacity:1" />
    <g
       aria-label="Scene 3"
       id="text841-5"
       style="font-style:normal;font-weight:normal;font-size:4.01681px;line-height:1.25;font-family:sans-serif;fill:#d3d3d3;fill-opacity:1;stroke:none;stroke-width:0.10042">
      <path
         d="m 50.769486,68.560368 v 0.386382 q -0.225553,-0.107873 -0.425609,-0.160829 -0.200056,-0.05296 -0.386382,-0.05296 -0.32362,0 -0.50014,0.125525 -0.174559,0.125525 -0.174559,0.356963 0,0.194172 0.115719,0.2942 0.11768,0.09807 0.443261,0.158868 l 0.239282,0.04903 q 0.443262,0.08434 0.653124,0.298123 0.211824,0.211824 0.211824,0.568786 0,0.425609 -0.286354,0.645279 -0.284394,0.219669 -0.835528,0.219669 -0.207901,0 -0.443261,-0.04707 -0.233399,-0.04707 -0.48445,-0.139255 v -0.407957 q 0.241244,0.135332 0.472682,0.203979 0.231437,0.06865 0.455029,0.06865 0.33931,0 0.523676,-0.13337 0.184365,-0.133371 0.184365,-0.380499 0,-0.215746 -0.133371,-0.337349 -0.131409,-0.121603 -0.433454,-0.182404 l -0.241244,-0.04707 q -0.443261,-0.08826 -0.641356,-0.276548 -0.198095,-0.188288 -0.198095,-0.523676 0,-0.388344 0.272626,-0.611936 0.274586,-0.223592 0.755113,-0.223592 0.20594,0 0.419725,0.03727 0.213785,0.03727 0.437377,0.111796 z"
         style="fill:#d3d3d3;fill-opacity:1;stroke-width:0.10042"
         id="path837" />
      <path
         d="m 53.12897,69.280177 v 0.337349 q -0.152984,-0.08434 -0.307929,-0.125525 -0.152984,-0.04315 -0.309891,-0.04315 -0.351079,0 -0.54525,0.223592 -0.194172,0.221631 -0.194172,0.623704 0,0.402073 0.194172,0.625665 0.194171,0.221631 0.54525,0.221631 0.156907,0 0.309891,-0.04119 0.154945,-0.04315 0.307929,-0.127487 v 0.333427 q -0.151023,0.07061 -0.313813,0.105912 -0.16083,0.0353 -0.343234,0.0353 -0.496217,0 -0.788455,-0.311852 -0.292239,-0.311852 -0.292239,-0.841412 0,-0.537405 0.2942,-0.845334 0.296161,-0.30793 0.81003,-0.30793 0.166714,0 0.325582,0.0353 0.158868,0.03334 0.307929,0.10199 z"
         style="fill:#d3d3d3;fill-opacity:1;stroke-width:0.10042"
         id="path839" />
      <path
         d="m 55.639476,70.203965 v 0.17652 h -1.659288 q 0.02354,0.372653 0.223592,0.568786 0.202018,0.194172 0.560942,0.194172 0.207901,0 0.402073,-0.051 0.196133,-0.05099 0.388344,-0.152984 v 0.341272 q -0.194172,0.08238 -0.398151,0.125526 -0.203978,0.04315 -0.413841,0.04315 -0.525637,0 -0.833567,-0.305968 -0.305968,-0.305968 -0.305968,-0.827682 0,-0.539367 0.290278,-0.855142 0.292238,-0.317736 0.786494,-0.317736 0.443262,0 0.700196,0.286355 0.258896,0.284393 0.258896,0.774727 z m -0.360885,-0.105912 q -0.0039,-0.296162 -0.166713,-0.472682 -0.16083,-0.17652 -0.427571,-0.17652 -0.302045,0 -0.484449,0.170636 -0.180443,0.170636 -0.207902,0.480527 z"
         style="fill:#d3d3d3;fill-opacity:1;stroke-width:0.10042"
         id="path841" />
      <path
         d="m 58.0578,70.066671 v 1.325861 h -0.360886 v -1.314093 q 0,-0.311852 -0.121602,-0.466797 -0.121603,-0.154945 -0.364808,-0.154945 -0.292239,0 -0.460913,0.186326 -0.168675,0.186327 -0.168675,0.507986 v 1.241523 h -0.362847 v -2.196693 h 0.362847 v 0.341272 q 0.129448,-0.198094 0.304007,-0.296161 0.17652,-0.09807 0.405996,-0.09807 0.378537,0 0.572709,0.23536 0.194172,0.233399 0.194172,0.688428 z"
         style="fill:#d3d3d3;fill-opacity:1;stroke-width:0.10042"
         id="path843" />
      <path
         d="m 60.660488,70.203965 v 0.17652 h -1.659287 q 0.02354,0.372653 0.223592,0.568786 0.202017,0.194172 0.560941,0.194172 0.207901,0 0.402073,-0.051 0.196133,-0.05099 0.388344,-0.152984 v 0.341272 q -0.194172,0.08238 -0.39815,0.125526 -0.203979,0.04315 -0.413842,0.04315 -0.525637,0 -0.833566,-0.305968 -0.305968,-0.305968 -0.305968,-0.827682 0,-0.539367 0.290277,-0.855142 0.292239,-0.317736 0.786495,-0.317736 0.443261,0 0.700195,0.286355 0.258896,0.284393 0.258896,0.774727 z m -0.360885,-0.105912 q -0.0039,-0.296162 -0.166713,-0.472682 -0.160829,-0.17652 -0.427571,-0.17652 -0.302045,0 -0.484449,0.170636 -0.180443,0.170636 -0.207901,0.480527 z"
         style="fill:#d3d3d3;fill-opacity:1;stroke-width:0.10042"
         id="path845" />
      <path
         d="m 63.782931,69.813659 q 0.284393,0.0608 0.443261,0.253012 0.160829,0.192211 0.160829,0.474643 0,0.433454 -0.298123,0.670776 -0.298122,0.237321 -0.847295,0.237321 -0.184366,0 -0.380499,-0.03726 -0.194172,-0.0353 -0.402073,-0.107874 v -0.38246 q 0.164752,0.09611 0.360885,0.145139 0.196133,0.04903 0.409919,0.04903 0.372653,0 0.566825,-0.1471 0.196133,-0.1471 0.196133,-0.42757 0,-0.258896 -0.182404,-0.404035 -0.180442,-0.1471 -0.504062,-0.1471 h -0.341272 v -0.325581 h 0.356962 q 0.292239,0 0.447184,-0.115719 0.154946,-0.11768 0.154946,-0.337349 0,-0.225553 -0.16083,-0.345195 -0.158868,-0.121602 -0.45699,-0.121602 -0.162791,0 -0.349118,0.0353 -0.186326,0.0353 -0.409918,0.109834 v -0.353039 q 0.225553,-0.06276 0.421686,-0.09414 0.198095,-0.03138 0.372654,-0.03138 0.451106,0 0.713925,0.20594 0.262818,0.203979 0.262818,0.553096 0,0.243205 -0.139254,0.41188 -0.139255,0.166713 -0.396189,0.231437 z"
         style="fill:#d3d3d3;fill-opacity:1;stroke-width:0.10042"
         id="path847" />
    </g>
  </g>
</svg>
