<svg width="90px" height="380px" version="1.1" xmlns="http://www.w3.org/2000/svg" xmlns:xlink="http://www.w3.org/1999/xlink" xml:space="preserve" xmlns:serif="http://www.serif.com/" style="fill-rule:evenodd;clip-rule:evenodd;stroke-linecap:round;">
  <defs>
    <linearGradient id="_Linear1" x1="0" y1="0" x2="1" y2="0" gradientUnits="userSpaceOnUse" gradientTransform="matrix(0.007008,-37.8989,37.8989,0.007008,60.2434,112.195)">
      <stop offset="0" style="stop-color:#202020;stop-opacity:1"/>
      <stop offset="1" style="stop-color:#202020;stop-opacity:1"/>
    </linearGradient>
    <linearGradient id="_Linear2" x1="0" y1="0" x2="1" y2="0" gradientUnits="userSpaceOnUse" gradientTransform="matrix(-4.88,-92.58,92.58,-4.88,262.5,345.91)">
      <stop offset="0" style="stop-color:#202020;stop-opacity:1"/>
      <stop offset="1" style="stop-color:#202020;stop-opacity:1"/>
    </linearGradient>
    <linearGradient id="_Linear3" x1="0" y1="0" x2="1" y2="0" gradientUnits="userSpaceOnUse" gradientTransform="matrix(-4.75,94.86,-94.86,-4.75,262.5,158.47)">
      <stop offset="0" style="stop-color:#202020;stop-opacity:1"/>
      <stop offset="1" style="stop-color:#202020;stop-opacity:1"/>
    </linearGradient>
    <linearGradient id="_Linear4" x1="0" y1="0" x2="1" y2="0" gradientUnits="userSpaceOnUse" gradientTransform="matrix(1.15392e-16,-1.8845,1.8845,1.15392e-16,41.4795,1.9363)">
      <stop offset="0" style="stop-color:#202020;stop-opacity:1"/>
      <stop offset="1" style="stop-color:#202020;stop-opacity:1"/>
    </linearGradient>
  </defs>
  <g id="Panel">
    <g>
      <rect x="0" y="0" width="90" height="380" style="fill:url(#_Linear1);"/>
      <rect x="0" y="253.33" width="90" height="126.67" style="fill:url(#_Linear2);"/>
      <rect x="0" y="126.67" width="90" height="126.67" style="fill:url(#_Linear3);"/>
      <rect x="0" y="0" width="90" height="380" style="fill:rgb(16,53,80);fill-opacity:0.1;"/>
      <rect x="0" y="0" width="90" height="2" style="fill:url(#_Linear4);"/>
      <path d="M58.925,307.37c-5.359,0 -9.723,4.364 -9.723,9.723l0,21.178c0,5.359 4.364,9.72 9.723,9.72l10.412,0c5.36,0 9.721,-4.361 9.721,-9.72l0,-21.178c0,-5.359 -4.361,-9.723 -9.721,-9.723l-10.412,0Z" style="fill:none;stroke:#eeeeee;stroke-width:1.2px;"/>
      <g>
        <path d="M57.79,339.84c0,0.21 0.04,0.403 0.119,0.581c0.079,0.177 0.187,0.331 0.322,0.462c0.135,0.13 0.293,0.232 0.472,0.304c0.18,0.072 0.37,0.109 0.571,0.109c0.201,0 0.391,-0.037 0.57,-0.109c0.18,-0.072 0.339,-0.174 0.476,-0.304c0.138,-0.131 0.247,-0.285 0.326,-0.462c0.079,-0.178 0.119,-0.371 0.119,-0.581c0,-0.21 -0.04,-0.404 -0.119,-0.581c-0.079,-0.178 -0.188,-0.332 -0.326,-0.462c-0.137,-0.131 -0.296,-0.233 -0.476,-0.305c-0.179,-0.072 -0.369,-0.108 -0.57,-0.108c-0.201,0 -0.391,0.036 -0.571,0.108c-0.179,0.072 -0.337,0.174 -0.472,0.305c-0.135,0.13 -0.243,0.284 -0.322,0.462c-0.079,0.177 -0.119,0.371 -0.119,0.581Zm-1.435,0c0,-0.392 0.072,-0.758 0.217,-1.096c0.145,-0.338 0.345,-0.633 0.602,-0.885c0.257,-0.252 0.563,-0.45 0.92,-0.592c0.357,-0.142 0.751,-0.213 1.18,-0.213c0.425,0 0.817,0.071 1.176,0.213c0.359,0.142 0.668,0.34 0.927,0.592c0.259,0.252 0.461,0.547 0.606,0.885c0.145,0.338 0.217,0.704 0.217,1.096c0,0.392 -0.072,0.757 -0.217,1.095c-0.145,0.338 -0.347,0.634 -0.606,0.886c-0.259,0.252 -0.568,0.449 -0.927,0.591c-0.359,0.142 -0.751,0.214 -1.176,0.214c-0.429,0 -0.823,-0.072 -1.18,-0.214c-0.357,-0.142 -0.663,-0.339 -0.92,-0.591c-0.257,-0.252 -0.457,-0.548 -0.602,-0.886c-0.145,-0.338 -0.217,-0.703 -0.217,-1.095Z" style="fill:#eeeeee;fill-rule:nonzero;"/>
        <path d="M64.44,337.2l0,2.87c0,0.154 0.006,0.311 0.017,0.472c0.012,0.161 0.047,0.307 0.105,0.438c0.059,0.13 0.151,0.236 0.277,0.318c0.126,0.082 0.303,0.123 0.532,0.123c0.229,0 0.405,-0.041 0.528,-0.123c0.124,-0.082 0.216,-0.188 0.277,-0.318c0.061,-0.131 0.097,-0.277 0.108,-0.438c0.012,-0.161 0.018,-0.318 0.018,-0.472l0,-2.87l1.365,0l0,3.059c0,0.821 -0.188,1.421 -0.564,1.799c-0.375,0.378 -0.953,0.567 -1.732,0.567c-0.779,0 -1.358,-0.189 -1.736,-0.567c-0.378,-0.378 -0.567,-0.978 -0.567,-1.799l0,-3.059l1.372,0Z" style="fill:#eeeeee;fill-rule:nonzero;"/>
        <path d="M70.78,338.36l0,4.116l-1.372,0l0,-4.116l-1.127,0l0,-1.162l3.626,0l0,1.162l-1.127,0Z" style="fill:#eeeeee;fill-rule:nonzero;"/>
      </g>
      <g>
        <g>
          <path d="M53.18,358.429c0,-4.509 -3.655,-8.165 -8.164,-8.165c-4.509,0 -8.165,3.656 -8.165,8.165c0,4.509 3.656,8.165 8.165,8.165c4.509,0 8.164,-3.656 8.164,-8.165Z" style="fill:rgb(117,117,117);fill-rule:nonzero;stroke:rgb(53,53,53);stroke-width:0.61px;stroke-miterlimit:10;"/>
          <path d="M43.12,363.399l0.553,-0.89l-1.064,-2.393l-2.216,-2.284l0.46,3.101l0.597,1.28l0.833,1.263l0.837,-0.077Z" style="fill:rgb(43,43,43);fill-rule:nonzero;"/>
          <path d="M46.85,363.409l-0.553,-0.891l1.064,-2.393l2.216,-2.284l-0.46,3.101l-0.597,1.28l-0.833,1.264l-0.837,-0.077Z" style="fill:#202020;fill-rule:nonzero;"/>
          <path d="M42.44,352.369l2.584,-0.661l0,13.448l-1.349,-2.651l-1.061,-2.385l-1.022,-0.581l-2.052,-2.921l-0.057,-0.775l1.148,-2.067l1.809,-1.407Z" style="fill:rgb(66,66,66);fill-rule:nonzero;"/>
          <path d="M47.6,352.369l-2.584,-0.66l0,13.448l1.35,-2.651l1.06,-2.385l1.023,-0.581l2.051,-2.921l0.058,-0.775l-1.149,-2.068l-1.809,-1.407Z" style="fill:rgb(51,51,51);fill-rule:nonzero;"/>
          <path d="M43.3,358.249l1.723,-1.685l0,1.23l-1.723,1.718l0,-1.263" style="fill:rgb(76,76,76);fill-rule:nonzero;"/>
          <path d="M45.02,357.789l-1.723,1.718l0.377,3.004l1.346,2.643l0,-7.365Z" style="fill:rgb(91,91,91);fill-rule:nonzero;"/>
          <path d="M45.02,365.159l-1.346,-2.643l1.346,-0.635l0,3.278Z" style="fill:rgb(51,51,51);fill-rule:nonzero;"/>
          <path d="M43.3,359.509l0,-1.264l-1.249,-1.579l-1.477,-1.19l-0.001,0.932l0.775,1.823l1.952,1.278Z" style="fill:#eeeeee;fill-rule:nonzero;"/>
          <path d="M46.74,358.249l-1.722,-1.684l0,1.23l1.722,1.718l0,-1.264" style="fill:rgb(45,45,45);fill-rule:nonzero;"/>
          <path d="M45.02,357.789l1.722,1.718l-0.376,3.004l-1.347,2.643l0.001,-7.365Z" style="fill:rgb(53,53,53);fill-rule:nonzero;"/>
          <path d="M45.02,365.159l1.347,-2.643l-1.346,-0.635l-0.001,3.278Z" style="fill:#202020;fill-rule:nonzero;"/>
          <path d="M46.74,359.509l0,-1.264l1.249,-1.579l1.478,-1.19l0.001,0.932l-0.775,1.823l-1.953,1.278Z" style="fill:#eeeeee;fill-rule:nonzero;"/>
          <path d="M42.45,352.349l2.566,4.216l-0.005,-4.87" style="fill:rgb(56,56,56);fill-rule:nonzero;"/>
          <path d="M47.58,352.349l-2.566,4.215l0.006,-4.87" style="fill:rgb(45,45,45);fill-rule:nonzero;"/>
          <path d="M42.61,360.119l0.688,-0.61l0.375,3.006l-1.063,-2.396Z" style="fill:rgb(51,51,51);fill-rule:nonzero;"/>
          <path d="M47.43,360.139l-0.688,-0.61l-0.375,3.006l1.063,-2.396Z" style="fill:rgb(28,28,28);fill-rule:nonzero;"/>
        </g>
        <path d="M33.4,368.077l2.26,6.811c0.211,0.635 0.595,0.951 1.15,0.951c0.548,0 0.929,-0.313 1.141,-0.942l2.269,-6.82l-1.744,0l-1.689,5.455l-1.633,-5.455l-1.754,0Zm6.953,0l0,5.768c0,0.482 0.052,0.829 0.154,1.041c0.278,0.578 0.797,0.867 1.557,0.867l2.127,0c0.739,0 1.255,-0.281 1.547,-0.844c0.11,-0.212 0.164,-0.572 0.164,-1.076l0,-5.756l-1.645,0l0,5.68l-0.01,0.054c-0.037,0.191 -0.224,0.285 -0.56,0.285l-1.119,0c-0.351,0 -0.54,-0.101 -0.569,-0.306l0,-5.713l-1.646,0Zm6.305,0l0,5.801c0,0.599 0.124,1.046 0.373,1.342c0.248,0.296 0.669,0.47 1.262,0.521c0.081,0.007 0.175,0.012 0.285,0.012l3.06,0l0.01,-1.656l-2.927,0c-0.279,0 -0.416,-0.118 -0.416,-0.352l0,-5.668l-1.647,0Zm5.043,0l0,1.656l1.635,0l0,6.02l1.644,0l0,-6.02l1.656,0l0,-1.656l-4.935,0Z" style="fill:rgb(102,102,102);fill-rule:nonzero;"/>
      </g>
      <g id="text9293-4">
        <path d="M15.372,339.39l1.274,3.213l1.281,-3.213l1.491,0l-2.226,5.278l-1.092,0l-2.219,-5.278l1.491,0Z" style="fill:#eeeeee;fill-rule:nonzero;"/>
        <path d="M22.288,338.86l1.001,0l-2.884,7.021l-0.994,0l2.877,-7.021Z" style="fill:#eeeeee;fill-rule:nonzero;"/>
        <path d="M24.843,342.03c0,0.21 0.04,0.404 0.119,0.581c0.08,0.178 0.187,0.332 0.322,0.462c0.136,0.131 0.293,0.232 0.473,0.305c0.18,0.072 0.37,0.108 0.57,0.108c0.201,0 0.391,-0.036 0.571,-0.108c0.18,-0.073 0.338,-0.174 0.476,-0.305c0.138,-0.13 0.246,-0.284 0.325,-0.462c0.08,-0.177 0.119,-0.371 0.119,-0.581c0,-0.21 -0.039,-0.403 -0.119,-0.581c-0.079,-0.177 -0.187,-0.331 -0.325,-0.462c-0.138,-0.13 -0.296,-0.232 -0.476,-0.304c-0.18,-0.073 -0.37,-0.109 -0.571,-0.109c-0.2,0 -0.39,0.036 -0.57,0.109c-0.18,0.072 -0.337,0.174 -0.473,0.304c-0.135,0.131 -0.242,0.285 -0.322,0.462c-0.079,0.178 -0.119,0.371 -0.119,0.581Zm-1.435,0c0,-0.392 0.073,-0.757 0.217,-1.095c0.145,-0.339 0.346,-0.634 0.602,-0.886c0.257,-0.252 0.564,-0.449 0.921,-0.591c0.357,-0.143 0.75,-0.214 1.179,-0.214c0.425,0 0.817,0.071 1.176,0.214c0.36,0.142 0.669,0.339 0.928,0.591c0.259,0.252 0.461,0.547 0.605,0.886c0.145,0.338 0.217,0.703 0.217,1.095c0,0.392 -0.072,0.757 -0.217,1.096c-0.144,0.338 -0.346,0.633 -0.605,0.885c-0.259,0.252 -0.568,0.449 -0.928,0.592c-0.359,0.142 -0.751,0.213 -1.176,0.213c-0.429,0 -0.822,-0.071 -1.179,-0.213c-0.357,-0.143 -0.664,-0.34 -0.921,-0.592c-0.256,-0.252 -0.457,-0.547 -0.602,-0.885c-0.144,-0.339 -0.217,-0.704 -0.217,-1.096Z" style="fill:#eeeeee;fill-rule:nonzero;"/>
        <path d="M33.922,341.16c-0.317,-0.387 -0.709,-0.581 -1.176,-0.581c-0.205,0 -0.395,0.038 -0.57,0.112c-0.175,0.075 -0.326,0.176 -0.452,0.305c-0.126,0.128 -0.225,0.281 -0.297,0.458c-0.072,0.178 -0.109,0.369 -0.109,0.574c0,0.21 0.037,0.404 0.109,0.581c0.072,0.178 0.173,0.332 0.301,0.462c0.128,0.131 0.279,0.234 0.451,0.308c0.173,0.075 0.36,0.112 0.56,0.112c0.439,0 0.833,-0.186 1.183,-0.56l0,1.624l-0.14,0.049c-0.21,0.075 -0.406,0.13 -0.588,0.165c-0.182,0.035 -0.361,0.052 -0.539,0.052c-0.364,0 -0.712,-0.069 -1.046,-0.206c-0.334,-0.138 -0.628,-0.332 -0.882,-0.581c-0.254,-0.25 -0.459,-0.546 -0.613,-0.889c-0.154,-0.343 -0.231,-0.718 -0.231,-1.124c0,-0.406 0.076,-0.778 0.228,-1.116c0.152,-0.339 0.355,-0.63 0.609,-0.875c0.254,-0.245 0.549,-0.437 0.885,-0.574c0.336,-0.138 0.689,-0.207 1.057,-0.207c0.21,0 0.417,0.022 0.62,0.067c0.203,0.044 0.416,0.113 0.64,0.206l0,1.638Z" style="fill:#eeeeee;fill-rule:nonzero;"/>
        <path d="M36.792,340.56l0,4.116l-1.372,0l0,-4.116l-1.127,0l0,-1.162l3.626,0l0,1.162l-1.127,0Z" style="fill:#eeeeee;fill-rule:nonzero;"/>
      </g>
      <path d="M45.001,210.72c-5.706,0 -11.412,1.934 -16.027,5.805c-9.229,7.745 -11.587,21.128 -5.564,31.564c0.391,0.722 1.468,0.101 1.039,-0.6c-5.733,-9.934 -3.488,-22.672 5.297,-30.045c8.785,-7.369 21.725,-7.369 30.51,0c8.785,7.373 11.029,20.111 5.296,30.045c-0.429,0.701 0.648,1.322 1.039,0.6c6.023,-10.436 3.666,-23.819 -5.564,-31.564c-4.615,-3.871 -10.32,-5.805 -16.025,-5.805l-0.001,0Zm-18.883,41.52c-2.371,0 -4.307,1.936 -4.307,4.307c0,2.371 1.936,4.304 4.307,4.304c2.371,0 4.307,-1.933 4.307,-4.304c0,-2.371 -1.936,-4.307 -4.307,-4.307Zm37.766,0c-2.371,0 -4.305,1.934 -4.305,4.305c0,2.371 1.934,4.306 4.305,4.306c2.371,0 4.307,-1.935 4.307,-4.306c0,-2.371 -1.936,-4.305 -4.307,-4.305Zm-37.766,1.199c1.722,0 3.105,1.385 3.105,3.108c0,1.722 -1.383,3.105 -3.105,3.105c-1.723,0 -3.106,-1.383 -3.106,-3.105c0,-1.723 1.383,-3.108 3.106,-3.108Z" style="fill:#eeeeee;fill-rule:nonzero;"/>
      <path d="M62.053,268.11c-0.332,0.006 -0.596,0.279 -0.59,0.611l0,1.409c-2.52,0.129 -5.006,1.042 -7.047,2.755c-4.419,3.708 -5.55,10.112 -2.668,15.105l0.301,0.52l10.035,-5.793l10.035,5.793l0.301,-0.52c2.882,-4.993 1.752,-11.398 -2.668,-15.105c-2.052,-1.722 -4.555,-2.636 -7.09,-2.757l0,-1.411c0,-0.338 -0.271,-0.612 -0.609,-0.607l0,0Zm-0.586,3.219l0.019,10.35l-8.902,5.14c-2.21,-4.402 -1.209,-9.813 2.605,-13.014c1.819,-1.527 4.032,-2.348 6.278,-2.476l0,0Zm1.199,0c2.26,0.121 4.488,0.94 6.317,2.476c3.815,3.201 4.813,8.612 2.603,13.014l-8.902,-5.14l-0.018,-10.35Zm7.933,17.562l0.01,1.582l-1.606,0.008c-0.831,-0.028 -0.825,1.235 0.01,1.199l1.606,-0.008l0.01,1.629c-0.026,0.831 1.236,0.822 1.199,-0.008l-0.01,-1.625l1.603,-0.008c0.801,-0.004 0.795,-1.205 -0.01,-1.201l-1.605,0.008l-0.01,-1.584c0,-0.771 -1.197,-0.756 -1.197,0.008l0,0Zm-15.172,1.445l-4.415,0.02c-0.8,0.004 -0.794,1.205 0.01,1.201l4.415,-0.022c0.83,0.028 0.824,-1.235 -0.01,-1.199Z" style="fill:#eeeeee;fill-rule:nonzero;"/>
      <g>
        <path d="M22.181,57.714c-0.329,0.006 -0.595,0.281 -0.59,0.609l0,2.539c-3.872,0.137 -7.709,1.505 -10.844,4.135c-6.611,5.548 -8.299,15.132 -3.984,22.605c0.105,0.194 0.307,0.314 0.527,0.314c0.33,0 0.6,-0.27 0.6,-0.6c0,-0.11 -0.03,-0.219 -0.088,-0.313c-4.025,-6.971 -2.45,-15.913 3.717,-21.088c2.912,-2.444 6.474,-3.718 10.072,-3.854l0,2.383c-0.001,0.008 -0.001,0.016 -0.001,0.023c0,0.33 0.271,0.601 0.6,0.601c0.329,0 0.6,-0.271 0.6,-0.601c0,-0.007 0,-0.015 0,-0.023l0,-2.387c3.622,0.122 7.212,1.398 10.143,3.858c6.167,5.174 7.744,14.117 3.719,21.088c-0.058,0.094 -0.089,0.203 -0.089,0.313c0,0.33 0.271,0.6 0.6,0.6c0.22,0 0.423,-0.12 0.528,-0.314c4.315,-7.473 2.624,-17.058 -3.987,-22.605c-3.152,-2.646 -7.017,-4.016 -10.914,-4.138l0,-2.536c0,-0.003 0,-0.006 0,-0.009c0,-0.329 -0.271,-0.6 -0.6,-0.6c-0.003,0 -0.006,0 -0.009,0l0,0Zm14.412,30.799c-0.329,0.007 -0.594,0.282 -0.588,0.611l0.016,2.727l-2.76,0.012c-0.327,0.002 -0.595,0.273 -0.595,0.6c0,0.33 0.271,0.601 0.6,0.601c0.002,0 0.004,0 0.005,0l2.756,-0.014l0.016,2.793c0.002,0.328 0.273,0.597 0.601,0.597c0.329,0 0.601,-0.271 0.601,-0.601c0,-0.001 0,-0.003 -0.001,-0.004l-0.016,-2.789l2.762,-0.014c0.008,0.001 0.016,0.001 0.024,0.001c0.329,0 0.6,-0.271 0.6,-0.6c0,-0.329 -0.271,-0.6 -0.6,-0.6c-0.008,0 -0.016,0 -0.024,0l-0.01,0l-2.76,0.012l-0.016,-2.727c0,-0.002 0,-0.003 0,-0.005c0,-0.33 -0.27,-0.6 -0.6,-0.6c-0.004,0 -0.008,0 -0.013,0l0.002,0Zm-24.51,3.129l-6.719,0.031c-0.006,0 -0.012,0 -0.018,0c-0.329,0 -0.6,0.271 -0.6,0.6c0,0.329 0.271,0.6 0.6,0.6c0.01,0 0.019,0 0.028,-0.001l6.719,-0.031c0.006,0 0.012,0 0.018,0c0.329,0 0.6,-0.271 0.6,-0.6c0,-0.329 -0.271,-0.6 -0.6,-0.6c-0.009,0 -0.019,0 -0.028,0.001Z" style="fill:#eeeeee;"/>
        <path d="M74.434,59.87c-0.24,0.011 -0.452,0.165 -0.535,0.391l-0.524,1.355c-1.808,-0.591 -3.69,-0.9 -5.576,-0.9c-1.865,0 -3.726,0.304 -5.517,0.883l-0.457,-1.274c-0.088,-0.254 -0.336,-0.42 -0.604,-0.404c-0.315,0.019 -0.563,0.283 -0.563,0.599c0,0.071 0.013,0.142 0.038,0.209l0.457,1.278c-1.718,0.686 -3.356,1.632 -4.832,2.871c-1.855,1.556 -3.308,3.437 -4.364,5.494l-1.236,-0.619c-0.089,-0.046 -0.189,-0.069 -0.289,-0.067c-0.324,0.007 -0.588,0.276 -0.588,0.6c0,0.23 0.133,0.441 0.34,0.541l1.258,0.629c-1.682,3.899 -1.948,8.33 -0.656,12.455l-1.235,0.453c-0.24,0.084 -0.402,0.312 -0.402,0.567c0,0.329 0.271,0.6 0.6,0.6c0.073,0 0.146,-0.014 0.214,-0.04l1.219,-0.445c0.323,0.83 0.698,1.647 1.154,2.437c0.105,0.194 0.308,0.314 0.528,0.314c0.329,0 0.6,-0.271 0.6,-0.6c0,-0.11 -0.031,-0.219 -0.089,-0.313c-0.421,-0.73 -0.766,-1.486 -1.066,-2.252l1.418,-0.52c0.239,-0.084 0.401,-0.312 0.401,-0.566c0,-0.328 -0.269,-0.598 -0.596,-0.6c-0.074,0 -0.148,0.013 -0.217,0.039l-1.401,0.514c-1.179,-3.812 -0.937,-7.899 0.602,-11.506l1.389,0.693c0.084,0.043 0.176,0.065 0.27,0.065c0.329,0 0.6,-0.271 0.6,-0.6c0,-0.229 -0.13,-0.438 -0.335,-0.539l-1.41,-0.705c0.984,-1.913 2.336,-3.663 4.062,-5.111c1.365,-1.146 2.878,-2.022 4.465,-2.661l0.504,1.405c0.085,0.238 0.312,0.398 0.565,0.398c0.33,0 0.601,-0.271 0.601,-0.6c0,-0.069 -0.012,-0.138 -0.035,-0.203l-0.506,-1.408c3.331,-1.067 6.928,-1.064 10.258,0.01l-0.535,1.385c-0.031,0.074 -0.047,0.153 -0.047,0.233c0,0.329 0.271,0.6 0.6,0.6c0.254,0 0.482,-0.161 0.566,-0.401l0.543,-1.407c1.576,0.638 3.079,1.511 4.435,2.649c1.675,1.405 2.998,3.094 3.975,4.939l-1.279,0.616c-0.223,0.093 -0.368,0.312 -0.368,0.553c0,0.329 0.271,0.6 0.6,0.6c0.1,0 0.199,-0.025 0.287,-0.073l1.287,-0.62c1.625,3.689 1.882,7.9 0.639,11.811l-1.393,-0.501c-0.074,-0.029 -0.154,-0.042 -0.234,-0.04c-0.321,0.012 -0.579,0.279 -0.579,0.6c0,0.257 0.164,0.486 0.407,0.568l1.393,0.502c-0.29,0.726 -0.618,1.441 -1.018,2.133c-0.058,0.095 -0.089,0.204 -0.089,0.315c0,0.329 0.271,0.6 0.6,0.6c0.22,0 0.424,-0.121 0.528,-0.315c0.436,-0.754 0.793,-1.534 1.108,-2.324l1.193,0.429c0.066,0.024 0.136,0.037 0.206,0.037c0.329,0 0.6,-0.271 0.6,-0.601c0,-0.252 -0.16,-0.479 -0.398,-0.565l-1.195,-0.431c1.352,-4.216 1.076,-8.762 -0.686,-12.736l1.252,-0.602c0.212,-0.098 0.348,-0.311 0.348,-0.544c0,-0.328 -0.268,-0.598 -0.596,-0.6c-0.094,-0.001 -0.187,0.02 -0.271,0.062l-1.262,0.608c-1.049,-1.996 -2.475,-3.821 -4.283,-5.338c-1.46,-1.225 -3.078,-2.164 -4.775,-2.848l0.515,-1.336c0.029,-0.071 0.044,-0.148 0.044,-0.225c0,-0.329 -0.271,-0.6 -0.6,-0.6c-0.009,0 -0.019,0 -0.028,0.001l0,-0.001Zm7.732,28.523c-0.328,0.007 -0.594,0.282 -0.588,0.611l0.016,2.725l-2.757,0.014c-0.33,0 -0.601,0.271 -0.601,0.6c0,0.33 0.271,0.601 0.601,0.601c0,0 2.763,-0.014 2.763,-0.014l0.016,2.793c0,0.006 0,0.012 0,0.018c0,0.329 0.271,0.6 0.6,0.6c0.329,0 0.6,-0.271 0.6,-0.6c0,-0.009 0,-0.017 0,-0.026l-0.014,-2.789l2.753,-0.014c0.329,-0.002 0.598,-0.272 0.598,-0.6c0,-0.328 -0.269,-0.599 -0.598,-0.601l-0.01,0l-2.751,0.014l-0.014,-2.727c0,-0.002 0,-0.003 0,-0.005c0,-0.33 -0.271,-0.6 -0.6,-0.6c-0.005,0 -0.009,0 -0.014,0l0,0Zm-24.51,3.129l-6.718,0.031c-0.006,0 -0.012,0 -0.018,0c-0.33,0 -0.6,0.271 -0.6,0.6c0,0.329 0.27,0.6 0.6,0.6c0.009,0 0.018,0 0.028,-0.001l6.718,-0.031c0.006,0 0.012,0 0.018,0c0.329,0 0.6,-0.271 0.6,-0.6c0,-0.329 -0.271,-0.6 -0.6,-0.6c-0.009,0 -0.018,0 -0.028,0.001l0,0Z" style="fill:#eeeeee;"/>
        <path d="M63.499,95.277c-0.429,0 -0.825,0.071 -1.182,0.213c-0.357,0.142 -0.663,0.34 -0.92,0.592c-0.257,0.252 -0.456,0.548 -0.601,0.886c-0.145,0.338 -0.217,0.702 -0.217,1.094c0,0.392 0.072,0.758 0.217,1.096c0.145,0.338 0.344,0.633 0.601,0.885c0.257,0.252 0.563,0.451 0.92,0.593c0.357,0.142 0.753,0.213 1.182,0.213c0.425,0 0.817,-0.071 1.176,-0.213c0.359,-0.142 0.667,-0.341 0.926,-0.593c0.259,-0.252 0.462,-0.547 0.607,-0.885c0.145,-0.338 0.217,-0.704 0.217,-1.096c0,-0.392 -0.072,-0.756 -0.217,-1.094c-0.145,-0.338 -0.348,-0.634 -0.607,-0.886c-0.259,-0.252 -0.567,-0.45 -0.926,-0.592c-0.359,-0.142 -0.751,-0.213 -1.176,-0.213Zm6.334,0c-0.369,0 -0.721,0.069 -1.057,0.207c-0.336,0.138 -0.631,0.329 -0.886,0.574c-0.254,0.245 -0.458,0.537 -0.61,0.875c-0.151,0.338 -0.226,0.709 -0.226,1.115c0,0.406 0.076,0.782 0.23,1.125c0.154,0.343 0.359,0.639 0.613,0.889c0.255,0.25 0.548,0.442 0.881,0.58c0.334,0.138 0.683,0.207 1.047,0.207c0.177,0 0.357,-0.017 0.539,-0.052c0.182,-0.035 0.378,-0.09 0.588,-0.165l0.141,-0.05l0,-1.623c-0.35,0.374 -0.745,0.56 -1.184,0.56c-0.201,0 -0.385,-0.038 -0.558,-0.113c-0.173,-0.074 -0.324,-0.176 -0.453,-0.307c-0.128,-0.13 -0.228,-0.285 -0.301,-0.463c-0.072,-0.177 -0.108,-0.37 -0.108,-0.58c0,-0.205 0.036,-0.396 0.108,-0.574c0.073,-0.177 0.173,-0.331 0.299,-0.459c0.126,-0.128 0.276,-0.23 0.451,-0.305c0.175,-0.074 0.365,-0.111 0.57,-0.111c0.467,0 0.859,0.193 1.176,0.58l0,-1.637c-0.224,-0.093 -0.438,-0.163 -0.641,-0.207c-0.203,-0.044 -0.409,-0.066 -0.619,-0.066l0,0Zm1.631,0.146l0,1.163l1.127,0l0,4.115l1.373,0l0,-4.115l1.127,0l0,-1.163l-3.627,0Zm-7.965,1.184c0.201,0 0.389,0.037 0.568,0.109c0.18,0.072 0.34,0.173 0.477,0.303c0.138,0.131 0.247,0.286 0.326,0.463c0.079,0.178 0.119,0.37 0.119,0.58c0,0.21 -0.04,0.405 -0.119,0.582c-0.079,0.178 -0.188,0.331 -0.326,0.461c-0.137,0.131 -0.297,0.233 -0.477,0.305c-0.179,0.072 -0.367,0.109 -0.568,0.109c-0.201,0 -0.392,-0.037 -0.572,-0.109c-0.179,-0.072 -0.336,-0.174 -0.471,-0.305c-0.135,-0.13 -0.243,-0.283 -0.322,-0.461c-0.079,-0.177 -0.119,-0.372 -0.119,-0.582c0,-0.21 0.04,-0.402 0.119,-0.58c0.079,-0.177 0.187,-0.332 0.322,-0.463c0.135,-0.13 0.292,-0.231 0.471,-0.303c0.18,-0.072 0.371,-0.109 0.572,-0.109Z" style="fill:#eeeeee;fill-rule:nonzero;"/>
        <path d="M12.515,95.887l0,1.162l1.127,0l0,4.115l1.373,0l0,-4.115l1.127,0l0,-1.162l-3.627,0Zm4.234,0l0,3.059c0,0.822 0.191,1.42 0.569,1.798c0.378,0.378 0.957,0.569 1.736,0.569c0.779,0 1.356,-0.191 1.732,-0.569c0.375,-0.378 0.563,-0.976 0.563,-1.798l0,-3.059l-1.365,0l0,2.871c0,0.154 -0.006,0.312 -0.018,0.473c-0.011,0.161 -0.046,0.305 -0.107,0.435c-0.061,0.131 -0.155,0.239 -0.278,0.321c-0.124,0.082 -0.298,0.121 -0.527,0.121c-0.229,0 -0.407,-0.039 -0.533,-0.121c-0.126,-0.082 -0.218,-0.19 -0.277,-0.321c-0.058,-0.13 -0.093,-0.274 -0.104,-0.435c-0.012,-0.161 -0.018,-0.319 -0.018,-0.473l0,-2.871l-1.373,0Zm5.706,0l0,5.277l1.373,0l0,-3.226l2.533,3.226l1.365,0l0,-5.277l-1.365,0l0,3.227l-2.533,-3.227l-1.373,0Zm6.377,0l0,5.277l3.003,0l0,-1.16l-1.63,0l0,-0.91l1.539,0l0,-1.162l-1.539,0l0,-0.883l1.63,0l0,-1.162l-3.003,0Z" style="fill:#eeeeee;fill-rule:nonzero;"/>
      </g>
      <path d="M45.001,115.97c-5.706,0 -11.412,1.934 -16.027,5.805c-9.229,7.745 -11.587,21.128 -5.564,31.564c0.391,0.722 1.468,0.101 1.039,-0.6c-5.733,-9.934 -3.488,-22.672 5.297,-30.045c8.785,-7.369 21.725,-7.369 30.51,0c8.785,7.373 11.029,20.111 5.296,30.045c-0.429,0.701 0.648,1.322 1.039,0.6c6.023,-10.436 3.666,-23.819 -5.564,-31.564c-4.615,-3.871 -10.32,-5.805 -16.025,-5.805l-0.001,0Zm-18.883,41.52c-2.371,0 -4.307,1.936 -4.307,4.307c0,2.371 1.936,4.304 4.307,4.304c2.371,0 4.307,-1.933 4.307,-4.304c0,-2.371 -1.936,-4.307 -4.307,-4.307Zm37.766,0c-2.371,0 -4.305,1.934 -4.305,4.305c0,2.371 1.934,4.306 4.305,4.306c2.371,0 4.307,-1.935 4.307,-4.306c0,-2.371 -1.936,-4.305 -4.307,-4.305Zm-37.766,1.199c1.722,0 3.105,1.385 3.105,3.108c0,1.722 -1.383,3.105 -3.105,3.105c-1.723,0 -3.106,-1.383 -3.106,-3.105c0,-1.723 1.383,-3.108 3.106,-3.108Z" style="fill:#eeeeee;fill-rule:nonzero;"/>
      <path d="M62.053,173.36c-0.332,0.006 -0.596,0.28 -0.59,0.611l0,1.409c-2.52,0.129 -5.006,1.042 -7.047,2.755c-4.419,3.708 -5.55,10.112 -2.668,15.105l0.301,0.52l10.035,-5.793l10.035,5.793l0.301,-0.52c2.882,-4.993 1.752,-11.398 -2.668,-15.105c-2.052,-1.722 -4.555,-2.636 -7.09,-2.757l0,-1.411c0,-0.338 -0.271,-0.612 -0.609,-0.607l0,0Zm-0.586,3.219l0.019,10.35l-8.902,5.14c-2.21,-4.402 -1.209,-9.813 2.605,-13.014c1.819,-1.527 4.032,-2.348 6.278,-2.476l0,0Zm1.199,0c2.26,0.121 4.488,0.94 6.317,2.476c3.815,3.201 4.813,8.612 2.603,13.014l-8.902,-5.14l-0.018,-10.35Zm7.933,17.562l0.01,1.582l-1.606,0.008c-0.831,-0.028 -0.825,1.235 0.01,1.199l1.606,-0.008l0.01,1.629c-0.026,0.831 1.236,0.822 1.199,-0.008l-0.01,-1.625l1.603,-0.008c0.801,-0.004 0.795,-1.205 -0.01,-1.201l-1.605,0.008l-0.01,-1.584c0,-0.771 -1.197,-0.756 -1.197,0.008l0,0Zm-15.172,1.445l-4.415,0.02c-0.8,0.004 -0.794,1.205 0.01,1.201l4.415,-0.022c0.83,0.028 0.824,-1.235 -0.01,-1.199Z" style="fill:#eeeeee;fill-rule:nonzero;"/>
      <path d="M7.796,204.31l74.346,0" style="fill:none;stroke:#eeeeee;stroke-width:1.2px;"/>
      <path d="M7.796,108.64l74.346,0" style="fill:none;stroke:#eeeeee;stroke-width:1.2px;"/>
      <path d="M7.796,299.98l74.346,0" style="fill:none;stroke:#eeeeee;stroke-width:1.2px;"/>
      <path d="M38.893,169.62l0,5.277l1.371,0l0,-1.75l0.813,0c0.592,0 1.046,-0.154 1.361,-0.462c0.315,-0.308 0.473,-0.741 0.473,-1.301c0,-0.56 -0.158,-0.995 -0.473,-1.303c-0.315,-0.308 -0.769,-0.461 -1.361,-0.461l-2.184,0Zm4.193,0l1.575,5.277l1.4,0l1.035,-3.058l1.037,3.058l1.401,0l1.574,-5.277l-1.436,0l-0.91,3.408l-1.119,-3.408l-1.092,0l-1.121,3.408l-0.91,-3.408l-1.434,0Zm-2.822,1.106l0.455,0c0.504,0 0.756,0.219 0.756,0.658c0,0.439 -0.252,0.658 -0.756,0.658l-0.455,0l0,-1.316Z" style="fill:#eeeeee;fill-rule:nonzero;"/>
      <path d="M31.632,37.164c-0.459,0.444 -0.951,0.666 -1.476,0.666c-0.447,0 -0.81,-0.136 -1.089,-0.409c-0.279,-0.273 -0.419,-0.627 -0.419,-1.062c0,-0.565 0.226,-1 0.677,-1.306c0.452,-0.306 1.098,-0.458 1.94,-0.458l0.367,0l0,-0.466c0,-0.531 -0.303,-0.796 -0.907,-0.796c-0.537,0 -1.08,0.152 -1.63,0.456l0,-0.95c0.624,-0.236 1.241,-0.353 1.853,-0.353c1.337,0 2.007,0.532 2.007,1.596l0,2.263c0,0.4 0.129,0.6 0.386,0.6c0.047,0 0.107,-0.005 0.181,-0.018l0.033,0.773c-0.291,0.087 -0.55,0.13 -0.773,0.13c-0.564,0 -0.928,-0.222 -1.09,-0.666l-0.06,0Zm0,-0.74l0,-1.038l-0.326,0c-0.89,0 -1.336,0.279 -1.336,0.838c0,0.19 0.064,0.349 0.194,0.478c0.129,0.128 0.288,0.192 0.477,0.192c0.322,0 0.653,-0.156 0.991,-0.47Z" style="fill:#eeeeee;fill-rule:nonzero;"/>
      <path d="M34.733,37.714l0,-5.112l1.378,0l0,0.964c0.45,-0.72 1.03,-1.08 1.742,-1.08c0.456,0 0.816,0.144 1.08,0.433c0.263,0.289 0.396,0.683 0.396,1.182l0,3.613l-1.379,0l0,-3.273c0,-0.58 -0.193,-0.87 -0.577,-0.87c-0.438,0 -0.859,0.308 -1.262,0.926l0,3.217l-1.378,0Z" style="fill:#eeeeee;fill-rule:nonzero;"/>
      <path d="M43.499,37.164c-0.458,0.444 -0.951,0.666 -1.476,0.666c-0.447,0 -0.81,-0.136 -1.088,-0.409c-0.28,-0.273 -0.42,-0.627 -0.42,-1.062c0,-0.565 0.226,-1 0.678,-1.306c0.451,-0.306 1.098,-0.458 1.939,-0.458l0.367,0l0,-0.466c0,-0.531 -0.302,-0.796 -0.907,-0.796c-0.537,0 -1.08,0.152 -1.63,0.456l0,-0.95c0.624,-0.236 1.242,-0.353 1.853,-0.353c1.337,0 2.007,0.532 2.007,1.596l0,2.263c0,0.4 0.129,0.6 0.386,0.6c0.047,0 0.107,-0.005 0.182,-0.018l0.032,0.773c-0.291,0.087 -0.55,0.13 -0.773,0.13c-0.564,0 -0.927,-0.222 -1.088,-0.666l-0.062,0Zm0,-0.74l0,-1.038l-0.325,0c-0.891,0 -1.336,0.279 -1.336,0.838c0,0.19 0.063,0.349 0.193,0.478c0.129,0.128 0.288,0.192 0.477,0.192c0.323,0 0.653,-0.156 0.991,-0.47Z" style="fill:#eeeeee;fill-rule:nonzero;"/>
      <rect x="46.6" y="30.363" width="1.379" height="7.351" style="fill:#eeeeee;"/>
      <path d="M51.847,37.83c-0.798,0 -1.432,-0.241 -1.902,-0.724c-0.47,-0.483 -0.705,-1.132 -0.705,-1.948c0,-0.826 0.236,-1.477 0.71,-1.956c0.474,-0.477 1.116,-0.716 1.93,-0.716c0.816,0 1.461,0.239 1.934,0.716c0.473,0.479 0.71,1.127 0.71,1.947c0,0.838 -0.238,1.495 -0.712,1.969c-0.476,0.475 -1.13,0.712 -1.965,0.712Zm0.023,-0.861c0.792,0 1.188,-0.607 1.188,-1.82c0,-0.556 -0.105,-0.995 -0.314,-1.318c-0.21,-0.323 -0.498,-0.483 -0.864,-0.483c-0.364,0 -0.649,0.16 -0.859,0.483c-0.21,0.323 -0.315,0.765 -0.315,1.327c0,0.556 0.104,0.996 0.313,1.322c0.207,0.327 0.491,0.489 0.851,0.489Z" style="fill:#eeeeee;fill-rule:nonzero;"/>
      <path d="M55.828,39.301l0.111,-1c0.569,0.26 1.11,0.39 1.625,0.39c0.51,0 0.877,-0.108 1.104,-0.325c0.226,-0.218 0.339,-0.569 0.339,-1.058l0,-0.697c-0.335,0.736 -0.889,1.103 -1.662,1.103c-0.608,0 -1.09,-0.228 -1.447,-0.682c-0.357,-0.455 -0.536,-1.07 -0.536,-1.846c0,-0.817 0.2,-1.47 0.6,-1.962c0.401,-0.493 0.933,-0.738 1.598,-0.738c0.521,0 1.004,0.21 1.447,0.633l0.144,-0.517l1.239,0l0,3.902c0,0.779 -0.047,1.34 -0.142,1.685c-0.095,0.345 -0.278,0.638 -0.551,0.88c-0.46,0.397 -1.107,0.595 -1.942,0.595c-0.593,0 -1.235,-0.12 -1.927,-0.363Zm3.179,-3.491l0,-1.885c-0.332,-0.376 -0.679,-0.564 -1.043,-0.564c-0.347,0 -0.623,0.158 -0.829,0.475c-0.204,0.316 -0.307,0.742 -0.307,1.275c0,1 0.322,1.5 0.964,1.5c0.445,0 0.849,-0.267 1.215,-0.801Z" style="fill:#eeeeee;fill-rule:nonzero;"/>
      <path d="M24.875,49.748c-0.798,0 -1.432,-0.24 -1.902,-0.723c-0.47,-0.483 -0.706,-1.133 -0.706,-1.948c0,-0.826 0.237,-1.478 0.71,-1.956c0.474,-0.478 1.118,-0.716 1.931,-0.716c0.816,0 1.461,0.238 1.934,0.716c0.473,0.478 0.71,1.127 0.71,1.946c0,0.838 -0.238,1.494 -0.713,1.97c-0.474,0.474 -1.13,0.711 -1.964,0.711Zm0.023,-0.86c0.791,0 1.187,-0.607 1.187,-1.821c0,-0.555 -0.105,-0.995 -0.314,-1.318c-0.21,-0.323 -0.497,-0.484 -0.863,-0.484c-0.363,0 -0.65,0.161 -0.86,0.484c-0.209,0.323 -0.313,0.766 -0.313,1.328c0,0.555 0.103,0.995 0.311,1.321c0.208,0.326 0.492,0.49 0.852,0.49Z" style="fill:#eeeeee;fill-rule:nonzero;"/>
      <path d="M28.683,49.47l0,-1.011c0.683,0.286 1.267,0.429 1.751,0.429c0.564,0 0.847,-0.193 0.847,-0.578c0,-0.248 -0.233,-0.465 -0.698,-0.652l-0.466,-0.186c-0.506,-0.204 -0.867,-0.425 -1.085,-0.661c-0.217,-0.236 -0.325,-0.527 -0.325,-0.875c0,-0.484 0.184,-0.86 0.553,-1.129c0.37,-0.269 0.887,-0.402 1.55,-0.402c0.417,0 0.911,0.06 1.486,0.181l0,0.968c-0.553,-0.192 -1.01,-0.289 -1.373,-0.289c-0.572,0 -0.857,0.177 -0.857,0.531c0,0.233 0.211,0.43 0.633,0.592l0.401,0.153c0.599,0.227 1.015,0.457 1.249,0.689c0.235,0.232 0.351,0.532 0.351,0.898c0,0.482 -0.199,0.872 -0.598,1.171c-0.398,0.3 -0.918,0.449 -1.557,0.449c-0.614,0 -1.235,-0.092 -1.862,-0.278Z" style="fill:#eeeeee;fill-rule:nonzero;"/>
      <path d="M37.981,49.521c-0.572,0.152 -1.101,0.227 -1.589,0.227c-0.816,0 -1.461,-0.239 -1.934,-0.719c-0.473,-0.479 -0.709,-1.131 -0.709,-1.957c0,-0.835 0.243,-1.488 0.73,-1.96c0.487,-0.472 1.161,-0.707 2.02,-0.707c0.417,0 0.896,0.066 1.439,0.2l0,0.996c-0.564,-0.183 -1.016,-0.275 -1.355,-0.275c-0.412,0 -0.744,0.159 -0.995,0.475c-0.252,0.317 -0.378,0.737 -0.378,1.261c0,0.537 0.136,0.967 0.407,1.29c0.273,0.323 0.635,0.485 1.088,0.485c0.413,0 0.837,-0.09 1.276,-0.27l0,0.954Z" style="fill:#eeeeee;fill-rule:nonzero;"/>
      <path d="M39.284,49.633l0,-5.112l1.378,0l0,5.112l-1.378,0Zm0,-5.974l0,-1.15l1.378,0l0,1.15l-1.378,0Z" style="fill:#eeeeee;fill-rule:nonzero;"/>
      <rect x="42.384" y="42.282" width="1.379" height="7.351" style="fill:#eeeeee;"/>
      <rect x="45.485" y="42.282" width="1.379" height="7.351" style="fill:#eeeeee;"/>
      <path d="M51.091,49.083c-0.46,0.444 -0.952,0.665 -1.476,0.665c-0.447,0 -0.81,-0.136 -1.09,-0.408c-0.279,-0.274 -0.419,-0.628 -0.419,-1.062c0,-0.566 0.227,-1.001 0.678,-1.306c0.452,-0.306 1.098,-0.459 1.938,-0.459l0.369,0l0,-0.465c0,-0.531 -0.303,-0.796 -0.909,-0.796c-0.537,0 -1.08,0.152 -1.629,0.456l0,-0.95c0.624,-0.236 1.242,-0.353 1.853,-0.353c1.338,0 2.007,0.531 2.007,1.596l0,2.263c0,0.4 0.128,0.6 0.387,0.6c0.045,0 0.107,-0.006 0.181,-0.019l0.033,0.773c-0.293,0.087 -0.55,0.13 -0.773,0.13c-0.566,0 -0.929,-0.221 -1.09,-0.665l-0.06,0Zm0,-0.74l0,-1.038l-0.326,0c-0.891,0 -1.337,0.279 -1.337,0.837c0,0.19 0.065,0.348 0.194,0.478c0.128,0.129 0.287,0.193 0.477,0.193c0.323,0 0.653,-0.156 0.992,-0.47Z" style="fill:#eeeeee;fill-rule:nonzero;"/>
      <path d="M56.826,49.604c-0.329,0.097 -0.588,0.144 -0.777,0.144c-1.195,0 -1.792,-0.558 -1.792,-1.676l0,-2.69l-0.573,0l0,-0.861l0.573,0l0,-0.862l1.377,-0.158l0,1.02l1.095,0l0,0.861l-1.095,0l0,2.509c0,0.627 0.256,0.94 0.769,0.94c0.117,0 0.259,-0.021 0.423,-0.064l0,0.837Z" style="fill:#eeeeee;fill-rule:nonzero;"/>
      <path d="M60.202,49.748c-0.798,0 -1.432,-0.24 -1.902,-0.723c-0.47,-0.483 -0.705,-1.133 -0.705,-1.948c0,-0.826 0.236,-1.478 0.709,-1.956c0.474,-0.478 1.117,-0.716 1.931,-0.716c0.816,0 1.461,0.238 1.934,0.716c0.473,0.478 0.709,1.127 0.709,1.946c0,0.838 -0.237,1.494 -0.712,1.97c-0.475,0.474 -1.13,0.711 -1.964,0.711Zm0.023,-0.86c0.791,0 1.187,-0.607 1.187,-1.821c0,-0.555 -0.105,-0.995 -0.315,-1.318c-0.209,-0.323 -0.496,-0.484 -0.862,-0.484c-0.364,0 -0.651,0.161 -0.86,0.484c-0.209,0.323 -0.314,0.766 -0.314,1.328c0,0.555 0.104,0.995 0.312,1.321c0.208,0.326 0.492,0.49 0.852,0.49Z" style="fill:#eeeeee;fill-rule:nonzero;"/>
      <path d="M64.145,49.633l0,-5.112l1.378,0l0,0.964c0.357,-0.72 0.9,-1.08 1.63,-1.08c0.087,0 0.171,0.008 0.256,0.027l0,1.229c-0.196,-0.072 -0.378,-0.107 -0.545,-0.107c-0.55,0 -0.997,0.278 -1.341,0.834l0,3.245l-1.378,0Z" style="fill:#eeeeee;fill-rule:nonzero;"/>
      <path d="M27.703,24.283l0.541,0c0.62,0 1.065,-0.08 1.333,-0.239c0.268,-0.16 0.403,-0.415 0.403,-0.768c0,-0.352 -0.135,-0.608 -0.403,-0.767c-0.268,-0.159 -0.713,-0.239 -1.333,-0.239l-0.541,0l0,2.013Zm0,-3.85l0.453,0c0.771,0 1.157,-0.306 1.157,-0.918c0,-0.612 -0.386,-0.918 -1.157,-0.918l-0.453,0l0,1.836Zm-2.466,-3.723l3.673,0c0.873,0 1.535,0.209 1.988,0.629c0.453,0.419 0.679,1.023 0.679,1.811c0,0.478 -0.086,0.875 -0.258,1.189c-0.172,0.315 -0.434,0.581 -0.786,0.799c0.352,0.067 0.652,0.17 0.9,0.308c0.247,0.138 0.448,0.308 0.603,0.51c0.156,0.201 0.267,0.427 0.334,0.679c0.067,0.251 0.1,0.52 0.1,0.805c0,0.444 -0.077,0.839 -0.232,1.183c-0.155,0.343 -0.374,0.633 -0.654,0.868c-0.281,0.234 -0.623,0.41 -1.026,0.528c-0.402,0.117 -0.855,0.176 -1.358,0.176l-3.963,0l0,-9.485Z" style="fill:#eeeeee;fill-rule:nonzero;"/>
      <path d="M36.408,16.71l0,7.397l2.956,0l0,2.088l-5.422,0l0,-9.485l2.466,0Z" style="fill:#eeeeee;fill-rule:nonzero;"/>
      <path d="M46.031,18.798l-2.931,0l0,1.585l2.768,0l0,2.088l-2.768,0l0,1.636l2.931,0l0,2.088l-5.396,0l0,-9.485l5.396,0l0,2.088Z" style="fill:#eeeeee;fill-rule:nonzero;"/>
      <path d="M52.963,22.673l-1.107,-3.158l-1.107,3.158l2.214,0Zm0.654,1.874l-3.522,0l-0.566,1.648l-2.63,0l3.611,-9.485l2.692,0l3.61,9.485l-2.629,0l-0.566,-1.648Z" style="fill:#eeeeee;fill-rule:nonzero;"/>
      <path d="M60.36,20.622l3.006,-3.912l3.045,0l-3.762,4.491l4.114,4.994l-3.195,0l-3.208,-4.114l0,4.114l-2.466,0l0,-9.485l2.466,0l0,3.912Z" style="fill:#eeeeee;fill-rule:nonzero;"/>
      <path d="M33.979,262.95l1.574,5.277l1.401,0l1.037,-3.058l1.035,3.058l1.4,0l1.575,-5.277l-1.434,0l-0.91,3.408l-1.121,-3.408l-1.092,0l-1.119,3.408l-0.91,-3.408l-1.436,0Zm9.801,0l-2.01,5.277l1.463,0l0.314,-0.916l1.961,0l0.315,0.916l1.463,0l-2.008,-5.277l-1.498,0Zm3.148,0l2.221,5.277l1.092,0l2.224,-5.277l-1.49,0l-1.281,3.213l-1.274,-3.213l-1.492,0Zm6.09,0l0,5.277l3.004,0l0,-1.162l-1.631,0l0,-0.91l1.539,0l0,-1.162l-1.539,0l0,-0.881l1.631,0l0,-1.162l-3.004,0Zm-8.49,1.56l0.615,1.758l-1.23,0l0.615,-1.758Z" style="fill:#eeeeee;fill-rule:nonzero;"/>
    </g>
  </g>
</svg>