<svg width="150px" height="380px" version="1.1" xmlns="http://www.w3.org/2000/svg" xmlns:xlink="http://www.w3.org/1999/xlink" xml:space="preserve" xmlns:serif="http://www.serif.com/" style="fill-rule:evenodd;clip-rule:evenodd;stroke-linecap:round;stroke-miterlimit:10;">
  <defs>
    <linearGradient id="_Linear1" x1="0" y1="0" x2="1" y2="0" gradientUnits="userSpaceOnUse" gradientTransform="matrix(0.007008,-37.8989,37.8989,0.007008,75.2831,112.195)">
      <stop offset="0" style="stop-color:#202020;stop-opacity:1"/>
      <stop offset="1" style="stop-color:#202020;stop-opacity:1"/>
    </linearGradient>
    <linearGradient id="_Linear2" x1="0" y1="0" x2="1" y2="0" gradientUnits="userSpaceOnUse" gradientTransform="matrix(-4.88,-92.58,92.58,-4.88,277.54,345.91)">
      <stop offset="0" style="stop-color:#202020;stop-opacity:1"/>
      <stop offset="1" style="stop-color:#202020;stop-opacity:1"/>
    </linearGradient>
    <linearGradient id="_Linear3" x1="0" y1="0" x2="1" y2="0" gradientUnits="userSpaceOnUse" gradientTransform="matrix(-4.75,94.86,-94.86,-4.75,277.54,158.47)">
      <stop offset="0" style="stop-color:#202020;stop-opacity:1"/>
      <stop offset="1" style="stop-color:#202020;stop-opacity:1"/>
    </linearGradient>
    <linearGradient id="_Linear4" x1="0" y1="0" x2="1" y2="0" gradientUnits="userSpaceOnUse" gradientTransform="matrix(1.15392e-16,-1.8845,1.8845,1.15392e-16,56.5187,1.9362)">
      <stop offset="0" style="stop-color:#202020;stop-opacity:1"/>
      <stop offset="1" style="stop-color:#202020;stop-opacity:1"/>
    </linearGradient>
  </defs>
  <g id="Panel">
    <g>
      <rect x="0" y="0" width="150" height="380" style="fill:url(#_Linear1);"/>
      <rect x="0" y="253.33" width="150" height="126.67" style="fill:url(#_Linear2);"/>
      <rect x="0" y="126.67" width="150" height="126.67" style="fill:url(#_Linear3);"/>
      <rect x="0" y="0" width="150" height="380" style="fill:rgb(16,53,80);fill-opacity:0.1;"/>
      <rect x="0" y="0" width="150" height="2" style="fill:url(#_Linear4);"/>
    </g>
    <g>
      <path d="M62.9,363.496l3.443,10.383c0.322,0.968 0.909,1.451 1.756,1.451c0.835,0 1.414,-0.476 1.737,-1.435l3.46,-10.398l-2.66,0l-2.574,8.318l-2.49,-8.318l-2.672,-0.001Zm10.598,0l0,8.793c0,0.736 0.078,1.265 0.234,1.588c0.423,0.881 1.214,1.32 2.373,1.32l3.243,0c1.126,0 1.912,-0.429 2.357,-1.287c0.168,-0.324 0.25,-0.87 0.25,-1.639l0,-8.775l-2.506,0l0,8.658l-0.018,0.084c-0.056,0.29 -0.34,0.436 -0.853,0.436l-1.705,0c-0.535,0 -0.826,-0.157 -0.87,-0.469l0,-8.709l-2.505,0Zm9.611,0l0,8.842c0,0.914 0.19,1.598 0.569,2.049c0.378,0.452 1.019,0.717 1.922,0.795c0.123,0.011 0.268,0.015 0.435,0.015l4.664,0l0.016,-2.523l-4.463,0c-0.424,0 -0.634,-0.178 -0.634,-0.535l0,-8.643l-2.509,0Zm7.69,0l0,2.525l2.49,0l0,9.176l2.508,0l0,-9.176l2.523,0l0,-2.525l-7.521,0Z" style="fill:rgb(102,102,102);fill-rule:nonzero;"/>
      <path d="M59.3,369.416c0,-4.509 -3.655,-8.165 -8.164,-8.165c-4.509,0 -8.165,3.656 -8.165,8.165c0,4.509 3.656,8.165 8.165,8.165c4.509,0 8.164,-3.656 8.164,-8.165Z" style="fill:rgb(117,117,117);fill-rule:nonzero;stroke:rgb(53,53,53);stroke-width:0.61px;"/>
      <g>
        <path d="M49.32,374.389l0.553,-0.89l-1.064,-2.393l-2.216,-2.284l0.46,3.101l0.597,1.28l0.833,1.263l0.837,-0.077Z" style="fill:rgb(43,43,43);fill-rule:nonzero;"/>
        <path d="M53.05,374.399l-0.553,-0.891l1.064,-2.393l2.216,-2.284l-0.46,3.101l-0.597,1.28l-0.833,1.264l-0.837,-0.077Z" style="fill:#202020;fill-rule:nonzero;"/>
        <path d="M48.64,363.359l2.584,-0.661l0,13.448l-1.349,-2.651l-1.061,-2.385l-1.022,-0.581l-2.052,-2.921l-0.057,-0.775l1.148,-2.067l1.809,-1.407Z" style="fill:rgb(66,66,66);fill-rule:nonzero;"/>
        <path d="M53.8,363.359l-2.584,-0.66l0,13.448l1.35,-2.651l1.06,-2.385l1.023,-0.581l2.051,-2.921l0.058,-0.775l-1.149,-2.068l-1.809,-1.407Z" style="fill:rgb(51,51,51);fill-rule:nonzero;"/>
        <path d="M49.5,369.239l1.723,-1.685l0,1.23l-1.723,1.718l0,-1.263" style="fill:rgb(76,76,76);fill-rule:nonzero;"/>
        <path d="M51.22,368.779l-1.723,1.718l0.377,3.004l1.346,2.643l0,-7.365Z" style="fill:rgb(91,91,91);fill-rule:nonzero;"/>
        <path d="M51.22,376.149l-1.346,-2.643l1.346,-0.635l0,3.278Z" style="fill:rgb(51,51,51);fill-rule:nonzero;"/>
        <path d="M49.5,370.499l0,-1.264l-1.249,-1.579l-1.477,-1.19l-0.001,0.932l0.775,1.823l1.952,1.278Z" style="fill:#eeeeee;fill-rule:nonzero;"/>
        <path d="M52.94,369.239l-1.722,-1.684l0,1.23l1.722,1.718l0,-1.264" style="fill:rgb(45,45,45);fill-rule:nonzero;"/>
        <path d="M51.22,368.779l1.722,1.718l-0.376,3.004l-1.347,2.643l0.001,-7.365Z" style="fill:rgb(53,53,53);fill-rule:nonzero;"/>
        <path d="M51.22,376.149l1.347,-2.643l-1.346,-0.635l-0.001,3.278Z" style="fill:#202020;fill-rule:nonzero;"/>
        <path d="M52.94,370.499l0,-1.264l1.249,-1.579l1.478,-1.19l0.001,0.932l-0.775,1.823l-1.953,1.278Z" style="fill:#eeeeee;fill-rule:nonzero;"/>
        <path d="M48.65,363.339l2.566,4.216l-0.005,-4.87" style="fill:rgb(56,56,56);fill-rule:nonzero;"/>
        <path d="M53.78,363.339l-2.566,4.215l0.006,-4.87" style="fill:rgb(45,45,45);fill-rule:nonzero;"/>
        <path d="M48.81,371.109l0.688,-0.61l0.375,3.006l-1.063,-2.396Z" style="fill:rgb(51,51,51);fill-rule:nonzero;"/>
        <path d="M53.63,371.129l-0.688,-0.61l-0.375,3.006l1.063,-2.396Z" style="fill:rgb(28,28,28);fill-rule:nonzero;"/>
      </g>
    </g>
    <path d="M62.175,344.42l0,6.035l1.568,0l0,-6.035l-1.568,0Zm2.832,0l0,6.035l1.57,0l0,-3.691l2.897,3.691l1.56,0l0,-6.035l-1.56,0l0,3.689l-2.897,-3.689l-1.57,0Zm7.291,0l0,6.035l1.57,0l0,-2.002l0.928,0c0.677,0 1.197,-0.175 1.557,-0.527c0.36,-0.352 0.541,-0.848 0.541,-1.488c0,-0.64 -0.181,-1.137 -0.541,-1.489c-0.36,-0.353 -0.88,-0.529 -1.557,-0.529l-2.498,0Zm5.428,0l0,3.498c0,0.94 0.216,1.624 0.648,2.057c0.432,0.432 1.092,0.648 1.985,0.648c0.892,0 1.551,-0.216 1.98,-0.648c0.428,-0.433 0.645,-1.117 0.645,-2.057l0,-3.498l-1.561,0l0,3.281c0,0.176 -0.007,0.357 -0.019,0.541c-0.012,0.184 -0.057,0.352 -0.125,0.5c-0.068,0.148 -0.177,0.271 -0.317,0.363c-0.14,0.092 -0.343,0.141 -0.603,0.141c-0.26,0 -0.464,-0.048 -0.608,-0.141c-0.145,-0.092 -0.248,-0.215 -0.316,-0.363c-0.068,-0.148 -0.109,-0.316 -0.121,-0.5c-0.012,-0.184 -0.02,-0.365 -0.02,-0.541l0,-3.281l-1.568,0Zm5.955,0l0,1.328l1.287,0l0,4.707l1.568,0l0,-4.707l1.289,0l0,-1.328l-4.144,0Zm-9.813,1.266l0.52,0c0.577,0 0.865,0.252 0.865,0.752c0,0.5 -0.288,0.751 -0.865,0.751l-0.52,0l0,-1.503Z" style="fill:#eeeeee;"/>
    <path d="M81.32,17.445c-0.773,0 -1.479,0.127 -2.121,0.383c-0.641,0.256 -1.191,0.611 -1.652,1.064c-0.461,0.453 -0.823,0.983 -1.082,1.59c-0.26,0.609 -0.391,1.264 -0.391,1.969c0,0.705 0.131,1.363 0.391,1.971c0.259,0.608 0.621,1.136 1.082,1.589c0.461,0.453 1.011,0.807 1.652,1.063c0.642,0.256 1.348,0.385 2.121,0.385c0.763,0 1.467,-0.129 2.113,-0.385c0.646,-0.256 1.202,-0.61 1.668,-1.063c0.465,-0.453 0.828,-0.981 1.088,-1.589c0.26,-0.608 0.389,-1.266 0.389,-1.971c0,-0.705 -0.129,-1.36 -0.389,-1.969c-0.26,-0.607 -0.623,-1.137 -1.088,-1.59c-0.466,-0.453 -1.022,-0.808 -1.668,-1.064c-0.646,-0.256 -1.35,-0.383 -2.113,-0.383Zm-27.639,0.266l0,9.484l2.467,0l0,-3.725l2.705,0l0,-2.087l-2.705,0l0,-1.586l2.967,0l0,-2.086l-5.434,0l0,0Zm6.906,0l0,9.484l5.397,0l0,-2.09l-2.93,0l0,-1.635l2.766,0l0,-2.087l-2.766,0l0,-1.586l2.93,0l0,-2.086l-5.397,0l0,0Zm7.172,0l0,9.484l2.465,0l0,-3.648l2.351,3.648l3.071,0l-2.983,-3.887c0.68,-0.159 1.193,-0.463 1.541,-0.912c0.349,-0.449 0.524,-1.035 0.524,-1.756c0,-0.403 -0.064,-0.779 -0.195,-1.132c-0.13,-0.351 -0.323,-0.663 -0.579,-0.932c-0.255,-0.267 -0.579,-0.479 -0.974,-0.635c-0.394,-0.154 -0.856,-0.23 -1.383,-0.23l-3.838,0l0,0Zm19.662,0l2.957,4.427l-3.711,5.057l2.981,0l2.226,-3.094l1.899,3.094l3.007,0l-3.535,-5.057l3.133,-4.427l-3.045,0l-1.586,2.451l-1.281,-2.451l-3.045,0l0,0Zm-17.197,1.898l0.467,0c0.486,0 0.859,0.1 1.119,0.301c0.259,0.202 0.389,0.492 0.389,0.869c0,0.377 -0.13,0.666 -0.389,0.867c-0.26,0.202 -0.633,0.301 -1.119,0.301l-0.467,0l0,-2.338l0,0Zm11.096,0.227c0.36,0 0.703,0.065 1.025,0.195c0.324,0.13 0.608,0.313 0.856,0.547c0.246,0.234 0.442,0.511 0.584,0.83c0.143,0.319 0.213,0.666 0.213,1.043c0,0.378 -0.07,0.727 -0.213,1.045c-0.142,0.318 -0.338,0.595 -0.584,0.83c-0.248,0.235 -0.532,0.418 -0.856,0.547c-0.322,0.131 -0.665,0.195 -1.025,0.195c-0.361,0 -0.702,-0.064 -1.025,-0.195c-0.323,-0.129 -0.607,-0.312 -0.85,-0.547c-0.243,-0.235 -0.436,-0.512 -0.578,-0.83c-0.143,-0.318 -0.215,-0.667 -0.215,-1.045c0,-0.377 0.072,-0.724 0.215,-1.043c0.142,-0.319 0.335,-0.596 0.578,-0.83c0.243,-0.234 0.527,-0.417 0.85,-0.547c0.323,-0.13 0.664,-0.195 1.025,-0.195Zm-1.31,11.256c-0.565,0 -1,0.172 -1.305,0.517c-0.306,0.347 -0.461,0.842 -0.461,1.485l0,0.353l-0.701,0l0,0.861l0.701,0l0,4.25l1.379,0l0,-4.25l1.84,0l0,4.25l1.377,0l0,-5.111l-3.217,0l0,-0.316c0,-0.776 0.215,-1.164 0.639,-1.164c0.187,0 0.47,0.084 0.855,0.255l0,-0.941c-0.391,-0.127 -0.759,-0.189 -1.107,-0.189l0,0Zm4.552,0.115l0,7.351l1.379,0l0,-7.351l-1.379,0Zm-2.871,0.228l0,1.153l1.149,0l0,-1.153l-1.149,0Zm7.416,0.993l-1.379,0.16l0,0.859l-0.572,0l0,0.861l0.572,0l0,2.692c0,1.117 0.599,1.676 1.793,1.676c0.19,0 0.45,-0.05 0.778,-0.145l0,-0.838c-0.164,0.043 -0.305,0.067 -0.424,0.067c-0.511,0 -0.768,-0.316 -0.768,-0.944l0,-2.508l1.094,0l0,-0.861l-1.094,0l0,-1.019l0,0Zm-37.658,0.902c-0.86,0 -1.533,0.236 -2.021,0.707c-0.487,0.472 -0.731,1.126 -0.731,1.961c0,0.825 0.237,1.479 0.711,1.959c0.473,0.478 1.118,0.719 1.934,0.719c0.487,0 1.017,-0.077 1.588,-0.229l0,-0.955c-0.437,0.18 -0.865,0.271 -1.278,0.271c-0.453,0 -0.815,-0.161 -1.086,-0.484c-0.272,-0.323 -0.408,-0.754 -0.408,-1.291c0,-0.525 0.126,-0.945 0.377,-1.262c0.251,-0.316 0.585,-0.472 0.998,-0.472c0.337,0 0.79,0.09 1.356,0.273l0,-0.996c-0.543,-0.133 -1.024,-0.201 -1.44,-0.201l0,0Zm5.828,0c-0.746,0 -1.319,0.36 -1.722,1.08l0,-0.963l-1.323,0l0,5.111l1.323,0l0,-3.244c0.391,-0.599 0.791,-0.898 1.197,-0.898c0.407,0 0.609,0.304 0.609,0.912l0,3.23l1.323,0l0,-3.244c0.39,-0.596 0.793,-0.894 1.205,-0.894c0.404,0 0.605,0.303 0.605,0.908l0,3.231l1.322,0l0,-3.682c0,-1.03 -0.466,-1.547 -1.4,-1.547c-0.677,0 -1.255,0.36 -1.732,1.08c-0.057,-0.341 -0.209,-0.606 -0.457,-0.795c-0.249,-0.19 -0.566,-0.285 -0.95,-0.285l0,0Zm8.381,0c-0.813,0 -1.457,0.241 -1.93,0.719c-0.474,0.478 -0.71,1.129 -0.71,1.955c0,0.817 0.235,1.465 0.705,1.947c0.47,0.483 1.105,0.725 1.902,0.725c0.834,0 1.491,-0.238 1.965,-0.713c0.475,-0.474 0.711,-1.131 0.711,-1.969c0,-0.82 -0.236,-1.467 -0.709,-1.945c-0.473,-0.478 -1.118,-0.719 -1.934,-0.719l0,0Zm5.902,0c-0.664,0 -1.18,0.134 -1.55,0.402c-0.369,0.269 -0.553,0.646 -0.553,1.131c0,0.347 0.108,0.638 0.326,0.873c0.217,0.237 0.578,0.457 1.084,0.662l0.465,0.188c0.464,0.186 0.697,0.402 0.697,0.65c0,0.385 -0.279,0.578 -0.845,0.578c-0.483,0 -1.067,-0.141 -1.75,-0.427l0,1.009c0.627,0.186 1.247,0.28 1.863,0.28c0.638,0 1.157,-0.152 1.555,-0.45c0.399,-0.3 0.597,-0.689 0.597,-1.169c0,-0.367 -0.114,-0.668 -0.349,-0.901c-0.234,-0.233 -0.65,-0.462 -1.25,-0.689l-0.401,-0.153c-0.422,-0.161 -0.633,-0.358 -0.633,-0.591c0,-0.353 0.286,-0.53 0.858,-0.53c0.363,0 0.82,0.094 1.373,0.287l0,-0.966c-0.574,-0.122 -1.07,-0.184 -1.486,-0.184l-0.001,0Zm21.973,0c-0.741,0 -1.338,0.241 -1.789,0.724c-0.452,0.483 -0.677,1.121 -0.677,1.913c0,0.838 0.247,1.498 0.74,1.982c0.494,0.484 1.166,0.727 2.019,0.727c0.587,0 1.209,-0.098 1.864,-0.29l0,-0.966c-0.581,0.214 -1.1,0.32 -1.563,0.32c-0.978,0 -1.514,-0.487 -1.607,-1.463l3.17,0c0,-1.02 -0.171,-1.768 -0.516,-2.24c-0.344,-0.471 -0.892,-0.707 -1.641,-0.707l0,0Zm6.588,0c-0.73,0 -1.272,0.36 -1.629,1.08l0,-0.963l-1.377,0l0,5.111l1.377,0l0,-3.244c0.345,-0.555 0.792,-0.834 1.342,-0.834c0.167,0 0.349,0.037 0.545,0.108l0,-1.231c-0.084,-0.018 -0.171,-0.027 -0.258,-0.027l0,0Zm-34.463,0.863c0.366,0 0.654,0.162 0.864,0.485c0.209,0.323 0.314,0.76 0.314,1.316c0,1.213 -0.396,1.82 -1.187,1.82c-0.36,0 -0.644,-0.162 -0.852,-0.488c-0.208,-0.326 -0.312,-0.766 -0.312,-1.322c0,-0.562 0.105,-1.004 0.314,-1.327c0.21,-0.323 0.496,-0.484 0.859,-0.484l0,0Zm27.834,0c0.561,0 0.844,0.435 0.844,1.307l-1.834,0c0.09,-0.872 0.418,-1.307 0.99,-1.307l0,0Z" style="fill:#eeeeee;fill-rule:nonzero;"/>
    <path d="M71.106,316.68c-5.507,0 -9.988,4.481 -9.988,9.988l0,13.145c0,0.801 1.201,0.801 1.201,0l0,-13.145c0,-4.857 3.93,-8.789 8.787,-8.789l7.788,0c4.857,0 8.789,3.932 8.789,8.789l0,13.145c0,0.843 1.232,0.831 1.199,0l0,-13.145c0,-5.506 -4.481,-9.988 -9.988,-9.988l-7.788,0Z" style="fill:#eeeeee;"/>
    <path d="M74.966,45.073c-7.925,0 -15.85,2.688 -22.26,8.064c-12.819,10.758 -16.094,29.346 -7.729,43.84c0.105,0.193 0.308,0.314 0.528,0.314c0.329,0 0.6,-0.271 0.6,-0.6c0,-0.111 -0.031,-0.219 -0.088,-0.313c-8.077,-13.992 -4.914,-31.937 7.46,-42.322c12.376,-10.38 30.6,-10.38 42.975,0c12.376,10.386 15.537,28.33 7.461,42.322c-0.058,0.094 -0.088,0.202 -0.088,0.313c0,0.329 0.271,0.6 0.6,0.6c0.22,0 0.423,-0.121 0.527,-0.314c8.366,-14.494 5.092,-33.081 -7.728,-43.84c-6.41,-5.376 -14.333,-8.064 -22.258,-8.064Zm29.68,56.053c-2.371,0 -4.305,1.935 -4.305,4.306c0,2.371 1.934,4.307 4.305,4.307c2.371,0 4.307,-1.936 4.307,-4.307c0,-2.371 -1.936,-4.306 -4.307,-4.306Zm-58.777,0.513c-2.371,0 -4.307,1.934 -4.307,4.305c0,2.371 1.936,4.307 4.307,4.307c2.371,0 4.305,-1.936 4.305,-4.307c0,-2.371 -1.934,-4.305 -4.305,-4.305Zm0,1.2c1.722,0 3.105,1.383 3.105,3.105c0,1.723 -1.383,3.107 -3.105,3.107c-1.723,0 -3.107,-1.384 -3.107,-3.107c0,-1.722 1.384,-3.105 3.107,-3.105Z" style="fill:#eeeeee;fill-rule:nonzero;"/>
    <path d="M62.375,115.77c-0.422,0 -0.825,0.078 -1.209,0.236c-0.384,0.157 -0.721,0.375 -1.012,0.655c-0.291,0.28 -0.524,0.615 -0.697,1.002c-0.174,0.386 -0.26,0.811 -0.26,1.275c0,0.464 0.089,0.892 0.266,1.285c0.176,0.392 0.408,0.731 0.699,1.016c0.291,0.286 0.627,0.507 1.008,0.664c0.382,0.158 0.781,0.236 1.197,0.236c0.202,0 0.407,-0.02 0.615,-0.06c0.208,-0.04 0.432,-0.102 0.672,-0.188l0.16,-0.054l0,-1.858c-0.4,0.426 -0.85,0.641 -1.351,0.641c-0.23,0 -0.444,-0.044 -0.641,-0.129c-0.198,-0.086 -0.368,-0.203 -0.515,-0.352c-0.146,-0.15 -0.261,-0.326 -0.344,-0.529c-0.083,-0.202 -0.125,-0.424 -0.125,-0.664c0,-0.235 0.042,-0.451 0.125,-0.654c0.083,-0.203 0.196,-0.38 0.34,-0.526c0.144,-0.147 0.314,-0.261 0.515,-0.347c0.2,-0.085 0.418,-0.129 0.653,-0.129c0.533,0 0.981,0.221 1.343,0.664l0,-1.873c-0.256,-0.107 -0.5,-0.184 -0.732,-0.235c-0.232,-0.051 -0.467,-0.076 -0.707,-0.076l0,0Zm16.238,0c-0.49,0 -0.94,0.081 -1.348,0.244c-0.408,0.163 -0.758,0.388 -1.052,0.676c-0.293,0.288 -0.524,0.625 -0.69,1.012c-0.165,0.386 -0.248,0.804 -0.248,1.252c0,0.448 0.083,0.867 0.248,1.254c0.166,0.386 0.397,0.723 0.69,1.011c0.294,0.288 0.644,0.514 1.052,0.676c0.408,0.163 0.858,0.244 1.348,0.244c0.486,0 0.933,-0.081 1.344,-0.244c0.411,-0.162 0.764,-0.388 1.06,-0.676c0.297,-0.288 0.528,-0.625 0.694,-1.011c0.165,-0.387 0.248,-0.806 0.248,-1.254c0,-0.448 -0.083,-0.866 -0.248,-1.252c-0.166,-0.387 -0.397,-0.724 -0.694,-1.012c-0.296,-0.288 -0.649,-0.513 -1.06,-0.676c-0.411,-0.163 -0.858,-0.244 -1.344,-0.244Zm-13.805,0.168l0,3.496c0,0.939 0.214,1.625 0.646,2.057c0.432,0.432 1.096,0.648 1.987,0.648c0.891,0 1.55,-0.216 1.98,-0.648c0.429,-0.432 0.645,-1.118 0.645,-2.057l0,-3.496l-1.561,0l0,3.281c0,0.176 -0.007,0.355 -0.021,0.539c-0.013,0.185 -0.053,0.352 -0.123,0.502c-0.069,0.149 -0.176,0.269 -0.317,0.363c-0.141,0.093 -0.342,0.141 -0.603,0.141c-0.262,0 -0.466,-0.048 -0.61,-0.141c-0.144,-0.094 -0.249,-0.214 -0.316,-0.363c-0.066,-0.15 -0.105,-0.317 -0.119,-0.502c-0.013,-0.184 -0.022,-0.363 -0.022,-0.539l0,-3.281l-1.566,0Zm5.953,0l0,1.328l1.289,0l0,4.705l1.569,0l0,-4.705l1.289,0l0,-1.328l-4.147,0Zm12.189,0l0,6.033l1.569,0l-0.001,-2.369l1.721,0l0,-1.328l-1.721,0l0.001,-1.008l1.888,0l0,-1.328l-3.457,0Zm4.395,0l0,6.033l1.568,0l0,-2.369l1.721,0l0,-1.328l-1.721,0l0,-1.008l1.889,0l0,-1.328l-3.457,0Zm-8.733,1.352c0.23,0 0.447,0.041 0.653,0.123c0.205,0.083 0.387,0.199 0.544,0.349c0.157,0.149 0.281,0.327 0.372,0.53c0.091,0.203 0.136,0.422 0.136,0.662c0,0.24 -0.045,0.462 -0.136,0.664c-0.091,0.203 -0.215,0.379 -0.372,0.529c-0.157,0.149 -0.339,0.265 -0.544,0.348c-0.206,0.082 -0.423,0.125 -0.653,0.125c-0.229,0 -0.446,-0.043 -0.652,-0.125c-0.205,-0.083 -0.384,-0.199 -0.539,-0.348c-0.155,-0.15 -0.278,-0.326 -0.369,-0.529c-0.091,-0.202 -0.137,-0.424 -0.137,-0.664c0,-0.24 0.046,-0.459 0.137,-0.662c0.091,-0.203 0.214,-0.381 0.369,-0.53c0.155,-0.15 0.334,-0.266 0.539,-0.349c0.206,-0.082 0.423,-0.123 0.652,-0.123Z" style="fill:#eeeeee;fill-rule:nonzero;"/>
    <path d="M41.322,165.9c-0.32,0 -0.609,0.048 -0.869,0.145c-0.26,0.096 -0.476,0.232 -0.656,0.404c-0.18,0.172 -0.316,0.379 -0.416,0.623c-0.1,0.244 -0.147,0.512 -0.147,0.812c0,0.3 0.047,0.545 0.139,0.741c0.092,0.196 0.217,0.356 0.369,0.484c0.152,0.128 0.323,0.233 0.519,0.309c0.196,0.076 0.392,0.147 0.596,0.211c0.172,0.06 0.316,0.112 0.436,0.16c0.12,0.048 0.216,0.1 0.293,0.156c0.076,0.056 0.128,0.116 0.16,0.184c0.032,0.068 0.049,0.144 0.049,0.236c0,0.148 -0.064,0.283 -0.188,0.4c-0.125,0.116 -0.318,0.178 -0.574,0.178c-0.224,0 -0.452,-0.052 -0.68,-0.152c-0.228,-0.101 -0.459,-0.257 -0.695,-0.465l-0.674,1.263c0.653,0.452 1.357,0.68 2.121,0.68c0.368,0 0.696,-0.046 0.988,-0.146c0.292,-0.1 0.537,-0.236 0.737,-0.416c0.2,-0.18 0.353,-0.393 0.457,-0.645c0.104,-0.252 0.156,-0.534 0.156,-0.842c0,-0.46 -0.121,-0.831 -0.357,-1.115c-0.236,-0.284 -0.611,-0.511 -1.123,-0.683c-0.128,-0.044 -0.257,-0.086 -0.389,-0.122c-0.133,-0.036 -0.25,-0.08 -0.354,-0.132c-0.104,-0.052 -0.187,-0.112 -0.251,-0.18c-0.064,-0.068 -0.096,-0.156 -0.096,-0.264c0,-0.156 0.065,-0.281 0.193,-0.377c0.128,-0.096 0.291,-0.142 0.496,-0.142c0.16,0 0.324,0.031 0.496,0.099c0.172,0.068 0.34,0.169 0.512,0.309l0.625,-1.225c-0.3,-0.16 -0.613,-0.279 -0.937,-0.363c-0.324,-0.085 -0.635,-0.125 -0.936,-0.125l0,0Zm-12.303,0.168l0,6.033l1.57,0l0,-2.32l1.496,2.32l1.953,0l-1.896,-2.473c0.432,-0.1 0.76,-0.296 0.98,-0.58c0.22,-0.284 0.332,-0.656 0.332,-1.117c0,-0.256 -0.041,-0.495 -0.125,-0.719c-0.084,-0.224 -0.203,-0.419 -0.367,-0.591c-0.164,-0.172 -0.369,-0.305 -0.621,-0.405c-0.252,-0.1 -0.545,-0.148 -0.881,-0.148l-2.441,0Zm5.676,0l0,6.033l3.433,0l0,-1.326l-1.865,0l0,-1.041l1.762,0l0,-1.328l-1.762,0l0,-1.01l1.865,0l0,-1.328l-3.433,0Zm-4.106,1.209l0.295,0c0.308,0 0.549,0.063 0.713,0.191c0.164,0.128 0.248,0.311 0.248,0.551c0,0.24 -0.084,0.427 -0.248,0.555c-0.164,0.128 -0.405,0.191 -0.713,0.191l-0.295,0l0,-1.488Z" style="fill:#eeeeee;fill-rule:nonzero;"/>
    <path d="M36.5,114.741c-5.705,0 -11.412,1.934 -16.027,5.805c-9.229,7.746 -11.587,21.128 -5.564,31.564c0.105,0.193 0.308,0.314 0.527,0.314c0.33,0 0.6,-0.271 0.6,-0.6c0,-0.11 -0.03,-0.219 -0.088,-0.313c-5.733,-9.934 -3.488,-22.672 5.297,-30.045c8.786,-7.369 21.725,-7.369 30.51,0c8.786,7.372 11.03,20.111 5.297,30.045c-0.058,0.094 -0.089,0.203 -0.089,0.313c0,0.329 0.271,0.6 0.6,0.6c0.22,0 0.423,-0.121 0.528,-0.314c6.023,-10.436 3.666,-23.819 -5.565,-31.564c-4.614,-3.871 -10.32,-5.805 -16.025,-5.805l-0.001,0Zm19.639,41.52c-2.371,0 -4.304,1.934 -4.304,4.305c0,2.371 1.933,4.307 4.304,4.307c2.371,0 4.307,-1.936 4.307,-4.307c0,-2.371 -1.936,-4.305 -4.307,-4.305Zm-37.779,0.512c-2.371,0 -4.306,1.936 -4.306,4.307c0,2.371 1.935,4.305 4.306,4.305c2.371,0 4.307,-1.934 4.307,-4.305c0,-2.371 -1.936,-4.307 -4.307,-4.307Zm0,1.199c1.723,0 3.106,1.385 3.106,3.108c0,1.722 -1.383,3.105 -3.106,3.105c-1.722,0 -3.105,-1.383 -3.105,-3.105c0,-1.723 1.383,-3.108 3.105,-3.108Z" style="fill:#eeeeee;fill-rule:nonzero;"/>
    <path d="M103.057,170.775l0.36,0c0.272,0 0.516,-0.044 0.728,-0.128c0.212,-0.085 0.392,-0.205 0.54,-0.353c0.149,-0.148 0.261,-0.328 0.337,-0.532c0.076,-0.204 0.116,-0.432 0.116,-0.676c0,-0.24 -0.04,-0.464 -0.12,-0.672c-0.08,-0.208 -0.192,-0.389 -0.341,-0.537c-0.148,-0.148 -0.328,-0.268 -0.54,-0.352c-0.212,-0.084 -0.452,-0.128 -0.72,-0.128l-0.36,0l0,3.378Zm-1.569,-4.706l2.321,0c0.412,0 0.796,0.084 1.157,0.248c0.36,0.164 0.676,0.384 0.944,0.66c0.268,0.276 0.48,0.596 0.636,0.96c0.156,0.365 0.232,0.749 0.232,1.149c0,0.396 -0.076,0.776 -0.228,1.14c-0.152,0.364 -0.364,0.689 -0.632,0.965c-0.268,0.276 -0.584,0.5 -0.944,0.664c-0.361,0.164 -0.749,0.248 -1.165,0.248l-2.321,0l0,-6.034Z" style="fill:#eeeeee;fill-rule:nonzero;"/>
    <path d="M109.347,168.766l0.297,0c0.308,0 0.548,-0.064 0.712,-0.192c0.164,-0.128 0.248,-0.312 0.248,-0.553c0,-0.24 -0.084,-0.424 -0.248,-0.552c-0.164,-0.128 -0.404,-0.192 -0.712,-0.192l-0.297,0l0,1.489Zm3.45,3.337l-1.953,0l-1.497,-2.321l0,2.321l-1.568,0l0,-6.034l2.441,0c0.336,0 0.628,0.048 0.88,0.148c0.252,0.1 0.456,0.232 0.62,0.404c0.164,0.172 0.285,0.368 0.369,0.592c0.084,0.224 0.124,0.464 0.124,0.72c0,0.461 -0.112,0.833 -0.333,1.117c-0.22,0.284 -0.548,0.48 -0.98,0.58l1.897,2.473Z" style="fill:#eeeeee;fill-rule:nonzero;"/>
    <rect x="113.457" y="166.069" width="1.569" height="6.035" style="fill:#eeeeee;"/>
    <path d="M117.357,166.069l1.456,3.673l1.465,-3.673l1.705,0l-2.545,6.034l-1.249,0l-2.537,-6.034l1.705,0Z" style="fill:#eeeeee;fill-rule:nonzero;"/>
    <path d="M126.047,167.397l-1.864,0l0,1.009l1.76,0l0,1.328l-1.76,0l0,1.041l1.864,0l0,1.328l-3.433,0l0,-6.034l3.433,0l0,1.328Z" style="fill:#eeeeee;fill-rule:nonzero;"/>
    <path d="M113.5,114.741c-5.705,0 -11.412,1.934 -16.027,5.805c-9.229,7.746 -11.587,21.128 -5.564,31.564c0.105,0.193 0.308,0.314 0.527,0.314c0.33,0 0.6,-0.271 0.6,-0.6c0,-0.11 -0.03,-0.219 -0.088,-0.313c-5.733,-9.934 -3.488,-22.672 5.297,-30.045c8.786,-7.369 21.725,-7.369 30.51,0c8.786,7.372 11.03,20.111 5.297,30.045c-0.058,0.094 -0.089,0.203 -0.089,0.313c0,0.329 0.271,0.6 0.6,0.6c0.22,0 0.423,-0.121 0.528,-0.314c6.023,-10.436 3.666,-23.819 -5.565,-31.564c-4.614,-3.871 -10.32,-5.805 -16.025,-5.805l-0.001,0Zm19.639,41.52c-2.371,0 -4.304,1.934 -4.304,4.305c0,2.371 1.933,4.307 4.304,4.307c2.371,0 4.307,-1.936 4.307,-4.307c0,-2.371 -1.936,-4.305 -4.307,-4.305Zm-37.779,0.512c-2.371,0 -4.306,1.936 -4.306,4.307c0,2.371 1.935,4.305 4.306,4.305c2.371,0 4.307,-1.934 4.307,-4.305c0,-2.371 -1.936,-4.307 -4.307,-4.307Zm0,1.199c1.723,0 3.106,1.385 3.106,3.108c0,1.722 -1.383,3.105 -3.106,3.105c-1.722,0 -3.105,-1.383 -3.105,-3.105c0,-1.723 1.383,-3.108 3.105,-3.108Z" style="fill:#eeeeee;fill-rule:nonzero;"/>
    <path d="M74.963,155.93c-0.332,0.006 -0.596,0.28 -0.59,0.611l0.002,1.409c-2.52,0.129 -5.006,1.042 -7.047,2.755c-4.419,3.708 -5.55,10.112 -2.668,15.105l0.301,0.52l10.035,-5.793l10.035,5.793l0.301,-0.52c2.882,-4.993 1.752,-11.398 -2.668,-15.105c-2.052,-1.722 -4.555,-2.636 -7.09,-2.757l-0.002,-1.411c0.004,-0.338 -0.271,-0.612 -0.609,-0.607l0,0Zm-0.586,3.219l0.02,10.35l-8.903,5.14c-2.209,-4.402 -1.209,-9.813 2.606,-13.014c1.819,-1.527 4.031,-2.348 6.277,-2.476Zm1.199,0c2.26,0.121 4.488,0.94 6.317,2.476l0.002,0c3.815,3.201 4.813,8.612 2.603,13.014l-8.902,-5.14l-0.02,-10.35Zm8.852,16.951c-0.331,0.007 -0.926,0.28 -0.919,0.611l0.01,1.582l-1.606,0.008c-0.831,-0.028 -0.825,1.235 0.006,1.199l1.606,-0.008l0.01,1.629c-0.027,0.831 1.236,0.823 1.199,-0.008l-0.008,-1.625l1.603,-0.008c0.801,-0.004 0.795,-1.205 -0.006,-1.201l-1.605,0.008l-0.008,-1.584c0.002,-0.338 -0.276,-0.611 -0.614,-0.603l0.332,0Zm-16.092,2.056l-4.414,0.02c-0.801,0.004 -0.795,1.205 0.006,1.201l4.414,-0.021c0.831,0.027 0.824,-1.236 -0.006,-1.2Z" style="fill:#eeeeee;fill-rule:nonzero;"/>
    <path d="M128.963,190c-0.332,0.006 -0.596,0.279 -0.59,0.611l0.002,1.409c-2.52,0.129 -5.006,1.042 -7.046,2.755c-4.42,3.708 -5.55,10.112 -2.668,15.105l0.3,0.52l10.035,-5.793l10.035,5.793l0.301,-0.52c2.882,-4.993 1.752,-11.398 -2.668,-15.105c-2.051,-1.722 -4.555,-2.636 -7.09,-2.757l-0.002,-1.41c0.004,-0.338 -0.271,-0.613 -0.609,-0.608l0,0Zm-0.586,3.219l0.02,10.35l-8.902,5.14c-2.21,-4.402 -1.21,-9.813 2.605,-13.014c1.819,-1.527 4.031,-2.348 6.277,-2.476Zm1.2,0c2.259,0.121 4.487,0.94 6.316,2.476l0.002,0c3.816,3.201 4.813,8.612 2.603,13.014l-8.902,-5.14l-0.019,-10.35Zm8.851,16.951c-0.331,0.007 -0.925,0.28 -0.919,0.611l0.01,1.582l-1.606,0.008c-0.831,-0.028 -0.824,1.235 0.006,1.199l1.606,-0.008l0.01,1.629c-0.026,0.831 1.236,0.823 1.199,-0.008l-0.008,-1.625l1.604,-0.008c0.8,-0.004 0.794,-1.205 -0.006,-1.201l-1.606,0.008l-0.008,-1.584c0.002,-0.338 -0.275,-0.611 -0.613,-0.603l0.331,0Zm-16.092,2.056l-4.414,0.02c-0.801,0.004 -0.795,1.205 0.006,1.201l4.414,-0.021c0.831,0.027 0.825,-1.236 -0.006,-1.2Z" style="fill:#eeeeee;fill-rule:nonzero;"/>
    <path d="M20.963,190c-0.332,0.006 -0.596,0.279 -0.59,0.611l0.002,1.409c-2.52,0.129 -5.006,1.042 -7.046,2.755c-4.42,3.708 -5.55,10.112 -2.668,15.105l0.3,0.52l10.035,-5.793l10.035,5.793l0.301,-0.52c2.882,-4.993 1.752,-11.398 -2.668,-15.105c-2.051,-1.722 -4.555,-2.636 -7.09,-2.757l-0.002,-1.41c0.004,-0.338 -0.271,-0.613 -0.609,-0.608l0,0Zm-0.586,3.219l0.02,10.35l-8.902,5.14c-2.21,-4.402 -1.21,-9.813 2.605,-13.014c1.819,-1.527 4.031,-2.348 6.277,-2.476Zm1.2,0c2.259,0.121 4.487,0.94 6.316,2.476l0.002,0c3.816,3.201 4.813,8.612 2.603,13.014l-8.902,-5.14l-0.019,-10.35Zm8.851,16.951c-0.331,0.007 -0.925,0.28 -0.919,0.611l0.01,1.582l-1.606,0.008c-0.831,-0.028 -0.824,1.235 0.006,1.199l1.606,-0.008l0.01,1.629c-0.026,0.831 1.236,0.823 1.199,-0.008l-0.008,-1.625l1.604,-0.008c0.8,-0.004 0.794,-1.205 -0.006,-1.201l-1.606,0.008l-0.008,-1.584c0.002,-0.338 -0.275,-0.611 -0.613,-0.603l0.331,0Zm-16.092,2.056l-4.414,0.02c-0.801,0.004 -0.795,1.205 0.006,1.201l4.414,-0.021c0.831,0.027 0.825,-1.236 -0.006,-1.2Z" style="fill:#eeeeee;fill-rule:nonzero;"/>
    <path d="M75,182.91l0,4.418" style="fill:none;stroke:rgb(80,80,80);stroke-width:1.2px;"/>
    <path d="M75,125.23l0,27.061" style="fill:none;stroke:rgb(80,80,80);stroke-width:1.2px;"/>
    <g>
      <path d="M113.83,176.955c0,3.592 2.03,8.533 4.747,10.707" style="fill:none;stroke:rgb(80,80,80);stroke-width:1.2px;"/>
      <path d="M36.324,176.955c0,3.592 -2.03,8.533 -4.747,10.707" style="fill:none;stroke:rgb(80,80,80);stroke-width:1.2px;"/>
    </g>
    <path d="M28.001,283.04l0,6.033l2.52,0c0.32,0 0.608,-0.035 0.865,-0.111c0.256,-0.076 0.472,-0.188 0.652,-0.336c0.18,-0.148 0.316,-0.333 0.416,-0.553c0.1,-0.22 0.149,-0.468 0.149,-0.752c0,-0.18 -0.021,-0.351 -0.065,-0.511c-0.044,-0.16 -0.111,-0.304 -0.211,-0.432c-0.1,-0.128 -0.229,-0.236 -0.385,-0.324c-0.156,-0.088 -0.348,-0.154 -0.572,-0.198c0.224,-0.14 0.392,-0.307 0.5,-0.507c0.108,-0.2 0.164,-0.452 0.164,-0.756c0,-0.5 -0.143,-0.886 -0.431,-1.155c-0.288,-0.268 -0.71,-0.398 -1.266,-0.398l-2.336,0Zm5.537,0l0,6.033l1.569,0l-0.001,-6.033l-1.568,0Zm2.266,0l0,1.328l1.289,0l0,4.705l1.568,0l0,-4.705l1.287,0l0,-1.328l-4.144,0Zm4.841,0l0,6.033l3.434,0l0,-1.328l-1.865,0l0,-1.041l1.762,0l0,-1.328l-1.762,0l0,-1.008l1.865,0l0,-1.328l-3.434,0Zm-11.076,1.199l0.288,0c0.492,0 0.736,0.196 0.736,0.584c0,0.388 -0.244,0.584 -0.736,0.584l-0.288,0l0,-1.168Zm0,2.338l0.344,0c0.396,0 0.676,0.052 0.848,0.152c0.172,0.1 0.256,0.265 0.256,0.489c0,0.224 -0.084,0.386 -0.256,0.486c-0.172,0.1 -0.452,0.152 -0.848,0.152l-0.344,0l0,-1.279Z" style="fill:#eeeeee;fill-rule:nonzero;"/>
    <path d="M36.5,229.997c-5.705,0 -11.412,1.934 -16.027,5.805c-9.229,7.745 -11.587,21.128 -5.564,31.564c0.392,0.722 1.469,0.101 1.039,-0.6c-5.733,-9.934 -3.488,-22.672 5.297,-30.045c8.786,-7.368 21.725,-7.368 30.51,0c8.786,7.373 11.03,20.111 5.297,30.045c-0.43,0.701 0.647,1.323 1.039,0.6c6.023,-10.436 3.666,-23.819 -5.565,-31.564c-4.614,-3.871 -10.32,-5.805 -16.025,-5.805l-0.001,0Zm-18.883,41.52c-2.371,0 -4.306,1.936 -4.306,4.307c0,2.371 1.935,4.305 4.306,4.305c2.371,0 4.307,-1.934 4.307,-4.305c0,-2.371 -1.936,-4.307 -4.307,-4.307Zm37.766,0c-2.371,0 -4.304,1.934 -4.304,4.305c0,2.371 1.933,4.307 4.304,4.307c2.371,0 4.307,-1.936 4.307,-4.307c0,-2.371 -1.936,-4.305 -4.307,-4.305Zm-37.766,1.2c1.723,0 3.106,1.384 3.106,3.107c0,1.722 -1.383,3.105 -3.106,3.105c-1.722,0 -3.105,-1.383 -3.105,-3.105c0,-1.723 1.383,-3.107 3.105,-3.107Z" style="fill:#eeeeee;fill-rule:nonzero;"/>
    <path d="M20.963,290.19c-0.332,0.006 -0.596,0.279 -0.59,0.611l0.002,1.408c-2.52,0.13 -5.006,1.043 -7.046,2.756c-4.42,3.708 -5.55,10.112 -2.668,15.105l0.3,0.52l10.035,-5.793l10.035,5.793l0.301,-0.52c2.882,-4.993 1.752,-11.398 -2.668,-15.105c-2.051,-1.722 -4.555,-2.636 -7.09,-2.758l-0.002,-1.41c0.004,-0.338 -0.271,-0.612 -0.609,-0.607l0,0Zm-0.586,3.219l0.02,10.35l-8.902,5.14c-2.21,-4.402 -1.21,-9.813 2.605,-13.014c1.819,-1.527 4.031,-2.348 6.277,-2.476Zm1.2,0c2.259,0.121 4.487,0.94 6.316,2.476l0.002,0c3.816,3.201 4.813,8.612 2.603,13.014l-8.902,-5.14l-0.019,-10.35Zm8.851,16.951c-0.331,0.007 -0.925,0.28 -0.919,0.611l0.01,1.582l-1.606,0.008c-0.831,-0.028 -0.824,1.235 0.006,1.199l1.606,-0.008l0.01,1.629c-0.026,0.831 1.236,0.822 1.199,-0.008l-0.008,-1.625l1.604,-0.008c0.8,-0.004 0.794,-1.205 -0.006,-1.201l-1.606,0.008l-0.008,-1.584c0.002,-0.338 -0.275,-0.611 -0.613,-0.604l0.331,0.001Zm-16.092,2.056l-4.414,0.02c-0.801,0.004 -0.795,1.205 0.006,1.201l4.414,-0.022c0.831,0.028 0.825,-1.235 -0.006,-1.199Z" style="fill:#eeeeee;fill-rule:nonzero;"/>
    <path d="M83.988,234.83c-5.359,0 -9.723,4.362 -9.723,9.721l0,58.002c0,5.36 4.364,9.722 9.723,9.722l47.78,0c5.36,0 9.723,-4.363 9.723,-9.722l0,-58.002c0,-5.359 -4.363,-9.721 -9.723,-9.721l-47.78,0Z" style="fill:none;stroke:#eeeeee;stroke-width:1.2px;stroke-miterlimit:4;"/>
    <path d="M87.574,264.983l0,6.034l3.449,0l0,-1.329l-1.88,0l0,-4.705l-1.569,0Zm4.258,0l0,6.034l1.568,0l0,-2l0.93,0c0.676,0 1.197,-0.176 1.557,-0.528c0.36,-0.352 0.539,-0.85 0.539,-1.49c0,-0.64 -0.179,-1.136 -0.539,-1.488c-0.36,-0.353 -0.881,-0.528 -1.557,-0.528l-2.498,0Zm1.568,1.264l0.52,0c0.577,0 0.865,0.252 0.865,0.752c0,0.5 -0.288,0.752 -0.865,0.752l-0.52,0l0,-1.504Z" style="fill:#eeeeee;fill-rule:nonzero;"/>
    <path d="M86.37,299.308l0,6.035l1.569,0l0,-2.49l2.265,0l0,2.49l1.569,0l0,-6.035l-1.569,0l0,2.328l-2.265,0l0,-2.328l-1.569,0Zm6.666,0l0,6.035l1.569,0l0,-2.002l0.929,0c0.676,0 1.197,-0.175 1.557,-0.527c0.36,-0.352 0.539,-0.85 0.539,-1.49c0,-0.64 -0.179,-1.135 -0.539,-1.487c-0.36,-0.353 -0.881,-0.529 -1.557,-0.529l-2.498,0Zm1.569,1.264l0.521,0c0.576,0 0.863,0.252 0.863,0.752c0,0.5 -0.287,0.752 -0.863,0.752l-0.521,0l0,-1.504Z" style="fill:#eeeeee;fill-rule:nonzero;"/>
    <path d="M116.934,264.983l0,6.034l2.521,0c0.32,0 0.609,-0.036 0.865,-0.112c0.256,-0.076 0.471,-0.188 0.651,-0.336c0.18,-0.148 0.316,-0.332 0.416,-0.552c0.1,-0.22 0.148,-0.468 0.148,-0.752c0,-0.18 -0.02,-0.352 -0.064,-0.512c-0.044,-0.16 -0.111,-0.304 -0.211,-0.432c-0.1,-0.128 -0.229,-0.236 -0.385,-0.324c-0.156,-0.088 -0.348,-0.153 -0.572,-0.197c0.224,-0.14 0.392,-0.308 0.5,-0.508c0.108,-0.2 0.164,-0.452 0.164,-0.756c0,-0.5 -0.144,-0.885 -0.432,-1.154c-0.288,-0.268 -0.707,-0.399 -1.264,-0.399l-2.337,0Zm5.539,0l0,6.034l1.568,0l0,-2l0.928,0c0.676,0 1.196,-0.176 1.556,-0.528c0.36,-0.352 0.541,-0.85 0.541,-1.49c0,-0.64 -0.181,-1.136 -0.541,-1.488c-0.36,-0.353 -0.88,-0.528 -1.556,-0.528l-2.496,0Zm-3.971,1.2l0.289,0c0.492,0 0.736,0.196 0.736,0.584c0,0.388 -0.244,0.584 -0.736,0.584l-0.289,0l0,-1.168Zm5.539,0.064l0.52,0c0.577,0 0.865,0.252 0.865,0.752c0,0.5 -0.288,0.752 -0.865,0.752l-0.52,0l0,-1.504Zm-5.539,2.273l0.344,0c0.396,0 0.677,0.053 0.849,0.153c0.173,0.1 0.256,0.264 0.256,0.488c0,0.224 -0.083,0.388 -0.256,0.488c-0.172,0.1 -0.453,0.151 -0.849,0.151l-0.344,0l0,-1.28Z" style="fill:#eeeeee;fill-rule:nonzero;"/>
    <path d="M117.47,299.14c-0.492,0 -0.939,0.08 -1.348,0.244c-0.408,0.164 -0.761,0.387 -1.053,0.676c-0.292,0.288 -0.523,0.624 -0.687,1.012c-0.164,0.388 -0.248,0.805 -0.248,1.254c0,0.448 0.084,0.863 0.248,1.252c0.164,0.388 0.395,0.723 0.687,1.011c0.292,0.289 0.645,0.514 1.053,0.678c0.409,0.164 0.856,0.244 1.348,0.244c0.484,0 0.933,-0.08 1.346,-0.244c0.412,-0.164 0.764,-0.389 1.06,-0.678c0.296,-0.288 0.528,-0.624 0.692,-1.011c0.164,-0.388 0.248,-0.804 0.248,-1.252c0,-0.449 -0.085,-0.866 -0.248,-1.254c-0.164,-0.388 -0.396,-0.724 -0.692,-1.012c-0.296,-0.289 -0.648,-0.512 -1.061,-0.676c-0.412,-0.164 -0.861,-0.244 -1.345,-0.244Zm11.398,0c-0.42,0 -0.825,0.078 -1.209,0.234c-0.384,0.156 -0.722,0.378 -1.014,0.659c-0.292,0.28 -0.523,0.612 -0.695,1c-0.173,0.388 -0.262,0.812 -0.262,1.277c0,0.464 0.089,0.891 0.266,1.283c0.176,0.392 0.409,0.732 0.701,1.016c0.292,0.285 0.628,0.51 1.008,0.666c0.38,0.156 0.781,0.236 1.197,0.236c0.204,0 0.407,-0.02 0.615,-0.06c0.208,-0.04 0.432,-0.104 0.672,-0.188l0.16,-0.056l0,-1.858c-0.4,0.428 -0.851,0.641 -1.351,0.641c-0.228,0 -0.446,-0.045 -0.643,-0.129c-0.196,-0.084 -0.368,-0.204 -0.516,-0.352c-0.148,-0.148 -0.259,-0.323 -0.343,-0.527c-0.084,-0.204 -0.123,-0.424 -0.123,-0.664c0,-0.237 0.039,-0.454 0.123,-0.658c0.084,-0.204 0.196,-0.376 0.34,-0.524c0.144,-0.148 0.315,-0.263 0.515,-0.347c0.201,-0.084 0.418,-0.129 0.654,-0.129c0.532,0 0.98,0.22 1.344,0.664l0,-1.873c-0.256,-0.108 -0.5,-0.183 -0.732,-0.235c-0.232,-0.052 -0.467,-0.076 -0.707,-0.076l0,0Zm-21.826,0.168l0,6.035l1.568,0l0,-3.691l2.899,3.691l1.56,0l0,-6.035l-1.56,0l0,3.689l-2.899,-3.689l-1.568,0Zm14.135,0l0,1.328l1.287,0l0,4.707l1.57,0l0,-4.707l1.287,0l0,-1.328l-4.144,0Zm10.379,0l0,6.035l1.568,0l0,-2.49l2.266,0l0,2.49l1.568,0l0,-6.035l-1.568,0l0,2.328l-2.266,0l0,-2.328l-1.568,0Zm-14.086,1.352c0.228,0 0.448,0.041 0.652,0.125c0.204,0.084 0.389,0.199 0.545,0.347c0.157,0.148 0.281,0.324 0.373,0.528c0.092,0.204 0.135,0.425 0.135,0.666c0,0.24 -0.043,0.46 -0.135,0.664c-0.092,0.204 -0.216,0.379 -0.373,0.527c-0.156,0.148 -0.341,0.264 -0.545,0.348c-0.204,0.084 -0.424,0.125 -0.652,0.125c-0.228,0 -0.447,-0.041 -0.651,-0.125c-0.204,-0.084 -0.384,-0.2 -0.541,-0.348c-0.156,-0.148 -0.277,-0.323 -0.369,-0.527c-0.092,-0.204 -0.136,-0.424 -0.136,-0.664c0,-0.241 0.044,-0.462 0.136,-0.666c0.092,-0.204 0.213,-0.38 0.369,-0.528c0.157,-0.148 0.337,-0.263 0.541,-0.347c0.204,-0.084 0.423,-0.125 0.651,-0.125Z" style="fill:#eeeeee;fill-rule:nonzero;"/>
    <path d="M7.802,224.22l134.4,0" style="fill:none;stroke:#eeeeee;stroke-width:1.2px;stroke-miterlimit:4;"/>
    <path d="M72.069,189.52c-5.507,0 -9.988,4.482 -9.988,9.988l0,13.145c0,0.801 1.201,0.801 1.201,0l0,-13.145c0,-4.857 3.93,-8.789 8.787,-8.789l5.862,0c4.857,0 8.789,3.932 8.789,8.789l0,13.145c0,0.843 1.231,0.831 1.199,0l0,-13.145c0,-5.506 -4.481,-9.988 -9.988,-9.988l-5.862,0Z" style="fill:#eeeeee;"/>
    <path d="M93.06,216.054l1.746,0c0.472,0 0.879,0.085 1.221,0.255c0.342,0.17 0.604,0.415 0.786,0.735c0.182,0.32 0.273,0.7 0.273,1.14c0,0.444 -0.09,0.827 -0.27,1.149c-0.18,0.322 -0.441,0.568 -0.783,0.738c-0.342,0.17 -0.751,0.255 -1.227,0.255l-1.746,0l0,-4.272Zm1.668,3.372c0.416,0 0.727,-0.103 0.933,-0.309c0.206,-0.206 0.309,-0.517 0.309,-0.933c0,-0.82 -0.414,-1.23 -1.242,-1.23l-0.54,0l0,2.472l0.54,0Z" style="fill:#eeeeee;fill-rule:nonzero;"/>
    <path d="M101.46,220.326l-1.194,0l-0.552,-1.422c-0.064,-0.16 -0.214,-0.24 -0.45,-0.24l-0.408,0l0,1.662l-1.11,0l0,-4.272l1.986,0c0.516,0 0.904,0.111 1.164,0.333c0.26,0.222 0.39,0.539 0.39,0.951c0,0.288 -0.077,0.537 -0.231,0.747c-0.154,0.21 -0.371,0.359 -0.651,0.447c0.12,0.024 0.228,0.08 0.324,0.168c0.096,0.088 0.172,0.206 0.228,0.354l0.504,1.272Zm-1.908,-2.502c0.24,0 0.414,-0.037 0.522,-0.111c0.108,-0.074 0.162,-0.189 0.162,-0.345c0,-0.164 -0.053,-0.282 -0.159,-0.354c-0.106,-0.072 -0.281,-0.108 -0.525,-0.108l-0.708,0l0,0.918l0.708,0Z" style="fill:#eeeeee;fill-rule:nonzero;"/>
    <rect x="102.03" y="216.054" width="1.128" height="4.272" style="fill:#eeeeee;fill-rule:nonzero;"/>
    <path d="M107.052,216.054l1.134,0l-1.944,4.272l-0.894,0l-1.944,-4.272l1.17,0l1.23,2.868l1.248,-2.868Z" style="fill:#eeeeee;fill-rule:nonzero;"/>
    <path d="M108.432,220.326l0,-4.272l3.048,0l0,0.864l-1.95,0l0,0.804l1.824,0l0,0.864l-1.824,0l0,0.876l1.95,0l0,0.864l-3.048,0Z" style="fill:#eeeeee;fill-rule:nonzero;"/>
    <path d="M71.136,220.38c-0.444,0 -0.831,-0.091 -1.161,-0.273c-0.33,-0.182 -0.584,-0.439 -0.762,-0.771c-0.178,-0.332 -0.267,-0.716 -0.267,-1.152c0,-0.432 0.089,-0.813 0.267,-1.143c0.178,-0.33 0.432,-0.586 0.762,-0.768c0.33,-0.182 0.717,-0.273 1.161,-0.273c0.28,0 0.551,0.042 0.813,0.126c0.262,0.084 0.473,0.198 0.633,0.342l-0.342,0.798c-0.348,-0.252 -0.708,-0.378 -1.08,-0.378c-0.344,0 -0.608,0.109 -0.792,0.327c-0.184,0.218 -0.276,0.541 -0.276,0.969c0,0.432 0.092,0.758 0.276,0.978c0.184,0.22 0.448,0.33 0.792,0.33c0.372,0 0.732,-0.126 1.08,-0.378l0.342,0.798c-0.16,0.144 -0.371,0.258 -0.633,0.342c-0.262,0.084 -0.533,0.126 -0.813,0.126Z" style="fill:#eeeeee;fill-rule:nonzero;"/>
    <path d="M75.048,220.38c-0.624,0 -1.096,-0.157 -1.416,-0.471c-0.32,-0.314 -0.48,-0.775 -0.48,-1.383l0,-2.472l1.098,0l0,2.514c0,0.308 0.069,0.544 0.207,0.708c0.138,0.164 0.335,0.246 0.591,0.246c0.252,0 0.446,-0.083 0.582,-0.249c0.136,-0.166 0.204,-0.401 0.204,-0.705l0,-2.514l1.11,0l0,2.472c0,0.6 -0.163,1.059 -0.489,1.377c-0.326,0.318 -0.795,0.477 -1.407,0.477Z" style="fill:#eeeeee;fill-rule:nonzero;"/>
    <path d="M78.642,220.326l0,-3.36l-1.272,0l0,-0.912l3.684,0l0,0.912l-1.272,0l0,3.36l-1.14,0Z" style="fill:#eeeeee;fill-rule:nonzero;"/>
    <path d="M45.774,220.326l-1.194,0l-0.552,-1.422c-0.064,-0.16 -0.214,-0.24 -0.45,-0.24l-0.408,0l0,1.662l-1.11,0l0,-4.272l1.986,0c0.516,0 0.904,0.111 1.164,0.333c0.26,0.222 0.39,0.539 0.39,0.951c0,0.288 -0.077,0.537 -0.231,0.747c-0.154,0.21 -0.371,0.359 -0.651,0.447c0.12,0.024 0.228,0.08 0.324,0.168c0.096,0.088 0.172,0.206 0.228,0.354l0.504,1.272Zm-1.908,-2.502c0.24,0 0.414,-0.037 0.522,-0.111c0.108,-0.074 0.162,-0.189 0.162,-0.345c0,-0.164 -0.053,-0.282 -0.159,-0.354c-0.106,-0.072 -0.281,-0.108 -0.525,-0.108l-0.708,0l0,0.918l0.708,0Z" style="fill:#eeeeee;fill-rule:nonzero;"/>
    <path d="M46.344,220.326l0,-4.272l3.048,0l0,0.864l-1.95,0l0,0.804l1.824,0l0,0.864l-1.824,0l0,0.876l1.95,0l0,0.864l-3.048,0Z" style="fill:#eeeeee;fill-rule:nonzero;"/>
    <path d="M51.456,220.38c-0.32,0 -0.636,-0.042 -0.948,-0.126c-0.312,-0.084 -0.566,-0.198 -0.762,-0.342l0.354,-0.798c0.208,0.132 0.429,0.233 0.663,0.303c0.234,0.07 0.469,0.105 0.705,0.105c0.24,0 0.424,-0.033 0.552,-0.099c0.128,-0.066 0.192,-0.159 0.192,-0.279c0,-0.108 -0.058,-0.197 -0.174,-0.267c-0.116,-0.07 -0.334,-0.139 -0.654,-0.207c-0.404,-0.08 -0.718,-0.179 -0.942,-0.297c-0.224,-0.118 -0.381,-0.257 -0.471,-0.417c-0.09,-0.16 -0.135,-0.354 -0.135,-0.582c0,-0.26 0.074,-0.495 0.222,-0.705c0.148,-0.21 0.356,-0.374 0.624,-0.492c0.268,-0.118 0.574,-0.177 0.918,-0.177c0.308,0 0.607,0.043 0.897,0.129c0.29,0.086 0.517,0.199 0.681,0.339l-0.348,0.798c-0.188,-0.132 -0.386,-0.233 -0.594,-0.303c-0.208,-0.07 -0.416,-0.105 -0.624,-0.105c-0.204,0 -0.368,0.039 -0.492,0.117c-0.124,0.078 -0.186,0.183 -0.186,0.315c0,0.072 0.022,0.132 0.066,0.18c0.044,0.048 0.126,0.095 0.246,0.141c0.12,0.046 0.3,0.095 0.54,0.147c0.388,0.084 0.693,0.185 0.915,0.303c0.222,0.118 0.379,0.256 0.471,0.414c0.092,0.158 0.138,0.347 0.138,0.567c0,0.416 -0.162,0.743 -0.486,0.981c-0.324,0.238 -0.78,0.357 -1.368,0.357Z" style="fill:#eeeeee;fill-rule:nonzero;"/>
  </g>
</svg>