<svg width="150px" height="380px" version="1.1" xmlns="http://www.w3.org/2000/svg" xmlns:xlink="http://www.w3.org/1999/xlink" xml:space="preserve" xmlns:serif="http://www.serif.com/" style="fill-rule:evenodd;clip-rule:evenodd;stroke-linecap:round;stroke-miterlimit:10;">
  <defs>
    <linearGradient id="_Linear1" x1="0" y1="0" x2="1" y2="0" gradientUnits="userSpaceOnUse" gradientTransform="matrix(0.007008,-37.8989,37.8989,0.007008,75.2834,112.195)">
      <stop offset="0" style="stop-color:#202020;stop-opacity:1"/>
      <stop offset="1" style="stop-color:#202020;stop-opacity:1"/>
    </linearGradient>
    <linearGradient id="_Linear2" x1="0" y1="0" x2="1" y2="0" gradientUnits="userSpaceOnUse" gradientTransform="matrix(-4.88,-92.58,92.58,-4.88,277.54,345.91)">
      <stop offset="0" style="stop-color:#202020;stop-opacity:1"/>
      <stop offset="1" style="stop-color:#202020;stop-opacity:1"/>
    </linearGradient>
    <linearGradient id="_Linear3" x1="0" y1="0" x2="1" y2="0" gradientUnits="userSpaceOnUse" gradientTransform="matrix(-4.75,94.86,-94.86,-4.75,277.54,158.47)">
      <stop offset="0" style="stop-color:#202020;stop-opacity:1"/>
      <stop offset="1" style="stop-color:#202020;stop-opacity:1"/>
    </linearGradient>
    <linearGradient id="_Linear4" x1="0" y1="0" x2="1" y2="0" gradientUnits="userSpaceOnUse" gradientTransform="matrix(1.15392e-16,-1.8845,1.8845,1.15392e-16,56.519,1.9362)">
      <stop offset="0" style="stop-color:#202020;stop-opacity:1"/>
      <stop offset="1" style="stop-color:#202020;stop-opacity:1"/>
    </linearGradient>
  </defs>
  <g id="Panel">
    <g>
      <rect x="0" y="0" width="150" height="380" style="fill:url(#_Linear1);"/>
      <rect x="0" y="253.33" width="150" height="126.67" style="fill:url(#_Linear2);"/>
      <rect x="0" y="126.67" width="150" height="126.67" style="fill:url(#_Linear3);"/>
      <rect x="0" y="0" width="150" height="380" style="fill:rgb(16,53,80);fill-opacity:0.1;"/>
      <rect x="0" y="0" width="150" height="2" style="fill:url(#_Linear4);"/>
    </g>
    <g>
      <path d="M62.9,363.5l3.443,10.383c0.322,0.968 0.909,1.451 1.756,1.451c0.835,0 1.413,-0.476 1.736,-1.435l3.461,-10.398l-2.66,0l-2.574,8.318l-2.49,-8.318l-2.672,-0.001Zm10.598,0l0,8.793c0,0.736 0.078,1.265 0.234,1.588c0.423,0.881 1.214,1.32 2.373,1.32l3.243,0c1.126,0 1.912,-0.429 2.357,-1.287c0.168,-0.324 0.25,-0.87 0.25,-1.639l0,-8.775l-2.506,0l0,8.658l-0.018,0.084c-0.056,0.29 -0.34,0.436 -0.853,0.436l-1.705,0c-0.535,0 -0.826,-0.157 -0.87,-0.469l0,-8.709l-2.505,0Zm9.611,0l0,8.842c0,0.914 0.19,1.598 0.569,2.049c0.378,0.452 1.019,0.717 1.922,0.795c0.123,0.011 0.268,0.015 0.435,0.015l4.664,0l0.016,-2.523l-4.463,0c-0.424,0 -0.634,-0.178 -0.634,-0.535l0,-8.643l-2.509,0Zm7.69,0l0,2.525l2.49,0l0,9.176l2.508,0l0,-9.176l2.523,0l0,-2.525l-7.521,0Z" style="fill:rgb(102,102,102);fill-rule:nonzero;"/>
      <path d="M59.3,369.42c0,-4.509 -3.655,-8.165 -8.164,-8.165c-4.509,0 -8.165,3.656 -8.165,8.165c0,4.509 3.656,8.165 8.165,8.165c4.509,0 8.164,-3.656 8.164,-8.165Z" style="fill:rgb(117,117,117);fill-rule:nonzero;stroke:rgb(53,53,53);stroke-width:0.61px;"/>
      <g>
        <path d="M49.32,374.389l0.553,-0.89l-1.064,-2.393l-2.216,-2.284l0.46,3.101l0.597,1.28l0.833,1.263l0.837,-0.077Z" style="fill:rgb(43,43,43);fill-rule:nonzero;"/>
        <path d="M53.05,374.399l-0.553,-0.891l1.064,-2.393l2.216,-2.284l-0.46,3.101l-0.597,1.28l-0.833,1.264l-0.837,-0.077Z" style="fill:#202020;fill-rule:nonzero;"/>
        <path d="M48.64,363.359l2.584,-0.661l0,13.448l-1.349,-2.651l-1.061,-2.385l-1.022,-0.581l-2.052,-2.921l-0.057,-0.775l1.148,-2.067l1.809,-1.407Z" style="fill:rgb(66,66,66);fill-rule:nonzero;"/>
        <path d="M53.8,363.359l-2.584,-0.66l0,13.448l1.35,-2.651l1.06,-2.385l1.023,-0.581l2.051,-2.921l0.058,-0.775l-1.149,-2.068l-1.809,-1.407Z" style="fill:rgb(51,51,51);fill-rule:nonzero;"/>
        <path d="M49.5,369.239l1.723,-1.685l0,1.23l-1.723,1.718l0,-1.263" style="fill:rgb(76,76,76);fill-rule:nonzero;"/>
        <path d="M51.22,368.779l-1.723,1.718l0.377,3.004l1.346,2.643l0,-7.365Z" style="fill:rgb(91,91,91);fill-rule:nonzero;"/>
        <path d="M51.22,376.149l-1.346,-2.643l1.346,-0.635l0,3.278Z" style="fill:rgb(51,51,51);fill-rule:nonzero;"/>
        <path d="M49.5,370.499l0,-1.264l-1.249,-1.579l-1.477,-1.19l-0.001,0.932l0.775,1.823l1.952,1.278Z" style="fill:#eeeeee;fill-rule:nonzero;"/>
        <path d="M52.94,369.239l-1.722,-1.684l0,1.23l1.722,1.718l0,-1.264" style="fill:rgb(45,45,45);fill-rule:nonzero;"/>
        <path d="M51.22,368.779l1.722,1.718l-0.376,3.004l-1.347,2.643l0.001,-7.365Z" style="fill:rgb(53,53,53);fill-rule:nonzero;"/>
        <path d="M51.22,376.149l1.347,-2.643l-1.346,-0.635l-0.001,3.278Z" style="fill:#202020;fill-rule:nonzero;"/>
        <path d="M52.94,370.499l0,-1.264l1.249,-1.579l1.478,-1.19l0.001,0.932l-0.775,1.823l-1.953,1.278Z" style="fill:#eeeeee;fill-rule:nonzero;"/>
        <path d="M48.65,363.339l2.566,4.216l-0.005,-4.87" style="fill:rgb(56,56,56);fill-rule:nonzero;"/>
        <path d="M53.78,363.339l-2.566,4.215l0.006,-4.87" style="fill:rgb(45,45,45);fill-rule:nonzero;"/>
        <path d="M48.81,371.109l0.688,-0.61l0.375,3.006l-1.063,-2.396Z" style="fill:rgb(51,51,51);fill-rule:nonzero;"/>
        <path d="M53.63,371.129l-0.688,-0.61l-0.375,3.006l1.063,-2.396Z" style="fill:rgb(28,28,28);fill-rule:nonzero;"/>
      </g>
    </g>
    <g>
      <path d="M25.095,350.84l0,6.035l1.57,0l0,-6.035l-1.57,0Zm2.834,0l0,6.035l1.568,0l0,-3.689l2.897,3.689l1.56,0l0,-6.035l-1.56,0l0,3.691l-2.897,-3.691l-1.568,0Zm7.291,0l0,6.035l1.569,0l-0.001,-2l0.928,0c0.676,0 1.197,-0.177 1.557,-0.529c0.361,-0.352 0.541,-0.848 0.541,-1.488c0,-0.64 -0.18,-1.137 -0.541,-1.489c-0.36,-0.353 -0.881,-0.529 -1.557,-0.529l-2.496,0Zm5.426,0l0,3.498c0,0.94 0.216,1.626 0.648,2.059c0.432,0.432 1.093,0.646 1.985,0.646c0.892,0 1.552,-0.214 1.98,-0.646c0.428,-0.433 0.645,-1.119 0.645,-2.059l0,-3.498l-1.561,0l0,3.283c0,0.176 -0.01,0.355 -0.019,0.539c-0.012,0.184 -0.056,0.352 -0.125,0.5c-0.068,0.148 -0.176,0.273 -0.316,0.365c-0.14,0.092 -0.344,0.139 -0.604,0.139c-0.26,0 -0.463,-0.047 -0.607,-0.139c-0.144,-0.092 -0.249,-0.217 -0.317,-0.365c-0.068,-0.148 -0.109,-0.316 -0.121,-0.5c-0.012,-0.184 -0.02,-0.363 -0.02,-0.539l0,-3.283l-1.568,0Zm5.953,0l0,1.33l1.289,0l0,4.705l1.57,0l0,-4.705l1.287,0l0,-1.33l-4.146,0Zm-9.81,1.266l0.519,0c0.576,0 0.865,0.252 0.865,0.752c0,0.5 -0.289,0.752 -0.865,0.752l-0.519,0l0,-1.504Z" style="fill:#eeeeee;"/>
      <path d="M25.19,321.32l0,3.529l1.412,0l0,0.997l-2.589,0l0,-4.526l1.177,0Z" style="fill:rgb(140,140,140);fill-rule:nonzero;"/>
      <path d="M49.827,323.35l0.224,0c0.232,0 0.408,-0.048 0.532,-0.144c0.124,-0.096 0.188,-0.236 0.188,-0.416c0,-0.181 -0.064,-0.317 -0.188,-0.413c-0.124,-0.096 -0.3,-0.144 -0.532,-0.144l-0.224,0l0,1.117Zm2.589,2.501l-1.465,0l-1.124,-1.741l0,1.741l-1.177,0l0,-4.526l1.833,0c0.252,0 0.472,0.04 0.66,0.112c0.188,0.076 0.34,0.176 0.464,0.304c0.12,0.128 0.213,0.276 0.277,0.444c0.06,0.168 0.092,0.348 0.092,0.541c0,0.344 -0.084,0.624 -0.249,0.836c-0.168,0.212 -0.412,0.36 -0.736,0.436l1.425,1.853Z" style="fill:rgb(140,140,140);fill-rule:nonzero;"/>
    </g>
    <path d="M22.688,317.99c-5.507,0 -9.988,4.481 -9.988,9.988l0,13.145c0,0.801 1.201,0.801 1.201,0l0,-13.145c0,-4.857 3.93,-8.789 8.787,-8.789l30.464,0c4.857,0 8.789,3.932 8.789,8.789l0,13.145c0,0.843 1.231,0.831 1.199,0l0,-13.145c0,-5.506 -4.481,-9.988 -9.988,-9.988l-30.464,0Z" style="fill:#eeeeee;"/>
    <path d="M96.599,317.99c-5.359,0 -9.723,4.362 -9.723,9.721l0,23.115c0,5.36 4.364,9.722 9.723,9.722l30.994,0c5.36,0 9.723,-4.363 9.723,-9.722l0,-23.115c0,-5.359 -4.363,-9.721 -9.723,-9.721l-30.994,0Z" style="fill:none;stroke:#eeeeee;stroke-width:1.2px;stroke-miterlimit:4;"/>
    <g>
      <path d="M97.765,350.76c-0.493,0 -0.942,0.08 -1.35,0.244c-0.408,0.16 -0.758,0.389 -1.05,0.678c-0.293,0.288 -0.526,0.624 -0.69,1.008c-0.164,0.388 -0.248,0.805 -0.248,1.254c0,0.448 0.084,0.868 0.248,1.252c0.164,0.388 0.397,0.723 0.69,1.011c0.292,0.289 0.642,0.512 1.05,0.676c0.408,0.164 0.857,0.244 1.35,0.244c0.484,0 0.932,-0.08 1.34,-0.244c0.412,-0.164 0.763,-0.387 1.06,-0.676c0.296,-0.288 0.53,-0.623 0.694,-1.011c0.168,-0.384 0.248,-0.804 0.248,-1.252c0,-0.449 -0.08,-0.866 -0.248,-1.254c-0.164,-0.384 -0.398,-0.72 -0.694,-1.008c-0.297,-0.289 -0.648,-0.518 -1.06,-0.678c-0.408,-0.164 -0.856,-0.244 -1.34,-0.244Zm4.334,0.168l0,3.494c0,0.94 0.216,1.626 0.648,2.059c0.433,0.432 1.093,0.646 1.985,0.646c0.889,0 1.548,-0.214 1.98,-0.646c0.428,-0.433 0.645,-1.119 0.645,-2.059l0,-3.494l-1.561,0l0,3.279c0,0.176 -0.01,0.355 -0.019,0.539c-0.016,0.184 -0.057,0.352 -0.125,0.5c-0.072,0.148 -0.174,0.274 -0.314,0.366c-0.14,0.092 -0.345,0.138 -0.606,0.138c-0.26,0 -0.465,-0.046 -0.609,-0.138c-0.144,-0.092 -0.247,-0.218 -0.314,-0.366c-0.068,-0.148 -0.109,-0.316 -0.122,-0.5c-0.012,-0.184 -0.019,-0.363 -0.019,-0.539l0,-3.279l-1.569,0Zm5.955,0l0,1.326l1.283,0l0,4.705l1.569,0l0,-4.705l1.289,0l0,-1.326l-4.141,0Zm4.838,0l0,6.031l1.568,0l0,-2l0.928,0c0.676,0 1.197,-0.177 1.557,-0.529c0.361,-0.352 0.541,-0.848 0.541,-1.488c0,-0.64 -0.18,-1.133 -0.541,-1.485c-0.36,-0.353 -0.881,-0.529 -1.557,-0.529l-2.496,0Zm5.422,0l0,3.494c0,0.94 0.216,1.626 0.648,2.059c0.433,0.432 1.097,0.646 1.985,0.646c0.893,0 1.552,-0.214 1.98,-0.646c0.428,-0.433 0.645,-1.119 0.645,-2.059l0,-3.494l-1.561,0l0,3.279c0,0.176 -0.01,0.355 -0.02,0.539c-0.012,0.184 -0.057,0.352 -0.125,0.5c-0.068,0.148 -0.176,0.274 -0.316,0.366c-0.14,0.092 -0.34,0.138 -0.604,0.138c-0.26,0 -0.463,-0.046 -0.607,-0.138c-0.144,-0.092 -0.249,-0.218 -0.317,-0.366c-0.064,-0.148 -0.105,-0.316 -0.121,-0.5c-0.012,-0.184 -0.02,-0.363 -0.02,-0.539l0,-3.279l-1.567,0Zm5.955,0l0,1.326l1.287,0l0,4.705l1.57,0l0,-4.705l1.284,0l0,-1.326l-4.141,0Zm-9.809,1.262l0.52,0c0.576,0 0.865,0.252 0.865,0.752c0,0.504 -0.289,0.752 -0.865,0.752l-0.52,0l0,-1.504Zm-16.695,0.088c0.228,0 0.445,0.045 0.653,0.125c0.204,0.084 0.383,0.199 0.539,0.347c0.16,0.152 0.285,0.328 0.373,0.528c0.092,0.204 0.137,0.425 0.137,0.666c0,0.24 -0.045,0.464 -0.137,0.664c-0.088,0.204 -0.213,0.379 -0.373,0.527c-0.156,0.152 -0.335,0.264 -0.539,0.348c-0.208,0.084 -0.425,0.125 -0.653,0.125c-0.233,0 -0.448,-0.041 -0.652,-0.125c-0.208,-0.084 -0.389,-0.196 -0.541,-0.348c-0.156,-0.148 -0.279,-0.323 -0.367,-0.527c-0.092,-0.2 -0.137,-0.424 -0.137,-0.664c0,-0.241 0.045,-0.462 0.137,-0.666c0.088,-0.2 0.211,-0.376 0.367,-0.528c0.152,-0.148 0.333,-0.263 0.541,-0.347c0.204,-0.08 0.419,-0.125 0.652,-0.125Z" style="fill:#eeeeee;fill-rule:nonzero;"/>
      <path d="M99.377,321.32l0,3.529l1.412,0l0,0.997l-2.589,0l0,-4.526l1.177,0Z" style="fill:rgb(140,140,140);fill-rule:nonzero;"/>
      <path d="M124.01,323.35l0.224,0c0.232,0 0.408,-0.048 0.532,-0.144c0.124,-0.096 0.188,-0.236 0.188,-0.416c0,-0.181 -0.064,-0.317 -0.188,-0.413c-0.124,-0.096 -0.3,-0.144 -0.532,-0.144l-0.224,0l0,1.117Zm2.589,2.501l-1.465,0l-1.124,-1.741l0,1.741l-1.177,0l0,-4.526l1.833,0c0.252,0 0.472,0.04 0.66,0.112c0.188,0.076 0.34,0.176 0.464,0.304c0.12,0.128 0.213,0.276 0.277,0.444c0.06,0.168 0.092,0.348 0.092,0.541c0,0.344 -0.084,0.624 -0.249,0.836c-0.168,0.212 -0.412,0.36 -0.736,0.436l1.425,1.853Z" style="fill:rgb(140,140,140);fill-rule:nonzero;"/>
    </g>
    <path d="M49.5,190c-5.705,0 -11.412,1.934 -16.027,5.805c-9.229,7.745 -11.587,21.128 -5.564,31.564c0.392,0.722 1.469,0.101 1.039,-0.6c-5.733,-9.934 -3.488,-22.672 5.297,-30.045c8.786,-7.369 21.725,-7.369 30.51,0c8.786,7.373 11.03,20.111 5.297,30.045c-0.43,0.701 0.647,1.322 1.039,0.6c6.023,-10.436 3.666,-23.819 -5.565,-31.564c-4.614,-3.871 -10.32,-5.805 -16.025,-5.805l-0.001,0Zm-18.883,41.52c-2.371,0 -4.306,1.936 -4.306,4.307c0,2.371 1.935,4.304 4.306,4.304c2.371,0 4.307,-1.933 4.307,-4.304c0,-2.371 -1.936,-4.307 -4.307,-4.307Zm37.766,0c-2.371,0 -4.304,1.934 -4.304,4.305c0,2.371 1.933,4.306 4.304,4.306c2.371,0 4.307,-1.935 4.307,-4.306c0,-2.371 -1.936,-4.305 -4.307,-4.305Zm-37.766,1.199c1.723,0 3.106,1.385 3.106,3.108c0,1.722 -1.383,3.105 -3.106,3.105c-1.722,0 -3.105,-1.383 -3.105,-3.105c0,-1.723 1.383,-3.108 3.105,-3.108Z" style="fill:#eeeeee;fill-rule:nonzero;"/>
    <path d="M112.964,190.67c-0.332,0.006 -0.597,0.279 -0.59,0.611l0,1.409c-2.521,0.129 -5.007,1.042 -7.047,2.755c-4.419,3.708 -5.55,10.112 -2.668,15.105l0.301,0.52l10.035,-5.793l10.035,5.793l0.3,-0.52c2.882,-4.993 1.753,-11.398 -2.668,-15.105c-2.051,-1.722 -4.554,-2.636 -7.089,-2.757l0,-1.411c0,-0.338 -0.272,-0.612 -0.61,-0.607l0.001,0Zm-0.586,3.219l0.019,10.35l-8.903,5.14c-2.209,-4.402 -1.209,-9.813 2.606,-13.014c1.819,-1.527 4.031,-2.348 6.277,-2.476l0.001,0Zm1.199,0c2.259,0.121 4.487,0.94 6.316,2.476c3.816,3.201 4.813,8.612 2.604,13.014l-8.903,-5.14l-0.017,-10.35Zm7.932,17.562l0.01,1.582l-1.605,0.008c-0.831,-0.028 -0.825,1.235 0.01,1.199l1.605,-0.008l0.01,1.629c-0.026,0.831 1.237,0.822 1.199,-0.008l-0.01,-1.625l1.604,-0.008c0.801,-0.004 0.795,-1.205 -0.01,-1.201l-1.606,0.008l-0.01,-1.584c0,-0.771 -1.197,-0.756 -1.197,0.008l0,0Zm-15.172,1.445l-4.414,0.02c-0.801,0.004 -0.795,1.205 0.01,1.201l4.414,-0.022c0.831,0.028 0.825,-1.235 -0.01,-1.199Z" style="fill:#eeeeee;fill-rule:nonzero;"/>
    <path d="M49.5,126.997c-5.705,0 -11.412,1.934 -16.027,5.805c-9.229,7.745 -11.587,21.128 -5.564,31.564c0.392,0.723 1.469,0.101 1.039,-0.6c-5.733,-9.934 -3.488,-22.672 5.297,-30.045c8.786,-7.368 21.725,-7.368 30.51,0c8.786,7.373 11.03,20.111 5.297,30.045c-0.43,0.701 0.647,1.323 1.039,0.6c6.023,-10.436 3.666,-23.819 -5.565,-31.564c-4.614,-3.871 -10.32,-5.805 -16.025,-5.805l-0.001,0Zm-18.883,41.52c-2.371,0 -4.306,1.936 -4.306,4.307c0,2.371 1.935,4.305 4.306,4.305c2.371,0 4.307,-1.934 4.307,-4.305c0,-2.371 -1.936,-4.307 -4.307,-4.307Zm37.766,0c-2.371,0 -4.304,1.934 -4.304,4.305c0,2.371 1.933,4.307 4.304,4.307c2.371,0 4.307,-1.936 4.307,-4.307c0,-2.371 -1.936,-4.305 -4.307,-4.305Zm-37.766,1.2c1.723,0 3.106,1.384 3.106,3.107c0,1.722 -1.383,3.105 -3.106,3.105c-1.722,0 -3.105,-1.383 -3.105,-3.105c0,-1.723 1.383,-3.107 3.105,-3.107Z" style="fill:#eeeeee;fill-rule:nonzero;"/>
    <path d="M112.964,126.8c-0.332,0.006 -0.597,0.28 -0.59,0.611l0,1.409c-2.521,0.13 -5.007,1.042 -7.047,2.756c-4.419,3.707 -5.55,10.112 -2.668,15.105l0.301,0.519l10.035,-5.793l10.035,5.793l0.3,-0.519c2.882,-4.994 1.753,-11.398 -2.668,-15.105c-2.051,-1.723 -4.554,-2.637 -7.089,-2.758l0,-1.41c0,-0.338 -0.272,-0.613 -0.61,-0.608l0.001,0Zm-0.586,3.219l0.019,10.35l-8.903,5.14c-2.209,-4.402 -1.209,-9.813 2.606,-13.014c1.819,-1.527 4.031,-2.348 6.277,-2.476l0.001,0Zm1.199,0c2.259,0.121 4.487,0.94 6.316,2.476c3.816,3.201 4.813,8.612 2.604,13.014l-8.903,-5.14l-0.017,-10.35Zm7.932,17.562l0.01,1.582l-1.605,0.008c-0.831,-0.028 -0.825,1.235 0.01,1.199l1.605,-0.008l0.01,1.629c-0.026,0.831 1.237,0.822 1.199,-0.008l-0.01,-1.625l1.604,-0.008c0.801,-0.004 0.795,-1.205 -0.01,-1.201l-1.606,0.008l-0.01,-1.584c0,-0.771 -1.197,-0.756 -1.197,0.008l0,0Zm-15.172,1.445l-4.414,0.02c-0.801,0.004 -0.795,1.205 0.01,1.201l4.414,-0.022c0.831,0.028 0.825,-1.235 -0.01,-1.199Z" style="fill:#eeeeee;fill-rule:nonzero;"/>
    <path d="M49.963,45.306c-7.925,0 -15.848,2.689 -22.258,8.065c-12.82,10.758 -16.096,29.349 -7.731,43.842c0.108,0.185 0.306,0.299 0.52,0.299c0.329,0 0.6,-0.271 0.6,-0.6c0,-0.106 -0.028,-0.209 -0.081,-0.301c-8.076,-13.991 -4.913,-31.935 7.463,-42.32c12.375,-10.379 30.599,-10.379 42.975,0c12.375,10.386 15.537,28.329 7.461,42.32c-0.053,0.092 -0.081,0.195 -0.081,0.301c0,0.329 0.271,0.6 0.601,0.6c0.214,0 0.412,-0.114 0.519,-0.299c8.366,-14.493 5.091,-33.083 -7.728,-43.842c-6.41,-5.376 -14.335,-8.065 -22.26,-8.065Zm-29.098,56.055c-2.371,0 -4.307,1.936 -4.307,4.307c0,2.371 1.936,4.305 4.307,4.305c2.371,0 4.307,-1.934 4.307,-4.305c0,-2.371 -1.936,-4.307 -4.307,-4.307Zm58.779,0.1c-2.317,0 -4.207,1.89 -4.207,4.207c0,2.317 1.89,4.205 4.207,4.205c2.317,0 4.205,-1.888 4.205,-4.205c0,-2.317 -1.888,-4.207 -4.205,-4.207Zm-58.779,1.1c1.722,0 3.105,1.384 3.105,3.107c0,1.722 -1.383,3.105 -3.105,3.105c-1.723,0 -3.106,-1.383 -3.106,-3.105c0,-1.723 1.383,-3.107 3.106,-3.107Z" style="fill:#eeeeee;"/>
    <path d="M112.964,54.94c-0.332,0.006 -0.597,0.279 -0.59,0.611l0,1.409c-2.521,0.129 -5.007,1.042 -7.047,2.755c-4.419,3.708 -5.55,10.112 -2.668,15.105l0.301,0.52l10.035,-5.793l10.035,5.793l0.3,-0.52c2.882,-4.993 1.753,-11.398 -2.668,-15.105c-2.051,-1.722 -4.554,-2.636 -7.089,-2.757l0,-1.411c0,-0.338 -0.272,-0.612 -0.61,-0.607l0.001,0Zm-0.586,3.219l0.019,10.35l-8.903,5.14c-2.209,-4.402 -1.209,-9.813 2.606,-13.014c1.819,-1.527 4.031,-2.348 6.277,-2.476l0.001,0Zm1.199,0c2.259,0.121 4.487,0.94 6.316,2.476c3.816,3.201 4.813,8.612 2.604,13.014l-8.903,-5.14l-0.017,-10.35Zm7.932,17.562l0.01,1.582l-1.605,0.008c-0.831,-0.028 -0.825,1.235 0.01,1.199l1.605,-0.008l0.01,1.629c-0.026,0.831 1.237,0.822 1.199,-0.008l-0.01,-1.625l1.604,-0.008c0.801,-0.004 0.795,-1.205 -0.01,-1.201l-1.606,0.008l-0.01,-1.584c0,-0.771 -1.197,-0.756 -1.197,0.008l0,0Zm-15.172,1.445l-4.414,0.02c-0.801,0.004 -0.795,1.205 0.01,1.201l4.414,-0.022c0.831,0.028 0.825,-1.235 -0.01,-1.199Z" style="fill:#eeeeee;fill-rule:nonzero;"/>
    <path d="M54.682,17.711l0,9.484l2.467,0l0,-3.724l2.705,0l0,-2.088l-2.705,0l0,-1.586l2.967,0l0,-2.086l-5.434,0Zm6.906,0l0,9.484l5.422,0l0,-2.089l-2.955,0l0,-7.395l-2.467,0Zm9.789,0l-3.611,9.484l2.629,0l0.566,-1.648l3.522,0l0.566,1.648l2.629,0l-3.609,-9.484l-2.692,0Zm8.567,0l-1.612,9.484l2.453,0l0.819,-5.461l2.125,5.461l0.982,0l2.239,-5.461l0.818,5.461l2.453,0l-1.611,-9.484l-2.44,0l-1.886,5.055l-1.899,-5.055l-2.441,0Zm11.836,0l0,9.484l5.398,0l0,-2.089l-2.932,0l0,-1.635l2.768,0l0,-2.088l-2.768,0l0,-1.586l2.932,0l0,-2.086l-5.398,0Zm-19.057,2.805l1.105,3.156l-2.213,0l1.108,-3.156Zm-21.092,10.691l0,7.351l1.379,0l0,-7.351l-1.379,0Zm21.838,0l0,2.758c-0.437,-0.422 -0.923,-0.635 -1.457,-0.635c-0.667,0 -1.198,0.254 -1.594,0.763c-0.396,0.51 -0.594,1.192 -0.594,2.049c0,0.788 0.175,1.408 0.526,1.858c0.351,0.45 0.834,0.675 1.449,0.675c0.76,0 1.316,-0.36 1.67,-1.08l0,0.963l1.382,0l0,-7.351l-1.382,0Zm3.101,0.228l0,1.153l1.377,0l0,-1.153l-1.377,0Zm26.643,0l0,1.153l1.379,0l0,-1.153l-1.379,0Zm-16.709,0.992l-1.377,0.161l0,0.859l-0.572,0l0,0.861l0.572,0l0,2.692c0,1.117 0.598,1.675 1.793,1.675c0.189,0 0.448,-0.049 0.778,-0.144l0,-0.838c-0.166,0.043 -0.306,0.066 -0.424,0.066c-0.512,0 -0.77,-0.315 -0.77,-0.943l0,-2.508l1.096,0l0,-0.861l-1.096,0l0,-1.02Zm14.289,0l-1.379,0.161l0,0.859l-0.572,0l0,0.861l0.572,0l0,2.692c0,1.117 0.598,1.675 1.793,1.675c0.189,0 0.449,-0.049 0.778,-0.144l0,-0.838c-0.164,0.043 -0.305,0.066 -0.424,0.066c-0.511,0 -0.768,-0.315 -0.768,-0.943l0,-2.508l1.094,0l0,-0.861l-1.094,0l0,-1.02Zm-64.814,0.903c-0.612,0 -1.227,0.118 -1.851,0.355l0,0.949c0.55,-0.304 1.093,-0.457 1.629,-0.457c0.605,0 0.906,0.267 0.906,0.797l0,0.465l-0.367,0c-0.841,0 -1.488,0.153 -1.94,0.459c-0.451,0.306 -0.676,0.741 -0.676,1.305c0,0.435 0.139,0.789 0.418,1.062c0.28,0.273 0.643,0.41 1.09,0.41c0.525,0 1.015,-0.223 1.475,-0.666l0.06,0c0.162,0.443 0.525,0.666 1.09,0.666c0.223,0 0.482,-0.043 0.774,-0.13l-0.034,-0.774c-0.074,0.013 -0.135,0.018 -0.181,0.018c-0.258,0 -0.387,-0.2 -0.387,-0.6l0,-2.262c0,-1.065 -0.669,-1.597 -2.006,-1.597l0,0Zm6.905,0c-0.711,0 -1.293,0.36 -1.743,1.08l0,-0.963l-1.377,0l0,5.111l1.377,0l0,-3.215c0.404,-0.619 0.824,-0.927 1.262,-0.927c0.385,0 0.578,0.289 0.578,0.869l0,3.273l1.377,0l0,-3.611c0,-0.5 -0.13,-0.895 -0.394,-1.184c-0.264,-0.289 -0.625,-0.433 -1.08,-0.433l0,0Zm4.962,0c-0.612,0 -1.23,0.118 -1.853,0.355l0,0.949c0.549,-0.304 1.092,-0.457 1.629,-0.457c0.605,0 0.908,0.267 0.908,0.797l0,0.465l-0.367,0c-0.842,0 -1.487,0.153 -1.94,0.459c-0.451,0.306 -0.675,0.741 -0.675,1.305c0,0.435 0.14,0.789 0.418,1.062c0.28,0.273 0.642,0.41 1.089,0.41c0.525,0 1.015,-0.223 1.475,-0.666l0.061,0c0.162,0.443 0.525,0.666 1.089,0.666c0.224,0 0.481,-0.043 0.772,-0.13l-0.031,-0.774c-0.074,0.013 -0.135,0.018 -0.182,0.018c-0.257,0 -0.387,-0.2 -0.387,-0.6l0,-2.262c0,-1.065 -0.669,-1.597 -2.006,-1.597l0,0Zm9.065,0c-0.813,0 -1.457,0.241 -1.93,0.719c-0.474,0.478 -0.711,1.129 -0.711,1.955c0,0.817 0.235,1.465 0.705,1.947c0.47,0.483 1.106,0.725 1.903,0.725c0.835,0 1.49,-0.238 1.965,-0.713c0.474,-0.474 0.712,-1.131 0.712,-1.969c0,-0.82 -0.238,-1.467 -0.711,-1.945c-0.473,-0.478 -1.117,-0.719 -1.933,-0.719l0,0Zm5.68,0c-0.664,0 -1.197,0.246 -1.598,0.738c-0.4,0.492 -0.6,1.146 -0.6,1.963c0,0.776 0.179,1.391 0.536,1.846c0.357,0.454 0.839,0.681 1.447,0.681c0.773,0 1.327,-0.367 1.662,-1.103l0,0.699c0,0.488 -0.113,0.839 -0.34,1.057c-0.226,0.217 -0.594,0.324 -1.103,0.324c-0.515,0 -1.056,-0.129 -1.625,-0.389l-0.112,1c0.691,0.243 1.335,0.363 1.928,0.363c0.835,0 1.481,-0.198 1.941,-0.595c0.273,-0.242 0.456,-0.536 0.551,-0.881c0.094,-0.345 0.143,-0.905 0.143,-1.684l0,-3.902l-1.239,0l-0.144,0.518c-0.443,-0.422 -0.925,-0.635 -1.447,-0.635l0,0Zm19.072,0c-0.664,0 -1.18,0.134 -1.549,0.402c-0.37,0.269 -0.555,0.646 -0.555,1.131c0,0.347 0.108,0.638 0.326,0.873c0.217,0.237 0.578,0.457 1.084,0.662l0.467,0.188c0.465,0.186 0.697,0.402 0.697,0.65c0,0.385 -0.282,0.578 -0.847,0.578c-0.484,0 -1.067,-0.142 -1.75,-0.428l0,1.01c0.626,0.186 1.248,0.28 1.863,0.28c0.638,0 1.157,-0.152 1.555,-0.45c0.4,-0.3 0.599,-0.69 0.599,-1.17c0,-0.367 -0.116,-0.667 -0.351,-0.9c-0.234,-0.233 -0.651,-0.462 -1.25,-0.689l-0.399,-0.153c-0.423,-0.161 -0.634,-0.359 -0.634,-0.592c0,-0.353 0.285,-0.529 0.857,-0.529c0.363,0 0.82,0.094 1.373,0.287l0,-0.967c-0.574,-0.122 -1.07,-0.183 -1.486,-0.183l0,0Zm9.441,0c-0.813,0 -1.455,0.241 -1.928,0.719c-0.474,0.478 -0.711,1.129 -0.711,1.955c0,0.817 0.235,1.465 0.706,1.947c0.471,0.483 1.104,0.725 1.902,0.725c0.834,0 1.489,-0.238 1.963,-0.713c0.475,-0.474 0.713,-1.131 0.713,-1.969c0,-0.82 -0.237,-1.467 -0.711,-1.945c-0.473,-0.478 -1.118,-0.719 -1.934,-0.719l0,0Zm6.92,0c-0.73,0 -1.274,0.36 -1.631,1.08l0,-0.963l-1.377,0l0,5.111l1.377,0l0,-3.244c0.344,-0.555 0.792,-0.834 1.342,-0.834c0.167,0 0.348,0.037 0.543,0.108l0,-1.231c-0.084,-0.018 -0.167,-0.027 -0.254,-0.027l0,0Zm10.469,0c-0.813,0 -1.457,0.241 -1.93,0.719c-0.473,0.478 -0.711,1.129 -0.711,1.955c0,0.817 0.235,1.465 0.707,1.947c0.47,0.483 1.105,0.725 1.903,0.725c0.834,0 1.489,-0.238 1.963,-0.713c0.476,-0.474 0.713,-1.131 0.713,-1.969c0,-0.82 -0.235,-1.467 -0.709,-1.945c-0.473,-0.478 -1.12,-0.719 -1.936,-0.719l0,0Zm7.029,0c-0.71,0 -1.291,0.36 -1.74,1.08l0,-0.963l-1.379,0l0,5.111l1.379,0l0,-3.215c0.403,-0.619 0.824,-0.927 1.262,-0.927c0.385,0 0.578,0.289 0.578,0.869l0,3.273l1.377,0l0,-3.611c0,-0.5 -0.133,-0.895 -0.397,-1.184c-0.264,-0.289 -0.624,-0.433 -1.08,-0.433l0,0Zm-38.951,0.117l0,5.111l1.377,0l0,-5.111l-1.377,0Zm26.643,0l0,5.111l1.379,0l0,-5.111l-1.379,0Zm-46.303,0.746c0.366,0 0.654,0.161 0.864,0.484c0.208,0.323 0.314,0.761 0.314,1.317c0,1.213 -0.395,1.82 -1.187,1.82c-0.36,0 -0.645,-0.162 -0.852,-0.488c-0.209,-0.326 -0.313,-0.766 -0.313,-1.322c0,-0.562 0.105,-1.004 0.315,-1.327c0.21,-0.323 0.496,-0.484 0.859,-0.484l0,0Zm34.193,0c0.366,0 0.656,0.161 0.866,0.484c0.209,0.323 0.312,0.761 0.312,1.317c0,1.213 -0.395,1.82 -1.185,1.82c-0.36,0 -0.647,-0.162 -0.854,-0.488c-0.208,-0.326 -0.311,-0.766 -0.311,-1.322c0,-0.562 0.103,-1.004 0.313,-1.327c0.21,-0.323 0.497,-0.484 0.859,-0.484l0,0Zm17.389,0c0.365,0 0.654,0.161 0.864,0.484c0.209,0.323 0.314,0.761 0.314,1.317c0,1.213 -0.396,1.82 -1.187,1.82c-0.36,0 -0.643,-0.162 -0.852,-0.488c-0.207,-0.326 -0.311,-0.766 -0.311,-1.322c0,-0.562 0.104,-1.004 0.313,-1.327c0.21,-0.323 0.496,-0.484 0.859,-0.484l0,0Zm-45.498,0.012c0.364,0 0.711,0.188 1.043,0.564l0,1.885c-0.366,0.534 -0.772,0.801 -1.215,0.801c-0.642,0 -0.964,-0.499 -0.964,-1.498c0,-0.534 0.102,-0.96 0.306,-1.276c0.206,-0.317 0.483,-0.476 0.83,-0.476l0,0Zm9.409,0.019c0.379,0 0.734,0.186 1.066,0.559l0,2.025c-0.372,0.524 -0.763,0.787 -1.172,0.787c-0.67,0 -1.006,-0.522 -1.006,-1.568c0,-0.55 0.102,-0.987 0.303,-1.313c0.202,-0.326 0.47,-0.49 0.808,-0.49l0,0Zm-36.064,2.006l0.325,0l0,1.039c-0.338,0.313 -0.669,0.471 -0.991,0.471c-0.19,0 -0.35,-0.065 -0.478,-0.193c-0.129,-0.129 -0.191,-0.289 -0.191,-0.479c0,-0.559 0.444,-0.838 1.335,-0.838l0,0Zm11.865,0l0.327,0l0,1.039c-0.338,0.313 -0.669,0.471 -0.991,0.471c-0.19,0 -0.349,-0.065 -0.478,-0.193c-0.129,-0.129 -0.193,-0.289 -0.193,-0.479c0,-0.559 0.445,-0.838 1.335,-0.838l0,0Z" style="fill:#eeeeee;fill-rule:nonzero;"/>
    <path d="M46.195,179.54c-0.492,0 -0.94,0.08 -1.348,0.244c-0.409,0.164 -0.76,0.389 -1.052,0.678c-0.292,0.288 -0.524,0.624 -0.688,1.012c-0.164,0.388 -0.248,0.803 -0.248,1.252c0,0.448 0.084,0.864 0.248,1.252c0.164,0.388 0.396,0.723 0.688,1.011c0.292,0.289 0.643,0.514 1.052,0.678c0.408,0.164 0.856,0.244 1.348,0.244c0.484,0 0.934,-0.08 1.346,-0.244c0.412,-0.164 0.764,-0.389 1.06,-0.678c0.296,-0.288 0.528,-0.623 0.692,-1.011c0.165,-0.388 0.25,-0.804 0.25,-1.252c0,-0.449 -0.085,-0.864 -0.25,-1.252c-0.164,-0.388 -0.396,-0.724 -0.692,-1.012c-0.296,-0.289 -0.648,-0.514 -1.06,-0.678c-0.412,-0.164 -0.862,-0.244 -1.346,-0.244Zm-7.85,0.168l0,1.328l1.288,0l0,4.707l1.57,0l0,-4.707l1.289,0l0,-1.328l-4.147,0Zm12.189,0l0,6.035l1.569,0l0,-3.689l2.896,3.689l1.561,0l0,-6.035l-1.561,0l0,3.689l-2.896,-3.689l-1.569,0Zm7.291,0l0,6.035l3.432,0l0,-1.33l-1.863,0l0,-1.039l1.76,0l0,-1.328l-1.76,0l0,-1.01l1.863,0l0,-1.328l-3.432,0Zm-11.631,1.353c0.228,0 0.449,0.04 0.653,0.124c0.205,0.084 0.389,0.199 0.545,0.347c0.156,0.148 0.281,0.325 0.373,0.529c0.092,0.204 0.134,0.424 0.134,0.665c0,0.24 -0.042,0.46 -0.134,0.664c-0.092,0.204 -0.217,0.381 -0.373,0.529c-0.156,0.148 -0.34,0.264 -0.545,0.348c-0.204,0.084 -0.425,0.123 -0.653,0.123c-0.228,0 -0.446,-0.039 -0.65,-0.123c-0.204,-0.084 -0.385,-0.2 -0.541,-0.348c-0.156,-0.148 -0.275,-0.325 -0.367,-0.529c-0.093,-0.204 -0.137,-0.424 -0.137,-0.664c0,-0.241 0.044,-0.461 0.137,-0.665c0.092,-0.204 0.211,-0.381 0.367,-0.529c0.156,-0.148 0.337,-0.263 0.541,-0.347c0.204,-0.084 0.422,-0.124 0.65,-0.124Z" style="fill:#eeeeee;fill-rule:nonzero;"/>
    <path d="M36.092,243.38l0,6.035l2.52,0c0.319,0 0.608,-0.035 0.865,-0.111c0.256,-0.076 0.472,-0.188 0.652,-0.336c0.18,-0.148 0.316,-0.335 0.416,-0.555c0.1,-0.22 0.149,-0.468 0.149,-0.752c0,-0.18 -0.021,-0.351 -0.065,-0.511c-0.044,-0.16 -0.111,-0.304 -0.211,-0.432c-0.1,-0.128 -0.229,-0.236 -0.385,-0.324c-0.156,-0.088 -0.348,-0.154 -0.572,-0.198c0.224,-0.14 0.392,-0.307 0.5,-0.507c0.108,-0.2 0.164,-0.452 0.164,-0.756c0,-0.5 -0.143,-0.884 -0.431,-1.153c-0.288,-0.268 -0.71,-0.4 -1.266,-0.4l-2.336,0Zm5.537,0l0,6.035l3.449,0l0,-1.33l-1.881,0l0,-4.705l-1.568,0Zm4.258,0l0,6.035l3.433,0l0,-1.33l-1.865,0l0,-1.039l1.762,0l0,-1.328l-1.762,0l0,-1.01l1.865,0l0,-1.328l-3.433,0Zm4.562,0l0,6.035l1.569,0l0,-3.689l2.896,3.689l1.563,0l0,-6.035l-1.563,0l0,3.689l-2.896,-3.689l-1.569,0Zm7.291,0l0,6.035l2.321,0c0.416,0 0.805,-0.084 1.166,-0.248c0.36,-0.164 0.675,-0.389 0.943,-0.666c0.268,-0.276 0.481,-0.599 0.633,-0.963c0.152,-0.364 0.226,-0.744 0.226,-1.14c0,-0.401 -0.074,-0.785 -0.23,-1.149c-0.156,-0.364 -0.369,-0.685 -0.637,-0.961c-0.268,-0.276 -0.583,-0.496 -0.943,-0.66c-0.361,-0.164 -0.746,-0.248 -1.158,-0.248l-2.321,0Zm-20.08,1.201l0.288,0c0.492,0 0.736,0.196 0.736,0.584c0,0.388 -0.244,0.584 -0.736,0.584l-0.288,0l0,-1.168Zm21.648,0.127l0.362,0c0.268,0 0.506,0.045 0.718,0.129c0.212,0.084 0.393,0.204 0.541,0.352c0.149,0.148 0.26,0.329 0.34,0.537c0.08,0.208 0.121,0.431 0.121,0.672c0,0.244 -0.041,0.471 -0.117,0.675c-0.076,0.204 -0.187,0.386 -0.336,0.534c-0.148,0.148 -0.329,0.267 -0.541,0.351c-0.212,0.084 -0.454,0.127 -0.726,0.127l-0.362,0l0,-3.377Zm-21.648,2.209l0.344,0c0.396,0 0.676,0.052 0.848,0.152c0.172,0.1 0.256,0.265 0.256,0.489c0,0.224 -0.084,0.388 -0.256,0.488c-0.172,0.1 -0.452,0.152 -0.848,0.152l-0.344,0l0,-1.281Z" style="fill:#eeeeee;fill-rule:nonzero;"/>
    <path d="M40.338,114.15l0,6.035l1.568,0l0,-2.369l1.721,0l0,-1.33l-1.721,0l0,-1.008l1.889,0l0,-1.328l-3.457,0Zm4.393,0l0,3.498c0,0.94 0.216,1.624 0.648,2.057c0.432,0.432 1.092,0.648 1.984,0.648c0.892,0 1.555,-0.216 1.983,-0.648c0.428,-0.433 0.642,-1.117 0.642,-2.057l0,-3.498l-1.56,0l0,3.281c0,0.176 -0.008,0.357 -0.02,0.541c-0.012,0.184 -0.057,0.352 -0.125,0.5c-0.068,0.148 -0.174,0.272 -0.314,0.364c-0.14,0.091 -0.346,0.14 -0.606,0.14c-0.26,0 -0.463,-0.048 -0.607,-0.141c-0.144,-0.091 -0.248,-0.215 -0.316,-0.363c-0.068,-0.148 -0.107,-0.316 -0.119,-0.5c-0.012,-0.184 -0.02,-0.365 -0.02,-0.541l0,-3.281l-1.57,0Zm6.523,0l0,6.035l3.434,0l0,-1.33l-1.866,0l0,-1.039l1.76,0l0,-1.33l-1.76,0l0,-1.008l1.866,0l0,-1.328l-3.434,0Zm4.561,0l0,6.035l3.451,0l0,-1.33l-1.881,0l0,-4.705l-1.57,0Z" style="fill:#eeeeee;fill-rule:nonzero;"/>
    <path d="M31.22,306.93c-0.368,0 -0.704,0.06 -1.01,0.182c-0.306,0.122 -0.569,0.291 -0.789,0.507c-0.22,0.216 -0.393,0.47 -0.517,0.76c-0.124,0.29 -0.186,0.602 -0.186,0.938c0,0.336 0.062,0.649 0.186,0.939c0.124,0.29 0.297,0.544 0.517,0.76c0.22,0.216 0.483,0.384 0.789,0.506c0.306,0.122 0.642,0.183 1.01,0.183c0.364,0 0.7,-0.061 1.008,-0.183c0.308,-0.122 0.573,-0.29 0.795,-0.506c0.222,-0.216 0.395,-0.47 0.519,-0.76c0.124,-0.29 0.186,-0.603 0.186,-0.939c0,-0.336 -0.062,-0.648 -0.186,-0.938c-0.124,-0.29 -0.297,-0.544 -0.519,-0.76c-0.222,-0.216 -0.487,-0.385 -0.795,-0.507c-0.308,-0.122 -0.644,-0.182 -1.008,-0.182Zm-7.943,0.125l-0.768,4.523l1.17,0l0.389,-2.603l1.015,2.603l0.467,0l1.068,-2.603l0.391,2.603l1.17,0l-0.768,-4.523l-1.164,0l-0.9,2.412l-0.906,-2.412l-1.164,0Zm11.195,0l0,4.523l1.74,0c0.312,0 0.603,-0.061 0.873,-0.185c0.27,-0.124 0.507,-0.29 0.709,-0.498c0.202,-0.208 0.358,-0.449 0.472,-0.723c0.114,-0.274 0.172,-0.559 0.172,-0.855c0,-0.3 -0.057,-0.588 -0.173,-0.862c-0.116,-0.274 -0.275,-0.512 -0.477,-0.718c-0.202,-0.206 -0.439,-0.372 -0.709,-0.496c-0.27,-0.124 -0.559,-0.186 -0.867,-0.186l-1.74,0Zm4.716,0l0,4.523l2.575,0l0,-0.996l-1.399,0l0,-0.779l1.32,0l0,-0.996l-1.32,0l0,-0.756l1.399,0l0,-0.996l-2.575,0Zm3.42,0l0,4.523l2.586,0l0,-0.996l-1.41,0l0,-3.527l-1.176,0Zm-6.961,0.996l0.272,0c0.2,0 0.379,0.032 0.539,0.096c0.16,0.064 0.294,0.151 0.404,0.263c0.11,0.112 0.196,0.247 0.256,0.403c0.06,0.156 0.09,0.324 0.09,0.504c0,0.184 -0.028,0.354 -0.086,0.508c-0.058,0.154 -0.142,0.286 -0.252,0.398c-0.11,0.112 -0.246,0.2 -0.406,0.264c-0.16,0.064 -0.341,0.095 -0.545,0.095l-0.272,0l0,-2.531Zm-4.427,0.018c0.172,0 0.336,0.031 0.49,0.093c0.154,0.062 0.288,0.15 0.406,0.262c0.118,0.112 0.211,0.243 0.279,0.395c0.068,0.152 0.104,0.318 0.104,0.498c0,0.18 -0.036,0.346 -0.104,0.498c-0.068,0.152 -0.161,0.284 -0.279,0.396c-0.118,0.112 -0.252,0.2 -0.406,0.262c-0.154,0.062 -0.318,0.092 -0.49,0.092c-0.172,0 -0.335,-0.03 -0.489,-0.092c-0.154,-0.062 -0.29,-0.15 -0.406,-0.262c-0.116,-0.112 -0.207,-0.244 -0.275,-0.396c-0.068,-0.152 -0.102,-0.318 -0.102,-0.498c0,-0.18 0.034,-0.346 0.102,-0.498c0.068,-0.152 0.159,-0.283 0.275,-0.395c0.116,-0.112 0.252,-0.2 0.406,-0.262c0.154,-0.062 0.317,-0.093 0.489,-0.093Z" style="fill:#eeeeee;fill-rule:nonzero;"/>
    <path d="M72.342,306.93c-0.368,0 -0.706,0.06 -1.012,0.182c-0.306,0.122 -0.569,0.291 -0.789,0.507c-0.22,0.216 -0.391,0.47 -0.515,0.76c-0.124,0.29 -0.186,0.602 -0.186,0.938c0,0.336 0.062,0.649 0.186,0.939c0.124,0.29 0.295,0.544 0.515,0.76c0.22,0.216 0.483,0.384 0.789,0.506c0.306,0.122 0.644,0.183 1.012,0.183c0.364,0 0.7,-0.061 1.008,-0.183c0.308,-0.122 0.573,-0.29 0.795,-0.506c0.222,-0.216 0.393,-0.47 0.517,-0.76c0.124,-0.29 0.188,-0.603 0.188,-0.939c0,-0.336 -0.064,-0.648 -0.188,-0.938c-0.124,-0.29 -0.295,-0.544 -0.517,-0.76c-0.222,-0.216 -0.487,-0.385 -0.795,-0.507c-0.308,-0.122 -0.644,-0.182 -1.008,-0.182Zm-5.887,0.125l0,0.996l0.967,0l0,3.527l1.176,0l0,-3.527l0.965,0l0,-0.996l-3.108,0Zm9.139,0l0,4.523l1.176,0l0,-2.765l2.172,2.765l1.17,0l0,-4.523l-1.17,0l0,2.766l-2.172,-2.766l-1.176,0Zm5.465,0l0,4.523l2.574,0l0,-0.996l-1.398,0l0,-0.779l1.32,0l0,-0.996l-1.32,0l0,-0.756l1.398,0l0,-0.996l-2.574,0Zm-8.717,1.014c0.172,0 0.334,0.031 0.488,0.093c0.154,0.062 0.29,0.15 0.408,0.262c0.118,0.112 0.212,0.243 0.28,0.395c0.068,0.152 0.101,0.318 0.101,0.498c0,0.18 -0.033,0.346 -0.101,0.498c-0.068,0.152 -0.162,0.284 -0.28,0.396c-0.118,0.112 -0.254,0.2 -0.408,0.262c-0.154,0.062 -0.316,0.092 -0.488,0.092c-0.172,0 -0.336,-0.03 -0.49,-0.092c-0.154,-0.062 -0.289,-0.15 -0.405,-0.262c-0.116,-0.112 -0.207,-0.244 -0.275,-0.396c-0.068,-0.152 -0.103,-0.318 -0.103,-0.498c0,-0.18 0.035,-0.346 0.103,-0.498c0.068,-0.152 0.159,-0.283 0.275,-0.395c0.116,-0.112 0.251,-0.2 0.405,-0.262c0.154,-0.062 0.318,-0.093 0.49,-0.093Z" style="fill:#eeeeee;fill-rule:nonzero;"/>
    <path d="M110.17,306.93c-0.364,0 -0.692,0.058 -0.988,0.174c-0.296,0.116 -0.55,0.278 -0.76,0.486c-0.21,0.208 -0.372,0.458 -0.486,0.752c-0.114,0.294 -0.17,0.619 -0.17,0.971c0,0.356 0.058,0.68 0.174,0.974c0.116,0.294 0.278,0.546 0.486,0.756c0.208,0.21 0.456,0.373 0.746,0.489c0.29,0.116 0.611,0.173 0.963,0.173c0.256,0 0.5,-0.031 0.732,-0.095c0.232,-0.064 0.445,-0.158 0.639,-0.28c0.194,-0.122 0.364,-0.273 0.508,-0.455c0.144,-0.182 0.258,-0.391 0.342,-0.627c0.06,-0.168 0.099,-0.351 0.119,-0.547c0.02,-0.196 0.031,-0.414 0.031,-0.654l-2.336,0l0,0.912l0.967,0c-0.02,0.132 -0.058,0.244 -0.113,0.336c-0.056,0.092 -0.127,0.169 -0.213,0.227c-0.086,0.058 -0.183,0.099 -0.291,0.125c-0.108,0.026 -0.22,0.039 -0.336,0.039c-0.196,0 -0.37,-0.034 -0.518,-0.1c-0.148,-0.066 -0.271,-0.159 -0.371,-0.279c-0.1,-0.12 -0.175,-0.262 -0.225,-0.426c-0.05,-0.164 -0.076,-0.341 -0.076,-0.533c0,-0.212 0.03,-0.404 0.088,-0.576c0.058,-0.172 0.138,-0.32 0.24,-0.442c0.102,-0.122 0.225,-0.215 0.369,-0.281c0.144,-0.066 0.303,-0.099 0.479,-0.099c0.212,0 0.402,0.054 0.568,0.162c0.166,0.108 0.301,0.287 0.405,0.535l1.117,-0.463c-0.208,-0.428 -0.492,-0.743 -0.848,-0.947c-0.356,-0.204 -0.77,-0.307 -1.242,-0.307l0,0Zm4.201,0.125l-1.722,4.525l1.253,0l0.272,-0.787l1.68,0l0.269,0.787l1.254,0l-1.722,-4.525l-1.284,0Zm3.522,0l0,4.525l1.175,0l0,-4.525l-1.175,0Zm2.125,0l0,4.525l1.175,0l0,-2.765l2.172,2.765l1.17,0l0,-4.525l-1.17,0l0,2.768l-2.172,-2.768l-1.175,0Zm-5.004,1.34l0.527,1.506l-1.056,0l0.529,-1.506Z" style="fill:#eeeeee;fill-rule:nonzero;"/>
    <path d="M130.169,259.55c0,-0.721 -0.782,-1.305 -1.745,-1.305l-106.679,0c-0.963,0 -1.745,0.584 -1.745,1.305l0,24.863c0,0.721 0.782,1.305 1.745,1.305l106.679,0c0.963,0 1.745,-0.584 1.745,-1.305l0,-24.863Z"/>
    <path d="M130.169,258.63c0,-1.28 -1.33,-2.318 -2.965,-2.318l-104.239,0c-1.635,0 -2.965,1.038 -2.965,2.318l0,26.712c0,1.28 1.33,2.318 2.965,2.318l104.239,0c1.635,0 2.965,-1.038 2.965,-2.318l0,-26.712Z" style="fill:none;stroke:rgb(128,128,128);stroke-width:1.14px;stroke-linejoin:round;stroke-miterlimit:1.5;"/>
  </g>
</svg>