<svg width="150px" height="380px" version="1.1" xmlns="http://www.w3.org/2000/svg" xmlns:xlink="http://www.w3.org/1999/xlink" xml:space="preserve" xmlns:serif="http://www.serif.com/" style="fill-rule:evenodd;clip-rule:evenodd;stroke-linecap:round;">
  <defs>
    <linearGradient id="_Linear1" x1="0" y1="0" x2="1" y2="0" gradientUnits="userSpaceOnUse" gradientTransform="matrix(0.007008,-37.8989,37.8989,0.007008,75.2834,112.195)">
      <stop offset="0" style="stop-color:#202020;stop-opacity:1"/>
      <stop offset="1" style="stop-color:#202020;stop-opacity:1"/>
    </linearGradient>
    <linearGradient id="_Linear2" x1="0" y1="0" x2="1" y2="0" gradientUnits="userSpaceOnUse" gradientTransform="matrix(-4.88,-92.58,92.58,-4.88,277.54,345.91)">
      <stop offset="0" style="stop-color:#202020;stop-opacity:1"/>
      <stop offset="1" style="stop-color:#202020;stop-opacity:1"/>
    </linearGradient>
    <linearGradient id="_Linear3" x1="0" y1="0" x2="1" y2="0" gradientUnits="userSpaceOnUse" gradientTransform="matrix(-4.75,94.86,-94.86,-4.75,277.54,158.47)">
      <stop offset="0" style="stop-color:#202020;stop-opacity:1"/>
      <stop offset="1" style="stop-color:#202020;stop-opacity:1"/>
    </linearGradient>
    <linearGradient id="_Linear4" x1="0" y1="0" x2="1" y2="0" gradientUnits="userSpaceOnUse" gradientTransform="matrix(1.15392e-16,-1.8845,1.8845,1.15392e-16,56.519,1.9362)">
      <stop offset="0" style="stop-color:#202020;stop-opacity:1"/>
      <stop offset="1" style="stop-color:#202020;stop-opacity:1"/>
    </linearGradient>
  </defs>
  <g>
    <g>
      <rect x="0" y="0" width="150" height="380" style="fill:url(#_Linear1);"/>
      <rect x="0" y="253.33" width="150" height="126.67" style="fill:url(#_Linear2);"/>
      <rect x="0" y="126.67" width="150" height="126.67" style="fill:url(#_Linear3);"/>
      <rect x="0" y="0" width="150" height="380" style="fill:rgb(16,53,80);fill-opacity:0.1;"/>
      <rect x="0" y="0" width="150" height="2" style="fill:url(#_Linear4);"/>
    </g>
  </g>
  <g id="Panel">
    <path id="path7510" d="M40.158,38.559l0,-5.112l1.322,0l0,0.964c0.404,-0.72 0.978,-1.08 1.723,-1.08c0.385,0 0.702,0.094 0.95,0.284c0.248,0.189 0.4,0.455 0.456,0.796c0.477,-0.72 1.055,-1.08 1.732,-1.08c0.934,0 1.401,0.516 1.401,1.546l0,3.682l-1.322,0l0,-3.231c0,-0.605 -0.202,-0.908 -0.605,-0.908c-0.413,0 -0.815,0.298 -1.206,0.894l0,3.245l-1.323,0l0,-3.231c0,-0.608 -0.203,-0.912 -0.609,-0.912c-0.407,0 -0.805,0.299 -1.197,0.898l0,3.245l-1.322,0Z" style="fill:#eeeeee;fill-rule:nonzero;"/>
    <path id="path7512" d="M51.909,38.01c-0.459,0.443 -0.952,0.666 -1.476,0.666c-0.447,0 -0.81,-0.137 -1.089,-0.41c-0.28,-0.273 -0.42,-0.627 -0.42,-1.062c0,-0.564 0.226,-1 0.678,-1.306c0.451,-0.306 1.098,-0.458 1.939,-0.458l0.368,0l0,-0.466c0,-0.53 -0.303,-0.796 -0.908,-0.796c-0.537,0 -1.08,0.152 -1.63,0.456l0,-0.949c0.624,-0.237 1.242,-0.354 1.853,-0.354c1.338,0 2.006,0.532 2.006,1.597l0,2.262c0,0.4 0.13,0.6 0.387,0.6c0.046,0 0.108,-0.005 0.182,-0.018l0.033,0.773c-0.292,0.087 -0.55,0.131 -0.773,0.131c-0.565,0 -0.929,-0.223 -1.09,-0.666l-0.06,0Zm0,-0.74l0,-1.039l-0.326,0c-0.89,0 -1.336,0.279 -1.336,0.838c0,0.19 0.064,0.349 0.192,0.478c0.13,0.128 0.288,0.193 0.478,0.193c0.323,0 0.653,-0.157 0.992,-0.47Z" style="fill:#eeeeee;fill-rule:nonzero;"/>
    <path id="path7514" d="M55.009,38.559l0,-5.112l1.379,0l0,0.964c0.45,-0.72 1.03,-1.08 1.74,-1.08c0.457,0 0.817,0.144 1.08,0.433c0.264,0.289 0.396,0.683 0.396,1.183l0,3.612l-1.377,0l0,-3.273c0,-0.58 -0.193,-0.87 -0.578,-0.87c-0.438,0 -0.858,0.308 -1.261,0.927l0,3.216l-1.379,0Z" style="fill:#eeeeee;fill-rule:nonzero;"/>
    <path id="path7516" d="M61.271,38.559l0,-5.112l1.378,0l0,5.112l-1.378,0Zm0,-5.972l0,-1.151l1.378,0l0,1.151l-1.378,0Z" style="fill:#eeeeee;fill-rule:nonzero;"/>
    <path id="path7518" d="M64.516,38.559l0,-4.251l-0.703,0l0,-0.861l0.703,0l0,-0.367c0,-1.326 0.629,-1.988 1.886,-1.988c0.406,0 0.825,0.059 1.256,0.176l0,0.932c-0.39,-0.165 -0.742,-0.247 -1.052,-0.247c-0.474,0 -0.713,0.358 -0.713,1.075l0,0.419l1.295,0l0,0.861l-1.295,0l0,4.251l-1.377,0Z" style="fill:#eeeeee;fill-rule:nonzero;"/>
    <path id="path7520" d="M70.47,38.676c-0.798,0 -1.431,-0.242 -1.901,-0.725c-0.47,-0.482 -0.706,-1.131 -0.706,-1.948c0,-0.826 0.237,-1.477 0.71,-1.955c0.473,-0.478 1.117,-0.717 1.93,-0.717c0.816,0 1.461,0.239 1.935,0.717c0.473,0.478 0.709,1.126 0.709,1.946c0,0.838 -0.237,1.495 -0.713,1.969c-0.474,0.475 -1.129,0.713 -1.964,0.713Zm0.024,-0.862c0.791,0 1.187,-0.607 1.187,-1.82c0,-0.556 -0.105,-0.994 -0.315,-1.317c-0.21,-0.323 -0.496,-0.484 -0.863,-0.484c-0.363,0 -0.65,0.161 -0.86,0.484c-0.209,0.323 -0.313,0.764 -0.313,1.326c0,0.556 0.104,0.997 0.311,1.323c0.209,0.326 0.493,0.488 0.853,0.488Z" style="fill:#eeeeee;fill-rule:nonzero;"/>
    <rect id="rect7522" x="74.413" y="31.208" width="1.379" height="7.351" style="fill:#eeeeee;"/>
    <path id="path7524" d="M80.731,38.559l0,-0.963c-0.354,0.72 -0.911,1.08 -1.672,1.08c-0.614,0 -1.097,-0.226 -1.447,-0.676c-0.351,-0.45 -0.526,-1.069 -0.526,-1.857c0,-0.857 0.198,-1.539 0.594,-2.049c0.394,-0.509 0.926,-0.763 1.594,-0.763c0.534,0 1.02,0.211 1.457,0.633l0,-2.756l1.383,0l0,7.351l-1.383,0Zm0,-3.775c-0.333,-0.373 -0.687,-0.56 -1.066,-0.56c-0.338,0 -0.609,0.164 -0.81,0.49c-0.202,0.326 -0.303,0.763 -0.303,1.313c0,1.046 0.336,1.569 1.006,1.569c0.41,0 0.8,-0.263 1.173,-0.787l0,-2.025Z" style="fill:#eeeeee;fill-rule:nonzero;"/>
    <path id="path7526" d="M87.118,38.559l0,-4.251l-0.703,0l0,-0.861l0.703,0l0,-0.353c0,-0.643 0.153,-1.137 0.459,-1.484c0.306,-0.345 0.741,-0.518 1.305,-0.518c0.349,0 0.717,0.063 1.109,0.19l0,0.941c-0.385,-0.171 -0.67,-0.256 -0.857,-0.256c-0.425,0 -0.638,0.388 -0.638,1.164l0,0.316l3.218,0l0,5.112l-1.379,0l0,-4.251l-1.839,0l0,4.251l-1.378,0Zm3.446,-5.972l0,-1.151l1.15,0l0,1.151l-1.15,0Z" style="fill:#eeeeee;fill-rule:nonzero;"/>
    <rect id="rect7528" x="93.436" y="31.208" width="1.379" height="7.351" style="fill:#eeeeee;"/>
    <path id="path7530" d="M99.172,38.532c-0.33,0.095 -0.589,0.144 -0.779,0.144c-1.194,0 -1.791,-0.559 -1.791,-1.676l0,-2.692l-0.573,0l0,-0.861l0.573,0l0,-0.86l1.377,-0.159l0,1.019l1.094,0l0,0.861l-1.094,0l0,2.509c0,0.628 0.257,0.942 0.769,0.942c0.118,0 0.258,-0.023 0.424,-0.066l0,0.839Z" style="fill:#eeeeee;fill-rule:nonzero;"/>
    <path id="path7532" d="M104.563,38.387c-0.656,0.192 -1.276,0.289 -1.863,0.289c-0.853,0 -1.526,-0.243 -2.021,-0.727c-0.493,-0.484 -0.74,-1.145 -0.74,-1.983c0,-0.792 0.227,-1.428 0.678,-1.911c0.452,-0.483 1.048,-0.724 1.79,-0.724c0.748,0 1.294,0.236 1.639,0.707c0.344,0.472 0.517,1.219 0.517,2.239l-3.171,0c0.093,0.976 0.629,1.463 1.606,1.463c0.463,0 0.983,-0.107 1.565,-0.321l0,0.968Zm-3.189,-2.887l1.834,0c0,-0.872 -0.281,-1.307 -0.843,-1.307c-0.571,0 -0.901,0.435 -0.991,1.307Z" style="fill:#eeeeee;fill-rule:nonzero;"/>
    <path id="path7534" d="M105.987,38.559l0,-5.112l1.378,0l0,0.964c0.357,-0.72 0.9,-1.08 1.63,-1.08c0.087,0 0.171,0.009 0.255,0.027l0,1.23c-0.195,-0.071 -0.377,-0.107 -0.544,-0.107c-0.55,0 -0.997,0.278 -1.341,0.833l0,3.245l-1.378,0Z" style="fill:#eeeeee;fill-rule:nonzero;"/>
    <path id="path7539" d="M60.116,19.797l-2.968,0l0,1.585l2.705,0l0,2.089l-2.705,0l0,3.724l-2.466,0l0,-9.485l5.434,0l0,2.087Z" style="fill:#eeeeee;fill-rule:nonzero;"/>
    <path id="path7541" d="M64.055,21.948l0.465,0c0.486,0 0.859,-0.099 1.12,-0.301c0.26,-0.201 0.389,-0.491 0.389,-0.868c0,-0.377 -0.129,-0.666 -0.389,-0.868c-0.261,-0.201 -0.634,-0.301 -1.12,-0.301l-0.465,0l0,2.338Zm5.421,5.247l-3.069,0l-2.352,-3.648l0,3.648l-2.467,0l0,-9.485l3.838,0c0.528,0 0.989,0.078 1.383,0.232c0.395,0.156 0.72,0.368 0.975,0.635c0.256,0.269 0.449,0.58 0.578,0.931c0.131,0.353 0.196,0.73 0.196,1.133c0,0.721 -0.174,1.306 -0.522,1.755c-0.348,0.449 -0.862,0.753 -1.541,0.912l2.981,3.887Z" style="fill:#eeeeee;fill-rule:nonzero;"/>
    <path id="path7543" d="M75.905,19.797l-2.931,0l-0.001,1.585l2.768,0l0,2.089l-2.767,0l-0.001,1.635l2.932,0l0,2.089l-5.397,0l0,-9.485l5.397,0l0,2.087Z" style="fill:#eeeeee;fill-rule:nonzero;"/>
    <path id="path7545" d="M82.836,23.672l-1.106,-3.157l-1.107,3.157l2.213,0Zm0.654,1.875l-3.523,0l-0.566,1.648l-2.629,0l3.611,-9.485l2.692,0l3.611,9.485l-2.63,0l-0.566,-1.648Z" style="fill:#eeeeee;fill-rule:nonzero;"/>
    <path id="path7547" d="M90.233,21.622l3.007,-3.912l3.043,0l-3.761,4.49l4.114,4.995l-3.195,0l-3.208,-4.113l0,4.113l-2.466,0l0,-9.485l2.466,0l0,3.912Z" style="fill:#eeeeee;fill-rule:nonzero;"/>
    <path id="path7743" d="M18.714,319.474l0,3.529l1.412,0l0,0.997l-2.589,0l0,-4.526l1.177,0Z" style="fill:rgb(140,140,140);fill-rule:nonzero;"/>
    <g>
      <path id="path7488" d="M56.76,81.027c5.878,-10.185 3.577,-23.246 -5.431,-30.805c-9.007,-7.555 -22.273,-7.555 -31.281,0c-9.007,7.559 -11.308,20.62 -5.43,30.805" style="fill:none;stroke:#eeeeee;stroke-width:1.5px;"/>
      <circle id="circle7491" cx="17.549" cy="90.294" r="3.706" style="fill:none;stroke:#eeeeee;stroke-width:1px;stroke-linecap:butt;"/>
      <circle id="circle7494" cx="55.329" cy="89.782" r="3.706" style="fill:#eeeeee;stroke:#eeeeee;stroke-width:1px;stroke-linecap:butt;"/>
    </g>
    <g>
      <path id="path7499" d="M134.76,80.749c5.878,-10.184 3.577,-23.246 -5.431,-30.805c-9.007,-7.555 -22.273,-7.555 -31.281,0c-9.007,7.559 -11.308,20.621 -5.43,30.805" style="fill:none;stroke:#eeeeee;stroke-width:1.5px;"/>
      <circle id="circle7502" cx="95.549" cy="90.017" r="3.706" style="fill:none;stroke:#eeeeee;stroke-width:1px;stroke-linecap:butt;"/>
      <circle id="circle7505" cx="133.329" cy="89.504" r="3.706" style="fill:#eeeeee;stroke:#eeeeee;stroke-width:1px;stroke-linecap:butt;"/>
    </g>
    <g>
      <path id="path7777" d="M133.699,170.972c2.737,-4.742 1.665,-10.825 -2.533,-14.346c-4.193,-3.522 -10.372,-3.522 -14.566,0c-4.197,3.521 -5.27,9.604 -2.533,14.346l9.816,-5.666l9.816,5.666Z" style="fill:none;stroke:#eeeeee;stroke-width:1px;"/>
      <path id="path7780" d="M133.327,172.168l0.024,4.41" style="fill:#eeeeee;fill-rule:nonzero;stroke:#eeeeee;stroke-width:1px;"/>
      <path id="path7783" d="M135.544,174.341l-4.41,0.02" style="fill:#eeeeee;fill-rule:nonzero;stroke:#eeeeee;stroke-width:1px;"/>
      <path id="path7786" d="M117.225,174.217l-4.414,0.02" style="fill:#eeeeee;fill-rule:nonzero;stroke:#eeeeee;stroke-width:1px;"/>
      <path id="path7789" d="M123.883,165.31l-0.024,-13.31" style="fill:none;stroke:#eeeeee;stroke-width:1px;"/>
    </g>
    <g>
      <path id="path7794" d="M36.652,170.683c2.737,-4.742 1.664,-10.825 -2.533,-14.346c-4.194,-3.522 -10.373,-3.522 -14.567,0c-4.197,3.521 -5.27,9.604 -2.533,14.346l9.817,-5.667l9.816,5.667Z" style="fill:none;stroke:#eeeeee;stroke-width:1px;"/>
      <path id="path7797" d="M36.279,171.879l0.024,4.41" style="fill:#eeeeee;fill-rule:nonzero;stroke:#eeeeee;stroke-width:1px;"/>
      <path id="path7800" d="M38.496,174.052l-4.409,0.02" style="fill:#eeeeee;fill-rule:nonzero;stroke:#eeeeee;stroke-width:1px;"/>
      <path id="path7803" d="M20.177,173.928l-4.414,0.02" style="fill:#eeeeee;fill-rule:nonzero;stroke:#eeeeee;stroke-width:1px;"/>
      <path id="path7806" d="M26.836,165.02l-0.024,-13.309" style="fill:none;stroke:#eeeeee;stroke-width:1px;"/>
    </g>
    <g>
      <g>
        <path id="path7809" d="M29.531,124.357l0.024,4.41" style="fill:#eeeeee;fill-rule:nonzero;stroke:#eeeeee;stroke-width:1px;"/>
        <path id="path7812" d="M31.748,126.53l-4.41,0.02" style="fill:#eeeeee;fill-rule:nonzero;stroke:#eeeeee;stroke-width:1px;"/>
        <path id="path7815" d="M13.429,126.406l-4.414,0.02" style="fill:#eeeeee;fill-rule:nonzero;stroke:#eeeeee;stroke-width:1px;"/>
        <path id="path7818" d="M29.904,123.161c2.737,-4.742 1.664,-10.825 -2.533,-14.346c-4.194,-3.522 -10.373,-3.522 -14.567,0c-4.197,3.521 -5.27,9.604 -2.533,14.346l9.816,-5.667l9.817,5.667Z" style="fill:none;stroke:#eeeeee;stroke-width:1px;"/>
      </g>
      <path id="path7821" d="M20.087,117.498l-0.024,-13.309" style="fill:none;stroke:#eeeeee;stroke-width:1px;"/>
    </g>
    <g id="text9293-4">
      <path d="M63.522,163.206c-0.362,-0.443 -0.811,-0.665 -1.344,-0.665c-0.235,0 -0.452,0.043 -0.652,0.128c-0.201,0.086 -0.373,0.202 -0.517,0.349c-0.144,0.146 -0.257,0.321 -0.34,0.524c-0.083,0.203 -0.124,0.421 -0.124,0.656c0,0.24 0.041,0.462 0.124,0.664c0.083,0.203 0.198,0.379 0.344,0.529c0.147,0.149 0.319,0.266 0.517,0.352c0.197,0.085 0.41,0.128 0.64,0.128c0.501,0 0.952,-0.214 1.352,-0.64l0,1.856l-0.16,0.056c-0.24,0.086 -0.464,0.148 -0.672,0.188c-0.208,0.04 -0.414,0.06 -0.616,0.06c-0.416,0 -0.815,-0.078 -1.197,-0.236c-0.381,-0.157 -0.717,-0.378 -1.008,-0.664c-0.291,-0.285 -0.524,-0.624 -0.7,-1.016c-0.177,-0.393 -0.265,-0.821 -0.265,-1.285c0,-0.464 0.087,-0.89 0.261,-1.276c0.173,-0.387 0.405,-0.721 0.696,-1.001c0.291,-0.28 0.628,-0.499 1.012,-0.656c0.384,-0.158 0.787,-0.236 1.209,-0.236c0.24,0 0.476,0.025 0.708,0.076c0.232,0.051 0.476,0.129 0.732,0.236l0,1.873Z" style="fill:#eeeeee;fill-rule:nonzero;"/>
      <path d="M66.083,161.189l0,3.281c0,0.176 0.007,0.356 0.02,0.54c0.014,0.185 0.054,0.351 0.12,0.501c0.067,0.149 0.173,0.27 0.317,0.364c0.144,0.093 0.346,0.14 0.608,0.14c0.261,0 0.463,-0.047 0.604,-0.14c0.141,-0.094 0.247,-0.215 0.316,-0.364c0.07,-0.15 0.111,-0.316 0.124,-0.501c0.014,-0.184 0.02,-0.364 0.02,-0.54l0,-3.281l1.561,0l0,3.497c0,0.939 -0.215,1.625 -0.644,2.057c-0.43,0.432 -1.09,0.648 -1.981,0.648c-0.891,0 -1.553,-0.216 -1.985,-0.648c-0.432,-0.432 -0.648,-1.118 -0.648,-2.057l0,-3.497l1.568,0Z" style="fill:#eeeeee;fill-rule:nonzero;"/>
      <path d="M73.326,162.517l0,4.706l-1.568,0l0,-4.706l-1.289,0l0,-1.328l4.146,0l0,1.328l-1.289,0Z" style="fill:#eeeeee;fill-rule:nonzero;"/>
      <path d="M76.624,164.206c0,0.24 0.045,0.462 0.136,0.664c0.091,0.203 0.213,0.379 0.368,0.529c0.155,0.149 0.335,0.265 0.54,0.348c0.206,0.082 0.423,0.124 0.652,0.124c0.23,0 0.447,-0.042 0.653,-0.124c0.205,-0.083 0.387,-0.199 0.544,-0.348c0.157,-0.15 0.281,-0.326 0.372,-0.529c0.091,-0.202 0.136,-0.424 0.136,-0.664c0,-0.24 -0.045,-0.461 -0.136,-0.664c-0.091,-0.203 -0.215,-0.379 -0.372,-0.528c-0.157,-0.15 -0.339,-0.266 -0.544,-0.349c-0.206,-0.082 -0.423,-0.124 -0.653,-0.124c-0.229,0 -0.446,0.042 -0.652,0.124c-0.205,0.083 -0.385,0.199 -0.54,0.349c-0.155,0.149 -0.277,0.325 -0.368,0.528c-0.091,0.203 -0.136,0.424 -0.136,0.664Zm-1.641,0c0,-0.448 0.083,-0.866 0.248,-1.252c0.166,-0.387 0.395,-0.725 0.688,-1.013c0.294,-0.288 0.645,-0.513 1.053,-0.676c0.408,-0.163 0.858,-0.244 1.348,-0.244c0.486,0 0.934,0.081 1.345,0.244c0.411,0.163 0.764,0.388 1.06,0.676c0.297,0.288 0.527,0.626 0.693,1.013c0.165,0.386 0.248,0.804 0.248,1.252c0,0.448 -0.083,0.866 -0.248,1.253c-0.166,0.386 -0.396,0.724 -0.693,1.012c-0.296,0.288 -0.649,0.514 -1.06,0.676c-0.411,0.163 -0.859,0.244 -1.345,0.244c-0.49,0 -0.94,-0.081 -1.348,-0.244c-0.408,-0.162 -0.759,-0.388 -1.053,-0.676c-0.293,-0.288 -0.522,-0.626 -0.688,-1.012c-0.165,-0.387 -0.248,-0.805 -0.248,-1.253Z" style="fill:#eeeeee;fill-rule:nonzero;"/>
      <path d="M86.116,162.517l-1.889,0l0,1.009l1.721,0l0,1.328l-1.721,0l0,2.369l-1.569,0l0,-6.034l3.458,0l0,1.328Z" style="fill:#eeeeee;fill-rule:nonzero;"/>
      <path d="M90.51,162.517l-1.889,0l0,1.009l1.72,0l0,1.328l-1.72,0l0,2.369l-1.569,0l0,-6.034l3.458,0l0,1.328Z" style="fill:#eeeeee;fill-rule:nonzero;"/>
    </g>
    <g>
      <path id="path77771" serif:id="path7777" d="M84.648,188.683c2.737,-4.742 1.665,-10.825 -2.533,-14.346c-4.194,-3.522 -10.373,-3.522 -14.566,0c-4.198,3.521 -5.27,9.604 -2.533,14.346l9.816,-5.667l9.816,5.667Z" style="fill:none;stroke:#eeeeee;stroke-width:1px;"/>
      <path id="path77831" serif:id="path7783" d="M86.493,192.052l-4.41,0.02" style="fill:#eeeeee;fill-rule:nonzero;stroke:#eeeeee;stroke-width:1px;"/>
      <path id="path77861" serif:id="path7786" d="M68.173,191.928l-4.414,0.02" style="fill:#eeeeee;fill-rule:nonzero;stroke:#eeeeee;stroke-width:1px;"/>
      <path id="path77801" serif:id="path7780" d="M84.276,189.879l0.024,4.41" style="fill:#eeeeee;fill-rule:nonzero;stroke:#eeeeee;stroke-width:1px;"/>
      <path id="path77891" serif:id="path7789" d="M74.832,183.02l-0.024,-13.309" style="fill:none;stroke:#eeeeee;stroke-width:1px;"/>
    </g>
    <g>
      <g>
        <path id="path78091" serif:id="path7809" d="M139.531,124.357l0.024,4.41" style="fill:#eeeeee;fill-rule:nonzero;stroke:#eeeeee;stroke-width:1px;"/>
        <path id="path78121" serif:id="path7812" d="M141.748,126.53l-4.41,0.02" style="fill:#eeeeee;fill-rule:nonzero;stroke:#eeeeee;stroke-width:1px;"/>
        <path id="path78151" serif:id="path7815" d="M123.429,126.406l-4.414,0.02" style="fill:#eeeeee;fill-rule:nonzero;stroke:#eeeeee;stroke-width:1px;"/>
        <path id="path78181" serif:id="path7818" d="M139.904,123.161c2.737,-4.742 1.664,-10.825 -2.533,-14.346c-4.194,-3.522 -10.373,-3.522 -14.567,0c-4.197,3.521 -5.27,9.604 -2.533,14.346l9.816,-5.667l9.817,5.667Z" style="fill:none;stroke:#eeeeee;stroke-width:1px;"/>
      </g>
      <path id="path78211" serif:id="path7821" d="M130.087,117.498l-0.024,-13.309" style="fill:none;stroke:#eeeeee;stroke-width:1px;"/>
    </g>
    <path d="M32.792,97.386l-1.592,0l-0.736,-1.896c-0.085,-0.213 -0.285,-0.32 -0.6,-0.32l-0.544,0l0,2.216l-1.48,0l0,-5.696l2.648,0c0.688,0 1.205,0.148 1.552,0.444c0.347,0.296 0.52,0.719 0.52,1.268c0,0.384 -0.103,0.716 -0.308,0.996c-0.205,0.28 -0.495,0.479 -0.868,0.596c0.16,0.032 0.304,0.107 0.432,0.224c0.128,0.117 0.229,0.275 0.304,0.472l0.672,1.696Zm-2.544,-3.336c0.32,0 0.552,-0.049 0.696,-0.148c0.144,-0.099 0.216,-0.252 0.216,-0.46c0,-0.219 -0.071,-0.376 -0.212,-0.472c-0.141,-0.096 -0.375,-0.144 -0.7,-0.144l-0.944,0l0,1.224l0.944,0Z" style="fill:#eeeeee;fill-rule:nonzero;"/>
    <path d="M33.552,97.386l0,-5.696l4.064,0l0,1.152l-2.6,0l0,1.072l2.432,0l0,1.152l-2.432,0l0,1.168l2.6,0l0,1.152l-4.064,0Z" style="fill:#eeeeee;fill-rule:nonzero;"/>
    <path d="M40.368,97.458c-0.427,0 -0.848,-0.056 -1.264,-0.168c-0.416,-0.112 -0.755,-0.264 -1.016,-0.456l0.472,-1.064c0.277,0.176 0.572,0.311 0.884,0.404c0.312,0.093 0.625,0.14 0.94,0.14c0.32,0 0.565,-0.044 0.736,-0.132c0.171,-0.088 0.256,-0.212 0.256,-0.372c0,-0.144 -0.077,-0.263 -0.232,-0.356c-0.155,-0.093 -0.445,-0.185 -0.872,-0.276c-0.539,-0.107 -0.957,-0.239 -1.256,-0.396c-0.299,-0.157 -0.508,-0.343 -0.628,-0.556c-0.12,-0.213 -0.18,-0.472 -0.18,-0.776c0,-0.347 0.099,-0.66 0.296,-0.94c0.197,-0.28 0.475,-0.499 0.832,-0.656c0.357,-0.157 0.765,-0.236 1.224,-0.236c0.411,0 0.809,0.057 1.196,0.172c0.387,0.115 0.689,0.265 0.908,0.452l-0.464,1.064c-0.251,-0.176 -0.515,-0.311 -0.792,-0.404c-0.277,-0.093 -0.555,-0.14 -0.832,-0.14c-0.272,0 -0.491,0.052 -0.656,0.156c-0.165,0.104 -0.248,0.244 -0.248,0.42c0,0.096 0.029,0.176 0.088,0.24c0.059,0.064 0.168,0.127 0.328,0.188c0.16,0.061 0.4,0.127 0.72,0.196c0.517,0.112 0.924,0.247 1.22,0.404c0.296,0.157 0.505,0.341 0.628,0.552c0.123,0.211 0.184,0.463 0.184,0.756c0,0.555 -0.216,0.991 -0.648,1.308c-0.432,0.317 -1.04,0.476 -1.824,0.476Z" style="fill:#eeeeee;fill-rule:nonzero;"/>
    <path d="M17.925,134.189l-1.194,0l-0.552,-1.422c-0.064,-0.16 -0.214,-0.24 -0.45,-0.24l-0.408,0l0,1.662l-1.11,0l0,-4.272l1.986,0c0.516,0 0.904,0.111 1.164,0.333c0.26,0.222 0.39,0.539 0.39,0.951c0,0.288 -0.077,0.537 -0.231,0.747c-0.154,0.21 -0.371,0.359 -0.651,0.447c0.12,0.024 0.228,0.08 0.324,0.168c0.096,0.088 0.172,0.206 0.228,0.354l0.504,1.272Zm-1.908,-2.502c0.24,0 0.414,-0.037 0.522,-0.111c0.108,-0.074 0.162,-0.189 0.162,-0.345c0,-0.164 -0.053,-0.282 -0.159,-0.354c-0.106,-0.072 -0.281,-0.108 -0.525,-0.108l-0.708,0l0,0.918l0.708,0Z" style="fill:#eeeeee;fill-rule:nonzero;"/>
    <path d="M18.495,134.189l0,-4.272l3.048,0l0,0.864l-1.95,0l0,0.804l1.824,0l0,0.864l-1.824,0l0,0.876l1.95,0l0,0.864l-3.048,0Z" style="fill:#eeeeee;fill-rule:nonzero;"/>
    <path d="M23.607,134.243c-0.32,0 -0.636,-0.042 -0.948,-0.126c-0.312,-0.084 -0.566,-0.198 -0.762,-0.342l0.354,-0.798c0.208,0.132 0.429,0.233 0.663,0.303c0.234,0.07 0.469,0.105 0.705,0.105c0.24,0 0.424,-0.033 0.552,-0.099c0.128,-0.066 0.192,-0.159 0.192,-0.279c0,-0.108 -0.058,-0.197 -0.174,-0.267c-0.116,-0.07 -0.334,-0.139 -0.654,-0.207c-0.404,-0.08 -0.718,-0.179 -0.942,-0.297c-0.224,-0.118 -0.381,-0.257 -0.471,-0.417c-0.09,-0.16 -0.135,-0.354 -0.135,-0.582c0,-0.26 0.074,-0.495 0.222,-0.705c0.148,-0.21 0.356,-0.374 0.624,-0.492c0.268,-0.118 0.574,-0.177 0.918,-0.177c0.308,0 0.607,0.043 0.897,0.129c0.29,0.086 0.517,0.199 0.681,0.339l-0.348,0.798c-0.188,-0.132 -0.386,-0.233 -0.594,-0.303c-0.208,-0.07 -0.416,-0.105 -0.624,-0.105c-0.204,0 -0.368,0.039 -0.492,0.117c-0.124,0.078 -0.186,0.183 -0.186,0.315c0,0.072 0.022,0.132 0.066,0.18c0.044,0.048 0.126,0.095 0.246,0.141c0.12,0.046 0.3,0.095 0.54,0.147c0.388,0.084 0.693,0.185 0.915,0.303c0.222,0.118 0.379,0.256 0.471,0.414c0.092,0.158 0.138,0.347 0.138,0.567c0,0.416 -0.162,0.743 -0.486,0.981c-0.324,0.238 -0.78,0.357 -1.368,0.357Z" style="fill:#eeeeee;fill-rule:nonzero;"/>
    <path d="M17.841,290.778l-1.194,0l-0.552,-1.422c-0.064,-0.16 -0.214,-0.24 -0.45,-0.24l-0.408,0l0,1.662l-1.11,0l0,-4.272l1.986,0c0.516,0 0.904,0.111 1.164,0.333c0.26,0.222 0.39,0.539 0.39,0.951c0,0.288 -0.077,0.537 -0.231,0.747c-0.154,0.21 -0.371,0.359 -0.651,0.447c0.12,0.024 0.228,0.08 0.324,0.168c0.096,0.088 0.172,0.206 0.228,0.354l0.504,1.272Zm-1.908,-2.502c0.24,0 0.414,-0.037 0.522,-0.111c0.108,-0.074 0.162,-0.189 0.162,-0.345c0,-0.164 -0.053,-0.282 -0.159,-0.354c-0.106,-0.072 -0.281,-0.108 -0.525,-0.108l-0.708,0l0,0.918l0.708,0Z" style="fill:#eeeeee;fill-rule:nonzero;"/>
    <path d="M18.411,290.778l0,-4.272l3.048,0l0,0.864l-1.95,0l0,0.804l1.824,0l0,0.864l-1.824,0l0,0.876l1.95,0l0,0.864l-3.048,0Z" style="fill:#eeeeee;fill-rule:nonzero;"/>
    <path d="M23.523,290.832c-0.32,0 -0.636,-0.042 -0.948,-0.126c-0.312,-0.084 -0.566,-0.198 -0.762,-0.342l0.354,-0.798c0.208,0.132 0.429,0.233 0.663,0.303c0.234,0.07 0.469,0.105 0.705,0.105c0.24,0 0.424,-0.033 0.552,-0.099c0.128,-0.066 0.192,-0.159 0.192,-0.279c0,-0.108 -0.058,-0.197 -0.174,-0.267c-0.116,-0.07 -0.334,-0.139 -0.654,-0.207c-0.404,-0.08 -0.718,-0.179 -0.942,-0.297c-0.224,-0.118 -0.381,-0.257 -0.471,-0.417c-0.09,-0.16 -0.135,-0.354 -0.135,-0.582c0,-0.26 0.074,-0.495 0.222,-0.705c0.148,-0.21 0.356,-0.374 0.624,-0.492c0.268,-0.118 0.574,-0.177 0.918,-0.177c0.308,0 0.607,0.043 0.897,0.129c0.29,0.086 0.517,0.199 0.681,0.339l-0.348,0.798c-0.188,-0.132 -0.386,-0.233 -0.594,-0.303c-0.208,-0.07 -0.416,-0.105 -0.624,-0.105c-0.204,0 -0.368,0.039 -0.492,0.117c-0.124,0.078 -0.186,0.183 -0.186,0.315c0,0.072 0.022,0.132 0.066,0.18c0.044,0.048 0.126,0.095 0.246,0.141c0.12,0.046 0.3,0.095 0.54,0.147c0.388,0.084 0.693,0.185 0.915,0.303c0.222,0.118 0.379,0.256 0.471,0.414c0.092,0.158 0.138,0.347 0.138,0.567c0,0.416 -0.162,0.743 -0.486,0.981c-0.324,0.238 -0.78,0.357 -1.368,0.357Z" style="fill:#eeeeee;fill-rule:nonzero;"/>
    <path d="M120.434,129.667l1.746,0c0.472,0 0.879,0.085 1.221,0.255c0.342,0.17 0.604,0.415 0.786,0.735c0.182,0.32 0.273,0.7 0.273,1.14c0,0.444 -0.09,0.827 -0.27,1.149c-0.18,0.322 -0.441,0.568 -0.783,0.738c-0.342,0.17 -0.751,0.255 -1.227,0.255l-1.746,0l0,-4.272Zm1.668,3.372c0.416,0 0.727,-0.103 0.933,-0.309c0.206,-0.206 0.309,-0.517 0.309,-0.933c0,-0.82 -0.414,-1.23 -1.242,-1.23l-0.54,0l0,2.472l0.54,0Z" style="fill:#eeeeee;fill-rule:nonzero;"/>
    <path d="M128.834,133.939l-1.194,0l-0.552,-1.422c-0.064,-0.16 -0.214,-0.24 -0.45,-0.24l-0.408,0l0,1.662l-1.11,0l0,-4.272l1.986,0c0.516,0 0.904,0.111 1.164,0.333c0.26,0.222 0.39,0.539 0.39,0.951c0,0.288 -0.077,0.537 -0.231,0.747c-0.154,0.21 -0.371,0.359 -0.651,0.447c0.12,0.024 0.228,0.08 0.324,0.168c0.096,0.088 0.172,0.206 0.228,0.354l0.504,1.272Zm-1.908,-2.502c0.24,0 0.414,-0.037 0.522,-0.111c0.108,-0.074 0.162,-0.189 0.162,-0.345c0,-0.164 -0.053,-0.282 -0.159,-0.354c-0.106,-0.072 -0.281,-0.108 -0.525,-0.108l-0.708,0l0,0.918l0.708,0Z" style="fill:#eeeeee;fill-rule:nonzero;"/>
    <rect x="129.404" y="129.667" width="1.128" height="4.272" style="fill:#eeeeee;fill-rule:nonzero;"/>
    <path d="M134.426,129.667l1.134,0l-1.944,4.272l-0.894,0l-1.944,-4.272l1.17,0l1.23,2.868l1.248,-2.868Z" style="fill:#eeeeee;fill-rule:nonzero;"/>
    <path d="M135.806,133.939l0,-4.272l3.048,0l0,0.864l-1.95,0l0,0.804l1.824,0l0,0.864l-1.824,0l0,0.876l1.95,0l0,0.864l-3.048,0Z" style="fill:#eeeeee;fill-rule:nonzero;"/>
    <path d="M123.018,286.241l1.746,0c0.472,0 0.879,0.085 1.221,0.255c0.342,0.17 0.604,0.415 0.786,0.735c0.182,0.32 0.273,0.7 0.273,1.14c0,0.444 -0.09,0.827 -0.27,1.149c-0.18,0.322 -0.441,0.568 -0.783,0.738c-0.342,0.17 -0.751,0.255 -1.227,0.255l-1.746,0l0,-4.272Zm1.668,3.372c0.416,0 0.727,-0.103 0.933,-0.309c0.206,-0.206 0.309,-0.517 0.309,-0.933c0,-0.82 -0.414,-1.23 -1.242,-1.23l-0.54,0l0,2.472l0.54,0Z" style="fill:#eeeeee;fill-rule:nonzero;"/>
    <path d="M131.418,290.513l-1.194,0l-0.552,-1.422c-0.064,-0.16 -0.214,-0.24 -0.45,-0.24l-0.408,0l0,1.662l-1.11,0l0,-4.272l1.986,0c0.516,0 0.904,0.111 1.164,0.333c0.26,0.222 0.39,0.539 0.39,0.951c0,0.288 -0.077,0.537 -0.231,0.747c-0.154,0.21 -0.371,0.359 -0.651,0.447c0.12,0.024 0.228,0.08 0.324,0.168c0.096,0.088 0.172,0.206 0.228,0.354l0.504,1.272Zm-1.908,-2.502c0.24,0 0.414,-0.037 0.522,-0.111c0.108,-0.074 0.162,-0.189 0.162,-0.345c0,-0.164 -0.053,-0.282 -0.159,-0.354c-0.106,-0.072 -0.281,-0.108 -0.525,-0.108l-0.708,0l0,0.918l0.708,0Z" style="fill:#eeeeee;fill-rule:nonzero;"/>
    <rect x="131.988" y="286.241" width="1.128" height="4.272" style="fill:#eeeeee;fill-rule:nonzero;"/>
    <path d="M137.01,286.241l1.134,0l-1.944,4.272l-0.894,0l-1.944,-4.272l1.17,0l1.23,2.868l1.248,-2.868Z" style="fill:#eeeeee;fill-rule:nonzero;"/>
    <path d="M138.39,290.513l0,-4.272l3.048,0l0,0.864l-1.95,0l0,0.804l1.824,0l0,0.864l-1.824,0l0,0.876l1.95,0l0,0.864l-3.048,0Z" style="fill:#eeeeee;fill-rule:nonzero;"/>
    <path d="M65.233,200.568c-0.444,0 -0.831,-0.091 -1.161,-0.273c-0.33,-0.182 -0.584,-0.439 -0.762,-0.771c-0.178,-0.332 -0.267,-0.716 -0.267,-1.152c0,-0.432 0.089,-0.813 0.267,-1.143c0.178,-0.33 0.432,-0.586 0.762,-0.768c0.33,-0.182 0.717,-0.273 1.161,-0.273c0.28,0 0.551,0.042 0.813,0.126c0.262,0.084 0.473,0.198 0.633,0.342l-0.342,0.798c-0.348,-0.252 -0.708,-0.378 -1.08,-0.378c-0.344,0 -0.608,0.109 -0.792,0.327c-0.184,0.218 -0.276,0.541 -0.276,0.969c0,0.432 0.092,0.758 0.276,0.978c0.184,0.22 0.448,0.33 0.792,0.33c0.372,0 0.732,-0.126 1.08,-0.378l0.342,0.798c-0.16,0.144 -0.371,0.258 -0.633,0.342c-0.262,0.084 -0.533,0.126 -0.813,0.126Z" style="fill:#eeeeee;fill-rule:nonzero;"/>
    <path d="M69.145,200.568c-0.624,0 -1.096,-0.157 -1.416,-0.471c-0.32,-0.314 -0.48,-0.775 -0.48,-1.383l0,-2.472l1.098,0l0,2.514c0,0.308 0.069,0.544 0.207,0.708c0.138,0.164 0.335,0.246 0.591,0.246c0.252,0 0.446,-0.083 0.582,-0.249c0.136,-0.166 0.204,-0.401 0.204,-0.705l0,-2.514l1.11,0l0,2.472c0,0.6 -0.163,1.059 -0.489,1.377c-0.326,0.318 -0.795,0.477 -1.407,0.477Z" style="fill:#eeeeee;fill-rule:nonzero;"/>
    <path d="M72.739,200.514l0,-3.36l-1.272,0l0,-0.912l3.684,0l0,0.912l-1.272,0l0,3.36l-1.14,0Z" style="fill:#eeeeee;fill-rule:nonzero;"/>
    <path d="M77.407,200.568c-0.436,0 -0.816,-0.089 -1.14,-0.267c-0.324,-0.178 -0.573,-0.433 -0.747,-0.765c-0.174,-0.332 -0.261,-0.72 -0.261,-1.164c0,-0.444 0.088,-0.83 0.264,-1.158c0.176,-0.328 0.425,-0.581 0.747,-0.759c0.322,-0.178 0.701,-0.267 1.137,-0.267c0.436,0 0.815,0.089 1.137,0.267c0.322,0.178 0.569,0.431 0.741,0.759c0.172,0.328 0.258,0.714 0.258,1.158c0,0.444 -0.086,0.832 -0.258,1.164c-0.172,0.332 -0.419,0.587 -0.741,0.765c-0.322,0.178 -0.701,0.267 -1.137,0.267Zm0,-0.858c0.32,0 0.571,-0.114 0.753,-0.342c0.182,-0.228 0.273,-0.56 0.273,-0.996c0,-0.432 -0.091,-0.761 -0.273,-0.987c-0.182,-0.226 -0.433,-0.339 -0.753,-0.339c-0.32,0 -0.57,0.112 -0.75,0.336c-0.18,0.224 -0.27,0.554 -0.27,0.99c0,0.44 0.09,0.773 0.27,0.999c0.18,0.226 0.43,0.339 0.75,0.339Z" style="fill:#eeeeee;fill-rule:nonzero;"/>
    <path d="M80.203,200.514l0,-4.272l2.982,0l0,0.882l-1.872,0l0,0.78l1.752,0l0,0.876l-1.752,0l0,1.734l-1.11,0Z" style="fill:#eeeeee;fill-rule:nonzero;"/>
    <path d="M83.707,200.514l0,-4.272l2.982,0l0,0.882l-1.872,0l0,0.78l1.752,0l0,0.876l-1.752,0l0,1.734l-1.11,0Z" style="fill:#eeeeee;fill-rule:nonzero;"/>
    <path d="M65.233,290.568c-0.444,0 -0.831,-0.091 -1.161,-0.273c-0.33,-0.182 -0.584,-0.439 -0.762,-0.771c-0.178,-0.332 -0.267,-0.716 -0.267,-1.152c0,-0.432 0.089,-0.813 0.267,-1.143c0.178,-0.33 0.432,-0.586 0.762,-0.768c0.33,-0.182 0.717,-0.273 1.161,-0.273c0.28,0 0.551,0.042 0.813,0.126c0.262,0.084 0.473,0.198 0.633,0.342l-0.342,0.798c-0.348,-0.252 -0.708,-0.378 -1.08,-0.378c-0.344,0 -0.608,0.109 -0.792,0.327c-0.184,0.218 -0.276,0.541 -0.276,0.969c0,0.432 0.092,0.758 0.276,0.978c0.184,0.22 0.448,0.33 0.792,0.33c0.372,0 0.732,-0.126 1.08,-0.378l0.342,0.798c-0.16,0.144 -0.371,0.258 -0.633,0.342c-0.262,0.084 -0.533,0.126 -0.813,0.126Z" style="fill:#eeeeee;fill-rule:nonzero;"/>
    <path d="M69.145,290.568c-0.624,0 -1.096,-0.157 -1.416,-0.471c-0.32,-0.314 -0.48,-0.775 -0.48,-1.383l0,-2.472l1.098,0l0,2.514c0,0.308 0.069,0.544 0.207,0.708c0.138,0.164 0.335,0.246 0.591,0.246c0.252,0 0.446,-0.083 0.582,-0.249c0.136,-0.166 0.204,-0.401 0.204,-0.705l0,-2.514l1.11,0l0,2.472c0,0.6 -0.163,1.059 -0.489,1.377c-0.326,0.318 -0.795,0.477 -1.407,0.477Z" style="fill:#eeeeee;fill-rule:nonzero;"/>
    <path d="M72.739,290.514l0,-3.36l-1.272,0l0,-0.912l3.684,0l0,0.912l-1.272,0l0,3.36l-1.14,0Z" style="fill:#eeeeee;fill-rule:nonzero;"/>
    <path d="M77.407,290.568c-0.436,0 -0.816,-0.089 -1.14,-0.267c-0.324,-0.178 -0.573,-0.433 -0.747,-0.765c-0.174,-0.332 -0.261,-0.72 -0.261,-1.164c0,-0.444 0.088,-0.83 0.264,-1.158c0.176,-0.328 0.425,-0.581 0.747,-0.759c0.322,-0.178 0.701,-0.267 1.137,-0.267c0.436,0 0.815,0.089 1.137,0.267c0.322,0.178 0.569,0.431 0.741,0.759c0.172,0.328 0.258,0.714 0.258,1.158c0,0.444 -0.086,0.832 -0.258,1.164c-0.172,0.332 -0.419,0.587 -0.741,0.765c-0.322,0.178 -0.701,0.267 -1.137,0.267Zm0,-0.858c0.32,0 0.571,-0.114 0.753,-0.342c0.182,-0.228 0.273,-0.56 0.273,-0.996c0,-0.432 -0.091,-0.761 -0.273,-0.987c-0.182,-0.226 -0.433,-0.339 -0.753,-0.339c-0.32,0 -0.57,0.112 -0.75,0.336c-0.18,0.224 -0.27,0.554 -0.27,0.99c0,0.44 0.09,0.773 0.27,0.999c0.18,0.226 0.43,0.339 0.75,0.339Z" style="fill:#eeeeee;fill-rule:nonzero;"/>
    <path d="M80.203,290.514l0,-4.272l2.982,0l0,0.882l-1.872,0l0,0.78l1.752,0l0,0.876l-1.752,0l0,1.734l-1.11,0Z" style="fill:#eeeeee;fill-rule:nonzero;"/>
    <path d="M83.707,290.514l0,-4.272l2.982,0l0,0.882l-1.872,0l0,0.78l1.752,0l0,0.876l-1.752,0l0,1.734l-1.11,0Z" style="fill:#eeeeee;fill-rule:nonzero;"/>
    <path d="M28.592,180.717l-0.378,-0.882l-1.896,0l-0.378,0.882l-1.128,0l1.998,-4.272l0.888,0l2.004,4.272l-1.11,0Zm-1.908,-1.728l1.164,0l-0.582,-1.35l-0.582,1.35Z" style="fill:#eeeeee;fill-rule:nonzero;"/>
    <path d="M49.592,290.717l-0.378,-0.882l-1.896,0l-0.378,0.882l-1.128,0l1.998,-4.272l0.888,0l2.004,4.272l-1.11,0Zm-1.908,-1.728l1.164,0l-0.582,-1.35l-0.582,1.35Z" style="fill:#eeeeee;fill-rule:nonzero;"/>
    <path d="M125.208,178.503c0.252,0.072 0.446,0.199 0.582,0.381c0.136,0.182 0.204,0.403 0.204,0.663c0,0.236 -0.062,0.442 -0.186,0.618c-0.124,0.176 -0.301,0.312 -0.531,0.408c-0.23,0.096 -0.501,0.144 -0.813,0.144l-2.13,0l0,-4.272l2.076,0c0.448,0 0.804,0.1 1.068,0.3c0.264,0.2 0.396,0.47 0.396,0.81c0,0.22 -0.058,0.414 -0.174,0.582c-0.116,0.168 -0.28,0.29 -0.492,0.366Zm-1.776,-0.384l0.786,0c0.208,0 0.36,-0.032 0.456,-0.096c0.096,-0.064 0.144,-0.166 0.144,-0.306c0,-0.144 -0.049,-0.25 -0.147,-0.318c-0.098,-0.068 -0.249,-0.102 -0.453,-0.102l-0.786,0l0,0.822Zm0.9,1.746c0.216,0 0.371,-0.034 0.465,-0.102c0.094,-0.068 0.141,-0.182 0.141,-0.342c0,-0.164 -0.046,-0.28 -0.138,-0.348c-0.092,-0.068 -0.248,-0.102 -0.468,-0.102l-0.9,0l0,0.894l0.9,0Z" style="fill:#eeeeee;fill-rule:nonzero;"/>
    <path d="M103.208,288.503c0.252,0.072 0.446,0.199 0.582,0.381c0.136,0.182 0.204,0.403 0.204,0.663c0,0.236 -0.062,0.442 -0.186,0.618c-0.124,0.176 -0.301,0.312 -0.531,0.408c-0.23,0.096 -0.501,0.144 -0.813,0.144l-2.13,0l0,-4.272l2.076,0c0.448,0 0.804,0.1 1.068,0.3c0.264,0.2 0.396,0.47 0.396,0.81c0,0.22 -0.058,0.414 -0.174,0.582c-0.116,0.168 -0.28,0.29 -0.492,0.366Zm-1.776,-0.384l0.786,0c0.208,0 0.36,-0.032 0.456,-0.096c0.096,-0.064 0.144,-0.166 0.144,-0.306c0,-0.144 -0.049,-0.25 -0.147,-0.318c-0.098,-0.068 -0.249,-0.102 -0.453,-0.102l-0.786,0l0,0.822Zm0.9,1.746c0.216,0 0.371,-0.034 0.465,-0.102c0.094,-0.068 0.141,-0.182 0.141,-0.342c0,-0.164 -0.046,-0.28 -0.138,-0.348c-0.092,-0.068 -0.248,-0.102 -0.468,-0.102l-0.9,0l0,0.894l0.9,0Z" style="fill:#eeeeee;fill-rule:nonzero;"/>
    <path d="M101.84,91.69l2.328,0c0.629,0 1.172,0.113 1.628,0.34c0.456,0.227 0.805,0.553 1.048,0.98c0.243,0.427 0.364,0.933 0.364,1.52c0,0.592 -0.12,1.103 -0.36,1.532c-0.24,0.429 -0.588,0.757 -1.044,0.984c-0.456,0.227 -1.001,0.34 -1.636,0.34l-2.328,0l0,-5.696Zm2.224,4.496c0.555,0 0.969,-0.137 1.244,-0.412c0.275,-0.275 0.412,-0.689 0.412,-1.244c0,-1.093 -0.552,-1.64 -1.656,-1.64l-0.72,0l0,3.296l0.72,0Z" style="fill:#eeeeee;fill-rule:nonzero;"/>
    <path d="M113.04,97.386l-1.592,0l-0.736,-1.896c-0.085,-0.213 -0.285,-0.32 -0.6,-0.32l-0.544,0l0,2.216l-1.48,0l0,-5.696l2.648,0c0.688,0 1.205,0.148 1.552,0.444c0.347,0.296 0.52,0.719 0.52,1.268c0,0.384 -0.103,0.716 -0.308,0.996c-0.205,0.28 -0.495,0.479 -0.868,0.596c0.16,0.032 0.304,0.107 0.432,0.224c0.128,0.117 0.229,0.275 0.304,0.472l0.672,1.696Zm-2.544,-3.336c0.32,0 0.552,-0.049 0.696,-0.148c0.144,-0.099 0.216,-0.252 0.216,-0.46c0,-0.219 -0.071,-0.376 -0.212,-0.472c-0.141,-0.096 -0.375,-0.144 -0.7,-0.144l-0.944,0l0,1.224l0.944,0Z" style="fill:#eeeeee;fill-rule:nonzero;"/>
    <rect x="113.8" y="91.69" width="1.504" height="5.696" style="fill:#eeeeee;fill-rule:nonzero;"/>
    <path d="M120.496,91.69l1.512,0l-2.592,5.696l-1.192,0l-2.592,-5.696l1.56,0l1.64,3.824l1.664,-3.824Z" style="fill:#eeeeee;fill-rule:nonzero;"/>
    <path d="M122.336,97.386l0,-5.696l4.064,0l0,1.152l-2.6,0l0,1.072l2.432,0l0,1.152l-2.432,0l0,1.168l2.6,0l0,1.152l-4.064,0Z" style="fill:#eeeeee;fill-rule:nonzero;"/>
    <path d="M43.981,282.67c-6.21,0 -11.265,4.481 -11.265,9.988l0,13.145c0,0.801 1.355,0.801 1.355,0l0,-13.145c0,-4.857 4.432,-8.789 9.91,-8.789l63.704,0c5.479,0 9.913,3.932 9.913,8.789l0,13.145c0,0.843 1.389,0.831 1.353,0l0,-13.145c0,-5.506 -5.055,-9.988 -11.266,-9.988l-63.704,0Z" style="fill:#eeeeee;"/>
    <path d="M103.27,316.14c-5.359,0 -9.723,4.362 -9.723,9.721l0,23.115c0,5.36 4.364,9.722 9.723,9.722l30.994,0c5.36,0 9.723,-4.363 9.723,-9.722l0,-23.115c0,-5.359 -4.363,-9.721 -9.723,-9.721l-30.994,0Z" style="fill:none;stroke:#eeeeee;stroke-width:1.2px;stroke-linecap:butt;stroke-miterlimit:10;"/>
    <path d="M18.4,348.99l0,6.035l1.57,0l0,-6.035l-1.57,0Zm2.834,0l0,6.035l1.568,0l0,-3.689l2.897,3.689l1.56,0l0,-6.035l-1.56,0l0,3.691l-2.897,-3.691l-1.568,0Zm7.291,0l0,6.035l1.568,0l0,-2l0.928,0c0.676,0 1.197,-0.177 1.557,-0.529c0.361,-0.352 0.541,-0.848 0.541,-1.488c0,-0.64 -0.18,-1.137 -0.541,-1.489c-0.36,-0.353 -0.881,-0.529 -1.557,-0.529l-2.496,0Zm5.426,0l0,3.498c0,0.94 0.216,1.626 0.648,2.059c0.432,0.432 1.093,0.646 1.985,0.646c0.892,0 1.552,-0.214 1.98,-0.646c0.428,-0.433 0.645,-1.119 0.645,-2.059l0,-3.498l-1.561,0l0,3.283c0,0.176 -0.007,0.355 -0.019,0.539c-0.012,0.184 -0.056,0.352 -0.125,0.5c-0.068,0.148 -0.177,0.273 -0.317,0.365c-0.14,0.092 -0.343,0.139 -0.603,0.139c-0.26,0 -0.464,-0.047 -0.608,-0.139c-0.144,-0.092 -0.248,-0.217 -0.316,-0.365c-0.068,-0.148 -0.109,-0.316 -0.121,-0.5c-0.012,-0.184 -0.02,-0.363 -0.02,-0.539l0,-3.283l-1.568,0Zm5.953,0l0,1.33l1.289,0l0,4.705l1.57,0l0,-4.705l1.287,0l0,-1.33l-4.146,0Zm-9.811,1.266l0.52,0c0.576,0 0.865,0.252 0.865,0.752c0,0.5 -0.289,0.752 -0.865,0.752l-0.52,0l0,-1.504Z" style="fill:#eeeeee;"/>
    <path d="M43.133,321.5l0.224,0c0.232,0 0.408,-0.048 0.532,-0.144c0.124,-0.096 0.188,-0.236 0.188,-0.416c0,-0.181 -0.064,-0.317 -0.188,-0.413c-0.124,-0.096 -0.3,-0.144 -0.532,-0.144l-0.224,0l0,1.117Zm2.589,2.501l-1.465,0l-1.124,-1.741l0,1.741l-1.177,0l0,-4.526l1.833,0c0.252,0 0.472,0.04 0.66,0.112c0.188,0.076 0.34,0.176 0.464,0.304c0.12,0.128 0.213,0.276 0.277,0.444c0.06,0.168 0.092,0.348 0.092,0.541c0,0.344 -0.084,0.624 -0.249,0.836c-0.168,0.212 -0.412,0.36 -0.736,0.436l1.425,1.853Z" style="fill:rgb(140,140,140);fill-rule:nonzero;"/>
    <path d="M104.43,348.91c-0.493,0 -0.942,0.08 -1.35,0.244c-0.408,0.16 -0.758,0.389 -1.05,0.678c-0.293,0.288 -0.526,0.624 -0.69,1.008c-0.164,0.388 -0.248,0.805 -0.248,1.254c0,0.448 0.084,0.868 0.248,1.252c0.164,0.388 0.397,0.723 0.69,1.011c0.292,0.289 0.642,0.512 1.05,0.676c0.408,0.164 0.857,0.244 1.35,0.244c0.484,0 0.932,-0.08 1.34,-0.244c0.412,-0.164 0.763,-0.387 1.06,-0.676c0.296,-0.288 0.53,-0.623 0.694,-1.011c0.168,-0.384 0.248,-0.804 0.248,-1.252c0,-0.449 -0.08,-0.866 -0.248,-1.254c-0.164,-0.384 -0.398,-0.72 -0.694,-1.008c-0.297,-0.289 -0.648,-0.518 -1.06,-0.678c-0.408,-0.164 -0.856,-0.244 -1.34,-0.244Zm4.334,0.168l0,3.494c0,0.94 0.215,1.626 0.648,2.059c0.432,0.432 1.093,0.646 1.985,0.646c0.889,0 1.548,-0.214 1.98,-0.646c0.428,-0.433 0.645,-1.119 0.645,-2.059l0,-3.494l-1.561,0l0,3.279c0,0.176 -0.008,0.355 -0.019,0.539c-0.016,0.184 -0.057,0.352 -0.125,0.5c-0.072,0.148 -0.175,0.274 -0.315,0.366c-0.14,0.092 -0.344,0.138 -0.605,0.138c-0.26,0 -0.466,-0.046 -0.61,-0.138c-0.144,-0.092 -0.246,-0.218 -0.314,-0.366c-0.068,-0.148 -0.109,-0.316 -0.121,-0.5c-0.012,-0.184 -0.02,-0.363 -0.02,-0.539l0,-3.279l-1.568,0Zm5.955,0l0,1.326l1.283,0l0,4.705l1.569,0l0,-4.705l1.289,0l0,-1.326l-4.141,0Zm4.838,0l0,6.031l1.568,0l0,-2l0.928,0c0.676,0 1.197,-0.177 1.557,-0.529c0.361,-0.352 0.541,-0.848 0.541,-1.488c0,-0.64 -0.18,-1.133 -0.541,-1.485c-0.36,-0.353 -0.881,-0.529 -1.557,-0.529l-2.496,0Zm5.422,0l0,3.494c0,0.94 0.216,1.626 0.648,2.059c0.433,0.432 1.097,0.646 1.985,0.646c0.893,0 1.552,-0.214 1.98,-0.646c0.428,-0.433 0.645,-1.119 0.645,-2.059l0,-3.494l-1.561,0l0,3.279c0,0.176 -0.008,0.355 -0.019,0.539c-0.012,0.184 -0.057,0.352 -0.125,0.5c-0.068,0.148 -0.177,0.274 -0.317,0.366c-0.14,0.092 -0.339,0.138 -0.603,0.138c-0.26,0 -0.464,-0.046 -0.608,-0.138c-0.144,-0.092 -0.248,-0.218 -0.316,-0.366c-0.064,-0.148 -0.105,-0.316 -0.121,-0.5c-0.012,-0.184 -0.02,-0.363 -0.02,-0.539l0,-3.279l-1.568,0Zm5.955,0l0,1.326l1.287,0l0,4.705l1.57,0l0,-4.705l1.284,0l0,-1.326l-4.141,0Zm-9.809,1.262l0.52,0c0.576,0 0.865,0.252 0.865,0.752c0,0.504 -0.289,0.752 -0.865,0.752l-0.52,0l0,-1.504Zm-16.695,0.088c0.228,0 0.445,0.045 0.653,0.125c0.204,0.084 0.383,0.199 0.539,0.347c0.16,0.152 0.285,0.328 0.373,0.528c0.092,0.204 0.137,0.425 0.137,0.666c0,0.24 -0.045,0.464 -0.137,0.664c-0.088,0.204 -0.213,0.379 -0.373,0.527c-0.156,0.152 -0.335,0.264 -0.539,0.348c-0.208,0.084 -0.425,0.125 -0.653,0.125c-0.233,0 -0.448,-0.041 -0.652,-0.125c-0.208,-0.084 -0.389,-0.196 -0.541,-0.348c-0.156,-0.148 -0.279,-0.323 -0.367,-0.527c-0.092,-0.2 -0.137,-0.424 -0.137,-0.664c0,-0.241 0.045,-0.462 0.137,-0.666c0.088,-0.2 0.211,-0.376 0.367,-0.528c0.152,-0.148 0.333,-0.263 0.541,-0.347c0.204,-0.08 0.419,-0.125 0.652,-0.125Z" style="fill:#eeeeee;fill-rule:nonzero;"/>
    <g>
      <path d="M106.04,319.47l0,3.529l1.412,0l0,0.997l-2.589,0l0,-4.526l1.177,0Z" style="fill:rgb(140,140,140);fill-rule:nonzero;"/>
      <path d="M130.68,321.5l0.224,0c0.232,0 0.408,-0.048 0.532,-0.144c0.124,-0.096 0.188,-0.236 0.188,-0.416c0,-0.181 -0.064,-0.317 -0.188,-0.413c-0.124,-0.096 -0.3,-0.144 -0.532,-0.144l-0.224,0l0,1.117Zm2.589,2.501l-1.465,0l-1.124,-1.741l0,1.741l-1.177,0l0,-4.526l1.833,0c0.252,0 0.472,0.04 0.66,0.112c0.188,0.076 0.34,0.176 0.464,0.304c0.12,0.128 0.213,0.276 0.277,0.444c0.06,0.168 0.092,0.348 0.092,0.541c0,0.344 -0.084,0.624 -0.249,0.836c-0.168,0.212 -0.412,0.36 -0.736,0.436l1.425,1.853Z" style="fill:rgb(140,140,140);fill-rule:nonzero;"/>
    </g>
    <path d="M75.004,316.61c-7.529,0 -13.65,6.113 -13.65,13.643c0,7.53 6.121,13.648 13.65,13.648c7.53,0 13.641,-6.118 13.641,-13.648c0,-7.529 -6.11,-13.643 -13.641,-13.643Zm0,0.996c6.99,0 12.645,5.658 12.645,12.646c0,6.99 -5.655,12.645 -12.645,12.645c-6.989,0 -12.646,-5.655 -12.646,-12.645c0,-6.989 5.658,-12.646 12.646,-12.646Zm-0.314,2.891l-3.338,0.845l3.341,5.487l0,-1.58l-0.003,-4.752Zm0.619,0l-0.006,4.752l0,1.58l3.341,-5.486l-3.335,-0.846Zm-4.512,1.082l-2.631,2.05l-1.779,3.198l0.082,1.076l1.353,1.926l0.002,0.004c0.007,0.008 0.013,0.012 0.02,0.019l1.845,2.614l0.877,0.513l0.534,0.303l0.654,-0.584l-2.826,-1.848c-0.049,-0.034 -0.087,-0.08 -0.11,-0.134l-1.256,-2.938c-0.015,-0.038 -0.023,-0.077 -0.023,-0.117l0,-1.498c-0.003,-0.184 0.158,-0.327 0.34,-0.303c0.057,0.008 0.11,0.03 0.154,0.067l2.377,1.918c0.017,0.015 0.032,0.03 0.045,0.045l1.807,2.281l2.361,-2.305l-3.826,-6.287Zm8.404,0l-3.824,6.285l2.361,2.305l1.807,-2.282c0.013,-0.015 0.028,-0.03 0.045,-0.045l2.377,-1.918c0.044,-0.037 0.097,-0.059 0.154,-0.066c0.182,-0.023 0.343,0.119 0.34,0.303l0,1.498c0,0.04 -0.008,0.08 -0.023,0.117l-1.256,2.938c-0.023,0.054 -0.061,0.101 -0.11,0.134l-2.826,1.848l0.654,0.584l0.534,-0.303l0.877,-0.513l1.845,-2.614c0.006,-0.008 0.013,-0.012 0.02,-0.019l0.002,-0.004l1.353,-1.926l0.082,-1.076l-1.779,-3.198l-2.633,-2.048Zm-4.506,7.05l-2.168,2.118l0,1.187l2.168,-2.168l0,-1.137Zm0.608,0l0,1.137l2.168,2.168l0,-1.187l-2.168,-2.118Zm0,1.993l0,5.656l1.615,0.764l0.537,-4.274l-2.152,-2.146Zm-0.608,0.002l-2.15,2.144l0.537,4.274l1.613,-0.762l0,-5.656Zm-6.586,0.66l0.588,3.588l0.946,2.023l1.218,1.846l1.018,-0.09l0.66,-1.055l-1.613,-3.636l-0.051,-0.106l-0.607,-0.355l-0.936,-0.532c-0.041,-0.022 -0.076,-0.05 -0.103,-0.087l-1.12,-1.596Zm13.781,0l-1.119,1.596c-0.027,0.037 -0.062,0.067 -0.103,0.087l-0.936,0.532l-0.607,0.355l-0.051,0.106l-1.613,3.636l0.66,1.055l1.018,0.09l1.218,-1.846l0.946,-2.023l0.587,-3.588Zm-9.884,1.994l-0.512,0.453l0.146,0.332l0.622,1.307l-0.256,-2.092Zm5.988,0l-0.256,2.092l0.621,-1.307l0.147,-0.332l-0.512,-0.453Zm-2.691,3.666l0,3.527l1.451,-2.845l-1.451,-0.682Zm-0.608,0.002l-1.449,0.68l1.449,2.841l0,-3.521Zm-15.391,10.805l3.051,9.201c0.286,0.858 0.805,1.287 1.555,1.287c0.741,0 1.254,-0.423 1.541,-1.273l3.068,-9.215l-2.359,0l-2.28,7.371l-2.207,-7.371l-2.369,0Zm9.391,0l0,7.793c0,0.652 0.069,1.12 0.207,1.406c0.376,0.78 1.078,1.17 2.105,1.17l2.873,0c0.997,0 1.695,-0.379 2.09,-1.139c0.148,-0.287 0.221,-0.772 0.221,-1.453l0,-7.777l-2.221,0l0,7.674l-0.015,0.074c-0.05,0.257 -0.301,0.385 -0.756,0.385l-1.512,0c-0.474,0 -0.731,-0.138 -0.77,-0.414l0,-7.719l-2.222,0Zm8.519,0l0,7.836c0,0.81 0.168,1.416 0.504,1.816c0.335,0.4 0.903,0.634 1.703,0.703c0.109,0.01 0.237,0.016 0.385,0.016l4.133,0l0.014,-2.238l-3.954,0c-0.375,0 -0.564,-0.157 -0.564,-0.473l0,-7.66l-2.221,0Zm6.813,0l0,2.238l2.209,0l0,8.133l2.222,0l0,-8.133l2.237,0l0,-2.238l-6.668,0Z" style="fill:#eeeeee;"/>
    <path d="M15.993,316.14c-5.507,0 -9.988,4.481 -9.988,9.988l0,13.145c0,0.801 1.201,0.801 1.201,0l0,-13.145c0,-4.857 3.93,-8.789 8.787,-8.789l30.464,0c4.857,0 8.789,3.932 8.789,8.789l0,13.145c0,0.843 1.231,0.831 1.199,0l0,-13.145c0,-5.506 -4.481,-9.988 -9.988,-9.988l-30.464,0Z" style="fill:#eeeeee;"/>
    <path id="path7589" d="M116.998,276.65l0.768,-4.526l1.165,0l0.908,2.413l0.901,-2.413l1.16,0l0.768,4.526l-1.168,0l-0.388,-2.605l-1.069,2.605l-0.468,0l-1.016,-2.605l-0.388,2.605l-1.173,0Z" style="fill:#eeeeee;fill-rule:nonzero;"/>
    <path id="path7591" d="M124.441,274.389c0,0.18 0.032,0.344 0.1,0.496c0.068,0.152 0.16,0.284 0.276,0.396c0.116,0.112 0.252,0.2 0.405,0.26c0.156,0.064 0.32,0.096 0.492,0.096c0.172,0 0.332,-0.032 0.488,-0.096c0.152,-0.06 0.288,-0.148 0.408,-0.26c0.116,-0.112 0.208,-0.244 0.276,-0.396c0.068,-0.152 0.104,-0.316 0.104,-0.496c0,-0.18 -0.036,-0.348 -0.104,-0.5c-0.068,-0.152 -0.16,-0.284 -0.276,-0.397c-0.12,-0.112 -0.256,-0.196 -0.408,-0.26c-0.156,-0.06 -0.316,-0.092 -0.488,-0.092c-0.172,0 -0.336,0.032 -0.492,0.092c-0.153,0.064 -0.289,0.148 -0.405,0.26c-0.116,0.113 -0.208,0.245 -0.276,0.397c-0.068,0.152 -0.1,0.32 -0.1,0.5Zm-1.232,0c0,-0.336 0.064,-0.648 0.188,-0.941c0.124,-0.288 0.296,-0.544 0.516,-0.76c0.22,-0.216 0.48,-0.384 0.788,-0.504c0.304,-0.124 0.645,-0.184 1.013,-0.184c0.364,0 0.696,0.06 1.004,0.184c0.308,0.12 0.576,0.288 0.796,0.504c0.225,0.216 0.397,0.472 0.521,0.76c0.124,0.293 0.184,0.605 0.184,0.941c0,0.336 -0.06,0.648 -0.184,0.936c-0.124,0.292 -0.296,0.544 -0.521,0.761c-0.22,0.216 -0.488,0.384 -0.796,0.508c-0.308,0.12 -0.64,0.18 -1.004,0.18c-0.368,0 -0.709,-0.06 -1.013,-0.18c-0.308,-0.124 -0.568,-0.292 -0.788,-0.508c-0.22,-0.217 -0.392,-0.469 -0.516,-0.761c-0.124,-0.288 -0.188,-0.6 -0.188,-0.936Z" style="fill:#eeeeee;fill-rule:nonzero;"/>
    <path id="path7593" d="M130.14,275.653l0.272,0c0.204,0 0.384,-0.032 0.544,-0.096c0.16,-0.064 0.296,-0.152 0.404,-0.264c0.112,-0.112 0.196,-0.244 0.252,-0.4c0.06,-0.152 0.088,-0.32 0.088,-0.504c0,-0.18 -0.032,-0.348 -0.092,-0.504c-0.06,-0.156 -0.144,-0.292 -0.252,-0.405c-0.112,-0.112 -0.244,-0.2 -0.404,-0.264c-0.16,-0.064 -0.34,-0.096 -0.54,-0.096l-0.272,0l0,2.533Zm-1.177,-3.529l1.741,0c0.308,0 0.596,0.064 0.868,0.188c0.268,0.124 0.504,0.288 0.708,0.496c0.201,0.204 0.361,0.444 0.477,0.721c0.116,0.272 0.172,0.56 0.172,0.86c0,0.296 -0.056,0.58 -0.168,0.852c-0.116,0.276 -0.272,0.516 -0.477,0.725c-0.2,0.208 -0.436,0.376 -0.708,0.5c-0.268,0.124 -0.56,0.184 -0.872,0.184l-1.741,0l0,-4.526Z" style="fill:#eeeeee;fill-rule:nonzero;"/>
    <path id="path7595" d="M136.254,273.12l-1.396,0l0,0.757l1.316,0l0,0.996l-1.316,0l0,0.78l1.396,0l0,0.997l-2.573,0l0,-4.526l2.573,0l0,0.996Z" style="fill:#eeeeee;fill-rule:nonzero;"/>
    <path id="path7599" d="M90.864,273.081l-1.416,0l0,0.757l1.292,0l0,0.996l-1.292,0l0,1.777l-1.177,0l0,-4.526l2.593,0l0,0.996Z" style="fill:#eeeeee;fill-rule:nonzero;"/>
    <rect id="rect7601" x="91.568" y="272.085" width="1.176" height="4.526" style="fill:#eeeeee;"/>
    <path id="path7603" d="M94.866,272.085l0,3.529l1.412,0l0,0.997l-2.589,0l0,-4.526l1.177,0Z" style="fill:#eeeeee;fill-rule:nonzero;"/>
    <path id="path7605" d="M98.359,273.081l0,3.53l-1.176,0l0,-3.53l-0.965,0l0,-0.996l3.106,0l0,0.996l-0.965,0Z" style="fill:#eeeeee;fill-rule:nonzero;"/>
    <path id="path7607" d="M102.421,273.081l-1.397,0l0,0.757l1.317,0l0,0.996l-1.317,0l0,0.78l1.397,0l0,0.997l-2.573,0l0,-4.526l2.573,0l0,0.996Z" style="fill:#eeeeee;fill-rule:nonzero;"/>
    <path id="path7609" d="M104.442,274.11l0.224,0c0.232,0 0.408,-0.048 0.532,-0.144c0.124,-0.096 0.188,-0.236 0.188,-0.416c0,-0.181 -0.064,-0.317 -0.188,-0.413c-0.124,-0.096 -0.3,-0.144 -0.532,-0.144l-0.224,0l0,1.117Zm2.589,2.501l-1.465,0l-1.124,-1.741l0,1.741l-1.177,0l0,-4.526l1.833,0c0.252,0 0.472,0.04 0.66,0.112c0.188,0.076 0.34,0.176 0.465,0.304c0.12,0.128 0.212,0.276 0.276,0.444c0.06,0.168 0.092,0.348 0.092,0.541c0,0.344 -0.084,0.624 -0.248,0.836c-0.168,0.212 -0.413,0.36 -0.737,0.436l1.425,1.853Z" style="fill:#eeeeee;fill-rule:nonzero;"/>
    <path id="path7613" d="M35.203,247.686c-0.272,-0.333 -0.609,-0.497 -1.009,-0.497c-0.176,0 -0.34,0.032 -0.488,0.096c-0.152,0.064 -0.28,0.152 -0.388,0.26c-0.108,0.113 -0.192,0.241 -0.256,0.393c-0.06,0.152 -0.092,0.316 -0.092,0.492c0,0.18 0.032,0.348 0.092,0.5c0.064,0.152 0.148,0.284 0.26,0.396c0.108,0.112 0.236,0.2 0.384,0.264c0.148,0.064 0.308,0.096 0.48,0.096c0.376,0 0.717,-0.16 1.017,-0.48l0,1.393l-0.12,0.04c-0.18,0.064 -0.349,0.112 -0.505,0.14c-0.156,0.032 -0.312,0.044 -0.464,0.044c-0.312,0 -0.608,-0.056 -0.896,-0.176c-0.284,-0.116 -0.536,-0.284 -0.756,-0.496c-0.217,-0.217 -0.393,-0.469 -0.525,-0.765c-0.132,-0.292 -0.2,-0.612 -0.2,-0.96c0,-0.348 0.068,-0.668 0.196,-0.957c0.132,-0.292 0.304,-0.54 0.525,-0.752c0.216,-0.208 0.468,-0.372 0.756,-0.492c0.288,-0.116 0.592,-0.176 0.908,-0.176c0.18,0 0.356,0.02 0.528,0.056c0.176,0.04 0.361,0.096 0.553,0.176l0,1.405Z" style="fill:#eeeeee;fill-rule:nonzero;"/>
    <path id="path7615" d="M37.035,248.438c0,0.18 0.036,0.344 0.104,0.496c0.068,0.152 0.161,0.284 0.277,0.396c0.116,0.112 0.252,0.2 0.404,0.26c0.156,0.064 0.316,0.096 0.488,0.096c0.172,0 0.336,-0.032 0.488,-0.096c0.156,-0.06 0.292,-0.148 0.408,-0.26c0.12,-0.112 0.212,-0.244 0.28,-0.396c0.068,-0.152 0.104,-0.316 0.104,-0.496c0,-0.18 -0.036,-0.348 -0.104,-0.5c-0.068,-0.152 -0.16,-0.284 -0.28,-0.397c-0.116,-0.112 -0.252,-0.196 -0.408,-0.26c-0.152,-0.06 -0.316,-0.092 -0.488,-0.092c-0.172,0 -0.332,0.032 -0.488,0.092c-0.152,0.064 -0.288,0.148 -0.404,0.26c-0.116,0.113 -0.209,0.245 -0.277,0.397c-0.068,0.152 -0.104,0.32 -0.104,0.5Zm-1.228,0c0,-0.336 0.064,-0.648 0.188,-0.941c0.124,-0.288 0.292,-0.544 0.512,-0.76c0.22,-0.216 0.484,-0.384 0.793,-0.504c0.304,-0.124 0.64,-0.184 1.008,-0.184c0.364,0 0.7,0.06 1.008,0.184c0.308,0.12 0.573,0.288 0.797,0.504c0.22,0.216 0.396,0.472 0.52,0.76c0.124,0.293 0.184,0.605 0.184,0.941c0,0.336 -0.06,0.648 -0.184,0.936c-0.124,0.292 -0.3,0.544 -0.52,0.761c-0.224,0.216 -0.489,0.384 -0.797,0.508c-0.308,0.12 -0.644,0.18 -1.008,0.18c-0.368,0 -0.704,-0.06 -1.008,-0.18c-0.309,-0.124 -0.573,-0.292 -0.793,-0.508c-0.22,-0.217 -0.388,-0.469 -0.512,-0.761c-0.124,-0.288 -0.188,-0.6 -0.188,-0.936Z" style="fill:#eeeeee;fill-rule:nonzero;"/>
    <path id="path7617" d="M41.357,250.699l0.769,-4.526l1.164,0l0.904,2.413l0.901,-2.413l1.164,0l0.769,4.526l-1.169,0l-0.392,-2.605l-1.069,2.605l-0.468,0l-1.012,-2.605l-0.392,2.605l-1.169,0Z" style="fill:#eeeeee;fill-rule:nonzero;"/>
    <path id="path7619" d="M48.948,249.786l0.256,0c0.297,0 0.509,-0.036 0.637,-0.112c0.128,-0.076 0.192,-0.2 0.192,-0.368c0,-0.168 -0.064,-0.288 -0.192,-0.364c-0.128,-0.076 -0.34,-0.116 -0.637,-0.116l-0.256,0l0,0.96Zm0,-1.836l0.216,0c0.369,0 0.553,-0.144 0.553,-0.437c0,-0.292 -0.184,-0.44 -0.553,-0.44l-0.216,0l0,0.877Zm-1.176,-1.777l1.753,0c0.416,0 0.732,0.1 0.948,0.3c0.216,0.2 0.32,0.488 0.32,0.864c0,0.229 -0.04,0.421 -0.12,0.569c-0.084,0.152 -0.208,0.276 -0.376,0.38c0.168,0.032 0.312,0.08 0.428,0.148c0.12,0.064 0.216,0.148 0.288,0.244c0.076,0.096 0.128,0.204 0.16,0.324c0.032,0.12 0.048,0.248 0.048,0.384c0,0.212 -0.036,0.4 -0.112,0.564c-0.072,0.165 -0.176,0.301 -0.312,0.413c-0.132,0.112 -0.296,0.196 -0.488,0.252c-0.192,0.056 -0.408,0.084 -0.648,0.084l-1.889,0l0,-4.526Z" style="fill:#eeeeee;fill-rule:nonzero;"/>
    <rect id="rect7621" x="51.922" y="246.173" width="1.176" height="4.526" style="fill:#eeeeee;"/>
    <path id="path7623" d="M54.046,250.699l0,-4.526l1.177,0l2.173,2.769l0,-2.769l1.168,0l0,4.526l-1.168,0l-2.173,-2.765l0,2.765l-1.177,0Z" style="fill:#eeeeee;fill-rule:nonzero;"/>
    <path id="path7625" d="M62.086,247.169l-1.397,0l0,0.757l1.321,0l0,0.996l-1.321,0l0,0.78l1.397,0l0,0.997l-2.573,0l0,-4.526l2.573,0l0,0.996Z" style="fill:#eeeeee;fill-rule:nonzero;"/>
    <path id="path7627" d="M64.111,249.702l0.268,0c0.204,0 0.388,-0.032 0.548,-0.096c0.16,-0.064 0.292,-0.152 0.404,-0.264c0.108,-0.112 0.192,-0.244 0.252,-0.4c0.056,-0.152 0.084,-0.32 0.084,-0.504c0,-0.18 -0.028,-0.348 -0.088,-0.504c-0.06,-0.156 -0.144,-0.292 -0.256,-0.405c-0.108,-0.112 -0.244,-0.2 -0.404,-0.264c-0.16,-0.064 -0.34,-0.096 -0.54,-0.096l-0.268,0l0,2.533Zm-1.177,-3.529l1.741,0c0.308,0 0.596,0.064 0.864,0.188c0.272,0.124 0.508,0.288 0.709,0.496c0.204,0.204 0.36,0.444 0.476,0.721c0.116,0.272 0.176,0.56 0.176,0.86c0,0.296 -0.056,0.58 -0.172,0.852c-0.112,0.276 -0.272,0.516 -0.472,0.725c-0.205,0.208 -0.441,0.376 -0.709,0.5c-0.272,0.124 -0.56,0.184 -0.872,0.184l-1.741,0l0,-4.526Z" style="fill:#eeeeee;fill-rule:nonzero;"/>
    <path id="path7631" d="M17.013,238.825l0.768,-4.526l1.165,0l0.908,2.413l0.901,-2.413l1.16,0l0.768,4.526l-1.168,0l-0.388,-2.605l-1.069,2.605l-0.468,0l-1.016,-2.605l-0.389,2.605l-1.172,0Z" style="fill:rgb(140,140,140);fill-rule:nonzero;"/>
    <path id="path7633" d="M24.456,236.564c0,0.18 0.032,0.344 0.1,0.496c0.068,0.152 0.16,0.284 0.276,0.396c0.116,0.112 0.252,0.2 0.404,0.26c0.156,0.064 0.321,0.096 0.493,0.096c0.172,0 0.332,-0.032 0.488,-0.096c0.152,-0.06 0.288,-0.148 0.408,-0.26c0.116,-0.112 0.208,-0.244 0.276,-0.396c0.068,-0.152 0.104,-0.316 0.104,-0.496c0,-0.18 -0.036,-0.348 -0.104,-0.5c-0.068,-0.152 -0.16,-0.284 -0.276,-0.397c-0.12,-0.112 -0.256,-0.196 -0.408,-0.26c-0.156,-0.06 -0.316,-0.092 -0.488,-0.092c-0.172,0 -0.337,0.032 -0.493,0.092c-0.152,0.064 -0.288,0.148 -0.404,0.26c-0.116,0.113 -0.208,0.245 -0.276,0.397c-0.068,0.152 -0.1,0.32 -0.1,0.5Zm-1.232,0c0,-0.336 0.064,-0.648 0.188,-0.941c0.124,-0.288 0.296,-0.544 0.516,-0.76c0.22,-0.216 0.48,-0.384 0.788,-0.504c0.304,-0.124 0.644,-0.184 1.013,-0.184c0.364,0 0.696,0.06 1.004,0.184c0.308,0.12 0.576,0.288 0.796,0.504c0.224,0.216 0.397,0.472 0.521,0.76c0.124,0.293 0.184,0.605 0.184,0.941c0,0.336 -0.06,0.648 -0.184,0.936c-0.124,0.292 -0.297,0.544 -0.521,0.761c-0.22,0.216 -0.488,0.384 -0.796,0.508c-0.308,0.12 -0.64,0.18 -1.004,0.18c-0.369,0 -0.709,-0.06 -1.013,-0.18c-0.308,-0.124 -0.568,-0.292 -0.788,-0.508c-0.22,-0.217 -0.392,-0.469 -0.516,-0.761c-0.124,-0.288 -0.188,-0.6 -0.188,-0.936Z" style="fill:rgb(140,140,140);fill-rule:nonzero;"/>
    <path id="path7635" d="M30.154,237.828l0.273,0c0.204,0 0.384,-0.032 0.544,-0.096c0.16,-0.064 0.296,-0.152 0.404,-0.264c0.112,-0.112 0.196,-0.244 0.252,-0.4c0.06,-0.152 0.088,-0.32 0.088,-0.504c0,-0.18 -0.032,-0.348 -0.092,-0.504c-0.06,-0.156 -0.144,-0.292 -0.252,-0.405c-0.112,-0.112 -0.244,-0.2 -0.404,-0.264c-0.16,-0.064 -0.34,-0.096 -0.54,-0.096l-0.273,0l0,2.533Zm-1.176,-3.529l1.741,0c0.308,0 0.596,0.064 0.868,0.188c0.268,0.124 0.504,0.288 0.708,0.496c0.2,0.204 0.361,0.444 0.477,0.721c0.116,0.272 0.172,0.56 0.172,0.86c0,0.296 -0.056,0.58 -0.168,0.852c-0.116,0.276 -0.273,0.516 -0.477,0.725c-0.2,0.208 -0.436,0.376 -0.708,0.5c-0.268,0.124 -0.56,0.184 -0.872,0.184l-1.741,0l0,-4.526Z" style="fill:rgb(140,140,140);fill-rule:nonzero;"/>
    <path id="path7637" d="M36.909,236.324l0.224,0c0.232,0 0.409,-0.048 0.533,-0.144c0.124,-0.096 0.188,-0.236 0.188,-0.416c0,-0.181 -0.064,-0.317 -0.188,-0.413c-0.124,-0.096 -0.301,-0.144 -0.533,-0.144l-0.224,0l0,1.117Zm2.589,2.501l-1.464,0l-1.125,-1.741l0,1.741l-1.172,0l0,-4.526l1.829,0c0.252,0 0.472,0.04 0.66,0.112c0.188,0.076 0.34,0.176 0.464,0.304c0.12,0.128 0.212,0.276 0.276,0.444c0.06,0.168 0.092,0.348 0.092,0.541c0,0.344 -0.084,0.624 -0.248,0.836c-0.168,0.212 -0.412,0.36 -0.736,0.436l1.424,1.853Z" style="fill:rgb(140,140,140);fill-rule:nonzero;"/>
    <path id="path7639" d="M40.931,236.564c0,0.18 0.032,0.344 0.1,0.496c0.068,0.152 0.16,0.284 0.276,0.396c0.116,0.112 0.252,0.2 0.408,0.26c0.152,0.064 0.316,0.096 0.488,0.096c0.173,0 0.337,-0.032 0.489,-0.096c0.156,-0.06 0.292,-0.148 0.408,-0.26c0.12,-0.112 0.212,-0.244 0.28,-0.396c0.068,-0.152 0.1,-0.316 0.1,-0.496c0,-0.18 -0.032,-0.348 -0.1,-0.5c-0.068,-0.152 -0.16,-0.284 -0.28,-0.397c-0.116,-0.112 -0.252,-0.196 -0.408,-0.26c-0.152,-0.06 -0.316,-0.092 -0.489,-0.092c-0.172,0 -0.336,0.032 -0.488,0.092c-0.156,0.064 -0.292,0.148 -0.408,0.26c-0.116,0.113 -0.208,0.245 -0.276,0.397c-0.068,0.152 -0.1,0.32 -0.1,0.5Zm-1.229,0c0,-0.336 0.06,-0.648 0.184,-0.941c0.125,-0.288 0.297,-0.544 0.517,-0.76c0.22,-0.216 0.484,-0.384 0.788,-0.504c0.308,-0.124 0.644,-0.184 1.012,-0.184c0.365,0 0.701,0.06 1.009,0.184c0.308,0.12 0.572,0.288 0.792,0.504c0.224,0.216 0.396,0.472 0.52,0.76c0.124,0.293 0.189,0.605 0.189,0.941c0,0.336 -0.065,0.648 -0.189,0.936c-0.124,0.292 -0.296,0.544 -0.52,0.761c-0.22,0.216 -0.484,0.384 -0.792,0.508c-0.308,0.12 -0.644,0.18 -1.009,0.18c-0.368,0 -0.704,-0.06 -1.012,-0.18c-0.304,-0.124 -0.568,-0.292 -0.788,-0.508c-0.22,-0.217 -0.392,-0.469 -0.517,-0.761c-0.124,-0.288 -0.184,-0.6 -0.184,-0.936Z" style="fill:rgb(140,140,140);fill-rule:nonzero;"/>
    <path id="path7641" d="M46.629,234.299l0,2.461c0,0.132 0.008,0.268 0.016,0.404c0.012,0.14 0.04,0.264 0.092,0.376c0.048,0.112 0.128,0.204 0.236,0.272c0.108,0.072 0.261,0.108 0.457,0.108c0.196,0 0.348,-0.036 0.452,-0.108c0.108,-0.068 0.184,-0.16 0.236,-0.272c0.052,-0.112 0.084,-0.236 0.092,-0.376c0.012,-0.136 0.016,-0.272 0.016,-0.404l0,-2.461l1.172,0l0,2.625c0,0.704 -0.164,1.217 -0.484,1.541c-0.324,0.324 -0.816,0.484 -1.484,0.484c-0.669,0 -1.165,-0.16 -1.489,-0.484c-0.324,-0.324 -0.484,-0.837 -0.484,-1.541l0,-2.625l1.172,0Z" style="fill:rgb(140,140,140);fill-rule:nonzero;"/>
    <path id="path7643" d="M52.06,235.295l0,3.53l-1.177,0l0,-3.53l-0.964,0l0,-0.996l3.109,0l0,0.996l-0.968,0Z" style="fill:rgb(140,140,140);fill-rule:nonzero;"/>
    <path id="path7645" d="M56.121,235.295l-1.396,0l0,0.757l1.32,0l0,0.996l-1.32,0l0,0.78l1.396,0l0,0.997l-2.573,0l0,-4.526l2.573,0l0,0.996Z" style="fill:rgb(140,140,140);fill-rule:nonzero;"/>
    <path id="path7649" d="M89.41,238.635l0.768,-4.526l1.165,0l0.908,2.413l0.901,-2.413l1.16,0l0.768,4.526l-1.168,0l-0.388,-2.605l-1.069,2.605l-0.468,0l-1.016,-2.605l-0.389,2.605l-1.172,0Z" style="fill:rgb(140,140,140);fill-rule:nonzero;"/>
    <path id="path7651" d="M96.853,236.374c0,0.18 0.032,0.344 0.1,0.496c0.068,0.152 0.16,0.284 0.276,0.396c0.116,0.112 0.252,0.2 0.404,0.26c0.156,0.064 0.321,0.096 0.493,0.096c0.172,0 0.332,-0.032 0.488,-0.096c0.152,-0.06 0.288,-0.148 0.408,-0.26c0.116,-0.112 0.208,-0.244 0.276,-0.396c0.068,-0.152 0.104,-0.316 0.104,-0.496c0,-0.18 -0.036,-0.348 -0.104,-0.5c-0.068,-0.152 -0.16,-0.284 -0.276,-0.397c-0.12,-0.112 -0.256,-0.196 -0.408,-0.26c-0.156,-0.06 -0.316,-0.092 -0.488,-0.092c-0.172,0 -0.337,0.032 -0.493,0.092c-0.152,0.064 -0.288,0.148 -0.404,0.26c-0.116,0.113 -0.208,0.245 -0.276,0.397c-0.068,0.152 -0.1,0.32 -0.1,0.5Zm-1.232,0c0,-0.336 0.064,-0.648 0.188,-0.941c0.124,-0.288 0.296,-0.544 0.516,-0.76c0.22,-0.216 0.48,-0.384 0.788,-0.504c0.304,-0.124 0.644,-0.184 1.013,-0.184c0.364,0 0.696,0.06 1.004,0.184c0.308,0.12 0.576,0.288 0.796,0.504c0.224,0.216 0.397,0.472 0.521,0.76c0.124,0.293 0.184,0.605 0.184,0.941c0,0.336 -0.06,0.648 -0.184,0.936c-0.124,0.292 -0.297,0.544 -0.521,0.761c-0.22,0.216 -0.488,0.384 -0.796,0.508c-0.308,0.12 -0.64,0.18 -1.004,0.18c-0.369,0 -0.709,-0.06 -1.013,-0.18c-0.308,-0.124 -0.568,-0.292 -0.788,-0.508c-0.22,-0.217 -0.392,-0.469 -0.516,-0.761c-0.124,-0.288 -0.188,-0.6 -0.188,-0.936Z" style="fill:rgb(140,140,140);fill-rule:nonzero;"/>
    <path id="path7653" d="M102.551,237.638l0.273,0c0.204,0 0.384,-0.032 0.544,-0.096c0.16,-0.064 0.296,-0.152 0.404,-0.264c0.112,-0.112 0.196,-0.244 0.252,-0.4c0.06,-0.152 0.088,-0.32 0.088,-0.504c0,-0.18 -0.032,-0.348 -0.092,-0.504c-0.06,-0.156 -0.144,-0.292 -0.252,-0.405c-0.112,-0.112 -0.244,-0.2 -0.404,-0.264c-0.16,-0.064 -0.34,-0.096 -0.54,-0.096l-0.273,0l0,2.533Zm-1.176,-3.529l1.741,0c0.308,0 0.596,0.064 0.868,0.188c0.268,0.124 0.504,0.288 0.708,0.496c0.2,0.204 0.361,0.444 0.477,0.721c0.116,0.272 0.172,0.56 0.172,0.86c0,0.296 -0.056,0.58 -0.168,0.852c-0.116,0.276 -0.273,0.516 -0.477,0.725c-0.2,0.208 -0.436,0.376 -0.708,0.5c-0.268,0.124 -0.56,0.184 -0.872,0.184l-1.741,0l0,-4.526Z" style="fill:rgb(140,140,140);fill-rule:nonzero;"/>
    <path id="path7655" d="M108.666,235.105l-1.397,0l0,0.757l1.317,0l0,0.996l-1.317,0l0,0.78l1.397,0l0,0.997l-2.573,0l0,-4.526l2.573,0l0,0.996Z" style="fill:rgb(140,140,140);fill-rule:nonzero;"/>
    <path id="path7657" d="M110.687,234.109l0,3.529l1.412,0l0,0.997l-2.589,0l0,-4.526l1.177,0Z" style="fill:rgb(140,140,140);fill-rule:nonzero;"/>
    <path id="path7659" d="M117.23,235.269c-0.129,-0.104 -0.257,-0.18 -0.385,-0.232c-0.128,-0.048 -0.252,-0.076 -0.372,-0.076c-0.152,0 -0.276,0.036 -0.372,0.108c-0.096,0.072 -0.144,0.168 -0.144,0.284c0,0.08 0.024,0.144 0.072,0.197c0.048,0.052 0.108,0.1 0.188,0.136c0.076,0.04 0.164,0.072 0.264,0.1c0.096,0.028 0.196,0.056 0.292,0.088c0.385,0.128 0.665,0.3 0.841,0.512c0.18,0.216 0.268,0.496 0.268,0.84c0,0.232 -0.04,0.44 -0.116,0.628c-0.08,0.189 -0.192,0.349 -0.344,0.485c-0.148,0.132 -0.333,0.236 -0.553,0.312c-0.216,0.072 -0.464,0.108 -0.74,0.108c-0.572,0 -1.1,-0.168 -1.589,-0.508l0.505,-0.949c0.176,0.156 0.348,0.272 0.52,0.348c0.172,0.076 0.344,0.116 0.512,0.116c0.192,0 0.332,-0.044 0.428,-0.132c0.092,-0.088 0.14,-0.188 0.14,-0.3c0,-0.068 -0.012,-0.128 -0.036,-0.18c-0.024,-0.048 -0.064,-0.096 -0.12,-0.136c-0.056,-0.044 -0.128,-0.08 -0.22,-0.116c-0.088,-0.036 -0.196,-0.076 -0.324,-0.12c-0.152,-0.048 -0.3,-0.104 -0.448,-0.16c-0.144,-0.06 -0.276,-0.136 -0.388,-0.232c-0.116,-0.096 -0.208,-0.216 -0.276,-0.36c-0.072,-0.148 -0.108,-0.332 -0.108,-0.557c0,-0.224 0.04,-0.428 0.112,-0.608c0.076,-0.184 0.18,-0.34 0.312,-0.468c0.136,-0.132 0.3,-0.232 0.492,-0.304c0.192,-0.072 0.412,-0.108 0.652,-0.108c0.224,0 0.456,0.032 0.7,0.092c0.245,0.064 0.481,0.152 0.705,0.272l-0.468,0.92Z" style="fill:rgb(140,140,140);fill-rule:nonzero;"/>
    <path id="path7661" d="M121.195,235.105l-1.4,0l0,0.757l1.32,0l0,0.996l-1.32,0l0,0.78l1.4,0l0,0.997l-2.577,0l0,-4.526l2.577,0l0,0.996Z" style="fill:rgb(140,140,140);fill-rule:nonzero;"/>
    <path id="path7663" d="M123.216,234.109l0,3.529l1.409,0l0,0.997l-2.585,0l0,-4.526l1.176,0Z" style="fill:rgb(140,140,140);fill-rule:nonzero;"/>
    <path id="path7665" d="M127.806,235.105l-1.397,0l0,0.757l1.317,0l0,0.996l-1.317,0l0,0.78l1.397,0l0,0.997l-2.573,0l0,-4.526l2.573,0l0,0.996Z" style="fill:rgb(140,140,140);fill-rule:nonzero;"/>
    <path id="path7667" d="M131.912,235.622c-0.272,-0.333 -0.609,-0.497 -1.009,-0.497c-0.176,0 -0.34,0.032 -0.492,0.096c-0.148,0.064 -0.276,0.152 -0.384,0.26c-0.108,0.113 -0.192,0.241 -0.256,0.393c-0.06,0.152 -0.092,0.316 -0.092,0.492c0,0.18 0.032,0.348 0.092,0.5c0.064,0.152 0.148,0.284 0.26,0.396c0.108,0.112 0.236,0.2 0.384,0.264c0.148,0.064 0.308,0.096 0.48,0.096c0.376,0 0.717,-0.16 1.017,-0.48l0,1.393l-0.12,0.04c-0.18,0.064 -0.349,0.112 -0.505,0.14c-0.156,0.032 -0.312,0.044 -0.464,0.044c-0.312,0 -0.612,-0.056 -0.896,-0.176c-0.284,-0.116 -0.536,-0.284 -0.756,-0.496c-0.217,-0.217 -0.393,-0.469 -0.525,-0.765c-0.132,-0.292 -0.2,-0.612 -0.2,-0.96c0,-0.348 0.068,-0.668 0.196,-0.957c0.132,-0.292 0.304,-0.54 0.525,-0.752c0.216,-0.208 0.468,-0.372 0.756,-0.492c0.288,-0.116 0.592,-0.176 0.908,-0.176c0.18,0 0.356,0.02 0.528,0.056c0.176,0.04 0.361,0.096 0.553,0.176l0,1.405Z" style="fill:rgb(140,140,140);fill-rule:nonzero;"/>
    <path id="path7669" d="M134.369,235.105l0,3.53l-1.177,0l0,-3.53l-0.964,0l0,-0.996l3.109,0l0,0.996l-0.968,0Z" style="fill:rgb(140,140,140);fill-rule:nonzero;"/>
    <rect id="rect7673" x="31.941" y="256.203" width="1.176" height="4.526" style="fill:#eeeeee;"/>
    <path id="path7675" d="M34.066,260.729l0,-4.526l1.177,0l2.173,2.769l0,-2.769l1.168,0l0,4.526l-1.168,0l-2.173,-2.765l0,2.765l-1.177,0Z" style="fill:#eeeeee;fill-rule:nonzero;"/>
    <path id="path7677" d="M40.709,259.732l0.272,0c0.2,0 0.384,-0.032 0.544,-0.096c0.16,-0.064 0.296,-0.152 0.404,-0.264c0.112,-0.112 0.197,-0.244 0.253,-0.4c0.06,-0.152 0.088,-0.32 0.088,-0.504c0,-0.18 -0.032,-0.348 -0.092,-0.504c-0.06,-0.156 -0.145,-0.292 -0.253,-0.405c-0.112,-0.112 -0.248,-0.2 -0.408,-0.264c-0.16,-0.064 -0.34,-0.096 -0.536,-0.096l-0.272,0l0,2.533Zm-1.177,-3.529l1.741,0c0.308,0 0.596,0.064 0.869,0.188c0.268,0.124 0.504,0.288 0.708,0.496c0.2,0.204 0.36,0.444 0.476,0.721c0.116,0.272 0.172,0.56 0.172,0.86c0,0.296 -0.056,0.58 -0.168,0.852c-0.116,0.276 -0.272,0.516 -0.476,0.725c-0.2,0.208 -0.436,0.376 -0.708,0.5c-0.269,0.124 -0.561,0.184 -0.873,0.184l-1.741,0l0,-4.526Z" style="fill:#eeeeee;fill-rule:nonzero;"/>
    <rect id="rect7679" x="44.25" y="256.203" width="1.176" height="4.526" style="fill:#eeeeee;"/>
    <path id="path7681" d="M47.176,256.203l1.092,2.757l1.101,-2.757l1.276,0l-1.909,4.526l-0.936,0l-1.901,-4.526l1.277,0Z" style="fill:#eeeeee;fill-rule:nonzero;"/>
    <rect id="rect7683" x="51.117" y="256.203" width="1.176" height="4.526" style="fill:#eeeeee;"/>
    <path id="path7685" d="M54.419,259.732l0.272,0c0.204,0 0.384,-0.032 0.544,-0.096c0.16,-0.064 0.296,-0.152 0.404,-0.264c0.112,-0.112 0.196,-0.244 0.252,-0.4c0.06,-0.152 0.088,-0.32 0.088,-0.504c0,-0.18 -0.032,-0.348 -0.092,-0.504c-0.06,-0.156 -0.144,-0.292 -0.252,-0.405c-0.112,-0.112 -0.244,-0.2 -0.404,-0.264c-0.16,-0.064 -0.34,-0.096 -0.54,-0.096l-0.272,0l0,2.533Zm-1.177,-3.529l1.741,0c0.308,0 0.596,0.064 0.868,0.188c0.268,0.124 0.504,0.288 0.709,0.496c0.2,0.204 0.36,0.444 0.476,0.721c0.116,0.272 0.172,0.56 0.172,0.86c0,0.296 -0.056,0.58 -0.168,0.852c-0.116,0.276 -0.272,0.516 -0.476,0.725c-0.201,0.208 -0.437,0.376 -0.709,0.5c-0.268,0.124 -0.56,0.184 -0.872,0.184l-1.741,0l0,-4.526Z" style="fill:#eeeeee;fill-rule:nonzero;"/>
    <path id="path7687" d="M59.137,256.203l0,2.461c0,0.132 0.004,0.268 0.012,0.404c0.012,0.14 0.04,0.264 0.092,0.376c0.048,0.112 0.128,0.204 0.236,0.272c0.108,0.072 0.26,0.108 0.456,0.108c0.196,0 0.348,-0.036 0.452,-0.108c0.108,-0.068 0.184,-0.16 0.236,-0.272c0.052,-0.112 0.084,-0.236 0.096,-0.376c0.008,-0.136 0.012,-0.272 0.012,-0.404l0,-2.461l1.173,0l0,2.625c0,0.704 -0.16,1.217 -0.484,1.541c-0.321,0.324 -0.817,0.484 -1.485,0.484c-0.668,0 -1.165,-0.16 -1.489,-0.484c-0.324,-0.324 -0.484,-0.837 -0.484,-1.541l0,-2.625l1.177,0Z" style="fill:#eeeeee;fill-rule:nonzero;"/>
    <path id="path7689" d="M65.159,259.048l-0.528,-1.505l-0.528,1.505l1.056,0Zm0.312,0.896l-1.68,0l-0.269,0.785l-1.256,0l1.725,-4.526l1.28,0l1.725,4.526l-1.257,0l-0.268,-0.785Z" style="fill:#eeeeee;fill-rule:nonzero;"/>
    <path id="path7691" d="M68.689,256.203l0,3.529l1.408,0l0,0.997l-2.585,0l0,-4.526l1.177,0Z" style="fill:#eeeeee;fill-rule:nonzero;"/>
    <rect id="rect7695" x="31.995" y="267.383" width="1.176" height="4.526" style="fill:#eeeeee;"/>
    <path id="path7697" d="M34.12,271.909l0,-4.526l1.177,0l2.173,2.769l0,-2.769l1.168,0l0,4.526l-1.168,0l-2.173,-2.765l0,2.765l-1.177,0Z" style="fill:#eeeeee;fill-rule:nonzero;"/>
    <path id="path7699" d="M40.391,267.383l1.092,2.757l1.097,-2.757l1.28,0l-1.908,4.526l-0.937,0l-1.901,-4.526l1.277,0Z" style="fill:#eeeeee;fill-rule:nonzero;"/>
    <path id="path7701" d="M46.906,268.379l-1.397,0l0,0.757l1.321,0l0,0.996l-1.321,0l0,0.78l1.397,0l0,0.997l-2.573,0l0,-4.526l2.573,0l0,0.996Z" style="fill:#eeeeee;fill-rule:nonzero;"/>
    <path id="path7703" d="M48.93,269.408l0.221,0c0.232,0 0.412,-0.048 0.536,-0.144c0.124,-0.096 0.184,-0.236 0.184,-0.416c0,-0.181 -0.06,-0.317 -0.184,-0.413c-0.124,-0.096 -0.304,-0.144 -0.536,-0.144l-0.221,0l0,1.117Zm2.585,2.501l-1.464,0l-1.121,-1.741l0,1.741l-1.176,0l0,-4.526l1.829,0c0.252,0 0.472,0.04 0.66,0.112c0.188,0.076 0.344,0.176 0.464,0.304c0.124,0.128 0.216,0.276 0.276,0.444c0.064,0.168 0.092,0.348 0.092,0.541c0,0.344 -0.08,0.624 -0.248,0.836c-0.164,0.212 -0.408,0.36 -0.732,0.436l1.42,1.853Z" style="fill:#eeeeee;fill-rule:nonzero;"/>
    <path id="path7705" d="M54.493,268.543c-0.128,-0.104 -0.256,-0.18 -0.384,-0.232c-0.128,-0.048 -0.253,-0.076 -0.373,-0.076c-0.152,0 -0.276,0.036 -0.372,0.108c-0.096,0.072 -0.144,0.168 -0.144,0.284c0,0.08 0.024,0.144 0.072,0.197c0.048,0.052 0.108,0.1 0.188,0.136c0.076,0.04 0.164,0.072 0.264,0.1c0.096,0.028 0.196,0.056 0.293,0.088c0.384,0.128 0.664,0.3 0.84,0.512c0.18,0.216 0.268,0.496 0.268,0.84c0,0.232 -0.04,0.44 -0.116,0.628c-0.08,0.189 -0.192,0.349 -0.344,0.485c-0.148,0.132 -0.332,0.236 -0.552,0.312c-0.217,0.072 -0.465,0.108 -0.741,0.108c-0.572,0 -1.1,-0.168 -1.588,-0.508l0.504,-0.949c0.176,0.156 0.348,0.272 0.52,0.348c0.172,0.076 0.344,0.116 0.512,0.116c0.192,0 0.332,-0.044 0.428,-0.132c0.092,-0.088 0.14,-0.188 0.14,-0.3c0,-0.068 -0.012,-0.128 -0.036,-0.18c-0.024,-0.048 -0.064,-0.096 -0.12,-0.136c-0.056,-0.044 -0.128,-0.08 -0.22,-0.116c-0.088,-0.036 -0.196,-0.076 -0.324,-0.12c-0.152,-0.048 -0.3,-0.104 -0.448,-0.16c-0.144,-0.06 -0.276,-0.136 -0.388,-0.232c-0.116,-0.096 -0.208,-0.216 -0.276,-0.36c-0.072,-0.148 -0.108,-0.332 -0.108,-0.557c0,-0.224 0.04,-0.428 0.112,-0.608c0.076,-0.184 0.18,-0.34 0.312,-0.468c0.136,-0.132 0.3,-0.232 0.492,-0.304c0.196,-0.072 0.412,-0.108 0.652,-0.108c0.224,0 0.457,0.032 0.701,0.092c0.244,0.064 0.48,0.152 0.704,0.272l-0.468,0.92Z" style="fill:#eeeeee;fill-rule:nonzero;"/>
    <path id="path7707" d="M58.458,268.379l-1.4,0l0,0.757l1.32,0l0,0.996l-1.32,0l0,0.78l1.4,0l0,0.997l-2.577,0l0,-4.526l2.577,0l0,0.996Z" style="fill:#eeeeee;fill-rule:nonzero;"/>
    <path id="path7759" d="M134.026,205.453c0,-1.354 -1.099,-2.452 -2.451,-2.452l-113.098,0c-1.353,0 -2.451,1.098 -2.451,2.452l0,25.095c0,1.354 1.098,2.452 2.451,2.452l113.098,0c1.352,0 2.451,-1.098 2.451,-2.452l0,-25.095Z" style="stroke:#202020;stroke-width:0.99px;stroke-linejoin:round;stroke-miterlimit:1.5;"/>
    <path id="path7771" d="M133.302,206.126c0,-1.28 -1.04,-2.318 -2.319,-2.318l-111.879,0c-1.279,0 -2.319,1.038 -2.319,2.318l0,23.726c0,1.28 1.04,2.318 2.319,2.318l111.879,0c1.279,0 2.319,-1.038 2.319,-2.318l0,-23.726Z" style="fill:none;stroke:rgb(128,128,128);stroke-width:0.99px;stroke-linejoin:round;stroke-miterlimit:1.5;"/>
    <path d="M15.993,282.67c-5.507,0 -9.988,4.481 -9.988,9.988l0,13.145c0,0.801 1.201,0.801 1.201,0l0,-13.145c0,-4.857 3.93,-8.789 8.787,-8.789l7.788,0c4.857,0 8.789,3.932 8.789,8.789l0,13.145c0,0.843 1.232,0.831 1.199,0l0,-13.145c0,-5.506 -4.481,-9.988 -9.988,-9.988l-7.788,0Z" style="fill:#eeeeee;"/>
    <path d="M127.993,282.67c-5.507,0 -9.988,4.481 -9.988,9.988l0,13.145c0,0.801 1.201,0.801 1.201,0l0,-13.145c0,-4.857 3.93,-8.789 8.787,-8.789l7.788,0c4.857,0 8.789,3.932 8.789,8.789l0,13.145c0,0.843 1.232,0.831 1.199,0l0,-13.145c0,-5.506 -4.481,-9.988 -9.988,-9.988l-7.788,0Z" style="fill:#eeeeee;"/>
    <path d="M75.398,91.549c-7.925,0 -15.848,2.688 -22.258,8.064c-12.82,10.758 -16.096,29.35 -7.73,43.843c0.107,0.185 0.305,0.299 0.519,0.299c0.329,0 0.6,-0.271 0.6,-0.6c0,-0.106 -0.027,-0.21 -0.08,-0.301c-8.076,-13.991 -4.913,-31.935 7.463,-42.32c12.375,-10.379 30.599,-10.379 42.975,0c12.375,10.386 15.537,28.329 7.46,42.32c-0.053,0.091 -0.08,0.195 -0.08,0.301c0,0.329 0.271,0.6 0.6,0.6c0.214,0 0.412,-0.114 0.52,-0.3c8.365,-14.493 5.09,-33.083 -7.729,-43.842c-6.41,-5.376 -14.335,-8.064 -22.26,-8.064Zm-29.098,56.055c-2.371,0 -4.307,1.936 -4.307,4.307c0,2.371 1.936,4.304 4.307,4.304c2.371,0 4.307,-1.933 4.307,-4.304c0,-2.371 -1.936,-4.307 -4.307,-4.307Zm58.779,0.1c-2.317,0 -4.207,1.89 -4.207,4.207c0,2.317 1.89,4.205 4.207,4.205c2.317,0 4.205,-1.888 4.205,-4.205c0,-2.317 -1.888,-4.207 -4.205,-4.207Zm-58.779,1.099c1.723,0 3.106,1.385 3.106,3.108c0,1.722 -1.383,3.105 -3.106,3.105c-1.722,0 -3.105,-1.383 -3.105,-3.105c0,-1.723 1.383,-3.108 3.105,-3.108Z" style="fill:#eeeeee;"/>
  </g>
</svg>