<svg width="150px" height="380px" version="1.1" xmlns="http://www.w3.org/2000/svg" xmlns:xlink="http://www.w3.org/1999/xlink" xml:space="preserve" xmlns:serif="http://www.serif.com/" style="fill-rule:evenodd;clip-rule:evenodd;stroke-linecap:round;stroke-linejoin:round;stroke-miterlimit:10;">
  <defs>
    <linearGradient id="_Linear1" x1="0" y1="0" x2="1" y2="0" gradientUnits="userSpaceOnUse" gradientTransform="matrix(0.007008,-37.8989,37.8989,0.007008,75.2834,112.405)">
      <stop offset="0" style="stop-color:#202020;stop-opacity:1"/>
      <stop offset="1" style="stop-color:#202020;stop-opacity:1"/>
    </linearGradient>
    <linearGradient id="_Linear2" x1="0" y1="0" x2="1" y2="0" gradientUnits="userSpaceOnUse" gradientTransform="matrix(-4.88,-92.58,92.58,-4.88,277.54,346.13)">
      <stop offset="0" style="stop-color:#202020;stop-opacity:1"/>
      <stop offset="1" style="stop-color:#202020;stop-opacity:1"/>
    </linearGradient>
    <linearGradient id="_Linear3" x1="0" y1="0" x2="1" y2="0" gradientUnits="userSpaceOnUse" gradientTransform="matrix(-4.75,94.86,-94.86,-4.75,277.54,158.68)">
      <stop offset="0" style="stop-color:#202020;stop-opacity:1"/>
      <stop offset="1" style="stop-color:#202020;stop-opacity:1"/>
    </linearGradient>
    <linearGradient id="_Linear4" x1="0" y1="0" x2="1" y2="0" gradientUnits="userSpaceOnUse" gradientTransform="matrix(1.15392e-16,-1.8845,1.8845,1.15392e-16,56.521,2.1497)">
      <stop offset="0" style="stop-color:#202020;stop-opacity:1"/>
      <stop offset="1" style="stop-color:#202020;stop-opacity:1"/>
    </linearGradient>
  </defs>
  <g id="Panel">
    <g>
      <rect x="0" y="0.213" width="150" height="380" style="fill:url(#_Linear1);"/>
      <rect x="0" y="253.55" width="150" height="126.67" style="fill:url(#_Linear2);"/>
      <rect x="0" y="126.88" width="150" height="126.67" style="fill:url(#_Linear3);"/>
    </g>
    <rect x="0" y="0" width="150" height="380" style="fill:rgb(16,53,80);fill-opacity:0.1;"/>
    <rect x="0" y="0.213" width="150" height="2" style="fill:url(#_Linear4);"/>
    <path d="M54.167,204.05c-5.706,0 -11.412,1.934 -16.027,5.805c-9.23,7.745 -11.587,21.128 -5.565,31.564c0.392,0.722 1.469,0.101 1.039,-0.6c-5.733,-9.934 -3.488,-22.672 5.297,-30.045c8.786,-7.368 21.725,-7.368 30.51,0c8.786,7.373 11.03,20.111 5.297,30.045c-0.43,0.701 0.647,1.322 1.039,0.6c6.023,-10.436 3.666,-23.819 -5.564,-31.564c-4.615,-3.871 -10.32,-5.805 -16.025,-5.805l-0.001,0Zm-18.883,41.52c-2.371,0 -4.307,1.936 -4.307,4.307c0,2.371 1.936,4.304 4.307,4.304c2.371,0 4.306,-1.933 4.306,-4.304c0,-2.371 -1.935,-4.307 -4.306,-4.307Zm37.766,0c-2.371,0 -4.305,1.934 -4.305,4.305c0,2.371 1.934,4.306 4.305,4.306c2.371,0 4.306,-1.935 4.306,-4.306c0,-2.371 -1.935,-4.305 -4.306,-4.305Zm-37.766,1.199c1.722,0 3.105,1.385 3.105,3.108c0,1.722 -1.383,3.105 -3.105,3.105c-1.723,0 -3.106,-1.383 -3.106,-3.105c0,-1.723 1.383,-3.108 3.106,-3.108Z" style="fill:#eeeeee;fill-rule:nonzero;"/>
    <path d="M116.94,205.36c-0.332,0.006 -0.596,0.28 -0.59,0.611l0,1.409c-2.52,0.129 -5.006,1.042 -7.047,2.755c-4.419,3.708 -5.55,10.112 -2.668,15.105l0.301,0.52l10.035,-5.793l10.035,5.793l0.301,-0.52c2.882,-4.993 1.752,-11.398 -2.668,-15.105c-2.052,-1.722 -4.555,-2.636 -7.09,-2.757l0,-1.411c0,-0.338 -0.271,-0.612 -0.609,-0.607l0,0Zm-0.586,3.219l0.019,10.35l-8.902,5.14c-2.21,-4.402 -1.209,-9.813 2.605,-13.014c1.819,-1.527 4.032,-2.348 6.278,-2.476l0,0Zm1.199,0c2.26,0.121 4.488,0.94 6.317,2.476c3.815,3.201 4.813,8.612 2.603,13.014l-8.902,-5.14l-0.018,-10.35Zm7.933,17.562l0.01,1.582l-1.606,0.008c-0.831,-0.028 -0.825,1.235 0.01,1.199l1.606,-0.008l0.01,1.629c-0.026,0.831 1.236,0.822 1.199,-0.008l-0.01,-1.625l1.603,-0.008c0.801,-0.004 0.795,-1.205 -0.01,-1.201l-1.605,0.008l-0.01,-1.584c0,-0.771 -1.197,-0.756 -1.197,0.008l0,0Zm-15.172,1.445l-4.415,0.02c-0.8,0.004 -0.794,1.205 0.01,1.201l4.415,-0.022c0.83,0.028 0.824,-1.235 -0.01,-1.199Z" style="fill:#eeeeee;fill-rule:nonzero;"/>
    <path d="M54.213,135.97c-5.706,0 -11.412,1.934 -16.027,5.805c-9.229,7.745 -11.587,21.128 -5.564,31.564c0.391,0.722 1.468,0.101 1.039,-0.6c-5.733,-9.934 -3.488,-22.672 5.296,-30.045c8.786,-7.369 21.725,-7.369 30.511,0c8.785,7.373 11.029,20.111 5.296,30.045c-0.429,0.701 0.648,1.322 1.039,0.6c6.023,-10.436 3.666,-23.819 -5.564,-31.564c-4.615,-3.871 -10.32,-5.805 -16.025,-5.805l-0.001,0Zm-18.883,41.52c-2.371,0 -4.307,1.936 -4.307,4.307c0,2.371 1.936,4.304 4.307,4.304c2.371,0 4.307,-1.933 4.307,-4.304c0,-2.371 -1.936,-4.307 -4.307,-4.307Zm37.766,0c-2.371,0 -4.305,1.934 -4.305,4.305c0,2.371 1.934,4.306 4.305,4.306c2.371,0 4.307,-1.935 4.307,-4.306c0,-2.371 -1.936,-4.305 -4.307,-4.305Zm-37.766,1.199c1.722,0 3.105,1.385 3.105,3.108c0,1.722 -1.382,3.105 -3.105,3.105c-1.723,0 -3.105,-1.383 -3.105,-3.105c-0.001,-1.723 1.383,-3.108 3.105,-3.108Z" style="fill:#eeeeee;fill-rule:nonzero;"/>
    <path d="M40.174,188.67c-0.32,0 -0.609,0.047 -0.869,0.143c-0.26,0.096 -0.476,0.232 -0.656,0.404c-0.18,0.172 -0.316,0.381 -0.416,0.625c-0.1,0.244 -0.149,0.512 -0.149,0.812c0,0.3 0.049,0.545 0.141,0.741c0.092,0.196 0.217,0.356 0.369,0.484c0.152,0.128 0.323,0.233 0.519,0.309c0.197,0.076 0.392,0.147 0.596,0.211c0.172,0.06 0.316,0.112 0.436,0.16c0.12,0.048 0.217,0.1 0.293,0.156c0.076,0.056 0.128,0.116 0.16,0.184c0.032,0.068 0.049,0.144 0.049,0.236c0,0.148 -0.066,0.284 -0.19,0.4c-0.124,0.116 -0.316,0.176 -0.572,0.176c-0.224,0 -0.452,-0.052 -0.68,-0.152c-0.228,-0.1 -0.459,-0.255 -0.695,-0.463l-0.674,1.263c0.652,0.453 1.357,0.68 2.121,0.68c0.368,0 0.696,-0.046 0.988,-0.146c0.293,-0.1 0.537,-0.238 0.737,-0.418c0.2,-0.18 0.353,-0.391 0.457,-0.643c0.104,-0.252 0.156,-0.534 0.156,-0.842c0,-0.46 -0.121,-0.831 -0.357,-1.115c-0.236,-0.284 -0.611,-0.513 -1.123,-0.685c-0.128,-0.044 -0.257,-0.084 -0.389,-0.12c-0.132,-0.036 -0.248,-0.08 -0.352,-0.132c-0.104,-0.052 -0.187,-0.112 -0.252,-0.18c-0.064,-0.068 -0.097,-0.156 -0.097,-0.264c0,-0.156 0.065,-0.281 0.193,-0.377c0.128,-0.096 0.292,-0.142 0.496,-0.142c0.16,0 0.324,0.031 0.496,0.099c0.172,0.068 0.34,0.169 0.512,0.309l0.625,-1.225c-0.3,-0.16 -0.613,-0.281 -0.937,-0.365c-0.325,-0.084 -0.636,-0.123 -0.936,-0.123l0,0Zm6.17,0c-0.492,0 -0.94,0.08 -1.348,0.244c-0.408,0.164 -0.76,0.388 -1.053,0.676c-0.292,0.288 -0.525,0.623 -0.689,1.012c-0.164,0.388 -0.248,0.803 -0.248,1.252c0,0.448 0.084,0.865 0.248,1.254c0.164,0.388 0.397,0.723 0.689,1.011c0.293,0.288 0.645,0.512 1.053,0.676c0.408,0.164 0.856,0.244 1.348,0.244c0.484,0 0.933,-0.08 1.346,-0.244c0.412,-0.164 0.764,-0.388 1.06,-0.676c0.296,-0.288 0.528,-0.623 0.692,-1.011c0.164,-0.389 0.248,-0.806 0.248,-1.254c0,-0.449 -0.084,-0.864 -0.248,-1.252c-0.164,-0.389 -0.396,-0.724 -0.692,-1.012c-0.296,-0.288 -0.648,-0.512 -1.06,-0.676c-0.413,-0.164 -0.862,-0.244 -1.346,-0.244Zm28.34,0c-0.42,0 -0.825,0.078 -1.209,0.234c-0.384,0.156 -0.72,0.376 -1.012,0.657c-0.292,0.28 -0.523,0.613 -0.695,1.002c-0.172,0.388 -0.262,0.811 -0.262,1.275c0,0.464 0.09,0.893 0.266,1.285c0.176,0.392 0.407,0.732 0.699,1.016c0.292,0.284 0.628,0.508 1.008,0.664c0.38,0.156 0.781,0.236 1.197,0.236c0.204,0 0.409,-0.018 0.617,-0.058c0.208,-0.04 0.432,-0.106 0.672,-0.19l0.16,-0.055l0,-1.857c-0.4,0.428 -0.853,0.641 -1.353,0.641c-0.228,0 -0.445,-0.045 -0.641,-0.129c-0.196,-0.084 -0.367,-0.204 -0.515,-0.352c-0.148,-0.148 -0.26,-0.325 -0.344,-0.529c-0.084,-0.204 -0.125,-0.424 -0.125,-0.664c0,-0.236 0.041,-0.452 0.125,-0.656c0.084,-0.204 0.196,-0.376 0.34,-0.524c0.144,-0.148 0.315,-0.263 0.515,-0.347c0.2,-0.084 0.417,-0.129 0.653,-0.129c0.532,0 0.981,0.219 1.345,0.664l0,-1.873c-0.256,-0.108 -0.5,-0.185 -0.732,-0.237c-0.232,-0.052 -0.469,-0.074 -0.709,-0.074l0,0Zm-46.811,0.168l0,6.033l1.568,0l0,-2.32l1.496,2.32l1.953,0l-1.896,-2.472c0.432,-0.1 0.76,-0.296 0.98,-0.581c0.221,-0.284 0.332,-0.657 0.332,-1.117c0,-0.256 -0.041,-0.494 -0.125,-0.718c-0.084,-0.225 -0.203,-0.422 -0.367,-0.594c-0.164,-0.172 -0.369,-0.304 -0.621,-0.405c-0.252,-0.1 -0.545,-0.146 -0.881,-0.146l-2.439,0Zm5.674,0l0,6.033l3.433,0l0,-1.328l-1.865,0l0,-1.041l1.762,0l0,-1.328l-1.762,0l0,-1.008l1.865,0l0,-1.328l-3.433,0Zm17.135,0l0,6.033l1.568,0l0,-3.689l2.898,3.689l1.561,0l0,-6.033l-1.561,0l0,3.689l-2.898,-3.689l-1.568,0Zm9.027,0l-2.297,6.033l1.674,0l0.359,-1.047l2.24,0l0.362,1.047l1.672,0l-2.297,-6.033l-1.713,0Zm4.699,0l0,6.033l1.569,0l0,-3.689l2.896,3.689l1.561,0l0,-6.033l-1.561,0l0,3.689l-2.896,-3.689l-1.569,0Zm12.709,0l0,6.033l3.434,0l0,-1.328l-1.865,0l0,-1.041l1.759,0l0,-1.328l-1.759,0l0,-1.008l1.865,0l0,-1.328l-3.434,0Zm-47.676,1.207l0.295,0c0.308,0 0.549,0.065 0.713,0.193c0.164,0.128 0.248,0.311 0.248,0.551c0,0.24 -0.084,0.425 -0.248,0.553c-0.164,0.128 -0.405,0.193 -0.713,0.193l-0.295,0l0,-1.49Zm16.902,0.144c0.228,0 0.448,0.041 0.653,0.125c0.204,0.084 0.388,0.2 0.544,0.348c0.157,0.148 0.28,0.323 0.372,0.527c0.092,0.205 0.136,0.424 0.136,0.665c0,0.24 -0.044,0.462 -0.136,0.666c-0.092,0.204 -0.215,0.379 -0.372,0.527c-0.156,0.148 -0.34,0.264 -0.544,0.348c-0.205,0.084 -0.425,0.125 -0.653,0.125c-0.228,0 -0.448,-0.041 -0.652,-0.125c-0.204,-0.084 -0.383,-0.2 -0.539,-0.348c-0.156,-0.148 -0.277,-0.323 -0.369,-0.527c-0.092,-0.204 -0.137,-0.426 -0.137,-0.666c0,-0.241 0.045,-0.46 0.137,-0.665c0.092,-0.204 0.213,-0.379 0.369,-0.527c0.156,-0.148 0.335,-0.264 0.539,-0.348c0.204,-0.084 0.424,-0.125 0.652,-0.125Zm14.223,0.432l0.703,2.01l-1.408,0l0.705,-2.01Z" style="fill:#eeeeee;fill-rule:nonzero;"/>
    <path d="M116.94,136.17c-0.332,0.006 -0.596,0.279 -0.59,0.611l0,1.409c-2.52,0.129 -5.006,1.042 -7.047,2.755c-4.419,3.708 -5.55,10.112 -2.668,15.105l0.301,0.52l10.035,-5.793l10.035,5.793l0.301,-0.52c2.882,-4.993 1.752,-11.398 -2.668,-15.105c-2.052,-1.722 -4.555,-2.636 -7.09,-2.757l0,-1.411c0,-0.338 -0.271,-0.612 -0.609,-0.607l0,0Zm-0.586,3.219l0.019,10.35l-8.902,5.14c-2.21,-4.402 -1.209,-9.813 2.605,-13.014c1.819,-1.527 4.032,-2.348 6.278,-2.476l0,0Zm1.199,0c2.26,0.121 4.488,0.94 6.317,2.476c3.815,3.201 4.813,8.612 2.603,13.014l-8.902,-5.14l-0.018,-10.35Zm7.933,17.562l0.01,1.582l-1.606,0.008c-0.831,-0.028 -0.825,1.235 0.01,1.199l1.606,-0.008l0.01,1.629c-0.026,0.831 1.236,0.822 1.199,-0.008l-0.01,-1.625l1.603,-0.008c0.801,-0.004 0.795,-1.205 -0.01,-1.201l-1.605,0.008l-0.01,-1.584c0,-0.771 -1.197,-0.756 -1.197,0.008l0,0Zm-15.172,1.445l-4.415,0.02c-0.8,0.004 -0.794,1.205 0.01,1.201l4.415,-0.022c0.83,0.028 0.824,-1.235 -0.01,-1.199Z" style="fill:#eeeeee;fill-rule:nonzero;"/>
    <path d="M55.171,52.514c-7.925,0 -15.848,2.688 -22.258,8.065c-12.82,10.758 -16.096,29.349 -7.73,43.842c0.107,0.185 0.305,0.299 0.519,0.299c0.329,0 0.6,-0.271 0.6,-0.6c0,-0.106 -0.027,-0.21 -0.08,-0.301c-8.076,-13.991 -4.913,-31.935 7.463,-42.32c12.375,-10.379 30.599,-10.379 42.975,0c12.375,10.386 15.537,28.329 7.46,42.32c-0.053,0.091 -0.08,0.195 -0.08,0.301c0,0.329 0.271,0.6 0.6,0.6c0.214,0 0.412,-0.114 0.52,-0.299c8.365,-14.493 5.09,-33.083 -7.729,-43.842c-6.41,-5.377 -14.335,-8.065 -22.26,-8.065Zm-29.098,56.055c-2.371,0 -4.307,1.936 -4.307,4.307c0,2.371 1.936,4.304 4.307,4.304c2.371,0 4.307,-1.933 4.307,-4.304c0,-2.371 -1.936,-4.307 -4.307,-4.307Zm58.779,0.1c-2.317,0 -4.207,1.89 -4.207,4.207c0,2.317 1.89,4.205 4.207,4.205c2.317,0 4.205,-1.888 4.205,-4.205c0,-2.317 -1.888,-4.207 -4.205,-4.207Zm-58.779,1.099c1.723,0 3.106,1.385 3.106,3.108c0,1.722 -1.383,3.105 -3.106,3.105c-1.722,0 -3.105,-1.383 -3.105,-3.105c0,-1.723 1.383,-3.108 3.105,-3.108Z" style="fill:#eeeeee;"/>
    <path d="M42.546,120.98c-0.42,0 -0.825,0.08 -1.209,0.236c-0.384,0.156 -0.72,0.376 -1.012,0.657c-0.292,0.28 -0.525,0.611 -0.697,1c-0.172,0.388 -0.26,0.813 -0.26,1.277c0,0.464 0.088,0.891 0.264,1.283c0.176,0.392 0.409,0.734 0.701,1.018c0.292,0.284 0.628,0.508 1.008,0.664c0.38,0.156 0.781,0.236 1.197,0.236c0.204,0 0.407,-0.02 0.615,-0.06c0.209,-0.04 0.434,-0.104 0.674,-0.188l0.16,-0.056l0,-1.858c-0.4,0.428 -0.853,0.641 -1.353,0.641c-0.228,0 -0.445,-0.045 -0.641,-0.129c-0.196,-0.084 -0.367,-0.204 -0.515,-0.352c-0.148,-0.148 -0.26,-0.323 -0.344,-0.527c-0.084,-0.204 -0.125,-0.424 -0.125,-0.664c0,-0.236 0.041,-0.452 0.125,-0.656c0.084,-0.204 0.196,-0.378 0.34,-0.526c0.144,-0.148 0.315,-0.263 0.515,-0.347c0.2,-0.084 0.417,-0.129 0.653,-0.129c0.532,0 0.981,0.222 1.345,0.666l0,-1.873c-0.256,-0.108 -0.5,-0.185 -0.732,-0.237c-0.232,-0.052 -0.469,-0.076 -0.709,-0.076l0,0Zm16.238,0c-0.492,0 -0.939,0.08 -1.348,0.244c-0.408,0.164 -0.76,0.388 -1.052,0.676c-0.292,0.288 -0.524,0.623 -0.688,1.012c-0.164,0.388 -0.248,0.805 -0.248,1.254c0,0.448 0.084,0.863 0.248,1.252c0.164,0.388 0.395,0.723 0.688,1.011c0.292,0.288 0.644,0.514 1.052,0.678c0.408,0.164 0.856,0.244 1.348,0.244c0.484,0 0.934,-0.08 1.346,-0.244c0.412,-0.164 0.764,-0.39 1.06,-0.678c0.296,-0.288 0.528,-0.623 0.692,-1.011c0.164,-0.389 0.248,-0.804 0.248,-1.252c0,-0.449 -0.084,-0.866 -0.248,-1.254c-0.164,-0.389 -0.396,-0.724 -0.692,-1.012c-0.296,-0.288 -0.648,-0.512 -1.06,-0.676c-0.412,-0.164 -0.862,-0.244 -1.346,-0.244Zm-13.805,0.168l0,3.498c0,0.94 0.216,1.624 0.648,2.057c0.433,0.432 1.092,0.648 1.985,0.648c0.892,0 1.552,-0.216 1.98,-0.648c0.429,-0.433 0.645,-1.117 0.645,-2.057l0,-3.498l-1.561,0l0,3.281c0,0.176 -0.007,0.357 -0.019,0.541c-0.012,0.184 -0.057,0.352 -0.125,0.5c-0.068,0.148 -0.177,0.271 -0.317,0.363c-0.14,0.093 -0.343,0.141 -0.603,0.141c-0.26,0 -0.465,-0.049 -0.609,-0.141c-0.145,-0.092 -0.247,-0.215 -0.315,-0.363c-0.068,-0.148 -0.109,-0.316 -0.121,-0.5c-0.012,-0.184 -0.02,-0.365 -0.02,-0.541l0,-3.281l-1.568,0Zm5.953,0l0,1.328l1.289,0l0,4.707l1.569,0l0,-4.707l1.289,0l0,-1.328l-4.147,0Zm12.189,0l0,6.035l1.568,0l0,-2.369l1.721,0l0,-1.33l-1.721,0l0,-1.008l1.889,0l0,-1.328l-3.457,0Zm4.395,0l0,6.035l1.568,0l0,-2.369l1.721,0l0,-1.33l-1.721,0l0,-1.008l1.889,0l0,-1.328l-3.457,0Zm-8.733,1.352c0.228,0 0.448,0.041 0.653,0.125c0.204,0.084 0.388,0.199 0.544,0.347c0.157,0.148 0.28,0.325 0.372,0.53c0.092,0.204 0.136,0.423 0.136,0.664c0,0.24 -0.044,0.46 -0.136,0.664c-0.092,0.204 -0.215,0.379 -0.372,0.527c-0.156,0.148 -0.34,0.266 -0.544,0.35c-0.205,0.084 -0.425,0.123 -0.653,0.123c-0.228,0 -0.448,-0.039 -0.652,-0.123c-0.204,-0.084 -0.383,-0.202 -0.539,-0.35c-0.156,-0.148 -0.277,-0.323 -0.369,-0.527c-0.092,-0.204 -0.135,-0.424 -0.135,-0.664c0,-0.241 0.043,-0.46 0.135,-0.664c0.092,-0.205 0.213,-0.382 0.369,-0.53c0.156,-0.148 0.335,-0.263 0.539,-0.347c0.204,-0.085 0.424,-0.125 0.652,-0.125Z" style="fill:#eeeeee;fill-rule:nonzero;"/>
    <path d="M116.94,57.946c-0.332,0.006 -0.596,0.279 -0.59,0.611l0,1.409c-2.52,0.129 -5.006,1.042 -7.047,2.755c-4.419,3.708 -5.55,10.112 -2.668,15.105l0.301,0.52l10.035,-5.793l10.035,5.793l0.301,-0.52c2.882,-4.993 1.752,-11.398 -2.668,-15.105c-2.052,-1.722 -4.555,-2.636 -7.09,-2.757l0,-1.411c0,-0.338 -0.271,-0.612 -0.609,-0.607l0,0Zm-0.586,3.219l0.019,10.35l-8.902,5.14c-2.21,-4.402 -1.209,-9.813 2.605,-13.014c1.819,-1.527 4.032,-2.348 6.278,-2.476l0,0Zm1.199,0c2.26,0.121 4.488,0.94 6.317,2.476c3.815,3.201 4.813,8.612 2.603,13.014l-8.902,-5.14l-0.018,-10.35Zm7.933,17.562l0.01,1.582l-1.606,0.008c-0.831,-0.028 -0.825,1.235 0.01,1.199l1.606,-0.008l0.01,1.629c-0.026,0.831 1.236,0.822 1.199,-0.008l-0.01,-1.625l1.603,-0.008c0.801,-0.004 0.795,-1.205 -0.01,-1.201l-1.605,0.008l-0.01,-1.584c0,-0.771 -1.197,-0.756 -1.197,0.008l0,0Zm-15.172,1.445l-4.415,0.02c-0.8,0.004 -0.794,1.205 0.01,1.201l4.415,-0.022c0.83,0.028 0.824,-1.235 -0.01,-1.199Z" style="fill:#eeeeee;fill-rule:nonzero;"/>
    <g>
      <path d="M62.9,363.496l3.443,10.383c0.322,0.968 0.909,1.451 1.756,1.451c0.835,0 1.414,-0.476 1.737,-1.435l3.46,-10.398l-2.66,0l-2.574,8.318l-2.49,-8.318l-2.672,-0.001Zm10.598,0l0,8.793c0,0.736 0.078,1.265 0.234,1.588c0.423,0.881 1.214,1.32 2.373,1.32l3.243,0c1.126,0 1.912,-0.429 2.357,-1.287c0.168,-0.324 0.25,-0.87 0.25,-1.639l0,-8.775l-2.506,0l0,8.658l-0.018,0.084c-0.056,0.29 -0.34,0.436 -0.853,0.436l-1.705,0c-0.535,0 -0.826,-0.157 -0.87,-0.469l0,-8.709l-2.505,0Zm9.611,0l0,8.842c0,0.914 0.19,1.598 0.569,2.049c0.378,0.452 1.019,0.717 1.922,0.795c0.123,0.011 0.268,0.015 0.435,0.015l4.664,0l0.016,-2.523l-4.463,0c-0.424,0 -0.634,-0.178 -0.634,-0.535l0,-8.643l-2.509,0Zm7.69,0l0,2.525l2.49,0l0,9.176l2.508,0l0,-9.176l2.523,0l0,-2.525l-7.521,0Z" style="fill:rgb(102,102,102);fill-rule:nonzero;"/>
      <path d="M59.3,369.416c0,-4.509 -3.655,-8.165 -8.164,-8.165c-4.509,0 -8.165,3.656 -8.165,8.165c0,4.509 3.656,8.165 8.165,8.165c4.509,0 8.164,-3.656 8.164,-8.165Z" style="fill:rgb(117,117,117);fill-rule:nonzero;stroke:rgb(53,53,53);stroke-width:0.61px;"/>
      <g>
        <path d="M49.32,374.389l0.553,-0.89l-1.064,-2.393l-2.216,-2.284l0.46,3.101l0.597,1.28l0.833,1.263l0.837,-0.077Z" style="fill:rgb(43,43,43);fill-rule:nonzero;"/>
        <path d="M53.05,374.399l-0.553,-0.891l1.064,-2.393l2.216,-2.284l-0.46,3.101l-0.597,1.28l-0.833,1.264l-0.837,-0.077Z" style="fill:#202020;fill-rule:nonzero;"/>
        <path d="M48.64,363.359l2.584,-0.661l0,13.448l-1.349,-2.651l-1.061,-2.385l-1.022,-0.581l-2.052,-2.921l-0.057,-0.775l1.148,-2.067l1.809,-1.407Z" style="fill:rgb(66,66,66);fill-rule:nonzero;"/>
        <path d="M53.8,363.359l-2.584,-0.66l0,13.448l1.35,-2.651l1.06,-2.385l1.023,-0.581l2.051,-2.921l0.058,-0.775l-1.149,-2.068l-1.809,-1.407Z" style="fill:rgb(51,51,51);fill-rule:nonzero;"/>
        <path d="M49.5,369.239l1.723,-1.685l0,1.23l-1.723,1.718l0,-1.263" style="fill:rgb(76,76,76);fill-rule:nonzero;"/>
        <path d="M51.22,368.779l-1.723,1.718l0.377,3.004l1.346,2.643l0,-7.365Z" style="fill:rgb(91,91,91);fill-rule:nonzero;"/>
        <path d="M51.22,376.149l-1.346,-2.643l1.346,-0.635l0,3.278Z" style="fill:rgb(51,51,51);fill-rule:nonzero;"/>
        <path d="M49.5,370.499l0,-1.264l-1.249,-1.579l-1.477,-1.19l-0.001,0.932l0.775,1.823l1.952,1.278Z" style="fill:#eeeeee;fill-rule:nonzero;"/>
        <path d="M52.94,369.239l-1.722,-1.684l0,1.23l1.722,1.718l0,-1.264" style="fill:rgb(45,45,45);fill-rule:nonzero;"/>
        <path d="M51.22,368.779l1.722,1.718l-0.376,3.004l-1.347,2.643l0.001,-7.365Z" style="fill:rgb(53,53,53);fill-rule:nonzero;"/>
        <path d="M51.22,376.149l1.347,-2.643l-1.346,-0.635l-0.001,3.278Z" style="fill:#202020;fill-rule:nonzero;"/>
        <path d="M52.94,370.499l0,-1.264l1.249,-1.579l1.478,-1.19l0.001,0.932l-0.775,1.823l-1.953,1.278Z" style="fill:#eeeeee;fill-rule:nonzero;"/>
        <path d="M48.65,363.339l2.566,4.216l-0.005,-4.87" style="fill:rgb(56,56,56);fill-rule:nonzero;"/>
        <path d="M53.78,363.339l-2.566,4.215l0.006,-4.87" style="fill:rgb(45,45,45);fill-rule:nonzero;"/>
        <path d="M48.81,371.109l0.688,-0.61l0.375,3.006l-1.063,-2.396Z" style="fill:rgb(51,51,51);fill-rule:nonzero;"/>
        <path d="M53.63,371.129l-0.688,-0.61l-0.375,3.006l1.063,-2.396Z" style="fill:rgb(28,28,28);fill-rule:nonzero;"/>
      </g>
    </g>
    <path d="M15.08,277.44c-5.359,0 -9.723,4.362 -9.723,9.721l0,20.43c0,5.36 4.364,9.722 9.723,9.722l119.84,0c5.36,0 9.723,-4.363 9.723,-9.722l0,-20.43c0,-5.359 -4.363,-9.721 -9.723,-9.721l-119.84,0Z" style="fill:none;stroke:#eeeeee;stroke-width:1.2px;stroke-miterlimit:1.5;"/>
    <path d="M64.342,267.41c-0.492,0 -0.939,0.08 -1.348,0.244c-0.408,0.164 -0.76,0.39 -1.052,0.678c-0.292,0.288 -0.526,0.623 -0.69,1.012c-0.164,0.388 -0.248,0.803 -0.248,1.252c0,0.448 0.084,0.863 0.248,1.252c0.164,0.388 0.397,0.725 0.69,1.013c0.292,0.288 0.644,0.512 1.052,0.676c0.408,0.164 0.856,0.244 1.348,0.244c0.484,0 0.934,-0.08 1.346,-0.244c0.412,-0.164 0.764,-0.388 1.06,-0.676c0.296,-0.288 0.528,-0.625 0.692,-1.013c0.164,-0.389 0.248,-0.804 0.248,-1.252c0,-0.449 -0.084,-0.864 -0.248,-1.252c-0.164,-0.389 -0.396,-0.724 -0.692,-1.012c-0.296,-0.288 -0.648,-0.514 -1.06,-0.678c-0.412,-0.164 -0.862,-0.244 -1.346,-0.244Zm4.338,0.168l0,3.498c0,0.94 0.216,1.624 0.648,2.057c0.433,0.432 1.092,0.648 1.985,0.648c0.892,0 1.552,-0.216 1.98,-0.648c0.428,-0.433 0.645,-1.117 0.645,-2.057l0,-3.498l-1.561,0l0,3.281c0,0.176 -0.007,0.357 -0.019,0.541c-0.012,0.184 -0.055,0.352 -0.123,0.5c-0.068,0.148 -0.177,0.273 -0.317,0.365c-0.14,0.093 -0.345,0.139 -0.605,0.139c-0.26,0 -0.464,-0.047 -0.608,-0.139c-0.144,-0.092 -0.248,-0.217 -0.316,-0.365c-0.068,-0.148 -0.107,-0.316 -0.119,-0.5c-0.012,-0.184 -0.022,-0.365 -0.022,-0.541l0,-3.281l-1.568,0Zm5.955,0l0,1.33l1.289,0l0,4.705l1.569,0l0,-4.705l1.287,0l0,-1.33l-4.145,0Zm4.842,0l0,6.035l1.568,0l0,-2l0.928,0c0.676,0 1.196,-0.177 1.557,-0.529c0.36,-0.352 0.541,-0.848 0.541,-1.488c0,-0.641 -0.181,-1.137 -0.541,-1.489c-0.361,-0.352 -0.881,-0.529 -1.557,-0.529l-2.496,0Zm5.426,0l0,3.498c0,0.94 0.216,1.624 0.648,2.057c0.432,0.432 1.092,0.648 1.984,0.648c0.893,0 1.553,-0.216 1.981,-0.648c0.428,-0.433 0.644,-1.117 0.644,-2.057l0,-3.498l-1.56,0l0,3.281c0,0.176 -0.008,0.357 -0.02,0.541c-0.012,0.184 -0.055,0.352 -0.123,0.5c-0.068,0.148 -0.176,0.273 -0.316,0.365c-0.14,0.093 -0.345,0.139 -0.605,0.139c-0.261,0 -0.464,-0.047 -0.608,-0.139c-0.144,-0.092 -0.248,-0.217 -0.316,-0.365c-0.068,-0.148 -0.107,-0.316 -0.119,-0.5c-0.012,-0.184 -0.022,-0.365 -0.022,-0.541l0,-3.281l-1.568,0Zm5.955,0l0,1.33l1.289,0l0,4.705l1.568,0l0,-4.705l1.287,0l0,-1.33l-4.144,0Zm-9.813,1.266l0.52,0c0.576,0 0.865,0.251 0.865,0.752c0,0.5 -0.289,0.751 -0.865,0.751l-0.52,0l0,-1.503Zm-16.703,0.087c0.228,0 0.448,0.039 0.653,0.124c0.204,0.084 0.388,0.201 0.544,0.349c0.157,0.148 0.28,0.323 0.372,0.527c0.092,0.205 0.136,0.424 0.136,0.665c0,0.24 -0.044,0.46 -0.136,0.664c-0.092,0.204 -0.215,0.381 -0.372,0.529c-0.156,0.148 -0.34,0.264 -0.544,0.348c-0.205,0.084 -0.425,0.125 -0.653,0.125c-0.228,0 -0.448,-0.041 -0.652,-0.125c-0.204,-0.084 -0.383,-0.2 -0.539,-0.348c-0.156,-0.148 -0.277,-0.325 -0.369,-0.529c-0.092,-0.204 -0.137,-0.424 -0.137,-0.664c0,-0.241 0.045,-0.46 0.137,-0.665c0.092,-0.204 0.213,-0.379 0.369,-0.527c0.156,-0.148 0.335,-0.265 0.539,-0.349c0.204,-0.084 0.424,-0.124 0.652,-0.124Z" style="fill:#eeeeee;fill-rule:nonzero;"/>
    <path d="M104.16,353.61l0,6.035l1.568,0l0,-6.035l-1.568,0Zm2.832,0l0,6.035l1.57,0l0,-3.691l2.897,3.691l1.56,0l0,-6.035l-1.56,0l0,3.689l-2.897,-3.689l-1.57,0Zm7.291,0l0,6.035l1.57,0l0,-2.002l0.928,0c0.676,0 1.197,-0.175 1.557,-0.527c0.36,-0.352 0.541,-0.848 0.541,-1.488c0,-0.64 -0.181,-1.137 -0.541,-1.489c-0.36,-0.353 -0.881,-0.529 -1.557,-0.529l-2.498,0l0,0Zm5.428,0l0,3.498c0,0.94 0.216,1.624 0.648,2.057c0.432,0.432 1.092,0.648 1.985,0.648c0.892,0 1.551,-0.216 1.98,-0.648c0.428,-0.433 0.645,-1.117 0.645,-2.057l0,-3.498l-1.561,0l0,3.281c0,0.176 -0.008,0.357 -0.02,0.541c-0.012,0.184 -0.057,0.352 -0.125,0.5c-0.068,0.148 -0.176,0.271 -0.316,0.363c-0.14,0.092 -0.343,0.141 -0.603,0.141c-0.26,0 -0.464,-0.049 -0.608,-0.141c-0.145,-0.092 -0.248,-0.215 -0.316,-0.363c-0.068,-0.148 -0.109,-0.316 -0.121,-0.5c-0.012,-0.184 -0.02,-0.365 -0.02,-0.541l0,-3.281l-1.568,0l0,0Zm5.955,0l0,1.328l1.287,0l0,4.707l1.568,0l0,-4.707l1.289,0l0,-1.328l-4.144,0l0,0Zm-9.813,1.266l0.52,0c0.577,0 0.865,0.252 0.865,0.752c0,0.5 -0.288,0.751 -0.865,0.751l-0.52,0l0,-1.503Z" style="fill:#eeeeee;"/>
    <path d="M108.35,17.445c-0.504,0 -0.957,0.076 -1.365,0.227c-0.406,0.152 -0.749,0.362 -1.032,0.634c-0.28,0.273 -0.498,0.6 -0.652,0.983c-0.156,0.381 -0.234,0.807 -0.234,1.277c0,0.469 0.073,0.855 0.219,1.162c0.147,0.306 0.34,0.559 0.58,0.762c0.238,0.201 0.512,0.363 0.818,0.484c0.305,0.123 0.617,0.233 0.936,0.334c0.269,0.092 0.498,0.175 0.687,0.25c0.189,0.076 0.342,0.157 0.459,0.246c0.117,0.088 0.201,0.184 0.252,0.289c0.049,0.105 0.074,0.229 0.074,0.371c0,0.236 -0.098,0.444 -0.295,0.629c-0.197,0.184 -0.498,0.276 -0.9,0.276c-0.352,0 -0.709,-0.077 -1.07,-0.237c-0.361,-0.16 -0.723,-0.402 -1.094,-0.73l-1.057,1.988c1.023,0.713 2.135,1.069 3.334,1.069c0.578,0 1.096,-0.079 1.553,-0.233c0.458,-0.156 0.844,-0.373 1.158,-0.654c0.315,-0.28 0.554,-0.619 0.717,-1.014c0.163,-0.394 0.246,-0.832 0.246,-1.32c0,-0.721 -0.188,-1.305 -0.561,-1.754c-0.374,-0.449 -0.961,-0.807 -1.765,-1.076c-0.203,-0.067 -0.407,-0.129 -0.612,-0.188c-0.207,-0.059 -0.39,-0.129 -0.554,-0.209c-0.163,-0.08 -0.294,-0.173 -0.395,-0.283c-0.1,-0.109 -0.152,-0.246 -0.152,-0.414c0,-0.244 0.102,-0.442 0.303,-0.592c0.201,-0.152 0.46,-0.226 0.779,-0.226c0.251,0 0.512,0.052 0.781,0.158c0.268,0.103 0.537,0.265 0.805,0.482l0.98,-1.923c-0.47,-0.251 -0.96,-0.444 -1.472,-0.573c-0.511,-0.13 -1.001,-0.195 -1.471,-0.195l0,0Zm-69.668,0.266l0,9.484l5.422,0l0,-2.09l-2.955,0l0,-7.394l-2.467,0l0,0Zm9.787,0l-3.609,9.484l2.629,0l0.566,-1.648l3.522,0l0.566,1.648l2.629,0l-3.611,-9.484l-2.692,0l0,0Zm6.076,0l0,2.086l2.026,0l0,7.398l2.466,0l0,-7.398l2.026,0l0,-2.086l-6.518,0Zm7.612,0l0,9.484l5.396,0l0,-2.09l-2.93,0l0,-1.635l2.766,0l0,-2.087l-2.766,0l0,-1.586l2.93,0l0,-2.086l-5.396,0l0,0Zm7.169,0l0,9.484l2.467,0l0,-3.648l2.352,3.648l3.07,0l-2.982,-3.887c0.68,-0.159 1.193,-0.463 1.541,-0.912c0.348,-0.449 0.523,-1.035 0.523,-1.756c0,-0.403 -0.064,-0.779 -0.195,-1.132c-0.13,-0.351 -0.322,-0.663 -0.578,-0.932c-0.257,-0.267 -0.582,-0.479 -0.975,-0.635c-0.394,-0.154 -0.857,-0.23 -1.385,-0.23l-3.838,0l0,0Zm11.625,0l-3.611,9.484l2.629,0l0.567,-1.648l3.523,0l0.564,1.648l2.631,0l-3.611,-9.484l-2.691,0l-0.001,0Zm7.385,0l0,9.484l5.422,0l0,-2.09l-2.957,0l0,-7.394l-2.465,0l0,0Zm6.516,0l0,5.496c0,1.476 0.34,2.552 1.019,3.232c0.679,0.679 1.718,1.02 3.119,1.02c1.401,0 2.439,-0.341 3.114,-1.02c0.674,-0.68 1.011,-1.756 1.011,-3.232l0,-5.496l-2.453,0l0,5.156c0,0.278 -0.009,0.56 -0.029,0.849c-0.021,0.29 -0.086,0.552 -0.195,0.788c-0.11,0.235 -0.276,0.424 -0.498,0.572c-0.223,0.146 -0.537,0.221 -0.949,0.221c-0.411,0 -0.732,-0.075 -0.958,-0.221c-0.227,-0.148 -0.391,-0.337 -0.496,-0.572c-0.105,-0.236 -0.168,-0.498 -0.189,-0.788c-0.02,-0.289 -0.031,-0.571 -0.031,-0.849l0,-5.156l-2.465,0Zm-23.059,1.898l0.467,0c0.486,0 0.858,0.1 1.117,0.301c0.26,0.202 0.391,0.492 0.391,0.869c0,0.377 -0.131,0.666 -0.391,0.867c-0.259,0.202 -0.631,0.301 -1.117,0.301l-0.467,0l0,-2.338l0,0Zm-21.977,0.906l1.107,3.156l-2.215,0l1.108,-3.156Zm32.48,0l1.107,3.156l-2.215,0l1.108,-3.156Zm15.729,10.576c-0.565,0 -1.001,0.173 -1.307,0.518c-0.305,0.347 -0.459,0.841 -0.459,1.484l0,0.354l-0.703,0l0,0.861l0.703,0l0,4.25l1.379,0l0,-4.25l1.84,0l0,4.25l1.377,0l0,-5.111l-3.217,0l0,-0.317c0,-0.776 0.213,-1.164 0.637,-1.164c0.187,0 0.473,0.085 0.857,0.256l0,-0.941c-0.391,-0.127 -0.759,-0.19 -1.107,-0.19l0,0Zm-63.65,0.116l0,2.757c-0.437,-0.422 -0.922,-0.634 -1.455,-0.634c-0.669,0 -1.201,0.254 -1.596,0.763c-0.396,0.51 -0.594,1.192 -0.594,2.049c0,0.788 0.176,1.407 0.526,1.857c0.351,0.45 0.832,0.676 1.447,0.676c0.76,0 1.319,-0.36 1.672,-1.08l0,0.963l1.383,0l0,-7.352l-1.383,0l0,0.001Zm15.508,0l0,2.757c-0.438,-0.422 -0.923,-0.634 -1.457,-0.634c-0.667,0 -1.2,0.254 -1.596,0.763c-0.396,0.51 -0.592,1.192 -0.592,2.049c0,0.788 0.176,1.407 0.526,1.857c0.352,0.45 0.833,0.676 1.447,0.676c0.761,0 1.317,-0.36 1.672,-1.08l0,0.963l1.383,0l0,-7.352l-1.383,0l0,0.001Zm11.83,0l0,7.351l1.379,0l0,-7.351l-1.379,0Zm11.922,0l0,2.757c-0.438,-0.422 -0.924,-0.634 -1.457,-0.634c-0.667,0 -1.2,0.254 -1.596,0.763c-0.396,0.51 -0.594,1.192 -0.594,2.049c0,0.788 0.178,1.407 0.528,1.857c0.352,0.45 0.834,0.676 1.449,0.676c0.76,0 1.316,-0.36 1.67,-1.08l0,0.963l1.383,0l0,-7.352l-1.383,0l0,0.001Zm6.316,0l0,2.757c-0.437,-0.422 -0.923,-0.634 -1.457,-0.634c-0.667,0 -1.198,0.254 -1.594,0.763c-0.396,0.51 -0.593,1.192 -0.593,2.049c0,0.788 0.175,1.407 0.525,1.857c0.351,0.45 0.833,0.676 1.449,0.676c0.76,0 1.317,-0.36 1.67,-1.08l0,0.963l1.385,0l0,-7.352l-1.385,0l0,0.001Zm22.627,0l0,7.351l1.379,0l0,-7.351l-1.379,0Zm-65.104,0.228l0,1.152l1.379,0l0,-1.152l-1.379,0Zm62.23,0l0,1.152l1.151,0l0,-1.152l-1.151,0Zm7.416,0.992l-1.377,0.16l0,0.86l-0.572,0l0,0.861l0.572,0l0,2.691c0,1.117 0.596,1.676 1.791,1.676c0.19,0 0.45,-0.049 0.78,-0.144l0,-0.838c-0.165,0.043 -0.306,0.066 -0.424,0.066c-0.512,0 -0.77,-0.315 -0.77,-0.943l0,-2.508l1.096,0l0,-0.861l-1.096,0l0,-1.02l0,0Zm-64.365,0.903c-0.814,0 -1.457,0.24 -1.931,0.718c-0.473,0.478 -0.709,1.129 -0.709,1.955c0,0.817 0.234,1.466 0.705,1.948c0.47,0.483 1.103,0.724 1.902,0.724c0.834,0 1.49,-0.238 1.965,-0.713c0.475,-0.474 0.711,-1.13 0.711,-1.968c0,-0.82 -0.236,-1.468 -0.709,-1.946c-0.473,-0.478 -1.118,-0.718 -1.934,-0.718l0,0Zm12.234,0c-0.743,0 -1.339,0.241 -1.791,0.724c-0.451,0.483 -0.675,1.12 -0.675,1.912c0,0.838 0.246,1.499 0.74,1.983c0.493,0.484 1.166,0.726 2.019,0.726c0.586,0 1.207,-0.097 1.862,-0.289l0,-0.967c-0.58,0.214 -1.103,0.321 -1.565,0.321c-0.978,0 -1.513,-0.487 -1.605,-1.463l3.169,0c0,-1.02 -0.171,-1.768 -0.515,-2.24c-0.346,-0.471 -0.891,-0.707 -1.639,-0.707l0,0Zm11.643,0c-0.611,0 -1.229,0.118 -1.853,0.355l0,0.949c0.55,-0.304 1.094,-0.457 1.631,-0.457c0.605,0 0.908,0.267 0.908,0.797l0,0.465l-0.369,0c-0.841,0 -1.487,0.153 -1.938,0.459c-0.452,0.306 -0.679,0.741 -0.679,1.305c0,0.435 0.141,0.789 0.421,1.062c0.279,0.273 0.641,0.41 1.088,0.41c0.524,0 1.017,-0.223 1.477,-0.666l0.06,0c0.161,0.443 0.524,0.666 1.09,0.666c0.223,0 0.479,-0.044 0.772,-0.131l-0.033,-0.773c-0.075,0.013 -0.136,0.018 -0.182,0.018c-0.258,0 -0.387,-0.2 -0.387,-0.6l0,-2.262c0,-1.065 -0.668,-1.597 -2.006,-1.597l0,0Zm18.428,0c-0.742,0 -1.339,0.241 -1.791,0.724c-0.451,0.483 -0.677,1.12 -0.677,1.912c0,0.838 0.246,1.499 0.74,1.983c0.494,0.484 1.168,0.726 2.021,0.726c0.587,0 1.207,-0.097 1.862,-0.289l0,-0.967c-0.581,0.214 -1.103,0.321 -1.565,0.321c-0.978,0 -1.511,-0.487 -1.605,-1.463l3.169,0c0,-1.02 -0.171,-1.768 -0.515,-2.24c-0.345,-0.471 -0.892,-0.707 -1.639,-0.707l0,0Zm6.586,0c-0.729,0 -1.272,0.36 -1.629,1.08l0,-0.963l-1.379,0l0,5.111l1.379,0l0,-3.244c0.344,-0.555 0.791,-0.834 1.34,-0.834c0.168,0 0.351,0.036 0.547,0.107l0,-1.23c-0.085,-0.018 -0.171,-0.027 -0.258,-0.027l0,0Zm19.902,0c-0.741,0 -1.338,0.241 -1.789,0.724c-0.452,0.483 -0.678,1.12 -0.678,1.912c0,0.838 0.248,1.499 0.741,1.983c0.494,0.484 1.166,0.726 2.019,0.726c0.587,0 1.208,-0.097 1.863,-0.289l0,-0.967c-0.58,0.214 -1.102,0.321 -1.564,0.321c-0.978,0 -1.513,-0.487 -1.606,-1.463l3.17,0c0,-1.02 -0.173,-1.768 -0.517,-2.24c-0.344,-0.471 -0.89,-0.707 -1.639,-0.707l0,0Zm6.588,0c-0.73,0 -1.272,0.36 -1.629,1.08l0,-0.963l-1.377,0l0,5.111l1.377,0l0,-3.244c0.344,-0.555 0.791,-0.834 1.34,-0.834c0.168,0 0.349,0.036 0.545,0.107l0,-1.23c-0.084,-0.018 -0.169,-0.027 -0.256,-0.027l0,0Zm-80.662,0.117l0,5.111l1.379,0l0,-5.111l-1.379,0Zm5.281,0.746c0.365,0 0.653,0.161 0.862,0.484c0.21,0.323 0.316,0.761 0.316,1.317c0,1.213 -0.396,1.82 -1.187,1.82c-0.36,0 -0.644,-0.162 -0.852,-0.488c-0.208,-0.326 -0.313,-0.767 -0.313,-1.323c0,-0.562 0.105,-1.003 0.315,-1.326c0.209,-0.323 0.495,-0.484 0.859,-0.484l0,0Zm12.191,0c0.561,0 0.842,0.434 0.842,1.306l-1.834,0c0.09,-0.872 0.421,-1.306 0.992,-1.306l0,0Zm30.07,0c0.563,0 0.842,0.434 0.842,1.306l-1.834,0c0.09,-0.872 0.422,-1.306 0.992,-1.306l0,0Zm26.49,0c0.561,0 0.842,0.434 0.842,1.306l-1.834,0c0.09,-0.872 0.42,-1.306 0.992,-1.306l0,0Zm-78.199,0.031c0.379,0 0.735,0.186 1.067,0.559l0,2.025c-0.372,0.524 -0.764,0.787 -1.174,0.787c-0.67,0 -1.006,-0.522 -1.006,-1.568c0,-0.55 0.101,-0.987 0.303,-1.313c0.201,-0.326 0.471,-0.49 0.81,-0.49l0,0Zm15.508,0c0.378,0 0.735,0.186 1.067,0.559l0,2.025c-0.373,0.524 -0.764,0.787 -1.174,0.787c-0.67,0 -1.006,-0.522 -1.006,-1.568c0,-0.55 0.102,-0.987 0.303,-1.313c0.202,-0.326 0.471,-0.49 0.81,-0.49l0,0Zm23.752,0c0.379,0 0.735,0.186 1.067,0.559l0,2.025c-0.372,0.524 -0.764,0.787 -1.174,0.787c-0.67,0 -1.004,-0.522 -1.004,-1.568c0,-0.55 0.1,-0.987 0.301,-1.313c0.203,-0.326 0.473,-0.49 0.81,-0.49l0,0Zm6.319,0c0.379,0 0.733,0.186 1.064,0.559l0,2.025c-0.372,0.524 -0.762,0.787 -1.172,0.787c-0.67,0 -1.006,-0.522 -1.006,-1.568c0,-0.55 0.102,-0.987 0.303,-1.313c0.202,-0.326 0.473,-0.49 0.811,-0.49l0,0Zm-11.895,2.006l0.326,0l0,1.039c-0.339,0.313 -0.669,0.471 -0.992,0.471c-0.19,0 -0.349,-0.066 -0.479,-0.194c-0.128,-0.129 -0.191,-0.288 -0.191,-0.478c0,-0.559 0.444,-0.838 1.336,-0.838l0,0Z" style="fill:#eeeeee;fill-rule:nonzero;"/>
    <path d="M134.48,304.5l0,2.945c-0.336,-0.356 -0.759,-0.535 -1.272,-0.535c-0.304,0 -0.583,0.056 -0.835,0.172c-0.252,0.116 -0.473,0.271 -0.653,0.467c-0.18,0.196 -0.32,0.428 -0.42,0.693c-0.1,0.264 -0.148,0.544 -0.148,0.836c0,0.308 0.052,0.597 0.156,0.865c0.104,0.268 0.248,0.502 0.436,0.698c0.188,0.196 0.404,0.351 0.656,0.463c0.252,0.112 0.524,0.167 0.824,0.167c0.528,0 0.948,-0.196 1.256,-0.584l0,0.458l1.457,0l0,-6.645l-1.457,0Zm-14.725,0.449c-0.34,0 -0.657,0.056 -0.941,0.168c-0.284,0.112 -0.533,0.272 -0.741,0.481c-0.208,0.208 -0.368,0.456 -0.484,0.744c-0.116,0.288 -0.172,0.607 -0.172,0.959l1.713,0c-0.016,-0.112 -0.023,-0.196 -0.023,-0.256c0,-0.208 0.059,-0.38 0.179,-0.52c0.12,-0.14 0.288,-0.207 0.5,-0.207c0.112,0 0.209,0.019 0.293,0.059c0.084,0.04 0.151,0.092 0.211,0.16c0.06,0.068 0.105,0.145 0.133,0.229c0.028,0.084 0.043,0.171 0.043,0.263c0,0.084 -0.011,0.189 -0.039,0.313c-0.028,0.124 -0.097,0.284 -0.205,0.48c-0.108,0.196 -0.276,0.441 -0.5,0.725c-0.224,0.284 -0.532,0.631 -0.928,1.043l-1.496,1.555l4.857,0l0,-1.331l-1.953,0l1.002,-0.935c0.308,-0.292 0.536,-0.579 0.676,-0.859c0.14,-0.281 0.211,-0.586 0.211,-0.918c0,-0.308 -0.06,-0.596 -0.176,-0.86c-0.116,-0.264 -0.28,-0.492 -0.488,-0.685c-0.208,-0.192 -0.455,-0.34 -0.74,-0.448c-0.284,-0.108 -0.596,-0.16 -0.932,-0.16l0,0Zm5.312,0.16l-2.304,3.786l0,1.007l2.914,0l0,1.243l1.457,0l0,-1.243l0.726,0l0,-1.199l-0.726,0l0,-3.594l-2.067,0Zm11.99,0l0,6.036l2.522,0c0.32,0 0.607,-0.038 0.863,-0.114c0.256,-0.076 0.473,-0.188 0.653,-0.336c0.18,-0.148 0.316,-0.332 0.416,-0.552c0.1,-0.22 0.148,-0.468 0.148,-0.752c0,-0.18 -0.02,-0.352 -0.064,-0.512c-0.044,-0.16 -0.111,-0.304 -0.211,-0.432c-0.1,-0.128 -0.229,-0.236 -0.385,-0.324c-0.156,-0.088 -0.348,-0.153 -0.572,-0.197c0.224,-0.14 0.392,-0.308 0.5,-0.508c0.108,-0.2 0.164,-0.452 0.164,-0.756c0,-0.5 -0.144,-0.885 -0.432,-1.154c-0.288,-0.268 -0.71,-0.399 -1.266,-0.399l-2.336,0Zm1.569,1.202l0.289,0c0.492,0 0.734,0.196 0.734,0.584c0,0.388 -0.242,0.584 -0.734,0.584l-0.289,0l0,-1.168Zm-12.949,0.015l0,2.377l-1.385,0l1.385,-2.377Zm7.916,1.832c0.128,0 0.247,0.024 0.363,0.072c0.116,0.048 0.213,0.118 0.297,0.202c0.084,0.084 0.147,0.182 0.199,0.298c0.052,0.116 0.076,0.238 0.076,0.366c0,0.128 -0.024,0.247 -0.076,0.359c-0.052,0.112 -0.115,0.211 -0.199,0.295c-0.084,0.084 -0.181,0.153 -0.297,0.201c-0.116,0.048 -0.235,0.072 -0.363,0.072c-0.132,0 -0.257,-0.024 -0.373,-0.072c-0.116,-0.048 -0.211,-0.117 -0.295,-0.201c-0.084,-0.084 -0.149,-0.183 -0.197,-0.299c-0.048,-0.116 -0.073,-0.241 -0.073,-0.373c0,-0.128 0.025,-0.247 0.077,-0.355c0.052,-0.108 0.117,-0.207 0.201,-0.291c0.084,-0.084 0.179,-0.154 0.295,-0.202c0.116,-0.048 0.237,-0.072 0.365,-0.072Zm5.033,0.488l0.344,0c0.396,0 0.676,0.053 0.848,0.153c0.173,0.1 0.257,0.264 0.257,0.488c0,0.224 -0.084,0.388 -0.257,0.488c-0.172,0.1 -0.452,0.151 -0.848,0.151l-0.344,0l0,-1.28Z" style="fill:#eeeeee;fill-rule:nonzero;"/>
    <path d="M97.353,304.5l0,2.945c-0.336,-0.356 -0.759,-0.535 -1.272,-0.535c-0.304,0 -0.583,0.056 -0.835,0.172c-0.253,0.116 -0.475,0.271 -0.655,0.467c-0.18,0.196 -0.32,0.428 -0.42,0.693c-0.1,0.264 -0.148,0.544 -0.148,0.836c0,0.308 0.052,0.597 0.156,0.865c0.104,0.268 0.25,0.502 0.438,0.698c0.188,0.196 0.404,0.351 0.656,0.463c0.252,0.112 0.524,0.167 0.824,0.167c0.528,0 0.948,-0.196 1.256,-0.584l0,0.458l1.457,0l0,-6.645l-1.457,0Zm-9.107,0.441c-0.304,0 -0.584,0.04 -0.836,0.12c-0.252,0.08 -0.469,0.195 -0.649,0.343c-0.18,0.148 -0.32,0.33 -0.42,0.534c-0.1,0.204 -0.152,0.435 -0.152,0.691c0,0.624 0.315,1.068 0.943,1.328c-0.796,0.305 -1.191,0.823 -1.191,1.555c0,0.26 0.06,0.498 0.176,0.718c0.116,0.221 0.28,0.409 0.488,0.569c0.208,0.16 0.452,0.285 0.732,0.373c0.28,0.088 0.585,0.133 0.909,0.133c0.336,0 0.643,-0.045 0.923,-0.137c0.28,-0.092 0.525,-0.217 0.729,-0.377c0.204,-0.16 0.364,-0.347 0.48,-0.568c0.116,-0.22 0.172,-0.455 0.172,-0.711c0,-0.716 -0.412,-1.234 -1.232,-1.555c0.188,-0.084 0.345,-0.172 0.469,-0.264c0.124,-0.092 0.226,-0.187 0.302,-0.291c0.076,-0.104 0.134,-0.219 0.166,-0.343c0.032,-0.124 0.047,-0.27 0.047,-0.43c0,-0.256 -0.051,-0.488 -0.152,-0.692c-0.1,-0.204 -0.24,-0.385 -0.42,-0.533c-0.18,-0.148 -0.396,-0.263 -0.648,-0.343c-0.252,-0.08 -0.532,-0.12 -0.836,-0.12l0,0Zm-6.452,0.168l0,1.328l0.881,0l0,4.707l1.569,0l0,-6.035l-2.45,0Zm18.137,0l0,6.036l2.522,0c0.32,0 0.607,-0.038 0.863,-0.114c0.256,-0.076 0.473,-0.188 0.653,-0.336c0.18,-0.148 0.316,-0.332 0.416,-0.552c0.1,-0.22 0.148,-0.468 0.148,-0.752c0,-0.18 -0.021,-0.352 -0.064,-0.512c-0.044,-0.16 -0.113,-0.304 -0.213,-0.432c-0.1,-0.128 -0.227,-0.236 -0.383,-0.324c-0.156,-0.088 -0.348,-0.153 -0.572,-0.197c0.224,-0.14 0.392,-0.308 0.5,-0.508c0.108,-0.2 0.164,-0.452 0.164,-0.756c0,-0.5 -0.144,-0.885 -0.432,-1.154c-0.288,-0.268 -0.71,-0.399 -1.266,-0.399l-2.336,0Zm-11.686,0.881c0.188,0 0.345,0.064 0.473,0.196c0.128,0.132 0.191,0.288 0.191,0.468c0,0.084 -0.016,0.168 -0.052,0.248c-0.036,0.08 -0.079,0.151 -0.139,0.211c-0.06,0.06 -0.129,0.113 -0.209,0.149c-0.08,0.036 -0.168,0.056 -0.264,0.056c-0.188,0 -0.343,-0.065 -0.472,-0.197c-0.128,-0.132 -0.192,-0.287 -0.192,-0.475c0,-0.18 0.064,-0.336 0.192,-0.464c0.129,-0.128 0.284,-0.192 0.472,-0.192l0,0Zm13.254,0.321l0.288,0c0.493,0 0.736,0.196 0.736,0.584c0,0.388 -0.243,0.584 -0.736,0.584l-0.288,0l0,-1.168Zm-5.035,1.847c0.128,0 0.25,0.024 0.366,0.072c0.116,0.048 0.21,0.118 0.294,0.202c0.084,0.084 0.15,0.182 0.202,0.298c0.052,0.116 0.076,0.238 0.076,0.366c0,0.128 -0.024,0.247 -0.076,0.359c-0.052,0.112 -0.118,0.211 -0.202,0.295c-0.084,0.084 -0.178,0.153 -0.294,0.201c-0.116,0.048 -0.238,0.072 -0.366,0.072c-0.132,0 -0.255,-0.024 -0.371,-0.072c-0.116,-0.048 -0.213,-0.117 -0.297,-0.201c-0.084,-0.084 -0.147,-0.183 -0.195,-0.299c-0.048,-0.116 -0.072,-0.241 -0.072,-0.373c0,-0.128 0.024,-0.247 0.076,-0.355c0.052,-0.108 0.115,-0.207 0.199,-0.291c0.084,-0.084 0.181,-0.154 0.297,-0.202c0.116,-0.048 0.235,-0.072 0.363,-0.072Zm-8.219,0.442c0.196,0 0.368,0.07 0.508,0.211c0.14,0.14 0.213,0.311 0.213,0.515c0,0.1 -0.02,0.197 -0.056,0.285c-0.036,0.088 -0.089,0.163 -0.157,0.231c-0.068,0.068 -0.144,0.12 -0.232,0.16c-0.088,0.04 -0.18,0.06 -0.276,0.06c-0.1,0 -0.195,-0.02 -0.283,-0.06c-0.088,-0.04 -0.165,-0.092 -0.23,-0.16c-0.064,-0.068 -0.115,-0.143 -0.151,-0.235c-0.036,-0.092 -0.056,-0.189 -0.056,-0.289c0,-0.196 0.067,-0.367 0.207,-0.507c0.141,-0.14 0.309,-0.211 0.513,-0.211Zm13.254,0.046l0.344,0c0.396,0 0.676,0.053 0.848,0.153c0.172,0.1 0.258,0.264 0.258,0.488c0,0.224 -0.086,0.388 -0.258,0.488c-0.172,0.1 -0.451,0.151 -0.848,0.151l-0.344,0l0,-1.28Z" style="fill:#eeeeee;fill-rule:nonzero;"/>
    <path d="M60.996,304.5l0,2.945c-0.336,-0.356 -0.759,-0.535 -1.272,-0.535c-0.304,0 -0.582,0.056 -0.835,0.172c-0.252,0.116 -0.473,0.271 -0.653,0.467c-0.18,0.196 -0.32,0.428 -0.42,0.693c-0.1,0.264 -0.148,0.544 -0.148,0.836c0,0.308 0.052,0.597 0.156,0.865c0.104,0.268 0.248,0.502 0.436,0.698c0.188,0.196 0.404,0.351 0.656,0.463c0.253,0.112 0.524,0.167 0.824,0.167c0.528,0 0.948,-0.196 1.256,-0.584l0,0.458l1.457,0l0,-6.645l-1.457,0Zm-9.146,0.449c-0.341,0 -0.658,0.056 -0.942,0.168c-0.284,0.112 -0.532,0.272 -0.74,0.481c-0.208,0.208 -0.367,0.456 -0.483,0.744c-0.116,0.288 -0.171,0.607 -0.171,0.959l1.71,0c-0.016,-0.112 -0.023,-0.196 -0.023,-0.256c0,-0.208 0.06,-0.38 0.18,-0.52c0.12,-0.14 0.287,-0.207 0.5,-0.207c0.112,0 0.209,0.019 0.293,0.059c0.084,0.04 0.153,0.092 0.213,0.16c0.06,0.068 0.102,0.145 0.13,0.229c0.028,0.084 0.045,0.171 0.045,0.263c0,0.084 -0.013,0.189 -0.041,0.313c-0.028,0.124 -0.095,0.284 -0.203,0.48c-0.108,0.196 -0.276,0.441 -0.5,0.725c-0.225,0.284 -0.533,0.631 -0.929,1.043l-1.497,1.555l4.858,0l0,-1.331l-1.953,0l1,-0.935c0.308,-0.292 0.537,-0.579 0.677,-0.859c0.14,-0.281 0.213,-0.586 0.213,-0.918c0,-0.308 -0.06,-0.596 -0.177,-0.86c-0.116,-0.264 -0.281,-0.492 -0.489,-0.685c-0.208,-0.192 -0.456,-0.34 -0.74,-0.448c-0.284,-0.108 -0.596,-0.16 -0.932,-0.16l0.001,0Zm-6.338,0.16l0,1.328l0.879,0l0,4.707l1.568,0l0,-6.035l-2.447,0Zm18.062,0l0,6.036l2.521,0c0.321,0 0.607,-0.038 0.863,-0.114c0.256,-0.076 0.473,-0.188 0.653,-0.336c0.18,-0.148 0.316,-0.332 0.416,-0.552c0.1,-0.22 0.148,-0.468 0.148,-0.752c0,-0.18 -0.02,-0.352 -0.064,-0.512c-0.044,-0.16 -0.111,-0.304 -0.211,-0.432c-0.1,-0.128 -0.229,-0.236 -0.385,-0.324c-0.156,-0.088 -0.348,-0.153 -0.572,-0.197c0.224,-0.14 0.392,-0.308 0.5,-0.508c0.108,-0.2 0.164,-0.452 0.164,-0.756c0,-0.5 -0.144,-0.885 -0.432,-1.154c-0.288,-0.268 -0.708,-0.399 -1.265,-0.399l-2.336,0Zm1.568,1.202l0.289,0c0.492,0 0.734,0.196 0.734,0.584c0,0.388 -0.242,0.584 -0.734,0.584l-0.289,0l0,-1.168Zm-5.033,1.847c0.128,0 0.247,0.024 0.363,0.072c0.116,0.048 0.213,0.118 0.297,0.202c0.084,0.084 0.147,0.182 0.199,0.298c0.052,0.116 0.076,0.238 0.076,0.366c0,0.128 -0.024,0.247 -0.076,0.359c-0.052,0.112 -0.115,0.211 -0.199,0.295c-0.084,0.084 -0.181,0.153 -0.297,0.201c-0.116,0.048 -0.235,0.072 -0.363,0.072c-0.132,0 -0.257,-0.024 -0.373,-0.072c-0.116,-0.048 -0.211,-0.117 -0.295,-0.201c-0.084,-0.084 -0.149,-0.183 -0.197,-0.299c-0.048,-0.116 -0.073,-0.241 -0.073,-0.373c0,-0.128 0.024,-0.247 0.076,-0.355c0.052,-0.108 0.118,-0.207 0.202,-0.291c0.084,-0.084 0.179,-0.154 0.295,-0.202c0.116,-0.048 0.237,-0.072 0.365,-0.072l0,0Zm5.033,0.488l0.344,0c0.396,0 0.676,0.053 0.849,0.153c0.172,0.1 0.256,0.264 0.256,0.488c0,0.224 -0.084,0.388 -0.256,0.488c-0.173,0.1 -0.453,0.151 -0.849,0.151l-0.344,0l0,-1.28Z" style="fill:#eeeeee;fill-rule:nonzero;"/>
    <path d="M22.765,304.5l0,2.945c-0.336,-0.356 -0.758,-0.535 -1.271,-0.535c-0.304,0 -0.584,0.056 -0.836,0.172c-0.252,0.116 -0.473,0.271 -0.653,0.467c-0.18,0.196 -0.32,0.428 -0.42,0.693c-0.1,0.264 -0.148,0.544 -0.148,0.836c0,0.308 0.052,0.597 0.156,0.865c0.104,0.268 0.248,0.502 0.436,0.698c0.188,0.196 0.404,0.351 0.656,0.463c0.252,0.112 0.524,0.167 0.824,0.167c0.529,0 0.948,-0.196 1.256,-0.584l0,0.458l1.457,0l0,-6.645l-1.457,0Zm-9.332,0.609l-1.4,1.698c-0.316,0.384 -0.548,0.775 -0.7,1.172c-0.152,0.396 -0.228,0.767 -0.228,1.107c0,0.304 0.06,0.593 0.176,0.861c0.116,0.268 0.287,0.505 0.507,0.709c0.22,0.204 0.489,0.365 0.805,0.481c0.316,0.116 0.672,0.176 1.072,0.176c0.396,0 0.748,-0.06 1.065,-0.176c0.316,-0.116 0.585,-0.281 0.805,-0.485c0.22,-0.204 0.391,-0.444 0.507,-0.72c0.116,-0.276 0.176,-0.573 0.176,-0.893c0,-0.3 -0.05,-0.58 -0.15,-0.84c-0.1,-0.261 -0.246,-0.489 -0.426,-0.685c-0.18,-0.196 -0.395,-0.347 -0.639,-0.459c-0.244,-0.112 -0.516,-0.168 -0.808,-0.168c-0.076,0 -0.162,0.007 -0.258,0.027c-0.096,0.02 -0.219,0.072 -0.367,0.164l-0.031,0l1.712,-1.969l-1.818,0Zm11.91,0l0,6.036l2.522,0c0.32,0 0.607,-0.038 0.863,-0.114c0.256,-0.076 0.472,-0.188 0.652,-0.336c0.18,-0.148 0.316,-0.332 0.416,-0.552c0.1,-0.22 0.149,-0.468 0.149,-0.752c0,-0.18 -0.021,-0.352 -0.065,-0.512c-0.044,-0.16 -0.111,-0.304 -0.211,-0.432c-0.1,-0.128 -0.229,-0.236 -0.385,-0.324c-0.156,-0.088 -0.348,-0.153 -0.572,-0.197c0.224,-0.14 0.392,-0.308 0.5,-0.508c0.108,-0.2 0.164,-0.452 0.164,-0.756c0,-0.5 -0.142,-0.885 -0.431,-1.154c-0.288,-0.268 -0.71,-0.399 -1.266,-0.399l-2.336,0Zm1.568,1.202l0.289,0c0.492,0 0.735,0.196 0.735,0.584c0,0.388 -0.243,0.584 -0.735,0.584l-0.289,0l0,-1.168Zm-13.254,1.759c0.14,0 0.269,0.028 0.389,0.08c0.12,0.052 0.224,0.125 0.316,0.217c0.092,0.092 0.164,0.197 0.217,0.317c0.052,0.12 0.08,0.246 0.08,0.386c0,0.14 -0.028,0.269 -0.08,0.389c-0.053,0.12 -0.125,0.224 -0.217,0.316c-0.092,0.092 -0.196,0.163 -0.316,0.215c-0.12,0.052 -0.249,0.08 -0.389,0.08c-0.14,0 -0.268,-0.028 -0.388,-0.08c-0.12,-0.052 -0.223,-0.123 -0.315,-0.215c-0.092,-0.092 -0.165,-0.196 -0.217,-0.316c-0.052,-0.12 -0.08,-0.249 -0.08,-0.389c0,-0.14 0.028,-0.266 0.08,-0.386c0.052,-0.12 0.125,-0.225 0.217,-0.317c0.092,-0.092 0.195,-0.165 0.315,-0.217c0.12,-0.052 0.248,-0.08 0.388,-0.08Zm8.221,0.088c0.128,0 0.247,0.025 0.363,0.073c0.116,0.048 0.213,0.117 0.297,0.201c0.084,0.084 0.147,0.183 0.199,0.299c0.052,0.116 0.077,0.237 0.077,0.365c0,0.128 -0.025,0.247 -0.077,0.359c-0.052,0.112 -0.115,0.211 -0.199,0.295c-0.084,0.084 -0.181,0.153 -0.297,0.201c-0.116,0.048 -0.235,0.073 -0.363,0.073c-0.133,0 -0.257,-0.025 -0.373,-0.073c-0.116,-0.048 -0.213,-0.117 -0.297,-0.201c-0.084,-0.084 -0.147,-0.183 -0.195,-0.299c-0.048,-0.116 -0.072,-0.241 -0.072,-0.373c0,-0.128 0.024,-0.247 0.076,-0.355c0.052,-0.108 0.115,-0.207 0.199,-0.291c0.084,-0.084 0.181,-0.153 0.297,-0.201c0.116,-0.048 0.236,-0.073 0.365,-0.073l0,0Zm5.033,0.489l0.344,0c0.396,0 0.676,0.052 0.848,0.152c0.172,0.1 0.258,0.264 0.258,0.488c0,0.224 -0.086,0.388 -0.258,0.488c-0.172,0.1 -0.452,0.151 -0.848,0.151l-0.344,0l0,-1.279Z" style="fill:#eeeeee;fill-rule:nonzero;"/>
    <path d="M43.66,262.75l0.36,0c0.272,0 0.516,-0.044 0.728,-0.128c0.212,-0.084 0.392,-0.204 0.54,-0.352c0.149,-0.148 0.261,-0.328 0.337,-0.532c0.076,-0.204 0.116,-0.432 0.116,-0.676c0,-0.241 -0.04,-0.465 -0.12,-0.673c-0.08,-0.208 -0.192,-0.388 -0.341,-0.536c-0.148,-0.148 -0.328,-0.268 -0.54,-0.352c-0.212,-0.084 -0.452,-0.128 -0.72,-0.128l-0.36,0l0,3.377Zm-1.569,-4.706l2.321,0c0.412,0 0.796,0.084 1.157,0.248c0.36,0.164 0.676,0.385 0.944,0.661c0.268,0.276 0.48,0.596 0.636,0.96c0.156,0.364 0.232,0.748 0.232,1.149c0,0.396 -0.076,0.776 -0.228,1.14c-0.152,0.364 -0.364,0.688 -0.632,0.964c-0.268,0.277 -0.584,0.501 -0.944,0.665c-0.361,0.164 -0.749,0.248 -1.165,0.248l-2.321,0l0,-6.035Z" style="fill:#eeeeee;fill-rule:nonzero;"/>
    <path d="M49.95,260.74l0.297,0c0.308,0 0.548,-0.064 0.712,-0.192c0.164,-0.128 0.248,-0.312 0.248,-0.552c0,-0.24 -0.084,-0.424 -0.248,-0.552c-0.164,-0.128 -0.404,-0.192 -0.712,-0.192l-0.297,0l0,1.488Zm3.45,3.338l-1.953,0l-1.497,-2.321l0,2.321l-1.568,0l0,-6.035l2.441,0c0.336,0 0.628,0.048 0.88,0.148c0.252,0.1 0.456,0.232 0.62,0.405c0.164,0.172 0.285,0.368 0.369,0.592c0.084,0.224 0.124,0.464 0.124,0.72c0,0.46 -0.112,0.832 -0.333,1.117c-0.22,0.284 -0.548,0.48 -0.98,0.58l1.897,2.473Z" style="fill:#eeeeee;fill-rule:nonzero;"/>
    <rect x="54.056" y="258.04" width="1.569" height="6.035" style="fill:#eeeeee;"/>
    <path d="M57.962,258.04l1.456,3.674l1.465,-3.674l1.705,0l-2.545,6.035l-1.249,0l-2.537,-6.035l1.705,0Z" style="fill:#eeeeee;fill-rule:nonzero;"/>
    <path d="M66.653,259.37l-1.864,0l0,1.008l1.76,0l0,1.329l-1.76,0l0,1.04l1.864,0l0,1.329l-3.433,0l0,-6.035l3.433,0l0,1.329Z" style="fill:#eeeeee;fill-rule:nonzero;"/>
    <path d="M51.246,330.94l0,4.525l1.74,0c0.312,0 0.605,-0.059 0.873,-0.183c0.272,-0.124 0.507,-0.292 0.707,-0.5c0.204,-0.209 0.361,-0.449 0.477,-0.725c0.112,-0.272 0.172,-0.557 0.172,-0.853c0,-0.3 -0.06,-0.588 -0.176,-0.86c-0.116,-0.277 -0.277,-0.516 -0.477,-0.72c-0.204,-0.208 -0.439,-0.372 -0.707,-0.496c-0.272,-0.124 -0.561,-0.188 -0.869,-0.188l-1.74,0l0,0Zm4.717,0l0,4.525l1.178,0l0,-1.777l1.289,0l0,-0.996l-1.289,0l0,-0.756l1.416,0l0,-0.996l-2.594,0l0,0Zm-3.541,0.996l0.271,0c0.2,0 0.381,0.032 0.541,0.096c0.16,0.064 0.292,0.152 0.405,0.265c0.108,0.112 0.195,0.247 0.255,0.403c0.06,0.156 0.088,0.324 0.088,0.504c0,0.184 -0.028,0.354 -0.088,0.506c-0.056,0.156 -0.139,0.286 -0.251,0.398c-0.109,0.112 -0.245,0.202 -0.405,0.266c-0.16,0.064 -0.341,0.095 -0.545,0.095l-0.271,0l0,-2.533l0,0Zm-1.432,10.803l0,0.996l0.965,0l0,3.529l1.178,0l0,-3.529l0.968,0l0,-0.996l-3.111,0l0,0Zm3.631,0l0,4.525l1.176,0l0,-1.865l1.697,0l0,1.865l1.178,0l0,-4.525l-1.178,0l0,1.748l-1.697,0l0,-1.748l-1.176,0Z" style="fill:#eeeeee;fill-rule:nonzero;"/>
    <path d="M44.412,353.16c-0.369,0 -0.708,0.062 -1.012,0.186c-0.308,0.12 -0.569,0.287 -0.789,0.503c-0.22,0.216 -0.391,0.472 -0.515,0.76c-0.124,0.293 -0.19,0.606 -0.19,0.942c0,0.336 0.066,0.647 0.19,0.935c0.124,0.292 0.295,0.543 0.515,0.76c0.22,0.216 0.481,0.386 0.789,0.51c0.304,0.12 0.643,0.179 1.012,0.179c0.364,0 0.698,-0.059 1.006,-0.179c0.308,-0.124 0.575,-0.294 0.795,-0.51c0.224,-0.217 0.395,-0.468 0.519,-0.76c0.125,-0.288 0.186,-0.599 0.186,-0.935c0,-0.336 -0.061,-0.649 -0.186,-0.942c-0.124,-0.288 -0.295,-0.544 -0.519,-0.76c-0.22,-0.216 -0.487,-0.383 -0.795,-0.503c-0.308,-0.124 -0.642,-0.186 -1.006,-0.186Zm-7.947,0.125l-0.768,4.525l1.172,0l0.389,-2.605l1.015,2.605l0.469,0l1.068,-2.605l0.389,2.605l1.168,0l-0.767,-4.525l-1.163,0l-0.9,2.412l-0.906,-2.412l-1.166,0l0,0Zm11.197,0l0,4.525l1.74,0c0.312,0 0.605,-0.059 0.873,-0.183c0.272,-0.124 0.507,-0.292 0.707,-0.5c0.204,-0.209 0.361,-0.449 0.477,-0.725c0.113,-0.272 0.169,-0.555 0.169,-0.851c0,-0.3 -0.057,-0.59 -0.173,-0.862c-0.116,-0.277 -0.277,-0.516 -0.477,-0.72c-0.204,-0.208 -0.439,-0.372 -0.707,-0.496c-0.272,-0.124 -0.561,-0.188 -0.869,-0.188l-1.74,0l0,0Zm4.718,0l0.001,4.525l2.572,0l0,-0.996l-1.397,0l0,-0.781l1.317,0l0,-0.996l-1.317,0l0,-0.756l1.397,0l0,-0.996l-2.572,0l0,0Zm3.416,0l0,4.525l2.589,0l0,-0.996l-1.412,0l0,-3.529l-1.178,0l0.001,0Zm-6.959,0.996l0.271,0c0.201,0 0.381,0.032 0.541,0.096c0.16,0.064 0.292,0.152 0.404,0.265c0.108,0.112 0.192,0.249 0.252,0.405c0.06,0.156 0.092,0.324 0.092,0.504c0,0.184 -0.028,0.352 -0.088,0.504c-0.056,0.156 -0.14,0.286 -0.252,0.398c-0.108,0.112 -0.244,0.202 -0.404,0.266c-0.16,0.064 -0.34,0.095 -0.545,0.095l-0.271,0l0,-2.533l0,0Zm-4.426,0.02c0.172,0 0.332,0.031 0.488,0.091c0.152,0.064 0.288,0.148 0.408,0.26c0.116,0.113 0.21,0.247 0.278,0.399c0.068,0.152 0.103,0.32 0.103,0.5c0,0.18 -0.035,0.344 -0.103,0.496c-0.068,0.152 -0.162,0.282 -0.278,0.394c-0.12,0.112 -0.256,0.2 -0.408,0.26c-0.156,0.064 -0.316,0.098 -0.488,0.098c-0.173,0 -0.336,-0.034 -0.492,-0.098c-0.152,-0.06 -0.289,-0.148 -0.405,-0.26c-0.116,-0.112 -0.207,-0.242 -0.275,-0.394c-0.068,-0.152 -0.1,-0.316 -0.1,-0.496c0,-0.18 0.032,-0.348 0.1,-0.5c0.068,-0.152 0.159,-0.286 0.275,-0.399c0.116,-0.112 0.253,-0.196 0.405,-0.26c0.156,-0.06 0.319,-0.091 0.492,-0.091Z" style="fill:#eeeeee;fill-rule:nonzero;"/>
    <g>
      <rect x="35" y="326" width="11.682" height="24.373"/>
      <path d="M35.711,349.644l-0.697,0.729l11.668,0l-0.721,-0.729l-10.25,0Z" style="fill:rgb(173,173,173);"/>
      <path d="M35,326l0.014,24.373l0.715,-0.746l0,-22.85l-0.729,-0.777Z" style="fill:rgb(90,90,90);"/>
      <path d="M46.668,326l-0.715,0.738l0,22.898l0.729,0.737l-0.014,-24.373Z" style="fill:rgb(90,90,90);"/>
    </g>
  </g>
</svg>