<svg width="91px" height="380px" version="1.1" xmlns="http://www.w3.org/2000/svg" xmlns:xlink="http://www.w3.org/1999/xlink" xml:space="preserve" xmlns:serif="http://www.serif.com/" style="fill-rule:evenodd;clip-rule:evenodd;">
  <defs>
    <linearGradient id="_Linear1" x1="0" y1="0" x2="1" y2="0" gradientUnits="userSpaceOnUse" gradientTransform="matrix(0.00421113,-37.8989,22.7736,0.007008,45.238,112.195)">
      <stop offset="0" style="stop-color:#202020;stop-opacity:1"/>
      <stop offset="1" style="stop-color:#202020;stop-opacity:1"/>
    </linearGradient>
    <linearGradient id="_Linear2" x1="0" y1="0" x2="1" y2="0" gradientUnits="userSpaceOnUse" gradientTransform="matrix(-2.93241,-92.58,55.6316,-4.88,166.775,345.91)">
      <stop offset="0" style="stop-color:#202020;stop-opacity:1"/>
      <stop offset="1" style="stop-color:#202020;stop-opacity:1"/>
    </linearGradient>
    <linearGradient id="_Linear3" x1="0" y1="0" x2="1" y2="0" gradientUnits="userSpaceOnUse" gradientTransform="matrix(-2.85429,94.86,-57.0016,-4.75,166.775,158.47)">
      <stop offset="0" style="stop-color:#202020;stop-opacity:1"/>
      <stop offset="1" style="stop-color:#202020;stop-opacity:1"/>
    </linearGradient>
    <linearGradient id="_Linear4" x1="0" y1="0" x2="1" y2="0" gradientUnits="userSpaceOnUse" gradientTransform="matrix(6.93396e-17,-1.8845,1.1324,1.15392e-16,33.9624,1.9362)">
      <stop offset="0" style="stop-color:#202020;stop-opacity:1"/>
      <stop offset="1" style="stop-color:#202020;stop-opacity:1"/>
    </linearGradient>
  </defs>
  <g id="_-fixed--BG" serif:id="[fixed] BG">
    <rect id="rect1677" x="0" y="0" width="90.135" height="380" style="fill:#eeeeee;"/>
    <g>
      <rect x="0" y="0" width="90.135" height="380" style="fill:url(#_Linear1);"/>
      <rect x="0" y="253.33" width="90.135" height="126.67" style="fill:url(#_Linear2);"/>
      <rect x="0" y="126.67" width="90.135" height="126.67" style="fill:url(#_Linear3);"/>
      <rect x="0" y="-0" width="90.135" height="380" style="fill:#103550;fill-opacity:0.1;"/>
      <rect x="0" y="0" width="90.135" height="2" style="fill:url(#_Linear4);"/>
    </g>
  </g>
  <g id="Edge.Cuts">
    <path d="M15.082,8.872l0.059,0.745l0.059,0.306l0.059,0.232l0.059,0.194l0.059,0.169l0.06,0.151l0.059,0.138l0.059,0.127l0.059,0.118l0.059,0.11l0.059,0.104l0.059,0.098l0.06,0.093l0.059,0.089l0.059,0.084l0.059,0.081l0.059,0.077l0.059,0.074l0.059,0.071l0.06,0.068l0.059,0.066l0.059,0.063l0.059,0.062l0.059,0.059l0.059,0.057l0.059,0.055l0.06,0.053l0.059,0.051l0.059,0.05l0.059,0.048l0.059,0.047l0.059,0.045l0.059,0.043l0.06,0.043l0.059,0.041l0.059,0.039l0.059,0.039l0.059,0.037l0.059,0.035l0.059,0.035l0.06,0.034l0.059,0.032l0.059,0.032l0.059,0.03l0.059,0.029l0.059,0.029l0.059,0.027l0.06,0.026l0.059,0.025l0.059,0.025l0.059,0.023l0.059,0.023l0.059,0.021l0.059,0.021l0.06,0.02l0.059,0.019l0.059,0.018l0.059,0.018l0.059,0.016l0.059,0.016l0.059,0.015l0.06,0.014l0.059,0.013l0.059,0.013l0.059,0.011l0.059,0.011l0.059,0.01l0.06,0.01l0.059,0.008l0.059,0.008l0.059,0.007l0.059,0.006l0.059,0.006l0.059,0.005l0.06,0.004l0.059,0.003l0.059,0.003l0.059,0.002l0.059,0.001l0.059,0l4.732,0l0.059,-0l0.059,-0.001l0.059,-0.002l0.059,-0.003l0.059,-0.003l0.06,-0.004l0.059,-0.005l0.059,-0.006l0.059,-0.006l0.059,-0.007l0.059,-0.008l0.059,-0.008l0.06,-0.01l0.059,-0.01l0.059,-0.011l0.059,-0.011l0.059,-0.013l0.059,-0.013l0.059,-0.014l0.06,-0.015l0.059,-0.016l0.059,-0.016l0.059,-0.018l0.059,-0.018l0.059,-0.019l0.059,-0.02l0.06,-0.021l0.059,-0.021l0.059,-0.023l0.059,-0.023l0.059,-0.025l0.059,-0.025l0.059,-0.026l0.06,-0.027l0.059,-0.029l0.059,-0.029l0.059,-0.03l0.059,-0.032l0.059,-0.032l0.06,-0.034l0.059,-0.035l0.059,-0.035l0.059,-0.037l0.059,-0.039l0.059,-0.039l0.059,-0.041l0.06,-0.043l0.059,-0.043l0.059,-0.045l0.059,-0.047l0.059,-0.048l0.059,-0.05l0.059,-0.051l0.06,-0.053l0.059,-0.055l0.059,-0.057l0.059,-0.059l0.059,-0.062l0.059,-0.063l0.059,-0.066l0.06,-0.068l0.059,-0.071l0.059,-0.074l0.059,-0.077l0.059,-0.081l0.059,-0.084l0.059,-0.089l0.06,-0.093l0.059,-0.098l0.059,-0.104l0.059,-0.11l0.059,-0.118l0.059,-0.127l0.059,-0.138l0.06,-0.151l0.059,-0.169l0.059,-0.194l0.059,-0.232l0.059,-0.306l0.059,-0.745l-0.059,-0.746l-0.059,-0.306l-0.059,-0.232l-0.059,-0.194l-0.059,-0.169l-0.06,-0.151l-0.059,-0.138l-0.059,-0.127l-0.059,-0.118l-0.059,-0.11l-0.059,-0.104l-0.059,-0.098l-0.06,-0.093l-0.059,-0.088l-0.059,-0.085l-0.059,-0.08l-0.059,-0.078l-0.059,-0.074l-0.059,-0.071l-0.06,-0.068l-0.059,-0.066l-0.059,-0.063l-0.059,-0.061l-0.059,-0.059l-0.059,-0.057l-0.059,-0.055l-0.06,-0.054l-0.059,-0.051l-0.059,-0.05l-0.059,-0.048l-0.059,-0.047l-0.059,-0.045l-0.059,-0.043l-0.06,-0.043l-0.059,-0.04l-0.059,-0.04l-0.059,-0.038l-0.059,-0.037l-0.059,-0.036l-0.059,-0.035l-0.06,-0.034l-0.059,-0.032l-0.059,-0.031l-0.059,-0.031l-0.059,-0.029l-0.059,-0.028l-0.06,-0.028l-0.059,-0.026l-0.059,-0.025l-0.059,-0.025l-0.059,-0.023l-0.059,-0.023l-0.059,-0.021l-0.06,-0.021l-0.059,-0.02l-0.059,-0.019l-0.059,-0.018l-0.059,-0.017l-0.059,-0.017l-0.059,-0.016l-0.06,-0.015l-0.059,-0.014l-0.059,-0.013l-0.059,-0.012l-0.059,-0.012l-0.059,-0.011l-0.059,-0.01l-0.06,-0.009l-0.059,-0.009l-0.059,-0.008l-0.059,-0.007l-0.059,-0.006l-0.059,-0.006l-0.059,-0.005l-0.06,-0.004l-0.059,-0.003l-0.059,-0.003l-0.059,-0.001l-0.059,-0.002l-0.059,0l-4.732,0l-0.059,0l-0.059,0.002l-0.059,0.001l-0.059,0.003l-0.059,0.003l-0.06,0.004l-0.059,0.005l-0.059,0.006l-0.059,0.006l-0.059,0.007l-0.059,0.008l-0.059,0.009l-0.06,0.009l-0.059,0.01l-0.059,0.011l-0.059,0.012l-0.059,0.012l-0.059,0.013l-0.06,0.014l-0.059,0.015l-0.059,0.016l-0.059,0.017l-0.059,0.017l-0.059,0.018l-0.059,0.019l-0.06,0.02l-0.059,0.021l-0.059,0.021l-0.059,0.023l-0.059,0.023l-0.059,0.025l-0.059,0.025l-0.06,0.026l-0.059,0.028l-0.059,0.028l-0.059,0.029l-0.059,0.031l-0.059,0.031l-0.059,0.032l-0.06,0.034l-0.059,0.035l-0.059,0.036l-0.059,0.037l-0.059,0.038l-0.059,0.04l-0.059,0.04l-0.06,0.043l-0.059,0.043l-0.059,0.045l-0.059,0.047l-0.059,0.048l-0.059,0.05l-0.059,0.051l-0.06,0.054l-0.059,0.055l-0.059,0.057l-0.059,0.059l-0.059,0.061l-0.059,0.063l-0.059,0.066l-0.06,0.068l-0.059,0.071l-0.059,0.074l-0.059,0.078l-0.059,0.08l-0.059,0.085l-0.059,0.088l-0.06,0.093l-0.059,0.098l-0.059,0.104l-0.059,0.11l-0.059,0.118l-0.059,0.127l-0.059,0.138l-0.06,0.151l-0.059,0.169l-0.059,0.194l-0.059,0.232l-0.059,0.306l-0.059,0.746Z" style="fill-rule:nonzero;"/>
    <path d="M15.082,371.128l0.059,0.746l0.059,0.306l0.059,0.232l0.059,0.194l0.059,0.169l0.06,0.151l0.059,0.138l0.059,0.127l0.059,0.118l0.059,0.11l0.059,0.104l0.059,0.098l0.06,0.093l0.059,0.088l0.059,0.085l0.059,0.08l0.059,0.078l0.059,0.074l0.059,0.071l0.06,0.068l0.059,0.066l0.059,0.063l0.059,0.061l0.059,0.059l0.059,0.057l0.059,0.055l0.06,0.054l0.059,0.051l0.059,0.05l0.059,0.048l0.059,0.047l0.059,0.045l0.059,0.043l0.06,0.043l0.059,0.04l0.059,0.04l0.059,0.038l0.059,0.037l0.059,0.036l0.059,0.035l0.06,0.034l0.059,0.032l0.059,0.031l0.059,0.031l0.059,0.029l0.059,0.028l0.059,0.028l0.06,0.026l0.059,0.025l0.059,0.025l0.059,0.023l0.059,0.023l0.059,0.021l0.059,0.021l0.06,0.02l0.059,0.019l0.059,0.018l0.059,0.017l0.059,0.017l0.059,0.016l0.059,0.015l0.06,0.014l0.059,0.013l0.059,0.012l0.059,0.012l0.059,0.011l0.059,0.01l0.06,0.009l0.059,0.009l0.059,0.008l0.059,0.007l0.059,0.006l0.059,0.006l0.059,0.005l0.06,0.004l0.059,0.003l0.059,0.003l0.059,0.001l0.059,0.002l0.059,-0l4.732,-0l0.059,-0l0.059,-0.002l0.059,-0.001l0.059,-0.003l0.059,-0.003l0.06,-0.004l0.059,-0.005l0.059,-0.006l0.059,-0.006l0.059,-0.007l0.059,-0.008l0.059,-0.009l0.06,-0.009l0.059,-0.01l0.059,-0.011l0.059,-0.012l0.059,-0.012l0.059,-0.013l0.059,-0.014l0.06,-0.015l0.059,-0.016l0.059,-0.017l0.059,-0.017l0.059,-0.018l0.059,-0.019l0.059,-0.02l0.06,-0.021l0.059,-0.021l0.059,-0.023l0.059,-0.023l0.059,-0.025l0.059,-0.025l0.059,-0.026l0.06,-0.028l0.059,-0.028l0.059,-0.029l0.059,-0.031l0.059,-0.031l0.059,-0.032l0.06,-0.034l0.059,-0.035l0.059,-0.036l0.059,-0.037l0.059,-0.038l0.059,-0.04l0.059,-0.04l0.06,-0.043l0.059,-0.043l0.059,-0.045l0.059,-0.047l0.059,-0.048l0.059,-0.05l0.059,-0.051l0.06,-0.054l0.059,-0.055l0.059,-0.057l0.059,-0.059l0.059,-0.061l0.059,-0.063l0.059,-0.066l0.06,-0.068l0.059,-0.071l0.059,-0.074l0.059,-0.078l0.059,-0.08l0.059,-0.085l0.059,-0.088l0.06,-0.093l0.059,-0.098l0.059,-0.104l0.059,-0.11l0.059,-0.118l0.059,-0.127l0.059,-0.138l0.06,-0.151l0.059,-0.169l0.059,-0.194l0.059,-0.232l0.059,-0.306l0.059,-0.746l-0.059,-0.745l-0.059,-0.306l-0.059,-0.232l-0.059,-0.194l-0.059,-0.169l-0.06,-0.151l-0.059,-0.138l-0.059,-0.127l-0.059,-0.118l-0.059,-0.11l-0.059,-0.104l-0.059,-0.098l-0.06,-0.093l-0.059,-0.089l-0.059,-0.084l-0.059,-0.081l-0.059,-0.077l-0.059,-0.074l-0.059,-0.071l-0.06,-0.068l-0.059,-0.066l-0.059,-0.063l-0.059,-0.062l-0.059,-0.059l-0.059,-0.057l-0.059,-0.055l-0.06,-0.053l-0.059,-0.051l-0.059,-0.05l-0.059,-0.048l-0.059,-0.047l-0.059,-0.045l-0.059,-0.043l-0.06,-0.043l-0.059,-0.041l-0.059,-0.039l-0.059,-0.039l-0.059,-0.037l-0.059,-0.035l-0.059,-0.035l-0.06,-0.034l-0.059,-0.032l-0.059,-0.032l-0.059,-0.03l-0.059,-0.029l-0.059,-0.029l-0.06,-0.027l-0.059,-0.026l-0.059,-0.025l-0.059,-0.025l-0.059,-0.023l-0.059,-0.023l-0.059,-0.021l-0.06,-0.021l-0.059,-0.02l-0.059,-0.019l-0.059,-0.018l-0.059,-0.018l-0.059,-0.016l-0.059,-0.016l-0.06,-0.015l-0.059,-0.014l-0.059,-0.013l-0.059,-0.013l-0.059,-0.011l-0.059,-0.011l-0.059,-0.01l-0.06,-0.01l-0.059,-0.008l-0.059,-0.008l-0.059,-0.007l-0.059,-0.006l-0.059,-0.006l-0.059,-0.005l-0.06,-0.004l-0.059,-0.003l-0.059,-0.003l-0.059,-0.002l-0.059,-0.001l-0.059,-0l-4.732,-0l-0.059,0l-0.059,0.001l-0.059,0.002l-0.059,0.003l-0.059,0.003l-0.06,0.004l-0.059,0.005l-0.059,0.006l-0.059,0.006l-0.059,0.007l-0.059,0.008l-0.059,0.008l-0.06,0.01l-0.059,0.01l-0.059,0.011l-0.059,0.011l-0.059,0.013l-0.059,0.013l-0.06,0.014l-0.059,0.015l-0.059,0.016l-0.059,0.016l-0.059,0.018l-0.059,0.018l-0.059,0.019l-0.06,0.02l-0.059,0.021l-0.059,0.021l-0.059,0.023l-0.059,0.023l-0.059,0.025l-0.059,0.025l-0.06,0.026l-0.059,0.027l-0.059,0.029l-0.059,0.029l-0.059,0.03l-0.059,0.032l-0.059,0.032l-0.06,0.034l-0.059,0.035l-0.059,0.035l-0.059,0.037l-0.059,0.039l-0.059,0.039l-0.059,0.041l-0.06,0.043l-0.059,0.043l-0.059,0.045l-0.059,0.047l-0.059,0.048l-0.059,0.05l-0.059,0.051l-0.06,0.053l-0.059,0.055l-0.059,0.057l-0.059,0.059l-0.059,0.062l-0.059,0.063l-0.059,0.066l-0.06,0.068l-0.059,0.071l-0.059,0.074l-0.059,0.077l-0.059,0.081l-0.059,0.084l-0.059,0.089l-0.06,0.093l-0.059,0.098l-0.059,0.104l-0.059,0.11l-0.059,0.118l-0.059,0.127l-0.059,0.138l-0.06,0.151l-0.059,0.169l-0.059,0.194l-0.059,0.232l-0.059,0.306l-0.059,0.745Z" style="fill-rule:nonzero;"/>
    <path d="M60.149,8.872l0.06,0.745l0.059,0.306l0.059,0.232l0.059,0.194l0.059,0.169l0.059,0.151l0.059,0.138l0.06,0.127l0.059,0.118l0.059,0.11l0.059,0.104l0.059,0.098l0.059,0.093l0.059,0.089l0.06,0.084l0.059,0.081l0.059,0.077l0.059,0.074l0.059,0.071l0.059,0.068l0.059,0.066l0.06,0.063l0.059,0.062l0.059,0.059l0.059,0.057l0.059,0.055l0.059,0.053l0.059,0.051l0.06,0.05l0.059,0.048l0.059,0.047l0.059,0.045l0.059,0.043l0.059,0.043l0.059,0.041l0.06,0.039l0.059,0.039l0.059,0.037l0.059,0.035l0.059,0.035l0.059,0.034l0.059,0.032l0.06,0.032l0.059,0.03l0.059,0.029l0.059,0.029l0.059,0.027l0.059,0.026l0.059,0.025l0.06,0.025l0.059,0.023l0.059,0.023l0.059,0.021l0.059,0.021l0.059,0.02l0.059,0.019l0.06,0.018l0.059,0.018l0.059,0.016l0.059,0.016l0.059,0.015l0.059,0.014l0.059,0.013l0.06,0.013l0.059,0.011l0.059,0.011l0.059,0.01l0.059,0.01l0.059,0.008l0.059,0.008l0.06,0.007l0.059,0.006l0.059,0.006l0.059,0.005l0.059,0.004l0.059,0.003l0.06,0.003l0.059,0.002l0.059,0.001l0.059,0l4.731,0l0.06,-0l0.059,-0.001l0.059,-0.002l0.059,-0.003l0.059,-0.003l0.059,-0.004l0.059,-0.005l0.06,-0.006l0.059,-0.006l0.059,-0.007l0.059,-0.008l0.059,-0.008l0.059,-0.01l0.059,-0.01l0.06,-0.011l0.059,-0.011l0.059,-0.013l0.059,-0.013l0.059,-0.014l0.059,-0.015l0.059,-0.016l0.06,-0.016l0.059,-0.018l0.059,-0.018l0.059,-0.019l0.059,-0.02l0.059,-0.021l0.059,-0.021l0.06,-0.023l0.059,-0.023l0.059,-0.025l0.059,-0.025l0.059,-0.026l0.059,-0.027l0.059,-0.029l0.06,-0.029l0.059,-0.03l0.059,-0.032l0.059,-0.032l0.059,-0.034l0.059,-0.035l0.059,-0.035l0.06,-0.037l0.059,-0.039l0.059,-0.039l0.059,-0.041l0.059,-0.043l0.059,-0.043l0.06,-0.045l0.059,-0.047l0.059,-0.048l0.059,-0.05l0.059,-0.051l0.059,-0.053l0.059,-0.055l0.06,-0.057l0.059,-0.059l0.059,-0.062l0.059,-0.063l0.059,-0.066l0.059,-0.068l0.059,-0.071l0.06,-0.074l0.059,-0.077l0.059,-0.081l0.059,-0.084l0.059,-0.089l0.059,-0.093l0.059,-0.098l0.06,-0.104l0.059,-0.11l0.059,-0.118l0.059,-0.127l0.059,-0.138l0.059,-0.151l0.059,-0.169l0.06,-0.194l0.059,-0.232l0.059,-0.306l0.059,-0.745l-0.059,-0.746l-0.059,-0.306l-0.059,-0.232l-0.06,-0.194l-0.059,-0.169l-0.059,-0.151l-0.059,-0.138l-0.059,-0.127l-0.059,-0.118l-0.059,-0.11l-0.06,-0.104l-0.059,-0.098l-0.059,-0.093l-0.059,-0.088l-0.059,-0.085l-0.059,-0.08l-0.059,-0.078l-0.06,-0.074l-0.059,-0.071l-0.059,-0.068l-0.059,-0.066l-0.059,-0.063l-0.059,-0.061l-0.059,-0.059l-0.06,-0.057l-0.059,-0.055l-0.059,-0.054l-0.059,-0.051l-0.059,-0.05l-0.059,-0.048l-0.059,-0.047l-0.06,-0.045l-0.059,-0.043l-0.059,-0.043l-0.059,-0.04l-0.059,-0.04l-0.059,-0.038l-0.06,-0.037l-0.059,-0.036l-0.059,-0.035l-0.059,-0.034l-0.059,-0.032l-0.059,-0.031l-0.059,-0.031l-0.06,-0.029l-0.059,-0.028l-0.059,-0.028l-0.059,-0.026l-0.059,-0.025l-0.059,-0.025l-0.059,-0.023l-0.06,-0.023l-0.059,-0.021l-0.059,-0.021l-0.059,-0.02l-0.059,-0.019l-0.059,-0.018l-0.059,-0.017l-0.06,-0.017l-0.059,-0.016l-0.059,-0.015l-0.059,-0.014l-0.059,-0.013l-0.059,-0.012l-0.059,-0.012l-0.06,-0.011l-0.059,-0.01l-0.059,-0.009l-0.059,-0.009l-0.059,-0.008l-0.059,-0.007l-0.059,-0.006l-0.06,-0.006l-0.059,-0.005l-0.059,-0.004l-0.059,-0.003l-0.059,-0.003l-0.059,-0.001l-0.059,-0.002l-0.06,0l-4.731,0l-0.059,0l-0.059,0.002l-0.059,0.001l-0.06,0.003l-0.059,0.003l-0.059,0.004l-0.059,0.005l-0.059,0.006l-0.059,0.006l-0.06,0.007l-0.059,0.008l-0.059,0.009l-0.059,0.009l-0.059,0.01l-0.059,0.011l-0.059,0.012l-0.06,0.012l-0.059,0.013l-0.059,0.014l-0.059,0.015l-0.059,0.016l-0.059,0.017l-0.059,0.017l-0.06,0.018l-0.059,0.019l-0.059,0.02l-0.059,0.021l-0.059,0.021l-0.059,0.023l-0.059,0.023l-0.06,0.025l-0.059,0.025l-0.059,0.026l-0.059,0.028l-0.059,0.028l-0.059,0.029l-0.059,0.031l-0.06,0.031l-0.059,0.032l-0.059,0.034l-0.059,0.035l-0.059,0.036l-0.059,0.037l-0.059,0.038l-0.06,0.04l-0.059,0.04l-0.059,0.043l-0.059,0.043l-0.059,0.045l-0.059,0.047l-0.059,0.048l-0.06,0.05l-0.059,0.051l-0.059,0.054l-0.059,0.055l-0.059,0.057l-0.059,0.059l-0.059,0.061l-0.06,0.063l-0.059,0.066l-0.059,0.068l-0.059,0.071l-0.059,0.074l-0.059,0.078l-0.059,0.08l-0.06,0.085l-0.059,0.088l-0.059,0.093l-0.059,0.098l-0.059,0.104l-0.059,0.11l-0.059,0.118l-0.06,0.127l-0.059,0.138l-0.059,0.151l-0.059,0.169l-0.059,0.194l-0.059,0.232l-0.059,0.306l-0.06,0.746Z" style="fill-rule:nonzero;"/>
    <path d="M60.149,371.128l0.06,0.746l0.059,0.306l0.059,0.232l0.059,0.194l0.059,0.169l0.059,0.151l0.059,0.138l0.06,0.127l0.059,0.118l0.059,0.11l0.059,0.104l0.059,0.098l0.059,0.093l0.059,0.088l0.06,0.085l0.059,0.08l0.059,0.078l0.059,0.074l0.059,0.071l0.059,0.068l0.059,0.066l0.06,0.063l0.059,0.061l0.059,0.059l0.059,0.057l0.059,0.055l0.059,0.054l0.059,0.051l0.06,0.05l0.059,0.048l0.059,0.047l0.059,0.045l0.059,0.043l0.059,0.043l0.059,0.04l0.06,0.04l0.059,0.038l0.059,0.037l0.059,0.036l0.059,0.035l0.059,0.034l0.059,0.032l0.06,0.031l0.059,0.031l0.059,0.029l0.059,0.028l0.059,0.028l0.059,0.026l0.059,0.025l0.06,0.025l0.059,0.023l0.059,0.023l0.059,0.021l0.059,0.021l0.059,0.02l0.059,0.019l0.06,0.018l0.059,0.017l0.059,0.017l0.059,0.016l0.059,0.015l0.059,0.014l0.059,0.013l0.06,0.012l0.059,0.012l0.059,0.011l0.059,0.01l0.059,0.009l0.059,0.009l0.059,0.008l0.06,0.007l0.059,0.006l0.059,0.006l0.059,0.005l0.059,0.004l0.059,0.003l0.06,0.003l0.059,0.001l0.059,0.002l0.059,-0l4.731,-0l0.06,-0l0.059,-0.002l0.059,-0.001l0.059,-0.003l0.059,-0.003l0.059,-0.004l0.059,-0.005l0.06,-0.006l0.059,-0.006l0.059,-0.007l0.059,-0.008l0.059,-0.009l0.059,-0.009l0.059,-0.01l0.06,-0.011l0.059,-0.012l0.059,-0.012l0.059,-0.013l0.059,-0.014l0.059,-0.015l0.059,-0.016l0.06,-0.017l0.059,-0.017l0.059,-0.018l0.059,-0.019l0.059,-0.02l0.059,-0.021l0.059,-0.021l0.06,-0.023l0.059,-0.023l0.059,-0.025l0.059,-0.025l0.059,-0.026l0.059,-0.028l0.059,-0.028l0.06,-0.029l0.059,-0.031l0.059,-0.031l0.059,-0.032l0.059,-0.034l0.059,-0.035l0.059,-0.036l0.06,-0.037l0.059,-0.038l0.059,-0.04l0.059,-0.04l0.059,-0.043l0.059,-0.043l0.06,-0.045l0.059,-0.047l0.059,-0.048l0.059,-0.05l0.059,-0.051l0.059,-0.054l0.059,-0.055l0.06,-0.057l0.059,-0.059l0.059,-0.061l0.059,-0.063l0.059,-0.066l0.059,-0.068l0.059,-0.071l0.06,-0.074l0.059,-0.078l0.059,-0.08l0.059,-0.085l0.059,-0.088l0.059,-0.093l0.059,-0.098l0.06,-0.104l0.059,-0.11l0.059,-0.118l0.059,-0.127l0.059,-0.138l0.059,-0.151l0.059,-0.169l0.06,-0.194l0.059,-0.232l0.059,-0.306l0.059,-0.746l-0.059,-0.745l-0.059,-0.306l-0.059,-0.232l-0.06,-0.194l-0.059,-0.169l-0.059,-0.151l-0.059,-0.138l-0.059,-0.127l-0.059,-0.118l-0.059,-0.11l-0.06,-0.104l-0.059,-0.098l-0.059,-0.093l-0.059,-0.089l-0.059,-0.084l-0.059,-0.081l-0.059,-0.077l-0.06,-0.074l-0.059,-0.071l-0.059,-0.068l-0.059,-0.066l-0.059,-0.063l-0.059,-0.062l-0.059,-0.059l-0.06,-0.057l-0.059,-0.055l-0.059,-0.053l-0.059,-0.051l-0.059,-0.05l-0.059,-0.048l-0.059,-0.047l-0.06,-0.045l-0.059,-0.043l-0.059,-0.043l-0.059,-0.041l-0.059,-0.039l-0.059,-0.039l-0.06,-0.037l-0.059,-0.035l-0.059,-0.035l-0.059,-0.034l-0.059,-0.032l-0.059,-0.032l-0.059,-0.03l-0.06,-0.029l-0.059,-0.029l-0.059,-0.027l-0.059,-0.026l-0.059,-0.025l-0.059,-0.025l-0.059,-0.023l-0.06,-0.023l-0.059,-0.021l-0.059,-0.021l-0.059,-0.02l-0.059,-0.019l-0.059,-0.018l-0.059,-0.018l-0.06,-0.016l-0.059,-0.016l-0.059,-0.015l-0.059,-0.014l-0.059,-0.013l-0.059,-0.013l-0.059,-0.011l-0.06,-0.011l-0.059,-0.01l-0.059,-0.01l-0.059,-0.008l-0.059,-0.008l-0.059,-0.007l-0.059,-0.006l-0.06,-0.006l-0.059,-0.005l-0.059,-0.004l-0.059,-0.003l-0.059,-0.003l-0.059,-0.002l-0.059,-0.001l-0.06,-0l-4.731,-0l-0.059,0l-0.059,0.001l-0.059,0.002l-0.06,0.003l-0.059,0.003l-0.059,0.004l-0.059,0.005l-0.059,0.006l-0.059,0.006l-0.06,0.007l-0.059,0.008l-0.059,0.008l-0.059,0.01l-0.059,0.01l-0.059,0.011l-0.059,0.011l-0.06,0.013l-0.059,0.013l-0.059,0.014l-0.059,0.015l-0.059,0.016l-0.059,0.016l-0.059,0.018l-0.06,0.018l-0.059,0.019l-0.059,0.02l-0.059,0.021l-0.059,0.021l-0.059,0.023l-0.059,0.023l-0.06,0.025l-0.059,0.025l-0.059,0.026l-0.059,0.027l-0.059,0.029l-0.059,0.029l-0.059,0.03l-0.06,0.032l-0.059,0.032l-0.059,0.034l-0.059,0.035l-0.059,0.035l-0.059,0.037l-0.059,0.039l-0.06,0.039l-0.059,0.041l-0.059,0.043l-0.059,0.043l-0.059,0.045l-0.059,0.047l-0.059,0.048l-0.06,0.05l-0.059,0.051l-0.059,0.053l-0.059,0.055l-0.059,0.057l-0.059,0.059l-0.059,0.062l-0.06,0.063l-0.059,0.066l-0.059,0.068l-0.059,0.071l-0.059,0.074l-0.059,0.077l-0.059,0.081l-0.06,0.084l-0.059,0.089l-0.059,0.093l-0.059,0.098l-0.059,0.104l-0.059,0.11l-0.059,0.118l-0.06,0.127l-0.059,0.138l-0.059,0.151l-0.059,0.169l-0.059,0.194l-0.059,0.232l-0.059,0.306l-0.06,0.745Z" style="fill-rule:nonzero;"/>
  </g>
  <g id="F.SilkS">
    <g id="CUTOFF_images_Panel-KnobTypeA_svg_0">
      <circle id="circle7461" cx="21.729" cy="115.783" r="3.815" style="fill:none;stroke:#eeeeee;stroke-width:1.18px;"/>
      <circle id="circle7464" cx="69.876" cy="115.198" r="3.815" style="fill:#eeeeee;stroke:#eeeeee;stroke-width:1.18px;"/>
      <path id="path7499" d="M71.898,104.416c7.518,-13.024 4.575,-29.729 -6.946,-39.396c-11.521,-9.664 -28.487,-9.664 -40.008,-0c-11.518,9.667 -14.464,26.372 -6.944,39.396" style="fill:none;fill-rule:nonzero;stroke:#eeeeee;stroke-width:1.18px;stroke-linecap:round;"/>
    </g>
    <g>
      <path id="any" d="M30.962,128.718c-0.657,-0 -1.229,-0.135 -1.717,-0.404c-0.488,-0.269 -0.863,-0.649 -1.126,-1.14c-0.264,-0.491 -0.395,-1.058 -0.395,-1.703c-0,-0.639 0.131,-1.202 0.395,-1.69c0.263,-0.488 0.638,-0.867 1.126,-1.136c0.488,-0.269 1.06,-0.403 1.717,-0.403c0.414,-0 0.815,0.062 1.202,0.186c0.387,0.124 0.699,0.293 0.936,0.506l-0.506,1.18c-0.514,-0.373 -1.047,-0.559 -1.597,-0.559c-0.508,-0 -0.899,0.161 -1.171,0.483c-0.272,0.323 -0.408,0.8 -0.408,1.433c0,0.639 0.136,1.121 0.408,1.446c0.272,0.325 0.663,0.488 1.171,0.488c0.55,-0 1.083,-0.186 1.597,-0.559l0.506,1.18c-0.237,0.213 -0.549,0.381 -0.936,0.506c-0.387,0.124 -0.788,0.186 -1.202,0.186Z" style="fill:#eeeeee;fill-rule:nonzero;"/>
      <path d="M36.746,128.718c-0.922,-0 -1.62,-0.232 -2.094,-0.696c-0.473,-0.465 -0.709,-1.146 -0.709,-2.045l-0,-3.655l1.623,-0l0,3.717c0,0.455 0.102,0.804 0.306,1.047c0.204,0.242 0.496,0.363 0.874,0.363c0.373,0 0.66,-0.122 0.861,-0.368c0.201,-0.245 0.301,-0.593 0.301,-1.042l0,-3.717l1.642,-0l-0,3.655c-0,0.887 -0.241,1.565 -0.723,2.036c-0.482,0.47 -1.176,0.705 -2.081,0.705Z" style="fill:#eeeeee;fill-rule:nonzero;"/>
      <path d="M42.06,128.638l0,-4.968l-1.881,0l0,-1.348l5.448,-0l-0,1.348l-1.881,0l-0,4.968l-1.686,0Z" style="fill:#eeeeee;fill-rule:nonzero;"/>
      <path d="M48.962,128.718c-0.644,-0 -1.206,-0.132 -1.685,-0.395c-0.479,-0.263 -0.848,-0.64 -1.105,-1.131c-0.257,-0.491 -0.386,-1.065 -0.386,-1.721c0,-0.657 0.13,-1.227 0.391,-1.712c0.26,-0.485 0.628,-0.859 1.104,-1.123c0.476,-0.263 1.037,-0.394 1.681,-0.394c0.645,-0 1.205,0.131 1.682,0.394c0.476,0.264 0.841,0.638 1.095,1.123c0.254,0.485 0.382,1.055 0.382,1.712c-0,0.656 -0.128,1.23 -0.382,1.721c-0.254,0.491 -0.619,0.868 -1.095,1.131c-0.477,0.263 -1.037,0.395 -1.682,0.395Zm0,-1.269c0.473,0 0.845,-0.168 1.114,-0.505c0.269,-0.337 0.403,-0.828 0.403,-1.473c0,-0.639 -0.134,-1.125 -0.403,-1.459c-0.269,-0.335 -0.641,-0.502 -1.114,-0.502c-0.473,0 -0.842,0.166 -1.109,0.497c-0.266,0.331 -0.399,0.819 -0.399,1.464c0,0.651 0.133,1.143 0.399,1.477c0.267,0.334 0.636,0.501 1.109,0.501Z" style="fill:#eeeeee;fill-rule:nonzero;"/>
      <path d="M53.096,128.638l0,-6.316l4.41,-0l-0,1.304l-2.768,-0l-0,1.153l2.59,-0l0,1.295l-2.59,0l-0,2.564l-1.642,0Z" style="fill:#eeeeee;fill-rule:nonzero;"/>
      <path d="M58.278,128.638l-0,-6.316l4.409,-0l-0,1.304l-2.768,-0l-0,1.153l2.59,-0l0,1.295l-2.59,0l-0,2.564l-1.641,0Z" style="fill:#eeeeee;fill-rule:nonzero;"/>
    </g>
    <g id="DRIVE_images_Panel-MiniKnobTypeA_svg_0">
      <path id="path7818" d="M33.958,166.606c3.199,-5.545 1.945,-12.654 -2.961,-16.774c-4.903,-4.116 -12.127,-4.116 -17.03,0c-4.909,4.12 -6.163,11.229 -2.963,16.774" style="fill:none;fill-rule:nonzero;stroke:#eeeeee;stroke-width:1.3px;stroke-linecap:round;"/>
      <circle cx="32.976" cy="170.831" r="2.91" style="fill:#eeeeee;stroke:#eeeeee;stroke-width:1.3px;stroke-linejoin:round;stroke-miterlimit:1.5;"/>
      <circle cx="12.275" cy="170.831" r="2.91" style="fill:none;stroke:#eeeeee;stroke-width:1.3px;stroke-linejoin:round;stroke-miterlimit:1.5;"/>
    </g>
    <g>
      <path id="any1" serif:id="any" d="M13.449,176.178l1.721,0c0.466,0 0.867,0.084 1.204,0.251c0.337,0.168 0.595,0.409 0.775,0.725c0.179,0.315 0.269,0.69 0.269,1.124c-0,0.437 -0.089,0.815 -0.266,1.132c-0.178,0.318 -0.435,0.56 -0.772,0.728c-0.337,0.167 -0.74,0.251 -1.21,0.251l-1.721,0l0,-4.211Zm1.645,3.324c0.41,-0 0.716,-0.102 0.919,-0.305c0.203,-0.203 0.305,-0.509 0.305,-0.919c-0,-0.809 -0.408,-1.213 -1.224,-1.213l-0.533,0l0,2.437l0.533,-0Z" style="fill:#eeeeee;fill-rule:nonzero;"/>
      <path d="M21.729,180.389l-1.176,0l-0.545,-1.402c-0.063,-0.157 -0.211,-0.236 -0.443,-0.236l-0.402,-0l-0,1.638l-1.095,0l0,-4.211l1.958,0c0.509,0 0.891,0.109 1.148,0.328c0.256,0.219 0.384,0.532 0.384,0.938c-0,0.284 -0.076,0.529 -0.228,0.736c-0.152,0.207 -0.365,0.354 -0.641,0.441c0.118,0.023 0.224,0.079 0.319,0.165c0.095,0.087 0.169,0.203 0.225,0.349l0.496,1.254Zm-1.88,-2.466c0.236,-0 0.408,-0.037 0.514,-0.11c0.107,-0.073 0.16,-0.186 0.16,-0.34c-0,-0.161 -0.052,-0.278 -0.157,-0.349c-0.104,-0.071 -0.277,-0.106 -0.517,-0.106l-0.698,-0l-0,0.905l0.698,-0Z" style="fill:#eeeeee;fill-rule:nonzero;"/>
      <rect x="22.291" y="176.178" width="1.112" height="4.211" style="fill:#eeeeee;fill-rule:nonzero;"/>
      <path d="M27.242,176.178l1.118,0l-1.917,4.211l-0.881,0l-1.916,-4.211l1.153,0l1.213,2.827l1.23,-2.827Z" style="fill:#eeeeee;fill-rule:nonzero;"/>
      <path d="M28.602,180.389l0,-4.211l3.005,0l-0,0.852l-1.923,-0l0,0.792l1.798,0l0,0.852l-1.798,-0l0,0.863l1.923,0l-0,0.852l-3.005,0Z" style="fill:#eeeeee;fill-rule:nonzero;"/>
    </g>
    <g id="RES_images_Panel-MiniKnobTypeA_svg_0">
      <path id="path78181" serif:id="path7818" d="M79.025,166.606c3.2,-5.545 1.946,-12.654 -2.96,-16.774c-4.903,-4.116 -12.127,-4.116 -17.03,0c-4.909,4.12 -6.163,11.229 -2.964,16.774" style="fill:none;fill-rule:nonzero;stroke:#eeeeee;stroke-width:1.3px;stroke-linecap:round;"/>
      <circle cx="78.043" cy="170.831" r="2.91" style="fill:#eeeeee;stroke:#eeeeee;stroke-width:1.3px;stroke-linejoin:round;stroke-miterlimit:1.5;"/>
      <circle cx="57.343" cy="170.831" r="2.91" style="fill:none;stroke:#eeeeee;stroke-width:1.3px;stroke-linejoin:round;stroke-miterlimit:1.5;"/>
    </g>
    <g>
      <path id="any2" serif:id="any" d="M65.727,180.389l-1.177,0l-0.544,-1.402c-0.063,-0.157 -0.211,-0.236 -0.444,-0.236l-0.402,-0l-0,1.638l-1.094,0l-0,-4.211l1.957,0c0.509,0 0.891,0.109 1.148,0.328c0.256,0.219 0.384,0.532 0.384,0.938c0,0.284 -0.076,0.529 -0.228,0.736c-0.151,0.207 -0.365,0.354 -0.641,0.441c0.118,0.023 0.225,0.079 0.319,0.165c0.095,0.087 0.17,0.203 0.225,0.349l0.497,1.254Zm-1.881,-2.466c0.236,-0 0.408,-0.037 0.514,-0.11c0.107,-0.073 0.16,-0.186 0.16,-0.34c0,-0.161 -0.052,-0.278 -0.157,-0.349c-0.104,-0.071 -0.277,-0.106 -0.517,-0.106l-0.698,-0l0,0.905l0.698,-0Z" style="fill:#eeeeee;fill-rule:nonzero;"/>
      <path d="M66.289,180.389l-0,-4.211l3.004,0l0,0.852l-1.922,-0l-0,0.792l1.798,0l-0,0.852l-1.798,-0l-0,0.863l1.922,0l0,0.852l-3.004,0Z" style="fill:#eeeeee;fill-rule:nonzero;"/>
      <path d="M71.328,180.442c-0.316,0 -0.627,-0.041 -0.935,-0.124c-0.307,-0.083 -0.558,-0.195 -0.751,-0.337l0.349,-0.787c0.205,0.131 0.423,0.23 0.654,0.299c0.23,0.069 0.462,0.104 0.694,0.104c0.237,-0 0.418,-0.033 0.545,-0.098c0.126,-0.065 0.189,-0.157 0.189,-0.275c-0,-0.106 -0.057,-0.194 -0.172,-0.263c-0.114,-0.069 -0.329,-0.137 -0.644,-0.204c-0.399,-0.079 -0.708,-0.177 -0.929,-0.293c-0.221,-0.116 -0.375,-0.253 -0.464,-0.411c-0.089,-0.158 -0.133,-0.349 -0.133,-0.574c-0,-0.256 0.073,-0.488 0.219,-0.695c0.145,-0.207 0.35,-0.368 0.615,-0.485c0.264,-0.116 0.565,-0.174 0.905,-0.174c0.303,-0 0.598,0.042 0.884,0.127c0.286,0.085 0.509,0.196 0.671,0.334l-0.343,0.787c-0.185,-0.13 -0.38,-0.23 -0.586,-0.299c-0.205,-0.069 -0.41,-0.103 -0.615,-0.103c-0.201,-0 -0.362,0.038 -0.485,0.115c-0.122,0.077 -0.183,0.18 -0.183,0.31c0,0.071 0.022,0.131 0.065,0.178c0.044,0.047 0.124,0.093 0.243,0.139c0.118,0.045 0.295,0.093 0.532,0.145c0.382,0.083 0.683,0.182 0.902,0.298c0.219,0.117 0.373,0.253 0.464,0.409c0.091,0.155 0.136,0.342 0.136,0.558c0,0.41 -0.16,0.733 -0.479,0.967c-0.319,0.235 -0.769,0.352 -1.348,0.352Z" style="fill:#eeeeee;fill-rule:nonzero;"/>
    </g>
    <g id="CV1_images_Panel-MiniKnobTypeB_svg_0">
      <path id="path7809" d="M33.129,227.057l0.027,5.154" style="fill:none;fill-rule:nonzero;stroke:#eeeeee;stroke-width:1.3px;stroke-linecap:round;"/>
      <path id="path7812" d="M35.72,229.842l-5.154,0.024" style="fill:none;fill-rule:nonzero;stroke:#eeeeee;stroke-width:1.3px;stroke-linecap:round;"/>
      <path id="path7815" d="M14.795,229.697l-5.16,0.024" style="fill:none;fill-rule:nonzero;stroke:#eeeeee;stroke-width:1.3px;stroke-linecap:round;"/>
      <path id="path78182" serif:id="path7818" d="M34.058,225.75c3.2,-5.545 1.946,-12.654 -2.963,-16.774c-4.903,-4.116 -12.128,-4.116 -17.031,0c-4.906,4.12 -6.159,11.229 -2.96,16.774l11.477,-6.625l11.477,6.625Z" style="fill:none;fill-rule:nonzero;stroke:#eeeeee;stroke-width:1.3px;stroke-linecap:round;"/>
    </g>
    <g>
      <path id="any3" serif:id="any" d="M19.044,239.586c-0.437,0 -0.819,-0.089 -1.144,-0.269c-0.325,-0.179 -0.576,-0.433 -0.751,-0.76c-0.176,-0.327 -0.263,-0.706 -0.263,-1.135c-0,-0.426 0.087,-0.802 0.263,-1.127c0.175,-0.325 0.426,-0.578 0.751,-0.757c0.325,-0.18 0.707,-0.269 1.144,-0.269c0.276,-0 0.543,0.041 0.802,0.124c0.258,0.083 0.466,0.195 0.624,0.337l-0.337,0.787c-0.343,-0.249 -0.698,-0.373 -1.065,-0.373c-0.339,0 -0.599,0.108 -0.781,0.322c-0.181,0.215 -0.272,0.534 -0.272,0.956c0,0.425 0.091,0.747 0.272,0.964c0.182,0.217 0.442,0.325 0.781,0.325c0.367,-0 0.722,-0.124 1.065,-0.373l0.337,0.787c-0.158,0.142 -0.366,0.254 -0.624,0.337c-0.259,0.083 -0.526,0.124 -0.802,0.124Z" style="fill:#eeeeee;fill-rule:nonzero;"/>
      <path d="M24.078,235.322l1.117,0l-1.916,4.211l-0.881,0l-1.916,-4.211l1.153,0l1.212,2.827l1.231,-2.827Z" style="fill:#eeeeee;fill-rule:nonzero;"/>
      <path d="M27.614,238.652l0.911,-0l0,0.881l-2.922,0l0,-0.881l0.905,-0l0,-2.123l-0.845,0.485l-0,-0.953l1.301,-0.739l0.65,0l0,3.33Z" style="fill:#eeeeee;fill-rule:nonzero;"/>
    </g>
    <g id="CV1_images_Panel-JackInput_svg_1">
      <path d="M38.662,280.934l0,-7.174c0,-4.448 -3.61,-8.059 -8.058,-8.059l-16.117,0c-4.447,0 -8.058,3.611 -8.058,8.059l-0,7.174" style="fill:none;fill-rule:nonzero;stroke:#eeeeee;stroke-width:1.24px;stroke-linecap:round;"/>
    </g>
    <g>
      <path id="any4" serif:id="any" d="M19.044,301.687c-0.437,0 -0.819,-0.089 -1.144,-0.269c-0.325,-0.179 -0.576,-0.432 -0.751,-0.76c-0.176,-0.327 -0.263,-0.705 -0.263,-1.135c-0,-0.426 0.087,-0.802 0.263,-1.127c0.175,-0.325 0.426,-0.578 0.751,-0.757c0.325,-0.179 0.707,-0.269 1.144,-0.269c0.276,-0 0.543,0.041 0.802,0.124c0.258,0.083 0.466,0.195 0.624,0.337l-0.337,0.787c-0.343,-0.249 -0.698,-0.373 -1.065,-0.373c-0.339,0 -0.599,0.108 -0.781,0.323c-0.181,0.215 -0.272,0.533 -0.272,0.955c0,0.426 0.091,0.747 0.272,0.964c0.182,0.217 0.442,0.325 0.781,0.325c0.367,0 0.722,-0.124 1.065,-0.372l0.337,0.786c-0.158,0.142 -0.366,0.254 -0.624,0.337c-0.259,0.083 -0.526,0.124 -0.802,0.124Z" style="fill:#eeeeee;fill-rule:nonzero;"/>
      <path d="M24.078,297.423l1.117,0l-1.916,4.211l-0.881,0l-1.916,-4.211l1.153,0l1.212,2.827l1.231,-2.827Z" style="fill:#eeeeee;fill-rule:nonzero;"/>
      <path d="M27.614,300.753l0.911,-0l0,0.881l-2.922,0l0,-0.881l0.905,-0l0,-2.123l-0.845,0.485l-0,-0.953l1.301,-0.739l0.65,0l0,3.33Z" style="fill:#eeeeee;fill-rule:nonzero;"/>
    </g>
    <g id="CV2_images_Panel-MiniKnobTypeB_svg_0">
      <path id="path78091" serif:id="path7809" d="M78.197,227.057l0.027,5.154" style="fill:none;fill-rule:nonzero;stroke:#eeeeee;stroke-width:1.3px;stroke-linecap:round;"/>
      <path id="path78121" serif:id="path7812" d="M80.788,229.842l-5.155,0.024" style="fill:none;fill-rule:nonzero;stroke:#eeeeee;stroke-width:1.3px;stroke-linecap:round;"/>
      <path id="path78151" serif:id="path7815" d="M59.863,229.697l-5.161,0.024" style="fill:none;fill-rule:nonzero;stroke:#eeeeee;stroke-width:1.3px;stroke-linecap:round;"/>
      <path id="path78183" serif:id="path7818" d="M79.126,225.75c3.199,-5.545 1.946,-12.654 -2.963,-16.774c-4.903,-4.116 -12.128,-4.116 -17.031,0c-4.906,4.12 -6.16,11.229 -2.96,16.774l11.477,-6.625l11.477,6.625Z" style="fill:none;fill-rule:nonzero;stroke:#eeeeee;stroke-width:1.3px;stroke-linecap:round;"/>
    </g>
    <g>
      <path id="any5" serif:id="any" d="M64.112,239.586c-0.438,0 -0.819,-0.089 -1.144,-0.269c-0.326,-0.179 -0.576,-0.433 -0.752,-0.76c-0.175,-0.327 -0.263,-0.706 -0.263,-1.135c0,-0.426 0.088,-0.802 0.263,-1.127c0.176,-0.325 0.426,-0.578 0.752,-0.757c0.325,-0.18 0.706,-0.269 1.144,-0.269c0.276,-0 0.543,0.041 0.801,0.124c0.259,0.083 0.467,0.195 0.624,0.337l-0.337,0.787c-0.343,-0.249 -0.698,-0.373 -1.064,-0.373c-0.339,0 -0.6,0.108 -0.781,0.322c-0.181,0.215 -0.272,0.534 -0.272,0.956c-0,0.425 0.091,0.747 0.272,0.964c0.181,0.217 0.442,0.325 0.781,0.325c0.366,-0 0.721,-0.124 1.064,-0.373l0.337,0.787c-0.157,0.142 -0.365,0.254 -0.624,0.337c-0.258,0.083 -0.525,0.124 -0.801,0.124Z" style="fill:#eeeeee;fill-rule:nonzero;"/>
      <path d="M69.145,235.322l1.118,0l-1.916,4.211l-0.881,0l-1.917,-4.211l1.154,0l1.212,2.827l1.23,-2.827Z" style="fill:#eeeeee;fill-rule:nonzero;"/>
      <path d="M73.433,238.652l0,0.881l-2.969,0l0,-0.816l1.372,-1.431c0.257,-0.269 0.385,-0.519 0.385,-0.752c-0,-0.272 -0.162,-0.408 -0.485,-0.408c-0.166,0 -0.34,0.033 -0.524,0.098c-0.183,0.065 -0.367,0.159 -0.553,0.281l-0.349,-0.787c0.17,-0.138 0.39,-0.247 0.66,-0.328c0.27,-0.081 0.545,-0.121 0.825,-0.121c0.303,-0 0.569,0.048 0.795,0.145c0.227,0.096 0.403,0.234 0.527,0.414c0.124,0.179 0.186,0.389 0.186,0.63c0,0.244 -0.048,0.466 -0.145,0.665c-0.096,0.199 -0.261,0.423 -0.494,0.671l-0.84,0.858l1.609,-0Z" style="fill:#eeeeee;fill-rule:nonzero;"/>
    </g>
    <g id="CV2_images_Panel-JackInput_svg_1">
      <path d="M83.73,280.934l0,-7.174c0,-4.448 -3.611,-8.059 -8.058,-8.059l-16.117,0c-4.448,0 -8.058,3.611 -8.058,8.059l-0,7.174" style="fill:none;fill-rule:nonzero;stroke:#eeeeee;stroke-width:1.24px;stroke-linecap:round;"/>
    </g>
    <g>
      <path id="any6" serif:id="any" d="M64.112,301.687c-0.438,0 -0.819,-0.089 -1.144,-0.269c-0.326,-0.179 -0.576,-0.432 -0.752,-0.76c-0.175,-0.327 -0.263,-0.705 -0.263,-1.135c0,-0.426 0.088,-0.802 0.263,-1.127c0.176,-0.325 0.426,-0.578 0.752,-0.757c0.325,-0.179 0.706,-0.269 1.144,-0.269c0.276,-0 0.543,0.041 0.801,0.124c0.259,0.083 0.467,0.195 0.624,0.337l-0.337,0.787c-0.343,-0.249 -0.698,-0.373 -1.064,-0.373c-0.339,0 -0.6,0.108 -0.781,0.323c-0.181,0.215 -0.272,0.533 -0.272,0.955c-0,0.426 0.091,0.747 0.272,0.964c0.181,0.217 0.442,0.325 0.781,0.325c0.366,0 0.721,-0.124 1.064,-0.372l0.337,0.786c-0.157,0.142 -0.365,0.254 -0.624,0.337c-0.258,0.083 -0.525,0.124 -0.801,0.124Z" style="fill:#eeeeee;fill-rule:nonzero;"/>
      <path d="M69.145,297.423l1.118,0l-1.916,4.211l-0.881,0l-1.917,-4.211l1.154,0l1.212,2.827l1.23,-2.827Z" style="fill:#eeeeee;fill-rule:nonzero;"/>
      <path d="M73.433,300.753l0,0.881l-2.969,0l0,-0.816l1.372,-1.431c0.257,-0.268 0.385,-0.519 0.385,-0.751c-0,-0.272 -0.162,-0.408 -0.485,-0.408c-0.166,-0 -0.34,0.032 -0.524,0.097c-0.183,0.065 -0.367,0.159 -0.553,0.281l-0.349,-0.787c0.17,-0.138 0.39,-0.247 0.66,-0.328c0.27,-0.081 0.545,-0.121 0.825,-0.121c0.303,-0 0.569,0.048 0.795,0.145c0.227,0.096 0.403,0.234 0.527,0.414c0.124,0.179 0.186,0.389 0.186,0.63c0,0.244 -0.048,0.466 -0.145,0.665c-0.096,0.199 -0.261,0.423 -0.494,0.671l-0.84,0.858l1.609,-0Z" style="fill:#eeeeee;fill-rule:nonzero;"/>
    </g>
    <g id="INPUT_images_Panel-JackInput_svg_1">
      <path d="M38.662,322.335l0,-7.175c0,-4.447 -3.61,-8.058 -8.058,-8.058l-16.117,0c-4.447,0 -8.058,3.611 -8.058,8.058l-0,7.175" style="fill:none;fill-rule:nonzero;stroke:#eeeeee;stroke-width:1.24px;stroke-linecap:round;"/>
    </g>
    <g>
      <rect id="any7" serif:id="any" x="13.449" y="338.824" width="1.112" height="4.211" style="fill:#eeeeee;fill-rule:nonzero;"/>
      <path d="M18.039,338.824l1.047,-0l-0,4.211l-0.822,0l-1.911,-2.389l0,2.389l-1.035,0l0,-4.211l0.811,-0l1.91,2.378l-0,-2.378Z" style="fill:#eeeeee;fill-rule:nonzero;"/>
      <path d="M19.849,338.824l2.005,-0c0.481,-0 0.853,0.115 1.118,0.346c0.264,0.231 0.396,0.543 0.396,0.937c-0,0.391 -0.134,0.702 -0.402,0.935c-0.269,0.233 -0.639,0.349 -1.112,0.349l-0.893,-0l-0,1.644l-1.112,0l-0,-4.211Zm1.857,1.739c0.418,-0 0.627,-0.148 0.627,-0.444c-0,-0.15 -0.051,-0.263 -0.151,-0.34c-0.101,-0.077 -0.259,-0.115 -0.476,-0.115l-0.745,-0l-0,0.899l0.745,-0Z" style="fill:#eeeeee;fill-rule:nonzero;"/>
      <path d="M25.751,343.088c-0.615,0 -1.08,-0.155 -1.396,-0.464c-0.315,-0.31 -0.473,-0.764 -0.473,-1.363l0,-2.437l1.083,-0l-0,2.478c-0,0.304 0.068,0.536 0.204,0.698c0.136,0.162 0.33,0.242 0.582,0.242c0.249,0 0.44,-0.081 0.574,-0.245c0.134,-0.164 0.201,-0.395 0.201,-0.695l0,-2.478l1.094,-0l0,2.437c0,0.591 -0.16,1.044 -0.482,1.357c-0.321,0.314 -0.783,0.47 -1.387,0.47Z" style="fill:#eeeeee;fill-rule:nonzero;"/>
      <path d="M29.294,343.035l0,-3.312l-1.254,-0l0,-0.899l3.632,-0l-0,0.899l-1.254,-0l-0,3.312l-1.124,0Z" style="fill:#eeeeee;fill-rule:nonzero;"/>
    </g>
    <g id="OUPUT_images_Panel-JackOutput_svg_1">
      <path d="M83.73,315.16c0,-4.447 -3.611,-8.058 -8.058,-8.058l-16.117,0c-4.448,0 -8.058,3.611 -8.058,8.058l-0,23.812c-0,4.447 3.61,8.058 8.058,8.058l16.117,0c4.447,0 8.058,-3.611 8.058,-8.058l0,-23.812Z" style="fill:#eeeeee;fill-rule:nonzero;stroke:#eeeeee;stroke-width:1.24px;"/>
    </g>
    <g>
      <path id="any8" serif:id="any" d="M59.339,343.088c-0.43,0 -0.804,-0.087 -1.124,-0.263c-0.319,-0.175 -0.564,-0.427 -0.736,-0.754c-0.171,-0.327 -0.257,-0.71 -0.257,-1.147c-0,-0.438 0.087,-0.819 0.26,-1.142c0.174,-0.323 0.419,-0.573 0.736,-0.748c0.318,-0.176 0.691,-0.263 1.121,-0.263c0.43,-0 0.804,0.087 1.121,0.263c0.317,0.175 0.561,0.425 0.73,0.748c0.17,0.323 0.255,0.704 0.255,1.142c-0,0.437 -0.085,0.82 -0.255,1.147c-0.169,0.327 -0.413,0.579 -0.73,0.754c-0.317,0.176 -0.691,0.263 -1.121,0.263Zm0,-0.846c0.316,0 0.563,-0.112 0.742,-0.337c0.18,-0.224 0.27,-0.552 0.27,-0.981c-0,-0.426 -0.09,-0.751 -0.27,-0.973c-0.179,-0.223 -0.426,-0.335 -0.742,-0.335c-0.315,0 -0.562,0.111 -0.739,0.332c-0.178,0.221 -0.266,0.546 -0.266,0.976c-0,0.433 0.088,0.762 0.266,0.984c0.177,0.223 0.424,0.334 0.739,0.334Z" style="fill-rule:nonzero;"/>
      <path d="M63.946,343.088c-0.615,0 -1.08,-0.155 -1.395,-0.464c-0.316,-0.31 -0.473,-0.764 -0.473,-1.363l-0,-2.437l1.082,-0l-0,2.478c-0,0.304 0.068,0.536 0.204,0.698c0.136,0.162 0.33,0.242 0.582,0.242c0.249,0 0.44,-0.081 0.574,-0.245c0.134,-0.164 0.201,-0.395 0.201,-0.695l0,-2.478l1.094,-0l0,2.437c0,0.591 -0.16,1.044 -0.482,1.357c-0.321,0.314 -0.783,0.47 -1.387,0.47Z" style="fill-rule:nonzero;"/>
      <path d="M66.543,338.824l2.005,-0c0.481,-0 0.854,0.115 1.118,0.346c0.264,0.231 0.396,0.543 0.396,0.937c-0,0.391 -0.134,0.702 -0.402,0.935c-0.268,0.233 -0.639,0.349 -1.112,0.349l-0.893,-0l-0,1.644l-1.112,0l-0,-4.211Zm1.857,1.739c0.418,-0 0.627,-0.148 0.627,-0.444c-0,-0.15 -0.05,-0.263 -0.151,-0.34c-0.1,-0.077 -0.259,-0.115 -0.476,-0.115l-0.745,-0l-0,0.899l0.745,-0Z" style="fill-rule:nonzero;"/>
      <path d="M72.445,343.088c-0.615,0 -1.08,-0.155 -1.395,-0.464c-0.316,-0.31 -0.474,-0.764 -0.474,-1.363l0,-2.437l1.083,-0l-0,2.478c-0,0.304 0.068,0.536 0.204,0.698c0.136,0.162 0.33,0.242 0.582,0.242c0.249,0 0.44,-0.081 0.574,-0.245c0.134,-0.164 0.201,-0.395 0.201,-0.695l0,-2.478l1.094,-0l0,2.437c0,0.591 -0.16,1.044 -0.482,1.357c-0.321,0.314 -0.783,0.47 -1.387,0.47Z" style="fill-rule:nonzero;"/>
      <path d="M75.988,343.035l0,-3.312l-1.254,-0l0,-0.899l3.632,-0l-0,0.899l-1.254,-0l-0,3.312l-1.124,0Z" style="fill-rule:nonzero;"/>
    </g>
    <g>
      <path id="any9" serif:id="any" d="M23.468,18.193l2.094,-0l0,8.422l-1.644,-0l-3.821,-4.779l0,4.779l-2.07,-0l0,-8.422l1.621,-0l3.82,4.755l0,-4.755Z" style="fill:#eeeeee;fill-rule:nonzero;"/>
      <rect x="27.088" y="18.193" width="2.224" height="8.422" style="fill:#eeeeee;fill-rule:nonzero;"/>
      <path d="M32.718,26.615l0,-6.624l-2.507,-0l-0,-1.798l7.263,-0l-0,1.798l-2.508,-0l-0,6.624l-2.248,-0Z" style="fill:#eeeeee;fill-rule:nonzero;"/>
      <path d="M45.695,26.615l-2.354,-0l-1.089,-2.804c-0.126,-0.315 -0.421,-0.473 -0.887,-0.473l-0.804,0l-0,3.277l-2.188,-0l-0,-8.422l3.915,-0c1.017,-0 1.782,0.219 2.295,0.656c0.512,0.438 0.769,1.063 0.769,1.875c-0,0.568 -0.152,1.059 -0.456,1.473c-0.303,0.414 -0.731,0.707 -1.283,0.881c0.236,0.047 0.449,0.158 0.639,0.331c0.189,0.174 0.339,0.406 0.449,0.698l0.994,2.508Zm-3.762,-4.933c0.473,0 0.816,-0.073 1.029,-0.219c0.213,-0.146 0.32,-0.372 0.32,-0.68c-0,-0.323 -0.105,-0.556 -0.314,-0.698c-0.209,-0.142 -0.554,-0.213 -1.035,-0.213l-1.396,0l0,1.81l1.396,0Z" style="fill:#eeeeee;fill-rule:nonzero;"/>
      <path d="M50.769,26.721c-0.859,0 -1.609,-0.175 -2.247,-0.526c-0.639,-0.351 -1.13,-0.854 -1.473,-1.508c-0.343,-0.655 -0.515,-1.42 -0.515,-2.295c0,-0.875 0.174,-1.636 0.521,-2.283c0.347,-0.647 0.838,-1.145 1.473,-1.496c0.634,-0.351 1.382,-0.527 2.241,-0.527c0.86,0 1.607,0.176 2.242,0.527c0.635,0.351 1.122,0.849 1.461,1.496c0.339,0.647 0.508,1.408 0.508,2.283c0,0.875 -0.169,1.64 -0.508,2.295c-0.339,0.654 -0.826,1.157 -1.461,1.508c-0.635,0.351 -1.382,0.526 -2.242,0.526Zm0,-1.691c0.631,-0 1.126,-0.225 1.485,-0.675c0.359,-0.449 0.538,-1.104 0.538,-1.963c-0,-0.852 -0.179,-1.5 -0.538,-1.946c-0.359,-0.445 -0.854,-0.668 -1.485,-0.668c-0.631,-0 -1.124,0.221 -1.478,0.662c-0.355,0.442 -0.533,1.092 -0.533,1.952c0,0.867 0.178,1.524 0.533,1.969c0.354,0.446 0.847,0.669 1.478,0.669Z" style="fill:#eeeeee;fill-rule:nonzero;"/>
      <path d="M59.984,26.721c-1.23,0 -2.161,-0.309 -2.792,-0.928c-0.631,-0.619 -0.946,-1.528 -0.946,-2.727l-0,-4.873l2.165,-0l-0,4.956c-0,0.607 0.136,1.072 0.408,1.396c0.272,0.323 0.66,0.485 1.165,0.485c0.497,-0 0.879,-0.164 1.147,-0.491c0.268,-0.327 0.402,-0.791 0.402,-1.39l0,-4.956l2.189,-0l-0,4.873c-0,1.183 -0.322,2.088 -0.964,2.715c-0.643,0.627 -1.568,0.94 -2.774,0.94Z" style="fill:#eeeeee;fill-rule:nonzero;"/>
      <path d="M68.228,26.721c-0.63,0 -1.253,-0.083 -1.868,-0.248c-0.616,-0.166 -1.116,-0.391 -1.503,-0.674l0.698,-1.574c0.41,0.261 0.846,0.46 1.307,0.598c0.462,0.138 0.925,0.207 1.39,0.207c0.473,-0 0.836,-0.065 1.088,-0.195c0.253,-0.131 0.379,-0.314 0.379,-0.55c-0,-0.213 -0.114,-0.389 -0.343,-0.527c-0.229,-0.138 -0.659,-0.274 -1.289,-0.408c-0.797,-0.158 -1.416,-0.353 -1.858,-0.585c-0.441,-0.233 -0.751,-0.507 -0.928,-0.823c-0.178,-0.315 -0.266,-0.697 -0.266,-1.147c-0,-0.513 0.146,-0.976 0.437,-1.39c0.292,-0.414 0.702,-0.737 1.231,-0.97c0.528,-0.232 1.131,-0.349 1.809,-0.349c0.608,0 1.197,0.085 1.769,0.255c0.572,0.169 1.019,0.392 1.342,0.668l-0.686,1.573c-0.37,-0.26 -0.761,-0.459 -1.171,-0.597c-0.41,-0.138 -0.82,-0.207 -1.23,-0.207c-0.402,-0 -0.725,0.077 -0.97,0.23c-0.244,0.154 -0.367,0.361 -0.367,0.621c0,0.142 0.044,0.261 0.13,0.355c0.087,0.095 0.249,0.188 0.485,0.278c0.237,0.091 0.592,0.188 1.065,0.29c0.765,0.166 1.366,0.365 1.804,0.597c0.438,0.233 0.747,0.505 0.929,0.817c0.181,0.311 0.272,0.684 0.272,1.117c-0,0.821 -0.32,1.465 -0.959,1.934c-0.638,0.47 -1.537,0.704 -2.697,0.704Z" style="fill:#eeeeee;fill-rule:nonzero;"/>
    </g>
    <g>
      <path id="any10" serif:id="any" d="M29.001,32.458l0,4.507l-1.579,-0l0,-0.612c-0.13,0.213 -0.319,0.38 -0.568,0.501c-0.248,0.121 -0.52,0.182 -0.816,0.182c-0.384,-0 -0.727,-0.095 -1.029,-0.284c-0.302,-0.189 -0.537,-0.46 -0.705,-0.812c-0.169,-0.352 -0.253,-0.758 -0.253,-1.22c-0,-0.467 0.086,-0.881 0.257,-1.242c0.172,-0.36 0.408,-0.641 0.71,-0.842c0.302,-0.201 0.642,-0.302 1.02,-0.302c0.296,0 0.566,0.064 0.812,0.191c0.245,0.127 0.436,0.297 0.572,0.51l0,-0.577l1.579,0Zm-2.466,3.38c0.284,0 0.503,-0.097 0.656,-0.292c0.154,-0.196 0.231,-0.477 0.231,-0.843c0,-0.373 -0.077,-0.658 -0.231,-0.856c-0.153,-0.199 -0.372,-0.298 -0.656,-0.298c-0.278,0 -0.497,0.102 -0.657,0.306c-0.159,0.205 -0.239,0.493 -0.239,0.865c-0,0.361 0.077,0.638 0.231,0.83c0.153,0.192 0.375,0.288 0.665,0.288Z" style="fill:#eeeeee;fill-rule:nonzero;"/>
      <path d="M32.195,37.036c-0.763,-0 -1.36,-0.207 -1.792,-0.621c-0.432,-0.414 -0.648,-0.979 -0.648,-1.695c0,-0.473 0.105,-0.89 0.315,-1.25c0.21,-0.361 0.504,-0.641 0.883,-0.839c0.379,-0.198 0.816,-0.297 1.313,-0.297c0.331,0 0.656,0.049 0.976,0.146c0.319,0.098 0.574,0.23 0.763,0.395l-0.408,1.109c-0.16,-0.13 -0.346,-0.233 -0.559,-0.31c-0.213,-0.077 -0.417,-0.116 -0.612,-0.116c-0.332,0 -0.586,0.095 -0.763,0.284c-0.178,0.189 -0.266,0.47 -0.266,0.843c-0,0.379 0.088,0.664 0.266,0.856c0.177,0.192 0.434,0.288 0.772,0.288c0.195,0 0.397,-0.038 0.607,-0.115c0.21,-0.077 0.395,-0.18 0.555,-0.31l0.408,1.091c-0.195,0.171 -0.454,0.304 -0.776,0.399c-0.323,0.095 -0.667,0.142 -1.034,0.142Z" style="fill:#eeeeee;fill-rule:nonzero;"/>
      <path d="M34.528,36.965l0,-4.507l1.606,0l0,4.507l-1.606,-0Zm-0.044,-6.716l1.677,0l-0,1.446l-1.677,0l-0,-1.446Z" style="fill:#eeeeee;fill-rule:nonzero;"/>
      <path d="M41.838,30.435l0,6.53l-1.579,-0l0,-0.612c-0.13,0.213 -0.319,0.38 -0.567,0.501c-0.249,0.121 -0.521,0.182 -0.817,0.182c-0.384,-0 -0.727,-0.099 -1.029,-0.297c-0.301,-0.198 -0.537,-0.476 -0.705,-0.834c-0.169,-0.358 -0.253,-0.771 -0.253,-1.238c0,-0.461 0.084,-0.869 0.253,-1.224c0.168,-0.355 0.404,-0.628 0.705,-0.821c0.302,-0.192 0.645,-0.288 1.029,-0.288c0.284,0 0.546,0.059 0.785,0.177c0.24,0.119 0.431,0.278 0.573,0.48l-0,-2.556l1.605,0Zm-2.466,5.403c0.284,0 0.503,-0.099 0.657,-0.297c0.153,-0.198 0.23,-0.483 0.23,-0.856c0,-0.361 -0.078,-0.64 -0.235,-0.838c-0.157,-0.199 -0.374,-0.298 -0.652,-0.298c-0.29,0 -0.511,0.097 -0.665,0.289c-0.154,0.192 -0.231,0.468 -0.231,0.829c0,0.373 0.078,0.661 0.235,0.865c0.157,0.204 0.377,0.306 0.661,0.306Z" style="fill:#eeeeee;fill-rule:nonzero;"/>
      <path d="M48.918,30.205l1.703,-0l0,1.473l-1.703,-0l-0,-1.473Zm-1.553,2.253l3.212,0l-0,4.507l-1.615,-0l0,-3.327l-1.597,0l0,3.327l-1.605,-0l-0,-3.327l-0.843,0l-0,-1.18l0.843,0l-0,-0.275c-0,-0.449 0.072,-0.801 0.217,-1.056c0.145,-0.254 0.379,-0.437 0.701,-0.55c0.322,-0.112 0.764,-0.168 1.326,-0.168l0.391,-0l-0,1.144l-0.213,0c-0.243,0 -0.419,0.018 -0.528,0.054c-0.11,0.035 -0.185,0.103 -0.226,0.204c-0.042,0.1 -0.063,0.263 -0.063,0.488l0,0.159Z" style="fill:#eeeeee;fill-rule:nonzero;"/>
      <rect x="51.526" y="30.435" width="1.606" height="6.529" style="fill:#eeeeee;fill-rule:nonzero;"/>
      <path d="M56.752,35.741c0.106,-0 0.248,-0.018 0.425,-0.054l0,1.216c-0.218,0.089 -0.496,0.133 -0.833,0.133c-0.61,-0 -1.072,-0.172 -1.389,-0.515c-0.316,-0.343 -0.475,-0.819 -0.475,-1.428l0,-1.455l-0.842,0l-0,-1.18l0.842,0l0,-1.02l1.606,-0.515l0,1.535l1.083,0l-0,1.18l-1.083,0l0,1.455c0,0.213 0.064,0.374 0.191,0.484c0.127,0.109 0.285,0.164 0.475,0.164Z" style="fill:#eeeeee;fill-rule:nonzero;"/>
      <path d="M61.941,34.871l-2.83,0c0.03,0.349 0.131,0.601 0.302,0.754c0.172,0.154 0.423,0.231 0.754,0.231c0.225,0 0.45,-0.037 0.674,-0.111c0.225,-0.074 0.429,-0.176 0.613,-0.306l0.408,1.065c-0.225,0.165 -0.497,0.295 -0.817,0.39c-0.319,0.095 -0.638,0.142 -0.958,0.142c-0.514,-0 -0.961,-0.095 -1.339,-0.284c-0.379,-0.189 -0.669,-0.46 -0.87,-0.812c-0.201,-0.352 -0.301,-0.767 -0.301,-1.246c-0,-0.456 0.096,-0.862 0.288,-1.22c0.192,-0.358 0.458,-0.637 0.798,-0.838c0.341,-0.201 0.729,-0.302 1.167,-0.302c0.426,0 0.798,0.095 1.118,0.284c0.319,0.189 0.565,0.46 0.736,0.812c0.172,0.352 0.257,0.761 0.257,1.228l0,0.213Zm-2.067,-1.437c-0.396,0 -0.644,0.231 -0.745,0.692l1.437,0c-0.059,-0.461 -0.289,-0.692 -0.692,-0.692Z" style="fill:#eeeeee;fill-rule:nonzero;"/>
      <path d="M65.534,32.352c0.219,-0 0.388,0.032 0.506,0.097l0,1.464c-0.254,-0.118 -0.5,-0.177 -0.736,-0.177c-0.674,-0 -1.012,0.322 -1.012,0.967l0,2.262l-1.605,-0l-0,-3.212c-0,-0.485 -0.024,-0.916 -0.071,-1.295l1.508,0l0.097,0.754c0.107,-0.278 0.278,-0.491 0.515,-0.638c0.237,-0.148 0.503,-0.222 0.798,-0.222Z" style="fill:#eeeeee;fill-rule:nonzero;"/>
    </g>
    <g id="logo_images_Panel-Logo_svg_0">
      <ellipse cx="45.112" cy="356.15" rx="11.977" ry="11.932" style="fill:none;stroke:#eeeeee;stroke-width:1.33px;"/>
      <path d="M32.071,369.656l1.966,-0l1.834,6.124l1.895,-6.124l1.961,-0l-2.549,7.656c-0.24,0.707 -0.665,1.059 -1.281,1.059c-0.624,-0 -1.055,-0.355 -1.292,-1.068l-2.534,-7.647Z" style="fill:#eeeeee;fill-rule:nonzero;"/>
      <path d="M39.875,376.132l-0,-6.476l1.845,-0l0,6.414c0.033,0.231 0.246,0.346 0.639,0.346l1.257,-0c0.375,-0 0.585,-0.107 0.627,-0.322l0.011,-0.06l0,-6.378l1.849,-0l-0,6.464c-0,0.565 -0.062,0.967 -0.187,1.207c-0.328,0.63 -0.904,0.946 -1.735,0.946l-2.387,-0c-0.855,-0 -1.437,-0.322 -1.748,-0.973c-0.115,-0.236 -0.171,-0.627 -0.171,-1.168Z" style="fill:#eeeeee;fill-rule:nonzero;"/>
      <path d="M46.951,376.167l0,-6.511l1.846,-0l-0,6.364c-0,0.263 0.156,0.396 0.467,0.396l3.288,-0l-0.011,1.857l-3.437,-0c-0.121,-0 -0.227,-0.003 -0.319,-0.012c-0.665,-0.056 -1.136,-0.251 -1.417,-0.585c-0.278,-0.332 -0.417,-0.834 -0.417,-1.509Z" style="fill:#eeeeee;fill-rule:nonzero;"/>
      <path d="M52.614,371.516l0,-1.86l5.539,-0l0,1.86l-1.86,-0l0,6.757l-1.845,-0l-0,-6.757l-1.834,-0Z" style="fill:#eeeeee;fill-rule:nonzero;"/>
      <path d="M45.372,365.223l0,-3.182l0.151,0.071c0.509,0.236 1.145,0.538 1.15,0.544c0.009,0.009 -1.12,2.245 -1.247,2.469l-0.054,0.098Zm-1.183,-1.284c-0.354,-0.694 -0.647,-1.268 -0.65,-1.271c-0.006,-0.012 1.283,-0.621 1.295,-0.609c0.003,0.003 0.006,0.712 0.003,1.576l-0.003,1.57l-0.645,-1.266Zm4.155,-0.319c-0.328,-0.032 -0.446,-0.047 -0.461,-0.065c-0.012,-0.015 -0.148,-0.228 -0.302,-0.476l-0.278,-0.45l0.698,-1.573c0.385,-0.863 0.719,-1.617 0.743,-1.671l0.047,-0.1l0.671,-0.382c0.37,-0.21 0.698,-0.399 0.725,-0.42c0.029,-0.023 0.269,-0.346 0.532,-0.724c0.263,-0.376 0.482,-0.683 0.482,-0.68c-0,0.003 -0.101,0.707 -0.231,1.564l-0.23,1.564l-0.828,1.775l-0.556,0.843c-0.305,0.464 -0.559,0.839 -0.562,0.839c-0.006,0 -0.21,-0.02 -0.45,-0.044Zm-7.573,-0.795l-0.544,-0.825l-0.423,-0.905l-0.423,-0.902l-0.242,-1.645c-0.134,-0.901 -0.243,-1.644 -0.24,-1.647c0.003,0 0.242,0.34 0.538,0.757c0.293,0.42 0.55,0.778 0.571,0.796c0.021,0.021 0.346,0.21 0.724,0.426c0.376,0.213 0.692,0.396 0.704,0.408c0.015,0.018 1.384,3.078 1.426,3.191c0.014,0.041 -0.009,0.082 -0.29,0.538c-0.169,0.272 -0.317,0.508 -0.328,0.523c-0.018,0.024 -0.101,0.036 -0.468,0.068c-0.245,0.024 -0.449,0.042 -0.452,0.042c-0.006,-0 -0.254,-0.37 -0.553,-0.825Zm2.617,-0.743c-0.006,-0.029 -0.112,-0.887 -0.242,-1.91l-0.231,-1.857l1.925,-1.925l0,5.077l-0.713,0.334c-0.393,0.184 -0.715,0.335 -0.721,0.335c-0.006,-0 -0.015,-0.024 -0.018,-0.054Zm2.703,-0.284l-0.71,-0.334l-0.003,-2.537l-0.006,-2.537l1.934,1.934l-0.233,1.869c-0.127,1.029 -0.237,1.886 -0.243,1.907c-0.003,0.018 -0.012,0.036 -0.018,0.036c-0.008,-0 -0.331,-0.154 -0.721,-0.338Zm-3.747,-1.786c-0.192,-0.431 -0.352,-0.795 -0.361,-0.813c-0.009,-0.024 0.036,-0.071 0.216,-0.231c0.124,-0.112 0.231,-0.201 0.237,-0.195c0.009,0.009 0.263,2.011 0.257,2.017c-0.003,0.003 -0.16,-0.349 -0.349,-0.778Zm5.196,0.728c0.003,-0.036 0.059,-0.488 0.124,-1.006c0.062,-0.52 0.118,-0.946 0.121,-0.949c0.003,-0.003 0.11,0.086 0.237,0.198l0.234,0.207l-0.03,0.065c-0.139,0.323 -0.668,1.508 -0.68,1.526c-0.012,0.018 -0.012,0.006 -0.006,-0.041Zm0.754,-2.218l-0.293,-0.26l0.166,-0.107c1.644,-1.073 2.377,-1.558 2.407,-1.585c0.021,-0.021 0.284,-0.618 0.609,-1.384l0.574,-1.351l-0,-1.479l-0.039,-0.053c-0.076,-0.115 -0.212,-0.16 -0.325,-0.11c-0.024,0.012 -0.529,0.412 -1.124,0.891l-1.082,0.872l-0.798,1.011c-0.441,0.556 -0.808,1.018 -0.82,1.029c-0.011,0.012 -0.286,-0.248 -1.067,-1.011c-0.577,-0.565 -1.05,-1.032 -1.05,-1.038c0,-0.015 3.389,-5.583 3.404,-5.595c0.006,-0.003 0.538,0.405 1.186,0.908l1.174,0.914l0.792,1.425l0.793,1.428l-0.039,0.479l-0.035,0.482l-2.866,4.081l-0.618,0.352c-0.34,0.195 -0.627,0.355 -0.638,0.358c-0.009,0.003 -0.148,-0.112 -0.311,-0.257Zm-7.316,-0.107l-0.615,-0.349l-2.869,-4.086l-0.035,-0.479l-0.036,-0.482l0.79,-1.426l0.792,-1.425l1.174,-0.914c0.645,-0.503 1.177,-0.908 1.186,-0.902c0.006,0.006 0.775,1.269 1.713,2.806l1.7,2.792l-0.432,0.423c-1.378,1.348 -1.668,1.629 -1.68,1.629c-0.008,0 -0.363,-0.443 -0.792,-0.984c-0.426,-0.539 -0.799,-1.006 -0.825,-1.035c-0.044,-0.048 -1.967,-1.603 -2.162,-1.754c-0.056,-0.041 -0.077,-0.047 -0.165,-0.047c-0.113,-0 -0.169,0.029 -0.222,0.124c-0.033,0.05 -0.033,0.086 -0.039,0.783l-0.003,0.728l0.574,1.351c0.367,0.867 0.589,1.367 0.615,1.393c0.024,0.024 0.609,0.417 1.301,0.87l1.26,0.825l-0.287,0.254c-0.156,0.142 -0.295,0.257 -0.307,0.257c-0.012,0 -0.299,-0.159 -0.636,-0.352Zm5.367,-1.798l-0.973,-0.97l0.006,-0.511l0.003,-0.512l1.94,1.893l0.003,0.538c0,0.293 -0.003,0.535 -0.006,0.535c0,0 -0.44,-0.437 -0.973,-0.973Zm-3.439,0.964l-0,-1.067l0.964,-0.943l0.964,-0.941l0.009,1.017l-0.97,0.967l-0.967,0.967Zm2.466,-7.514c0,-1.996 0.006,-2.987 0.018,-2.987c0.009,0 0.665,0.166 1.461,0.37c0.795,0.204 1.496,0.382 1.558,0.396c0.077,0.021 0.107,0.036 0.101,0.051c-0.006,0.017 -2.951,4.858 -3.09,5.083l-0.048,0.074l0,-2.987Zm-2.108,0.391c-0.861,-1.417 -1.565,-2.579 -1.562,-2.579c0.012,-0.012 3.126,-0.801 3.132,-0.796c0.003,0.006 0.006,1.346 0.003,2.978l-0.003,2.972l-1.57,-2.575Z" style="fill:#eeeeee;fill-rule:nonzero;"/>
    </g>
  </g>
</svg>