<svg width="150px" height="380px" version="1.1" xmlns="http://www.w3.org/2000/svg" xmlns:xlink="http://www.w3.org/1999/xlink" xml:space="preserve" xmlns:serif="http://www.serif.com/" style="fill-rule:evenodd;clip-rule:evenodd;stroke-linecap:round;stroke-miterlimit:10;">
  <defs>
    <linearGradient id="_Linear1" x1="0" y1="0" x2="1" y2="0" gradientUnits="userSpaceOnUse" gradientTransform="matrix(0.007008,-37.8989,37.8989,0.007008,75.2834,111.76)">
      <stop offset="0" style="stop-color:#202020;stop-opacity:1"/>
      <stop offset="1" style="stop-color:#202020;stop-opacity:1"/>
    </linearGradient>
    <linearGradient id="_Linear2" x1="0" y1="0" x2="1" y2="0" gradientUnits="userSpaceOnUse" gradientTransform="matrix(-4.88,-92.58,92.58,-4.88,277.54,345.475)">
      <stop offset="0" style="stop-color:#202020;stop-opacity:1"/>
      <stop offset="1" style="stop-color:#202020;stop-opacity:1"/>
    </linearGradient>
    <linearGradient id="_Linear3" x1="0" y1="0" x2="1" y2="0" gradientUnits="userSpaceOnUse" gradientTransform="matrix(-4.75,94.86,-94.86,-4.75,277.54,158.035)">
      <stop offset="0" style="stop-color:#202020;stop-opacity:1"/>
      <stop offset="1" style="stop-color:#202020;stop-opacity:1"/>
    </linearGradient>
    <linearGradient id="_Linear4" x1="0" y1="0" x2="1" y2="0" gradientUnits="userSpaceOnUse" gradientTransform="matrix(1.15392e-16,-1.8845,1.8845,1.15392e-16,56.519,1.50128)">
      <stop offset="0" style="stop-color:#202020;stop-opacity:1"/>
      <stop offset="1" style="stop-color:#202020;stop-opacity:1"/>
    </linearGradient>
  </defs>
  <g id="Panel">
    <g>
      <rect x="0" y="-0.435" width="150" height="380" style="fill:url(#_Linear1);"/>
      <rect x="0" y="252.895" width="150" height="126.67" style="fill:url(#_Linear2);"/>
      <rect x="0" y="126.235" width="150" height="126.67" style="fill:url(#_Linear3);"/>
      <rect x="0" y="-0.435" width="150" height="380" style="fill:rgb(16,53,80);fill-opacity:0.1;"/>
      <rect x="0" y="-0.435" width="150" height="2" style="fill:url(#_Linear4);"/>
    </g>
    <g>
      <path d="M62.9,363.496l3.443,10.383c0.322,0.968 0.909,1.451 1.756,1.451c0.835,0 1.414,-0.476 1.737,-1.435l3.46,-10.398l-2.66,0l-2.574,8.318l-2.49,-8.318l-2.672,-0.001Zm10.598,0l0,8.793c0,0.736 0.078,1.265 0.234,1.588c0.423,0.881 1.214,1.32 2.373,1.32l3.243,0c1.126,0 1.912,-0.429 2.357,-1.287c0.168,-0.324 0.25,-0.87 0.25,-1.639l0,-8.775l-2.506,0l0,8.658l-0.018,0.084c-0.056,0.29 -0.34,0.436 -0.853,0.436l-1.705,0c-0.535,0 -0.826,-0.157 -0.87,-0.469l0,-8.709l-2.505,0Zm9.611,0l0,8.842c0,0.914 0.19,1.598 0.569,2.049c0.378,0.452 1.019,0.717 1.922,0.795c0.123,0.011 0.268,0.015 0.435,0.015l4.664,0l0.016,-2.523l-4.463,0c-0.424,0 -0.634,-0.178 -0.634,-0.535l0,-8.643l-2.509,0Zm7.69,0l0,2.525l2.49,0l0,9.176l2.508,0l0,-9.176l2.523,0l0,-2.525l-7.521,0Z" style="fill:rgb(102,102,102);fill-rule:nonzero;"/>
      <path d="M59.3,369.416c0,-4.509 -3.655,-8.165 -8.164,-8.165c-4.509,0 -8.165,3.656 -8.165,8.165c0,4.509 3.656,8.165 8.165,8.165c4.509,0 8.164,-3.656 8.164,-8.165Z" style="fill:rgb(117,117,117);fill-rule:nonzero;stroke:rgb(53,53,53);stroke-width:0.61px;"/>
      <g>
        <path d="M49.32,374.389l0.553,-0.89l-1.064,-2.393l-2.216,-2.284l0.46,3.101l0.597,1.28l0.833,1.263l0.837,-0.077Z" style="fill:rgb(43,43,43);fill-rule:nonzero;"/>
        <path d="M53.05,374.399l-0.553,-0.891l1.064,-2.393l2.216,-2.284l-0.46,3.101l-0.597,1.28l-0.833,1.264l-0.837,-0.077Z" style="fill:#202020;fill-rule:nonzero;"/>
        <path d="M48.64,363.359l2.584,-0.661l0,13.448l-1.349,-2.651l-1.061,-2.385l-1.022,-0.581l-2.052,-2.921l-0.057,-0.775l1.148,-2.067l1.809,-1.407Z" style="fill:rgb(66,66,66);fill-rule:nonzero;"/>
        <path d="M53.8,363.359l-2.584,-0.66l0,13.448l1.35,-2.651l1.06,-2.385l1.023,-0.581l2.051,-2.921l0.058,-0.775l-1.149,-2.068l-1.809,-1.407Z" style="fill:rgb(51,51,51);fill-rule:nonzero;"/>
        <path d="M49.5,369.239l1.723,-1.685l0,1.23l-1.723,1.718l0,-1.263" style="fill:rgb(76,76,76);fill-rule:nonzero;"/>
        <path d="M51.22,368.779l-1.723,1.718l0.377,3.004l1.346,2.643l0,-7.365Z" style="fill:rgb(91,91,91);fill-rule:nonzero;"/>
        <path d="M51.22,376.149l-1.346,-2.643l1.346,-0.635l0,3.278Z" style="fill:rgb(51,51,51);fill-rule:nonzero;"/>
        <path d="M49.5,370.499l0,-1.264l-1.249,-1.579l-1.477,-1.19l-0.001,0.932l0.775,1.823l1.952,1.278Z" style="fill:#eeeeee;fill-rule:nonzero;"/>
        <path d="M52.94,369.239l-1.722,-1.684l0,1.23l1.722,1.718l0,-1.264" style="fill:rgb(45,45,45);fill-rule:nonzero;"/>
        <path d="M51.22,368.779l1.722,1.718l-0.376,3.004l-1.347,2.643l0.001,-7.365Z" style="fill:rgb(53,53,53);fill-rule:nonzero;"/>
        <path d="M51.22,376.149l1.347,-2.643l-1.346,-0.635l-0.001,3.278Z" style="fill:#202020;fill-rule:nonzero;"/>
        <path d="M52.94,370.499l0,-1.264l1.249,-1.579l1.478,-1.19l0.001,0.932l-0.775,1.823l-1.953,1.278Z" style="fill:#eeeeee;fill-rule:nonzero;"/>
        <path d="M48.65,363.339l2.566,4.216l-0.005,-4.87" style="fill:rgb(56,56,56);fill-rule:nonzero;"/>
        <path d="M53.78,363.339l-2.566,4.215l0.006,-4.87" style="fill:rgb(45,45,45);fill-rule:nonzero;"/>
        <path d="M48.81,371.109l0.688,-0.61l0.375,3.006l-1.063,-2.396Z" style="fill:rgb(51,51,51);fill-rule:nonzero;"/>
        <path d="M53.63,371.129l-0.688,-0.61l-0.375,3.006l1.063,-2.396Z" style="fill:rgb(28,28,28);fill-rule:nonzero;"/>
      </g>
    </g>
    <path d="M25.095,350.84l0,6.035l1.57,0l0,-6.035l-1.57,0Zm2.834,0l0,6.035l1.568,0l0,-3.689l2.897,3.689l1.56,0l0,-6.035l-1.56,0l0,3.691l-2.897,-3.691l-1.568,0Zm7.291,0l0,6.035l1.569,0l-0.001,-2l0.928,0c0.676,0 1.197,-0.177 1.557,-0.529c0.361,-0.352 0.541,-0.848 0.541,-1.488c0,-0.64 -0.18,-1.137 -0.541,-1.489c-0.36,-0.353 -0.881,-0.529 -1.557,-0.529l-2.496,0Zm5.426,0l0,3.498c0,0.94 0.216,1.626 0.648,2.059c0.432,0.432 1.093,0.646 1.985,0.646c0.892,0 1.552,-0.214 1.98,-0.646c0.428,-0.433 0.645,-1.119 0.645,-2.059l0,-3.498l-1.561,0l0,3.283c0,0.176 -0.01,0.355 -0.019,0.539c-0.012,0.184 -0.056,0.352 -0.125,0.5c-0.068,0.148 -0.176,0.273 -0.316,0.365c-0.14,0.092 -0.344,0.139 -0.604,0.139c-0.26,0 -0.463,-0.047 -0.607,-0.139c-0.144,-0.092 -0.249,-0.217 -0.317,-0.365c-0.068,-0.148 -0.109,-0.316 -0.121,-0.5c-0.012,-0.184 -0.02,-0.363 -0.02,-0.539l0,-3.283l-1.568,0Zm5.953,0l0,1.33l1.289,0l0,4.705l1.57,0l0,-4.705l1.287,0l0,-1.33l-4.146,0Zm-9.81,1.266l0.519,0c0.576,0 0.865,0.252 0.865,0.752c0,0.5 -0.289,0.752 -0.865,0.752l-0.519,0l0,-1.504Z" style="fill:#eeeeee;"/>
    <path d="M24.19,321.32l0,3.529l1.412,0l0,0.997l-2.589,0l0,-4.526l1.177,0Z" style="fill:rgb(140,140,140);fill-rule:nonzero;"/>
    <path d="M49.827,323.35l0.224,0c0.232,0 0.408,-0.048 0.532,-0.144c0.124,-0.096 0.188,-0.236 0.188,-0.416c0,-0.181 -0.064,-0.317 -0.188,-0.413c-0.124,-0.096 -0.3,-0.144 -0.532,-0.144l-0.224,0l0,1.117Zm2.589,2.501l-1.465,0l-1.124,-1.741l0,1.741l-1.177,0l0,-4.526l1.833,0c0.252,0 0.472,0.04 0.66,0.112c0.188,0.076 0.34,0.176 0.464,0.304c0.12,0.128 0.213,0.276 0.277,0.444c0.06,0.168 0.092,0.348 0.092,0.541c0,0.344 -0.084,0.624 -0.249,0.836c-0.168,0.212 -0.412,0.36 -0.736,0.436l1.425,1.853Z" style="fill:rgb(140,140,140);fill-rule:nonzero;"/>
    <path d="M21.415,317.99c-5.95,0 -10.793,4.481 -10.793,9.988l0,13.145c0,0.801 1.298,0.801 1.298,0l0,-13.145c0,-4.857 4.247,-8.789 9.495,-8.789l32.921,0c5.249,0 9.498,3.932 9.498,8.789l0,13.145c0,0.843 1.33,0.831 1.295,0l0,-13.145c0,-5.506 -4.842,-9.988 -10.793,-9.988l-32.921,0Z" style="fill:#eeeeee;"/>
    <path d="M95.722,317.99c-5.64,0 -10.233,4.362 -10.233,9.721l0,23.115c0,5.36 4.593,9.722 10.233,9.722l32.622,0c5.641,0 10.233,-4.363 10.233,-9.722l0,-23.115c0,-5.359 -4.592,-9.721 -10.233,-9.721l-32.622,0Z" style="fill:none;stroke:#eeeeee;stroke-width:1.23px;stroke-linecap:butt;"/>
    <path d="M97.765,350.76c-0.493,0 -0.942,0.08 -1.35,0.244c-0.408,0.16 -0.758,0.389 -1.05,0.678c-0.293,0.288 -0.526,0.624 -0.69,1.008c-0.164,0.388 -0.248,0.805 -0.248,1.254c0,0.448 0.084,0.868 0.248,1.252c0.164,0.388 0.397,0.723 0.69,1.011c0.292,0.289 0.642,0.512 1.05,0.676c0.408,0.164 0.857,0.244 1.35,0.244c0.484,0 0.932,-0.08 1.34,-0.244c0.412,-0.164 0.763,-0.387 1.06,-0.676c0.296,-0.288 0.53,-0.623 0.694,-1.011c0.168,-0.384 0.248,-0.804 0.248,-1.252c0,-0.449 -0.08,-0.866 -0.248,-1.254c-0.164,-0.384 -0.398,-0.72 -0.694,-1.008c-0.297,-0.289 -0.648,-0.518 -1.06,-0.678c-0.408,-0.164 -0.856,-0.244 -1.34,-0.244Zm4.334,0.168l0,3.494c0,0.94 0.216,1.626 0.648,2.059c0.433,0.432 1.093,0.646 1.985,0.646c0.889,0 1.548,-0.214 1.98,-0.646c0.428,-0.433 0.645,-1.119 0.645,-2.059l0,-3.494l-1.561,0l0,3.279c0,0.176 -0.01,0.355 -0.019,0.539c-0.016,0.184 -0.057,0.352 -0.125,0.5c-0.072,0.148 -0.174,0.274 -0.314,0.366c-0.14,0.092 -0.345,0.138 -0.606,0.138c-0.26,0 -0.465,-0.046 -0.609,-0.138c-0.144,-0.092 -0.247,-0.218 -0.314,-0.366c-0.068,-0.148 -0.109,-0.316 -0.122,-0.5c-0.012,-0.184 -0.019,-0.363 -0.019,-0.539l0,-3.279l-1.569,0Zm5.955,0l0,1.326l1.283,0l0,4.705l1.569,0l0,-4.705l1.289,0l0,-1.326l-4.141,0Zm4.838,0l0,6.031l1.568,0l0,-2l0.928,0c0.676,0 1.197,-0.177 1.557,-0.529c0.361,-0.352 0.541,-0.848 0.541,-1.488c0,-0.64 -0.18,-1.133 -0.541,-1.485c-0.36,-0.353 -0.881,-0.529 -1.557,-0.529l-2.496,0Zm5.422,0l0,3.494c0,0.94 0.216,1.626 0.648,2.059c0.433,0.432 1.097,0.646 1.985,0.646c0.893,0 1.552,-0.214 1.98,-0.646c0.428,-0.433 0.645,-1.119 0.645,-2.059l0,-3.494l-1.561,0l0,3.279c0,0.176 -0.01,0.355 -0.02,0.539c-0.012,0.184 -0.057,0.352 -0.125,0.5c-0.068,0.148 -0.176,0.274 -0.316,0.366c-0.14,0.092 -0.34,0.138 -0.604,0.138c-0.26,0 -0.463,-0.046 -0.607,-0.138c-0.144,-0.092 -0.249,-0.218 -0.317,-0.366c-0.064,-0.148 -0.105,-0.316 -0.121,-0.5c-0.012,-0.184 -0.02,-0.363 -0.02,-0.539l0,-3.279l-1.567,0Zm5.955,0l0,1.326l1.287,0l0,4.705l1.57,0l0,-4.705l1.284,0l0,-1.326l-4.141,0Zm-9.809,1.262l0.52,0c0.576,0 0.865,0.252 0.865,0.752c0,0.504 -0.289,0.752 -0.865,0.752l-0.52,0l0,-1.504Zm-16.695,0.088c0.228,0 0.445,0.045 0.653,0.125c0.204,0.084 0.383,0.199 0.539,0.347c0.16,0.152 0.285,0.328 0.373,0.528c0.092,0.204 0.137,0.425 0.137,0.666c0,0.24 -0.045,0.464 -0.137,0.664c-0.088,0.204 -0.213,0.379 -0.373,0.527c-0.156,0.152 -0.335,0.264 -0.539,0.348c-0.208,0.084 -0.425,0.125 -0.653,0.125c-0.233,0 -0.448,-0.041 -0.652,-0.125c-0.208,-0.084 -0.389,-0.196 -0.541,-0.348c-0.156,-0.148 -0.279,-0.323 -0.367,-0.527c-0.092,-0.2 -0.137,-0.424 -0.137,-0.664c0,-0.241 0.045,-0.462 0.137,-0.666c0.088,-0.2 0.211,-0.376 0.367,-0.528c0.152,-0.148 0.333,-0.263 0.541,-0.347c0.204,-0.08 0.419,-0.125 0.652,-0.125Z" style="fill:#eeeeee;fill-rule:nonzero;"/>
    <path d="M98.377,321.32l0,3.529l1.412,0l0,0.997l-2.589,0l0,-4.526l1.177,0Z" style="fill:rgb(140,140,140);fill-rule:nonzero;"/>
    <path d="M124.01,323.35l0.224,0c0.232,0 0.408,-0.048 0.532,-0.144c0.124,-0.096 0.188,-0.236 0.188,-0.416c0,-0.181 -0.064,-0.317 -0.188,-0.413c-0.124,-0.096 -0.3,-0.144 -0.532,-0.144l-0.224,0l0,1.117Zm2.589,2.501l-1.465,0l-1.124,-1.741l0,1.741l-1.177,0l0,-4.526l1.833,0c0.252,0 0.472,0.04 0.66,0.112c0.188,0.076 0.34,0.176 0.464,0.304c0.12,0.128 0.213,0.276 0.277,0.444c0.06,0.168 0.092,0.348 0.092,0.541c0,0.344 -0.084,0.624 -0.249,0.836c-0.168,0.212 -0.412,0.36 -0.736,0.436l1.425,1.853Z" style="fill:rgb(140,140,140);fill-rule:nonzero;"/>
    <path d="M45.191,247.992c-5.706,0 -11.412,1.934 -16.027,5.804c-9.23,7.746 -11.587,21.128 -5.565,31.564c0.392,0.723 1.469,0.101 1.039,-0.599c-5.733,-9.934 -3.488,-22.672 5.297,-30.045c8.786,-7.369 21.725,-7.369 30.51,0c8.786,7.372 11.03,20.111 5.297,30.045c-0.43,0.7 0.647,1.322 1.039,0.599c6.023,-10.436 3.666,-23.819 -5.564,-31.564c-4.615,-3.87 -10.32,-5.804 -16.025,-5.804l-0.001,0Zm-18.531,41.404c-0.328,0.005 -0.594,0.279 -0.59,0.607l0,3.383l-3.315,0c-0.008,-0.001 -0.015,-0.001 -0.023,-0.001c-0.329,0 -0.6,0.271 -0.6,0.6c0,0.33 0.271,0.6 0.6,0.6c0.008,0 0.015,0 0.023,0l3.315,0l0,3.418c-0.001,0.008 -0.001,0.016 -0.001,0.023c0,0.33 0.271,0.6 0.6,0.6c0.33,0 0.6,-0.27 0.6,-0.6c0,-0.007 0,-0.015 0,-0.023l0,-3.418l3.486,0c0.008,0 0.016,0 0.024,0c0.329,0 0.6,-0.27 0.6,-0.6c0,-0.329 -0.271,-0.6 -0.6,-0.6c-0.008,0 -0.016,0 -0.024,0.001l-3.486,0l0,-3.383c0,-0.003 0,-0.005 0,-0.007c0,-0.33 -0.271,-0.601 -0.6,-0.601c-0.003,0 -0.006,0 -0.009,0.001l0,0Zm40.891,1.115c-0.155,0.005 -0.302,0.07 -0.411,0.181l-2.392,2.393l-2.344,-2.344c-0.114,-0.125 -0.275,-0.196 -0.444,-0.196c-0.329,0 -0.6,0.271 -0.6,0.6c0,0.169 0.071,0.33 0.196,0.444l2.344,2.344l-2.418,2.416c-0.111,0.112 -0.174,0.264 -0.174,0.422c0,0.329 0.271,0.6 0.601,0.6c0.158,0 0.31,-0.063 0.423,-0.175l2.416,-2.416l2.465,2.465c0.113,0.125 0.275,0.196 0.444,0.196c0.329,0 0.6,-0.27 0.6,-0.6c0,-0.169 -0.072,-0.33 -0.197,-0.444l-2.465,-2.464l2.393,-2.393c0.116,-0.113 0.181,-0.268 0.181,-0.43c0,-0.162 -0.066,-0.318 -0.183,-0.431c-0.116,-0.113 -0.274,-0.173 -0.435,-0.168l0,0Z" style="fill:#eeeeee;fill-rule:nonzero;"/>
    <g>
      <path d="M39.859,34.308l-1.179,0l0,4.251l-1.377,0l0,-4.251l-0.703,0l0,-0.861l0.703,0l0,-0.321c0,-1.356 0.648,-2.035 1.946,-2.035c0.328,0 0.738,0.039 1.229,0.117l1.42,0l0,7.351l-1.379,0l0,-6.458c-0.266,-0.104 -0.532,-0.157 -0.796,-0.157c-0.694,0 -1.043,0.356 -1.043,1.07l0,0.433l1.179,0l0,0.861Z" style="fill:#eeeeee;fill-rule:nonzero;"/>
      <path d="M43.621,38.559l0,-5.112l1.377,0l0,5.112l-1.377,0Zm0,-5.973l0,-1.151l1.377,0l0,1.151l-1.377,0Z" style="fill:#eeeeee;fill-rule:nonzero;"/>
      <path d="M46.721,40.398l0,-6.951l1.378,0l0,0.964c0.354,-0.72 0.911,-1.08 1.671,-1.08c0.615,0 1.098,0.225 1.451,0.675c0.352,0.45 0.528,1.07 0.528,1.857c0,0.857 -0.199,1.54 -0.596,2.049c-0.397,0.509 -0.93,0.763 -1.597,0.763c-0.536,0 -1.022,-0.21 -1.457,-0.633l0,2.356l-1.378,0Zm1.378,-3.175c0.335,0.372 0.692,0.559 1.071,0.559c0.338,0 0.608,-0.164 0.81,-0.491c0.202,-0.328 0.303,-0.765 0.303,-1.311c0,-1.046 -0.337,-1.569 -1.01,-1.569c-0.407,0 -0.799,0.262 -1.174,0.786l0,2.026Z" style="fill:#eeeeee;fill-rule:nonzero;"/>
      <rect x="53.095" y="35.17" width="4.251" height="0.861" style="fill:#eeeeee;"/>
      <path d="M61.829,34.308l-1.179,0l0,4.251l-1.377,0l0,-4.251l-0.703,0l0,-0.861l0.703,0l0,-0.321c0,-1.356 0.648,-2.035 1.946,-2.035c0.328,0 0.738,0.039 1.228,0.117l1.42,0l0,7.351l-1.377,0l0,-6.458c-0.267,-0.104 -0.533,-0.157 -0.797,-0.157c-0.695,0 -1.043,0.356 -1.043,1.07l0,0.433l1.179,0l0,0.861Z" style="fill:#eeeeee;fill-rule:nonzero;"/>
      <path d="M67.736,38.675c-0.797,0 -1.432,-0.241 -1.902,-0.724c-0.47,-0.483 -0.705,-1.132 -0.705,-1.948c0,-0.826 0.237,-1.477 0.711,-1.956c0.473,-0.477 1.116,-0.716 1.929,-0.716c0.816,0 1.461,0.239 1.934,0.716c0.473,0.479 0.711,1.127 0.711,1.947c0,0.838 -0.238,1.495 -0.713,1.969c-0.474,0.475 -1.13,0.712 -1.965,0.712Zm0.023,-0.861c0.792,0 1.188,-0.607 1.188,-1.82c0,-0.556 -0.105,-0.995 -0.314,-1.318c-0.21,-0.323 -0.498,-0.483 -0.864,-0.483c-0.363,0 -0.649,0.16 -0.859,0.483c-0.21,0.323 -0.314,0.765 -0.314,1.327c0,0.556 0.103,0.996 0.312,1.322c0.207,0.327 0.491,0.489 0.851,0.489Z" style="fill:#eeeeee;fill-rule:nonzero;"/>
      <path d="M71.68,40.398l0,-6.951l1.377,0l0,0.964c0.354,-0.72 0.912,-1.08 1.672,-1.08c0.614,0 1.098,0.225 1.451,0.675c0.351,0.45 0.528,1.07 0.528,1.857c0,0.857 -0.199,1.54 -0.596,2.049c-0.397,0.509 -0.93,0.763 -1.597,0.763c-0.537,0 -1.022,-0.21 -1.458,-0.633l0,2.356l-1.377,0Zm1.377,-3.175c0.336,0.372 0.693,0.559 1.072,0.559c0.338,0 0.608,-0.164 0.81,-0.491c0.201,-0.328 0.303,-0.765 0.303,-1.311c0,-1.046 -0.338,-1.569 -1.011,-1.569c-0.407,0 -0.798,0.262 -1.174,0.786l0,2.026Z" style="fill:#eeeeee;fill-rule:nonzero;"/>
      <path d="M83.287,38.675c-0.799,0 -1.432,-0.241 -1.903,-0.724c-0.47,-0.483 -0.705,-1.132 -0.705,-1.948c0,-0.826 0.237,-1.477 0.71,-1.956c0.473,-0.477 1.116,-0.716 1.929,-0.716c0.817,0 1.461,0.239 1.935,0.716c0.473,0.479 0.71,1.127 0.71,1.947c0,0.838 -0.237,1.495 -0.712,1.969c-0.475,0.475 -1.13,0.712 -1.964,0.712Zm0.023,-0.861c0.791,0 1.187,-0.607 1.187,-1.82c0,-0.556 -0.105,-0.995 -0.315,-1.318c-0.209,-0.323 -0.497,-0.483 -0.864,-0.483c-0.362,0 -0.649,0.16 -0.858,0.483c-0.21,0.323 -0.315,0.765 -0.315,1.327c0,0.556 0.105,0.996 0.313,1.322c0.207,0.327 0.492,0.489 0.852,0.489Z" style="fill:#eeeeee;fill-rule:nonzero;"/>
      <path d="M91.001,38.447c-0.572,0.152 -1.101,0.228 -1.588,0.228c-0.817,0 -1.461,-0.24 -1.935,-0.718c-0.473,-0.48 -0.709,-1.133 -0.709,-1.958c0,-0.836 0.243,-1.489 0.731,-1.961c0.487,-0.471 1.16,-0.707 2.02,-0.707c0.416,0 0.895,0.066 1.439,0.2l0,0.996c-0.565,-0.183 -1.017,-0.274 -1.355,-0.274c-0.413,0 -0.745,0.158 -0.996,0.474c-0.252,0.317 -0.378,0.737 -0.378,1.262c0,0.537 0.137,0.967 0.408,1.29c0.272,0.323 0.634,0.484 1.087,0.484c0.413,0 0.838,-0.09 1.276,-0.27l0,0.954Z" style="fill:#eeeeee;fill-rule:nonzero;"/>
      <path d="M94.94,38.531c-0.33,0.096 -0.589,0.144 -0.779,0.144c-1.194,0 -1.792,-0.559 -1.792,-1.676l0,-2.691l-0.572,0l0,-0.861l0.572,0l0,-0.861l1.378,-0.159l0,1.02l1.094,0l0,0.861l-1.094,0l0,2.509c0,0.628 0.257,0.942 0.768,0.942c0.119,0 0.26,-0.023 0.425,-0.066l0,0.838Z" style="fill:#eeeeee;fill-rule:nonzero;"/>
      <path d="M98.673,38.009c-0.459,0.444 -0.951,0.666 -1.476,0.666c-0.447,0 -0.81,-0.136 -1.089,-0.409c-0.28,-0.273 -0.419,-0.627 -0.419,-1.062c0,-0.565 0.226,-1 0.677,-1.306c0.452,-0.306 1.098,-0.458 1.94,-0.458l0.367,0l0,-0.466c0,-0.531 -0.303,-0.796 -0.907,-0.796c-0.538,0 -1.081,0.152 -1.63,0.456l0,-0.95c0.624,-0.236 1.241,-0.353 1.853,-0.353c1.337,0 2.006,0.532 2.006,1.596l0,2.263c0,0.4 0.129,0.6 0.387,0.6c0.047,0 0.107,-0.005 0.181,-0.018l0.033,0.773c-0.292,0.087 -0.55,0.13 -0.773,0.13c-0.564,0 -0.928,-0.222 -1.09,-0.666l-0.06,0Zm0,-0.74l0,-1.038l-0.326,0c-0.891,0 -1.336,0.279 -1.336,0.838c0,0.19 0.064,0.349 0.193,0.478c0.129,0.128 0.288,0.192 0.477,0.192c0.323,0 0.654,-0.156 0.992,-0.47Z" style="fill:#eeeeee;fill-rule:nonzero;"/>
      <path d="M103.035,38.559l-1.95,-5.112l1.453,0l1.429,3.687l1.42,-3.687l0.996,0l-1.969,5.112l-1.379,0Z" style="fill:#eeeeee;fill-rule:nonzero;"/>
      <path d="M111.593,38.386c-0.656,0.193 -1.276,0.289 -1.863,0.289c-0.853,0 -1.527,-0.242 -2.02,-0.726c-0.494,-0.484 -0.74,-1.145 -0.74,-1.983c0,-0.792 0.225,-1.428 0.676,-1.911c0.452,-0.483 1.049,-0.724 1.791,-0.724c0.748,0 1.294,0.236 1.639,0.707c0.344,0.472 0.517,1.219 0.517,2.239l-3.171,0c0.093,0.975 0.628,1.462 1.607,1.462c0.461,0 0.983,-0.106 1.564,-0.32l0,0.967Zm-3.19,-2.886l1.834,0c0,-0.872 -0.28,-1.307 -0.843,-1.307c-0.57,0 -0.901,0.435 -0.991,1.307Z" style="fill:#eeeeee;fill-rule:nonzero;"/>
      <path d="M113.017,38.559l0,-5.112l1.378,0l0,0.964c0.357,-0.72 0.9,-1.08 1.63,-1.08c0.086,0 0.172,0.009 0.256,0.027l0,1.229c-0.196,-0.07 -0.377,-0.106 -0.545,-0.106c-0.55,0 -0.997,0.278 -1.341,0.833l0,3.245l-1.378,0Z" style="fill:#eeeeee;fill-rule:nonzero;"/>
    </g>
    <g>
      <path d="M38.683,27.195l0,-9.484l2.465,0l4.554,5.799l0,-5.799l2.453,0l0,9.484l-2.453,0l-4.554,-5.799l0,5.799l-2.465,0Z" style="fill:#eeeeee;fill-rule:nonzero;"/>
      <path d="M52.408,22.452c0,0.378 0.07,0.726 0.213,1.044c0.142,0.319 0.336,0.596 0.579,0.831c0.243,0.235 0.526,0.417 0.849,0.546c0.323,0.131 0.664,0.196 1.025,0.196c0.361,0 0.702,-0.065 1.026,-0.196c0.322,-0.129 0.607,-0.311 0.855,-0.546c0.248,-0.235 0.442,-0.512 0.585,-0.831c0.142,-0.318 0.214,-0.666 0.214,-1.044c0,-0.377 -0.072,-0.724 -0.214,-1.044c-0.143,-0.318 -0.337,-0.595 -0.585,-0.83c-0.248,-0.234 -0.533,-0.417 -0.855,-0.547c-0.324,-0.129 -0.665,-0.195 -1.026,-0.195c-0.361,0 -0.702,0.066 -1.025,0.195c-0.323,0.13 -0.606,0.313 -0.849,0.547c-0.243,0.235 -0.437,0.512 -0.579,0.83c-0.143,0.32 -0.213,0.667 -0.213,1.044Zm-2.58,0c0,-0.704 0.13,-1.36 0.39,-1.968c0.26,-0.608 0.621,-1.139 1.082,-1.592c0.462,-0.453 1.013,-0.807 1.654,-1.063c0.642,-0.256 1.349,-0.384 2.12,-0.384c0.763,0 1.468,0.128 2.114,0.384c0.645,0.256 1.201,0.61 1.666,1.063c0.466,0.453 0.829,0.984 1.088,1.592c0.26,0.608 0.391,1.264 0.391,1.968c0,0.705 -0.131,1.361 -0.391,1.969c-0.259,0.608 -0.622,1.138 -1.088,1.591c-0.465,0.453 -1.021,0.807 -1.666,1.063c-0.646,0.256 -1.351,0.384 -2.114,0.384c-0.771,0 -1.478,-0.128 -2.12,-0.384c-0.641,-0.256 -1.192,-0.61 -1.654,-1.063c-0.461,-0.453 -0.822,-0.983 -1.082,-1.591c-0.26,-0.608 -0.39,-1.264 -0.39,-1.969Z" style="fill:#eeeeee;fill-rule:nonzero;"/>
      <path d="M64.358,22.062l0.817,0c0.906,0 1.359,-0.393 1.359,-1.182c0,-0.788 -0.453,-1.182 -1.359,-1.182l-0.817,0l0,2.364Zm0,5.133l-2.466,0l0,-9.484l3.925,0c1.065,0 1.881,0.275 2.447,0.829c0.566,0.553 0.849,1.334 0.849,2.34c0,1.006 -0.283,1.787 -0.849,2.339c-0.566,0.554 -1.382,0.831 -2.447,0.831l-1.459,0l0,3.145Z" style="fill:#eeeeee;fill-rule:nonzero;"/>
      <path d="M75.63,20.137c-0.27,-0.217 -0.537,-0.379 -0.806,-0.483c-0.268,-0.105 -0.528,-0.157 -0.779,-0.157c-0.32,0 -0.58,0.074 -0.781,0.226c-0.201,0.151 -0.302,0.348 -0.302,0.591c0,0.168 0.05,0.305 0.152,0.415c0.099,0.109 0.233,0.203 0.395,0.283c0.164,0.08 0.349,0.149 0.554,0.208c0.205,0.059 0.409,0.121 0.61,0.188c0.805,0.269 1.395,0.627 1.768,1.076c0.373,0.449 0.559,1.034 0.559,1.754c0,0.488 -0.081,0.927 -0.245,1.321c-0.164,0.395 -0.402,0.733 -0.717,1.013c-0.314,0.281 -0.7,0.499 -1.157,0.655c-0.457,0.154 -0.975,0.232 -1.554,0.232c-1.199,0 -2.31,-0.356 -3.334,-1.068l1.057,-1.989c0.369,0.328 0.734,0.57 1.095,0.73c0.36,0.16 0.717,0.238 1.068,0.238c0.404,0 0.704,-0.092 0.901,-0.275c0.197,-0.186 0.295,-0.395 0.295,-0.63c0,-0.143 -0.025,-0.265 -0.075,-0.371c-0.051,-0.105 -0.135,-0.201 -0.252,-0.289c-0.117,-0.089 -0.271,-0.17 -0.46,-0.246c-0.187,-0.075 -0.417,-0.159 -0.684,-0.25c-0.32,-0.102 -0.632,-0.212 -0.938,-0.335c-0.306,-0.121 -0.579,-0.282 -0.818,-0.483c-0.238,-0.203 -0.431,-0.456 -0.578,-0.762c-0.148,-0.306 -0.221,-0.694 -0.221,-1.163c0,-0.47 0.079,-0.896 0.233,-1.277c0.156,-0.382 0.373,-0.709 0.654,-0.982c0.281,-0.271 0.625,-0.483 1.032,-0.635c0.407,-0.151 0.862,-0.227 1.364,-0.227c0.47,0 0.961,0.066 1.472,0.196c0.513,0.129 1.003,0.32 1.473,0.572l-0.981,1.924Z" style="fill:#eeeeee;fill-rule:nonzero;"/>
      <path d="M81.013,21.622l3.007,-3.911l3.044,0l-3.761,4.489l4.114,4.995l-3.195,0l-3.209,-4.113l0,4.113l-2.465,0l0,-9.484l2.465,0l0,3.911Z" style="fill:#eeeeee;fill-rule:nonzero;"/>
      <path d="M93.669,23.672l-1.107,-3.156l-1.108,3.156l2.215,0Zm0.654,1.875l-3.523,0l-0.566,1.648l-2.629,0l3.61,-9.484l2.692,0l3.611,9.484l-2.629,0l-0.566,-1.648Z" style="fill:#eeeeee;fill-rule:nonzero;"/>
      <path d="M101.783,19.798l0,7.397l-2.466,0l0,-7.397l-2.025,0l0,-2.087l6.515,0l0,2.087l-2.024,0Z" style="fill:#eeeeee;fill-rule:nonzero;"/>
      <path d="M110.299,19.798l-2.932,0l0,1.585l2.768,0l0,2.088l-2.768,0l0,1.636l2.932,0l0,2.088l-5.397,0l0,-9.484l5.397,0l0,2.087Z" style="fill:#eeeeee;fill-rule:nonzero;"/>
    </g>
    <path d="M37.685,296.86c-0.428,0 -0.82,0.071 -1.18,0.215c-0.356,0.14 -0.661,0.34 -0.922,0.588c-0.256,0.252 -0.455,0.548 -0.599,0.888c-0.144,0.337 -0.217,0.706 -0.217,1.098c0,0.388 0.073,0.756 0.217,1.092c0.144,0.34 0.343,0.636 0.599,0.888c0.261,0.253 0.566,0.448 0.922,0.588c0.36,0.144 0.752,0.217 1.18,0.217c0.424,0 0.816,-0.073 1.176,-0.217c0.36,-0.14 0.669,-0.335 0.929,-0.588c0.261,-0.252 0.46,-0.548 0.604,-0.888c0.144,-0.336 0.217,-0.704 0.217,-1.092c0,-0.392 -0.073,-0.761 -0.217,-1.098c-0.144,-0.34 -0.343,-0.636 -0.604,-0.888c-0.26,-0.248 -0.569,-0.448 -0.929,-0.588c-0.36,-0.144 -0.752,-0.215 -1.176,-0.215Zm6.334,0c-0.368,0 -0.721,0.071 -1.057,0.207c-0.336,0.136 -0.63,0.328 -0.882,0.572c-0.257,0.248 -0.458,0.537 -0.61,0.877c-0.152,0.34 -0.228,0.711 -0.228,1.115c0,0.405 0.076,0.781 0.232,1.125c0.152,0.341 0.357,0.641 0.613,0.889c0.252,0.248 0.547,0.444 0.879,0.58c0.332,0.14 0.685,0.209 1.049,0.209c0.176,0 0.357,-0.021 0.537,-0.053c0.184,-0.036 0.38,-0.092 0.588,-0.164l0.141,-0.052l0,-1.625c-0.348,0.376 -0.746,0.56 -1.186,0.56c-0.2,0 -0.384,-0.035 -0.556,-0.111c-0.176,-0.072 -0.324,-0.177 -0.452,-0.309c-0.128,-0.128 -0.228,-0.283 -0.3,-0.459c-0.076,-0.176 -0.112,-0.372 -0.112,-0.58c0,-0.208 0.036,-0.398 0.112,-0.578c0.072,-0.176 0.168,-0.327 0.297,-0.455c0.124,-0.128 0.275,-0.233 0.451,-0.305c0.172,-0.076 0.364,-0.111 0.568,-0.111c0.468,0 0.862,0.192 1.178,0.58l0,-1.637c-0.224,-0.096 -0.437,-0.165 -0.641,-0.209c-0.204,-0.044 -0.409,-0.066 -0.621,-0.066l0,0Zm9.744,0.008c-0.296,0 -0.572,0.046 -0.82,0.146c-0.252,0.096 -0.469,0.238 -0.649,0.422c-0.184,0.18 -0.323,0.397 -0.423,0.649c-0.101,0.252 -0.153,0.532 -0.153,0.84l1.502,0c-0.016,-0.096 -0.021,-0.173 -0.021,-0.225c0,-0.18 0.052,-0.331 0.156,-0.451c0.104,-0.124 0.253,-0.186 0.437,-0.186c0.1,0 0.184,0.021 0.256,0.053c0.072,0.036 0.136,0.085 0.184,0.141c0.052,0.06 0.091,0.123 0.115,0.199c0.028,0.076 0.041,0.152 0.041,0.232c0,0.076 -0.013,0.164 -0.037,0.272c-0.024,0.108 -0.084,0.248 -0.176,0.42c-0.096,0.172 -0.243,0.384 -0.439,0.633c-0.196,0.252 -0.465,0.555 -0.813,0.916l-1.308,1.357l4.25,0l0,-1.16l-1.709,0l0.877,-0.821c0.272,-0.256 0.467,-0.509 0.591,-0.753c0.125,-0.245 0.184,-0.511 0.184,-0.799c0,-0.272 -0.052,-0.526 -0.152,-0.754c-0.104,-0.232 -0.248,-0.432 -0.428,-0.6c-0.184,-0.168 -0.4,-0.3 -0.648,-0.392c-0.249,-0.093 -0.521,-0.139 -0.817,-0.139l0,0Zm-8.111,0.139l0,1.162l1.125,0l0,4.117l1.373,0l0,-4.117l1.129,0l0,-1.162l-3.627,0Zm-7.967,1.185c0.2,0 0.392,0.036 0.572,0.108c0.18,0.072 0.337,0.172 0.477,0.304c0.136,0.132 0.244,0.283 0.324,0.459c0.08,0.18 0.119,0.374 0.119,0.586c0,0.208 -0.039,0.4 -0.119,0.58c-0.08,0.176 -0.188,0.331 -0.324,0.459c-0.14,0.132 -0.297,0.233 -0.477,0.305c-0.18,0.072 -0.372,0.107 -0.572,0.107c-0.2,0 -0.392,-0.035 -0.568,-0.107c-0.18,-0.072 -0.341,-0.173 -0.473,-0.305c-0.136,-0.128 -0.244,-0.283 -0.324,-0.459c-0.08,-0.18 -0.119,-0.372 -0.119,-0.58c0,-0.212 0.039,-0.406 0.119,-0.586c0.08,-0.176 0.188,-0.327 0.324,-0.459c0.132,-0.132 0.293,-0.232 0.473,-0.304c0.176,-0.072 0.368,-0.108 0.568,-0.108Zm11.725,1.692l0,1.056l2.01,0l0,-1.056l-2.01,0Z" style="fill:#eeeeee;fill-rule:nonzero;"/>
    <path d="M45.428,46.873c-5.706,0 -11.412,1.934 -16.027,5.805c-9.229,7.746 -11.587,21.128 -5.564,31.564c0.391,0.723 1.468,0.101 1.039,-0.599c-5.733,-9.934 -3.488,-22.672 5.296,-30.045c8.786,-7.369 21.725,-7.369 30.511,0c8.785,7.372 11.029,20.111 5.296,30.045c-0.429,0.7 0.648,1.322 1.039,0.599c6.023,-10.436 3.666,-23.819 -5.564,-31.564c-4.615,-3.871 -10.32,-5.805 -16.025,-5.805l-0.001,0Zm-18.883,41.52c-2.371,0 -4.307,1.936 -4.307,4.307c0,2.371 1.936,4.305 4.307,4.305c2.371,0 4.307,-1.934 4.307,-4.305c0,-2.371 -1.936,-4.307 -4.307,-4.307Zm37.766,0c-2.371,0 -4.305,1.934 -4.305,4.305c0,2.371 1.934,4.307 4.305,4.307c2.371,0 4.307,-1.936 4.307,-4.307c0,-2.371 -1.936,-4.305 -4.307,-4.305Zm-37.766,1.2c1.722,0 3.105,1.385 3.105,3.107c0,1.723 -1.383,3.106 -3.105,3.106c-1.723,0 -3.106,-1.383 -3.106,-3.106c0,-1.722 1.383,-3.107 3.106,-3.107Z" style="fill:#eeeeee;fill-rule:nonzero;"/>
    <path d="M113.21,47.07c-0.332,0.006 -0.596,0.28 -0.59,0.612l0.002,1.408c-2.52,0.13 -5.006,1.042 -7.047,2.756c-4.419,3.707 -5.55,10.112 -2.668,15.105l0.301,0.519l10.035,-5.793l10.035,5.793l0.301,-0.519c2.882,-4.994 1.752,-11.398 -2.668,-15.105c-2.052,-1.723 -4.555,-2.636 -7.09,-2.758l-0.002,-1.41c0.004,-0.338 -0.271,-0.613 -0.609,-0.608l0,0Zm-0.586,3.219l0.02,10.35l-8.903,5.141c-2.209,-4.403 -1.209,-9.814 2.606,-13.014c1.819,-1.528 4.031,-2.348 6.277,-2.477Zm1.199,0c2.26,0.121 4.488,0.94 6.317,2.477l0.002,0c3.815,3.2 4.813,8.611 2.603,13.014l-8.902,-5.141l-0.02,-10.35Zm8.852,16.951c-0.331,0.007 -0.926,0.28 -0.919,0.611l0.01,1.582l-1.606,0.008c-0.831,-0.027 -0.825,1.236 0.006,1.2l1.606,-0.008l0.01,1.628c-0.027,0.831 1.236,0.823 1.199,-0.008l-0.008,-1.625l1.603,-0.008c0.801,-0.004 0.795,-1.205 -0.006,-1.201l-1.605,0.008l-0.008,-1.584c0.002,-0.338 -0.276,-0.611 -0.614,-0.603l0.332,0Zm-16.092,2.057l-4.414,0.019c-0.801,0.004 -0.795,1.205 0.006,1.201l4.414,-0.021c0.831,0.028 0.824,-1.235 -0.006,-1.199Z" style="fill:#eeeeee;fill-rule:nonzero;"/>
    <g id="text9293-4">
      <path d="M33.415,102.523l0.344,0c0.396,0 0.676,-0.052 0.848,-0.152c0.173,-0.1 0.257,-0.264 0.257,-0.488c0,-0.224 -0.084,-0.388 -0.257,-0.488c-0.172,-0.1 -0.452,-0.152 -0.848,-0.152l-0.344,0l0,1.28Zm0,-2.449l0.288,0c0.492,0 0.736,-0.196 0.736,-0.584c0,-0.388 -0.244,-0.584 -0.736,-0.584l-0.288,0l0,1.168Zm-1.569,-2.369l2.337,0c0.556,0 0.977,0.132 1.265,0.401c0.288,0.268 0.432,0.652 0.432,1.152c0,0.304 -0.056,0.556 -0.164,0.756c-0.108,0.201 -0.276,0.369 -0.5,0.509c0.224,0.044 0.416,0.108 0.572,0.196c0.156,0.088 0.284,0.196 0.384,0.324c0.1,0.128 0.168,0.272 0.212,0.432c0.044,0.16 0.064,0.332 0.064,0.512c0,0.284 -0.048,0.532 -0.148,0.753c-0.1,0.22 -0.236,0.404 -0.416,0.552c-0.18,0.148 -0.396,0.26 -0.652,0.336c-0.256,0.076 -0.545,0.112 -0.865,0.112l-2.521,0l0,-6.035Z" style="fill:#eeeeee;fill-rule:nonzero;"/>
      <path d="M38.953,97.705l0,4.706l1.881,0l0,1.329l-3.449,0l0,-6.035l1.568,0Z" style="fill:#eeeeee;fill-rule:nonzero;"/>
      <path d="M45.076,99.034l-1.865,0l0,1.008l1.761,0l0,1.329l-1.761,0l0,1.04l1.865,0l0,1.329l-3.434,0l0,-6.035l3.434,0l0,1.329Z" style="fill:#eeeeee;fill-rule:nonzero;"/>
      <path d="M46.204,103.74l0,-6.035l1.569,0l2.897,3.69l0,-3.69l1.561,0l0,6.035l-1.561,0l-2.897,-3.69l0,3.69l-1.569,0Z" style="fill:#eeeeee;fill-rule:nonzero;"/>
      <path d="M55.064,102.411l0.36,0c0.272,0 0.517,-0.044 0.729,-0.128c0.212,-0.084 0.392,-0.204 0.54,-0.352c0.148,-0.148 0.26,-0.328 0.336,-0.532c0.076,-0.204 0.116,-0.432 0.116,-0.676c0,-0.24 -0.04,-0.464 -0.12,-0.673c-0.08,-0.208 -0.192,-0.388 -0.34,-0.536c-0.148,-0.148 -0.328,-0.268 -0.54,-0.352c-0.212,-0.084 -0.453,-0.128 -0.721,-0.128l-0.36,0l0,3.377Zm-1.569,-4.706l2.321,0c0.413,0 0.797,0.084 1.157,0.249c0.36,0.164 0.676,0.384 0.944,0.66c0.268,0.276 0.481,0.596 0.637,0.96c0.156,0.364 0.232,0.749 0.232,1.149c0,0.396 -0.076,0.776 -0.228,1.14c-0.152,0.364 -0.365,0.688 -0.633,0.965c-0.268,0.276 -0.584,0.5 -0.944,0.664c-0.36,0.164 -0.748,0.248 -1.165,0.248l-2.321,0l0,-6.035Z" style="fill:#eeeeee;fill-rule:nonzero;"/>
    </g>
    <g>
      <g id="text9293-41" serif:id="text9293-4">
        <rect x="22.351" y="157.282" width="2.297" height="1.209" style="fill:#eeeeee;"/>
        <path d="M26.769,155.321l-0.88,0l0,-1.324l2.445,0l0,6.03l-1.565,0l0,-4.706Z" style="fill:#eeeeee;fill-rule:nonzero;"/>
      </g>
      <g id="text9293-42" serif:id="text9293-4">
        <rect x="59.477" y="156.692" width="2.297" height="1.209" style="fill:#eeeeee;"/>
        <path d="M66.852,159.437l-4.854,0l1.497,-1.553c0.392,-0.408 0.704,-0.756 0.924,-1.044c0.224,-0.284 0.392,-0.524 0.5,-0.724c0.113,-0.196 0.181,-0.356 0.205,-0.48c0.028,-0.121 0.04,-0.225 0.04,-0.313c0,-0.088 -0.012,-0.176 -0.044,-0.264c-0.028,-0.084 -0.072,-0.16 -0.132,-0.228c-0.057,-0.064 -0.129,-0.12 -0.213,-0.16c-0.08,-0.04 -0.18,-0.056 -0.292,-0.056c-0.212,0 -0.376,0.068 -0.496,0.204c-0.12,0.14 -0.18,0.312 -0.18,0.52c0,0.06 0.008,0.144 0.024,0.257l-1.713,0c0,-0.353 0.056,-0.673 0.172,-0.961c0.112,-0.284 0.276,-0.532 0.485,-0.74c0.208,-0.208 0.452,-0.368 0.74,-0.48c0.284,-0.112 0.596,-0.168 0.936,-0.168c0.336,0 0.649,0.052 0.933,0.16c0.288,0.104 0.532,0.256 0.74,0.448c0.208,0.192 0.372,0.42 0.488,0.684c0.12,0.26 0.176,0.548 0.176,0.856c0,0.333 -0.068,0.637 -0.212,0.917c-0.14,0.28 -0.364,0.568 -0.676,0.86l-1.001,0.937l1.953,0l0,1.328Z" style="fill:#eeeeee;fill-rule:nonzero;"/>
      </g>
      <path d="M45.112,111.997c-5.705,0 -11.412,1.934 -16.027,5.805c-9.229,7.745 -11.587,21.128 -5.564,31.564c0.391,0.722 1.468,0.101 1.039,-0.6c-5.733,-9.934 -3.488,-22.672 5.297,-30.045c8.785,-7.368 21.725,-7.368 30.51,0c8.786,7.373 11.03,20.111 5.297,30.045c-0.43,0.701 0.647,1.322 1.039,0.6c6.022,-10.436 3.665,-23.819 -5.565,-31.564c-4.614,-3.871 -10.32,-5.805 -16.025,-5.805l-0.001,0Z" style="fill:#eeeeee;fill-rule:nonzero;"/>
    </g>
    <g id="text9293-43" serif:id="text9293-4">
      <path d="M31.439,166.643c0,0.208 0.04,0.4 0.12,0.58c0.08,0.176 0.188,0.332 0.324,0.46c0.132,0.132 0.292,0.232 0.472,0.304c0.176,0.072 0.368,0.108 0.568,0.108c0.2,0 0.393,-0.036 0.573,-0.108c0.18,-0.072 0.336,-0.172 0.476,-0.304c0.136,-0.128 0.244,-0.284 0.324,-0.46c0.08,-0.18 0.12,-0.372 0.12,-0.58c0,-0.212 -0.04,-0.404 -0.12,-0.584c-0.08,-0.176 -0.188,-0.329 -0.324,-0.461c-0.14,-0.132 -0.296,-0.232 -0.476,-0.304c-0.18,-0.072 -0.373,-0.108 -0.573,-0.108c-0.2,0 -0.392,0.036 -0.568,0.108c-0.18,0.072 -0.34,0.172 -0.472,0.304c-0.136,0.132 -0.244,0.285 -0.324,0.461c-0.08,0.18 -0.12,0.372 -0.12,0.584Zm-1.433,0c0,-0.392 0.072,-0.76 0.216,-1.097c0.144,-0.34 0.344,-0.636 0.6,-0.888c0.261,-0.248 0.565,-0.448 0.921,-0.588c0.36,-0.144 0.752,-0.216 1.18,-0.216c0.425,0 0.817,0.072 1.177,0.216c0.36,0.14 0.668,0.34 0.928,0.588c0.26,0.252 0.46,0.548 0.605,0.888c0.144,0.337 0.216,0.705 0.216,1.097c0,0.388 -0.072,0.756 -0.216,1.092c-0.145,0.34 -0.345,0.637 -0.605,0.889c-0.26,0.252 -0.568,0.448 -0.928,0.588c-0.36,0.144 -0.752,0.216 -1.177,0.216c-0.428,0 -0.82,-0.072 -1.18,-0.216c-0.356,-0.14 -0.66,-0.336 -0.921,-0.588c-0.256,-0.252 -0.456,-0.549 -0.6,-0.889c-0.144,-0.336 -0.216,-0.704 -0.216,-1.092Z" style="fill:#eeeeee;fill-rule:nonzero;"/>
      <path d="M40.519,165.767c-0.317,-0.389 -0.709,-0.581 -1.177,-0.581c-0.204,0 -0.396,0.036 -0.568,0.112c-0.176,0.072 -0.328,0.176 -0.452,0.304c-0.128,0.128 -0.224,0.281 -0.296,0.457c-0.076,0.18 -0.113,0.368 -0.113,0.576c0,0.208 0.037,0.404 0.113,0.58c0.072,0.176 0.172,0.332 0.3,0.46c0.128,0.132 0.276,0.236 0.452,0.308c0.172,0.076 0.356,0.112 0.556,0.112c0.44,0 0.836,-0.184 1.185,-0.56l0,1.625l-0.14,0.052c-0.209,0.072 -0.405,0.128 -0.589,0.164c-0.18,0.032 -0.36,0.052 -0.536,0.052c-0.364,0 -0.716,-0.068 -1.048,-0.208c-0.333,-0.136 -0.629,-0.332 -0.881,-0.58c-0.256,-0.248 -0.46,-0.549 -0.612,-0.889c-0.156,-0.344 -0.232,-0.72 -0.232,-1.124c0,-0.404 0.076,-0.776 0.228,-1.117c0.152,-0.34 0.352,-0.628 0.608,-0.876c0.252,-0.244 0.548,-0.436 0.885,-0.572c0.336,-0.136 0.688,-0.208 1.056,-0.208c0.212,0 0.416,0.024 0.62,0.068c0.204,0.044 0.417,0.112 0.641,0.208l0,1.637Z" style="fill:#eeeeee;fill-rule:nonzero;"/>
      <path d="M43.388,165.162l0,4.118l-1.373,0l0,-4.118l-1.124,0l0,-1.16l3.625,0l0,1.16l-1.128,0Z" style="fill:#eeeeee;fill-rule:nonzero;"/>
      <path d="M47.75,167.319l-0.617,-1.757l-0.616,1.757l1.233,0Zm0.364,1.045l-1.961,0l-0.312,0.916l-1.465,0l2.009,-5.278l1.497,0l2.009,5.278l-1.461,0l-0.316,-0.916Z" style="fill:#eeeeee;fill-rule:nonzero;"/>
      <path d="M51.027,164.002l1.273,3.213l1.28,-3.213l1.493,0l-2.225,5.278l-1.093,0l-2.221,-5.278l1.493,0Z" style="fill:#eeeeee;fill-rule:nonzero;"/>
      <path d="M58.626,165.162l-1.628,0l0,0.885l1.54,0l0,1.16l-1.54,0l0,0.913l1.628,0l0,1.16l-3.001,0l0,-5.278l3.001,0l0,1.16Z" style="fill:#eeeeee;fill-rule:nonzero;"/>
    </g>
    <path d="M112.967,112.871c-0.332,0.006 -0.597,0.279 -0.59,0.611l0.002,1.408c-2.521,0.13 -5.006,1.043 -7.047,2.756c-4.419,3.708 -5.55,10.112 -2.668,15.105l0.301,0.52l10.035,-5.793l10.035,5.793l0.3,-0.52c2.882,-4.993 1.753,-11.398 -2.668,-15.105c-2.051,-1.722 -4.555,-2.636 -7.089,-2.757l-0.002,-1.411c0.004,-0.338 -0.272,-0.612 -0.61,-0.607l0.001,0Zm-0.586,3.219l0.019,10.35l-8.902,5.14c-2.21,-4.402 -1.209,-9.813 2.605,-13.014c1.819,-1.527 4.032,-2.348 6.278,-2.476Zm1.199,0c2.259,0.121 4.487,0.94 6.316,2.476l0.002,0c3.816,3.201 4.813,8.612 2.604,13.014l-8.903,-5.14l-0.019,-10.35Zm8.851,16.951c-0.331,0.007 -0.925,0.28 -0.919,0.611l0.01,1.582l-1.605,0.008c-0.831,-0.028 -0.825,1.235 0.006,1.199l1.605,-0.008l0.01,1.629c-0.026,0.831 1.237,0.822 1.199,-0.008l-0.008,-1.625l1.604,-0.008c0.801,-0.004 0.795,-1.205 -0.006,-1.201l-1.606,0.008l-0.008,-1.584c0.002,-0.338 -0.275,-0.611 -0.613,-0.604l0.331,0.001Zm-16.092,2.056l-4.414,0.02c-0.8,0.004 -0.794,1.205 0.006,1.201l4.414,-0.022c0.831,0.028 0.825,-1.235 -0.006,-1.199Z" style="fill:#eeeeee;fill-rule:nonzero;"/>
    <g id="text9293-44" serif:id="text9293-4">
      <path d="M36.809,232.643c0,0.208 0.04,0.4 0.12,0.58c0.08,0.176 0.188,0.332 0.324,0.46c0.132,0.132 0.292,0.232 0.472,0.304c0.176,0.072 0.368,0.108 0.568,0.108c0.2,0 0.393,-0.036 0.573,-0.108c0.18,-0.072 0.336,-0.172 0.476,-0.304c0.136,-0.128 0.244,-0.284 0.324,-0.46c0.08,-0.18 0.12,-0.372 0.12,-0.58c0,-0.212 -0.04,-0.404 -0.12,-0.584c-0.08,-0.176 -0.188,-0.329 -0.324,-0.461c-0.14,-0.132 -0.296,-0.232 -0.476,-0.304c-0.18,-0.072 -0.373,-0.108 -0.573,-0.108c-0.2,0 -0.392,0.036 -0.568,0.108c-0.18,0.072 -0.34,0.172 -0.472,0.304c-0.136,0.132 -0.244,0.285 -0.324,0.461c-0.08,0.18 -0.12,0.372 -0.12,0.584Zm-1.433,0c0,-0.392 0.072,-0.76 0.216,-1.097c0.144,-0.34 0.344,-0.636 0.6,-0.888c0.261,-0.248 0.565,-0.448 0.921,-0.588c0.36,-0.144 0.752,-0.216 1.18,-0.216c0.425,0 0.817,0.072 1.177,0.216c0.36,0.14 0.668,0.34 0.928,0.588c0.26,0.252 0.46,0.548 0.605,0.888c0.144,0.337 0.216,0.705 0.216,1.097c0,0.388 -0.072,0.756 -0.216,1.092c-0.145,0.34 -0.345,0.637 -0.605,0.889c-0.26,0.252 -0.568,0.448 -0.928,0.588c-0.36,0.144 -0.752,0.216 -1.177,0.216c-0.428,0 -0.82,-0.072 -1.18,-0.216c-0.356,-0.14 -0.66,-0.336 -0.921,-0.588c-0.256,-0.252 -0.456,-0.549 -0.6,-0.889c-0.144,-0.336 -0.216,-0.704 -0.216,-1.092Z" style="fill:#eeeeee;fill-rule:nonzero;"/>
      <path d="M45.889,231.767c-0.317,-0.389 -0.709,-0.581 -1.177,-0.581c-0.204,0 -0.396,0.036 -0.568,0.112c-0.176,0.072 -0.328,0.176 -0.452,0.304c-0.128,0.128 -0.224,0.281 -0.296,0.457c-0.076,0.18 -0.113,0.368 -0.113,0.576c0,0.208 0.037,0.404 0.113,0.58c0.072,0.176 0.172,0.332 0.3,0.46c0.128,0.132 0.276,0.236 0.452,0.308c0.172,0.076 0.356,0.112 0.556,0.112c0.44,0 0.836,-0.184 1.185,-0.56l0,1.625l-0.14,0.052c-0.209,0.072 -0.405,0.128 -0.589,0.164c-0.18,0.032 -0.36,0.052 -0.536,0.052c-0.364,0 -0.716,-0.068 -1.048,-0.208c-0.333,-0.136 -0.629,-0.332 -0.881,-0.58c-0.256,-0.248 -0.46,-0.549 -0.612,-0.889c-0.156,-0.344 -0.232,-0.72 -0.232,-1.124c0,-0.404 0.076,-0.776 0.228,-1.117c0.152,-0.34 0.352,-0.628 0.608,-0.876c0.252,-0.244 0.548,-0.436 0.885,-0.572c0.336,-0.136 0.688,-0.208 1.056,-0.208c0.212,0 0.416,0.024 0.62,0.068c0.204,0.044 0.417,0.112 0.641,0.208l0,1.637Z" style="fill:#eeeeee;fill-rule:nonzero;"/>
      <path d="M48.758,231.162l0,4.118l-1.373,0l0,-4.118l-1.124,0l0,-1.16l3.625,0l0,1.16l-1.128,0Z" style="fill:#eeeeee;fill-rule:nonzero;"/>
      <rect x="50.018" y="232.879" width="2.009" height="1.056" style="fill:#eeeeee;"/>
      <path d="M53.884,231.162l-0.772,0l0,-1.16l2.145,0l0,5.278l-1.373,0l0,-4.118Z" style="fill:#eeeeee;fill-rule:nonzero;"/>
    </g>
    <path d="M45.317,182.01c-5.706,0 -11.412,1.934 -16.027,5.805c-9.229,7.745 -11.587,21.128 -5.564,31.564c0.391,0.722 1.468,0.101 1.039,-0.6c-5.733,-9.934 -3.488,-22.672 5.297,-30.045c8.785,-7.369 21.725,-7.369 30.51,0c8.785,7.373 11.029,20.111 5.296,30.045c-0.429,0.701 0.648,1.322 1.039,0.6c6.023,-10.436 3.666,-23.819 -5.564,-31.564c-4.615,-3.871 -10.32,-5.805 -16.025,-5.805l-0.001,0Zm-18.531,41.404c-0.328,0.006 -0.594,0.279 -0.59,0.607l0,3.383l-3.314,0c-0.008,0 -0.016,0 -0.024,0c-0.329,0 -0.6,0.271 -0.6,0.6c0,0.329 0.271,0.6 0.6,0.6c0.008,0 0.016,0 0.024,-0.001l3.314,0l0,3.418c0,0.008 0,0.016 0,0.024c0,0.329 0.271,0.6 0.6,0.6c0.329,0 0.6,-0.271 0.6,-0.6c0,-0.008 0,-0.016 -0.001,-0.024l0,-3.418l3.487,0c0.007,0.001 0.015,0.001 0.023,0.001c0.329,0 0.6,-0.271 0.6,-0.6c0,-0.329 -0.271,-0.6 -0.6,-0.6c-0.008,0 -0.016,0 -0.023,0l-3.487,0l0,-3.383c0,-0.002 0,-0.005 0,-0.007c0,-0.329 -0.27,-0.6 -0.6,-0.6c-0.003,0 -0.006,0 -0.009,0l0,0Zm40.891,1.115c-0.155,0.005 -0.302,0.071 -0.41,0.182l-2.393,2.392l-2.344,-2.343c-0.113,-0.125 -0.275,-0.197 -0.443,-0.197c-0.33,0 -0.601,0.271 -0.601,0.6c0,0.169 0.072,0.331 0.197,0.444l2.344,2.344l-2.418,2.416c-0.112,0.112 -0.174,0.264 -0.174,0.422c0,0.33 0.271,0.6 0.6,0.6c0.159,0 0.311,-0.062 0.423,-0.174l2.416,-2.416l2.465,2.465c0.114,0.125 0.275,0.196 0.444,0.196c0.329,0 0.6,-0.271 0.6,-0.6c0,-0.169 -0.071,-0.33 -0.196,-0.444l-2.465,-2.465l2.392,-2.393c0.116,-0.112 0.182,-0.267 0.182,-0.429c0,-0.163 -0.067,-0.319 -0.184,-0.432c-0.116,-0.112 -0.273,-0.173 -0.435,-0.168l0,0Z" style="fill:#eeeeee;fill-rule:nonzero;"/>
    <path d="M112.938,180.065c-0.332,0.006 -0.597,0.28 -0.59,0.611l0.002,1.409c-2.521,0.13 -5.006,1.042 -7.047,2.756c-4.419,3.707 -5.55,10.112 -2.668,15.105l0.301,0.519l10.035,-5.793l10.035,5.793l0.3,-0.519c2.882,-4.994 1.753,-11.398 -2.668,-15.105c-2.051,-1.723 -4.555,-2.637 -7.089,-2.758l-0.002,-1.41c0.004,-0.338 -0.272,-0.613 -0.61,-0.608l0.001,0Zm-0.586,3.219l0.019,10.35l-8.902,5.141c-2.21,-4.403 -1.209,-9.814 2.605,-13.014c1.819,-1.528 4.032,-2.348 6.278,-2.477Zm1.199,0c2.259,0.121 4.487,0.94 6.316,2.477l0.002,0c3.816,3.2 4.813,8.611 2.604,13.014l-8.903,-5.141l-0.019,-10.35Zm8.851,16.951c-0.331,0.007 -0.925,0.28 -0.919,0.611l0.01,1.582l-1.605,0.008c-0.831,-0.028 -0.825,1.236 0.006,1.199l1.605,-0.008l0.01,1.629c-0.026,0.831 1.237,0.823 1.199,-0.008l-0.008,-1.625l1.604,-0.008c0.801,-0.004 0.795,-1.205 -0.006,-1.201l-1.606,0.008l-0.008,-1.584c0.002,-0.338 -0.275,-0.611 -0.613,-0.603l0.331,0Zm-16.092,2.057l-4.414,0.019c-0.8,0.004 -0.794,1.205 0.006,1.201l4.414,-0.021c0.831,0.028 0.825,-1.236 -0.006,-1.199Z" style="fill:#eeeeee;fill-rule:nonzero;"/>
    <path d="M112.906,246.825c-0.332,0.006 -0.596,0.28 -0.59,0.612l0.002,1.408c-2.52,0.13 -5.006,1.042 -7.046,2.756c-4.42,3.707 -5.55,10.112 -2.668,15.105l0.3,0.519l10.035,-5.793l10.035,5.793l0.301,-0.519c2.882,-4.994 1.752,-11.398 -2.668,-15.105c-2.051,-1.723 -4.555,-2.636 -7.09,-2.758l-0.002,-1.41c0.004,-0.338 -0.271,-0.613 -0.609,-0.608l0,0Zm-0.586,3.219l0.02,10.35l-8.902,5.141c-2.21,-4.403 -1.21,-9.814 2.605,-13.014c1.819,-1.528 4.031,-2.348 6.277,-2.477Zm1.2,0c2.259,0.121 4.487,0.94 6.316,2.477l0.002,0c3.816,3.2 4.813,8.611 2.603,13.014l-8.902,-5.141l-0.019,-10.35Zm8.851,16.951c-0.331,0.007 -0.925,0.28 -0.919,0.611l0.01,1.582l-1.606,0.008c-0.831,-0.027 -0.824,1.236 0.006,1.2l1.606,-0.008l0.01,1.628c-0.026,0.831 1.236,0.823 1.199,-0.008l-0.008,-1.625l1.604,-0.008c0.8,-0.004 0.794,-1.205 -0.006,-1.201l-1.606,0.008l-0.008,-1.584c0.002,-0.338 -0.275,-0.611 -0.613,-0.603l0.331,0Zm-16.092,2.057l-4.414,0.019c-0.801,0.004 -0.795,1.205 0.006,1.201l4.414,-0.021c0.831,0.028 0.825,-1.235 -0.006,-1.199Z" style="fill:#eeeeee;fill-rule:nonzero;"/>
  </g>
</svg>