<svg width="20.32mm" height="128.5mm" viewBox="0 0 20.32 128.5" version="1.1" id="svg5" sodipodi:docname="OpulusMicro.svg" inkscape:version="1.1.1 (c3084ef, 2021-09-22)" xmlns:inkscape="http://www.inkscape.org/namespaces/inkscape" xmlns:sodipodi="http://sodipodi.sourceforge.net/DTD/sodipodi-0.dtd" xmlns="http://www.w3.org/2000/svg" xmlns:svg="http://www.w3.org/2000/svg" xmlns:serif="http://www.serif.com/">
  <defs id="defs95">
    <linearGradient id="_Linear1" x1="0" y1="0" x2="1" y2="0" gradientUnits="userSpaceOnUse" gradientTransform="matrix(0.00421113,-37.8989,22.7736,0.007008,45.238,112.195)">
      <stop offset="0" style="stop-color:#202020;stop-opacity:1" id="stop2"/>
      <stop offset="1" style="stop-color:#202020;stop-opacity:1" id="stop4"/>
    </linearGradient>
    <linearGradient id="_Linear2" x1="0" y1="0" x2="1" y2="0" gradientUnits="userSpaceOnUse" gradientTransform="matrix(-2.93241,-92.58,55.6316,-4.88,166.775,345.91)">
      <stop offset="0" style="stop-color:#202020;stop-opacity:1" id="stop7"/>
      <stop offset="1" style="stop-color:#202020;stop-opacity:1" id="stop9"/>
    </linearGradient>
    <linearGradient id="_Linear3" x1="0" y1="0" x2="1" y2="0" gradientUnits="userSpaceOnUse" gradientTransform="matrix(-2.85429,94.86,-57.0016,-4.75,166.775,158.47)">
      <stop offset="0" style="stop-color:#202020;stop-opacity:1" id="stop12"/>
      <stop offset="1" style="stop-color:#202020;stop-opacity:1" id="stop14"/>
    </linearGradient>
    <linearGradient id="_Linear4" x1="0" y1="0" x2="1" y2="0" gradientUnits="userSpaceOnUse" gradientTransform="matrix(0,-1.8845,1.1324,0,33.9624,1.9362)">
      <stop offset="0" style="stop-color:#202020;stop-opacity:1" id="stop17"/>
      <stop offset="1" style="stop-color:#202020;stop-opacity:1" id="stop19"/>
    </linearGradient>
  </defs>
  <sodipodi:namedview id="namedview93" pagecolor="#eeeeee" bordercolor="#666666" borderopacity="1.0" inkscape:pageshadow="2" inkscape:pageopacity="0.0" inkscape:pagecheckerboard="0" inkscape:document-units="mm" showgrid="false" inkscape:zoom="2.8690087" inkscape:cx="9.410916" inkscape:cy="113.97665" inkscape:window-width="1440" inkscape:window-height="847" inkscape:window-x="0" inkscape:window-y="25" inkscape:window-maximized="1" inkscape:current-layer="svg5"/>
  <g id="g1103" transform="scale(0.22485866,0.33853309)">
    <g id="_-fixed--BG" serif:id="[fixed] BG" style="clip-rule:evenodd;fill-rule:evenodd">
      <path id="rect1677" style="fill:#eeeeee" d="M 0,0 H 90.135002 V 380 H 0 Z"/>
      <g id="g35">
        <path id="rect25" style="fill:url(#_Linear1)" d="M 0,0 H 90.135002 V 380 H 0 Z"/>
        <path id="rect27" style="fill:url(#_Linear2)" d="M 0,253.33 H 90.135002 V 380 H 0 Z"/>
        <path id="rect29" style="fill:url(#_Linear3)" d="M 0,126.67 H 90.135002 V 253.34 H 0 Z"/>
        <path id="rect31" style="fill:#103550;fill-opacity:0.1" d="M 0,0 H 90.135002 V 380 H 0 Z"/>
        <path id="rect33" style="fill:url(#_Linear4)" d="M 0,0 H 90.135002 V 2 H 0 Z"/>
      </g>
    </g>
  </g>
  <g id="logo_images_Panel-Logo_svg_0" transform="translate(5.66, 111.0)">
    <path id="ellipse3" style="fill:none;stroke:#eeeeee;stroke-width:0.45px" d="M 8.5650001,4.4349999 A 4.0500002,4.0349998 0 0 1 4.5149999,8.4699998 4.0500002,4.0349998 0 0 1 0.46499968,4.4349999 4.0500002,4.0349998 0 0 1 4.5149999,0.4000001 4.0500002,4.0349998 0 0 1 8.5650001,4.4349999 Z"/>
    <path d="M0.105,9.002l0.665,0l0.62,2.071l0.641,-2.071l0.663,0l-0.862,2.589c-0.081,0.239 -0.225,0.358 -0.433,0.358c-0.211,0 -0.357,-0.12 -0.437,-0.361l-0.857,-2.586Z" style="fill:#eeeeee;fill-rule:nonzero;" id="path5"/>
    <path d="M2.744,11.192l-0,-2.19l0.624,0l-0,2.169c0.011,0.078 0.083,0.117 0.216,0.117l0.425,-0c0.127,-0 0.198,-0.036 0.212,-0.109l0.004,-0.02l0,-2.157l0.625,0l-0,2.186c-0,0.191 -0.021,0.327 -0.063,0.408c-0.111,0.213 -0.306,0.32 -0.587,0.32l-0.807,0c-0.289,0 -0.486,-0.109 -0.591,-0.329c-0.039,-0.08 -0.058,-0.212 -0.058,-0.395Z" style="fill:#eeeeee;fill-rule:nonzero;" id="path7"/>
    <path d="M5.137,11.204l-0,-2.202l0.624,0l0,2.152c0,0.089 0.053,0.134 0.158,0.134l1.112,-0l-0.004,0.628l-1.162,0c-0.041,0 -0.077,-0.001 -0.108,-0.004c-0.225,-0.019 -0.384,-0.085 -0.479,-0.198c-0.094,-0.112 -0.141,-0.282 -0.141,-0.51Z" style="fill:#eeeeee;fill-rule:nonzero;" id="path9"/>
    <path d="M7.052,9.631l-0,-0.629l1.873,0l-0,0.629l-0.629,-0l0,2.285l-0.624,0l-0,-2.285l-0.62,-0Z" style="fill:#eeeeee;fill-rule:nonzero;" id="path11"/>
    <path d="M4.603,6.965l0,-0.538l0.051,0.024c0.172,0.08 0.387,0.182 0.389,0.184c0.003,0.003 -0.379,0.759 -0.422,0.835l-0.018,0.033l0,-0.538l0,-0Zm-0.4,0.104c-0.12,-0.235 -0.219,-0.429 -0.22,-0.43c-0.002,-0.004 0.434,-0.21 0.438,-0.206c0.001,0.001 0.002,0.241 0.001,0.533l-0.001,0.531l-0.218,-0.428Zm1.405,-0.108c-0.111,-0.011 -0.151,-0.016 -0.156,-0.022c-0.004,-0.005 -0.05,-0.077 -0.102,-0.161l-0.094,-0.152l0.236,-0.532c0.13,-0.292 0.243,-0.547 0.251,-0.565l0.016,-0.034l0.227,-0.129c0.125,-0.071 0.236,-0.135 0.245,-0.142c0.01,-0.008 0.091,-0.117 0.18,-0.245c0.089,-0.127 0.163,-0.231 0.163,-0.23c0,0.001 -0.034,0.239 -0.078,0.529l-0.078,0.529l-0.14,0.3l-0.14,0.3l-0.188,0.285c-0.103,0.157 -0.189,0.284 -0.19,0.284c-0.002,-0 -0.071,-0.007 -0.152,-0.015Zm-2.561,-0.269l-0.184,-0.279l-0.143,-0.306l-0.143,-0.305l-0.082,-0.556c-0.045,-0.305 -0.082,-0.556 -0.081,-0.557c0.001,-0 0.082,0.115 0.182,0.256c0.099,0.142 0.186,0.263 0.193,0.269c0.007,0.007 0.117,0.071 0.245,0.144c0.127,0.072 0.234,0.134 0.238,0.138c0.005,0.006 0.468,1.041 0.482,1.079c0.005,0.014 -0.003,0.028 -0.098,0.182c-0.057,0.092 -0.107,0.172 -0.111,0.177c-0.006,0.008 -0.034,0.012 -0.158,0.023c-0.083,0.008 -0.152,0.014 -0.153,0.014c-0.002,0 -0.086,-0.125 -0.187,-0.279Zm0.885,-0.251c-0.002,-0.01 -0.038,-0.3 -0.082,-0.646l-0.078,-0.628l0.326,-0.326l0.325,-0.325l0,1.717l-0.241,0.113c-0.133,0.062 -0.242,0.113 -0.244,0.113c-0.002,-0 -0.005,-0.008 -0.006,-0.018l-0,0Zm0.914,-0.096l-0.24,-0.113l-0.001,-0.858l-0.002,-0.858l0.327,0.327l0.327,0.327l-0.079,0.632c-0.043,0.348 -0.08,0.638 -0.082,0.645c-0.001,0.006 -0.004,0.012 -0.006,0.012c-0.003,-0 -0.112,-0.052 -0.244,-0.114l-0,0Zm-1.267,-0.604c-0.065,-0.146 -0.119,-0.269 -0.122,-0.275c-0.003,-0.008 0.012,-0.024 0.073,-0.078c0.042,-0.038 0.078,-0.068 0.08,-0.066c0.003,0.003 0.089,0.68 0.087,0.682c-0.001,0.001 -0.054,-0.118 -0.118,-0.263Zm1.757,0.246c0.001,-0.012 0.02,-0.165 0.042,-0.34c0.021,-0.176 0.04,-0.32 0.041,-0.321c0.001,-0.001 0.037,0.029 0.08,0.067l0.079,0.07l-0.01,0.022c-0.047,0.109 -0.226,0.51 -0.23,0.516c-0.004,0.006 -0.004,0.002 -0.002,-0.014l-0,0Zm0.255,-0.75l-0.099,-0.088l0.056,-0.036c0.556,-0.363 0.804,-0.527 0.814,-0.536c0.007,-0.007 0.096,-0.209 0.206,-0.468l0.194,-0.457l-0,-0.5l-0.013,-0.018c-0.026,-0.039 -0.072,-0.054 -0.11,-0.037c-0.008,0.004 -0.179,0.139 -0.38,0.301l-0.366,0.295l-0.27,0.342c-0.149,0.188 -0.273,0.344 -0.277,0.348c-0.004,0.004 -0.097,-0.084 -0.361,-0.342c-0.195,-0.191 -0.355,-0.349 -0.355,-0.351c0,-0.005 1.146,-1.888 1.151,-1.892c0.002,-0.001 0.182,0.137 0.401,0.307l0.397,0.309l0.268,0.482l0.268,0.483l-0.013,0.162l-0.012,0.163l-0.969,1.38l-0.209,0.119c-0.115,0.066 -0.212,0.12 -0.216,0.121c-0.003,0.001 -0.05,-0.038 -0.105,-0.087Zm-2.474,-0.036l-0.208,-0.118l-0.97,-1.382l-0.012,-0.162l-0.012,-0.163l0.267,-0.482l0.268,-0.482l0.397,-0.309c0.218,-0.17 0.398,-0.307 0.401,-0.305c0.002,0.002 0.262,0.429 0.579,0.949l0.575,0.944l-0.146,0.143c-0.466,0.456 -0.564,0.551 -0.568,0.551c-0.003,-0 -0.123,-0.15 -0.268,-0.333c-0.144,-0.182 -0.27,-0.34 -0.279,-0.35c-0.015,-0.016 -0.665,-0.542 -0.731,-0.593c-0.019,-0.014 -0.026,-0.016 -0.056,-0.016c-0.038,0 -0.057,0.01 -0.075,0.042c-0.011,0.017 -0.011,0.029 -0.013,0.265l-0.001,0.246l0.194,0.457c0.124,0.293 0.199,0.462 0.208,0.471c0.008,0.008 0.206,0.141 0.44,0.294l0.426,0.279l-0.097,0.086c-0.053,0.048 -0.1,0.087 -0.104,0.087c-0.004,-0 -0.101,-0.054 -0.215,-0.119l0,0Zm1.815,-0.608l-0.329,-0.328l0.002,-0.173l0.001,-0.173l0.656,0.64l0.001,0.182c-0,0.099 -0.001,0.181 -0.002,0.181c-0,-0 -0.149,-0.148 -0.329,-0.329l-0,0Zm-1.163,0.146l0,-0.181l0.326,-0.319l0.326,-0.318l0.003,0.344l-0.328,0.327l-0.327,0.327l0,-0.18Zm0.834,-2.361c0,-0.675 0.002,-1.01 0.006,-1.01c0.003,0 0.225,0.056 0.494,0.125c0.269,0.069 0.506,0.129 0.527,0.134c0.026,0.007 0.036,0.012 0.034,0.017c-0.002,0.006 -0.998,1.643 -1.045,1.719l-0.016,0.025l0,-1.01Zm-0.713,0.132c-0.291,-0.479 -0.529,-0.872 -0.528,-0.872c0.004,-0.004 1.057,-0.271 1.059,-0.269c0.001,0.002 0.002,0.455 0.001,1.007l-0.001,1.005l-0.531,-0.871Z" style="fill:#eeeeee;fill-rule:nonzero;" id="path13"/>
  </g>
  <g id="g21">
    <g aria-label="accidental" id="text19" style="font-size:2.8px;line-height:1.25;font-family:'Muli Black';-inkscape-font-specification:'Muli Black, ';fill:#eeeeee;stroke-width:0.264583">
      <path d="M 4.6692,10.9776 V 12.4 H 4.1708 v -0.1932 q -0.0616,0.1008 -0.1792,0.1596 -0.1176,0.056 -0.2576,0.056 -0.182,0 -0.3248,-0.0896 Q 3.2664,12.2432 3.1852,12.078 3.1068,11.91 3.1068,11.6916 q 0,-0.2212 0.0812,-0.392 0.0812,-0.1708 0.224,-0.266 0.1428,-0.0952 0.322,-0.0952 0.14,0 0.2548,0.0616 0.1176,0.0588 0.182,0.1596 v -0.182 z m -0.7784,1.0668 q 0.1344,0 0.2072,-0.0924 0.0728,-0.0924 0.0728,-0.266 0,-0.1764 -0.0728,-0.2688 -0.0728,-0.0952 -0.2072,-0.0952 -0.1316,0 -0.2072,0.098 -0.0756,0.0952 -0.0756,0.2716 0,0.1708 0.0728,0.2632 0.0728,0.0896 0.21,0.0896 z" style="font-size:2.8px;line-height:1.25;font-family:'Muli Black';-inkscape-font-specification:'Muli Black, ';fill:#eeeeee;stroke-width:0.264583" id="path902"/>
      <path d="m 5.6771989,12.4224 q -0.3612,0 -0.5656,-0.196 -0.2044,-0.196 -0.2044,-0.5348 0,-0.224 0.098,-0.3948 0.1008,-0.1708 0.28,-0.2632 0.1792,-0.0952 0.4144,-0.0952 0.1568,0 0.308,0.0476 0.1512,0.0448 0.2408,0.1232 l -0.1288,0.35 q -0.0756,-0.0616 -0.1764,-0.098 -0.1008,-0.0364 -0.1932,-0.0364 -0.1568,0 -0.2408,0.0896 -0.084,0.0896 -0.084,0.266 0,0.1792 0.084,0.2716 0.084,0.0896 0.2436,0.0896 0.0924,0 0.1904,-0.0364 0.1008,-0.0364 0.1764,-0.098 l 0.1288,0.3444 q -0.0924,0.0812 -0.2464,0.126 -0.1512,0.0448 -0.3248,0.0448 z" style="font-size:2.8px;line-height:1.25;font-family:'Muli Black';-inkscape-font-specification:'Muli Black, ';fill:#eeeeee;stroke-width:0.264583" id="path904"/>
      <path d="m 7.1191973,12.4224 q -0.3612,0 -0.5656,-0.196 -0.2044,-0.196 -0.2044,-0.5348 0,-0.224 0.098,-0.3948 0.1008,-0.1708 0.28,-0.2632 0.1792,-0.0952 0.4144,-0.0952 0.1568,0 0.308,0.0476 0.1512,0.0448 0.2408,0.1232 l -0.1288,0.35 q -0.0756,-0.0616 -0.1764,-0.098 -0.1008,-0.0364 -0.1932,-0.0364 -0.1568,0 -0.2408,0.0896 -0.084,0.0896 -0.084,0.266 0,0.1792 0.084,0.2716 0.084,0.0896 0.2436,0.0896 0.0924,0 0.1904,-0.0364 0.1008,-0.0364 0.1764,-0.098 l 0.1288,0.3444 q -0.0924,0.0812 -0.2464,0.126 -0.1512,0.0448 -0.3248,0.0448 z" style="font-size:2.8px;line-height:1.25;font-family:'Muli Black';-inkscape-font-specification:'Muli Black, ';fill:#eeeeee;stroke-width:0.264583" id="path906"/>
      <path d="m 7.8555953,10.9776 h 0.5068 V 12.4 h -0.5068 z m 0.5152,-0.6972 v 0.4564 h -0.5292 v -0.4564 z" style="font-size:2.8px;line-height:1.25;font-family:'Muli Black';-inkscape-font-specification:'Muli Black, ';fill:#eeeeee;stroke-width:0.264583" id="path908"/>
      <path d="M 10.162794,10.3392 V 12.4 H 9.6643941 v -0.1932 q -0.0616,0.1008 -0.1792,0.1596 -0.1176,0.056 -0.2576,0.056 -0.182,0 -0.3248,-0.0924 -0.1428,-0.0952 -0.224,-0.2632 -0.0784,-0.1708 -0.0784,-0.392 0,-0.2184 0.0784,-0.3864 0.0812,-0.168 0.224,-0.2576 0.1428,-0.0924 0.3248,-0.0924 0.1344,0 0.2464,0.056 0.1148,0.056 0.182,0.1512 v -0.8064 z m -0.7783999,1.7052 q 0.1344,0 0.2072,-0.0924 0.0728,-0.0952 0.0728,-0.2716 0,-0.1708 -0.0756,-0.2632 -0.0728,-0.0952 -0.2044,-0.0952 -0.1372,0 -0.21,0.0924 -0.0728,0.0896 -0.0728,0.2604 0,0.1764 0.0728,0.2744 0.0756,0.0952 0.21,0.0952 z" style="font-size:2.8px;line-height:1.25;font-family:'Muli Black';-inkscape-font-specification:'Muli Black, ';fill:#eeeeee;stroke-width:0.264583" id="path910"/>
      <path d="m 11.778393,11.7392 h -0.8932 q 0.014,0.1652 0.0952,0.238 0.0812,0.0728 0.238,0.0728 0.1064,0 0.2128,-0.0336 0.1064,-0.0364 0.1932,-0.098 l 0.1288,0.336 q -0.1064,0.0784 -0.2576,0.1232 -0.1512,0.0448 -0.3024,0.0448 -0.2436,0 -0.4228,-0.0896 -0.1792,-0.0896 -0.2744,-0.2548 -0.0952,-0.168 -0.0952,-0.3948 0,-0.2156 0.0896,-0.3836 0.0924,-0.1708 0.252,-0.266 0.1624,-0.0952 0.3696,-0.0952 0.2016,0 0.3528,0.0896 0.1512,0.0896 0.2324,0.2576 0.0812,0.1652 0.0812,0.3864 z m -0.6524,-0.4536 q -0.1876,0 -0.2352,0.2184 h 0.4536 q -0.028,-0.2184 -0.2184,-0.2184 z" style="font-size:2.8px;line-height:1.25;font-family:'Muli Black';-inkscape-font-specification:'Muli Black, ';fill:#eeeeee;stroke-width:0.264583" id="path912"/>
      <path d="m 12.965592,10.9384 q 0.252,0 0.3752,0.154 0.126,0.1512 0.126,0.4592 V 12.4 h -0.5068 v -0.826 q 0,-0.1316 -0.0448,-0.1876 -0.0448,-0.0588 -0.14,-0.0588 -0.1148,0 -0.1848,0.0784 -0.07,0.0756 -0.07,0.2016 V 12.4 h -0.5068 v -1.0136 q 0,-0.2296 -0.0224,-0.4088 h 0.476 l 0.0252,0.21 q 0.0812,-0.1204 0.2016,-0.1848 0.1204,-0.0644 0.2716,-0.0644 z" style="font-size:2.8px;line-height:1.25;font-family:'Muli Black';-inkscape-font-specification:'Muli Black, ';fill:#eeeeee;stroke-width:0.264583" id="path914"/>
      <path d="m 14.600788,12.0136 q 0.0504,0 0.1344,-0.0168 v 0.3836 q -0.1036,0.042 -0.2632,0.042 -0.2884,0 -0.4396,-0.1624 -0.1484,-0.1624 -0.1484,-0.4508 V 11.35 h -0.266 v -0.3724 h 0.266 v -0.322 l 0.5068,-0.1624 v 0.4844 h 0.3416 V 11.35 h -0.3416 v 0.4592 q 0,0.1008 0.0588,0.154 0.0616,0.0504 0.1512,0.0504 z" style="font-size:2.8px;line-height:1.25;font-family:'Muli Black';-inkscape-font-specification:'Muli Black, ';fill:#eeeeee;stroke-width:0.264583" id="path916"/>
      <path d="M 16.423583,10.9776 V 12.4 h -0.4984 v -0.1932 q -0.0616,0.1008 -0.1792,0.1596 -0.1176,0.056 -0.2576,0.056 -0.182,0 -0.3248,-0.0896 -0.1428,-0.0896 -0.224,-0.2548 -0.0784,-0.168 -0.0784,-0.3864 0,-0.2212 0.0812,-0.392 0.0812,-0.1708 0.224,-0.266 0.1428,-0.0952 0.322,-0.0952 0.14,0 0.2548,0.0616 0.1176,0.0588 0.182,0.1596 v -0.182 z m -0.7784,1.0668 q 0.1344,0 0.2072,-0.0924 0.0728,-0.0924 0.0728,-0.266 0,-0.1764 -0.0728,-0.2688 -0.0728,-0.0952 -0.2072,-0.0952 -0.1316,0 -0.2072,0.098 -0.0756,0.0952 -0.0756,0.2716 0,0.1708 0.0728,0.2632 0.0728,0.0896 0.21,0.0896 z" style="font-size:2.8px;line-height:1.25;font-family:'Muli Black';-inkscape-font-specification:'Muli Black, ';fill:#eeeeee;stroke-width:0.264583" id="path918"/>
      <path d="m 16.725983,10.3392 h 0.5068 V 12.4 h -0.5068 z" style="font-size:2.8px;line-height:1.25;font-family:'Muli Black';-inkscape-font-specification:'Muli Black, ';fill:#eeeeee;stroke-width:0.264583" id="path920"/>
    </g>
  </g>
  <g id="g25">
    <g aria-label="fm operator" id="text23" style="font-size:2.8px;line-height:1.25;font-family:'Muli Black';-inkscape-font-specification:'Muli Black, ';fill:#eeeeee;stroke-width:0.264583">
      <path d="m 2.7428,13.234 q -0.0896,0 -0.1484,0.0532 -0.0588,0.0504 -0.0588,0.1568 v 0.0336 H 2.8128 V 13.85 H 2.5356 V 14.9 H 2.0288 V 13.85 H 1.7684 v -0.3724 h 0.2604 v -0.0392 q 0,-0.2884 0.1484,-0.4508 0.1512,-0.1624 0.4368,-0.1624 0.1624,0 0.2632,0.0392 v 0.3892 Q 2.796,13.234 2.7428,13.234 Z" style="font-size:2.8px;line-height:1.25;font-family:'Muli Black';-inkscape-font-specification:'Muli Black, ';fill:#eeeeee;stroke-width:0.264583" id="path923"/>
      <path d="m 4.8567966,13.4384 q 0.2464,0 0.364,0.1512 0.1204,0.1512 0.1204,0.462 V 14.9 h -0.5068 v -0.8344 q 0,-0.126 -0.0392,-0.182 -0.0364,-0.056 -0.126,-0.056 -0.1064,0 -0.1652,0.0784 -0.0588,0.0784 -0.0588,0.2212 V 14.9 h -0.5068 v -0.8344 q 0,-0.126 -0.0392,-0.182 -0.0392,-0.056 -0.126,-0.056 -0.1064,0 -0.1652,0.0784 -0.056,0.0784 -0.056,0.2212 V 14.9 h -0.5068 v -1.0136 q 0,-0.2296 -0.0224,-0.4088 h 0.476 l 0.0252,0.1988 q 0.0644,-0.1148 0.1792,-0.1764 0.1176,-0.0616 0.2688,-0.0616 0.3052,0 0.4144,0.2576 0.0756,-0.1176 0.1988,-0.1876 0.126,-0.07 0.2716,-0.07 z" style="font-size:2.8px;line-height:1.25;font-family:'Muli Black';-inkscape-font-specification:'Muli Black, ';fill:#eeeeee;stroke-width:0.264583" id="path925"/>
      <path d="m 7.1639916,14.9224 q -0.238,0 -0.4143999,-0.0896 -0.1764,-0.0896 -0.2716,-0.2576 -0.0952,-0.168 -0.0952,-0.3948 0,-0.2268 0.0952,-0.3948 0.0952,-0.168 0.2716,-0.2576 0.1763999,-0.0896 0.4143999,-0.0896 0.2352,0 0.4088,0.0924 0.1764,0.0896 0.2716,0.2576 0.0952,0.1652 0.0952,0.392 0,0.2268 -0.0952,0.3948 -0.0952,0.1652 -0.2716,0.2576 -0.1736,0.0896 -0.4088,0.0896 z m 0,-0.378 q 0.2744,0 0.2744,-0.364 0,-0.1848 -0.07,-0.2716 -0.0672,-0.0896 -0.2044,-0.0896 -0.14,0 -0.21,0.0896 -0.07,0.0868 -0.07,0.2716 0,0.1876 0.07,0.2772 0.07,0.0868 0.21,0.0868 z" style="font-size:2.8px;line-height:1.25;font-family:'Muli Black';-inkscape-font-specification:'Muli Black, ';fill:#eeeeee;stroke-width:0.264583" id="path927"/>
      <path d="m 9.1155865,13.4384 q 0.182,0 0.3248,0.0952 0.1428,0.0952 0.224,0.266 0.0812,0.1708 0.0812,0.392 0,0.2184 -0.0812,0.3864 -0.0784,0.1652 -0.2212,0.2548 -0.1428,0.0896 -0.3276,0.0896 -0.14,0 -0.2548,-0.0532 -0.1148,-0.056 -0.1764,-0.154 v 0.7896 h -0.5068 v -1.6184 q 0,-0.2296 -0.0224,-0.4088 h 0.476 l 0.028,0.2212 q 0.0532,-0.1176 0.1764,-0.1876 0.1232,-0.0728 0.28,-0.0728 z m -0.154,1.106 q 0.1372,0 0.2072,-0.0896 0.07,-0.0896 0.07,-0.2632 0,-0.1764 -0.0728,-0.2716 -0.07,-0.098 -0.2044,-0.098 -0.1372,0 -0.21,0.0924 -0.0728,0.0924 -0.0728,0.2716 0,0.1736 0.0728,0.266 0.0728,0.0924 0.21,0.0924 z" style="font-size:2.8px;line-height:1.25;font-family:'Muli Black';-inkscape-font-specification:'Muli Black, ';fill:#eeeeee;stroke-width:0.264583" id="path929"/>
      <path d="m 11.296782,14.2392 h -0.8932 q 0.014,0.1652 0.0952,0.238 0.0812,0.0728 0.238,0.0728 0.1064,0 0.2128,-0.0336 0.1064,-0.0364 0.1932,-0.098 l 0.1288,0.336 q -0.1064,0.0784 -0.2576,0.1232 -0.1512,0.0448 -0.3024,0.0448 -0.2436,0 -0.4228,-0.0896 -0.1792,-0.0896 -0.2744,-0.2548 -0.0952,-0.168 -0.0952,-0.3948 0,-0.2156 0.0896,-0.3836 0.0924,-0.1708 0.252,-0.266 0.1624,-0.0952 0.3696,-0.0952 0.2016,0 0.3528,0.0896 0.1512,0.0896 0.2324,0.2576 0.0812,0.1652 0.0812,0.3864 z m -0.6524,-0.4536 q -0.1876,0 -0.2352,0.2184 h 0.4536 q -0.028,-0.2184 -0.2184,-0.2184 z" style="font-size:2.8px;line-height:1.25;font-family:'Muli Black';-inkscape-font-specification:'Muli Black, ';fill:#eeeeee;stroke-width:0.264583" id="path931"/>
      <path d="m 12.430781,13.444 q 0.1036,0 0.1596,0.0308 v 0.462 q -0.1204,-0.056 -0.2324,-0.056 -0.3192,0 -0.3192,0.3052 V 14.9 h -0.5068 v -1.0136 q 0,-0.2296 -0.0224,-0.4088 h 0.476 l 0.0308,0.238 q 0.0504,-0.1316 0.1624,-0.2016 0.112,-0.07 0.252,-0.07 z" style="font-size:2.8px;line-height:1.25;font-family:'Muli Black';-inkscape-font-specification:'Muli Black, ';fill:#eeeeee;stroke-width:0.264583" id="path933"/>
      <path d="M 14.205976,13.4776 V 14.9 h -0.4984 v -0.1932 q -0.0616,0.1008 -0.1792,0.1596 -0.1176,0.056 -0.2576,0.056 -0.182,0 -0.3248,-0.0896 -0.1428,-0.0896 -0.224,-0.2548 -0.0784,-0.168 -0.0784,-0.3864 0,-0.2212 0.0812,-0.392 0.0812,-0.1708 0.224,-0.266 0.1428,-0.0952 0.322,-0.0952 0.14,0 0.2548,0.0616 0.1176,0.0588 0.182,0.1596 v -0.182 z m -0.7784,1.0668 q 0.1344,0 0.2072,-0.0924 0.0728,-0.0924 0.0728,-0.266 0,-0.1764 -0.0728,-0.2688 -0.0728,-0.0952 -0.2072,-0.0952 -0.1316,0 -0.2072,0.098 -0.0756,0.0952 -0.0756,0.2716 0,0.1708 0.0728,0.2632 0.0728,0.0896 0.21,0.0896 z" style="font-size:2.8px;line-height:1.25;font-family:'Muli Black';-inkscape-font-specification:'Muli Black, ';fill:#eeeeee;stroke-width:0.264583" id="path935"/>
      <path d="m 15.348375,14.5136 q 0.0504,0 0.1344,-0.0168 v 0.3836 q -0.1036,0.042 -0.2632,0.042 -0.2884,0 -0.4396,-0.1624 -0.1484,-0.1624 -0.1484,-0.4508 V 13.85 h -0.266 v -0.3724 h 0.266 v -0.322 l 0.5068,-0.1624 v 0.4844 h 0.3416 V 13.85 h -0.3416 v 0.4592 q 0,0.1008 0.0588,0.154 0.0616,0.0504 0.1512,0.0504 z" style="font-size:2.8px;line-height:1.25;font-family:'Muli Black';-inkscape-font-specification:'Muli Black, ';fill:#eeeeee;stroke-width:0.264583" id="path937"/>
      <path d="m 16.38997,14.9224 q -0.238,0 -0.414399,-0.0896 -0.1764,-0.0896 -0.2716,-0.2576 -0.0952,-0.168 -0.0952,-0.3948 0,-0.2268 0.0952,-0.3948 0.0952,-0.168 0.2716,-0.2576 0.176399,-0.0896 0.414399,-0.0896 0.2352,0 0.4088,0.0924 0.1764,0.0896 0.2716,0.2576 0.0952,0.1652 0.0952,0.392 0,0.2268 -0.0952,0.3948 -0.0952,0.1652 -0.2716,0.2576 -0.1736,0.0896 -0.4088,0.0896 z m 0,-0.378 q 0.2744,0 0.2744,-0.364 0,-0.1848 -0.07,-0.2716 -0.0672,-0.0896 -0.2044,-0.0896 -0.14,0 -0.21,0.0896 -0.07,0.0868 -0.07,0.2716 0,0.1876 0.07,0.2772 0.07,0.0868 0.21,0.0868 z" style="font-size:2.8px;line-height:1.25;font-family:'Muli Black';-inkscape-font-specification:'Muli Black, ';fill:#eeeeee;stroke-width:0.264583" id="path939"/>
      <path d="m 18.302365,13.444 q 0.1036,0 0.1596,0.0308 v 0.462 q -0.1204,-0.056 -0.2324,-0.056 -0.3192,0 -0.3192,0.3052 V 14.9 h -0.5068 v -1.0136 q 0,-0.2296 -0.0224,-0.4088 h 0.476 l 0.0308,0.238 q 0.0504,-0.1316 0.1624,-0.2016 0.112,-0.07 0.252,-0.07 z" style="font-size:2.8px;line-height:1.25;font-family:'Muli Black';-inkscape-font-specification:'Muli Black, ';fill:#eeeeee;stroke-width:0.264583" id="path941"/>
    </g>
  </g>
  <g id="g29">
    <g aria-label="1" id="text27" style="font-size:2.8px;line-height:1.25;font-family:'Muli Black';-inkscape-font-specification:'Muli Black, ';fill:#eeeeee;stroke-width:0.264583">
      <path d="M 4.8008001,26.4828 V 26.9 h -1.3832 v -0.4172 h 0.4284 v -1.0052 l -0.4004,0.2296 v -0.4508 l 0.616,-0.35 h 0.308 v 1.5764 z" style="font-size:2.8px;line-height:1.25;font-family:'Muli Black';-inkscape-font-specification:'Muli Black, ';fill:#eeeeee;stroke-width:0.264583" id="path944"/>
    </g>
  </g>
  <g id="g33">
    <g aria-label="2" id="text31" style="font-size:2.8px;line-height:1.25;font-family:'Muli Black';-inkscape-font-specification:'Muli Black, ';fill:#eeeeee;stroke-width:0.264583">
      <path d="M 16.7252,26.4828 V 26.9 h -1.4056 v -0.3864 l 0.6496,-0.6776 q 0.182,-0.1904 0.182,-0.3556 0,-0.1932 -0.2296,-0.1932 -0.1176,0 -0.2492,0.0476 -0.1288,0.0448 -0.2604,0.1316 L 15.2468,25.094 q 0.1204,-0.098 0.3108,-0.154 0.1932,-0.0588 0.392,-0.0588 0.2156,0 0.3752,0.07 0.1624,0.0672 0.2492,0.196 0.0896,0.126 0.0896,0.2968 0,0.1736 -0.07,0.3164 -0.0672,0.14 -0.2324,0.3164 l -0.3976,0.406 z" style="font-size:2.8px;line-height:1.25;font-family:'Muli Black';-inkscape-font-specification:'Muli Black, ';fill:#eeeeee;stroke-width:0.264583" id="path947"/>
    </g>
  </g>
  <g id="g37">
    <g aria-label="4" id="text35" style="font-size:2.8px;line-height:1.25;font-family:'Muli Black';-inkscape-font-specification:'Muli Black, ';fill:#eeeeee;stroke-width:0.264583">
      <path d="m 4.8064001,32.564002 h -0.2576 v 0.336 h -0.5152 v -0.336 h -0.798 v -0.3864 l 0.8932,-1.2712 h 0.42 v 1.2572 h 0.2576 z m -0.7728,-0.4004 v -0.4704 l -0.3276,0.4704 z" style="font-size:2.8px;line-height:1.25;font-family:'Muli Black';-inkscape-font-specification:'Muli Black, ';fill:#eeeeee;stroke-width:0.264583" id="path950"/>
    </g>
  </g>
  <g id="g41">
    <g aria-label="3" id="text39" style="font-size:2.8px;line-height:1.25;font-family:'Muli Black';-inkscape-font-specification:'Muli Black, ';fill:#eeeeee;stroke-width:0.264583">
      <path d="m 16.3556,31.872402 q 0.1736,0.0504 0.266,0.1764 0.0952,0.126 0.0952,0.308 0,0.1736 -0.0952,0.3024 -0.0924,0.126 -0.2688,0.196 -0.1764,0.0672 -0.4116,0.0672 -0.21,0 -0.4088,-0.056 -0.196,-0.0588 -0.3136,-0.1568 l 0.1652,-0.3724 q 0.2604,0.1792 0.532,0.1792 0.168,0 0.238,-0.0476 0.07,-0.0504 0.07,-0.168 0,-0.112 -0.07,-0.1596 -0.0672,-0.0476 -0.2268,-0.0476 h -0.3108 v -0.4032 h 0.2576 q 0.1568,0 0.224,-0.042 0.07,-0.0448 0.07,-0.1428 0,-0.1064 -0.0672,-0.1624 -0.0644,-0.056 -0.182,-0.056 -0.1204,0 -0.2548,0.0476 -0.1316,0.0448 -0.252,0.1316 l -0.1652,-0.3724 q 0.1204,-0.0952 0.3136,-0.154 0.196,-0.0588 0.3948,-0.0588 0.2128,0 0.3724,0.0672 0.1596,0.0672 0.2464,0.1932 0.0896,0.1232 0.0896,0.2884 0.0028,0.1568 -0.0784,0.2716 -0.0812,0.1148 -0.2296,0.1708 z" style="font-size:2.8px;line-height:1.25;font-family:'Muli Black';-inkscape-font-specification:'Muli Black, ';fill:#eeeeee;stroke-width:0.264583" id="path953"/>
    </g>
  </g>
  <g id="S1_images_Panel-Push_svg_0" transform="translate(1.75, 16.25)">
    <path id="circle43" style="fill:none;stroke:#eeeeee;stroke-width:0.4px" d="M 7.45,3.75 A 3.2,3.2 0 0 1 4.25,6.95 3.2,3.2 0 0 1 1.05,3.75 3.2,3.2 0 0 1 4.25,0.54999995 3.2,3.2 0 0 1 7.45,3.75 Z"/>
  </g>
  <g id="S2_images_Panel-Push_svg_0" transform="translate(10.07, 16.25)">
    <path id="circle46" style="fill:none;stroke:#eeeeee;stroke-width:0.4px" d="M 7.45,3.75 A 3.2,3.2 0 0 1 4.25,6.95 3.2,3.2 0 0 1 1.05,3.75 3.2,3.2 0 0 1 4.25,0.54999995 3.2,3.2 0 0 1 7.45,3.75 Z"/>
  </g>
  <g id="S4_images_Panel-Push_svg_0" transform="translate(1.75, 34.25)">
    <path id="circle49" style="fill:none;stroke:#eeeeee;stroke-width:0.4px" d="M 7.45,3.75 A 3.2,3.2 0 0 1 4.25,6.95 3.2,3.2 0 0 1 1.05,3.75 3.2,3.2 0 0 1 4.25,0.54999995 3.2,3.2 0 0 1 7.45,3.75 Z"/>
  </g>
  <g id="S3_images_Panel-Push_svg_0" transform="translate(10.07, 34.25)">
    <path id="circle52" style="fill:none;stroke:#eeeeee;stroke-width:0.4px" d="M 7.45,3.75 A 3.2,3.2 0 0 1 4.25,6.95 3.2,3.2 0 0 1 1.05,3.75 3.2,3.2 0 0 1 4.25,0.54999995 3.2,3.2 0 0 1 7.45,3.75 Z"/>
  </g>
  <g id="g57">
    <text id="text55" y="55.3" x="10.16" style="fill:#eeeeee;font-size:2.6px;line-height:1.25;font-family:'Muli Black';-inkscape-font-specification:'Muli Black, ';stroke-width:0.264583" xml:space="preserve"/>
  </g>
  <g id="MORPH_SLOTS_images_Panel-Push_svg_0" transform="translate(5.91, 58.25)">
    <path id="circle59" style="fill:none;stroke:#eeeeee;stroke-width:0.4px" d="M 7.45,3.75 A 3.2,3.2 0 0 1 4.25,6.95 3.2,3.2 0 0 1 1.05,3.75 3.2,3.2 0 0 1 4.25,0.54999995 3.2,3.2 0 0 1 7.45,3.75 Z"/>
  </g>
  <g id="g64">
    <g aria-label="MORPH" id="text62" style="font-size:2.4px;line-height:1.25;font-family:'Muli Black';-inkscape-font-specification:'Muli Black, ';fill:#eeeeee;stroke-width:0.264583">
      <path d="m 7.484,65.991197 v 1.7088 H 7.0904 l -0.0024,-0.7824 -0.324,0.7824 H 6.4783999 l -0.3264,-0.7728 v 0.7728 h -0.3912 v -1.7088 h 0.3528 l 0.5112,1.1664 0.5088001,-1.1664 z" style="font-size:2.4px;line-height:1.25;font-family:'Muli Black';-inkscape-font-specification:'Muli Black, ';fill:#eeeeee;stroke-width:0.264583" id="path961"/>
      <path d="m 8.6119983,67.721597 q -0.2616,0 -0.456,-0.1056 -0.1944,-0.108 -0.3,-0.3072 -0.1032,-0.1992 -0.1032,-0.4656 0,-0.2664 0.1056,-0.4632 0.1056,-0.1968 0.2976,-0.3024 0.1944,-0.108 0.456,-0.108 0.2616,0 0.4536,0.108 0.1944,0.1056 0.2976,0.3024 0.1032001,0.1968 0.1032001,0.4632 0,0.2664 -0.1032001,0.4656 -0.1032,0.1992 -0.2976,0.3072 -0.192,0.1056 -0.4536,0.1056 z m 0,-0.3432 q 0.192,0 0.3,-0.1368 0.1104,-0.1368 0.1104,-0.3984 0,-0.2592 -0.1104,-0.3936 -0.108,-0.1368 -0.3,-0.1368 -0.192,0 -0.3,0.1344 -0.108,0.1344 -0.108,0.396 0,0.264 0.108,0.4008 0.108,0.1344 0.3,0.1344 z" style="font-size:2.4px;line-height:1.25;font-family:'Muli Black';-inkscape-font-specification:'Muli Black, ';fill:#eeeeee;stroke-width:0.264583" id="path963"/>
      <path d="m 11.215995,67.699997 h -0.4776 l -0.2208,-0.5688 q -0.0384,-0.096 -0.18,-0.096 h -0.1632 v 0.6648 H 9.7303946 v -1.7088 h 0.7944004 q 0.3096,0 0.4656,0.1344 0.156,0.132 0.156,0.3792 0,0.1728 -0.0936,0.3 -0.0912,0.1248 -0.2592,0.1776 0.072,0.0144 0.1296,0.0672 0.0576,0.0528 0.0912,0.1416 z m -0.7632,-1.0008 q 0.144,0 0.2088,-0.0432 0.0648,-0.0456 0.0648,-0.1392 0,-0.0984 -0.0648,-0.1416 -0.0624,-0.0432 -0.2088,-0.0432 h -0.2832 v 0.3672 z" style="font-size:2.4px;line-height:1.25;font-family:'Muli Black';-inkscape-font-specification:'Muli Black, ';fill:#eeeeee;stroke-width:0.264583" id="path965"/>
      <path d="m 11.443991,65.991197 h 0.8136 q 0.2928,0 0.453601,0.1416 0.1608,0.1392 0.1608,0.3792 0,0.2376 -0.1632,0.3792 -0.163201,0.1416 -0.451201,0.1416 h -0.3624 v 0.6672 h -0.4512 z m 0.7536,0.7056 q 0.2544,0 0.2544,-0.18 0,-0.0912 -0.0624,-0.1368 -0.06,-0.048 -0.192,-0.048 h -0.3024 v 0.3648 z" style="font-size:2.4px;line-height:1.25;font-family:'Muli Black';-inkscape-font-specification:'Muli Black, ';fill:#eeeeee;stroke-width:0.264583" id="path967"/>
      <path d="m 14.662391,65.991197 v 1.7088 h -0.4416 v -0.6912 h -0.6912 v 0.6912 h -0.4416 v -1.7088 h 0.4416 v 0.6648 h 0.6912 v -0.6648 z" style="font-size:2.4px;line-height:1.25;font-family:'Muli Black';-inkscape-font-specification:'Muli Black, ';fill:#eeeeee;stroke-width:0.264583" id="path969"/>
    </g>
  </g>
  <g id="RAND_images_Panel-Push_svg_0" transform="translate(5.91, 71.25)">
    <path id="circle66" style="fill:none;stroke:#eeeeee;stroke-width:0.4px" d="M 7.45,3.75 A 3.2,3.2 0 0 1 4.25,6.95 3.2,3.2 0 0 1 1.05,3.75 3.2,3.2 0 0 1 4.25,0.54999995 3.2,3.2 0 0 1 7.45,3.75 Z"/>
  </g>
  <g id="g71">
    <g aria-label="RAND" id="text69" style="font-size:2.4px;line-height:1.25;font-family:'Muli Black';-inkscape-font-specification:'Muli Black, ';fill:#eeeeee;stroke-width:0.264583">
      <path d="M 8.1992,80.699997 H 7.7216 l -0.2208,-0.5688 q -0.0384,-0.096 -0.18,-0.096 H 7.1576 v 0.6648 H 6.7135999 v -1.7088 H 7.508 q 0.3096,0 0.4656,0.1344 0.156,0.132 0.156,0.3792 0,0.1728 -0.0936,0.3 -0.0912,0.1248 -0.2592,0.1776 0.072,0.0144 0.1296,0.0672 0.0576,0.0528 0.0912,0.1416 z m -0.7632,-1.0008 q 0.144,0 0.2088,-0.0432 0.0648,-0.0456 0.0648,-0.1392 0,-0.0984 -0.0648,-0.1416 -0.0624,-0.0432 -0.2088,-0.0432 H 7.1528 v 0.3672 z" style="font-size:2.4px;line-height:1.25;font-family:'Muli Black';-inkscape-font-specification:'Muli Black, ';fill:#eeeeee;stroke-width:0.264583" id="path973"/>
      <path d="m 9.5527934,80.347197 h -0.7584 l -0.1512,0.3528 H 8.1919933 l 0.7992001,-1.7088 h 0.3552 l 0.8015996,1.7088 H 9.7039934 Z m -0.1464,-0.3384 -0.2328,-0.54 -0.2328,0.54 z" style="font-size:2.4px;line-height:1.25;font-family:'Muli Black';-inkscape-font-specification:'Muli Black, ';fill:#eeeeee;stroke-width:0.264583" id="path975"/>
      <path d="m 11.775191,78.991197 v 1.7088 h -0.3336 l -0.7752,-0.9696 v 0.9696 h -0.42 v -1.7088 h 0.3288 l 0.7752,0.9648 v -0.9648 z" style="font-size:2.4px;line-height:1.25;font-family:'Muli Black';-inkscape-font-specification:'Muli Black, ';fill:#eeeeee;stroke-width:0.264583" id="path977"/>
      <path d="m 12.084789,78.991197 h 0.6984 q 0.2832,0 0.4872,0.1032 0.2064,0.1008 0.3144,0.2928 0.1104,0.192 0.1104,0.456 0,0.2664 -0.108,0.4608 -0.108,0.192 -0.3144,0.2952 -0.204,0.1008 -0.4896,0.1008 h -0.6984 z m 0.6672,1.3488 q 0.2496,0 0.372,-0.1224 0.1248,-0.1248 0.1248,-0.3744 0,-0.492 -0.4968,-0.492 h -0.216 v 0.9888 z" style="font-size:2.4px;line-height:1.25;font-family:'Muli Black';-inkscape-font-specification:'Muli Black, ';fill:#eeeeee;stroke-width:0.264583" id="path979"/>
    </g>
  </g>
  <g id="g75">
    <g aria-label="V/OCT" id="text73" style="font-size:2.6px;line-height:1.25;font-family:'Muli Black';-inkscape-font-specification:'Muli Black, ';fill:#eeeeee;stroke-width:0.264583">
      <path d="m 2.8523999,106.4488 -0.8424,1.8512 h -0.3874 L 0.78019998,106.4488 H 1.2872 l 0.5329999,1.2428 0.5408,-1.2428 z" style="font-size:2.6px;line-height:1.25;font-family:'Muli Black';-inkscape-font-specification:'Muli Black, ';fill:#eeeeee;stroke-width:0.264583" id="path982"/>
      <path d="m 2.6677973,108.4664 0.6838,-2.1372 h 0.3796 l -0.6864,2.1372 z" style="font-size:2.6px;line-height:1.25;font-family:'Muli Black';-inkscape-font-specification:'Muli Black, ';fill:#eeeeee;stroke-width:0.264583" id="path984"/>
      <path d="m 4.6801934,108.3234 q -0.2834,0 -0.494,-0.1144 -0.2106,-0.117 -0.325,-0.3328 -0.1118,-0.2158 -0.1118,-0.5044 0,-0.2886 0.1144,-0.5018 0.1144,-0.2132 0.3224,-0.3276 0.2106,-0.117 0.494,-0.117 0.2834,0 0.4914,0.117 0.2106,0.1144 0.3224,0.3276 0.1117999,0.2132 0.1117999,0.5018 0,0.2886 -0.1117999,0.5044 -0.1118,0.2158 -0.3224,0.3328 -0.208,0.1144 -0.4914,0.1144 z m 0,-0.3718 q 0.208,0 0.325,-0.1482 0.1196,-0.1482 0.1196,-0.4316 0,-0.2808 -0.1196,-0.4264 -0.117,-0.1482 -0.325,-0.1482 -0.208,0 -0.325,0.1456 -0.117,0.1456 -0.117,0.429 0,0.286 0.117,0.4342 0.117,0.1456 0.325,0.1456 z" style="font-size:2.6px;line-height:1.25;font-family:'Muli Black';-inkscape-font-specification:'Muli Black, ';fill:#eeeeee;stroke-width:0.264583" id="path986"/>
      <path d="m 6.7913888,108.3234 q -0.2886,0 -0.5044,-0.117 -0.2132,-0.1196 -0.3302,-0.3354 -0.1144,-0.2158 -0.1144,-0.4992 0,-0.2808 0.1144,-0.494 0.117,-0.2158 0.3302,-0.3328 0.2158,-0.1196 0.5044,-0.1196 0.182,0 0.351,0.0546 0.1716,0.0546 0.2756,0.1482 l -0.1482,0.3458 q -0.2262,-0.1638 -0.468,-0.1638 -0.2236,0 -0.3432,0.143 -0.1196,0.1404 -0.1196,0.4186 0,0.2808 0.1196,0.4238 0.1196,0.143 0.3432,0.143 0.2418,0 0.468,-0.1638 l 0.1482,0.3458 q -0.104,0.0936 -0.2756,0.1482 -0.169,0.0546 -0.351,0.0546 z" style="font-size:2.6px;line-height:1.25;font-family:'Muli Black';-inkscape-font-specification:'Muli Black, ';fill:#eeeeee;stroke-width:0.264583" id="path988"/>
      <path d="m 8.062787,106.844 h -0.5512 v -0.3952 h 1.5964 v 0.3952 h -0.5512 v 1.456 h -0.494 z" style="font-size:2.6px;line-height:1.25;font-family:'Muli Black';-inkscape-font-specification:'Muli Black, ';fill:#eeeeee;stroke-width:0.264583" id="path990"/>
    </g>
  </g>
  <g id="g79">
    <g aria-label="GATE" id="text77" style="font-size:2.6px;line-height:1.25;font-family:'Muli Black';-inkscape-font-specification:'Muli Black, ';fill:#eeeeee;stroke-width:0.264583">
      <path d="m 3.2995999,93.254803 v 0.9282 q -0.1482,0.0676 -0.3327999,0.104 -0.182,0.0364 -0.3744,0.0364 -0.3016,0 -0.5252,-0.1144 -0.221,-0.1144 -0.3406,-0.3276 -0.1196,-0.2158 -0.1196,-0.5096 0,-0.286 0.1196,-0.4992 0.1196,-0.2158 0.338,-0.3302 0.2184,-0.117 0.5096,-0.117 0.2002,0 0.377,0.052 0.1793999,0.052 0.2911999,0.143 L 3.089,92.966203 q -0.1274,-0.0832 -0.247,-0.1196 -0.117,-0.039 -0.2522,-0.039 -0.247,0 -0.3692,0.1404 -0.1196,0.1378 -0.1196,0.4238 0,0.2964 0.1248,0.4394 0.1274,0.143 0.39,0.143 0.1222,0 0.2444,-0.026 v -0.3432 H 2.5378 v -0.3302 z" style="font-size:2.6px;line-height:1.25;font-family:'Muli Black';-inkscape-font-specification:'Muli Black, ';fill:#eeeeee;stroke-width:0.264583" id="path993"/>
      <path d="m 4.8569984,93.917803 h -0.8216 l -0.1638,0.3822 H 3.3827985 l 0.8657999,-1.8512 h 0.3848 l 0.8684,1.8512 h -0.481 z m -0.1586,-0.3666 -0.2522,-0.585 -0.2522,0.585 z" style="font-size:2.6px;line-height:1.25;font-family:'Muli Black';-inkscape-font-specification:'Muli Black, ';fill:#eeeeee;stroke-width:0.264583" id="path995"/>
      <path d="m 5.7825951,92.844003 h -0.5512 v -0.3952 H 6.827795 v 0.3952 h -0.5512 v 1.456 H 5.7825951 Z" style="font-size:2.6px;line-height:1.25;font-family:'Muli Black';-inkscape-font-specification:'Muli Black, ';fill:#eeeeee;stroke-width:0.264583" id="path997"/>
      <path d="m 7.0253909,92.448803 h 1.3208 v 0.3744 h -0.845 v 0.3484 h 0.7904 v 0.3744 h -0.7904 v 0.3796 h 0.845 v 0.3744 h -1.3208 z" style="font-size:2.6px;line-height:1.25;font-family:'Muli Black';-inkscape-font-specification:'Muli Black, ';fill:#eeeeee;stroke-width:0.264583" id="path999"/>
    </g>
  </g>
  <g id="g83">
    <g aria-label="VEL" id="text81" style="font-size:2.6px;line-height:1.25;font-family:'Muli Black';-inkscape-font-specification:'Muli Black, ';fill:#eeeeee;stroke-width:0.264583">
      <path d="m 14.5424,92.448803 -0.8424,1.8512 h -0.3874 l -0.8424,-1.8512 h 0.507 l 0.533,1.2428 0.5408,-1.2428 z" style="font-size:2.6px;line-height:1.25;font-family:'Muli Black';-inkscape-font-specification:'Muli Black, ';fill:#eeeeee;stroke-width:0.264583" id="path1002"/>
      <path d="m 14.648998,92.448803 h 1.3208 v 0.3744 h -0.845 v 0.3484 h 0.7904 v 0.3744 h -0.7904 v 0.3796 h 0.845 v 0.3744 h -1.3208 z" style="font-size:2.6px;line-height:1.25;font-family:'Muli Black';-inkscape-font-specification:'Muli Black, ';fill:#eeeeee;stroke-width:0.264583" id="path1004"/>
      <path d="m 16.219393,92.448803 h 0.4888 v 1.456 h 0.7826 v 0.3952 h -1.2714 z" style="font-size:2.6px;line-height:1.25;font-family:'Muli Black';-inkscape-font-specification:'Muli Black, ';fill:#eeeeee;stroke-width:0.264583" id="path1006"/>
    </g>
  </g>
  <g id="OUT_images_Panel-JackOutput_svg_1" transform="matrix(0.93422902,0,0,1,9.5656038,92)">
    <path d="m 11.454,6.574 c 0,-1.504 -1.221,-2.725 -2.725,-2.725 h -5.45 c -1.504,0 -2.725,1.221 -2.725,2.725 v 8.052 c 0,1.504 1.221,2.725 2.725,2.725 h 5.45 c 1.504,0 2.725,-1.221 2.725,-2.725 z" style="fill:none;stroke:#eeeeee;stroke-width:0.42px" id="path85"/>
  </g>
  <g id="g90">
    <g aria-label="OUT" id="text88" style="font-size:2.6px;line-height:1.25;font-family:'Muli Black';-inkscape-font-specification:'Muli Black, ';fill:#eeeeee;stroke-width:0.264583">
      <path d="m 13.1878,108.3234 q -0.2834,0 -0.494,-0.1144 -0.2106,-0.117 -0.325,-0.3328 -0.1118,-0.2158 -0.1118,-0.5044 0,-0.2886 0.1144,-0.5018 0.1144,-0.2132 0.3224,-0.3276 0.2106,-0.117 0.494,-0.117 0.2834,0 0.4914,0.117 0.2106,0.1144 0.3224,0.3276 0.1118,0.2132 0.1118,0.5018 0,0.2886 -0.1118,0.5044 -0.1118,0.2158 -0.3224,0.3328 -0.208,0.1144 -0.4914,0.1144 z m 0,-0.3718 q 0.208,0 0.325,-0.1482 0.1196,-0.1482 0.1196,-0.4316 0,-0.2808 -0.1196,-0.4264 -0.117,-0.1482 -0.325,-0.1482 -0.208,0 -0.325,0.1456 -0.117,0.1456 -0.117,0.429 0,0.286 0.117,0.4342 0.117,0.1456 0.325,0.1456 z" style="font-size:2.6px;line-height:1.25;font-family:'Muli Black';-inkscape-font-specification:'Muli Black, ';fill:#eeeeee;stroke-width:0.264583" id="path1009"/>
      <path d="m 15.213196,108.3234 q -0.4056,0 -0.6136,-0.2028 -0.208,-0.2054 -0.208,-0.6006 v -1.0712 h 0.4758 v 1.0894 q 0,0.2002 0.0884,0.3068 0.091,0.1066 0.2574,0.1066 0.1638,0 0.2522,-0.1066 0.0884,-0.1092 0.0884,-0.3068 v -1.0894 h 0.481 v 1.0712 q 0,0.39 -0.2132,0.598 -0.2106,0.2054 -0.6084,0.2054 z" style="font-size:2.6px;line-height:1.25;font-family:'Muli Black';-inkscape-font-specification:'Muli Black, ';fill:#eeeeee;stroke-width:0.264583" id="path1011"/>
      <path d="m 16.770593,106.844 h -0.5512 v -0.3952 h 1.5964 v 0.3952 h -0.5512 v 1.456 h -0.494 z" style="font-size:2.6px;line-height:1.25;font-family:'Muli Black';-inkscape-font-specification:'Muli Black, ';fill:#eeeeee;stroke-width:0.264583" id="path1013"/>
    </g>
  </g>
  <g aria-label="uOPULUS" id="text5827" style="font-size:3.88056px;line-height:1.25;font-family:'Muli Black';-inkscape-font-specification:'Muli Black, ';fill:#eeeeee;stroke-width:0.264583">
    <path d="M 3.1891987,7.1428151 V 9.1141396 H 2.5023396 V 8.8502615 Q 2.3121922,9.145184 1.9396584,9.145184 1.5632441,9.145184 1.3769772,8.9356338 1.1945909,8.7260836 1.1945909,8.2953414 V 7.1428151 h 0.7023813 v 1.1719291 q 0,0.291042 0.2522364,0.291042 0.1474613,0 0.2367142,-0.1047751 0.093133,-0.1047751 0.093133,-0.2794003 V 7.1428151 Z" id="path1025"/>
    <path d="m 4.9631602,9.1490646 q -0.422981,0 -0.7373064,-0.1707446 -0.3143253,-0.1746252 -0.48507,-0.4967117 -0.166864,-0.3220865 -0.166864,-0.7528286 0,-0.4307422 0.1707446,-0.7489481 Q 3.915409,6.6616257 4.2258538,6.4908811 4.5401792,6.3162559 4.9631602,6.3162559 q 0.422981,0 0.7334258,0.1746252 0.3143254,0.1707446 0.4811895,0.4889505 0.166864,0.3182059 0.166864,0.7489481 0,0.4307421 -0.166864,0.7528286 Q 6.0109114,8.8036948 5.696586,8.97832 5.3861412,9.1490646 4.9631602,9.1490646 Z m 0,-0.5549201 q 0.3104448,0 0.48507,-0.2211919 0.1785057,-0.2211919 0.1785057,-0.6441729 0,-0.4191005 -0.1785057,-0.6364119 -0.1746252,-0.2211919 -0.48507,-0.2211919 -0.3104448,0 -0.48507,0.2173114 -0.1746252,0.2173113 -0.1746252,0.6402924 0,0.4268616 0.1746252,0.6480535 0.1746252,0.2173113 0.48507,0.2173113 z" id="path1027"/>
    <path d="m 6.7702886,6.3511809 h 1.3155098 q 0.4734283,0 0.7334259,0.228953 0.2599975,0.2250725 0.2599975,0.6131285 0,0.3841754 -0.2638781,0.6131285 -0.2638781,0.228953 -0.7295453,0.228953 H 7.4998339 V 9.1141396 H 6.7702886 Z m 1.2184958,1.1408846 q 0.4113394,0 0.4113394,-0.291042 0,-0.1474613 -0.1008946,-0.2211919 -0.097014,-0.077611 -0.3104448,-0.077611 H 7.4998339 v 0.5898451 z" id="path1029"/>
    <path d="m 10.64521,9.1490646 q -0.605367,0 -0.9158123,-0.3026837 Q 9.4189529,8.5398167 9.4189529,7.9499716 V 6.3511809 h 0.7101421 v 1.6259546 q 0,0.2988031 0.131939,0.4579061 0.13582,0.1591029 0.384176,0.1591029 0.244475,0 0.376414,-0.1591029 0.131939,-0.1629835 0.131939,-0.4579061 V 6.3511809 h 0.717904 v 1.5987907 q 0,0.582084 -0.318206,0.8925288 -0.314325,0.3065642 -0.908051,0.3065642 z" id="path1031"/>
    <path d="M 12.348594,9.1141396 V 6.3511809 h 0.729545 v 2.1731135 h 1.168049 v 0.5898452 z" id="path1033"/>
    <path d="m 15.68539,9.1490646 q -0.605367,0 -0.915812,-0.3026837 Q 14.459133,8.5398167 14.459133,7.9499716 V 6.3511809 h 0.710143 v 1.6259546 q 0,0.2988031 0.131939,0.4579061 0.135819,0.1591029 0.384175,0.1591029 0.244475,0 0.376414,-0.1591029 0.131939,-0.1629835 0.131939,-0.4579061 V 6.3511809 h 0.717904 v 1.5987907 q 0,0.582084 -0.318206,0.8925288 -0.314325,0.3065642 -0.908051,0.3065642 z" id="path1035"/>
    <path d="m 18.389959,9.1490646 q -0.310445,0 -0.613129,-0.081492 -0.302684,-0.081492 -0.492831,-0.2211919 l 0.228953,-0.5161144 q 0.201789,0.1280584 0.426862,0.1979085 0.228953,0.06597 0.457906,0.06597 0.232833,0 0.357011,-0.062089 0.124178,-0.065969 0.124178,-0.1823863 0,-0.1047752 -0.112536,-0.1707447 Q 18.653837,8.1090745 18.343392,8.043105 17.951455,7.9654938 17.734144,7.8529576 17.516833,7.7365408 17.42758,7.5813184 17.342207,7.426096 17.342207,7.2049041 q 0,-0.2522364 0.143581,-0.4540255 0.143581,-0.2056697 0.403578,-0.3182059 0.259998,-0.1164168 0.593726,-0.1164168 0.298803,0 0.578203,0.085372 0.283281,0.081492 0.442384,0.2173113 L 19.278607,7.135054 Q 19.09622,7.0069955 18.894431,6.941026 q -0.201789,-0.06985 -0.403578,-0.06985 -0.197908,0 -0.318206,0.077611 -0.120297,0.073731 -0.120297,0.2017891 0,0.06985 0.04269,0.1164168 0.04269,0.046567 0.159103,0.093133 0.116417,0.042686 0.34925,0.093133 0.376415,0.081492 0.589845,0.1979086 0.217312,0.1125362 0.306565,0.2677586 0.08925,0.1513418 0.08925,0.3647726 0,0.4035783 -0.314326,0.6364119 -0.314325,0.228953 -0.884767,0.228953 z" id="path1037"/>
  </g>
</svg>