<svg width="60px" height="380px" version="1.1" xmlns="http://www.w3.org/2000/svg" xmlns:xlink="http://www.w3.org/1999/xlink" xml:space="preserve" xmlns:serif="http://www.serif.com/" style="fill-rule:evenodd;clip-rule:evenodd;stroke-linecap:round;stroke-linejoin:round;stroke-miterlimit:1.5;">
  <defs>
    <linearGradient id="_Linear1" x1="0" y1="0" x2="1" y2="0" gradientUnits="userSpaceOnUse" gradientTransform="matrix(0.007008,-37.8989,37.8989,0.007008,45.2834,112.195)">
      <stop offset="0" style="stop-color:#202020;stop-opacity:1"/>
      <stop offset="1" style="stop-color:#202020;stop-opacity:1"/>
    </linearGradient>
    <linearGradient id="_Linear2" x1="0" y1="0" x2="1" y2="0" gradientUnits="userSpaceOnUse" gradientTransform="matrix(-4.75,94.86,-94.86,-4.75,247.47,158.47)">
      <stop offset="0" style="stop-color:#202020;stop-opacity:1"/>
      <stop offset="1" style="stop-color:#202020;stop-opacity:1"/>
    </linearGradient>
    <linearGradient id="_Linear3" x1="0" y1="0" x2="1" y2="0" gradientUnits="userSpaceOnUse" gradientTransform="matrix(-4.88,-92.58,92.58,-4.88,247.47,345.92)">
      <stop offset="0" style="stop-color:#202020;stop-opacity:1"/>
      <stop offset="1" style="stop-color:#202020;stop-opacity:1"/>
    </linearGradient>
    <linearGradient id="_Linear4" x1="0" y1="0" x2="1" y2="0" gradientUnits="userSpaceOnUse" gradientTransform="matrix(1.15392e-16,-1.8845,1.8845,1.15392e-16,27.6195,1.9358)">
      <stop offset="0" style="stop-color:#202020;stop-opacity:1"/>
      <stop offset="1" style="stop-color:#202020;stop-opacity:1"/>
    </linearGradient>
  </defs>
  <g id="Panel">
    <g>
      <rect x="0" y="0" width="60" height="380" style="fill:url(#_Linear1);"/>
      <rect x="0" y="126.67" width="60" height="126.67" style="fill:url(#_Linear2);"/>
      <rect x="0" y="253.33" width="60" height="126.67" style="fill:url(#_Linear3);"/>
    </g>
    <rect x="-0" y="0" width="60" height="380" style="fill:#103550;fill-opacity:0.1;"/>
    <rect x="0" y="-0" width="60" height="2" style="fill:url(#_Linear4);"/>
    <g>
      <path d="M18.94,157.452l4.579,0" style="fill:none;stroke:#eeeeee;stroke-width:1px;"/>
      <path d="M36.94,157.452l4.579,0" style="fill:none;stroke:#eeeeee;stroke-width:1px;"/>
      <path d="M39.14,159.916l-0,-4.579" style="fill:none;stroke:#eeeeee;stroke-width:1px;"/>
      <path d="M40.039,154.249c0.946,-1.707 1.442,-3.625 1.442,-5.576c0,-6.347 -5.153,-11.5 -11.5,-11.5c-6.347,0 -11.5,5.153 -11.5,11.5c0,2.019 0.531,4.002 1.541,5.75l9.959,-5.75l10.058,5.576Z" style="fill:none;stroke:#eeeeee;stroke-width:1px;"/>
    </g>
    <path d="M29.996,74.07c-5.706,-0 -11.412,1.934 -16.027,5.805c-9.23,7.745 -11.587,21.128 -5.565,31.564c0.392,0.722 1.469,0.101 1.039,-0.6c-5.733,-9.934 -3.488,-22.672 5.297,-30.045c8.786,-7.369 21.725,-7.369 30.51,0c8.786,7.373 11.03,20.111 5.297,30.045c-0.43,0.701 0.647,1.322 1.039,0.6c6.023,-10.436 3.666,-23.819 -5.564,-31.564c-4.615,-3.871 -10.32,-5.805 -16.025,-5.805l-0.001,0Zm-18.883,41.52c-2.371,0 -4.307,1.936 -4.307,4.307c-0,2.371 1.936,4.304 4.307,4.304c2.371,0 4.306,-1.933 4.306,-4.304c0,-2.371 -1.935,-4.307 -4.306,-4.307Zm37.766,0c-2.371,0 -4.305,1.934 -4.305,4.305c-0,2.371 1.934,4.306 4.305,4.306c2.371,0 4.306,-1.935 4.306,-4.306c0,-2.371 -1.935,-4.305 -4.306,-4.305Zm-37.766,1.199c1.722,0 3.105,1.385 3.105,3.108c-0,1.722 -1.383,3.105 -3.105,3.105c-1.723,0 -3.106,-1.383 -3.106,-3.105c0,-1.723 1.383,-3.108 3.106,-3.108Z" style="fill:#eeeeee;fill-rule:nonzero;"/>
    <g>
      <g>
        <path d="M38.68,344.459c0,-4.509 -3.655,-8.165 -8.164,-8.165c-4.509,0 -8.165,3.656 -8.165,8.165c0,4.509 3.656,8.165 8.165,8.165c4.509,0 8.164,-3.656 8.164,-8.165Z" style="fill:#757575;fill-rule:nonzero;stroke:#353535;stroke-width:0.61px;stroke-linejoin:miter;stroke-miterlimit:10;"/>
        <path d="M28.62,349.429l0.553,-0.89l-1.064,-2.393l-2.216,-2.284l0.46,3.101l0.597,1.28l0.833,1.263l0.837,-0.077Z" style="fill:#2b2b2b;fill-rule:nonzero;"/>
        <path d="M32.35,349.439l-0.553,-0.891l1.064,-2.393l2.216,-2.284l-0.46,3.101l-0.597,1.28l-0.833,1.264l-0.837,-0.077Z" style="fill:#202020;fill-rule:nonzero;"/>
        <path d="M27.94,338.399l2.584,-0.661l0,13.448l-1.349,-2.651l-1.061,-2.385l-1.022,-0.581l-2.052,-2.921l-0.057,-0.775l1.148,-2.067l1.809,-1.407Z" style="fill:#424242;fill-rule:nonzero;"/>
        <path d="M33.1,338.399l-2.584,-0.66l0,13.448l1.35,-2.651l1.06,-2.385l1.023,-0.581l2.051,-2.921l0.058,-0.775l-1.149,-2.068l-1.809,-1.407Z" style="fill:#333;fill-rule:nonzero;"/>
        <path d="M28.8,344.279l1.723,-1.685l0,1.23l-1.723,1.718l0,-1.263" style="fill:#4c4c4c;fill-rule:nonzero;"/>
        <path d="M30.52,343.819l-1.723,1.718l0.377,3.004l1.346,2.643l0,-7.365Z" style="fill:#5b5b5b;fill-rule:nonzero;"/>
        <path d="M30.52,351.189l-1.346,-2.643l1.346,-0.635l0,3.278Z" style="fill:#333;fill-rule:nonzero;"/>
        <path d="M28.8,345.539l0,-1.264l-1.249,-1.579l-1.477,-1.19l-0.001,0.932l0.775,1.823l1.952,1.278Z" style="fill:#eeeeee;fill-rule:nonzero;"/>
        <path d="M32.24,344.279l-1.722,-1.684l0,1.23l1.722,1.718l0,-1.264" style="fill:#2d2d2d;fill-rule:nonzero;"/>
        <path d="M30.52,343.819l1.722,1.718l-0.376,3.004l-1.347,2.643l0.001,-7.365Z" style="fill:#353535;fill-rule:nonzero;"/>
        <path d="M30.52,351.189l1.347,-2.643l-1.346,-0.635l-0.001,3.278Z" style="fill:#202020;fill-rule:nonzero;"/>
        <path d="M32.24,345.539l0,-1.264l1.249,-1.579l1.478,-1.19l0.001,0.932l-0.775,1.823l-1.953,1.278Z" style="fill:#eeeeee;fill-rule:nonzero;"/>
        <path d="M27.95,338.379l2.566,4.216l-0.005,-4.87" style="fill:#383838;fill-rule:nonzero;"/>
        <path d="M33.08,338.379l-2.566,4.215l0.006,-4.87" style="fill:#2d2d2d;fill-rule:nonzero;"/>
        <path d="M28.11,346.149l0.688,-0.61l0.375,3.006l-1.063,-2.396Z" style="fill:#333;fill-rule:nonzero;"/>
        <path d="M32.93,346.169l-0.688,-0.61l-0.375,3.006l1.063,-2.396Z" style="fill:#1c1c1c;fill-rule:nonzero;"/>
      </g>
      <path d="M18.9,354.107l2.26,6.811c0.211,0.635 0.595,0.951 1.15,0.951c0.548,-0 0.929,-0.313 1.141,-0.942l2.269,-6.82l-1.744,0l-1.689,5.455l-1.633,-5.455l-1.754,-0Zm6.953,-0l0,5.768c0,0.482 0.052,0.829 0.154,1.041c0.278,0.578 0.797,0.867 1.557,0.867l2.127,-0c0.739,-0 1.255,-0.281 1.547,-0.844c0.11,-0.213 0.164,-0.572 0.164,-1.076l-0,-5.756l-1.645,-0l0,5.68l-0.01,0.054c-0.037,0.191 -0.224,0.285 -0.56,0.285l-1.119,0c-0.351,0 -0.54,-0.101 -0.569,-0.306l0,-5.713l-1.646,0Zm6.305,0l-0,5.801c-0,0.599 0.124,1.046 0.373,1.342c0.248,0.296 0.669,0.47 1.262,0.521c0.081,0.007 0.175,0.012 0.285,0.012l3.06,-0l0.01,-1.656l-2.927,-0c-0.279,-0 -0.416,-0.118 -0.416,-0.352l-0,-5.668l-1.647,0Zm5.043,0l-0,1.656l1.635,0l-0,6.02l1.644,-0l0,-6.02l1.656,0l0,-1.656l-4.935,0Z" style="fill:#666;fill-rule:nonzero;"/>
    </g>
    <path d="M48.778,192.27l0,-13.145c0,-5.182 -4.207,-9.389 -9.389,-9.389l-18.778,0c-5.182,0 -9.389,4.207 -9.389,9.389l0,13.145" style="fill:none;stroke:#eeeeee;stroke-width:1.2px;"/>
    <path d="M13.057,288.99c-5.764,0 -10.457,4.362 -10.457,9.721l-0,23.115c-0,5.36 4.693,9.722 10.457,9.722l33.334,0c5.764,0 10.457,-4.363 10.457,-9.722l-0,-23.115c-0,-5.359 -4.693,-9.721 -10.457,-9.721l-33.334,0Z" style="fill:none;stroke:#eeeeee;stroke-width:1.25px;stroke-linecap:butt;"/>
    <path d="M15.848,323.625c-0.493,0 -0.941,0.08 -1.349,0.244c-0.408,0.16 -0.759,0.389 -1.051,0.678c-0.293,0.288 -0.526,0.624 -0.689,1.008c-0.165,0.388 -0.248,0.805 -0.248,1.254c-0,0.448 0.084,0.868 0.248,1.252c0.164,0.388 0.396,0.723 0.689,1.011c0.292,0.289 0.643,0.512 1.051,0.676c0.408,0.164 0.856,0.244 1.349,0.244c0.484,0 0.932,-0.08 1.34,-0.244c0.412,-0.164 0.764,-0.387 1.061,-0.676c0.296,-0.288 0.529,-0.623 0.693,-1.011c0.168,-0.384 0.248,-0.804 0.248,-1.252c0,-0.449 -0.08,-0.866 -0.248,-1.254c-0.164,-0.384 -0.397,-0.72 -0.693,-1.008c-0.297,-0.289 -0.649,-0.518 -1.061,-0.678c-0.408,-0.164 -0.856,-0.244 -1.34,-0.244Zm4.334,0.168l0,3.494c0,0.94 0.216,1.626 0.649,2.059c0.432,0.432 1.092,0.646 1.984,0.646c0.889,0 1.549,-0.214 1.981,-0.646c0.428,-0.433 0.644,-1.119 0.644,-2.059l0,-3.494l-1.56,0l-0,3.279c-0,0.176 -0.01,0.355 -0.019,0.539c-0.016,0.184 -0.057,0.352 -0.125,0.5c-0.072,0.148 -0.175,0.274 -0.315,0.366c-0.14,0.092 -0.344,0.138 -0.605,0.138c-0.26,0 -0.466,-0.046 -0.61,-0.138c-0.144,-0.092 -0.246,-0.218 -0.314,-0.366c-0.068,-0.148 -0.109,-0.316 -0.121,-0.5c-0.012,-0.184 -0.019,-0.363 -0.019,-0.539l-0,-3.279l-1.57,0Zm5.955,0l0,1.326l1.284,0l-0,4.705l1.568,0l-0,-4.705l1.289,0l0,-1.326l-4.141,0Zm4.838,0l0,6.031l1.569,0l-0,-2l0.927,0c0.676,0 1.197,-0.177 1.557,-0.529c0.361,-0.352 0.541,-0.848 0.541,-1.488c0,-0.64 -0.18,-1.133 -0.541,-1.485c-0.36,-0.353 -0.881,-0.529 -1.557,-0.529l-2.496,0Zm5.422,0l0,3.494c0,0.94 0.217,1.626 0.649,2.059c0.433,0.432 1.096,0.646 1.984,0.646c0.893,0 1.552,-0.214 1.98,-0.646c0.428,-0.433 0.645,-1.119 0.645,-2.059l-0,-3.494l-1.561,0l0,3.279c0,0.176 -0.01,0.355 -0.02,0.539c-0.012,0.184 -0.057,0.352 -0.125,0.5c-0.068,0.148 -0.176,0.274 -0.316,0.366c-0.14,0.092 -0.34,0.138 -0.604,0.138c-0.26,0 -0.463,-0.046 -0.607,-0.138c-0.144,-0.092 -0.248,-0.218 -0.316,-0.366c-0.064,-0.148 -0.105,-0.316 -0.121,-0.5c-0.012,-0.184 -0.02,-0.363 -0.02,-0.539l-0,-3.279l-1.568,0Zm5.955,0l0,1.326l1.287,0l0,4.705l1.571,0l-0,-4.705l1.283,0l-0,-1.326l-4.141,0Zm-9.808,1.262l0.519,-0c0.576,-0 0.865,0.252 0.865,0.752c0,0.504 -0.289,0.752 -0.865,0.752l-0.519,-0l-0,-1.504Zm-16.695,0.088c0.228,-0 0.444,0.045 0.652,0.125c0.204,0.084 0.383,0.199 0.539,0.347c0.16,0.152 0.285,0.328 0.373,0.528c0.092,0.204 0.137,0.425 0.137,0.666c-0,0.24 -0.045,0.464 -0.137,0.664c-0.088,0.204 -0.213,0.379 -0.373,0.527c-0.156,0.152 -0.335,0.264 -0.539,0.348c-0.208,0.084 -0.424,0.125 -0.652,0.125c-0.233,-0 -0.449,-0.041 -0.653,-0.125c-0.208,-0.084 -0.389,-0.196 -0.541,-0.348c-0.156,-0.148 -0.279,-0.323 -0.367,-0.527c-0.092,-0.2 -0.137,-0.424 -0.137,-0.664c0,-0.241 0.045,-0.462 0.137,-0.666c0.088,-0.2 0.211,-0.376 0.367,-0.528c0.152,-0.148 0.333,-0.263 0.541,-0.347c0.204,-0.08 0.42,-0.125 0.653,-0.125Z" style="fill:#eeeeee;fill-rule:nonzero;"/>
    <path d="M15.654,292.32l0,3.529l1.412,0l0,0.997l-2.589,0l0,-4.526l1.177,0Z" style="fill:#898989;fill-rule:nonzero;"/>
    <path d="M42.29,294.35l0.224,0c0.232,0 0.408,-0.048 0.532,-0.144c0.124,-0.096 0.188,-0.236 0.188,-0.416c0,-0.181 -0.064,-0.317 -0.188,-0.413c-0.124,-0.096 -0.3,-0.144 -0.532,-0.144l-0.224,0l0,1.117Zm2.589,2.501l-1.465,0l-1.124,-1.741l0,1.741l-1.177,0l0,-4.526l1.833,0c0.252,0 0.472,0.04 0.66,0.112c0.188,0.076 0.34,0.176 0.464,0.304c0.12,0.128 0.213,0.276 0.277,0.444c0.06,0.168 0.092,0.348 0.092,0.541c0,0.344 -0.084,0.624 -0.249,0.836c-0.168,0.212 -0.412,0.36 -0.736,0.436l1.425,1.853Z" style="fill:#898989;fill-rule:nonzero;"/>
    <path d="M16.411,275.84l0,6.035l1.57,0l0,-6.035l-1.57,-0Zm2.834,-0l0,6.035l1.568,0l0,-3.689l2.897,3.689l1.56,0l0,-6.035l-1.56,-0l-0,3.691l-2.897,-3.691l-1.568,-0Zm7.291,-0l0,6.035l1.569,0l-0,-2l0.927,0c0.676,0 1.197,-0.177 1.557,-0.529c0.361,-0.352 0.541,-0.848 0.541,-1.488c-0,-0.64 -0.18,-1.137 -0.541,-1.489c-0.36,-0.353 -0.881,-0.529 -1.557,-0.529l-2.496,-0Zm5.426,-0l-0,3.498c-0,0.94 0.216,1.626 0.648,2.059c0.432,0.432 1.093,0.646 1.985,0.646c0.892,0 1.552,-0.214 1.98,-0.646c0.428,-0.433 0.645,-1.119 0.645,-2.059l-0,-3.498l-1.561,-0l0,3.283c0,0.176 -0.01,0.355 -0.019,0.539c-0.012,0.184 -0.056,0.352 -0.125,0.5c-0.068,0.148 -0.176,0.273 -0.316,0.365c-0.14,0.092 -0.344,0.139 -0.604,0.139c-0.26,0 -0.463,-0.047 -0.607,-0.139c-0.144,-0.092 -0.249,-0.217 -0.317,-0.365c-0.068,-0.148 -0.109,-0.316 -0.121,-0.5c-0.012,-0.184 -0.02,-0.363 -0.02,-0.539l0,-3.283l-1.568,-0Zm5.953,-0l0,1.33l1.289,0l0,4.705l1.57,0l0,-4.705l1.287,0l0,-1.33l-4.146,-0Zm-9.81,1.266l0.519,-0c0.576,-0 0.865,0.252 0.865,0.752c0,0.5 -0.289,0.752 -0.865,0.752l-0.519,-0l-0,-1.504Z" style="fill:#eeeeee;"/>
    <path d="M15.506,243.32l0,3.529l1.412,0l0,0.997l-2.589,0l0,-4.526l1.177,0Z" style="fill:#8c8c8c;fill-rule:nonzero;"/>
    <path d="M43.144,245.35l0.224,0c0.232,0 0.408,-0.048 0.532,-0.144c0.124,-0.096 0.188,-0.236 0.188,-0.416c0,-0.181 -0.064,-0.317 -0.188,-0.413c-0.124,-0.096 -0.3,-0.144 -0.532,-0.144l-0.224,0l0,1.117Zm2.589,2.501l-1.465,0l-1.124,-1.741l0,1.741l-1.177,0l-0,-4.526l1.833,0c0.252,0 0.472,0.04 0.66,0.112c0.188,0.076 0.34,0.176 0.464,0.304c0.12,0.128 0.213,0.276 0.277,0.444c0.06,0.168 0.092,0.348 0.092,0.541c-0,0.344 -0.084,0.624 -0.249,0.836c-0.168,0.212 -0.412,0.36 -0.736,0.436l1.425,1.853Z" style="fill:#8c8c8c;fill-rule:nonzero;"/>
    <path d="M12.721,239.99c-6.033,0 -10.942,4.481 -10.942,9.988l-0,13.145c-0,0.801 1.316,0.801 1.316,0l-0,-13.145c-0,-4.857 4.305,-8.789 9.626,-8.789l33.375,0c5.321,0 9.629,3.932 9.629,8.789l-0,13.145c-0,0.843 1.349,0.831 1.313,0l0,-13.145c0,-5.506 -4.909,-9.988 -10.942,-9.988l-33.375,0Z" style="fill:#eeeeee;"/>
    <path d="M6.176,23.031l4.606,0c1.105,0 1.961,0.265 2.568,0.795c0.607,0.53 0.91,1.248 0.91,2.153c0,0.897 -0.308,1.613 -0.924,2.147c-0.616,0.534 -1.467,0.802 -2.554,0.802l-2.052,-0l0,3.777l-2.554,-0l0,-9.674Zm4.266,3.995c0.96,-0 1.44,-0.34 1.44,-1.019c0,-0.345 -0.115,-0.605 -0.346,-0.782c-0.231,-0.176 -0.596,-0.265 -1.094,-0.265l-1.712,0l0,2.066l1.712,-0Z" style="fill:#eeeeee;fill-rule:nonzero;"/>
    <path d="M19.735,32.827c-1.413,-0 -2.481,-0.356 -3.206,-1.067c-0.725,-0.711 -1.087,-1.754 -1.087,-3.131l0,-5.598l2.486,0l0,5.693c0,0.697 0.157,1.232 0.469,1.603c0.313,0.371 0.759,0.557 1.338,0.557c0.571,0 1.01,-0.188 1.318,-0.564c0.308,-0.376 0.462,-0.908 0.462,-1.596l0,-5.693l2.514,0l-0,5.598c-0,1.358 -0.369,2.398 -1.108,3.118c-0.738,0.72 -1.8,1.08 -3.186,1.08Z" style="fill:#eeeeee;fill-rule:nonzero;"/>
    <path d="M31.95,23.031l2.404,0l0,9.674l-1.888,-0l-4.388,-5.489l-0,5.489l-2.378,-0l-0,-9.674l1.861,0l4.389,5.462l-0,-5.462Z" style="fill:#eeeeee;fill-rule:nonzero;"/>
    <path d="M40.808,32.827c-1.005,-0 -1.882,-0.206 -2.629,-0.618c-0.747,-0.412 -1.322,-0.994 -1.725,-1.746c-0.403,-0.752 -0.605,-1.621 -0.605,-2.609c-0,-0.978 0.202,-1.841 0.605,-2.588c0.403,-0.747 0.978,-1.327 1.725,-1.739c0.747,-0.412 1.624,-0.618 2.629,-0.618c0.634,-0 1.248,0.095 1.841,0.285c0.593,0.19 1.071,0.449 1.433,0.775l-0.774,1.807c-0.788,-0.571 -1.603,-0.856 -2.446,-0.856c-0.779,-0 -1.376,0.246 -1.793,0.74c-0.417,0.494 -0.625,1.225 -0.625,2.194c-0,0.979 0.208,1.717 0.625,2.215c0.417,0.498 1.014,0.747 1.793,0.747c0.843,0 1.658,-0.285 2.446,-0.856l0.774,1.807c-0.362,0.326 -0.84,0.584 -1.433,0.775c-0.593,0.19 -1.207,0.285 -1.841,0.285Z" style="fill:#eeeeee;fill-rule:nonzero;"/>
    <path d="M51.827,23.031l2.5,0l-0,9.674l-2.5,-0l-0,-3.913l-3.913,-0l-0,3.913l-2.5,-0l-0,-9.674l2.5,0l-0,3.764l3.913,-0l-0,-3.764Z" style="fill:#eeeeee;fill-rule:nonzero;"/>
    <g transform="matrix(1,0,0,1,-27.2502,1.88018)">
      <g transform="matrix(9,0,0,9,41.3882,43.9535)">
        <path d="M0.422,-0.504l0.124,0l-0.221,0.504l-0.109,-0l-0.218,-0.504l0.131,0l0.145,0.362l0.148,-0.362Z" style="fill:#eeeeee;fill-rule:nonzero;"/>
      </g>
      <g transform="matrix(9,0,0,9,46.1942,43.9535)">
        <path d="M0.297,0.008c-0.051,0 -0.096,-0.011 -0.135,-0.032c-0.039,-0.021 -0.069,-0.052 -0.09,-0.092c-0.021,-0.039 -0.032,-0.086 -0.032,-0.139c0,-0.053 0.011,-0.1 0.032,-0.14c0.021,-0.039 0.051,-0.07 0.09,-0.091c0.039,-0.021 0.084,-0.032 0.135,-0.032c0.051,0 0.095,0.011 0.134,0.032c0.039,0.021 0.069,0.052 0.089,0.091c0.021,0.04 0.032,0.087 0.032,0.14c0,0.053 -0.011,0.1 -0.032,0.14c-0.021,0.039 -0.05,0.07 -0.089,0.091c-0.039,0.021 -0.083,0.032 -0.134,0.032Zm-0.001,-0.098c0.043,-0 0.075,-0.014 0.097,-0.042c0.023,-0.027 0.034,-0.068 0.034,-0.123c-0,-0.054 -0.011,-0.095 -0.034,-0.124c-0.023,-0.028 -0.055,-0.042 -0.096,-0.042c-0.042,0 -0.074,0.014 -0.097,0.042c-0.023,0.029 -0.034,0.07 -0.034,0.124c-0,0.055 0.011,0.096 0.033,0.124c0.023,0.027 0.055,0.041 0.097,0.041Z" style="fill:#eeeeee;fill-rule:nonzero;"/>
      </g>
      <g transform="matrix(9,0,0,9,51.5222,43.9535)">
        <rect x="0.068" y="-0.736" width="0.124" height="0.736" style="fill:#eeeeee;fill-rule:nonzero;"/>
      </g>
      <g transform="matrix(9,0,0,9,53.8712,43.9535)">
        <path d="M0.227,-0.411l0,0.226c0,0.059 0.028,0.089 0.083,0.089c0.015,0 0.032,-0.003 0.05,-0.008l0,0.099c-0.022,0.008 -0.049,0.012 -0.08,0.012c-0.057,0 -0.101,-0.016 -0.132,-0.048c-0.031,-0.032 -0.046,-0.078 -0.046,-0.138l0,-0.232l-0.097,0l0,-0.094l0.097,0l0,-0.123l0.125,-0.042l0,0.165l0.134,0l0,0.094l-0.134,0Z" style="fill:#eeeeee;fill-rule:nonzero;"/>
      </g>
      <g transform="matrix(9,0,0,9,57.2822,43.9535)">
        <path d="M0.551,-0.505l0,0.505l-0.123,-0l-0,-0.081c-0.015,0.028 -0.037,0.05 -0.066,0.066c-0.029,0.015 -0.061,0.023 -0.098,0.023c-0.044,0 -0.083,-0.011 -0.117,-0.032c-0.034,-0.021 -0.06,-0.052 -0.079,-0.091c-0.019,-0.039 -0.028,-0.085 -0.028,-0.137c-0,-0.052 0.009,-0.098 0.028,-0.139c0.019,-0.04 0.046,-0.071 0.08,-0.093c0.034,-0.023 0.073,-0.034 0.116,-0.034c0.037,0 0.069,0.008 0.098,0.024c0.029,0.015 0.051,0.037 0.066,0.065l0,-0.076l0.123,0Zm-0.253,0.415c0.041,-0 0.073,-0.014 0.096,-0.043c0.023,-0.029 0.034,-0.069 0.034,-0.121c0,-0.053 -0.011,-0.094 -0.034,-0.123c-0.023,-0.029 -0.055,-0.043 -0.097,-0.043c-0.041,0 -0.073,0.015 -0.096,0.044c-0.023,0.03 -0.035,0.071 -0.035,0.124c0,0.052 0.012,0.092 0.035,0.12c0.023,0.028 0.055,0.042 0.097,0.042Z" style="fill:#eeeeee;fill-rule:nonzero;"/>
      </g>
      <g transform="matrix(9,0,0,9,62.8532,43.9535)">
        <path d="M0.556,-0.505l0,0.489c0,0.079 -0.022,0.138 -0.065,0.179c-0.043,0.041 -0.107,0.061 -0.191,0.061c-0.078,0 -0.147,-0.016 -0.206,-0.049l0.02,-0.095c0.061,0.032 0.122,0.048 0.183,0.048c0.09,0 0.135,-0.045 0.135,-0.134l-0,-0.1c-0.015,0.027 -0.038,0.05 -0.067,0.067c-0.029,0.017 -0.062,0.025 -0.099,0.025c-0.044,0 -0.083,-0.01 -0.118,-0.031c-0.034,-0.021 -0.061,-0.051 -0.08,-0.09c-0.019,-0.038 -0.028,-0.082 -0.028,-0.131c-0,-0.049 0.009,-0.093 0.028,-0.132c0.019,-0.038 0.046,-0.068 0.08,-0.088c0.035,-0.021 0.074,-0.032 0.118,-0.032c0.037,0 0.071,0.008 0.099,0.024c0.03,0.015 0.052,0.037 0.067,0.065l0,-0.076l0.124,0Zm-0.257,0.393c0.041,-0 0.074,-0.014 0.097,-0.041c0.024,-0.027 0.036,-0.065 0.036,-0.113c-0,-0.048 -0.012,-0.086 -0.035,-0.113c-0.023,-0.027 -0.056,-0.041 -0.098,-0.041c-0.041,0 -0.074,0.014 -0.098,0.041c-0.023,0.027 -0.035,0.065 -0.035,0.113c-0,0.048 0.012,0.086 0.035,0.113c0.024,0.027 0.057,0.041 0.098,0.041Z" style="fill:#eeeeee;fill-rule:nonzero;"/>
      </g>
      <g transform="matrix(9,0,0,9,68.4602,43.9535)">
        <path d="M0.51,-0.246l-0.348,0c0.003,0.054 0.016,0.094 0.041,0.119c0.024,0.026 0.06,0.039 0.108,0.039c0.055,-0 0.107,-0.018 0.154,-0.054l0.036,0.086c-0.024,0.019 -0.053,0.035 -0.088,0.046c-0.036,0.012 -0.071,0.018 -0.107,0.018c-0.083,-0 -0.148,-0.023 -0.195,-0.07c-0.047,-0.047 -0.071,-0.111 -0.071,-0.192c-0,-0.051 0.01,-0.097 0.031,-0.137c0.021,-0.04 0.05,-0.071 0.087,-0.093c0.037,-0.023 0.08,-0.034 0.127,-0.034c0.069,0 0.124,0.023 0.164,0.068c0.041,0.045 0.061,0.106 0.061,0.185l0,0.019Zm-0.222,-0.182c-0.033,0 -0.061,0.01 -0.082,0.03c-0.021,0.019 -0.034,0.048 -0.04,0.085l0.235,0c-0.004,-0.038 -0.016,-0.067 -0.035,-0.086c-0.019,-0.019 -0.045,-0.029 -0.078,-0.029Z" style="fill:#eeeeee;fill-rule:nonzero;"/>
      </g>
      <g transform="matrix(9,0,0,9,36.0602,52.9535)">
        <path d="M0.297,0.008c-0.053,0 -0.098,-0.011 -0.137,-0.032c-0.039,-0.021 -0.068,-0.051 -0.089,-0.091c-0.021,-0.039 -0.031,-0.084 -0.031,-0.137c0,-0.053 0.011,-0.099 0.033,-0.139c0.021,-0.04 0.052,-0.071 0.092,-0.093c0.039,-0.023 0.085,-0.034 0.137,-0.034c0.036,0 0.071,0.006 0.105,0.017c0.033,0.011 0.06,0.027 0.08,0.047l-0.035,0.088c-0.021,-0.017 -0.044,-0.031 -0.068,-0.04c-0.024,-0.009 -0.048,-0.013 -0.071,-0.013c-0.045,0 -0.081,0.014 -0.106,0.042c-0.025,0.029 -0.038,0.07 -0.038,0.123c0,0.053 0.013,0.094 0.038,0.122c0.025,0.028 0.06,0.042 0.106,0.042c0.023,-0 0.047,-0.005 0.071,-0.014c0.024,-0.009 0.047,-0.023 0.068,-0.04l0.035,0.088c-0.021,0.02 -0.049,0.036 -0.083,0.047c-0.034,0.011 -0.07,0.017 -0.107,0.017Z" style="fill:#eeeeee;fill-rule:nonzero;"/>
      </g>
      <g transform="matrix(9,0,0,9,40.5872,52.9535)">
        <path d="M0.297,0.008c-0.051,0 -0.096,-0.011 -0.135,-0.032c-0.039,-0.021 -0.069,-0.052 -0.09,-0.092c-0.021,-0.039 -0.032,-0.086 -0.032,-0.139c0,-0.053 0.011,-0.1 0.032,-0.14c0.021,-0.039 0.051,-0.07 0.09,-0.091c0.039,-0.021 0.084,-0.032 0.135,-0.032c0.051,0 0.095,0.011 0.134,0.032c0.039,0.021 0.069,0.052 0.089,0.091c0.021,0.04 0.032,0.087 0.032,0.14c0,0.053 -0.011,0.1 -0.032,0.14c-0.021,0.039 -0.05,0.07 -0.089,0.091c-0.039,0.021 -0.083,0.032 -0.134,0.032Zm-0.001,-0.098c0.043,-0 0.075,-0.014 0.097,-0.042c0.023,-0.027 0.034,-0.068 0.034,-0.123c-0,-0.054 -0.011,-0.095 -0.034,-0.124c-0.023,-0.028 -0.055,-0.042 -0.096,-0.042c-0.042,0 -0.074,0.014 -0.097,0.042c-0.023,0.029 -0.034,0.07 -0.034,0.124c-0,0.055 0.011,0.096 0.033,0.124c0.023,0.027 0.055,0.041 0.097,0.041Z" style="fill:#eeeeee;fill-rule:nonzero;"/>
      </g>
      <g transform="matrix(9,0,0,9,45.9152,52.9535)">
        <path d="M0.357,-0.518c0.121,0 0.181,0.069 0.181,0.208l0,0.31l-0.125,-0l0,-0.304c0,-0.04 -0.008,-0.069 -0.023,-0.088c-0.015,-0.018 -0.039,-0.027 -0.071,-0.027c-0.038,0 -0.069,0.012 -0.092,0.037c-0.023,0.024 -0.035,0.056 -0.035,0.096l0,0.286l-0.124,-0l0,-0.362c0,-0.053 -0.003,-0.101 -0.008,-0.143l0.117,0l0.009,0.083c0.017,-0.031 0.041,-0.054 0.07,-0.071c0.03,-0.017 0.064,-0.025 0.101,-0.025Z" style="fill:#eeeeee;fill-rule:nonzero;"/>
      </g>
      <g transform="matrix(9,0,0,9,51.3422,52.9535)">
        <path d="M0.227,-0.411l0,0.226c0,0.059 0.028,0.089 0.083,0.089c0.015,0 0.032,-0.003 0.05,-0.008l0,0.099c-0.022,0.008 -0.049,0.012 -0.08,0.012c-0.057,0 -0.101,-0.016 -0.132,-0.048c-0.031,-0.032 -0.046,-0.078 -0.046,-0.138l0,-0.232l-0.097,0l0,-0.094l0.097,0l0,-0.123l0.125,-0.042l0,0.165l0.134,0l0,0.094l-0.134,0Z" style="fill:#eeeeee;fill-rule:nonzero;"/>
      </g>
      <g transform="matrix(9,0,0,9,54.7532,52.9535)">
        <path d="M0.34,-0.517c0.019,0 0.036,0.003 0.05,0.008l-0.001,0.114c-0.021,-0.009 -0.043,-0.013 -0.066,-0.013c-0.043,-0 -0.075,0.012 -0.098,0.037c-0.022,0.025 -0.033,0.057 -0.033,0.098l0,0.273l-0.124,-0l0,-0.362c0,-0.053 -0.003,-0.101 -0.008,-0.143l0.117,0l0.01,0.089c0.013,-0.033 0.033,-0.058 0.06,-0.075c0.027,-0.017 0.058,-0.026 0.093,-0.026Z" style="fill:#eeeeee;fill-rule:nonzero;"/>
      </g>
      <g transform="matrix(9,0,0,9,58.1912,52.9535)">
        <path d="M0.297,0.008c-0.051,0 -0.096,-0.011 -0.135,-0.032c-0.039,-0.021 -0.069,-0.052 -0.09,-0.092c-0.021,-0.039 -0.032,-0.086 -0.032,-0.139c0,-0.053 0.011,-0.1 0.032,-0.14c0.021,-0.039 0.051,-0.07 0.09,-0.091c0.039,-0.021 0.084,-0.032 0.135,-0.032c0.051,0 0.095,0.011 0.134,0.032c0.039,0.021 0.069,0.052 0.089,0.091c0.021,0.04 0.032,0.087 0.032,0.14c0,0.053 -0.011,0.1 -0.032,0.14c-0.021,0.039 -0.05,0.07 -0.089,0.091c-0.039,0.021 -0.083,0.032 -0.134,0.032Zm-0.001,-0.098c0.043,-0 0.075,-0.014 0.097,-0.042c0.023,-0.027 0.034,-0.068 0.034,-0.123c-0,-0.054 -0.011,-0.095 -0.034,-0.124c-0.023,-0.028 -0.055,-0.042 -0.096,-0.042c-0.042,0 -0.074,0.014 -0.097,0.042c-0.023,0.029 -0.034,0.07 -0.034,0.124c-0,0.055 0.011,0.096 0.033,0.124c0.023,0.027 0.055,0.041 0.097,0.041Z" style="fill:#eeeeee;fill-rule:nonzero;"/>
      </g>
      <g transform="matrix(9,0,0,9,63.5192,52.9535)">
        <rect x="0.068" y="-0.736" width="0.124" height="0.736" style="fill:#eeeeee;fill-rule:nonzero;"/>
      </g>
      <g transform="matrix(9,0,0,9,65.8682,52.9535)">
        <rect x="0.068" y="-0.736" width="0.124" height="0.736" style="fill:#eeeeee;fill-rule:nonzero;"/>
      </g>
      <g transform="matrix(9,0,0,9,68.2172,52.9535)">
        <path d="M0.51,-0.246l-0.348,0c0.003,0.054 0.016,0.094 0.041,0.119c0.024,0.026 0.06,0.039 0.108,0.039c0.055,-0 0.107,-0.018 0.154,-0.054l0.036,0.086c-0.024,0.019 -0.053,0.035 -0.088,0.046c-0.036,0.012 -0.071,0.018 -0.107,0.018c-0.083,-0 -0.148,-0.023 -0.195,-0.07c-0.047,-0.047 -0.071,-0.111 -0.071,-0.192c-0,-0.051 0.01,-0.097 0.031,-0.137c0.021,-0.04 0.05,-0.071 0.087,-0.093c0.037,-0.023 0.08,-0.034 0.127,-0.034c0.069,0 0.124,0.023 0.164,0.068c0.041,0.045 0.061,0.106 0.061,0.185l0,0.019Zm-0.222,-0.182c-0.033,0 -0.061,0.01 -0.082,0.03c-0.021,0.019 -0.034,0.048 -0.04,0.085l0.235,0c-0.004,-0.038 -0.016,-0.067 -0.035,-0.086c-0.019,-0.019 -0.045,-0.029 -0.078,-0.029Z" style="fill:#eeeeee;fill-rule:nonzero;"/>
      </g>
      <g transform="matrix(9,0,0,9,73.1492,52.9535)">
        <path d="M0.551,-0.736l0,0.736l-0.123,-0l-0,-0.081c-0.015,0.028 -0.037,0.05 -0.066,0.066c-0.029,0.015 -0.061,0.023 -0.098,0.023c-0.043,0 -0.082,-0.011 -0.116,-0.033c-0.034,-0.022 -0.061,-0.053 -0.08,-0.094c-0.019,-0.04 -0.028,-0.086 -0.028,-0.138c-0,-0.052 0.009,-0.098 0.028,-0.137c0.019,-0.039 0.045,-0.07 0.079,-0.091c0.034,-0.022 0.073,-0.033 0.117,-0.033c0.036,0 0.068,0.007 0.096,0.023c0.029,0.015 0.051,0.036 0.066,0.063l0,-0.304l0.125,0Zm-0.254,0.646c0.041,-0 0.074,-0.014 0.097,-0.043c0.023,-0.029 0.034,-0.069 0.034,-0.122c0,-0.053 -0.011,-0.093 -0.034,-0.122c-0.023,-0.029 -0.055,-0.043 -0.096,-0.043c-0.042,0 -0.074,0.014 -0.097,0.042c-0.023,0.029 -0.035,0.069 -0.035,0.121c0,0.053 0.012,0.094 0.035,0.123c0.023,0.029 0.055,0.044 0.096,0.044Z" style="fill:#eeeeee;fill-rule:nonzero;"/>
      </g>
      <g transform="matrix(9,0,0,9,38.3732,61.9535)">
        <path d="M0.551,-0.505l0,0.505l-0.123,-0l-0,-0.081c-0.015,0.028 -0.037,0.05 -0.066,0.066c-0.029,0.015 -0.061,0.023 -0.098,0.023c-0.044,0 -0.083,-0.011 -0.117,-0.032c-0.034,-0.021 -0.06,-0.052 -0.079,-0.091c-0.019,-0.039 -0.028,-0.085 -0.028,-0.137c-0,-0.052 0.009,-0.098 0.028,-0.139c0.019,-0.04 0.046,-0.071 0.08,-0.093c0.034,-0.023 0.073,-0.034 0.116,-0.034c0.037,0 0.069,0.008 0.098,0.024c0.029,0.015 0.051,0.037 0.066,0.065l0,-0.076l0.123,0Zm-0.253,0.415c0.041,-0 0.073,-0.014 0.096,-0.043c0.023,-0.029 0.034,-0.069 0.034,-0.121c0,-0.053 -0.011,-0.094 -0.034,-0.123c-0.023,-0.029 -0.055,-0.043 -0.097,-0.043c-0.041,0 -0.073,0.015 -0.096,0.044c-0.023,0.03 -0.035,0.071 -0.035,0.124c0,0.052 0.012,0.092 0.035,0.12c0.023,0.028 0.055,0.042 0.097,0.042Z" style="fill:#eeeeee;fill-rule:nonzero;"/>
      </g>
      <g transform="matrix(9,0,0,9,43.9442,61.9535)">
        <path d="M0.664,-0.518c0.057,0 0.1,0.017 0.128,0.051c0.028,0.035 0.042,0.087 0.042,0.157l-0,0.31l-0.125,0l-0,-0.306c-0,-0.04 -0.007,-0.069 -0.02,-0.086c-0.013,-0.018 -0.034,-0.027 -0.064,-0.027c-0.035,0 -0.062,0.012 -0.082,0.037c-0.019,0.024 -0.029,0.057 -0.029,0.1l0,0.282l-0.125,0l0,-0.306c0,-0.039 -0.007,-0.068 -0.021,-0.086c-0.013,-0.018 -0.035,-0.027 -0.064,-0.027c-0.035,0 -0.062,0.012 -0.082,0.037c-0.02,0.024 -0.03,0.057 -0.03,0.1l0,0.282l-0.124,0l0,-0.362c0,-0.053 -0.003,-0.101 -0.008,-0.143l0.117,0l0.009,0.08c0.015,-0.03 0.036,-0.053 0.064,-0.069c0.027,-0.016 0.059,-0.024 0.095,-0.024c0.077,0 0.128,0.032 0.151,0.096c0.016,-0.03 0.039,-0.053 0.069,-0.07c0.029,-0.017 0.062,-0.026 0.099,-0.026Z" style="fill:#eeeeee;fill-rule:nonzero;"/>
      </g>
      <g transform="matrix(9,0,0,9,52.0352,61.9535)">
        <path d="M0.356,-0.518c0.043,0 0.082,0.011 0.116,0.034c0.033,0.022 0.059,0.053 0.079,0.093c0.019,0.041 0.028,0.087 0.028,0.139c0,0.052 -0.009,0.098 -0.028,0.137c-0.019,0.039 -0.045,0.07 -0.078,0.091c-0.034,0.021 -0.073,0.032 -0.117,0.032c-0.037,-0 -0.069,-0.008 -0.098,-0.024c-0.029,-0.015 -0.051,-0.037 -0.066,-0.065l0,0.297l-0.124,0l0,-0.578c0,-0.053 -0.003,-0.101 -0.008,-0.143l0.117,0l0.01,0.087c0.013,-0.031 0.035,-0.056 0.065,-0.074c0.03,-0.017 0.065,-0.026 0.104,-0.026Zm-0.034,0.428c0.042,0 0.074,-0.014 0.097,-0.042c0.023,-0.028 0.034,-0.068 0.034,-0.12c0,-0.053 -0.011,-0.094 -0.034,-0.124c-0.023,-0.029 -0.055,-0.044 -0.096,-0.044c-0.043,0 -0.075,0.014 -0.098,0.043c-0.023,0.029 -0.034,0.07 -0.034,0.123c0,0.053 0.011,0.093 0.034,0.122c0.023,0.028 0.055,0.042 0.097,0.042Z" style="fill:#eeeeee;fill-rule:nonzero;"/>
      </g>
      <g transform="matrix(9,0,0,9,57.6152,61.9535)">
        <rect x="0.068" y="-0.736" width="0.124" height="0.736" style="fill:#eeeeee;fill-rule:nonzero;"/>
      </g>
      <g transform="matrix(9,0,0,9,59.9642,61.9535)">
        <path d="M0.068,-0l0,-0.505l0.124,0l0,0.505l-0.124,-0Zm-0.008,-0.734l0.139,0l0,0.123l-0.139,0l0,-0.123Z" style="fill:#eeeeee;fill-rule:nonzero;"/>
      </g>
      <g transform="matrix(9,0,0,9,62.3132,61.9535)">
        <path d="M0.227,-0.505l0.332,0l0,0.505l-0.125,-0l-0,-0.411l-0.207,0l-0,0.411l-0.125,-0l-0,-0.411l-0.097,0l-0,-0.094l0.097,0l-0,-0.051c-0,-0.045 0.007,-0.081 0.021,-0.107c0.014,-0.027 0.037,-0.046 0.068,-0.058c0.032,-0.012 0.075,-0.018 0.13,-0.018l0.037,0l-0,0.092l-0.024,0c-0.031,0 -0.054,0.003 -0.069,0.008c-0.015,0.005 -0.025,0.014 -0.03,0.029c-0.005,0.014 -0.008,0.037 -0.008,0.068l0,0.037Zm0.199,-0.234l0.141,0l0,0.126l-0.141,0l-0,-0.126Z" style="fill:#eeeeee;fill-rule:nonzero;"/>
      </g>
      <g transform="matrix(9,0,0,9,67.9472,61.9535)">
        <path d="M0.51,-0.246l-0.348,0c0.003,0.054 0.016,0.094 0.041,0.119c0.024,0.026 0.06,0.039 0.108,0.039c0.055,-0 0.107,-0.018 0.154,-0.054l0.036,0.086c-0.024,0.019 -0.053,0.035 -0.088,0.046c-0.036,0.012 -0.071,0.018 -0.107,0.018c-0.083,-0 -0.148,-0.023 -0.195,-0.07c-0.047,-0.047 -0.071,-0.111 -0.071,-0.192c-0,-0.051 0.01,-0.097 0.031,-0.137c0.021,-0.04 0.05,-0.071 0.087,-0.093c0.037,-0.023 0.08,-0.034 0.127,-0.034c0.069,0 0.124,0.023 0.164,0.068c0.041,0.045 0.061,0.106 0.061,0.185l0,0.019Zm-0.222,-0.182c-0.033,0 -0.061,0.01 -0.082,0.03c-0.021,0.019 -0.034,0.048 -0.04,0.085l0.235,0c-0.004,-0.038 -0.016,-0.067 -0.035,-0.086c-0.019,-0.019 -0.045,-0.029 -0.078,-0.029Z" style="fill:#eeeeee;fill-rule:nonzero;"/>
      </g>
      <g transform="matrix(9,0,0,9,72.8792,61.9535)">
        <path d="M0.34,-0.517c0.019,0 0.036,0.003 0.05,0.008l-0.001,0.114c-0.021,-0.009 -0.043,-0.013 -0.066,-0.013c-0.043,-0 -0.075,0.012 -0.098,0.037c-0.022,0.025 -0.033,0.057 -0.033,0.098l0,0.273l-0.124,-0l0,-0.362c0,-0.053 -0.003,-0.101 -0.008,-0.143l0.117,0l0.01,0.089c0.013,-0.033 0.033,-0.058 0.06,-0.075c0.027,-0.017 0.058,-0.026 0.093,-0.026Z" style="fill:#eeeeee;fill-rule:nonzero;"/>
      </g>
    </g>
    <path d="M16.103,124.258l2.619,-0c0.708,-0 1.319,0.127 1.832,0.382c0.513,0.255 0.906,0.623 1.179,1.103c0.273,0.48 0.409,1.05 0.409,1.71c0,0.666 -0.135,1.24 -0.405,1.723c-0.27,0.483 -0.661,0.852 -1.174,1.107c-0.513,0.255 -1.127,0.383 -1.841,0.383l-2.619,-0l0,-6.408Zm2.502,5.058c0.624,-0 1.091,-0.155 1.4,-0.464c0.309,-0.309 0.463,-0.775 0.463,-1.399c0,-1.23 -0.621,-1.845 -1.863,-1.845l-0.81,-0l0,3.708l0.81,-0Z" style="fill:#eeeeee;fill-rule:nonzero;"/>
    <path d="M28.703,130.666l-1.791,-0l-0.828,-2.133c-0.096,-0.24 -0.321,-0.36 -0.675,-0.36l-0.612,-0l0,2.493l-1.665,-0l0,-6.408l2.979,-0c0.774,-0 1.356,0.166 1.746,0.499c0.39,0.333 0.585,0.809 0.585,1.427c0,0.432 -0.115,0.805 -0.346,1.12c-0.231,0.315 -0.557,0.539 -0.977,0.671c0.18,0.036 0.342,0.12 0.486,0.252c0.144,0.132 0.258,0.309 0.342,0.531l0.756,1.908Zm-2.862,-3.753c0.36,-0 0.621,-0.056 0.783,-0.167c0.162,-0.111 0.243,-0.283 0.243,-0.517c0,-0.246 -0.079,-0.423 -0.238,-0.531c-0.159,-0.108 -0.422,-0.162 -0.788,-0.162l-1.062,-0l0,1.377l1.062,-0Z" style="fill:#eeeeee;fill-rule:nonzero;"/>
    <rect x="29.558" y="124.258" width="1.692" height="6.408" style="fill:#eeeeee;fill-rule:nonzero;"/>
    <path d="M37.091,124.258l1.701,-0l-2.916,6.408l-1.341,-0l-2.916,-6.408l1.755,-0l1.845,4.302l1.872,-4.302Z" style="fill:#eeeeee;fill-rule:nonzero;"/>
    <path d="M39.161,130.666l0,-6.408l4.572,-0l0,1.296l-2.925,-0l0,1.206l2.736,-0l0,1.296l-2.736,-0l0,1.314l2.925,-0l0,1.296l-4.572,-0Z" style="fill:#eeeeee;fill-rule:nonzero;"/>
    <path d="M13.962,230.517l1.323,-0l-2.268,4.984l-1.043,-0l-2.268,-4.984l1.365,-0l1.435,3.346l1.456,-3.346Z" style="fill:#eeeeee;fill-rule:nonzero;"/>
    <path d="M17.847,235.564c-0.518,-0 -0.969,-0.106 -1.354,-0.319c-0.385,-0.212 -0.682,-0.512 -0.889,-0.899c-0.208,-0.388 -0.312,-0.836 -0.312,-1.344c0,-0.504 0.104,-0.949 0.312,-1.334c0.207,-0.385 0.504,-0.683 0.889,-0.896c0.385,-0.212 0.836,-0.318 1.354,-0.318c0.327,-0 0.643,0.049 0.949,0.147c0.305,0.098 0.551,0.231 0.738,0.399l-0.399,0.931c-0.406,-0.294 -0.826,-0.441 -1.26,-0.441c-0.401,-0 -0.709,0.127 -0.924,0.381c-0.215,0.255 -0.322,0.631 -0.322,1.131c0,0.504 0.107,0.884 0.322,1.141c0.215,0.256 0.523,0.385 0.924,0.385c0.434,-0 0.854,-0.147 1.26,-0.441l0.399,0.931c-0.187,0.168 -0.433,0.301 -0.738,0.399c-0.306,0.098 -0.622,0.147 -0.949,0.147Z" style="fill:#eeeeee;fill-rule:nonzero;"/>
    <path d="M23.965,235.501l-0.441,-1.029l-2.212,-0l-0.441,1.029l-1.316,-0l2.331,-4.984l1.036,-0l2.338,4.984l-1.295,-0Zm-2.226,-2.016l1.358,-0l-0.679,-1.575l-0.679,1.575Z" style="fill:#eeeeee;fill-rule:nonzero;"/>
    <path d="M31.602,230.517l1.022,-0l0,4.984l-1.148,-0l-0.007,-2.282l-0.945,2.282l-0.833,-0l-0.952,-2.254l0,2.254l-1.141,-0l0,-4.984l1.029,-0l1.491,3.402l1.484,-3.402Z" style="fill:#eeeeee;fill-rule:nonzero;"/>
    <path d="M35.914,235.564c-0.509,-0 -0.952,-0.104 -1.33,-0.312c-0.378,-0.207 -0.669,-0.505 -0.871,-0.892c-0.203,-0.388 -0.305,-0.84 -0.305,-1.358c0,-0.518 0.103,-0.969 0.308,-1.351c0.205,-0.383 0.496,-0.678 0.872,-0.886c0.375,-0.207 0.817,-0.311 1.326,-0.311c0.509,-0 0.951,0.104 1.327,0.311c0.375,0.208 0.663,0.503 0.864,0.886c0.201,0.382 0.301,0.833 0.301,1.351c0,0.518 -0.1,0.97 -0.301,1.358c-0.201,0.387 -0.489,0.685 -0.864,0.892c-0.376,0.208 -0.818,0.312 -1.327,0.312Zm0,-1.001c0.373,-0 0.666,-0.133 0.879,-0.399c0.212,-0.266 0.318,-0.654 0.318,-1.162c0,-0.504 -0.106,-0.888 -0.318,-1.152c-0.213,-0.263 -0.506,-0.395 -0.879,-0.395c-0.373,-0 -0.665,0.13 -0.875,0.392c-0.21,0.261 -0.315,0.646 -0.315,1.155c0,0.513 0.105,0.902 0.315,1.165c0.21,0.264 0.502,0.396 0.875,0.396Z" style="fill:#eeeeee;fill-rule:nonzero;"/>
    <path d="M39.176,230.517l2.037,-0c0.551,-0 1.026,0.099 1.425,0.297c0.399,0.199 0.704,0.484 0.917,0.858c0.212,0.373 0.318,0.816 0.318,1.33c0,0.518 -0.105,0.965 -0.315,1.34c-0.21,0.376 -0.514,0.663 -0.913,0.861c-0.399,0.199 -0.877,0.298 -1.432,0.298l-2.037,-0l0,-4.984Zm1.946,3.934c0.485,-0 0.848,-0.12 1.089,-0.361c0.24,-0.24 0.36,-0.603 0.36,-1.088c0,-0.957 -0.483,-1.435 -1.449,-1.435l-0.63,-0l0,2.884l0.63,-0Z" style="fill:#eeeeee;fill-rule:nonzero;"/>
    <path d="M44.643,235.501l0,-4.984l3.556,-0l0,1.008l-2.275,-0l0,0.938l2.128,-0l0,1.008l-2.128,-0l0,1.022l2.275,-0l0,1.008l-3.556,-0Z" style="fill:#eeeeee;fill-rule:nonzero;"/>
    <path d="M48.871,235.501l0,-4.984l1.316,-0l0,3.92l2.107,-0l0,1.064l-3.423,-0Z" style="fill:#eeeeee;fill-rule:nonzero;"/>
    <path d="M27.511,206.9c0.294,0.084 0.521,0.233 0.679,0.445c0.159,0.212 0.238,0.47 0.238,0.773c0,0.276 -0.072,0.516 -0.217,0.721c-0.144,0.206 -0.351,0.364 -0.619,0.476c-0.268,0.112 -0.585,0.168 -0.949,0.168l-2.485,0l0,-4.984l2.422,0c0.523,0 0.938,0.117 1.246,0.35c0.308,0.234 0.462,0.549 0.462,0.945c0,0.257 -0.067,0.483 -0.203,0.679c-0.135,0.196 -0.326,0.339 -0.574,0.427Zm-2.072,-0.448l0.917,0c0.243,0 0.42,-0.037 0.532,-0.112c0.112,-0.074 0.168,-0.193 0.168,-0.357c0,-0.168 -0.057,-0.291 -0.171,-0.371c-0.114,-0.079 -0.291,-0.119 -0.529,-0.119l-0.917,0l0,0.959Zm1.05,2.037c0.252,0 0.433,-0.039 0.543,-0.119c0.11,-0.079 0.164,-0.212 0.164,-0.399c0,-0.191 -0.053,-0.326 -0.161,-0.406c-0.107,-0.079 -0.289,-0.119 -0.546,-0.119l-1.05,0l0,1.043l1.05,0Z" style="fill:#eeeeee;fill-rule:nonzero;"/>
    <path d="M28.652,209.686c0.234,0.024 0.404,0.035 0.511,0.035c0.21,0 0.35,-0.042 0.42,-0.126c0.07,-0.084 0.105,-0.245 0.105,-0.483l0,-4.613l1.316,0l0,4.592c0,0.588 -0.119,1.02 -0.357,1.295c-0.238,0.276 -0.646,0.413 -1.225,0.413c-0.228,0 -0.485,-0.021 -0.77,-0.063l0,-1.05Z" style="fill:#eeeeee;fill-rule:nonzero;"/>
    <path d="M33.027,209.483l0,-3.92l-1.484,0l0,-1.064l4.298,0l0,1.064l-1.484,0l0,3.92l-1.33,0Z" style="fill:#eeeeee;fill-rule:nonzero;"/>
    <path d="M26.359,221.546c-0.509,0 -0.952,-0.103 -1.33,-0.311c-0.378,-0.208 -0.668,-0.505 -0.871,-0.893c-0.203,-0.387 -0.305,-0.84 -0.305,-1.358c0,-0.518 0.103,-0.968 0.308,-1.351c0.205,-0.382 0.496,-0.677 0.872,-0.885c0.375,-0.208 0.817,-0.312 1.326,-0.312c0.509,0 0.951,0.104 1.327,0.312c0.375,0.208 0.663,0.503 0.864,0.885c0.201,0.383 0.301,0.833 0.301,1.351c0,0.518 -0.1,0.971 -0.301,1.358c-0.201,0.388 -0.489,0.685 -0.864,0.893c-0.376,0.208 -0.818,0.311 -1.327,0.311Zm0,-1.001c0.373,0 0.666,-0.133 0.878,-0.399c0.213,-0.266 0.319,-0.653 0.319,-1.162c0,-0.504 -0.106,-0.887 -0.319,-1.151c-0.212,-0.264 -0.505,-0.396 -0.878,-0.396c-0.373,0 -0.665,0.131 -0.875,0.392c-0.21,0.262 -0.315,0.647 -0.315,1.155c0,0.514 0.105,0.902 0.315,1.166c0.21,0.264 0.502,0.395 0.875,0.395Z" style="fill:#eeeeee;fill-rule:nonzero;"/>
    <path d="M30.468,221.483l0,-3.92l-1.484,0l0,-1.064l4.298,0l0,1.064l-1.484,0l0,3.92l-1.33,0Z" style="fill:#eeeeee;fill-rule:nonzero;"/>
    <path d="M36.964,221.483l-0.441,-1.029l-2.212,0l-0.441,1.029l-1.316,0l2.331,-4.984l1.036,0l2.338,4.984l-1.295,0Zm-2.226,-2.016l1.358,0l-0.679,-1.575l-0.679,1.575Z" style="fill:#eeeeee;fill-rule:nonzero;"/>
    <g>
      <path id="path1066" d="M10.013,226.372l2.32,-2.422l6.953,0l2.395,2.422l-11.668,0Z" style="fill:#c8c8c8;"/>
      <path id="path1060" d="M10,202l2.32,2.473l0.013,19.477l-2.32,2.422l-0.013,-24.372Z" style="fill:#5a5a5a;"/>
      <path id="path1064" d="M19.273,204.473l2.395,-2.473l0.013,24.372l-2.395,-2.422l-0.013,-19.477Z" style="fill:#5a5a5a;"/>
      <path id="path887" d="M20.358,205.019c0,-0.911 -0.739,-1.651 -1.65,-1.651l-5.7,0c-0.91,0 -1.65,0.74 -1.65,1.651l0,17.699c0,0.911 0.74,1.65 1.65,1.65l5.7,0c0.911,0 1.65,-0.739 1.65,-1.65l0,-17.699Z" style="fill:#141414;"/>
      <g id="g941"/>
    </g>
  </g>
</svg>