<svg width="150px" height="380px" version="1.1" xmlns="http://www.w3.org/2000/svg" xmlns:xlink="http://www.w3.org/1999/xlink" xml:space="preserve" xmlns:serif="http://www.serif.com/" style="fill-rule:evenodd;clip-rule:evenodd;">
  <defs>
    <linearGradient id="_Linear1" x1="0" y1="0" x2="1" y2="0" gradientUnits="userSpaceOnUse" gradientTransform="matrix(0.007008,-37.8989,37.8989,0.007008,75.2834,112.195)">
      <stop offset="0" style="stop-color:#202020;stop-opacity:1"/>
      <stop offset="1" style="stop-color:#202020;stop-opacity:1"/>
    </linearGradient>
    <linearGradient id="_Linear2" x1="0" y1="0" x2="1" y2="0" gradientUnits="userSpaceOnUse" gradientTransform="matrix(-4.88,-92.58,92.58,-4.88,277.54,345.91)">
      <stop offset="0" style="stop-color:#202020;stop-opacity:1"/>
      <stop offset="1" style="stop-color:#202020;stop-opacity:1"/>
    </linearGradient>
    <linearGradient id="_Linear3" x1="0" y1="0" x2="1" y2="0" gradientUnits="userSpaceOnUse" gradientTransform="matrix(-4.75,94.86,-94.86,-4.75,277.54,158.47)">
      <stop offset="0" style="stop-color:#202020;stop-opacity:1"/>
      <stop offset="1" style="stop-color:#202020;stop-opacity:1"/>
    </linearGradient>
    <linearGradient id="_Linear4" x1="0" y1="0" x2="1" y2="0" gradientUnits="userSpaceOnUse" gradientTransform="matrix(1.15392e-16,-1.8845,1.8845,1.15392e-16,56.519,1.9362)">
      <stop offset="0" style="stop-color:#202020;stop-opacity:1"/>
      <stop offset="1" style="stop-color:#202020;stop-opacity:1"/>
    </linearGradient>
  </defs>
  <g id="Panel">
    <g>
      <rect x="0" y="0" width="150" height="380" style="fill:url(#_Linear1);"/>
      <rect x="0" y="253.33" width="150" height="126.67" style="fill:url(#_Linear2);"/>
      <rect x="0" y="126.67" width="150" height="126.67" style="fill:url(#_Linear3);"/>
      <rect x="0" y="0" width="150" height="380" style="fill:rgb(16,53,80);fill-opacity:0.1;"/>
      <rect x="0" y="0" width="150" height="2" style="fill:url(#_Linear4);"/>
    </g>
    <path d="M106.11,272.09c-5.359,0 -9.723,4.362 -9.723,9.721l0,20.952c0,5.359 4.364,9.722 9.723,9.722l21.786,0c5.36,0 9.723,-4.363 9.723,-9.722l0,-20.952c0,-5.359 -4.363,-9.721 -9.723,-9.721l-21.786,0Z" style="fill:none;stroke:#eeeeee;stroke-width:1.2px;"/>
    <g>
      <path d="M54.371,205.1c-5.706,0 -11.412,1.934 -16.027,5.805c-9.229,7.745 -11.587,21.128 -5.564,31.564c0.391,0.722 1.468,0.101 1.039,-0.6c-5.733,-9.934 -3.488,-22.672 5.296,-30.045c8.786,-7.369 21.725,-7.369 30.511,0c8.785,7.373 11.029,20.111 5.296,30.045c-0.429,0.701 0.648,1.322 1.039,0.6c6.023,-10.436 3.666,-23.819 -5.564,-31.564c-4.615,-3.871 -10.32,-5.805 -16.025,-5.805l-0.001,0Zm-18.883,41.52c-2.371,0 -4.307,1.936 -4.307,4.307c0,2.371 1.936,4.304 4.307,4.304c2.371,0 4.307,-1.933 4.307,-4.304c0,-2.371 -1.936,-4.307 -4.307,-4.307Zm37.766,0c-2.371,0 -4.305,1.934 -4.305,4.305c0,2.371 1.934,4.306 4.305,4.306c2.371,0 4.307,-1.935 4.307,-4.306c0,-2.371 -1.936,-4.305 -4.307,-4.305Zm-37.766,1.199c1.722,0 3.105,1.385 3.105,3.108c0,1.722 -1.383,3.105 -3.105,3.105c-1.723,0 -3.106,-1.383 -3.106,-3.105c0,-1.723 1.383,-3.108 3.106,-3.108Z" style="fill:#eeeeee;fill-rule:nonzero;"/>
      <path d="M117.1,204.94c-0.332,0.006 -0.596,0.28 -0.59,0.611l0,1.409c-2.52,0.129 -5.006,1.042 -7.047,2.755c-4.419,3.708 -5.55,10.112 -2.668,15.105l0.301,0.52l10.035,-5.793l10.035,5.793l0.301,-0.52c2.882,-4.993 1.752,-11.398 -2.668,-15.105c-2.052,-1.722 -4.555,-2.636 -7.09,-2.757l0,-1.411c0,-0.338 -0.271,-0.612 -0.609,-0.607l0,0Zm-0.586,3.219l0.019,10.35l-8.902,5.14c-2.21,-4.402 -1.209,-9.813 2.605,-13.014c1.819,-1.527 4.032,-2.348 6.278,-2.476l0,0Zm1.199,0c2.26,0.121 4.488,0.94 6.317,2.476c3.815,3.201 4.813,8.612 2.603,13.014l-8.902,-5.14l-0.018,-10.35Zm7.933,17.562l0.01,1.582l-1.606,0.008c-0.831,-0.028 -0.825,1.235 0.01,1.199l1.606,-0.008l0.01,1.629c-0.026,0.831 1.236,0.822 1.199,-0.008l-0.01,-1.625l1.603,-0.008c0.801,-0.004 0.795,-1.205 -0.01,-1.201l-1.605,0.008l-0.01,-1.584c0,-0.771 -1.197,-0.756 -1.197,0.008l0,0Zm-15.172,1.445l-4.415,0.02c-0.8,0.004 -0.794,1.205 0.01,1.201l4.415,-0.022c0.83,0.028 0.824,-1.235 -0.01,-1.199Z" style="fill:#eeeeee;fill-rule:nonzero;"/>
      <path d="M54.371,136.07c-5.706,0 -11.412,1.934 -16.027,5.805c-9.229,7.745 -11.587,21.128 -5.564,31.564c0.391,0.722 1.468,0.101 1.039,-0.6c-5.733,-9.934 -3.488,-22.672 5.296,-30.045c8.786,-7.369 21.725,-7.369 30.511,0c8.785,7.373 11.029,20.111 5.296,30.045c-0.429,0.701 0.648,1.322 1.039,0.6c6.023,-10.436 3.666,-23.819 -5.564,-31.564c-4.615,-3.871 -10.32,-5.805 -16.025,-5.805l-0.001,0Zm-18.883,41.52c-2.371,0 -4.307,1.936 -4.307,4.307c0,2.371 1.936,4.304 4.307,4.304c2.371,0 4.307,-1.933 4.307,-4.304c0,-2.371 -1.936,-4.307 -4.307,-4.307Zm37.766,0c-2.371,0 -4.305,1.934 -4.305,4.305c0,2.371 1.934,4.306 4.305,4.306c2.371,0 4.307,-1.935 4.307,-4.306c0,-2.371 -1.936,-4.305 -4.307,-4.305Zm-37.766,1.199c1.722,0 3.105,1.385 3.105,3.108c0,1.722 -1.383,3.105 -3.105,3.105c-1.723,0 -3.106,-1.383 -3.106,-3.105c0,-1.723 1.383,-3.108 3.106,-3.108Z" style="fill:#eeeeee;fill-rule:nonzero;"/>
      <path d="M117.1,135.91c-0.332,0.006 -0.596,0.28 -0.59,0.611l0,1.409c-2.52,0.129 -5.006,1.042 -7.047,2.755c-4.419,3.708 -5.55,10.112 -2.668,15.105l0.301,0.52l10.035,-5.793l10.035,5.793l0.301,-0.52c2.882,-4.993 1.752,-11.398 -2.668,-15.105c-2.052,-1.722 -4.555,-2.636 -7.09,-2.757l0,-1.411c0,-0.338 -0.271,-0.612 -0.609,-0.607l0,0Zm-0.586,3.219l0.019,10.35l-8.902,5.14c-2.21,-4.402 -1.209,-9.813 2.605,-13.014c1.819,-1.527 4.032,-2.348 6.278,-2.476l0,0Zm1.199,0c2.26,0.121 4.488,0.94 6.317,2.476c3.815,3.201 4.813,8.612 2.603,13.014l-8.902,-5.14l-0.018,-10.35Zm7.933,17.562l0.01,1.582l-1.606,0.008c-0.831,-0.028 -0.825,1.235 0.01,1.199l1.606,-0.008l0.01,1.629c-0.026,0.831 1.236,0.822 1.199,-0.008l-0.01,-1.625l1.603,-0.008c0.801,-0.004 0.795,-1.205 -0.01,-1.201l-1.605,0.008l-0.01,-1.584c0,-0.771 -1.197,-0.756 -1.197,0.008l0,0Zm-15.172,1.445l-4.415,0.02c-0.8,0.004 -0.794,1.205 0.01,1.201l4.415,-0.022c0.83,0.028 0.824,-1.235 -0.01,-1.199Z" style="fill:#eeeeee;fill-rule:nonzero;"/>
    </g>
    <path d="M55.398,51.549c-7.925,0 -15.848,2.688 -22.258,8.065c-12.82,10.758 -16.096,29.349 -7.73,43.842c0.107,0.185 0.305,0.299 0.519,0.299c0.329,0 0.6,-0.271 0.6,-0.6c0,-0.106 -0.027,-0.21 -0.08,-0.301c-8.076,-13.991 -4.913,-31.935 7.463,-42.32c12.375,-10.379 30.599,-10.379 42.975,0c12.375,10.386 15.537,28.329 7.46,42.32c-0.053,0.091 -0.08,0.195 -0.08,0.301c0,0.329 0.271,0.6 0.6,0.6c0.214,0 0.412,-0.114 0.52,-0.299c8.365,-14.493 5.09,-33.083 -7.729,-43.842c-6.41,-5.377 -14.335,-8.065 -22.26,-8.065Zm-29.098,56.055c-2.371,0 -4.307,1.936 -4.307,4.307c0,2.371 1.936,4.304 4.307,4.304c2.371,0 4.307,-1.933 4.307,-4.304c0,-2.371 -1.936,-4.307 -4.307,-4.307Zm58.779,0.1c-2.317,0 -4.207,1.89 -4.207,4.207c0,2.317 1.89,4.205 4.207,4.205c2.317,0 4.205,-1.888 4.205,-4.205c0,-2.317 -1.888,-4.207 -4.205,-4.207Zm-58.779,1.099c1.723,0 3.106,1.385 3.106,3.108c0,1.722 -1.383,3.105 -3.106,3.105c-1.722,0 -3.105,-1.383 -3.105,-3.105c0,-1.723 1.383,-3.108 3.105,-3.108Z" style="fill:#eeeeee;"/>
    <path d="M116.943,58.103c-0.332,0.006 -0.597,0.28 -0.59,0.612l0,1.408c-2.521,0.13 -5.007,1.042 -7.047,2.756c-4.419,3.707 -5.55,10.112 -2.668,15.105l0.301,0.519l10.035,-5.793l10.035,5.793l0.3,-0.519c2.882,-4.993 1.753,-11.398 -2.668,-15.105c-2.051,-1.723 -4.554,-2.636 -7.089,-2.758l0,-1.41c0,-0.338 -0.272,-0.613 -0.61,-0.608l0.001,0Zm-0.586,3.219l0.019,10.35l-8.903,5.141c-2.209,-4.402 -1.209,-9.814 2.606,-13.014c1.819,-1.528 4.031,-2.348 6.277,-2.477l0.001,0Zm1.199,0c2.259,0.121 4.487,0.941 6.316,2.477c3.816,3.2 4.813,8.611 2.604,13.014l-8.903,-5.141l-0.017,-10.35Zm7.932,17.562l0.01,1.582l-1.605,0.008c-0.831,-0.028 -0.825,1.236 0.01,1.199l1.605,-0.008l0.01,1.629c-0.026,0.831 1.237,0.823 1.199,-0.008l-0.01,-1.625l1.604,-0.008c0.801,-0.004 0.795,-1.205 -0.01,-1.201l-1.606,0.008l-0.01,-1.584c0,-0.77 -1.197,-0.755 -1.197,0.008l0,0Zm-15.172,1.446l-4.414,0.019c-0.801,0.004 -0.795,1.205 0.01,1.201l4.414,-0.021c0.831,0.028 0.825,-1.236 -0.01,-1.199Z" style="fill:#eeeeee;fill-rule:nonzero;"/>
    <path d="M44.683,123.16c-0.364,-0.444 -0.812,-0.664 -1.345,-0.664c-0.236,0 -0.452,0.044 -0.652,0.128c-0.2,0.084 -0.372,0.2 -0.516,0.348c-0.144,0.148 -0.256,0.32 -0.34,0.524c-0.084,0.204 -0.124,0.42 -0.124,0.657c0,0.24 0.04,0.46 0.124,0.664c0.084,0.204 0.196,0.38 0.344,0.528c0.148,0.148 0.32,0.268 0.516,0.352c0.196,0.084 0.412,0.128 0.64,0.128c0.501,0 0.953,-0.212 1.353,-0.64l0,1.857l-0.16,0.056c-0.24,0.084 -0.464,0.148 -0.672,0.188c-0.209,0.04 -0.413,0.06 -0.617,0.06c-0.416,0 -0.816,-0.08 -1.196,-0.236c-0.38,-0.156 -0.717,-0.38 -1.009,-0.665c-0.292,-0.284 -0.524,-0.624 -0.7,-1.016c-0.176,-0.392 -0.264,-0.82 -0.264,-1.284c0,-0.465 0.088,-0.889 0.26,-1.277c0.172,-0.388 0.404,-0.72 0.696,-1c0.292,-0.281 0.629,-0.501 1.013,-0.657c0.384,-0.156 0.788,-0.236 1.208,-0.236c0.24,0 0.476,0.024 0.709,0.076c0.232,0.052 0.476,0.128 0.732,0.236l0,1.873Z" style="fill:#eeeeee;fill-rule:nonzero;"/>
    <path d="M47.244,121.15l0,3.282c0,0.176 0.008,0.356 0.02,0.54c0.012,0.184 0.052,0.352 0.12,0.5c0.068,0.148 0.172,0.272 0.316,0.364c0.144,0.092 0.348,0.14 0.608,0.14c0.26,0 0.465,-0.048 0.605,-0.14c0.14,-0.092 0.248,-0.216 0.316,-0.364c0.068,-0.148 0.112,-0.316 0.124,-0.5c0.012,-0.184 0.02,-0.364 0.02,-0.54l0,-3.282l1.56,0l0,3.498c0,0.94 -0.216,1.624 -0.644,2.057c-0.428,0.432 -1.088,0.648 -1.981,0.648c-0.892,0 -1.552,-0.216 -1.984,-0.648c-0.433,-0.433 -0.649,-1.117 -0.649,-2.057l0,-3.498l1.569,0Z" style="fill:#eeeeee;fill-rule:nonzero;"/>
    <path d="M54.487,122.48l0,4.706l-1.569,0l0,-4.706l-1.288,0l0,-1.329l4.145,0l0,1.329l-1.288,0Z" style="fill:#eeeeee;fill-rule:nonzero;"/>
    <path d="M57.784,124.16c0,0.24 0.044,0.46 0.136,0.664c0.092,0.204 0.212,0.38 0.369,0.528c0.156,0.148 0.336,0.264 0.54,0.348c0.204,0.084 0.424,0.124 0.652,0.124c0.228,0 0.448,-0.04 0.652,-0.124c0.204,-0.084 0.388,-0.2 0.545,-0.348c0.156,-0.148 0.28,-0.324 0.372,-0.528c0.092,-0.204 0.136,-0.424 0.136,-0.664c0,-0.241 -0.044,-0.461 -0.136,-0.665c-0.092,-0.204 -0.216,-0.38 -0.372,-0.528c-0.157,-0.148 -0.341,-0.264 -0.545,-0.348c-0.204,-0.084 -0.424,-0.124 -0.652,-0.124c-0.228,0 -0.448,0.04 -0.652,0.124c-0.204,0.084 -0.384,0.2 -0.54,0.348c-0.157,0.148 -0.277,0.324 -0.369,0.528c-0.092,0.204 -0.136,0.424 -0.136,0.665Zm-1.64,0c0,-0.449 0.084,-0.865 0.248,-1.253c0.164,-0.388 0.396,-0.724 0.688,-1.012c0.292,-0.289 0.644,-0.513 1.052,-0.677c0.409,-0.164 0.857,-0.244 1.349,-0.244c0.484,0 0.932,0.08 1.345,0.244c0.412,0.164 0.764,0.388 1.06,0.677c0.296,0.288 0.528,0.624 0.692,1.012c0.164,0.388 0.248,0.804 0.248,1.253c0,0.448 -0.084,0.864 -0.248,1.252c-0.164,0.388 -0.396,0.724 -0.692,1.012c-0.296,0.289 -0.648,0.513 -1.06,0.677c-0.413,0.164 -0.861,0.244 -1.345,0.244c-0.492,0 -0.94,-0.08 -1.349,-0.244c-0.408,-0.164 -0.76,-0.388 -1.052,-0.677c-0.292,-0.288 -0.524,-0.624 -0.688,-1.012c-0.164,-0.388 -0.248,-0.804 -0.248,-1.252Z" style="fill:#eeeeee;fill-rule:nonzero;"/>
    <path d="M67.276,122.48l-1.889,0l0,1.008l1.721,0l0,1.329l-1.721,0l0,2.369l-1.568,0l0,-6.035l3.457,0l0,1.329Z" style="fill:#eeeeee;fill-rule:nonzero;"/>
    <path d="M71.67,122.48l-1.889,0l0,1.008l1.721,0l0,1.329l-1.721,0l0,2.369l-1.568,0l0,-6.035l3.457,0l0,1.329Z" style="fill:#eeeeee;fill-rule:nonzero;"/>
    <path d="M41.393,188.87c-0.32,0 -0.609,0.049 -0.869,0.145c-0.26,0.096 -0.476,0.232 -0.656,0.404c-0.18,0.173 -0.315,0.381 -0.416,0.625c-0.1,0.244 -0.149,0.512 -0.149,0.812c0,0.3 0.049,0.545 0.141,0.741c0.092,0.196 0.217,0.356 0.369,0.484c0.152,0.128 0.323,0.233 0.519,0.309c0.196,0.076 0.392,0.146 0.596,0.21c0.172,0.06 0.316,0.113 0.436,0.161c0.12,0.048 0.217,0.1 0.293,0.156c0.076,0.056 0.128,0.115 0.16,0.183c0.032,0.068 0.047,0.145 0.047,0.237c0,0.148 -0.064,0.284 -0.188,0.4c-0.124,0.116 -0.316,0.176 -0.572,0.176c-0.224,0 -0.452,-0.052 -0.68,-0.152c-0.228,-0.1 -0.459,-0.255 -0.695,-0.463l-0.674,1.263c0.653,0.452 1.357,0.68 2.121,0.68c0.368,0 0.695,-0.046 0.988,-0.146c0.292,-0.1 0.537,-0.236 0.737,-0.416c0.2,-0.18 0.353,-0.395 0.457,-0.647c0.104,-0.252 0.156,-0.532 0.156,-0.84c0,-0.46 -0.121,-0.831 -0.357,-1.115c-0.236,-0.285 -0.611,-0.513 -1.123,-0.685c-0.129,-0.044 -0.257,-0.084 -0.389,-0.12c-0.132,-0.036 -0.248,-0.08 -0.352,-0.132c-0.104,-0.052 -0.189,-0.112 -0.253,-0.18c-0.064,-0.068 -0.096,-0.156 -0.096,-0.264c0,-0.156 0.065,-0.281 0.193,-0.377c0.128,-0.096 0.292,-0.142 0.496,-0.142c0.16,0 0.323,0.031 0.496,0.099c0.172,0.068 0.34,0.169 0.512,0.309l0.625,-1.227c-0.3,-0.16 -0.613,-0.279 -0.937,-0.363c-0.324,-0.084 -0.636,-0.125 -0.936,-0.125l0,0Zm6.17,0c-0.492,0 -0.94,0.08 -1.348,0.244c-0.408,0.164 -0.761,0.389 -1.053,0.678c-0.292,0.288 -0.523,0.624 -0.687,1.012c-0.165,0.388 -0.25,0.804 -0.25,1.253c0,0.448 0.085,0.864 0.25,1.252c0.164,0.388 0.395,0.724 0.687,1.012c0.292,0.289 0.645,0.514 1.053,0.678c0.408,0.164 0.856,0.242 1.348,0.242c0.484,0 0.932,-0.078 1.344,-0.242c0.413,-0.164 0.766,-0.389 1.062,-0.678c0.296,-0.288 0.528,-0.624 0.692,-1.012c0.164,-0.388 0.248,-0.803 0.248,-1.252c0,-0.449 -0.084,-0.865 -0.248,-1.253c-0.164,-0.388 -0.396,-0.724 -0.692,-1.012c-0.296,-0.289 -0.649,-0.514 -1.062,-0.678c-0.412,-0.164 -0.86,-0.244 -1.344,-0.244Zm28.34,0c-0.421,0 -0.825,0.08 -1.209,0.236c-0.384,0.156 -0.72,0.378 -1.012,0.659c-0.292,0.28 -0.525,0.612 -0.697,1c-0.172,0.388 -0.26,0.812 -0.26,1.277c0,0.464 0.088,0.891 0.264,1.283c0.176,0.392 0.409,0.732 0.701,1.016c0.292,0.285 0.628,0.51 1.008,0.666c0.38,0.156 0.78,0.234 1.197,0.234c0.204,0 0.409,-0.019 0.617,-0.059c0.208,-0.04 0.432,-0.105 0.672,-0.189l0.16,-0.055l0,-1.857c-0.4,0.428 -0.853,0.641 -1.353,0.641c-0.228,0 -0.445,-0.045 -0.641,-0.129c-0.196,-0.084 -0.367,-0.204 -0.515,-0.352c-0.148,-0.148 -0.26,-0.323 -0.344,-0.527c-0.084,-0.204 -0.125,-0.424 -0.125,-0.664c0,-0.237 0.041,-0.455 0.125,-0.659c0.084,-0.204 0.196,-0.375 0.34,-0.523c0.144,-0.148 0.315,-0.264 0.515,-0.348c0.2,-0.084 0.417,-0.129 0.653,-0.129c0.532,0 0.981,0.22 1.345,0.665l0,-1.873c-0.256,-0.108 -0.5,-0.185 -0.732,-0.237c-0.232,-0.052 -0.469,-0.076 -0.709,-0.076l0,0Zm-46.811,0.17l0,6.033l1.568,0l0,-2.32l1.496,2.32l1.954,0l-1.897,-2.472c0.433,-0.1 0.76,-0.297 0.98,-0.581c0.22,-0.285 0.333,-0.657 0.333,-1.117c0,-0.256 -0.041,-0.495 -0.125,-0.719c-0.084,-0.224 -0.204,-0.419 -0.368,-0.591c-0.164,-0.173 -0.369,-0.307 -0.621,-0.407c-0.253,-0.1 -0.545,-0.146 -0.881,-0.146l-2.439,0l0,0Zm5.674,0l0,6.033l3.433,0l0,-1.328l-1.865,0l0,-1.041l1.762,0l0,-1.328l-1.762,0l0,-1.008l1.865,0l0,-1.328l-3.433,0l0,0Zm17.135,0l0,6.033l1.568,0l0,-3.689l2.897,3.689l1.562,0l0,-6.033l-1.562,0l0,3.689l-2.897,-3.689l-1.568,0Zm9.027,0l-2.297,6.033l1.674,0l0.359,-1.049l2.24,0l0.362,1.049l1.672,0l-2.297,-6.033l-1.713,0l0,0Zm4.699,0l0,6.033l1.569,0l0,-3.689l2.896,3.689l1.561,0l0,-6.033l-1.561,0l0,3.689l-2.896,-3.689l-1.569,0Zm12.709,0l0,6.033l3.434,0l0,-1.328l-1.865,0l0,-1.041l1.759,0l0,-1.328l-1.759,0l0,-1.008l1.865,0l0,-1.328l-3.434,0l0,0Zm-47.676,1.209l0.295,0c0.308,0 0.549,0.063 0.713,0.191c0.164,0.128 0.248,0.311 0.248,0.551c0,0.24 -0.084,0.425 -0.248,0.553c-0.164,0.128 -0.405,0.191 -0.713,0.191l-0.295,0l0,-1.486l0,0Zm16.902,0.143c0.228,0 0.449,0.041 0.653,0.125c0.204,0.084 0.388,0.199 0.544,0.347c0.156,0.148 0.28,0.324 0.372,0.528c0.093,0.204 0.136,0.425 0.136,0.666c0,0.24 -0.043,0.46 -0.136,0.664c-0.092,0.204 -0.216,0.379 -0.372,0.527c-0.156,0.148 -0.34,0.264 -0.544,0.348c-0.204,0.084 -0.425,0.125 -0.653,0.125c-0.228,0 -0.448,-0.041 -0.652,-0.125c-0.205,-0.084 -0.385,-0.2 -0.541,-0.348c-0.156,-0.148 -0.275,-0.323 -0.367,-0.527c-0.092,-0.204 -0.137,-0.424 -0.137,-0.664c0,-0.241 0.045,-0.462 0.137,-0.666c0.092,-0.204 0.211,-0.38 0.367,-0.528c0.156,-0.148 0.336,-0.263 0.541,-0.347c0.204,-0.084 0.424,-0.125 0.652,-0.125Zm14.223,0.431l0.703,2.01l-1.408,0l0.705,-2.01Z" style="fill:#eeeeee;fill-rule:nonzero;"/>
    <path d="M101.64,305.63c0,0.24 0.044,0.46 0.136,0.664c0.092,0.204 0.212,0.38 0.368,0.528c0.156,0.148 0.336,0.264 0.54,0.348c0.204,0.084 0.424,0.124 0.652,0.124c0.228,0 0.449,-0.04 0.653,-0.124c0.204,-0.084 0.388,-0.2 0.544,-0.348c0.156,-0.148 0.28,-0.324 0.372,-0.528c0.092,-0.204 0.136,-0.424 0.136,-0.664c0,-0.241 -0.044,-0.461 -0.136,-0.665c-0.092,-0.204 -0.216,-0.38 -0.372,-0.528c-0.156,-0.148 -0.34,-0.264 -0.544,-0.348c-0.204,-0.084 -0.425,-0.124 -0.653,-0.124c-0.228,0 -0.448,0.04 -0.652,0.124c-0.204,0.084 -0.384,0.2 -0.54,0.348c-0.156,0.148 -0.276,0.324 -0.368,0.528c-0.092,0.204 -0.136,0.424 -0.136,0.665Zm-1.641,0c0,-0.449 0.084,-0.865 0.248,-1.253c0.164,-0.388 0.396,-0.724 0.688,-1.012c0.292,-0.289 0.645,-0.513 1.053,-0.677c0.408,-0.164 0.856,-0.244 1.348,-0.244c0.485,0 0.933,0.08 1.345,0.244c0.412,0.164 0.764,0.388 1.06,0.677c0.296,0.288 0.529,0.624 0.693,1.012c0.164,0.388 0.248,0.804 0.248,1.253c0,0.448 -0.084,0.864 -0.248,1.252c-0.164,0.388 -0.397,0.724 -0.693,1.012c-0.296,0.289 -0.648,0.513 -1.06,0.677c-0.412,0.164 -0.86,0.244 -1.345,0.244c-0.492,0 -0.94,-0.08 -1.348,-0.244c-0.408,-0.164 -0.761,-0.388 -1.053,-0.677c-0.292,-0.288 -0.524,-0.624 -0.688,-1.012c-0.164,-0.388 -0.248,-0.804 -0.248,-1.252Z" style="fill:#eeeeee;fill-rule:nonzero;"/>
    <path d="M109.24,302.61l0,3.282c0,0.176 0.008,0.356 0.02,0.54c0.012,0.184 0.052,0.352 0.12,0.5c0.068,0.148 0.172,0.272 0.316,0.364c0.144,0.092 0.348,0.14 0.608,0.14c0.26,0 0.464,-0.048 0.604,-0.14c0.141,-0.092 0.249,-0.216 0.317,-0.364c0.068,-0.148 0.112,-0.316 0.124,-0.5c0.012,-0.184 0.02,-0.364 0.02,-0.54l0,-3.282l1.56,0l0,3.498c0,0.94 -0.216,1.624 -0.644,2.057c-0.428,0.432 -1.088,0.648 -1.981,0.648c-0.892,0 -1.552,-0.216 -1.985,-0.648c-0.432,-0.433 -0.648,-1.117 -0.648,-2.057l0,-3.498l1.569,0Z" style="fill:#eeeeee;fill-rule:nonzero;"/>
    <path d="M116.49,303.94l0,4.706l-1.569,0l0,-4.706l-1.288,0l0,-1.329l4.145,0l0,1.329l-1.288,0Z" style="fill:#eeeeee;fill-rule:nonzero;"/>
    <path d="M120.04,305.38l0.52,0c0.577,0 0.865,-0.252 0.865,-0.752c0,-0.5 -0.288,-0.752 -0.865,-0.752l-0.52,0l0,1.504Zm0,3.266l-1.568,0l0,-6.035l2.497,0c0.676,0 1.196,0.176 1.556,0.529c0.36,0.352 0.541,0.848 0.541,1.488c0,0.64 -0.181,1.137 -0.541,1.489c-0.36,0.352 -0.88,0.528 -1.556,0.528l-0.929,0l0,2.001Z" style="fill:#eeeeee;fill-rule:nonzero;"/>
    <path d="M125.47,302.61l0,3.282c0,0.176 0.008,0.356 0.02,0.54c0.012,0.184 0.052,0.352 0.12,0.5c0.068,0.148 0.172,0.272 0.316,0.364c0.144,0.092 0.348,0.14 0.608,0.14c0.26,0 0.464,-0.048 0.604,-0.14c0.14,-0.092 0.248,-0.216 0.316,-0.364c0.068,-0.148 0.112,-0.316 0.124,-0.5c0.012,-0.184 0.02,-0.364 0.02,-0.54l0,-3.282l1.561,0l0,3.498c0,0.94 -0.216,1.624 -0.644,2.057c-0.428,0.432 -1.089,0.648 -1.981,0.648c-0.892,0 -1.553,-0.216 -1.985,-0.648c-0.432,-0.433 -0.648,-1.117 -0.648,-2.057l0,-3.498l1.569,0Z" style="fill:#eeeeee;fill-rule:nonzero;"/>
    <path d="M132.71,303.94l0,4.706l-1.569,0l0,-4.706l-1.289,0l0,-1.329l4.146,0l0,1.329l-1.288,0Z" style="fill:#eeeeee;fill-rule:nonzero;"/>
    <path d="M88.148,313.1c-0.32,0 -0.607,0.048 -0.867,0.145c-0.26,0.096 -0.476,0.232 -0.656,0.404c-0.18,0.173 -0.316,0.381 -0.416,0.625c-0.1,0.244 -0.149,0.51 -0.149,0.81c0,0.3 0.049,0.545 0.141,0.741c0.092,0.196 0.215,0.356 0.367,0.484c0.152,0.128 0.323,0.233 0.519,0.309c0.196,0.076 0.394,0.148 0.598,0.212c0.172,0.06 0.316,0.113 0.436,0.161c0.121,0.048 0.217,0.1 0.293,0.156c0.076,0.056 0.128,0.115 0.16,0.183c0.032,0.068 0.047,0.145 0.047,0.237c0,0.148 -0.064,0.282 -0.188,0.398c-0.124,0.116 -0.316,0.176 -0.572,0.176c-0.224,0 -0.452,-0.05 -0.68,-0.15c-0.228,-0.1 -0.461,-0.257 -0.697,-0.465l-0.672,1.265c0.652,0.452 1.357,0.68 2.121,0.68c0.369,0 0.696,-0.048 0.988,-0.148c0.292,-0.1 0.537,-0.236 0.737,-0.416c0.2,-0.18 0.351,-0.393 0.455,-0.645c0.104,-0.252 0.156,-0.532 0.156,-0.84c0,-0.46 -0.119,-0.833 -0.355,-1.117c-0.236,-0.285 -0.613,-0.512 -1.125,-0.684c-0.128,-0.044 -0.255,-0.085 -0.387,-0.121c-0.132,-0.036 -0.25,-0.078 -0.354,-0.131c-0.104,-0.052 -0.188,-0.111 -0.252,-0.179c-0.064,-0.068 -0.095,-0.158 -0.095,-0.266c0,-0.156 0.063,-0.279 0.191,-0.375c0.128,-0.096 0.293,-0.144 0.498,-0.144c0.16,0 0.322,0.031 0.494,0.099c0.172,0.068 0.342,0.169 0.514,0.309l0.623,-1.225c-0.3,-0.16 -0.611,-0.281 -0.935,-0.365c-0.324,-0.084 -0.637,-0.123 -0.938,-0.123l0,0Zm-28.418,0.168l0,6.035l1.568,0l0,-6.035l-1.568,0Zm2.832,0l0,6.035l1.568,0l0,-3.689l2.899,3.689l1.558,0l0,-6.035l-1.558,0l0,3.689l-2.899,-3.689l-1.568,0Zm7.291,0l0,6.035l1.568,0l0,-2.002l0.93,0c0.676,0 1.196,-0.175 1.557,-0.527c0.36,-0.352 0.539,-0.848 0.539,-1.488c0,-0.641 -0.179,-1.137 -0.539,-1.489c-0.361,-0.353 -0.881,-0.529 -1.557,-0.529l-2.498,0Zm5.426,0l0,3.498c0,0.94 0.216,1.624 0.648,2.057c0.433,0.432 1.093,0.648 1.985,0.648c0.893,0 1.554,-0.216 1.982,-0.648c0.428,-0.433 0.643,-1.117 0.643,-2.057l0,-3.498l-1.559,0l0,3.281c0,0.176 -0.009,0.357 -0.021,0.541c-0.012,0.184 -0.056,0.352 -0.124,0.5c-0.068,0.148 -0.175,0.271 -0.316,0.363c-0.14,0.092 -0.345,0.141 -0.605,0.141c-0.26,0 -0.464,-0.049 -0.608,-0.141c-0.144,-0.092 -0.248,-0.215 -0.316,-0.363c-0.068,-0.148 -0.107,-0.316 -0.119,-0.5c-0.012,-0.184 -0.02,-0.365 -0.02,-0.541l0,-3.281l-1.57,0Zm5.955,0l0,1.328l1.289,0l0,4.707l1.568,0l0,-4.707l1.287,0l0,-1.328l-4.144,0Zm-9.813,1.266l0.522,0c0.576,0 0.863,0.252 0.863,0.752c0,0.5 -0.287,0.751 -0.863,0.751l-0.522,0l0,-1.503Z" style="fill:#eeeeee;"/>
    <g>
      <path d="M27.023,38.396l0,-1.01c0.683,0.286 1.267,0.428 1.75,0.428c0.566,0 0.849,-0.192 0.849,-0.577c0,-0.248 -0.233,-0.465 -0.699,-0.651l-0.466,-0.187c-0.506,-0.205 -0.867,-0.425 -1.084,-0.662c-0.217,-0.235 -0.326,-0.527 -0.326,-0.874c0,-0.485 0.184,-0.861 0.553,-1.13c0.37,-0.268 0.887,-0.402 1.55,-0.402c0.416,0 0.912,0.06 1.486,0.182l0,0.968c-0.553,-0.193 -1.01,-0.288 -1.373,-0.288c-0.571,0 -0.857,0.177 -0.857,0.53c0,0.233 0.211,0.43 0.633,0.591l0.4,0.153c0.6,0.227 1.016,0.457 1.251,0.69c0.234,0.233 0.351,0.532 0.351,0.899c0,0.48 -0.2,0.871 -0.598,1.171c-0.399,0.298 -0.918,0.449 -1.557,0.449c-0.615,0 -1.236,-0.094 -1.863,-0.28Z" style="fill:#eeeeee;fill-rule:nonzero;"/>
      <path d="M35.184,38.532c-0.329,0.095 -0.587,0.144 -0.777,0.144c-1.195,0 -1.792,-0.559 -1.792,-1.676l0,-2.692l-0.573,0l0,-0.861l0.573,0l0,-0.86l1.377,-0.159l0,1.019l1.095,0l0,0.861l-1.095,0l0,2.509c0,0.628 0.256,0.942 0.769,0.942c0.117,0 0.259,-0.023 0.423,-0.066l0,0.839Z" style="fill:#eeeeee;fill-rule:nonzero;"/>
      <path d="M40.576,38.387c-0.656,0.192 -1.276,0.289 -1.863,0.289c-0.853,0 -1.527,-0.243 -2.02,-0.727c-0.493,-0.484 -0.74,-1.145 -0.74,-1.983c0,-0.792 0.226,-1.428 0.677,-1.911c0.452,-0.483 1.048,-0.724 1.79,-0.724c0.747,0 1.294,0.236 1.639,0.707c0.344,0.472 0.517,1.219 0.517,2.239l-3.171,0c0.093,0.976 0.628,1.463 1.606,1.463c0.462,0 0.984,-0.107 1.565,-0.321l0,0.968Zm-3.189,-2.887l1.833,0c0,-0.872 -0.28,-1.307 -0.842,-1.307c-0.571,0 -0.901,0.435 -0.991,1.307Z" style="fill:#eeeeee;fill-rule:nonzero;"/>
      <path d="M42,38.559l0,-5.112l1.378,0l0,5.112l-1.378,0Zm0,-5.972l0,-1.151l1.378,0l0,1.151l-1.378,0Z" style="fill:#eeeeee;fill-rule:nonzero;"/>
      <path d="M45.101,38.559l0,-5.112l1.377,0l0,0.964c0.45,-0.72 1.031,-1.08 1.742,-1.08c0.456,0 0.816,0.144 1.08,0.433c0.263,0.289 0.396,0.683 0.396,1.183l0,3.612l-1.379,0l0,-3.273c0,-0.58 -0.192,-0.87 -0.577,-0.87c-0.437,0 -0.858,0.308 -1.262,0.927l0,3.216l-1.377,0Z" style="fill:#eeeeee;fill-rule:nonzero;"/>
      <path d="M55.524,38.387c-0.655,0.192 -1.275,0.289 -1.862,0.289c-0.853,0 -1.527,-0.243 -2.02,-0.727c-0.494,-0.484 -0.74,-1.145 -0.74,-1.983c0,-0.792 0.225,-1.428 0.676,-1.911c0.452,-0.483 1.048,-0.724 1.791,-0.724c0.747,0 1.294,0.236 1.639,0.707c0.344,0.472 0.516,1.219 0.516,2.239l-3.171,0c0.094,0.976 0.629,1.463 1.606,1.463c0.463,0 0.985,-0.107 1.565,-0.321l0,0.968Zm-3.189,-2.887l1.834,0c0,-0.872 -0.28,-1.307 -0.843,-1.307c-0.57,0 -0.901,0.435 -0.991,1.307Z" style="fill:#eeeeee;fill-rule:nonzero;"/>
      <path d="M56.948,38.559l0,-5.112l1.379,0l0,0.964c0.357,-0.72 0.9,-1.08 1.629,-1.08c0.087,0 0.173,0.009 0.257,0.027l0,1.23c-0.196,-0.071 -0.377,-0.107 -0.546,-0.107c-0.549,0 -0.996,0.278 -1.34,0.833l0,3.245l-1.379,0Z" style="fill:#eeeeee;fill-rule:nonzero;"/>
    </g>
    <rect x="61.339" y="35.17" width="4.251" height="0.861" style="fill:#eeeeee;"/>
    <g>
      <path d="M67.372,40.398l0,-6.951l1.379,0l0,0.964c0.353,-0.72 0.91,-1.08 1.67,-1.08c0.615,0 1.098,0.225 1.451,0.675c0.352,0.45 0.528,1.07 0.528,1.857c0,0.857 -0.198,1.54 -0.596,2.049c-0.397,0.509 -0.93,0.764 -1.597,0.764c-0.536,0 -1.022,-0.211 -1.456,-0.634l0,2.356l-1.379,0Zm1.379,-3.175c0.335,0.373 0.692,0.559 1.07,0.559c0.339,0 0.609,-0.164 0.81,-0.491c0.202,-0.327 0.303,-0.765 0.303,-1.311c0,-1.046 -0.337,-1.569 -1.01,-1.569c-0.407,0 -0.798,0.262 -1.173,0.787l0,2.025Z" style="fill:#eeeeee;fill-rule:nonzero;"/>
      <path d="M76.195,38.01c-0.46,0.443 -0.952,0.666 -1.476,0.666c-0.447,0 -0.81,-0.137 -1.09,-0.41c-0.279,-0.273 -0.419,-0.627 -0.419,-1.062c0,-0.564 0.227,-1 0.678,-1.306c0.452,-0.306 1.098,-0.458 1.938,-0.458l0.369,0l0,-0.466c0,-0.53 -0.303,-0.796 -0.909,-0.796c-0.537,0 -1.08,0.152 -1.629,0.456l0,-0.949c0.625,-0.237 1.242,-0.354 1.853,-0.354c1.338,0 2.007,0.532 2.007,1.597l0,2.262c0,0.4 0.128,0.6 0.387,0.6c0.046,0 0.107,-0.005 0.181,-0.018l0.032,0.773c-0.292,0.087 -0.549,0.131 -0.772,0.131c-0.566,0 -0.929,-0.223 -1.09,-0.666l-0.06,0Zm0,-0.74l0,-1.039l-0.326,0c-0.891,0 -1.337,0.279 -1.337,0.838c0,0.19 0.065,0.349 0.194,0.478c0.128,0.128 0.287,0.193 0.477,0.193c0.323,0 0.653,-0.157 0.992,-0.47Z" style="fill:#eeeeee;fill-rule:nonzero;"/>
      <path d="M79.295,38.559l0,-5.112l1.378,0l0,0.964c0.357,-0.72 0.9,-1.08 1.63,-1.08c0.087,0 0.172,0.009 0.256,0.027l0,1.23c-0.196,-0.071 -0.377,-0.107 -0.545,-0.107c-0.55,0 -0.997,0.278 -1.341,0.833l0,3.245l-1.378,0Z" style="fill:#eeeeee;fill-rule:nonzero;"/>
      <path d="M83.629,38.559l0,-7.351l1.379,0l0,4.623l0.088,0l1.82,-2.384l1.145,0l-1.68,2.189l2.207,2.923l-1.676,0l-1.816,-2.556l-0.088,0l0,2.556l-1.379,0Z" style="fill:#eeeeee;fill-rule:nonzero;"/>
      <path d="M93.825,38.387c-0.655,0.192 -1.275,0.289 -1.862,0.289c-0.853,0 -1.527,-0.243 -2.021,-0.727c-0.494,-0.484 -0.74,-1.145 -0.74,-1.983c0,-0.792 0.226,-1.428 0.677,-1.911c0.452,-0.483 1.048,-0.724 1.791,-0.724c0.747,0 1.294,0.236 1.639,0.707c0.344,0.472 0.516,1.219 0.516,2.239l-3.171,0c0.094,0.976 0.629,1.463 1.606,1.463c0.463,0 0.984,-0.107 1.565,-0.321l0,0.968Zm-3.189,-2.887l1.834,0c0,-0.872 -0.28,-1.307 -0.843,-1.307c-0.57,0 -0.901,0.435 -0.991,1.307Z" style="fill:#eeeeee;fill-rule:nonzero;"/>
      <path d="M95.249,38.559l0,-5.112l1.379,0l0,0.964c0.357,-0.72 0.9,-1.08 1.629,-1.08c0.087,0 0.172,0.009 0.256,0.027l0,1.23c-0.195,-0.071 -0.377,-0.107 -0.545,-0.107c-0.549,0 -0.996,0.278 -1.34,0.833l0,3.245l-1.379,0Z" style="fill:#eeeeee;fill-rule:nonzero;"/>
      <path d="M102.87,38.559l0,-4.251l-0.703,0l0,-0.861l0.703,0l0,-0.353c0,-0.643 0.153,-1.137 0.459,-1.484c0.306,-0.345 0.741,-0.518 1.306,-0.518c0.348,0 0.717,0.063 1.108,0.19l0,0.941c-0.384,-0.171 -0.67,-0.256 -0.857,-0.256c-0.425,0 -0.637,0.388 -0.637,1.164l0,0.316l3.216,0l0,5.112l-1.378,0l0,-4.251l-1.838,0l0,4.251l-1.379,0Zm3.446,-5.972l0,-1.151l1.149,0l0,1.151l-1.149,0Z" style="fill:#eeeeee;fill-rule:nonzero;"/>
    </g>
    <rect x="109.19" y="31.208" width="1.379" height="7.351" style="fill:#eeeeee;"/>
    <g>
      <path d="M114.92,38.532c-0.329,0.095 -0.587,0.144 -0.777,0.144c-1.195,0 -1.792,-0.559 -1.792,-1.676l0,-2.692l-0.573,0l0,-0.861l0.573,0l0,-0.86l1.377,-0.159l0,1.019l1.095,0l0,0.861l-1.095,0l0,2.509c0,0.628 0.257,0.942 0.769,0.942c0.117,0 0.259,-0.023 0.423,-0.066l0,0.839Z" style="fill:#eeeeee;fill-rule:nonzero;"/>
      <path d="M120.32,38.387c-0.656,0.192 -1.276,0.289 -1.863,0.289c-0.853,0 -1.526,-0.243 -2.02,-0.727c-0.493,-0.484 -0.74,-1.145 -0.74,-1.983c0,-0.792 0.226,-1.428 0.677,-1.911c0.452,-0.483 1.049,-0.724 1.79,-0.724c0.749,0 1.295,0.236 1.639,0.707c0.344,0.472 0.517,1.219 0.517,2.239l-3.17,0c0.092,0.976 0.628,1.463 1.606,1.463c0.462,0 0.984,-0.107 1.564,-0.321l0,0.968Zm-3.189,-2.887l1.833,0c0,-0.872 -0.28,-1.307 -0.841,-1.307c-0.572,0 -0.902,0.435 -0.992,1.307Z" style="fill:#eeeeee;fill-rule:nonzero;"/>
      <path d="M121.74,38.559l0,-5.112l1.378,0l0,0.964c0.357,-0.72 0.9,-1.08 1.63,-1.08c0.087,0 0.172,0.009 0.256,0.027l0,1.23c-0.196,-0.071 -0.377,-0.107 -0.545,-0.107c-0.549,0 -0.997,0.278 -1.341,0.833l0,3.245l-1.378,0Z" style="fill:#eeeeee;fill-rule:nonzero;"/>
      <path d="M43.28,19.797l0,7.398l-2.466,0l0,-7.398l-2.024,0l0,-2.087l6.516,0l0,2.087l-2.026,0Z" style="fill:#eeeeee;fill-rule:nonzero;"/>
      <path d="M51.118,23.672l-1.108,-3.157l-1.107,3.157l2.215,0Zm0.654,1.875l-3.523,0l-0.566,1.648l-2.629,0l3.611,-9.485l2.691,0l3.611,9.485l-2.629,0l-0.566,-1.648Z" style="fill:#eeeeee;fill-rule:nonzero;"/>
      <path d="M56.049,27.195l0,-9.485l2.465,0l4.554,5.799l0,-5.799l2.453,0l0,9.485l-2.453,0l-4.554,-5.799l0,5.799l-2.465,0Z" style="fill:#eeeeee;fill-rule:nonzero;"/>
      <path d="M72.302,21.886l4.894,0c0,0.503 -0.022,0.96 -0.063,1.372c-0.042,0.41 -0.126,0.792 -0.252,1.144c-0.177,0.495 -0.415,0.934 -0.717,1.314c-0.302,0.383 -0.656,0.701 -1.063,0.957c-0.407,0.256 -0.853,0.45 -1.34,0.585c-0.486,0.134 -0.998,0.201 -1.535,0.201c-0.738,0 -1.41,-0.122 -2.019,-0.365c-0.607,-0.243 -1.129,-0.585 -1.566,-1.025c-0.436,-0.44 -0.775,-0.969 -1.019,-1.585c-0.243,-0.616 -0.365,-1.298 -0.365,-2.044c0,-0.738 0.12,-1.416 0.36,-2.033c0.238,-0.615 0.578,-1.141 1.018,-1.578c0.44,-0.435 0.97,-0.775 1.591,-1.019c0.62,-0.242 1.313,-0.365 2.076,-0.365c0.99,0 1.857,0.215 2.604,0.642c0.746,0.428 1.337,1.09 1.774,1.987l-2.34,0.969c-0.218,-0.52 -0.501,-0.893 -0.85,-1.119c-0.347,-0.226 -0.744,-0.34 -1.188,-0.34c-0.369,0 -0.704,0.07 -1.007,0.208c-0.302,0.139 -0.559,0.336 -0.774,0.591c-0.213,0.256 -0.38,0.564 -0.502,0.925c-0.122,0.361 -0.182,0.763 -0.182,1.207c0,0.403 0.052,0.776 0.157,1.12c0.104,0.343 0.261,0.642 0.472,0.893c0.209,0.252 0.468,0.447 0.779,0.585c0.31,0.139 0.671,0.208 1.083,0.208c0.242,0 0.478,-0.028 0.704,-0.083c0.227,-0.054 0.429,-0.142 0.61,-0.263c0.18,-0.122 0.329,-0.279 0.446,-0.472c0.118,-0.193 0.197,-0.427 0.239,-0.704l-2.025,0l0,-1.913Z" style="fill:#eeeeee;fill-rule:nonzero;"/>
      <path d="M84.152,19.797l-2.931,0l0,1.585l2.768,0l0,2.089l-2.768,0l0,1.635l2.931,0l0,2.089l-5.397,0l0,-9.485l5.397,0l0,2.087Z" style="fill:#eeeeee;fill-rule:nonzero;"/>
      <path d="M85.926,27.195l0,-9.485l2.466,0l4.554,5.799l0,-5.799l2.453,0l0,9.485l-2.453,0l-4.554,-5.799l0,5.799l-2.466,0Z" style="fill:#eeeeee;fill-rule:nonzero;"/>
      <path d="M100.98,19.797l0,7.398l-2.466,0l0,-7.398l-2.025,0l0,-2.087l6.517,0l0,2.087l-2.026,0Z" style="fill:#eeeeee;fill-rule:nonzero;"/>
      <path d="M109.32,20.137c-0.267,-0.217 -0.536,-0.38 -0.804,-0.483c-0.269,-0.106 -0.529,-0.158 -0.781,-0.158c-0.318,0 -0.578,0.075 -0.78,0.227c-0.201,0.15 -0.301,0.347 -0.301,0.591c0,0.168 0.05,0.305 0.15,0.414c0.102,0.11 0.233,0.204 0.397,0.284c0.163,0.08 0.348,0.149 0.553,0.208c0.205,0.059 0.409,0.121 0.61,0.188c0.806,0.269 1.395,0.627 1.767,1.076c0.373,0.449 0.561,1.033 0.561,1.754c0,0.488 -0.082,0.927 -0.246,1.321c-0.163,0.395 -0.402,0.733 -0.717,1.013c-0.314,0.281 -0.7,0.499 -1.157,0.655c-0.457,0.154 -0.975,0.232 -1.553,0.232c-1.2,0 -2.311,-0.356 -3.334,-1.069l1.056,-1.988c0.369,0.328 0.734,0.57 1.095,0.73c0.361,0.16 0.717,0.238 1.07,0.238c0.402,0 0.701,-0.092 0.899,-0.276c0.197,-0.185 0.295,-0.394 0.295,-0.63c0,-0.142 -0.025,-0.265 -0.076,-0.37c-0.05,-0.105 -0.133,-0.201 -0.251,-0.289c-0.118,-0.089 -0.271,-0.17 -0.459,-0.246c-0.189,-0.075 -0.418,-0.159 -0.685,-0.251c-0.319,-0.101 -0.632,-0.211 -0.938,-0.334c-0.307,-0.121 -0.578,-0.282 -0.818,-0.483c-0.238,-0.203 -0.432,-0.456 -0.578,-0.762c-0.147,-0.307 -0.22,-0.694 -0.22,-1.163c0,-0.47 0.077,-0.896 0.232,-1.277c0.156,-0.383 0.374,-0.709 0.654,-0.982c0.281,-0.272 0.626,-0.483 1.032,-0.635c0.406,-0.151 0.862,-0.227 1.365,-0.227c0.469,0 0.961,0.066 1.472,0.196c0.512,0.129 1.002,0.32 1.472,0.571l-0.982,1.925Z" style="fill:#eeeeee;fill-rule:nonzero;"/>
    </g>
    <path d="M42.092,258.04l0,6.033l2.32,0c0.416,0 0.803,-0.084 1.164,-0.248c0.36,-0.164 0.678,-0.387 0.946,-0.664c0.268,-0.276 0.479,-0.601 0.631,-0.965c0.152,-0.364 0.228,-0.742 0.228,-1.138c0,-0.401 -0.076,-0.787 -0.232,-1.151c-0.156,-0.364 -0.367,-0.683 -0.635,-0.959c-0.268,-0.276 -0.585,-0.498 -0.945,-0.662c-0.361,-0.164 -0.745,-0.246 -1.157,-0.246l-2.32,0l0,0Zm6.291,0l0,6.033l1.566,0l0,-2.32l1.498,2.32l1.953,0l-1.896,-2.472c0.432,-0.1 0.759,-0.296 0.979,-0.58c0.221,-0.285 0.333,-0.658 0.333,-1.118c0,-0.256 -0.041,-0.494 -0.125,-0.718c-0.084,-0.224 -0.205,-0.42 -0.369,-0.592c-0.164,-0.173 -0.367,-0.306 -0.619,-0.406c-0.252,-0.1 -0.545,-0.147 -0.881,-0.147l-2.439,0l0,0Zm5.674,0l0,6.033l1.568,0l0,-6.033l-1.568,0Zm2.201,0l2.537,6.033l1.248,0l2.545,-6.033l-1.705,0l-1.465,3.674l-1.455,-3.674l-1.705,0l0,0Zm6.963,0l0,6.033l3.431,0l0,-1.328l-1.863,0l0,-1.041l1.76,0l0,-1.328l-1.76,0l0,-1.008l1.863,0l0,-1.328l-3.431,0l0,0Zm-13.271,1.209l0.297,0c0.308,0 0.549,0.063 0.713,0.191c0.164,0.128 0.248,0.311 0.248,0.551c0,0.24 -0.084,0.425 -0.248,0.553c-0.164,0.128 -0.405,0.191 -0.713,0.191l-0.297,0l0,-1.486l0,0Zm-6.289,0.119l0.359,0c0.268,0 0.509,0.043 0.721,0.127c0.212,0.084 0.391,0.206 0.539,0.354c0.149,0.148 0.262,0.327 0.342,0.535c0.08,0.208 0.119,0.433 0.119,0.674c0,0.244 -0.039,0.471 -0.115,0.675c-0.076,0.204 -0.189,0.384 -0.338,0.532c-0.148,0.148 -0.327,0.267 -0.539,0.351c-0.212,0.084 -0.457,0.129 -0.729,0.129l-0.359,0l0,-3.377l0,0Z" style="fill:#eeeeee;fill-rule:nonzero;"/>
    <g>
      <path d="M67.4,363.496l3.443,10.383c0.322,0.968 0.909,1.451 1.756,1.451c0.835,0 1.414,-0.476 1.737,-1.435l3.46,-10.398l-2.66,0l-2.574,8.318l-2.49,-8.318l-2.672,-0.001Zm10.598,0l0,8.793c0,0.736 0.078,1.265 0.234,1.588c0.423,0.881 1.214,1.32 2.373,1.32l3.243,0c1.126,0 1.912,-0.429 2.357,-1.287c0.168,-0.324 0.25,-0.87 0.25,-1.639l0,-8.775l-2.506,0l0,8.658l-0.018,0.084c-0.056,0.29 -0.34,0.436 -0.853,0.436l-1.705,0c-0.535,0 -0.826,-0.157 -0.87,-0.469l0,-8.709l-2.505,0Zm9.611,0l0,8.842c0,0.914 0.19,1.598 0.569,2.049c0.378,0.452 1.019,0.717 1.922,0.795c0.123,0.011 0.268,0.015 0.435,0.015l4.664,0l0.016,-2.523l-4.463,0c-0.424,0 -0.634,-0.178 -0.634,-0.535l0,-8.643l-2.509,0Zm7.69,0l0,2.525l2.49,0l0,9.176l2.508,0l0,-9.176l2.523,0l0,-2.525l-7.521,0Z" style="fill:rgb(102,102,102);fill-rule:nonzero;"/>
      <path d="M63.8,369.416c0,-4.509 -3.655,-8.165 -8.164,-8.165c-4.509,0 -8.165,3.656 -8.165,8.165c0,4.509 3.656,8.165 8.165,8.165c4.509,0 8.164,-3.656 8.164,-8.165Z" style="fill:rgb(117,117,117);fill-rule:nonzero;stroke:rgb(53,53,53);stroke-width:0.61px;stroke-linecap:round;stroke-miterlimit:10;"/>
      <g>
        <path d="M53.82,374.389l0.553,-0.89l-1.064,-2.393l-2.216,-2.284l0.46,3.101l0.597,1.28l0.833,1.263l0.837,-0.077Z" style="fill:rgb(43,43,43);fill-rule:nonzero;"/>
        <path d="M57.55,374.399l-0.553,-0.891l1.064,-2.393l2.216,-2.284l-0.46,3.101l-0.597,1.28l-0.833,1.264l-0.837,-0.077Z" style="fill:#202020;fill-rule:nonzero;"/>
        <path d="M53.14,363.359l2.584,-0.661l0,13.448l-1.349,-2.651l-1.061,-2.385l-1.022,-0.581l-2.052,-2.921l-0.057,-0.775l1.148,-2.067l1.809,-1.407Z" style="fill:rgb(66,66,66);fill-rule:nonzero;"/>
        <path d="M58.3,363.359l-2.584,-0.66l0,13.448l1.35,-2.651l1.06,-2.385l1.023,-0.581l2.051,-2.921l0.058,-0.775l-1.149,-2.068l-1.809,-1.407Z" style="fill:rgb(51,51,51);fill-rule:nonzero;"/>
        <path d="M54,369.239l1.723,-1.685l0,1.23l-1.723,1.718l0,-1.263" style="fill:rgb(76,76,76);fill-rule:nonzero;"/>
        <path d="M55.72,368.779l-1.723,1.718l0.377,3.004l1.346,2.643l0,-7.365Z" style="fill:rgb(91,91,91);fill-rule:nonzero;"/>
        <path d="M55.72,376.149l-1.346,-2.643l1.346,-0.635l0,3.278Z" style="fill:rgb(51,51,51);fill-rule:nonzero;"/>
        <path d="M54,370.499l0,-1.264l-1.249,-1.579l-1.477,-1.19l-0.001,0.932l0.775,1.823l1.952,1.278Z" style="fill:#eeeeee;fill-rule:nonzero;"/>
        <path d="M57.44,369.239l-1.722,-1.684l0,1.23l1.722,1.718l0,-1.264" style="fill:rgb(45,45,45);fill-rule:nonzero;"/>
        <path d="M55.72,368.779l1.722,1.718l-0.376,3.004l-1.347,2.643l0.001,-7.365Z" style="fill:rgb(53,53,53);fill-rule:nonzero;"/>
        <path d="M55.72,376.149l1.347,-2.643l-1.346,-0.635l-0.001,3.278Z" style="fill:#202020;fill-rule:nonzero;"/>
        <path d="M57.44,370.499l0,-1.264l1.249,-1.579l1.478,-1.19l0.001,0.932l-0.775,1.823l-1.953,1.278Z" style="fill:#eeeeee;fill-rule:nonzero;"/>
        <path d="M53.15,363.339l2.566,4.216l-0.005,-4.87" style="fill:rgb(56,56,56);fill-rule:nonzero;"/>
        <path d="M58.28,363.339l-2.566,4.215l0.006,-4.87" style="fill:rgb(45,45,45);fill-rule:nonzero;"/>
        <path d="M53.31,371.109l0.688,-0.61l0.375,3.006l-1.063,-2.396Z" style="fill:rgb(51,51,51);fill-rule:nonzero;"/>
        <path d="M58.13,371.129l-0.688,-0.61l-0.375,3.006l1.063,-2.396Z" style="fill:rgb(28,28,28);fill-rule:nonzero;"/>
      </g>
    </g>
    <path d="M32.15,274.66l1.648,2.353l0,2.172l1.176,0l0,-2.172l1.658,-2.353l-1.404,0l-0.834,1.236l-0.84,-1.236l-1.404,0Zm4.898,0l0,2.625c0,0.704 0.16,1.217 0.485,1.541c0.324,0.324 0.82,0.484 1.488,0.484c0.668,0 1.16,-0.16 1.484,-0.484c0.32,-0.324 0.485,-0.837 0.485,-1.541l0,-2.625l-1.174,0l0,2.461c0,0.132 -0.004,0.268 -0.016,0.404c-0.008,0.14 -0.039,0.263 -0.091,0.375c-0.052,0.112 -0.133,0.204 -0.237,0.272c-0.104,0.072 -0.255,0.109 -0.451,0.109c-0.196,0 -0.349,-0.037 -0.457,-0.109c-0.108,-0.068 -0.188,-0.16 -0.236,-0.272c-0.052,-0.112 -0.08,-0.235 -0.092,-0.375c-0.008,-0.136 -0.016,-0.272 -0.016,-0.404l0,-2.461l-1.172,0Zm3.588,11.674c-0.24,0 -0.457,0.037 -0.654,0.109c-0.192,0.072 -0.356,0.171 -0.488,0.303c-0.136,0.128 -0.239,0.285 -0.311,0.469c-0.076,0.18 -0.113,0.383 -0.113,0.607c0,0.225 0.037,0.409 0.105,0.557c0.072,0.144 0.164,0.265 0.276,0.361c0.116,0.096 0.244,0.173 0.388,0.233c0.148,0.056 0.296,0.11 0.448,0.158c0.128,0.044 0.236,0.085 0.328,0.121c0.088,0.036 0.165,0.071 0.221,0.115c0.056,0.04 0.095,0.089 0.119,0.137c0.024,0.052 0.037,0.112 0.037,0.18c0,0.112 -0.049,0.212 -0.145,0.3c-0.092,0.088 -0.236,0.131 -0.428,0.131c-0.168,0 -0.337,-0.039 -0.509,-0.115c-0.172,-0.076 -0.348,-0.192 -0.524,-0.348l-0.504,0.95c0.488,0.34 1.021,0.507 1.594,0.507c0.276,0 0.52,-0.037 0.74,-0.109c0.216,-0.076 0.399,-0.179 0.551,-0.311c0.148,-0.136 0.264,-0.297 0.34,-0.486c0.08,-0.188 0.117,-0.395 0.117,-0.627c0,-0.344 -0.089,-0.624 -0.265,-0.84c-0.18,-0.212 -0.46,-0.383 -0.844,-0.511c-0.096,-0.032 -0.191,-0.06 -0.291,-0.088c-0.096,-0.028 -0.184,-0.062 -0.264,-0.102c-0.076,-0.036 -0.141,-0.083 -0.189,-0.135c-0.048,-0.052 -0.071,-0.117 -0.071,-0.197c0,-0.116 0.047,-0.213 0.143,-0.285c0.096,-0.072 0.221,-0.107 0.373,-0.107c0.12,0 0.243,0.028 0.371,0.076c0.128,0.052 0.257,0.128 0.385,0.232l0.467,-0.92c-0.224,-0.12 -0.456,-0.207 -0.7,-0.271c-0.244,-0.06 -0.479,-0.094 -0.703,-0.094l0,0Zm-7.195,0.125l-0.77,4.525l1.174,0l0.387,-2.605l1.016,2.605l0.47,0l1.067,-2.605l0.388,2.605l1.17,0l-0.769,-4.525l-1.16,0l-0.901,2.412l-0.908,-2.412l-1.164,0Zm-0.678,11.904l1.41,2.113l-1.769,2.414l1.42,0l1.064,-1.478l0.905,1.478l1.433,0l-1.685,-2.414l1.496,-2.113l-1.451,0l-0.758,1.172l-0.611,-1.172l-1.454,0Zm4.463,4.527l1.424,0l1.06,-1.478l0.909,1.478l1.433,0l-1.685,-2.414l1.492,-2.113l-1.451,0l-0.758,1.172l-0.611,-1.172l-1.453,0l1.412,2.113l-1.772,2.414Z" style="fill:#eeeeee;fill-rule:nonzero;"/>
    <path d="M26.765,308.81c-0.368,0 -0.709,0.06 -1.014,0.184c-0.308,0.12 -0.567,0.287 -0.787,0.503c-0.22,0.216 -0.393,0.472 -0.517,0.76c-0.124,0.293 -0.188,0.606 -0.188,0.942c0,0.336 0.064,0.647 0.188,0.935c0.124,0.292 0.297,0.545 0.517,0.762c0.22,0.216 0.479,0.384 0.787,0.508c0.305,0.12 0.646,0.179 1.014,0.179c0.364,0 0.696,-0.059 1.004,-0.179c0.308,-0.124 0.576,-0.292 0.797,-0.508c0.224,-0.217 0.395,-0.47 0.519,-0.762c0.124,-0.288 0.184,-0.599 0.184,-0.935c0,-0.336 -0.06,-0.649 -0.184,-0.942c-0.124,-0.288 -0.295,-0.543 -0.519,-0.76c-0.221,-0.216 -0.489,-0.383 -0.797,-0.503c-0.308,-0.124 -0.64,-0.184 -1.004,-0.184Zm-7.947,0.123l-0.77,4.525l1.174,0l0.387,-2.603l1.015,2.603l0.469,0l1.068,-2.603l0.389,2.603l1.17,0l-0.77,-4.525l-1.16,0l-0.9,2.412l-0.908,-2.412l-1.164,0Zm11.195,0l0,4.525l1.742,0c0.312,0 0.603,-0.059 0.871,-0.183c0.272,-0.124 0.508,-0.292 0.709,-0.5c0.204,-0.209 0.361,-0.449 0.477,-0.725c0.112,-0.272 0.167,-0.555 0.167,-0.851c0,-0.3 -0.055,-0.59 -0.171,-0.862c-0.116,-0.277 -0.277,-0.516 -0.477,-0.72c-0.205,-0.208 -0.441,-0.372 -0.709,-0.496c-0.272,-0.124 -0.559,-0.188 -0.867,-0.188l-1.742,0Zm4.718,0l0,4.525l2.573,0l0,-0.996l-1.397,0l0,-0.779l1.317,0l0,-0.996l-1.317,0l0,-0.758l1.397,0l0,-0.996l-2.573,0Zm3.418,0l0,4.525l2.588,0l0,-0.996l-1.412,0l0,-3.529l-1.176,0Zm-6.959,0.996l0.272,0c0.2,0 0.381,0.032 0.541,0.096c0.16,0.064 0.29,0.152 0.402,0.265c0.108,0.112 0.192,0.249 0.252,0.405c0.06,0.156 0.092,0.324 0.092,0.504c0,0.184 -0.028,0.352 -0.088,0.504c-0.056,0.156 -0.14,0.288 -0.252,0.4c-0.108,0.112 -0.242,0.2 -0.402,0.264c-0.16,0.064 -0.341,0.095 -0.545,0.095l-0.271,0l0,-2.533Zm-4.426,0.02c0.172,0 0.332,0.031 0.488,0.091c0.152,0.064 0.286,0.148 0.406,0.26c0.116,0.113 0.21,0.247 0.278,0.399c0.068,0.152 0.103,0.32 0.103,0.5c0,0.18 -0.035,0.344 -0.103,0.496c-0.068,0.152 -0.162,0.282 -0.278,0.394c-0.12,0.112 -0.254,0.202 -0.406,0.262c-0.156,0.064 -0.316,0.096 -0.488,0.096c-0.172,0 -0.336,-0.032 -0.492,-0.096c-0.152,-0.06 -0.29,-0.15 -0.407,-0.262c-0.116,-0.112 -0.207,-0.242 -0.275,-0.394c-0.068,-0.152 -0.1,-0.316 -0.1,-0.496c0,-0.18 0.032,-0.348 0.1,-0.5c0.068,-0.152 0.159,-0.286 0.275,-0.399c0.117,-0.112 0.255,-0.196 0.407,-0.26c0.156,-0.06 0.32,-0.091 0.492,-0.091Z" style="fill:#eeeeee;fill-rule:nonzero;"/>
    <path d="M70.934,352.61l0,6.035l2.522,0c0.319,0 0.607,-0.037 0.863,-0.113c0.256,-0.076 0.473,-0.188 0.654,-0.336c0.18,-0.148 0.316,-0.333 0.416,-0.553c0.1,-0.22 0.147,-0.468 0.147,-0.752c0,-0.18 -0.019,-0.351 -0.063,-0.511c-0.044,-0.16 -0.113,-0.304 -0.213,-0.432c-0.1,-0.128 -0.228,-0.236 -0.385,-0.324c-0.156,-0.088 -0.348,-0.154 -0.572,-0.198c0.224,-0.14 0.392,-0.307 0.5,-0.507c0.109,-0.2 0.166,-0.452 0.166,-0.756c0,-0.5 -0.145,-0.884 -0.433,-1.153c-0.288,-0.268 -0.708,-0.4 -1.264,-0.4l-2.338,0Zm5.539,0l0,6.035l1.569,0l-0.001,-2.002l0.928,0c0.676,0 1.197,-0.175 1.557,-0.527c0.36,-0.352 0.541,-0.848 0.541,-1.488c0,-0.64 -0.181,-1.137 -0.541,-1.489c-0.36,-0.353 -0.881,-0.529 -1.557,-0.529l-2.496,0Zm-3.969,1.201l0.287,0c0.492,0 0.737,0.196 0.737,0.584c0,0.388 -0.245,0.584 -0.737,0.584l-0.287,0l0,-1.168Zm5.537,0.065l0.52,0c0.576,0 0.865,0.252 0.865,0.752c0,0.5 -0.289,0.752 -0.865,0.752l-0.52,0l0,-1.504Zm-5.537,2.271l0.344,0c0.396,0 0.676,0.052 0.848,0.153c0.172,0.1 0.256,0.264 0.256,0.488c0,0.224 -0.084,0.388 -0.256,0.488c-0.172,0.1 -0.452,0.152 -0.848,0.152l-0.344,0l0,-1.281Z" style="fill:#eeeeee;fill-rule:nonzero;"/>
    <path d="M35.314,352.61l0,6.035l3.449,0l0,-1.33l-1.881,0l0,-4.705l-1.568,0Zm4.258,0l0,6.035l1.568,0l0,-2.002l0.928,0c0.676,0 1.197,-0.175 1.557,-0.527c0.36,-0.352 0.539,-0.848 0.539,-1.488c0,-0.64 -0.179,-1.137 -0.539,-1.489c-0.36,-0.353 -0.881,-0.529 -1.557,-0.529l-2.496,0Zm1.568,1.266l0.52,0c0.577,0 0.865,0.252 0.865,0.752c0,0.5 -0.288,0.751 -0.865,0.751l-0.52,0l0,-1.503Z" style="fill:#eeeeee;fill-rule:nonzero;"/>
    <path d="M104.63,352.61l0,6.035l1.568,0l0,-2.49l2.266,0l0,2.49l1.568,0l0,-6.035l-1.568,0l0,2.328l-2.266,0l0,-2.328l-1.568,0Zm6.666,0l0,6.035l1.57,0l0,-2.002l0.928,0c0.676,0 1.197,-0.175 1.557,-0.527c0.36,-0.352 0.541,-0.848 0.541,-1.488c0,-0.64 -0.181,-1.137 -0.541,-1.489c-0.36,-0.353 -0.881,-0.529 -1.557,-0.529l-2.498,0Zm1.57,1.266l0.52,0c0.576,0 0.863,0.252 0.863,0.752c0,0.5 -0.287,0.751 -0.863,0.751l-0.52,0l0,-1.503Z" style="fill:#eeeeee;fill-rule:nonzero;"/>
    <path d="M37.551,321.77c-7.26,0 -13.168,4.481 -13.168,9.988l0,13.145c0,0.801 1.584,0.801 1.584,0l0,-13.145c0,-4.857 5.181,-8.789 11.584,-8.789l75.387,0c6.403,0 11.587,3.932 11.587,8.789l0,13.145c0,0.843 1.624,0.831 1.581,0l0,-13.145c0,-5.506 -5.908,-9.988 -13.168,-9.988l-75.387,0Z" style="fill:#eeeeee;"/>
    <g>
      <rect x="18" y="272" width="11.668" height="35.559"/>
      <path d="M18.711,306.831l-0.697,0.728l11.668,0l-0.721,-0.728l-10.25,0Z" style="fill:rgb(173,173,173);"/>
      <path d="M18,272l0,35.559l0.715,-0.746l0.014,-34.036l-0.729,-0.777Z" style="fill:rgb(90,90,90);"/>
      <path d="M29.668,272l-0.715,0.738l-0.014,34.085l0.729,0.737l0,-35.56Z" style="fill:rgb(90,90,90);"/>
      <path d="M18,272l0.684,0.729l10.279,0l0.705,-0.729l-11.668,0Z" style="fill:#202020;"/>
    </g>
  </g>
</svg>