<svg width="120px" height="380px" version="1.1" xmlns="http://www.w3.org/2000/svg" xmlns:xlink="http://www.w3.org/1999/xlink" xml:space="preserve" xmlns:serif="http://www.serif.com/" style="fill-rule:evenodd;clip-rule:evenodd;">
  <defs>
    <linearGradient id="_Linear1" x1="0" y1="0" x2="1" y2="0" gradientUnits="userSpaceOnUse" gradientTransform="matrix(0.007008,-37.8989,37.8989,0.007008,60.2864,112.197)">
      <stop offset="0" style="stop-color:#202020;stop-opacity:1"/>
      <stop offset="1" style="stop-color:#202020;stop-opacity:1"/>
    </linearGradient>
    <linearGradient id="_Linear2" x1="0" y1="0" x2="1" y2="0" gradientUnits="userSpaceOnUse" gradientTransform="matrix(-4.88,-92.58,92.58,-4.88,262.55,345.922)">
      <stop offset="0" style="stop-color:#202020;stop-opacity:1"/>
      <stop offset="1" style="stop-color:#202020;stop-opacity:1"/>
    </linearGradient>
    <linearGradient id="_Linear3" x1="0" y1="0" x2="1" y2="0" gradientUnits="userSpaceOnUse" gradientTransform="matrix(-4.75,94.86,-94.86,-4.75,262.55,158.472)">
      <stop offset="0" style="stop-color:#202020;stop-opacity:1"/>
      <stop offset="1" style="stop-color:#202020;stop-opacity:1"/>
    </linearGradient>
    <linearGradient id="_Linear4" x1="0" y1="0" x2="1" y2="0" gradientUnits="userSpaceOnUse" gradientTransform="matrix(1.15392e-16,-1.8845,1.8845,1.15392e-16,41.519,1.9395)">
      <stop offset="0" style="stop-color:#202020;stop-opacity:1"/>
      <stop offset="1" style="stop-color:#202020;stop-opacity:1"/>
    </linearGradient>
  </defs>
  <g id="Panel">
    <rect x="0" y="0.002" width="120" height="380" style="fill:url(#_Linear1);"/>
    <rect x="0" y="253.332" width="120" height="126.66" style="fill:url(#_Linear2);"/>
    <rect x="0" y="126.672" width="120" height="126.67" style="fill:url(#_Linear3);"/>
    <rect x="0" y="0.003" width="120" height="2" style="fill:url(#_Linear4);"/>
    <rect x="0" y="0" width="120" height="380" style="fill:rgb(16,53,80);fill-opacity:0.1;"/>
    <path d="M102.1,130.96c-0.332,0.006 -0.596,0.28 -0.59,0.611l0,1.409c-2.52,0.129 -5.006,1.042 -7.047,2.755c-4.419,3.708 -5.55,10.112 -2.668,15.105l0.301,0.52l10.035,-5.793l10.035,5.793l0.301,-0.52c2.882,-4.993 1.752,-11.398 -2.668,-15.105c-2.052,-1.722 -4.555,-2.636 -7.09,-2.757l0,-1.411c0,-0.338 -0.271,-0.612 -0.609,-0.607l0,0Zm-0.586,3.219l0.019,10.35l-8.902,5.14c-2.21,-4.402 -1.209,-9.813 2.605,-13.014c1.819,-1.527 4.032,-2.348 6.278,-2.476l0,0Zm1.199,0c2.26,0.121 4.488,0.94 6.317,2.476c3.815,3.201 4.813,8.612 2.603,13.014l-8.902,-5.14l-0.018,-10.35Zm7.933,17.562l0.01,1.582l-1.606,0.008c-0.831,-0.028 -0.825,1.235 0.01,1.199l1.606,-0.008l0.01,1.629c-0.026,0.831 1.236,0.822 1.199,-0.008l-0.01,-1.625l1.603,-0.008c0.801,-0.004 0.795,-1.205 -0.01,-1.201l-1.605,0.008l-0.01,-1.584c0,-0.771 -1.197,-0.756 -1.197,0.008l0,0Zm-15.172,1.445l-4.415,0.02c-0.8,0.004 -0.794,1.205 0.01,1.201l4.415,-0.022c0.83,0.028 0.824,-1.235 -0.01,-1.199Z" style="fill:#eeeeee;fill-rule:nonzero;"/>
    <path d="M73.997,130.941c-0.332,0.006 -0.597,0.28 -0.59,0.612l0,1.408c-2.521,0.13 -5.007,1.042 -7.047,2.756c-4.419,3.707 -5.55,10.112 -2.668,15.105l0.301,0.519l10.035,-5.793l10.035,5.793l0.3,-0.519c2.882,-4.993 1.753,-11.398 -2.668,-15.105c-2.051,-1.723 -4.554,-2.636 -7.089,-2.758l0,-1.41c0,-0.338 -0.272,-0.613 -0.61,-0.608l0.001,0Zm-0.586,3.219l0.019,10.35l-8.903,5.141c-2.209,-4.402 -1.209,-9.814 2.606,-13.014c1.819,-1.528 4.031,-2.348 6.277,-2.477l0.001,0Zm1.199,0c2.259,0.121 4.487,0.941 6.316,2.477c3.816,3.2 4.813,8.611 2.604,13.014l-8.903,-5.141l-0.017,-10.35Zm7.932,17.562l0.01,1.582l-1.605,0.008c-0.831,-0.028 -0.825,1.236 0.01,1.199l1.605,-0.008l0.01,1.629c-0.026,0.831 1.237,0.823 1.199,-0.008l-0.01,-1.625l1.604,-0.008c0.801,-0.004 0.795,-1.205 -0.01,-1.201l-1.606,0.008l-0.01,-1.584c0,-0.771 -1.197,-0.755 -1.197,0.008l0,0Zm-15.172,1.446l-4.414,0.019c-0.801,0.004 -0.795,1.205 0.01,1.201l4.414,-0.021c0.831,0.028 0.825,-1.236 -0.01,-1.199Z" style="fill:#eeeeee;fill-rule:nonzero;"/>
    <path d="M44.717,130.96c-0.332,0.006 -0.596,0.28 -0.59,0.611l0,1.409c-2.52,0.129 -5.006,1.042 -7.046,2.755c-4.42,3.708 -5.55,10.112 -2.668,15.105l0.3,0.52l10.035,-5.793l10.035,5.793l0.301,-0.52c2.882,-4.993 1.752,-11.398 -2.668,-15.105c-2.051,-1.722 -4.555,-2.636 -7.09,-2.757l0,-1.411c0,-0.338 -0.271,-0.612 -0.609,-0.607l0,0Zm-0.586,3.219l0.019,10.35l-8.902,5.14c-2.21,-4.402 -1.209,-9.813 2.605,-13.014c1.819,-1.527 4.032,-2.348 6.278,-2.476l0,0Zm1.2,0c2.259,0.121 4.487,0.94 6.316,2.476c3.816,3.201 4.813,8.612 2.603,13.014l-8.902,-5.14l-0.017,-10.35Zm7.932,17.562l0.01,1.582l-1.606,0.008c-0.831,-0.028 -0.824,1.235 0.01,1.199l1.606,-0.008l0.01,1.629c-0.026,0.831 1.236,0.822 1.199,-0.008l-0.01,-1.625l1.604,-0.008c0.8,-0.004 0.794,-1.205 -0.01,-1.201l-1.606,0.008l-0.01,-1.584c0,-0.771 -1.197,-0.756 -1.197,0.008l0,0Zm-15.172,1.445l-4.414,0.02c-0.801,0.004 -0.795,1.205 0.01,1.201l4.414,-0.022c0.831,0.028 0.824,-1.235 -0.01,-1.199Z" style="fill:#eeeeee;fill-rule:nonzero;"/>
    <path d="M16.966,130.96c-0.332,0.006 -0.597,0.28 -0.59,0.611l0,1.409c-2.521,0.129 -5.007,1.042 -7.047,2.755c-4.419,3.708 -5.55,10.112 -2.668,15.105l0.301,0.52l10.035,-5.793l10.035,5.793l0.3,-0.52c2.882,-4.993 1.753,-11.398 -2.668,-15.105c-2.051,-1.722 -4.554,-2.636 -7.089,-2.757l0,-1.411c0,-0.338 -0.272,-0.612 -0.61,-0.607l0.001,0Zm-0.586,3.219l0.019,10.35l-8.903,5.14c-2.209,-4.402 -1.209,-9.813 2.606,-13.014c1.819,-1.527 4.031,-2.348 6.277,-2.476l0.001,0Zm1.199,0c2.259,0.121 4.487,0.94 6.316,2.476c3.816,3.201 4.813,8.612 2.604,13.014l-8.903,-5.14l-0.017,-10.35Zm7.932,17.562l0.01,1.582l-1.605,0.008c-0.831,-0.028 -0.825,1.235 0.01,1.199l1.605,-0.008l0.01,1.629c-0.026,0.831 1.237,0.822 1.199,-0.008l-0.01,-1.625l1.604,-0.008c0.801,-0.004 0.795,-1.205 -0.01,-1.201l-1.606,0.008l-0.01,-1.584c0,-0.771 -1.197,-0.756 -1.197,0.008l0,0Zm-15.172,1.445l-4.414,0.02c-0.801,0.004 -0.795,1.205 0.01,1.201l4.414,-0.022c0.831,0.028 0.825,-1.235 -0.01,-1.199Z" style="fill:#eeeeee;fill-rule:nonzero;"/>
    <path d="M62.037,22.691c-0.771,0 -1.478,0.127 -2.119,0.383c-0.642,0.256 -1.194,0.611 -1.654,1.064c-0.463,0.453 -0.821,0.985 -1.082,1.592c-0.26,0.609 -0.391,1.262 -0.391,1.967c0,0.705 0.131,1.361 0.391,1.969c0.261,0.608 0.619,1.139 1.082,1.592c0.46,0.452 1.012,0.808 1.654,1.064c0.641,0.256 1.348,0.383 2.119,0.383c0.763,0 1.467,-0.127 2.113,-0.383c0.646,-0.256 1.201,-0.612 1.666,-1.064c0.466,-0.453 0.828,-0.984 1.088,-1.592c0.261,-0.608 0.391,-1.264 0.391,-1.969c0,-0.705 -0.13,-1.358 -0.391,-1.967c-0.26,-0.607 -0.622,-1.139 -1.088,-1.592c-0.465,-0.453 -1.02,-0.808 -1.666,-1.064c-0.646,-0.256 -1.35,-0.383 -2.113,-0.383Zm18.77,0c-0.503,0 -0.958,0.076 -1.365,0.227c-0.406,0.151 -0.75,0.363 -1.031,0.634c-0.281,0.273 -0.5,0.6 -0.655,0.983c-0.156,0.381 -0.232,0.807 -0.232,1.277c0,0.469 0.072,0.856 0.219,1.162c0.146,0.306 0.34,0.559 0.58,0.762c0.238,0.201 0.512,0.363 0.818,0.484c0.305,0.123 0.617,0.233 0.936,0.334c0.269,0.092 0.496,0.176 0.685,0.25c0.189,0.076 0.344,0.157 0.461,0.246c0.117,0.088 0.201,0.184 0.252,0.289c0.049,0.106 0.074,0.229 0.074,0.371c0,0.236 -0.099,0.444 -0.297,0.629c-0.197,0.184 -0.496,0.278 -0.898,0.278c-0.352,0 -0.709,-0.079 -1.07,-0.239c-0.361,-0.159 -0.724,-0.402 -1.094,-0.73l-1.057,1.988c1.023,0.713 2.136,1.069 3.334,1.069c0.578,0 1.096,-0.078 1.553,-0.233c0.458,-0.156 0.844,-0.373 1.158,-0.654c0.314,-0.28 0.553,-0.619 0.717,-1.014c0.164,-0.394 0.246,-0.833 0.246,-1.32c0,-0.721 -0.188,-1.305 -0.561,-1.754c-0.374,-0.449 -0.963,-0.807 -1.767,-1.076c-0.203,-0.067 -0.404,-0.129 -0.609,-0.188c-0.207,-0.058 -0.391,-0.129 -0.555,-0.209c-0.164,-0.08 -0.295,-0.174 -0.397,-0.283c-0.1,-0.109 -0.15,-0.246 -0.15,-0.414c0,-0.244 0.102,-0.441 0.303,-0.592c0.201,-0.152 0.461,-0.226 0.779,-0.226c0.252,0 0.51,0.053 0.779,0.158c0.268,0.104 0.537,0.265 0.805,0.482l0.982,-1.923c-0.47,-0.252 -0.961,-0.444 -1.472,-0.573c-0.512,-0.13 -1.001,-0.195 -1.471,-0.195l0,0Zm-45.125,0.266l0,9.484l2.467,0l0,-4.113l3.207,4.113l3.195,0l-4.113,-4.994l3.762,-4.49l-3.045,0l-3.006,3.912l0,-3.912l-2.467,0l0,0Zm9.965,0l0,9.484l2.465,0l0,-5.799l4.554,5.799l2.453,0l0,-9.484l-2.453,0l0,5.798l-4.554,-5.798l-2.465,0Zm23.209,0l0,9.484l3.963,0c0.503,0 0.956,-0.059 1.359,-0.176c0.402,-0.117 0.743,-0.295 1.024,-0.529c0.281,-0.234 0.499,-0.522 0.654,-0.867c0.156,-0.344 0.232,-0.738 0.232,-1.182c0,-0.286 -0.033,-0.555 -0.099,-0.806c-0.068,-0.252 -0.179,-0.479 -0.334,-0.68c-0.155,-0.201 -0.356,-0.371 -0.604,-0.508c-0.248,-0.139 -0.547,-0.241 -0.898,-0.309c0.351,-0.218 0.613,-0.485 0.785,-0.8c0.172,-0.315 0.26,-0.71 0.26,-1.188c0,-0.788 -0.227,-1.391 -0.68,-1.81c-0.453,-0.42 -1.116,-0.629 -1.988,-0.629l-3.674,0l0,0Zm2.467,1.884l0.453,0c0.771,0 1.156,0.308 1.156,0.92c0,0.612 -0.385,0.918 -1.156,0.918l-0.453,0l0,-1.838l0,0Zm-9.286,0.241c0.361,0 0.703,0.066 1.026,0.195c0.322,0.13 0.608,0.312 0.855,0.547c0.248,0.234 0.442,0.512 0.584,0.83c0.143,0.32 0.215,0.666 0.215,1.043c0,0.378 -0.072,0.727 -0.215,1.045c-0.142,0.318 -0.336,0.596 -0.584,0.832c-0.247,0.234 -0.533,0.416 -0.855,0.545c-0.323,0.13 -0.665,0.197 -1.026,0.197c-0.361,0 -0.701,-0.067 -1.025,-0.197c-0.322,-0.129 -0.606,-0.311 -0.85,-0.545c-0.243,-0.236 -0.435,-0.514 -0.578,-0.832c-0.142,-0.319 -0.213,-0.667 -0.213,-1.045c0,-0.377 0.071,-0.723 0.213,-1.043c0.143,-0.318 0.335,-0.596 0.578,-0.83c0.244,-0.235 0.528,-0.417 0.85,-0.547c0.324,-0.129 0.664,-0.195 1.025,-0.195Zm9.286,3.433l0.541,0c0.62,0 1.063,0.081 1.332,0.24c0.267,0.159 0.402,0.415 0.402,0.768c0,0.352 -0.135,0.608 -0.402,0.768c-0.269,0.159 -0.712,0.238 -1.332,0.238l-0.541,0l0,-2.014l0,0Z" style="fill:#eeeeee;fill-rule:nonzero;"/>
    <path d="M99.105,80.104l0,2.625c0,0.704 0.164,1.217 0.488,1.541c0.324,0.324 0.82,0.484 1.489,0.484c0.668,0 1.16,-0.16 1.484,-0.484c0.32,-0.324 0.484,-0.837 0.484,-1.541l0,-2.625l-1.173,0l0,2.461c0,0.132 -0.004,0.268 -0.016,0.404c-0.008,0.14 -0.04,0.265 -0.092,0.377c-0.052,0.112 -0.132,0.204 -0.236,0.272c-0.108,0.072 -0.255,0.107 -0.451,0.107c-0.196,0 -0.349,-0.035 -0.457,-0.107c-0.108,-0.068 -0.189,-0.16 -0.237,-0.272c-0.052,-0.112 -0.08,-0.237 -0.092,-0.377c-0.008,-0.136 -0.015,-0.272 -0.015,-0.404l0,-2.461l-1.176,0l0,0Zm4.889,0l0,4.525l1.177,0l0,-2.763l2.172,2.763l1.168,0l0,-4.525l-1.168,0l0,2.769l-2.172,-2.769l-1.177,0Zm5.467,0l0,4.525l1.175,0l0,-4.525l-1.175,0Zm-10.355,11.512l0,4.525l1.892,0c0.24,0 0.456,-0.028 0.649,-0.084c0.192,-0.056 0.352,-0.139 0.488,-0.252c0.132,-0.112 0.234,-0.248 0.31,-0.412c0.072,-0.164 0.114,-0.352 0.114,-0.564c0,-0.136 -0.017,-0.265 -0.049,-0.385c-0.032,-0.12 -0.088,-0.228 -0.16,-0.324c-0.076,-0.096 -0.171,-0.18 -0.287,-0.244c-0.12,-0.068 -0.262,-0.115 -0.43,-0.147c0.168,-0.104 0.293,-0.229 0.373,-0.381c0.084,-0.148 0.125,-0.34 0.125,-0.568c0,-0.376 -0.108,-0.663 -0.324,-0.863c-0.216,-0.2 -0.533,-0.301 -0.95,-0.301l-1.752,0l0.001,0Zm4.152,0l0,4.525l1.178,0l0,-4.525l-1.178,0Zm2.125,0l0,4.525l1.178,0l0,-1.5l0.695,0c0.508,0 0.896,-0.132 1.164,-0.396c0.272,-0.264 0.404,-0.637 0.404,-1.117c0,-0.48 -0.132,-0.851 -0.404,-1.115c-0.268,-0.265 -0.656,-0.397 -1.164,-0.397l-1.873,0l0,0Zm-5.102,0.9l0.217,0c0.368,0 0.551,0.148 0.551,0.44c0,0.292 -0.183,0.437 -0.551,0.437l-0.217,0l0,-0.877Zm6.28,0.047l0.386,0c0.432,0 0.649,0.189 0.649,0.565c0,0.376 -0.217,0.564 -0.649,0.564l-0.386,0l0,-1.129Zm-6.28,1.705l0.26,0c0.296,0 0.509,0.042 0.637,0.118c0.128,0.076 0.191,0.195 0.191,0.363c0,0.168 -0.063,0.293 -0.191,0.369c-0.128,0.076 -0.341,0.111 -0.637,0.111l-0.26,0l0,-0.961Zm-0.613,9.348l-0.768,4.525l1.172,0l0.389,-2.605l1.018,2.605l0.466,0l1.069,-2.605l0.388,2.605l1.168,0l-0.767,-4.525l-1.16,0l-0.901,2.412l-0.908,-2.412l-1.166,0l0,0Zm5.646,0l0,4.525l1.178,0l0,-4.525l-1.178,0Zm2.014,0l1.408,2.113l-1.767,2.412l1.42,0l1.06,-1.476l0.908,1.476l1.432,0l-1.684,-2.412l1.493,-2.113l-1.453,0l-0.756,1.172l-0.612,-1.172l-1.449,0l0,0Z" style="fill:#eeeeee;fill-rule:nonzero;"/>
    <path d="M96.309,39.317c-5.359,0 -9.723,4.362 -9.723,9.721l0,8.147c0,5.36 4.364,9.723 9.723,9.723l9.826,0c5.36,0 9.723,-4.363 9.723,-9.723l0,-8.147c0,-5.359 -4.363,-9.721 -9.722,-9.721l-9.827,0Z" style="fill:none;stroke:#eeeeee;stroke-width:1.2px;"/>
    <path d="M68.64,60.006c3.86,-5.61 9.578,-9.986 15.581,-11.04" style="fill:none;stroke:rgb(80,80,80);stroke-width:1.2px;stroke-linecap:round;stroke-miterlimit:10;"/>
    <path d="M43.957,50.252c-0.326,0.004 -0.592,0.274 -0.592,0.6c0,0.003 0,0.006 0,0.009l0,1.696c-7.84,0.056 -15.662,2.739 -22.004,8.058c-12.82,10.758 -16.094,29.346 -7.728,43.84c0.104,0.194 0.307,0.314 0.527,0.314c0.329,0 0.6,-0.27 0.6,-0.6c0,-0.11 -0.03,-0.219 -0.088,-0.313c-8.076,-13.992 -4.917,-31.937 7.459,-42.322c6.119,-5.133 13.669,-7.723 21.234,-7.78l0,1.817c0,0.329 0.271,0.6 0.6,0.6c0.33,0 0.601,-0.271 0.601,-0.6l0,-1.801c7.332,0.205 14.609,2.788 20.541,7.764c12.375,10.385 15.537,28.33 7.461,42.322c-0.058,0.094 -0.089,0.203 -0.089,0.313c0,0.33 0.271,0.6 0.6,0.6c0.22,0 0.423,-0.12 0.528,-0.314c8.366,-14.494 5.091,-33.082 -7.729,-43.84c-6.154,-5.162 -13.706,-7.839 -21.312,-8.045l0,-1.709c0,-0.003 0,-0.006 0,-0.009c0,-0.329 -0.27,-0.6 -0.6,-0.6c-0.003,0 -0.006,0 -0.009,0Zm-29.707,58.379c-2.371,0 -4.305,1.934 -4.305,4.305c0,2.37 1.934,4.306 4.305,4.306c2.371,0 4.305,-1.936 4.305,-4.306c0,-2.371 -1.934,-4.305 -4.305,-4.305Zm58.736,0.002c-2.371,0 -4.305,1.934 -4.305,4.305c0,2.371 1.934,4.302 4.305,4.302c2.371,0 4.307,-1.932 4.307,-4.302c0,-2.371 -1.936,-4.305 -4.307,-4.305Zm-58.736,1.197c1.722,0 3.105,1.384 3.105,3.106c0,1.722 -1.383,3.107 -3.105,3.107c-1.722,0 -3.106,-1.385 -3.106,-3.107c0,-1.722 1.384,-3.106 3.106,-3.106Z" style="fill:#eeeeee;"/>
    <path d="M7.814,191.47l104.36,0" style="fill:none;stroke:#eeeeee;stroke-width:1.2px;stroke-linecap:round;"/>
    <path d="M99.105,241.17l0,2.625c0,0.704 0.164,1.217 0.488,1.541c0.324,0.324 0.82,0.484 1.489,0.484c0.668,0 1.16,-0.16 1.484,-0.484c0.32,-0.324 0.484,-0.837 0.484,-1.541l0,-2.625l-1.173,0l0,2.461c0,0.132 -0.004,0.268 -0.016,0.404c-0.008,0.14 -0.04,0.265 -0.092,0.377c-0.052,0.112 -0.132,0.204 -0.236,0.272c-0.108,0.072 -0.255,0.107 -0.451,0.107c-0.196,0 -0.349,-0.035 -0.457,-0.107c-0.108,-0.068 -0.189,-0.16 -0.237,-0.272c-0.052,-0.112 -0.08,-0.237 -0.092,-0.377c-0.008,-0.136 -0.015,-0.272 -0.015,-0.404l0,-2.461l-1.176,0Zm4.889,0l0,4.525l1.177,0l0,-2.763l2.172,2.763l1.168,0l0,-4.525l-1.168,0l0,2.769l-2.172,-2.769l-1.177,0Zm5.467,0l0,4.525l1.175,0l0,-4.525l-1.175,0Zm-10.355,11.512l0,4.525l1.892,0c0.24,0 0.456,-0.028 0.649,-0.084c0.192,-0.056 0.352,-0.14 0.488,-0.252c0.132,-0.112 0.234,-0.248 0.31,-0.412c0.072,-0.164 0.114,-0.352 0.114,-0.564c0,-0.136 -0.017,-0.265 -0.049,-0.385c-0.032,-0.12 -0.088,-0.228 -0.16,-0.324c-0.076,-0.096 -0.171,-0.18 -0.287,-0.244c-0.12,-0.068 -0.262,-0.115 -0.43,-0.147c0.168,-0.104 0.293,-0.229 0.373,-0.381c0.084,-0.148 0.125,-0.34 0.125,-0.568c0,-0.376 -0.108,-0.663 -0.324,-0.863c-0.216,-0.2 -0.533,-0.301 -0.95,-0.301l-1.751,0Zm4.152,0l0,4.525l1.178,0l0,-4.525l-1.178,0Zm2.125,0l0,4.525l1.178,0l0,-1.5l0.695,0c0.508,0 0.896,-0.132 1.164,-0.396c0.272,-0.264 0.404,-0.637 0.404,-1.117c0,-0.48 -0.132,-0.851 -0.404,-1.115c-0.268,-0.265 -0.656,-0.397 -1.164,-0.397l-1.873,0Zm-5.102,0.9l0.217,0c0.368,0 0.551,0.148 0.551,0.44c0,0.292 -0.183,0.437 -0.551,0.437l-0.217,0l0,-0.877Zm6.28,0.047l0.386,0c0.432,0 0.649,0.189 0.649,0.565c0,0.376 -0.217,0.564 -0.649,0.564l-0.386,0l0,-1.129Zm-6.28,1.705l0.26,0c0.296,0 0.509,0.042 0.637,0.118c0.128,0.076 0.191,0.195 0.191,0.363c0,0.168 -0.063,0.293 -0.191,0.369c-0.128,0.076 -0.341,0.111 -0.637,0.111l-0.26,0l0,-0.961Zm-0.613,9.348l-0.768,4.525l1.172,0l0.389,-2.605l1.018,2.605l0.466,0l1.069,-2.605l0.388,2.605l1.168,0l-0.767,-4.525l-1.16,0l-0.901,2.412l-0.908,-2.412l-1.166,0Zm5.646,0l0,4.525l1.178,0l0,-4.525l-1.178,0Zm2.014,0l1.408,2.113l-1.767,2.412l1.42,0l1.06,-1.476l0.908,1.476l1.432,0l-1.684,-2.412l1.493,-2.113l-1.453,0l-0.756,1.172l-0.612,-1.172l-1.449,0Z" style="fill:#eeeeee;fill-rule:nonzero;"/>
    <path d="M33.172,287.945l-2.007,0l-2.565,-2.907l0,2.907l-1.692,0l0,-6.408l1.692,0l0,2.754l2.493,-2.754l1.98,0l-2.835,3.042l2.934,3.366Z" style="fill:#eeeeee;fill-rule:nonzero;"/>
    <path d="M37.402,281.537l1.593,0l0,6.408l-1.251,0l-2.907,-3.636l0,3.636l-1.575,0l0,-6.408l1.233,0l2.907,3.618l0,-3.618Z" style="fill:#eeeeee;fill-rule:nonzero;"/>
    <path d="M43.207,288.026c-0.654,0 -1.224,-0.133 -1.71,-0.4c-0.486,-0.267 -0.86,-0.65 -1.121,-1.148c-0.261,-0.498 -0.391,-1.08 -0.391,-1.746c0,-0.666 0.132,-1.245 0.396,-1.737c0.264,-0.492 0.637,-0.871 1.12,-1.138c0.483,-0.267 1.052,-0.401 1.706,-0.401c0.654,0 1.222,0.134 1.705,0.401c0.483,0.267 0.854,0.646 1.112,1.138c0.258,0.492 0.387,1.071 0.387,1.737c0,0.666 -0.129,1.248 -0.387,1.746c-0.258,0.498 -0.629,0.881 -1.112,1.148c-0.483,0.267 -1.051,0.4 -1.705,0.4Zm0,-1.287c0.48,0 0.856,-0.171 1.129,-0.513c0.273,-0.342 0.41,-0.84 0.41,-1.494c0,-0.648 -0.137,-1.141 -0.41,-1.48c-0.273,-0.339 -0.649,-0.509 -1.129,-0.509c-0.48,0 -0.855,0.168 -1.125,0.504c-0.27,0.336 -0.405,0.831 -0.405,1.485c0,0.66 0.135,1.16 0.405,1.499c0.27,0.339 0.645,0.508 1.125,0.508Z" style="fill:#eeeeee;fill-rule:nonzero;"/>
    <path d="M51.712,284.624c0.378,0.108 0.669,0.299 0.873,0.572c0.204,0.273 0.306,0.604 0.306,0.994c0,0.354 -0.093,0.663 -0.279,0.927c-0.186,0.264 -0.452,0.468 -0.797,0.612c-0.345,0.144 -0.751,0.216 -1.219,0.216l-3.195,0l0,-6.408l3.114,0c0.672,0 1.206,0.15 1.602,0.45c0.396,0.3 0.594,0.705 0.594,1.215c0,0.33 -0.087,0.621 -0.261,0.873c-0.174,0.252 -0.42,0.435 -0.738,0.549Zm-2.664,-0.576l1.179,0c0.312,0 0.54,-0.048 0.684,-0.144c0.144,-0.096 0.216,-0.249 0.216,-0.459c0,-0.216 -0.074,-0.375 -0.221,-0.477c-0.147,-0.102 -0.373,-0.153 -0.679,-0.153l-1.179,0l0,1.233Zm1.35,2.619c0.324,0 0.556,-0.051 0.697,-0.153c0.141,-0.102 0.212,-0.273 0.212,-0.513c0,-0.246 -0.069,-0.42 -0.207,-0.522c-0.138,-0.102 -0.372,-0.153 -0.702,-0.153l-1.35,0l0,1.341l1.35,0Z" style="fill:#eeeeee;fill-rule:nonzero;"/>
    <path d="M60.784,286.604l0,1.341l-4.518,0l0,-1.242l2.088,-2.178c0.39,-0.408 0.585,-0.789 0.585,-1.143c0,-0.414 -0.246,-0.621 -0.738,-0.621c-0.252,0 -0.518,0.05 -0.797,0.149c-0.279,0.099 -0.559,0.241 -0.841,0.427l-0.531,-1.197c0.258,-0.21 0.592,-0.376 1.003,-0.499c0.411,-0.123 0.83,-0.185 1.256,-0.185c0.462,0 0.865,0.074 1.21,0.221c0.345,0.147 0.612,0.357 0.801,0.63c0.189,0.273 0.284,0.592 0.284,0.958c0,0.372 -0.074,0.71 -0.221,1.013c-0.147,0.303 -0.397,0.643 -0.751,1.021l-1.278,1.305l2.448,0Z" style="fill:#eeeeee;fill-rule:nonzero;"/>
    <path d="M33.176,126.945l-2.007,0l-2.565,-2.907l0,2.907l-1.692,0l0,-6.408l1.692,0l0,2.754l2.493,-2.754l1.98,0l-2.835,3.042l2.934,3.366Z" style="fill:#eeeeee;fill-rule:nonzero;"/>
    <path d="M37.406,120.537l1.593,0l0,6.408l-1.251,0l-2.907,-3.636l0,3.636l-1.575,0l0,-6.408l1.233,0l2.907,3.618l0,-3.618Z" style="fill:#eeeeee;fill-rule:nonzero;"/>
    <path d="M43.211,127.026c-0.654,0 -1.224,-0.133 -1.71,-0.4c-0.486,-0.267 -0.859,-0.65 -1.12,-1.148c-0.261,-0.498 -0.392,-1.08 -0.392,-1.746c0,-0.666 0.132,-1.245 0.396,-1.737c0.264,-0.492 0.638,-0.871 1.121,-1.138c0.483,-0.267 1.051,-0.401 1.705,-0.401c0.654,0 1.223,0.134 1.706,0.401c0.483,0.267 0.853,0.646 1.111,1.138c0.258,0.492 0.387,1.071 0.387,1.737c0,0.666 -0.129,1.248 -0.387,1.746c-0.258,0.498 -0.628,0.881 -1.111,1.148c-0.483,0.267 -1.052,0.4 -1.706,0.4Zm0,-1.287c0.48,0 0.857,-0.171 1.13,-0.513c0.273,-0.342 0.409,-0.84 0.409,-1.494c0,-0.648 -0.136,-1.141 -0.409,-1.48c-0.273,-0.339 -0.65,-0.509 -1.13,-0.509c-0.48,0 -0.855,0.168 -1.125,0.504c-0.27,0.336 -0.405,0.831 -0.405,1.485c0,0.66 0.135,1.16 0.405,1.499c0.27,0.339 0.645,0.508 1.125,0.508Z" style="fill:#eeeeee;fill-rule:nonzero;"/>
    <path d="M51.716,123.624c0.378,0.108 0.669,0.299 0.873,0.572c0.204,0.273 0.306,0.604 0.306,0.994c0,0.354 -0.093,0.663 -0.279,0.927c-0.186,0.264 -0.451,0.468 -0.796,0.612c-0.345,0.144 -0.752,0.216 -1.22,0.216l-3.195,0l0,-6.408l3.114,0c0.672,0 1.206,0.15 1.602,0.45c0.396,0.3 0.594,0.705 0.594,1.215c0,0.33 -0.087,0.621 -0.261,0.873c-0.174,0.252 -0.42,0.435 -0.738,0.549Zm-2.664,-0.576l1.179,0c0.312,0 0.54,-0.048 0.684,-0.144c0.144,-0.096 0.216,-0.249 0.216,-0.459c0,-0.216 -0.073,-0.375 -0.22,-0.477c-0.147,-0.102 -0.374,-0.153 -0.68,-0.153l-1.179,0l0,1.233Zm1.35,2.619c0.324,0 0.557,-0.051 0.698,-0.153c0.141,-0.102 0.211,-0.273 0.211,-0.513c0,-0.246 -0.069,-0.42 -0.207,-0.522c-0.138,-0.102 -0.372,-0.153 -0.702,-0.153l-1.35,0l0,1.341l1.35,0Z" style="fill:#eeeeee;fill-rule:nonzero;"/>
    <path d="M59.645,125.604l1.386,0l0,1.341l-4.446,0l0,-1.341l1.377,0l0,-3.231l-1.287,0.738l0,-1.449l1.98,-1.125l0.99,0l0,5.067Z" style="fill:#eeeeee;fill-rule:nonzero;"/>
    <path d="M96.309,200.38c-5.359,0 -9.723,4.362 -9.723,9.721l0,8.147c0,5.36 4.364,9.723 9.723,9.723l9.826,0c5.36,0 9.723,-4.363 9.723,-9.723l0,-8.147c0,-5.359 -4.363,-9.721 -9.722,-9.721l-9.827,0Z" style="fill:none;stroke:#eeeeee;stroke-width:1.2px;"/>
    <path d="M68.64,221.07c3.86,-5.61 9.578,-9.986 15.581,-11.04" style="fill:none;stroke:rgb(80,80,80);stroke-width:1.2px;stroke-linecap:round;stroke-miterlimit:10;"/>
    <path d="M43.957,211.32c-0.326,0.004 -0.592,0.274 -0.592,0.6c0,0.003 0,0.006 0,0.009l0,1.696c-7.84,0.056 -15.662,2.739 -22.004,8.058c-12.82,10.758 -16.094,29.346 -7.728,43.84c0.104,0.194 0.307,0.314 0.527,0.314c0.329,0 0.6,-0.27 0.6,-0.6c0,-0.11 -0.03,-0.219 -0.088,-0.313c-8.076,-13.992 -4.917,-31.937 7.459,-42.322c6.119,-5.133 13.669,-7.723 21.234,-7.78l0,1.817c0,0.329 0.271,0.6 0.6,0.6c0.33,0 0.601,-0.271 0.601,-0.6l0,-1.801c7.332,0.205 14.609,2.788 20.541,7.764c12.375,10.385 15.537,28.33 7.461,42.322c-0.058,0.094 -0.089,0.203 -0.089,0.313c0,0.33 0.271,0.6 0.6,0.6c0.22,0 0.423,-0.12 0.528,-0.314c8.366,-14.494 5.091,-33.082 -7.729,-43.84c-6.154,-5.162 -13.706,-7.839 -21.312,-8.045l0,-1.709c0,-0.003 0,-0.006 0,-0.009c0,-0.329 -0.27,-0.6 -0.6,-0.6c-0.003,0 -0.006,0 -0.009,0Zm-29.707,58.379c-2.371,0 -4.305,1.934 -4.305,4.305c0,2.371 1.934,4.306 4.305,4.306c2.371,0 4.305,-1.936 4.305,-4.306c0,-2.371 -1.934,-4.305 -4.305,-4.305Zm58.736,0.002c-2.371,0 -4.305,1.934 -4.305,4.305c0,2.371 1.934,4.302 4.305,4.302c2.371,0 4.307,-1.932 4.307,-4.302c0,-2.371 -1.936,-4.305 -4.307,-4.305Zm-58.736,1.197c1.722,0 3.105,1.383 3.105,3.106c0,1.722 -1.383,3.107 -3.105,3.107c-1.722,0 -3.106,-1.385 -3.106,-3.107c0,-1.723 1.384,-3.106 3.106,-3.106Z" style="fill:#eeeeee;"/>
    <path d="M102.1,291.96c-0.332,0.006 -0.596,0.28 -0.59,0.611l0,1.409c-2.52,0.129 -5.006,1.042 -7.047,2.755c-4.419,3.708 -5.55,10.112 -2.668,15.105l0.301,0.52l10.035,-5.793l10.035,5.793l0.301,-0.52c2.882,-4.993 1.752,-11.398 -2.668,-15.105c-2.052,-1.722 -4.555,-2.636 -7.09,-2.757l0,-1.411c0,-0.338 -0.271,-0.612 -0.609,-0.607l0,0Zm-0.586,3.219l0.019,10.35l-8.902,5.14c-2.21,-4.402 -1.209,-9.813 2.605,-13.014c1.819,-1.527 4.032,-2.348 6.278,-2.476l0,0Zm1.199,0c2.26,0.121 4.488,0.94 6.317,2.476c3.815,3.201 4.813,8.612 2.603,13.014l-8.902,-5.14l-0.018,-10.35Zm7.933,17.562l0.01,1.582l-1.606,0.008c-0.831,-0.028 -0.825,1.235 0.01,1.199l1.606,-0.008l0.01,1.629c-0.026,0.831 1.236,0.822 1.199,-0.008l-0.01,-1.625l1.603,-0.008c0.801,-0.004 0.795,-1.205 -0.01,-1.201l-1.605,0.008l-0.01,-1.584c0,-0.771 -1.197,-0.756 -1.197,0.008l0,0Zm-15.172,1.445l-4.415,0.02c-0.8,0.004 -0.794,1.205 0.01,1.201l4.415,-0.022c0.83,0.028 0.824,-1.235 -0.01,-1.199Z" style="fill:#eeeeee;fill-rule:nonzero;"/>
    <path d="M73.997,291.941c-0.332,0.006 -0.597,0.28 -0.59,0.612l0,1.408c-2.521,0.13 -5.007,1.042 -7.047,2.756c-4.419,3.707 -5.55,10.112 -2.668,15.105l0.301,0.519l10.035,-5.793l10.035,5.793l0.3,-0.519c2.882,-4.993 1.753,-11.398 -2.668,-15.105c-2.051,-1.723 -4.554,-2.636 -7.089,-2.758l0,-1.41c0,-0.338 -0.272,-0.613 -0.61,-0.608l0.001,0Zm-0.586,3.219l0.019,10.35l-8.903,5.141c-2.209,-4.402 -1.209,-9.814 2.606,-13.014c1.819,-1.528 4.031,-2.348 6.277,-2.477l0.001,0Zm1.199,0c2.259,0.121 4.487,0.941 6.316,2.477c3.816,3.2 4.813,8.611 2.604,13.014l-8.903,-5.141l-0.017,-10.35Zm7.932,17.562l0.01,1.582l-1.605,0.008c-0.831,-0.028 -0.825,1.236 0.01,1.199l1.605,-0.008l0.01,1.629c-0.026,0.831 1.237,0.823 1.199,-0.008l-0.01,-1.625l1.604,-0.008c0.801,-0.004 0.795,-1.205 -0.01,-1.201l-1.606,0.008l-0.01,-1.584c0,-0.771 -1.197,-0.755 -1.197,0.008l0,0Zm-15.172,1.446l-4.414,0.019c-0.801,0.004 -0.795,1.205 0.01,1.201l4.414,-0.021c0.831,0.028 0.825,-1.236 -0.01,-1.199Z" style="fill:#eeeeee;fill-rule:nonzero;"/>
    <path d="M44.717,291.96c-0.332,0.006 -0.596,0.28 -0.59,0.611l0,1.409c-2.52,0.129 -5.006,1.042 -7.046,2.755c-4.42,3.708 -5.55,10.112 -2.668,15.105l0.3,0.52l10.035,-5.793l10.035,5.793l0.301,-0.52c2.882,-4.993 1.752,-11.398 -2.668,-15.105c-2.051,-1.722 -4.555,-2.636 -7.09,-2.757l0,-1.411c0,-0.338 -0.271,-0.612 -0.609,-0.607l0,0Zm-0.586,3.219l0.019,10.35l-8.902,5.14c-2.21,-4.402 -1.209,-9.813 2.605,-13.014c1.819,-1.527 4.032,-2.348 6.278,-2.476l0,0Zm1.2,0c2.259,0.121 4.487,0.94 6.316,2.476c3.816,3.201 4.813,8.612 2.603,13.014l-8.902,-5.14l-0.017,-10.35Zm7.932,17.562l0.01,1.582l-1.606,0.008c-0.831,-0.028 -0.824,1.235 0.01,1.199l1.606,-0.008l0.01,1.629c-0.026,0.831 1.236,0.822 1.199,-0.008l-0.01,-1.625l1.604,-0.008c0.8,-0.004 0.794,-1.205 -0.01,-1.201l-1.606,0.008l-0.01,-1.584c0,-0.771 -1.197,-0.756 -1.197,0.008l0,0Zm-15.172,1.445l-4.414,0.02c-0.801,0.004 -0.795,1.205 0.01,1.201l4.414,-0.022c0.831,0.028 0.824,-1.235 -0.01,-1.199Z" style="fill:#eeeeee;fill-rule:nonzero;"/>
    <path d="M16.966,291.96c-0.332,0.006 -0.597,0.28 -0.59,0.611l0,1.409c-2.521,0.129 -5.007,1.042 -7.047,2.755c-4.419,3.708 -5.55,10.112 -2.668,15.105l0.301,0.52l10.035,-5.793l10.035,5.793l0.3,-0.52c2.882,-4.993 1.753,-11.398 -2.668,-15.105c-2.051,-1.722 -4.554,-2.636 -7.089,-2.757l0,-1.411c0,-0.338 -0.272,-0.612 -0.61,-0.607l0.001,0Zm-0.586,3.219l0.019,10.35l-8.903,5.14c-2.209,-4.402 -1.209,-9.813 2.606,-13.014c1.819,-1.527 4.031,-2.348 6.277,-2.476l0.001,0Zm1.199,0c2.259,0.121 4.487,0.94 6.316,2.476c3.816,3.201 4.813,8.612 2.604,13.014l-8.903,-5.14l-0.017,-10.35Zm7.932,17.562l0.01,1.582l-1.605,0.008c-0.831,-0.028 -0.825,1.235 0.01,1.199l1.605,-0.008l0.01,1.629c-0.026,0.831 1.237,0.822 1.199,-0.008l-0.01,-1.625l1.604,-0.008c0.801,-0.004 0.795,-1.205 -0.01,-1.201l-1.606,0.008l-0.01,-1.584c0,-0.771 -1.197,-0.756 -1.197,0.008l0,0Zm-15.172,1.445l-4.414,0.02c-0.801,0.004 -0.795,1.205 0.01,1.201l4.414,-0.022c0.831,0.028 0.825,-1.235 -0.01,-1.199Z" style="fill:#eeeeee;fill-rule:nonzero;"/>
    <g>
      <path d="M52.4,363.496l3.443,10.383c0.322,0.968 0.909,1.451 1.756,1.451c0.835,0 1.414,-0.476 1.737,-1.435l3.46,-10.398l-2.66,0l-2.574,8.318l-2.49,-8.318l-2.672,-0.001Zm10.598,0l0,8.793c0,0.736 0.078,1.265 0.234,1.588c0.423,0.881 1.214,1.32 2.373,1.32l3.243,0c1.126,0 1.912,-0.429 2.357,-1.287c0.168,-0.324 0.25,-0.87 0.25,-1.639l0,-8.775l-2.506,0l0,8.658l-0.018,0.084c-0.056,0.29 -0.34,0.436 -0.853,0.436l-1.705,0c-0.535,0 -0.826,-0.157 -0.87,-0.469l0,-8.709l-2.505,0Zm9.611,0l0,8.842c0,0.914 0.19,1.598 0.569,2.049c0.378,0.452 1.019,0.717 1.922,0.795c0.123,0.011 0.268,0.015 0.435,0.015l4.664,0l0.016,-2.523l-4.463,0c-0.424,0 -0.634,-0.178 -0.634,-0.535l0,-8.643l-2.509,0Zm7.69,0l0,2.525l2.49,0l0,9.176l2.508,0l0,-9.176l2.523,0l0,-2.525l-7.521,0Z" style="fill:rgb(102,102,102);fill-rule:nonzero;"/>
      <path d="M48.8,369.416c0,-4.509 -3.655,-8.165 -8.164,-8.165c-4.509,0 -8.165,3.656 -8.165,8.165c0,4.509 3.656,8.165 8.165,8.165c4.509,0 8.164,-3.656 8.164,-8.165Z" style="fill:rgb(117,117,117);fill-rule:nonzero;stroke:rgb(53,53,53);stroke-width:0.61px;stroke-linecap:round;stroke-miterlimit:10;"/>
      <g>
        <path d="M38.82,374.389l0.553,-0.89l-1.064,-2.393l-2.216,-2.284l0.46,3.101l0.597,1.28l0.833,1.263l0.837,-0.077Z" style="fill:rgb(43,43,43);fill-rule:nonzero;"/>
        <path d="M42.55,374.399l-0.553,-0.891l1.064,-2.393l2.216,-2.284l-0.46,3.101l-0.597,1.28l-0.833,1.264l-0.837,-0.077Z" style="fill:#202020;fill-rule:nonzero;"/>
        <path d="M38.14,363.359l2.584,-0.661l0,13.448l-1.349,-2.651l-1.061,-2.385l-1.022,-0.581l-2.052,-2.921l-0.057,-0.775l1.148,-2.067l1.809,-1.407Z" style="fill:rgb(66,66,66);fill-rule:nonzero;"/>
        <path d="M43.3,363.359l-2.584,-0.66l0,13.448l1.35,-2.651l1.06,-2.385l1.023,-0.581l2.051,-2.921l0.058,-0.775l-1.149,-2.068l-1.809,-1.407Z" style="fill:rgb(51,51,51);fill-rule:nonzero;"/>
        <path d="M39,369.239l1.723,-1.685l0,1.23l-1.723,1.718l0,-1.263" style="fill:rgb(76,76,76);fill-rule:nonzero;"/>
        <path d="M40.72,368.779l-1.723,1.718l0.377,3.004l1.346,2.643l0,-7.365Z" style="fill:rgb(91,91,91);fill-rule:nonzero;"/>
        <path d="M40.72,376.149l-1.346,-2.643l1.346,-0.635l0,3.278Z" style="fill:rgb(51,51,51);fill-rule:nonzero;"/>
        <path d="M39,370.499l0,-1.264l-1.249,-1.579l-1.477,-1.19l-0.001,0.932l0.775,1.823l1.952,1.278Z" style="fill:#eeeeee;fill-rule:nonzero;"/>
        <path d="M42.44,369.239l-1.722,-1.684l0,1.23l1.722,1.718l0,-1.264" style="fill:rgb(45,45,45);fill-rule:nonzero;"/>
        <path d="M40.72,368.779l1.722,1.718l-0.376,3.004l-1.347,2.643l0.001,-7.365Z" style="fill:rgb(53,53,53);fill-rule:nonzero;"/>
        <path d="M40.72,376.149l1.347,-2.643l-1.346,-0.635l-0.001,3.278Z" style="fill:#202020;fill-rule:nonzero;"/>
        <path d="M42.44,370.499l0,-1.264l1.249,-1.579l1.478,-1.19l0.001,0.932l-0.775,1.823l-1.953,1.278Z" style="fill:#eeeeee;fill-rule:nonzero;"/>
        <path d="M38.15,363.339l2.566,4.216l-0.005,-4.87" style="fill:rgb(56,56,56);fill-rule:nonzero;"/>
        <path d="M43.28,363.339l-2.566,4.215l0.006,-4.87" style="fill:rgb(45,45,45);fill-rule:nonzero;"/>
        <path d="M38.31,371.109l0.688,-0.61l0.375,3.006l-1.063,-2.396Z" style="fill:rgb(51,51,51);fill-rule:nonzero;"/>
        <path d="M43.13,371.129l-0.688,-0.61l-0.375,3.006l1.063,-2.396Z" style="fill:rgb(28,28,28);fill-rule:nonzero;"/>
      </g>
    </g>
  </g>
</svg>