<?xml version="1.0" encoding="UTF-8" standalone="no"?>
<svg
   width="71.120003mm"
   height="128.5mm"
   viewBox="0 0 71.120003 128.5"
   version="1.1"
   id="svg130"
   sodipodi:docname="AuxSends_info.svg"
   inkscape:version="1.4 (e7c3feb1, 2024-10-09)"
   xmlns:inkscape="http://www.inkscape.org/namespaces/inkscape"
   xmlns:sodipodi="http://sodipodi.sourceforge.net/DTD/sodipodi-0.dtd"
   xmlns="http://www.w3.org/2000/svg"
   xmlns:svg="http://www.w3.org/2000/svg">
  <defs
     id="defs130" />
  <sodipodi:namedview
     id="namedview130"
     pagecolor="#ffffff"
     bordercolor="#000000"
     borderopacity="0.25"
     inkscape:showpageshadow="2"
     inkscape:pageopacity="0.0"
     inkscape:pagecheckerboard="0"
     inkscape:deskcolor="#d1d1d1"
     inkscape:document-units="mm"
     inkscape:zoom="2.5189979"
     inkscape:cx="69.869054"
     inkscape:cy="139.34112"
     inkscape:window-width="1920"
     inkscape:window-height="1027"
     inkscape:window-x="640"
     inkscape:window-y="25"
     inkscape:window-maximized="0"
     inkscape:current-layer="graphics" />
  <g
     inkscape:groupmode="layer"
     id="layer2"
     inkscape:label="faceplate">
    <g
       id="faceplate"
       transform="scale(0.35277748)"
       style="stroke-width:2.83469">
      <g
         id="faceplate-2"
         data-name="faceplate"
         style="stroke-width:2.83469">
        <g
           id="g1"
           style="stroke-width:2.83469">
          <rect
             x="0.12"
             y="0.13"
             width="201.35001"
             height="364"
             style="fill:#ededed;stroke-width:2.83469"
             id="rect1" />
          <path
             d="M 201.35,0.25 V 364 H 0.25 V 0.25 h 201.1 M 201.6,0 H 0 v 364.25 h 201.6 z"
             style="fill:#9d9d9e;stroke-width:2.83469"
             id="path1" />
        </g>
      </g>
      <g
         id="graphics"
         style="stroke-width:2.83469">
        <path
           d="M 50.22,117.64 H 21.67 c -8.54,0 -15.49,6.99 -15.49,15.59 0,8.6 6.95,15.59 15.49,15.59 h 28.55 c 8.54,0 15.49,-6.99 15.49,-15.59 0,-8.6 -6.95,-15.59 -15.49,-15.59 z"
           id="path2"
           style="stroke-width:2.83469" />
        <path
           d="M 115.13,117.64 H 86.58 c -8.54,0 -15.49,6.99 -15.49,15.59 0,8.6 6.95,15.59 15.49,15.59 h 28.55 c 8.54,0 15.49,-6.99 15.49,-15.59 0,-8.6 -6.95,-15.59 -15.49,-15.59 z"
           id="path3"
           style="stroke-width:2.83469" />
        <path
           d="m 180.27,117.64 h -28.55 c -8.54,0 -15.49,6.99 -15.49,15.59 0,8.6 6.95,15.59 15.49,15.59 h 28.55 c 8.54,0 15.49,-6.99 15.49,-15.59 0,-8.6 -6.95,-15.59 -15.49,-15.59 z"
           id="path4"
           style="stroke-width:2.83469" />
        <path
           d="M 166.39,239.53 H 40.57 c 0,0 -4.24,0 -4.24,0 -8.98,0 -16.28,-6.99 -16.28,-15.59 0,-8.6 7.3,-15.59 16.28,-15.59 h 130.05 c 8.41,0 15.25,7 15.25,15.59 0,8.59 -6.84,15.59 -15.25,15.59 z M 36.34,209.32 c -8.42,0 -15.27,6.56 -15.27,14.62 0,8.06 6.85,14.62 15.27,14.62 h 130.05 c 7.85,0 14.24,-6.56 14.24,-14.62 0,-8.06 -6.39,-14.62 -14.24,-14.62 z"
           id="path5"
           style="stroke-width:2.83469" />
        <path
           d="M 166.39,103.46 H 40.57 c 0,0 -4.24,0 -4.24,0 -8.98,0 -16.28,-6.99 -16.28,-15.59 0,-8.6 7.3,-15.59 16.28,-15.59 h 130.05 c 8.41,0 15.25,7 15.25,15.59 0,8.59 -6.84,15.59 -15.25,15.59 z M 36.34,73.25 c -8.42,0 -15.27,6.56 -15.27,14.62 0,8.06 6.85,14.62 15.27,14.62 h 130.05 c 7.85,0 14.24,-6.56 14.24,-14.62 0,-8.06 -6.39,-14.62 -14.24,-14.62 z"
           id="path6"
           style="stroke-width:2.83469" />
        <line
           x1="166.05"
           y1="103.11"
           x2="166.05"
           y2="108.51"
           style="fill:none;stroke:#000000;stroke-width:0.99212682;stroke-miterlimit:10;stroke-dasharray:none"
           id="line6" />
        <line
           x1="100.85"
           y1="103.11"
           x2="100.85"
           y2="108.51"
           style="fill:none;stroke:#000000;stroke-width:0.99212682;stroke-miterlimit:10;stroke-dasharray:none"
           id="line7" />
        <line
           x1="35.610001"
           y1="103.11"
           x2="35.610001"
           y2="108.51"
           style="fill:none;stroke:#000000;stroke-width:0.99212682;stroke-miterlimit:10;stroke-dasharray:none"
           id="line8" />
        <line
           x1="166"
           y1="239.53"
           x2="166"
           y2="244.92999"
           style="fill:none;stroke:#000000;stroke-width:0.99212682;stroke-miterlimit:10;stroke-dasharray:none"
           id="line9" />
        <line
           x1="100.85"
           y1="239.53"
           x2="100.85"
           y2="244.92999"
           style="fill:none;stroke:#000000;stroke-width:0.99212682;stroke-miterlimit:10;stroke-dasharray:none"
           id="line10" />
        <line
           x1="35.599998"
           y1="239.53"
           x2="35.599998"
           y2="244.92999"
           style="fill:none;stroke:#000000;stroke-width:0.99212682;stroke-miterlimit:10;stroke-dasharray:none"
           id="line11" />
        <path
           d="m 40.12,251.64 h 3.99 c 3.13,0 5.67,2.54 5.67,5.67 v 6.31 c 0,3.13 -2.54,5.67 -5.67,5.67 H 27.1 c -3.13,0 -5.67,-2.54 -5.67,-5.67 v -6.31 c 0,-3.13 2.54,-5.67 5.67,-5.67 h 3.83"
           style="fill:none;stroke:#000000;stroke-width:0.99212682;stroke-miterlimit:10;stroke-dasharray:none"
           id="path11" />
        <path
           d="m 105.37,251.64 h 3.99 c 3.13,0 5.67,2.54 5.67,5.67 v 6.31 c 0,3.13 -2.54,5.67 -5.67,5.67 H 92.35 c -3.13,0 -5.67,-2.54 -5.67,-5.67 v -6.31 c 0,-3.13 2.54,-5.67 5.67,-5.67 h 3.83"
           style="fill:none;stroke:#000000;stroke-width:0.99212682;stroke-miterlimit:10;stroke-dasharray:none"
           id="path12" />
        <path
           d="m 170.51,251.64 h 3.99 c 3.13,0 5.67,2.54 5.67,5.67 v 6.31 c 0,3.13 -2.54,5.67 -5.67,5.67 h -17.01 c -3.13,0 -5.67,-2.54 -5.67,-5.67 v -6.31 c 0,-3.13 2.54,-5.67 5.67,-5.67 h 3.83"
           style="fill:none;stroke:#000000;stroke-width:0.99212682;stroke-miterlimit:10;stroke-dasharray:none"
           id="path13" />
        <path
           d="M 165.95,73.25 V 60.94 c 0,-3.12 2.55,-5.67 5.67,-5.67 h 2.83 c 3.12,0 5.67,-2.55 5.67,-5.67 V 38.26"
           style="fill:none;stroke:#000000;stroke-width:0.99212682;stroke-miterlimit:10;stroke-dasharray:none"
           id="path14" />
        <path
           d="M 100.89,73.25 V 60.94 c 0,-3.12 2.55,-5.67 5.67,-5.67 h 2.83 c 3.12,0 5.67,-2.55 5.67,-5.67 V 38.26"
           style="fill:none;stroke:#000000;stroke-width:0.99212682;stroke-miterlimit:10;stroke-dasharray:none"
           id="path15" />
        <path
           d="M 35.9,73.25 V 60.94 c 0,-3.12 2.55,-5.67 5.67,-5.67 h 2.83 c 3.12,0 5.67,-2.55 5.67,-5.67 V 38.26"
           style="fill:none;stroke:#000000;stroke-width:0.99212682;stroke-miterlimit:10;stroke-dasharray:none"
           id="path16" />
        <line
           x1="100.85"
           y1="174.33"
           x2="100.85"
           y2="208.35001"
           style="fill:none;stroke:#000000;stroke-width:0.99212682;stroke-miterlimit:10;stroke-dasharray:none"
           id="line16" />
        <line
           x1="35.939999"
           y1="174.33"
           x2="35.939999"
           y2="208.35001"
           style="fill:none;stroke:#000000;stroke-width:0.99212682;stroke-miterlimit:10;stroke-dasharray:none"
           id="line17" />
        <line
           x1="166.05"
           y1="174.33"
           x2="166.05"
           y2="208.35001"
           style="fill:none;stroke:#000000;stroke-width:0.99212682;stroke-miterlimit:10;stroke-dasharray:none"
           id="line18" />
        <g
           id="pips"
           style="stroke-width:2.83469">
          <g
             id="g20"
             style="stroke-width:2.83469">
            <path
               d="m 92.6,18.07 c -0.37,0 -0.71,-0.17 -0.97,-0.47 -0.51,-0.6 -0.52,-1.54 -0.04,-2.16 l 6.97,-8.88 c 0.38,-0.48 1.05,-0.65 1.57,-0.39 0.5,0.25 0.79,0.82 0.79,1.45 v 4.77 l 4.64,-5.85 c 0.38,-0.48 1.01,-0.64 1.53,-0.38 0.5,0.25 0.83,0.81 0.83,1.44 v 8.82 c 0,0.86 -0.61,1.57 -1.36,1.57 -0.75,0 -1.36,-0.7 -1.36,-1.57 v -4.79 l -4.64,5.85 c -0.38,0.48 -1.01,0.64 -1.54,0.38 -0.5,-0.24 -0.83,-0.81 -0.83,-1.44 v -4.67 l -4.61,5.8 c -0.26,0.32 -0.62,0.51 -1,0.51 v 0 z"
               style="fill:#2cabe1;stroke-width:2.83469"
               id="path18" />
            <path
               d="m 92.6,18.07 c -0.75,0 -1.35,-0.7 -1.35,-1.57 v -4.93 l -2.26,2.84 c -0.5,0.63 -1.44,0.65 -1.97,0.04 -0.51,-0.6 -0.52,-1.53 -0.03,-2.15 L 91.6,6.54 c 0.26,-0.32 0.63,-0.5 1,-0.5 0.18,0 0.37,0.04 0.54,0.12 0.5,0.25 0.82,0.81 0.82,1.44 v 8.89 c 0,0.86 -0.61,1.57 -1.36,1.57 v 0 z"
               style="fill:#ea2228;stroke-width:2.83469"
               id="path19" />
            <path
               d="m 109.2,18.09 v 0 c -0.35,0 -0.68,-0.15 -0.94,-0.42 -0.76,-0.78 -0.14,-1.84 0.29,-2.3 l 1.95,-2.36 -1.26,-0.02 c -0.56,-0.01 -1.04,-0.4 -1.24,-1 -0.19,-0.56 -0.07,-1.21 0.29,-1.64 l 3.16,-3.83 c 0.23,-0.28 0.55,-0.48 1.13,-0.47 0.33,0 0.67,0.17 0.92,0.4 0.71,0.66 0.29,1.7 -0.07,2.2 l -1.04,1.26 1.26,0.02 c 0.56,0.01 1.04,0.4 1.24,1 0.19,0.56 0.07,1.21 -0.29,1.64 l -4.1,4.97 c -0.35,0.35 -0.65,0.55 -1.3,0.54 v 0 z"
               style="fill:#00a650;stroke-width:2.83469"
               id="path20" />
          </g>
        </g>
        <g
           id="_9mm_Pips"
           data-name="9mm_Pips"
           style="stroke-width:2.83469">
          <path
             id="path21"
             d="m 120.99,27.28 0.71,-1.22 c -1.74,-0.91 -3.69,-1.45 -5.76,-1.54 v 1.42 c 1.81,0.09 3.53,0.56 5.05,1.34"
             style="stroke-width:2.83469" />
          <path
             id="path22"
             d="m 125.79,31.6 1.23,-0.71 c -1.09,-1.68 -2.53,-3.13 -4.22,-4.2 l -0.71,1.22 c 1.48,0.96 2.74,2.21 3.7,3.68"
             style="stroke-width:2.83469" />
          <path
             id="path23"
             d="m 108.54,27.91 -0.71,-1.22 c -1.69,1.09 -3.14,2.52 -4.22,4.2 l 1.23,0.71 c 0.96,-1.47 2.22,-2.73 3.7,-3.68"
             style="stroke-width:2.83469" />
          <path
             id="path24"
             d="m 127.77,37.73 h 1.43 c -0.09,-2.06 -0.64,-4.01 -1.55,-5.75 l -1.23,0.71 c 0.79,1.52 1.26,3.23 1.35,5.04"
             style="stroke-width:2.83469" />
          <path
             id="path25"
             d="m 114.68,25.94 v -1.42 c -2.07,0.09 -4.03,0.64 -5.76,1.54 l 0.71,1.22 c 1.53,-0.79 3.24,-1.25 5.05,-1.34"
             style="stroke-width:2.83469" />
          <path
             id="path26"
             d="m 104.83,45.11 -1.23,0.71 c 1.09,1.68 2.53,3.13 4.22,4.2 l 0.71,-1.22 c -1.48,-0.96 -2.74,-2.21 -3.7,-3.68"
             style="stroke-width:2.83469" />
          <path
             id="path7"
             d="m 122.09,48.8 0.71,1.22 c 1.69,-1.09 3.14,-2.52 4.22,-4.2 l -1.23,-0.71 c -0.96,1.47 -2.22,2.73 -3.7,3.68"
             style="stroke-width:2.83469" />
          <path
             id="path8"
             d="m 127.77,38.98 c -0.09,1.8 -0.56,3.52 -1.35,5.04 l 1.23,0.71 c 0.9,-1.73 1.45,-3.68 1.55,-5.75 z"
             style="stroke-width:2.83469" />
          <path
             id="path9"
             d="m 102.85,38.98 h -1.43 c 0.09,2.06 0.64,4.01 1.55,5.75 l 1.23,-0.71 c -0.79,-1.52 -1.26,-3.23 -1.35,-5.04"
             style="stroke-width:2.83469" />
          <path
             id="path10"
             d="m 104.2,32.69 -1.23,-0.71 c -0.91,1.73 -1.46,3.67 -1.55,5.75 h 1.43 c 0.09,-1.8 0.56,-3.52 1.35,-5.04"
             style="stroke-width:2.83469" />
        </g>
        <g
           id="_9mm_Pips-2"
           data-name="9mm_Pips"
           style="stroke-width:2.83469">
          <path
             id="path1-2"
             data-name="path1"
             d="m 55.8,27.28 0.71,-1.22 c -1.74,-0.91 -3.69,-1.45 -5.76,-1.54 v 1.42 c 1.81,0.09 3.53,0.56 5.05,1.34"
             style="stroke-width:2.83469" />
          <path
             id="path2-2"
             data-name="path2"
             d="m 60.59,31.6 1.23,-0.71 c -1.09,-1.68 -2.53,-3.13 -4.22,-4.2 l -0.71,1.22 c 1.48,0.96 2.74,2.21 3.7,3.68"
             style="stroke-width:2.83469" />
          <path
             id="path3-2"
             data-name="path3"
             d="m 43.34,27.91 -0.71,-1.22 c -1.69,1.09 -3.14,2.52 -4.22,4.2 l 1.23,0.71 c 0.96,-1.47 2.22,-2.73 3.7,-3.68"
             style="stroke-width:2.83469" />
          <path
             id="path4-2"
             data-name="path4"
             d="m 62.58,37.73 h 1.43 c -0.09,-2.06 -0.64,-4.01 -1.55,-5.75 l -1.23,0.71 c 0.79,1.52 1.26,3.23 1.35,5.04"
             style="stroke-width:2.83469" />
          <path
             id="path5-2"
             data-name="path5"
             d="m 49.48,25.94 v -1.42 c -2.07,0.09 -4.03,0.64 -5.76,1.54 l 0.71,1.22 c 1.53,-0.79 3.24,-1.25 5.05,-1.34"
             style="stroke-width:2.83469" />
          <path
             id="path6-2"
             data-name="path6"
             d="m 39.63,45.11 -1.23,0.71 c 1.09,1.68 2.53,3.13 4.22,4.2 l 0.71,-1.22 c -1.48,-0.96 -2.74,-2.21 -3.7,-3.68"
             style="stroke-width:2.83469" />
          <path
             id="path7-2"
             data-name="path7"
             d="m 56.89,48.8 0.71,1.22 c 1.69,-1.09 3.14,-2.52 4.22,-4.2 l -1.23,-0.71 c -0.96,1.47 -2.22,2.73 -3.7,3.68"
             style="stroke-width:2.83469" />
          <path
             id="path8-2"
             data-name="path8"
             d="m 62.58,38.98 c -0.09,1.8 -0.56,3.52 -1.35,5.04 l 1.23,0.71 c 0.9,-1.73 1.45,-3.68 1.55,-5.75 z"
             style="stroke-width:2.83469" />
          <path
             id="path9-2"
             data-name="path9"
             d="m 37.66,38.98 h -1.43 c 0.09,2.06 0.64,4.01 1.55,5.75 l 1.23,-0.71 C 38.22,42.5 37.75,40.79 37.66,38.98"
             style="stroke-width:2.83469" />
          <path
             id="path10-2"
             data-name="path10"
             d="m 39,32.69 -1.23,-0.71 c -0.91,1.73 -1.46,3.67 -1.55,5.75 h 1.43 c 0.09,-1.8 0.56,-3.52 1.35,-5.04"
             style="stroke-width:2.83469" />
        </g>
        <g
           id="_9mm_Pips-3"
           data-name="9mm_Pips"
           style="stroke-width:2.83469">
          <path
             id="path1-3"
             data-name="path1"
             d="m 185.91,27.28 0.71,-1.22 c -1.74,-0.91 -3.69,-1.45 -5.76,-1.54 v 1.42 c 1.81,0.09 3.53,0.56 5.05,1.34"
             style="stroke-width:2.83469" />
          <path
             id="path2-3"
             data-name="path2"
             d="m 190.7,31.6 1.23,-0.71 c -1.09,-1.68 -2.53,-3.13 -4.22,-4.2 L 187,27.91 c 1.48,0.96 2.74,2.21 3.7,3.68"
             style="stroke-width:2.83469" />
          <path
             id="path3-3"
             data-name="path3"
             d="m 173.45,27.91 -0.71,-1.22 c -1.69,1.09 -3.14,2.52 -4.22,4.2 l 1.23,0.71 c 0.96,-1.47 2.22,-2.73 3.7,-3.68"
             style="stroke-width:2.83469" />
          <path
             id="path4-3"
             data-name="path4"
             d="m 192.69,37.73 h 1.43 c -0.09,-2.06 -0.64,-4.01 -1.55,-5.75 l -1.23,0.71 c 0.79,1.52 1.26,3.23 1.35,5.04"
             style="stroke-width:2.83469" />
          <path
             id="path5-3"
             data-name="path5"
             d="m 179.59,25.94 v -1.42 c -2.07,0.09 -4.03,0.64 -5.76,1.54 l 0.71,1.22 c 1.53,-0.79 3.24,-1.25 5.05,-1.34"
             style="stroke-width:2.83469" />
          <path
             id="path6-3"
             data-name="path6"
             d="m 169.74,45.11 -1.23,0.71 c 1.09,1.68 2.53,3.13 4.22,4.2 l 0.71,-1.22 c -1.48,-0.96 -2.74,-2.21 -3.7,-3.68"
             style="stroke-width:2.83469" />
          <path
             id="path7-3"
             data-name="path7"
             d="m 187,48.8 0.71,1.22 c 1.69,-1.09 3.14,-2.52 4.22,-4.2 l -1.23,-0.71 c -0.96,1.47 -2.22,2.73 -3.7,3.68"
             style="stroke-width:2.83469" />
          <path
             id="path8-3"
             data-name="path8"
             d="m 192.69,38.98 c -0.09,1.8 -0.56,3.52 -1.35,5.04 l 1.23,0.71 c 0.9,-1.73 1.45,-3.68 1.55,-5.75 z"
             style="stroke-width:2.83469" />
          <path
             id="path9-3"
             data-name="path9"
             d="m 167.77,38.98 h -1.43 c 0.09,2.06 0.64,4.01 1.55,5.75 l 1.23,-0.71 c -0.79,-1.52 -1.26,-3.23 -1.35,-5.04"
             style="stroke-width:2.83469" />
          <path
             id="path10-3"
             data-name="path10"
             d="m 169.11,32.69 -1.23,-0.71 c -0.91,1.73 -1.46,3.67 -1.55,5.75 h 1.43 c 0.09,-1.8 0.56,-3.52 1.35,-5.04"
             style="stroke-width:2.83469" />
        </g>
        <g
           id="_9mm_Pips-4"
           data-name="9mm_Pips"
           style="stroke-width:2.83469">
          <path
             id="path1-4"
             data-name="path1"
             d="m 41.62,163.24 0.71,-1.22 c -1.74,-0.91 -3.69,-1.45 -5.76,-1.54 v 1.42 c 1.81,0.09 3.53,0.56 5.05,1.34"
             style="stroke-width:2.83469" />
          <path
             id="path2-4"
             data-name="path2"
             d="m 46.42,167.56 1.23,-0.71 c -1.09,-1.68 -2.53,-3.13 -4.22,-4.2 l -0.71,1.22 c 1.48,0.96 2.74,2.21 3.7,3.68"
             style="stroke-width:2.83469" />
          <path
             id="path3-4"
             data-name="path3"
             d="m 29.17,163.87 -0.71,-1.22 c -1.69,1.09 -3.14,2.52 -4.22,4.2 l 1.23,0.71 c 0.96,-1.47 2.22,-2.73 3.7,-3.68"
             style="stroke-width:2.83469" />
          <path
             id="path4-4"
             data-name="path4"
             d="m 48.4,173.69 h 1.43 c -0.09,-2.06 -0.64,-4.01 -1.55,-5.75 l -1.23,0.71 c 0.79,1.52 1.26,3.23 1.35,5.04"
             style="stroke-width:2.83469" />
          <path
             id="path5-4"
             data-name="path5"
             d="m 35.31,161.9 v -1.42 c -2.07,0.09 -4.03,0.64 -5.76,1.54 l 0.71,1.22 c 1.53,-0.79 3.24,-1.25 5.05,-1.34"
             style="stroke-width:2.83469" />
          <path
             id="path6-4"
             data-name="path6"
             d="m 25.46,181.08 -1.23,0.71 c 1.09,1.68 2.53,3.13 4.22,4.2 l 0.71,-1.22 c -1.48,-0.96 -2.74,-2.21 -3.7,-3.68"
             style="stroke-width:2.83469" />
          <path
             id="path7-4"
             data-name="path7"
             d="m 42.72,184.76 0.71,1.22 c 1.69,-1.09 3.14,-2.52 4.22,-4.2 l -1.23,-0.71 c -0.96,1.47 -2.22,2.73 -3.7,3.68"
             style="stroke-width:2.83469" />
          <path
             id="path8-4"
             data-name="path8"
             d="m 48.4,174.94 c -0.09,1.8 -0.56,3.52 -1.35,5.04 l 1.23,0.71 c 0.9,-1.73 1.45,-3.68 1.55,-5.75 z"
             style="stroke-width:2.83469" />
          <path
             id="path9-4"
             data-name="path9"
             d="m 23.48,174.94 h -1.43 c 0.09,2.06 0.64,4.01 1.55,5.75 l 1.23,-0.71 c -0.79,-1.52 -1.26,-3.23 -1.35,-5.04"
             style="stroke-width:2.83469" />
          <path
             id="path10-4"
             data-name="path10"
             d="m 24.83,168.65 -1.23,-0.71 c -0.91,1.73 -1.46,3.67 -1.55,5.75 h 1.43 c 0.09,-1.8 0.56,-3.52 1.35,-5.04"
             style="stroke-width:2.83469" />
        </g>
        <g
           id="_9mm_Pips-5"
           data-name="9mm_Pips"
           style="stroke-width:2.83469">
          <path
             id="path1-5"
             data-name="path1"
             d="m 106.53,163.24 0.71,-1.22 c -1.74,-0.91 -3.69,-1.45 -5.76,-1.54 v 1.42 c 1.81,0.09 3.53,0.56 5.05,1.34"
             style="stroke-width:2.83469" />
          <path
             id="path2-5"
             data-name="path2"
             d="m 111.32,167.56 1.23,-0.71 c -1.09,-1.68 -2.53,-3.13 -4.22,-4.2 l -0.71,1.22 c 1.48,0.96 2.74,2.21 3.7,3.68"
             style="stroke-width:2.83469" />
          <path
             id="path3-5"
             data-name="path3"
             d="m 94.07,163.87 -0.71,-1.22 c -1.69,1.09 -3.14,2.52 -4.22,4.2 l 1.23,0.71 c 0.96,-1.47 2.22,-2.73 3.7,-3.68"
             style="stroke-width:2.83469" />
          <path
             id="path4-5"
             data-name="path4"
             d="m 113.31,173.69 h 1.43 c -0.09,-2.06 -0.64,-4.01 -1.55,-5.75 l -1.23,0.71 c 0.79,1.52 1.26,3.23 1.35,5.04"
             style="stroke-width:2.83469" />
          <path
             id="path5-5"
             data-name="path5"
             d="m 100.21,161.9 v -1.42 c -2.07,0.09 -4.03,0.64 -5.76,1.54 l 0.71,1.22 c 1.53,-0.79 3.24,-1.25 5.05,-1.34"
             style="stroke-width:2.83469" />
          <path
             id="path6-5"
             data-name="path6"
             d="m 90.36,181.08 -1.23,0.71 c 1.09,1.68 2.53,3.13 4.22,4.2 l 0.71,-1.22 c -1.48,-0.96 -2.74,-2.21 -3.7,-3.68"
             style="stroke-width:2.83469" />
          <path
             id="path7-5"
             data-name="path7"
             d="m 107.62,184.76 0.71,1.22 c 1.69,-1.09 3.14,-2.52 4.22,-4.2 l -1.23,-0.71 c -0.96,1.47 -2.22,2.73 -3.7,3.68"
             style="stroke-width:2.83469" />
          <path
             id="path8-5"
             data-name="path8"
             d="m 113.31,174.94 c -0.09,1.8 -0.56,3.52 -1.35,5.04 l 1.23,0.71 c 0.9,-1.73 1.45,-3.68 1.55,-5.75 z"
             style="stroke-width:2.83469" />
          <path
             id="path9-5"
             data-name="path9"
             d="m 88.39,174.94 h -1.43 c 0.09,2.06 0.64,4.01 1.55,5.75 l 1.23,-0.71 c -0.79,-1.52 -1.26,-3.23 -1.35,-5.04"
             style="stroke-width:2.83469" />
          <path
             id="path10-5"
             data-name="path10"
             d="m 89.73,168.65 -1.23,-0.71 c -0.91,1.73 -1.46,3.67 -1.55,5.75 h 1.43 c 0.09,-1.8 0.56,-3.52 1.35,-5.04"
             style="stroke-width:2.83469" />
        </g>
        <g
           id="_9mm_Pips-6"
           data-name="9mm_Pips"
           style="stroke-width:2.83469">
          <path
             id="path1-6"
             data-name="path1"
             d="m 171.73,163.24 0.71,-1.22 c -1.74,-0.91 -3.69,-1.45 -5.76,-1.54 v 1.42 c 1.81,0.09 3.53,0.56 5.05,1.34"
             style="stroke-width:2.83469" />
          <path
             id="path2-6"
             data-name="path2"
             d="m 176.53,167.56 1.23,-0.71 c -1.09,-1.68 -2.53,-3.13 -4.22,-4.2 l -0.71,1.22 c 1.48,0.96 2.74,2.21 3.7,3.68"
             style="stroke-width:2.83469" />
          <path
             id="path3-6"
             data-name="path3"
             d="m 159.28,163.87 -0.71,-1.22 c -1.69,1.09 -3.14,2.52 -4.22,4.2 l 1.23,0.71 c 0.96,-1.47 2.22,-2.73 3.7,-3.68"
             style="stroke-width:2.83469" />
          <path
             id="path4-6"
             data-name="path4"
             d="m 178.51,173.69 h 1.43 c -0.09,-2.06 -0.64,-4.01 -1.55,-5.75 l -1.23,0.71 c 0.79,1.52 1.26,3.23 1.35,5.04"
             style="stroke-width:2.83469" />
          <path
             id="path5-6"
             data-name="path5"
             d="m 165.42,161.9 v -1.42 c -2.07,0.09 -4.03,0.64 -5.76,1.54 l 0.71,1.22 c 1.53,-0.79 3.24,-1.25 5.05,-1.34"
             style="stroke-width:2.83469" />
          <path
             id="path6-6"
             data-name="path6"
             d="m 155.57,181.08 -1.23,0.71 c 1.09,1.68 2.53,3.13 4.22,4.2 l 0.71,-1.22 c -1.48,-0.96 -2.74,-2.21 -3.7,-3.68"
             style="stroke-width:2.83469" />
          <path
             id="path7-6"
             data-name="path7"
             d="m 172.83,184.76 0.71,1.22 c 1.69,-1.09 3.14,-2.52 4.22,-4.2 l -1.23,-0.71 c -0.96,1.47 -2.22,2.73 -3.7,3.68"
             style="stroke-width:2.83469" />
          <path
             id="path8-6"
             data-name="path8"
             d="m 178.51,174.94 c -0.09,1.8 -0.56,3.52 -1.35,5.04 l 1.23,0.71 c 0.9,-1.73 1.45,-3.68 1.55,-5.75 z"
             style="stroke-width:2.83469" />
          <path
             id="path9-6"
             data-name="path9"
             d="m 153.59,174.94 h -1.43 c 0.09,2.06 0.64,4.01 1.55,5.75 l 1.23,-0.71 c -0.79,-1.52 -1.26,-3.23 -1.35,-5.04"
             style="stroke-width:2.83469" />
          <path
             id="path10-6"
             data-name="path10"
             d="m 154.94,168.65 -1.23,-0.71 c -0.91,1.73 -1.46,3.67 -1.55,5.75 h 1.43 c 0.09,-1.8 0.56,-3.52 1.35,-5.04"
             style="stroke-width:2.83469" />
        </g>
        <line
           x1="82.260002"
           y1="314.64999"
           x2="114.97"
           y2="314.64999"
           style="fill:none;stroke:#000000;stroke-width:0.99212682;stroke-miterlimit:10;stroke-dasharray:none"
           id="line26" />
        <line
           x1="19.9"
           y1="314.64999"
           x2="52.619999"
           y2="314.64999"
           style="fill:none;stroke:#000000;stroke-width:0.99212682;stroke-miterlimit:10;stroke-dasharray:none"
           id="line27" />
        <path
           d="m 156.54,300.06 v 29.18 H 21.8 c -8.06,0 -14.62,-6.55 -14.62,-14.59 0,-8.04 6.56,-14.59 14.62,-14.59 h 134.74 m 1,-1 H 21.8 c -8.63,0 -15.62,6.98 -15.62,15.59 v 0 c 0,8.61 6.99,15.59 15.62,15.59 h 135.74 z"
           id="path27"
           style="stroke-width:2.83469" />
        <path
           d="m 135.66,314.65 c 0,8.61 6.94,15.59 15.5,15.59 h 4.15 c 0,0 -14.04,0 -14.04,0 h 40.16 c 8,0 14.49,-6.98 14.49,-15.59 0,-8.61 -6.49,-15.59 -14.49,-15.59 h -40.17 c 0,0 14.04,0 14.04,0 h -4.15 c -8.56,0 -15.5,6.98 -15.5,15.59 v 0 z"
           id="path28"
           style="stroke-width:2.83469" />
      </g>
      <g
         id="text"
         style="stroke-width:2.83469">
        <g
           id="g34"
           style="stroke-width:2.83469">
          <path
             d="m 63.88,206.18 h -1.93 l -0.47,-1.2 c -0.17,-0.44 -0.33,-0.76 -0.46,-0.96 -0.14,-0.2 -0.27,-0.33 -0.4,-0.39 -0.13,-0.06 -0.3,-0.09 -0.5,-0.09 h -0.2 v 2.64 h -1.8 v -6.77 h 3.06 c 0.49,0 0.9,0.11 1.21,0.34 0.31,0.23 0.54,0.5 0.68,0.83 0.14,0.33 0.21,0.63 0.21,0.93 0,0.34 -0.06,0.63 -0.17,0.87 -0.12,0.24 -0.24,0.41 -0.37,0.51 -0.13,0.1 -0.27,0.21 -0.43,0.31 0.19,0.13 0.35,0.28 0.47,0.45 0.12,0.17 0.29,0.53 0.51,1.06 l 0.6,1.47 z m -2.44,-4.63 c 0,-0.31 -0.09,-0.53 -0.27,-0.65 -0.18,-0.12 -0.47,-0.19 -0.88,-0.19 h -0.38 v 1.63 h 0.39 c 0.44,0 0.74,-0.05 0.9,-0.16 0.16,-0.11 0.24,-0.32 0.24,-0.63 z"
             id="path29"
             style="stroke-width:2.83469" />
          <path
             d="m 68.57,204.12 h -3.08 c 0.06,0.3 0.21,0.55 0.44,0.74 0.23,0.19 0.5,0.29 0.8,0.29 0.52,0 1.1,-0.17 1.73,-0.5 v 1.09 c -0.23,0.13 -0.5,0.25 -0.82,0.36 -0.32,0.11 -0.73,0.16 -1.23,0.16 -0.54,0 -1,-0.11 -1.38,-0.34 -0.38,-0.23 -0.66,-0.54 -0.85,-0.93 -0.19,-0.39 -0.28,-0.83 -0.28,-1.33 0,-0.5 0.09,-0.92 0.28,-1.31 0.19,-0.39 0.47,-0.69 0.85,-0.91 0.38,-0.22 0.84,-0.33 1.38,-0.33 0.35,0 0.7,0.09 1.03,0.26 0.33,0.17 0.6,0.46 0.82,0.85 0.21,0.4 0.32,0.91 0.32,1.53 v 0.35 z m -1.45,-0.87 c 0,-0.32 -0.07,-0.57 -0.21,-0.76 -0.14,-0.19 -0.34,-0.29 -0.6,-0.29 -0.26,0 -0.47,0.1 -0.62,0.29 -0.16,0.19 -0.24,0.45 -0.24,0.76 z"
             id="path30"
             style="stroke-width:2.83469" />
          <path
             d="m 72.43,205.89 c -0.16,0.09 -0.38,0.17 -0.66,0.25 -0.28,0.08 -0.55,0.12 -0.81,0.12 -1.11,0 -1.67,-0.62 -1.67,-1.86 v -1.98 h -0.7 v -0.31 l 2.08,-2.4 h 0.18 v 1.49 h 1.48 v 1.22 h -1.48 v 1.59 c 0,0.19 0,0.34 0.03,0.45 0.02,0.11 0.08,0.21 0.17,0.29 0.09,0.08 0.23,0.11 0.42,0.11 0.25,0 0.57,-0.12 0.97,-0.35 v 1.37 z"
             id="path31"
             style="stroke-width:2.83469" />
          <path
             d="m 77.37,206.18 h -1.55 v -0.71 c -0.22,0.27 -0.45,0.47 -0.69,0.6 -0.24,0.13 -0.53,0.2 -0.86,0.2 -0.66,0 -1.09,-0.22 -1.28,-0.66 -0.19,-0.44 -0.29,-0.93 -0.29,-1.48 v -2.92 h 1.55 v 2.69 c 0,0.27 0.04,0.51 0.12,0.71 0.08,0.2 0.25,0.3 0.51,0.3 0.23,0 0.41,-0.07 0.54,-0.22 0.13,-0.15 0.27,-0.33 0.41,-0.56 v -2.92 h 1.55 v 4.97 z"
             id="path32"
             style="stroke-width:2.83469" />
          <path
             d="m 81.85,201.48 -0.57,1.76 c -0.24,-0.25 -0.47,-0.38 -0.71,-0.38 -0.22,0 -0.41,0.08 -0.56,0.25 -0.16,0.17 -0.31,0.48 -0.46,0.93 v 2.14 H 78 v -4.97 h 1.55 v 1.2 c 0.1,-0.3 0.27,-0.58 0.52,-0.87 0.25,-0.28 0.54,-0.42 0.87,-0.42 0.17,0 0.33,0.03 0.46,0.09 0.13,0.06 0.29,0.15 0.47,0.27 z"
             id="path33"
             style="stroke-width:2.83469" />
          <path
             d="m 86.66,206.18 h -1.55 v -2.68 c 0,-0.27 -0.04,-0.51 -0.12,-0.71 -0.08,-0.2 -0.25,-0.31 -0.52,-0.31 -0.13,0 -0.24,0.03 -0.33,0.08 -0.1,0.05 -0.18,0.12 -0.26,0.21 -0.08,0.08 -0.14,0.17 -0.19,0.24 -0.05,0.08 -0.1,0.16 -0.16,0.25 v 2.92 h -1.55 v -4.97 h 1.55 v 0.71 c 0.24,-0.3 0.49,-0.5 0.73,-0.62 0.25,-0.12 0.52,-0.18 0.82,-0.18 1.05,0 1.57,0.71 1.57,2.14 v 2.92 z"
             id="path34"
             style="stroke-width:2.83469" />
        </g>
        <g
           id="g38"
           style="stroke-width:2.83469">
          <path
             d="m 66.75,67.96 c 0,0.42 -0.1,0.79 -0.29,1.1 -0.19,0.31 -0.46,0.55 -0.8,0.71 -0.34,0.16 -0.73,0.25 -1.17,0.25 -0.12,0 -0.27,0 -0.45,-0.03 -0.18,-0.03 -0.42,-0.07 -0.71,-0.15 -0.29,-0.08 -0.6,-0.2 -0.93,-0.36 v -1.66 c 0.3,0.21 0.6,0.39 0.89,0.53 0.29,0.14 0.6,0.21 0.93,0.21 0.31,0 0.5,-0.06 0.6,-0.17 0.1,-0.11 0.14,-0.22 0.14,-0.32 0,-0.18 -0.08,-0.34 -0.23,-0.46 -0.15,-0.12 -0.38,-0.25 -0.67,-0.39 -0.33,-0.16 -0.61,-0.33 -0.86,-0.51 -0.25,-0.18 -0.45,-0.41 -0.6,-0.69 -0.16,-0.28 -0.23,-0.6 -0.23,-0.98 0,-0.38 0.08,-0.69 0.24,-0.99 0.16,-0.3 0.4,-0.53 0.72,-0.71 0.32,-0.18 0.72,-0.26 1.19,-0.26 0.33,0 0.64,0.04 0.92,0.11 0.28,0.07 0.51,0.16 0.7,0.25 0.18,0.09 0.31,0.16 0.38,0.21 v 1.59 c -0.24,-0.2 -0.51,-0.38 -0.81,-0.53 -0.3,-0.15 -0.62,-0.23 -0.96,-0.23 -0.22,0 -0.39,0.05 -0.49,0.15 -0.1,0.1 -0.15,0.22 -0.15,0.36 0,0.13 0.05,0.25 0.15,0.35 0.1,0.1 0.28,0.22 0.54,0.36 0.46,0.24 0.82,0.46 1.1,0.66 0.28,0.2 0.49,0.42 0.65,0.68 0.16,0.26 0.23,0.57 0.23,0.95 z"
             id="path35"
             style="stroke-width:2.83469" />
          <path
             d="m 71.85,67.87 h -3.08 c 0.06,0.3 0.21,0.55 0.44,0.74 0.23,0.19 0.5,0.29 0.8,0.29 0.52,0 1.1,-0.17 1.73,-0.5 v 1.09 c -0.23,0.13 -0.5,0.25 -0.82,0.36 -0.32,0.11 -0.73,0.16 -1.23,0.16 -0.54,0 -1,-0.11 -1.38,-0.34 -0.38,-0.23 -0.66,-0.54 -0.85,-0.93 -0.19,-0.39 -0.28,-0.83 -0.28,-1.33 0,-0.5 0.09,-0.93 0.28,-1.31 0.19,-0.38 0.47,-0.69 0.85,-0.91 0.38,-0.22 0.84,-0.33 1.38,-0.33 0.35,0 0.7,0.09 1.03,0.26 0.33,0.17 0.6,0.46 0.82,0.85 0.21,0.4 0.32,0.91 0.32,1.53 v 0.35 z M 70.4,67 c 0,-0.32 -0.07,-0.57 -0.21,-0.76 -0.14,-0.19 -0.34,-0.29 -0.6,-0.29 -0.26,0 -0.47,0.1 -0.62,0.29 -0.15,0.19 -0.24,0.45 -0.24,0.76 z"
             id="path36"
             style="stroke-width:2.83469" />
          <path
             d="m 76.93,69.93 h -1.55 v -2.68 c 0,-0.27 -0.04,-0.51 -0.12,-0.72 -0.08,-0.2 -0.25,-0.31 -0.52,-0.31 -0.13,0 -0.24,0.03 -0.33,0.08 -0.1,0.05 -0.18,0.12 -0.26,0.21 -0.08,0.08 -0.14,0.17 -0.19,0.24 -0.05,0.08 -0.1,0.16 -0.16,0.25 v 2.92 h -1.55 v -4.97 h 1.55 v 0.71 c 0.24,-0.3 0.49,-0.5 0.73,-0.62 0.25,-0.12 0.52,-0.18 0.82,-0.18 1.05,0 1.57,0.71 1.57,2.14 v 2.92 z"
             id="path37"
             style="stroke-width:2.83469" />
          <path
             d="m 82.14,69.93 h -1.55 v -0.45 c -0.16,0.16 -0.34,0.28 -0.52,0.39 -0.18,0.1 -0.43,0.15 -0.75,0.15 -0.32,0 -0.63,-0.09 -0.94,-0.27 -0.31,-0.18 -0.56,-0.46 -0.76,-0.84 -0.2,-0.38 -0.3,-0.86 -0.3,-1.43 0,-0.45 0.07,-0.88 0.22,-1.27 0.15,-0.39 0.38,-0.72 0.7,-0.96 0.32,-0.25 0.71,-0.37 1.17,-0.37 0.29,0 0.52,0.04 0.7,0.11 0.18,0.07 0.33,0.16 0.47,0.27 v -2.09 h 1.55 v 6.77 z m -1.56,-1.58 v -1.9 c -0.18,-0.11 -0.32,-0.2 -0.42,-0.24 -0.1,-0.04 -0.22,-0.07 -0.36,-0.07 -0.24,0 -0.45,0.12 -0.61,0.35 -0.16,0.23 -0.24,0.55 -0.24,0.96 0,0.44 0.08,0.76 0.26,0.96 0.18,0.2 0.37,0.3 0.6,0.3 0.19,0 0.34,-0.03 0.45,-0.1 0.11,-0.07 0.23,-0.15 0.33,-0.25 z"
             id="path38"
             style="stroke-width:2.83469" />
        </g>
        <path
           d="M 23.42,289.3 H 19.8 v -5.41 h 1.44 v 4.12 h 2.18 v 1.3 z"
           id="path39"
           style="stroke-width:2.83469" />
        <path
           d="m 52.35,289.3 h -1.54 l -0.38,-0.96 c -0.14,-0.35 -0.26,-0.61 -0.37,-0.77 -0.11,-0.16 -0.22,-0.27 -0.32,-0.31 -0.1,-0.04 -0.24,-0.07 -0.4,-0.07 h -0.16 v 2.11 h -1.44 v -5.41 h 2.44 c 0.39,0 0.72,0.09 0.97,0.27 0.25,0.18 0.43,0.4 0.54,0.66 0.11,0.26 0.17,0.51 0.17,0.74 0,0.27 -0.05,0.5 -0.14,0.69 -0.09,0.19 -0.19,0.33 -0.29,0.41 -0.1,0.08 -0.22,0.17 -0.35,0.25 0.15,0.1 0.28,0.22 0.38,0.36 0.1,0.14 0.24,0.42 0.41,0.85 z m -1.95,-3.71 c 0,-0.25 -0.07,-0.42 -0.22,-0.52 -0.14,-0.1 -0.38,-0.15 -0.7,-0.15 h -0.3 v 1.3 h 0.31 c 0.35,0 0.59,-0.04 0.72,-0.13 0.13,-0.09 0.19,-0.25 0.19,-0.5 z"
           id="path40"
           style="stroke-width:2.83469" />
        <path
           d="M 88.62,289.3 H 85 v -5.41 h 1.44 v 4.12 h 2.18 v 1.3 z"
           id="path41"
           style="stroke-width:2.83469" />
        <path
           d="m 117.55,289.3 h -1.54 l -0.38,-0.96 c -0.14,-0.35 -0.26,-0.61 -0.37,-0.77 -0.11,-0.16 -0.22,-0.27 -0.32,-0.31 -0.1,-0.04 -0.24,-0.07 -0.4,-0.07 h -0.16 v 2.11 h -1.44 v -5.41 h 2.44 c 0.39,0 0.72,0.09 0.97,0.27 0.25,0.18 0.43,0.4 0.54,0.66 0.11,0.26 0.17,0.51 0.17,0.74 0,0.27 -0.05,0.5 -0.14,0.69 -0.09,0.19 -0.19,0.33 -0.29,0.41 -0.1,0.09 -0.22,0.17 -0.35,0.25 0.15,0.1 0.28,0.22 0.38,0.36 0.1,0.14 0.24,0.42 0.41,0.85 z m -1.95,-3.71 c 0,-0.25 -0.07,-0.42 -0.22,-0.52 -0.14,-0.1 -0.38,-0.15 -0.71,-0.15 h -0.3 v 1.3 h 0.31 c 0.35,0 0.59,-0.04 0.72,-0.13 0.13,-0.09 0.19,-0.25 0.19,-0.5 z"
           id="path42"
           style="stroke-width:2.83469" />
        <path
           d="m 153.81,289.3 h -3.62 v -5.41 h 1.44 v 4.12 h 2.18 v 1.3 z"
           id="path43"
           style="stroke-width:2.83469" />
        <path
           d="m 182.75,289.3 h -1.54 l -0.38,-0.96 c -0.14,-0.35 -0.26,-0.61 -0.37,-0.77 -0.11,-0.16 -0.22,-0.27 -0.32,-0.31 -0.1,-0.04 -0.24,-0.07 -0.4,-0.07 h -0.16 v 2.11 h -1.44 v -5.41 h 2.44 c 0.39,0 0.72,0.09 0.97,0.27 0.25,0.18 0.43,0.4 0.54,0.66 0.11,0.26 0.17,0.51 0.17,0.74 0,0.27 -0.05,0.5 -0.14,0.69 -0.09,0.19 -0.19,0.33 -0.29,0.41 -0.1,0.09 -0.22,0.17 -0.35,0.25 0.15,0.1 0.28,0.22 0.38,0.36 0.1,0.14 0.24,0.42 0.41,0.85 z m -1.95,-3.71 c 0,-0.25 -0.07,-0.42 -0.22,-0.52 -0.14,-0.1 -0.38,-0.15 -0.7,-0.15 h -0.3 v 1.3 h 0.31 c 0.35,0 0.59,-0.04 0.72,-0.13 0.13,-0.09 0.19,-0.25 0.19,-0.5 z"
           id="path44"
           style="stroke-width:2.83469" />
        <path
           d="M 23.42,157.39 H 19.8 v -5.41 h 1.44 v 4.12 h 2.18 v 1.3 z"
           id="path45"
           style="stroke-width:2.83469" />
        <path
           d="m 52.35,157.39 h -1.54 l -0.38,-0.96 c -0.14,-0.35 -0.26,-0.61 -0.37,-0.77 -0.11,-0.16 -0.22,-0.27 -0.32,-0.31 -0.1,-0.05 -0.24,-0.07 -0.4,-0.07 h -0.16 v 2.11 h -1.44 v -5.41 h 2.44 c 0.39,0 0.72,0.09 0.97,0.27 0.25,0.18 0.43,0.4 0.54,0.66 0.11,0.26 0.17,0.51 0.17,0.74 0,0.27 -0.05,0.5 -0.14,0.69 -0.09,0.19 -0.19,0.33 -0.29,0.41 -0.1,0.08 -0.22,0.17 -0.35,0.25 0.15,0.1 0.28,0.22 0.38,0.36 0.1,0.14 0.24,0.42 0.41,0.85 z m -1.95,-3.7 c 0,-0.25 -0.07,-0.42 -0.22,-0.52 -0.14,-0.1 -0.38,-0.15 -0.7,-0.15 h -0.3 v 1.3 h 0.31 c 0.35,0 0.59,-0.04 0.72,-0.13 0.13,-0.09 0.19,-0.25 0.19,-0.5 z"
           id="path46"
           style="stroke-width:2.83469" />
        <path
           d="M 88.62,157.39 H 85 v -5.41 h 1.44 v 4.12 h 2.18 v 1.3 z"
           id="path47"
           style="stroke-width:2.83469" />
        <path
           d="m 117.55,157.39 h -1.54 l -0.38,-0.96 c -0.14,-0.35 -0.26,-0.61 -0.37,-0.77 -0.11,-0.16 -0.22,-0.27 -0.32,-0.31 -0.1,-0.05 -0.24,-0.07 -0.4,-0.07 h -0.16 v 2.11 h -1.44 v -5.41 h 2.44 c 0.39,0 0.72,0.09 0.97,0.27 0.25,0.18 0.43,0.4 0.54,0.66 0.11,0.26 0.17,0.51 0.17,0.74 0,0.27 -0.05,0.5 -0.14,0.69 -0.09,0.19 -0.19,0.33 -0.29,0.41 -0.1,0.09 -0.22,0.17 -0.35,0.25 0.15,0.1 0.28,0.22 0.38,0.36 0.1,0.14 0.24,0.42 0.41,0.85 z m -1.95,-3.7 c 0,-0.25 -0.07,-0.42 -0.22,-0.52 -0.15,-0.1 -0.38,-0.15 -0.71,-0.15 h -0.3 v 1.3 h 0.31 c 0.35,0 0.59,-0.04 0.72,-0.13 0.13,-0.09 0.19,-0.25 0.19,-0.5 z"
           id="path48"
           style="stroke-width:2.83469" />
        <path
           d="m 153.81,157.39 h -3.62 v -5.41 h 1.44 v 4.12 h 2.18 v 1.3 z"
           id="path49"
           style="stroke-width:2.83469" />
        <path
           d="m 182.75,157.39 h -1.54 l -0.38,-0.96 c -0.14,-0.35 -0.26,-0.61 -0.37,-0.77 -0.11,-0.16 -0.22,-0.27 -0.32,-0.31 -0.1,-0.04 -0.24,-0.07 -0.4,-0.07 h -0.16 v 2.11 h -1.44 v -5.41 h 2.44 c 0.39,0 0.72,0.09 0.97,0.27 0.25,0.18 0.43,0.4 0.54,0.66 0.11,0.26 0.17,0.51 0.17,0.74 0,0.27 -0.05,0.5 -0.14,0.69 -0.09,0.19 -0.19,0.33 -0.29,0.41 -0.1,0.09 -0.22,0.17 -0.35,0.25 0.15,0.1 0.28,0.22 0.38,0.36 0.1,0.14 0.24,0.42 0.41,0.85 z m -1.95,-3.7 c 0,-0.25 -0.07,-0.42 -0.22,-0.52 -0.14,-0.1 -0.38,-0.15 -0.7,-0.15 h -0.3 v 1.3 h 0.31 c 0.35,0 0.59,-0.04 0.72,-0.13 0.13,-0.09 0.19,-0.25 0.19,-0.5 z"
           id="path50"
           style="stroke-width:2.83469" />
        <g
           id="g58"
           style="stroke-width:2.83469">
          <path
             d="m 81.48,357.17 h -1.84 l -0.49,-1.51 h -2.59 l -0.49,1.51 h -1.84 l 2.63,-7.44 h 1.99 l 2.62,7.44 z m -2.73,-2.8 -0.87,-2.72 -0.88,2.72 z"
             id="path51"
             style="stroke-width:2.83469" />
          <path
             d="m 88.04,353.84 c 0,0.64 -0.09,1.18 -0.29,1.63 -0.19,0.45 -0.44,0.8 -0.76,1.07 -0.31,0.26 -0.65,0.45 -1.01,0.56 -0.36,0.12 -0.72,0.17 -1.08,0.17 -0.5,0 -1,-0.11 -1.47,-0.32 -0.48,-0.21 -0.88,-0.58 -1.2,-1.1 -0.32,-0.52 -0.48,-1.19 -0.48,-2.01 v -4.11 h 1.79 v 3.53 c 0,0.49 0.06,0.9 0.17,1.22 0.11,0.32 0.27,0.56 0.47,0.7 0.2,0.14 0.44,0.22 0.72,0.22 0.28,0 0.5,-0.07 0.7,-0.22 0.2,-0.15 0.36,-0.38 0.47,-0.7 0.11,-0.32 0.17,-0.72 0.17,-1.21 v -3.54 h 1.8 z"
             id="path52"
             style="stroke-width:2.83469" />
          <path
             d="m 95.73,357.17 h -2.31 l -0.63,-0.93 c 0,0 -0.14,-0.23 -0.37,-0.57 -0.23,-0.34 -0.38,-0.58 -0.46,-0.71 -0.34,0.58 -0.62,1.04 -0.84,1.38 l -0.54,0.84 h -2.27 l 2.53,-3.87 -2.41,-3.57 h 2.29 l 0.41,0.62 c 0.24,0.36 0.52,0.81 0.84,1.35 0.31,-0.57 0.56,-1 0.75,-1.27 l 0.47,-0.7 h 2.25 l -2.32,3.57 2.62,3.87 z"
             id="path53"
             style="stroke-width:2.83469" />
          <path
             d="m 102.42,355.01 c 0,0.46 -0.09,0.87 -0.29,1.21 -0.19,0.34 -0.46,0.6 -0.8,0.78 -0.34,0.18 -0.73,0.27 -1.17,0.27 -0.12,0 -0.27,0 -0.45,-0.03 -0.18,-0.03 -0.42,-0.07 -0.71,-0.16 -0.3,-0.09 -0.61,-0.22 -0.93,-0.4 v -1.83 c 0.3,0.23 0.6,0.43 0.89,0.58 0.29,0.15 0.6,0.23 0.93,0.23 0.31,0 0.5,-0.06 0.59,-0.19 0.09,-0.13 0.14,-0.25 0.14,-0.36 0,-0.2 -0.08,-0.37 -0.23,-0.51 -0.15,-0.14 -0.38,-0.28 -0.67,-0.43 -0.33,-0.17 -0.61,-0.36 -0.86,-0.56 -0.25,-0.2 -0.45,-0.46 -0.6,-0.76 -0.16,-0.3 -0.23,-0.66 -0.23,-1.08 0,-0.42 0.08,-0.76 0.24,-1.09 0.16,-0.32 0.4,-0.58 0.72,-0.78 0.32,-0.19 0.72,-0.29 1.19,-0.29 0.33,0 0.64,0.04 0.92,0.12 0.28,0.08 0.51,0.17 0.7,0.27 0.18,0.1 0.31,0.18 0.38,0.24 v 1.75 c -0.24,-0.22 -0.51,-0.41 -0.81,-0.59 -0.3,-0.17 -0.62,-0.26 -0.96,-0.26 -0.22,0 -0.39,0.05 -0.49,0.16 -0.1,0.11 -0.15,0.24 -0.15,0.4 0,0.15 0.05,0.27 0.15,0.38 0.1,0.11 0.28,0.24 0.54,0.39 0.46,0.27 0.83,0.51 1.1,0.73 0.28,0.21 0.49,0.46 0.65,0.74 0.16,0.28 0.23,0.63 0.23,1.05 z"
             id="path54"
             style="stroke-width:2.83469" />
          <path
             d="m 107.69,357.17 h -4.49 v -7.44 h 4.42 v 1.49 H 105 v 1.36 h 2.5 v 1.5 H 105 v 1.59 h 2.69 z"
             id="path55"
             style="stroke-width:2.83469" />
          <path
             d="m 114.92,357.17 h -1.6 l -3.09,-4.15 v 4.15 h -1.78 v -7.44 h 1.59 l 3.08,4.12 v -4.12 h 1.79 v 7.44 z"
             id="path56"
             style="stroke-width:2.83469" />
          <path
             d="m 122.1,353.59 c 0,0.76 -0.11,1.38 -0.33,1.84 -0.22,0.46 -0.48,0.84 -0.78,1.12 -0.43,0.42 -1.02,0.63 -1.79,0.63 h -3.21 v -7.44 h 2.47 c 0.37,0 0.69,0.02 0.96,0.07 0.26,0.05 0.5,0.12 0.72,0.2 0.21,0.09 0.39,0.19 0.54,0.3 0.15,0.11 0.28,0.23 0.4,0.35 0.2,0.21 0.38,0.45 0.54,0.74 0.15,0.28 0.28,0.61 0.37,0.98 0.09,0.37 0.14,0.78 0.14,1.21 z m -1.83,-0.1 c 0,-0.6 -0.09,-1.08 -0.28,-1.42 -0.18,-0.34 -0.41,-0.56 -0.67,-0.68 -0.26,-0.11 -0.52,-0.17 -0.79,-0.17 h -0.76 v 4.41 h 0.76 c 0.47,0 0.88,-0.14 1.22,-0.42 0.34,-0.28 0.52,-0.85 0.52,-1.72 z"
             id="path57"
             style="stroke-width:2.83469" />
          <path
             d="m 126.93,355.01 c 0,0.46 -0.09,0.87 -0.29,1.21 -0.19,0.34 -0.46,0.6 -0.8,0.78 -0.34,0.18 -0.73,0.27 -1.17,0.27 -0.12,0 -0.27,0 -0.45,-0.03 -0.18,-0.03 -0.42,-0.07 -0.71,-0.16 -0.3,-0.09 -0.61,-0.22 -0.93,-0.4 v -1.83 c 0.3,0.23 0.6,0.43 0.89,0.58 0.29,0.15 0.6,0.23 0.93,0.23 0.31,0 0.5,-0.06 0.59,-0.19 0.09,-0.13 0.14,-0.25 0.14,-0.36 0,-0.2 -0.08,-0.37 -0.23,-0.51 -0.15,-0.14 -0.38,-0.28 -0.67,-0.43 -0.33,-0.17 -0.61,-0.36 -0.86,-0.56 -0.25,-0.2 -0.45,-0.46 -0.6,-0.76 -0.16,-0.3 -0.23,-0.66 -0.23,-1.08 0,-0.42 0.08,-0.76 0.24,-1.09 0.16,-0.32 0.4,-0.58 0.72,-0.78 0.32,-0.19 0.72,-0.29 1.19,-0.29 0.33,0 0.64,0.04 0.92,0.12 0.28,0.08 0.51,0.17 0.7,0.27 0.18,0.1 0.31,0.18 0.38,0.24 v 1.75 c -0.24,-0.22 -0.51,-0.41 -0.81,-0.59 -0.3,-0.17 -0.62,-0.26 -0.96,-0.26 -0.22,0 -0.39,0.05 -0.49,0.16 -0.1,0.11 -0.15,0.24 -0.15,0.4 0,0.15 0.05,0.27 0.15,0.38 0.1,0.11 0.28,0.24 0.54,0.39 0.46,0.27 0.83,0.51 1.1,0.73 0.28,0.21 0.49,0.46 0.65,0.74 0.16,0.28 0.23,0.63 0.23,1.05 z"
             id="path58"
             style="stroke-width:2.83469" />
        </g>
        <g
           id="g61"
           style="stroke-width:2.83469">
          <path
             d="m 17.75,339.67 h -1.44 v -5.41 h 1.44 z"
             id="path59"
             style="stroke-width:2.83469" />
          <path
             d="m 22.2,339.67 h -1.24 v -2.14 c 0,-0.22 -0.03,-0.41 -0.09,-0.57 -0.06,-0.16 -0.2,-0.24 -0.41,-0.24 -0.1,0 -0.19,0.02 -0.27,0.06 -0.08,0.04 -0.15,0.1 -0.21,0.17 -0.06,0.07 -0.11,0.13 -0.15,0.2 -0.04,0.06 -0.08,0.13 -0.13,0.2 v 2.34 h -1.24 v -3.98 h 1.24 v 0.57 c 0.19,-0.24 0.39,-0.4 0.59,-0.5 0.2,-0.1 0.41,-0.14 0.65,-0.14 0.84,0 1.26,0.57 1.26,1.71 v 2.34 z"
             id="path60"
             style="stroke-width:2.83469" />
          <path
             d="m 28.3,339.67 h -3.62 v -5.41 h 1.44 v 4.12 h 2.18 v 1.3 z"
             id="path61"
             style="stroke-width:2.83469" />
        </g>
        <g
           id="g64"
           style="stroke-width:2.83469">
          <path
             d="m 45,339.67 h -1.44 v -5.41 H 45 Z"
             id="path62"
             style="stroke-width:2.83469" />
          <path
             d="m 49.45,339.67 h -1.24 v -2.14 c 0,-0.22 -0.03,-0.41 -0.09,-0.57 -0.06,-0.16 -0.2,-0.24 -0.41,-0.24 -0.1,0 -0.19,0.02 -0.27,0.06 -0.08,0.04 -0.15,0.1 -0.21,0.17 -0.06,0.07 -0.11,0.13 -0.15,0.2 -0.04,0.06 -0.08,0.13 -0.13,0.2 v 2.34 h -1.24 v -3.98 h 1.24 v 0.57 c 0.19,-0.24 0.39,-0.4 0.59,-0.5 0.2,-0.1 0.41,-0.14 0.65,-0.14 0.84,0 1.26,0.57 1.26,1.71 v 2.34 z"
             id="path63"
             style="stroke-width:2.83469" />
          <path
             d="M 56.54,339.67 H 55 l -0.38,-0.96 c -0.14,-0.35 -0.26,-0.61 -0.37,-0.77 -0.11,-0.16 -0.22,-0.27 -0.32,-0.31 -0.1,-0.05 -0.24,-0.07 -0.4,-0.07 h -0.16 v 2.11 h -1.44 v -5.41 h 2.44 c 0.39,0 0.72,0.09 0.97,0.27 0.25,0.18 0.43,0.4 0.54,0.66 0.11,0.26 0.17,0.51 0.17,0.74 0,0.27 -0.05,0.5 -0.14,0.69 -0.09,0.19 -0.19,0.33 -0.29,0.41 -0.1,0.08 -0.22,0.17 -0.35,0.25 0.15,0.1 0.28,0.22 0.38,0.36 0.1,0.14 0.24,0.42 0.41,0.85 z m -1.95,-3.7 c 0,-0.25 -0.07,-0.42 -0.22,-0.52 -0.14,-0.1 -0.38,-0.15 -0.7,-0.15 h -0.3 v 1.3 h 0.31 c 0.35,0 0.59,-0.04 0.72,-0.13 0.13,-0.09 0.19,-0.25 0.19,-0.5 z"
             id="path64"
             style="stroke-width:2.83469" />
        </g>
        <g
           id="g68"
           style="stroke-width:2.83469">
          <path
             d="m 147.92,336.96 c 0,0.5 -0.1,0.97 -0.31,1.39 -0.21,0.42 -0.51,0.76 -0.92,1.01 -0.41,0.25 -0.9,0.38 -1.48,0.38 -0.58,0 -1.09,-0.13 -1.5,-0.39 -0.41,-0.26 -0.71,-0.6 -0.91,-1.03 -0.2,-0.42 -0.3,-0.88 -0.3,-1.36 0,-0.48 0.1,-0.94 0.3,-1.37 0.2,-0.42 0.5,-0.76 0.91,-1.02 0.41,-0.26 0.91,-0.39 1.5,-0.39 0.44,0 0.83,0.07 1.18,0.22 0.35,0.15 0.63,0.35 0.85,0.6 0.22,0.25 0.39,0.55 0.5,0.89 0.12,0.34 0.17,0.69 0.17,1.06 z m -1.46,0 c 0,-0.2 -0.03,-0.39 -0.08,-0.56 -0.05,-0.17 -0.13,-0.31 -0.24,-0.44 -0.11,-0.12 -0.24,-0.22 -0.39,-0.29 -0.15,-0.07 -0.33,-0.1 -0.53,-0.1 -0.38,0 -0.69,0.13 -0.91,0.38 -0.22,0.25 -0.33,0.59 -0.33,1 0,0.41 0.11,0.75 0.33,1.01 0.22,0.26 0.52,0.38 0.91,0.38 0.26,0 0.49,-0.06 0.67,-0.18 0.19,-0.12 0.33,-0.28 0.42,-0.49 0.1,-0.21 0.14,-0.45 0.14,-0.72 z"
             id="path65"
             style="stroke-width:2.83469" />
          <path
             d="m 152.02,339.67 h -1.24 v -0.57 c -0.17,0.21 -0.36,0.37 -0.55,0.48 -0.19,0.11 -0.42,0.16 -0.69,0.16 -0.53,0 -0.87,-0.18 -1.03,-0.53 -0.16,-0.35 -0.23,-0.75 -0.23,-1.19 v -2.34 h 1.24 v 2.15 c 0,0.22 0.03,0.41 0.09,0.57 0.06,0.16 0.2,0.24 0.41,0.24 0.18,0 0.33,-0.06 0.43,-0.18 0.1,-0.12 0.21,-0.27 0.32,-0.45 v -2.34 h 1.24 v 3.98 z"
             id="path66"
             style="stroke-width:2.83469" />
          <path
             d="m 155.29,339.44 c -0.13,0.07 -0.31,0.14 -0.53,0.2 -0.23,0.06 -0.44,0.1 -0.65,0.1 -0.89,0 -1.34,-0.5 -1.34,-1.48 v -1.59 h -0.56 v -0.25 l 1.66,-1.92 h 0.14 v 1.19 h 1.18 v 0.98 h -1.18 v 1.27 c 0,0.15 0,0.27 0.02,0.36 0.02,0.09 0.06,0.17 0.14,0.23 0.07,0.06 0.19,0.09 0.34,0.09 0.2,0 0.46,-0.09 0.78,-0.28 z"
             id="path67"
             style="stroke-width:2.83469" />
          <path
             d="m 161.18,339.67 h -3.62 v -5.41 H 159 v 4.12 h 2.18 v 1.3 z"
             id="path68"
             style="stroke-width:2.83469" />
        </g>
        <g
           id="g76"
           style="stroke-width:2.83469">
          <path
             d="m 91.2,337.17 c 0,0.49 -0.08,0.88 -0.23,1.17 -0.16,0.29 -0.34,0.53 -0.55,0.71 -0.3,0.27 -0.72,0.4 -1.25,0.4 h -2.25 v -4.74 h 1.73 c 0.26,0 0.48,0.02 0.67,0.05 0.19,0.03 0.35,0.07 0.5,0.13 0.15,0.06 0.27,0.12 0.38,0.19 0.1,0.07 0.2,0.14 0.28,0.22 0.14,0.13 0.27,0.29 0.37,0.47 0.11,0.18 0.19,0.39 0.26,0.63 0.06,0.24 0.09,0.49 0.09,0.77 z m -1.28,-0.06 c 0,-0.39 -0.06,-0.69 -0.19,-0.9 -0.13,-0.22 -0.29,-0.36 -0.47,-0.43 -0.18,-0.07 -0.37,-0.11 -0.56,-0.11 h -0.54 v 2.81 h 0.54 c 0.33,0 0.61,-0.09 0.85,-0.27 0.24,-0.18 0.36,-0.54 0.36,-1.1 z"
             id="path69"
             style="stroke-width:2.83469" />
          <path
             d="m 94.24,336.16 -0.4,1.23 c -0.16,-0.18 -0.33,-0.27 -0.5,-0.27 -0.15,0 -0.28,0.06 -0.4,0.18 -0.12,0.12 -0.22,0.33 -0.32,0.65 v 1.5 h -1.08 v -3.48 h 1.08 v 0.84 c 0.07,-0.21 0.19,-0.41 0.36,-0.61 0.17,-0.2 0.38,-0.3 0.61,-0.3 0.12,0 0.23,0.02 0.32,0.06 0.09,0.04 0.2,0.1 0.33,0.19 z"
             id="path70"
             style="stroke-width:2.83469" />
          <path
             d="m 97.62,335.98 -2.08,5.06 h -1.09 l 0.84,-2.04 -1.21,-3.02 h 1.16 l 0.62,1.73 0.71,-1.73 z"
             id="path71"
             style="stroke-width:2.83469" />
          <path
             d="m 102.61,339.46 h -3.17 v -4.74 h 1.26 v 3.6 h 1.91 v 1.13 z"
             id="path72"
             style="stroke-width:2.83469" />
          <path
             d="m 106.06,338.01 h -2.16 c 0.04,0.21 0.14,0.38 0.31,0.52 0.16,0.13 0.35,0.2 0.56,0.2 0.36,0 0.77,-0.12 1.21,-0.35 v 0.76 c -0.16,0.09 -0.35,0.18 -0.58,0.25 -0.23,0.08 -0.51,0.11 -0.86,0.11 -0.38,0 -0.7,-0.08 -0.96,-0.24 -0.26,-0.16 -0.46,-0.38 -0.59,-0.65 -0.13,-0.27 -0.2,-0.58 -0.2,-0.93 0,-0.35 0.07,-0.65 0.2,-0.92 0.13,-0.27 0.33,-0.48 0.59,-0.64 0.26,-0.15 0.59,-0.23 0.96,-0.23 0.25,0 0.49,0.06 0.72,0.18 0.23,0.12 0.42,0.32 0.57,0.6 0.15,0.28 0.22,0.63 0.22,1.07 v 0.25 z m -1.02,-0.61 c 0,-0.22 -0.05,-0.4 -0.15,-0.54 -0.1,-0.13 -0.24,-0.2 -0.42,-0.2 -0.18,0 -0.33,0.07 -0.44,0.2 -0.11,0.13 -0.17,0.31 -0.17,0.53 h 1.17 z"
             id="path73"
             style="stroke-width:2.83469" />
          <path
             d="m 109.57,335.98 -1.39,3.48 h -0.8 l -1.36,-3.48 h 1.16 l 0.63,1.82 0.7,-1.82 h 1.05 z"
             id="path74"
             style="stroke-width:2.83469" />
          <path
             d="m 112.83,338.01 h -2.16 c 0.04,0.21 0.14,0.38 0.31,0.52 0.16,0.13 0.35,0.2 0.56,0.2 0.36,0 0.77,-0.12 1.21,-0.35 v 0.76 c -0.16,0.09 -0.35,0.18 -0.58,0.25 -0.23,0.08 -0.51,0.11 -0.86,0.11 -0.38,0 -0.7,-0.08 -0.96,-0.24 -0.26,-0.16 -0.46,-0.38 -0.59,-0.65 -0.13,-0.27 -0.2,-0.58 -0.2,-0.93 0,-0.35 0.07,-0.65 0.2,-0.92 0.13,-0.27 0.33,-0.48 0.59,-0.64 0.26,-0.15 0.59,-0.23 0.96,-0.23 0.25,0 0.49,0.06 0.72,0.18 0.23,0.12 0.42,0.32 0.57,0.6 0.15,0.28 0.22,0.63 0.22,1.07 v 0.25 z m -1.01,-0.61 c 0,-0.22 -0.05,-0.4 -0.15,-0.54 -0.1,-0.13 -0.24,-0.2 -0.42,-0.2 -0.18,0 -0.33,0.07 -0.44,0.2 -0.11,0.13 -0.17,0.31 -0.17,0.53 h 1.17 z"
             id="path75"
             style="stroke-width:2.83469" />
          <path
             d="m 114.26,339.46 h -1.09 v -4.74 h 1.09 z"
             id="path76"
             style="stroke-width:2.83469" />
        </g>
        <g
           id="g80"
           style="stroke-width:2.83469">
          <path
             d="m 176.21,336.96 c 0,0.5 -0.1,0.97 -0.31,1.39 -0.21,0.42 -0.51,0.76 -0.92,1.01 -0.41,0.25 -0.9,0.38 -1.48,0.38 -0.58,0 -1.09,-0.13 -1.5,-0.39 -0.41,-0.26 -0.71,-0.6 -0.91,-1.03 -0.2,-0.42 -0.3,-0.88 -0.3,-1.36 0,-0.48 0.1,-0.94 0.29,-1.37 0.2,-0.42 0.5,-0.76 0.91,-1.02 0.41,-0.26 0.91,-0.39 1.5,-0.39 0.44,0 0.83,0.07 1.18,0.22 0.35,0.15 0.63,0.35 0.85,0.6 0.22,0.25 0.39,0.55 0.5,0.89 0.12,0.34 0.17,0.69 0.17,1.06 z m -1.46,0 c 0,-0.2 -0.03,-0.39 -0.08,-0.56 -0.05,-0.17 -0.13,-0.31 -0.24,-0.44 -0.11,-0.12 -0.24,-0.22 -0.39,-0.29 -0.15,-0.07 -0.33,-0.1 -0.53,-0.1 -0.38,0 -0.69,0.13 -0.91,0.38 -0.22,0.25 -0.33,0.59 -0.33,1 0,0.41 0.11,0.75 0.33,1.01 0.22,0.26 0.52,0.38 0.91,0.38 0.26,0 0.49,-0.06 0.67,-0.18 0.19,-0.12 0.33,-0.28 0.42,-0.49 0.1,-0.21 0.14,-0.45 0.14,-0.72 z"
             id="path77"
             style="stroke-width:2.83469" />
          <path
             d="m 180.31,339.67 h -1.24 v -0.57 c -0.17,0.21 -0.36,0.37 -0.55,0.48 -0.19,0.11 -0.42,0.16 -0.69,0.16 -0.53,0 -0.87,-0.18 -1.03,-0.53 -0.16,-0.35 -0.23,-0.75 -0.23,-1.19 v -2.34 h 1.24 v 2.15 c 0,0.22 0.03,0.41 0.1,0.57 0.06,0.16 0.2,0.24 0.41,0.24 0.18,0 0.33,-0.06 0.43,-0.18 0.1,-0.12 0.21,-0.27 0.32,-0.45 v -2.34 h 1.24 v 3.98 z"
             id="path78"
             style="stroke-width:2.83469" />
          <path
             d="m 183.58,339.44 c -0.13,0.07 -0.3,0.14 -0.53,0.2 -0.22,0.06 -0.44,0.1 -0.65,0.1 -0.89,0 -1.34,-0.5 -1.34,-1.48 v -1.59 h -0.56 v -0.25 l 1.66,-1.92 h 0.14 v 1.19 h 1.18 v 0.98 h -1.18 v 1.27 c 0,0.15 0,0.27 0.02,0.36 0.02,0.09 0.06,0.17 0.14,0.23 0.07,0.06 0.19,0.09 0.34,0.09 0.2,0 0.46,-0.09 0.78,-0.28 z"
             id="path79"
             style="stroke-width:2.83469" />
          <path
             d="m 190.47,339.67 h -1.54 l -0.38,-0.96 c -0.14,-0.35 -0.26,-0.61 -0.37,-0.77 -0.11,-0.16 -0.22,-0.27 -0.32,-0.31 -0.1,-0.05 -0.24,-0.07 -0.4,-0.07 h -0.16 v 2.11 h -1.44 v -5.41 h 2.44 c 0.39,0 0.72,0.09 0.97,0.27 0.25,0.18 0.43,0.4 0.54,0.66 0.11,0.26 0.17,0.51 0.17,0.74 0,0.27 -0.05,0.5 -0.14,0.69 -0.09,0.19 -0.19,0.33 -0.29,0.41 -0.1,0.09 -0.22,0.17 -0.35,0.25 0.15,0.1 0.28,0.22 0.38,0.36 0.1,0.14 0.24,0.42 0.41,0.85 z m -1.96,-3.7 c 0,-0.25 -0.07,-0.42 -0.22,-0.52 -0.14,-0.1 -0.38,-0.15 -0.7,-0.15 h -0.3 v 1.3 h 0.31 c 0.35,0 0.59,-0.04 0.72,-0.13 0.13,-0.09 0.19,-0.25 0.19,-0.5 z"
             id="path80"
             style="stroke-width:2.83469" />
        </g>
        <g
           id="g81"
           style="stroke-width:2.83469">
          <polygon
             points="34.73,250.64 36.49,250.64 35.62,247.92 "
             id="polygon80"
             style="stroke-width:2.83469" />
          <path
             d="m 35.6,243.04 c -3.91,0 -7.09,3.17 -7.09,7.09 0,3.92 3.17,7.09 7.09,7.09 3.92,0 7.09,-3.17 7.09,-7.09 0,-3.92 -3.17,-7.09 -7.09,-7.09 z m 1.79,10.41 -0.49,-1.51 h -2.59 l -0.49,1.51 h -1.84 l 2.63,-7.44 h 1.99 l 2.62,7.44 h -1.84 z"
             id="path81"
             style="stroke-width:2.83469" />
        </g>
        <g
           id="g84"
           style="stroke-width:2.83469">
          <path
             d="m 101.61,249.26 c 0.18,-0.12 0.27,-0.36 0.27,-0.71 0,-0.35 -0.09,-0.6 -0.28,-0.71 -0.19,-0.12 -0.48,-0.18 -0.88,-0.18 h -0.38 v 1.78 h 0.39 c 0.41,0 0.71,-0.06 0.89,-0.18 z"
             id="path82"
             style="stroke-width:2.83469" />
          <path
             d="m 101.06,250.69 h -0.73 v 1.91 h 0.73 c 0.74,0 1.11,-0.32 1.11,-0.95 0,-0.63 -0.37,-0.96 -1.11,-0.96 z"
             id="path83"
             style="stroke-width:2.83469" />
          <path
             d="m 100.86,243.04 c -3.91,0 -7.09,3.17 -7.09,7.09 0,3.92 3.17,7.09 7.09,7.09 3.92,0 7.09,-3.17 7.09,-7.09 0,-3.92 -3.17,-7.09 -7.09,-7.09 z m 2.59,10.23 c -0.35,0.38 -0.84,0.57 -1.47,0.57 h -3.44 v -7.44 h 2.88 c 0.37,0 0.7,0.04 0.97,0.13 0.28,0.09 0.5,0.21 0.67,0.37 0.17,0.16 0.29,0.34 0.38,0.55 0.08,0.21 0.12,0.44 0.12,0.69 0,0.27 -0.04,0.52 -0.13,0.75 -0.09,0.23 -0.19,0.42 -0.32,0.57 -0.13,0.15 -0.25,0.25 -0.38,0.31 0.41,0.2 0.72,0.45 0.93,0.76 0.21,0.31 0.32,0.7 0.32,1.19 0,0.64 -0.18,1.15 -0.53,1.54 z"
             id="path84"
             style="stroke-width:2.83469" />
        </g>
        <path
           d="m 166,243.04 c -3.91,0 -7.09,3.17 -7.09,7.09 0,3.92 3.17,7.09 7.09,7.09 3.92,0 7.09,-3.17 7.09,-7.09 0,-3.92 -3.17,-7.09 -7.09,-7.09 z m 2.46,10.25 c -0.25,0.16 -0.5,0.29 -0.76,0.39 -0.26,0.1 -0.52,0.17 -0.78,0.21 -0.26,0.04 -0.53,0.06 -0.81,0.06 -0.52,0 -0.98,-0.09 -1.39,-0.27 -0.41,-0.18 -0.77,-0.44 -1.07,-0.79 -0.3,-0.35 -0.53,-0.76 -0.68,-1.22 -0.15,-0.47 -0.23,-0.98 -0.23,-1.54 0,-0.64 0.09,-1.2 0.27,-1.68 0.18,-0.48 0.43,-0.88 0.75,-1.2 0.32,-0.32 0.68,-0.55 1.09,-0.71 0.41,-0.16 0.84,-0.23 1.29,-0.23 0.68,0 1.44,0.19 2.3,0.56 v 1.98 c -0.3,-0.23 -0.59,-0.42 -0.88,-0.57 -0.29,-0.15 -0.63,-0.23 -1.02,-0.23 -0.35,0 -0.67,0.09 -0.97,0.26 -0.3,0.17 -0.54,0.42 -0.73,0.74 -0.18,0.32 -0.28,0.69 -0.28,1.12 0,0.38 0.08,0.72 0.24,1.03 0.16,0.31 0.38,0.56 0.67,0.75 0.28,0.18 0.61,0.28 0.96,0.28 0.29,0 0.56,-0.04 0.82,-0.13 0.26,-0.09 0.47,-0.19 0.65,-0.29 0.18,-0.11 0.36,-0.23 0.54,-0.38 v 1.89 z"
           id="path85"
           style="stroke-width:2.83469" />
        <g
           id="g87"
           style="stroke-width:2.83469">
          <path
             d="m 35.61,106.97 c -3.91,0 -7.09,3.17 -7.09,7.09 0,3.92 3.17,7.09 7.09,7.09 3.92,0 7.09,-3.17 7.09,-7.09 0,-3.92 -3.17,-7.09 -7.09,-7.09 z"
             style="fill:#ededed;stroke-width:2.83469"
             id="path86" />
          <path
             d="m 35.61,121.65 c -4.18,0 -7.59,-3.4 -7.59,-7.59 0,-4.19 3.4,-7.59 7.59,-7.59 4.19,0 7.59,3.4 7.59,7.59 0,4.19 -3.4,7.59 -7.59,7.59 z m 0,-14.18 c -3.63,0 -6.59,2.95 -6.59,6.59 0,3.64 2.96,6.59 6.59,6.59 3.63,0 6.59,-2.96 6.59,-6.59 0,-3.63 -2.96,-6.59 -6.59,-6.59 z"
             id="path87"
             style="stroke-width:2.83469"
             sodipodi:nodetypes="ssssssssss" />
        </g>
        <path
           d="m 39.23,117.38 h -1.84 l -0.49,-1.51 h -2.59 l -0.49,1.51 h -1.84 l 2.63,-7.44 h 1.99 l 2.62,7.44 z m -2.73,-2.8 -0.87,-2.72 -0.88,2.72 z"
           id="path88"
           style="stroke-width:2.83469" />
        <g
           id="g91"
           style="stroke-width:2.83469">
          <g
             id="g90"
             style="stroke-width:2.83469">
            <path
               d="m 100.86,106.97 c -3.91,0 -7.09,3.17 -7.09,7.09 0,3.92 3.17,7.09 7.09,7.09 3.92,0 7.09,-3.17 7.09,-7.09 0,-3.92 -3.17,-7.09 -7.09,-7.09 z"
               style="fill:#ededed;stroke-width:2.83469"
               id="path89" />
            <path
               d="m 100.86,121.65 c -4.18,0 -7.59,-3.4 -7.59,-7.59 0,-4.19 3.4,-7.59 7.59,-7.59 4.19,0 7.59,3.4 7.59,7.59 0,4.19 -3.4,7.59 -7.59,7.59 z m 0,-14.18 c -3.63,0 -6.59,2.95 -6.59,6.59 0,3.64 2.96,6.59 6.59,6.59 3.63,0 6.59,-2.96 6.59,-6.59 0,-3.63 -2.96,-6.59 -6.59,-6.59 z"
               id="path90"
               style="stroke-width:2.83469" />
          </g>
          <path
             d="m 103.98,115.67 c 0,0.64 -0.18,1.15 -0.53,1.54 -0.35,0.38 -0.84,0.58 -1.47,0.58 h -3.44 v -7.44 h 2.88 c 0.37,0 0.7,0.04 0.97,0.13 0.28,0.09 0.5,0.21 0.67,0.37 0.17,0.16 0.29,0.34 0.38,0.55 0.09,0.21 0.12,0.44 0.12,0.69 0,0.27 -0.04,0.52 -0.13,0.75 -0.09,0.23 -0.19,0.42 -0.32,0.57 -0.13,0.15 -0.26,0.25 -0.38,0.31 0.41,0.2 0.72,0.45 0.93,0.76 0.21,0.31 0.32,0.7 0.32,1.19 z m -2.1,-3.19 c 0,-0.36 -0.1,-0.6 -0.29,-0.71 -0.19,-0.12 -0.48,-0.18 -0.88,-0.18 h -0.38 v 1.78 h 0.39 c 0.41,0 0.71,-0.06 0.89,-0.18 0.18,-0.12 0.27,-0.36 0.27,-0.71 z m 0.29,3.1 c 0,-0.64 -0.37,-0.96 -1.11,-0.96 h -0.73 v 1.91 h 0.73 c 0.74,0 1.11,-0.32 1.11,-0.95 z"
             id="path91"
             style="stroke-width:2.83469" />
        </g>
        <g
           id="g94"
           style="stroke-width:2.83469">
          <g
             id="g93"
             style="stroke-width:2.83469">
            <path
               d="m 166.05,106.97 c -3.91,0 -7.09,3.17 -7.09,7.09 0,3.92 3.17,7.09 7.09,7.09 3.92,0 7.09,-3.17 7.09,-7.09 0,-3.92 -3.17,-7.09 -7.09,-7.09 z"
               style="fill:#ededed;stroke-width:2.83469"
               id="path92" />
            <path
               d="m 166.05,121.65 c -4.18,0 -7.59,-3.4 -7.59,-7.59 0,-4.19 3.4,-7.59 7.59,-7.59 4.19,0 7.59,3.4 7.59,7.59 0,4.19 -3.4,7.59 -7.59,7.59 z m 0,-14.18 c -3.63,0 -6.59,2.95 -6.59,6.59 0,3.64 2.96,6.59 6.59,6.59 3.63,0 6.59,-2.96 6.59,-6.59 0,-3.63 -2.96,-6.59 -6.59,-6.59 z"
               id="path93"
               style="stroke-width:2.83469" />
          </g>
          <path
             d="m 168.51,117.23 c -0.25,0.16 -0.5,0.29 -0.76,0.39 -0.26,0.1 -0.52,0.17 -0.78,0.21 -0.26,0.04 -0.53,0.06 -0.81,0.06 -0.52,0 -0.98,-0.09 -1.39,-0.27 -0.41,-0.18 -0.77,-0.44 -1.07,-0.79 -0.3,-0.35 -0.53,-0.76 -0.68,-1.22 -0.15,-0.47 -0.22,-0.98 -0.22,-1.54 0,-0.64 0.09,-1.2 0.27,-1.68 0.18,-0.48 0.43,-0.88 0.75,-1.2 0.32,-0.32 0.68,-0.55 1.09,-0.71 0.41,-0.15 0.84,-0.23 1.29,-0.23 0.68,0 1.44,0.19 2.3,0.56 v 1.98 c -0.3,-0.23 -0.59,-0.42 -0.88,-0.57 -0.29,-0.15 -0.63,-0.23 -1.02,-0.23 -0.35,0 -0.67,0.09 -0.97,0.26 -0.3,0.17 -0.54,0.42 -0.72,0.74 -0.18,0.32 -0.28,0.69 -0.28,1.12 0,0.38 0.08,0.72 0.24,1.03 0.16,0.31 0.38,0.56 0.67,0.75 0.29,0.19 0.61,0.28 0.96,0.28 0.29,0 0.56,-0.04 0.82,-0.13 0.26,-0.09 0.47,-0.19 0.65,-0.29 0.18,-0.11 0.36,-0.23 0.54,-0.38 v 1.89 z"
             id="path94"
             style="stroke-width:2.83469" />
        </g>
        <g
           id="g98"
           style="stroke-width:2.83469">
          <path
             d="m 16.07,54.66 c 0,0.2 -0.03,0.4 -0.09,0.59 -0.06,0.19 -0.16,0.37 -0.29,0.54 -0.13,0.17 -0.32,0.3 -0.55,0.4 -0.23,0.1 -0.5,0.15 -0.81,0.15 h -0.94 v 2.03 h -1.44 v -5.41 h 2.38 c 0.31,0 0.58,0.05 0.81,0.16 0.23,0.1 0.41,0.24 0.55,0.41 0.14,0.17 0.23,0.35 0.29,0.54 0.06,0.2 0.09,0.39 0.09,0.6 z m -1.47,0.01 c 0,-0.26 -0.07,-0.43 -0.2,-0.53 C 14.27,54.04 14.03,54 13.68,54 h -0.3 v 1.3 h 0.31 c 0.24,0 0.42,-0.02 0.55,-0.05 0.13,-0.03 0.22,-0.1 0.28,-0.19 0.06,-0.09 0.09,-0.22 0.09,-0.39 z"
             id="path95"
             style="stroke-width:2.83469" />
          <path
             d="m 20.25,56.38 c 0,0.4 -0.08,0.75 -0.23,1.06 -0.15,0.31 -0.38,0.55 -0.68,0.73 -0.3,0.18 -0.67,0.27 -1.1,0.27 -0.43,0 -0.8,-0.09 -1.1,-0.27 -0.3,-0.18 -0.53,-0.42 -0.68,-0.73 -0.15,-0.31 -0.23,-0.66 -0.23,-1.06 0,-0.3 0.04,-0.57 0.13,-0.82 0.08,-0.24 0.21,-0.46 0.38,-0.65 0.17,-0.19 0.38,-0.33 0.63,-0.44 0.25,-0.1 0.54,-0.15 0.87,-0.15 0.33,0 0.62,0.05 0.88,0.15 0.25,0.1 0.46,0.25 0.63,0.43 0.17,0.18 0.29,0.4 0.38,0.65 0.09,0.25 0.13,0.52 0.13,0.82 z m -1.31,0 c 0,-0.31 -0.06,-0.56 -0.18,-0.74 -0.12,-0.18 -0.3,-0.27 -0.52,-0.27 -0.22,0 -0.4,0.09 -0.52,0.27 -0.12,0.18 -0.18,0.43 -0.18,0.74 0,0.31 0.06,0.56 0.18,0.74 0.12,0.18 0.29,0.27 0.52,0.27 0.23,0 0.4,-0.09 0.52,-0.27 0.12,-0.18 0.18,-0.43 0.18,-0.74 z"
             id="path96"
             style="stroke-width:2.83469" />
          <path
             d="m 23.34,57.21 c 0,0.36 -0.12,0.66 -0.35,0.89 -0.23,0.23 -0.58,0.34 -1.05,0.34 -0.26,0 -0.49,-0.03 -0.69,-0.08 -0.2,-0.05 -0.42,-0.13 -0.66,-0.23 v -1 c 0.21,0.14 0.39,0.24 0.54,0.31 0.15,0.07 0.32,0.11 0.51,0.11 0.31,0 0.46,-0.1 0.46,-0.29 0,-0.06 -0.02,-0.12 -0.07,-0.17 -0.04,-0.05 -0.12,-0.11 -0.23,-0.17 -0.11,-0.06 -0.26,-0.14 -0.45,-0.23 -0.23,-0.11 -0.42,-0.27 -0.58,-0.46 -0.16,-0.19 -0.24,-0.43 -0.24,-0.71 0,-0.2 0.05,-0.39 0.16,-0.57 0.11,-0.18 0.27,-0.33 0.48,-0.45 0.21,-0.12 0.48,-0.17 0.78,-0.17 0.07,0 0.17,0 0.28,0.02 0.11,0.02 0.26,0.04 0.43,0.09 0.17,0.05 0.34,0.12 0.49,0.21 v 0.97 c -0.07,-0.05 -0.13,-0.09 -0.18,-0.12 -0.05,-0.03 -0.12,-0.07 -0.2,-0.11 -0.08,-0.04 -0.18,-0.08 -0.29,-0.11 -0.11,-0.03 -0.23,-0.05 -0.34,-0.05 -0.14,0 -0.24,0.03 -0.29,0.09 -0.05,0.06 -0.08,0.12 -0.08,0.19 0,0.07 0.03,0.13 0.08,0.18 0.06,0.06 0.18,0.13 0.37,0.21 0.28,0.12 0.5,0.24 0.66,0.37 0.16,0.13 0.28,0.27 0.35,0.42 0.07,0.15 0.1,0.33 0.1,0.54 z"
             id="path97"
             style="stroke-width:2.83469" />
          <path
             d="m 26.49,58.14 c -0.13,0.07 -0.31,0.14 -0.53,0.2 -0.22,0.06 -0.44,0.1 -0.65,0.1 -0.89,0 -1.34,-0.49 -1.34,-1.48 v -1.59 h -0.56 v -0.25 l 1.66,-1.92 h 0.14 v 1.19 h 1.18 v 0.98 h -1.18 v 1.27 c 0,0.15 0,0.27 0.02,0.36 0.02,0.09 0.06,0.17 0.14,0.23 0.07,0.06 0.19,0.09 0.34,0.09 0.2,0 0.46,-0.09 0.78,-0.28 z"
             id="path98"
             style="stroke-width:2.83469" />
        </g>
        <g
           id="g101"
           style="stroke-width:2.83469">
          <path
             d="m 17.7,26.39 c 0,0.2 -0.03,0.4 -0.09,0.59 -0.06,0.19 -0.16,0.37 -0.29,0.54 -0.13,0.17 -0.32,0.3 -0.55,0.4 -0.23,0.1 -0.5,0.15 -0.81,0.15 h -0.94 v 2.03 h -1.44 v -5.41 h 2.38 c 0.31,0 0.58,0.05 0.81,0.16 0.23,0.1 0.41,0.24 0.55,0.41 0.14,0.17 0.23,0.35 0.29,0.54 0.06,0.2 0.09,0.39 0.09,0.6 z m -1.46,0.01 c 0,-0.26 -0.07,-0.43 -0.2,-0.53 -0.13,-0.1 -0.37,-0.14 -0.72,-0.14 h -0.3 v 1.3 h 0.31 c 0.24,0 0.42,-0.02 0.55,-0.05 0.13,-0.03 0.22,-0.1 0.28,-0.19 0.06,-0.09 0.09,-0.22 0.09,-0.39 z"
             id="path99"
             style="stroke-width:2.83469" />
          <path
             d="m 21.09,26.34 -0.46,1.41 c -0.19,-0.2 -0.38,-0.3 -0.57,-0.3 -0.17,0 -0.32,0.07 -0.45,0.2 -0.13,0.13 -0.25,0.38 -0.37,0.74 V 30.1 H 18 v -3.98 h 1.24 v 0.96 c 0.08,-0.24 0.22,-0.47 0.41,-0.69 0.2,-0.23 0.43,-0.34 0.69,-0.34 0.14,0 0.26,0.02 0.37,0.07 0.1,0.05 0.23,0.12 0.37,0.21 z"
             id="path100"
             style="stroke-width:2.83469" />
          <path
             d="m 24.79,28.46 h -2.46 c 0.05,0.24 0.17,0.44 0.35,0.59 0.18,0.15 0.4,0.23 0.64,0.23 0.42,0 0.88,-0.13 1.38,-0.4 v 0.87 c -0.18,0.11 -0.4,0.2 -0.66,0.29 -0.26,0.09 -0.59,0.13 -0.98,0.13 -0.43,0 -0.8,-0.09 -1.1,-0.27 -0.3,-0.18 -0.53,-0.43 -0.68,-0.74 -0.15,-0.31 -0.23,-0.67 -0.23,-1.06 0,-0.39 0.08,-0.74 0.23,-1.05 0.15,-0.31 0.38,-0.55 0.68,-0.73 0.3,-0.18 0.67,-0.26 1.1,-0.26 0.28,0 0.56,0.07 0.82,0.21 0.26,0.14 0.48,0.37 0.65,0.68 0.17,0.32 0.26,0.72 0.26,1.22 v 0.28 z m -1.16,-0.7 c 0,-0.26 -0.06,-0.46 -0.17,-0.61 -0.11,-0.15 -0.27,-0.23 -0.48,-0.23 -0.21,0 -0.37,0.08 -0.5,0.23 -0.13,0.15 -0.19,0.36 -0.19,0.61 z"
             id="path101"
             style="stroke-width:2.83469" />
        </g>
        <g
           id="g105"
           style="stroke-width:2.83469">
          <path
             d="m 81.26,54.66 c 0,0.2 -0.03,0.4 -0.09,0.59 -0.06,0.19 -0.16,0.37 -0.29,0.54 -0.13,0.17 -0.32,0.3 -0.55,0.4 -0.23,0.1 -0.5,0.15 -0.81,0.15 h -0.94 v 2.03 h -1.44 v -5.41 h 2.38 c 0.31,0 0.58,0.05 0.81,0.16 0.23,0.1 0.41,0.24 0.55,0.41 0.14,0.17 0.23,0.35 0.29,0.54 0.06,0.2 0.09,0.39 0.09,0.6 z m -1.46,0.01 c 0,-0.26 -0.07,-0.43 -0.2,-0.53 C 79.47,54.04 79.23,54 78.88,54 h -0.3 v 1.3 h 0.31 c 0.24,0 0.42,-0.02 0.55,-0.05 0.13,-0.03 0.22,-0.1 0.28,-0.19 0.06,-0.09 0.09,-0.22 0.09,-0.39 z"
             id="path102"
             style="stroke-width:2.83469" />
          <path
             d="m 85.44,56.38 c 0,0.4 -0.08,0.75 -0.23,1.06 -0.15,0.31 -0.38,0.55 -0.68,0.73 -0.3,0.18 -0.67,0.27 -1.1,0.27 -0.43,0 -0.8,-0.09 -1.1,-0.27 -0.3,-0.18 -0.53,-0.42 -0.68,-0.73 -0.15,-0.31 -0.23,-0.66 -0.23,-1.06 0,-0.3 0.04,-0.57 0.13,-0.82 0.08,-0.24 0.21,-0.46 0.38,-0.65 0.17,-0.19 0.38,-0.33 0.63,-0.44 0.25,-0.1 0.54,-0.15 0.87,-0.15 0.33,0 0.62,0.05 0.88,0.15 0.25,0.1 0.46,0.25 0.63,0.43 0.17,0.18 0.29,0.4 0.38,0.65 0.09,0.25 0.13,0.52 0.13,0.82 z m -1.3,0 c 0,-0.31 -0.06,-0.56 -0.18,-0.74 -0.12,-0.18 -0.3,-0.27 -0.52,-0.27 -0.22,0 -0.4,0.09 -0.52,0.27 -0.12,0.18 -0.18,0.43 -0.18,0.74 0,0.31 0.06,0.56 0.18,0.74 0.12,0.18 0.29,0.27 0.52,0.27 0.23,0 0.4,-0.09 0.52,-0.27 0.12,-0.18 0.18,-0.43 0.18,-0.74 z"
             id="path103"
             style="stroke-width:2.83469" />
          <path
             d="m 88.54,57.21 c 0,0.36 -0.12,0.66 -0.35,0.89 -0.23,0.23 -0.58,0.34 -1.05,0.34 -0.26,0 -0.49,-0.03 -0.69,-0.08 -0.2,-0.05 -0.42,-0.13 -0.66,-0.23 v -1 c 0.21,0.14 0.39,0.24 0.54,0.31 0.15,0.07 0.32,0.11 0.51,0.11 0.31,0 0.46,-0.1 0.46,-0.29 0,-0.06 -0.02,-0.12 -0.07,-0.17 -0.04,-0.05 -0.12,-0.11 -0.23,-0.17 -0.11,-0.06 -0.26,-0.14 -0.45,-0.23 -0.23,-0.11 -0.42,-0.27 -0.58,-0.46 -0.16,-0.19 -0.24,-0.43 -0.24,-0.71 0,-0.2 0.05,-0.39 0.16,-0.57 0.11,-0.18 0.27,-0.33 0.48,-0.45 0.21,-0.12 0.48,-0.17 0.78,-0.17 0.07,0 0.17,0 0.28,0.02 0.11,0.02 0.26,0.04 0.43,0.09 0.17,0.05 0.34,0.12 0.49,0.21 v 0.97 c -0.07,-0.05 -0.13,-0.09 -0.18,-0.12 -0.05,-0.03 -0.12,-0.07 -0.2,-0.11 -0.08,-0.04 -0.18,-0.08 -0.29,-0.11 -0.11,-0.03 -0.23,-0.05 -0.34,-0.05 -0.14,0 -0.24,0.03 -0.29,0.09 -0.05,0.06 -0.08,0.12 -0.08,0.19 0,0.07 0.03,0.13 0.08,0.18 0.06,0.06 0.18,0.13 0.37,0.21 0.28,0.12 0.5,0.24 0.66,0.37 0.16,0.13 0.28,0.27 0.35,0.42 0.07,0.15 0.1,0.33 0.1,0.54 z"
             id="path104"
             style="stroke-width:2.83469" />
          <path
             d="m 91.69,58.14 c -0.13,0.07 -0.31,0.14 -0.53,0.2 -0.22,0.06 -0.44,0.1 -0.65,0.1 -0.89,0 -1.34,-0.49 -1.34,-1.48 v -1.59 h -0.56 v -0.25 l 1.66,-1.92 h 0.14 v 1.19 h 1.18 v 0.98 h -1.18 v 1.27 c 0,0.15 0,0.27 0.02,0.36 0.02,0.09 0.06,0.17 0.14,0.23 0.07,0.06 0.19,0.09 0.34,0.09 0.2,0 0.46,-0.09 0.78,-0.28 z"
             id="path105"
             style="stroke-width:2.83469" />
        </g>
        <g
           id="g108"
           style="stroke-width:2.83469">
          <path
             d="m 82.9,26.39 c 0,0.2 -0.03,0.4 -0.09,0.59 -0.06,0.19 -0.16,0.37 -0.29,0.54 -0.13,0.17 -0.32,0.3 -0.55,0.4 -0.23,0.1 -0.5,0.15 -0.81,0.15 h -0.94 v 2.03 h -1.44 v -5.41 h 2.38 c 0.31,0 0.58,0.05 0.81,0.16 0.23,0.1 0.41,0.24 0.55,0.41 0.14,0.17 0.23,0.35 0.29,0.54 0.06,0.2 0.09,0.39 0.09,0.6 z m -1.47,0.01 c 0,-0.26 -0.07,-0.43 -0.2,-0.53 -0.13,-0.1 -0.37,-0.14 -0.72,-0.14 h -0.3 v 1.3 h 0.31 c 0.24,0 0.42,-0.02 0.55,-0.05 0.13,-0.03 0.22,-0.1 0.28,-0.19 0.06,-0.09 0.09,-0.22 0.09,-0.39 z"
             id="path106"
             style="stroke-width:2.83469" />
          <path
             d="m 86.29,26.34 -0.46,1.41 c -0.19,-0.2 -0.38,-0.3 -0.57,-0.3 -0.17,0 -0.32,0.07 -0.45,0.2 -0.13,0.13 -0.25,0.38 -0.37,0.74 V 30.1 H 83.2 v -3.98 h 1.24 v 0.96 c 0.08,-0.24 0.22,-0.47 0.41,-0.69 0.2,-0.23 0.43,-0.34 0.69,-0.34 0.14,0 0.26,0.02 0.37,0.07 0.1,0.05 0.23,0.12 0.37,0.21 z"
             id="path107"
             style="stroke-width:2.83469" />
          <path
             d="m 89.99,28.46 h -2.46 c 0.05,0.24 0.17,0.44 0.35,0.59 0.18,0.15 0.4,0.23 0.64,0.23 0.42,0 0.88,-0.13 1.38,-0.4 v 0.87 c -0.18,0.11 -0.4,0.2 -0.66,0.29 -0.26,0.09 -0.59,0.13 -0.98,0.13 -0.43,0 -0.8,-0.09 -1.1,-0.27 -0.3,-0.18 -0.53,-0.43 -0.68,-0.74 -0.15,-0.31 -0.23,-0.67 -0.23,-1.06 0,-0.39 0.08,-0.74 0.23,-1.05 0.15,-0.31 0.38,-0.55 0.68,-0.73 0.3,-0.18 0.67,-0.26 1.1,-0.26 0.28,0 0.56,0.07 0.82,0.21 0.26,0.14 0.48,0.37 0.65,0.68 0.17,0.32 0.26,0.72 0.26,1.22 v 0.28 z m -1.16,-0.7 c 0,-0.26 -0.06,-0.46 -0.17,-0.61 -0.11,-0.15 -0.27,-0.23 -0.48,-0.23 -0.21,0 -0.37,0.08 -0.5,0.23 -0.13,0.15 -0.19,0.36 -0.19,0.61 z"
             id="path108"
             style="stroke-width:2.83469" />
        </g>
        <g
           id="g112"
           style="stroke-width:2.83469">
          <path
             d="m 146.46,54.66 c 0,0.2 -0.03,0.4 -0.09,0.59 -0.06,0.19 -0.16,0.37 -0.29,0.54 -0.13,0.17 -0.32,0.3 -0.55,0.4 -0.23,0.1 -0.5,0.15 -0.81,0.15 h -0.94 v 2.03 h -1.44 v -5.41 h 2.38 c 0.31,0 0.58,0.05 0.81,0.16 0.23,0.1 0.41,0.24 0.55,0.41 0.14,0.17 0.23,0.35 0.29,0.54 0.06,0.19 0.09,0.39 0.09,0.6 z M 145,54.67 c 0,-0.26 -0.07,-0.43 -0.2,-0.53 -0.13,-0.1 -0.37,-0.14 -0.72,-0.14 h -0.3 v 1.3 h 0.31 c 0.24,0 0.42,-0.02 0.55,-0.05 0.13,-0.03 0.22,-0.1 0.28,-0.19 0.06,-0.09 0.09,-0.22 0.09,-0.39 z"
             id="path109"
             style="stroke-width:2.83469" />
          <path
             d="m 150.64,56.38 c 0,0.4 -0.08,0.75 -0.23,1.06 -0.15,0.31 -0.38,0.55 -0.68,0.73 -0.3,0.18 -0.67,0.27 -1.1,0.27 -0.43,0 -0.8,-0.09 -1.1,-0.27 -0.3,-0.18 -0.53,-0.42 -0.68,-0.73 -0.15,-0.31 -0.22,-0.66 -0.22,-1.06 0,-0.3 0.04,-0.57 0.12,-0.82 0.08,-0.25 0.21,-0.46 0.38,-0.65 0.17,-0.19 0.38,-0.33 0.63,-0.44 0.25,-0.11 0.54,-0.15 0.87,-0.15 0.33,0 0.62,0.05 0.88,0.15 0.25,0.1 0.46,0.25 0.63,0.43 0.17,0.18 0.29,0.4 0.38,0.65 0.09,0.25 0.13,0.52 0.13,0.82 z m -1.3,0 c 0,-0.31 -0.06,-0.56 -0.18,-0.74 -0.12,-0.18 -0.3,-0.27 -0.52,-0.27 -0.22,0 -0.4,0.09 -0.52,0.27 -0.12,0.18 -0.18,0.43 -0.18,0.74 0,0.31 0.06,0.56 0.18,0.74 0.12,0.18 0.29,0.27 0.52,0.27 0.23,0 0.4,-0.09 0.52,-0.27 0.12,-0.18 0.18,-0.43 0.18,-0.74 z"
             id="path110"
             style="stroke-width:2.83469" />
          <path
             d="m 153.74,57.21 c 0,0.36 -0.12,0.66 -0.35,0.89 -0.23,0.23 -0.58,0.34 -1.05,0.34 -0.26,0 -0.49,-0.03 -0.69,-0.08 -0.2,-0.05 -0.42,-0.13 -0.66,-0.23 v -1 c 0.21,0.14 0.39,0.24 0.54,0.31 0.15,0.07 0.32,0.11 0.51,0.11 0.31,0 0.46,-0.1 0.46,-0.29 0,-0.06 -0.02,-0.12 -0.07,-0.17 -0.05,-0.05 -0.12,-0.11 -0.23,-0.17 -0.11,-0.06 -0.26,-0.14 -0.45,-0.23 -0.23,-0.11 -0.42,-0.27 -0.58,-0.46 -0.16,-0.19 -0.24,-0.43 -0.24,-0.71 0,-0.2 0.05,-0.39 0.16,-0.57 0.11,-0.18 0.27,-0.33 0.48,-0.45 0.22,-0.12 0.48,-0.17 0.78,-0.17 0.07,0 0.17,0 0.28,0.02 0.11,0.02 0.26,0.04 0.43,0.09 0.17,0.05 0.34,0.12 0.49,0.21 v 0.97 c -0.07,-0.05 -0.13,-0.09 -0.18,-0.12 -0.05,-0.03 -0.12,-0.07 -0.2,-0.11 -0.08,-0.04 -0.18,-0.08 -0.29,-0.11 -0.11,-0.03 -0.22,-0.05 -0.34,-0.05 -0.14,0 -0.24,0.03 -0.29,0.09 -0.05,0.06 -0.08,0.12 -0.08,0.19 0,0.07 0.03,0.13 0.08,0.18 0.06,0.06 0.18,0.13 0.37,0.21 0.28,0.12 0.5,0.24 0.66,0.37 0.16,0.13 0.28,0.27 0.35,0.42 0.07,0.15 0.1,0.33 0.1,0.54 z"
             id="path111"
             style="stroke-width:2.83469" />
          <path
             d="m 156.89,58.14 c -0.13,0.07 -0.31,0.14 -0.53,0.2 -0.22,0.06 -0.44,0.1 -0.65,0.1 -0.89,0 -1.34,-0.49 -1.34,-1.48 v -1.59 h -0.56 v -0.25 l 1.66,-1.92 h 0.14 v 1.19 h 1.18 v 0.98 h -1.18 v 1.27 c 0,0.15 0,0.27 0.02,0.36 0.02,0.09 0.06,0.17 0.14,0.23 0.08,0.06 0.19,0.09 0.34,0.09 0.2,0 0.46,-0.09 0.78,-0.28 z"
             id="path112"
             style="stroke-width:2.83469" />
        </g>
        <g
           id="g115"
           style="stroke-width:2.83469">
          <path
             d="m 148.09,26.39 c 0,0.2 -0.03,0.4 -0.09,0.59 -0.06,0.19 -0.16,0.37 -0.29,0.54 -0.13,0.17 -0.32,0.3 -0.55,0.4 -0.23,0.1 -0.5,0.15 -0.81,0.15 h -0.94 v 2.03 h -1.44 v -5.41 h 2.38 c 0.31,0 0.58,0.05 0.81,0.16 0.23,0.1 0.41,0.24 0.55,0.41 0.14,0.17 0.23,0.35 0.29,0.54 0.06,0.19 0.09,0.39 0.09,0.6 z m -1.46,0.01 c 0,-0.26 -0.07,-0.43 -0.2,-0.53 -0.13,-0.1 -0.37,-0.14 -0.72,-0.14 h -0.3 v 1.3 h 0.31 c 0.24,0 0.42,-0.02 0.55,-0.05 0.13,-0.03 0.22,-0.1 0.28,-0.19 0.06,-0.09 0.09,-0.22 0.09,-0.39 z"
             id="path113"
             style="stroke-width:2.83469" />
          <path
             d="m 151.48,26.34 -0.46,1.41 c -0.19,-0.2 -0.38,-0.3 -0.57,-0.3 -0.17,0 -0.33,0.07 -0.45,0.2 -0.12,0.13 -0.25,0.38 -0.37,0.74 v 1.71 h -1.24 v -3.98 h 1.24 v 0.96 c 0.08,-0.24 0.22,-0.47 0.41,-0.69 0.2,-0.23 0.43,-0.34 0.69,-0.34 0.14,0 0.26,0.02 0.37,0.07 0.1,0.05 0.23,0.12 0.37,0.21 z"
             id="path114"
             style="stroke-width:2.83469" />
          <path
             d="m 155.19,28.46 h -2.46 c 0.05,0.24 0.17,0.44 0.35,0.59 0.19,0.15 0.4,0.23 0.64,0.23 0.42,0 0.88,-0.13 1.38,-0.4 v 0.87 c -0.18,0.11 -0.4,0.2 -0.66,0.29 -0.26,0.09 -0.59,0.13 -0.99,0.13 -0.43,0 -0.8,-0.09 -1.1,-0.27 -0.3,-0.18 -0.53,-0.43 -0.68,-0.74 -0.15,-0.31 -0.23,-0.67 -0.23,-1.06 0,-0.39 0.08,-0.74 0.23,-1.05 0.15,-0.31 0.38,-0.55 0.68,-0.73 0.3,-0.18 0.67,-0.26 1.1,-0.26 0.28,0 0.56,0.07 0.82,0.21 0.26,0.14 0.48,0.37 0.65,0.68 0.17,0.31 0.26,0.72 0.26,1.22 v 0.28 z m -1.16,-0.7 c 0,-0.26 -0.06,-0.46 -0.17,-0.61 -0.11,-0.15 -0.27,-0.23 -0.48,-0.23 -0.21,0 -0.37,0.08 -0.5,0.23 -0.13,0.15 -0.19,0.36 -0.19,0.61 z"
             id="path115"
             style="stroke-width:2.83469" />
        </g>
      </g>
    </g>
  </g>
  <g
     inkscape:groupmode="layer"
     id="layer1"
     inkscape:label="components"
     style="display:none"
     sodipodi:insensitive="true">
    <circle
       id="AudioRightOut"
       cx="63.700081"
       cy="110.99978"
       r="4.0004368"
       style="fill:#0000ff;stroke-width:0.999998"
       data-name="Audio Right Out" />
    <circle
       id="AudioLeftOut"
       cx="53.497906"
       cy="110.99978"
       r="4.0004368"
       style="fill:#0000ff;stroke-width:0.999998"
       data-name="Audio Left Out" />
    <circle
       id="DryLevelCvIn"
       cx="40.498253"
       cy="110.99978"
       r="4.0004368"
       style="fill:#00ff00;stroke-width:0.999998"
       data-name="Dry Level CV In" />
    <circle
       id="DryLevel"
       cx="28.997875"
       cy="110.99978"
       r="2.998564"
       style="fill:#ff0000;stroke-width:0.999998"
       data-name="Dry Level" />
    <circle
       id="AudioRightIn"
       cx="17.599806"
       cy="110.99978"
       r="4.0004368"
       style="fill:#00ff00;stroke-width:0.999998"
       data-name="Audio Right In" />
    <circle
       id="AudioLeftIn"
       cx="7.7997937"
       cy="110.99978"
       r="4.0004368"
       style="fill:#00ff00;stroke-width:0.999998"
       data-name="Audio Left In" />
    <circle
       id="CReturnRightIn"
       cx="63.558971"
       cy="94.998039"
       r="4.0004368"
       style="fill:#00ff00;stroke-width:0.999998"
       data-name="Return C Right In" />
    <circle
       id="CReturnLeftIn"
       cx="53.550823"
       cy="94.998039"
       r="4.0004368"
       style="fill:#00ff00;stroke-width:0.999998"
       data-name="Return C Left In" />
    <circle
       id="BReturnRightIn"
       cx="40.547642"
       cy="94.998039"
       r="4.0004368"
       style="fill:#00ff00;stroke-width:0.999998"
       data-name="Return B Right In" />
    <circle
       id="BReturnLeftIn"
       cx="30.550074"
       cy="94.998039"
       r="4.0004368"
       style="fill:#00ff00;stroke-width:0.999998"
       data-name="Return B Left In" />
    <circle
       id="AReturnRightIn"
       cx="17.550417"
       cy="94.998039"
       r="4.0004368"
       style="fill:#00ff00;stroke-width:0.999998"
       data-name="Return A Right In" />
    <circle
       id="AReturnLeftIn"
       cx="7.5493255"
       cy="94.998039"
       r="4.0004368"
       style="fill:#00ff00;stroke-width:0.999998"
       data-name="Return A Left In" />
    <circle
       id="CReturnCvIn"
       cx="58.598991"
       cy="78.999817"
       r="4.0004368"
       style="fill:#00ff00;stroke-width:0.999998"
       data-name="Return C CV In" />
    <circle
       id="BReturnCvIn"
       cx="35.548855"
       cy="78.999817"
       r="4.0004368"
       style="fill:#00ff00;stroke-width:0.999998"
       data-name="Return B CV In" />
    <circle
       id="AReturnCvIn"
       cx="12.6998"
       cy="78.999817"
       r="4.0004368"
       style="fill:#00ff00;stroke-width:0.999998"
       data-name="Return A CV In" />
    <circle
       id="CReturnLED"
       cx="58.598991"
       cy="70.497993"
       r="1.7497503"
       style="fill:#ff00ff;stroke-width:0.999998"
       data-name="C Return LED" />
    <circle
       id="BReturnLED"
       cx="35.598248"
       cy="70.497993"
       r="1.7497503"
       style="fill:#ff00ff;stroke-width:0.999998"
       data-name="B Return LED" />
    <circle
       id="AReturnLED"
       cx="12.6998"
       cy="70.497993"
       r="1.7497503"
       style="fill:#ff00ff;stroke-width:0.999998"
       data-name="A Return LED" />
    <circle
       id="CReturn"
       cx="58.577827"
       cy="61.498783"
       r="2.998564"
       style="fill:#ff0000;stroke-width:0.999998"
       data-name="Return C!0!100!%" />
    <circle
       id="BReturn"
       cx="35.580608"
       cy="61.498783"
       r="2.998564"
       style="fill:#ff0000;stroke-width:0.999998"
       data-name="Return B!0!100!%" />
    <circle
       id="AReturn"
       cx="12.678633"
       cy="61.498783"
       r="2.998564"
       style="fill:#ff0000;stroke-width:0.999998"
       data-name="Return A!0!100!%" />
    <circle
       id="CSendRightOut"
       cx="63.558971"
       cy="46.999844"
       r="4.0004368"
       style="fill:#0000ff;stroke-width:0.999998"
       data-name="Send C Right Out" />
    <circle
       id="CSendLeftOut"
       cx="53.55788"
       cy="46.999844"
       r="4.0004368"
       style="fill:#0000ff;stroke-width:0.999998"
       data-name="Send C Left Out" />
    <circle
       id="BSendRightOut"
       cx="40.558224"
       cy="46.999844"
       r="4.0004368"
       style="fill:#0000ff;stroke-width:0.999998"
       data-name="Send B Right Out" />
    <circle
       id="BSendLeftOut"
       cx="30.560656"
       cy="46.999844"
       r="4.0004368"
       style="fill:#0000ff;stroke-width:0.999998"
       data-name="Send B Left Out" />
    <circle
       id="ASendRightOut"
       cx="17.561001"
       cy="46.999844"
       r="4.0004368"
       style="fill:#0000ff;stroke-width:0.999998"
       data-name="Send A Right Out" />
    <circle
       id="ASendLeftOut"
       cx="7.5599089"
       cy="46.999844"
       r="4.0004368"
       style="fill:#0000ff;stroke-width:0.999998"
       data-name="Send A Left Out" />
    <circle
       id="CSendCvIn"
       cx="58.598991"
       cy="30.998096"
       r="4.0004368"
       style="fill:#00ff00;stroke-width:0.999998"
       data-name="Send C CV In" />
    <circle
       id="BSendCvIn"
       cx="35.580608"
       cy="30.998096"
       r="4.0004368"
       style="fill:#00ff00;stroke-width:0.999998"
       data-name="Send B CV In" />
    <circle
       id="ASendCvIn"
       cx="12.6998"
       cy="30.998096"
       r="4.0004368"
       style="fill:#00ff00;stroke-width:0.999998"
       data-name="Send A CV In" />
    <circle
       id="CSendLED"
       cx="58.577827"
       cy="22.499811"
       r="1.7497503"
       style="fill:#ff00ff;stroke-width:0.999998"
       data-name="C Send LED" />
    <circle
       id="BSendLED"
       cx="35.580608"
       cy="22.499811"
       r="1.7497503"
       style="fill:#ff00ff;stroke-width:0.999998"
       data-name="B Send LED" />
    <circle
       id="ASendLED"
       cx="12.678633"
       cy="22.499811"
       r="1.7497503"
       style="fill:#ff00ff;stroke-width:0.999998"
       data-name="A Send LED" />
    <circle
       id="CSend"
       cx="63.580135"
       cy="13.500593"
       r="2.998564"
       style="fill:#ff0000;stroke-width:0.999998"
       data-name="Send C!0!100!%" />
    <circle
       id="BSend"
       cx="40.678165"
       cy="13.500593"
       r="2.998564"
       style="fill:#ff0000;stroke-width:0.999998"
       data-name="Send B!0!100!%" />
    <circle
       id="ASend"
       cx="17.680943"
       cy="13.500593"
       r="2.998564"
       style="fill:#ff0000;stroke-width:0.999998"
       data-name="Send A!0!100!%" />
    <circle
       style="fill:#ff0000;stroke-width:0"
       id="path17"
       cx="6.6991444"
       cy="14.701782"
       r="1.4999988"
       inkscape:label="PrePostSendA" />
    <circle
       style="fill:#ff0000;stroke-width:0"
       id="path17-9"
       cx="29.699892"
       cy="14.701782"
       r="1.4999988"
       inkscape:label="PrePostSendB" />
    <circle
       style="fill:#ff0000;stroke-width:0"
       id="path17-1"
       cx="52.700642"
       cy="14.701782"
       r="1.4999988"
       inkscape:label="PrePostSendC" />
  </g>
</svg>
