<?xml version="1.0" encoding="UTF-8" standalone="no"?>
<svg
   width="20.32mm"
   height="128.5mm"
   viewBox="0 0 20.32 128.5"
   version="1.1"
   id="svg58"
   sodipodi:docname="Decay_info.svg"
   inkscape:version="1.4 (e7c3feb1, 2024-10-09)"
   xmlns:inkscape="http://www.inkscape.org/namespaces/inkscape"
   xmlns:sodipodi="http://sodipodi.sourceforge.net/DTD/sodipodi-0.dtd"
   xmlns="http://www.w3.org/2000/svg"
   xmlns:svg="http://www.w3.org/2000/svg">
  <defs
     id="defs58">
    <clipPath
       id="clippath-1">
      <rect
         y="0"
         width="27.799999"
         height="25.620001"
         style="fill:none"
         id="rect2"
         x="0" />
    </clipPath>
  </defs>
  <sodipodi:namedview
     id="namedview58"
     pagecolor="#ffffff"
     bordercolor="#000000"
     borderopacity="0.25"
     inkscape:showpageshadow="2"
     inkscape:pageopacity="0.0"
     inkscape:pagecheckerboard="0"
     inkscape:deskcolor="#d1d1d1"
     inkscape:document-units="mm"
     inkscape:zoom="2.8284271"
     inkscape:cx="-57.982756"
     inkscape:cy="140.71425"
     inkscape:window-width="1920"
     inkscape:window-height="1027"
     inkscape:window-x="0"
     inkscape:window-y="25"
     inkscape:window-maximized="0"
     inkscape:current-layer="art" />
  <g
     inkscape:groupmode="layer"
     id="layer8"
     inkscape:label="faceplate"
     transform="scale(0.35279329,0.35277132)"
     style="stroke-width:2.8346">
    <g
       id="faceplate"
       transform="scale(1,1.0000243)"
       style="stroke-width:2.8346">
      <g
         id="g1"
         style="stroke-width:2.8346">
        <rect
           x="0.13"
           y="0.13"
           width="57.349998"
           height="364"
           style="fill:#ededed;stroke-width:2.8346"
           id="rect1" />
        <path
           d="M 57.35,0.25 V 364 H 0.25 V 0.25 h 57.1 M 57.6,0 H 0 v 364.25 h 57.6 z"
           style="fill:#9d9d9e;stroke-width:2.8346"
           id="path1" />
      </g>
      <g
         id="art"
         style="stroke-width:2.8346">
        <g
           id="g2"
           style="stroke-width:2.8346">
          <path
             id="path31"
             d="m 20.6,26.79 c -0.37,0 -0.71,-0.17 -0.97,-0.47 -0.51,-0.6 -0.52,-1.54 -0.04,-2.16 l 6.97,-8.88 c 0.38,-0.48 1.05,-0.65 1.57,-0.39 0.52,0.26 0.79,0.82 0.79,1.45 v 4.77 l 4.64,-5.85 c 0.38,-0.48 1.01,-0.64 1.53,-0.38 0.5,0.25 0.83,0.81 0.83,1.44 v 8.82 c 0,0.86 -0.61,1.57 -1.36,1.57 -0.75,0 -1.36,-0.7 -1.36,-1.57 v -4.79 l -4.64,5.85 c -0.38,0.48 -1.01,0.64 -1.54,0.38 -0.5,-0.24 -0.83,-0.81 -0.83,-1.44 v -4.67 l -4.61,5.8 c -0.26,0.32 -0.62,0.51 -1,0.51 h 0.02 z"
             style="fill:#2cabe1;stroke-width:2.8346" />
          <path
             id="path32"
             d="m 20.6,26.79 c -0.75,0 -1.35,-0.7 -1.35,-1.57 v -4.93 l -2.26,2.84 c -0.5,0.63 -1.44,0.65 -1.97,0.04 -0.51,-0.6 -0.52,-1.53 -0.03,-2.15 l 4.61,-5.76 c 0.26,-0.32 0.63,-0.5 1,-0.5 0.18,0 0.37,0.04 0.54,0.12 0.5,0.25 0.82,0.81 0.82,1.44 v 8.89 c 0,0.86 -0.61,1.57 -1.36,1.57 v 0 z"
             style="fill:#ea2228;stroke-width:2.8346" />
          <path
             id="path33"
             d="m 37.2,26.81 v 0 c -0.35,0 -0.68,-0.15 -0.94,-0.42 -0.76,-0.78 -0.14,-1.84 0.29,-2.3 L 38.5,21.73 37.24,21.71 C 36.68,21.7 36.2,21.31 36,20.71 35.81,20.15 35.93,19.5 36.29,19.07 l 3.16,-3.83 c 0.23,-0.28 0.55,-0.48 1.13,-0.47 0.33,0 0.67,0.17 0.92,0.4 0.71,0.66 0.29,1.7 -0.07,2.2 l -1.04,1.26 1.26,0.02 c 0.56,0.01 1.04,0.4 1.24,1 0.19,0.56 0.07,1.21 -0.29,1.64 l -4.1,4.97 c -0.35,0.35 -0.65,0.55 -1.3,0.54 v 0 z"
             style="fill:#00a650;stroke-width:2.8346" />
        </g>
        <path
           d="M 44.39,301.91 V 262.69 C 44.39,254.58 37.41,248 28.8,248 c -8.61,0 -15.59,6.58 -15.59,14.69 v 44.58 c 0,0 0,0.02 0,0.02 v 0 0.14 0 22.4 c 0,3.11 2.55,5.66 5.67,5.66 h 19.84 c 3.12,0 5.67,-2.55 5.67,-5.66 v -22.54 c 0,0 0,0 0,0 v -5.37 c 0,0 0,0 0,0 z"
           id="path2"
           style="stroke-width:2.8346" />
        <path
           d="m 28.8,105 c 8.05,0 14.59,6.08 14.59,13.54 V 314.71 H 14.21 V 118.54 C 14.21,111.07 20.76,105 28.8,105 m 0,-1 c -8.61,0 -15.59,6.51 -15.59,14.54 v 197.17 c 0,0 31.18,0 31.18,0 V 118.54 C 44.39,110.51 37.41,104 28.8,104 Z"
           id="path3"
           style="stroke-width:2.8346" />
        <line
           x1="28.799999"
           y1="104.85"
           x2="28.799999"
           y2="98.610001"
           style="fill:none;stroke:#000000;stroke-width:0.9921012;stroke-miterlimit:10;stroke-dasharray:none"
           id="line3" />
        <line
           x1="28.799999"
           y1="90.099998"
           x2="28.799999"
           y2="82.660004"
           style="fill:none;stroke:#000000;stroke-width:0.9921012;stroke-miterlimit:10;stroke-dasharray:none"
           id="line4" />
        <line
           x1="28.799999"
           y1="79.720001"
           x2="28.799999"
           y2="64.879997"
           style="fill:none;stroke:#000000;stroke-width:0.9921012;stroke-miterlimit:10;stroke-dasharray:none"
           id="line5" />
        <g
           clip-path="url(#clippath)"
           id="g11"
           transform="matrix(0.99993343,0,0,0.9999714,14.895921,30.330527)">
          <path
             d="M 19.59,2.78 20.3,1.55 C 18.56,0.64 16.61,0.09 14.53,0 v 1.43 c 1.81,0.09 3.53,0.56 5.06,1.35"
             id="path2-2" />
          <path
             d="M 24.39,7.12 25.62,6.41 C 24.53,4.72 23.09,3.27 21.4,2.19 l -0.71,1.23 c 1.48,0.96 2.74,2.22 3.7,3.7"
             id="path3-4" />
          <path
             d="M 7.12,3.41 6.41,2.18 C 4.72,3.27 3.27,4.71 2.19,6.4 L 3.42,7.11 C 4.38,5.63 5.64,4.37 7.12,3.41"
             id="path4" />
          <path
             d="m 26.38,13.27 h 1.43 C 27.72,11.2 27.17,9.24 26.26,7.5 l -1.23,0.71 c 0.79,1.53 1.26,3.24 1.35,5.06"
             id="path5" />
          <path
             d="M 13.27,1.43 V 0 C 11.2,0.09 9.24,0.64 7.5,1.55 L 8.21,2.78 C 9.74,1.99 11.45,1.52 13.27,1.43"
             id="path6-8" />
          <path
             d="M 3.41,20.69 2.18,21.4 c 1.09,1.69 2.53,3.14 4.22,4.22 L 7.11,24.39 C 5.63,23.43 4.37,22.17 3.41,20.69"
             id="path7-3" />
          <path
             d="m 20.69,24.39 0.71,1.23 c 1.69,-1.09 3.14,-2.53 4.22,-4.22 l -1.23,-0.71 c -0.96,1.48 -2.22,2.74 -3.7,3.7"
             id="path8-9" />
          <path
             d="m 26.38,14.53 c -0.09,1.81 -0.56,3.53 -1.35,5.06 l 1.23,0.71 c 0.9,-1.74 1.45,-3.7 1.55,-5.77 z"
             id="path9-0" />
          <path
             d="M 1.43,14.53 H 0 c 0.09,2.07 0.64,4.03 1.55,5.77 L 2.78,19.59 C 1.99,18.06 1.52,16.35 1.43,14.53"
             id="path10-5" />
          <path
             d="M 2.78,8.21 1.55,7.5 C 0.64,9.24 0.09,11.19 0,13.27 H 1.43 C 1.52,11.46 1.99,9.74 2.78,8.21"
             id="path11-2" />
        </g>
      </g>
      <g
         id="text"
         style="stroke-width:2.8346">
        <g
           id="g47"
           style="stroke-width:2.8346">
          <g
             id="g10"
             style="stroke-width:2.8346">
            <path
               d="m 19.62,344.84 c 0,0.76 -0.11,1.38 -0.34,1.84 -0.23,0.46 -0.5,0.84 -0.8,1.12 -0.44,0.42 -1.05,0.63 -1.84,0.63 h -3.29 v -7.44 h 2.54 c 0.38,0 0.71,0.02 0.98,0.07 0.27,0.05 0.52,0.12 0.73,0.2 0.22,0.09 0.4,0.19 0.55,0.3 0.15,0.11 0.29,0.23 0.41,0.35 0.21,0.21 0.39,0.45 0.55,0.74 0.16,0.28 0.28,0.61 0.37,0.98 0.09,0.37 0.14,0.78 0.14,1.21 z m -1.87,-0.1 c 0,-0.6 -0.09,-1.08 -0.28,-1.42 -0.19,-0.34 -0.42,-0.56 -0.68,-0.68 -0.27,-0.11 -0.54,-0.17 -0.81,-0.17 H 15.2 v 4.41 h 0.78 c 0.48,0 0.9,-0.14 1.25,-0.42 0.35,-0.28 0.53,-0.85 0.53,-1.72 z"
               id="path6"
               style="stroke-width:2.8346" />
            <path
               d="m 24.91,348.43 h -4.6 v -7.44 h 4.53 v 1.49 h -2.69 v 1.36 h 2.56 v 1.5 h -2.56 v 1.59 h 2.76 z"
               id="path7"
               style="stroke-width:2.8346" />
            <path
               d="m 31.16,347.87 c -0.25,0.16 -0.51,0.29 -0.78,0.39 -0.26,0.1 -0.53,0.17 -0.8,0.21 -0.27,0.04 -0.55,0.06 -0.83,0.06 -0.53,0 -1.01,-0.09 -1.43,-0.27 -0.42,-0.18 -0.79,-0.44 -1.1,-0.79 -0.31,-0.35 -0.54,-0.76 -0.7,-1.22 -0.15,-0.47 -0.23,-0.98 -0.23,-1.54 0,-0.64 0.09,-1.2 0.27,-1.68 0.18,-0.48 0.44,-0.88 0.76,-1.2 0.33,-0.32 0.7,-0.55 1.12,-0.71 0.42,-0.15 0.86,-0.23 1.32,-0.23 0.69,0 1.48,0.19 2.36,0.56 v 1.98 c -0.3,-0.23 -0.6,-0.42 -0.9,-0.57 -0.29,-0.15 -0.64,-0.23 -1.04,-0.23 -0.36,0 -0.69,0.09 -1,0.26 -0.31,0.17 -0.56,0.42 -0.74,0.74 -0.19,0.32 -0.28,0.69 -0.28,1.12 0,0.38 0.08,0.72 0.25,1.03 0.16,0.31 0.39,0.56 0.68,0.75 0.29,0.18 0.62,0.28 0.99,0.28 0.3,0 0.58,-0.04 0.84,-0.13 0.26,-0.09 0.49,-0.19 0.67,-0.29 0.18,-0.1 0.37,-0.23 0.56,-0.38 v 1.88 z"
               id="path8"
               style="stroke-width:2.8346" />
            <path
               d="m 38.65,348.43 h -1.88 l -0.5,-1.51 h -2.65 l -0.51,1.51 h -1.88 l 2.7,-7.44 h 2.03 z m -2.8,-2.8 -0.89,-2.72 -0.9,2.72 h 1.8 z"
               id="path9"
               style="stroke-width:2.8346" />
            <path
               d="m 44.96,340.98 -2.39,4.03 v 3.41 h -1.84 v -3.37 l -2.44,-4.08 h 1.91 l 1.4,2.34 1.4,-2.34 h 1.95 z"
               id="path10"
               style="stroke-width:2.8346" />
          </g>
          <g
             id="g15"
             style="stroke-width:2.8346">
            <path
               d="m 24.45,238.22 h -1.47 l -0.39,-1.1 h -2.07 l -0.4,1.1 h -1.47 l 2.11,-5.41 h 1.59 z m -2.19,-2.04 -0.7,-1.98 -0.7,1.98 z"
               id="path11"
               style="stroke-width:2.8346" />
            <path
               d="m 28.28,238.22 h -1.24 v -0.57 c -0.17,0.21 -0.36,0.37 -0.55,0.48 -0.19,0.11 -0.42,0.16 -0.69,0.16 -0.53,0 -0.87,-0.18 -1.03,-0.53 -0.16,-0.35 -0.23,-0.75 -0.23,-1.19 v -2.34 h 1.24 v 2.15 c 0,0.22 0.03,0.41 0.1,0.57 0.06,0.16 0.2,0.24 0.41,0.24 0.18,0 0.33,-0.06 0.43,-0.18 0.11,-0.12 0.21,-0.27 0.32,-0.45 v -2.34 h 1.24 v 3.98 z"
               id="path12"
               style="stroke-width:2.8346" />
            <path
               d="m 32.49,238.22 h -1.24 v -0.36 c -0.13,0.12 -0.27,0.23 -0.41,0.31 -0.15,0.08 -0.35,0.12 -0.6,0.12 -0.25,0 -0.5,-0.07 -0.75,-0.21 -0.25,-0.14 -0.45,-0.37 -0.6,-0.67 -0.16,-0.3 -0.24,-0.69 -0.24,-1.15 0,-0.36 0.06,-0.7 0.18,-1.02 0.12,-0.32 0.31,-0.57 0.56,-0.77 0.25,-0.2 0.57,-0.3 0.94,-0.3 0.23,0 0.42,0.03 0.56,0.09 0.14,0.06 0.27,0.13 0.38,0.22 v -1.67 h 1.24 v 5.41 z m -1.24,-1.26 v -1.52 c -0.14,-0.09 -0.26,-0.16 -0.34,-0.2 -0.08,-0.04 -0.18,-0.06 -0.29,-0.06 -0.2,0 -0.36,0.09 -0.49,0.28 -0.13,0.19 -0.19,0.44 -0.19,0.77 0,0.35 0.07,0.61 0.2,0.77 0.14,0.16 0.29,0.24 0.48,0.24 0.15,0 0.27,-0.03 0.36,-0.08 0.09,-0.05 0.18,-0.12 0.26,-0.2 z"
               id="path13"
               style="stroke-width:2.8346" />
            <path
               d="m 34.3,238.22 h -1.24 v -3.98 h 1.24 z m -0.1,-4.89 c 0,0.16 -0.05,0.3 -0.15,0.42 -0.1,0.11 -0.23,0.17 -0.37,0.17 -0.1,0 -0.18,-0.03 -0.26,-0.08 -0.08,-0.05 -0.14,-0.12 -0.19,-0.21 -0.05,-0.09 -0.07,-0.19 -0.07,-0.3 0,-0.16 0.05,-0.3 0.15,-0.42 0.1,-0.12 0.22,-0.18 0.37,-0.18 0.15,0 0.26,0.06 0.37,0.18 0.1,0.12 0.15,0.26 0.15,0.42 z"
               id="path14"
               style="stroke-width:2.8346" />
            <path
               d="m 38.74,236.23 c 0,0.4 -0.08,0.75 -0.23,1.06 -0.15,0.31 -0.38,0.55 -0.68,0.73 -0.3,0.18 -0.67,0.27 -1.1,0.27 -0.43,0 -0.8,-0.09 -1.1,-0.27 -0.3,-0.18 -0.53,-0.42 -0.68,-0.73 -0.15,-0.31 -0.22,-0.66 -0.22,-1.06 0,-0.3 0.04,-0.57 0.12,-0.82 0.08,-0.25 0.21,-0.46 0.38,-0.65 0.17,-0.19 0.38,-0.33 0.63,-0.44 0.25,-0.11 0.54,-0.15 0.87,-0.15 0.33,0 0.62,0.05 0.88,0.15 0.25,0.1 0.46,0.25 0.63,0.43 0.17,0.18 0.29,0.4 0.38,0.65 0.08,0.25 0.13,0.52 0.13,0.82 z m -1.31,0 c 0,-0.32 -0.06,-0.56 -0.18,-0.74 -0.12,-0.18 -0.3,-0.27 -0.52,-0.27 -0.22,0 -0.4,0.09 -0.52,0.27 -0.12,0.18 -0.18,0.42 -0.18,0.74 0,0.32 0.06,0.56 0.18,0.74 0.12,0.18 0.29,0.27 0.52,0.27 0.23,0 0.4,-0.09 0.52,-0.27 0.12,-0.18 0.18,-0.43 0.18,-0.74 z"
               id="path15"
               style="stroke-width:2.8346" />
          </g>
          <g
             id="g21"
             style="stroke-width:2.8346">
            <path
               d="M 20.07,286.41 H 16.48 V 281 h 3.53 v 1.09 h -2.1 v 0.99 h 2 v 1.09 h -2 v 1.16 h 2.16 v 1.09 z"
               style="fill:#ffffff;stroke-width:2.8346"
               id="path16" />
            <path
               d="M 24.04,286.41 H 22.8 v -2.14 c 0,-0.22 -0.03,-0.41 -0.09,-0.57 -0.06,-0.16 -0.2,-0.24 -0.41,-0.24 -0.1,0 -0.19,0.02 -0.27,0.06 -0.08,0.04 -0.15,0.1 -0.21,0.17 -0.06,0.07 -0.11,0.13 -0.15,0.2 -0.04,0.06 -0.08,0.13 -0.13,0.2 v 2.34 H 20.3 v -3.98 h 1.24 v 0.57 c 0.19,-0.24 0.39,-0.4 0.59,-0.5 0.2,-0.09 0.41,-0.14 0.65,-0.14 0.84,0 1.26,0.57 1.26,1.71 v 2.34 z"
               style="fill:#ffffff;stroke-width:2.8346"
               id="path17" />
            <path
               d="m 27.94,282.44 -1.59,3.98 h -0.91 l -1.56,-3.98 h 1.33 l 0.73,2.08 0.8,-2.08 z"
               style="fill:#ffffff;stroke-width:2.8346"
               id="path18" />
            <path
               d="m 34.7,283.7 c 0,0.51 -0.1,0.97 -0.31,1.39 -0.21,0.42 -0.51,0.76 -0.92,1.01 -0.41,0.25 -0.9,0.38 -1.48,0.38 -0.58,0 -1.09,-0.13 -1.5,-0.39 -0.41,-0.26 -0.71,-0.6 -0.91,-1.03 -0.2,-0.42 -0.3,-0.88 -0.3,-1.36 0,-0.48 0.1,-0.94 0.3,-1.37 0.2,-0.42 0.5,-0.76 0.91,-1.02 0.41,-0.26 0.91,-0.39 1.5,-0.39 0.44,0 0.83,0.07 1.18,0.22 0.35,0.15 0.63,0.35 0.85,0.6 0.22,0.25 0.39,0.55 0.51,0.89 0.11,0.34 0.17,0.69 0.17,1.06 z m -1.47,0 c 0,-0.2 -0.03,-0.39 -0.08,-0.56 -0.05,-0.17 -0.13,-0.31 -0.24,-0.44 -0.11,-0.12 -0.24,-0.22 -0.39,-0.29 -0.15,-0.07 -0.33,-0.1 -0.53,-0.1 -0.39,0 -0.69,0.13 -0.91,0.38 -0.22,0.26 -0.33,0.59 -0.33,1 0,0.41 0.11,0.75 0.33,1.01 0.22,0.26 0.52,0.38 0.91,0.38 0.26,0 0.49,-0.06 0.67,-0.18 0.19,-0.12 0.33,-0.28 0.42,-0.49 0.1,-0.21 0.14,-0.45 0.14,-0.72 z"
               style="fill:#ffffff;stroke-width:2.8346"
               id="path19" />
            <path
               d="M 38.54,286.41 H 37.3 v -0.57 c -0.17,0.21 -0.36,0.37 -0.55,0.48 -0.19,0.11 -0.42,0.16 -0.69,0.16 -0.53,0 -0.87,-0.17 -1.03,-0.53 -0.16,-0.35 -0.23,-0.75 -0.23,-1.19 v -2.34 h 1.24 v 2.15 c 0,0.22 0.03,0.41 0.09,0.57 0.06,0.16 0.2,0.24 0.41,0.24 0.18,0 0.33,-0.06 0.43,-0.18 0.1,-0.12 0.21,-0.27 0.32,-0.45 v -2.34 h 1.24 v 3.98 z"
               style="fill:#ffffff;stroke-width:2.8346"
               id="path20" />
            <path
               d="m 41.57,286.18 c -0.13,0.07 -0.31,0.14 -0.53,0.2 -0.23,0.07 -0.44,0.1 -0.65,0.1 -0.89,0 -1.34,-0.49 -1.34,-1.48 v -1.59 h -0.56 v -0.25 l 1.66,-1.92 h 0.14 v 1.19 h 1.18 v 0.98 h -1.18 v 1.27 c 0,0.15 0,0.27 0.02,0.36 0.02,0.09 0.06,0.17 0.14,0.23 0.07,0.06 0.19,0.09 0.34,0.09 0.2,0 0.46,-0.09 0.78,-0.28 z"
               style="fill:#ffffff;stroke-width:2.8346"
               id="path21" />
          </g>
          <g
             id="g25"
             style="stroke-width:2.8346">
            <path
               d="m 26.89,185.94 h -1.75 v 4.1 h -1.43 v -4.1 h -1.75 v -1.32 h 4.93 z"
               id="path22"
               style="stroke-width:2.8346" />
            <path
               d="m 30.32,186.27 -0.46,1.41 c -0.19,-0.2 -0.38,-0.3 -0.57,-0.3 -0.17,0 -0.32,0.07 -0.45,0.2 -0.13,0.13 -0.25,0.38 -0.37,0.74 v 1.71 h -1.24 v -3.98 h 1.24 v 0.96 c 0.08,-0.24 0.22,-0.47 0.41,-0.69 0.2,-0.23 0.43,-0.34 0.69,-0.34 0.14,0 0.26,0.02 0.37,0.07 0.11,0.05 0.23,0.12 0.37,0.21 z"
               id="path23"
               style="stroke-width:2.8346" />
            <path
               d="M 31.74,190.03 H 30.5 v -3.98 h 1.24 z m -0.1,-4.89 c 0,0.16 -0.05,0.3 -0.16,0.42 -0.1,0.11 -0.23,0.17 -0.37,0.17 -0.1,0 -0.18,-0.03 -0.26,-0.08 -0.08,-0.05 -0.14,-0.12 -0.19,-0.21 -0.05,-0.09 -0.07,-0.19 -0.07,-0.3 0,-0.16 0.05,-0.3 0.15,-0.42 0.1,-0.12 0.22,-0.18 0.37,-0.18 0.15,0 0.26,0.06 0.37,0.18 0.1,0.12 0.16,0.26 0.16,0.42 z"
               id="path24"
               style="stroke-width:2.8346" />
            <path
               d="m 35.83,186.91 h -0.61 c 0.22,0.21 0.32,0.47 0.32,0.79 0,0.16 -0.03,0.32 -0.09,0.47 -0.06,0.15 -0.15,0.29 -0.27,0.4 -0.12,0.11 -0.26,0.21 -0.44,0.29 -0.18,0.08 -0.37,0.12 -0.59,0.13 -0.29,0.01 -0.43,0.1 -0.43,0.26 0,0.06 0.02,0.11 0.05,0.14 0.04,0.03 0.09,0.05 0.17,0.06 0.08,0.01 0.21,0.03 0.4,0.05 0.21,0.02 0.41,0.06 0.59,0.11 0.18,0.05 0.35,0.16 0.51,0.33 0.16,0.17 0.24,0.4 0.24,0.71 0,0.25 -0.06,0.47 -0.18,0.66 -0.12,0.19 -0.31,0.34 -0.57,0.45 -0.26,0.11 -0.61,0.16 -1.04,0.16 -0.62,0 -1.08,-0.1 -1.37,-0.29 -0.29,-0.19 -0.44,-0.44 -0.44,-0.76 0,-0.09 0.02,-0.19 0.06,-0.3 0.04,-0.11 0.12,-0.22 0.24,-0.32 0.12,-0.1 0.3,-0.17 0.54,-0.21 -0.08,-0.03 -0.15,-0.1 -0.21,-0.2 -0.06,-0.1 -0.09,-0.2 -0.09,-0.31 0,-0.14 0.04,-0.28 0.12,-0.41 0.08,-0.14 0.22,-0.22 0.41,-0.26 -0.26,-0.08 -0.49,-0.23 -0.68,-0.44 -0.19,-0.22 -0.29,-0.5 -0.29,-0.84 0,-0.26 0.04,-0.49 0.13,-0.68 0.09,-0.2 0.21,-0.35 0.37,-0.48 0.16,-0.12 0.34,-0.21 0.54,-0.27 0.21,-0.06 0.43,-0.09 0.68,-0.09 h 1.92 v 0.85 z m -1.12,3.87 c 0,-0.17 -0.08,-0.29 -0.25,-0.34 -0.16,-0.05 -0.33,-0.08 -0.51,-0.08 -0.29,0 -0.49,0.03 -0.62,0.1 -0.13,0.07 -0.19,0.18 -0.19,0.33 0,0.3 0.26,0.45 0.79,0.45 0.24,0 0.42,-0.04 0.56,-0.12 0.14,-0.08 0.21,-0.19 0.21,-0.35 z m -0.25,-3.2 c 0,-0.2 -0.06,-0.36 -0.18,-0.48 -0.12,-0.12 -0.25,-0.18 -0.4,-0.18 -0.19,0 -0.34,0.07 -0.45,0.22 -0.11,0.15 -0.16,0.3 -0.16,0.46 0,0.11 0.02,0.22 0.07,0.31 0.05,0.1 0.11,0.17 0.2,0.23 0.09,0.06 0.19,0.09 0.31,0.09 0.18,0 0.33,-0.06 0.44,-0.19 0.12,-0.13 0.18,-0.28 0.18,-0.46 z"
               id="path25"
               style="stroke-width:2.8346" />
          </g>
          <g
             id="g30"
             style="stroke-width:2.8346">
            <path
               d="m 23.99,139.24 c 0,0.55 -0.09,1 -0.27,1.34 -0.18,0.34 -0.39,0.61 -0.63,0.82 -0.34,0.3 -0.82,0.46 -1.43,0.46 h -2.57 v -5.41 h 1.98 c 0.3,0 0.55,0.02 0.76,0.05 0.21,0.03 0.4,0.08 0.57,0.15 0.17,0.06 0.31,0.14 0.43,0.21 0.12,0.07 0.23,0.16 0.32,0.26 0.16,0.15 0.31,0.33 0.43,0.54 0.12,0.21 0.22,0.44 0.29,0.71 0.07,0.27 0.11,0.56 0.11,0.88 z m -1.46,-0.07 c 0,-0.44 -0.07,-0.78 -0.22,-1.03 -0.15,-0.25 -0.33,-0.41 -0.53,-0.49 -0.21,-0.08 -0.42,-0.12 -0.63,-0.12 h -0.61 v 3.21 h 0.61 c 0.38,0 0.7,-0.1 0.98,-0.3 0.28,-0.2 0.41,-0.62 0.41,-1.25 z"
               id="path26"
               style="stroke-width:2.8346" />
            <path
               d="m 27.98,140.2 h -2.46 c 0.05,0.24 0.17,0.44 0.35,0.59 0.18,0.15 0.4,0.23 0.64,0.23 0.42,0 0.88,-0.13 1.38,-0.4 v 0.87 c -0.18,0.11 -0.4,0.2 -0.66,0.29 -0.26,0.09 -0.59,0.13 -0.98,0.13 -0.43,0 -0.8,-0.09 -1.1,-0.27 -0.3,-0.18 -0.53,-0.43 -0.68,-0.74 -0.15,-0.31 -0.23,-0.67 -0.23,-1.06 0,-0.39 0.08,-0.74 0.23,-1.05 0.15,-0.31 0.38,-0.55 0.68,-0.73 0.3,-0.18 0.67,-0.26 1.1,-0.26 0.28,0 0.56,0.07 0.82,0.21 0.26,0.14 0.48,0.37 0.65,0.68 0.17,0.32 0.26,0.72 0.26,1.22 v 0.28 z m -1.16,-0.7 c 0,-0.26 -0.06,-0.46 -0.17,-0.61 -0.11,-0.15 -0.27,-0.23 -0.48,-0.23 -0.21,0 -0.37,0.08 -0.5,0.23 -0.13,0.15 -0.19,0.36 -0.19,0.61 z"
               id="path27"
               style="stroke-width:2.8346" />
            <path
               d="m 31.3,141.66 c -0.1,0.04 -0.21,0.09 -0.33,0.12 -0.12,0.03 -0.24,0.07 -0.39,0.09 -0.15,0.02 -0.3,0.04 -0.47,0.04 -0.38,0 -0.71,-0.07 -0.97,-0.22 -0.26,-0.15 -0.47,-0.33 -0.61,-0.55 -0.14,-0.22 -0.24,-0.45 -0.3,-0.68 -0.06,-0.23 -0.08,-0.44 -0.08,-0.61 0,-0.17 0.03,-0.38 0.08,-0.61 0.05,-0.23 0.15,-0.46 0.29,-0.67 0.14,-0.22 0.34,-0.4 0.61,-0.54 0.27,-0.14 0.59,-0.22 0.98,-0.22 0.26,0 0.47,0.02 0.63,0.06 0.16,0.04 0.33,0.1 0.5,0.17 v 1.11 c -0.4,-0.15 -0.72,-0.22 -0.95,-0.22 -0.23,0 -0.42,0.08 -0.59,0.23 -0.17,0.15 -0.26,0.39 -0.26,0.7 0,0.21 0.04,0.39 0.13,0.53 0.09,0.14 0.19,0.25 0.32,0.32 0.13,0.07 0.26,0.1 0.39,0.1 0.12,0 0.26,-0.02 0.42,-0.06 0.16,-0.04 0.35,-0.1 0.58,-0.18 v 1.11 z"
               id="path28"
               style="stroke-width:2.8346" />
            <path
               d="m 35.25,141.65 c -0.18,0.08 -0.35,0.15 -0.5,0.2 -0.15,0.05 -0.34,0.07 -0.55,0.07 -0.21,0 -0.35,-0.04 -0.43,-0.12 -0.08,-0.08 -0.14,-0.18 -0.17,-0.3 -0.13,0.12 -0.28,0.22 -0.44,0.3 -0.16,0.08 -0.38,0.12 -0.64,0.12 -0.26,0 -0.46,-0.05 -0.62,-0.15 -0.16,-0.1 -0.27,-0.23 -0.33,-0.38 -0.06,-0.15 -0.09,-0.31 -0.09,-0.47 0,-0.24 0.05,-0.45 0.16,-0.61 0.11,-0.16 0.25,-0.29 0.44,-0.39 0.18,-0.1 0.43,-0.21 0.73,-0.32 0.17,-0.06 0.3,-0.11 0.39,-0.14 0.09,-0.03 0.15,-0.06 0.2,-0.08 0.04,-0.02 0.09,-0.04 0.14,-0.07 0,-0.19 -0.04,-0.34 -0.1,-0.45 -0.06,-0.11 -0.22,-0.16 -0.45,-0.16 -0.27,0 -0.52,0.07 -0.75,0.2 -0.23,0.13 -0.44,0.31 -0.64,0.52 v -1.08 c 0.15,-0.12 0.32,-0.23 0.5,-0.31 0.18,-0.08 0.37,-0.14 0.56,-0.18 0.19,-0.04 0.39,-0.06 0.59,-0.06 0.51,0 0.89,0.11 1.14,0.33 0.26,0.22 0.38,0.53 0.38,0.92 v 1.54 c 0,0.15 0.01,0.25 0.04,0.33 0.02,0.07 0.07,0.11 0.13,0.11 0.08,0 0.18,-0.04 0.32,-0.11 v 0.74 z m -1.72,-0.77 v -0.94 c -0.29,0.14 -0.51,0.26 -0.64,0.37 -0.13,0.11 -0.2,0.25 -0.2,0.44 0,0.13 0.03,0.23 0.1,0.3 0.07,0.07 0.15,0.11 0.24,0.11 0.08,0 0.17,-0.03 0.25,-0.08 0.08,-0.05 0.17,-0.12 0.26,-0.19 z"
               id="path29"
               style="stroke-width:2.8346" />
            <path
               d="m 39.11,137.87 -2.38,5.79 h -1.25 l 0.96,-2.33 -1.38,-3.46 h 1.33 l 0.71,1.98 0.81,-1.98 z"
               id="path30"
               style="stroke-width:2.8346" />
          </g>
          <g
             id="g36"
             style="stroke-width:2.8346">
            <path
               d="m 27.89,329.36 c 0,0.51 -0.1,0.97 -0.31,1.39 -0.21,0.42 -0.51,0.76 -0.92,1.01 -0.41,0.25 -0.9,0.38 -1.48,0.38 -0.58,0 -1.09,-0.13 -1.5,-0.39 -0.41,-0.26 -0.71,-0.6 -0.91,-1.03 -0.2,-0.42 -0.3,-0.88 -0.3,-1.36 0,-0.48 0.1,-0.94 0.3,-1.37 0.2,-0.42 0.5,-0.76 0.91,-1.02 0.41,-0.26 0.91,-0.39 1.5,-0.39 0.44,0 0.83,0.07 1.18,0.22 0.35,0.15 0.63,0.35 0.85,0.6 0.22,0.25 0.39,0.55 0.51,0.89 0.11,0.34 0.17,0.69 0.17,1.06 z m -1.46,0 c 0,-0.2 -0.03,-0.39 -0.08,-0.56 -0.05,-0.17 -0.13,-0.31 -0.24,-0.44 -0.11,-0.12 -0.24,-0.22 -0.39,-0.29 -0.15,-0.07 -0.33,-0.1 -0.53,-0.1 -0.39,0 -0.69,0.13 -0.91,0.38 -0.22,0.26 -0.33,0.59 -0.33,1 0,0.41 0.11,0.75 0.33,1.01 0.22,0.26 0.52,0.38 0.91,0.38 0.26,0 0.49,-0.06 0.67,-0.18 0.19,-0.12 0.33,-0.28 0.42,-0.49 0.1,-0.21 0.14,-0.45 0.14,-0.72 z"
               style="fill:#ffffff;stroke-width:2.8346"
               id="path34" />
            <path
               d="m 31.98,332.07 h -1.24 v -0.57 c -0.17,0.21 -0.36,0.37 -0.55,0.48 -0.19,0.11 -0.42,0.16 -0.69,0.16 -0.53,0 -0.87,-0.17 -1.03,-0.53 -0.16,-0.35 -0.23,-0.75 -0.23,-1.19 v -2.34 h 1.24 v 2.15 c 0,0.22 0.03,0.41 0.1,0.57 0.06,0.16 0.2,0.24 0.41,0.24 0.18,0 0.33,-0.06 0.43,-0.18 0.11,-0.12 0.21,-0.27 0.32,-0.45 v -2.34 h 1.24 v 3.98 z"
               style="fill:#ffffff;stroke-width:2.8346"
               id="path35" />
            <path
               d="m 35.26,331.84 c -0.13,0.07 -0.31,0.14 -0.53,0.2 -0.23,0.07 -0.44,0.1 -0.65,0.1 -0.89,0 -1.34,-0.49 -1.34,-1.48 v -1.59 h -0.56 v -0.25 l 1.66,-1.92 h 0.14 v 1.19 h 1.18 v 0.98 h -1.18 v 1.27 c 0,0.15 0,0.27 0.02,0.36 0.02,0.09 0.06,0.17 0.14,0.23 0.08,0.06 0.19,0.09 0.34,0.09 0.2,0 0.46,-0.09 0.78,-0.28 z"
               style="fill:#ffffff;stroke-width:2.8346"
               id="path36" />
          </g>
          <g
             id="g41"
             style="stroke-width:2.8346">
            <path
               d="M 22.96,96.2 H 21.22 L 20.8,95.12 c -0.15,-0.4 -0.29,-0.68 -0.42,-0.87 -0.12,-0.18 -0.24,-0.3 -0.36,-0.35 -0.12,-0.05 -0.27,-0.08 -0.45,-0.08 h -0.18 v 2.38 h -1.62 v -6.09 h 2.75 c 0.44,0 0.81,0.1 1.09,0.31 0.28,0.21 0.49,0.45 0.61,0.75 0.12,0.3 0.19,0.57 0.19,0.83 0,0.31 -0.05,0.57 -0.16,0.78 -0.1,0.21 -0.21,0.37 -0.33,0.46 -0.12,0.1 -0.25,0.19 -0.39,0.28 0.17,0.11 0.32,0.25 0.43,0.41 0.11,0.16 0.27,0.47 0.46,0.95 z m -2.19,-4.16 c 0,-0.28 -0.08,-0.48 -0.24,-0.59 -0.16,-0.11 -0.43,-0.17 -0.79,-0.17 H 19.4 v 1.47 h 0.35 c 0.39,0 0.66,-0.05 0.81,-0.15 0.15,-0.1 0.22,-0.29 0.22,-0.56 z"
               id="path37"
               style="stroke-width:2.8346" />
            <path
               d="m 27.24,95.98 c -0.2,0.09 -0.39,0.16 -0.56,0.22 -0.17,0.06 -0.38,0.08 -0.62,0.08 -0.23,0 -0.39,-0.05 -0.48,-0.14 -0.09,-0.09 -0.15,-0.2 -0.19,-0.34 -0.15,0.14 -0.32,0.25 -0.5,0.34 -0.18,0.09 -0.42,0.13 -0.72,0.13 -0.3,0 -0.52,-0.06 -0.69,-0.17 C 23.3,95.99 23.18,95.85 23.11,95.67 23.04,95.5 23,95.32 23,95.14 c 0,-0.28 0.06,-0.5 0.18,-0.68 0.12,-0.18 0.29,-0.33 0.49,-0.44 0.21,-0.11 0.48,-0.23 0.82,-0.36 0.19,-0.07 0.34,-0.12 0.44,-0.16 0.1,-0.04 0.17,-0.06 0.22,-0.08 0.05,-0.02 0.1,-0.05 0.15,-0.08 0,-0.22 -0.04,-0.39 -0.12,-0.51 -0.08,-0.12 -0.25,-0.18 -0.5,-0.18 -0.3,0 -0.59,0.08 -0.85,0.23 -0.26,0.15 -0.5,0.35 -0.72,0.59 v -1.21 c 0.17,-0.14 0.36,-0.26 0.56,-0.35 0.2,-0.09 0.41,-0.16 0.63,-0.2 0.22,-0.04 0.44,-0.07 0.67,-0.07 0.57,0 1,0.12 1.29,0.38 0.29,0.25 0.43,0.6 0.43,1.04 v 1.73 c 0,0.16 0.01,0.29 0.04,0.37 0.03,0.08 0.08,0.12 0.15,0.12 0.09,0 0.21,-0.04 0.36,-0.13 z M 25.3,95.12 v -1.06 c -0.33,0.15 -0.57,0.29 -0.72,0.41 -0.15,0.12 -0.23,0.29 -0.23,0.5 0,0.15 0.04,0.26 0.11,0.34 0.08,0.08 0.16,0.12 0.26,0.12 0.1,0 0.19,-0.03 0.28,-0.09 0.09,-0.06 0.19,-0.13 0.29,-0.22 z"
               id="path38"
               style="stroke-width:2.8346" />
            <path
               d="m 31.56,96.2 h -1.39 v -2.41 c 0,-0.25 -0.04,-0.46 -0.11,-0.64 -0.07,-0.18 -0.23,-0.27 -0.47,-0.27 -0.11,0 -0.21,0.02 -0.3,0.07 -0.09,0.05 -0.16,0.11 -0.23,0.19 -0.07,0.08 -0.13,0.15 -0.17,0.22 -0.04,0.07 -0.09,0.14 -0.14,0.22 v 2.63 h -1.39 v -4.47 h 1.39 v 0.64 c 0.22,-0.27 0.44,-0.45 0.66,-0.56 0.22,-0.11 0.47,-0.16 0.74,-0.16 0.94,0 1.42,0.64 1.42,1.92 v 2.63 z"
               id="path39"
               style="stroke-width:2.8346" />
            <path
               d="m 36.04,92.68 h -0.69 c 0.24,0.24 0.36,0.53 0.36,0.88 0,0.18 -0.03,0.36 -0.1,0.53 -0.07,0.17 -0.17,0.32 -0.3,0.45 -0.13,0.13 -0.3,0.24 -0.49,0.32 -0.19,0.08 -0.42,0.13 -0.67,0.15 -0.32,0.01 -0.48,0.11 -0.48,0.29 0,0.07 0.02,0.12 0.06,0.15 0.04,0.03 0.11,0.06 0.2,0.07 0.09,0.02 0.24,0.04 0.45,0.06 0.24,0.02 0.46,0.06 0.67,0.12 0.21,0.06 0.4,0.18 0.58,0.37 0.18,0.19 0.27,0.46 0.27,0.8 0,0.28 -0.07,0.52 -0.2,0.74 -0.13,0.22 -0.35,0.38 -0.64,0.5 -0.29,0.12 -0.69,0.18 -1.18,0.18 -0.7,0 -1.22,-0.11 -1.54,-0.32 -0.33,-0.21 -0.49,-0.5 -0.49,-0.86 0,-0.1 0.02,-0.21 0.06,-0.33 0.04,-0.13 0.13,-0.25 0.27,-0.37 0.14,-0.12 0.34,-0.2 0.6,-0.24 -0.09,-0.04 -0.17,-0.11 -0.24,-0.22 -0.07,-0.11 -0.1,-0.22 -0.1,-0.34 0,-0.16 0.05,-0.31 0.14,-0.46 0.09,-0.15 0.25,-0.25 0.46,-0.29 -0.29,-0.09 -0.55,-0.25 -0.76,-0.5 -0.21,-0.25 -0.32,-0.56 -0.32,-0.94 0,-0.29 0.05,-0.55 0.15,-0.77 0.1,-0.22 0.24,-0.4 0.41,-0.54 0.18,-0.14 0.38,-0.24 0.61,-0.31 0.23,-0.07 0.49,-0.1 0.76,-0.1 h 2.16 v 0.95 z m -1.26,4.36 c 0,-0.2 -0.09,-0.32 -0.28,-0.38 -0.18,-0.06 -0.38,-0.09 -0.57,-0.09 -0.32,0 -0.55,0.04 -0.7,0.12 -0.14,0.08 -0.21,0.2 -0.21,0.37 0,0.33 0.3,0.5 0.89,0.5 0.27,0 0.48,-0.04 0.63,-0.13 0.16,-0.09 0.24,-0.22 0.24,-0.39 z m -0.28,-3.6 c 0,-0.23 -0.07,-0.41 -0.2,-0.54 -0.14,-0.14 -0.29,-0.2 -0.46,-0.2 -0.21,0 -0.38,0.08 -0.5,0.25 -0.12,0.16 -0.18,0.34 -0.18,0.52 0,0.13 0.03,0.24 0.08,0.35 0.05,0.11 0.13,0.2 0.22,0.26 0.1,0.07 0.21,0.1 0.35,0.1 0.2,0 0.37,-0.07 0.5,-0.22 0.13,-0.14 0.2,-0.31 0.2,-0.51 z"
               id="path40"
               style="stroke-width:2.8346" />
            <path
               d="m 40.26,94.35 h -2.77 c 0.05,0.27 0.19,0.5 0.4,0.67 0.21,0.17 0.45,0.26 0.72,0.26 0.47,0 0.99,-0.15 1.55,-0.45 v 0.98 c -0.2,0.12 -0.45,0.23 -0.74,0.33 -0.29,0.1 -0.66,0.15 -1.11,0.15 -0.49,0 -0.9,-0.1 -1.24,-0.31 -0.34,-0.21 -0.59,-0.48 -0.76,-0.83 -0.17,-0.35 -0.25,-0.75 -0.25,-1.2 0,-0.45 0.08,-0.83 0.25,-1.18 0.17,-0.35 0.42,-0.62 0.76,-0.82 0.34,-0.2 0.75,-0.3 1.24,-0.3 0.32,0 0.63,0.08 0.93,0.24 0.3,0.16 0.54,0.41 0.73,0.77 0.19,0.36 0.29,0.82 0.29,1.38 v 0.32 z m -1.31,-0.79 c 0,-0.29 -0.06,-0.52 -0.19,-0.69 -0.12,-0.17 -0.3,-0.26 -0.54,-0.26 -0.24,0 -0.42,0.09 -0.56,0.26 -0.14,0.17 -0.21,0.4 -0.21,0.68 h 1.5 z"
               id="path41"
               style="stroke-width:2.8346" />
          </g>
          <g
             id="g46"
             style="stroke-width:2.8346">
            <path
               d="m 23.41,59.94 c 0,0.62 -0.1,1.12 -0.3,1.5 -0.2,0.38 -0.44,0.68 -0.71,0.92 -0.38,0.34 -0.92,0.51 -1.61,0.51 H 17.9 v -6.09 h 2.23 c 0.33,0 0.62,0.02 0.86,0.06 0.24,0.04 0.45,0.1 0.64,0.17 0.19,0.07 0.35,0.15 0.49,0.24 0.13,0.09 0.25,0.19 0.36,0.29 0.18,0.17 0.34,0.37 0.48,0.6 0.14,0.23 0.25,0.5 0.33,0.8 0.08,0.3 0.12,0.64 0.12,0.99 z m -1.65,-0.08 c 0,-0.5 -0.08,-0.88 -0.25,-1.16 -0.17,-0.28 -0.37,-0.46 -0.6,-0.56 C 20.68,58.05 20.44,58 20.2,58 h -0.69 v 3.61 h 0.69 c 0.42,0 0.79,-0.11 1.1,-0.34 0.31,-0.23 0.46,-0.7 0.46,-1.41 z"
               id="path42"
               style="stroke-width:2.8346" />
            <path
               d="m 27.9,61.02 h -2.77 c 0.05,0.27 0.19,0.5 0.4,0.67 0.21,0.17 0.45,0.26 0.72,0.26 0.47,0 0.99,-0.15 1.55,-0.45 v 0.98 c -0.2,0.12 -0.45,0.23 -0.74,0.33 -0.29,0.1 -0.66,0.15 -1.11,0.15 -0.48,0 -0.9,-0.1 -1.24,-0.31 -0.34,-0.21 -0.59,-0.48 -0.76,-0.83 -0.17,-0.35 -0.25,-0.75 -0.25,-1.2 0,-0.45 0.08,-0.83 0.25,-1.18 0.17,-0.35 0.42,-0.62 0.76,-0.82 0.34,-0.2 0.75,-0.3 1.24,-0.3 0.32,0 0.63,0.08 0.93,0.24 0.3,0.16 0.54,0.41 0.73,0.77 0.19,0.36 0.29,0.82 0.29,1.38 v 0.32 z m -1.31,-0.78 c 0,-0.29 -0.06,-0.52 -0.19,-0.69 -0.12,-0.17 -0.3,-0.26 -0.54,-0.26 -0.24,0 -0.42,0.09 -0.56,0.26 -0.14,0.17 -0.21,0.4 -0.21,0.68 h 1.5 z"
               id="path43"
               style="stroke-width:2.8346" />
            <path
               d="m 31.64,62.67 c -0.12,0.05 -0.24,0.1 -0.37,0.14 -0.13,0.04 -0.27,0.08 -0.44,0.11 -0.17,0.03 -0.34,0.04 -0.53,0.04 -0.43,0 -0.79,-0.08 -1.09,-0.25 -0.3,-0.17 -0.53,-0.37 -0.69,-0.62 -0.16,-0.25 -0.27,-0.51 -0.33,-0.77 -0.06,-0.26 -0.09,-0.49 -0.09,-0.69 0,-0.2 0.03,-0.43 0.09,-0.69 0.06,-0.26 0.17,-0.51 0.33,-0.76 0.16,-0.25 0.38,-0.45 0.68,-0.61 0.3,-0.16 0.66,-0.25 1.1,-0.25 0.29,0 0.53,0.02 0.71,0.07 0.18,0.05 0.37,0.11 0.56,0.19 v 1.24 c -0.45,-0.16 -0.81,-0.25 -1.06,-0.25 -0.25,0 -0.47,0.08 -0.66,0.25 -0.19,0.17 -0.29,0.43 -0.29,0.79 0,0.24 0.05,0.44 0.14,0.6 0.09,0.16 0.22,0.28 0.36,0.36 0.15,0.08 0.29,0.11 0.44,0.11 0.15,0 0.3,-0.02 0.48,-0.07 0.18,-0.05 0.39,-0.11 0.65,-0.2 v 1.24 z"
               id="path44"
               style="stroke-width:2.8346" />
            <path
               d="m 36.08,62.65 c -0.2,0.09 -0.39,0.16 -0.56,0.22 -0.17,0.06 -0.38,0.08 -0.62,0.08 -0.23,0 -0.39,-0.05 -0.48,-0.14 -0.09,-0.09 -0.15,-0.2 -0.19,-0.34 -0.15,0.14 -0.32,0.25 -0.5,0.34 -0.18,0.09 -0.42,0.13 -0.72,0.13 -0.3,0 -0.52,-0.06 -0.69,-0.17 -0.18,-0.11 -0.3,-0.25 -0.37,-0.43 -0.07,-0.17 -0.11,-0.35 -0.11,-0.53 0,-0.28 0.06,-0.5 0.18,-0.68 0.12,-0.18 0.29,-0.33 0.49,-0.44 0.2,-0.11 0.48,-0.23 0.82,-0.36 0.19,-0.07 0.34,-0.12 0.44,-0.16 0.1,-0.04 0.17,-0.06 0.22,-0.09 0.05,-0.02 0.1,-0.05 0.15,-0.08 0,-0.22 -0.04,-0.39 -0.12,-0.51 -0.08,-0.12 -0.25,-0.18 -0.5,-0.18 -0.3,0 -0.59,0.08 -0.85,0.23 -0.26,0.15 -0.5,0.35 -0.71,0.59 v -1.21 c 0.17,-0.14 0.36,-0.26 0.56,-0.35 0.2,-0.09 0.41,-0.16 0.63,-0.2 0.22,-0.04 0.44,-0.07 0.67,-0.07 0.57,0 1,0.12 1.29,0.38 0.29,0.25 0.43,0.6 0.43,1.03 v 1.73 c 0,0.16 0.01,0.29 0.04,0.37 0.03,0.08 0.08,0.12 0.15,0.12 0.09,0 0.21,-0.04 0.36,-0.13 v 0.83 z m -1.94,-0.86 v -1.06 c -0.33,0.15 -0.57,0.29 -0.72,0.41 -0.15,0.12 -0.23,0.29 -0.23,0.49 0,0.15 0.04,0.26 0.11,0.34 0.08,0.08 0.16,0.12 0.26,0.12 0.1,0 0.19,-0.03 0.28,-0.09 0.09,-0.06 0.19,-0.13 0.29,-0.22 z"
               id="path45"
               style="stroke-width:2.8346" />
            <path
               d="m 40.42,58.4 -2.68,6.51 h -1.41 l 1.08,-2.62 -1.56,-3.89 h 1.5 l 0.8,2.22 0.91,-2.22 h 1.35 z"
               id="path46"
               style="stroke-width:2.8346" />
          </g>
        </g>
      </g>
    </g>
  </g>
  <g
     inkscape:groupmode="layer"
     id="layer7"
     inkscape:label="components"
     style="display:none">
    <ellipse
       id="AudioOut"
       cx="10.160445"
       cy="109.99763"
       style="fill:#0000ff;stroke-width:0.999997"
       data-name="Audio Out"
       rx="4.0006757"
       ry="4.0004268" />
    <ellipse
       id="DecayOut"
       cx="10.160445"
       cy="93.498512"
       style="fill:#0000ff;stroke-width:0.999997"
       data-name="Envelope Out"
       rx="4.0006757"
       ry="4.0004268" />
    <ellipse
       id="AudioIn"
       cx="10.160445"
       cy="76.498466"
       style="fill:#00ff00;stroke-width:0.999997"
       data-name="Audio In"
       rx="4.0006757"
       ry="4.0004268" />
    <ellipse
       id="TrigIn"
       cx="10.160445"
       cy="59.498413"
       style="fill:#00ff00;stroke-width:0.999997"
       data-name="Trigger In"
       rx="4.0006757"
       ry="4.0004268" />
    <ellipse
       id="DecayCvIn"
       cx="10.160445"
       cy="42.498367"
       style="fill:#00ff00;stroke-width:0.999997"
       data-name="Decay CV In"
       rx="4.0006757"
       ry="4.0004268" />
    <ellipse
       id="LED"
       cx="16.581284"
       cy="24.693995"
       style="fill:#ff00ff;stroke-width:0.999997"
       rx="1.7498547"
       ry="1.749746" />
    <rect
       id="Range"
       x="8.1601076"
       y="24.499968"
       width="4.0006757"
       height="6.0006409"
       style="fill:#ff0000;stroke-width:0.999997"
       data-name="Range@Short@Medium@Long" />
    <ellipse
       id="Decay"
       cx="10.160445"
       cy="15.500772"
       style="fill:#ff0000;stroke-width:0.999997"
       data-name="Decay!0!100!%"
       rx="2.9987428"
       ry="2.9985561" />
  </g>
</svg>
