<?xml version="1.0" encoding="UTF-8" standalone="no"?>
<svg
   width="71.12mm"
   height="128.5mm"
   viewBox="0 0 201.6 364.25"
   version="1.1"
   id="svg123"
   sodipodi:docname="DrumBus_info.svg"
   inkscape:version="1.4 (e7c3feb1, 2024-10-09)"
   xmlns:inkscape="http://www.inkscape.org/namespaces/inkscape"
   xmlns:sodipodi="http://sodipodi.sourceforge.net/DTD/sodipodi-0.dtd"
   xmlns="http://www.w3.org/2000/svg"
   xmlns:svg="http://www.w3.org/2000/svg">
  <defs
     id="defs123" />
  <sodipodi:namedview
     id="namedview123"
     pagecolor="#ffffff"
     bordercolor="#000000"
     borderopacity="0.25"
     inkscape:showpageshadow="2"
     inkscape:pageopacity="0.0"
     inkscape:pagecheckerboard="0"
     inkscape:deskcolor="#d1d1d1"
     inkscape:document-units="mm"
     inkscape:zoom="1.2783179"
     inkscape:cx="201.04545"
     inkscape:cy="257.36947"
     inkscape:window-width="1816"
     inkscape:window-height="1027"
     inkscape:window-x="0"
     inkscape:window-y="25"
     inkscape:window-maximized="0"
     inkscape:current-layer="layer2" />
  <g
     inkscape:groupmode="layer"
     id="layer2"
     inkscape:label="faceplate">
    <g
       id="faceplate">
      <g
         id="faceplate-2"
         data-name="faceplate">
        <g
           id="g1">
          <path
             id="rect1"
             style="fill:#ededed"
             d="m 0.12,0.13 h 201.35001 v 364 H 0.12 Z" />
          <path
             d="M201.35.25v363.75H.25V.25h201.1M201.6,0H0v364.25h201.6V0h0Z"
             style="fill: #9d9d9e;"
             id="path1" />
        </g>
      </g>
      <g
         id="graphics">
        <g
           id="pips">
          <g
             id="g4">
            <path
               d="M92.6,18.07c-.37,0-.71-.17-.97-.47-.51-.6-.52-1.54-.04-2.16l6.97-8.88c.38-.48,1.05-.65,1.57-.39.5.25.79.82.79,1.45v4.77l4.64-5.85c.38-.48,1.01-.64,1.53-.38.5.25.83.81.83,1.44v8.82c0,.86-.61,1.57-1.36,1.57s-1.36-.7-1.36-1.57v-4.79l-4.64,5.85c-.38.48-1.01.64-1.54.38-.5-.24-.83-.81-.83-1.44v-4.67l-4.61,5.8c-.26.32-.62.51-1,.51h0Z"
               style="fill: #2cabe1;"
               id="path2" />
            <path
               d="M92.6,18.07c-.75,0-1.35-.7-1.35-1.57v-4.93l-2.26,2.84c-.5.63-1.44.65-1.97.04-.51-.6-.52-1.53-.03-2.15l4.61-5.76c.26-.32.63-.5,1-.5.18,0,.37.04.54.12.5.25.82.81.82,1.44v8.89c0,.86-.61,1.57-1.36,1.57h0Z"
               style="fill: #ea2228;"
               id="path3" />
            <path
               d="M109.2,18.09h0c-.35,0-.68-.15-.94-.42-.76-.78-.14-1.84.29-2.3l1.95-2.36-1.26-.02c-.56-.01-1.04-.4-1.24-1-.19-.56-.07-1.21.29-1.64l3.16-3.83c.23-.28.55-.48,1.13-.47.33,0,.67.17.92.4.71.66.29,1.7-.07,2.2l-1.04,1.26,1.26.02c.56.01,1.04.4,1.24,1,.19.56.07,1.21-.29,1.64l-4.1,4.97c-.35.35-.65.55-1.3.54h0Z"
               style="fill: #00a650;"
               id="path4" />
          </g>
        </g>
        <g
           id="_9mm_Pips"
           data-name="9mm_Pips">
          <path
             id="path5"
             d="M84.06,27.32l.71-1.22c-1.74-.91-3.69-1.45-5.76-1.54v1.42c1.81.09,3.53.56,5.05,1.34" />
          <path
             id="path6"
             d="M88.85,31.64l1.23-.71c-1.09-1.68-2.53-3.13-4.22-4.2l-.71,1.22c1.48.96,2.74,2.21,3.7,3.68" />
          <path
             id="path7"
             d="M71.6,27.95l-.71-1.22c-1.69,1.09-3.14,2.52-4.22,4.2l1.23.71c.96-1.47,2.22-2.73,3.7-3.68" />
          <path
             id="path8"
             d="M90.84,37.76h1.43c-.09-2.06-.64-4.01-1.55-5.75l-1.23.71c.79,1.52,1.26,3.23,1.35,5.04" />
          <path
             id="path9"
             d="M77.74,25.97v-1.42c-2.07.09-4.03.64-5.76,1.54l.71,1.22c1.53-.79,3.24-1.25,5.05-1.34" />
          <path
             id="path10"
             d="M67.89,45.15l-1.23.71c1.09,1.68,2.53,3.13,4.22,4.2l.71-1.22c-1.48-.96-2.74-2.21-3.7-3.68" />
          <path
             id="path11"
             d="M85.16,48.84l.71,1.22c1.69-1.09,3.14-2.52,4.22-4.2l-1.23-.71c-.96,1.47-2.22,2.73-3.7,3.68" />
          <path
             id="path12"
             d="M90.84,39.02c-.09,1.8-.56,3.52-1.35,5.04l1.23.71c.9-1.73,1.45-3.68,1.55-5.75h-1.43Z" />
          <path
             id="path13"
             d="M65.92,39.02h-1.43c.09,2.06.64,4.01,1.55,5.75l1.23-.71c-.79-1.52-1.26-3.23-1.35-5.04" />
          <path
             id="path14"
             d="M67.27,32.72l-1.23-.71c-.91,1.73-1.46,3.67-1.55,5.75h1.43c.09-1.8.56-3.52,1.35-5.04" />
        </g>
        <g
           id="_9mm_Pips-2"
           data-name="9mm_Pips">
          <path
             id="path1-2"
             data-name="path1"
             d="M84.06,60.63l.71-1.22c-1.74-.91-3.69-1.45-5.76-1.54v1.42c1.81.09,3.53.56,5.05,1.34" />
          <path
             id="path2-2"
             data-name="path2"
             d="M88.85,64.95l1.23-.71c-1.09-1.68-2.53-3.13-4.22-4.2l-.71,1.22c1.48.96,2.74,2.21,3.7,3.68" />
          <path
             id="path3-2"
             data-name="path3"
             d="M71.6,61.25l-.71-1.22c-1.69,1.09-3.14,2.52-4.22,4.2l1.23.71c.96-1.47,2.22-2.73,3.7-3.68" />
          <path
             id="path4-2"
             data-name="path4"
             d="M90.84,71.07h1.43c-.09-2.06-.64-4.01-1.55-5.75l-1.23.71c.79,1.52,1.26,3.23,1.35,5.04" />
          <path
             id="path5-2"
             data-name="path5"
             d="M77.74,59.28v-1.42c-2.07.09-4.03.64-5.76,1.54l.71,1.22c1.53-.79,3.24-1.25,5.05-1.34" />
          <path
             id="path6-2"
             data-name="path6"
             d="M67.89,78.46l-1.23.71c1.09,1.68,2.53,3.13,4.22,4.2l.71-1.22c-1.48-.96-2.74-2.21-3.7-3.68" />
          <path
             id="path7-2"
             data-name="path7"
             d="M85.16,82.14l.71,1.22c1.69-1.09,3.14-2.52,4.22-4.2l-1.23-.71c-.96,1.47-2.22,2.73-3.7,3.68" />
          <path
             id="path8-2"
             data-name="path8"
             d="M90.84,72.33c-.09,1.8-.56,3.52-1.35,5.04l1.23.71c.9-1.73,1.45-3.68,1.55-5.75h-1.43Z" />
          <path
             id="path9-2"
             data-name="path9"
             d="M65.92,72.33h-1.43c.09,2.06.64,4.01,1.55,5.75l1.23-.71c-.79-1.52-1.26-3.23-1.35-5.04" />
          <path
             id="path10-2"
             data-name="path10"
             d="M67.27,66.03l-1.23-.71c-.91,1.73-1.46,3.67-1.55,5.75h1.43c.09-1.8.56-3.52,1.35-5.04" />
        </g>
        <g
           id="_9mm_Pips-3"
           data-name="9mm_Pips">
          <path
             id="path1-3"
             data-name="path1"
             d="M84.06,93.93l.71-1.22c-1.74-.91-3.69-1.45-5.76-1.54v1.42c1.81.09,3.53.56,5.05,1.34" />
          <path
             id="path2-3"
             data-name="path2"
             d="M88.85,98.25l1.23-.71c-1.09-1.68-2.53-3.13-4.22-4.2l-.71,1.22c1.48.96,2.74,2.21,3.7,3.68" />
          <path
             id="path3-3"
             data-name="path3"
             d="M71.6,94.56l-.71-1.22c-1.69,1.09-3.14,2.52-4.22,4.2l1.23.71c.96-1.47,2.22-2.73,3.7-3.68" />
          <path
             id="path4-3"
             data-name="path4"
             d="M90.84,104.38h1.43c-.09-2.06-.64-4.01-1.55-5.75l-1.23.71c.79,1.52,1.26,3.23,1.35,5.04" />
          <path
             id="path5-3"
             data-name="path5"
             d="M77.74,92.59v-1.42c-2.07.09-4.03.64-5.76,1.54l.71,1.22c1.53-.79,3.24-1.25,5.05-1.34" />
          <path
             id="path6-3"
             data-name="path6"
             d="M67.89,111.77l-1.23.71c1.09,1.68,2.53,3.13,4.22,4.2l.71-1.22c-1.48-.96-2.74-2.21-3.7-3.68" />
          <path
             id="path7-3"
             data-name="path7"
             d="M85.16,115.45l.71,1.22c1.69-1.09,3.14-2.52,4.22-4.2l-1.23-.71c-.96,1.47-2.22,2.73-3.7,3.68" />
          <path
             id="path8-3"
             data-name="path8"
             d="M90.84,105.63c-.09,1.8-.56,3.52-1.35,5.04l1.23.71c.9-1.73,1.45-3.68,1.55-5.75h-1.43Z" />
          <path
             id="path9-3"
             data-name="path9"
             d="M65.92,105.63h-1.43c.09,2.06.64,4.01,1.55,5.75l1.23-.71c-.79-1.52-1.26-3.23-1.35-5.04" />
          <path
             id="path10-3"
             data-name="path10"
             d="M67.27,99.34l-1.23-.71c-.91,1.73-1.46,3.67-1.55,5.75h1.43c.09-1.8.56-3.52,1.35-5.04" />
        </g>
        <g
           id="_9mm_Pips-4"
           data-name="9mm_Pips">
          <path
             id="path1-4"
             data-name="path1"
             d="M84.06,126.96l.71-1.22c-1.74-.91-3.69-1.45-5.76-1.54v1.42c1.81.09,3.53.56,5.05,1.34" />
          <path
             id="path2-4"
             data-name="path2"
             d="M88.85,131.28l1.23-.71c-1.09-1.68-2.53-3.13-4.22-4.2l-.71,1.22c1.48.96,2.74,2.21,3.7,3.68" />
          <path
             id="path3-4"
             data-name="path3"
             d="M71.6,127.58l-.71-1.22c-1.69,1.09-3.14,2.52-4.22,4.2l1.23.71c.96-1.47,2.22-2.73,3.7-3.68" />
          <path
             id="path4-4"
             data-name="path4"
             d="M90.84,137.4h1.43c-.09-2.06-.64-4.01-1.55-5.75l-1.23.71c.79,1.52,1.26,3.23,1.35,5.04" />
          <path
             id="path5-4"
             data-name="path5"
             d="M77.74,125.61v-1.42c-2.07.09-4.03.64-5.76,1.54l.71,1.22c1.53-.79,3.24-1.25,5.05-1.34" />
          <path
             id="path6-4"
             data-name="path6"
             d="M67.89,144.79l-1.23.71c1.09,1.68,2.53,3.13,4.22,4.2l.71-1.22c-1.48-.96-2.74-2.21-3.7-3.68" />
          <path
             id="path7-4"
             data-name="path7"
             d="M85.16,148.47l.71,1.22c1.69-1.09,3.14-2.52,4.22-4.2l-1.23-.71c-.96,1.47-2.22,2.73-3.7,3.68" />
          <path
             id="path8-4"
             data-name="path8"
             d="M90.84,138.66c-.09,1.8-.56,3.52-1.35,5.04l1.23.71c.9-1.73,1.45-3.68,1.55-5.75h-1.43Z" />
          <path
             id="path9-4"
             data-name="path9"
             d="M65.92,138.66h-1.43c.09,2.06.64,4.01,1.55,5.75l1.23-.71c-.79-1.52-1.26-3.23-1.35-5.04" />
          <path
             id="path10-4"
             data-name="path10"
             d="M67.27,132.36l-1.23-.71c-.91,1.73-1.46,3.67-1.55,5.75h1.43c.09-1.8.56-3.52,1.35-5.04" />
        </g>
        <g
           id="_9mm_Pips-5"
           data-name="9mm_Pips">
          <path
             id="path1-5"
             data-name="path1"
             d="M84.06,160.26l.71-1.22c-1.74-.91-3.69-1.45-5.76-1.54v1.42c1.81.09,3.53.56,5.05,1.34" />
          <path
             id="path2-5"
             data-name="path2"
             d="M88.85,164.58l1.23-.71c-1.09-1.68-2.53-3.13-4.22-4.2l-.71,1.22c1.48.96,2.74,2.21,3.7,3.68" />
          <path
             id="path3-5"
             data-name="path3"
             d="M71.6,160.89l-.71-1.22c-1.69,1.09-3.14,2.52-4.22,4.2l1.23.71c.96-1.47,2.22-2.73,3.7-3.68" />
          <path
             id="path4-5"
             data-name="path4"
             d="M90.84,170.71h1.43c-.09-2.06-.64-4.01-1.55-5.75l-1.23.71c.79,1.52,1.26,3.23,1.35,5.04" />
          <path
             id="path5-5"
             data-name="path5"
             d="M77.74,158.92v-1.42c-2.07.09-4.03.64-5.76,1.54l.71,1.22c1.53-.79,3.24-1.25,5.05-1.34" />
          <path
             id="path6-5"
             data-name="path6"
             d="M67.89,178.1l-1.23.71c1.09,1.68,2.53,3.13,4.22,4.2l.71-1.22c-1.48-.96-2.74-2.21-3.7-3.68" />
          <path
             id="path7-5"
             data-name="path7"
             d="M85.16,181.78l.71,1.22c1.69-1.09,3.14-2.52,4.22-4.2l-1.23-.71c-.96,1.47-2.22,2.73-3.7,3.68" />
          <path
             id="path8-5"
             data-name="path8"
             d="M90.84,171.96c-.09,1.8-.56,3.52-1.35,5.04l1.23.71c.9-1.73,1.45-3.68,1.55-5.75h-1.43Z" />
          <path
             id="path9-5"
             data-name="path9"
             d="M65.92,171.96h-1.43c.09,2.06.64,4.01,1.55,5.75l1.23-.71c-.79-1.52-1.26-3.23-1.35-5.04" />
          <path
             id="path10-5"
             data-name="path10"
             d="M67.27,165.67l-1.23-.71c-.91,1.73-1.46,3.67-1.55,5.75h1.43c.09-1.8.56-3.52,1.35-5.04" />
        </g>
        <g
           id="_9mm_Pips-6"
           data-name="9mm_Pips">
          <path
             id="path1-6"
             data-name="path1"
             d="M84.06,193.29l.71-1.22c-1.74-.91-3.69-1.45-5.76-1.54v1.42c1.81.09,3.53.56,5.05,1.34" />
          <path
             id="path2-6"
             data-name="path2"
             d="M88.85,197.61l1.23-.71c-1.09-1.68-2.53-3.13-4.22-4.2l-.71,1.22c1.48.96,2.74,2.21,3.7,3.68" />
          <path
             id="path3-6"
             data-name="path3"
             d="M71.6,193.91l-.71-1.22c-1.69,1.09-3.14,2.52-4.22,4.2l1.23.71c.96-1.47,2.22-2.73,3.7-3.68" />
          <path
             id="path4-6"
             data-name="path4"
             d="M90.84,203.73h1.43c-.09-2.06-.64-4.01-1.55-5.75l-1.23.71c.79,1.52,1.26,3.23,1.35,5.04" />
          <path
             id="path5-6"
             data-name="path5"
             d="M77.74,191.94v-1.42c-2.07.09-4.03.64-5.76,1.54l.71,1.22c1.53-.79,3.24-1.25,5.05-1.34" />
          <path
             id="path6-6"
             data-name="path6"
             d="M67.89,211.12l-1.23.71c1.09,1.68,2.53,3.13,4.22,4.2l.71-1.22c-1.48-.96-2.74-2.21-3.7-3.68" />
          <path
             id="path7-6"
             data-name="path7"
             d="M85.16,214.81l.71,1.22c1.69-1.09,3.14-2.52,4.22-4.2l-1.23-.71c-.96,1.47-2.22,2.73-3.7,3.68" />
          <path
             id="path8-6"
             data-name="path8"
             d="M90.84,204.99c-.09,1.8-.56,3.52-1.35,5.04l1.23.71c.9-1.73,1.45-3.68,1.55-5.75h-1.43Z" />
          <path
             id="path9-6"
             data-name="path9"
             d="M65.92,204.99h-1.43c.09,2.06.64,4.01,1.55,5.75l1.23-.71c-.79-1.52-1.26-3.23-1.35-5.04" />
          <path
             id="path10-6"
             data-name="path10"
             d="M67.27,198.69l-1.23-.71c-.91,1.73-1.46,3.67-1.55,5.75h1.43c.09-1.8.56-3.52,1.35-5.04" />
        </g>
        <g
           id="_9mm_Pips-7"
           data-name="9mm_Pips">
          <path
             id="path1-7"
             data-name="path1"
             d="M84.06,226.59l.71-1.22c-1.74-.91-3.69-1.45-5.76-1.54v1.42c1.81.09,3.53.56,5.05,1.34" />
          <path
             id="path2-7"
             data-name="path2"
             d="M88.85,230.92l1.23-.71c-1.09-1.68-2.53-3.13-4.22-4.2l-.71,1.22c1.48.96,2.74,2.21,3.7,3.68" />
          <path
             id="path3-7"
             data-name="path3"
             d="M71.6,227.22l-.71-1.22c-1.69,1.09-3.14,2.52-4.22,4.2l1.23.71c.96-1.47,2.22-2.73,3.7-3.68" />
          <path
             id="path4-7"
             data-name="path4"
             d="M90.84,237.04h1.43c-.09-2.06-.64-4.01-1.55-5.75l-1.23.71c.79,1.52,1.26,3.23,1.35,5.04" />
          <path
             id="path5-7"
             data-name="path5"
             d="M77.74,225.25v-1.42c-2.07.09-4.03.64-5.76,1.54l.71,1.22c1.53-.79,3.24-1.25,5.05-1.34" />
          <path
             id="path6-7"
             data-name="path6"
             d="M67.89,244.43l-1.23.71c1.09,1.68,2.53,3.13,4.22,4.2l.71-1.22c-1.48-.96-2.74-2.21-3.7-3.68" />
          <path
             id="path7-7"
             data-name="path7"
             d="M85.16,248.11l.71,1.22c1.69-1.09,3.14-2.52,4.22-4.2l-1.23-.71c-.96,1.47-2.22,2.73-3.7,3.68" />
          <path
             id="path8-7"
             data-name="path8"
             d="M90.84,238.29c-.09,1.8-.56,3.52-1.35,5.04l1.23.71c.9-1.73,1.45-3.68,1.55-5.75h-1.43Z" />
          <path
             id="path9-7"
             data-name="path9"
             d="M65.92,238.29h-1.43c.09,2.06.64,4.01,1.55,5.75l1.23-.71c-.79-1.52-1.26-3.23-1.35-5.04" />
          <path
             id="path10-7"
             data-name="path10"
             d="M67.27,232l-1.23-.71c-.91,1.73-1.46,3.67-1.55,5.75h1.43c.09-1.8.56-3.52,1.35-5.04" />
        </g>
        <g
           id="_9mm_Pips-8"
           data-name="9mm_Pips">
          <path
             id="path1-8"
             data-name="path1"
             d="M84.06,259.9l.71-1.22c-1.74-.91-3.69-1.45-5.76-1.54v1.42c1.81.09,3.53.56,5.05,1.34" />
          <path
             id="path2-8"
             data-name="path2"
             d="M88.85,264.22l1.23-.71c-1.09-1.68-2.53-3.13-4.22-4.2l-.71,1.22c1.48.96,2.74,2.21,3.7,3.68" />
          <path
             id="path3-8"
             data-name="path3"
             d="M71.6,260.53l-.71-1.22c-1.69,1.09-3.14,2.52-4.22,4.2l1.23.71c.96-1.47,2.22-2.73,3.7-3.68" />
          <path
             id="path4-8"
             data-name="path4"
             d="M90.84,270.35h1.43c-.09-2.06-.64-4.01-1.55-5.75l-1.23.71c.79,1.52,1.26,3.23,1.35,5.04" />
          <path
             id="path5-8"
             data-name="path5"
             d="M77.74,258.56v-1.42c-2.07.09-4.03.64-5.76,1.54l.71,1.22c1.53-.79,3.24-1.25,5.05-1.34" />
          <path
             id="path6-8"
             data-name="path6"
             d="M67.89,277.73l-1.23.71c1.09,1.68,2.53,3.13,4.22,4.2l.71-1.22c-1.48-.96-2.74-2.21-3.7-3.68" />
          <path
             id="path7-8"
             data-name="path7"
             d="M85.16,281.42l.71,1.22c1.69-1.09,3.14-2.52,4.22-4.2l-1.23-.71c-.96,1.47-2.22,2.73-3.7,3.68" />
          <path
             id="path8-8"
             data-name="path8"
             d="M90.84,271.6c-.09,1.8-.56,3.52-1.35,5.04l1.23.71c.9-1.73,1.45-3.68,1.55-5.75h-1.43Z" />
          <path
             id="path9-8"
             data-name="path9"
             d="M65.92,271.6h-1.43c.09,2.06.64,4.01,1.55,5.75l1.23-.71c-.79-1.52-1.26-3.23-1.35-5.04" />
          <path
             id="path10-8"
             data-name="path10"
             d="M67.27,265.31l-1.23-.71c-.91,1.73-1.46,3.67-1.55,5.75h1.43c.09-1.8.56-3.52,1.35-5.04" />
        </g>
        <g
           id="g17">
          <path
             id="path2-9"
             data-name="path2"
             d="M139.88,31.64l1.23-.71c-1.09-1.68-2.53-3.13-4.22-4.2l-.71,1.22c1.48.96,2.74,2.21,3.7,3.68" />
          <path
             id="path3-9"
             data-name="path3"
             d="M122.62,27.95l-.71-1.22c-1.69,1.09-3.14,2.52-4.22,4.2l1.23.71c.96-1.47,2.22-2.73,3.7-3.68" />
          <path
             id="path4-9"
             data-name="path4"
             d="M141.86,37.76h1.43c-.09-2.06-.64-4.01-1.55-5.75l-1.23.71c.79,1.52,1.26,3.23,1.35,5.04" />
          <path
             id="path6-9"
             data-name="path6"
             d="M118.92,45.15l-1.23.71c1.09,1.68,2.53,3.13,4.22,4.2l.71-1.22c-1.48-.96-2.74-2.21-3.7-3.68" />
          <path
             id="path7-9"
             data-name="path7"
             d="M136.18,48.84l.71,1.22c1.69-1.09,3.14-2.52,4.22-4.2l-1.23-.71c-.96,1.47-2.22,2.73-3.7,3.68" />
          <path
             id="path8-9"
             data-name="path8"
             d="M141.86,39.02c-.09,1.8-.56,3.52-1.35,5.04l1.23.71c.9-1.73,1.45-3.68,1.55-5.75h-1.43Z" />
          <path
             id="path9-9"
             data-name="path9"
             d="M116.94,39.02h-1.43c.09,2.06.64,4.01,1.55,5.75l1.23-.71c-.79-1.52-1.26-3.23-1.35-5.04" />
          <path
             id="path10-9"
             data-name="path10"
             d="M118.29,32.72l-1.23-.71c-.91,1.73-1.46,3.67-1.55,5.75h1.43c.09-1.8.56-3.52,1.35-5.04" />
          <path
             d="M129.4,22.78c-.98,0-1.77.79-1.77,1.77s.79,1.77,1.77,1.77,1.77-.79,1.77-1.77-.79-1.77-1.77-1.77Z"
             id="path15" />
          <path
             d="M132.63,24.93c-.06.49-.22.95-.47,1.35,1.02.23,2,.57,2.91,1.04l.71-1.22c-.99-.51-2.05-.9-3.15-1.16Z"
             id="path16" />
          <path
             d="M126.17,24.93c-1.11.27-2.18.65-3.16,1.16l.71,1.22c.91-.47,1.9-.81,2.92-1.04-.25-.4-.41-.86-.47-1.35Z"
             id="path17" />
        </g>
        <g
           id="g20">
          <path
             id="path2-10"
             data-name="path2"
             d="M139.88,64.95l1.23-.71c-1.09-1.68-2.53-3.13-4.22-4.2l-.71,1.22c1.48.96,2.74,2.21,3.7,3.68" />
          <path
             id="path3-10"
             data-name="path3"
             d="M122.62,61.25l-.71-1.22c-1.69,1.09-3.14,2.52-4.22,4.2l1.23.71c.96-1.47,2.22-2.73,3.7-3.68" />
          <path
             id="path4-10"
             data-name="path4"
             d="M141.86,71.07h1.43c-.09-2.06-.64-4.01-1.55-5.75l-1.23.71c.79,1.52,1.26,3.23,1.35,5.04" />
          <path
             id="path6-10"
             data-name="path6"
             d="M118.92,78.46l-1.23.71c1.09,1.68,2.53,3.13,4.22,4.2l.71-1.22c-1.48-.96-2.74-2.21-3.7-3.68" />
          <path
             id="path7-10"
             data-name="path7"
             d="M136.18,82.14l.71,1.22c1.69-1.09,3.14-2.52,4.22-4.2l-1.23-.71c-.96,1.47-2.22,2.73-3.7,3.68" />
          <path
             id="path8-10"
             data-name="path8"
             d="M141.86,72.33c-.09,1.8-.56,3.52-1.35,5.04l1.23.71c.9-1.73,1.45-3.68,1.55-5.75h-1.43Z" />
          <path
             id="path9-10"
             data-name="path9"
             d="M116.94,72.33h-1.43c.09,2.06.64,4.01,1.55,5.75l1.23-.71c-.79-1.52-1.26-3.23-1.35-5.04" />
          <path
             id="path10-10"
             data-name="path10"
             d="M118.29,66.03l-1.23-.71c-.91,1.73-1.46,3.67-1.55,5.75h1.43c.09-1.8.56-3.52,1.35-5.04" />
          <path
             d="M129.4,56.09c-.98,0-1.77.79-1.77,1.77s.79,1.77,1.77,1.77,1.77-.79,1.77-1.77-.79-1.77-1.77-1.77Z"
             id="path18" />
          <path
             d="M132.63,58.24c-.06.49-.22.95-.47,1.35,1.02.23,2,.57,2.91,1.04l.71-1.22c-.99-.51-2.05-.9-3.15-1.16Z"
             id="path19" />
          <path
             d="M126.17,58.24c-1.11.27-2.18.65-3.16,1.16l.71,1.22c.91-.47,1.9-.81,2.92-1.04-.25-.4-.41-.86-.47-1.35Z"
             id="path20" />
        </g>
        <g
           id="g23">
          <path
             id="path2-11"
             data-name="path2"
             d="M139.88,98.25l1.23-.71c-1.09-1.68-2.53-3.13-4.22-4.2l-.71,1.22c1.48.96,2.74,2.21,3.7,3.68" />
          <path
             id="path3-11"
             data-name="path3"
             d="M122.62,94.56l-.71-1.22c-1.69,1.09-3.14,2.52-4.22,4.2l1.23.71c.96-1.47,2.22-2.73,3.7-3.68" />
          <path
             id="path4-11"
             data-name="path4"
             d="M141.86,104.38h1.43c-.09-2.06-.64-4.01-1.55-5.75l-1.23.71c.79,1.52,1.26,3.23,1.35,5.04" />
          <path
             id="path6-11"
             data-name="path6"
             d="M118.92,111.77l-1.23.71c1.09,1.68,2.53,3.13,4.22,4.2l.71-1.22c-1.48-.96-2.74-2.21-3.7-3.68" />
          <path
             id="path7-11"
             data-name="path7"
             d="M136.18,115.45l.71,1.22c1.69-1.09,3.14-2.52,4.22-4.2l-1.23-.71c-.96,1.47-2.22,2.73-3.7,3.68" />
          <path
             id="path8-11"
             data-name="path8"
             d="M141.86,105.63c-.09,1.8-.56,3.52-1.35,5.04l1.23.71c.9-1.73,1.45-3.68,1.55-5.75h-1.43Z" />
          <path
             id="path9-11"
             data-name="path9"
             d="M116.94,105.63h-1.43c.09,2.06.64,4.01,1.55,5.75l1.23-.71c-.79-1.52-1.26-3.23-1.35-5.04" />
          <path
             id="path10-11"
             data-name="path10"
             d="M118.29,99.34l-1.23-.71c-.91,1.73-1.46,3.67-1.55,5.75h1.43c.09-1.8.56-3.52,1.35-5.04" />
          <path
             d="M129.4,89.39c-.98,0-1.77.79-1.77,1.77s.79,1.77,1.77,1.77,1.77-.79,1.77-1.77-.79-1.77-1.77-1.77Z"
             id="path21" />
          <path
             d="M132.63,91.54c-.06.49-.22.95-.47,1.35,1.02.23,2,.57,2.91,1.04l.71-1.22c-.99-.51-2.05-.9-3.15-1.16Z"
             id="path22" />
          <path
             d="M126.17,91.54c-1.11.27-2.18.65-3.16,1.16l.71,1.22c.91-.47,1.9-.81,2.92-1.04-.25-.4-.41-.86-.47-1.35Z"
             id="path23" />
        </g>
        <g
           id="g26">
          <path
             id="path2-12"
             data-name="path2"
             d="M139.88,131.28l1.23-.71c-1.09-1.68-2.53-3.13-4.22-4.2l-.71,1.22c1.48.96,2.74,2.21,3.7,3.68" />
          <path
             id="path3-12"
             data-name="path3"
             d="M122.62,127.58l-.71-1.22c-1.69,1.09-3.14,2.52-4.22,4.2l1.23.71c.96-1.47,2.22-2.73,3.7-3.68" />
          <path
             id="path4-12"
             data-name="path4"
             d="M141.86,137.4h1.43c-.09-2.06-.64-4.01-1.55-5.75l-1.23.71c.79,1.52,1.26,3.23,1.35,5.04" />
          <path
             id="path6-12"
             data-name="path6"
             d="M118.92,144.79l-1.23.71c1.09,1.68,2.53,3.13,4.22,4.2l.71-1.22c-1.48-.96-2.74-2.21-3.7-3.68" />
          <path
             id="path7-12"
             data-name="path7"
             d="M136.18,148.47l.71,1.22c1.69-1.09,3.14-2.52,4.22-4.2l-1.23-.71c-.96,1.47-2.22,2.73-3.7,3.68" />
          <path
             id="path8-12"
             data-name="path8"
             d="M141.86,138.66c-.09,1.8-.56,3.52-1.35,5.04l1.23.71c.9-1.73,1.45-3.68,1.55-5.75h-1.43Z" />
          <path
             id="path9-12"
             data-name="path9"
             d="M116.94,138.66h-1.43c.09,2.06.64,4.01,1.55,5.75l1.23-.71c-.79-1.52-1.26-3.23-1.35-5.04" />
          <path
             id="path10-12"
             data-name="path10"
             d="M118.29,132.36l-1.23-.71c-.91,1.73-1.46,3.67-1.55,5.75h1.43c.09-1.8.56-3.52,1.35-5.04" />
          <path
             d="M129.4,122.42c-.98,0-1.77.79-1.77,1.77s.79,1.77,1.77,1.77,1.77-.79,1.77-1.77-.79-1.77-1.77-1.77Z"
             id="path24" />
          <path
             d="M132.63,124.57c-.06.49-.22.95-.47,1.35,1.02.23,2,.57,2.91,1.04l.71-1.22c-.99-.51-2.05-.9-3.15-1.16Z"
             id="path25" />
          <path
             d="M126.17,124.57c-1.11.27-2.18.65-3.16,1.16l.71,1.22c.91-.47,1.9-.81,2.92-1.04-.25-.4-.41-.86-.47-1.35Z"
             id="path26" />
        </g>
        <g
           id="g29">
          <path
             id="path2-13"
             data-name="path2"
             d="M139.88,164.58l1.23-.71c-1.09-1.68-2.53-3.13-4.22-4.2l-.71,1.22c1.48.96,2.74,2.21,3.7,3.68" />
          <path
             id="path3-13"
             data-name="path3"
             d="M122.62,160.89l-.71-1.22c-1.69,1.09-3.14,2.52-4.22,4.2l1.23.71c.96-1.47,2.22-2.73,3.7-3.68" />
          <path
             id="path4-13"
             data-name="path4"
             d="M141.86,170.71h1.43c-.09-2.06-.64-4.01-1.55-5.75l-1.23.71c.79,1.52,1.26,3.23,1.35,5.04" />
          <path
             id="path6-13"
             data-name="path6"
             d="M118.92,178.1l-1.23.71c1.09,1.68,2.53,3.13,4.22,4.2l.71-1.22c-1.48-.96-2.74-2.21-3.7-3.68" />
          <path
             id="path7-13"
             data-name="path7"
             d="M136.18,181.78l.71,1.22c1.69-1.09,3.14-2.52,4.22-4.2l-1.23-.71c-.96,1.47-2.22,2.73-3.7,3.68" />
          <path
             id="path8-13"
             data-name="path8"
             d="M141.86,171.96c-.09,1.8-.56,3.52-1.35,5.04l1.23.71c.9-1.73,1.45-3.68,1.55-5.75h-1.43Z" />
          <path
             id="path9-13"
             data-name="path9"
             d="M116.94,171.96h-1.43c.09,2.06.64,4.01,1.55,5.75l1.23-.71c-.79-1.52-1.26-3.23-1.35-5.04" />
          <path
             id="path10-13"
             data-name="path10"
             d="M118.29,165.67l-1.23-.71c-.91,1.73-1.46,3.67-1.55,5.75h1.43c.09-1.8.56-3.52,1.35-5.04" />
          <path
             d="M129.4,155.72c-.98,0-1.77.79-1.77,1.77s.79,1.77,1.77,1.77,1.77-.79,1.77-1.77-.79-1.77-1.77-1.77Z"
             id="path27" />
          <path
             d="M132.63,157.87c-.06.49-.22.95-.47,1.35,1.02.23,2,.57,2.91,1.04l.71-1.22c-.99-.51-2.05-.9-3.15-1.16Z"
             id="path28" />
          <path
             d="M126.17,157.87c-1.11.27-2.18.65-3.16,1.16l.71,1.22c.91-.47,1.9-.81,2.92-1.04-.25-.4-.41-.86-.47-1.35Z"
             id="path29" />
        </g>
        <g
           id="g32">
          <path
             id="path2-14"
             data-name="path2"
             d="M139.88,197.61l1.23-.71c-1.09-1.68-2.53-3.13-4.22-4.2l-.71,1.22c1.48.96,2.74,2.21,3.7,3.68" />
          <path
             id="path3-14"
             data-name="path3"
             d="M122.62,193.91l-.71-1.22c-1.69,1.09-3.14,2.52-4.22,4.2l1.23.71c.96-1.47,2.22-2.73,3.7-3.68" />
          <path
             id="path4-14"
             data-name="path4"
             d="M141.86,203.73h1.43c-.09-2.06-.64-4.01-1.55-5.75l-1.23.71c.79,1.52,1.26,3.23,1.35,5.04" />
          <path
             id="path6-14"
             data-name="path6"
             d="M118.92,211.12l-1.23.71c1.09,1.68,2.53,3.13,4.22,4.2l.71-1.22c-1.48-.96-2.74-2.21-3.7-3.68" />
          <path
             id="path7-14"
             data-name="path7"
             d="M136.18,214.81l.71,1.22c1.69-1.09,3.14-2.52,4.22-4.2l-1.23-.71c-.96,1.47-2.22,2.73-3.7,3.68" />
          <path
             id="path8-14"
             data-name="path8"
             d="M141.86,204.99c-.09,1.8-.56,3.52-1.35,5.04l1.23.71c.9-1.73,1.45-3.68,1.55-5.75h-1.43Z" />
          <path
             id="path9-14"
             data-name="path9"
             d="M116.94,204.99h-1.43c.09,2.06.64,4.01,1.55,5.75l1.23-.71c-.79-1.52-1.26-3.23-1.35-5.04" />
          <path
             id="path10-14"
             data-name="path10"
             d="M118.29,198.69l-1.23-.71c-.91,1.73-1.46,3.67-1.55,5.75h1.43c.09-1.8.56-3.52,1.35-5.04" />
          <path
             d="M129.4,188.75c-.98,0-1.77.79-1.77,1.77s.79,1.77,1.77,1.77,1.77-.79,1.77-1.77-.79-1.77-1.77-1.77Z"
             id="path30" />
          <path
             d="M132.63,190.9c-.06.49-.22.95-.47,1.35,1.02.23,2,.57,2.91,1.04l.71-1.22c-.99-.51-2.05-.9-3.15-1.16Z"
             id="path31" />
          <path
             d="M126.17,190.9c-1.11.27-2.18.65-3.16,1.16l.71,1.22c.91-.47,1.9-.81,2.92-1.04-.25-.4-.41-.86-.47-1.35Z"
             id="path32" />
        </g>
        <g
           id="g35">
          <path
             id="path2-15"
             data-name="path2"
             d="M139.88,230.92l1.23-.71c-1.09-1.68-2.53-3.13-4.22-4.2l-.71,1.22c1.48.96,2.74,2.21,3.7,3.68" />
          <path
             id="path3-15"
             data-name="path3"
             d="M122.62,227.22l-.71-1.22c-1.69,1.09-3.14,2.52-4.22,4.2l1.23.71c.96-1.47,2.22-2.73,3.7-3.68" />
          <path
             id="path4-15"
             data-name="path4"
             d="M141.86,237.04h1.43c-.09-2.06-.64-4.01-1.55-5.75l-1.23.71c.79,1.52,1.26,3.23,1.35,5.04" />
          <path
             id="path6-15"
             data-name="path6"
             d="M118.92,244.43l-1.23.71c1.09,1.68,2.53,3.13,4.22,4.2l.71-1.22c-1.48-.96-2.74-2.21-3.7-3.68" />
          <path
             id="path7-15"
             data-name="path7"
             d="M136.18,248.11l.71,1.22c1.69-1.09,3.14-2.52,4.22-4.2l-1.23-.71c-.96,1.47-2.22,2.73-3.7,3.68" />
          <path
             id="path8-15"
             data-name="path8"
             d="M141.86,238.29c-.09,1.8-.56,3.52-1.35,5.04l1.23.71c.9-1.73,1.45-3.68,1.55-5.75h-1.43Z" />
          <path
             id="path9-15"
             data-name="path9"
             d="M116.94,238.29h-1.43c.09,2.06.64,4.01,1.55,5.75l1.23-.71c-.79-1.52-1.26-3.23-1.35-5.04" />
          <path
             id="path10-15"
             data-name="path10"
             d="M118.29,232l-1.23-.71c-.91,1.73-1.46,3.67-1.55,5.75h1.43c.09-1.8.56-3.52,1.35-5.04" />
          <path
             d="M129.4,222.05c-.98,0-1.77.79-1.77,1.77s.79,1.77,1.77,1.77,1.77-.79,1.77-1.77-.79-1.77-1.77-1.77Z"
             id="path33" />
          <path
             d="M132.63,224.21c-.06.49-.22.95-.47,1.35,1.02.23,2,.57,2.91,1.04l.71-1.22c-.99-.51-2.05-.9-3.15-1.16Z"
             id="path34" />
          <path
             d="M126.17,224.2c-1.11.27-2.18.65-3.16,1.16l.71,1.22c.91-.47,1.9-.81,2.92-1.04-.25-.4-.41-.86-.47-1.35Z"
             id="path35" />
        </g>
        <g
           id="g38">
          <path
             id="path2-16"
             data-name="path2"
             d="M139.88,264.22l1.23-.71c-1.09-1.68-2.53-3.13-4.22-4.2l-.71,1.22c1.48.96,2.74,2.21,3.7,3.68" />
          <path
             id="path3-16"
             data-name="path3"
             d="M122.62,260.53l-.71-1.22c-1.69,1.09-3.14,2.52-4.22,4.2l1.23.71c.96-1.47,2.22-2.73,3.7-3.68" />
          <path
             id="path4-16"
             data-name="path4"
             d="M141.86,270.35h1.43c-.09-2.06-.64-4.01-1.55-5.75l-1.23.71c.79,1.52,1.26,3.23,1.35,5.04" />
          <path
             id="path6-16"
             data-name="path6"
             d="M118.92,277.73l-1.23.71c1.09,1.68,2.53,3.13,4.22,4.2l.71-1.22c-1.48-.96-2.74-2.21-3.7-3.68" />
          <path
             id="path7-16"
             data-name="path7"
             d="M136.18,281.42l.71,1.22c1.69-1.09,3.14-2.52,4.22-4.2l-1.23-.71c-.96,1.47-2.22,2.73-3.7,3.68" />
          <path
             id="path8-16"
             data-name="path8"
             d="M141.86,271.6c-.09,1.8-.56,3.52-1.35,5.04l1.23.71c.9-1.73,1.45-3.68,1.55-5.75h-1.43Z" />
          <path
             id="path9-16"
             data-name="path9"
             d="M116.94,271.6h-1.43c.09,2.06.64,4.01,1.55,5.75l1.23-.71c-.79-1.52-1.26-3.23-1.35-5.04" />
          <path
             id="path10-16"
             data-name="path10"
             d="M118.29,265.31l-1.23-.71c-.91,1.73-1.46,3.67-1.55,5.75h1.43c.09-1.8.56-3.52,1.35-5.04" />
          <path
             d="M129.4,255.36c-.98,0-1.77.79-1.77,1.77s.79,1.77,1.77,1.77,1.77-.79,1.77-1.77-.79-1.77-1.77-1.77Z"
             id="path36" />
          <path
             d="M132.63,257.51c-.06.49-.22.95-.47,1.35,1.02.23,2,.57,2.91,1.04l.71-1.22c-.99-.51-2.05-.9-3.15-1.16Z"
             id="path37" />
          <path
             d="M126.17,257.51c-1.11.27-2.18.65-3.16,1.16l.71,1.22c.91-.47,1.9-.81,2.92-1.04-.25-.4-.41-.86-.47-1.35Z"
             id="path38" />
        </g>
        <path
           id="line38"
           style="fill:none;stroke:#000000;stroke-miterlimit:10"
           d="M 184.82001,38.27 H 146.03999" />
        <path
           id="line39"
           style="fill:none;stroke:#000000;stroke-miterlimit:10"
           d="M 112.68,38.27 H 95.099998" />
        <path
           id="line40"
           style="fill:none;stroke:#000000;stroke-miterlimit:10"
           d="M 61.540001,38.27 H 42.549999" />
        <path
           id="line41"
           style="fill:none;stroke:#000000;stroke-miterlimit:10"
           d="M 112.68,71.470001 H 95.099998" />
        <path
           id="line42"
           style="fill:none;stroke:#000000;stroke-miterlimit:10"
           d="M 61.540001,71.470001 H 42.549999" />
        <g
           id="g44">
          <path
             id="line43"
             style="fill:none;stroke:#000000;stroke-miterlimit:10"
             d="M 112.68,104.68 H 95.099998" />
          <path
             id="line44"
             style="fill:none;stroke:#000000;stroke-miterlimit:10"
             d="M 61.540001,104.68 H 42.549999" />
        </g>
        <g
           id="g46">
          <path
             id="line45"
             style="fill:none;stroke:#000000;stroke-miterlimit:10"
             d="M 112.68,137.89 H 95.099998" />
          <path
             id="line46"
             style="fill:none;stroke:#000000;stroke-miterlimit:10"
             d="M 61.540001,137.89 H 42.549999" />
        </g>
        <g
           id="g48">
          <path
             id="line47"
             style="fill:none;stroke:#000000;stroke-miterlimit:10"
             d="M 112.68,171.09 H 95.099998" />
          <path
             id="line48"
             style="fill:none;stroke:#000000;stroke-miterlimit:10"
             d="M 61.540001,171.09 H 42.549999" />
        </g>
        <g
           id="g50">
          <path
             id="line49"
             style="fill:none;stroke:#000000;stroke-miterlimit:10"
             d="M 112.68,204.3 H 95.099998" />
          <path
             id="line50"
             style="fill:none;stroke:#000000;stroke-miterlimit:10"
             d="M 61.540001,204.3 H 42.549999" />
        </g>
        <g
           id="g52">
          <path
             id="line51"
             style="fill:none;stroke:#000000;stroke-miterlimit:10"
             d="M 112.68,237.5 H 95.099998" />
          <path
             id="line52"
             style="fill:none;stroke:#000000;stroke-miterlimit:10"
             d="M 61.540001,237.5 H 42.549999" />
        </g>
        <g
           id="g54">
          <path
             id="line53"
             style="fill:none;stroke:#000000;stroke-miterlimit:10"
             d="M 112.68,270.70999 H 95.099998" />
          <path
             id="line54"
             style="fill:none;stroke:#000000;stroke-miterlimit:10"
             d="M 61.540001,270.70999 H 42.549999" />
        </g>
        <path
           id="line55"
           style="fill:none;stroke:#000000;stroke-miterlimit:10"
           d="M 184.82001,71.470001 H 146.77" />
        <path
           id="line56"
           style="fill:none;stroke:#000000;stroke-miterlimit:10"
           d="M 184.82001,104.68 H 146.77" />
        <path
           id="line57"
           style="fill:none;stroke:#000000;stroke-miterlimit:10"
           d="M 184.82001,137.89 H 146.77" />
        <path
           id="line58"
           style="fill:none;stroke:#000000;stroke-miterlimit:10"
           d="M 184.82001,171.09 H 146.77" />
        <path
           id="line59"
           style="fill:none;stroke:#000000;stroke-miterlimit:10"
           d="M 184.82001,204.3 H 146.77" />
        <path
           id="line60"
           style="fill:none;stroke:#000000;stroke-miterlimit:10"
           d="M 184.82001,237.5 H 146.77" />
        <path
           id="line61"
           style="fill:none;stroke:#000000;stroke-miterlimit:10"
           d="M 184.82001,271.39001 H 146.77" />
        <path
           d="M133.62,300.06c8.05,0,14.59,6.55,14.59,14.59s-6.55,14.59-14.59,14.59H36.71c-8.05,0-14.59-6.55-14.59-14.59s6.55-14.59,14.59-14.59h96.91M133.62,299.06H36.71c-8.61,0-15.59,6.98-15.59,15.59h0c0,8.61,6.98,15.59,15.59,15.59h96.91c8.61,0,15.59-6.98,15.59-15.59h0c0-8.61-6.98-15.59-15.59-15.59h0Z"
           id="path61" />
        <path
           d="M27.13,22.51c8.05,0,14.59,6.56,14.59,14.61v234.52c0,8.06-6.55,14.61-14.59,14.61s-14.59-6.56-14.59-14.61V37.12c0-8.06,6.55-14.61,14.59-14.61M27.13,21.51c-8.61,0-15.59,6.99-15.59,15.61v234.52c0,8.62,6.98,15.61,15.59,15.61s15.59-6.99,15.59-15.61V37.12c0-8.62-6.98-15.61-15.59-15.61h0Z"
           id="path62" />
        <path
           d="M106.07,314.65c0,8.61,6.95,15.59,15.52,15.59h4.16s0,0,0,0h40.21c8.01,0,14.51-6.98,14.51-15.59,0-8.61-6.5-15.59-14.51-15.59h-40.22s0,0,0,0h-4.16c-8.57,0-15.52,6.98-15.52,15.59h0Z"
           id="path63" />
        <g
           id="g64">
          <path
             id="circle63"
             d="m 165.51999,38.27 a 7.0900002,7.0900002 0 0 1 -7.09,7.090001 7.0900002,7.0900002 0 0 1 -7.09,-7.090001 7.0900002,7.0900002 0 0 1 7.09,-7.09 7.0900002,7.0900002 0 0 1 7.09,7.09 z" />
          <path
             d="M159.25,41.65h-1.63v-6.77h1.63v6.77Z"
             style="fill: #ededed;"
             id="path64" />
        </g>
        <g
           id="g65">
          <path
             id="circle64"
             d="m 165.51999,71.470001 a 7.0900002,7.0900002 0 0 1 -7.09,7.09 7.0900002,7.0900002 0 0 1 -7.09,-7.09 7.0900002,7.0900002 0 0 1 7.09,-7.09 7.0900002,7.0900002 0 0 1 7.09,7.09 z" />
          <path
             d="M160.69,74.62h-4.52v-.13c.17-.19.37-.42.58-.69.21-.27.48-.62.81-1.06.15-.2.29-.39.43-.59.13-.19.25-.38.34-.56s.17-.38.24-.6c.07-.22.1-.44.1-.67,0-.31-.08-.57-.24-.76-.16-.19-.36-.29-.61-.29-.49,0-.97.29-1.45.86v-1.6c.17-.12.31-.22.42-.3.11-.08.23-.15.38-.22.14-.07.31-.13.5-.19.19-.05.41-.08.63-.08.36,0,.69.08.99.25.3.17.53.41.7.73s.26.69.26,1.11c0,.3-.04.58-.12.84-.08.26-.16.47-.24.63-.08.16-.19.36-.33.59-.25.42-.51.81-.79,1.19h1.93v1.52Z"
             style="fill: #ededed;"
             id="path65" />
        </g>
        <g
           id="g66">
          <path
             id="circle65"
             d="m 165.51999,104.61 a 7.0900002,7.0900002 0 0 1 -7.09,7.09 7.0900002,7.0900002 0 0 1 -7.09,-7.09 7.0900002,7.0900002 0 0 1 7.09,-7.09 7.0900002,7.0900002 0 0 1 7.09,7.09 z" />
          <path
             d="M160.66,106.11c0,.35-.06.66-.19.91-.12.25-.29.46-.49.61-.2.16-.42.27-.64.34-.23.07-.45.11-.66.11-.3,0-.63-.05-1-.14-.36-.1-.67-.21-.92-.34v-1.52c.2.19.42.35.65.48.23.13.47.19.72.19.19,0,.34-.04.47-.12.13-.08.22-.18.29-.3.06-.12.1-.25.1-.38,0-.17-.04-.33-.12-.46-.08-.13-.2-.24-.35-.32-.15-.08-.33-.12-.53-.12h-.19v-1.09h.23c.2,0,.37-.04.5-.13s.22-.19.28-.32c.06-.12.09-.24.09-.34,0-.21-.07-.39-.21-.54-.14-.16-.32-.24-.54-.24-.2,0-.4.04-.62.13-.21.08-.41.2-.6.34v-1.3c.28-.13.54-.24.79-.32.25-.08.53-.11.84-.11.45,0,.83.1,1.13.3.3.2.52.44.66.72.14.28.21.55.21.79,0,.2-.04.4-.12.61-.08.2-.18.38-.3.54-.12.16-.25.28-.39.37.24.14.45.34.63.6.18.25.27.61.27,1.06Z"
             style="fill: #ededed;"
             id="path66" />
        </g>
        <g
           id="g67">
          <path
             id="circle66"
             d="m 165.51999,137.89 a 7.0900002,7.0900002 0 0 1 -7.09,7.09 7.0900002,7.0900002 0 0 1 -7.09,-7.09 7.0900002,7.0900002 0 0 1 7.09,-7.09 7.0900002,7.0900002 0 0 1 7.09,7.09 z" />
          <path
             d="M160.5,139.81h-.7v1.46h-1.59v-1.46h-2.42v-1.29l2.73-4.02h1.28v4.15h.7v1.16ZM158.21,138.65v-2.17l-1.48,2.17h1.48Z"
             style="fill: #ededed;"
             id="path67" />
        </g>
        <g
           id="g68">
          <path
             id="circle67"
             d="m 165.51999,171.09 a 7.0900002,7.0900002 0 0 1 -7.09,7.09 7.0900002,7.0900002 0 0 1 -7.09,-7.09 7.0900002,7.0900002 0 0 1 7.09,-7.09 7.0900002,7.0900002 0 0 1 7.09,7.09 z" />
          <path
             d="M160.76,172.31c0,.39-.08.75-.24,1.09-.16.34-.4.61-.72.81-.32.2-.71.3-1.17.3-.37,0-.72-.05-1.05-.16-.34-.11-.64-.27-.92-.49v-1.46c.18.16.44.31.78.47.33.16.62.24.87.24.29,0,.5-.09.61-.26.12-.17.18-.35.18-.54,0-.15-.03-.3-.1-.43s-.19-.25-.35-.34c-.17-.09-.39-.13-.68-.13-.31,0-.61.07-.9.2v-3.95h3.45v1.43h-2.13v1.16s.09-.01.14-.02c.05,0,.09,0,.11,0,.02,0,.06,0,.13,0,.4,0,.75.1,1.06.29.3.19.54.45.7.76.16.32.24.66.24,1.04Z"
             style="fill: #ededed;"
             id="path68" />
        </g>
        <g
           id="g69">
          <path
             id="circle68"
             d="m 165.51999,204.3 a 7.0900002,7.0900002 0 0 1 -7.09,7.09 7.0900002,7.0900002 0 0 1 -7.09,-7.09 7.0900002,7.0900002 0 0 1 7.09,-7.09 7.0900002,7.0900002 0 0 1 7.09,7.09 z" />
          <path
             d="M160.76,205.35c0,.31-.05.61-.16.91-.11.29-.26.55-.47.78-.2.23-.45.41-.73.54-.28.13-.6.2-.94.2-.5,0-.92-.12-1.28-.37-.36-.25-.63-.58-.81-.99-.18-.41-.27-.85-.27-1.32,0-.38.06-.76.17-1.15.11-.39.27-.77.49-1.14s.46-.73.75-1.05.61-.64.98-.94l1.47.55c-.23.23-.44.44-.61.62-.17.19-.34.38-.49.58-.15.2-.29.41-.42.62.11-.03.24-.05.4-.05.35,0,.67.09.96.27.29.18.53.44.7.78.17.34.26.72.26,1.15ZM159.21,205.32c0-.31-.08-.54-.23-.69-.15-.15-.33-.22-.54-.22-.27,0-.47.1-.6.3-.13.2-.19.4-.19.62,0,.26.07.48.22.66.15.18.33.27.54.27.18,0,.33-.05.45-.15.12-.1.2-.22.26-.37.06-.15.08-.28.08-.42Z"
             style="fill: #ededed;"
             id="path69" />
        </g>
        <g
           id="g70">
          <path
             id="circle69"
             d="m 165.51999,237.5 a 7.0900002,7.0900002 0 0 1 -7.09,7.09 7.0900002,7.0900002 0 0 1 -7.09,-7.09 7.0900002,7.0900002 0 0 1 7.09,-7.09 7.0900002,7.0900002 0 0 1 7.09,7.09 z" />
          <path
             d="M160.97,234.27l-2.54,6.66-1.38-.5,1.82-4.86h-2.41v-1.5h4.52v.2Z"
             style="fill: #ededed;"
             id="path70" />
        </g>
        <g
           id="g71">
          <path
             id="circle70"
             d="m 165.51999,271.39001 a 7.0900002,7.0900002 0 0 1 -7.09,7.09 7.0900002,7.0900002 0 0 1 -7.09,-7.09 7.0900002,7.0900002 0 0 1 7.09,-7.09 7.0900002,7.0900002 0 0 1 7.09,7.09 z" />
          <path
             d="M160.75,272.95c0,.16-.03.34-.09.55-.06.21-.17.41-.33.62-.16.21-.4.39-.71.53-.31.14-.71.21-1.19.21s-.89-.07-1.2-.21c-.31-.14-.55-.32-.72-.53-.17-.21-.28-.42-.33-.62-.05-.2-.08-.38-.08-.55,0-.34.09-.66.26-.97s.41-.54.7-.7c-.24-.17-.43-.37-.56-.59-.13-.22-.2-.51-.2-.86,0-.2.04-.4.11-.62.07-.22.19-.43.36-.63.16-.2.38-.36.66-.49s.6-.18.99-.18.75.06,1.02.18.49.28.66.48c.17.2.28.41.35.62s.1.42.1.63c0,.36-.06.64-.19.86-.13.21-.32.41-.56.59.2.12.37.26.5.43.14.17.25.36.33.58.08.22.12.44.12.66ZM159.22,272.77c0-.21-.04-.39-.12-.54s-.18-.27-.31-.34c-.12-.08-.25-.12-.37-.12-.2,0-.38.09-.55.27-.16.18-.25.42-.25.73,0,.33.08.58.25.75.16.17.35.26.55.26s.4-.09.55-.28c.16-.19.23-.43.23-.73ZM159.05,269.96c0-.21-.05-.42-.14-.62-.09-.2-.25-.29-.46-.29s-.38.09-.48.28c-.1.19-.15.4-.15.63,0,.26.06.48.19.65.12.17.27.25.43.25s.31-.08.43-.25c.12-.17.19-.38.19-.65Z"
             style="fill: #ededed;"
             id="path71" />
        </g>
      </g>
      <g
         id="text">
        <g
           id="g78">
          <path
             d="M83.18,353.59c0,.76-.11,1.38-.33,1.84-.22.46-.48.84-.78,1.12-.43.42-1.02.63-1.79.63h-3.21v-7.44h2.47c.37,0,.69.02.96.07.26.05.5.12.72.2.21.09.39.19.54.3.15.11.28.23.4.35.2.21.38.45.54.74.15.28.28.61.37.98.09.37.14.78.14,1.21ZM81.36,353.49c0-.6-.09-1.08-.28-1.42-.18-.34-.41-.56-.67-.68-.26-.11-.52-.17-.79-.17h-.76v4.41h.76c.47,0,.88-.14,1.22-.42s.52-.85.52-1.72Z"
             id="path72" />
          <path
             d="M89.62,357.17h-1.93l-.47-1.32c-.17-.48-.33-.84-.46-1.06s-.27-.37-.4-.43c-.13-.06-.3-.09-.5-.09h-.2v2.91h-1.8v-7.44h3.05c.49,0,.9.13,1.21.38.31.25.54.56.68.91.14.36.21.7.21,1.02,0,.38-.06.69-.17.95-.12.26-.24.45-.37.57s-.27.23-.43.34c.19.14.35.31.47.5s.29.58.51,1.16l.6,1.62ZM87.18,352.08c0-.34-.09-.58-.27-.72-.18-.14-.47-.2-.88-.2h-.38v1.79h.39c.44,0,.74-.06.9-.18.16-.12.24-.35.24-.69Z"
             id="path73" />
          <path
             d="M96.2,353.84c0,.64-.09,1.18-.29,1.63-.19.45-.44.8-.76,1.07-.31.26-.65.45-1.01.56-.36.12-.72.17-1.08.17-.5,0-1-.11-1.47-.32-.48-.21-.88-.58-1.2-1.1-.32-.52-.48-1.19-.48-2.01v-4.11h1.79v3.53c0,.49.06.9.17,1.22.11.32.27.56.47.7s.44.22.72.22.5-.07.7-.22c.2-.15.36-.38.47-.7.11-.32.17-.72.17-1.21v-3.54h1.8v4.11Z"
             id="path74" />
          <path
             d="M104.09,357.17h-1.8v-4.31l-1.62,2.5h-.14l-1.62-2.5v4.31h-1.74v-7.44h1.63l1.83,2.79,1.84-2.79h1.63v7.44Z"
             id="path75" />
          <path
             d="M112.77,355.06c0,.64-.18,1.15-.53,1.54-.35.38-.84.57-1.47.57h-3.44v-7.44h2.88c.37,0,.7.04.97.13.28.09.5.21.67.37.17.16.29.34.38.55.08.21.12.44.12.69,0,.27-.04.52-.13.75-.09.23-.19.42-.32.57-.13.15-.25.25-.38.31.41.2.72.45.93.76.21.31.32.7.32,1.19ZM110.67,351.87c0-.36-.09-.6-.28-.71-.19-.12-.48-.18-.88-.18h-.38v1.78h.39c.41,0,.71-.06.89-.18.18-.12.27-.36.27-.71ZM110.96,354.97c0-.64-.37-.96-1.11-.96h-.73v1.91h.73c.74,0,1.11-.32,1.11-.95Z"
             id="path76" />
          <path
             d="M119.69,353.84c0,.64-.09,1.18-.29,1.63-.19.45-.44.8-.76,1.07-.31.26-.65.45-1.01.56-.36.12-.72.17-1.08.17-.5,0-1-.11-1.47-.32-.48-.21-.88-.58-1.2-1.1-.32-.52-.48-1.19-.48-2.01v-4.11h1.79v3.53c0,.49.06.9.17,1.22.11.32.27.56.47.7s.44.22.72.22.5-.07.7-.22c.2-.15.36-.38.47-.7.11-.32.17-.72.17-1.21v-3.54h1.8v4.11Z"
             id="path77" />
          <path
             d="M124.82,355.01c0,.46-.09.87-.29,1.21-.19.34-.46.6-.8.78-.34.18-.73.27-1.17.27-.12,0-.27,0-.45-.03s-.42-.07-.71-.16c-.3-.09-.61-.22-.93-.4v-1.83c.3.23.6.43.89.58.29.15.6.23.93.23.31,0,.5-.06.59-.19.09-.13.14-.25.14-.36,0-.2-.08-.37-.23-.51-.15-.14-.38-.28-.67-.43-.33-.17-.61-.36-.86-.56-.25-.2-.45-.46-.6-.76-.16-.3-.23-.66-.23-1.08s.08-.76.24-1.09c.16-.32.4-.58.72-.78.32-.19.72-.29,1.19-.29.33,0,.64.04.92.12.28.08.51.17.7.27.18.1.31.18.38.24v1.75c-.24-.22-.51-.41-.81-.59-.3-.17-.62-.26-.96-.26-.22,0-.39.05-.49.16-.1.11-.15.24-.15.4,0,.15.05.27.15.38.1.11.28.24.54.39.46.27.83.51,1.1.73.28.21.49.46.65.74.16.28.23.63.23,1.05Z"
             id="path78" />
        </g>
        <g
           id="g82">
          <path
             d="M118.59,336.96c0,.5-.1.97-.31,1.39-.21.42-.51.76-.92,1.01-.41.25-.9.38-1.48.38s-1.09-.13-1.5-.39c-.41-.26-.71-.6-.91-1.03-.2-.42-.3-.88-.3-1.36s.1-.94.3-1.37c.2-.42.5-.76.91-1.02.41-.26.91-.39,1.5-.39.44,0,.83.07,1.18.22s.63.35.85.6.39.55.5.89c.12.34.17.69.17,1.06ZM117.12,336.96c0-.2-.03-.39-.08-.56s-.13-.31-.24-.44c-.11-.12-.24-.22-.39-.29-.15-.07-.33-.1-.53-.1-.38,0-.69.13-.91.38-.22.25-.33.59-.33,1s.11.75.33,1.01c.22.26.52.38.91.38.26,0,.49-.06.67-.18.19-.12.33-.28.42-.49.1-.21.14-.45.14-.72Z"
             id="path79" />
          <path
             d="M122.68,339.67h-1.24v-.57c-.17.21-.36.37-.55.48-.19.11-.42.16-.69.16-.53,0-.87-.18-1.03-.53-.16-.35-.23-.75-.23-1.19v-2.34h1.24v2.15c0,.22.03.41.09.57.06.16.2.24.41.24.18,0,.33-.06.43-.18s.21-.27.32-.45v-2.34h1.24v3.98Z"
             id="path80" />
          <path
             d="M125.95,339.44c-.13.07-.31.14-.53.2-.23.06-.44.1-.65.1-.89,0-1.34-.5-1.34-1.48v-1.59h-.56v-.25l1.66-1.92h.14v1.19h1.18v.98h-1.18v1.27c0,.15,0,.27.02.36.02.09.06.17.14.23.07.06.19.09.34.09.2,0,.46-.09.78-.28v1.1Z"
             id="path81" />
          <path
             d="M131.85,339.67h-3.62v-5.41h1.44v4.12h2.18v1.3Z"
             id="path82" />
        </g>
        <g
           id="g86">
          <path
             d="M160.25,336.96c0,.5-.1.97-.31,1.39-.21.42-.51.76-.92,1.01-.41.25-.9.38-1.48.38s-1.09-.13-1.5-.39c-.41-.26-.71-.6-.91-1.03-.2-.42-.3-.88-.3-1.36s.1-.94.3-1.37c.2-.42.5-.76.91-1.02.41-.26.91-.39,1.5-.39.44,0,.83.07,1.18.22s.63.35.85.6c.22.25.39.55.51.89.11.34.17.69.17,1.06ZM158.78,336.96c0-.2-.03-.39-.08-.56s-.13-.31-.24-.44c-.11-.12-.24-.22-.39-.29-.15-.07-.33-.1-.53-.1-.39,0-.69.13-.91.38-.22.25-.33.59-.33,1s.11.75.33,1.01c.22.26.52.38.91.38.26,0,.49-.06.67-.18.19-.12.33-.28.42-.49.1-.21.14-.45.14-.72Z"
             id="path83" />
          <path
             d="M164.34,339.67h-1.24v-.57c-.17.21-.36.37-.55.48-.19.11-.42.16-.69.16-.53,0-.87-.18-1.03-.53-.16-.35-.23-.75-.23-1.19v-2.34h1.24v2.15c0,.22.03.41.1.57.06.16.2.24.41.24.18,0,.33-.06.43-.18.11-.12.21-.27.32-.45v-2.34h1.24v3.98Z"
             id="path84" />
          <path
             d="M167.61,339.44c-.13.07-.31.14-.53.2-.23.06-.44.1-.65.1-.89,0-1.34-.5-1.34-1.48v-1.59h-.56v-.25l1.66-1.92h.14v1.19h1.18v.98h-1.18v1.27c0,.15,0,.27.02.36.02.09.06.17.14.23.08.06.19.09.34.09.2,0,.46-.09.78-.28v1.1Z"
             id="path85" />
          <path
             d="M174.5,339.67h-1.54l-.38-.96c-.14-.35-.26-.61-.37-.77-.11-.16-.22-.27-.32-.31-.1-.05-.24-.07-.4-.07h-.16v2.11h-1.44v-5.41h2.44c.39,0,.72.09.97.27.25.18.43.4.54.66.11.26.17.51.17.74,0,.27-.05.5-.14.69-.09.19-.19.33-.29.41-.1.09-.22.17-.35.25.15.1.28.22.38.36.1.14.24.42.41.85l.48,1.18ZM172.55,335.97c0-.25-.07-.42-.22-.52-.14-.1-.38-.15-.71-.15h-.3v1.3h.31c.35,0,.59-.04.72-.13.13-.09.19-.25.19-.5Z"
             id="path86" />
        </g>
        <g
           id="g89">
          <path
             d="M127.27,289c0,.25-.04.5-.11.74s-.2.46-.37.67c-.17.21-.4.37-.69.5-.29.13-.63.19-1.02.19h-1.18v2.54h-1.8v-6.77h2.97c.39,0,.73.07,1.02.2.29.13.52.3.69.51.17.21.29.43.37.68s.11.49.11.75ZM125.44,289.01c0-.32-.08-.54-.25-.66-.17-.12-.47-.18-.9-.18h-.38v1.63h.39c.3,0,.53-.02.69-.06.16-.04.28-.12.35-.23.07-.11.11-.28.11-.49Z"
             id="path87" />
          <path
             d="M132.2,293.39c-.23.1-.44.18-.63.24-.19.06-.42.09-.69.09-.25,0-.43-.05-.53-.15-.1-.1-.17-.23-.21-.37-.17.15-.35.28-.55.38-.2.1-.47.15-.8.15s-.58-.06-.77-.19c-.2-.13-.33-.28-.41-.47-.08-.19-.12-.39-.12-.59,0-.31.07-.56.2-.76.14-.2.32-.36.55-.49.23-.13.53-.26.91-.4.21-.08.38-.14.49-.18.11-.04.19-.07.25-.1.05-.02.11-.05.17-.09,0-.24-.04-.43-.13-.57s-.27-.21-.56-.21c-.34,0-.65.08-.94.25-.29.17-.55.39-.79.65v-1.35c.19-.16.4-.28.62-.38.22-.1.46-.17.7-.22.24-.05.49-.07.74-.07.63,0,1.11.14,1.43.42s.48.66.48,1.15v1.92c0,.18.01.32.04.41.03.09.08.13.17.13.1,0,.23-.05.4-.14v.92ZM130.05,292.43v-1.18c-.37.17-.63.32-.8.46-.17.13-.25.32-.25.55,0,.17.04.29.13.38.08.09.18.13.29.13.11,0,.21-.03.32-.1.1-.07.21-.15.32-.24Z"
             id="path88" />
          <path
             d="M137,293.63h-1.55v-2.68c0-.27-.04-.51-.12-.71-.08-.2-.25-.31-.52-.31-.13,0-.24.03-.33.08-.1.05-.18.12-.26.21-.08.08-.14.17-.19.24-.05.08-.11.16-.16.25v2.92h-1.55v-4.97h1.55v.71c.24-.3.49-.5.73-.62.25-.12.52-.18.82-.18,1.05,0,1.57.71,1.57,2.14v2.92Z"
             id="path89" />
        </g>
        <g
           id="g93">
          <path
             d="M176.64,293.63h-1.8v-3.92l-1.62,2.27h-.14l-1.62-2.27v3.92h-1.75v-6.77h1.63l1.83,2.54,1.84-2.54h1.63v6.77Z"
             id="path90" />
          <path
             d="M182.15,293.63h-1.55v-.71c-.22.27-.45.47-.69.6-.24.13-.53.2-.86.2-.66,0-1.09-.22-1.28-.66-.19-.44-.29-.93-.29-1.48v-2.92h1.55v2.69c0,.27.04.51.12.71.08.2.25.3.51.3.23,0,.41-.07.54-.22.13-.15.27-.33.41-.56v-2.92h1.55v4.97Z"
             id="path91" />
          <path
             d="M186.24,293.35c-.16.09-.38.17-.66.25-.28.08-.55.12-.81.12-1.11,0-1.67-.62-1.67-1.86v-1.98h-.7v-.31l2.08-2.4h.18v1.49h1.48v1.22h-1.48v1.59c0,.19,0,.34.03.45.02.11.08.21.17.29.09.08.23.11.42.11.25,0,.57-.12.97-.35v1.37Z"
             id="path92" />
          <path
             d="M191.05,291.57h-3.08c.06.3.21.55.44.74.23.19.5.29.8.29.52,0,1.1-.17,1.73-.5v1.09c-.23.13-.5.25-.82.36-.32.11-.73.16-1.23.16-.54,0-1-.11-1.38-.34-.38-.23-.66-.54-.85-.93s-.28-.83-.28-1.33.09-.92.28-1.31.47-.69.85-.91.84-.33,1.38-.33c.35,0,.7.09,1.03.26.33.17.6.46.82.85.21.4.32.91.32,1.53v.35ZM189.6,290.7c0-.32-.07-.57-.21-.76-.14-.19-.34-.29-.6-.29s-.47.1-.62.29c-.16.19-.24.45-.24.76h1.67Z"
             id="path93" />
        </g>
        <g
           id="g99">
          <path
             d="M68.57,286.87l-2.69,6.86h-1.19l-2.63-6.86h1.87l1.36,3.91,1.4-3.91h1.87Z"
             id="path94" />
          <path
             d="M73.61,291.14c0,.5-.09.94-.28,1.32-.19.39-.47.69-.85.92-.38.22-.84.34-1.38.34s-1-.11-1.38-.34c-.38-.22-.66-.53-.85-.92-.19-.39-.28-.83-.28-1.32,0-.37.05-.71.16-1.02.1-.31.26-.58.48-.81.21-.24.48-.42.79-.54.31-.13.67-.19,1.08-.19s.78.06,1.09.19c.32.13.58.31.79.54.21.23.36.5.47.81.11.31.16.65.16,1.03ZM71.98,291.14c0-.39-.08-.7-.23-.92-.15-.22-.37-.33-.66-.33s-.5.11-.65.33c-.15.22-.23.53-.23.92s.08.7.23.93c.15.23.37.34.65.34s.5-.11.66-.34c.15-.23.23-.54.23-.93Z"
             id="path95" />
          <path
             d="M75.69,293.63h-1.55v-6.77h1.55v6.77Z"
             id="path96" />
          <path
             d="M81.01,293.63h-1.55v-.71c-.22.27-.45.47-.69.6s-.53.2-.86.2c-.66,0-1.09-.22-1.28-.66-.19-.44-.29-.93-.29-1.48v-2.92h1.55v2.69c0,.27.04.51.12.71.08.2.25.3.51.3.23,0,.41-.07.54-.22.13-.15.27-.33.41-.56v-2.92h1.55v4.97Z"
             id="path97" />
          <path
             d="M89.44,293.63h-1.55v-2.65c0-.35-.05-.61-.15-.79-.1-.17-.26-.26-.48-.26s-.39.07-.53.22c-.14.15-.27.33-.41.56v2.92h-1.55v-2.65c0-.33-.05-.59-.14-.78-.09-.18-.26-.27-.5-.27-.11,0-.22.03-.32.08-.1.05-.17.11-.23.18-.06.07-.13.16-.22.29s-.14.21-.16.24v2.92h-1.55v-4.97h1.55v.71c.23-.28.47-.48.71-.61s.52-.19.83-.19c.15,0,.29.02.43.05.13.03.27.08.4.16.13.08.25.18.35.31.11.13.19.28.25.45.25-.32.51-.56.78-.72.27-.16.58-.24.93-.24s.64.08.88.24c.24.16.41.39.52.69.11.3.17.67.17,1.1v3.03Z"
             id="path98" />
          <path
             d="M94.5,291.57h-3.08c.06.3.21.55.44.74.23.19.5.29.8.29.52,0,1.1-.17,1.73-.5v1.09c-.23.13-.5.25-.82.36-.32.11-.73.16-1.23.16-.54,0-1-.11-1.38-.34-.38-.23-.66-.54-.85-.93s-.28-.83-.28-1.33.09-.92.28-1.31.47-.69.85-.91.84-.33,1.38-.33c.35,0,.7.09,1.03.26.33.17.6.46.82.85.21.4.32.91.32,1.53v.35ZM93.04,290.7c0-.32-.07-.57-.21-.76-.14-.19-.34-.29-.6-.29s-.47.1-.62.29c-.16.19-.24.45-.24.76h1.67Z"
             id="path99" />
        </g>
        <g
           id="g105">
          <path
             d="M68.25,317.62h-1.8v-3.92l-1.62,2.27h-.14l-1.62-2.27v3.92h-1.74v-6.77h1.63l1.83,2.54,1.84-2.54h1.63v6.77Z"
             id="path100" />
          <path
             d="M73.69,317.37c-.23.1-.44.18-.63.24-.19.06-.42.09-.69.09-.25,0-.43-.05-.53-.15s-.17-.23-.21-.37c-.17.15-.35.28-.55.38-.2.1-.47.15-.8.15s-.58-.06-.77-.19c-.2-.13-.33-.28-.41-.47-.08-.19-.12-.39-.12-.59,0-.31.07-.56.2-.76.14-.2.32-.36.55-.49.23-.13.53-.26.91-.4.21-.08.38-.14.49-.18.11-.04.19-.07.25-.1.05-.02.11-.05.17-.09,0-.24-.04-.43-.13-.57s-.27-.21-.56-.21c-.34,0-.65.08-.94.25-.29.17-.55.39-.79.65v-1.35c.19-.16.4-.28.62-.38.22-.1.46-.17.7-.22s.49-.07.74-.07c.63,0,1.11.14,1.43.42s.48.66.48,1.15v1.92c0,.18.02.32.04.41.03.09.09.13.17.13.1,0,.23-.05.4-.14v.92ZM71.53,316.42v-1.18c-.37.17-.63.32-.8.46-.17.13-.25.32-.25.55,0,.17.04.29.13.38s.18.13.29.13c.11,0,.21-.03.32-.1.1-.07.21-.15.32-.24Z"
             id="path101" />
          <path
             d="M77.24,316.17c0,.46-.15.83-.44,1.11-.29.28-.73.43-1.31.43-.32,0-.61-.03-.86-.1-.25-.07-.53-.16-.82-.29v-1.25c.26.17.49.3.68.39s.4.13.63.13c.39,0,.58-.12.58-.36,0-.08-.03-.15-.08-.22-.06-.06-.15-.14-.29-.21-.14-.08-.32-.17-.56-.29-.29-.14-.53-.33-.73-.58-.2-.24-.3-.54-.3-.88,0-.25.07-.48.2-.71.13-.23.33-.41.6-.56.27-.15.59-.22.98-.22.09,0,.21,0,.35.02.14.01.32.05.54.11.22.06.42.15.62.26v1.22c-.09-.06-.17-.11-.23-.16-.06-.04-.14-.09-.25-.14-.1-.05-.22-.1-.36-.14-.14-.04-.28-.06-.43-.06-.18,0-.3.04-.37.12s-.1.16-.1.23c0,.08.03.16.1.23.07.07.22.16.46.26.34.15.62.3.82.46.21.16.35.33.44.52.09.19.13.41.13.67Z"
             id="path102" />
          <path
             d="M81.18,317.33c-.16.09-.38.17-.66.25-.28.08-.55.12-.81.12-1.11,0-1.67-.62-1.67-1.86v-1.98h-.7v-.31l2.08-2.4h.18v1.49h1.48v1.22h-1.48v1.59c0,.19,0,.34.03.45.02.11.08.21.17.29.09.08.23.11.42.11.25,0,.57-.12.97-.35v1.37Z"
             id="path103" />
          <path
             d="M85.99,315.56h-3.08c.06.3.21.55.44.74.23.19.5.29.8.29.52,0,1.1-.17,1.73-.5v1.09c-.23.13-.5.25-.82.36-.32.11-.73.16-1.23.16-.54,0-1-.11-1.38-.34-.38-.23-.66-.54-.85-.93s-.28-.83-.28-1.33.09-.92.28-1.31.47-.69.85-.91.84-.33,1.38-.33c.35,0,.7.09,1.03.26.33.17.6.46.82.85.21.4.32.91.32,1.53v.35ZM84.54,314.69c0-.32-.07-.57-.21-.76-.14-.19-.34-.29-.6-.29s-.47.1-.62.29c-.16.19-.24.45-.24.76h1.67Z"
             id="path104" />
          <path
             d="M90.24,312.92l-.57,1.76c-.24-.25-.47-.38-.71-.38-.22,0-.41.08-.56.25-.16.17-.31.48-.46.93v2.14h-1.55v-4.97h1.55v1.2c.1-.3.27-.58.52-.87.25-.28.54-.42.87-.42.17,0,.33.03.46.09s.29.15.47.27Z"
             id="path105" />
        </g>
        <g
           id="g107">
          <path
             d="M25.4,296.47h-1.8v-6.77h1.8v6.77Z"
             id="path106" />
          <path
             d="M30.97,296.47h-1.55v-2.68c0-.27-.04-.51-.12-.71-.08-.2-.25-.31-.52-.31-.13,0-.24.03-.33.08-.1.05-.18.12-.26.21-.08.08-.14.17-.19.24-.05.08-.1.16-.16.25v2.92h-1.55v-4.97h1.55v.71c.24-.3.49-.5.73-.62.25-.12.52-.18.82-.18,1.05,0,1.57.71,1.57,2.14v2.92Z"
             id="path107" />
        </g>
        <path
           d="M117.06,155.07h-3.17v-4.74h1.26v3.6h1.91v1.13Z"
           id="path108" />
        <path
           d="M145.59,155.07h-1.35l-.33-.84c-.12-.31-.23-.53-.32-.67-.1-.14-.19-.23-.28-.27-.09-.04-.21-.06-.35-.06h-.14v1.85h-1.26v-4.74h2.14c.34,0,.63.08.85.24s.38.35.48.58c.1.23.15.44.15.65,0,.24-.04.44-.12.61-.08.17-.17.29-.26.36-.09.08-.19.15-.3.22.13.09.25.19.33.32.09.12.21.37.36.74l.42,1.03ZM143.89,151.83c0-.22-.06-.37-.19-.46-.13-.09-.33-.13-.62-.13h-.26v1.14h.27c.31,0,.52-.04.63-.11.11-.08.17-.22.17-.44Z"
           id="path109" />
        <path
           d="M117.06,121.95h-3.17v-4.74h1.26v3.6h1.91v1.13Z"
           id="path110" />
        <path
           d="M145.59,121.95h-1.35l-.33-.84c-.12-.31-.23-.53-.32-.67-.1-.14-.19-.23-.28-.27-.09-.04-.21-.06-.35-.06h-.14v1.85h-1.26v-4.74h2.14c.34,0,.63.08.85.24s.38.35.48.58c.1.23.15.44.15.65,0,.24-.04.44-.12.61-.08.17-.17.29-.26.36-.09.08-.19.15-.3.22.13.09.25.19.33.32.09.12.21.37.36.74l.42,1.03ZM143.89,118.71c0-.22-.06-.37-.19-.46-.13-.09-.33-.13-.62-.13h-.26v1.14h.27c.31,0,.52-.04.63-.11.11-.08.17-.22.17-.44Z"
           id="path111" />
        <path
           d="M117.06,88.78h-3.17v-4.74h1.26v3.6h1.91v1.13Z"
           id="path112" />
        <path
           d="M145.59,88.78h-1.35l-.33-.84c-.12-.31-.23-.53-.32-.67-.1-.14-.19-.23-.28-.27-.09-.04-.21-.06-.35-.06h-.14v1.85h-1.26v-4.74h2.14c.34,0,.63.08.85.24s.38.35.48.58c.1.23.15.44.15.65,0,.24-.04.44-.12.61-.08.17-.17.29-.26.36-.09.08-.19.15-.3.22.13.09.25.19.33.32.09.12.21.37.36.74l.42,1.03ZM143.89,85.54c0-.22-.06-.37-.19-.46-.13-.09-.33-.13-.62-.13h-.26v1.14h.27c.31,0,.52-.04.63-.11.11-.08.17-.22.17-.44Z"
           id="path113" />
        <path
           d="M117.06,55.47h-3.17v-4.74h1.26v3.6h1.91v1.13Z"
           id="path114" />
        <path
           d="M145.59,55.47h-1.35l-.33-.84c-.12-.31-.23-.53-.32-.67-.1-.14-.19-.23-.28-.27-.09-.04-.21-.06-.35-.06h-.14v1.85h-1.26v-4.74h2.14c.34,0,.63.08.85.24s.38.35.48.58c.1.23.15.44.15.65,0,.24-.04.44-.12.61-.08.17-.17.29-.26.36-.09.08-.19.15-.3.22.13.09.25.19.33.32.09.12.21.37.36.74l.42,1.03ZM143.89,52.23c0-.22-.06-.37-.19-.46-.13-.09-.33-.13-.62-.13h-.26v1.14h.27c.31,0,.52-.04.63-.11.11-.08.17-.22.17-.44Z"
           id="path115" />
        <path
           d="M117.06,188.28h-3.17v-4.74h1.26v3.6h1.91v1.13Z"
           id="path116" />
        <path
           d="M145.59,188.28h-1.35l-.33-.84c-.12-.31-.23-.53-.32-.67-.1-.14-.19-.23-.28-.27-.09-.04-.21-.06-.35-.06h-.14v1.85h-1.26v-4.74h2.14c.34,0,.63.08.85.24.22.16.38.35.48.58.1.23.15.44.15.65,0,.24-.04.44-.12.61s-.17.29-.26.36c-.09.08-.19.15-.3.22.13.09.25.19.33.32.09.12.21.37.36.74l.42,1.03ZM143.89,185.04c0-.22-.06-.37-.19-.46-.13-.09-.33-.13-.62-.13h-.26v1.14h.27c.31,0,.52-.04.63-.11.11-.08.17-.22.17-.44Z"
           id="path117" />
        <path
           d="M117.06,221.44h-3.17v-4.74h1.26v3.6h1.91v1.13Z"
           id="path118" />
        <path
           d="M145.59,221.44h-1.35l-.33-.84c-.12-.31-.23-.53-.32-.67-.1-.14-.19-.23-.28-.27-.09-.04-.21-.06-.35-.06h-.14v1.85h-1.26v-4.74h2.14c.34,0,.63.08.85.24.22.16.38.35.48.58.1.23.15.44.15.65,0,.24-.04.44-.12.61s-.17.29-.26.36c-.09.08-.19.15-.3.22.13.09.25.19.33.32.09.12.21.37.36.74l.42,1.03ZM143.89,218.2c0-.22-.06-.37-.19-.46-.13-.09-.33-.13-.62-.13h-.26v1.14h.27c.31,0,.52-.04.63-.11.11-.08.17-.22.17-.44Z"
           id="path119" />
        <path
           d="M117.06,254.75h-3.17v-4.74h1.26v3.6h1.91v1.13Z"
           id="path120" />
        <path
           d="M145.59,254.75h-1.35l-.33-.84c-.12-.31-.23-.53-.32-.67-.1-.14-.19-.23-.28-.27-.09-.04-.21-.06-.35-.06h-.14v1.85h-1.26v-4.74h2.14c.34,0,.63.08.85.24.22.16.38.35.48.58.1.23.15.44.15.65,0,.24-.04.44-.12.61-.08.17-.17.29-.26.36-.09.08-.19.15-.3.21.13.09.25.19.33.32s.21.37.36.74l.42,1.03ZM143.89,251.51c0-.22-.06-.37-.19-.46-.13-.09-.33-.13-.62-.13h-.26v1.14h.27c.31,0,.52-.04.63-.11s.17-.22.17-.44Z"
           id="path121" />
        <path
           d="M117.06,287.98h-3.17v-4.74h1.26v3.6h1.91v1.13Z"
           id="path122" />
        <path
           d="M145.59,287.98h-1.35l-.33-.84c-.12-.31-.23-.53-.32-.67-.1-.14-.19-.23-.28-.27-.09-.04-.21-.06-.35-.06h-.14v1.85h-1.26v-4.74h2.14c.34,0,.63.08.85.24.22.16.38.35.48.58.1.23.15.44.15.65,0,.24-.04.44-.12.61-.08.17-.17.29-.26.36-.09.08-.19.15-.3.21.13.09.25.19.33.32s.21.37.36.74l.42,1.03ZM143.89,284.74c0-.22-.06-.37-.19-.46-.13-.09-.33-.13-.62-.13h-.26v1.14h.27c.31,0,.52-.04.63-.11s.17-.22.17-.44Z"
           id="path123" />
      </g>
    </g>
  </g>
  <g
     inkscape:groupmode="layer"
     id="layer1"
     inkscape:label="components"
     style="display:none">
    <circle
       id="AudioRightOut"
       cx="164.41"
       cy="314.64999"
       r="11.34"
       style="fill:#0000ff"
       data-name="AudioRightOut" />
    <circle
       id="AudioLeftOut"
       cx="122.46"
       cy="314.64999"
       r="11.34"
       style="fill:#0000ff"
       data-name="AudioLeftOut" />
    <circle
       id="MasterVol"
       cx="36.849998"
       cy="314.64999"
       r="8.5"
       style="fill:#ff0000;fill-opacity:1"
       data-name="MasterVol" />
    <circle
       id="Ch8Pan"
       cx="129.39999"
       cy="270.70999"
       r="8.5"
       style="fill:#ff0000;fill-opacity:1"
       data-name="Ch8Pan" />
    <circle
       id="Ch8Vol"
       cx="78.379997"
       cy="270.70999"
       r="8.5"
       style="fill:#ff0000;fill-opacity:1"
       data-name="Ch8Vol" />
    <circle
       id="Ch8In"
       cx="27.209999"
       cy="270.70999"
       r="11.34"
       style="fill:#00ff00"
       data-name="Ch8In" />
    <circle
       id="Ch7Pan"
       cx="129.39999"
       cy="237.53999"
       r="8.5"
       style="fill:#ff0000;fill-opacity:1"
       data-name="Ch7Pan" />
    <circle
       id="Ch7Vol"
       cx="78.379997"
       cy="237.53999"
       r="8.5"
       style="fill:#ff0000;fill-opacity:1"
       data-name="Ch7Vol" />
    <circle
       id="Ch7In"
       cx="27.209999"
       cy="237.53999"
       r="11.34"
       style="fill:#00ff00"
       data-name="Ch7In" />
    <circle
       id="Ch6Pan"
       cx="129.39999"
       cy="204.3"
       r="8.5"
       style="fill:#ff0000;fill-opacity:1"
       data-name="Ch6Pan" />
    <circle
       id="Ch6Vol"
       cx="78.379997"
       cy="204.09"
       r="8.5"
       style="fill:#ff0000;fill-opacity:1"
       data-name="Ch6Vol" />
    <circle
       id="Ch6In"
       cx="27.209999"
       cy="204.09"
       r="11.34"
       style="fill:#00ff00"
       data-name="Ch6In" />
    <circle
       id="Ch5Pan"
       cx="129.39999"
       cy="171.21001"
       r="8.5"
       style="fill:#ff0000;fill-opacity:1"
       data-name="Ch5Pan" />
    <circle
       id="Ch5Vol"
       cx="78.379997"
       cy="171.21001"
       r="8.5"
       style="fill:#ff0000;fill-opacity:1"
       data-name="Ch5Vol" />
    <circle
       id="Ch5In"
       cx="27.209999"
       cy="170.92999"
       r="11.34"
       style="fill:#00ff00"
       data-name="Ch5In" />
    <circle
       id="Ch4Pan"
       cx="129.39999"
       cy="137.75999"
       r="8.5"
       style="fill:#ff0000;fill-opacity:1"
       data-name="Ch4Pan" />
    <circle
       id="Ch4Vol"
       cx="78.379997"
       cy="137.75999"
       r="8.5"
       style="fill:#ff0000;fill-opacity:1"
       data-name="Ch4Vol" />
    <circle
       id="Ch4In"
       cx="27.209999"
       cy="137.75999"
       r="11.34"
       style="fill:#00ff00"
       data-name="Ch4In" />
    <circle
       id="Ch3Pan"
       cx="129.39999"
       cy="104.6"
       r="8.5"
       style="fill:#ff0000;fill-opacity:1"
       data-name="Ch3Pan" />
    <circle
       id="Ch3Vol"
       cx="78.379997"
       cy="104.6"
       r="8.5"
       style="fill:#ff0000;fill-opacity:1"
       data-name="Ch3Vol" />
    <circle
       id="Ch3In"
       cx="27.209999"
       cy="104.6"
       r="11.34"
       style="fill:#00ff00"
       data-name="Ch3In" />
    <circle
       id="Ch2Pan"
       cx="129.39999"
       cy="71.43"
       r="8.5"
       style="fill:#ff0000;fill-opacity:1"
       data-name="Ch2Pan" />
    <circle
       id="Ch2Vol"
       cx="78.379997"
       cy="71.43"
       r="8.5"
       style="fill:#ff0000;fill-opacity:1"
       data-name="Ch2Vol" />
    <circle
       id="Ch2In"
       cx="27.209999"
       cy="71.43"
       r="11.34"
       style="fill:#00ff00"
       data-name="Ch2In" />
    <circle
       id="Ch1Pan"
       cx="129.39999"
       cy="38.27"
       r="8.5"
       style="fill:#ff0000;fill-opacity:1"
       data-name="Ch1Pan" />
    <circle
       id="Ch1Vol"
       cx="78.379997"
       cy="38.27"
       r="8.5"
       style="fill:#ff0000;fill-opacity:1"
       data-name="Ch1Vol" />
    <circle
       id="Ch1In"
       cx="27.209999"
       cy="38.27"
       r="11.34"
       style="fill:#00ff00"
       data-name="Ch1In" />
    <circle
       id="Ch1Mute"
       cx="180.14"
       cy="38.264999"
       r="4.2519684"
       inkscape:label="Ch1Mute"
       style="fill:#ff0000" />
    <circle
       id="Ch2Mute"
       cx="180.14"
       cy="71.434998"
       r="4.2519684"
       inkscape:label="Ch2Mute"
       style="fill:#ff0000" />
    <circle
       id="Ch3Mute"
       cx="180.14"
       cy="104.59499"
       r="4.2519684"
       inkscape:label="Ch3Mute"
       style="fill:#ff0000" />
    <circle
       id="Ch4Mute"
       cx="180.14"
       cy="137.765"
       r="4.2519684"
       inkscape:label="Ch4Mute"
       style="fill:#ff0000" />
    <circle
       id="Ch5Mute"
       cx="180.14"
       cy="171.21501"
       r="4.2519684"
       inkscape:label="Ch5Mute"
       style="fill:#ff0000" />
    <circle
       id="Ch6Mute"
       cx="180.14"
       cy="204.095"
       r="4.2519684"
       inkscape:label="Ch6Mute"
       style="fill:#ff0000" />
    <circle
       id="Ch7Mute"
       cx="180.14"
       cy="237.545"
       r="4.2519684"
       inkscape:label="Ch7Mute"
       style="fill:#ff0000" />
    <circle
       id="Ch8Mute"
       cx="180.14"
       cy="270.70502"
       r="4.2519684"
       inkscape:label="Ch8Mute"
       style="fill:#ff0000" />
  </g>
</svg>
