<?xml version="1.0" encoding="UTF-8" standalone="no"?>
<svg
   width="30.48mm"
   height="128.5mm"
   viewBox="0 0 30.48 128.5"
   version="1.1"
   id="svg90"
   sodipodi:docname="70sComp_info.svg"
   inkscape:version="1.4 (e7c3feb1, 2024-10-09)"
   xmlns:inkscape="http://www.inkscape.org/namespaces/inkscape"
   xmlns:sodipodi="http://sodipodi.sourceforge.net/DTD/sodipodi-0.dtd"
   xmlns="http://www.w3.org/2000/svg"
   xmlns:svg="http://www.w3.org/2000/svg">
  <defs
     id="defs90" />
  <sodipodi:namedview
     id="namedview90"
     pagecolor="#ffffff"
     bordercolor="#000000"
     borderopacity="0.25"
     inkscape:showpageshadow="2"
     inkscape:pageopacity="0.0"
     inkscape:pagecheckerboard="0"
     inkscape:deskcolor="#d1d1d1"
     inkscape:document-units="mm"
     inkscape:zoom="1.7816103"
     inkscape:cx="57.812867"
     inkscape:cy="172.31602"
     inkscape:window-width="1920"
     inkscape:window-height="1027"
     inkscape:window-x="0"
     inkscape:window-y="25"
     inkscape:window-maximized="0"
     inkscape:current-layer="art" />
  <g
     inkscape:groupmode="layer"
     id="layer10"
     inkscape:label="faceplate">
    <g
       id="faceplate"
       transform="scale(0.35328559,0.35286402)"
       style="stroke-width:2.83226">
      <g
         id="panel"
         style="stroke-width:2.83226">
        <g
           id="g1"
           style="stroke-width:2.83226">
          <rect
             x="0.12"
             y="0.13"
             width="86.150002"
             height="364"
             style="fill:#ededee;stroke-width:2.83226"
             id="rect1" />
          <path
             d="M 86.15,0.25 V 364 H 0.25 V 0.25 h 85.9 M 86.4,0 H 0 v 364.25 h 86.4 z"
             style="fill:#9c9c9e;stroke-width:2.83226"
             id="path1" />
        </g>
      </g>
      <g
         id="art"
         style="stroke-width:2.83226">
        <g
           id="g3"
           style="stroke-width:0.99129153;stroke-dasharray:none">
          <path
             d="m 17.69,297.16 h 51.02 c 7.82,0 14.17,6.35 14.17,14.17 v 24.09 c 0,3.13 -2.54,5.67 -5.67,5.67 H 9.18 c -3.13,0 -5.67,-2.54 -5.67,-5.67 v -24.09 c 0,-7.82 6.35,-14.17 14.17,-14.17 z"
             id="path2"
             style="stroke-width:0.99129153;stroke-dasharray:none" />
          <path
             d="m 17.69,258.19 h 51.02 c 7.82,0 14.17,6.35 14.17,14.17 v 63.07 c 0,3.13 -2.54,5.67 -5.67,5.67 H 9.18 c -3.13,0 -5.67,-2.54 -5.67,-5.67 v -63.07 c 0,-7.82 6.35,-14.17 14.17,-14.17 z"
             style="fill:none;stroke:#000000;stroke-width:0.99129153;stroke-miterlimit:10;stroke-dasharray:none"
             id="path3" />
        </g>
        <g
           id="g13"
           style="stroke-width:2.83226">
          <path
             d="m 52.2,35.74 1.13,-1.95 c -2.75,-1.43 -5.84,-2.3 -9.12,-2.44 v 2.26 c 2.87,0.14 5.57,0.89 7.99,2.14 z"
             id="path4"
             style="stroke-width:2.83226" />
          <path
             d="m 59.78,42.6 1.95,-1.13 c -1.72,-2.68 -4,-4.96 -6.68,-6.68 l -1.13,1.95 c 2.34,1.52 4.33,3.51 5.85,5.85 z"
             id="path5"
             style="stroke-width:2.83226" />
          <path
             d="m 32.47,36.74 -1.13,-1.95 c -2.68,1.72 -4.96,4 -6.68,6.68 l 1.95,1.13 c 1.52,-2.34 3.51,-4.33 5.85,-5.85 z"
             id="path6"
             style="stroke-width:2.83226" />
          <path
             d="m 62.92,52.32 h 2.26 C 65.03,49.04 64.17,45.95 62.74,43.2 l -1.95,1.13 c 1.24,2.42 1.99,5.13 2.14,8 z"
             id="path7"
             style="stroke-width:2.83226" />
          <path
             d="m 42.2,33.61 v -2.26 c -3.28,0.15 -6.37,1.01 -9.12,2.44 l 1.13,1.95 c 2.42,-1.24 5.13,-1.99 8,-2.14 z"
             id="path8"
             style="stroke-width:2.83226" />
          <path
             d="m 26.62,64.05 -1.95,1.13 c 1.72,2.68 4,4.96 6.68,6.68 l 1.13,-1.95 C 30.14,68.39 28.15,66.4 26.63,64.06 Z"
             id="path9"
             style="stroke-width:2.83226" />
          <path
             d="m 53.93,69.9 1.13,1.95 c 2.68,-1.72 4.96,-4 6.68,-6.68 l -1.95,-1.13 c -1.52,2.34 -3.51,4.33 -5.85,5.85 z"
             id="path10"
             style="stroke-width:2.83226" />
          <path
             d="m 62.92,54.32 c -0.14,2.87 -0.89,5.57 -2.14,8 l 1.95,1.13 c 1.43,-2.75 2.3,-5.84 2.44,-9.12 h -2.26 z"
             id="path11"
             style="stroke-width:2.83226" />
          <path
             d="m 23.48,54.32 h -2.26 c 0.15,3.28 1.01,6.37 2.44,9.12 l 1.95,-1.13 c -1.24,-2.42 -1.99,-5.13 -2.14,-8 z"
             id="path12"
             style="stroke-width:2.83226" />
          <path
             d="M 25.62,44.33 23.67,43.2 c -1.43,2.75 -2.3,5.84 -2.44,9.12 h 2.26 c 0.14,-2.87 0.89,-5.57 2.14,-8 z"
             id="path13"
             style="stroke-width:2.83226" />
        </g>
        <g
           id="g23"
           style="stroke-width:2.83226">
          <path
             d="m 52.2,141.37 1.13,-1.95 c -2.75,-1.43 -5.84,-2.3 -9.12,-2.44 v 2.26 c 2.87,0.14 5.57,0.89 7.99,2.14 z"
             id="path14"
             style="stroke-width:2.83226" />
          <path
             d="m 59.78,148.22 1.95,-1.13 c -1.72,-2.68 -4,-4.96 -6.68,-6.68 l -1.13,1.95 c 2.34,1.52 4.33,3.51 5.85,5.85 z"
             id="path15"
             style="stroke-width:2.83226" />
          <path
             d="m 32.47,142.37 -1.13,-1.95 c -2.68,1.72 -4.96,4 -6.68,6.68 l 1.95,1.13 c 1.52,-2.34 3.51,-4.33 5.85,-5.85 z"
             id="path16"
             style="stroke-width:2.83226" />
          <path
             d="m 62.92,157.95 h 2.26 c -0.15,-3.28 -1.01,-6.37 -2.44,-9.12 l -1.95,1.13 c 1.24,2.42 1.99,5.13 2.14,8 z"
             id="path17"
             style="stroke-width:2.83226" />
          <path
             d="m 42.2,139.23 v -2.26 c -3.28,0.15 -6.37,1.01 -9.12,2.44 l 1.13,1.95 c 2.42,-1.24 5.13,-1.99 8,-2.14 z"
             id="path18"
             style="stroke-width:2.83226" />
          <path
             d="m 26.62,169.67 -1.95,1.13 c 1.72,2.68 4,4.96 6.68,6.68 l 1.13,-1.95 c -2.34,-1.52 -4.33,-3.51 -5.85,-5.85 z"
             id="path19"
             style="stroke-width:2.83226" />
          <path
             d="m 53.93,175.53 1.13,1.95 c 2.68,-1.72 4.96,-4 6.68,-6.68 l -1.95,-1.13 c -1.52,2.34 -3.51,4.33 -5.85,5.85 z"
             id="path20"
             style="stroke-width:2.83226" />
          <path
             d="m 62.92,159.95 c -0.14,2.87 -0.89,5.57 -2.14,8 l 1.95,1.13 c 1.43,-2.75 2.3,-5.84 2.44,-9.12 h -2.26 z"
             id="path21"
             style="stroke-width:2.83226" />
          <path
             d="m 23.48,159.95 h -2.26 c 0.15,3.28 1.01,6.37 2.44,9.12 l 1.95,-1.13 c -1.24,-2.42 -1.99,-5.13 -2.14,-8 z"
             id="path22"
             style="stroke-width:2.83226" />
          <path
             d="m 25.62,149.95 -1.95,-1.13 c -1.43,2.75 -2.3,5.84 -2.44,9.12 h 2.26 c 0.14,-2.87 0.89,-5.57 2.14,-8 z"
             id="path23"
             style="stroke-width:2.83226" />
        </g>
        <g
           id="g33"
           style="stroke-width:2.83226">
          <path
             d="m 52.2,203.63 1.13,-1.95 c -2.75,-1.43 -5.84,-2.3 -9.12,-2.44 v 2.26 c 2.87,0.14 5.57,0.89 7.99,2.14 z"
             id="path24"
             style="stroke-width:2.83226" />
          <path
             d="m 59.78,210.48 1.95,-1.13 c -1.72,-2.68 -4,-4.96 -6.68,-6.68 l -1.13,1.95 c 2.34,1.52 4.33,3.51 5.85,5.85 z"
             id="path25"
             style="stroke-width:2.83226" />
          <path
             d="m 32.47,204.63 -1.13,-1.95 c -2.68,1.72 -4.96,4 -6.68,6.68 l 1.95,1.13 c 1.52,-2.34 3.51,-4.33 5.85,-5.85 z"
             id="path26"
             style="stroke-width:2.83226" />
          <path
             d="m 62.92,220.21 h 2.26 c -0.15,-3.28 -1.01,-6.37 -2.44,-9.12 l -1.95,1.13 c 1.24,2.42 1.99,5.13 2.14,8 z"
             id="path27"
             style="stroke-width:2.83226" />
          <path
             d="m 42.2,201.5 v -2.26 c -3.28,0.15 -6.37,1.01 -9.12,2.44 l 1.13,1.95 c 2.42,-1.24 5.13,-1.99 8,-2.14 z"
             id="path28"
             style="stroke-width:2.83226" />
          <path
             d="m 26.62,231.94 -1.95,1.13 c 1.72,2.68 4,4.96 6.68,6.68 l 1.13,-1.95 c -2.34,-1.52 -4.33,-3.51 -5.85,-5.85 z"
             id="path29"
             style="stroke-width:2.83226" />
          <path
             d="m 53.93,237.79 1.13,1.95 c 2.68,-1.72 4.96,-4 6.68,-6.68 l -1.95,-1.13 c -1.52,2.34 -3.51,4.33 -5.85,5.85 z"
             id="path30"
             style="stroke-width:2.83226" />
          <path
             d="m 62.92,222.21 c -0.14,2.87 -0.89,5.57 -2.14,8 l 1.95,1.13 c 1.43,-2.75 2.3,-5.84 2.44,-9.12 h -2.26 z"
             id="path31"
             style="stroke-width:2.83226" />
          <path
             d="m 23.48,222.21 h -2.26 c 0.15,3.28 1.01,6.37 2.44,9.12 l 1.95,-1.13 c -1.24,-2.42 -1.99,-5.13 -2.14,-8 z"
             id="path32"
             style="stroke-width:2.83226" />
          <path
             d="m 25.62,212.22 -1.95,-1.13 c -1.43,2.75 -2.3,5.84 -2.44,9.12 h 2.26 c 0.14,-2.87 0.89,-5.57 2.14,-8 z"
             id="path33"
             style="stroke-width:2.83226" />
        </g>
        <path
           d="m 17.954622,129.5358 q -0.335455,0.17574 -0.686514,0.28118 -0.351058,0.10545 -0.709918,0.1484 -0.354959,0.0468 -0.737222,0.0468 -0.706018,0 -1.267711,-0.19527 -0.557793,-0.19526 -0.971262,-0.57408 -0.409568,-0.38272 -0.616302,-0.89041 -0.202834,-0.5116 -0.202834,-1.12082 0,-0.69905 0.24184,-1.22236 0.24184,-0.52721 0.674812,-0.87479 0.436874,-0.34757 0.990765,-0.5116 0.557793,-0.16793 1.174096,-0.16793 0.920553,0 2.086847,0.41006 v 1.43715 q -0.401767,-0.24993 -0.795732,-0.41395 -0.390066,-0.16793 -0.920554,-0.16793 -0.471978,0 -0.881546,0.18745 -0.409569,0.18745 -0.659211,0.53503 -0.249641,0.34757 -0.249641,0.8123 0,0.41006 0.218437,0.75372 0.218436,0.33977 0.6046,0.54285 0.390065,0.19917 0.877646,0.19917 0.393966,0 0.745024,-0.0938 0.351058,-0.0977 0.588998,-0.2148 0.241841,-0.11716 0.495382,-0.27727 z m 4.651138,-1.58555 q 0,0.5936 -0.257444,1.05834 -0.257443,0.46473 -0.772328,0.7342 -0.510985,0.26946 -1.248208,0.26946 -0.737223,0 -1.252108,-0.26946 -0.510985,-0.26947 -0.768428,-0.7342 -0.253542,-0.46474 -0.253542,-1.05834 0,-0.44911 0.140423,-0.81621 0.144324,-0.3671 0.432973,-0.64829 0.292548,-0.28509 0.717719,-0.43739 0.42517,-0.15231 0.982963,-0.15231 0.561694,0 0.990765,0.15622 0.432972,0.15231 0.713819,0.42958 0.284747,0.27728 0.429071,0.64828 0.144325,0.37101 0.144325,0.82012 z m -1.478346,0 q 0,-0.47254 -0.206735,-0.7381 -0.202834,-0.26947 -0.592899,-0.26947 -0.386164,0 -0.592899,0.26947 -0.202833,0.26556 -0.202833,0.7381 0,0.46864 0.206734,0.742 0.206734,0.27337 0.588998,0.27337 0.390065,0 0.592899,-0.26946 0.206735,-0.27337 0.206735,-0.74591 z m 8.684406,1.99171 h -1.404233 v -2.12059 q 0,-0.42177 -0.140424,-0.62875 -0.136523,-0.21089 -0.436872,-0.21089 -0.29255,0 -0.47978,0.17965 -0.187231,0.17573 -0.374462,0.4452 v 2.33538 h -1.404235 v -2.12059 q 0,-0.40225 -0.128721,-0.62094 -0.128721,-0.2187 -0.456375,-0.2187 -0.156027,0 -0.288649,0.0625 -0.128721,0.0624 -0.210635,0.14058 -0.08191,0.0781 -0.198933,0.23042 -0.117019,0.15231 -0.148225,0.19136 v 2.33538 h -1.404233 v -3.97562 h 1.404233 v 0.57018 q 0.315953,-0.33586 0.643608,-0.48816 0.327654,-0.15231 0.756725,-0.15231 0.202834,0 0.386164,0.039 0.183331,0.0351 0.35886,0.12497 0.17943,0.0898 0.323755,0.24603 0.144324,0.15621 0.230137,0.36319 0.339357,-0.38271 0.702117,-0.57798 0.366661,-0.19527 0.842541,-0.19527 0.475879,0 0.795732,0.19137 0.323754,0.19135 0.475879,0.55455 0.156026,0.35928 0.156026,0.87479 z m 4.596527,-2.01515 q 0,0.39834 -0.113118,0.76935 -0.113119,0.37101 -0.347158,0.67171 -0.230138,0.29681 -0.5968,0.47255 -0.36276,0.17183 -0.84644,0.17183 -0.390065,0 -0.616303,-0.0821 -0.222337,-0.082 -0.444673,-0.2187 v 2.03858 H 30.03962 v -5.78378 h 1.404235 v 0.3593 q 0.210634,-0.18355 0.464176,-0.30461 0.257444,-0.12498 0.694316,-0.12498 0.432972,0 0.850342,0.2148 0.417369,0.21479 0.686514,0.67171 0.269144,0.45301 0.269144,1.14425 z m -1.478346,0.0312 q 0,-0.35928 -0.113118,-0.58188 -0.113119,-0.22651 -0.292549,-0.32415 -0.17943,-0.10153 -0.370561,-0.10153 -0.249642,0 -0.409569,0.082 -0.159926,0.0782 -0.300349,0.19917 v 1.51917 q 0.07411,0.039 0.156025,0.0898 0.08581,0.0468 0.167728,0.0821 0.08582,0.0351 0.17943,0.0585 0.09751,0.0234 0.206735,0.0234 0.331555,0 0.553892,-0.28118 0.222336,-0.28119 0.222336,-0.76545 z"
           id="text1"
           style="font-weight:bold;font-size:7.9933px;line-height:6.53995px;font-family:'Gill Sans';-inkscape-font-specification:'Gill Sans Bold';text-align:center;letter-spacing:-0.599495px;word-spacing:-0.374685px;text-anchor:middle;stroke-width:1.41613"
           aria-label="Comp" />
        <path
           d="M 18.406543,100.32421 H 14.29916 v -5.412761 h 1.630471 v 4.116195 h 2.476912 z m 1.48381,-4.893355 q 0,0.246034 -0.175529,0.417868 -0.17553,0.171834 -0.41737,0.171834 -0.163827,0 -0.30035,-0.07811 -0.132623,-0.07811 -0.210635,-0.210886 -0.07801,-0.136687 -0.07801,-0.300709 0,-0.242129 0.171628,-0.417868 0.171629,-0.175739 0.41737,-0.175739 0.24184,0 0.41737,0.175739 0.175529,0.175739 0.175529,0.417868 z m 0.113118,4.893355 h -1.408134 v -3.975608 h 1.408134 z m 7.444002,0 h -1.404235 v -2.120586 q 0,-0.421773 -0.140423,-0.628755 -0.136522,-0.210886 -0.436872,-0.210886 -0.292549,0 -0.47978,0.179645 -0.187232,0.175738 -0.374463,0.445204 v 2.335378 h -1.404233 v -2.120586 q 0,-0.402247 -0.128721,-0.620944 -0.128721,-0.218697 -0.456377,-0.218697 -0.156026,0 -0.288647,0.06249 -0.128722,0.06249 -0.210636,0.140592 -0.08191,0.07811 -0.198933,0.230412 -0.117019,0.152307 -0.148224,0.19136 v 2.335373 h -1.404234 v -3.975603 h 1.404234 v 0.570176 q 0.315952,-0.335857 0.643606,-0.488164 0.327656,-0.152307 0.756726,-0.152307 0.202834,0 0.386165,0.03905 0.18333,0.03515 0.35886,0.12497 0.179429,0.08982 0.323753,0.246034 0.144325,0.156212 0.230139,0.363194 0.339356,-0.382721 0.702116,-0.577985 0.366661,-0.195266 0.842541,-0.195266 0.475879,0 0.795732,0.191361 0.323754,0.19136 0.47588,0.554554 0.156026,0.359288 0.156026,0.874789 z m 1.600829,-4.893355 q 0,0.246034 -0.175529,0.417868 -0.17553,0.171834 -0.41737,0.171834 -0.163827,0 -0.30035,-0.07811 -0.132623,-0.07811 -0.210635,-0.210886 -0.07801,-0.136687 -0.07801,-0.300709 0,-0.242129 0.171628,-0.417868 0.171629,-0.175739 0.41737,-0.175739 0.24184,0 0.41737,0.175739 0.175529,0.175739 0.175529,0.417868 z m 0.113118,4.893355 h -1.408134 v -3.975608 h 1.408134 z m 3.500445,-0.23041 q -0.218436,0.10544 -0.6046,0.20307 -0.382264,0.0976 -0.733322,0.0976 -1.517353,0 -1.517353,-1.484018 v -1.585555 h -0.635805 v -0.246035 l 1.884012,-1.921412 h 0.159927 v 1.191119 h 1.341824 v 0.976328 h -1.341824 v 1.273131 q 0,0.222603 0.0273,0.359288 0.0273,0.136686 0.152125,0.230414 0.128722,0.08982 0.386164,0.08982 0.335456,0 0.881547,-0.281181 z"
           id="text2"
           style="font-weight:bold;font-size:7.9933px;line-height:6.53995px;font-family:'Gill Sans';-inkscape-font-specification:'Gill Sans Bold';text-align:center;letter-spacing:-0.599495px;word-spacing:-0.374685px;text-anchor:middle;stroke-width:1.41613"
           aria-label="Limit" />
      </g>
      <g
         id="text"
         style="stroke-width:2.83226">
        <g
           id="g36"
           style="stroke-width:2.83226">
          <path
             d="m 35,18.05 c -0.37,0 -0.71,-0.17 -0.97,-0.47 -0.51,-0.6 -0.52,-1.54 -0.04,-2.16 l 6.97,-8.88 c 0.38,-0.48 1.05,-0.65 1.57,-0.39 0.5,0.25 0.79,0.82 0.79,1.45 v 4.77 l 4.64,-5.85 c 0.38,-0.48 1.01,-0.64 1.53,-0.38 0.5,0.25 0.83,0.81 0.83,1.44 v 8.82 c 0,0.86 -0.61,1.57 -1.36,1.57 -0.75,0 -1.36,-0.7 -1.36,-1.57 v -4.79 l -4.64,5.85 c -0.38,0.48 -1.01,0.64 -1.54,0.38 -0.5,-0.24 -0.83,-0.81 -0.83,-1.44 v -4.67 l -4.61,5.8 c -0.26,0.32 -0.62,0.51 -1,0.51 v 0 z"
             style="fill:#2cabe1;stroke-width:2.83226"
             id="path34" />
          <path
             d="m 35,18.05 c -0.75,0 -1.35,-0.7 -1.35,-1.57 v -4.93 l -2.26,2.84 c -0.5,0.63 -1.44,0.65 -1.97,0.04 -0.51,-0.6 -0.52,-1.53 -0.03,-2.15 L 34,6.52 c 0.26,-0.32 0.63,-0.5 1,-0.5 0.18,0 0.37,0.04 0.54,0.12 0.5,0.25 0.82,0.81 0.82,1.44 v 8.89 c 0,0.86 -0.61,1.57 -1.36,1.57 v 0 z"
             style="fill:#ea2228;stroke-width:2.83226"
             id="path35" />
          <path
             d="m 51.6,18.07 v 0 c -0.35,0 -0.68,-0.15 -0.94,-0.42 -0.76,-0.78 -0.14,-1.84 0.29,-2.3 l 1.95,-2.36 -1.26,-0.02 c -0.56,-0.01 -1.04,-0.4 -1.24,-1 -0.19,-0.56 -0.07,-1.21 0.29,-1.64 L 53.85,6.5 c 0.23,-0.28 0.55,-0.48 1.13,-0.47 0.33,0 0.67,0.17 0.92,0.4 0.71,0.66 0.29,1.7 -0.07,2.2 l -1.04,1.26 1.26,0.02 c 0.56,0.01 1.04,0.4 1.24,1 0.19,0.56 0.07,1.21 -0.29,1.64 l -4.1,4.97 c -0.35,0.35 -0.65,0.55 -1.3,0.54 v 0 z"
             style="fill:#00a650;stroke-width:2.83226"
             id="path36" />
        </g>
        <g
           id="g39"
           style="stroke-width:2.83226">
          <path
             d="m 16.15,294.29 h -1.44 v -5.41 h 1.44 z"
             id="path37"
             style="stroke-width:2.83226" />
          <path
             d="m 20.61,294.29 h -1.24 v -2.14 c 0,-0.22 -0.03,-0.41 -0.09,-0.57 -0.06,-0.16 -0.2,-0.24 -0.41,-0.24 -0.1,0 -0.19,0.02 -0.27,0.06 -0.08,0.04 -0.15,0.1 -0.21,0.17 -0.06,0.07 -0.11,0.13 -0.15,0.2 -0.04,0.06 -0.08,0.13 -0.13,0.2 v 2.34 h -1.24 v -3.98 h 1.24 v 0.57 c 0.19,-0.24 0.39,-0.4 0.59,-0.5 0.2,-0.1 0.41,-0.14 0.65,-0.14 0.84,0 1.26,0.57 1.26,1.71 v 2.34 z"
             id="path38"
             style="stroke-width:2.83226" />
          <path
             d="m 26.7,294.29 h -3.62 v -5.41 h 1.44 V 293 h 2.18 v 1.3 z"
             id="path39"
             style="stroke-width:2.83226" />
        </g>
        <g
           id="g42"
           style="stroke-width:2.83226">
          <path
             d="m 61.1,294.29 h -1.44 v -5.41 h 1.44 z"
             id="path40"
             style="stroke-width:2.83226" />
          <path
             d="m 65.56,294.29 h -1.24 v -2.14 c 0,-0.22 -0.03,-0.41 -0.09,-0.57 -0.06,-0.16 -0.2,-0.24 -0.41,-0.24 -0.1,0 -0.19,0.02 -0.27,0.06 -0.08,0.04 -0.15,0.1 -0.21,0.17 -0.06,0.07 -0.11,0.13 -0.15,0.2 -0.04,0.07 -0.08,0.13 -0.13,0.2 v 2.34 h -1.24 v -3.98 h 1.24 v 0.57 c 0.19,-0.24 0.39,-0.4 0.59,-0.5 0.2,-0.1 0.41,-0.14 0.65,-0.14 0.84,0 1.26,0.57 1.26,1.71 v 2.34 z"
             id="path41"
             style="stroke-width:2.83226" />
          <path
             d="M 72.64,294.29 H 71.1 l -0.38,-0.96 c -0.14,-0.35 -0.26,-0.61 -0.37,-0.77 -0.11,-0.16 -0.22,-0.27 -0.32,-0.31 -0.1,-0.05 -0.24,-0.07 -0.4,-0.07 h -0.16 v 2.11 h -1.44 v -5.41 h 2.44 c 0.39,0 0.72,0.09 0.97,0.27 0.25,0.18 0.43,0.4 0.54,0.66 0.11,0.26 0.17,0.51 0.17,0.74 0,0.27 -0.05,0.5 -0.14,0.69 -0.09,0.19 -0.19,0.33 -0.29,0.41 -0.1,0.09 -0.22,0.17 -0.35,0.25 0.15,0.1 0.28,0.22 0.38,0.36 0.1,0.14 0.24,0.42 0.41,0.85 z m -1.95,-3.71 c 0,-0.25 -0.07,-0.42 -0.22,-0.52 -0.14,-0.1 -0.38,-0.15 -0.71,-0.15 h -0.3 v 1.3 h 0.31 c 0.35,0 0.59,-0.04 0.72,-0.13 0.13,-0.09 0.19,-0.25 0.19,-0.5 z"
             id="path42"
             style="stroke-width:2.83226" />
        </g>
        <g
           id="g46"
           style="stroke-width:2.83226">
          <path
             d="m 16.62,333.13 c 0,0.51 -0.1,0.97 -0.31,1.39 -0.21,0.42 -0.51,0.76 -0.92,1.01 -0.41,0.25 -0.9,0.38 -1.48,0.38 -0.58,0 -1.09,-0.13 -1.5,-0.39 -0.41,-0.26 -0.71,-0.6 -0.91,-1.03 -0.2,-0.42 -0.3,-0.88 -0.3,-1.36 0,-0.48 0.1,-0.94 0.3,-1.37 0.2,-0.42 0.5,-0.76 0.91,-1.02 0.41,-0.26 0.91,-0.39 1.5,-0.39 0.44,0 0.83,0.07 1.18,0.22 0.35,0.15 0.63,0.35 0.85,0.6 0.22,0.25 0.39,0.55 0.51,0.89 0.11,0.34 0.17,0.69 0.17,1.06 z m -1.46,0 c 0,-0.2 -0.03,-0.39 -0.08,-0.56 -0.05,-0.17 -0.13,-0.31 -0.24,-0.44 -0.11,-0.12 -0.24,-0.22 -0.39,-0.29 -0.15,-0.07 -0.33,-0.1 -0.53,-0.1 -0.39,0 -0.69,0.13 -0.91,0.38 -0.22,0.26 -0.33,0.59 -0.33,1 0,0.41 0.11,0.75 0.33,1.01 0.22,0.26 0.52,0.38 0.91,0.38 0.26,0 0.49,-0.06 0.67,-0.18 0.19,-0.12 0.33,-0.28 0.42,-0.49 0.1,-0.21 0.14,-0.45 0.14,-0.72 z"
             style="fill:#ffffff;stroke-width:2.83226"
             id="path43" />
          <path
             d="m 20.72,335.84 h -1.24 v -0.57 c -0.17,0.21 -0.36,0.37 -0.55,0.48 -0.19,0.11 -0.42,0.16 -0.69,0.16 -0.53,0 -0.87,-0.17 -1.03,-0.53 -0.16,-0.35 -0.23,-0.75 -0.23,-1.19 v -2.34 h 1.24 V 334 c 0,0.22 0.03,0.41 0.1,0.57 0.06,0.16 0.2,0.24 0.41,0.24 0.18,0 0.33,-0.06 0.43,-0.18 0.11,-0.12 0.21,-0.27 0.32,-0.45 v -2.34 h 1.24 v 3.98 z"
             style="fill:#ffffff;stroke-width:2.83226"
             id="path44" />
          <path
             d="m 23.99,335.61 c -0.13,0.07 -0.31,0.14 -0.53,0.2 -0.23,0.07 -0.44,0.1 -0.65,0.1 -0.89,0 -1.34,-0.49 -1.34,-1.48 v -1.59 h -0.56 v -0.25 l 1.66,-1.92 h 0.14 v 1.19 h 1.18 v 0.98 h -1.18 v 1.27 c 0,0.15 0,0.27 0.02,0.36 0.02,0.09 0.06,0.17 0.14,0.23 0.07,0.06 0.19,0.09 0.34,0.09 0.2,0 0.46,-0.09 0.78,-0.28 z"
             style="fill:#ffffff;stroke-width:2.83226"
             id="path45" />
          <path
             d="m 29.88,335.84 h -3.62 v -5.41 h 1.44 v 4.12 h 2.18 v 1.3 z"
             style="fill:#ffffff;stroke-width:2.83226"
             id="path46" />
        </g>
        <g
           id="g50"
           style="stroke-width:2.83226">
          <path
             d="m 61.57,333.13 c 0,0.51 -0.1,0.97 -0.31,1.39 -0.21,0.42 -0.51,0.76 -0.92,1.01 -0.41,0.25 -0.9,0.38 -1.48,0.38 -0.58,0 -1.09,-0.13 -1.5,-0.39 -0.41,-0.26 -0.71,-0.6 -0.91,-1.03 -0.2,-0.42 -0.3,-0.88 -0.3,-1.36 0,-0.48 0.1,-0.94 0.3,-1.37 0.2,-0.42 0.5,-0.76 0.91,-1.02 0.41,-0.26 0.91,-0.39 1.5,-0.39 0.44,0 0.83,0.07 1.18,0.22 0.34,0.15 0.63,0.35 0.85,0.6 0.22,0.25 0.39,0.55 0.5,0.89 0.12,0.34 0.17,0.69 0.17,1.06 z m -1.46,0 c 0,-0.2 -0.03,-0.39 -0.08,-0.56 -0.05,-0.17 -0.13,-0.31 -0.24,-0.44 -0.11,-0.12 -0.24,-0.22 -0.39,-0.29 -0.15,-0.07 -0.33,-0.1 -0.53,-0.1 -0.38,0 -0.69,0.13 -0.91,0.38 -0.22,0.26 -0.33,0.59 -0.33,1 0,0.41 0.11,0.75 0.33,1.01 0.22,0.26 0.52,0.38 0.91,0.38 0.26,0 0.49,-0.06 0.67,-0.18 0.19,-0.12 0.33,-0.28 0.42,-0.49 0.1,-0.21 0.14,-0.45 0.14,-0.72 z"
             style="fill:#ffffff;stroke-width:2.83226"
             id="path47" />
          <path
             d="m 65.67,335.84 h -1.24 v -0.57 c -0.17,0.21 -0.36,0.37 -0.55,0.48 -0.19,0.11 -0.42,0.16 -0.69,0.16 -0.53,0 -0.87,-0.17 -1.03,-0.53 -0.16,-0.35 -0.23,-0.75 -0.23,-1.19 v -2.34 h 1.24 V 334 c 0,0.22 0.03,0.41 0.09,0.57 0.06,0.16 0.2,0.24 0.41,0.24 0.18,0 0.33,-0.06 0.43,-0.18 0.1,-0.12 0.21,-0.27 0.32,-0.45 v -2.34 h 1.24 v 3.98 z"
             style="fill:#ffffff;stroke-width:2.83226"
             id="path48" />
          <path
             d="m 68.94,335.61 c -0.13,0.07 -0.31,0.14 -0.53,0.2 -0.23,0.07 -0.44,0.1 -0.65,0.1 -0.89,0 -1.34,-0.49 -1.34,-1.48 v -1.59 h -0.56 v -0.25 l 1.66,-1.92 h 0.14 v 1.19 h 1.18 v 0.98 h -1.18 v 1.27 c 0,0.15 0,0.27 0.02,0.36 0.02,0.09 0.06,0.17 0.14,0.23 0.07,0.06 0.19,0.09 0.34,0.09 0.2,0 0.46,-0.09 0.78,-0.28 z"
             style="fill:#ffffff;stroke-width:2.83226"
             id="path49" />
          <path
             d="m 75.82,335.84 h -1.54 l -0.38,-0.96 c -0.14,-0.35 -0.26,-0.61 -0.37,-0.77 -0.11,-0.16 -0.22,-0.27 -0.32,-0.31 -0.1,-0.04 -0.24,-0.07 -0.4,-0.07 h -0.16 v 2.11 h -1.44 v -5.41 h 2.44 c 0.39,0 0.72,0.09 0.97,0.27 0.25,0.18 0.43,0.4 0.54,0.66 0.11,0.26 0.17,0.51 0.17,0.74 0,0.27 -0.05,0.5 -0.14,0.69 -0.09,0.19 -0.19,0.33 -0.29,0.41 -0.1,0.09 -0.22,0.17 -0.35,0.25 0.15,0.1 0.28,0.22 0.38,0.36 0.1,0.14 0.24,0.42 0.41,0.85 z m -1.95,-3.71 c 0,-0.25 -0.07,-0.42 -0.22,-0.52 -0.14,-0.1 -0.38,-0.15 -0.7,-0.15 h -0.3 v 1.3 h 0.31 c 0.35,0 0.59,-0.04 0.72,-0.13 0.13,-0.09 0.19,-0.25 0.19,-0.5 z"
             style="fill:#ffffff;stroke-width:2.83226"
             id="path50" />
        </g>
        <g
           id="g63"
           style="stroke-width:2.83226">
          <path
             d="m 56.35,129.19 c 0,0.47 -0.14,0.84 -0.42,1.12 -0.28,0.28 -0.67,0.42 -1.18,0.42 H 52 v -5.41 h 2.3 c 0.3,0 0.56,0.03 0.78,0.1 0.22,0.06 0.4,0.15 0.54,0.27 0.13,0.11 0.24,0.25 0.3,0.4 0.07,0.15 0.1,0.32 0.1,0.5 0,0.2 -0.04,0.38 -0.1,0.55 -0.06,0.17 -0.15,0.31 -0.26,0.41 -0.1,0.11 -0.21,0.18 -0.31,0.23 0.33,0.15 0.57,0.33 0.74,0.55 0.17,0.22 0.26,0.51 0.26,0.87 z m -1.68,-2.32 c 0,-0.26 -0.08,-0.43 -0.23,-0.52 -0.15,-0.09 -0.39,-0.13 -0.71,-0.13 h -0.3 v 1.3 h 0.31 c 0.33,0 0.56,-0.04 0.71,-0.13 0.15,-0.09 0.22,-0.26 0.22,-0.52 z m 0.24,2.26 c 0,-0.46 -0.3,-0.7 -0.89,-0.7 h -0.58 v 1.39 h 0.58 c 0.59,0 0.89,-0.23 0.89,-0.69 z"
             id="path58"
             style="stroke-width:2.83226" />
          <path
             d="m 60.54,126.75 -2.38,5.79 h -1.25 l 0.96,-2.33 -1.38,-3.46 h 1.33 l 0.71,1.98 0.81,-1.98 z"
             id="path59"
             style="stroke-width:2.83226" />
          <path
             d="m 64.45,128.71 c 0,0.27 -0.03,0.52 -0.1,0.77 -0.07,0.25 -0.17,0.47 -0.3,0.67 -0.14,0.2 -0.31,0.36 -0.53,0.47 -0.21,0.12 -0.46,0.17 -0.75,0.17 -0.23,0 -0.41,-0.03 -0.54,-0.08 -0.13,-0.05 -0.26,-0.13 -0.39,-0.22 v 2.04 H 60.6 v -5.79 h 1.24 v 0.36 c 0.12,-0.12 0.26,-0.22 0.41,-0.31 0.15,-0.09 0.35,-0.12 0.61,-0.12 0.26,0 0.5,0.07 0.75,0.21 0.25,0.14 0.45,0.37 0.61,0.67 0.16,0.3 0.24,0.69 0.24,1.15 z m -1.3,0.03 c 0,-0.24 -0.03,-0.43 -0.1,-0.58 -0.07,-0.15 -0.15,-0.26 -0.26,-0.32 -0.11,-0.06 -0.21,-0.1 -0.33,-0.1 -0.15,0 -0.27,0.03 -0.36,0.08 -0.09,0.05 -0.18,0.12 -0.26,0.2 v 1.52 c 0,0 0.09,0.06 0.14,0.09 0.05,0.03 0.1,0.06 0.15,0.08 0.05,0.02 0.1,0.04 0.16,0.06 0.06,0.02 0.12,0.02 0.18,0.02 0.19,0 0.36,-0.09 0.49,-0.28 0.13,-0.19 0.2,-0.44 0.2,-0.77 z"
             id="path60"
             style="stroke-width:2.83226" />
          <path
             d="m 68.44,130.53 c -0.18,0.08 -0.35,0.15 -0.5,0.2 -0.15,0.05 -0.34,0.07 -0.55,0.07 -0.21,0 -0.35,-0.04 -0.43,-0.12 -0.08,-0.08 -0.14,-0.18 -0.17,-0.3 -0.13,0.12 -0.28,0.22 -0.44,0.3 -0.16,0.08 -0.38,0.12 -0.64,0.12 -0.26,0 -0.46,-0.05 -0.62,-0.15 -0.16,-0.1 -0.27,-0.23 -0.33,-0.38 -0.06,-0.15 -0.09,-0.31 -0.09,-0.47 0,-0.24 0.05,-0.45 0.16,-0.61 0.11,-0.16 0.25,-0.29 0.44,-0.39 0.18,-0.1 0.43,-0.21 0.73,-0.32 0.17,-0.06 0.3,-0.11 0.39,-0.14 0.09,-0.03 0.15,-0.06 0.2,-0.08 0.04,-0.02 0.09,-0.04 0.14,-0.07 0,-0.19 -0.04,-0.34 -0.1,-0.45 -0.06,-0.11 -0.22,-0.16 -0.45,-0.16 -0.27,0 -0.52,0.07 -0.75,0.2 -0.23,0.14 -0.44,0.31 -0.64,0.52 v -1.08 c 0.15,-0.12 0.32,-0.23 0.5,-0.31 0.18,-0.08 0.37,-0.14 0.56,-0.18 0.19,-0.04 0.39,-0.06 0.59,-0.06 0.51,0 0.89,0.11 1.14,0.33 0.26,0.22 0.38,0.53 0.38,0.92 v 1.54 c 0,0.15 0.01,0.25 0.04,0.33 0.02,0.07 0.07,0.11 0.13,0.11 0.08,0 0.18,-0.04 0.32,-0.11 v 0.74 z m -1.72,-0.76 v -0.94 c -0.29,0.14 -0.51,0.26 -0.64,0.37 -0.13,0.11 -0.2,0.25 -0.2,0.44 0,0.13 0.03,0.23 0.1,0.3 0.07,0.07 0.15,0.11 0.24,0.11 0.08,0 0.17,-0.03 0.25,-0.08 0.08,-0.05 0.17,-0.12 0.26,-0.19 z"
             id="path61"
             style="stroke-width:2.83226" />
          <path
             d="m 71.29,129.57 c 0,0.36 -0.12,0.66 -0.35,0.89 -0.24,0.23 -0.58,0.34 -1.05,0.34 -0.26,0 -0.49,-0.03 -0.69,-0.08 -0.2,-0.05 -0.42,-0.13 -0.66,-0.23 v -1 c 0.21,0.14 0.39,0.24 0.54,0.31 0.15,0.07 0.32,0.11 0.5,0.11 0.31,0 0.46,-0.1 0.46,-0.29 0,-0.06 -0.02,-0.12 -0.07,-0.17 -0.04,-0.05 -0.12,-0.11 -0.23,-0.17 -0.11,-0.06 -0.26,-0.14 -0.45,-0.23 -0.23,-0.11 -0.42,-0.27 -0.58,-0.46 -0.16,-0.19 -0.24,-0.43 -0.24,-0.71 0,-0.2 0.05,-0.39 0.16,-0.57 0.11,-0.18 0.27,-0.33 0.48,-0.45 0.21,-0.12 0.48,-0.17 0.78,-0.17 0.07,0 0.17,0 0.28,0.02 0.11,0.02 0.26,0.04 0.43,0.09 0.17,0.05 0.34,0.12 0.49,0.21 v 0.97 c -0.07,-0.05 -0.13,-0.09 -0.18,-0.12 -0.05,-0.03 -0.12,-0.07 -0.2,-0.11 -0.08,-0.04 -0.18,-0.08 -0.29,-0.11 -0.11,-0.03 -0.23,-0.05 -0.34,-0.05 -0.14,0 -0.24,0.03 -0.29,0.09 -0.05,0.06 -0.08,0.12 -0.08,0.19 0,0.07 0.03,0.13 0.08,0.18 0.05,0.05 0.18,0.13 0.37,0.21 0.28,0.12 0.5,0.24 0.66,0.37 0.16,0.13 0.28,0.27 0.35,0.42 0.07,0.15 0.1,0.33 0.1,0.54 z"
             id="path62"
             style="stroke-width:2.83226" />
          <path
             d="m 74.41,129.57 c 0,0.36 -0.12,0.66 -0.35,0.89 -0.24,0.23 -0.58,0.34 -1.05,0.34 -0.26,0 -0.49,-0.03 -0.69,-0.08 -0.2,-0.05 -0.42,-0.13 -0.66,-0.23 v -1 c 0.21,0.14 0.39,0.24 0.54,0.31 0.15,0.07 0.32,0.11 0.5,0.11 0.31,0 0.46,-0.1 0.46,-0.29 0,-0.06 -0.02,-0.12 -0.07,-0.17 -0.04,-0.05 -0.12,-0.11 -0.23,-0.17 -0.11,-0.06 -0.26,-0.14 -0.45,-0.23 -0.23,-0.11 -0.42,-0.27 -0.58,-0.46 -0.16,-0.19 -0.24,-0.43 -0.24,-0.71 0,-0.2 0.05,-0.39 0.16,-0.57 0.11,-0.18 0.27,-0.33 0.48,-0.45 0.21,-0.12 0.48,-0.17 0.78,-0.17 0.07,0 0.17,0 0.28,0.02 0.11,0.02 0.26,0.04 0.43,0.09 0.17,0.05 0.34,0.12 0.49,0.21 v 0.97 c -0.07,-0.05 -0.13,-0.09 -0.18,-0.12 -0.05,-0.03 -0.12,-0.07 -0.2,-0.11 -0.08,-0.04 -0.18,-0.08 -0.29,-0.11 -0.11,-0.03 -0.23,-0.05 -0.34,-0.05 -0.14,0 -0.24,0.03 -0.29,0.09 -0.05,0.06 -0.08,0.12 -0.08,0.19 0,0.07 0.03,0.13 0.08,0.18 0.05,0.05 0.18,0.13 0.37,0.21 0.28,0.12 0.5,0.24 0.66,0.37 0.16,0.13 0.28,0.27 0.35,0.42 0.07,0.15 0.1,0.33 0.1,0.54 z"
             id="path63"
             style="stroke-width:2.83226" />
        </g>
        <g
           id="g70"
           style="stroke-width:2.83226">
          <path
             d="m 41.14,345.15 -2.61,7.33 -1.42,-0.55 1.87,-5.34 h -2.47 v -1.65 h 4.63 z"
             id="path64"
             style="stroke-width:2.83226" />
          <path
             d="m 46.08,348.66 c 0,0.64 -0.06,1.21 -0.19,1.7 -0.13,0.49 -0.3,0.88 -0.52,1.2 -0.22,0.31 -0.48,0.54 -0.76,0.69 -0.29,0.15 -0.59,0.23 -0.91,0.23 -0.32,0 -0.62,-0.08 -0.91,-0.23 -0.29,-0.15 -0.54,-0.38 -0.76,-0.7 -0.22,-0.31 -0.39,-0.71 -0.52,-1.19 -0.13,-0.48 -0.19,-1.05 -0.19,-1.7 0,-0.65 0.06,-1.22 0.19,-1.7 0.13,-0.48 0.3,-0.88 0.52,-1.2 0.22,-0.32 0.47,-0.55 0.76,-0.7 0.29,-0.15 0.59,-0.23 0.91,-0.23 0.32,0 0.63,0.08 0.91,0.23 0.28,0.15 0.54,0.38 0.76,0.7 0.22,0.32 0.4,0.72 0.52,1.21 0.13,0.49 0.19,1.05 0.19,1.7 z m -1.74,0 c 0,-0.66 -0.04,-1.2 -0.11,-1.62 -0.07,-0.42 -0.25,-0.63 -0.53,-0.63 -0.19,0 -0.33,0.12 -0.43,0.35 -0.09,0.24 -0.15,0.51 -0.18,0.82 -0.02,0.31 -0.03,0.67 -0.03,1.08 0,0.71 0.04,1.25 0.11,1.65 0.07,0.39 0.25,0.59 0.53,0.59 0.28,0 0.46,-0.2 0.54,-0.59 0.07,-0.39 0.11,-0.94 0.11,-1.65 z"
             id="path65"
             style="stroke-width:2.83226" />
          <path
             d="m 49.94,350.78 c 0,0.5 -0.15,0.91 -0.45,1.22 -0.3,0.31 -0.75,0.47 -1.34,0.47 -0.33,0 -0.63,-0.04 -0.88,-0.11 -0.26,-0.07 -0.54,-0.18 -0.85,-0.31 v -1.38 c 0.27,0.19 0.5,0.33 0.7,0.42 0.2,0.1 0.41,0.14 0.65,0.14 0.4,0 0.59,-0.13 0.59,-0.4 0,-0.09 -0.03,-0.17 -0.09,-0.24 -0.06,-0.07 -0.16,-0.15 -0.3,-0.24 -0.14,-0.09 -0.33,-0.19 -0.57,-0.31 -0.29,-0.16 -0.54,-0.37 -0.75,-0.63 -0.21,-0.27 -0.31,-0.59 -0.31,-0.97 0,-0.27 0.07,-0.53 0.21,-0.78 0.14,-0.25 0.34,-0.46 0.62,-0.61 0.28,-0.16 0.61,-0.24 1,-0.24 0.09,0 0.21,0 0.36,0.02 0.14,0.02 0.33,0.06 0.55,0.13 0.22,0.07 0.43,0.16 0.63,0.29 v 1.34 c -0.09,-0.07 -0.17,-0.12 -0.24,-0.17 -0.06,-0.05 -0.15,-0.1 -0.25,-0.16 -0.11,-0.06 -0.23,-0.11 -0.37,-0.15 -0.14,-0.04 -0.29,-0.07 -0.44,-0.07 -0.18,0 -0.31,0.04 -0.37,0.13 -0.06,0.09 -0.1,0.17 -0.1,0.26 0,0.09 0.04,0.17 0.11,0.25 0.07,0.08 0.23,0.17 0.47,0.29 0.35,0.17 0.63,0.33 0.85,0.51 0.21,0.17 0.36,0.36 0.45,0.57 0.09,0.21 0.13,0.45 0.13,0.74 z"
             id="path66"
             style="stroke-width:2.83226" />
          <path
             d="m 36.53,358.82 c -0.25,0.16 -0.51,0.29 -0.78,0.39 -0.26,0.1 -0.53,0.17 -0.8,0.21 -0.27,0.04 -0.55,0.06 -0.83,0.06 -0.53,0 -1.01,-0.09 -1.43,-0.27 -0.42,-0.18 -0.79,-0.44 -1.1,-0.79 -0.31,-0.35 -0.54,-0.76 -0.7,-1.22 -0.15,-0.47 -0.23,-0.98 -0.23,-1.54 0,-0.64 0.09,-1.2 0.27,-1.68 0.18,-0.48 0.44,-0.88 0.76,-1.2 0.33,-0.32 0.7,-0.55 1.12,-0.71 0.42,-0.15 0.86,-0.23 1.32,-0.23 0.69,0 1.48,0.19 2.36,0.56 v 1.98 c -0.3,-0.23 -0.6,-0.42 -0.9,-0.57 -0.3,-0.15 -0.64,-0.23 -1.04,-0.23 -0.36,0 -0.69,0.09 -1,0.26 -0.31,0.17 -0.56,0.42 -0.74,0.74 -0.19,0.32 -0.28,0.69 -0.28,1.12 0,0.38 0.08,0.72 0.25,1.03 0.16,0.31 0.39,0.56 0.68,0.75 0.29,0.19 0.62,0.28 0.99,0.28 0.3,0 0.58,-0.04 0.84,-0.13 0.26,-0.09 0.49,-0.19 0.67,-0.29 0.18,-0.1 0.37,-0.23 0.56,-0.38 v 1.89 z"
             id="path67"
             style="stroke-width:2.83226" />
          <path
             d="m 42.01,356.64 c 0,0.54 -0.1,1.03 -0.29,1.46 -0.19,0.43 -0.48,0.76 -0.87,1.01 -0.39,0.25 -0.86,0.37 -1.41,0.37 -0.55,0 -1.03,-0.12 -1.41,-0.37 -0.39,-0.25 -0.68,-0.58 -0.87,-1.01 -0.19,-0.43 -0.29,-0.91 -0.29,-1.46 0,-0.41 0.05,-0.79 0.16,-1.12 0.11,-0.34 0.27,-0.63 0.49,-0.89 0.22,-0.26 0.49,-0.46 0.81,-0.6 0.32,-0.14 0.69,-0.21 1.11,-0.21 0.42,0 0.8,0.07 1.12,0.21 0.32,0.14 0.59,0.34 0.81,0.59 0.21,0.25 0.37,0.55 0.48,0.89 0.11,0.34 0.16,0.72 0.16,1.13 z m -1.67,0 c 0,-0.43 -0.08,-0.77 -0.23,-1.02 -0.15,-0.25 -0.38,-0.37 -0.67,-0.37 -0.29,0 -0.51,0.12 -0.67,0.37 -0.15,0.25 -0.23,0.58 -0.23,1.02 0,0.44 0.08,0.77 0.23,1.02 0.16,0.25 0.38,0.38 0.67,0.38 0.29,0 0.52,-0.12 0.67,-0.37 0.15,-0.25 0.23,-0.59 0.23,-1.02 z"
             id="path68"
             style="stroke-width:2.83226" />
          <path
             d="m 50.37,359.38 h -1.59 v -2.92 c 0,-0.39 -0.05,-0.68 -0.16,-0.87 -0.11,-0.19 -0.27,-0.29 -0.5,-0.29 -0.23,0 -0.4,0.08 -0.54,0.24 -0.14,0.16 -0.28,0.37 -0.42,0.62 v 3.21 h -1.59 v -2.92 c 0,-0.37 -0.05,-0.65 -0.14,-0.85 -0.1,-0.2 -0.27,-0.3 -0.52,-0.3 -0.12,0 -0.23,0.03 -0.32,0.09 -0.1,0.06 -0.18,0.12 -0.24,0.19 -0.06,0.07 -0.14,0.18 -0.22,0.32 -0.09,0.14 -0.14,0.23 -0.17,0.26 v 3.21 h -1.58 v -5.47 h 1.58 v 0.78 c 0.24,-0.31 0.48,-0.53 0.73,-0.67 0.25,-0.14 0.53,-0.21 0.85,-0.21 0.15,0 0.3,0.02 0.44,0.05 0.14,0.03 0.27,0.09 0.41,0.17 0.13,0.08 0.25,0.2 0.36,0.34 0.11,0.14 0.2,0.31 0.26,0.5 0.26,-0.35 0.52,-0.62 0.79,-0.79 0.27,-0.18 0.59,-0.27 0.95,-0.27 0.36,0 0.66,0.09 0.9,0.26 0.24,0.18 0.42,0.43 0.54,0.76 0.12,0.33 0.17,0.73 0.17,1.21 v 3.34 z"
             id="path69"
             style="stroke-width:2.83226" />
          <path
             d="m 55.78,356.6 c 0,0.37 -0.04,0.72 -0.13,1.06 -0.08,0.34 -0.21,0.65 -0.39,0.92 -0.17,0.27 -0.4,0.49 -0.67,0.65 -0.27,0.16 -0.59,0.24 -0.96,0.24 -0.29,0 -0.53,-0.04 -0.69,-0.11 -0.17,-0.08 -0.34,-0.17 -0.5,-0.3 v 2.8 h -1.58 v -7.95 h 1.58 v 0.49 c 0.16,-0.17 0.33,-0.31 0.53,-0.42 0.19,-0.11 0.45,-0.17 0.78,-0.17 0.33,0 0.65,0.1 0.96,0.29 0.31,0.2 0.57,0.5 0.78,0.92 0.2,0.42 0.3,0.94 0.3,1.58 z m -1.66,0.05 c 0,-0.33 -0.04,-0.6 -0.13,-0.8 -0.08,-0.21 -0.2,-0.35 -0.33,-0.45 -0.13,-0.09 -0.27,-0.14 -0.42,-0.14 -0.19,0 -0.34,0.04 -0.46,0.11 -0.12,0.07 -0.23,0.17 -0.34,0.28 v 2.09 c 0.06,0.04 0.12,0.08 0.18,0.12 0.06,0.04 0.13,0.08 0.19,0.12 0.06,0.03 0.13,0.06 0.2,0.08 0.07,0.02 0.15,0.03 0.23,0.03 0.25,0 0.46,-0.13 0.62,-0.39 0.17,-0.26 0.25,-0.61 0.25,-1.05 z"
             id="path70"
             style="stroke-width:2.83226" />
        </g>
        <g
           id="g76"
           style="stroke-width:2.83226">
          <path
             d="M 32.87,81.07 H 31.03 L 30.54,79.7 h -2.59 l -0.49,1.37 h -1.84 l 2.63,-6.77 h 1.99 z m -2.74,-2.55 -0.87,-2.47 -0.88,2.47 z"
             id="path71"
             style="stroke-width:2.83226" />
          <path
             d="m 40.84,81.07 h -1.55 v -2.65 c 0,-0.35 -0.05,-0.61 -0.15,-0.79 -0.1,-0.17 -0.26,-0.26 -0.48,-0.26 -0.22,0 -0.39,0.07 -0.53,0.22 -0.14,0.15 -0.27,0.33 -0.41,0.56 v 2.92 h -1.55 v -2.65 c 0,-0.34 -0.05,-0.59 -0.14,-0.78 -0.09,-0.18 -0.26,-0.27 -0.5,-0.27 -0.11,0 -0.22,0.03 -0.32,0.08 -0.1,0.05 -0.17,0.11 -0.23,0.18 -0.06,0.07 -0.13,0.16 -0.22,0.29 -0.09,0.13 -0.14,0.21 -0.16,0.24 v 2.92 h -1.55 v -4.97 h 1.55 v 0.71 c 0.23,-0.28 0.47,-0.48 0.71,-0.61 0.24,-0.13 0.52,-0.19 0.83,-0.19 0.15,0 0.29,0.02 0.43,0.05 0.13,0.03 0.27,0.08 0.4,0.16 0.13,0.08 0.25,0.18 0.35,0.31 0.1,0.13 0.19,0.28 0.25,0.45 0.25,-0.32 0.51,-0.56 0.78,-0.72 0.27,-0.16 0.58,-0.24 0.93,-0.24 0.35,0 0.64,0.08 0.88,0.24 0.24,0.16 0.41,0.39 0.52,0.69 0.11,0.3 0.17,0.67 0.17,1.1 v 3.03 z"
             id="path72"
             style="stroke-width:2.83226" />
          <path
             d="m 46.24,78.58 c 0,0.49 -0.09,0.94 -0.28,1.32 -0.19,0.38 -0.47,0.69 -0.85,0.92 -0.38,0.23 -0.84,0.34 -1.38,0.34 -0.54,0 -1,-0.11 -1.38,-0.34 -0.38,-0.22 -0.66,-0.53 -0.85,-0.92 -0.19,-0.39 -0.28,-0.83 -0.28,-1.32 0,-0.37 0.05,-0.71 0.16,-1.02 0.11,-0.31 0.26,-0.58 0.48,-0.81 0.21,-0.24 0.48,-0.42 0.79,-0.54 0.31,-0.13 0.67,-0.19 1.08,-0.19 0.41,0 0.78,0.06 1.09,0.19 0.32,0.13 0.58,0.31 0.79,0.54 0.21,0.23 0.36,0.5 0.47,0.81 0.11,0.31 0.16,0.65 0.16,1.03 z m -1.63,0 c 0,-0.39 -0.08,-0.7 -0.23,-0.93 -0.15,-0.23 -0.37,-0.33 -0.66,-0.33 -0.29,0 -0.5,0.11 -0.65,0.33 -0.15,0.22 -0.23,0.53 -0.23,0.93 0,0.4 0.08,0.7 0.23,0.93 0.15,0.23 0.37,0.34 0.65,0.34 0.28,0 0.5,-0.11 0.66,-0.34 0.16,-0.23 0.23,-0.54 0.23,-0.93 z"
             id="path73"
             style="stroke-width:2.83226" />
          <path
             d="m 51.3,81.07 h -1.55 v -0.71 c -0.22,0.27 -0.45,0.47 -0.69,0.6 -0.24,0.13 -0.53,0.2 -0.86,0.2 -0.66,0 -1.09,-0.22 -1.28,-0.66 -0.19,-0.44 -0.29,-0.93 -0.29,-1.48 V 76.1 h 1.55 v 2.69 c 0,0.27 0.04,0.51 0.12,0.71 0.08,0.2 0.25,0.31 0.51,0.31 0.23,0 0.41,-0.07 0.54,-0.22 0.13,-0.15 0.27,-0.33 0.41,-0.56 v -2.92 h 1.55 v 4.97 z"
             id="path74"
             style="stroke-width:2.83226" />
          <path
             d="m 56.61,81.07 h -1.55 v -2.68 c 0,-0.27 -0.04,-0.51 -0.12,-0.72 -0.08,-0.2 -0.25,-0.31 -0.52,-0.31 -0.13,0 -0.24,0.03 -0.33,0.08 -0.1,0.05 -0.18,0.12 -0.26,0.21 -0.08,0.08 -0.14,0.17 -0.19,0.24 -0.05,0.08 -0.11,0.16 -0.16,0.25 v 2.92 h -1.55 v -4.97 h 1.55 v 0.71 c 0.24,-0.3 0.49,-0.5 0.73,-0.62 0.24,-0.12 0.52,-0.18 0.82,-0.18 1.05,0 1.57,0.71 1.57,2.14 v 2.92 z"
             id="path75"
             style="stroke-width:2.83226" />
          <path
             d="m 60.64,80.78 c -0.16,0.09 -0.38,0.17 -0.66,0.25 -0.28,0.08 -0.55,0.12 -0.81,0.12 -1.11,0 -1.67,-0.62 -1.67,-1.86 V 77.31 H 56.8 V 77 l 2.08,-2.4 h 0.18 v 1.49 h 1.48 v 1.22 h -1.48 v 1.59 c 0,0.19 0,0.34 0.03,0.45 0.02,0.11 0.08,0.21 0.17,0.29 0.09,0.08 0.23,0.11 0.42,0.11 0.25,0 0.57,-0.12 0.97,-0.35 v 1.37 z"
             id="path76"
             style="stroke-width:2.83226" />
        </g>
        <g
           id="g80"
           style="stroke-width:2.83226">
          <path
             d="m 39.92,186.21 c -0.13,0.06 -0.24,0.1 -0.33,0.14 -0.09,0.04 -0.18,0.07 -0.26,0.1 -0.08,0.03 -0.21,0.07 -0.37,0.11 -0.27,0.07 -0.54,0.13 -0.81,0.16 -0.27,0.04 -0.56,0.06 -0.86,0.06 -0.6,0 -1.16,-0.12 -1.68,-0.38 -0.51,-0.25 -0.92,-0.64 -1.23,-1.17 -0.31,-0.53 -0.46,-1.17 -0.46,-1.94 0,-0.49 0.08,-0.98 0.24,-1.46 0.16,-0.48 0.4,-0.86 0.73,-1.15 0.27,-0.24 0.54,-0.42 0.82,-0.54 0.28,-0.13 0.55,-0.21 0.81,-0.25 0.26,-0.04 0.55,-0.06 0.87,-0.06 0.52,0 0.96,0.04 1.3,0.13 0.34,0.09 0.71,0.21 1.12,0.35 v 1.6 c -0.27,-0.18 -0.55,-0.33 -0.85,-0.45 -0.3,-0.12 -0.68,-0.18 -1.13,-0.18 -0.52,0 -0.93,0.11 -1.24,0.33 -0.31,0.22 -0.53,0.49 -0.65,0.8 -0.12,0.31 -0.18,0.61 -0.18,0.9 0,0.34 0.07,0.66 0.21,0.95 0.14,0.29 0.35,0.52 0.64,0.69 0.28,0.17 0.63,0.26 1.03,0.26 0.23,0 0.47,-0.03 0.73,-0.1 v -0.8 h -0.81 v -1.36 h 2.38 v 3.25 z"
             id="path77"
             style="stroke-width:2.83226" />
          <path
             d="m 45.26,186.44 c -0.23,0.1 -0.44,0.18 -0.63,0.24 -0.19,0.06 -0.42,0.09 -0.69,0.09 -0.25,0 -0.43,-0.05 -0.53,-0.15 -0.1,-0.1 -0.17,-0.23 -0.21,-0.37 -0.17,0.15 -0.35,0.28 -0.55,0.38 -0.2,0.1 -0.47,0.15 -0.8,0.15 -0.33,0 -0.58,-0.06 -0.77,-0.19 -0.2,-0.13 -0.33,-0.28 -0.41,-0.47 -0.08,-0.19 -0.12,-0.39 -0.12,-0.59 0,-0.31 0.07,-0.56 0.2,-0.76 0.14,-0.2 0.32,-0.36 0.55,-0.49 0.23,-0.13 0.53,-0.26 0.91,-0.4 0.21,-0.08 0.38,-0.14 0.49,-0.18 0.11,-0.04 0.19,-0.07 0.25,-0.1 0.05,-0.02 0.11,-0.05 0.17,-0.09 0,-0.24 -0.04,-0.43 -0.13,-0.57 -0.09,-0.14 -0.27,-0.21 -0.56,-0.21 -0.34,0 -0.65,0.08 -0.94,0.25 -0.29,0.17 -0.55,0.39 -0.79,0.65 v -1.35 c 0.19,-0.16 0.4,-0.28 0.62,-0.38 0.22,-0.1 0.46,-0.17 0.7,-0.22 0.24,-0.05 0.49,-0.07 0.74,-0.07 0.63,0 1.11,0.14 1.43,0.42 0.32,0.28 0.48,0.66 0.48,1.15 v 1.92 c 0,0.18 0.02,0.32 0.04,0.41 0.03,0.09 0.09,0.13 0.17,0.13 0.1,0 0.23,-0.05 0.4,-0.14 v 0.92 z m -2.15,-0.95 v -1.18 c -0.37,0.17 -0.63,0.32 -0.8,0.46 -0.17,0.13 -0.25,0.32 -0.25,0.55 0,0.17 0.04,0.29 0.13,0.38 0.09,0.09 0.18,0.13 0.29,0.13 0.11,0 0.21,-0.03 0.32,-0.1 0.1,-0.07 0.21,-0.15 0.32,-0.24 z"
             id="path78"
             style="stroke-width:2.83226" />
          <path
             d="m 47.03,186.69 h -1.55 v -4.97 h 1.55 z m -0.13,-6.12 c 0,0.21 -0.06,0.38 -0.19,0.52 -0.13,0.14 -0.28,0.21 -0.46,0.21 -0.12,0 -0.23,-0.03 -0.33,-0.1 -0.1,-0.07 -0.18,-0.15 -0.23,-0.27 -0.05,-0.12 -0.09,-0.24 -0.09,-0.37 0,-0.2 0.06,-0.38 0.19,-0.52 0.13,-0.14 0.28,-0.22 0.46,-0.22 0.18,0 0.33,0.07 0.46,0.22 0.13,0.15 0.19,0.32 0.19,0.52 z"
             id="path79"
             style="stroke-width:2.83226" />
          <path
             d="m 52.41,186.69 h -1.55 v -2.68 c 0,-0.27 -0.04,-0.51 -0.12,-0.71 -0.08,-0.2 -0.25,-0.31 -0.52,-0.31 -0.13,0 -0.24,0.03 -0.33,0.08 -0.1,0.05 -0.18,0.12 -0.26,0.21 -0.08,0.08 -0.14,0.17 -0.19,0.24 -0.05,0.08 -0.11,0.16 -0.16,0.25 v 2.92 h -1.55 v -4.97 h 1.55 v 0.71 c 0.24,-0.3 0.49,-0.5 0.73,-0.62 0.24,-0.12 0.52,-0.18 0.82,-0.18 1.05,0 1.57,0.71 1.57,2.14 v 2.92 z"
             id="path80"
             style="stroke-width:2.83226" />
        </g>
        <g
           id="g87"
           style="stroke-width:2.83226">
          <path
             d="m 30.53,245.69 c 0,0.69 -0.11,1.25 -0.33,1.67 -0.22,0.42 -0.48,0.76 -0.78,1.02 -0.43,0.38 -1.02,0.57 -1.79,0.57 h -3.21 v -6.77 h 2.48 c 0.37,0 0.69,0.02 0.96,0.07 0.27,0.05 0.5,0.11 0.72,0.19 0.21,0.08 0.39,0.17 0.54,0.27 0.15,0.1 0.28,0.21 0.4,0.32 0.2,0.19 0.38,0.41 0.54,0.67 0.15,0.26 0.27,0.56 0.37,0.89 0.09,0.34 0.14,0.71 0.14,1.1 z m -1.83,-0.08 c 0,-0.55 -0.09,-0.98 -0.28,-1.29 -0.19,-0.31 -0.41,-0.51 -0.67,-0.62 -0.26,-0.1 -0.52,-0.16 -0.79,-0.16 H 26.2 v 4.01 h 0.76 c 0.47,0 0.88,-0.13 1.22,-0.38 0.34,-0.25 0.52,-0.78 0.52,-1.57 z"
             id="path81"
             style="stroke-width:2.83226" />
          <path
             d="m 34.87,244.25 -0.57,1.76 c -0.24,-0.25 -0.47,-0.38 -0.71,-0.38 -0.22,0 -0.41,0.08 -0.56,0.25 -0.16,0.17 -0.31,0.48 -0.46,0.93 v 2.14 h -1.55 v -4.97 h 1.55 v 1.2 c 0.1,-0.3 0.27,-0.58 0.52,-0.87 0.25,-0.28 0.54,-0.42 0.87,-0.42 0.17,0 0.33,0.03 0.46,0.09 0.13,0.06 0.29,0.15 0.47,0.27 z"
             id="path82"
             style="stroke-width:2.83226" />
          <path
             d="m 39.7,243.99 -2.97,7.23 h -1.56 l 1.2,-2.91 -1.73,-4.32 h 1.66 l 0.89,2.47 1.01,-2.47 z"
             id="path83"
             style="stroke-width:2.83226" />
          <path
             d="m 43.82,242.1 -3.24,6.95 h -1.15 l 3.24,-6.95 h 1.16 z"
             id="path84"
             style="stroke-width:2.83226" />
          <path
             d="m 54,242.19 -2.58,6.86 h -1.04 l -1.55,-3.99 -1.59,3.99 h -1.05 l -2.53,-6.86 h 1.86 l 1.24,3.75 1.42,-3.75 h 1.28 l 1.39,3.75 1.29,-3.75 h 1.84 z"
             id="path85"
             style="stroke-width:2.83226" />
          <path
             d="m 58.7,246.9 h -3.08 c 0.06,0.3 0.21,0.55 0.44,0.74 0.24,0.19 0.5,0.29 0.8,0.29 0.52,0 1.1,-0.17 1.73,-0.5 v 1.09 c -0.23,0.13 -0.5,0.25 -0.82,0.36 -0.32,0.11 -0.73,0.16 -1.23,0.16 -0.54,0 -1,-0.11 -1.38,-0.34 -0.38,-0.23 -0.66,-0.54 -0.85,-0.93 -0.19,-0.39 -0.28,-0.83 -0.28,-1.33 0,-0.5 0.09,-0.92 0.28,-1.31 0.19,-0.39 0.47,-0.69 0.85,-0.91 0.38,-0.22 0.84,-0.33 1.38,-0.33 0.36,0 0.7,0.09 1.03,0.26 0.33,0.17 0.6,0.46 0.82,0.85 0.22,0.39 0.32,0.91 0.32,1.53 v 0.35 z m -1.45,-0.87 c 0,-0.32 -0.07,-0.57 -0.21,-0.76 -0.14,-0.19 -0.34,-0.29 -0.6,-0.29 -0.26,0 -0.47,0.1 -0.62,0.29 -0.16,0.19 -0.24,0.45 -0.24,0.76 z"
             id="path86"
             style="stroke-width:2.83226" />
          <path
             d="m 62.56,248.67 c -0.16,0.09 -0.38,0.17 -0.66,0.25 -0.28,0.08 -0.55,0.12 -0.81,0.12 -1.11,0 -1.67,-0.62 -1.67,-1.86 v -1.98 h -0.7 v -0.31 l 2.08,-2.4 h 0.18 v 1.49 h 1.48 v 1.22 h -1.48 v 1.59 c 0,0.19 0,0.34 0.03,0.45 0.02,0.11 0.08,0.21 0.17,0.29 0.09,0.08 0.23,0.11 0.42,0.11 0.25,0 0.57,-0.12 0.97,-0.35 v 1.37 z"
             id="path87"
             style="stroke-width:2.83226" />
        </g>
      </g>
    </g>
  </g>
  <g
     inkscape:groupmode="layer"
     id="layer9"
     inkscape:label="components"
     style="display:none">
    <ellipse
       id="AudioROut"
       cx="23.03422"
       cy="111.02867"
       style="fill:#0000ff;stroke-width:0.999998"
       data-name="Audio Right Out"
       rx="4.006259"
       ry="4.0014782" />
    <ellipse
       id="AudioLOut"
       cx="7.3094788"
       cy="111.02867"
       style="fill:#0000ff;stroke-width:0.999998"
       data-name="Audio Left Out"
       rx="4.006259"
       ry="4.0014782" />
    <ellipse
       id="AudioRIn"
       cx="23.03422"
       cy="97.023491"
       style="fill:#00ff00;stroke-width:0.999998"
       data-name="Audio Right In"
       rx="4.006259"
       ry="4.0014782" />
    <ellipse
       id="AudioLIn"
       cx="7.3094788"
       cy="97.023491"
       style="fill:#00ff00;stroke-width:0.999998"
       data-name="Audio Left In"
       rx="4.006259"
       ry="4.0014782" />
    <ellipse
       id="DryWet"
       cx="15.261938"
       cy="78.018242"
       style="fill:#ff0000;stroke-width:0.999998"
       data-name="Dry/Wet!0!100!%"
       rx="6.009388"
       ry="6.0022173" />
    <ellipse
       id="ClipLED"
       cx="25.772182"
       cy="50.441914"
       style="fill:#ff00ff;stroke-width:0.999998"
       data-name="Clip LED"
       rx="1.7522966"
       ry="1.7502056" />
    <ellipse
       id="Gain"
       cx="15.261938"
       cy="56.013641"
       style="fill:#ff0000;stroke-width:0.999998"
       data-name="Gain!0!40!db"
       rx="6.009388"
       ry="6.0022173" />
    <rect
       id="Bypass"
       x="20.267994"
       y="35.769825"
       width="4.006259"
       height="6.0022173"
       style="fill:#ff0000;stroke-width:0.999998"
       data-name="Bypass@Off@On" />
    <rect
       id="Ratio"
       x="6.2496223"
       y="35.769825"
       width="4.006259"
       height="6.0022173"
       style="fill:#ff0000;stroke-width:0.999998"
       data-name="Ratio@3:1@10:1" />
    <ellipse
       id="PeakReduction"
       cx="15.261938"
       cy="18.804125"
       style="fill:#ff0000;stroke-width:0.999998"
       data-name="Peak Reduction!0!100!%"
       rx="6.009388"
       ry="6.0022173" />
  </g>
</svg>
