<?xml version="1.0" encoding="UTF-8" standalone="no"?>
<svg
   width="60.959999mm"
   height="128.5mm"
   viewBox="0 0 60.959999 128.5"
   version="1.1"
   id="svg126"
   sodipodi:docname="Spatializer_info.svg"
   inkscape:version="1.4 (e7c3feb1, 2024-10-09)"
   xmlns:inkscape="http://www.inkscape.org/namespaces/inkscape"
   xmlns:sodipodi="http://sodipodi.sourceforge.net/DTD/sodipodi-0.dtd"
   xmlns="http://www.w3.org/2000/svg"
   xmlns:svg="http://www.w3.org/2000/svg">
  <defs
     id="defs126" />
  <sodipodi:namedview
     id="namedview126"
     pagecolor="#ffffff"
     bordercolor="#000000"
     borderopacity="0.25"
     inkscape:showpageshadow="2"
     inkscape:pageopacity="0.0"
     inkscape:pagecheckerboard="0"
     inkscape:deskcolor="#d1d1d1"
     inkscape:document-units="mm"
     inkscape:zoom="1.7812006"
     inkscape:cx="244.77872"
     inkscape:cy="245.90156"
     inkscape:window-width="2560"
     inkscape:window-height="1387"
     inkscape:window-x="0"
     inkscape:window-y="25"
     inkscape:window-maximized="0"
     inkscape:current-layer="graphics" />
  <g
     inkscape:groupmode="layer"
     id="layer4"
     inkscape:label="artwork">
    <g
       id="faceplate"
       transform="scale(0.35341271)"
       style="stroke-width:2.8296">
      <g
         id="faceplate-2"
         data-name="faceplate"
         style="stroke-width:2.8296">
        <rect
           y="0"
           width="172.8"
           height="364.25"
           style="fill:#ededed;stroke-width:2.8296"
           id="rect1"
           x="0" />
        <path
           d="m 7.0899405,229.60657 c 0,8.60988 6.9798955,15.58977 15.5897675,15.58977 h 4.179937 c 0,0 0,0 0,0 H 151.23779 c 8.04988,0 14.57978,-6.97989 14.57978,-15.58977 0,-8.60987 -6.5299,-15.58976 -14.57978,-15.58976 H 26.859645 c 0,0 0,0 0,0 h -4.179937 c -8.609872,0 -15.5897675,6.97989 -15.5897675,15.58976 z"
           id="path2-7"
           style="stroke-width:2.82955" />
        <path
           d="M 172.55,0.25 V 364 H 0.25 V 0.25 h 172.3 M 172.8,0 H 0 v 364.25 h 172.8 z"
           style="fill:#9d9d9e;stroke-width:2.8296"
           id="path1" />
      </g>
      <g
         id="graphics"
         style="stroke-width:2.8296">
        <g
           id="g3"
           style="stroke-width:2.8296">
          <path
             d="m 91.78,314.65 c 0,8.61 6.98,15.59 15.59,15.59 h 4.18 c 0,0 0,0 0,0 h 40.39 c 8.05,0 14.57,-6.98 14.57,-15.59 0,-8.61 -6.53,-15.59 -14.57,-15.59 h -40.4 c 0,0 0,0 0,0 h -4.18 c -8.61,0 -15.59,6.98 -15.59,15.59 v 0 z"
             id="path3"
             style="stroke-width:2.8296" />
        </g>
        <rect
           x="134.14999"
           y="146.59"
           width="1"
           height="24.780001"
           id="rect3"
           style="stroke-width:0.99034356;stroke-dasharray:none" />
        <rect
           x="37.77"
           y="146.59"
           width="1"
           height="24.780001"
           id="rect4"
           style="stroke-width:0.99034356;stroke-dasharray:none" />
        <rect
           x="85.959999"
           y="101.42"
           width="1"
           height="68.349998"
           id="rect5"
           style="stroke-width:0.99034356;stroke-dasharray:none" />
        <rect
           x="149.67999"
           y="199.72"
           width="1"
           height="27.719999"
           id="rect6"
           style="stroke-width:0.99034356;stroke-dasharray:none" />
        <rect
           x="85.959999"
           y="196"
           width="1"
           height="11.18"
           id="rect7"
           style="stroke-width:0.99034356;stroke-dasharray:none" />
        <rect
           x="22.459999"
           y="199.72"
           width="1"
           height="27.719999"
           id="rect9"
           style="stroke-width:0.99034356;stroke-dasharray:none" />
        <rect
           x="20.889999"
           y="274.34"
           width="129.28999"
           height="1"
           id="rect11"
           style="display:inline;stroke-width:0.99034356;stroke-dasharray:none" />
        <g
           id="g27"
           style="stroke-width:2.8296">
          <path
             d="m 143.64,99.58 1.13,-1.95 c -2.75,-1.43 -5.84,-2.3 -9.12,-2.44 v 2.26 c 2.87,0.14 5.57,0.89 7.99,2.14 z"
             id="path18"
             style="stroke-width:2.8296" />
          <path
             d="m 151.23,106.43 1.95,-1.13 c -1.72,-2.68 -4,-4.96 -6.68,-6.68 l -1.13,1.95 c 2.34,1.52 4.33,3.51 5.85,5.85 z"
             id="path19"
             style="stroke-width:2.8296" />
          <path
             d="m 123.92,100.58 -1.13,-1.95 c -2.68,1.72 -4.96,4 -6.68,6.68 l 1.95,1.13 c 1.52,-2.34 3.51,-4.33 5.85,-5.85 z"
             id="path20"
             style="stroke-width:2.8296" />
          <path
             d="m 154.36,116.16 h 2.26 c -0.15,-3.28 -1.01,-6.37 -2.44,-9.12 l -1.95,1.13 c 1.24,2.42 1.99,5.13 2.14,8 z"
             id="path21"
             style="stroke-width:2.8296" />
          <path
             d="m 133.65,97.44 v -2.26 c -3.28,0.15 -6.37,1.01 -9.12,2.44 l 1.13,1.95 c 2.42,-1.24 5.13,-1.99 8,-2.14 z"
             id="path22"
             style="stroke-width:2.8296" />
          <path
             d="m 118.07,127.89 -1.95,1.13 c 1.72,2.68 4,4.96 6.68,6.68 l 1.13,-1.95 c -2.34,-1.52 -4.33,-3.51 -5.85,-5.85 z"
             id="path23"
             style="stroke-width:2.8296" />
          <path
             d="m 145.37,133.74 1.13,1.95 c 2.68,-1.72 4.96,-4 6.68,-6.68 l -1.95,-1.13 c -1.52,2.34 -3.51,4.33 -5.85,5.85 z"
             id="path24"
             style="stroke-width:2.8296" />
          <path
             d="m 154.36,118.16 c -0.14,2.87 -0.89,5.57 -2.14,8 l 1.95,1.13 c 1.43,-2.75 2.3,-5.84 2.44,-9.12 h -2.26 z"
             id="path25"
             style="stroke-width:2.8296" />
          <path
             d="m 114.93,118.16 h -2.26 c 0.15,3.28 1.01,6.37 2.44,9.12 l 1.95,-1.13 c -1.24,-2.42 -1.99,-5.13 -2.14,-8 z"
             id="path26"
             style="stroke-width:2.8296" />
          <path
             d="m 117.07,108.17 -1.95,-1.13 c -1.43,2.75 -2.3,5.84 -2.44,9.12 h 2.26 c 0.14,-2.87 0.89,-5.57 2.14,-8 z"
             id="path27"
             style="stroke-width:2.8296" />
        </g>
        <path
           d="m 22.959703,247.2863 c -3.909941,0 -7.089894,3.16996 -7.089894,7.0899 0,3.91994 3.169953,7.08989 7.089894,7.08989 3.919942,0 7.089894,-3.16995 7.089894,-7.08989 0,-3.91994 -3.169952,-7.0899 -7.089894,-7.0899 z m 2.859958,10.46985 h -4.919927 v -6.7699 h 1.799973 v 5.14992 h 3.129953 v 1.61998 z"
           id="path10"
           style="stroke-width:2.82955" />
        <path
           d="m 86.458755,247.2863 c -3.909942,0 -7.089894,3.16996 -7.089894,7.0899 0,3.91994 3.169952,7.08989 7.089894,7.08989 3.919941,0 7.089894,-3.16995 7.089894,-7.08989 0,-3.91994 -3.169953,-7.0899 -7.089894,-7.0899 z m 3.459948,10.46985 H 88.11873 v -3.91994 l -1.619976,2.26996 h -0.139998 l -1.619976,-2.26996 v 3.91994 h -1.739974 v -6.7699 h 1.629976 l 1.829973,2.53996 1.839972,-2.53996 h 1.629976 v 6.7699 z"
           id="path11"
           style="stroke-width:2.82955" />
        <path
           d="m 150.2378,247.2863 c -3.90994,0 -7.08989,3.16996 -7.08989,7.0899 0,3.91994 3.16995,7.08989 7.08989,7.08989 3.91994,0 7.0899,-3.16995 7.0899,-7.08989 0,-3.91994 -3.16996,-7.0899 -7.0899,-7.0899 z m 1.34998,10.46985 -0.46999,-1.19999 c -0.17,-0.43999 -0.33,-0.75998 -0.45999,-0.95998 -0.14,-0.2 -0.27,-0.33 -0.4,-0.39 -0.13,-0.06 -0.29999,-0.09 -0.49999,-0.09 h -0.2 v 2.63996 h -1.79997 v -6.7699 h 3.04995 c 0.49,0 0.89999,0.11 1.20999,0.33999 0.31999,0.23 0.53999,0.5 0.67998,0.82999 0.14,0.33 0.21,0.62999 0.21,0.92999 0,0.33999 -0.06,0.62999 -0.17,0.86998 -0.11999,0.24 -0.23999,0.41 -0.36999,0.51 -0.13,0.1 -0.27,0.20999 -0.42999,0.30999 0.18999,0.13 0.34999,0.28 0.46999,0.44999 0.12,0.17 0.28999,0.53 0.50999,1.05999 l 0.59999,1.46998 z"
           id="path13"
           style="stroke-width:2.82955" />
        <path
           d="m 149.92781,252.28623 h -0.38 v 1.62998 h 0.38999 c 0.44,0 0.73999,-0.05 0.89999,-0.16 0.16,-0.11 0.24,-0.31999 0.24,-0.62999 0,-0.31 -0.09,-0.52999 -0.27,-0.64999 -0.18,-0.12 -0.46999,-0.19 -0.87998,-0.19 z"
           id="path12"
           style="stroke-width:2.82955" />
        <path
           d="m 119.29826,300.05552 c 8.04988,0 14.58979,6.5499 14.58979,14.58978 0,8.03988 -6.54991,14.58978 -14.58979,14.58978 H 22.389712 c -8.04988,0 -14.5897822,-6.5499 -14.5897822,-14.58978 0,-8.03988 6.5499022,-14.58978 14.5897822,-14.58978 h 96.908548 m 0,-0.99998 H 22.389712 c -8.609872,0 -15.5897672,6.97989 -15.5897672,15.58976 v 0 c 0,8.60987 6.9798952,15.58977 15.5897672,15.58977 h 96.908548 c 8.60988,0 15.58977,-6.9799 15.58977,-15.58977 v 0 c 0,-8.60987 -6.97989,-15.58976 -15.58977,-15.58976 z"
           id="path24-3"
           style="stroke-width:2.82955" />
      </g>
      <g
         id="pips"
         style="stroke-width:2.8296">
        <g
           id="g37"
           style="stroke-width:2.8296">
          <path
             d="m 47.26,99.58 1.13,-1.95 c -2.75,-1.43 -5.84,-2.3 -9.12,-2.44 v 2.26 c 2.87,0.14 5.57,0.89 7.99,2.14 z"
             id="path28"
             style="stroke-width:2.8296" />
          <path
             d="m 54.85,106.43 1.95,-1.13 c -1.72,-2.68 -4,-4.96 -6.68,-6.68 l -1.13,1.95 c 2.34,1.52 4.33,3.51 5.85,5.85 z"
             id="path29"
             style="stroke-width:2.8296" />
          <path
             d="m 27.54,100.58 -1.13,-1.95 c -2.68,1.72 -4.96,4 -6.68,6.68 l 1.95,1.13 c 1.52,-2.34 3.51,-4.33 5.85,-5.85 z"
             id="path30"
             style="stroke-width:2.8296" />
          <path
             d="m 57.98,116.16 h 2.26 c -0.15,-3.28 -1.01,-6.37 -2.44,-9.12 l -1.95,1.13 c 1.24,2.42 1.99,5.13 2.14,8 z"
             id="path31"
             style="stroke-width:2.8296" />
          <path
             d="m 37.27,97.44 v -2.26 c -3.28,0.15 -6.37,1.01 -9.12,2.44 l 1.13,1.95 c 2.42,-1.24 5.13,-1.99 8,-2.14 z"
             id="path32"
             style="stroke-width:2.8296" />
          <path
             d="m 21.69,127.89 -1.95,1.13 c 1.72,2.68 4,4.96 6.68,6.68 l 1.13,-1.95 c -2.34,-1.52 -4.33,-3.51 -5.85,-5.85 z"
             id="path33"
             style="stroke-width:2.8296" />
          <path
             d="m 48.99,133.74 1.13,1.95 c 2.68,-1.72 4.96,-4 6.68,-6.68 l -1.95,-1.13 c -1.52,2.34 -3.51,4.33 -5.85,5.85 z"
             id="path34"
             style="stroke-width:2.8296" />
          <path
             d="m 57.98,118.16 c -0.14,2.87 -0.89,5.57 -2.14,8 l 1.95,1.13 c 1.43,-2.75 2.3,-5.84 2.44,-9.12 h -2.26 z"
             id="path35"
             style="stroke-width:2.8296" />
          <path
             d="m 18.55,118.16 h -2.26 c 0.15,3.28 1.01,6.37 2.44,9.12 l 1.95,-1.13 c -1.24,-2.42 -1.99,-5.13 -2.14,-8 z"
             id="path36"
             style="stroke-width:2.8296" />
          <path
             d="m 20.69,108.17 -1.95,-1.13 c -1.43,2.75 -2.3,5.84 -2.44,9.12 h 2.26 c 0.14,-2.87 0.89,-5.57 2.14,-8 z"
             id="path37"
             style="stroke-width:2.8296" />
        </g>
        <g
           id="g40"
           style="stroke-width:2.8296">
          <path
             d="m 78.2,18.07 c -0.37,0 -0.71,-0.17 -0.97,-0.47 -0.51,-0.6 -0.52,-1.54 -0.04,-2.16 l 6.97,-8.88 c 0.38,-0.48 1.05,-0.65 1.57,-0.39 0.5,0.25 0.79,0.82 0.79,1.45 v 4.77 l 4.64,-5.85 c 0.38,-0.48 1.01,-0.64 1.53,-0.38 0.5,0.25 0.83,0.81 0.83,1.44 v 8.82 c 0,0.86 -0.61,1.57 -1.36,1.57 -0.75,0 -1.36,-0.7 -1.36,-1.57 v -4.79 l -4.64,5.85 c -0.38,0.48 -1.01,0.64 -1.54,0.38 -0.5,-0.24 -0.83,-0.81 -0.83,-1.44 v -4.67 l -4.61,5.8 c -0.26,0.32 -0.62,0.51 -1,0.51 v 0 z"
             style="fill:#2cabe1;stroke-width:2.8296"
             id="path38" />
          <path
             d="m 78.2,18.07 c -0.75,0 -1.35,-0.7 -1.35,-1.57 v -4.93 l -2.26,2.84 c -0.5,0.63 -1.44,0.65 -1.97,0.04 -0.51,-0.6 -0.52,-1.53 -0.03,-2.15 L 77.2,6.54 c 0.26,-0.32 0.63,-0.5 1,-0.5 0.18,0 0.37,0.04 0.54,0.12 0.5,0.25 0.82,0.81 0.82,1.44 v 8.89 c 0,0.86 -0.61,1.57 -1.36,1.57 v 0 z"
             style="fill:#ea2228;stroke-width:2.8296"
             id="path39" />
          <path
             d="m 94.8,18.09 v 0 c -0.35,0 -0.68,-0.15 -0.94,-0.42 -0.76,-0.78 -0.14,-1.84 0.29,-2.3 l 1.95,-2.36 -1.26,-0.02 c -0.56,-0.01 -1.04,-0.4 -1.24,-1 -0.19,-0.56 -0.07,-1.21 0.29,-1.64 l 3.16,-3.83 c 0.23,-0.28 0.55,-0.48 1.13,-0.47 0.33,0 0.67,0.17 0.92,0.4 0.71,0.66 0.29,1.7 -0.07,2.2 l -1.04,1.26 1.26,0.02 c 0.56,0.01 1.04,0.4 1.24,1 0.19,0.56 0.07,1.21 -0.29,1.64 l -4.1,4.97 c -0.35,0.35 -0.65,0.55 -1.3,0.54 v 0 z"
             style="fill:#00a650;stroke-width:2.8296"
             id="path40" />
        </g>
      </g>
      <g
         id="text"
         style="stroke-width:2.8296">
        <g
           id="g48"
           transform="matrix(0.99998506,0,0,0.99998506,4.8208697e-5,2.2565536e-6)"
           style="display:inline;stroke-width:2.8296">
          <path
             d="m 82.06,210.82 c 0,0.34 -0.08,0.63 -0.23,0.88 -0.15,0.25 -0.37,0.44 -0.64,0.57 -0.27,0.13 -0.59,0.2 -0.94,0.2 -0.1,0 -0.22,0 -0.36,-0.02 -0.14,-0.01 -0.33,-0.05 -0.57,-0.12 -0.24,-0.07 -0.48,-0.16 -0.74,-0.29 v -1.33 c 0.24,0.17 0.48,0.31 0.71,0.42 0.23,0.11 0.48,0.17 0.75,0.17 0.25,0 0.4,-0.05 0.48,-0.14 0.07,-0.09 0.11,-0.18 0.11,-0.26 0,-0.15 -0.06,-0.27 -0.19,-0.37 -0.12,-0.1 -0.3,-0.2 -0.54,-0.31 -0.26,-0.12 -0.49,-0.26 -0.69,-0.41 -0.2,-0.15 -0.36,-0.33 -0.48,-0.55 -0.12,-0.22 -0.19,-0.48 -0.19,-0.79 0,-0.31 0.06,-0.56 0.19,-0.79 0.13,-0.24 0.32,-0.42 0.58,-0.56 0.26,-0.14 0.58,-0.21 0.95,-0.21 0.27,0 0.51,0.03 0.74,0.09 0.23,0.06 0.41,0.12 0.56,0.2 0.15,0.07 0.25,0.13 0.3,0.17 v 1.27 c -0.19,-0.16 -0.41,-0.3 -0.65,-0.43 -0.24,-0.12 -0.5,-0.19 -0.77,-0.19 -0.18,0 -0.31,0.04 -0.39,0.12 -0.08,0.08 -0.12,0.17 -0.12,0.29 0,0.11 0.04,0.2 0.12,0.28 0.08,0.08 0.22,0.17 0.43,0.29 0.37,0.2 0.66,0.37 0.88,0.53 0.22,0.16 0.39,0.34 0.52,0.54 0.12,0.2 0.19,0.46 0.19,0.76 z"
             id="path45-1"
             style="stroke-width:2.8296" />
          <path
             d="m 86.14,210.75 h -2.46 c 0.05,0.24 0.17,0.44 0.35,0.59 0.19,0.15 0.4,0.23 0.64,0.23 0.42,0 0.88,-0.13 1.38,-0.4 v 0.87 c -0.18,0.11 -0.4,0.2 -0.66,0.29 -0.26,0.09 -0.59,0.13 -0.98,0.13 -0.43,0 -0.8,-0.09 -1.1,-0.27 -0.3,-0.18 -0.53,-0.43 -0.68,-0.74 -0.15,-0.31 -0.23,-0.67 -0.23,-1.06 0,-0.39 0.08,-0.74 0.23,-1.05 0.15,-0.31 0.38,-0.55 0.68,-0.73 0.3,-0.18 0.67,-0.26 1.1,-0.26 0.28,0 0.56,0.07 0.82,0.21 0.26,0.14 0.48,0.37 0.65,0.68 0.17,0.32 0.26,0.72 0.26,1.22 v 0.28 z m -1.16,-0.69 c 0,-0.26 -0.06,-0.46 -0.17,-0.61 -0.11,-0.15 -0.27,-0.23 -0.48,-0.23 -0.21,0 -0.37,0.08 -0.5,0.23 -0.13,0.15 -0.19,0.36 -0.19,0.61 z"
             id="path46-4"
             style="stroke-width:2.8296" />
          <path
             d="m 90.21,212.4 h -1.24 v -2.14 c 0,-0.22 -0.03,-0.41 -0.09,-0.57 -0.06,-0.16 -0.2,-0.24 -0.41,-0.24 -0.1,0 -0.19,0.02 -0.27,0.06 -0.08,0.04 -0.15,0.1 -0.21,0.17 -0.06,0.07 -0.11,0.13 -0.15,0.2 -0.04,0.06 -0.08,0.13 -0.13,0.2 v 2.34 h -1.24 v -3.98 h 1.24 v 0.57 c 0.2,-0.24 0.39,-0.4 0.59,-0.5 0.2,-0.1 0.42,-0.14 0.66,-0.14 0.84,0 1.26,0.57 1.26,1.71 v 2.34 z"
             id="path47"
             style="stroke-width:2.8296" />
          <path
             d="m 94.37,212.4 h -1.24 v -0.36 c -0.13,0.12 -0.27,0.23 -0.41,0.31 -0.15,0.08 -0.35,0.12 -0.6,0.12 -0.25,0 -0.5,-0.07 -0.75,-0.21 -0.25,-0.14 -0.45,-0.37 -0.61,-0.67 -0.16,-0.3 -0.24,-0.69 -0.24,-1.15 0,-0.36 0.06,-0.7 0.18,-1.02 0.12,-0.32 0.31,-0.57 0.56,-0.77 0.25,-0.2 0.57,-0.3 0.93,-0.3 0.23,0 0.42,0.03 0.56,0.09 0.14,0.06 0.27,0.13 0.38,0.22 v -1.67 h 1.24 z m -1.24,-1.27 v -1.52 c -0.14,-0.09 -0.26,-0.16 -0.34,-0.2 -0.08,-0.04 -0.18,-0.06 -0.29,-0.06 -0.19,0 -0.36,0.09 -0.49,0.28 -0.13,0.19 -0.19,0.44 -0.19,0.77 0,0.35 0.07,0.61 0.21,0.77 0.14,0.16 0.29,0.24 0.48,0.24 0.15,0 0.27,-0.03 0.36,-0.08 0.09,-0.05 0.18,-0.12 0.26,-0.2 z"
             id="path48"
             style="display:inline;stroke-width:2.8296" />
        </g>
        <g
           id="g46"
           style="stroke-width:2.8296">
          <path
             d="m 79.65,294.9 h -1.54 l -0.38,-0.96 c -0.14,-0.35 -0.26,-0.61 -0.37,-0.77 -0.11,-0.16 -0.22,-0.27 -0.32,-0.31 -0.1,-0.05 -0.24,-0.07 -0.4,-0.07 h -0.16 v 2.11 h -1.44 v -5.41 h 2.44 c 0.39,0 0.72,0.09 0.97,0.27 0.25,0.18 0.43,0.4 0.54,0.66 0.11,0.26 0.17,0.51 0.17,0.74 0,0.27 -0.05,0.5 -0.14,0.69 -0.09,0.19 -0.19,0.33 -0.29,0.41 -0.1,0.08 -0.22,0.17 -0.35,0.25 0.15,0.1 0.28,0.22 0.38,0.36 0.1,0.14 0.24,0.42 0.41,0.85 z m -1.95,-3.71 c 0,-0.25 -0.07,-0.42 -0.22,-0.52 -0.14,-0.1 -0.38,-0.15 -0.7,-0.15 h -0.3 v 1.3 h 0.31 c 0.35,0 0.59,-0.04 0.72,-0.13 0.13,-0.09 0.19,-0.25 0.19,-0.5 z"
             id="path41"
             style="stroke-width:2.8296" />
          <path
             d="m 83.41,293.25 h -2.46 c 0.05,0.24 0.17,0.44 0.35,0.59 0.19,0.15 0.4,0.23 0.64,0.23 0.42,0 0.88,-0.13 1.38,-0.4 v 0.87 c -0.18,0.11 -0.4,0.2 -0.66,0.29 -0.26,0.09 -0.59,0.13 -0.98,0.13 -0.43,0 -0.8,-0.09 -1.1,-0.27 -0.3,-0.18 -0.53,-0.43 -0.68,-0.74 -0.15,-0.31 -0.23,-0.67 -0.23,-1.06 0,-0.39 0.08,-0.74 0.23,-1.05 0.15,-0.31 0.38,-0.55 0.68,-0.73 0.3,-0.18 0.67,-0.26 1.1,-0.26 0.28,0 0.56,0.07 0.82,0.21 0.26,0.14 0.48,0.37 0.65,0.68 0.17,0.32 0.26,0.72 0.26,1.22 v 0.28 z m -1.17,-0.7 c 0,-0.26 -0.06,-0.46 -0.17,-0.61 -0.11,-0.15 -0.27,-0.23 -0.48,-0.23 -0.21,0 -0.37,0.08 -0.5,0.23 -0.13,0.15 -0.19,0.36 -0.19,0.61 z"
             id="path42"
             style="stroke-width:2.8296" />
          <path
             d="m 86.49,294.66 c -0.13,0.07 -0.31,0.14 -0.53,0.2 -0.23,0.06 -0.44,0.1 -0.65,0.1 -0.89,0 -1.34,-0.5 -1.34,-1.48 v -1.59 h -0.56 v -0.25 l 1.66,-1.92 h 0.14 v 1.19 h 1.18 v 0.98 h -1.18 v 1.27 c 0,0.15 0,0.27 0.02,0.36 0.02,0.09 0.06,0.17 0.14,0.23 0.07,0.06 0.19,0.09 0.34,0.09 0.2,0 0.46,-0.09 0.78,-0.28 z"
             id="path43"
             style="stroke-width:2.8296" />
          <path
             d="M 90.44,294.9 H 89.2 v -0.57 c -0.17,0.21 -0.36,0.37 -0.55,0.48 -0.19,0.11 -0.42,0.16 -0.69,0.16 -0.53,0 -0.87,-0.18 -1.03,-0.53 -0.16,-0.35 -0.23,-0.75 -0.23,-1.19 v -2.34 h 1.24 v 2.15 c 0,0.22 0.03,0.41 0.1,0.57 0.06,0.16 0.2,0.24 0.41,0.24 0.18,0 0.33,-0.06 0.43,-0.18 0.11,-0.12 0.21,-0.27 0.32,-0.45 v -2.34 h 1.24 v 3.98 z"
             id="path44"
             style="stroke-width:2.8296" />
          <path
             d="m 94.03,291.13 -0.46,1.41 c -0.19,-0.2 -0.38,-0.3 -0.57,-0.3 -0.17,0 -0.32,0.07 -0.45,0.2 -0.13,0.13 -0.25,0.38 -0.37,0.74 v 1.71 h -1.24 v -3.98 h 1.24 v 0.96 c 0.08,-0.24 0.21,-0.47 0.41,-0.69 0.2,-0.23 0.43,-0.34 0.69,-0.34 0.14,0 0.26,0.02 0.37,0.07 0.11,0.05 0.23,0.12 0.37,0.21 z"
             id="path45"
             style="stroke-width:2.8296" />
          <path
             d="m 97.88,294.9 h -1.24 v -2.14 c 0,-0.22 -0.03,-0.41 -0.09,-0.57 -0.06,-0.16 -0.2,-0.24 -0.41,-0.24 -0.1,0 -0.19,0.02 -0.27,0.06 -0.08,0.04 -0.15,0.1 -0.21,0.17 -0.06,0.07 -0.11,0.13 -0.15,0.2 -0.04,0.06 -0.08,0.13 -0.13,0.2 v 2.34 h -1.24 v -3.98 h 1.24 v 0.57 c 0.2,-0.24 0.39,-0.4 0.59,-0.5 0.2,-0.1 0.42,-0.14 0.66,-0.14 0.84,0 1.26,0.57 1.26,1.71 v 2.34 z"
             id="path46"
             style="stroke-width:2.8296" />
        </g>
        <g
           id="g53"
           style="stroke-width:2.8296">
          <path
             d="m 18.41,339.66 h -1.44 v -5.41 h 1.44 z"
             id="path51"
             style="stroke-width:2.8296" />
          <path
             d="m 22.86,339.66 h -1.24 v -2.14 c 0,-0.22 -0.03,-0.41 -0.09,-0.57 -0.06,-0.16 -0.2,-0.24 -0.41,-0.24 -0.1,0 -0.19,0.02 -0.27,0.06 -0.08,0.04 -0.15,0.1 -0.21,0.17 -0.06,0.07 -0.11,0.13 -0.15,0.2 -0.04,0.06 -0.08,0.13 -0.13,0.2 v 2.34 h -1.24 v -3.98 h 1.24 v 0.57 c 0.19,-0.24 0.39,-0.4 0.59,-0.5 0.2,-0.09 0.41,-0.14 0.65,-0.14 0.84,0 1.26,0.57 1.26,1.71 v 2.34 z"
             id="path52"
             style="stroke-width:2.8296" />
          <path
             d="m 28.95,339.66 h -3.62 v -5.41 h 1.44 v 4.12 h 2.18 v 1.3 z"
             id="path53"
             style="stroke-width:2.8296" />
        </g>
        <g
           id="g56"
           style="stroke-width:2.8296">
          <path
             d="m 60.09,339.66 h -1.44 v -5.41 h 1.44 z"
             id="path54"
             style="stroke-width:2.8296" />
          <path
             d="M 64.54,339.66 H 63.3 v -2.14 c 0,-0.22 -0.03,-0.41 -0.09,-0.57 -0.06,-0.16 -0.2,-0.24 -0.41,-0.24 -0.1,0 -0.19,0.02 -0.27,0.06 -0.08,0.04 -0.15,0.1 -0.21,0.17 -0.06,0.07 -0.11,0.13 -0.15,0.2 -0.04,0.06 -0.08,0.13 -0.13,0.2 v 2.34 H 60.8 v -3.98 h 1.24 v 0.57 c 0.19,-0.24 0.39,-0.4 0.59,-0.5 0.2,-0.1 0.41,-0.14 0.65,-0.14 0.84,0 1.26,0.57 1.26,1.71 v 2.34 z"
             id="path55"
             style="stroke-width:2.8296" />
          <path
             d="m 71.63,339.66 h -1.54 l -0.38,-0.96 c -0.14,-0.35 -0.26,-0.61 -0.37,-0.77 -0.11,-0.16 -0.22,-0.27 -0.32,-0.31 -0.1,-0.05 -0.24,-0.07 -0.4,-0.07 h -0.16 v 2.11 h -1.44 v -5.41 h 2.44 c 0.39,0 0.72,0.09 0.97,0.27 0.25,0.18 0.43,0.4 0.54,0.66 0.11,0.26 0.17,0.51 0.17,0.74 0,0.27 -0.05,0.5 -0.14,0.69 -0.09,0.19 -0.19,0.33 -0.29,0.41 -0.1,0.08 -0.22,0.17 -0.35,0.25 0.15,0.1 0.28,0.22 0.38,0.36 0.1,0.14 0.24,0.42 0.41,0.85 z m -1.95,-3.7 c 0,-0.25 -0.07,-0.42 -0.22,-0.52 -0.14,-0.1 -0.38,-0.15 -0.7,-0.15 h -0.3 v 1.3 h 0.31 c 0.35,0 0.59,-0.04 0.72,-0.13 0.13,-0.09 0.19,-0.25 0.19,-0.5 z"
             id="path56"
             style="stroke-width:2.8296" />
        </g>
        <g
           id="g60"
           style="stroke-width:2.8296">
          <path
             d="m 104.24,336.95 c 0,0.5 -0.1,0.97 -0.31,1.39 -0.21,0.42 -0.51,0.76 -0.92,1.01 -0.41,0.25 -0.9,0.38 -1.48,0.38 -0.58,0 -1.09,-0.13 -1.5,-0.39 -0.41,-0.26 -0.71,-0.6 -0.91,-1.03 -0.2,-0.42 -0.3,-0.88 -0.3,-1.36 0,-0.48 0.1,-0.94 0.3,-1.37 0.2,-0.42 0.5,-0.76 0.91,-1.02 0.41,-0.26 0.91,-0.39 1.5,-0.39 0.44,0 0.83,0.07 1.18,0.22 0.35,0.15 0.63,0.35 0.85,0.6 0.22,0.25 0.39,0.55 0.51,0.89 0.11,0.34 0.17,0.69 0.17,1.06 z m -1.46,0 c 0,-0.2 -0.03,-0.39 -0.08,-0.56 -0.05,-0.17 -0.13,-0.31 -0.24,-0.44 -0.11,-0.12 -0.24,-0.22 -0.39,-0.29 -0.15,-0.07 -0.33,-0.1 -0.53,-0.1 -0.39,0 -0.69,0.13 -0.91,0.38 -0.22,0.25 -0.33,0.59 -0.33,1 0,0.41 0.11,0.75 0.33,1.01 0.22,0.26 0.52,0.38 0.91,0.38 0.26,0 0.49,-0.06 0.67,-0.18 0.19,-0.12 0.33,-0.28 0.42,-0.49 0.1,-0.21 0.14,-0.45 0.14,-0.72 z"
             id="path57"
             style="stroke-width:2.8296" />
          <path
             d="m 108.34,339.66 h -1.24 v -0.57 c -0.17,0.21 -0.36,0.37 -0.55,0.48 -0.19,0.11 -0.42,0.16 -0.69,0.16 -0.53,0 -0.87,-0.18 -1.03,-0.53 -0.16,-0.35 -0.23,-0.75 -0.23,-1.19 v -2.34 h 1.24 v 2.15 c 0,0.22 0.03,0.41 0.1,0.57 0.06,0.16 0.2,0.24 0.41,0.24 0.18,0 0.33,-0.06 0.43,-0.18 0.11,-0.12 0.21,-0.27 0.32,-0.45 v -2.34 h 1.24 v 3.98 z"
             id="path58"
             style="stroke-width:2.8296" />
          <path
             d="m 111.61,339.43 c -0.13,0.07 -0.31,0.14 -0.53,0.2 -0.23,0.06 -0.44,0.1 -0.65,0.1 -0.89,0 -1.34,-0.5 -1.34,-1.48 v -1.59 h -0.56 v -0.25 l 1.66,-1.92 h 0.14 v 1.19 h 1.18 v 0.98 h -1.18 v 1.27 c 0,0.15 0,0.27 0.02,0.36 0.02,0.09 0.06,0.17 0.14,0.23 0.08,0.06 0.19,0.09 0.34,0.09 0.2,0 0.46,-0.09 0.78,-0.28 z"
             id="path59"
             style="stroke-width:2.8296" />
          <path
             d="m 117.5,339.66 h -3.62 v -5.41 h 1.44 v 4.12 h 2.18 v 1.3 z"
             id="path60"
             style="stroke-width:2.8296" />
        </g>
        <g
           id="g64"
           style="stroke-width:2.8296">
          <path
             d="m 145.81,336.95 c 0,0.5 -0.1,0.97 -0.31,1.39 -0.21,0.42 -0.51,0.76 -0.92,1.01 -0.41,0.25 -0.9,0.38 -1.48,0.38 -0.58,0 -1.09,-0.13 -1.5,-0.39 -0.41,-0.26 -0.71,-0.6 -0.91,-1.03 -0.2,-0.42 -0.3,-0.88 -0.3,-1.36 0,-0.48 0.1,-0.94 0.3,-1.37 0.2,-0.42 0.5,-0.76 0.91,-1.02 0.41,-0.26 0.91,-0.39 1.5,-0.39 0.44,0 0.83,0.07 1.18,0.22 0.35,0.15 0.63,0.35 0.85,0.6 0.22,0.25 0.39,0.55 0.5,0.89 0.12,0.34 0.17,0.69 0.17,1.06 z m -1.46,0 c 0,-0.2 -0.03,-0.39 -0.08,-0.56 -0.05,-0.17 -0.13,-0.31 -0.24,-0.44 -0.11,-0.12 -0.24,-0.22 -0.39,-0.29 -0.15,-0.07 -0.33,-0.1 -0.53,-0.1 -0.38,0 -0.69,0.13 -0.91,0.38 -0.22,0.25 -0.33,0.59 -0.33,1 0,0.41 0.11,0.75 0.33,1.01 0.22,0.26 0.52,0.38 0.91,0.38 0.26,0 0.49,-0.06 0.67,-0.18 0.19,-0.12 0.33,-0.28 0.42,-0.49 0.1,-0.21 0.14,-0.45 0.14,-0.72 z"
             id="path61"
             style="stroke-width:2.8296" />
          <path
             d="m 149.91,339.66 h -1.24 v -0.57 c -0.17,0.21 -0.36,0.37 -0.55,0.48 -0.19,0.11 -0.42,0.16 -0.69,0.16 -0.53,0 -0.87,-0.18 -1.03,-0.53 -0.16,-0.35 -0.23,-0.75 -0.23,-1.19 v -2.34 h 1.24 v 2.15 c 0,0.22 0.03,0.41 0.09,0.57 0.06,0.16 0.2,0.24 0.41,0.24 0.18,0 0.33,-0.06 0.43,-0.18 0.1,-0.12 0.21,-0.27 0.32,-0.45 v -2.34 h 1.24 v 3.98 z"
             id="path62"
             style="stroke-width:2.8296" />
          <path
             d="m 153.18,339.43 c -0.13,0.07 -0.31,0.14 -0.53,0.2 -0.23,0.06 -0.44,0.1 -0.65,0.1 -0.89,0 -1.34,-0.5 -1.34,-1.48 v -1.59 h -0.56 v -0.25 l 1.66,-1.92 h 0.14 v 1.19 h 1.18 v 0.98 h -1.18 v 1.27 c 0,0.15 0,0.27 0.02,0.36 0.02,0.09 0.06,0.17 0.14,0.23 0.07,0.06 0.19,0.09 0.34,0.09 0.2,0 0.46,-0.09 0.78,-0.28 z"
             id="path63"
             style="stroke-width:2.8296" />
          <path
             d="m 160.07,339.66 h -1.54 l -0.38,-0.96 c -0.14,-0.35 -0.26,-0.61 -0.37,-0.77 -0.11,-0.16 -0.22,-0.27 -0.32,-0.31 -0.1,-0.05 -0.24,-0.07 -0.4,-0.07 h -0.16 v 2.11 h -1.44 v -5.41 h 2.44 c 0.39,0 0.72,0.09 0.97,0.27 0.25,0.18 0.43,0.4 0.54,0.66 0.11,0.26 0.17,0.51 0.17,0.74 0,0.27 -0.05,0.5 -0.14,0.69 -0.09,0.19 -0.19,0.33 -0.29,0.41 -0.1,0.09 -0.22,0.17 -0.35,0.25 0.15,0.1 0.28,0.22 0.38,0.36 0.1,0.14 0.24,0.42 0.41,0.85 z m -1.96,-3.7 c 0,-0.25 -0.07,-0.42 -0.22,-0.52 -0.14,-0.1 -0.38,-0.15 -0.7,-0.15 h -0.3 v 1.3 h 0.31 c 0.35,0 0.59,-0.04 0.72,-0.13 0.13,-0.09 0.19,-0.25 0.19,-0.5 z"
             id="path64"
             style="stroke-width:2.8296" />
        </g>
        <g
           id="g75"
           style="stroke-width:2.8296">
          <path
             d="m 58.49,355.18 c 0,0.47 -0.1,0.87 -0.29,1.21 -0.2,0.34 -0.47,0.6 -0.82,0.78 -0.35,0.18 -0.75,0.27 -1.2,0.27 -0.13,0 -0.28,0 -0.46,-0.03 -0.18,-0.02 -0.43,-0.08 -0.73,-0.16 -0.3,-0.09 -0.62,-0.22 -0.95,-0.4 v -1.83 c 0.31,0.23 0.61,0.43 0.91,0.58 0.3,0.15 0.62,0.23 0.96,0.23 0.31,0 0.52,-0.06 0.61,-0.19 0.09,-0.13 0.14,-0.25 0.14,-0.36 0,-0.2 -0.08,-0.37 -0.24,-0.51 -0.16,-0.14 -0.39,-0.28 -0.69,-0.43 -0.33,-0.17 -0.63,-0.36 -0.88,-0.56 -0.25,-0.2 -0.46,-0.46 -0.62,-0.76 -0.16,-0.3 -0.24,-0.66 -0.24,-1.08 0,-0.42 0.08,-0.76 0.24,-1.09 0.16,-0.32 0.41,-0.58 0.74,-0.78 0.33,-0.19 0.74,-0.29 1.22,-0.29 0.34,0 0.66,0.04 0.95,0.12 0.29,0.08 0.53,0.17 0.71,0.27 0.19,0.1 0.32,0.18 0.39,0.24 v 1.75 c -0.25,-0.22 -0.53,-0.41 -0.83,-0.58 -0.31,-0.17 -0.64,-0.26 -0.98,-0.26 -0.23,0 -0.4,0.05 -0.5,0.16 -0.1,0.11 -0.15,0.24 -0.15,0.4 0,0.15 0.05,0.27 0.15,0.38 0.1,0.11 0.29,0.24 0.55,0.39 0.47,0.27 0.85,0.51 1.13,0.72 0.28,0.21 0.5,0.46 0.66,0.74 0.16,0.28 0.24,0.63 0.24,1.05 z"
             id="path65"
             style="stroke-width:2.8296" />
          <path
             d="m 65.03,352.24 c 0,0.28 -0.04,0.54 -0.12,0.81 -0.08,0.26 -0.2,0.51 -0.38,0.74 -0.17,0.23 -0.41,0.41 -0.7,0.55 -0.29,0.14 -0.64,0.21 -1.04,0.21 h -1.21 v 2.79 h -1.84 v -7.44 h 3.05 c 0.4,0 0.75,0.07 1.04,0.21 0.29,0.14 0.53,0.33 0.7,0.56 0.17,0.23 0.3,0.48 0.38,0.75 0.08,0.27 0.12,0.54 0.12,0.82 z m -1.88,0.01 c 0,-0.35 -0.08,-0.6 -0.26,-0.73 -0.17,-0.13 -0.48,-0.2 -0.92,-0.2 h -0.39 v 1.79 h 0.4 c 0.3,0 0.54,-0.02 0.7,-0.07 0.17,-0.05 0.28,-0.13 0.36,-0.26 0.07,-0.12 0.11,-0.31 0.11,-0.54 z"
             id="path66"
             style="stroke-width:2.8296" />
          <path
             d="m 72.75,357.35 h -1.88 l -0.5,-1.51 h -2.65 l -0.51,1.51 h -1.88 l 2.7,-7.44 h 2.03 z m -2.8,-2.81 -0.89,-2.72 -0.9,2.72 h 1.8 z"
             id="path67"
             style="stroke-width:2.8296" />
          <path
             d="m 79.42,351.71 h -2.24 v 5.63 h -1.84 v -5.63 H 73.1 v -1.81 h 6.31 v 1.81 z"
             id="path68"
             style="stroke-width:2.8296" />
          <path
             d="M 82.34,357.35 H 80.5 v -7.44 h 1.84 z"
             id="path69"
             style="stroke-width:2.8296" />
          <path
             d="m 90.59,357.35 h -1.88 l -0.5,-1.51 h -2.65 l -0.51,1.51 h -1.88 l 2.7,-7.44 h 2.03 z m -2.81,-2.81 -0.89,-2.72 -0.9,2.72 h 1.8 z"
             id="path70"
             style="stroke-width:2.8296" />
          <path
             d="m 96.03,357.35 h -4.64 v -7.44 h 1.84 v 5.66 h 2.8 z"
             id="path71"
             style="stroke-width:2.8296" />
          <path
             d="m 98.95,357.35 h -1.84 v -7.44 h 1.84 z"
             id="path72"
             style="stroke-width:2.8296" />
          <path
             d="m 106.1,357.35 h -6.2 l 3.16,-5.67 h -2.9 v -1.78 h 5.94 l -3.15,5.66 h 3.15 v 1.78 z"
             id="path73"
             style="stroke-width:2.8296" />
          <path
             d="m 111.67,357.35 h -4.6 v -7.44 h 4.53 v 1.49 h -2.69 v 1.36 h 2.56 v 1.5 h -2.56 v 1.59 h 2.76 z"
             id="path74"
             style="stroke-width:2.8296" />
          <path
             d="m 118.82,357.35 h -1.98 l -0.48,-1.32 c -0.18,-0.48 -0.33,-0.84 -0.48,-1.06 -0.14,-0.22 -0.28,-0.37 -0.41,-0.43 -0.13,-0.06 -0.31,-0.09 -0.52,-0.09 h -0.21 v 2.91 h -1.84 v -7.44 h 3.13 c 0.5,0 0.92,0.12 1.24,0.38 0.32,0.25 0.56,0.55 0.7,0.91 0.14,0.36 0.21,0.7 0.21,1.02 0,0.38 -0.06,0.69 -0.18,0.95 -0.12,0.26 -0.24,0.45 -0.38,0.57 -0.13,0.12 -0.28,0.23 -0.44,0.34 0.2,0.14 0.36,0.3 0.49,0.5 0.13,0.19 0.3,0.58 0.52,1.16 l 0.62,1.62 z m -2.5,-5.1 c 0,-0.34 -0.09,-0.58 -0.28,-0.72 -0.18,-0.14 -0.49,-0.2 -0.9,-0.2 h -0.39 v 1.79 h 0.4 c 0.45,0 0.76,-0.06 0.92,-0.18 0.17,-0.12 0.25,-0.35 0.25,-0.69 z"
             id="path75"
             style="stroke-width:2.8296" />
        </g>
        <g
           id="g79"
           style="stroke-width:2.8296">
          <path
             d="m 33.53,139.38 h -2.18 v 5.12 h -1.79 v -5.12 h -2.18 v -1.65 h 6.16 v 1.65 z"
             id="path76"
             style="stroke-width:2.8296" />
          <path
             d="m 35.6,144.51 h -1.55 v -4.97 h 1.55 z m -0.12,-6.12 c 0,0.21 -0.06,0.38 -0.19,0.52 -0.13,0.14 -0.28,0.21 -0.46,0.21 -0.12,0 -0.23,-0.03 -0.33,-0.1 -0.1,-0.06 -0.18,-0.15 -0.23,-0.27 -0.06,-0.11 -0.09,-0.24 -0.09,-0.37 0,-0.2 0.06,-0.38 0.19,-0.52 0.13,-0.14 0.28,-0.22 0.46,-0.22 0.18,0 0.33,0.07 0.46,0.22 0.13,0.15 0.19,0.32 0.19,0.52 z"
             id="path77"
             style="stroke-width:2.8296" />
          <path
             d="m 44.11,144.51 h -1.55 v -2.65 c 0,-0.35 -0.05,-0.61 -0.15,-0.79 -0.1,-0.17 -0.26,-0.26 -0.48,-0.26 -0.22,0 -0.39,0.07 -0.53,0.22 -0.14,0.15 -0.27,0.33 -0.41,0.56 v 2.92 h -1.55 v -2.65 c 0,-0.34 -0.05,-0.59 -0.14,-0.78 -0.09,-0.18 -0.26,-0.27 -0.5,-0.27 -0.11,0 -0.22,0.03 -0.32,0.08 -0.1,0.05 -0.17,0.11 -0.23,0.18 -0.06,0.07 -0.13,0.16 -0.22,0.29 -0.09,0.13 -0.14,0.21 -0.16,0.24 v 2.92 h -1.55 v -4.97 h 1.55 v 0.71 c 0.23,-0.28 0.47,-0.48 0.71,-0.61 0.24,-0.13 0.52,-0.19 0.83,-0.19 0.15,0 0.29,0.02 0.43,0.05 0.13,0.03 0.27,0.08 0.4,0.16 0.13,0.08 0.25,0.18 0.35,0.31 0.1,0.13 0.19,0.28 0.25,0.45 0.25,-0.32 0.51,-0.56 0.78,-0.72 0.27,-0.16 0.58,-0.24 0.93,-0.24 0.35,0 0.64,0.08 0.88,0.24 0.24,0.16 0.41,0.39 0.52,0.69 0.11,0.3 0.17,0.67 0.17,1.1 v 3.03 z"
             id="path78"
             style="stroke-width:2.8296" />
          <path
             d="m 49.16,142.45 h -3.08 c 0.06,0.3 0.21,0.55 0.44,0.74 0.23,0.19 0.5,0.29 0.8,0.29 0.52,0 1.1,-0.17 1.73,-0.5 v 1.09 c -0.23,0.13 -0.5,0.25 -0.82,0.36 -0.32,0.11 -0.73,0.16 -1.23,0.16 -0.54,0 -1,-0.11 -1.38,-0.34 -0.38,-0.23 -0.66,-0.54 -0.85,-0.93 -0.19,-0.39 -0.28,-0.83 -0.28,-1.33 0,-0.5 0.09,-0.93 0.28,-1.31 0.19,-0.38 0.47,-0.69 0.85,-0.91 0.38,-0.22 0.84,-0.33 1.38,-0.33 0.35,0 0.7,0.09 1.03,0.26 0.33,0.17 0.6,0.46 0.82,0.85 0.21,0.4 0.32,0.91 0.32,1.53 v 0.35 z m -1.45,-0.87 c 0,-0.32 -0.07,-0.57 -0.21,-0.76 -0.14,-0.19 -0.34,-0.29 -0.6,-0.29 -0.26,0 -0.47,0.1 -0.62,0.29 -0.15,0.19 -0.24,0.45 -0.24,0.76 z"
             id="path79"
             style="stroke-width:2.8296" />
        </g>
        <g
           id="g84"
           style="stroke-width:2.8296">
          <path
             d="m 131.68,137.74 -2.58,6.86 h -1.04 l -1.55,-3.99 -1.59,3.99 h -1.05 l -2.53,-6.86 h 1.86 l 1.24,3.75 1.42,-3.75 h 1.29 l 1.39,3.75 1.29,-3.75 h 1.84 z"
             id="path80"
             style="stroke-width:2.8296" />
          <path
             d="m 133.52,144.51 h -1.55 v -4.97 h 1.55 z m -0.12,-6.12 c 0,0.21 -0.06,0.38 -0.19,0.52 -0.13,0.14 -0.28,0.21 -0.46,0.21 -0.12,0 -0.23,-0.03 -0.33,-0.1 -0.1,-0.06 -0.18,-0.15 -0.23,-0.27 -0.06,-0.11 -0.09,-0.24 -0.09,-0.37 0,-0.2 0.06,-0.38 0.19,-0.52 0.13,-0.14 0.28,-0.22 0.46,-0.22 0.18,0 0.33,0.07 0.46,0.22 0.13,0.15 0.19,0.32 0.19,0.52 z"
             id="path81"
             style="stroke-width:2.8296" />
          <path
             d="m 138.87,144.51 h -1.55 v -0.45 c -0.16,0.16 -0.34,0.28 -0.52,0.39 -0.18,0.11 -0.43,0.15 -0.75,0.15 -0.32,0 -0.63,-0.09 -0.94,-0.27 -0.31,-0.18 -0.56,-0.46 -0.76,-0.84 -0.2,-0.38 -0.3,-0.86 -0.3,-1.43 0,-0.45 0.07,-0.88 0.22,-1.27 0.15,-0.4 0.38,-0.72 0.7,-0.96 0.32,-0.25 0.71,-0.37 1.17,-0.37 0.29,0 0.52,0.04 0.7,0.11 0.18,0.07 0.33,0.16 0.47,0.27 v -2.09 h 1.55 v 6.77 z m -1.56,-1.59 v -1.9 c -0.18,-0.11 -0.32,-0.2 -0.42,-0.24 -0.1,-0.04 -0.22,-0.07 -0.36,-0.07 -0.24,0 -0.45,0.12 -0.61,0.35 -0.16,0.23 -0.24,0.55 -0.24,0.96 0,0.44 0.08,0.76 0.26,0.96 0.17,0.2 0.37,0.3 0.59,0.3 0.19,0 0.34,-0.03 0.45,-0.1 0.12,-0.07 0.23,-0.15 0.33,-0.25 z"
             id="path82"
             style="stroke-width:2.8296" />
          <path
             d="m 142.94,144.22 c -0.16,0.09 -0.38,0.17 -0.66,0.25 -0.28,0.08 -0.55,0.12 -0.81,0.12 -1.11,0 -1.67,-0.62 -1.67,-1.86 v -1.98 h -0.7 v -0.31 l 2.08,-2.4 h 0.18 v 1.49 h 1.48 v 1.22 h -1.48 v 1.59 c 0,0.19 0,0.34 0.03,0.45 0.02,0.11 0.08,0.21 0.17,0.29 0.09,0.08 0.23,0.11 0.42,0.11 0.25,0 0.57,-0.12 0.97,-0.35 v 1.37 z"
             id="path83"
             style="stroke-width:2.8296" />
          <path
             d="m 147.94,144.51 h -1.55 v -2.58 c 0,0 0,-0.04 0,-0.06 0,-0.02 0,-0.06 0,-0.11 0,-0.24 -0.04,-0.46 -0.13,-0.65 -0.09,-0.19 -0.26,-0.3 -0.51,-0.3 -0.2,0 -0.37,0.07 -0.52,0.22 -0.15,0.15 -0.29,0.33 -0.43,0.56 v 2.92 h -1.55 v -6.77 h 1.55 v 2.51 c 0.25,-0.31 0.51,-0.52 0.76,-0.63 0.25,-0.11 0.51,-0.17 0.79,-0.17 1.05,0 1.57,0.67 1.57,2.01 v 3.05 z"
             id="path84"
             style="stroke-width:2.8296" />
        </g>
        <g
           id="g92"
           style="stroke-width:2.8296">
          <path
             d="M 72.66,99.21 H 70.5 V 94.5 l -1.94,2.72 H 68.39 L 66.44,94.5 v 4.71 h -2.09 v -8.12 h 1.95 l 2.2,3.05 2.21,-3.05 h 1.95 z"
             id="path85"
             style="stroke-width:2.8296" />
          <path
             d="m 75.7,99.21 h -1.86 v -5.96 h 1.86 z m -0.15,-7.34 c 0,0.25 -0.08,0.46 -0.23,0.63 -0.15,0.17 -0.34,0.26 -0.55,0.26 -0.14,0 -0.28,-0.04 -0.39,-0.12 C 74.26,92.56 74.17,92.46 74.1,92.32 74.03,92.18 74,92.04 74,91.87 c 0,-0.24 0.08,-0.45 0.23,-0.63 0.15,-0.18 0.34,-0.26 0.55,-0.26 0.21,0 0.4,0.09 0.55,0.26 0.15,0.17 0.23,0.38 0.23,0.63 z"
             id="path86"
             style="stroke-width:2.8296" />
          <path
             d="m 82.11,99.21 h -1.86 v -0.54 c -0.2,0.19 -0.4,0.34 -0.62,0.46 -0.22,0.12 -0.52,0.18 -0.9,0.18 -0.38,0 -0.76,-0.11 -1.12,-0.32 -0.37,-0.21 -0.67,-0.55 -0.91,-1 -0.24,-0.45 -0.36,-1.03 -0.36,-1.72 0,-0.54 0.09,-1.05 0.27,-1.53 0.18,-0.48 0.46,-0.86 0.84,-1.16 0.38,-0.3 0.85,-0.45 1.4,-0.45 0.34,0 0.62,0.04 0.84,0.13 0.21,0.09 0.4,0.2 0.57,0.33 v -2.51 h 1.86 v 8.12 z m -1.86,-1.89 v -2.28 c -0.22,-0.14 -0.39,-0.23 -0.51,-0.29 -0.12,-0.06 -0.27,-0.09 -0.43,-0.09 -0.29,0 -0.54,0.14 -0.73,0.42 -0.19,0.28 -0.29,0.66 -0.29,1.15 0,0.53 0.1,0.91 0.31,1.15 0.21,0.24 0.44,0.36 0.71,0.36 0.22,0 0.4,-0.04 0.54,-0.12 0.14,-0.08 0.27,-0.18 0.4,-0.3 z"
             id="path87"
             style="stroke-width:2.8296" />
          <path
             d="m 87.7,90.98 -3.89,8.34 h -1.38 l 3.88,-8.34 z"
             id="path88"
             style="stroke-width:2.8296" />
          <path
             d="m 93.32,96.85 c 0,0.51 -0.11,0.95 -0.34,1.32 -0.23,0.37 -0.55,0.66 -0.96,0.85 -0.41,0.19 -0.88,0.3 -1.41,0.3 -0.15,0 -0.33,-0.01 -0.54,-0.03 -0.21,-0.02 -0.5,-0.08 -0.86,-0.18 -0.36,-0.1 -0.73,-0.24 -1.11,-0.43 v -1.99 c 0.36,0.25 0.72,0.46 1.07,0.63 0.35,0.17 0.72,0.25 1.12,0.25 0.37,0 0.61,-0.07 0.71,-0.21 0.11,-0.14 0.16,-0.27 0.16,-0.39 0,-0.22 -0.09,-0.4 -0.28,-0.55 -0.19,-0.15 -0.46,-0.31 -0.81,-0.47 -0.39,-0.19 -0.74,-0.39 -1.03,-0.61 -0.3,-0.22 -0.54,-0.5 -0.72,-0.83 -0.18,-0.33 -0.28,-0.72 -0.28,-1.18 0,-0.46 0.09,-0.83 0.28,-1.19 0.19,-0.35 0.48,-0.64 0.87,-0.85 0.39,-0.21 0.86,-0.32 1.42,-0.32 0.4,0 0.77,0.04 1.11,0.13 0.34,0.09 0.62,0.19 0.84,0.3 0.22,0.11 0.37,0.2 0.45,0.26 v 1.9 c -0.29,-0.24 -0.62,-0.45 -0.98,-0.64 -0.36,-0.19 -0.74,-0.28 -1.15,-0.28 -0.27,0 -0.46,0.06 -0.58,0.18 -0.12,0.12 -0.18,0.26 -0.18,0.43 0,0.16 0.06,0.3 0.18,0.42 0.12,0.12 0.33,0.26 0.64,0.43 0.55,0.29 0.99,0.56 1.32,0.79 0.33,0.23 0.59,0.5 0.78,0.81 0.19,0.31 0.28,0.69 0.28,1.15 z"
             id="path89"
             style="stroke-width:2.8296" />
          <path
             d="m 96.01,99.21 h -1.86 v -5.96 h 1.86 z m -0.14,-7.34 c 0,0.25 -0.08,0.46 -0.23,0.63 -0.15,0.17 -0.34,0.26 -0.55,0.26 -0.14,0 -0.28,-0.04 -0.39,-0.12 -0.12,-0.08 -0.21,-0.18 -0.28,-0.32 -0.07,-0.13 -0.1,-0.28 -0.1,-0.45 0,-0.24 0.08,-0.45 0.23,-0.63 0.15,-0.18 0.34,-0.26 0.55,-0.26 0.21,0 0.4,0.09 0.55,0.26 0.16,0.18 0.23,0.38 0.23,0.63 z"
             id="path90"
             style="stroke-width:2.8296" />
          <path
             d="m 102.42,99.21 h -1.86 v -0.54 c -0.2,0.19 -0.4,0.34 -0.62,0.46 -0.22,0.12 -0.52,0.18 -0.9,0.18 -0.38,0 -0.76,-0.11 -1.12,-0.32 -0.37,-0.21 -0.67,-0.55 -0.91,-1 -0.24,-0.45 -0.36,-1.03 -0.36,-1.72 0,-0.54 0.09,-1.05 0.27,-1.53 0.18,-0.48 0.46,-0.86 0.84,-1.16 0.38,-0.3 0.85,-0.45 1.4,-0.45 0.34,0 0.62,0.04 0.84,0.13 0.21,0.09 0.4,0.2 0.57,0.33 v -2.51 h 1.86 v 8.12 z m -1.86,-1.89 v -2.28 c -0.22,-0.14 -0.39,-0.23 -0.51,-0.29 -0.12,-0.06 -0.27,-0.09 -0.43,-0.09 -0.29,0 -0.54,0.14 -0.73,0.42 -0.19,0.28 -0.29,0.66 -0.29,1.15 0,0.53 0.1,0.91 0.31,1.15 0.21,0.24 0.44,0.36 0.71,0.36 0.22,0 0.4,-0.04 0.54,-0.12 0.14,-0.08 0.27,-0.18 0.4,-0.3 z"
             id="path91"
             style="stroke-width:2.8296" />
          <path
             d="m 108.56,96.74 h -3.7 c 0.07,0.36 0.25,0.66 0.53,0.89 0.28,0.23 0.6,0.35 0.96,0.35 0.63,0 1.32,-0.2 2.07,-0.6 v 1.31 c -0.27,0.16 -0.6,0.31 -0.99,0.44 -0.39,0.13 -0.88,0.2 -1.48,0.2 -0.65,0 -1.2,-0.14 -1.65,-0.41 -0.45,-0.27 -0.79,-0.64 -1.02,-1.11 -0.23,-0.47 -0.34,-1 -0.34,-1.59 0,-0.59 0.11,-1.11 0.34,-1.57 0.22,-0.46 0.56,-0.83 1.02,-1.09 0.45,-0.26 1,-0.4 1.65,-0.4 0.43,0 0.84,0.1 1.24,0.31 0.4,0.21 0.72,0.55 0.98,1.03 0.26,0.48 0.38,1.09 0.38,1.84 v 0.42 z m -1.74,-1.04 c 0,-0.38 -0.08,-0.69 -0.25,-0.92 -0.17,-0.23 -0.41,-0.34 -0.72,-0.34 -0.31,0 -0.56,0.12 -0.75,0.35 -0.19,0.23 -0.29,0.54 -0.29,0.91 z"
             id="path92"
             style="stroke-width:2.8296" />
        </g>
        <g
           id="g104"
           style="stroke-width:2.8296">
          <path
             d="m 14.37,74.05 h -1.29 v -2.74 l -1.16,1.59 h -0.1 l -1.16,-1.59 v 2.74 H 9.41 v -4.74 h 1.17 l 1.31,1.78 1.32,-1.78 h 1.17 v 4.74 z"
             id="path93"
             style="stroke-width:2.8296" />
          <path
             d="m 16.18,74.05 h -1.11 v -3.48 h 1.11 z m -0.09,-4.28 c 0,0.14 -0.05,0.27 -0.14,0.37 -0.09,0.1 -0.2,0.15 -0.33,0.15 -0.09,0 -0.16,-0.02 -0.24,-0.07 -0.08,-0.05 -0.13,-0.11 -0.17,-0.19 -0.04,-0.08 -0.06,-0.17 -0.06,-0.26 0,-0.14 0.04,-0.26 0.14,-0.37 0.1,-0.11 0.2,-0.15 0.33,-0.15 0.13,0 0.24,0.05 0.33,0.15 0.09,0.1 0.14,0.22 0.14,0.37 z"
             id="path94"
             style="stroke-width:2.8296" />
          <path
             d="m 17.86,74.05 h -1.11 v -4.74 h 1.11 z"
             id="path95"
             style="stroke-width:2.8296" />
          <path
             d="m 19.53,74.05 h -1.11 v -4.74 h 1.11 z"
             id="path96"
             style="stroke-width:2.8296" />
          <path
             d="M 21.21,74.05 H 20.1 v -3.48 h 1.11 z m -0.09,-4.28 c 0,0.14 -0.05,0.27 -0.14,0.37 -0.09,0.1 -0.2,0.15 -0.33,0.15 -0.09,0 -0.16,-0.02 -0.24,-0.07 -0.08,-0.05 -0.13,-0.11 -0.17,-0.19 -0.04,-0.08 -0.06,-0.17 -0.06,-0.26 0,-0.14 0.04,-0.26 0.14,-0.37 0.1,-0.11 0.2,-0.15 0.33,-0.15 0.13,0 0.24,0.05 0.33,0.15 0.09,0.1 0.14,0.22 0.14,0.37 z"
             id="path97"
             style="stroke-width:2.8296" />
          <path
             d="m 24.17,73.04 c 0,0.32 -0.1,0.58 -0.31,0.78 -0.21,0.2 -0.52,0.3 -0.94,0.3 -0.23,0 -0.44,-0.02 -0.62,-0.07 -0.18,-0.05 -0.38,-0.11 -0.59,-0.2 v -0.88 c 0.19,0.12 0.35,0.21 0.49,0.27 0.14,0.06 0.29,0.09 0.45,0.09 0.28,0 0.42,-0.08 0.42,-0.25 0,-0.06 -0.02,-0.11 -0.06,-0.15 -0.04,-0.04 -0.11,-0.09 -0.21,-0.15 -0.1,-0.06 -0.23,-0.12 -0.4,-0.2 -0.21,-0.1 -0.38,-0.23 -0.52,-0.4 -0.14,-0.17 -0.22,-0.38 -0.22,-0.62 0,-0.17 0.05,-0.34 0.14,-0.5 0.09,-0.16 0.24,-0.29 0.43,-0.39 0.19,-0.1 0.43,-0.15 0.7,-0.15 0.07,0 0.15,0 0.25,0.02 0.1,0 0.23,0.04 0.38,0.08 0.15,0.04 0.3,0.1 0.44,0.18 v 0.85 C 23.93,71.61 23.88,71.57 23.84,71.54 23.8,71.51 23.74,71.48 23.66,71.44 23.58,71.4 23.5,71.37 23.4,71.34 23.3,71.31 23.2,71.3 23.09,71.3 c -0.13,0 -0.21,0.03 -0.26,0.08 -0.05,0.05 -0.07,0.11 -0.07,0.16 0,0.05 0.02,0.11 0.07,0.16 0.05,0.05 0.16,0.11 0.33,0.18 0.25,0.1 0.44,0.21 0.59,0.32 0.15,0.11 0.25,0.23 0.32,0.36 0.07,0.13 0.09,0.29 0.09,0.47 z"
             id="path98"
             style="stroke-width:2.8296" />
          <path
             d="m 27.73,72.61 h -2.21 c 0.04,0.21 0.15,0.39 0.32,0.52 0.17,0.13 0.36,0.2 0.57,0.2 0.37,0 0.79,-0.12 1.24,-0.35 v 0.76 c -0.16,0.09 -0.36,0.18 -0.59,0.25 -0.23,0.08 -0.52,0.11 -0.88,0.11 -0.39,0 -0.71,-0.08 -0.98,-0.24 -0.27,-0.16 -0.47,-0.38 -0.61,-0.65 -0.14,-0.27 -0.2,-0.58 -0.2,-0.93 0,-0.35 0.07,-0.65 0.2,-0.92 0.13,-0.27 0.34,-0.48 0.61,-0.64 0.27,-0.15 0.6,-0.23 0.98,-0.23 0.25,0 0.5,0.06 0.74,0.18 0.24,0.12 0.43,0.32 0.58,0.6 0.15,0.28 0.23,0.63 0.23,1.07 v 0.25 z M 26.69,72 c 0,-0.22 -0.05,-0.4 -0.15,-0.54 -0.1,-0.13 -0.24,-0.2 -0.43,-0.2 -0.19,0 -0.33,0.07 -0.45,0.2 -0.11,0.14 -0.17,0.31 -0.17,0.53 h 1.2 z"
             id="path99"
             style="stroke-width:2.8296" />
          <path
             d="m 30.7,73.89 c -0.09,0.04 -0.19,0.07 -0.29,0.11 -0.1,0.03 -0.22,0.06 -0.35,0.08 -0.13,0.02 -0.27,0.03 -0.42,0.03 -0.34,0 -0.63,-0.06 -0.87,-0.19 -0.24,-0.13 -0.42,-0.29 -0.55,-0.49 -0.13,-0.19 -0.22,-0.39 -0.27,-0.6 -0.05,-0.21 -0.07,-0.38 -0.07,-0.54 0,-0.16 0.02,-0.33 0.08,-0.54 0.06,-0.21 0.14,-0.4 0.26,-0.59 0.12,-0.19 0.31,-0.35 0.54,-0.48 0.24,-0.13 0.53,-0.19 0.88,-0.19 0.23,0 0.42,0.02 0.57,0.05 0.15,0.03 0.29,0.09 0.44,0.15 v 0.97 c -0.36,-0.13 -0.64,-0.19 -0.85,-0.19 -0.21,0 -0.37,0.07 -0.52,0.2 -0.15,0.13 -0.23,0.34 -0.23,0.62 0,0.18 0.04,0.34 0.11,0.47 0.08,0.13 0.17,0.22 0.29,0.28 0.12,0.06 0.23,0.09 0.35,0.09 0.11,0 0.24,-0.02 0.38,-0.05 0.14,-0.04 0.31,-0.09 0.52,-0.16 z"
             id="path100"
             style="stroke-width:2.8296" />
          <path
             d="m 34.45,72.31 c 0,0.35 -0.07,0.66 -0.2,0.93 -0.13,0.27 -0.34,0.49 -0.61,0.64 -0.27,0.16 -0.6,0.24 -0.99,0.24 -0.39,0 -0.72,-0.08 -0.99,-0.24 -0.27,-0.16 -0.47,-0.37 -0.61,-0.64 -0.14,-0.27 -0.2,-0.58 -0.2,-0.93 0,-0.26 0.04,-0.5 0.11,-0.71 0.07,-0.21 0.19,-0.4 0.34,-0.57 0.15,-0.17 0.34,-0.29 0.56,-0.38 0.22,-0.09 0.48,-0.13 0.77,-0.13 0.29,0 0.56,0.04 0.78,0.13 0.23,0.09 0.41,0.22 0.56,0.38 0.15,0.16 0.26,0.35 0.34,0.57 0.08,0.22 0.11,0.46 0.11,0.72 z m -1.17,0 c 0,-0.28 -0.05,-0.49 -0.16,-0.65 -0.11,-0.16 -0.26,-0.23 -0.47,-0.23 -0.21,0 -0.36,0.08 -0.47,0.23 -0.11,0.16 -0.16,0.37 -0.16,0.65 0,0.28 0.05,0.49 0.16,0.65 0.11,0.16 0.26,0.24 0.46,0.24 0.2,0 0.36,-0.08 0.47,-0.24 0.11,-0.16 0.16,-0.38 0.16,-0.65 z"
             id="path101"
             style="stroke-width:2.8296" />
          <path
             d="M 38.11,74.05 H 37 v -1.88 c 0,-0.19 -0.03,-0.36 -0.08,-0.5 -0.06,-0.14 -0.18,-0.21 -0.37,-0.21 -0.09,0 -0.17,0.02 -0.24,0.06 -0.07,0.04 -0.13,0.09 -0.18,0.15 -0.05,0.06 -0.1,0.12 -0.14,0.17 -0.04,0.05 -0.08,0.11 -0.11,0.17 v 2.04 h -1.11 v -3.48 h 1.11 v 0.5 c 0.17,-0.21 0.35,-0.35 0.52,-0.44 0.18,-0.08 0.37,-0.12 0.59,-0.12 0.75,0 1.13,0.5 1.13,1.5 v 2.04 z"
             id="path102"
             style="stroke-width:2.8296" />
          <path
             d="m 41.84,74.05 h -1.11 v -0.31 c -0.12,0.11 -0.24,0.2 -0.37,0.27 -0.13,0.07 -0.31,0.11 -0.54,0.11 -0.23,0 -0.45,-0.06 -0.67,-0.19 -0.22,-0.13 -0.4,-0.32 -0.54,-0.59 -0.14,-0.27 -0.21,-0.6 -0.21,-1 0,-0.32 0.05,-0.61 0.16,-0.89 0.11,-0.28 0.27,-0.5 0.5,-0.67 0.23,-0.17 0.51,-0.26 0.84,-0.26 0.21,0 0.37,0.02 0.5,0.08 0.13,0.05 0.24,0.11 0.34,0.19 v -1.46 h 1.11 v 4.74 z m -1.11,-1.11 v -1.33 c -0.13,-0.08 -0.23,-0.14 -0.3,-0.17 -0.07,-0.03 -0.16,-0.05 -0.26,-0.05 -0.17,0 -0.32,0.08 -0.44,0.25 -0.12,0.17 -0.17,0.39 -0.17,0.67 0,0.31 0.06,0.53 0.18,0.67 0.12,0.14 0.26,0.21 0.43,0.21 0.13,0 0.24,-0.02 0.32,-0.07 0.08,-0.05 0.16,-0.1 0.24,-0.18 z"
             id="path103"
             style="stroke-width:2.8296" />
          <path
             d="m 44.74,73.04 c 0,0.32 -0.1,0.58 -0.31,0.78 -0.21,0.2 -0.52,0.3 -0.94,0.3 -0.23,0 -0.44,-0.02 -0.62,-0.07 -0.18,-0.05 -0.38,-0.11 -0.59,-0.2 v -0.88 c 0.19,0.12 0.35,0.21 0.49,0.27 0.14,0.06 0.29,0.09 0.45,0.09 0.28,0 0.42,-0.08 0.42,-0.25 0,-0.06 -0.02,-0.11 -0.06,-0.15 -0.04,-0.04 -0.11,-0.09 -0.21,-0.15 -0.1,-0.06 -0.23,-0.12 -0.4,-0.2 -0.21,-0.1 -0.38,-0.23 -0.52,-0.4 -0.14,-0.17 -0.22,-0.38 -0.22,-0.62 0,-0.17 0.05,-0.34 0.14,-0.5 0.09,-0.16 0.24,-0.29 0.43,-0.39 0.19,-0.1 0.43,-0.15 0.7,-0.15 0.07,0 0.15,0 0.25,0.02 0.1,0 0.23,0.04 0.38,0.08 0.15,0.04 0.3,0.1 0.44,0.18 v 0.85 c -0.07,-0.04 -0.12,-0.08 -0.16,-0.11 -0.04,-0.03 -0.1,-0.06 -0.18,-0.1 -0.08,-0.04 -0.16,-0.07 -0.26,-0.1 -0.1,-0.03 -0.2,-0.04 -0.31,-0.04 -0.13,0 -0.21,0.03 -0.26,0.08 -0.05,0.05 -0.07,0.11 -0.07,0.16 0,0.05 0.02,0.11 0.07,0.16 0.05,0.05 0.16,0.11 0.33,0.18 0.25,0.1 0.44,0.21 0.59,0.32 0.15,0.11 0.25,0.23 0.32,0.36 0.07,0.13 0.09,0.29 0.09,0.47 z"
             id="path104"
             style="stroke-width:2.8296" />
        </g>
        <g
           id="g111"
           style="stroke-width:2.8296">
          <path
             d="m 16.93,38.23 c 0,0.33 -0.08,0.61 -0.23,0.85 -0.15,0.24 -0.37,0.42 -0.64,0.55 -0.27,0.13 -0.59,0.19 -0.94,0.19 -0.1,0 -0.22,0 -0.36,-0.02 -0.14,-0.02 -0.33,-0.05 -0.57,-0.12 -0.24,-0.06 -0.48,-0.16 -0.74,-0.28 v -1.29 c 0.24,0.16 0.48,0.3 0.71,0.41 0.23,0.11 0.48,0.16 0.75,0.16 0.25,0 0.4,-0.04 0.48,-0.13 0.08,-0.09 0.11,-0.17 0.11,-0.25 0,-0.14 -0.06,-0.26 -0.19,-0.36 -0.12,-0.1 -0.3,-0.2 -0.54,-0.3 -0.26,-0.12 -0.49,-0.25 -0.69,-0.4 -0.2,-0.14 -0.36,-0.32 -0.48,-0.54 -0.12,-0.21 -0.19,-0.47 -0.19,-0.76 0,-0.29 0.06,-0.54 0.19,-0.77 0.13,-0.23 0.32,-0.41 0.58,-0.55 0.26,-0.14 0.58,-0.2 0.95,-0.2 0.27,0 0.51,0.03 0.74,0.09 0.23,0.06 0.41,0.12 0.56,0.19 0.15,0.07 0.25,0.13 0.3,0.17 v 1.23 c -0.19,-0.15 -0.41,-0.29 -0.65,-0.41 -0.24,-0.12 -0.5,-0.18 -0.77,-0.18 -0.18,0 -0.31,0.04 -0.39,0.11 -0.08,0.08 -0.12,0.17 -0.12,0.28 0,0.1 0.04,0.19 0.12,0.27 0.08,0.08 0.22,0.17 0.43,0.28 0.37,0.19 0.66,0.36 0.88,0.51 0.22,0.15 0.39,0.33 0.52,0.52 0.13,0.19 0.19,0.44 0.19,0.74 z"
             id="path105"
             style="stroke-width:2.8296" />
          <path
             d="m 21.05,39.56 c -0.18,0.08 -0.35,0.14 -0.5,0.19 -0.15,0.05 -0.34,0.07 -0.55,0.07 -0.2,0 -0.35,-0.04 -0.43,-0.12 -0.08,-0.08 -0.14,-0.18 -0.17,-0.29 -0.13,0.12 -0.28,0.22 -0.44,0.29 -0.16,0.08 -0.38,0.12 -0.64,0.12 -0.26,0 -0.46,-0.05 -0.62,-0.15 -0.16,-0.1 -0.27,-0.22 -0.33,-0.37 -0.06,-0.15 -0.09,-0.3 -0.09,-0.46 0,-0.24 0.05,-0.43 0.16,-0.59 0.11,-0.16 0.25,-0.28 0.44,-0.38 0.18,-0.1 0.43,-0.2 0.73,-0.31 0.17,-0.06 0.3,-0.11 0.39,-0.14 0.09,-0.03 0.15,-0.06 0.2,-0.07 0.04,-0.02 0.09,-0.04 0.14,-0.07 0,-0.19 -0.03,-0.33 -0.1,-0.44 -0.07,-0.11 -0.22,-0.16 -0.45,-0.16 -0.27,0 -0.52,0.07 -0.75,0.2 -0.23,0.13 -0.44,0.3 -0.64,0.51 v -1.05 c 0.15,-0.12 0.32,-0.22 0.5,-0.3 0.18,-0.08 0.37,-0.13 0.56,-0.17 0.19,-0.04 0.39,-0.06 0.59,-0.06 0.51,0 0.89,0.11 1.14,0.32 0.26,0.22 0.38,0.51 0.38,0.89 v 1.49 c 0,0.14 0.01,0.25 0.04,0.32 0.02,0.07 0.07,0.1 0.13,0.1 0.08,0 0.18,-0.04 0.32,-0.11 v 0.72 z m -1.72,-0.74 v -0.91 c -0.29,0.13 -0.51,0.25 -0.64,0.35 -0.14,0.1 -0.2,0.25 -0.2,0.43 0,0.13 0.03,0.23 0.1,0.3 0.07,0.07 0.15,0.1 0.24,0.1 0.08,0 0.17,-0.03 0.25,-0.08 0.08,-0.05 0.17,-0.11 0.26,-0.19 z"
             id="path106"
             style="stroke-width:2.8296" />
          <path
             d="M 27.4,39.76 H 26.16 V 37.7 c 0,-0.27 -0.04,-0.48 -0.12,-0.61 -0.08,-0.14 -0.21,-0.2 -0.39,-0.2 -0.18,0 -0.31,0.06 -0.42,0.17 -0.11,0.11 -0.22,0.26 -0.33,0.43 v 2.27 H 23.66 V 37.7 c 0,-0.26 -0.04,-0.46 -0.11,-0.6 -0.08,-0.14 -0.21,-0.21 -0.4,-0.21 -0.09,0 -0.18,0.02 -0.25,0.06 -0.07,0.04 -0.14,0.09 -0.19,0.14 -0.05,0.05 -0.11,0.13 -0.18,0.22 -0.07,0.1 -0.11,0.16 -0.13,0.19 v 2.27 h -1.24 v -3.86 h 1.24 v 0.55 c 0.19,-0.22 0.37,-0.38 0.57,-0.47 0.19,-0.1 0.41,-0.15 0.67,-0.15 0.12,0 0.23,0.01 0.34,0.04 0.11,0.02 0.21,0.07 0.32,0.12 0.1,0.06 0.2,0.14 0.28,0.24 0.08,0.1 0.15,0.22 0.2,0.35 0.2,-0.25 0.41,-0.43 0.62,-0.56 0.21,-0.13 0.46,-0.19 0.74,-0.19 0.28,0 0.51,0.06 0.7,0.19 0.19,0.12 0.33,0.3 0.42,0.54 0.09,0.23 0.14,0.52 0.14,0.85 v 2.35 z"
             id="path107"
             style="stroke-width:2.8296" />
          <path
             d="m 31.69,37.8 c 0,0.26 -0.03,0.51 -0.1,0.75 -0.07,0.24 -0.17,0.46 -0.3,0.65 -0.14,0.19 -0.31,0.35 -0.53,0.46 -0.22,0.11 -0.46,0.17 -0.75,0.17 -0.23,0 -0.41,-0.03 -0.54,-0.08 -0.13,-0.05 -0.26,-0.12 -0.39,-0.21 v 1.98 h -1.24 v -5.61 h 1.24 v 0.35 c 0.12,-0.12 0.26,-0.22 0.41,-0.3 0.15,-0.08 0.35,-0.12 0.61,-0.12 0.26,0 0.5,0.07 0.75,0.21 0.25,0.14 0.45,0.36 0.6,0.65 0.16,0.29 0.24,0.67 0.24,1.11 z m -1.3,0.03 c 0,-0.23 -0.03,-0.42 -0.1,-0.57 -0.07,-0.15 -0.15,-0.25 -0.26,-0.31 -0.11,-0.06 -0.21,-0.1 -0.33,-0.1 -0.15,0 -0.27,0.03 -0.36,0.08 -0.09,0.05 -0.18,0.12 -0.26,0.2 v 1.47 c 0,0 0.09,0.05 0.14,0.09 0.05,0.04 0.1,0.06 0.15,0.08 0.05,0.02 0.1,0.04 0.16,0.06 0.06,0.02 0.12,0.02 0.18,0.02 0.19,0 0.36,-0.09 0.49,-0.27 0.13,-0.18 0.2,-0.43 0.2,-0.74 z"
             id="path108"
             style="stroke-width:2.8296" />
          <path
             d="m 33.36,39.76 h -1.24 v -5.25 h 1.24 z"
             id="path109"
             style="stroke-width:2.8296" />
          <path
             d="m 37.52,38.16 h -2.46 c 0.05,0.23 0.17,0.43 0.35,0.58 0.18,0.15 0.4,0.22 0.64,0.22 0.42,0 0.88,-0.13 1.38,-0.39 v 0.85 c -0.18,0.1 -0.4,0.2 -0.66,0.28 -0.26,0.08 -0.59,0.13 -0.98,0.13 -0.43,0 -0.8,-0.09 -1.1,-0.27 -0.3,-0.18 -0.53,-0.42 -0.68,-0.72 -0.15,-0.3 -0.23,-0.65 -0.23,-1.03 0,-0.38 0.08,-0.72 0.23,-1.02 0.15,-0.3 0.38,-0.53 0.68,-0.71 0.3,-0.17 0.67,-0.26 1.1,-0.26 0.28,0 0.56,0.07 0.82,0.2 0.26,0.13 0.48,0.36 0.65,0.66 0.17,0.31 0.26,0.7 0.26,1.19 v 0.27 z m -1.16,-0.68 c 0,-0.25 -0.06,-0.45 -0.17,-0.59 -0.11,-0.15 -0.27,-0.22 -0.48,-0.22 -0.21,0 -0.37,0.08 -0.5,0.23 -0.13,0.15 -0.19,0.35 -0.19,0.59 h 1.34 z"
             id="path110"
             style="stroke-width:2.8296" />
          <path
             d="m 40.58,38.63 c 0,0.35 -0.12,0.64 -0.35,0.86 -0.23,0.22 -0.58,0.33 -1.05,0.33 -0.26,0 -0.49,-0.03 -0.69,-0.08 -0.2,-0.05 -0.42,-0.13 -0.66,-0.22 v -0.97 c 0.21,0.13 0.39,0.23 0.54,0.3 0.15,0.07 0.32,0.1 0.51,0.1 0.31,0 0.46,-0.09 0.46,-0.28 0,-0.06 -0.02,-0.12 -0.07,-0.17 -0.04,-0.05 -0.12,-0.1 -0.23,-0.17 -0.11,-0.06 -0.26,-0.14 -0.45,-0.22 -0.23,-0.11 -0.42,-0.26 -0.58,-0.45 -0.16,-0.19 -0.24,-0.42 -0.24,-0.69 0,-0.19 0.05,-0.38 0.16,-0.55 0.11,-0.18 0.27,-0.32 0.48,-0.43 0.21,-0.11 0.48,-0.17 0.78,-0.17 0.07,0 0.17,0 0.28,0.02 0.11,0.01 0.26,0.04 0.43,0.09 0.17,0.05 0.34,0.12 0.49,0.2 v 0.94 c -0.07,-0.05 -0.13,-0.09 -0.18,-0.12 -0.05,-0.03 -0.12,-0.07 -0.2,-0.11 -0.08,-0.04 -0.18,-0.08 -0.29,-0.11 -0.11,-0.03 -0.23,-0.05 -0.34,-0.05 -0.14,0 -0.24,0.03 -0.29,0.09 -0.05,0.06 -0.08,0.12 -0.08,0.18 0,0.06 0.03,0.12 0.08,0.18 0.06,0.05 0.18,0.12 0.37,0.2 0.28,0.12 0.5,0.24 0.66,0.36 0.16,0.12 0.28,0.26 0.35,0.4 0.07,0.14 0.1,0.32 0.1,0.52 z"
             id="path111"
             style="stroke-width:2.8296" />
        </g>
      </g>
    </g>
  </g>
  <g
     inkscape:groupmode="layer"
     id="layer3"
     inkscape:label="components"
     style="display:none">
    <circle
       id="OutR"
       cx="53.095932"
       cy="111.19965"
       r="4.0076404"
       style="fill:#0000ff;stroke-width:1"
       data-name="Audio Right Out" />
    <circle
       id="OutL"
       cx="38.228081"
       cy="111.19965"
       r="4.0076404"
       style="fill:#0000ff;stroke-width:1"
       data-name="Audio Left Out" />
    <circle
       id="InR"
       cx="23.02096"
       cy="111.19965"
       r="4.0076404"
       style="fill:#00ff00;stroke-width:1"
       data-name="Audio Right In" />
    <circle
       id="InL"
       cx="8.114234"
       cy="111.19965"
       r="4.0076404"
       style="fill:#00ff00;stroke-width:1"
       data-name="Audio Left In" />
    <circle
       id="ReturnR"
       cx="53.095932"
       cy="97.18705"
       r="4.0076404"
       style="fill:#00ff00;stroke-width:1"
       data-name="Right Return" />
    <circle
       id="ReturnM"
       cx="30.555607"
       cy="97.18705"
       r="4.0076404"
       style="fill:#00ff00;stroke-width:1"
       data-name="Mid Return" />
    <circle
       id="ReturnL"
       cx="8.114234"
       cy="97.18705"
       r="4.0076404"
       style="fill:#00ff00;stroke-width:1"
       data-name="Left Return" />
    <circle
       id="SendR"
       cx="53.095932"
       cy="81.10701"
       r="4.0076404"
       style="fill:#0000ff;stroke-width:1"
       data-name="Send Right Out" />
    <circle
       id="SendM"
       cx="30.555607"
       cy="81.10701"
       r="4.0076404"
       style="fill:#0000ff;stroke-width:1"
       data-name="Send Mid Out" />
    <circle
       id="SendL"
       cx="8.114234"
       cy="81.10701"
       r="4.0076404"
       style="fill:#0000ff;stroke-width:1"
       data-name="Send Left Out" />
    <circle
       id="LEDR"
       cx="53.095932"
       cy="69.97467"
       r="1.752901"
       style="fill:#ff00ff;stroke-width:1"
       data-name="Right LED" />
    <circle
       id="LEDM"
       cx="30.555607"
       cy="69.97467"
       r="1.752901"
       style="fill:#ff00ff;stroke-width:1"
       data-name="Mid LED" />
    <circle
       id="LEDL"
       cx="8.114234"
       cy="69.97467"
       r="1.752901"
       style="fill:#ff00ff;stroke-width:1"
       data-name="Left LED" />
    <circle
       id="WidthCV"
       cx="47.586308"
       cy="60.556366"
       r="4.0076404"
       style="fill:#00ff00;stroke-width:1"
       data-name="Width Cv In" />
    <circle
       id="MidSideCv"
       cx="30.555607"
       cy="60.556366"
       r="4.0076404"
       style="fill:#00ff00;stroke-width:1"
       data-name="Mid/Side Cv In" />
    <circle
       id="TimeCv"
       cx="13.524903"
       cy="60.556366"
       r="4.0076404"
       style="fill:#00ff00;stroke-width:1"
       data-name="Time Cv In" />
    <circle
       id="Width"
       cx="47.586308"
       cy="41.373409"
       r="6.0114608"
       style="fill:#ff0000;stroke-width:1"
       data-name="Width!0!100!%" />
    <circle
       id="Time"
       cx="13.524903"
       cy="41.373409"
       r="6.0114608"
       style="fill:#ff0000;stroke-width:1"
       data-name="Time!0!100!%" />
    <circle
       id="MidSide"
       cx="30.555607"
       cy="19.783749"
       r="11.019244"
       style="fill:#ff0000;stroke-width:1"
       data-name="Mid/Side!0!100!%" />
    <circle
       style="fill:#ff0000;stroke-width:0.283469"
       id="path2"
       cx="9.01616"
       cy="18.892275"
       r="1.5026996"
       inkscape:label="Range" />
  </g>
</svg>
