<?xml version="1.0" encoding="UTF-8" standalone="no"?>
<svg
   width="30.48mm"
   height="128.5mm"
   viewBox="0 0 86.4 364.25251"
   version="1.1"
   id="svg86"
   sodipodi:docname="StereoCrossfader_info.svg"
   inkscape:version="1.4 (e7c3feb1, 2024-10-09)"
   xmlns:inkscape="http://www.inkscape.org/namespaces/inkscape"
   xmlns:sodipodi="http://sodipodi.sourceforge.net/DTD/sodipodi-0.dtd"
   xmlns="http://www.w3.org/2000/svg"
   xmlns:svg="http://www.w3.org/2000/svg">
  <defs
     id="defs86" />
  <sodipodi:namedview
     id="namedview86"
     pagecolor="#ffffff"
     bordercolor="#000000"
     borderopacity="0.25"
     inkscape:showpageshadow="2"
     inkscape:pageopacity="0.0"
     inkscape:pagecheckerboard="0"
     inkscape:deskcolor="#d1d1d1"
     inkscape:document-units="mm"
     inkscape:zoom="2.5195774"
     inkscape:cx="51.595954"
     inkscape:cy="411.57696"
     inkscape:window-width="1200"
     inkscape:window-height="1027"
     inkscape:window-x="700"
     inkscape:window-y="28"
     inkscape:window-maximized="0"
     inkscape:current-layer="text" />
  <g
     inkscape:groupmode="layer"
     id="layer2"
     inkscape:label="faceplate">
    <g
       id="panel">
      <g
         id="g1">
        <rect
           y="0"
           width="86.400002"
           height="364.25"
           style="fill:#ededee"
           id="rect1"
           x="0" />
        <path
           d="M 86.15,0.25 V 364 H 0.25 V 0.25 h 85.9 M 86.4,0 H 0 v 364.25 h 86.4 z"
           style="fill:#9c9c9e"
           id="path1" />
      </g>
    </g>
    <g
       id="art">
      <path
         d="m 76.55,340.47 c 2.81,0 6.16,-2.95 6.16,-6.07 l 0.18,-22.41 c 0,-8.09 -6.35,-14.65 -14.18,-14.65 H 17.69 c -7.83,0 -14.18,6.56 -14.18,14.65 v 20.46 c 0,2.69 0.57,6.59 2.85,7.15 0.76,0.29 1.59,0.46 2.47,0.46 h 10.15 l 46.06,0.4 h 11.5 z"
         id="path2" />
      <g
         id="text">
        <g
           id="g5">
          <path
             d="M 37.84,249.2 H 36.4 v -5.41 h 1.44 z"
             id="path3" />
          <path
             d="m 42.29,249.2 h -1.24 v -2.14 c 0,-0.22 -0.03,-0.41 -0.09,-0.57 -0.06,-0.16 -0.2,-0.24 -0.41,-0.24 -0.1,0 -0.19,0.02 -0.27,0.06 -0.08,0.04 -0.15,0.1 -0.21,0.17 -0.06,0.07 -0.11,0.13 -0.15,0.2 -0.04,0.06 -0.08,0.13 -0.13,0.2 v 2.34 h -1.24 v -3.98 h 1.24 v 0.57 c 0.19,-0.24 0.39,-0.4 0.59,-0.5 0.2,-0.09 0.41,-0.14 0.65,-0.14 0.84,0 1.26,0.57 1.26,1.71 v 2.34 z"
             id="path4" />
          <path
             d="m 50,249.2 h -1.47 l -0.39,-1.1 h -2.07 l -0.39,1.1 h -1.47 l 2.11,-5.41 h 1.59 l 2.1,5.41 z m -2.19,-2.04 -0.7,-1.98 -0.71,1.98 h 1.4 z"
             id="path5" />
        </g>
        <g
           id="g8">
          <path
             d="m 38.28,288.29 h -1.44 v -5.41 h 1.44 z"
             id="path6" />
          <path
             d="m 42.73,288.29 h -1.24 v -2.14 c 0,-0.22 -0.03,-0.41 -0.09,-0.57 -0.06,-0.16 -0.2,-0.24 -0.41,-0.24 -0.1,0 -0.19,0.02 -0.27,0.06 -0.08,0.04 -0.15,0.1 -0.21,0.17 -0.06,0.07 -0.11,0.13 -0.15,0.2 -0.04,0.06 -0.08,0.13 -0.13,0.2 v 2.34 h -1.24 v -3.98 h 1.24 v 0.57 c 0.19,-0.24 0.39,-0.4 0.59,-0.5 0.2,-0.1 0.41,-0.14 0.65,-0.14 0.84,0 1.26,0.57 1.26,1.71 v 2.34 z"
             id="path7" />
          <path
             d="m 49.56,286.75 c 0,0.47 -0.14,0.84 -0.42,1.12 -0.28,0.28 -0.67,0.42 -1.18,0.42 h -2.75 v -5.41 h 2.3 c 0.3,0 0.56,0.03 0.78,0.1 0.22,0.06 0.4,0.15 0.53,0.27 0.14,0.11 0.24,0.25 0.3,0.4 0.07,0.15 0.1,0.32 0.1,0.5 0,0.2 -0.03,0.38 -0.1,0.55 -0.07,0.17 -0.15,0.31 -0.26,0.41 -0.1,0.11 -0.2,0.18 -0.31,0.23 0.33,0.15 0.57,0.33 0.74,0.55 0.17,0.22 0.26,0.51 0.26,0.87 z m -1.68,-2.32 c 0,-0.26 -0.08,-0.43 -0.23,-0.52 -0.15,-0.09 -0.39,-0.13 -0.71,-0.13 h -0.3 v 1.3 h 0.31 c 0.33,0 0.56,-0.04 0.71,-0.13 0.15,-0.09 0.22,-0.26 0.22,-0.52 z m 0.23,2.25 c 0,-0.46 -0.3,-0.7 -0.89,-0.7 h -0.58 v 1.39 h 0.58 c 0.59,0 0.89,-0.23 0.89,-0.69 z"
             id="path8" />
        </g>
        <g
           id="g12">
          <path
             d="m 16.77,333.13 c 0,0.51 -0.1,0.97 -0.31,1.39 -0.21,0.42 -0.51,0.76 -0.92,1.01 -0.41,0.25 -0.9,0.38 -1.48,0.38 -0.58,0 -1.09,-0.13 -1.5,-0.39 -0.41,-0.26 -0.71,-0.6 -0.91,-1.03 -0.2,-0.42 -0.3,-0.88 -0.3,-1.36 0,-0.48 0.1,-0.94 0.3,-1.37 0.2,-0.42 0.5,-0.76 0.91,-1.02 0.41,-0.26 0.91,-0.39 1.5,-0.39 0.44,0 0.83,0.07 1.18,0.22 0.35,0.15 0.63,0.35 0.85,0.6 0.22,0.25 0.39,0.55 0.51,0.89 0.11,0.34 0.17,0.69 0.17,1.06 z m -1.47,0 c 0,-0.2 -0.03,-0.39 -0.08,-0.56 -0.05,-0.17 -0.13,-0.31 -0.24,-0.44 -0.11,-0.12 -0.24,-0.22 -0.39,-0.29 -0.15,-0.07 -0.33,-0.1 -0.53,-0.1 -0.39,0 -0.69,0.13 -0.91,0.38 -0.22,0.26 -0.33,0.59 -0.33,1 0,0.41 0.11,0.75 0.33,1.01 0.22,0.26 0.52,0.38 0.91,0.38 0.26,0 0.49,-0.06 0.67,-0.18 0.19,-0.12 0.33,-0.28 0.42,-0.49 0.1,-0.21 0.14,-0.45 0.14,-0.72 z"
             style="fill:#ffffff"
             id="path9" />
          <path
             d="m 20.86,335.84 h -1.24 v -0.57 c -0.17,0.21 -0.36,0.37 -0.55,0.48 -0.19,0.11 -0.42,0.16 -0.69,0.16 -0.53,0 -0.87,-0.17 -1.03,-0.53 -0.16,-0.35 -0.23,-0.75 -0.23,-1.19 v -2.34 h 1.24 V 334 c 0,0.22 0.03,0.41 0.1,0.57 0.06,0.16 0.2,0.24 0.41,0.24 0.18,0 0.33,-0.06 0.43,-0.18 0.11,-0.12 0.21,-0.27 0.32,-0.45 v -2.34 h 1.24 v 3.98 z"
             style="fill:#ffffff"
             id="path10" />
          <path
             d="m 24.13,335.61 c -0.13,0.07 -0.31,0.14 -0.53,0.2 -0.23,0.07 -0.44,0.1 -0.65,0.1 -0.89,0 -1.34,-0.49 -1.34,-1.48 v -1.59 h -0.56 v -0.25 l 1.66,-1.92 h 0.14 v 1.19 h 1.18 v 0.98 h -1.18 v 1.27 c 0,0.15 0,0.27 0.02,0.36 0.02,0.09 0.06,0.17 0.14,0.23 0.07,0.06 0.19,0.09 0.34,0.09 0.2,0 0.46,-0.09 0.78,-0.28 z"
             style="fill:#ffffff"
             id="path11" />
          <path
             d="m 30.03,335.84 h -3.62 v -5.41 h 1.44 v 4.12 h 2.18 v 1.3 z"
             style="fill:#ffffff"
             id="path12" />
        </g>
        <g
           id="g16">
          <path
             d="m 60.77,333.13 c 0,0.51 -0.1,0.97 -0.31,1.39 -0.21,0.42 -0.51,0.76 -0.92,1.01 -0.41,0.25 -0.9,0.38 -1.48,0.38 -0.58,0 -1.09,-0.13 -1.5,-0.39 -0.41,-0.26 -0.71,-0.6 -0.91,-1.03 -0.2,-0.42 -0.3,-0.88 -0.3,-1.36 0,-0.48 0.1,-0.94 0.3,-1.37 0.2,-0.42 0.5,-0.76 0.91,-1.02 0.41,-0.26 0.91,-0.39 1.5,-0.39 0.44,0 0.83,0.07 1.18,0.22 0.35,0.15 0.63,0.35 0.85,0.6 0.22,0.25 0.39,0.55 0.5,0.89 0.12,0.34 0.17,0.69 0.17,1.06 z m -1.46,0 c 0,-0.2 -0.03,-0.39 -0.08,-0.56 -0.05,-0.17 -0.13,-0.31 -0.24,-0.44 -0.11,-0.12 -0.24,-0.22 -0.39,-0.29 -0.15,-0.07 -0.33,-0.1 -0.53,-0.1 -0.38,0 -0.69,0.13 -0.91,0.38 -0.22,0.26 -0.33,0.59 -0.33,1 0,0.41 0.11,0.75 0.33,1.01 0.22,0.26 0.52,0.38 0.91,0.38 0.26,0 0.49,-0.06 0.67,-0.18 0.19,-0.12 0.33,-0.28 0.42,-0.49 0.1,-0.21 0.14,-0.45 0.14,-0.72 z"
             style="fill:#ffffff"
             id="path13" />
          <path
             d="m 64.87,335.84 h -1.24 v -0.57 c -0.17,0.21 -0.36,0.37 -0.55,0.48 -0.19,0.11 -0.42,0.16 -0.69,0.16 -0.53,0 -0.87,-0.17 -1.03,-0.53 -0.16,-0.35 -0.23,-0.75 -0.23,-1.19 v -2.34 h 1.24 V 334 c 0,0.22 0.03,0.41 0.09,0.57 0.06,0.16 0.2,0.24 0.41,0.24 0.18,0 0.33,-0.06 0.43,-0.18 0.1,-0.12 0.21,-0.27 0.32,-0.45 v -2.34 h 1.24 v 3.98 z"
             style="fill:#ffffff"
             id="path14" />
          <path
             d="m 68.14,335.61 c -0.13,0.07 -0.31,0.14 -0.53,0.2 -0.23,0.07 -0.44,0.1 -0.65,0.1 -0.89,0 -1.34,-0.49 -1.34,-1.48 v -1.59 h -0.56 v -0.25 l 1.66,-1.92 h 0.14 v 1.19 h 1.18 v 0.98 h -1.18 v 1.27 c 0,0.15 0,0.27 0.02,0.36 0.02,0.09 0.06,0.17 0.14,0.23 0.07,0.06 0.19,0.09 0.34,0.09 0.2,0 0.46,-0.09 0.78,-0.28 z"
             style="fill:#ffffff"
             id="path15" />
          <path
             d="m 75.03,335.84 h -1.54 l -0.38,-0.96 c -0.14,-0.35 -0.26,-0.61 -0.37,-0.77 -0.11,-0.16 -0.22,-0.27 -0.32,-0.31 -0.1,-0.04 -0.24,-0.07 -0.4,-0.07 h -0.16 v 2.11 h -1.44 v -5.41 h 2.44 c 0.39,0 0.72,0.09 0.97,0.27 0.25,0.18 0.43,0.4 0.54,0.66 0.11,0.26 0.17,0.51 0.17,0.74 0,0.27 -0.05,0.5 -0.14,0.69 -0.09,0.19 -0.19,0.33 -0.29,0.41 -0.1,0.09 -0.22,0.17 -0.35,0.25 0.15,0.1 0.28,0.22 0.38,0.36 0.1,0.14 0.24,0.42 0.41,0.85 z m -1.96,-3.71 c 0,-0.25 -0.07,-0.42 -0.22,-0.52 -0.14,-0.1 -0.38,-0.15 -0.7,-0.15 h -0.3 v 1.3 h 0.31 c 0.35,0 0.59,-0.04 0.72,-0.13 0.13,-0.09 0.19,-0.25 0.19,-0.5 z"
             style="fill:#ffffff"
             id="path16" />
        </g>
        <g
           id="g27">
          <path
             d="m 35,18.05 c -0.37,0 -0.71,-0.17 -0.97,-0.47 -0.51,-0.6 -0.52,-1.54 -0.04,-2.16 l 6.97,-8.88 c 0.38,-0.48 1.05,-0.65 1.57,-0.39 0.5,0.25 0.79,0.82 0.79,1.45 v 4.77 l 4.64,-5.85 c 0.38,-0.48 1.01,-0.64 1.53,-0.38 0.5,0.25 0.83,0.81 0.83,1.44 v 8.82 c 0,0.86 -0.61,1.57 -1.36,1.57 -0.75,0 -1.36,-0.7 -1.36,-1.57 v -4.79 l -4.64,5.85 c -0.38,0.48 -1.01,0.64 -1.54,0.38 -0.5,-0.24 -0.83,-0.81 -0.83,-1.44 v -4.67 l -4.61,5.8 c -0.26,0.32 -0.62,0.51 -1,0.51 v 0 z"
             style="fill:#2cabe1"
             id="path25" />
          <path
             d="m 35,18.05 c -0.75,0 -1.35,-0.7 -1.35,-1.57 v -4.93 l -2.26,2.84 c -0.5,0.63 -1.44,0.65 -1.97,0.04 -0.51,-0.6 -0.52,-1.53 -0.03,-2.15 L 34,6.52 c 0.26,-0.32 0.63,-0.5 1,-0.5 0.18,0 0.37,0.04 0.54,0.12 0.5,0.25 0.82,0.81 0.82,1.44 v 8.89 c 0,0.86 -0.61,1.57 -1.36,1.57 v 0 z"
             style="fill:#ea2228"
             id="path26" />
          <path
             d="m 51.6,18.07 v 0 c -0.35,0 -0.68,-0.15 -0.94,-0.42 -0.76,-0.78 -0.14,-1.84 0.29,-2.3 l 1.95,-2.36 -1.26,-0.02 c -0.56,-0.01 -1.04,-0.4 -1.24,-1 -0.19,-0.56 -0.07,-1.21 0.29,-1.64 L 53.85,6.5 c 0.23,-0.28 0.55,-0.48 1.13,-0.47 0.33,0 0.67,0.17 0.92,0.4 0.71,0.66 0.29,1.7 -0.07,2.2 l -1.04,1.26 1.26,0.02 c 0.56,0.01 1.04,0.4 1.24,1 0.19,0.56 0.07,1.21 -0.29,1.64 l -4.1,4.97 c -0.35,0.35 -0.65,0.55 -1.3,0.54 v 0 z"
             style="fill:#00a650"
             id="path27" />
        </g>
        <rect
           x="20.52"
           y="274.45999"
           width="45.349998"
           height="1"
           id="rect27"
           style="stroke-width:0.992127;stroke-dasharray:none" />
        <rect
           x="20.52"
           y="234.94"
           width="45.349998"
           height="1"
           id="rect28"
           style="stroke-width:0.992127;stroke-dasharray:none" />
      </g>
      <g
         id="g37">
        <path
           d="m 52.2,35.74 1.13,-1.95 c -2.75,-1.43 -5.84,-2.3 -9.12,-2.44 v 2.26 c 2.87,0.14 5.57,0.89 7.99,2.14 z"
           id="path28" />
        <path
           d="m 59.78,42.6 1.95,-1.13 c -1.72,-2.68 -4,-4.96 -6.68,-6.68 l -1.13,1.95 c 2.34,1.52 4.33,3.51 5.85,5.85 z"
           id="path29" />
        <path
           d="m 32.47,36.74 -1.13,-1.95 c -2.68,1.72 -4.96,4 -6.68,6.68 l 1.95,1.13 c 1.52,-2.34 3.51,-4.33 5.85,-5.85 z"
           id="path30" />
        <path
           d="m 62.92,52.32 h 2.26 C 65.03,49.04 64.17,45.95 62.74,43.2 l -1.95,1.13 c 1.24,2.42 1.99,5.13 2.14,8 z"
           id="path31" />
        <path
           d="m 42.2,33.61 v -2.26 c -3.28,0.15 -6.37,1.01 -9.12,2.44 l 1.13,1.95 c 2.42,-1.24 5.13,-1.99 8,-2.14 z"
           id="path32" />
        <path
           d="m 26.62,64.05 -1.95,1.13 c 1.72,2.68 4,4.96 6.68,6.68 l 1.13,-1.95 C 30.14,68.39 28.15,66.4 26.63,64.06 Z"
           id="path33" />
        <path
           d="m 53.93,69.9 1.13,1.95 c 2.68,-1.72 4.96,-4 6.68,-6.68 l -1.95,-1.13 c -1.52,2.34 -3.51,4.33 -5.85,5.85 z"
           id="path34" />
        <path
           d="m 62.92,54.32 c -0.14,2.87 -0.89,5.57 -2.14,8 l 1.95,1.13 c 1.43,-2.75 2.3,-5.84 2.44,-9.12 h -2.26 z"
           id="path35" />
        <path
           d="m 23.48,54.32 h -2.26 c 0.15,3.28 1.01,6.37 2.44,9.12 l 1.95,-1.13 c -1.24,-2.42 -1.99,-5.13 -2.14,-8 z"
           id="path36" />
        <path
           d="M 25.62,44.33 23.67,43.2 c -1.43,2.75 -2.3,5.84 -2.44,9.12 h 2.26 c 0.14,-2.87 0.89,-5.57 2.14,-8 z"
           id="path37" />
      </g>
      <g
         id="g47">
        <path
           d="m 52.2,154.78 1.13,-1.95 c -2.75,-1.43 -5.84,-2.3 -9.12,-2.44 v 2.26 c 2.87,0.14 5.57,0.89 7.99,2.14 z"
           id="path38" />
        <path
           d="m 59.78,161.63 1.95,-1.13 c -1.72,-2.68 -4,-4.96 -6.68,-6.68 l -1.13,1.95 c 2.34,1.52 4.33,3.51 5.85,5.85 z"
           id="path39" />
        <path
           d="m 32.47,155.78 -1.13,-1.95 c -2.68,1.72 -4.96,4 -6.68,6.68 l 1.95,1.13 c 1.52,-2.34 3.51,-4.33 5.85,-5.85 z"
           id="path40" />
        <path
           d="m 62.92,171.36 h 2.26 c -0.15,-3.28 -1.01,-6.37 -2.44,-9.12 l -1.95,1.13 c 1.24,2.42 1.99,5.13 2.14,8 z"
           id="path41" />
        <path
           d="m 42.2,152.64 v -2.26 c -3.28,0.15 -6.37,1.01 -9.12,2.44 l 1.13,1.95 c 2.42,-1.24 5.13,-1.99 8,-2.14 z"
           id="path42" />
        <path
           d="m 26.62,183.08 -1.95,1.13 c 1.72,2.68 4,4.96 6.68,6.68 l 1.13,-1.95 c -2.34,-1.52 -4.33,-3.51 -5.85,-5.85 z"
           id="path43" />
        <path
           d="m 53.93,188.94 1.13,1.95 c 2.68,-1.72 4.96,-4 6.68,-6.68 l -1.95,-1.13 c -1.52,2.34 -3.51,4.33 -5.85,5.85 z"
           id="path44" />
        <path
           d="m 62.92,173.36 c -0.14,2.87 -0.89,5.57 -2.14,8 l 1.95,1.13 c 1.43,-2.75 2.3,-5.84 2.44,-9.12 h -2.26 z"
           id="path45" />
        <path
           d="m 23.48,173.36 h -2.26 c 0.15,3.28 1.01,6.37 2.44,9.12 l 1.95,-1.13 c -1.24,-2.42 -1.99,-5.13 -2.14,-8 z"
           id="path46" />
        <path
           d="m 25.62,163.36 -1.95,-1.13 c -1.43,2.75 -2.3,5.84 -2.44,9.12 h 2.26 c 0.14,-2.87 0.89,-5.57 2.14,-8 z"
           id="path47" />
      </g>
      <g
         id="g50">
        <path
           d="m 42.61,81.07 h -1.8 v -3.92 l -1.62,2.27 h -0.14 l -1.62,-2.27 v 3.92 H 35.69 V 74.3 h 1.63 l 1.83,2.54 1.84,-2.54 h 1.63 v 6.77 z"
           id="path48" />
        <path
           d="M 45.13,81.07 H 43.58 V 76.1 h 1.55 z m -0.12,-6.12 c 0,0.21 -0.06,0.38 -0.19,0.52 -0.13,0.14 -0.28,0.21 -0.46,0.21 -0.12,0 -0.23,-0.03 -0.33,-0.1 -0.1,-0.06 -0.18,-0.15 -0.23,-0.27 -0.06,-0.11 -0.09,-0.24 -0.09,-0.37 0,-0.2 0.06,-0.38 0.19,-0.52 0.13,-0.14 0.28,-0.22 0.46,-0.22 0.18,0 0.33,0.07 0.46,0.22 0.13,0.15 0.19,0.32 0.19,0.52 z"
           id="path49" />
        <path
           d="m 50.72,81.07 h -1.91 l -0.85,-1.41 -0.84,1.41 h -1.69 l 1.69,-2.44 -1.73,-2.53 h 1.9 l 0.81,1.35 0.82,-1.35 h 1.69 l -1.65,2.36 z"
           id="path50" />
      </g>
      <path
         d="m 20.75,68.25 3.01,6.82 h -1.39 l -0.71,-1.66 h -3.03 l -0.66,1.66 h -1.38 l 2.81,-6.82 z m -1.72,4.16 h 2.2 l -1.15,-2.7 z"
         id="path51" />
      <path
         d="m 65.71,68.25 c 0.62,0 1.13,0.16 1.53,0.49 0.39,0.33 0.59,0.73 0.59,1.22 0,0.31 -0.08,0.59 -0.25,0.83 -0.16,0.24 -0.4,0.43 -0.71,0.57 v 0.06 c 0.47,0.11 0.85,0.32 1.11,0.64 0.27,0.32 0.4,0.69 0.4,1.12 0,0.38 -0.1,0.72 -0.29,1.01 -0.19,0.3 -0.46,0.52 -0.81,0.67 -0.34,0.15 -0.75,0.22 -1.21,0.22 h -2.86 v -6.82 h 2.5 z m -0.35,2.83 c 0.35,0 0.62,-0.08 0.83,-0.25 0.2,-0.17 0.3,-0.4 0.3,-0.69 0,-0.26 -0.09,-0.47 -0.28,-0.63 -0.19,-0.16 -0.43,-0.23 -0.73,-0.23 h -0.95 v 1.8 z m 0.31,2.96 c 0.45,0 0.78,-0.08 1.01,-0.25 0.23,-0.17 0.34,-0.41 0.34,-0.74 0,-0.29 -0.11,-0.52 -0.34,-0.69 -0.23,-0.17 -0.53,-0.25 -0.91,-0.25 h -1.24 v 1.93 z"
         id="path52" />
      <g
         id="g57">
        <path
           d="m 35.26,198.34 c 0,0.42 -0.09,0.79 -0.29,1.1 -0.19,0.31 -0.46,0.55 -0.8,0.71 -0.34,0.17 -0.73,0.25 -1.17,0.25 -0.12,0 -0.27,0 -0.45,-0.03 -0.18,-0.02 -0.42,-0.07 -0.71,-0.15 -0.3,-0.08 -0.61,-0.2 -0.93,-0.36 v -1.66 c 0.3,0.21 0.6,0.39 0.89,0.53 0.29,0.14 0.6,0.21 0.93,0.21 0.31,0 0.5,-0.06 0.6,-0.17 0.09,-0.12 0.13,-0.22 0.13,-0.32 0,-0.18 -0.08,-0.34 -0.23,-0.46 -0.16,-0.12 -0.38,-0.25 -0.67,-0.39 -0.33,-0.16 -0.61,-0.33 -0.86,-0.51 -0.25,-0.18 -0.45,-0.41 -0.6,-0.69 -0.16,-0.28 -0.23,-0.6 -0.23,-0.98 0,-0.38 0.08,-0.69 0.24,-0.99 0.16,-0.29 0.4,-0.53 0.72,-0.71 0.32,-0.18 0.72,-0.26 1.19,-0.26 0.33,0 0.64,0.04 0.92,0.11 0.28,0.07 0.51,0.16 0.7,0.25 0.18,0.09 0.31,0.16 0.38,0.21 v 1.59 c -0.24,-0.2 -0.51,-0.38 -0.81,-0.53 -0.3,-0.16 -0.62,-0.23 -0.96,-0.23 -0.22,0 -0.38,0.05 -0.49,0.15 -0.11,0.1 -0.15,0.22 -0.15,0.36 0,0.13 0.05,0.25 0.15,0.35 0.1,0.1 0.28,0.22 0.54,0.36 0.46,0.24 0.83,0.46 1.1,0.66 0.28,0.2 0.49,0.42 0.65,0.68 0.16,0.26 0.23,0.57 0.23,0.96 z"
           id="path53" />
        <path
           d="M 40.55,200.3 H 39 v -2.58 c 0,0 0,-0.04 0,-0.06 0,-0.02 0,-0.06 0,-0.11 0,-0.24 -0.04,-0.46 -0.13,-0.65 -0.09,-0.2 -0.26,-0.3 -0.51,-0.3 -0.19,0 -0.37,0.07 -0.52,0.22 -0.15,0.15 -0.29,0.33 -0.42,0.56 v 2.92 h -1.55 v -6.77 h 1.55 v 2.51 c 0.25,-0.31 0.51,-0.52 0.76,-0.63 0.25,-0.11 0.51,-0.17 0.79,-0.17 1.05,0 1.57,0.67 1.57,2.01 v 3.05 z"
           id="path54" />
        <path
           d="m 45.66,200.05 c -0.23,0.1 -0.44,0.18 -0.63,0.24 -0.19,0.06 -0.42,0.09 -0.69,0.09 -0.25,0 -0.43,-0.05 -0.53,-0.15 -0.1,-0.1 -0.17,-0.23 -0.21,-0.37 -0.17,0.15 -0.35,0.28 -0.55,0.38 -0.2,0.1 -0.47,0.15 -0.8,0.15 -0.33,0 -0.58,-0.06 -0.77,-0.19 -0.2,-0.12 -0.33,-0.28 -0.41,-0.47 -0.08,-0.19 -0.12,-0.39 -0.12,-0.59 0,-0.31 0.07,-0.56 0.2,-0.76 0.14,-0.2 0.32,-0.36 0.55,-0.49 0.23,-0.13 0.53,-0.26 0.91,-0.4 0.21,-0.08 0.38,-0.14 0.49,-0.18 0.11,-0.04 0.19,-0.07 0.25,-0.09 0.05,-0.02 0.11,-0.05 0.17,-0.09 0,-0.24 -0.04,-0.43 -0.13,-0.57 -0.09,-0.14 -0.27,-0.21 -0.56,-0.21 -0.34,0 -0.65,0.08 -0.94,0.25 -0.29,0.17 -0.55,0.39 -0.79,0.65 v -1.35 c 0.19,-0.16 0.4,-0.28 0.62,-0.38 0.22,-0.1 0.46,-0.17 0.7,-0.22 0.24,-0.05 0.49,-0.07 0.74,-0.07 0.63,0 1.11,0.14 1.43,0.42 0.32,0.28 0.48,0.66 0.48,1.15 v 1.92 c 0,0.18 0.01,0.32 0.04,0.41 0.03,0.09 0.08,0.13 0.17,0.13 0.1,0 0.23,-0.05 0.4,-0.14 v 0.92 z m -2.15,-0.95 v -1.18 c -0.37,0.17 -0.63,0.32 -0.8,0.46 -0.17,0.14 -0.25,0.32 -0.25,0.55 0,0.17 0.04,0.29 0.13,0.38 0.08,0.09 0.18,0.13 0.29,0.13 0.11,0 0.21,-0.03 0.32,-0.1 0.1,-0.07 0.21,-0.15 0.32,-0.24 z"
           id="path55" />
        <path
           d="m 50.6,197.78 c 0,0.33 -0.04,0.65 -0.12,0.96 -0.08,0.31 -0.21,0.59 -0.38,0.84 -0.17,0.25 -0.39,0.45 -0.66,0.59 -0.27,0.15 -0.58,0.22 -0.93,0.22 -0.29,0 -0.51,-0.03 -0.68,-0.1 -0.17,-0.07 -0.33,-0.16 -0.49,-0.27 v 2.55 h -1.55 v -7.23 h 1.55 v 0.45 c 0.15,-0.15 0.33,-0.28 0.51,-0.38 0.18,-0.1 0.44,-0.15 0.76,-0.15 0.32,0 0.63,0.09 0.94,0.27 0.31,0.18 0.56,0.46 0.76,0.84 0.2,0.38 0.3,0.86 0.3,1.43 z m -1.63,0.04 c 0,-0.3 -0.04,-0.54 -0.12,-0.73 -0.08,-0.19 -0.19,-0.32 -0.32,-0.41 -0.13,-0.09 -0.27,-0.12 -0.41,-0.12 -0.18,0 -0.33,0.03 -0.45,0.1 -0.12,0.07 -0.23,0.15 -0.33,0.25 v 1.9 c 0.05,0.03 0.11,0.07 0.17,0.11 0.06,0.04 0.12,0.08 0.18,0.11 0.06,0.03 0.13,0.05 0.2,0.07 0.07,0.02 0.15,0.03 0.23,0.03 0.24,0 0.45,-0.12 0.61,-0.35 0.16,-0.23 0.24,-0.55 0.24,-0.96 z"
           id="path56" />
        <path
           d="m 55.54,198.24 h -3.08 c 0.06,0.3 0.21,0.55 0.44,0.74 0.24,0.19 0.5,0.29 0.8,0.29 0.52,0 1.1,-0.17 1.73,-0.5 v 1.09 c -0.23,0.13 -0.5,0.25 -0.82,0.36 -0.32,0.11 -0.73,0.16 -1.23,0.16 -0.54,0 -1,-0.11 -1.38,-0.34 -0.38,-0.23 -0.66,-0.54 -0.85,-0.93 -0.19,-0.39 -0.28,-0.83 -0.28,-1.33 0,-0.5 0.09,-0.93 0.28,-1.31 0.19,-0.38 0.47,-0.69 0.85,-0.91 0.38,-0.22 0.84,-0.33 1.38,-0.33 0.36,0 0.7,0.09 1.03,0.26 0.33,0.17 0.6,0.46 0.82,0.85 0.22,0.39 0.32,0.91 0.32,1.53 v 0.35 z m -1.46,-0.87 c 0,-0.32 -0.07,-0.57 -0.21,-0.76 -0.14,-0.19 -0.34,-0.29 -0.6,-0.29 -0.26,0 -0.47,0.1 -0.62,0.29 -0.16,0.19 -0.24,0.45 -0.24,0.76 z"
           id="path57" />
      </g>
      <g
         id="g60">
        <path
           d="m 12.86,187.28 v 5.79 h 3.31 v 1.03 h -4.63 v -6.82 z"
           id="path58" />
        <path
           d="m 17.16,187.43 c 0.19,0 0.35,0.07 0.48,0.2 0.13,0.13 0.2,0.29 0.2,0.48 0,0.19 -0.07,0.34 -0.2,0.48 -0.13,0.14 -0.29,0.21 -0.48,0.21 -0.19,0 -0.34,-0.07 -0.48,-0.21 -0.14,-0.14 -0.2,-0.3 -0.2,-0.48 0,-0.19 0.07,-0.35 0.21,-0.48 0.14,-0.13 0.29,-0.2 0.47,-0.2 z m 0.6,2.11 v 4.56 h -1.2 v -4.56 z"
           id="path59" />
        <path
           d="m 21.24,189.46 c 0.49,0 0.88,0.16 1.17,0.48 0.29,0.32 0.44,0.74 0.44,1.27 v 2.9 h -1.2 v -2.78 c 0,-0.3 -0.07,-0.53 -0.21,-0.7 -0.14,-0.17 -0.33,-0.26 -0.58,-0.26 -0.19,0 -0.36,0.05 -0.52,0.16 -0.16,0.11 -0.34,0.29 -0.54,0.54 v 3.03 h -1.2 v -4.56 h 1.2 v 0.64 c 0.22,-0.26 0.45,-0.45 0.68,-0.56 0.23,-0.11 0.49,-0.17 0.76,-0.17 z"
           id="path60" />
      </g>
      <g
         id="g63">
        <path
           d="m 64.53,187.28 v 5.79 h 3.31 v 1.03 h -4.63 v -6.82 z"
           id="path61" />
        <path
           d="m 70.45,189.46 c 0.48,0 0.91,0.1 1.29,0.3 0.39,0.2 0.69,0.48 0.9,0.83 0.21,0.36 0.32,0.76 0.32,1.22 0,0.46 -0.1,0.89 -0.3,1.24 -0.2,0.36 -0.5,0.63 -0.9,0.84 -0.4,0.21 -0.83,0.31 -1.31,0.31 -0.48,0 -0.91,-0.1 -1.3,-0.31 -0.39,-0.21 -0.69,-0.48 -0.89,-0.84 -0.2,-0.35 -0.31,-0.77 -0.31,-1.24 0,-0.47 0.11,-0.87 0.32,-1.22 0.21,-0.35 0.51,-0.63 0.9,-0.83 0.38,-0.2 0.81,-0.3 1.28,-0.3 z m -1.24,2.34 c 0,0.46 0.11,0.82 0.33,1.09 0.22,0.27 0.52,0.41 0.9,0.41 0.38,0 0.7,-0.13 0.92,-0.39 0.22,-0.26 0.34,-0.63 0.34,-1.12 0,-0.49 -0.11,-0.82 -0.34,-1.07 -0.23,-0.25 -0.53,-0.38 -0.92,-0.38 -0.36,0 -0.66,0.13 -0.89,0.4 -0.23,0.27 -0.34,0.62 -0.34,1.06 z"
           id="path62" />
        <path
           d="m 77.73,189.54 v 0.85 h -0.78 c 0.13,0.16 0.22,0.3 0.27,0.43 0.05,0.13 0.08,0.27 0.08,0.43 0,0.37 -0.14,0.7 -0.41,1 -0.24,0.26 -0.65,0.43 -1.24,0.51 -0.32,0.04 -0.53,0.08 -0.63,0.13 -0.1,0.05 -0.15,0.13 -0.15,0.23 0,0.09 0.06,0.17 0.19,0.22 0.13,0.05 0.33,0.1 0.6,0.14 0.69,0.11 1.19,0.28 1.52,0.51 0.32,0.23 0.49,0.53 0.49,0.9 0,0.48 -0.2,0.85 -0.59,1.11 -0.39,0.26 -0.96,0.39 -1.7,0.39 -0.7,0 -1.26,-0.12 -1.67,-0.37 -0.41,-0.24 -0.62,-0.57 -0.62,-0.98 0,-0.58 0.4,-0.98 1.2,-1.2 -0.35,-0.15 -0.52,-0.35 -0.52,-0.59 0,-0.32 0.26,-0.54 0.78,-0.66 v -0.02 c -0.36,-0.1 -0.64,-0.27 -0.85,-0.52 -0.21,-0.25 -0.31,-0.54 -0.31,-0.88 0,-0.49 0.19,-0.89 0.56,-1.19 0.37,-0.3 0.86,-0.45 1.46,-0.45 h 2.35 z M 74.19,195 c 0,0.41 0.41,0.61 1.22,0.61 0.35,0 0.63,-0.06 0.83,-0.17 0.2,-0.11 0.3,-0.26 0.3,-0.44 0,-0.2 -0.11,-0.35 -0.34,-0.46 -0.23,-0.1 -0.55,-0.15 -0.96,-0.15 -0.31,0 -0.56,0.06 -0.76,0.17 -0.2,0.12 -0.29,0.26 -0.29,0.44 z m 0.29,-3.81 c 0,0.24 0.08,0.44 0.25,0.59 0.17,0.16 0.37,0.24 0.61,0.24 0.24,0 0.45,-0.08 0.61,-0.25 0.16,-0.17 0.24,-0.37 0.24,-0.62 0,-0.22 -0.08,-0.41 -0.25,-0.56 -0.17,-0.15 -0.37,-0.23 -0.6,-0.23 -0.23,0 -0.45,0.08 -0.61,0.25 -0.17,0.16 -0.25,0.36 -0.25,0.58 z"
           id="path63" />
      </g>
      <path
         d="M 82.82,233.72 C 82.51,224.79 76.29,217.79 68.66,217.79 H 17.74 c -7.63,0 -13.85,7 -14.16,15.95 l -0.06,6.83 v 21.06 l 0.07,61.87 v 0 11.26 c 0,3.5 2.84,6.34 6.34,6.34 h 13.29 c 0,0 40.05,0 40.05,0 v 0 c 0,0 13.29,0 13.29,0 3.5,0 6.34,-2.84 6.34,-6.34 v -94.2 l -0.06,-6.84 z m -0.96,90.76 v 10.28 c 0,2.93 -2.38,5.31 -5.31,5.31 H 17.78 c 0,0 0,0 0,0 H 9.92 c -2.93,0 -5.31,-2.38 -5.31,-5.31 v -10.28 0 L 4.54,261.63 v -21.06 l 0.06,-6.81 c 0.29,-8.38 6.06,-14.94 13.14,-14.94 h 50.92 c 7.07,0 12.84,6.56 13.14,14.93 l 0.06,6.82 v 83.92 z"
         id="path64"
         style="stroke-width:0.992127;stroke-dasharray:none" />
      <rect
         x="42.700001"
         y="84.650002"
         width="1"
         height="30.99"
         id="rect64"
         style="stroke-width:0.992127;stroke-dasharray:none" />
      <g
         id="g69">
        <path
           d="M 36.84,130.16 H 35.4 v -3.14 l -1.3,1.82 h -0.11 l -1.3,-1.82 v 3.14 h -1.4 v -5.41 h 1.3 l 1.46,2.03 1.47,-2.03 h 1.3 v 5.41 z"
           id="path65" />
        <path
           d="m 38.86,130.16 h -1.24 v -3.98 h 1.24 z m -0.1,-4.89 c 0,0.16 -0.05,0.3 -0.15,0.42 -0.1,0.12 -0.23,0.17 -0.37,0.17 -0.1,0 -0.18,-0.03 -0.26,-0.08 -0.08,-0.05 -0.14,-0.12 -0.19,-0.21 -0.05,-0.09 -0.07,-0.19 -0.07,-0.3 0,-0.16 0.05,-0.3 0.15,-0.42 0.1,-0.12 0.22,-0.18 0.37,-0.18 0.15,0 0.26,0.06 0.37,0.18 0.11,0.12 0.15,0.26 0.15,0.42 z"
           id="path66" />
        <path
           d="M 43.33,130.16 H 41.8 l -0.68,-1.13 -0.67,1.13 H 39.1 l 1.35,-1.95 -1.38,-2.02 h 1.52 l 0.65,1.08 0.65,-1.08 h 1.35 l -1.32,1.89 1.41,2.09 z"
           id="path67" />
        <path
           d="m 49.76,129.75 c -0.2,0.12 -0.4,0.21 -0.61,0.28 -0.21,0.07 -0.41,0.12 -0.62,0.15 -0.21,0.03 -0.43,0.04 -0.65,0.04 -0.42,0 -0.79,-0.06 -1.12,-0.2 -0.33,-0.14 -0.61,-0.32 -0.86,-0.58 -0.24,-0.25 -0.42,-0.55 -0.54,-0.89 -0.12,-0.34 -0.18,-0.71 -0.18,-1.12 0,-0.47 0.07,-0.87 0.21,-1.22 0.14,-0.35 0.34,-0.64 0.6,-0.87 0.26,-0.23 0.55,-0.4 0.87,-0.51 0.33,-0.11 0.67,-0.17 1.03,-0.17 0.54,0 1.15,0.14 1.84,0.41 v 1.44 c -0.24,-0.17 -0.47,-0.31 -0.7,-0.42 -0.23,-0.11 -0.5,-0.17 -0.81,-0.17 -0.28,0 -0.54,0.06 -0.78,0.19 -0.24,0.12 -0.43,0.3 -0.58,0.54 -0.15,0.24 -0.22,0.5 -0.22,0.81 0,0.27 0.06,0.52 0.19,0.75 0.13,0.23 0.31,0.41 0.53,0.54 0.23,0.13 0.49,0.2 0.77,0.2 0.23,0 0.45,-0.03 0.66,-0.1 0.21,-0.07 0.38,-0.13 0.52,-0.21 0.14,-0.08 0.29,-0.17 0.44,-0.28 v 1.37 z"
           id="path68" />
        <path
           d="m 55.1,124.75 -2.15,5.48 H 52 l -2.11,-5.48 h 1.5 l 1.09,3.12 1.12,-3.12 z"
           id="path69" />
      </g>
      <path
         d="m 34.485147,355.59917 q 0,0.64741 -0.261719,1.12052 -0.257813,0.47311 -0.722657,0.72709 -0.464844,0.249 -1.066408,0.249 -0.167969,0 -0.414063,-0.0299 -0.242187,-0.0248 -0.648438,-0.14939 -0.402344,-0.12444 -0.839845,-0.36852 v -1.69324 q 0.410157,0.32371 0.804689,0.53785 0.398438,0.21415 0.851563,0.21415 0.41797,0 0.539063,-0.1743 0.125001,-0.17929 0.125001,-0.33368 0,-0.27888 -0.210938,-0.46813 -0.210938,-0.19421 -0.613282,-0.39839 -0.445313,-0.23904 -0.781251,-0.51794 -0.335938,-0.28387 -0.550782,-0.70717 -0.210938,-0.4233 -0.210938,-1.00098 0,-0.55779 0.214844,-1.00599 0.214844,-0.45318 0.656251,-0.72212 0.441407,-0.26891 1.078126,-0.26891 0.453126,0 0.835939,0.11449 0.386719,0.10951 0.636719,0.249 0.250001,0.13944 0.343751,0.21914 v 1.6185 q -0.332032,-0.30377 -0.742189,-0.54281 -0.40625,-0.23905 -0.871094,-0.23905 -0.304688,0 -0.441407,0.1494 -0.136719,0.14941 -0.136719,0.36853 0,0.20418 0.136719,0.35358 0.136719,0.1494 0.488282,0.36355 0.625,0.37351 1.000001,0.67231 0.375,0.2988 0.585938,0.69223 0.214844,0.38845 0.214844,0.97111 z m 6.300789,-3.21714 h -1.984378 v 5.22411 H 37.17265 v -5.22411 h -1.984377 v -1.67826 h 5.597663 z m 3.054692,3.49105 h -2.558597 v -1.66334 h 2.558597 z m 7.47657,1.73306 H 49.21954 l -0.57422,-0.86653 q -0.02734,-0.0499 -0.339844,-0.52789 -0.3125,-0.48306 -0.414063,-0.65737 -0.468751,0.80677 -0.765626,1.27491 l -0.496094,0.77688 h -2.066409 l 2.296878,-3.59062 -2.191409,-3.31175 h 2.08594 l 0.371094,0.57768 q 0.320313,0.50298 0.765626,1.25499 0.425782,-0.79682 0.679688,-1.18029 l 0.425782,-0.65238 h 2.046877 l -2.105471,3.31175 z m 4.597661,-2.79381 h -2.246096 v 2.79381 h -1.632814 v -6.90237 h 3.87891 v 1.38445 h -2.246096 v 1.33466 h 2.246096 z"
         id="text1"
         style="font-weight:bold;font-size:8.00001px;font-family:'Gill Sans';-inkscape-font-specification:'Gill Sans Bold';stroke-width:0.528105"
         aria-label="ST-XF" />
    </g>
  </g>
  <g
     inkscape:groupmode="layer"
     id="layer1"
     inkscape:label="components"
     style="display:none">
    <circle
       id="OutR"
       cx="65.199997"
       cy="314.64999"
       r="11.34"
       style="fill:#0000ff"
       data-name="Main Right Out" />
    <circle
       id="OutL"
       cx="20.700001"
       cy="314.64999"
       r="11.34"
       style="fill:#0000ff"
       data-name="Main Left Out" />
    <circle
       id="InBR"
       cx="65.199997"
       cy="275"
       r="11.34"
       style="fill:#00ff00"
       data-name="Ch. B Right In" />
    <circle
       id="InBL"
       cx="20.700001"
       cy="275"
       r="11.34"
       style="fill:#00ff00"
       data-name="Ch. B Left In" />
    <circle
       id="InAR"
       cx="65.199997"
       cy="235.25"
       r="11.34"
       style="fill:#00ff00"
       data-name="Ch. A Right In" />
    <circle
       id="InAL"
       cx="20.700001"
       cy="235.25"
       r="11.34"
       style="fill:#00ff00"
       data-name="Ch. A Left In" />
    <circle
       id="Shape"
       cx="43.200001"
       cy="172.2"
       r="17.01"
       style="fill:#ff0000"
       data-name="Shape!0!100!%" />
    <circle
       id="MixCv"
       cx="43.200001"
       cy="109.98"
       r="11.34"
       style="fill:#00ff00"
       data-name="Mix CV In" />
    <circle
       id="Mix"
       cx="43.200001"
       cy="53.299999"
       r="17.01"
       style="fill:#ff0000"
       data-name="Mix!-100!100!%" />
  </g>
</svg>
