<?xml version="1.0" encoding="UTF-8" standalone="no"?>
<svg
   width="30.48mm"
   height="128.5mm"
   viewBox="0 0 86.4 364.25251"
   version="1.1"
   id="svg87"
   sodipodi:docname="StereoWidth_info.svg"
   inkscape:version="1.4 (e7c3feb1, 2024-10-09)"
   xmlns:inkscape="http://www.inkscape.org/namespaces/inkscape"
   xmlns:sodipodi="http://sodipodi.sourceforge.net/DTD/sodipodi-0.dtd"
   xmlns="http://www.w3.org/2000/svg"
   xmlns:svg="http://www.w3.org/2000/svg">
  <defs
     id="defs87" />
  <sodipodi:namedview
     id="namedview87"
     pagecolor="#ffffff"
     bordercolor="#000000"
     borderopacity="0.25"
     inkscape:showpageshadow="2"
     inkscape:pageopacity="0.0"
     inkscape:pagecheckerboard="0"
     inkscape:deskcolor="#d1d1d1"
     inkscape:document-units="mm"
     inkscape:zoom="1.7816103"
     inkscape:cx="12.348379"
     inkscape:cy="261.28048"
     inkscape:window-width="1200"
     inkscape:window-height="1080"
     inkscape:window-x="1920"
     inkscape:window-y="25"
     inkscape:window-maximized="0"
     inkscape:current-layer="art" />
  <g
     inkscape:groupmode="layer"
     id="layer3"
     inkscape:label="artwork">
    <g
       id="panel">
      <g
         id="g1">
        <rect
           y="0"
           width="86.400002"
           height="364.25"
           style="fill:#ededee"
           id="rect1"
           x="0" />
        <path
           d="M 86.15,0.25 V 364 H 0.25 V 0.25 h 85.9 M 86.4,0 H 0 v 364.25 h 86.4 z"
           style="fill:#9c9c9e"
           id="path1" />
      </g>
    </g>
    <g
       id="art">
      <path
         d="m 20.76,176.67 v 5.79 h 3.31 v 1.03 h -4.63 v -6.82 z"
         id="path2" />
      <path
         d="m 65.73,176.67 c 0.64,0 1.16,0.18 1.57,0.53 0.4,0.35 0.61,0.82 0.61,1.39 0,0.39 -0.1,0.73 -0.3,1.01 -0.2,0.28 -0.5,0.52 -0.89,0.68 0.22,0.12 0.41,0.28 0.58,0.48 0.17,0.2 0.38,0.54 0.63,1.02 0.42,0.83 0.73,1.4 0.93,1.71 h -1.47 c -0.1,-0.15 -0.24,-0.39 -0.41,-0.72 -0.38,-0.73 -0.65,-1.21 -0.83,-1.47 -0.18,-0.26 -0.34,-0.43 -0.51,-0.54 -0.16,-0.11 -0.35,-0.16 -0.56,-0.16 H 64.6 v 2.88 h -1.32 v -6.82 h 2.46 z m -0.3,2.91 c 0.35,0 0.62,-0.09 0.81,-0.26 0.2,-0.17 0.29,-0.41 0.29,-0.71 0,-0.3 -0.1,-0.55 -0.29,-0.7 -0.19,-0.15 -0.47,-0.23 -0.83,-0.23 h -0.82 v 1.9 z"
         id="path3" />
      <path
         d="m 76.55,340.47 c 2.81,0 6.16,-2.95 6.16,-6.07 l 0.18,-22.41 c 0,-8.09 -6.35,-14.65 -14.18,-14.65 H 17.69 c -7.83,0 -14.18,6.56 -14.18,14.65 v 20.46 c 0,2.69 0.57,6.59 2.85,7.15 0.76,0.29 1.59,0.46 2.47,0.46 h 10.15 l 46.06,0.4 h 11.5 z"
         id="path4" />
      <g
         id="text">
        <path
           d="m 35.455821,356.42947 q 0,0.64741 -0.26172,1.12052 -0.257813,0.47311 -0.722659,0.72709 -0.464847,0.24901 -1.066412,0.24901 -0.16797,0 -0.414065,-0.0298 -0.242188,-0.0249 -0.64844,-0.1494 -0.402346,-0.12456 -0.839848,-0.36853 v -1.69323 q 0.410158,0.3237 0.804691,0.53785 0.39844,0.21414 0.851567,0.21414 0.417971,0 0.539065,-0.1743 0.125001,-0.17928 0.125001,-0.33367 0,-0.27888 -0.210939,-0.46813 -0.210938,-0.19422 -0.613284,-0.39841 -0.445315,-0.23904 -0.781254,-0.51792 -0.335939,-0.28387 -0.550784,-0.70718 -0.210939,-0.4233 -0.210939,-1.001 0,-0.55776 0.214845,-1.00598 0.214845,-0.45319 0.656254,-0.72212 0.441408,-0.26891 1.07813,-0.26891 0.453127,0 0.835942,0.11449 0.38672,0.10951 0.636722,0.249 0.250001,0.13944 0.343751,0.21913 v 1.61853 q -0.332033,-0.3038 -0.742191,-0.54284 -0.406252,-0.23904 -0.871098,-0.23904 -0.304689,0 -0.441409,0.1494 -0.136719,0.14941 -0.136719,0.36853 0,0.20418 0.136719,0.35359 0.13672,0.1494 0.488284,0.36355 0.625003,0.37351 1.000005,0.6723 0.375002,0.29881 0.585941,0.69225 0.214844,0.38843 0.214844,0.97111 z m 6.300813,-3.21714 h -1.984385 v 5.22411 h -1.628914 v -5.22411 H 36.15895 v -1.6783 h 5.597684 z m 3.054703,3.49104 H 42.25273 v -1.66334 h 2.558607 z m 10.132863,-5.16934 -2.343762,6.99206 h -0.945317 l -1.406257,-4.06874 -1.441413,4.06874 h -0.95313 l -2.296887,-6.99206 h 1.691415 l 1.125006,3.82472 1.289069,-3.82472 h 1.167974 l 1.265632,3.82472 1.175787,-3.82472 z"
           id="text1"
           style="font-weight:bold;font-size:8.00004px;font-family:'Gill Sans';-inkscape-font-specification:'Gill Sans Bold';stroke-width:0.528106"
           aria-label="ST-W" />
        <g
           id="g11">
          <path
             d="m 34.78,124.75 -2.06,5.48 h -0.83 l -1.24,-3.19 -1.27,3.19 h -0.84 l -2.02,-5.48 h 1.49 l 0.99,3 1.13,-3 h 1.03 l 1.11,3 1.03,-3 h 1.47 z"
             id="path5" />
          <path
             d="m 36.26,130.16 h -1.24 v -3.98 h 1.24 z m -0.1,-4.89 c 0,0.16 -0.05,0.3 -0.15,0.42 -0.1,0.12 -0.23,0.17 -0.37,0.17 -0.1,0 -0.18,-0.03 -0.26,-0.08 -0.08,-0.05 -0.14,-0.12 -0.19,-0.21 -0.05,-0.09 -0.07,-0.19 -0.07,-0.3 0,-0.16 0.05,-0.3 0.15,-0.42 0.1,-0.12 0.22,-0.18 0.37,-0.18 0.15,0 0.26,0.06 0.37,0.18 0.11,0.12 0.15,0.26 0.15,0.42 z"
             id="path6" />
          <path
             d="m 40.53,130.16 h -1.24 v -0.36 c -0.13,0.12 -0.27,0.23 -0.41,0.31 -0.14,0.08 -0.35,0.12 -0.6,0.12 -0.25,0 -0.5,-0.07 -0.75,-0.21 -0.25,-0.14 -0.45,-0.37 -0.6,-0.67 -0.16,-0.3 -0.24,-0.69 -0.24,-1.15 0,-0.36 0.06,-0.7 0.18,-1.02 0.12,-0.32 0.31,-0.57 0.56,-0.77 0.25,-0.2 0.57,-0.3 0.94,-0.3 0.23,0 0.42,0.03 0.56,0.09 0.14,0.06 0.27,0.13 0.38,0.22 v -1.67 h 1.24 v 5.41 z m -1.24,-1.27 v -1.52 c -0.14,-0.09 -0.26,-0.16 -0.34,-0.2 -0.08,-0.04 -0.18,-0.06 -0.29,-0.06 -0.19,0 -0.36,0.09 -0.49,0.28 -0.13,0.19 -0.19,0.44 -0.19,0.77 0,0.35 0.07,0.61 0.2,0.77 0.13,0.16 0.29,0.24 0.48,0.24 0.15,0 0.27,-0.03 0.36,-0.08 0.09,-0.05 0.18,-0.12 0.26,-0.2 z"
             id="path7" />
          <path
             d="m 43.8,129.93 c -0.13,0.07 -0.31,0.14 -0.53,0.2 -0.22,0.06 -0.44,0.1 -0.65,0.1 -0.89,0 -1.34,-0.49 -1.34,-1.48 v -1.59 h -0.56 v -0.25 l 1.66,-1.92 h 0.14 v 1.19 h 1.18 v 0.98 h -1.18 v 1.27 c 0,0.15 0,0.27 0.02,0.36 0.02,0.09 0.06,0.17 0.14,0.23 0.07,0.06 0.19,0.09 0.34,0.09 0.2,0 0.46,-0.09 0.78,-0.28 z"
             id="path8" />
          <path
             d="m 47.79,130.16 h -1.24 v -2.06 c 0,0 0,-0.03 0,-0.04 0,-0.01 0,-0.04 0,-0.09 0,-0.19 -0.04,-0.36 -0.11,-0.52 -0.07,-0.16 -0.21,-0.24 -0.41,-0.24 -0.16,0 -0.29,0.06 -0.41,0.18 -0.12,0.12 -0.23,0.27 -0.34,0.45 v 2.34 h -1.24 v -5.41 h 1.24 v 2.01 c 0.2,-0.25 0.41,-0.42 0.61,-0.51 0.2,-0.09 0.41,-0.13 0.64,-0.13 0.84,0 1.26,0.54 1.26,1.61 v 2.44 z"
             id="path9" />
          <path
             d="m 54.53,129.75 c -0.2,0.12 -0.4,0.21 -0.6,0.28 -0.21,0.07 -0.42,0.12 -0.62,0.15 -0.21,0.03 -0.43,0.04 -0.65,0.04 -0.42,0 -0.79,-0.06 -1.12,-0.2 -0.33,-0.13 -0.61,-0.32 -0.86,-0.58 -0.24,-0.25 -0.42,-0.55 -0.54,-0.89 -0.12,-0.34 -0.18,-0.71 -0.18,-1.12 0,-0.47 0.07,-0.87 0.21,-1.22 0.14,-0.35 0.34,-0.64 0.6,-0.87 0.26,-0.23 0.55,-0.4 0.87,-0.51 0.32,-0.11 0.67,-0.17 1.03,-0.17 0.54,0 1.15,0.14 1.84,0.41 v 1.44 c -0.24,-0.17 -0.47,-0.31 -0.7,-0.42 -0.23,-0.11 -0.5,-0.17 -0.81,-0.17 -0.28,0 -0.54,0.06 -0.78,0.19 -0.24,0.12 -0.43,0.3 -0.58,0.54 -0.15,0.24 -0.22,0.5 -0.22,0.81 0,0.27 0.06,0.52 0.19,0.75 0.13,0.23 0.31,0.41 0.53,0.54 0.23,0.13 0.49,0.2 0.77,0.2 0.23,0 0.45,-0.03 0.66,-0.1 0.21,-0.06 0.38,-0.13 0.52,-0.21 0.14,-0.08 0.29,-0.17 0.43,-0.28 v 1.37 z"
             id="path10" />
          <path
             d="m 59.88,124.75 -2.15,5.48 h -0.95 l -2.11,-5.48 h 1.5 l 1.09,3.12 1.12,-3.12 z"
             id="path11" />
        </g>
        <g
           id="g16">
          <path
             d="m 35.33,235.12 c 0,0.2 -0.03,0.4 -0.09,0.59 -0.06,0.19 -0.16,0.37 -0.29,0.54 -0.13,0.17 -0.32,0.3 -0.55,0.4 -0.23,0.1 -0.5,0.15 -0.81,0.15 h -0.94 v 2.03 h -1.44 v -5.41 h 2.38 c 0.31,0 0.58,0.05 0.81,0.16 0.23,0.1 0.41,0.24 0.55,0.41 0.14,0.17 0.23,0.35 0.29,0.54 0.06,0.2 0.09,0.39 0.09,0.6 z m -1.47,0.01 c 0,-0.26 -0.07,-0.43 -0.2,-0.53 -0.13,-0.09 -0.37,-0.14 -0.72,-0.14 h -0.3 v 1.3 h 0.31 c 0.24,0 0.42,-0.02 0.55,-0.05 0.13,-0.03 0.22,-0.1 0.28,-0.19 0.06,-0.09 0.09,-0.22 0.09,-0.39 z"
             id="path12" />
          <path
             d="m 39.27,238.63 c -0.18,0.08 -0.35,0.15 -0.5,0.2 -0.15,0.05 -0.34,0.07 -0.55,0.07 -0.2,0 -0.35,-0.04 -0.43,-0.12 -0.08,-0.08 -0.14,-0.18 -0.17,-0.3 -0.13,0.12 -0.28,0.22 -0.44,0.3 -0.16,0.08 -0.38,0.12 -0.64,0.12 -0.26,0 -0.46,-0.05 -0.62,-0.15 -0.16,-0.1 -0.27,-0.23 -0.33,-0.38 -0.06,-0.15 -0.09,-0.31 -0.09,-0.47 0,-0.24 0.05,-0.45 0.16,-0.61 0.11,-0.16 0.25,-0.29 0.44,-0.39 0.18,-0.1 0.43,-0.21 0.73,-0.32 0.17,-0.06 0.3,-0.11 0.39,-0.14 0.09,-0.03 0.15,-0.06 0.2,-0.08 0.04,-0.02 0.09,-0.04 0.14,-0.07 0,-0.19 -0.03,-0.34 -0.1,-0.45 -0.07,-0.11 -0.22,-0.16 -0.45,-0.16 -0.27,0 -0.52,0.07 -0.75,0.2 -0.23,0.14 -0.44,0.31 -0.64,0.52 v -1.08 c 0.15,-0.12 0.32,-0.23 0.5,-0.31 0.18,-0.08 0.37,-0.14 0.56,-0.18 0.19,-0.04 0.39,-0.06 0.59,-0.06 0.51,0 0.89,0.11 1.14,0.33 0.26,0.22 0.38,0.53 0.38,0.92 v 1.54 c 0,0.15 0.01,0.25 0.04,0.33 0.02,0.07 0.07,0.11 0.13,0.11 0.08,0 0.18,-0.04 0.32,-0.11 v 0.74 z m -1.72,-0.76 v -0.94 c -0.29,0.14 -0.51,0.26 -0.64,0.37 -0.14,0.11 -0.2,0.25 -0.2,0.44 0,0.13 0.03,0.23 0.1,0.3 0.07,0.07 0.15,0.11 0.24,0.11 0.08,0 0.17,-0.03 0.25,-0.08 0.08,-0.05 0.17,-0.12 0.26,-0.19 z"
             id="path13" />
          <path
             d="m 43.11,238.83 h -1.24 v -2.14 c 0,-0.22 -0.03,-0.41 -0.09,-0.57 -0.06,-0.16 -0.2,-0.24 -0.41,-0.24 -0.1,0 -0.19,0.02 -0.27,0.06 -0.08,0.04 -0.15,0.1 -0.21,0.17 -0.06,0.07 -0.11,0.13 -0.15,0.2 -0.04,0.06 -0.08,0.13 -0.13,0.2 v 2.34 h -1.24 v -3.98 h 1.24 v 0.57 c 0.19,-0.24 0.39,-0.4 0.59,-0.5 0.2,-0.09 0.41,-0.14 0.65,-0.14 0.84,0 1.26,0.57 1.26,1.71 v 2.34 z"
             id="path14" />
          <path
             d="m 49.85,238.43 c -0.2,0.12 -0.4,0.21 -0.61,0.28 -0.21,0.07 -0.41,0.12 -0.62,0.15 -0.21,0.03 -0.43,0.04 -0.65,0.04 -0.42,0 -0.79,-0.06 -1.12,-0.2 -0.33,-0.13 -0.61,-0.32 -0.86,-0.58 -0.24,-0.25 -0.42,-0.55 -0.54,-0.89 -0.12,-0.34 -0.18,-0.71 -0.18,-1.12 0,-0.47 0.07,-0.87 0.21,-1.22 0.14,-0.35 0.34,-0.64 0.6,-0.87 0.26,-0.23 0.55,-0.4 0.87,-0.51 0.33,-0.11 0.67,-0.17 1.03,-0.17 0.54,0 1.15,0.14 1.84,0.41 v 1.44 c -0.24,-0.17 -0.47,-0.3 -0.7,-0.42 -0.23,-0.11 -0.5,-0.17 -0.81,-0.17 -0.28,0 -0.54,0.06 -0.78,0.19 -0.24,0.12 -0.43,0.3 -0.58,0.54 -0.15,0.23 -0.22,0.5 -0.22,0.81 0,0.27 0.06,0.52 0.19,0.75 0.13,0.23 0.31,0.41 0.53,0.54 0.23,0.13 0.49,0.2 0.77,0.2 0.23,0 0.45,-0.03 0.66,-0.1 0.21,-0.06 0.38,-0.13 0.52,-0.21 0.14,-0.08 0.29,-0.17 0.44,-0.28 v 1.37 z"
             id="path15" />
          <path
             d="m 55.2,233.42 -2.15,5.48 H 52.1 l -2.11,-5.48 h 1.5 l 1.09,3.12 1.12,-3.12 z"
             id="path16" />
        </g>
        <g
           id="g19">
          <path
             d="M 16.14,294.29 H 14.7 v -5.41 h 1.44 z"
             id="path17" />
          <path
             d="m 20.59,294.29 h -1.24 v -2.14 c 0,-0.22 -0.03,-0.41 -0.09,-0.57 -0.06,-0.16 -0.2,-0.24 -0.41,-0.24 -0.1,0 -0.19,0.02 -0.27,0.06 -0.08,0.04 -0.15,0.1 -0.21,0.17 -0.06,0.07 -0.11,0.13 -0.15,0.2 -0.04,0.06 -0.08,0.13 -0.13,0.2 v 2.34 h -1.24 v -3.98 h 1.24 v 0.57 c 0.19,-0.24 0.39,-0.4 0.59,-0.5 0.2,-0.1 0.41,-0.14 0.65,-0.14 0.84,0 1.26,0.57 1.26,1.71 v 2.34 z"
             id="path18" />
          <path
             d="m 26.68,294.29 h -3.62 v -5.41 H 24.5 V 293 h 2.18 v 1.3 z"
             id="path19" />
        </g>
        <g
           id="g22">
          <path
             d="m 60.15,294.29 h -1.44 v -5.41 h 1.44 z"
             id="path20" />
          <path
             d="m 64.6,294.29 h -1.24 v -2.14 c 0,-0.22 -0.03,-0.41 -0.09,-0.57 -0.06,-0.16 -0.2,-0.24 -0.41,-0.24 -0.1,0 -0.19,0.02 -0.27,0.06 -0.08,0.04 -0.15,0.1 -0.21,0.17 -0.06,0.07 -0.11,0.13 -0.15,0.2 -0.04,0.07 -0.08,0.13 -0.13,0.2 v 2.34 h -1.24 v -3.98 h 1.24 v 0.57 c 0.19,-0.24 0.39,-0.4 0.59,-0.5 0.2,-0.1 0.41,-0.14 0.65,-0.14 0.84,0 1.26,0.57 1.26,1.71 v 2.34 z"
             id="path21" />
          <path
             d="m 71.69,294.29 h -1.54 l -0.38,-0.96 c -0.14,-0.35 -0.26,-0.61 -0.37,-0.77 -0.11,-0.16 -0.22,-0.27 -0.32,-0.31 -0.1,-0.05 -0.24,-0.07 -0.4,-0.07 h -0.16 v 2.11 h -1.44 v -5.41 h 2.44 c 0.39,0 0.72,0.09 0.97,0.27 0.25,0.18 0.43,0.4 0.54,0.66 0.11,0.26 0.17,0.51 0.17,0.74 0,0.27 -0.05,0.5 -0.14,0.69 -0.09,0.19 -0.19,0.33 -0.29,0.41 -0.1,0.09 -0.22,0.17 -0.35,0.25 0.15,0.1 0.28,0.22 0.38,0.36 0.1,0.14 0.24,0.42 0.41,0.85 z m -1.96,-3.71 c 0,-0.25 -0.07,-0.42 -0.22,-0.52 -0.14,-0.1 -0.38,-0.15 -0.71,-0.15 h -0.3 v 1.3 h 0.31 c 0.35,0 0.59,-0.04 0.72,-0.13 0.13,-0.09 0.19,-0.25 0.19,-0.5 z"
             id="path22" />
        </g>
        <g
           id="g26">
          <path
             d="m 16.77,333.13 c 0,0.51 -0.1,0.97 -0.31,1.39 -0.21,0.42 -0.51,0.76 -0.92,1.01 -0.41,0.25 -0.9,0.38 -1.48,0.38 -0.58,0 -1.09,-0.13 -1.5,-0.39 -0.41,-0.26 -0.71,-0.6 -0.91,-1.03 -0.2,-0.42 -0.3,-0.88 -0.3,-1.36 0,-0.48 0.1,-0.94 0.3,-1.37 0.2,-0.42 0.5,-0.76 0.91,-1.02 0.41,-0.26 0.91,-0.39 1.5,-0.39 0.44,0 0.83,0.07 1.18,0.22 0.35,0.15 0.63,0.35 0.85,0.6 0.22,0.25 0.39,0.55 0.51,0.89 0.11,0.34 0.17,0.69 0.17,1.06 z m -1.47,0 c 0,-0.2 -0.03,-0.39 -0.08,-0.56 -0.05,-0.17 -0.13,-0.31 -0.24,-0.44 -0.11,-0.12 -0.24,-0.22 -0.39,-0.29 -0.15,-0.07 -0.33,-0.1 -0.53,-0.1 -0.39,0 -0.69,0.13 -0.91,0.38 -0.22,0.26 -0.33,0.59 -0.33,1 0,0.41 0.11,0.75 0.33,1.01 0.22,0.26 0.52,0.38 0.91,0.38 0.26,0 0.49,-0.06 0.67,-0.18 0.19,-0.12 0.33,-0.28 0.42,-0.49 0.1,-0.21 0.14,-0.45 0.14,-0.72 z"
             style="fill:#ffffff"
             id="path23" />
          <path
             d="m 20.86,335.84 h -1.24 v -0.57 c -0.17,0.21 -0.36,0.37 -0.55,0.48 -0.19,0.11 -0.42,0.16 -0.69,0.16 -0.53,0 -0.87,-0.17 -1.03,-0.53 -0.16,-0.35 -0.23,-0.75 -0.23,-1.19 v -2.34 h 1.24 V 334 c 0,0.22 0.03,0.41 0.1,0.57 0.06,0.16 0.2,0.24 0.41,0.24 0.18,0 0.33,-0.06 0.43,-0.18 0.11,-0.12 0.21,-0.27 0.32,-0.45 v -2.34 h 1.24 v 3.98 z"
             style="fill:#ffffff"
             id="path24" />
          <path
             d="m 24.13,335.61 c -0.13,0.07 -0.31,0.14 -0.53,0.2 -0.23,0.07 -0.44,0.1 -0.65,0.1 -0.89,0 -1.34,-0.49 -1.34,-1.48 v -1.59 h -0.56 v -0.25 l 1.66,-1.92 h 0.14 v 1.19 h 1.18 v 0.98 h -1.18 v 1.27 c 0,0.15 0,0.27 0.02,0.36 0.02,0.09 0.06,0.17 0.14,0.23 0.07,0.06 0.19,0.09 0.34,0.09 0.2,0 0.46,-0.09 0.78,-0.28 z"
             style="fill:#ffffff"
             id="path25" />
          <path
             d="m 30.03,335.84 h -3.62 v -5.41 h 1.44 v 4.12 h 2.18 v 1.3 z"
             style="fill:#ffffff"
             id="path26" />
        </g>
        <g
           id="g30">
          <path
             d="m 60.77,333.13 c 0,0.51 -0.1,0.97 -0.31,1.39 -0.21,0.42 -0.51,0.76 -0.92,1.01 -0.41,0.25 -0.9,0.38 -1.48,0.38 -0.58,0 -1.09,-0.13 -1.5,-0.39 -0.41,-0.26 -0.71,-0.6 -0.91,-1.03 -0.2,-0.42 -0.3,-0.88 -0.3,-1.36 0,-0.48 0.1,-0.94 0.3,-1.37 0.2,-0.42 0.5,-0.76 0.91,-1.02 0.41,-0.26 0.91,-0.39 1.5,-0.39 0.44,0 0.83,0.07 1.18,0.22 0.34,0.15 0.63,0.35 0.85,0.6 0.22,0.25 0.39,0.55 0.5,0.89 0.12,0.34 0.17,0.69 0.17,1.06 z m -1.46,0 c 0,-0.2 -0.03,-0.39 -0.08,-0.56 -0.05,-0.17 -0.13,-0.31 -0.24,-0.44 -0.11,-0.12 -0.24,-0.22 -0.39,-0.29 -0.15,-0.07 -0.33,-0.1 -0.53,-0.1 -0.38,0 -0.69,0.13 -0.91,0.38 -0.22,0.26 -0.33,0.59 -0.33,1 0,0.41 0.11,0.75 0.33,1.01 0.22,0.26 0.52,0.38 0.91,0.38 0.26,0 0.49,-0.06 0.67,-0.18 0.19,-0.12 0.33,-0.28 0.42,-0.49 0.1,-0.21 0.14,-0.45 0.14,-0.72 z"
             style="fill:#ffffff"
             id="path27" />
          <path
             d="m 64.87,335.84 h -1.24 v -0.57 c -0.17,0.21 -0.36,0.37 -0.55,0.48 -0.19,0.11 -0.42,0.16 -0.69,0.16 -0.53,0 -0.87,-0.17 -1.03,-0.53 -0.16,-0.35 -0.23,-0.75 -0.23,-1.19 v -2.34 h 1.24 V 334 c 0,0.22 0.03,0.41 0.09,0.57 0.06,0.16 0.2,0.24 0.41,0.24 0.18,0 0.33,-0.06 0.43,-0.18 0.1,-0.12 0.21,-0.27 0.32,-0.45 v -2.34 h 1.24 v 3.98 z"
             style="fill:#ffffff"
             id="path28" />
          <path
             d="m 68.14,335.61 c -0.13,0.07 -0.31,0.14 -0.53,0.2 -0.23,0.07 -0.44,0.1 -0.65,0.1 -0.89,0 -1.34,-0.49 -1.34,-1.48 v -1.59 h -0.56 v -0.25 l 1.66,-1.92 h 0.14 v 1.19 h 1.18 v 0.98 h -1.18 v 1.27 c 0,0.15 0,0.27 0.02,0.36 0.02,0.09 0.06,0.17 0.14,0.23 0.07,0.06 0.19,0.09 0.34,0.09 0.2,0 0.46,-0.09 0.78,-0.28 z"
             style="fill:#ffffff"
             id="path29" />
          <path
             d="m 75.03,335.84 h -1.54 l -0.38,-0.96 c -0.14,-0.35 -0.26,-0.61 -0.37,-0.77 -0.11,-0.16 -0.22,-0.27 -0.32,-0.31 -0.1,-0.04 -0.24,-0.07 -0.4,-0.07 h -0.16 v 2.11 h -1.44 v -5.41 h 2.44 c 0.39,0 0.72,0.09 0.97,0.27 0.25,0.18 0.43,0.4 0.54,0.66 0.11,0.26 0.17,0.51 0.17,0.74 0,0.27 -0.05,0.5 -0.14,0.69 -0.09,0.19 -0.19,0.33 -0.29,0.41 -0.1,0.09 -0.22,0.17 -0.35,0.25 0.15,0.1 0.28,0.22 0.38,0.36 0.1,0.14 0.24,0.42 0.41,0.85 z m -1.96,-3.71 c 0,-0.25 -0.07,-0.42 -0.22,-0.52 -0.14,-0.1 -0.38,-0.15 -0.7,-0.15 h -0.3 v 1.3 h 0.31 c 0.35,0 0.59,-0.04 0.72,-0.13 0.13,-0.09 0.19,-0.25 0.19,-0.5 z"
             style="fill:#ffffff"
             id="path30" />
        </g>
        <g
           id="g40">
          <path
             d="m 35,18.05 c -0.37,0 -0.71,-0.17 -0.97,-0.47 -0.51,-0.6 -0.52,-1.54 -0.04,-2.16 l 6.97,-8.88 c 0.38,-0.48 1.05,-0.65 1.57,-0.39 0.5,0.25 0.79,0.82 0.79,1.45 v 4.77 l 4.64,-5.85 c 0.38,-0.48 1.01,-0.64 1.53,-0.38 0.5,0.25 0.83,0.81 0.83,1.44 v 8.82 c 0,0.86 -0.61,1.57 -1.36,1.57 -0.75,0 -1.36,-0.7 -1.36,-1.57 v -4.79 l -4.64,5.85 c -0.38,0.48 -1.01,0.64 -1.54,0.38 -0.5,-0.24 -0.83,-0.81 -0.83,-1.44 v -4.67 l -4.61,5.8 c -0.26,0.32 -0.62,0.51 -1,0.51 v 0 z"
             style="fill:#2cabe1"
             id="path38" />
          <path
             d="m 35,18.05 c -0.75,0 -1.35,-0.7 -1.35,-1.57 v -4.93 l -2.26,2.84 c -0.5,0.63 -1.44,0.65 -1.97,0.04 -0.51,-0.6 -0.52,-1.53 -0.03,-2.15 L 34,6.52 c 0.26,-0.32 0.63,-0.5 1,-0.5 0.18,0 0.37,0.04 0.54,0.12 0.5,0.25 0.82,0.81 0.82,1.44 v 8.89 c 0,0.86 -0.61,1.57 -1.36,1.57 v 0 z"
             style="fill:#ea2228"
             id="path39" />
          <path
             d="m 51.6,18.07 v 0 c -0.35,0 -0.68,-0.15 -0.94,-0.42 -0.76,-0.78 -0.14,-1.84 0.29,-2.3 l 1.95,-2.36 -1.26,-0.02 c -0.56,-0.01 -1.04,-0.4 -1.24,-1 -0.19,-0.56 -0.07,-1.21 0.29,-1.64 L 53.85,6.5 c 0.23,-0.28 0.55,-0.48 1.13,-0.47 0.33,0 0.67,0.17 0.92,0.4 0.71,0.66 0.29,1.7 -0.07,2.2 l -1.04,1.26 1.26,0.02 c 0.56,0.01 1.04,0.4 1.24,1 0.19,0.56 0.07,1.21 -0.29,1.64 l -4.1,4.97 c -0.35,0.35 -0.65,0.55 -1.3,0.54 v 0 z"
             style="fill:#00a650"
             id="path40" />
        </g>
      </g>
      <g
         id="g50">
        <path
           d="m 52.2,35.74 1.13,-1.95 c -2.75,-1.43 -5.84,-2.3 -9.12,-2.44 v 2.26 c 2.87,0.14 5.57,0.89 7.99,2.14 z"
           id="path41" />
        <path
           d="m 59.78,42.6 1.95,-1.13 c -1.72,-2.68 -4,-4.96 -6.68,-6.68 l -1.13,1.95 c 2.34,1.52 4.33,3.51 5.85,5.85 z"
           id="path42" />
        <path
           d="m 32.47,36.74 -1.13,-1.95 c -2.68,1.72 -4.96,4 -6.68,6.68 l 1.95,1.13 c 1.52,-2.34 3.51,-4.33 5.85,-5.85 z"
           id="path43" />
        <path
           d="m 62.92,52.32 h 2.26 C 65.03,49.04 64.17,45.95 62.74,43.2 l -1.95,1.13 c 1.24,2.42 1.99,5.13 2.14,8 z"
           id="path44" />
        <path
           d="m 42.2,33.61 v -2.26 c -3.28,0.15 -6.37,1.01 -9.12,2.44 l 1.13,1.95 c 2.42,-1.24 5.13,-1.99 8,-2.14 z"
           id="path45" />
        <path
           d="m 26.62,64.05 -1.95,1.13 c 1.72,2.68 4,4.96 6.68,6.68 l 1.13,-1.95 C 30.14,68.39 28.15,66.4 26.63,64.06 Z"
           id="path46" />
        <path
           d="m 53.93,69.9 1.13,1.95 c 2.68,-1.72 4.96,-4 6.68,-6.68 l -1.95,-1.13 c -1.52,2.34 -3.51,4.33 -5.85,5.85 z"
           id="path47" />
        <path
           d="m 62.92,54.32 c -0.14,2.87 -0.89,5.57 -2.14,8 l 1.95,1.13 c 1.43,-2.75 2.3,-5.84 2.44,-9.12 h -2.26 z"
           id="path48" />
        <path
           d="m 23.48,54.32 h -2.26 c 0.15,3.28 1.01,6.37 2.44,9.12 l 1.95,-1.13 c -1.24,-2.42 -1.99,-5.13 -2.14,-8 z"
           id="path49" />
        <path
           d="M 25.62,44.33 23.67,43.2 c -1.43,2.75 -2.3,5.84 -2.44,9.12 h 2.26 c 0.14,-2.87 0.89,-5.57 2.14,-8 z"
           id="path50" />
      </g>
      <g
         id="g55">
        <path
           d="m 40.23,74.3 -2.58,6.86 h -1.04 l -1.55,-3.99 -1.59,3.99 H 32.42 L 29.89,74.3 h 1.86 l 1.24,3.75 1.42,-3.75 h 1.28 l 1.39,3.75 1.29,-3.75 h 1.84 z"
           id="path51" />
        <path
           d="M 42.08,81.07 H 40.53 V 76.1 h 1.55 z m -0.13,-6.12 c 0,0.21 -0.06,0.38 -0.19,0.52 -0.13,0.14 -0.28,0.21 -0.46,0.21 -0.12,0 -0.23,-0.03 -0.33,-0.1 -0.1,-0.06 -0.18,-0.15 -0.23,-0.27 -0.06,-0.11 -0.09,-0.24 -0.09,-0.37 0,-0.2 0.06,-0.38 0.19,-0.52 0.13,-0.14 0.28,-0.22 0.46,-0.22 0.18,0 0.33,0.07 0.46,0.22 0.13,0.15 0.19,0.32 0.19,0.52 z"
           id="path52" />
        <path
           d="m 47.42,81.07 h -1.55 v -0.45 c -0.16,0.16 -0.34,0.28 -0.52,0.39 -0.18,0.1 -0.43,0.15 -0.75,0.15 -0.32,0 -0.63,-0.09 -0.94,-0.27 -0.31,-0.18 -0.56,-0.46 -0.76,-0.84 -0.2,-0.38 -0.3,-0.86 -0.3,-1.43 0,-0.45 0.07,-0.88 0.22,-1.27 0.15,-0.39 0.38,-0.72 0.7,-0.96 0.32,-0.25 0.71,-0.37 1.17,-0.37 0.29,0 0.52,0.04 0.7,0.11 0.18,0.07 0.33,0.16 0.47,0.27 v -2.09 h 1.55 v 6.77 z m -1.55,-1.58 v -1.9 c -0.18,-0.11 -0.32,-0.2 -0.42,-0.24 -0.1,-0.04 -0.22,-0.07 -0.36,-0.07 -0.24,0 -0.45,0.12 -0.61,0.35 -0.16,0.23 -0.24,0.55 -0.24,0.96 0,0.44 0.08,0.76 0.25,0.96 0.17,0.2 0.37,0.3 0.6,0.3 0.19,0 0.34,-0.03 0.45,-0.1 0.11,-0.07 0.22,-0.15 0.33,-0.25 z"
           id="path53" />
        <path
           d="m 51.5,80.78 c -0.16,0.09 -0.38,0.17 -0.66,0.25 -0.28,0.08 -0.55,0.12 -0.81,0.12 -1.11,0 -1.67,-0.62 -1.67,-1.86 v -1.98 h -0.7 V 77 l 2.08,-2.4 h 0.18 v 1.49 h 1.48 v 1.22 h -1.48 v 1.59 c 0,0.19 0,0.34 0.03,0.45 0.02,0.11 0.08,0.21 0.17,0.29 0.09,0.08 0.23,0.11 0.42,0.11 0.25,0 0.57,-0.12 0.97,-0.35 v 1.37 z"
           id="path54" />
        <path
           d="m 56.5,81.07 h -1.55 v -2.58 c 0,0 0,-0.04 0,-0.06 0,-0.02 0,-0.06 0,-0.11 0,-0.24 -0.04,-0.46 -0.13,-0.65 -0.09,-0.2 -0.26,-0.3 -0.51,-0.3 -0.19,0 -0.37,0.07 -0.52,0.22 -0.15,0.15 -0.29,0.33 -0.42,0.56 v 2.92 H 51.82 V 74.3 h 1.55 v 2.51 c 0.25,-0.31 0.51,-0.52 0.76,-0.63 0.25,-0.11 0.51,-0.17 0.79,-0.17 1.05,0 1.57,0.67 1.57,2.01 v 3.05 z"
           id="path55" />
      </g>
      <g
         id="g58">
        <path
           d="m 40.91,184.33 c 0,0.25 -0.04,0.5 -0.11,0.74 -0.07,0.24 -0.2,0.46 -0.37,0.67 -0.17,0.21 -0.4,0.37 -0.69,0.5 -0.29,0.13 -0.63,0.19 -1.02,0.19 h -1.18 v 2.54 h -1.8 v -6.77 h 2.97 c 0.39,0 0.73,0.06 1.02,0.2 0.29,0.13 0.52,0.3 0.69,0.51 0.17,0.21 0.29,0.43 0.37,0.68 0.08,0.25 0.11,0.49 0.11,0.75 z m -1.83,0.01 c 0,-0.32 -0.08,-0.54 -0.25,-0.66 -0.17,-0.12 -0.47,-0.18 -0.9,-0.18 h -0.38 v 1.63 h 0.39 c 0.3,0 0.53,-0.02 0.69,-0.06 0.16,-0.04 0.28,-0.12 0.35,-0.23 0.07,-0.11 0.11,-0.28 0.11,-0.49 z"
           id="path56" />
        <path
           d="m 45.84,188.71 c -0.23,0.1 -0.44,0.18 -0.63,0.24 -0.19,0.06 -0.42,0.09 -0.69,0.09 -0.25,0 -0.43,-0.05 -0.53,-0.15 -0.1,-0.1 -0.17,-0.23 -0.21,-0.37 -0.17,0.15 -0.35,0.28 -0.55,0.38 -0.2,0.1 -0.47,0.15 -0.8,0.15 -0.33,0 -0.58,-0.06 -0.77,-0.19 -0.2,-0.13 -0.33,-0.28 -0.41,-0.47 -0.08,-0.19 -0.12,-0.39 -0.12,-0.59 0,-0.31 0.07,-0.56 0.2,-0.76 0.14,-0.2 0.32,-0.36 0.55,-0.49 0.23,-0.13 0.53,-0.26 0.91,-0.4 0.21,-0.08 0.38,-0.14 0.49,-0.18 0.11,-0.04 0.19,-0.07 0.25,-0.1 0.05,-0.02 0.11,-0.05 0.17,-0.09 0,-0.24 -0.04,-0.43 -0.13,-0.57 -0.09,-0.14 -0.27,-0.21 -0.56,-0.21 -0.34,0 -0.65,0.08 -0.94,0.25 -0.29,0.17 -0.55,0.39 -0.79,0.65 v -1.35 c 0.19,-0.16 0.4,-0.28 0.62,-0.38 0.22,-0.1 0.46,-0.17 0.7,-0.22 0.24,-0.05 0.49,-0.07 0.74,-0.07 0.63,0 1.11,0.14 1.43,0.42 0.32,0.28 0.48,0.66 0.48,1.15 v 1.92 c 0,0.18 0.01,0.32 0.04,0.41 0.03,0.09 0.08,0.13 0.17,0.13 0.1,0 0.23,-0.05 0.4,-0.14 v 0.92 z m -2.15,-0.95 v -1.18 c -0.37,0.17 -0.63,0.32 -0.8,0.46 -0.17,0.13 -0.25,0.32 -0.25,0.55 0,0.17 0.04,0.29 0.13,0.38 0.08,0.09 0.18,0.13 0.29,0.13 0.11,0 0.21,-0.03 0.32,-0.1 0.1,-0.07 0.21,-0.15 0.32,-0.24 z"
           id="path57" />
        <path
           d="m 50.64,188.96 h -1.55 v -2.68 c 0,-0.27 -0.04,-0.51 -0.12,-0.71 -0.08,-0.2 -0.25,-0.31 -0.52,-0.31 -0.13,0 -0.24,0.03 -0.33,0.08 -0.1,0.05 -0.18,0.12 -0.26,0.21 -0.08,0.08 -0.14,0.17 -0.19,0.24 -0.05,0.08 -0.11,0.16 -0.16,0.25 v 2.92 h -1.55 v -4.97 h 1.55 v 0.71 c 0.24,-0.3 0.49,-0.5 0.73,-0.62 0.25,-0.12 0.52,-0.18 0.82,-0.18 1.05,0 1.57,0.71 1.57,2.14 v 2.92 z"
           id="path58" />
      </g>
      <path
         d="M 82.82,274.12 C 82.51,265.19 76.29,258.19 68.66,258.19 H 17.74 c -7.63,0 -13.85,7 -14.16,15.95 l -0.06,6.83 v 9.06 l 0.07,33.47 v 0 11.26 c 0,3.5 2.84,6.34 6.34,6.34 h 13.29 c 0,0 40.05,0 40.05,0 v 0 c 0,0 13.29,0 13.29,0 3.5,0 6.34,-2.84 6.34,-6.34 v -53.8 l -0.06,-6.84 z m -0.96,50.36 v 10.28 c 0,2.93 -2.38,5.31 -5.31,5.31 H 17.78 c 0,0 0,0 0,0 H 9.92 c -2.93,0 -5.31,-2.38 -5.31,-5.31 v -10.28 0 L 4.54,290.03 v -9.06 l 0.06,-6.81 c 0.29,-8.38 6.06,-14.94 13.14,-14.94 h 50.92 c 7.07,0 12.84,6.56 13.14,14.93 l 0.06,6.82 v 43.52 z"
         id="path59"
         style="stroke-width:0.992127;stroke-dasharray:none" />
      <rect
         x="42.700001"
         y="84.650002"
         width="1"
         height="15.99"
         id="rect59"
         style="stroke-width:0.992127;stroke-dasharray:none" />
      <rect
         x="42.700001"
         y="192.23"
         width="1"
         height="15.99"
         id="rect60"
         style="stroke-width:0.992127;stroke-dasharray:none" />
      <rect
         x="274.58734"
         y="-71.398247"
         width="1"
         height="58.928749"
         id="rect60-8"
         transform="rotate(90)"
         style="stroke-width:0.992127;stroke-dasharray:none" />
      <g
         id="g69">
        <path
           d="m 52.2,143.38 1.13,-1.95 c -2.75,-1.43 -5.84,-2.3 -9.12,-2.44 v 2.26 c 2.87,0.14 5.57,0.89 7.99,2.14 z"
           id="path60" />
        <path
           d="m 59.78,150.23 1.95,-1.13 c -1.72,-2.68 -4,-4.96 -6.68,-6.68 l -1.13,1.95 c 2.34,1.52 4.33,3.51 5.85,5.85 z"
           id="path61" />
        <path
           d="m 32.47,144.38 -1.13,-1.95 c -2.68,1.72 -4.96,4 -6.68,6.68 l 1.95,1.13 c 1.52,-2.34 3.51,-4.33 5.85,-5.85 z"
           id="path62" />
        <path
           d="m 62.92,159.96 h 2.26 c -0.15,-3.28 -1.01,-6.37 -2.44,-9.12 l -1.95,1.13 c 1.24,2.42 1.99,5.13 2.14,8 z"
           id="path63" />
        <path
           d="m 42.2,141.24 v -2.26 c -3.28,0.15 -6.37,1.01 -9.12,2.44 l 1.13,1.95 c 2.42,-1.24 5.13,-1.99 8,-2.14 z"
           id="path64" />
        <path
           d="m 26.62,171.68 -1.95,1.13 c 1.72,2.68 4,4.96 6.68,6.68 l 1.13,-1.95 c -2.34,-1.52 -4.33,-3.51 -5.85,-5.85 z"
           id="path65" />
        <path
           d="m 53.93,177.54 1.13,1.95 c 2.68,-1.72 4.96,-4 6.68,-6.68 l -1.95,-1.13 c -1.52,2.34 -3.51,4.33 -5.85,5.85 z"
           id="path66" />
        <path
           d="m 62.92,161.96 c -0.14,2.87 -0.89,5.57 -2.14,8 l 1.95,1.13 c 1.43,-2.75 2.3,-5.84 2.44,-9.12 h -2.26 z"
           id="path67" />
        <path
           d="m 23.48,161.96 h -2.26 c 0.15,3.28 1.01,6.37 2.44,9.12 l 1.95,-1.13 c -1.24,-2.42 -1.99,-5.13 -2.14,-8 z"
           id="path68" />
        <path
           d="m 25.62,151.96 -1.95,-1.13 c -1.43,2.75 -2.3,5.84 -2.44,9.12 h 2.26 c 0.14,-2.87 0.89,-5.57 2.14,-8 z"
           id="path69" />
      </g>
    </g>
  </g>
  <g
     inkscape:groupmode="layer"
     id="layer2"
     inkscape:label="components"
     style="display:none">
    <circle
       id="OutR"
       cx="65.199997"
       cy="314.64999"
       r="11.34"
       style="fill:#0000ff"
       data-name="Audio Right Out" />
    <circle
       id="OutL"
       cx="20.700001"
       cy="314.64999"
       r="11.34"
       style="fill:#0000ff"
       data-name="Audio Left Out" />
    <circle
       id="InR"
       cx="65.199997"
       cy="275"
       r="11.34"
       style="fill:#00ff00"
       data-name="Audio Right In" />
    <circle
       id="InL"
       cx="20.700001"
       cy="275"
       r="11.34"
       style="fill:#00ff00"
       data-name="Audio Left In" />
    <circle
       id="PanCv"
       cx="43.200001"
       cy="217.55"
       r="11.34"
       style="fill:#00ff00"
       data-name="Pan Cv In" />
    <circle
       id="Pan"
       cx="43.200001"
       cy="160.89999"
       r="17.01"
       style="fill:#ff0000"
       data-name="Pan!-100!100!%" />
    <circle
       id="WidthCv"
       cx="43.200001"
       cy="110"
       r="11.34"
       style="fill:#00ff00"
       data-name="Width Cv In" />
    <circle
       id="Width"
       cx="43.200001"
       cy="53.299999"
       r="17.01"
       style="fill:#ff0000"
       data-name="Width!0!100!%" />
    <text
       id="slug"
       transform="translate(36.96,368.86)"
       style="font-size:3px;font-family:MyriadPro-Regular, 'Myriad Pro';fill:#010101"><tspan
         x="0"
         y="0"
         style="letter-spacing:0em"
         id="tspan69">S</tspan><tspan
         x="1.47"
         y="0"
         style="letter-spacing:0em"
         id="tspan70">t</tspan><tspan
         x="2.45"
         y="0"
         id="tspan71">e</tspan><tspan
         x="3.95"
         y="0"
         style="letter-spacing:-0.01em"
         id="tspan72">r</tspan><tspan
         x="4.9000001"
         y="0"
         id="tspan73">eo</tspan><tspan
         x="8.0500002"
         y="0"
         style="letter-spacing:-0.02em"
         id="tspan74">W</tspan><tspan
         x="10.54"
         y="0"
         id="tspan75">idth</tspan></text>
    <text
       id="modulename"
       transform="translate(55.71,368.86)"
       style="font-size:3px;font-family:MyriadPro-Regular, 'Myriad Pro';fill:#010101"><tspan
         x="0"
         y="0"
         style="letter-spacing:0em"
         id="tspan76">S</tspan><tspan
         x="1.47"
         y="0"
         style="letter-spacing:0em"
         id="tspan77">t</tspan><tspan
         x="2.45"
         y="0"
         id="tspan78">e</tspan><tspan
         x="3.95"
         y="0"
         style="letter-spacing:-0.01em"
         id="tspan79">r</tspan><tspan
         x="4.9000001"
         y="0"
         id="tspan80">eo Si</tspan><tspan
         x="10.87"
         y="0"
         style="letter-spacing:0em"
         id="tspan81">g</tspan><tspan
         x="12.52"
         y="0"
         id="tspan82">nal</tspan><tspan
         x="16.98"
         y="0"
         style="letter-spacing:-0.02em"
         id="tspan83">P</tspan><tspan
         x="18.530001"
         y="0"
         style="letter-spacing:-0.01em"
         id="tspan84">r</tspan><tspan
         x="19.48"
         y="0"
         id="tspan85">o</tspan><tspan
         x="21.129999"
         y="0"
         style="letter-spacing:0em"
         id="tspan86">c</tspan><tspan
         x="22.450001"
         y="0"
         id="tspan87">essor</tspan></text>
  </g>
</svg>
