<?xml version="1.0" encoding="UTF-8" standalone="no"?>
<svg
   xmlns:dc="http://purl.org/dc/elements/1.1/"
   xmlns:cc="http://creativecommons.org/ns#"
   xmlns:rdf="http://www.w3.org/1999/02/22-rdf-syntax-ns#"
   xmlns:svg="http://www.w3.org/2000/svg"
   xmlns="http://www.w3.org/2000/svg"
   xmlns:sodipodi="http://sodipodi.sourceforge.net/DTD/sodipodi-0.dtd"
   xmlns:inkscape="http://www.inkscape.org/namespaces/inkscape"
   inkscape:version="1.0 (4035a4f, 2020-05-01)"
   height="128.5mm"
   width="132.08mm"
   sodipodi:docname="Cš-L (inkscape render)V2.svg"
   xml:space="preserve"
   viewBox="0 0 499.20002 485.66928"
   y="0px"
   x="0px"
   id="Layer_1"
   version="1.1"><metadata
   id="metadata7610"><rdf:RDF><cc:Work
       rdf:about=""><dc:format>image/svg+xml</dc:format><dc:type
         rdf:resource="http://purl.org/dc/dcmitype/StillImage" /><dc:title></dc:title></cc:Work></rdf:RDF></metadata><defs
   id="defs7608" /><sodipodi:namedview
   inkscape:current-layer="Layer_1"
   inkscape:window-maximized="0"
   inkscape:window-y="23"
   inkscape:window-x="0"
   inkscape:cy="287.91546"
   inkscape:cx="225.47545"
   inkscape:zoom="0.89733928"
   units="mm"
   inkscape:document-units="mm"
   showgrid="false"
   id="namedview7606"
   inkscape:window-height="855"
   inkscape:window-width="1440"
   inkscape:pageshadow="2"
   inkscape:pageopacity="0"
   guidetolerance="10"
   gridtolerance="10"
   objecttolerance="10"
   borderopacity="1"
   bordercolor="#666666"
   pagecolor="#ffffff" />
<style
   id="style6621"
   type="text/css">
	.st0{fill:#202020;}
	.st1{fill:#DABE8D;}
	.st2{fill:#E0C490;}
</style>
<g
   style="fill:#202020;fill-opacity:1"
   transform="scale(1.3333333,1.3335236)"
   id="Layer_4">
	<rect
   style="fill:#202020;fill-opacity:1"
   x="0"
   id="rect6623"
   height="364.20001"
   width="374.39999"
   class="st0"
   y="0" />
</g>
<g
   style="fill:#dabe8d;fill-opacity:1"
   transform="scale(1.3333333,1.3335236)"
   id="g7603">
	<g
   style="fill:#dabe8d;fill-opacity:1"
   id="Layer_2_1_">
		<g
   style="fill:#dabe8d;fill-opacity:1"
   id="g7584">
			<g
   style="fill:#dabe8d;fill-opacity:1"
   id="g6630">
				<g
   style="fill:#dabe8d;fill-opacity:1"
   id="g6628">
					<path
   style="fill:#dabe8d;fill-opacity:1"
   id="path6626"
   d="m 168.9,33.1 c -5.8,0 -11.2,2.2 -15.2,6.3 -8.6,8.2 -10.4,8.2 -15.7,8.4 h -0.1 c -2,0.1 -6.6,0.2 -13.8,-6.4 l -0.7,-0.8 c -9.2,-8.7 -21.1,-13.4 -33.6,-13.4 -27,0 -49,22 -49,49 0,27 22,49 49,49 21.6,0 40.9,-14.5 47,-35.3 l 1,-4 c 2.7,-7.3 9.7,-12.3 17.5,-12.3 1.8,0 3.5,0.2 5.2,0.7 l 2.4,0.9 c 2,0.6 4,0.9 6.1,0.9 11.9,0 21.5,-9.6 21.5,-21.5 -0.1,-11.8 -9.7,-21.5 -21.6,-21.5 z m 0,40 c -1.8,0 -3.5,-0.2 -5.2,-0.7 l -2.4,-0.8 c -2,-0.6 -4,-0.9 -6.1,-0.9 -9.1,0 -17.3,5.7 -20.4,14.3 l -1,4.2 c -5.7,19.5 -23.8,33 -44.1,33 -25.3,0 -46,-20.6 -46,-46 0,-25.3 20.6,-46 46,-46 11.7,0 22.9,4.5 31.5,12.6 l 0.8,0.8 c 8.1,7.5 13.9,7.3 16,7.2 h 0.1 c 6.2,-0.2 8.6,-0.7 17.7,-9.3 3.5,-3.5 8.2,-5.5 13.1,-5.5 10.2,0 18.5,8.3 18.5,18.5 0,10.3 -8.3,18.6 -18.5,18.6 z"
   class="st1" />
				</g>
			</g>
			<g
   style="fill:#dabe8d;fill-opacity:1"
   id="g6636">
				<g
   style="fill:#dabe8d;fill-opacity:1"
   id="g6634">
					<path
   style="fill:#dabe8d;fill-opacity:1"
   id="path6632"
   d="m 168.9,249.1 c -5.8,0 -11.2,2.2 -15.2,6.3 -8.6,8.2 -10.4,8.2 -15.7,8.4 h -0.1 c -2,0.1 -6.6,0.2 -13.8,-6.4 l -0.7,-0.8 c -9.2,-8.7 -21.1,-13.4 -33.6,-13.4 -27,0 -49,22 -49,49 0,27 22,49 49,49 21.6,0 40.9,-14.5 47,-35.3 l 1,-4 c 2.7,-7.3 9.7,-12.3 17.5,-12.3 1.8,0 3.5,0.2 5.2,0.7 l 2.4,0.9 c 2,0.6 4,0.9 6.1,0.9 11.9,0 21.5,-9.6 21.5,-21.5 -0.1,-11.8 -9.7,-21.5 -21.6,-21.5 z m 0,40 c -1.8,0 -3.5,-0.2 -5.2,-0.7 l -2.4,-0.8 c -2,-0.6 -4,-0.9 -6.1,-0.9 -9.1,0 -17.3,5.7 -20.4,14.3 l -1,4.2 c -5.7,19.5 -23.8,33 -44.1,33 -25.3,0 -46,-20.6 -46,-46 0,-25.3 20.6,-46 46,-46 11.7,0 22.9,4.5 31.5,12.6 l 0.8,0.8 c 8.1,7.5 13.9,7.3 16,7.2 h 0.1 c 6.2,-0.2 8.6,-0.7 17.7,-9.3 3.5,-3.5 8.2,-5.5 13.1,-5.5 10.2,0 18.5,8.3 18.5,18.5 0,10.3 -8.3,18.6 -18.5,18.6 z"
   class="st1" />
				</g>
			</g>
			<g
   style="fill:#dabe8d;fill-opacity:1"
   id="g6642">
				<g
   style="fill:#dabe8d;fill-opacity:1"
   id="g6640">
					<path
   style="fill:#dabe8d;fill-opacity:1"
   id="path6638"
   d="m 84.7,155.5 c 0,-11.9 -9.7,-21.6 -21.6,-21.6 -2.7,0 -5.3,0.5 -7.9,1.5 l -2.9,1.4 c -1.5,0.5 -3.1,0.8 -4.6,0.8 -5,0 -9.4,-2.5 -12,-6.7 l -1.2,-2.3 c -3.1,-5.1 -8.6,-8.2 -14.6,-8.2 -9.4,0 -17.1,7.7 -17.1,17.1 0,9.4 7.7,17.1 17.1,17.1 1.4,0 2.7,-0.2 4.1,-0.5 l 2.1,-0.7 c 1.1,-0.3 2.2,-0.4 3.3,-0.4 5.6,0 10.6,3.2 12.8,8.2 l 0.9,2.6 c 3.4,8.1 11.2,13.3 20,13.3 11.9,0.1 21.6,-9.6 21.6,-21.6 z m -55.3,-5.4 c -1.4,0 -2.7,0.2 -4.1,0.5 l -2.1,0.7 c -1.1,0.3 -2.2,0.4 -3.3,0.4 -7.8,0 -14.1,-6.3 -14.1,-14.1 0,-7.8 6.3,-14.1 14.1,-14.1 5,0 9.4,2.5 12,6.7 l 1.2,2.3 c 3.1,5.1 8.6,8.2 14.6,8.2 2,0 3.9,-0.3 5.8,-1 l 3,-1.4 c 2.1,-0.8 4.4,-1.2 6.7,-1.2 10.3,0 18.6,8.4 18.6,18.6 0,10.3 -8.3,18.6 -18.6,18.6 -7.5,0 -14.3,-4.5 -17.2,-11.3 l -0.9,-2.6 c -2.8,-6.4 -9,-10.3 -15.7,-10.3 z"
   class="st1" />
				</g>
			</g>
			<g
   style="fill:#dabe8d;fill-opacity:1"
   id="g6648">
				<g
   style="fill:#dabe8d;fill-opacity:1"
   id="g6646">
					<path
   style="fill:#dabe8d;fill-opacity:1"
   id="path6644"
   d="m 63.1,191.5 c -8.7,0 -16.6,5.2 -20,13.3 l -0.9,2.6 c -2.2,5 -7.3,8.2 -12.8,8.2 -1.1,0 -2.2,-0.1 -3.3,-0.4 L 24,214.5 c -1.4,-0.3 -2.7,-0.5 -4.1,-0.5 -9.4,0 -17.1,7.7 -17.1,17.1 0,9.4 7.7,17.1 17.1,17.1 6,0 11.5,-3.1 14.6,-8.2 l 1.2,-2.3 c 2.5,-4.2 7,-6.7 12,-6.7 1.6,0 3.2,0.3 4.6,0.8 l 2.9,1.4 c 2.5,1 5.2,1.5 7.9,1.5 11.9,0 21.6,-9.7 21.6,-21.6 0,-11.9 -9.7,-21.6 -21.6,-21.6 z m -18.1,16.9 0.9,-2.7 c 2.9,-6.9 9.6,-11.3 17.2,-11.3 10.3,0 18.6,8.4 18.6,18.6 0,10.2 -8.3,18.6 -18.6,18.6 -2.3,0 -4.6,-0.4 -6.7,-1.2 l -3,-1.4 c -1.9,-0.7 -3.8,-1 -5.8,-1 -6,0 -11.5,3.1 -14.6,8.2 l -1.2,2.3 c -2.5,4.2 -7,6.7 -12,6.7 -7.8,0 -14.1,-6.3 -14.1,-14.1 0,-7.8 6.3,-14.1 14.1,-14.1 1.1,0 2.2,0.1 3.3,0.4 l 2.1,0.7 c 1.4,0.3 2.7,0.5 4.1,0.5 6.8,0 13,-4 15.7,-10.2 z"
   class="st1" />
				</g>
			</g>
			<g
   style="fill:#dabe8d;fill-opacity:1"
   id="g6654">
				<g
   style="fill:#dabe8d;fill-opacity:1"
   id="g6652">
					<path
   style="fill:#dabe8d;fill-opacity:1"
   id="path6650"
   d="m 187.2,113.9 c -8.9,0 -16.1,-7.2 -16.1,-16.1 0,-8.9 7.2,-16.1 16.1,-16.1 8.9,0 16.1,7.2 16.1,16.1 0,8.9 -7.2,16.1 -16.1,16.1 z m 0,-31.1 c -8.3,0 -15.1,6.8 -15.1,15.1 0,8.3 6.8,15.1 15.1,15.1 8.3,0 15.1,-6.8 15.1,-15.1 0,-8.4 -6.8,-15.1 -15.1,-15.1 z"
   class="st1" />
				</g>
			</g>
			<g
   style="fill:#dabe8d;fill-opacity:1"
   id="g6660">
				<g
   style="fill:#dabe8d;fill-opacity:1"
   id="g6658">
					<path
   style="fill:#dabe8d;fill-opacity:1"
   id="path6656"
   d="m 19.8,92.3 c -8.9,0 -16.1,-7.2 -16.1,-16.1 0,-8.9 7.2,-16.1 16.1,-16.1 8.9,0 16.1,7.2 16.1,16.1 0,8.9 -7.2,16.1 -16.1,16.1 z m 0,-31.1 c -8.3,0 -15.1,6.8 -15.1,15.1 0,8.3 6.8,15.1 15.1,15.1 8.3,0 15.1,-6.8 15.1,-15.1 0,-8.4 -6.8,-15.1 -15.1,-15.1 z"
   class="st1" />
				</g>
			</g>
			<g
   style="fill:#dabe8d;fill-opacity:1"
   id="g6666">
				<g
   style="fill:#dabe8d;fill-opacity:1"
   id="g6664">
					<path
   style="fill:#dabe8d;fill-opacity:1"
   id="path6662"
   d="m 100.8,200.3 c -8.9,0 -16.1,-7.2 -16.1,-16.1 0,-8.9 7.2,-16.1 16.1,-16.1 8.9,0 16.1,7.2 16.1,16.1 0,8.9 -7.2,16.1 -16.1,16.1 z m 0,-31.1 c -8.3,0 -15.1,6.8 -15.1,15.1 0,8.3 6.8,15.1 15.1,15.1 8.3,0 15.1,-6.8 15.1,-15.1 0,-8.4 -6.8,-15.1 -15.1,-15.1 z"
   class="st1" />
				</g>
			</g>
			<g
   style="fill:#dabe8d;fill-opacity:1"
   id="g6672">
				<g
   style="fill:#dabe8d;fill-opacity:1"
   id="g6670">
					<path
   style="fill:#dabe8d;fill-opacity:1"
   id="path6668"
   d="m 19.8,308.3 c -8.9,0 -16.1,-7.2 -16.1,-16.1 0,-8.9 7.2,-16.1 16.1,-16.1 8.9,0 16.1,7.2 16.1,16.1 0,8.9 -7.2,16.1 -16.1,16.1 z m 0,-31.1 c -8.3,0 -15.1,6.8 -15.1,15.1 0,8.3 6.8,15.1 15.1,15.1 8.3,0 15.1,-6.8 15.1,-15.1 0,-8.4 -6.8,-15.1 -15.1,-15.1 z"
   class="st1" />
				</g>
			</g>
			<g
   style="fill:#dabe8d;fill-opacity:1"
   id="g6678">
				<g
   style="fill:#dabe8d;fill-opacity:1"
   id="g6676">
					<path
   style="fill:#dabe8d;fill-opacity:1"
   id="path6674"
   d="m 320.4,228.2 c -8.9,0 -16.1,-7.2 -16.1,-16.1 0,-8.9 7.2,-16.1 16.1,-16.1 8.9,0 16.1,7.2 16.1,16.1 0,8.9 -7.2,16.1 -16.1,16.1 z m 0,-31.1 c -8.3,0 -15.1,6.8 -15.1,15.1 0,8.3 6.8,15.1 15.1,15.1 8.3,0 15.1,-6.8 15.1,-15.1 0,-8.4 -6.8,-15.1 -15.1,-15.1 z"
   class="st1" />
				</g>
			</g>
			<g
   style="fill:#dabe8d;fill-opacity:1"
   id="g6684">
				<g
   style="fill:#dabe8d;fill-opacity:1"
   id="g6682">
					<path
   style="fill:#dabe8d;fill-opacity:1"
   id="path6680"
   d="m 320.4,172.4 c -8.9,0 -16.1,-7.2 -16.1,-16.1 0,-8.9 7.2,-16.1 16.1,-16.1 8.9,0 16.1,7.2 16.1,16.1 0,8.9 -7.2,16.1 -16.1,16.1 z m 0,-31.1 c -8.3,0 -15.1,6.8 -15.1,15.1 0,8.3 6.8,15.1 15.1,15.1 8.3,0 15.1,-6.8 15.1,-15.1 0,-8.4 -6.8,-15.1 -15.1,-15.1 z"
   class="st1" />
				</g>
			</g>
			<g
   style="fill:#dabe8d;fill-opacity:1"
   id="g6690">
				<g
   style="fill:#dabe8d;fill-opacity:1"
   id="g6688">
					<path
   style="fill:#dabe8d;fill-opacity:1"
   id="path6686"
   d="m 187.2,329.9 c -8.9,0 -16.1,-7.2 -16.1,-16.1 0,-8.9 7.2,-16.1 16.1,-16.1 8.9,0 16.1,7.2 16.1,16.1 0,8.9 -7.2,16.1 -16.1,16.1 z m 0,-31.1 c -8.3,0 -15.1,6.8 -15.1,15.1 0,8.3 6.8,15.1 15.1,15.1 8.3,0 15.1,-6.8 15.1,-15.1 0,-8.4 -6.8,-15.1 -15.1,-15.1 z"
   class="st1" />
				</g>
			</g>
			<g
   style="fill:#dabe8d;fill-opacity:1"
   id="g6694">
				<rect
   style="fill:#dabe8d;fill-opacity:1"
   id="rect6692"
   height="2.5"
   width="79.099998"
   class="st1"
   y="42.599998"
   x="235.89999" />
			</g>
			<g
   style="fill:#dabe8d;fill-opacity:1"
   id="g6698">
				<rect
   style="fill:#dabe8d;fill-opacity:1"
   id="rect6696"
   height="17.5"
   width="2.5"
   class="st1"
   y="43.900002"
   x="274.20001" />
			</g>
			<g
   style="fill:#dabe8d;fill-opacity:1"
   id="g6702">
				<rect
   style="fill:#dabe8d;fill-opacity:1"
   id="rect6700"
   height="11.9"
   width="2.5"
   class="st1"
   y="71.900002"
   x="315.5" />
			</g>
			<g
   style="fill:#dabe8d;fill-opacity:1"
   id="g6706">
				<rect
   style="fill:#dabe8d;fill-opacity:1"
   id="rect6704"
   height="2.5"
   width="79.199997"
   class="st1"
   y="323.39999"
   x="235.8" />
			</g>
			<g
   style="fill:#dabe8d;fill-opacity:1"
   id="g6710">
				<rect
   style="fill:#dabe8d;fill-opacity:1"
   id="rect6708"
   height="17.6"
   width="2.5"
   class="st1"
   y="307.10001"
   x="274.10001" />
			</g>
			<g
   style="fill:#dabe8d;fill-opacity:1"
   id="g6714">
				<path
   style="fill:#dabe8d;fill-opacity:1"
   id="path6712"
   d="m 275.4,210.6 c -14.5,0 -26.3,-11.8 -26.3,-26.3 0,-14.5 11.8,-26.3 26.3,-26.3 9,0 17.2,4.5 22.1,12 0.1,0.1 0.2,0.3 0.3,0.4 2.6,4.2 3.9,8.9 3.9,13.9 0,5 -1.4,9.7 -3.9,13.9 -0.1,0.1 -0.2,0.3 -0.3,0.4 -4.9,7.5 -13.1,12 -22.1,12 z m 0,-49.6 c -12.8,0 -23.3,10.5 -23.3,23.3 0,12.9 10.4,23.3 23.3,23.3 7.9,0 15.3,-4 19.6,-10.7 0.1,-0.1 0.2,-0.2 0.2,-0.4 2.3,-3.7 3.5,-7.9 3.5,-12.3 0,-4.3 -1.2,-8.6 -3.5,-12.3 -0.1,-0.1 -0.1,-0.2 -0.2,-0.3 -4.3,-6.7 -11.7,-10.6 -19.6,-10.6 z"
   class="st1" />
			</g>
			<g
   style="fill:#dabe8d;fill-opacity:1"
   id="g6718">
				<path
   style="fill:#dabe8d;fill-opacity:1"
   id="path6716"
   d="m 129.6,171 c -14.5,0 -26.3,-11.8 -26.3,-26.3 0,-14.5 11.8,-26.3 26.3,-26.3 14.5,0 26.3,11.8 26.3,26.3 0,14.5 -11.8,26.3 -26.3,26.3 z m 0,-49.7 c -12.8,0 -23.3,10.5 -23.3,23.3 0,12.8 10.5,23.3 23.3,23.3 12.8,0 23.3,-10.5 23.3,-23.3 0,-12.8 -10.5,-23.3 -23.3,-23.3 z"
   class="st1" />
			</g>
			<g
   style="fill:#dabe8d;fill-opacity:1"
   id="g6722">
				<rect
   style="fill:#dabe8d;fill-opacity:1"
   id="rect6720"
   height="3"
   width="43.400002"
   class="st1"
   y="182.8"
   x="300.20001" />
			</g>
			<g
   style="fill:#dabe8d;fill-opacity:1"
   id="g6740">
				<g
   style="fill:#dabe8d;fill-opacity:1"
   id="g6726">
					<path
   style="fill:#dabe8d;fill-opacity:1"
   id="path6724"
   d="m 181,343.3 c -0.5,-0.5 -1.4,-1.2 -2.2,-1.6 -0.9,-0.4 -2,-0.7 -3,-0.7 -4,0 -6.9,3.2 -6.9,7.2 0,4.7 3.8,7 6.9,7 1.2,0 2.3,-0.3 3.2,-0.8 1,-0.5 1.7,-1.1 2,-1.4 v 2.4 c -1.9,1.4 -3.9,1.7 -5.2,1.7 -5.1,0 -8.9,-3.9 -8.9,-8.8 0,-5.1 3.8,-8.9 9,-8.9 1,0 3,0.1 5.1,1.7 z"
   class="st1" />
				</g>
				<g
   style="fill:#dabe8d;fill-opacity:1"
   id="g6730">
					<path
   style="fill:#dabe8d;fill-opacity:1"
   id="path6728"
   d="m 188.4,348.5 c -0.3,-0.6 -0.8,-1.1 -1.5,-1.1 -0.7,0 -1.3,0.4 -1.3,1.2 0,0.8 0.5,1 1.7,1.5 1.5,0.6 2.3,1.1 2.7,1.6 0.5,0.6 0.6,1.1 0.6,1.7 0,2.2 -1.6,3.5 -3.7,3.5 -0.4,0 -2.8,-0.1 -3.7,-2.7 l 1.6,-0.7 c 0.2,0.6 0.8,1.8 2.2,1.8 1.2,0 1.8,-0.9 1.8,-1.7 0,-1 -0.7,-1.3 -1.7,-1.8 -1.3,-0.6 -2.1,-1 -2.6,-1.6 -0.4,-0.5 -0.5,-1 -0.5,-1.6 0,-1.9 1.3,-3 3.1,-3 0.6,0 2.1,0.1 2.9,1.9 z m 1,-8.6 1.2,0.9 -3.6,3.1 -3.6,-3.1 1.2,-0.9 2.4,2.1 z"
   class="st1" />
				</g>
				<g
   style="fill:#dabe8d;fill-opacity:1"
   id="g6734">
					<path
   style="fill:#dabe8d;fill-opacity:1"
   id="path6732"
   d="m 192.6,350.3 h 5.7 v 1.9 h -5.7 z"
   class="st1" />
				</g>
				<g
   style="fill:#dabe8d;fill-opacity:1"
   id="g6738">
					<path
   style="fill:#dabe8d;fill-opacity:1"
   id="path6736"
   d="m 203.7,339.5 v 15.4 h 4.7 v 1.8 h -6.6 v -17.2 z"
   class="st1" />
				</g>
			</g>
			<g
   style="fill:#dabe8d;fill-opacity:1"
   id="g6746">
				<g
   style="fill:#dabe8d;fill-opacity:1"
   id="g6744">
					<rect
   style="fill:#dabe8d;fill-opacity:1"
   x="0"
   id="rect6742"
   height="3"
   width="159.3"
   class="st1"
   y="344" />
				</g>
			</g>
			<g
   style="fill:#dabe8d;fill-opacity:1"
   id="g6756">
				<g
   style="fill:#dabe8d;fill-opacity:1"
   id="g6750">
					<rect
   style="fill:#dabe8d;fill-opacity:1"
   id="rect6748"
   height="3"
   width="162.8"
   class="st1"
   y="344"
   x="211.60001" />
				</g>
				<g
   style="fill:#dabe8d;fill-opacity:1"
   id="g6754">
					<rect
   style="fill:#dabe8d;fill-opacity:1"
   id="rect6752"
   height="3"
   width="0"
   class="st1"
   y="344"
   x="211.60001" />
				</g>
			</g>
			<g
   style="fill:#dabe8d;fill-opacity:1"
   id="g6760">
				<rect
   style="fill:#dabe8d;fill-opacity:1"
   id="rect6758"
   height="16.299999"
   width="3"
   class="st1"
   y="153.39999"
   x="18.299999" />
			</g>
			<g
   style="fill:#dabe8d;fill-opacity:1"
   id="g6764">
				<rect
   style="fill:#dabe8d;fill-opacity:1"
   id="rect6762"
   height="16.6"
   width="3"
   class="st1"
   y="198.5"
   x="18.299999" />
			</g>
			<g
   style="fill:#dabe8d;fill-opacity:1"
   id="g6786">
				<g
   style="fill:#dabe8d;fill-opacity:1"
   id="g6768">
					<path
   style="fill:#dabe8d;fill-opacity:1"
   id="path6766"
   d="M 184.1,24.6 V 3.3 L 200,20 V 4.2 h 2.3 v 21.3 l -16,-16.6 v 15.8 h -2.2 z"
   class="st1" />
				</g>
				<g
   style="fill:#dabe8d;fill-opacity:1"
   id="g6772">
					<path
   style="fill:#dabe8d;fill-opacity:1"
   id="path6770"
   d="m 216.6,8.1 c -0.3,-0.6 -0.7,-1.2 -1.2,-1.5 -0.4,-0.3 -1.1,-0.7 -2.3,-0.7 -2,0 -3.4,1.3 -3.4,3.2 0,0.8 0.2,1.3 0.8,1.8 0.6,0.6 1.4,0.9 2.1,1.3 l 2,0.9 c 1.2,0.5 2.3,1.1 3.2,1.9 1,1 1.5,2.2 1.5,3.7 0,3.8 -2.8,6.3 -6.5,6.3 -1.3,0 -3,-0.3 -4.4,-1.7 -1,-1 -1.6,-2.4 -1.9,-3.6 l 2.2,-0.6 c 0.2,1.1 0.6,2 1.2,2.6 0.9,0.9 1.9,1.1 2.9,1.1 2.8,0 4.1,-2 4.1,-4 0,-0.9 -0.3,-1.7 -1,-2.4 -0.6,-0.6 -1.4,-0.9 -2.4,-1.4 l -1.8,-0.9 c -0.8,-0.4 -1.8,-0.8 -2.7,-1.7 -0.9,-0.9 -1.4,-1.8 -1.4,-3.3 0,-3.2 2.4,-5.3 5.7,-5.3 1.3,0 2.3,0.2 3.3,0.9 0.8,0.6 1.5,1.4 2,2.3 z"
   class="st1" />
				</g>
				<g
   style="fill:#dabe8d;fill-opacity:1"
   id="g6776">
					<path
   style="fill:#dabe8d;fill-opacity:1"
   id="path6774"
   d="m 227.1,6.3 v 18.3 h -2.3 V 6.3 h -5 V 4.2 H 232 v 2.1 c 0,0 -4.9,0 -4.9,0 z"
   class="st1" />
				</g>
				<g
   style="fill:#dabe8d;fill-opacity:1"
   id="g6780">
					<path
   style="fill:#dabe8d;fill-opacity:1"
   id="path6778"
   d="m 238.4,4.2 c 1.4,0 3.4,0.1 5,1.1 1.2,0.8 2.2,2.4 2.2,4.5 0,3.1 -2.1,5.4 -5.1,5.6 l 6.5,9.1 h -2.8 L 238,15.6 h -0.6 v 8.9 h -2.3 V 4.2 Z m -1,9.5 h 1.4 c 2.8,0 4.5,-1.3 4.5,-3.7 0,-1.1 -0.3,-2.3 -1.6,-3 -0.9,-0.5 -2,-0.6 -2.9,-0.6 h -1.4 z"
   class="st1" />
				</g>
				<g
   style="fill:#dabe8d;fill-opacity:1"
   id="g6784">
					<path
   style="fill:#dabe8d;fill-opacity:1"
   id="path6782"
   d="m 252.8,16.7 c 0,1.7 0,3.6 1.6,5 0.8,0.7 2.2,1.2 3.4,1.2 1.1,0 2.5,-0.5 3.4,-1.2 1.6,-1.4 1.6,-3.2 1.6,-5 V 4.2 h 2.3 v 13.1 c 0,1.7 -0.2,3.4 -1.3,4.9 -1.2,1.7 -3.4,2.8 -6,2.8 -2.6,0 -4.7,-1.1 -6,-2.8 -1.1,-1.5 -1.3,-3.2 -1.3,-4.9 V 4.2 h 2.3 z"
   class="st1" />
				</g>
			</g>
			<g
   style="fill:#dabe8d;fill-opacity:1"
   id="g6790">
				<path
   style="fill:#dabe8d;fill-opacity:1"
   id="path6788"
   d="m 275.4,9.1 c -4.6,0 -8,3.5 -8,8.2 0,4.7 3.4,8.2 8,8.2 4.6,0 8,-3.5 8,-8.2 0,-4.7 -3.3,-8.2 -8,-8.2 z m 0,14 c -2.7,0 -5.3,-2 -5.3,-5.8 0,-3.8 2.6,-5.8 5.3,-5.8 2.7,0 5.3,2 5.3,5.8 0.1,3.8 -2.5,5.8 -5.3,5.8 z"
   class="st1" />
			</g>
			<g
   style="fill:#dabe8d;fill-opacity:1"
   id="g6794">
				<rect
   style="fill:#dabe8d;fill-opacity:1"
   id="rect6792"
   height="2.3"
   width="16.299999"
   class="st1"
   y="4.0999999"
   x="267.39999" />
			</g>
			<g
   style="fill:#dabe8d;fill-opacity:1"
   id="g6798">
				<polygon
   style="fill:#dabe8d;fill-opacity:1"
   id="polygon6796"
   points="175.8,4 179.2,4 178.4,7.2 178.4,21.4 179.2,24.6 175.8,24.6 176.6,21.4 176.6,7.2 "
   class="st1" />
			</g>
			<g
   style="fill:#dabe8d;fill-opacity:1"
   id="g6812">
				<g
   style="fill:#dabe8d;fill-opacity:1"
   id="g6802">
					<path
   style="fill:#dabe8d;fill-opacity:1"
   id="path6800"
   d="m 267.8,32 c 0.5,0 1,0.1 1.3,0.4 0.4,0.3 0.5,0.8 0.5,1.1 0,0.8 -0.5,1.5 -1.7,1.5 h -0.5 v 2.3 h -0.6 V 32 Z m -0.3,2.4 h 0.5 c 0.7,0 1.1,-0.4 1.1,-1 0,-0.8 -0.8,-0.9 -1.2,-0.9 h -0.4 z"
   class="st1" />
				</g>
				<g
   style="fill:#dabe8d;fill-opacity:1"
   id="g6806">
					<path
   style="fill:#dabe8d;fill-opacity:1"
   id="path6804"
   d="m 270.8,32 1.4,4 1.7,-4.3 1.6,4.3 1.6,-4 h 0.7 l -2.2,5.6 -1.6,-4.3 -1.7,4.3 -2,-5.6 c 0,0 0.5,0 0.5,0 z"
   class="st1" />
				</g>
				<g
   style="fill:#dabe8d;fill-opacity:1"
   id="g6810">
					<path
   style="fill:#dabe8d;fill-opacity:1"
   id="path6808"
   d="m 278.3,37.3 0.9,-5.6 2,4.5 2.1,-4.5 0.8,5.6 h -0.6 l -0.5,-3.7 -1.8,3.9 -1.8,-3.9 -0.5,3.7 c 0,0 -0.6,0 -0.6,0 z"
   class="st1" />
				</g>
			</g>
			<g
   style="fill:#dabe8d;fill-opacity:1"
   id="g6846">
				<g
   style="fill:#dabe8d;fill-opacity:1"
   id="g6816">
					<path
   style="fill:#dabe8d;fill-opacity:1"
   id="path6814"
   d="m 257.2,96.5 1.4,4 1.7,-4.3 1.6,4.3 1.6,-4 h 0.7 l -2.2,5.6 -1.6,-4.3 -1.7,4.3 -2,-5.6 z"
   class="st1" />
				</g>
				<g
   style="fill:#dabe8d;fill-opacity:1"
   id="g6820">
					<path
   style="fill:#dabe8d;fill-opacity:1"
   id="path6818"
   d="M 267.3,100.4 H 265 l -0.6,1.5 h -0.7 l 2.5,-5.6 2.4,5.6 H 268 Z m -0.2,-0.6 -0.9,-2.1 -0.9,2.1 z"
   class="st1" />
				</g>
				<g
   style="fill:#dabe8d;fill-opacity:1"
   id="g6824">
					<path
   style="fill:#dabe8d;fill-opacity:1"
   id="path6822"
   d="m 269,96.5 1.5,4.1 1.5,-4.1 h 0.7 l -2.2,5.7 -2.2,-5.7 z"
   class="st1" />
				</g>
				<g
   style="fill:#dabe8d;fill-opacity:1"
   id="g6828">
					<path
   style="fill:#dabe8d;fill-opacity:1"
   id="path6826"
   d="M 276.2,97.1 H 274 v 1.6 h 2.1 v 0.6 H 274 v 2.1 h 2.2 v 0.6 h -2.8 v -5.3 h 2.8 z"
   class="st1" />
				</g>
				<g
   style="fill:#dabe8d;fill-opacity:1"
   id="g6832">
					<path
   style="fill:#dabe8d;fill-opacity:1"
   id="path6830"
   d="m 279.7,97.1 h -1.8 v 1.6 h 1.8 v 0.6 h -1.8 v 2.6 h -0.6 v -5.3 h 2.4 z"
   class="st1" />
				</g>
				<g
   style="fill:#dabe8d;fill-opacity:1"
   id="g6836">
					<path
   style="fill:#dabe8d;fill-opacity:1"
   id="path6834"
   d="m 280.5,99.2 c 0,-1.6 1.2,-2.8 2.8,-2.8 1.6,0 2.8,1.2 2.8,2.8 0,1.6 -1.2,2.8 -2.8,2.8 -1.6,0 -2.8,-1.2 -2.8,-2.8 z m 0.6,0 c 0,1.2 1,2.2 2.2,2.2 1.2,0 2.2,-1 2.2,-2.2 0,-1.2 -1,-2.2 -2.2,-2.2 -1.2,0 -2.2,1 -2.2,2.2 z"
   class="st1" />
				</g>
				<g
   style="fill:#dabe8d;fill-opacity:1"
   id="g6840">
					<path
   style="fill:#dabe8d;fill-opacity:1"
   id="path6838"
   d="m 287.7,96.5 v 4.8 h 1.5 v 0.6 h -2.1 v -5.3 z"
   class="st1" />
				</g>
				<g
   style="fill:#dabe8d;fill-opacity:1"
   id="g6844">
					<path
   style="fill:#dabe8d;fill-opacity:1"
   id="path6842"
   d="m 290,96.5 h 1.1 c 0.5,0 1.3,0.1 2,0.6 0.5,0.4 0.9,1.1 0.9,2 0,1.1 -0.6,1.7 -0.9,2 -0.5,0.4 -1,0.6 -2,0.6 H 290 Z m 0.6,4.8 h 0.5 c 0.4,0 1,0 1.5,-0.5 0.4,-0.3 0.7,-0.9 0.7,-1.6 0,-1.3 -0.9,-2.1 -2.2,-2.1 h -0.5 z"
   class="st1" />
				</g>
			</g>
			<g
   style="fill:#dabe8d;fill-opacity:1"
   id="g6880">
				<g
   style="fill:#dabe8d;fill-opacity:1"
   id="g6850">
					<path
   style="fill:#dabe8d;fill-opacity:1"
   id="path6848"
   d="m 257.2,236.8 1.4,4 1.7,-4.3 1.6,4.3 1.6,-4 h 0.7 l -2.2,5.6 -1.6,-4.3 -1.7,4.3 -2,-5.6 z"
   class="st1" />
				</g>
				<g
   style="fill:#dabe8d;fill-opacity:1"
   id="g6854">
					<path
   style="fill:#dabe8d;fill-opacity:1"
   id="path6852"
   d="M 267.3,240.6 H 265 l -0.6,1.5 h -0.7 l 2.5,-5.6 2.4,5.6 H 268 Z m -0.2,-0.6 -0.9,-2.1 -0.9,2.1 z"
   class="st1" />
				</g>
				<g
   style="fill:#dabe8d;fill-opacity:1"
   id="g6858">
					<path
   style="fill:#dabe8d;fill-opacity:1"
   id="path6856"
   d="m 269,236.8 1.5,4.1 1.5,-4.1 h 0.7 l -2.2,5.7 -2.2,-5.7 z"
   class="st1" />
				</g>
				<g
   style="fill:#dabe8d;fill-opacity:1"
   id="g6862">
					<path
   style="fill:#dabe8d;fill-opacity:1"
   id="path6860"
   d="M 276.2,237.3 H 274 v 1.6 h 2.1 v 0.6 H 274 v 2.1 h 2.2 v 0.6 h -2.8 v -5.3 h 2.8 z"
   class="st1" />
				</g>
				<g
   style="fill:#dabe8d;fill-opacity:1"
   id="g6866">
					<path
   style="fill:#dabe8d;fill-opacity:1"
   id="path6864"
   d="m 279.7,237.3 h -1.8 v 1.6 h 1.8 v 0.6 h -1.8 v 2.6 h -0.6 v -5.3 h 2.4 z"
   class="st1" />
				</g>
				<g
   style="fill:#dabe8d;fill-opacity:1"
   id="g6870">
					<path
   style="fill:#dabe8d;fill-opacity:1"
   id="path6868"
   d="m 280.5,239.4 c 0,-1.6 1.2,-2.8 2.8,-2.8 1.6,0 2.8,1.2 2.8,2.8 0,1.6 -1.2,2.8 -2.8,2.8 -1.6,0 -2.8,-1.2 -2.8,-2.8 z m 0.6,0 c 0,1.2 1,2.2 2.2,2.2 1.2,0 2.2,-1 2.2,-2.2 0,-1.2 -1,-2.2 -2.2,-2.2 -1.2,0 -2.2,1 -2.2,2.2 z"
   class="st1" />
				</g>
				<g
   style="fill:#dabe8d;fill-opacity:1"
   id="g6874">
					<path
   style="fill:#dabe8d;fill-opacity:1"
   id="path6872"
   d="m 287.7,236.8 v 4.8 h 1.5 v 0.6 h -2.1 v -5.3 h 0.6 z"
   class="st1" />
				</g>
				<g
   style="fill:#dabe8d;fill-opacity:1"
   id="g6878">
					<path
   style="fill:#dabe8d;fill-opacity:1"
   id="path6876"
   d="m 290,236.8 h 1.1 c 0.5,0 1.3,0.1 2,0.6 0.5,0.4 0.9,1.1 0.9,2 0,1.1 -0.6,1.7 -0.9,2 -0.5,0.4 -1,0.6 -2,0.6 H 290 Z m 0.6,4.7 h 0.5 c 0.4,0 1,0 1.5,-0.5 0.4,-0.3 0.7,-0.9 0.7,-1.6 0,-1.3 -0.9,-2.1 -2.2,-2.1 h -0.5 z"
   class="st1" />
				</g>
			</g>
			<g
   style="fill:#dabe8d;fill-opacity:1"
   id="g6902">
				<g
   style="fill:#dabe8d;fill-opacity:1"
   id="g6884">
					<path
   style="fill:#dabe8d;fill-opacity:1"
   id="path6882"
   d="M 354.9,129.5 H 353 v 1.6 h 1.8 v 0.6 H 353 v 2.6 h -0.6 V 129 h 2.4 v 0.5 z"
   class="st1" />
				</g>
				<g
   style="fill:#dabe8d;fill-opacity:1"
   id="g6888">
					<path
   style="fill:#dabe8d;fill-opacity:1"
   id="path6886"
   d="m 356.5,129 v 5.3 h -0.6 V 129 Z"
   class="st1" />
				</g>
				<g
   style="fill:#dabe8d;fill-opacity:1"
   id="g6892">
					<path
   style="fill:#dabe8d;fill-opacity:1"
   id="path6890"
   d="m 357.9,134.3 v -5.6 l 4.2,4.4 V 129 h 0.6 v 5.6 l -4.2,-4.4 v 4.1 z"
   class="st1" />
				</g>
				<g
   style="fill:#dabe8d;fill-opacity:1"
   id="g6896">
					<path
   style="fill:#dabe8d;fill-opacity:1"
   id="path6894"
   d="m 367,132.8 h -2.3 l -0.6,1.5 h -0.7 l 2.5,-5.6 2.4,5.6 h -0.7 z m -0.3,-0.6 -0.9,-2.1 -0.9,2.1 z"
   class="st1" />
				</g>
				<g
   style="fill:#dabe8d;fill-opacity:1"
   id="g6900">
					<path
   style="fill:#dabe8d;fill-opacity:1"
   id="path6898"
   d="m 369.6,129 v 4.8 h 1.5 v 0.6 H 369 V 129 Z"
   class="st1" />
				</g>
			</g>
			<g
   style="fill:#dabe8d;fill-opacity:1"
   id="g6936">
				<g
   style="fill:#dabe8d;fill-opacity:1"
   id="g6906">
					<path
   style="fill:#dabe8d;fill-opacity:1"
   id="path6904"
   d="m 340.7,169.9 0.9,-5.6 2,4.5 2.1,-4.5 0.8,5.6 h -0.6 l -0.5,-3.7 -1.8,3.9 -1.8,-3.9 -0.5,3.7 z"
   class="st1" />
				</g>
				<g
   style="fill:#dabe8d;fill-opacity:1"
   id="g6910">
					<path
   style="fill:#dabe8d;fill-opacity:1"
   id="path6908"
   d="m 348.4,167.9 c 0,0.4 0,0.9 0.4,1.3 0.2,0.2 0.6,0.3 0.9,0.3 0.3,0 0.7,-0.1 0.9,-0.3 0.4,-0.4 0.4,-0.8 0.4,-1.3 v -3.3 h 0.6 v 3.4 c 0,0.4 0,0.9 -0.3,1.3 -0.3,0.4 -0.9,0.7 -1.6,0.7 -0.7,0 -1.2,-0.3 -1.6,-0.7 -0.3,-0.4 -0.3,-0.8 -0.3,-1.3 v -3.4 h 0.6 z"
   class="st1" />
				</g>
				<g
   style="fill:#dabe8d;fill-opacity:1"
   id="g6914">
					<path
   style="fill:#dabe8d;fill-opacity:1"
   id="path6912"
   d="m 353.5,164.6 v 4.8 h 1.5 v 0.6 h -2 v -5.3 h 0.5 z"
   class="st1" />
				</g>
				<g
   style="fill:#dabe8d;fill-opacity:1"
   id="g6918">
					<path
   style="fill:#dabe8d;fill-opacity:1"
   id="path6916"
   d="m 357,165.2 v 4.8 h -0.6 v -4.8 h -1.3 v -0.6 h 3.2 v 0.6 z"
   class="st1" />
				</g>
				<g
   style="fill:#dabe8d;fill-opacity:1"
   id="g6922">
					<path
   style="fill:#dabe8d;fill-opacity:1"
   id="path6920"
   d="m 359.7,164.6 v 5.3 h -0.6 v -5.3 z"
   class="st1" />
				</g>
				<g
   style="fill:#dabe8d;fill-opacity:1"
   id="g6926">
					<path
   style="fill:#dabe8d;fill-opacity:1"
   id="path6924"
   d="m 362,164.6 c 0.5,0 1,0.1 1.3,0.4 0.4,0.3 0.5,0.8 0.5,1.1 0,0.8 -0.5,1.5 -1.7,1.5 h -0.5 v 2.3 H 361 v -5.3 z m -0.4,2.5 h 0.5 c 0.7,0 1.1,-0.4 1.1,-1 0,-0.8 -0.8,-0.9 -1.2,-0.9 h -0.4 z"
   class="st1" />
				</g>
				<g
   style="fill:#dabe8d;fill-opacity:1"
   id="g6930">
					<path
   style="fill:#dabe8d;fill-opacity:1"
   id="path6928"
   d="m 365.3,164.6 v 4.8 h 1.5 v 0.6 h -2.1 v -5.3 h 0.6 z"
   class="st1" />
				</g>
				<g
   style="fill:#dabe8d;fill-opacity:1"
   id="g6934">
					<path
   style="fill:#dabe8d;fill-opacity:1"
   id="path6932"
   d="m 368.4,167.6 -1.8,-3 h 0.7 l 1.4,2.4 1.4,-2.4 h 0.7 l -1.8,3 v 2.3 h -0.6 z"
   class="st1" />
				</g>
			</g>
			<g
   style="fill:#dabe8d;fill-opacity:1"
   id="g6958">
				<g
   style="fill:#dabe8d;fill-opacity:1"
   id="g6940">
					<path
   style="fill:#dabe8d;fill-opacity:1"
   id="path6938"
   d="M 354.9,200.3 H 353 v 1.6 h 1.8 v 0.6 H 353 v 2.6 h -0.6 v -5.3 h 2.4 v 0.5 z"
   class="st1" />
				</g>
				<g
   style="fill:#dabe8d;fill-opacity:1"
   id="g6944">
					<path
   style="fill:#dabe8d;fill-opacity:1"
   id="path6942"
   d="m 356.5,199.7 v 5.3 h -0.6 v -5.3 z"
   class="st1" />
				</g>
				<g
   style="fill:#dabe8d;fill-opacity:1"
   id="g6948">
					<path
   style="fill:#dabe8d;fill-opacity:1"
   id="path6946"
   d="m 357.9,205 v -5.6 l 4.2,4.4 v -4.1 h 0.6 v 5.6 l -4.2,-4.4 v 4.1 z"
   class="st1" />
				</g>
				<g
   style="fill:#dabe8d;fill-opacity:1"
   id="g6952">
					<path
   style="fill:#dabe8d;fill-opacity:1"
   id="path6950"
   d="m 367,203.5 h -2.3 L 364,205 h -0.7 l 2.5,-5.6 2.4,5.6 h -0.7 z m -0.3,-0.5 -0.9,-2.1 -0.9,2.1 z"
   class="st1" />
				</g>
				<g
   style="fill:#dabe8d;fill-opacity:1"
   id="g6956">
					<path
   style="fill:#dabe8d;fill-opacity:1"
   id="path6954"
   d="m 369.6,199.7 v 4.8 h 1.5 v 0.6 H 369 v -5.3 h 0.6 z"
   class="st1" />
				</g>
			</g>
			<g
   style="fill:#dabe8d;fill-opacity:1"
   id="g6984">
				<g
   style="fill:#dabe8d;fill-opacity:1"
   id="g6962">
					<path
   style="fill:#dabe8d;fill-opacity:1"
   id="path6960"
   d="m 39.5,26.9 c -0.2,-0.2 -0.4,-0.4 -0.7,-0.5 -0.3,-0.1 -0.6,-0.2 -0.9,-0.2 -1.2,0 -2.1,1 -2.1,2.2 0,1.4 1.2,2.2 2.2,2.2 0.4,0 0.7,-0.1 1,-0.2 0.3,-0.2 0.5,-0.4 0.6,-0.4 v 0.7 c -0.6,0.4 -1.2,0.5 -1.6,0.5 -1.6,0 -2.8,-1.2 -2.8,-2.7 0,-1.6 1.2,-2.8 2.8,-2.8 0.3,0 0.9,0 1.6,0.5 z"
   class="st1" />
				</g>
				<g
   style="fill:#dabe8d;fill-opacity:1"
   id="g6966">
					<path
   style="fill:#dabe8d;fill-opacity:1"
   id="path6964"
   d="m 40.3,28.4 c 0,-1.6 1.2,-2.8 2.8,-2.8 1.6,0 2.8,1.2 2.8,2.8 0,1.6 -1.2,2.8 -2.8,2.8 -1.6,-0.1 -2.8,-1.3 -2.8,-2.8 z m 0.6,0 c 0,1.2 1,2.2 2.2,2.2 1.2,0 2.2,-1 2.2,-2.2 0,-1.2 -1,-2.2 -2.2,-2.2 -1.2,0 -2.2,0.9 -2.2,2.2 z"
   class="st1" />
				</g>
				<g
   style="fill:#dabe8d;fill-opacity:1"
   id="g6970">
					<path
   style="fill:#dabe8d;fill-opacity:1"
   id="path6968"
   d="M 49.7,29.5 H 47.4 L 46.8,31 H 46.1 L 48.6,25.4 51,31 H 50.3 Z M 49.5,29 48.6,26.9 47.7,29 Z"
   class="st1" />
				</g>
				<g
   style="fill:#dabe8d;fill-opacity:1"
   id="g6974">
					<path
   style="fill:#dabe8d;fill-opacity:1"
   id="path6972"
   d="m 52.6,25.7 c 0.4,0 0.9,0 1.3,0.3 0.3,0.2 0.6,0.6 0.6,1.2 0,0.8 -0.5,1.4 -1.3,1.5 l 1.7,2.4 H 54.2 L 52.6,28.8 H 52.4 V 31 h -0.6 v -5.3 z m -0.3,2.5 h 0.4 c 0.7,0 1.2,-0.4 1.2,-1 0,-0.3 -0.1,-0.6 -0.4,-0.8 -0.2,-0.1 -0.5,-0.2 -0.8,-0.2 h -0.4 z"
   class="st1" />
				</g>
				<g
   style="fill:#dabe8d;fill-opacity:1"
   id="g6978">
					<path
   style="fill:#dabe8d;fill-opacity:1"
   id="path6976"
   d="m 58.1,26.7 c -0.1,-0.1 -0.2,-0.3 -0.3,-0.4 -0.1,-0.1 -0.3,-0.2 -0.6,-0.2 -0.5,0 -0.9,0.3 -0.9,0.8 0,0.2 0.1,0.3 0.2,0.5 0.2,0.2 0.4,0.2 0.6,0.3 l 0.5,0.2 c 0.3,0.1 0.6,0.3 0.8,0.5 0.3,0.3 0.4,0.6 0.4,1 0,1 -0.7,1.6 -1.7,1.6 -0.4,0 -0.8,-0.1 -1.2,-0.4 C 55.6,30.3 55.5,30 55.4,29.7 L 56,29.5 c 0,0.3 0.2,0.5 0.3,0.7 0.2,0.2 0.5,0.3 0.8,0.3 0.7,0 1.1,-0.5 1.1,-1.1 0,-0.2 -0.1,-0.4 -0.3,-0.6 -0.2,-0.1 -0.4,-0.2 -0.6,-0.4 l -0.5,-0.2 c -0.2,-0.1 -0.5,-0.2 -0.7,-0.4 -0.2,-0.2 -0.4,-0.5 -0.4,-0.9 0,-0.8 0.6,-1.4 1.5,-1.4 0.3,0 0.6,0.1 0.9,0.2 0.2,0.1 0.4,0.4 0.5,0.6 z"
   class="st1" />
				</g>
				<g
   style="fill:#dabe8d;fill-opacity:1"
   id="g6982">
					<path
   style="fill:#dabe8d;fill-opacity:1"
   id="path6980"
   d="m 62.7,26.2 h -2.2 v 1.6 h 2.1 v 0.6 h -2.1 v 2.1 h 2.2 V 31 h -2.8 v -5.3 h 2.8 z"
   class="st1" />
				</g>
			</g>
			<g
   style="fill:#dabe8d;fill-opacity:1"
   id="g7010">
				<g
   style="fill:#dabe8d;fill-opacity:1"
   id="g6988">
					<path
   style="fill:#dabe8d;fill-opacity:1"
   id="path6986"
   d="m 25.4,253.7 c -0.2,-0.2 -0.4,-0.4 -0.7,-0.5 -0.3,-0.1 -0.6,-0.2 -0.9,-0.2 -1.2,0 -2.1,1 -2.1,2.2 0,1.4 1.2,2.2 2.2,2.2 0.4,0 0.7,-0.1 1,-0.2 0.3,-0.2 0.5,-0.4 0.6,-0.4 v 0.7 c -0.6,0.4 -1.2,0.5 -1.6,0.5 -1.6,0 -2.8,-1.2 -2.8,-2.7 0,-1.6 1.2,-2.8 2.8,-2.8 0.3,0 0.9,0 1.6,0.5 v 0.7 z"
   class="st1" />
				</g>
				<g
   style="fill:#dabe8d;fill-opacity:1"
   id="g6992">
					<path
   style="fill:#dabe8d;fill-opacity:1"
   id="path6990"
   d="m 26.2,255.2 c 0,-1.6 1.2,-2.8 2.8,-2.8 1.6,0 2.8,1.2 2.8,2.8 0,1.6 -1.2,2.8 -2.8,2.8 -1.6,0 -2.8,-1.2 -2.8,-2.8 z m 0.6,0 c 0,1.2 1,2.2 2.2,2.2 1.2,0 2.2,-1 2.2,-2.2 0,-1.2 -1,-2.2 -2.2,-2.2 -1.2,0 -2.2,1 -2.2,2.2 z"
   class="st1" />
				</g>
				<g
   style="fill:#dabe8d;fill-opacity:1"
   id="g6996">
					<path
   style="fill:#dabe8d;fill-opacity:1"
   id="path6994"
   d="m 35.6,256.4 h -2.3 l -0.6,1.5 H 32 l 2.5,-5.6 2.4,5.6 h -0.7 z m -0.2,-0.6 -0.9,-2.1 -0.9,2.1 z"
   class="st1" />
				</g>
				<g
   style="fill:#dabe8d;fill-opacity:1"
   id="g7000">
					<path
   style="fill:#dabe8d;fill-opacity:1"
   id="path6998"
   d="m 38.5,252.6 c 0.4,0 0.9,0 1.3,0.3 0.3,0.2 0.6,0.6 0.6,1.2 0,0.8 -0.5,1.4 -1.3,1.5 l 1.7,2.4 H 40 l -1.6,-2.3 h -0.2 v 2.3 h -0.6 v -5.3 z m -0.3,2.4 h 0.4 c 0.7,0 1.2,-0.4 1.2,-1 0,-0.3 -0.1,-0.6 -0.4,-0.8 -0.2,-0.1 -0.5,-0.2 -0.8,-0.2 h -0.4 z"
   class="st1" />
				</g>
				<g
   style="fill:#dabe8d;fill-opacity:1"
   id="g7004">
					<path
   style="fill:#dabe8d;fill-opacity:1"
   id="path7002"
   d="m 44,253.6 c -0.1,-0.1 -0.2,-0.3 -0.3,-0.4 -0.1,-0.1 -0.3,-0.2 -0.6,-0.2 -0.5,0 -0.9,0.3 -0.9,0.8 0,0.2 0.1,0.3 0.2,0.5 0.2,0.2 0.4,0.2 0.6,0.3 l 0.5,0.2 c 0.3,0.1 0.6,0.3 0.8,0.5 0.3,0.3 0.4,0.6 0.4,1 0,1 -0.7,1.6 -1.7,1.6 -0.4,0 -0.8,-0.1 -1.2,-0.4 -0.3,-0.3 -0.4,-0.6 -0.5,-0.9 l 0.6,-0.2 c 0,0.3 0.2,0.5 0.3,0.7 0.2,0.2 0.5,0.3 0.8,0.3 0.7,0 1.1,-0.5 1.1,-1.1 0,-0.2 -0.1,-0.4 -0.3,-0.6 -0.2,-0.1 -0.4,-0.2 -0.6,-0.4 l -0.5,-0.2 c -0.2,-0.1 -0.5,-0.2 -0.7,-0.4 -0.2,-0.2 -0.4,-0.5 -0.4,-0.9 0,-0.8 0.6,-1.4 1.5,-1.4 0.3,0 0.6,0.1 0.9,0.2 0.2,0.1 0.4,0.4 0.5,0.6 z"
   class="st1" />
				</g>
				<g
   style="fill:#dabe8d;fill-opacity:1"
   id="g7008">
					<path
   style="fill:#dabe8d;fill-opacity:1"
   id="path7006"
   d="m 48.6,253.1 h -2.2 v 1.6 h 2.1 v 0.6 h -2.1 v 2.1 h 2.2 v 0.6 h -2.8 v -5.3 h 2.8 z"
   class="st1" />
				</g>
			</g>
			<g
   style="fill:#dabe8d;fill-opacity:1"
   id="g7036">
				<g
   style="fill:#dabe8d;fill-opacity:1"
   id="g7014">
					<path
   style="fill:#dabe8d;fill-opacity:1"
   id="path7012"
   d="M 7.6,268.2 H 6.7 L 7,267.6 h 1.2 v 5.3 H 7.6 Z"
   class="st1" />
				</g>
				<g
   style="fill:#dabe8d;fill-opacity:1"
   id="g7018">
					<path
   style="fill:#dabe8d;fill-opacity:1"
   id="path7016"
   d="m 10.8,267.6 1.5,4.1 1.5,-4.1 h 0.7 l -2.2,5.7 -2.2,-5.7 z"
   class="st1" />
				</g>
				<g
   style="fill:#dabe8d;fill-opacity:1"
   id="g7022">
					<path
   style="fill:#dabe8d;fill-opacity:1"
   id="path7020"
   d="m 18.6,266.9 0.5,0.2 -4.1,7.4 -0.5,-0.2 z"
   class="st1" />
				</g>
				<g
   style="fill:#dabe8d;fill-opacity:1"
   id="g7026">
					<path
   style="fill:#dabe8d;fill-opacity:1"
   id="path7024"
   d="m 19.6,270.3 c 0,-1.6 1.2,-2.8 2.8,-2.8 1.6,0 2.8,1.2 2.8,2.8 0,1.6 -1.2,2.8 -2.8,2.8 -1.6,0 -2.8,-1.2 -2.8,-2.8 z m 0.6,0 c 0,1.2 1,2.2 2.2,2.2 1.2,0 2.2,-1 2.2,-2.2 0,-1.2 -1,-2.2 -2.2,-2.2 -1.2,0 -2.2,1 -2.2,2.2 z"
   class="st1" />
				</g>
				<g
   style="fill:#dabe8d;fill-opacity:1"
   id="g7030">
					<path
   style="fill:#dabe8d;fill-opacity:1"
   id="path7028"
   d="m 30.3,268.8 c -0.2,-0.2 -0.4,-0.4 -0.7,-0.5 -0.3,-0.1 -0.6,-0.2 -0.9,-0.2 -1.2,0 -2.1,1 -2.1,2.2 0,1.4 1.2,2.2 2.2,2.2 0.4,0 0.7,-0.1 1,-0.2 0.3,-0.2 0.5,-0.4 0.6,-0.4 v 0.7 c -0.6,0.4 -1.2,0.5 -1.6,0.5 -1.6,0 -2.8,-1.2 -2.8,-2.7 0,-1.6 1.2,-2.8 2.8,-2.8 0.3,0 0.9,0 1.6,0.5 v 0.7 z"
   class="st1" />
				</g>
				<g
   style="fill:#dabe8d;fill-opacity:1"
   id="g7034">
					<path
   style="fill:#dabe8d;fill-opacity:1"
   id="path7032"
   d="m 32.7,268.2 v 4.8 h -0.6 v -4.8 h -1.3 v -0.6 H 34 v 0.6 z"
   class="st1" />
				</g>
			</g>
			<g
   style="fill:#dabe8d;fill-opacity:1"
   id="g7054">
				<g
   style="fill:#dabe8d;fill-opacity:1"
   id="g7040">
					<path
   style="fill:#dabe8d;fill-opacity:1"
   id="path7038"
   d="m 13.4,335.9 v 4.8 h 1.5 v 0.6 H 12.8 V 336 h 0.6 z"
   class="st1" />
				</g>
				<g
   style="fill:#dabe8d;fill-opacity:1"
   id="g7044">
					<path
   style="fill:#dabe8d;fill-opacity:1"
   id="path7042"
   d="m 16.2,335.9 v 5.3 h -0.6 v -5.3 z"
   class="st1" />
				</g>
				<g
   style="fill:#dabe8d;fill-opacity:1"
   id="g7048">
					<path
   style="fill:#dabe8d;fill-opacity:1"
   id="path7046"
   d="m 17.6,341.2 v -5.6 l 4.2,4.4 v -4.1 h 0.6 v 5.6 l -4.2,-4.4 v 4.1 z"
   class="st1" />
				</g>
				<g
   style="fill:#dabe8d;fill-opacity:1"
   id="g7052">
					<path
   style="fill:#dabe8d;fill-opacity:1"
   id="path7050"
   d="m 24.3,338.2 2.3,-2.3 h 0.8 l -2.5,2.5 2.6,2.8 h -0.8 l -2.2,-2.4 -0.2,0.2 v 2.3 H 23.7 V 336 h 0.6 c 0,0 0,2.2 0,2.2 z"
   class="st1" />
				</g>
			</g>
			<g
   style="fill:#dabe8d;fill-opacity:1"
   id="g7080">
				<g
   style="fill:#dabe8d;fill-opacity:1"
   id="g7058">
					<path
   style="fill:#dabe8d;fill-opacity:1"
   id="path7056"
   d="M 7.6,97.5 H 6.7 L 7,96.9 h 1.2 v 5.3 H 7.6 Z"
   class="st1" />
				</g>
				<g
   style="fill:#dabe8d;fill-opacity:1"
   id="g7062">
					<path
   style="fill:#dabe8d;fill-opacity:1"
   id="path7060"
   d="m 10.7,96.9 1.5,4.1 1.5,-4.1 h 0.7 l -2.2,5.7 -2.2,-5.7 z"
   class="st1" />
				</g>
				<g
   style="fill:#dabe8d;fill-opacity:1"
   id="g7066">
					<path
   style="fill:#dabe8d;fill-opacity:1"
   id="path7064"
   d="m 18.6,96.2 0.5,0.2 -4.1,7.4 -0.5,-0.2 z"
   class="st1" />
				</g>
				<g
   style="fill:#dabe8d;fill-opacity:1"
   id="g7070">
					<path
   style="fill:#dabe8d;fill-opacity:1"
   id="path7068"
   d="m 19.6,99.6 c 0,-1.6 1.2,-2.8 2.8,-2.8 1.6,0 2.8,1.2 2.8,2.8 0,1.6 -1.2,2.8 -2.8,2.8 -1.6,0 -2.8,-1.2 -2.8,-2.8 z m 0.6,0 c 0,1.2 1,2.2 2.2,2.2 1.2,0 2.2,-1 2.2,-2.2 0,-1.2 -1,-2.2 -2.2,-2.2 -1.2,0 -2.2,1 -2.2,2.2 z"
   class="st1" />
				</g>
				<g
   style="fill:#dabe8d;fill-opacity:1"
   id="g7074">
					<path
   style="fill:#dabe8d;fill-opacity:1"
   id="path7072"
   d="m 30.3,98.1 c -0.2,-0.2 -0.4,-0.4 -0.7,-0.5 -0.3,-0.1 -0.6,-0.2 -0.9,-0.2 -1.2,0 -2.1,1 -2.1,2.2 0,1.4 1.2,2.2 2.2,2.2 0.4,0 0.7,-0.1 1,-0.2 0.3,-0.2 0.5,-0.4 0.6,-0.4 v 0.7 c -0.6,0.4 -1.2,0.5 -1.6,0.5 -1.6,0 -2.8,-1.2 -2.8,-2.7 0,-1.6 1.2,-2.8 2.8,-2.8 0.3,0 0.9,0 1.6,0.5 v 0.7 z"
   class="st1" />
				</g>
				<g
   style="fill:#dabe8d;fill-opacity:1"
   id="g7078">
					<path
   style="fill:#dabe8d;fill-opacity:1"
   id="path7076"
   d="m 32.7,97.5 v 4.8 H 32.1 V 97.5 H 30.8 V 96.9 H 34 v 0.6 z"
   class="st1" />
				</g>
			</g>
			<g
   style="fill:#dabe8d;fill-opacity:1"
   id="g7094">
				<g
   style="fill:#dabe8d;fill-opacity:1"
   id="g7084">
					<path
   style="fill:#dabe8d;fill-opacity:1"
   id="path7082"
   d="m 14.8,21.9 v 4.8 h 1.5 v 0.6 H 14.2 V 22 h 0.6 z"
   class="st1" />
				</g>
				<g
   style="fill:#dabe8d;fill-opacity:1"
   id="g7088">
					<path
   style="fill:#dabe8d;fill-opacity:1"
   id="path7086"
   d="m 19.5,22.5 h -1.8 v 1.6 h 1.8 v 0.6 h -1.8 v 2.6 H 17 V 22 h 2.4 v 0.5 z"
   class="st1" />
				</g>
				<g
   style="fill:#dabe8d;fill-opacity:1"
   id="g7092">
					<path
   style="fill:#dabe8d;fill-opacity:1"
   id="path7090"
   d="m 20.2,24.6 c 0,-1.6 1.2,-2.8 2.8,-2.8 1.6,0 2.8,1.2 2.8,2.8 0,1.6 -1.2,2.8 -2.8,2.8 -1.6,0 -2.8,-1.2 -2.8,-2.8 z m 0.6,0 c 0,1.2 1,2.2 2.2,2.2 1.2,0 2.2,-1 2.2,-2.2 0,-1.2 -1,-2.2 -2.2,-2.2 -1.2,0 -2.2,1 -2.2,2.2 z"
   class="st1" />
				</g>
			</g>
			<g
   style="fill:#dabe8d;fill-opacity:1"
   id="g7112">
				<g
   style="fill:#dabe8d;fill-opacity:1"
   id="g7098">
					<path
   style="fill:#dabe8d;fill-opacity:1"
   id="path7096"
   d="M 137.8,33.7 H 136 v 1.6 h 1.8 v 0.6 H 136 v 2.6 h -0.6 v -5.3 h 2.4 z"
   class="st1" />
				</g>
				<g
   style="fill:#dabe8d;fill-opacity:1"
   id="g7102">
					<path
   style="fill:#dabe8d;fill-opacity:1"
   id="path7100"
   d="m 139.4,33.2 v 5.3 h -0.6 v -5.3 z"
   class="st1" />
				</g>
				<g
   style="fill:#dabe8d;fill-opacity:1"
   id="g7106">
					<path
   style="fill:#dabe8d;fill-opacity:1"
   id="path7104"
   d="m 140.8,38.5 v -5.6 l 4.2,4.4 v -4.1 h 0.6 v 5.6 l -4.2,-4.4 v 4.1 z"
   class="st1" />
				</g>
				<g
   style="fill:#dabe8d;fill-opacity:1"
   id="g7110">
					<path
   style="fill:#dabe8d;fill-opacity:1"
   id="path7108"
   d="m 149.7,33.7 h -2.2 v 1.6 h 2.1 v 0.6 h -2.1 V 38 h 2.2 v 0.6 h -2.8 v -5.3 h 2.8 z"
   class="st1" />
				</g>
			</g>
			<g
   style="fill:#dabe8d;fill-opacity:1"
   id="g7130">
				<g
   style="fill:#dabe8d;fill-opacity:1"
   id="g7116">
					<path
   style="fill:#dabe8d;fill-opacity:1"
   id="path7114"
   d="m 151.7,87.2 c -0.1,-0.1 -0.2,-0.3 -0.3,-0.4 -0.1,-0.1 -0.3,-0.2 -0.6,-0.2 -0.5,0 -0.9,0.3 -0.9,0.8 0,0.2 0.1,0.3 0.2,0.5 0.2,0.2 0.4,0.2 0.6,0.3 l 0.5,0.2 c 0.3,0.1 0.6,0.3 0.8,0.5 0.3,0.3 0.4,0.6 0.4,1 0,1 -0.7,1.6 -1.7,1.6 -0.4,0 -0.8,-0.1 -1.2,-0.4 -0.3,-0.3 -0.4,-0.6 -0.5,-0.9 l 0.6,-0.2 c 0,0.3 0.2,0.5 0.3,0.7 0.2,0.2 0.5,0.3 0.8,0.3 0.7,0 1.1,-0.5 1.1,-1.1 0,-0.2 -0.1,-0.4 -0.3,-0.6 -0.2,-0.1 -0.4,-0.2 -0.6,-0.4 l -0.5,-0.2 c -0.2,-0.1 -0.5,-0.2 -0.7,-0.4 -0.2,-0.2 -0.4,-0.5 -0.4,-0.9 0,-0.8 0.6,-1.4 1.5,-1.4 0.3,0 0.6,0.1 0.9,0.2 0.2,0.1 0.4,0.4 0.5,0.6 z"
   class="st1" />
				</g>
				<g
   style="fill:#dabe8d;fill-opacity:1"
   id="g7120">
					<path
   style="fill:#dabe8d;fill-opacity:1"
   id="path7118"
   d="m 154.3,89.2 -1.8,-3 h 0.7 l 1.4,2.4 1.4,-2.4 h 0.7 l -1.8,3 v 2.3 h -0.6 z"
   class="st1" />
				</g>
				<g
   style="fill:#dabe8d;fill-opacity:1"
   id="g7124">
					<path
   style="fill:#dabe8d;fill-opacity:1"
   id="path7122"
   d="m 157.4,91.5 v -5.6 l 4.2,4.4 v -4.1 h 0.6 v 5.6 L 158,87.4 v 4.1 z"
   class="st1" />
				</g>
				<g
   style="fill:#dabe8d;fill-opacity:1"
   id="g7128">
					<path
   style="fill:#dabe8d;fill-opacity:1"
   id="path7126"
   d="m 167.6,87.3 c -0.2,-0.2 -0.4,-0.4 -0.7,-0.5 -0.3,-0.1 -0.6,-0.2 -0.9,-0.2 -1.2,0 -2.1,1 -2.1,2.2 0,1.4 1.2,2.2 2.2,2.2 0.4,0 0.7,-0.1 1,-0.2 0.3,-0.2 0.5,-0.4 0.6,-0.4 V 91 c -0.6,0.4 -1.2,0.5 -1.6,0.5 -1.6,0 -2.8,-1.2 -2.8,-2.7 0,-1.6 1.2,-2.8 2.8,-2.8 0.3,0 0.9,0 1.6,0.5 v 0.8 z"
   class="st1" />
				</g>
			</g>
			<g
   style="fill:#dabe8d;fill-opacity:1"
   id="g7140">
				<g
   style="fill:#dabe8d;fill-opacity:1"
   id="g7134">
					<path
   style="fill:#dabe8d;fill-opacity:1"
   id="path7132"
   d="m 213,56 c -0.2,-0.2 -0.4,-0.4 -0.7,-0.5 -0.3,-0.1 -0.6,-0.2 -0.9,-0.2 -1.2,0 -2.1,1 -2.1,2.2 0,1.4 1.2,2.2 2.2,2.2 0.4,0 0.7,-0.1 1,-0.2 0.3,-0.2 0.5,-0.4 0.6,-0.4 v 0.7 c -0.6,0.4 -1.2,0.5 -1.6,0.5 -1.6,0 -2.8,-1.2 -2.8,-2.7 0,-1.6 1.2,-2.8 2.8,-2.8 0.3,0 0.9,0 1.6,0.5 V 56 Z"
   class="st1" />
				</g>
				<g
   style="fill:#dabe8d;fill-opacity:1"
   id="g7138">
					<path
   style="fill:#dabe8d;fill-opacity:1"
   id="path7136"
   d="m 214.2,54.8 1.5,4.1 1.5,-4.1 h 0.7 l -2.2,5.7 -2.2,-5.7 z"
   class="st1" />
				</g>
			</g>
			<g
   style="fill:#dabe8d;fill-opacity:1"
   id="g7150">
				<g
   style="fill:#dabe8d;fill-opacity:1"
   id="g7144">
					<path
   style="fill:#dabe8d;fill-opacity:1"
   id="path7142"
   d="m 215.3,309.6 c -0.2,-0.2 -0.4,-0.4 -0.7,-0.5 -0.3,-0.1 -0.6,-0.2 -0.9,-0.2 -1.2,0 -2.1,1 -2.1,2.2 0,1.4 1.2,2.2 2.2,2.2 0.4,0 0.7,-0.1 1,-0.2 0.3,-0.2 0.5,-0.4 0.6,-0.4 v 0.7 c -0.6,0.4 -1.2,0.5 -1.6,0.5 -1.6,0 -2.8,-1.2 -2.8,-2.7 0,-1.6 1.2,-2.8 2.8,-2.8 0.3,0 0.9,0 1.6,0.5 v 0.7 z"
   class="st1" />
				</g>
				<g
   style="fill:#dabe8d;fill-opacity:1"
   id="g7148">
					<path
   style="fill:#dabe8d;fill-opacity:1"
   id="path7146"
   d="m 216.4,308.5 1.5,4.1 1.5,-4.1 h 0.7 l -2.2,5.7 -2.2,-5.7 z"
   class="st1" />
				</g>
			</g>
			<g
   style="fill:#dabe8d;fill-opacity:1"
   id="g7172">
				<g
   style="fill:#dabe8d;fill-opacity:1"
   id="g7154">
					<path
   style="fill:#dabe8d;fill-opacity:1"
   id="path7152"
   d="m 265.5,215.5 h 1.1 c 0.5,0 1.3,0.1 2,0.6 0.5,0.4 0.9,1.1 0.9,2 0,1.1 -0.6,1.7 -0.9,2 -0.5,0.4 -1,0.6 -2,0.6 h -1.1 z m 0.5,4.8 h 0.5 c 0.4,0 1,0 1.5,-0.5 0.4,-0.3 0.7,-0.9 0.7,-1.6 0,-1.3 -0.9,-2.1 -2.2,-2.1 H 266 Z"
   class="st1" />
				</g>
				<g
   style="fill:#dabe8d;fill-opacity:1"
   id="g7158">
					<path
   style="fill:#dabe8d;fill-opacity:1"
   id="path7156"
   d="m 273.3,216.1 h -2.2 v 1.6 h 2.1 v 0.6 h -2.1 v 2.1 h 2.2 v 0.6 h -2.8 v -5.3 h 2.8 z"
   class="st1" />
				</g>
				<g
   style="fill:#dabe8d;fill-opacity:1"
   id="g7162">
					<path
   style="fill:#dabe8d;fill-opacity:1"
   id="path7160"
   d="m 275.3,215.5 c 0.5,0 1,0.1 1.3,0.4 0.4,0.3 0.5,0.8 0.5,1.1 0,0.8 -0.5,1.5 -1.7,1.5 H 275 v 2.3 h -0.6 v -5.3 z M 275,218 h 0.5 c 0.7,0 1.1,-0.4 1.1,-1 0,-0.8 -0.8,-0.9 -1.2,-0.9 H 275 Z"
   class="st1" />
				</g>
				<g
   style="fill:#dabe8d;fill-opacity:1"
   id="g7166">
					<path
   style="fill:#dabe8d;fill-opacity:1"
   id="path7164"
   d="m 279.3,216.1 v 4.8 h -0.6 v -4.8 h -1.3 v -0.6 h 3.2 v 0.6 z"
   class="st1" />
				</g>
				<g
   style="fill:#dabe8d;fill-opacity:1"
   id="g7170">
					<path
   style="fill:#dabe8d;fill-opacity:1"
   id="path7168"
   d="m 282,217.7 h 2.7 v -2.2 h 0.6 v 5.3 h -0.6 v -2.6 H 282 v 2.6 h -0.6 v -5.3 h 0.6 z"
   class="st1" />
				</g>
			</g>
			<g
   style="fill:#dabe8d;fill-opacity:1"
   id="g7190">
				<g
   style="fill:#dabe8d;fill-opacity:1"
   id="g7176">
					<path
   style="fill:#dabe8d;fill-opacity:1"
   id="path7174"
   d="m 276.3,131.1 c 0.4,0 0.9,0 1.3,0.3 0.3,0.2 0.6,0.6 0.6,1.2 0,0.8 -0.5,1.4 -1.3,1.5 l 1.7,2.4 h -0.7 l -1.6,-2.3 H 276 v 2.3 h -0.6 v -5.3 z m -0.3,2.5 h 0.4 c 0.7,0 1.2,-0.4 1.2,-1 0,-0.3 -0.1,-0.6 -0.4,-0.8 -0.2,-0.1 -0.5,-0.2 -0.8,-0.2 H 276 Z"
   class="st1" />
				</g>
				<g
   style="fill:#dabe8d;fill-opacity:1"
   id="g7180">
					<path
   style="fill:#dabe8d;fill-opacity:1"
   id="path7178"
   d="m 280,131.1 v 5.3 h -0.6 v -5.3 z"
   class="st1" />
				</g>
				<g
   style="fill:#dabe8d;fill-opacity:1"
   id="g7184">
					<path
   style="fill:#dabe8d;fill-opacity:1"
   id="path7182"
   d="m 281.4,136.5 v -5.6 l 4.2,4.4 v -4.1 h 0.6 v 5.6 l -4.2,-4.4 v 4.1 z"
   class="st1" />
				</g>
				<g
   style="fill:#dabe8d;fill-opacity:1"
   id="g7188">
					<path
   style="fill:#dabe8d;fill-opacity:1"
   id="path7186"
   d="m 290.3,133.8 h 2.2 v 0.1 c 0,0.6 -0.2,1.2 -0.5,1.7 -0.2,0.2 -0.8,1 -2,1 -1.6,0 -2.8,-1.2 -2.8,-2.8 0,-1.6 1.2,-2.8 2.8,-2.8 0.5,0 1.1,0.1 1.6,0.5 0.2,0.2 0.5,0.4 0.6,0.6 l -0.4,0.4 c -0.2,-0.2 -0.3,-0.4 -0.5,-0.6 -0.3,-0.2 -0.7,-0.4 -1.3,-0.4 -1.3,0 -2.2,1 -2.2,2.2 0,1.5 1.2,2.2 2.2,2.2 0.7,0 1.3,-0.4 1.6,-0.9 0.1,-0.2 0.2,-0.4 0.2,-0.8 h -1.6 z"
   class="st1" />
				</g>
			</g>
			<g
   style="fill:#dabe8d;fill-opacity:1"
   id="g7204">
				<g
   style="fill:#dabe8d;fill-opacity:1"
   id="g7194">
					<path
   style="fill:#dabe8d;fill-opacity:1"
   id="path7192"
   d="m 308.1,97.9 0.9,-5.6 2,4.5 2.1,-4.5 0.8,5.6 h -0.6 l -0.5,-3.7 -1.8,3.9 -1.8,-3.9 -0.5,3.7 z"
   class="st1" />
				</g>
				<g
   style="fill:#dabe8d;fill-opacity:1"
   id="g7198">
					<path
   style="fill:#dabe8d;fill-opacity:1"
   id="path7196"
   d="m 314.9,95.2 c 0,-1.6 1.2,-2.8 2.8,-2.8 1.6,0 2.8,1.2 2.8,2.8 0,1.6 -1.2,2.8 -2.8,2.8 -1.5,-0.1 -2.8,-1.2 -2.8,-2.8 z m 0.7,0 c 0,1.2 1,2.2 2.2,2.2 1.2,0 2.2,-1 2.2,-2.2 0,-1.2 -1,-2.2 -2.2,-2.2 -1.2,0 -2.2,1 -2.2,2.2 z"
   class="st1" />
				</g>
				<g
   style="fill:#dabe8d;fill-opacity:1"
   id="g7202">
					<path
   style="fill:#dabe8d;fill-opacity:1"
   id="path7200"
   d="m 321.6,92.5 h 1.1 c 0.5,0 1.3,0.1 2,0.6 0.5,0.4 0.9,1.1 0.9,2 0,1.1 -0.6,1.7 -0.9,2 -0.5,0.4 -1,0.6 -2,0.6 h -1.1 z m 0.6,4.8 h 0.5 c 0.4,0 1,0 1.5,-0.5 0.4,-0.3 0.7,-0.9 0.7,-1.6 0,-1.3 -0.9,-2.1 -2.2,-2.1 h -0.5 z"
   class="st1" />
				</g>
			</g>
			<g
   style="fill:#dabe8d;fill-opacity:1"
   id="g7214">
				<g
   style="fill:#dabe8d;fill-opacity:1"
   id="g7208">
					<path
   style="fill:#dabe8d;fill-opacity:1"
   id="path7206"
   d="m 281.5,142.9 h -2.3 l -0.6,1.5 h -0.7 l 2.5,-5.6 2.4,5.6 h -0.7 z m -0.2,-0.6 -0.9,-2.1 -0.9,2.1 z"
   class="st1" />
				</g>
				<g
   style="fill:#dabe8d;fill-opacity:1"
   id="g7212">
					<path
   style="fill:#dabe8d;fill-opacity:1"
   id="path7210"
   d="m 283.4,144.4 0.9,-5.6 2,4.5 2.1,-4.5 0.8,5.6 h -0.6 l -0.5,-3.7 -1.8,3.9 -1.8,-3.9 -0.5,3.7 z"
   class="st1" />
				</g>
			</g>
			<g
   style="fill:#dabe8d;fill-opacity:1"
   id="g7232">
				<g
   style="fill:#dabe8d;fill-opacity:1"
   id="g7218">
					<path
   style="fill:#dabe8d;fill-opacity:1"
   id="path7216"
   d="m 277.1,146.4 c 0.4,0 0.9,0 1.3,0.3 0.3,0.2 0.6,0.6 0.6,1.2 0,0.8 -0.5,1.4 -1.3,1.5 l 1.7,2.4 h -0.7 l -1.6,-2.3 h -0.2 v 2.3 h -0.6 v -5.3 z m -0.2,2.5 h 0.4 c 0.7,0 1.2,-0.4 1.2,-1 0,-0.3 -0.1,-0.6 -0.4,-0.8 -0.2,-0.1 -0.5,-0.2 -0.8,-0.2 h -0.4 z"
   class="st1" />
				</g>
				<g
   style="fill:#dabe8d;fill-opacity:1"
   id="g7222">
					<path
   style="fill:#dabe8d;fill-opacity:1"
   id="path7220"
   d="m 283.1,147 h -2.2 v 1.6 h 2.1 v 0.6 h -2.1 v 2.1 h 2.2 v 0.6 h -2.8 v -5.3 h 2.8 z"
   class="st1" />
				</g>
				<g
   style="fill:#dabe8d;fill-opacity:1"
   id="g7226">
					<path
   style="fill:#dabe8d;fill-opacity:1"
   id="path7224"
   d="m 288.2,147.6 c -0.2,-0.2 -0.4,-0.4 -0.7,-0.5 -0.3,-0.1 -0.6,-0.2 -0.9,-0.2 -1.2,0 -2.1,1 -2.1,2.2 0,1.4 1.2,2.2 2.2,2.2 0.4,0 0.7,-0.1 1,-0.2 0.3,-0.2 0.5,-0.4 0.6,-0.4 v 0.7 c -0.6,0.4 -1.2,0.5 -1.6,0.5 -1.6,0 -2.8,-1.2 -2.8,-2.7 0,-1.6 1.2,-2.8 2.8,-2.8 0.3,0 0.9,0 1.6,0.5 v 0.7 z"
   class="st1" />
				</g>
				<g
   style="fill:#dabe8d;fill-opacity:1"
   id="g7230">
					<path
   style="fill:#dabe8d;fill-opacity:1"
   id="path7228"
   d="m 290.6,147 v 4.8 H 290 V 147 h -1.3 v -0.6 h 3.2 v 0.6 z"
   class="st1" />
				</g>
			</g>
			<g
   style="fill:#dabe8d;fill-opacity:1"
   id="g7250">
				<g
   style="fill:#dabe8d;fill-opacity:1"
   id="g7236">
					<path
   style="fill:#dabe8d;fill-opacity:1"
   id="path7234"
   d="m 151.7,305.7 c -0.1,-0.1 -0.2,-0.3 -0.3,-0.4 -0.1,-0.1 -0.3,-0.2 -0.6,-0.2 -0.5,0 -0.9,0.3 -0.9,0.8 0,0.2 0.1,0.3 0.2,0.5 0.2,0.2 0.4,0.2 0.6,0.3 l 0.5,0.2 c 0.3,0.1 0.6,0.3 0.8,0.5 0.3,0.3 0.4,0.6 0.4,1 0,1 -0.7,1.6 -1.7,1.6 -0.4,0 -0.8,-0.1 -1.2,-0.4 -0.3,-0.3 -0.4,-0.6 -0.5,-0.9 l 0.6,-0.2 c 0,0.3 0.2,0.5 0.3,0.7 0.2,0.2 0.5,0.3 0.8,0.3 0.7,0 1.1,-0.5 1.1,-1.1 0,-0.2 -0.1,-0.4 -0.3,-0.6 -0.2,-0.1 -0.4,-0.2 -0.6,-0.4 l -0.5,-0.2 c -0.2,-0.1 -0.5,-0.2 -0.7,-0.4 -0.2,-0.2 -0.4,-0.5 -0.4,-0.9 0,-0.8 0.6,-1.4 1.5,-1.4 0.3,0 0.6,0.1 0.9,0.2 0.2,0.1 0.4,0.4 0.5,0.6 z"
   class="st1" />
				</g>
				<g
   style="fill:#dabe8d;fill-opacity:1"
   id="g7240">
					<path
   style="fill:#dabe8d;fill-opacity:1"
   id="path7238"
   d="m 154.3,307.6 -1.8,-3 h 0.7 l 1.4,2.4 1.4,-2.4 h 0.7 l -1.8,3 v 2.3 h -0.6 z"
   class="st1" />
				</g>
				<g
   style="fill:#dabe8d;fill-opacity:1"
   id="g7244">
					<path
   style="fill:#dabe8d;fill-opacity:1"
   id="path7242"
   d="m 157.4,309.9 v -5.6 l 4.2,4.4 v -4.1 h 0.6 v 5.6 l -4.2,-4.4 v 4.1 z"
   class="st1" />
				</g>
				<g
   style="fill:#dabe8d;fill-opacity:1"
   id="g7248">
					<path
   style="fill:#dabe8d;fill-opacity:1"
   id="path7246"
   d="m 167.6,305.8 c -0.2,-0.2 -0.4,-0.4 -0.7,-0.5 -0.3,-0.1 -0.6,-0.2 -0.9,-0.2 -1.2,0 -2.1,1 -2.1,2.2 0,1.4 1.2,2.2 2.2,2.2 0.4,0 0.7,-0.1 1,-0.2 0.3,-0.2 0.5,-0.4 0.6,-0.4 v 0.7 c -0.6,0.4 -1.2,0.5 -1.6,0.5 -1.6,0 -2.8,-1.2 -2.8,-2.7 0,-1.6 1.2,-2.8 2.8,-2.8 0.3,0 0.9,0 1.6,0.5 v 0.7 z"
   class="st1" />
				</g>
			</g>
			<g
   style="fill:#dabe8d;fill-opacity:1"
   id="g7260">
				<g
   style="fill:#dabe8d;fill-opacity:1"
   id="g7254">
					<path
   style="fill:#dabe8d;fill-opacity:1"
   id="path7252"
   d="M 44.8,126.4 H 43 v 1.6 h 1.8 v 0.6 H 43 v 2.6 h -0.6 v -5.3 h 2.4 c 0,0 0,0.5 0,0.5 z"
   class="st1" />
				</g>
				<g
   style="fill:#dabe8d;fill-opacity:1"
   id="g7258">
					<path
   style="fill:#dabe8d;fill-opacity:1"
   id="path7256"
   d="m 45.6,131.2 0.9,-5.6 2,4.5 2.1,-4.5 0.8,5.6 h -0.6 l -0.5,-3.7 -1.8,3.9 -1.8,-3.9 -0.5,3.7 z"
   class="st1" />
				</g>
			</g>
			<g
   style="fill:#dabe8d;fill-opacity:1"
   id="g7270">
				<g
   style="fill:#dabe8d;fill-opacity:1"
   id="g7264">
					<path
   style="fill:#dabe8d;fill-opacity:1"
   id="path7262"
   d="M 44.8,237.3 H 43 v 1.6 h 1.8 v 0.6 H 43 v 2.6 h -0.6 v -5.3 h 2.4 c 0,0 0,0.5 0,0.5 z"
   class="st1" />
				</g>
				<g
   style="fill:#dabe8d;fill-opacity:1"
   id="g7268">
					<path
   style="fill:#dabe8d;fill-opacity:1"
   id="path7266"
   d="m 45.6,242.1 0.9,-5.6 2,4.5 2.1,-4.5 0.8,5.6 h -0.6 l -0.5,-3.7 -1.8,3.9 -1.8,-3.9 -0.5,3.7 z"
   class="st1" />
				</g>
			</g>
			<g
   style="fill:#dabe8d;fill-opacity:1"
   id="g7288">
				<g
   style="fill:#dabe8d;fill-opacity:1"
   id="g7274">
					<path
   style="fill:#dabe8d;fill-opacity:1"
   id="path7272"
   d="M 137.8,249.7 H 136 v 1.6 h 1.8 v 0.6 H 136 v 2.6 h -0.6 v -5.3 h 2.4 z"
   class="st1" />
				</g>
				<g
   style="fill:#dabe8d;fill-opacity:1"
   id="g7278">
					<path
   style="fill:#dabe8d;fill-opacity:1"
   id="path7276"
   d="m 139.4,249.1 v 5.3 h -0.6 v -5.3 z"
   class="st1" />
				</g>
				<g
   style="fill:#dabe8d;fill-opacity:1"
   id="g7282">
					<path
   style="fill:#dabe8d;fill-opacity:1"
   id="path7280"
   d="m 140.8,254.5 v -5.6 l 4.2,4.4 v -4.1 h 0.6 v 5.6 l -4.2,-4.4 v 4.1 z"
   class="st1" />
				</g>
				<g
   style="fill:#dabe8d;fill-opacity:1"
   id="g7286">
					<path
   style="fill:#dabe8d;fill-opacity:1"
   id="path7284"
   d="m 149.7,249.7 h -2.2 v 1.6 h 2.1 v 0.6 h -2.1 v 2.1 h 2.2 v 0.6 h -2.8 v -5.3 h 2.8 z"
   class="st1" />
				</g>
			</g>
			<g
   style="fill:#dabe8d;fill-opacity:1"
   id="g7298">
				<g
   style="fill:#dabe8d;fill-opacity:1"
   id="g7292">
					<path
   style="fill:#dabe8d;fill-opacity:1"
   id="path7290"
   d="m 96.3,160 c -0.2,-0.2 -0.4,-0.4 -0.7,-0.5 -0.3,-0.1 -0.6,-0.2 -0.9,-0.2 -1.2,0 -2.1,1 -2.1,2.2 0,1.4 1.2,2.2 2.2,2.2 0.4,0 0.7,-0.1 1,-0.2 0.3,-0.2 0.5,-0.4 0.6,-0.4 v 0.7 c -0.6,0.4 -1.2,0.5 -1.6,0.5 -1.6,0 -2.8,-1.2 -2.8,-2.7 0,-1.6 1.2,-2.8 2.8,-2.8 0.3,0 0.9,0 1.6,0.5 z"
   class="st1" />
				</g>
				<g
   style="fill:#dabe8d;fill-opacity:1"
   id="g7296">
					<path
   style="fill:#dabe8d;fill-opacity:1"
   id="path7294"
   d="m 97.4,158.8 1.5,4.1 1.5,-4.1 h 0.7 l -2.2,5.7 -2.2,-5.7 z"
   class="st1" />
				</g>
			</g>
			<g
   style="fill:#dabe8d;fill-opacity:1"
   id="g7320">
				<g
   style="fill:#dabe8d;fill-opacity:1"
   id="g7302">
					<path
   style="fill:#dabe8d;fill-opacity:1"
   id="path7300"
   d="m 132.1,109.9 v 5.3 h -0.6 v -5.3 z"
   class="st1" />
				</g>
				<g
   style="fill:#dabe8d;fill-opacity:1"
   id="g7306">
					<path
   style="fill:#dabe8d;fill-opacity:1"
   id="path7304"
   d="m 133.4,115.3 v -5.6 l 4.2,4.4 V 110 h 0.6 v 5.6 l -4.2,-4.4 v 4.1 z"
   class="st1" />
				</g>
				<g
   style="fill:#dabe8d;fill-opacity:1"
   id="g7310">
					<path
   style="fill:#dabe8d;fill-opacity:1"
   id="path7308"
   d="m 139.6,109.9 h 1.1 c 0.5,0 1.3,0.1 2,0.6 0.5,0.4 0.9,1.1 0.9,2 0,1.1 -0.6,1.7 -0.9,2 -0.5,0.4 -1,0.6 -2,0.6 h -1.1 z m 0.6,4.8 h 0.5 c 0.4,0 1,0 1.5,-0.5 0.4,-0.3 0.7,-0.9 0.7,-1.6 0,-1.3 -0.9,-2.1 -2.2,-2.1 h -0.5 z"
   class="st1" />
				</g>
				<g
   style="fill:#dabe8d;fill-opacity:1"
   id="g7314">
					<path
   style="fill:#dabe8d;fill-opacity:1"
   id="path7312"
   d="m 147.4,110.5 h -2.2 v 1.6 h 2.1 v 0.6 h -2.1 v 2.1 h 2.2 v 0.6 h -2.8 v -5.3 h 2.8 z"
   class="st1" />
				</g>
				<g
   style="fill:#dabe8d;fill-opacity:1"
   id="g7318">
					<path
   style="fill:#dabe8d;fill-opacity:1"
   id="path7316"
   d="m 149.5,112.5 -1.4,-2.6 h 0.7 l 1.1,2 1.1,-2 h 0.7 l -1.5,2.6 1.5,2.8 H 151 l -1.2,-2.2 -1.2,2.2 h -0.7 z"
   class="st1" />
				</g>
			</g>
			<g
   style="fill:#dabe8d;fill-opacity:1"
   id="g7334">
				<g
   style="fill:#dabe8d;fill-opacity:1"
   id="g7324">
					<path
   style="fill:#dabe8d;fill-opacity:1"
   id="path7322"
   d="m 267.8,330.4 c 0.5,0 1,0.1 1.3,0.4 0.4,0.3 0.5,0.8 0.5,1.1 0,0.8 -0.5,1.5 -1.7,1.5 h -0.5 v 2.3 h -0.6 v -5.3 z m -0.3,2.4 h 0.5 c 0.7,0 1.1,-0.4 1.1,-1 0,-0.8 -0.8,-0.9 -1.2,-0.9 h -0.4 z"
   class="st1" />
				</g>
				<g
   style="fill:#dabe8d;fill-opacity:1"
   id="g7328">
					<path
   style="fill:#dabe8d;fill-opacity:1"
   id="path7326"
   d="m 270.8,330.4 1.4,4 1.7,-4.3 1.6,4.3 1.6,-4 h 0.7 l -2.2,5.6 -1.6,-4.3 -1.7,4.3 -2,-5.6 z"
   class="st1" />
				</g>
				<g
   style="fill:#dabe8d;fill-opacity:1"
   id="g7332">
					<path
   style="fill:#dabe8d;fill-opacity:1"
   id="path7330"
   d="m 278.3,335.7 0.9,-5.6 2,4.5 2.1,-4.5 0.8,5.6 h -0.6 l -0.5,-3.7 -1.8,3.9 -1.8,-3.9 -0.5,3.7 z"
   class="st1" />
				</g>
			</g>
			<g
   style="fill:#dabe8d;fill-opacity:1"
   id="g7348">
				<g
   style="fill:#dabe8d;fill-opacity:1"
   id="g7338">
					<path
   style="fill:#dabe8d;fill-opacity:1"
   id="path7336"
   d="m 313.1,267.3 c -0.1,-0.1 -0.2,-0.3 -0.3,-0.4 -0.1,-0.1 -0.3,-0.2 -0.6,-0.2 -0.5,0 -0.9,0.3 -0.9,0.8 0,0.2 0.1,0.3 0.2,0.5 0.2,0.2 0.4,0.2 0.6,0.3 l 0.5,0.2 c 0.3,0.1 0.6,0.3 0.8,0.5 0.3,0.3 0.4,0.6 0.4,1 0,1 -0.7,1.6 -1.7,1.6 -0.4,0 -0.8,-0.1 -1.2,-0.4 -0.3,-0.3 -0.4,-0.6 -0.5,-0.9 l 0.6,-0.2 c 0,0.3 0.2,0.5 0.3,0.7 0.2,0.2 0.5,0.3 0.8,0.3 0.7,0 1.1,-0.5 1.1,-1.1 0,-0.2 -0.1,-0.4 -0.3,-0.6 -0.2,-0.1 -0.4,-0.2 -0.6,-0.4 l -0.5,-0.2 c -0.2,-0.1 -0.5,-0.2 -0.7,-0.4 -0.2,-0.2 -0.4,-0.5 -0.4,-0.9 0,-0.8 0.6,-1.4 1.5,-1.4 0.3,0 0.6,0.1 0.9,0.2 0.2,0.1 0.4,0.4 0.5,0.6 z"
   class="st1" />
				</g>
				<g
   style="fill:#dabe8d;fill-opacity:1"
   id="g7342">
					<path
   style="fill:#dabe8d;fill-opacity:1"
   id="path7340"
   d="m 315.4,269.6 c 0,0.4 0,0.9 0.4,1.3 0.2,0.2 0.6,0.3 0.9,0.3 0.3,0 0.7,-0.1 0.9,-0.3 0.4,-0.4 0.4,-0.8 0.4,-1.3 v -3.3 h 0.6 v 3.4 c 0,0.4 0,0.9 -0.3,1.3 -0.3,0.4 -0.9,0.7 -1.6,0.7 -0.7,0 -1.2,-0.3 -1.6,-0.7 -0.3,-0.4 -0.3,-0.8 -0.3,-1.3 v -3.4 h 0.6 z"
   class="st1" />
				</g>
				<g
   style="fill:#dabe8d;fill-opacity:1"
   id="g7346">
					<path
   style="fill:#dabe8d;fill-opacity:1"
   id="path7344"
   d="m 321,266.3 c 0.3,0 0.8,0 1.2,0.3 0.2,0.1 0.5,0.5 0.5,1.1 0,0.3 -0.1,0.7 -0.5,1 0.7,0.2 1,0.8 1,1.3 0,0.5 -0.3,0.9 -0.5,1.2 -0.4,0.3 -0.9,0.4 -1.3,0.4 H 320 v -5.3 z m -0.4,2.3 h 0.4 c 0.3,0 1,-0.1 1,-0.9 0,-0.9 -0.9,-0.9 -1,-0.9 h -0.5 v 1.8 z m 0,2.5 h 0.7 c 0.3,0 0.7,0 0.9,-0.2 0.2,-0.2 0.4,-0.4 0.4,-0.7 0,-0.4 -0.2,-0.7 -0.5,-0.8 -0.2,-0.1 -0.5,-0.2 -0.9,-0.2 h -0.6 z"
   class="st1" />
				</g>
			</g>
			<g
   style="fill:#dabe8d;fill-opacity:1"
   id="g7374">
				<g
   style="fill:#dabe8d;fill-opacity:1"
   id="g7352">
					<path
   style="fill:#dabe8d;fill-opacity:1"
   id="path7350"
   d="m 5.5,181.4 v 4.8 H 7 v 0.6 H 4.9 v -5.3 h 0.6 z"
   class="st1" />
				</g>
				<g
   style="fill:#dabe8d;fill-opacity:1"
   id="g7356">
					<path
   style="fill:#dabe8d;fill-opacity:1"
   id="path7354"
   d="m 8.4,181.4 v 5.3 H 7.8 v -5.3 z"
   class="st1" />
				</g>
				<g
   style="fill:#dabe8d;fill-opacity:1"
   id="g7360">
					<path
   style="fill:#dabe8d;fill-opacity:1"
   id="path7358"
   d="m 9.7,186.7 v -5.6 l 4.2,4.4 v -4.1 h 0.6 v 5.6 l -4.2,-4.4 v 4.1 z"
   class="st1" />
				</g>
				<g
   style="fill:#dabe8d;fill-opacity:1"
   id="g7364">
					<path
   style="fill:#dabe8d;fill-opacity:1"
   id="path7362"
   d="m 28,181.9 h -2.2 v 1.6 h 2.1 v 0.6 h -2.1 v 2.1 H 28 v 0.6 h -2.8 v -5.3 H 28 Z"
   class="st1" />
				</g>
				<g
   style="fill:#dabe8d;fill-opacity:1"
   id="g7368">
					<path
   style="fill:#dabe8d;fill-opacity:1"
   id="path7366"
   d="m 30,184 -1.4,-2.6 h 0.7 l 1.1,2 1.1,-2 h 0.7 l -1.5,2.6 1.5,2.8 h -0.7 l -1.2,-2.2 -1.2,2.2 h -0.7 z"
   class="st1" />
				</g>
				<g
   style="fill:#dabe8d;fill-opacity:1"
   id="g7372">
					<path
   style="fill:#dabe8d;fill-opacity:1"
   id="path7370"
   d="m 34,181.4 c 0.5,0 1,0.1 1.3,0.4 0.4,0.3 0.5,0.8 0.5,1.1 0,0.8 -0.5,1.5 -1.7,1.5 h -0.5 v 2.3 H 33 v -5.3 z m -0.3,2.4 h 0.5 c 0.7,0 1.1,-0.4 1.1,-1 0,-0.8 -0.8,-0.9 -1.2,-0.9 h -0.4 c 0,0 0,1.9 0,1.9 z"
   class="st1" />
				</g>
			</g>
			<g
   style="fill:#dabe8d;fill-opacity:1"
   id="g7378">
				<path
   style="fill:#dabe8d;fill-opacity:1"
   id="path7376"
   d="m 19.8,48.7 c -5,0 -9.1,-4.1 -9.1,-9.1 0,-5 4.1,-9.1 9.1,-9.1 5,0 9.1,4.1 9.1,9.1 0,5 -4.1,9.1 -9.1,9.1 z m 0,-17.2 c -4.5,0 -8.1,3.6 -8.1,8.1 0,4.5 3.6,8.1 8.1,8.1 4.5,0 8.1,-3.6 8.1,-8.1 0,-4.5 -3.6,-8.1 -8.1,-8.1 z"
   class="st1" />
			</g>
			<g
   style="fill:#dabe8d;fill-opacity:1"
   id="g7382">
				<path
   style="fill:#dabe8d;fill-opacity:1"
   id="path7380"
   d="m 143.9,193.3 c -5,0 -9.1,-4.1 -9.1,-9.1 0,-5 4.1,-9.1 9.1,-9.1 5,0 9.1,4.1 9.1,9.1 0,5 -4.1,9.1 -9.1,9.1 z m 0,-17.1 c -4.5,0 -8.1,3.6 -8.1,8.1 0,4.5 3.6,8.1 8.1,8.1 4.5,0 8.1,-3.6 8.1,-8.1 0,-4.5 -3.6,-8.1 -8.1,-8.1 z"
   class="st1" />
			</g>
			<g
   style="fill:#dabe8d;fill-opacity:1"
   id="g7386">
				<path
   style="fill:#dabe8d;fill-opacity:1"
   id="path7384"
   d="m 153,333.7 c -5,0 -9.1,-4.1 -9.1,-9.1 0,-5 4.1,-9.1 9.1,-9.1 5,0 9.1,4.1 9.1,9.1 0,5 -4.1,9.1 -9.1,9.1 z m 0,-17.1 c -4.5,0 -8.1,3.6 -8.1,8.1 0,4.5 3.6,8.1 8.1,8.1 4.5,0 8.1,-3.6 8.1,-8.1 0,-4.5 -3.6,-8.1 -8.1,-8.1 z"
   class="st1" />
			</g>
			<g
   style="fill:#dabe8d;fill-opacity:1"
   id="g7390">
				<path
   style="fill:#dabe8d;fill-opacity:1"
   id="path7388"
   d="m 19.8,333.7 c -5,0 -9.1,-4.1 -9.1,-9.1 0,-5 4.1,-9.1 9.1,-9.1 5,0 9.1,4.1 9.1,9.1 0,5 -4.1,9.1 -9.1,9.1 z m 0,-17.1 c -4.5,0 -8.1,3.6 -8.1,8.1 0,4.5 3.6,8.1 8.1,8.1 4.5,0 8.1,-3.6 8.1,-8.1 0,-4.5 -3.6,-8.1 -8.1,-8.1 z"
   class="st1" />
			</g>
			<g
   style="fill:#dabe8d;fill-opacity:1"
   id="g7394">
				
					<rect
   style="fill:#dabe8d;fill-opacity:1"
   id="rect7392"
   height="1"
   width="12.2"
   class="st1"
   transform="matrix(0.9515,-0.3077,0.3077,0.9515,-90.4886,66.9325)"
   y="319.89999"
   x="160.89999" />
			</g>
			<g
   style="fill:#dabe8d;fill-opacity:1"
   id="g7398">
				<rect
   style="fill:#dabe8d;fill-opacity:1"
   id="rect7396"
   height="30.200001"
   width="3"
   class="st1"
   y="126.1"
   x="236.10001" />
			</g>
			<g
   style="fill:#dabe8d;fill-opacity:1"
   id="g7402">
				<rect
   style="fill:#dabe8d;fill-opacity:1"
   id="rect7400"
   height="48"
   width="3"
   class="st1"
   y="195"
   x="236.10001" />
			</g>
			<g
   style="fill:#dabe8d;fill-opacity:1"
   id="g7408">
				<g
   style="fill:#dabe8d;fill-opacity:1"
   id="g7406">
					<path
   style="fill:#dabe8d;fill-opacity:1"
   id="path7404"
   d="m 241.9,142.3 h 2.4 v -2.2 h 0.9 v 2.2 h 2.4 v 0.9 h -2.4 v 2.2 h -0.9 v -2.2 h -2.4 z"
   class="st1" />
				</g>
			</g>
			<g
   style="fill:#dabe8d;fill-opacity:1"
   id="g7414">
				<g
   style="fill:#dabe8d;fill-opacity:1"
   id="g7412">
					<path
   style="fill:#dabe8d;fill-opacity:1"
   id="path7410"
   d="m 226,142.6 h 5.7 v 0.8 H 226 Z"
   class="st1" />
				</g>
			</g>
			<g
   style="fill:#dabe8d;fill-opacity:1"
   id="g7420">
				<g
   style="fill:#dabe8d;fill-opacity:1"
   id="g7418">
					<path
   style="fill:#dabe8d;fill-opacity:1"
   id="path7416"
   d="m 241.9,198.1 h 2.4 v -2.2 h 0.9 v 2.2 h 2.4 v 0.9 h -2.4 v 2.2 h -0.9 V 199 h -2.4 z"
   class="st1" />
				</g>
			</g>
			<g
   style="fill:#dabe8d;fill-opacity:1"
   id="g7426">
				<g
   style="fill:#dabe8d;fill-opacity:1"
   id="g7424">
					<path
   style="fill:#dabe8d;fill-opacity:1"
   id="path7422"
   d="m 226,198.4 h 5.7 v 0.8 H 226 Z"
   class="st1" />
				</g>
			</g>
			<g
   style="fill:#dabe8d;fill-opacity:1"
   id="g7432">
				<g
   style="fill:#dabe8d;fill-opacity:1"
   id="g7430">
					<path
   style="fill:#dabe8d;fill-opacity:1"
   id="path7428"
   d="m 192.3,123 h 2.4 v -2.2 h 0.9 v 2.2 h 2.4 v 0.9 h -2.4 v 2.2 h -0.9 v -2.2 h -2.4 z"
   class="st1" />
				</g>
			</g>
			<g
   style="fill:#dabe8d;fill-opacity:1"
   id="g7438">
				<g
   style="fill:#dabe8d;fill-opacity:1"
   id="g7436">
					<path
   style="fill:#dabe8d;fill-opacity:1"
   id="path7434"
   d="m 176.4,123.3 h 5.7 v 0.8 h -5.7 z"
   class="st1" />
				</g>
			</g>
			<g
   style="fill:#dabe8d;fill-opacity:1"
   id="g7444">
				<g
   style="fill:#dabe8d;fill-opacity:1"
   id="g7442">
					<path
   style="fill:#dabe8d;fill-opacity:1"
   id="path7440"
   d="m 192.4,218.3 h 2.4 v -2.2 h 0.9 v 2.2 h 2.4 v 0.9 h -2.4 v 2.2 h -0.9 v -2.2 h -2.4 z"
   class="st1" />
				</g>
			</g>
			<g
   style="fill:#dabe8d;fill-opacity:1"
   id="g7450">
				<g
   style="fill:#dabe8d;fill-opacity:1"
   id="g7448">
					<path
   style="fill:#dabe8d;fill-opacity:1"
   id="path7446"
   d="m 176.4,218.6 h 5.7 v 0.8 h -5.7 z"
   class="st1" />
				</g>
			</g>
			<g
   style="fill:#dabe8d;fill-opacity:1"
   id="g7456">
				<g
   style="fill:#dabe8d;fill-opacity:1"
   id="g7454">
					<path
   style="fill:#dabe8d;fill-opacity:1"
   id="path7452"
   d="m 136,198.1 h 2.4 v -2.2 h 0.9 v 2.2 h 2.4 v 0.9 h -2.4 v 2.2 h -0.9 V 199 H 136 Z"
   class="st1" />
				</g>
			</g>
			<g
   style="fill:#dabe8d;fill-opacity:1"
   id="g7462">
				<g
   style="fill:#dabe8d;fill-opacity:1"
   id="g7460">
					<path
   style="fill:#dabe8d;fill-opacity:1"
   id="path7458"
   d="m 116.8,198 h 5.7 v 0.8 h -5.7 z"
   class="st1" />
				</g>
			</g>
			<g
   style="fill:#dabe8d;fill-opacity:1"
   id="g7466">
				<rect
   style="fill:#dabe8d;fill-opacity:1"
   id="rect7464"
   height="8.1000004"
   width="1"
   class="st1"
   y="308"
   x="19.299999" />
			</g>
			<g
   style="fill:#dabe8d;fill-opacity:1"
   id="g7470">
				<rect
   style="fill:#dabe8d;fill-opacity:1"
   id="rect7468"
   height="3"
   width="37.400002"
   class="st1"
   y="182.8"
   x="44.299999" />
			</g>
			<g
   style="fill:#dabe8d;fill-opacity:1"
   id="g7474">
				<polygon
   style="fill:#dabe8d;fill-opacity:1"
   id="polygon7472"
   points="326.9,279.3 335.9,288.3 353.1,288.3 353.1,290.8 334.8,290.8 325.8,281.8 316.8,281.8 316.8,279.3 "
   class="st1" />
			</g>
			<g
   style="fill:#dabe8d;fill-opacity:1"
   id="g7478">
				<polygon
   style="fill:#dabe8d;fill-opacity:1"
   id="polygon7476"
   points="324.5,67.6 324.5,68.2 314.8,68.2 314.8,60.1 313,60.1 313,68.3 312.4,68.3 312.4,59.5 315.4,59.5 315.4,67.6 "
   class="st1" />
			</g>
			<g
   style="fill:#dabe8d;fill-opacity:1"
   id="g7482">
				<polygon
   style="fill:#dabe8d;fill-opacity:1"
   id="polygon7480"
   points="316,301.9 316,299.8 314.1,299.8 314.1,301.9 311.9,301.9 311.9,304.1 311.3,304.1 311.3,301.3 313.5,301.3 313.5,299.2 316.6,299.2 316.6,301.3 318.9,301.3 318.9,305.7 321.2,305.7 321.2,307.8 323.1,307.8 323.1,305.7 325.3,305.7 325.3,303.5 325.9,303.5 325.9,306.3 323.7,306.3 323.7,308.4 320.6,308.4 320.6,306.3 318.3,306.3 318.3,301.9 "
   class="st1" />
			</g>
			<g
   style="fill:#dabe8d;fill-opacity:1"
   id="g7488">
				<g
   style="fill:#dabe8d;fill-opacity:1"
   id="g7486">
					<path
   style="fill:#dabe8d;fill-opacity:1"
   id="path7484"
   d="m 372.1,27.6 -0.1,0.2 c -0.9,2.2 -1.8,4.5 -3.6,4.5 -1.8,0 -2.7,-2.3 -3.6,-4.5 -0.8,-2.1 -1.6,-4.2 -3.2,-4.2 -1.5,0 -2.4,2.1 -3.2,4.1 v 0.1 H 358 l 0.1,-0.2 c 0.9,-2.2 1.8,-4.5 3.6,-4.5 1.8,0 2.7,2.3 3.6,4.5 0.8,2.1 1.6,4.2 3.2,4.2 1.5,0 2.3,-2.1 3.1,-4.2 v -0.1 z"
   class="st1" />
				</g>
			</g>
			<g
   style="fill:#dabe8d;fill-opacity:1"
   id="g7494">
				<g
   style="fill:#dabe8d;fill-opacity:1"
   id="g7492">
					<polygon
   style="fill:#dabe8d;fill-opacity:1"
   id="polygon7490"
   points="362.6,58.9 369.3,67.6 372.5,63.5 373.1,63.5 369.3,68.4 362.6,59.7 359.4,63.8 358.8,63.8 "
   class="st1" />
				</g>
			</g>
			<g
   style="fill:#dabe8d;fill-opacity:1"
   id="g7498">
				<polygon
   style="fill:#dabe8d;fill-opacity:1"
   id="polygon7496"
   points="372.5,91.9 372.5,99.6 372,99.6 372,92.8 360.3,99.3 360.1,98.9 "
   class="st1" />
			</g>
			<g
   style="fill:#dabe8d;fill-opacity:1"
   id="g7504">
				<g
   style="fill:#dabe8d;fill-opacity:1"
   id="g7502">
					<path
   style="fill:#dabe8d;fill-opacity:1"
   id="path7500"
   d="m 372.3,308.3 -0.1,0.2 c -0.9,2.2 -1.8,4.5 -3.6,4.5 -1.8,0 -2.7,-2.3 -3.6,-4.5 -0.8,-2.1 -1.6,-4.2 -3.2,-4.2 -1.5,0 -2.4,2.1 -3.2,4.1 v 0.1 h -0.5 l 0.1,-0.2 c 0.9,-2.2 1.8,-4.5 3.6,-4.5 1.8,0 2.7,2.3 3.6,4.5 0.8,2.1 1.6,4.2 3.2,4.2 1.5,0 2.3,-2.1 3.1,-4.2 v -0.1 h 0.6 z"
   class="st1" />
				</g>
			</g>
			<g
   style="fill:#dabe8d;fill-opacity:1"
   id="g7510">
				<g
   style="fill:#dabe8d;fill-opacity:1"
   id="g7508">
					<polygon
   style="fill:#dabe8d;fill-opacity:1"
   id="polygon7506"
   points="362.3,234 369,242.6 372.2,238.6 372.8,238.6 369,243.4 362.3,234.7 359.1,238.8 358.5,238.8 "
   class="st1" />
				</g>
			</g>
			<g
   style="fill:#dabe8d;fill-opacity:1"
   id="g7518">
				<g
   style="fill:#dabe8d;fill-opacity:1"
   id="g7516">
					<g
   style="fill:#dabe8d;fill-opacity:1"
   id="g7514">
						<polygon
   style="fill:#dabe8d;fill-opacity:1"
   id="polygon7512"
   points="365.9,268.1 359.9,268.1 359.9,276.5 359.4,276.5 359.4,267.7 366.4,267.7 366.4,276.2 372.9,276.2 372.9,276.6 366.4,276.6 366.4,276.7 365.9,276.7 "
   class="st1" />
					</g>
				</g>
			</g>
			<g
   style="fill:#dabe8d;fill-opacity:1"
   id="g7522">
				<path
   style="fill:#dabe8d;fill-opacity:1"
   id="path7520"
   d="m 208.5,195.4 c -9.1,0 -13.7,-5.4 -17.8,-10.2 l -0.2,-0.2 c -4.1,-4.8 -8,-9.4 -15.7,-9.4 -7.7,0 -11.6,4.6 -15.7,9.4 l -0.7,0.8 H 154 v -3 h 3 c 4.3,-5 8.8,-10.2 17.7,-10.2 9.1,0 13.6,5.3 18,10.4 l 0.2,0.2 c 3.8,4.5 7.8,9.2 15.5,9.2 7.7,0 11.7,-4.7 15.5,-9.2 l 0.4,-0.5 h 21.9 v 3 h -20.5 c -3.8,4.7 -8.4,9.7 -17.2,9.7 z"
   class="st1" />
			</g>
			<g
   style="fill:#dabe8d;fill-opacity:1"
   id="g7526">
				<rect
   style="fill:#dabe8d;fill-opacity:1"
   id="rect7524"
   height="33.599998"
   width="1"
   class="st1"
   y="159.89999"
   x="19.299999" />
			</g>
			<g
   style="fill:#dabe8d;fill-opacity:1"
   id="g7530">
				<rect
   style="fill:#dabe8d;fill-opacity:1"
   id="rect7528"
   height="19.4"
   width="3"
   class="st1"
   y="120.2"
   x="185.7" />
			</g>
			<g
   style="fill:#dabe8d;fill-opacity:1"
   id="g7534">
				<polygon
   style="fill:#dabe8d;fill-opacity:1"
   id="polygon7532"
   points="102.3,218.6 106,222.3 129.6,222.3 129.6,225.3 104.8,225.3 99.3,219.9 99.3,199.3 102.3,199.3 "
   class="st1" />
			</g>
			<g
   style="fill:#dabe8d;fill-opacity:1"
   id="g7538">
				<rect
   style="fill:#dabe8d;fill-opacity:1"
   id="rect7536"
   height="54.400002"
   width="3"
   class="st1"
   y="169.5"
   x="128.10001" />
			</g>
			<g
   style="fill:#dabe8d;fill-opacity:1"
   id="g7542">
				<rect
   style="fill:#dabe8d;fill-opacity:1"
   id="rect7540"
   height="3"
   width="5.6999998"
   class="st1"
   y="182.8"
   x="129.60001" />
			</g>
			<g
   style="fill:#dabe8d;fill-opacity:1"
   id="g7546">
				<path
   style="fill:#dabe8d;fill-opacity:1"
   id="path7544"
   d="M 334.5,123.8 H 216.3 v -19.5 h 118.1 v 19.5 z m -115.2,-3 H 331.4 V 107.3 H 219.3 Z"
   class="st1" />
			</g>
			<g
   style="fill:#dabe8d;fill-opacity:1"
   id="g7550">
				<path
   style="fill:#dabe8d;fill-opacity:1"
   id="path7548"
   d="M 334.5,264.2 H 216.3 v -19.5 h 118.1 v 19.5 z m -115.2,-3 H 331.4 V 247.7 H 219.3 Z"
   class="st1" />
			</g>
			<g
   style="fill:#dabe8d;fill-opacity:1"
   id="g7554">
				<polygon
   style="fill:#dabe8d;fill-opacity:1"
   id="polygon7552"
   points="297.3,172.5 295.7,169.9 306.8,163 308.4,165.6 307.5,166.1 "
   class="st1" />
			</g>
			<g
   style="fill:#dabe8d;fill-opacity:1"
   id="g7558">
				<polygon
   style="fill:#dabe8d;fill-opacity:1"
   id="polygon7556"
   points="306.8,205.5 305.9,205 295.7,198.6 297.3,196 308.4,202.9 "
   class="st1" />
			</g>
			<g
   style="fill:#dabe8d;fill-opacity:1"
   id="g7562">
				<polygon
   style="fill:#dabe8d;fill-opacity:1"
   id="polygon7560"
   points="353.9,148.1 351.7,150.2 331.5,129.9 331.5,122.3 334.5,122.3 334.5,128.7 "
   class="st1" />
			</g>
			<g
   style="fill:#dabe8d;fill-opacity:1"
   id="g7566">
				<polygon
   style="fill:#dabe8d;fill-opacity:1"
   id="polygon7564"
   points="334.5,239.8 334.5,246.2 331.5,246.2 331.5,238.6 351.7,218.3 353.9,220.4 "
   class="st1" />
			</g>
			<g
   style="fill:#dabe8d;fill-opacity:1"
   id="g7570">
				<polygon
   style="fill:#dabe8d;fill-opacity:1"
   id="polygon7568"
   points="239.1,272.2 220.7,290.6 218.5,288.5 236.1,270.9 236.1,266 239.1,266 "
   class="st1" />
			</g>
			<g
   style="fill:#dabe8d;fill-opacity:1"
   id="g7574">
				<polygon
   style="fill:#dabe8d;fill-opacity:1"
   id="polygon7572"
   points="239.1,96.3 239.1,102.3 236.1,102.3 236.1,97.6 218.5,80 220.7,77.9 "
   class="st1" />
			</g>
			<g
   style="fill:#dabe8d;fill-opacity:1"
   id="g7578">
				<polygon
   style="fill:#dabe8d;fill-opacity:1"
   id="polygon7576"
   points="209.9,172.4 207.7,174.5 185.7,152.5 185.7,135.4 188.7,135.4 188.7,151.2 "
   class="st1" />
			</g>
			<g
   style="fill:#dabe8d;fill-opacity:1"
   id="g7582">
				<polygon
   style="fill:#dabe8d;fill-opacity:1"
   id="polygon7580"
   points="188.7,207 188.7,226.7 185.7,226.7 185.7,225.4 185.7,208.3 173.5,196.1 175.7,194 "
   class="st1" />
			</g>
		</g>
	</g>
	<g
   style="fill:#dabe8d;fill-opacity:1"
   id="g7589">
		<path
   style="fill:#dabe8d;fill-opacity:1"
   id="path7587"
   d="m 212,140.3 c -1,0 -1.1,-4.6 -1.1,-4.6 0,-2 -0.4,-3.2 -2.4,-3.2 -2,0 -2.4,1.2 -2.4,3.2 0,0 -0.1,4.6 -1.1,4.6 -1,0 -1.1,-4.6 -1.1,-4.6 0,-2 -0.4,-3.2 -2.4,-3.2 -2,0 -2.4,1.2 -2.4,3.2 h -0.5 c 0,-1.9 0.4,-3.7 2.9,-3.7 2.6,0 2.9,1.8 2.9,3.7 0,1.6 0.3,3.6 0.6,4.1 0.2,-0.5 0.6,-2.5 0.6,-4.1 0,-1.9 0.4,-3.7 2.9,-3.7 2.6,0 2.9,1.8 2.9,3.7 0,1.6 0.3,3.6 0.6,4.1 0.2,-0.5 0.6,-2.5 0.6,-4.1 h 0.5 c 0,0 -0.1,4.6 -1.1,4.6 z"
   class="st2" />
	</g>
	<g
   style="fill:#dabe8d;fill-opacity:1"
   id="g7593">
		<path
   style="fill:#dabe8d;fill-opacity:1"
   id="path7591"
   d="m 170.9,140.3 c -2.6,0 -2.9,-1.8 -2.9,-3.7 0,-1.6 -0.3,-3.6 -0.6,-4.1 -0.3,0.5 -0.6,2.5 -0.6,4.1 0,1.9 -0.4,3.7 -2.9,3.7 -2.6,0 -2.9,-1.8 -2.9,-3.7 h 0.5 c 0,2 0.4,3.2 2.4,3.2 2,0 2.4,-1.2 2.4,-3.2 0,0 0.1,-4.6 1.1,-4.6 1,0 1.1,4.6 1.1,4.6 0,2 0.4,3.2 2.4,3.2 2,0 2.4,-1.2 2.4,-3.2 0,0 0.1,-4.6 1.1,-4.6 1,0 1.1,4.6 1.1,4.6 H 175 c 0,-1.6 -0.3,-3.6 -0.6,-4.1 -0.3,0.5 -0.6,2.5 -0.6,4.1 0,1.9 -0.4,3.7 -2.9,3.7 z"
   class="st2" />
	</g>
	<g
   style="fill:#dabe8d;fill-opacity:1"
   id="g7597">
		<path
   style="fill:#dabe8d;fill-opacity:1"
   id="path7595"
   d="m 212.3,236.1 c -1,0 -1.1,-4.6 -1.1,-4.6 0,-2 -0.4,-3.2 -2.4,-3.2 -2,0 -2.4,1.2 -2.4,3.2 0,0 -0.1,4.6 -1.1,4.6 -1,0 -1.1,-4.6 -1.1,-4.6 0,-2 -0.4,-3.2 -2.4,-3.2 -2,0 -2.4,1.2 -2.4,3.2 H 199 c 0,-1.9 0.4,-3.7 2.9,-3.7 2.6,0 2.9,1.8 2.9,3.7 0,1.6 0.3,3.6 0.6,4.1 0.2,-0.5 0.6,-2.5 0.6,-4.1 0,-1.9 0.4,-3.7 2.9,-3.7 2.6,0 2.9,1.8 2.9,3.7 0,1.6 0.3,3.6 0.6,4.1 0.2,-0.5 0.6,-2.5 0.6,-4.1 h 0.5 c -0.1,0 -0.2,4.6 -1.2,4.6 z"
   class="st2" />
	</g>
	<g
   style="fill:#dabe8d;fill-opacity:1"
   id="g7601">
		<path
   style="fill:#dabe8d;fill-opacity:1"
   id="path7599"
   d="m 170.9,236.1 c -2.6,0 -2.9,-1.8 -2.9,-3.7 0,-1.6 -0.3,-3.6 -0.6,-4.1 -0.3,0.5 -0.6,2.5 -0.6,4.1 0,1.9 -0.4,3.7 -2.9,3.7 -2.6,0 -2.9,-1.8 -2.9,-3.7 h 0.5 c 0,2 0.4,3.2 2.4,3.2 2,0 2.4,-1.2 2.4,-3.2 0,0 0.1,-4.6 1.1,-4.6 1,0 1.1,4.6 1.1,4.6 0,2 0.4,3.2 2.4,3.2 2,0 2.4,-1.2 2.4,-3.2 0,0 0.1,-4.6 1.1,-4.6 1,0 1.1,4.6 1.1,4.6 H 175 c 0,-1.6 -0.3,-3.6 -0.6,-4.1 -0.3,0.5 -0.6,2.5 -0.6,4.1 0,1.9 -0.4,3.7 -2.9,3.7 z"
   class="st2" />
	</g>
</g>
</svg>
