<?xml version="1.0" encoding="UTF-8" standalone="no"?>
<!-- Generator: Adobe Illustrator 26.2.0, SVG Export Plug-In . SVG Version: 6.00 Build 0)  -->

<svg
   version="1.1"
   x="0px"
   y="0px"
   viewBox="0 0 76.799999 485.66929"
   xml:space="preserve"
   id="svg12662"
   sodipodi:docname="cuir (inkscape render) v2.svg"
   width="20.32mm"
   height="128.5mm"
   inkscape:version="1.2 (dc2aeda, 2022-05-15)"
   xmlns:inkscape="http://www.inkscape.org/namespaces/inkscape"
   xmlns:sodipodi="http://sodipodi.sourceforge.net/DTD/sodipodi-0.dtd"
   xmlns="http://www.w3.org/2000/svg"
   xmlns:svg="http://www.w3.org/2000/svg"><defs
   id="defs12666" /><sodipodi:namedview
   id="namedview12664"
   pagecolor="#ffffff"
   bordercolor="#000000"
   borderopacity="0.25"
   inkscape:showpageshadow="2"
   inkscape:pageopacity="0.0"
   inkscape:pagecheckerboard="0"
   inkscape:deskcolor="#d1d1d1"
   showgrid="false"
   inkscape:document-units="mm"
   inkscape:zoom="1.4185997"
   inkscape:cx="28.54928"
   inkscape:cy="221.69749"
   inkscape:window-width="1728"
   inkscape:window-height="1051"
   inkscape:window-x="0"
   inkscape:window-y="38"
   inkscape:window-maximized="0"
   inkscape:current-layer="svg12662" />
<style
   type="text/css"
   id="style12296">
	.st0{fill:#202020;}
	.st1{fill:#E0C590;}
	.st2{fill:#E1C590;}
	.st3{fill:#E1C48F;}
	.st4{fill:none;stroke:#E1C590;stroke-miterlimit:10;}
	.st5{opacity:0.27;}
	.st6{fill:#E0C490;}
</style>
<g
   id="BG"
   transform="scale(1.3333334)"
   style="fill:#202020;fill-opacity:1">
	<rect
   x="0"
   y="0"
   class="st0"
   width="57.599998"
   height="364.25"
   id="rect12298"
   style="fill:#202020;fill-opacity:1" />
</g>
<g
   id="Layer_3"
   transform="scale(1.3333334)"
   style="fill:#e0c590;fill-opacity:1">
	<g
   id="g12321"
   style="fill:#e0c590;fill-opacity:1">
		<g
   id="g12303"
   style="fill:#e0c590;fill-opacity:1">
			<path
   class="st1"
   d="m 11.22,25.28 v -8.19 l 6.13,6.42 v -6.09 h 0.87 v 8.22 l -6.13,-6.42 v 6.07 h -0.87 z"
   id="path12301"
   style="fill:#e0c590;fill-opacity:1" />
		</g>
		<g
   id="g12307"
   style="fill:#e0c590;fill-opacity:1">
			<path
   class="st1"
   d="m 23.76,18.92 c -0.11,-0.21 -0.28,-0.45 -0.46,-0.59 -0.15,-0.12 -0.44,-0.27 -0.88,-0.27 -0.78,0 -1.32,0.48 -1.32,1.21 0,0.31 0.08,0.48 0.29,0.68 0.24,0.24 0.53,0.37 0.83,0.5 l 0.75,0.33 c 0.46,0.2 0.88,0.41 1.21,0.74 0.4,0.4 0.57,0.86 0.57,1.43 0,1.45 -1.07,2.42 -2.49,2.42 -0.52,0 -1.17,-0.11 -1.71,-0.64 -0.39,-0.38 -0.62,-0.92 -0.73,-1.39 l 0.85,-0.24 c 0.06,0.41 0.25,0.77 0.47,1 0.34,0.34 0.73,0.44 1.13,0.44 1.07,0 1.58,-0.77 1.58,-1.56 0,-0.35 -0.11,-0.66 -0.39,-0.92 -0.22,-0.21 -0.53,-0.35 -0.94,-0.54 l -0.71,-0.33 c -0.31,-0.14 -0.7,-0.31 -1.05,-0.65 -0.34,-0.33 -0.54,-0.7 -0.54,-1.28 0,-1.21 0.93,-2.03 2.2,-2.03 0.48,0 0.87,0.09 1.26,0.35 0.32,0.21 0.59,0.53 0.77,0.87 z"
   id="path12305"
   style="fill:#e0c590;fill-opacity:1" />
		</g>
		<g
   id="g12311"
   style="fill:#e0c590;fill-opacity:1">
			<path
   class="st1"
   d="m 27.79,18.24 v 7.04 h -0.87 v -7.04 h -1.91 v -0.83 h 4.69 v 0.83 z"
   id="path12309"
   style="fill:#e0c590;fill-opacity:1" />
		</g>
		<g
   id="g12315"
   style="fill:#e0c590;fill-opacity:1">
			<path
   class="st1"
   d="m 32.14,17.41 c 0.53,0 1.32,0.04 1.91,0.44 0.46,0.31 0.86,0.91 0.86,1.74 0,1.2 -0.79,2.09 -1.98,2.17 l 2.5,3.51 h -1.06 l -2.39,-3.44 h -0.22 v 3.44 h -0.87 v -7.86 z m -0.39,3.65 h 0.55 c 1.08,0 1.73,-0.52 1.73,-1.44 0,-0.44 -0.13,-0.87 -0.62,-1.16 -0.35,-0.2 -0.75,-0.22 -1.13,-0.22 h -0.53 z"
   id="path12313"
   style="fill:#e0c590;fill-opacity:1" />
		</g>
		<g
   id="g12319"
   style="fill:#e0c590;fill-opacity:1">
			<path
   class="st1"
   d="m 37.67,22.23 c 0,0.66 0,1.38 0.62,1.91 0.32,0.27 0.86,0.45 1.3,0.45 0.44,0 0.98,-0.18 1.3,-0.45 0.62,-0.53 0.62,-1.25 0.62,-1.91 v -4.82 h 0.87 v 5.06 c 0,0.66 -0.07,1.3 -0.5,1.89 -0.47,0.65 -1.3,1.06 -2.3,1.06 -1,0 -1.83,-0.41 -2.3,-1.06 -0.42,-0.59 -0.5,-1.23 -0.5,-1.89 v -5.06 h 0.87 v 4.82 z"
   id="path12317"
   style="fill:#e0c590;fill-opacity:1" />
		</g>
	</g>
	<g
   id="g12325"
   style="fill:#e0c590;fill-opacity:1">
		<path
   class="st1"
   d="m 46.41,19.28 c -1.79,0 -3.1,1.35 -3.1,3.17 0,1.83 1.32,3.16 3.1,3.16 1.78,0 3.1,-1.33 3.1,-3.16 0,-1.82 -1.31,-3.17 -3.1,-3.17 z m 0,5.4 c -1.04,0 -2.06,-0.75 -2.06,-2.23 0,-1.46 0.99,-2.25 2.06,-2.25 1.07,0 2.06,0.77 2.06,2.25 0,1.47 -1,2.23 -2.06,2.23 z"
   id="path12323"
   style="fill:#e0c590;fill-opacity:1" />
	</g>
	<g
   id="g12329"
   style="fill:#e0c590;fill-opacity:1">
		<rect
   x="43.310001"
   y="17.370001"
   class="st1"
   width="6.27"
   height="0.87"
   id="rect12327"
   style="fill:#e0c590;fill-opacity:1" />
	</g>
	<g
   id="g12333"
   style="fill:#e0c590;fill-opacity:1">
		<polygon
   class="st1"
   points="9.35,25.28 8.02,25.28 8.35,24.03 8.35,18.57 8.02,17.32 9.35,17.32 9.02,18.57 9.02,24.03 "
   id="polygon12331"
   style="fill:#e0c590;fill-opacity:1" />
	</g>
	<g
   id="g12339"
   style="fill:#e0c590;fill-opacity:1">
		<g
   id="g12337"
   style="fill:#e0c590;fill-opacity:1">
			<rect
   y="343.35001"
   class="st1"
   width="57.599998"
   height="3"
   id="rect12335"
   x="0"
   style="fill:#e0c590;fill-opacity:1" />
		</g>
	</g>
	<g
   id="g12357"
   style="fill:#e0c590;fill-opacity:1">
		<g
   id="g12343"
   style="fill:#e0c590;fill-opacity:1">
			<path
   class="st1"
   d="m 40.06,354.87 c -0.57,-0.72 -1.39,-0.93 -1.95,-0.93 -1.16,0 -2.21,0.81 -2.21,2.33 0,1.52 1.08,2.31 2.19,2.31 0.65,0 1.44,-0.29 2.01,-0.97 v 1.29 c -0.67,0.5 -1.39,0.64 -1.98,0.64 -1.93,0 -3.33,-1.38 -3.33,-3.25 0,-1.9 1.41,-3.3 3.33,-3.3 0.99,0 1.63,0.39 1.93,0.6 v 1.28 z"
   id="path12341"
   style="fill:#e0c590;fill-opacity:1" />
		</g>
		<g
   id="g12347"
   style="fill:#e0c590;fill-opacity:1">
			<path
   class="st1"
   d="m 42.84,356.76 c 0,0.43 0,0.94 0.3,1.33 0.16,0.21 0.49,0.48 1.09,0.48 0.6,0 0.93,-0.27 1.09,-0.48 0.3,-0.39 0.3,-0.9 0.3,-1.33 v -3.63 h 1.08 v 3.75 c 0,0.76 -0.08,1.33 -0.57,1.88 -0.55,0.58 -1.29,0.78 -1.9,0.78 -0.62,0 -1.35,-0.19 -1.91,-0.78 -0.5,-0.54 -0.57,-1.11 -0.57,-1.88 v -3.75 h 1.08 v 3.63 z"
   id="path12345"
   style="fill:#e0c590;fill-opacity:1" />
		</g>
		<g
   id="g12351"
   style="fill:#e0c590;fill-opacity:1">
			<path
   class="st1"
   d="m 47.98,350.35 c 0.41,0 0.75,0.35 0.75,0.75 0,0.41 -0.34,0.75 -0.75,0.75 -0.41,0 -0.75,-0.34 -0.75,-0.75 0,-0.4 0.35,-0.75 0.75,-0.75 z m 1.85,2.78 v 6.22 h -1.08 v -6.22 z m 0.76,-2.78 c 0.4,0 0.75,0.35 0.75,0.75 0,0.41 -0.35,0.75 -0.75,0.75 -0.41,0 -0.75,-0.34 -0.75,-0.75 0,-0.4 0.35,-0.75 0.75,-0.75 z"
   id="path12349"
   style="fill:#e0c590;fill-opacity:1" />
		</g>
		<g
   id="g12355"
   style="fill:#e0c590;fill-opacity:1">
			<path
   class="st1"
   d="m 51.87,353.13 h 1.08 v 0.67 c 0.11,-0.17 0.57,-0.83 1.41,-0.83 0.33,0 0.69,0.12 0.96,0.25 l -0.51,0.98 c -0.24,-0.17 -0.46,-0.21 -0.63,-0.21 -0.44,0 -0.71,0.18 -0.87,0.39 -0.18,0.24 -0.36,0.66 -0.36,1.68 v 3.29 h -1.08 z"
   id="path12353"
   style="fill:#e0c590;fill-opacity:1" />
		</g>
	</g>
	<g
   id="g12379"
   style="fill:#e0c590;fill-opacity:1">
		<g
   id="g12361"
   style="fill:#e0c590;fill-opacity:1">
			<path
   class="st2"
   d="M 2.85,32.06 C 2.84,32 2.84,31.94 2.84,31.88 c 0,-2.38 1.91,-4.11 4.54,-4.11 2.63,0 4.54,1.73 4.54,4.11 0,0.06 0,0.11 -0.01,0.17 l -0.9,-0.08 c 0,-1.98 -1.49,-3.3 -3.63,-3.3 -2.14,0 -3.64,1.32 -3.64,3.21 z"
   id="path12359"
   style="fill:#e0c590;fill-opacity:1" />
		</g>
		<g
   id="g12365"
   style="fill:#e0c590;fill-opacity:1">
			<path
   class="st2"
   d="m 3.46,32.49 0.45,3.77 c 0.02,0.16 -0.13,0.31 -0.29,0.27 -0.64,-0.15 -1.19,-0.96 -1.32,-2 -0.12,-1.03 0.22,-1.95 0.81,-2.24 0.15,-0.07 0.33,0.03 0.35,0.2 z"
   id="path12363"
   style="fill:#e0c590;fill-opacity:1" />
		</g>
		<g
   id="g12369"
   style="fill:#e0c590;fill-opacity:1">
			<path
   class="st2"
   d="m 4.74,36.46 v 0 C 4.45,36.49 4.18,36.29 4.15,36 L 3.75,32.7 C 3.72,32.41 3.92,32.14 4.21,32.11 v 0 c 0.29,-0.03 0.56,0.17 0.59,0.46 l 0.4,3.3 c 0.03,0.28 -0.17,0.55 -0.46,0.59 z"
   id="path12367"
   style="fill:#e0c590;fill-opacity:1" />
		</g>
		<g
   id="g12373"
   style="fill:#e0c590;fill-opacity:1">
			<path
   class="st2"
   d="m 11.29,32.49 -0.45,3.77 c -0.02,0.16 0.13,0.31 0.29,0.27 0.64,-0.15 1.19,-0.96 1.32,-2 0.12,-1.03 -0.22,-1.95 -0.81,-2.24 -0.15,-0.07 -0.33,0.03 -0.35,0.2 z"
   id="path12371"
   style="fill:#e0c590;fill-opacity:1" />
		</g>
		<g
   id="g12377"
   style="fill:#e0c590;fill-opacity:1">
			<path
   class="st2"
   d="m 10.02,36.46 v 0 c 0.29,0.03 0.56,-0.17 0.59,-0.46 l 0.4,-3.3 c 0.03,-0.29 -0.17,-0.56 -0.46,-0.59 v 0 c -0.29,-0.03 -0.56,0.17 -0.59,0.46 l -0.4,3.3 c -0.04,0.28 0.17,0.55 0.46,0.59 z"
   id="path12375"
   style="fill:#e0c590;fill-opacity:1" />
		</g>
	</g>
	<g
   id="g12383"
   style="fill:#e0c590;fill-opacity:1">
		<path
   class="st2"
   d="m 42.23,332.21 -0.53,-0.85 c 7.37,-4.56 11.77,-12.45 11.77,-21.12 0,-13.68 -11.13,-24.81 -24.81,-24.81 -13.68,0 -24.81,11.13 -24.81,24.81 0,8.66 4.4,16.55 11.77,21.12 l -0.53,0.85 C 7.42,327.47 2.84,319.25 2.84,310.25 c 0,-14.23 11.58,-25.81 25.81,-25.81 14.23,0 25.81,11.58 25.81,25.81 0.02,9.01 -4.56,17.22 -12.23,21.96 z"
   id="path12381"
   style="fill:#e0c590;fill-opacity:1" />
	</g>
	<g
   id="g12387"
   style="fill:#e0c590;fill-opacity:1">
		<path
   class="st2"
   d="m 13.24,336.2 -0.85,-0.53 3.55,-5.75 C 9.23,325.57 5.25,318.25 5.25,310.24 c 0,-12.92 10.51,-23.43 23.43,-23.43 12.92,0 23.43,10.51 23.43,23.43 0,8.17 -4.16,15.63 -11.12,19.94 l -0.53,-0.85 c 6.67,-4.13 10.64,-11.27 10.64,-19.09 0,-12.37 -10.06,-22.43 -22.43,-22.43 -12.37,0 -22.43,10.06 -22.43,22.43 0,7.82 3.98,14.96 10.64,19.09 l 0.42,0.26 z"
   id="path12385"
   style="fill:#e0c590;fill-opacity:1" />
	</g>
	<g
   id="g12429"
   style="fill:#e0c590;fill-opacity:1">
		<g
   id="g12391"
   style="fill:#e0c590;fill-opacity:1">
			<path
   class="st3"
   d="m 18.85,337.86 h 2.05 v -1.62 h 0.44 v 4 H 20.9 v -1.96 h -2.05 v 1.96 h -0.44 v -4 h 0.44 z"
   id="path12389"
   style="fill:#e0c590;fill-opacity:1" />
		</g>
		<g
   id="g12395"
   style="fill:#e0c590;fill-opacity:1">
			<path
   class="st3"
   d="m 24.46,336.65 h -1.63 v 1.19 h 1.58 v 0.42 h -1.58 v 1.55 h 1.63 v 0.42 h -2.08 v -4 h 2.08 z"
   id="path12393"
   style="fill:#e0c590;fill-opacity:1" />
		</g>
		<g
   id="g12399"
   style="fill:#e0c590;fill-opacity:1">
			<path
   class="st3"
   d="m 27.48,339.11 h -1.7 l -0.48,1.13 h -0.5 l 1.84,-4.19 1.79,4.19 h -0.49 z m -0.17,-0.42 -0.67,-1.6 -0.68,1.6 z"
   id="path12397"
   style="fill:#e0c590;fill-opacity:1" />
		</g>
		<g
   id="g12403"
   style="fill:#e0c590;fill-opacity:1">
			<path
   class="st3"
   d="m 29,336.23 h 0.82 c 0.4,0 0.97,0.04 1.48,0.47 0.37,0.31 0.68,0.82 0.68,1.54 0,0.84 -0.41,1.29 -0.7,1.54 -0.37,0.31 -0.75,0.46 -1.46,0.46 H 29 Z m 0.45,3.58 h 0.39 c 0.32,0 0.76,-0.04 1.15,-0.36 0.3,-0.25 0.54,-0.65 0.54,-1.22 0,-0.96 -0.67,-1.58 -1.69,-1.58 h -0.39 z"
   id="path12401"
   style="fill:#e0c590;fill-opacity:1" />
		</g>
		<g
   id="g12407"
   style="fill:#e0c590;fill-opacity:1">
			<path
   class="st3"
   d="m 33.52,336.23 c 0.4,0 0.74,0.05 1.01,0.28 0.29,0.25 0.37,0.61 0.37,0.86 0,0.56 -0.35,1.12 -1.27,1.12 h -0.39 v 1.74 H 32.8 v -4 z m -0.28,1.84 h 0.37 c 0.53,0 0.85,-0.26 0.85,-0.73 0,-0.64 -0.59,-0.7 -0.88,-0.7 h -0.33 v 1.43 z"
   id="path12405"
   style="fill:#e0c590;fill-opacity:1" />
		</g>
		<g
   id="g12411"
   style="fill:#e0c590;fill-opacity:1">
			<path
   class="st3"
   d="m 35.98,337.86 h 2.05 v -1.62 h 0.44 v 4 h -0.44 v -1.96 h -2.05 v 1.96 h -0.44 v -4 h 0.44 z"
   id="path12409"
   style="fill:#e0c590;fill-opacity:1" />
		</g>
		<g
   id="g12415"
   style="fill:#e0c590;fill-opacity:1">
			<path
   class="st3"
   d="m 39.29,338.24 c 0,-1.19 0.93,-2.07 2.08,-2.07 1.15,0 2.08,0.88 2.08,2.07 0,1.19 -0.92,2.07 -2.08,2.07 -1.16,0 -2.08,-0.89 -2.08,-2.07 z m 0.45,0 c 0,0.92 0.73,1.65 1.63,1.65 0.9,0 1.62,-0.73 1.62,-1.65 0,-0.92 -0.73,-1.65 -1.62,-1.65 -0.9,0 -1.63,0.73 -1.63,1.65 z"
   id="path12413"
   style="fill:#e0c590;fill-opacity:1" />
		</g>
		<g
   id="g12419"
   style="fill:#e0c590;fill-opacity:1">
			<path
   class="st3"
   d="m 44.27,340.23 v -4.17 l 3.12,3.27 v -3.1 h 0.44 v 4.18 l -3.12,-3.27 v 3.09 z"
   id="path12417"
   style="fill:#e0c590;fill-opacity:1" />
		</g>
		<g
   id="g12423"
   style="fill:#e0c590;fill-opacity:1">
			<path
   class="st3"
   d="m 50.94,336.65 h -1.63 v 1.19 h 1.58 v 0.42 h -1.58 v 1.55 h 1.63 v 0.42 h -2.08 v -4 h 2.08 z"
   id="path12421"
   style="fill:#e0c590;fill-opacity:1" />
		</g>
		<g
   id="g12427"
   style="fill:#e0c590;fill-opacity:1">
			<path
   class="st3"
   d="m 53.54,337.03 c -0.05,-0.11 -0.14,-0.23 -0.23,-0.3 -0.08,-0.06 -0.22,-0.14 -0.45,-0.14 -0.4,0 -0.67,0.25 -0.67,0.62 0,0.16 0.04,0.25 0.15,0.35 0.12,0.12 0.27,0.19 0.42,0.25 l 0.38,0.17 c 0.23,0.1 0.45,0.21 0.62,0.38 0.2,0.2 0.29,0.44 0.29,0.73 0,0.74 -0.55,1.23 -1.27,1.23 -0.26,0 -0.59,-0.05 -0.87,-0.32 -0.2,-0.19 -0.32,-0.47 -0.37,-0.71 l 0.43,-0.12 c 0.03,0.21 0.13,0.39 0.24,0.51 0.17,0.17 0.37,0.22 0.58,0.22 0.55,0 0.8,-0.39 0.8,-0.79 0,-0.18 -0.05,-0.34 -0.2,-0.47 -0.11,-0.11 -0.27,-0.18 -0.48,-0.28 l -0.36,-0.17 c -0.16,-0.07 -0.35,-0.16 -0.53,-0.33 -0.17,-0.17 -0.28,-0.35 -0.28,-0.65 0,-0.62 0.47,-1.03 1.12,-1.03 0.25,0 0.44,0.05 0.64,0.18 0.16,0.11 0.3,0.27 0.39,0.44 z"
   id="path12425"
   style="fill:#e0c590;fill-opacity:1" />
		</g>
	</g>
	<g
   id="g12483"
   style="fill:#e0c590;fill-opacity:1">
		<g
   id="g12433"
   style="fill:#e0c590;fill-opacity:1">
			<path
   class="st3"
   d="m 8.52,276.61 c 0.22,0 0.62,0.02 0.92,0.25 0.13,0.1 0.36,0.34 0.36,0.83 0,0.2 -0.04,0.54 -0.4,0.79 0.56,0.14 0.76,0.62 0.76,1.01 0,0.39 -0.19,0.7 -0.41,0.86 -0.32,0.25 -0.68,0.26 -0.96,0.26 h -1 v -4 z m -0.27,1.76 h 0.34 c 0.23,0 0.79,-0.05 0.79,-0.67 0,-0.66 -0.65,-0.67 -0.77,-0.67 H 8.25 Z m 0,1.82 h 0.51 c 0.26,0 0.51,-0.02 0.7,-0.17 0.16,-0.11 0.26,-0.31 0.26,-0.55 0,-0.32 -0.19,-0.5 -0.34,-0.59 C 9.23,278.8 9.02,278.76 8.7,278.76 H 8.25 Z"
   id="path12431"
   style="fill:#e0c590;fill-opacity:1" />
		</g>
		<g
   id="g12437"
   style="fill:#e0c590;fill-opacity:1">
			<path
   class="st3"
   d="m 13.19,279.49 h -1.7 l -0.48,1.13 h -0.49 l 1.84,-4.19 1.79,4.19 h -0.49 z m -0.17,-0.42 -0.67,-1.6 -0.68,1.6 z"
   id="path12435"
   style="fill:#e0c590;fill-opacity:1" />
		</g>
		<g
   id="g12441"
   style="fill:#e0c590;fill-opacity:1">
			<path
   class="st3"
   d="m 15.16,276.61 v 3.58 h 1.1 v 0.42 h -1.55 v -4 z"
   id="path12439"
   style="fill:#e0c590;fill-opacity:1" />
		</g>
		<g
   id="g12445"
   style="fill:#e0c590;fill-opacity:1">
			<path
   class="st3"
   d="m 19.07,279.49 h -1.7 l -0.48,1.13 H 16.4 l 1.84,-4.19 1.79,4.19 h -0.49 z m -0.17,-0.42 -0.67,-1.6 -0.68,1.6 z"
   id="path12443"
   style="fill:#e0c590;fill-opacity:1" />
		</g>
		<g
   id="g12449"
   style="fill:#e0c590;fill-opacity:1">
			<path
   class="st3"
   d="m 20.6,280.61 v -4.17 l 3.12,3.27 v -3.1 h 0.44 v 4.18 l -3.12,-3.27 v 3.09 z"
   id="path12447"
   style="fill:#e0c590;fill-opacity:1" />
		</g>
		<g
   id="g12453"
   style="fill:#e0c590;fill-opacity:1">
			<path
   class="st3"
   d="m 28.25,277.5 c -0.13,-0.13 -0.32,-0.28 -0.52,-0.37 -0.21,-0.1 -0.46,-0.16 -0.69,-0.16 -0.92,0 -1.61,0.74 -1.61,1.67 0,1.08 0.88,1.63 1.61,1.63 0.27,0 0.53,-0.08 0.74,-0.19 0.23,-0.11 0.39,-0.26 0.46,-0.33 v 0.55 c -0.44,0.32 -0.91,0.39 -1.21,0.39 -1.19,0 -2.07,-0.9 -2.07,-2.06 0,-1.19 0.89,-2.08 2.09,-2.08 0.24,0 0.7,0.03 1.18,0.4 v 0.55 z"
   id="path12451"
   style="fill:#e0c590;fill-opacity:1" />
		</g>
		<g
   id="g12457"
   style="fill:#e0c590;fill-opacity:1">
			<path
   class="st3"
   d="m 31.14,277.03 h -1.63 v 1.19 h 1.58 v 0.42 h -1.58 v 1.55 h 1.63 v 0.42 h -2.08 v -4 h 2.08 z"
   id="path12455"
   style="fill:#e0c590;fill-opacity:1" />
		</g>
		<g
   id="g12461"
   style="fill:#e0c590;fill-opacity:1">
			<path
   class="st3"
   d="m 31.96,276.61 h 0.82 c 0.4,0 0.97,0.04 1.48,0.47 0.37,0.31 0.68,0.82 0.68,1.54 0,0.84 -0.41,1.29 -0.7,1.54 -0.37,0.31 -0.75,0.46 -1.46,0.46 h -0.81 v -4.01 z m 0.44,3.58 h 0.39 c 0.32,0 0.76,-0.04 1.15,-0.36 0.3,-0.25 0.54,-0.65 0.54,-1.22 0,-0.96 -0.67,-1.58 -1.68,-1.58 h -0.4 z"
   id="path12459"
   style="fill:#e0c590;fill-opacity:1" />
		</g>
		<g
   id="g12465"
   style="fill:#e0c590;fill-opacity:1">
			<path
   class="st3"
   d="m 37.59,276.61 v 3.58 h 1.1 v 0.42 h -1.55 v -4 z"
   id="path12463"
   style="fill:#e0c590;fill-opacity:1" />
		</g>
		<g
   id="g12469"
   style="fill:#e0c590;fill-opacity:1">
			<path
   class="st3"
   d="m 41.37,277.03 h -1.63 v 1.19 h 1.58 v 0.42 h -1.58 v 1.55 h 1.63 v 0.42 H 39.3 v -4 h 2.08 v 0.42 z"
   id="path12467"
   style="fill:#e0c590;fill-opacity:1" />
		</g>
		<g
   id="g12473"
   style="fill:#e0c590;fill-opacity:1">
			<path
   class="st3"
   d="m 42.21,276.61 1.13,3.05 1.13,-3.05 h 0.49 l -1.62,4.24 -1.62,-4.24 z"
   id="path12471"
   style="fill:#e0c590;fill-opacity:1" />
		</g>
		<g
   id="g12477"
   style="fill:#e0c590;fill-opacity:1">
			<path
   class="st3"
   d="m 47.6,277.03 h -1.63 v 1.19 h 1.58 v 0.42 h -1.58 v 1.55 h 1.63 v 0.42 h -2.08 v -4 h 2.08 z"
   id="path12475"
   style="fill:#e0c590;fill-opacity:1" />
		</g>
		<g
   id="g12481"
   style="fill:#e0c590;fill-opacity:1">
			<path
   class="st3"
   d="m 48.86,276.61 v 3.58 h 1.1 v 0.42 h -1.55 v -4 z"
   id="path12479"
   style="fill:#e0c590;fill-opacity:1" />
		</g>
	</g>
	<g
   id="g12487"
   style="fill:#e0c590;fill-opacity:1">
		<path
   class="st2"
   d="m 38.83,72.41 -0.19,-0.98 c 9.7,-1.91 16.74,-10.48 16.74,-20.38 0,-11.45 -9.32,-20.77 -20.77,-20.77 -11.45,0 -20.77,9.32 -20.77,20.77 0,3.83 1.06,7.59 3.06,10.86 l 0.1,0.14 -0.82,0.57 -0.11,-0.16 c -2.11,-3.45 -3.22,-7.39 -3.22,-11.4 0,-12 9.77,-21.77 21.77,-21.77 12,0 21.77,9.77 21.77,21.77 -0.02,10.37 -7.4,19.35 -17.56,21.35 z"
   id="path12485"
   style="fill:#e0c590;fill-opacity:1" />
	</g>
	<g
   id="g12491"
   style="fill:#e0c590;fill-opacity:1">
		<path
   class="st4"
   d="M 43.13,164.8"
   id="path12489"
   style="fill:#e0c590;fill-opacity:1" />
	</g>
	<g
   id="g12495"
   style="fill:#e0c590;fill-opacity:1">
		<path
   class="st4"
   d="M 24.84,175.65"
   id="path12493"
   style="fill:#e0c590;fill-opacity:1" />
	</g>
	<g
   class="st5"
   id="g12499"
   style="fill:#e0c590;fill-opacity:1">
		<path
   class="st4"
   d="M 25.45,130.79"
   id="path12497"
   style="fill:#e0c590;fill-opacity:1" />
	</g>
	<g
   class="st5"
   id="g12503"
   style="fill:#e0c590;fill-opacity:1">
		<path
   class="st4"
   d="M 26.35,122.67"
   id="path12501"
   style="fill:#e0c590;fill-opacity:1" />
	</g>
	<g
   id="g12507"
   style="fill:#e0c590;fill-opacity:1">
		<path
   class="st4"
   d="M 25.45,130.79"
   id="path12505"
   style="fill:#e0c590;fill-opacity:1" />
	</g>
	<g
   id="g12511"
   style="fill:#e0c590;fill-opacity:1">
		<path
   class="st2"
   d="m 42.81,191.77 c -0.68,-0.84 -1.38,-1.65 -2.06,-2.45 -4.99,-5.84 -9.71,-11.36 -0.42,-19.47 4.92,-4.7 7.64,-11.06 7.64,-17.91 0,-7.89 -3.82,-15.4 -10.21,-20.08 -0.4,-0.28 -0.74,-0.53 -1.21,-0.82 l 0.53,-0.85 c 0.49,0.31 0.85,0.56 1.26,0.86 6.65,4.87 10.62,12.68 10.62,20.89 0,7.13 -2.83,13.75 -7.96,18.65 -8.56,7.48 -4.55,12.16 0.51,18.09 0.69,0.8 1.39,1.62 2.07,2.47 z"
   id="path12509"
   style="fill:#e0c590;fill-opacity:1" />
	</g>
	<g
   id="g12515"
   style="fill:#e0c590;fill-opacity:1">
		<path
   class="st2"
   d="M 11.67,121 C 5.41,115.53 2.22,107.62 2.92,99.29 3.57,91.53 7.9,84.3 14.49,79.94 l 0.58,0.81 C 8.7,84.97 4.54,91.92 3.92,99.37 c -0.67,8 2.4,15.61 8.41,20.87 z"
   id="path12513"
   style="fill:#e0c590;fill-opacity:1" />
	</g>
	<g
   id="g12519"
   style="fill:#e0c590;fill-opacity:1">
		<path
   class="st4"
   d="M 42.26,151.85"
   id="path12517"
   style="fill:#e0c590;fill-opacity:1" />
	</g>
	<g
   id="g12523"
   style="fill:#e0c590;fill-opacity:1">
		<rect
   x="44.869999"
   y="151.14999"
   class="st2"
   width="1"
   height="2.24"
   id="rect12521"
   style="fill:#e0c590;fill-opacity:1" />
	</g>
	<g
   id="g12527"
   style="fill:#e0c590;fill-opacity:1">
		<path
   class="st2"
   d="M 16.85,120.8 C 10.09,116.66 6.06,109.46 6.06,101.53 6.06,93.75 9.98,86.61 16.55,82.44 l 0.54,0.84 c -6.28,3.99 -10.03,10.81 -10.03,18.25 0,7.57 3.85,14.46 10.31,18.41 z"
   id="path12525"
   style="fill:#e0c590;fill-opacity:1" />
	</g>
	<g
   id="g12531"
   style="fill:#e0c590;fill-opacity:1">
		<polygon
   class="st2"
   points="34.62,170.26 34.72,170.17 35.38,170.91 35.28,171 "
   id="polygon12529"
   style="fill:#e0c590;fill-opacity:1" />
	</g>
	<g
   id="g12535"
   style="fill:#e0c590;fill-opacity:1">
		<path
   class="st2"
   d="m 13.91,209.55 c -3.72,-19.4 1.17,-30.51 16.33,-37.13 l 0.4,0.92 c -10.34,4.52 -20.29,12.33 -15.75,36.03 z"
   id="path12533"
   style="fill:#e0c590;fill-opacity:1" />
	</g>
	<g
   id="g12539"
   style="fill:#e0c590;fill-opacity:1">
		<path
   class="st2"
   d="m 36.56,131.03 c -3.88,-2.42 -6.67,-3.7 -9.62,-5.05 -2.87,-1.31 -5.84,-2.67 -10.08,-5.18 l 0.51,-0.86 c 4.2,2.49 7.14,3.83 9.99,5.13 2.98,1.37 5.8,2.65 9.73,5.11 z"
   id="path12537"
   style="fill:#e0c590;fill-opacity:1" />
	</g>
	<g
   id="g12543"
   style="fill:#e0c590;fill-opacity:1">
		<path
   class="st2"
   d="m 30.64,173.33 -0.41,-0.91 c 0.47,-0.21 0.92,-0.42 1.38,-0.63 l 0.13,-0.05 c 0.98,-0.42 1.97,-0.93 2.94,-1.53 l 0.03,-0.02 c 6.37,-4.01 10.15,-10.85 10.15,-18.32 0,-7.92 -4.39,-15.11 -11.74,-19.22 -1.96,-1.25 -4.69,-2.49 -7.58,-3.81 -4.72,-2.15 -10.07,-4.59 -13.87,-7.81 l 0.65,-0.76 c 3.69,3.13 8.97,5.54 13.63,7.66 2.93,1.33 5.69,2.6 7.68,3.87 7.65,4.28 12.23,11.79 12.23,20.08 0,7.81 -3.95,14.96 -10.56,19.13 L 35.28,171 c -1.1,0.68 -2.17,1.24 -3.23,1.68 l -0.1,0.04 c -0.43,0.21 -0.86,0.41 -1.31,0.61 z"
   id="path12541"
   style="fill:#e0c590;fill-opacity:1" />
	</g>
	<g
   id="g12561"
   style="fill:#e0c590;fill-opacity:1">
		<g
   id="g12547"
   style="fill:#e0c590;fill-opacity:1">
			<path
   class="st2"
   d="m 3.03,126.41 v 4.77 H 4.5 v 0.56 H 2.43 v -5.33 z"
   id="path12545"
   style="fill:#e0c590;fill-opacity:1" />
		</g>
		<g
   id="g12551"
   style="fill:#e0c590;fill-opacity:1">
			<path
   class="st2"
   d="M 8.06,126.97 H 5.89 v 1.58 H 8 v 0.56 H 5.89 v 2.07 h 2.17 v 0.56 H 5.3 v -5.33 h 2.77 v 0.56 z"
   id="path12549"
   style="fill:#e0c590;fill-opacity:1" />
		</g>
		<g
   id="g12555"
   style="fill:#e0c590;fill-opacity:1">
			<path
   class="st2"
   d="M 11.58,126.97 H 9.75 v 1.58 h 1.77 v 0.56 H 9.75 v 2.64 h -0.6 v -5.33 h 2.43 z"
   id="path12553"
   style="fill:#e0c590;fill-opacity:1" />
		</g>
		<g
   id="g12559"
   style="fill:#e0c590;fill-opacity:1">
			<path
   class="st2"
   d="m 13.94,126.97 v 4.77 h -0.59 v -4.77 h -1.3 v -0.56 h 3.18 v 0.56 z"
   id="path12557"
   style="fill:#e0c590;fill-opacity:1" />
		</g>
	</g>
	<g
   id="g12583"
   style="fill:#e0c590;fill-opacity:1">
		<g
   id="g12565"
   style="fill:#e0c590;fill-opacity:1">
			<path
   class="st2"
   d="m 36.54,121.4 c 0.36,0 0.9,0.02 1.29,0.3 0.31,0.21 0.58,0.62 0.58,1.18 0,0.82 -0.54,1.42 -1.34,1.47 l 1.69,2.38 h -0.72 l -1.62,-2.33 h -0.15 v 2.33 h -0.59 v -5.33 z m -0.27,2.47 h 0.38 c 0.74,0 1.17,-0.35 1.17,-0.98 0,-0.3 -0.09,-0.59 -0.42,-0.78 -0.24,-0.14 -0.51,-0.15 -0.77,-0.15 h -0.36 z"
   id="path12563"
   style="fill:#e0c590;fill-opacity:1" />
		</g>
		<g
   id="g12569"
   style="fill:#e0c590;fill-opacity:1">
			<path
   class="st2"
   d="m 40.29,121.4 v 5.33 H 39.7 v -5.33 z"
   id="path12567"
   style="fill:#e0c590;fill-opacity:1" />
		</g>
		<g
   id="g12573"
   style="fill:#e0c590;fill-opacity:1">
			<path
   class="st2"
   d="m 44.42,124.05 h 2.22 v 0.13 c 0,0.59 -0.18,1.23 -0.51,1.69 -0.16,0.22 -0.76,0.96 -1.98,0.96 -1.58,0 -2.77,-1.21 -2.77,-2.76 0,-1.55 1.19,-2.76 2.78,-2.76 0.51,0 1.11,0.13 1.63,0.53 0.24,0.18 0.46,0.42 0.62,0.63 l -0.44,0.4 c -0.15,-0.22 -0.33,-0.41 -0.5,-0.55 -0.26,-0.21 -0.66,-0.45 -1.29,-0.45 -1.29,0 -2.18,0.97 -2.18,2.21 0,1.46 1.16,2.19 2.17,2.19 0.71,0 1.33,-0.36 1.63,-0.9 0.1,-0.17 0.2,-0.42 0.22,-0.76 h -1.58 v -0.56 z"
   id="path12571"
   style="fill:#e0c590;fill-opacity:1" />
		</g>
		<g
   id="g12577"
   style="fill:#e0c590;fill-opacity:1">
			<path
   class="st2"
   d="m 48.32,123.56 h 2.73 v -2.17 h 0.59 v 5.33 h -0.59 v -2.61 h -2.73 v 2.61 h -0.59 v -5.33 h 0.59 z"
   id="path12575"
   style="fill:#e0c590;fill-opacity:1" />
		</g>
		<g
   id="g12581"
   style="fill:#e0c590;fill-opacity:1">
			<path
   class="st2"
   d="m 54.34,121.96 v 4.77 h -0.59 v -4.77 h -1.3 v -0.56 h 3.18 v 0.56 z"
   id="path12579"
   style="fill:#e0c590;fill-opacity:1" />
		</g>
	</g>
	<g
   id="g12587"
   style="fill:#e0c590;fill-opacity:1">
		<path
   class="st2"
   d="m 15.07,80.76 -0.6,-0.8 0.87,-0.66 c 1.08,-0.82 1.99,-1.7 2.7,-2.62 1.76,-2.27 2.08,-4.29 1.21,-7.73 l 0.97,-0.25 c 0.95,3.74 0.57,6.07 -1.39,8.59 -0.77,0.99 -1.74,1.93 -2.89,2.8 z"
   id="path12585"
   style="fill:#e0c590;fill-opacity:1" />
	</g>
	<g
   id="g12591"
   style="fill:#e0c590;fill-opacity:1">
		
			<rect
   x="16.02"
   y="62.150002"
   transform="matrix(0.8246,-0.5657,0.5657,0.8246,-32.317,20.2589)"
   class="st2"
   width="1"
   height="0.19"
   id="rect12589"
   style="fill:#e0c590;fill-opacity:1" />
	</g>
	<g
   id="g12595"
   style="fill:#e0c590;fill-opacity:1">
		<path
   class="st4"
   d="M 23.85,78.25"
   id="path12593"
   style="fill:#e0c590;fill-opacity:1" />
	</g>
	<g
   id="g12599"
   style="fill:#e0c590;fill-opacity:1">
		<path
   class="st4"
   d="M 18.96,81.66"
   id="path12597"
   style="fill:#e0c590;fill-opacity:1" />
	</g>
	<g
   id="g12603"
   style="fill:#e0c590;fill-opacity:1">
		<path
   class="st4"
   d="M 18.96,81.66"
   id="path12601"
   style="fill:#e0c590;fill-opacity:1" />
	</g>
	<g
   id="g12607"
   style="fill:#e0c590;fill-opacity:1">
		<path
   class="st2"
   d="m 17.09,83.28 -0.54,-0.84 c 1.12,-0.72 2.57,-1.77 4.11,-2.88 2.19,-1.57 4.67,-3.36 6.62,-4.52 3.36,-2 8.75,-3.09 11.35,-3.62 l 0.2,0.98 c -2.54,0.51 -7.82,1.59 -11.03,3.5 -1.92,1.14 -4.38,2.91 -6.55,4.47 -1.55,1.12 -3.02,2.17 -4.16,2.91 z"
   id="path12605"
   style="fill:#e0c590;fill-opacity:1" />
	</g>
	<g
   id="g12611"
   style="fill:#e0c590;fill-opacity:1">
		<path
   class="st2"
   d="m 19.25,68.96 c -0.5,-1.91 -2.49,-5.46 -3.09,-6.35 l 0.83,-0.56 c 0.57,0.83 2.68,4.54 3.23,6.65 z"
   id="path12609"
   style="fill:#e0c590;fill-opacity:1" />
	</g>
	<g
   id="g12615"
   style="fill:#e0c590;fill-opacity:1">
		<path
   class="st2"
   d="m 11.81,59.73 -0.2,-0.54 C 10.64,56.5 10.15,53.7 10.15,50.85 10.15,37.37 21.12,26.4 34.6,26.4 c 7.81,0 14.97,3.6 19.64,9.88 l 0.34,0.46 -3.02,1.62 -0.47,-0.88 1.99,-1.07 C 48.61,30.68 41.9,27.4 34.6,27.4 c -12.93,0 -23.45,10.52 -23.45,23.45 0,2.54 0.41,5.04 1.21,7.45 l 1.81,-0.97 0.47,0.88 z"
   id="path12613"
   style="fill:#e0c590;fill-opacity:1" />
	</g>
	<g
   id="g12619"
   style="fill:#e0c590;fill-opacity:1">
		<path
   class="st2"
   d="m 28.61,215.34 -0.92,-0.39 c 0.7,-1.66 1.07,-3.45 1.09,-5.32 0.1,-7.5 -5.67,-13.87 -13.13,-14.5 l 0.08,-1 c 7.98,0.67 14.15,7.49 14.04,15.51 -0.02,2.01 -0.41,3.92 -1.16,5.7 z"
   id="path12617"
   style="fill:#e0c590;fill-opacity:1" />
	</g>
	<g
   id="g12623"
   style="fill:#e0c590;fill-opacity:1">
		
			<rect
   x="26.700001"
   y="199.96001"
   transform="matrix(0.8473,-0.5311,0.5311,0.8473,-102.0595,45.8912)"
   class="st2"
   width="4.1799998"
   height="1"
   id="rect12621"
   style="fill:#e0c590;fill-opacity:1" />
	</g>
	<g
   id="g12627"
   style="fill:#e0c590;fill-opacity:1">
		<path
   class="st6"
   d="m 34.6,226.34 c -2.78,0 -5.04,-2.26 -5.04,-5.04 0,-2.78 2.26,-5.04 5.04,-5.04 2.78,0 5.04,2.26 5.04,5.04 0,2.78 -2.26,5.04 -5.04,5.04 z m 0,-9.07 c -2.22,0 -4.04,1.81 -4.04,4.04 0,2.23 1.81,4.04 4.04,4.04 2.23,0 4.04,-1.81 4.04,-4.04 0,-2.23 -1.81,-4.04 -4.04,-4.04 z"
   id="path12625"
   style="fill:#e0c590;fill-opacity:1" />
	</g>
	<g
   id="g12631"
   style="fill:#e0c590;fill-opacity:1">
		<path
   class="st6"
   d="m 48.8,233.1 c -2.78,0 -5.04,-2.26 -5.04,-5.04 0,-2.78 2.26,-5.04 5.04,-5.04 2.78,0 5.04,2.26 5.04,5.04 0,2.78 -2.26,5.04 -5.04,5.04 z m 0,-9.07 c -2.23,0 -4.04,1.81 -4.04,4.04 0,2.23 1.81,4.04 4.04,4.04 2.22,0 4.04,-1.81 4.04,-4.04 0,-2.23 -1.82,-4.04 -4.04,-4.04 z"
   id="path12629"
   style="fill:#e0c590;fill-opacity:1" />
	</g>
	<g
   id="g12637"
   style="fill:#e0c590;fill-opacity:1">
		<g
   id="g12635"
   style="fill:#e0c590;fill-opacity:1">
			<path
   class="st3"
   d="m 34.49,218.89 v 3.58 h 1.1 v 0.42 h -1.55 v -4 z"
   id="path12633"
   style="fill:#e0c590;fill-opacity:1" />
		</g>
	</g>
	<g
   id="g12643"
   style="fill:#e0c590;fill-opacity:1">
		<g
   id="g12641"
   style="fill:#e0c590;fill-opacity:1">
			<path
   class="st3"
   d="m 48.45,225.92 c 0.27,0 0.67,0.02 0.97,0.22 0.23,0.16 0.44,0.46 0.44,0.89 0,0.61 -0.4,1.06 -1.01,1.1 l 1.27,1.79 h -0.54 l -1.22,-1.75 h -0.11 v 1.75 h -0.44 v -4 z m -0.2,1.86 h 0.28 c 0.55,0 0.88,-0.26 0.88,-0.73 0,-0.22 -0.07,-0.44 -0.32,-0.59 -0.18,-0.1 -0.38,-0.11 -0.58,-0.11 h -0.27 v 1.43 z"
   id="path12639"
   style="fill:#e0c590;fill-opacity:1" />
		</g>
	</g>
	<g
   id="g12647"
   style="fill:#e0c590;fill-opacity:1">
		
			<rect
   x="45.16"
   y="191.25999"
   transform="matrix(0.9885,-0.1514,0.1514,0.9885,-30.8838,9.3021)"
   class="st2"
   width="1"
   height="32.5"
   id="rect12645"
   style="fill:#e0c590;fill-opacity:1" />
	</g>
	<g
   id="g12651"
   style="fill:#e0c590;fill-opacity:1">
		
			<rect
   x="22.049999"
   y="204.78"
   transform="matrix(0.5059,-0.8626,0.8626,0.5059,-173.6526,125.3057)"
   class="st2"
   width="1"
   height="18.9"
   id="rect12649"
   style="fill:#e0c590;fill-opacity:1" />
	</g>
	<g
   id="g12655"
   style="fill:#e0c590;fill-opacity:1">
		<path
   class="st2"
   d="m 43.2,206.83 c -8.48,0 -15.38,-6.9 -15.38,-15.38 0,-4.43 1.9,-8.64 5.22,-11.54 l 0.66,0.75 c -3.1,2.71 -4.88,6.64 -4.88,10.78 0,7.93 6.45,14.38 14.38,14.38 0.11,0 0.22,0 0.33,-0.01 l 0.08,1 c -0.13,0.02 -0.28,0.02 -0.41,0.02 z"
   id="path12653"
   style="fill:#e0c590;fill-opacity:1" />
	</g>
	<g
   id="g12659"
   style="fill:#e0c590;fill-opacity:1">
		<path
   class="st2"
   d="m 40.55,272.86 -5.44,-8.99 c -3.92,2.15 -8.88,2.12 -12.74,-0.07 l -5.6,9.06 -0.43,-0.26 C 9.38,268.28 5.22,260.83 5.22,252.66 c 0,-12.92 10.51,-23.43 23.43,-23.43 12.92,0 23.43,10.51 23.43,23.43 0,8.17 -4.16,15.63 -11.12,19.94 z M 28.67,230.22 c -12.37,0 -22.43,10.06 -22.43,22.43 0,7.66 3.81,14.66 10.22,18.83 l 5.59,-9.04 0.43,0.26 c 3.75,2.32 8.74,2.35 12.56,0.07 l 0.43,-0.26 5.42,8.97 C 47.3,267.31 51.11,260.31 51.11,252.66 51.1,240.28 41.04,230.22 28.67,230.22 Z"
   id="path12657"
   style="fill:#e0c590;fill-opacity:1" />
	</g>
</g>
</svg>
