<?xml version="1.0" encoding="UTF-8" standalone="no"?>
<svg
   xmlns:dc="http://purl.org/dc/elements/1.1/"
   xmlns:cc="http://creativecommons.org/ns#"
   xmlns:rdf="http://www.w3.org/1999/02/22-rdf-syntax-ns#"
   xmlns:svg="http://www.w3.org/2000/svg"
   xmlns="http://www.w3.org/2000/svg"
   xmlns:sodipodi="http://sodipodi.sourceforge.net/DTD/sodipodi-0.dtd"
   xmlns:inkscape="http://www.inkscape.org/namespaces/inkscape"
   inkscape:version="0.92.5 (2060ec1f9f, 2020-04-08)"
   height="3.168mm"
   width="6.7950001mm"
   sodipodi:docname="XNOR_icon.svg"
   xml:space="preserve"
   viewBox="0 0 25.681891 11.973543"
   y="0px"
   x="0px"
   id="Layer_1"
   version="1.1"><metadata
   id="metadata844"><rdf:RDF><cc:Work
       rdf:about=""><dc:format>image/svg+xml</dc:format><dc:type
         rdf:resource="http://purl.org/dc/dcmitype/StillImage" /><dc:title></dc:title></cc:Work></rdf:RDF></metadata><defs
   id="defs842" /><sodipodi:namedview
   inkscape:current-layer="Layer_1"
   inkscape:window-maximized="0"
   inkscape:window-y="36"
   inkscape:window-x="96"
   inkscape:cy="0.66514206"
   inkscape:cx="10.899441"
   inkscape:zoom="22.138244"
   units="mm"
   inkscape:document-units="mm"
   showgrid="false"
   id="namedview840"
   inkscape:window-height="855"
   inkscape:window-width="1374"
   inkscape:pageshadow="2"
   inkscape:pageopacity="0"
   guidetolerance="10"
   gridtolerance="10"
   objecttolerance="10"
   borderopacity="1"
   bordercolor="#666666"
   pagecolor="#ffffff"
   inkscape:snap-center="true"
   inkscape:snap-bbox="true"
   inkscape:snap-bbox-midpoints="true"
   inkscape:snap-bbox-edge-midpoints="true"
   inkscape:bbox-nodes="true"
   inkscape:bbox-paths="true" />
<style
   id="style833"
   type="text/css">
	.st0{fill:#E0C490;}
</style>

<style
   type="text/css"
   id="style883">
	.st0{fill:#E0C490;}
</style><style
   type="text/css"
   id="style2244">
	.st0{fill:#E0C490;}
</style><style
   type="text/css"
   id="style968">
	.st0{fill:#E0C490;}
</style><style
   type="text/css"
   id="style1643">
	.st0{fill:#E0C490;}
</style><style
   type="text/css"
   id="style2890">
	.st0{fill:#E0C490;}
</style><g
   id="g2904"
   style="fill:#e0c490;fill-opacity:1"
   transform="matrix(1.3333256,0,0,1.3333517,5.618148,1.5137073)">
	<g
   id="g2894"
   style="fill:#e0c490;fill-opacity:1">
		<path
   class="st0"
   d="M 0,4.4 C 0,3.5 0.4,3.1 1.1,3.1 1.5,3.1 1.8,3.2 2.4,3.5 2.9,3.7 3.2,3.9 3.5,3.9 3.8,3.9 4,3.6 4,3.2 H 4.5 C 4.5,4.2 4,4.5 3.5,4.5 3.1,4.4 2.7,4.3 2.1,4 1.7,3.8 1.4,3.7 1.1,3.7 0.8,3.7 0.6,3.9 0.6,4.5 H 0 Z"
   id="path2892"
   style="fill:#e0c490;fill-opacity:1"
   inkscape:connector-curvature="0" />
	</g>
	<g
   id="g2898"
   style="fill:#e0c490;fill-opacity:1">
		<path
   class="st0"
   d="M 10.6,0 8.1,5.5 H 7.3 L 4.9,0 h 0.8 l 2,4.7 v 0 L 9.7,0 Z"
   id="path2896"
   style="fill:#e0c490;fill-opacity:1"
   inkscape:connector-curvature="0" />
	</g>
	<g
   id="g2902"
   style="fill:#e0c490;fill-opacity:1">
		<path
   class="st0"
   d="M 4.7,6.9 V 6.3 h 6 v 0.6 z"
   id="path2900"
   style="fill:#e0c490;fill-opacity:1"
   inkscape:connector-curvature="0" />
	</g>
</g></svg>