<?xml version="1.0" encoding="UTF-8" standalone="no"?>
<svg
   xmlns:dc="http://purl.org/dc/elements/1.1/"
   xmlns:cc="http://creativecommons.org/ns#"
   xmlns:rdf="http://www.w3.org/1999/02/22-rdf-syntax-ns#"
   xmlns:svg="http://www.w3.org/2000/svg"
   xmlns="http://www.w3.org/2000/svg"
   xmlns:sodipodi="http://sodipodi.sourceforge.net/DTD/sodipodi-0.dtd"
   xmlns:inkscape="http://www.inkscape.org/namespaces/inkscape"
   inkscape:version="0.92.5 (2060ec1f9f, 2020-04-08)"
   height="3.168mm"
   width="6.7950001mm"
   sodipodi:docname="NAND_icon.svg"
   xml:space="preserve"
   viewBox="0 0 25.681891 11.973543"
   y="0px"
   x="0px"
   id="Layer_1"
   version="1.1"><metadata
   id="metadata844"><rdf:RDF><cc:Work
       rdf:about=""><dc:format>image/svg+xml</dc:format><dc:type
         rdf:resource="http://purl.org/dc/dcmitype/StillImage" /><dc:title></dc:title></cc:Work></rdf:RDF></metadata><defs
   id="defs842" /><sodipodi:namedview
   inkscape:current-layer="Layer_1"
   inkscape:window-maximized="0"
   inkscape:window-y="36"
   inkscape:window-x="96"
   inkscape:cy="0.66514206"
   inkscape:cx="10.899441"
   inkscape:zoom="22.138244"
   units="mm"
   inkscape:document-units="mm"
   showgrid="false"
   id="namedview840"
   inkscape:window-height="855"
   inkscape:window-width="1374"
   inkscape:pageshadow="2"
   inkscape:pageopacity="0"
   guidetolerance="10"
   gridtolerance="10"
   objecttolerance="10"
   borderopacity="1"
   bordercolor="#666666"
   pagecolor="#ffffff"
   inkscape:snap-center="true"
   inkscape:snap-bbox="true"
   inkscape:snap-bbox-midpoints="true"
   inkscape:snap-bbox-edge-midpoints="true"
   inkscape:bbox-nodes="true"
   inkscape:bbox-paths="true" />
<style
   id="style833"
   type="text/css">
	.st0{fill:#E0C490;}
</style>

<style
   type="text/css"
   id="style883">
	.st0{fill:#E0C490;}
</style><g
   id="g893"
   style="fill:#e0c490;fill-opacity:1"
   transform="matrix(1.3333453,0,0,1.3333453,5.8417184,2.3115589)">
	<g
   id="g887"
   style="fill:#e0c490;fill-opacity:1">
		<path
   class="st0"
   d="m 9.7,5.5 -2,-4.7 v 0 l -2,4.7 H 4.9 L 7.3,0 H 8 l 2.5,5.5 z"
   id="path885"
   style="fill:#e0c490;fill-opacity:1"
   inkscape:connector-curvature="0" />
	</g>
	<g
   id="g891"
   style="fill:#e0c490;fill-opacity:1">
		<path
   class="st0"
   d="M 0,3.4 C 0,2.5 0.4,2.1 1.1,2.1 1.5,2.1 1.8,2.2 2.4,2.5 2.9,2.7 3.2,2.9 3.5,2.9 3.8,2.9 4,2.6 4,2.2 H 4.5 C 4.5,3.2 4,3.5 3.5,3.5 3.1,3.4 2.7,3.3 2.1,3 1.7,2.8 1.4,2.7 1.1,2.7 0.8,2.7 0.5,2.9 0.5,3.4 Z"
   id="path889"
   style="fill:#e0c490;fill-opacity:1"
   inkscape:connector-curvature="0" />
	</g>
</g></svg>