<?xml version="1.0" encoding="UTF-8" standalone="no"?>
<svg
   xmlns:dc="http://purl.org/dc/elements/1.1/"
   xmlns:cc="http://creativecommons.org/ns#"
   xmlns:rdf="http://www.w3.org/1999/02/22-rdf-syntax-ns#"
   xmlns:svg="http://www.w3.org/2000/svg"
   xmlns="http://www.w3.org/2000/svg"
   xmlns:sodipodi="http://sodipodi.sourceforge.net/DTD/sodipodi-0.dtd"
   xmlns:inkscape="http://www.inkscape.org/namespaces/inkscape"
   inkscape:version="1.0 (4035a4f, 2020-05-01)"
   height="128.5mm"
   width="60.959999mm"
   sodipodi:docname="tona (inkscape render).svg"
   xml:space="preserve"
   viewBox="0 0 230.39999 485.66928"
   y="0px"
   x="0px"
   id="Layer_1"
   version="1.1"><metadata
   id="metadata1128"><rdf:RDF><cc:Work
       rdf:about=""><dc:format>image/svg+xml</dc:format><dc:type
         rdf:resource="http://purl.org/dc/dcmitype/StillImage" /><dc:title></dc:title></cc:Work></rdf:RDF></metadata><defs
   id="defs1126" /><sodipodi:namedview
   inkscape:current-layer="Layer_1"
   inkscape:window-maximized="0"
   inkscape:window-y="23"
   inkscape:window-x="0"
   inkscape:cy="332.60633"
   inkscape:cx="34.802931"
   inkscape:zoom="0.77503438"
   units="mm"
   inkscape:document-units="mm"
   showgrid="false"
   id="namedview1124"
   inkscape:window-height="834"
   inkscape:window-width="1440"
   inkscape:pageshadow="2"
   inkscape:pageopacity="0"
   guidetolerance="10"
   gridtolerance="10"
   objecttolerance="10"
   borderopacity="1"
   bordercolor="#666666"
   pagecolor="#ffffff" />
<style
   id="style833"
   type="text/css">
	.st0{fill:#202020;}
	.st1{fill:#E0C490;}
	.st2{fill:#F9EDA8;}
</style>
<g
   style="fill:#202020;fill-opacity:1"
   transform="scale(1.3310225,1.3331576)"
   id="g837">
	<rect
   style="fill:#202020;fill-opacity:1"
   id="rect835"
   height="364.29999"
   width="172.8"
   class="st0"
   y="0"
   x="0" />
</g>
<g
   style="fill:#e0c490;fill-opacity:1"
   transform="scale(1.3310225,1.3331576)"
   id="g841">
	<path
   style="fill:#e0c490;fill-opacity:1"
   id="path839"
   d="m 107.9,153.8 c -0.3,-5.8 -2.9,-11 -7.2,-14.8 -8.7,-8.1 -8.8,-9.9 -9.3,-15.2 v -0.1 c -0.2,-2 -0.6,-6.6 5.6,-14.2 l 0.7,-0.8 c 8.1,-9.7 12.2,-21.9 11.4,-34.3 -1.6,-27 -24.8,-47.6 -51.8,-46 -27,1.6 -47.6,24.8 -46,51.8 1.3,21.6 16.9,40 38,44.9 l 4.1,0.7 c 7.5,2.2 12.8,9 13.3,16.7 0.1,1.8 0,3.5 -0.4,5.2 l -0.7,2.4 c -0.5,2 -0.7,4.1 -0.5,6.2 0.7,11.8 10.9,20.9 22.7,20.2 11.7,-0.7 20.8,-10.9 20.1,-22.7 m -40,2.3 c -0.1,-1.8 0,-3.5 0.4,-5.2 l 0.7,-2.4 c 0.5,-2 0.7,-4.1 0.5,-6.2 C 69,133.2 62.7,125.4 54,122.8 L 49.8,122 C 30,117.5 15.4,100.1 14.2,79.9 12.7,54.6 32.1,32.8 57.4,31.3 c 25.3,-1.5 47.1,17.9 48.6,43.2 0.7,11.6 -3.1,23.1 -10.7,32.2 l -0.7,0.8 c -7,8.6 -6.5,14.3 -6.3,16.4 v 0.1 c 0.6,6.2 1.2,8.5 10.3,17.1 3.7,3.3 5.9,7.8 6.2,12.8 0.6,10.2 -7.2,19 -17.4,19.6 -10.1,0.6 -18.9,-7.2 -19.5,-17.4"
   class="st1" />
</g>
<g
   style="fill:#e0c490;fill-opacity:1"
   transform="scale(1.3310225,1.3331576)"
   id="g845">
	<polygon
   style="fill:#e0c490;fill-opacity:1"
   id="polygon843"
   points="165.5,212.2 168.7,208 169,208 165.5,212.5 158.7,203.9 155.5,208 155.2,208 158.7,203.5 "
   class="st1" />
</g>
<g
   style="fill:#e0c490;fill-opacity:1"
   transform="scale(1.3310225,1.3331576)"
   id="g849">
	<polygon
   style="fill:#e0c490;fill-opacity:1"
   id="polygon847"
   points="168.7,207.9 169.2,207.9 165.5,212.8 158.7,204.1 155.6,208.2 155,208.2 158.7,203.3 165.5,212 "
   class="st1" />
</g>
<g
   style="fill:#e0c490;fill-opacity:1"
   transform="scale(1.3310225,1.3331576)"
   id="g853">
	<path
   style="fill:#e0c490;fill-opacity:1"
   id="path851"
   d="m 169.1,246.9 c 0,0 0,0 0,0 -0.9,2.2 -1.7,4.4 -3.5,4.4 -1.8,0 -2.6,-2.2 -3.5,-4.4 -0.8,-2.1 -1.7,-4.3 -3.3,-4.3 -1.6,0 -2.4,2.1 -3.3,4.2 h -0.2 c 0,0 0,0 0,0 0.8,-2.2 1.7,-4.4 3.5,-4.4 1.8,0 2.6,2.2 3.5,4.4 0.8,2.1 1.7,4.3 3.3,4.3 1.6,0 2.4,-2.1 3.3,-4.2 z"
   class="st1" />
</g>
<g
   style="fill:#e0c490;fill-opacity:1"
   transform="scale(1.3310225,1.3331576)"
   id="g857">
	<path
   style="fill:#e0c490;fill-opacity:1"
   id="path855"
   d="m 165.6,251.4 c -1.8,0 -2.7,-2.3 -3.6,-4.5 -0.8,-2.1 -1.6,-4.2 -3.2,-4.2 -1.5,0 -2.3,2.1 -3.1,4.1 v 0.1 h -0.5 l 0.1,-0.2 c 0.9,-2.2 1.8,-4.5 3.6,-4.5 1.8,0 2.7,2.3 3.6,4.5 0.8,2.1 1.6,4.2 3.2,4.2 1.5,0 2.3,-2.1 3.1,-4.1 v -0.1 h 0.5 l -0.1,0.2 c -0.9,2.3 -1.8,4.5 -3.6,4.5"
   class="st1" />
</g>
<g
   style="fill:#e0c490;fill-opacity:1"
   transform="scale(1.3310225,1.3331576)"
   id="g861">
	<line
   style="fill:#e0c490;fill-opacity:1"
   id="line859"
   y2="208"
   x2="155.2"
   y1="208"
   x1="155.5"
   class="st2" />
</g>
<g
   style="fill:#e0c490;fill-opacity:1"
   transform="scale(1.3310225,1.3331576)"
   id="g865">
	<rect
   style="fill:#e0c490;fill-opacity:1"
   id="rect863"
   height="0.2"
   width="0.30000001"
   class="st2"
   y="207.89999"
   x="155.2" />
</g>
<g
   style="fill:#e0c490;fill-opacity:1"
   transform="scale(1.3310225,1.3331576)"
   id="g869">
	<rect
   style="fill:#e0c490;fill-opacity:1"
   id="rect867"
   height="0.2"
   width="0.30000001"
   class="st1"
   y="207.89999"
   x="168.7" />
</g>
<g
   style="fill:#e0c490;fill-opacity:1"
   transform="scale(1.3310225,1.3331576)"
   id="g873">
	<rect
   style="fill:#e0c490;fill-opacity:1"
   id="rect871"
   height="8.8999996"
   width="0.2"
   class="st1"
   y="126.6"
   x="155.89999" />
</g>
<g
   style="fill:#e0c490;fill-opacity:1"
   transform="scale(1.3310225,1.3331576)"
   id="g877">
	<rect
   style="fill:#e0c490;fill-opacity:1"
   id="rect875"
   height="9.1000004"
   width="0.5"
   class="st1"
   y="126.5"
   x="155.7" />
</g>
<g
   style="fill:#e0c490;fill-opacity:1"
   transform="scale(1.3310225,1.3331576)"
   id="g881">
	<rect
   style="fill:#e0c490;fill-opacity:1"
   id="rect879"
   height="0.2"
   width="6.6999998"
   class="st1"
   y="126.5"
   x="156" />
</g>
<g
   style="fill:#e0c490;fill-opacity:1"
   transform="scale(1.3310225,1.3331576)"
   id="g885">
	<rect
   style="fill:#e0c490;fill-opacity:1"
   id="rect883"
   height="0.5"
   width="7"
   class="st1"
   y="126.3"
   x="155.89999" />
</g>
<g
   style="fill:#e0c490;fill-opacity:1"
   transform="scale(1.3310225,1.3331576)"
   id="g889">
	<rect
   style="fill:#e0c490;fill-opacity:1"
   id="rect887"
   height="8.8999996"
   width="0.2"
   class="st1"
   y="126.6"
   x="162.60001" />
</g>
<g
   style="fill:#e0c490;fill-opacity:1"
   transform="scale(1.3310225,1.3331576)"
   id="g893">
	<rect
   style="fill:#e0c490;fill-opacity:1"
   id="rect891"
   height="9.1000004"
   width="0.5"
   class="st1"
   y="126.5"
   x="162.5" />
</g>
<g
   style="fill:#e0c490;fill-opacity:1"
   transform="scale(1.3310225,1.3331576)"
   id="g897">
	<rect
   style="fill:#e0c490;fill-opacity:1"
   id="rect895"
   height="0.2"
   width="6.9000001"
   class="st1"
   y="135.3"
   x="162.7" />
</g>
<g
   style="fill:#e0c490;fill-opacity:1"
   transform="scale(1.3310225,1.3331576)"
   id="g901">
	<rect
   style="fill:#e0c490;fill-opacity:1"
   id="rect899"
   height="0.5"
   width="7.0999999"
   class="st1"
   y="135.2"
   x="162.60001" />
</g>
<g
   style="fill:#e0c490;fill-opacity:1"
   transform="scale(1.3310225,1.3331576)"
   id="g905">
	
		<rect
   style="fill:#e0c490;fill-opacity:1"
   id="rect903"
   height="0.5"
   width="16.700001"
   class="st1"
   transform="matrix(0.8218,-0.5698,0.5698,0.8218,-66.7463,121.8317)"
   y="167.39999"
   x="153" />
</g>
<g
   style="fill:#e0c490;fill-opacity:1"
   transform="scale(1.3310225,1.3331576)"
   id="g909">
	<rect
   style="fill:#e0c490;fill-opacity:1"
   id="rect907"
   height="9.6000004"
   width="0.5"
   class="st1"
   y="162.89999"
   x="168" />
</g>
<path
   style="stroke-width:1.33209;fill:#e0c490;fill-opacity:1"
   id="path911"
   d="m 116.86378,414.612 v -19.33078 c 17.43639,-0.93321 31.54523,-14.93137 32.47695,-32.39573 h 28.08457 v -3.99947 h -28.08457 c -1.06482,-17.99763 -16.10537,-32.39573 -34.34038,-32.39573 -18.235012,0 -33.275567,14.3981 -34.340385,32.39573 H 52.974697 v 3.99947 h 27.685268 c 0.931716,17.33105 14.907453,31.3292 32.210745,32.39573 V 414.612 H 34.87279 v 29.72942 H 197.39064 V 414.612 Z M 84.653033,360.88575 c 0,-16.79778 13.57643,-30.39599 30.347317,-30.39599 16.77088,0 30.34731,13.59821 30.34731,30.39599 0,16.79779 -13.57643,30.396 -30.34731,30.396 -16.770887,0 -30.347317,-13.59821 -30.347317,-30.396 z m 108.744537,79.4562 H 38.865858 V 418.61148 H 193.39757 Z"
   class="st1" />
<g
   style="fill:#e0c490;fill-opacity:1"
   transform="scale(1.3310225,1.3331576)"
   id="g915">
	<polygon
   style="fill:#e0c490;fill-opacity:1"
   id="polygon913"
   points="51.8,7.7 51.8,20.3 50,20.3 50,3.3 62.7,16.7 62.7,4 64.5,4 64.5,21.1 "
   class="st1" />
</g>
<g
   style="fill:#e0c490;fill-opacity:1"
   transform="scale(1.3310225,1.3331576)"
   id="g919">
	<path
   style="fill:#e0c490;fill-opacity:1"
   id="path917"
   d="M 76,7.1 C 75.8,6.7 75.4,6.2 75,5.9 74.7,5.7 74.1,5.3 73.2,5.3 c -1.6,0 -2.7,1 -2.7,2.5 0,0.6 0.2,1 0.6,1.4 0.5,0.5 1.1,0.8 1.7,1 l 1.6,0.7 c 1,0.4 1.8,0.9 2.5,1.5 0.8,0.8 1.2,1.8 1.2,3 0,3 -2.2,5 -5.2,5 -1.1,0 -2.4,-0.2 -3.5,-1.3 -0.8,-0.8 -1.3,-1.9 -1.5,-2.9 l 1.8,-0.5 c 0.1,0.9 0.5,1.6 1,2.1 0.7,0.7 1.5,0.9 2.4,0.9 2.2,0 3.3,-1.6 3.3,-3.2 0,-0.7 -0.2,-1.4 -0.8,-1.9 -0.5,-0.4 -1.1,-0.7 -2,-1.1 L 72,11.9 C 71.4,11.6 70.6,11.3 69.8,10.6 69.1,9.9 68.7,9.2 68.7,7.9 c 0,-2.5 1.9,-4.2 4.6,-4.2 1,0 1.8,0.2 2.6,0.7 0.7,0.4 1.2,1.1 1.6,1.8 z"
   class="st1" />
</g>
<g
   style="fill:#e0c490;fill-opacity:1"
   transform="scale(1.3310225,1.3331576)"
   id="g923">
	<polygon
   style="fill:#e0c490;fill-opacity:1"
   id="polygon921"
   points="88.3,4 88.3,5.7 84.4,5.7 84.4,20.3 82.6,20.3 82.6,5.7 78.6,5.7 78.6,4 "
   class="st1" />
</g>
<g
   style="fill:#e0c490;fill-opacity:1"
   transform="scale(1.3310225,1.3331576)"
   id="g927">
	<path
   style="fill:#e0c490;fill-opacity:1"
   id="path925"
   d="m 93.4,4 c 1.1,0 2.7,0.1 4,0.9 1,0.6 1.8,1.9 1.8,3.6 0,2.5 -1.6,4.3 -4.1,4.5 l 5.2,7.3 H 98 l -5,-7.1 h -0.5 v 7.1 H 90.7 V 4 Z m -0.8,7.6 h 1.1 c 2.3,0 3.6,-1.1 3.6,-3 C 97.3,7.7 97,6.8 96,6.2 95.3,5.8 94.4,5.7 93.7,5.7 h -1.1 z"
   class="st1" />
</g>
<g
   style="fill:#e0c490;fill-opacity:1"
   transform="scale(1.3310225,1.3331576)"
   id="g931">
	<path
   style="fill:#e0c490;fill-opacity:1"
   id="path929"
   d="m 104.9,14 c 0,1.4 0,2.9 1.3,4 0.7,0.6 1.8,0.9 2.7,0.9 0.9,0 2,-0.4 2.7,-0.9 1.3,-1.1 1.3,-2.6 1.3,-4 V 4 h 1.8 v 10.5 c 0,1.4 -0.1,2.7 -1,3.9 -1,1.3 -2.7,2.2 -4.8,2.2 -2.1,0 -3.8,-0.9 -4.8,-2.2 -0.9,-1.2 -1,-2.5 -1,-3.9 V 4 h 1.8 z"
   class="st1" />
</g>
<g
   style="fill:#e0c490;fill-opacity:1"
   transform="scale(1.3310225,1.3331576)"
   id="g935">
	<path
   style="fill:#e0c490;fill-opacity:1"
   id="path933"
   d="m 123,7.9 c -3.7,0 -6.4,2.8 -6.4,6.6 0,3.8 2.7,6.6 6.4,6.6 3.7,0 6.4,-2.8 6.4,-6.6 0,-3.8 -2.7,-6.6 -6.4,-6.6 m 0,11.2 c -2.2,0 -4.3,-1.6 -4.3,-4.6 0,-3 2,-4.7 4.3,-4.7 2.2,0 4.3,1.6 4.3,4.7 0,3 -2.1,4.6 -4.3,4.6"
   class="st1" />
</g>
<g
   style="fill:#e0c490;fill-opacity:1"
   transform="scale(1.3310225,1.3331576)"
   id="g939">
	<rect
   style="fill:#e0c490;fill-opacity:1"
   id="rect937"
   height="1.8"
   width="13"
   class="st1"
   y="3.9000001"
   x="116.6" />
</g>
<g
   style="fill:#e0c490;fill-opacity:1"
   transform="scale(1.3310225,1.3331576)"
   id="g943">
	<polygon
   style="fill:#e0c490;fill-opacity:1"
   id="polygon941"
   points="46.1,3.8 45.4,6.4 45.4,17.8 46.1,20.3 43.3,20.3 44,17.8 44,6.4 43.3,3.8 "
   class="st1" />
</g>
<g
   style="fill:#e0c490;fill-opacity:1"
   transform="scale(1.3310225,1.3331576)"
   id="g947">
	<polygon
   style="fill:#e0c490;fill-opacity:1"
   id="polygon945"
   points="65.1,348.6 65.1,344.9 66.9,344.9 66.9,348.6 68.7,348.6 68.7,350.3 66.9,350.3 66.9,359 65.1,359 65.1,350.3 64.1,350.3 64.1,348.6 "
   class="st1" />
</g>
<g
   style="fill:#e0c490;fill-opacity:1"
   transform="scale(1.3310225,1.3331576)"
   id="g951">
	<path
   style="fill:#e0c490;fill-opacity:1"
   id="path949"
   d="m 69.8,353.8 c 0,-3.1 2.3,-5.5 5.5,-5.5 3.2,0 5.5,2.3 5.5,5.5 0,3.1 -2.3,5.4 -5.5,5.4 -3.2,0.1 -5.5,-2.2 -5.5,-5.4 m 1.8,0 c 0,2.5 1.8,3.8 3.6,3.8 1.9,0 3.6,-1.3 3.6,-3.8 0,-2.5 -1.7,-3.9 -3.6,-3.9 -1.8,0.1 -3.6,1.4 -3.6,3.9 m 0.3,-10.6 1.8,-0.8 2.6,3.6 -1.1,0.6 z"
   class="st1" />
</g>
<g
   style="fill:#e0c490;fill-opacity:1"
   transform="scale(1.3310225,1.3331576)"
   id="g955">
	<path
   style="fill:#e0c490;fill-opacity:1"
   id="path953"
   d="m 83.5,348.6 h 1.8 v 1.2 c 0.3,-0.4 1.2,-1.4 3,-1.4 1.2,0 2.3,0.5 3,1.4 0.5,0.8 0.6,1.6 0.6,2.8 V 359 H 90 v -6.4 c 0,-0.6 0,-1.3 -0.5,-1.9 -0.3,-0.4 -0.9,-0.7 -1.7,-0.7 -0.6,0 -1.3,0.2 -1.8,0.8 -0.7,0.8 -0.7,2 -0.7,2.8 v 5.4 h -1.8 z"
   class="st1" />
</g>
<g
   style="fill:#e0c490;fill-opacity:1"
   transform="scale(1.3310225,1.3331576)"
   id="g959">
	<path
   style="fill:#e0c490;fill-opacity:1"
   id="path957"
   d="m 103.1,348.6 h 1.8 V 359 h -1.8 v -1.4 c -0.6,0.8 -1.7,1.7 -3.5,1.7 -2.6,0 -5,-1.8 -5,-5.5 0,-3.6 2.4,-5.4 5,-5.4 2,0 3.1,1.1 3.5,1.7 z m -6.7,5.2 c 0,2.2 1.2,3.9 3.4,3.9 2.2,0 3.4,-1.8 3.4,-3.9 0,-2.7 -1.8,-3.8 -3.4,-3.8 -1.8,0 -3.4,1.3 -3.4,3.8"
   class="st1" />
</g>
<g
   style="fill:#e0c490;fill-opacity:1"
   transform="scale(1.3310225,1.3331576)"
   id="g963">
	<path
   style="fill:#e0c490;fill-opacity:1"
   id="path961"
   d="m 125.6,71.4 c -0.2,-0.2 -0.5,-0.5 -0.9,-0.6 -0.4,-0.2 -0.8,-0.3 -1.2,-0.3 -1.5,0 -2.7,1.2 -2.7,2.8 0,1.8 1.5,2.7 2.7,2.7 0.4,0 0.9,-0.1 1.2,-0.3 0.4,-0.2 0.7,-0.4 0.8,-0.6 V 76 c -0.7,0.5 -1.5,0.6 -2,0.6 -2,0 -3.4,-1.5 -3.4,-3.4 0,-2 1.5,-3.5 3.5,-3.5 0.4,0 1.2,0 2,0.7 z"
   class="st1" />
</g>
<g
   style="fill:#e0c490;fill-opacity:1"
   transform="scale(1.3310225,1.3331576)"
   id="g967">
	<path
   style="fill:#e0c490;fill-opacity:1"
   id="path965"
   d="m 126.6,73.3 c 0,-2 1.5,-3.4 3.5,-3.4 1.9,0 3.5,1.5 3.5,3.4 0,2 -1.5,3.4 -3.5,3.4 -2,0.1 -3.5,-1.4 -3.5,-3.4 m 0.7,0 c 0,1.5 1.2,2.7 2.7,2.7 1.5,0 2.7,-1.2 2.7,-2.7 0,-1.5 -1.2,-2.7 -2.7,-2.7 -1.5,0 -2.7,1.2 -2.7,2.7"
   class="st1" />
</g>
<g
   style="fill:#e0c490;fill-opacity:1"
   transform="scale(1.3310225,1.3331576)"
   id="g971">
	<path
   style="fill:#e0c490;fill-opacity:1"
   id="path969"
   d="m 138.3,74.8 h -2.8 l -0.8,1.9 h -0.8 l 3.1,-7 3,7 h -0.8 z m -0.3,-0.7 -1.1,-2.7 -1.1,2.7 z"
   class="st1" />
</g>
<g
   style="fill:#e0c490;fill-opacity:1"
   transform="scale(1.3310225,1.3331576)"
   id="g975">
	<path
   style="fill:#e0c490;fill-opacity:1"
   id="path973"
   d="m 142,70 c 0.4,0 1.1,0 1.6,0.4 0.4,0.3 0.7,0.8 0.7,1.5 0,1 -0.7,1.8 -1.7,1.8 l 2.1,3 h -0.9 l -2,-2.9 h -0.2 v 2.9 h -0.7 V 70 Z m -0.4,3.1 h 0.5 c 0.9,0 1.5,-0.4 1.5,-1.2 0,-0.4 -0.1,-0.7 -0.5,-1 -0.3,-0.2 -0.6,-0.2 -1,-0.2 h -0.4 v 2.4 z"
   class="st1" />
</g>
<g
   style="fill:#e0c490;fill-opacity:1"
   transform="scale(1.3310225,1.3331576)"
   id="g979">
	<path
   style="fill:#e0c490;fill-opacity:1"
   id="path977"
   d="m 148.9,71.3 c -0.1,-0.2 -0.2,-0.4 -0.4,-0.5 -0.1,-0.1 -0.4,-0.2 -0.8,-0.2 -0.7,0 -1.1,0.4 -1.1,1 0,0.3 0.1,0.4 0.2,0.6 0.2,0.2 0.4,0.3 0.7,0.4 l 0.6,0.3 c 0.4,0.2 0.8,0.4 1,0.6 0.3,0.3 0.5,0.7 0.5,1.2 0,1.2 -0.9,2 -2.1,2 -0.4,0 -1,-0.1 -1.4,-0.5 -0.3,-0.3 -0.5,-0.8 -0.6,-1.2 l 0.7,-0.2 c 0.1,0.4 0.2,0.7 0.4,0.8 0.3,0.3 0.6,0.4 1,0.4 0.9,0 1.3,-0.6 1.3,-1.3 0,-0.3 -0.1,-0.6 -0.3,-0.8 -0.2,-0.2 -0.5,-0.3 -0.8,-0.5 l -0.6,-0.3 c -0.3,-0.1 -0.6,-0.3 -0.9,-0.5 -0.3,-0.3 -0.5,-0.6 -0.5,-1.1 0,-1 0.8,-1.7 1.9,-1.7 0.4,0 0.7,0.1 1.1,0.3 0.3,0.2 0.5,0.4 0.7,0.7 z"
   class="st1" />
</g>
<g
   style="fill:#e0c490;fill-opacity:1"
   transform="scale(1.3310225,1.3331576)"
   id="g983">
	<polygon
   style="fill:#e0c490;fill-opacity:1"
   id="polygon981"
   points="151.8,75.9 154.5,75.9 154.5,76.6 151.1,76.6 151.1,70 154.5,70 154.5,70.7 151.8,70.7 151.8,72.7 154.5,72.7 154.5,73.4 151.8,73.4 "
   class="st1" />
</g>
<g
   style="fill:#e0c490;fill-opacity:1"
   transform="scale(1.3310225,1.3331576)"
   id="g987">
	<polygon
   style="fill:#e0c490;fill-opacity:1"
   id="polygon985"
   points="3.6,128.8 4.7,128.8 4.7,134.8 5.5,134.8 5.5,128.1 4,128.1 "
   class="st1" />
</g>
<g
   style="fill:#e0c490;fill-opacity:1"
   transform="scale(1.3310225,1.3331576)"
   id="g991">
	<polygon
   style="fill:#e0c490;fill-opacity:1"
   id="polygon989"
   points="10.5,133.2 8.6,128.1 7.8,128.1 10.5,135.2 13.2,128.1 12.4,128.1 "
   class="st1" />
</g>
<g
   style="fill:#e0c490;fill-opacity:1"
   transform="scale(1.3310225,1.3331576)"
   id="g995">
	<polygon
   style="fill:#e0c490;fill-opacity:1"
   id="polygon993"
   points="19,127.5 18.4,127.2 13.3,136.5 13.9,136.8 "
   class="st1" />
</g>
<g
   style="fill:#e0c490;fill-opacity:1"
   transform="scale(1.3310225,1.3331576)"
   id="g999">
	<path
   style="fill:#e0c490;fill-opacity:1"
   id="path997"
   d="m 23.2,128 c -1.9,0 -3.5,1.5 -3.5,3.4 0,2 1.5,3.4 3.5,3.4 2,0 3.5,-1.5 3.5,-3.4 0,-1.9 -1.6,-3.4 -3.5,-3.4 m 0,6.2 c -1.5,0 -2.7,-1.2 -2.7,-2.7 0,-1.5 1.2,-2.7 2.7,-2.7 1.5,0 2.7,1.2 2.7,2.7 0,1.5 -1.2,2.7 -2.7,2.7"
   class="st1" />
</g>
<g
   style="fill:#e0c490;fill-opacity:1"
   transform="scale(1.3310225,1.3331576)"
   id="g1003">
	<path
   style="fill:#e0c490;fill-opacity:1"
   id="path1001"
   d="m 27.7,131.5 c 0,1.9 1.5,3.4 3.4,3.4 0.5,0 1.3,-0.1 2,-0.6 v -0.9 c -0.1,0.1 -0.4,0.4 -0.8,0.6 -0.3,0.2 -0.8,0.3 -1.2,0.3 -1.2,0 -2.7,-0.9 -2.7,-2.7 0,-1.5 1.1,-2.8 2.7,-2.8 0.4,0 0.8,0.1 1.1,0.3 0.3,0.2 0.7,0.4 0.9,0.6 v -0.9 c -0.8,-0.6 -1.6,-0.7 -2,-0.7 -1.9,-0.1 -3.4,1.4 -3.4,3.4"
   class="st1" />
</g>
<g
   style="fill:#e0c490;fill-opacity:1"
   transform="scale(1.3310225,1.3331576)"
   id="g1007">
	<polygon
   style="fill:#e0c490;fill-opacity:1"
   id="polygon1005"
   points="37.7,128.8 37.7,128.1 33.8,128.1 33.8,128.8 35.4,128.8 35.4,134.8 36.1,134.8 36.1,128.8 "
   class="st1" />
</g>
<g
   style="fill:#e0c490;fill-opacity:1"
   transform="scale(1.3310225,1.3331576)"
   id="g1011">
	<path
   style="fill:#e0c490;fill-opacity:1"
   id="path1009"
   d="m 7.2,251.8 c -0.1,-0.2 -0.2,-0.4 -0.4,-0.5 -0.1,-0.1 -0.4,-0.2 -0.7,-0.2 -0.7,0 -1.1,0.4 -1.1,1 0,0.3 0.1,0.4 0.2,0.6 0.2,0.2 0.5,0.3 0.7,0.4 l 0.6,0.3 c 0.4,0.2 0.7,0.4 1,0.6 0.3,0.3 0.5,0.7 0.5,1.2 0,1.2 -0.9,2 -2.1,2 -0.4,0 -1,-0.1 -1.4,-0.5 -0.3,-0.3 -0.5,-0.8 -0.6,-1.2 l 0.7,-0.2 c 0.1,0.3 0.2,0.6 0.4,0.8 0.3,0.3 0.6,0.4 1,0.4 0.9,0 1.3,-0.6 1.3,-1.3 0,-0.3 -0.1,-0.6 -0.3,-0.8 -0.2,-0.2 -0.5,-0.3 -0.8,-0.5 L 5.6,253.6 C 5.3,253.5 5,253.3 4.7,253.1 4.4,252.8 4.2,252.5 4.2,252 c 0,-1 0.8,-1.7 1.9,-1.7 0.4,0 0.7,0.1 1.1,0.3 0.3,0.2 0.5,0.4 0.7,0.7 z"
   class="st1" />
</g>
<g
   style="fill:#e0c490;fill-opacity:1"
   transform="scale(1.3310225,1.3331576)"
   id="g1015">
	<polygon
   style="fill:#e0c490;fill-opacity:1"
   id="polygon1013"
   points="11.2,254.3 11.2,257.1 10.5,257.1 10.5,254.3 8.3,250.5 9.2,250.5 10.9,253.5 12.6,250.5 13.5,250.5 "
   class="st1" />
</g>
<g
   style="fill:#e0c490;fill-opacity:1"
   transform="scale(1.3310225,1.3331576)"
   id="g1019">
	<polygon
   style="fill:#e0c490;fill-opacity:1"
   id="polygon1017"
   points="15.1,252 15.1,257.1 14.4,257.1 14.4,250.2 19.6,255.6 19.6,250.5 20.3,250.5 20.3,257.4 "
   class="st1" />
</g>
<g
   style="fill:#e0c490;fill-opacity:1"
   transform="scale(1.3310225,1.3331576)"
   id="g1023">
	<path
   style="fill:#e0c490;fill-opacity:1"
   id="path1021"
   d="m 27.2,251.9 c -0.2,-0.2 -0.5,-0.5 -0.9,-0.6 -0.4,-0.2 -0.8,-0.3 -1.1,-0.3 -1.5,0 -2.7,1.2 -2.7,2.8 0,1.8 1.5,2.7 2.7,2.7 0.5,0 0.9,-0.1 1.2,-0.3 0.4,-0.2 0.6,-0.4 0.8,-0.6 v 0.9 c -0.7,0.5 -1.5,0.6 -2,0.6 -2,0 -3.4,-1.5 -3.4,-3.4 0,-2 1.5,-3.5 3.5,-3.5 0.4,0 1.2,0 2,0.7 v 1 z"
   class="st1" />
</g>
<g
   style="fill:#e0c490;fill-opacity:1"
   transform="scale(1.3310225,1.3331576)"
   id="g1027">
	<polygon
   style="fill:#e0c490;fill-opacity:1"
   id="polygon1025"
   points="105.4,132.6 104.6,132.6 104.6,125.9 107.7,125.9 107.7,126.6 105.4,126.6 105.4,128.6 107.6,128.6 107.6,129.3 105.4,129.3 "
   class="st1" />
</g>
<g
   style="fill:#e0c490;fill-opacity:1"
   transform="scale(1.3310225,1.3331576)"
   id="g1031">
	<rect
   style="fill:#e0c490;fill-opacity:1"
   id="rect1029"
   height="6.6999998"
   width="0.69999999"
   class="st1"
   y="125.9"
   x="109" />
</g>
<g
   style="fill:#e0c490;fill-opacity:1"
   transform="scale(1.3310225,1.3331576)"
   id="g1035">
	<polygon
   style="fill:#e0c490;fill-opacity:1"
   id="polygon1033"
   points="112.2,127.5 112.2,132.6 111.4,132.6 111.4,125.7 116.6,131.1 116.6,125.9 117.4,125.9 117.4,132.9 "
   class="st1" />
</g>
<g
   style="fill:#e0c490;fill-opacity:1"
   transform="scale(1.3310225,1.3331576)"
   id="g1039">
	<polygon
   style="fill:#e0c490;fill-opacity:1"
   id="polygon1037"
   points="119.8,131.9 122.6,131.9 122.6,132.6 119.1,132.6 119.1,125.9 122.6,125.9 122.6,126.6 119.8,126.6 119.8,128.6 122.5,128.6 122.5,129.3 119.8,129.3 "
   class="st1" />
</g>
<g
   style="fill:#e0c490;fill-opacity:1"
   transform="scale(1.3310225,1.3331576)"
   id="g1043">
	<polygon
   style="fill:#e0c490;fill-opacity:1"
   id="polygon1041"
   points="117.5,205.2 117.5,211.2 119.3,211.2 119.3,211.9 116.7,211.9 116.7,205.2 "
   class="st1" />
</g>
<g
   style="fill:#e0c490;fill-opacity:1"
   transform="scale(1.3310225,1.3331576)"
   id="g1047">
	<rect
   style="fill:#e0c490;fill-opacity:1"
   id="rect1045"
   height="6.6999998"
   width="0.69999999"
   class="st1"
   y="205.2"
   x="120.3" />
</g>
<g
   style="fill:#e0c490;fill-opacity:1"
   transform="scale(1.3310225,1.3331576)"
   id="g1051">
	<polygon
   style="fill:#e0c490;fill-opacity:1"
   id="polygon1049"
   points="123.5,206.8 123.5,211.9 122.8,211.9 122.8,205 128,210.4 128,205.2 128.7,205.2 128.7,212.2 "
   class="st1" />
</g>
<g
   style="fill:#e0c490;fill-opacity:1"
   transform="scale(1.3310225,1.3331576)"
   id="g1055">
	<polygon
   style="fill:#e0c490;fill-opacity:1"
   id="polygon1053"
   points="117.8,223.9 117.1,223.9 117.1,217.2 120.1,217.2 120.1,217.9 117.8,217.9 117.8,219.9 120,219.9 120,220.6 117.8,220.6 "
   class="st1" />
</g>
<g
   style="fill:#e0c490;fill-opacity:1"
   transform="scale(1.3310225,1.3331576)"
   id="g1059">
	<polygon
   style="fill:#e0c490;fill-opacity:1"
   id="polygon1057"
   points="127.1,219.3 124.9,224.2 122.6,219.3 122,223.9 121.2,223.9 122.3,216.9 124.9,222.5 127.5,216.9 128.5,223.9 127.8,223.9 "
   class="st1" />
</g>
<g
   style="fill:#e0c490;fill-opacity:1"
   transform="scale(1.3310225,1.3331576)"
   id="g1063">
	<path
   style="fill:#e0c490;fill-opacity:1"
   id="path1061"
   d="m 45.4,286.4 c -0.2,-0.2 -0.5,-0.5 -0.9,-0.6 -0.3,-0.2 -0.8,-0.3 -1.1,-0.3 -1.5,0 -2.7,1.2 -2.7,2.8 0,1.8 1.5,2.7 2.7,2.7 0.4,0 0.9,-0.1 1.2,-0.3 0.4,-0.2 0.6,-0.4 0.8,-0.6 v 0.9 c -0.7,0.5 -1.5,0.6 -2,0.6 -2,0 -3.4,-1.5 -3.4,-3.4 0,-2 1.5,-3.5 3.5,-3.5 0.4,0 1.2,0 2,0.7 v 1 z"
   class="st1" />
</g>
<g
   style="fill:#e0c490;fill-opacity:1"
   transform="scale(1.3310225,1.3331576)"
   id="g1067">
	<polygon
   style="fill:#e0c490;fill-opacity:1"
   id="polygon1065"
   points="46.8,284.9 48.7,290 50.5,284.9 51.4,284.9 48.7,292 46,284.9 "
   class="st1" />
</g>
<g
   style="fill:#e0c490;fill-opacity:1"
   transform="scale(1.3310225,1.3331576)"
   id="g1071">
	<polygon
   style="fill:#e0c490;fill-opacity:1"
   id="polygon1069"
   points="98.8,306.6 97.1,302 95.4,306.6 92.6,299.8 93.7,299.8 95.4,304.1 97.1,299.4 98.8,304.1 100.6,299.8 101.7,299.8 "
   class="st1" />
</g>
<g
   style="fill:#e0c490;fill-opacity:1"
   transform="scale(1.3310225,1.3331576)"
   id="g1075">
	<path
   style="fill:#e0c490;fill-opacity:1"
   id="path1073"
   d="m 105.7,304.6 h -2.8 l -0.7,1.6 h -1 l 3.2,-6.9 3.1,6.9 h -1.1 z m -0.4,-0.9 -1,-2.2 -1,2.2 z"
   class="st1" />
</g>
<g
   style="fill:#e0c490;fill-opacity:1"
   transform="scale(1.3310225,1.3331576)"
   id="g1079">
	<polygon
   style="fill:#e0c490;fill-opacity:1"
   id="polygon1077"
   points="108.1,299.8 109.8,304.2 111.7,299.8 112.7,299.8 109.8,306.7 107,299.8 "
   class="st1" />
</g>
<g
   style="fill:#e0c490;fill-opacity:1"
   transform="scale(1.3310225,1.3331576)"
   id="g1083">
	<polygon
   style="fill:#e0c490;fill-opacity:1"
   id="polygon1081"
   points="114.5,305.3 117.1,305.3 117.1,306.2 113.5,306.2 113.5,299.8 117.1,299.8 117.1,300.7 114.5,300.7 114.5,302.2 117,302.2 117,303.1 114.5,303.1 "
   class="st1" />
</g>
<g
   style="fill:#e0c490;fill-opacity:1"
   transform="scale(1.3310225,1.3331576)"
   id="g1087">
	<polygon
   style="fill:#e0c490;fill-opacity:1"
   id="polygon1085"
   points="119.3,306.2 118.4,306.2 118.4,299.8 121.6,299.8 121.6,300.7 119.3,300.7 119.3,302.2 121.5,302.2 121.5,303.1 119.3,303.1 "
   class="st1" />
</g>
<g
   style="fill:#e0c490;fill-opacity:1"
   transform="scale(1.3310225,1.3331576)"
   id="g1091">
	<path
   style="fill:#e0c490;fill-opacity:1"
   id="path1089"
   d="m 122.4,302.9 c 0,-0.9 0.3,-1.7 1,-2.3 0.7,-0.7 1.5,-1 2.4,-1 0.9,0 1.7,0.3 2.4,1 0.7,0.7 1,1.4 1,2.4 0,0.9 -0.3,1.7 -1,2.4 -0.7,0.6 -1.5,1 -2.4,1 -0.8,0 -1.6,-0.3 -2.2,-0.9 -0.8,-0.7 -1.2,-1.5 -1.2,-2.6 m 1,0.1 c 0,0.7 0.2,1.3 0.7,1.8 0.5,0.5 1,0.7 1.6,0.7 0.7,0 1.2,-0.2 1.7,-0.7 0.5,-0.5 0.7,-1 0.7,-1.7 0,-0.7 -0.2,-1.3 -0.7,-1.7 -0.5,-0.5 -1,-0.7 -1.7,-0.7 -0.7,0 -1.2,0.2 -1.7,0.7 -0.4,0.3 -0.6,0.9 -0.6,1.6"
   class="st1" />
</g>
<g
   style="fill:#e0c490;fill-opacity:1"
   transform="scale(1.3310225,1.3331576)"
   id="g1095">
	<polygon
   style="fill:#e0c490;fill-opacity:1"
   id="polygon1093"
   points="131.3,299.8 131.3,305.3 133.2,305.3 133.2,306.2 130.4,306.2 130.4,299.8 "
   class="st1" />
</g>
<g
   style="fill:#e0c490;fill-opacity:1"
   transform="scale(1.3310225,1.3331576)"
   id="g1099">
	<path
   style="fill:#e0c490;fill-opacity:1"
   id="path1097"
   d="m 134.1,306.2 v -6.4 h 1.4 c 0.6,0 1.2,0.1 1.5,0.2 0.4,0.1 0.8,0.3 1.1,0.6 0.7,0.6 1,1.4 1,2.4 0,1 -0.3,1.8 -1,2.4 -0.3,0.3 -0.7,0.5 -1.1,0.6 -0.4,0.1 -0.9,0.2 -1.5,0.2 z m 1,-0.9 h 0.4 c 0.4,0 0.8,0 1.1,-0.1 0.3,-0.1 0.6,-0.3 0.8,-0.5 0.5,-0.4 0.7,-1 0.7,-1.7 0,-0.7 -0.2,-1.3 -0.7,-1.7 -0.4,-0.4 -1.1,-0.6 -1.9,-0.6 h -0.4 z"
   class="st1" />
</g>
<g
   style="fill:#e0c490;fill-opacity:1"
   transform="scale(1.3310225,1.3331576)"
   id="g1103">
	<path
   style="fill:#e0c490;fill-opacity:1"
   id="path1101"
   d="m 149.1,289.2 c 0,-2 1.5,-3.4 3.5,-3.4 2,0 3.5,1.5 3.5,3.4 0,2 -1.5,3.4 -3.5,3.4 -2,0 -3.5,-1.4 -3.5,-3.4 m 0.8,0 c 0,1.5 1.2,2.7 2.7,2.7 1.5,0 2.7,-1.2 2.7,-2.7 0,-1.5 -1.2,-2.7 -2.7,-2.7 -1.5,0 -2.7,1.2 -2.7,2.7"
   class="st1" />
</g>
<g
   style="fill:#e0c490;fill-opacity:1"
   transform="scale(1.3310225,1.3331576)"
   id="g1107">
	<path
   style="fill:#e0c490;fill-opacity:1"
   id="path1105"
   d="m 158.1,289.9 c 0,0.6 0,1.2 0.5,1.6 0.3,0.2 0.7,0.4 1.1,0.4 0.4,0 0.8,-0.1 1.1,-0.4 0.5,-0.4 0.5,-1.1 0.5,-1.6 v -4.1 h 0.7 v 4.3 c 0,0.6 -0.1,1.1 -0.4,1.6 -0.4,0.6 -1.1,0.9 -1.9,0.9 -0.9,0 -1.6,-0.3 -1.9,-0.9 -0.4,-0.5 -0.4,-1 -0.4,-1.6 v -4.3 h 0.7 z"
   class="st1" />
</g>
<g
   style="fill:#e0c490;fill-opacity:1"
   transform="scale(1.3310225,1.3331576)"
   id="g1111">
	<polygon
   style="fill:#e0c490;fill-opacity:1"
   id="polygon1109"
   points="167.1,285.9 167.1,286.6 165.5,286.6 165.5,292.5 164.8,292.5 164.8,286.6 163.1,286.6 163.1,285.9 "
   class="st1" />
</g>
<g
   style="fill:#e0c490;fill-opacity:1"
   transform="scale(1.3310225,1.3331576)"
   id="g1115">
	<rect
   style="fill:#e0c490;fill-opacity:1"
   x="0"
   id="rect1113"
   height="3"
   width="57.799999"
   class="st1"
   y="344" />
</g>
<g
   style="fill:#e0c490;fill-opacity:1"
   transform="scale(1.3310225,1.3331576)"
   id="g1119">
	<rect
   style="fill:#e0c490;fill-opacity:1"
   id="rect1117"
   height="3"
   width="60.400002"
   class="st1"
   y="344"
   x="112.7" />
</g>
<path
   style="stroke-width:1.33209;fill:#e0c490;fill-opacity:1"
   id="path1121"
   d="m 115.13345,249.5671 c -14.37504,0 -26.620452,8.79884 -31.81144,21.33052 l -41.661005,-14.53142 -1.331022,3.73284 41.661005,14.53142 c -0.798614,2.93295 -1.331023,5.99921 -1.331023,9.3321 0,18.93084 15.439862,34.39547 34.340385,34.39547 18.90052,0 34.34038,-15.46463 34.34038,-34.39547 0,-18.93083 -15.30676,-34.39546 -34.20728,-34.39546 z m 0,64.92477 c -16.770885,0 -30.347315,-13.59821 -30.347315,-30.39599 0,-16.79779 13.57643,-30.39599 30.347315,-30.39599 16.77088,0 30.34731,13.5982 30.34731,30.39599 0,16.79778 -13.57643,30.39599 -30.34731,30.39599 z"
   class="st1" />
</svg>
