<?xml version="1.0" encoding="UTF-8" standalone="no"?>
<svg
   xmlns:dc="http://purl.org/dc/elements/1.1/"
   xmlns:cc="http://creativecommons.org/ns#"
   xmlns:rdf="http://www.w3.org/1999/02/22-rdf-syntax-ns#"
   xmlns:svg="http://www.w3.org/2000/svg"
   xmlns="http://www.w3.org/2000/svg"
   xmlns:sodipodi="http://sodipodi.sourceforge.net/DTD/sodipodi-0.dtd"
   xmlns:inkscape="http://www.inkscape.org/namespaces/inkscape"
   inkscape:version="1.0 (4035a4f, 2020-05-01)"
   sodipodi:docname="2f_2.svg"
   id="svg542"
   version="1.1"
   viewBox="0 0 10.160001 128.5"
   height="128.5mm"
   width="10.160001mm">
  <defs
     id="defs536" />
  <sodipodi:namedview
     inkscape:window-maximized="0"
     inkscape:window-y="23"
     inkscape:window-x="667"
     inkscape:window-height="855"
     inkscape:window-width="808"
     showgrid="false"
     inkscape:document-rotation="0"
     inkscape:current-layer="layer1"
     inkscape:document-units="mm"
     inkscape:cy="201.76457"
     inkscape:cx="87.785722"
     inkscape:zoom="1.52"
     inkscape:pageshadow="2"
     inkscape:pageopacity="0.0"
     borderopacity="1.0"
     bordercolor="#666666"
     pagecolor="#ffffff"
     id="base" />
  <metadata
     id="metadata539">
    <rdf:RDF>
      <cc:Work
         rdf:about="">
        <dc:format>image/svg+xml</dc:format>
        <dc:type
           rdf:resource="http://purl.org/dc/dcmitype/StillImage" />
      </cc:Work>
    </rdf:RDF>
  </metadata>
  <g
     transform="translate(-100.75333,-83.916664)"
     id="layer1"
     inkscape:groupmode="layer"
     inkscape:label="Layer 1">
    <rect
       class="st0"
       width="10.160001"
       height="128.5"
       id="rect3141"
       x="100.75333"
       y="83.916664"
       style="fill:#101010;fill-opacity:1;stroke-width:0.352803" />
    <polygon
       class="st1"
       points="22,12.8 23.3,10.6 23.8,10.9 22.4,13.4 "
       id="polygon3165"
       style="fill:#e0c490;fill-opacity:1"
       transform="matrix(0.35277777,0,0,0.35282809,-50.857781,20.955686)" />
    <g
       id="g3147"
       style="fill:#e0c490;fill-opacity:1"
       transform="matrix(0.35277777,0,0,0.35282809,100.80781,83.919485)">
      <rect
         y="344"
         class="st1"
         width="18.1"
         height="3"
         id="rect3145"
         x="0"
         style="fill:#e0c490;fill-opacity:1" />
    </g>
    <path
       class="st1"
       d="m 108.07503,154.37923 h -4.37444 v -30.87246 h 4.33916 v 30.87246 z m 0.45861,1.05849 h 0.59973 v -32.98943 h -6.49112 v 32.98943 h 0.98778 z"
       id="path3149"
       style="fill:#e0c490;fill-opacity:1;stroke-width:0.352803" />
    <path
       class="st1"
       d="m 108.07503,192.16713 h -4.37444 v -30.87246 h 4.33916 v 30.87246 z m 0.45861,1.05848 h 0.59973 v -32.98943 h -6.49112 v 32.98943 h 0.98778 z"
       id="path3151"
       style="fill:#e0c490;fill-opacity:1;stroke-width:0.352803" />
    <polygon
       class="st1"
       points="16.3,2.9 25.5,2.9 20.9,10.8 "
       id="polygon3153"
       style="fill:#e0c490;fill-opacity:1"
       transform="matrix(0.35277777,0,0,0.35282809,100.80781,83.919485)" />
    <polygon
       class="st1"
       points="27,2.9 21.7,12.1 21.6,12.1 21.3,11.5 26.3,2.9 "
       id="polygon3155"
       style="fill:#e0c490;fill-opacity:1"
       transform="matrix(0.35277777,0,0,0.35282809,100.80781,83.919485)" />
    <polygon
       class="st1"
       points="21.3,11.5 20,13.7 19.4,13.4 20.9,10.8 "
       id="polygon3157"
       style="fill:#e0c490;fill-opacity:1"
       transform="matrix(0.35277777,0,0,0.35282809,100.80781,83.919485)" />
    <polygon
       class="st1"
       points="26.3,2.9 25.5,2.9 26.2,1.6 27,1.6 "
       id="polygon3159"
       style="fill:#e0c490;fill-opacity:1"
       transform="matrix(0.35277777,0,0,0.35282809,100.80781,83.919485)" />
    <polygon
       class="st1"
       points="27,21.4 17.8,21.4 22.4,13.4 "
       id="polygon3161"
       style="fill:#e0c490;fill-opacity:1"
       transform="matrix(0.35277777,0,0,0.35282809,100.80781,83.919485)" />
    <polygon
       class="st1"
       points="16.3,21.4 21.6,12.2 21.7,12.2 22,12.8 17,21.4 "
       id="polygon3163"
       style="fill:#e0c490;fill-opacity:1"
       transform="matrix(0.35277777,0,0,0.35282809,100.80781,83.919485)" />
    <polygon
       class="st1"
       points="22,12.8 23.3,10.6 23.8,10.9 22.4,13.4 "
       id="polygon3165-3"
       style="fill:#e0c490;fill-opacity:1"
       transform="matrix(0.35277777,0,0,0.35282809,100.80781,83.919485)" />
    <polygon
       class="st1"
       points="17.1,22.7 16.3,22.7 17,21.4 17.8,21.4 "
       id="polygon3167"
       style="fill:#e0c490;fill-opacity:1"
       transform="matrix(0.35277777,0,0,0.35282809,100.80781,83.919485)" />
    <g
       id="g3175"
       style="fill:#e0c490;fill-opacity:1"
       transform="matrix(0.35277777,0,0,0.35282809,100.80781,83.919485)">
      <path
         class="st1"
         d="m 11.8,337.5 v 4.8 h 0.6 v 0.4 h -1 V 337 h 1 v 0.4 h -0.6 z"
         id="path3169"
         style="fill:#e0c490;fill-opacity:1" />
      <path
         class="st1"
         d="m 12.9,341.6 1.5,-1.7 c 0.1,-0.1 0.4,-0.5 0.5,-0.6 0.2,-0.3 0.2,-0.5 0.2,-0.6 0,-0.5 -0.3,-0.8 -0.8,-0.8 -0.3,0 -0.5,0.1 -0.7,0.4 -0.1,0.1 -0.1,0.3 -0.1,0.5 H 13 c 0,-0.4 0.1,-0.7 0.3,-0.9 0.2,-0.2 0.5,-0.4 1,-0.4 0.7,0 1.3,0.5 1.3,1.2 0,0.3 -0.1,0.5 -0.3,0.9 -0.2,0.2 -0.4,0.5 -0.6,0.7 l -0.9,1 h 1.7 v 0.4 h -2.6 z"
         id="path3171"
         style="fill:#e0c490;fill-opacity:1" />
      <path
         class="st1"
         d="m 17,342.2 v -4.8 H 16.4 V 337 h 1 v 5.6 h -1 v -0.4 z"
         id="path3173"
         style="fill:#e0c490;fill-opacity:1" />
    </g>
    <g
       id="g3179"
       style="fill:#e0c490;fill-opacity:1"
       transform="matrix(0.35277777,0,0,0.35282809,100.80781,83.919485)">
      <path
         class="st1"
         d="m 23.5,348.5 v 8.2 h -1.7 v -8.2 H 20.9 V 347 h 0.9 v -4.2 c 0,-0.9 0.1,-2 0.9,-2.7 0.5,-0.4 1.2,-0.6 1.9,-0.6 0.6,0 1,0.1 1.2,0.2 v 1.6 c -0.4,-0.1 -0.7,-0.2 -1.1,-0.2 -0.4,0 -0.8,0.1 -1.1,0.5 -0.2,0.3 -0.2,0.9 -0.2,1.4 v 4 h 2.4 v 1.5 z"
         id="path3177"
         style="fill:#e0c490;fill-opacity:1" />
    </g>
    <g
       id="g3183"
       style="fill:#e0c490;fill-opacity:1"
       transform="matrix(0.35277777,0,0,0.35282809,100.80781,83.919485)">
      <path
         class="st1"
         d="m 14.3,100.7 h -0.9 l 0.3,-0.6 h 1.2 v 5.3 h -0.6 z"
         id="path3181"
         style="fill:#e0c490;fill-opacity:1" />
    </g>
    <g
       id="g3187"
       style="fill:#e0c490;fill-opacity:1"
       transform="matrix(0.35277777,0,0,0.35282809,100.80781,83.919485)">
      <path
         class="st1"
         d="M 3.5,25.6 H 2.6 L 3,25 h 1.2 v 5.3 H 3.5 Z"
         id="path3185"
         style="fill:#e0c490;fill-opacity:1" />
    </g>
    <g
       id="g3191"
       style="fill:#e0c490;fill-opacity:1"
       transform="matrix(0.35277777,0,0,0.35282809,100.80781,83.919485)">
      <path
         class="st1"
         d="m 12.5,213.3 1.9,-2.2 c 0.1,-0.2 0.5,-0.6 0.6,-0.8 0.2,-0.3 0.3,-0.6 0.3,-0.8 0,-0.6 -0.4,-1 -1.1,-1 -0.4,0 -0.7,0.2 -0.9,0.5 -0.1,0.2 -0.2,0.4 -0.2,0.6 h -0.6 c 0,-0.5 0.2,-0.9 0.4,-1.1 0.2,-0.3 0.6,-0.5 1.3,-0.5 0.9,0 1.6,0.7 1.6,1.6 0,0.4 -0.1,0.7 -0.4,1.1 -0.2,0.3 -0.5,0.6 -0.7,0.9 l -1.1,1.3 H 16 v 0.5 h -3.5 z"
         id="path3189"
         style="fill:#e0c490;fill-opacity:1" />
    </g>
    <g
       id="g3195"
       style="fill:#e0c490;fill-opacity:1"
       transform="matrix(0.35277777,0,0,0.35282809,100.80781,83.919485)">
      <path
         class="st1"
         d="m 1.8,66.7 1.9,-2.2 c 0.1,-0.2 0.5,-0.6 0.6,-0.8 0.2,-0.3 0.3,-0.6 0.3,-0.8 0,-0.6 -0.4,-1 -1.1,-1 -0.4,0 -0.7,0.2 -0.9,0.5 C 2.5,62.6 2.4,62.8 2.4,63 H 2 c 0,-0.5 0.2,-0.9 0.4,-1.1 0.2,-0.3 0.6,-0.5 1.3,-0.5 0.9,0 1.6,0.7 1.6,1.6 0,0.4 -0.1,0.7 -0.4,1.1 C 4.7,64.4 4.4,64.7 4.2,65 L 3,66.2 h 2.3 v 0.5 z"
         id="path3193"
         style="fill:#e0c490;fill-opacity:1" />
    </g>
    <path
       class="st11"
       d="m 105.88781,196.57748 c 1.16417,0 2.08139,0.91735 2.08139,2.0464 0,1.12905 -0.91722,2.0464 -2.08139,2.0464 -1.16417,0 -2.08139,-0.91735 -2.08139,-2.0464 0,-1.12905 0.9525,-2.0464 2.08139,-2.0464 m 0,-0.17642 c -1.23472,0 -2.25778,0.98792 -2.25778,2.22282 0,1.2349 1.02306,2.22282 2.25778,2.22282 1.23472,0 2.25778,-0.98792 2.25778,-2.22282 0,-1.2349 -0.98778,-2.22282 -2.25778,-2.22282 z"
       id="path3237"
       style="fill:#cdcccc;stroke-width:0.352803" />
    <polygon
       points="18.7,325 16.6,321.3 12.2,321.3 10.1,325 12.2,328.8 16.6,328.8 "
       id="polygon3239"
       style="fill:#000000;fill-opacity:1"
       transform="matrix(0.35277777,0,0,0.35282809,100.80781,83.919485)" />
  </g>
</svg>
