<?xml version="1.0" encoding="UTF-8" standalone="no"?>
<!-- Generator: Adobe Illustrator 26.2.0, SVG Export Plug-In . SVG Version: 6.00 Build 0)  -->

<svg
   version="1.1"
   id="Layer_1"
   x="0px"
   y="0px"
   viewBox="0 0 153.6 485.66927"
   xml:space="preserve"
   sodipodi:docname="carn.svg"
   width="40.639999mm"
   height="128.5mm"
   inkscape:version="1.2.1 (9c6d41e, 2022-07-14)"
   xmlns:inkscape="http://www.inkscape.org/namespaces/inkscape"
   xmlns:sodipodi="http://sodipodi.sourceforge.net/DTD/sodipodi-0.dtd"
   xmlns="http://www.w3.org/2000/svg"
   xmlns:svg="http://www.w3.org/2000/svg"><defs
   id="defs2353" /><sodipodi:namedview
   id="namedview2351"
   pagecolor="#ffffff"
   bordercolor="#000000"
   borderopacity="0.25"
   inkscape:showpageshadow="2"
   inkscape:pageopacity="0.0"
   inkscape:pagecheckerboard="0"
   inkscape:deskcolor="#d1d1d1"
   showgrid="false"
   inkscape:zoom="91.418944"
   inkscape:cx="95.089701"
   inkscape:cy="146.46308"
   inkscape:window-width="1728"
   inkscape:window-height="1051"
   inkscape:window-x="0"
   inkscape:window-y="25"
   inkscape:window-maximized="0"
   inkscape:current-layer="g2348"
   inkscape:document-units="mm"
   inkscape:lockguides="false" />
<style
   type="text/css"
   id="style1923">
	.st0{fill:#101010;}
	.st1{fill:none;stroke:#E1C590;stroke-width:1.1;stroke-linecap:round;stroke-linejoin:round;stroke-miterlimit:10;}
	.st2{fill:#E1C590;}
	.st3{fill:#E1C490;}
	.st4{fill:#E0C590;}
	.st5{fill:#E0C490;}
</style>
<g
   id="Layer_1_00000121963956192299792240000002261701711009643415_"
   transform="scale(1.3333334,1.3331576)"
   style="fill:#101010;fill-opacity:1">
	<g
   id="g430"><rect
     class="st0"
     width="115.2"
     height="364.29999"
     id="rect1925"
     x="0"
     y="0"
     style="fill:#101010;fill-opacity:1" /></g>
</g>
<g
   id="g2348"
   transform="scale(1.3333334,1.3331576)"
   style="fill:#e0c590;fill-opacity:1">
	<g
   id="g1930"
   style="fill:#e0c590;fill-opacity:1">
		<path
   class="st1"
   d="M 76.7,71.1"
   id="path1928"
   style="fill:#e0c590;fill-opacity:1" />
	</g>
	<g
   id="g1934"
   style="fill:#e0c590;fill-opacity:1">
		<path
   class="st1"
   d="M 84.2,61.9"
   id="path1932"
   style="fill:#e0c590;fill-opacity:1" />
	</g>
	<g
   id="g1940"
   style="fill:#e0c590;fill-opacity:1">
		<path
   class="st2"
   d="m 68.7,111.7 c -3.8,0.8 -7.2,2.8 -9.6,5.9 l 0.9,0.7 c 2.4,-3.1 5.8,-5 9.5,-5.6 -0.4,-0.3 -0.6,-0.6 -0.8,-1 z"
   id="path1936"
   style="fill:#e0c590;fill-opacity:1" />
		<path
   class="st2"
   d="m 82.6,115.3 c -2.1,-1.8 -4.7,-3 -7.4,-3.6 -0.2,0.4 -0.5,0.7 -0.8,1 2.8,0.4 5.5,1.7 7.7,3.6 l 0.2,0.1 h 18.5 v -1.1 z"
   id="path1938"
   style="fill:#e0c590;fill-opacity:1" />
	</g>
	<g
   id="g1946"
   style="fill:#e0c590;fill-opacity:1">
		<path
   class="st2"
   d="m 69.5,107 c -3.7,-0.6 -7.1,-2.6 -9.5,-5.6 l -0.9,0.7 c 2.4,3.1 5.8,5.2 9.6,5.9 0.2,-0.4 0.4,-0.7 0.8,-1 z"
   id="path1942"
   style="fill:#e0c590;fill-opacity:1" />
		<path
   class="st2"
   d="m 84.1,101.4 c -2.4,3.1 -5.9,5.1 -9.7,5.7 0.3,0.3 0.6,0.6 0.8,1 3.8,-0.7 7.3,-2.8 9.8,-6 z"
   id="path1944"
   style="fill:#e0c590;fill-opacity:1" />
	</g>
	<g
   id="g1968"
   style="fill:#e0c590;fill-opacity:1">
		<g
   id="g1950"
   style="fill:#e0c590;fill-opacity:1">
			<path
   class="st3"
   d="M 41,19.5 V 4.2 l 11.4,12 V 4.8 H 54 V 20.1 L 42.6,8.1 v 11.3 c 0,0.1 -1.6,0.1 -1.6,0.1 z"
   id="path1948"
   style="fill:#e0c590;fill-opacity:1" />
		</g>
		<g
   id="g1954"
   style="fill:#e0c590;fill-opacity:1">
			<path
   class="st3"
   d="M 64.4,7.7 C 64.2,7.3 63.9,6.9 63.5,6.6 63.2,6.4 62.7,6.1 61.8,6.1 c -1.5,0 -2.5,0.9 -2.5,2.3 0,0.6 0.2,0.9 0.5,1.3 0.4,0.4 1,0.7 1.5,0.9 l 1.4,0.6 c 0.9,0.4 1.7,0.8 2.3,1.4 0.8,0.8 1.1,1.6 1.1,2.7 0,2.7 -2,4.5 -4.6,4.5 -1,0 -2.2,-0.2 -3.2,-1.2 -0.7,-0.7 -1.2,-1.7 -1.4,-2.6 l 1.6,-0.4 c 0.1,0.8 0.5,1.4 0.9,1.9 0.6,0.6 1.4,0.8 2.1,0.8 2,0 2.9,-1.4 2.9,-2.9 0,-0.7 -0.2,-1.2 -0.7,-1.7 -0.4,-0.4 -1,-0.7 -1.8,-1 l -1.3,-0.6 c -0.6,-0.3 -1.3,-0.6 -2,-1.2 -0.6,-0.6 -1,-1.3 -1,-2.4 0,-2.3 1.7,-3.8 4.1,-3.8 0.9,0 1.6,0.2 2.3,0.7 0.6,0.4 1.1,1 1.4,1.6 z"
   id="path1952"
   style="fill:#e0c590;fill-opacity:1" />
		</g>
		<g
   id="g1958"
   style="fill:#e0c590;fill-opacity:1">
			<path
   class="st3"
   d="M 71.9,6.4 V 19.5 H 70.3 V 6.4 H 66.7 V 4.8 h 8.8 v 1.5 h -3.6 z"
   id="path1956"
   style="fill:#e0c590;fill-opacity:1" />
		</g>
		<g
   id="g1962"
   style="fill:#e0c590;fill-opacity:1">
			<path
   class="st3"
   d="m 80,4.8 c 1,0 2.5,0.1 3.6,0.8 0.9,0.6 1.6,1.7 1.6,3.3 0,2.2 -1.5,3.9 -3.7,4.1 l 4.7,6.6 h -2 l -4.5,-6.4 h -0.4 v 6.4 H 77.7 V 4.8 Z m -0.7,6.8 h 1 c 2,0 3.2,-1 3.2,-2.7 C 83.5,8.1 83.3,7.3 82.3,6.7 81.6,6.3 80.9,6.3 80.2,6.3 h -1 z"
   id="path1960"
   style="fill:#e0c590;fill-opacity:1" />
		</g>
		<g
   id="g1966"
   style="fill:#e0c590;fill-opacity:1">
			<path
   class="st3"
   d="m 90.4,13.9 c 0,1.2 0,2.6 1.2,3.6 0.6,0.5 1.6,0.8 2.4,0.8 0.8,0 1.8,-0.3 2.4,-0.8 1.2,-1 1.2,-2.3 1.2,-3.6 v -9 h 1.6 v 9.4 c 0,1.2 -0.1,2.4 -0.9,3.5 -0.9,1.2 -2.4,2 -4.3,2 -1.9,0 -3.4,-0.8 -4.3,-2 -0.8,-1.1 -0.9,-2.3 -0.9,-3.5 V 4.8 h 1.6 z"
   id="path1964"
   style="fill:#e0c590;fill-opacity:1" />
		</g>
	</g>
	<g
   id="g1972"
   style="fill:#e0c590;fill-opacity:1">
		<path
   class="st3"
   d="m 106.7,8.3 c -3.3,0 -5.8,2.5 -5.8,5.9 0,3.4 2.5,5.9 5.8,5.9 3.3,0 5.8,-2.5 5.8,-5.9 0,-3.4 -2.5,-5.9 -5.8,-5.9 z m 0,10.1 c -1.9,0 -3.8,-1.4 -3.8,-4.2 0,-2.7 1.8,-4.2 3.8,-4.2 2,0 3.8,1.4 3.8,4.2 0,2.8 -1.8,4.2 -3.8,4.2 z"
   id="path1970"
   style="fill:#e0c590;fill-opacity:1" />
	</g>
	<g
   id="g1976"
   style="fill:#e0c590;fill-opacity:1">
		<rect
   x="100.9"
   y="4.8000002"
   class="st3"
   width="11.7"
   height="1.6"
   id="rect1974"
   style="fill:#e0c590;fill-opacity:1" />
	</g>
	<g
   id="g1980"
   style="fill:#e0c590;fill-opacity:1">
		<polygon
   class="st3"
   points="37.5,4.7 36.9,7 36.9,17.2 37.5,19.5 35,19.5 35.6,17.2 35.6,7 35,4.7 "
   id="polygon1978"
   style="fill:#e0c590;fill-opacity:1" />
	</g>
	<g
   id="g1986"
   style="fill:#e0c590;fill-opacity:1">
		<g
   id="g1984"
   style="fill:#e0c590;fill-opacity:1">
			<rect
   y="344.60001"
   class="st3"
   width="63.5"
   height="3"
   id="rect1982"
   x="0"
   style="fill:#e0c590;fill-opacity:1" />
		</g>
	</g>
	<g
   id="g2004"
   style="fill:#e0c590;fill-opacity:1">
		<g
   id="g1990"
   style="fill:#e0c590;fill-opacity:1">
			<path
   class="st3"
   d="m 77.3,349.4 c -0.9,-1.2 -2.2,-1.5 -3.1,-1.5 -1.9,0 -3.6,1.3 -3.6,3.7 0,2.4 1.7,3.7 3.5,3.7 1,0 2.3,-0.5 3.2,-1.6 v 2.1 c -1.1,0.8 -2.2,1 -3.2,1 -3.1,0 -5.4,-2.2 -5.4,-5.2 0,-3.1 2.3,-5.3 5.4,-5.3 1.6,0 2.6,0.6 3.1,1 z"
   id="path1988"
   style="fill:#e0c590;fill-opacity:1" />
		</g>
		<g
   id="g1994"
   style="fill:#e0c590;fill-opacity:1">
			<path
   class="st3"
   d="m 87.7,346.6 h 1.7 v 10 h -1.7 v -1.4 c -0.6,0.8 -1.7,1.7 -3.4,1.7 -2.5,0 -4.9,-1.8 -4.9,-5.3 0,-3.5 2.3,-5.2 4.9,-5.2 1.9,0 3,1.1 3.4,1.7 z m -6.5,-5.2 1.8,-0.8 2.5,3.5 -1.1,0.6 z m 0,10.2 c 0,2.1 1.2,3.8 3.3,3.8 2.1,0 3.3,-1.8 3.3,-3.7 0,-2.6 -1.8,-3.7 -3.3,-3.7 -1.7,-0.1 -3.3,1.1 -3.3,3.6 z"
   id="path1992"
   style="fill:#e0c590;fill-opacity:1" />
		</g>
		<g
   id="g1998"
   style="fill:#e0c590;fill-opacity:1">
			<path
   class="st3"
   d="m 92.8,346.6 h 1.7 v 1.1 c 0.2,-0.3 0.9,-1.3 2.3,-1.3 0.5,0 1.1,0.2 1.5,0.4 l -0.8,1.6 c -0.4,-0.3 -0.8,-0.3 -1,-0.3 -0.7,0 -1.1,0.3 -1.4,0.6 -0.3,0.4 -0.6,1.1 -0.6,2.7 v 5.3 h -1.7 c -0.1,-0.1 -0.1,-10.1 0,-10.1 z"
   id="path1996"
   style="fill:#e0c590;fill-opacity:1" />
		</g>
		<g
   id="g2002"
   style="fill:#e0c590;fill-opacity:1">
			<path
   class="st3"
   d="m 99.9,346.6 h 1.7 v 1.2 c 0.3,-0.4 1.2,-1.4 2.9,-1.4 1.2,0 2.3,0.5 2.9,1.4 0.5,0.8 0.6,1.6 0.6,2.7 v 6.2 h -1.7 v -6.1 c 0,-0.6 -0.1,-1.3 -0.5,-1.8 -0.3,-0.4 -0.9,-0.7 -1.6,-0.7 -0.6,0 -1.2,0.2 -1.8,0.8 -0.7,0.8 -0.7,2 -0.7,2.7 v 5.2 H 100 c -0.1,-0.2 -0.1,-10.2 -0.1,-10.2 z"
   id="path2000"
   style="fill:#e0c590;fill-opacity:1" />
		</g>
	</g>
	<g
   id="g2008"
   style="fill:#e0c590;fill-opacity:1">
		<path
   class="st4"
   d="M 24.8,334.2 H 4.1 v -91 h 20.7 z m -17.7,-3 h 14.7 v -85 H 7.1 Z"
   id="path2006"
   style="fill:#e0c590;fill-opacity:1" />
	</g>
	<g
   id="g2012"
   style="fill:#e0c590;fill-opacity:1">
		<path
   class="st4"
   d="M 53.5,322.2 H 32.8 v -91 h 20.7 z m -17.7,-3 h 14.7 v -85 H 35.8 Z"
   id="path2010"
   style="fill:#e0c590;fill-opacity:1" />
	</g>
	<g
   id="g2016"
   style="fill:#e0c590;fill-opacity:1">
		<path
   class="st4"
   d="M 82.3,310.2 H 61.6 v -91 h 20.7 z m -17.7,-3 h 14.7 v -85 H 64.6 Z"
   id="path2014"
   style="fill:#e0c590;fill-opacity:1" />
	</g>
	<g
   id="g2020"
   style="fill:#e0c590;fill-opacity:1">
		<path
   class="st4"
   d="M 111.2,298.2 H 90.4 v -91 h 20.7 c 0,-0.1 0,91 0.1,91 z m -17.8,-3 h 14.7 v -85 H 93.4 Z"
   id="path2018"
   style="fill:#e0c590;fill-opacity:1" />
	</g>
	<g
   id="g2024"
   style="fill:#e0c590;fill-opacity:1">
		<circle
   class="st2"
   cx="100.8"
   cy="61.900002"
   r="1.8"
   id="circle2022"
   style="fill:#e0c590;fill-opacity:1" />
	</g>
	<g
   id="g2030"
   style="fill:#e0c590;fill-opacity:1">
		<g
   id="g2028"
   style="fill:#e0c590;fill-opacity:1">
			<path
   class="st4"
   d="m 109.4,59.5 v 5.4 h 1.7 v 0.6 h -2.3 v -6 z"
   id="path2026"
   style="fill:#e0c590;fill-opacity:1" />
		</g>
	</g>
	<g
   id="g2036"
   style="fill:#e0c590;fill-opacity:1">
		<g
   id="g2034"
   style="fill:#e0c590;fill-opacity:1">
			<path
   class="st4"
   d="m 2.7,201.2 v 5.4 h 1.7 v 0.6 H 2 v -6 z"
   id="path2032"
   style="fill:#e0c590;fill-opacity:1" />
		</g>
	</g>
	<g
   id="g2042"
   style="fill:#e0c590;fill-opacity:1">
		<g
   id="g2040"
   style="fill:#e0c590;fill-opacity:1">
			<path
   class="st4"
   d="m 109.4,25.1 c 0.4,0 1,0 1.5,0.3 0.3,0.2 0.7,0.7 0.7,1.3 0,0.9 -0.6,1.6 -1.5,1.7 l 1.9,2.7 h -0.8 l -1.8,-2.6 h -0.2 v 2.6 h -0.7 v -6 z m -0.3,2.8 h 0.4 c 0.8,0 1.3,-0.4 1.3,-1.1 0,-0.3 -0.1,-0.7 -0.5,-0.9 -0.3,-0.1 -0.6,-0.2 -0.9,-0.2 H 109 Z"
   id="path2038"
   style="fill:#e0c590;fill-opacity:1" />
		</g>
	</g>
	<g
   id="g2048"
   style="fill:#e0c590;fill-opacity:1">
		<g
   id="g2046"
   style="fill:#e0c590;fill-opacity:1">
			<path
   class="st4"
   d="m 111.2,164.8 c 0.4,0 1,0 1.5,0.3 0.3,0.2 0.7,0.7 0.7,1.3 0,0.9 -0.6,1.6 -1.5,1.7 l 1.9,2.7 H 113 l -1.8,-2.6 H 111 v 2.6 h -0.7 v -6 z m -0.3,2.8 h 0.4 c 0.8,0 1.3,-0.4 1.3,-1.1 0,-0.3 -0.1,-0.7 -0.5,-0.9 -0.3,-0.1 -0.6,-0.2 -0.9,-0.2 h -0.4 z"
   id="path2044"
   style="fill:#e0c590;fill-opacity:1" />
		</g>
	</g>
	<g
   id="g2054"
   style="fill:#e0c590;fill-opacity:1">
		<g
   id="g2052"
   style="fill:#e0c590;fill-opacity:1">
			<path
   class="st4"
   d="m 61,140.8 v 6 h -0.7 v -6 z"
   id="path2050"
   style="fill:#e0c590;fill-opacity:1" />
		</g>
	</g>
	<g
   id="g2060"
   style="fill:#e0c590;fill-opacity:1">
		<g
   id="g2058"
   style="fill:#e0c590;fill-opacity:1">
			<path
   class="st4"
   d="m 50.4,159 c 0,-1.8 1.4,-3.1 3.1,-3.1 1.7,0 3.1,1.3 3.1,3.1 0,1.8 -1.4,3.1 -3.1,3.1 -1.7,0 -3.1,-1.3 -3.1,-3.1 z m 0.7,0 c 0,1.4 1.1,2.5 2.4,2.5 1.3,0 2.4,-1.1 2.4,-2.5 0,-1.4 -1.1,-2.5 -2.4,-2.5 -1.3,0 -2.4,1.2 -2.4,2.5 z"
   id="path2056"
   style="fill:#e0c590;fill-opacity:1" />
		</g>
	</g>
	<g
   id="g2064"
   style="fill:#e0c590;fill-opacity:1">
		<path
   class="st2"
   d="M 14.4,60.3 C 9.3,60.3 4.6,58 1.5,54 l 0.9,-0.7 c 2.9,3.7 7.3,5.9 12.1,5.9 4.8,0 9.1,-2.2 12.1,-5.9 l 0.9,0.7 c -3.3,4 -8,6.3 -13.1,6.3 z"
   id="path2062"
   style="fill:#e0c590;fill-opacity:1" />
	</g>
	<g
   id="g2086"
   style="fill:#e0c590;fill-opacity:1">
		<g
   id="g2068"
   style="fill:#e0c590;fill-opacity:1">
			<path
   class="st4"
   d="m 28.9,74.9 v 5.4 h 1.7 v 0.6 h -2.3 v -6 z"
   id="path2066"
   style="fill:#e0c590;fill-opacity:1" />
		</g>
		<g
   id="g2072"
   style="fill:#e0c590;fill-opacity:1">
			<path
   class="st4"
   d="M 34.5,75.6 H 32 v 1.8 h 2.4 V 78 H 32 v 2.3 h 2.5 v 0.6 h -3.1 v -6 h 3.1 z"
   id="path2070"
   style="fill:#e0c590;fill-opacity:1" />
		</g>
		<g
   id="g2076"
   style="fill:#e0c590;fill-opacity:1">
			<path
   class="st4"
   d="m 35.8,74.9 1.7,4.6 1.7,-4.6 h 0.7 L 37.5,81.3 35,74.9 Z"
   id="path2074"
   style="fill:#e0c590;fill-opacity:1" />
		</g>
		<g
   id="g2080"
   style="fill:#e0c590;fill-opacity:1">
			<path
   class="st4"
   d="m 43.9,75.6 h -2.5 v 1.8 h 2.4 V 78 h -2.4 v 2.3 h 2.5 v 0.6 h -3.1 v -6 h 3.1 z"
   id="path2078"
   style="fill:#e0c590;fill-opacity:1" />
		</g>
		<g
   id="g2084"
   style="fill:#e0c590;fill-opacity:1">
			<path
   class="st4"
   d="m 45.8,74.9 v 5.4 h 1.7 v 0.6 h -2.3 v -6 z"
   id="path2082"
   style="fill:#e0c590;fill-opacity:1" />
		</g>
	</g>
	<g
   id="g2100"
   style="fill:#e0c590;fill-opacity:1">
		<g
   id="g2090"
   style="fill:#e0c590;fill-opacity:1">
			<path
   class="st4"
   d="m 8.2,232 c 0.6,0 1.1,0.1 1.5,0.4 0.4,0.4 0.6,0.9 0.6,1.3 0,0.9 -0.5,1.7 -1.9,1.7 H 7.8 V 238 H 7.1 v -6 z m -0.4,2.8 h 0.5 c 0.8,0 1.3,-0.4 1.3,-1.1 0,-0.9 -0.9,-1 -1.3,-1 H 7.8 c 0,-0.1 0,2.1 0,2.1 z"
   id="path2088"
   style="fill:#e0c590;fill-opacity:1" />
		</g>
		<g
   id="g2094"
   style="fill:#e0c590;fill-opacity:1">
			<path
   class="st4"
   d="M 14.1,236.3 H 11.5 L 10.8,238 H 10 l 2.8,-6.3 2.7,6.3 h -0.7 z m -0.3,-0.6 -1,-2.4 -1,2.4 z"
   id="path2092"
   style="fill:#e0c590;fill-opacity:1" />
		</g>
		<g
   id="g2098"
   style="fill:#e0c590;fill-opacity:1">
			<path
   class="st4"
   d="m 16.3,238 v -6.3 l 4.7,4.9 V 232 h 0.7 v 6.3 L 17,233.4 v 4.6 z"
   id="path2096"
   style="fill:#e0c590;fill-opacity:1" />
		</g>
	</g>
	<g
   id="g2106"
   style="fill:#e0c590;fill-opacity:1">
		<g
   id="g2104"
   style="fill:#e0c590;fill-opacity:1">
			<path
   class="st4"
   d="m 76,314.9 h 1.6 v -1.5 h 0.7 v 1.5 h 1.6 v 0.6 h -1.6 v 1.5 h -0.7 v -1.5 H 76 Z"
   id="path2102"
   style="fill:#e0c590;fill-opacity:1" />
		</g>
	</g>
	<g
   id="g2112"
   style="fill:#e0c590;fill-opacity:1">
		<g
   id="g2110"
   style="fill:#e0c590;fill-opacity:1">
			<path
   class="st4"
   d="m 64,314.8 h 1.6 v -1.5 h 0.7 v 1.5 h 1.6 v 0.6 h -1.6 v 1.5 h -0.7 v -1.5 H 64 Z m 0,2.5 h 3.9 v 0.6 H 64 Z"
   id="path2108"
   style="fill:#e0c590;fill-opacity:1" />
		</g>
	</g>
	<g
   id="g2122"
   style="fill:#e0c590;fill-opacity:1">
		<g
   id="g2116"
   style="fill:#e0c590;fill-opacity:1">
			<path
   class="st4"
   d="m 14.4,22 c -0.2,-0.2 -0.5,-0.4 -0.8,-0.6 -0.3,-0.1 -0.7,-0.2 -1,-0.2 -1.4,0 -2.4,1.1 -2.4,2.5 0,1.6 1.3,2.5 2.4,2.5 0.4,0 0.8,-0.1 1.1,-0.3 0.3,-0.2 0.6,-0.4 0.7,-0.5 v 0.8 c -0.7,0.5 -1.4,0.6 -1.8,0.6 -1.8,0 -3.1,-1.4 -3.1,-3.1 0,-1.8 1.3,-3.1 3.1,-3.1 0.4,0 1.1,0 1.8,0.6 z"
   id="path2114"
   style="fill:#e0c590;fill-opacity:1" />
		</g>
		<g
   id="g2120"
   style="fill:#e0c590;fill-opacity:1">
			<path
   class="st4"
   d="m 15.6,20.7 1.7,4.6 1.7,-4.6 h 0.7 l -2.4,6.4 -2.4,-6.4 z"
   id="path2118"
   style="fill:#e0c590;fill-opacity:1" />
		</g>
	</g>
	<g
   id="g2132"
   style="fill:#e0c590;fill-opacity:1">
		<g
   id="g2126"
   style="fill:#e0c590;fill-opacity:1">
			<path
   class="st4"
   d="m 14.4,95.1 c -0.2,-0.2 -0.5,-0.4 -0.8,-0.6 -0.3,-0.1 -0.7,-0.2 -1,-0.2 -1.4,0 -2.4,1.1 -2.4,2.5 0,1.6 1.3,2.4 2.4,2.4 0.4,0 0.8,-0.1 1.1,-0.3 0.3,-0.2 0.6,-0.4 0.7,-0.5 v 0.8 c -0.7,0.5 -1.4,0.6 -1.8,0.6 -1.8,0 -3.1,-1.3 -3.1,-3.1 0,-1.8 1.3,-3.1 3.1,-3.1 0.4,0 1.1,0 1.8,0.6 z"
   id="path2124"
   style="fill:#e0c590;fill-opacity:1" />
		</g>
		<g
   id="g2130"
   style="fill:#e0c590;fill-opacity:1">
			<path
   class="st4"
   d="m 15.6,93.8 1.7,4.6 1.7,-4.6 h 0.7 l -2.4,6.4 -2.4,-6.4 z"
   id="path2128"
   style="fill:#e0c590;fill-opacity:1" />
		</g>
	</g>
	<g
   id="g2136"
   style="fill:#e0c590;fill-opacity:1">
		<path
   class="st2"
   d="m 25.5,214.9 c -1.4,-5 -5.9,-8.4 -11.1,-8.4 -5.2,0 -9.7,3.5 -11.1,8.4 l -1,-0.3 c 1.5,-5.4 6.4,-9.2 12.1,-9.2 5.6,0 10.6,3.8 12.1,9.2 z"
   id="path2134"
   style="fill:#e0c590;fill-opacity:1" />
	</g>
	<g
   id="g2140"
   style="fill:#e0c590;fill-opacity:1">
		<path
   class="st2"
   d="m 32.1,202.9 -1,-0.3 c 1.5,-5.4 6.5,-9.2 12,-9.2 5.6,0 10.6,3.8 12,9.2 l -1,0.3 c -1.4,-5 -5.9,-8.4 -11.1,-8.4 -5,0 -9.6,3.5 -10.9,8.4 z"
   id="path2138"
   style="fill:#e0c590;fill-opacity:1" />
	</g>
	<g
   id="g2144"
   style="fill:#e0c590;fill-opacity:1">
		<path
   class="st2"
   d="m 83,190.9 c -1.4,-5 -5.9,-8.4 -11.1,-8.4 -5.2,0 -9.7,3.5 -11.1,8.4 l -1,-0.3 c 1.5,-5.4 6.5,-9.2 12,-9.2 5.6,0 10.6,3.8 12.1,9.2 z"
   id="path2142"
   style="fill:#e0c590;fill-opacity:1" />
	</g>
	<g
   id="g2148"
   style="fill:#e0c590;fill-opacity:1">
		<path
   class="st2"
   d="m 111.9,178.9 c -1.4,-5 -5.9,-8.4 -11.1,-8.4 -5.2,0 -9.7,3.5 -11.1,8.4 l -1,-0.3 c 1.5,-5.4 6.4,-9.2 12.1,-9.2 5.7,0 10.6,3.8 12.1,9.2 z"
   id="path2146"
   style="fill:#e0c590;fill-opacity:1" />
	</g>
	<g
   id="g2152"
   style="fill:#e0c590;fill-opacity:1">
		<path
   class="st2"
   d="m 44.5,71.1 -0.9,-0.5 1.9,-3.3 C 38.6,63.1 34.3,55.6 34.3,47.5 c 0,-0.9 0,-1.7 0.1,-2.5 1.3,-11.8 11.2,-20.7 23.1,-20.7 12.8,0 23.2,10.4 23.2,23.2 0,0.7 0,1.3 -0.1,1.8 -0.4,4.7 -2.2,9.2 -5.2,12.9 l -0.8,-0.6 c 2.9,-3.5 4.6,-7.8 5,-12.4 0.1,-0.5 0.1,-1.1 0.1,-1.7 0,-12.2 -10,-22.2 -22.2,-22.2 -11.4,0 -20.9,8.5 -22.1,19.8 -0.1,0.7 -0.1,1.5 -0.1,2.4 0,7.9 4.2,15.3 11.1,19.2 l 0.4,0.2 z"
   id="path2150"
   style="fill:#e0c590;fill-opacity:1" />
	</g>
	<g
   id="g2156"
   style="fill:#e0c590;fill-opacity:1">
		<rect
   x="13.4"
   y="240.3"
   class="st2"
   width="2"
   height="4.3000002"
   id="rect2154"
   style="fill:#e0c590;fill-opacity:1" />
	</g>
	<g
   id="g2160"
   style="fill:#e0c590;fill-opacity:1">
		<rect
   x="13.4"
   y="225.3"
   class="st2"
   width="2"
   height="4.3000002"
   id="rect2158"
   style="fill:#e0c590;fill-opacity:1" />
	</g>
	<g
   id="g2164"
   style="fill:#e0c590;fill-opacity:1">
		<rect
   x="42.200001"
   y="217.89999"
   class="st2"
   width="2"
   height="14.7"
   id="rect2162"
   style="fill:#e0c590;fill-opacity:1" />
	</g>
	<g
   id="g2168"
   style="fill:#e0c590;fill-opacity:1">
		<rect
   x="70.900002"
   y="206.3"
   class="st2"
   width="2"
   height="14.3"
   id="rect2166"
   style="fill:#e0c590;fill-opacity:1" />
	</g>
	<g
   id="g2172"
   style="fill:#e0c590;fill-opacity:1">
		<rect
   x="99.800003"
   y="194.10001"
   class="st2"
   width="2"
   height="14.6"
   id="rect2170"
   style="fill:#e0c590;fill-opacity:1" />
	</g>
	<g
   id="g2176"
   style="fill:#e0c590;fill-opacity:1">
		<path
   class="st2"
   d="M 80.4,330.4 H 63.6 v -9.8 h 16.9 z m -15.8,-1 h 14.9 v -7.8 H 64.6 Z"
   id="path2174"
   style="fill:#e0c590;fill-opacity:1" />
	</g>
	<g
   id="g2222"
   style="fill:#e0c590;fill-opacity:1">
		<g
   id="g2192"
   style="fill:#e0c590;fill-opacity:1">
			<g
   id="g2182"
   style="fill:#e0c590;fill-opacity:1">
				<g
   id="g2180"
   style="fill:#e0c590;fill-opacity:1">
					
						<rect
   x="107.1"
   y="300.10001"
   transform="matrix(0.9997,-0.02400029,0.02400029,0.9997,-7.1801,2.6616)"
   class="st5"
   width="0.30000001"
   height="0.69999999"
   id="rect2178"
   style="fill:#e0c590;fill-opacity:1" />
				</g>
			</g>
			<g
   id="g2190"
   style="fill:#e0c590;fill-opacity:1">
				<g
   id="g2188"
   style="fill:#e0c590;fill-opacity:1">
					<g
   id="g2186"
   style="fill:#e0c590;fill-opacity:1">
						<path
   class="st5"
   d="m 106.8,300.5 -0.8,1.4 h 0.1 l 2.2,-0.9 c 0.8,-0.2 1.5,-0.4 2.2,-0.5 -0.8,-0.1 -1.5,-0.3 -2.3,-0.4 l -2.2,-0.8 v 0 z"
   id="path2184"
   style="fill:#e0c590;fill-opacity:1" />
					</g>
				</g>
			</g>
		</g>
		<g
   id="g2196"
   style="fill:#e0c590;fill-opacity:1">
			<path
   class="st5"
   d="m 101.6,303.7 -0.5,-0.5 2.4,-2.4 c 0.5,-0.5 1.1,-0.7 1.7,-0.7 h 1.9 v 0.7 h -1.9 c -0.5,0 -0.9,0.2 -1.2,0.5 z"
   id="path2194"
   style="fill:#e0c590;fill-opacity:1" />
		</g>
		<g
   id="g2200"
   style="fill:#e0c590;fill-opacity:1">
			<path
   class="st5"
   d="m 96.1,308.2 h -4.9 v -0.7 h 4.9 c 0.5,0 0.9,-0.2 1.2,-0.5 l 2.4,-2.4 0.5,0.5 -2.4,2.4 c -0.4,0.5 -1,0.7 -1.7,0.7 z"
   id="path2198"
   style="fill:#e0c590;fill-opacity:1" />
		</g>
		<g
   id="g2216"
   style="fill:#e0c590;fill-opacity:1">
			<g
   id="g2206"
   style="fill:#e0c590;fill-opacity:1">
				<g
   id="g2204"
   style="fill:#e0c590;fill-opacity:1">
					
						<rect
   x="106.9"
   y="307.70001"
   transform="matrix(0.02400029,-0.9997,0.9997,0.02400029,-203.0867,407.7585)"
   class="st5"
   width="0.69999999"
   height="0.30000001"
   id="rect2202"
   style="fill:#e0c590;fill-opacity:1" />
				</g>
			</g>
			<g
   id="g2214"
   style="fill:#e0c590;fill-opacity:1">
				<g
   id="g2212"
   style="fill:#e0c590;fill-opacity:1">
					<g
   id="g2210"
   style="fill:#e0c590;fill-opacity:1">
						<path
   class="st5"
   d="m 106.8,307.9 -0.8,-1.4 h 0.1 l 2.2,0.9 c 0.8,0.2 1.5,0.4 2.2,0.5 -0.8,0.1 -1.5,0.3 -2.3,0.4 l -2.2,0.8 v 0 z"
   id="path2208"
   style="fill:#e0c590;fill-opacity:1" />
					</g>
				</g>
			</g>
		</g>
		<g
   id="g2220"
   style="fill:#e0c590;fill-opacity:1">
			<path
   class="st5"
   d="m 107.1,308.2 h -1.9 c -0.6,0 -1.3,-0.3 -1.7,-0.7 l -6.2,-6.2 C 97,301 96.5,300.8 96.1,300.8 h -4.9 v -0.7 h 4.9 c 0.7,0 1.2,0.2 1.7,0.7 l 6.2,6.2 c 0.3,0.3 0.8,0.5 1.2,0.5 h 1.9 z"
   id="path2218"
   style="fill:#e0c590;fill-opacity:1" />
		</g>
	</g>
	<g
   id="g2226"
   style="fill:#e0c590;fill-opacity:1">
		<rect
   x="100.3"
   y="53.099998"
   class="st2"
   width="1"
   height="17.6"
   id="rect2224"
   style="fill:#e0c590;fill-opacity:1" />
	</g>
	<g
   id="g2230"
   style="fill:#e0c590;fill-opacity:1">
		<path
   class="st2"
   d="M 7.4,89.4 6.5,88.9 7.9,86.4 c -3.5,-2.2 -5.6,-6 -5.6,-10.2 0,-6.5 5.1,-11.8 11.5,-12 v -4.5 h 1 v 5.5 h -0.5 c -6.1,0 -11,4.9 -11,11 0,3.9 2.1,7.6 5.5,9.6 L 9.2,86 Z"
   id="path2228"
   style="fill:#e0c590;fill-opacity:1" />
	</g>
	<g
   id="g2234"
   style="fill:#e0c590;fill-opacity:1">
		<rect
   x="13.4"
   y="197.10001"
   class="st2"
   width="2"
   height="8.8999996"
   id="rect2232"
   style="fill:#e0c590;fill-opacity:1" />
	</g>
	<g
   id="g2238"
   style="fill:#e0c590;fill-opacity:1">
		<path
   class="st2"
   d="m 15.4,178.7 -2,-0.1 0.1,-2.6 1.9,0.1 z m 0,-5 -2,-0.1 0.1,-2.6 1.9,0.1 z m 0,-5 -2,-0.1 0.1,-2.6 1.9,0.1 z m 0,-5 -2,-0.1 0.1,-2.6 1.9,0.1 z"
   id="path2236"
   style="fill:#e0c590;fill-opacity:1" />
	</g>
	<g
   id="g2242"
   style="fill:#e0c590;fill-opacity:1">
		<path
   class="st2"
   d="m 44.2,166.7 -2,-0.1 V 164 l 2,0.1 z m 0,-5 -2,-0.1 V 159 l 2,0.1 z m 0,-5 -2,-0.1 V 154 l 2,0.1 z m 0,-5 -2,-0.1 V 149 l 2,0.1 z"
   id="path2240"
   style="fill:#e0c590;fill-opacity:1" />
	</g>
	<g
   id="g2246"
   style="fill:#e0c590;fill-opacity:1">
		<rect
   x="42.200001"
   y="185.10001"
   class="st2"
   width="2"
   height="8.8999996"
   id="rect2244"
   style="fill:#e0c590;fill-opacity:1" />
	</g>
	<g
   id="g2250"
   style="fill:#e0c590;fill-opacity:1">
		<path
   class="st2"
   d="m 72.9,154.7 -2,-0.1 0.1,-2.6 1.9,0.1 z m 0,-5 -2,-0.1 0.1,-2.6 1.9,0.1 z m 0,-5 -2,-0.1 0.1,-2.6 1.9,0.1 z m 0,-5 -2,-0.1 0.1,-2.6 1.9,0.1 z"
   id="path2248"
   style="fill:#e0c590;fill-opacity:1" />
	</g>
	<g
   id="g2254"
   style="fill:#e0c590;fill-opacity:1">
		<rect
   x="70.900002"
   y="173.10001"
   class="st2"
   width="2"
   height="8.8999996"
   id="rect2252"
   style="fill:#e0c590;fill-opacity:1" />
	</g>
	<g
   id="g2258"
   style="fill:#e0c590;fill-opacity:1">
		<rect
   x="99.800003"
   y="161.10001"
   class="st2"
   width="2"
   height="8.8999996"
   id="rect2256"
   style="fill:#e0c590;fill-opacity:1" />
	</g>
	<g
   id="g2262"
   style="fill:#e0c590;fill-opacity:1">
		<path
   class="st2"
   d="m 101.8,142.7 -2,-0.1 0.1,-2.6 1.9,0.1 z m 0,-5 -2,-0.1 0.1,-2.6 1.9,0.1 z m 0,-5 -2,-0.1 0.1,-2.6 1.9,0.1 z m 0,-5 -2,-0.1 0.1,-2.6 1.9,0.1 z"
   id="path2260"
   style="fill:#e0c590;fill-opacity:1" />
	</g>
	<g
   id="g2266"
   style="fill:#e0c590;fill-opacity:1">
		<path
   class="st2"
   d="m 14.4,132.4 c -5.1,0 -9.8,-2.3 -12.9,-6.3 l 0.9,-0.7 c 2.9,3.7 7.3,5.9 12.1,5.9 4.8,0 9.1,-2.1 12.1,-5.9 l 0.9,0.7 c -3.3,4 -8,6.3 -13.1,6.3 z"
   id="path2264"
   style="fill:#e0c590;fill-opacity:1" />
	</g>
	<g
   id="g2270"
   style="fill:#e0c590;fill-opacity:1">
		<path
   class="st2"
   d="m 43.2,120.3 c -5.1,0 -9.8,-2.3 -12.9,-6.3 l 0.9,-0.7 c 2.9,3.7 7.3,5.9 12.1,5.9 4.8,0 9.1,-2.2 12.1,-5.9 l 0.9,0.7 c -3.3,4 -8.1,6.3 -13.1,6.3 z"
   id="path2268"
   style="fill:#e0c590;fill-opacity:1" />
	</g>
	<g
   id="g2274"
   style="fill:#e0c590;fill-opacity:1">
		<path
   class="st2"
   d="M 90.3,68.6 89.9,68.2 H 89.3 V 68 l 0.2,-0.2 c 1.7,-1.6 2.6,-3.7 2.6,-6 0,-2.3 -0.9,-4.4 -2.6,-6 l -0.2,-0.2 v -0.2 h 0.4 l 0.5,-0.5 0.3,0.2 c 1.8,1.8 2.8,4.1 2.8,6.6 0,2.7 -1.1,5.2 -3,6.9 z"
   id="path2272"
   style="fill:#e0c590;fill-opacity:1" />
	</g>
	<g
   id="g2278"
   style="fill:#e0c590;fill-opacity:1">
		<path
   class="st2"
   d="m 100.8,96.3 c -9.1,0 -16.4,-7.4 -16.4,-16.4 0,-4.6 1.8,-8.8 5.2,-12 l 0.2,-0.2 H 90 v 0.6 l 0.4,0.4 c -3.1,2.9 -4.9,6.9 -4.9,11.2 0,8.5 6.9,15.3 15.3,15.3 z"
   id="path2276"
   style="fill:#e0c590;fill-opacity:1" />
	</g>
	<g
   id="g2282"
   style="fill:#e0c590;fill-opacity:1">
		<path
   class="st2"
   d="m 89.6,55.8 v 0 c -3.4,-3.2 -5.2,-7.5 -5.2,-12 0,-9.1 7.4,-16.4 16.4,-16.4 h 0.6 v 16.4 h -1.1 V 28.5 c -8.2,0.3 -14.8,7.1 -14.8,15.3 0,4.2 1.7,8.2 4.8,11.1 l 0.1,0.1 z"
   id="path2280"
   style="fill:#e0c590;fill-opacity:1" />
	</g>
	<g
   id="g2286"
   style="fill:#e0c590;fill-opacity:1">
		<path
   class="st2"
   d="m 2.3,142.4 -0.9,-0.7 c 3.1,-4 7.9,-6.3 12.9,-6.3 3.9,0 7.7,1.4 10.6,3.9 h 18.2 v 1.1 H 24.6 l -0.2,-0.1 c -2.8,-2.4 -6.4,-3.8 -10.1,-3.8 -4.6,0 -9,2.1 -12,5.9 z"
   id="path2284"
   style="fill:#e0c590;fill-opacity:1" />
	</g>
	<g
   id="g2290"
   style="fill:#e0c590;fill-opacity:1">
		<path
   class="st2"
   d="m 31.1,130.4 -0.9,-0.7 c 3.1,-4 7.9,-6.3 13,-6.3 3.9,0 7.7,1.4 10.6,3.9 h 18.1 v 1.1 H 53.4 l -0.2,-0.1 c -2.8,-2.4 -6.3,-3.8 -10,-3.8 -4.8,0 -9.2,2.2 -12.1,5.9 z"
   id="path2288"
   style="fill:#e0c590;fill-opacity:1" />
	</g>
	<g
   id="g2294"
   style="fill:#e0c590;fill-opacity:1">
		<path
   class="st2"
   d="m 88.5,106.2 -0.9,-0.7 c 3.1,-4 7.9,-6.3 12.9,-6.3 3.9,0 7.7,1.4 10.6,3.9 h 1.8 V 96.3 H 100.7 V 95.2 H 114 v 9 h -3.3 l -0.2,-0.1 c -2.8,-2.4 -6.4,-3.8 -10.1,-3.8 -4.6,0 -9,2.2 -11.9,5.9 z"
   id="path2292"
   style="fill:#e0c590;fill-opacity:1" />
	</g>
	<g
   id="g2298"
   style="fill:#e0c590;fill-opacity:1">
		<path
   class="st2"
   d="M 44.8,69.6 C 36.9,65 32,56.5 32,47.4 32,33.3 43.5,21.9 57.5,21.9 c 6.8,0 13.2,2.7 18.1,7.5 l 0.3,0.4 -2,2 -0.6,-0.8 1.3,-1.3 C 70,25.3 64,22.9 57.6,22.9 c -13.5,0 -24.5,11 -24.5,24.5 0,8.8 4.7,16.9 12.3,21.3 z"
   id="path2296"
   style="fill:#e0c590;fill-opacity:1" />
	</g>
	<g
   id="g2302"
   style="fill:#e0c590;fill-opacity:1">
		<rect
   x="71.5"
   y="312.70001"
   class="st2"
   width="1"
   height="8.1000004"
   id="rect2300"
   style="fill:#e0c590;fill-opacity:1" />
	</g>
	<g
   id="g2306"
   style="fill:#e0c590;fill-opacity:1">
		<path
   class="st3"
   d="m 38.7,338.7 v -13 l 11.3,6.5 z m 1,-11.3 v 9.5 l 8.3,-4.8 z"
   id="path2304"
   style="fill:#e0c590;fill-opacity:1" />
	</g>
	<g
   id="g2310"
   style="fill:#e0c590;fill-opacity:1">
		<rect
   x="48.900002"
   y="331.70001"
   class="st2"
   width="3.9000001"
   height="1"
   id="rect2308"
   style="fill:#e0c590;fill-opacity:1" />
	</g>
	<g
   id="g2314"
   style="fill:#e0c590;fill-opacity:1">
		<rect
   x="42.700001"
   y="324.60001"
   class="st2"
   width="1"
   height="3.9000001"
   id="rect2312"
   style="fill:#e0c590;fill-opacity:1" />
	</g>
	<g
   id="g2318"
   style="fill:#e0c590;fill-opacity:1">
		<rect
   x="32.900002"
   y="331.70001"
   class="st2"
   width="6.1999998"
   height="1"
   id="rect2316"
   style="fill:#e0c590;fill-opacity:1" />
	</g>
	<g
   id="g2322"
   style="fill:#e0c590;fill-opacity:1">
		<rect
   x="42.099998"
   y="69.5"
   transform="matrix(0.4992,-0.8665,0.8665,0.4992,-38.3583,73.6896)"
   class="st2"
   width="4.9000001"
   height="1"
   id="rect2320"
   style="fill:#e0c590;fill-opacity:1" />
	</g>
	<g
   id="g2326"
   style="fill:#e0c590;fill-opacity:1"
   transform="matrix(-0.00118346,1.0001312,-0.99986745,-0.00118345,181.77446,38.011117)">
		<path
   class="st2"
   d="m 71.9,107 c -1.6,0 -2.8,1.3 -2.8,2.8 0,1.5 1.3,2.8 2.8,2.8 1.6,0 2.8,-1.3 2.8,-2.8 0,-1.5 -1.2,-2.8 -2.8,-2.8 z m 1.7,4 -0.5,0.5 -1.2,-1.2 -1.2,1.2 -0.5,-0.5 1.2,-1.2 -1.2,-1.2 0.5,-0.5 1.2,1.2 1.2,-1.2 0.5,0.5 -1.2,1.2 z"
   id="path2324"
   style="fill:#e0c590;fill-opacity:1" />
	</g>
	<g
   id="g2330"
   style="fill:#e0c590;fill-opacity:1">
		<path
   class="st2"
   d="m 73.3,69.2 -2.9,-3.7 0.4,-0.3 c 2.5,-1.9 4.6,-4.3 6.1,-7.1 1.8,-3.2 2.7,-6.9 2.7,-10.6 0,-7.8 -4,-14.9 -10.7,-18.9 -2.5,-1.5 -5.2,-2.5 -8.1,-3 -1.8,-0.3 -3.9,-0.3 -5.5,-0.2 -0.7,0.1 -1.4,0.2 -2.1,0.3 -0.6,0.1 -1.3,0.3 -2,0.5 -2,0.5 -3.8,1.4 -5.5,2.5 -0.3,0.2 -0.6,0.3 -0.8,0.5 -6.1,4.1 -9.7,10.9 -9.7,18.3 0,0.2 0,0.5 0,0.7 v 0.1 0.1 0 c 0,0.2 0,0.3 0,0.5 v 0.1 0.1 0.2 c 0,0.4 0.1,0.8 0.1,1.3 0.1,0.8 0.2,1.5 0.4,2.2 0,0.3 0.1,0.5 0.2,0.7 0.2,0.6 0.3,1.2 0.6,1.8 0.1,0.3 0.2,0.5 0.3,0.8 0.2,0.3 0.3,0.7 0.5,1.1 0.1,0.3 0.3,0.6 0.5,0.9 l 0.1,0.1 c 0.2,0.3 0.3,0.6 0.5,0.8 0.4,0.6 0.8,1.2 1.3,1.9 0.2,0.2 0.3,0.4 0.5,0.6 0.1,0.1 0.2,0.2 0.3,0.3 0.2,0.2 0.4,0.4 0.6,0.6 0.2,0.3 0.5,0.5 0.7,0.8 0.2,0.3 0.5,0.5 0.8,0.7 0.2,0.2 0.5,0.4 0.7,0.6 l 0.3,0.2 c 0.2,0.2 0.4,0.3 0.7,0.5 0.5,0.4 1.1,0.8 1.8,1.2 l -0.6,0.9 C 44.8,66.9 44.2,66.5 43.6,66.1 43.4,65.9 43.1,65.7 42.9,65.6 L 42.6,65.4 C 42.3,65.2 42.1,65 41.9,64.7 41.6,64.5 41.4,64.2 41.1,63.9 40.8,63.6 40.6,63.4 40.3,63.1 40.1,62.9 39.9,62.7 39.7,62.4 39.6,62.3 39.5,62.2 39.4,62 39.2,61.8 39.1,61.6 38.9,61.4 38.4,60.8 38,60.1 37.6,59.4 37.4,59.1 37.3,58.8 37.1,58.6 37.1,58.5 37,58.5 37,58.4 36.9,58.1 36.7,57.8 36.5,57.5 36.3,57.1 36.2,56.8 36,56.4 35.9,56.1 35.8,55.8 35.7,55.5 35.5,54.9 35.3,54.2 35.1,53.6 35,53.4 34.9,53.1 34.9,52.8 34.7,52.1 34.6,51.3 34.5,50.5 34.4,50 34.4,49.6 34.4,49.1 c 0,-0.1 0,-0.2 0,-0.3 0,-0.2 0,-0.4 0,-0.6 l -0.1,-0.1 0.1,-0.2 c 0,-0.2 0,-0.5 0,-0.7 0,-7.7 3.8,-14.8 10.1,-19.2 0.3,-0.2 0.6,-0.4 0.9,-0.6 1.8,-1.1 3.7,-2 5.8,-2.6 0.7,-0.2 1.4,-0.4 2.1,-0.5 0.7,-0.1 1.4,-0.2 2.2,-0.3 1.7,-0.2 3.8,-0.1 5.8,0.2 3,0.5 5.9,1.5 8.5,3.1 7,4.3 11.2,11.7 11.2,19.9 0,3.9 -1,7.8 -2.8,11.2 -1.5,2.7 -3.5,5.2 -6,7.1 l 2.2,2.9 z"
   id="path2328"
   style="fill:#e0c590;fill-opacity:1" />
	</g>
	<g
   id="g2334"
   style="fill:#e0c590;fill-opacity:1">
		<path
   class="st2"
   d="m 75.8,75.8 c -2,0 -3.7,-1.4 -4,-3.4 -0.3,-2.2 1.2,-4.3 3.4,-4.6 2.2,-0.3 4.3,1.2 4.6,3.4 v 0 c 0.3,2.2 -1.2,4.3 -3.4,4.6 -0.2,0 -0.4,0 -0.6,0 z m 0,-7.4 c -0.2,0 -0.3,0 -0.5,0 -1.8,0.3 -3.1,2 -2.8,3.8 0.3,1.8 2,3.1 3.8,2.8 1.8,-0.3 3.1,-2 2.8,-3.8 v 0 c -0.2,-1.6 -1.6,-2.8 -3.3,-2.8 z"
   id="path2332"
   style="fill:#e0c590;fill-opacity:1" />
	</g>
	<g
   id="g2338"
   style="fill:#e0c590;fill-opacity:1">
		<polygon
   class="st2"
   points="81.1,59.8 80.5,60.8 77.2,58.8 77.7,57.8 77.8,57.8 "
   id="polygon2336"
   style="fill:#e0c590;fill-opacity:1" />
	</g>
	<g
   id="g2342"
   style="fill:#e0c590;fill-opacity:1">
		<path
   class="st2"
   d="m 83.9,65.9 c -2,0 -3.7,-1.4 -4,-3.5 -0.3,-2.2 1.2,-4.3 3.4,-4.6 1.1,-0.2 2.1,0.1 3,0.8 0.9,0.7 1.4,1.6 1.6,2.7 0.2,1.1 -0.1,2.1 -0.8,3 -0.6,0.9 -1.6,1.4 -2.7,1.6 -0.1,0 -0.3,0 -0.5,0 z M 84,58.5 c -0.2,0 -0.3,0 -0.5,0 -1.8,0.3 -3.1,2 -2.8,3.8 0.3,1.8 2,3.1 3.8,2.8 0.9,-0.1 1.7,-0.6 2.2,-1.3 0.5,-0.7 0.8,-1.6 0.6,-2.5 -0.2,-0.9 -0.6,-1.7 -1.3,-2.2 -0.7,-0.3 -1.3,-0.6 -2,-0.6 z"
   id="path2340"
   style="fill:#e0c590;fill-opacity:1" />
	</g>
	<g
   id="g2346"
   style="fill:#e0c590;fill-opacity:1">
		<path
   class="st1"
   d="M 83.9,61.8"
   id="path2344"
   style="fill:#e0c590;fill-opacity:1" />
	</g>
<rect
   style="fill:#101010;stroke-width:0.742349"
   id="rect432"
   width="0.70197904"
   height="4.0900416"
   x="128.15396"
   y="24.573107"
   transform="matrix(0.70617586,0.70803648,-0.70794336,0.70626922,0,0)" /><rect
   style="fill:#101010;fill-opacity:1;stroke-width:0.742349"
   id="rect432-3"
   width="0.70197892"
   height="4.0900426"
   x="26.349014"
   y="-130.53647"
   transform="matrix(-0.70750918,0.70670416,-0.70661074,-0.70760247,0,0)" /></g>
</svg>
