<?xml version="1.0" encoding="UTF-8" standalone="no"?>
<svg
   xmlns:dc="http://purl.org/dc/elements/1.1/"
   xmlns:cc="http://creativecommons.org/ns#"
   xmlns:rdf="http://www.w3.org/1999/02/22-rdf-syntax-ns#"
   xmlns:svg="http://www.w3.org/2000/svg"
   xmlns="http://www.w3.org/2000/svg"
   xmlns:sodipodi="http://sodipodi.sourceforge.net/DTD/sodipodi-0.dtd"
   xmlns:inkscape="http://www.inkscape.org/namespaces/inkscape"
   version="1.1"
   x="0px"
   y="0px"
   viewBox="0 0 76.799999 455.43307"
   xml:space="preserve"
   id="svg960"
   sodipodi:docname="eas faceplate v4.svg"
   width="20.32mm"
   height="120.5mm"
   inkscape:version="1.0 (4035a4f, 2020-05-01)"><metadata
   id="metadata966"><rdf:RDF><cc:Work
       rdf:about=""><dc:format>image/svg+xml</dc:format><dc:type
         rdf:resource="http://purl.org/dc/dcmitype/StillImage" /><dc:title></dc:title></cc:Work></rdf:RDF></metadata><defs
   id="defs964">
	
	
	
	
	
	
	
	
	
	
</defs><sodipodi:namedview
   inkscape:document-rotation="0"
   pagecolor="#ffffff"
   bordercolor="#666666"
   borderopacity="1"
   objecttolerance="10"
   gridtolerance="10"
   guidetolerance="10"
   inkscape:pageopacity="0"
   inkscape:pageshadow="2"
   inkscape:window-width="1405"
   inkscape:window-height="855"
   id="namedview962"
   showgrid="false"
   inkscape:document-units="mm"
   units="mm"
   inkscape:zoom="10.58383"
   inkscape:cx="25.525582"
   inkscape:cy="473.39562"
   inkscape:window-x="0"
   inkscape:window-y="23"
   inkscape:window-maximized="0"
   inkscape:current-layer="svg960" />
<style
   type="text/css"
   id="style916">
	.st0{fill:#101010;}
	.st1{fill:#E0C490;}
	.st2{fill:none;stroke:#E0C490;stroke-width:0.6;stroke-miterlimit:10;}
</style>
<g
   id="Layer_2"
   transform="scale(1.3333333,1.3331575)"
   style="fill:#101010;fill-opacity:1">
	<rect
   x="0"
   y="0"
   class="st0"
   width="57.599998"
   height="364.29999"
   id="rect918"
   style="fill:#101010;fill-opacity:1" />
</g>
<g
   id="g923"
   transform="scale(1.3333333,1.3331575)"
   style="stroke:none;stroke-opacity:1;fill:#e0c490;fill-opacity:1">
		<rect
   x="0"
   id="rect921"
   height="3"
   width="57.599998"
   class="st1"
   y="344.60001"
   style="stroke:none;stroke-opacity:1;fill:#e0c490;fill-opacity:1" />
	</g><g
   id="g935"
   transform="scale(1.3333333,1.3331575)"
   style="fill:#e0c490;fill-opacity:1">
		<path
   id="path925"
   d="m 11.4,25.3 v -8.2 l 6.1,6.4 v -6.1 h 0.9 v 8.2 l -6.1,-6.4 v 6.1 z"
   class="st1"
   style="fill:#e0c490;fill-opacity:1" />
		<path
   id="path927"
   d="M 24,18.9 C 23.9,18.7 23.7,18.5 23.5,18.3 23.3,18.2 23.1,18 22.6,18 c -0.8,0 -1.3,0.5 -1.3,1.2 0,0.3 0.1,0.5 0.3,0.7 0.2,0.2 0.5,0.4 0.8,0.5 l 0.8,0.3 c 0.5,0.2 0.9,0.4 1.2,0.7 0.4,0.4 0.6,0.9 0.6,1.4 0,1.4 -1.1,2.4 -2.5,2.4 -0.5,0 -1.2,-0.1 -1.7,-0.6 -0.4,-0.4 -0.6,-0.9 -0.7,-1.4 L 20.9,23 c 0.1,0.4 0.2,0.8 0.5,1 0.3,0.3 0.7,0.4 1.1,0.4 1.1,0 1.6,-0.8 1.6,-1.6 0,-0.4 -0.1,-0.7 -0.4,-0.9 -0.2,-0.2 -0.5,-0.4 -0.9,-0.5 L 22,21.2 c -0.3,-0.1 -0.7,-0.3 -1,-0.6 -0.3,-0.3 -0.5,-0.7 -0.5,-1.3 0,-1.2 0.9,-2 2.2,-2 0.5,0 0.9,0.1 1.3,0.4 0.3,0.2 0.6,0.5 0.8,0.9 z"
   class="st1"
   style="fill:#e0c490;fill-opacity:1" />
		<path
   id="path929"
   d="m 28,18.2 v 7 h -0.9 v -7 h -1.9 v -0.8 h 4.7 v 0.8 z"
   class="st1"
   style="fill:#e0c490;fill-opacity:1" />
		<path
   id="path931"
   d="m 32.4,17.4 c 0.5,0 1.3,0 1.9,0.4 0.5,0.3 0.9,0.9 0.9,1.7 0,1.2 -0.8,2.1 -2,2.2 l 2.5,3.5 H 34.6 L 32.2,21.8 H 32 v 3.4 h -0.9 v -7.9 h 1.3 z M 32,21.1 h 0.6 c 1.1,0 1.7,-0.5 1.7,-1.4 0,-0.4 -0.1,-0.9 -0.6,-1.2 -0.4,-0.2 -0.8,-0.2 -1.1,-0.2 H 32 Z"
   class="st1"
   style="fill:#e0c490;fill-opacity:1" />
		<path
   id="path933"
   d="m 37.9,22.2 c 0,0.7 0,1.4 0.6,1.9 0.3,0.3 0.9,0.4 1.3,0.4 0.4,0 1,-0.2 1.3,-0.4 0.6,-0.5 0.6,-1.2 0.6,-1.9 v -4.8 h 0.9 v 5.1 c 0,0.7 -0.1,1.3 -0.5,1.9 -0.5,0.6 -1.3,1.1 -2.3,1.1 -1,0 -1.8,-0.4 -2.3,-1.1 C 37.1,23.8 37,23.2 37,22.5 v -5.1 h 0.9 z"
   class="st1"
   style="fill:#e0c490;fill-opacity:1" />
	</g><path
   id="path937"
   d="m 62.133332,25.72994 c -2.4,0 -4.133333,1.733105 -4.133333,4.266104 0,2.399683 1.733333,4.266104 4.133333,4.266104 2.4,0 4.133333,-1.733105 4.133333,-4.266104 0,-2.532999 -1.733333,-4.266104 -4.133333,-4.266104 z m 0,7.19905 c -1.333334,0 -2.8,-1.066526 -2.8,-2.932946 0,-1.999736 1.333333,-2.932947 2.8,-2.932947 1.466666,0 2.8,1.066526 2.8,2.932947 0,1.86642 -1.333334,2.932946 -2.8,2.932946 z"
   class="st1"
   style="stroke-width:1.33325;fill-opacity:1;fill:#e0c490" /><rect
   id="rect939"
   height="1.1998417"
   width="8.3999996"
   class="st1"
   y="23.196939"
   x="58"
   style="stroke-width:1.33325;fill:#e0c490;fill-opacity:1" /><polygon
   style="fill:#e0c490;fill-opacity:1"
   id="polygon941"
   points="8.2,17.3 9.6,17.3 9.2,18.6 9.2,24 9.6,25.3 8.2,25.3 8.6,24 8.6,18.6 "
   class="st1"
   transform="scale(1.3333333,1.3331575)" /><path
   style="stroke:#e0c490;stroke-opacity:1;fill:none;fill-opacity:1"
   id="path943"
   d="m 75.466665,59.325509 c -0.4,9.332102 -8,16.9311 -17.2,17.597679 -5.733333,0.399947 -10.933333,-1.733105 -14.666666,-5.465946 -2.8,-2.932947 -7.6,-2.932947 -10.4,0 -3.6,3.732841 -8.933333,5.865893 -14.666666,5.465946 C 9.3333331,76.389925 1.8666666,68.657611 1.3333333,59.325509 c -0.53333332,-10.66526 7.9999998,-19.4641 18.5333327,-19.4641 5.2,0 9.866667,2.133052 13.2,5.465946 2.933333,2.932947 7.6,2.932947 10.533333,0 3.333333,-3.332894 8,-5.465946 13.2,-5.465946 10.666666,0 19.066666,8.79884 18.666666,19.4641 z"
   class="st2" /><path
   style="stroke:#e0c490;stroke-opacity:1;fill:none;fill-opacity:1"
   id="path945"
   d="m 75.466665,179.30968 c -0.4,9.33211 -8,16.9311 -17.2,17.59768 -5.733333,0.39995 -10.933333,-1.7331 -14.666666,-5.46594 -2.8,-2.93295 -7.6,-2.93295 -10.4,0 -3.6,3.73284 -8.933333,5.86589 -14.666666,5.46594 -9.1999999,-0.53326 -16.6666664,-8.26557 -17.1999997,-17.59768 -0.53333332,-10.66526 7.9999998,-19.4641 18.5333327,-19.4641 5.2,0 9.866667,2.13306 13.2,5.46595 2.933333,2.93295 7.6,2.93295 10.533333,0 3.333333,-3.33289 8,-5.46595 13.2,-5.46595 10.666666,0 19.066666,8.79884 18.666666,19.4641 z"
   class="st2" /><path
   style="stroke:#e0c490;stroke-opacity:1;fill:none;fill-opacity:1"
   id="path947"
   d="m 75.466665,299.29386 c -0.4,9.3321 -8,16.9311 -17.2,17.59768 -5.733333,0.39995 -10.933333,-1.73311 -14.666666,-5.46595 -2.8,-2.93294 -7.6,-2.93294 -10.4,0 -3.6,3.73284 -8.933333,5.8659 -14.666666,5.46595 -9.1999999,-0.53327 -16.6666664,-8.26558 -17.1999997,-17.59768 -0.53333332,-10.66526 7.9999998,-19.4641 18.5333327,-19.4641 5.2,0 9.866667,2.13305 13.2,5.46594 2.933333,2.93295 7.6,2.93295 10.533333,0 3.333333,-3.33289 8,-5.46594 13.2,-5.46594 10.666666,0 19.066666,8.79884 18.666666,19.4641 z"
   class="st2" /><ellipse
   style="stroke:#e0c490;stroke-opacity:1;fill:none;fill-opacity:1"
   id="circle949"
   cy="418.47812"
   cx="20"
   class="st2"
   rx="18.533333"
   ry="18.53089" /><g
   id="g957"
   transform="scale(1.3333333,1.3331575)"
   style="fill:#e0c490;fill-opacity:1">
		<path
   id="path951"
   d="m 40.5,358.9 c -0.2,0.3 -0.4,0.6 -0.7,0.9 -0.5,0.5 -1.1,0.7 -1.9,0.7 -1.3,0 -2.7,-0.8 -2.7,-2.9 0,-1.7 1,-3 2.7,-3 1.1,0 1.8,0.5 2.1,1 0.3,0.5 0.5,1.4 0.5,2.1 h -4.3 c 0,1.2 0.8,1.9 1.8,1.9 0.5,0 0.8,-0.1 1.1,-0.4 0.3,-0.2 0.5,-0.5 0.6,-0.8 z m -1,-2 c -0.2,-0.9 -0.8,-1.4 -1.6,-1.4 -0.8,0 -1.5,0.6 -1.6,1.4 z"
   class="st1"
   style="fill:#e0c490;fill-opacity:1" />
		<path
   id="path953"
   d="m 46.2,354.7 h 1 v 5.6 h -1 v -0.8 c -0.3,0.4 -0.9,0.9 -1.9,0.9 -1.4,0 -2.7,-1 -2.7,-3 0,-1.9 1.3,-2.9 2.7,-2.9 1.1,0 1.7,0.6 1.9,0.9 z m -3.6,2.8 c 0,1.2 0.7,2.1 1.8,2.1 1.2,0 1.9,-1 1.9,-2.1 0,-1.4 -1,-2.1 -1.9,-2.1 -0.9,0 -1.8,0.7 -1.8,2.1 z m 0.1,-4.3 c 0.1,-0.2 0.3,-0.5 0.5,-0.6 0.3,-0.2 0.5,-0.3 0.8,-0.3 0.4,0 0.6,0.1 0.9,0.3 0.3,0.2 0.5,0.3 0.8,0.3 0.2,0 0.3,0 0.4,-0.2 0.1,-0.1 0.2,-0.3 0.3,-0.4 l 0.5,0.5 c -0.1,0.2 -0.2,0.3 -0.3,0.5 -0.3,0.3 -0.6,0.4 -0.9,0.4 -0.3,0 -0.7,-0.2 -0.9,-0.3 -0.3,-0.1 -0.5,-0.3 -0.7,-0.3 -0.2,0 -0.3,0.1 -0.4,0.2 -0.1,0.1 -0.2,0.3 -0.3,0.4 z"
   class="st1"
   style="fill:#e0c490;fill-opacity:1" />
		<path
   id="path955"
   d="m 51.3,356 c -0.1,-0.3 -0.4,-0.6 -0.8,-0.6 -0.3,0 -0.7,0.2 -0.7,0.6 0,0.4 0.3,0.5 0.9,0.8 0.8,0.3 1.2,0.6 1.4,0.9 0.2,0.3 0.3,0.6 0.3,0.9 0,1.2 -0.8,1.8 -1.9,1.8 -0.2,0 -1.5,0 -1.9,-1.4 l 0.8,-0.3 c 0.1,0.3 0.4,0.9 1.1,0.9 0.6,0 0.9,-0.5 0.9,-0.9 0,-0.5 -0.4,-0.7 -0.9,-0.9 -0.7,-0.3 -1.1,-0.5 -1.4,-0.8 -0.2,-0.3 -0.3,-0.5 -0.3,-0.8 0,-1 0.7,-1.6 1.6,-1.6 0.3,0 1.1,0.1 1.5,1 z"
   class="st1"
   style="fill:#e0c490;fill-opacity:1" />
	</g>
</svg>
