<?xml version="1.0" encoding="UTF-8" standalone="no"?>
<svg
   xmlns:dc="http://purl.org/dc/elements/1.1/"
   xmlns:cc="http://creativecommons.org/ns#"
   xmlns:rdf="http://www.w3.org/1999/02/22-rdf-syntax-ns#"
   xmlns:svg="http://www.w3.org/2000/svg"
   xmlns="http://www.w3.org/2000/svg"
   xmlns:sodipodi="http://sodipodi.sourceforge.net/DTD/sodipodi-0.dtd"
   xmlns:inkscape="http://www.inkscape.org/namespaces/inkscape"
   sodipodi:docname="Big knob (inscape render) V3.svg"
   inkscape:version="1.0 (4035a4f, 2020-05-01)"
   id="svg1501"
   version="1.1"
   viewBox="0 0 29 29"
   height="29mm"
   width="29mm">
  <defs
     id="defs1495" />
  <sodipodi:namedview
     inkscape:window-maximized="0"
     inkscape:window-y="23"
     inkscape:window-x="0"
     inkscape:window-height="855"
     inkscape:window-width="1252"
     showgrid="false"
     inkscape:document-rotation="0"
     inkscape:current-layer="layer1"
     inkscape:document-units="mm"
     inkscape:cy="58.576405"
     inkscape:cx="33.021968"
     inkscape:zoom="4.4637888"
     inkscape:pageshadow="2"
     inkscape:pageopacity="0.0"
     borderopacity="1.0"
     bordercolor="#666666"
     pagecolor="#ffffff"
     id="base" />
  <metadata
     id="metadata1498">
    <rdf:RDF>
      <cc:Work
         rdf:about="">
        <dc:format>image/svg+xml</dc:format>
        <dc:type
           rdf:resource="http://purl.org/dc/dcmitype/StillImage" />
        <dc:title></dc:title>
      </cc:Work>
    </rdf:RDF>
  </metadata>
  <g
     id="layer1"
     inkscape:groupmode="layer"
     inkscape:label="Layer 1">
    <g
       style="fill:#595a5b;fill-opacity:1"
       transform="matrix(0.35626537,0,0,0.35626537,-0.14250615,-0.14250615)"
       id="g3797">
      <path
         style="fill:#595a5b;fill-opacity:1"
         id="path3795"
         d="M 81.8,41.1 C 81.8,63.6 63.6,81.8 41.1,81.8 18.6,81.8 0.4,63.6 0.4,41.1 0.4,18.6 18.6,0.4 41.1,0.4 c 22.5,0 40.7,18.2 40.7,40.7"
         class="st0" />
    </g>
    <g
       style="fill:#231e21;fill-opacity:1"
       transform="scale(0.35279806)"
       id="g3805">
      <path
         style="fill:#231e21;fill-opacity:1"
         id="path3803"
         d="m 63.4,41.1 c 0,12.3 -10,22.3 -22.3,22.3 -12.3,0 -22.3,-10 -22.3,-22.3 0,-12.3 10,-22.3 22.3,-22.3 12.3,0 22.3,10 22.3,22.3"
         class="st1" />
    </g>
    <path
       style="fill:#d0d2d3;stroke-width:0.352798;fill-opacity:1"
       id="path3807"
       d="M 14.78224,8.3613148 V 14.429442 H 14.182483 V 8.3613148 c -3.245742,0.141119 -5.8564482,2.8223842 -5.8564482,6.1386862 0,3.386862 2.7518252,6.138687 6.1386862,6.138687 3.386862,0 6.138687,-2.751825 6.138687,-6.138687 0.03528,-3.281022 -2.540146,-5.9622872 -5.821168,-6.1386862 z"
       class="st2" />
  </g>
</svg>
