<?xml version="1.0" encoding="UTF-8" standalone="no"?>
<!-- Created with Inkscape (http://www.inkscape.org/) -->

<svg
   width="40.639999mm"
   height="128.5mm"
   viewBox="0 0 40.639999 128.5"
   version="1.1"
   id="svg346"
   inkscape:version="1.1.2 (0a00cf5339, 2022-02-04)"
   sodipodi:docname="ceis.svg"
   xmlns:inkscape="http://www.inkscape.org/namespaces/inkscape"
   xmlns:sodipodi="http://sodipodi.sourceforge.net/DTD/sodipodi-0.dtd"
   xmlns="http://www.w3.org/2000/svg"
   xmlns:svg="http://www.w3.org/2000/svg">
  <sodipodi:namedview
     id="namedview348"
     pagecolor="#FDDEA2fff"
     bordercolor="#666666"
     borderopacity="1.0"
     inkscape:pageshadow="2"
     inkscape:pageopacity="0.0"
     inkscape:pagecheckerboard="0"
     inkscape:document-units="mm"
     showgrid="false"
     inkscape:snap-nodes="false"
     inkscape:snap-others="false"
     inkscape:zoom="8.7988368"
     inkscape:cx="60.121583"
     inkscape:cy="297.59616"
     inkscape:window-width="2560"
     inkscape:window-height="1376"
     inkscape:window-x="0"
     inkscape:window-y="0"
     inkscape:window-maximized="1"
     inkscape:current-layer="layer1" />
  <defs
     id="defs343" />
  <g
     inkscape:label="Layer 1"
     inkscape:groupmode="layer"
     id="layer1">
    <rect
       style="fill:#401B5C;fill-rule:evenodd;stroke-width:0.264583;fill-opacity:1"
       id="rect1359"
       width="41.023415"
       height="128.67833"
       x="-0.28306216"
       y="0.073091172" />
    <g
       id="COPPER"
       transform="matrix(0.35278803,0,0,0.35277605,0.04249785,0.02291472)"
       style="fill:#e0c490;fill-opacity:1">
      <g
         id="g10"
         style="fill:#e0c490;fill-opacity:1">
        <path
           class="st1"
           d="M 27.35,190.63 H 5.05 V 68.57 h 22.29 v 122.06 z m -19.3,-3 H 24.34 V 71.57 H 8.05 Z"
           id="path8"
           style="fill:#e0c490;fill-opacity:1" />
      </g>
      <g
         id="g14"
         style="fill:#e0c490;fill-opacity:1">
        <path
           class="st1"
           d="M 55.02,190.63 H 32.73 V 68.57 h 22.29 z m -19.29,-3 H 52.02 V 71.57 H 35.73 Z"
           id="path12"
           style="fill:#e0c490;fill-opacity:1" />
      </g>
      <g
         id="g18"
         style="fill:#e0c490;fill-opacity:1">
        <path
           class="st1"
           d="M 82.47,190.63 H 60.18 V 68.57 h 22.29 z m -19.29,-3 H 79.47 V 71.57 H 63.18 Z"
           id="path16"
           style="fill:#e0c490;fill-opacity:1" />
      </g>
      <g
         id="g22"
         style="fill:#e0c490;fill-opacity:1">
        <path
           class="st1"
           d="M 110.15,190.63 H 87.85 V 68.57 h 22.29 v 122.06 z m -19.3,-3 h 16.29 V 71.57 H 90.85 Z"
           id="path20"
           style="fill:#e0c490;fill-opacity:1" />
      </g>
      <g
         id="g26"
         style="fill:#e0c490;fill-opacity:1">
        <rect
           x="14.7"
           y="53.060001"
           class="st1"
           width="3"
           height="17.01"
           id="rect24"
           style="fill:#e0c490;fill-opacity:1" />
      </g>
      <g
         id="g30"
         style="fill:#e0c490;fill-opacity:1">
        <rect
           x="42.380001"
           y="53.060001"
           class="st1"
           width="3"
           height="17.01"
           id="rect28"
           style="fill:#e0c490;fill-opacity:1" />
      </g>
      <g
         id="g34"
         style="fill:#e0c490;fill-opacity:1">
        <rect
           x="69.830002"
           y="53.060001"
           class="st1"
           width="3"
           height="17.01"
           id="rect32"
           style="fill:#e0c490;fill-opacity:1" />
      </g>
      <g
         id="g38"
         style="fill:#e0c490;fill-opacity:1">
        <rect
           x="97.5"
           y="53.060001"
           class="st1"
           width="3"
           height="17.01"
           id="rect36"
           style="fill:#e0c490;fill-opacity:1" />
      </g>
      <g
         id="g42"
         style="fill:#e0c490;fill-opacity:1">
        <rect
           x="14.7"
           y="189.13"
           class="st1"
           width="3"
           height="10.82"
           id="rect40"
           style="fill:#e0c490;fill-opacity:1" />
      </g>
      <g
         id="g46"
         style="fill:#e0c490;fill-opacity:1">
        <rect
           x="42.380001"
           y="189.13"
           class="st1"
           width="3"
           height="10.82"
           id="rect44"
           style="fill:#e0c490;fill-opacity:1" />
      </g>
      <g
         id="g50"
         style="fill:#e0c490;fill-opacity:1">
        <rect
           x="69.830002"
           y="189.13"
           class="st1"
           width="3"
           height="10.82"
           id="rect48"
           style="fill:#e0c490;fill-opacity:1" />
      </g>
      <g
         id="g54"
         style="fill:#e0c490;fill-opacity:1">
        <rect
           x="97.5"
           y="189.13"
           class="st1"
           width="3"
           height="10.82"
           id="rect52"
           style="fill:#e0c490;fill-opacity:1" />
      </g>
      <g
         id="g58"
         style="fill:#e0c490;fill-opacity:1">
        <polygon
           class="st1"
           points="17.7,267.1 17.7,281.79 14.7,281.81 14.7,267.1 "
           id="polygon56"
           style="fill:#e0c490;fill-opacity:1" />
      </g>
      <g
         id="g62"
         style="fill:#e0c490;fill-opacity:1">
        <rect
           x="19.93"
           y="295.03"
           transform="matrix(0.9401,-0.3408,0.3408,0.9401,-102.0817,25.4592)"
           class="st1"
           width="3"
           height="16.549999"
           id="rect60"
           style="fill:#e0c490;fill-opacity:1" />
      </g>
      <g
         id="g84"
         style="fill:#e0c490;fill-opacity:1">
        <g
           id="g66"
           style="fill:#e0c490;fill-opacity:1">
          <path
             class="st1"
             d="M 40.98,19.53 V 4.23 L 52.42,16.22 V 4.85 h 1.63 V 20.19 L 42.61,8.2 v 11.33 z"
             id="path64"
             style="fill:#e0c490;fill-opacity:1" />
        </g>
        <g
           id="g70"
           style="fill:#e0c490;fill-opacity:1">
          <path
             class="st1"
             d="M 64.4,7.66 C 64.2,7.26 63.87,6.82 63.54,6.56 63.25,6.34 62.73,6.05 61.89,6.05 c -1.45,0 -2.46,0.9 -2.46,2.27 0,0.57 0.15,0.9 0.55,1.28 0.44,0.44 0.99,0.68 1.54,0.92 l 1.41,0.62 c 0.86,0.37 1.65,0.77 2.27,1.39 0.75,0.75 1.06,1.61 1.06,2.66 0,2.71 -2,4.51 -4.64,4.51 -0.97,0 -2.18,-0.2 -3.19,-1.19 -0.73,-0.7 -1.17,-1.72 -1.36,-2.6 l 1.58,-0.44 c 0.11,0.77 0.46,1.43 0.88,1.87 0.64,0.64 1.36,0.81 2.11,0.81 2,0 2.95,-1.43 2.95,-2.91 0,-0.66 -0.2,-1.23 -0.73,-1.72 -0.42,-0.4 -0.99,-0.66 -1.76,-1.01 l -1.32,-0.62 c -0.57,-0.26 -1.3,-0.57 -1.96,-1.21 -0.64,-0.62 -1.01,-1.3 -1.01,-2.4 0,-2.27 1.74,-3.79 4.12,-3.79 0.9,0 1.63,0.18 2.35,0.66 0.59,0.4 1.1,0.99 1.43,1.63 z"
             id="path68"
             style="fill:#e0c490;fill-opacity:1" />
        </g>
        <g
           id="g74"
           style="fill:#e0c490;fill-opacity:1">
          <path
             class="st1"
             d="M 71.92,6.39 V 19.53 H 70.3 V 6.39 H 66.73 V 4.85 h 8.76 v 1.54 z"
             id="path72"
             style="fill:#e0c490;fill-opacity:1" />
        </g>
        <g
           id="g78"
           style="fill:#e0c490;fill-opacity:1">
          <path
             class="st1"
             d="m 80.04,4.85 c 0.99,0 2.46,0.07 3.57,0.81 0.86,0.57 1.61,1.69 1.61,3.26 0,2.24 -1.47,3.9 -3.7,4.05 l 4.67,6.56 H 84.2 L 79.73,13.1 h -0.42 v 6.43 H 77.68 V 4.85 Z m -0.72,6.8 h 1.03 c 2.02,0 3.23,-0.97 3.23,-2.68 0,-0.81 -0.24,-1.63 -1.17,-2.16 C 81.75,6.44 81,6.39 80.3,6.39 h -0.99 v 5.26 z"
             id="path76"
             style="fill:#e0c490;fill-opacity:1" />
        </g>
        <g
           id="g82"
           style="fill:#e0c490;fill-opacity:1">
          <path
             class="st1"
             d="m 90.37,13.85 c 0,1.23 0,2.57 1.17,3.57 0.59,0.51 1.61,0.84 2.42,0.84 0.81,0 1.83,-0.33 2.42,-0.84 1.17,-0.99 1.17,-2.33 1.17,-3.57 v -9 h 1.63 v 9.44 c 0,1.23 -0.13,2.42 -0.92,3.52 -0.88,1.21 -2.42,1.98 -4.29,1.98 -1.87,0 -3.41,-0.77 -4.29,-1.98 -0.79,-1.1 -0.92,-2.29 -0.92,-3.52 V 4.85 h 1.63 v 9 z"
             id="path80"
             style="fill:#e0c490;fill-opacity:1" />
        </g>
      </g>
      <g
         id="g88"
         style="fill:#e0c490;fill-opacity:1">
        <path
           class="st1"
           d="m 106.68,8.34 c -3.34,0 -5.79,2.51 -5.79,5.92 0,3.41 2.47,5.89 5.79,5.89 3.31,0 5.79,-2.49 5.79,-5.89 0,-3.4 -2.45,-5.92 -5.79,-5.92 z m 0,10.08 c -1.95,0 -3.84,-1.41 -3.84,-4.16 0,-2.73 1.84,-4.19 3.84,-4.19 2,0 3.84,1.43 3.84,4.19 0,2.73 -1.86,4.16 -3.84,4.16 z"
           id="path86"
           style="fill:#e0c490;fill-opacity:1" />
      </g>
      <g
         id="g92"
         style="fill:#e0c490;fill-opacity:1">
        <rect
           x="100.9"
           y="4.77"
           class="st1"
           width="11.7"
           height="1.62"
           id="rect90"
           style="fill:#e0c490;fill-opacity:1" />
      </g>
      <g
         id="g96"
         style="fill:#e0c490;fill-opacity:1">
        <polygon
           class="st1"
           points="35.02,19.53 35.64,17.2 35.64,7.01 35.02,4.68 37.5,4.68 36.88,7.01 36.88,17.2 37.5,19.53 "
           id="polygon94"
           style="fill:#e0c490;fill-opacity:1" />
      </g>
      <g
         id="g102"
         style="fill:#e0c490;fill-opacity:1">
        <g
           id="g100"
           style="fill:#e0c490;fill-opacity:1">
          <rect
             x="-0.80000001"
             y="344.64001"
             class="st1"
             width="74.339996"
             height="3"
             id="rect98"
             style="fill:#e0c490;fill-opacity:1" />
        </g>
      </g>
      <g
         id="g120"
         style="fill:#e0c490;fill-opacity:1">
        <g
           id="g106"
           style="fill:#e0c490;fill-opacity:1">
          <path
             class="st1"
             d="m 86.69,349.39 c -0.92,-1.16 -2.24,-1.5 -3.14,-1.5 -1.86,0 -3.55,1.3 -3.55,3.74 0,2.44 1.74,3.71 3.52,3.71 1.04,0 2.32,-0.46 3.23,-1.57 v 2.07 c -1.08,0.8 -2.24,1.04 -3.18,1.04 -3.11,0 -5.36,-2.22 -5.36,-5.23 0,-3.06 2.27,-5.31 5.36,-5.31 1.59,0 2.63,0.63 3.11,0.96 v 2.09 z"
             id="path104"
             style="fill:#e0c490;fill-opacity:1" />
        </g>
        <g
           id="g110"
           style="fill:#e0c490;fill-opacity:1">
          <path
             class="st1"
             d="m 98.29,354.04 c -0.29,0.56 -0.72,1.16 -1.23,1.62 -0.92,0.82 -2.05,1.23 -3.33,1.23 -2.41,0 -4.95,-1.52 -4.95,-5.23 0,-2.99 1.83,-5.31 4.85,-5.31 1.95,0 3.18,0.96 3.79,1.83 0.63,0.89 0.99,2.44 0.94,3.76 h -7.79 c 0.02,2.08 1.45,3.4 3.18,3.4 0.82,0 1.47,-0.24 2.05,-0.72 0.46,-0.39 0.82,-0.89 1.04,-1.38 z m -7.77,-12.68 1.79,-0.82 2.53,3.5 -1.06,0.58 z m 6.06,9.14 c -0.29,-1.57 -1.47,-2.61 -2.94,-2.61 -1.47,0 -2.68,1.11 -2.94,2.61 z"
             id="path108"
             style="fill:#e0c490;fill-opacity:1" />
        </g>
        <g
           id="g114"
           style="fill:#e0c490;fill-opacity:1">
          <path
             class="st1"
             d="m 101.88,341.57 c 0.68,0 1.23,0.55 1.23,1.23 0,0.68 -0.55,1.23 -1.23,1.23 -0.68,0 -1.23,-0.55 -1.23,-1.23 0,-0.68 0.56,-1.23 1.23,-1.23 z m 0.87,5.02 v 10.01 h -1.74 v -10.01 z"
             id="path112"
             style="fill:#e0c490;fill-opacity:1" />
        </g>
        <g
           id="g118"
           style="fill:#e0c490;fill-opacity:1">
          <path
             class="st1"
             d="m 110.16,348.91 c -0.24,-0.58 -0.75,-1.01 -1.4,-1.01 -0.63,0 -1.21,0.36 -1.21,1.13 0,0.72 0.48,0.94 1.62,1.42 1.45,0.6 2.12,1.06 2.51,1.54 0.43,0.53 0.53,1.06 0.53,1.62 0,2.1 -1.52,3.28 -3.45,3.28 -0.41,0 -2.65,-0.05 -3.5,-2.56 l 1.5,-0.63 c 0.19,0.53 0.77,1.64 2.03,1.64 1.13,0 1.64,-0.84 1.64,-1.59 0,-0.94 -0.68,-1.25 -1.62,-1.66 -1.21,-0.53 -1.98,-0.92 -2.44,-1.47 -0.39,-0.48 -0.46,-0.96 -0.46,-1.47 0,-1.76 1.23,-2.8 2.92,-2.8 0.53,0 1.95,0.1 2.75,1.81 z"
             id="path116"
             style="fill:#e0c490;fill-opacity:1" />
        </g>
      </g>
      <g
         id="g132"
         style="fill:#e0c490;fill-opacity:1">
        <g
           id="g124"
           style="fill:#e0c490;fill-opacity:1">
          <polygon
             class="st1"
             points="62.36,275.48 63.11,276.78 62.53,277.12 61.78,275.82 "
             id="polygon122"
             style="fill:#e0c490;fill-opacity:1" />
        </g>
        <g
           id="g130"
           style="fill:#e0c490;fill-opacity:1">
          <g
             id="g128"
             style="fill:#e0c490;fill-opacity:1">
            <path
               class="st1"
               d="m 63.32,275.79 0.06,-3.16 -0.11,-0.01 -2.92,3.73 c -1.16,1.07 -2.31,2.13 -3.47,3.2 1.5,-0.48 2.99,-0.96 4.49,-1.44 l 4.69,-0.71 0.06,-0.09 z"
               id="path126"
               style="fill:#e0c490;fill-opacity:1" />
          </g>
        </g>
      </g>
      <g
         id="g136"
         style="fill:#e0c490;fill-opacity:1">
        <path
           class="st1"
           d="m 54.05,284.55 -1.19,-0.91 c 5.68,-7.46 14.3,-11.75 23.67,-11.75 9.33,0 17.94,4.26 23.62,11.68 l -1.19,0.91 c -5.39,-7.05 -13.57,-11.09 -22.42,-11.09 -8.91,0.01 -17.1,4.07 -22.49,11.16 z"
           id="path134"
           style="fill:#e0c490;fill-opacity:1" />
      </g>
      <g
         id="g148"
         style="fill:#e0c490;fill-opacity:1">
        <g
           id="g140"
           style="fill:#e0c490;fill-opacity:1">
          <polygon
             class="st1"
             points="90.6,275.48 91.18,275.82 90.42,277.12 89.84,276.78 "
             id="polygon138"
             style="fill:#e0c490;fill-opacity:1" />
        </g>
        <g
           id="g146"
           style="fill:#e0c490;fill-opacity:1">
          <g
             id="g144"
             style="fill:#e0c490;fill-opacity:1">
            <path
               class="st1"
               d="m 89.64,275.79 -2.78,1.51 0.05,0.1 4.69,0.71 c 1.5,0.48 2.99,0.96 4.49,1.44 -1.16,-1.07 -2.31,-2.13 -3.47,-3.2 l -2.92,-3.73 -0.1,-0.01 z"
               id="path142"
               style="fill:#e0c490;fill-opacity:1" />
          </g>
        </g>
      </g>
      <g
         id="g152"
         style="fill:#e0c490;fill-opacity:1">
        <rect
           x="75.029999"
           y="310.29001"
           class="st1"
           width="3"
           height="22.76"
           id="rect150"
           style="fill:#e0c490;fill-opacity:1" />
      </g>
      <g
         id="g156"
         style="fill:#e0c490;fill-opacity:1">
        <polygon
           class="st1"
           points="1.85,26.36 27.16,26.36 27.16,26.96 2.45,26.96 2.45,36.23 1.85,36.23 "
           id="polygon154"
           style="fill:#e0c490;fill-opacity:1" />
      </g>
      <g
         id="g160"
         style="fill:#e0c490;fill-opacity:1">
        <polygon
           class="st1"
           points="64.08,231.09 67.12,231.09 67.12,237.67 80.54,237.67 80.54,238.26 66.52,238.26 66.52,231.69 64.68,231.69 64.68,238.24 64.08,238.24 "
           id="polygon158"
           style="fill:#e0c490;fill-opacity:1" />
      </g>
      <g
         id="g164"
         style="fill:#e0c490;fill-opacity:1">
        <polygon
           class="st1"
           points="68.73,332.98 64.59,328.19 57.69,328.19 54.62,323.36 50.27,333.21 49.58,332.91 54.5,321.78 58.1,327.44 64.94,327.44 69.3,332.5 "
           id="polygon162"
           style="fill:#e0c490;fill-opacity:1" />
      </g>
      <g
         id="g168"
         style="fill:#e0c490;fill-opacity:1">
        <path
           class="st1"
           d="m 104.54,333.12 c -2.58,0 -4.13,-2.42 -4.57,-4.93 H 95.4 c -1.59,0 -5.21,-0.49 -5.65,-4.89 -3.62,2.95 -3.92,6.05 -3.92,9.76 h -0.75 c 0,-3.97 0.36,-7.52 4.78,-10.79 l 0.58,-0.43 0.01,0.72 c 0.08,4.03 2.73,4.88 4.94,4.88 h 5.22 l 0.04,0.32 c 0.3,2.22 1.64,4.6 3.87,4.6 v 0.76 z"
           id="path166"
           style="fill:#e0c490;fill-opacity:1" />
      </g>
      <g
         id="g172"
         style="fill:#e0c490;fill-opacity:1">
        <path
           class="st2"
           d="m 16.2,267.6 c -5.44,0 -10.46,-2.96 -13.09,-7.72 l 0.88,-0.48 c 2.46,4.44 7.14,7.2 12.21,7.2 4.9,0 9.36,-2.5 11.92,-6.7 l 0.85,0.52 c -2.74,4.5 -7.51,7.18 -12.77,7.18 z"
           id="path170"
           style="fill:#e0c490;fill-opacity:1" />
      </g>
      <g
         id="g176"
         style="fill:#e0c490;fill-opacity:1">
        <path
           class="st2"
           d="m 43.92,267.6 c -5.44,0 -10.46,-2.96 -13.09,-7.72 l 0.88,-0.48 c 2.46,4.44 7.14,7.2 12.21,7.2 4.9,0 9.36,-2.5 11.92,-6.7 l 0.85,0.52 c -2.74,4.5 -7.52,7.18 -12.77,7.18 z"
           id="path174"
           style="fill:#e0c490;fill-opacity:1" />
      </g>
      <g
         id="g186"
         style="fill:#e0c490;fill-opacity:1">
        <g
           id="g180"
           style="fill:#e0c490;fill-opacity:1">
          <path
             class="st2"
             d="m 29.58,195.09 c -0.17,-0.17 -0.42,-0.37 -0.7,-0.5 -0.28,-0.13 -0.61,-0.21 -0.92,-0.21 -1.23,0 -2.14,0.99 -2.14,2.22 0,1.45 1.18,2.17 2.15,2.17 0.36,0 0.71,-0.1 0.99,-0.25 0.3,-0.15 0.52,-0.35 0.62,-0.45 v 0.74 c -0.59,0.42 -1.21,0.52 -1.61,0.52 -1.58,0 -2.76,-1.2 -2.76,-2.74 0,-1.59 1.19,-2.77 2.79,-2.77 0.32,0 0.94,0.04 1.57,0.53 v 0.74 z"
             id="path178"
             style="fill:#e0c490;fill-opacity:1" />
        </g>
        <g
           id="g184"
           style="fill:#e0c490;fill-opacity:1">
          <path
             class="st2"
             d="m 30.7,193.92 1.5,4.07 1.5,-4.07 h 0.66 l -2.16,5.65 -2.16,-5.65 z"
             id="path182"
             style="fill:#e0c490;fill-opacity:1" />
        </g>
      </g>
      <g
         id="g200"
         style="fill:#e0c490;fill-opacity:1">
        <g
           id="g190"
           style="fill:#e0c490;fill-opacity:1">
          <path
             class="st2"
             d="m 91.94,234.75 c 0,-1.59 1.24,-2.76 2.77,-2.76 1.53,0 2.77,1.17 2.77,2.76 0,1.58 -1.23,2.76 -2.77,2.76 -1.54,0 -2.77,-1.18 -2.77,-2.76 z m 0.6,0 c 0,1.22 0.97,2.2 2.17,2.2 1.2,0 2.17,-0.98 2.17,-2.2 0,-1.22 -0.97,-2.2 -2.17,-2.2 -1.2,0 -2.17,0.97 -2.17,2.2 z"
             id="path188"
             style="fill:#e0c490;fill-opacity:1" />
        </g>
        <g
           id="g194"
           style="fill:#e0c490;fill-opacity:1">
          <path
             class="st2"
             d="m 99.17,235.35 c 0,0.45 0,0.94 0.42,1.29 0.22,0.18 0.58,0.3 0.88,0.3 0.3,0 0.66,-0.12 0.88,-0.3 0.42,-0.36 0.42,-0.85 0.42,-1.29 v -3.27 h 0.59 v 3.43 c 0,0.45 -0.05,0.88 -0.34,1.28 -0.32,0.44 -0.88,0.72 -1.56,0.72 -0.68,0 -1.24,-0.28 -1.56,-0.72 -0.29,-0.4 -0.34,-0.83 -0.34,-1.28 v -3.43 h 0.59 v 3.27 z"
             id="path192"
             style="fill:#e0c490;fill-opacity:1" />
        </g>
        <g
           id="g198"
           style="fill:#e0c490;fill-opacity:1">
          <path
             class="st2"
             d="m 105.05,232.63 v 4.77 h -0.59 v -4.77 h -1.29 v -0.56 h 3.18 v 0.56 z"
             id="path196"
             style="fill:#e0c490;fill-opacity:1" />
        </g>
      </g>
      <g
         id="g226"
         style="fill:#e0c490;fill-opacity:1">
        <g
           id="g204"
           style="fill:#e0c490;fill-opacity:1">
          <path
             class="st2"
             d="m 33.76,232.08 c 0.36,0 0.9,0.02 1.3,0.3 0.31,0.21 0.58,0.62 0.58,1.18 0,0.82 -0.54,1.42 -1.34,1.47 l 1.69,2.38 h -0.72 l -1.62,-2.33 H 33.5 v 2.33 h -0.6 v -5.33 z m -0.26,2.47 h 0.38 c 0.74,0 1.18,-0.35 1.18,-0.98 0,-0.3 -0.09,-0.59 -0.42,-0.78 -0.24,-0.14 -0.51,-0.15 -0.77,-0.15 H 33.5 Z"
             id="path202"
             style="fill:#e0c490;fill-opacity:1" />
        </g>
        <g
           id="g208"
           style="fill:#e0c490;fill-opacity:1">
          <path
             class="st2"
             d="m 39.69,232.63 h -2.17 v 1.58 h 2.11 v 0.56 h -2.11 v 2.07 h 2.17 v 0.56 h -2.77 v -5.33 h 2.77 z"
             id="path206"
             style="fill:#e0c490;fill-opacity:1" />
        </g>
        <g
           id="g212"
           style="fill:#e0c490;fill-opacity:1">
          <path
             class="st2"
             d="m 42.09,232.63 v 4.77 H 41.5 v -4.77 h -1.3 v -0.56 h 3.18 v 0.56 z"
             id="path210"
             style="fill:#e0c490;fill-opacity:1" />
        </g>
        <g
           id="g216"
           style="fill:#e0c490;fill-opacity:1">
          <path
             class="st2"
             d="m 45.04,232.08 c 0.36,0 0.9,0.02 1.3,0.3 0.31,0.21 0.58,0.62 0.58,1.18 0,0.82 -0.54,1.42 -1.34,1.47 l 1.7,2.38 h -0.72 l -1.62,-2.33 h -0.15 v 2.33 H 44.2 v -5.33 z m -0.26,2.47 h 0.38 c 0.74,0 1.18,-0.35 1.18,-0.98 0,-0.3 -0.09,-0.59 -0.42,-0.78 -0.24,-0.14 -0.51,-0.15 -0.77,-0.15 h -0.36 v 1.91 z"
             id="path214"
             style="fill:#e0c490;fill-opacity:1" />
        </g>
        <g
           id="g220"
           style="fill:#e0c490;fill-opacity:1">
          <path
             class="st2"
             d="m 48.79,232.08 v 5.33 H 48.2 v -5.33 z"
             id="path218"
             style="fill:#e0c490;fill-opacity:1" />
        </g>
        <g
           id="g224"
           style="fill:#e0c490;fill-opacity:1">
          <path
             class="st2"
             d="m 52.92,234.73 h 2.22 v 0.13 c 0,0.59 -0.18,1.23 -0.51,1.69 -0.16,0.22 -0.76,0.96 -1.98,0.96 -1.58,0 -2.77,-1.21 -2.77,-2.76 0,-1.55 1.19,-2.76 2.78,-2.76 0.51,0 1.11,0.13 1.63,0.53 0.24,0.18 0.46,0.42 0.62,0.63 l -0.44,0.4 c -0.15,-0.22 -0.33,-0.41 -0.5,-0.55 -0.26,-0.21 -0.66,-0.45 -1.29,-0.45 -1.29,0 -2.18,0.97 -2.18,2.21 0,1.46 1.16,2.19 2.17,2.19 0.71,0 1.33,-0.36 1.63,-0.9 0.1,-0.17 0.2,-0.42 0.22,-0.76 h -1.58 v -0.56 z"
             id="path222"
             style="fill:#e0c490;fill-opacity:1" />
        </g>
      </g>
      <g
         id="g230"
         style="fill:#e0c490;fill-opacity:1">
        <path
           class="st2"
           d="m 28.27,207.4 c -2.49,-4.29 -7.11,-6.95 -12.07,-6.95 -4.96,0 -9.58,2.66 -12.07,6.95 l -0.87,-0.5 c 2.67,-4.59 7.62,-7.45 12.93,-7.45 5.31,0 10.27,2.85 12.93,7.45 z"
           id="path228"
           style="fill:#e0c490;fill-opacity:1" />
      </g>
      <g
         id="g234"
         style="fill:#e0c490;fill-opacity:1">
        <path
           class="st2"
           d="m 55.95,207.4 c -2.49,-4.29 -7.11,-6.95 -12.07,-6.95 -4.96,0 -9.58,2.66 -12.07,6.95 l -0.87,-0.5 c 2.67,-4.59 7.62,-7.45 12.93,-7.45 5.31,0 10.27,2.85 12.93,7.45 z"
           id="path232"
           style="fill:#e0c490;fill-opacity:1" />
      </g>
      <g
         id="g238"
         style="fill:#e0c490;fill-opacity:1">
        <path
           class="st2"
           d="m 83.4,207.4 c -2.49,-4.29 -7.11,-6.95 -12.07,-6.95 -4.96,0 -9.58,2.66 -12.07,6.95 l -0.87,-0.5 c 2.67,-4.59 7.62,-7.45 12.93,-7.45 5.31,0 10.27,2.85 12.93,7.45 z"
           id="path236"
           style="fill:#e0c490;fill-opacity:1" />
      </g>
      <g
         id="g242"
         style="fill:#e0c490;fill-opacity:1">
        <path
           class="st2"
           d="m 111.07,207.4 c -2.49,-4.29 -7.11,-6.95 -12.07,-6.95 -4.96,0 -9.58,2.66 -12.07,6.95 l -0.87,-0.5 c 2.67,-4.59 7.62,-7.45 12.93,-7.45 5.31,0 10.27,2.85 12.93,7.45 z"
           id="path240"
           style="fill:#e0c490;fill-opacity:1" />
      </g>
      <g
         id="g260"
         style="fill:#e0c490;fill-opacity:1">
        <g
           id="g246"
           style="fill:#e0c490;fill-opacity:1">
          <path
             class="st2"
             d="m 30.63,288.53 h 2.22 v 0.13 c 0,0.59 -0.18,1.23 -0.51,1.69 -0.16,0.22 -0.76,0.96 -1.98,0.96 -1.58,0 -2.77,-1.21 -2.77,-2.76 0,-1.55 1.19,-2.76 2.78,-2.76 0.51,0 1.11,0.13 1.63,0.53 0.24,0.18 0.46,0.42 0.62,0.63 l -0.44,0.4 c -0.15,-0.22 -0.33,-0.41 -0.5,-0.55 -0.26,-0.21 -0.66,-0.45 -1.29,-0.45 -1.29,0 -2.18,0.97 -2.18,2.21 0,1.46 1.16,2.19 2.17,2.19 0.71,0 1.33,-0.36 1.63,-0.9 0.1,-0.17 0.2,-0.42 0.22,-0.76 h -1.58 v -0.56 z"
             id="path244"
             style="fill:#e0c490;fill-opacity:1" />
        </g>
        <g
           id="g250"
           style="fill:#e0c490;fill-opacity:1">
          <path
             class="st2"
             d="m 36.89,289.7 h -2.27 l -0.64,1.5 h -0.66 l 2.45,-5.59 2.39,5.59 H 37.5 Z m -0.23,-0.56 -0.9,-2.13 -0.91,2.13 z"
             id="path248"
             style="fill:#e0c490;fill-opacity:1" />
        </g>
        <g
           id="g254"
           style="fill:#e0c490;fill-opacity:1">
          <path
             class="st2"
             d="m 39.87,286.43 v 4.77 h -0.59 v -4.77 h -1.3 v -0.56 h 3.18 v 0.56 z"
             id="path252"
             style="fill:#e0c490;fill-opacity:1" />
        </g>
        <g
           id="g258"
           style="fill:#e0c490;fill-opacity:1">
          <path
             class="st2"
             d="m 44.74,286.43 h -2.17 v 1.58 h 2.11 v 0.56 h -2.11 v 2.07 h 2.17 v 0.56 h -2.77 v -5.33 h 2.77 z"
             id="path256"
             style="fill:#e0c490;fill-opacity:1" />
        </g>
      </g>
      <g
         id="g278"
         style="fill:#e0c490;fill-opacity:1">
        <g
           id="g264"
           style="fill:#e0c490;fill-opacity:1">
          <path
             class="st2"
             d="m 30.67,296.75 v 4.77 h -0.59 v -4.77 h -1.3 v -0.56 h 3.18 v 0.56 z"
             id="path262"
             style="fill:#e0c490;fill-opacity:1" />
        </g>
        <g
           id="g268"
           style="fill:#e0c490;fill-opacity:1">
          <path
             class="st2"
             d="m 33.62,296.19 c 0.36,0 0.9,0.02 1.3,0.3 0.31,0.21 0.58,0.62 0.58,1.18 0,0.82 -0.54,1.42 -1.34,1.47 l 1.69,2.38 h -0.72 l -1.62,-2.33 h -0.15 v 2.33 h -0.59 v -5.33 z m -0.26,2.47 h 0.38 c 0.74,0 1.18,-0.35 1.18,-0.98 0,-0.3 -0.09,-0.59 -0.42,-0.78 -0.24,-0.14 -0.51,-0.15 -0.77,-0.15 h -0.36 v 1.91 z"
             id="path266"
             style="fill:#e0c490;fill-opacity:1" />
        </g>
        <g
           id="g272"
           style="fill:#e0c490;fill-opacity:1">
          <path
             class="st2"
             d="m 37.38,296.19 v 5.33 h -0.59 v -5.33 z"
             id="path270"
             style="fill:#e0c490;fill-opacity:1" />
        </g>
        <g
           id="g276"
           style="fill:#e0c490;fill-opacity:1">
          <path
             class="st2"
             d="m 41.5,298.84 h 2.22 v 0.13 c 0,0.59 -0.18,1.23 -0.51,1.69 -0.16,0.22 -0.76,0.96 -1.98,0.96 -1.58,0 -2.77,-1.21 -2.77,-2.76 0,-1.55 1.19,-2.76 2.78,-2.76 0.51,0 1.11,0.13 1.63,0.53 0.24,0.18 0.46,0.42 0.62,0.63 l -0.44,0.4 c -0.15,-0.22 -0.33,-0.41 -0.5,-0.55 -0.26,-0.21 -0.66,-0.45 -1.29,-0.45 -1.29,0 -2.18,0.97 -2.18,2.21 0,1.46 1.16,2.19 2.17,2.19 0.71,0 1.33,-0.36 1.63,-0.9 0.1,-0.17 0.2,-0.42 0.22,-0.76 h -1.6 z"
             id="path274"
             style="fill:#e0c490;fill-opacity:1" />
        </g>
      </g>
      <g
         id="g296"
         style="fill:#e0c490;fill-opacity:1">
        <g
           id="g282"
           style="fill:#e0c490;fill-opacity:1">
          <path
             class="st2"
             d="m 27.76,277.48 h 2.73 v -2.17 h 0.59 v 5.33 h -0.59 v -2.61 h -2.73 v 2.61 h -0.59 v -5.33 h 0.59 z"
             id="path280"
             style="fill:#e0c490;fill-opacity:1" />
        </g>
        <g
           id="g286"
           style="fill:#e0c490;fill-opacity:1">
          <path
             class="st2"
             d="m 32.17,277.98 c 0,-1.59 1.24,-2.76 2.77,-2.76 1.53,0 2.77,1.17 2.77,2.76 0,1.58 -1.23,2.76 -2.77,2.76 -1.54,0 -2.77,-1.18 -2.77,-2.76 z m 0.61,0 c 0,1.22 0.97,2.2 2.17,2.2 1.2,0 2.17,-0.98 2.17,-2.2 0,-1.22 -0.97,-2.2 -2.17,-2.2 -1.2,0 -2.17,0.98 -2.17,2.2 z"
             id="path284"
             style="fill:#e0c490;fill-opacity:1" />
        </g>
        <g
           id="g290"
           style="fill:#e0c490;fill-opacity:1">
          <path
             class="st2"
             d="m 39.41,275.31 v 4.77 h 1.47 v 0.56 h -2.06 v -5.33 z"
             id="path288"
             style="fill:#e0c490;fill-opacity:1" />
        </g>
        <g
           id="g294"
           style="fill:#e0c490;fill-opacity:1">
          <path
             class="st2"
             d="m 41.68,275.31 h 1.09 c 0.54,0 1.3,0.06 1.97,0.62 0.49,0.41 0.91,1.09 0.91,2.05 0,1.12 -0.55,1.72 -0.94,2.05 -0.49,0.42 -1,0.62 -1.95,0.62 h -1.08 z m 0.59,4.77 h 0.52 c 0.42,0 1.01,-0.05 1.53,-0.48 0.4,-0.34 0.72,-0.86 0.72,-1.62 0,-1.28 -0.9,-2.11 -2.25,-2.11 h -0.52 z"
             id="path292"
             style="fill:#e0c490;fill-opacity:1" />
        </g>
      </g>
      <g
         id="g310"
         style="fill:#e0c490;fill-opacity:1">
        <g
           id="g300"
           style="fill:#e0c490;fill-opacity:1">
          <path
             class="st2"
             d="m 107.07,338.47 v 4.89 h 0.61 v 0.42 h -1.07 v -5.73 h 1.07 v 0.42 z"
             id="path298"
             style="fill:#e0c490;fill-opacity:1" />
        </g>
        <g
           id="g304"
           style="fill:#e0c490;fill-opacity:1">
          <path
             class="st2"
             d="m 108.26,342.7 1.55,-1.79 c 0.11,-0.13 0.4,-0.47 0.5,-0.62 0.19,-0.27 0.24,-0.48 0.24,-0.65 0,-0.48 -0.34,-0.83 -0.85,-0.83 -0.3,0 -0.55,0.13 -0.71,0.38 -0.08,0.13 -0.13,0.29 -0.14,0.5 h -0.47 c 0.02,-0.43 0.15,-0.69 0.32,-0.88 0.18,-0.2 0.48,-0.43 1.01,-0.43 0.75,0 1.31,0.54 1.31,1.27 0,0.29 -0.08,0.55 -0.34,0.91 -0.18,0.25 -0.41,0.51 -0.58,0.71 l -0.89,1 h 1.8 v 0.43 z"
             id="path302"
             style="fill:#e0c490;fill-opacity:1" />
        </g>
        <g
           id="g308"
           style="fill:#e0c490;fill-opacity:1">
          <path
             class="st2"
             d="m 112.44,343.36 v -4.89 h -0.61 v -0.42 h 1.07 v 5.73 h -1.07 v -0.42 z"
             id="path306"
             style="fill:#e0c490;fill-opacity:1" />
        </g>
      </g>
      <g
         id="g314"
         style="fill:#e0c490;fill-opacity:1">
        <rect
           x="26.93"
           y="282.67999"
           class="st2"
           width="18.690001"
           height="1.03"
           id="rect312"
           style="fill:#e0c490;fill-opacity:1" />
      </g>
      <g
         id="g318"
         style="fill:#e0c490;fill-opacity:1">
        <rect
           x="26.93"
           y="293.14001"
           class="st2"
           width="18.690001"
           height="1.03"
           id="rect316"
           style="fill:#e0c490;fill-opacity:1" />
      </g>
      <g
         id="g322"
         style="fill:#e0c490;fill-opacity:1">
        <polygon
           class="st2"
           points="19.39,272.22 40.67,272.22 43.42,269.47 43.42,267.1 44.42,267.1 44.42,269.89 41.09,273.22 19.39,273.22 "
           id="polygon320"
           style="fill:#e0c490;fill-opacity:1" />
      </g>
      <g
         id="g326"
         style="fill:#e0c490;fill-opacity:1">
        <rect
           x="18.889999"
           y="270.34"
           class="st2"
           width="1"
           height="4.8699999"
           id="rect324"
           style="fill:#e0c490;fill-opacity:1" />
      </g>
    </g>
  </g>
</svg>
