<?xml version="1.0" encoding="UTF-8" standalone="no"?>
<!-- Generator: Adobe Illustrator 26.2.0, SVG Export Plug-In . SVG Version: 6.00 Build 0)  -->

<svg
   version="1.1"
   x="0px"
   y="0px"
   viewBox="0 0 76.800001 485.66929"
   xml:space="preserve"
   id="svg1686"
   sodipodi:docname="cnoc (Inkscape Render).svg"
   width="20.32mm"
   height="128.5mm"
   inkscape:version="1.2 (dc2aeda, 2022-05-15)"
   xmlns:inkscape="http://www.inkscape.org/namespaces/inkscape"
   xmlns:sodipodi="http://sodipodi.sourceforge.net/DTD/sodipodi-0.dtd"
   xmlns="http://www.w3.org/2000/svg"
   xmlns:svg="http://www.w3.org/2000/svg"><defs
   id="defs1690" /><sodipodi:namedview
   id="namedview1688"
   pagecolor="#FDDEA2fff"
   bordercolor="#000000"
   borderopacity="0.25"
   inkscape:showpageshadow="2"
   inkscape:pageopacity="0.0"
   inkscape:pagecheckerboard="0"
   inkscape:deskcolor="#d1d1d1"
   showgrid="false"
   inkscape:document-units="mm"
   inkscape:zoom="1.3868837"
   inkscape:cx="9.7340531"
   inkscape:cy="205.13616"
   inkscape:window-width="1728"
   inkscape:window-height="1051"
   inkscape:window-x="0"
   inkscape:window-y="38"
   inkscape:window-maximized="0"
   inkscape:current-layer="svg1686" />
<style
   type="text/css"
   id="style1444">
	.st0{fill:#401B5C;}
	.st1{fill:#E0C490;}
	.st2{fill:#DFC48F;}
	.st3{fill:#DEC28E;}
	.st4{fill:none;stroke:#DEC28E;stroke-miterlimit:10;}
</style>
<g
   id="Layer_1"
   transform="scale(1.3333334)"
   style="fill:#401B5C;fill-opacity:1">
	<rect
   x="0"
   y="0"
   class="st0"
   width="57.599998"
   height="364.25"
   id="rect1446"
   style="fill:#401B5C;fill-opacity:1" />
</g>
<g
   id="Layer_2"
   transform="scale(1.3333334)"
   style="fill:#e0c490;fill-opacity:1">
	<g
   id="g1451"
   style="fill:#e0c490;fill-opacity:1">
		<path
   class="st1"
   d="M 25.55,245.08 H 3.25 V 123.02 h 22.29 v 122.06 z m -19.3,-3 H 22.54 V 126.02 H 6.25 Z"
   id="path1449"
   style="fill:#e0c490;fill-opacity:1" />
	</g>
	<g
   id="g1455"
   style="fill:#e0c490;fill-opacity:1">
		<path
   class="st1"
   d="M 54.35,245.08 H 32.05 V 123.02 h 22.29 v 122.06 z m -19.3,-3 H 51.34 V 126.02 H 35.05 Z"
   id="path1453"
   style="fill:#e0c490;fill-opacity:1" />
	</g>
	<g
   id="g1477"
   style="fill:#e0c490;fill-opacity:1">
		<g
   id="g1459"
   style="fill:#e0c490;fill-opacity:1">
			<path
   class="st1"
   d="m 11.22,25.28 v -8.19 l 6.13,6.42 v -6.09 h 0.87 v 8.22 l -6.13,-6.42 v 6.07 h -0.87 z"
   id="path1457"
   style="fill:#e0c490;fill-opacity:1" />
		</g>
		<g
   id="g1463"
   style="fill:#e0c490;fill-opacity:1">
			<path
   class="st1"
   d="m 23.76,18.92 c -0.11,-0.21 -0.28,-0.45 -0.46,-0.59 -0.15,-0.12 -0.44,-0.27 -0.88,-0.27 -0.78,0 -1.32,0.48 -1.32,1.21 0,0.31 0.08,0.48 0.29,0.68 0.24,0.24 0.53,0.37 0.83,0.5 l 0.75,0.33 c 0.46,0.2 0.88,0.41 1.21,0.74 0.4,0.4 0.57,0.86 0.57,1.43 0,1.45 -1.07,2.42 -2.49,2.42 -0.52,0 -1.17,-0.11 -1.71,-0.64 -0.39,-0.38 -0.62,-0.92 -0.73,-1.39 l 0.85,-0.24 c 0.06,0.41 0.25,0.77 0.47,1 0.34,0.34 0.73,0.44 1.13,0.44 1.07,0 1.58,-0.77 1.58,-1.56 0,-0.35 -0.11,-0.66 -0.39,-0.92 -0.22,-0.21 -0.53,-0.35 -0.94,-0.54 l -0.71,-0.33 c -0.31,-0.14 -0.7,-0.31 -1.05,-0.65 -0.34,-0.33 -0.54,-0.7 -0.54,-1.28 0,-1.21 0.93,-2.03 2.2,-2.03 0.48,0 0.87,0.09 1.26,0.35 0.32,0.21 0.59,0.53 0.77,0.87 z"
   id="path1461"
   style="fill:#e0c490;fill-opacity:1" />
		</g>
		<g
   id="g1467"
   style="fill:#e0c490;fill-opacity:1">
			<path
   class="st1"
   d="m 27.79,18.24 v 7.04 h -0.87 v -7.04 h -1.91 v -0.83 h 4.69 v 0.83 z"
   id="path1465"
   style="fill:#e0c490;fill-opacity:1" />
		</g>
		<g
   id="g1471"
   style="fill:#e0c490;fill-opacity:1">
			<path
   class="st1"
   d="m 32.14,17.41 c 0.53,0 1.32,0.04 1.91,0.44 0.46,0.31 0.86,0.91 0.86,1.74 0,1.2 -0.79,2.09 -1.98,2.17 l 2.5,3.51 h -1.06 l -2.39,-3.44 h -0.22 v 3.44 h -0.87 v -7.86 z m -0.39,3.65 h 0.55 c 1.08,0 1.73,-0.52 1.73,-1.44 0,-0.44 -0.13,-0.87 -0.62,-1.16 -0.35,-0.2 -0.75,-0.22 -1.13,-0.22 h -0.53 z"
   id="path1469"
   style="fill:#e0c490;fill-opacity:1" />
		</g>
		<g
   id="g1475"
   style="fill:#e0c490;fill-opacity:1">
			<path
   class="st1"
   d="m 37.67,22.23 c 0,0.66 0,1.38 0.62,1.91 0.32,0.27 0.86,0.45 1.3,0.45 0.44,0 0.98,-0.18 1.3,-0.45 0.62,-0.53 0.62,-1.25 0.62,-1.91 v -4.82 h 0.87 v 5.06 c 0,0.66 -0.07,1.3 -0.5,1.89 -0.47,0.65 -1.3,1.06 -2.3,1.06 -1,0 -1.83,-0.41 -2.3,-1.06 -0.42,-0.59 -0.5,-1.23 -0.5,-1.89 v -5.06 h 0.87 v 4.82 z"
   id="path1473"
   style="fill:#e0c490;fill-opacity:1" />
		</g>
	</g>
	<g
   id="g1481"
   style="fill:#e0c490;fill-opacity:1">
		<path
   class="st1"
   d="m 46.41,19.28 c -1.79,0 -3.1,1.35 -3.1,3.17 0,1.83 1.32,3.16 3.1,3.16 1.78,0 3.1,-1.33 3.1,-3.16 0,-1.82 -1.31,-3.17 -3.1,-3.17 z m 0,5.4 c -1.04,0 -2.06,-0.75 -2.06,-2.23 0,-1.46 0.99,-2.25 2.06,-2.25 1.07,0 2.06,0.77 2.06,2.25 0,1.47 -1,2.23 -2.06,2.23 z"
   id="path1479"
   style="fill:#e0c490;fill-opacity:1" />
	</g>
	<g
   id="g1485"
   style="fill:#e0c490;fill-opacity:1">
		<rect
   x="43.310001"
   y="17.370001"
   class="st1"
   width="6.27"
   height="0.87"
   id="rect1483"
   style="fill:#e0c490;fill-opacity:1" />
	</g>
	<g
   id="g1489"
   style="fill:#e0c490;fill-opacity:1">
		<polygon
   class="st1"
   points="9.35,17.32 9.02,18.57 9.02,24.03 9.35,25.28 8.02,25.28 8.35,24.03 8.35,18.57 8.02,17.32 "
   id="polygon1487"
   style="fill:#e0c490;fill-opacity:1" />
	</g>
	<g
   id="g1495"
   style="fill:#e0c490;fill-opacity:1">
		<g
   id="g1493"
   style="fill:#e0c490;fill-opacity:1">
			<rect
   y="343.35001"
   class="st1"
   width="57.599998"
   height="3"
   id="rect1491"
   x="0"
   style="fill:#e0c490;fill-opacity:1" />
		</g>
	</g>
	<g
   id="g1513"
   style="fill:#e0c490;fill-opacity:1">
		<g
   id="g1499"
   style="fill:#e0c490;fill-opacity:1">
			<path
   class="st1"
   d="m 35.5,355.31 c -0.51,-0.65 -1.26,-0.84 -1.76,-0.84 -1.04,0 -1.99,0.73 -1.99,2.1 0,1.37 0.97,2.08 1.97,2.08 0.58,0 1.3,-0.26 1.81,-0.88 v 1.16 c -0.61,0.45 -1.26,0.58 -1.78,0.58 -1.74,0 -3,-1.24 -3,-2.93 0,-1.72 1.27,-2.97 3,-2.97 0.89,0 1.47,0.35 1.74,0.54 v 1.16 z"
   id="path1497"
   style="fill:#e0c490;fill-opacity:1" />
		</g>
		<g
   id="g1503"
   style="fill:#e0c490;fill-opacity:1">
			<path
   class="st1"
   d="M 37.02,353.75 H 38 v 0.65 c 0.18,-0.23 0.68,-0.78 1.61,-0.78 0.66,0 1.27,0.27 1.61,0.77 0.28,0.42 0.32,0.88 0.32,1.5 v 3.47 h -0.97 v -3.45 c 0,-0.34 -0.03,-0.73 -0.26,-1.03 -0.19,-0.24 -0.49,-0.41 -0.92,-0.41 -0.34,0 -0.7,0.09 -0.99,0.43 -0.38,0.45 -0.41,1.11 -0.41,1.51 v 2.93 h -0.97 z"
   id="path1501"
   style="fill:#e0c490;fill-opacity:1" />
		</g>
		<g
   id="g1507"
   style="fill:#e0c490;fill-opacity:1">
			<path
   class="st1"
   d="m 43.02,356.57 c 0,-1.7 1.26,-2.96 2.97,-2.96 1.71,0 2.97,1.26 2.97,2.96 0,1.7 -1.27,2.95 -2.97,2.95 -1.7,0 -2.97,-1.25 -2.97,-2.95 z m 0.94,-4.96 h 4.08 v 0.81 h -4.08 z m 0.06,4.96 c 0,1.38 0.97,2.08 1.97,2.08 1.01,0 1.97,-0.72 1.97,-2.08 0,-1.38 -0.95,-2.1 -1.97,-2.1 -1.02,0 -1.97,0.74 -1.97,2.1 z"
   id="path1505"
   style="fill:#e0c490;fill-opacity:1" />
		</g>
		<g
   id="g1511"
   style="fill:#e0c490;fill-opacity:1">
			<path
   class="st1"
   d="m 54.85,355.31 c -0.51,-0.65 -1.26,-0.84 -1.76,-0.84 -1.04,0 -1.99,0.73 -1.99,2.1 0,1.37 0.97,2.08 1.97,2.08 0.58,0 1.3,-0.26 1.81,-0.88 v 1.16 c -0.61,0.45 -1.26,0.58 -1.78,0.58 -1.74,0 -3,-1.24 -3,-2.93 0,-1.72 1.27,-2.97 3,-2.97 0.89,0 1.47,0.35 1.74,0.54 v 1.16 z"
   id="path1509"
   style="fill:#e0c490;fill-opacity:1" />
		</g>
	</g>
	<g
   id="g1519"
   style="fill:#e0c490;fill-opacity:1">
		<g
   id="g1517"
   style="fill:#e0c490;fill-opacity:1">
			<path
   class="st1"
   d="M 6.69,251.07 H 4.94 l -0.49,1.16 H 3.94 l 1.89,-4.31 1.84,4.31 h -0.5 z m -0.17,-0.43 -0.7,-1.64 -0.7,1.65 h 1.4 z"
   id="path1515"
   style="fill:#e0c490;fill-opacity:1" />
		</g>
	</g>
	<g
   id="g1529"
   style="fill:#e0c490;fill-opacity:1">
		<g
   id="g1523"
   style="fill:#e0c490;fill-opacity:1">
			<path
   class="st1"
   d="m 50.71,335.96 v 4.11 h -0.46 v -4.11 z"
   id="path1521"
   style="fill:#e0c490;fill-opacity:1" />
		</g>
		<g
   id="g1527"
   style="fill:#e0c490;fill-opacity:1">
			<path
   class="st1"
   d="m 51.77,340.07 v -4.28 l 3.21,3.36 v -3.19 h 0.46 v 4.3 l -3.21,-3.36 v 3.17 z"
   id="path1525"
   style="fill:#e0c490;fill-opacity:1" />
		</g>
	</g>
	<g
   id="g1535"
   style="fill:#e0c490;fill-opacity:1">
		<g
   id="g1533"
   style="fill:#e0c490;fill-opacity:1">
			<path
   class="st1"
   d="m 51.47,248.12 c 0.28,0 0.69,0.02 1,0.23 0.24,0.16 0.45,0.47 0.45,0.91 0,0.63 -0.41,1.09 -1.04,1.13 l 1.31,1.84 h -0.55 l -1.25,-1.8 h -0.12 v 1.8 h -0.46 v -4.11 z m -0.2,1.9 h 0.29 c 0.57,0 0.91,-0.27 0.91,-0.75 0,-0.23 -0.07,-0.46 -0.33,-0.6 -0.19,-0.1 -0.39,-0.12 -0.59,-0.12 h -0.28 z"
   id="path1531"
   style="fill:#e0c490;fill-opacity:1" />
		</g>
	</g>
	<g
   id="g1539"
   style="fill:#e0c490;fill-opacity:1">
		<path
   class="st1"
   d="m 14.4,333.74 c -5.01,0 -9.09,-4.08 -9.09,-9.09 0,-5.01 4.08,-9.09 9.09,-9.09 5.01,0 9.09,4.08 9.09,9.09 0,5.01 -4.08,9.09 -9.09,9.09 z m 0,-17.17 c -4.46,0 -8.09,3.63 -8.09,8.09 0,4.46 3.63,8.09 8.09,8.09 4.46,0 8.09,-3.63 8.09,-8.09 0,-4.46 -3.63,-8.09 -8.09,-8.09 z"
   id="path1537"
   style="fill:#e0c490;fill-opacity:1" />
	</g>
	<g
   id="g1543"
   style="fill:#e0c490;fill-opacity:1">
		<path
   class="st1"
   d="m 43.2,280.48 c -7.41,0 -13.43,-6.02 -13.43,-13.43 0,-7.41 6.02,-13.43 13.43,-13.43 7.41,0 13.43,6.02 13.43,13.43 0,7.41 -6.02,13.43 -13.43,13.43 z m 0,-26.26 c -7.07,0 -12.83,5.76 -12.83,12.83 0,7.07 5.76,12.83 12.83,12.83 7.07,0 12.83,-5.76 12.83,-12.83 0,-7.07 -5.76,-12.83 -12.83,-12.83 z"
   id="path1541"
   style="fill:#e0c490;fill-opacity:1" />
	</g>
	<g
   id="g1547"
   style="fill:#e0c490;fill-opacity:1">
		<path
   class="st1"
   d="m 14.4,280.48 c -7.41,0 -13.43,-6.02 -13.43,-13.43 0,-7.41 6.02,-13.43 13.43,-13.43 7.41,0 13.43,6.02 13.43,13.43 0,7.41 -6.02,13.43 -13.43,13.43 z m 0,-26.26 c -7.07,0 -12.83,5.76 -12.83,12.83 0,7.07 5.76,12.83 12.83,12.83 7.07,0 12.83,-5.76 12.83,-12.83 0,-7.07 -5.76,-12.83 -12.83,-12.83 z"
   id="path1545"
   style="fill:#e0c490;fill-opacity:1" />
	</g>
	<g
   id="g1561"
   style="fill:#e0c490;fill-opacity:1">
		<g
   id="g1551"
   style="fill:#e0c490;fill-opacity:1">
			<path
   class="st1"
   d="m 23.56,30.07 c 0,-1.19 0.93,-2.07 2.08,-2.07 1.15,0 2.08,0.88 2.08,2.07 0,1.19 -0.92,2.07 -2.08,2.07 -1.16,0 -2.08,-0.88 -2.08,-2.07 z m 0.45,0 c 0,0.92 0.73,1.65 1.63,1.65 0.9,0 1.62,-0.73 1.62,-1.65 0,-0.92 -0.73,-1.65 -1.62,-1.65 -0.9,0 -1.63,0.73 -1.63,1.65 z"
   id="path1549"
   style="fill:#e0c490;fill-opacity:1" />
		</g>
		<g
   id="g1555"
   style="fill:#e0c490;fill-opacity:1">
			<path
   class="st1"
   d="m 28.98,30.52 c 0,0.34 0,0.7 0.32,0.97 0.16,0.14 0.44,0.23 0.66,0.23 0.22,0 0.5,-0.09 0.66,-0.23 0.32,-0.27 0.32,-0.63 0.32,-0.97 v -2.45 h 0.44 v 2.57 c 0,0.33 -0.04,0.66 -0.25,0.96 -0.24,0.33 -0.66,0.54 -1.17,0.54 -0.51,0 -0.93,-0.21 -1.17,-0.54 -0.22,-0.3 -0.25,-0.62 -0.25,-0.96 v -2.57 h 0.44 z"
   id="path1553"
   style="fill:#e0c490;fill-opacity:1" />
		</g>
		<g
   id="g1559"
   style="fill:#e0c490;fill-opacity:1">
			<path
   class="st1"
   d="m 33.4,28.48 v 3.58 h -0.44 v -3.58 h -0.97 v -0.42 h 2.39 v 0.42 z"
   id="path1557"
   style="fill:#e0c490;fill-opacity:1" />
		</g>
	</g>
	<g
   id="g1579"
   style="fill:#e0c490;fill-opacity:1">
		<g
   id="g1565"
   style="fill:#e0c490;fill-opacity:1">
			<path
   class="st1"
   d="m 44.83,62.57 h 1.67 v 0.1 c 0,0.44 -0.13,0.92 -0.38,1.27 -0.12,0.16 -0.57,0.72 -1.49,0.72 -1.19,0 -2.07,-0.91 -2.07,-2.07 0,-1.16 0.89,-2.07 2.09,-2.07 0.38,0 0.83,0.1 1.22,0.4 0.18,0.14 0.35,0.32 0.46,0.47 L 46,61.69 c -0.11,-0.16 -0.25,-0.31 -0.38,-0.41 -0.19,-0.16 -0.49,-0.34 -0.97,-0.34 -0.97,0 -1.64,0.73 -1.64,1.66 0,1.09 0.87,1.64 1.63,1.64 0.53,0 1,-0.27 1.22,-0.67 0.07,-0.13 0.15,-0.32 0.16,-0.57 h -1.19 z"
   id="path1563"
   style="fill:#e0c490;fill-opacity:1" />
		</g>
		<g
   id="g1569"
   style="fill:#e0c490;fill-opacity:1">
			<path
   class="st1"
   d="m 49.52,63.46 h -1.7 l -0.48,1.13 h -0.49 l 1.84,-4.19 1.79,4.19 h -0.49 z m -0.17,-0.42 -0.67,-1.6 -0.68,1.6 z"
   id="path1567"
   style="fill:#e0c490;fill-opacity:1" />
		</g>
		<g
   id="g1573"
   style="fill:#e0c490;fill-opacity:1">
			<path
   class="st1"
   d="m 51.76,61 v 3.58 H 51.32 V 61 h -0.97 v -0.42 h 2.39 V 61 Z"
   id="path1571"
   style="fill:#e0c490;fill-opacity:1" />
		</g>
		<g
   id="g1577"
   style="fill:#e0c490;fill-opacity:1">
			<path
   class="st1"
   d="m 55.41,61 h -1.63 v 1.19 h 1.58 v 0.42 h -1.58 v 1.55 h 1.63 v 0.42 h -2.08 v -4 h 2.08 z"
   id="path1575"
   style="fill:#e0c490;fill-opacity:1" />
		</g>
	</g>
	<g
   id="g1593"
   style="fill:#e0c490;fill-opacity:1">
		<g
   id="g1583"
   style="fill:#e0c490;fill-opacity:1">
			<path
   class="st1"
   d="M 4.7,61 H 3.07 v 1.19 h 1.58 v 0.42 H 3.07 v 1.55 H 4.7 v 0.42 H 2.62 v -4 H 4.7 Z"
   id="path1581"
   style="fill:#e0c490;fill-opacity:1" />
		</g>
		<g
   id="g1587"
   style="fill:#e0c490;fill-opacity:1">
			<path
   class="st1"
   d="m 5.3,62.59 c 0,-1.19 0.93,-2.07 2.08,-2.07 1.15,0 2.08,0.88 2.08,2.07 0,1.19 -0.92,2.07 -2.08,2.07 -1.16,0 -2.08,-0.89 -2.08,-2.07 z m 0.46,0 c 0,0.92 0.73,1.65 1.63,1.65 0.9,0 1.62,-0.73 1.62,-1.65 0,-0.92 -0.73,-1.65 -1.62,-1.65 -0.91,0 -1.63,0.73 -1.63,1.65 z"
   id="path1585"
   style="fill:#e0c490;fill-opacity:1" />
		</g>
		<g
   id="g1591"
   style="fill:#e0c490;fill-opacity:1">
			<path
   class="st1"
   d="m 13.34,61.46 c -0.13,-0.13 -0.32,-0.28 -0.52,-0.37 -0.21,-0.1 -0.46,-0.16 -0.69,-0.16 -0.92,0 -1.61,0.74 -1.61,1.67 0,1.08 0.88,1.63 1.61,1.63 0.27,0 0.53,-0.08 0.74,-0.19 0.23,-0.11 0.39,-0.26 0.46,-0.33 v 0.55 c -0.44,0.32 -0.91,0.39 -1.21,0.39 -1.19,0 -2.07,-0.9 -2.07,-2.06 0,-1.19 0.89,-2.08 2.09,-2.08 0.24,0 0.7,0.03 1.18,0.4 v 0.55 z"
   id="path1589"
   style="fill:#e0c490;fill-opacity:1" />
		</g>
	</g>
	<g
   id="g1599"
   style="fill:#e0c490;fill-opacity:1">
		<g
   id="g1597"
   style="fill:#e0c490;fill-opacity:1">
			<path
   class="st1"
   d="M 1.83,29.51 H 3.17 V 28.24 H 3.7 v 1.27 H 5.04 V 30 H 3.71 v 1.27 H 3.18 V 30 H 1.83 Z m 0,2.07 h 3.22 v 0.49 H 1.83 Z"
   id="path1595"
   style="fill:#e0c490;fill-opacity:1" />
		</g>
	</g>
	<g
   id="g1605"
   style="fill:#e0c490;fill-opacity:1">
		<g
   id="g1603"
   style="fill:#e0c490;fill-opacity:1">
			<path
   class="st1"
   d="m 52.96,29.35 h 1.34 v -1.28 h 0.53 v 1.28 h 1.34 v 0.49 h -1.34 v 1.28 H 54.3 v -1.28 h -1.34 z"
   id="path1601"
   style="fill:#e0c490;fill-opacity:1" />
		</g>
	</g>
	<g
   id="g1615"
   style="fill:#e0c490;fill-opacity:1">
		<g
   id="g1609"
   style="fill:#e0c490;fill-opacity:1">
			<path
   class="st1"
   d="m 49.86,302.48 c -0.15,0 -0.3,-0.01 -0.45,-0.02 -1.16,-0.12 -2.21,-0.68 -2.95,-1.59 -0.74,-0.91 -1.08,-2.04 -0.97,-3.21 0.12,-1.16 0.68,-2.21 1.59,-2.95 0.9,-0.74 2.04,-1.08 3.21,-0.97 1.17,0.12 2.21,0.68 2.95,1.58 l -0.63,0.52 c -0.6,-0.74 -1.46,-1.19 -2.4,-1.29 -0.95,-0.1 -1.88,0.19 -2.61,0.79 -0.74,0.6 -1.19,1.46 -1.29,2.4 -0.09,0.95 0.18,1.87 0.79,2.61 0.6,0.74 1.46,1.19 2.4,1.29 0.94,0.09 1.87,-0.18 2.61,-0.79 0.49,-0.4 0.86,-0.92 1.08,-1.52 l 0.77,0.28 c -0.27,0.73 -0.73,1.38 -1.33,1.87 -0.8,0.65 -1.77,1 -2.77,1 z"
   id="path1607"
   style="fill:#e0c490;fill-opacity:1" />
		</g>
		<g
   id="g1613"
   style="fill:#e0c490;fill-opacity:1">
			<polygon
   class="st1"
   points="50.78,295.17 52.76,295.37 52.12,293.48 52.89,293.21 53.95,296.3 50.7,295.98 "
   id="polygon1611"
   style="fill:#e0c490;fill-opacity:1" />
		</g>
	</g>
	<g
   id="g1619"
   style="fill:#e0c490;fill-opacity:1">
		<path
   class="st1"
   d="m 14.5,301.78 -0.33,-0.23 c -1.33,-0.92 -1.36,-1.29 -1.36,-6.95 H 7.14 c -0.46,0 -0.92,0.79 -0.92,6.61 v 0.41 H 5.41 v -0.41 c 0,-6.4 0.51,-7.43 1.74,-7.43 h 6.47 v 0.41 c 0,5.98 0.02,6 1.01,6.68 l 0.33,0.23 z"
   id="path1617"
   style="fill:#e0c490;fill-opacity:1" />
	</g>
	<g
   id="g1623"
   style="fill:#e0c490;fill-opacity:1">
		<path
   class="st1"
   d="m 31.18,287.55 -0.28,-0.3 c -1.83,-1.94 -1.96,-4.72 -2.05,-7.69 -1.71,0.67 -2.04,3.09 -2.04,7.41 v 0.41 H 26 v -0.41 c 0,-4.23 0.24,-7.77 3.17,-8.34 l 0.47,-0.09 0.02,0.74 c 0.09,3.03 0.16,5.64 1.83,7.41 l 0.28,0.3 z"
   id="path1621"
   style="fill:#e0c490;fill-opacity:1" />
	</g>
	<g
   id="g1627"
   style="fill:#e0c490;fill-opacity:1">
		<rect
   x="41.32"
   y="243.58"
   class="st1"
   width="3"
   height="10.34"
   id="rect1625"
   style="fill:#e0c490;fill-opacity:1" />
	</g>
	<g
   id="g1631"
   style="fill:#e0c490;fill-opacity:1">
		<rect
   x="13.22"
   y="243.58"
   class="st1"
   width="3"
   height="10.38"
   id="rect1629"
   style="fill:#e0c490;fill-opacity:1" />
	</g>
	<g
   id="g1635"
   style="fill:#e0c490;fill-opacity:1">
		<path
   class="st2"
   d="M 22.83,113.54 H 5.97 v -9.77 h 16.87 v 9.77 z m -15.86,-1 h 14.87 v -7.77 H 6.97 Z"
   id="path1633"
   style="fill:#e0c490;fill-opacity:1" />
	</g>
	<g
   id="g1639"
   style="fill:#e0c490;fill-opacity:1">
		<polygon
   class="st2"
   points="6.62,95.23 10.52,100.87 10.02,101.22 6.62,96.3 3.22,101.22 2.72,100.87 "
   id="polygon1637"
   style="fill:#e0c490;fill-opacity:1" />
	</g>
	<g
   id="g1643"
   style="fill:#e0c490;fill-opacity:1">
		<path
   class="st2"
   d="m 26.4,101.53 c -2.36,-0.54 -3.56,-2.26 -3.86,-5.55 -1.84,0.19 -3.05,2.25 -3.05,5.24 h -0.63 c 0,-3.52 1.59,-5.89 3.97,-5.89 h 0.29 l 0.02,0.29 c 0.24,3.21 1.26,4.8 3.4,5.29 z"
   id="path1641"
   style="fill:#e0c490;fill-opacity:1" />
	</g>
	<g
   id="g1647"
   style="fill:#e0c490;fill-opacity:1">
		<polygon
   class="st1"
   points="15.14,65.89 1.64,65.89 1.64,65.48 14.73,65.48 14.73,60.19 16.61,60.19 16.61,65.9 16.21,65.9 16.21,60.59 15.14,60.59 "
   id="polygon1645"
   style="fill:#e0c490;fill-opacity:1" />
	</g>
	<g
   id="g1651"
   style="fill:#e0c490;fill-opacity:1">
		
			<rect
   x="28.469999"
   y="50.470001"
   transform="matrix(0.6214,-0.7835,0.7835,0.6214,-25.7194,48.7248)"
   class="st3"
   width="18.18"
   height="1"
   id="rect1649"
   style="fill:#e0c490;fill-opacity:1" />
	</g>
	<g
   id="g1655"
   style="fill:#e0c490;fill-opacity:1">
		<path
   class="st4"
   d="M 31.91,58.09"
   id="path1653"
   style="fill:#e0c490;fill-opacity:1" />
	</g>
	<g
   id="g1659"
   style="fill:#e0c490;fill-opacity:1">
		
			<rect
   x="10.87"
   y="72.370003"
   transform="matrix(0.6214,-0.7835,0.7835,0.6214,-49.4566,43.4089)"
   class="st3"
   width="18.620001"
   height="1"
   id="rect1657"
   style="fill:#e0c490;fill-opacity:1" />
	</g>
	<g
   id="g1663"
   style="fill:#e0c490;fill-opacity:1">
		
			<rect
   x="37.139999"
   y="63.73"
   transform="matrix(0.7797,-0.6261,0.6261,0.7797,-37.2831,39.5978)"
   class="st3"
   width="1"
   height="18.120001"
   id="rect1661"
   style="fill:#e0c490;fill-opacity:1" />
	</g>
	<g
   id="g1667"
   style="fill:#e0c490;fill-opacity:1">
		
			<rect
   x="19.629999"
   y="41.84"
   transform="matrix(0.7797,-0.6261,0.6261,0.7797,-27.4912,23.8368)"
   class="st3"
   width="1"
   height="18.299999"
   id="rect1665"
   style="fill:#e0c490;fill-opacity:1" />
	</g>
	<g
   id="g1671"
   style="fill:#e0c490;fill-opacity:1">
		<path
   class="st3"
   d="m 28.8,67.61 c -3.18,0 -5.76,-2.58 -5.76,-5.76 0,-3.18 2.58,-5.76 5.76,-5.76 3.18,0 5.76,2.58 5.76,5.76 0,3.18 -2.58,5.76 -5.76,5.76 z m 0,-10.37 c -2.54,0 -4.62,2.07 -4.62,4.62 0,2.55 2.07,4.62 4.62,4.62 2.55,0 4.62,-2.07 4.62,-4.62 0,-2.55 -2.08,-4.62 -4.62,-4.62 z"
   id="path1669"
   style="fill:#e0c490;fill-opacity:1" />
	</g>
	<g
   id="g1675"
   style="fill:#e0c490;fill-opacity:1">
		<rect
   x="42.700001"
   y="79.849998"
   class="st3"
   width="1"
   height="21.719999"
   id="rect1673"
   style="fill:#e0c490;fill-opacity:1" />
	</g>
	<g
   id="g1679"
   style="fill:#e0c490;fill-opacity:1">
		<polygon
   class="st3"
   points="33.52,117.62 37.84,113.31 38.54,114.01 33.94,118.62 17.19,118.62 14.9,120.91 14.9,123.9 13.9,123.9 13.9,120.49 16.77,117.62 "
   id="polygon1677"
   style="fill:#e0c490;fill-opacity:1" />
	</g>
	<g
   id="g1683"
   style="fill:#e0c490;fill-opacity:1">
		<rect
   x="42.700001"
   y="115.74"
   class="st3"
   width="1"
   height="8.7799997"
   id="rect1681"
   style="fill:#e0c490;fill-opacity:1" />
	</g>
</g>
</svg>
