<?xml version="1.0" encoding="UTF-8" standalone="no"?>
<!-- Generator: Adobe Illustrator 26.2.0, SVG Export Plug-In . SVG Version: 6.00 Build 0)  -->

<svg
   version="1.1"
   x="0px"
   y="0px"
   viewBox="0 0 268.8 485.66929"
   xml:space="preserve"
   id="svg3932"
   sodipodi:docname="cruinn.svg"
   width="71.120003mm"
   height="128.5mm"
   inkscape:version="1.1.2 (0a00cf5339, 2022-02-04)"
   xmlns:inkscape="http://www.inkscape.org/namespaces/inkscape"
   xmlns:sodipodi="http://sodipodi.sourceforge.net/DTD/sodipodi-0.dtd"
   xmlns="http://www.w3.org/2000/svg"
   xmlns:svg="http://www.w3.org/2000/svg"><defs
   id="defs3936" /><sodipodi:namedview
   id="namedview3934"
   pagecolor="#FDDEA2fff"
   bordercolor="#000000"
   borderopacity="0.25"
   inkscape:showpageshadow="2"
   inkscape:pageopacity="0.0"
   inkscape:pagecheckerboard="0"
   inkscape:deskcolor="#d1d1d1"
   showgrid="false"
   inkscape:document-units="mm"
   inkscape:zoom="18.796726"
   inkscape:cx="231.60948"
   inkscape:cy="64.372911"
   inkscape:window-width="2560"
   inkscape:window-height="1403"
   inkscape:window-x="0"
   inkscape:window-y="0"
   inkscape:window-maximized="1"
   inkscape:current-layer="Layer_2"
   inkscape:pageshadow="2" />
<style
   type="text/css"
   id="style3398">
	.st0{fill:#401B5C;}
	.st1{fill:#E0C590;}
	.st2{fill:#E1C590;}
	.st3{fill:none;stroke:#E0C590;stroke-width:1.1;stroke-miterlimit:10;}
</style>
<g
   id="BG"
   transform="matrix(1.3333333,0,0,1.3333406,0,-0.04666768)"
   style="fill:#401B5C;fill-opacity:1">
	<rect
   x="0"
   y="0.14"
   class="st0"
   width="201.60001"
   height="364.25"
   id="rect3400"
   style="fill:#401B5C;fill-opacity:1" />
</g>
<g
   id="Layer_2"
   transform="matrix(1.3333333,0,0,1.3333406,0,-0.04666768)"
   style="fill:#e1c590;fill-opacity:1">
	<g
   id="g3405"
   style="fill:#e1c590;fill-opacity:1">
		<path
   class="st1"
   d="m 19.8,206.09 c -4.1,0 -7.44,-3.34 -7.44,-7.44 0,-4.1 3.34,-7.44 7.44,-7.44 4.1,0 7.44,3.34 7.44,7.44 0,4.1 -3.34,7.44 -7.44,7.44 z m 0,-14.17 c -3.71,0 -6.73,3.02 -6.73,6.73 0,3.71 3.02,6.73 6.73,6.73 3.71,0 6.73,-3.02 6.73,-6.73 0,-3.71 -3.02,-6.73 -6.73,-6.73 z"
   id="path3403"
   style="fill:#e1c590;fill-opacity:1" />
	</g>
	<g
   id="g3409"
   style="fill:#e1c590;fill-opacity:1">
		<path
   class="st1"
   d="m 19.83,279.89 c -4.1,0 -7.44,-3.34 -7.44,-7.44 0,-4.1 3.34,-7.44 7.44,-7.44 4.1,0 7.44,3.34 7.44,7.44 0,4.1 -3.34,7.44 -7.44,7.44 z m 0,-14.17 c -3.71,0 -6.73,3.02 -6.73,6.73 0,3.71 3.02,6.73 6.73,6.73 3.71,0 6.73,-3.02 6.73,-6.73 0,-3.71 -3.02,-6.73 -6.73,-6.73 z"
   id="path3407"
   style="fill:#e1c590;fill-opacity:1" />
	</g>
	<g
   id="g3413"
   style="fill:#e1c590;fill-opacity:1">
		<path
   class="st1"
   d="m 19.8,279.89 c -4.1,0 -7.44,-3.34 -7.44,-7.44 0,-4.1 3.34,-7.44 7.44,-7.44 4.1,0 7.44,3.34 7.44,7.44 0,4.1 -3.34,7.44 -7.44,7.44 z m 0,-14.17 c -3.71,0 -6.73,3.02 -6.73,6.73 0,3.71 3.02,6.73 6.73,6.73 3.71,0 6.73,-3.02 6.73,-6.73 0,-3.71 -3.02,-6.73 -6.73,-6.73 z"
   id="path3411"
   style="fill:#e1c590;fill-opacity:1" />
	</g>
	<g
   id="g3417"
   style="fill:#e1c590;fill-opacity:1">
		<path
   class="st1"
   d="m 142.43,91.07 c -1.39,-1.66 -2.66,-2.84 -4.66,-4.37 l 0.53,-0.98 0.08,0.06 c 1.77,1.35 3.25,2.62 4.9,4.58 z"
   id="path3415"
   style="fill:#e1c590;fill-opacity:1" />
	</g>
	<g
   id="g3421"
   style="fill:#e1c590;fill-opacity:1">
		<path
   class="st1"
   d="m 148.94,103.13 c -0.64,-2.28 -1.4,-4.14 -2.54,-6.23 l 0.96,-0.53 c 1.17,2.14 1.98,4.13 2.64,6.46 z"
   id="path3419"
   style="fill:#e1c590;fill-opacity:1" />
	</g>
	<g
   id="g3425"
   style="fill:#e1c590;fill-opacity:1">
		<path
   class="st1"
   d="m 150.78,116.82 -1.09,-0.18 c 0.18,-1.08 0.3,-2.2 0.36,-3.32 0.06,-1.15 0.06,-2.31 0,-3.45 l 1.1,-0.06 c 0.06,1.18 0.06,2.38 0,3.57 -0.06,1.16 -0.19,2.32 -0.37,3.44 z"
   id="path3423"
   style="fill:#e1c590;fill-opacity:1" />
	</g>
	<g
   id="g3429"
   style="fill:#e1c590;fill-opacity:1">
		<path
   class="st1"
   d="m 145.66,129.73 -0.91,-0.61 c 1.22,-1.81 2.26,-3.76 3.07,-5.78 l 1.02,0.41 c -0.84,2.09 -1.91,4.1 -3.18,5.98 z"
   id="path3427"
   style="fill:#e1c590;fill-opacity:1" />
	</g>
	<g
   id="g3465"
   style="fill:#e1c590;fill-opacity:1">
		<g
   id="g3451"
   style="fill:#e1c590;fill-opacity:1">
			<g
   id="g3433"
   style="fill:#e1c590;fill-opacity:1">
				<path
   class="st2"
   d="M 55.15,24.63 V 3.36 L 71.07,20.04 V 4.22 h 2.26 V 25.55 L 57.41,8.87 v 15.76 z"
   id="path3431"
   style="fill:#e1c590;fill-opacity:1" />
			</g>
			<g
   id="g3437"
   style="fill:#e1c590;fill-opacity:1">
				<path
   class="st2"
   d="M 87.71,8.13 C 87.43,7.58 86.98,6.97 86.52,6.6 86.12,6.29 85.39,5.9 84.22,5.9 c -2.02,0 -3.43,1.25 -3.43,3.15 0,0.8 0.21,1.25 0.77,1.78 0.61,0.61 1.38,0.95 2.14,1.29 l 1.96,0.86 c 1.19,0.52 2.3,1.07 3.15,1.93 1.04,1.04 1.47,2.23 1.47,3.7 0,3.76 -2.79,6.27 -6.46,6.27 -1.35,0 -3.03,-0.28 -4.44,-1.65 -1.01,-0.98 -1.62,-2.39 -1.9,-3.61 l 2.2,-0.61 c 0.15,1.07 0.64,1.99 1.22,2.6 0.89,0.89 1.9,1.13 2.94,1.13 2.79,0 4.1,-1.99 4.1,-4.04 0,-0.92 -0.28,-1.71 -1.01,-2.39 -0.58,-0.55 -1.38,-0.92 -2.45,-1.41 l -1.84,-0.86 c -0.8,-0.37 -1.81,-0.8 -2.72,-1.68 -0.89,-0.86 -1.41,-1.81 -1.41,-3.34 0,-3.15 2.42,-5.26 5.72,-5.26 1.25,0 2.26,0.24 3.27,0.92 0.83,0.55 1.53,1.38 1.99,2.26 z"
   id="path3435"
   style="fill:#e1c590;fill-opacity:1" />
			</g>
			<g
   id="g3441"
   style="fill:#e1c590;fill-opacity:1">
				<path
   class="st2"
   d="M 98.18,6.36 V 24.63 H 95.92 V 6.36 H 90.96 V 4.22 h 12.18 v 2.14 z"
   id="path3439"
   style="fill:#e1c590;fill-opacity:1" />
			</g>
			<g
   id="g3445"
   style="fill:#e1c590;fill-opacity:1">
				<path
   class="st2"
   d="m 109.47,4.22 c 1.38,0 3.43,0.09 4.96,1.13 1.19,0.8 2.23,2.36 2.23,4.53 0,3.12 -2.05,5.42 -5.14,5.63 l 6.49,9.12 h -2.75 l -6.21,-8.94 h -0.58 v 8.94 h -2.26 V 4.22 Z m -1.01,9.46 h 1.44 c 2.82,0 4.5,-1.35 4.5,-3.73 0,-1.13 -0.34,-2.27 -1.62,-3 -0.92,-0.52 -1.96,-0.58 -2.94,-0.58 h -1.38 z"
   id="path3443"
   style="fill:#e1c590;fill-opacity:1" />
			</g>
			<g
   id="g3449"
   style="fill:#e1c590;fill-opacity:1">
				<path
   class="st2"
   d="m 123.83,16.74 c 0,1.71 0,3.58 1.62,4.96 0.83,0.7 2.23,1.16 3.37,1.16 1.13,0 2.54,-0.46 3.37,-1.16 1.62,-1.38 1.62,-3.24 1.62,-4.96 V 4.22 h 2.26 v 13.13 c 0,1.71 -0.18,3.37 -1.29,4.9 -1.22,1.68 -3.37,2.75 -5.97,2.75 -2.6,0 -4.74,-1.07 -5.97,-2.75 -1.1,-1.53 -1.29,-3.18 -1.29,-4.9 V 4.22 h 2.26 v 12.52 z"
   id="path3447"
   style="fill:#e1c590;fill-opacity:1" />
			</g>
		</g>
		<g
   id="g3455"
   style="fill:#e1c590;fill-opacity:1">
			<path
   class="st2"
   d="m 146.52,9.07 c -4.64,0 -8.05,3.5 -8.05,8.24 0,4.74 3.44,8.2 8.05,8.2 4.61,0 8.05,-3.46 8.05,-8.2 0,-4.74 -3.4,-8.24 -8.05,-8.24 z m 0,14.02 c -2.71,0 -5.34,-1.96 -5.34,-5.79 0,-3.8 2.56,-5.83 5.34,-5.83 2.78,0 5.34,1.99 5.34,5.83 0,3.8 -2.6,5.79 -5.34,5.79 z"
   id="path3453"
   style="fill:#e1c590;fill-opacity:1" />
		</g>
		<g
   id="g3459"
   style="fill:#e1c590;fill-opacity:1">
			<rect
   x="138.47"
   y="4.0FDBB3C"
   class="st2"
   width="16.280001"
   height="2.26"
   id="rect3457"
   style="fill:#e1c590;fill-opacity:1" />
		</g>
		<g
   id="g3463"
   style="fill:#e1c590;fill-opacity:1">
			<polygon
   class="st2"
   points="50.3,24.63 46.85,24.63 47.71,21.4 47.71,7.22 46.85,3.99 50.3,3.99 49.44,7.22 49.44,21.39 "
   id="polygon3461"
   style="fill:#e1c590;fill-opacity:1" />
		</g>
	</g>
	<g
   id="g3491"
   style="fill:#e1c590;fill-opacity:1">
		<g
   id="g3469"
   style="fill:#e1c590;fill-opacity:1">
			<path
   class="st2"
   d="m 79.98,358.26 c -0.52,0.27 -1.68,0.63 -3.16,0.63 -3.32,0 -5.47,-2.25 -5.47,-5.61 0,-3.38 2.32,-5.84 5.9,-5.84 1.18,0 2.23,0.3 2.77,0.57 l -0.45,1.54 c -0.48,-0.27 -1.23,-0.52 -2.32,-0.52 -2.52,0 -3.88,1.86 -3.88,4.16 0,2.54 1.63,4.11 3.81,4.11 1.13,0 1.88,-0.29 2.45,-0.54 z"
   id="path3467"
   style="fill:#e1c590;fill-opacity:1" />
		</g>
		<g
   id="g3473"
   style="fill:#e1c590;fill-opacity:1">
			<path
   class="st2"
   d="m 82.32,351.11 c 0,-1.29 -0.02,-2.41 -0.09,-3.43 h 1.75 l 0.07,2.16 h 0.09 c 0.5,-1.48 1.7,-2.41 3.04,-2.41 0.23,0 0.39,0.02 0.57,0.07 v 1.88 c -0.2,-0.05 -0.41,-0.07 -0.68,-0.07 -1.41,0 -2.41,1.07 -2.68,2.57 -0.05,0.27 -0.09,0.59 -0.09,0.93 v 5.86 h -1.98 z"
   id="path3471"
   style="fill:#e1c590;fill-opacity:1" />
		</g>
		<g
   id="g3477"
   style="fill:#e1c590;fill-opacity:1">
			<path
   class="st2"
   d="m 98.93,355.67 c 0,1.14 0.02,2.13 0.09,3 h -1.77 l -0.11,-1.79 H 97.1 c -0.52,0.89 -1.68,2.04 -3.63,2.04 -1.73,0 -3.79,-0.95 -3.79,-4.81 v -6.43 h 2 v 6.08 c 0,2.09 0.64,3.5 2.45,3.5 1.34,0 2.27,-0.93 2.63,-1.82 0.11,-0.29 0.18,-0.66 0.18,-1.02 v -6.74 h 2 v 7.99 z"
   id="path3475"
   style="fill:#e1c590;fill-opacity:1" />
		</g>
		<g
   id="g3481"
   style="fill:#e1c590;fill-opacity:1">
			<path
   class="st2"
   d="m 100,344.57 c 0,-0.64 0.52,-1.16 1.16,-1.16 0.64,0 1.11,0.5 1.11,1.16 0,0.61 -0.45,1.16 -1.11,1.16 -0.69,0 -1.16,-0.55 -1.16,-1.16 z m 2.24,14.1 v -10.99 h 2 v 10.99 z m 1.98,-14.1 c 0,-0.64 0.5,-1.16 1.14,-1.16 0.63,0 1.11,0.5 1.11,1.16 0,0.61 -0.45,1.16 -1.11,1.16 -0.69,0 -1.14,-0.55 -1.14,-1.16 z"
   id="path3479"
   style="fill:#e1c590;fill-opacity:1" />
		</g>
		<g
   id="g3485"
   style="fill:#e1c590;fill-opacity:1">
			<path
   class="st2"
   d="m 107.55,350.65 c 0,-1.14 -0.02,-2.07 -0.09,-2.97 h 1.77 l 0.11,1.82 h 0.04 c 0.54,-1.04 1.82,-2.07 3.63,-2.07 1.52,0 3.88,0.91 3.88,4.68 v 6.56 h -2 v -6.33 c 0,-1.77 -0.66,-3.25 -2.54,-3.25 -1.32,0 -2.34,0.93 -2.68,2.04 -0.09,0.25 -0.14,0.59 -0.14,0.93 v 6.61 h -2 v -8.02 z"
   id="path3483"
   style="fill:#e1c590;fill-opacity:1" />
		</g>
		<g
   id="g3489"
   style="fill:#e1c590;fill-opacity:1">
			<path
   class="st2"
   d="m 120.15,350.65 c 0,-1.14 -0.02,-2.07 -0.09,-2.97 h 1.77 l 0.11,1.82 h 0.05 c 0.54,-1.04 1.82,-2.07 3.63,-2.07 1.52,0 3.88,0.91 3.88,4.68 v 6.56 h -2 v -6.33 c 0,-1.77 -0.66,-3.25 -2.54,-3.25 -1.32,0 -2.34,0.93 -2.68,2.04 -0.09,0.25 -0.14,0.59 -0.14,0.93 v 6.61 h -2 v -8.02 z"
   id="path3487"
   style="fill:#e1c590;fill-opacity:1" />
		</g>
	</g>
	<g
   id="g3497"
   style="fill:#e1c590;fill-opacity:1">
		<g
   id="g3495"
   style="fill:#e1c590;fill-opacity:1">
			<rect
   y="344.03"
   class="st2"
   width="65.559998"
   height="3"
   id="rect3493"
   x="0"
   style="fill:#e1c590;fill-opacity:1" />
		</g>
	</g>
	<g
   id="g3503"
   style="fill:#e1c590;fill-opacity:1">
		<g
   id="g3501"
   style="fill:#e1c590;fill-opacity:1">
			<rect
   x="134.42"
   y="344.04999"
   class="st2"
   width="67.18"
   height="3"
   id="rect3499"
   style="fill:#e1c590;fill-opacity:1" />
		</g>
	</g>
	<g
   id="g3509"
   style="fill:#e1c590;fill-opacity:1">
		<g
   id="g3507"
   style="fill:#e1c590;fill-opacity:1">
			<path
   class="st2"
   d="m 168.92,249.13 c -5.76,0 -11.17,2.25 -15.22,6.32 -8.64,8.19 -10.42,8.25 -15.68,8.42 h -0.13 c -1.99,0.06 -6.64,0.22 -13.84,-6.38 l -0.75,-0.77 c -9.21,-8.67 -21.14,-13.44 -33.58,-13.44 -27.01,0 -48.98,21.97 -48.98,48.97 0,27.01 21.97,48.98 48.98,48.98 21.62,0 40.95,-14.49 47.03,-35.26 l 0.98,-4.03 c 2.67,-7.34 9.7,-12.27 17.5,-12.27 1.78,0 3.54,0.25 5.19,0.74 l 2.37,0.85 c 1.99,0.59 4.05,0.89 6.13,0.89 11.86,0 21.51,-9.64 21.51,-21.5 0,-11.87 -9.65,-21.52 -21.51,-21.52 z m 0,40.02 c -1.79,0 -3.54,-0.25 -5.19,-0.74 l -2.38,-0.85 c -1.99,-0.59 -4.05,-0.89 -6.12,-0.89 -9.08,0 -17.26,5.75 -20.36,14.35 l -1.02,4.17 c -5.69,19.46 -23.84,33.04 -44.13,33.04 -25.35,0 -45.98,-20.62 -45.98,-45.98 0,-25.35 20.63,-45.97 45.98,-45.97 11.67,0 22.86,4.47 31.47,12.58 l 0.77,0.78 c 8.15,7.48 13.88,7.3 16.03,7.23 l 0.13,-0.01 c 6.21,-0.19 8.6,-0.66 17.67,-9.27 3.51,-3.52 8.18,-5.46 13.13,-5.46 10.21,0 18.51,8.31 18.51,18.52 0,10.2 -8.3,18.5 -18.51,18.5 z"
   id="path3505"
   style="fill:#e1c590;fill-opacity:1" />
		</g>
	</g>
	<g
   id="g3513"
   style="fill:#e1c590;fill-opacity:1">
		<path
   class="st2"
   d="m 136.8,77.85 c -12.79,0 -23.2,-10.41 -23.2,-23.2 0,-0.87 0.04,-1.7 0.13,-2.48 1.25,-11.81 11.17,-20.72 23.07,-20.72 12.79,0 23.2,10.41 23.2,23.2 0,0.7 -0.03,1.27 -0.08,1.81 -0.91,11.99 -11.07,21.39 -23.12,21.39 z m 0,-45.4 c -11.38,0 -20.87,8.53 -22.07,19.83 -0.08,0.74 -0.13,1.54 -0.13,2.37 0,12.24 9.96,22.2 22.2,22.2 11.53,0 21.25,-9 22.12,-20.48 0.05,-0.52 0.08,-1.06 0.08,-1.72 0,-12.24 -9.96,-22.2 -22.2,-22.2 z"
   id="path3511"
   style="fill:#e1c590;fill-opacity:1" />
	</g>
	<g
   id="g3517"
   style="fill:#e1c590;fill-opacity:1">
		<path
   class="st2"
   d="m 118.8,134.8 c -12.79,0 -23.2,-10.41 -23.2,-23.2 0,-0.87 0.04,-1.7 0.13,-2.48 1.26,-11.81 11.17,-20.72 23.07,-20.72 12.79,0 23.2,10.41 23.2,23.2 0,0.69 -0.03,1.28 -0.08,1.81 -0.91,11.99 -11.07,21.39 -23.12,21.39 z m 0,-45.4 c -11.38,0 -20.87,8.53 -22.07,19.83 -0.08,0.74 -0.13,1.54 -0.13,2.37 0,12.24 9.96,22.2 22.2,22.2 11.53,0 21.25,-9 22.12,-20.48 0.05,-0.52 0.08,-1.06 0.08,-1.72 0,-12.24 -9.96,-22.2 -22.2,-22.2 z"
   id="path3515"
   style="fill:#e1c590;fill-opacity:1" />
	</g>
	
	
	<g
   id="g3529"
   style="fill:#e1c590;fill-opacity:1">
		<path
   class="st2"
   d="m 174.46,60.02 c -5.02,-0.88 -10.13,-1.68 -15.19,-2.37 l 0.13,-0.99 c 5.07,0.69 10.19,1.49 15.23,2.37 z"
   id="path3527"
   style="fill:#e1c590;fill-opacity:1" />
	</g>
	<g
   id="g3533"
   style="fill:#e1c590;fill-opacity:1">
		<path
   class="st2"
   d="m 35.47,58.84 -0.16,-0.99 c 2.07,-0.34 4.2,-0.67 6.4,-1 -0.07,-0.71 -0.11,-1.45 -0.11,-2.21 0,-0.25 0,-0.49 0.02,-0.73 0.01,-0.53 0.04,-1.12 0.11,-1.75 1.26,-11.8 11.17,-20.71 23.07,-20.71 10.94,0 20.49,7.76 22.71,18.45 l -0.98,0.2 C 84.41,39.87 75.27,32.45 64.8,32.45 c -11.38,0 -20.87,8.53 -22.07,19.83 -0.06,0.6 -0.1,1.15 -0.11,1.7 -0.02,0.24 -0.02,0.46 -0.02,0.67 0,0.89 0.05,1.76 0.16,2.57 l 0.06,0.49 -0.48,0.07 c -2.36,0.34 -4.65,0.7 -6.87,1.06 z"
   id="path3531"
   style="fill:#e1c590;fill-opacity:1" />
	</g>
	<g
   id="g3537"
   style="fill:#e1c590;fill-opacity:1">
		<path
   class="st2"
   d="m 19.8,330.26 c -9.05,0 -16.41,-7.36 -16.41,-16.41 0,-9.05 7.36,-16.41 16.41,-16.41 9.05,0 16.41,7.36 16.41,16.41 0,9.05 -7.36,16.41 -16.41,16.41 z m 0,-31.72 c -8.44,0 -15.31,6.87 -15.31,15.31 0,8.44 6.87,15.31 15.31,15.31 8.44,0 15.31,-6.87 15.31,-15.31 0,-8.44 -6.87,-15.31 -15.31,-15.31 z"
   id="path3535"
   style="fill:#e1c590;fill-opacity:1" />
	</g>
	<g
   id="g3541"
   style="fill:#e1c590;fill-opacity:1">
		<path
   class="st2"
   d="m 19.8,77.66 c -9.05,0 -16.41,-7.36 -16.41,-16.41 0,-9.05 7.36,-16.41 16.41,-16.41 9.05,0 16.41,7.36 16.41,16.41 0,9.05 -7.36,16.41 -16.41,16.41 z m 0,-31.72 c -8.44,0 -15.31,6.87 -15.31,15.31 0,8.44 6.87,15.31 15.31,15.31 8.44,0 15.31,-6.87 15.31,-15.31 0,-8.44 -6.87,-15.31 -15.31,-15.31 z"
   id="path3539"
   style="fill:#e1c590;fill-opacity:1" />
	</g>
	
	
	<g
   id="g3557"
   style="fill:#e1c590;fill-opacity:1">
		<rect
   x="191.32001"
   y="78.669998"
   class="st2"
   width="8.5699997"
   height="1.1"
   id="rect3555"
   style="fill:#e1c590;fill-opacity:1" />
	</g>
	<g
   id="g3561"
   style="fill:#e1c590;fill-opacity:1">
		
			<rect
   x="176.78"
   y="43.849998"
   transform="matrix(0.8944,-0.4473,0.4473,0.8944,-3.0377,84.4539)"
   class="st2"
   width="1.1"
   height="9.6199999"
   id="rect3559"
   style="fill:#e1c590;fill-opacity:1" />
	</g>
	<g
   id="g3565"
   style="fill:#e1c590;fill-opacity:1">
		
			<rect
   x="172.69"
   y="109.28"
   transform="matrix(0.4351,-0.9004,0.9004,0.4351,1.3883,221.8631)"
   class="st2"
   width="9.6300001"
   height="1.1"
   id="rect3563"
   style="fill:#e1c590;fill-opacity:1" />
	</g>
	<g
   id="g3569"
   style="fill:#e1c590;fill-opacity:1">
		<polygon
   class="st2"
   points="194.17,40.16 194.17,37.49 192,38.71 192,37.49 180.28,44.06 180.03,43.62 192.5,36.63 192.5,37.85 194.67,36.63 194.67,39.3 199.44,36.63 199.44,44.36 198.94,44.36 198.94,37.49 "
   id="polygon3567"
   style="fill:#e1c590;fill-opacity:1" />
	</g>
	<g
   id="g3573"
   style="fill:#e1c590;fill-opacity:1">
		<polygon
   class="st2"
   points="190.38,119.44 196.76,115.87 196.76,117.33 199.36,115.87 199.36,123.59 198.86,123.59 198.86,116.72 196.26,118.18 196.26,116.72 189.88,120.29 189.88,118.47 180.36,123.81 180.11,123.38 190.38,117.62 "
   id="polygon3571"
   style="fill:#e1c590;fill-opacity:1" />
	</g>
	<g
   id="g3599"
   style="fill:#e1c590;fill-opacity:1">
		<g
   id="g3577"
   style="fill:#e1c590;fill-opacity:1">
			<path
   class="st1"
   d="M 6.08,334.63 H 5.07 L 5.42,334 h 1.32 v 6 H 6.08 Z"
   id="path3575"
   style="fill:#e1c590;fill-opacity:1" />
		</g>
		<g
   id="g3581"
   style="fill:#e1c590;fill-opacity:1">
			<path
   class="st1"
   d="m 9.6,334 1.69,4.58 1.69,-4.58 h 0.74 L 11.29,340.37 8.87,334 Z"
   id="path3579"
   style="fill:#e1c590;fill-opacity:1" />
		</g>
		<g
   id="g3585"
   style="fill:#e1c590;fill-opacity:1">
			<path
   class="st1"
   d="m 18.42,333.17 0.52,0.27 -4.63,8.34 -0.52,-0.25 z"
   id="path3583"
   style="fill:#e1c590;fill-opacity:1" />
		</g>
		<g
   id="g3589"
   style="fill:#e1c590;fill-opacity:1">
			<path
   class="st1"
   d="m 19.58,337.01 c 0,-1.79 1.4,-3.11 3.12,-3.11 1.72,0 3.12,1.31 3.12,3.11 0,1.78 -1.39,3.11 -3.12,3.11 -1.74,0 -3.12,-1.33 -3.12,-3.11 z m 0.68,0 c 0,1.38 1.09,2.48 2.44,2.48 1.35,0 2.44,-1.1 2.44,-2.48 0,-1.38 -1.09,-2.48 -2.44,-2.48 -1.35,0 -2.44,1.1 -2.44,2.48 z"
   id="path3587"
   style="fill:#e1c590;fill-opacity:1" />
		</g>
		<g
   id="g3593"
   style="fill:#e1c590;fill-opacity:1">
			<path
   class="st1"
   d="m 31.64,335.33 c -0.19,-0.19 -0.48,-0.41 -0.78,-0.56 -0.32,-0.14 -0.68,-0.23 -1.04,-0.23 -1.39,0 -2.41,1.12 -2.41,2.5 0,1.63 1.32,2.45 2.42,2.45 0.41,0 0.8,-0.12 1.12,-0.28 0.34,-0.17 0.58,-0.4 0.69,-0.5 v 0.83 c -0.67,0.48 -1.36,0.59 -1.81,0.59 -1.78,0 -3.11,-1.35 -3.11,-3.09 0,-1.79 1.34,-3.12 3.14,-3.12 0.36,0 1.05,0.04 1.77,0.59 v 0.82 z"
   id="path3591"
   style="fill:#e1c590;fill-opacity:1" />
		</g>
		<g
   id="g3597"
   style="fill:#e1c590;fill-opacity:1">
			<path
   class="st1"
   d="m 34.34,334.63 v 5.38 h -0.67 v -5.38 H 32.21 V 334 h 3.58 v 0.63 z"
   id="path3595"
   style="fill:#e1c590;fill-opacity:1" />
		</g>
	</g>
	<g
   id="g3613"
   style="fill:#e1c590;fill-opacity:1">
		<g
   id="g3603"
   style="fill:#e1c590;fill-opacity:1">
			<path
   class="st1"
   d="m 14.1,283.15 v 5.38 h 1.66 v 0.63 h -2.32 v -6 h 0.66 z"
   id="path3601"
   style="fill:#e1c590;fill-opacity:1" />
		</g>
		<g
   id="g3607"
   style="fill:#e1c590;fill-opacity:1">
			<path
   class="st1"
   d="m 19.4,283.78 h -2.07 v 1.77 h 2 v 0.63 h -2 v 2.97 h -0.67 v -6 h 2.74 z"
   id="path3605"
   style="fill:#e1c590;fill-opacity:1" />
		</g>
		<g
   id="g3611"
   style="fill:#e1c590;fill-opacity:1">
			<path
   class="st1"
   d="m 20.24,286.16 c 0,-1.79 1.4,-3.11 3.12,-3.11 1.72,0 3.12,1.31 3.12,3.11 0,1.78 -1.39,3.11 -3.12,3.11 -1.73,-0.01 -3.12,-1.33 -3.12,-3.11 z m 0.69,0 c 0,1.38 1.09,2.48 2.44,2.48 1.35,0 2.44,-1.1 2.44,-2.48 0,-1.38 -1.09,-2.48 -2.44,-2.48 -1.36,0 -2.44,1.1 -2.44,2.48 z"
   id="path3609"
   style="fill:#e1c590;fill-opacity:1" />
		</g>
	</g>
	<g
   id="g3623"
   style="fill:#e1c590;fill-opacity:1">
		<g
   id="g3617"
   style="fill:#e1c590;fill-opacity:1">
			<path
   class="st1"
   d="m 46.36,240.06 h -2.07 v 1.77 h 2 v 0.63 h -2 v 2.97 h -0.67 v -6 h 2.74 z"
   id="path3615"
   style="fill:#e1c590;fill-opacity:1" />
		</g>
		<g
   id="g3621"
   style="fill:#e1c590;fill-opacity:1">
			<path
   class="st1"
   d="m 47.32,245.43 1,-6.34 2.3,5.07 2.35,-5.08 0.94,6.35 h -0.68 l -0.57,-4.18 -2.04,4.43 -2.02,-4.43 -0.59,4.18 z"
   id="path3619"
   style="fill:#e1c590;fill-opacity:1" />
		</g>
	</g>
	<g
   id="g3645"
   style="fill:#e1c590;fill-opacity:1">
		<g
   id="g3627"
   style="fill:#e1c590;fill-opacity:1">
			<path
   class="st1"
   d="m 92.17,57.05 v 5.38 h 1.66 v 0.63 H 91.5 v -6 h 0.67 z"
   id="path3625"
   style="fill:#e1c590;fill-opacity:1" />
		</g>
		<g
   id="g3631"
   style="fill:#e1c590;fill-opacity:1">
			<path
   class="st1"
   d="m 97.84,57.68 h -2.45 v 1.78 h 2.38 v 0.63 h -2.38 v 2.33 h 2.45 v 0.63 h -3.11 v -6 h 3.11 z"
   id="path3629"
   style="fill:#e1c590;fill-opacity:1" />
		</g>
		<g
   id="g3635"
   style="fill:#e1c590;fill-opacity:1">
			<path
   class="st1"
   d="m 99.1,57.05 1.69,4.58 1.69,-4.58 h 0.74 l -2.43,6.37 -2.43,-6.37 z"
   id="path3633"
   style="fill:#e1c590;fill-opacity:1" />
		</g>
		<g
   id="g3639"
   style="fill:#e1c590;fill-opacity:1">
			<path
   class="st1"
   d="m 107.18,57.68 h -2.45 v 1.78 h 2.38 v 0.63 h -2.38 v 2.33 h 2.45 v 0.63 h -3.12 v -6 h 3.12 z"
   id="path3637"
   style="fill:#e1c590;fill-opacity:1" />
		</g>
		<g
   id="g3643"
   style="fill:#e1c590;fill-opacity:1">
			<path
   class="st1"
   d="m 109.07,57.05 v 5.38 h 1.66 v 0.63 h -2.32 v -6 h 0.66 z"
   id="path3641"
   style="fill:#e1c590;fill-opacity:1" />
		</g>
	</g>
	<g
   id="g3655"
   style="fill:#e1c590;fill-opacity:1">
		<g
   id="g3649"
   style="fill:#e1c590;fill-opacity:1">
			<path
   class="st1"
   d="M 8.2,37.21 C 8.01,37.02 7.72,36.8 7.42,36.65 7.1,36.51 6.74,36.42 6.38,36.42 c -1.39,0 -2.41,1.12 -2.41,2.5 0,1.63 1.32,2.45 2.42,2.45 0.4,0 0.8,-0.12 1.12,-0.28 0.34,-0.17 0.59,-0.4 0.69,-0.5 v 0.83 C 7.53,41.9 6.84,42 6.39,42 4.61,42 3.28,40.65 3.28,38.91 c 0,-1.79 1.34,-3.12 3.14,-3.12 0.36,0 1.05,0.04 1.77,0.59 v 0.83 z"
   id="path3647"
   style="fill:#e1c590;fill-opacity:1" />
		</g>
		<g
   id="g3653"
   style="fill:#e1c590;fill-opacity:1">
			<path
   class="st1"
   d="m 9.46,35.89 1.69,4.58 1.69,-4.58 h 0.74 l -2.43,6.37 -2.43,-6.37 z"
   id="path3651"
   style="fill:#e1c590;fill-opacity:1" />
		</g>
	</g>
	<g
   id="g3665"
   style="fill:#e1c590;fill-opacity:1">
		<g
   id="g3659"
   style="fill:#e1c590;fill-opacity:1">
			<path
   class="st1"
   d="m 8.2,129.81 c -0.19,-0.19 -0.48,-0.41 -0.78,-0.56 -0.32,-0.14 -0.68,-0.23 -1.04,-0.23 -1.39,0 -2.41,1.12 -2.41,2.5 0,1.63 1.32,2.45 2.42,2.45 0.4,0 0.8,-0.12 1.12,-0.28 0.34,-0.17 0.59,-0.4 0.69,-0.5 v 0.83 c -0.67,0.48 -1.36,0.59 -1.81,0.59 -1.78,0 -3.11,-1.35 -3.11,-3.09 0,-1.79 1.34,-3.12 3.14,-3.12 0.36,0 1.05,0.04 1.77,0.59 v 0.82 z"
   id="path3657"
   style="fill:#e1c590;fill-opacity:1" />
		</g>
		<g
   id="g3663"
   style="fill:#e1c590;fill-opacity:1">
			<path
   class="st1"
   d="m 9.46,128.48 1.69,4.58 1.69,-4.58 h 0.74 l -2.43,6.37 -2.43,-6.37 z"
   id="path3661"
   style="fill:#e1c590;fill-opacity:1" />
		</g>
	</g>
	<g
   id="g3683"
   style="fill:#e1c590;fill-opacity:1">
		<g
   id="g3669"
   style="fill:#e1c590;fill-opacity:1">
			<path
   class="st1"
   d="m 81.2,87.37 c 0.41,0 1.01,0.03 1.46,0.33 0.35,0.23 0.66,0.69 0.66,1.33 0,0.92 -0.6,1.59 -1.51,1.66 l 1.91,2.68 H 82.9 L 81.07,90.74 H 80.9 v 2.63 h -0.67 v -6 z m -0.3,2.79 h 0.42 c 0.83,0 1.32,-0.4 1.32,-1.1 0,-0.33 -0.1,-0.67 -0.48,-0.88 C 81.9,88.02 81.59,88 81.3,88 h -0.4 z"
   id="path3667"
   style="fill:#e1c590;fill-opacity:1" />
		</g>
		<g
   id="g3673"
   style="fill:#e1c590;fill-opacity:1">
			<path
   class="st1"
   d="M 88.06,91.69 H 85.5 l -0.72,1.69 h -0.74 l 2.76,-6.29 2.69,6.29 h -0.74 z m -0.26,-0.63 -1.01,-2.4 -1.03,2.4 z"
   id="path3671"
   style="fill:#e1c590;fill-opacity:1" />
		</g>
		<g
   id="g3677"
   style="fill:#e1c590;fill-opacity:1">
			<path
   class="st1"
   d="m 91.42,88 v 5.38 H 90.75 V 88 H 89.3 v -0.63 h 3.58 V 88 Z"
   id="path3675"
   style="fill:#e1c590;fill-opacity:1" />
		</g>
		<g
   id="g3681"
   style="fill:#e1c590;fill-opacity:1">
			<path
   class="st1"
   d="m 96.89,88 h -2.45 v 1.78 h 2.38 v 0.63 h -2.38 v 2.33 h 2.45 v 0.63 h -3.11 v -6 h 3.11 z"
   id="path3679"
   style="fill:#e1c590;fill-opacity:1" />
		</g>
	</g>
	<g
   id="g3725"
   style="fill:#e1c590;fill-opacity:1">
		<g
   id="g3687"
   style="fill:#e1c590;fill-opacity:1">
			<path
   class="st1"
   d="m 39.07,135.12 1,-6.34 2.3,5.07 2.35,-5.08 0.94,6.35 h -0.68 l -0.57,-4.18 -2.04,4.43 -2.02,-4.43 -0.59,4.18 z"
   id="path3685"
   style="fill:#e1c590;fill-opacity:1" />
		</g>
		<g
   id="g3691"
   style="fill:#e1c590;fill-opacity:1">
			<path
   class="st1"
   d="m 46.72,132.12 c 0,-1.79 1.4,-3.11 3.12,-3.11 1.72,0 3.12,1.31 3.12,3.11 0,1.78 -1.39,3.11 -3.12,3.11 -1.73,0 -3.12,-1.33 -3.12,-3.11 z m 0.68,0 c 0,1.38 1.09,2.48 2.44,2.48 1.35,0 2.44,-1.1 2.44,-2.48 0,-1.38 -1.09,-2.48 -2.44,-2.48 -1.35,0.01 -2.44,1.1 -2.44,2.48 z"
   id="path3689"
   style="fill:#e1c590;fill-opacity:1" />
		</g>
		<g
   id="g3695"
   style="fill:#e1c590;fill-opacity:1">
			<path
   class="st1"
   d="m 54.19,129.11 h 1.22 c 0.6,0 1.46,0.06 2.21,0.7 0.55,0.46 1.03,1.22 1.03,2.3 0,1.26 -0.62,1.94 -1.05,2.3 -0.55,0.47 -1.12,0.69 -2.2,0.69 h -1.22 v -5.99 z m 0.67,5.38 h 0.58 c 0.48,0 1.13,-0.05 1.72,-0.54 0.45,-0.38 0.81,-0.97 0.81,-1.83 0,-1.44 -1.01,-2.38 -2.53,-2.38 h -0.58 z"
   id="path3693"
   style="fill:#e1c590;fill-opacity:1" />
		</g>
		<g
   id="g3699"
   style="fill:#e1c590;fill-opacity:1">
			<path
   class="st1"
   d="m 60.54,132.8 c 0,0.5 0,1.05 0.48,1.46 0.24,0.21 0.66,0.34 0.99,0.34 0.33,0 0.75,-0.13 0.99,-0.34 0.48,-0.41 0.48,-0.95 0.48,-1.46 v -3.68 h 0.67 v 3.86 c 0,0.5 -0.05,0.99 -0.38,1.44 -0.36,0.5 -0.99,0.81 -1.76,0.81 -0.77,0 -1.4,-0.32 -1.76,-0.81 -0.32,-0.45 -0.38,-0.94 -0.38,-1.44 v -3.86 h 0.67 z"
   id="path3697"
   style="fill:#e1c590;fill-opacity:1" />
		</g>
		<g
   id="g3703"
   style="fill:#e1c590;fill-opacity:1">
			<path
   class="st1"
   d="m 66.36,129.11 v 5.38 h 1.66 v 0.63 H 65.7 v -6 h 0.66 z"
   id="path3701"
   style="fill:#e1c590;fill-opacity:1" />
		</g>
		<g
   id="g3707"
   style="fill:#e1c590;fill-opacity:1">
			<path
   class="st1"
   d="m 72.23,133.43 h -2.56 l -0.72,1.69 h -0.74 l 2.76,-6.29 2.69,6.29 h -0.74 z m -0.26,-0.63 -1.01,-2.4 -1.03,2.4 z"
   id="path3705"
   style="fill:#e1c590;fill-opacity:1" />
		</g>
		<g
   id="g3711"
   style="fill:#e1c590;fill-opacity:1">
			<path
   class="st1"
   d="m 75.58,129.74 v 5.38 h -0.67 v -5.38 h -1.46 v -0.63 h 3.58 v 0.63 z"
   id="path3709"
   style="fill:#e1c590;fill-opacity:1" />
		</g>
		<g
   id="g3715"
   style="fill:#e1c590;fill-opacity:1">
			<path
   class="st1"
   d="m 78.61,129.11 v 6 h -0.67 v -6 z"
   id="path3713"
   style="fill:#e1c590;fill-opacity:1" />
		</g>
		<g
   id="g3719"
   style="fill:#e1c590;fill-opacity:1">
			<path
   class="st1"
   d="m 79.83,132.12 c 0,-1.79 1.4,-3.11 3.12,-3.11 1.72,0 3.12,1.31 3.12,3.11 0,1.78 -1.39,3.11 -3.12,3.11 -1.73,0 -3.12,-1.33 -3.12,-3.11 z m 0.68,0 c 0,1.38 1.09,2.48 2.44,2.48 1.35,0 2.44,-1.1 2.44,-2.48 0,-1.38 -1.09,-2.48 -2.44,-2.48 -1.35,0.01 -2.44,1.1 -2.44,2.48 z"
   id="path3717"
   style="fill:#e1c590;fill-opacity:1" />
		</g>
		<g
   id="g3723"
   style="fill:#e1c590;fill-opacity:1">
			<path
   class="st1"
   d="m 87.3,135.12 v -6.26 l 4.68,4.91 v -4.65 h 0.67 v 6.28 l -4.68,-4.91 v 4.64 H 87.3 Z"
   id="path3721"
   style="fill:#e1c590;fill-opacity:1" />
		</g>
	</g>
	<g
   id="g3751"
   style="fill:#e1c590;fill-opacity:1">
		<g
   id="g3729"
   style="fill:#e1c590;fill-opacity:1">
			<path
   class="st1"
   d="m 139.74,328.78 c -0.19,-0.19 -0.48,-0.41 -0.78,-0.56 -0.32,-0.14 -0.68,-0.23 -1.04,-0.23 -1.39,0 -2.41,1.12 -2.41,2.5 0,1.63 1.32,2.45 2.42,2.45 0.41,0 0.8,-0.12 1.12,-0.28 0.34,-0.17 0.58,-0.4 0.69,-0.5 v 0.83 c -0.67,0.48 -1.36,0.59 -1.81,0.59 -1.78,0 -3.11,-1.35 -3.11,-3.09 0,-1.79 1.34,-3.12 3.14,-3.12 0.36,0 1.05,0.04 1.77,0.59 v 0.82 z"
   id="path3727"
   style="fill:#e1c590;fill-opacity:1" />
		</g>
		<g
   id="g3733"
   style="fill:#e1c590;fill-opacity:1">
			<path
   class="st1"
   d="m 140.64,330.46 c 0,-1.79 1.4,-3.11 3.12,-3.11 1.72,0 3.12,1.31 3.12,3.11 0,1.78 -1.39,3.11 -3.12,3.11 -1.73,0 -3.12,-1.32 -3.12,-3.11 z m 0.68,0 c 0,1.38 1.09,2.48 2.44,2.48 1.35,0 2.44,-1.1 2.44,-2.48 0,-1.38 -1.09,-2.48 -2.44,-2.48 -1.35,0 -2.44,1.11 -2.44,2.48 z"
   id="path3731"
   style="fill:#e1c590;fill-opacity:1" />
		</g>
		<g
   id="g3737"
   style="fill:#e1c590;fill-opacity:1">
			<path
   class="st1"
   d="m 151.24,331.77 h -2.56 l -0.72,1.69 h -0.74 l 2.76,-6.29 2.69,6.29 h -0.74 z m -0.26,-0.63 -1.01,-2.4 -1.03,2.4 z"
   id="path3735"
   style="fill:#e1c590;fill-opacity:1" />
		</g>
		<g
   id="g3741"
   style="fill:#e1c590;fill-opacity:1">
			<path
   class="st1"
   d="m 154.49,327.46 c 0.41,0 1.01,0.03 1.46,0.33 0.35,0.23 0.66,0.69 0.66,1.33 0,0.92 -0.6,1.59 -1.51,1.66 l 1.91,2.68 h -0.81 l -1.83,-2.63 h -0.17 v 2.63 h -0.67 v -6 z m -0.3,2.78 h 0.42 c 0.83,0 1.32,-0.4 1.32,-1.1 0,-0.33 -0.1,-0.67 -0.48,-0.88 -0.27,-0.15 -0.58,-0.17 -0.86,-0.17 h -0.41 v 2.15 z"
   id="path3739"
   style="fill:#e1c590;fill-opacity:1" />
		</g>
		<g
   id="g3745"
   style="fill:#e1c590;fill-opacity:1">
			<path
   class="st1"
   d="m 160.73,328.65 c -0.08,-0.16 -0.22,-0.34 -0.35,-0.45 -0.12,-0.09 -0.33,-0.21 -0.68,-0.21 -0.59,0 -1.01,0.37 -1.01,0.93 0,0.23 0.06,0.37 0.22,0.52 0.18,0.18 0.41,0.28 0.63,0.38 l 0.58,0.25 c 0.35,0.15 0.67,0.31 0.93,0.57 0.31,0.31 0.43,0.66 0.43,1.09 0,1.11 -0.82,1.85 -1.9,1.85 -0.4,0 -0.89,-0.08 -1.3,-0.49 -0.3,-0.29 -0.48,-0.7 -0.56,-1.06 l 0.65,-0.18 c 0.04,0.31 0.19,0.58 0.36,0.76 0.26,0.26 0.56,0.33 0.86,0.33 0.82,0 1.21,-0.58 1.21,-1.19 0,-0.27 -0.08,-0.5 -0.3,-0.7 -0.17,-0.16 -0.41,-0.27 -0.72,-0.41 l -0.54,-0.25 c -0.23,-0.11 -0.53,-0.23 -0.8,-0.5 -0.26,-0.25 -0.41,-0.53 -0.41,-0.98 0,-0.93 0.71,-1.55 1.68,-1.55 0.37,0 0.67,0.07 0.96,0.27 0.24,0.16 0.45,0.41 0.58,0.67 z"
   id="path3743"
   style="fill:#e1c590;fill-opacity:1" />
		</g>
		<g
   id="g3749"
   style="fill:#e1c590;fill-opacity:1">
			<path
   class="st1"
   d="m 165.82,328.09 h -2.45 v 1.78 h 2.38 v 0.63 h -2.38 v 2.33 h 2.45 v 0.63 h -3.11 v -6 h 3.11 z"
   id="path3747"
   style="fill:#e1c590;fill-opacity:1" />
		</g>
	</g>
	<g
   id="g3773"
   style="fill:#e1c590;fill-opacity:1">
		<g
   id="g3755"
   style="fill:#e1c590;fill-opacity:1">
			<path
   class="st1"
   d="m 172.41,231.57 h 1.22 c 0.6,0 1.46,0.06 2.21,0.7 0.55,0.46 1.03,1.22 1.03,2.3 0,1.26 -0.62,1.94 -1.05,2.3 -0.55,0.47 -1.12,0.69 -2.2,0.69 h -1.21 z m 0.67,5.38 h 0.58 c 0.48,0 1.13,-0.05 1.72,-0.54 0.45,-0.38 0.81,-0.97 0.81,-1.83 0,-1.44 -1.01,-2.38 -2.53,-2.38 h -0.58 z"
   id="path3753"
   style="fill:#e1c590;fill-opacity:1" />
		</g>
		<g
   id="g3759"
   style="fill:#e1c590;fill-opacity:1">
			<path
   class="st1"
   d="m 181.22,232.2 h -2.45 v 1.78 h 2.38 v 0.63 h -2.38 v 2.33 h 2.45 v 0.63 h -3.12 v -6 h 3.12 z"
   id="path3757"
   style="fill:#e1c590;fill-opacity:1" />
		</g>
		<g
   id="g3763"
   style="fill:#e1c590;fill-opacity:1">
			<path
   class="st1"
   d="m 183.53,231.57 c 0.6,0 1.11,0.07 1.51,0.42 0.44,0.38 0.55,0.91 0.55,1.29 0,0.85 -0.53,1.68 -1.9,1.68 h -0.58 v 2.61 h -0.67 v -6 z m -0.42,2.76 h 0.55 c 0.79,0 1.27,-0.4 1.27,-1.09 0,-0.95 -0.89,-1.04 -1.32,-1.04 h -0.5 z"
   id="path3761"
   style="fill:#e1c590;fill-opacity:1" />
		</g>
		<g
   id="g3767"
   style="fill:#e1c590;fill-opacity:1">
			<path
   class="st1"
   d="m 188.02,232.2 v 5.38 h -0.67 v -5.38 h -1.46 v -0.63 h 3.58 v 0.63 z"
   id="path3765"
   style="fill:#e1c590;fill-opacity:1" />
		</g>
		<g
   id="g3771"
   style="fill:#e1c590;fill-opacity:1">
			<path
   class="st1"
   d="m 191.04,234.01 h 3.08 v -2.44 h 0.67 v 6 h -0.67 v -2.93 h -3.08 v 2.93 h -0.67 v -6 h 0.67 z"
   id="path3769"
   style="fill:#e1c590;fill-opacity:1" />
		</g>
	</g>
	<g
   id="g3791"
   style="fill:#e1c590;fill-opacity:1">
		<g
   id="g3777"
   style="fill:#e1c590;fill-opacity:1">
			<path
   class="st1"
   d="m 181.14,296.8 h -2.07 v 1.77 h 2 v 0.63 h -2 v 2.97 h -0.67 v -6 h 2.74 z"
   id="path3775"
   style="fill:#e1c590;fill-opacity:1" />
		</g>
		<g
   id="g3781"
   style="fill:#e1c590;fill-opacity:1">
			<path
   class="st1"
   d="m 182.97,296.17 v 6 h -0.67 v -6 z"
   id="path3779"
   style="fill:#e1c590;fill-opacity:1" />
		</g>
		<g
   id="g3785"
   style="fill:#e1c590;fill-opacity:1">
			<path
   class="st1"
   d="m 184.52,302.17 v -6.26 l 4.68,4.91 v -4.65 h 0.67 v 6.28 l -4.68,-4.91 v 4.64 h -0.67 z"
   id="path3783"
   style="fill:#e1c590;fill-opacity:1" />
		</g>
		<g
   id="g3789"
   style="fill:#e1c590;fill-opacity:1">
			<path
   class="st1"
   d="m 194.53,296.8 h -2.45 v 1.78 h 2.38 v 0.63 h -2.38 v 2.33 h 2.45 v 0.63 h -3.11 v -6 h 3.11 z"
   id="path3787"
   style="fill:#e1c590;fill-opacity:1" />
		</g>
	</g>
	<g
   id="g3797"
   style="fill:#e1c590;fill-opacity:1">
		<g
   id="g3795"
   style="fill:#e1c590;fill-opacity:1">
			<path
   class="st1"
   d="m 192.32,166.43 h 5.26 v 1 h -6.82 v -0.71 l 3.2,-3.87 -3.02,-3.83 v -0.81 h 6.2 v 0.99 h -4.67 v 0.05 l 2.82,3.56 -2.97,3.59 z"
   id="path3793"
   style="fill:#e1c590;fill-opacity:1" />
		</g>
	</g>
	<g
   id="g3803"
   style="fill:#e1c590;fill-opacity:1">
		<g
   id="g3801"
   style="fill:#e1c590;fill-opacity:1">
			<path
   class="st2"
   d="m 63.06,191.46 c -8.75,0 -16.58,5.2 -19.96,13.26 l -0.89,2.61 c -2.23,5 -7.28,8.25 -12.84,8.25 -1.14,0 -2.25,-0.14 -3.31,-0.4 L 24,214.51 C 22.59,214.16 21.25,214 19.86,214 c -9.42,0 -17.08,7.67 -17.08,17.09 0,9.42 7.66,17.09 17.08,17.09 6.02,0 11.47,-3.07 14.6,-8.2 l 1.17,-2.3 c 2.53,-4.16 7.02,-6.66 11.98,-6.66 1.59,0 3.15,0.27 4.65,0.8 l 2.92,1.41 c 2.55,0.99 5.19,1.49 7.89,1.49 11.92,0 21.62,-9.7 21.62,-21.63 -0.01,-11.93 -9.71,-21.63 -21.63,-21.63 z m -18.05,16.97 0.9,-2.65 c 2.89,-6.86 9.62,-11.32 17.16,-11.32 10.27,0 18.62,8.36 18.62,18.63 0,10.27 -8.35,18.63 -18.62,18.63 -2.33,0 -4.58,-0.42 -6.69,-1.24 l -3.01,-1.45 c -1.89,-0.68 -3.81,-1.01 -5.76,-1.01 -6.02,0 -11.47,3.06 -14.6,8.2 l -1.17,2.3 c -2.54,4.16 -7.02,6.66 -11.98,6.66 -7.76,0 -14.08,-6.32 -14.08,-14.09 0,-7.77 6.32,-14.09 14.08,-14.09 1.13,0 2.24,0.13 3.32,0.4 l 2.06,0.67 c 1.4,0.34 2.74,0.51 4.14,0.51 6.75,0 12.88,-3.99 15.63,-10.15 z"
   id="path3799"
   style="fill:#e1c590;fill-opacity:1" />
		</g>
	</g>
	<g
   id="g3807"
   style="fill:#e1c590;fill-opacity:1">
		<rect
   x="18.33"
   y="205.5"
   class="st2"
   width="3"
   height="9.6099997"
   id="rect3805"
   style="fill:#e1c590;fill-opacity:1" />
	</g>
	<g
   id="g3833"
   style="fill:#e1c590;fill-opacity:1">
		<g
   id="g3811"
   style="fill:#e1c590;fill-opacity:1">
			<path
   class="st2"
   d="m 5.51,181.38 v 4.77 h 1.47 v 0.56 H 4.92 v -5.33 z"
   id="path3809"
   style="fill:#e1c590;fill-opacity:1" />
		</g>
		<g
   id="g3815"
   style="fill:#e1c590;fill-opacity:1">
			<path
   class="st2"
   d="m 8.37,181.38 v 5.33 H 7.78 v -5.33 z"
   id="path3813"
   style="fill:#e1c590;fill-opacity:1" />
		</g>
		<g
   id="g3819"
   style="fill:#e1c590;fill-opacity:1">
			<path
   class="st2"
   d="m 9.75,186.72 v -5.56 l 4.16,4.36 v -4.13 h 0.59 v 5.57 l -4.16,-4.36 v 4.12 z"
   id="path3817"
   style="fill:#e1c590;fill-opacity:1" />
		</g>
		<g
   id="g3823"
   style="fill:#e1c590;fill-opacity:1">
			<path
   class="st2"
   d="m 27.96,181.94 h -2.17 v 1.58 h 2.11 v 0.56 h -2.11 v 2.07 h 2.17 v 0.56 h -2.77 v -5.33 h 2.77 z"
   id="path3821"
   style="fill:#e1c590;fill-opacity:1" />
		</g>
		<g
   id="g3827"
   style="fill:#e1c590;fill-opacity:1">
			<path
   class="st2"
   d="m 30.05,183.96 -1.43,-2.57 h 0.67 l 1.1,2.01 1.14,-2.01 h 0.67 l -1.46,2.57 1.54,2.76 h -0.67 l -1.22,-2.19 -1.24,2.19 h -0.67 z"
   id="path3825"
   style="fill:#e1c590;fill-opacity:1" />
		</g>
		<g
   id="g3831"
   style="fill:#e1c590;fill-opacity:1">
			<path
   class="st2"
   d="m 34.05,181.38 c 0.54,0 0.98,0.06 1.34,0.38 0.39,0.34 0.49,0.81 0.49,1.14 0,0.75 -0.47,1.5 -1.69,1.5 h -0.52 v 2.32 h -0.59 v -5.33 h 0.97 z m -0.38,2.46 h 0.49 c 0.7,0 1.13,-0.35 1.13,-0.97 0,-0.85 -0.79,-0.93 -1.18,-0.93 h -0.44 z"
   id="path3829"
   style="fill:#e1c590;fill-opacity:1" />
		</g>
	</g>
	<g
   id="g3837"
   style="fill:#e1c590;fill-opacity:1">
		<rect
   x="19.290001"
   y="180.50999"
   class="st2"
   width="1"
   height="11.06"
   id="rect3835"
   style="fill:#e1c590;fill-opacity:1" />
	</g>
	<g
   id="g3841"
   style="fill:#e1c590;fill-opacity:1">
		<path
   class="st2"
   d="m 114.16,243.5 -2.6,-1.5 2.74,-4.75 c -14.55,-9.01 -23.52,-25.04 -23.52,-42.2 0,-26.86 21.45,-48.8 48.12,-49.6 v -6.18 h 3 v 9.16 h -1.5 c -25.71,0 -46.62,20.91 -46.62,46.62 0,16.59 8.93,32.06 23.31,40.37 l 1.3,0.75 z"
   id="path3839"
   style="fill:#e1c590;fill-opacity:1" />
	</g>
	<g
   id="g3845"
   style="fill:#e1c590;fill-opacity:1">
		<path
   class="st2"
   d="m 29.89,124.53 -0.68,-0.87 c 3.74,-2.93 5.89,-7.32 5.89,-12.07 0,-4.75 -2.15,-9.14 -5.89,-12.07 l 0.68,-0.87 c 4.01,3.13 6.31,7.85 6.31,12.93 0,5.08 -2.3,9.82 -6.31,12.95 z"
   id="path3843"
   style="fill:#e1c590;fill-opacity:1" />
	</g>
	<g
   id="g3849"
   style="fill:#e1c590;fill-opacity:1">
		<path
   class="st2"
   d="m 29.89,164.13 -0.68,-0.87 c 3.74,-2.93 5.89,-7.32 5.89,-12.07 0,-4.74 -2.15,-9.14 -5.89,-12.07 l 0.68,-0.87 c 4.01,3.13 6.31,7.85 6.31,12.93 0,5.1 -2.3,9.82 -6.31,12.95 z"
   id="path3847"
   style="fill:#e1c590;fill-opacity:1" />
	</g>
	<g
   id="g3853"
   style="fill:#e1c590;fill-opacity:1">
		<path
   class="st1"
   d="m 55.51,165.28 -0.95,-0.55 1.73,-3.01 c -3.57,-2.29 -5.77,-6.28 -5.77,-10.53 0,-6.88 5.6,-12.48 12.48,-12.48 6.88,0 12.48,5.6 12.48,12.48 0,1.98 -0.47,3.93 -1.36,5.67 l 8.3,4.7 -0.54,0.96 -9.25,-5.24 0.27,-0.48 c 0.97,-1.69 1.48,-3.63 1.48,-5.61 0,-6.27 -5.11,-11.38 -11.38,-11.38 -6.27,0 -11.38,5.11 -11.38,11.38 0,4.04 2.18,7.82 5.69,9.86 l 0.47,0.28 z"
   id="path3851"
   style="fill:#e1c590;fill-opacity:1" />
	</g>
	<g
   id="g3857"
   style="fill:#e1c590;fill-opacity:1">
		<path
   class="st3"
   d="M 81.61,161.95"
   id="path3855"
   style="fill:#e1c590;fill-opacity:1" />
	</g>
	<g
   id="g3861"
   style="fill:#e1c590;fill-opacity:1">
		
			<rect
   x="91.43"
   y="164.13"
   transform="matrix(0.4715,-0.8819,0.8819,0.4715,-99.2997,169.7632)"
   class="st1"
   width="1.1"
   height="7.1900001"
   id="rect3859"
   style="fill:#e1c590;fill-opacity:1" />
	</g>
	<g
   id="g3865"
   style="fill:#e1c590;fill-opacity:1">
		<path
   class="st1"
   d="M 114.12,240.57 C 97.91,231.2 87.85,213.76 87.85,195.05 c 0,-28.98 23.57,-52.55 52.55,-52.55 v 1.1 c -28.37,0 -51.45,23.08 -51.45,51.45 0,18.31 9.86,35.39 25.73,44.56 z"
   id="path3863"
   style="fill:#e1c590;fill-opacity:1" />
	</g>
	<g
   id="g3869"
   style="fill:#e1c590;fill-opacity:1">
		<path
   class="st1"
   d="m 171.92,226.57 -0.78,-0.78 c 8.21,-8.21 12.73,-19.13 12.73,-30.74 0,-11.61 -4.52,-22.53 -12.73,-30.74 -10.94,-10.94 -27.04,-15.26 -42,-11.26 l -0.28,-1.06 c 15.34,-4.1 31.84,0.32 43.06,11.54 8.42,8.42 13.06,19.61 13.06,31.52 0,11.91 -4.64,23.1 -13.06,31.52 z"
   id="path3867"
   style="fill:#e1c590;fill-opacity:1" />
	</g>
	<g
   id="g3873"
   style="fill:#e1c590;fill-opacity:1">
		<rect
   x="35.650002"
   y="150.64999"
   class="st2"
   width="15.42"
   height="1.1"
   id="rect3871"
   style="fill:#e1c590;fill-opacity:1" />
	</g>
	<g
   id="g3877"
   style="fill:#e1c590;fill-opacity:1">
		<rect
   x="35.650002"
   y="111.05"
   class="st2"
   width="15.42"
   height="1.1"
   id="rect3875"
   style="fill:#e1c590;fill-opacity:1" />
	</g>
	<g
   id="g3881"
   style="fill:#e1c590;fill-opacity:1">
		<rect
   x="89.830002"
   y="111.05"
   class="st2"
   width="6.27"
   height="1.1"
   id="rect3879"
   style="fill:#e1c590;fill-opacity:1" />
	</g>
	<g
   id="g3885"
   style="fill:#e1c590;fill-opacity:1">
		<path
   class="st2"
   d="m 55.51,125.68 -0.95,-0.55 1.73,-3.01 c -3.57,-2.29 -5.77,-6.28 -5.77,-10.53 0,-6.88 5.6,-12.48 12.48,-12.48 6.7,0 12.18,5.3 12.47,11.93 h 7.27 v 1.1 h -8.36 v -0.55 c 0,-6.27 -5.11,-11.38 -11.38,-11.38 -6.27,0 -11.38,5.11 -11.38,11.38 0,4.04 2.18,7.82 5.69,9.86 l 0.47,0.28 z"
   id="path3883"
   style="fill:#e1c590;fill-opacity:1" />
	</g>
	<g
   id="g3889"
   style="fill:#e1c590;fill-opacity:1">
		<circle
   class="st2"
   cx="191.73"
   cy="79.220001"
   r="1.84"
   id="circle3887"
   style="fill:#e1c590;fill-opacity:1" />
	</g>
	<g
   id="g3893"
   style="fill:#e1c590;fill-opacity:1">
		
			<rect
   x="188.78"
   y="69"
   transform="matrix(0.9032,-0.4292,0.4292,0.9032,-13.5898,88.4655)"
   class="st2"
   width="1.1"
   height="10.72"
   id="rect3891"
   style="fill:#e1c590;fill-opacity:1" />
	</g>
	<g
   id="g3897"
   style="fill:#e1c590;fill-opacity:1">
		
			<rect
   x="183.97"
   y="83.489998"
   transform="matrix(0.4294,-0.9031,0.9031,0.4294,32.1338,218.9386)"
   class="st2"
   width="10.72"
   height="1.1"
   id="rect3895"
   style="fill:#e1c590;fill-opacity:1" />
	</g>
	<g
   id="g3901"
   style="fill:#e1c590;fill-opacity:1">
		<path
   class="st2"
   d="m 51.68,78.36 -0.87,-0.5 2.45,-4.23 0.43,0.25 c 3.37,1.95 7.2,2.97 11.1,2.97 11.59,0 21.09,-8.69 22.09,-20.21 0.02,-0.1 0.02,-0.14 0.02,-0.17 l 0.01,-0.11 c 0.05,-0.5 0.08,-1.06 0.08,-1.71 0,-0.44 -0.01,-0.88 -0.04,-1.31 l -0.04,-0.52 0.52,-0.02 c 8.82,-0.26 17.81,-0.25 26.71,0.03 l -0.03,1 C 105.4,53.55 96.61,53.54 87.97,53.79 88,54.08 88,54.36 88,54.65 c 0,0.68 -0.03,1.27 -0.08,1.81 -0.01,0.16 -0.02,0.24 -0.04,0.33 -1.04,11.98 -10.97,21.06 -23.08,21.06 -3.9,0 -7.75,-0.99 -11.16,-2.86 z"
   id="path3899"
   style="fill:#e1c590;fill-opacity:1" />
	</g>
	<g
   id="g3905"
   style="fill:#e1c590;fill-opacity:1">
		<path
   class="st2"
   d="m 134.99,88.33 c -2.06,0 -3.83,-1.58 -4.02,-3.67 -0.1,-1.07 0.22,-2.12 0.91,-2.95 0.69,-0.83 1.66,-1.34 2.74,-1.44 2.21,-0.21 4.19,1.43 4.39,3.65 0.08,0.9 -0.13,1.77 -0.61,2.53 -0.68,1.07 -1.78,1.75 -3.04,1.86 -0.12,0.01 -0.25,0.02 -0.37,0.02 z M 135,80.96 c -0.1,0 -0.21,0 -0.31,0.01 -0.89,0.08 -1.69,0.5 -2.25,1.19 -0.57,0.68 -0.84,1.55 -0.75,2.43 0.17,1.83 1.79,3.18 3.62,3.01 1.04,-0.1 1.95,-0.66 2.51,-1.54 v 0 c 0.4,-0.63 0.57,-1.35 0.5,-2.09 -0.08,-0.89 -0.5,-1.69 -1.19,-2.25 -0.62,-0.49 -1.36,-0.76 -2.13,-0.76 z"
   id="path3903"
   style="fill:#e1c590;fill-opacity:1" />
	</g>
	<g
   id="g3909"
   style="fill:#e1c590;fill-opacity:1">
		<path
   class="st2"
   d="m 86.15,115.63 c -1.97,0 -3.7,-1.44 -3.99,-3.45 -0.16,-1.07 0.11,-2.13 0.75,-3 0.64,-0.87 1.58,-1.43 2.65,-1.59 2.2,-0.33 4.26,1.2 4.59,3.4 v 0 c 0.16,1.07 -0.11,2.13 -0.75,3 -0.64,0.87 -1.58,1.43 -2.65,1.59 -0.21,0.03 -0.41,0.05 -0.6,0.05 z m 0,-7.37 c -0.16,0 -0.33,0.01 -0.49,0.04 -0.88,0.13 -1.66,0.6 -2.19,1.31 -0.53,0.71 -0.75,1.59 -0.62,2.47 0.27,1.82 1.97,3.08 3.78,2.8 0.88,-0.13 1.66,-0.6 2.19,-1.31 0.53,-0.71 0.75,-1.59 0.62,-2.47 v 0 c -0.24,-1.65 -1.67,-2.84 -3.29,-2.84 z"
   id="path3907"
   style="fill:#e1c590;fill-opacity:1" />
	</g>
	<g
   id="g3913"
   style="fill:#e1c590;fill-opacity:1">
		<path
   class="st2"
   d="m 85.56,168.03 c -0.59,0 -1.19,-0.13 -1.74,-0.4 -0.97,-0.46 -1.71,-1.28 -2.07,-2.3 -0.36,-1.02 -0.3,-2.11 0.16,-3.09 0.96,-2.01 3.38,-2.87 5.38,-1.91 v 0 c 0.97,0.46 1.71,1.28 2.07,2.3 0.36,1.02 0.3,2.11 -0.16,3.09 -0.46,0.97 -1.28,1.71 -2.3,2.07 -0.43,0.16 -0.88,0.24 -1.34,0.24 z m 0.01,-7.37 c -1.24,0 -2.44,0.7 -3.01,1.9 -0.38,0.8 -0.43,1.71 -0.13,2.54 0.3,0.84 0.9,1.51 1.71,1.89 0.8,0.38 1.71,0.43 2.54,0.13 0.84,-0.3 1.51,-0.9 1.89,-1.71 0.38,-0.8 0.43,-1.71 0.13,-2.55 -0.3,-0.84 -0.9,-1.51 -1.71,-1.89 v 0 c -0.45,-0.21 -0.94,-0.31 -1.42,-0.31 z"
   id="path3911"
   style="fill:#e1c590;fill-opacity:1" />
	</g>
	<g
   id="g3917"
   style="fill:#e1c590;fill-opacity:1">
		<path
   class="st2"
   d="m 145.01,97.73 c -2.06,0 -3.83,-1.58 -4.02,-3.67 -0.1,-1.07 0.23,-2.12 0.92,-2.95 0.69,-0.83 1.66,-1.34 2.74,-1.44 2.2,-0.21 4.19,1.43 4.39,3.65 0.21,2.22 -1.43,4.19 -3.65,4.39 -0.13,0.01 -0.25,0.02 -0.38,0.02 z m 0.01,-7.37 c -0.1,0 -0.21,0 -0.31,0.01 -0.89,0.08 -1.69,0.5 -2.25,1.19 -0.57,0.68 -0.84,1.55 -0.75,2.43 0.17,1.83 1.79,3.18 3.62,3.01 0.89,-0.08 1.69,-0.5 2.25,-1.19 0.57,-0.68 0.84,-1.55 0.75,-2.43 v 0 c -0.16,-1.72 -1.61,-3.02 -3.31,-3.02 z"
   id="path3915"
   style="fill:#e1c590;fill-opacity:1" />
	</g>
	<g
   id="g3921"
   style="fill:#e1c590;fill-opacity:1">
		<path
   class="st2"
   d="m 150.12,110.49 c -2.06,0 -3.83,-1.58 -4.02,-3.67 -0.21,-2.22 1.43,-4.19 3.65,-4.39 2.2,-0.2 4.19,1.43 4.39,3.65 v 0 c 0.21,2.22 -1.43,4.19 -3.65,4.39 -0.12,0.01 -0.24,0.02 -0.37,0.02 z m 0.01,-7.37 c -0.1,0 -0.21,0 -0.31,0.01 -0.89,0.08 -1.69,0.5 -2.25,1.19 -0.56,0.69 -0.84,1.55 -0.75,2.43 0.08,0.89 0.5,1.69 1.19,2.25 0.68,0.57 1.55,0.83 2.44,0.75 0.89,-0.08 1.69,-0.5 2.25,-1.19 0.57,-0.68 0.84,-1.55 0.75,-2.43 -0.17,-1.71 -1.62,-3.01 -3.32,-3.01 z"
   id="path3919"
   style="fill:#e1c590;fill-opacity:1" />
	</g>
	<g
   id="g3925"
   style="fill:#e1c590;fill-opacity:1">
		<path
   class="st2"
   d="m 142.88,136.33 c -2.06,0 -3.83,-1.58 -4.02,-3.67 -0.1,-1.07 0.22,-2.12 0.91,-2.95 0.69,-0.83 1.66,-1.34 2.74,-1.44 1.06,-0.1 2.12,0.23 2.95,0.91 0.83,0.69 1.34,1.66 1.44,2.73 0.21,2.22 -1.43,4.19 -3.65,4.39 -0.12,0.02 -0.25,0.03 -0.37,0.03 z m 0.01,-7.37 c -0.1,0 -0.21,0 -0.31,0.01 -0.89,0.08 -1.69,0.5 -2.25,1.19 -0.56,0.69 -0.84,1.55 -0.75,2.43 0.09,0.88 0.5,1.69 1.19,2.25 0.68,0.57 1.54,0.83 2.44,0.75 1.83,-0.17 3.18,-1.79 3.01,-3.62 -0.08,-0.89 -0.5,-1.69 -1.19,-2.25 -0.62,-0.5 -1.37,-0.76 -2.14,-0.76 z"
   id="path3923"
   style="fill:#e1c590;fill-opacity:1" />
	</g>
	<g
   id="g3929"
   style="fill:#e1c590;fill-opacity:1">
		<path
   class="st2"
   d="m 149.37,124.21 c -2.06,0 -3.83,-1.58 -4.02,-3.67 -0.1,-1.07 0.22,-2.12 0.91,-2.95 0.69,-0.83 1.66,-1.34 2.74,-1.44 1.07,-0.1 2.12,0.23 2.95,0.91 0.83,0.69 1.34,1.66 1.44,2.73 0.21,2.22 -1.43,4.19 -3.65,4.39 -0.12,0.02 -0.25,0.03 -0.37,0.03 z m 0.01,-7.37 c -0.1,0 -0.21,0 -0.31,0.01 -0.89,0.08 -1.69,0.5 -2.26,1.19 -0.57,0.69 -0.84,1.55 -0.75,2.43 0.08,0.89 0.5,1.69 1.19,2.25 0.68,0.57 1.55,0.83 2.44,0.75 0.89,-0.08 1.69,-0.5 2.25,-1.19 0.57,-0.68 0.84,-1.55 0.75,-2.43 -0.08,-0.89 -0.5,-1.69 -1.19,-2.25 -0.61,-0.49 -1.35,-0.76 -2.12,-0.76 z"
   id="path3927"
   style="fill:#e1c590;fill-opacity:1" />
	</g>
</g>
</svg>
