<?xml version="1.0" encoding="UTF-8" standalone="no"?>
<!-- Generator: Adobe Illustrator 26.2.0, SVG Export Plug-In . SVG Version: 6.00 Build 0)  -->

<svg
   version="1.1"
   x="0px"
   y="0px"
   viewBox="0 0 153.6 485.66929"
   xml:space="preserve"
   id="svg3225"
   sodipodi:docname="làrachd no mike (inkscape render).svg"
   width="40.639999mm"
   height="128.5mm"
   inkscape:version="1.2 (dc2aeda, 2022-05-15)"
   xmlns:inkscape="http://www.inkscape.org/namespaces/inkscape"
   xmlns:sodipodi="http://sodipodi.sourceforge.net/DTD/sodipodi-0.dtd"
   xmlns="http://www.w3.org/2000/svg"
   xmlns:svg="http://www.w3.org/2000/svg"><defs
   id="defs3229">
	

		
		
		
		
		
		
		
		
		
		
		
		
		
		
		
		
		
		
		
		
		
		
		
		
		
		
		
		
		
		
		
		
		
		
		
		
		
		
		
		
		
		
		
		
		
		
		
		
		
		
		
		
		
		
		
		
		
		
		
		
		
		
		
		
		
		
		
		
		
		
		
		
		
		
		
		
		
		
		
		
		
		
		
		
		
		
		
		
		
		
	</defs><sodipodi:namedview
   id="namedview3227"
   pagecolor="#FDDEA2fff"
   bordercolor="#000000"
   borderopacity="0.25"
   inkscape:showpageshadow="2"
   inkscape:pageopacity="0.0"
   inkscape:pagecheckerboard="0"
   inkscape:deskcolor="#d1d1d1"
   showgrid="false"
   inkscape:zoom="4.4323686"
   inkscape:cx="88.778718"
   inkscape:cy="138.8648"
   inkscape:window-width="1728"
   inkscape:window-height="1051"
   inkscape:window-x="0"
   inkscape:window-y="38"
   inkscape:window-maximized="0"
   inkscape:current-layer="svg3225"
   inkscape:document-units="mm" />
<style
   type="text/css"
   id="style2361">
	.st0{fill:#401B5C;}
	.st1{fill:#E1C48F;}
	.st2{fill:#E0C490;}
	.st3{fill:#E1C590;}
	.st4{fill:#DFC38F;}
</style>
<g
   id="BG"
   transform="scale(1.3333334)"
   style="fill:#401B5C;fill-opacity:1">
	<rect
   x="0"
   class="st0"
   width="115.2"
   height="364.25"
   id="rect2363"
   y="0"
   style="fill:#401B5C;fill-opacity:1" />
</g>
<g
   id="g2370"
   style="fill:#e1c590;fill-opacity:1"
   transform="scale(1.3333334)">
			<g
   id="g2368"
   style="fill:#e1c590;fill-opacity:1">
				<rect
   x="0.27000001"
   y="344.64001"
   class="st1"
   width="37.59"
   height="3"
   id="rect2366"
   style="fill:#e1c590;fill-opacity:1" />
			</g>
		</g><g
   id="g2400"
   style="fill:#e1c590;fill-opacity:1"
   transform="scale(1.3333334)">
			<g
   id="g2374"
   style="fill:#e1c590;fill-opacity:1">
				<path
   class="st1"
   d="M 43.47,340.91 V 358.5 H 41.73 V 340.91 Z"
   id="path2372"
   style="fill:#e1c590;fill-opacity:1" />
			</g>
			<g
   id="g2378"
   style="fill:#e1c590;fill-opacity:1">
				<path
   class="st1"
   d="m 54.42,348.49 h 1.74 v 10.01 h -1.74 v -1.4 c -0.58,0.75 -1.66,1.69 -3.42,1.69 -2.53,0 -4.87,-1.79 -4.87,-5.31 0,-3.45 2.32,-5.24 4.87,-5.24 1.93,0 2.97,1.06 3.42,1.67 z m -6.56,-5.24 1.79,-0.82 2.53,3.5 -1.06,0.58 z m 0.05,10.23 c 0,2.15 1.21,3.76 3.28,3.76 2.12,0 3.33,-1.76 3.33,-3.74 0,-2.58 -1.79,-3.71 -3.33,-3.71 -1.71,0 -3.28,1.25 -3.28,3.69 z"
   id="path2376"
   style="fill:#e1c590;fill-opacity:1" />
			</g>
			<g
   id="g2382"
   style="fill:#e1c590;fill-opacity:1">
				<path
   class="st1"
   d="m 59.44,348.49 h 1.74 v 1.09 c 0.17,-0.27 0.92,-1.33 2.27,-1.33 0.53,0 1.11,0.19 1.54,0.41 l -0.82,1.57 c -0.39,-0.27 -0.75,-0.34 -1.01,-0.34 -0.7,0 -1.13,0.29 -1.4,0.63 -0.29,0.39 -0.58,1.06 -0.58,2.7 v 5.28 h -1.74 z"
   id="path2380"
   style="fill:#e1c590;fill-opacity:1" />
			</g>
			<g
   id="g2386"
   style="fill:#e1c590;fill-opacity:1">
				<path
   class="st1"
   d="m 73.74,348.49 h 1.74 v 10.01 h -1.74 v -1.4 c -0.58,0.75 -1.66,1.69 -3.42,1.69 -2.53,0 -4.87,-1.79 -4.87,-5.31 0,-3.45 2.32,-5.24 4.87,-5.24 1.93,0 2.97,1.06 3.42,1.67 z m -6.51,4.99 c 0,2.15 1.21,3.76 3.28,3.76 2.12,0 3.33,-1.76 3.33,-3.74 0,-2.58 -1.79,-3.71 -3.33,-3.71 -1.72,0 -3.28,1.25 -3.28,3.69 z"
   id="path2384"
   style="fill:#e1c590;fill-opacity:1" />
			</g>
			<g
   id="g2390"
   style="fill:#e1c590;fill-opacity:1">
				<path
   class="st1"
   d="m 86.6,351.29 c -0.92,-1.16 -2.24,-1.5 -3.14,-1.5 -1.86,0 -3.55,1.3 -3.55,3.74 0,2.44 1.74,3.71 3.52,3.71 1.04,0 2.32,-0.46 3.23,-1.57 v 2.07 c -1.08,0.8 -2.24,1.04 -3.18,1.04 -3.11,0 -5.36,-2.22 -5.36,-5.23 0,-3.06 2.27,-5.31 5.36,-5.31 1.59,0 2.63,0.63 3.11,0.96 v 2.09 z"
   id="path2388"
   style="fill:#e1c590;fill-opacity:1" />
			</g>
			<g
   id="g2394"
   style="fill:#e1c590;fill-opacity:1">
				<path
   class="st1"
   d="m 89.32,340.91 h 1.74 v 8.73 c 0.31,-0.41 1.21,-1.4 2.87,-1.4 1.18,0 2.27,0.48 2.87,1.38 0.51,0.75 0.58,1.57 0.58,2.68 v 6.2 h -1.74 v -6.15 c 0,-0.6 -0.05,-1.3 -0.46,-1.83 -0.34,-0.43 -0.87,-0.72 -1.64,-0.72 -0.6,0 -1.25,0.17 -1.76,0.77 -0.68,0.8 -0.72,1.98 -0.72,2.7 v 5.24 h -1.74 z"
   id="path2392"
   style="fill:#e1c590;fill-opacity:1" />
			</g>
			<g
   id="g2398"
   style="fill:#e1c590;fill-opacity:1">
				<path
   class="st1"
   d="m 108.33,340.91 h 1.74 v 17.59 h -1.74 v -1.4 c -0.58,0.75 -1.66,1.69 -3.42,1.69 -2.53,0 -4.87,-1.79 -4.87,-5.31 0,-3.45 2.32,-5.24 4.87,-5.24 1.93,0 2.97,1.06 3.42,1.67 z m -6.51,12.57 c 0,2.15 1.21,3.76 3.28,3.76 2.12,0 3.33,-1.76 3.33,-3.74 0,-2.58 -1.79,-3.71 -3.33,-3.71 -1.72,0 -3.28,1.25 -3.28,3.69 z"
   id="path2396"
   style="fill:#e1c590;fill-opacity:1" />
			</g>
		</g><g
   id="g2422"
   style="fill:#e1c590;fill-opacity:1"
   transform="scale(1.3333334)">
			<g
   id="g2404"
   style="fill:#e1c590;fill-opacity:1">
				<path
   class="st1"
   d="M 40.98,19.53 V 4.23 L 52.42,16.22 V 4.85 h 1.63 V 20.19 L 42.61,8.2 v 11.33 z"
   id="path2402"
   style="fill:#e1c590;fill-opacity:1" />
			</g>
			<g
   id="g2408"
   style="fill:#e1c590;fill-opacity:1">
				<path
   class="st1"
   d="M 64.4,7.66 C 64.2,7.26 63.87,6.82 63.54,6.56 63.25,6.34 62.73,6.05 61.89,6.05 c -1.45,0 -2.46,0.9 -2.46,2.27 0,0.57 0.15,0.9 0.55,1.28 0.44,0.44 0.99,0.68 1.54,0.92 l 1.41,0.62 c 0.86,0.37 1.65,0.77 2.27,1.39 0.75,0.75 1.06,1.61 1.06,2.66 0,2.71 -2,4.51 -4.64,4.51 -0.97,0 -2.18,-0.2 -3.19,-1.19 -0.73,-0.7 -1.17,-1.72 -1.36,-2.6 l 1.58,-0.44 c 0.11,0.77 0.46,1.43 0.88,1.87 0.64,0.64 1.36,0.81 2.11,0.81 2,0 2.95,-1.43 2.95,-2.91 0,-0.66 -0.2,-1.23 -0.73,-1.72 -0.42,-0.4 -0.99,-0.66 -1.76,-1.01 l -1.32,-0.62 c -0.57,-0.26 -1.3,-0.57 -1.96,-1.21 -0.64,-0.62 -1.01,-1.3 -1.01,-2.4 0,-2.27 1.74,-3.79 4.12,-3.79 0.9,0 1.63,0.18 2.35,0.66 0.59,0.4 1.1,0.99 1.43,1.63 z"
   id="path2406"
   style="fill:#e1c590;fill-opacity:1" />
			</g>
			<g
   id="g2412"
   style="fill:#e1c590;fill-opacity:1">
				<path
   class="st1"
   d="M 71.92,6.39 V 19.53 H 70.3 V 6.39 H 66.73 V 4.85 h 8.76 v 1.54 z"
   id="path2410"
   style="fill:#e1c590;fill-opacity:1" />
			</g>
			<g
   id="g2416"
   style="fill:#e1c590;fill-opacity:1">
				<path
   class="st1"
   d="m 80.04,4.85 c 0.99,0 2.46,0.07 3.57,0.81 0.86,0.57 1.61,1.69 1.61,3.26 0,2.24 -1.47,3.9 -3.7,4.05 l 4.67,6.56 H 84.2 L 79.73,13.1 h -0.42 v 6.43 H 77.68 V 4.85 Z m -0.72,6.8 h 1.03 c 2.02,0 3.23,-0.97 3.23,-2.68 0,-0.81 -0.24,-1.63 -1.17,-2.16 C 81.75,6.44 81,6.39 80.3,6.39 h -0.99 v 5.26 z"
   id="path2414"
   style="fill:#e1c590;fill-opacity:1" />
			</g>
			<g
   id="g2420"
   style="fill:#e1c590;fill-opacity:1">
				<path
   class="st1"
   d="m 90.37,13.85 c 0,1.23 0,2.57 1.17,3.57 0.59,0.51 1.61,0.84 2.42,0.84 0.81,0 1.83,-0.33 2.42,-0.84 1.17,-0.99 1.17,-2.33 1.17,-3.57 v -9 h 1.63 v 9.44 c 0,1.23 -0.13,2.42 -0.92,3.52 -0.88,1.21 -2.42,1.98 -4.29,1.98 -1.87,0 -3.41,-0.77 -4.29,-1.98 -0.79,-1.1 -0.92,-2.29 -0.92,-3.52 V 4.85 h 1.63 v 9 z"
   id="path2418"
   style="fill:#e1c590;fill-opacity:1" />
			</g>
		</g><g
   id="g2426"
   style="fill:#e1c590;fill-opacity:1"
   transform="scale(1.3333334)">
			<path
   class="st1"
   d="m 106.68,8.34 c -3.34,0 -5.79,2.51 -5.79,5.92 0,3.41 2.47,5.89 5.79,5.89 3.31,0 5.79,-2.49 5.79,-5.89 0,-3.4 -2.45,-5.92 -5.79,-5.92 z m 0,10.08 c -1.95,0 -3.84,-1.41 -3.84,-4.16 0,-2.73 1.84,-4.19 3.84,-4.19 2,0 3.84,1.43 3.84,4.19 0,2.73 -1.86,4.16 -3.84,4.16 z"
   id="path2424"
   style="fill:#e1c590;fill-opacity:1" />
		</g><g
   id="g2430"
   style="fill:#e1c590;fill-opacity:1"
   transform="scale(1.3333334)">
			<rect
   x="100.9"
   y="4.77"
   class="st1"
   width="11.7"
   height="1.62"
   id="rect2428"
   style="fill:#e1c590;fill-opacity:1" />
		</g><g
   id="g2434"
   style="fill:#e1c590;fill-opacity:1"
   transform="scale(1.3333334)">
			<polygon
   class="st1"
   points="36.88,17.2 37.5,19.53 35.02,19.53 35.64,17.2 35.64,7.01 35.02,4.68 37.5,4.68 36.88,7.01 "
   id="polygon2432"
   style="fill:#e1c590;fill-opacity:1" />
		</g><g
   id="g2466"
   style="fill:#e1c590;fill-opacity:1"
   transform="scale(1.3333334)">
			<path
   class="st3"
   d="m 43.72,90.14 -0.87,-0.5 2.73,-4.73 C 38.53,80.7 34.17,73.04 34.17,64.8 c 0,-12.92 10.51,-23.43 23.43,-23.43 12.92,0 23.43,10.51 23.43,23.43 0,3.75 -0.86,7.32 -2.54,10.62 l 10.79,5.62 -0.46,0.89 -11.68,-6.08 0.24,-0.45 c 1.77,-3.28 2.66,-6.84 2.66,-10.59 0,-12.37 -10.06,-22.43 -22.43,-22.43 -12.37,0 -22.43,10.06 -22.43,22.43 0,8.05 4.35,15.52 11.35,19.5 l 0.44,0.25 z"
   id="path2464"
   style="fill:#e1c590;fill-opacity:1" />
		</g><g
   id="g2470"
   style="fill:#e1c590;fill-opacity:1"
   transform="scale(1.3333334)">
			<path
   class="st3"
   d="M 44.84,87.2 C 36.8,82.63 31.81,74.04 31.81,64.8 c 0,-3.65 0.75,-7.18 2.22,-10.48 L 30.41,52.38 C 27.6,56.48 23,58.92 18,58.92 9.72,58.92 2.98,52.19 2.98,43.91 2.98,35.63 9.72,28.89 18,28.89 c 8.28,0 15.02,6.74 15.02,15.02 0,1.92 -0.36,3.79 -1.06,5.55 l 3.61,1.94 c 4.66,-7.66 13.06,-12.39 22.03,-12.39 9.46,0 18.07,5.11 22.6,13.38 l 8.64,-4.63 0.47,0.88 -9.53,5.11 -0.23,-0.45 C 75.26,45.1 66.84,40.01 57.59,40.01 c -8.78,0 -16.99,4.72 -21.42,12.31 l -0.24,0.42 -5.26,-2.83 0.18,-0.42 c 0.77,-1.77 1.16,-3.64 1.16,-5.58 0,-7.73 -6.29,-14.02 -14.02,-14.02 -7.73,0 -14.01,6.29 -14.01,14.02 0,7.73 6.29,14.01 14.02,14.01 4.81,0 9.23,-2.42 11.82,-6.47 l 0.25,-0.39 5.26,2.82 -0.2,0.43 c -1.54,3.3 -2.32,6.82 -2.32,10.49 0,8.89 4.8,17.14 12.53,21.54 z"
   id="path2468"
   style="fill:#e1c590;fill-opacity:1" />
		</g><g
   id="g2474"
   style="fill:#e1c590;fill-opacity:1"
   transform="scale(1.3333334)">
			<path
   class="st3"
   d="m 44.65,175.54 -0.87,-0.5 1.84,-3.23 c -6.99,-4.19 -11.31,-11.8 -11.31,-19.97 0,-4.11 1.08,-8.13 3.13,-11.66 l -7.35,-4.46 0.52,-0.85 8.2,4.98 -0.26,0.43 c -2.12,3.48 -3.24,7.48 -3.24,11.57 0,7.98 4.31,15.4 11.24,19.36 l 0.43,0.25 z"
   id="path2472"
   style="fill:#e1c590;fill-opacity:1" />
		</g><g
   id="g2478"
   style="fill:#e1c590;fill-opacity:1"
   transform="scale(1.3333334)">
			<path
   class="st3"
   d="m 70.55,175.54 -2.34,-4.09 0.43,-0.25 c 6.93,-3.96 11.24,-11.37 11.24,-19.36 0,-4.09 -1.12,-8.09 -3.24,-11.57 l -0.26,-0.43 12.69,-7.71 0.52,0.85 -11.84,7.19 c 2.05,3.53 3.13,7.55 3.13,11.66 0,8.18 -4.32,15.78 -11.31,19.97 l 1.85,3.23 z"
   id="path2476"
   style="fill:#e1c590;fill-opacity:1" />
		</g><g
   id="g2488"
   style="fill:#e1c590;fill-opacity:1"
   transform="scale(1.3333334)">
			<g
   id="g2482"
   style="fill:#e1c590;fill-opacity:1">
				<path
   class="st1"
   d="m 36.44,129.58 v 4 H 36 v -4 z"
   id="path2480"
   style="fill:#e1c590;fill-opacity:1" />
			</g>
			<g
   id="g2486"
   style="fill:#e1c590;fill-opacity:1">
				<path
   class="st1"
   d="m 37.48,133.58 v -4.17 l 3.12,3.27 v -3.1 h 0.44 v 4.18 l -3.12,-3.27 v 3.09 z"
   id="path2484"
   style="fill:#e1c590;fill-opacity:1" />
			</g>
		</g><g
   id="g2514"
   style="fill:#e1c590;fill-opacity:1"
   transform="scale(1.3333334)">
			<g
   id="g2492"
   style="fill:#e1c590;fill-opacity:1">
				<path
   class="st1"
   d="M 8.1,155.97 H 6.72 v 1.18 h 1.33 v 0.42 H 6.72 v 1.98 H 6.27 v -4 H 8.1 Z"
   id="path2490"
   style="fill:#e1c590;fill-opacity:1" />
			</g>
			<g
   id="g2496"
   style="fill:#e1c590;fill-opacity:1">
				<path
   class="st1"
   d="m 8.66,157.55 c 0,-1.19 0.93,-2.07 2.08,-2.07 1.15,0 2.08,0.88 2.08,2.07 0,1.19 -0.92,2.07 -2.08,2.07 -1.15,0 -2.08,-0.88 -2.08,-2.07 z m 0.46,0 c 0,0.92 0.73,1.65 1.63,1.65 0.9,0 1.62,-0.73 1.62,-1.65 0,-0.92 -0.73,-1.65 -1.62,-1.65 -0.91,0 -1.63,0.73 -1.63,1.65 z"
   id="path2494"
   style="fill:#e1c590;fill-opacity:1" />
			</g>
			<g
   id="g2500"
   style="fill:#e1c590;fill-opacity:1">
				<path
   class="st1"
   d="m 14.09,155.55 v 3.58 h 1.1 v 0.42 h -1.55 v -4 z"
   id="path2498"
   style="fill:#e1c590;fill-opacity:1" />
			</g>
			<g
   id="g2504"
   style="fill:#e1c590;fill-opacity:1">
				<path
   class="st1"
   d="m 16.23,155.55 v 3.58 h 1.1 v 0.42 h -1.55 v -4 z"
   id="path2502"
   style="fill:#e1c590;fill-opacity:1" />
			</g>
			<g
   id="g2508"
   style="fill:#e1c590;fill-opacity:1">
				<path
   class="st1"
   d="m 17.52,157.55 c 0,-1.19 0.93,-2.07 2.08,-2.07 1.15,0 2.08,0.88 2.08,2.07 0,1.19 -0.92,2.07 -2.08,2.07 -1.16,0 -2.08,-0.88 -2.08,-2.07 z m 0.45,0 c 0,0.92 0.73,1.65 1.63,1.65 0.9,0 1.62,-0.73 1.62,-1.65 0,-0.92 -0.73,-1.65 -1.62,-1.65 -0.9,0 -1.63,0.73 -1.63,1.65 z"
   id="path2506"
   style="fill:#e1c590;fill-opacity:1" />
			</g>
			<g
   id="g2512"
   style="fill:#e1c590;fill-opacity:1">
				<path
   class="st1"
   d="m 22.4,155.55 1.06,3 1.25,-3.2 1.19,3.2 1.17,-3 h 0.49 l -1.68,4.21 -1.18,-3.2 -1.26,3.2 -1.54,-4.21 z"
   id="path2510"
   style="fill:#e1c590;fill-opacity:1" />
			</g>
		</g><g
   id="g2544"
   style="fill:#e1c590;fill-opacity:1"
   transform="scale(1.3333334)">
			<g
   id="g2518"
   style="fill:#e1c590;fill-opacity:1">
				<path
   class="st1"
   d="M 5.99,146.17 H 4.36 v 1.19 h 1.58 v 0.42 H 4.36 v 1.55 h 1.63 v 0.42 H 3.92 v -4 h 2.07 z"
   id="path2516"
   style="fill:#e1c590;fill-opacity:1" />
			</g>
			<g
   id="g2522"
   style="fill:#e1c590;fill-opacity:1">
				<path
   class="st1"
   d="m 6.81,149.75 v -4.17 l 3.12,3.27 v -3.1 h 0.44 v 4.18 l -3.12,-3.27 v 3.09 z"
   id="path2520"
   style="fill:#e1c590;fill-opacity:1" />
			</g>
			<g
   id="g2526"
   style="fill:#e1c590;fill-opacity:1">
				<path
   class="st1"
   d="m 11.85,147.38 h 2.05 v -1.62 h 0.44 v 4 H 13.9 v -1.96 h -2.05 v 1.96 h -0.44 v -4 h 0.44 z"
   id="path2524"
   style="fill:#e1c590;fill-opacity:1" />
			</g>
			<g
   id="g2530"
   style="fill:#e1c590;fill-opacity:1">
				<path
   class="st1"
   d="m 17.59,148.62 h -1.7 l -0.48,1.13 h -0.49 l 1.84,-4.19 1.79,4.19 h -0.49 z m -0.18,-0.42 -0.67,-1.6 -0.68,1.6 z"
   id="path2528"
   style="fill:#e1c590;fill-opacity:1" />
			</g>
			<g
   id="g2534"
   style="fill:#e1c590;fill-opacity:1">
				<path
   class="st1"
   d="m 19.11,149.75 v -4.17 l 3.12,3.27 v -3.1 h 0.44 v 4.18 l -3.12,-3.27 v 3.09 z"
   id="path2532"
   style="fill:#e1c590;fill-opacity:1" />
			</g>
			<g
   id="g2538"
   style="fill:#e1c590;fill-opacity:1">
				<path
   class="st1"
   d="m 26.77,146.63 c -0.13,-0.13 -0.32,-0.28 -0.52,-0.37 -0.21,-0.1 -0.46,-0.16 -0.69,-0.16 -0.92,0 -1.61,0.74 -1.61,1.67 0,1.08 0.88,1.63 1.61,1.63 0.27,0 0.53,-0.08 0.74,-0.19 0.23,-0.11 0.39,-0.26 0.46,-0.33 v 0.55 c -0.44,0.32 -0.91,0.39 -1.21,0.39 -1.19,0 -2.07,-0.9 -2.07,-2.06 0,-1.19 0.89,-2.08 2.09,-2.08 0.24,0 0.7,0.03 1.18,0.4 v 0.55 z"
   id="path2536"
   style="fill:#e1c590;fill-opacity:1" />
			</g>
			<g
   id="g2542"
   style="fill:#e1c590;fill-opacity:1">
				<path
   class="st1"
   d="m 29.66,146.17 h -1.63 v 1.19 h 1.58 v 0.42 h -1.58 v 1.55 h 1.63 v 0.42 h -2.08 v -4 h 2.08 z"
   id="path2540"
   style="fill:#e1c590;fill-opacity:1" />
			</g>
		</g><g
   id="g2562"
   style="fill:#e1c590;fill-opacity:1"
   transform="scale(1.3333334)">
			<g
   id="g2548"
   style="fill:#e1c590;fill-opacity:1">
				<path
   class="st1"
   d="m 102.27,100.81 v 3.58 h 1.1 v 0.42 h -1.55 v -4 z"
   id="path2546"
   style="fill:#e1c590;fill-opacity:1" />
			</g>
			<g
   id="g2552"
   style="fill:#e1c590;fill-opacity:1">
				<path
   class="st1"
   d="m 106.05,101.23 h -1.63 v 1.19 H 106 v 0.42 h -1.58 v 1.55 h 1.63 v 0.42 h -2.08 v -4 h 2.08 z"
   id="path2550"
   style="fill:#e1c590;fill-opacity:1" />
			</g>
			<g
   id="g2556"
   style="fill:#e1c590;fill-opacity:1">
				<path
   class="st1"
   d="m 108.69,101.23 h -1.38 v 1.18 h 1.33 v 0.42 h -1.33 v 1.98 h -0.44 v -4 h 1.82 z"
   id="path2554"
   style="fill:#e1c590;fill-opacity:1" />
			</g>
			<g
   id="g2560"
   style="fill:#e1c590;fill-opacity:1">
				<path
   class="st1"
   d="m 110.46,101.23 v 3.58 h -0.44 v -3.58 h -0.97 v -0.42 h 2.39 v 0.42 z"
   id="path2558"
   style="fill:#e1c590;fill-opacity:1" />
			</g>
		</g><g
   id="g2588"
   style="fill:#e1c590;fill-opacity:1"
   transform="scale(1.3333334)">
			<g
   id="g2566"
   style="fill:#e1c590;fill-opacity:1">
				<path
   class="st1"
   d="m 47.74,215.82 h -1.7 l -0.48,1.13 h -0.49 l 1.84,-4.19 1.79,4.19 h -0.49 z m -0.18,-0.42 -0.67,-1.6 -0.68,1.6 z"
   id="path2564"
   style="fill:#e1c590;fill-opacity:1" />
			</g>
			<g
   id="g2570"
   style="fill:#e1c590;fill-opacity:1">
				<path
   class="st1"
   d="m 49.98,213.37 v 3.58 h -0.44 v -3.58 h -0.97 v -0.42 h 2.39 v 0.42 z"
   id="path2568"
   style="fill:#e1c590;fill-opacity:1" />
			</g>
			<g
   id="g2574"
   style="fill:#e1c590;fill-opacity:1">
				<path
   class="st1"
   d="m 52.66,213.37 v 3.58 h -0.44 v -3.58 h -0.97 v -0.42 h 2.39 v 0.42 z"
   id="path2572"
   style="fill:#e1c590;fill-opacity:1" />
			</g>
			<g
   id="g2578"
   style="fill:#e1c590;fill-opacity:1">
				<path
   class="st1"
   d="m 56.17,215.82 h -1.7 l -0.48,1.13 H 53.5 l 1.84,-4.19 1.79,4.19 h -0.49 z m -0.18,-0.42 -0.67,-1.6 -0.68,1.6 z"
   id="path2576"
   style="fill:#e1c590;fill-opacity:1" />
			</g>
			<g
   id="g2582"
   style="fill:#e1c590;fill-opacity:1">
				<path
   class="st1"
   d="m 60.62,213.83 c -0.13,-0.13 -0.32,-0.28 -0.52,-0.37 -0.21,-0.1 -0.46,-0.16 -0.69,-0.16 -0.92,0 -1.61,0.74 -1.61,1.67 0,1.08 0.88,1.63 1.61,1.63 0.27,0 0.53,-0.08 0.74,-0.19 0.23,-0.11 0.39,-0.26 0.46,-0.33 v 0.55 c -0.44,0.32 -0.91,0.39 -1.21,0.39 -1.19,0 -2.07,-0.9 -2.07,-2.06 0,-1.19 0.89,-2.08 2.09,-2.08 0.24,0 0.7,0.03 1.18,0.4 v 0.55 z"
   id="path2580"
   style="fill:#e1c590;fill-opacity:1" />
			</g>
			<g
   id="g2586"
   style="fill:#e1c590;fill-opacity:1">
				<path
   class="st1"
   d="m 61.89,214.66 1.7,-1.71 h 0.6 l -1.87,1.87 1.93,2.13 h -0.61 l -1.64,-1.84 -0.11,0.11 v 1.72 h -0.44 v -4 h 0.44 z"
   id="path2584"
   style="fill:#e1c590;fill-opacity:1" />
			</g>
		</g><g
   id="g2626"
   style="fill:#e1c590;fill-opacity:1"
   transform="scale(1.3333334)">
			<g
   id="g2592"
   style="fill:#e1c590;fill-opacity:1">
				<path
   class="st1"
   d="m 15.35,203.02 v 3.58 H 14.9 v -3.58 h -0.97 v -0.42 h 2.39 v 0.42 z"
   id="path2590"
   style="fill:#e1c590;fill-opacity:1" />
			</g>
			<g
   id="g2596"
   style="fill:#e1c590;fill-opacity:1">
				<path
   class="st1"
   d="m 17.36,204.22 h 2.05 v -1.62 h 0.44 v 4 h -0.44 v -1.96 h -2.05 v 1.96 h -0.44 v -4 h 0.44 z"
   id="path2594"
   style="fill:#e1c590;fill-opacity:1" />
			</g>
			<g
   id="g2600"
   style="fill:#e1c590;fill-opacity:1">
				<path
   class="st1"
   d="m 21.53,202.6 c 0.27,0 0.67,0.02 0.97,0.22 0.23,0.16 0.44,0.46 0.44,0.89 0,0.61 -0.4,1.06 -1.01,1.1 l 1.27,1.79 h -0.54 l -1.22,-1.75 h -0.11 v 1.75 h -0.44 v -4 z m -0.19,1.85 h 0.28 c 0.55,0 0.88,-0.26 0.88,-0.73 0,-0.22 -0.07,-0.44 -0.32,-0.59 -0.18,-0.1 -0.38,-0.11 -0.58,-0.11 h -0.27 v 1.43 z"
   id="path2598"
   style="fill:#e1c590;fill-opacity:1" />
			</g>
			<g
   id="g2604"
   style="fill:#e1c590;fill-opacity:1">
				<path
   class="st1"
   d="m 25.98,203.02 h -1.63 v 1.19 h 1.58 v 0.42 h -1.58 v 1.55 h 1.63 v 0.42 H 23.9 v -4 h 2.07 v 0.42 z"
   id="path2602"
   style="fill:#e1c590;fill-opacity:1" />
			</g>
			<g
   id="g2608"
   style="fill:#e1c590;fill-opacity:1">
				<path
   class="st1"
   d="m 28.58,203.39 c -0.05,-0.11 -0.14,-0.23 -0.23,-0.3 -0.08,-0.06 -0.22,-0.14 -0.45,-0.14 -0.4,0 -0.67,0.25 -0.67,0.62 0,0.16 0.04,0.25 0.15,0.35 0.12,0.12 0.27,0.19 0.42,0.25 l 0.38,0.17 c 0.23,0.1 0.45,0.21 0.62,0.38 0.2,0.2 0.29,0.44 0.29,0.73 0,0.74 -0.55,1.23 -1.27,1.23 -0.26,0 -0.59,-0.05 -0.87,-0.32 -0.2,-0.19 -0.32,-0.47 -0.37,-0.71 l 0.43,-0.12 c 0.03,0.21 0.13,0.39 0.24,0.51 0.17,0.17 0.37,0.22 0.58,0.22 0.55,0 0.8,-0.39 0.8,-0.79 0,-0.18 -0.05,-0.34 -0.2,-0.47 -0.11,-0.11 -0.27,-0.18 -0.48,-0.28 l -0.36,-0.17 c -0.16,-0.07 -0.35,-0.16 -0.53,-0.33 -0.17,-0.17 -0.28,-0.35 -0.28,-0.65 0,-0.62 0.47,-1.03 1.12,-1.03 0.25,0 0.44,0.05 0.64,0.18 0.16,0.11 0.3,0.27 0.39,0.44 z"
   id="path2606"
   style="fill:#e1c590;fill-opacity:1" />
			</g>
			<g
   id="g2612"
   style="fill:#e1c590;fill-opacity:1">
				<path
   class="st1"
   d="m 30.35,204.22 h 2.05 v -1.62 h 0.44 v 4 H 32.4 v -1.96 h -2.05 v 1.96 H 29.9 v -4 h 0.44 v 1.62 z"
   id="path2610"
   style="fill:#e1c590;fill-opacity:1" />
			</g>
			<g
   id="g2616"
   style="fill:#e1c590;fill-opacity:1">
				<path
   class="st1"
   d="m 33.66,204.6 c 0,-1.19 0.93,-2.07 2.08,-2.07 1.15,0 2.08,0.88 2.08,2.07 0,1.19 -0.92,2.07 -2.08,2.07 -1.16,0 -2.08,-0.88 -2.08,-2.07 z m 0.46,0 c 0,0.92 0.73,1.65 1.63,1.65 0.9,0 1.62,-0.73 1.62,-1.65 0,-0.92 -0.73,-1.65 -1.62,-1.65 -0.91,0 -1.63,0.73 -1.63,1.65 z"
   id="path2614"
   style="fill:#e1c590;fill-opacity:1" />
			</g>
			<g
   id="g2620"
   style="fill:#e1c590;fill-opacity:1">
				<path
   class="st1"
   d="m 39.08,202.6 v 3.58 h 1.1 v 0.42 h -1.55 v -4 z"
   id="path2618"
   style="fill:#e1c590;fill-opacity:1" />
			</g>
			<g
   id="g2624"
   style="fill:#e1c590;fill-opacity:1">
				<path
   class="st1"
   d="m 40.79,202.6 h 0.82 c 0.4,0 0.97,0.04 1.48,0.47 0.37,0.31 0.68,0.82 0.68,1.54 0,0.84 -0.41,1.29 -0.7,1.54 -0.37,0.31 -0.75,0.46 -1.46,0.46 H 40.8 v -4.01 z m 0.44,3.58 h 0.39 c 0.32,0 0.76,-0.04 1.15,-0.36 0.3,-0.25 0.54,-0.65 0.54,-1.22 0,-0.96 -0.67,-1.58 -1.69,-1.58 h -0.39 z"
   id="path2622"
   style="fill:#e1c590;fill-opacity:1" />
			</g>
		</g><g
   id="g2660"
   style="fill:#e1c590;fill-opacity:1"
   transform="scale(1.3333334)">
			<g
   id="g2630"
   style="fill:#e1c590;fill-opacity:1">
				<path
   class="st1"
   d="M 2.89,284.7 H 3.7 c 0.4,0 0.97,0.04 1.48,0.47 0.37,0.31 0.68,0.82 0.68,1.54 0,0.84 -0.41,1.29 -0.7,1.54 -0.37,0.31 -0.75,0.46 -1.46,0.46 H 2.89 Z m 0.44,3.58 h 0.39 c 0.32,0 0.76,-0.04 1.15,-0.36 0.3,-0.25 0.54,-0.65 0.54,-1.22 0,-0.96 -0.67,-1.58 -1.69,-1.58 H 3.33 Z"
   id="path2628"
   style="fill:#e1c590;fill-opacity:1" />
			</g>
			<g
   id="g2634"
   style="fill:#e1c590;fill-opacity:1">
				<path
   class="st1"
   d="m 7.12,287.15 c 0,0.34 0,0.7 0.32,0.97 0.16,0.14 0.44,0.23 0.66,0.23 0.22,0 0.5,-0.09 0.66,-0.23 0.32,-0.27 0.32,-0.63 0.32,-0.97 v -2.45 h 0.44 v 2.57 c 0,0.33 -0.04,0.66 -0.25,0.96 -0.24,0.33 -0.66,0.54 -1.17,0.54 -0.51,0 -0.93,-0.21 -1.17,-0.54 -0.22,-0.3 -0.25,-0.62 -0.25,-0.96 v -2.57 h 0.44 z"
   id="path2632"
   style="fill:#e1c590;fill-opacity:1" />
			</g>
			<g
   id="g2638"
   style="fill:#e1c590;fill-opacity:1">
				<path
   class="st1"
   d="m 11.2,284.7 c 0.27,0 0.67,0.02 0.97,0.22 0.23,0.16 0.44,0.46 0.44,0.89 0,0.61 -0.4,1.06 -1.01,1.1 l 1.27,1.79 h -0.54 l -1.22,-1.75 H 11 v 1.75 h -0.44 v -4 z m -0.2,1.85 h 0.28 c 0.55,0 0.88,-0.26 0.88,-0.73 0,-0.22 -0.07,-0.44 -0.32,-0.59 -0.18,-0.1 -0.38,-0.11 -0.58,-0.11 H 11 Z"
   id="path2636"
   style="fill:#e1c590;fill-opacity:1" />
			</g>
			<g
   id="g2642"
   style="fill:#e1c590;fill-opacity:1">
				<path
   class="st1"
   d="m 15.77,287.57 h -1.7 l -0.48,1.13 H 13.1 l 1.84,-4.19 1.79,4.19 h -0.49 z m -0.17,-0.42 -0.67,-1.6 -0.68,1.6 z"
   id="path2640"
   style="fill:#e1c590;fill-opacity:1" />
			</g>
			<g
   id="g2646"
   style="fill:#e1c590;fill-opacity:1">
				<path
   class="st1"
   d="m 18.01,285.12 v 3.58 h -0.44 v -3.58 H 16.6 v -0.42 h 2.39 v 0.42 z"
   id="path2644"
   style="fill:#e1c590;fill-opacity:1" />
			</g>
			<g
   id="g2650"
   style="fill:#e1c590;fill-opacity:1">
				<path
   class="st1"
   d="m 20.03,284.7 v 4 h -0.44 v -4 z"
   id="path2648"
   style="fill:#e1c590;fill-opacity:1" />
			</g>
			<g
   id="g2654"
   style="fill:#e1c590;fill-opacity:1">
				<path
   class="st1"
   d="m 20.84,286.7 c 0,-1.19 0.93,-2.07 2.08,-2.07 1.15,0 2.08,0.88 2.08,2.07 0,1.19 -0.92,2.07 -2.08,2.07 -1.15,0 -2.08,-0.88 -2.08,-2.07 z m 0.46,0 c 0,0.92 0.73,1.65 1.63,1.65 0.9,0 1.62,-0.73 1.62,-1.65 0,-0.92 -0.73,-1.65 -1.62,-1.65 -0.9,0 -1.63,0.73 -1.63,1.65 z"
   id="path2652"
   style="fill:#e1c590;fill-opacity:1" />
			</g>
			<g
   id="g2658"
   style="fill:#e1c590;fill-opacity:1">
				<path
   class="st1"
   d="m 25.82,288.7 v -4.17 l 3.12,3.27 v -3.1 h 0.44 v 4.18 l -3.12,-3.27 v 3.09 z"
   id="path2656"
   style="fill:#e1c590;fill-opacity:1" />
			</g>
		</g><g
   id="g2682"
   style="fill:#e1c590;fill-opacity:1"
   transform="scale(1.3333334)">
			<g
   id="g2664"
   style="fill:#e1c590;fill-opacity:1">
				<path
   class="st1"
   d="m 4.55,337.25 c 0.4,0 0.74,0.05 1.01,0.28 0.29,0.25 0.37,0.61 0.37,0.86 0,0.56 -0.35,1.12 -1.27,1.12 H 4.27 v 1.74 H 3.82 v -4 z m -0.28,1.84 h 0.37 c 0.53,0 0.85,-0.26 0.85,-0.73 0,-0.64 -0.59,-0.7 -0.88,-0.7 H 4.27 Z"
   id="path2662"
   style="fill:#e1c590;fill-opacity:1" />
			</g>
			<g
   id="g2668"
   style="fill:#e1c590;fill-opacity:1">
				<path
   class="st1"
   d="M 8.63,337.67 H 7 v 1.19 h 1.58 v 0.42 H 7 v 1.55 h 1.63 v 0.42 H 6.56 v -4 h 2.08 v 0.42 z"
   id="path2666"
   style="fill:#e1c590;fill-opacity:1" />
			</g>
			<g
   id="g2672"
   style="fill:#e1c590;fill-opacity:1">
				<path
   class="st1"
   d="m 9.45,337.25 h 0.82 c 0.4,0 0.97,0.04 1.48,0.47 0.37,0.31 0.68,0.82 0.68,1.54 0,0.84 -0.41,1.29 -0.7,1.54 -0.37,0.31 -0.75,0.46 -1.46,0.46 H 9.45 Z m 0.44,3.58 h 0.39 c 0.32,0 0.76,-0.04 1.15,-0.36 0.3,-0.25 0.54,-0.65 0.54,-1.22 0,-0.96 -0.67,-1.58 -1.69,-1.58 H 9.89 Z"
   id="path2670"
   style="fill:#e1c590;fill-opacity:1" />
			</g>
			<g
   id="g2676"
   style="fill:#e1c590;fill-opacity:1">
				<path
   class="st1"
   d="m 15.45,340.12 h -1.7 l -0.48,1.13 h -0.49 l 1.84,-4.19 1.79,4.19 h -0.49 z m -0.18,-0.41 -0.67,-1.6 -0.68,1.6 z"
   id="path2674"
   style="fill:#e1c590;fill-opacity:1" />
			</g>
			<g
   id="g2680"
   style="fill:#e1c590;fill-opacity:1">
				<path
   class="st1"
   d="m 17.42,337.25 v 3.58 h 1.1 v 0.42 h -1.55 v -4 z"
   id="path2678"
   style="fill:#e1c590;fill-opacity:1" />
			</g>
		</g><g
   id="g2700"
   style="fill:#e1c590;fill-opacity:1"
   transform="scale(1.3333334)">
			<g
   id="g2686"
   style="fill:#e1c590;fill-opacity:1">
				<path
   class="st1"
   d="m 94.73,306.94 h 1.67 v 0.1 c 0,0.44 -0.13,0.92 -0.38,1.27 -0.12,0.16 -0.57,0.72 -1.49,0.72 -1.19,0 -2.08,-0.91 -2.08,-2.07 0,-1.16 0.89,-2.07 2.09,-2.07 0.38,0 0.83,0.1 1.22,0.4 0.18,0.14 0.35,0.32 0.46,0.47 l -0.33,0.3 c -0.11,-0.16 -0.25,-0.31 -0.38,-0.41 -0.19,-0.16 -0.49,-0.34 -0.97,-0.34 -0.96,0 -1.64,0.73 -1.64,1.66 0,1.09 0.87,1.64 1.62,1.64 0.53,0 1,-0.27 1.22,-0.67 0.07,-0.13 0.15,-0.32 0.16,-0.57 h -1.19 v -0.43 z"
   id="path2684"
   style="fill:#e1c590;fill-opacity:1" />
			</g>
			<g
   id="g2690"
   style="fill:#e1c590;fill-opacity:1">
				<path
   class="st1"
   d="m 99.42,307.82 h -1.7 l -0.48,1.13 h -0.49 l 1.84,-4.19 1.79,4.19 h -0.49 z m -0.18,-0.42 -0.67,-1.6 -0.68,1.6 z"
   id="path2688"
   style="fill:#e1c590;fill-opacity:1" />
			</g>
			<g
   id="g2694"
   style="fill:#e1c590;fill-opacity:1">
				<path
   class="st1"
   d="m 101.66,305.37 v 3.58 h -0.44 v -3.58 h -0.97 v -0.42 h 2.39 v 0.42 z"
   id="path2692"
   style="fill:#e1c590;fill-opacity:1" />
			</g>
			<g
   id="g2698"
   style="fill:#e1c590;fill-opacity:1">
				<path
   class="st1"
   d="m 105.3,305.37 h -1.63 v 1.19 h 1.58 v 0.42 h -1.58 v 1.55 h 1.63 v 0.42 h -2.08 v -4 h 2.08 z"
   id="path2696"
   style="fill:#e1c590;fill-opacity:1" />
			</g>
		</g><g
   id="g2718"
   style="fill:#e1c590;fill-opacity:1"
   transform="scale(1.3333334)">
			<g
   id="g2704"
   style="fill:#e1c590;fill-opacity:1">
				<path
   class="st1"
   d="m 21.59,242.8 h 1.67 v 0.1 c 0,0.44 -0.13,0.92 -0.38,1.27 -0.12,0.16 -0.57,0.72 -1.49,0.72 -1.19,0 -2.07,-0.91 -2.07,-2.07 0,-1.16 0.89,-2.07 2.09,-2.07 0.38,0 0.83,0.1 1.22,0.4 0.18,0.14 0.35,0.32 0.46,0.47 l -0.33,0.3 c -0.11,-0.16 -0.25,-0.31 -0.38,-0.41 -0.19,-0.16 -0.49,-0.34 -0.97,-0.34 -0.97,0 -1.64,0.73 -1.64,1.66 0,1.09 0.87,1.64 1.63,1.64 0.53,0 1,-0.27 1.22,-0.67 0.07,-0.13 0.15,-0.32 0.16,-0.57 h -1.19 z"
   id="path2702"
   style="fill:#e1c590;fill-opacity:1" />
			</g>
			<g
   id="g2708"
   style="fill:#e1c590;fill-opacity:1">
				<path
   class="st1"
   d="m 26.29,243.69 h -1.7 l -0.48,1.13 h -0.49 l 1.84,-4.19 1.79,4.19 h -0.49 z m -0.18,-0.42 -0.67,-1.6 -0.68,1.6 z"
   id="path2706"
   style="fill:#e1c590;fill-opacity:1" />
			</g>
			<g
   id="g2712"
   style="fill:#e1c590;fill-opacity:1">
				<path
   class="st1"
   d="m 28.52,241.23 v 3.58 h -0.44 v -3.58 h -0.97 v -0.42 h 2.39 v 0.42 z"
   id="path2710"
   style="fill:#e1c590;fill-opacity:1" />
			</g>
			<g
   id="g2716"
   style="fill:#e1c590;fill-opacity:1">
				<path
   class="st1"
   d="m 32.17,241.23 h -1.63 v 1.19 h 1.58 v 0.42 h -1.58 v 1.55 h 1.63 v 0.42 H 30.1 v -4 h 2.08 v 0.42 z"
   id="path2714"
   style="fill:#e1c590;fill-opacity:1" />
			</g>
		</g><g
   id="g2736"
   style="fill:#e1c590;fill-opacity:1"
   transform="scale(1.3333334)">
			<g
   id="g2722"
   style="fill:#e1c590;fill-opacity:1">
				<path
   class="st1"
   d="m 34.65,260.48 v 3.58 h -0.44 v -3.58 h -0.97 v -0.42 h 2.39 v 0.42 z"
   id="path2720"
   style="fill:#e1c590;fill-opacity:1" />
			</g>
			<g
   id="g2726"
   style="fill:#e1c590;fill-opacity:1">
				<path
   class="st1"
   d="m 36.87,260.06 c 0.27,0 0.67,0.02 0.97,0.22 0.23,0.16 0.44,0.46 0.44,0.89 0,0.61 -0.4,1.06 -1.01,1.1 l 1.27,1.79 H 38 l -1.22,-1.75 h -0.11 v 1.75 h -0.44 v -4 z m -0.2,1.86 h 0.28 c 0.55,0 0.88,-0.26 0.88,-0.73 0,-0.22 -0.07,-0.44 -0.32,-0.59 -0.18,-0.1 -0.38,-0.11 -0.58,-0.11 h -0.27 v 1.43 z"
   id="path2724"
   style="fill:#e1c590;fill-opacity:1" />
			</g>
			<g
   id="g2730"
   style="fill:#e1c590;fill-opacity:1">
				<path
   class="st1"
   d="m 39.68,260.06 v 4 h -0.44 v -4 z"
   id="path2728"
   style="fill:#e1c590;fill-opacity:1" />
			</g>
			<g
   id="g2734"
   style="fill:#e1c590;fill-opacity:1">
				<path
   class="st1"
   d="m 42.77,262.05 h 1.67 v 0.1 c 0,0.44 -0.13,0.92 -0.38,1.27 -0.12,0.16 -0.57,0.72 -1.49,0.72 -1.19,0 -2.07,-0.91 -2.07,-2.07 0,-1.16 0.89,-2.07 2.09,-2.07 0.38,0 0.83,0.1 1.22,0.4 0.18,0.14 0.35,0.32 0.46,0.47 l -0.33,0.3 c -0.11,-0.16 -0.25,-0.31 -0.38,-0.41 -0.19,-0.16 -0.49,-0.34 -0.97,-0.34 -0.97,0 -1.64,0.73 -1.64,1.66 0,1.09 0.87,1.64 1.63,1.64 0.53,0 1,-0.27 1.22,-0.67 0.07,-0.13 0.15,-0.32 0.16,-0.57 h -1.19 z"
   id="path2732"
   style="fill:#e1c590;fill-opacity:1" />
			</g>
		</g><g
   id="g2766"
   style="fill:#e1c590;fill-opacity:1"
   transform="scale(1.3333334)">
			<g
   id="g2740"
   style="fill:#e1c590;fill-opacity:1">
				<path
   class="st1"
   d="m 91.05,193.18 c 0.27,0 0.67,0.02 0.97,0.22 0.23,0.16 0.44,0.46 0.44,0.89 0,0.61 -0.4,1.06 -1.01,1.1 l 1.27,1.79 h -0.54 l -1.22,-1.75 h -0.11 v 1.75 h -0.44 v -4 z m -0.2,1.85 h 0.28 c 0.55,0 0.88,-0.26 0.88,-0.73 0,-0.22 -0.07,-0.44 -0.32,-0.59 -0.18,-0.1 -0.38,-0.11 -0.58,-0.11 h -0.27 v 1.43 z"
   id="path2738"
   style="fill:#e1c590;fill-opacity:1" />
			</g>
			<g
   id="g2744"
   style="fill:#e1c590;fill-opacity:1">
				<path
   class="st1"
   d="m 95.5,193.6 h -1.63 v 1.19 h 1.58 v 0.42 h -1.58 v 1.55 h 1.63 v 0.42 h -2.07 v -4 h 2.07 z"
   id="path2742"
   style="fill:#e1c590;fill-opacity:1" />
			</g>
			<g
   id="g2748"
   style="fill:#e1c590;fill-opacity:1">
				<path
   class="st1"
   d="m 96.76,193.18 v 3.58 h 1.1 v 0.42 h -1.55 v -4 z"
   id="path2746"
   style="fill:#e1c590;fill-opacity:1" />
			</g>
			<g
   id="g2752"
   style="fill:#e1c590;fill-opacity:1">
				<path
   class="st1"
   d="m 100.54,193.6 h -1.63 v 1.19 h 1.58 v 0.42 h -1.58 v 1.55 h 1.63 v 0.42 h -2.08 v -4 h 2.08 z"
   id="path2750"
   style="fill:#e1c590;fill-opacity:1" />
			</g>
			<g
   id="g2756"
   style="fill:#e1c590;fill-opacity:1">
				<path
   class="st1"
   d="m 103.56,196.05 h -1.7 l -0.48,1.13 h -0.49 l 1.84,-4.19 1.79,4.19 h -0.49 z m -0.17,-0.42 -0.67,-1.6 -0.68,1.6 z"
   id="path2754"
   style="fill:#e1c590;fill-opacity:1" />
			</g>
			<g
   id="g2760"
   style="fill:#e1c590;fill-opacity:1">
				<path
   class="st1"
   d="m 106.81,193.97 c -0.05,-0.11 -0.14,-0.23 -0.23,-0.3 -0.08,-0.06 -0.22,-0.14 -0.45,-0.14 -0.4,0 -0.67,0.25 -0.67,0.62 0,0.16 0.04,0.25 0.15,0.35 0.12,0.12 0.27,0.19 0.42,0.25 l 0.38,0.17 c 0.23,0.1 0.45,0.21 0.62,0.38 0.2,0.2 0.29,0.44 0.29,0.73 0,0.74 -0.55,1.23 -1.27,1.23 -0.26,0 -0.59,-0.05 -0.87,-0.32 -0.2,-0.19 -0.32,-0.47 -0.37,-0.71 l 0.43,-0.12 c 0.03,0.21 0.13,0.39 0.24,0.51 0.17,0.17 0.37,0.22 0.58,0.22 0.55,0 0.8,-0.39 0.8,-0.79 0,-0.18 -0.05,-0.34 -0.2,-0.47 -0.11,-0.11 -0.27,-0.18 -0.48,-0.28 l -0.36,-0.17 c -0.16,-0.07 -0.35,-0.16 -0.53,-0.33 -0.17,-0.17 -0.28,-0.35 -0.28,-0.65 0,-0.62 0.47,-1.03 1.12,-1.03 0.25,0 0.44,0.05 0.64,0.18 0.16,0.11 0.3,0.27 0.39,0.44 z"
   id="path2758"
   style="fill:#e1c590;fill-opacity:1" />
			</g>
			<g
   id="g2764"
   style="fill:#e1c590;fill-opacity:1">
				<path
   class="st1"
   d="m 110.2,193.6 h -1.63 v 1.19 h 1.58 v 0.42 h -1.58 v 1.55 h 1.63 v 0.42 h -2.08 v -4 h 2.08 z"
   id="path2762"
   style="fill:#e1c590;fill-opacity:1" />
			</g>
		</g><g
   id="g2800"
   style="fill:#e1c590;fill-opacity:1"
   transform="scale(1.3333334)">
			<g
   id="g2770"
   style="fill:#e1c590;fill-opacity:1">
				<path
   class="st1"
   d="m 88.86,235.5 h -1.63 v 1.19 h 1.58 v 0.42 h -1.58 v 1.55 h 1.63 v 0.42 h -2.08 v -4 h 2.08 z"
   id="path2768"
   style="fill:#e1c590;fill-opacity:1" />
			</g>
			<g
   id="g2774"
   style="fill:#e1c590;fill-opacity:1">
				<path
   class="st1"
   d="m 89.67,239.08 v -4.17 l 3.12,3.27 v -3.1 h 0.44 v 4.18 l -3.12,-3.27 v 3.09 z"
   id="path2772"
   style="fill:#e1c590;fill-opacity:1" />
			</g>
			<g
   id="g2778"
   style="fill:#e1c590;fill-opacity:1">
				<path
   class="st1"
   d="m 94.29,235.08 1.13,3.05 1.13,-3.05 h 0.49 l -1.62,4.24 -1.62,-4.24 z"
   id="path2776"
   style="fill:#e1c590;fill-opacity:1" />
			</g>
			<g
   id="g2782"
   style="fill:#e1c590;fill-opacity:1">
				<path
   class="st1"
   d="m 99.68,235.5 h -1.63 v 1.19 h 1.58 v 0.42 h -1.58 v 1.55 h 1.63 v 0.42 H 97.6 v -4 h 2.08 z"
   id="path2780"
   style="fill:#e1c590;fill-opacity:1" />
			</g>
			<g
   id="g2786"
   style="fill:#e1c590;fill-opacity:1">
				<path
   class="st1"
   d="m 100.94,235.08 v 3.58 h 1.1 v 0.42 h -1.55 v -4 z"
   id="path2784"
   style="fill:#e1c590;fill-opacity:1" />
			</g>
			<g
   id="g2790"
   style="fill:#e1c590;fill-opacity:1">
				<path
   class="st1"
   d="m 102.23,237.08 c 0,-1.19 0.93,-2.07 2.08,-2.07 1.15,0 2.08,0.88 2.08,2.07 0,1.19 -0.92,2.07 -2.08,2.07 -1.16,0 -2.08,-0.88 -2.08,-2.07 z m 0.45,0 c 0,0.92 0.73,1.65 1.63,1.65 0.9,0 1.62,-0.73 1.62,-1.65 0,-0.92 -0.73,-1.65 -1.62,-1.65 -0.9,0 -1.63,0.73 -1.63,1.65 z"
   id="path2788"
   style="fill:#e1c590;fill-opacity:1" />
			</g>
			<g
   id="g2794"
   style="fill:#e1c590;fill-opacity:1">
				<path
   class="st1"
   d="m 107.93,235.08 c 0.4,0 0.74,0.05 1.01,0.28 0.29,0.25 0.37,0.61 0.37,0.86 0,0.56 -0.35,1.12 -1.27,1.12 h -0.39 v 1.74 h -0.44 v -4 z m -0.28,1.84 h 0.37 c 0.53,0 0.85,-0.26 0.85,-0.73 0,-0.64 -0.59,-0.7 -0.88,-0.7 h -0.33 v 1.43 z"
   id="path2792"
   style="fill:#e1c590;fill-opacity:1" />
			</g>
			<g
   id="g2798"
   style="fill:#e1c590;fill-opacity:1">
				<path
   class="st1"
   d="m 112.02,235.5 h -1.63 v 1.19 h 1.58 v 0.42 h -1.58 v 1.55 h 1.63 v 0.42 h -2.08 v -4 h 2.08 z"
   id="path2796"
   style="fill:#e1c590;fill-opacity:1" />
			</g>
		</g><g
   id="g2822"
   style="fill:#e1c590;fill-opacity:1"
   transform="scale(1.3333334)">
			<g
   id="g2804"
   style="fill:#e1c590;fill-opacity:1">
				<path
   class="st1"
   d="m 97.1,23.94 c 0.27,0 0.67,0.02 0.97,0.22 0.23,0.16 0.44,0.46 0.44,0.89 0,0.61 -0.4,1.06 -1.01,1.1 l 1.27,1.79 H 98.23 L 97.01,26.19 H 96.9 v 1.75 h -0.44 v -4 z m -0.2,1.85 h 0.28 c 0.55,0 0.88,-0.26 0.88,-0.73 0,-0.22 -0.07,-0.44 -0.32,-0.59 -0.18,-0.1 -0.38,-0.11 -0.58,-0.11 H 96.9 Z"
   id="path2802"
   style="fill:#e1c590;fill-opacity:1" />
			</g>
			<g
   id="g2808"
   style="fill:#e1c590;fill-opacity:1">
				<path
   class="st1"
   d="m 99.92,23.94 v 4 h -0.44 v -4 z"
   id="path2806"
   style="fill:#e1c590;fill-opacity:1" />
			</g>
			<g
   id="g2812"
   style="fill:#e1c590;fill-opacity:1">
				<path
   class="st1"
   d="m 103.01,25.93 h 1.67 v 0.1 c 0,0.44 -0.13,0.92 -0.38,1.27 -0.12,0.16 -0.57,0.72 -1.49,0.72 -1.19,0 -2.08,-0.91 -2.08,-2.07 0,-1.16 0.89,-2.07 2.09,-2.07 0.38,0 0.83,0.1 1.22,0.4 0.18,0.14 0.35,0.32 0.46,0.47 l -0.33,0.3 c -0.11,-0.16 -0.25,-0.31 -0.38,-0.41 -0.19,-0.16 -0.49,-0.34 -0.97,-0.34 -0.96,0 -1.64,0.73 -1.64,1.66 0,1.09 0.87,1.64 1.62,1.64 0.53,0 1,-0.27 1.22,-0.67 0.07,-0.13 0.15,-0.32 0.16,-0.57 h -1.19 v -0.43 z"
   id="path2810"
   style="fill:#e1c590;fill-opacity:1" />
			</g>
			<g
   id="g2816"
   style="fill:#e1c590;fill-opacity:1">
				<path
   class="st1"
   d="m 105.94,25.56 h 2.05 v -1.62 h 0.44 v 4 h -0.44 v -1.96 h -2.05 v 1.96 h -0.44 v -4 h 0.44 z"
   id="path2814"
   style="fill:#e1c590;fill-opacity:1" />
			</g>
			<g
   id="g2820"
   style="fill:#e1c590;fill-opacity:1">
				<path
   class="st1"
   d="m 110.45,24.36 v 3.58 h -0.44 v -3.58 h -0.97 v -0.42 h 2.39 v 0.42 z"
   id="path2818"
   style="fill:#e1c590;fill-opacity:1" />
			</g>
		</g><g
   id="g2836"
   style="fill:#e1c590;fill-opacity:1"
   transform="scale(1.3333334)">
			<g
   id="g2826"
   style="fill:#e1c590;fill-opacity:1">
				<path
   class="st1"
   d="m 84.59,64.7 c 0,-1.19 0.93,-2.07 2.08,-2.07 1.15,0 2.08,0.88 2.08,2.07 0,1.19 -0.92,2.07 -2.08,2.07 -1.16,0 -2.08,-0.89 -2.08,-2.07 z m 0.45,0 c 0,0.92 0.73,1.65 1.63,1.65 0.9,0 1.62,-0.73 1.62,-1.65 0,-0.92 -0.73,-1.65 -1.62,-1.65 -0.9,0 -1.63,0.73 -1.63,1.65 z"
   id="path2824"
   style="fill:#e1c590;fill-opacity:1" />
			</g>
			<g
   id="g2830"
   style="fill:#e1c590;fill-opacity:1">
				<path
   class="st1"
   d="m 90.01,65.15 c 0,0.34 0,0.7 0.32,0.97 0.16,0.14 0.44,0.23 0.66,0.23 0.22,0 0.5,-0.09 0.66,-0.23 0.32,-0.27 0.32,-0.63 0.32,-0.97 V 62.7 h 0.44 v 2.57 c 0,0.33 -0.04,0.66 -0.25,0.96 -0.24,0.33 -0.66,0.54 -1.17,0.54 -0.51,0 -0.93,-0.21 -1.17,-0.54 -0.22,-0.3 -0.25,-0.62 -0.25,-0.96 V 62.7 h 0.44 z"
   id="path2828"
   style="fill:#e1c590;fill-opacity:1" />
			</g>
			<g
   id="g2834"
   style="fill:#e1c590;fill-opacity:1">
				<path
   class="st1"
   d="m 94.43,63.11 v 3.58 h -0.44 v -3.58 h -0.97 v -0.42 h 2.39 v 0.42 z"
   id="path2832"
   style="fill:#e1c590;fill-opacity:1" />
			</g>
		</g><g
   id="g2850"
   style="fill:#e1c590;fill-opacity:1"
   transform="scale(1.3333334)">
			<g
   id="g2840"
   style="fill:#e1c590;fill-opacity:1">
				<path
   class="st1"
   d="m 70.19,131.4 c 0,-1.19 0.93,-2.07 2.08,-2.07 1.15,0 2.08,0.88 2.08,2.07 0,1.19 -0.92,2.07 -2.08,2.07 -1.16,0 -2.08,-0.88 -2.08,-2.07 z m 0.46,0 c 0,0.92 0.73,1.65 1.63,1.65 0.9,0 1.62,-0.73 1.62,-1.65 0,-0.92 -0.73,-1.65 -1.62,-1.65 -0.91,0 -1.63,0.73 -1.63,1.65 z"
   id="path2838"
   style="fill:#e1c590;fill-opacity:1" />
			</g>
			<g
   id="g2844"
   style="fill:#e1c590;fill-opacity:1">
				<path
   class="st1"
   d="m 75.62,131.85 c 0,0.34 0,0.7 0.32,0.97 0.16,0.14 0.44,0.23 0.66,0.23 0.22,0 0.5,-0.09 0.66,-0.23 0.32,-0.27 0.32,-0.63 0.32,-0.97 v -2.45 h 0.44 v 2.57 c 0,0.33 -0.04,0.66 -0.25,0.96 -0.24,0.33 -0.66,0.54 -1.17,0.54 -0.51,0 -0.93,-0.21 -1.17,-0.54 -0.22,-0.3 -0.25,-0.62 -0.25,-0.96 v -2.57 h 0.44 z"
   id="path2842"
   style="fill:#e1c590;fill-opacity:1" />
			</g>
			<g
   id="g2848"
   style="fill:#e1c590;fill-opacity:1">
				<path
   class="st1"
   d="m 80.03,129.82 v 3.58 h -0.44 v -3.58 H 78.62 V 129.4 H 81 v 0.42 z"
   id="path2846"
   style="fill:#e1c590;fill-opacity:1" />
			</g>
		</g><g
   id="g2864"
   style="fill:#e1c590;fill-opacity:1"
   transform="scale(1.3333334)">
			<g
   id="g2854"
   style="fill:#e1c590;fill-opacity:1">
				<path
   class="st1"
   d="m 65.3,96.67 0.67,-4.22 1.54,3.38 1.56,-3.38 0.62,4.23 h -0.46 l -0.38,-2.78 -1.36,2.95 -1.34,-2.95 -0.4,2.78 H 65.3 Z"
   id="path2852"
   style="fill:#e1c590;fill-opacity:1" />
			</g>
			<g
   id="g2858"
   style="fill:#e1c590;fill-opacity:1">
				<path
   class="st1"
   d="m 71.06,92.67 v 4 h -0.44 v -4 z"
   id="path2856"
   style="fill:#e1c590;fill-opacity:1" />
			</g>
			<g
   id="g2862"
   style="fill:#e1c590;fill-opacity:1">
				<path
   class="st1"
   d="m 75.15,93.55 c -0.13,-0.13 -0.32,-0.28 -0.52,-0.37 -0.21,-0.1 -0.46,-0.16 -0.69,-0.16 -0.92,0 -1.61,0.74 -1.61,1.67 0,1.08 0.88,1.63 1.61,1.63 0.27,0 0.53,-0.08 0.74,-0.19 0.23,-0.11 0.39,-0.26 0.46,-0.33 v 0.55 c -0.44,0.32 -0.91,0.39 -1.21,0.39 -1.19,0 -2.07,-0.9 -2.07,-2.06 0,-1.19 0.89,-2.08 2.09,-2.08 0.24,0 0.7,0.03 1.18,0.4 v 0.55 z"
   id="path2860"
   style="fill:#e1c590;fill-opacity:1" />
			</g>
		</g><g
   id="g2890"
   style="fill:#e1c590;fill-opacity:1"
   transform="scale(1.3333334)">
			<g
   id="g2868"
   style="fill:#e1c590;fill-opacity:1">
				<path
   class="st1"
   d="M 4.32,61.44 C 4.27,61.33 4.18,61.21 4.09,61.14 4.01,61.08 3.87,61 3.64,61 c -0.4,0 -0.67,0.25 -0.67,0.62 0,0.16 0.04,0.25 0.15,0.35 0.12,0.12 0.27,0.19 0.42,0.25 l 0.38,0.17 c 0.23,0.1 0.45,0.21 0.62,0.38 0.2,0.2 0.29,0.44 0.29,0.73 0,0.74 -0.55,1.23 -1.27,1.23 C 3.3,64.73 2.97,64.68 2.69,64.41 2.49,64.22 2.37,63.94 2.32,63.7 l 0.43,-0.12 c 0.03,0.21 0.13,0.39 0.24,0.51 0.17,0.17 0.37,0.22 0.58,0.22 0.55,0 0.8,-0.39 0.8,-0.79 0,-0.18 -0.05,-0.34 -0.2,-0.47 C 4.06,62.94 3.9,62.87 3.69,62.77 L 3.33,62.6 C 3.17,62.53 2.98,62.44 2.8,62.27 2.63,62.1 2.52,61.92 2.52,61.62 c 0,-0.62 0.47,-1.03 1.12,-1.03 0.25,0 0.44,0.05 0.64,0.18 0.16,0.11 0.3,0.27 0.39,0.44 z"
   id="path2866"
   style="fill:#e1c590;fill-opacity:1" />
			</g>
			<g
   id="g2872"
   style="fill:#e1c590;fill-opacity:1">
				<path
   class="st1"
   d="m 6.38,61.07 v 3.58 H 5.93 V 61.07 H 4.96 v -0.42 h 2.39 v 0.42 z"
   id="path2870"
   style="fill:#e1c590;fill-opacity:1" />
			</g>
			<g
   id="g2876"
   style="fill:#e1c590;fill-opacity:1">
				<path
   class="st1"
   d="M 10.02,61.07 H 8.39 v 1.19 h 1.58 v 0.42 H 8.39 v 1.55 h 1.63 v 0.42 H 7.95 v -4 h 2.08 v 0.42 z"
   id="path2874"
   style="fill:#e1c590;fill-opacity:1" />
			</g>
			<g
   id="g2880"
   style="fill:#e1c590;fill-opacity:1">
				<path
   class="st1"
   d="m 11.48,60.65 c 0.27,0 0.67,0.02 0.97,0.22 0.23,0.16 0.44,0.46 0.44,0.89 0,0.61 -0.4,1.06 -1.01,1.1 l 1.27,1.79 H 12.61 L 11.4,62.9 h -0.11 v 1.75 h -0.44 v -4 z m -0.2,1.85 h 0.28 c 0.55,0 0.88,-0.26 0.88,-0.73 0,-0.22 -0.07,-0.44 -0.32,-0.59 -0.18,-0.1 -0.38,-0.11 -0.58,-0.11 h -0.27 v 1.43 z"
   id="path2878"
   style="fill:#e1c590;fill-opacity:1" />
			</g>
			<g
   id="g2884"
   style="fill:#e1c590;fill-opacity:1">
				<path
   class="st1"
   d="M 15.93,61.07 H 14.3 v 1.19 h 1.58 v 0.42 H 14.3 v 1.55 h 1.63 v 0.42 h -2.07 v -4 h 2.07 z"
   id="path2882"
   style="fill:#e1c590;fill-opacity:1" />
			</g>
			<g
   id="g2888"
   style="fill:#e1c590;fill-opacity:1">
				<path
   class="st1"
   d="m 16.53,62.65 c 0,-1.19 0.93,-2.07 2.08,-2.07 1.15,0 2.08,0.88 2.08,2.07 0,1.19 -0.92,2.07 -2.08,2.07 -1.16,0 -2.08,-0.88 -2.08,-2.07 z m 0.45,0 c 0,0.92 0.73,1.65 1.63,1.65 0.9,0 1.62,-0.73 1.62,-1.65 0,-0.92 -0.73,-1.65 -1.62,-1.65 -0.9,0 -1.63,0.73 -1.63,1.65 z"
   id="path2886"
   style="fill:#e1c590;fill-opacity:1" />
			</g>
		</g><g
   id="g2916"
   style="fill:#e1c590;fill-opacity:1"
   transform="scale(1.3333334)">
			<g
   id="g2894"
   style="fill:#e1c590;fill-opacity:1">
				<path
   class="st1"
   d="m 3.2,23.11 v 3.58 h 1.1 v 0.42 H 2.75 v -4 z"
   id="path2892"
   style="fill:#e1c590;fill-opacity:1" />
			</g>
			<g
   id="g2898"
   style="fill:#e1c590;fill-opacity:1">
				<path
   class="st1"
   d="m 5.34,23.11 v 4 H 4.9 v -4 z"
   id="path2896"
   style="fill:#e1c590;fill-opacity:1" />
			</g>
			<g
   id="g2902"
   style="fill:#e1c590;fill-opacity:1">
				<path
   class="st1"
   d="m 6.38,27.11 v -4.17 l 3.12,3.27 v -3.1 h 0.44 v 4.18 L 6.82,24.02 v 3.09 z"
   id="path2900"
   style="fill:#e1c590;fill-opacity:1" />
			</g>
			<g
   id="g2906"
   style="fill:#e1c590;fill-opacity:1">
				<path
   class="st1"
   d="m 13.05,23.53 h -1.63 v 1.19 H 13 v 0.42 h -1.58 v 1.55 h 1.63 v 0.42 h -2.08 v -4 h 2.08 z"
   id="path2904"
   style="fill:#e1c590;fill-opacity:1" />
			</g>
			<g
   id="g2910"
   style="fill:#e1c590;fill-opacity:1">
				<path
   class="st1"
   d="m 15.71,23.11 v 4 h -0.44 v -4 z"
   id="path2908"
   style="fill:#e1c590;fill-opacity:1" />
			</g>
			<g
   id="g2914"
   style="fill:#e1c590;fill-opacity:1">
				<path
   class="st1"
   d="m 16.74,27.11 v -4.17 l 3.12,3.27 v -3.1 h 0.44 v 4.18 l -3.12,-3.27 v 3.09 z"
   id="path2912"
   style="fill:#e1c590;fill-opacity:1" />
			</g>
		</g><g
   id="g2934"
   style="fill:#e1c590;fill-opacity:1"
   transform="scale(1.3333334)">
			<g
   id="g2920"
   style="fill:#e1c590;fill-opacity:1">
				<path
   class="st1"
   d="m 37.85,33.9 h 1.67 V 34 c 0,0.44 -0.13,0.92 -0.38,1.27 -0.12,0.16 -0.57,0.72 -1.49,0.72 -1.19,0 -2.07,-0.91 -2.07,-2.07 0,-1.16 0.89,-2.07 2.09,-2.07 0.38,0 0.83,0.1 1.22,0.4 0.18,0.14 0.35,0.32 0.46,0.47 l -0.33,0.3 c -0.11,-0.16 -0.25,-0.31 -0.38,-0.41 -0.19,-0.16 -0.49,-0.34 -0.97,-0.34 -0.97,0 -1.64,0.73 -1.64,1.66 0,1.09 0.87,1.64 1.63,1.64 0.53,0 1,-0.27 1.22,-0.67 0.07,-0.13 0.15,-0.32 0.16,-0.57 h -1.19 z"
   id="path2918"
   style="fill:#e1c590;fill-opacity:1" />
			</g>
			<g
   id="g2924"
   style="fill:#e1c590;fill-opacity:1">
				<path
   class="st1"
   d="m 42.54,34.79 h -1.7 l -0.48,1.13 h -0.49 l 1.84,-4.19 1.79,4.19 h -0.49 z m -0.17,-0.42 -0.67,-1.6 -0.68,1.6 z"
   id="path2922"
   style="fill:#e1c590;fill-opacity:1" />
			</g>
			<g
   id="g2928"
   style="fill:#e1c590;fill-opacity:1">
				<path
   class="st1"
   d="m 44.51,31.91 v 4 h -0.44 v -4 z"
   id="path2926"
   style="fill:#e1c590;fill-opacity:1" />
			</g>
			<g
   id="g2932"
   style="fill:#e1c590;fill-opacity:1">
				<path
   class="st1"
   d="m 45.54,35.91 v -4.17 l 3.12,3.27 v -3.1 h 0.44 v 4.18 l -3.12,-3.27 v 3.09 z"
   id="path2930"
   style="fill:#e1c590;fill-opacity:1" />
			</g>
		</g><g
   id="g2938"
   style="fill:#e1c590;fill-opacity:1"
   transform="scale(1.3333334)">
			<rect
   x="3.03"
   y="151.99001"
   class="st3"
   width="27.299999"
   height="0.97000003"
   id="rect2936"
   style="fill:#e1c590;fill-opacity:1" />
		</g><g
   id="g2942"
   style="fill:#e1c590;fill-opacity:1"
   transform="scale(1.3333334)">
			<rect
   x="3.24"
   y="254"
   class="st3"
   width="45.009998"
   height="1"
   id="rect2940"
   style="fill:#e1c590;fill-opacity:1" />
		</g><g
   id="g2946"
   style="fill:#e1c590;fill-opacity:1"
   transform="scale(1.3333334)">
			<path
   class="st4"
   d="m 104.44,69.89 c -2.78,0 -5.04,-2.26 -5.04,-5.04 0,-2.78 2.26,-5.04 5.04,-5.04 2.78,0 5.04,2.26 5.04,5.04 0,2.78 -2.26,5.04 -5.04,5.04 z m 0,-9.07 c -2.23,0 -4.04,1.81 -4.04,4.04 0,2.23 1.81,4.04 4.04,4.04 2.22,0 4.04,-1.81 4.04,-4.04 0,-2.23 -1.81,-4.04 -4.04,-4.04 z"
   id="path2944"
   style="fill:#e1c590;fill-opacity:1" />
		</g><g
   id="g2950"
   style="fill:#e1c590;fill-opacity:1"
   transform="scale(1.3333334)">
			<path
   class="st4"
   d="m 89.96,111.81 c -2.78,0 -5.04,-2.26 -5.04,-5.04 0,-2.78 2.26,-5.04 5.04,-5.04 2.78,0 5.04,2.26 5.04,5.04 0,2.78 -2.26,5.04 -5.04,5.04 z m 0,-9.07 c -2.22,0 -4.04,1.81 -4.04,4.04 0,2.23 1.81,4.04 4.04,4.04 2.23,0 4.04,-1.81 4.04,-4.04 0,-2.23 -1.81,-4.04 -4.04,-4.04 z"
   id="path2948"
   style="fill:#e1c590;fill-opacity:1" />
		</g><g
   id="g2954"
   style="fill:#e1c590;fill-opacity:1"
   transform="scale(1.3333334)">
			<path
   class="st4"
   d="m 38.95,241.94 c -2.78,0 -5.04,-2.26 -5.04,-5.04 0,-2.78 2.26,-5.04 5.04,-5.04 2.78,0 5.04,2.26 5.04,5.04 -0.01,2.78 -2.27,5.04 -5.04,5.04 z m 0,-9.07 c -2.23,0 -4.04,1.81 -4.04,4.04 0,2.22 1.81,4.04 4.04,4.04 2.23,0 4.04,-1.81 4.04,-4.04 -0.01,-2.23 -1.82,-4.04 -4.04,-4.04 z"
   id="path2952"
   style="fill:#e1c590;fill-opacity:1" />
		</g><g
   id="g2958"
   style="fill:#e1c590;fill-opacity:1"
   transform="scale(1.3333334)">
			<path
   class="st4"
   d="m 38.95,277.04 c -2.78,0 -5.04,-2.26 -5.04,-5.04 0,-2.78 2.26,-5.04 5.04,-5.04 2.78,0 5.04,2.26 5.04,5.04 0,2.78 -2.27,5.04 -5.04,5.04 z m 0,-9.07 c -2.23,0 -4.04,1.81 -4.04,4.04 0,2.23 1.81,4.04 4.04,4.04 2.23,0 4.04,-1.81 4.04,-4.04 0,-2.23 -1.82,-4.04 -4.04,-4.04 z"
   id="path2956"
   style="fill:#e1c590;fill-opacity:1" />
		</g><g
   id="g2962"
   style="fill:#e1c590;fill-opacity:1"
   transform="scale(1.3333334)">
			
				<rect
   x="97.400002"
   y="72.589996"
   transform="matrix(0.3279,-0.9447,0.9447,0.3279,-0.7783,145.0862)"
   class="st3"
   width="8.3599997"
   height="1"
   id="rect2960"
   style="fill:#e1c590;fill-opacity:1" />
		</g><g
   id="g2966"
   style="fill:#e1c590;fill-opacity:1"
   transform="scale(1.3333334)">
			
				<rect
   x="101.08"
   y="52.330002"
   transform="matrix(0.9455,-0.3258,0.3258,0.9455,-12.8856,36.1757)"
   class="st3"
   width="1"
   height="8.4700003"
   id="rect2964"
   style="fill:#e1c590;fill-opacity:1" />
		</g><g
   id="g2978"
   style="fill:#e1c590;fill-opacity:1"
   transform="scale(1.3333334)">
			<g
   id="g2970"
   style="fill:#e1c590;fill-opacity:1">
				<rect
   x="4.1700001"
   y="106.76"
   class="st1"
   width="0.80000001"
   height="0.51999998"
   id="rect2968"
   style="fill:#e1c590;fill-opacity:1" />
			</g>
			<g
   id="g2976"
   style="fill:#e1c590;fill-opacity:1">
				<g
   id="g2974"
   style="fill:#e1c590;fill-opacity:1">
					<path
   class="st1"
   d="m 4.57,106.53 1.51,-0.92 0.03,0.05 -0.98,2.46 c -0.19,0.86 -0.38,1.71 -0.57,2.57 -0.19,-0.86 -0.38,-1.71 -0.57,-2.57 l -0.98,-2.46 0.03,-0.05 z"
   id="path2972"
   style="fill:#e1c590;fill-opacity:1" />
				</g>
			</g>
		</g><g
   id="g2990"
   style="fill:#e1c590;fill-opacity:1"
   transform="scale(1.3333334)">
			<g
   id="g2982"
   style="fill:#e1c590;fill-opacity:1">
				<rect
   x="17.6"
   y="71.989998"
   class="st1"
   width="0.80000001"
   height="0.51999998"
   id="rect2980"
   style="fill:#e1c590;fill-opacity:1" />
			</g>
			<g
   id="g2988"
   style="fill:#e1c590;fill-opacity:1">
				<g
   id="g2986"
   style="fill:#e1c590;fill-opacity:1">
					<path
   class="st1"
   d="m 18,71.76 1.51,-0.92 0.03,0.05 -0.98,2.46 c -0.19,0.86 -0.38,1.71 -0.57,2.57 -0.19,-0.86 -0.38,-1.71 -0.57,-2.57 l -0.98,-2.46 0.03,-0.05 z"
   id="path2984"
   style="fill:#e1c590;fill-opacity:1" />
				</g>
			</g>
		</g><g
   id="g3002"
   style="fill:#e1c590;fill-opacity:1"
   transform="scale(1.3333334)">
			<g
   id="g2994"
   style="fill:#e1c590;fill-opacity:1">
				<rect
   x="17.6"
   y="99.540001"
   class="st1"
   width="0.80000001"
   height="0.51999998"
   id="rect2992"
   style="fill:#e1c590;fill-opacity:1" />
			</g>
			<g
   id="g3000"
   style="fill:#e1c590;fill-opacity:1">
				<g
   id="g2998"
   style="fill:#e1c590;fill-opacity:1">
					<path
   class="st1"
   d="m 18,100.29 -1.51,0.92 -0.03,-0.05 0.98,-2.46 c 0.19,-0.86 0.38,-1.71 0.57,-2.57 0.19,0.86 0.38,1.71 0.57,2.57 l 0.98,2.46 -0.03,0.05 z"
   id="path2996"
   style="fill:#e1c590;fill-opacity:1" />
				</g>
			</g>
		</g><g
   id="g3006"
   style="fill:#e1c590;fill-opacity:1"
   transform="scale(1.3333334)">
			<path
   class="st3"
   d="M 105.63,156.73 H 88.77 v -9.77 h 16.87 v 9.77 z m -15.86,-1 h 14.87 v -7.77 H 89.77 Z"
   id="path3004"
   style="fill:#e1c590;fill-opacity:1" />
		</g><g
   id="g3010"
   style="fill:#e1c590;fill-opacity:1"
   transform="scale(1.3333334)">
			<rect
   x="79.480003"
   y="218.84"
   class="st3"
   width="8.5100002"
   height="1"
   id="rect3008"
   style="fill:#e1c590;fill-opacity:1" />
		</g><g
   id="g3014"
   style="fill:#e1c590;fill-opacity:1"
   transform="scale(1.3333334)">
			
				<rect
   x="79.480003"
   y="253.94"
   transform="matrix(1,-0.00390622,0.00390622,1,-0.9932,0.347)"
   class="st3"
   width="17.719999"
   height="1"
   id="rect3012"
   style="fill:#e1c590;fill-opacity:1" />
		</g><g
   id="g3018"
   style="fill:#e1c590;fill-opacity:1"
   transform="scale(1.3333334)">
			<path
   class="st4"
   d="m 74.95,224.39 c -2.78,0 -5.04,-2.26 -5.04,-5.04 0,-2.78 2.26,-5.04 5.04,-5.04 2.78,0 5.04,2.26 5.04,5.04 -0.01,2.78 -2.27,5.04 -5.04,5.04 z m 0,-9.07 c -2.23,0 -4.04,1.81 -4.04,4.04 0,2.23 1.81,4.04 4.04,4.04 2.22,0 4.04,-1.81 4.04,-4.04 -0.01,-2.23 -1.82,-4.04 -4.04,-4.04 z"
   id="path3016"
   style="fill:#e1c590;fill-opacity:1" />
		</g><g
   id="g3024"
   style="fill:#e1c590;fill-opacity:1"
   transform="scale(1.3333334)">
			<g
   id="g3022"
   style="fill:#e1c590;fill-opacity:1">
				<path
   class="st1"
   d="m 72.39,218.98 h 2.14 v -2.03 h 0.85 v 2.03 h 2.14 v 0.78 h -2.14 v 2.03 h -0.85 v -2.03 h -2.14 z"
   id="path3020"
   style="fill:#e1c590;fill-opacity:1" />
			</g>
		</g><g
   id="g3028"
   style="fill:#e1c590;fill-opacity:1"
   transform="scale(1.3333334)">
			<path
   class="st4"
   d="m 74.95,259.49 c -2.78,0 -5.04,-2.26 -5.04,-5.04 0,-2.78 2.26,-5.04 5.04,-5.04 2.78,0 5.04,2.26 5.04,5.04 0,2.78 -2.27,5.04 -5.04,5.04 z m 0,-9.07 c -2.23,0 -4.04,1.81 -4.04,4.04 0,2.23 1.81,4.04 4.04,4.04 2.22,0 4.04,-1.81 4.04,-4.04 0,-2.23 -1.82,-4.04 -4.04,-4.04 z"
   id="path3026"
   style="fill:#e1c590;fill-opacity:1" />
		</g><g
   id="g3034"
   style="fill:#e1c590;fill-opacity:1"
   transform="scale(1.3333334)">
			<g
   id="g3032"
   style="fill:#e1c590;fill-opacity:1">
				<path
   class="st1"
   d="m 72.78,254.13 h 4.36 v 0.63 h -4.36 z"
   id="path3030"
   style="fill:#e1c590;fill-opacity:1" />
			</g>
		</g><g
   id="g3038"
   style="fill:#e1c590;fill-opacity:1"
   transform="scale(1.3333334)">
			
				<rect
   x="79.480003"
   y="289.10001"
   transform="matrix(1,-0.00390622,0.00390622,1,-1.1306,0.3293)"
   class="st3"
   width="8.5100002"
   height="1"
   id="rect3036"
   style="fill:#e1c590;fill-opacity:1" />
		</g><g
   id="g3042"
   style="fill:#e1c590;fill-opacity:1"
   transform="scale(1.3333334)">
			<path
   class="st4"
   d="m 74.95,294.64 c -2.78,0 -5.04,-2.26 -5.04,-5.04 0,-2.78 2.26,-5.04 5.04,-5.04 2.78,0 5.04,2.26 5.04,5.04 0,2.78 -2.27,5.04 -5.04,5.04 z m 0,-9.07 c -2.23,0 -4.04,1.81 -4.04,4.04 0,2.23 1.81,4.04 4.04,4.04 2.22,0 4.04,-1.81 4.04,-4.04 0,-2.23 -1.82,-4.04 -4.04,-4.04 z"
   id="path3040"
   style="fill:#e1c590;fill-opacity:1" />
		</g><g
   id="g3046"
   style="fill:#e1c590;fill-opacity:1"
   transform="scale(1.3333334)">
			<rect
   x="43.48"
   y="271.56"
   class="st3"
   width="8.5100002"
   height="1"
   id="rect3044"
   style="fill:#e1c590;fill-opacity:1" />
		</g><g
   id="g3050"
   style="fill:#e1c590;fill-opacity:1"
   transform="scale(1.3333334)">
			<rect
   x="26.790001"
   y="271.5"
   class="st3"
   width="7.6199999"
   height="1"
   id="rect3048"
   style="fill:#e1c590;fill-opacity:1" />
		</g><g
   id="g3054"
   style="fill:#e1c590;fill-opacity:1"
   transform="scale(1.3333334)">
			
				<rect
   x="40.599998"
   y="298.14999"
   transform="matrix(0.8971,-0.4417,0.4417,0.8971,-126.1062,55.7015)"
   class="st3"
   width="31.91"
   height="1"
   id="rect3052"
   style="fill:#e1c590;fill-opacity:1" />
		</g><g
   id="g3058"
   style="fill:#e1c590;fill-opacity:1"
   transform="scale(1.3333334)">
			<path
   class="st3"
   d="m 63,339.8 c -8.92,0 -16.18,-7.26 -16.18,-16.18 0,-0.96 0.08,-1.91 0.25,-2.84 l -3.62,-0.76 0.1,-0.47 c 0.29,-1.44 0.44,-2.9 0.44,-4.32 0,-8.78 -5.53,-16.74 -13.76,-19.81 l -0.45,-0.17 7.15,-19.17 0.9,0.34 -6.81,18.27 c 8.35,3.33 13.93,11.52 13.93,20.54 0,1.34 -0.12,2.7 -0.37,4.05 l 3.63,0.76 -0.1,0.47 c -0.21,1 -0.32,2.05 -0.32,3.11 0,8.39 6.83,15.22 15.22,15.22 7.97,0 14.63,-6.22 15.18,-14.16 l 0.03,-0.45 H 88 v 0.96 H 79.1 C 78.31,333.42 71.32,339.8 63,339.8 Z"
   id="path3056"
   style="fill:#e1c590;fill-opacity:1" />
		</g><g
   id="g3062"
   style="fill:#e1c590;fill-opacity:1"
   transform="scale(1.3333334)">
			<path
   class="st3"
   d="m 22.85,337.41 -0.01,-1 h 0.01 c 9.02,0 17.05,-5.72 19.99,-14.22 l 0.14,-0.42 2.48,0.51 -0.2,0.98 -1.62,-0.33 c -3.2,8.68 -11.49,14.48 -20.79,14.48 z"
   id="path3060"
   style="fill:#e1c590;fill-opacity:1" />
		</g><g
   id="g3066"
   style="fill:#e1c590;fill-opacity:1"
   transform="scale(1.3333334)">
			
				<rect
   x="92.32"
   y="110.83"
   transform="matrix(0.9453,-0.3261,0.3261,0.9453,-32.4481,36.56)"
   class="st3"
   width="1"
   height="8.46"
   id="rect3064"
   style="fill:#e1c590;fill-opacity:1" />
		</g><g
   id="g3070"
   style="fill:#e1c590;fill-opacity:1"
   transform="scale(1.3333334)">
			<path
   class="st3"
   d="m 18,142.75 c -8.24,0 -14.95,-6.71 -14.95,-14.95 0,-8.24 6.71,-14.95 14.95,-14.95 8.24,0 14.95,6.71 14.95,14.95 0,8.24 -6.71,14.95 -14.95,14.95 z m 0,-28.9 c -7.69,0 -13.95,6.26 -13.95,13.95 0,7.69 6.26,13.95 13.95,13.95 7.69,0 13.95,-6.26 13.95,-13.95 0,-7.69 -6.26,-13.95 -13.95,-13.95 z"
   id="path3068"
   style="fill:#e1c590;fill-opacity:1" />
		</g><g
   id="g3074"
   style="fill:#e1c590;fill-opacity:1"
   transform="scale(1.3333334)">
			<path
   class="st3"
   d="m 18,192.11 c -8.24,0 -14.95,-6.71 -14.95,-14.95 0,-8.24 6.71,-14.95 14.95,-14.95 8.24,0 14.95,6.71 14.95,14.95 0,8.24 -6.71,14.95 -14.95,14.95 z m 0,-28.9 c -7.69,0 -13.95,6.26 -13.95,13.95 0,7.69 6.26,13.95 13.95,13.95 7.69,0 13.95,-6.26 13.95,-13.95 0,-7.69 -6.26,-13.95 -13.95,-13.95 z"
   id="path3072"
   style="fill:#e1c590;fill-opacity:1" />
		</g><g
   id="g3088"
   style="fill:#e1c590;fill-opacity:1"
   transform="scale(1.3333334)">
			<g
   id="g3078"
   style="fill:#e1c590;fill-opacity:1">
				<rect
   x="96.699997"
   y="168.45"
   class="st3"
   width="1"
   height="2.5"
   id="rect3076"
   style="fill:#e1c590;fill-opacity:1" />
			</g>
			<g
   id="g3082"
   style="fill:#e1c590;fill-opacity:1">
				<path
   class="st3"
   d="m 97.7,166.51 h -1 v -1.94 h 1 z m 0,-3.89 h -1 v -1.94 h 1 z"
   id="path3080"
   style="fill:#e1c590;fill-opacity:1" />
			</g>
			<g
   id="g3086"
   style="fill:#e1c590;fill-opacity:1">
				<rect
   x="96.699997"
   y="156.23"
   class="st3"
   width="1"
   height="2.5"
   id="rect3084"
   style="fill:#e1c590;fill-opacity:1" />
			</g>
		</g><g
   id="g3092"
   style="fill:#e1c590;fill-opacity:1"
   transform="scale(1.3333334)">
			<polygon
   class="st3"
   points="92.38,164.42 89.02,160.02 85.67,164.42 85.21,164.07 89.02,159.07 92.83,164.07 "
   id="polygon3090"
   style="fill:#e1c590;fill-opacity:1" />
		</g><g
   id="g3096"
   style="fill:#e1c590;fill-opacity:1"
   transform="scale(1.3333334)">
			<path
   class="st3"
   d="m 108.92,164.66 c -2.31,-0.48 -3.48,-2.01 -3.79,-4.94 -1.82,0.16 -3.02,1.99 -3.02,4.65 h -0.59 c 0,-3.14 1.56,-5.25 3.88,-5.25 h 0.27 l 0.02,0.27 c 0.24,2.85 1.24,4.25 3.35,4.69 z"
   id="path3094"
   style="fill:#e1c590;fill-opacity:1" />
		</g><g
   id="g3100"
   style="fill:#e1c590;fill-opacity:1"
   transform="scale(1.3333334)">
			<polygon
   class="st3"
   points="81.26,200.04 66.39,200.03 66.39,199.03 80.75,199.04 90.59,185.65 90.98,185.95 91.49,185.94 91.49,186.11 "
   id="polygon3098"
   style="fill:#e1c590;fill-opacity:1" />
		</g><g
   id="g3104"
   style="fill:#e1c590;fill-opacity:1"
   transform="scale(1.3333334)">
			
				<rect
   x="85.349998"
   y="197.95"
   transform="matrix(0.8079,-0.5893,0.5893,0.8079,-105.0116,90.1955)"
   class="st3"
   width="1"
   height="16.459999"
   id="rect3102"
   style="fill:#e1c590;fill-opacity:1" />
		</g><g
   id="g3108"
   style="fill:#e1c590;fill-opacity:1"
   transform="scale(1.3333334)">
			<path
   class="st3"
   d="m 81,201.06 c -0.84,0 -1.52,-0.68 -1.52,-1.52 0,-0.84 0.68,-1.52 1.52,-1.52 0.84,0 1.52,0.68 1.52,1.52 0,0.84 -0.68,1.52 -1.52,1.52 z m 0,-2.05 c -0.29,0 -0.52,0.23 -0.52,0.52 0,0.29 0.23,0.52 0.52,0.52 0.29,0 0.52,-0.23 0.52,-0.52 0,-0.29 -0.23,-0.52 -0.52,-0.52 z"
   id="path3106"
   style="fill:#e1c590;fill-opacity:1" />
		</g><g
   id="g3112"
   style="fill:#e1c590;fill-opacity:1"
   transform="scale(1.3333334)">
			<rect
   x="43.48"
   y="236.39"
   class="st3"
   width="8.5100002"
   height="1"
   id="rect3110"
   style="fill:#e1c590;fill-opacity:1" />
		</g><g
   id="g3116"
   style="fill:#e1c590;fill-opacity:1"
   transform="scale(1.3333334)">
			<polygon
   class="st3"
   points="34.41,237.4 22.33,237.4 17.5,232.56 17.5,228.12 18.5,228.12 18.5,232.14 22.75,236.4 34.41,236.4 "
   id="polygon3114"
   style="fill:#e1c590;fill-opacity:1" />
		</g><g
   id="g3120"
   style="fill:#e1c590;fill-opacity:1"
   transform="scale(1.3333334)">
			<path
   class="st3"
   d="m 75.43,249.92 h -0.97 v -3.76 l 0.08,-0.12 c 1.86,-2.7 2.83,-5.86 2.83,-9.15 0,-3.28 -0.98,-6.44 -2.83,-9.15 l -0.08,-0.12 v -3.73 h 0.97 v 3.43 c 1.91,2.84 2.92,6.14 2.92,9.57 0,3.43 -1.01,6.73 -2.92,9.57 z"
   id="path3118"
   style="fill:#e1c590;fill-opacity:1" />
		</g><g
   id="g3132"
   style="fill:#e1c590;fill-opacity:1"
   transform="scale(1.3333334)">
			<g
   id="g3124"
   style="fill:#e1c590;fill-opacity:1">
				
					<rect
   x="4.98"
   y="211.67"
   transform="matrix(0.5037,-0.8639,0.8639,0.5037,-180.7072,109.8085)"
   class="st3"
   width="0.46000001"
   height="1"
   id="rect3122"
   style="fill:#e1c590;fill-opacity:1" />
			</g>
			<g
   id="g3130"
   style="fill:#e1c590;fill-opacity:1">
				<g
   id="g3128"
   style="fill:#e1c590;fill-opacity:1">
					<path
   class="st3"
   d="m 4.88,212.75 1,1.85 0.07,-0.03 0.47,-3.13 c 0.32,-1 0.64,-1.99 0.96,-2.99 -0.71,0.77 -1.42,1.54 -2.13,2.31 l -2.49,1.95 v 0.07 z"
   id="path3126"
   style="fill:#e1c590;fill-opacity:1" />
				</g>
			</g>
		</g><g
   id="g3144"
   style="fill:#e1c590;fill-opacity:1"
   transform="scale(1.3333334)">
			<g
   id="g3136"
   style="fill:#e1c590;fill-opacity:1">
				
					<rect
   x="4.6199999"
   y="226.31"
   transform="matrix(0.8638,-0.5039,0.5039,0.8638,-113.4474,33.4412)"
   class="st3"
   width="1"
   height="0.46000001"
   id="rect3134"
   style="fill:#e1c590;fill-opacity:1" />
			</g>
			<g
   id="g3142"
   style="fill:#e1c590;fill-opacity:1">
				<g
   id="g3140"
   style="fill:#e1c590;fill-opacity:1">
					<path
   class="st3"
   d="m 4.79,225.96 -2.11,-0.04 v 0.07 l 2.49,1.95 c 0.71,0.77 1.42,1.54 2.13,2.31 -0.32,-1 -0.64,-1.99 -0.96,-2.99 L 5.87,224.13 5.8,224.1 Z"
   id="path3138"
   style="fill:#e1c590;fill-opacity:1" />
				</g>
			</g>
		</g><g
   id="g3148"
   style="fill:#e1c590;fill-opacity:1"
   transform="scale(1.3333334)">
			<path
   class="st3"
   d="m 11.46,236.43 h -1 v -3.77 c -4.77,-2.7 -7.72,-7.75 -7.72,-13.25 0,-5.5 2.95,-10.55 7.72,-13.25 v -3.77 h 1 v 4.37 l -0.26,0.14 c -4.6,2.49 -7.46,7.29 -7.46,12.52 0,5.23 2.86,10.02 7.46,12.51 l 0.26,0.14 z"
   id="path3146"
   style="fill:#e1c590;fill-opacity:1" />
		</g><g
   id="g3154"
   style="fill:#e1c590;fill-opacity:1"
   transform="scale(1.3333334)">
			<g
   id="g3152"
   style="fill:#e1c590;fill-opacity:1">
				<path
   class="st3"
   d="m 83.31,317.04 -2.16,4.81 H 80.5 l -2.16,-4.81 h 0.73 l 1.74,4.05 h 0.02 l 1.74,-4.05 z"
   id="path3150"
   style="fill:#e1c590;fill-opacity:1" />
			</g>
		</g><g
   id="g3160"
   style="fill:#e1c590;fill-opacity:1"
   transform="scale(1.3333334)">
			<g
   id="g3158"
   style="fill:#e1c590;fill-opacity:1">
				<path
   class="st3"
   d="m 78.21,323 v -0.52 h 5.22 V 323 Z"
   id="path3156"
   style="fill:#e1c590;fill-opacity:1" />
			</g>
		</g><g
   id="g3164"
   style="fill:#e1c590;fill-opacity:1"
   transform="scale(1.3333334)">
			
				<rect
   x="39.77"
   y="178.62"
   transform="matrix(0.4914,-0.8709,0.8709,0.4914,-144.7752,131.568)"
   class="st3"
   width="1"
   height="22.24"
   id="rect3162"
   style="fill:#e1c590;fill-opacity:1" />
		</g><g
   id="g3174"
   style="fill:#e1c590;fill-opacity:1"
   transform="scale(1.3333334)">
			<g
   id="g3168"
   style="fill:#e1c590;fill-opacity:1">
				<path
   class="st3"
   d="M 32.45,91.87 C 32.4,91.69 32.36,91.5 32.36,91.3 c 0,-0.17 -0.13,-0.3 -0.3,-0.3 -0.17,0 -0.3,0.13 -0.3,0.3 0,0.37 0.08,0.73 0.22,1.05 z"
   id="path3166"
   style="fill:#e1c590;fill-opacity:1" />
			</g>
			<g
   id="g3172"
   style="fill:#e1c590;fill-opacity:1">
				<path
   class="st3"
   d="m 36.9,91 c -0.17,0 -0.3,0.13 -0.3,0.3 0,1.17 -0.95,2.13 -2.13,2.13 -0.2,0 -0.39,-0.04 -0.58,-0.09 l -0.46,0.46 c 0.23,0.1 0.48,0.17 0.74,0.2 v 0.52 h -1.21 v 0.6 h 1.51 c 0,0 0,0 0,0 h 1.51 v -0.6 H 34.77 V 94 c 1.36,-0.15 2.43,-1.3 2.43,-2.7 0,-0.17 -0.13,-0.3 -0.3,-0.3 z"
   id="path3170"
   style="fill:#e1c590;fill-opacity:1" />
			</g>
		</g><g
   id="g3184"
   style="fill:#e1c590;fill-opacity:1"
   transform="scale(1.3333334)">
			<g
   id="g3178"
   style="fill:#e1c590;fill-opacity:1">
				<path
   class="st3"
   d="m 34.45,92.89 c 0.88,0.01 1.6,-0.7 1.61,-1.59 v -0.14 l -1.74,1.71 c 0.05,0.01 0.09,0.02 0.13,0.02 z"
   id="path3176"
   style="fill:#e1c590;fill-opacity:1" />
			</g>
			<g
   id="g3182"
   style="fill:#e1c590;fill-opacity:1">
				<path
   class="st3"
   d="m 35.81,88.53 c -0.29,-0.42 -0.77,-0.7 -1.32,-0.71 -0.88,-0.01 -1.59,0.7 -1.6,1.57 l -0.02,1.89 c 0,0.04 0.01,0.08 0.01,0.12 z"
   id="path3180"
   style="fill:#e1c590;fill-opacity:1" />
			</g>
		</g><g
   id="g3190"
   style="fill:#e1c590;fill-opacity:1"
   transform="scale(1.3333334)">
			<g
   id="g3188"
   style="fill:#e1c590;fill-opacity:1">
				
					<rect
   x="30.450001"
   y="90.82"
   transform="matrix(0.7071,-0.7071,0.7071,0.7071,-54.4589,51.1178)"
   class="st3"
   width="8.0500002"
   height="0.94FDBB3C"
   id="rect3186"
   style="fill:#e1c590;fill-opacity:1" />
			</g>
		</g><g
   id="g3194"
   style="fill:#e1c590;fill-opacity:1"
   transform="scale(1.3333334)">
			
				<rect
   x="33.740002"
   y="133.10001"
   transform="matrix(0.5192,-0.8547,0.8547,0.5192,-101.1801,95.4565)"
   class="st3"
   width="1"
   height="9.0900002"
   id="rect3192"
   style="fill:#e1c590;fill-opacity:1" />
		</g><g
   id="g3198"
   style="fill:#e1c590;fill-opacity:1"
   transform="scale(1.3333334)">
			<rect
   x="4.0700002"
   y="89.889999"
   class="st3"
   width="1"
   height="17.389999"
   id="rect3196"
   style="fill:#e1c590;fill-opacity:1" />
		</g><g
   id="g3202"
   style="fill:#e1c590;fill-opacity:1"
   transform="scale(1.3333334)">
			<polygon
   class="st1"
   points="8.79,86.25 5.07,86.25 5.07,92.48 4.07,92.48 4.07,85.25 8.79,85.25 "
   id="polygon3200"
   style="fill:#e1c590;fill-opacity:1" />
		</g><g
   id="g3206"
   style="fill:#e1c590;fill-opacity:1"
   transform="scale(1.3333334)">
			<polygon
   class="st3"
   points="29.67,85.25 31.75,87.33 31.05,88.03 29.26,86.25 25.09,86.25 25.09,85.25 "
   id="polygon3204"
   style="fill:#e1c590;fill-opacity:1" />
		</g><g
   id="g3212"
   style="fill:#e1c590;fill-opacity:1"
   transform="scale(1.3333334)">
			<g
   id="g3210"
   style="fill:#e1c590;fill-opacity:1">
				<path
   class="st3"
   d="m 12.05,79.4 -0.71,-0.71 c -1.88,1.77 -3.05,4.28 -3.05,7.06 0,2.58 1,4.92 2.65,6.66 l 0.71,-0.71 c -1.46,-1.55 -2.36,-3.65 -2.36,-5.95 0,-2.5 1.06,-4.76 2.76,-6.35 z"
   id="path3208"
   style="fill:#e1c590;fill-opacity:1" />
			</g>
		</g><g
   id="g3216"
   style="fill:#e1c590;fill-opacity:1"
   transform="scale(1.3333334)">
			<path
   class="st3"
   d="m 18.5,78.66 h -1 v -6.44 c 0,-4.34 3.53,-7.87 7.87,-7.87 h 4.15 c 0.06,-3.36 0.7,-6.61 1.91,-9.67 l 0.93,0.37 c -1.22,3.1 -1.85,6.4 -1.85,9.81 v 0.5 h -5.14 c -3.79,0 -6.87,3.08 -6.87,6.87 z"
   id="path3214"
   style="fill:#e1c590;fill-opacity:1" />
		</g><g
   id="g3220"
   style="fill:#e1c590;fill-opacity:1"
   transform="scale(1.3333334)">
			<path
   class="st3"
   d="m 25.8,108.83 -0.76,-0.03 c -4.23,-0.16 -7.54,-3.61 -7.54,-7.86 v -8.11 h 1 v 8.11 c 0,3.46 2.52,6.32 5.87,6.8 -0.11,-0.46 -0.17,-0.95 -0.17,-1.45 0,-3.53 2.87,-6.4 6.4,-6.4 3.53,0 6.4,2.87 6.4,6.4 0,0.52 -0.06,1.03 -0.19,1.53 h 7.38 v 1 h -8.76 l 0.25,-0.67 c 0.22,-0.6 0.33,-1.22 0.33,-1.86 0,-2.98 -2.42,-5.4 -5.4,-5.4 -2.98,0 -5.4,2.42 -5.4,5.4 0,0.65 0.11,1.26 0.33,1.83 z"
   id="path3218"
   style="fill:#e1c590;fill-opacity:1" />
		</g>
</svg>
