<?xml version="1.0" encoding="UTF-8" standalone="no"?>
<svg
   xmlns:dc="http://purl.org/dc/elements/1.1/"
   xmlns:cc="http://creativecommons.org/ns#"
   xmlns:rdf="http://www.w3.org/1999/02/22-rdf-syntax-ns#"
   xmlns:svg="http://www.w3.org/2000/svg"
   xmlns="http://www.w3.org/2000/svg"
   xmlns:sodipodi="http://sodipodi.sourceforge.net/DTD/sodipodi-0.dtd"
   xmlns:inkscape="http://www.inkscape.org/namespaces/inkscape"
   version="1.1"
   id="bg"
   x="0px"
   y="0px"
   viewBox="0 0 307.2 485.66932"
   xml:space="preserve"
   sodipodi:docname="Lion new (Inkscape Render)v4.svg"
   width="81.279999mm"
   height="128.5mm"
   inkscape:version="1.0 (4035a4f, 2020-05-01)"><metadata
   id="metadata1789"><rdf:RDF><cc:Work
       rdf:about=""><dc:format>image/svg+xml</dc:format><dc:type
         rdf:resource="http://purl.org/dc/dcmitype/StillImage" /><dc:title></dc:title></cc:Work></rdf:RDF></metadata><defs
   id="defs1787">
	
	
	
	
	
	
	
	
	
	
	
	
</defs><sodipodi:namedview
   inkscape:document-rotation="0"
   pagecolor="#FDDEA2fff"
   bordercolor="#666666"
   borderopacity="1"
   objecttolerance="10"
   gridtolerance="10"
   guidetolerance="10"
   inkscape:pageopacity="0"
   inkscape:pageshadow="2"
   inkscape:window-width="1440"
   inkscape:window-height="855"
   id="namedview1785"
   showgrid="false"
   inkscape:document-units="mm"
   units="mm"
   inkscape:zoom="1.3237169"
   inkscape:cx="146.37824"
   inkscape:cy="250.24867"
   inkscape:window-x="15"
   inkscape:window-y="23"
   inkscape:window-maximized="0"
   inkscape:current-layer="bg" />
<style
   type="text/css"
   id="style1386">
	.st0{fill:#401B5C;}
	.st1{fill:#F39322;}
	.st2{fill:#F9EDA7;}
	.st3{fill:#E0C490;}
	.st4{font-family:'MyriadPro-Regular';}
	.st5{font-size:11.405px;}
	.st6{font-size:10.1824px;}
	.st7{font-size:9.7331px;}
	.st8{font-size:10.3654px;}
	.st9{font-size:9.9135px;}
	.st10{font-size:6.1593px;}
</style>
<rect
   x="0"
   y="0"
   class="st0"
   width="307.19998"
   height="485.66931"
   id="rect1388"
   style="stroke-width:1.33343;fill:#401B5C;fill-opacity:1" />
<g
   id="g1410"
   transform="scale(1.3333334,1.3335236)"
   style="fill:#dabe8d;fill-opacity:1">
	<g
   id="g1392"
   style="fill:#dabe8d;fill-opacity:1">
		<path
   class="st1"
   d="M 78.2,20.3 V 3.3 L 91,16.7 V 4 h 1.8 V 21.1 L 80.1,7.7 v 12.6 z"
   id="path1390"
   style="fill:#dabe8d;fill-opacity:1" />
	</g>
	<g
   id="g1396"
   style="fill:#dabe8d;fill-opacity:1">
		<path
   class="st1"
   d="m 104.3,7.2 c -0.2,-0.4 -0.6,-0.9 -1,-1.2 -0.3,-0.2 -0.9,-0.6 -1.8,-0.6 -1.6,0 -2.7,1 -2.7,2.5 0,0.6 0.2,1 0.6,1.4 0.5,0.5 1.1,0.8 1.7,1 l 1.6,0.7 c 1,0.4 1.8,0.9 2.5,1.5 0.8,0.8 1.2,1.8 1.2,3 0,3 -2.2,5 -5.2,5 -1.1,0 -2.4,-0.2 -3.5,-1.3 -0.8,-0.8 -1.3,-1.9 -1.5,-2.9 L 98,15.8 c 0.1,0.9 0.5,1.6 1,2.1 0.7,0.7 1.5,0.9 2.3,0.9 2.2,0 3.3,-1.6 3.3,-3.2 0,-0.7 -0.2,-1.4 -0.8,-1.9 -0.5,-0.4 -1.1,-0.7 -2,-1.1 l -1.5,-0.7 C 99.7,11.6 98.9,11.3 98.1,10.6 97.4,9.9 97,9.2 97,7.9 c 0,-2.5 1.9,-4.2 4.6,-4.2 1,0 1.8,0.2 2.6,0.7 0.7,0.4 1.2,1.1 1.6,1.8 z"
   id="path1394"
   style="fill:#dabe8d;fill-opacity:1" />
	</g>
	<g
   id="g1400"
   style="fill:#dabe8d;fill-opacity:1">
		<path
   class="st1"
   d="m 112.7,5.7 v 14.6 h -1.8 V 5.7 h -4 V 4 h 9.7 v 1.7 z"
   id="path1398"
   style="fill:#dabe8d;fill-opacity:1" />
	</g>
	<g
   id="g1404"
   style="fill:#dabe8d;fill-opacity:1">
		<path
   class="st1"
   d="m 121.7,4 c 1.1,0 2.7,0.1 4,0.9 1,0.6 1.8,1.9 1.8,3.6 0,2.5 -1.6,4.3 -4.1,4.5 l 5.2,7.3 h -2.2 l -5,-7.1 h -0.5 v 7.1 h -1.8 V 4 Z m -0.8,7.6 h 1.2 c 2.3,0 3.6,-1.1 3.6,-3 0,-0.9 -0.3,-1.8 -1.3,-2.4 -0.7,-0.4 -1.6,-0.5 -2.3,-0.5 H 121 v 5.9 z"
   id="path1402"
   style="fill:#dabe8d;fill-opacity:1" />
	</g>
	<g
   id="g1408"
   style="fill:#dabe8d;fill-opacity:1">
		<path
   class="st1"
   d="m 133.2,14 c 0,1.4 0,2.9 1.3,4 0.7,0.6 1.8,0.9 2.7,0.9 0.9,0 2,-0.4 2.7,-0.9 1.3,-1.1 1.3,-2.6 1.3,-4 V 4 h 1.8 v 10.5 c 0,1.4 -0.1,2.7 -1,3.9 -1,1.3 -2.7,2.2 -4.8,2.2 -2.1,0 -3.8,-0.9 -4.8,-2.2 -0.9,-1.2 -1,-2.5 -1,-3.9 V 4 h 1.8 z"
   id="path1406"
   style="fill:#dabe8d;fill-opacity:1" />
	</g>
</g>
<g
   id="g1414"
   transform="scale(1.3333334,1.3335236)"
   style="fill:#dabe8d;fill-opacity:1">
	<path
   class="st1"
   d="m 151.3,7.9 c -3.7,0 -6.4,2.8 -6.4,6.6 0,3.8 2.7,6.6 6.4,6.6 3.7,0 6.4,-2.8 6.4,-6.6 0,-3.8 -2.7,-6.6 -6.4,-6.6 z m 0,11.2 c -2.2,0 -4.3,-1.6 -4.3,-4.6 0,-3 2,-4.7 4.3,-4.7 2.3,0 4.3,1.6 4.3,4.7 0,3 -2.1,4.6 -4.3,4.6 z"
   id="path1412"
   style="fill:#dabe8d;fill-opacity:1" />
</g>
<g
   id="g1418"
   transform="scale(1.3333334,1.3335236)"
   style="fill:#dabe8d;fill-opacity:1">
	<rect
   x="144.89999"
   y="3.9000001"
   class="st1"
   width="13"
   height="1.8"
   id="rect1416"
   style="fill:#dabe8d;fill-opacity:1" />
</g>
<g
   id="g1422"
   transform="scale(1.3333334,1.3335236)"
   style="fill:#dabe8d;fill-opacity:1">
	<polygon
   class="st1"
   points="74.4,3.8 73.7,6.4 73.7,17.8 74.4,20.3 71.6,20.3 72.3,17.8 72.3,6.4 71.6,3.8 "
   id="polygon1420"
   style="fill:#dabe8d;fill-opacity:1" />
</g>
<g
   id="g1444"
   transform="scale(1.3333334,1.3335236)"
   style="fill:#dabe8d;fill-opacity:1">
	<g
   id="g1426"
   style="fill:#dabe8d;fill-opacity:1">
		<path
   class="st2"
   d="M 78.2,20.3 V 3.3 L 91,16.7 V 4 h 1.8 V 21.1 L 80.1,7.7 v 12.6 z"
   id="path1424"
   style="fill:#dabe8d;fill-opacity:1" />
	</g>
	<g
   id="g1430"
   style="fill:#dabe8d;fill-opacity:1">
		<path
   class="st2"
   d="m 104.3,7.2 c -0.2,-0.4 -0.6,-0.9 -1,-1.2 -0.3,-0.2 -0.9,-0.6 -1.8,-0.6 -1.6,0 -2.7,1 -2.7,2.5 0,0.6 0.2,1 0.6,1.4 0.5,0.5 1.1,0.8 1.7,1 l 1.6,0.7 c 1,0.4 1.8,0.9 2.5,1.5 0.8,0.8 1.2,1.8 1.2,3 0,3 -2.2,5 -5.2,5 -1.1,0 -2.4,-0.2 -3.5,-1.3 -0.8,-0.8 -1.3,-1.9 -1.5,-2.9 L 98,15.8 c 0.1,0.9 0.5,1.6 1,2.1 0.7,0.7 1.5,0.9 2.3,0.9 2.2,0 3.3,-1.6 3.3,-3.2 0,-0.7 -0.2,-1.4 -0.8,-1.9 -0.5,-0.4 -1.1,-0.7 -2,-1.1 l -1.5,-0.7 C 99.7,11.6 98.9,11.3 98.1,10.6 97.4,9.9 97,9.2 97,7.9 c 0,-2.5 1.9,-4.2 4.6,-4.2 1,0 1.8,0.2 2.6,0.7 0.7,0.4 1.2,1.1 1.6,1.8 z"
   id="path1428"
   style="fill:#dabe8d;fill-opacity:1" />
	</g>
	<g
   id="g1434"
   style="fill:#dabe8d;fill-opacity:1">
		<path
   class="st2"
   d="m 112.7,5.7 v 14.6 h -1.8 V 5.7 h -4 V 4 h 9.7 v 1.7 z"
   id="path1432"
   style="fill:#dabe8d;fill-opacity:1" />
	</g>
	<g
   id="g1438"
   style="fill:#dabe8d;fill-opacity:1">
		<path
   class="st2"
   d="m 121.7,4 c 1.1,0 2.7,0.1 4,0.9 1,0.6 1.8,1.9 1.8,3.6 0,2.5 -1.6,4.3 -4.1,4.5 l 5.2,7.3 h -2.2 l -5,-7.1 h -0.5 v 7.1 h -1.8 V 4 Z m -0.8,7.6 h 1.2 c 2.3,0 3.6,-1.1 3.6,-3 0,-0.9 -0.3,-1.8 -1.3,-2.4 -0.7,-0.4 -1.6,-0.5 -2.3,-0.5 H 121 v 5.9 z"
   id="path1436"
   style="fill:#dabe8d;fill-opacity:1" />
	</g>
	<g
   id="g1442"
   style="fill:#dabe8d;fill-opacity:1">
		<path
   class="st2"
   d="m 133.2,14 c 0,1.4 0,2.9 1.3,4 0.7,0.6 1.8,0.9 2.7,0.9 0.9,0 2,-0.4 2.7,-0.9 1.3,-1.1 1.3,-2.6 1.3,-4 V 4 h 1.8 v 10.5 c 0,1.4 -0.1,2.7 -1,3.9 -1,1.3 -2.7,2.2 -4.8,2.2 -2.1,0 -3.8,-0.9 -4.8,-2.2 -0.9,-1.2 -1,-2.5 -1,-3.9 V 4 h 1.8 z"
   id="path1440"
   style="fill:#dabe8d;fill-opacity:1" />
	</g>
</g>
<g
   id="g1448"
   transform="scale(1.3333334,1.3335236)"
   style="fill:#dabe8d;fill-opacity:1">
	<path
   class="st2"
   d="m 151.3,7.9 c -3.7,0 -6.4,2.8 -6.4,6.6 0,3.8 2.7,6.6 6.4,6.6 3.7,0 6.4,-2.8 6.4,-6.6 0,-3.8 -2.7,-6.6 -6.4,-6.6 z m 0,11.2 c -2.2,0 -4.3,-1.6 -4.3,-4.6 0,-3 2,-4.7 4.3,-4.7 2.3,0 4.3,1.6 4.3,4.7 0,3 -2.1,4.6 -4.3,4.6 z"
   id="path1446"
   style="fill:#dabe8d;fill-opacity:1" />
</g>
<g
   id="g1452"
   transform="scale(1.3333334,1.3335236)"
   style="fill:#dabe8d;fill-opacity:1">
	<rect
   x="144.89999"
   y="3.9000001"
   class="st2"
   width="13"
   height="1.8"
   id="rect1450"
   style="fill:#dabe8d;fill-opacity:1" />
</g>
<g
   id="g1456"
   transform="scale(1.3333334,1.3335236)"
   style="fill:#dabe8d;fill-opacity:1">
	<polygon
   class="st2"
   points="74.4,3.8 73.7,6.4 73.7,17.8 74.4,20.3 71.6,20.3 72.3,17.8 72.3,6.4 71.6,3.8 "
   id="polygon1454"
   style="fill:#dabe8d;fill-opacity:1" />
</g>
<g
   id="g1478"
   transform="scale(1.3333334,1.3335236)"
   style="fill:#dabe8d;fill-opacity:1">
	<g
   id="g1460"
   style="fill:#dabe8d;fill-opacity:1">
		<path
   class="st3"
   d="M 78.2,20.3 V 3.3 L 91,16.7 V 4 h 1.8 V 21.1 L 80.1,7.7 v 12.6 z"
   id="path1458"
   style="fill:#dabe8d;fill-opacity:1" />
	</g>
	<g
   id="g1464"
   style="fill:#dabe8d;fill-opacity:1">
		<path
   class="st3"
   d="m 104.3,7.2 c -0.2,-0.4 -0.6,-0.9 -1,-1.2 -0.3,-0.2 -0.9,-0.6 -1.8,-0.6 -1.6,0 -2.7,1 -2.7,2.5 0,0.6 0.2,1 0.6,1.4 0.5,0.5 1.1,0.8 1.7,1 l 1.6,0.7 c 1,0.4 1.8,0.9 2.5,1.5 0.8,0.8 1.2,1.8 1.2,3 0,3 -2.2,5 -5.2,5 -1.1,0 -2.4,-0.2 -3.5,-1.3 -0.8,-0.8 -1.3,-1.9 -1.5,-2.9 L 98,15.8 c 0.1,0.9 0.5,1.6 1,2.1 0.7,0.7 1.5,0.9 2.3,0.9 2.2,0 3.3,-1.6 3.3,-3.2 0,-0.7 -0.2,-1.4 -0.8,-1.9 -0.5,-0.4 -1.1,-0.7 -2,-1.1 l -1.5,-0.7 C 99.7,11.6 98.9,11.3 98.1,10.6 97.4,9.9 97,9.2 97,7.9 c 0,-2.5 1.9,-4.2 4.6,-4.2 1,0 1.8,0.2 2.6,0.7 0.7,0.4 1.2,1.1 1.6,1.8 z"
   id="path1462"
   style="fill:#dabe8d;fill-opacity:1" />
	</g>
	<g
   id="g1468"
   style="fill:#dabe8d;fill-opacity:1">
		<path
   class="st3"
   d="m 112.7,5.7 v 14.6 h -1.8 V 5.7 h -4 V 4 h 9.7 v 1.7 z"
   id="path1466"
   style="fill:#dabe8d;fill-opacity:1" />
	</g>
	<g
   id="g1472"
   style="fill:#dabe8d;fill-opacity:1">
		<path
   class="st3"
   d="m 121.7,4 c 1.1,0 2.7,0.1 4,0.9 1,0.6 1.8,1.9 1.8,3.6 0,2.5 -1.6,4.3 -4.1,4.5 l 5.2,7.3 h -2.2 l -5,-7.1 h -0.5 v 7.1 h -1.8 V 4 Z m -0.8,7.6 h 1.2 c 2.3,0 3.6,-1.1 3.6,-3 0,-0.9 -0.3,-1.8 -1.3,-2.4 -0.7,-0.4 -1.6,-0.5 -2.3,-0.5 H 121 v 5.9 z"
   id="path1470"
   style="fill:#dabe8d;fill-opacity:1" />
	</g>
	<g
   id="g1476"
   style="fill:#dabe8d;fill-opacity:1">
		<path
   class="st3"
   d="m 133.2,14 c 0,1.4 0,2.9 1.3,4 0.7,0.6 1.8,0.9 2.7,0.9 0.9,0 2,-0.4 2.7,-0.9 1.3,-1.1 1.3,-2.6 1.3,-4 V 4 h 1.8 v 10.5 c 0,1.4 -0.1,2.7 -1,3.9 -1,1.3 -2.7,2.2 -4.8,2.2 -2.1,0 -3.8,-0.9 -4.8,-2.2 -0.9,-1.2 -1,-2.5 -1,-3.9 V 4 h 1.8 z"
   id="path1474"
   style="fill:#dabe8d;fill-opacity:1" />
	</g>
</g>
<g
   id="g1482"
   transform="scale(1.3333334,1.3335236)"
   style="fill:#dabe8d;fill-opacity:1">
	<path
   class="st3"
   d="m 151.3,7.9 c -3.7,0 -6.4,2.8 -6.4,6.6 0,3.8 2.7,6.6 6.4,6.6 3.7,0 6.4,-2.8 6.4,-6.6 0,-3.8 -2.7,-6.6 -6.4,-6.6 z m 0,11.2 c -2.2,0 -4.3,-1.6 -4.3,-4.6 0,-3 2,-4.7 4.3,-4.7 2.3,0 4.3,1.6 4.3,4.7 0,3 -2.1,4.6 -4.3,4.6 z"
   id="path1480"
   style="fill:#dabe8d;fill-opacity:1" />
</g>
<g
   id="g1486"
   transform="scale(1.3333334,1.3335236)"
   style="fill:#dabe8d;fill-opacity:1">
	<rect
   x="144.89999"
   y="3.9000001"
   class="st3"
   width="13"
   height="1.8"
   id="rect1484"
   style="fill:#dabe8d;fill-opacity:1" />
</g>
<g
   id="g1490"
   transform="scale(1.3333334,1.3335236)"
   style="fill:#dabe8d;fill-opacity:1">
	<polygon
   class="st3"
   points="74.4,3.8 73.7,6.4 73.7,17.8 74.4,20.3 71.6,20.3 72.3,17.8 72.3,6.4 71.6,3.8 "
   id="polygon1488"
   style="fill:#dabe8d;fill-opacity:1" />
</g>
<g
   id="g1496"
   transform="scale(1.3333334,1.3335236)"
   style="fill:#dabe8d;fill-opacity:1">
	<g
   id="g1494"
   style="fill:#dabe8d;fill-opacity:1">
		<rect
   y="344"
   class="st3"
   width="86.599998"
   height="3"
   id="rect1492"
   x="0"
   style="fill:#dabe8d;fill-opacity:1" />
	</g>
</g>
<g
   id="g1502"
   transform="scale(1.3333334,1.3335236)"
   style="fill:#dabe8d;fill-opacity:1">
	<g
   id="g1500"
   style="fill:#dabe8d;fill-opacity:1">
		<rect
   x="141.5"
   y="344"
   class="st3"
   width="88.900002"
   height="3"
   id="rect1498"
   style="fill:#dabe8d;fill-opacity:1" />
	</g>
</g>
<g
   id="g1520"
   transform="scale(1.3333334,1.3335236)"
   style="fill:#dabe8d;fill-opacity:1">
	<g
   id="g1506"
   style="fill:#dabe8d;fill-opacity:1">
		<path
   class="st3"
   d="m 100.6,341 v 18 h -1.8 v -18 z"
   id="path1504"
   style="fill:#dabe8d;fill-opacity:1" />
	</g>
	<g
   id="g1510"
   style="fill:#dabe8d;fill-opacity:1">
		<path
   class="st3"
   d="m 102,343.2 1.9,-0.7 2.2,3.8 -1.1,0.5 z m 3.8,5.5 V 359 H 104 v -10.2 h 1.8 z"
   id="path1508"
   style="fill:#dabe8d;fill-opacity:1" />
	</g>
	<g
   id="g1514"
   style="fill:#dabe8d;fill-opacity:1">
		<path
   class="st3"
   d="m 108.5,353.9 c 0,-3.1 2.3,-5.4 5.4,-5.4 3.1,0 5.4,2.3 5.4,5.4 0,3.1 -2.3,5.4 -5.4,5.4 -3.1,0 -5.4,-2.3 -5.4,-5.4 z m 1.8,0 c 0,2.5 1.8,3.8 3.6,3.8 1.9,0 3.6,-1.3 3.6,-3.8 0,-2.5 -1.7,-3.8 -3.6,-3.8 -1.9,-0.1 -3.6,1.3 -3.6,3.8 z"
   id="path1512"
   style="fill:#dabe8d;fill-opacity:1" />
	</g>
	<g
   id="g1518"
   style="fill:#dabe8d;fill-opacity:1">
		<path
   class="st3"
   d="m 122.1,348.7 h 1.8 v 1.2 c 0.3,-0.4 1.2,-1.4 2.9,-1.4 1.2,0 2.3,0.5 2.9,1.4 0.5,0.8 0.6,1.6 0.6,2.7 v 6.3 h -1.8 v -6.3 c 0,-0.6 0,-1.3 -0.5,-1.9 -0.3,-0.4 -0.9,-0.7 -1.7,-0.7 -0.6,0 -1.3,0.2 -1.8,0.8 -0.7,0.8 -0.7,2 -0.7,2.8 V 359 H 122 v -10.3 z"
   id="path1516"
   style="fill:#dabe8d;fill-opacity:1" />
	</g>
</g>
<g
   id="g1524"
   transform="scale(1.3333334,1.3335236)"
   style="fill:#dabe8d;fill-opacity:1">
	<rect
   x="22.299999"
   y="66"
   class="st3"
   width="3"
   height="12.3"
   id="rect1522"
   style="fill:#dabe8d;fill-opacity:1" />
</g>
<g
   id="g1528"
   transform="scale(1.3333334,1.3335236)"
   style="fill:#dabe8d;fill-opacity:1">
	<rect
   x="22.299999"
   y="154"
   class="st3"
   width="3"
   height="12.3"
   id="rect1526"
   style="fill:#dabe8d;fill-opacity:1" />
</g>
<g
   id="g1532"
   transform="scale(1.3333334,1.3335236)"
   style="fill:#dabe8d;fill-opacity:1">
	<rect
   x="22.299999"
   y="242"
   class="st3"
   width="3"
   height="12.3"
   id="rect1530"
   style="fill:#dabe8d;fill-opacity:1" />
</g>
<g
   id="g1536"
   transform="scale(1.3333334,1.3335236)"
   style="fill:#dabe8d;fill-opacity:1">
	<rect
   x="22.299999"
   y="286"
   class="st3"
   width="3"
   height="28.1"
   id="rect1534"
   style="fill:#dabe8d;fill-opacity:1" />
</g>
<g
   id="g1540"
   transform="scale(1.3333334,1.3335236)"
   style="fill:#dabe8d;fill-opacity:1">
	<rect
   x="22.299999"
   y="198"
   class="st3"
   width="3"
   height="12.2"
   id="rect1538"
   style="fill:#dabe8d;fill-opacity:1" />
</g>
<g
   id="g1544"
   transform="scale(1.3333334,1.3335236)"
   style="fill:#dabe8d;fill-opacity:1">
	<rect
   x="22.299999"
   y="110"
   class="st3"
   width="3"
   height="12.4"
   id="rect1542"
   style="fill:#dabe8d;fill-opacity:1" />
</g>
<g
   id="g1548"
   transform="scale(1.3333334,1.3335236)"
   style="fill:#dabe8d;fill-opacity:1">
	<rect
   x="23.799999"
   y="312.70001"
   class="st3"
   width="182"
   height="3"
   id="rect1546"
   style="fill:#dabe8d;fill-opacity:1" />
</g>
<g
   id="g1558"
   transform="scale(1.3333334,1.3335236)"
   style="fill:#dabe8d;fill-opacity:1">
	<g
   id="g1552"
   style="fill:#dabe8d;fill-opacity:1">
		<path
   class="st3"
   d="m 5.9,317.3 4.2,4.2 -0.4,0.5 -4.2,-4.2 z"
   id="path1550"
   style="fill:#dabe8d;fill-opacity:1" />
	</g>
	<g
   id="g1556"
   style="fill:#dabe8d;fill-opacity:1">
		<path
   class="st3"
   d="m 11.2,320.5 -4.4,-4.4 6.8,0.2 -3.3,-3.3 0.5,-0.5 4.4,4.4 -6.8,-0.2 3.3,3.3 z"
   id="path1554"
   style="fill:#dabe8d;fill-opacity:1" />
	</g>
</g>
<g
   id="g1572"
   transform="scale(1.3333334,1.3335236)"
   style="fill:#dabe8d;fill-opacity:1">
	<g
   id="g1562"
   style="fill:#dabe8d;fill-opacity:1">
		<path
   class="st3"
   d="m 15.3,333.6 c -1.3,-1.3 -1.2,-3.2 0,-4.4 1.2,-1.2 3.1,-1.3 4.4,0 1.3,1.3 1.2,3.2 0,4.4 -1.2,1.2 -3.1,1.2 -4.4,0 z m 0.5,-0.5 c 1,1 2.5,1 3.5,0 1,-1 0.9,-2.5 0,-3.5 -1,-1 -2.5,-1 -3.5,0 -1,1 -1,2.5 0,3.5 z"
   id="path1560"
   style="fill:#dabe8d;fill-opacity:1" />
	</g>
	<g
   id="g1566"
   style="fill:#dabe8d;fill-opacity:1">
		<path
   class="st3"
   d="m 21.5,328.3 c 0.4,0.4 0.7,0.7 1.4,0.7 0.3,0 0.7,-0.2 0.9,-0.5 0.2,-0.3 0.4,-0.6 0.5,-0.9 0.1,-0.6 -0.3,-1 -0.7,-1.4 l -2.6,-2.6 0.5,-0.5 2.7,2.7 c 0.4,0.4 0.7,0.7 0.8,1.3 0.1,0.6 -0.1,1.3 -0.7,1.8 -0.6,0.5 -1.2,0.8 -1.8,0.7 -0.5,-0.1 -0.9,-0.4 -1.3,-0.8 l -2.7,-2.7 0.5,-0.5 z"
   id="path1564"
   style="fill:#dabe8d;fill-opacity:1" />
	</g>
	<g
   id="g1570"
   style="fill:#dabe8d;fill-opacity:1">
		<path
   class="st3"
   d="m 24.1,321.5 3.8,3.8 -0.5,0.5 -3.8,-3.8 -1,1 -0.4,-0.4 2.5,-2.5 0.4,0.4 z"
   id="path1568"
   style="fill:#dabe8d;fill-opacity:1" />
	</g>
</g>
<g
   id="g1576"
   transform="scale(1.3333334,1.3335236)"
   style="fill:#dabe8d;fill-opacity:1">
	<rect
   x="3.5FDBB3C"
   y="321"
   transform="matrix(0.7071,-0.7071,0.7071,0.7071,-223.5332,105.3569)"
   class="st3"
   width="23.6"
   height="3"
   id="rect1574"
   style="fill:#dabe8d;fill-opacity:1" />
</g>
<g
   id="g1580"
   transform="scale(1.3333334,1.3335236)"
   style="fill:#dabe8d;fill-opacity:1">
	<path
   class="st3"
   d="m 23.8,286.6 c -0.5,0 -0.9,0 -1.4,-0.1 C 16.5,286 11.3,282.3 8.8,276.9 8.6,276.5 8.4,276 8.2,275.5 7.6,273.8 7.3,272 7.3,270.1 c 0,-9.1 7.4,-16.4 16.4,-16.4 9,0 16.4,7.4 16.4,16.4 v 0 c 0,1.8 -0.3,3.6 -0.9,5.4 -0.2,0.5 -0.4,0.9 -0.6,1.4 -2.4,5.4 -7.6,9.1 -13.6,9.6 -0.3,0.1 -0.8,0.1 -1.2,0.1 z m 0,-31.7 c -8.4,0 -15.3,6.9 -15.3,15.3 0,1.7 0.3,3.4 0.8,5 0.2,0.4 0.3,0.9 0.5,1.3 2.3,5 7.1,8.5 12.6,8.9 0.9,0.1 1.8,0.1 2.6,0 5.5,-0.5 10.4,-3.9 12.6,-8.9 0.2,-0.4 0.4,-0.9 0.5,-1.3 0.6,-1.6 0.8,-3.3 0.8,-5 v 0 c 0.2,-8.5 -6.7,-15.3 -15.1,-15.3 z"
   id="path1578"
   style="fill:#dabe8d;fill-opacity:1" />
</g>
<g
   id="g1584"
   transform="scale(1.3333334,1.3335236)"
   style="fill:#dabe8d;fill-opacity:1">
	<rect
   x="54.099998"
   y="48.599998"
   class="st3"
   width="151.7"
   height="3"
   id="rect1582"
   style="fill:#dabe8d;fill-opacity:1" />
</g>
<g
   id="g1588"
   transform="scale(1.3333334,1.3335236)"
   style="fill:#dabe8d;fill-opacity:1">
	<rect
   x="54.099998"
   y="92.599998"
   class="st3"
   width="151.7"
   height="3"
   id="rect1586"
   style="fill:#dabe8d;fill-opacity:1" />
</g>
<g
   id="g1592"
   transform="scale(1.3333334,1.3335236)"
   style="fill:#dabe8d;fill-opacity:1">
	<rect
   x="54.099998"
   y="136.60001"
   class="st3"
   width="151.7"
   height="3"
   id="rect1590"
   style="fill:#dabe8d;fill-opacity:1" />
</g>
<g
   id="g1596"
   transform="scale(1.3333334,1.3335236)"
   style="fill:#dabe8d;fill-opacity:1">
	<rect
   x="54.099998"
   y="180.60001"
   class="st3"
   width="151.7"
   height="3"
   id="rect1594"
   style="fill:#dabe8d;fill-opacity:1" />
</g>
<g
   id="g1600"
   transform="scale(1.3333334,1.3335236)"
   style="fill:#dabe8d;fill-opacity:1">
	<rect
   x="54.099998"
   y="224.60001"
   class="st3"
   width="151.7"
   height="3"
   id="rect1598"
   style="fill:#dabe8d;fill-opacity:1" />
</g>
<g
   id="g1604"
   transform="scale(1.3333334,1.3335236)"
   style="fill:#dabe8d;fill-opacity:1">
	<rect
   x="54.099998"
   y="268.60001"
   class="st3"
   width="151.7"
   height="3"
   id="rect1602"
   style="fill:#dabe8d;fill-opacity:1" />
</g>
<g
   id="g1608"
   transform="scale(1.3333334,1.3335236)"
   style="fill:#dabe8d;fill-opacity:1">
	<path
   class="st3"
   d="m 54.6,314.2 h -1.1 z m 0,-5.6 h -1.1 v -5.5 h 1.1 z m 0,-11 h -1.1 v -5.5 h 1.1 z m 0,-11 h -1.1 v -5.5 h 1.1 z m 0,-11 h -1.1 v -5.5 h 1.1 z m 0,-11 h -1.1 v -5.5 h 1.1 z m 0,-11 h -1.1 v -5.5 h 1.1 z m 0,-11 h -1.1 v -5.5 h 1.1 z m 0,-11 h -1.1 v -5.5 h 1.1 z m 0,-11 h -1.1 v -5.5 h 1.1 z m 0,-11 h -1.1 v -5.5 h 1.1 z m 0,-11 h -1.1 v -5.5 h 1.1 z m 0,-11 h -1.1 v -5.5 h 1.1 z m 0,-11 h -1.1 v -5.5 h 1.1 z m 0,-11 h -1.1 v -5.5 h 1.1 z m 0,-11 h -1.1 v -5.5 h 1.1 z m 0,-11 h -1.1 v -5.5 h 1.1 z m 0,-11 h -1.1 v -5.5 h 1.1 z m 0,-11 h -1.1 v -5.5 h 1.1 z m 0,-11 h -1.1 v -5.5 h 1.1 z m 0,-11 h -1.1 v -5.5 h 1.1 z m 0,-11 h -1.1 v -5.5 h 1.1 z m 0,-11 h -1.1 v -5.5 h 1.1 z m 0,-11 h -1.1 v -5.5 h 1.1 z m 0,-11 h -1.1 v -5.5 h 1.1 z"
   id="path1606"
   style="fill:#dabe8d;fill-opacity:1" />
</g>
<g
   id="g1612"
   transform="scale(1.3333334,1.3335236)"
   style="fill:#dabe8d;fill-opacity:1">
	<path
   class="st3"
   d="m 85,314.2 h -1.1 z m 0,-5.6 h -1.1 v -5.5 H 85 Z m 0,-11 h -1.1 v -5.5 H 85 Z m 0,-11 h -1.1 v -5.5 H 85 Z m 0,-11 h -1.1 v -5.5 H 85 Z m 0,-11 h -1.1 v -5.5 H 85 Z m 0,-11 h -1.1 v -5.5 H 85 Z m 0,-11 h -1.1 v -5.5 H 85 Z m 0,-11 h -1.1 v -5.5 H 85 Z m 0,-11 h -1.1 v -5.5 H 85 Z m 0,-11 h -1.1 v -5.5 H 85 Z m 0,-11 h -1.1 v -5.5 H 85 Z m 0,-11 h -1.1 v -5.5 H 85 Z m 0,-11 h -1.1 v -5.5 H 85 Z m 0,-11 h -1.1 v -5.5 H 85 Z m 0,-11 h -1.1 v -5.5 H 85 Z m 0,-11 h -1.1 v -5.5 H 85 Z m 0,-11 h -1.1 v -5.5 H 85 Z m 0,-11 h -1.1 v -5.5 H 85 Z m 0,-11 h -1.1 v -5.5 H 85 Z m 0,-11 H 83.9 V 94.1 H 85 Z m 0,-11 H 83.9 V 83.1 H 85 Z m 0,-11 H 83.9 V 72.1 H 85 Z m 0,-11 H 83.9 V 61.1 H 85 Z m 0,-11 H 83.9 V 50.1 H 85 Z"
   id="path1610"
   style="fill:#dabe8d;fill-opacity:1" />
</g>
<g
   id="g1616"
   transform="scale(1.3333334,1.3335236)"
   style="fill:#dabe8d;fill-opacity:1">
	<path
   class="st3"
   d="m 115.3,314.2 h -1.1 z m 0,-5.6 h -1.1 v -5.5 h 1.1 z m 0,-11 h -1.1 v -5.5 h 1.1 z m 0,-11 h -1.1 v -5.5 h 1.1 z m 0,-11 h -1.1 v -5.5 h 1.1 z m 0,-11 h -1.1 v -5.5 h 1.1 z m 0,-11 h -1.1 v -5.5 h 1.1 z m 0,-11 h -1.1 v -5.5 h 1.1 z m 0,-11 h -1.1 v -5.5 h 1.1 z m 0,-11 h -1.1 v -5.5 h 1.1 z m 0,-11 h -1.1 v -5.5 h 1.1 z m 0,-11 h -1.1 v -5.5 h 1.1 z m 0,-11 h -1.1 v -5.5 h 1.1 z m 0,-11 h -1.1 v -5.5 h 1.1 z m 0,-11 h -1.1 v -5.5 h 1.1 z m 0,-11 h -1.1 v -5.5 h 1.1 z m 0,-11 h -1.1 v -5.5 h 1.1 z m 0,-11 h -1.1 v -5.5 h 1.1 z m 0,-11 h -1.1 v -5.5 h 1.1 z m 0,-11 h -1.1 v -5.5 h 1.1 z m 0,-11 h -1.1 v -5.5 h 1.1 z m 0,-11 h -1.1 v -5.5 h 1.1 z m 0,-11 h -1.1 v -5.5 h 1.1 z m 0,-11 h -1.1 v -5.5 h 1.1 z m 0,-11 h -1.1 v -5.5 h 1.1 z"
   id="path1614"
   style="fill:#dabe8d;fill-opacity:1" />
</g>
<g
   id="g1620"
   transform="scale(1.3333334,1.3335236)"
   style="fill:#dabe8d;fill-opacity:1">
	<path
   class="st3"
   d="m 145.4,314.2 h -1.1 z m 0,-5.6 h -1.1 v -5.5 h 1.1 z m 0,-11 h -1.1 v -5.5 h 1.1 z m 0,-11 h -1.1 v -5.5 h 1.1 z m 0,-11 h -1.1 v -5.5 h 1.1 z m 0,-11 h -1.1 v -5.5 h 1.1 z m 0,-11 h -1.1 v -5.5 h 1.1 z m 0,-11 h -1.1 v -5.5 h 1.1 z m 0,-11 h -1.1 v -5.5 h 1.1 z m 0,-11 h -1.1 v -5.5 h 1.1 z m 0,-11 h -1.1 v -5.5 h 1.1 z m 0,-11 h -1.1 v -5.5 h 1.1 z m 0,-11 h -1.1 v -5.5 h 1.1 z m 0,-11 h -1.1 v -5.5 h 1.1 z m 0,-11 h -1.1 v -5.5 h 1.1 z m 0,-11 h -1.1 v -5.5 h 1.1 z m 0,-11 h -1.1 v -5.5 h 1.1 z m 0,-11 h -1.1 v -5.5 h 1.1 z m 0,-11 h -1.1 v -5.5 h 1.1 z m 0,-11 h -1.1 v -5.5 h 1.1 z m 0,-11 h -1.1 v -5.5 h 1.1 z m 0,-11 h -1.1 v -5.5 h 1.1 z m 0,-11 h -1.1 v -5.5 h 1.1 z m 0,-11 h -1.1 v -5.5 h 1.1 z m 0,-11 h -1.1 v -5.5 h 1.1 z"
   id="path1618"
   style="fill:#dabe8d;fill-opacity:1" />
</g>
<g
   id="g1624"
   transform="scale(1.3333334,1.3335236)"
   style="fill:#dabe8d;fill-opacity:1">
	<path
   class="st3"
   d="m 176,314.2 h -1.1 z m 0,-5.6 h -1.1 v -5.5 h 1.1 z m 0,-11 h -1.1 v -5.5 h 1.1 z m 0,-11 h -1.1 v -5.5 h 1.1 z m 0,-11 h -1.1 v -5.5 h 1.1 z m 0,-11 h -1.1 v -5.5 h 1.1 z m 0,-11 h -1.1 v -5.5 h 1.1 z m 0,-11 h -1.1 v -5.5 h 1.1 z m 0,-11 h -1.1 v -5.5 h 1.1 z m 0,-11 h -1.1 v -5.5 h 1.1 z m 0,-11 h -1.1 v -5.5 h 1.1 z m 0,-11 h -1.1 v -5.5 h 1.1 z m 0,-11 h -1.1 v -5.5 h 1.1 z m 0,-11 h -1.1 v -5.5 h 1.1 z m 0,-11 h -1.1 v -5.5 h 1.1 z m 0,-11 h -1.1 v -5.5 h 1.1 z m 0,-11 h -1.1 v -5.5 h 1.1 z m 0,-11 h -1.1 v -5.5 h 1.1 z m 0,-11 h -1.1 v -5.5 h 1.1 z m 0,-11 h -1.1 v -5.5 h 1.1 z m 0,-11 h -1.1 v -5.5 h 1.1 z m 0,-11 h -1.1 v -5.5 h 1.1 z m 0,-11 h -1.1 v -5.5 h 1.1 z m 0,-11 h -1.1 v -5.5 h 1.1 z m 0,-11 h -1.1 v -5.5 h 1.1 z"
   id="path1622"
   style="fill:#dabe8d;fill-opacity:1" />
</g>
<g
   id="g1628"
   transform="scale(1.3333334,1.3335236)"
   style="fill:#dabe8d;fill-opacity:1">
	<path
   class="st3"
   d="m 206.3,314.2 h -1.1 z m 0,-5.6 h -1.1 v -5.5 h 1.1 z m 0,-11 h -1.1 v -5.5 h 1.1 z m 0,-11 h -1.1 v -5.5 h 1.1 z m 0,-11 h -1.1 v -5.5 h 1.1 z m 0,-11 h -1.1 v -5.5 h 1.1 z m 0,-11 h -1.1 v -5.5 h 1.1 z m 0,-11 h -1.1 v -5.5 h 1.1 z m 0,-11 h -1.1 v -5.5 h 1.1 z m 0,-11 h -1.1 v -5.5 h 1.1 z m 0,-11 h -1.1 v -5.5 h 1.1 z m 0,-11 h -1.1 v -5.5 h 1.1 z m 0,-11 h -1.1 v -5.5 h 1.1 z m 0,-11 h -1.1 v -5.5 h 1.1 z m 0,-11 h -1.1 v -5.5 h 1.1 z m 0,-11 h -1.1 v -5.5 h 1.1 z m 0,-11 h -1.1 v -5.5 h 1.1 z m 0,-11 h -1.1 v -5.5 h 1.1 z m 0,-11 h -1.1 v -5.5 h 1.1 z m 0,-11 h -1.1 v -5.5 h 1.1 z m 0,-11 h -1.1 v -5.5 h 1.1 z m 0,-11 h -1.1 v -5.5 h 1.1 z m 0,-11 h -1.1 v -5.5 h 1.1 z m 0,-11 h -1.1 v -5.5 h 1.1 z m 0,-11 h -1.1 v -5.5 h 1.1 z"
   id="path1626"
   style="fill:#dabe8d;fill-opacity:1" />
</g>
<g
   id="g1640"
   transform="scale(1.3333334,1.3335236)"
   style="fill:#dabe8d;fill-opacity:1">
	<g
   id="g1632"
   style="fill:#dabe8d;fill-opacity:1">
		<polygon
   class="st3"
   points="54.6,296.4 53.6,296.4 "
   id="polygon1630"
   style="fill:#dabe8d;fill-opacity:1" />
	</g>
	<g
   id="g1638"
   style="fill:#dabe8d;fill-opacity:1">
		<g
   id="g1636"
   style="fill:#dabe8d;fill-opacity:1">
			<path
   class="st3"
   d="m 54.1,295.5 -1.8,-1.1 v 0.1 l 1.2,2.9 c 0.2,1 0.5,2 0.7,3.1 0.2,-1 0.4,-2 0.7,-3.1 l 1.2,-2.9 v -0.1 z"
   id="path1634"
   style="fill:#dabe8d;fill-opacity:1" />
		</g>
	</g>
</g>
<g
   id="g1652"
   transform="scale(1.3333334,1.3335236)"
   style="fill:#dabe8d;fill-opacity:1">
	<g
   id="g1644"
   style="fill:#dabe8d;fill-opacity:1">
		<polygon
   class="st3"
   points="84.9,296.4 83.9,296.4 "
   id="polygon1642"
   style="fill:#dabe8d;fill-opacity:1" />
	</g>
	<g
   id="g1650"
   style="fill:#dabe8d;fill-opacity:1">
		<g
   id="g1648"
   style="fill:#dabe8d;fill-opacity:1">
			<path
   class="st3"
   d="m 84.4,295.5 -1.8,-1.1 v 0.1 l 1.2,2.9 c 0.2,1 0.5,2 0.7,3.1 0.2,-1 0.4,-2 0.7,-3.1 l 1.2,-2.9 v -0.1 z"
   id="path1646"
   style="fill:#dabe8d;fill-opacity:1" />
		</g>
	</g>
</g>
<g
   id="g1664"
   transform="scale(1.3333334,1.3335236)"
   style="fill:#dabe8d;fill-opacity:1">
	<g
   id="g1656"
   style="fill:#dabe8d;fill-opacity:1">
		<polygon
   class="st3"
   points="54.6,296.4 53.6,296.4 "
   id="polygon1654"
   style="fill:#dabe8d;fill-opacity:1" />
	</g>
	<g
   id="g1662"
   style="fill:#dabe8d;fill-opacity:1">
		<g
   id="g1660"
   style="fill:#dabe8d;fill-opacity:1">
			<path
   class="st3"
   d="m 54.1,295.5 -1.8,-1.1 v 0.1 l 1.2,2.9 c 0.2,1 0.5,2 0.7,3.1 0.2,-1 0.4,-2 0.7,-3.1 l 1.2,-2.9 v -0.1 z"
   id="path1658"
   style="fill:#dabe8d;fill-opacity:1" />
		</g>
	</g>
</g>
<g
   id="g1676"
   transform="scale(1.3333334,1.3335236)"
   style="fill:#dabe8d;fill-opacity:1">
	<g
   id="g1668"
   style="fill:#dabe8d;fill-opacity:1">
		<polygon
   class="st3"
   points="115.2,296.4 114.2,296.4 "
   id="polygon1666"
   style="fill:#dabe8d;fill-opacity:1" />
	</g>
	<g
   id="g1674"
   style="fill:#dabe8d;fill-opacity:1">
		<g
   id="g1672"
   style="fill:#dabe8d;fill-opacity:1">
			<path
   class="st3"
   d="m 114.7,295.5 -1.8,-1.1 v 0.1 l 1.2,2.9 c 0.2,1 0.5,2 0.7,3.1 0.2,-1 0.4,-2 0.7,-3.1 l 1.2,-2.9 v -0.1 z"
   id="path1670"
   style="fill:#dabe8d;fill-opacity:1" />
		</g>
	</g>
</g>
<g
   id="g1688"
   transform="scale(1.3333334,1.3335236)"
   style="fill:#dabe8d;fill-opacity:1">
	<g
   id="g1680"
   style="fill:#dabe8d;fill-opacity:1">
		<polygon
   class="st3"
   points="145.4,296.4 144.4,296.4 "
   id="polygon1678"
   style="fill:#dabe8d;fill-opacity:1" />
	</g>
	<g
   id="g1686"
   style="fill:#dabe8d;fill-opacity:1">
		<g
   id="g1684"
   style="fill:#dabe8d;fill-opacity:1">
			<path
   class="st3"
   d="m 144.9,295.5 -1.8,-1.1 v 0.1 l 1.2,2.9 c 0.2,1 0.5,2 0.7,3.1 0.2,-1 0.4,-2 0.7,-3.1 l 1.2,-2.9 v -0.1 z"
   id="path1682"
   style="fill:#dabe8d;fill-opacity:1" />
		</g>
	</g>
</g>
<g
   id="g1700"
   transform="scale(1.3333334,1.3335236)"
   style="fill:#dabe8d;fill-opacity:1">
	<g
   id="g1692"
   style="fill:#dabe8d;fill-opacity:1">
		<polygon
   class="st3"
   points="174.9,296.5 174.9,296.4 175.9,296.4 "
   id="polygon1690"
   style="fill:#dabe8d;fill-opacity:1" />
	</g>
	<g
   id="g1698"
   style="fill:#dabe8d;fill-opacity:1">
		<g
   id="g1696"
   style="fill:#dabe8d;fill-opacity:1">
			<path
   class="st3"
   d="m 175.4,295.6 -1.8,-1.1 v 0.1 l 1.2,2.9 c 0.2,1 0.5,2 0.7,3.1 0.2,-1 0.4,-2 0.7,-3.1 l 1.2,-2.9 v -0.1 z"
   id="path1694"
   style="fill:#dabe8d;fill-opacity:1" />
		</g>
	</g>
</g>
<g
   id="g1712"
   transform="scale(1.3333334,1.3335236)"
   style="fill:#dabe8d;fill-opacity:1">
	<g
   id="g1704"
   style="fill:#dabe8d;fill-opacity:1">
		<polygon
   class="st3"
   points="205.2,296.5 205.2,296.4 206.2,296.4 "
   id="polygon1702"
   style="fill:#dabe8d;fill-opacity:1" />
	</g>
	<g
   id="g1710"
   style="fill:#dabe8d;fill-opacity:1">
		<g
   id="g1708"
   style="fill:#dabe8d;fill-opacity:1">
			<path
   class="st3"
   d="m 205.7,295.6 -1.8,-1.1 v 0.1 l 1.2,2.9 c 0.2,1 0.5,2 0.7,3.1 0.2,-1 0.4,-2 0.7,-3.1 l 1.2,-2.9 v -0.1 z"
   id="path1706"
   style="fill:#dabe8d;fill-opacity:1" />
		</g>
	</g>
</g>
<path
   class="st3"
   d="m 31.733334,338.44828 h -16 c -3.2,0 -5.8666672,2.66705 -5.8666672,5.86751 v 16.00228 0 c 0,2.40034 0.4000002,4.80068 1.2000002,7.20103 0.266666,0.66676 0.533333,1.20017 0.8,1.86693 C 15.066667,376.58706 22,381.52109 30,382.18786 h 3.6 c 7.866667,-0.66677 14.800001,-5.6008 18.133334,-12.80183 0.266667,-0.53341 0.533333,-1.20017 0.8,-1.86693 0.8,-2.26699 1.2,-4.66734 1.2,-7.20103 v 0 c -0.133333,-12.13507 -10,-21.86979 -22,-21.86979 z m 20.4,21.86979 c 0,2.26699 -0.4,4.53398 -1.066667,6.66762 -0.266666,0.53341 -0.4,1.20017 -0.666666,1.73358 C 47.333334,375.38689 40.933334,380.05422 33.6,380.58763 H 30 c -7.333333,-0.66676 -13.866666,-5.20074 -16.8,-11.86836 -0.266666,-0.53341 -0.533333,-1.20017 -0.666666,-1.73358 -0.800001,-2.13364 -1.066667,-4.40063 -1.066667,-6.66762 v 0 c 0,-11.2016 9.2,-20.40291 20.4,-20.40291 11.066667,0 20.266667,9.06796 20.266667,20.40291 z"
   id="path1714"
   style="stroke-width:1.33343;fill:#dabe8d;fill-opacity:1" />
<g
   id="g1718"
   transform="scale(1.3333334,1.3335236)"
   style="fill:#dabe8d;fill-opacity:1">
	<path
   class="st3"
   d="m 23.8,242.5 c -0.5,0 -0.9,0 -1.4,-0.1 -5.9,-0.5 -11.1,-4.2 -13.6,-9.6 -0.2,-0.4 -0.4,-0.9 -0.6,-1.4 -0.6,-1.7 -0.9,-3.5 -0.9,-5.4 0,-9.1 7.4,-16.4 16.4,-16.4 9,0 16.4,7.4 16.4,16.4 v 0 c 0,1.8 -0.3,3.6 -0.9,5.4 -0.2,0.5 -0.4,0.9 -0.6,1.4 -2.4,5.4 -7.6,9.1 -13.6,9.6 -0.3,0.1 -0.8,0.1 -1.2,0.1 z m 0,-31.7 c -8.4,0 -15.3,6.9 -15.3,15.3 0,1.7 0.3,3.4 0.8,5 0.2,0.4 0.3,0.9 0.5,1.3 2.3,5 7.1,8.5 12.6,8.9 0.9,0.1 1.8,0.1 2.6,0 5.5,-0.5 10.4,-3.9 12.6,-8.9 0.2,-0.4 0.4,-0.9 0.5,-1.3 0.6,-1.6 0.8,-3.3 0.8,-5 v 0 c 0.2,-8.4 -6.7,-15.3 -15.1,-15.3 z"
   id="path1716"
   style="fill:#dabe8d;fill-opacity:1" />
</g>
<path
   class="st3"
   d="m 31.733334,279.63989 h -16 c -3.2,0 -5.8666672,2.66705 -5.8666672,5.86751 v 16.00228 0 c 0,2.40034 0.4000002,4.80068 1.2000002,7.20103 0.266666,0.66676 0.533333,1.20017 0.8,1.86693 C 15.066667,317.77867 22,322.7127 30,323.37947 h 3.6 c 7.866667,-0.66677 14.800001,-5.6008 18.133334,-12.80183 0.266667,-0.66676 0.533333,-1.20017 0.8,-1.86693 0.8,-2.26699 1.2,-4.66734 1.2,-7.20103 v 0 c -0.133333,-12.00171 -10,-21.86979 -22,-21.86979 z m 20.4,21.86979 c 0,2.26699 -0.4,4.53398 -1.066667,6.66762 -0.266666,0.53341 -0.4,1.20017 -0.666666,1.73358 C 47.333334,316.5785 40.933334,321.24583 33.6,321.77924 H 30 c -7.333333,-0.66676 -13.866666,-5.20074 -16.8,-11.86836 -0.266666,-0.53341 -0.533333,-1.20017 -0.666666,-1.73358 -0.800001,-2.13364 -1.066667,-4.40063 -1.066667,-6.66762 v 0 c 0,-11.2016 9.2,-20.40291 20.4,-20.40291 11.066667,0 20.266667,9.20131 20.266667,20.40291 z"
   id="path1720"
   style="stroke-width:1.33343;fill:#dabe8d;fill-opacity:1" />
<g
   id="g1724"
   transform="scale(1.3333334,1.3335236)"
   style="fill:#dabe8d;fill-opacity:1">
	<path
   class="st3"
   d="m 23.8,198.5 c -0.5,0 -0.9,0 -1.4,-0.1 -5.9,-0.5 -11.1,-4.2 -13.6,-9.6 -0.2,-0.4 -0.4,-0.9 -0.6,-1.4 -0.6,-1.7 -0.9,-3.5 -0.9,-5.4 0,-9.1 7.4,-16.4 16.4,-16.4 9,0 16.4,7.4 16.4,16.4 v 0 c 0,1.8 -0.3,3.6 -0.9,5.4 -0.2,0.5 -0.4,0.9 -0.6,1.4 -2.4,5.4 -7.6,9.1 -13.6,9.6 -0.3,0.1 -0.8,0.1 -1.2,0.1 z m 0,-31.7 c -8.4,0 -15.3,6.9 -15.3,15.3 0,1.7 0.3,3.4 0.8,5 0.2,0.4 0.3,0.9 0.5,1.3 2.3,5 7.1,8.5 12.6,8.9 0.9,0.1 1.8,0.1 2.6,0 5.5,-0.5 10.4,-3.9 12.6,-8.9 0.2,-0.4 0.4,-0.9 0.5,-1.3 0.6,-1.6 0.8,-3.3 0.8,-5 v 0 c 0.2,-8.4 -6.7,-15.3 -15.1,-15.3 z"
   id="path1722"
   style="fill:#dabe8d;fill-opacity:1" />
</g>
<path
   class="st3"
   d="m 31.733334,220.96486 h -16 c -3.2,0 -5.8666672,2.66704 -5.8666672,5.8675 v 16.00228 0 c 0,2.40034 0.4000002,4.80069 1.2000002,7.20103 0.266666,0.66676 0.533333,1.20017 0.8,1.86693 C 15.066667,259.10363 22,264.03767 30,264.70443 h 3.6 c 7.866667,-0.66676 14.800001,-5.6008 18.133334,-12.80183 0.266667,-0.66676 0.533333,-1.20017 0.8,-1.86693 0.8,-2.26699 1.2,-4.66733 1.2,-7.20103 v 0 c -0.133333,-12.00171 -10,-21.86978 -22,-21.86978 z m 20.4,21.86978 c 0,2.26699 -0.4,4.53398 -1.066667,6.66762 -0.266666,0.53341 -0.4,1.20017 -0.666666,1.73358 C 47.333334,257.90346 40.933334,262.57079 33.6,263.1042 H 30 c -7.333333,-0.66676 -13.866666,-5.20074 -16.8,-11.86836 -0.266666,-0.53341 -0.533333,-1.20017 -0.666666,-1.73358 -0.800001,-2.13364 -1.066667,-4.40063 -1.066667,-6.66762 v 0 c 0,-11.2016 9.2,-20.40291 20.4,-20.40291 11.066667,0 20.266667,9.20131 20.266667,20.40291 z"
   id="path1726"
   style="stroke-width:1.33343;fill:#dabe8d;fill-opacity:1" />
<g
   id="g1730"
   transform="scale(1.3333334,1.3335236)"
   style="fill:#dabe8d;fill-opacity:1">
	<path
   class="st3"
   d="m 23.8,154.5 c -0.5,0 -0.9,0 -1.4,-0.1 -5.9,-0.5 -11.1,-4.2 -13.6,-9.6 -0.2,-0.4 -0.4,-0.9 -0.6,-1.4 -0.6,-1.7 -0.9,-3.5 -0.9,-5.4 0,-9.1 7.4,-16.4 16.4,-16.4 9,0 16.4,7.4 16.4,16.4 v 0 c 0,1.8 -0.3,3.6 -0.9,5.4 -0.2,0.5 -0.4,0.9 -0.6,1.4 -2.4,5.4 -7.6,9.1 -13.6,9.6 -0.3,0.1 -0.8,0.1 -1.2,0.1 z m 0,-31.7 c -8.4,0 -15.3,6.9 -15.3,15.3 0,1.7 0.3,3.4 0.8,5 0.2,0.4 0.3,0.9 0.5,1.3 2.3,5 7.1,8.5 12.6,8.9 0.9,0.1 1.8,0.1 2.6,0 5.5,-0.5 10.4,-3.9 12.6,-8.9 0.2,-0.4 0.4,-0.9 0.5,-1.3 0.6,-1.6 0.8,-3.3 0.8,-5 v 0 c 0.2,-8.4 -6.7,-15.3 -15.1,-15.3 z"
   id="path1728"
   style="fill:#dabe8d;fill-opacity:1" />
</g>
<path
   class="st3"
   d="m 31.733334,162.28982 h -16 c -3.2,0 -5.8666672,2.66705 -5.8666672,5.8675 v 16.00229 0 c 0,2.40034 0.4000002,4.80068 1.2000002,7.20102 0.266666,0.66676 0.533333,1.20017 0.8,1.86694 C 15.066667,200.42859 22,205.36263 30,206.02939 h 3.6 c 7.866667,-0.66676 14.800001,-5.6008 18.133334,-12.80182 0.266667,-0.66677 0.533333,-1.20018 0.8,-1.86694 0.8,-2.26699 1.2,-4.66733 1.2,-7.20102 v 0 c -0.133333,-12.00172 -10,-21.86979 -22,-21.86979 z m 20.4,22.00314 c 0,2.26699 -0.4,4.53398 -1.066667,6.66762 -0.266666,0.5334 -0.4,1.20017 -0.666666,1.73358 C 47.333334,199.36177 40.933334,204.02911 33.6,204.56252 H 30 c -7.333333,-0.66677 -13.866666,-5.20075 -16.8,-11.86836 -0.266666,-0.53341 -0.533333,-1.20018 -0.666666,-1.73358 -0.800001,-2.13364 -1.066667,-4.40063 -1.066667,-6.66762 v 0 c 0,-11.2016 9.2,-20.40291 20.4,-20.40291 11.066667,-0.13336 20.266667,9.06796 20.266667,20.40291 z"
   id="path1732"
   style="stroke-width:1.33343;fill:#dabe8d;fill-opacity:1" />
<g
   id="g1736"
   transform="scale(1.3333334,1.3335236)"
   style="fill:#dabe8d;fill-opacity:1">
	<path
   class="st3"
   d="m 23.8,110.5 c -0.5,0 -0.9,0 -1.4,-0.1 C 16.5,109.9 11.3,106.2 8.8,100.8 8.6,100.4 8.4,99.9 8.2,99.4 7.6,97.7 7.3,95.9 7.3,94 c 0,-9.1 7.4,-16.4 16.4,-16.4 9,0 16.4,7.4 16.4,16.4 v 0 c 0,1.8 -0.3,3.6 -0.9,5.4 -0.2,0.5 -0.4,0.9 -0.6,1.4 -2.4,5.4 -7.6,9.1 -13.6,9.6 -0.3,0.1 -0.8,0.1 -1.2,0.1 z m 0,-31.7 c -8.4,0 -15.3,6.9 -15.3,15.3 0,1.7 0.3,3.4 0.8,5 0.2,0.4 0.3,0.9 0.5,1.3 2.3,5 7.1,8.5 12.6,8.9 0.9,0.1 1.8,0.1 2.6,0 5.5,-0.5 10.4,-3.9 12.6,-8.9 0.2,-0.4 0.4,-0.9 0.5,-1.3 0.6,-1.6 0.8,-3.3 0.8,-5 v 0 C 39.1,85.7 32.2,78.8 23.8,78.8 Z"
   id="path1734"
   style="fill:#dabe8d;fill-opacity:1" />
</g>
<path
   class="st3"
   d="m 31.733334,103.61478 h -16 c -3.2,0 -5.8666672,2.66705 -5.8666672,5.86751 v 16.00228 0 c 0,2.40034 0.4000002,4.80068 1.2000002,7.20103 0.266666,0.66676 0.533333,1.20017 0.8,1.86693 C 15.066667,141.75356 22,146.68759 30,147.35435 h 3.6 c 7.866667,-0.66676 14.800001,-5.60079 18.133334,-12.80182 0.266667,-0.53341 0.533333,-1.20017 0.8,-1.86693 0.8,-2.26699 1.2,-4.66734 1.2,-7.20103 v 0 c -0.133333,-12.00171 -10,-21.86979 -22,-21.86979 z m 20.4,22.00314 c 0,2.26699 -0.4,4.53398 -1.066667,6.66762 -0.266666,0.53341 -0.4,1.20017 -0.666666,1.73358 C 47.333334,140.68674 40.933334,145.35407 33.6,145.88748 H 30 c -7.333333,-0.66676 -13.866666,-5.20074 -16.8,-11.86836 -0.266666,-0.53341 -0.533333,-1.20017 -0.666666,-1.73358 -0.800001,-2.13364 -1.066667,-4.40063 -1.066667,-6.66762 v 0 c 0,-11.2016 9.2,-20.40291 20.4,-20.40291 11.066667,-0.13335 20.266667,9.06796 20.266667,20.40291 z"
   id="path1738"
   style="stroke-width:1.33343;fill:#dabe8d;fill-opacity:1" />
<g
   id="g1742"
   transform="scale(1.3333334,1.3335236)"
   style="fill:#dabe8d;fill-opacity:1">
	<path
   class="st3"
   d="m 23.8,66.5 c -0.5,0 -0.9,0 -1.4,-0.1 C 16.5,65.9 11.3,62.2 8.8,56.8 8.6,56.3 8.4,55.9 8.2,55.4 7.6,53.7 7.3,51.9 7.3,50 c 0,-9.1 7.4,-16.4 16.4,-16.4 9,0 16.4,7.4 16.4,16.4 v 0 c 0,1.8 -0.3,3.6 -0.9,5.4 -0.2,0.5 -0.4,0.9 -0.6,1.4 -2.4,5.4 -7.6,9.1 -13.6,9.6 -0.3,0.1 -0.8,0.1 -1.2,0.1 z m 0,-31.7 c -8.4,0 -15.3,6.9 -15.3,15.3 0,1.7 0.3,3.4 0.8,5 0.2,0.4 0.3,0.9 0.5,1.3 2.3,5 7.1,8.5 12.6,8.9 0.9,0.1 1.8,0.1 2.6,0 5.5,-0.5 10.4,-3.9 12.6,-8.9 0.2,-0.4 0.4,-0.9 0.5,-1.3 0.6,-1.6 0.8,-3.3 0.8,-5 v 0 C 39.1,41.7 32.2,34.8 23.8,34.8 Z"
   id="path1740"
   style="fill:#dabe8d;fill-opacity:1" />
</g>
<path
   class="st3"
   d="m 31.733334,44.939744 h -16 c -3.2,0 -5.8666672,2.667048 -5.8666672,5.867504 v 16.002283 0 c 0,2.400342 0.4000002,4.800685 1.2000002,7.201027 0.266666,0.666762 0.533333,1.200171 0.8,1.866933 C 15.066667,83.078519 22,88.012556 30,88.679318 h 3.6 c 7.866667,-0.666762 14.800001,-5.600799 18.133334,-12.801827 0.266667,-0.666762 0.533333,-1.200171 0.8,-1.866933 0.8,-2.26699 1.2,-4.667332 1.2,-7.201027 v 0 c -0.133333,-12.001712 -10,-21.869787 -22,-21.869787 z m 20.4,21.869787 c 0,2.26699 -0.4,4.53398 -1.066667,6.667618 -0.266666,0.533409 -0.4,1.200171 -0.666666,1.73358 C 47.333334,81.878347 40.933334,86.54568 33.6,87.079089 H 30 C 22.666667,86.412327 16.133334,81.878347 13.2,75.210729 12.933334,74.67732 12.666667,74.010558 12.533334,73.477149 11.733333,71.343511 11.466667,69.076521 11.466667,66.809531 v 0 c 0,-11.201598 9.2,-20.402911 20.4,-20.402911 11.066667,0 20.266667,9.201313 20.266667,20.402911 z"
   id="path1744"
   style="stroke-width:1.33343;fill:#dabe8d;fill-opacity:1" />
<path
   class="st3"
   d="m 129.46667,418.99311 c 0,-9.33467 -7.6,-16.93575 -16.93334,-16.93575 -9.33333,0 -16.933329,7.60108 -16.933329,16.93575 0,2.26699 0.4,4.53398 1.333334,6.53426 3.733335,15.33552 9.333335,24.93689 15.599995,24.93689 6.26667,0 11.86667,-9.73472 15.60001,-24.93689 0.93333,-2.13364 1.33333,-4.26727 1.33333,-6.53426 z"
   id="path1746"
   style="stroke-width:1.33343;fill:#dabe8d;fill-opacity:1" />
<path
   class="st3"
   d="m 169.86667,418.99311 c 0,-9.33467 -7.6,-16.93575 -16.93333,-16.93575 -9.33334,0 -16.93334,7.60108 -16.93334,16.93575 0,2.26699 0.4,4.53398 1.33334,6.53426 3.73333,15.33552 9.33333,24.93689 15.6,24.93689 6.26666,0 11.86666,-9.73472 15.6,-24.93689 0.93333,-2.13364 1.33333,-4.26727 1.33333,-6.53426 z"
   id="path1748"
   style="stroke-width:1.33343;fill:#dabe8d;fill-opacity:1" />
<path
   class="st3"
   d="m 210.13334,418.99311 c 0,-9.33467 -7.6,-16.93575 -16.93334,-16.93575 -9.33333,0 -16.93333,7.60108 -16.93333,16.93575 0,2.26699 0.4,4.53398 1.33333,6.53426 3.73334,15.33552 9.33334,24.93689 15.6,24.93689 6.26667,0 11.86667,-9.73472 15.6,-24.93689 0.8,-2.13364 1.33334,-4.26727 1.33334,-6.53426 z"
   id="path1750"
   style="stroke-width:1.33343;fill:#dabe8d;fill-opacity:1" />
<path
   class="st3"
   d="m 250.8,418.99311 c 0,-9.33467 -7.6,-16.93575 -16.93333,-16.93575 -9.33333,0 -16.93333,7.60108 -16.93333,16.93575 0,2.26699 0.4,4.53398 1.33333,6.53426 3.73333,15.33552 9.33333,24.93689 15.6,24.93689 6.26667,0 11.86667,-9.73472 15.6,-24.93689 0.8,-2.13364 1.33333,-4.26727 1.33333,-6.53426 z"
   id="path1752"
   style="stroke-width:1.33343;fill:#dabe8d;fill-opacity:1" />
<path
   class="st3"
   d="m 291.2,418.99311 c 0,-9.33467 -7.6,-16.93575 -16.93333,-16.93575 -9.33333,0 -16.93333,7.60108 -16.93333,16.93575 0,2.26699 0.4,4.53398 1.33333,6.53426 3.73333,15.33552 9.33333,24.93689 15.6,24.93689 6.26667,0 11.86667,-9.73472 15.6,-24.93689 C 290.8,423.39373 291.2,421.2601 291.2,418.99311 Z"
   id="path1754"
   style="stroke-width:1.33343;fill:#dabe8d;fill-opacity:1" />
<path
   class="st3"
   d="m 89.066668,418.99311 c 0,-9.33467 -7.6,-16.93575 -16.933334,-16.93575 -9.333333,0 -16.933333,7.60108 -16.933333,16.93575 0,2.26699 0.4,4.53398 1.333333,6.53426 3.733333,15.33552 9.333334,24.93689 15.6,24.93689 6.266667,0 11.866667,-9.73472 15.600001,-24.93689 0.8,-2.13364 1.333333,-4.26727 1.333333,-6.53426 z"
   id="path1756"
   style="stroke-width:1.33343;fill:#dabe8d;fill-opacity:1" />

<g
   style="enable-background:new;fill:#401B5C;fill-opacity:1"
   id="g2475"
   class="st0"
   transform="matrix(1.3332342,0,0,1.333671,-0.12628237,0.17770904)"><path
     style="fill:#401B5C;fill-opacity:1"
     id="path2473"
     d="m 56.5,329.4 c -0.1,0.6 -0.1,2.5 -0.1,3.9 0,0.7 0.2,0.9 0.5,0.9 l -0.1,0.7 c -0.1,0 -0.2,0 -0.3,0 -0.5,0 -0.9,-0.3 -0.9,-1.2 v 0 c -0.4,0.7 -1,1.2 -1.9,1.2 -1.3,0 -2.3,-1.1 -2.3,-2.8 0,-1.8 1.2,-3 2.5,-3 0.8,0 1.4,0.4 1.7,1.1 v 0 c 0,-0.4 0.1,-0.7 0.1,-1 h 0.8 z m -2.6,4.9 c 0.7,0 1.3,-0.7 1.5,-1.4 0.1,-0.3 0.1,-0.5 0.1,-0.8 0,-0.2 0,-0.4 0,-0.6 -0.1,-0.7 -0.7,-1.4 -1.4,-1.4 -0.9,0 -1.6,0.9 -1.6,2.2 -0.1,1 0.4,2 1.4,2 z"
     class="st1" /></g><g
   style="enable-background:new;fill:#401B5C;fill-opacity:1"
   id="g2479"
   class="st0"
   transform="matrix(1.3332342,0,0,1.333671,-0.12628237,0.17770904)"><path
     style="fill:#401B5C;fill-opacity:1"
     id="path2477"
     d="m 83.2,334.4 v 0.7 c 0,0.6 0,1.4 0.1,1.8 h -0.8 c -0.1,-0.3 -0.2,-1 -0.2,-1.7 v -4.7 c 0,-1.4 0.4,-2 0.8,-2.4 0.3,-0.3 0.8,-0.5 1.4,-0.5 1,0 1.8,0.7 1.8,1.8 0,0.8 -0.4,1.4 -0.9,1.6 v 0 c 0.8,0.2 1.5,0.8 1.5,1.9 0,1.4 -1,2.1 -2.1,2.1 -0.7,0.1 -1.2,-0.2 -1.6,-0.6 z m 0,-0.8 c 0.2,0.4 0.7,0.8 1.4,0.8 0.8,0 1.4,-0.6 1.4,-1.4 0,-1 -0.7,-1.5 -1.6,-1.5 -0.1,0 -0.2,0 -0.3,0 v -0.6 c 0.1,0 0.1,0 0.2,0 0.8,-0.1 1.2,-0.7 1.2,-1.3 0,-0.7 -0.4,-1.2 -1,-1.2 -0.8,0 -1.3,0.7 -1.3,2.1 z"
     class="st1" /></g><g
   style="enable-background:new;fill:#401B5C;fill-opacity:1"
   id="g2483"
   class="st0"
   transform="matrix(1.3332342,0,0,1.333671,-0.12628237,0.17770904)"><path
     style="fill:#401B5C;fill-opacity:1"
     id="path2481"
     d="m 114.3,335.3 c 0,-0.9 0,-1.8 -0.2,-2.8 -0.4,-1.6 -1.2,-3.1 -1.7,-3.9 h 1 c 0.4,0.6 1.1,2.2 1.4,3.7 v 0 c 0.4,-0.8 1.1,-2.2 1.1,-3.3 0,-0.1 0,-0.2 0,-0.3 h 0.8 c 0,0.1 0,0.2 0,0.3 0,1.2 -0.8,2.8 -1.7,4.1 -0.1,0.1 -0.1,0.1 -0.1,0.2 0,0.6 0,1.3 0,1.9 h -0.6 z"
     class="st1" /></g><g
   style="enable-background:new;fill:#401B5C;fill-opacity:1"
   id="g2487"
   class="st0"
   transform="matrix(1.3332342,0,0,1.333671,-0.12628237,0.17770904)"><path
     style="fill:#401B5C;fill-opacity:1"
     id="path2485"
     d="m 146.6,329.5 c -0.2,-0.2 -0.8,-0.4 -1.4,-0.4 -0.6,0 -0.8,0.2 -0.8,0.5 0,0.3 0.3,0.5 0.7,0.8 l 0.8,0.7 c 0.8,0.6 1.3,1.4 1.3,2.4 0,1.6 -1.1,2.6 -2.4,2.6 -1.3,0 -2.4,-0.9 -2.4,-2.5 0,-1.3 0.9,-2.1 1.9,-2.6 v -0.1 l -0.2,-0.2 c -0.2,-0.2 -0.6,-0.6 -0.6,-1 0,-0.6 0.6,-1.2 1.7,-1.2 0.7,0 1.4,0.3 1.7,0.5 z m -1.7,1.7 c -0.8,0.4 -1.5,1.1 -1.5,2.2 0,1.2 0.8,1.8 1.6,1.8 0.8,0 1.5,-0.7 1.5,-1.8 0,-0.7 -0.3,-1.3 -1,-1.8 z"
     class="st1" /></g><g
   style="enable-background:new;fill:#401B5C;fill-opacity:1"
   id="g2491"
   class="st0"
   transform="matrix(1.3332342,0,0,1.333671,-0.12628237,0.17770904)"><path
     style="fill:#401B5C;fill-opacity:1"
     id="path2489"
     d="m 177.7,334.6 c -0.4,0.3 -1.2,0.5 -2,0.5 -1.1,0 -2.3,-0.4 -2.3,-1.7 0,-0.7 0.6,-1.3 1.4,-1.4 v 0 c -0.7,-0.2 -1.1,-0.6 -1.1,-1.2 0,-0.7 0.7,-1.5 2.2,-1.5 0.7,0 1.3,0.1 1.7,0.4 l -0.2,0.7 c -0.2,-0.1 -0.8,-0.3 -1.4,-0.3 -0.8,0 -1.3,0.3 -1.3,0.8 0,0.5 0.7,0.8 1.5,0.8 h 0.7 v 0.7 h -0.7 c -1,0 -1.7,0.3 -1.7,0.9 0,0.7 0.7,1 1.5,1 0.6,0 1.3,-0.2 1.6,-0.4 z"
     class="st1" /></g><g
   style="enable-background:new;fill:#401B5C;fill-opacity:1"
   id="g2495"
   class="st0"
   transform="matrix(1.3332342,0,0,1.333671,-0.12628237,0.17770904)"><path
     style="fill:#401B5C;fill-opacity:1"
     id="path2493"
     d="m 206.5,336.2 c 0.1,-0.2 0.3,-0.8 0.3,-1.1 -0.3,0 -0.8,-0.1 -1.1,-0.3 -0.8,-0.3 -1.5,-0.9 -1.5,-2.2 0,-1.4 0.9,-3 2.3,-4 v 0 h -0.7 c -0.4,0 -0.8,0 -1.1,-0.1 l 0.1,-0.6 c 0.3,0 0.7,0 1.2,0 h 1.6 l 0.1,0.6 c -1.5,0.8 -2.7,2.5 -2.7,4 0,1.1 0.5,1.5 1.2,1.8 0.4,0.2 0.9,0.2 1.3,0.3 0,0 0.1,0.1 0.1,0.1 0,0.6 -0.3,1.4 -0.6,1.7 z"
     class="st1" /></g><g
   style="enable-background:new;fill:#401B5C;fill-opacity:1"
   id="g2499"
   class="st0"
   transform="matrix(1.3332342,0,0,1.333671,-0.12628237,0.17770904)"><path
     style="fill:#401B5C;fill-opacity:1"
     id="path2497"
     d="m 11.4,255.6 c -0.1,0 -0.3,0 -0.4,0 -0.9,0.1 -1.3,0.8 -1.4,1.4 v 0 c 0.2,-0.3 0.5,-0.5 1,-0.5 0.7,0 1.2,0.5 1.2,1.3 0,0.7 -0.5,1.4 -1.3,1.4 -0.9,0 -1.4,-0.7 -1.4,-1.7 0,-0.8 0.3,-1.4 0.7,-1.8 0.3,-0.3 0.8,-0.5 1.3,-0.6 0.2,0 0.3,0 0.4,0 v 0.5 z m -0.2,2.3 c 0,-0.6 -0.3,-0.9 -0.8,-0.9 -0.3,0 -0.6,0.2 -0.8,0.5 0,0.1 -0.1,0.1 -0.1,0.2 0,0.7 0.3,1.1 0.9,1.1 0.5,0.1 0.8,-0.3 0.8,-0.9 z"
     class="st1" /></g><g
   style="enable-background:new;fill:#401B5C;fill-opacity:1"
   id="g2503"
   class="st0"
   transform="matrix(1.3332342,0,0,1.333671,-0.12628237,0.17770904)"><path
     style="fill:#401B5C;fill-opacity:1"
     id="path2501"
     d="M 11.5,211.6 H 10 l -0.2,1 c 0.1,0 0.2,0 0.3,0 0.3,0 0.6,0.1 0.9,0.2 0.3,0.2 0.6,0.5 0.6,1 0,0.8 -0.6,1.4 -1.5,1.4 -0.4,0 -0.8,-0.1 -1,-0.2 l 0.1,-0.4 c 0.2,0.1 0.5,0.2 0.9,0.2 0.5,0 0.9,-0.3 0.9,-0.9 0,-0.5 -0.4,-0.9 -1.2,-0.9 -0.2,0 -0.4,0 -0.6,0 l 0.3,-1.9 h 1.9 v 0.5 z"
     class="st1" /></g><g
   style="enable-background:new;fill:#401B5C;fill-opacity:1"
   id="g2507"
   class="st0"
   transform="matrix(1.3332342,0,0,1.333671,-0.12628237,0.17770904)"><path
     style="fill:#401B5C;fill-opacity:1"
     id="path2505"
     d="m 10.8,171.2 v -1.1 H 8.9 v -0.4 l 1.8,-2.6 h 0.6 v 2.5 h 0.6 v 0.4 h -0.6 v 1.1 h -0.5 z m 0,-1.6 v -1.3 c 0,-0.2 0,-0.4 0,-0.6 v 0 c -0.1,0.2 -0.2,0.4 -0.3,0.6 l -1,1.4 v 0 h 1.3 z"
     class="st1" /></g><g
   style="enable-background:new;fill:#401B5C;fill-opacity:1"
   id="g2511"
   class="st0"
   transform="matrix(1.3332342,0,0,1.333671,-0.12628237,0.17770904)"><path
     style="fill:#401B5C;fill-opacity:1"
     id="path2509"
     d="m 9.2,126.6 c 0.2,0.1 0.5,0.3 0.9,0.3 0.7,0 0.9,-0.4 0.9,-0.8 0,-0.6 -0.5,-0.8 -1,-0.8 H 9.7 v -0.4 H 10 c 0.4,0 0.9,-0.2 0.9,-0.7 0,-0.3 -0.2,-0.6 -0.7,-0.6 -0.3,0 -0.6,0.1 -0.8,0.3 l -0.1,-0.4 c 0.2,-0.2 0.6,-0.3 1,-0.3 0.8,0 1.1,0.5 1.1,1 0,0.4 -0.2,0.8 -0.7,0.9 v 0 c 0.5,0.1 0.9,0.5 0.9,1 0,0.6 -0.5,1.2 -1.5,1.2 -0.5,0 -0.8,-0.1 -1,-0.3 z"
     class="st1" /></g><g
   style="enable-background:new;fill:#401B5C;fill-opacity:1"
   id="g2515"
   class="st0"
   transform="matrix(1.3332342,0,0,1.333671,-0.12628237,0.17770904)"><path
     style="fill:#401B5C;fill-opacity:1"
     id="path2513"
     d="m 9.1,83.2 v -0.3 l 0.4,-0.4 c 1,-1 1.5,-1.5 1.5,-2.1 0,-0.4 -0.2,-0.8 -0.8,-0.8 -0.4,0 -0.7,0.2 -0.9,0.3 L 9.1,79.5 c 0.3,-0.2 0.7,-0.4 1.1,-0.4 0.9,0 1.2,0.6 1.2,1.2 0,0.7 -0.5,1.3 -1.4,2.2 l -0.3,0.3 v 0 h 1.8 v 0.5 H 9.1 Z"
     class="st1" /></g><g
   style="enable-background:new;fill:#401B5C;fill-opacity:1"
   id="g2519"
   class="st0"
   transform="matrix(1.3332342,0,0,1.333671,-0.12628237,0.17770904)"><path
     style="fill:#401B5C;fill-opacity:1"
     id="path2517"
     d="m 10.3,35.7 v 0 l -0.7,0.4 -0.1,-0.4 0.9,-0.5 h 0.5 v 4 h -0.5 v -3.5 z"
     class="st1" /></g></svg>
