<?xml version="1.0" encoding="UTF-8" standalone="no"?>
<svg
   xmlns:dc="http://purl.org/dc/elements/1.1/"
   xmlns:cc="http://creativecommons.org/ns#"
   xmlns:rdf="http://www.w3.org/1999/02/22-rdf-syntax-ns#"
   xmlns:svg="http://www.w3.org/2000/svg"
   xmlns="http://www.w3.org/2000/svg"
   xmlns:sodipodi="http://sodipodi.sourceforge.net/DTD/sodipodi-0.dtd"
   xmlns:inkscape="http://www.inkscape.org/namespaces/inkscape"
   inkscape:version="1.0 (4035a4f, 2020-05-01)"
   height="128.5mm"
   width="81.279999mm"
   sodipodi:docname="traigh (Inkscaoe Render).svg"
   id="svg1507"
   xml:space="preserve"
   viewBox="0 0 307.2 485.66928"
   y="0px"
   x="0px"
   version="1.1"><metadata
   id="metadata1513"><rdf:RDF><cc:Work
       rdf:about=""><dc:format>image/svg+xml</dc:format><dc:type
         rdf:resource="http://purl.org/dc/dcmitype/StillImage" /><dc:title></dc:title></cc:Work></rdf:RDF></metadata><defs
   id="defs1511" /><sodipodi:namedview
   inkscape:current-layer="svg1507"
   inkscape:window-maximized="0"
   inkscape:window-y="23"
   inkscape:window-x="0"
   inkscape:cy="250.86237"
   inkscape:cx="76.824386"
   inkscape:zoom="0.7528404"
   units="mm"
   inkscape:document-units="mm"
   showgrid="false"
   id="namedview1509"
   inkscape:window-height="855"
   inkscape:window-width="1440"
   inkscape:pageshadow="2"
   inkscape:pageopacity="0"
   guidetolerance="10"
   gridtolerance="10"
   objecttolerance="10"
   borderopacity="1"
   bordercolor="#666666"
   pagecolor="#FDDEA2fff" />
<style
   id="style1322"
   type="text/css">
	.st0{fill:#401B5C;stroke:#401B5C;stroke-miterlimit:10;}
	.st1{fill:#DABE8D;}
</style>
<g
   style="fill:#401B5C;fill-opacity:1"
   transform="matrix(1.327446,0,0,1.3313533,0.17822771,0.1529634)"
   id="Layer_3">
	<rect
   style="fill:#401B5C;fill-opacity:1"
   y="0"
   x="0"
   id="rect1324"
   height="364.20001"
   width="230.39999"
   class="st0" />
</g>
<g
   style="fill:#e0c490;fill-opacity:1"
   transform="matrix(1.327446,0,0,1.3313533,0.17822771,0.1529634)"
   id="Layer_2">
	<g
   style="fill:#e0c490;fill-opacity:1"
   id="g1504">
		<g
   style="fill:#e0c490;fill-opacity:1"
   id="g1329">
			<path
   style="fill:#e0c490;fill-opacity:1"
   id="path1327"
   d="m 216.1,152.2 c -0.6,-5.7 -3.4,-10.9 -7.8,-14.5 -9,-7.8 -9.3,-9.5 -10,-14.7 v -0.1 c -0.3,-2 -0.9,-6.6 4.9,-14.4 l 0.7,-0.8 c 7.7,-10 11.2,-22.4 9.9,-34.8 -2.7,-27 -26.8,-46.6 -53.6,-43.9 -26.9,2.8 -46.5,26.9 -43.7,53.7 2.2,21.5 18.6,39.3 39.9,43.2 l 4.1,0.6 c 7.6,1.9 13.2,8.4 14,16.2 0.2,1.8 0.1,3.5 -0.2,5.2 l -0.6,2.4 c -0.4,2 -0.5,4.1 -0.3,6.2 1.2,11.8 11.8,20.4 23.6,19.2 11.7,-1.1 20.4,-11.7 19.1,-23.5 z m -39.8,4.1 c -0.2,-1.8 -0.1,-3.5 0.2,-5.2 l 0.6,-2.5 c 0.4,-2 0.5,-4.1 0.3,-6.2 -0.9,-9 -7.5,-16.6 -16.4,-18.8 l -4.3,-0.6 c -19.9,-3.7 -35.3,-20.3 -37.4,-40.5 -2.6,-25.2 15.8,-47.8 41.1,-50.4 25.2,-2.6 47.8,15.8 50.4,41.1 1.2,11.6 -2.1,23.2 -9.3,32.6 l -0.7,0.8 c -6.6,8.9 -5.8,14.6 -5.6,16.7 v 0.1 c 0.8,6.2 1.5,8.5 11,16.6 3.9,3.1 6.3,7.6 6.8,12.5 1,10.2 -6.4,19.3 -16.5,20.3 -10,1 -19.1,-6.4 -20.2,-16.5 z"
   class="st1" />
		</g>
		<g
   style="fill:#e0c490;fill-opacity:1"
   id="g1341">
			<path
   style="fill:#e0c490;fill-opacity:1"
   id="path1331"
   d="M 46,25.3 V 4.1 L 61.9,20.8 V 4.9 h 2.3 V 26.2 L 48.3,9.6 V 25.4 H 46 Z"
   class="st1" />
			<path
   style="fill:#e0c490;fill-opacity:1"
   id="path1333"
   d="M 78.6,8.8 C 78.3,8.2 77.9,7.6 77.4,7.3 77,7 76.3,6.6 75.1,6.6 c -2,0 -3.4,1.3 -3.4,3.2 0,0.8 0.2,1.3 0.8,1.8 0.6,0.6 1.4,0.9 2.1,1.3 l 2,0.9 c 1.2,0.5 2.3,1.1 3.2,1.9 1,1 1.5,2.2 1.5,3.7 0,3.8 -2.8,6.3 -6.5,6.3 -1.3,0 -3,-0.3 -4.4,-1.7 -1,-1 -1.6,-2.4 -1.9,-3.6 l 2.2,-0.6 c 0.2,1.1 0.6,2 1.2,2.6 0.9,0.9 1.9,1.1 2.9,1.1 2.8,0 4.1,-2 4.1,-4 0,-0.9 -0.3,-1.7 -1,-2.4 -0.6,-0.6 -1.4,-0.9 -2.4,-1.4 L 73.7,14.8 C 72.9,14.4 71.9,14 71,13.1 70.1,12.2 69.6,11.3 69.6,9.8 c 0,-3.2 2.4,-5.3 5.7,-5.3 1.3,0 2.3,0.2 3.3,0.9 0.8,0.6 1.5,1.4 2,2.3 z"
   class="st1" />
			<path
   style="fill:#e0c490;fill-opacity:1"
   id="path1335"
   d="M 89.1,7.1 V 25.4 H 86.8 V 7.1 h -5 V 4.9 H 94 V 7 h -4.9 z"
   class="st1" />
			<path
   style="fill:#e0c490;fill-opacity:1"
   id="path1337"
   d="m 100.4,4.9 c 1.4,0 3.4,0.1 5,1.1 1.2,0.8 2.2,2.4 2.2,4.5 0,3.1 -2.1,5.4 -5.1,5.6 l 6.5,9.1 h -2.8 L 100,16.3 h -0.6 v 8.9 H 97.1 V 4.9 Z m -1.1,9.5 h 1.4 c 2.8,0 4.5,-1.3 4.5,-3.7 0,-1.1 -0.3,-2.3 -1.6,-3 -0.9,-0.5 -2,-0.6 -2.9,-0.6 h -1.4 z"
   class="st1" />
			<path
   style="fill:#e0c490;fill-opacity:1"
   id="path1339"
   d="m 114.7,17.4 c 0,1.7 0,3.6 1.6,5 0.8,0.7 2.2,1.2 3.4,1.2 1.1,0 2.5,-0.5 3.4,-1.2 1.6,-1.4 1.6,-3.2 1.6,-5 V 4.9 H 127 V 18 c 0,1.7 -0.2,3.4 -1.3,4.9 -1.2,1.7 -3.4,2.8 -6,2.8 -2.6,0 -4.7,-1.1 -6,-2.8 -1.1,-1.5 -1.3,-3.2 -1.3,-4.9 V 4.9 h 2.3 z"
   class="st1" />
		</g>
		<path
   style="fill:#e0c490;fill-opacity:1"
   id="path1343"
   d="m 137.4,9.8 c -4.6,0 -8,3.5 -8,8.2 0,4.7 3.4,8.2 8,8.2 4.6,0 8,-3.5 8,-8.2 0,-4.7 -3.3,-8.2 -8,-8.2 z m 0,14 c -2.7,0 -5.3,-2 -5.3,-5.8 0,-3.8 2.6,-5.8 5.3,-5.8 2.8,0 5.3,2 5.3,5.8 0.1,3.8 -2.5,5.8 -5.3,5.8 z"
   class="st1" />
		<polygon
   style="fill:#e0c490;fill-opacity:1"
   id="polygon1345"
   points="41.2,4.7 40.3,7.9 40.3,22.1 41.2,25.3 37.7,25.3 38.6,22.1 38.6,7.9 37.7,4.7 "
   class="st1" />
		<g
   style="fill:#e0c490;fill-opacity:1"
   id="g1359">
			<path
   style="fill:#e0c490;fill-opacity:1"
   id="path1347"
   d="m 197.1,26.9 c -0.2,-0.2 -0.5,-0.5 -0.9,-0.6 -0.4,-0.2 -0.8,-0.3 -1.1,-0.3 -1.5,0 -2.7,1.2 -2.7,2.8 0,1.8 1.5,2.7 2.7,2.7 0.4,0 0.9,-0.1 1.2,-0.3 0.4,-0.2 0.6,-0.4 0.8,-0.6 v 0.9 c -0.7,0.5 -1.5,0.6 -2,0.6 -2,0 -3.4,-1.5 -3.4,-3.4 0,-2 1.5,-3.5 3.5,-3.5 0.4,0 1.2,0.1 2,0.7 v 1 z"
   class="st1" />
			<path
   style="fill:#e0c490;fill-opacity:1"
   id="path1349"
   d="m 198.1,28.8 c 0,-2 1.5,-3.4 3.5,-3.4 1.9,0 3.5,1.5 3.5,3.4 0,2 -1.5,3.4 -3.5,3.4 -2,0 -3.5,-1.5 -3.5,-3.4 z m 0.8,0 c 0,1.5 1.2,2.7 2.7,2.7 1.5,0 2.7,-1.2 2.7,-2.7 0,-1.5 -1.2,-2.7 -2.7,-2.7 -1.5,0 -2.7,1.1 -2.7,2.7 z"
   class="st1" />
			<path
   style="fill:#e0c490;fill-opacity:1"
   id="path1351"
   d="M 209.9,30.2 H 207 l -0.8,1.9 h -0.8 l 3.1,-7 3,7 h -0.8 z m -0.3,-0.7 -1.1,-2.7 -1.1,2.7 z"
   class="st1" />
			<path
   style="fill:#e0c490;fill-opacity:1"
   id="path1353"
   d="m 213.5,25.4 c 0.5,0 1.1,0 1.6,0.4 0.4,0.3 0.7,0.8 0.7,1.5 0,1 -0.7,1.8 -1.7,1.8 l 2.1,3 h -0.9 l -2,-2.9 h -0.2 v 2.9 h -0.7 v -6.7 z m -0.3,3.1 h 0.5 c 0.9,0 1.5,-0.4 1.5,-1.2 0,-0.4 -0.1,-0.7 -0.5,-1 -0.3,-0.2 -0.6,-0.2 -1,-0.2 h -0.4 v 2.4 z"
   class="st1" />
			<path
   style="fill:#e0c490;fill-opacity:1"
   id="path1355"
   d="m 220.4,26.7 c -0.1,-0.2 -0.2,-0.4 -0.4,-0.5 -0.1,-0.1 -0.4,-0.2 -0.8,-0.2 -0.7,0 -1.1,0.4 -1.1,1 0,0.3 0.1,0.4 0.3,0.6 0.2,0.2 0.4,0.3 0.7,0.4 l 0.6,0.3 c 0.4,0.2 0.8,0.4 1,0.6 0.3,0.3 0.5,0.7 0.5,1.2 0,1.2 -0.9,2 -2.1,2 -0.4,0 -1,-0.1 -1.4,-0.5 -0.3,-0.3 -0.5,-0.8 -0.6,-1.2 l 0.7,-0.2 c 0.1,0.3 0.2,0.6 0.4,0.8 0.3,0.3 0.6,0.4 1,0.4 0.9,0 1.3,-0.6 1.3,-1.3 0,-0.3 -0.1,-0.6 -0.3,-0.8 -0.2,-0.2 -0.5,-0.3 -0.8,-0.5 l -0.6,-0.3 c -0.3,-0.1 -0.6,-0.3 -0.9,-0.5 -0.3,-0.3 -0.5,-0.6 -0.5,-1.1 0,-1 0.8,-1.7 1.9,-1.7 0.4,0 0.7,0.1 1.1,0.3 0.3,0.2 0.5,0.4 0.7,0.7 z"
   class="st1" />
			<path
   style="fill:#e0c490;fill-opacity:1"
   id="path1357"
   d="m 226.1,26.1 h -2.7 v 2 h 2.6 v 0.7 h -2.6 v 2.6 h 2.7 v 0.7 h -3.5 v -6.7 h 3.5 z"
   class="st1" />
		</g>
		<g
   style="fill:#e0c490;fill-opacity:1"
   id="g1373">
			<polygon
   style="fill:#e0c490;fill-opacity:1"
   id="polygon1361"
   points="121.3,164 122.4,164 122.4,170 123.1,170 123.1,163.3 121.6,163.3 "
   class="st1" />
			<polygon
   style="fill:#e0c490;fill-opacity:1"
   id="polygon1363"
   points="128.2,168.4 126.3,163.3 125.5,163.3 128.2,170.4 130.9,163.3 130.1,163.3 "
   class="st1" />
			<polygon
   style="fill:#e0c490;fill-opacity:1"
   id="polygon1365"
   points="136.7,162.7 136.1,162.4 131,171.7 131.5,172 "
   class="st1" />
			<path
   style="fill:#e0c490;fill-opacity:1"
   id="path1367"
   d="m 140.8,163.2 c -1.9,0 -3.5,1.5 -3.5,3.4 0,2 1.5,3.4 3.5,3.4 1.9,0 3.5,-1.5 3.5,-3.4 0,-1.9 -1.5,-3.4 -3.5,-3.4 z m 0,6.2 c -1.5,0 -2.7,-1.2 -2.7,-2.7 0,-1.5 1.2,-2.7 2.7,-2.7 1.5,0 2.7,1.2 2.7,2.7 0,1.5 -1.2,2.7 -2.7,2.7 z"
   class="st1" />
			<path
   style="fill:#e0c490;fill-opacity:1"
   id="path1369"
   d="m 145.3,166.7 c 0,1.9 1.5,3.4 3.4,3.4 0.5,0 1.3,-0.1 2,-0.6 v -0.9 c -0.1,0.1 -0.4,0.4 -0.8,0.6 -0.3,0.2 -0.8,0.3 -1.2,0.3 -1.2,0 -2.7,-0.9 -2.7,-2.7 0,-1.5 1.1,-2.8 2.7,-2.8 0.4,0 0.8,0.1 1.1,0.3 0.3,0.2 0.7,0.4 0.9,0.6 V 164 c -0.8,-0.6 -1.6,-0.7 -2,-0.7 -1.9,-0.1 -3.4,1.4 -3.4,3.4 z"
   class="st1" />
			<polygon
   style="fill:#e0c490;fill-opacity:1"
   id="polygon1371"
   points="155.4,164 155.4,163.3 151.4,163.3 151.4,164 153,164 153,170 153.8,170 153.8,164 "
   class="st1" />
		</g>
		<g
   style="fill:#e0c490;fill-opacity:1"
   id="g1377">
			<path
   style="fill:#e0c490;fill-opacity:1"
   id="path1375"
   d="m 138.3,206.1 c -8.9,0 -16.1,-7.2 -16.1,-16.1 0,-8.9 7.2,-16.1 16.1,-16.1 8.9,0 16.1,7.2 16.1,16.1 0,8.9 -7.2,16.1 -16.1,16.1 z m 0,-31.2 c -8.3,0 -15.1,6.8 -15.1,15.1 0,8.3 6.8,15.1 15.1,15.1 8.3,0 15.1,-6.8 15.1,-15.1 0,-8.3 -6.7,-15.1 -15.1,-15.1 z"
   class="st1" />
		</g>
		<g
   style="fill:#e0c490;fill-opacity:1"
   id="g1389">
			<path
   style="fill:#e0c490;fill-opacity:1"
   id="path1379"
   d="m 141.5,213.1 v 6 h 1.8 v 0.7 h -2.6 v -6.7 z"
   class="st1" />
			<path
   style="fill:#e0c490;fill-opacity:1"
   id="path1381"
   d="m 145.1,213.1 v 6.7 h -0.7 v -6.7 z"
   class="st1" />
			<path
   style="fill:#e0c490;fill-opacity:1"
   id="path1383"
   d="m 146.8,219.7 v -6.9 l 5.2,5.4 V 213 h 0.7 v 7 l -5.2,-5.4 v 5.1 z"
   class="st1" />
			<path
   style="fill:#e0c490;fill-opacity:1"
   id="path1385"
   d="m 144.2,225.8 h -2.3 v 2 h 2.2 v 0.7 h -2.2 v 3.3 h -0.7 v -6.7 h 3 z"
   class="st1" />
			<path
   style="fill:#e0c490;fill-opacity:1"
   id="path1387"
   d="m 145.2,231.7 1.1,-7 2.6,5.6 2.6,-5.6 1,7 h -0.8 l -0.6,-4.6 -2.3,4.9 -2.2,-4.9 -0.7,4.6 z"
   class="st1" />
		</g>
		<g
   style="fill:#e0c490;fill-opacity:1"
   id="g1399">
			<path
   style="fill:#e0c490;fill-opacity:1"
   id="path1391"
   d="m 213.2,130.6 h -2.3 v 2 h 2.2 v 0.7 h -2.2 v 3.3 h -0.7 v -6.7 h 3 z"
   class="st1" />
			<path
   style="fill:#e0c490;fill-opacity:1"
   id="path1393"
   d="m 215.3,129.9 v 6.7 h -0.7 v -6.7 z"
   class="st1" />
			<path
   style="fill:#e0c490;fill-opacity:1"
   id="path1395"
   d="m 217,136.5 v -6.9 l 5.2,5.4 v -5.2 h 0.7 v 7 l -5.2,-5.4 v 5.1 z"
   class="st1" />
			<path
   style="fill:#e0c490;fill-opacity:1"
   id="path1397"
   d="m 228.1,130.6 h -2.7 v 2 h 2.6 v 0.7 h -2.6 v 2.6 h 2.7 v 0.7 h -3.5 v -6.7 h 3.5 z"
   class="st1" />
		</g>
		<g
   style="fill:#e0c490;fill-opacity:1"
   id="g1411">
			<path
   style="fill:#e0c490;fill-opacity:1"
   id="path1401"
   d="m 40.1,114.6 v 6 H 42 v 0.7 h -2.6 v -6.7 z"
   class="st1" />
			<path
   style="fill:#e0c490;fill-opacity:1"
   id="path1403"
   d="m 46.4,115.3 h -2.7 v 2 h 2.6 v 0.7 h -2.6 v 2.6 h 2.7 v 0.7 H 43 v -6.7 h 3.5 v 0.7 z"
   class="st1" />
			<path
   style="fill:#e0c490;fill-opacity:1"
   id="path1405"
   d="m 47.8,114.6 1.9,5.1 1.9,-5.1 h 0.8 l -2.7,7.1 -2.7,-7.1 z"
   class="st1" />
			<path
   style="fill:#e0c490;fill-opacity:1"
   id="path1407"
   d="m 56.8,115.3 h -2.7 v 2 h 2.6 v 0.7 h -2.6 v 2.6 h 2.7 v 0.7 h -3.5 v -6.7 h 3.5 z"
   class="st1" />
			<path
   style="fill:#e0c490;fill-opacity:1"
   id="path1409"
   d="m 58.9,114.6 v 6 h 1.8 v 0.7 h -2.6 v -6.7 z"
   class="st1" />
		</g>
		<g
   style="fill:#e0c490;fill-opacity:1"
   id="g1419">
			<path
   style="fill:#e0c490;fill-opacity:1"
   id="path1413"
   d="m 28,56.7 c 0,-2 1.5,-3.4 3.5,-3.4 1.9,0 3.5,1.5 3.5,3.4 0,2 -1.5,3.4 -3.5,3.4 -2,0 -3.5,-1.4 -3.5,-3.4 z m 0.8,0 c 0,1.5 1.2,2.7 2.7,2.7 1.5,0 2.7,-1.2 2.7,-2.7 C 34.2,55.2 33,54 31.5,54 30,53.9 28.8,55.2 28.8,56.7 Z"
   class="st1" />
			<path
   style="fill:#e0c490;fill-opacity:1"
   id="path1415"
   d="m 37,57.4 c 0,0.6 0,1.2 0.5,1.6 0.3,0.2 0.7,0.4 1.1,0.4 0.4,0 0.8,-0.1 1.1,-0.4 0.5,-0.4 0.5,-1.1 0.5,-1.6 V 53.3 H 41 v 4.3 c 0,0.6 -0.1,1.1 -0.4,1.6 -0.4,0.5 -1.1,0.9 -1.9,0.9 -0.8,0 -1.6,-0.4 -1.9,-0.9 -0.4,-0.5 -0.4,-1 -0.4,-1.6 V 53.3 H 37 Z"
   class="st1" />
			<path
   style="fill:#e0c490;fill-opacity:1"
   id="path1417"
   d="m 44.4,54 v 6 H 43.7 V 54 H 42 v -0.7 h 4 V 54 Z"
   class="st1" />
		</g>
		<g
   style="fill:#e0c490;fill-opacity:1"
   id="HATCH_1_">
			<path
   style="fill:#e0c490;fill-opacity:1"
   id="path1421"
   d="m 124.8,278.3 c -10.5,-7.5 -12.9,-22.1 -5.4,-32.5 4.8,-6.7 12.5,-10.3 20.7,-9.7 l 3.5,0.5 c 7.1,0.5 13.9,-2.7 18.1,-8.5 1.3,-1.9 2.4,-4 3,-6.2 l 0.8,-4.6 c 0.9,-3.6 2.5,-6.9 4.6,-9.9 9.5,-13.3 28.1,-16.4 41.4,-6.9 13.3,9.5 16.4,28.1 6.9,41.4 -7,9.8 -19.1,14.3 -30.8,11.7 l -3.7,-1.1 c -7.8,-1.6 -16,1.6 -20.7,8.2 -1,1.3 -1.7,2.8 -2.3,4.3 l -0.9,3 c -0.7,1.8 -1.6,3.4 -2.7,4.9 -7.5,10.5 -22.1,12.9 -32.5,5.4 z m 85.1,-75.4 c -12.1,-8.6 -28.9,-5.8 -37.5,6.2 -2,2.7 -3.4,5.7 -4.2,8.9 l -0.8,4.7 c -0.7,2.6 -1.9,5 -3.4,7.1 -4.8,6.7 -12.5,10.3 -20.7,9.7 l -3.5,-0.5 c -7.1,-0.5 -13.9,2.7 -18.1,8.5 -6.6,9.2 -4.5,22 4.7,28.6 9.2,6.6 22,4.5 28.6,-4.7 1,-1.3 1.7,-2.8 2.3,-4.3 l 0.9,-3 c 0.7,-1.8 1.6,-3.4 2.7,-4.9 5.4,-7.5 14.7,-11.1 23.7,-9.3 l 3.7,1.1 c 10.5,2.4 21.4,-1.8 27.8,-10.6 8.6,-12.1 5.9,-28.9 -6.2,-37.5 z"
   class="st1" />
		</g>
		<g
   style="fill:#e0c490;fill-opacity:1"
   id="g1436">
			<path
   style="fill:#e0c490;fill-opacity:1"
   id="path1424"
   d="m 42.2,310.8 v 6.7 h -0.7 v -6.7 z"
   class="st1" />
			<path
   style="fill:#e0c490;fill-opacity:1"
   id="path1426"
   d="m 43.9,317.4 v -6.9 l 5.2,5.4 v -5.2 h 0.7 v 7 l -5.2,-5.4 v 5.1 z"
   class="st1" />
			<path
   style="fill:#e0c490;fill-opacity:1"
   id="path1428"
   d="m 52.7,310.8 c 0.7,0 1.2,0.1 1.7,0.5 0.5,0.4 0.6,1 0.6,1.4 0,0.9 -0.6,1.9 -2.1,1.9 h -0.6 v 2.9 h -0.7 v -6.7 z m -0.4,3 h 0.6 c 0.9,0 1.4,-0.4 1.4,-1.2 0,-1.1 -1,-1.2 -1.5,-1.2 h -0.5 z"
   class="st1" />
			<path
   style="fill:#e0c490;fill-opacity:1"
   id="path1430"
   d="m 56.8,314.9 c 0,0.6 0,1.2 0.5,1.6 0.3,0.2 0.7,0.4 1.1,0.4 0.4,0 0.8,-0.1 1.1,-0.4 0.5,-0.5 0.5,-1.1 0.5,-1.6 v -4.1 h 0.7 v 4.3 c 0,0.6 -0.1,1.1 -0.4,1.6 -0.4,0.5 -1.1,0.9 -1.9,0.9 -0.8,0 -1.5,-0.3 -1.9,-0.9 -0.4,-0.5 -0.4,-1 -0.4,-1.6 v -4.3 h 0.7 z"
   class="st1" />
			<path
   style="fill:#e0c490;fill-opacity:1"
   id="path1432"
   d="m 64.2,311.5 v 6 h -0.7 v -6 h -1.6 v -0.7 h 4 v 0.7 z"
   class="st1" />
			<path
   style="fill:#e0c490;fill-opacity:1"
   id="path1434"
   d="m 69.5,312.1 c -0.1,-0.2 -0.2,-0.4 -0.4,-0.5 -0.1,-0.1 -0.4,-0.2 -0.7,-0.2 -0.7,0 -1.1,0.4 -1.1,1 0,0.3 0.1,0.4 0.3,0.6 0.2,0.2 0.4,0.3 0.7,0.4 l 0.6,0.3 c 0.4,0.2 0.7,0.3 1,0.6 0.3,0.3 0.5,0.7 0.5,1.2 0,1.2 -0.9,2 -2.1,2 -0.4,0 -1,-0.1 -1.4,-0.5 -0.3,-0.3 -0.5,-0.8 -0.6,-1.2 l 0.7,-0.2 c 0.1,0.3 0.2,0.6 0.4,0.8 0.3,0.3 0.6,0.4 1,0.4 0.9,0 1.3,-0.6 1.3,-1.3 0,-0.3 -0.1,-0.6 -0.3,-0.8 -0.2,-0.2 -0.4,-0.3 -0.8,-0.5 L 68,313.9 c -0.3,-0.1 -0.6,-0.3 -0.9,-0.5 -0.3,-0.3 -0.5,-0.6 -0.5,-1.1 0,-1 0.8,-1.7 1.9,-1.7 0.4,0 0.7,0.1 1.1,0.3 0.3,0.2 0.5,0.5 0.6,0.7 z"
   class="st1" />
		</g>
		<g
   style="fill:#e0c490;fill-opacity:1"
   id="g1456">
			<path
   style="fill:#e0c490;fill-opacity:1"
   id="path1438"
   d="m 168.3,327.5 c 0.5,0 1.1,0 1.6,0.4 0.4,0.3 0.7,0.8 0.7,1.5 0,1 -0.7,1.8 -1.7,1.8 l 2.1,3 h -0.9 l -2,-2.9 h -0.2 v 2.9 h -0.7 v -6.7 z m -0.4,3.1 h 0.5 c 0.9,0 1.5,-0.4 1.5,-1.2 0,-0.4 -0.1,-0.7 -0.5,-1 -0.3,-0.2 -0.6,-0.2 -1,-0.2 H 168 v 2.4 z"
   class="st1" />
			<path
   style="fill:#e0c490;fill-opacity:1"
   id="path1440"
   d="M 175.7,328.2 H 173 v 2 h 2.6 v 0.7 H 173 v 2.6 h 2.7 v 0.7 h -3.5 v -6.7 h 3.5 z"
   class="st1" />
			<path
   style="fill:#e0c490;fill-opacity:1"
   id="path1442"
   d="m 180,328.8 c -0.1,-0.2 -0.2,-0.4 -0.4,-0.5 -0.1,-0.1 -0.4,-0.2 -0.8,-0.2 -0.7,0 -1.1,0.4 -1.1,1 0,0.3 0.1,0.4 0.3,0.6 0.2,0.2 0.4,0.3 0.7,0.4 l 0.6,0.3 c 0.4,0.2 0.8,0.3 1,0.6 0.3,0.3 0.5,0.7 0.5,1.2 0,1.2 -0.9,2 -2.1,2 -0.4,0 -1,-0.1 -1.4,-0.5 -0.3,-0.3 -0.5,-0.8 -0.6,-1.2 l 0.7,-0.2 c 0,0.3 0.2,0.6 0.4,0.8 0.3,0.3 0.6,0.4 1,0.4 0.9,0 1.3,-0.6 1.3,-1.3 0,-0.3 -0.1,-0.6 -0.3,-0.8 -0.2,-0.2 -0.4,-0.3 -0.8,-0.5 l -0.6,-0.3 c -0.3,-0.1 -0.6,-0.3 -0.9,-0.5 -0.3,-0.3 -0.5,-0.6 -0.5,-1.1 0,-1 0.8,-1.7 1.9,-1.7 0.4,0 0.7,0.1 1.1,0.3 0.3,0.2 0.5,0.5 0.6,0.7 z"
   class="st1" />
			<path
   style="fill:#e0c490;fill-opacity:1"
   id="path1444"
   d="m 181.9,330.8 c 0,-2 1.5,-3.4 3.5,-3.4 1.9,0 3.5,1.5 3.5,3.4 0,2 -1.5,3.4 -3.5,3.4 -2,0.1 -3.5,-1.4 -3.5,-3.4 z m 0.7,0 c 0,1.5 1.2,2.7 2.7,2.7 1.5,0 2.7,-1.2 2.7,-2.7 0,-1.5 -1.2,-2.7 -2.7,-2.7 -1.5,0 -2.7,1.2 -2.7,2.7 z"
   class="st1" />
			<path
   style="fill:#e0c490;fill-opacity:1"
   id="path1446"
   d="m 190.2,334.2 v -6.9 l 5.2,5.4 v -5.2 h 0.7 v 7 l -5.2,-5.4 v 5.1 z"
   class="st1" />
			<path
   style="fill:#e0c490;fill-opacity:1"
   id="path1448"
   d="m 201.5,332.3 h -2.8 l -0.8,1.9 H 197 l 3.1,-7 3,7 h -0.8 z m -0.3,-0.7 -1.1,-2.7 -1.1,2.7 z"
   class="st1" />
			<path
   style="fill:#e0c490;fill-opacity:1"
   id="path1450"
   d="m 204,334.2 v -6.9 l 5.2,5.4 v -5.2 h 0.7 v 7 l -5.2,-5.4 v 5.1 z"
   class="st1" />
			<path
   style="fill:#e0c490;fill-opacity:1"
   id="path1452"
   d="m 216.8,329 c -0.2,-0.2 -0.5,-0.5 -0.9,-0.6 -0.3,-0.2 -0.8,-0.3 -1.1,-0.3 -1.5,0 -2.7,1.2 -2.7,2.8 0,1.8 1.5,2.7 2.7,2.7 0.4,0 0.9,-0.1 1.2,-0.3 0.4,-0.2 0.6,-0.4 0.8,-0.6 v 0.9 c -0.7,0.5 -1.5,0.6 -2,0.6 -2,0 -3.4,-1.5 -3.4,-3.4 0,-2 1.5,-3.5 3.5,-3.5 0.4,0 1.2,0 2,0.7 v 1 z"
   class="st1" />
			<path
   style="fill:#e0c490;fill-opacity:1"
   id="path1454"
   d="m 221.6,328.2 h -2.7 v 2 h 2.6 v 0.7 h -2.6 v 2.6 h 2.7 v 0.7 h -3.5 v -6.7 h 3.5 z"
   class="st1" />
		</g>
		<g
   style="fill:#e0c490;fill-opacity:1"
   id="g1468">
			<path
   style="fill:#e0c490;fill-opacity:1"
   id="path1458"
   d="m 43.4,168.7 1.1,-7 2.6,5.6 2.6,-5.6 1,7 H 50 l -0.6,-4.6 -2.3,4.9 -2.2,-4.9 -0.7,4.6 z"
   class="st1" />
			<path
   style="fill:#e0c490;fill-opacity:1"
   id="path1460"
   d="m 53,162 v 6.7 H 52.3 V 162 Z"
   class="st1" />
			<path
   style="fill:#e0c490;fill-opacity:1"
   id="path1462"
   d="M 56,165.2 54.2,162 H 55 l 1.4,2.5 1.4,-2.5 h 0.8 l -1.8,3.2 1.9,3.4 H 58 l -1.5,-2.7 -1.5,2.7 h -1 z"
   class="st1" />
			<path
   style="fill:#e0c490;fill-opacity:1"
   id="path1464"
   d="m 63.3,162.7 h -2.7 v 2 h 2.6 v 0.7 h -2.6 v 2.6 h 2.7 v 0.7 H 59.8 V 162 h 3.5 z"
   class="st1" />
			<path
   style="fill:#e0c490;fill-opacity:1"
   id="path1466"
   d="m 65.7,162 c 0.5,0 1.1,0 1.6,0.4 0.4,0.3 0.7,0.8 0.7,1.5 0,1 -0.7,1.8 -1.7,1.8 l 2.1,3 h -0.9 l -2,-2.9 h -0.2 v 2.9 H 64.6 V 162 Z m -0.3,3.1 h 0.5 c 0.9,0 1.5,-0.4 1.5,-1.2 0,-0.4 -0.1,-0.7 -0.5,-1 -0.3,-0.2 -0.6,-0.2 -1,-0.2 h -0.4 v 2.4 z"
   class="st1" />
		</g>
		<g
   style="fill:#e0c490;fill-opacity:1"
   id="g1482">
			<path
   style="fill:#e0c490;fill-opacity:1"
   id="path1470"
   d="m 87.3,347.3 v 9.7 h -2 v -9.7 h -1.2 v -1.8 h 1.2 v -4.2 h 2 v 4.2 h 2 v 1.8 z"
   class="st1" />
			<path
   style="fill:#e0c490;fill-opacity:1"
   id="path1472"
   d="m 91.2,345.5 h 2 v 1.2 c 0.2,-0.3 1.1,-1.5 2.6,-1.5 0.6,0 1.3,0.2 1.8,0.5 l -0.9,1.8 c -0.4,-0.3 -0.9,-0.4 -1.2,-0.4 -0.8,0 -1.3,0.3 -1.6,0.7 -0.3,0.4 -0.7,1.2 -0.7,3.1 v 6.1 h -2 z"
   class="st1" />
			<path
   style="fill:#e0c490;fill-opacity:1"
   id="path1474"
   d="m 107.6,345.5 h 2 V 357 h -2 v -1.6 c -0.7,0.9 -1.9,1.9 -3.9,1.9 -2.9,0 -5.6,-2 -5.6,-6.1 0,-4 2.7,-6 5.6,-6 2.2,0 3.4,1.2 3.9,1.9 z m -7.5,-6 2.1,-0.9 2.9,4 -1.2,0.7 z m 0,11.7 c 0,2.5 1.4,4.3 3.8,4.3 2.4,0 3.8,-2 3.8,-4.3 0,-3 -2,-4.3 -3.8,-4.3 -2,0.1 -3.8,1.5 -3.8,4.3 z"
   class="st1" />
			<path
   style="fill:#e0c490;fill-opacity:1"
   id="path1476"
   d="m 114.4,339.7 c 0.8,0 1.4,0.6 1.4,1.4 0,0.8 -0.6,1.4 -1.4,1.4 -0.8,0 -1.4,-0.6 -1.4,-1.4 -0.1,-0.7 0.6,-1.4 1.4,-1.4 z m 1,5.8 V 357 h -2 v -11.5 z"
   class="st1" />
			<path
   style="fill:#e0c490;fill-opacity:1"
   id="path1478"
   d="m 127.9,345.5 h 2 v 11.2 c 0,1.2 0,3 -1.1,4.5 -0.9,1.2 -2.4,2.1 -4.6,2.1 -2,0 -3.3,-0.8 -4.1,-1.6 -0.8,-0.8 -1.5,-2 -1.5,-3.7 h 2 c 0,1 0.4,1.8 0.9,2.4 0.8,0.9 1.9,1.1 2.8,1.1 1.4,0 2.4,-0.5 3,-1.6 0.6,-0.9 0.6,-2 0.6,-2.9 v -1.7 c -0.7,0.9 -1.9,1.9 -3.9,1.9 -1.7,0 -3,-0.7 -3.9,-1.6 -0.8,-0.8 -1.7,-2.2 -1.7,-4.5 0,-2.2 0.8,-3.6 1.7,-4.5 1,-0.9 2.4,-1.6 3.9,-1.6 1.7,0 3,0.7 3.9,1.9 z m -6.3,2.6 c -1,1 -1.2,2.2 -1.2,3.2 0,1 0.2,2.4 1.3,3.4 0.6,0.6 1.4,0.9 2.5,0.9 1.1,0 1.9,-0.3 2.5,-1 0.8,-0.7 1.3,-2 1.3,-3.3 0,-1.4 -0.5,-2.5 -1.2,-3.2 -0.6,-0.6 -1.6,-1 -2.6,-1 -1.2,-0.1 -2,0.4 -2.6,1 z"
   class="st1" />
			<path
   style="fill:#e0c490;fill-opacity:1"
   id="path1480"
   d="m 133.7,336.8 h 2 v 10 c 0.4,-0.5 1.4,-1.6 3.3,-1.6 1.4,0 2.6,0.6 3.3,1.6 0.6,0.9 0.7,1.8 0.7,3.1 v 7.1 h -2 v -7.1 c 0,-0.7 -0.1,-1.5 -0.5,-2.1 -0.4,-0.5 -1,-0.8 -1.9,-0.8 -0.7,0 -1.4,0.2 -2,0.9 -0.8,0.9 -0.8,2.3 -0.8,3.1 v 6 h -2 v -20.2 z"
   class="st1" />
		</g>
		<path
   style="fill:#e0c490;fill-opacity:1"
   id="path1484"
   d="m 46.6,175.3 v 93.5 h 7.7 v 14.4 c 0.5,-0.1 1,-0.1 1.5,-0.1 0.5,0 1,0 1.5,0.1 V 268.8 H 65 V 175.3 Z M 62,265.8 H 49.6 V 178.3 H 62 Z"
   class="st1" />
		<path
   style="fill:#e0c490;fill-opacity:1"
   id="path1486"
   d="m 10.6,175.3 v 93.5 h 7.7 v 14.4 c 0.5,-0.1 1,-0.1 1.5,-0.1 0.5,0 1,0 1.5,0.1 V 268.8 H 29 V 175.3 Z M 26,265.8 H 13.6 V 178.3 H 26 Z"
   class="st1" />
		<path
   style="fill:#e0c490;fill-opacity:1"
   id="path1488"
   d="m 82.6,175.3 v 93.5 h 7.7 v 14.4 c 0.5,-0.1 1,-0.1 1.5,-0.1 0.5,0 1,0 1.5,0.1 V 268.8 H 101 V 175.3 Z M 98,265.8 H 85.6 V 178.3 H 98 Z"
   class="st1" />
		<path
   style="fill:#e0c490;fill-opacity:1"
   id="path1490"
   d="M 64.7,43.6 V 74.8 H 46.6 c 0.1,0.5 0.1,1 0.1,1.5 0,0.5 0,1 -0.1,1.5 h 18.1 v 59.4 H 83 V 43.6 Z M 80,134.1 H 67.7 V 46.6 H 80 Z"
   class="st1" />
		<g
   style="fill:#e0c490;fill-opacity:1"
   id="g1494">
			<rect
   style="fill:#e0c490;fill-opacity:1"
   id="rect1492"
   height="3"
   width="77.800003"
   class="st1"
   y="344"
   x="0" />
		</g>
		<g
   style="fill:#e0c490;fill-opacity:1"
   id="g1500">
			<rect
   style="fill:#e0c490;fill-opacity:1"
   id="rect1496"
   height="3"
   width="81.5"
   class="st1"
   y="344"
   x="148.89999" />
			<rect
   style="fill:#e0c490;fill-opacity:1"
   id="rect1498"
   height="3"
   width="0"
   class="st1"
   y="344"
   x="148.89999" />
		</g>
		<rect
   style="fill:#e0c490;fill-opacity:1"
   id="rect1502"
   height="2.3"
   width="16.299999"
   class="st1"
   y="4.8000002"
   x="129.3" />
	</g>
</g>
</svg>
