<?xml version="1.0" encoding="UTF-8" standalone="no"?>
<svg
   xmlns:dc="http://purl.org/dc/elements/1.1/"
   xmlns:cc="http://creativecommons.org/ns#"
   xmlns:rdf="http://www.w3.org/1999/02/22-rdf-syntax-ns#"
   xmlns:svg="http://www.w3.org/2000/svg"
   xmlns="http://www.w3.org/2000/svg"
   xmlns:sodipodi="http://sodipodi.sourceforge.net/DTD/sodipodi-0.dtd"
   xmlns:inkscape="http://www.inkscape.org/namespaces/inkscape"
   version="1.1"
   id="Layer_1"
   x="0px"
   y="0px"
   viewBox="0 0 76.8 485.66932"
   xml:space="preserve"
   sodipodi:docname="vinca.svg"
   width="20.32mm"
   height="128.5mm"
   inkscape:version="1.0 (4035a4f, 2020-05-01)"><metadata
   id="metadata1056"><rdf:RDF><cc:Work
       rdf:about=""><dc:format>image/svg+xml</dc:format><dc:type
         rdf:resource="http://purl.org/dc/dcmitype/StillImage" /><dc:title /></cc:Work></rdf:RDF></metadata><defs
   id="defs1054" /><sodipodi:namedview
   inkscape:document-rotation="0"
   pagecolor="#FDDEA2fff"
   bordercolor="#666666"
   borderopacity="1"
   objecttolerance="10"
   gridtolerance="10"
   guidetolerance="10"
   inkscape:pageopacity="0"
   inkscape:pageshadow="2"
   inkscape:window-width="1414"
   inkscape:window-height="855"
   id="namedview1052"
   showgrid="false"
   inkscape:document-units="mm"
   units="mm"
   inkscape:zoom="1.1445917"
   inkscape:cx="-3.6347237"
   inkscape:cy="221.33362"
   inkscape:window-x="0"
   inkscape:window-y="23"
   inkscape:window-maximized="0"
   inkscape:current-layer="Layer_1" />
<style
   type="text/css"
   id="style833">
	.st0{fill:#401B5C;}
	.st1{fill:#E0C490;}
	.st2{fill:none;stroke:#FABC67;stroke-width:3;stroke-miterlimit:10;}
</style>
<g
   id="g839"
   transform="scale(1.3333335,1.3331577)"
   style="fill:#401B5C;fill-opacity:1">
	<g
   id="g837"
   style="fill:#401B5C;fill-opacity:1">
		<rect
   y="0"
   class="st0"
   width="57.599998"
   height="364.29999"
   id="rect835"
   x="0"
   style="fill:#401B5C;fill-opacity:1" />
	</g>
</g>
<g
   id="g1049"
   transform="scale(1.3333335,1.3331577)"
   style="fill:#e0c490;fill-opacity:1">
	<g
   id="g843"
   style="fill:#e0c490;fill-opacity:1">
		<path
   class="st1"
   d="m 54.1,353.4 h 1 v 5.6 h -1 v -0.8 c -0.3,0.4 -0.9,0.9 -1.9,0.9 -1.4,0 -2.7,-1 -2.7,-3 0,-1.9 1.3,-2.9 2.7,-2.9 1.1,0 1.7,0.6 1.9,0.9 z m -3.7,2.8 c 0,1.2 0.7,2.1 1.8,2.1 1.2,0 1.9,-1 1.9,-2.1 0,-1.4 -1,-2.1 -1.9,-2.1 -0.9,0 -1.8,0.7 -1.8,2.1 z m 0.7,-3.9 -0.6,-0.5 1.9,-1.6 1.9,1.6 -0.6,0.5 -1.2,-1.1 z"
   id="path841"
   style="fill:#e0c490;fill-opacity:1" />
	</g>
	<g
   id="g847"
   style="fill:#e0c490;fill-opacity:1">
		<path
   class="st1"
   d="M 39.8,305.5 H 17.5 v -122 h 22.3 z m -19.3,-3 h 16.3 v -116 H 20.5 Z"
   id="path845"
   style="fill:#e0c490;fill-opacity:1" />
	</g>
	<g
   id="g869"
   style="fill:#e0c490;fill-opacity:1">
		<g
   id="g851"
   style="fill:#e0c490;fill-opacity:1">
			<path
   class="st1"
   d="m 11.2,25.3 v -8.2 l 6.1,6.4 v -6.1 h 0.9 v 8.2 l -6.1,-6.4 v 6.1 z"
   id="path849"
   style="fill:#e0c490;fill-opacity:1" />
		</g>
		<g
   id="g855"
   style="fill:#e0c490;fill-opacity:1">
			<path
   class="st1"
   d="M 23.8,18.9 C 23.7,18.7 23.5,18.5 23.3,18.3 23.1,18.2 22.9,18 22.4,18 c -0.8,0 -1.3,0.5 -1.3,1.2 0,0.3 0.1,0.5 0.3,0.7 0.2,0.2 0.5,0.4 0.8,0.5 l 0.8,0.3 c 0.5,0.2 0.9,0.4 1.2,0.7 0.4,0.4 0.6,0.9 0.6,1.4 0,1.4 -1.1,2.4 -2.5,2.4 -0.5,0 -1.2,-0.1 -1.7,-0.6 C 20.2,24.2 20,23.7 19.9,23.2 L 20.7,23 c 0.1,0.4 0.2,0.8 0.5,1 0.3,0.3 0.7,0.4 1.1,0.4 1.1,0 1.6,-0.8 1.6,-1.6 0,-0.4 -0.1,-0.7 -0.4,-0.9 -0.2,-0.2 -0.5,-0.4 -0.9,-0.5 l -0.7,-0.3 c -0.3,-0.1 -0.7,-0.3 -1,-0.6 -0.3,-0.3 -0.5,-0.7 -0.5,-1.3 0,-1.2 0.9,-2 2.2,-2 0.5,0 0.9,0.1 1.3,0.4 0.3,0.2 0.6,0.5 0.8,0.9 z"
   id="path853"
   style="fill:#e0c490;fill-opacity:1" />
		</g>
		<g
   id="g859"
   style="fill:#e0c490;fill-opacity:1">
			<path
   class="st1"
   d="m 27.8,18.2 v 7 h -0.9 v -7 H 25 v -0.8 h 4.7 v 0.8 z"
   id="path857"
   style="fill:#e0c490;fill-opacity:1" />
		</g>
		<g
   id="g863"
   style="fill:#e0c490;fill-opacity:1">
			<path
   class="st1"
   d="m 32.1,17.4 c 0.5,0 1.3,0 1.9,0.4 0.5,0.3 0.9,0.9 0.9,1.7 0,1.2 -0.8,2.1 -2,2.2 l 2.5,3.5 H 34.3 L 32,21.8 h -0.2 v 3.4 h -0.9 v -7.9 h 1.2 z m -0.3,3.7 h 0.6 c 1.1,0 1.7,-0.5 1.7,-1.4 0,-0.4 -0.1,-0.9 -0.6,-1.2 -0.4,-0.2 -0.8,-0.2 -1.1,-0.2 h -0.5 v 2.8 z"
   id="path861"
   style="fill:#e0c490;fill-opacity:1" />
		</g>
		<g
   id="g867"
   style="fill:#e0c490;fill-opacity:1">
			<path
   class="st1"
   d="m 37.7,22.2 c 0,0.7 0,1.4 0.6,1.9 0.3,0.3 0.9,0.4 1.3,0.4 0.4,0 1,-0.2 1.3,-0.4 0.6,-0.5 0.6,-1.2 0.6,-1.9 v -4.8 h 0.9 v 5.1 c 0,0.7 -0.1,1.3 -0.5,1.9 -0.5,0.6 -1.3,1.1 -2.3,1.1 -1,0 -1.8,-0.4 -2.3,-1.1 -0.4,-0.6 -0.5,-1.2 -0.5,-1.9 v -5.1 h 0.9 z"
   id="path865"
   style="fill:#e0c490;fill-opacity:1" />
		</g>
	</g>
	<g
   id="g873"
   style="fill:#e0c490;fill-opacity:1">
		<path
   class="st1"
   d="m 46.4,19.3 c -1.8,0 -3.1,1.3 -3.1,3.2 0,1.8 1.3,3.2 3.1,3.2 1.8,0 3.1,-1.3 3.1,-3.2 0,-1.9 -1.3,-3.2 -3.1,-3.2 z m 0,5.4 c -1,0 -2.1,-0.8 -2.1,-2.2 0,-1.5 1,-2.2 2.1,-2.2 1.1,0 2.1,0.8 2.1,2.2 0,1.4 -1,2.2 -2.1,2.2 z"
   id="path871"
   style="fill:#e0c490;fill-opacity:1" />
	</g>
	<g
   id="g877"
   style="fill:#e0c490;fill-opacity:1">
		<rect
   x="43.299999"
   y="17.4"
   class="st1"
   width="6.3000002"
   height="0.8FDBB3C8"
   id="rect875"
   style="fill:#e0c490;fill-opacity:1" />
	</g>
	<g
   id="g881"
   style="fill:#e0c490;fill-opacity:1">
		<polygon
   class="st1"
   points="8,17.3 9.4,17.3 9,18.6 9,24 9.4,25.3 8,25.3 8.4,24 8.4,18.6 "
   id="polygon879"
   style="fill:#e0c490;fill-opacity:1" />
	</g>
	<g
   id="g885"
   style="fill:#e0c490;fill-opacity:1">
		<path
   class="st1"
   d="m 33.3,353.4 1.7,3.8 1.7,-3.8 h 1.1 l -2.7,5.9 -2.7,-5.9 z"
   id="path883"
   style="fill:#e0c490;fill-opacity:1" />
	</g>
	<g
   id="g889"
   style="fill:#e0c490;fill-opacity:1">
		<path
   class="st1"
   d="m 38.8,355.8 h 3.6 v 0.6 h -3.6 z"
   id="path887"
   style="fill:#e0c490;fill-opacity:1" />
	</g>
	<g
   id="g893"
   style="fill:#e0c490;fill-opacity:1">
		<path
   class="st1"
   d="m 48.2,355 c -0.5,-0.6 -1.2,-0.8 -1.7,-0.8 -1,0 -2,0.7 -2,2.1 0,1.4 1,2.1 2,2.1 0.6,0 1.3,-0.3 1.8,-0.9 v 1.2 c -0.6,0.4 -1.2,0.6 -1.8,0.6 -1.7,0 -3,-1.2 -3,-2.9 0,-1.7 1.3,-3 3,-3 0.9,0 1.5,0.3 1.7,0.5 z"
   id="path891"
   style="fill:#e0c490;fill-opacity:1" />
	</g>
	<g
   id="g899"
   style="fill:#e0c490;fill-opacity:1">
		<g
   id="g897"
   style="fill:#e0c490;fill-opacity:1">
			<rect
   y="343.29999"
   class="st1"
   width="57.599998"
   height="3"
   id="rect895"
   x="0"
   style="fill:#e0c490;fill-opacity:1" />
		</g>
	</g>
	<g
   id="g905"
   style="fill:#e0c490;fill-opacity:1">
		<path
   class="st1"
   d="m 39.2,350.8 c 0.2,0 0.3,0.1 0.3,0.3 0,0.2 -0.1,0.3 -0.3,0.3 -0.2,0 -0.3,-0.1 -0.3,-0.3 0,-0.2 0.1,-0.3 0.3,-0.3 z m 0.2,1.4 v 2.7 h -0.5 v -2.7 z"
   id="path901"
   style="fill:#e0c490;fill-opacity:1" />
		<path
   class="st1"
   d="m 40.3,352.2 h 0.5 v 0.3 c 0.1,-0.1 0.3,-0.4 0.8,-0.4 0.3,0 0.6,0.1 0.8,0.4 0.1,0.2 0.2,0.4 0.2,0.7 v 1.7 H 42 v -1.6 c 0,-0.2 0,-0.3 -0.1,-0.5 -0.1,-0.1 -0.2,-0.2 -0.4,-0.2 -0.2,0 -0.3,0 -0.5,0.2 -0.2,0.2 -0.2,0.5 -0.2,0.7 v 1.4 h -0.5 z"
   id="path903"
   style="fill:#e0c490;fill-opacity:1" />
	</g>
	<g
   id="g909"
   style="fill:#e0c490;fill-opacity:1">
		<rect
   x="42.299999"
   y="64.800003"
   class="st1"
   width="2"
   height="6"
   id="rect907"
   style="fill:#e0c490;fill-opacity:1" />
	</g>
	<g
   id="g913"
   style="fill:#e0c490;fill-opacity:1">
		<rect
   x="42.299999"
   y="104.5"
   class="st1"
   width="2"
   height="6"
   id="rect911"
   style="fill:#e0c490;fill-opacity:1" />
	</g>
	<g
   id="g917"
   style="fill:#e0c490;fill-opacity:1">
		<rect
   x="42.299999"
   y="143.89999"
   class="st1"
   width="2"
   height="6"
   id="rect915"
   style="fill:#e0c490;fill-opacity:1" />
	</g>
	<g
   id="g929"
   style="fill:#e0c490;fill-opacity:1">
		<g
   id="g921"
   style="fill:#e0c490;fill-opacity:1">
			
				<rect
   x="36.099998"
   y="66.400002"
   transform="matrix(0.8639,-0.5037,0.5037,0.8639,-28.7427,27.4011)"
   class="st1"
   width="0.5"
   height="1"
   id="rect919"
   style="fill:#e0c490;fill-opacity:1" />
		</g>
		<g
   id="g927"
   style="fill:#e0c490;fill-opacity:1">
			<g
   id="g925"
   style="fill:#e0c490;fill-opacity:1">
				<path
   class="st1"
   d="M 36.9,66.6 V 64.5 H 36.8 L 34.9,67 c -0.8,0.7 -1.5,1.4 -2.3,2.1 1,-0.3 2,-0.6 3,-1 l 3.1,-0.5 v -0.1 z"
   id="path923"
   style="fill:#e0c490;fill-opacity:1" />
			</g>
		</g>
	</g>
	<g
   id="g933"
   style="fill:#e0c490;fill-opacity:1">
		<path
   class="st1"
   d="m 56.3,72.7 c -2.1,-2.7 -4.9,-4.9 -8,-6.3 -3.2,-1.4 -6.8,-1.4 -10,0 -3.1,1.4 -5.9,3.6 -8,6.3 l -0.8,-0.6 c 2.2,-2.8 5.1,-5.1 8.4,-6.6 3.4,-1.6 7.4,-1.6 10.8,0 3.3,1.5 6.2,3.8 8.4,6.6 z"
   id="path931"
   style="fill:#e0c490;fill-opacity:1" />
	</g>
	<g
   id="g945"
   style="fill:#e0c490;fill-opacity:1">
		<g
   id="g937"
   style="fill:#e0c490;fill-opacity:1">
			<rect
   x="49.799999"
   y="66.699997"
   transform="matrix(0.5039,-0.8638,0.8638,0.5039,-32.871,76.6886)"
   class="st1"
   width="1"
   height="0.5"
   id="rect935"
   style="fill:#e0c490;fill-opacity:1" />
		</g>
		<g
   id="g943"
   style="fill:#e0c490;fill-opacity:1">
			<g
   id="g941"
   style="fill:#e0c490;fill-opacity:1">
				<path
   class="st1"
   d="m 49.7,66.6 -1.9,1 v 0.1 l 3.1,0.5 c 1,0.3 2,0.6 3,1 -0.8,-0.7 -1.5,-1.4 -2.3,-2.1 l -1.9,-2.5 h -0.1 z"
   id="path939"
   style="fill:#e0c490;fill-opacity:1" />
			</g>
		</g>
	</g>
	<g
   id="g949"
   style="fill:#e0c490;fill-opacity:1">
		<path
   class="st1"
   d="m 42.5,120.1 c -13,0 -24,-0.9 -27.9,-11.4 l 1.9,-0.7 c 3.4,9.3 13.4,10.1 26,10.1 z"
   id="path947"
   style="fill:#e0c490;fill-opacity:1" />
	</g>
	<g
   id="g953"
   style="fill:#e0c490;fill-opacity:1">
		<path
   class="st1"
   d="m 30.1,185 h -3 c 0,-15 4.7,-23.3 15.7,-27.7 l 1.1,2.8 C 34.1,164 30.1,171.2 30.1,185 Z"
   id="path951"
   style="fill:#e0c490;fill-opacity:1" />
	</g>
	<g
   id="g957"
   style="fill:#e0c490;fill-opacity:1">
		<path
   class="st1"
   d="m 30.1,185 h -3 c 0,-13.3 -0.7,-26.7 -5.9,-35.1 l 2.5,-1.6 c 5.7,9 6.4,22.9 6.4,36.7 z"
   id="path955"
   style="fill:#e0c490;fill-opacity:1" />
	</g>
	<g
   id="g961"
   style="fill:#e0c490;fill-opacity:1">
		<path
   class="st1"
   d="m 49,148.8 v -0.6 c 2.4,0 4.3,-1.9 4.3,-4.3 h 0.6 c 0,2.7 -2.2,4.9 -4.9,4.9 z"
   id="path959"
   style="fill:#e0c490;fill-opacity:1" />
	</g>
	<g
   id="g965"
   style="fill:#e0c490;fill-opacity:1">
		
			<rect
   x="32.900002"
   y="145.89999"
   transform="matrix(0.7071,-0.7071,0.7071,0.7071,-92.7842,68.3491)"
   class="st1"
   width="6.5"
   height="0.60000002"
   id="rect963"
   style="fill:#e0c490;fill-opacity:1" />
	</g>
	<g
   id="g969"
   style="fill:#e0c490;fill-opacity:1">
		<path
   class="st1"
   d="m 14.2,152.3 c -7.4,0 -13.4,-6 -13.4,-13.4 0,-7.4 6,-13.4 13.4,-13.4 7.4,0 13.4,6 13.4,13.4 0,7.4 -6,13.4 -13.4,13.4 z m 0,-26.2 c -7.1,0 -12.8,5.8 -12.8,12.8 0,7.1 5.8,12.8 12.8,12.8 7.1,0 12.8,-5.8 12.8,-12.8 0,-7.1 -5.8,-12.8 -12.8,-12.8 z"
   id="path967"
   style="fill:#e0c490;fill-opacity:1" />
	</g>
	<g
   id="g973"
   style="fill:#e0c490;fill-opacity:1">
		<path
   class="st1"
   d="m 3.3,336.3 v 4 H 2.9 v -4 z"
   id="path971"
   style="fill:#e0c490;fill-opacity:1" />
	</g>
	<g
   id="g977"
   style="fill:#e0c490;fill-opacity:1">
		<path
   class="st1"
   d="m 52,338.3 c 0,-1.2 0.9,-2.1 2.1,-2.1 1.2,0 2.1,0.9 2.1,2.1 0,1.2 -0.9,2.1 -2.1,2.1 -1.2,0 -2.1,-0.9 -2.1,-2.1 z m 0.5,0 c 0,0.9 0.7,1.6 1.6,1.6 0.9,0 1.6,-0.7 1.6,-1.6 0,-0.9 -0.7,-1.6 -1.6,-1.6 -0.9,0 -1.6,0.7 -1.6,1.6 z"
   id="path975"
   style="fill:#e0c490;fill-opacity:1" />
	</g>
	<g
   id="g981"
   style="fill:#e0c490;fill-opacity:1">
		<path
   class="st1"
   d="m 3.3,55.1 v 4 H 2.9 v -4 z"
   id="path979"
   style="fill:#e0c490;fill-opacity:1" />
	</g>
	<g
   id="g985"
   style="fill:#e0c490;fill-opacity:1">
		<path
   class="st1"
   d="m 52,57.1 c 0,-1.2 0.9,-2.1 2.1,-2.1 1.2,0 2.1,0.9 2.1,2.1 0,1.2 -0.9,2.1 -2.1,2.1 C 52.9,59.1 52,58.3 52,57.1 Z m 0.5,0 c 0,0.9 0.7,1.6 1.6,1.6 0.9,0 1.6,-0.7 1.6,-1.6 0,-0.9 -0.7,-1.6 -1.6,-1.6 -0.9,-0.1 -1.6,0.6 -1.6,1.6 z"
   id="path983"
   style="fill:#e0c490;fill-opacity:1" />
	</g>
	<g
   id="g989"
   style="fill:#e0c490;fill-opacity:1">
		<path
   class="st2"
   d="M 43.5,321.8"
   id="path987"
   style="fill:#e0c490;fill-opacity:1" />
	</g>
	<g
   id="g993"
   style="fill:#e0c490;fill-opacity:1">
		<rect
   x="3.5"
   y="157.60001"
   class="st1"
   width="4.0FDBB3C"
   height="0.80000001"
   id="rect991"
   style="fill:#e0c490;fill-opacity:1" />
	</g>
	<g
   id="g997"
   style="fill:#e0c490;fill-opacity:1">
		<rect
   x="3.5"
   y="164.10001"
   class="st1"
   width="4.0FDBB3C"
   height="0.80000001"
   id="rect995"
   style="fill:#e0c490;fill-opacity:1" />
	</g>
	<g
   id="g1001"
   style="fill:#e0c490;fill-opacity:1">
		<rect
   x="4.9000001"
   y="168.10001"
   class="st1"
   width="5.1999998"
   height="0.80000001"
   id="rect999"
   style="fill:#e0c490;fill-opacity:1" />
	</g>
	<g
   id="g1007"
   style="fill:#e0c490;fill-opacity:1">
		<circle
   class="st1"
   cx="3.5"
   cy="158"
   r="1.4"
   id="circle1003"
   style="fill:#e0c490;fill-opacity:1" />
		<path
   class="st1"
   d="m 3.5,159.7 c -1,0 -1.7,-0.8 -1.7,-1.7 0,-0.9 0.8,-1.7 1.7,-1.7 0.9,0 1.8,0.8 1.8,1.7 0,0.9 -0.9,1.7 -1.8,1.7 z m 0,-2.9 c -0.6,0 -1.1,0.5 -1.1,1.1 0,0.6 0.5,1.1 1.1,1.1 0.6,0 1.2,-0.5 1.2,-1.1 0,-0.6 -0.6,-1.1 -1.2,-1.1 z"
   id="path1005"
   style="fill:#e0c490;fill-opacity:1" />
	</g>
	<g
   id="g1013"
   style="fill:#e0c490;fill-opacity:1">
		<circle
   class="st1"
   cx="3.5"
   cy="164.5"
   r="1.4"
   id="circle1009"
   style="fill:#e0c490;fill-opacity:1" />
		<path
   class="st1"
   d="m 3.5,166.2 c -1,0 -1.7,-0.8 -1.7,-1.7 0,-0.9 0.8,-1.7 1.7,-1.7 0.9,0 1.8,0.8 1.8,1.7 0,0.9 -0.9,1.7 -1.8,1.7 z m 0,-2.9 c -0.6,0 -1.1,0.5 -1.1,1.1 0,0.6 0.5,1.1 1.1,1.1 0.6,0 1.2,-0.5 1.2,-1.1 0,-0.6 -0.6,-1.1 -1.2,-1.1 z"
   id="path1011"
   style="fill:#e0c490;fill-opacity:1" />
	</g>
	<g
   id="g1019"
   style="fill:#e0c490;fill-opacity:1">
		<circle
   class="st1"
   cx="3.5"
   cy="179"
   r="1.4"
   id="circle1015"
   style="fill:#e0c490;fill-opacity:1" />
		<path
   class="st1"
   d="m 3.5,180.7 c -1,0 -1.7,-0.8 -1.7,-1.7 0,-0.9 0.8,-1.7 1.7,-1.7 0.9,0 1.8,0.8 1.8,1.7 0,0.9 -0.9,1.7 -1.8,1.7 z m 0,-2.9 c -0.6,0 -1.1,0.5 -1.1,1.1 0,0.6 0.5,1.1 1.1,1.1 0.6,0 1.2,-0.5 1.2,-1.1 0,-0.6 -0.6,-1.1 -1.2,-1.1 z"
   id="path1017"
   style="fill:#e0c490;fill-opacity:1" />
	</g>
	<g
   id="g1025"
   style="fill:#e0c490;fill-opacity:1">
		<circle
   class="st1"
   cx="3.5"
   cy="172.5"
   r="1.4"
   id="circle1021"
   style="fill:#e0c490;fill-opacity:1" />
		<path
   class="st1"
   d="m 3.5,174.2 c -1,0 -1.7,-0.8 -1.7,-1.7 0,-0.9 0.8,-1.7 1.7,-1.7 0.9,0 1.8,0.8 1.8,1.7 0,0.9 -0.9,1.7 -1.8,1.7 z m 0,-2.9 c -0.6,0 -1.1,0.5 -1.1,1.1 0,0.6 0.5,1.1 1.1,1.1 0.6,0 1.2,-0.5 1.2,-1.1 0,-0.6 -0.6,-1.1 -1.2,-1.1 z"
   id="path1023"
   style="fill:#e0c490;fill-opacity:1" />
	</g>
	<g
   id="g1029"
   style="fill:#e0c490;fill-opacity:1">
		<rect
   x="3.0FDBB3C"
   y="171.8"
   class="st1"
   width="0.80000001"
   height="4.6999998"
   id="rect1027"
   style="fill:#e0c490;fill-opacity:1" />
	</g>
	<g
   id="g1033"
   style="fill:#e0c490;fill-opacity:1">
		<rect
   x="3.0FDBB3C"
   y="177.5"
   class="st1"
   width="0.80000001"
   height="4.9000001"
   id="rect1031"
   style="fill:#e0c490;fill-opacity:1" />
	</g>
	<g
   id="g1037"
   style="fill:#e0c490;fill-opacity:1">
		<path
   class="st1"
   d="M 19.1,176.9 H 9.3 V 160 h 9.8 z m -8.8,-1 h 7.8 V 161 h -7.8 z"
   id="path1035"
   style="fill:#e0c490;fill-opacity:1" />
	</g>
	<g
   id="g1041"
   style="fill:#e0c490;fill-opacity:1">
		<path
   class="st1"
   d="m 34.3,105.1 h 5.3 v 0.8 h -5.3 z"
   id="path1039"
   style="fill:#e0c490;fill-opacity:1" />
	</g>
	<g
   id="g1045"
   style="fill:#e0c490;fill-opacity:1">
		<path
   class="st1"
   d="m 46.6,105.1 h 2.2 V 103 h 0.9 v 2.1 h 2.2 v 0.8 h -2.2 v 2.1 h -0.9 v -2.1 h -2.2 z"
   id="path1043"
   style="fill:#e0c490;fill-opacity:1" />
	</g>
	<path
   class="st1"
   d="m 17.6,71.8 c 1.4,-1.1 2.3,-2.8 2.3,-4.7 0,-2.8 -2,-5.2 -4.7,-5.7 v -9.7 h -2 v 9.6 c -2.8,0.4 -4.9,2.8 -4.9,5.7 0,2.9 2.1,5.3 4.9,5.7 V 90 h 2 V 72.8 c 0.2,0 0.4,-0.1 0.5,-0.1 4.5,8.1 14.6,8.9 26.8,8.9 v -2 C 30.8,79.6 21.7,78.9 17.6,71.8 Z M 9.3,67.1 c 0,-2.7 2.2,-4.8 4.8,-4.8 2.6,0 4.8,2.2 4.8,4.8 0,2.6 -2.2,4.8 -4.8,4.8 -2.6,0 -4.8,-2.1 -4.8,-4.8 z"
   id="path1047"
   style="fill:#e0c490;fill-opacity:1" />
</g>
</svg>
