<?xml version="1.0" encoding="UTF-8" standalone="no"?>
<svg xmlns:osb="http://www.openswatchbook.org/uri/2009/osb" xmlns:dc="http://purl.org/dc/elements/1.1/" xmlns:cc="http://creativecommons.org/ns#" xmlns:rdf="http://www.w3.org/1999/02/22-rdf-syntax-ns#" xmlns:svg="http://www.w3.org/2000/svg" xmlns="http://www.w3.org/2000/svg" xmlns:sodipodi="http://sodipodi.sourceforge.net/DTD/sodipodi-0.dtd" xmlns:inkscape="http://www.inkscape.org/namespaces/inkscape" width="35.560001mm" height="128.5mm" viewBox="0 0 35.560005 128.50002" version="1.1" id="svg8" inkscape:version="0.92.5 (2060ec1f9f, 2020-04-08)" sodipodi:docname="thorns.svg">
  <defs id="defs2">
    <linearGradient osb:paint="gradient" id="linearGradient1021">
      <stop id="stop1017" offset="0" style="stop-color:#ffffff;stop-opacity:1;" />
      <stop id="stop1019" offset="1" style="stop-color:#ffffff;stop-opacity:0;" />
    </linearGradient>
  </defs>
  <sodipodi:namedview inkscape:object-nodes="false" id="base" pagecolor="#72717b" bordercolor="#666666" borderopacity="1.0" inkscape:pageopacity="0" inkscape:pageshadow="2" inkscape:zoom="90.509668" inkscape:cx="72.985981" inkscape:cy="194.15126" inkscape:document-units="mm" inkscape:current-layer="text1092" showgrid="true" units="mm" inkscape:snap-bbox="true" inkscape:snap-page="true" inkscape:bbox-nodes="false" inkscape:snap-bbox-edge-midpoints="false" inkscape:window-width="3122" inkscape:window-height="1757" inkscape:window-x="644" inkscape:window-y="117" inkscape:window-maximized="0" inkscape:snap-bbox-midpoints="true" inkscape:snap-nodes="false" inkscape:document-rotation="0" showguides="true" inkscape:guide-bbox="true" inkscape:snap-global="false">
    <inkscape:grid type="xygrid" id="grid68" visible="true" enabled="true" snapvisiblegridlinesonly="true" dotted="false" empspacing="8" spacingx="1.2700002" spacingy="1.2700002" units="mm" />
    <sodipodi:guide position="2.3812504,111.5219" orientation="1,0" id="guide1040" inkscape:locked="false" />
    <sodipodi:guide position="17.761734,61.575569" orientation="1,0" id="guide1042" inkscape:locked="false" />
    <sodipodi:guide position="32.940629,74.744808" orientation="1,0" id="guide904" inkscape:locked="false" />
    <sodipodi:guide position="7.6238642,44.340024" orientation="1,0" id="guide910" inkscape:locked="false" />
  </sodipodi:namedview>
  <metadata id="metadata5">
    <rdf:RDF>
      <cc:Work rdf:about="">
        <dc:format>image/svg+xml</dc:format>
        <dc:type rdf:resource="http://purl.org/dc/dcmitype/StillImage" />
        <dc:title />
      </cc:Work>
    </rdf:RDF>
  </metadata>
  <g inkscape:label="Background" inkscape:groupmode="layer" id="layer1" transform="translate(0,-168.49998)" style="display:inline">
    <rect style="display:inline;opacity:1;vector-effect:none;fill:#909090;fill-opacity:1;fill-rule:evenodd;stroke:none;stroke-width:0.7013877;stroke-linecap:butt;stroke-linejoin:miter;stroke-miterlimit:4;stroke-dasharray:none;stroke-dashoffset:0;stroke-opacity:1;paint-order:normal" id="rect420" width="35.560001" height="128.5" x="-35.560001" y="168.49997" transform="scale(-1,1)" />
  </g>
  <g inkscape:groupmode="layer" id="layer7" inkscape:label="Gradient 2" style="display:inline">
    <ellipse style="fill:#919191;fill-opacity:1;stroke:none;stroke-width:0.39193314;stroke-linecap:butt;stroke-linejoin:round;stroke-miterlimit:4;stroke-dasharray:none;stroke-opacity:0.25098039;paint-order:stroke fill markers" id="path911" cx="17.969629" cy="44.267986" rx="17.57826" ry="17.662903" />
    <ellipse ry="16.250626" rx="16.882267" cy="44.023193" cx="18.094549" id="ellipse913" style="fill:#929292;fill-opacity:1;stroke:none;stroke-width:0.36842018;stroke-linecap:butt;stroke-linejoin:round;stroke-miterlimit:4;stroke-dasharray:none;stroke-opacity:0.25098039;paint-order:stroke fill markers" />
    <ellipse style="fill:#939393;fill-opacity:1;stroke:none;stroke-width:0.33133078;stroke-linecap:butt;stroke-linejoin:round;stroke-miterlimit:4;stroke-dasharray:none;stroke-opacity:0.25098039;paint-order:stroke fill markers" id="ellipse915" cx="17.541325" cy="43.025181" rx="16.186275" ry="13.708523" />
    <ellipse ry="11.957296" rx="15.186902" cy="42.968685" cx="17.362865" id="ellipse917" style="fill:#949494;fill-opacity:1;stroke:none;stroke-width:0.29973957;stroke-linecap:butt;stroke-linejoin:round;stroke-miterlimit:4;stroke-dasharray:none;stroke-opacity:0.25098039;paint-order:stroke fill markers" />
    <ellipse style="fill:#959595;fill-opacity:1;stroke:none;stroke-width:0.26525825;stroke-linecap:butt;stroke-linejoin:round;stroke-miterlimit:4;stroke-dasharray:none;stroke-opacity:0.25098039;paint-order:stroke fill markers" id="ellipse919" cx="17.898243" cy="42.328453" rx="14.223221" ry="9.9989357" />
    <ellipse ry="7.5509858" rx="12.974004" cy="41.236294" cx="17.648401" id="ellipse921" style="fill:#969696;fill-opacity:1;stroke:none;stroke-width:0.22015667;stroke-linecap:butt;stroke-linejoin:round;stroke-miterlimit:4;stroke-dasharray:none;stroke-opacity:0.25098039;paint-order:stroke fill markers" />
  </g>
  <g inkscape:groupmode="layer" id="layer5" inkscape:label="Jesus the Redeemer" style="display:inline">
    <path style="display:inline;fill:#909090;fill-opacity:1;stroke-width:0.01433614" d="m 12.382794,61.998732 c 0.0345,-0.158275 0.132644,-1.167497 0.257837,-2.651503 0.307718,-3.647647 0.484871,-5.555019 0.691191,-7.441911 0.108864,-0.995615 0.116357,-1.097636 0.0832,-1.132739 -0.0131,-0.01388 -0.03493,-0.02522 -0.04853,-0.02522 -0.04707,0 -0.07302,-0.05263 -0.08722,-0.176896 -0.0141,-0.123507 -0.03932,-0.226945 -0.09896,-0.405773 -0.06081,-0.182324 -0.07284,-0.296668 -0.07151,-0.678547 9.59e-4,-0.26512 0.01072,-0.457749 0.03896,-0.767056 0.04078,-0.446482 0.0941,-0.913545 0.12711,-1.113705 0.03113,-0.188723 0.02817,-0.218432 -0.02938,-0.295023 -0.150557,-0.200404 -0.228168,-0.456738 -0.228413,-0.75441 -1.25e-4,-0.145522 -2.9e-5,-0.145403 -0.118988,-0.145403 -0.11427,0 -0.213461,-0.027 -0.235305,-0.06404 -0.01361,-0.02308 -0.02088,-0.122189 -0.02642,-0.360092 l -0.0076,-0.328239 0.05516,-0.313433 c 0.07506,-0.42639 0.159518,-0.967902 0.18579,-1.19112 0.02073,-0.17611 0.06746,-0.732808 0.161567,-1.925014 0.06459,-0.818165 0.06437,-0.812554 0.03293,-0.830325 -0.01449,-0.0081 -0.139195,-0.05626 -0.277132,-0.106803 -0.137929,-0.05055 -0.338562,-0.131514 -0.445845,-0.17992 -0.107281,-0.0484 -0.232677,-0.104958 -0.278655,-0.125666 -0.181927,-0.08195 -1.448004,-0.549645 -1.545763,-0.571025 -0.207271,-0.04533 -0.7800794,-0.02468 -1.2786212,0.04608 -0.4440331,0.06303 -0.9664634,0.05329 -1.334585,-0.02488 C 7.66748,40.385934 7.4541781,40.249708 7.2883994,40.043164 7.2004,39.933532 6.734004,39.20682 6.6055322,38.979168 6.4760357,38.7497 6.2774264,38.322861 6.1853732,38.076187 c -0.089067,-0.238678 -0.09295,-0.241891 -0.3196086,-0.264559 -0.082469,-0.0082 -0.1859231,-0.02478 -0.2298923,-0.03672 -0.1394521,-0.0379 -0.2770787,-0.04194 -0.5713254,-0.01672 -0.2316732,0.01982 -0.3192508,0.02132 -0.4876512,0.0082 -0.4124996,-0.03235 -0.9783988,-0.128054 -1.5315682,-0.25911 -0.4064737,-0.09629 -0.5193889,-0.133075 -0.5633306,-0.183466 -0.033443,-0.03836 -0.1499986,-0.08834 -0.2063102,-0.08848 -0.012015,-2.9e-5 -0.042226,-0.01322 -0.067131,-0.02928 -0.038088,-0.02458 -0.045316,-0.03806 -0.045499,-0.08478 -2.847e-4,-0.07404 -0.00915,-0.08563 -0.090581,-0.117909 l -0.069438,-0.02754 9.156e-4,-0.06999 c 0.00132,-0.10101 0.040071,-0.137395 0.166282,-0.156103 0.068451,-0.01023 0.1016848,-0.02219 0.1114626,-0.04042 0.00762,-0.01428 0.029937,-0.04366 0.049494,-0.06532 0.046678,-0.05166 0.1014784,-0.05819 0.4660281,-0.05564 0.3698933,0.0025 0.6668895,-0.01406 0.6994211,-0.03925 0.022455,-0.01738 0.01906,-0.02505 -0.041402,-0.0935 -0.047075,-0.05329 -0.06587,-0.0867 -0.06587,-0.117154 0,-0.122999 0.1405175,-0.141002 0.7591158,-0.09728 0.190224,0.01345 0.4097691,0.02028 0.5087775,0.01585 l 0.174161,-0.0078 0.2229261,0.09314 c 0.356941,0.149138 0.3800981,0.162065 0.4871796,0.27195 0.1241741,0.127426 0.223718,0.18302 0.3278952,0.183127 0.08251,8.7e-5 0.1238793,-0.01489 0.1856597,-0.06718 0.035283,-0.02987 0.054048,-0.03321 0.1811273,-0.03232 0.086952,6.23e-4 0.246807,0.01884 0.4134549,0.04709 0.3783284,0.06417 0.5436682,0.08117 0.8011415,0.08243 0.3579871,0.0017 1.22044,-0.03187 1.2887929,-0.05024 0.038809,-0.01045 0.3095277,-0.02145 0.710577,-0.02894 0.3563334,-0.0067 0.7074424,-0.02002 0.7802424,-0.02973 0.0728,-0.0098 0.181856,-0.01914 0.242349,-0.02094 0.101345,-0.003 0.112108,-0.0063 0.137007,-0.04257 0.02069,-0.03007 0.03899,-0.03934 0.07811,-0.03951 0.0281,-1.34e-4 0.0887,-0.0099 0.134684,-0.02161 0.04598,-0.01176 0.10211,-0.02161 0.124733,-0.0219 0.02573,-3.28e-4 0.05706,-0.01644 0.0836,-0.043 0.02335,-0.02336 0.07695,-0.05415 0.119093,-0.0684 0.04214,-0.01428 0.09857,-0.03751 0.125396,-0.05168 0.158096,-0.08351 0.346296,-0.120102 0.613046,-0.119149 0.32911,0.0011 0.863549,-0.06624 1.337559,-0.168722 0.229947,-0.04972 0.470398,-0.08743 0.849906,-0.133288 0.157445,-0.01903 0.265054,-0.02231 0.487651,-0.01486 0.253636,0.0084 0.30435,0.0062 0.452819,-0.02141 0.130824,-0.02424 0.211143,-0.02995 0.369222,-0.02632 l 0.202027,0.0047 0.106513,-0.05584 c 0.13927,-0.07301 0.211994,-0.0815 0.359396,-0.04204 0.06366,0.01704 0.120529,0.02784 0.126388,0.02401 0.02988,-0.01954 0.07103,-0.25527 0.08283,-0.474391 0.0095,-0.176392 0.02136,-0.266059 0.04845,-0.366322 0.01973,-0.07302 0.04194,-0.192868 0.04936,-0.266335 0.0075,-0.07346 0.02914,-0.202905 0.04829,-0.287646 0.01914,-0.08474 0.05382,-0.320019 0.07705,-0.522846 0.09046,-0.78977 0.143653,-1.078842 0.266212,-1.446643 0.114386,-0.343272 0.297207,-0.61297 0.477626,-0.704585 0.111912,-0.05683 0.284103,-0.127662 0.40471,-0.166482 0.09877,-0.03179 0.11258,-0.03316 0.133458,-0.01315 0.0128,0.01227 0.03409,0.02231 0.04726,0.02231 0.02806,0 0.09905,-0.03677 0.146387,-0.07585 0.04176,-0.03446 0.137025,-0.03605 0.181556,-0.003 0.02817,0.02088 0.04212,0.02189 0.09715,0.0068 0.131303,-0.03553 0.342912,0.04076 0.501022,0.180616 0.03175,0.02809 0.121044,0.126294 0.198424,0.218236 0.161814,0.192263 0.222595,0.306047 0.264056,0.494299 0.01555,0.07061 0.03436,0.136143 0.0418,0.145627 0.02775,0.03538 0.05461,0.512444 0.05232,0.928591 -0.0018,0.338045 0.0021,0.435792 0.02154,0.538414 0.022,0.115771 0.02242,0.16931 0.0055,0.698349 -0.01006,0.315132 -0.01373,0.617159 -0.008,0.671175 0.0058,0.05402 0.01065,0.174934 0.01104,0.268712 5.16e-4,0.122907 0.0062,0.1785 0.02048,0.199139 0.01763,0.02554 0.04511,0.02981 0.254276,0.03961 0.330119,0.01543 0.445136,0.02957 0.541039,0.0665 0.06118,0.02355 0.191816,0.04443 0.487265,0.07786 0.439237,0.0497 0.492697,0.06162 1.156817,0.257728 0.360038,0.106313 0.745163,0.23516 0.911588,0.304977 0.06748,0.0283 0.188662,0.0583 0.348322,0.08618 0.134664,0.02352 0.404721,0.079 0.600131,0.123281 0.195409,0.04428 0.392906,0.08491 0.438885,0.09027 0.04598,0.0054 0.202724,0.03995 0.348322,0.0769 0.244814,0.0621 0.279397,0.06728 0.459786,0.06891 0.159969,0.0015 0.201329,-0.0025 0.229894,-0.02261 0.04589,-0.03211 0.08099,-0.03834 0.320456,-0.05702 0.111115,-0.0087 0.298075,-0.02873 0.415467,-0.04463 0.225629,-0.03052 0.501516,-0.03602 0.692198,-0.01377 0.0613,0.0072 0.243128,0.01969 0.404055,0.02786 0.160924,0.0082 0.337628,0.01918 0.392676,0.02447 0.09113,0.0087 0.231598,-4.84e-4 0.561726,-0.03689 0.06513,-0.0072 0.193669,-0.03082 0.285626,-0.05251 0.09195,-0.02169 0.211083,-0.04967 0.264724,-0.06216 0.05364,-0.01248 0.154694,-0.0413 0.22456,-0.06402 0.06986,-0.02272 0.204666,-0.05159 0.299557,-0.06412 l 0.172529,-0.02283 0.05084,0.06188 0.05084,0.06187 0.165129,-0.03261 c 0.245853,-0.04855 0.26352,-0.0559 0.358204,-0.149005 0.102219,-0.100526 0.205356,-0.168562 0.416181,-0.274535 0.263695,-0.132548 0.306051,-0.144056 0.575036,-0.156216 0.201482,-0.0091 0.253508,-0.01654 0.348322,-0.04976 0.102498,-0.0359 0.138867,-0.04006 0.4522,-0.05159 0.187404,-0.0068 0.348002,-0.0096 0.356884,-0.0062 0.02197,0.009 0.04779,0.072 0.04779,0.116757 0,0.02016 -0.01567,0.06942 -0.03484,0.109447 -0.01916,0.04003 -0.03484,0.07867 -0.03484,0.08589 0,0.0072 0.04146,0.01721 0.09213,0.02221 0.07301,0.0072 0.109873,0.0027 0.177644,-0.0215 0.07223,-0.02586 0.104296,-0.02908 0.206274,-0.02072 0.09815,0.008 0.129078,0.0054 0.165213,-0.01444 0.02581,-0.01413 0.05847,-0.02061 0.07786,-0.01545 0.01838,0.0049 0.07396,-10e-4 0.123501,-0.01324 0.07069,-0.01737 0.113166,-0.01903 0.197247,-0.0076 0.05893,0.0079 0.110812,0.01825 0.115278,0.02298 0.0044,0.0047 0.02068,0.03628 0.03605,0.07012 0.0273,0.06012 0.02984,0.06173 0.111527,0.07003 0.113298,0.01152 0.130837,0.02218 0.161587,0.09811 0.04796,0.118478 0.03331,0.153718 -0.08667,0.208156 -0.06015,0.02729 -0.06504,0.0337 -0.07396,0.09676 -0.01211,0.08545 -0.03244,0.106379 -0.130677,0.13462 -0.162874,0.04683 -0.186618,0.05772 -0.216187,0.0994 -0.01664,0.02346 -0.0428,0.05729 -0.05813,0.0752 -0.04219,0.04927 -0.816987,0.317373 -1.114631,0.385697 -0.130274,0.0299 -0.339459,0.08027 -0.464854,0.111948 -0.125397,0.03167 -0.251571,0.05758 -0.280389,0.05758 -0.02881,0 -0.07741,0.0092 -0.107968,0.02075 -0.104013,0.03884 -0.302589,0.0529 -0.749073,0.05304 -0.524375,1.48e-4 -0.6529,0.01579 -0.760389,0.09246 -0.06659,0.0475 -0.10625,0.116816 -0.117823,0.205892 -0.04121,0.317285 -0.202704,0.776843 -0.412902,1.17503 -0.21374,0.404895 -0.559242,0.869823 -0.735257,0.989404 -0.276174,0.187627 -0.77599,0.270238 -2.146531,0.354788 -0.406868,0.0251 -0.567053,0.04134 -0.801141,0.08125 -0.275845,0.04703 -0.358688,0.05715 -0.787209,0.09618 -0.129565,0.01179 -0.212201,0.02879 -0.322715,0.0663 -0.36775,0.12488 -1.964605,0.568149 -2.209588,0.613358 l -0.08709,0.01607 v 0.08368 c 0,0.181531 0.07002,1.843363 0.180634,4.286975 0.07237,1.598916 0.08542,1.944282 0.119059,3.149352 0.01143,0.409711 0.03106,1.023724 0.04362,1.364474 0.01255,0.34075 0.02352,0.70252 0.02435,0.803933 0.0017,0.209411 0.01904,0.156982 -0.183853,0.557413 -0.06284,0.124033 -0.120359,0.253474 -0.127808,0.287645 -0.01748,0.08014 -0.01776,0.613136 -5.9e-4,1.065203 0.0074,0.194715 0.02005,0.682608 0.02811,1.084205 0.01615,0.804499 0.03478,1.257217 0.05748,1.396978 0.01371,0.08435 0.01218,0.09762 -0.01932,0.169637 -0.04071,0.093 -0.121078,0.183727 -0.190179,0.214656 -0.02748,0.0123 -0.09948,0.02775 -0.159986,0.03432 -0.06051,0.0065 -0.116411,0.01874 -0.124208,0.02698 -0.02598,0.02751 -0.02669,0.167884 -0.0038,0.724831 0.0216,0.523899 0.161341,4.990802 0.161341,5.157298 v 0.07861 h -4.57024 -4.570253 l 0.0072,-0.03319 z" id="path1062" inkscape:connector-curvature="0" />
  </g>
  <g inkscape:groupmode="layer" id="layer4" inkscape:label="Lines" style="display:inline">
    <rect style="display:inline;fill:#202020;fill-opacity:1;stroke-width:0.21477845" id="rect119" width="10.484" height="15.529755" x="21.121338" y="102.74044" ry="1.0788087" rx="1.0326574" />
    <rect style="display:inline;fill:#ecedf1;fill-opacity:1;stroke-width:0.29884803" id="rect119-8" width="10.483771" height="15.435936" x="3.8672106" y="102.74038" ry="1.1050979" rx="0.93513471" />
    <path style="display:inline;fill:#ecedf1;fill-opacity:1;stroke:none;stroke-width:0.76662087;stroke-miterlimit:4;stroke-dasharray:none;stroke-opacity:1" d="m 10.159717,3.1840506 h 15.217136 v 0.391764 H 10.159717 Z" id="rect4583-9-8" inkscape:connector-curvature="0" />
    <path style="display:inline;fill:#ecedf1;fill-opacity:1;stroke:none;stroke-width:0.31307399;stroke-miterlimit:4;stroke-dasharray:none;stroke-opacity:1" d="m 30.38836,3.1989394 h 2.537849 V 3.5907035 H 30.38836 Z" id="rect4583-9-9-5" inkscape:connector-curvature="0" />
    <path style="display:inline;fill:#ecedf1;fill-opacity:1;stroke:none;stroke-width:0.31292218;stroke-miterlimit:4;stroke-dasharray:none;stroke-opacity:1" d="M 2.5428605,3.1521673 H 5.078247 V 3.5439314 H 2.5428605 Z" id="rect4583-9-9-4-9" inkscape:connector-curvature="0" />
    <path style="display:inline;fill:#ecedf1;fill-opacity:1;stroke:none;stroke-width:0.7663548;stroke-miterlimit:4;stroke-dasharray:none;stroke-opacity:1" d="m 10.168032,1.6455558 h 15.206566 v 0.391764 H 10.168032 Z" id="rect4583-9-8-3" inkscape:connector-curvature="0" />
    <path style="display:inline;fill:#ecedf1;fill-opacity:1;stroke:none;stroke-width:0.31343439;stroke-miterlimit:4;stroke-dasharray:none;stroke-opacity:1" d="m 30.385349,1.6604446 h 2.543697 v 0.3917641 h -2.543697 z" id="rect4583-9-9-5-4" inkscape:connector-curvature="0" />
    <path style="display:inline;fill:#ecedf1;fill-opacity:1;stroke:none;stroke-width:0.31253925;stroke-miterlimit:4;stroke-dasharray:none;stroke-opacity:1" d="m 2.5436291,1.6136725 h 2.529186 v 0.3917641 h -2.529186 z" id="rect4583-9-9-4-9-0" inkscape:connector-curvature="0" />
    <path style="display:inline;fill:#ecedf1;fill-opacity:1;stroke:none;stroke-width:1.083969;stroke-miterlimit:4;stroke-dasharray:none;stroke-opacity:1" d="M 2.5483001,12.446961 H 32.971523 v 0.391764 H 2.5483001 Z" id="rect4583-9-9-4-9-06" inkscape:connector-curvature="0" />
    <path style="display:inline;fill:#ecedf1;fill-opacity:1;stroke:none;stroke-width:1.08406353;stroke-miterlimit:4;stroke-dasharray:none;stroke-opacity:1" d="M 2.5402933,10.908467 H 32.968832 v 0.391764 H 2.5402933 Z" id="rect4583-9-9-4-9-0-3" inkscape:connector-curvature="0" />
    <rect style="display:inline;fill:#797979;fill-opacity:1;stroke:none;stroke-width:0.5;stroke-linecap:butt;stroke-linejoin:round;stroke-miterlimit:4;stroke-dasharray:none;stroke-opacity:1" id="rect965" width="6.9222813" height="3.0869629" x="48.749355" y="45.686382" transform="rotate(27.19173)" />
    <rect transform="rotate(-10.734376)" y="86.242935" x="-7.4136939" height="3.0869629" width="6.9222813" id="rect918" style="display:inline;fill:#797979;fill-opacity:1;stroke:none;stroke-width:0.5;stroke-linecap:butt;stroke-linejoin:round;stroke-miterlimit:4;stroke-dasharray:none;stroke-opacity:1" />
    <rect style="display:inline;fill:#797979;fill-opacity:1;stroke:none;stroke-width:0.5;stroke-linecap:butt;stroke-linejoin:round;stroke-miterlimit:4;stroke-dasharray:none;stroke-opacity:1" id="rect915" width="6.9222813" height="3.0869629" x="87.742989" y="-10.018665" transform="rotate(89.661734)" />
    <rect transform="rotate(-89.257359)" y="28.2136" x="-73.556618" height="3.0869629" width="6.9222813" id="rect921" style="display:inline;fill:#797979;fill-opacity:1;stroke:none;stroke-width:0.5;stroke-linecap:butt;stroke-linejoin:round;stroke-miterlimit:4;stroke-dasharray:none;stroke-opacity:1" />
  </g>
  <g inkscape:groupmode="layer" id="layer3" inkscape:label="Text" style="display:inline">
    <text xml:space="preserve" style="font-size:4px;line-height:1.25;font-family:'Bebas Neue';-inkscape-font-specification:'Bebas Neue, Normal';letter-spacing:0px;word-spacing:0px;stroke-width:0.26458332" x="2.2612731" y="4.3884163" id="text4746"><tspan sodipodi:role="line" id="tspan4744" x="2.2612731" y="7.8884163" style="stroke-width:0.26458332" /></text>
    <g aria-label="IN" style="font-style:normal;font-variant:normal;font-weight:600;font-stretch:normal;font-size:4px;line-height:1.25;font-family:Quicksand;-inkscape-font-specification:'Quicksand, Semi-Bold';font-variant-ligatures:normal;font-variant-caps:normal;font-variant-numeric:normal;font-feature-settings:normal;text-align:start;letter-spacing:0px;word-spacing:0px;writing-mode:lr-tb;text-anchor:start;display:inline;fill:#181818;fill-opacity:1;stroke-width:0.26458332" id="text897" transform="translate(1.2683395,20.754745)">
      <path d="m 6.3487268,85.832522 q -0.004,0.088 -0.068,0.148 -0.06,0.056 -0.144,0.056 -0.092,0 -0.152,-0.056 -0.056,-0.06 -0.056,-0.148 v -2.392 q 0,-0.088 0.06,-0.144 0.06,-0.06 0.156,-0.06 0.08,0 0.14,0.06 0.064,0.056 0.064,0.144 z" style="fill:#181818;fill-opacity:1;stroke-width:0.26458332" id="path1019" inkscape:connector-curvature="0" />
      <path style="fill:#181818;fill-opacity:1;stroke-width:0.26458332" d="m 9.0990393,83.236522 c 0.1483749,-0.0049 0.2033905,0.16545 0.1799601,0.287257 -4.988e-4,0.776768 0.00124,1.553538 -8.976e-4,2.330305 -0.00481,0.173751 -0.2521997,0.24599 -0.3609462,0.117835 -0.5491567,-0.707324 -1.0944947,-1.418517 -1.6421163,-2.127397 0.086405,-0.08339 0.1069408,-0.01681 0.091937,0.07297 -3.347e-4,0.651239 0.00105,1.302479 -7.5e-4,1.953716 -1.099e-4,0.179312 -0.2936113,0.231618 -0.3508196,0.05957 -0.034826,-0.126112 -0.00758,-0.25955 -0.016287,-0.388891 3.496e-4,-0.707936 -0.00121,-1.415874 8.566e-4,-2.123809 0.00545,-0.169126 0.2382048,-0.239456 0.3526675,-0.12627 0.1145225,0.134135 0.2171584,0.27904 0.326587,0.417896 0.431936,0.562271 0.863872,1.124541 1.295808,1.686812 -0.1030617,0.125702 -0.045606,-0.106232 -0.059905,-0.166218 0.00143,-0.614143 -0.00352,-1.22857 0.00263,-1.842535 0.013853,-0.08476 0.094466,-0.155091 0.1812769,-0.15125 z" id="path1021" inkscape:connector-curvature="0" />
    </g>
    <g aria-label="OUT" style="font-style:normal;font-variant:normal;font-weight:600;font-stretch:normal;font-size:4px;line-height:1.25;font-family:Quicksand;-inkscape-font-specification:'Quicksand, Semi-Bold';font-variant-ligatures:normal;font-variant-caps:normal;font-variant-numeric:normal;font-feature-settings:normal;text-align:start;letter-spacing:0px;word-spacing:0px;writing-mode:lr-tb;text-anchor:start;fill:#ecedf1;fill-opacity:1;stroke-width:0.26458332" id="text972" transform="translate(-3.8017236)">
      <path style="fill:#ecedf1;fill-opacity:1;stroke-width:0.26458332" d="m 28.852166,105.39771 c 0.0066,0.43367 -0.17575,0.87333 -0.515785,1.14882 -0.372017,0.31288 -0.920458,0.37163 -1.364672,0.18982 -0.425688,-0.17759 -0.73059,-0.59172 -0.799543,-1.04464 -0.07757,-0.45605 0.02433,-0.95732 0.340828,-1.30568 0.29192,-0.32502 0.750737,-0.48003 1.181,-0.41509 0.436567,0.056 0.826895,0.35219 1.010402,0.75052 0.10091,0.21024 0.148799,0.44349 0.14777,0.67625 z m -0.432,0 c 0.0064,-0.37681 -0.176909,-0.77664 -0.52425,-0.95022 -0.333295,-0.16479 -0.773385,-0.10352 -1.029566,0.17322 -0.288505,0.3016 -0.34687,0.76631 -0.231356,1.15564 0.09507,0.32537 0.372132,0.6043 0.715168,0.6506 0.290852,0.0478 0.605683,-0.0493 0.800789,-0.27471 0.182727,-0.20483 0.271866,-0.48221 0.269215,-0.75453 z" id="path1210" inkscape:connector-curvature="0" />
      <path style="fill:#ecedf1;fill-opacity:1;stroke-width:0.26458332" d="m 31.335041,103.99371 c 0.124829,-0.008 0.208758,0.12128 0.192,0.23609 -7.96e-4,0.51443 0.0016,1.02891 -0.0012,1.54331 -0.0075,0.41145 -0.260467,0.81854 -0.64952,0.96985 -0.336782,0.12688 -0.739233,0.10634 -1.046121,-0.0892 -0.307199,-0.19643 -0.486356,-0.55852 -0.482992,-0.92012 3.05e-4,-0.51913 -0.0013,-1.03833 8e-4,-1.55743 0.0076,-0.16506 0.242316,-0.24645 0.351063,-0.1225 0.09227,0.0782 0.0569,0.20545 0.064,0.31088 9.38e-4,0.46709 -0.0019,0.93426 0.0014,1.40131 0.0035,0.32994 0.281095,0.62603 0.609266,0.65272 0.304727,0.0358 0.616877,-0.15064 0.726031,-0.43799 0.0711,-0.18386 0.04056,-0.38283 0.04727,-0.57501 4.98e-4,-0.4098 -9.98e-4,-0.81963 7.5e-4,-1.22941 0.002,-0.0995 0.08463,-0.18864 0.18725,-0.1825 z" id="path1212" inkscape:connector-curvature="0" />
      <path style="fill:#ecedf1;fill-opacity:1;stroke-width:0.26458332" d="m 33.094978,106.79771 c -0.123161,0.0114 -0.228335,-0.10167 -0.212,-0.22326 0,-0.79224 0,-1.58449 0,-2.37674 0.142667,0 0.285333,0 0.428,0 -6.66e-4,0.80585 0.0013,1.61175 -10e-4,2.41756 -0.0076,0.10689 -0.110305,0.18753 -0.215,0.18244 z m -0.908,-2.416 c -0.131945,0.0101 -0.240259,-0.12928 -0.195562,-0.2545 0.03284,-0.10727 0.153264,-0.13901 0.253328,-0.1295 0.59426,5.8e-4 1.188568,-0.001 1.782797,8.7e-4 0.135395,0.006 0.227191,0.16965 0.155999,0.28707 -0.05128,0.0956 -0.164748,0.10068 -0.260002,0.0961 -0.578853,0 -1.157707,0 -1.73656,0 z" id="path1214" inkscape:connector-curvature="0" />
    </g>
    <g aria-label="DRIVE" style="font-style:normal;font-variant:normal;font-weight:600;font-stretch:normal;font-size:4px;line-height:1.25;font-family:Quicksand;-inkscape-font-specification:'Quicksand, Semi-Bold';font-variant-ligatures:normal;font-variant-caps:normal;font-variant-numeric:normal;font-feature-settings:normal;text-align:start;letter-spacing:0px;word-spacing:0px;writing-mode:lr-tb;text-anchor:start;display:inline;fill:#ecedf1;fill-opacity:1;stroke-width:0.26458332" id="text922" transform="translate(19.016927,-0.97419072)">
      <path style="fill:#ecedf1;fill-opacity:1;stroke-width:0.26458332" d="m -5.6989114,50.67744 c 0.3764231,-0.01122 0.7570755,0.180587 0.9524032,0.506352 0.2488031,0.390761 0.2868166,0.884866 0.1924585,1.330108 -0.081593,0.369075 -0.3119523,0.726732 -0.66991,0.876827 -0.2679211,0.114502 -0.564227,0.08278 -0.8476212,0.08666 -0.2152225,-0.0012 -0.4307607,0.0035 -0.6457816,-0.0031 -0.1446231,-0.02353 -0.1799535,-0.186561 -0.1614975,-0.309671 4.598e-4,-0.768222 -0.00123,-1.536446 8.861e-4,-2.304667 0.00717,-0.129354 0.1484623,-0.203196 0.2662986,-0.1825 0.3042546,0 0.6085093,0 0.9127639,0 z m -0.04,2.416 c 0.2405477,0.0099 0.4884032,-0.101777 0.6165813,-0.310176 0.169824,-0.260593 0.2022399,-0.587213 0.1727522,-0.89039 -0.029758,-0.285801 -0.1513157,-0.588901 -0.4106979,-0.7387 -0.1542575,-0.09101 -0.3366994,-0.0986 -0.5108634,-0.09273 -0.2079241,0 -0.4158481,0 -0.6237722,0 0.054584,-0.07161 0.031576,0.05515 0.036,0.09048 0,0.660508 0,1.321015 0,1.981522 -0.055025,-0.0638 0.0658,-0.0335 0.1024783,-0.04 0.2058398,10e-7 0.4116853,-3e-6 0.6175217,2e-6 z" id="path926" inkscape:connector-curvature="0" />
      <path style="fill:#ecedf1;fill-opacity:1;stroke-width:0.26458332" d="m -3.7717239,53.47744 c -0.1314365,0.0097 -0.2652743,-0.108885 -0.2399858,-0.245669 5.812e-4,-0.79061 -0.00125,-1.581222 9.233e-4,-2.371831 0.00872,-0.145255 0.1713003,-0.205361 0.2967926,-0.182373 0.3770518,0.0028 0.7545188,-0.0065 1.1313067,0.0052 0.3779117,0.0413 0.6869557,0.387981 0.6981943,0.765777 0.020234,0.326549 -0.1757605,0.657612 -0.4792311,0.784956 -0.041253,-0.04816 -0.048483,-0.100911 0.022019,-0.04896 0.2206606,0.100882 0.3621089,0.33896 0.3585532,0.57971 0.01379,0.117084 0.00514,0.245719 0.075423,0.34725 0.1092547,0.04946 0.1891739,0.20277 0.096566,0.303499 -0.09237,0.106766 -0.2649297,0.07159 -0.3577152,-0.01662 -0.1847168,-0.151123 -0.2138229,-0.409031 -0.209717,-0.632456 -0.00135,-0.137331 -0.073258,-0.281988 -0.2094402,-0.329237 -0.1666198,-0.06421 -0.3480845,-0.03116 -0.5221137,-0.03918 -0.1791932,0 -0.3583865,0 -0.5375797,0 0.027431,-0.05124 0.07061,-0.09942 0.055929,-0.0081 -0.00103,0.307898 0.00256,0.615916 -0.00195,0.923738 -0.00878,0.08838 -0.08418,0.172678 -0.1779765,0.164366 z m 0.128,-1.428 c 0.3243828,-0.0011 0.6489937,0.0023 0.9732337,-0.0017 0.1970994,-0.02945 0.3115571,-0.230084 0.3450609,-0.410484 0.042975,-0.206892 -0.036982,-0.45378 -0.2378369,-0.547225 -0.1320907,-0.04836 -0.2748144,-0.02228 -0.4124188,-0.02857 -0.220013,0 -0.4400259,0 -0.6600389,0 0.014667,-0.03467 0.029333,-0.06933 0.044,-0.104 0,0.392 0,0.784 0,1.176 -0.017333,-0.028 -0.034668,-0.056 -0.052,-0.084 z" id="path928" inkscape:connector-curvature="0" />
      <path style="fill:#ecedf1;fill-opacity:1;stroke-width:0.26458332" d="m -0.86516138,53.27344 c 0.00243,0.159389 -0.20057652,0.260422 -0.33113232,0.174347 -0.1087791,-0.0677 -0.088987,-0.208982 -0.088806,-0.318337 0.00134,-0.761616 -0.00308,-1.523407 0.00229,-2.284913 0.02256,-0.166517 0.2693225,-0.227637 0.36911033,-0.09253 0.0776858,0.09249 0.0399981,0.220193 0.0485343,0.330631 0,0.730267 0,1.460534 0,2.190801 z" id="path930" inkscape:connector-curvature="0" />
      <path style="fill:#ecedf1;fill-opacity:1;stroke-width:0.26458332" d="m 1.8251511,50.66944 c 0.1371143,-0.01076 0.253188,0.152657 0.1859263,0.276544 -0.3330179,0.792538 -0.6685635,1.584066 -1.0046588,2.37527 -0.0338772,0.11786 -0.17510257,0.192442 -0.28831627,0.135611 -0.11661285,-0.06496 -0.1338228,-0.209907 -0.1904174,-0.319247 -0.31001031,-0.735189 -0.62176962,-1.469671 -0.93068553,-2.205301 -0.0514959,-0.143006 0.0984187,-0.300642 0.24354454,-0.25709 0.10045161,0.02503 0.13907494,0.124438 0.17235242,0.210968 l 0.82390863,1.960463 c 0.0564892,-0.14602 0.73200491,-1.889033 0.81789621,-2.077303 0.032782,-0.06122 0.100267,-0.103408 0.1704499,-0.09991 z" id="path932" inkscape:connector-curvature="0" sodipodi:nodetypes="cccccccccccc" />
      <path style="fill:#ecedf1;fill-opacity:1;stroke-width:0.26458332" d="m 2.6844636,50.67744 c 0.4725704,0.0012 0.9452486,-0.0025 1.4177512,0.0019 0.1512852,0.01518 0.227666,0.23322 0.1060549,0.33249 -0.098797,0.07701 -0.2303869,0.04288 -0.3467649,0.04961 -0.3336804,0 -0.6673608,0 -1.0010412,0 0.036007,-0.08821 0.045484,-0.04477 0.04,0.01824 0,0.269921 0,0.539841 0,0.809762 -0.077722,-0.07997 0.1268885,-0.02321 0.1708637,-0.03988 0.2883922,0.002 0.5773494,-0.0051 0.8653866,0.004 0.1440185,0.02736 0.2087631,0.239508 0.090189,0.334168 -0.099557,0.07957 -0.2337606,0.04118 -0.3511353,0.04973 -0.2677678,0 -0.5355356,0 -0.8033034,0 0.045873,-0.06462 0.022648,0.06746 0.028,0.101976 0,0.262008 0,0.524016 0,0.786024 -0.059738,-0.06237 0.1087216,-0.01937 0.1433543,-0.03188 0.3526668,0.0011 0.7055244,-0.0028 1.058071,0.0022 0.1405227,0.01757 0.2238279,0.2114 0.1202001,0.317039 -0.090985,0.0976 -0.236756,0.05562 -0.3545815,0.06459 -0.4084587,-0.0017 -0.8172377,0.0041 -1.2254951,-0.0031 -0.1446231,-0.02354 -0.1799535,-0.186561 -0.1614975,-0.309671 4.598e-4,-0.768222 -0.00123,-1.536446 8.861e-4,-2.304667 0.00662,-0.101094 0.1026821,-0.184893 0.2030623,-0.182499 z" id="path934" inkscape:connector-curvature="0" />
    </g>
    <g aria-label="TONE" style="font-style:normal;font-variant:normal;font-weight:600;font-stretch:normal;font-size:4px;line-height:1.25;font-family:Quicksand;-inkscape-font-specification:'Quicksand, Semi-Bold';font-variant-ligatures:normal;font-variant-caps:normal;font-variant-numeric:normal;font-feature-settings:normal;text-align:start;letter-spacing:0px;word-spacing:0px;writing-mode:lr-tb;text-anchor:start;display:inline;fill:#ecedf1;fill-opacity:1;stroke-width:0.26458332" id="text1092" transform="translate(0,-1.8708868)">
      <path style="fill:#ecedf1;fill-opacity:1;stroke-width:0.26458332" d="m 13.871703,80.144691 c -0.134164,0.01298 -0.238322,-0.121771 -0.211815,-0.24952 -4.57e-4,-0.783493 -4.2e-5,-1.566987 -1.85e-4,-2.35048 0.142667,0 0.285333,0 0.428,0 -6.66e-4,0.805854 0.0013,1.61171 -10e-4,2.417563 -0.0068,0.106367 -0.111283,0.187776 -0.215,0.182437 z m -0.908,-2.416 c -0.13849,0.01321 -0.251666,-0.149564 -0.188113,-0.274628 0.05365,-0.114392 0.193001,-0.116034 0.301352,-0.109314 0.579713,0.001 1.159544,-0.0025 1.739184,0.0018 0.142299,0.01393 0.224592,0.20665 0.12468,0.314351 -0.08284,0.09332 -0.21339,0.06282 -0.323846,0.06776 -0.551085,0 -1.102171,0 -1.653257,0 z" id="path944" inkscape:connector-curvature="0" />
      <path style="fill:#ecedf1;fill-opacity:1;stroke-width:0.26458332" d="m 17.910141,78.744691 c 0.0097,0.4862 -0.227617,0.981499 -0.644411,1.242724 -0.442925,0.277291 -1.052623,0.265591 -1.47867,-0.04027 -0.376819,-0.259231 -0.579963,-0.719221 -0.581253,-1.169655 -0.0076,-0.379098 0.109502,-0.769414 0.371607,-1.050156 0.319293,-0.356253 0.840651,-0.500431 1.301365,-0.384507 0.374921,0.08554 0.698556,0.350447 0.86804,0.694215 0.110372,0.218155 0.165621,0.463374 0.163322,0.707645 z m -0.432,0 c 0.0069,-0.377732 -0.178498,-0.779305 -0.527537,-0.951587 -0.344468,-0.170202 -0.801438,-0.09448 -1.052664,0.20301 -0.262501,0.300036 -0.315769,0.740138 -0.209398,1.114974 0.0906,0.31088 0.339606,0.586994 0.66471,0.652444 0.320747,0.07381 0.684442,-0.0365 0.88718,-0.301609 0.161821,-0.200604 0.240047,-0.461227 0.237709,-0.717232 z" id="path946" inkscape:connector-curvature="0" />
      <path style="fill:#ecedf1;fill-opacity:1;stroke-width:0.26458332" d="m 20.505016,77.344691 c 0.142746,-0.0051 0.203462,0.156735 0.17996,0.276453 -0.0011,0.784365 0.0024,1.568823 -0.0018,2.353129 -0.0139,0.136498 -0.181614,0.210831 -0.299383,0.150988 -0.08717,-0.04723 -0.129675,-0.142897 -0.193425,-0.215191 L 18.787266,78.0855 c -0.01173,-0.0092 -0.0171,-0.0039 -0.01762,0.0063 -9.46e-4,0.675087 0.0055,1.224091 0.0017,1.899125 -0.01409,0.145209 -0.218482,0.207041 -0.316722,0.103493 -0.06568,-0.07276 -0.04944,-0.06372 -0.04952,-0.341357 9.12e-4,-0.746623 -0.0024,-1.493333 0.0018,-2.2399 0.01467,-0.139484 0.191639,-0.210408 0.308009,-0.143587 0.07971,0.04007 0.115764,0.128124 0.173532,0.192109 l 1.422877,1.866624 c 0.01286,0.0065 0.01622,-3.35e-4 0.01309,-0.01766 0.0017,-0.666952 -0.0069,-1.24786 -6.2e-4,-1.914634 0.01386,-0.0848 0.0944,-0.154993 0.181281,-0.151299 z" id="path948" inkscape:connector-curvature="0" sodipodi:nodetypes="cccccccccccccccccc" />
      <path style="fill:#ecedf1;fill-opacity:1;stroke-width:0.26458332" d="m 21.538703,77.344691 c 0.472571,0.0012 0.945249,-0.0025 1.417752,0.0019 0.142236,0.0147 0.222767,0.211772 0.121012,0.317208 -0.08748,0.09294 -0.223263,0.05907 -0.337634,0.0649 -0.34171,0 -0.68342,0 -1.02513,0 0.02558,-0.0588 0.04803,-0.07051 0.04,-0.0035 0,0.277152 0,0.554303 0,0.831455 -0.08086,-0.07499 0.09196,-0.02673 0.132192,-0.03988 0.300843,0.002 0.602226,-0.005 0.90273,0.0038 0.143725,0.0267 0.209007,0.234133 0.09527,0.33226 -0.09596,0.07898 -0.226545,0.04509 -0.341222,0.05177 -0.272331,0 -0.544662,0 -0.816993,0 0.04429,-0.06587 0.02352,0.05486 0.028,0.08771 0,0.266764 0,0.533528 0,0.800292 -0.05868,-0.06194 0.1057,-0.01972 0.139666,-0.03188 0.353657,10e-4 0.707509,-0.0028 1.061044,0.0021 0.139049,0.01757 0.223418,0.205457 0.124494,0.313385 -0.08605,0.09841 -0.228176,0.06159 -0.342495,0.06825 -0.413469,-0.0016 -0.827245,0.004 -1.24052,-0.003 -0.141463,-0.02234 -0.181008,-0.180729 -0.162134,-0.302386 4.62e-4,-0.770677 -0.0012,-1.541355 8.86e-4,-2.31203 0.0066,-0.101118 0.102699,-0.184896 0.203082,-0.182502 z" id="path950" inkscape:connector-curvature="0" />
    </g>
    <g aria-label="Thorns" style="font-style:normal;font-variant:normal;font-weight:600;font-stretch:normal;font-size:4px;line-height:1.25;font-family:Quicksand;-inkscape-font-specification:'Quicksand, Semi-Bold';font-variant-ligatures:normal;font-variant-caps:normal;font-variant-numeric:normal;font-feature-settings:normal;text-align:start;letter-spacing:0px;word-spacing:0px;writing-mode:lr-tb;text-anchor:start;fill:#ecedf1;fill-opacity:1;stroke-width:0.26458332" id="text918" transform="translate(4.614395,-7.5770916)">
      <path style="fill:#ecedf1;fill-opacity:1;stroke-width:0.26458332" d="m 7.7841038,16.387108 c -0.1304567,0.01472 -0.2368477,-0.119226 -0.212,-0.243719 0,-0.785427 0,-1.570854 0,-2.356281 0.1426667,0 0.2853333,0 0.428,0 -6.651e-4,0.805854 0.00133,1.61171 -10e-4,2.417563 -0.00687,0.10613 -0.1112943,0.188155 -0.215,0.182437 z m -0.908,-2.416 C 6.7133995,13.989069 6.6012,13.765429 6.7202262,13.649425 c 0.1038029,-0.09758 0.2545939,-0.05233 0.3824169,-0.06221 0.5380077,1.75e-4 1.0760172,-0.0011 1.6140232,7.69e-4 0.162177,0.0022 0.2459252,0.237311 0.1146203,0.336801 -0.106768,0.07593 -0.2442315,0.03801 -0.3668696,0.04632 -0.5294378,0 -1.0588755,0 -1.5883132,0 z" id="path920" inkscape:connector-curvature="0" />
      <path style="fill:#ecedf1;fill-opacity:1;stroke-width:0.26458332" d="m 10.364666,14.247108 c 0.236681,-0.01161 0.496056,0.09618 0.594225,0.324595 0.15289,0.314688 0.100012,0.672228 0.10974,1.010074 -0.0017,0.216644 0.0043,0.433797 -0.004,0.650118 -0.02878,0.169591 -0.292377,0.215132 -0.36985,0.05853 -0.04875,-0.120706 -0.01763,-0.254738 -0.02646,-0.381588 -0.0023,-0.2999 0.0074,-0.600325 -0.0063,-0.899879 -0.01534,-0.161805 -0.104651,-0.341836 -0.277991,-0.376684 -0.264927,-0.07462 -0.5979114,0.06902 -0.661322,0.351921 -0.037135,0.176475 -0.00829,0.358202 -0.018169,0.536888 -0.00191,0.236871 0.00491,0.474265 -0.00385,0.710813 -0.028761,0.169603 -0.2923879,0.215128 -0.369858,0.05853 -0.049616,-0.124047 -0.01685,-0.261803 -0.026081,-0.391968 8.886e-4,-0.767727 -0.00227,-1.535527 0.00168,-2.303209 0.014504,-0.156352 0.2398207,-0.228476 0.3414579,-0.106922 0.089661,0.09864 0.047548,0.240454 0.056791,0.361227 0,0.291185 0,0.582371 0,0.873556 -0.1337685,0.09215 -0.0098,-0.09851 0.024148,-0.14428 0.1459018,-0.19979 0.3874411,-0.329729 0.6358511,-0.33172 z" id="path922" inkscape:connector-curvature="0" />
      <path style="fill:#ecedf1;fill-opacity:1;stroke-width:0.26458332" d="m 13.624979,15.335108 c 0.01544,0.451325 -0.280047,0.903661 -0.717057,1.038608 -0.429426,0.144345 -0.949502,-0.0022 -1.2118,-0.379373 -0.24392,-0.343654 -0.261049,-0.823543 -0.07645,-1.197187 0.191968,-0.370891 0.617276,-0.601361 1.032987,-0.559789 0.429225,0.0282 0.816603,0.349471 0.92834,0.764183 0.03068,0.108304 0.04424,0.221111 0.04398,0.333558 z m -0.4,0 c 0.0166,-0.321807 -0.204286,-0.653112 -0.527801,-0.719147 -0.287786,-0.06438 -0.603356,0.09581 -0.724098,0.36447 -0.135635,0.286469 -0.09515,0.663516 0.132215,0.892161 0.226939,0.234322 0.63558,0.252658 0.877211,0.03156 0.163634,-0.140458 0.248898,-0.355014 0.242473,-0.569044 z" id="path924" inkscape:connector-curvature="0" />
      <path style="fill:#ecedf1;fill-opacity:1;stroke-width:0.26458332" d="m 14.254666,16.387108 c -0.163782,0.01106 -0.227828,-0.175578 -0.199933,-0.309742 0.0022,-0.546627 -0.005,-1.09372 0.0037,-1.640056 0.0266,-0.148062 0.241041,-0.209954 0.339434,-0.09299 0.08966,0.09864 0.04755,0.240454 0.05679,0.361227 0,0.07652 0,0.153037 0,0.229556 -0.04193,-0.113131 -0.04925,-0.231807 0.02681,-0.332676 0.146679,-0.255991 0.467165,-0.426417 0.759844,-0.345696 0.147528,0.05153 0.180888,0.284095 0.03797,0.359815 -0.123861,0.07133 -0.242234,-0.04922 -0.368805,-0.02775 -0.262618,0.03606 -0.437849,0.302283 -0.451592,0.553511 -0.01024,0.353845 -2.66e-4,0.708274 -0.0052,1.062359 -0.0056,0.09995 -0.09807,0.187484 -0.199065,0.182437 z" id="path927" inkscape:connector-curvature="0" />
      <path style="fill:#ecedf1;fill-opacity:1;stroke-width:0.26458332" d="m 16.810541,14.235108 c 0.240448,-0.01112 0.507071,0.09217 0.609774,0.324295 0.153108,0.310788 0.100577,0.665162 0.110179,0.99948 -0.0017,0.224275 0.0044,0.44906 -0.0039,0.673012 -0.02878,0.169591 -0.292377,0.215132 -0.36985,0.05853 -0.04882,-0.121094 -0.01757,-0.255538 -0.02646,-0.382776 -0.002,-0.302532 0.0067,-0.605488 -0.0058,-0.90774 -0.01442,-0.171999 -0.124599,-0.349993 -0.304748,-0.381956 -0.268427,-0.06878 -0.598604,0.07611 -0.67366,0.355559 -0.03971,0.177462 -0.0092,0.360866 -0.01958,0.540821 -0.0019,0.239121 0.0049,0.478766 -0.0039,0.717563 -0.02878,0.169591 -0.292377,0.215132 -0.36985,0.05853 -0.05174,-0.13673 -0.01499,-0.287919 -0.02604,-0.430756 0.002,-0.474061 -0.0049,-0.948588 0.0037,-1.422358 0.0266,-0.148062 0.241041,-0.209954 0.339434,-0.09299 0.08504,0.09879 0.05812,0.249416 0.04918,0.36614 -0.108421,0.08439 -10e-4,-0.113896 0.04093,-0.147039 0.157476,-0.19357 0.397013,-0.330621 0.650685,-0.328318 z" id="path929" inkscape:connector-curvature="0" />
      <path style="fill:#ecedf1;fill-opacity:1;stroke-width:0.26458332" d="m 17.961916,16.059108 c -0.08915,-0.115345 0.01289,-0.30042 0.158343,-0.286586 0.144915,0.02098 0.208837,0.179047 0.336505,0.235881 0.197877,0.113339 0.462695,0.135554 0.661284,0.0132 0.133555,-0.105079 0.104676,-0.350743 -0.05965,-0.409848 -0.288472,-0.147382 -0.64951,-0.144921 -0.893198,-0.378052 -0.215437,-0.217398 -0.194768,-0.61623 0.04801,-0.80598 0.312804,-0.26436 0.796415,-0.241724 1.125927,-0.02007 0.112421,0.0671 0.241299,0.225194 0.136194,0.351194 -0.127478,0.134126 -0.27678,-8.09e-4 -0.373471,-0.09458 -0.185817,-0.118516 -0.452462,-0.140771 -0.635235,-0.0062 -0.114946,0.111477 -0.0735,0.333854 0.0802,0.388553 0.270913,0.14024 0.606777,0.13576 0.84333,0.345326 0.246234,0.214376 0.234449,0.652282 -0.03159,0.846392 -0.27752,0.226738 -0.674535,0.227493 -0.999831,0.115333 -0.157155,-0.05681 -0.297489,-0.159985 -0.396823,-0.294541 z" id="path931" inkscape:connector-curvature="0" />
    </g>
    <g id="g950" transform="matrix(0.00173387,0,0,-0.00173387,0.84458141,12.976536)" style="fill:#000000;stroke:none" />
    <g aria-label="HQ" style="font-style:normal;font-variant:normal;font-weight:600;font-stretch:normal;font-size:4px;line-height:1.25;font-family:Quicksand;-inkscape-font-specification:'Quicksand, Semi-Bold';font-variant-ligatures:normal;font-variant-caps:normal;font-variant-numeric:normal;font-feature-settings:normal;text-align:start;letter-spacing:0px;word-spacing:0px;writing-mode:lr-tb;text-anchor:start;display:inline;fill:#ecedf1;fill-opacity:1;stroke-width:0.26458332" id="text980">
      <path style="fill:#ecedf1;fill-opacity:1;stroke-width:0.26458332" d="m 27.428281,95.603641 c 0.111604,-6.49e-4 0.21447,0.104612 0.204,0.217466 v 2.378534 c -7.54e-4,0.118929 -0.116518,0.219501 -0.2345,0.203125 -0.08907,-0.0028 -0.17044,-0.0714 -0.182,-0.160875 -0.0072,-0.0923 -0.0019,-0.185294 -0.0035,-0.277899 1.56e-4,-0.722407 -3.12e-4,-1.444822 2.34e-4,-2.167226 7.96e-4,-0.111623 0.107376,-0.198553 0.215766,-0.193125 z m 1.804,0 c 0.103622,-0.0068 0.202656,0.07794 0.207125,0.1825 0.002,0.326931 3e-4,0.653958 8.75e-4,0.980926 -1.56e-4,0.481154 3.12e-4,0.962315 -2.34e-4,1.443465 -2.18e-4,0.105253 -0.09475,0.196113 -0.199922,0.19289 -0.105764,0.01003 -0.209578,-0.075 -0.214906,-0.182218 -0.0022,-0.294404 -3.24e-4,-0.588917 -9.38e-4,-0.883363 1.56e-4,-0.513691 -3.12e-4,-1.027388 2.34e-4,-1.541075 5.68e-4,-0.108021 0.102684,-0.195047 0.207766,-0.193125 z m -1.602959,1.192 h 1.401287 c -0.0013,0.128 -0.0027,0.256 -0.004,0.384 h -1.395085 c 0.0013,-0.128 -0.0035,-0.256 -0.0022,-0.384 z" id="path985" inkscape:connector-curvature="0" sodipodi:nodetypes="cccccccccccccccccccccc" />
      <path style="fill:#ecedf1;fill-opacity:1;stroke-width:0.26458332" d="m 32.711281,98.551641 c 0.126204,-0.0012 0.22879,0.147624 0.172688,0.263969 -0.05138,0.100979 -0.151852,0.165273 -0.249375,0.216468 -0.140331,0.07123 -0.294526,0.115225 -0.450731,0.132715 -0.185886,0.0092 -0.376873,-0.006 -0.550894,-0.07632 -0.15235,-0.05346 -0.281219,-0.157027 -0.433594,-0.210141 -0.09021,-0.02397 -0.189858,-0.03555 -0.279657,-0.0043 -0.07839,0.03511 -0.154521,0.08753 -0.244437,0.08163 -0.132381,0.0036 -0.228668,-0.148122 -0.186824,-0.269355 0.01839,-0.07075 0.08758,-0.102913 0.151036,-0.12297 0.245263,-0.09056 0.490525,-0.181117 0.735788,-0.271675 0.121333,0.02133 0.242667,0.04267 0.364,0.064 -0.244,0.088 -0.488,0.176 -0.732,0.264 0.05733,-0.036 0.114667,-0.072 0.172,-0.108 0.117153,-0.0026 0.232633,0.02619 0.338332,0.07567 0.168156,0.07117 0.32197,0.185881 0.507359,0.20907 0.125808,0.01618 0.261015,0.01028 0.372075,-0.05774 0.08325,-0.04162 0.153411,-0.1036 0.225875,-0.160594 0.0264,-0.01644 0.05709,-0.02657 0.08836,-0.02641 z m -0.072,-1.548 c 0.0028,0.35315 -0.1113,0.71189 -0.344755,0.980359 -0.200261,0.237579 -0.486886,0.403097 -0.795995,0.444454 -0.316876,0.04561 -0.654279,-0.0079 -0.925234,-0.184162 -0.325547,-0.202351 -0.546988,-0.553107 -0.610922,-0.92894 -0.06504,-0.374806 -0.01755,-0.778524 0.180234,-1.10827 0.145015,-0.250674 0.37821,-0.44637 0.647559,-0.551457 0.282378,-0.112349 0.60337,-0.12059 0.893816,-0.03413 0.246896,0.07606 0.470609,0.225412 0.632066,0.427525 0.217473,0.266339 0.325724,0.61267 0.323231,0.954616 z m -0.432,0 c 0.0029,-0.289764 -0.0987,-0.586931 -0.306382,-0.793335 -0.151312,-0.151832 -0.361446,-0.240533 -0.575509,-0.245835 -0.214545,-0.01133 -0.434159,0.05459 -0.598813,0.194546 -0.229312,0.189062 -0.348442,0.487022 -0.357908,0.779812 -0.01493,0.289734 0.06335,0.593358 0.258697,0.8136 0.149877,0.171772 0.369756,0.28019 0.598008,0.289585 0.218117,0.01449 0.443688,-0.0474 0.612673,-0.188889 0.227613,-0.185635 0.351499,-0.477818 0.366861,-0.767421 0.0016,-0.02732 0.0024,-0.05469 0.0024,-0.08206 z" id="path987" inkscape:connector-curvature="0" />
    </g>
  </g>
  <g inkscape:groupmode="layer" id="layer2" inkscape:label="components" style="display:none">
    <circle cy="112.78647" cx="9.1090498" id="circle4956" style="display:inline;opacity:1;vector-effect:none;fill:#00ff00;fill-opacity:1;fill-rule:evenodd;stroke:none;stroke-width:1;stroke-linecap:butt;stroke-linejoin:miter;stroke-miterlimit:4;stroke-dasharray:none;stroke-dashoffset:0;stroke-opacity:1;paint-order:normal" inkscape:label="in" r="4" />
    <circle style="display:inline;opacity:1;vector-effect:none;fill:#0000ff;fill-opacity:1;fill-rule:evenodd;stroke:none;stroke-width:1;stroke-linecap:butt;stroke-linejoin:miter;stroke-miterlimit:4;stroke-dasharray:none;stroke-dashoffset:0;stroke-opacity:1;paint-order:normal" id="circle4958" cx="26.442993" cy="112.91411" r="4" inkscape:label="out" />
    <circle style="fill:#ff00ff;fill-opacity:1;stroke-width:0.40892875" id="path890" cx="12.645452" cy="36.758934" inkscape:label="0" r="1.5" />
    <circle style="display:inline;opacity:1;vector-effect:none;fill:#ff0000;fill-opacity:1;fill-rule:evenodd;stroke:none;stroke-width:1.87500012;stroke-linecap:butt;stroke-linejoin:miter;stroke-miterlimit:4;stroke-dasharray:none;stroke-dashoffset:0;stroke-opacity:1;paint-order:normal" id="circle886" cx="17.736719" cy="62.347969" inkscape:label="drive" r="7.5" />
    <circle cy="76.050903" cx="28.917124" id="circle4956-3" style="display:inline;opacity:1;vector-effect:none;fill:#00ff00;fill-opacity:1;fill-rule:evenodd;stroke:none;stroke-width:1;stroke-linecap:butt;stroke-linejoin:miter;stroke-miterlimit:4;stroke-dasharray:none;stroke-dashoffset:0;stroke-opacity:1;paint-order:normal" inkscape:label="cv_drive" r="4" />
    <circle inkscape:label="1" cy="33.176365" cx="11.625321" id="circle998" style="fill:#ff00ff;fill-opacity:1;stroke-width:0.40892872" r="1.5" />
    <circle style="fill:#ff00ff;fill-opacity:1;stroke-width:0.40892872" id="circle1000" cx="12.943109" cy="29.572071" inkscape:label="2" r="1.5" />
    <circle inkscape:label="3" cy="27.266224" cx="15.918589" id="circle1002" style="fill:#ff00ff;fill-opacity:1;stroke-width:0.40513346" r="1.4860785" />
    <circle style="fill:#ff00ff;fill-opacity:1;stroke-width:0.40513346" id="circle1004" cx="19.804247" cy="27.368134" inkscape:label="4" r="1.4860785" />
    <circle inkscape:label="5" cy="29.663548" cx="23.071505" id="circle1006" style="fill:#ff00ff;fill-opacity:1;stroke-width:0.40513346" r="1.4860785" />
    <circle style="fill:#ff00ff;fill-opacity:1;stroke-width:0.40513346" id="circle1008" cx="23.773312" cy="33.411816" inkscape:label="6" r="1.4860785" />
    <circle inkscape:label="7" cy="37.063869" cx="22.755068" id="circle1010" style="fill:#ff00ff;fill-opacity:1;stroke-width:0.40513346" r="1.4860785" />
    <text xml:space="preserve" style="font-style:normal;font-variant:normal;font-weight:600;font-stretch:normal;font-size:4px;line-height:1.25;font-family:Quicksand;-inkscape-font-specification:'Quicksand, Semi-Bold';font-variant-ligatures:normal;font-variant-caps:normal;font-variant-numeric:normal;font-feature-settings:normal;text-align:start;letter-spacing:0px;word-spacing:0px;writing-mode:lr-tb;text-anchor:start;stroke-width:0.26458332" x="16.089626" y="7.1729927" id="text1014"><tspan sodipodi:role="line" id="tspan1012" x="16.089626" y="10.872993" style="stroke-width:0.26458332" /><tspan sodipodi:role="line" x="16.089626" y="15.872993" style="stroke-width:0.26458332" id="tspan1016" /></text>
    <circle inkscape:label="0_1" cy="39.395889" cx="9.511281" id="circle1046" style="fill:#ff00ff;fill-opacity:1;stroke-width:0.40892869" r="1.5" />
    <circle style="fill:#ff00ff;fill-opacity:1;stroke-width:0.40892866" id="circle1048" cx="7.629384" cy="33.113132" inkscape:label="1_1" r="1.5" />
    <circle inkscape:label="2_1" cy="27.198906" cx="9.6005726" id="circle1050" style="fill:#ff00ff;fill-opacity:1;stroke-width:0.40892866" r="1.5" />
    <circle style="fill:#ff00ff;fill-opacity:1;stroke-width:0.40512407" id="circle1052" cx="14.697066" cy="23.381033" inkscape:label="3_1" r="1.4860442" />
    <circle inkscape:label="4_1" cy="23.503839" cx="20.978132" id="circle1054" style="fill:#ff00ff;fill-opacity:1;stroke-width:0.40512407" r="1.4860442" />
    <circle style="fill:#ff00ff;fill-opacity:1;stroke-width:0.40512407" id="circle1056" cx="26.222445" cy="27.402885" inkscape:label="5_1" r="1.4860442" />
    <circle inkscape:label="6_1" cy="33.439186" cx="27.841402" id="circle1058" style="fill:#ff00ff;fill-opacity:1;stroke-width:0.40512407" r="1.4860442" />
    <circle style="fill:#ff00ff;fill-opacity:1;stroke-width:0.40512407" id="circle1060" cx="25.946405" cy="39.426857" inkscape:label="7_1" r="1.4860442" />
    <circle r="1.5" style="fill:#ff00ff;fill-opacity:1;stroke-width:0.40892869" id="circle901" cx="6.217689" cy="41.53027" inkscape:label="0_2" />
    <circle r="1.5" inkscape:label="1_2" cy="33.113132" cx="3.6275613" id="circle903" style="fill:#ff00ff;fill-opacity:1;stroke-width:0.40892866" />
    <circle r="1.5" style="fill:#ff00ff;fill-opacity:1;stroke-width:0.40892866" id="circle905" cx="6.2819324" cy="24.878124" inkscape:label="2_2" />
    <circle r="1.4860442" inkscape:label="3_2" cy="19.751036" cx="13.292643" id="circle907" style="fill:#ff00ff;fill-opacity:1;stroke-width:0.40512407" />
    <circle r="1.4860442" style="fill:#ff00ff;fill-opacity:1;stroke-width:0.40512407" id="circle909" cx="22.291363" cy="19.76895" inkscape:label="4_2" />
    <circle r="1.4860442" inkscape:label="5_2" cy="25.095806" cx="29.305563" id="circle911" style="fill:#ff00ff;fill-opacity:1;stroke-width:0.40512407" />
    <circle r="1.4860442" style="fill:#ff00ff;fill-opacity:1;stroke-width:0.40512407" id="circle913" cx="31.907021" cy="33.481945" inkscape:label="6_2" />
    <circle r="1.4860442" inkscape:label="7_2" cy="41.557224" cx="29.08432" id="circle915" style="fill:#ff00ff;fill-opacity:1;stroke-width:0.40512407" />
    <circle inkscape:label="tone" cy="85.908249" cx="17.80109" id="circle1088" style="display:inline;opacity:1;vector-effect:none;fill:#ff0000;fill-opacity:1;fill-rule:evenodd;stroke:none;stroke-width:1.25000012;stroke-linecap:butt;stroke-linejoin:miter;stroke-miterlimit:4;stroke-dasharray:none;stroke-dashoffset:0;stroke-opacity:1;paint-order:normal" r="5" />
    <circle r="4" inkscape:label="cv_tone" style="display:inline;opacity:1;vector-effect:none;fill:#00ff00;fill-opacity:1;fill-rule:evenodd;stroke:none;stroke-width:1;stroke-linecap:butt;stroke-linejoin:miter;stroke-miterlimit:4;stroke-dasharray:none;stroke-dashoffset:0;stroke-opacity:1;paint-order:normal" id="circle1094" cx="8.9690418" cy="95.985298" />
    <circle style="display:inline;opacity:1;vector-effect:none;fill:#ff0000;fill-opacity:1;fill-rule:evenodd;stroke:none;stroke-width:0.87500012;stroke-linecap:butt;stroke-linejoin:miter;stroke-miterlimit:4;stroke-dasharray:none;stroke-dashoffset:0;stroke-opacity:1;paint-order:normal" id="circle912" cx="22.566994" cy="96.997849" inkscape:label="hq" r="3.5" />
    <circle style="display:inline;opacity:1;vector-effect:none;fill:#ff0000;fill-opacity:1;fill-rule:evenodd;stroke:none;stroke-width:0.62500006;stroke-linecap:butt;stroke-linejoin:miter;stroke-miterlimit:4;stroke-dasharray:none;stroke-dashoffset:0;stroke-opacity:1;paint-order:normal" id="circle917" cx="8.9847698" cy="87.500206" inkscape:label="cv_tone_mul" r="2.5" />
    <circle inkscape:label="cv_drive_mul" cy="68.017456" cx="28.816204" id="circle919" style="display:inline;opacity:1;vector-effect:none;fill:#ff0000;fill-opacity:1;fill-rule:evenodd;stroke:none;stroke-width:0.62500006;stroke-linecap:butt;stroke-linejoin:miter;stroke-miterlimit:4;stroke-dasharray:none;stroke-dashoffset:0;stroke-opacity:1;paint-order:normal" r="2.5" />
  </g>
</svg>
