<?xml version="1.0" encoding="UTF-8" standalone="no"?>
<!DOCTYPE svg PUBLIC "-//W3C//DTD SVG 1.1//EN" "http://www.w3.org/Graphics/SVG/1.1/DTD/svg11.dtd">
<svg width="150px" height="380px" version="1.1" xmlns="http://www.w3.org/2000/svg" xmlns:xlink="http://www.w3.org/1999/xlink" xml:space="preserve" xmlns:serif="http://www.serif.com/" style="fill-rule:evenodd;clip-rule:evenodd;stroke-linejoin:round;stroke-miterlimit:2;">
    <g id="LOGO-1" serif:id="LOGO 1">
        <rect id="rect7373" x="0.126" y="-0.185" width="163.479" height="380.59" style="fill:#401B5C;"/>
    </g>
    <g id="LOGO">
        <g id="text3433">
            <path id="path3438" d="M26.906,356.694c0.016,0.033 0.041,0.09 0.073,0.171c0.016,0.049 0.024,0.09 0.024,0.122c0,0.081 -0.041,0.146 -0.122,0.195c-0.049,0.017 -0.09,0.025 -0.122,0.025c-0.065,0 -0.122,-0.041 -0.171,-0.122c-0.033,-0.081 -0.057,-0.13 -0.073,-0.146c0.098,-0.065 0.228,-0.147 0.391,-0.244c0.146,0.228 0.26,0.44 0.342,0.635c0.309,0.684 0.464,1.327 0.464,1.929c0,0.505 -0.114,0.985 -0.342,1.44c-0.488,0.96 -1.294,1.603 -2.417,1.929c-0.505,0.146 -0.993,0.22 -1.465,0.22c-0.57,0 -1.115,-0.106 -1.636,-0.317c-0.96,-0.407 -1.571,-1.099 -1.831,-2.075c-0.081,-0.293 -0.122,-0.578 -0.122,-0.855c0,-0.732 0.26,-1.449 0.781,-2.148c0.57,-0.814 1.383,-1.506 2.441,-2.075c0.83,-0.456 2.018,-0.911 3.564,-1.367c0.732,-0.212 1.449,-0.399 2.148,-0.562c0.977,-0.244 1.685,-0.382 2.124,-0.415c0.179,-0.017 0.382,-0.025 0.61,-0.025c0.456,0 0.985,0.024 1.587,0.073c1.188,0.098 1.855,0.163 2.002,0.195c1.172,0.195 2.262,0.692 3.271,1.489c1.042,0.814 1.823,1.733 2.344,2.759c0.553,1.123 0.887,2.287 1.001,3.491c0.033,0.326 0.049,0.741 0.049,1.245c0,0.732 -0.033,1.668 -0.098,2.808c-0.016,0.228 -0.033,0.562 -0.049,1.001c0,0.456 -0.008,0.789 -0.024,1.001c-0.065,1.286 -0.098,2.018 -0.098,2.197c0,0.7 0.081,1.4 0.244,2.1c0.146,0.635 0.326,1.082 0.537,1.343c0.358,0.407 0.846,0.659 1.465,0.757l0.195,0c0.293,0 0.806,-0.041 1.538,-0.122l0.049,0c0.114,0 0.171,0.065 0.171,0.195c0,0.163 -0.073,0.252 -0.22,0.269c-0.749,0.081 -1.237,0.122 -1.465,0.122l-0.073,0c-0.521,-0.033 -0.985,-0.171 -1.392,-0.415c-0.602,-0.358 -1.017,-1.034 -1.245,-2.026c-0.163,-0.667 -0.252,-1.27 -0.269,-1.807l0,-0.391c0,-0.391 0.016,-0.863 0.049,-1.416c0.033,-0.439 0.065,-1.017 0.098,-1.733c0.033,-0.846 0.057,-1.416 0.073,-1.709c0.033,-0.7 0.049,-1.335 0.049,-1.904c0,-0.895 -0.041,-1.611 -0.122,-2.148c-0.212,-1.253 -0.643,-2.376 -1.294,-3.369c-0.684,-1.042 -1.587,-1.88 -2.71,-2.515c-0.553,-0.309 -1.115,-0.537 -1.685,-0.684c-0.309,-0.081 -0.968,-0.154 -1.978,-0.22c-0.879,-0.081 -1.538,-0.122 -1.978,-0.122l-0.195,0c-0.586,0.017 -1.318,0.131 -2.197,0.342c-1.79,0.439 -3.19,0.846 -4.199,1.221c-1.286,0.472 -2.295,1.034 -3.027,1.685c-1.025,0.895 -1.563,1.807 -1.611,2.734l0,0.171c0,0.977 0.391,1.717 1.172,2.222c0.57,0.374 1.213,0.562 1.929,0.562c0.358,0 0.732,-0.049 1.123,-0.146c1.253,-0.309 2.075,-0.952 2.466,-1.929c0.146,-0.374 0.22,-0.749 0.22,-1.123c0,-0.732 -0.252,-1.489 -0.757,-2.271c-0.033,-0.049 -0.049,-0.098 -0.049,-0.146c0,-0.065 0.041,-0.114 0.122,-0.146c0.049,-0.033 0.098,-0.049 0.146,-0.049c0.065,0 0.122,0.033 0.171,0.098l-0,-0.001Zm3.052,-0.732c-0.993,0.049 -2.116,0.44 -3.369,1.172c-0.033,0.017 -0.065,0.025 -0.098,0.025c-0.081,0 -0.146,-0.041 -0.195,-0.122c-0.033,-0.049 -0.049,-0.098 -0.049,-0.146c0,-0.065 0.041,-0.114 0.122,-0.146c1.318,-0.781 2.49,-1.196 3.516,-1.245l0.171,0c1.123,0 2.002,0.431 2.637,1.294c0.521,0.7 0.822,1.619 0.903,2.759c0.016,0.163 0.024,0.317 0.024,0.464c0,0.456 -0.041,0.846 -0.122,1.172c-0.146,0.667 -0.391,1.156 -0.732,1.465c-0.293,0.26 -0.757,0.431 -1.392,0.513c-0.488,0.065 -1.042,0.179 -1.66,0.342c-2.051,0.521 -3.41,0.936 -4.077,1.245c-1.872,0.863 -2.946,1.383 -3.223,1.562c-0.879,0.553 -1.652,1.44 -2.319,2.661c-0.488,0.911 -0.732,1.855 -0.732,2.832c0,0.179 0.008,0.366 0.024,0.562c0.114,1.172 0.553,2.197 1.318,3.076c0.407,0.456 0.83,0.789 1.27,1.001c0.537,0.277 1.147,0.529 1.831,0.757c1.139,0.374 2.157,0.562 3.052,0.562c0.293,0 0.57,-0.016 0.83,-0.049c0.667,-0.098 1.27,-0.26 1.807,-0.488c0.488,-0.195 1.025,-0.521 1.611,-0.977c0.667,-0.488 1.204,-0.863 1.611,-1.123c0.635,-0.374 1.025,-0.741 1.172,-1.099c0.033,-0.081 0.081,-0.122 0.146,-0.122c0.049,0 0.098,0.016 0.146,0.049c0.098,0.049 0.146,0.122 0.146,0.22c0,0.033 -0.008,0.065 -0.024,0.098c-0.179,0.407 -0.61,0.814 -1.294,1.221c-0.391,0.244 -0.968,0.651 -1.733,1.221c-0.618,0.456 -1.221,0.798 -1.807,1.025c-0.618,0.228 -1.27,0.374 -1.953,0.439c-0.244,0.033 -0.488,0.049 -0.732,0.049c-0.944,0 -1.978,-0.195 -3.101,-0.586c-1.497,-0.505 -2.539,-1.066 -3.125,-1.685c-0.798,-0.846 -1.31,-1.847 -1.538,-3.003c-0.081,-0.423 -0.122,-0.846 -0.122,-1.27c0,-0.716 0.13,-1.416 0.391,-2.1c0.212,-0.521 0.488,-1.025 0.83,-1.514c0.439,-0.667 0.806,-1.139 1.099,-1.416c0.57,-0.537 1.563,-1.115 2.979,-1.733c0.13,-0.065 0.423,-0.204 0.879,-0.415c0.358,-0.163 0.643,-0.293 0.854,-0.391c0.586,-0.228 1.261,-0.44 2.026,-0.635c0.212,-0.065 0.553,-0.155 1.025,-0.269c0.456,-0.114 0.798,-0.203 1.025,-0.269c0.195,-0.049 0.456,-0.098 0.781,-0.146c0.423,-0.065 0.684,-0.106 0.781,-0.122c0.342,-0.065 0.586,-0.147 0.732,-0.244c0.179,-0.13 0.342,-0.325 0.488,-0.586c0.244,-0.472 0.366,-1.034 0.366,-1.685c-0.016,-1.204 -0.236,-2.157 -0.659,-2.856c-0.553,-0.895 -1.343,-1.343 -2.368,-1.343l-0.171,0l-0,-0.001Zm4.346,18.896c-0.195,-0.342 -0.334,-0.553 -0.415,-0.635c-0.049,-0.049 -0.073,-0.098 -0.073,-0.146c0,-0.049 0.033,-0.106 0.098,-0.171c0.049,-0.065 0.098,-0.098 0.146,-0.098c0.065,0 0.122,0.033 0.171,0.098c0.114,0.13 0.26,0.35 0.439,0.659c0.163,0.309 0.309,0.529 0.439,0.659c0.358,0.374 0.773,0.675 1.245,0.903c0.846,0.439 1.88,0.692 3.101,0.757l0.513,0c0.977,0 1.945,-0.114 2.905,-0.342c0.732,-0.179 1.286,-0.374 1.66,-0.586c0.618,-0.326 1.066,-0.496 1.343,-0.513c0.146,0 0.22,0.073 0.22,0.22c0,0.163 -0.073,0.244 -0.22,0.244l-1.392,0.586c-0.505,0.228 -1.115,0.415 -1.831,0.562c-0.879,0.195 -1.75,0.293 -2.612,0.293c-0.277,0 -0.545,-0.008 -0.806,-0.025c-1.286,-0.098 -2.352,-0.374 -3.198,-0.83c-0.505,-0.277 -0.92,-0.594 -1.245,-0.952c-0.212,-0.212 -0.374,-0.44 -0.488,-0.684l0,0Zm11.304,-0.293c-0.244,-0.7 -0.374,-1.123 -0.391,-1.27l0,-0.049c0,-0.114 0.073,-0.171 0.22,-0.171c0.146,0 0.228,0.073 0.244,0.22c0,0.033 0.008,0.065 0.024,0.098c0.016,0.049 0.033,0.09 0.049,0.122c0.016,0.098 0.049,0.22 0.098,0.366c0.13,0.407 0.22,0.684 0.269,0.83c0.13,0.423 0.195,0.749 0.195,0.977c0,0.13 -0.024,0.228 -0.073,0.293c-0.049,0.065 -0.106,0.098 -0.171,0.098c-0.049,0 -0.098,-0.024 -0.146,-0.073c-0.065,-0.065 -0.098,-0.122 -0.098,-0.171c0,-0.065 0.024,-0.122 0.073,-0.171c-0.016,0.017 -0.024,0.033 -0.024,0.049l0,-0.122c0,-0.065 -0.016,-0.155 -0.049,-0.269c-0.049,-0.179 -0.122,-0.431 -0.22,-0.757l0,-0Zm-12.5,-9.277c-0.081,-0.065 -0.122,-0.13 -0.122,-0.195c0,-0.049 0.016,-0.098 0.049,-0.146c0.049,-0.081 0.106,-0.122 0.171,-0.122c0.033,0 0.073,0.016 0.122,0.049c0.098,0.081 0.155,0.252 0.171,0.513c0.016,0.098 0.024,0.22 0.024,0.366c0,0.13 -0.008,0.293 -0.024,0.488c0,0.407 -0.024,1.107 -0.073,2.1c-0.016,0.374 -0.024,0.594 -0.024,0.659l-0.171,1.904c-0.098,0.977 -0.155,1.66 -0.171,2.051c0,0.146 -0.073,0.22 -0.22,0.22c-0.163,0 -0.244,-0.073 -0.244,-0.22c0.016,-0.521 0.081,-1.27 0.195,-2.246c0.098,-1.009 0.155,-1.758 0.171,-2.246c0.049,-1.237 0.073,-1.904 0.073,-2.002c0.016,-0.195 0.024,-0.366 0.024,-0.513c0,-0.146 -0.008,-0.269 -0.024,-0.366l0,-0.366l0.073,0.073l0,-0.001Zm-1.904,0.83c0.781,-0.358 1.375,-0.667 1.782,-0.928c0.049,-0.033 0.098,-0.049 0.146,-0.049c0.065,0 0.114,0.041 0.146,0.122c0.033,0.049 0.049,0.098 0.049,0.146c0,0.065 -0.033,0.122 -0.098,0.171c-0.374,0.228 -0.798,0.456 -1.27,0.684c-1.774,0.846 -2.881,1.489 -3.32,1.929c-0.944,0.911 -1.416,1.88 -1.416,2.905l0,0.195c0.033,0.635 0.228,1.123 0.586,1.465c0.374,0.342 0.822,0.562 1.343,0.659c0.244,0.049 0.488,0.073 0.732,0.073c0.326,0 0.651,-0.049 0.977,-0.146c0.13,-0.049 0.7,-0.309 1.709,-0.781c0.033,-0.017 0.065,-0.025 0.098,-0.025c0.081,0 0.155,0.049 0.22,0.146c0.033,0.049 0.049,0.09 0.049,0.122c0,0.065 -0.049,0.122 -0.146,0.171c-1.416,0.651 -2.393,0.977 -2.93,0.977c-1.188,0 -2.067,-0.399 -2.637,-1.196c-0.342,-0.472 -0.513,-0.993 -0.513,-1.562c0,-0.505 0.13,-1.05 0.391,-1.636c0.472,-1.058 1.237,-1.904 2.295,-2.539c0.342,-0.212 0.944,-0.513 1.807,-0.903l0,0.001Zm-10.229,8.545c1.123,1.188 1.831,2.043 2.124,2.563l0,0.025c0,0.033 -0.008,0.057 -0.024,0.073l-0.098,0c-0.195,-0.195 -0.423,-0.456 -0.684,-0.781c-0.358,-0.472 -0.57,-0.749 -0.635,-0.83c-0.57,-0.667 -0.993,-1.131 -1.27,-1.392c-0.033,-0.017 -0.106,-0.073 -0.22,-0.171c-0.114,-0.098 -0.212,-0.179 -0.293,-0.244c-0.195,-0.195 -0.293,-0.35 -0.293,-0.464l0,-0.049c0.016,-0.033 0.041,-0.049 0.073,-0.049l0.098,0c0.033,0.017 0.049,0.033 0.049,0.049c0,0.017 -0.016,0.033 -0.049,0.049c0,0.017 0.008,0.033 0.024,0.049c0.049,0.049 0.09,0.09 0.122,0.122c0.114,0.114 0.22,0.212 0.317,0.293c0.309,0.293 0.562,0.545 0.757,0.757l-0,-0.001Zm4.297,3.076c0.033,0.017 0.049,0.041 0.049,0.073c0,0.033 -0.016,0.065 -0.049,0.098c-0.016,0.017 -0.041,0.025 -0.073,0.025c-0.016,0 -0.041,-0.008 -0.073,-0.025c-1.383,-1.367 -2.49,-2.604 -3.32,-3.711c-0.309,-0.423 -0.789,-1.001 -1.44,-1.733c-0.57,-0.635 -0.92,-1.074 -1.05,-1.318l0,-0.098l0.024,0c0.016,0 0.033,0.008 0.049,0.025c3.923,4.427 5.884,6.649 5.884,6.665l-0,-0Zm-5.518,-8.032c3.06,2.686 5.713,5.298 7.959,7.837c0.033,0.033 0.049,0.065 0.049,0.098c0,0.017 -0.016,0.041 -0.049,0.073c-0.033,0.033 -0.065,0.049 -0.098,0.049c-0.016,0 -0.041,-0.016 -0.073,-0.049c-1.09,-1.204 -3.703,-3.849 -7.837,-7.935c-0.016,-0.017 -0.024,-0.033 -0.024,-0.049c0,-0.017 0.008,-0.025 0.024,-0.025l0.024,-0.025c0.016,0 0.024,0.008 0.024,0.025l-0,0Zm6.201,4.077c1.253,1.481 2.336,2.799 3.247,3.955c0.033,0.033 0.049,0.065 0.049,0.098c0,0.017 -0.016,0.041 -0.049,0.073c-0.033,0.033 -0.065,0.049 -0.098,0.049c-0.016,0 -0.041,-0.016 -0.073,-0.049c-2.783,-3.451 -4.696,-5.656 -5.737,-6.616c-1.058,-0.993 -1.79,-1.733 -2.197,-2.222c-0.472,-0.57 -0.708,-0.977 -0.708,-1.221c0,-0.049 0.008,-0.09 0.024,-0.122c0.016,-0.017 0.033,-0.025 0.049,-0.025l0.024,0c0.033,0.017 0.049,0.033 0.049,0.049l0,0.073c0,0.163 0.106,0.382 0.317,0.659c0.228,0.293 0.537,0.635 0.928,1.025c0.407,0.439 1.099,1.107 2.075,2.002c0.521,0.488 1.221,1.245 2.1,2.271l-0,-0Zm-0.122,-2.173c1.774,1.546 3.28,3.369 4.517,5.469c0.016,0.017 0.024,0.041 0.024,0.073c0,0.033 -0.024,0.065 -0.073,0.098c-0.016,0.017 -0.041,0.025 -0.073,0.025c-0.033,0 -0.065,-0.024 -0.098,-0.073c-1.286,-2.165 -2.897,-4.077 -4.834,-5.737c-2.376,-2.051 -3.776,-3.581 -4.199,-4.59l-0.024,0l0,-0.049c0,-0.033 0.016,-0.057 0.049,-0.073l0.049,0c0.016,0 0.033,0.008 0.049,0.025l0.024,0l0,0.025c0.016,0.017 0.024,0.033 0.024,0.049c0.081,0.146 0.179,0.269 0.293,0.366c0.016,0.017 0.024,0.033 0.024,0.049c-0.016,0.017 -0.041,0.025 -0.073,0.025c0.423,0.716 1.864,2.157 4.321,4.321l-0,-0.002Zm3.54,1.855c0.944,0.846 1.611,1.66 2.002,2.441l0,0.049c0,0.033 -0.008,0.057 -0.024,0.073c-0.016,0.017 -0.041,0.025 -0.073,0.025c-0.016,0 -0.033,-0.008 -0.049,-0.025c-0.146,-0.163 -0.317,-0.382 -0.513,-0.659c-0.26,-0.358 -0.431,-0.578 -0.513,-0.659c-0.114,-0.13 -0.431,-0.505 -0.952,-1.123c-0.016,-0.017 -0.024,-0.033 -0.024,-0.049c0,-0.033 0.008,-0.057 0.024,-0.073c0.016,-0.017 0.033,-0.025 0.049,-0.025c0.033,0 0.057,0.008 0.073,0.025l0,-0Zm3.076,1.318c0.26,0.277 0.399,0.423 0.415,0.439c0.016,0.017 0.024,0.033 0.024,0.049c0,0.017 -0.008,0.033 -0.024,0.049c-0.016,0.017 -0.041,0.025 -0.073,0.025l-0.024,0c-0.114,-0.017 -0.391,-0.261 -0.83,-0.732c-0.439,-0.488 -0.659,-0.749 -0.659,-0.781l-0.073,0c-0.016,-0.017 -0.024,-0.033 -0.024,-0.049l0,-0.025c0.016,-0.033 0.041,-0.049 0.073,-0.049c0.098,0 0.293,0.146 0.586,0.439c0.065,0.065 0.163,0.171 0.293,0.317c0.13,0.13 0.236,0.236 0.317,0.317l0,-0Zm0.757,-1.489c0.114,0.13 0.391,0.374 0.83,0.732c0.033,0.017 0.049,0.041 0.049,0.073c0,0.017 -0.008,0.033 -0.024,0.049c-0.016,0.033 -0.049,0.049 -0.098,0.049l-0.024,0c-0.26,-0.065 -0.545,-0.285 -0.854,-0.659c-0.358,-0.456 -0.586,-0.757 -0.684,-0.903l0,-0.025c0,-0.033 0.008,-0.057 0.024,-0.073c0.016,-0.017 0.033,-0.025 0.049,-0.025c0.016,0 0.033,0.008 0.049,0.025c0.065,0.049 0.293,0.301 0.684,0.757l0,0Zm-7.324,-3.247c0.521,0.423 0.814,0.684 0.879,0.781l0,0.025c0,0.017 -0.008,0.033 -0.024,0.049c-0.016,0.017 -0.033,0.025 -0.049,0.025l-0.024,0c-0.114,-0.049 -0.521,-0.366 -1.221,-0.952c-0.667,-0.521 -1.18,-0.96 -1.538,-1.318c-0.57,-0.521 -0.968,-0.936 -1.196,-1.245c-0.26,-0.342 -0.391,-0.61 -0.391,-0.806c0,-0.049 0.008,-0.09 0.024,-0.122c0.016,-0.017 0.033,-0.025 0.049,-0.025c0.033,0 0.057,0.008 0.073,0.025c0.228,0.651 0.895,1.449 2.002,2.393c0.342,0.293 0.814,0.684 1.416,1.172l0,-0.001Zm-2.173,-4.761c0.13,0.244 1.416,1.644 3.857,4.199c0.033,0.033 0.049,0.057 0.049,0.073c0,0.033 -0.008,0.057 -0.024,0.073c-0.016,0.017 -0.041,0.025 -0.073,0.025c-0.033,0 -0.065,-0.008 -0.098,-0.025c-0.895,-0.749 -1.676,-1.473 -2.344,-2.173c-0.944,-0.96 -1.44,-1.676 -1.489,-2.148c0,-0.017 0.016,-0.033 0.049,-0.049c0.033,0 0.057,0.008 0.073,0.025l0,-0.001Zm2.759,1.172c0.716,0.651 1.172,1.188 1.367,1.611l0,0.049c0,0.033 -0.016,0.057 -0.049,0.073c-0.016,0.017 -0.033,0.025 -0.049,0.025c-0.016,0 -0.041,-0.016 -0.073,-0.049c-0.521,-0.7 -1.058,-1.294 -1.611,-1.782c-0.618,-0.57 -1.009,-0.952 -1.172,-1.147l-0.024,0c-0.065,-0.065 -0.114,-0.13 -0.146,-0.195c-0.016,-0.017 -0.024,-0.033 -0.024,-0.049c0,-0.017 0.008,-0.025 0.024,-0.025c0.033,-0.017 0.057,-0.025 0.073,-0.025c0.016,0 0.024,0.008 0.024,0.025c0.179,0.163 0.456,0.407 0.83,0.732c0.374,0.326 0.651,0.578 0.83,0.757l-0,-0Zm1.709,0.122c0.358,0.407 0.553,0.659 0.586,0.757c0.016,0.017 0.024,0.033 0.024,0.049c0,0.033 -0.016,0.057 -0.049,0.073c-0.016,0.017 -0.033,0.025 -0.049,0.025c-0.016,0 -0.041,-0.016 -0.073,-0.049l-1.392,-1.611c-0.342,-0.391 -0.635,-0.708 -0.879,-0.952l-0.439,-0.488l-0.024,0c-0.016,0 -0.033,-0.008 -0.049,-0.025l0,-0.049c0,-0.017 0.008,-0.025 0.024,-0.025c0.016,-0.017 0.041,-0.025 0.073,-0.025c0.13,0 0.334,0.146 0.61,0.439c0.098,0.114 0.22,0.252 0.366,0.415l0.22,0.269c0.374,0.407 0.724,0.806 1.05,1.196l-0,0.001Zm1.001,-1.294c0.537,0.521 0.977,0.944 1.318,1.27c0.016,0.017 0.024,0.041 0.024,0.073c0,0.017 -0.008,0.033 -0.024,0.049c-0.016,0.033 -0.041,0.049 -0.073,0.049c-0.016,0 -0.033,-0.008 -0.049,-0.025c-0.732,-0.505 -1.603,-1.359 -2.612,-2.563c-0.016,-0.033 -0.024,-0.057 -0.024,-0.073c0,-0.017 0.008,-0.033 0.024,-0.049c0.016,-0.017 0.033,-0.025 0.049,-0.025c0.016,0 0.033,0.008 0.049,0.025c0.163,0.163 0.602,0.586 1.318,1.27l0,0Zm1.147,-0.464c0.732,0.667 1.099,1.009 1.099,1.025c0.016,0 0.024,0.008 0.024,0.025c0,0.017 -0.008,0.033 -0.024,0.049c-0.016,0.033 -0.033,0.049 -0.049,0.049c-0.016,0 -0.033,-0.008 -0.049,-0.025c-0.309,-0.195 -0.724,-0.553 -1.245,-1.074c-0.488,-0.488 -0.806,-0.903 -0.952,-1.245c-0.016,-0.017 -0.024,-0.033 -0.024,-0.049c0,-0.017 0.016,-0.033 0.049,-0.049c0.016,-0.017 0.033,-0.025 0.049,-0.025c0.016,0 0.033,0.016 0.049,0.049c0.228,0.391 0.586,0.814 1.074,1.27l0,0Zm1.636,-0.513c0.407,0.326 0.667,0.57 0.781,0.732l0,0.025c0,0.033 -0.008,0.057 -0.024,0.073c-0.016,0.017 -0.033,0.025 -0.049,0.025c-0.016,0 -0.033,-0.008 -0.049,-0.025c-0.179,-0.114 -0.716,-0.553 -1.611,-1.318c-0.195,-0.146 -0.374,-0.35 -0.537,-0.61l0,-0.025c0,-0.033 0.008,-0.057 0.024,-0.073l0.024,-0.025c0.016,0 0.033,0.008 0.049,0.025c0.065,0.049 0.163,0.147 0.293,0.293c0.114,0.13 0.212,0.22 0.293,0.269c0.016,0 0.285,0.212 0.806,0.635l-0,-0Zm3.296,9.473c0.114,0.114 0.993,1.123 2.637,3.027c0.033,0.017 0.049,0.041 0.049,0.073c0,0.033 -0.016,0.065 -0.049,0.098c-0.016,0.017 -0.041,0.025 -0.073,0.025c-0.016,0 -0.041,-0.008 -0.073,-0.025c-1.709,-1.986 -2.637,-3.044 -2.783,-3.174c-1.286,-1.188 -2.01,-1.969 -2.173,-2.344c-0.016,-0.017 -0.024,-0.033 -0.024,-0.049c0,-0.033 0.016,-0.057 0.049,-0.073l0.049,0c0.016,0 0.033,0.008 0.049,0.025c0.098,0.179 0.879,0.985 2.344,2.417l0,-0Zm1.758,-0.513c1.611,1.432 2.743,2.645 3.394,3.638c0.016,0.017 0.024,0.033 0.024,0.049c0,0.033 -0.016,0.057 -0.049,0.073c-0.033,0.017 -0.057,0.025 -0.073,0.025c-0.033,0 -0.065,-0.016 -0.098,-0.049c-0.928,-1.221 -2.091,-2.45 -3.491,-3.687c-2.002,-1.79 -3.206,-2.93 -3.613,-3.418l0,-0.073c0.016,-0.017 0.033,-0.025 0.049,-0.025c0.016,0 0.033,0.008 0.049,0.025c0.586,0.537 1.855,1.685 3.809,3.442l-0,-0Zm2.319,0.781c1.074,1.139 1.929,2.1 2.563,2.881c0.016,0.033 0.024,0.057 0.024,0.073c0,0.033 -0.016,0.065 -0.049,0.098c-0.016,0.017 -0.041,0.025 -0.073,0.025c-0.016,0 -0.041,-0.008 -0.073,-0.025c-1.025,-1.237 -2.653,-3.027 -4.883,-5.371c-0.586,-0.602 -1.392,-1.326 -2.417,-2.173c-0.114,-0.098 -0.35,-0.317 -0.708,-0.659c-0.293,-0.26 -0.439,-0.415 -0.439,-0.464c0,0.017 -0.016,0.033 -0.049,0.049c-0.033,0 -0.049,-0.008 -0.049,-0.025c-0.016,-0.033 -0.024,-0.057 -0.024,-0.073c0,-0.033 0.016,-0.057 0.049,-0.073l0.024,0c0.13,0 0.317,0.114 0.562,0.342c0.065,0.065 0.155,0.163 0.269,0.293c0.114,0.114 0.187,0.187 0.22,0.22c0.146,0.114 0.529,0.431 1.147,0.952c0.472,0.391 0.846,0.724 1.123,1.001c0.049,0.049 0.977,1.025 2.783,2.93l-0,0Zm-0.977,-3.223c2.669,2.539 4.403,4.264 5.2,5.176c0.033,0.017 0.049,0.041 0.049,0.073c0,0.033 -0.016,0.065 -0.049,0.098c-0.016,0.017 -0.041,0.025 -0.073,0.025c-0.016,0 -0.041,-0.008 -0.073,-0.025c-2.458,-2.49 -4.191,-4.215 -5.2,-5.176c-2.36,-2.246 -4.102,-3.979 -5.225,-5.2c-0.016,-0.017 -0.024,-0.033 -0.024,-0.049c0,-0.017 0.008,-0.033 0.024,-0.049c0.016,-0.017 0.033,-0.025 0.049,-0.025c0.016,0 0.033,0.008 0.049,0.025c1.123,1.156 2.881,2.865 5.273,5.127l-0,-0Zm5.762,4.004c0.342,0.358 0.635,0.643 0.879,0.854c0.033,0.017 0.049,0.041 0.049,0.073c0,0.017 -0.016,0.041 -0.049,0.073c-0.033,0.033 -0.065,0.049 -0.098,0.049c-0.016,0 -0.041,-0.008 -0.073,-0.025c-0.439,-0.374 -1.156,-1.131 -2.148,-2.271c-0.016,-0.017 -0.024,-0.033 -0.024,-0.049c0,-0.033 0.008,-0.057 0.024,-0.073c0.016,-0.017 0.033,-0.025 0.049,-0.025c0.033,0 0.057,0.008 0.073,0.025l0.22,0.22c-0.033,-0.017 0.09,0.04 0.366,0.171c0.016,0.017 0.024,0.041 0.024,0.073c-0.016,0.017 -0.041,0.025 -0.073,0.025c-0.016,-0.017 -0.041,-0.025 -0.073,-0.025c0.081,0.065 0.366,0.366 0.854,0.903l-0,0Zm1.367,-0.317c0,0.033 -0.008,0.057 -0.024,0.073c-0.016,0.017 -0.033,0.025 -0.049,0.025c-0.016,0 -0.033,-0.008 -0.049,-0.025c-0.179,-0.13 -0.521,-0.529 -1.025,-1.196c-0.016,-0.017 -0.024,-0.033 -0.024,-0.049c0,-0.033 0.016,-0.057 0.049,-0.073c0.016,-0.017 0.033,-0.025 0.049,-0.025c0.033,0 0.057,0.016 0.073,0.049c0.016,0.017 0.187,0.22 0.513,0.61c0.309,0.391 0.472,0.586 0.488,0.586l0,0.025l0,0Zm-6.543,-5.176c0.977,0.863 1.693,1.603 2.148,2.222c0.016,0.017 0.024,0.033 0.024,0.049c0,0.033 -0.016,0.057 -0.049,0.073c-0.033,0.017 -0.057,0.025 -0.073,0.025c-0.033,0 -0.057,-0.008 -0.073,-0.025c-0.488,-0.618 -1.253,-1.383 -2.295,-2.295c-0.586,-0.537 -1.318,-1.261 -2.197,-2.173c-0.407,-0.456 -1.147,-1.164 -2.222,-2.124c-0.993,-0.879 -1.733,-1.595 -2.222,-2.148l0,-0.025c0,-0.033 0.008,-0.057 0.024,-0.073l0.024,-0.025c0.016,0 0.033,0.008 0.049,0.025c0.391,0.391 1.172,1.107 2.344,2.148c0.993,0.879 1.758,1.619 2.295,2.222c0.358,0.407 1.099,1.115 2.222,2.124l-0,0Zm-0.586,-2.002c1.009,1.204 1.872,2.124 2.588,2.759c0.033,0.033 0.049,0.057 0.049,0.073c0,0.033 -0.008,0.057 -0.024,0.073c-0.033,0.033 -0.065,0.049 -0.098,0.049c-0.033,0 -0.057,-0.008 -0.073,-0.025c-0.602,-0.505 -1.416,-1.367 -2.441,-2.588c-1.009,-1.204 -1.823,-2.059 -2.441,-2.563c-1.139,-0.96 -1.831,-1.554 -2.075,-1.782c-0.618,-0.586 -0.928,-0.993 -0.928,-1.221l0,-0.025c0,-0.033 0.016,-0.049 0.049,-0.049l0.024,0c0.016,0 0.033,0.008 0.049,0.025c0.065,0.277 0.505,0.765 1.318,1.465c0.228,0.179 0.562,0.448 1.001,0.806c0.456,0.374 0.789,0.651 1.001,0.83c0.391,0.342 1.058,1.066 2.002,2.173l-0,0Zm-1.318,-3.149c0.911,0.879 2.262,2.303 4.053,4.272c0.016,0.033 0.024,0.057 0.024,0.073c0,0.049 -0.016,0.09 -0.049,0.122c-0.016,0.017 -0.041,0.025 -0.073,0.025c-0.016,0 -0.041,-0.008 -0.073,-0.025c-2.441,-2.62 -3.833,-4.102 -4.175,-4.443c-2.246,-2.051 -3.516,-3.288 -3.809,-3.711c-0.016,-0.017 -0.024,-0.033 -0.024,-0.049c0,-0.017 0.008,-0.025 0.024,-0.025l0.024,0c0.016,0 0.033,0.008 0.049,0.025c0.439,0.586 1.082,1.237 1.929,1.953c1.253,1.042 1.953,1.636 2.1,1.782l-0,-0Zm3.882,1.855c0.277,0.049 0.488,0.163 0.635,0.342c0.016,0.017 0.024,0.033 0.024,0.049c0,0.017 -0.008,0.033 -0.024,0.049c-0.016,0.033 -0.033,0.049 -0.049,0.049l-0.024,0l-0.439,-0.269l-0.073,-0.025l0,0.025c0,0.049 -0.024,0.081 -0.073,0.098l-0.024,0c-0.049,0 -0.081,-0.024 -0.098,-0.073c-0.244,-0.618 -0.741,-1.261 -1.489,-1.929c-0.179,-0.146 -0.496,-0.415 -0.952,-0.806c-0.407,-0.326 -0.716,-0.586 -0.928,-0.781c-2.441,-2.327 -3.939,-3.825 -4.492,-4.492c-0.016,-0.017 -0.024,-0.033 -0.024,-0.049c0,-0.017 0.008,-0.033 0.024,-0.049c0.033,-0.033 0.057,-0.049 0.073,-0.049c0.016,0 0.033,0.016 0.049,0.049c0.618,0.7 1.432,1.514 2.441,2.441c0.195,0.163 0.578,0.521 1.147,1.074c0.472,0.456 0.854,0.814 1.147,1.074c1.4,1.221 2.059,1.79 1.978,1.709c0.618,0.602 1.009,1.123 1.172,1.562l0,-0Zm-2.881,-5.664c0.618,0.781 1.074,1.318 1.367,1.611c-0.016,0 0.382,0.342 1.196,1.025c0.488,0.407 0.798,0.814 0.928,1.221c0.016,0.017 0.024,0.033 0.024,0.049c0,0.033 -0.024,0.057 -0.073,0.073c-0.033,0.017 -0.057,0.025 -0.073,0.025c-0.033,0 -0.057,-0.016 -0.073,-0.049c-0.212,-0.423 -0.602,-0.879 -1.172,-1.367c-0.716,-0.618 -1.156,-1.025 -1.318,-1.221c-1.481,-1.79 -2.36,-2.816 -2.637,-3.076l-5.542,-5.054c-0.016,0 -0.024,-0.008 -0.024,-0.025c-0.016,0 -0.024,-0.016 -0.024,-0.049l-0.195,-0.269l0,-0.049c0.016,-0.033 0.041,-0.049 0.073,-0.049l0.049,0c0.033,0.017 0.057,0.041 0.073,0.073l0.024,0.073c0.863,0.993 1.807,1.921 2.832,2.783c1.855,1.53 2.913,2.417 3.174,2.661c0.374,0.358 0.838,0.895 1.392,1.611l-0,-0Zm-1.099,-2.954c2.132,2.067 3.581,3.703 4.346,4.907c0.016,0.017 0.024,0.041 0.024,0.073c0,0.033 -0.024,0.057 -0.073,0.073c-0.033,0.017 -0.057,0.025 -0.073,0.025c-0.033,0 -0.057,-0.016 -0.073,-0.049c-1.286,-1.823 -2.816,-3.532 -4.59,-5.127c-0.26,-0.244 -0.635,-0.562 -1.123,-0.952c-0.57,-0.456 -0.952,-0.765 -1.147,-0.928c-0.879,-0.749 -1.522,-1.465 -1.929,-2.148l0,-0.025c0,-0.033 0.008,-0.057 0.024,-0.073l0.024,0c0.016,0 0.033,0.008 0.049,0.025c0.488,0.635 1.213,1.359 2.173,2.173c1.335,1.107 2.124,1.782 2.368,2.026l-0,-0Zm1.099,-0.513c1.823,1.921 2.832,2.954 3.027,3.101c0.033,0.033 0.049,0.065 0.049,0.098c0,0.017 -0.008,0.033 -0.024,0.049c-0.033,0.049 -0.065,0.073 -0.098,0.073c-0.016,0 -0.033,-0.008 -0.049,-0.025c-0.081,-0.065 -1.107,-1.115 -3.076,-3.149c-0.586,-0.602 -1.864,-1.75 -3.833,-3.442c-0.016,-0.017 -0.024,-0.033 -0.024,-0.049c0,-0.017 0.008,-0.033 0.024,-0.049c0.016,-0.017 0.033,-0.025 0.049,-0.025c0.016,0 0.033,0.008 0.049,0.025c2.018,1.644 3.32,2.775 3.906,3.394l0,0Zm0.513,-1.001c1.058,0.879 1.758,1.554 2.1,2.026l0,0.049c0,0.033 -0.008,0.057 -0.024,0.073c-0.016,0.017 -0.041,0.025 -0.073,0.025c-0.016,0 -0.033,-0.008 -0.049,-0.025c-0.977,-0.977 -1.676,-1.636 -2.1,-1.978c-1.383,-1.156 -2.116,-1.766 -2.197,-1.831l0,-0.098c0.016,-0.033 0.033,-0.049 0.049,-0.049c0.016,0 0.033,0.008 0.049,0.025c0.7,0.521 1.449,1.115 2.246,1.782l0,-0Zm-8.667,-0.879c0.13,0.146 0.228,0.26 0.293,0.342c0.016,0.017 0.024,0.033 0.024,0.049c0,0.017 -0.008,0.041 -0.024,0.073c-0.016,0.033 -0.041,0.049 -0.073,0.049c-0.016,0 -0.033,-0.008 -0.049,-0.025c-0.146,-0.098 -0.358,-0.317 -0.635,-0.659c-0.065,-0.081 -0.269,-0.325 -0.61,-0.732c-0.016,-0.033 -0.024,-0.057 -0.024,-0.073c0,-0.017 0.008,-0.033 0.024,-0.049c0.016,-0.033 0.033,-0.049 0.049,-0.049c0.033,0 0.057,0.016 0.073,0.049c0.114,0.098 0.326,0.325 0.635,0.684c0.065,0.081 0.171,0.195 0.317,0.342l0,0Zm-1.074,0.757c0,0.033 -0.008,0.057 -0.024,0.073l-0.073,0c-0.244,-0.114 -0.521,-0.358 -0.83,-0.732c-0.228,-0.26 -0.399,-0.529 -0.513,-0.806l0,-0.025c0,-0.017 0.016,-0.033 0.049,-0.049l0.024,0c0.016,0 0.033,0.008 0.049,0.025c0.146,0.309 0.358,0.594 0.635,0.854c0.439,0.423 0.667,0.635 0.684,0.635l0,0.025l0,-0Zm-1.685,0.025c0.26,0.228 0.407,0.383 0.439,0.464l0,0.025c0,0.017 -0.008,0.033 -0.024,0.049c-0.016,0.017 -0.033,0.025 -0.049,0.025l-0.024,0c-0.049,-0.033 -0.212,-0.171 -0.488,-0.415c-0.195,-0.179 -0.399,-0.366 -0.61,-0.562c-0.277,-0.228 -0.464,-0.391 -0.562,-0.488c-0.195,-0.179 -0.301,-0.269 -0.317,-0.269c-0.033,-0.017 -0.049,-0.041 -0.049,-0.073l0,-0.025c0.016,-0.033 0.041,-0.049 0.073,-0.049l0.024,0c0.098,0.033 0.399,0.269 0.903,0.708c0.244,0.195 0.472,0.399 0.684,0.61l0,-0Zm-1.416,0.61c0.358,0.309 0.765,0.643 1.221,1.001c0.016,0.017 0.024,0.033 0.024,0.049c0,0.017 -0.008,0.033 -0.024,0.049c-0.016,0.017 -0.033,0.025 -0.049,0.025l-0.049,0c-0.342,-0.146 -0.903,-0.602 -1.685,-1.367c-0.439,-0.423 -0.659,-0.7 -0.659,-0.83c0,-0.049 0.024,-0.081 0.073,-0.098c0.033,0 0.057,0.016 0.073,0.049c0,0.017 -0.008,0.033 -0.024,0.049l0,0.025c0,0.065 0.366,0.415 1.099,1.05l0,-0.001Zm0.122,1.636c1.042,0.846 1.652,1.449 1.831,1.807l0,0.025c0,0.049 -0.016,0.09 -0.049,0.122c-0.016,0.017 -0.041,0.025 -0.073,0.025c-0.033,0 -0.057,-0.024 -0.073,-0.073c-0.114,-0.212 -0.749,-0.83 -1.904,-1.855c-0.863,-0.765 -1.644,-1.514 -2.344,-2.246c-0.033,-0.017 -0.049,-0.033 -0.049,-0.049c0,-0.017 0.008,-0.033 0.024,-0.049c0.016,-0.017 0.041,-0.025 0.073,-0.025l0.049,0c0.033,0.017 0.09,0.041 0.171,0.073c0.081,0.033 0.138,0.057 0.171,0.073c0.016,0.017 0.024,0.033 0.024,0.049l0,0.025c0,0.017 -0.016,0.025 -0.049,0.025c-0.049,-0.017 -0.065,-0.025 -0.049,-0.025c0.212,0.195 0.586,0.553 1.123,1.074c0.456,0.456 0.83,0.798 1.123,1.025l-0,-0.001Zm-1.343,1.074c1.367,1.432 2.132,2.279 2.295,2.539c0.016,0.017 0.024,0.033 0.024,0.049c0,0.033 -0.024,0.057 -0.073,0.073c-0.016,0.017 -0.033,0.025 -0.049,0.025c-0.033,0 -0.057,-0.016 -0.073,-0.049c-0.114,-0.163 -1.017,-1.139 -2.71,-2.93c-0.684,-0.716 -1.139,-1.221 -1.367,-1.514c-0.212,-0.277 -0.317,-0.48 -0.317,-0.61l0,-0.049c0.016,-0.033 0.041,-0.049 0.073,-0.049c0.033,0 0.049,0.016 0.049,0.049c0,0.098 0.228,0.407 0.684,0.928c0.326,0.358 0.814,0.871 1.465,1.538l-0,-0Zm-0.024,1.929c0.505,0.505 0.773,0.789 0.806,0.855l0,0.049c0,0.017 -0.008,0.033 -0.024,0.049c-0.016,0.017 -0.033,0.025 -0.049,0.025l-0.024,0c-0.098,-0.049 -0.423,-0.358 -0.977,-0.928c-0.488,-0.488 -0.895,-0.92 -1.221,-1.294c-0.944,-1.074 -1.489,-1.847 -1.636,-2.319c0,-0.033 0.016,-0.057 0.049,-0.073c0.033,0 0.057,0.008 0.073,0.025c0.732,1.074 1.359,1.896 1.88,2.466c0.326,0.342 0.7,0.724 1.123,1.147l0,-0.001Zm-3.296,-1.538c0.033,0.049 0.35,0.448 0.952,1.196c0.846,1.074 1.302,1.693 1.367,1.855l0,0.025c0,0.017 -0.016,0.033 -0.049,0.049c-0.016,0.017 -0.033,0.025 -0.049,0.025c-0.016,0 -0.033,-0.008 -0.049,-0.025c-0.049,-0.065 -0.659,-0.846 -1.831,-2.344c-0.016,-0.017 -0.098,-0.114 -0.244,-0.293c-0.146,-0.163 -0.269,-0.309 -0.366,-0.439c-0.244,-0.326 -0.366,-0.553 -0.366,-0.684c0,-0.033 0.008,-0.057 0.024,-0.073l0.024,-0.025c0.016,0 0.033,0.008 0.049,0.025c0.016,0.017 0.024,0.041 0.024,0.073c0.016,0 0.187,0.212 0.513,0.635l-0,-0Z" style="fill:#999;fill-rule:nonzero;"/>
        </g>
    </g>
    <g id="TESTO">
        <g id="text8122">
            <path id="path8149" d="M38.952,137.262l-1.025,4.222c-0.034,0.139 -0.065,0.249 -0.092,0.33c-0.024,0.081 -0.063,0.143 -0.117,0.187c-0.051,0.046 -0.127,0.07 -0.227,0.07c-0.249,0 -0.374,-0.107 -0.374,-0.322c0,-0.056 0.024,-0.197 0.073,-0.421l1.022,-4.222c0.054,-0.225 0.105,-0.378 0.154,-0.461c0.049,-0.083 0.144,-0.125 0.286,-0.125c0.122,0 0.215,0.029 0.278,0.088c0.066,0.059 0.099,0.139 0.099,0.242c0,0.076 -0.026,0.214 -0.077,0.414l-0,-0Z" style="fill:#FDDEA2;fill-rule:nonzero;"/>
            <path id="path8151" d="M40.801,141.115l1.912,0c0.19,0 0.336,0.039 0.436,0.117c0.1,0.078 0.15,0.184 0.15,0.319c0,0.12 -0.04,0.221 -0.121,0.304c-0.078,0.083 -0.198,0.125 -0.359,0.125l-2.695,0c-0.183,0 -0.326,-0.05 -0.428,-0.15c-0.103,-0.103 -0.154,-0.222 -0.154,-0.359c0,-0.088 0.033,-0.204 0.099,-0.348c0.066,-0.146 0.138,-0.261 0.216,-0.344c0.325,-0.337 0.618,-0.625 0.879,-0.864c0.261,-0.242 0.448,-0.4 0.56,-0.476c0.2,-0.142 0.366,-0.283 0.498,-0.425c0.134,-0.144 0.236,-0.291 0.304,-0.439c0.071,-0.151 0.106,-0.299 0.106,-0.443c0,-0.156 -0.038,-0.295 -0.114,-0.417c-0.073,-0.125 -0.175,-0.221 -0.304,-0.289c-0.127,-0.068 -0.266,-0.103 -0.417,-0.103c-0.32,0 -0.571,0.14 -0.754,0.421c-0.024,0.037 -0.066,0.137 -0.125,0.3c-0.056,0.164 -0.121,0.289 -0.194,0.377c-0.071,0.088 -0.176,0.132 -0.315,0.132c-0.122,0 -0.223,-0.04 -0.304,-0.121c-0.081,-0.081 -0.121,-0.19 -0.121,-0.33c0,-0.168 0.038,-0.344 0.114,-0.527c0.076,-0.183 0.188,-0.349 0.337,-0.498c0.151,-0.149 0.342,-0.269 0.571,-0.359c0.232,-0.093 0.503,-0.139 0.813,-0.139c0.374,0 0.692,0.059 0.956,0.176c0.171,0.078 0.321,0.186 0.45,0.322c0.129,0.137 0.229,0.295 0.3,0.476c0.073,0.178 0.11,0.364 0.11,0.557c0,0.303 -0.076,0.579 -0.227,0.828c-0.149,0.247 -0.302,0.441 -0.458,0.582c-0.156,0.139 -0.419,0.359 -0.787,0.659c-0.366,0.3 -0.618,0.533 -0.754,0.699c-0.059,0.066 -0.118,0.145 -0.179,0.238l0,0Z" style="fill:#FDDEA2;fill-rule:nonzero;"/>
        </g>
        <g id="text8126">
            <path id="path8154" d="M38.877,176.707l-1.025,4.222c-0.034,0.139 -0.065,0.249 -0.092,0.33c-0.024,0.081 -0.063,0.143 -0.117,0.187c-0.051,0.046 -0.127,0.07 -0.227,0.07c-0.249,0 -0.374,-0.107 -0.374,-0.322c0,-0.056 0.024,-0.197 0.073,-0.421l1.022,-4.222c0.054,-0.225 0.105,-0.378 0.154,-0.461c0.049,-0.083 0.144,-0.125 0.286,-0.125c0.122,0 0.215,0.029 0.278,0.088c0.066,0.059 0.099,0.139 0.099,0.242c0,0.076 -0.026,0.214 -0.077,0.414l-0,0Z" style="fill:#FDDEA2;fill-rule:nonzero;"/>
            <path id="path8156" d="M41.678,180.959l0,-0.681l-1.838,0c-0.232,0 -0.407,-0.052 -0.524,-0.157c-0.115,-0.105 -0.172,-0.248 -0.172,-0.428c0,-0.046 0.009,-0.093 0.026,-0.139c0.017,-0.049 0.043,-0.099 0.077,-0.15c0.034,-0.054 0.07,-0.105 0.106,-0.154c0.037,-0.049 0.082,-0.109 0.135,-0.179l1.941,-2.596c0.127,-0.171 0.231,-0.294 0.311,-0.37c0.083,-0.078 0.182,-0.117 0.297,-0.117c0.371,0 0.557,0.212 0.557,0.637l0,2.834l0.157,0c0.188,0 0.338,0.026 0.45,0.077c0.115,0.051 0.172,0.164 0.172,0.337c0,0.142 -0.046,0.245 -0.139,0.311c-0.093,0.063 -0.232,0.095 -0.417,0.095l-0.223,0l0,0.681c0,0.188 -0.042,0.328 -0.125,0.421c-0.083,0.09 -0.194,0.135 -0.333,0.135c-0.137,0 -0.248,-0.046 -0.333,-0.139c-0.083,-0.095 -0.125,-0.234 -0.125,-0.417l0,-0Zm-1.575,-1.501l1.575,0l0,-2.128l-1.575,2.128Z" style="fill:#FDDEA2;fill-rule:nonzero;"/>
        </g>
        <g id="text8130">
            <path id="path8159" d="M38.972,216.152l-1.025,4.222c-0.034,0.139 -0.065,0.249 -0.092,0.33c-0.024,0.081 -0.063,0.143 -0.117,0.187c-0.051,0.046 -0.127,0.07 -0.227,0.07c-0.249,0 -0.374,-0.107 -0.374,-0.322c0,-0.056 0.024,-0.197 0.073,-0.421l1.022,-4.222c0.054,-0.225 0.105,-0.378 0.154,-0.461c0.049,-0.083 0.144,-0.125 0.286,-0.125c0.122,0 0.215,0.029 0.278,0.088c0.066,0.059 0.099,0.139 0.099,0.242c0,0.076 -0.026,0.214 -0.077,0.414l-0,0Z" style="fill:#FDDEA2;fill-rule:nonzero;"/>
            <path id="path8161" d="M39.649,216.863c0,-0.244 0.066,-0.474 0.198,-0.688c0.134,-0.217 0.33,-0.391 0.586,-0.52c0.259,-0.129 0.56,-0.194 0.905,-0.194c0.291,0 0.546,0.038 0.765,0.114c0.22,0.076 0.403,0.181 0.549,0.315c0.146,0.132 0.255,0.282 0.326,0.45c0.071,0.166 0.106,0.343 0.106,0.531c0,0.239 -0.062,0.453 -0.187,0.641c-0.122,0.188 -0.305,0.342 -0.549,0.461c0.208,0.081 0.38,0.187 0.516,0.319c0.137,0.129 0.239,0.281 0.308,0.454c0.071,0.171 0.106,0.361 0.106,0.571c0,0.308 -0.074,0.587 -0.223,0.839c-0.149,0.249 -0.367,0.444 -0.656,0.586c-0.288,0.142 -0.627,0.212 -1.018,0.212c-0.405,0 -0.752,-0.071 -1.04,-0.212c-0.288,-0.142 -0.505,-0.336 -0.652,-0.582c-0.146,-0.249 -0.22,-0.527 -0.22,-0.835c0,-0.657 0.31,-1.107 0.93,-1.351c-0.5,-0.234 -0.751,-0.604 -0.751,-1.11l0,0Zm2.626,2.424c0,-0.19 -0.039,-0.356 -0.117,-0.498c-0.078,-0.142 -0.188,-0.25 -0.33,-0.326c-0.142,-0.076 -0.3,-0.114 -0.476,-0.114c-0.249,0 -0.458,0.083 -0.626,0.249c-0.168,0.166 -0.253,0.398 -0.253,0.696c0,0.19 0.039,0.359 0.117,0.505c0.081,0.144 0.189,0.256 0.326,0.337c0.137,0.078 0.289,0.117 0.458,0.117c0.171,0 0.325,-0.04 0.461,-0.121c0.137,-0.081 0.244,-0.194 0.322,-0.341c0.078,-0.146 0.117,-0.315 0.117,-0.505l0,0Zm-0.916,-3.127c-0.229,0 -0.415,0.072 -0.557,0.216c-0.139,0.142 -0.209,0.325 -0.209,0.549c0,0.208 0.072,0.381 0.216,0.52c0.144,0.137 0.33,0.205 0.557,0.205c0.115,0 0.219,-0.018 0.311,-0.055c0.095,-0.037 0.176,-0.087 0.242,-0.15c0.068,-0.066 0.121,-0.143 0.157,-0.231c0.037,-0.09 0.055,-0.189 0.055,-0.297c0,-0.144 -0.033,-0.273 -0.099,-0.388c-0.063,-0.115 -0.154,-0.205 -0.271,-0.271c-0.117,-0.066 -0.251,-0.099 -0.403,-0.099l-0,-0Z" style="fill:#FDDEA2;fill-rule:nonzero;"/>
        </g>
        <g id="text8134">
            <path id="path8164" d="M36.722,255.597l-1.025,4.222c-0.034,0.139 -0.065,0.249 -0.092,0.33c-0.024,0.081 -0.063,0.143 -0.117,0.187c-0.051,0.046 -0.127,0.07 -0.227,0.07c-0.249,0 -0.374,-0.107 -0.374,-0.322c0,-0.056 0.024,-0.197 0.073,-0.421l1.022,-4.222c0.054,-0.225 0.105,-0.378 0.154,-0.461c0.049,-0.083 0.144,-0.125 0.286,-0.125c0.122,0 0.215,0.029 0.278,0.088c0.066,0.059 0.099,0.139 0.099,0.242c0,0.076 -0.026,0.214 -0.077,0.414l-0,0Z" style="fill:#FDDEA2;fill-rule:nonzero;"/>
            <path id="path8166" d="M39.014,259.812l0,-3.333c-0.62,0.476 -1.038,0.714 -1.252,0.714c-0.103,0 -0.194,-0.04 -0.275,-0.121c-0.078,-0.083 -0.117,-0.178 -0.117,-0.286c0,-0.125 0.039,-0.216 0.117,-0.275c0.078,-0.059 0.216,-0.134 0.414,-0.227c0.295,-0.139 0.531,-0.286 0.707,-0.439c0.178,-0.154 0.336,-0.326 0.472,-0.516c0.137,-0.19 0.226,-0.308 0.267,-0.352c0.042,-0.044 0.12,-0.066 0.234,-0.066c0.129,0 0.233,0.05 0.311,0.15c0.078,0.1 0.117,0.238 0.117,0.414l0,4.193c0,0.491 -0.167,0.736 -0.502,0.736c-0.149,0 -0.269,-0.05 -0.359,-0.15c-0.09,-0.1 -0.135,-0.248 -0.135,-0.443l0,0Z" style="fill:#FDDEA2;fill-rule:nonzero;"/>
            <path id="path8168" d="M42.709,257.41c0.166,-0.198 0.347,-0.344 0.542,-0.439c0.195,-0.095 0.414,-0.143 0.656,-0.143c0.232,0 0.446,0.044 0.641,0.132c0.198,0.085 0.37,0.209 0.516,0.37c0.149,0.159 0.264,0.347 0.344,0.564c0.081,0.217 0.121,0.444 0.121,0.681c0,0.344 -0.079,0.657 -0.238,0.937c-0.156,0.281 -0.376,0.5 -0.659,0.659c-0.281,0.156 -0.599,0.234 -0.956,0.234c-0.41,0 -0.764,-0.1 -1.062,-0.3c-0.298,-0.2 -0.526,-0.496 -0.685,-0.886c-0.156,-0.393 -0.234,-0.873 -0.234,-1.439c0,-0.461 0.048,-0.874 0.143,-1.238c0.095,-0.364 0.232,-0.665 0.41,-0.905c0.178,-0.239 0.394,-0.42 0.648,-0.542c0.254,-0.122 0.543,-0.183 0.868,-0.183c0.313,0 0.587,0.061 0.824,0.183c0.239,0.122 0.419,0.273 0.538,0.454c0.122,0.181 0.183,0.354 0.183,0.52c0,0.1 -0.038,0.192 -0.114,0.275c-0.076,0.081 -0.172,0.121 -0.289,0.121c-0.103,0 -0.198,-0.032 -0.286,-0.095c-0.088,-0.066 -0.153,-0.156 -0.194,-0.271c-0.056,-0.146 -0.145,-0.264 -0.267,-0.352c-0.122,-0.09 -0.264,-0.135 -0.425,-0.135c-0.129,0 -0.259,0.038 -0.388,0.114c-0.127,0.073 -0.234,0.173 -0.322,0.3c-0.178,0.259 -0.283,0.72 -0.315,1.384l-0,-0Zm0.989,2.274c0.247,0 0.45,-0.1 0.612,-0.3c0.161,-0.203 0.242,-0.468 0.242,-0.795c0,-0.222 -0.038,-0.413 -0.114,-0.571c-0.076,-0.161 -0.179,-0.283 -0.311,-0.366c-0.132,-0.085 -0.277,-0.128 -0.436,-0.128c-0.151,0 -0.297,0.04 -0.436,0.121c-0.137,0.081 -0.248,0.198 -0.333,0.352c-0.083,0.151 -0.125,0.33 -0.125,0.535c0,0.33 0.085,0.604 0.256,0.824c0.171,0.22 0.386,0.33 0.645,0.33l0,-0Z" style="fill:#FDDEA2;fill-rule:nonzero;"/>
        </g>
        <g id="text5329">
            <path id="path5339" d="M36.725,295.042l-1.025,4.222c-0.034,0.139 -0.065,0.249 -0.092,0.33c-0.024,0.081 -0.063,0.143 -0.117,0.187c-0.051,0.046 -0.127,0.069 -0.227,0.069c-0.249,0 -0.374,-0.107 -0.374,-0.322c0,-0.056 0.024,-0.197 0.073,-0.421l1.022,-4.222c0.054,-0.225 0.105,-0.378 0.154,-0.461c0.049,-0.083 0.144,-0.124 0.286,-0.124c0.122,0 0.215,0.029 0.278,0.088c0.066,0.059 0.099,0.139 0.099,0.242c0,0.076 -0.026,0.214 -0.077,0.414l-0,0Z" style="fill:#FDDEA2;fill-rule:nonzero;"/>
            <path id="path5341" d="M38.955,296.518c0.225,0 0.417,-0.066 0.579,-0.198c0.164,-0.132 0.245,-0.321 0.245,-0.568c0,-0.188 -0.065,-0.349 -0.194,-0.483c-0.129,-0.137 -0.304,-0.205 -0.524,-0.205c-0.149,0 -0.272,0.021 -0.37,0.062c-0.095,0.042 -0.171,0.096 -0.227,0.165c-0.056,0.068 -0.11,0.156 -0.161,0.264c-0.049,0.107 -0.094,0.209 -0.135,0.304c-0.024,0.051 -0.068,0.092 -0.132,0.121c-0.063,0.029 -0.137,0.044 -0.22,0.044c-0.098,0 -0.188,-0.039 -0.271,-0.117c-0.081,-0.081 -0.121,-0.187 -0.121,-0.319c0,-0.127 0.038,-0.26 0.114,-0.399c0.078,-0.142 0.19,-0.276 0.337,-0.403c0.149,-0.127 0.333,-0.228 0.553,-0.304c0.22,-0.078 0.465,-0.117 0.736,-0.117c0.237,0 0.453,0.033 0.648,0.099c0.195,0.064 0.365,0.156 0.509,0.279c0.144,0.122 0.253,0.264 0.326,0.425c0.073,0.161 0.11,0.334 0.11,0.52c0,0.244 -0.054,0.454 -0.161,0.63c-0.105,0.173 -0.256,0.343 -0.454,0.509c0.19,0.103 0.35,0.22 0.48,0.351c0.132,0.132 0.231,0.278 0.297,0.439c0.066,0.159 0.099,0.331 0.099,0.516c0,0.222 -0.045,0.437 -0.135,0.645c-0.088,0.208 -0.219,0.393 -0.392,0.557c-0.173,0.161 -0.38,0.288 -0.619,0.381c-0.237,0.09 -0.499,0.135 -0.787,0.135c-0.293,0 -0.555,-0.052 -0.787,-0.157c-0.232,-0.105 -0.424,-0.235 -0.575,-0.392c-0.149,-0.159 -0.262,-0.322 -0.341,-0.491c-0.076,-0.168 -0.114,-0.308 -0.114,-0.418c0,-0.141 0.045,-0.255 0.135,-0.341c0.093,-0.088 0.208,-0.132 0.344,-0.132c0.068,0 0.134,0.021 0.198,0.062c0.063,0.039 0.105,0.087 0.125,0.143c0.127,0.339 0.262,0.592 0.406,0.758c0.146,0.163 0.352,0.245 0.615,0.245c0.151,0 0.297,-0.037 0.436,-0.11c0.142,-0.076 0.258,-0.187 0.348,-0.333c0.093,-0.146 0.139,-0.316 0.139,-0.509c0,-0.286 -0.078,-0.509 -0.234,-0.67c-0.156,-0.163 -0.374,-0.245 -0.652,-0.245c-0.049,0 -0.125,0.005 -0.227,0.014c-0.103,0.009 -0.168,0.014 -0.198,0.014c-0.134,0 -0.238,-0.033 -0.311,-0.099c-0.073,-0.068 -0.11,-0.162 -0.11,-0.282c0,-0.117 0.044,-0.211 0.132,-0.282c0.088,-0.073 0.219,-0.11 0.392,-0.11l0.15,0l0,0.001Z" style="fill:#FDDEA2;fill-rule:nonzero;"/>
            <path id="path5343" d="M43.028,298.895l1.912,0c0.19,0 0.336,0.039 0.436,0.117c0.1,0.078 0.15,0.184 0.15,0.319c0,0.12 -0.04,0.221 -0.121,0.304c-0.078,0.083 -0.198,0.124 -0.359,0.124l-2.695,0c-0.183,0 -0.326,-0.05 -0.428,-0.15c-0.103,-0.103 -0.154,-0.222 -0.154,-0.359c0,-0.088 0.033,-0.204 0.099,-0.348c0.066,-0.146 0.138,-0.261 0.216,-0.344c0.325,-0.337 0.618,-0.625 0.879,-0.864c0.261,-0.242 0.448,-0.4 0.56,-0.476c0.2,-0.141 0.366,-0.283 0.498,-0.425c0.134,-0.144 0.236,-0.291 0.304,-0.439c0.071,-0.151 0.106,-0.299 0.106,-0.443c0,-0.156 -0.038,-0.295 -0.114,-0.417c-0.073,-0.124 -0.175,-0.221 -0.304,-0.289c-0.127,-0.068 -0.266,-0.102 -0.417,-0.102c-0.32,0 -0.571,0.14 -0.754,0.421c-0.024,0.037 -0.066,0.137 -0.125,0.3c-0.056,0.163 -0.121,0.289 -0.194,0.377c-0.071,0.088 -0.176,0.132 -0.315,0.132c-0.122,0 -0.223,-0.04 -0.304,-0.121c-0.081,-0.081 -0.121,-0.19 -0.121,-0.33c0,-0.168 0.038,-0.344 0.114,-0.527c0.076,-0.183 0.188,-0.349 0.337,-0.498c0.151,-0.149 0.342,-0.269 0.571,-0.359c0.232,-0.093 0.503,-0.139 0.813,-0.139c0.374,0 0.692,0.059 0.956,0.176c0.171,0.078 0.321,0.186 0.45,0.322c0.129,0.137 0.229,0.295 0.3,0.476c0.073,0.178 0.11,0.364 0.11,0.557c0,0.303 -0.076,0.579 -0.227,0.828c-0.149,0.247 -0.302,0.441 -0.458,0.582c-0.156,0.139 -0.419,0.359 -0.787,0.659c-0.366,0.3 -0.618,0.533 -0.754,0.699c-0.059,0.066 -0.118,0.145 -0.179,0.238l0,0Z" style="fill:#FDDEA2;fill-rule:nonzero;"/>
        </g>
    </g>
    <g id="TESTO-1" serif:id="TESTO 1">
        <g id="text5361">
            <path id="path5381" d="M13.415,57.452l0,-3.525c0,-0.183 0.042,-0.32 0.125,-0.412c0.083,-0.092 0.191,-0.137 0.323,-0.137c0.136,0 0.246,0.046 0.33,0.137c0.085,0.09 0.128,0.227 0.128,0.412l0,3.525c0,0.185 -0.043,0.323 -0.128,0.415c-0.083,0.092 -0.193,0.137 -0.33,0.137c-0.13,0 -0.238,-0.046 -0.323,-0.137c-0.083,-0.094 -0.125,-0.232 -0.125,-0.415Z" style="fill:#FDDEA2;fill-rule:nonzero;"/>
            <path id="path5383" d="M16.513,53.921c0,-0 1.743,2.637 1.743,2.637l0,-2.661c0,-0.173 0.037,-0.302 0.11,-0.388c0.075,-0.087 0.176,-0.131 0.302,-0.131c0.13,0 0.233,0.044 0.308,0.131c0.075,0.085 0.113,0.215 0.113,0.388l0,3.519c0,0.393 -0.163,0.589 -0.488,0.589c-0.081,0 -0.155,-0.012 -0.22,-0.037c-0.065,-0.022 -0.126,-0.059 -0.183,-0.11c-0.057,-0.051 -0.11,-0.11 -0.159,-0.177c-0.049,-0.069 -0.098,-0.139 -0.146,-0.211l-1.7,-2.606l0,2.621c0,0.171 -0.04,0.3 -0.119,0.388c-0.079,0.087 -0.181,0.131 -0.305,0.131c-0.128,0 -0.231,-0.044 -0.308,-0.131c-0.077,-0.09 -0.116,-0.219 -0.116,-0.388l0,-3.452c0,-0.146 0.016,-0.261 0.049,-0.345c0.039,-0.092 0.103,-0.166 0.192,-0.223c0.09,-0.059 0.186,-0.089 0.29,-0.089c0.081,0 0.151,0.013 0.208,0.04c0.059,0.026 0.11,0.062 0.153,0.107c0.045,0.045 0.09,0.103 0.134,0.174c0.047,0.071 0.095,0.145 0.143,0.223Z" style="fill:#FDDEA2;fill-rule:nonzero;"/>
        </g>
        <g id="text5385">
            <path id="path5390" d="M7.28,99.419l-0.317,0l0,1.437c0,0.189 -0.042,0.329 -0.125,0.418c-0.083,0.09 -0.192,0.134 -0.327,0.134c-0.144,0 -0.256,-0.047 -0.336,-0.14c-0.079,-0.094 -0.119,-0.231 -0.119,-0.412l0,-3.442c0,-0.195 0.044,-0.337 0.131,-0.424c0.087,-0.087 0.229,-0.131 0.424,-0.131l1.474,0c0.203,0 0.377,0.009 0.522,0.028c0.144,0.016 0.275,0.051 0.391,0.104c0.14,0.059 0.264,0.143 0.372,0.253c0.108,0.11 0.189,0.238 0.244,0.385c0.057,0.144 0.085,0.298 0.085,0.461c0,0.334 -0.095,0.6 -0.284,0.8c-0.187,0.199 -0.472,0.341 -0.854,0.424c0.161,0.085 0.314,0.212 0.461,0.378c0.146,0.167 0.277,0.345 0.391,0.534c0.116,0.187 0.205,0.357 0.269,0.51c0.065,0.151 0.098,0.254 0.098,0.311c0,0.059 -0.019,0.118 -0.058,0.177c-0.037,0.057 -0.087,0.102 -0.153,0.134c-0.065,0.035 -0.14,0.052 -0.226,0.052c-0.102,0 -0.187,-0.024 -0.256,-0.073c-0.069,-0.047 -0.129,-0.107 -0.18,-0.18c-0.049,-0.073 -0.116,-0.181 -0.201,-0.323l-0.363,-0.604c-0.13,-0.222 -0.247,-0.391 -0.351,-0.507c-0.102,-0.116 -0.205,-0.195 -0.311,-0.238c-0.106,-0.043 -0.239,-0.064 -0.4,-0.064l0,0Zm0.519,-1.88l-0.836,0l0,1.23l0.812,0c0.218,0 0.401,-0.018 0.549,-0.055c0.149,-0.039 0.261,-0.103 0.339,-0.192c0.079,-0.092 0.119,-0.217 0.119,-0.375c0,-0.124 -0.032,-0.233 -0.095,-0.327c-0.063,-0.096 -0.151,-0.167 -0.262,-0.214c-0.106,-0.045 -0.314,-0.067 -0.626,-0.067l-0,0Z" style="fill:#FDDEA2;fill-rule:nonzero;"/>
            <path id="path5392" d="M13.502,97.557l-2.042,0l0,1.099l1.88,0c0.138,0 0.241,0.032 0.308,0.095c0.069,0.061 0.104,0.142 0.104,0.244c0,0.102 -0.034,0.185 -0.101,0.25c-0.067,0.063 -0.171,0.095 -0.311,0.095l-1.88,0l0,1.273l2.112,0c0.142,0 0.249,0.034 0.32,0.101c0.073,0.065 0.11,0.153 0.11,0.262c0,0.106 -0.037,0.192 -0.11,0.259c-0.071,0.065 -0.178,0.098 -0.32,0.098l-2.463,0c-0.197,0 -0.34,-0.044 -0.427,-0.131c-0.085,-0.087 -0.128,-0.229 -0.128,-0.424l0,-3.363c0,-0.13 0.019,-0.236 0.058,-0.317c0.039,-0.083 0.099,-0.143 0.18,-0.18c0.083,-0.039 0.189,-0.058 0.317,-0.058l2.393,0c0.144,0 0.251,0.033 0.32,0.098c0.071,0.063 0.107,0.146 0.107,0.25c0,0.106 -0.036,0.191 -0.107,0.256c-0.069,0.063 -0.176,0.095 -0.32,0.095l0,0Z" style="fill:#FDDEA2;fill-rule:nonzero;"/>
            <path id="path5394" d="M18.129,99.989c0,0.271 -0.07,0.514 -0.211,0.729c-0.138,0.216 -0.342,0.385 -0.61,0.507c-0.269,0.122 -0.587,0.183 -0.955,0.183c-0.441,0 -0.806,-0.083 -1.093,-0.25c-0.203,-0.12 -0.369,-0.28 -0.497,-0.479c-0.126,-0.201 -0.189,-0.397 -0.189,-0.586c0,-0.11 0.038,-0.203 0.113,-0.281c0.077,-0.079 0.175,-0.119 0.293,-0.119c0.096,0 0.176,0.031 0.241,0.092c0.067,0.061 0.124,0.152 0.171,0.272c0.057,0.142 0.118,0.261 0.183,0.357c0.067,0.096 0.161,0.175 0.281,0.238c0.12,0.061 0.278,0.092 0.473,0.092c0.269,0 0.486,-0.062 0.653,-0.186c0.169,-0.126 0.253,-0.283 0.253,-0.47c0,-0.149 -0.046,-0.269 -0.137,-0.36c-0.09,-0.094 -0.207,-0.165 -0.351,-0.214c-0.142,-0.049 -0.334,-0.101 -0.574,-0.156c-0.321,-0.075 -0.591,-0.163 -0.809,-0.262c-0.216,-0.102 -0.388,-0.239 -0.516,-0.412c-0.126,-0.175 -0.189,-0.392 -0.189,-0.65c0,-0.246 0.067,-0.465 0.201,-0.656c0.134,-0.191 0.329,-0.338 0.583,-0.439c0.254,-0.104 0.553,-0.156 0.897,-0.156c0.275,0 0.512,0.035 0.711,0.104c0.201,0.067 0.368,0.158 0.5,0.272c0.132,0.112 0.229,0.23 0.29,0.354c0.061,0.124 0.092,0.245 0.092,0.363c0,0.108 -0.039,0.205 -0.116,0.293c-0.075,0.085 -0.17,0.128 -0.284,0.128c-0.104,0 -0.183,-0.025 -0.238,-0.076c-0.053,-0.053 -0.111,-0.138 -0.174,-0.256c-0.081,-0.169 -0.179,-0.3 -0.293,-0.394c-0.114,-0.096 -0.297,-0.143 -0.549,-0.143c-0.234,0 -0.423,0.052 -0.568,0.156c-0.142,0.102 -0.214,0.225 -0.214,0.369c0,0.09 0.024,0.167 0.073,0.232c0.049,0.065 0.116,0.121 0.201,0.168c0.085,0.047 0.172,0.083 0.259,0.11c0.087,0.026 0.232,0.065 0.433,0.116c0.252,0.059 0.48,0.124 0.684,0.195c0.205,0.071 0.379,0.158 0.522,0.259c0.144,0.102 0.256,0.231 0.336,0.388c0.081,0.155 0.122,0.345 0.122,0.571l0,-0Z" style="fill:#FDDEA2;fill-rule:nonzero;"/>
            <path id="path5396" d="M21.852,97.557l-2.042,0l0,1.099l1.88,0c0.138,0 0.241,0.032 0.308,0.095c0.069,0.061 0.104,0.142 0.104,0.244c0,0.102 -0.034,0.185 -0.101,0.25c-0.067,0.063 -0.171,0.095 -0.311,0.095l-1.88,0l0,1.273l2.112,0c0.142,0 0.249,0.034 0.32,0.101c0.073,0.065 0.11,0.153 0.11,0.262c0,0.106 -0.037,0.192 -0.11,0.259c-0.071,0.065 -0.178,0.098 -0.32,0.098l-2.463,0c-0.197,0 -0.34,-0.044 -0.427,-0.131c-0.085,-0.087 -0.128,-0.229 -0.128,-0.424l0,-3.363c0,-0.13 0.019,-0.236 0.058,-0.317c0.039,-0.083 0.099,-0.143 0.18,-0.18c0.083,-0.039 0.189,-0.058 0.317,-0.058l2.393,0c0.144,0 0.251,0.033 0.32,0.098c0.071,0.063 0.107,0.146 0.107,0.25c0,0.106 -0.036,0.191 -0.107,0.256c-0.069,0.063 -0.176,0.095 -0.32,0.095l-0,0Z" style="fill:#FDDEA2;fill-rule:nonzero;"/>
            <path id="path5398" d="M25.984,97.606l-0.989,0l0,3.25c0,0.187 -0.042,0.327 -0.125,0.418c-0.083,0.09 -0.191,0.134 -0.323,0.134c-0.134,0 -0.244,-0.046 -0.33,-0.137c-0.083,-0.092 -0.125,-0.23 -0.125,-0.415l0,-3.25l-0.989,0c-0.155,0 -0.27,-0.034 -0.345,-0.101c-0.075,-0.069 -0.113,-0.16 -0.113,-0.272c0,-0.116 0.039,-0.208 0.116,-0.275c0.079,-0.067 0.193,-0.101 0.342,-0.101l2.881,0c0.157,0 0.273,0.035 0.348,0.104c0.077,0.069 0.116,0.16 0.116,0.272c0,0.112 -0.039,0.202 -0.116,0.272c-0.077,0.067 -0.193,0.101 -0.348,0.101l-0,0Z" style="fill:#FDDEA2;fill-rule:nonzero;"/>
        </g>
        <g id="text5400">
            <path id="path5409" d="M19.424,17.118c0,0.171 -0.043,0.356 -0.128,0.557c-0.083,0.198 -0.215,0.393 -0.396,0.586c-0.181,0.19 -0.411,0.345 -0.692,0.465c-0.281,0.12 -0.608,0.179 -0.981,0.179c-0.283,0 -0.541,-0.027 -0.773,-0.081c-0.232,-0.054 -0.443,-0.137 -0.634,-0.249c-0.188,-0.115 -0.361,-0.265 -0.52,-0.45c-0.142,-0.168 -0.262,-0.356 -0.363,-0.564c-0.1,-0.21 -0.176,-0.433 -0.227,-0.67c-0.049,-0.237 -0.073,-0.488 -0.073,-0.754c0,-0.432 0.062,-0.819 0.187,-1.161c0.127,-0.342 0.308,-0.634 0.542,-0.875c0.234,-0.244 0.509,-0.43 0.824,-0.557c0.315,-0.127 0.651,-0.19 1.007,-0.19c0.435,0 0.822,0.087 1.161,0.26c0.339,0.173 0.599,0.388 0.78,0.645c0.181,0.254 0.271,0.494 0.271,0.721c0,0.125 -0.044,0.234 -0.132,0.33c-0.088,0.095 -0.194,0.143 -0.319,0.143c-0.139,0 -0.244,-0.033 -0.315,-0.099c-0.068,-0.066 -0.145,-0.179 -0.231,-0.341c-0.142,-0.266 -0.309,-0.465 -0.502,-0.597c-0.19,-0.132 -0.426,-0.198 -0.707,-0.198c-0.447,0 -0.803,0.17 -1.069,0.509c-0.264,0.339 -0.396,0.822 -0.396,1.447c0,0.417 0.059,0.765 0.176,1.044c0.117,0.276 0.283,0.482 0.498,0.619c0.215,0.137 0.466,0.205 0.754,0.205c0.313,0 0.576,-0.077 0.791,-0.231c0.217,-0.156 0.381,-0.385 0.491,-0.685c0.046,-0.142 0.104,-0.256 0.172,-0.344c0.068,-0.09 0.178,-0.135 0.33,-0.135c0.129,0 0.24,0.045 0.333,0.135c0.093,0.09 0.139,0.203 0.139,0.337l0,-0Z" style="fill:#FDDEA2;fill-rule:nonzero;"/>
            <path id="path5411" d="M21.467,14.013l0,3.907l2.205,0c0.176,0 0.31,0.043 0.403,0.128c0.095,0.085 0.143,0.193 0.143,0.322c0,0.132 -0.046,0.239 -0.139,0.322c-0.093,0.081 -0.228,0.121 -0.406,0.121l-2.626,0c-0.237,0 -0.408,-0.052 -0.513,-0.157c-0.103,-0.105 -0.154,-0.275 -0.154,-0.509l0,-4.135c0,-0.22 0.049,-0.385 0.146,-0.494c0.1,-0.11 0.231,-0.165 0.392,-0.165c0.164,0 0.295,0.055 0.396,0.165c0.103,0.107 0.154,0.272 0.154,0.494l-0,0Z" style="fill:#FDDEA2;fill-rule:nonzero;"/>
            <path id="path5413" d="M26.924,13.353c0.557,-0 1.034,0.114 1.432,0.341c0.4,0.225 0.703,0.546 0.908,0.963c0.205,0.415 0.308,0.903 0.308,1.465c0,0.415 -0.056,0.792 -0.168,1.132c-0.112,0.339 -0.281,0.634 -0.505,0.883c-0.225,0.249 -0.5,0.439 -0.828,0.571c-0.327,0.132 -0.702,0.198 -1.124,0.198c-0.42,0 -0.796,-0.067 -1.128,-0.201c-0.332,-0.137 -0.609,-0.328 -0.831,-0.575c-0.222,-0.247 -0.391,-0.543 -0.505,-0.89c-0.112,-0.347 -0.168,-0.721 -0.168,-1.124c0,-0.413 0.059,-0.791 0.176,-1.135c0.12,-0.344 0.292,-0.637 0.516,-0.879c0.225,-0.242 0.498,-0.426 0.82,-0.553c0.322,-0.129 0.688,-0.194 1.099,-0.194Zm1.545,2.761c-0,-0.393 -0.063,-0.734 -0.19,-1.022c-0.127,-0.288 -0.309,-0.505 -0.546,-0.652c-0.234,-0.149 -0.504,-0.223 -0.809,-0.223c-0.217,0 -0.419,0.042 -0.604,0.125c-0.183,0.081 -0.342,0.199 -0.476,0.355c-0.132,0.156 -0.237,0.356 -0.315,0.601c-0.076,0.242 -0.114,0.514 -0.114,0.817c0,0.305 0.038,0.581 0.114,0.828c0.078,0.247 0.187,0.452 0.326,0.615c0.142,0.161 0.303,0.282 0.483,0.363c0.183,0.081 0.383,0.121 0.601,0.121c0.278,0 0.533,-0.07 0.765,-0.209c0.234,-0.139 0.42,-0.354 0.557,-0.645c0.139,-0.291 0.209,-0.648 0.209,-1.073Z" style="fill:#FDDEA2;fill-rule:nonzero;"/>
            <path id="path5415" d="M35.083,17.118c0,0.171 -0.043,0.356 -0.128,0.557c-0.083,0.198 -0.215,0.393 -0.396,0.586c-0.181,0.19 -0.411,0.345 -0.692,0.465c-0.281,0.12 -0.608,0.179 -0.981,0.179c-0.283,0 -0.541,-0.027 -0.773,-0.081c-0.232,-0.054 -0.443,-0.137 -0.634,-0.249c-0.188,-0.115 -0.361,-0.265 -0.52,-0.45c-0.142,-0.168 -0.262,-0.356 -0.363,-0.564c-0.1,-0.21 -0.176,-0.433 -0.227,-0.67c-0.049,-0.237 -0.073,-0.488 -0.073,-0.754c0,-0.432 0.062,-0.819 0.187,-1.161c0.127,-0.342 0.308,-0.634 0.542,-0.875c0.234,-0.244 0.509,-0.43 0.824,-0.557c0.315,-0.127 0.651,-0.19 1.007,-0.19c0.435,0 0.822,0.087 1.161,0.26c0.339,0.173 0.599,0.388 0.78,0.645c0.181,0.254 0.271,0.494 0.271,0.721c0,0.125 -0.044,0.234 -0.132,0.33c-0.088,0.095 -0.194,0.143 -0.319,0.143c-0.139,0 -0.244,-0.033 -0.315,-0.099c-0.068,-0.066 -0.145,-0.179 -0.231,-0.341c-0.142,-0.266 -0.309,-0.465 -0.502,-0.597c-0.19,-0.132 -0.426,-0.198 -0.707,-0.198c-0.447,0 -0.803,0.17 -1.069,0.509c-0.264,0.339 -0.396,0.822 -0.396,1.447c0,0.417 0.059,0.765 0.176,1.044c0.117,0.276 0.283,0.482 0.498,0.619c0.215,0.137 0.466,0.205 0.754,0.205c0.313,0 0.576,-0.077 0.791,-0.231c0.217,-0.156 0.381,-0.385 0.491,-0.685c0.046,-0.142 0.104,-0.256 0.172,-0.344c0.068,-0.09 0.178,-0.135 0.33,-0.135c0.129,0 0.24,0.045 0.333,0.135c0.093,0.09 0.139,0.203 0.139,0.337l0,-0Z" style="fill:#FDDEA2;fill-rule:nonzero;"/>
            <path id="path5417" d="M37.156,14.013c-0,-0 -0,1.882 -0,1.882l2.135,-2.227c0.103,-0.107 0.189,-0.187 0.26,-0.238c0.073,-0.051 0.17,-0.077 0.289,-0.077c0.156,0 0.282,0.046 0.377,0.139c0.098,0.09 0.146,0.201 0.146,0.333c0,0.159 -0.082,0.316 -0.245,0.472l-1.322,1.252l1.523,2.183c0.107,0.151 0.188,0.284 0.242,0.399c0.054,0.112 0.081,0.222 0.081,0.33c0,0.12 -0.048,0.223 -0.143,0.311c-0.093,0.088 -0.22,0.132 -0.381,0.132c-0.151,0 -0.275,-0.032 -0.37,-0.095c-0.095,-0.066 -0.176,-0.153 -0.242,-0.26c-0.066,-0.107 -0.125,-0.205 -0.176,-0.293l-1.285,-1.978l-0.89,0.853l0,1.11c0,0.225 -0.051,0.392 -0.154,0.502c-0.103,0.107 -0.234,0.161 -0.396,0.161c-0.093,0 -0.182,-0.024 -0.267,-0.073c-0.085,-0.049 -0.151,-0.115 -0.198,-0.198c-0.034,-0.068 -0.055,-0.148 -0.062,-0.238c-0.007,-0.09 -0.011,-0.221 -0.011,-0.392l0,-3.992c0,-0.22 0.048,-0.385 0.143,-0.494c0.098,-0.11 0.229,-0.165 0.396,-0.165c0.164,0 0.295,0.055 0.396,0.165c0.103,0.107 0.154,0.272 0.154,0.494Z" style="fill:#FDDEA2;fill-rule:nonzero;"/>
            <path id="path5419" d="M44.161,13.445l1.417,0c0.369,0 0.685,0.034 0.948,0.103c0.264,0.068 0.503,0.197 0.718,0.385c0.559,0.479 0.839,1.206 0.839,2.183c0,0.322 -0.028,0.616 -0.084,0.883c-0.056,0.266 -0.143,0.507 -0.26,0.721c-0.117,0.212 -0.267,0.403 -0.45,0.571c-0.144,0.129 -0.302,0.233 -0.472,0.311c-0.171,0.078 -0.355,0.133 -0.553,0.165c-0.195,0.032 -0.416,0.048 -0.663,0.048l-1.417,0c-0.198,0 -0.347,-0.029 -0.447,-0.088c-0.1,-0.061 -0.166,-0.145 -0.198,-0.253c-0.029,-0.11 -0.044,-0.251 -0.044,-0.425l0,-3.937c0,-0.234 0.052,-0.404 0.157,-0.509c0.105,-0.105 0.275,-0.157 0.509,-0.157l-0,0Zm0.421,0.861l0,3.644l0.824,0c0.181,0 0.322,-0.005 0.425,-0.015c0.103,-0.01 0.209,-0.034 0.319,-0.073c0.11,-0.039 0.205,-0.094 0.286,-0.165c0.364,-0.308 0.546,-0.837 0.546,-1.589c0,-0.53 -0.081,-0.927 -0.242,-1.19c-0.159,-0.264 -0.355,-0.431 -0.59,-0.502c-0.234,-0.073 -0.518,-0.11 -0.85,-0.11l-0.718,0l-0,-0Z" style="fill:#FDDEA2;fill-rule:nonzero;"/>
            <path id="path5421" d="M49.083,18.242l0,-4.23c0,-0.22 0.05,-0.385 0.15,-0.494c0.1,-0.11 0.229,-0.165 0.388,-0.165c0.164,0 0.295,0.055 0.396,0.165c0.103,0.107 0.154,0.272 0.154,0.494l0,4.23c0,0.222 -0.051,0.388 -0.154,0.498c-0.1,0.11 -0.232,0.165 -0.396,0.165c-0.156,0 -0.286,-0.055 -0.388,-0.165c-0.1,-0.112 -0.15,-0.278 -0.15,-0.498Z" style="fill:#FDDEA2;fill-rule:nonzero;"/>
            <path id="path5423" d="M52.178,14.067l1.216,3.6l1.219,-3.625c0.063,-0.19 0.111,-0.322 0.143,-0.396c0.032,-0.076 0.084,-0.143 0.157,-0.201c0.073,-0.061 0.173,-0.092 0.3,-0.092c0.093,0 0.178,0.023 0.256,0.07c0.081,0.046 0.143,0.109 0.187,0.187c0.046,0.076 0.07,0.153 0.07,0.231c0,0.054 -0.007,0.112 -0.022,0.176c-0.015,0.061 -0.033,0.122 -0.055,0.183c-0.022,0.059 -0.044,0.12 -0.066,0.183l-1.3,3.508c-0.046,0.134 -0.093,0.262 -0.139,0.385c-0.046,0.12 -0.1,0.226 -0.161,0.319c-0.061,0.09 -0.143,0.165 -0.245,0.223c-0.1,0.059 -0.223,0.088 -0.37,0.088c-0.146,0 -0.271,-0.029 -0.374,-0.088c-0.1,-0.056 -0.182,-0.131 -0.245,-0.223c-0.061,-0.095 -0.115,-0.203 -0.161,-0.322c-0.046,-0.12 -0.093,-0.247 -0.139,-0.381l-1.278,-3.479c-0.022,-0.063 -0.045,-0.126 -0.07,-0.187c-0.022,-0.061 -0.042,-0.127 -0.059,-0.198c-0.015,-0.071 -0.022,-0.131 -0.022,-0.179c0,-0.125 0.05,-0.238 0.15,-0.341c0.1,-0.103 0.226,-0.154 0.377,-0.154c0.186,0 0.316,0.057 0.392,0.172c0.078,0.112 0.157,0.293 0.238,0.542l0,0Z" style="fill:#FDDEA2;fill-rule:nonzero;"/>
            <path id="path5425" d="M56.195,18.905c-0.151,0 -0.282,-0.049 -0.392,-0.146c-0.11,-0.098 -0.165,-0.234 -0.165,-0.41c0,-0.149 0.052,-0.277 0.157,-0.385c0.105,-0.107 0.234,-0.161 0.388,-0.161c0.154,0 0.284,0.054 0.392,0.161c0.11,0.105 0.165,0.233 0.165,0.385c0,0.173 -0.055,0.31 -0.165,0.41c-0.107,0.098 -0.234,0.146 -0.381,0.146l0,0Z" style="fill:#FDDEA2;fill-rule:nonzero;"/>
        </g>
    </g>
</svg>
