<?xml version="1.0" encoding="UTF-8" standalone="no"?>
<svg xmlns:osb="http://www.openswatchbook.org/uri/2009/osb" xmlns:dc="http://purl.org/dc/elements/1.1/" xmlns:cc="http://creativecommons.org/ns#" xmlns:rdf="http://www.w3.org/1999/02/22-rdf-syntax-ns#" xmlns:svg="http://www.w3.org/2000/svg" xmlns="http://www.w3.org/2000/svg" xmlns:sodipodi="http://sodipodi.sourceforge.net/DTD/sodipodi-0.dtd" xmlns:inkscape="http://www.inkscape.org/namespaces/inkscape" width="30.48mm" height="128.5mm" viewBox="0 0 30.480002 128.50002" version="1.1" id="svg8" inkscape:version="0.92.5 (2060ec1f9f, 2020-04-08)" sodipodi:docname="Oppressor.svg">
  <defs id="defs2">
    <linearGradient osb:paint="gradient" id="linearGradient1021">
      <stop id="stop1017" offset="0" style="stop-color:#FDDEA2fff;stop-opacity:1;" />
      <stop id="stop1019" offset="1" style="stop-color:#FDDEA2fff;stop-opacity:0;" />
    </linearGradient>
  </defs>
  <sodipodi:namedview inkscape:object-nodes="false" id="base" pagecolor="#72717b" bordercolor="#666666" borderopacity="1.0" inkscape:pageopacity="0" inkscape:pageshadow="2" inkscape:zoom="8.0000001" inkscape:cx="45.454968" inkscape:cy="335.69587" inkscape:document-units="mm" inkscape:current-layer="layer4" showgrid="true" units="mm" inkscape:snap-bbox="true" inkscape:snap-page="true" inkscape:bbox-nodes="false" inkscape:snap-bbox-edge-midpoints="false" inkscape:window-width="2303" inkscape:window-height="1857" inkscape:window-x="1102" inkscape:window-y="66" inkscape:window-maximized="0" inkscape:snap-bbox-midpoints="true" inkscape:snap-nodes="false" inkscape:document-rotation="0" showguides="true" inkscape:guide-bbox="true" inkscape:snap-global="false">
    <inkscape:grid type="xygrid" id="grid68" visible="true" enabled="true" snapvisiblegridlinesonly="true" dotted="false" empspacing="8" spacingx="1.2700002" spacingy="1.2700002" units="mm" />
    <sodipodi:guide position="2.5355763,124.11176" orientation="1,0" id="guide1040" inkscape:locked="false" />
    <sodipodi:guide position="15.288586,44.813963" orientation="1,0" id="guide1042" inkscape:locked="false" />
    <sodipodi:guide position="27.947685,42.484989" orientation="1,0" id="guide904" inkscape:locked="false" />
    <sodipodi:guide position="22.88646,56.753134" orientation="1,0" id="guide925" inkscape:locked="false" />
    <sodipodi:guide position="-3.9687503,33.469797" orientation="0,1" id="guide927" inkscape:locked="false" />
    <sodipodi:guide position="7.6706359,66.603576" orientation="1,0" id="guide905" inkscape:locked="false" />
    <sodipodi:guide position="-2.0112033,56.968508" orientation="0,1" id="guide963" inkscape:locked="false" />
  </sodipodi:namedview>
  <metadata id="metadata5">
    <rdf:RDF>
      <cc:Work rdf:about="">
        <dc:format>image/svg+xml</dc:format>
        <dc:type rdf:resource="http://purl.org/dc/dcmitype/StillImage" />
        <dc:title />
      </cc:Work>
    </rdf:RDF>
  </metadata>
  <g inkscape:label="Background" inkscape:groupmode="layer" id="layer1" transform="translate(0,-168.49998)" style="display:inline">
    <rect style="display:inline;opacity:1;vector-effect:none;fill:#401B5C;fill-opacity:1;fill-rule:evenodd;stroke:none;stroke-width:0.64935887;stroke-linecap:butt;stroke-linejoin:miter;stroke-miterlimit:4;stroke-dasharray:none;stroke-dashoffset:0;stroke-opacity:1;paint-order:normal" id="rect420" width="30.48" height="128.5" x="-30.48" y="168.76456" transform="scale(-1,1)" />
  </g>
  <g inkscape:groupmode="layer" id="layer4" inkscape:label="Lines" style="display:inline">
    <rect style="display:inline;fill:#662C91;fill-opacity:1;stroke-width:0.21477845" id="rect119" width="10.112135" height="15.529755" x="17.838617" y="102.74044" ry="1.0788087" rx="1.0326574" />
    <rect style="display:inline;fill:#FDBB3C;fill-opacity:1;stroke-width:0.29884803" id="rect119-8" width="10.218154" height="15.435936" x="2.60969" y="102.87319" ry="1.1050979" rx="0.93513471" />
    <path style="display:inline;fill:#FDDEA2;fill-opacity:1;stroke:none;stroke-width:0.62656027;stroke-miterlimit:4;stroke-dasharray:none;stroke-opacity:1" d="m 10.159717,3.1840506 h 10.164766 v 0.391764 H 10.159717 Z" id="rect4583-9-8" inkscape:connector-curvature="0" />
    <path style="display:inline;fill:#FDDEA2;fill-opacity:1;stroke:none;stroke-width:0.31307399;stroke-miterlimit:4;stroke-dasharray:none;stroke-opacity:1" d="m 25.411118,3.1989394 h 2.537849 v 0.3917641 h -2.537849 z" id="rect4583-9-9-5" inkscape:connector-curvature="0" />
    <path style="display:inline;fill:#FDDEA2;fill-opacity:1;stroke:none;stroke-width:0.31059542;stroke-miterlimit:4;stroke-dasharray:none;stroke-opacity:1" d="M 2.5804246,3.1521673 H 5.078247 V 3.5439314 H 2.5804246 Z" id="rect4583-9-9-4-9" inkscape:connector-curvature="0" />
    <path style="display:inline;fill:#FDDEA2;fill-opacity:1;stroke:none;stroke-width:0.62634283;stroke-miterlimit:4;stroke-dasharray:none;stroke-opacity:1" d="m 10.165272,1.6455558 h 10.157705 v 0.391764 H 10.165272 Z" id="rect4583-9-8-3" inkscape:connector-curvature="0" />
    <path style="display:inline;fill:#FDDEA2;fill-opacity:1;stroke:none;stroke-width:0.31343439;stroke-miterlimit:4;stroke-dasharray:none;stroke-opacity:1" d="m 25.408107,1.6604446 h 2.543697 v 0.3917641 h -2.543697 z" id="rect4583-9-9-5-4" inkscape:connector-curvature="0" />
    <path style="display:inline;fill:#FDDEA2;fill-opacity:1;stroke:none;stroke-width:0.31021532;stroke-miterlimit:4;stroke-dasharray:none;stroke-opacity:1" d="M 2.5811818,1.6136725 H 5.0728956 V 2.0054366 H 2.5811818 Z" id="rect4583-9-9-4-9-0" inkscape:connector-curvature="0" />
    <path style="display:inline;fill:#FDDEA2;fill-opacity:1;stroke:none;stroke-width:0.99027044;stroke-miterlimit:4;stroke-dasharray:none;stroke-opacity:1" d="M 2.5657577,12.446961 H 27.956717 v 0.391764 H 2.5657577 Z" id="rect4583-9-9-4-9-06" inkscape:connector-curvature="0" />
    <path style="display:inline;fill:#FDDEA2;fill-opacity:1;stroke:none;stroke-width:0.9903568;stroke-miterlimit:4;stroke-dasharray:none;stroke-opacity:1" d="M 2.5590754,10.908467 H 27.954471 v 0.391764 H 2.5590754 Z" id="rect4583-9-9-4-9-0-3" inkscape:connector-curvature="0" />
    <rect rx="0.93513471" ry="1.1050979" y="84.937622" x="2.5831292" height="15.435936" width="10.138468" id="rect927" style="display:inline;fill:#FDBB3C;fill-opacity:1;stroke-width:0.29884803" />
    <rect rx="1.2714761" ry="1.2477406" y="15.478161" x="2.5046563" height="48.255257" width="25.437117" id="rect4574" style="display:inline;fill:#101010;fill-opacity:1;stroke-width:0.59299487" />
    <g aria-label="Oppressor" style="font-style:normal;font-variant:normal;font-weight:600;font-stretch:normal;font-size:4px;line-height:1.25;font-family:Quicksand;-inkscape-font-specification:'Quicksand, Semi-Bold';font-variant-ligatures:normal;font-variant-caps:normal;font-variant-numeric:normal;font-feature-settings:normal;text-align:start;letter-spacing:0px;word-spacing:0px;writing-mode:lr-tb;text-anchor:start;fill:#FDDEA2;fill-opacity:1;stroke-width:0.26458332" id="text879">
      <path style="fill:#FDDEA2;fill-opacity:1;stroke-width:0.26458332" d="M 8.2246142,7.3843094 C 8.2404605,7.9569372 7.8967962,8.5396626 7.3498642,8.7416219 6.8453608,8.9293287 6.2282239,8.7991235 5.8744267,8.3835594 5.4680372,7.9203028 5.4158095,7.2046135 5.6869267,6.66195 5.9331281,6.153365 6.5310429,5.8641641 7.0838642,5.9600594 c 0.533439,0.072393 0.973835,0.5085369 1.0934844,1.0270469 0.032619,0.1296874 0.04731,0.2635756 0.047266,0.3972031 z m -0.432,0 C 7.8052783,6.9475167 7.5405827,6.4745962 7.0943642,6.3703406 6.7260359,6.2727514 6.3062986,6.4334134 6.1153486,6.767325 5.8709341,7.1801152 5.8949777,7.7559062 6.2076142,8.1273094 c 0.3243248,0.3961393 1.0015493,0.3956662 1.326,0 0.1758062,-0.2038911 0.2616264,-0.475741 0.259,-0.743 z" id="path881" inkscape:connector-curvature="0" />
      <path style="fill:#FDDEA2;fill-opacity:1;stroke-width:0.26458332" d="M 9.7354892,6.6443094 C 10.202208,6.6275278 10.60653,7.0164815 10.682989,7.4636219 10.776202,7.9177065 10.625045,8.4525874 10.20827,8.6972625 9.8065462,8.9465104 9.2002862,8.8064243 8.9862392,8.3749969 c -0.077061,-0.051972 0.1018681,-0.1424499 0.08925,-0.080895 -0.00246,0.3760004 0.00494,0.7525601 -0.00375,1.1282071 -0.031301,0.220756 -0.3905358,0.2072338 -0.395375,-0.0205 -0.00146,-0.8486666 -0.00146,-1.6974597 0,-2.546125 0.00405,-0.2051055 0.3184155,-0.2511776 0.384125,-0.057375 0.029118,0.1149133 0.00907,0.236169 0.015,0.354 -0.1449203,-0.047644 0.029028,-0.2090499 0.084,-0.273 0.1517437,-0.1483515 0.3635968,-0.2356531 0.576,-0.2349996 z m -0.044,0.368 c -0.3188095,-0.014562 -0.5885627,0.2601877 -0.62475,0.56675 -0.05615,0.3220454 0.074528,0.7179696 0.4035,0.8373125 0.259501,0.094631 0.5825788,0.00737 0.7254998,-0.2383125 C 10.424446,7.8313414 10.347788,7.2808763 9.9653016,7.0756844 9.8813859,7.031406 9.7859508,7.0120312 9.6914892,7.0123094 Z" id="path883" inkscape:connector-curvature="0" />
      <path style="fill:#FDDEA2;fill-opacity:1;stroke-width:0.26458332" d="m 12.196427,6.6443094 c 0.466718,-0.016782 0.871041,0.372172 0.9475,0.8193125 0.09321,0.4540846 -0.05794,0.9889655 -0.474719,1.2336406 -0.401724,0.2492478 -1.007984,0.1091618 -1.222031,-0.3222656 -0.07706,-0.051972 0.101868,-0.1424499 0.08925,-0.080895 -0.0025,0.3760004 0.0049,0.7525601 -0.0038,1.1282071 -0.0313,0.220756 -0.390536,0.2072338 -0.395375,-0.0205 -0.0015,-0.8486666 -0.0015,-1.6974597 0,-2.546125 0.004,-0.2051055 0.318415,-0.2511776 0.384125,-0.057375 0.02912,0.1149133 0.0091,0.236169 0.015,0.354 -0.14492,-0.047644 0.02903,-0.2090499 0.084,-0.273 0.151744,-0.1483515 0.363597,-0.2356531 0.576,-0.235 z m -0.044,0.368 c -0.31881,-0.014562 -0.588563,0.2601877 -0.62475,0.56675 -0.05615,0.3220454 0.07453,0.7179696 0.4035,0.8373125 0.259501,0.094631 0.582579,0.00737 0.7255,-0.2383125 0.228707,-0.346718 0.152049,-0.8971832 -0.230438,-1.102375 -0.08392,-0.044278 -0.17935,-0.063653 -0.273812,-0.063375 z" id="path885" inkscape:connector-curvature="0" />
      <path style="fill:#FDDEA2;fill-opacity:1;stroke-width:0.26458332" d="m 13.797364,8.7843094 c -0.150587,0.010443 -0.219554,-0.1461521 -0.2,-0.2735168 5.82e-4,-0.5493219 -0.0012,-1.098691 8.75e-4,-1.6479832 0.0048,-0.2277338 0.364073,-0.241256 0.395375,-0.0205 0.0083,0.1629299 0.0016,0.3267219 0.0037,0.49 -0.01252,-0.084882 -0.06616,-0.1726262 -0.0115,-0.25375 0.121365,-0.2971691 0.471925,-0.5125325 0.790563,-0.424375 0.168806,0.043572 0.187006,0.3101974 0.02194,0.370125 -0.167908,0.034203 -0.347486,-0.1107818 -0.50675,0.015688 -0.224798,0.134201 -0.313809,0.4094315 -0.29425,0.6597603 -0.0024,0.3075349 0.0049,0.6156169 -0.0037,0.9228022 -0.01556,0.091943 -0.102049,0.165547 -0.19625,0.16175 z" id="path887" inkscape:connector-curvature="0" />
      <path style="fill:#FDDEA2;fill-opacity:1;stroke-width:0.26458332" d="M 16.143302,8.8243094 C 15.740035,8.838928 15.323482,8.6234852 15.156364,8.2462469 15.004325,7.8913056 15.019416,7.4573348 15.21363,7.1212782 c 0.233994,-0.4157102 0.798857,-0.6187303 1.232,-0.3992188 0.367957,0.1644499 0.615201,0.570635 0.588172,0.9725 -0.03666,0.1505645 -0.203079,0.1514538 -0.327603,0.14575 -0.474299,0 -0.948598,0 -1.422897,0 -0.032,-0.1133333 -0.064,-0.2266667 -0.096,-0.34 0.501333,0 1.002667,0 1.504,0 -0.05035,0.055686 -0.09455,0.097064 -0.076,-0.00745 -0.009,-0.3510956 -0.420909,-0.5653065 -0.7355,-0.4660522 -0.286429,0.056189 -0.435508,0.3569871 -0.438672,0.6273906 -0.03594,0.3193374 0.141096,0.6707623 0.460235,0.7677344 0.250755,0.076544 0.545137,0.033423 0.737937,-0.153625 0.178021,-0.1447617 0.401771,0.1368448 0.220625,0.27375 -0.19083,0.1783424 -0.455563,0.28218 -0.716625,0.28225 z" id="path889" inkscape:connector-curvature="0" />
      <path style="fill:#FDDEA2;fill-opacity:1;stroke-width:0.26458332" d="m 17.348364,8.4563094 c -0.145411,-0.1912311 0.173392,-0.4030103 0.302094,-0.2087031 0.193794,0.2261227 0.53719,0.3244468 0.811906,0.1967031 0.174872,-0.078728 0.165614,-0.3627517 -0.012,-0.434 -0.30811,-0.1582255 -0.716743,-0.1444148 -0.94575,-0.4365 -0.175071,-0.2353355 -0.119081,-0.6086012 0.12675,-0.7745 0.343274,-0.2575309 0.866273,-0.2061902 1.179,0.0755 0.217904,0.1324951 -0.0065,0.466277 -0.202,0.2935 -0.170554,-0.2067692 -0.504515,-0.2704647 -0.7345,-0.12975 -0.138658,0.1008737 -0.10405,0.3434694 0.0565,0.40475 0.295153,0.1508453 0.681412,0.138101 0.907375,0.4111875 0.190108,0.2362306 0.141706,0.6239325 -0.111625,0.7965625 -0.324409,0.2415982 -0.787409,0.2126894 -1.131109,0.029031 -0.09601,-0.057323 -0.178985,-0.1350334 -0.246641,-0.223781 z" id="path891" inkscape:connector-curvature="0" />
      <path style="fill:#FDDEA2;fill-opacity:1;stroke-width:0.26458332" d="m 19.262427,8.4563094 c -0.145411,-0.1912311 0.173392,-0.4030103 0.302094,-0.2087031 0.193794,0.2261227 0.53719,0.3244468 0.811906,0.1967031 0.174872,-0.078728 0.165614,-0.3627517 -0.012,-0.434 -0.30811,-0.1582255 -0.716743,-0.1444148 -0.94575,-0.4365 -0.175071,-0.2353355 -0.119081,-0.6086012 0.12675,-0.7745 0.343274,-0.2575309 0.866273,-0.2061902 1.179,0.0755 0.217904,0.1324951 -0.0065,0.466277 -0.202,0.2935 -0.170554,-0.2067692 -0.504515,-0.2704647 -0.7345,-0.12975 -0.138658,0.1008737 -0.10405,0.3434694 0.0565,0.40475 0.295153,0.1508453 0.681412,0.138101 0.907375,0.4111875 0.190108,0.2362306 0.141706,0.6239325 -0.111625,0.7965625 -0.324409,0.2415982 -0.787409,0.2126894 -1.131109,0.029031 -0.09601,-0.057323 -0.178985,-0.1350334 -0.246641,-0.223781 z" id="path893" inkscape:connector-curvature="0" />
      <path style="fill:#FDDEA2;fill-opacity:1;stroke-width:0.26458332" d="m 23.300489,7.7323094 c 0.01889,0.4871139 -0.329691,0.9664484 -0.812984,1.0652031 -0.445559,0.1080628 -0.950344,-0.091562 -1.175016,-0.4972031 -0.255323,-0.4642233 -0.166066,-1.1207501 0.27,-1.44725 0.432533,-0.3488875 1.136019,-0.2768445 1.476734,0.1667969 0.162318,0.2002134 0.245305,0.4554011 0.241266,0.7124531 z m -0.4,0 c 0.01849,-0.3382374 -0.227348,-0.6829509 -0.5725,-0.726 -0.360839,-0.061429 -0.71224,0.2378327 -0.746906,0.5943594 -0.05398,0.3154037 0.09133,0.6753153 0.397406,0.8038906 0.300714,0.1354751 0.688263,0.00174 0.834,-0.29625 0.06207,-0.1147841 0.08837,-0.2462175 0.088,-0.376 z" id="path895" inkscape:connector-curvature="0" />
      <path style="fill:#FDDEA2;fill-opacity:1;stroke-width:0.26458332" d="m 23.930177,8.7843094 c -0.150587,0.010443 -0.219554,-0.1461521 -0.2,-0.2735168 5.82e-4,-0.5493219 -0.0012,-1.098691 8.75e-4,-1.6479832 0.0048,-0.2277338 0.364073,-0.241256 0.395375,-0.0205 0.0083,0.1629299 0.0016,0.3267219 0.0038,0.49 -0.01252,-0.084882 -0.06616,-0.1726262 -0.0115,-0.25375 0.121365,-0.2971691 0.471925,-0.5125325 0.790563,-0.424375 0.168806,0.043572 0.187006,0.3101974 0.02194,0.370125 -0.167908,0.034203 -0.347486,-0.1107818 -0.50675,0.015688 -0.224798,0.134201 -0.313809,0.4094315 -0.29425,0.6597603 -0.0024,0.3075349 0.0049,0.6156169 -0.0038,0.9228022 -0.01556,0.091943 -0.102049,0.165547 -0.19625,0.16175 z" id="path897" inkscape:connector-curvature="0" />
    </g>
    <rect style="fill:#662C91;fill-opacity:1;stroke:none;stroke-width:0.5;stroke-linecap:butt;stroke-linejoin:round;stroke-miterlimit:4;stroke-dasharray:none;stroke-opacity:1;paint-order:stroke fill markers" id="rect923" width="10.324424" height="15.582047" x="17.688339" y="84.968018" rx="1.2714764" ry="1.2477405" />
    <g aria-label="REL." style="font-style:normal;font-variant:normal;font-weight:600;font-stretch:normal;font-size:4px;line-height:1.25;font-family:Quicksand;-inkscape-font-specification:'Quicksand, Semi-Bold';font-variant-ligatures:normal;font-variant-caps:normal;font-variant-numeric:normal;font-feature-settings:normal;text-align:start;letter-spacing:0px;word-spacing:0px;writing-mode:lr-tb;text-anchor:start;fill:#FDDEA2;fill-opacity:1;stroke-width:0.26458332" id="text936" transform="matrix(0.72484706,0,0,0.72484706,30.142598,33.097261)" />
    <path style="display:inline;fill:#151515;fill-opacity:1;stroke-width:2.2412405" d="m 13.917969,60.798828 c -1.193278,0 -2.154297,1.067329 -2.154297,2.394531 V 91.595703 L 102.77734,79.910156 V 63.193359 c 0,-1.327202 -0.95906,-2.394531 -2.15234,-2.394531 z" transform="scale(0.26458333)" id="rect893" inkscape:connector-curvature="0" />
  </g>
  <g inkscape:groupmode="layer" id="layer3" inkscape:label="Text" style="display:inline">
    <text xml:space="preserve" style="font-size:4px;line-height:1.25;font-family:'Bebas Neue';-inkscape-font-specification:'Bebas Neue, Normal';letter-spacing:0px;word-spacing:0px;stroke-width:0.26458332" x="2.2612731" y="4.3884163" id="text4746"><tspan sodipodi:role="line" id="tspan4744" x="2.2612731" y="7.8884163" style="stroke-width:0.26458332" /></text>
    <g aria-label="IN" style="font-style:normal;font-variant:normal;font-weight:600;font-stretch:normal;font-size:4px;line-height:1.25;font-family:Quicksand;-inkscape-font-specification:'Quicksand, Semi-Bold';font-variant-ligatures:normal;font-variant-caps:normal;font-variant-numeric:normal;font-feature-settings:normal;text-align:start;letter-spacing:0px;word-spacing:0px;writing-mode:lr-tb;text-anchor:start;display:inline;fill:#181818;fill-opacity:1;stroke-width:0.26458332" id="text897" transform="translate(-0.12198976,20.887554)">
      <path d="m 6.3487268,85.832522 q -0.004,0.088 -0.068,0.148 -0.06,0.056 -0.144,0.056 -0.092,0 -0.152,-0.056 -0.056,-0.06 -0.056,-0.148 v -2.392 q 0,-0.088 0.06,-0.144 0.06,-0.06 0.156,-0.06 0.08,0 0.14,0.06 0.064,0.056 0.064,0.144 z" style="fill:#181818;fill-opacity:1;stroke-width:0.26458332" id="path1019" inkscape:connector-curvature="0" />
      <path style="fill:#181818;fill-opacity:1;stroke-width:0.26458332" d="m 9.0990393,83.236522 c 0.1483749,-0.0049 0.2033905,0.16545 0.1799601,0.287257 -4.988e-4,0.776768 0.00124,1.553538 -8.976e-4,2.330305 -0.00481,0.173751 -0.2521997,0.24599 -0.3609462,0.117835 -0.5491567,-0.707324 -1.0944947,-1.418517 -1.6421163,-2.127397 0.086405,-0.08339 0.1069408,-0.01681 0.091937,0.07297 -3.347e-4,0.651239 0.00105,1.302479 -7.5e-4,1.953716 -1.099e-4,0.179312 -0.2936113,0.231618 -0.3508196,0.05957 -0.034826,-0.126112 -0.00758,-0.25955 -0.016287,-0.388891 3.496e-4,-0.707936 -0.00121,-1.415874 8.566e-4,-2.123809 0.00545,-0.169126 0.2382048,-0.239456 0.3526675,-0.12627 0.1145225,0.134135 0.2171584,0.27904 0.326587,0.417896 0.431936,0.562271 0.863872,1.124541 1.295808,1.686812 -0.1030617,0.125702 -0.045606,-0.106232 -0.059905,-0.166218 0.00143,-0.614143 -0.00352,-1.22857 0.00263,-1.842535 0.013853,-0.08476 0.094466,-0.155091 0.1812769,-0.15125 z" id="path1021" inkscape:connector-curvature="0" />
    </g>
    <g aria-label="OUT" style="font-style:normal;font-variant:normal;font-weight:600;font-stretch:normal;font-size:4px;line-height:1.25;font-family:Quicksand;-inkscape-font-specification:'Quicksand, Semi-Bold';font-variant-ligatures:normal;font-variant-caps:normal;font-variant-numeric:normal;font-feature-settings:normal;text-align:start;letter-spacing:0px;word-spacing:0px;writing-mode:lr-tb;text-anchor:start;fill:#FDDEA2;fill-opacity:1;stroke-width:0.26458332" id="text972" transform="translate(-7.449864)">
      <path style="fill:#FDDEA2;fill-opacity:1;stroke-width:0.26458332" d="m 28.852166,105.39771 c 0.0066,0.43367 -0.17575,0.87333 -0.515785,1.14882 -0.372017,0.31288 -0.920458,0.37163 -1.364672,0.18982 -0.425688,-0.17759 -0.73059,-0.59172 -0.799543,-1.04464 -0.07757,-0.45605 0.02433,-0.95732 0.340828,-1.30568 0.29192,-0.32502 0.750737,-0.48003 1.181,-0.41509 0.436567,0.056 0.826895,0.35219 1.010402,0.75052 0.10091,0.21024 0.148799,0.44349 0.14777,0.67625 z m -0.432,0 c 0.0064,-0.37681 -0.176909,-0.77664 -0.52425,-0.95022 -0.333295,-0.16479 -0.773385,-0.10352 -1.029566,0.17322 -0.288505,0.3016 -0.34687,0.76631 -0.231356,1.15564 0.09507,0.32537 0.372132,0.6043 0.715168,0.6506 0.290852,0.0478 0.605683,-0.0493 0.800789,-0.27471 0.182727,-0.20483 0.271866,-0.48221 0.269215,-0.75453 z" id="path1210" inkscape:connector-curvature="0" />
      <path style="fill:#FDDEA2;fill-opacity:1;stroke-width:0.26458332" d="m 31.335041,103.99371 c 0.124829,-0.008 0.208758,0.12128 0.192,0.23609 -7.96e-4,0.51443 0.0016,1.02891 -0.0012,1.54331 -0.0075,0.41145 -0.260467,0.81854 -0.64952,0.96985 -0.336782,0.12688 -0.739233,0.10634 -1.046121,-0.0892 -0.307199,-0.19643 -0.486356,-0.55852 -0.482992,-0.92012 3.05e-4,-0.51913 -0.0013,-1.03833 8e-4,-1.55743 0.0076,-0.16506 0.242316,-0.24645 0.351063,-0.1225 0.09227,0.0782 0.0569,0.20545 0.064,0.31088 9.38e-4,0.46709 -0.0019,0.93426 0.0014,1.40131 0.0035,0.32994 0.281095,0.62603 0.609266,0.65272 0.304727,0.0358 0.616877,-0.15064 0.726031,-0.43799 0.0711,-0.18386 0.04056,-0.38283 0.04727,-0.57501 4.98e-4,-0.4098 -9.98e-4,-0.81963 7.5e-4,-1.22941 0.002,-0.0995 0.08463,-0.18864 0.18725,-0.1825 z" id="path1212" inkscape:connector-curvature="0" />
      <path style="fill:#FDDEA2;fill-opacity:1;stroke-width:0.26458332" d="m 33.094978,106.79771 c -0.123161,0.0114 -0.228335,-0.10167 -0.212,-0.22326 0,-0.79224 0,-1.58449 0,-2.37674 0.142667,0 0.285333,0 0.428,0 -6.66e-4,0.80585 0.0013,1.61175 -10e-4,2.41756 -0.0076,0.10689 -0.110305,0.18753 -0.215,0.18244 z m -0.908,-2.416 c -0.131945,0.0101 -0.240259,-0.12928 -0.195562,-0.2545 0.03284,-0.10727 0.153264,-0.13901 0.253328,-0.1295 0.59426,5.8e-4 1.188568,-0.001 1.782797,8.7e-4 0.135395,0.006 0.227191,0.16965 0.155999,0.28707 -0.05128,0.0956 -0.164748,0.10068 -0.260002,0.0961 -0.578853,0 -1.157707,0 -1.73656,0 z" id="path1214" inkscape:connector-curvature="0" />
    </g>
    <g id="g950" transform="matrix(0.00173387,0,0,-0.00173387,0.84458141,12.976536)" style="fill:#000000;stroke:none" />
    <g aria-label="KEY" style="font-style:normal;font-variant:normal;font-weight:600;font-stretch:normal;font-size:4px;line-height:1.25;font-family:Quicksand;-inkscape-font-specification:'Quicksand, Semi-Bold';font-variant-ligatures:normal;font-variant-caps:normal;font-variant-numeric:normal;font-feature-settings:normal;text-align:start;letter-spacing:0px;word-spacing:0px;writing-mode:lr-tb;text-anchor:start;display:inline;stroke-width:0.26458332" id="text939" transform="translate(22.493986,0.11530807)">
      <path style="stroke-width:0.26458332" d="m -16.205531,88.911448 c -0.09407,0.0065 -0.153839,-0.07904 -0.202667,-0.146474 -0.313778,-0.404509 -0.627555,-0.809017 -0.941333,-1.213526 0.102667,-0.104 0.205333,-0.208 0.308,-0.312 0.344231,0.450192 0.691632,0.898059 1.033848,1.349729 0.06298,0.09977 0.02486,0.253456 -0.08968,0.296678 -0.03347,0.01661 -0.07074,0.02587 -0.108171,0.02559 z m 0.02,-2.816 c 0.146714,-0.0042 0.244419,0.203421 0.139211,0.309738 -0.186694,0.185321 -0.380588,0.363259 -0.570541,0.545246 -0.389556,0.369672 -0.779113,0.739344 -1.16867,1.109016 -0.008,-0.157333 -0.016,-0.314667 -0.024,-0.472 0.499846,-0.482172 0.997119,-0.967011 1.49859,-1.447499 0.03559,-0.02763 0.08003,-0.04502 0.12541,-0.0445 z m -1.764,2.812 c -0.108105,0.009 -0.215896,-0.08676 -0.206223,-0.197891 -0.0039,-0.361114 -7.25e-4,-0.722308 -0.0018,-1.083459 5.63e-4,-0.449076 -0.0017,-0.89829 0.0017,-1.34728 0.01903,-0.149855 0.220553,-0.224719 0.337349,-0.133492 0.06509,0.04782 0.09237,0.132568 0.08097,0.210693 -4.78e-4,0.788832 9.76e-4,1.577701 -7.34e-4,2.366509 -0.0076,0.10448 -0.105019,0.195532 -0.211187,0.18492 z" id="path941" inkscape:connector-curvature="0" />
      <path style="stroke-width:0.26458332" d="m -15.305094,86.107448 c 0.472424,0.0011 0.944978,-0.0022 1.417321,0.0017 0.135899,0.01523 0.220382,0.196984 0.130675,0.305551 -0.05165,0.06794 -0.142934,0.08578 -0.223458,0.07677 -0.382846,0 -0.765692,0 -1.148538,0 0.01265,-0.02969 0.05166,-0.08917 0.04,-0.01969 0,0.282562 0,0.565123 0,0.847685 -0.0428,-0.02503 -0.02231,-0.05355 0.01888,-0.03992 0.333465,8.52e-4 0.666945,-0.0024 1.000398,0.0018 0.142087,0.01305 0.224707,0.207465 0.127817,0.3155 -0.05262,0.06356 -0.140474,0.07901 -0.218553,0.0707 -0.318846,0 -0.637692,0 -0.956538,0 0.0351,-0.06114 0.02824,0.02189 0.028,0.04948 0,0.279508 0,0.559015 0,0.838523 -0.0442,-0.06391 0.09077,-0.01846 0.125545,-0.03195 0.358432,0.0013 0.717071,-0.0028 1.075373,0.0022 0.129787,0.01743 0.217219,0.185295 0.136908,0.295715 -0.05026,0.07655 -0.149564,0.0967 -0.234993,0.08602 -0.453181,-0.0017 -0.906619,0.0036 -1.359638,-0.0027 -0.107203,-0.01737 -0.18078,-0.13155 -0.163197,-0.236691 9.64e-4,-0.795547 -0.002,-1.591207 0.0015,-2.386683 0.01195,-0.09718 0.104974,-0.176256 0.202503,-0.173886 z" id="path943" inkscape:connector-curvature="0" />
      <path style="stroke-width:0.26458332" d="m -11.30085,86.385154 c -0.04724,0.09226 -0.116901,0.170317 -0.173426,0.256793 l -0.684079,0.957089 c -0.008,0.0099 -0.01518,0.01864 -0.01349,0.02473 -0.001,0.417607 -3.48e-4,0.739512 -0.0015,1.112505 1.72e-4,0.252387 -0.392336,0.256928 -0.39447,-9.23e-4 v -1.121089 c -9.9e-5,-0.01107 -0.0087,-0.02915 -0.01443,-0.03882 -0.29328,-0.393129 -0.575536,-0.765192 -0.866394,-1.160061 -0.159419,-0.230303 0.170016,-0.448399 0.341999,-0.228944 0.289359,0.391277 0.472439,0.672573 0.734928,1.032179 l 0.01953,-0.0026 c 0.258891,-0.369284 0.465486,-0.686609 0.727378,-1.053678 0.15463,-0.205503 0.475803,-0.0033 0.323959,0.222823 z" id="path945" inkscape:connector-curvature="0" sodipodi:nodetypes="ccccccccccccccc" />
    </g>
    <g aria-label="A" style="font-style:normal;font-variant:normal;font-weight:600;font-stretch:normal;font-size:4px;line-height:1.25;font-family:Quicksand;-inkscape-font-specification:'Quicksand, Semi-Bold';font-variant-ligatures:normal;font-variant-caps:normal;font-variant-numeric:normal;font-feature-settings:normal;text-align:start;letter-spacing:0px;word-spacing:0px;writing-mode:lr-tb;text-anchor:start;display:inline;fill:#FDDEA2;fill-opacity:1;stroke-width:0.26458332" id="text904" transform="translate(-0.35577725)">
      <path style="fill:#FDDEA2;fill-opacity:1;stroke-width:0.26458332" d="m 20.175563,87.987708 c -0.302094,0.7252 -0.604439,1.450302 -0.906376,2.175562 -0.03023,0.07432 -0.108244,0.128669 -0.189738,0.120016 -0.05671,-8.62e-4 -0.115232,-0.02887 -0.139481,-0.08242 -0.02889,-0.05341 -0.03219,-0.119609 -0.0053,-0.174417 0.337521,-0.815689 0.674749,-1.631502 1.012454,-2.447114 0.02928,-0.07258 0.100722,-0.12835 0.180532,-0.128 0.08862,-0.0062 0.17554,0.05233 0.203874,0.136375 0.335274,0.808349 0.67086,1.616573 1.005938,2.425 0.03137,0.07934 0.01038,0.179611 -0.06019,0.231187 -0.07708,0.06488 -0.205888,0.04798 -0.263157,-0.03502 -0.033,-0.04475 -0.04877,-0.09882 -0.07169,-0.148919 -0.290303,-0.686751 -0.580605,-1.373502 -0.870908,-2.060253 0.03467,-0.004 0.06933,-0.008 0.104001,-0.012 z m -0.740001,1.592 c 0.06,-0.128 0.12,-0.256 0.18,-0.384 0.377333,0 0.754667,0 1.132,0 0.02267,0.128 0.04533,0.256 0.068,0.384 -0.46,0 -0.92,0 -1.38,0 z" id="path906" inkscape:connector-curvature="0" />
    </g>
    <g aria-label="R" style="font-style:normal;font-variant:normal;font-weight:600;font-stretch:normal;font-size:4px;line-height:1.25;font-family:Quicksand;-inkscape-font-specification:'Quicksand, Semi-Bold';font-variant-ligatures:normal;font-variant-caps:normal;font-variant-numeric:normal;font-feature-settings:normal;text-align:start;letter-spacing:0px;word-spacing:0px;writing-mode:lr-tb;text-anchor:start;display:inline;fill:#FDDEA2;fill-opacity:1;stroke-width:0.26458332" id="text912" transform="translate(0.1403165)">
      <path style="fill:#FDDEA2;fill-opacity:1;stroke-width:0.26458332" d="m 18.952542,97.874474 c -0.0944,0.0016 -0.196788,-0.04922 -0.229875,-0.141937 -0.01595,-0.04721 -0.0083,-0.09755 -0.01013,-0.14641 3.9e-5,-0.77104 -7.8e-5,-1.542082 5.9e-5,-2.313122 -0.0015,-0.101691 0.08794,-0.192454 0.188402,-0.198004 0.155306,-0.0012 0.310661,-1.86e-4 0.465986,-5.27e-4 0.234803,2.71e-4 0.469617,-5.48e-4 0.704412,4.22e-4 0.15151,0.0033 0.299988,0.05516 0.423633,0.142129 0.13347,0.09194 0.232822,0.228295 0.292571,0.377918 0.0557,0.149034 0.06787,0.314551 0.03487,0.470144 -0.04344,0.19243 -0.159909,0.367056 -0.317797,0.484668 -0.04459,0.03136 -0.09515,0.0633 -0.14504,0.07917 -0.01437,-0.02482 -0.02873,-0.04963 -0.0431,-0.07445 0.160296,0.05585 0.29849,0.17731 0.366797,0.333625 0.03809,0.07751 0.05139,0.164215 0.05469,0.249719 0.0094,0.0799 0.01168,0.1608 0.0268,0.239922 0.01217,0.05826 0.02792,0.124759 0.08322,0.157359 0.0505,0.02465 0.09127,0.07084 0.1005,0.127375 0.02337,0.07878 -0.02617,0.163641 -0.09725,0.198 -0.07422,0.03194 -0.160197,0.01645 -0.23075,-0.018 -0.05698,-0.03742 -0.110162,-0.08262 -0.151414,-0.137117 -0.08833,-0.12854 -0.116576,-0.287232 -0.122672,-0.440403 -0.0037,-0.08324 0.0041,-0.169751 -0.0282,-0.248734 -0.03803,-0.10343 -0.134106,-0.178026 -0.24011,-0.202035 -0.09315,-0.02724 -0.190742,-0.01803 -0.28641,-0.01971 -0.2384,0 -0.476799,0 -0.715199,0 0.01867,-0.02667 0.03733,-0.05333 0.056,-0.08 -1.25e-4,0.322296 2.49e-4,0.644598 -1.88e-4,0.966891 -0.0012,0.07757 -0.04215,0.163257 -0.121874,0.185234 -0.01876,0.0056 -0.0384,0.0079 -0.05794,0.0079 z m 0.128,-1.428 c 0.318667,0 0.637333,0 0.956,0 0.115362,-0.0051 0.21204,-0.08731 0.271938,-0.18075 0.08492,-0.132883 0.117079,-0.297369 0.09188,-0.452734 -0.01529,-0.09518 -0.06432,-0.182661 -0.132841,-0.249812 -0.06609,-0.06928 -0.161298,-0.109589 -0.257331,-0.104704 -0.307214,0 -0.614429,0 -0.921643,0 0.01467,-0.03467 0.02933,-0.06933 0.044,-0.104 0,0.392 0,0.784 0,1.176 -0.01733,-0.028 -0.03467,-0.056 -0.052,-0.084 z" id="path914" inkscape:connector-curvature="0" />
    </g>
    <g aria-label="RANGE" style="font-style:normal;font-variant:normal;font-weight:600;font-stretch:normal;font-size:4px;line-height:1.25;font-family:Quicksand;-inkscape-font-specification:'Quicksand, Semi-Bold';font-variant-ligatures:normal;font-variant-caps:normal;font-variant-numeric:normal;font-feature-settings:normal;text-align:start;letter-spacing:0px;word-spacing:0px;writing-mode:lr-tb;text-anchor:start;display:inline;fill:#FDDEA2;fill-opacity:1;stroke-width:0.26458332" id="text944" transform="matrix(0.94356891,0,0,0.94356891,0.16148882,5.9268979)">
      <path style="fill:#FDDEA2;fill-opacity:1;stroke-width:0.26458332" d="m 17.166602,66.852081 c -0.15732,0.01367 -0.276314,-0.143742 -0.23996,-0.292587 5.01e-4,-0.774971 -0.0012,-1.549944 8.98e-4,-2.324913 0.0089,-0.147992 0.175612,-0.205348 0.302195,-0.182373 0.373001,0.0022 0.746272,-0.0053 1.1191,0.0042 0.405947,0.03914 0.728481,0.433588 0.706043,0.837438 -0.0081,0.302626 -0.200503,0.595216 -0.480276,0.71422 -0.05693,-0.06079 -0.0267,-0.09381 0.03648,-0.04187 0.218558,0.105997 0.350433,0.347825 0.345583,0.58737 0.01107,0.141921 0.008,0.319968 0.154359,0.392858 0.113289,0.09979 0.04227,0.3023 -0.108898,0.307936 -0.203162,0.014 -0.356396,-0.175266 -0.404176,-0.355685 -0.04558,-0.144207 -0.03145,-0.296767 -0.04667,-0.444632 -0.02981,-0.157156 -0.178186,-0.270871 -0.335582,-0.275167 -0.197936,-0.01478 -0.396825,-0.0033 -0.595226,-0.0068 h -0.268537 c 0,0 -0.0037,0.0029 -0.0054,0.005 -0.0011,0.308249 0.0026,0.602377 -0.002,0.91055 -0.0088,0.0884 -0.08417,0.172641 -0.177986,0.164381 z m 0.128,-1.428 c 0.32629,-0.0013 0.6526,0.0026 0.978875,-0.002 0.219108,-0.04239 0.331491,-0.276525 0.348763,-0.48036 0.02417,-0.217194 -0.11162,-0.474443 -0.344504,-0.501494 -0.246618,-0.0081 -0.493956,-0.0024 -0.740939,-0.0041 h -0.234195 c 0.02194,-0.06162 0.05394,-0.132115 0.044,-0.03185 v 1.103848 c -0.01733,-0.028 -0.03467,-0.056 -0.052,-0.084 z" id="path947" inkscape:connector-curvature="0" sodipodi:nodetypes="cccccccccccccccccccccccccccccc" />
      <path style="fill:#FDDEA2;fill-opacity:1;stroke-width:0.26458332" d="m 20.594301,64.711495 c -0.309551,0.737597 -0.55278,1.33925 -0.867056,2.074651 -0.07404,0.121741 -0.298847,0.106629 -0.326726,-0.04409 -0.02456,-0.128287 0.07004,-0.237863 0.104634,-0.355608 0.312459,-0.75202 0.620159,-1.506198 0.935787,-2.256787 0.07861,-0.139162 0.322454,-0.118805 0.365104,0.0404 0.32173,0.765685 0.638494,1.533521 0.956189,2.300918 0.04482,0.103377 0.115696,0.233229 0.01818,0.331673 -0.09723,0.125853 -0.296061,0.05547 -0.331163,-0.08751 -0.29876,-0.710843 -0.54758,-1.293609 -0.847415,-2.004037 l -0.0029,-0.0074 z m -0.445274,1.068586 0.911837,0.0022 c 0.04215,0.113906 0.123964,0.276484 0.153473,0.381809 h -1.228882 c 0.0589,-0.139081 0.117796,-0.269043 0.163572,-0.384009 z" id="path949" inkscape:connector-curvature="0" sodipodi:nodetypes="ccccccccccccccccc" />
      <path style="fill:#FDDEA2;fill-opacity:1;stroke-width:0.26458332" d="m 24.323477,64.052081 c 0.146334,-0.005 0.203451,0.162302 0.17996,0.283368 -5.02e-4,0.778065 0.0012,1.556132 -8.97e-4,2.334195 -0.0047,0.172221 -0.24876,0.245396 -0.358587,0.120431 -0.444268,-0.570326 -0.883884,-1.145161 -1.326261,-1.717321 -0.106072,-0.137558 -0.212143,-0.275115 -0.318215,-0.412673 0.06234,-0.05518 0.115152,-0.05384 0.09195,0.04181 -3.65e-4,0.661628 0.0011,1.323258 -7.59e-4,1.984885 -0.0017,0.173345 -0.275173,0.230822 -0.346136,0.07255 -0.04178,-0.119282 -0.01223,-0.249185 -0.02097,-0.373152 3.54e-4,-0.717507 -0.0012,-1.435016 8.57e-4,-2.152522 0.005,-0.160908 0.220288,-0.235994 0.338328,-0.138088 0.08248,0.07675 0.140576,0.175926 0.21253,0.262574 0.474734,0.617984 0.949469,1.235968 1.424204,1.853952 -0.100425,0.127118 -0.04707,-0.0953 -0.05991,-0.15593 0.0014,-0.617557 -0.0035,-1.235398 0.0026,-1.852777 0.01386,-0.08479 0.09439,-0.154995 0.181281,-0.151297 z" id="path951" inkscape:connector-curvature="0" />
      <path style="fill:#FDDEA2;fill-opacity:1;stroke-width:0.26458332" d="m 26.453165,66.892081 c -0.533444,0.01234 -1.059234,-0.301157 -1.296054,-0.780479 -0.266447,-0.513078 -0.187779,-1.185256 0.20229,-1.615025 0.340258,-0.389561 0.896349,-0.561238 1.399812,-0.455736 0.166677,0.03365 0.343778,0.08178 0.47139,0.199012 0.09694,0.126442 -0.02311,0.353056 -0.187678,0.312328 -0.118257,-0.03078 -0.223981,-0.09918 -0.346786,-0.115566 -0.358631,-0.08118 -0.75976,0.03151 -1.00465,0.310814 -0.354179,0.393255 -0.346511,1.057905 0.02643,1.436675 0.199499,0.218637 0.500401,0.322397 0.792445,0.307153 0.173636,-0.0063 0.346019,-0.0482 0.502804,-0.123176 -0.0159,0.06372 -0.03927,0.136801 -0.032,0.03585 0,-0.229283 0,-0.458565 0,-0.687848 0.141214,0.09408 -0.09588,0.04297 -0.156532,0.05597 -0.12943,-0.0041 -0.262224,0.012 -0.389374,-0.01389 -0.156489,-0.05903 -0.15997,-0.325414 0.0088,-0.371617 0.125867,-0.03099 0.257446,-0.0065 0.385848,-0.01404 0.147771,0.0021 0.297239,-0.0088 0.443884,0.0085 0.12533,0.03767 0.154432,0.181795 0.139148,0.295612 -6.6e-4,0.272764 0.0025,0.545547 -0.0018,0.818294 -0.03625,0.163085 -0.220459,0.210189 -0.351241,0.275731 -0.191975,0.07855 -0.398971,0.123521 -0.60676,0.121474 z" id="path953" inkscape:connector-curvature="0" />
      <path style="fill:#FDDEA2;fill-opacity:1;stroke-width:0.26458332" d="m 28.138415,64.052081 c 0.477251,0.0026 0.955053,-0.0053 1.431961,0.004 0.152896,0.0274 0.211846,0.261014 0.07202,0.344207 -0.110311,0.06254 -0.241701,0.02708 -0.362636,0.03576 -0.32178,0 -0.643561,0 -0.965341,0 0.02864,-0.06982 0.04934,-0.06469 0.04,0.0041 0,0.274618 0,0.549237 0,0.823855 -0.06918,-0.07947 0.146474,-0.02326 0.197843,-0.03988 0.279865,0.002 0.56032,-0.0052 0.839814,0.0041 0.150683,0.02888 0.209581,0.260355 0.07357,0.345261 -0.107768,0.06686 -0.239546,0.02906 -0.359324,0.03851 -0.259967,0 -0.519933,0 -0.7799,0 0.04967,-0.07033 0.02102,0.07873 0.028,0.114844 0,0.257717 0,0.515434 0,0.773151 -0.04504,-0.06977 0.158736,-0.01421 0.210713,-0.03186 0.33435,0.0024 0.669386,-0.0057 1.003303,0.0044 0.154391,0.02889 0.212822,0.258818 0.07374,0.344551 -0.118665,0.06357 -0.259482,0.02389 -0.388127,0.03477 -0.386128,-0.0016 -0.772581,0.0041 -1.158505,-0.0031 -0.146579,-0.02431 -0.17914,-0.19034 -0.161067,-0.314338 0.0019,-0.772849 -0.0041,-1.546059 0.0031,-2.318683 0.01652,-0.09279 0.106765,-0.165955 0.200807,-0.163774 z" id="path955" inkscape:connector-curvature="0" />
    </g>
    <g aria-label="SENSE" style="font-style:normal;font-variant:normal;font-weight:600;font-stretch:normal;font-size:4px;line-height:1.25;font-family:Quicksand;-inkscape-font-specification:'Quicksand, Semi-Bold';font-variant-ligatures:normal;font-variant-caps:normal;font-variant-numeric:normal;font-feature-settings:normal;text-align:start;letter-spacing:0px;word-spacing:0px;writing-mode:lr-tb;text-anchor:start;display:inline;fill:#FDDEA2;fill-opacity:1;stroke-width:0.26458332" id="text967" transform="matrix(0.94258156,0,0,0.94258156,1.1381258,1.6663367)">
      <path style="fill:#FDDEA2;fill-opacity:1;stroke-width:0.26458332" d="m 2.3533041,71.477958 c -0.3263245,0.0069 -0.6610609,-0.09345 -0.9066998,-0.313782 -0.089714,-0.05817 -0.1543991,-0.171754 -0.1072203,-0.276893 0.047201,-0.119134 0.2234007,-0.168252 0.3119442,-0.0651 0.1538723,0.131199 0.3347407,0.242148 0.5402087,0.261721 0.2400338,0.03486 0.5156132,-0.01037 0.6827741,-0.200375 C 2.9959648,70.726335 2.9325652,70.476473 2.7616318,70.381871 2.4555652,70.177735 2.0572281,70.220214 1.7458176,70.027074 1.5370835,69.911713 1.4005906,69.686238 1.3898645,69.448371 c -0.021054,-0.243716 0.082478,-0.496142 0.2822207,-0.641025 0.2996703,-0.226059 0.7076116,-0.251177 1.0615372,-0.161553 0.1913178,0.05425 0.385499,0.143749 0.51156,0.302479 0.093874,0.112073 0.00997,0.295752 -0.1309173,0.312034 -0.1230505,0.01504 -0.1863331,-0.119747 -0.29477,-0.154855 -0.2509416,-0.126325 -0.5630588,-0.178715 -0.8223027,-0.04595 -0.1377986,0.06036 -0.230047,0.209439 -0.205435,0.36044 0.011103,0.135713 0.1159332,0.239209 0.235863,0.290563 0.3128442,0.147189 0.6786907,0.147846 0.979006,0.32751 0.1772531,0.09808 0.2992698,0.28091 0.3247279,0.481784 0.038176,0.229876 -0.017712,0.482072 -0.1863484,0.649781 -0.2027226,0.212704 -0.5024407,0.310846 -0.7917018,0.308377 z" id="path969" inkscape:connector-curvature="0" />
      <path style="fill:#FDDEA2;fill-opacity:1;stroke-width:0.26458332" d="m 4.0410541,68.637958 c 0.4772515,0.0026 0.9550532,-0.0053 1.4319614,0.004 0.1429451,0.02634 0.209485,0.236806 0.090275,0.330367 -0.1017693,0.08031 -0.2382722,0.04061 -0.357828,0.0496 -0.3294696,0 -0.6589391,0 -0.9884086,0 0.02584,-0.06278 0.049507,-0.06954 0.04,-8.99e-4 0,0.2763 0,0.552601 0,0.828901 -0.073759,-0.07994 0.1330763,-0.02321 0.1786785,-0.03988 0.2857871,0.002 0.5721391,-0.0051 0.8575712,0.004 0.1531617,0.02853 0.2116328,0.262023 0.073148,0.347488 -0.1049168,0.06195 -0.2312705,0.02851 -0.3470899,0.03641 -0.2634361,0 -0.5268723,0 -0.7903084,0 0.04689,-0.06526 0.022077,0.0744 0.028,0.110402 0,0.259201 0,0.518401 0,0.777602 -0.045491,-0.06981 0.1557004,-0.01423 0.2059819,-0.03186 0.3317911,9.03e-4 0.6637729,-0.0028 0.9954439,0.0022 0.1410289,0.01756 0.2243045,0.212814 0.1191989,0.31798 -0.096972,0.09981 -0.2485496,0.05288 -0.3719361,0.06365 -0.402402,-0.0018 -0.8051262,0.0041 -1.2073254,-0.0031 -0.1454757,-0.02387 -0.1796038,-0.188202 -0.1613114,-0.311697 4.598e-4,-0.767541 -0.00123,-1.535084 8.861e-4,-2.302624 0.00662,-0.101101 0.1026902,-0.184886 0.2030624,-0.182506 z" id="path971" inkscape:connector-curvature="0" />
      <path style="fill:#FDDEA2;fill-opacity:1;stroke-width:0.26458332" d="m 8.2183041,68.637958 c 0.1449426,-0.005 0.2034677,0.160139 0.1799602,0.280683 -0.00112,0.783095 0.00249,1.56629 -0.00185,2.349322 -0.016946,0.168477 -0.2563528,0.228793 -0.3620183,0.10375 -0.5476297,-0.707558 -0.9956746,-1.2967 -1.542501,-2.005141 0,0 -0.00681,1.4e-5 -0.00563,0.0079 -3.984e-4,0.669273 0.00107,1.228898 -7.68e-4,1.89817 -0.00198,0.169828 -0.2652558,0.229859 -0.3425827,0.08043 -0.046738,-0.116038 -0.015855,-0.244974 -0.024508,-0.366695 8.787e-4,-0.726612 -0.0024,-1.453315 0.00177,-2.179871 0.015974,-0.146697 0.2065161,-0.215425 0.3228709,-0.135142 0.081051,0.05899 0.1273804,0.152114 0.1921879,0.22724 l 1.3908473,1.810959 c 0.00925,0.0076 0.012202,-0.01155 0.00825,-0.02616 0.00171,-0.667528 -0.00358,-1.226794 0.0027,-1.894144 0.013873,-0.08479 0.094385,-0.155003 0.1812769,-0.151293 z" id="path973" inkscape:connector-curvature="0" sodipodi:nodetypes="ccccccccccccccccc" />
      <path style="fill:#FDDEA2;fill-opacity:1;stroke-width:0.26458332" d="m 9.9079916,71.477958 c -0.3263245,0.0069 -0.6610609,-0.09345 -0.9066998,-0.313782 -0.089714,-0.05817 -0.1543991,-0.171754 -0.1072203,-0.276893 0.047201,-0.119134 0.2234007,-0.168252 0.3119442,-0.0651 0.1538724,0.131199 0.3347408,0.242148 0.5402087,0.261721 0.2400339,0.03486 0.5156136,-0.01037 0.6827746,-0.200375 0.121652,-0.157192 0.05826,-0.407055 -0.112676,-0.501657 C 10.010255,70.177736 9.611917,70.220214 9.3005051,70.027074 9.091771,69.911713 8.9552781,69.686238 8.944552,69.448371 8.9234981,69.204655 9.02703,68.952229 9.2267727,68.807346 c 0.2996704,-0.22606 0.7076118,-0.251177 1.0615373,-0.161553 0.191318,0.05425 0.385499,0.143749 0.51156,0.302479 0.09387,0.112073 0.01,0.295753 -0.130917,0.312034 -0.12305,0.01504 -0.186333,-0.119747 -0.29477,-0.154855 -0.250942,-0.126325 -0.563059,-0.178715 -0.822303,-0.04595 -0.1377986,0.06036 -0.2300471,0.209439 -0.2054351,0.36044 0.011104,0.135713 0.1159332,0.23921 0.235863,0.290563 0.3128444,0.147189 0.6786911,0.147846 0.9790071,0.32751 0.177253,0.09808 0.299267,0.28091 0.324726,0.481784 0.03818,0.229876 -0.01771,0.482072 -0.186343,0.649781 -0.202725,0.212705 -0.50244,0.310846 -0.7917064,0.308377 z" id="path975" inkscape:connector-curvature="0" />
      <path style="fill:#FDDEA2;fill-opacity:1;stroke-width:0.26458332" d="m 11.595742,68.637958 c 0.477252,0.0026 0.955053,-0.0053 1.431962,0.004 0.142944,0.02634 0.209485,0.236806 0.09028,0.330367 -0.10177,0.08031 -0.238272,0.04061 -0.357828,0.0496 -0.32947,0 -0.658939,0 -0.988409,0 0.02585,-0.06278 0.04951,-0.06955 0.04,-8.99e-4 0,0.2763 0,0.552601 0,0.828901 -0.07376,-0.07994 0.13308,-0.02321 0.178683,-0.03988 0.285787,0.002 0.572139,-0.0051 0.857571,0.004 0.153162,0.02853 0.211633,0.262024 0.07315,0.347488 -0.104916,0.06195 -0.231269,0.02851 -0.347088,0.03641 -0.263437,0 -0.526873,0 -0.790309,0 0.04688,-0.06526 0.02208,0.0744 0.028,0.110402 0,0.259201 0,0.518401 0,0.777602 -0.04552,-0.06981 0.155708,-0.01423 0.205986,-0.03186 0.331791,9.03e-4 0.663772,-0.0028 0.995443,0.0022 0.141029,0.01756 0.224305,0.212813 0.119199,0.31798 -0.09697,0.09981 -0.24855,0.05288 -0.371936,0.06365 -0.402402,-0.0018 -0.805126,0.0041 -1.207325,-0.0031 -0.145476,-0.02387 -0.179604,-0.188202 -0.161311,-0.311697 4.62e-4,-0.767541 -0.0012,-1.535084 8.85e-4,-2.302624 0.0066,-0.101117 0.102713,-0.184886 0.203055,-0.182506 z" id="path977" inkscape:connector-curvature="0" />
    </g>
  </g>
  <g inkscape:groupmode="layer" id="layer2" inkscape:label="components" style="display:none">
    <circle cy="113.10709" cx="7.6634636" id="circle4956" style="display:inline;opacity:1;vector-effect:none;fill:#00ff00;fill-opacity:1;fill-rule:evenodd;stroke:none;stroke-width:1;stroke-linecap:butt;stroke-linejoin:miter;stroke-miterlimit:4;stroke-dasharray:none;stroke-dashoffset:0;stroke-opacity:1;paint-order:normal" inkscape:label="main" r="4" />
    <circle style="display:inline;opacity:1;vector-effect:none;fill:#0000ff;fill-opacity:1;fill-rule:evenodd;stroke:none;stroke-width:1;stroke-linecap:butt;stroke-linejoin:miter;stroke-miterlimit:4;stroke-dasharray:none;stroke-dashoffset:0;stroke-opacity:1;paint-order:normal" id="circle4958" cx="22.94511" cy="112.93289" r="4" inkscape:label="main" />
    <text xml:space="preserve" style="font-style:normal;font-variant:normal;font-weight:600;font-stretch:normal;font-size:4px;line-height:1.25;font-family:Quicksand;-inkscape-font-specification:'Quicksand, Semi-Bold';font-variant-ligatures:normal;font-variant-caps:normal;font-variant-numeric:normal;font-feature-settings:normal;text-align:start;letter-spacing:0px;word-spacing:0px;writing-mode:lr-tb;text-anchor:start;stroke-width:0.26458332" x="16.089626" y="7.1729927" id="text1014"><tspan sodipodi:role="line" id="tspan1012" x="16.089626" y="10.872993" style="stroke-width:0.26458332" /><tspan sodipodi:role="line" x="16.089626" y="15.872993" style="stroke-width:0.26458332" id="tspan1016" /></text>
    <circle r="4" inkscape:label="key" style="display:inline;opacity:1;vector-effect:none;fill:#00ff00;fill-opacity:1;fill-rule:evenodd;stroke:none;stroke-width:1;stroke-linecap:butt;stroke-linejoin:miter;stroke-miterlimit:4;stroke-dasharray:none;stroke-dashoffset:0;stroke-opacity:1;paint-order:normal" id="circle935" cx="7.6329141" cy="95.110558" />
    <circle r="1.4860785" style="fill:#FDDEA2f00;fill-opacity:1;stroke-width:0.40513346" id="circle990" cx="27.948092" cy="63.733276" inkscape:label="meter1" />
    <circle r="1.5" inkscape:label="meter0" cy="15.487553" cx="2.5197723" id="circle884" style="fill:#FDDEA2f00;fill-opacity:1;stroke-width:0.40892875" />
    <circle cy="76.554413" cx="8.1512556" id="circle874" style="display:inline;opacity:1;vector-effect:none;fill:#ff0000;fill-opacity:1;fill-rule:evenodd;stroke:none;stroke-width:1.25;stroke-linecap:butt;stroke-linejoin:miter;stroke-miterlimit:4;stroke-dasharray:none;stroke-dashoffset:0;stroke-opacity:1;paint-order:normal" inkscape:label="sense" r="5" />
    <circle inkscape:label="range" style="display:inline;opacity:1;vector-effect:none;fill:#ff0000;fill-opacity:1;fill-rule:evenodd;stroke:none;stroke-width:1.25;stroke-linecap:butt;stroke-linejoin:miter;stroke-miterlimit:4;stroke-dasharray:none;stroke-dashoffset:0;stroke-opacity:1;paint-order:normal" id="circle873" cx="22.112013" cy="76.469406" r="5" />
    <circle cy="96.676849" cx="24.427633" id="circle875" style="display:inline;opacity:1;vector-effect:none;fill:#ff0000;fill-opacity:1;fill-rule:evenodd;stroke:none;stroke-width:0.625;stroke-linecap:butt;stroke-linejoin:miter;stroke-miterlimit:4;stroke-dasharray:none;stroke-dashoffset:0;stroke-opacity:1;paint-order:normal" inkscape:label="release" r="2.5" />
    <circle inkscape:label="attack" style="display:inline;opacity:1;vector-effect:none;fill:#ff0000;fill-opacity:1;fill-rule:evenodd;stroke:none;stroke-width:0.625;stroke-linecap:butt;stroke-linejoin:miter;stroke-miterlimit:4;stroke-dasharray:none;stroke-dashoffset:0;stroke-opacity:1;paint-order:normal" id="circle914" cx="24.513155" cy="88.989906" r="2.5" />
  </g>
</svg>
