<?xml version="1.0" encoding="UTF-8" standalone="no"?>
<svg xmlns:osb="http://www.openswatchbook.org/uri/2009/osb" xmlns:dc="http://purl.org/dc/elements/1.1/" xmlns:cc="http://creativecommons.org/ns#" xmlns:rdf="http://www.w3.org/1999/02/22-rdf-syntax-ns#" xmlns:svg="http://www.w3.org/2000/svg" xmlns="http://www.w3.org/2000/svg" xmlns:sodipodi="http://sodipodi.sourceforge.net/DTD/sodipodi-0.dtd" xmlns:inkscape="http://www.inkscape.org/namespaces/inkscape" width="60.959999mm" height="128.5mm" viewBox="0 0 60.960003 128.50002" version="1.1" id="svg8" inkscape:version="0.92.5 (2060ec1f9f, 2020-04-08)" sodipodi:docname="Stems.svg">
  <defs id="defs2">
    <linearGradient osb:paint="gradient" id="linearGradient1021">
      <stop id="stop1017" offset="0" style="stop-color:#FDDEA2fff;stop-opacity:1;" />
      <stop id="stop1019" offset="1" style="stop-color:#FDDEA2fff;stop-opacity:0;" />
    </linearGradient>
  </defs>
  <sodipodi:namedview inkscape:object-nodes="false" id="base" pagecolor="#000000" bordercolor="#484a4b" borderopacity="1" inkscape:pageopacity="1" inkscape:pageshadow="2" inkscape:zoom="1.FDBB3C9" inkscape:cx="132.81561" inkscape:cy="217.93882" inkscape:document-units="mm" inkscape:current-layer="layer3" showgrid="true" units="mm" inkscape:snap-bbox="true" inkscape:snap-page="true" inkscape:bbox-nodes="false" inkscape:snap-bbox-edge-midpoints="false" inkscape:window-width="2931" inkscape:window-height="1653" inkscape:window-x="646" inkscape:window-y="109" inkscape:window-maximized="0" inkscape:snap-bbox-midpoints="true" inkscape:snap-nodes="false" inkscape:document-rotation="0" showguides="true" inkscape:guide-bbox="true" inkscape:snap-global="false" inkscape:pagecheckerboard="true" guidecolor="#0092ff" guideopacity="0.49803922" guidehicolor="#ff00ff" guidehiopacity="0.49803922">
    <inkscape:grid type="xygrid" id="grid68" visible="true" enabled="true" snapvisiblegridlinesonly="true" dotted="false" empspacing="8" spacingx="1.2700002" spacingy="1.2700002" units="mm" color="#FDDEA2fff" opacity="0.16470588" empcolor="#FDDEA2fff" empopacity="0.22745098" />
    <sodipodi:guide position="30.480004,135.63931" orientation="1,0" id="guide1054" inkscape:locked="false" inkscape:label="" inkscape:color="rgb(0,146,255)" />
    <sodipodi:guide position="76.398449,109.86825" orientation="0,1" id="guide1062" inkscape:locked="false" />
    <sodipodi:guide position="81.009406,93.310488" orientation="0,1" id="guide1064" inkscape:locked="false" />
    <sodipodi:guide position="-6.5013322,29.513242" orientation="0,1" id="guide1066" inkscape:locked="false" />
    <sodipodi:guide position="-9.0738011,32.974385" orientation="0,1" id="guide906" inkscape:locked="false" />
  </sodipodi:namedview>
  <metadata id="metadata5">
    <rdf:RDF>
      <cc:Work rdf:about="">
        <dc:format>image/svg+xml</dc:format>
        <dc:type rdf:resource="http://purl.org/dc/dcmitype/StillImage" />
        <dc:title />
      </cc:Work>
    </rdf:RDF>
  </metadata>
  <g inkscape:groupmode="layer" id="layer5" inkscape:label="BG-pane" style="display:inline">
    <rect style="display:inline;opacity:1;vector-effect:none;fill:#401B5C;fill-opacity:1;fill-rule:evenodd;stroke:none;stroke-width:1.24342716;stroke-linecap:butt;stroke-linejoin:miter;stroke-miterlimit:4;stroke-dasharray:none;stroke-dashoffset:0;stroke-opacity:1;paint-order:normal" id="rect420" width="60.959999" height="128.5" x="-61.065834" y="0" transform="scale(-1,1)" />
  </g>
  <g inkscape:label="Background" inkscape:groupmode="layer" id="layer1" transform="translate(0,-168.49998)" style="display:inline">
    <rect style="fill:#662C91;fill-opacity:1;stroke-width:0.29527199" id="rect119" width="10.088554" height="62.977573" x="48.213432" y="198.36307" ry="1.488" rx="1.488" />
    <rect rx="1.488" ry="1.488" y="198.38136" x="8.8516235" height="63.037704" width="26.729267" id="rect864" style="fill:#101010;fill-opacity:1;stroke-width:0.29527202" />
    <rect style="fill:#401B5C;fill-opacity:1;stroke-width:0.29527199" id="rect865" width="33.001911" height="8.8680573" x="13.971492" y="182.71159" ry="1.488" rx="1.488" />
    <rect rx="1.4882814" ry="1.4882814" y="262.71735" x="2.510886" height="24.175598" width="10.18152" id="rect971" style="font-style:normal;font-variant:normal;font-weight:600;font-stretch:normal;font-size:4px;line-height:1.25;font-family:Quicksand;-inkscape-font-specification:'Quicksand, Semi-Bold';font-variant-ligatures:normal;font-variant-caps:normal;font-variant-numeric:normal;font-feature-settings:normal;text-align:start;letter-spacing:0px;word-spacing:0px;writing-mode:lr-tb;text-anchor:start;display:inline;fill:#FDBB3C;fill-opacity:1;stroke:none;stroke-width:0.5;stroke-linecap:butt;stroke-linejoin:round;stroke-miterlimit:4;stroke-dasharray:none;stroke-opacity:1;paint-order:stroke fill markers" />
    <rect style="font-style:normal;font-variant:normal;font-weight:600;font-stretch:normal;font-size:4px;line-height:1.25;font-family:Quicksand;-inkscape-font-specification:'Quicksand, Semi-Bold';font-variant-ligatures:normal;font-variant-caps:normal;font-variant-numeric:normal;font-feature-settings:normal;text-align:start;letter-spacing:0px;word-spacing:0px;writing-mode:lr-tb;text-anchor:start;display:inline;fill:#FDBB3C;fill-opacity:1;stroke:none;stroke-width:0.5;stroke-linecap:butt;stroke-linejoin:round;stroke-miterlimit:4;stroke-dasharray:none;stroke-opacity:1;paint-order:stroke fill markers" id="rect891" width="10.18152" height="24.175598" x="13.99666" y="262.71735" ry="1.4882814" rx="1.4882814" />
    <rect rx="1.4882814" ry="1.4882814" y="262.71735" x="25.367262" height="24.175598" width="10.18152" id="rect903" style="font-style:normal;font-variant:normal;font-weight:600;font-stretch:normal;font-size:4px;line-height:1.25;font-family:Quicksand;-inkscape-font-specification:'Quicksand, Semi-Bold';font-variant-ligatures:normal;font-variant-caps:normal;font-variant-numeric:normal;font-feature-settings:normal;text-align:start;letter-spacing:0px;word-spacing:0px;writing-mode:lr-tb;text-anchor:start;display:inline;fill:#FDBB3C;fill-opacity:1;stroke:none;stroke-width:0.5;stroke-linecap:butt;stroke-linejoin:round;stroke-miterlimit:4;stroke-dasharray:none;stroke-opacity:1;paint-order:stroke fill markers" />
    <rect style="font-style:normal;font-variant:normal;font-weight:600;font-stretch:normal;font-size:4px;line-height:1.25;font-family:Quicksand;-inkscape-font-specification:'Quicksand, Semi-Bold';font-variant-ligatures:normal;font-variant-caps:normal;font-variant-numeric:normal;font-feature-settings:normal;text-align:start;letter-spacing:0px;word-spacing:0px;writing-mode:lr-tb;text-anchor:start;display:inline;fill:#FDBB3C;fill-opacity:1;stroke:none;stroke-width:0.5;stroke-linecap:butt;stroke-linejoin:round;stroke-miterlimit:4;stroke-dasharray:none;stroke-opacity:1;paint-order:stroke fill markers" id="rect905" width="10.18152" height="24.175598" x="36.759594" y="262.71735" ry="1.4882814" rx="1.4882814" />
    <rect rx="1.4882814" ry="1.488" y="262.71735" x="48.264256" height="24.175598" width="10.18152" id="rect907" style="font-style:normal;font-variant:normal;font-weight:600;font-stretch:normal;font-size:4px;line-height:1.25;font-family:Quicksand;-inkscape-font-specification:'Quicksand, Semi-Bold';font-variant-ligatures:normal;font-variant-caps:normal;font-variant-numeric:normal;font-feature-settings:normal;text-align:start;letter-spacing:0px;word-spacing:0px;writing-mode:lr-tb;text-anchor:start;display:inline;fill:#FDBB3C;fill-opacity:1;stroke:none;stroke-width:0.5;stroke-linecap:butt;stroke-linejoin:round;stroke-miterlimit:4;stroke-dasharray:none;stroke-opacity:1;paint-order:stroke fill markers" />
  </g>
  <g inkscape:groupmode="layer" id="layer4" inkscape:label="Lines" style="display:inline">
    <path style="display:inline;fill:#FDDEA2;fill-opacity:1;stroke:none;stroke-width:2.29662108;stroke-miterlimit:4;stroke-dasharray:none;stroke-opacity:1" d="M 10.145222,3.1410149 H 50.799003 V 3.6197243 H 10.145222 Z" id="rect4583-9-8-6" inkscape:connector-curvature="0" />
    <path style="display:inline;fill:#FDDEA2;fill-opacity:1;stroke:none;stroke-width:0.31307399;stroke-miterlimit:4;stroke-dasharray:none;stroke-opacity:1" d="m 55.878227,3.199376 h 2.53785 V 3.59114 h -2.53785 z" id="rect4583-9-9-5-2" inkscape:connector-curvature="0" />
    <path style="display:inline;fill:#FDDEA2;fill-opacity:1;stroke:none;stroke-width:0.31292218;stroke-miterlimit:4;stroke-dasharray:none;stroke-opacity:1" d="m 2.5283664,3.152604 h 2.535386 v 0.391764 h -2.535386 z" id="rect4583-9-9-4-9-1" inkscape:connector-curvature="0" />
    <path style="display:inline;fill:#FDDEA2;fill-opacity:1;stroke:none;stroke-width:2.29549456;stroke-miterlimit:4;stroke-dasharray:none;stroke-opacity:1" d="M 10.156326,1.6026113 H 50.799057 V 2.08114 H 10.156326 Z" id="rect4583-9-8-3" inkscape:connector-curvature="0" />
    <path style="display:inline;fill:#FDDEA2;fill-opacity:1;stroke:none;stroke-width:0.31343439;stroke-miterlimit:4;stroke-dasharray:none;stroke-opacity:1" d="m 55.88691,1.660881 h 2.5437 v 0.391765 h -2.5437 z" id="rect4583-9-9-5-4" inkscape:connector-curvature="0" />
    <path style="display:inline;fill:#FDDEA2;fill-opacity:1;stroke:none;stroke-width:0.31253925;stroke-miterlimit:4;stroke-dasharray:none;stroke-opacity:1" d="m 2.5291344,1.614109 h 2.529186 v 0.391764 h -2.529186 z" id="rect4583-9-9-4-9-0" inkscape:connector-curvature="0" />
    <path style="display:inline;fill:#FDDEA2;fill-opacity:1;stroke:none;stroke-width:2.24562597;stroke-miterlimit:4;stroke-dasharray:none;stroke-opacity:1" d="M 2.5351551,12.360164 H 58.422592 v 0.479 H 2.5351551 Z" id="rect4583-9-9-4-9-06" inkscape:connector-curvature="0" sodipodi:nodetypes="ccccc" />
    <path style="display:inline;fill:#FDDEA2;fill-opacity:1;stroke:none;stroke-width:2.24393392;stroke-miterlimit:4;stroke-dasharray:none;stroke-opacity:1" d="M 2.5257983,10.82167 H 58.4263 v 0.479 H 2.5257983 Z" id="rect4583-9-9-4-9-0-3" inkscape:connector-curvature="0" sodipodi:nodetypes="ccccc" />
    <path style="display:inline;fill:#401B5C;fill-opacity:1;fill-rule:nonzero;stroke:none;stroke-width:0.16500001;stroke-linecap:round;stroke-linejoin:round;stroke-miterlimit:4;stroke-dasharray:none;stroke-opacity:1;paint-order:markers stroke fill" inkscape:transform-center-x="-0.50132902" inkscape:transform-center-y="-1.0897405e-06" d="M 32.270555,97.246862 29.26258,98.983515 V 95.510207 Z" id="path871" inkscape:connector-curvature="0" />
    <path style="display:inline;fill:#401B5C;fill-opacity:1;fill-rule:nonzero;stroke:none;stroke-width:0.16500001;stroke-linecap:round;stroke-linejoin:round;stroke-miterlimit:4;stroke-dasharray:none;stroke-opacity:1;paint-order:markers stroke fill" d="m 40.189034,95.497398 h 0.991312 c 0.05167,0 0.09326,0.0416 0.09326,0.09327 v 3.347004 c 0,0.05167 -0.0416,0.09327 -0.09326,0.09327 h -0.991312 c -0.05167,0 -0.09327,-0.0416 -0.09327,-0.09327 v -3.347004 c 0,-0.05167 0.0416,-0.09327 0.09327,-0.09327 z" id="rect874" inkscape:connector-curvature="0" />
    <path style="display:inline;fill:#401B5C;fill-opacity:1;fill-rule:nonzero;stroke:none;stroke-width:0.16500001;stroke-linecap:round;stroke-linejoin:round;stroke-miterlimit:4;stroke-dasharray:none;stroke-opacity:1;paint-order:markers stroke fill" d="m 42.413861,95.497398 h 0.99131 c 0.05167,0 0.09327,0.0416 0.09327,0.09327 v 3.347004 c 0,0.05167 -0.0416,0.09327 -0.09327,0.09327 h -0.99131 c -0.05167,0 -0.09327,-0.0416 -0.09327,-0.09327 v -3.347004 c 0,-0.05167 0.0416,-0.09327 0.09327,-0.09327 z" id="rect876" inkscape:connector-curvature="0" />
    <path style="display:inline;fill:#401B5C;fill-opacity:1;fill-rule:nonzero;stroke:none;stroke-width:0.16500001;stroke-linecap:round;stroke-linejoin:round;stroke-miterlimit:4;stroke-dasharray:none;stroke-opacity:1;paint-order:markers stroke fill" d="m 51.098004,95.551857 h 0.979599 c 0.05106,0 0.09218,0.04111 0.09218,0.09218 V 98.9515 c 0,0.05106 -0.04111,0.09218 -0.09218,0.09218 h -0.979599 c -0.05106,0 -0.09217,-0.04111 -0.09217,-0.09218 v -3.307463 c 0,-0.05106 0.04111,-0.09218 0.09217,-0.09218 z" id="rect880" inkscape:connector-curvature="0" />
    <path style="display:inline;fill:#401B5C;fill-opacity:1;fill-rule:nonzero;stroke:none;stroke-width:0.16500001;stroke-linecap:round;stroke-linejoin:round;stroke-miterlimit:4;stroke-dasharray:none;stroke-opacity:1;paint-order:markers stroke fill" inkscape:transform-center-x="0.52852107" d="m 52.512886,97.36243 3.171126,-1.83085 v 3.6617 z" id="path888" inkscape:connector-curvature="0" inkscape:transform-center-y="-1.5126204e-06" />
    <path inkscape:connector-curvature="0" id="path979" d="m 6.1157918,95.539204 h 3.1171231 c 0.05106,0 0.092166,0.0411 0.092166,0.09216 v 3.307407 c 0,0.05106 -0.041106,0.09216 -0.092166,0.09216 H 6.1157918 c -0.05106,0 -0.092166,-0.0411 -0.092166,-0.09216 v -3.307407 c 0,-0.05106 0.041106,-0.09216 0.092166,-0.09216 z" style="display:inline;fill:#401B5C;fill-opacity:1;fill-rule:nonzero;stroke:none;stroke-width:0.16500001;stroke-linecap:round;stroke-linejoin:round;stroke-miterlimit:4;stroke-dasharray:none;stroke-opacity:1;paint-order:markers stroke fill" sodipodi:nodetypes="sssssssss" />
    <path style="display:inline;fill:#FDDEA2;fill-opacity:1;fill-rule:nonzero;stroke:none;stroke-width:0.16500001;stroke-linecap:round;stroke-linejoin:round;stroke-miterlimit:4;stroke-dasharray:none;stroke-opacity:1;paint-order:markers stroke fill" d="m 57.540312,17.374127 c -0.03641,0 -0.06574,0.02934 -0.06574,0.06574 v 1.597081 h -0.925337 v -0.403497 l -1.415619,0.817137 1.415619,0.817513 v -0.401243 h 1.680861 c 0.01027,0 0.01954,-0.003 0.02818,-0.0071 0.02658,-0.0084 0.04621,-0.03218 0.04621,-0.06162 V 17.4399 c 0,-0.03641 -0.02934,-0.06574 -0.06574,-0.06574 z" id="path894" inkscape:connector-curvature="0" />
    <path inkscape:connector-curvature="0" id="path899" d="m 21.98114,97.301171 -3.196221,1.845337 v -3.690674 z" style="display:inline;fill:#401B5C;fill-opacity:1;fill-rule:nonzero;stroke:none;stroke-width:0.16500001;stroke-linecap:round;stroke-linejoin:round;stroke-miterlimit:4;stroke-dasharray:none;stroke-opacity:1;paint-order:markers stroke fill" inkscape:transform-center-x="-0.53270342" />
    <path inkscape:connector-curvature="0" id="path901" d="m 16.986096,95.530583 h 0.987352 c 0.05146,0 0.09289,0.04143 0.09289,0.09289 v 3.333636 c 0,0.05146 -0.04143,0.09289 -0.09289,0.09289 h -0.987352 c -0.05146,0 -0.09289,-0.04143 -0.09289,-0.09289 v -3.333636 c 0,-0.05146 0.04143,-0.09289 0.09289,-0.09289 z" style="display:inline;fill:#401B5C;fill-opacity:1;fill-rule:nonzero;stroke:none;stroke-width:0.16500001;stroke-linecap:round;stroke-linejoin:round;stroke-miterlimit:4;stroke-dasharray:none;stroke-opacity:1;paint-order:markers stroke fill" />
  </g>
  <g inkscape:groupmode="layer" id="layer3" inkscape:label="Text" style="display:inline">
    <text xml:space="preserve" style="font-size:4px;line-height:1.25;font-family:'Bebas Neue';-inkscape-font-specification:'Bebas Neue, Normal';letter-spacing:0px;word-spacing:0px;stroke-width:0.26458332" x="2.2612731" y="4.3884163" id="text4746"><tspan sodipodi:role="line" id="tspan4744" x="2.2612731" y="7.8884163" style="stroke-width:0.26458332" /></text>
    <g aria-label="Stems" style="font-style:normal;font-variant:normal;font-weight:600;font-stretch:normal;font-size:4px;line-height:1.25;font-family:Quicksand;-inkscape-font-specification:'Quicksand, Semi-Bold';font-variant-ligatures:normal;font-variant-caps:normal;font-variant-numeric:normal;font-feature-settings:normal;text-align:start;letter-spacing:0px;word-spacing:0px;writing-mode:lr-tb;text-anchor:start;stroke-width:0.26458332" id="text1064" />
    <path style="font-style:normal;font-variant:normal;font-weight:600;font-stretch:normal;font-size:4px;line-height:1.25;font-family:Quicksand;-inkscape-font-specification:'Quicksand, Semi-Bold';font-variant-ligatures:normal;font-variant-caps:normal;font-variant-numeric:normal;font-feature-settings:normal;text-align:start;letter-spacing:0px;word-spacing:0px;writing-mode:lr-tb;text-anchor:start;display:inline;fill:#FDDEA2;fill-opacity:1;stroke-width:0.26458332" d="m 25.780385,8.8032465 c -0.32762,0.00694 -0.663518,-0.094118 -0.909394,-0.316278 -0.09019,-0.057399 -0.151518,-0.1738829 -0.103182,-0.2772685 0.04868,-0.1160225 0.22092,-0.1647257 0.308865,-0.063616 0.148816,0.1267096 0.321659,0.2363323 0.519741,0.2597328 0.247023,0.041276 0.53448,-0.00195 0.706817,-0.1989254 C 26.422077,8.0484185 26.359105,7.8020846 26.188685,7.7070386 25.888794,7.5070019 25.50062,7.5443941 25.191956,7.3634709 24.991154,7.2577817 24.847528,7.0537487 24.822313,6.8275312 24.787613,6.5821719 24.870563,6.3156114 25.067884,6.1579819 25.350422,5.9212984 25.749812,5.883761 26.09962,5.956199 c 0.211512,0.048829 0.425899,0.1414406 0.568048,0.3108574 0.09811,0.1091694 0.02159,0.295848 -0.119667,0.3174239 -0.126237,0.021705 -0.191283,-0.1181535 -0.301398,-0.153761 -0.24785,-0.1246256 -0.554091,-0.1772539 -0.812032,-0.051158 -0.133643,0.05586 -0.231509,0.1918779 -0.217938,0.3396727 0.0022,0.1352382 0.09515,0.2515652 0.215902,0.3051242 0.274625,0.1395916 0.59266,0.1508154 0.873702,0.2745692 0.200501,0.079906 0.380848,0.238226 0.432571,0.4549782 0.06583,0.2453198 0.0297,0.5320202 -0.149578,0.7222907 -0.202068,0.2253616 -0.511423,0.3297904 -0.808845,0.3270502 z" id="path1067" inkscape:connector-curvature="0" />
    <path style="font-style:normal;font-variant:normal;font-weight:600;font-stretch:normal;font-size:4px;line-height:1.25;font-family:Quicksand;-inkscape-font-specification:'Quicksand, Semi-Bold';font-variant-ligatures:normal;font-variant-caps:normal;font-variant-numeric:normal;font-feature-settings:normal;text-align:start;letter-spacing:0px;word-spacing:0px;writing-mode:lr-tb;text-anchor:start;display:inline;fill:#FDDEA2;fill-opacity:1;stroke-width:0.26458332" d="m 27.192135,6.6832465 c 0.324164,0.00135 0.648487,-0.00273 0.972552,0.0021 0.141687,0.01726 0.212579,0.2227202 0.09818,0.3162114 -0.09263,0.080349 -0.223298,0.039928 -0.334481,0.049609 -0.260331,-0.00173 -0.521014,0.00403 -0.781123,-0.00311 -0.150421,-0.024564 -0.198635,-0.2544139 -0.0649,-0.3335499 0.03239,-0.021046 0.0712,-0.031819 0.109774,-0.031259 z m 0.42,-0.52 c 0.144047,-0.00827 0.226167,0.1497835 0.200016,0.2767125 0.0016,0.6151464 -0.0033,1.2307358 0.0025,1.8456035 0.03317,0.1568622 0.210888,0.1399609 0.323263,0.096776 0.138621,0.00187 0.185839,0.1980188 0.08657,0.2810601 -0.145811,0.1299034 -0.362539,0.1145281 -0.537728,0.062585 -0.190123,-0.053667 -0.282863,-0.2653037 -0.272404,-0.4499243 -0.0051,-0.5850322 -8.1e-4,-1.1701362 -0.0021,-1.755198 0.0051,-0.1083312 -0.0268,-0.2449549 0.07847,-0.3173757 0.03452,-0.026275 0.07781,-0.041585 0.121374,-0.040239 z" id="path1083" inkscape:connector-curvature="0" />
    <path style="font-style:normal;font-variant:normal;font-weight:600;font-stretch:normal;font-size:4px;line-height:1.25;font-family:Quicksand;-inkscape-font-specification:'Quicksand, Semi-Bold';font-variant-ligatures:normal;font-variant-caps:normal;font-variant-numeric:normal;font-feature-settings:normal;text-align:start;letter-spacing:0px;word-spacing:0px;writing-mode:lr-tb;text-anchor:start;display:inline;fill:#FDDEA2;fill-opacity:1;stroke-width:0.26458332" d="M 29.703573,8.8032465 C 29.351064,8.812485 28.98391,8.6571273 28.78895,8.3545767 28.583756,8.0394862 28.572482,7.6283651 28.687373,7.2784914 c 0.144821,-0.409499 0.574938,-0.7109717 1.013711,-0.6631626 0.399727,0.039445 0.749834,0.3460672 0.855977,0.7313658 0.03131,0.1115066 0.05376,0.2315979 0.03118,0.3464348 -0.04021,0.1113608 -0.170486,0.137539 -0.275249,0.1261171 -0.489806,0 -0.979611,0 -1.469417,0 -0.032,-0.1133333 -0.064,-0.2266667 -0.096,-0.34 0.501333,0 1.002667,0 1.504,0 -0.04669,0.054561 -0.09204,0.087794 -0.07546,-0.00788 -0.0041,-0.2305594 -0.198939,-0.4182637 -0.414808,-0.4685427 -0.246851,-0.064003 -0.547055,0.028994 -0.66596,0.2668384 -0.112076,0.2149262 -0.123886,0.4773105 -0.0538,0.7073272 0.07468,0.2427622 0.299632,0.4272272 0.552253,0.4524111 0.191404,0.022926 0.399117,-0.00976 0.549451,-0.1387748 0.08974,-0.1009792 0.279624,-0.1132761 0.334405,0.029462 0.04673,0.1370668 -0.0874,0.2405325 -0.189064,0.3046868 -0.172942,0.1116578 -0.378028,0.1803176 -0.585025,0.1784685 z" id="path1088" inkscape:connector-curvature="0" />
    <path style="font-style:normal;font-variant:normal;font-weight:600;font-stretch:normal;font-size:4px;line-height:1.25;font-family:Quicksand;-inkscape-font-specification:'Quicksand, Semi-Bold';font-variant-ligatures:normal;font-variant-caps:normal;font-variant-numeric:normal;font-feature-settings:normal;text-align:start;letter-spacing:0px;word-spacing:0px;writing-mode:lr-tb;text-anchor:start;display:inline;fill:#FDDEA2;fill-opacity:1;stroke-width:0.26458332" d="m 32.088635,6.6232465 c 0.219037,-0.00901 0.454185,0.082277 0.56657,0.279559 0.04143,0.071576 0.107524,0.2013895 0.08786,0.2566953 -0.104854,-0.023154 0.02672,-0.1383845 0.04958,-0.1926436 0.190487,-0.2588432 0.533851,-0.3997614 0.850198,-0.3258019 0.196471,0.033487 0.36072,0.179905 0.427669,0.3660414 0.111771,0.2974697 0.0691,0.6203624 0.07819,0.9309175 -0.0012,0.2224928 0.0028,0.4452765 -0.0031,0.667587 -0.02279,0.1583127 -0.25184,0.2147474 -0.350003,0.091471 -0.07708,-0.1027709 -0.03757,-0.2372857 -0.04717,-0.3556886 -0.002,-0.3114121 0.0056,-0.6231897 -0.0046,-0.9343677 -0.0123,-0.1636064 -0.09411,-0.3473077 -0.265992,-0.3929853 -0.271798,-0.089618 -0.612511,0.072966 -0.676795,0.3606626 -0.03266,0.159611 -0.0088,0.3236037 -0.01648,0.4851776 -0.0014,0.2486015 0.0038,0.4974995 -0.0029,0.7459136 -0.02297,0.15925 -0.255568,0.2156342 -0.351997,0.08916 -0.07442,-0.1051089 -0.03561,-0.239647 -0.04514,-0.3591623 -0.0021,-0.3115949 0.0059,-0.6235906 -0.0049,-0.9349283 -0.01359,-0.1605976 -0.09076,-0.3459612 -0.262075,-0.3889651 -0.251163,-0.076297 -0.565742,0.045638 -0.653755,0.3040074 -0.05548,0.1721864 -0.02141,0.3554437 -0.03119,0.5327917 -0.0019,0.2526015 0.0047,0.5056801 -0.0037,0.7579801 -0.02668,0.1558902 -0.255268,0.2151749 -0.352142,0.087948 -0.07289,-0.10789 -0.03492,-0.2440938 -0.04392,-0.3658748 7.17e-4,-0.5001976 -0.0022,-1.00047 0.0016,-1.5006202 0.0143,-0.1535819 0.230359,-0.2275769 0.336056,-0.1141671 0.09166,0.091478 0.05516,0.227838 0.06221,0.3439582 0.02676,0.06905 -0.12762,0.1072098 -0.04916,0.017266 0.125748,-0.2656119 0.410278,-0.451536 0.705144,-0.4519311 z" id="path1090" inkscape:connector-curvature="0" />
    <path style="font-style:normal;font-variant:normal;font-weight:600;font-stretch:normal;font-size:4px;line-height:1.25;font-family:Quicksand;-inkscape-font-specification:'Quicksand, Semi-Bold';font-variant-ligatures:normal;font-variant-caps:normal;font-variant-numeric:normal;font-feature-settings:normal;text-align:start;letter-spacing:0px;word-spacing:0px;writing-mode:lr-tb;text-anchor:start;display:inline;fill:#FDDEA2;fill-opacity:1;stroke-width:0.26458332" d="m 34.588323,8.4352465 c -0.08915,-0.1153446 0.01289,-0.3004222 0.158343,-0.2865856 0.139861,0.019861 0.203066,0.1681449 0.322911,0.2279899 0.196649,0.1186011 0.460511,0.1432381 0.664373,0.029579 C 35.866476,8.3115718 35.861525,8.0790804 35.71123,8.0034079 35.550632,7.9060029 35.3595,7.8815776 35.18467,7.8193895 34.975611,7.7583975 34.751104,7.6439232 34.67569,7.4243945 34.59935,7.2122459 34.65686,6.953919 34.834045,6.8090067 c 0.249133,-0.2192223 0.620514,-0.2442878 0.922891,-0.1319453 0.149582,0.054473 0.302791,0.1442257 0.375573,0.2913731 0.04926,0.1265178 -0.08908,0.265124 -0.215352,0.2164715 C 35.807725,7.13112 35.739448,7.014399 35.61503,6.9838517 c -0.167504,-0.061641 -0.375744,-0.061797 -0.521933,0.050378 -0.113922,0.1108251 -0.07424,0.3318609 0.07808,0.3874805 0.268717,0.1408819 0.602519,0.1349973 0.839023,0.3409906 0.225408,0.1913485 0.24694,0.5683425 0.04588,0.7847637 C 35.836076,8.7873576 35.478218,8.8426491 35.171094,8.7789018 34.9664,8.7422638 34.767195,8.649953 34.631683,8.4882803 c -0.01509,-0.01714 -0.02956,-0.034837 -0.04336,-0.053034 z" id="path1092" inkscape:connector-curvature="0" />
    <g aria-label="On" style="font-style:normal;font-variant:normal;font-weight:600;font-stretch:normal;font-size:4px;line-height:1.25;font-family:Quicksand;-inkscape-font-specification:'Quicksand, Semi-Bold';font-variant-ligatures:normal;font-variant-caps:normal;font-variant-numeric:normal;font-feature-settings:normal;text-align:start;letter-spacing:0px;word-spacing:0px;writing-mode:lr-tb;text-anchor:start;fill:#FDDEA2;fill-opacity:1;stroke-width:0.26458332" id="text914" transform="translate(-0.04401318)">
      <path style="fill:#FDDEA2;fill-opacity:1;stroke-width:0.26458332" d="m 5.3783112,26.750309 c 0.036874,0.743121 -0.5895758,1.474529 -1.356,1.44 -0.7354022,0.0306 -1.354465,-0.645655 -1.3465,-1.364625 -0.066533,-0.715302 0.4641701,-1.455225 1.20325,-1.508375 0.7265025,-0.102999 1.4205828,0.491533 1.4851875,1.211187 0.00959,0.07352 0.014065,0.147681 0.014062,0.221813 z m -0.432,0 c 0.032033,-0.540809 -0.417631,-1.10531 -0.9900625,-1.037875 -0.607567,0.02387 -0.9500559,0.704405 -0.833625,1.251437 0.051266,0.543798 0.6230069,0.967865 1.1556875,0.792438 0.4320301,-0.118604 0.6775379,-0.579324 0.668,-1.006 z" id="path953" inkscape:connector-curvature="0" />
      <path style="fill:#FDDEA2;fill-opacity:1;stroke-width:0.26458332" d="m 6.9131862,25.998309 c 0.3532555,-0.03829 0.6672845,0.241171 0.695,0.58975 0.048993,0.450272 0.014801,0.905658 0.025,1.35825 -0.1328851,0.449192 -0.5091287,0.03615 -0.4,-0.260773 -0.015077,-0.354063 0.036523,-0.715842 -0.04,-1.063227 -0.1909852,-0.485647 -1.0272916,-0.22443 -0.964,0.279707 -0.00944,0.37469 0.019253,0.752881 -0.015,1.125293 -0.26008,0.342139 -0.4542107,-0.111886 -0.385,-0.36548 0.00887,-0.496808 -0.01804,-0.996724 0.014,-1.49152 0.2084273,-0.360808 0.5248037,0.139972 0.3445533,0.327026 -0.013891,-0.199612 0.4393153,-0.528789 0.7254467,-0.499026 z" id="path955" inkscape:connector-curvature="0" />
    </g>
    <g aria-label="Amp" style="font-style:normal;font-variant:normal;font-weight:600;font-stretch:normal;font-size:4px;line-height:1.25;font-family:Quicksand;-inkscape-font-specification:'Quicksand, Semi-Bold';font-variant-ligatures:normal;font-variant-caps:normal;font-variant-numeric:normal;font-feature-settings:normal;text-align:start;letter-spacing:0px;word-spacing:0px;writing-mode:lr-tb;text-anchor:start;fill:#FDDEA2;fill-opacity:1;stroke-width:0.26458332" id="text918" transform="translate(-2.9443107)">
      <path style="fill:#FDDEA2;fill-opacity:1;stroke-width:0.26458332" d="m 41.833668,25.823539 c -0.306587,0.733284 -0.609599,1.468114 -0.918449,2.200419 -0.06168,0.123767 -0.277279,0.132894 -0.326731,-0.0061 -0.04317,-0.10352 0.02848,-0.200418 0.06199,-0.294842 0.321321,-0.775852 0.641164,-1.552319 0.963652,-2.327684 0.06193,-0.134834 0.280859,-0.146905 0.35239,-0.01432 0.05856,0.111923 0.09887,0.232648 0.14993,0.348248 0.294755,0.711531 0.591257,1.422366 0.884677,2.134434 0.0435,0.121329 -0.05997,0.269033 -0.19177,0.256376 -0.09591,-0.0056 -0.162849,-0.08859 -0.187868,-0.174774 l -0.89182,-2.109721 0.104,-0.012 z m -0.74,1.592 0.230643,-0.384 h 0.917654 c 0.05781,0.146603 0.09186,0.219827 0.158976,0.384 z" id="path908" inkscape:connector-curvature="0" sodipodi:nodetypes="cccccccccccccccccc" />
      <path style="fill:#FDDEA2;fill-opacity:1;stroke-width:0.26458332" d="m 44.41598,25.963539 c 0.207739,-0.007 0.431193,0.07086 0.548,0.251671 0.06044,0.08591 0.09876,0.185867 0.12,0.288329 -0.110243,-0.0018 -0.0212,-0.102473 0.0053,-0.153151 0.168081,-0.256127 0.480088,-0.419795 0.78824,-0.383371 0.172698,0.01434 0.347017,0.09077 0.444845,0.239269 0.132332,0.190363 0.149927,0.430984 0.154016,0.655813 -0.003,0.359541 0.0036,0.719323 -0.003,1.078731 -0.01469,0.113258 -0.138771,0.187927 -0.246979,0.158319 -0.09604,-0.02055 -0.16233,-0.120476 -0.150453,-0.216914 -0.002,-0.37299 0.0043,-0.746191 -0.0034,-1.119048 -0.01101,-0.156132 -0.07444,-0.333594 -0.231575,-0.395652 -0.226384,-0.09095 -0.516916,-0.0094 -0.648202,0.200672 -0.06926,0.101585 -0.08966,0.227179 -0.0808,0.347857 -0.0014,0.341574 0.0034,0.683376 -0.0025,1.024807 -0.01441,0.109911 -0.132133,0.184339 -0.238427,0.160385 -0.102543,-0.01582 -0.172306,-0.123206 -0.159001,-0.223624 -0.0021,-0.37297 0.0045,-0.746171 -0.0036,-1.118993 -0.01213,-0.154109 -0.07134,-0.334174 -0.228921,-0.393767 -0.239516,-0.09073 -0.550548,0.0013 -0.665581,0.240083 -0.07846,0.141827 -0.04804,0.307202 -0.054,0.461673 -0.0014,0.291752 0.0039,0.583873 -0.0031,0.875393 -0.01937,0.122464 -0.163541,0.196574 -0.276165,0.148588 -0.09239,-0.0359 -0.133846,-0.142788 -0.12056,-0.236052 10e-4,-0.561218 -0.0022,-1.122512 0.0016,-1.683681 0.01209,-0.135999 0.185213,-0.219839 0.299216,-0.143815 0.07875,0.0457 0.110029,0.14077 0.09912,0.227308 0,0.06173 0,0.123471 0,0.185206 -0.0311,0.0145 -0.101603,0.07411 -0.06105,0.0043 0.116649,-0.281694 0.412495,-0.479055 0.717044,-0.480325 z" id="path910" inkscape:connector-curvature="0" />
      <path style="fill:#FDDEA2;fill-opacity:1;stroke-width:0.26458332" d="m 48.099668,25.963539 c 0.332256,-0.0096 0.651219,0.186161 0.815591,0.471267 0.170077,0.290635 0.195025,0.651876 0.109873,0.973513 -0.09301,0.338051 -0.362456,0.638604 -0.713505,0.711098 -0.347333,0.0777 -0.743376,-0.06592 -0.93439,-0.371788 -0.03398,-0.05539 -0.07399,-0.133606 0.02193,-0.144591 0.07693,-0.05409 0.02562,0.09558 0.04036,0.140462 -7.44e-4,0.329631 0.0024,0.659407 -0.0019,0.988947 -0.01597,0.137771 -0.193549,0.221867 -0.308372,0.140184 -0.08908,-0.055 -0.09645,-0.165374 -0.08958,-0.25908 3.35e-4,-0.813089 -7.27e-4,-1.626191 5.43e-4,-2.439272 0.0057,-0.130526 0.158927,-0.224918 0.277464,-0.167162 0.09124,0.03922 0.135542,0.144357 0.121984,0.239216 0,0.07507 0,0.150137 0,0.225206 -0.112332,-0.02472 -0.02916,-0.133226 0.0095,-0.190008 0.153057,-0.19723 0.400601,-0.319154 0.650504,-0.317992 z m -0.044,0.368 c -0.246684,-0.0091 -0.482276,0.1553 -0.571761,0.383249 -0.100314,0.240489 -0.08425,0.528444 0.0427,0.755989 0.09217,0.161732 0.25995,0.282454 0.448114,0.296752 0.20173,0.02574 0.421506,-0.04667 0.544395,-0.214373 0.235106,-0.295685 0.227774,-0.766548 -0.0356,-1.042462 -0.110417,-0.115574 -0.267372,-0.183803 -0.427848,-0.179155 z" id="path912" inkscape:connector-curvature="0" />
    </g>
    <g aria-label="Meters" style="font-style:normal;font-variant:normal;font-weight:600;font-stretch:normal;font-size:4px;line-height:1.25;font-family:Quicksand;-inkscape-font-specification:'Quicksand, Semi-Bold';font-variant-ligatures:normal;font-variant-caps:normal;font-variant-numeric:normal;font-feature-settings:normal;text-align:start;letter-spacing:0px;word-spacing:0px;writing-mode:lr-tb;text-anchor:start;fill:#FDDEA2;fill-opacity:1;stroke-width:0.26458332" id="text898" />
    <path style="font-style:normal;font-variant:normal;font-weight:600;font-stretch:normal;font-size:4px;line-height:1.25;font-family:Quicksand;-inkscape-font-specification:'Quicksand, Semi-Bold';font-variant-ligatures:normal;font-variant-caps:normal;font-variant-numeric:normal;font-feature-settings:normal;text-align:start;letter-spacing:0px;word-spacing:0px;writing-mode:lr-tb;text-anchor:start;display:inline;fill:#FDDEA2;fill-opacity:1;stroke-width:0.FDBB3C94" d="m 61.595703,95.730469 c -0.38572,-0.0085 -0.755234,0.303051 -0.783203,0.693359 -0.0081,2.955587 -0.0015,5.911462 -0.0039,8.867192 -0.02357,0.37283 0.0294,0.8378 0.435547,0.98437 0.451324,0.20187 1.019028,-0.13378 1.027343,-0.63672 0.0067,-2.33315 0.0038,-4.66672 0.0039,-6.999998 0.938673,1.461138 1.877733,2.921668 2.816406,4.382808 0.257616,0.46087 0.978986,0.48639 1.265625,0.041 0.947093,-1.44217 1.894702,-2.884 2.841797,-4.326172 v 6.601562 c -0.0329,0.36916 0.07139,0.81674 0.472656,0.9375 0.464598,0.19475 1.088207,-0.0972 1.097656,-0.63672 0.0078,-2.81953 -2.46e-4,-5.639338 0.002,-8.458982 -0.02729,-0.370772 0.08494,-0.781577 -0.134765,-1.109376 -0.269779,-0.417705 -0.942921,-0.464227 -1.22461,-0.03516 -1.211939,1.79375 -2.418144,3.592731 -3.626953,5.388678 -1.129946,-1.721615 -2.260682,-3.442459 -3.390625,-5.164068 -0.154167,-0.301501 -0.445404,-0.536856 -0.798828,-0.529297 z m 21.611328,0.771484 c -0.381335,-0.01105 -0.734189,0.305918 -0.751953,0.689453 -0.0016,0.425164 5.8e-4,0.850206 0,1.275391 -0.278634,1.55e-4 -0.557317,5.04e-4 -0.835937,0 -0.210244,-0.0028 -0.425543,0.08195 -0.560547,0.246094 -0.347962,0.403215 -0.06553,1.133821 0.486328,1.140625 0.302683,0.0022 0.605482,0.0016 0.908203,0.002 2.32e-4,1.142114 -7.16e-4,2.283704 -0.002,3.425784 0.02521,0.6983 -0.08553,1.42418 0.162109,2.09375 0.230616,0.60769 0.886266,0.92081 1.507813,0.93555 0.549399,0.0683 1.229318,-0.0378 1.541015,-0.54688 0.223907,-0.42349 -0.176811,-1.05306 -0.675781,-0.83789 -0.404387,0.23368 -1.031184,0.005 -1.017578,-0.50976 -0.0086,-1.51927 -0.0052,-3.03906 -0.0039,-4.558601 0.200517,-7.7e-5 0.401055,-4.03e-4 0.601562,0 0.392285,-0.02442 0.868149,0.102088 1.154297,-0.248047 0.375262,-0.394314 0.05582,-1.110325 -0.474609,-1.138672 -0.427653,-0.0028 -0.855494,-0.0018 -1.283203,-0.002 -1.1e-5,-0.358716 5.75e-4,-0.717471 0,-1.076172 0.06656,-0.445977 -0.285467,-0.916326 -0.75586,-0.890625 z m 16.734375,1.699219 c -0.97223,0.05436 -1.884421,0.70346 -2.294922,1.58789 v -0.03711 c -0.02045,-0.412418 0.101114,-0.913689 -0.28125,-1.203125 -0.426568,-0.399753 -1.215224,-0.0696 -1.226562,0.517578 -0.0078,2.131345 -0.0017,4.263075 -0.0039,6.394535 -0.06135,0.44198 0.290081,0.90158 0.755859,0.86718 0.38507,0.0168 0.728142,-0.30888 0.751953,-0.68945 0.0081,-0.89734 0.0016,-1.79589 0.0039,-2.69336 0.01924,-0.81045 -0.107461,-1.68391 0.34375,-2.4082 0.358855,-0.650647 1.12331,-1.198607 1.888672,-0.953127 0.367474,0.204197 0.939294,0.2096 1.146484,-0.220703 0.26018,-0.477864 -0.0742,-1.069431 -0.60351,-1.138672 -0.16031,-0.02441 -0.32122,-0.03234 -0.480474,-0.02344 z m 4.919924,0 c -0.70282,0.0302 -1.38834,0.25851 -1.9336,0.728516 -0.63963,0.4998 -0.85674,1.379352 -0.66992,2.148432 0.18725,0.84781 0.98825,1.37118 1.76953,1.61133 0.75289,0.27858 1.58271,0.37737 2.27149,0.8086 0.57541,0.35759 0.46834,1.35315 -0.17188,1.58007 -0.90527,0.36442 -2.00714,0.15071 -2.72265,-0.51171 -0.2833,-0.27617 -0.6117,-0.68929 -1.0625,-0.52344 -0.44527,0.12008 -0.62078,0.6788 -0.35742,1.04492 0.0485,0.0635 0.0999,0.1253 0.15234,0.18555 0.56853,0.69162 1.43958,1.04286 2.30859,1.15625 1.18019,0.18987 2.54059,-0.13232 3.26563,-1.14453 0.61271,-0.9028 0.38439,-2.29829 -0.55664,-2.89063 -0.90461,-0.65654 -2.09589,-0.638 -3.05078,-1.18359 -0.55227,-0.25977 -0.6207,-1.12856 -0.13282,-1.480471 0.59867,-0.384076 1.39996,-0.348977 2.03516,-0.07031 0.36048,0.121331 0.59272,0.433611 0.87891,0.654291 0.41491,0.24158 1.05844,-0.11277 0.96093,-0.615228 -0.0735,-0.496929 -0.55102,-0.797563 -0.94726,-1.03711 -0.61412,-0.324597 -1.3343,-0.491143 -2.03711,-0.460937 z m -28.732424,0.002 c -1.561466,0.09404 -2.943589,1.286642 -3.351562,2.783208 -0.359539,1.35961 -0.246607,2.94999 0.671875,4.07226 0.768914,0.97613 2.033961,1.44411 3.253906,1.41993 0.908712,0.003 1.815721,-0.33598 2.523437,-0.9004 0.346961,-0.22805 0.612857,-0.73053 0.300782,-1.09374 -0.283805,-0.38569 -0.855612,-0.25736 -1.146485,0.0488 -0.57343,0.49327 -1.362676,0.6182 -2.09375,0.53516 -1.165799,-0.10297 -2.109068,-1.13464 -2.21875,-2.28125 -9.59e-4,-0.009 9.14e-4,-0.0184 0,-0.0273 h 5.054688 c 0.391086,0.0455 0.847423,-0.13346 0.945312,-0.55079 0.05427,-0.47276 -0.05163,-0.95606 -0.193359,-1.40625 -0.503679,-1.556495 -2.093688,-2.723652 -3.746094,-2.599608 z m 14.410156,0 c -1.561466,0.09404 -2.945542,1.286642 -3.353515,2.783208 -0.359539,1.35961 -0.244654,2.94999 0.673828,4.07226 0.768915,0.97613 2.032009,1.44411 3.251953,1.41993 0.908712,0.003 1.815721,-0.33598 2.523438,-0.9004 0.34696,-0.22805 0.612856,-0.73053 0.300781,-1.09374 -0.283805,-0.38569 -0.855612,-0.25736 -1.146485,0.0488 -0.573429,0.49327 -1.360722,0.6182 -2.091796,0.53516 -1.165799,-0.10297 -2.109068,-1.13464 -2.21875,-2.28125 -9.59e-4,-0.009 9.13e-4,-0.0184 0,-0.0273 h 5.054687 c 0.391087,0.0455 0.84547,-0.13346 0.943359,-0.55079 0.05428,-0.47276 -0.05163,-0.95606 -0.193359,-1.40625 -0.503679,-1.556495 -2.091735,-2.723652 -3.744141,-2.599608 z m -14.095703,1.402344 c 0.540662,0.0246 1.071088,0.224861 1.466797,0.605474 0.363899,0.3203 0.552742,0.7865 0.570313,1.26367 h -4.347657 c 0.113102,-0.54514 0.345434,-1.05468 0.785157,-1.41602 0.434439,-0.325653 0.984728,-0.477729 1.52539,-0.453124 z m 14.408203,0 c 0.540662,0.0246 1.073042,0.224861 1.46875,0.605474 0.363899,0.3203 0.552742,0.7865 0.570313,1.26367 h -4.347656 c 0.113101,-0.54514 0.34348,-1.05468 0.783203,-1.41602 0.43444,-0.325653 0.984729,-0.477729 1.52539,-0.453124 z" transform="scale(0.26458333)" id="path900" inkscape:connector-curvature="0" />
    <g transform="translate(0,-168.49998)" aria-label="Out" style="font-style:normal;font-variant:normal;font-weight:600;font-stretch:normal;font-size:4px;line-height:1.25;font-family:Quicksand;-inkscape-font-specification:'Quicksand, Semi-Bold';font-variant-ligatures:normal;font-variant-caps:normal;font-variant-numeric:normal;font-feature-settings:normal;text-align:start;letter-spacing:0px;word-spacing:0px;writing-mode:lr-tb;text-anchor:start;display:inline;fill:#FDDEA2;fill-opacity:1;stroke-width:0.26458332" id="text929">
      <path style="fill:#FDDEA2;fill-opacity:1;stroke-width:0.26458332" d="m 52.737973,195.22691 c 0.003,0.36149 -0.117111,0.72891 -0.361328,0.99925 -0.204491,0.23472 -0.49543,0.39374 -0.80559,0.42912 -0.311764,0.0395 -0.641387,-0.0175 -0.906082,-0.19218 -0.329729,-0.20775 -0.550234,-0.56805 -0.608477,-0.95107 -0.0594,-0.37522 -0.0058,-0.77764 0.197872,-1.10329 0.216397,-0.36018 0.619039,-0.59622 1.037429,-0.6191 0.263489,-0.0178 0.53226,0.0398 0.761128,0.17285 0.33256,0.18906 0.56367,0.53106 0.645985,0.90161 0.02691,0.11891 0.03909,0.24096 0.03906,0.36281 z m -0.432,0 c 0.003,-0.29719 -0.104162,-0.60295 -0.322984,-0.80923 -0.157653,-0.15087 -0.375048,-0.23238 -0.592532,-0.23074 -0.219267,-0.005 -0.439597,0.0748 -0.599876,0.22553 -0.216648,0.19884 -0.322465,0.49643 -0.324353,0.78646 -0.0085,0.29795 0.08606,0.60903 0.302127,0.82131 0.156389,0.15701 0.375554,0.24649 0.596927,0.24654 0.215317,0.006 0.4336,-0.0656 0.594941,-0.21012 0.234034,-0.20488 0.348898,-0.52328 0.34575,-0.82975 z" id="path931" inkscape:connector-curvature="0" />
      <path style="fill:#FDDEA2;fill-opacity:1;stroke-width:0.26458332" d="m 54.756848,194.52291 c 0.114911,-0.004 0.212725,0.1089 0.2,0.22195 -5.75e-4,0.36178 0.0012,0.72358 -9.06e-4,1.08535 -0.0054,0.2346 -0.0859,0.47933 -0.268516,0.63553 -0.195773,0.17061 -0.469559,0.21108 -0.72064,0.19354 -0.230937,-0.0137 -0.469576,-0.10666 -0.609554,-0.2983 -0.137852,-0.18157 -0.17459,-0.41689 -0.168384,-0.6395 5.79e-4,-0.33868 -0.0012,-0.67742 8.75e-4,-1.01607 0.0047,-0.11265 0.119128,-0.20181 0.229641,-0.18039 0.102281,0.0145 0.180452,0.11733 0.169484,0.21984 4.77e-4,0.35795 -9.61e-4,0.71593 7.32e-4,1.07387 0.0043,0.14803 0.04764,0.31273 0.178877,0.39805 0.13586,0.088 0.309949,0.0922 0.464078,0.0601 0.13787,-0.0287 0.255297,-0.13471 0.293313,-0.271 0.04523,-0.14332 0.02727,-0.29463 0.031,-0.44235 5.77e-4,-0.28604 -0.0012,-0.57214 8.75e-4,-0.85815 0.0052,-0.10116 0.09734,-0.18698 0.199125,-0.1825 z" id="path933" inkscape:connector-curvature="0" />
      <path style="fill:#FDDEA2;fill-opacity:1;stroke-width:0.26458332" d="m 55.48116,194.54691 c 0.319846,5.8e-4 0.639757,-0.001 0.959562,8.7e-4 0.112414,0.008 0.197649,0.13317 0.160563,0.24075 -0.02645,0.0837 -0.115712,0.13586 -0.20166,0.12638 -0.31269,-5.4e-4 -0.625435,0.001 -0.93809,-8.1e-4 -0.09409,-0.003 -0.172439,-0.0894 -0.168375,-0.18319 -0.0051,-0.10416 0.08548,-0.18788 0.188,-0.184 z m 0.42,-0.52 c 0.113884,-0.006 0.211064,0.10281 0.2,0.21477 2.5e-4,0.62093 -5e-4,1.24187 3.75e-4,1.86279 -5.9e-4,0.0738 0.04004,0.15804 0.120625,0.16819 0.06661,0.023 0.128044,-0.0144 0.19175,-0.0248 0.08676,-0.0147 0.154262,0.0731 0.151094,0.15363 0.0079,0.0951 -0.0769,0.16065 -0.156844,0.19162 -0.122716,0.0522 -0.261082,0.0347 -0.388109,0.0107 -0.108863,-0.0253 -0.208647,-0.093 -0.259364,-0.19453 -0.07714,-0.14875 -0.05624,-0.32053 -0.05953,-0.48232 1.46e-4,-0.569 -2.92e-4,-1.13801 2.19e-4,-1.707 -3.36e-4,-0.10581 0.09448,-0.19614 0.199781,-0.19313 z" id="path935" inkscape:connector-curvature="0" />
    </g>
  </g>
  <g inkscape:groupmode="layer" id="layer2" inkscape:label="components" style="display:none">
    <circle inkscape:label="OUT_1" cy="87.646423" cx="53.312656" id="circle121" style="display:inline;opacity:1;vector-effect:none;fill:#0000ff;fill-opacity:1;fill-rule:evenodd;stroke:none;stroke-width:1;stroke-linecap:butt;stroke-linejoin:miter;stroke-miterlimit:4;stroke-dasharray:none;stroke-dashoffset:0;stroke-opacity:1;paint-order:normal" r="3.5" />
    <circle cy="113.10204" cx="30.542463" id="circle4956-5" style="display:inline;opacity:1;vector-effect:none;fill:#00ff00;fill-opacity:1;fill-rule:evenodd;stroke:none;stroke-width:1;stroke-linecap:butt;stroke-linejoin:miter;stroke-miterlimit:4;stroke-dasharray:none;stroke-dashoffset:0;stroke-opacity:1;paint-order:normal" inkscape:label="play_trigger" r="4" />
    <circle inkscape:label="OUT_0" cy="35.26759" cx="53.259678" id="circle1151" style="display:inline;opacity:1;vector-effect:none;fill:#0000ff;fill-opacity:1;fill-rule:evenodd;stroke:none;stroke-width:1;stroke-linecap:butt;stroke-linejoin:miter;stroke-miterlimit:4;stroke-dasharray:none;stroke-dashoffset:0;stroke-opacity:1;paint-order:normal" r="3.5" />
    <circle inkscape:label="tracks0" style="display:inline;opacity:1;vector-effect:none;fill:#FDDEA2f00;fill-opacity:1;fill-rule:evenodd;stroke:none;stroke-width:1;stroke-linecap:butt;stroke-linejoin:miter;stroke-miterlimit:4;stroke-dasharray:none;stroke-dashoffset:0;stroke-opacity:1;paint-order:normal" id="circle1155" cx="8.877079" cy="30.89233" r="1" />
    <circle r="1" cy="91.914932" cx="35.572075" id="circle1157" style="display:inline;opacity:1;vector-effect:none;fill:#FDDEA2f00;fill-opacity:1;fill-rule:evenodd;stroke:none;stroke-width:1;stroke-linecap:butt;stroke-linejoin:miter;stroke-miterlimit:4;stroke-dasharray:none;stroke-dashoffset:0;stroke-opacity:1;paint-order:normal" inkscape:label="tracks1" />
    <circle inkscape:label="ENABLE_0" cy="35.21991" cx="5.1053176" id="circle860" style="display:inline;opacity:1;vector-effect:none;fill:#ff0000;fill-opacity:1;fill-rule:evenodd;stroke:none;stroke-width:1;stroke-linecap:butt;stroke-linejoin:miter;stroke-miterlimit:4;stroke-dasharray:none;stroke-dashoffset:0;stroke-opacity:1;paint-order:normal" r="2.5" />
    <circle style="display:inline;opacity:1;vector-effect:none;fill:#ff0000;fill-opacity:1;fill-rule:evenodd;stroke:none;stroke-width:1;stroke-linecap:butt;stroke-linejoin:miter;stroke-miterlimit:4;stroke-dasharray:none;stroke-dashoffset:0;stroke-opacity:1;paint-order:normal" id="circle863" cx="41.90115" cy="35.260036" inkscape:label="AMP_0" r="2.5" />
    <circle r="1" cy="15.277378" cx="13.967766" id="circle867" style="display:inline;opacity:1;vector-effect:none;fill:#FDDEA2f00;fill-opacity:1;fill-rule:evenodd;stroke:none;stroke-width:1;stroke-linecap:butt;stroke-linejoin:miter;stroke-miterlimit:4;stroke-dasharray:none;stroke-dashoffset:0;stroke-opacity:1;paint-order:normal" inkscape:label="time0" />
    <circle inkscape:label="time1" style="display:inline;opacity:1;vector-effect:none;fill:#FDDEA2f00;fill-opacity:1;fill-rule:evenodd;stroke:none;stroke-width:1;stroke-linecap:butt;stroke-linejoin:miter;stroke-miterlimit:4;stroke-dasharray:none;stroke-dashoffset:0;stroke-opacity:1;paint-order:normal" id="circle869" cx="46.969765" cy="22.063229" r="1" />
    <circle style="display:inline;opacity:1;vector-effect:none;fill:#ff0000;fill-opacity:1;fill-rule:evenodd;stroke:none;stroke-width:1;stroke-linecap:butt;stroke-linejoin:miter;stroke-miterlimit:4;stroke-dasharray:none;stroke-dashoffset:0;stroke-opacity:1;paint-order:normal" id="circle871" cx="30.507292" cy="104.19154" inkscape:label="play_button" r="4" />
    <circle r="4" inkscape:label="pause_trigger" style="display:inline;opacity:1;vector-effect:none;fill:#00ff00;fill-opacity:1;fill-rule:evenodd;stroke:none;stroke-width:1;stroke-linecap:butt;stroke-linejoin:miter;stroke-miterlimit:4;stroke-dasharray:none;stroke-dashoffset:0;stroke-opacity:1;paint-order:normal" id="circle885" cx="41.885605" cy="113.14881" />
    <circle inkscape:label="pause_button" cy="104.2383" cx="41.862129" id="circle887" style="display:inline;opacity:1;vector-effect:none;fill:#ff0000;fill-opacity:1;fill-rule:evenodd;stroke:none;stroke-width:1;stroke-linecap:butt;stroke-linejoin:miter;stroke-miterlimit:4;stroke-dasharray:none;stroke-dashoffset:0;stroke-opacity:1;paint-order:normal" r="4" />
    <circle cy="113.05527" cx="53.392021" id="circle884" style="display:inline;opacity:1;vector-effect:none;fill:#00ff00;fill-opacity:1;fill-rule:evenodd;stroke:none;stroke-width:1;stroke-linecap:butt;stroke-linejoin:miter;stroke-miterlimit:4;stroke-dasharray:none;stroke-dashoffset:0;stroke-opacity:1;paint-order:normal" inkscape:label="reset_trigger" r="4" />
    <circle style="display:inline;opacity:1;vector-effect:none;fill:#ff0000;fill-opacity:1;fill-rule:evenodd;stroke:none;stroke-width:1;stroke-linecap:butt;stroke-linejoin:miter;stroke-miterlimit:4;stroke-dasharray:none;stroke-dashoffset:0;stroke-opacity:1;paint-order:normal" id="circle886" cx="53.310081" cy="104.14476" inkscape:label="reset_button" r="4" />
    <circle r="4" inkscape:label="stop_trigger" style="display:inline;opacity:1;vector-effect:none;fill:#00ff00;fill-opacity:1;fill-rule:evenodd;stroke:none;stroke-width:1;stroke-linecap:butt;stroke-linejoin:miter;stroke-miterlimit:4;stroke-dasharray:none;stroke-dashoffset:0;stroke-opacity:1;paint-order:normal" id="circle975" cx="7.6096601" cy="113.05527" />
    <circle r="4" inkscape:label="stop_button" cy="104.14477" cx="7.5744886" id="circle977" style="display:inline;opacity:1;vector-effect:none;fill:#ff0000;fill-opacity:1;fill-rule:evenodd;stroke:none;stroke-width:1;stroke-linecap:butt;stroke-linejoin:miter;stroke-miterlimit:4;stroke-dasharray:none;stroke-dashoffset:0;stroke-opacity:1;paint-order:normal" />
    <circle r="2.5" inkscape:label="LOOP" cy="18.830965" cx="51.910667" id="circle904" style="display:inline;opacity:1;vector-effect:none;fill:#ff0000;fill-opacity:1;fill-rule:evenodd;stroke:none;stroke-width:1;stroke-linecap:butt;stroke-linejoin:miter;stroke-miterlimit:4;stroke-dasharray:none;stroke-dashoffset:0;stroke-opacity:1;paint-order:normal" />
    <circle cy="113.05527" cx="19.095434" id="circle895" style="display:inline;opacity:1;vector-effect:none;fill:#00ff00;fill-opacity:1;fill-rule:evenodd;stroke:none;stroke-width:1;stroke-linecap:butt;stroke-linejoin:miter;stroke-miterlimit:4;stroke-dasharray:none;stroke-dashoffset:0;stroke-opacity:1;paint-order:normal" inkscape:label="replay_trigger" r="4" />
    <circle style="display:inline;opacity:1;vector-effect:none;fill:#ff0000;fill-opacity:1;fill-rule:evenodd;stroke:none;stroke-width:1;stroke-linecap:butt;stroke-linejoin:miter;stroke-miterlimit:4;stroke-dasharray:none;stroke-dashoffset:0;stroke-opacity:1;paint-order:normal" id="circle897" cx="19.060263" cy="104.14477" inkscape:label="replay_button" r="4" />
  </g>
</svg>
