<?xml version="1.0" encoding="UTF-8" standalone="no"?>
<svg
   xmlns:dc="http://purl.org/dc/elements/1.1/"
   xmlns:cc="http://creativecommons.org/ns#"
   xmlns:rdf="http://www.w3.org/1999/02/22-rdf-syntax-ns#"
   xmlns:svg="http://www.w3.org/2000/svg"
   xmlns="http://www.w3.org/2000/svg"
   xmlns:sodipodi="http://sodipodi.sourceforge.net/DTD/sodipodi-0.dtd"
   xmlns:inkscape="http://www.inkscape.org/namespaces/inkscape"
   inkscape:version="1.0 (4035a4f, 2020-05-01)"
   height="128.5mm"
   width="20.32mm"
   sodipodi:docname="athru faceplate (Inkscape Render) V3.svg"
   xml:space="preserve"
   viewBox="0 0 76.8 485.66932"
   y="0px"
   x="0px"
   id="Layer_2"
   version="1.1"><metadata
   id="metadata6330"><rdf:RDF><cc:Work
       rdf:about=""><dc:format>image/svg+xml</dc:format><dc:type
         rdf:resource="http://purl.org/dc/dcmitype/StillImage" /><dc:title></dc:title></cc:Work></rdf:RDF></metadata><defs
   id="defs6328" /><sodipodi:namedview
   inkscape:current-layer="Layer_2"
   inkscape:window-maximized="0"
   inkscape:window-y="23"
   inkscape:window-x="0"
   inkscape:cy="162.17052"
   inkscape:cx="11.395388"
   inkscape:zoom="1.4555055"
   units="mm"
   inkscape:document-units="mm"
   showgrid="false"
   id="namedview6326"
   inkscape:window-height="855"
   inkscape:window-width="1437"
   inkscape:pageshadow="2"
   inkscape:pageopacity="0"
   guidetolerance="10"
   gridtolerance="10"
   objecttolerance="10"
   borderopacity="1"
   bordercolor="#666666"
   pagecolor="#ffffff" />
<style
   id="style6059"
   type="text/css">
	.st0{fill:#202020;}
	.st1{fill:#E1C590;}
	.st2{fill:#FABB67;}
	.st3{fill:#F49523;}
	.st4{fill:#F9EDA8;}
</style>
<rect
   style="stroke-width:1.33324;fill:#202020;fill-opacity:1"
   id="rect6061"
   height="485.66931"
   width="76.800003"
   class="st0"
   y="0"
   x="0" />
<g
   style="fill:#dabe8d;fill-opacity:1"
   transform="scale(1.3333334,1.3331576)"
   id="g6323">
	<g
   style="fill:#dabe8d;fill-opacity:1"
   id="g6083">
		<g
   style="fill:#dabe8d;fill-opacity:1"
   id="g6065">
			<path
   style="fill:#dabe8d;fill-opacity:1"
   id="path6063"
   d="m 11.2,25.3 v -8.2 l 6.1,6.4 v -6.1 h 0.9 v 8.2 l -6.1,-6.4 v 6.1 z"
   class="st1" />
		</g>
		<g
   style="fill:#dabe8d;fill-opacity:1"
   id="g6069">
			<path
   style="fill:#dabe8d;fill-opacity:1"
   id="path6067"
   d="M 23.8,18.9 C 23.7,18.7 23.5,18.5 23.3,18.3 23.1,18.2 22.9,18 22.4,18 c -0.8,0 -1.3,0.5 -1.3,1.2 0,0.3 0.1,0.5 0.3,0.7 0.2,0.2 0.5,0.4 0.8,0.5 l 0.8,0.3 c 0.5,0.2 0.9,0.4 1.2,0.7 0.4,0.4 0.6,0.9 0.6,1.4 0,1.4 -1.1,2.4 -2.5,2.4 -0.5,0 -1.2,-0.1 -1.7,-0.6 C 20.2,24.2 20,23.7 19.9,23.2 L 20.7,23 c 0.1,0.4 0.2,0.8 0.5,1 0.3,0.3 0.7,0.4 1.1,0.4 1.1,0 1.6,-0.8 1.6,-1.6 0,-0.4 -0.1,-0.7 -0.4,-0.9 -0.2,-0.2 -0.5,-0.4 -0.9,-0.5 l -0.7,-0.3 c -0.3,-0.1 -0.7,-0.3 -1,-0.6 -0.3,-0.3 -0.5,-0.7 -0.5,-1.3 0,-1.2 0.9,-2 2.2,-2 0.5,0 0.9,0.1 1.3,0.4 0.3,0.2 0.6,0.5 0.8,0.9 z"
   class="st1" />
		</g>
		<g
   style="fill:#dabe8d;fill-opacity:1"
   id="g6073">
			<path
   style="fill:#dabe8d;fill-opacity:1"
   id="path6071"
   d="m 27.8,18.2 v 7 h -0.9 v -7 H 25 v -0.8 h 4.7 v 0.8 z"
   class="st1" />
		</g>
		<g
   style="fill:#dabe8d;fill-opacity:1"
   id="g6077">
			<path
   style="fill:#dabe8d;fill-opacity:1"
   id="path6075"
   d="m 32.1,17.4 c 0.5,0 1.3,0 1.9,0.4 0.5,0.3 0.9,0.9 0.9,1.7 0,1.2 -0.8,2.1 -2,2.2 l 2.5,3.5 H 34.3 L 32,21.8 h -0.2 v 3.4 h -0.9 v -7.9 h 1.2 z m -0.3,3.7 h 0.6 c 1.1,0 1.7,-0.5 1.7,-1.4 0,-0.4 -0.1,-0.9 -0.6,-1.2 -0.4,-0.2 -0.8,-0.2 -1.1,-0.2 h -0.5 v 2.8 z"
   class="st1" />
		</g>
		<g
   style="fill:#dabe8d;fill-opacity:1"
   id="g6081">
			<path
   style="fill:#dabe8d;fill-opacity:1"
   id="path6079"
   d="m 37.7,22.2 c 0,0.7 0,1.4 0.6,1.9 0.3,0.3 0.9,0.4 1.3,0.4 0.4,0 1,-0.2 1.3,-0.4 0.6,-0.5 0.6,-1.2 0.6,-1.9 v -4.8 h 0.9 v 5.1 c 0,0.7 -0.1,1.3 -0.5,1.9 -0.5,0.6 -1.3,1.1 -2.3,1.1 -1,0 -1.8,-0.4 -2.3,-1.1 -0.4,-0.6 -0.5,-1.2 -0.5,-1.9 v -5.1 h 0.9 z"
   class="st1" />
		</g>
	</g>
	<g
   style="fill:#dabe8d;fill-opacity:1"
   id="g6087">
		<path
   style="fill:#dabe8d;fill-opacity:1"
   id="path6085"
   d="m 46.4,19.3 c -1.8,0 -3.1,1.3 -3.1,3.2 0,1.8 1.3,3.2 3.1,3.2 1.8,0 3.1,-1.3 3.1,-3.2 0,-1.9 -1.3,-3.2 -3.1,-3.2 z m 0,5.4 c -1,0 -2.1,-0.8 -2.1,-2.2 0,-1.5 1,-2.2 2.1,-2.2 1.1,0 2.1,0.8 2.1,2.2 0,1.4 -1,2.2 -2.1,2.2 z"
   class="st1" />
	</g>
	<g
   style="fill:#dabe8d;fill-opacity:1"
   id="g6091">
		<rect
   style="fill:#dabe8d;fill-opacity:1"
   id="rect6089"
   height="0.89999998"
   width="6.3000002"
   class="st1"
   y="17.4"
   x="43.299999" />
	</g>
	<g
   style="fill:#dabe8d;fill-opacity:1"
   id="g6095">
		<polygon
   style="fill:#dabe8d;fill-opacity:1"
   id="polygon6093"
   points="8,17.3 9.4,17.3 9,18.6 9,24 9.4,25.3 8,25.3 8.4,24 8.4,18.6 "
   class="st1" />
	</g>
	<g
   style="fill:#dabe8d;fill-opacity:1"
   id="g6101">
		<g
   style="fill:#dabe8d;fill-opacity:1"
   id="g6099">
			<rect
   style="fill:#dabe8d;fill-opacity:1"
   x="0"
   id="rect6097"
   height="3"
   width="57.599998"
   class="st1"
   y="343.29999" />
		</g>
	</g>
	<g
   style="fill:#dabe8d;fill-opacity:1"
   id="g6113">
		<path
   style="fill:#dabe8d;fill-opacity:1"
   id="path6103"
   d="m 34.7,353.7 h 1 v 5.6 h -1 v -0.8 c -0.3,0.4 -0.9,0.9 -1.9,0.9 -1.4,0 -2.7,-1 -2.7,-3 0,-1.9 1.3,-2.9 2.7,-2.9 1.1,0 1.7,0.6 1.9,0.9 z m -3.6,2.8 c 0,1.2 0.7,2.1 1.8,2.1 1.2,0 1.9,-1 1.9,-2.1 0,-1.4 -1,-2.1 -1.9,-2.1 -1,0.1 -1.8,0.8 -1.8,2.1 z"
   class="st1" />
		<path
   style="fill:#dabe8d;fill-opacity:1"
   id="path6105"
   d="m 38.5,354.6 v 4.7 h -1 v -4.7 H 37 v -0.9 h 0.6 v -2 h 1 v 2 h 1 v 0.9 z"
   class="st1" />
		<path
   style="fill:#dabe8d;fill-opacity:1"
   id="path6107"
   d="m 40.4,349.5 h 1 v 4.9 c 0.2,-0.2 0.7,-0.8 1.6,-0.8 0.7,0 1.3,0.3 1.6,0.8 0.3,0.4 0.3,0.9 0.3,1.5 v 3.5 h -1 V 356 c 0,-0.3 0,-0.7 -0.3,-1 -0.2,-0.2 -0.5,-0.4 -0.9,-0.4 -0.3,0 -0.7,0.1 -1,0.4 -0.4,0.4 -0.4,1.1 -0.4,1.5 v 2.9 h -1 v -9.9 z"
   class="st1" />
		<path
   style="fill:#dabe8d;fill-opacity:1"
   id="path6109"
   d="m 46.8,353.7 h 1 v 0.6 c 0.1,-0.1 0.5,-0.7 1.3,-0.7 0.3,0 0.6,0.1 0.9,0.2 l -0.5,0.9 c -0.2,-0.1 -0.4,-0.2 -0.6,-0.2 -0.4,0 -0.6,0.2 -0.8,0.4 -0.2,0.2 -0.3,0.6 -0.3,1.5 v 3 h -1 z"
   class="st1" />
		<path
   style="fill:#dabe8d;fill-opacity:1"
   id="path6111"
   d="m 51.7,357 c 0,0.4 0,0.9 0.3,1.2 0.1,0.2 0.4,0.4 1,0.4 0.5,0 0.8,-0.2 1,-0.4 0.3,-0.4 0.3,-0.8 0.3,-1.2 v -3.3 h 1 v 3.4 c 0,0.7 -0.1,1.2 -0.5,1.7 -0.5,0.5 -1.2,0.7 -1.7,0.7 -0.6,0 -1.2,-0.2 -1.7,-0.7 -0.4,-0.5 -0.5,-1 -0.5,-1.7 v -3.4 h 1 v 3.3 z m 3,-6.2 -1.8,1.8 -0.6,-0.3 1.4,-2 z"
   class="st1" />
	</g>
	<g
   style="fill:#dabe8d;fill-opacity:1"
   id="g6117">
		<path
   style="fill:#dabe8d;fill-opacity:1"
   id="path6115"
   d="m 3.3,55.1 v 4 H 2.9 v -4 z"
   class="st1" />
	</g>
	<g
   style="fill:#dabe8d;fill-opacity:1"
   id="g6121">
		<path
   style="fill:#dabe8d;fill-opacity:1"
   id="path6119"
   d="m 52,57.1 c 0,-1.2 0.9,-2.1 2.1,-2.1 1.2,0 2.1,0.9 2.1,2.1 0,1.2 -0.9,2.1 -2.1,2.1 -1.2,0 -2.1,-0.9 -2.1,-2.1 z m 0.5,0 c 0,0.9 0.7,1.6 1.6,1.6 0.9,0 1.6,-0.7 1.6,-1.6 0,-0.9 -0.7,-1.6 -1.6,-1.6 -0.9,0 -1.6,0.6 -1.6,1.6 z"
   class="st1" />
	</g>
	<g
   style="fill:#dabe8d;fill-opacity:1"
   id="g6125">
		<path
   style="fill:#dabe8d;fill-opacity:1"
   id="path6123"
   d="M 39.9,185.9 H 17.7 V 63.8 H 40 v 122.1 z m -19.2,-3 H 37 V 66.8 H 20.7 Z"
   class="st1" />
	</g>
	<g
   style="fill:#dabe8d;fill-opacity:1"
   id="g6129">
		<rect
   style="fill:#dabe8d;fill-opacity:1"
   id="rect6127"
   height="20.4"
   width="2"
   class="st1"
   y="254.10001"
   x="42.400002" />
	</g>
	<g
   style="fill:#dabe8d;fill-opacity:1"
   id="g6141">
		<g
   style="fill:#dabe8d;fill-opacity:1"
   id="g6133">
			
				<rect
   style="fill:#dabe8d;fill-opacity:1"
   id="rect6131"
   height="1"
   width="0.5"
   class="st1"
   transform="matrix(0.8636,-0.5041,0.5041,0.8636,-131.4715,55.2499)"
   y="270.10001"
   x="36.200001" />
		</g>
		<g
   style="fill:#dabe8d;fill-opacity:1"
   id="g6139">
			<g
   style="fill:#dabe8d;fill-opacity:1"
   id="g6137">
				<path
   style="fill:#dabe8d;fill-opacity:1"
   id="path6135"
   d="m 37,270.3 v -2.1 h -0.1 l -1.9,2.5 c -0.8,0.7 -1.5,1.4 -2.3,2.1 1,-0.3 2,-0.6 3,-1 l 3.1,-0.5 v -0.1 z"
   class="st1" />
			</g>
		</g>
	</g>
	<g
   style="fill:#dabe8d;fill-opacity:1"
   id="g6145">
		<path
   style="fill:#dabe8d;fill-opacity:1"
   id="path6143"
   d="m 30.4,276.4 -0.8,-0.6 c 2.2,-2.8 5.1,-5.1 8.4,-6.6 3.4,-1.6 7.4,-1.6 10.8,0 3.3,1.5 6.2,3.8 8.4,6.6 l -0.8,0.6 c -2.1,-2.7 -4.9,-4.9 -8,-6.3 -3.2,-1.4 -6.8,-1.4 -10,0 -3.1,1.5 -5.9,3.6 -8,6.3 z"
   class="st1" />
	</g>
	<g
   style="fill:#dabe8d;fill-opacity:1"
   id="g6157">
		<g
   style="fill:#dabe8d;fill-opacity:1"
   id="g6149">
			
				<rect
   style="fill:#dabe8d;fill-opacity:1"
   id="rect6147"
   height="0.5"
   width="1"
   class="st1"
   transform="matrix(0.5039,-0.8638,0.8638,0.5039,-208.7652,177.8134)"
   y="270.39999"
   x="49.900002" />
		</g>
		<g
   style="fill:#dabe8d;fill-opacity:1"
   id="g6155">
			<g
   style="fill:#dabe8d;fill-opacity:1"
   id="g6153">
				<path
   style="fill:#dabe8d;fill-opacity:1"
   id="path6151"
   d="m 49.8,270.3 -1.9,1 v 0.1 l 3.1,0.5 c 1,0.3 2,0.6 3,1 -0.8,-0.7 -1.5,-1.4 -2.3,-2.1 l -1.9,-2.5 h -0.1 z"
   class="st1" />
			</g>
		</g>
	</g>
	<g
   style="fill:#dabe8d;fill-opacity:1"
   id="g6161">
		<path
   style="fill:#dabe8d;fill-opacity:1"
   id="path6159"
   d="m 19.9,192 h 5.3 v 0.8 h -5.3 z"
   class="st2" />
	</g>
	<g
   style="fill:#dabe8d;fill-opacity:1"
   id="g6165">
		<path
   style="fill:#dabe8d;fill-opacity:1"
   id="path6163"
   d="m 32.2,192 h 2.2 v -2.1 h 0.9 v 2.1 h 2.2 v 0.8 h -2.2 v 2.1 h -0.9 v -2.1 h -2.2 z"
   class="st1" />
	</g>
	<g
   style="fill:#dabe8d;fill-opacity:1"
   id="g6169">
		<rect
   style="fill:#dabe8d;fill-opacity:1"
   id="rect6167"
   height="0.80000001"
   width="16"
   class="st1"
   y="282.29999"
   x="18.6" />
	</g>
	<g
   style="fill:#dabe8d;fill-opacity:1"
   id="g6173">
		<path
   style="fill:#dabe8d;fill-opacity:1"
   id="path6171"
   d="M 19.1,291.1 H 9.3 v -16.9 h 9.8 z m -8.8,-1 h 7.8 v -14.9 h -7.8 z"
   class="st1" />
	</g>
	<g
   style="fill:#dabe8d;fill-opacity:1"
   id="g6183">
		<path
   style="fill:#dabe8d;fill-opacity:1"
   id="path6175"
   d="m 9.6,267.4 c 0.2,0 0.6,0 0.9,0.3 0.1,0.1 0.4,0.4 0.4,0.9 0,0.2 0,0.6 -0.4,0.8 0.6,0.1 0.8,0.6 0.8,1 0,0.4 -0.2,0.7 -0.4,0.9 -0.3,0.3 -0.7,0.3 -1,0.3 h -1 v -4.1 h 0.7 z m -0.3,1.8 h 0.3 c 0.2,0 0.8,0 0.8,-0.7 0,-0.7 -0.7,-0.7 -0.8,-0.7 H 9.3 Z m 0,1.9 h 0.5 c 0.3,0 0.5,0 0.7,-0.2 0.2,-0.1 0.3,-0.3 0.3,-0.6 0,-0.3 -0.2,-0.5 -0.4,-0.6 -0.2,-0.1 -0.4,-0.1 -0.7,-0.1 H 9.3 Z"
   class="st1" />
		<path
   style="fill:#dabe8d;fill-opacity:1"
   id="path6177"
   d="m 12.6,267.4 v 4.1 h -0.5 v -4.1 z"
   class="st1" />
		<path
   style="fill:#dabe8d;fill-opacity:1"
   id="path6179"
   d="m 15.9,270.3 h -1.8 l -0.5,1.2 h -0.5 l 1.9,-4.3 1.8,4.3 h -0.5 z m -0.2,-0.4 -0.7,-1.6 -0.7,1.6 z"
   class="st1" />
		<path
   style="fill:#dabe8d;fill-opacity:1"
   id="path6181"
   d="m 19.2,268.2 c -0.1,-0.1 -0.1,-0.2 -0.2,-0.3 -0.1,-0.1 -0.2,-0.1 -0.5,-0.1 -0.4,0 -0.7,0.3 -0.7,0.6 0,0.2 0,0.3 0.2,0.4 0.1,0.1 0.3,0.2 0.4,0.3 l 0.4,0.2 c 0.2,0.1 0.5,0.2 0.6,0.4 0.2,0.2 0.3,0.5 0.3,0.7 0,0.8 -0.6,1.3 -1.3,1.3 -0.3,0 -0.6,-0.1 -0.9,-0.3 -0.2,-0.2 -0.3,-0.5 -0.4,-0.7 l 0.4,-0.1 c 0,0.2 0.1,0.4 0.2,0.5 0.2,0.2 0.4,0.2 0.6,0.2 0.6,0 0.8,-0.4 0.8,-0.8 0,-0.2 -0.1,-0.3 -0.2,-0.5 -0.1,-0.1 -0.3,-0.2 -0.5,-0.3 L 18,269.5 c -0.2,-0.1 -0.4,-0.2 -0.5,-0.3 -0.2,-0.2 -0.3,-0.4 -0.3,-0.7 0,-0.6 0.5,-1.1 1.2,-1.1 0.3,0 0.5,0 0.7,0.2 0.2,0.1 0.3,0.3 0.4,0.5 z"
   class="st1" />
	</g>
	<g
   style="fill:#dabe8d;fill-opacity:1"
   id="g6195">
		<path
   style="fill:#dabe8d;fill-opacity:1"
   id="path6185"
   d="m 41.3,311.8 h 0.8 c 0.4,0 1,0 1.5,0.5 0.4,0.3 0.7,0.8 0.7,1.6 0,0.9 -0.4,1.3 -0.7,1.6 -0.4,0.3 -0.8,0.5 -1.5,0.5 h -0.8 z m 0.5,3.7 h 0.4 c 0.3,0 0.8,0 1.2,-0.4 0.3,-0.3 0.6,-0.7 0.6,-1.3 0,-1 -0.7,-1.6 -1.7,-1.6 h -0.4 v 3.3 z"
   class="st1" />
		<path
   style="fill:#dabe8d;fill-opacity:1"
   id="path6187"
   d="m 45.9,311.8 c 0.3,0 0.7,0 1,0.2 0.2,0.2 0.5,0.5 0.5,0.9 0,0.6 -0.4,1.1 -1,1.1 l 1.3,1.8 H 47.1 L 45.8,314 h -0.1 v 1.8 h -0.5 v -4.1 h 0.7 z m -0.2,1.9 H 46 c 0.6,0 0.9,-0.3 0.9,-0.8 0,-0.2 -0.1,-0.5 -0.3,-0.6 -0.2,-0.1 -0.4,-0.1 -0.6,-0.1 h -0.3 z"
   class="st1" />
		<path
   style="fill:#dabe8d;fill-opacity:1"
   id="path6189"
   d="m 48.8,311.8 v 4.1 h -0.5 v -4.1 z"
   class="st1" />
		<path
   style="fill:#dabe8d;fill-opacity:1"
   id="path6191"
   d="m 49.9,311.8 1.2,3.1 1.2,-3.1 h 0.5 l -1.7,4.4 -1.7,-4.4 z"
   class="st1" />
		<path
   style="fill:#dabe8d;fill-opacity:1"
   id="path6193"
   d="m 55.4,312.2 h -1.7 v 1.2 h 1.6 v 0.4 h -1.6 v 1.6 h 1.7 v 0.4 h -2.1 v -4.1 h 2.1 z"
   class="st1" />
	</g>
	<g
   style="fill:#dabe8d;fill-opacity:1"
   id="g6199">
		<path
   style="fill:#dabe8d;fill-opacity:1"
   id="path6197"
   d="m 55.6,265.1 c -0.7,0 -0.8,-3.3 -0.8,-3.3 0,-1.4 -0.3,-2.2 -1.7,-2.2 -1.4,0 -1.7,0.8 -1.7,2.2 0,0 -0.1,3.3 -0.8,3.3 -0.7,0 -0.8,-3.3 -0.8,-3.3 0,-1.4 -0.3,-2.2 -1.7,-2.2 -1.4,0 -1.7,0.8 -1.7,2.2 H 46 c 0,-1.4 0.3,-2.6 2.1,-2.6 1.8,0 2.1,1.3 2.1,2.6 0,1.1 0.2,2.4 0.4,2.8 0.2,-0.4 0.4,-1.7 0.4,-2.8 0,-1.4 0.3,-2.6 2.1,-2.6 1.8,0 2.1,1.3 2.1,2.6 0,1.1 0.2,2.4 0.4,2.8 0.2,-0.4 0.4,-1.7 0.4,-2.8 h 0.4 c 0,0 -0.1,3.3 -0.8,3.3 z"
   class="st1" />
	</g>
	<g
   style="fill:#dabe8d;fill-opacity:1"
   id="g6203">
		<path
   style="fill:#dabe8d;fill-opacity:1"
   id="path6201"
   d="m 37.4,265.1 c -1.8,0 -2.1,-1.3 -2.1,-2.6 0,-1.1 -0.2,-2.4 -0.4,-2.8 -0.2,0.4 -0.4,1.7 -0.4,2.8 0,1.4 -0.3,2.6 -2.1,2.6 -1.8,0 -2.1,-1.3 -2.1,-2.6 h 0.4 c 0,1.4 0.3,2.2 1.7,2.2 1.4,0 1.7,-0.8 1.7,-2.2 0,0 0.1,-3.3 0.8,-3.3 0.7,0 0.8,3.3 0.8,3.3 0,1.4 0.3,2.2 1.7,2.2 1.4,0 1.7,-0.8 1.7,-2.2 0,0 0.1,-3.3 0.8,-3.3 0.7,0 0.8,3.3 0.8,3.3 h -0.4 c 0,-1.1 -0.2,-2.4 -0.4,-2.8 -0.2,0.4 -0.4,1.7 -0.4,2.8 0,1.3 -0.3,2.6 -2.1,2.6 z"
   class="st1" />
	</g>
	<g
   style="fill:#dabe8d;fill-opacity:1"
   id="g6237">
		<g
   style="fill:#dabe8d;fill-opacity:1"
   id="g6207">
			<path
   style="fill:#dabe8d;fill-opacity:1"
   id="path6205"
   d="m 9.8,219.5 1.5,3.8 1.5,-4 1.5,4 1.6,-3.8 h 0.9 l -2.5,6 -1.5,-4 -1.5,4 -2.4,-6 z"
   class="st3" />
		</g>
		<g
   style="fill:#dabe8d;fill-opacity:1"
   id="g6211">
			<path
   style="fill:#dabe8d;fill-opacity:1"
   id="path6209"
   d="m 20.3,223.8 h -2.4 l -0.6,1.4 h -0.9 l 2.8,-6 2.7,6 H 21 Z M 20,223 19.2,221.1 18.3,223 Z"
   class="st3" />
		</g>
		<g
   style="fill:#dabe8d;fill-opacity:1"
   id="g6215">
			<path
   style="fill:#dabe8d;fill-opacity:1"
   id="path6213"
   d="m 22.4,219.5 1.6,3.9 1.6,-3.9 h 0.9 l -2.5,6.1 -2.5,-6.1 z"
   class="st3" />
		</g>
		<g
   style="fill:#dabe8d;fill-opacity:1"
   id="g6219">
			<path
   style="fill:#dabe8d;fill-opacity:1"
   id="path6217"
   d="M 30.3,220.3 H 28 v 1.4 h 2.2 v 0.8 H 28 v 1.9 h 2.3 v 0.8 h -3.1 v -5.6 h 3.1 z"
   class="st3" />
		</g>
		<g
   style="fill:#dabe8d;fill-opacity:1"
   id="g6223">
			<path
   style="fill:#dabe8d;fill-opacity:1"
   id="path6221"
   d="m 34.2,220.3 h -2 v 1.4 h 1.9 v 0.8 h -1.9 v 2.7 h -0.9 v -5.6 h 2.8 v 0.7 z"
   class="st3" />
		</g>
		<g
   style="fill:#dabe8d;fill-opacity:1"
   id="g6227">
			<path
   style="fill:#dabe8d;fill-opacity:1"
   id="path6225"
   d="m 34.9,222.3 c 0,-0.8 0.3,-1.5 0.9,-2 0.6,-0.6 1.3,-0.9 2.1,-0.9 0.8,0 1.5,0.3 2.1,0.9 0.6,0.6 0.9,1.3 0.9,2.1 0,0.8 -0.3,1.5 -0.9,2.1 -0.6,0.6 -1.3,0.9 -2.1,0.9 -0.7,0 -1.4,-0.3 -2,-0.8 -0.6,-0.6 -1,-1.4 -1,-2.3 z m 0.9,0 c 0,0.6 0.2,1.1 0.6,1.5 0.4,0.4 0.9,0.6 1.4,0.6 0.6,0 1.1,-0.2 1.5,-0.6 0.4,-0.4 0.6,-0.9 0.6,-1.5 0,-0.6 -0.2,-1.1 -0.6,-1.5 -0.4,-0.4 -0.9,-0.6 -1.5,-0.6 -0.6,0 -1.1,0.2 -1.5,0.6 -0.3,0.4 -0.5,0.9 -0.5,1.5 z"
   class="st3" />
		</g>
		<g
   style="fill:#dabe8d;fill-opacity:1"
   id="g6231">
			<path
   style="fill:#dabe8d;fill-opacity:1"
   id="path6229"
   d="m 42.8,219.5 v 4.8 h 1.7 v 0.8 H 42 v -5.6 z"
   class="st3" />
		</g>
		<g
   style="fill:#dabe8d;fill-opacity:1"
   id="g6235">
			<path
   style="fill:#dabe8d;fill-opacity:1"
   id="path6233"
   d="m 45.2,225.2 v -5.6 h 1.2 c 0.6,0 1,0.1 1.3,0.2 0.4,0.1 0.7,0.3 1,0.6 0.6,0.5 0.9,1.2 0.9,2.1 0,0.9 -0.3,1.6 -0.9,2.1 -0.3,0.3 -0.6,0.5 -1,0.6 -0.3,0.1 -0.8,0.2 -1.3,0.2 h -1.2 z m 0.9,-0.8 h 0.4 c 0.4,0 0.7,0 1,-0.1 0.3,-0.1 0.5,-0.2 0.7,-0.4 0.4,-0.4 0.6,-0.9 0.6,-1.5 0,-0.6 -0.2,-1.1 -0.6,-1.5 -0.4,-0.3 -0.9,-0.5 -1.6,-0.5 h -0.4 v 4 z"
   class="st3" />
		</g>
	</g>
	<g
   style="fill:#dabe8d;fill-opacity:1"
   id="g6271">
		<g
   style="fill:#dabe8d;fill-opacity:1"
   id="g6241">
			<path
   style="fill:#dabe8d;fill-opacity:1"
   id="path6239"
   d="m 9.8,219.5 1.5,3.8 1.5,-4 1.5,4 1.6,-3.8 h 0.9 l -2.5,6 -1.5,-4 -1.5,4 -2.4,-6 z"
   class="st4" />
		</g>
		<g
   style="fill:#dabe8d;fill-opacity:1"
   id="g6245">
			<path
   style="fill:#dabe8d;fill-opacity:1"
   id="path6243"
   d="m 20.3,223.8 h -2.4 l -0.6,1.4 h -0.9 l 2.8,-6 2.7,6 H 21 Z M 20,223 19.2,221.1 18.3,223 Z"
   class="st4" />
		</g>
		<g
   style="fill:#dabe8d;fill-opacity:1"
   id="g6249">
			<path
   style="fill:#dabe8d;fill-opacity:1"
   id="path6247"
   d="m 22.4,219.5 1.6,3.9 1.6,-3.9 h 0.9 l -2.5,6.1 -2.5,-6.1 z"
   class="st4" />
		</g>
		<g
   style="fill:#dabe8d;fill-opacity:1"
   id="g6253">
			<path
   style="fill:#dabe8d;fill-opacity:1"
   id="path6251"
   d="M 30.3,220.3 H 28 v 1.4 h 2.2 v 0.8 H 28 v 1.9 h 2.3 v 0.8 h -3.1 v -5.6 h 3.1 z"
   class="st4" />
		</g>
		<g
   style="fill:#dabe8d;fill-opacity:1"
   id="g6257">
			<path
   style="fill:#dabe8d;fill-opacity:1"
   id="path6255"
   d="m 34.2,220.3 h -2 v 1.4 h 1.9 v 0.8 h -1.9 v 2.7 h -0.9 v -5.6 h 2.8 v 0.7 z"
   class="st4" />
		</g>
		<g
   style="fill:#dabe8d;fill-opacity:1"
   id="g6261">
			<path
   style="fill:#dabe8d;fill-opacity:1"
   id="path6259"
   d="m 34.9,222.3 c 0,-0.8 0.3,-1.5 0.9,-2 0.6,-0.6 1.3,-0.9 2.1,-0.9 0.8,0 1.5,0.3 2.1,0.9 0.6,0.6 0.9,1.3 0.9,2.1 0,0.8 -0.3,1.5 -0.9,2.1 -0.6,0.6 -1.3,0.9 -2.1,0.9 -0.7,0 -1.4,-0.3 -2,-0.8 -0.6,-0.6 -1,-1.4 -1,-2.3 z m 0.9,0 c 0,0.6 0.2,1.1 0.6,1.5 0.4,0.4 0.9,0.6 1.4,0.6 0.6,0 1.1,-0.2 1.5,-0.6 0.4,-0.4 0.6,-0.9 0.6,-1.5 0,-0.6 -0.2,-1.1 -0.6,-1.5 -0.4,-0.4 -0.9,-0.6 -1.5,-0.6 -0.6,0 -1.1,0.2 -1.5,0.6 -0.3,0.4 -0.5,0.9 -0.5,1.5 z"
   class="st4" />
		</g>
		<g
   style="fill:#dabe8d;fill-opacity:1"
   id="g6265">
			<path
   style="fill:#dabe8d;fill-opacity:1"
   id="path6263"
   d="m 42.8,219.5 v 4.8 h 1.7 v 0.8 H 42 v -5.6 z"
   class="st4" />
		</g>
		<g
   style="fill:#dabe8d;fill-opacity:1"
   id="g6269">
			<path
   style="fill:#dabe8d;fill-opacity:1"
   id="path6267"
   d="m 45.2,225.2 v -5.6 h 1.2 c 0.6,0 1,0.1 1.3,0.2 0.4,0.1 0.7,0.3 1,0.6 0.6,0.5 0.9,1.2 0.9,2.1 0,0.9 -0.3,1.6 -0.9,2.1 -0.3,0.3 -0.6,0.5 -1,0.6 -0.3,0.1 -0.8,0.2 -1.3,0.2 h -1.2 z m 0.9,-0.8 h 0.4 c 0.4,0 0.7,0 1,-0.1 0.3,-0.1 0.5,-0.2 0.7,-0.4 0.4,-0.4 0.6,-0.9 0.6,-1.5 0,-0.6 -0.2,-1.1 -0.6,-1.5 -0.4,-0.3 -0.9,-0.5 -1.6,-0.5 h -0.4 v 4 z"
   class="st4" />
		</g>
	</g>
	<g
   style="fill:#dabe8d;fill-opacity:1"
   id="g6305">
		<g
   style="fill:#dabe8d;fill-opacity:1"
   id="g6275">
			<path
   style="fill:#dabe8d;fill-opacity:1"
   id="path6273"
   d="m 9.8,219.5 1.5,3.8 1.5,-4 1.5,4 1.6,-3.8 h 0.9 l -2.5,6 -1.5,-4 -1.5,4 -2.4,-6 z"
   class="st1" />
		</g>
		<g
   style="fill:#dabe8d;fill-opacity:1"
   id="g6279">
			<path
   style="fill:#dabe8d;fill-opacity:1"
   id="path6277"
   d="m 20.3,223.8 h -2.4 l -0.6,1.4 h -0.9 l 2.8,-6 2.7,6 H 21 Z M 20,223 19.2,221.1 18.3,223 Z"
   class="st1" />
		</g>
		<g
   style="fill:#dabe8d;fill-opacity:1"
   id="g6283">
			<path
   style="fill:#dabe8d;fill-opacity:1"
   id="path6281"
   d="m 22.4,219.5 1.6,3.9 1.6,-3.9 h 0.9 l -2.5,6.1 -2.5,-6.1 z"
   class="st1" />
		</g>
		<g
   style="fill:#dabe8d;fill-opacity:1"
   id="g6287">
			<path
   style="fill:#dabe8d;fill-opacity:1"
   id="path6285"
   d="M 30.3,220.3 H 28 v 1.4 h 2.2 v 0.8 H 28 v 1.9 h 2.3 v 0.8 h -3.1 v -5.6 h 3.1 z"
   class="st1" />
		</g>
		<g
   style="fill:#dabe8d;fill-opacity:1"
   id="g6291">
			<path
   style="fill:#dabe8d;fill-opacity:1"
   id="path6289"
   d="m 34.2,220.3 h -2 v 1.4 h 1.9 v 0.8 h -1.9 v 2.7 h -0.9 v -5.6 h 2.8 v 0.7 z"
   class="st1" />
		</g>
		<g
   style="fill:#dabe8d;fill-opacity:1"
   id="g6295">
			<path
   style="fill:#dabe8d;fill-opacity:1"
   id="path6293"
   d="m 34.9,222.3 c 0,-0.8 0.3,-1.5 0.9,-2 0.6,-0.6 1.3,-0.9 2.1,-0.9 0.8,0 1.5,0.3 2.1,0.9 0.6,0.6 0.9,1.3 0.9,2.1 0,0.8 -0.3,1.5 -0.9,2.1 -0.6,0.6 -1.3,0.9 -2.1,0.9 -0.7,0 -1.4,-0.3 -2,-0.8 -0.6,-0.6 -1,-1.4 -1,-2.3 z m 0.9,0 c 0,0.6 0.2,1.1 0.6,1.5 0.4,0.4 0.9,0.6 1.4,0.6 0.6,0 1.1,-0.2 1.5,-0.6 0.4,-0.4 0.6,-0.9 0.6,-1.5 0,-0.6 -0.2,-1.1 -0.6,-1.5 -0.4,-0.4 -0.9,-0.6 -1.5,-0.6 -0.6,0 -1.1,0.2 -1.5,0.6 -0.3,0.4 -0.5,0.9 -0.5,1.5 z"
   class="st1" />
		</g>
		<g
   style="fill:#dabe8d;fill-opacity:1"
   id="g6299">
			<path
   style="fill:#dabe8d;fill-opacity:1"
   id="path6297"
   d="m 42.8,219.5 v 4.8 h 1.7 v 0.8 H 42 v -5.6 z"
   class="st1" />
		</g>
		<g
   style="fill:#dabe8d;fill-opacity:1"
   id="g6303">
			<path
   style="fill:#dabe8d;fill-opacity:1"
   id="path6301"
   d="m 45.2,225.2 v -5.6 h 1.2 c 0.6,0 1,0.1 1.3,0.2 0.4,0.1 0.7,0.3 1,0.6 0.6,0.5 0.9,1.2 0.9,2.1 0,0.9 -0.3,1.6 -0.9,2.1 -0.3,0.3 -0.6,0.5 -1,0.6 -0.3,0.1 -0.8,0.2 -1.3,0.2 h -1.2 z m 0.9,-0.8 h 0.4 c 0.4,0 0.7,0 1,-0.1 0.3,-0.1 0.5,-0.2 0.7,-0.4 0.4,-0.4 0.6,-0.9 0.6,-1.5 0,-0.6 -0.2,-1.1 -0.6,-1.5 -0.4,-0.3 -0.9,-0.5 -1.6,-0.5 h -0.4 v 4 z"
   class="st1" />
		</g>
	</g>
	<g
   style="fill:#dabe8d;fill-opacity:1"
   id="g6309">
		<path
   style="fill:#dabe8d;fill-opacity:1"
   id="path6307"
   d="M 25.9,237.1 23.8,235 c 2.4,-2.4 3.4,-4.8 3.4,-7.9 h 3 c 0,3.8 -1.3,7 -4.3,10 z"
   class="st1" />
	</g>
	<g
   style="fill:#dabe8d;fill-opacity:1"
   id="g6313">
		<path
   style="fill:#dabe8d;fill-opacity:1"
   id="path6311"
   d="m 14.2,257.1 c -7.4,0 -13.4,-6 -13.4,-13.4 0,-7.4 6,-13.4 13.4,-13.4 7.4,0 13.4,6 13.4,13.4 0,7.4 -6,13.4 -13.4,13.4 z m 0,-26.3 c -7.1,0 -12.8,5.8 -12.8,12.8 0,7.1 5.8,12.8 12.8,12.8 7,0 12.8,-5.7 12.8,-12.7 0,-7.1 -5.7,-12.9 -12.8,-12.9 z"
   class="st1" />
	</g>
	<g
   style="fill:#dabe8d;fill-opacity:1"
   id="g6317">
		<path
   style="fill:#dabe8d;fill-opacity:1"
   id="path6315"
   d="m 32.2,322.2 h -1 c 0,-2 -0.3,-3.9 -0.9,-5.7 -1.4,-4.3 -4.6,-8 -8.6,-10.2 -2.6,-1.4 -5.4,-2.1 -8.4,-2.1 -1.6,0 -3.2,0.2 -4.7,0.6 l -0.3,-1 c 4.5,-1.2 9.6,-0.7 13.8,1.5 4.3,2.3 7.6,6.2 9.1,10.7 0.7,2.2 1,4.2 1,6.2 z m -2.6,0 h -1 c 0,-8.5 -6.9,-15.4 -15.4,-15.4 -3,0 -5.8,0.8 -8.3,2.4 l -0.5,-0.8 c 2.6,-1.7 5.7,-2.6 8.9,-2.6 9,0.1 16.3,7.4 16.3,16.4 z"
   class="st1" />
	</g>
	<g
   style="fill:#dabe8d;fill-opacity:1"
   id="g6321">
		<rect
   style="fill:#dabe8d;fill-opacity:1"
   id="rect6319"
   height="33.599998"
   width="3"
   class="st1"
   y="184.39999"
   x="27.299999" />
	</g>
</g>
</svg>
