<?xml version="1.0" encoding="UTF-8" standalone="no"?>
<svg
   xmlns:dc="http://purl.org/dc/elements/1.1/"
   xmlns:cc="http://creativecommons.org/ns#"
   xmlns:rdf="http://www.w3.org/1999/02/22-rdf-syntax-ns#"
   xmlns:svg="http://www.w3.org/2000/svg"
   xmlns="http://www.w3.org/2000/svg"
   xmlns:sodipodi="http://sodipodi.sourceforge.net/DTD/sodipodi-0.dtd"
   xmlns:inkscape="http://www.inkscape.org/namespaces/inkscape"
   inkscape:version="1.0 (4035a4f, 2020-05-01)"
   height="128.5mm"
   width="91.440002mm"
   sodipodi:docname="Harmonaig (inkscape render).svg"
   id="svg2277"
   xml:space="preserve"
   viewBox="0 0 345.6 485.66928"
   y="0px"
   x="0px"
   version="1.1"><metadata
   id="metadata2283"><rdf:RDF><cc:Work
       rdf:about=""><dc:format>image/svg+xml</dc:format><dc:type
         rdf:resource="http://purl.org/dc/dcmitype/StillImage" /><dc:title></dc:title></cc:Work></rdf:RDF></metadata><defs
   id="defs2281" /><sodipodi:namedview
   inkscape:current-layer="svg2277"
   inkscape:window-maximized="0"
   inkscape:window-y="23"
   inkscape:window-x="0"
   inkscape:cy="229.47548"
   inkscape:cx="60.211402"
   inkscape:zoom="1.1472995"
   units="mm"
   inkscape:document-units="mm"
   showgrid="false"
   id="namedview2279"
   inkscape:window-height="855"
   inkscape:window-width="1440"
   inkscape:pageshadow="2"
   inkscape:pageopacity="0"
   guidetolerance="10"
   gridtolerance="10"
   objecttolerance="10"
   borderopacity="1"
   bordercolor="#666666"
   pagecolor="#ffffff" />
<style
   id="style1633"
   type="text/css">
	.st0{fill:#202020;}
	.st1{fill:#E0C490;}
</style>
<g
   style="fill:#202020;fill-opacity:1"
   transform="scale(1.3333333,1.3331576)"
   id="Layer_3">
	<rect
   style="fill:#202020;fill-opacity:1"
   id="rect1635"
   height="364.29999"
   width="259.20001"
   class="st0"
   y="0"
   x="0" />
</g>
<g
   style="fill:#e0c490;fill-opacity:1"
   transform="scale(1.3333333,1.3331576)"
   id="Layer_2">
	<g
   style="fill:#e0c490;fill-opacity:1"
   id="g1642">
		<g
   style="fill:#e0c490;fill-opacity:1"
   id="g1640">
			<rect
   style="fill:#e0c490;fill-opacity:1"
   id="rect1638"
   height="3"
   width="73.300003"
   class="st1"
   y="344"
   x="0" />
		</g>
	</g>
	<g
   style="fill:#e0c490;fill-opacity:1"
   id="g1652">
		<g
   style="fill:#e0c490;fill-opacity:1"
   id="g1646">
			<rect
   style="fill:#e0c490;fill-opacity:1"
   id="rect1644"
   height="3"
   width="75.599998"
   class="st1"
   y="344"
   x="183.60001" />
		</g>
		<g
   style="fill:#e0c490;fill-opacity:1"
   id="g1650">
			<rect
   style="fill:#e0c490;fill-opacity:1"
   id="rect1648"
   height="3"
   width="0"
   class="st1"
   y="344"
   x="183.60001" />
		</g>
	</g>
	<g
   style="fill:#e0c490;fill-opacity:1"
   id="g1674">
		<g
   style="fill:#e0c490;fill-opacity:1"
   id="g1656">
			<path
   style="fill:#e0c490;fill-opacity:1"
   id="path1654"
   d="M 83.2,24.6 V 3.4 L 99.2,20 V 4.2 h 2.3 V 25.5 L 85.5,8.9 v 15.8 h -2.3 z"
   class="st1" />
		</g>
		<g
   style="fill:#e0c490;fill-opacity:1"
   id="g1660">
			<path
   style="fill:#e0c490;fill-opacity:1"
   id="path1658"
   d="m 115.8,8.1 c -0.3,-0.6 -0.7,-1.2 -1.2,-1.5 -0.4,-0.3 -1.1,-0.7 -2.3,-0.7 -2,0 -3.4,1.3 -3.4,3.2 0,0.8 0.2,1.3 0.8,1.8 0.6,0.6 1.4,0.9 2.1,1.3 l 2,0.9 c 1.2,0.5 2.3,1.1 3.2,1.9 1,1 1.5,2.2 1.5,3.7 0,3.8 -2.8,6.3 -6.5,6.3 -1.3,0 -3,-0.3 -4.4,-1.7 -1,-1 -1.6,-2.4 -1.9,-3.6 l 2.2,-0.6 c 0.2,1.1 0.6,2 1.2,2.6 0.9,0.9 1.9,1.1 2.9,1.1 2.8,0 4.1,-2 4.1,-4 0,-0.9 -0.3,-1.7 -1,-2.4 -0.6,-0.6 -1.4,-0.9 -2.4,-1.4 l -1.8,-0.9 c -0.8,-0.4 -1.8,-0.8 -2.7,-1.7 -0.9,-0.9 -1.4,-1.8 -1.4,-3.3 0,-3.2 2.4,-5.3 5.7,-5.3 1.3,0 2.3,0.2 3.3,0.9 0.8,0.6 1.5,1.4 2,2.3 z"
   class="st1" />
		</g>
		<g
   style="fill:#e0c490;fill-opacity:1"
   id="g1664">
			<path
   style="fill:#e0c490;fill-opacity:1"
   id="path1662"
   d="M 126.3,6.4 V 24.7 H 124 V 6.4 h -5 V 4.2 h 12.2 v 2.1 h -4.9 z"
   class="st1" />
		</g>
		<g
   style="fill:#e0c490;fill-opacity:1"
   id="g1668">
			<path
   style="fill:#e0c490;fill-opacity:1"
   id="path1666"
   d="m 137.6,4.2 c 1.4,0 3.4,0.1 5,1.1 1.2,0.8 2.2,2.4 2.2,4.5 0,3.1 -2.1,5.4 -5.1,5.6 l 6.5,9.1 h -2.8 l -6.2,-8.9 h -0.6 v 8.9 h -2.3 V 4.2 Z m -1,9.5 h 1.4 c 2.8,0 4.5,-1.3 4.5,-3.7 0,-1.1 -0.3,-2.3 -1.6,-3 -0.9,-0.5 -2,-0.6 -2.9,-0.6 h -1.4 z"
   class="st1" />
		</g>
		<g
   style="fill:#e0c490;fill-opacity:1"
   id="g1672">
			<path
   style="fill:#e0c490;fill-opacity:1"
   id="path1670"
   d="m 151.9,16.7 c 0,1.7 0,3.6 1.6,5 0.8,0.7 2.2,1.2 3.4,1.2 1.1,0 2.5,-0.5 3.4,-1.2 1.6,-1.4 1.6,-3.2 1.6,-5 V 4.2 h 2.3 v 13.1 c 0,1.7 -0.2,3.4 -1.3,4.9 -1.2,1.7 -3.4,2.8 -6,2.8 -2.6,0 -4.7,-1.1 -6,-2.8 -1.1,-1.5 -1.3,-3.2 -1.3,-4.9 V 4.2 h 2.3 z"
   class="st1" />
		</g>
	</g>
	<g
   style="fill:#e0c490;fill-opacity:1"
   id="g1678">
		<path
   style="fill:#e0c490;fill-opacity:1"
   id="path1676"
   d="m 174.6,9.1 c -4.6,0 -8,3.5 -8,8.2 0,4.7 3.4,8.2 8,8.2 4.6,0 8,-3.5 8,-8.2 0,-4.7 -3.3,-8.2 -8,-8.2 z m 0,14 c -2.7,0 -5.3,-2 -5.3,-5.8 0,-3.8 2.6,-5.8 5.3,-5.8 2.8,0 5.3,2 5.3,5.8 0.1,3.8 -2.5,5.8 -5.3,5.8 z"
   class="st1" />
	</g>
	<g
   style="fill:#e0c490;fill-opacity:1"
   id="g1682">
		<rect
   style="fill:#e0c490;fill-opacity:1"
   id="rect1680"
   height="2.3"
   width="16.299999"
   class="st1"
   y="4.0999999"
   x="166.60001" />
	</g>
	<g
   style="fill:#e0c490;fill-opacity:1"
   id="g1686">
		<polygon
   style="fill:#e0c490;fill-opacity:1"
   id="polygon1684"
   points="78.4,4 77.5,7.2 77.5,21.4 78.4,24.6 74.9,24.6 75.8,21.4 75.8,7.2 74.9,4 "
   class="st1" />
	</g>
	<g
   style="fill:#e0c490;fill-opacity:1"
   id="SPLINE_2_">
		<g
   style="fill:#e0c490;fill-opacity:1"
   id="g1690">
			<path
   style="fill:#e0c490;fill-opacity:1"
   id="path1688"
   d="m 21.6,193.6 c -0.7,0 -1.4,0 -2.1,-0.1 C 11.1,192.6 4.3,185.8 3.4,177.4 2.8,172 4.4,167 7.9,163 c 3.5,-3.9 8.5,-6.1 13.7,-6.1 0.5,0 0.8,0 1.2,0 h 0.5 c 2.4,0.1 5.2,0.2 6.1,-0.6 0.4,-0.4 0.5,-1.2 0.5,-2.7 0,-16.9 12.5,-30.7 27.8,-30.7 15.3,0 27.8,13.8 27.8,30.7 0,16.9 -12.5,30.7 -27.8,30.7 -4.7,0 -9.4,-1.3 -13.5,-3.9 0,0 -0.1,0 -0.1,-0.1 -0.8,-0.5 -1.6,-0.7 -2.3,-0.5 -1.4,0.4 -2.9,2 -4.3,4.6 0,0 0,0 0,0 0,0 0,0 0,0.1 -3.5,5.8 -9.4,9.1 -15.9,9.1 z m 0,-34.7 c -4.6,0 -9.1,2 -12.2,5.4 -3.1,3.5 -4.6,8 -4.1,12.8 0.8,7.5 6.9,13.5 14.4,14.4 6.5,0.7 12.6,-2.3 15.9,-7.8 0,0 0,0 0,0 1.7,-3.3 3.5,-5.1 5.5,-5.6 1.2,-0.3 2.5,-0.1 3.7,0.6 0,0 0.1,0 0.1,0.1 3.8,2.4 8.2,3.6 12.6,3.6 14.2,0 25.8,-12.9 25.8,-28.7 0,-15.8 -11.6,-28.7 -25.8,-28.7 -14.2,0 -25.8,12.9 -25.8,28.7 0,1.8 -0.1,3.2 -1.1,4.2 -1.2,1.1 -3.1,1.4 -7.5,1.1 h -0.5 c -0.3,-0.1 -0.6,-0.1 -1,-0.1 z"
   class="st1" />
		</g>
	</g>
	<g
   style="fill:#e0c490;fill-opacity:1"
   id="SPLINE_1_">
		<g
   style="fill:#e0c490;fill-opacity:1"
   id="g1695">
			<path
   style="fill:#e0c490;fill-opacity:1"
   id="path1693"
   d="m 21.6,262.1 c -0.7,0 -1.4,0 -2.1,-0.1 -8.4,-0.9 -15.2,-7.7 -16.1,-16.1 -0.6,-5.3 1,-10.4 4.6,-14.3 3.5,-3.9 8.5,-6.1 13.7,-6.1 0.5,0 0.8,0 1.2,0 h 0.4 c 2.4,0.1 5.2,0.2 6.1,-0.6 0.4,-0.4 0.5,-1.2 0.5,-2.7 0,-16.9 12.5,-30.7 27.8,-30.7 15.3,0 27.8,13.8 27.8,30.7 0,16.9 -12.5,30.7 -27.8,30.7 -4.7,0 -9.4,-1.3 -13.5,-3.9 0,0 -0.1,0 -0.1,-0.1 -0.8,-0.5 -1.6,-0.7 -2.3,-0.5 -1.4,0.4 -2.9,2 -4.3,4.6 0,0 0,0.1 0,0.1 -3.5,5.7 -9.4,9 -15.9,9 z m 0,-34.7 c -4.6,0 -9.1,2 -12.2,5.4 -3.1,3.5 -4.6,8 -4.1,12.8 0.8,7.5 6.9,13.5 14.4,14.4 6.5,0.7 12.5,-2.3 15.9,-7.8 0,0 0,0 0,0 1.7,-3.3 3.5,-5.1 5.5,-5.6 1.2,-0.3 2.5,-0.1 3.7,0.6 0,0 0.1,0 0.1,0.1 3.8,2.4 8.2,3.6 12.6,3.6 14.2,0 25.8,-12.9 25.8,-28.7 0,-15.8 -11.6,-28.7 -25.8,-28.7 -14.2,0 -25.8,12.9 -25.8,28.7 0,1.8 -0.1,3.2 -1.1,4.2 -1.2,1.1 -3.1,1.4 -7.5,1.1 h -0.5 c -0.3,0 -0.6,-0.1 -1,-0.1 z"
   class="st1" />
		</g>
	</g>
	<g
   style="fill:#e0c490;fill-opacity:1"
   id="POLYLINE_10_">
		<g
   style="fill:#e0c490;fill-opacity:1"
   id="g1702">
			<g
   style="fill:#e0c490;fill-opacity:1"
   id="g1700">
				<path
   style="fill:#e0c490;fill-opacity:1"
   id="path1698"
   d="m 131.1,52.7 v 25.7 c -0.5,-0.1 -1,-0.1 -1.5,-0.1 -0.5,0 -1,0 -1.5,0.1 V 52.7 c 0.5,0.1 1,0.1 1.5,0.1 0.5,0 1,0 1.5,-0.1 z"
   class="st1" />
			</g>
		</g>
	</g>
	<g
   style="fill:#e0c490;fill-opacity:1"
   id="POLYLINE_9_">
		<g
   style="fill:#e0c490;fill-opacity:1"
   id="g1709">
			<g
   style="fill:#e0c490;fill-opacity:1"
   id="g1707">
				<path
   style="fill:#e0c490;fill-opacity:1"
   id="path1705"
   d="m 167.1,52.7 v 25.7 c -0.5,-0.1 -1,-0.1 -1.5,-0.1 -0.5,0 -1,0 -1.5,0.1 V 52.7 c 0.5,0.1 1,0.1 1.5,0.1 0.5,0 1,0 1.5,-0.1 z"
   class="st1" />
			</g>
		</g>
	</g>
	<g
   style="fill:#e0c490;fill-opacity:1"
   id="POLYLINE_8_">
		<g
   style="fill:#e0c490;fill-opacity:1"
   id="g1716">
			<g
   style="fill:#e0c490;fill-opacity:1"
   id="g1714">
				<path
   style="fill:#e0c490;fill-opacity:1"
   id="path1712"
   d="m 203.1,52.7 v 25.7 c -0.5,-0.1 -1,-0.1 -1.5,-0.1 -0.5,0 -1,0 -1.5,0.1 V 52.7 c 0.5,0.1 1,0.1 1.5,0.1 0.5,0 1,0 1.5,-0.1 z"
   class="st1" />
			</g>
		</g>
	</g>
	<g
   style="fill:#e0c490;fill-opacity:1"
   id="POLYLINE_7_">
		<g
   style="fill:#e0c490;fill-opacity:1"
   id="g1723">
			<g
   style="fill:#e0c490;fill-opacity:1"
   id="g1721">
				<path
   style="fill:#e0c490;fill-opacity:1"
   id="path1719"
   d="m 239.1,52.7 v 25.7 c -0.5,-0.1 -1,-0.1 -1.5,-0.1 -0.5,0 -1,0 -1.5,0.1 V 52.7 c 0.5,0.1 1,0.1 1.5,0.1 0.5,0 1,0 1.5,-0.1 z"
   class="st1" />
			</g>
		</g>
	</g>
	<g
   style="fill:#e0c490;fill-opacity:1"
   id="HATCH_1_">
		<g
   style="fill:#e0c490;fill-opacity:1"
   id="g1728">
			<path
   style="fill:#e0c490;fill-opacity:1"
   id="path1726"
   d="m 237.6,236.8 c -8.4,0 -15.3,6.4 -16,14.6 0,0 0,0 -0.1,0 h -36.4 v -53.7 c -0.5,0.1 -1,0.1 -1.5,0.1 -0.5,0 -1,0 -1.5,-0.1 v 53.7 h -39.4 c 0,0.4 0.1,0.9 0.1,1.3 0,0.6 0,1.2 -0.1,1.7 h 78.8 c 0,0 0,0 0.1,0 0.8,8.2 7.7,14.6 16,14.6 8.9,0 16.1,-7.2 16.1,-16.1 0,-8.9 -7.2,-16.1 -16.1,-16.1 z m 0,31.2 c -8,0 -14.5,-6.2 -15,-14 0,-0.4 0,-0.7 0,-1.1 0,-0.4 0,-0.7 0,-1.1 0.5,-7.8 7.1,-14 15,-14 8.3,0 15.1,6.8 15.1,15.1 0,8.3 -6.8,15.1 -15.1,15.1 z"
   class="st1" />
		</g>
	</g>
	<g
   style="fill:#e0c490;fill-opacity:1"
   id="g1735">
		<g
   style="fill:#e0c490;fill-opacity:1"
   id="g1733">
			<path
   style="fill:#e0c490;fill-opacity:1"
   id="path1731"
   d="m 76.6,29.5 v 5.6 c -0.3,0 -0.7,-0.1 -1,-0.1 -0.3,0 -0.7,0 -1,0.1 v -5.6 z"
   class="st1" />
		</g>
	</g>
	<g
   style="fill:#e0c490;fill-opacity:1"
   id="g1739">
		<path
   style="fill:#e0c490;fill-opacity:1"
   id="path1737"
   d="m 68.3,32.4 v 0.7 H 63 v -0.7 z"
   class="st1" />
	</g>
	<g
   style="fill:#e0c490;fill-opacity:1"
   id="g1743">
		<path
   style="fill:#e0c490;fill-opacity:1"
   id="path1741"
   d="m 85.5,29.5 v 2.8 h 2.7 V 33 h -2.7 v 2.8 H 84.7 V 33 H 82 v -0.7 h 2.7 v -2.8 z"
   class="st1" />
	</g>
	<g
   style="fill:#e0c490;fill-opacity:1"
   id="g1747">
		<path
   style="fill:#e0c490;fill-opacity:1"
   id="path1745"
   d="m 50,66.1 v 0.7 h -5.3 v -0.7 z"
   class="st1" />
	</g>
	<g
   style="fill:#e0c490;fill-opacity:1"
   id="g1751">
		<path
   style="fill:#e0c490;fill-opacity:1"
   id="path1749"
   d="M 62.5,63.2 V 66 h 2.7 v 0.7 h -2.7 v 2.8 H 61.7 V 66.7 H 59 V 66 h 2.7 v -2.8 z"
   class="st1" />
	</g>
	<g
   style="fill:#e0c490;fill-opacity:1"
   id="g1761">
		<g
   style="fill:#e0c490;fill-opacity:1"
   id="g1755">
			<path
   style="fill:#e0c490;fill-opacity:1"
   id="path1753"
   d="M 66.9,42.3 H 37.7 c 0,0 -0.1,0 -0.1,0 -0.8,-8.2 -7.6,-14.6 -16,-14.6 -8.9,0 -16.1,7.2 -16.1,16.1 0,8.9 7.2,16.1 16.1,16.1 8.4,0 15.3,-6.4 16,-14.6 0,0 0,0 0.1,0 h 29.2 c -0.1,-0.5 -0.1,-1 -0.1,-1.5 0,-0.5 0,-1 0.1,-1.5 z m -30.3,2.6 c -0.5,7.8 -7.1,14 -15,14 -8.3,0 -15.1,-6.8 -15.1,-15.1 0,-8.3 6.8,-15.1 15.1,-15.1 8,0 14.5,6.2 15,14 0,0.4 0,0.7 0,1.1 0,0.4 0.1,0.8 0,1.1 z"
   class="st1" />
		</g>
		<g
   style="fill:#e0c490;fill-opacity:1"
   id="g1759">
			<path
   style="fill:#e0c490;fill-opacity:1"
   id="path1757"
   d="m 77.1,72.5 v -20 c -0.5,0.1 -1,0.1 -1.5,0.1 -0.5,0 -1,0 -1.5,-0.1 v 20 H 56.3 v -9.4 h -3 v 9.4 H 8 v 18.3 h 12.1 v 8.3 c 0.5,-0.1 1,-0.1 1.5,-0.1 0.5,0 1,0 1.5,0.1 v -8.3 h 78.4 V 72.5 Z M 98.5,87.8 H 11 V 75.5 h 87.5 z"
   class="st1" />
		</g>
	</g>
	<g
   style="fill:#e0c490;fill-opacity:1"
   id="g1799">
		<g
   style="fill:#e0c490;fill-opacity:1"
   id="g1765">
			<path
   style="fill:#e0c490;fill-opacity:1"
   id="path1763"
   d="m 46.7,94.6 v 6 H 46 v -6 h -1.6 v -0.7 h 4 v 0.7 z"
   class="st1" />
		</g>
		<g
   style="fill:#e0c490;fill-opacity:1"
   id="g1769">
			<path
   style="fill:#e0c490;fill-opacity:1"
   id="path1767"
   d="m 50.4,93.9 c 0.5,0 1.1,0 1.6,0.4 0.4,0.3 0.7,0.8 0.7,1.5 0,1 -0.7,1.8 -1.7,1.8 l 2.1,3 h -0.9 l -2,-2.9 H 50 v 2.9 H 49.3 V 93.9 Z M 50,97 h 0.5 c 0.9,0 1.5,-0.4 1.5,-1.2 0,-0.4 -0.1,-0.7 -0.5,-1 -0.3,-0.2 -0.6,-0.2 -1,-0.2 H 50 Z"
   class="st1" />
		</g>
		<g
   style="fill:#e0c490;fill-opacity:1"
   id="g1773">
			<path
   style="fill:#e0c490;fill-opacity:1"
   id="path1771"
   d="m 58,98.7 h -2.8 l -0.8,1.9 h -0.8 l 3.1,-7 3,7 H 58.9 Z M 57.7,98 56.6,95.3 55.5,98 Z"
   class="st1" />
		</g>
		<g
   style="fill:#e0c490;fill-opacity:1"
   id="g1777">
			<path
   style="fill:#e0c490;fill-opacity:1"
   id="path1775"
   d="m 60.5,100.6 v -6.9 l 5.2,5.4 v -5.2 h 0.7 v 7 l -5.2,-5.4 v 5.1 z"
   class="st1" />
		</g>
		<g
   style="fill:#e0c490;fill-opacity:1"
   id="g1781">
			<path
   style="fill:#e0c490;fill-opacity:1"
   id="path1779"
   d="m 71.2,95.3 c -0.1,-0.2 -0.2,-0.4 -0.4,-0.5 -0.1,-0.1 -0.4,-0.2 -0.7,-0.2 -0.7,0 -1.1,0.4 -1.1,1 0,0.3 0.1,0.4 0.2,0.6 0.2,0.2 0.4,0.3 0.7,0.4 l 0.6,0.3 c 0.4,0.2 0.7,0.4 1,0.6 0.3,0.3 0.5,0.7 0.5,1.2 0,1.2 -0.9,2 -2.1,2 -0.4,0 -1,-0.1 -1.4,-0.5 C 68.2,99.9 68,99.4 67.9,99 l 0.7,-0.2 c 0.1,0.3 0.2,0.6 0.4,0.8 0.3,0.3 0.6,0.4 1,0.4 0.9,0 1.3,-0.6 1.3,-1.3 0,-0.3 -0.1,-0.6 -0.3,-0.8 -0.2,-0.2 -0.4,-0.3 -0.8,-0.5 L 69.6,97.1 C 69.3,97 69,96.8 68.7,96.6 68.4,96.3 68.2,96 68.2,95.5 c 0,-1 0.8,-1.7 1.9,-1.7 0.4,0 0.7,0.1 1.1,0.3 0.3,0.2 0.5,0.4 0.6,0.7 z"
   class="st1" />
		</g>
		<g
   style="fill:#e0c490;fill-opacity:1"
   id="g1785">
			<path
   style="fill:#e0c490;fill-opacity:1"
   id="path1783"
   d="m 74.6,93.9 c 0.7,0 1.2,0.1 1.7,0.5 0.5,0.4 0.6,1 0.6,1.4 0,0.9 -0.6,1.9 -2.1,1.9 h -0.6 v 2.9 H 73.5 V 93.9 Z M 74.1,97 h 0.6 c 0.9,0 1.4,-0.4 1.4,-1.2 0,-1.1 -1,-1.2 -1.5,-1.2 h -0.5 z"
   class="st1" />
		</g>
		<g
   style="fill:#e0c490;fill-opacity:1"
   id="g1789">
			<path
   style="fill:#e0c490;fill-opacity:1"
   id="path1787"
   d="m 77.6,97.3 c 0,-2 1.5,-3.4 3.5,-3.4 2,0 3.5,1.5 3.5,3.4 0,2 -1.5,3.4 -3.5,3.4 -2,0 -3.5,-1.4 -3.5,-3.4 z m 0.7,0 c 0,1.5 1.2,2.7 2.7,2.7 1.5,0 2.7,-1.2 2.7,-2.7 0,-1.5 -1.2,-2.7 -2.7,-2.7 -1.5,0 -2.7,1.2 -2.7,2.7 z"
   class="st1" />
		</g>
		<g
   style="fill:#e0c490;fill-opacity:1"
   id="g1793">
			<path
   style="fill:#e0c490;fill-opacity:1"
   id="path1791"
   d="m 88.9,95.3 c -0.1,-0.2 -0.2,-0.4 -0.4,-0.5 -0.1,-0.1 -0.4,-0.2 -0.7,-0.2 -0.7,0 -1.1,0.4 -1.1,1 0,0.3 0.1,0.4 0.2,0.6 0.2,0.2 0.4,0.3 0.7,0.4 l 0.6,0.3 c 0.4,0.2 0.7,0.4 1,0.6 0.3,0.3 0.5,0.7 0.5,1.2 0,1.2 -0.9,2 -2.1,2 -0.4,0 -1,-0.1 -1.4,-0.5 -0.3,-0.3 -0.5,-0.8 -0.6,-1.2 l 0.7,-0.2 c 0.1,0.3 0.2,0.6 0.4,0.8 0.3,0.3 0.6,0.4 1,0.4 0.9,0 1.3,-0.6 1.3,-1.3 0,-0.3 -0.1,-0.6 -0.3,-0.8 -0.2,-0.2 -0.4,-0.3 -0.8,-0.5 L 87.3,97.1 C 87,97 86.7,96.8 86.4,96.6 86.1,96.3 85.9,96 85.9,95.5 c 0,-1 0.8,-1.7 1.9,-1.7 0.4,0 0.7,0.1 1.1,0.3 0.3,0.2 0.5,0.4 0.6,0.7 z"
   class="st1" />
		</g>
		<g
   style="fill:#e0c490;fill-opacity:1"
   id="g1797">
			<path
   style="fill:#e0c490;fill-opacity:1"
   id="path1795"
   d="m 94.5,94.6 h -2.7 v 2 h 2.6 v 0.7 h -2.6 v 2.6 h 2.7 v 0.7 H 91 v -6.7 h 3.5 z"
   class="st1" />
		</g>
	</g>
	<g
   style="fill:#e0c490;fill-opacity:1"
   id="g1837">
		<g
   style="fill:#e0c490;fill-opacity:1"
   id="g1803">
			<path
   style="fill:#e0c490;fill-opacity:1"
   id="path1801"
   d="m 46.5,112.9 v 6.7 h -0.7 v -6.7 z"
   class="st1" />
		</g>
		<g
   style="fill:#e0c490;fill-opacity:1"
   id="g1807">
			<path
   style="fill:#e0c490;fill-opacity:1"
   id="path1805"
   d="m 48.2,119.6 v -6.9 l 5.2,5.4 v -5.2 h 0.7 v 7 l -5.2,-5.4 v 5.1 z"
   class="st1" />
		</g>
		<g
   style="fill:#e0c490;fill-opacity:1"
   id="g1811">
			<path
   style="fill:#e0c490;fill-opacity:1"
   id="path1809"
   d="m 55.9,112.9 1.9,5.1 1.9,-5.1 h 0.8 l -2.7,7.1 -2.7,-7.1 z"
   class="st1" />
		</g>
		<g
   style="fill:#e0c490;fill-opacity:1"
   id="g1815">
			<path
   style="fill:#e0c490;fill-opacity:1"
   id="path1813"
   d="m 64.9,113.6 h -2.7 v 2 h 2.6 v 0.7 h -2.6 v 2.6 h 2.7 v 0.7 h -3.5 v -6.7 h 3.5 z"
   class="st1" />
		</g>
		<g
   style="fill:#e0c490;fill-opacity:1"
   id="g1819">
			<path
   style="fill:#e0c490;fill-opacity:1"
   id="path1817"
   d="m 67.4,112.9 c 0.5,0 1.1,0 1.6,0.4 0.4,0.3 0.7,0.8 0.7,1.5 0,1 -0.7,1.8 -1.7,1.8 l 2.1,3 h -0.9 l -2,-2.9 H 67 v 2.9 h -0.7 v -6.7 z M 67,116 h 0.5 c 0.9,0 1.5,-0.4 1.5,-1.2 0,-0.4 -0.1,-0.7 -0.5,-1 -0.3,-0.2 -0.6,-0.2 -1,-0.2 H 67 Z"
   class="st1" />
		</g>
		<g
   style="fill:#e0c490;fill-opacity:1"
   id="g1823">
			<path
   style="fill:#e0c490;fill-opacity:1"
   id="path1821"
   d="m 74.3,114.3 c -0.1,-0.2 -0.2,-0.4 -0.4,-0.5 -0.1,-0.1 -0.4,-0.2 -0.7,-0.2 -0.7,0 -1.1,0.4 -1.1,1 0,0.3 0.1,0.4 0.2,0.6 0.2,0.2 0.4,0.3 0.7,0.4 l 0.6,0.3 c 0.4,0.2 0.7,0.4 1,0.6 0.3,0.3 0.5,0.7 0.5,1.2 0,1.2 -0.9,2 -2.1,2 -0.4,0 -1,-0.1 -1.4,-0.5 -0.3,-0.3 -0.5,-0.8 -0.6,-1.2 l 0.7,-0.2 c 0.1,0.3 0.2,0.6 0.4,0.8 0.3,0.3 0.6,0.4 1,0.4 0.9,0 1.3,-0.6 1.3,-1.3 0,-0.3 -0.1,-0.6 -0.3,-0.8 -0.2,-0.2 -0.4,-0.3 -0.8,-0.5 l -0.6,-0.3 c -0.3,-0.1 -0.6,-0.3 -0.9,-0.5 -0.3,-0.3 -0.5,-0.6 -0.5,-1.1 0,-1 0.8,-1.7 1.9,-1.7 0.4,0 0.7,0.1 1.1,0.3 0.3,0.2 0.5,0.4 0.6,0.7 z"
   class="st1" />
		</g>
		<g
   style="fill:#e0c490;fill-opacity:1"
   id="g1827">
			<path
   style="fill:#e0c490;fill-opacity:1"
   id="path1825"
   d="m 77.2,112.9 v 6.7 h -0.7 v -6.7 z"
   class="st1" />
		</g>
		<g
   style="fill:#e0c490;fill-opacity:1"
   id="g1831">
			<path
   style="fill:#e0c490;fill-opacity:1"
   id="path1829"
   d="m 78.6,116.3 c 0,-2 1.5,-3.4 3.5,-3.4 2,0 3.5,1.5 3.5,3.4 0,2 -1.5,3.4 -3.5,3.4 -2,0 -3.5,-1.4 -3.5,-3.4 z m 0.7,0 c 0,1.5 1.2,2.7 2.7,2.7 1.5,0 2.7,-1.2 2.7,-2.7 0,-1.5 -1.2,-2.7 -2.7,-2.7 -1.5,0 -2.7,1.2 -2.7,2.7 z"
   class="st1" />
		</g>
		<g
   style="fill:#e0c490;fill-opacity:1"
   id="g1835">
			<path
   style="fill:#e0c490;fill-opacity:1"
   id="path1833"
   d="m 86.9,119.6 v -6.9 l 5.2,5.4 v -5.2 h 0.7 v 7 l -5.2,-5.4 v 5.1 z"
   class="st1" />
		</g>
	</g>
	<g
   style="fill:#e0c490;fill-opacity:1"
   id="g1843">
		<g
   style="fill:#e0c490;fill-opacity:1"
   id="g1841">
			<path
   style="fill:#e0c490;fill-opacity:1"
   id="path1839"
   d="m 144,136.5 h -3.6 v -0.7 h 4.9 l -4.5,6.8 -0.6,-0.4 z"
   class="st1" />
		</g>
	</g>
	<g
   style="fill:#e0c490;fill-opacity:1"
   id="g1849">
		<g
   style="fill:#e0c490;fill-opacity:1"
   id="g1847">
			<path
   style="fill:#e0c490;fill-opacity:1"
   id="path1845"
   d="m 125.8,223.5 c 0,-2 1.5,-3.4 3.5,-3.4 2,0 3.5,1.5 3.5,3.4 0,2 -1.5,3.4 -3.5,3.4 -1.9,0 -3.5,-1.4 -3.5,-3.4 z m 0.8,0 c 0,1.5 1.2,2.7 2.7,2.7 1.5,0 2.7,-1.2 2.7,-2.7 0,-1.5 -1.2,-2.7 -2.7,-2.7 -1.5,0 -2.7,1.1 -2.7,2.7 z"
   class="st1" />
		</g>
	</g>
	<g
   style="fill:#e0c490;fill-opacity:1"
   id="g1855">
		<g
   style="fill:#e0c490;fill-opacity:1"
   id="g1853">
			<path
   style="fill:#e0c490;fill-opacity:1"
   id="path1851"
   d="m 121.1,192.4 c 0.3,0.3 0.8,1 0.8,2.2 0,2 -1.5,3.4 -3.5,3.4 -1.1,0 -1.8,-0.4 -2.2,-0.8 l -0.8,0.8 -0.5,-0.5 0.8,-0.8 c -0.6,-0.7 -0.7,-1.5 -0.7,-2.2 0,-2 1.6,-3.4 3.5,-3.4 0.6,0 1.4,0.1 2.2,0.7 l 0.8,-0.8 0.5,0.5 z m -1,0 c -0.2,-0.2 -0.8,-0.5 -1.6,-0.5 -1.5,0 -2.7,1.2 -2.7,2.7 0,0.8 0.3,1.4 0.6,1.7 z m -3.3,4.4 c 0.6,0.5 1.3,0.6 1.7,0.6 1.5,0 2.7,-1.2 2.7,-2.7 0,-0.5 -0.1,-1.1 -0.6,-1.7 z"
   class="st1" />
		</g>
	</g>
	<g
   style="fill:#e0c490;fill-opacity:1"
   id="g1861">
		<g
   style="fill:#e0c490;fill-opacity:1"
   id="g1859">
			<path
   style="fill:#e0c490;fill-opacity:1"
   id="path1857"
   d="m 243,159.5 h -1.1 l 0.4,-0.7 h 1.5 v 6.7 H 243 Z"
   class="st1" />
		</g>
	</g>
	<g
   style="fill:#e0c490;fill-opacity:1"
   id="g1867">
		<g
   style="fill:#e0c490;fill-opacity:1"
   id="g1865">
			<path
   style="fill:#e0c490;fill-opacity:1"
   id="path1863"
   d="m 245.4,198.1 2.4,-2.8 c 0.2,-0.2 0.6,-0.7 0.8,-1 0.3,-0.4 0.4,-0.7 0.4,-1 0,-0.7 -0.5,-1.3 -1.3,-1.3 -0.5,0 -0.9,0.2 -1.1,0.6 -0.1,0.2 -0.2,0.4 -0.2,0.8 h -0.7 c 0,-0.7 0.2,-1.1 0.5,-1.4 0.3,-0.3 0.7,-0.7 1.6,-0.7 1.2,0 2.1,0.8 2.1,2 0,0.4 -0.1,0.9 -0.5,1.4 -0.3,0.4 -0.6,0.8 -0.9,1.1 l -1.4,1.6 h 2.8 v 0.7 z"
   class="st1" />
		</g>
	</g>
	<g
   style="fill:#e0c490;fill-opacity:1"
   id="g1873">
		<g
   style="fill:#e0c490;fill-opacity:1"
   id="g1871">
			<path
   style="fill:#e0c490;fill-opacity:1"
   id="path1869"
   d="m 235.5,221.8 c 0,-0.4 0.1,-0.7 0.3,-1 0.4,-0.7 1.1,-0.8 1.5,-0.8 1.3,0 1.9,0.9 1.9,1.8 0,0.5 -0.2,1.1 -0.9,1.5 0.2,0.1 1,0.5 1,1.6 0,1.2 -0.9,2 -2,2 -0.7,0 -1.5,-0.3 -1.9,-1.1 -0.1,-0.2 -0.1,-0.5 -0.2,-0.7 h 0.7 c 0,0.2 0.1,0.5 0.2,0.7 0.2,0.3 0.6,0.5 1,0.5 0.7,0 1.3,-0.6 1.3,-1.3 0,-0.4 -0.2,-0.9 -0.7,-1.1 -0.2,-0.1 -0.5,-0.2 -0.8,-0.1 V 223 c 0.3,0 0.5,0 0.8,-0.1 0.3,-0.1 0.6,-0.4 0.6,-1 0,-0.6 -0.3,-1.1 -1.1,-1.1 -0.3,0 -0.6,0 -0.9,0.4 -0.1,0.2 -0.2,0.4 -0.3,0.7 h -0.5 z"
   class="st1" />
		</g>
	</g>
	<g
   style="fill:#e0c490;fill-opacity:1"
   id="g1879">
		<g
   style="fill:#e0c490;fill-opacity:1"
   id="g1877">
			<path
   style="fill:#e0c490;fill-opacity:1"
   id="path1875"
   d="m 217.9,246.7 h 0.8 v 0.7 h -0.8 v 1.3 h -0.7 v -1.3 h -3.4 l 4.2,-5.8 v 5.1 z m -0.7,0 v -2.9 l -2.1,2.9 z"
   class="st1" />
		</g>
	</g>
	<g
   style="fill:#e0c490;fill-opacity:1"
   id="g1889">
		<g
   style="fill:#e0c490;fill-opacity:1"
   id="g1883">
			<path
   style="fill:#e0c490;fill-opacity:1"
   id="path1881"
   d="m 118,161.9 h 4.4 v 0.6 H 118 Z"
   class="st1" />
		</g>
		<g
   style="fill:#e0c490;fill-opacity:1"
   id="g1887">
			<path
   style="fill:#e0c490;fill-opacity:1"
   id="path1885"
   d="m 127.4,159.5 h -3.6 v -0.7 h 4.9 l -4.5,6.8 -0.6,-0.4 z"
   class="st1" />
		</g>
	</g>
	<g
   style="fill:#e0c490;fill-opacity:1"
   id="g1899">
		<g
   style="fill:#e0c490;fill-opacity:1"
   id="g1893">
			<path
   style="fill:#e0c490;fill-opacity:1"
   id="path1891"
   d="m 163.7,128 2.7,-6.7 h 0.8 l 2.7,6.7 z m 1.1,-0.7 h 4 l -2,-5 z"
   class="st1" />
		</g>
		<g
   style="fill:#e0c490;fill-opacity:1"
   id="g1897">
			<path
   style="fill:#e0c490;fill-opacity:1"
   id="path1895"
   d="m 174.4,122 h -3.6 v -0.7 h 4.9 l -4.5,6.8 -0.6,-0.4 z"
   class="st1" />
		</g>
	</g>
	<g
   style="fill:#e0c490;fill-opacity:1"
   id="g1913">
		<g
   style="fill:#e0c490;fill-opacity:1"
   id="g1903">
			<path
   style="fill:#e0c490;fill-opacity:1"
   id="path1901"
   d="m 189,124.4 h 1.8 v -1.7 h 0.7 v 1.7 h 1.8 v 0.7 h -1.8 v 1.7 h -0.7 V 125 H 189 Z"
   class="st1" />
		</g>
		<g
   style="fill:#e0c490;fill-opacity:1"
   id="g1907">
			<path
   style="fill:#e0c490;fill-opacity:1"
   id="path1905"
   d="m 194,128 2.7,-6.7 h 0.8 l 2.7,6.7 z m 1,-0.7 h 4 l -2,-5 z"
   class="st1" />
		</g>
		<g
   style="fill:#e0c490;fill-opacity:1"
   id="g1911">
			<path
   style="fill:#e0c490;fill-opacity:1"
   id="path1909"
   d="M 204.7,122 H 201 v -0.7 h 4.9 l -4.5,6.8 -0.6,-0.4 z"
   class="st1" />
		</g>
	</g>
	<g
   style="fill:#e0c490;fill-opacity:1"
   id="g1927">
		<g
   style="fill:#e0c490;fill-opacity:1"
   id="g1917">
			<path
   style="fill:#e0c490;fill-opacity:1"
   id="path1915"
   d="m 145.3,245.1 h 4.4 v 0.6 h -4.4 z"
   class="st1" />
		</g>
		<g
   style="fill:#e0c490;fill-opacity:1"
   id="g1921">
			<path
   style="fill:#e0c490;fill-opacity:1"
   id="path1919"
   d="m 150.6,248.7 2.7,-6.7 h 0.8 l 2.7,6.7 z m 1.1,-0.7 h 4 l -2,-5 z"
   class="st1" />
		</g>
		<g
   style="fill:#e0c490;fill-opacity:1"
   id="g1925">
			<path
   style="fill:#e0c490;fill-opacity:1"
   id="path1923"
   d="m 161.3,242.7 h -3.6 V 242 h 4.9 l -4.5,6.8 -0.6,-0.4 z"
   class="st1" />
		</g>
	</g>
	<g
   style="fill:#e0c490;fill-opacity:1"
   id="g1937">
		<g
   style="fill:#e0c490;fill-opacity:1"
   id="g1931">
			<path
   style="fill:#e0c490;fill-opacity:1"
   id="path1929"
   d="m 223.4,138.9 h 1.8 v -1.7 h 0.7 v 1.7 h 1.8 v 0.7 h -1.8 v 1.7 h -0.7 v -1.7 h -1.8 z"
   class="st1" />
		</g>
		<g
   style="fill:#e0c490;fill-opacity:1"
   id="g1935">
			<path
   style="fill:#e0c490;fill-opacity:1"
   id="path1933"
   d="m 232.4,136.5 h -3.6 v -0.7 h 4.9 l -4.5,6.8 -0.6,-0.4 z"
   class="st1" />
		</g>
	</g>
	<g
   style="fill:#e0c490;fill-opacity:1"
   id="g1967">
		<g
   style="fill:#e0c490;fill-opacity:1"
   id="g1941">
			<path
   style="fill:#e0c490;fill-opacity:1"
   id="path1939"
   d="m 46.6,257.6 1.9,5.1 1.9,-5.1 h 0.8 l -2.7,7.1 -2.7,-7.1 z"
   class="st1" />
		</g>
		<g
   style="fill:#e0c490;fill-opacity:1"
   id="g1945">
			<path
   style="fill:#e0c490;fill-opacity:1"
   id="path1943"
   d="m 51.8,260.9 c 0,-2 1.5,-3.4 3.5,-3.4 2,0 3.5,1.5 3.5,3.4 0,2 -1.5,3.4 -3.5,3.4 -2,0.1 -3.5,-1.4 -3.5,-3.4 z m 0.8,0 c 0,1.5 1.2,2.7 2.7,2.7 1.5,0 2.7,-1.2 2.7,-2.7 0,-1.5 -1.2,-2.7 -2.7,-2.7 -1.5,0 -2.7,1.2 -2.7,2.7 z"
   class="st1" />
		</g>
		<g
   style="fill:#e0c490;fill-opacity:1"
   id="g1949">
			<path
   style="fill:#e0c490;fill-opacity:1"
   id="path1947"
   d="m 60.8,257.6 v 6.7 h -0.7 v -6.7 z"
   class="st1" />
		</g>
		<g
   style="fill:#e0c490;fill-opacity:1"
   id="g1953">
			<path
   style="fill:#e0c490;fill-opacity:1"
   id="path1951"
   d="m 67.7,259 c -0.2,-0.2 -0.5,-0.5 -0.9,-0.6 -0.4,-0.2 -0.8,-0.3 -1.1,-0.3 -1.5,0 -2.7,1.2 -2.7,2.8 0,1.8 1.5,2.7 2.7,2.7 0.4,0 0.9,-0.1 1.2,-0.3 0.4,-0.2 0.6,-0.4 0.8,-0.6 v 0.9 c -0.7,0.5 -1.5,0.6 -2,0.6 -2,0 -3.4,-1.5 -3.4,-3.4 0,-2 1.5,-3.5 3.5,-3.5 0.4,0 1.2,0 2,0.7 v 1 z"
   class="st1" />
		</g>
		<g
   style="fill:#e0c490;fill-opacity:1"
   id="g1957">
			<path
   style="fill:#e0c490;fill-opacity:1"
   id="path1955"
   d="m 69.8,257.6 v 6.7 H 69 v -6.7 z"
   class="st1" />
		</g>
		<g
   style="fill:#e0c490;fill-opacity:1"
   id="g1961">
			<path
   style="fill:#e0c490;fill-opacity:1"
   id="path1959"
   d="m 71.5,264.2 v -6.9 l 5.2,5.4 v -5.2 h 0.7 v 7 l -5.2,-5.4 v 5.1 z"
   class="st1" />
		</g>
		<g
   style="fill:#e0c490;fill-opacity:1"
   id="g1965">
			<path
   style="fill:#e0c490;fill-opacity:1"
   id="path1963"
   d="m 82.6,260.9 h 2.8 v 0.2 c 0,0.7 -0.2,1.5 -0.6,2.1 -0.2,0.3 -0.9,1.2 -2.5,1.2 -2,0 -3.5,-1.5 -3.5,-3.4 0,-1.9 1.5,-3.4 3.5,-3.4 0.6,0 1.4,0.2 2,0.7 0.3,0.2 0.6,0.5 0.8,0.8 l -0.5,0.5 c -0.2,-0.3 -0.4,-0.5 -0.6,-0.7 -0.3,-0.3 -0.8,-0.6 -1.6,-0.6 -1.6,0 -2.7,1.2 -2.7,2.8 0,1.8 1.4,2.7 2.7,2.7 0.9,0 1.7,-0.4 2,-1.1 0.1,-0.2 0.2,-0.5 0.3,-0.9 h -2 v -0.9 z"
   class="st1" />
		</g>
	</g>
	<g
   style="fill:#e0c490;fill-opacity:1"
   id="g1977">
		<g
   style="fill:#e0c490;fill-opacity:1"
   id="g1971">
			<path
   style="fill:#e0c490;fill-opacity:1"
   id="path1969"
   d="m 212.4,259.3 c -0.2,-0.2 -0.5,-0.5 -0.9,-0.6 -0.3,-0.2 -0.8,-0.3 -1.1,-0.3 -1.5,0 -2.7,1.2 -2.7,2.8 0,1.8 1.5,2.7 2.7,2.7 0.4,0 0.9,-0.1 1.2,-0.3 0.4,-0.2 0.6,-0.4 0.8,-0.6 v 0.9 c -0.7,0.5 -1.5,0.6 -2,0.6 -2,0 -3.4,-1.5 -3.4,-3.4 0,-2 1.5,-3.5 3.5,-3.5 0.4,0 1.2,0 2,0.7 v 1 z"
   class="st1" />
		</g>
		<g
   style="fill:#e0c490;fill-opacity:1"
   id="g1975">
			<path
   style="fill:#e0c490;fill-opacity:1"
   id="path1973"
   d="m 213.8,257.8 1.9,5.1 1.9,-5.1 h 0.8 l -2.7,7.1 -2.7,-7.1 z"
   class="st1" />
		</g>
	</g>
	<g
   style="fill:#e0c490;fill-opacity:1"
   id="g2011">
		<g
   style="fill:#e0c490;fill-opacity:1"
   id="g1981">
			<path
   style="fill:#e0c490;fill-opacity:1"
   id="path1979"
   d="m 144.8,257.8 h 1.4 c 0.7,0 1.6,0.1 2.5,0.8 0.6,0.5 1.1,1.4 1.1,2.6 0,1.4 -0.7,2.1 -1.2,2.6 -0.6,0.5 -1.2,0.8 -2.4,0.8 h -1.3 v -6.8 z m 0.7,6 h 0.7 c 0.5,0 1.3,-0.1 1.9,-0.6 0.5,-0.4 0.9,-1.1 0.9,-2 0,-1.6 -1.1,-2.6 -2.8,-2.6 h -0.7 z"
   class="st1" />
		</g>
		<g
   style="fill:#e0c490;fill-opacity:1"
   id="g1985">
			<path
   style="fill:#e0c490;fill-opacity:1"
   id="path1983"
   d="m 151.8,257.8 v 6.7 h -0.7 v -6.7 z"
   class="st1" />
		</g>
		<g
   style="fill:#e0c490;fill-opacity:1"
   id="g1989">
			<path
   style="fill:#e0c490;fill-opacity:1"
   id="path1987"
   d="m 157.2,262.6 h -2.8 l -0.8,1.9 h -0.8 l 3.1,-7 3,7 H 158 Z m -0.3,-0.7 -1.1,-2.7 -1.1,2.7 z"
   class="st1" />
		</g>
		<g
   style="fill:#e0c490;fill-opacity:1"
   id="g1993">
			<path
   style="fill:#e0c490;fill-opacity:1"
   id="path1991"
   d="m 161,258.5 v 6 h -0.7 v -6 h -1.6 v -0.7 h 4 v 0.7 z"
   class="st1" />
		</g>
		<g
   style="fill:#e0c490;fill-opacity:1"
   id="g1997">
			<path
   style="fill:#e0c490;fill-opacity:1"
   id="path1995"
   d="m 162.9,261.1 c 0,-2 1.5,-3.4 3.5,-3.4 2,0 3.5,1.5 3.5,3.4 0,2 -1.5,3.4 -3.5,3.4 -2,0 -3.5,-1.4 -3.5,-3.4 z m 0.7,0 c 0,1.5 1.2,2.7 2.7,2.7 1.5,0 2.7,-1.2 2.7,-2.7 0,-1.5 -1.2,-2.7 -2.7,-2.7 -1.5,0 -2.7,1.2 -2.7,2.7 z"
   class="st1" />
		</g>
		<g
   style="fill:#e0c490;fill-opacity:1"
   id="g2001">
			<path
   style="fill:#e0c490;fill-opacity:1"
   id="path1999"
   d="m 171.2,264.5 v -6.9 l 5.2,5.4 v -5.2 h 0.7 v 7 l -5.2,-5.4 v 5.1 z"
   class="st1" />
		</g>
		<g
   style="fill:#e0c490;fill-opacity:1"
   id="g2005">
			<path
   style="fill:#e0c490;fill-opacity:1"
   id="path2003"
   d="m 179.6,257.8 v 6.7 h -0.7 v -6.7 z"
   class="st1" />
		</g>
		<g
   style="fill:#e0c490;fill-opacity:1"
   id="g2009">
			<path
   style="fill:#e0c490;fill-opacity:1"
   id="path2007"
   d="m 186.4,259.3 c -0.2,-0.2 -0.5,-0.5 -0.9,-0.6 -0.3,-0.2 -0.8,-0.3 -1.1,-0.3 -1.5,0 -2.7,1.2 -2.7,2.8 0,1.8 1.5,2.7 2.7,2.7 0.4,0 0.9,-0.1 1.2,-0.3 0.4,-0.2 0.6,-0.4 0.8,-0.6 v 0.9 c -0.7,0.5 -1.5,0.6 -2,0.6 -2,0 -3.4,-1.5 -3.4,-3.4 0,-2 1.5,-3.5 3.5,-3.5 0.4,0 1.2,0 2,0.7 v 1 z"
   class="st1" />
		</g>
	</g>
	<g
   style="fill:#e0c490;fill-opacity:1"
   id="g2029">
		<g
   style="fill:#e0c490;fill-opacity:1"
   id="g2015">
			<path
   style="fill:#e0c490;fill-opacity:1"
   id="path2013"
   d="m 91.8,125.4 c 0.4,0 0.9,0 1.3,0.3 0.3,0.2 0.6,0.6 0.6,1.2 0,0.8 -0.5,1.4 -1.3,1.5 l 1.7,2.4 h -0.7 l -1.6,-2.3 h -0.2 v 2.3 H 91 v -5.3 h 0.8 z m -0.3,2.4 h 0.4 c 0.7,0 1.2,-0.4 1.2,-1 0,-0.3 -0.1,-0.6 -0.4,-0.8 -0.2,-0.1 -0.5,-0.2 -0.8,-0.2 h -0.4 z"
   class="st1" />
		</g>
		<g
   style="fill:#e0c490;fill-opacity:1"
   id="g2019">
			<path
   style="fill:#e0c490;fill-opacity:1"
   id="path2017"
   d="m 94.6,128 c 0,-1.6 1.2,-2.8 2.8,-2.8 1.6,0 2.8,1.2 2.8,2.8 0,1.6 -1.2,2.8 -2.8,2.8 -1.5,0 -2.8,-1.2 -2.8,-2.8 z m 0.7,0 c 0,1.2 1,2.2 2.2,2.2 1.2,0 2.2,-1 2.2,-2.2 0,-1.2 -1,-2.2 -2.2,-2.2 -1.2,0 -2.2,1 -2.2,2.2 z"
   class="st1" />
		</g>
		<g
   style="fill:#e0c490;fill-opacity:1"
   id="g2023">
			<path
   style="fill:#e0c490;fill-opacity:1"
   id="path2021"
   d="m 101,128 c 0,-1.6 1.2,-2.8 2.8,-2.8 1.6,0 2.8,1.2 2.8,2.8 0,1.6 -1.2,2.8 -2.8,2.8 -1.6,0 -2.8,-1.2 -2.8,-2.8 z m 0.6,0 c 0,1.2 1,2.2 2.2,2.2 1.2,0 2.2,-1 2.2,-2.2 0,-1.2 -1,-2.2 -2.2,-2.2 -1.2,0 -2.2,1 -2.2,2.2 z"
   class="st1" />
		</g>
		<g
   style="fill:#e0c490;fill-opacity:1"
   id="g2027">
			<path
   style="fill:#e0c490;fill-opacity:1"
   id="path2025"
   d="m 108.7,125.9 v 4.8 h -0.6 v -4.8 h -1.3 v -0.6 h 3.2 v 0.6 z"
   class="st1" />
		</g>
	</g>
	<g
   style="fill:#e0c490;fill-opacity:1"
   id="g2043">
		<g
   style="fill:#e0c490;fill-opacity:1"
   id="g2033">
			<path
   style="fill:#e0c490;fill-opacity:1"
   id="path2031"
   d="m 97.3,142.4 h -0.9 l 0.3,-0.6 h 1.2 v 5.3 h -0.6 z"
   class="st1" />
		</g>
		<g
   style="fill:#e0c490;fill-opacity:1"
   id="g2037">
			<path
   style="fill:#e0c490;fill-opacity:1"
   id="path2035"
   d="m 102.8,142.9 c -0.1,-0.1 -0.2,-0.3 -0.3,-0.4 -0.1,-0.1 -0.3,-0.2 -0.6,-0.2 -0.5,0 -0.9,0.3 -0.9,0.8 0,0.2 0.1,0.3 0.2,0.5 0.2,0.2 0.4,0.2 0.6,0.3 l 0.5,0.2 c 0.3,0.1 0.6,0.3 0.8,0.5 0.3,0.3 0.4,0.6 0.4,1 0,1 -0.7,1.6 -1.7,1.6 -0.4,0 -0.8,-0.1 -1.2,-0.4 -0.3,-0.3 -0.4,-0.6 -0.5,-0.9 l 0.6,-0.2 c 0,0.3 0.2,0.5 0.3,0.7 0.2,0.2 0.5,0.3 0.8,0.3 0.7,0 1.1,-0.5 1.1,-1.1 0,-0.2 -0.1,-0.4 -0.3,-0.6 -0.2,-0.1 -0.4,-0.2 -0.6,-0.4 l -0.5,-0.2 c -0.2,-0.1 -0.5,-0.2 -0.7,-0.4 -0.2,-0.2 -0.4,-0.5 -0.4,-0.9 0,-0.8 0.6,-1.4 1.5,-1.4 0.3,0 0.6,0.1 0.9,0.2 0.2,0.1 0.4,0.4 0.5,0.6 z"
   class="st1" />
		</g>
		<g
   style="fill:#e0c490;fill-opacity:1"
   id="g2041">
			<path
   style="fill:#e0c490;fill-opacity:1"
   id="path2039"
   d="m 105.5,142.4 v 4.8 h -0.6 v -4.8 h -1.3 v -0.6 h 3.2 v 0.6 z"
   class="st1" />
		</g>
	</g>
	<g
   style="fill:#e0c490;fill-opacity:1"
   id="g2057">
		<g
   style="fill:#e0c490;fill-opacity:1"
   id="g2047">
			<path
   style="fill:#e0c490;fill-opacity:1"
   id="path2045"
   d="m 96.5,165.5 1.9,-2.2 c 0.1,-0.2 0.5,-0.6 0.6,-0.8 0.2,-0.3 0.3,-0.6 0.3,-0.8 0,-0.6 -0.4,-1 -1.1,-1 -0.4,0 -0.7,0.2 -0.9,0.5 -0.1,0.2 -0.2,0.4 -0.2,0.6 h -0.6 c 0,-0.5 0.2,-0.9 0.4,-1.1 0.2,-0.3 0.6,-0.5 1.3,-0.5 0.9,0 1.6,0.7 1.6,1.6 0,0.4 -0.1,0.7 -0.4,1.1 -0.2,0.3 -0.5,0.6 -0.7,0.9 l -1.1,1.3 h 2.3 v 0.5 h -3.4 z"
   class="st1" />
		</g>
		<g
   style="fill:#e0c490;fill-opacity:1"
   id="g2051">
			<path
   style="fill:#e0c490;fill-opacity:1"
   id="path2049"
   d="m 101.3,165.5 v -5.6 l 4.2,4.4 v -4.1 h 0.6 v 5.6 l -4.2,-4.4 v 4.1 z"
   class="st1" />
		</g>
		<g
   style="fill:#e0c490;fill-opacity:1"
   id="g2055">
			<path
   style="fill:#e0c490;fill-opacity:1"
   id="path2053"
   d="m 107.4,160.2 h 1.1 c 0.5,0 1.3,0.1 2,0.6 0.5,0.4 0.9,1.1 0.9,2 0,1.1 -0.6,1.7 -0.9,2 -0.5,0.4 -1,0.6 -2,0.6 h -1.1 z m 0.6,4.7 h 0.5 c 0.4,0 1,0 1.5,-0.5 0.4,-0.3 0.7,-0.9 0.7,-1.6 0,-1.3 -0.9,-2.1 -2.2,-2.1 H 108 Z"
   class="st1" />
		</g>
	</g>
	<g
   style="fill:#e0c490;fill-opacity:1"
   id="g2071">
		<g
   style="fill:#e0c490;fill-opacity:1"
   id="g2061">
			<path
   style="fill:#e0c490;fill-opacity:1"
   id="path2059"
   d="m 90.9,177.6 c 0,-0.3 0.1,-0.6 0.2,-0.8 0.4,-0.6 0.9,-0.6 1.2,-0.6 1,0 1.5,0.7 1.5,1.4 0,0.4 -0.1,0.9 -0.7,1.2 0.2,0.1 0.8,0.4 0.8,1.3 0,1 -0.7,1.6 -1.6,1.6 -0.6,0 -1.2,-0.2 -1.5,-0.9 -0.1,-0.2 -0.1,-0.4 -0.1,-0.6 h 0.6 c 0,0.2 0.1,0.4 0.2,0.5 0.2,0.3 0.5,0.4 0.8,0.4 0.6,0 1,-0.5 1,-1.1 0,-0.3 -0.1,-0.7 -0.5,-0.9 C 92.6,179 92.4,179 92.2,179 v -0.5 c 0.2,0 0.4,0 0.6,-0.1 0.2,-0.1 0.4,-0.3 0.4,-0.8 0,-0.5 -0.3,-0.9 -0.9,-0.9 -0.2,0 -0.5,0 -0.7,0.3 -0.1,0.1 -0.2,0.3 -0.2,0.6 z"
   class="st1" />
		</g>
		<g
   style="fill:#e0c490;fill-opacity:1"
   id="g2065">
			<path
   style="fill:#e0c490;fill-opacity:1"
   id="path2063"
   d="m 96.3,176.2 c 0.4,0 0.9,0 1.3,0.3 0.3,0.2 0.6,0.6 0.6,1.2 0,0.8 -0.5,1.4 -1.3,1.5 l 1.7,2.4 h -0.7 l -1.6,-2.3 h -0.2 v 2.3 h -0.6 v -5.3 h 0.8 z m -0.2,2.5 h 0.4 c 0.7,0 1.2,-0.4 1.2,-1 0,-0.3 -0.1,-0.6 -0.4,-0.8 -0.2,-0.1 -0.5,-0.2 -0.8,-0.2 h -0.4 z"
   class="st1" />
		</g>
		<g
   style="fill:#e0c490;fill-opacity:1"
   id="g2069">
			<path
   style="fill:#e0c490;fill-opacity:1"
   id="path2067"
   d="m 99.5,176.2 h 1.1 c 0.5,0 1.3,0.1 2,0.6 0.5,0.4 0.9,1.1 0.9,2 0,1.1 -0.6,1.7 -0.9,2 -0.5,0.4 -1,0.6 -2,0.6 h -1.1 z m 0.6,4.8 h 0.5 c 0.4,0 1,0 1.5,-0.5 0.4,-0.3 0.7,-0.9 0.7,-1.6 0,-1.3 -0.9,-2.1 -2.2,-2.1 h -0.5 z"
   class="st1" />
		</g>
	</g>
	<g
   style="fill:#e0c490;fill-opacity:1"
   id="g2093">
		<g
   style="fill:#e0c490;fill-opacity:1"
   id="g2075">
			<path
   style="fill:#e0c490;fill-opacity:1"
   id="path2073"
   d="m 93.6,196.6 c -0.3,-0.4 -0.7,-0.5 -1,-0.5 -0.6,0 -1.2,0.4 -1.2,1.2 0,0.8 0.6,1.2 1.2,1.2 0.3,0 0.8,-0.2 1.1,-0.5 v 0.7 c -0.4,0.3 -0.7,0.3 -1.1,0.3 -1,0 -1.8,-0.7 -1.8,-1.7 0,-1 0.8,-1.8 1.8,-1.8 0.5,0 0.9,0.2 1,0.3 z"
   class="st1" />
		</g>
		<g
   style="fill:#e0c490;fill-opacity:1"
   id="g2079">
			<path
   style="fill:#e0c490;fill-opacity:1"
   id="path2077"
   d="m 95.1,193.2 v 5.8 h -0.6 v -5.8 z"
   class="st1" />
		</g>
		<g
   style="fill:#e0c490;fill-opacity:1"
   id="g2083">
			<path
   style="fill:#e0c490;fill-opacity:1"
   id="path2081"
   d="m 96,197.3 c 0,-1 0.7,-1.8 1.8,-1.8 1,0 1.8,0.7 1.8,1.8 0,1 -0.8,1.7 -1.8,1.7 -1,0.1 -1.8,-0.6 -1.8,-1.7 z m 0.6,0 c 0,0.8 0.6,1.2 1.2,1.2 0.6,0 1.2,-0.4 1.2,-1.2 0,-0.8 -0.6,-1.2 -1.2,-1.2 -0.6,0 -1.2,0.4 -1.2,1.2 z"
   class="st1" />
		</g>
		<g
   style="fill:#e0c490;fill-opacity:1"
   id="g2087">
			<path
   style="fill:#e0c490;fill-opacity:1"
   id="path2085"
   d="m 101.8,196.4 c -0.1,-0.2 -0.2,-0.3 -0.5,-0.3 -0.2,0 -0.4,0.1 -0.4,0.4 0,0.2 0.2,0.3 0.5,0.5 0.5,0.2 0.7,0.4 0.8,0.5 0.1,0.2 0.2,0.4 0.2,0.5 0,0.7 -0.5,1.1 -1.1,1.1 -0.1,0 -0.9,0 -1.2,-0.8 l 0.5,-0.2 c 0.1,0.2 0.3,0.5 0.7,0.5 0.4,0 0.5,-0.3 0.5,-0.5 0,-0.3 -0.2,-0.4 -0.5,-0.6 -0.4,-0.2 -0.7,-0.3 -0.8,-0.5 -0.1,-0.2 -0.2,-0.3 -0.2,-0.5 0,-0.6 0.4,-0.9 1,-0.9 0.2,0 0.6,0 0.9,0.6 z"
   class="st1" />
		</g>
		<g
   style="fill:#e0c490;fill-opacity:1"
   id="g2091">
			<path
   style="fill:#e0c490;fill-opacity:1"
   id="path2089"
   d="m 106.2,198.1 c -0.1,0.2 -0.2,0.4 -0.4,0.5 -0.3,0.3 -0.7,0.4 -1.1,0.4 -0.8,0 -1.6,-0.5 -1.6,-1.7 0,-1 0.6,-1.8 1.6,-1.8 0.6,0 1.1,0.3 1.3,0.6 0.2,0.3 0.3,0.8 0.3,1.2 h -2.6 c 0,0.7 0.5,1.1 1.1,1.1 0.3,0 0.5,-0.1 0.7,-0.2 0.2,-0.1 0.3,-0.3 0.3,-0.5 z m -0.6,-1.1 c -0.1,-0.5 -0.5,-0.9 -1,-0.9 -0.5,0 -0.9,0.4 -1,0.9 z"
   class="st1" />
		</g>
	</g>
	<g
   style="fill:#e0c490;fill-opacity:1"
   id="g2115">
		<g
   style="fill:#e0c490;fill-opacity:1"
   id="g2097">
			<path
   style="fill:#e0c490;fill-opacity:1"
   id="path2095"
   d="m 99,209.6 h 0.6 v 5.8 H 99 V 215 c -0.2,0.2 -0.6,0.6 -1.1,0.6 -0.8,0 -1.6,-0.6 -1.6,-1.8 0,-1.1 0.8,-1.7 1.6,-1.7 0.6,0 1,0.4 1.1,0.6 z m -2.1,4.2 c 0,0.7 0.4,1.2 1.1,1.2 0.7,0 1.1,-0.6 1.1,-1.2 0,-0.9 -0.6,-1.2 -1.1,-1.2 -0.6,-0.1 -1.1,0.4 -1.1,1.2 z"
   class="st1" />
		</g>
		<g
   style="fill:#e0c490;fill-opacity:1"
   id="g2101">
			<path
   style="fill:#e0c490;fill-opacity:1"
   id="path2099"
   d="m 100.7,212.1 h 0.6 v 0.4 c 0.1,-0.1 0.3,-0.4 0.8,-0.4 0.2,0 0.4,0.1 0.5,0.1 l -0.3,0.5 c -0.1,-0.1 -0.2,-0.1 -0.3,-0.1 -0.2,0 -0.4,0.1 -0.5,0.2 -0.1,0.1 -0.2,0.4 -0.2,0.9 v 1.8 h -0.6 z"
   class="st1" />
		</g>
		<g
   style="fill:#e0c490;fill-opacity:1"
   id="g2105">
			<path
   style="fill:#e0c490;fill-opacity:1"
   id="path2103"
   d="m 102.7,213.8 c 0,-1 0.7,-1.8 1.8,-1.8 1,0 1.8,0.7 1.8,1.8 0,1 -0.8,1.7 -1.8,1.7 -1,0 -1.8,-0.7 -1.8,-1.7 z m 0.6,0 c 0,0.8 0.6,1.2 1.2,1.2 0.6,0 1.2,-0.4 1.2,-1.2 0,-0.8 -0.6,-1.2 -1.2,-1.2 -0.7,-0.1 -1.2,0.4 -1.2,1.2 z"
   class="st1" />
		</g>
		<g
   style="fill:#e0c490;fill-opacity:1"
   id="g2109">
			<path
   style="fill:#e0c490;fill-opacity:1"
   id="path2107"
   d="M 107.6,217.3 H 107 v -5.2 h 0.6 v 0.5 c 0.4,-0.5 0.9,-0.5 1.1,-0.5 1,0 1.6,0.9 1.6,1.8 0,0.9 -0.6,1.7 -1.6,1.7 -0.5,0 -0.9,-0.2 -1.2,-0.6 v 2.3 z m 2.2,-3.5 c 0,-0.8 -0.6,-1.2 -1.1,-1.2 -0.5,0 -1.1,0.4 -1.1,1.2 0,0.7 0.4,1.2 1.1,1.2 0.7,0 1.1,-0.5 1.1,-1.2 z"
   class="st1" />
		</g>
		<g
   style="fill:#e0c490;fill-opacity:1"
   id="g2113">
			<path
   style="fill:#e0c490;fill-opacity:1"
   id="path2111"
   d="m 113,215.4 1.9,-2.2 c 0.1,-0.2 0.5,-0.6 0.6,-0.8 0.2,-0.3 0.3,-0.6 0.3,-0.8 0,-0.6 -0.4,-1 -1.1,-1 -0.4,0 -0.7,0.2 -0.9,0.5 -0.1,0.2 -0.2,0.4 -0.2,0.6 H 113 c 0,-0.5 0.2,-0.9 0.4,-1.1 0.2,-0.3 0.6,-0.5 1.3,-0.5 0.9,0 1.6,0.7 1.6,1.6 0,0.4 -0.1,0.7 -0.4,1.1 -0.2,0.3 -0.5,0.6 -0.7,0.9 l -1.1,1.3 h 2.3 v 0.5 H 113 Z"
   class="st1" />
		</g>
	</g>
	<g
   style="fill:#e0c490;fill-opacity:1"
   id="g2137">
		<g
   style="fill:#e0c490;fill-opacity:1"
   id="g2119">
			<path
   style="fill:#e0c490;fill-opacity:1"
   id="path2117"
   d="m 99,228 h 0.6 v 5.8 H 99 v -0.5 c -0.2,0.2 -0.6,0.6 -1.1,0.6 -0.8,0 -1.6,-0.6 -1.6,-1.8 0,-1.1 0.8,-1.7 1.6,-1.7 0.6,0 1,0.4 1.1,0.6 z m -2.1,4.1 c 0,0.7 0.4,1.2 1.1,1.2 0.7,0 1.1,-0.6 1.1,-1.2 0,-0.9 -0.6,-1.2 -1.1,-1.2 -0.6,0 -1.1,0.4 -1.1,1.2 z"
   class="st1" />
		</g>
		<g
   style="fill:#e0c490;fill-opacity:1"
   id="g2123">
			<path
   style="fill:#e0c490;fill-opacity:1"
   id="path2121"
   d="m 100.7,230.5 h 0.6 v 0.4 c 0.1,-0.1 0.3,-0.4 0.8,-0.4 0.2,0 0.4,0.1 0.5,0.1 l -0.3,0.5 c -0.1,-0.1 -0.2,-0.1 -0.3,-0.1 -0.2,0 -0.4,0.1 -0.5,0.2 -0.1,0.1 -0.2,0.4 -0.2,0.9 v 1.8 h -0.6 z"
   class="st1" />
		</g>
		<g
   style="fill:#e0c490;fill-opacity:1"
   id="g2127">
			<path
   style="fill:#e0c490;fill-opacity:1"
   id="path2125"
   d="m 102.7,232.1 c 0,-1 0.7,-1.8 1.8,-1.8 1,0 1.8,0.7 1.8,1.8 0,1 -0.8,1.7 -1.8,1.7 -1,0 -1.8,-0.7 -1.8,-1.7 z m 0.6,0 c 0,0.8 0.6,1.2 1.2,1.2 0.6,0 1.2,-0.4 1.2,-1.2 0,-0.8 -0.6,-1.2 -1.2,-1.2 -0.7,0 -1.2,0.4 -1.2,1.2 z"
   class="st1" />
		</g>
		<g
   style="fill:#e0c490;fill-opacity:1"
   id="g2131">
			<path
   style="fill:#e0c490;fill-opacity:1"
   id="path2129"
   d="M 107.6,235.6 H 107 v -5.2 h 0.6 v 0.5 c 0.4,-0.5 0.9,-0.5 1.1,-0.5 1,0 1.6,0.9 1.6,1.8 0,0.9 -0.6,1.7 -1.6,1.7 -0.5,0 -0.9,-0.2 -1.2,-0.6 v 2.3 z m 2.2,-3.5 c 0,-0.8 -0.6,-1.2 -1.1,-1.2 -0.5,0 -1.1,0.4 -1.1,1.2 0,0.7 0.4,1.2 1.1,1.2 0.7,0.1 1.1,-0.5 1.1,-1.2 z"
   class="st1" />
		</g>
		<g
   style="fill:#e0c490;fill-opacity:1"
   id="g2135">
			<path
   style="fill:#e0c490;fill-opacity:1"
   id="path2133"
   d="m 113.3,229.8 c 0,-0.3 0.1,-0.6 0.2,-0.8 0.4,-0.6 0.9,-0.6 1.2,-0.6 1,0 1.5,0.7 1.5,1.4 0,0.4 -0.1,0.9 -0.7,1.2 0.2,0.1 0.8,0.4 0.8,1.3 0,1 -0.7,1.6 -1.6,1.6 -0.6,0 -1.2,-0.2 -1.5,-0.9 -0.1,-0.2 -0.1,-0.4 -0.1,-0.6 h 0.6 c 0,0.2 0.1,0.4 0.2,0.5 0.2,0.3 0.5,0.4 0.8,0.4 0.6,0 1,-0.5 1,-1.1 0,-0.3 -0.1,-0.7 -0.5,-0.9 -0.2,-0.1 -0.4,-0.1 -0.6,-0.1 v -0.5 c 0.2,0 0.4,0 0.6,-0.1 0.2,-0.1 0.4,-0.3 0.4,-0.8 0,-0.5 -0.3,-0.9 -0.9,-0.9 -0.2,0 -0.5,0 -0.7,0.3 -0.1,0.1 -0.2,0.3 -0.2,0.6 z"
   class="st1" />
		</g>
	</g>
	<g
   style="fill:#e0c490;fill-opacity:1"
   id="g2155">
		<g
   style="fill:#e0c490;fill-opacity:1"
   id="g2141">
			<path
   style="fill:#e0c490;fill-opacity:1"
   id="path2139"
   d="m 90.4,248.2 c 0,-1 0.7,-1.8 1.8,-1.8 1,0 1.8,0.7 1.8,1.8 0,1 -0.8,1.7 -1.8,1.7 -1,0 -1.8,-0.7 -1.8,-1.7 z m 0.6,0 c 0,0.8 0.6,1.2 1.2,1.2 0.6,0 1.2,-0.4 1.2,-1.2 0,-0.8 -0.6,-1.2 -1.2,-1.2 -0.6,0 -1.2,0.4 -1.2,1.2 z"
   class="st1" />
		</g>
		<g
   style="fill:#e0c490;fill-opacity:1"
   id="g2145">
			<path
   style="fill:#e0c490;fill-opacity:1"
   id="path2143"
   d="m 95.4,251.7 h -0.6 v -5.2 h 0.6 v 0.5 c 0.4,-0.5 0.9,-0.5 1.1,-0.5 1,0 1.6,0.9 1.6,1.8 0,0.9 -0.6,1.7 -1.6,1.7 -0.5,0 -0.9,-0.2 -1.2,-0.6 v 2.3 z m 2.2,-3.5 c 0,-0.8 -0.6,-1.2 -1.1,-1.2 -0.5,0 -1.1,0.4 -1.1,1.2 0,0.7 0.4,1.2 1.1,1.2 0.7,0 1.1,-0.5 1.1,-1.2 z"
   class="st1" />
		</g>
		<g
   style="fill:#e0c490;fill-opacity:1"
   id="g2149">
			<path
   style="fill:#e0c490;fill-opacity:1"
   id="path2147"
   d="m 102,249 c -0.1,0.2 -0.2,0.4 -0.4,0.5 -0.3,0.3 -0.7,0.4 -1.1,0.4 -0.8,0 -1.6,-0.5 -1.6,-1.7 0,-1 0.6,-1.8 1.6,-1.8 0.6,0 1.1,0.3 1.3,0.6 0.2,0.3 0.3,0.8 0.3,1.2 h -2.6 c 0,0.7 0.5,1.1 1.1,1.1 0.3,0 0.5,-0.1 0.7,-0.2 0.2,-0.1 0.3,-0.3 0.3,-0.5 z m -0.6,-1.2 c -0.1,-0.5 -0.5,-0.9 -1,-0.9 -0.5,0 -0.9,0.4 -1,0.9 z"
   class="st1" />
		</g>
		<g
   style="fill:#e0c490;fill-opacity:1"
   id="g2153">
			<path
   style="fill:#e0c490;fill-opacity:1"
   id="path2151"
   d="m 102.9,246.5 h 0.6 v 0.4 c 0.1,-0.1 0.4,-0.5 1,-0.5 0.4,0 0.8,0.2 1,0.5 0.2,0.2 0.2,0.5 0.2,0.9 v 2.1 H 105 v -2 c 0,-0.2 0,-0.4 -0.2,-0.6 -0.1,-0.1 -0.3,-0.2 -0.5,-0.2 -0.2,0 -0.4,0.1 -0.6,0.3 -0.2,0.3 -0.2,0.7 -0.2,0.9 v 1.7 h -0.6 z"
   class="st1" />
		</g>
	</g>
	<g
   style="fill:#e0c490;fill-opacity:1"
   id="g2161">
		<g
   style="fill:#e0c490;fill-opacity:1"
   id="g2159">
			<path
   style="fill:#e0c490;fill-opacity:1"
   id="path2157"
   d="m 119.8,62.9 c 0.5,0 1.1,0 1.6,0.4 0.4,0.3 0.7,0.8 0.7,1.5 0,1 -0.7,1.8 -1.7,1.8 l 2.1,3 h -0.9 l -2,-2.9 h -0.2 v 2.9 h -0.7 v -6.7 z m -0.3,3.1 h 0.5 c 0.9,0 1.5,-0.4 1.5,-1.2 0,-0.4 -0.1,-0.7 -0.5,-1 -0.3,-0.2 -0.6,-0.2 -1,-0.2 h -0.4 V 66 Z"
   class="st1" />
		</g>
	</g>
	<g
   style="fill:#e0c490;fill-opacity:1"
   id="g2167">
		<g
   style="fill:#e0c490;fill-opacity:1"
   id="g2165">
			<path
   style="fill:#e0c490;fill-opacity:1"
   id="path2163"
   d="m 155.7,64.6 c 0,-0.4 0.1,-0.7 0.3,-1 0.4,-0.7 1.1,-0.8 1.5,-0.8 1.3,0 1.9,0.9 1.9,1.8 0,0.5 -0.2,1.1 -0.9,1.5 0.2,0.1 1,0.5 1,1.6 0,1.2 -0.9,2 -2,2 -0.7,0 -1.5,-0.3 -1.9,-1.1 -0.1,-0.2 -0.1,-0.5 -0.2,-0.7 h 0.7 c 0,0.2 0.1,0.5 0.2,0.7 0.2,0.3 0.6,0.5 1,0.5 0.7,0 1.3,-0.6 1.3,-1.3 0,-0.4 -0.2,-0.9 -0.7,-1.1 -0.2,-0.1 -0.5,-0.1 -0.8,-0.1 v -0.7 c 0.3,0 0.5,0 0.8,-0.1 0.3,-0.1 0.6,-0.4 0.6,-1 0,-0.6 -0.3,-1.1 -1.1,-1.1 -0.3,0 -0.6,0 -0.9,0.4 -0.1,0.2 -0.2,0.4 -0.3,0.7 h -0.5 z"
   class="st1" />
		</g>
	</g>
	<g
   style="fill:#e0c490;fill-opacity:1"
   id="g2173">
		<g
   style="fill:#e0c490;fill-opacity:1"
   id="g2171">
			<path
   style="fill:#e0c490;fill-opacity:1"
   id="path2169"
   d="m 231.9,63.6 h -3.6 v -0.7 h 4.9 l -4.5,6.8 -0.6,-0.4 z"
   class="st1" />
		</g>
	</g>
	<g
   style="fill:#e0c490;fill-opacity:1"
   id="g2179">
		<g
   style="fill:#e0c490;fill-opacity:1"
   id="g2177">
			<path
   style="fill:#e0c490;fill-opacity:1"
   id="path2175"
   d="m 195.3,63.6 h -2.1 l -0.4,1.4 c 0.1,0 0.3,0 0.4,0 1.3,0 2.2,1 2.2,2.3 0,1.5 -1.1,2.4 -2.4,2.4 -0.5,0 -1,-0.1 -1.5,-0.5 -0.2,-0.2 -0.4,-0.4 -0.6,-0.7 l 0.6,-0.4 c 0.1,0.2 0.2,0.4 0.4,0.5 0.3,0.2 0.6,0.4 1.1,0.4 0.9,0 1.6,-0.8 1.6,-1.7 0,-1 -0.7,-1.6 -1.6,-1.6 -0.2,0 -0.7,0 -1.3,0.5 l 1,-3.2 h 2.6 z"
   class="st1" />
		</g>
	</g>
	<g
   style="fill:#e0c490;fill-opacity:1"
   id="g2197">
		<g
   style="fill:#e0c490;fill-opacity:1"
   id="g2183">
			<path
   style="fill:#e0c490;fill-opacity:1"
   id="path2181"
   d="m 237.6,105.3 h 2.8 v 0.2 c 0,0.7 -0.2,1.5 -0.6,2.1 -0.2,0.3 -0.9,1.2 -2.5,1.2 -2,0 -3.5,-1.5 -3.5,-3.4 0,-1.9 1.5,-3.4 3.5,-3.4 0.6,0 1.4,0.2 2,0.7 0.3,0.2 0.6,0.5 0.8,0.8 l -0.5,0.5 c -0.2,-0.3 -0.4,-0.5 -0.6,-0.7 -0.3,-0.3 -0.8,-0.6 -1.6,-0.6 -1.6,0 -2.7,1.2 -2.7,2.8 0,1.8 1.4,2.7 2.7,2.7 0.9,0 1.7,-0.4 2,-1.1 0.1,-0.2 0.2,-0.5 0.3,-0.9 h -2 v -0.9 z"
   class="st1" />
		</g>
		<g
   style="fill:#e0c490;fill-opacity:1"
   id="g2187">
			<path
   style="fill:#e0c490;fill-opacity:1"
   id="path2185"
   d="m 245.4,106.8 h -2.8 l -0.8,1.9 H 241 l 3.1,-7 3,7 h -0.8 z m -0.3,-0.7 -1.1,-2.7 -1.1,2.7 z"
   class="st1" />
		</g>
		<g
   style="fill:#e0c490;fill-opacity:1"
   id="g2191">
			<path
   style="fill:#e0c490;fill-opacity:1"
   id="path2189"
   d="m 249.1,102.7 v 6 h -0.7 v -6 h -1.6 V 102 h 4 v 0.7 z"
   class="st1" />
		</g>
		<g
   style="fill:#e0c490;fill-opacity:1"
   id="g2195">
			<path
   style="fill:#e0c490;fill-opacity:1"
   id="path2193"
   d="m 255.2,102.7 h -2.7 v 2 h 2.6 v 0.7 h -2.6 v 2.6 h 2.7 v 0.7 h -3.5 V 102 h 3.5 z"
   class="st1" />
		</g>
	</g>
	<g
   style="fill:#e0c490;fill-opacity:1"
   id="g2215">
		<g
   style="fill:#e0c490;fill-opacity:1"
   id="g2201">
			<path
   style="fill:#e0c490;fill-opacity:1"
   id="path2199"
   d="m 140,103.2 c -0.1,-0.2 -0.2,-0.4 -0.4,-0.5 -0.1,-0.1 -0.4,-0.2 -0.8,-0.2 -0.7,0 -1.1,0.4 -1.1,1 0,0.3 0.1,0.4 0.2,0.6 0.2,0.2 0.4,0.3 0.7,0.4 l 0.6,0.3 c 0.4,0.2 0.8,0.4 1,0.6 0.3,0.3 0.5,0.7 0.5,1.2 0,1.2 -0.9,2 -2.1,2 -0.4,0 -1,-0.1 -1.4,-0.5 -0.3,-0.3 -0.5,-0.8 -0.6,-1.2 l 0.7,-0.2 c 0,0.3 0.2,0.6 0.4,0.8 0.3,0.3 0.6,0.4 1,0.4 0.9,0 1.3,-0.6 1.3,-1.3 0,-0.3 -0.1,-0.6 -0.3,-0.8 -0.2,-0.2 -0.4,-0.3 -0.8,-0.5 l -0.6,-0.3 c -0.3,-0.1 -0.6,-0.3 -0.9,-0.5 -0.3,-0.3 -0.5,-0.6 -0.5,-1.1 0,-1 0.8,-1.7 1.9,-1.7 0.4,0 0.7,0.1 1.1,0.3 0.3,0.2 0.5,0.4 0.6,0.7 z"
   class="st1" />
		</g>
		<g
   style="fill:#e0c490;fill-opacity:1"
   id="g2205">
			<path
   style="fill:#e0c490;fill-opacity:1"
   id="path2203"
   d="m 142.9,101.9 v 6 h 1.8 v 0.7 h -2.6 v -6.7 z"
   class="st1" />
		</g>
		<g
   style="fill:#e0c490;fill-opacity:1"
   id="g2209">
			<path
   style="fill:#e0c490;fill-opacity:1"
   id="path2207"
   d="m 149.2,102.6 h -2.7 v 2 h 2.6 v 0.7 h -2.6 v 2.6 h 2.7 v 0.7 h -3.5 v -6.7 h 3.5 z"
   class="st1" />
		</g>
		<g
   style="fill:#e0c490;fill-opacity:1"
   id="g2213">
			<path
   style="fill:#e0c490;fill-opacity:1"
   id="path2211"
   d="m 150.6,101.9 1.8,5 2.1,-5.3 2,5.3 1.9,-5 h 0.8 l -2.8,7 -2,-5.3 -2.1,5.3 -2.6,-7 z"
   class="st1" />
		</g>
	</g>
	<g
   style="fill:#e0c490;fill-opacity:1"
   id="g2253">
		<g
   style="fill:#e0c490;fill-opacity:1"
   id="g2219">
			<path
   style="fill:#e0c490;fill-opacity:1"
   id="path2217"
   d="m 80.2,339.3 h 1.7 v 8.6 c 0.3,-0.4 1.2,-1.4 2.8,-1.4 1.2,0 2.2,0.5 2.8,1.4 0.5,0.7 0.6,1.5 0.6,2.6 v 6.1 h -1.7 v -6.1 c 0,-0.6 0,-1.3 -0.5,-1.8 -0.3,-0.4 -0.9,-0.7 -1.6,-0.7 -0.6,0 -1.2,0.2 -1.7,0.8 -0.7,0.8 -0.7,2 -0.7,2.7 v 5.2 h -1.7 z"
   class="st1" />
		</g>
		<g
   style="fill:#e0c490;fill-opacity:1"
   id="g2223">
			<path
   style="fill:#e0c490;fill-opacity:1"
   id="path2221"
   d="m 98.9,346.8 h 1.7 v 9.9 h -1.7 v -1.4 c -0.6,0.7 -1.6,1.7 -3.4,1.7 -2.5,0 -4.8,-1.8 -4.8,-5.2 0,-3.4 2.3,-5.2 4.8,-5.2 1.9,0 2.9,1 3.4,1.6 z m -6.4,4.9 c 0,2.1 1.2,3.7 3.2,3.7 2.1,0 3.3,-1.7 3.3,-3.7 0,-2.5 -1.8,-3.7 -3.3,-3.7 -1.7,0.1 -3.2,1.3 -3.2,3.7 z"
   class="st1" />
		</g>
		<g
   style="fill:#e0c490;fill-opacity:1"
   id="g2227">
			<path
   style="fill:#e0c490;fill-opacity:1"
   id="path2225"
   d="m 103.9,346.8 h 1.7 v 1.1 c 0.2,-0.3 0.9,-1.3 2.2,-1.3 0.5,0 1.1,0.2 1.5,0.4 l -0.8,1.5 c -0.4,-0.3 -0.7,-0.3 -1,-0.3 -0.7,0 -1.1,0.3 -1.4,0.6 -0.3,0.4 -0.6,1 -0.6,2.7 v 5.2 h -1.7 v -9.9 z"
   class="st1" />
		</g>
		<g
   style="fill:#e0c490;fill-opacity:1"
   id="g2231">
			<path
   style="fill:#e0c490;fill-opacity:1"
   id="path2229"
   d="m 110.9,346.8 h 1.7 v 1 c 0.5,-0.8 1.4,-1.3 2.5,-1.3 1.8,0 2.5,1.3 2.7,1.6 1,-1.5 2.3,-1.6 3,-1.6 2.9,0 3.2,2.5 3.2,3.9 v 6.3 h -1.7 v -6 c 0,-1.1 -0.1,-2.6 -1.8,-2.6 -2,0 -2.2,1.9 -2.2,3.1 v 5.5 h -1.7 v -5.9 c 0,-0.7 0,-2.7 -1.8,-2.7 -2,0 -2.2,2 -2.2,3.2 v 5.4 h -1.7 z"
   class="st1" />
		</g>
		<g
   style="fill:#e0c490;fill-opacity:1"
   id="g2235">
			<path
   style="fill:#e0c490;fill-opacity:1"
   id="path2233"
   d="m 126.6,351.8 c 0,-3 2.2,-5.2 5.2,-5.2 3,0 5.2,2.2 5.2,5.2 0,3 -2.2,5.2 -5.2,5.2 -3,0 -5.2,-2.2 -5.2,-5.2 z m 1.8,0 c 0,2.4 1.7,3.7 3.5,3.7 1.8,0 3.5,-1.3 3.5,-3.7 0,-2.4 -1.7,-3.7 -3.5,-3.7 -1.9,0 -3.5,1.3 -3.5,3.7 z"
   class="st1" />
		</g>
		<g
   style="fill:#e0c490;fill-opacity:1"
   id="g2239">
			<path
   style="fill:#e0c490;fill-opacity:1"
   id="path2237"
   d="m 139.7,346.8 h 1.7 v 1.1 c 0.3,-0.4 1.2,-1.4 2.8,-1.4 1.2,0 2.2,0.5 2.8,1.4 0.5,0.7 0.6,1.5 0.6,2.6 v 6.1 h -1.7 v -6.1 c 0,-0.6 0,-1.3 -0.5,-1.8 -0.3,-0.4 -0.9,-0.7 -1.6,-0.7 -0.6,0 -1.2,0.2 -1.7,0.8 -0.7,0.8 -0.7,2 -0.7,2.7 v 5.2 h -1.7 z"
   class="st1" />
		</g>
		<g
   style="fill:#e0c490;fill-opacity:1"
   id="g2243">
			<path
   style="fill:#e0c490;fill-opacity:1"
   id="path2241"
   d="m 158.4,346.8 h 1.7 v 9.9 h -1.7 v -1.4 c -0.6,0.7 -1.6,1.7 -3.4,1.7 -2.5,0 -4.8,-1.8 -4.8,-5.2 0,-3.4 2.3,-5.2 4.8,-5.2 1.9,0 2.9,1 3.4,1.6 z m -6.4,-5.2 1.8,-0.8 2.5,3.5 -1,0.6 z m 0,10.1 c 0,2.1 1.2,3.7 3.2,3.7 2.1,0 3.3,-1.7 3.3,-3.7 0,-2.5 -1.8,-3.7 -3.3,-3.7 -1.6,0.1 -3.2,1.3 -3.2,3.7 z"
   class="st1" />
		</g>
		<g
   style="fill:#e0c490;fill-opacity:1"
   id="g2247">
			<path
   style="fill:#e0c490;fill-opacity:1"
   id="path2245"
   d="m 164.3,341.9 c 0.7,0 1.2,0.5 1.2,1.2 0,0.7 -0.5,1.2 -1.2,1.2 -0.7,0 -1.2,-0.5 -1.2,-1.2 -0.1,-0.7 0.5,-1.2 1.2,-1.2 z m 0.8,4.9 v 9.9 h -1.7 v -9.9 z"
   class="st1" />
		</g>
		<g
   style="fill:#e0c490;fill-opacity:1"
   id="g2251">
			<path
   style="fill:#e0c490;fill-opacity:1"
   id="path2249"
   d="m 175.9,346.8 h 1.7 v 9.6 c 0,1.1 0,2.6 -1,3.9 -0.7,1 -2.1,1.8 -4,1.8 -1.7,0 -2.9,-0.7 -3.5,-1.3 -0.7,-0.7 -1.3,-1.7 -1.3,-3.2 h 1.7 c 0,0.8 0.3,1.6 0.8,2 0.7,0.8 1.6,1 2.4,1 1.2,0 2,-0.4 2.6,-1.4 0.5,-0.8 0.5,-1.7 0.5,-2.5 v -1.4 c -0.6,0.7 -1.6,1.7 -3.4,1.7 -1.5,0 -2.6,-0.6 -3.4,-1.3 -0.7,-0.7 -1.4,-1.9 -1.4,-3.9 0,-1.9 0.7,-3.1 1.4,-3.8 0.8,-0.8 2,-1.3 3.4,-1.3 1.5,0 2.6,0.6 3.4,1.6 v -1.5 z m -5.4,2.2 c -0.8,0.9 -1,1.9 -1,2.7 0,0.9 0.2,2 1.1,2.9 0.5,0.5 1.2,0.8 2.1,0.8 0.9,0 1.6,-0.3 2.2,-0.8 0.7,-0.6 1.1,-1.7 1.1,-2.9 0,-1.2 -0.4,-2.2 -1,-2.8 -0.5,-0.5 -1.4,-0.9 -2.2,-0.9 -1.1,0.1 -1.8,0.6 -2.3,1 z"
   class="st1" />
		</g>
	</g>
	<g
   style="fill:#e0c490;fill-opacity:1"
   id="POLYLINE_6_">
		<g
   style="fill:#e0c490;fill-opacity:1"
   id="g2259">
			<g
   style="fill:#e0c490;fill-opacity:1"
   id="g2257">
				<path
   style="fill:#e0c490;fill-opacity:1"
   id="path2255"
   d="m 154.6,87.1 c 0,0.5 0,1 0.1,1.5 h -5.6 V 98 h -3 v -9.5 h -5.7 c 0.1,-0.5 0.1,-1 0.1,-1.5 0,-0.5 0,-1 -0.1,-1.5 h 14.4 c -0.1,0.5 -0.2,1 -0.2,1.6 z"
   class="st1" />
			</g>
		</g>
	</g>
	<g
   style="fill:#e0c490;fill-opacity:1"
   id="POLYLINE_5_">
		<g
   style="fill:#e0c490;fill-opacity:1"
   id="g2266">
			<g
   style="fill:#e0c490;fill-opacity:1"
   id="g2264">
				<path
   style="fill:#e0c490;fill-opacity:1"
   id="path2262"
   d="m 190.6,87.1 c 0,0.5 0,1 0.1,1.5 h -14.4 c 0.1,-0.5 0.1,-1 0.1,-1.5 0,-0.5 0,-1 -0.1,-1.5 h 14.4 c 0,0.4 -0.1,0.9 -0.1,1.5 z"
   class="st1" />
			</g>
		</g>
	</g>
	<g
   style="fill:#e0c490;fill-opacity:1"
   id="POLYLINE_4_">
		<g
   style="fill:#e0c490;fill-opacity:1"
   id="g2273">
			<g
   style="fill:#e0c490;fill-opacity:1"
   id="g2271">
				<path
   style="fill:#e0c490;fill-opacity:1"
   id="path2269"
   d="m 226.6,87.1 c 0,0.5 0,1 0.1,1.5 h -14.4 c 0.1,-0.5 0.1,-1 0.1,-1.5 0,-0.5 0,-1 -0.1,-1.5 h 14.4 c 0,0.4 -0.1,0.9 -0.1,1.5 z"
   class="st1" />
			</g>
		</g>
	</g>
</g>
</svg>
