<?xml version="1.0" encoding="UTF-8" standalone="no"?>
<svg
   xmlns:dc="http://purl.org/dc/elements/1.1/"
   xmlns:cc="http://creativecommons.org/ns#"
   xmlns:rdf="http://www.w3.org/1999/02/22-rdf-syntax-ns#"
   xmlns:svg="http://www.w3.org/2000/svg"
   xmlns="http://www.w3.org/2000/svg"
   xmlns:sodipodi="http://sodipodi.sourceforge.net/DTD/sodipodi-0.dtd"
   xmlns:inkscape="http://www.inkscape.org/namespaces/inkscape"
   inkscape:version="1.0 (4035a4f, 2020-05-01)"
   sodipodi:docname="neoni (inkscape render)v4.svg"
   xml:space="preserve"
   viewBox="0 0 230.39999 485.66932"
   y="0px"
   x="0px"
   id="bg"
   version="1.1"
   width="60.959999mm"
   height="128.5mm"><metadata
   id="metadata1168"><rdf:RDF><cc:Work
       rdf:about=""><dc:format>image/svg+xml</dc:format><dc:type
         rdf:resource="http://purl.org/dc/dcmitype/StillImage" /><dc:title></dc:title></cc:Work></rdf:RDF></metadata><defs
   id="defs1166" /><sodipodi:namedview
   inkscape:current-layer="bg"
   inkscape:window-maximized="0"
   inkscape:window-y="23"
   inkscape:window-x="0"
   inkscape:cy="382.79681"
   inkscape:cx="8.3703022"
   inkscape:zoom="1.9502337"
   showgrid="false"
   id="namedview1164"
   inkscape:window-height="855"
   inkscape:window-width="1440"
   inkscape:pageshadow="2"
   inkscape:pageopacity="0"
   guidetolerance="10"
   gridtolerance="10"
   objecttolerance="10"
   borderopacity="1"
   bordercolor="#666666"
   pagecolor="#ffffff"
   inkscape:document-rotation="0"
   inkscape:document-units="mm"
   units="mm" />
<style
   id="style833"
   type="text/css">
	.st0{fill:#202020;}
	.st1{fill:#E0C490;}
	.st2{fill:#F39322;}
	.st3{fill:#F9EDA7;}
	.st4{fill:none;stroke:#E0C490;stroke-width:3;stroke-miterlimit:10;}
	.st5{fill:none;stroke:#E0C490;stroke-miterlimit:10;}
	.st6{fill:none;stroke:#E0C490;stroke-width:1.1;stroke-miterlimit:10;}
	.st7{fill:none;stroke:#E0C490;stroke-width:0.5;stroke-miterlimit:10;}
	.st8{fill:none;stroke:#E0C590;stroke-miterlimit:10;}
	.st9{fill:none;stroke:#E0C58F;stroke-miterlimit:10;}
	.st10{fill:none;stroke:#E0C590;stroke-width:0.75;stroke-miterlimit:10;}
	.st11{fill:none;stroke:#E0C490;stroke-width:0.6;stroke-miterlimit:10;}
	.st12{fill:none;stroke:#E1C48F;stroke-width:0.7;stroke-miterlimit:10;}
	.st13{fill:#E1C48F;}
</style>
<rect
   style="fill:#202020;fill-opacity:1;stroke-width:1.33343"
   id="rect835"
   height="485.66928"
   width="230.39999"
   class="st0"
   y="0.1"
   x="-0.1" />
<g
   style="fill:#e0c490;fill-opacity:1"
   id="g839"
   transform="matrix(1.3333333,0,0,1.3335235,0.03333333,-0.03335235)">
	<rect
   style="fill:#e0c490;fill-opacity:1"
   id="rect837"
   height="3"
   width="56"
   class="st1"
   y="344"
   x="0" />
</g>
<g
   style="fill:#e0c490;fill-opacity:1"
   id="g843"
   transform="matrix(1.3333333,0,0,1.3335235,0.03333333,-0.03335235)">
	<rect
   style="fill:#e0c490;fill-opacity:1"
   id="rect841"
   height="3"
   width="56"
   class="st1"
   y="344"
   x="116.7" />
</g>
<g
   style="fill:#e0c490;fill-opacity:0.98823529"
   id="g855"
   transform="matrix(1.3333333,0,0,1.3335235,0.03333333,-0.03335235)">
	<path
   style="fill:#e0c490;fill-opacity:0.98823529"
   id="path845"
   d="m 61.5,348.7 h 1.8 v 1.2 c 0.3,-0.4 1.2,-1.4 2.9,-1.4 1.2,0 2.3,0.5 2.9,1.4 0.5,0.8 0.6,1.6 0.6,2.7 v 6.3 H 68 v -6.3 c 0,-0.6 0,-1.3 -0.5,-1.9 -0.3,-0.4 -0.9,-0.7 -1.7,-0.7 -0.6,0 -1.3,0.2 -1.8,0.8 -0.7,0.8 -0.7,2 -0.7,2.8 v 5.4 h -1.8 z"
   class="st1" />
	<path
   style="fill:#e0c490;fill-opacity:0.98823529"
   id="path847"
   d="m 82.2,356.3 c -0.3,0.6 -0.7,1.2 -1.3,1.7 -0.9,0.8 -2.1,1.3 -3.4,1.3 -2.5,0 -5.1,-1.6 -5.1,-5.4 0,-3.1 1.9,-5.4 5,-5.4 2,0 3.3,1 3.9,1.9 0.6,0.9 1,2.5 1,3.9 h -8 c 0,2.1 1.5,3.5 3.3,3.5 0.8,0 1.5,-0.2 2.1,-0.7 0.5,-0.4 0.8,-0.9 1.1,-1.4 z m -1.8,-3.6 c -0.3,-1.6 -1.5,-2.7 -3,-2.7 -1.5,0 -2.7,1.1 -3,2.7 z"
   class="st1" />
	<path
   style="fill:#e0c490;fill-opacity:0.98823529"
   id="path849"
   d="m 84.3,353.9 c 0,-3.1 2.3,-5.4 5.4,-5.4 3.1,0 5.4,2.3 5.4,5.4 0,3.1 -2.3,5.4 -5.4,5.4 -3,0 -5.4,-2.3 -5.4,-5.4 z m 1.9,0 c 0,2.5 1.8,3.8 3.6,3.8 1.9,0 3.6,-1.3 3.6,-3.8 0,-2.5 -1.7,-3.8 -3.6,-3.8 -1.9,0 -3.6,1.3 -3.6,3.8 z m 6.9,-10.5 -3.3,3.3 -1.1,-0.6 2.6,-3.6 z"
   class="st1" />
	<path
   style="fill:#e0c490;fill-opacity:0.98823529"
   id="path851"
   d="m 97.9,348.7 h 1.8 v 1.2 c 0.3,-0.4 1.2,-1.4 2.9,-1.4 1.2,0 2.3,0.5 2.9,1.4 0.5,0.8 0.6,1.6 0.6,2.7 v 6.3 h -1.8 v -6.3 c 0,-0.6 0,-1.3 -0.5,-1.9 -0.3,-0.4 -0.9,-0.7 -1.7,-0.7 -0.6,0 -1.3,0.2 -1.8,0.8 -0.7,0.8 -0.7,2 -0.7,2.8 v 5.4 h -1.8 v -10.3 z"
   class="st1" />
	<path
   style="fill:#e0c490;fill-opacity:0.98823529"
   id="path853"
   d="m 110.4,343.6 c 0.7,0 1.3,0.6 1.3,1.3 0,0.7 -0.6,1.3 -1.3,1.3 -0.7,0 -1.3,-0.6 -1.3,-1.3 0,-0.7 0.6,-1.3 1.3,-1.3 z m 0.9,5.1 V 359 h -1.8 v -10.2 h 1.8 z"
   class="st1" />
</g>
<g
   id="g867"
   transform="matrix(1.3333333,0,0,1.3335235,0.03333333,-0.03335235)">
	<path
   id="path857"
   d="M 50,20.4 V 3.4 L 62.7,16.7 V 4 h 1.8 V 21.1 L 51.8,7.7 V 20.3 H 50 Z"
   class="st2" />
	<path
   id="path859"
   d="M 76,7.2 C 75.8,6.8 75.4,6.3 75,6 74.7,5.8 74.1,5.4 73.2,5.4 c -1.6,0 -2.7,1 -2.7,2.5 0,0.6 0.2,1 0.6,1.4 0.5,0.5 1.1,0.8 1.7,1 l 1.6,0.7 c 1,0.4 1.8,0.9 2.5,1.5 0.8,0.8 1.2,1.8 1.2,3 0,3 -2.2,5 -5.2,5 -1.1,0 -2.4,-0.2 -3.5,-1.3 -0.8,-0.8 -1.3,-1.9 -1.5,-2.9 l 1.8,-0.5 c 0.1,0.9 0.5,1.6 1,2.1 0.7,0.7 1.5,0.9 2.3,0.9 2.2,0 3.3,-1.6 3.3,-3.2 0,-0.7 -0.2,-1.4 -0.8,-1.9 C 75,13.3 74.4,13 73.5,12.6 L 72,11.9 C 71.4,11.6 70.6,11.3 69.8,10.6 69.1,9.9 68.7,9.2 68.7,7.9 c 0,-2.5 1.9,-4.2 4.6,-4.2 1,0 1.8,0.2 2.6,0.7 0.7,0.4 1.2,1.1 1.6,1.8 z"
   class="st2" />
	<path
   id="path861"
   d="M 84.4,5.7 V 20.3 H 82.6 V 5.7 h -4 V 4 h 9.7 v 1.7 z"
   class="st2" />
	<path
   id="path863"
   d="m 93.4,4 c 1.1,0 2.7,0.1 4,0.9 1,0.6 1.8,1.9 1.8,3.6 0,2.5 -1.6,4.3 -4.1,4.5 l 5.2,7.3 H 98 l -5,-7.1 h -0.5 v 7.1 H 90.7 V 4 Z m -0.8,7.6 h 1.2 c 2.3,0 3.6,-1.1 3.6,-3 C 97.4,7.7 97.1,6.8 96.1,6.2 95.4,5.8 94.5,5.7 93.8,5.7 h -1.1 v 5.9 z"
   class="st2" />
	<path
   id="path865"
   d="m 104.9,14 c 0,1.4 0,2.9 1.3,4 0.7,0.6 1.8,0.9 2.7,0.9 0.9,0 2,-0.4 2.7,-0.9 1.3,-1.1 1.3,-2.6 1.3,-4 V 4 h 1.8 v 10.5 c 0,1.4 -0.1,2.7 -1,3.9 -1,1.3 -2.7,2.2 -4.8,2.2 -2.1,0 -3.8,-0.9 -4.8,-2.2 -0.9,-1.2 -1,-2.5 -1,-3.9 V 4 h 1.8 z"
   class="st2" />
</g>
<path
   id="path869"
   d="m 164.03333,10.501483 c -4.93333,0 -8.53333,3.733866 -8.53333,8.801255 0,5.06739 3.6,8.801256 8.53333,8.801256 4.93333,0 8.53333,-3.733866 8.53333,-8.801256 0,-5.067389 -3.6,-8.801255 -8.53333,-8.801255 z m 0,14.935463 c -2.93333,0 -5.73333,-2.133637 -5.73333,-6.134208 0,-4.00057 2.66666,-6.26756 5.73333,-6.26756 2.93333,0 5.73333,2.133637 5.73333,6.26756 0,4.000571 -2.8,6.134208 -5.73333,6.134208 z"
   class="st2"
   style="stroke-width:1.33343" />
<rect
   id="rect871"
   height="2.4003422"
   width="17.333334"
   class="st2"
   y="5.1673894"
   x="155.5"
   style="stroke-width:1.33343" />
<polygon
   id="polygon873"
   points="43.3,3.8 46.1,3.8 45.4,6.4 45.4,17.8 46.1,20.3 43.3,20.3 44,17.8 44,6.4 "
   class="st2"
   transform="matrix(1.3333333,0,0,1.3335235,0.03333333,-0.03335235)" />
<g
   id="g885"
   transform="matrix(1.3333333,0,0,1.3335235,0.03333333,-0.03335235)">
	<path
   id="path875"
   d="M 50,20.4 V 3.4 L 62.7,16.7 V 4 h 1.8 V 21.1 L 51.8,7.7 V 20.3 H 50 Z"
   class="st3" />
	<path
   id="path877"
   d="M 76,7.2 C 75.8,6.8 75.4,6.3 75,6 74.7,5.8 74.1,5.4 73.2,5.4 c -1.6,0 -2.7,1 -2.7,2.5 0,0.6 0.2,1 0.6,1.4 0.5,0.5 1.1,0.8 1.7,1 l 1.6,0.7 c 1,0.4 1.8,0.9 2.5,1.5 0.8,0.8 1.2,1.8 1.2,3 0,3 -2.2,5 -5.2,5 -1.1,0 -2.4,-0.2 -3.5,-1.3 -0.8,-0.8 -1.3,-1.9 -1.5,-2.9 l 1.8,-0.5 c 0.1,0.9 0.5,1.6 1,2.1 0.7,0.7 1.5,0.9 2.3,0.9 2.2,0 3.3,-1.6 3.3,-3.2 0,-0.7 -0.2,-1.4 -0.8,-1.9 C 75,13.3 74.4,13 73.5,12.6 L 72,11.9 C 71.4,11.6 70.6,11.3 69.8,10.6 69.1,9.9 68.7,9.2 68.7,7.9 c 0,-2.5 1.9,-4.2 4.6,-4.2 1,0 1.8,0.2 2.6,0.7 0.7,0.4 1.2,1.1 1.6,1.8 z"
   class="st3" />
	<path
   id="path879"
   d="M 84.4,5.7 V 20.3 H 82.6 V 5.7 h -4 V 4 h 9.7 v 1.7 z"
   class="st3" />
	<path
   id="path881"
   d="m 93.4,4 c 1.1,0 2.7,0.1 4,0.9 1,0.6 1.8,1.9 1.8,3.6 0,2.5 -1.6,4.3 -4.1,4.5 l 5.2,7.3 H 98 l -5,-7.1 h -0.5 v 7.1 H 90.7 V 4 Z m -0.8,7.6 h 1.2 c 2.3,0 3.6,-1.1 3.6,-3 C 97.4,7.7 97.1,6.8 96.1,6.2 95.4,5.8 94.5,5.7 93.8,5.7 h -1.1 v 5.9 z"
   class="st3" />
	<path
   id="path883"
   d="m 104.9,14 c 0,1.4 0,2.9 1.3,4 0.7,0.6 1.8,0.9 2.7,0.9 0.9,0 2,-0.4 2.7,-0.9 1.3,-1.1 1.3,-2.6 1.3,-4 V 4 h 1.8 v 10.5 c 0,1.4 -0.1,2.7 -1,3.9 -1,1.3 -2.7,2.2 -4.8,2.2 -2.1,0 -3.8,-0.9 -4.8,-2.2 -0.9,-1.2 -1,-2.5 -1,-3.9 V 4 h 1.8 z"
   class="st3" />
</g>
<path
   id="path887"
   d="m 164.03333,10.501483 c -4.93333,0 -8.53333,3.733866 -8.53333,8.801255 0,5.06739 3.6,8.801256 8.53333,8.801256 4.93333,0 8.53333,-3.733866 8.53333,-8.801256 0,-5.067389 -3.6,-8.801255 -8.53333,-8.801255 z m 0,14.935463 c -2.93333,0 -5.73333,-2.133637 -5.73333,-6.134208 0,-4.00057 2.66666,-6.26756 5.73333,-6.26756 2.93333,0 5.73333,2.133637 5.73333,6.26756 0,4.000571 -2.8,6.134208 -5.73333,6.134208 z"
   class="st3"
   style="stroke-width:1.33343" />
<rect
   id="rect889"
   height="2.4003422"
   width="17.333334"
   class="st3"
   y="5.1673894"
   x="155.5"
   style="stroke-width:1.33343" />
<polygon
   id="polygon891"
   points="43.3,3.8 46.1,3.8 45.4,6.4 45.4,17.8 46.1,20.3 43.3,20.3 44,17.8 44,6.4 "
   class="st3"
   transform="matrix(1.3333333,0,0,1.3335235,0.03333333,-0.03335235)" />
<g
   style="fill:#e0c490;fill-opacity:1"
   id="g903"
   transform="matrix(1.3333333,0,0,1.3335235,0.03333333,-0.03335235)">
	<path
   style="fill:#e0c490;fill-opacity:1"
   id="path893"
   d="M 50,20.4 V 3.4 L 62.7,16.7 V 4 h 1.8 V 21.1 L 51.8,7.7 V 20.3 H 50 Z"
   class="st1" />
	<path
   style="fill:#e0c490;fill-opacity:1"
   id="path895"
   d="M 76,7.2 C 75.8,6.8 75.4,6.3 75,6 74.7,5.8 74.1,5.4 73.2,5.4 c -1.6,0 -2.7,1 -2.7,2.5 0,0.6 0.2,1 0.6,1.4 0.5,0.5 1.1,0.8 1.7,1 l 1.6,0.7 c 1,0.4 1.8,0.9 2.5,1.5 0.8,0.8 1.2,1.8 1.2,3 0,3 -2.2,5 -5.2,5 -1.1,0 -2.4,-0.2 -3.5,-1.3 -0.8,-0.8 -1.3,-1.9 -1.5,-2.9 l 1.8,-0.5 c 0.1,0.9 0.5,1.6 1,2.1 0.7,0.7 1.5,0.9 2.3,0.9 2.2,0 3.3,-1.6 3.3,-3.2 0,-0.7 -0.2,-1.4 -0.8,-1.9 C 75,13.3 74.4,13 73.5,12.6 L 72,11.9 C 71.4,11.6 70.6,11.3 69.8,10.6 69.1,9.9 68.7,9.2 68.7,7.9 c 0,-2.5 1.9,-4.2 4.6,-4.2 1,0 1.8,0.2 2.6,0.7 0.7,0.4 1.2,1.1 1.6,1.8 z"
   class="st1" />
	<path
   style="fill:#e0c490;fill-opacity:1"
   id="path897"
   d="M 84.4,5.7 V 20.3 H 82.6 V 5.7 h -4 V 4 h 9.7 v 1.7 z"
   class="st1" />
	<path
   style="fill:#e0c490;fill-opacity:1"
   id="path899"
   d="m 93.4,4 c 1.1,0 2.7,0.1 4,0.9 1,0.6 1.8,1.9 1.8,3.6 0,2.5 -1.6,4.3 -4.1,4.5 l 5.2,7.3 H 98 l -5,-7.1 h -0.5 v 7.1 H 90.7 V 4 Z m -0.8,7.6 h 1.2 c 2.3,0 3.6,-1.1 3.6,-3 C 97.4,7.7 97.1,6.8 96.1,6.2 95.4,5.8 94.5,5.7 93.8,5.7 h -1.1 v 5.9 z"
   class="st1" />
	<path
   style="fill:#e0c490;fill-opacity:1"
   id="path901"
   d="m 104.9,14 c 0,1.4 0,2.9 1.3,4 0.7,0.6 1.8,0.9 2.7,0.9 0.9,0 2,-0.4 2.7,-0.9 1.3,-1.1 1.3,-2.6 1.3,-4 V 4 h 1.8 v 10.5 c 0,1.4 -0.1,2.7 -1,3.9 -1,1.3 -2.7,2.2 -4.8,2.2 -2.1,0 -3.8,-0.9 -4.8,-2.2 -0.9,-1.2 -1,-2.5 -1,-3.9 V 4 h 1.8 z"
   class="st1" />
</g>
<path
   style="fill:#e0c490;fill-opacity:1;stroke-width:1.33343"
   id="path905"
   d="m 164.03333,10.501483 c -4.93333,0 -8.53333,3.733866 -8.53333,8.801255 0,5.06739 3.6,8.801256 8.53333,8.801256 4.93333,0 8.53333,-3.733866 8.53333,-8.801256 0,-5.067389 -3.6,-8.801255 -8.53333,-8.801255 z m 0,14.935463 c -2.93333,0 -5.73333,-2.133637 -5.73333,-6.134208 0,-4.00057 2.66666,-6.26756 5.73333,-6.26756 2.93333,0 5.73333,2.133637 5.73333,6.26756 0,4.000571 -2.8,6.134208 -5.73333,6.134208 z"
   class="st1" />
<rect
   style="fill:#e0c490;fill-opacity:1;stroke-width:1.33343"
   id="rect907"
   height="2.4003422"
   width="17.333334"
   class="st1"
   y="5.1673894"
   x="155.5" />
<polygon
   style="fill:#e0c490;fill-opacity:1"
   id="polygon909"
   points="43.3,3.8 46.1,3.8 45.4,6.4 45.4,17.8 46.1,20.3 43.3,20.3 44,17.8 44,6.4 "
   class="st1"
   transform="matrix(1.3333333,0,0,1.3335235,0.03333333,-0.03335235)" />
<rect
   style="stroke:#e0c490;stroke-opacity:1;fill:none;fill-opacity:1;stroke-width:4.00000013;stroke-miterlimit:10;stroke-dasharray:none"
   id="rect911"
   height="25.737001"
   width="158.79999"
   class="st4"
   y="416.69275"
   x="36.966667" />
<g
   id="g915"
   transform="matrix(1.3333333,0,0,1.3335235,0.03333333,-0.03335235)"
   style="fill:#e0c490;fill-opacity:1">
	<path
   id="path913"
   d="m 34.8,177 c 12,0.8 22.3,-8.4 23.1,-20.3 0.1,-2.1 0,-4.2 -0.5,-6.2 l -0.7,-2.4 c -0.4,-1.7 -0.5,-3.5 -0.4,-5.3 0.5,-7.9 5.9,-14.7 13.5,-16.9 l 4.1,-0.7 C 95.2,120.4 111.1,101.8 112.5,80 114.2,52.7 93.4,29.2 66.2,27.5 39,25.8 15.4,46.6 13.7,73.8 12.9,86.4 17,98.7 25.1,108.5 l 0.7,0.8 c 6.2,7.7 5.7,12.4 5.6,14.4 v 0.1 c -0.5,5.3 -0.7,7.1 -9.5,15.3 -4.4,3.8 -7,9.1 -7.3,15 -0.9,11.7 8.2,22.1 20.2,22.9 z M 35,173.9 C 24.7,173.3 16.8,164.3 17.5,154 c 0.3,-5 2.6,-9.6 6.3,-12.9 9.3,-8.6 9.9,-11 10.5,-17.2 v -0.1 c 0.2,-2.2 0.8,-7.9 -6.3,-16.6 l -0.7,-0.8 C 19.7,97.2 15.9,85.6 16.6,73.8 18.2,48.2 40.3,28.7 65.9,30.3 91.5,31.9 111,54 109.4,79.6 108.1,100.1 93.3,117.5 73.3,122 l -4.3,0.8 c -8.9,2.6 -15.2,10.5 -15.8,19.6 -0.1,2.1 0,4.2 0.5,6.2 l 0.7,2.5 c 0.4,1.7 0.5,3.5 0.4,5.3 -0.6,10.3 -9.5,18.2 -19.8,17.5 z"
   class="st1"
   style="fill:#e0c490;fill-opacity:1" />
</g>
<g
   id="g919"
   transform="matrix(1.3333333,0,0,1.3335235,0.03333333,-0.03335235)"
   style="fill:#e0c490;fill-opacity:1">
	<path
   id="path917"
   d="m 62.8,191.6 c -8.7,0 -16.6,5.2 -20,13.3 l -0.9,2.6 c -2.2,5 -7.3,8.2 -12.8,8.2 -1.1,0 -2.2,-0.1 -3.3,-0.4 l -2.1,-0.7 c -1.4,-0.3 -2.7,-0.5 -4.1,-0.5 -9.4,0 -17.1,7.7 -17.1,17.1 0,9.4 7.7,17.1 17.1,17.1 6,0 11.5,-3.1 14.6,-8.2 l 1.2,-2.3 c 2.5,-4.2 7,-6.7 12,-6.7 1.6,0 3.2,0.3 4.6,0.8 l 2.9,1.4 c 2.5,1 5.2,1.5 7.9,1.5 11.9,0 21.6,-9.7 21.6,-21.6 0.1,-11.9 -9.6,-21.6 -21.6,-21.6 z m -18,16.9 0.9,-2.6 c 2.9,-6.9 9.6,-11.3 17.2,-11.3 10.3,0 18.6,8.4 18.6,18.6 0,10.2 -8.3,18.6 -18.6,18.6 -2.3,0 -4.6,-0.4 -6.7,-1.2 l -3,-1.4 c -1.9,-0.7 -3.8,-1 -5.8,-1 -6,0 -11.5,3.1 -14.6,8.2 l -1.2,2.3 c -2.5,4.2 -7,6.7 -12,6.7 -7.8,0 -14.1,-6.3 -14.1,-14.1 0,-7.8 6.3,-14.1 14.1,-14.1 1.1,0 2.2,0.1 3.3,0.4 l 2.1,0.7 c 1.4,0.3 2.7,0.5 4.1,0.5 6.8,-0.1 12.9,-4.1 15.7,-10.3 z"
   class="st1"
   style="fill:#e0c490;fill-opacity:1" />
</g>
<line
   id="line921"
   y2="286.94089"
   x2="26.166666"
   y1="274.27243"
   x1="26.300001"
   class="st4"
   style="stroke:#e0c490;stroke-opacity:1;stroke-width:4.00000013;stroke-miterlimit:10;stroke-dasharray:none" />
<polyline
   style="fill:none;fill-opacity:1;stroke:#e0c490;stroke-opacity:1;stroke-width:2.99978622;stroke-miterlimit:10;stroke-dasharray:none"
   id="polyline923"
   points="19.6,256.4 19.6,256.4 19.6,256.4 19.6,250.5 "
   class="st4"
   transform="matrix(1.3333333,0,0,1.3335235,0.03333333,-0.03335235)" />
<g
   id="g1049"
   transform="matrix(1.3333333,0,0,1.3335235,0.03333333,-0.03335235)"
   style="fill:#e0c490;fill-opacity:1">
	<g
   id="g933"
   style="fill:#e0c490;fill-opacity:1">
		<path
   id="path925"
   d="m 105.8,222.2 c -0.1,-0.2 -0.2,-0.3 -0.4,-0.5 -0.1,-0.1 -0.3,-0.2 -0.7,-0.2 -0.6,0 -1,0.4 -1,0.9 0,0.2 0.1,0.4 0.2,0.5 0.2,0.2 0.4,0.3 0.6,0.4 l 0.6,0.3 c 0.4,0.2 0.7,0.3 0.9,0.6 0.3,0.3 0.4,0.7 0.4,1.1 0,1.1 -0.8,1.8 -1.9,1.8 -0.4,0 -0.9,-0.1 -1.3,-0.5 -0.3,-0.3 -0.5,-0.7 -0.6,-1.1 l 0.6,-0.2 c 0,0.3 0.2,0.6 0.4,0.8 0.3,0.3 0.6,0.3 0.9,0.3 0.8,0 1.2,-0.6 1.2,-1.2 0,-0.3 -0.1,-0.5 -0.3,-0.7 -0.2,-0.2 -0.4,-0.3 -0.7,-0.4 l -0.5,-0.3 c -0.2,-0.1 -0.5,-0.2 -0.8,-0.5 -0.3,-0.3 -0.4,-0.5 -0.4,-1 0,-0.9 0.7,-1.5 1.7,-1.5 0.4,0 0.7,0.1 1,0.3 0.2,0.2 0.5,0.4 0.6,0.7 z"
   class="st1"
   style="fill:#e0c490;fill-opacity:1" />
		<path
   id="path927"
   d="m 108.8,224.4 -2,-3.4 h 0.8 l 1.5,2.7 1.5,-2.7 h 0.8 l -2,3.4 v 2.6 h -0.7 v -2.6 z"
   class="st1"
   style="fill:#e0c490;fill-opacity:1" />
		<path
   id="path929"
   d="m 112.3,227 v -6.3 l 4.7,4.9 V 221 h 0.7 v 6.3 l -4.7,-4.9 v 4.6 z"
   class="st1"
   style="fill:#e0c490;fill-opacity:1" />
		<path
   id="path931"
   d="m 123.8,222.3 c -0.2,-0.2 -0.5,-0.4 -0.8,-0.6 -0.3,-0.1 -0.7,-0.2 -1,-0.2 -1.4,0 -2.4,1.1 -2.4,2.5 0,1.6 1.3,2.4 2.4,2.4 0.4,0 0.8,-0.1 1.1,-0.3 0.3,-0.2 0.6,-0.4 0.7,-0.5 v 0.8 c -0.7,0.5 -1.4,0.6 -1.8,0.6 -1.8,0 -3.1,-1.4 -3.1,-3.1 0,-1.8 1.3,-3.1 3.1,-3.1 0.4,0 1.1,0 1.8,0.6 z"
   class="st1"
   style="fill:#e0c490;fill-opacity:1" />
	</g>
	<g
   id="g941"
   style="fill:#e0c490;fill-opacity:1">
		<path
   id="path935"
   d="m 154.2,290.4 c 0,-1.8 1.4,-3.1 3.1,-3.1 1.7,0 3.1,1.3 3.1,3.1 0,1.8 -1.4,3.1 -3.1,3.1 -1.7,0 -3.1,-1.3 -3.1,-3.1 z m 0.7,0 c 0,1.4 1.1,2.5 2.4,2.5 1.3,0 2.4,-1.1 2.4,-2.5 0,-1.4 -1.1,-2.5 -2.4,-2.5 -1.3,0 -2.4,1.1 -2.4,2.5 z"
   class="st1"
   style="fill:#e0c490;fill-opacity:1" />
		<path
   id="path937"
   d="m 162.3,291.1 c 0,0.5 0,1.1 0.5,1.5 0.2,0.2 0.7,0.3 1,0.3 0.3,0 0.7,-0.1 1,-0.3 0.5,-0.4 0.5,-1 0.5,-1.5 v -3.7 h 0.7 v 3.9 c 0,0.5 -0.1,1 -0.4,1.4 -0.4,0.5 -1,0.8 -1.8,0.8 -0.8,0 -1.4,-0.3 -1.8,-0.8 -0.3,-0.5 -0.4,-0.9 -0.4,-1.4 v -3.9 h 0.7 z"
   class="st1"
   style="fill:#e0c490;fill-opacity:1" />
		<path
   id="path939"
   d="m 169,288 v 5.4 h -0.7 V 288 h -1.5 v -0.6 h 3.6 v 0.6 z"
   class="st1"
   style="fill:#e0c490;fill-opacity:1" />
	</g>
	<g
   id="g959"
   style="fill:#e0c490;fill-opacity:1">
		<path
   id="path943"
   d="m 50.3,301.1 1.6,4.5 1.9,-4.8 1.8,4.8 1.8,-4.5 H 58 l -2.5,6.3 -1.8,-4.8 -1.9,4.8 -2.3,-6.3 z"
   class="st1"
   style="fill:#e0c490;fill-opacity:1" />
		<path
   id="path945"
   d="m 61.7,305.4 h -2.6 l -0.7,1.7 h -0.7 l 2.8,-6.3 2.7,6.3 h -0.7 z m -0.3,-0.6 -1,-2.4 -1,2.4 z"
   class="st1"
   style="fill:#e0c490;fill-opacity:1" />
		<path
   id="path947"
   d="m 63.5,301.1 1.7,4.6 1.7,-4.6 h 0.7 l -2.4,6.4 -2.4,-6.4 z"
   class="st1"
   style="fill:#e0c490;fill-opacity:1" />
		<path
   id="path949"
   d="m 71.6,301.7 h -2.4 v 1.8 h 2.4 v 0.6 h -2.4 v 2.3 h 2.4 v 0.6 h -3.1 v -6 h 3.1 z"
   class="st1"
   style="fill:#e0c490;fill-opacity:1" />
		<path
   id="path951"
   d="m 75.6,301.7 h -2.1 v 1.8 h 2 v 0.6 h -2 v 3 h -0.7 v -6 h 2.7 v 0.6 z"
   class="st1"
   style="fill:#e0c490;fill-opacity:1" />
		<path
   id="path953"
   d="m 76.4,304.1 c 0,-1.8 1.4,-3.1 3.1,-3.1 1.7,0 3.1,1.3 3.1,3.1 0,1.8 -1.4,3.1 -3.1,3.1 -1.7,0 -3.1,-1.3 -3.1,-3.1 z m 0.7,0 c 0,1.4 1.1,2.5 2.4,2.5 1.4,0 2.4,-1.1 2.4,-2.5 0,-1.4 -1.1,-2.5 -2.4,-2.5 -1.3,0 -2.4,1.1 -2.4,2.5 z"
   class="st1"
   style="fill:#e0c490;fill-opacity:1" />
		<path
   id="path955"
   d="m 84.6,301.1 v 5.4 h 1.7 v 0.6 H 84 v -6 z"
   class="st1"
   style="fill:#e0c490;fill-opacity:1" />
		<path
   id="path957"
   d="m 87.1,301.1 h 1.2 c 0.6,0 1.5,0.1 2.2,0.7 0.5,0.5 1,1.2 1,2.3 0,1.3 -0.6,1.9 -1.1,2.3 -0.5,0.5 -1.1,0.7 -2.2,0.7 H 87 v -6 z m 0.7,5.3 h 0.6 c 0.5,0 1.1,-0.1 1.7,-0.5 0.5,-0.4 0.8,-1 0.8,-1.8 0,-1.4 -1,-2.4 -2.5,-2.4 h -0.6 z"
   class="st1"
   style="fill:#e0c490;fill-opacity:1" />
	</g>
	<g
   id="g965"
   style="fill:#e0c490;fill-opacity:1">
		<path
   id="path961"
   d="m 135.7,295.6 c -0.2,-0.2 -0.5,-0.4 -0.8,-0.6 -0.3,-0.1 -0.7,-0.2 -1,-0.2 -1.4,0 -2.4,1.1 -2.4,2.5 0,1.6 1.3,2.4 2.4,2.4 0.4,0 0.8,-0.1 1.1,-0.3 0.3,-0.2 0.6,-0.4 0.7,-0.5 v 0.8 c -0.7,0.5 -1.4,0.6 -1.8,0.6 -1.8,0 -3.1,-1.4 -3.1,-3.1 0,-1.8 1.3,-3.1 3.1,-3.1 0.4,0 1.1,0 1.8,0.6 z"
   class="st1"
   style="fill:#e0c490;fill-opacity:1" />
		<path
   id="path963"
   d="m 136.9,294.3 1.7,4.6 1.7,-4.6 h 0.7 l -2.4,6.4 -2.4,-6.4 z"
   class="st1"
   style="fill:#e0c490;fill-opacity:1" />
	</g>
	<g
   id="g971"
   style="fill:#e0c490;fill-opacity:1">
		<path
   id="path967"
   d="M 31.7,188.6 H 33 c 0.6,0 1.5,0.1 2.2,0.7 0.5,0.5 1,1.2 1,2.3 0,1.3 -0.6,1.9 -1.1,2.3 -0.5,0.5 -1.1,0.7 -2.2,0.7 h -1.2 z m 0.7,5.3 H 33 c 0.5,0 1.1,-0.1 1.7,-0.5 0.5,-0.4 0.8,-1 0.8,-1.8 0,-1.4 -1,-2.4 -2.5,-2.4 h -0.6 z"
   class="st1"
   style="fill:#e0c490;fill-opacity:1" />
		<path
   id="path969"
   d="m 42,189.9 c -0.2,-0.2 -0.5,-0.4 -0.8,-0.6 -0.3,-0.1 -0.7,-0.2 -1,-0.2 -1.4,0 -2.4,1.1 -2.4,2.5 0,1.6 1.3,2.4 2.4,2.4 0.4,0 0.8,-0.1 1.1,-0.3 0.3,-0.2 0.6,-0.4 0.7,-0.5 v 0.8 c -0.7,0.5 -1.4,0.6 -1.8,0.6 -1.8,0 -3.1,-1.4 -3.1,-3.1 0,-1.8 1.3,-3.1 3.1,-3.1 0.4,0 1.1,0 1.8,0.6 z"
   class="st1"
   style="fill:#e0c490;fill-opacity:1" />
	</g>
	<g
   id="g985"
   style="fill:#e0c490;fill-opacity:1">
		<path
   id="path973"
   d="M 8.5,26.7 C 8.3,26.5 8,26.3 7.7,26.1 7.4,26 7,25.9 6.7,25.9 c -1.4,0 -2.4,1.1 -2.4,2.5 0,1.6 1.3,2.4 2.4,2.4 0.4,0 0.8,-0.1 1.1,-0.3 0.3,-0.2 0.6,-0.4 0.7,-0.5 v 0.8 c -0.7,0.5 -1.4,0.6 -1.8,0.6 -1.8,0 -3.1,-1.4 -3.1,-3.1 0,-1.8 1.3,-3.1 3.1,-3.1 0.4,0 1.1,0 1.8,0.6 z"
   class="st1"
   style="fill:#e0c490;fill-opacity:1" />
		<path
   id="path975"
   d="m 9.4,28.3 c 0,-1.8 1.4,-3.1 3.1,-3.1 1.7,0 3.1,1.3 3.1,3.1 0,1.8 -1.4,3.1 -3.1,3.1 -1.7,0.1 -3.1,-1.3 -3.1,-3.1 z m 0.7,0 c 0,1.4 1.1,2.5 2.4,2.5 1.4,0 2.4,-1.1 2.4,-2.5 0,-1.4 -1.1,-2.5 -2.4,-2.5 -1.3,0.1 -2.4,1.2 -2.4,2.5 z"
   class="st1"
   style="fill:#e0c490;fill-opacity:1" />
		<path
   id="path977"
   d="m 20,29.7 h -2.6 l -0.7,1.7 H 16 l 2.8,-6.3 2.7,6.3 h -0.7 z m -0.2,-0.7 -1,-2.4 -1,2.4 z"
   class="st1"
   style="fill:#e0c490;fill-opacity:1" />
		<path
   id="path979"
   d="m 23.3,25.3 c 0.4,0 1,0 1.5,0.3 0.4,0.2 0.7,0.7 0.7,1.3 0,0.9 -0.6,1.6 -1.5,1.7 l 1.9,2.7 H 25 L 23.2,28.7 H 23 v 2.6 h -0.7 v -6 z M 23,28.1 h 0.4 c 0.8,0 1.3,-0.4 1.3,-1.1 0,-0.3 -0.1,-0.7 -0.5,-0.9 C 24,26 23.7,26 23.4,26 H 23 Z"
   class="st1"
   style="fill:#e0c490;fill-opacity:1" />
		<path
   id="path981"
   d="M 29.5,26.5 C 29.4,26.3 29.3,26.2 29.1,26 29,25.9 28.8,25.8 28.4,25.8 c -0.6,0 -1,0.4 -1,0.9 0,0.2 0.1,0.4 0.2,0.5 0.2,0.2 0.4,0.3 0.6,0.4 l 0.6,0.3 c 0.4,0.2 0.7,0.3 0.9,0.6 0.3,0.3 0.4,0.7 0.4,1.1 0,1.1 -0.8,1.8 -1.9,1.8 -0.4,0 -0.9,-0.1 -1.3,-0.5 -0.3,-0.3 -0.5,-0.7 -0.6,-1.1 l 0.6,-0.2 c 0,0.3 0.2,0.6 0.4,0.8 0.3,0.3 0.6,0.3 0.9,0.3 0.8,0 1.2,-0.6 1.2,-1.2 0,-0.3 -0.1,-0.5 -0.3,-0.7 -0.2,-0.2 -0.4,-0.3 -0.7,-0.4 L 28,28.3 c -0.2,-0.1 -0.5,-0.2 -0.8,-0.5 -0.3,-0.3 -0.4,-0.5 -0.4,-1 0,-0.9 0.7,-1.5 1.7,-1.5 0.4,0 0.7,0.1 1,0.3 0.2,0.2 0.5,0.4 0.6,0.7 z"
   class="st1"
   style="fill:#e0c490;fill-opacity:1" />
		<path
   id="path983"
   d="m 34.6,26 h -2.4 v 1.8 h 2.4 v 0.6 h -2.4 v 2.3 h 2.4 v 0.6 h -3.1 v -6 h 3.1 z"
   class="st1"
   style="fill:#e0c490;fill-opacity:1" />
	</g>
	<g
   id="g993"
   style="fill:#e0c490;fill-opacity:1">
		<path
   id="path987"
   d="m 114.9,58.5 v 5.4 h 1.7 v 0.6 h -2.3 v -6 z"
   class="st1"
   style="fill:#e0c490;fill-opacity:1" />
		<path
   id="path989"
   d="m 120.2,59.1 h -2.1 v 1.8 h 2 v 0.6 h -2 v 3 h -0.7 v -6 h 2.7 v 0.6 z"
   class="st1"
   style="fill:#e0c490;fill-opacity:1" />
		<path
   id="path991"
   d="m 121.1,61.5 c 0,-1.8 1.4,-3.1 3.1,-3.1 1.7,0 3.1,1.3 3.1,3.1 0,1.8 -1.4,3.1 -3.1,3.1 -1.7,0 -3.1,-1.3 -3.1,-3.1 z m 0.7,0 c 0,1.4 1.1,2.5 2.4,2.5 1.3,0 2.4,-1.1 2.4,-2.5 0,-1.4 -1.1,-2.5 -2.4,-2.5 -1.3,0 -2.4,1.1 -2.4,2.5 z"
   class="st1"
   style="fill:#e0c490;fill-opacity:1" />
	</g>
	<g
   id="g1003"
   style="fill:#e0c490;fill-opacity:1">
		<path
   id="path995"
   d="m 154.2,47.9 v 5.4 h -0.7 V 47.9 H 152 v -0.6 h 3.6 v 0.6 z"
   class="st1"
   style="fill:#e0c490;fill-opacity:1" />
		<path
   id="path997"
   d="m 156.3,52.4 c 0.2,0 0.5,0.2 0.5,0.5 0,0.3 -0.2,0.5 -0.5,0.5 -0.3,0 -0.5,-0.2 -0.5,-0.5 0,-0.3 0.3,-0.5 0.5,-0.5 z"
   class="st1"
   style="fill:#e0c490;fill-opacity:1" />
		<path
   id="path999"
   d="m 160.8,52.6 h 3.2 v 0.6 h -4.3 l 3.3,-5.4 h -2.9 v -0.6 h 4 z"
   class="st1"
   style="fill:#e0c490;fill-opacity:1" />
		<path
   id="path1001"
   d="m 165.3,52.4 c 0.2,0 0.5,0.2 0.5,0.5 0,0.3 -0.2,0.5 -0.5,0.5 -0.3,0 -0.5,-0.2 -0.5,-0.5 0,-0.3 0.3,-0.5 0.5,-0.5 z"
   class="st1"
   style="fill:#e0c490;fill-opacity:1" />
	</g>
	<g
   id="g1007"
   style="fill:#e0c490;fill-opacity:1">
		<path
   id="path1005"
   d="m 159.8,50 h 4 v 0.6 h -4 z"
   class="st1"
   style="fill:#e0c490;fill-opacity:1" />
	</g>
	<g
   id="g1017"
   style="fill:#e0c490;fill-opacity:1">
		<path
   id="path1009"
   d="m 151.6,36.9 v 5.4 h -0.7 v -5.4 h -1.5 v -0.6 h 3.6 v 0.6 z"
   class="st1"
   style="fill:#e0c490;fill-opacity:1" />
		<path
   id="path1011"
   d="m 154.9,36.3 c 0.4,0 1,0 1.5,0.3 0.4,0.2 0.7,0.7 0.7,1.3 0,0.9 -0.6,1.6 -1.5,1.7 l 1.9,2.7 h -0.8 l -1.8,-2.6 h -0.2 v 2.6 H 154 v -6 z m -0.3,2.8 h 0.4 c 0.8,0 1.3,-0.4 1.3,-1.1 0,-0.3 -0.1,-0.7 -0.5,-0.9 -0.3,-0.2 -0.6,-0.2 -0.9,-0.2 h -0.4 v 2.2 z"
   class="st1"
   style="fill:#e0c490;fill-opacity:1" />
		<path
   id="path1013"
   d="m 161.7,40.6 h -2.6 l -0.7,1.7 h -0.7 l 2.8,-6.3 2.7,6.3 h -0.7 z m -0.2,-0.6 -1,-2.4 -1,2.4 z"
   class="st1"
   style="fill:#e0c490;fill-opacity:1" />
		<path
   id="path1015"
   d="m 164,36.3 h 1.2 c 0.6,0 1.5,0.1 2.2,0.7 0.5,0.5 1,1.2 1,2.3 0,1.3 -0.6,1.9 -1.1,2.3 -0.5,0.5 -1.1,0.7 -2.2,0.7 H 164 Z m 0.7,5.3 h 0.6 c 0.5,0 1.1,-0.1 1.7,-0.5 0.5,-0.4 0.8,-1 0.8,-1.8 0,-1.4 -1,-2.4 -2.5,-2.4 h -0.6 z"
   class="st1"
   style="fill:#e0c490;fill-opacity:1" />
	</g>
	<g
   id="g1027"
   style="fill:#e0c490;fill-opacity:1">
		<path
   id="path1019"
   d="m 57.8,173.5 h -2.1 v 1.8 h 2 v 0.6 h -2 v 3 H 55 v -6 h 2.7 v 0.6 z"
   class="st1"
   style="fill:#e0c490;fill-opacity:1" />
		<path
   id="path1021"
   d="m 59.7,172.9 v 6 H 59 v -6 z"
   class="st1"
   style="fill:#e0c490;fill-opacity:1" />
		<path
   id="path1023"
   d="m 61.2,178.9 v -6.3 l 4.7,4.9 v -4.7 h 0.7 v 6.3 l -4.7,-4.9 v 4.6 h -0.7 z"
   class="st1"
   style="fill:#e0c490;fill-opacity:1" />
		<path
   id="path1025"
   d="m 71.2,173.5 h -2.4 v 1.8 h 2.4 v 0.6 h -2.4 v 2.3 h 2.4 v 0.6 h -3.1 v -6 h 3.1 z"
   class="st1"
   style="fill:#e0c490;fill-opacity:1" />
	</g>
	<g
   id="g1033"
   style="fill:#e0c490;fill-opacity:1">
		<path
   id="path1029"
   d="m 44.5,238.4 h -2.1 v 1.8 h 2 v 0.6 h -2 v 3 h -0.7 v -6 h 2.7 v 0.6 z"
   class="st1"
   style="fill:#e0c490;fill-opacity:1" />
		<path
   id="path1031"
   d="m 45.5,243.8 1,-6.3 2.3,5.1 2.3,-5.1 0.9,6.3 h -0.7 l -0.6,-4.2 -2,4.4 -2,-4.4 -0.6,4.2 z"
   class="st1"
   style="fill:#e0c490;fill-opacity:1" />
	</g>
	<g
   id="g1047"
   style="fill:#e0c490;fill-opacity:1">
		<path
   id="path1035"
   d="m 72.7,130 h -1 l 0.4,-0.6 h 1.3 v 6 h -0.7 z"
   class="st1"
   style="fill:#e0c490;fill-opacity:1" />
		<path
   id="path1037"
   d="m 76.2,129.3 1.7,4.6 1.7,-4.6 h 0.7 l -2.4,6.4 -2.4,-6.4 z"
   class="st1"
   style="fill:#e0c490;fill-opacity:1" />
		<path
   id="path1039"
   d="m 85,128.5 0.5,0.3 -4.6,8.3 -0.5,-0.3 z"
   class="st1"
   style="fill:#e0c490;fill-opacity:1" />
		<path
   id="path1041"
   d="m 86.2,132.3 c 0,-1.8 1.4,-3.1 3.1,-3.1 1.7,0 3.1,1.3 3.1,3.1 0,1.8 -1.4,3.1 -3.1,3.1 -1.7,0 -3.1,-1.3 -3.1,-3.1 z m 0.7,0 c 0,1.4 1.1,2.5 2.4,2.5 1.3,0 2.4,-1.1 2.4,-2.5 0,-1.4 -1.1,-2.5 -2.4,-2.5 -1.3,0 -2.4,1.2 -2.4,2.5 z"
   class="st1"
   style="fill:#e0c490;fill-opacity:1" />
		<path
   id="path1043"
   d="m 98.2,130.7 c -0.2,-0.2 -0.5,-0.4 -0.8,-0.6 -0.3,-0.1 -0.7,-0.2 -1,-0.2 -1.4,0 -2.4,1.1 -2.4,2.5 0,1.6 1.3,2.4 2.4,2.4 0.4,0 0.8,-0.1 1.1,-0.3 0.3,-0.2 0.6,-0.4 0.7,-0.5 v 0.8 c -0.7,0.5 -1.4,0.6 -1.8,0.6 -1.8,0 -3.1,-1.4 -3.1,-3.1 0,-1.8 1.3,-3.1 3.1,-3.1 0.4,0 1.1,0 1.8,0.6 z"
   class="st1"
   style="fill:#e0c490;fill-opacity:1" />
		<path
   id="path1045"
   d="m 100.9,130 v 5.4 h -0.7 V 130 h -1.5 v -0.6 h 3.6 v 0.6 z"
   class="st1"
   style="fill:#e0c490;fill-opacity:1" />
	</g>
</g>
<ellipse
   id="circle1051"
   cy="162.25645"
   cx="17.233332"
   class="st5"
   rx="11.466667"
   ry="11.468303"
   style="stroke-width:1.33343;stroke:#e0c490;stroke-opacity:1" />
<ellipse
   id="ellipse1053"
   ry="21.199377"
   rx="21.202082"
   cy="159.50574"
   cx="-175.49773"
   class="st6"
   transform="matrix(0.22977742,-0.97324321,0.97322854,0.22983952,0,0)"
   style="stroke:#e0c490;stroke-opacity:1;fill:none;fill-opacity:1" />
<polyline
   id="polyline1055"
   points="157.9,150.8 170,144 170,151.3 "
   class="st7"
   transform="matrix(1.3333333,0,0,1.3335235,0.03333333,-0.03335235)"
   style="stroke:#e0c490;stroke-opacity:1;fill:none;fill-opacity:1" />
<polyline
   id="polyline1057"
   points="111.7,153.8 122.4,147.8 122.4,154.2 "
   class="st7"
   transform="matrix(1.3333333,0,0,1.3335235,0.03333333,-0.03335235)"
   style="stroke:#e0c490;stroke-opacity:1;fill:none;fill-opacity:1" />
<polyline
   id="polyline1059"
   points="111.7,171.6 122.4,177.5 122.4,171.1 "
   class="st7"
   transform="matrix(1.3333333,0,0,1.3335235,0.03333333,-0.03335235)"
   style="stroke:#e0c490;stroke-opacity:1;fill:none;fill-opacity:1" />
<polyline
   id="polyline1061"
   points="133.7,107.3 133.7,100 124.2,105.2 124.2,100.6 112.1,107.4 "
   class="st7"
   transform="matrix(1.3333333,0,0,1.3335235,0.03333333,-0.03335235)"
   style="stroke:#e0c490;stroke-opacity:1;fill:none;fill-opacity:1" />
<polyline
   style="stroke:#e0c490;stroke-opacity:1;fill:none;fill-opacity:1"
   id="polyline1063"
   points="25.6,285.3 25.6,278 16.2,283.3 16.2,278.7 4.1,285.5 "
   class="st7"
   transform="matrix(1.3333333,0,0,1.3335235,0.03333333,-0.03335235)" />
<g
   id="g1067"
   transform="matrix(1.3333333,0,0,1.3335235,0.03333333,-0.03335235)"
   style="fill:#e0c490;fill-opacity:1">
	<path
   id="path1065"
   d="m 171,245.2 -0.1,0.2 c -0.9,2.2 -1.8,4.5 -3.6,4.5 -1.8,0 -2.7,-2.3 -3.6,-4.5 -0.8,-2.1 -1.6,-4.2 -3.2,-4.2 -1.5,0 -2.4,2.1 -3.2,4.1 v 0.1 h -0.5 l 0.1,-0.2 c 0.9,-2.2 1.8,-4.5 3.6,-4.5 1.8,0 2.7,2.3 3.6,4.5 0.8,2.1 1.6,4.2 3.2,4.2 1.5,0 2.3,-2.1 3.1,-4.2 v -0.1 h 0.6 z"
   class="st1"
   style="fill:#e0c490;fill-opacity:1" />
</g>
<g
   id="g1071"
   transform="matrix(1.3333333,0,0,1.3335235,0.03333333,-0.03335235)"
   style="fill:#e0c490;fill-opacity:1">
	<polygon
   id="polygon1069"
   points="160.6,193.9 167.3,202.5 170.5,198.4 171.1,198.4 167.3,203.3 160.6,194.6 157.4,198.7 156.8,198.7 "
   class="st1"
   style="fill:#e0c490;fill-opacity:1" />
</g>
<g
   id="g1077"
   transform="matrix(1.3333333,0,0,1.3335235,0.03333333,-0.03335235)"
   style="fill:#e0c490;fill-opacity:1">
	<g
   id="g1075"
   style="fill:#e0c490;fill-opacity:1">
		<polygon
   id="polygon1073"
   points="163.7,99.6 157.7,99.6 157.7,108.1 157.2,108.1 157.2,99.2 164.2,99.2 164.2,107.7 170.7,107.7 170.7,108.2 164.2,108.2 163.7,108.2 "
   class="st1"
   style="fill:#e0c490;fill-opacity:1" />
	</g>
</g>
<polyline
   id="polyline1079"
   points="122,162.6 122.1,162.6 131.3,162.6 131.3,162.7 131.3,202.8 124.2,202.8 "
   class="st5"
   transform="matrix(1.3333333,0,0,1.3335235,0.03333333,-0.03335235)"
   style="stroke:#e0c490;stroke-opacity:1;fill:none;fill-opacity:1" />
<path
   id="path1081"
   d="M 148.03333,346.81612 C 141.9,345.08253 136.56666,340.54855 134.3,334.14764 c -2.26667,-6.53427 -1.06667,-13.33523 2.66666,-18.53598"
   class="st8"
   style="stroke-width:1.33343;stroke:#e0c490;stroke-opacity:1;fill:none;fill-opacity:1" />
<path
   id="path1083"
   d="m 139.9,284.80727 c -4.8,-4.26727 -7.46667,-10.66819 -6.66667,-17.46916 0.8,-6.80097 4.93333,-12.40177 10.53333,-15.46888"
   class="st8"
   style="stroke-width:1.33343;stroke:#e0c490;stroke-opacity:1;fill:none;fill-opacity:1" />
<path
   style="stroke:#e0c490;stroke-width:1.33343;stroke-opacity:1;fill:none;fill-opacity:1"
   id="path1085"
   d="m 148.3,365.35209 c -8.66667,2.26699 -15.2,10.13478 -15.2,19.60279 0,4.40063 1.46666,8.53455 3.86666,11.86836"
   class="st8" />
<rect
   id="rect1087"
   height="21.203024"
   width="11.733334"
   class="st9"
   transform="scale(-1)"
   y="-70.248535"
   x="-194.58414"
   style="stroke-width:1.33343;stroke:#e0c490;stroke-opacity:1" />
<rect
   style="stroke:#e0c490;stroke-width:1.33343;stroke-opacity:1"
   id="rect1089"
   height="21.203024"
   width="11.733334"
   class="st9"
   transform="scale(-1)"
   y="-404.79358"
   x="-25.674133" />
<line
   id="line1091"
   y2="59.57515"
   x2="226.16667"
   y1="59.57515"
   x1="194.56665"
   class="st5"
   style="stroke-width:1.33343;stroke:#e0c490;stroke-opacity:1" />
<line
   id="line1093"
   y2="124.11768"
   x2="9.7666664"
   y1="134.11911"
   x1="9.7666664"
   class="st10"
   style="stroke:#e0c490;stroke-opacity:1" />
<line
   id="line1095"
   y2="164.1234"
   x2="173.76666"
   y1="172.79131"
   x1="201.63333"
   class="st4"
   style="stroke:#e0c490;stroke-opacity:1" />
<line
   style="stroke:#e0c490;stroke-width:1.33343;stroke-opacity:1"
   id="line1097"
   y2="365.21872"
   x2="96.566666"
   y1="378.28729"
   x1="134.16666"
   class="st5" />
<path
   id="path1099"
   d="M 19.766666,404.82438"
   class="st5"
   style="stroke-width:1.33343" />
<path
   id="path1101"
   d="M 32.166666,429.76127"
   class="st5"
   style="stroke-width:1.33343" />
<polyline
   style="stroke:#e0c490;stroke-opacity:1;fill:none;fill-opacity:1"
   id="polyline1103"
   points="21.3,295.7 61.3,295.7 63,294 63,280.6 "
   class="st5"
   transform="matrix(1.3333333,0,0,1.3335235,0.03333333,-0.03335235)" />
<polyline
   style="stroke:#e0c490;stroke-opacity:1;fill:none;fill-opacity:1"
   id="polyline1105"
   points="14.8,303.6 14.8,320.5 16.5,322.2 24.4,322.2 "
   class="st5"
   transform="matrix(1.3333333,0,0,1.3335235,0.03333333,-0.03335235)" />
<path
   id="path1107"
   d="m 171.1,149.32129 c 2.13333,2.80039 3.33333,6.13419 3.33333,10.00142 0,7.20102 -4.66667,13.33523 -11.2,15.46887"
   class="st8"
   style="stroke-width:1.33343;stroke:#e0c490;stroke-opacity:1;fill:none;fill-opacity:1" />
<path
   style="fill:#e0c490;fill-opacity:1;stroke-width:1.33343"
   id="path1109"
   d="M 8.4333332,345.61594 2.7,351.35009 l 5.7333332,5.73416 5.7333328,-5.73416 z m -0.4,9.86807 v -6.53426 l -3.0666666,3.06711 -0.5333333,-0.53341 4.3999999,-4.40063 v 6.53426 L 11.766666,350.68333 12.3,351.21674 Z"
   class="st1" />
<path
   id="path1111"
   d="m 136.7,281.20676 c 3.6,5.20074 9.73333,8.6679 16.53333,8.6679 6.8,0 12.93333,-3.46716 16.53333,-8.6679 v 34.53826 c -3.6,-5.20075 -9.73333,-8.6679 -16.53333,-8.6679 -6.8,0 -12.93333,3.46715 -16.53333,8.6679"
   class="st8"
   style="stroke-width:1.33343;stroke:#e0c490;stroke-opacity:1;fill:none;fill-opacity:1" />
<line
   id="line1113"
   y2="254.26958"
   x2="7.6333327"
   y1="247.73532"
   x1="7.6333327"
   class="st11"
   style="stroke:#e0c490;stroke-opacity:1" />
<line
   id="line1115"
   y2="254.26958"
   x2="12.566666"
   y1="254.26958"
   x1="2.8333333"
   class="st11"
   style="stroke:#e0c490;stroke-opacity:1" />
<line
   id="line1117"
   y2="256.53656"
   x2="7.6333327"
   y1="263.20419"
   x1="7.6333327"
   class="st11"
   style="stroke:#e0c490;stroke-opacity:1" />
<line
   id="line1119"
   y2="256.53656"
   x2="2.8333333"
   y1="256.53656"
   x1="12.566666"
   class="st11"
   style="stroke:#e0c490;stroke-opacity:1" />
<path
   id="path1121"
   d="m 15.366666,255.46976 h 2.266667 C 19.9,253.33611 22.966666,252.00259 26.3,252.00259 c 3.333333,0 6.399999,1.33352 8.799999,3.46717 h 2.533334"
   class="st8"
   style="stroke-width:1.33343;stroke:#e0c490;stroke-opacity:1" />
<g
   style="fill:#e0c490;fill-opacity:1;stroke:none"
   id="g1125"
   transform="matrix(1.3333333,0,0,1.3335235,0.03333333,-0.03335235)">
	<path
   style="fill:#e0c490;fill-opacity:1;stroke:none"
   id="path1123"
   d="m 86.7,270.7 c 0,1.7 -0.2,3.4 -0.5,5 l -1,-0.3 c 0.3,-1.5 0.5,-3.1 0.5,-4.7 0,-12.6 -10.2,-22.8 -22.8,-22.8 -12.6,0 -22.8,10.2 -22.8,22.8 0,8 4.3,15.5 11.2,19.6 l -0.5,0.9 c -7.2,-4.3 -11.7,-12.1 -11.7,-20.5 0,-13.1 10.7,-23.8 23.8,-23.8 13.1,0 23.8,10.6 23.8,23.8 z"
   class="st1" />
</g>

<g
   id="g1135"
   transform="matrix(1.3333333,0,0,1.3335235,0.03333333,-0.03335235)"
   style="fill:#e0c490;fill-opacity:1">
	<line
   id="line1129"
   y2="94"
   x2="7.3000002"
   y1="93.300003"
   x1="7.3000002"
   class="st12"
   style="fill:#e0c490;fill-opacity:1" />
	<g
   id="g1133"
   style="fill:#e0c490;fill-opacity:1">
		<path
   id="path1131"
   d="m 7.3,94.2 1.9,1.1 V 95.2 L 8,92.2 C 7.8,91.1 7.5,90.1 7.3,89 7.1,90.1 6.8,91.1 6.6,92.2 l -1.2,3 v 0.1 z"
   class="st13"
   style="fill:#e0c490;fill-opacity:1" />
	</g>
</g>
<path
   id="path1137"
   d="M 9.7666665,123.98433"
   class="st10" />
<path
   id="path1139"
   d="M 10.566666,135.31928"
   class="st10" />
<line
   id="line1141"
   y2="140.38667"
   x2="13.1"
   y1="130.25189"
   x1="13.1"
   class="st10"
   style="stroke:#e0c490;stroke-opacity:1" />
<g
   id="g1149"
   transform="matrix(1.3333333,0,0,1.3335235,0.03333333,-0.03335235)"
   style="fill:#e0c490;fill-opacity:1">
	<line
   id="line1143"
   y2="104.4"
   x2="9.8000002"
   y1="105"
   x1="9.8000002"
   class="st12"
   style="fill:#e0c490;fill-opacity:1" />
	<g
   id="g1147"
   style="fill:#e0c490;fill-opacity:1">
		<path
   id="path1145"
   d="M 9.8,104.1 7.9,103 v 0.1 l 1.2,3 c 0.2,1.1 0.5,2.1 0.7,3.2 0.2,-1.1 0.5,-2.1 0.7,-3.2 l 1.2,-3 V 103 Z"
   class="st13"
   style="fill:#e0c490;fill-opacity:1" />
	</g>
</g>
<path
   id="path1151"
   d="M 13.1,140.38667"
   class="st10" />
<path
   id="path1153"
   d="M 2.0333333,126.51803"
   class="st10" />
<g
   style="fill:#e0c490;fill-opacity:1;stroke:none;stroke-opacity:1"
   id="g1161"
   transform="matrix(1.3333333,0,0,1.3335235,0.03333333,-0.03335235)">
	<line
   style="fill:#e0c490;fill-opacity:1;stroke:none;stroke-opacity:1"
   id="line1155"
   y2="263.5"
   x2="30.299999"
   y1="263.5"
   x1="31.200001"
   class="st12" />
	<g
   style="fill:#e0c490;fill-opacity:1;stroke:none;stroke-opacity:1"
   id="g1159">
		<path
   style="fill:#e0c490;fill-opacity:1;stroke:none;stroke-opacity:1"
   id="path1157"
   d="m 30,263.5 -1.5,2.4 0.1,0.1 4,-1.6 c 1.4,-0.3 2.8,-0.6 4.2,-0.9 -1.4,-0.3 -2.8,-0.6 -4.2,-0.9 l -4,-1.6 h -0.1 z"
   class="st13" />
	</g>
</g>
</svg>
