<?xml version="1.0" encoding="UTF-8" standalone="no"?>
<svg
   xmlns:dc="http://purl.org/dc/elements/1.1/"
   xmlns:cc="http://creativecommons.org/ns#"
   xmlns:rdf="http://www.w3.org/1999/02/22-rdf-syntax-ns#"
   xmlns:svg="http://www.w3.org/2000/svg"
   xmlns="http://www.w3.org/2000/svg"
   xmlns:sodipodi="http://sodipodi.sourceforge.net/DTD/sodipodi-0.dtd"
   xmlns:inkscape="http://www.inkscape.org/namespaces/inkscape"
   inkscape:version="0.92.5 (2060ec1f9f, 2020-04-08)"
   height="2.6500001mm"
   width="5.5999999mm"
   sodipodi:docname="saich_IV.svg"
   id="svg11489"
   version="1.1"
   viewBox="0 0 21.165353 10.015748">
  <metadata
     id="metadata11495">
    <rdf:RDF>
      <cc:Work
         rdf:about="">
        <dc:format>image/svg+xml</dc:format>
        <dc:type
           rdf:resource="http://purl.org/dc/dcmitype/StillImage" />
        <dc:title />
      </cc:Work>
    </rdf:RDF>
  </metadata>
  <defs
     id="defs11493" />
  <sodipodi:namedview
     inkscape:current-layer="svg11489"
     inkscape:window-maximized="0"
     inkscape:window-y="69"
     inkscape:window-x="298"
     inkscape:cy="10.790468"
     inkscape:cx="13.382756"
     inkscape:zoom="30.04039"
     units="mm"
     inkscape:document-units="mm"
     showgrid="false"
     id="namedview11491"
     inkscape:window-height="855"
     inkscape:window-width="1440"
     inkscape:pageshadow="2"
     inkscape:pageopacity="0"
     guidetolerance="10"
     gridtolerance="10"
     objecttolerance="10"
     borderopacity="1"
     bordercolor="#666666"
     pagecolor="#ffffff" />
  <g
     style="fill:#e0c490;fill-opacity:1"
     transform="matrix(1.3333333,0,0,1.3333333,-69.153287,-42.588579)"
     id="COPPER">
    <path
       d="m 56.82,33 a 26.45,26.45 0 0 1 -1.22,5.53 l -1.2,0.33 a 34,34 0 0 0 0.49,-5.33 z"
       style="fill:#e0c490;fill-opacity:1"
       id="path11457"
       inkscape:connector-curvature="0" />
    <path
       d="m 59.45,32.69 a 27.63,27.63 0 0 1 -1.82,5.36 l -1.24,0.19 A 32.77,32.77 0 0 0 57.46,33 Z"
       style="fill:#e0c490;fill-opacity:1"
       id="path11459"
       inkscape:connector-curvature="0" />
    <path
       d="m 62.15,32.8 a 27.45,27.45 0 0 1 -2.49,5.09 h -1.24 a 33,33 0 0 0 1.72,-5.06 z"
       style="fill:#e0c490;fill-opacity:1"
       id="path11461"
       inkscape:connector-curvature="0" />
    <path
       d="m 64.75,33.22 a 27.16,27.16 0 0 1 -3,4.77 l -1.24,-0.11 a 33.84,33.84 0 0 0 2.29,-4.83 z"
       style="fill:#e0c490;fill-opacity:1"
       id="path11463"
       inkscape:connector-curvature="0" />
  </g>
</svg>
