<?xml version="1.0" encoding="UTF-8" standalone="no"?>
<svg
   xmlns:dc="http://purl.org/dc/elements/1.1/"
   xmlns:cc="http://creativecommons.org/ns#"
   xmlns:rdf="http://www.w3.org/1999/02/22-rdf-syntax-ns#"
   xmlns:svg="http://www.w3.org/2000/svg"
   xmlns="http://www.w3.org/2000/svg"
   xmlns:sodipodi="http://sodipodi.sourceforge.net/DTD/sodipodi-0.dtd"
   xmlns:inkscape="http://www.inkscape.org/namespaces/inkscape"
   inkscape:version="0.92.5 (2060ec1f9f, 2020-04-08)"
   height="2.6500001mm"
   width="5.5999999mm"
   sodipodi:docname="saich_III.svg"
   id="svg11489"
   version="1.1"
   viewBox="0 0 21.165353 10.015748">
  <metadata
     id="metadata11495">
    <rdf:RDF>
      <cc:Work
         rdf:about="">
        <dc:format>image/svg+xml</dc:format>
        <dc:type
           rdf:resource="http://purl.org/dc/dcmitype/StillImage" />
        <dc:title />
      </cc:Work>
    </rdf:RDF>
  </metadata>
  <defs
     id="defs11493" />
  <sodipodi:namedview
     inkscape:current-layer="svg11489"
     inkscape:window-maximized="0"
     inkscape:window-y="69"
     inkscape:window-x="298"
     inkscape:cy="11.328222"
     inkscape:cx="9.2599777"
     inkscape:zoom="30.04039"
     units="mm"
     inkscape:document-units="mm"
     showgrid="false"
     id="namedview11491"
     inkscape:window-height="855"
     inkscape:window-width="1440"
     inkscape:pageshadow="2"
     inkscape:pageopacity="0"
     guidetolerance="10"
     gridtolerance="10"
     objecttolerance="10"
     borderopacity="1"
     bordercolor="#666666"
     pagecolor="#ffffff" />
  <g
     style="fill:#e0c490;fill-opacity:1"
     transform="matrix(1.3333333,0,0,1.3333333,-62.429007,-53.939963)"
     id="COPPER">
    <path
       d="M 52.65,41.6 A 27.7,27.7 0 0 1 51.09,47 l -1.22,0.25 A 33,33 0 0 0 50.68,42 Z"
       style="fill:#e0c490;fill-opacity:1"
       id="path11445"
       inkscape:connector-curvature="0" />
    <path
       d="m 55.36,41.4 a 26.89,26.89 0 0 1 -2.15,5.25 L 52,46.76 a 33.22,33.22 0 0 0 1.39,-5.17 z"
       style="fill:#e0c490;fill-opacity:1"
       id="path11447"
       inkscape:connector-curvature="0" />
    <path
       d="m 58.05,41.69 a 27.69,27.69 0 0 1 -2.78,4.93 h -1.25 a 34.72,34.72 0 0 0 2,-4.95 z"
       style="fill:#e0c490;fill-opacity:1"
       id="path11455"
       inkscape:connector-curvature="0" />
  </g>
</svg>
