<?xml version="1.0" encoding="UTF-8" standalone="no"?>
<svg
   xmlns:dc="http://purl.org/dc/elements/1.1/"
   xmlns:cc="http://creativecommons.org/ns#"
   xmlns:rdf="http://www.w3.org/1999/02/22-rdf-syntax-ns#"
   xmlns:svg="http://www.w3.org/2000/svg"
   xmlns="http://www.w3.org/2000/svg"
   xmlns:sodipodi="http://sodipodi.sourceforge.net/DTD/sodipodi-0.dtd"
   xmlns:inkscape="http://www.inkscape.org/namespaces/inkscape"
   width="30.48mm"
   height="128.5mm"
   viewBox="0 0 30.48 128.5"
   version="1.1"
   id="svg2384"
   inkscape:version="1.0 (4035a4f, 2020-05-01)"
   sodipodi:docname="Tsl (inkscape render) V4.svg">
  <defs
     id="defs2378" />
  <sodipodi:namedview
     id="base"
     pagecolor="#ffffff"
     bordercolor="#666666"
     borderopacity="1.0"
     inkscape:pageopacity="0.0"
     inkscape:pageshadow="2"
     inkscape:zoom="1.1832956"
     inkscape:cx="50.402879"
     inkscape:cy="251.0599"
     inkscape:document-units="mm"
     inkscape:current-layer="layer1"
     inkscape:document-rotation="0"
     showgrid="false"
     inkscape:window-width="1252"
     inkscape:window-height="855"
     inkscape:window-x="73"
     inkscape:window-y="23"
     inkscape:window-maximized="0" />
  <metadata
     id="metadata2381">
    <rdf:RDF>
      <cc:Work
         rdf:about="">
        <dc:format>image/svg+xml</dc:format>
        <dc:type
           rdf:resource="http://purl.org/dc/dcmitype/StillImage" />
        <dc:title></dc:title>
      </cc:Work>
    </rdf:RDF>
  </metadata>
  <g
     inkscape:label="Layer 1"
     inkscape:groupmode="layer"
     id="layer1">
    <rect
       style="fill:#202020;stroke-width:0.352803"
       y="0"
       x="0"
       id="rect9575"
       height="128.5"
       width="30.48"
       class="st0" />
    <g
       transform="scale(0.35277777,0.35282812)"
       id="g9597"
       style="fill:#e1c490;fill-opacity:1">
      <g
         id="g9579"
         style="fill:#e1c490;fill-opacity:1">
        <path
           class="st1"
           d="M 36.2,13.3 V 3.4 l 7.4,7.8 V 3.8 h 1.1 v 9.9 L 37.3,6 v 7.3 z"
           id="path9577"
           style="fill:#e1c490;fill-opacity:1" />
      </g>
      <g
         id="g9583"
         style="fill:#e1c490;fill-opacity:1">
        <path
           class="st1"
           d="M 51.4,5.6 C 51.3,5.3 51.1,5.1 50.8,4.9 50.6,4.8 50.3,4.6 49.7,4.6 c -0.9,0 -1.6,0.6 -1.6,1.5 0,0.4 0.1,0.6 0.4,0.8 0.3,0.3 0.6,0.4 1,0.6 l 0.9,0.4 c 0.6,0.2 1.1,0.5 1.5,0.9 0.5,0.5 0.7,1 0.7,1.7 0,1.8 -1.3,2.9 -3,2.9 -0.6,0 -1.4,-0.1 -2.1,-0.8 -0.5,-0.5 -0.8,-1.1 -0.9,-1.7 l 1,-0.3 c 0.1,0.5 0.3,0.9 0.6,1.2 0.4,0.4 0.9,0.5 1.4,0.5 1.3,0 1.9,-0.9 1.9,-1.9 C 51.5,10 51.4,9.6 51,9.3 50.7,9 50.4,8.9 49.9,8.6 L 49,8.4 C 48.6,8.2 48.2,8 47.7,7.6 47.3,7.2 47,6.8 47,6 c 0,-1.5 1.1,-2.4 2.7,-2.4 0.6,0 1.1,0.1 1.5,0.4 0.4,0.3 0.7,0.6 0.9,1.1 z"
           id="path9581"
           style="fill:#e1c490;fill-opacity:1" />
      </g>
      <g
         id="g9587"
         style="fill:#e1c490;fill-opacity:1">
        <path
           class="st1"
           d="m 56.2,4.8 v 8.5 H 55.1 V 4.8 h -2.3 v -1 h 5.7 v 1 z"
           id="path9585"
           style="fill:#e1c490;fill-opacity:1" />
      </g>
      <g
         id="g9591"
         style="fill:#e1c490;fill-opacity:1">
        <path
           class="st1"
           d="m 61.5,3.8 c 0.6,0 1.6,0 2.3,0.5 0.6,0.4 1,1.1 1,2.1 0,1.5 -1,2.5 -2.4,2.6 l 3,4.2 H 64.1 L 61.2,9 H 61 v 4.2 H 59.9 V 3.8 Z M 61,8.2 h 0.7 C 63,8.2 63.8,7.6 63.8,6.5 63.8,6 63.6,5.4 63,5.1 62.6,4.9 62.1,4.8 61.6,4.8 H 61 Z"
           id="path9589"
           style="fill:#e1c490;fill-opacity:1" />
      </g>
      <g
         id="g9595"
         style="fill:#e1c490;fill-opacity:1">
        <path
           class="st1"
           d="m 68.1,9.6 c 0,0.8 0,1.7 0.8,2.3 0.4,0.3 1,0.5 1.6,0.5 0.6,0 1.2,-0.2 1.6,-0.5 0.8,-0.6 0.8,-1.5 0.8,-2.3 V 3.8 H 74 v 6.1 c 0,0.8 -0.1,1.6 -0.6,2.3 -0.6,0.8 -1.6,1.3 -2.8,1.3 -1.2,0 -2.2,-0.5 -2.8,-1.3 -0.5,-0.7 -0.6,-1.5 -0.6,-2.3 V 3.8 h 1.1 v 5.8 z"
           id="path9593"
           style="fill:#e1c490;fill-opacity:1" />
      </g>
    </g>
    <g
       transform="scale(0.35277777,0.35282812)"
       id="g9601"
       style="fill:#e1c490;fill-opacity:1">
      <path
         class="st1"
         d="m 78.7,6.1 c -2.2,0 -3.7,1.6 -3.7,3.8 0,2.2 1.6,3.8 3.7,3.8 2.1,0 3.7,-1.6 3.7,-3.8 0,-2.2 -1.6,-3.8 -3.7,-3.8 z m 0,6.5 c -1.3,0 -2.5,-0.9 -2.5,-2.7 0,-1.8 1.2,-2.7 2.5,-2.7 1.3,0 2.5,0.9 2.5,2.7 -0.1,1.8 -1.3,2.7 -2.5,2.7 z"
         id="path9599"
         style="fill:#e1c490;fill-opacity:1" />
    </g>
    <g
       transform="scale(0.35277777,0.35282812)"
       id="g9605"
       style="fill:#e1c490;fill-opacity:1">
      <rect
         x="74.900002"
         y="3.8"
         class="st1"
         width="7.5999999"
         height="1.1"
         id="rect9603"
         style="fill:#e1c490;fill-opacity:1" />
    </g>
    <g
       transform="scale(0.35277777,0.35282812)"
       id="g9609"
       style="fill:#e1c490;fill-opacity:1">
      <polygon
         class="st1"
         points="34,3.7 33.6,5.2 33.6,11.8 34,13.3 32.4,13.3 32.8,11.8 32.8,5.2 32.4,3.7 "
         id="polygon9607"
         style="fill:#e1c490;fill-opacity:1" />
    </g>
    <g
       transform="scale(0.35277777,0.35282812)"
       id="g9613"
       style="fill:#e1c490;fill-opacity:1">
      <path
         class="st2"
         d="m 53.5,84.9 -2,-0.2 c 0,-0.5 0.1,-1 0.2,-1.6 l 2,0.2 c -0.1,0.5 -0.1,1.1 -0.2,1.6 z"
         id="path9611"
         style="fill:#e1c490;fill-opacity:1" />
    </g>
    <g
       transform="scale(0.35277777,0.35282812)"
       id="g9639"
       style="fill:#e1c490;fill-opacity:1">
      <g
         id="g9617"
         style="fill:#e1c490;fill-opacity:1">
        <path
           class="st1"
           d="m 67.2,24.2 c -0.1,-0.1 -0.3,-0.3 -0.5,-0.4 -0.2,-0.1 -0.5,-0.2 -0.7,-0.2 -0.9,0 -1.6,0.7 -1.6,1.7 0,1.1 0.9,1.6 1.6,1.6 0.3,0 0.5,-0.1 0.7,-0.2 0.2,-0.1 0.4,-0.3 0.5,-0.3 V 27 c -0.4,0.3 -0.9,0.4 -1.2,0.4 -1.2,0 -2.1,-0.9 -2.1,-2.1 0,-1.2 0.9,-2.1 2.1,-2.1 0.2,0 0.7,0 1.2,0.4 z"
           id="path9615"
           style="fill:#e1c490;fill-opacity:1" />
      </g>
      <g
         id="g9621"
         style="fill:#e1c490;fill-opacity:1">
        <path
           class="st1"
           d="m 67.8,25.3 c 0,-1.2 0.9,-2.1 2.1,-2.1 1.2,0 2.1,0.9 2.1,2.1 0,1.2 -0.9,2.1 -2.1,2.1 -1.2,0 -2.1,-0.9 -2.1,-2.1 z m 0.4,0 c 0,0.9 0.7,1.6 1.6,1.6 0.9,0 1.6,-0.7 1.6,-1.6 0,-0.9 -0.7,-1.6 -1.6,-1.6 -0.9,0 -1.6,0.7 -1.6,1.6 z"
           id="path9619"
           style="fill:#e1c490;fill-opacity:1" />
      </g>
      <g
         id="g9625"
         style="fill:#e1c490;fill-opacity:1">
        <path
           class="st1"
           d="m 74.8,26.2 h -1.7 l -0.5,1.1 h -0.5 l 1.8,-4.2 1.8,4.2 H 75.2 Z M 74.7,25.8 74,24.2 73.3,25.8 Z"
           id="path9623"
           style="fill:#e1c490;fill-opacity:1" />
      </g>
      <g
         id="g9629"
         style="fill:#e1c490;fill-opacity:1">
        <path
           class="st1"
           d="m 77,23.3 c 0.3,0 0.7,0 1,0.2 0.2,0.2 0.4,0.5 0.4,0.9 0,0.6 -0.4,1.1 -1,1.1 l 1.3,1.8 H 78.2 L 77,25.5 h -0.1 v 1.8 h -0.4 v -4 z m -0.2,1.9 h 0.3 c 0.6,0 0.9,-0.3 0.9,-0.7 0,-0.2 -0.1,-0.4 -0.3,-0.6 -0.2,-0.1 -0.4,-0.1 -0.6,-0.1 h -0.3 z"
           id="path9627"
           style="fill:#e1c490;fill-opacity:1" />
      </g>
      <g
         id="g9633"
         style="fill:#e1c490;fill-opacity:1">
        <path
           class="st1"
           d="M 81.2,24.1 C 81.1,24 81.1,23.9 81,23.8 c -0.1,-0.1 -0.2,-0.1 -0.5,-0.1 -0.4,0 -0.7,0.2 -0.7,0.6 0,0.2 0,0.2 0.2,0.3 0.1,0.1 0.3,0.2 0.4,0.3 l 0.4,0.2 c 0.2,0.1 0.4,0.2 0.6,0.4 0.2,0.2 0.3,0.4 0.3,0.7 0,0.7 -0.5,1.2 -1.3,1.2 -0.3,0 -0.6,-0.1 -0.9,-0.3 -0.2,-0.2 -0.3,-0.5 -0.4,-0.7 l 0.4,-0.1 c 0,0.2 0.1,0.4 0.2,0.5 0.2,0.2 0.4,0.2 0.6,0.2 0.5,0 0.8,-0.4 0.8,-0.8 0,-0.2 -0.1,-0.3 -0.2,-0.5 -0.1,-0.1 -0.3,-0.2 -0.5,-0.3 L 80,25.2 c -0.2,-0.1 -0.4,-0.2 -0.5,-0.3 -0.2,-0.2 -0.3,-0.4 -0.3,-0.7 0,-0.6 0.5,-1 1.1,-1 0.2,0 0.4,0 0.6,0.2 0.2,0.1 0.3,0.3 0.4,0.4 z"
           id="path9631"
           style="fill:#e1c490;fill-opacity:1" />
      </g>
      <g
         id="g9637"
         style="fill:#e1c490;fill-opacity:1">
        <path
           class="st1"
           d="m 84.5,23.7 h -1.6 v 1.2 h 1.6 v 0.4 h -1.6 v 1.6 h 1.6 v 0.4 h -2.1 v -4 h 2.1 z"
           id="path9635"
           style="fill:#e1c490;fill-opacity:1" />
      </g>
    </g>
    <g
       transform="scale(0.35277777,0.35282812)"
       id="g9671"
       style="fill:#e1c490;fill-opacity:1">
      <g
         id="g9657"
         style="fill:#e1c490;fill-opacity:1">
        <path
           class="st1"
           d="M 74.1,67.8 H 72.7 V 69 H 74 v 0.4 h -1.3 v 2 h -0.4 v -4 h 1.8 z"
           id="path9655"
           style="fill:#e1c490;fill-opacity:1" />
      </g>
      <g
         id="g9661"
         style="fill:#e1c490;fill-opacity:1">
        <path
           class="st1"
           d="m 75.3,67.3 v 4 h -0.4 v -4 z"
           id="path9659"
           style="fill:#e1c490;fill-opacity:1" />
      </g>
      <g
         id="g9665"
         style="fill:#e1c490;fill-opacity:1">
        <path
           class="st1"
           d="m 76.4,71.3 v -4.2 l 3.1,3.3 v -3.1 h 0.4 v 4.2 l -3.1,-3.3 v 3.1 z"
           id="path9663"
           style="fill:#e1c490;fill-opacity:1" />
      </g>
      <g
         id="g9669"
         style="fill:#e1c490;fill-opacity:1">
        <path
           class="st1"
           d="M 83,67.8 H 81.4 V 69 H 83 v 0.4 H 81.4 V 71 H 83 v 0.4 h -2 v -4 h 2 z"
           id="path9667"
           style="fill:#e1c490;fill-opacity:1" />
      </g>
    </g>
    <g
       transform="scale(0.35277777,0.35282812)"
       id="g9697"
       style="fill:#e1c490;fill-opacity:1">
      <g
         id="g9675"
         style="fill:#e1c490;fill-opacity:1">
        <path
           class="st1"
           d="M 3.2,68.5 H 2.6 l 0.2,-0.4 h 0.9 v 4 H 3.2 Z"
           id="path9673"
           style="fill:#e1c490;fill-opacity:1" />
      </g>
      <g
         id="g9679"
         style="fill:#e1c490;fill-opacity:1">
        <path
           class="st1"
           d="m 5.6,68.1 1.1,3.1 1.1,-3.1 H 8.3 L 6.7,72.3 5.1,68.1 Z"
           id="path9677"
           style="fill:#e1c490;fill-opacity:1" />
      </g>
      <g
         id="g9683"
         style="fill:#e1c490;fill-opacity:1">
        <path
           class="st1"
           d="m 11.5,67.5 0.3,0.2 -3.1,5.6 -0.3,-0.2 z"
           id="path9681"
           style="fill:#e1c490;fill-opacity:1" />
      </g>
      <g
         id="g9687"
         style="fill:#e1c490;fill-opacity:1">
        <path
           class="st1"
           d="m 12.2,70.1 c 0,-1.2 0.9,-2.1 2.1,-2.1 1.2,0 2.1,0.9 2.1,2.1 0,1.2 -0.9,2.1 -2.1,2.1 -1.1,0 -2.1,-0.9 -2.1,-2.1 z m 0.5,0 c 0,0.9 0.7,1.6 1.6,1.6 0.9,0 1.6,-0.7 1.6,-1.6 0,-0.9 -0.7,-1.6 -1.6,-1.6 -0.9,-0.1 -1.6,0.7 -1.6,1.6 z"
           id="path9685"
           style="fill:#e1c490;fill-opacity:1" />
      </g>
      <g
         id="g9691"
         style="fill:#e1c490;fill-opacity:1">
        <path
           class="st1"
           d="m 20.3,69 c -0.1,-0.1 -0.3,-0.3 -0.5,-0.4 -0.2,-0.1 -0.5,-0.2 -0.7,-0.2 -0.9,0 -1.6,0.7 -1.6,1.7 0,1.1 0.9,1.6 1.6,1.6 0.3,0 0.5,-0.1 0.7,-0.2 0.2,-0.1 0.4,-0.3 0.5,-0.3 v 0.6 c -0.4,0.3 -0.9,0.4 -1.2,0.4 -1.2,0 -2.1,-0.9 -2.1,-2.1 0,-1.2 0.9,-2.1 2.1,-2.1 0.2,0 0.7,0 1.2,0.4 z"
           id="path9689"
           style="fill:#e1c490;fill-opacity:1" />
      </g>
      <g
         id="g9695"
         style="fill:#e1c490;fill-opacity:1">
        <path
           class="st1"
           d="m 22.1,68.5 v 3.6 h -0.4 v -3.6 h -1 V 68.1 H 23 v 0.4 z"
           id="path9693"
           style="fill:#e1c490;fill-opacity:1" />
      </g>
    </g>
    <g
       transform="scale(0.35277777,0.35282812)"
       id="g9715"
       style="fill:#e1c490;fill-opacity:1">
      <g
         id="g9701"
         style="fill:#e1c490;fill-opacity:1">
        <path
           class="st1"
           d="M 4.2,101.2 C 4.1,101.1 4.1,101 4,100.9 c -0.1,-0.1 -0.2,-0.1 -0.4,-0.1 -0.4,0 -0.7,0.2 -0.7,0.6 0,0.2 0,0.2 0.1,0.3 0.1,0.1 0.3,0.2 0.4,0.3 l 0.4,0.2 c 0.2,0.1 0.4,0.2 0.6,0.4 0.2,0.2 0.3,0.4 0.3,0.7 0,0.7 -0.5,1.2 -1.3,1.2 -0.3,0 -0.6,-0.1 -0.9,-0.3 -0.2,-0.2 -0.3,-0.5 -0.4,-0.7 l 0.4,-0.1 c 0,0.2 0.1,0.4 0.2,0.5 0.2,0.2 0.4,0.2 0.6,0.2 0.5,0 0.8,-0.4 0.8,-0.8 0,-0.2 -0.1,-0.3 -0.2,-0.5 -0.1,-0.1 -0.3,-0.2 -0.5,-0.3 L 3,102.3 c -0.2,-0.1 -0.4,-0.2 -0.5,-0.3 -0.2,-0.2 -0.3,-0.4 -0.3,-0.7 0,-0.6 0.5,-1 1.1,-1 0.2,0 0.4,0 0.6,0.2 0.2,0.1 0.3,0.3 0.4,0.4 z"
           id="path9699"
           style="fill:#e1c490;fill-opacity:1" />
      </g>
      <g
         id="g9705"
         style="fill:#e1c490;fill-opacity:1">
        <path
           class="st1"
           d="m 6.2,102.7 -1.3,-2.3 h 0.5 l 1,1.8 1,-1.8 H 8 l -1.3,2.3 v 1.7 H 6.2 Z"
           id="path9703"
           style="fill:#e1c490;fill-opacity:1" />
      </g>
      <g
         id="g9709"
         style="fill:#e1c490;fill-opacity:1">
        <path
           class="st1"
           d="m 8.6,104.4 v -4.2 l 3.1,3.3 v -3.1 h 0.4 v 4.2 L 9,101.3 v 3.1 z"
           id="path9707"
           style="fill:#e1c490;fill-opacity:1" />
      </g>
      <g
         id="g9713"
         style="fill:#e1c490;fill-opacity:1">
        <path
           class="st1"
           d="m 16.2,101.3 c -0.1,-0.1 -0.3,-0.3 -0.5,-0.4 -0.2,-0.1 -0.5,-0.2 -0.7,-0.2 -0.9,0 -1.6,0.7 -1.6,1.7 0,1.1 0.9,1.6 1.6,1.6 0.3,0 0.5,-0.1 0.7,-0.2 0.2,-0.1 0.4,-0.3 0.5,-0.3 v 0.6 c -0.4,0.3 -0.9,0.4 -1.2,0.4 -1.2,0 -2.1,-0.9 -2.1,-2.1 0,-1.2 0.9,-2.1 2.1,-2.1 0.2,0 0.7,0 1.2,0.4 z"
           id="path9711"
           style="fill:#e1c490;fill-opacity:1" />
      </g>
    </g>
    <g
       transform="scale(0.35277777,0.35282812)"
       id="g9725"
       style="fill:#e1c490;fill-opacity:1">
      <g
         id="g9719"
         style="fill:#e1c490;fill-opacity:1">
        <path
           class="st1"
           d="M 5.1,132.8 H 3.7 V 134 H 5 v 0.4 H 3.7 v 2 H 3.2 v -4 H 5 v 0.4 z"
           id="path9717"
           style="fill:#e1c490;fill-opacity:1" />
      </g>
      <g
         id="g9723"
         style="fill:#e1c490;fill-opacity:1">
        <path
           class="st1"
           d="m 5.7,136.4 0.7,-4.2 1.5,3.4 1.6,-3.4 0.6,4.2 H 9.6 l -0.4,-2.8 -1.4,3 -1.3,-3 -0.4,2.8 z"
           id="path9721"
           style="fill:#e1c490;fill-opacity:1" />
      </g>
    </g>
    <g
       transform="scale(0.35277777,0.35282812)"
       id="g9739"
       style="fill:#e1c490;fill-opacity:1">
      <g
         id="g9729"
         style="fill:#e1c490;fill-opacity:1">
        <path
           class="st1"
           d="M 3.8,158.4 C 3.7,158.3 3.7,158.2 3.6,158.1 3.5,158 3.4,158 3.2,158 c -0.4,0 -0.7,0.2 -0.7,0.6 0,0.2 0,0.2 0.1,0.3 0.1,0.1 0.3,0.2 0.4,0.3 l 0.4,0.2 c 0.2,0.1 0.4,0.2 0.6,0.4 0.2,0.2 0.3,0.4 0.3,0.7 0,0.7 -0.5,1.2 -1.3,1.2 -0.3,0 -0.6,-0.1 -0.9,-0.3 -0.2,-0.2 -0.3,-0.5 -0.4,-0.7 l 0.4,-0.1 c 0,0.2 0.1,0.4 0.2,0.5 0.2,0.2 0.4,0.2 0.6,0.2 0.5,0 0.8,-0.4 0.8,-0.8 0,-0.2 -0.1,-0.3 -0.2,-0.5 C 3.4,159.9 3.2,159.8 3,159.7 L 2.6,159.5 C 2.4,159.4 2.2,159.3 2.1,159.2 2.1,159 2,158.8 2,158.5 c 0,-0.6 0.5,-1 1.1,-1 0.2,0 0.4,0 0.6,0.2 0.2,0.1 0.3,0.3 0.4,0.4 z"
           id="path9727"
           style="fill:#e1c490;fill-opacity:1" />
      </g>
      <g
         id="g9733"
         style="fill:#e1c490;fill-opacity:1">
        <path
           class="st1"
           d="m 5.6,160 c 0,0.3 0,0.7 0.3,1 0.2,0.1 0.4,0.2 0.7,0.2 0.2,0 0.5,-0.1 0.7,-0.2 0.3,-0.3 0.3,-0.6 0.3,-1 v -2.5 H 8 v 2.6 c 0,0.3 0,0.7 -0.3,1 -0.2,0.3 -0.7,0.5 -1.2,0.5 -0.5,0 -0.9,-0.2 -1.2,-0.5 -0.2,-0.3 -0.3,-0.6 -0.3,-1 v -2.6 h 0.4 v 2.5 z"
           id="path9731"
           style="fill:#e1c490;fill-opacity:1" />
      </g>
      <g
         id="g9737"
         style="fill:#e1c490;fill-opacity:1">
        <path
           class="st1"
           d="m 9.7,157.6 c 0.2,0 0.6,0 0.9,0.3 0.1,0.1 0.4,0.3 0.4,0.8 0,0.2 0,0.5 -0.4,0.8 0.6,0.1 0.8,0.6 0.8,1 0,0.4 -0.2,0.7 -0.4,0.9 -0.3,0.3 -0.7,0.3 -1,0.3 H 9 v -4 h 0.7 z m -0.2,1.7 h 0.3 c 0.2,0 0.8,0 0.8,-0.7 0,-0.7 -0.6,-0.7 -0.8,-0.7 H 9.5 Z m 0,1.9 H 10 c 0.3,0 0.5,0 0.7,-0.2 0.2,-0.1 0.3,-0.3 0.3,-0.6 0,-0.3 -0.2,-0.5 -0.3,-0.6 -0.1,-0.1 -0.4,-0.1 -0.7,-0.1 H 9.5 Z"
           id="path9735"
           style="fill:#e1c490;fill-opacity:1" />
      </g>
    </g>
    <g
       transform="scale(0.35277777,0.35282812)"
       id="g9753"
       style="fill:#e1c490;fill-opacity:1">
      <g
         id="g9743"
         style="fill:#e1c490;fill-opacity:1">
        <path
           class="st1"
           d="m 4.4,290 c 0.4,0 0.7,0 1,0.3 0.3,0.3 0.4,0.6 0.4,0.9 0,0.6 -0.4,1.1 -1.3,1.1 H 4.1 V 294 H 3.7 v -4 z m -0.3,1.8 h 0.4 c 0.5,0 0.8,-0.3 0.8,-0.7 0,-0.6 -0.6,-0.7 -0.9,-0.7 H 4.1 Z"
           id="path9741"
           style="fill:#e1c490;fill-opacity:1" />
      </g>
      <g
         id="g9747"
         style="fill:#e1c490;fill-opacity:1">
        <path
           class="st1"
           d="m 6.6,290 1.1,3 1.3,-3.2 1.2,3.2 1.2,-3 h 0.5 L 10.2,294.2 8.9,291 7.6,294.2 6.1,290 Z"
           id="path9745"
           style="fill:#e1c490;fill-opacity:1" />
      </g>
      <g
         id="g9751"
         style="fill:#e1c490;fill-opacity:1">
        <path
           class="st1"
           d="m 12.2,294 0.7,-4.2 1.5,3.4 1.6,-3.4 0.6,4.2 h -0.5 l -0.4,-2.8 -1.4,3 -1.3,-3 -0.4,2.8 z"
           id="path9749"
           style="fill:#e1c490;fill-opacity:1" />
      </g>
    </g>
    <g
       transform="scale(0.35277777,0.35282812)"
       id="g9787"
       style="fill:#e1c490;fill-opacity:1">
      <g
         id="g9757"
         style="fill:#e1c490;fill-opacity:1">
        <path
           class="st1"
           d="m 53.2,330 c -0.1,-0.1 -0.1,-0.2 -0.2,-0.3 -0.1,-0.1 -0.2,-0.1 -0.5,-0.1 -0.4,0 -0.7,0.2 -0.7,0.6 0,0.2 0,0.2 0.2,0.3 0.1,0.1 0.3,0.2 0.4,0.3 l 0.4,0.2 c 0.2,0.1 0.4,0.2 0.6,0.4 0.2,0.2 0.3,0.4 0.3,0.7 0,0.7 -0.5,1.2 -1.3,1.2 -0.3,0 -0.6,-0.1 -0.9,-0.3 -0.2,-0.2 -0.3,-0.5 -0.4,-0.7 l 0.4,-0.1 c 0,0.2 0.1,0.4 0.2,0.5 0.2,0.2 0.4,0.2 0.6,0.2 0.5,0 0.8,-0.4 0.8,-0.8 0,-0.2 -0.1,-0.3 -0.2,-0.5 -0.1,-0.1 -0.3,-0.2 -0.5,-0.3 L 52,331.1 c -0.2,-0.1 -0.4,-0.2 -0.5,-0.3 -0.2,-0.2 -0.3,-0.4 -0.3,-0.7 0,-0.6 0.5,-1 1.1,-1 0.2,0 0.4,0 0.6,0.2 0.2,0.1 0.3,0.3 0.4,0.4 z"
           id="path9755"
           style="fill:#e1c490;fill-opacity:1" />
      </g>
      <g
         id="g9761"
         style="fill:#e1c490;fill-opacity:1">
        <path
           class="st1"
           d="m 55.2,331.5 -1.3,-2.3 h 0.5 l 1,1.8 1,-1.8 H 57 l -1.3,2.3 v 1.7 h -0.4 v -1.7 z"
           id="path9759"
           style="fill:#e1c490;fill-opacity:1" />
      </g>
      <g
         id="g9765"
         style="fill:#e1c490;fill-opacity:1">
        <path
           class="st1"
           d="m 57.2,333.2 0.7,-4.2 1.5,3.4 1.6,-3.4 0.6,4.2 h -0.5 l -0.4,-2.8 -1.4,3 -1.3,-3 -0.4,2.8 z"
           id="path9763"
           style="fill:#e1c490;fill-opacity:1" />
      </g>
      <g
         id="g9769"
         style="fill:#e1c490;fill-opacity:1">
        <path
           class="st1"
           d="m 62.4,333.2 0.7,-4.2 1.5,3.4 1.6,-3.4 0.6,4.2 h -0.5 l -0.4,-2.8 -1.4,3 -1.3,-3 -0.4,2.8 z"
           id="path9767"
           style="fill:#e1c490;fill-opacity:1" />
      </g>
      <g
         id="g9773"
         style="fill:#e1c490;fill-opacity:1">
        <path
           class="st1"
           d="m 69.8,329.7 h -1.6 v 1.2 h 1.6 v 0.4 h -1.6 v 1.6 h 1.6 v 0.4 h -2.1 v -4 h 2.1 z"
           id="path9771"
           style="fill:#e1c490;fill-opacity:1" />
      </g>
      <g
         id="g9777"
         style="fill:#e1c490;fill-opacity:1">
        <path
           class="st1"
           d="m 71.6,329.7 v 3.6 h -0.4 v -3.6 h -1 v -0.4 h 2.4 v 0.4 z"
           id="path9775"
           style="fill:#e1c490;fill-opacity:1" />
      </g>
      <g
         id="g9781"
         style="fill:#e1c490;fill-opacity:1">
        <path
           class="st1"
           d="m 73.8,329.2 c 0.3,0 0.7,0 1,0.2 0.2,0.2 0.4,0.5 0.4,0.9 0,0.6 -0.4,1.1 -1,1.1 l 1.3,1.8 H 75 l -1.2,-1.8 h -0.1 v 1.8 h -0.4 v -4 z m -0.2,1.9 h 0.3 c 0.6,0 0.9,-0.3 0.9,-0.7 0,-0.2 -0.1,-0.4 -0.3,-0.6 -0.2,-0.1 -0.4,-0.1 -0.6,-0.1 h -0.3 z"
           id="path9779"
           style="fill:#e1c490;fill-opacity:1" />
      </g>
      <g
         id="g9785"
         style="fill:#e1c490;fill-opacity:1">
        <path
           class="st1"
           d="m 76.8,331.5 -1.3,-2.3 H 76 l 1,1.8 1,-1.8 h 0.5 l -1.3,2.3 v 1.7 h -0.4 z"
           id="path9783"
           style="fill:#e1c490;fill-opacity:1" />
      </g>
    </g>
    <g
       transform="scale(0.35277777,0.35282812)"
       id="g9797"
       style="fill:#e1c490;fill-opacity:1">
      <g
         id="g9791"
         style="fill:#e1c490;fill-opacity:1">
        <path
           class="st1"
           d="m 6.6,264.1 c -0.1,-0.1 -0.3,-0.3 -0.5,-0.4 -0.2,-0.1 -0.5,-0.2 -0.7,-0.2 -0.9,0 -1.6,0.7 -1.6,1.7 0,1.1 0.9,1.6 1.6,1.6 0.3,0 0.5,-0.1 0.7,-0.2 0.2,-0.1 0.4,-0.3 0.5,-0.3 v 0.6 c -0.4,0.3 -0.9,0.4 -1.2,0.4 -1.2,0 -2.1,-0.9 -2.1,-2.1 0,-1.2 0.9,-2.1 2.1,-2.1 0.2,0 0.7,0 1.2,0.4 z"
           id="path9789"
           style="fill:#e1c490;fill-opacity:1" />
      </g>
      <g
         id="g9795"
         style="fill:#e1c490;fill-opacity:1">
        <path
           class="st1"
           d="m 7.4,263.3 1.1,3.1 1.1,-3.1 h 0.5 l -1.6,4.2 -1.6,-4.2 z"
           id="path9793"
           style="fill:#e1c490;fill-opacity:1" />
      </g>
    </g>
    <g
       transform="scale(0.35277777,0.35282812)"
       id="g9819"
       style="fill:#e1c490;fill-opacity:1">
      <g
         id="g9801"
         style="fill:#e1c490;fill-opacity:1">
        <path
           class="st1"
           d="m 3.4,206.2 c 0.3,0 0.6,0 0.8,0.2 0.2,0.2 0.3,0.5 0.3,0.7 0,0.5 -0.3,0.9 -1.1,0.9 H 3.1 v 1.5 H 2.8 v -3.3 z m -0.3,1.5 h 0.3 c 0.4,0 0.7,-0.2 0.7,-0.6 0,-0.5 -0.5,-0.6 -0.7,-0.6 H 3.1 Z"
           id="path9799"
           style="fill:#e1c490;fill-opacity:1" />
      </g>
      <g
         id="g9805"
         style="fill:#e1c490;fill-opacity:1">
        <path
           class="st1"
           d="m 5.4,208.2 c 0,0.3 0,0.6 0.3,0.8 0.1,0.1 0.4,0.2 0.6,0.2 0.2,0 0.4,-0.1 0.6,-0.2 0.3,-0.2 0.3,-0.5 0.3,-0.8 v -2 h 0.4 v 2.1 c 0,0.3 0,0.6 -0.2,0.8 -0.2,0.3 -0.6,0.5 -1,0.5 -0.4,0 -0.8,-0.2 -1,-0.5 -0.2,-0.2 -0.2,-0.5 -0.2,-0.8 v -2.1 h 0.4 v 2 z"
           id="path9803"
           style="fill:#e1c490;fill-opacity:1" />
      </g>
      <g
         id="g9809"
         style="fill:#e1c490;fill-opacity:1">
        <path
           class="st1"
           d="m 8.6,206.2 v 3 h 0.9 v 0.4 H 8.3 v -3.3 h 0.3 z"
           id="path9807"
           style="fill:#e1c490;fill-opacity:1" />
      </g>
      <g
         id="g9813"
         style="fill:#e1c490;fill-opacity:1">
        <path
           class="st1"
           d="m 11.5,206.8 c 0,-0.1 -0.1,-0.2 -0.2,-0.2 -0.1,0 -0.2,-0.1 -0.4,-0.1 -0.3,0 -0.6,0.2 -0.6,0.5 0,0.1 0,0.2 0.1,0.3 0.1,0.1 0.2,0.2 0.4,0.2 l 0.3,0.1 c 0.2,0.1 0.4,0.2 0.5,0.3 0.2,0.2 0.2,0.4 0.2,0.6 0,0.6 -0.5,1 -1.1,1 -0.2,0 -0.5,0 -0.7,-0.3 -0.2,-0.2 -0.3,-0.4 -0.3,-0.6 l 0.4,-0.1 c 0,0.2 0.1,0.3 0.2,0.4 0.1,0.1 0.3,0.2 0.5,0.2 0.5,0 0.7,-0.3 0.7,-0.7 0,-0.2 0,-0.3 -0.2,-0.4 -0.1,-0.1 -0.2,-0.1 -0.4,-0.2 l -0.3,-0.1 c -0.1,-0.1 -0.3,-0.1 -0.4,-0.3 -0.1,-0.1 -0.2,-0.3 -0.2,-0.5 0,-0.5 0.4,-0.9 0.9,-0.9 0.2,0 0.4,0 0.5,0.2 0.1,0.1 0.2,0.2 0.3,0.4 z"
           id="path9811"
           style="fill:#e1c490;fill-opacity:1" />
      </g>
      <g
         id="g9817"
         style="fill:#e1c490;fill-opacity:1">
        <path
           class="st1"
           d="M 14.4,206.5 H 13 v 1 h 1.3 v 0.4 H 13 v 1.3 h 1.4 v 0.4 h -1.7 v -3.3 h 1.7 z"
           id="path9815"
           style="fill:#e1c490;fill-opacity:1" />
      </g>
    </g>
    <g
       transform="scale(0.35277777,0.35282812)"
       id="g9837"
       style="fill:#e1c490;fill-opacity:1">
      <g
         id="g9823"
         style="fill:#e1c490;fill-opacity:1">
        <path
           class="st1"
           d="m 75.8,206.5 h -1.2 v 1 h 1.1 v 0.4 h -1.1 v 1.7 h -0.4 v -3.3 h 1.5 v 0.2 z"
           id="path9821"
           style="fill:#e1c490;fill-opacity:1" />
      </g>
      <g
         id="g9827"
         style="fill:#e1c490;fill-opacity:1">
        <path
           class="st1"
           d="m 76.3,207.9 c 0,-1 0.8,-1.7 1.7,-1.7 0.9,0 1.7,0.7 1.7,1.7 0,1 -0.8,1.7 -1.7,1.7 -0.9,0 -1.7,-0.8 -1.7,-1.7 z m 0.4,0 c 0,0.8 0.6,1.4 1.4,1.4 0.8,0 1.4,-0.6 1.4,-1.4 0,-0.8 -0.6,-1.4 -1.4,-1.4 -0.8,0 -1.4,0.6 -1.4,1.4 z"
           id="path9825"
           style="fill:#e1c490;fill-opacity:1" />
      </g>
      <g
         id="g9831"
         style="fill:#e1c490;fill-opacity:1">
        <path
           class="st1"
           d="m 80.8,206.2 v 3 h 0.9 v 0.4 h -1.3 v -3.3 h 0.4 z"
           id="path9829"
           style="fill:#e1c490;fill-opacity:1" />
      </g>
      <g
         id="g9835"
         style="fill:#e1c490;fill-opacity:1">
        <path
           class="st1"
           d="m 82.2,206.2 h 0.7 c 0.3,0 0.8,0 1.2,0.4 0.3,0.3 0.6,0.7 0.6,1.3 0,0.7 -0.3,1.1 -0.6,1.3 -0.3,0.3 -0.6,0.4 -1.2,0.4 h -0.7 z m 0.4,3 h 0.3 c 0.3,0 0.6,0 1,-0.3 0.2,-0.2 0.5,-0.5 0.5,-1 0,-0.8 -0.6,-1.3 -1.4,-1.3 h -0.3 v 2.6 z"
           id="path9833"
           style="fill:#e1c490;fill-opacity:1" />
      </g>
    </g>
    <g
       transform="scale(0.35277777,0.35282812)"
       id="g9851"
       style="fill:#e1c490;fill-opacity:1">
      <g
         id="g9841"
         style="fill:#e1c490;fill-opacity:1">
        <path
           class="st1"
           d="m 51.5,127.2 v 3.6 h 1.1 v 0.4 H 51 v -4 z"
           id="path9839"
           style="fill:#e1c490;fill-opacity:1" />
      </g>
      <g
         id="g9845"
         style="fill:#e1c490;fill-opacity:1">
        <path
           class="st1"
           d="m 53.6,127.2 v 4 h -0.4 v -4 z"
           id="path9843"
           style="fill:#e1c490;fill-opacity:1" />
      </g>
      <g
         id="g9849"
         style="fill:#e1c490;fill-opacity:1">
        <path
           class="st1"
           d="M 54.6,131.2 V 127 l 3.1,3.3 v -3.1 h 0.4 v 4.2 L 55,128.1 v 3.1 z"
           id="path9847"
           style="fill:#e1c490;fill-opacity:1" />
      </g>
    </g>
    <g
       transform="scale(0.35277777,0.35282812)"
       id="g9865"
       style="fill:#e1c490;fill-opacity:1">
      <g
         id="g9855"
         style="fill:#e1c490;fill-opacity:1">
        <path
           class="st1"
           d="m 73.4,127.6 h -1.6 v 1.2 h 1.6 v 0.4 h -1.6 v 1.6 h 1.6 v 0.4 h -2.1 v -4 h 2.1 z"
           id="path9853"
           style="fill:#e1c490;fill-opacity:1" />
      </g>
      <g
         id="g9859"
         style="fill:#e1c490;fill-opacity:1">
        <path
           class="st1"
           d="m 74.9,129.1 -1.1,-1.9 h 0.5 l 0.8,1.5 0.9,-1.5 h 0.5 l -1.1,1.9 1.2,2.1 h -0.5 l -0.9,-1.6 -0.9,1.6 h -0.5 z"
           id="path9857"
           style="fill:#e1c490;fill-opacity:1" />
      </g>
      <g
         id="g9863"
         style="fill:#e1c490;fill-opacity:1">
        <path
           class="st1"
           d="m 77.9,127.2 c 0.4,0 0.7,0 1,0.3 0.3,0.3 0.4,0.6 0.4,0.9 0,0.6 -0.4,1.1 -1.3,1.1 h -0.4 v 1.7 h -0.4 v -4 z M 77.6,129 H 78 c 0.5,0 0.8,-0.3 0.8,-0.7 0,-0.6 -0.6,-0.7 -0.9,-0.7 h -0.3 z"
           id="path9861"
           style="fill:#e1c490;fill-opacity:1" />
      </g>
    </g>
    <g
       transform="scale(0.35277777,0.35282812)"
       id="g9869"
       style="fill:#e1c490;fill-opacity:1">
      <rect
         x="30.799999"
         y="145.5"
         class="st1"
         width="25.200001"
         height="2"
         id="rect9867"
         style="fill:#e1c490;fill-opacity:1" />
    </g>
    <g
       transform="scale(0.35277777,0.35282812)"
       id="g9873"
       style="fill:#e1c490;fill-opacity:1">
      <rect
         x="63.799999"
         y="122.9"
         class="st1"
         width="2"
         height="14.7"
         id="rect9871"
         style="fill:#e1c490;fill-opacity:1" />
    </g>
    <g
       transform="scale(0.35277777,0.35282812)"
       id="g9879"
       style="fill:#e1c490;fill-opacity:1">
      <g
         id="g9877"
         style="fill:#e1c490;fill-opacity:1">
        <path
           class="st1"
           d="m 81.9,168.6 -0.1,0.2 c -0.9,2.2 -1.8,4.5 -3.6,4.5 -1.8,0 -2.7,-2.3 -3.6,-4.5 -0.8,-2.1 -1.6,-4.2 -3.2,-4.2 -1.5,0 -2.4,2.1 -3.2,4.1 v 0.1 h -0.5 l 0.1,-0.2 c 0.9,-2.2 1.8,-4.5 3.6,-4.5 1.8,0 2.7,2.3 3.6,4.5 0.8,2.1 1.6,4.2 3.2,4.2 1.5,0 2.3,-2.1 3.1,-4.2 v -0.1 h 0.6 z"
           id="path9875"
           style="fill:#e1c490;fill-opacity:1" />
      </g>
    </g>
    <g
       transform="scale(0.35277777,0.35282812)"
       id="g9885"
       style="fill:#e1c490;fill-opacity:1">
      <g
         id="g9883"
         style="fill:#e1c490;fill-opacity:1">
        <polygon
           class="st1"
           points="55.8,172.6 59,168.5 59.6,168.5 55.8,173.4 49,164.7 45.9,168.8 45.3,168.8 49,164 "
           id="polygon9881"
           style="fill:#e1c490;fill-opacity:1" />
      </g>
    </g>
    <g
       transform="scale(0.35277777,0.35282812)"
       id="g9891"
       style="fill:#e1c490;fill-opacity:1">
      <g
         id="g9889"
         style="fill:#e1c490;fill-opacity:1">
        <line
           class="st1"
           x1="36.099998"
           y1="168.7"
           x2="35.799999"
           y2="168.7"
           id="line9887"
           style="fill:#e1c490;fill-opacity:1" />
      </g>
    </g>
    <g
       transform="scale(0.35277777,0.35282812)"
       id="g9899"
       style="fill:#e1c490;fill-opacity:1">
      <g
         id="g9897"
         style="fill:#e1c490;fill-opacity:1">
        <g
           id="g9895"
           style="fill:#e1c490;fill-opacity:1">
          <polygon
             class="st1"
             points="33.9,173.1 33.9,173.2 33.4,173.2 33.4,164.6 27.4,164.6 27.4,173 26.9,173 26.9,164.2 33.9,164.2 33.9,172.7 40.4,172.7 40.4,173.1 "
             id="polygon9893"
             style="fill:#e1c490;fill-opacity:1" />
        </g>
      </g>
    </g>
    <g
       transform="scale(0.35277777,0.35282812)"
       id="g9903"
       style="fill:#e1c490;fill-opacity:1">
      <rect
         x="63.799999"
         y="263"
         class="st1"
         width="2"
         height="6.0999999"
         id="rect9901"
         style="fill:#e1c490;fill-opacity:1" />
    </g>
    <g
       transform="scale(0.35277777,0.35282812)"
       id="g9907"
       style="fill:#e1c490;fill-opacity:1">
      <rect
         x="63.799999"
         y="300.89999"
         class="st1"
         width="2"
         height="6"
         id="rect9905"
         style="fill:#e1c490;fill-opacity:1" />
    </g>
    <g
       transform="scale(0.35277777,0.35282812)"
       id="g9911"
       style="fill:#e1c490;fill-opacity:1">
      <rect
         x="42.200001"
         y="211.3"
         class="st1"
         width="2"
         height="122"
         id="rect9909"
         style="fill:#e1c490;fill-opacity:1" />
    </g>
    <g
       transform="scale(0.35277777,0.35282812)"
       id="g9915"
       style="fill:#e1c490;fill-opacity:1">
      <polygon
         class="st1"
         points="30.3,324.2 32.4,324.2 32.4,326.2 34,326.2 34,330.4 35.6,330.4 35.6,332.4 37,332.4 37,330.4 38.6,330.4 38.6,328.3 39,328.3 39,330.8 37.4,330.8 37.4,332.8 35.2,332.8 35.2,330.8 33.6,330.8 33.6,326.6 32,326.6 32,324.6 30.7,324.6 30.7,326.6 29.1,326.6 29.1,328.8 28.7,328.8 28.7,326.2 30.3,326.2 "
         id="polygon9913"
         style="fill:#e1c490;fill-opacity:1" />
    </g>
    <g
       transform="scale(0.35277777,0.35282812)"
       id="g9919"
       style="fill:#e1c490;fill-opacity:1">
      <polygon
         class="st1"
         points="9.9,329.4 9.6,329.7 9.6,329.6 7.8,326.8 7.8,327.9 6.6,326 5.4,327.9 5.4,326.8 3.6,329.7 3.3,329.4 5.8,325.4 5.8,326.5 6.6,325.2 7.4,326.5 7.4,325.4 "
         id="polygon9917"
         style="fill:#e1c490;fill-opacity:1" />
    </g>
    <g
       transform="scale(0.35277777,0.35282812)"
       id="g9923"
       style="fill:#e1c490;fill-opacity:1">
      <polygon
         class="st1"
         points="12.5,330.6 11.7,331.9 10.8,330.6 10.8,331.6 8.3,327.6 8.7,327.4 10.4,330.2 10.4,329.2 11.7,331.1 12.9,329.2 12.9,330.3 14.7,327.4 15,327.6 14.9,327.7 12.5,331.6 "
         id="polygon9921"
         style="fill:#e1c490;fill-opacity:1" />
    </g>
    <g
       transform="scale(0.35277777,0.35282812)"
       id="g9927"
       style="fill:#e1c490;fill-opacity:1">
      <path
         class="st1"
         d="m 82.1,299.3 c -0.9,0 -1,-4.5 -1,-4.6 0,-2 -0.4,-3.3 -2.5,-3.3 -2.1,0 -2.5,1.2 -2.5,3.3 0,0 -0.1,4.6 -1,4.6 -0.9,0 -1,-4.5 -1,-4.6 0,-2 -0.4,-3.3 -2.5,-3.3 -2.1,0 -2.5,1.2 -2.5,3.3 h -0.4 c 0,-1.9 0.3,-3.7 2.9,-3.7 2.5,0 2.9,1.8 2.9,3.7 0,1.7 0.3,3.8 0.6,4.2 0.3,-0.4 0.6,-2.4 0.6,-4.2 0,-1.9 0.3,-3.7 2.9,-3.7 2.5,0 2.9,1.8 2.9,3.7 0,1.7 0.3,3.8 0.6,4.2 0.3,-0.4 0.6,-2.4 0.6,-4.2 h 0.4 c 0,0.1 -0.1,4.6 -1,4.6 z"
         id="path9925"
         style="fill:#e1c490;fill-opacity:1" />
    </g>
    <g
       transform="scale(0.35277777,0.35282812)"
       id="g9931"
       style="fill:#e1c490;fill-opacity:1">
      <path
         class="st1"
         d="m 56.3,299.3 c -2.5,0 -2.9,-1.8 -2.9,-3.7 0,-1.7 -0.3,-3.8 -0.6,-4.2 -0.3,0.4 -0.6,2.4 -0.6,4.2 0,1.9 -0.3,3.7 -2.9,3.7 -2.5,0 -2.9,-1.8 -2.9,-3.7 h 0.4 c 0,2.1 0.4,3.3 2.5,3.3 2.1,0 2.5,-1.2 2.5,-3.3 0,0 0.1,-4.6 1,-4.6 0.9,0 1,4.5 1,4.6 0,2.1 0.4,3.3 2.5,3.3 2.1,0 2.5,-1.2 2.5,-3.3 0,0 0.1,-4.6 1,-4.6 0.9,0 1,4.5 1,4.6 h -0.4 c 0,-1.7 -0.3,-3.8 -0.6,-4.2 -0.3,0.4 -0.6,2.4 -0.6,4.2 0,2 -0.4,3.7 -2.9,3.7 z"
         id="path9929"
         style="fill:#e1c490;fill-opacity:1" />
    </g>
    <g
       transform="scale(0.35277777,0.35282812)"
       id="g9943"
       style="fill:#e1c490;fill-opacity:1">
      <g
         id="g9935"
         style="fill:#e1c490;fill-opacity:1">
        <rect
           x="57.599998"
           y="302.5"
           transform="matrix(0.8636,-0.5041,0.5041,0.8636,-144.8535,70.4484)"
           class="st1"
           width="0.5"
           height="1"
           id="rect9933"
           style="fill:#e1c490;fill-opacity:1" />
      </g>
      <g
         id="g9941"
         style="fill:#e1c490;fill-opacity:1">
        <g
           id="g9939"
           style="fill:#e1c490;fill-opacity:1">
          <path
             class="st1"
             d="m 58.4,302.6 v -2.1 h -0.1 l -1.9,2.5 c -0.8,0.7 -1.5,1.4 -2.3,2.1 1,-0.3 2,-0.6 3,-1 l 3.1,-0.5 v -0.1 z"
             id="path9937"
             style="fill:#e1c490;fill-opacity:1" />
        </g>
      </g>
    </g>
    <g
       transform="scale(0.35277777,0.35282812)"
       id="g9947"
       style="fill:#e1c490;fill-opacity:1">
      <path
         class="st1"
         d="m 77.8,308.8 c -2.1,-2.7 -4.9,-4.9 -8,-6.3 -3.2,-1.4 -6.8,-1.4 -10,0 -3.1,1.4 -5.9,3.6 -8,6.3 L 51,308.2 c 2.2,-2.8 5.1,-5.1 8.4,-6.6 3.4,-1.6 7.4,-1.6 10.8,0 3.3,1.5 6.2,3.8 8.4,6.6 z"
         id="path9945"
         style="fill:#e1c490;fill-opacity:1" />
    </g>
    <g
       transform="scale(0.35277777,0.35282812)"
       id="g9959"
       style="fill:#e1c490;fill-opacity:1">
      <g
         id="g9951"
         style="fill:#e1c490;fill-opacity:1">
        <rect
           x="71.300003"
           y="302.70001"
           transform="matrix(0.5039,-0.8638,0.8638,0.5039,-226.0776,212.3417)"
           class="st1"
           width="1"
           height="0.5"
           id="rect9949"
           style="fill:#e1c490;fill-opacity:1" />
      </g>
      <g
         id="g9957"
         style="fill:#e1c490;fill-opacity:1">
        <g
           id="g9955"
           style="fill:#e1c490;fill-opacity:1">
          <path
             class="st1"
             d="m 71.2,302.6 -1.9,1 v 0.1 l 3.1,0.5 c 1,0.3 2,0.6 3,1 -0.8,-0.7 -1.5,-1.4 -2.3,-2.1 l -1.9,-2.5 h -0.1 z"
             id="path9953"
             style="fill:#e1c490;fill-opacity:1" />
        </g>
      </g>
    </g>
    <g
       transform="scale(0.35277777,0.35282812)"
       id="g9963"
       style="fill:#e1c490;fill-opacity:1">
      <path
         class="st1"
         d="m 64.8,263.3 c -7.9,0 -14.2,-6.4 -14.2,-14.2 0,-7.9 6.4,-14.2 14.2,-14.2 7.9,0 14.2,6.4 14.2,14.2 0,7.8 -6.3,14.2 -14.2,14.2 z m 0,-27.9 c -7.5,0 -13.6,6.1 -13.6,13.6 0,7.5 6.1,13.6 13.6,13.6 7.5,0 13.6,-6.1 13.6,-13.6 0,-7.5 -6.1,-13.6 -13.6,-13.6 z"
         id="path9961"
         style="fill:#e1c490;fill-opacity:1" />
    </g>
    <g
       transform="scale(0.35277777,0.35282812)"
       id="g9969"
       style="fill:#e1c490;fill-opacity:1">
      <g
         id="g9967"
         style="fill:#e1c490;fill-opacity:1">
        <rect
           x="0.30000001"
           y="344.60001"
           class="st1"
           width="42.700001"
           height="3"
           id="rect9965"
           style="fill:#e1c490;fill-opacity:1" />
      </g>
    </g>
    <g
       transform="scale(0.35277777,0.35282812)"
       id="g9987"
       style="fill:#e1c490;fill-opacity:1">
      <g
         id="g9973"
         style="fill:#e1c490;fill-opacity:1">
        <path
           class="st1"
           d="m 53.9,342.2 v 14.4 h -1.8 v -14.4 h -3.9 v -1.7 h 9.6 v 1.7 z"
           id="path9971"
           style="fill:#e1c490;fill-opacity:1" />
      </g>
      <g
         id="g9977"
         style="fill:#e1c490;fill-opacity:1">
        <path
           class="st1"
           d="m 63.1,348.9 c -0.2,-0.6 -0.7,-1 -1.4,-1 -0.6,0 -1.2,0.4 -1.2,1.1 0,0.7 0.5,0.9 1.6,1.4 1.4,0.6 2.1,1.1 2.5,1.5 0.4,0.5 0.5,1.1 0.5,1.6 0,2.1 -1.5,3.3 -3.5,3.3 -0.4,0 -2.7,0 -3.5,-2.6 l 1.5,-0.6 c 0.2,0.5 0.8,1.6 2,1.6 1.1,0 1.6,-0.8 1.6,-1.6 0,-0.9 -0.7,-1.3 -1.6,-1.7 -1.2,-0.5 -2,-0.9 -2.4,-1.5 -0.4,-0.5 -0.5,-1 -0.5,-1.5 0,-1.8 1.2,-2.8 2.9,-2.8 0.5,0 2,0.1 2.8,1.8 z m 0.9,-8.1 1.1,0.9 -3.3,2.9 -3.3,-2.9 1.1,-0.9 2.2,2 z"
           id="path9975"
           style="fill:#e1c490;fill-opacity:1" />
      </g>
      <g
         id="g9981"
         style="fill:#e1c490;fill-opacity:1">
        <path
           class="st1"
           d="m 67.1,350.6 h 5.3 v 1.8 h -5.3 z"
           id="path9979"
           style="fill:#e1c490;fill-opacity:1" />
      </g>
      <g
         id="g9985"
         style="fill:#e1c490;fill-opacity:1">
        <path
           class="st1"
           d="m 77.4,340.5 v 14.4 h 4.4 v 1.7 h -6.2 v -16.1 z"
           id="path9983"
           style="fill:#e1c490;fill-opacity:1" />
      </g>
    </g>
    <g
       transform="scale(0.35277777,0.35282812)"
       id="g9991"
       style="fill:#e1c490;fill-opacity:1">
      <polygon
         class="st1"
         points="38.2,240 27.4,229.3 28.8,227.9 40.2,239.2 40.2,279.5 22.6,296.3 22.6,307.1 20.6,307.1 20.6,295.5 38.2,278.6 "
         id="polygon9989"
         style="fill:#e1c490;fill-opacity:1" />
    </g>
    <g
       transform="scale(0.35277777,0.35282812)"
       id="g10003"
       style="fill:#e1c490;fill-opacity:1">
      <g
         id="g9995"
         style="fill:#e1c490;fill-opacity:1">
        <rect
           x="14.4"
           y="302.5"
           transform="matrix(0.8636,-0.5041,0.5041,0.8636,-150.7444,48.6705)"
           class="st1"
           width="0.5"
           height="1"
           id="rect9993"
           style="fill:#e1c490;fill-opacity:1" />
      </g>
      <g
         id="g10001"
         style="fill:#e1c490;fill-opacity:1">
        <g
           id="g9999"
           style="fill:#e1c490;fill-opacity:1">
          <path
             class="st1"
             d="m 15.2,302.6 v -2.1 h -0.1 l -1.9,2.5 c -0.8,0.7 -1.5,1.4 -2.3,2.1 1,-0.3 2,-0.6 3,-1 l 3.1,-0.5 v -0.1 z"
             id="path9997"
             style="fill:#e1c490;fill-opacity:1" />
        </g>
      </g>
    </g>
    <g
       transform="scale(0.35277777,0.35282812)"
       id="g10007"
       style="fill:#e1c490;fill-opacity:1">
      <path
         class="st1"
         d="m 34.6,308.8 c -2.1,-2.7 -4.9,-4.9 -8,-6.3 -3.2,-1.4 -6.8,-1.4 -10,0 -3.1,1.4 -5.9,3.6 -8,6.3 l -0.8,-0.6 c 2.2,-2.8 5.1,-5.1 8.4,-6.6 3.4,-1.6 7.4,-1.6 10.8,0 3.3,1.5 6.2,3.8 8.4,6.6 z"
         id="path10005"
         style="fill:#e1c490;fill-opacity:1" />
    </g>
    <g
       transform="scale(0.35277777,0.35282812)"
       id="g10019"
       style="fill:#e1c490;fill-opacity:1">
      <g
         id="g10011"
         style="fill:#e1c490;fill-opacity:1">
        <rect
           x="28.1"
           y="302.70001"
           transform="matrix(0.5039,-0.8638,0.8638,0.5039,-247.5102,175.0267)"
           class="st1"
           width="1"
           height="0.5"
           id="rect10009"
           style="fill:#e1c490;fill-opacity:1" />
      </g>
      <g
         id="g10017"
         style="fill:#e1c490;fill-opacity:1">
        <g
           id="g10015"
           style="fill:#e1c490;fill-opacity:1">
          <path
             class="st1"
             d="m 28,302.6 -1.9,1 v 0.1 l 3.1,0.5 c 1,0.3 2,0.6 3,1 -0.8,-0.7 -1.5,-1.4 -2.3,-2.1 L 28,300.6 h -0.1 z"
             id="path10013"
             style="fill:#e1c490;fill-opacity:1" />
        </g>
      </g>
    </g>
    <g
       transform="scale(0.35277777,0.35282812)"
       id="g10023"
       style="fill:#e1c490;fill-opacity:1">
      <polygon
         class="st1"
         points="2.1,163.2 4.1,163.2 4.1,167.7 9.1,167.7 9.1,169.7 2.1,169.7 "
         id="polygon10021"
         style="fill:#e1c490;fill-opacity:1" />
    </g>
    <g
       transform="scale(0.35277777,0.35282812)"
       id="g10029"
       style="fill:#e1c490;fill-opacity:1">
      <g
         id="g10027"
         style="fill:#e1c490;fill-opacity:1">
        <path
           class="st3"
           d="m 71,73.4 -0.2,-0.1 v 0 C 70.6,73.2 70.5,73.1 70.4,73.1 70.2,73 70,72.9 69.8,72.8 v 0 c -2.5,-1.4 -4,-4 -4,-6.9 0,-1.3 0.3,-2.6 0.9,-3.7 0.2,-0.3 0.3,-0.6 0.5,-0.9 C 69.7,57.1 71,52.2 71,47.3 71,32 58.5,19.5 43.2,19.5 c -9.6,0 -18.1,4.9 -23.1,12.4 -1.7,-2.1 -4.2,-3.4 -7.1,-3.4 -5,0 -9.1,4.1 -9.1,9.1 0,5 4.1,9.3 9.1,9.3 0.8,0 1.7,-0.1 2.4,-0.3 0,0.3 0,0.6 0,0.9 0,15.3 12.5,27.8 27.8,27.8 h 0.2 c 0.1,0 0.2,0 0.4,0 h 0.1 c 4.3,0 7.8,3.6 7.8,7.9 v 0.1 c -0.1,0.6 -0.1,1 -0.2,1.5 0,0.2 0,0.4 0,0.6 0,7.4 6,13.3 13.3,13.3 7.3,0 13.3,-6 13.3,-13.3 0,-5.1 -2.7,-9.6 -7.1,-12 z m -6.2,23.2 c -6.2,0 -11.3,-5.1 -11.3,-11.3 0,-0.1 0,-0.3 0,-0.4 v -0.1 c 0,-0.4 0.1,-0.8 0.1,-1.3 v -0.3 c 0,-5.4 -4.4,-9.8 -9.8,-9.9 h -0.1 c -0.2,0 -0.4,0 -0.5,0 h -0.1 c -14.2,0 -25.8,-11.6 -25.8,-25.8 0,-0.6 0,-1.2 0.1,-1.8 0,-0.4 0.1,-0.8 0.1,-1.2 -0.6,0.4 -1.3,0.8 -2.1,1 -0.8,0.2 -1.6,0.4 -2.5,0.4 -4.5,0 -8.1,-3.6 -8.1,-8.1 0,-4.5 3.6,-8.1 8.1,-8.1 2.7,0 5,1.3 6.5,3.3 0.5,0.6 0.8,1.3 1.1,2.1 0.2,-0.4 0.4,-0.7 0.6,-1.1 4.5,-7.3 12.7,-12.2 21.9,-12.2 14.4,-0.1 26,11.4 26,25.7 0,4.6 -1.2,9.1 -3.5,12.9 -0.2,0.3 -0.4,0.6 -0.6,1 -0.8,1.4 -1.2,3 -1.2,4.6 0,3.6 2,6.9 5.1,8.7 l 0.2,0.1 c 0.2,0.1 0.3,0.1 0.5,0.2 0.2,0.1 0.3,0.2 0.5,0.2 l 0.3,0.1 v 0 c 3.6,2 5.9,5.8 5.9,9.9 -0.1,6.3 -5.2,11.4 -11.4,11.4 z"
           id="path10025"
           style="fill:#e1c490;fill-opacity:1" />
      </g>
    </g>
  </g>
</svg>
