<?xml version="1.0" encoding="UTF-8" standalone="no"?>
<!DOCTYPE svg PUBLIC "-//W3C//DTD SVG 1.1//EN" "http://www.w3.org/Graphics/SVG/1.1/DTD/svg11.dtd">
<svg width="45px" height="380px" version="1.1" xmlns="http://www.w3.org/2000/svg" xmlns:xlink="http://www.w3.org/1999/xlink" xml:space="preserve" xmlns:serif="http://www.serif.com/" style="fill-rule:evenodd;clip-rule:evenodd;stroke-linejoin:round;stroke-miterlimit:2;">
    <g id="background">
        <path id="rect817" d="M0,0l45,0l0,380l-45,-0l0,-380Z" style="fill:#401B5C;"/>
        <g id="text866">
            <path id="path871" d="M10.88,341.807l-3.198,0l0,13.157l-0.182,3.036l2.854,0l0.223,-1.295c0.607,0.911 1.559,1.559 3.056,1.559c2.935,0 3.987,-2.166 3.987,-5.263l0,-0.729c0,-3.097 -1.053,-5.263 -3.987,-5.263c-1.275,0 -2.146,0.466 -2.753,1.174l0,-6.376Zm0,8.967c0.263,-0.385 0.87,-1.012 1.822,-1.012c1.235,0 1.72,0.931 1.72,2.51l0,0.729c0,1.579 -0.486,2.51 -1.72,2.51c-0.951,0 -1.559,-0.627 -1.822,-1.012l0,-3.724Z" style="fill:#FDDEA2;fill-rule:nonzero;"/>
            <path id="path873" d="M23.217,347.272l0,-3.036l-3.198,0l0,3.036l-1.64,0l0,2.793l1.64,0l0,4.21c0,2.955 1.619,3.987 4.028,3.987c0.972,0 1.538,-0.162 1.72,-0.263l0,-2.631c-0.121,0.061 -0.627,0.142 -0.972,0.142c-0.972,0 -1.579,-0.263 -1.579,-1.579l0,-3.866l2.753,0l0,-2.793l-2.753,0Z" style="fill:#FDDEA2;fill-rule:nonzero;"/>
            <path id="path875" d="M37.5,358l0,-7.267c0,-1.943 -0.891,-3.724 -3.32,-3.724c-1.66,0 -2.773,0.688 -3.441,1.64l-0.243,-1.376l-2.854,0l0.182,3.036l0,7.692l3.198,0l0,-7.226c0.243,-0.385 0.87,-1.012 1.882,-1.012c1.093,0 1.417,0.729 1.417,1.498l0,6.74l3.178,-0Z" style="fill:#FDDEA2;fill-rule:nonzero;"/>
        </g>
    </g>
    <g id="labels">
        <g id="g4706">
            <path id="rect4199" d="M37.5,264.794l0,69.413c0,0.438 -0.356,0.794 -0.794,0.794l-28.413,0c-0.438,0 -0.794,-0.356 -0.794,-0.794l0,-69.413c0,-0.438 0.356,-0.794 0.794,-0.794l28.413,0c0.438,0 0.794,0.356 0.794,0.794Z" style="fill:#FDBB3C;"/>
            <g id="text4214">
                <path id="path4221" d="M12.698,273.987c-0.392,0 -0.738,-0.077 -1.036,-0.231c-0.293,-0.159 -0.521,-0.37 -0.685,-0.633c-0.164,-0.263 -0.286,-0.546 -0.365,-0.849c-0.074,-0.303 -0.112,-0.626 -0.112,-0.968c0,-0.313 0.04,-0.618 0.119,-0.916c0.079,-0.303 0.201,-0.589 0.365,-0.857c0.164,-0.273 0.392,-0.492 0.685,-0.656c0.298,-0.169 0.641,-0.253 1.028,-0.253c0.472,0 0.874,0.122 1.207,0.365c0.333,0.243 0.569,0.539 0.708,0.887l-1.013,0.454c-0.144,-0.214 -0.283,-0.37 -0.417,-0.469c-0.129,-0.099 -0.291,-0.149 -0.484,-0.149c-0.184,0 -0.345,0.05 -0.484,0.149c-0.139,0.094 -0.246,0.223 -0.32,0.387c-0.074,0.159 -0.129,0.328 -0.164,0.507c-0.035,0.174 -0.052,0.358 -0.052,0.551c0,0.263 0.032,0.512 0.097,0.745c0.07,0.233 0.184,0.435 0.343,0.603c0.164,0.164 0.358,0.246 0.581,0.246c0.323,0 0.618,-0.223 0.887,-0.67l1.036,0.387c-0.422,0.914 -1.063,1.371 -1.922,1.371Z" style="fill:#401B5C;fill-rule:nonzero;"/>
                <path id="path4223" d="M17.459,274.002c-0.328,0 -0.626,-0.052 -0.894,-0.156c-0.263,-0.104 -0.482,-0.243 -0.656,-0.417c-0.174,-0.179 -0.32,-0.385 -0.44,-0.618c-0.114,-0.233 -0.199,-0.474 -0.253,-0.723c-0.05,-0.253 -0.074,-0.514 -0.074,-0.782c0,-0.268 0.025,-0.526 0.074,-0.775c0.055,-0.253 0.139,-0.497 0.253,-0.73c0.119,-0.233 0.266,-0.437 0.44,-0.611c0.174,-0.179 0.392,-0.32 0.656,-0.425c0.268,-0.104 0.566,-0.156 0.894,-0.156c0.402,0 0.757,0.079 1.065,0.238c0.308,0.154 0.549,0.365 0.723,0.633c0.174,0.263 0.303,0.549 0.387,0.857c0.089,0.308 0.134,0.631 0.134,0.968c0,0.338 -0.045,0.661 -0.134,0.968c-0.084,0.308 -0.214,0.596 -0.387,0.864c-0.174,0.263 -0.415,0.474 -0.723,0.633c-0.308,0.154 -0.663,0.231 -1.065,0.231l0,-0Zm0,-1.095c0.258,0 0.477,-0.087 0.656,-0.261c0.179,-0.179 0.303,-0.382 0.372,-0.611c0.07,-0.233 0.104,-0.477 0.104,-0.73c0,-0.268 -0.032,-0.517 -0.097,-0.745c-0.065,-0.233 -0.186,-0.435 -0.365,-0.603c-0.179,-0.174 -0.402,-0.261 -0.67,-0.261c-0.268,0 -0.494,0.089 -0.678,0.268c-0.179,0.174 -0.3,0.377 -0.365,0.611c-0.065,0.228 -0.097,0.472 -0.097,0.73c0,0.194 0.02,0.38 0.06,0.559c0.04,0.179 0.102,0.35 0.186,0.514c0.084,0.159 0.204,0.288 0.358,0.387c0.154,0.094 0.333,0.142 0.536,0.142l0,0Z" style="fill:#401B5C;fill-rule:nonzero;"/>
                <path id="path4225" d="M24.973,273.913l-0.991,0l-1.967,-2.764c-0.05,-0.065 -0.124,-0.196 -0.223,-0.395c0.015,0.084 0.022,0.216 0.022,0.395l0,2.764l-1.117,0l0,-5.215l1.036,0l1.915,2.734c0.094,0.134 0.166,0.263 0.216,0.387c-0.015,-0.104 -0.022,-0.236 -0.022,-0.395l0,-2.727l1.132,0l-0,5.215Z" style="fill:#401B5C;fill-rule:nonzero;"/>
                <path id="path4227" d="M27.876,274.002c-0.507,0 -0.944,-0.134 -1.311,-0.402c-0.363,-0.273 -0.623,-0.648 -0.782,-1.125l1.013,-0.38c0.119,0.253 0.276,0.457 0.469,0.611c0.194,0.149 0.407,0.223 0.641,0.223c0.243,0 0.435,-0.045 0.574,-0.134c0.139,-0.094 0.209,-0.228 0.209,-0.402c0,-0.114 -0.052,-0.216 -0.156,-0.305c-0.099,-0.089 -0.206,-0.154 -0.32,-0.194c-0.109,-0.045 -0.281,-0.104 -0.514,-0.179c-0.154,-0.05 -0.271,-0.087 -0.35,-0.112c-0.074,-0.03 -0.184,-0.075 -0.328,-0.134c-0.144,-0.06 -0.253,-0.114 -0.328,-0.164c-0.074,-0.05 -0.164,-0.117 -0.268,-0.201c-0.104,-0.084 -0.184,-0.171 -0.238,-0.261c-0.05,-0.094 -0.094,-0.206 -0.134,-0.335c-0.04,-0.134 -0.06,-0.276 -0.06,-0.425c0,-0.417 0.164,-0.767 0.492,-1.05c0.328,-0.283 0.772,-0.425 1.334,-0.425c0.467,0 0.859,0.122 1.177,0.365c0.318,0.243 0.529,0.556 0.633,0.939l-1.013,0.328c-0.164,-0.372 -0.449,-0.559 -0.857,-0.559c-0.422,0 -0.633,0.142 -0.633,0.425c0,0.065 0.02,0.122 0.06,0.171c0.04,0.05 0.112,0.099 0.216,0.149c0.104,0.05 0.189,0.087 0.253,0.112c0.07,0.025 0.189,0.067 0.358,0.127c0.179,0.06 0.315,0.107 0.41,0.142c0.099,0.035 0.233,0.089 0.402,0.164c0.169,0.07 0.3,0.147 0.395,0.231c0.099,0.079 0.201,0.176 0.305,0.291c0.104,0.114 0.179,0.248 0.223,0.402c0.05,0.154 0.074,0.323 0.074,0.507c0,0.492 -0.184,0.882 -0.551,1.17c-0.368,0.288 -0.832,0.432 -1.393,0.432l0,0Z" style="fill:#401B5C;fill-rule:nonzero;"/>
                <path id="path4229" d="M33.002,269.785l0,4.127l-1.132,0l0,-4.127l-1.497,0l0,-1.088l4.127,0l0,1.088l-1.497,0Z" style="fill:#401B5C;fill-rule:nonzero;"/>
            </g>
            <g id="text4594">
                <path id="path4613" d="M23.041,284l0,-4.32l-0.883,0l0,-1.063c0.611,0 0.986,-0.206 1.123,-0.617l1.063,0l0,6l-1.303,0Z" style="fill:#401B5C;fill-rule:nonzero;"/>
                <path id="path4615" d="M27.398,284l-2.16,-6l1.414,0l1.294,3.78c0.017,0.04 0.034,0.094 0.051,0.163l0.026,0.094c0.011,-0.051 0.037,-0.137 0.077,-0.257l1.294,-3.78l1.397,0l-2.151,6l-1.243,0l-0,0Z" style="fill:#401B5C;fill-rule:nonzero;"/>
            </g>
            <g id="text4598">
                <path id="path4618" d="M23.385,294c-0.73,0 -1.346,-0.194 -1.846,-0.581l0.666,-1.003c0.393,0.247 0.787,0.371 1.18,0.371c0.309,0 0.553,-0.076 0.733,-0.228c0.18,-0.152 0.27,-0.371 0.27,-0.657c0,-0.225 -0.059,-0.404 -0.177,-0.539c-0.118,-0.14 -0.289,-0.211 -0.514,-0.211c-0.337,0 -0.629,0.14 -0.876,0.421l-1.112,-0.581l0.126,-2.992l3.455,0l0,1.23l-2.275,0l-0.034,0.834c0.27,-0.084 0.511,-0.126 0.725,-0.126c0.624,0 1.104,0.185 1.441,0.556c0.343,0.371 0.514,0.846 0.514,1.424c0,0.635 -0.213,1.14 -0.64,1.517c-0.427,0.376 -0.972,0.565 -1.635,0.565l-0,0Z" style="fill:#401B5C;fill-rule:nonzero;"/>
                <path id="path4620" d="M28.323,293.899l-2.124,-5.899l1.39,0l1.272,3.716c0.017,0.039 0.034,0.093 0.051,0.16l0.025,0.093c0.011,-0.051 0.037,-0.135 0.076,-0.253l1.272,-3.716l1.374,0l-2.115,5.899l-1.222,0Z" style="fill:#401B5C;fill-rule:nonzero;"/>
            </g>
            <g id="text4602">
                <path id="path4623" d="M20.327,304.019l0,-4.26l-0.871,0l0,-1.048c0.603,0 0.972,-0.203 1.107,-0.609l1.048,0l0,5.917l-1.285,0Z" style="fill:#401B5C;fill-rule:nonzero;"/>
                <path id="path4625" d="M25.534,304.12c-0.338,0 -0.64,-0.059 -0.904,-0.178c-0.259,-0.124 -0.471,-0.285 -0.634,-0.482c-0.163,-0.197 -0.299,-0.431 -0.406,-0.702c-0.101,-0.27 -0.175,-0.544 -0.22,-0.82c-0.039,-0.276 -0.059,-0.569 -0.059,-0.879c0,-0.406 0.037,-0.781 0.11,-1.124c0.073,-0.344 0.192,-0.665 0.355,-0.964c0.163,-0.304 0.394,-0.541 0.693,-0.71c0.299,-0.175 0.654,-0.262 1.065,-0.262c0.417,0 0.775,0.087 1.074,0.262c0.299,0.175 0.527,0.414 0.685,0.719c0.163,0.299 0.279,0.62 0.347,0.964c0.073,0.344 0.11,0.716 0.11,1.116c0,0.4 -0.037,0.775 -0.11,1.124c-0.073,0.344 -0.192,0.665 -0.355,0.964c-0.158,0.299 -0.386,0.535 -0.685,0.71c-0.299,0.175 -0.654,0.262 -1.065,0.262l0,-0Zm0,-1.217c0.332,0 0.572,-0.172 0.719,-0.516c0.152,-0.349 0.228,-0.792 0.228,-1.327c0,-0.338 -0.028,-0.637 -0.085,-0.896c-0.051,-0.265 -0.152,-0.487 -0.304,-0.668c-0.147,-0.186 -0.332,-0.279 -0.558,-0.279c-0.332,0 -0.575,0.175 -0.727,0.524c-0.152,0.344 -0.228,0.783 -0.228,1.319c0,0.332 0.028,0.631 0.085,0.896c0.056,0.259 0.158,0.482 0.304,0.668c0.147,0.186 0.335,0.279 0.566,0.279l0,-0Z" style="fill:#401B5C;fill-rule:nonzero;"/>
                <path id="path4627" d="M30.269,304.019l-2.13,-5.917l1.395,0l1.276,3.728c0.017,0.039 0.034,0.093 0.051,0.161l0.025,0.093c0.011,-0.051 0.037,-0.135 0.076,-0.254l1.276,-3.728l1.378,0l-2.122,5.917l-1.226,0l0,0Z" style="fill:#401B5C;fill-rule:nonzero;"/>
            </g>
        </g>
        <g id="text4267">
            <path id="path4274" d="M13.189,65.451l0,4.221l-1.158,0l0,-4.221l-1.531,0l0,-1.112l4.221,0l0,1.112l-1.531,0Z" style="fill:#FDDEA2;fill-rule:nonzero;"/>
            <path id="path4276" d="M15.515,69.672l0,-5.333l2.598,0c0.64,0 1.102,0.16 1.387,0.48c0.289,0.32 0.434,0.734 0.434,1.242c0,0.315 -0.086,0.622 -0.259,0.922c-0.173,0.3 -0.409,0.51 -0.709,0.632l0.998,2.057l-1.295,0l-0.968,-1.882l-1.028,0l0,1.882l-1.158,0Zm1.158,-2.979l1.455,0c0.401,0 0.602,-0.211 0.602,-0.632c0,-0.178 -0.048,-0.325 -0.145,-0.442c-0.091,-0.122 -0.244,-0.183 -0.457,-0.183l-1.455,0l0,1.257l-0,0Z" style="fill:#FDDEA2;fill-rule:nonzero;"/>
            <path id="path4278" d="M22.916,69.763c-0.396,0 -0.749,-0.076 -1.059,-0.229c-0.31,-0.157 -0.556,-0.368 -0.739,-0.632c-0.183,-0.264 -0.323,-0.556 -0.419,-0.876c-0.091,-0.32 -0.137,-0.66 -0.137,-1.021c0,-0.335 0.048,-0.66 0.145,-0.975c0.096,-0.32 0.236,-0.615 0.419,-0.884c0.188,-0.269 0.437,-0.485 0.747,-0.648c0.31,-0.168 0.658,-0.251 1.044,-0.251c0.472,0 0.858,0.109 1.158,0.328c0.305,0.218 0.574,0.515 0.808,0.891l-1.013,0.571c-0.284,-0.452 -0.602,-0.678 -0.952,-0.678c-0.274,0 -0.503,0.091 -0.686,0.274c-0.183,0.178 -0.307,0.383 -0.373,0.617c-0.061,0.234 -0.091,0.485 -0.091,0.754c0,0.462 0.094,0.853 0.282,1.173c0.193,0.315 0.483,0.472 0.869,0.472c0.218,0 0.409,-0.071 0.571,-0.213c0.163,-0.142 0.244,-0.307 0.244,-0.495l0,-0.038l-0.869,0l0,-1.105l2.057,0l0,0.838c0,0.665 -0.188,1.186 -0.564,1.562c-0.371,0.376 -0.851,0.564 -1.44,0.564l0,0Z" style="fill:#FDDEA2;fill-rule:nonzero;"/>
            <rect id="path4280" x="27.799" y="64.339" width="1.158" height="5.333" style="fill:#FDDEA2;fill-rule:nonzero;"/>
            <path id="path4282" d="M34.5,69.672l-1.013,0l-2.011,-2.826c-0.051,-0.066 -0.127,-0.201 -0.229,-0.404c0.015,0.086 0.023,0.221 0.023,0.404l0,2.826l-1.143,0l0,-5.333l1.059,0l1.958,2.796c0.097,0.137 0.17,0.269 0.221,0.396c-0.015,-0.107 -0.023,-0.241 -0.023,-0.404l0,-2.788l1.158,0l0,5.333l0,0Z" style="fill:#FDDEA2;fill-rule:nonzero;"/>
        </g>
        <g id="g4699">
            <path id="rect4231" d="M37.5,114.794l0,41.413c0,0.438 -0.356,0.794 -0.794,0.794l-28.412,0c-0.438,0 -0.794,-0.356 -0.794,-0.794l0,-41.413c0,-0.438 0.356,-0.794 0.794,-0.794l28.412,0c0.438,0 0.794,0.356 0.794,0.794Z" style="fill:#FDBB3C;"/>
            <g id="text4237">
                <path id="path4244" d="M14.83,118.9l0,7.1l-1.948,0l0,-7.1l-2.576,0l0,-1.871l7.1,0l0,1.871l-2.576,0Z" style="fill:#401B5C;fill-rule:nonzero;"/>
                <path id="path4246" d="M18.743,126l0,-8.971l4.37,0c1.077,0 1.854,0.269 2.332,0.807c0.487,0.538 0.731,1.235 0.731,2.089c0,0.53 -0.145,1.047 -0.436,1.551c-0.29,0.504 -0.688,0.859 -1.192,1.064l1.679,3.46l-2.179,0l-1.628,-3.166l-1.73,0l0,3.166l-1.948,0Zm1.948,-5.011l2.448,0c0.675,0 1.012,-0.355 1.012,-1.064c0,-0.299 -0.081,-0.547 -0.244,-0.743c-0.154,-0.205 -0.41,-0.308 -0.769,-0.308l-2.448,0l0,2.115Z" style="fill:#401B5C;fill-rule:nonzero;"/>
                <path id="path4248" d="M31.193,126.154c-0.666,0 -1.26,-0.128 -1.781,-0.384c-0.521,-0.265 -0.936,-0.619 -1.243,-1.064c-0.308,-0.444 -0.543,-0.936 -0.705,-1.474c-0.154,-0.538 -0.231,-1.111 -0.231,-1.717c0,-0.564 0.081,-1.111 0.244,-1.64c0.162,-0.538 0.397,-1.034 0.705,-1.487c0.316,-0.453 0.735,-0.816 1.256,-1.089c0.521,-0.282 1.106,-0.423 1.756,-0.423c0.795,0 1.444,0.184 1.948,0.551c0.513,0.367 0.965,0.867 1.358,1.499l-1.705,0.961c-0.478,-0.76 -1.012,-1.141 -1.602,-1.141c-0.461,0 -0.846,0.154 -1.153,0.461c-0.308,0.299 -0.517,0.645 -0.628,1.038c-0.103,0.393 -0.154,0.816 -0.154,1.269c0,0.777 0.158,1.435 0.474,1.974c0.325,0.53 0.812,0.795 1.461,0.795c0.367,0 0.688,-0.12 0.961,-0.359c0.273,-0.239 0.41,-0.517 0.41,-0.833l0,-0.064l-1.461,0l0,-1.858l3.46,0l0,1.41c0,1.119 -0.316,1.995 -0.948,2.627c-0.624,0.632 -1.431,0.948 -2.422,0.948l-0,-0Z" style="fill:#401B5C;fill-rule:nonzero;"/>
            </g>
        </g>
        <g id="g4692">
            <path id="rect934" d="M37.5,164.794l0,41.413c0,0.438 -0.356,0.794 -0.794,0.794l-28.412,0c-0.438,0 -0.794,-0.356 -0.794,-0.794l0,-41.413c0,-0.438 0.356,-0.794 0.794,-0.794l28.412,0c0.438,0 0.794,0.356 0.794,0.794Z" style="fill:#FDBB3C;"/>
            <g id="text4200">
                <path id="path4207" d="M14.666,177.174c-0.701,0 -1.326,-0.135 -1.874,-0.404c-0.548,-0.279 -0.984,-0.652 -1.308,-1.119c-0.324,-0.467 -0.571,-0.984 -0.742,-1.55c-0.162,-0.566 -0.243,-1.168 -0.243,-1.807c0,-0.593 0.085,-1.168 0.256,-1.726c0.171,-0.566 0.418,-1.088 0.742,-1.564c0.333,-0.476 0.773,-0.858 1.321,-1.146c0.548,-0.297 1.164,-0.445 1.847,-0.445c0.836,0 1.519,0.193 2.049,0.58c0.539,0.386 1.016,0.912 1.429,1.577l-1.793,1.011c-0.503,-0.8 -1.065,-1.2 -1.685,-1.2c-0.485,0 -0.89,0.162 -1.213,0.485c-0.324,0.315 -0.544,0.679 -0.661,1.092c-0.108,0.413 -0.162,0.858 -0.162,1.335c0,0.818 0.166,1.51 0.499,2.076c0.342,0.557 0.854,0.836 1.537,0.836c0.386,0 0.724,-0.126 1.011,-0.377c0.288,-0.252 0.431,-0.544 0.431,-0.876l0,-0.067l-1.537,0l0,-1.955l3.64,0l0,1.483c0,1.177 -0.333,2.099 -0.998,2.764c-0.656,0.665 -1.506,0.998 -2.548,0.998l0,0Z" style="fill:#401B5C;fill-rule:nonzero;"/>
                <path id="path4209" d="M25.563,177.012l-0.701,-1.834l-3.546,0l-0.701,1.834l-2.238,0l3.721,-9.438l1.968,0l3.735,9.438l-2.238,0Zm-1.389,-3.721l-0.809,-2.036c-0.126,-0.306 -0.22,-0.571 -0.283,-0.795c-0.036,0.153 -0.13,0.418 -0.283,0.795l-0.809,2.036l2.184,0Z" style="fill:#401B5C;fill-rule:nonzero;"/>
                <path id="path4211" d="M31.79,169.543l0,7.469l-2.049,0l0,-7.469l-2.71,0l0,-1.968l7.469,0l0,1.968l-2.71,0Z" style="fill:#401B5C;fill-rule:nonzero;"/>
            </g>
        </g>
        <g id="g4685">
            <path id="rect875" d="M37.5,214.794l0,41.412c0,0.438 -0.356,0.794 -0.794,0.794l-28.412,0c-0.438,0 -0.794,-0.356 -0.794,-0.794l0,-41.412c0,-0.438 0.356,-0.794 0.794,-0.794l28.412,0c0.438,0 0.794,0.356 0.794,0.794Z" style="fill:#FDBB3C;"/>
            <g id="text4250">
                <path id="path4257" d="M15.115,219.369l0,7.469l-2.049,0l0,-7.469l-2.71,0l0,-1.968l7.469,0l0,1.968l-2.71,0Z" style="fill:#401B5C;fill-rule:nonzero;"/>
                <path id="path4259" d="M22.823,227c-0.701,0 -1.326,-0.135 -1.874,-0.404c-0.548,-0.279 -0.984,-0.652 -1.308,-1.119c-0.324,-0.467 -0.571,-0.984 -0.742,-1.55c-0.162,-0.566 -0.243,-1.168 -0.243,-1.807c0,-0.593 0.085,-1.168 0.256,-1.726c0.171,-0.566 0.418,-1.088 0.742,-1.564c0.333,-0.476 0.773,-0.858 1.321,-1.146c0.548,-0.297 1.164,-0.445 1.847,-0.445c0.836,0 1.519,0.193 2.049,0.58c0.539,0.386 1.016,0.912 1.429,1.577l-1.793,1.011c-0.503,-0.8 -1.065,-1.2 -1.685,-1.2c-0.485,0 -0.89,0.162 -1.213,0.485c-0.324,0.315 -0.544,0.679 -0.661,1.092c-0.108,0.413 -0.162,0.858 -0.162,1.335c0,0.818 0.166,1.51 0.499,2.076c0.342,0.557 0.854,0.836 1.537,0.836c0.386,0 0.724,-0.126 1.011,-0.377c0.288,-0.252 0.431,-0.544 0.431,-0.876l0,-0.067l-1.537,0l0,-1.955l3.64,0l0,1.483c0,1.177 -0.333,2.099 -0.998,2.764c-0.656,0.665 -1.506,0.998 -2.548,0.998l0,0Z" style="fill:#401B5C;fill-rule:nonzero;"/>
                <path id="path4261" d="M27.921,226.838l0,-9.438l2.049,0l0,7.456l4.53,0l0,1.982l-6.579,0Z" style="fill:#401B5C;fill-rule:nonzero;"/>
            </g>
        </g>
        <rect id="rect5021" x="0" y="0" width="15" height="15" style="fill:#fe9500;"/>
        <g id="text6069">
            <rect id="path6074" x="2.449" y="2" width="2.138" height="10.824" style="fill-rule:nonzero;"/>
            <path id="path6076" d="M5.962,5.653l2.124,0l0,4.506c0,0.667 0.316,1.001 0.947,1.001c0.532,0 0.952,-0.226 1.258,-0.677l0,-4.83l2.138,0l0,5.141l0.122,2.03l-1.908,0l-0.162,-0.907c-0.523,0.722 -1.29,1.082 -2.3,1.082c-0.767,0 -1.33,-0.235 -1.691,-0.704c-0.352,-0.469 -0.528,-1.064 -0.528,-1.786l-0,-4.857Z" style="fill-rule:nonzero;"/>
        </g>
    </g>
    <g id="text">
        <g id="text880">
            <text x="6.818px" y="357.931px" style="font-family:'Arial-BoldMT', 'Arial', sans-serif;font-weight:700;font-size:20.156px;fill:#FDDEA2;">btn</text>
        </g>
        <g id="text851">
            <text x="10.125px" y="177.012px" style="font-family:'OverpassRoman-Regular', 'Overpass';font-size:13.482px;fill:#401B5C;">G<tspan x="19.131px 26.735px " y="177.012px 177.012px ">AT</tspan></text>
        </g>
        <g id="text4213">
            <text x="10.181px" y="125.846px" style="font-family:'OverpassRoman-Regular', 'Overpass';font-size:12.816px;fill:#401B5C;">TR<tspan x="26.002px " y="125.846px ">G</tspan></text>
        </g>
        <g id="text4227">
            <text x="10.208px" y="226.719px" style="font-family:'OverpassRoman-Regular', 'Overpass';font-size:13.482px;fill:#401B5C;">T<tspan x="17.529px " y="226.719px ">G</tspan>L</text>
        </g>
        <g id="text4263">
            <text x="10.693px" y="69.672px" style="font-family:'OverpassRoman-Regular', 'Overpass';font-size:7.618px;fill:#FDDEA2;">TR<tspan x="20.098px " y="69.672px ">G</tspan> IN</text>
        </g>
        <g id="text4210">
            <text x="10.412px" y="273.913px" style="font-family:'OverpassRoman-Regular', 'Overpass';font-size:7.45px;fill:#401B5C;">C<tspan x="15.098px " y="273.913px ">O</tspan>NS<tspan x="30.091px " y="273.913px ">T</tspan></text>
        </g>
        <g id="text4574">
            <text x="22.089px" y="283.984px" style="font-family:'OverpassRoman-Regular', 'Overpass';font-size:8.526px;fill:#401B5C;">1V</text>
        </g>
        <g id="text4586">
            <text x="21.114px" y="294.001px" style="font-family:'OverpassRoman-Regular', 'Overpass';font-size:8.573px;fill:#401B5C;">5<tspan x="26.224px " y="294.001px ">V</tspan></text>
        </g>
        <g id="text4590">
            <text x="19.553px" y="304.001px" style="font-family:'OverpassRoman-Regular', 'Overpass';font-size:8.575px;fill:#401B5C;">10<tspan x="27.871px " y="304.001px ">V</tspan></text>
        </g>
        <g id="text5015">
            <text x="1.428px" y="12.824px" style="font-family:'Arial-BoldMT', 'Arial', sans-serif;font-weight:700;font-size:13.53px;">lu</text>
        </g>
    </g>
</svg>
