<?xml version="1.0" encoding="UTF-8" standalone="no"?>
<!DOCTYPE svg PUBLIC "-//W3C//DTD SVG 1.1//EN" "http://www.w3.org/Graphics/SVG/1.1/DTD/svg11.dtd">
<svg width="45px" height="380px" version="1.1" xmlns="http://www.w3.org/2000/svg" xmlns:xlink="http://www.w3.org/1999/xlink" xml:space="preserve" xmlns:serif="http://www.serif.com/" style="fill-rule:evenodd;clip-rule:evenodd;">
    <g id="background">
        <rect id="rect817" x="-0" y="0" width="75" height="380" style="fill:#202020;"/>
        <g id="text4640">
            <path id="path4645" d="M10.176,347.249l2.741,0l0,2.782l-2.741,0l0,3.85c0,0.618 0.128,1.035 0.383,1.25c0.255,0.215 0.652,0.323 1.189,0.323c0.457,0 0.779,-0.047 0.967,-0.141l0,2.62c-0.309,0.175 -0.88,0.262 -1.713,0.262c-2.674,0 -4.011,-1.324 -4.011,-3.971l0,-4.192l-1.633,0l0,-2.782l1.633,0l0,-3.023l3.185,0l0,3.023l0,-0Z" style="fill:#eee;fill-rule:nonzero;"/>
            <path id="path4647" d="M20.67,358.193c-1.156,0 -2.069,-0.39 -2.741,-1.169l0,4.938l-3.185,0l0,-11.69l-0.181,-3.023l2.842,0l0.222,1.31c0.699,-1.048 1.713,-1.572 3.044,-1.572c2.647,0 3.971,1.747 3.971,5.241l0,0.726c0,3.494 -1.324,5.241 -3.971,5.241l0,0Zm-0.927,-8.465c-0.752,0 -1.357,0.336 -1.814,1.008l0,3.709c0.457,0.672 1.062,1.008 1.814,1.008c1.142,0 1.713,-0.833 1.713,-2.499l0,-0.726c0,-1.666 -0.571,-2.499 -1.713,-2.499Z" style="fill:#eee;fill-rule:nonzero;"/>
        </g>
        <g id="g4652">
            <path id="path4628" d="M26.5,352l11,0" style="fill:none;stroke:#eee;stroke-width:3px;"/>
            <path id="path4638" d="M32.5,357l5,-5l-5,-5" style="fill:none;stroke:#eee;stroke-width:3px;"/>
        </g>
    </g>
    <g id="labels">
        <g id="g4875">
            <path id="rect4855" d="M37.5,42.794l0,28.413c0,0.438 -0.356,0.794 -0.794,0.794l-28.413,0c-0.438,0 -0.794,-0.356 -0.794,-0.794l0,-28.413c0,-0.438 0.356,-0.794 0.794,-0.794l28.413,0c0.438,0 0.794,0.356 0.794,0.794Z" style="fill:#cbcbcb;"/>
            <path id="rect4860" d="M37.5,79.794l0,28.413c0,0.438 -0.356,0.794 -0.794,0.794l-28.413,0c-0.438,0 -0.794,-0.356 -0.794,-0.794l0,-28.413c0,-0.438 0.356,-0.794 0.794,-0.794l28.413,0c0.438,0 0.794,0.356 0.794,0.794Z" style="fill:#cbcbcb;"/>
            <path id="rect4862" d="M37.5,116.794l0,28.413c0,0.438 -0.356,0.794 -0.794,0.794l-28.413,0c-0.438,0 -0.794,-0.356 -0.794,-0.794l0,-28.413c0,-0.438 0.356,-0.794 0.794,-0.794l28.413,0c0.438,0 0.794,0.356 0.794,0.794Z" style="fill:#cbcbcb;"/>
            <path id="rect4865" d="M37.5,153.794l0,28.413c0,0.438 -0.356,0.794 -0.794,0.794l-28.413,0c-0.438,0 -0.794,-0.356 -0.794,-0.794l0,-28.413c0,-0.438 0.356,-0.794 0.794,-0.794l28.413,0c0.438,0 0.794,0.356 0.794,0.794Z" style="fill:#cbcbcb;"/>
            <path id="rect4867" d="M37.5,190.794l0,28.413c0,0.438 -0.356,0.794 -0.794,0.794l-28.413,0c-0.438,0 -0.794,-0.356 -0.794,-0.794l0,-28.413c0,-0.438 0.356,-0.794 0.794,-0.794l28.413,0c0.438,0 0.794,0.356 0.794,0.794Z" style="fill:#cbcbcb;"/>
            <path id="rect4869" d="M37.5,227.794l0,28.413c0,0.438 -0.356,0.794 -0.794,0.794l-28.413,0c-0.438,0 -0.794,-0.356 -0.794,-0.794l0,-28.413c0,-0.438 0.356,-0.794 0.794,-0.794l28.413,0c0.438,0 0.794,0.356 0.794,0.794Z" style="fill:#cbcbcb;"/>
            <path id="rect4871" d="M37.5,264.794l0,28.413c0,0.438 -0.356,0.794 -0.794,0.794l-28.413,0c-0.438,0 -0.794,-0.356 -0.794,-0.794l0,-28.413c0,-0.438 0.356,-0.794 0.794,-0.794l28.413,0c0.438,0 0.794,0.356 0.794,0.794Z" style="fill:#cbcbcb;"/>
            <path id="rect4873" d="M37.5,301.794l0,28.413c0,0.438 -0.356,0.794 -0.794,0.794l-28.413,0c-0.438,0 -0.794,-0.356 -0.794,-0.794l0,-28.413c0,-0.438 0.356,-0.794 0.794,-0.794l28.413,0c0.438,0 0.794,0.356 0.794,0.794Z" style="fill:#cbcbcb;"/>
        </g>
        <rect id="rect4306" x="-0" y="-0" width="15" height="15" style="fill:#fe9500;"/>
        <g id="text4312">
            <rect id="path4317" x="2.5" y="2" width="2.116" height="10.715" style="fill:#202020;fill-rule:nonzero;"/>
            <path id="path4319" d="M5.977,5.616l2.103,0l0,4.46c0,0.661 0.313,0.991 0.938,0.991c0.527,0 0.942,-0.223 1.246,-0.67l0,-4.782l2.116,0l0,5.09l0.121,2.009l-1.888,0l-0.161,-0.897c-0.518,0.714 -1.277,1.071 -2.277,1.071c-0.759,0 -1.317,-0.232 -1.674,-0.696c-0.348,-0.464 -0.522,-1.054 -0.522,-1.768l0,-4.808Z" style="fill:#202020;fill-rule:nonzero;"/>
        </g>
    </g>
</svg>
