<?xml version="1.0" encoding="UTF-8" standalone="no"?>
<svg
   xmlns:dc="http://purl.org/dc/elements/1.1/"
   xmlns:cc="http://creativecommons.org/ns#"
   xmlns:rdf="http://www.w3.org/1999/02/22-rdf-syntax-ns#"
   xmlns:svg="http://www.w3.org/2000/svg"
   xmlns="http://www.w3.org/2000/svg"
   xmlns:sodipodi="http://sodipodi.sourceforge.net/DTD/sodipodi-0.dtd"
   xmlns:inkscape="http://www.inkscape.org/namespaces/inkscape"
   sodipodi:docname="1f (inkscape render)v2.svg"
   inkscape:version="1.0 (4035a4f, 2020-05-01)"
   id="svg6790"
   version="1.1"
   viewBox="0 0 10.16 128.5"
   height="128.5mm"
   width="10.16mm">
  <defs
     id="defs6784" />
  <sodipodi:namedview
     inkscape:window-maximized="0"
     inkscape:window-y="48"
     inkscape:window-x="239"
     inkscape:window-height="855"
     inkscape:window-width="1252"
     showgrid="false"
     inkscape:document-rotation="0"
     inkscape:current-layer="layer1"
     inkscape:document-units="mm"
     inkscape:cy="254.10558"
     inkscape:cx="189.46903"
     inkscape:zoom="1.2181286"
     inkscape:pageshadow="2"
     inkscape:pageopacity="0.0"
     borderopacity="1.0"
     bordercolor="#666666"
     pagecolor="#ffffff"
     id="base" />
  <metadata
     id="metadata6787">
    <rdf:RDF>
      <cc:Work
         rdf:about="">
        <dc:format>image/svg+xml</dc:format>
        <dc:type
           rdf:resource="http://purl.org/dc/dcmitype/StillImage" />
        <dc:title></dc:title>
      </cc:Work>
    </rdf:RDF>
  </metadata>
  <g
     id="layer1"
     inkscape:groupmode="layer"
     inkscape:label="Layer 1">
    <g
       id="Layer_3"
       transform="scale(0.3527778,0.3528281)"
       style="fill:#1e1e1e;fill-opacity:1">
      <rect
         class="st0"
         width="28.799999"
         height="364.20001"
         id="rect5776"
         x="0"
         y="0"
         style="fill:#1e1e1e;fill-opacity:1" />
    </g>
    <g
       id="Layer_2"
       transform="scale(0.3527778,0.35273128)">
      <g
         id="g5781">
        <path
           class="st1"
           d="m 14.4,329.9 c -2.6,0 -4.8,-2.1 -4.8,-4.8 0,-2.7 2.1,-4.8 4.8,-4.8 2.6,0 4.8,2.1 4.8,4.8 0,2.7 -2.2,4.8 -4.8,4.8 z m 0,-9.1 c -2.4,0 -4.3,1.9 -4.3,4.3 0,2.4 1.9,4.3 4.3,4.3 2.4,0 4.3,-1.9 4.3,-4.3 0,-2.4 -1.9,-4.3 -4.3,-4.3 z"
           id="path5779" />
      </g>
    </g>
    <g
       style="fill:#e0c490;fill-opacity:1"
       id="g5788"
       transform="scale(0.3527778,0.35273128)">
      <g
         style="fill:#e0c490;fill-opacity:1"
         id="g5786">
        <rect
           style="fill:#e0c490;fill-opacity:1"
           x="0"
           id="rect5784"
           height="3"
           width="18.1"
           class="st2"
           y="344" />
      </g>
    </g>
    <polygon
       style="fill:#e0c490;fill-opacity:1"
       id="polygon5790"
       points="20.9,10.8 16.3,2.9 25.5,2.9 "
       class="st2"
       transform="scale(0.3527778,0.35273128)" />
    <g
       style="fill:#e0c490;fill-opacity:1"
       id="g5794"
       transform="scale(0.3527778,0.35273128)">
      <polygon
         style="fill:#e0c490;fill-opacity:1"
         id="polygon5792"
         points="21.3,11.5 26.3,2.9 27,2.9 21.7,12.1 21.6,12.1 "
         class="st2" />
    </g>
    <g
       style="fill:#e0c490;fill-opacity:1"
       id="g5798"
       transform="scale(0.3527778,0.35273128)">
      <polygon
         style="fill:#e0c490;fill-opacity:1"
         id="polygon5796"
         points="19.4,13.4 20.9,10.8 21.3,11.5 20,13.7 "
         class="st2" />
    </g>
    <polygon
       style="fill:#e0c490;fill-opacity:1"
       id="polygon5800"
       points="26.2,1.6 27,1.6 26.3,2.9 25.5,2.9 "
       class="st2"
       transform="scale(0.3527778,0.35273128)" />
    <g
       style="fill:#e0c490;fill-opacity:1"
       id="g5804"
       transform="scale(0.3527778,0.35273128)">
      <polygon
         style="fill:#e0c490;fill-opacity:1"
         id="polygon5802"
         points="22.4,13.4 27,21.4 17.8,21.4 "
         class="st2" />
    </g>
    <g
       style="fill:#e0c490;fill-opacity:1"
       id="g5808"
       transform="scale(0.3527778,0.35273128)">
      <polygon
         style="fill:#e0c490;fill-opacity:1"
         id="polygon5806"
         points="22,12.8 17,21.4 16.3,21.4 21.6,12.2 21.7,12.2 "
         class="st2" />
    </g>
    <g
       style="fill:#e0c490;fill-opacity:1"
       id="g5812"
       transform="scale(0.3527778,0.35273128)">
      <polygon
         style="fill:#e0c490;fill-opacity:1"
         id="polygon5810"
         points="23.8,10.9 22.4,13.4 22,12.8 23.3,10.6 "
         class="st2" />
    </g>
    <g
       style="fill:#e0c490;fill-opacity:1"
       id="g5816"
       transform="scale(0.3527778,0.35273128)">
      <polygon
         style="fill:#e0c490;fill-opacity:1"
         id="polygon5814"
         points="17,21.4 17.8,21.4 17.1,22.7 16.3,22.7 "
         class="st2" />
    </g>
    <g
       style="fill:#e0c490;fill-opacity:1"
       id="g5830"
       transform="scale(0.3527778,0.35273128)">
      <g
         style="fill:#e0c490;fill-opacity:1"
         id="g5820">
        <path
           style="fill:#e0c490;fill-opacity:1"
           id="path5818"
           d="m 11.8,337.5 v 4.8 h 0.6 v 0.4 h -1 V 337 h 1 v 0.4 h -0.6 z"
           class="st2" />
      </g>
      <g
         style="fill:#e0c490;fill-opacity:1"
         id="g5824">
        <path
           style="fill:#e0c490;fill-opacity:1"
           id="path5822"
           d="m 14.3,337.9 h -0.7 l 0.2,-0.4 h 0.9 v 4.1 h -0.5 v -3.7 z"
           class="st2" />
      </g>
      <g
         style="fill:#e0c490;fill-opacity:1"
         id="g5828">
        <path
           style="fill:#e0c490;fill-opacity:1"
           id="path5826"
           d="m 17,342.2 v -4.8 H 16.4 V 337 h 1 v 5.6 h -1 v -0.4 z"
           class="st2" />
      </g>
    </g>
    <g
       style="fill:#e0c490;fill-opacity:1"
       id="g5836"
       transform="scale(0.3527778,0.35273128)">
      <g
         style="fill:#e0c490;fill-opacity:1"
         id="g5834">
        <path
           style="fill:#e0c490;fill-opacity:1"
           id="path5832"
           d="m 23.5,348.5 v 8.2 h -1.7 v -8.2 H 20.9 V 347 h 0.9 v -4.2 c 0,-0.9 0.1,-2 0.9,-2.7 0.5,-0.4 1.2,-0.6 1.9,-0.6 0.6,0 1,0.1 1.2,0.2 v 1.6 c -0.4,-0.1 -0.7,-0.2 -1.1,-0.2 -0.4,0 -0.8,0.1 -1.1,0.5 -0.2,0.3 -0.2,0.9 -0.2,1.4 v 4 h 2.4 v 1.5 z"
           class="st2" />
      </g>
    </g>
    <g
       style="fill:#e0c490;fill-opacity:1"
       id="g5842"
       transform="scale(0.3527778,0.35273128)">
      <g
         style="fill:#e0c490;fill-opacity:1"
         id="g5840">
        <path
           style="fill:#e0c490;fill-opacity:1"
           id="path5838"
           d="m 14.3,97 h -0.9 l 0.3,-0.6 h 1.2 v 5.3 h -0.6 z"
           class="st2" />
      </g>
    </g>
    <g
       style="fill:#e0c490;fill-opacity:1"
       id="g5848"
       transform="scale(0.3527778,0.35273128)">
      <g
         style="fill:#e0c490;fill-opacity:1"
         id="g5846">
        <path
           style="fill:#e0c490;fill-opacity:1"
           id="path5844"
           d="m 2.4,27.7 c 0,-1.6 1.2,-2.8 2.8,-2.8 1.6,0 2.8,1.2 2.8,2.8 0,1.6 -1.2,2.8 -2.8,2.8 C 3.6,30.4 2.4,29.2 2.4,27.7 Z m 0.6,0 c 0,1.2 1,2.2 2.2,2.2 1.2,0 2.2,-1 2.2,-2.2 0,-1.2 -1,-2.2 -2.2,-2.2 C 4,25.5 3,26.4 3,27.7 Z"
           class="st2" />
      </g>
    </g>
    <g
       style="fill:#e0c490;fill-opacity:1"
       id="g5854"
       transform="scale(0.3527778,0.35273128)">
      <g
         style="fill:#e0c490;fill-opacity:1"
         id="g5852">
        <path
           style="fill:#e0c490;fill-opacity:1"
           id="path5850"
           d="m 12.3,179 2.2,-2.5 c 0.2,-0.2 0.6,-0.7 0.7,-0.9 0.3,-0.4 0.3,-0.7 0.3,-0.9 0,-0.7 -0.5,-1.2 -1.2,-1.2 -0.4,0 -0.8,0.2 -1,0.5 -0.1,0.2 -0.2,0.4 -0.2,0.7 h -0.7 c 0,-0.6 0.2,-1 0.5,-1.2 0.3,-0.3 0.7,-0.6 1.4,-0.6 1.1,0 1.9,0.8 1.9,1.8 0,0.4 -0.1,0.8 -0.5,1.3 -0.3,0.4 -0.6,0.7 -0.8,1 l -1.3,1.4 h 2.5 v 0.6 z"
           class="st2" />
      </g>
    </g>
    <g
       style="fill:#e0c490;fill-opacity:1"
       id="g5858"
       transform="scale(0.3527778,0.35273128)">
      <path
         style="fill:#e0c490;fill-opacity:1"
         id="path5856"
         d="M 25.5,309.8 H 3.3 v -122 h 22.3 v 122 z m -19.2,-3 h 16.3 v -116 H 6.3 Z"
         class="st2" />
    </g>
    <g
       style="fill:#e0c490;fill-opacity:1"
       id="g5864"
       transform="scale(0.3527778,0.35273128)">
      <g
         style="fill:#e0c490;fill-opacity:1"
         id="g5862">
        <path
           style="fill:#e0c490;fill-opacity:1"
           id="path5860"
           d="m 22.9,72.7 v 2.5 h 2.4 v 0.6 h -2.4 v 2.5 h -0.7 v -2.5 h -2.4 v -0.6 h 2.4 v -2.5 z"
           class="st2" />
      </g>
    </g>
    <g
       style="fill:#e0c490;fill-opacity:1"
       id="g5870"
       transform="scale(0.3527778,0.35273128)">
      <g
         style="fill:#e0c490;fill-opacity:1"
         id="g5868">
        <path
           style="fill:#e0c490;fill-opacity:1"
           id="path5866"
           d="m 24.8,87.8 v 0.6 H 20 v -0.6 z"
           class="st2" />
      </g>
    </g>
    <g
       style="fill:#e0c490;fill-opacity:1"
       id="g5886"
       transform="scale(0.3527778,0.35273128)">
      <g
         style="fill:#e0c490;fill-opacity:1"
         id="g5876">
        <g
           style="fill:#e0c490;fill-opacity:1"
           id="g5874">
          <rect
             style="fill:#e0c490;fill-opacity:1"
             id="rect5872"
             height="1"
             width="0.5"
             class="st2"
             transform="matrix(0.9997,-0.02398783,0.02398783,0.9997,-3.159,0.5937)"
             y="131.5"
             x="22.9" />
        </g>
      </g>
      <g
         style="fill:#e0c490;fill-opacity:1"
         id="g5884">
        <g
           style="fill:#e0c490;fill-opacity:1"
           id="g5882">
          <g
             style="fill:#e0c490;fill-opacity:1"
             id="g5880">
            <path
               style="fill:#e0c490;fill-opacity:1"
               id="path5878"
               d="m 22.5,132 -1.1,1.8 h 0.1 l 2.9,-1.2 c 1,-0.2 2,-0.5 3.1,-0.8 -1,-0.2 -2.1,-0.4 -3.1,-0.6 l -3,-1.1 h -0.1 z"
               class="st2" />
          </g>
        </g>
      </g>
    </g>
    <g
       style="fill:#e0c490;fill-opacity:1"
       id="g5890"
       transform="scale(0.3527778,0.35273128)">
      <path
         style="fill:#e0c490;fill-opacity:1"
         id="path5888"
         d="m 15.4,136.4 -0.6,-0.6 3.2,-3.2 c 0.6,-0.6 1.5,-1 2.3,-1 h 2.6 v 0.9 h -2.6 c -0.6,0 -1.2,0.2 -1.7,0.7 z"
         class="st2" />
    </g>
    <g
       style="fill:#e0c490;fill-opacity:1"
       id="g5894"
       transform="scale(0.3527778,0.35273128)">
      <path
         style="fill:#e0c490;fill-opacity:1"
         id="path5892"
         d="M 8,142.5 H 1.3 v -0.9 H 8 c 0.6,0 1.2,-0.2 1.7,-0.7 l 3.2,-3.2 0.6,0.6 -3.2,3.2 c -0.6,0.6 -1.4,1 -2.3,1 z"
         class="st2" />
    </g>
    <g
       style="fill:#e0c490;fill-opacity:1"
       id="g5910"
       transform="scale(0.3527778,0.35273128)">
      <g
         style="fill:#e0c490;fill-opacity:1"
         id="g5900">
        <g
           style="fill:#e0c490;fill-opacity:1"
           id="g5898">
          <rect
             style="fill:#e0c490;fill-opacity:1"
             id="rect5896"
             height="0.5"
             width="1"
             class="st2"
             transform="matrix(0.02398783,-0.9997,0.9997,0.02398783,-119.38,161.7889)"
             y="141.8"
             x="22.700001" />
        </g>
      </g>
      <g
         style="fill:#e0c490;fill-opacity:1"
         id="g5908">
        <g
           style="fill:#e0c490;fill-opacity:1"
           id="g5906">
          <g
             style="fill:#e0c490;fill-opacity:1"
             id="g5904">
            <path
               style="fill:#e0c490;fill-opacity:1"
               id="path5902"
               d="m 22.5,142 -1.1,-1.8 h 0.1 l 2.9,1.2 c 1,0.2 2,0.5 3.1,0.8 -1,0.2 -2.1,0.4 -3.1,0.6 l -3,1.1 h -0.1 z"
               class="st2" />
          </g>
        </g>
      </g>
    </g>
    <g
       style="fill:#e0c490;fill-opacity:1"
       id="g5914"
       transform="scale(0.3527778,0.35273128)">
      <path
         style="fill:#e0c490;fill-opacity:1"
         id="path5912"
         d="m 22.9,142.4 h -2.6 c -0.9,0 -1.7,-0.3 -2.3,-1 L 9.6,133 c -0.4,-0.4 -1,-0.7 -1.7,-0.7 H 1.3 v -0.9 H 8 c 0.9,0 1.7,0.3 2.3,1 l 8.4,8.4 c 0.5,0.5 1,0.7 1.7,0.7 H 23 v 0.9 z"
         class="st2" />
    </g>
    <path
       style="fill:#e0c490;fill-opacity:1;stroke-width:0.352756"
       id="path5916"
       d="M 9.136945,28.394869 H 5.5386113 V 25.678837 H 2.081389 v 5.96116 H 5.5386113 V 28.923964 H 9.136945 Z M 5.1858336,31.251991 H 2.4341668 v -5.220422 h 2.7516668 z"
       class="st3" />
    <g
       style="fill:#e0c490;fill-opacity:1"
       id="g5934"
       transform="scale(0.3527778,0.35273128)">
      <g
         style="fill:#e0c490;fill-opacity:1"
         id="g5920">
        <path
           style="fill:#e0c490;fill-opacity:1"
           id="path5918"
           d="M 6.5,66.2 H 5.9 L 6.1,65.8 H 7 v 4 H 6.5 Z"
           class="st2" />
      </g>
      <g
         style="fill:#e0c490;fill-opacity:1"
         id="g5924">
        <path
           style="fill:#e0c490;fill-opacity:1"
           id="path5922"
           d="m 10.5,68.7 c 0,0.6 -0.4,1.2 -1.2,1.2 -0.8,0 -1.2,-0.6 -1.2,-1.2 0,-0.4 0.2,-0.8 0.6,-1 -0.3,-0.2 -0.5,-0.5 -0.5,-0.9 0,-0.6 0.4,-1.1 1.1,-1.1 0.7,0 1.1,0.5 1.1,1.1 0,0.4 -0.2,0.7 -0.5,0.9 0.4,0.2 0.6,0.6 0.6,1 z m -0.4,0 c 0,-0.4 -0.3,-0.8 -0.8,-0.8 -0.5,0 -0.8,0.3 -0.8,0.8 0,0.5 0.3,0.8 0.8,0.8 0.5,0 0.8,-0.3 0.8,-0.8 z M 10,66.9 c 0,-0.4 -0.3,-0.7 -0.7,-0.7 -0.4,0 -0.7,0.3 -0.7,0.7 0,0.4 0.3,0.7 0.7,0.7 0.4,0 0.7,-0.3 0.7,-0.7 z"
           class="st2" />
      </g>
      <g
         style="fill:#e0c490;fill-opacity:1"
         id="g5928">
        <path
           style="fill:#e0c490;fill-opacity:1"
           id="path5926"
           d="m 11.7,69.3 c -0.3,-0.4 -0.4,-0.9 -0.4,-1.5 0,-0.6 0.1,-1.1 0.4,-1.5 0.3,-0.4 0.7,-0.6 1,-0.6 0.3,0 0.7,0.2 1,0.6 0.3,0.4 0.4,0.9 0.4,1.5 0,0.6 -0.1,1.1 -0.4,1.5 -0.3,0.4 -0.7,0.6 -1,0.6 -0.3,0 -0.7,-0.2 -1,-0.6 z M 12,66.6 c -0.2,0.3 -0.3,0.8 -0.3,1.2 0,0.4 0.1,0.9 0.3,1.2 0.2,0.3 0.5,0.4 0.7,0.4 0.2,0 0.5,-0.1 0.7,-0.4 0.2,-0.3 0.3,-0.8 0.3,-1.2 0,-0.4 -0.1,-0.9 -0.3,-1.2 -0.2,-0.3 -0.5,-0.4 -0.7,-0.4 -0.2,0 -0.5,0.1 -0.7,0.4 z"
           class="st2" />
      </g>
      <g
         style="fill:#e0c490;fill-opacity:1"
         id="g5932">
        <path
           style="fill:#e0c490;fill-opacity:1"
           id="path5930"
           d="m 16.2,66.1 c 0.1,0.1 0.2,0.3 0.2,0.6 0,0.3 -0.1,0.5 -0.2,0.6 -0.1,0.1 -0.3,0.3 -0.7,0.3 -0.3,0 -0.5,-0.1 -0.6,-0.2 -0.1,-0.1 -0.2,-0.4 -0.2,-0.6 0,-0.2 0,-0.4 0.2,-0.6 0.1,-0.1 0.3,-0.3 0.7,-0.3 0.2,-0.1 0.4,0 0.6,0.2 z m 0.2,1.7 v 0.3 H 14.8 V 67.8 Z M 15.1,66.2 C 15,66.4 15,66.5 15,66.7 c 0,0.2 0.1,0.3 0.2,0.4 0.1,0.1 0.2,0.2 0.4,0.2 0.1,0 0.3,-0.1 0.4,-0.2 0.1,-0.1 0.1,-0.2 0.1,-0.4 0,-0.2 -0.1,-0.3 -0.2,-0.4 -0.1,-0.1 -0.2,-0.1 -0.4,-0.1 -0.2,-0.1 -0.3,0 -0.4,0 z"
           class="st2" />
      </g>
    </g>
    <g
       id="Hardware"
       transform="scale(0.3527778,0.35273128)">
      <g
         id="g6012"
         style="fill:#4d4d4d;fill-opacity:1">
        <path
           class="st18"
           d="m 14.4,331.2 c -3.4,0 -6.2,-2.7 -6.2,-6.1 0,-3.4 2.8,-6.1 6.2,-6.1 3.4,0 6.1,2.7 6.1,6.1 0,3.4 -2.7,6.1 -6.1,6.1 z m 1.7,-3.2 1.7,-2.9 -1.7,-2.9 h -3.4 l -1.7,2.9 1.7,2.9 z"
           id="path6010"
           style="fill:#4d4d4d;fill-opacity:1" />
      </g>
      <g
         id="g6018"
         style="fill:#999999;fill-opacity:1">
        <path
           class="st19"
           d="m 14.4,318.8 c -3.5,0 -6.4,2.8 -6.4,6.3 0,3.5 2.9,6.4 6.4,6.4 3.5,0 6.4,-2.8 6.4,-6.4 0,-3.5 -2.9,-6.3 -6.4,-6.3 z m 0,12.1 c -3.3,0 -5.9,-2.6 -5.9,-5.9 0,-3.3 2.6,-5.8 5.9,-5.8 3.3,0 5.9,2.6 5.9,5.8 0,3.2 -2.6,5.9 -5.9,5.9 z"
           id="path6014"
           style="fill:#999999;fill-opacity:1" />
        <path
           class="st19"
           d="m 16.6,321.3 h -4.3 l -2.2,3.8 2.2,3.8 h 4.3 l 2.2,-3.8 z m -3.7,6.4 -1.5,-2.7 1.5,-2.6 H 16 l 1.5,2.6 -1.5,2.7 z"
           id="path6016"
           style="fill:#999999;fill-opacity:1" />
      </g>
    </g>
  </g>
</svg>
