<?xml version="1.0" encoding="UTF-8" standalone="no"?>
<!-- Generator: Adobe Illustrator 26.2.0, SVG Export Plug-In . SVG Version: 6.00 Build 0)  -->

<svg
   version="1.1"
   id="Layer_1"
   x="0px"
   y="0px"
   viewBox="0 0 51.023621 51.023619"
   xml:space="preserve"
   sodipodi:docname="big brass nut (inkscape render)v2.svg"
   width="13.5mm"
   height="13.5mm"
   inkscape:version="1.2 (dc2aeda, 2022-05-15)"
   xmlns:inkscape="http://www.inkscape.org/namespaces/inkscape"
   xmlns:sodipodi="http://sodipodi.sourceforge.net/DTD/sodipodi-0.dtd"
   xmlns="http://www.w3.org/2000/svg"
   xmlns:svg="http://www.w3.org/2000/svg"><defs
   id="defs5841" /><sodipodi:namedview
   id="namedview5839"
   pagecolor="#ffffff"
   bordercolor="#000000"
   borderopacity="0.25"
   inkscape:showpageshadow="2"
   inkscape:pageopacity="0.0"
   inkscape:pagecheckerboard="0"
   inkscape:deskcolor="#d1d1d1"
   showgrid="false"
   inkscape:zoom="9.5030294"
   inkscape:cx="28.780296"
   inkscape:cy="21.624683"
   inkscape:window-width="1728"
   inkscape:window-height="1051"
   inkscape:window-x="0"
   inkscape:window-y="38"
   inkscape:window-maximized="0"
   inkscape:current-layer="Layer_1"
   inkscape:document-units="mm" />
<style
   type="text/css"
   id="style5824">
	.st0{fill:#CAAF80;}
	.st1{fill:#E1C490;}
	.st2{fill:#C8AF81;stroke:#93815F;stroke-linecap:round;stroke-linejoin:round;stroke-miterlimit:10;}
	.st3{fill:#231E21;}
</style>
<g
   id="g5828"
   transform="matrix(1.3336023,0,0,1.3336023,-535.28131,-371.66164)"
   style="fill:#caaf80;fill-opacity:1">
	<circle
   class="st0"
   cx="420.51001"
   cy="297.82001"
   r="19.129999"
   id="circle5826"
   style="fill:#caaf80;fill-opacity:1" />
</g>
<circle
   class="st1"
   cx="25.51181"
   cy="25.618496"
   id="circle5830"
   style="stroke-width:1.33361;fill:#e1c490;fill-opacity:1"
   r="21.924423" />
<g
   id="CIRCLE_13_"
   transform="matrix(1.3336023,0,0,1.3336023,-535.28131,-371.66164)"
   style="fill:#c8af81;fill-opacity:1;stroke:#93815f;stroke-opacity:1">
	<path
   class="st2"
   d="m 408.62,297.82 c 0,-6.57 5.32,-11.89 11.89,-11.89 6.57,0 11.89,5.32 11.89,11.89 0,6.57 -5.32,11.89 -11.89,11.89 -6.57,0 -11.89,-5.32 -11.89,-11.89 z"
   id="path5832"
   style="fill:#c8af81;fill-opacity:1;stroke:#93815f;stroke-opacity:1" />
</g>
<g
   id="CIRCLE_16_"
   transform="matrix(1.3336023,0,0,1.3336023,-535.28131,-371.66164)"
   style="fill:#231e21;fill-opacity:1">
	<path
   class="st3"
   d="m 410.72,297.82 c 0,-5.41 4.38,-9.79 9.79,-9.79 5.41,0 9.79,4.38 9.79,9.79 0,5.41 -4.38,9.79 -9.79,9.79 -5.41,0 -9.79,-4.38 -9.79,-9.79 z"
   id="path5835"
   style="fill:#231e21;fill-opacity:1" />
</g>
</svg>
