<?xml version="1.0" encoding="UTF-8" standalone="no"?>
<svg
   xmlns:dc="http://purl.org/dc/elements/1.1/"
   xmlns:cc="http://creativecommons.org/ns#"
   xmlns:rdf="http://www.w3.org/1999/02/22-rdf-syntax-ns#"
   xmlns:svg="http://www.w3.org/2000/svg"
   xmlns="http://www.w3.org/2000/svg"
   xmlns:sodipodi="http://sodipodi.sourceforge.net/DTD/sodipodi-0.dtd"
   xmlns:inkscape="http://www.inkscape.org/namespaces/inkscape"
   version="1.1"
   id="Layer_1"
   x="0px"
   y="0px"
   viewBox="0 0 153.6 485.66932"
   xml:space="preserve"
   sodipodi:docname="ceis faceplate (inkscape render) v2.svg"
   width="40.639999mm"
   height="128.5mm"
   inkscape:version="1.0 (4035a4f, 2020-05-01)"><metadata
   id="metadata2854"><rdf:RDF><cc:Work
       rdf:about=""><dc:format>image/svg+xml</dc:format><dc:type
         rdf:resource="http://purl.org/dc/dcmitype/StillImage" /><dc:title></dc:title></cc:Work></rdf:RDF></metadata><defs
   id="defs2852" /><sodipodi:namedview
   inkscape:document-rotation="0"
   pagecolor="#ffffff"
   bordercolor="#666666"
   borderopacity="1"
   objecttolerance="10"
   gridtolerance="10"
   guidetolerance="10"
   inkscape:pageopacity="0"
   inkscape:pageshadow="2"
   inkscape:window-width="1440"
   inkscape:window-height="855"
   id="namedview2850"
   showgrid="false"
   inkscape:document-units="mm"
   units="mm"
   inkscape:zoom="1.1657326"
   inkscape:cx="-153.48041"
   inkscape:cy="240.33914"
   inkscape:window-x="0"
   inkscape:window-y="23"
   inkscape:window-maximized="0"
   inkscape:current-layer="Layer_1" />
<style
   type="text/css"
   id="style2641">
	.st0{fill:#1E1E1E;}
	.st1{fill:#E0C490;}
</style>
<g
   style="fill:#1f1f1f;fill-opacity:1"
   id="g2649"
   transform="scale(1.3333335,1.3331577)">
	<g
   style="fill:#1f1f1f;fill-opacity:1"
   id="g2647">
		<g
   style="fill:#1f1f1f;fill-opacity:1"
   id="g2645">
			<rect
   style="fill:#1f1f1f;fill-opacity:1"
   class="st0"
   width="115.2"
   height="364.29999"
   id="rect2643"
   x="0"
   y="0" />
		</g>
	</g>
</g>
<g
   id="g2659"
   transform="scale(1.3333335,1.3331577)"
   style="fill:#e0c490;fill-opacity:1">
	<path
   class="st1"
   d="m 110.1,68.6 h -9.6 V 53.1 h -3 v 15.5 h -9.6 v 122.1 h 9.6 v 14.6 h 3 v -14.6 h 9.6 z m -3,119 H 90.9 v -116 h 16.3 v 116 z"
   id="path2651"
   style="fill:#e0c490;fill-opacity:1" />
	<path
   class="st1"
   d="m 17.7,53.1 h -3 V 68.6 H 5.1 v 122.1 h 9.6 v 14.6 h 3 v -14.6 h 9.6 V 68.6 h -9.6 z m 6.6,134.5 H 8.1 v -116 h 16.3 v 116 z"
   id="path2653"
   style="fill:#e0c490;fill-opacity:1" />
	<path
   class="st1"
   d="m 45.4,53.1 h -3 v 15.5 h -9.7 v 122.1 h 9.7 v 14.6 h 3 V 190.7 H 55 V 68.6 H 45.4 Z M 52,187.6 H 35.7 V 71.6 H 52 Z"
   id="path2655"
   style="fill:#e0c490;fill-opacity:1" />
	<path
   class="st1"
   d="m 72.8,53.1 h -3 v 15.5 h -9.7 v 122.1 h 9.7 v 14.6 h 3 v -14.6 h 9.6 V 68.6 h -9.6 z m 6.7,134.5 H 63.2 v -116 h 16.3 z"
   id="path2657"
   style="fill:#e0c490;fill-opacity:1" />
</g>
<g
   id="g2663"
   transform="scale(1.3333335,1.3331577)"
   style="fill:#e0c490;fill-opacity:1">
	<polygon
   class="st1"
   points="17.7,281.8 14.7,281.8 14.7,267.6 17.7,267.6 "
   id="polygon2661"
   style="fill:#e0c490;fill-opacity:1" />
</g>
<g
   id="g2667"
   transform="scale(1.3333335,1.3331577)"
   style="fill:#e0c490;fill-opacity:1">
	<rect
   x="19.9"
   y="295"
   transform="matrix(0.9401,-0.3408,0.3408,0.9401,-102.0817,25.4592)"
   class="st1"
   width="3"
   height="16.6"
   id="rect2665"
   style="fill:#e0c490;fill-opacity:1" />
</g>
<g
   id="g2689"
   transform="scale(1.3333335,1.3331577)"
   style="fill:#e0c490;fill-opacity:1">
	<g
   id="g2671"
   style="fill:#e0c490;fill-opacity:1">
		<path
   class="st1"
   d="M 41,19.5 V 4.2 l 11.4,12 V 4.9 H 54 V 20.2 L 42.6,8.2 v 11.3 z"
   id="path2669"
   style="fill:#e0c490;fill-opacity:1" />
	</g>
	<g
   id="g2675"
   style="fill:#e0c490;fill-opacity:1">
		<path
   class="st1"
   d="M 64.4,7.7 C 64.2,7.3 63.9,6.9 63.5,6.6 63.2,6.4 62.7,6.1 61.8,6.1 c -1.5,0 -2.5,0.9 -2.5,2.3 0,0.6 0.2,0.9 0.6,1.3 0.4,0.4 1,0.7 1.5,0.9 l 1.4,0.6 c 0.9,0.4 1.7,0.8 2.3,1.4 0.7,0.7 1.1,1.6 1.1,2.7 0,2.7 -2,4.5 -4.6,4.5 -1,0 -2.2,-0.2 -3.2,-1.2 C 57.7,17.9 57.2,16.9 57,16 l 1.6,-0.4 c 0.1,0.8 0.5,1.4 0.9,1.9 0.6,0.6 1.4,0.8 2.1,0.8 2,0 2.9,-1.4 2.9,-2.9 0,-0.7 -0.2,-1.2 -0.7,-1.7 -0.4,-0.4 -1,-0.7 -1.8,-1 l -1.3,-0.6 c -0.6,-0.3 -1.3,-0.6 -2,-1.2 -0.6,-0.6 -1,-1.3 -1,-2.4 0,-2.3 1.7,-3.8 4.1,-3.8 0.9,0 1.6,0.2 2.4,0.7 0.6,0.4 1.1,1 1.4,1.6 z"
   id="path2673"
   style="fill:#e0c490;fill-opacity:1" />
	</g>
	<g
   id="g2679"
   style="fill:#e0c490;fill-opacity:1">
		<path
   class="st1"
   d="M 71.9,6.4 V 19.5 H 70.3 V 6.4 H 66.7 V 4.9 h 8.8 v 1.5 z"
   id="path2677"
   style="fill:#e0c490;fill-opacity:1" />
	</g>
	<g
   id="g2683"
   style="fill:#e0c490;fill-opacity:1">
		<path
   class="st1"
   d="m 80,4.9 c 1,0 2.5,0.1 3.6,0.8 0.9,0.6 1.6,1.7 1.6,3.3 0,2.2 -1.5,3.9 -3.7,4 l 4.7,6.6 h -2 l -4.5,-6.4 h -0.4 v 6.4 H 77.7 V 4.9 Z m -0.7,6.8 h 1 c 2,0 3.2,-1 3.2,-2.7 C 83.5,8.2 83.3,7.4 82.3,6.8 81.6,6.4 80.9,6.4 80.2,6.4 h -1 v 5.3 z"
   id="path2681"
   style="fill:#e0c490;fill-opacity:1" />
	</g>
	<g
   id="g2687"
   style="fill:#e0c490;fill-opacity:1">
		<path
   class="st1"
   d="m 90.4,13.9 c 0,1.2 0,2.6 1.2,3.6 0.6,0.5 1.6,0.8 2.4,0.8 0.8,0 1.8,-0.3 2.4,-0.8 1.2,-1 1.2,-2.3 1.2,-3.6 v -9 h 1.6 v 9.4 c 0,1.2 -0.1,2.4 -0.9,3.5 -0.9,1.2 -2.4,2 -4.3,2 -1.9,0 -3.4,-0.8 -4.3,-2 -0.8,-1.1 -0.9,-2.3 -0.9,-3.5 V 4.9 h 1.6 z"
   id="path2685"
   style="fill:#e0c490;fill-opacity:1" />
	</g>
</g>
<g
   id="g2693"
   transform="scale(1.3333335,1.3331577)"
   style="fill:#e0c490;fill-opacity:1">
	<path
   class="st1"
   d="m 106.7,8.3 c -3.3,0 -5.8,2.5 -5.8,5.9 0,3.4 2.5,5.9 5.8,5.9 3.3,0 5.8,-2.5 5.8,-5.9 0,-3.4 -2.5,-5.9 -5.8,-5.9 z m 0,10.1 c -1.9,0 -3.8,-1.4 -3.8,-4.2 0,-2.7 1.8,-4.2 3.8,-4.2 2,0 3.8,1.4 3.8,4.2 0,2.8 -1.8,4.2 -3.8,4.2 z"
   id="path2691"
   style="fill:#e0c490;fill-opacity:1" />
</g>
<g
   id="g2697"
   transform="scale(1.3333335,1.3331577)"
   style="fill:#e0c490;fill-opacity:1">
	<rect
   x="100.9"
   y="4.8000002"
   class="st1"
   width="11.7"
   height="1.6"
   id="rect2695"
   style="fill:#e0c490;fill-opacity:1" />
</g>
<g
   id="g2701"
   transform="scale(1.3333335,1.3331577)"
   style="fill:#e0c490;fill-opacity:1">
	<polygon
   class="st1"
   points="36.9,7 36.9,17.2 37.5,19.5 35,19.5 35.6,17.2 35.6,7 35,4.7 37.5,4.7 "
   id="polygon2699"
   style="fill:#e0c490;fill-opacity:1" />
</g>
<g
   id="g2707"
   transform="scale(1.3333335,1.3331577)"
   style="fill:#e0c490;fill-opacity:1">
	<g
   id="g2705"
   style="fill:#e0c490;fill-opacity:1">
		<rect
   x="0.1"
   y="344.60001"
   class="st1"
   width="73.5"
   height="3"
   id="rect2703"
   style="fill:#e0c490;fill-opacity:1" />
	</g>
</g>
<g
   id="g2725"
   transform="scale(1.3333335,1.3331577)"
   style="fill:#e0c490;fill-opacity:1">
	<g
   id="g2711"
   style="fill:#e0c490;fill-opacity:1">
		<path
   class="st1"
   d="m 86.7,349.4 c -0.9,-1.2 -2.2,-1.5 -3.1,-1.5 -1.9,0 -3.5,1.3 -3.5,3.7 0,2.4 1.7,3.7 3.5,3.7 1,0 2.3,-0.5 3.2,-1.6 v 2.1 c -1.1,0.8 -2.2,1 -3.2,1 -3.1,0 -5.4,-2.2 -5.4,-5.2 0,-3.1 2.3,-5.3 5.4,-5.3 1.6,0 2.6,0.6 3.1,1 z"
   id="path2709"
   style="fill:#e0c490;fill-opacity:1" />
	</g>
	<g
   id="g2715"
   style="fill:#e0c490;fill-opacity:1">
		<path
   class="st1"
   d="m 98.3,354 c -0.3,0.6 -0.7,1.2 -1.2,1.6 -0.9,0.8 -2.1,1.2 -3.3,1.2 -2.4,0 -4.9,-1.5 -4.9,-5.2 0,-3 1.8,-5.3 4.8,-5.3 2,0 3.2,1 3.8,1.8 0.6,0.9 1,2.4 0.9,3.8 h -7.8 c 0,2.1 1.4,3.4 3.2,3.4 0.8,0 1.5,-0.2 2.1,-0.7 0.5,-0.4 0.8,-0.9 1,-1.4 z m -7.8,-12.6 1.8,-0.8 2.5,3.5 -1.1,0.6 z m 6.1,9.1 c -0.3,-1.6 -1.5,-2.6 -2.9,-2.6 -1.4,0 -2.7,1.1 -2.9,2.6 z"
   id="path2713"
   style="fill:#e0c490;fill-opacity:1" />
	</g>
	<g
   id="g2719"
   style="fill:#e0c490;fill-opacity:1">
		<path
   class="st1"
   d="m 101.9,341.6 c 0.7,0 1.2,0.6 1.2,1.2 0,0.6 -0.6,1.2 -1.2,1.2 -0.6,0 -1.2,-0.6 -1.2,-1.2 0,-0.6 0.5,-1.2 1.2,-1.2 z m 0.9,5 v 10 H 101 v -10 z"
   id="path2717"
   style="fill:#e0c490;fill-opacity:1" />
	</g>
	<g
   id="g2723"
   style="fill:#e0c490;fill-opacity:1">
		<path
   class="st1"
   d="m 110.2,348.9 c -0.2,-0.6 -0.7,-1 -1.4,-1 -0.6,0 -1.2,0.4 -1.2,1.1 0,0.7 0.5,0.9 1.6,1.4 1.4,0.6 2.1,1.1 2.5,1.5 0.4,0.5 0.5,1.1 0.5,1.6 0,2.1 -1.5,3.3 -3.5,3.3 -0.4,0 -2.7,0 -3.5,-2.6 l 1.5,-0.6 c 0.2,0.5 0.8,1.6 2,1.6 1.1,0 1.6,-0.8 1.6,-1.6 0,-0.9 -0.7,-1.3 -1.6,-1.7 -1.2,-0.5 -2,-0.9 -2.4,-1.5 -0.4,-0.5 -0.5,-1 -0.5,-1.5 0,-1.8 1.2,-2.8 2.9,-2.8 0.5,0 2,0.1 2.8,1.8 z"
   id="path2721"
   style="fill:#e0c490;fill-opacity:1" />
	</g>
</g>
<g
   id="g2729"
   transform="scale(1.3333335,1.3331577)"
   style="fill:#e0c490;fill-opacity:1">
	<path
   class="st1"
   d="m 29.8,196.6 c -0.2,-0.2 -0.4,-0.4 -0.7,-0.5 -0.3,-0.1 -0.6,-0.2 -0.9,-0.2 -1.2,0 -2.1,1 -2.1,2.2 0,1.4 1.2,2.2 2.2,2.2 0.4,0 0.7,-0.1 1,-0.2 0.3,-0.2 0.5,-0.4 0.6,-0.4 v 0.7 c -0.6,0.4 -1.2,0.5 -1.6,0.5 -1.6,0 -2.8,-1.2 -2.8,-2.7 0,-1.6 1.2,-2.8 2.8,-2.8 0.3,0 0.9,0 1.6,0.5 v 0.7 z"
   id="path2727"
   style="fill:#e0c490;fill-opacity:1" />
</g>
<g
   id="g2733"
   transform="scale(1.3333335,1.3331577)"
   style="fill:#e0c490;fill-opacity:1">
	<path
   class="st1"
   d="m 30.9,195.4 1.5,4.1 1.5,-4.1 h 0.7 l -2.2,5.7 -2.2,-5.7 z"
   id="path2731"
   style="fill:#e0c490;fill-opacity:1" />
</g>
<g
   id="g2755"
   transform="scale(1.3333335,1.3331577)"
   style="fill:#e0c490;fill-opacity:1">
	<g
   id="g2737"
   style="fill:#e0c490;fill-opacity:1">
		<path
   class="st1"
   d="m 90.9,233.3 c -0.2,-0.2 -0.4,-0.4 -0.7,-0.5 -0.3,-0.1 -0.6,-0.2 -0.9,-0.2 -1.2,0 -2.1,1 -2.1,2.2 0,1.4 1.2,2.2 2.2,2.2 0.4,0 0.7,-0.1 1,-0.2 0.3,-0.2 0.5,-0.4 0.6,-0.4 v 0.7 c -0.6,0.4 -1.2,0.5 -1.6,0.5 -1.6,0 -2.8,-1.2 -2.8,-2.7 0,-1.6 1.2,-2.8 2.8,-2.8 0.3,0 0.9,0 1.6,0.5 v 0.7 z"
   id="path2735"
   style="fill:#e0c490;fill-opacity:1" />
	</g>
	<g
   id="g2741"
   style="fill:#e0c490;fill-opacity:1">
		<path
   class="st1"
   d="m 92.1,232.1 1.5,4.1 1.5,-4.1 h 0.7 l -2.2,5.7 -2.2,-5.7 z"
   id="path2739"
   style="fill:#e0c490;fill-opacity:1" />
	</g>
	<g
   id="g2745"
   style="fill:#e0c490;fill-opacity:1">
		<path
   class="st1"
   d="m 98,234.8 c 0,-1.6 1.2,-2.8 2.8,-2.8 1.6,0 2.8,1.2 2.8,2.8 0,1.6 -1.2,2.8 -2.8,2.8 -1.5,0 -2.8,-1.2 -2.8,-2.8 z m 0.7,0 c 0,1.2 1,2.2 2.2,2.2 1.2,0 2.2,-1 2.2,-2.2 0,-1.2 -1,-2.2 -2.2,-2.2 -1.3,0 -2.2,1 -2.2,2.2 z"
   id="path2743"
   style="fill:#e0c490;fill-opacity:1" />
	</g>
	<g
   id="g2749"
   style="fill:#e0c490;fill-opacity:1">
		<path
   class="st1"
   d="m 105.3,235.4 c 0,0.4 0,0.9 0.4,1.3 0.2,0.2 0.6,0.3 0.9,0.3 0.3,0 0.7,-0.1 0.9,-0.3 0.4,-0.4 0.4,-0.8 0.4,-1.3 v -3.3 h 0.6 v 3.4 c 0,0.4 0,0.9 -0.3,1.3 -0.3,0.4 -0.9,0.7 -1.6,0.7 -0.7,0 -1.2,-0.3 -1.6,-0.7 -0.3,-0.4 -0.3,-0.8 -0.3,-1.3 v -3.4 h 0.6 z"
   id="path2747"
   style="fill:#e0c490;fill-opacity:1" />
	</g>
	<g
   id="g2753"
   style="fill:#e0c490;fill-opacity:1">
		<path
   class="st1"
   d="m 111.2,232.7 v 4.8 h -0.6 v -4.8 h -1.3 v -0.6 h 3.2 v 0.6 z"
   id="path2751"
   style="fill:#e0c490;fill-opacity:1" />
	</g>
</g>
<g
   id="g2773"
   transform="scale(1.3333335,1.3331577)"
   style="fill:#e0c490;fill-opacity:1">
	<g
   id="g2759"
   style="fill:#e0c490;fill-opacity:1">
		<path
   class="st1"
   d="m 30.2,293.7 v 4.8 h -0.6 v -4.8 h -1.3 v -0.6 h 3.2 v 0.6 z"
   id="path2757"
   style="fill:#e0c490;fill-opacity:1" />
	</g>
	<g
   id="g2763"
   style="fill:#e0c490;fill-opacity:1">
		<path
   class="st1"
   d="m 33.2,293.1 c 0.4,0 0.9,0 1.3,0.3 0.3,0.2 0.6,0.6 0.6,1.2 0,0.8 -0.5,1.4 -1.3,1.5 l 1.7,2.4 h -0.7 l -1.6,-2.3 H 33 v 2.3 h -0.6 v -5.3 h 0.8 z m -0.3,2.5 h 0.4 c 0.7,0 1.2,-0.4 1.2,-1 0,-0.3 -0.1,-0.6 -0.4,-0.8 -0.2,-0.1 -0.5,-0.2 -0.8,-0.2 h -0.4 z"
   id="path2761"
   style="fill:#e0c490;fill-opacity:1" />
	</g>
	<g
   id="g2767"
   style="fill:#e0c490;fill-opacity:1">
		<path
   class="st1"
   d="m 36.9,293.1 v 5.3 h -0.6 v -5.3 z"
   id="path2765"
   style="fill:#e0c490;fill-opacity:1" />
	</g>
	<g
   id="g2771"
   style="fill:#e0c490;fill-opacity:1">
		<path
   class="st1"
   d="m 41,295.8 h 2.2 v 0.1 c 0,0.6 -0.2,1.2 -0.5,1.7 -0.2,0.2 -0.8,1 -2,1 -1.6,0 -2.8,-1.2 -2.8,-2.8 0,-1.6 1.2,-2.8 2.8,-2.8 0.5,0 1.1,0.1 1.6,0.5 0.2,0.2 0.5,0.4 0.6,0.6 l -0.4,0.4 c -0.2,-0.2 -0.3,-0.4 -0.5,-0.6 -0.3,-0.2 -0.7,-0.4 -1.3,-0.4 -1.3,0 -2.2,1 -2.2,2.2 0,1.5 1.2,2.2 2.2,2.2 0.7,0 1.3,-0.4 1.6,-0.9 0.1,-0.2 0.2,-0.4 0.2,-0.8 H 41 Z"
   id="path2769"
   style="fill:#e0c490;fill-opacity:1" />
	</g>
</g>
<g
   id="g2791"
   transform="scale(1.3333335,1.3331577)"
   style="fill:#e0c490;fill-opacity:1">
	<g
   id="g2777"
   style="fill:#e0c490;fill-opacity:1">
		<path
   class="st1"
   d="m 30.4,283.5 h 2.2 v 0.1 c 0,0.6 -0.2,1.2 -0.5,1.7 -0.2,0.2 -0.8,1 -2,1 -1.6,0 -2.8,-1.2 -2.8,-2.8 0,-1.6 1.2,-2.8 2.8,-2.8 0.5,0 1.1,0.1 1.6,0.5 0.2,0.2 0.5,0.4 0.6,0.6 l -0.4,0.4 c -0.2,-0.2 -0.3,-0.4 -0.5,-0.6 -0.3,-0.2 -0.7,-0.4 -1.3,-0.4 -1.3,0 -2.2,1 -2.2,2.2 0,1.5 1.2,2.2 2.2,2.2 0.7,0 1.3,-0.4 1.6,-0.9 0.1,-0.2 0.2,-0.4 0.2,-0.8 h -1.6 v -0.4 z"
   id="path2775"
   style="fill:#e0c490;fill-opacity:1" />
	</g>
	<g
   id="g2781"
   style="fill:#e0c490;fill-opacity:1">
		<path
   class="st1"
   d="m 36.7,284.7 h -2.3 l -0.6,1.5 h -0.7 l 2.5,-5.6 2.4,5.6 h -0.7 z m -0.3,-0.6 -0.9,-2.1 -0.9,2.1 z"
   id="path2779"
   style="fill:#e0c490;fill-opacity:1" />
	</g>
	<g
   id="g2785"
   style="fill:#e0c490;fill-opacity:1">
		<path
   class="st1"
   d="m 39.7,281.4 v 4.8 h -0.6 v -4.8 h -1.3 v -0.6 H 41 v 0.6 z"
   id="path2783"
   style="fill:#e0c490;fill-opacity:1" />
	</g>
	<g
   id="g2789"
   style="fill:#e0c490;fill-opacity:1">
		<path
   class="st1"
   d="m 44.5,281.4 h -2.2 v 1.6 h 2.1 v 0.6 h -2.1 v 2.1 h 2.2 v 0.6 H 41.7 V 281 h 2.8 z"
   id="path2787"
   style="fill:#e0c490;fill-opacity:1" />
	</g>
</g>
<g
   id="g2795"
   transform="scale(1.3333335,1.3331577)"
   style="fill:#e0c490;fill-opacity:1">
	<rect
   x="25.799999"
   y="288.29999"
   class="st1"
   width="20.9"
   height="2"
   id="rect2793"
   style="fill:#e0c490;fill-opacity:1" />
</g>
<g
   id="g2807"
   transform="scale(1.3333335,1.3331577)"
   style="fill:#e0c490;fill-opacity:1">
	<g
   id="g2799"
   style="fill:#e0c490;fill-opacity:1">
		<polygon
   class="st1"
   points="63.1,276.8 62.5,277.1 61.8,275.8 62.4,275.5 "
   id="polygon2797"
   style="fill:#e0c490;fill-opacity:1" />
	</g>
	<g
   id="g2805"
   style="fill:#e0c490;fill-opacity:1">
		<g
   id="g2803"
   style="fill:#e0c490;fill-opacity:1">
			<path
   class="st1"
   d="m 63.3,275.8 0.1,-3.2 h -0.1 l -2.9,3.7 c -1.2,1.1 -2.3,2.1 -3.5,3.2 1.5,-0.5 3,-1 4.5,-1.4 l 4.7,-0.7 0.1,-0.1 z"
   id="path2801"
   style="fill:#e0c490;fill-opacity:1" />
		</g>
	</g>
</g>
<g
   id="g2811"
   transform="scale(1.3333335,1.3331577)"
   style="fill:#e0c490;fill-opacity:1">
	<path
   class="st1"
   d="m 54.1,284.6 -1.2,-0.9 c 5.7,-7.5 14.3,-11.7 23.7,-11.7 9.3,0 17.9,4.3 23.6,11.7 l -1.2,0.9 c -5.4,-7 -13.6,-11.1 -22.4,-11.1 -9,-0.1 -17.2,4 -22.5,11.1 z"
   id="path2809"
   style="fill:#e0c490;fill-opacity:1" />
</g>
<g
   id="g2823"
   transform="scale(1.3333335,1.3331577)"
   style="fill:#e0c490;fill-opacity:1">
	<g
   id="g2815"
   style="fill:#e0c490;fill-opacity:1">
		<polygon
   class="st1"
   points="91.2,275.8 90.4,277.1 89.8,276.8 90.6,275.5 "
   id="polygon2813"
   style="fill:#e0c490;fill-opacity:1" />
	</g>
	<g
   id="g2821"
   style="fill:#e0c490;fill-opacity:1">
		<g
   id="g2819"
   style="fill:#e0c490;fill-opacity:1">
			<path
   class="st1"
   d="m 89.6,275.8 -2.8,1.5 v 0.1 l 4.7,0.7 c 1.5,0.5 3,1 4.5,1.4 -1.2,-1.1 -2.3,-2.1 -3.5,-3.2 l -2.9,-3.7 h -0.1 z"
   id="path2817"
   style="fill:#e0c490;fill-opacity:1" />
		</g>
	</g>
</g>
<g
   id="g2827"
   transform="scale(1.3333335,1.3331577)"
   style="fill:#e0c490;fill-opacity:1">
	<rect
   x="75"
   y="308.20001"
   class="st1"
   width="3"
   height="22.799999"
   id="rect2825"
   style="fill:#e0c490;fill-opacity:1" />
</g>
<g
   id="g2831"
   transform="scale(1.3333335,1.3331577)"
   style="fill:#e0c490;fill-opacity:1">
	<path
   class="st1"
   d="m 16.2,268.3 c -8.6,0 -15.7,-7 -15.7,-15.7 0,-8.7 7,-15.7 15.7,-15.7 8.6,0 15.7,7 15.7,15.7 0,8.7 -7.1,15.7 -15.7,15.7 z m 0,-29.8 c -7.8,0 -14.2,6.4 -14.2,14.2 0,7.8 6.4,14.2 14.2,14.2 7.8,0 14.2,-6.4 14.2,-14.2 0,-7.8 -6.4,-14.2 -14.2,-14.2 z"
   id="path2829"
   style="fill:#e0c490;fill-opacity:1" />
</g>
<g
   id="g2835"
   transform="scale(1.3333335,1.3331577)"
   style="fill:#e0c490;fill-opacity:1">
	<polygon
   class="st1"
   points="1.5,36.2 1.5,26.4 26.8,26.4 26.8,27 2.1,27 2.1,36.2 "
   id="polygon2833"
   style="fill:#e0c490;fill-opacity:1" />
</g>
<g
   id="g2839"
   transform="scale(1.3333335,1.3331577)"
   style="fill:#e0c490;fill-opacity:1">
	<polygon
   class="st1"
   points="52.2,229.3 52.2,238.3 65.6,238.3 65.6,238.9 51.6,238.9 51.6,229.9 49.7,229.9 49.7,238.9 49.1,238.9 49.1,229.3 "
   id="polygon2837"
   style="fill:#e0c490;fill-opacity:1" />
</g>
<g
   id="g2843"
   transform="scale(1.3333335,1.3331577)"
   style="fill:#e0c490;fill-opacity:1">
	<polygon
   class="st1"
   points="63.9,325.9 58.3,325.9 55.9,322 52.4,329.9 51.8,329.7 55.8,320.7 58.7,325.3 64.1,325.3 67.6,329.3 67.2,329.7 "
   id="polygon2841"
   style="fill:#e0c490;fill-opacity:1" />
</g>
<g
   id="g2847"
   transform="scale(1.3333335,1.3331577)"
   style="fill:#e0c490;fill-opacity:1">
	<path
   class="st1"
   d="m 100.9,329.8 c -2.3,0 -3.6,-1.3 -3.7,-3.9 H 92 c -1.9,0 -2.8,-1.3 -3,-4.1 -2.6,0.6 -3.1,3.2 -3.1,8 h -0.6 c 0,-4.4 0.3,-8.1 4,-8.7 l 0.3,-0.1 v 0.3 c 0.1,3.4 1.3,3.9 2.4,3.9 h 5.8 v 0.3 c 0,2.5 1,3.7 3.1,3.7 z"
   id="path2845"
   style="fill:#e0c490;fill-opacity:1" />
</g>
</svg>
