<?xml version="1.0" encoding="UTF-8" standalone="no"?>
<!-- Generator: Adobe Illustrator 26.2.0, SVG Export Plug-In . SVG Version: 6.00 Build 0)  -->

<svg
   version="1.1"
   x="0px"
   y="0px"
   viewBox="0 0 76.800002 485.66929"
   xml:space="preserve"
   id="svg638"
   sodipodi:docname="cruinn_EXP (Inkscape Render).svg"
   width="20.32mm"
   height="128.5mm"
   inkscape:version="1.2 (dc2aeda, 2022-05-15)"
   xmlns:inkscape="http://www.inkscape.org/namespaces/inkscape"
   xmlns:sodipodi="http://sodipodi.sourceforge.net/DTD/sodipodi-0.dtd"
   xmlns="http://www.w3.org/2000/svg"
   xmlns:svg="http://www.w3.org/2000/svg"><defs
   id="defs642" /><sodipodi:namedview
   id="namedview640"
   pagecolor="#ffffff"
   bordercolor="#000000"
   borderopacity="0.25"
   inkscape:showpageshadow="2"
   inkscape:pageopacity="0.0"
   inkscape:pagecheckerboard="0"
   inkscape:deskcolor="#d1d1d1"
   showgrid="false"
   inkscape:document-units="mm"
   inkscape:zoom="2.1545481"
   inkscape:cx="67.995696"
   inkscape:cy="283.35408"
   inkscape:window-width="1728"
   inkscape:window-height="1051"
   inkscape:window-x="0"
   inkscape:window-y="38"
   inkscape:window-maximized="0"
   inkscape:current-layer="svg638" />
<style
   type="text/css"
   id="style132">
	.st0{fill:#1E1E1E;}
	.st1{fill:#E1C590;}
	.st2{fill:#E0C490;}
	.st3{fill:#E0C590;}
	.st4{fill:#E1C48F;}
	.st5{fill:none;stroke:#E1C590;stroke-width:0.75;stroke-miterlimit:10;}
</style>
<g
   id="BG"
   transform="scale(1.3333334)"
   style="fill:#1e1e1e;fill-opacity:1">
	<rect
   x="0"
   y="0"
   class="st0"
   width="57.599998"
   height="364.25"
   id="rect134"
   style="fill:#1e1e1e;fill-opacity:1" />
</g>
<g
   id="Layer_2"
   transform="scale(1.3333334)"
   style="fill:#e1c590;fill-opacity:1">
	<g
   id="g141"
   style="fill:#e1c590;fill-opacity:1">
		<g
   id="g139"
   style="fill:#e1c590;fill-opacity:1">
			<path
   class="st1"
   d="m 14.4,95.61 c -0.54,0 -1.02,-0.02 -1.49,-0.07 l 0.12,-1.09 c 0.42,0.04 0.87,0.07 1.37,0.07 8.44,0 15.31,-6.87 15.31,-15.31 0,-0.8 -0.06,-1.59 -0.17,-2.36 l 1.09,-0.16 c 0.12,0.82 0.19,1.67 0.19,2.52 -0.01,9.04 -7.37,16.4 -16.42,16.4 z"
   id="path137"
   style="fill:#e1c590;fill-opacity:1" />
		</g>
	</g>
	<g
   id="g147"
   style="fill:#e1c590;fill-opacity:1">
		<g
   id="g145"
   style="fill:#e1c590;fill-opacity:1">
			<path
   class="st1"
   d="m 14.4,149.61 c -0.54,0 -1.02,-0.02 -1.49,-0.07 l 0.12,-1.09 c 0.42,0.04 0.87,0.07 1.37,0.07 8.44,0 15.31,-6.87 15.31,-15.31 0,-0.8 -0.06,-1.59 -0.17,-2.36 l 1.09,-0.16 c 0.12,0.82 0.19,1.67 0.19,2.52 -0.01,9.04 -7.37,16.4 -16.42,16.4 z"
   id="path143"
   style="fill:#e1c590;fill-opacity:1" />
		</g>
	</g>
	<g
   id="g153"
   style="fill:#e1c590;fill-opacity:1">
		<g
   id="g151"
   style="fill:#e1c590;fill-opacity:1">
			<path
   class="st1"
   d="m 14.4,203.61 c -0.54,0 -1.03,-0.02 -1.49,-0.07 l 0.12,-1.09 c 0.42,0.04 0.87,0.07 1.37,0.07 8.44,0 15.31,-6.87 15.31,-15.31 0,-0.8 -0.06,-1.59 -0.17,-2.36 l 1.09,-0.16 c 0.12,0.82 0.19,1.67 0.19,2.52 -0.01,9.04 -7.37,16.4 -16.42,16.4 z"
   id="path149"
   style="fill:#e1c590;fill-opacity:1" />
		</g>
	</g>
	<g
   id="g159"
   style="fill:#e1c590;fill-opacity:1">
		<g
   id="g157"
   style="fill:#e1c590;fill-opacity:1">
			<path
   class="st1"
   d="m 14.4,257.61 c -0.54,0 -1.03,-0.02 -1.49,-0.07 l 0.12,-1.09 c 0.42,0.04 0.87,0.07 1.37,0.07 8.44,0 15.31,-6.87 15.31,-15.31 0,-0.8 -0.06,-1.59 -0.17,-2.36 l 1.09,-0.16 c 0.12,0.82 0.19,1.67 0.19,2.52 -0.01,9.04 -7.37,16.4 -16.42,16.4 z"
   id="path155"
   style="fill:#e1c590;fill-opacity:1" />
		</g>
	</g>
	<g
   id="g165"
   style="fill:#e1c590;fill-opacity:1">
		<g
   id="g163"
   style="fill:#e1c590;fill-opacity:1">
			<path
   class="st1"
   d="m 14.4,311.61 c -0.54,0 -1.03,-0.02 -1.49,-0.07 l 0.12,-1.09 c 0.42,0.04 0.87,0.07 1.37,0.07 8.44,0 15.31,-6.87 15.31,-15.31 0,-0.8 -0.06,-1.59 -0.17,-2.36 l 1.09,-0.16 c 0.12,0.82 0.19,1.67 0.19,2.52 -0.01,9.04 -7.37,16.4 -16.42,16.4 z"
   id="path161"
   style="fill:#e1c590;fill-opacity:1" />
		</g>
	</g>
	<g
   id="g171"
   style="fill:#e1c590;fill-opacity:1">
		<g
   id="g169"
   style="fill:#e1c590;fill-opacity:1">
			
				<rect
   x="30.68"
   y="87.769997"
   transform="matrix(0.6838,-0.7297,0.7297,0.6838,-59.4256,52.8127)"
   class="st1"
   width="1.1"
   height="14.4"
   id="rect167"
   style="fill:#e1c590;fill-opacity:1" />
		</g>
	</g>
	<g
   id="g177"
   style="fill:#e1c590;fill-opacity:1">
		<g
   id="g175"
   style="fill:#e1c590;fill-opacity:1">
			
				<rect
   x="30.68"
   y="141.77"
   transform="matrix(0.6838,-0.7297,0.7297,0.6838,-98.8267,69.8864)"
   class="st1"
   width="1.1"
   height="14.4"
   id="rect173"
   style="fill:#e1c590;fill-opacity:1" />
		</g>
	</g>
	<g
   id="g183"
   style="fill:#e1c590;fill-opacity:1">
		<g
   id="g181"
   style="fill:#e1c590;fill-opacity:1">
			
				<rect
   x="30.68"
   y="195.77"
   transform="matrix(0.6838,-0.7296,0.7296,0.6838,-138.2252,86.956)"
   class="st1"
   width="1.1"
   height="14.4"
   id="rect179"
   style="fill:#e1c590;fill-opacity:1" />
		</g>
	</g>
	<g
   id="g189"
   style="fill:#e1c590;fill-opacity:1">
		<g
   id="g187"
   style="fill:#e1c590;fill-opacity:1">
			
				<rect
   x="30.68"
   y="249.77"
   transform="matrix(0.6838,-0.7296,0.7296,0.6838,-177.6254,104.0287)"
   class="st1"
   width="1.1"
   height="14.4"
   id="rect185"
   style="fill:#e1c590;fill-opacity:1" />
		</g>
	</g>
	<g
   id="g195"
   style="fill:#e1c590;fill-opacity:1">
		<g
   id="g193"
   style="fill:#e1c590;fill-opacity:1">
			
				<rect
   x="30.68"
   y="303.76999"
   transform="matrix(0.6838,-0.7296,0.7296,0.6838,-217.0256,121.1014)"
   class="st1"
   width="1.1"
   height="14.4"
   id="rect191"
   style="fill:#e1c590;fill-opacity:1" />
		</g>
	</g>
	<g
   id="g203"
   style="fill:#e1c590;fill-opacity:1">
		<g
   id="g201"
   style="fill:#e1c590;fill-opacity:1">
			<g
   id="g199"
   style="fill:#e1c590;fill-opacity:1">
				<rect
   x="0"
   y="344.04999"
   class="st1"
   width="57.599998"
   height="3"
   id="rect197"
   style="fill:#e1c590;fill-opacity:1" />
			</g>
		</g>
	</g>
	<g
   id="g211"
   style="fill:#e1c590;fill-opacity:1">
		<g
   id="g209"
   style="fill:#e1c590;fill-opacity:1">
			<g
   id="g207"
   style="fill:#e1c590;fill-opacity:1">
				<path
   class="st2"
   d="m 41.06,6.55 c -1.31,0.82 -2.91,2.47 -2.91,5.15 0,2.47 1.34,4.53 4.04,4.95 V 9.07 c 0,-2.68 1.47,-3.76 3.17,-3.76 2.45,0 5.1,2.34 5.1,6.16 0,4.28 -3.04,6.52 -6.18,6.83 v 4.84 H 42.2 V 18.3 c -3.09,-0.23 -6.29,-2.16 -6.29,-6.54 0,-3.58 2.58,-5.74 4.28,-6.46 z m 3.22,10.09 c 2.45,-0.33 4.02,-2.24 4.02,-5.13 0,-2.55 -1.49,-4.56 -2.94,-4.56 -0.64,0 -1.08,0.57 -1.08,1.75 z"
   id="path205"
   style="fill:#e1c590;fill-opacity:1" />
			</g>
		</g>
	</g>
	<g
   id="g243"
   style="fill:#e1c590;fill-opacity:1">
		<g
   id="g217"
   style="fill:#e1c590;fill-opacity:1">
			<g
   id="g215"
   style="fill:#e1c590;fill-opacity:1">
				<path
   class="st3"
   d="m 2.93,32.47 h 1.63 v -1.54 h 0.65 v 1.54 h 1.63 v 0.59 H 5.21 V 34.6 H 4.56 V 33.06 H 2.93 Z m 0,2.5 h 3.91 v 0.59 H 2.93 Z"
   id="path213"
   style="fill:#e1c590;fill-opacity:1" />
			</g>
		</g>
		<g
   id="g223"
   style="fill:#e1c590;fill-opacity:1">
			<g
   id="g221"
   style="fill:#e1c590;fill-opacity:1">
				<path
   class="st3"
   d="m 7.91,31.65 c 0.02,-0.33 0.13,-0.64 0.28,-0.88 0.4,-0.62 1.04,-0.7 1.4,-0.7 1.13,0 1.69,0.79 1.69,1.62 0,0.43 -0.16,1.03 -0.77,1.33 0.21,0.08 0.86,0.42 0.86,1.45 0,1.12 -0.82,1.81 -1.85,1.81 C 8.9,36.28 8.17,36.02 7.85,35.24 7.76,35.02 7.72,34.83 7.71,34.61 h 0.67 c 0.03,0.22 0.1,0.44 0.22,0.6 0.2,0.29 0.55,0.45 0.93,0.45 0.67,0 1.18,-0.55 1.18,-1.22 0,-0.34 -0.13,-0.8 -0.59,-1.01 C 9.93,33.34 9.67,33.29 9.44,33.3 v -0.59 c 0.23,0.02 0.5,-0.03 0.68,-0.13 0.19,-0.1 0.5,-0.35 0.5,-0.89 0,-0.53 -0.29,-1.03 -1.03,-1.03 C 9.35,30.66 9.05,30.7 8.82,31 8.7,31.15 8.6,31.38 8.59,31.63 H 7.91 Z"
   id="path219"
   style="fill:#e1c590;fill-opacity:1" />
			</g>
		</g>
		<g
   id="g229"
   style="fill:#e1c590;fill-opacity:1">
			<g
   id="g227"
   style="fill:#e1c590;fill-opacity:1">
				<path
   class="st3"
   d="m 15.77,30.4 -1.38,1.92 c 0.17,-0.05 0.34,-0.08 0.53,-0.08 1.15,0 1.94,0.86 1.94,1.98 0,1.2 -0.86,2.06 -2.06,2.06 -1.41,0 -2.08,-1.1 -2.08,-2.04 0,-0.22 0.04,-0.75 0.5,-1.38 l 2.04,-2.84 z m 0.44,3.83 c 0,-0.8 -0.59,-1.39 -1.41,-1.39 -0.82,0 -1.4,0.6 -1.4,1.39 0,0.8 0.57,1.43 1.4,1.43 0.83,0.01 1.41,-0.62 1.41,-1.43 z"
   id="path225"
   style="fill:#e1c590;fill-opacity:1" />
			</g>
		</g>
		<g
   id="g235"
   style="fill:#e1c590;fill-opacity:1">
			<g
   id="g233"
   style="fill:#e1c590;fill-opacity:1">
				<path
   class="st3"
   d="m 18.37,35.38 c -0.4,-0.58 -0.6,-1.35 -0.6,-2.21 0,-0.86 0.21,-1.63 0.6,-2.21 0.46,-0.67 1.06,-0.9 1.54,-0.9 0.48,0 1.08,0.23 1.54,0.9 0.4,0.58 0.6,1.35 0.6,2.21 0,0.86 -0.21,1.63 -0.6,2.21 -0.46,0.67 -1.06,0.9 -1.54,0.9 -0.48,0 -1.08,-0.24 -1.54,-0.9 z m 0.51,-4.04 c -0.32,0.51 -0.44,1.2 -0.44,1.83 0,0.63 0.12,1.31 0.44,1.83 0.31,0.5 0.73,0.67 1.04,0.67 0.31,0 0.72,-0.16 1.04,-0.67 0.32,-0.51 0.44,-1.2 0.44,-1.83 0,-0.63 -0.12,-1.31 -0.44,-1.83 -0.32,-0.5 -0.73,-0.67 -1.04,-0.67 -0.31,0 -0.73,0.17 -1.04,0.67 z"
   id="path231"
   style="fill:#e1c590;fill-opacity:1" />
			</g>
		</g>
		<g
   id="g241"
   style="fill:#e1c590;fill-opacity:1">
			<g
   id="g239"
   style="fill:#e1c590;fill-opacity:1">
				<path
   class="st3"
   d="m 25.12,30.55 c 0.2,0.21 0.34,0.51 0.34,0.87 0,0.43 -0.19,0.7 -0.33,0.86 -0.2,0.21 -0.51,0.39 -0.98,0.39 -0.42,0 -0.73,-0.14 -0.95,-0.36 -0.23,-0.22 -0.37,-0.53 -0.37,-0.89 0,-0.25 0.07,-0.57 0.33,-0.85 0.19,-0.2 0.5,-0.41 0.98,-0.41 0.36,0.01 0.73,0.14 0.98,0.39 z m 0.26,2.62 v 0.38 H 22.94 V 33.17 Z M 23.52,30.8 c -0.16,0.16 -0.23,0.38 -0.23,0.62 0,0.3 0.13,0.5 0.24,0.61 0.14,0.14 0.37,0.23 0.62,0.23 0.22,0 0.48,-0.09 0.64,-0.25 0.13,-0.13 0.23,-0.34 0.23,-0.6 0,-0.28 -0.11,-0.5 -0.25,-0.63 -0.1,-0.1 -0.3,-0.22 -0.61,-0.22 -0.34,0 -0.54,0.15 -0.64,0.24 z"
   id="path237"
   style="fill:#e1c590;fill-opacity:1" />
			</g>
		</g>
	</g>
	<g
   id="g249"
   style="fill:#e1c590;fill-opacity:1">
		<g
   id="g247"
   style="fill:#e1c590;fill-opacity:1">
			<polygon
   class="st2"
   points="41.71,35.87 41.46,35.43 53.94,28.44 53.94,36.17 53.44,36.17 53.44,29.3 "
   id="polygon245"
   style="fill:#e1c590;fill-opacity:1" />
		</g>
	</g>
	<g
   id="g255"
   style="fill:#e1c590;fill-opacity:1">
		<g
   id="g253"
   style="fill:#e1c590;fill-opacity:1">
			<polygon
   class="st2"
   points="41.71,85.49 41.46,85.05 53.94,78.07 53.94,85.79 53.44,85.79 53.44,78.92 "
   id="polygon251"
   style="fill:#e1c590;fill-opacity:1" />
		</g>
	</g>
	<g
   id="g261"
   style="fill:#e1c590;fill-opacity:1">
		<g
   id="g259"
   style="fill:#e1c590;fill-opacity:1">
			<rect
   x="43.98"
   y="87.699997"
   class="st1"
   width="7.54"
   height="0.60000002"
   id="rect257"
   style="fill:#e1c590;fill-opacity:1" />
		</g>
	</g>
	<g
   id="g277"
   style="fill:#e1c590;fill-opacity:1">
		<g
   id="g267"
   style="fill:#e1c590;fill-opacity:1">
			<g
   id="g265"
   style="fill:#e1c590;fill-opacity:1">
				<rect
   x="43.75"
   y="87.82"
   class="st4"
   width="0.33000001"
   height="0.36000001"
   id="rect263"
   style="fill:#e1c590;fill-opacity:1" />
			</g>
		</g>
		<g
   id="g275"
   style="fill:#e1c590;fill-opacity:1">
			<g
   id="g273"
   style="fill:#e1c590;fill-opacity:1">
				<g
   id="g271"
   style="fill:#e1c590;fill-opacity:1">
					<path
   class="st4"
   d="m 44.23,88 0.58,-0.96 -0.03,-0.02 -1.56,0.62 c -0.54,0.12 -1.09,0.24 -1.63,0.36 0.54,0.12 1.09,0.24 1.63,0.36 l 1.56,0.62 0.03,-0.02 z"
   id="path269"
   style="fill:#e1c590;fill-opacity:1" />
				</g>
			</g>
		</g>
	</g>
	<g
   id="g293"
   style="fill:#e1c590;fill-opacity:1">
		<g
   id="g283"
   style="fill:#e1c590;fill-opacity:1">
			<g
   id="g281"
   style="fill:#e1c590;fill-opacity:1">
				<rect
   x="51.299999"
   y="87.82"
   class="st4"
   width="0.33000001"
   height="0.36000001"
   id="rect279"
   style="fill:#e1c590;fill-opacity:1" />
			</g>
		</g>
		<g
   id="g291"
   style="fill:#e1c590;fill-opacity:1">
			<g
   id="g289"
   style="fill:#e1c590;fill-opacity:1">
				<g
   id="g287"
   style="fill:#e1c590;fill-opacity:1">
					<path
   class="st4"
   d="m 51.15,88 -0.58,-0.96 0.03,-0.02 1.56,0.62 c 0.54,0.12 1.09,0.24 1.63,0.36 -0.54,0.12 -1.09,0.24 -1.63,0.36 l -1.56,0.62 -0.03,-0.02 z"
   id="path285"
   style="fill:#e1c590;fill-opacity:1" />
				</g>
			</g>
		</g>
	</g>
	<g
   id="g299"
   style="fill:#e1c590;fill-opacity:1">
		<g
   id="g297"
   style="fill:#e1c590;fill-opacity:1">
			<polygon
   class="st2"
   points="41.71,139.54 41.46,139.1 53.94,132.11 53.94,139.84 53.44,139.84 53.44,132.97 "
   id="polygon295"
   style="fill:#e1c590;fill-opacity:1" />
		</g>
	</g>
	<g
   id="g305"
   style="fill:#e1c590;fill-opacity:1">
		<g
   id="g303"
   style="fill:#e1c590;fill-opacity:1">
			<rect
   x="43.98"
   y="141.75"
   class="st1"
   width="7.54"
   height="0.60000002"
   id="rect301"
   style="fill:#e1c590;fill-opacity:1" />
		</g>
	</g>
	<g
   id="g321"
   style="fill:#e1c590;fill-opacity:1">
		<g
   id="g311"
   style="fill:#e1c590;fill-opacity:1">
			<g
   id="g309"
   style="fill:#e1c590;fill-opacity:1">
				<rect
   x="43.75"
   y="141.87"
   class="st4"
   width="0.33000001"
   height="0.36000001"
   id="rect307"
   style="fill:#e1c590;fill-opacity:1" />
			</g>
		</g>
		<g
   id="g319"
   style="fill:#e1c590;fill-opacity:1">
			<g
   id="g317"
   style="fill:#e1c590;fill-opacity:1">
				<g
   id="g315"
   style="fill:#e1c590;fill-opacity:1">
					<path
   class="st4"
   d="m 44.23,142.05 0.58,-0.96 -0.03,-0.02 -1.56,0.62 c -0.54,0.12 -1.09,0.24 -1.63,0.36 0.54,0.12 1.09,0.24 1.63,0.36 l 1.56,0.62 0.03,-0.02 z"
   id="path313"
   style="fill:#e1c590;fill-opacity:1" />
				</g>
			</g>
		</g>
	</g>
	<g
   id="g337"
   style="fill:#e1c590;fill-opacity:1">
		<g
   id="g327"
   style="fill:#e1c590;fill-opacity:1">
			<g
   id="g325"
   style="fill:#e1c590;fill-opacity:1">
				<rect
   x="51.299999"
   y="141.87"
   class="st4"
   width="0.33000001"
   height="0.36000001"
   id="rect323"
   style="fill:#e1c590;fill-opacity:1" />
			</g>
		</g>
		<g
   id="g335"
   style="fill:#e1c590;fill-opacity:1">
			<g
   id="g333"
   style="fill:#e1c590;fill-opacity:1">
				<g
   id="g331"
   style="fill:#e1c590;fill-opacity:1">
					<path
   class="st4"
   d="m 51.15,142.05 -0.58,-0.96 0.03,-0.02 1.56,0.62 c 0.54,0.12 1.09,0.24 1.63,0.36 -0.54,0.12 -1.09,0.24 -1.63,0.36 l -1.56,0.62 -0.03,-0.02 z"
   id="path329"
   style="fill:#e1c590;fill-opacity:1" />
				</g>
			</g>
		</g>
	</g>
	<g
   id="g343"
   style="fill:#e1c590;fill-opacity:1">
		<g
   id="g341"
   style="fill:#e1c590;fill-opacity:1">
			<path
   class="st5"
   d="M 43.91,88"
   id="path339"
   style="fill:#e1c590;fill-opacity:1" />
		</g>
	</g>
	<g
   id="g349"
   style="fill:#e1c590;fill-opacity:1">
		<g
   id="g347"
   style="fill:#e1c590;fill-opacity:1">
			<rect
   x="5.0799999"
   y="39.130001"
   class="st1"
   width="18.02"
   height="0.60000002"
   id="rect345"
   style="fill:#e1c590;fill-opacity:1" />
		</g>
	</g>
	<g
   id="g365"
   style="fill:#e1c590;fill-opacity:1">
		<g
   id="g355"
   style="fill:#e1c590;fill-opacity:1">
			<g
   id="g353"
   style="fill:#e1c590;fill-opacity:1">
				<rect
   x="5.0799999"
   y="39.25"
   class="st4"
   width="0.33000001"
   height="0.36000001"
   id="rect351"
   style="fill:#e1c590;fill-opacity:1" />
			</g>
		</g>
		<g
   id="g363"
   style="fill:#e1c590;fill-opacity:1">
			<g
   id="g361"
   style="fill:#e1c590;fill-opacity:1">
				<g
   id="g359"
   style="fill:#e1c590;fill-opacity:1">
					<path
   class="st4"
   d="M 5.56,39.43 6.14,38.47 6.11,38.45 4.55,39.07 C 4,39.19 3.46,39.31 2.92,39.43 c 0.54,0.12 1.09,0.24 1.63,0.36 l 1.56,0.62 0.03,-0.02 z"
   id="path357"
   style="fill:#e1c590;fill-opacity:1" />
				</g>
			</g>
		</g>
	</g>
	<g
   id="g381"
   style="fill:#e1c590;fill-opacity:1">
		<g
   id="g371"
   style="fill:#e1c590;fill-opacity:1">
			<g
   id="g369"
   style="fill:#e1c590;fill-opacity:1">
				<rect
   x="23.110001"
   y="39.25"
   class="st4"
   width="0.33000001"
   height="0.36000001"
   id="rect367"
   style="fill:#e1c590;fill-opacity:1" />
			</g>
		</g>
		<g
   id="g379"
   style="fill:#e1c590;fill-opacity:1">
			<g
   id="g377"
   style="fill:#e1c590;fill-opacity:1">
				<g
   id="g375"
   style="fill:#e1c590;fill-opacity:1">
					<path
   class="st4"
   d="m 22.96,39.43 -0.58,-0.96 0.03,-0.02 1.56,0.62 c 0.54,0.12 1.09,0.24 1.63,0.36 -0.54,0.12 -1.09,0.24 -1.63,0.36 l -1.56,0.62 -0.03,-0.02 z"
   id="path373"
   style="fill:#e1c590;fill-opacity:1" />
				</g>
			</g>
		</g>
	</g>
	<g
   id="g387"
   style="fill:#e1c590;fill-opacity:1">
		<g
   id="g385"
   style="fill:#e1c590;fill-opacity:1">
			<path
   class="st5"
   d="M 9.93,39.43"
   id="path383"
   style="fill:#e1c590;fill-opacity:1" />
		</g>
	</g>
	<g
   id="g393"
   style="fill:#e1c590;fill-opacity:1">
		<g
   id="g391"
   style="fill:#e1c590;fill-opacity:1">
			<polygon
   class="st2"
   points="41.71,193.58 41.46,193.15 53.94,186.16 53.94,193.89 53.44,193.89 53.44,187.01 "
   id="polygon389"
   style="fill:#e1c590;fill-opacity:1" />
		</g>
	</g>
	<g
   id="g399"
   style="fill:#e1c590;fill-opacity:1">
		<g
   id="g397"
   style="fill:#e1c590;fill-opacity:1">
			<rect
   x="43.98"
   y="195.8"
   class="st1"
   width="7.54"
   height="0.60000002"
   id="rect395"
   style="fill:#e1c590;fill-opacity:1" />
		</g>
	</g>
	<g
   id="g415"
   style="fill:#e1c590;fill-opacity:1">
		<g
   id="g405"
   style="fill:#e1c590;fill-opacity:1">
			<g
   id="g403"
   style="fill:#e1c590;fill-opacity:1">
				<rect
   x="43.75"
   y="195.92"
   class="st4"
   width="0.33000001"
   height="0.36000001"
   id="rect401"
   style="fill:#e1c590;fill-opacity:1" />
			</g>
		</g>
		<g
   id="g413"
   style="fill:#e1c590;fill-opacity:1">
			<g
   id="g411"
   style="fill:#e1c590;fill-opacity:1">
				<g
   id="g409"
   style="fill:#e1c590;fill-opacity:1">
					<path
   class="st4"
   d="m 44.23,196.1 0.58,-0.96 -0.03,-0.02 -1.56,0.62 c -0.54,0.12 -1.09,0.24 -1.63,0.36 0.54,0.12 1.09,0.24 1.63,0.36 l 1.56,0.62 0.03,-0.02 z"
   id="path407"
   style="fill:#e1c590;fill-opacity:1" />
				</g>
			</g>
		</g>
	</g>
	<g
   id="g431"
   style="fill:#e1c590;fill-opacity:1">
		<g
   id="g421"
   style="fill:#e1c590;fill-opacity:1">
			<g
   id="g419"
   style="fill:#e1c590;fill-opacity:1">
				<rect
   x="51.299999"
   y="195.92"
   class="st4"
   width="0.33000001"
   height="0.36000001"
   id="rect417"
   style="fill:#e1c590;fill-opacity:1" />
			</g>
		</g>
		<g
   id="g429"
   style="fill:#e1c590;fill-opacity:1">
			<g
   id="g427"
   style="fill:#e1c590;fill-opacity:1">
				<g
   id="g425"
   style="fill:#e1c590;fill-opacity:1">
					<path
   class="st4"
   d="m 51.15,196.1 -0.58,-0.96 0.03,-0.02 1.56,0.62 c 0.54,0.12 1.09,0.24 1.63,0.36 -0.54,0.12 -1.09,0.24 -1.63,0.36 l -1.56,0.62 -0.03,-0.02 z"
   id="path423"
   style="fill:#e1c590;fill-opacity:1" />
				</g>
			</g>
		</g>
	</g>
	<g
   id="g437"
   style="fill:#e1c590;fill-opacity:1">
		<g
   id="g435"
   style="fill:#e1c590;fill-opacity:1">
			<polygon
   class="st2"
   points="41.71,247.63 41.46,247.2 53.94,240.21 53.94,247.93 53.44,247.93 53.44,241.06 "
   id="polygon433"
   style="fill:#e1c590;fill-opacity:1" />
		</g>
	</g>
	<g
   id="g443"
   style="fill:#e1c590;fill-opacity:1">
		<g
   id="g441"
   style="fill:#e1c590;fill-opacity:1">
			<rect
   x="43.98"
   y="249.85001"
   class="st1"
   width="7.54"
   height="0.60000002"
   id="rect439"
   style="fill:#e1c590;fill-opacity:1" />
		</g>
	</g>
	<g
   id="g459"
   style="fill:#e1c590;fill-opacity:1">
		<g
   id="g449"
   style="fill:#e1c590;fill-opacity:1">
			<g
   id="g447"
   style="fill:#e1c590;fill-opacity:1">
				<rect
   x="43.75"
   y="249.97"
   class="st4"
   width="0.33000001"
   height="0.36000001"
   id="rect445"
   style="fill:#e1c590;fill-opacity:1" />
			</g>
		</g>
		<g
   id="g457"
   style="fill:#e1c590;fill-opacity:1">
			<g
   id="g455"
   style="fill:#e1c590;fill-opacity:1">
				<g
   id="g453"
   style="fill:#e1c590;fill-opacity:1">
					<path
   class="st4"
   d="m 44.23,250.15 0.58,-0.96 -0.03,-0.02 -1.56,0.62 c -0.54,0.12 -1.09,0.24 -1.63,0.36 0.54,0.12 1.09,0.24 1.63,0.36 l 1.56,0.62 0.03,-0.02 z"
   id="path451"
   style="fill:#e1c590;fill-opacity:1" />
				</g>
			</g>
		</g>
	</g>
	<g
   id="g475"
   style="fill:#e1c590;fill-opacity:1">
		<g
   id="g465"
   style="fill:#e1c590;fill-opacity:1">
			<g
   id="g463"
   style="fill:#e1c590;fill-opacity:1">
				<rect
   x="51.299999"
   y="249.97"
   class="st4"
   width="0.33000001"
   height="0.36000001"
   id="rect461"
   style="fill:#e1c590;fill-opacity:1" />
			</g>
		</g>
		<g
   id="g473"
   style="fill:#e1c590;fill-opacity:1">
			<g
   id="g471"
   style="fill:#e1c590;fill-opacity:1">
				<g
   id="g469"
   style="fill:#e1c590;fill-opacity:1">
					<path
   class="st4"
   d="m 51.15,250.15 -0.58,-0.96 0.03,-0.02 1.56,0.62 c 0.54,0.12 1.09,0.24 1.63,0.36 -0.54,0.12 -1.09,0.24 -1.63,0.36 l -1.56,0.62 -0.03,-0.02 z"
   id="path467"
   style="fill:#e1c590;fill-opacity:1" />
				</g>
			</g>
		</g>
	</g>
	<g
   id="g481"
   style="fill:#e1c590;fill-opacity:1">
		<g
   id="g479"
   style="fill:#e1c590;fill-opacity:1">
			<path
   class="st5"
   d="M 43.91,196.1"
   id="path477"
   style="fill:#e1c590;fill-opacity:1" />
		</g>
	</g>
	<g
   id="g487"
   style="fill:#e1c590;fill-opacity:1">
		<g
   id="g485"
   style="fill:#e1c590;fill-opacity:1">
			<polygon
   class="st2"
   points="41.71,301.68 41.46,301.24 53.94,294.26 53.94,301.98 53.44,301.98 53.44,295.11 "
   id="polygon483"
   style="fill:#e1c590;fill-opacity:1" />
		</g>
	</g>
	<g
   id="g493"
   style="fill:#e1c590;fill-opacity:1">
		<g
   id="g491"
   style="fill:#e1c590;fill-opacity:1">
			<rect
   x="43.98"
   y="303.89001"
   class="st1"
   width="7.54"
   height="0.60000002"
   id="rect489"
   style="fill:#e1c590;fill-opacity:1" />
		</g>
	</g>
	<g
   id="g509"
   style="fill:#e1c590;fill-opacity:1">
		<g
   id="g499"
   style="fill:#e1c590;fill-opacity:1">
			<g
   id="g497"
   style="fill:#e1c590;fill-opacity:1">
				<rect
   x="43.75"
   y="304.01001"
   class="st4"
   width="0.33000001"
   height="0.36000001"
   id="rect495"
   style="fill:#e1c590;fill-opacity:1" />
			</g>
		</g>
		<g
   id="g507"
   style="fill:#e1c590;fill-opacity:1">
			<g
   id="g505"
   style="fill:#e1c590;fill-opacity:1">
				<g
   id="g503"
   style="fill:#e1c590;fill-opacity:1">
					<path
   class="st4"
   d="m 44.23,304.19 0.58,-0.96 -0.03,-0.02 -1.56,0.62 c -0.54,0.12 -1.09,0.24 -1.63,0.36 0.54,0.12 1.09,0.24 1.63,0.36 l 1.56,0.62 0.03,-0.02 z"
   id="path501"
   style="fill:#e1c590;fill-opacity:1" />
				</g>
			</g>
		</g>
	</g>
	<g
   id="g525"
   style="fill:#e1c590;fill-opacity:1">
		<g
   id="g515"
   style="fill:#e1c590;fill-opacity:1">
			<g
   id="g513"
   style="fill:#e1c590;fill-opacity:1">
				<rect
   x="51.299999"
   y="304.01001"
   class="st4"
   width="0.33000001"
   height="0.36000001"
   id="rect511"
   style="fill:#e1c590;fill-opacity:1" />
			</g>
		</g>
		<g
   id="g523"
   style="fill:#e1c590;fill-opacity:1">
			<g
   id="g521"
   style="fill:#e1c590;fill-opacity:1">
				<g
   id="g519"
   style="fill:#e1c590;fill-opacity:1">
					<path
   class="st4"
   d="m 51.15,304.19 -0.58,-0.96 0.03,-0.02 1.56,0.62 c 0.54,0.12 1.09,0.24 1.63,0.36 -0.54,0.12 -1.09,0.24 -1.63,0.36 l -1.56,0.62 -0.03,-0.02 z"
   id="path517"
   style="fill:#e1c590;fill-opacity:1" />
				</g>
			</g>
		</g>
	</g>
	<g
   id="g539"
   style="fill:#e1c590;fill-opacity:1">
		<g
   id="g531"
   style="fill:#e1c590;fill-opacity:1">
			<g
   id="g529"
   style="fill:#e1c590;fill-opacity:1">
				<path
   class="st3"
   d="M 7.83,57.71 C 7.64,57.52 7.35,57.3 7.05,57.15 6.73,57.01 6.37,56.92 6.01,56.92 c -1.39,0 -2.41,1.12 -2.41,2.5 0,1.63 1.32,2.45 2.42,2.45 0.4,0 0.8,-0.12 1.12,-0.28 0.34,-0.17 0.59,-0.4 0.69,-0.5 v 0.83 c -0.67,0.48 -1.36,0.59 -1.81,0.59 -1.78,0 -3.11,-1.35 -3.11,-3.09 0,-1.79 1.34,-3.12 3.14,-3.12 0.36,0 1.05,0.04 1.77,0.59 v 0.82 z"
   id="path527"
   style="fill:#e1c590;fill-opacity:1" />
			</g>
		</g>
		<g
   id="g537"
   style="fill:#e1c590;fill-opacity:1">
			<g
   id="g535"
   style="fill:#e1c590;fill-opacity:1">
				<path
   class="st3"
   d="m 9.09,56.39 1.69,4.58 1.69,-4.58 h 0.74 l -2.43,6.37 -2.43,-6.37 z"
   id="path533"
   style="fill:#e1c590;fill-opacity:1" />
			</g>
		</g>
	</g>
	<g
   id="g553"
   style="fill:#e1c590;fill-opacity:1">
		<g
   id="g545"
   style="fill:#e1c590;fill-opacity:1">
			<g
   id="g543"
   style="fill:#e1c590;fill-opacity:1">
				<path
   class="st1"
   d="m 20.5,50.73 c -0.66,0 -1.1,0.65 -1.1,1.53 0,0.74 0.38,1.41 1.05,1.41 0.49,0 0.91,-0.47 1.03,-0.98 0.04,-0.18 0.05,-0.33 0.05,-0.54 0,-0.15 0,-0.28 -0.03,-0.42 -0.11,-0.53 -0.49,-1 -1,-1 z"
   id="path541"
   style="fill:#e1c590;fill-opacity:1" />
			</g>
		</g>
		<g
   id="g551"
   style="fill:#e1c590;fill-opacity:1">
			<g
   id="g549"
   style="fill:#e1c590;fill-opacity:1">
				<path
   class="st1"
   d="m 20.84,47.7 c -2.5,0 -4.54,2.03 -4.54,4.54 0,2.5 2.03,4.54 4.54,4.54 2.5,0 4.54,-2.03 4.54,-4.54 0,-2.51 -2.03,-4.54 -4.54,-4.54 z m 1.67,6.49 c -0.05,0.02 -0.16,0.03 -0.24,0.03 -0.34,0 -0.62,-0.22 -0.66,-0.82 h -0.02 c -0.26,0.46 -0.7,0.82 -1.32,0.82 -0.92,0 -1.58,-0.77 -1.58,-1.94 0,-1.26 0.83,-2.1 1.73,-2.1 0.56,0 0.98,0.29 1.19,0.78 h 0.03 c 0.02,-0.3 0.04,-0.5 0.07,-0.69 h 0.58 c -0.04,0.41 -0.1,1.74 -0.1,2.77 0,0.46 0.11,0.65 0.38,0.66 z"
   id="path547"
   style="fill:#e1c590;fill-opacity:1" />
			</g>
		</g>
	</g>
	<g
   id="g567"
   style="fill:#e1c590;fill-opacity:1">
		<g
   id="g559"
   style="fill:#e1c590;fill-opacity:1">
			<g
   id="g557"
   style="fill:#e1c590;fill-opacity:1">
				<path
   class="st1"
   d="m 18.45,105.62 c -0.06,-0.01 -0.13,0 -0.19,0 v -0.43 c 0.04,0 0.08,-0.01 0.12,-0.01 0.54,-0.04 0.81,-0.46 0.81,-0.91 0,-0.51 -0.31,-0.83 -0.73,-0.83 -0.58,0 -0.89,0.5 -0.89,1.49 v 2.18 c 0.16,0.26 0.51,0.57 1.01,0.57 0.57,0 0.98,-0.42 0.98,-0.99 0,-0.7 -0.48,-1.05 -1.11,-1.07 z"
   id="path555"
   style="fill:#e1c590;fill-opacity:1" />
			</g>
		</g>
		<g
   id="g565"
   style="fill:#e1c590;fill-opacity:1">
			<g
   id="g563"
   style="fill:#e1c590;fill-opacity:1">
				<path
   class="st1"
   d="m 18.46,101.65 c -2.5,0 -4.54,2.03 -4.54,4.54 0,2.5 2.03,4.54 4.54,4.54 2.5,0 4.54,-2.03 4.54,-4.54 0,-2.51 -2.03,-4.54 -4.54,-4.54 z m 0.24,6.5 c -0.48,0 -0.84,-0.16 -1.1,-0.44 h -0.01 v 0.48 c 0,0.41 0.01,1 0.08,1.29 h -0.59 c -0.09,-0.23 -0.11,-0.71 -0.11,-1.21 v -3.29 c 0,-0.99 0.26,-1.42 0.54,-1.68 0.24,-0.23 0.56,-0.38 1.01,-0.38 0.71,0 1.25,0.5 1.25,1.24 0,0.54 -0.31,0.95 -0.64,1.11 v 0.03 c 0.54,0.11 1.06,0.57 1.06,1.36 0,0.97 -0.73,1.49 -1.49,1.49 z"
   id="path561"
   style="fill:#e1c590;fill-opacity:1" />
			</g>
		</g>
	</g>
	<g
   id="g573"
   style="fill:#e1c590;fill-opacity:1">
		<g
   id="g571"
   style="fill:#e1c590;fill-opacity:1">
			<path
   class="st1"
   d="m 16.09,155.66 c -2.5,0 -4.54,2.03 -4.54,4.54 0,2.5 2.03,4.54 4.54,4.54 2.5,0 4.54,-2.03 4.54,-4.54 -0.01,-2.5 -2.04,-4.54 -4.54,-4.54 z m 0.27,5.53 c -0.04,0.05 -0.04,0.1 -0.04,0.16 0.02,0.39 0.02,0.9 0.02,1.36 h -0.59 c 0.02,-0.63 0.03,-1.28 -0.12,-1.94 -0.25,-1.09 -0.83,-2.2 -1.17,-2.71 h 0.68 c 0.3,0.45 0.8,1.55 1,2.57 h 0.03 c 0.3,-0.55 0.78,-1.53 0.78,-2.34 0,-0.1 -0.01,-0.17 -0.01,-0.23 h 0.57 c 0.01,0.06 0.02,0.14 0.02,0.22 0,0.85 -0.54,1.95 -1.17,2.91 z"
   id="path569"
   style="fill:#e1c590;fill-opacity:1" />
		</g>
	</g>
	<g
   id="g587"
   style="fill:#e1c590;fill-opacity:1">
		<g
   id="g579"
   style="fill:#e1c590;fill-opacity:1">
			<g
   id="g577"
   style="fill:#e1c590;fill-opacity:1">
				<path
   class="st1"
   d="m 13.71,209.77 c -2.5,0 -4.54,2.03 -4.54,4.54 0,2.5 2.03,4.54 4.54,4.54 2.5,0 4.54,-2.03 4.54,-4.54 0,-2.51 -2.03,-4.54 -4.54,-4.54 z m 0,7 C 12.8,216.77 12,216.13 12,215 c 0,-0.9 0.62,-1.5 1.34,-1.84 v -0.04 L 13.17,213 c -0.17,-0.14 -0.44,-0.39 -0.44,-0.73 0,-0.39 0.4,-0.82 1.22,-0.82 0.51,0 0.95,0.18 1.16,0.35 l -0.19,0.42 c -0.15,-0.11 -0.56,-0.29 -0.96,-0.29 -0.4,0 -0.6,0.15 -0.6,0.33 0,0.19 0.2,0.33 0.52,0.59 l 0.6,0.48 c 0.58,0.44 0.93,0.95 0.93,1.65 0.01,1.09 -0.75,1.79 -1.7,1.79 z"
   id="path575"
   style="fill:#e1c590;fill-opacity:1" />
			</g>
		</g>
		<g
   id="g585"
   style="fill:#e1c590;fill-opacity:1">
			<g
   id="g583"
   style="fill:#e1c590;fill-opacity:1">
				<path
   class="st1"
   d="m 14.1,213.77 -0.38,-0.3 c -0.55,0.29 -1.06,0.76 -1.06,1.53 0,0.82 0.54,1.29 1.1,1.29 0.56,0 1.03,-0.47 1.03,-1.27 -0.01,-0.49 -0.24,-0.9 -0.69,-1.25 z"
   id="path581"
   style="fill:#e1c590;fill-opacity:1" />
			</g>
		</g>
	</g>
	<g
   id="g593"
   style="fill:#e1c590;fill-opacity:1">
		<g
   id="g591"
   style="fill:#e1c590;fill-opacity:1">
			<path
   class="st1"
   d="m 11.34,263.65 c -2.5,0 -4.54,2.03 -4.54,4.54 0,2.5 2.03,4.54 4.54,4.54 2.5,0 4.54,-2.03 4.54,-4.54 -0.01,-2.51 -2.04,-4.54 -4.54,-4.54 z m -0.08,6.47 c -0.78,0 -1.63,-0.3 -1.63,-1.18 0,-0.48 0.39,-0.88 0.96,-0.97 v -0.04 c -0.51,-0.11 -0.77,-0.43 -0.77,-0.82 0,-0.51 0.51,-1.05 1.54,-1.05 0.5,0 0.9,0.1 1.18,0.3 l -0.15,0.46 c -0.16,-0.1 -0.58,-0.24 -0.97,-0.24 -0.54,0 -0.9,0.22 -0.9,0.58 0,0.38 0.47,0.55 1.08,0.55 h 0.46 v 0.5 h -0.49 c -0.7,0 -1.22,0.19 -1.22,0.66 0,0.46 0.48,0.7 1.05,0.7 0.42,0 0.9,-0.16 1.14,-0.3 l 0.13,0.48 c -0.29,0.22 -0.86,0.37 -1.41,0.37 z"
   id="path589"
   style="fill:#e1c590;fill-opacity:1" />
		</g>
	</g>
	<g
   id="g599"
   style="fill:#e1c590;fill-opacity:1">
		<g
   id="g597"
   style="fill:#e1c590;fill-opacity:1">
			<path
   class="st1"
   d="m 8.96,317.65 c -2.5,0 -4.54,2.03 -4.54,4.54 0,2.5 2.03,4.54 4.54,4.54 2.5,0 4.54,-2.03 4.54,-4.54 0,-2.51 -2.03,-4.54 -4.54,-4.54 z m -0.18,6.21 c 0.31,0.12 0.63,0.17 0.94,0.2 0.03,0.01 0.06,0.04 0.06,0.08 0,0.4 -0.22,0.97 -0.4,1.22 l -0.39,-0.12 c 0.09,-0.16 0.21,-0.58 0.22,-0.77 -0.24,-0.04 -0.53,-0.1 -0.8,-0.19 -0.59,-0.2 -1.07,-0.66 -1.07,-1.55 0,-0.97 0.61,-2.1 1.65,-2.83 v -0.03 H 8.51 c -0.3,0 -0.58,-0.01 -0.78,-0.07 l 0.06,-0.41 c 0.22,0.03 0.52,0.03 0.82,0.03 h 1.13 l 0.09,0.42 c -1.08,0.56 -1.88,1.75 -1.88,2.78 0,0.75 0.34,1.05 0.83,1.24 z"
   id="path595"
   style="fill:#e1c590;fill-opacity:1" />
		</g>
	</g>
	<g
   id="g605"
   style="fill:#e1c590;fill-opacity:1">
		<g
   id="g603"
   style="fill:#e1c590;fill-opacity:1">
			<rect
   x="24.34"
   y="51.689999"
   class="st1"
   width="21.809999"
   height="1.1"
   id="rect601"
   style="fill:#e1c590;fill-opacity:1" />
		</g>
	</g>
	<g
   id="g611"
   style="fill:#e1c590;fill-opacity:1">
		<g
   id="g609"
   style="fill:#e1c590;fill-opacity:1">
			<rect
   x="22.33"
   y="105.64"
   class="st1"
   width="21.809999"
   height="1.1"
   id="rect607"
   style="fill:#e1c590;fill-opacity:1" />
		</g>
	</g>
	<g
   id="g617"
   style="fill:#e1c590;fill-opacity:1">
		<g
   id="g615"
   style="fill:#e1c590;fill-opacity:1">
			<rect
   x="19.540001"
   y="159.92999"
   class="st1"
   width="21.809999"
   height="1.1"
   id="rect613"
   style="fill:#e1c590;fill-opacity:1" />
		</g>
	</g>
	<g
   id="g623"
   style="fill:#e1c590;fill-opacity:1">
		<g
   id="g621"
   style="fill:#e1c590;fill-opacity:1">
			<rect
   x="17.530001"
   y="213.75999"
   class="st1"
   width="21.809999"
   height="1.1"
   id="rect619"
   style="fill:#e1c590;fill-opacity:1" />
		</g>
	</g>
	<g
   id="g629"
   style="fill:#e1c590;fill-opacity:1">
		<g
   id="g627"
   style="fill:#e1c590;fill-opacity:1">
			<rect
   x="15.07"
   y="267.70001"
   class="st1"
   width="21.809999"
   height="1.1"
   id="rect625"
   style="fill:#e1c590;fill-opacity:1" />
		</g>
	</g>
	<g
   id="g635"
   style="fill:#e1c590;fill-opacity:1">
		<g
   id="g633"
   style="fill:#e1c590;fill-opacity:1">
			<rect
   x="12.46"
   y="321.70001"
   class="st1"
   width="21.809999"
   height="1.1"
   id="rect631"
   style="fill:#e1c590;fill-opacity:1" />
		</g>
	</g>
</g>
</svg>
