<?xml version="1.0" encoding="UTF-8" standalone="no"?>
<svg
   xmlns:dc="http://purl.org/dc/elements/1.1/"
   xmlns:cc="http://creativecommons.org/ns#"
   xmlns:rdf="http://www.w3.org/1999/02/22-rdf-syntax-ns#"
   xmlns:svg="http://www.w3.org/2000/svg"
   xmlns="http://www.w3.org/2000/svg"
   xmlns:sodipodi="http://sodipodi.sourceforge.net/DTD/sodipodi-0.dtd"
   xmlns:inkscape="http://www.inkscape.org/namespaces/inkscape"
   inkscape:version="1.0 (4035a4f, 2020-05-01)"
   height="128.5mm"
   width="71.120003mm"
   sodipodi:docname="I-047 (Inkscape Render) V3.svg"
   xml:space="preserve"
   viewBox="0 0 268.80001 485.66928"
   y="0px"
   x="0px"
   id="Layer_1"
   version="1.1"><metadata
   id="metadata1285"><rdf:RDF><cc:Work
       rdf:about=""><dc:format>image/svg+xml</dc:format><dc:type
         rdf:resource="http://purl.org/dc/dcmitype/StillImage" /><dc:title></dc:title></cc:Work></rdf:RDF></metadata><defs
   id="defs1283" /><sodipodi:namedview
   inkscape:current-layer="Layer_1"
   inkscape:window-maximized="0"
   inkscape:window-y="23"
   inkscape:window-x="0"
   inkscape:cy="272.50705"
   inkscape:cx="69.46863"
   inkscape:zoom="1.0865317"
   units="mm"
   inkscape:document-units="mm"
   showgrid="false"
   id="namedview1281"
   inkscape:window-height="855"
   inkscape:window-width="1349"
   inkscape:pageshadow="2"
   inkscape:pageopacity="0"
   guidetolerance="10"
   gridtolerance="10"
   objecttolerance="10"
   borderopacity="1"
   bordercolor="#666666"
   pagecolor="#ffffff" />
<style
   id="style833"
   type="text/css">
	.st0{fill:#1E1E1E;}
	.st1{fill:#DABE8D;}
</style>
<g
   style="fill:#1e1e1e;fill-opacity:1"
   transform="scale(1.3333333,1.3331576)"
   id="Layer_4">
	<rect
   style="fill:#1e1e1e;fill-opacity:1"
   x="0"
   id="rect835"
   height="364.29999"
   width="201.60001"
   class="st0"
   y="0" />
</g>
<g
   style="fill:#dabe8d;fill-opacity:1"
   transform="scale(1.3333333,1.3331576)"
   id="g1278">
	<path
   style="fill:#dabe8d;fill-opacity:1"
   id="path838"
   d="M 180.8,134.1 H 168.5 V 46.6 h 12.3 z m 1.3,3 h 1.7 V 43.6 h -18.3 v 93.5 h 2.8 z"
   class="st1" />
	<g
   style="fill:#dabe8d;fill-opacity:1"
   id="g842">
		<path
   style="fill:#dabe8d;fill-opacity:1"
   id="path840"
   d="M 64.3,20.3 V 3.3 L 77,16.7 V 4 h 1.8 V 21.1 L 66.1,7.7 v 12.6 z"
   class="st1" />
	</g>
	<g
   style="fill:#dabe8d;fill-opacity:1"
   id="g846">
		<path
   style="fill:#dabe8d;fill-opacity:1"
   id="path844"
   d="M 90.3,7.2 C 90.1,6.8 89.7,6.3 89.3,6 89,5.8 88.4,5.4 87.5,5.4 c -1.6,0 -2.7,1 -2.7,2.5 0,0.6 0.2,1 0.6,1.4 0.5,0.5 1.1,0.8 1.7,1 l 1.6,0.7 c 1,0.4 1.8,0.9 2.5,1.5 0.8,0.8 1.2,1.8 1.2,3 0,3 -2.2,5 -5.2,5 -1.1,0 -2.4,-0.2 -3.5,-1.3 -0.8,-0.8 -1.3,-1.9 -1.5,-2.9 L 84,15.8 c 0.1,0.9 0.5,1.6 1,2.1 0.7,0.7 1.5,0.9 2.3,0.9 2.2,0 3.3,-1.6 3.3,-3.2 0,-0.7 -0.2,-1.4 -0.8,-1.9 -0.5,-0.4 -1.1,-0.7 -2,-1.1 L 86.3,11.9 C 85.7,11.6 84.9,11.3 84.1,10.6 83.4,9.8 83,9.1 83,7.9 c 0,-2.5 1.9,-4.2 4.6,-4.2 1,0 1.8,0.2 2.6,0.7 0.7,0.4 1.2,1.1 1.6,1.8 z"
   class="st1" />
	</g>
	<g
   style="fill:#dabe8d;fill-opacity:1"
   id="g850">
		<path
   style="fill:#dabe8d;fill-opacity:1"
   id="path848"
   d="M 98.7,5.7 V 20.3 H 96.9 V 5.7 h -4 V 4 h 9.7 v 1.7 z"
   class="st1" />
	</g>
	<g
   style="fill:#dabe8d;fill-opacity:1"
   id="g854">
		<path
   style="fill:#dabe8d;fill-opacity:1"
   id="path852"
   d="m 107.7,4 c 1.1,0 2.7,0.1 4,0.9 1,0.6 1.8,1.9 1.8,3.6 0,2.5 -1.6,4.3 -4.1,4.5 l 5.2,7.3 h -2.2 l -5,-7.1 h -0.5 v 7.1 h -1.8 V 4 Z m -0.8,7.6 h 1.2 c 2.3,0 3.6,-1.1 3.6,-3 0,-0.9 -0.3,-1.8 -1.3,-2.4 -0.7,-0.4 -1.6,-0.5 -2.3,-0.5 H 107 Z"
   class="st1" />
	</g>
	<g
   style="fill:#dabe8d;fill-opacity:1"
   id="g858">
		<path
   style="fill:#dabe8d;fill-opacity:1"
   id="path856"
   d="m 119.2,14 c 0,1.4 0,2.9 1.3,4 0.7,0.6 1.8,0.9 2.7,0.9 0.9,0 2,-0.4 2.7,-0.9 1.3,-1.1 1.3,-2.6 1.3,-4 V 4 h 1.8 v 10.5 c 0,1.4 -0.1,2.7 -1,3.9 -1,1.3 -2.7,2.2 -4.8,2.2 -2.1,0 -3.8,-0.9 -4.8,-2.2 -0.9,-1.2 -1,-2.5 -1,-3.9 V 4 h 1.8 z"
   class="st1" />
	</g>
	<path
   style="fill:#dabe8d;fill-opacity:1"
   id="path860"
   d="m 137.4,7.9 c -3.7,0 -6.4,2.8 -6.4,6.6 0,3.8 2.7,6.6 6.4,6.6 3.7,0 6.4,-2.8 6.4,-6.6 0,-3.8 -2.7,-6.6 -6.4,-6.6 z m 0,11.2 c -2.2,0 -4.3,-1.6 -4.3,-4.6 0,-3 2,-4.7 4.3,-4.7 2.2,0 4.3,1.6 4.3,4.7 -0.1,3 -2.1,4.6 -4.3,4.6 z"
   class="st1" />
	<rect
   style="fill:#dabe8d;fill-opacity:1"
   id="rect862"
   height="1.8"
   width="13"
   class="st1"
   y="3.9000001"
   x="130.89999" />
	<polygon
   style="fill:#dabe8d;fill-opacity:1"
   id="polygon864"
   points="57.7,3.8 60.4,3.8 59.7,6.4 59.7,17.8 60.4,20.3 57.7,20.3 58.3,17.8 58.3,6.4 "
   class="st1" />
	<rect
   style="fill:#dabe8d;fill-opacity:1"
   id="rect866"
   height="3"
   width="23"
   class="st1"
   y="60.099998"
   x="142.39999" />
	<g
   style="fill:#dabe8d;fill-opacity:1"
   id="g870">
		<path
   style="fill:#dabe8d;fill-opacity:1"
   id="path868"
   d="m 166,32.7 h 2.8 v 0.2 c 0,0.7 -0.2,1.5 -0.6,2.1 -0.2,0.3 -0.9,1.2 -2.5,1.2 -2,0 -3.5,-1.5 -3.5,-3.4 0,-1.9 1.5,-3.4 3.5,-3.4 0.6,0 1.4,0.2 2,0.7 0.3,0.2 0.6,0.5 0.8,0.8 l -0.5,0.5 c -0.2,-0.3 -0.4,-0.5 -0.6,-0.7 -0.3,-0.3 -0.8,-0.6 -1.6,-0.6 -1.6,0 -2.7,1.2 -2.7,2.8 0,1.8 1.4,2.7 2.7,2.7 0.9,0 1.7,-0.4 2,-1.1 0.1,-0.2 0.2,-0.5 0.3,-0.9 h -2 z"
   class="st1" />
	</g>
	<g
   style="fill:#dabe8d;fill-opacity:1"
   id="g874">
		<path
   style="fill:#dabe8d;fill-opacity:1"
   id="path872"
   d="M 173.8,34.1 H 171 l -0.8,1.9 h -0.8 l 3.1,-7 3,7 h -0.8 z m -0.3,-0.7 -1.1,-2.7 -1.1,2.7 z"
   class="st1" />
	</g>
	<g
   style="fill:#dabe8d;fill-opacity:1"
   id="g878">
		<path
   style="fill:#dabe8d;fill-opacity:1"
   id="path876"
   d="M 177.1,29.3 V 36 h -0.7 v -6.7 z"
   class="st1" />
	</g>
	<g
   style="fill:#dabe8d;fill-opacity:1"
   id="g882">
		<path
   style="fill:#dabe8d;fill-opacity:1"
   id="path880"
   d="m 178.8,36 v -6.9 l 5.2,5.4 v -5.2 h 0.7 v 7 l -5.2,-5.4 V 36 Z"
   class="st1" />
	</g>
	<g
   style="fill:#dabe8d;fill-opacity:1"
   id="g886">
		<path
   style="fill:#dabe8d;fill-opacity:1"
   id="path884"
   d="m 149.1,43.9 v 6.7 h -0.7 v -6.7 z"
   class="st1" />
	</g>
	<g
   style="fill:#dabe8d;fill-opacity:1"
   id="g890">
		<path
   style="fill:#dabe8d;fill-opacity:1"
   id="path888"
   d="m 150.8,50.6 v -6.9 l 5.2,5.4 v -5.2 h 0.7 v 7 l -5.2,-5.4 v 5.1 c 0,0 -0.7,0 -0.7,0 z"
   class="st1" />
	</g>
	<g
   style="fill:#dabe8d;fill-opacity:1"
   id="g894">
		<path
   style="fill:#dabe8d;fill-opacity:1"
   id="path892"
   d="m 14,322.2 c -0.4,0.3 -1.4,0.9 -3,0.9 -2.9,0 -5.2,-2.2 -5.2,-5.2 0,-3 2.3,-5.2 5.2,-5.2 2.9,0 5.2,2.2 5.2,5.2 0,1.8 -0.8,3 -1.4,3.6 l 1.5,1.5 h -1.4 z m 0,-1.5 c 0.4,-0.4 1.1,-1.3 1.1,-2.8 0,-2.3 -1.8,-4.1 -4.1,-4.1 -2.2,0 -4.1,1.8 -4.1,4.1 0,2.3 1.8,4.1 4.1,4.1 0.6,0 1.4,-0.1 2.2,-0.7 l -2.4,-2.5 h 1.4 z"
   class="st1" />
	</g>
	<g
   style="fill:#dabe8d;fill-opacity:1"
   id="g898">
		<path
   style="fill:#dabe8d;fill-opacity:1"
   id="path896"
   d="M 9.5,25.9 C 9.3,25.7 9,25.4 8.6,25.3 8.3,25.1 7.9,25 7.5,25 6,25 4.8,26.2 4.8,27.8 c 0,1.8 1.5,2.7 2.7,2.7 0.4,0 0.9,-0.1 1.2,-0.3 0.4,-0.2 0.6,-0.4 0.8,-0.6 v 0.9 c -0.7,0.5 -1.5,0.6 -2,0.6 -2,0 -3.4,-1.5 -3.4,-3.4 0,-2 1.5,-3.5 3.5,-3.5 0.4,0 1.2,0 2,0.7 v 1 z"
   class="st1" />
	</g>
	<g
   style="fill:#dabe8d;fill-opacity:1"
   id="g902">
		<path
   style="fill:#dabe8d;fill-opacity:1"
   id="path900"
   d="m 10.5,27.7 c 0,-2 1.5,-3.4 3.5,-3.4 2,0 3.5,1.5 3.5,3.4 0,2 -1.5,3.4 -3.5,3.4 -2,0.1 -3.5,-1.4 -3.5,-3.4 z m 0.8,0 c 0,1.5 1.2,2.7 2.7,2.7 1.5,0 2.7,-1.2 2.7,-2.7 0,-1.5 -1.2,-2.7 -2.7,-2.7 -1.5,0 -2.7,1.2 -2.7,2.7 z"
   class="st1" />
	</g>
	<g
   style="fill:#dabe8d;fill-opacity:1"
   id="g906">
		<path
   style="fill:#dabe8d;fill-opacity:1"
   id="path904"
   d="m 22.3,29.2 h -2.8 l -0.8,1.9 h -0.8 l 3.1,-7 3,7 H 23.2 Z M 22,28.5 20.9,25.8 19.8,28.5 Z"
   class="st1" />
	</g>
	<g
   style="fill:#dabe8d;fill-opacity:1"
   id="g910">
		<path
   style="fill:#dabe8d;fill-opacity:1"
   id="path908"
   d="m 25.9,24.4 c 0.5,0 1.1,0 1.6,0.4 0.4,0.3 0.7,0.8 0.7,1.5 0,1 -0.7,1.8 -1.7,1.8 l 2.1,3 h -0.9 l -2,-2.9 h -0.2 v 2.9 h -0.7 v -6.7 c 0,0 1.1,0 1.1,0 z m -0.3,3.1 H 26 c 0.9,0 1.5,-0.4 1.5,-1.2 0,-0.4 -0.1,-0.7 -0.5,-1 -0.3,-0.2 -0.6,-0.2 -1,-0.2 h -0.4 z"
   class="st1" />
	</g>
	<g
   style="fill:#dabe8d;fill-opacity:1"
   id="g914">
		<path
   style="fill:#dabe8d;fill-opacity:1"
   id="path912"
   d="M 32.8,25.7 C 32.7,25.5 32.6,25.3 32.4,25.2 32.3,25.1 32,25 31.7,25 c -0.7,0 -1.1,0.4 -1.1,1 0,0.3 0.1,0.4 0.2,0.6 0.2,0.2 0.4,0.3 0.7,0.4 l 0.6,0.3 c 0.4,0.2 0.7,0.3 1,0.6 0.3,0.3 0.5,0.7 0.5,1.2 0,1.2 -0.9,2 -2.1,2 -0.4,0 -1,-0.1 -1.4,-0.5 -0.3,-0.3 -0.5,-0.8 -0.6,-1.2 l 0.7,-0.2 c 0.1,0.3 0.2,0.6 0.4,0.8 0.3,0.3 0.6,0.4 1,0.4 0.9,0 1.3,-0.6 1.3,-1.3 0,-0.3 -0.1,-0.6 -0.3,-0.8 C 32.4,28.1 32.2,28 31.8,27.8 L 31.2,27.5 C 30.9,27.4 30.6,27.2 30.3,27 30,26.7 29.8,26.4 29.8,25.9 c 0,-1 0.8,-1.7 1.9,-1.7 0.4,0 0.7,0.1 1.1,0.3 0.3,0.2 0.5,0.5 0.6,0.7 z"
   class="st1" />
	</g>
	<g
   style="fill:#dabe8d;fill-opacity:1"
   id="g918">
		<path
   style="fill:#dabe8d;fill-opacity:1"
   id="path916"
   d="m 38.5,25.1 h -2.7 v 2 h 2.6 v 0.7 h -2.6 v 2.6 h 2.7 v 0.7 H 35 v -6.7 h 3.5 z"
   class="st1" />
	</g>
	<g
   style="fill:#dabe8d;fill-opacity:1"
   id="g922">
		<path
   style="fill:#dabe8d;fill-opacity:1"
   id="path920"
   d="M 7.2,118.2 H 4.9 v 2 h 2.2 v 0.7 H 4.9 v 3.3 H 4.1 v -6.7 h 3 z"
   class="st1" />
	</g>
	<g
   style="fill:#dabe8d;fill-opacity:1"
   id="g926">
		<path
   style="fill:#dabe8d;fill-opacity:1"
   id="path924"
   d="m 9.2,117.5 v 6.7 H 8.5 v -6.7 z"
   class="st1" />
	</g>
	<g
   style="fill:#dabe8d;fill-opacity:1"
   id="g930">
		<path
   style="fill:#dabe8d;fill-opacity:1"
   id="path928"
   d="m 10.9,124.2 v -6.9 l 5.2,5.4 v -5.2 h 0.7 v 7 l -5.2,-5.4 v 5.1 z"
   class="st1" />
	</g>
	<g
   style="fill:#dabe8d;fill-opacity:1"
   id="g934">
		<path
   style="fill:#dabe8d;fill-opacity:1"
   id="path932"
   d="m 22.1,118.2 h -2.7 v 2 H 22 v 0.7 h -2.6 v 2.6 h 2.7 v 0.7 h -3.5 v -6.7 h 3.5 z"
   class="st1" />
	</g>
	<g
   style="fill:#dabe8d;fill-opacity:1"
   id="g938">
		<path
   style="fill:#dabe8d;fill-opacity:1"
   id="path936"
   d="m 67.6,144.9 h -1.1 l 0.4,-0.7 h 1.5 v 6.7 h -0.7 v -6 z"
   class="st1" />
	</g>
	<g
   style="fill:#dabe8d;fill-opacity:1"
   id="g942">
		<path
   style="fill:#dabe8d;fill-opacity:1"
   id="path940"
   d="m 71.5,144.2 1.9,5.1 1.9,-5.1 h 0.8 l -2.7,7.1 -2.7,-7.1 z"
   class="st1" />
	</g>
	<g
   style="fill:#dabe8d;fill-opacity:1"
   id="g946">
		<path
   style="fill:#dabe8d;fill-opacity:1"
   id="path944"
   d="m 81.3,143.3 0.6,0.3 -5.1,9.3 -0.6,-0.3 z"
   class="st1" />
	</g>
	<g
   style="fill:#dabe8d;fill-opacity:1"
   id="g950">
		<path
   style="fill:#dabe8d;fill-opacity:1"
   id="path948"
   d="m 82.6,147.5 c 0,-2 1.5,-3.4 3.5,-3.4 2,0 3.5,1.5 3.5,3.4 0,2 -1.5,3.4 -3.5,3.4 -2,0.1 -3.5,-1.4 -3.5,-3.4 z m 0.7,0 c 0,1.5 1.2,2.7 2.7,2.7 1.5,0 2.7,-1.2 2.7,-2.7 0,-1.5 -1.2,-2.7 -2.7,-2.7 -1.5,0 -2.7,1.2 -2.7,2.7 z"
   class="st1" />
	</g>
	<g
   style="fill:#dabe8d;fill-opacity:1"
   id="g954">
		<path
   style="fill:#dabe8d;fill-opacity:1"
   id="path952"
   d="m 96,145.7 c -0.2,-0.2 -0.5,-0.5 -0.9,-0.6 -0.4,-0.2 -0.8,-0.3 -1.1,-0.3 -1.5,0 -2.7,1.2 -2.7,2.8 0,1.8 1.5,2.7 2.7,2.7 0.4,0 0.9,-0.1 1.2,-0.3 0.4,-0.2 0.6,-0.4 0.8,-0.6 v 0.9 c -0.7,0.5 -1.5,0.6 -2,0.6 -2,0 -3.4,-1.5 -3.4,-3.4 0,-2 1.5,-3.5 3.5,-3.5 0.4,0 1.2,0 2,0.7 z"
   class="st1" />
	</g>
	<g
   style="fill:#dabe8d;fill-opacity:1"
   id="g958">
		<path
   style="fill:#dabe8d;fill-opacity:1"
   id="path956"
   d="m 99,144.9 v 6 h -0.7 v -6 h -1.6 v -0.7 h 4 v 0.7 z"
   class="st1" />
	</g>
	<g
   style="fill:#dabe8d;fill-opacity:1"
   id="g962">
		<path
   style="fill:#dabe8d;fill-opacity:1"
   id="path960"
   d="m 107.9,342.7 0.7,-4.7 1.7,3.8 1.7,-3.8 0.7,4.7 h -0.5 l -0.4,-3.1 -1.5,3.3 -1.5,-3.3 -0.4,3.1 z"
   class="st1" />
	</g>
	<g
   style="fill:#dabe8d;fill-opacity:1"
   id="g966">
		<path
   style="fill:#dabe8d;fill-opacity:1"
   id="path964"
   d="m 114.4,340.9 c 0,0.4 0,0.8 0.4,1.1 0.2,0.2 0.5,0.3 0.7,0.3 0.2,0 0.6,-0.1 0.7,-0.3 0.4,-0.3 0.4,-0.7 0.4,-1.1 v -2.7 h 0.5 v 2.9 c 0,0.4 0,0.7 -0.3,1.1 -0.3,0.4 -0.7,0.6 -1.3,0.6 -0.6,0 -1,-0.2 -1.3,-0.6 -0.2,-0.3 -0.3,-0.7 -0.3,-1.1 v -2.9 h 0.5 z"
   class="st1" />
	</g>
	<g
   style="fill:#dabe8d;fill-opacity:1"
   id="g970">
		<path
   style="fill:#dabe8d;fill-opacity:1"
   id="path968"
   d="m 118.7,338.2 v 4 h 1.2 v 0.5 h -1.7 v -4.5 z"
   class="st1" />
	</g>
	<g
   style="fill:#dabe8d;fill-opacity:1"
   id="g974">
		<path
   style="fill:#dabe8d;fill-opacity:1"
   id="path972"
   d="m 121.5,338.7 v 4 H 121 v -4 h -1 v -0.5 h 2.7 v 0.5 z"
   class="st1" />
	</g>
	<g
   style="fill:#dabe8d;fill-opacity:1"
   id="g978">
		<path
   style="fill:#dabe8d;fill-opacity:1"
   id="path976"
   d="m 123.8,338.2 v 4.5 h -0.5 v -4.5 z"
   class="st1" />
	</g>
	<g
   style="fill:#dabe8d;fill-opacity:1"
   id="g982">
		<path
   style="fill:#dabe8d;fill-opacity:1"
   id="path980"
   d="m 124.8,342.7 0.7,-4.7 1.7,3.8 1.7,-3.8 0.7,4.7 h -0.5 l -0.4,-3.1 -1.5,3.3 -1.5,-3.3 -0.4,3.1 z"
   class="st1" />
	</g>
	<g
   style="fill:#dabe8d;fill-opacity:1"
   id="g986">
		<path
   style="fill:#dabe8d;fill-opacity:1"
   id="path984"
   d="m 130.5,340.4 c 0,-1.3 1,-2.3 2.3,-2.3 1.3,0 2.3,1 2.3,2.3 0,1.3 -1,2.3 -2.3,2.3 -1.3,0 -2.3,-0.9 -2.3,-2.3 z m 0.5,0 c 0,1 0.8,1.8 1.8,1.8 1,0 1.8,-0.8 1.8,-1.8 0,-1 -0.8,-1.8 -1.8,-1.8 -1,0 -1.8,0.8 -1.8,1.8 z"
   class="st1" />
	</g>
	<g
   style="fill:#dabe8d;fill-opacity:1"
   id="g990">
		<path
   style="fill:#dabe8d;fill-opacity:1"
   id="path988"
   d="m 136,338.2 h 0.9 c 0.4,0 1.1,0 1.6,0.5 0.4,0.3 0.8,0.9 0.8,1.7 0,0.9 -0.5,1.4 -0.8,1.7 -0.4,0.3 -0.8,0.5 -1.6,0.5 H 136 Z m 0.5,4 h 0.4 c 0.4,0 0.8,0 1.3,-0.4 0.3,-0.3 0.6,-0.7 0.6,-1.4 0,-1.1 -0.7,-1.8 -1.9,-1.8 h -0.4 z"
   class="st1" />
	</g>
	<g
   style="fill:#dabe8d;fill-opacity:1"
   id="g994">
		<path
   style="fill:#dabe8d;fill-opacity:1"
   id="path992"
   d="m 142.5,338.7 h -1.8 v 1.3 h 1.8 v 0.5 h -1.8 v 1.7 h 1.8 v 0.5 h -2.3 v -4.5 h 2.3 z"
   class="st1" />
	</g>
	<g
   style="fill:#dabe8d;fill-opacity:1"
   id="g998">
		<path
   style="fill:#dabe8d;fill-opacity:1"
   id="path996"
   d="m 145.7,338.2 c 0.3,0 0.7,0 1.1,0.2 0.3,0.2 0.5,0.5 0.5,1 0,0.7 -0.4,1.2 -1.1,1.2 l 1.4,2 H 147 l -1.4,-2 h -0.1 v 2 H 145 v -4.5 z m -0.2,2.1 h 0.3 c 0.6,0 1,-0.3 1,-0.8 0,-0.2 -0.1,-0.5 -0.4,-0.7 -0.2,-0.1 -0.4,-0.1 -0.6,-0.1 h -0.3 z"
   class="st1" />
	</g>
	<g
   style="fill:#dabe8d;fill-opacity:1"
   id="g1002">
		<path
   style="fill:#dabe8d;fill-opacity:1"
   id="path1000"
   d="m 150.7,338.7 h -1.8 v 1.3 h 1.8 v 0.5 h -1.8 v 1.7 h 1.8 v 0.5 h -2.3 v -4.5 h 2.3 z"
   class="st1" />
	</g>
	<g
   style="fill:#dabe8d;fill-opacity:1"
   id="g1006">
		<path
   style="fill:#dabe8d;fill-opacity:1"
   id="path1004"
   d="m 153.6,339.1 c -0.1,-0.1 -0.2,-0.3 -0.3,-0.3 -0.1,-0.1 -0.2,-0.2 -0.5,-0.2 -0.4,0 -0.7,0.3 -0.7,0.7 0,0.2 0,0.3 0.2,0.4 0.1,0.1 0.3,0.2 0.5,0.3 l 0.4,0.2 c 0.3,0.1 0.5,0.2 0.7,0.4 0.2,0.2 0.3,0.5 0.3,0.8 0,0.8 -0.6,1.4 -1.4,1.4 -0.3,0 -0.7,-0.1 -1,-0.4 -0.2,-0.2 -0.4,-0.5 -0.4,-0.8 l 0.5,-0.1 c 0,0.2 0.1,0.4 0.3,0.6 0.2,0.2 0.4,0.2 0.6,0.2 0.6,0 0.9,-0.4 0.9,-0.9 0,-0.2 -0.1,-0.4 -0.2,-0.5 -0.1,-0.1 -0.3,-0.2 -0.5,-0.3 l -0.4,-0.2 c -0.2,-0.1 -0.4,-0.2 -0.6,-0.4 -0.2,-0.2 -0.3,-0.4 -0.3,-0.7 0,-0.7 0.5,-1.1 1.2,-1.1 0.3,0 0.5,0.1 0.7,0.2 0.2,0.1 0.3,0.3 0.4,0.5 z"
   class="st1" />
	</g>
	<g
   style="fill:#dabe8d;fill-opacity:1"
   id="g1010">
		<path
   style="fill:#dabe8d;fill-opacity:1"
   id="path1008"
   d="m 154.8,340.4 c 0,-1.3 1,-2.3 2.3,-2.3 1.3,0 2.3,1 2.3,2.3 0,1.3 -1,2.3 -2.3,2.3 -1.3,0 -2.3,-0.9 -2.3,-2.3 z m 0.5,0 c 0,1 0.8,1.8 1.8,1.8 1,0 1.8,-0.8 1.8,-1.8 0,-1 -0.8,-1.8 -1.8,-1.8 -1,0 -1.8,0.8 -1.8,1.8 z"
   class="st1" />
	</g>
	<g
   style="fill:#dabe8d;fill-opacity:1"
   id="g1014">
		<path
   style="fill:#dabe8d;fill-opacity:1"
   id="path1012"
   d="M 160.3,342.7 V 338 l 3.5,3.6 v -3.5 h 0.5 v 4.7 l -3.5,-3.6 v 3.4 h -0.5 z"
   class="st1" />
	</g>
	<g
   style="fill:#dabe8d;fill-opacity:1"
   id="g1018">
		<path
   style="fill:#dabe8d;fill-opacity:1"
   id="path1016"
   d="M 167.9,341.4 H 166 l -0.5,1.3 H 165 l 2.1,-4.7 2,4.7 h -0.5 z m -0.2,-0.5 -0.7,-1.8 -0.8,1.8 z"
   class="st1" />
	</g>
	<g
   style="fill:#dabe8d;fill-opacity:1"
   id="g1022">
		<path
   style="fill:#dabe8d;fill-opacity:1"
   id="path1020"
   d="m 170.4,338.7 v 4 h -0.5 v -4 h -1.1 v -0.5 h 2.7 v 0.5 z"
   class="st1" />
	</g>
	<g
   style="fill:#dabe8d;fill-opacity:1"
   id="g1026">
		<path
   style="fill:#dabe8d;fill-opacity:1"
   id="path1024"
   d="m 171.7,340.4 c 0,-1.3 1,-2.3 2.3,-2.3 1.3,0 2.3,1 2.3,2.3 0,1.3 -1,2.3 -2.3,2.3 -1.3,0 -2.3,-0.9 -2.3,-2.3 z m 0.5,0 c 0,1 0.8,1.8 1.8,1.8 1,0 1.8,-0.8 1.8,-1.8 0,-1 -0.8,-1.8 -1.8,-1.8 -1,0 -1.8,0.8 -1.8,1.8 z"
   class="st1" />
	</g>
	<g
   style="fill:#dabe8d;fill-opacity:1"
   id="g1030">
		<path
   style="fill:#dabe8d;fill-opacity:1"
   id="path1028"
   d="m 177.9,338.2 c 0.3,0 0.7,0 1.1,0.2 0.3,0.2 0.5,0.5 0.5,1 0,0.7 -0.4,1.2 -1.1,1.2 l 1.4,2 h -0.6 l -1.4,-2 h -0.1 v 2 h -0.5 v -4.5 z m -0.2,2.1 h 0.3 c 0.6,0 1,-0.3 1,-0.8 0,-0.2 -0.1,-0.5 -0.4,-0.7 -0.2,-0.1 -0.4,-0.1 -0.6,-0.1 h -0.3 z"
   class="st1" />
	</g>
	<g
   style="fill:#dabe8d;fill-opacity:1"
   id="g1034">
		<path
   style="fill:#dabe8d;fill-opacity:1"
   id="path1032"
   d="m 183.4,337.6 0.4,0.2 -3.4,6.2 -0.4,-0.2 z"
   class="st1" />
	</g>
	<g
   style="fill:#dabe8d;fill-opacity:1"
   id="g1038">
		<path
   style="fill:#dabe8d;fill-opacity:1"
   id="path1036"
   d="M 186.5,338.7 H 185 v 1.3 h 1.5 v 0.5 H 185 v 2.2 h -0.5 v -4.5 h 2 z"
   class="st1" />
	</g>
	<g
   style="fill:#dabe8d;fill-opacity:1"
   id="g1042">
		<path
   style="fill:#dabe8d;fill-opacity:1"
   id="path1040"
   d="m 187.9,338.2 v 4.5 h -0.5 v -4.5 z"
   class="st1" />
	</g>
	<g
   style="fill:#dabe8d;fill-opacity:1"
   id="g1046">
		<path
   style="fill:#dabe8d;fill-opacity:1"
   id="path1044"
   d="m 189.5,338.2 v 4 h 1.2 v 0.5 H 189 v -4.5 z"
   class="st1" />
	</g>
	<g
   style="fill:#dabe8d;fill-opacity:1"
   id="g1050">
		<path
   style="fill:#dabe8d;fill-opacity:1"
   id="path1048"
   d="m 192.4,338.7 v 4 h -0.5 v -4 h -1.1 v -0.5 h 2.7 v 0.5 z"
   class="st1" />
	</g>
	<g
   style="fill:#dabe8d;fill-opacity:1"
   id="g1054">
		<path
   style="fill:#dabe8d;fill-opacity:1"
   id="path1052"
   d="m 196.5,338.7 h -1.8 v 1.3 h 1.8 v 0.5 h -1.8 v 1.7 h 1.8 v 0.5 h -2.3 v -4.5 h 2.3 z"
   class="st1" />
	</g>
	<g
   style="fill:#dabe8d;fill-opacity:1"
   id="g1058">
		<path
   style="fill:#dabe8d;fill-opacity:1"
   id="path1056"
   d="m 198.1,338.2 c 0.3,0 0.7,0 1.1,0.2 0.3,0.2 0.5,0.5 0.5,1 0,0.7 -0.4,1.2 -1.1,1.2 l 1.4,2 h -0.6 l -1.4,-2 h -0.1 v 2 h -0.5 v -4.5 z m -0.2,2.1 h 0.3 c 0.6,0 1,-0.3 1,-0.8 0,-0.2 -0.1,-0.5 -0.4,-0.7 -0.2,-0.1 -0.4,-0.1 -0.6,-0.1 h -0.3 z"
   class="st1" />
	</g>
	<g
   style="fill:#dabe8d;fill-opacity:1"
   id="g1062">
		<path
   style="fill:#dabe8d;fill-opacity:1"
   id="path1060"
   d="m 125.7,87.1 v 6 h 1.8 v 0.7 H 125 v -6.7 z"
   class="st1" />
	</g>
	<g
   style="fill:#dabe8d;fill-opacity:1"
   id="g1066">
		<path
   style="fill:#dabe8d;fill-opacity:1"
   id="path1064"
   d="m 129.3,87.1 v 6.7 h -0.7 v -6.7 z"
   class="st1" />
	</g>
	<g
   style="fill:#dabe8d;fill-opacity:1"
   id="g1070">
		<path
   style="fill:#dabe8d;fill-opacity:1"
   id="path1068"
   d="m 130.8,93.8 1.1,-7 2.6,5.6 2.6,-5.6 1,7 h -0.8 l -0.6,-4.6 -2.3,4.9 -2.2,-4.9 -0.7,4.6 z"
   class="st1" />
	</g>
	<g
   style="fill:#dabe8d;fill-opacity:1"
   id="g1074">
		<path
   style="fill:#dabe8d;fill-opacity:1"
   id="path1072"
   d="m 88.5,201.1 h -2.3 v 2 h 2.2 v 0.7 h -2.2 v 3.3 h -0.7 v -6.7 h 3 z"
   class="st1" />
	</g>
	<g
   style="fill:#dabe8d;fill-opacity:1"
   id="g1078">
		<path
   style="fill:#dabe8d;fill-opacity:1"
   id="path1076"
   d="m 89.6,207 1.1,-7 2.6,5.6 2.6,-5.6 1,7 h -0.8 l -0.6,-4.6 -2.3,4.9 -2.2,-4.9 -0.7,4.6 z"
   class="st1" />
	</g>
	<g
   style="fill:#dabe8d;fill-opacity:1"
   id="g1082">
		<path
   style="fill:#dabe8d;fill-opacity:1"
   id="path1080"
   d="m 192,186.4 v 6 h 1.8 v 0.7 h -2.6 v -6.7 z"
   class="st1" />
	</g>
	<g
   style="fill:#dabe8d;fill-opacity:1"
   id="g1086">
		<path
   style="fill:#dabe8d;fill-opacity:1"
   id="path1084"
   d="m 196.1,186.4 c 0.7,0 1.2,0.1 1.7,0.5 0.5,0.4 0.6,1 0.6,1.4 0,0.9 -0.6,1.9 -2.1,1.9 h -0.6 v 2.9 H 195 v -6.7 z m -0.5,3.1 h 0.6 c 0.9,0 1.4,-0.4 1.4,-1.2 0,-1.1 -1,-1.2 -1.5,-1.2 h -0.5 z"
   class="st1" />
	</g>
	<g
   style="fill:#dabe8d;fill-opacity:1"
   id="g1090">
		<path
   style="fill:#dabe8d;fill-opacity:1"
   id="path1088"
   d="m 190.7,220.9 c 0.4,0 1,0 1.5,0.4 0.2,0.2 0.6,0.6 0.6,1.4 0,0.3 -0.1,0.9 -0.7,1.3 0.9,0.2 1.3,1 1.3,1.7 0,0.7 -0.3,1.2 -0.7,1.4 -0.5,0.4 -1.1,0.4 -1.6,0.4 h -1.7 v -6.7 h 1.3 z m -0.4,2.9 h 0.6 c 0.4,0 1.3,-0.1 1.3,-1.1 0,-1.1 -1.1,-1.1 -1.3,-1.1 h -0.6 z m 0,3.1 h 0.8 c 0.4,0 0.8,0 1.2,-0.3 0.3,-0.2 0.4,-0.5 0.4,-0.9 0,-0.5 -0.3,-0.8 -0.6,-1 -0.2,-0.1 -0.6,-0.2 -1.1,-0.2 h -0.8 v 2.4 z"
   class="st1" />
	</g>
	<g
   style="fill:#dabe8d;fill-opacity:1"
   id="g1094">
		<path
   style="fill:#dabe8d;fill-opacity:1"
   id="path1092"
   d="m 196,220.9 c 0.7,0 1.2,0.1 1.7,0.5 0.5,0.4 0.6,1 0.6,1.4 0,0.9 -0.6,1.9 -2.1,1.9 h -0.6 v 2.9 h -0.7 v -6.7 z m -0.4,3.1 h 0.6 c 0.9,0 1.4,-0.4 1.4,-1.2 0,-1.1 -1,-1.2 -1.5,-1.2 h -0.5 z"
   class="st1" />
	</g>
	<g
   style="fill:#dabe8d;fill-opacity:1"
   id="g1098">
		<path
   style="fill:#dabe8d;fill-opacity:1"
   id="path1096"
   d="m 190.5,258.3 h 3.4 v -2.7 h 0.7 v 6.7 h -0.7 V 259 h -3.4 v 3.3 h -0.7 v -6.7 h 0.7 z"
   class="st1" />
	</g>
	<g
   style="fill:#dabe8d;fill-opacity:1"
   id="g1102">
		<path
   style="fill:#dabe8d;fill-opacity:1"
   id="path1100"
   d="m 197.6,255.6 c 0.7,0 1.2,0.1 1.7,0.5 0.5,0.4 0.6,1 0.6,1.4 0,0.9 -0.6,1.9 -2.1,1.9 h -0.6 v 2.9 h -0.7 v -6.7 z m -0.5,3.1 h 0.6 c 0.9,0 1.4,-0.4 1.4,-1.2 0,-1.1 -1,-1.2 -1.5,-1.2 h -0.5 z"
   class="st1" />
	</g>
	<g
   style="fill:#dabe8d;fill-opacity:1"
   id="g1106">
		<path
   style="fill:#dabe8d;fill-opacity:1"
   id="path1104"
   d="m 75.6,273.3 c -0.2,-0.2 -0.5,-0.5 -0.9,-0.6 -0.4,-0.2 -0.8,-0.3 -1.1,-0.3 -1.5,0 -2.7,1.2 -2.7,2.8 0,1.8 1.5,2.7 2.7,2.7 0.4,0 0.9,-0.1 1.2,-0.3 0.4,-0.2 0.6,-0.4 0.8,-0.6 v 0.9 c -0.7,0.5 -1.5,0.6 -2,0.6 -2,0 -3.4,-1.5 -3.4,-3.4 0,-2 1.5,-3.5 3.5,-3.5 0.4,0 1.2,0 2,0.7 z"
   class="st1" />
	</g>
	<g
   style="fill:#dabe8d;fill-opacity:1"
   id="g1110">
		<path
   style="fill:#dabe8d;fill-opacity:1"
   id="path1108"
   d="m 77,271.9 1.9,5.1 1.9,-5.1 h 0.8 l -2.7,7.1 -2.7,-7.1 z"
   class="st1" />
	</g>
	<g
   style="fill:#dabe8d;fill-opacity:1"
   id="g1114">
		<path
   style="fill:#dabe8d;fill-opacity:1"
   id="path1112"
   d="m 191.5,296.5 v -6.9 l 5.2,5.4 v -5.2 h 0.7 v 7 l -5.2,-5.4 v 5.1 z"
   class="st1" />
	</g>
	<g
   style="fill:#dabe8d;fill-opacity:1"
   id="g1118">
		<path
   style="fill:#dabe8d;fill-opacity:1"
   id="path1116"
   d="m 43.3,124.1 v 5.2 h -1.1 v -5.2 h -0.6 v -1 h 0.6 v -2.7 c 0,-0.6 0,-1.3 0.6,-1.8 0.3,-0.3 0.8,-0.4 1.2,-0.4 0.4,0 0.6,0.1 0.8,0.1 v 1 c -0.2,-0.1 -0.5,-0.1 -0.7,-0.1 -0.2,0 -0.5,0.1 -0.7,0.3 -0.1,0.2 -0.1,0.6 -0.1,0.9 v 2.6 h 1.5 v 1 z"
   class="st1" />
	</g>
	<g
   style="fill:#dabe8d;fill-opacity:1"
   id="g1122">
		<path
   style="fill:#dabe8d;fill-opacity:1"
   id="path1120"
   d="m 49.8,128.5 c -0.5,-0.6 -1.2,-0.8 -1.7,-0.8 -1,0 -1.9,0.7 -1.9,2 0,1.3 0.9,2 1.9,2 0.6,0 1.2,-0.2 1.7,-0.8 v 1.1 c -0.6,0.4 -1.2,0.6 -1.7,0.6 -1.7,0 -2.9,-1.2 -2.9,-2.8 0,-1.7 1.2,-2.9 2.9,-2.9 0.9,0 1.4,0.3 1.7,0.5 z"
   class="st1" />
	</g>
	<g
   style="fill:#dabe8d;fill-opacity:1"
   id="g1126">
		
			<rect
   style="fill:#dabe8d;fill-opacity:1"
   id="rect1124"
   height="1.5"
   width="0.69999999"
   class="st1"
   transform="matrix(0.8642,-0.5031,0.5031,0.8642,-97.0073,38.0363)"
   y="198"
   x="21.6" />
	</g>
	<g
   style="fill:#dabe8d;fill-opacity:1"
   id="g1132">
		<g
   style="fill:#dabe8d;fill-opacity:1"
   id="g1130">
			<path
   style="fill:#dabe8d;fill-opacity:1"
   id="path1128"
   d="m 22.8,198.2 0.1,-3.2 h -0.1 l -2.9,3.7 c -1.2,1.1 -2.3,2.1 -3.5,3.2 1.5,-0.5 3,-1 4.5,-1.4 l 4.7,-0.7 0.1,-0.1 z"
   class="st1" />
		</g>
	</g>
	<path
   style="fill:#dabe8d;fill-opacity:1"
   id="path1134"
   d="m 13.6,207 -1.2,-0.9 c 5.7,-7.5 14.3,-11.7 23.7,-11.7 9.3,0 17.9,4.3 23.6,11.7 l -1.2,0.9 c -5.4,-7 -13.6,-11.1 -22.4,-11.1 -9,-0.1 -17.1,4 -22.5,11.1 z"
   class="st1" />
	<g
   style="fill:#dabe8d;fill-opacity:1"
   id="g1138">
		
			<rect
   style="fill:#dabe8d;fill-opacity:1"
   id="rect1136"
   height="0.69999999"
   width="1.5"
   class="st1"
   transform="matrix(0.5033,-0.8641,0.8641,0.5033,-146.8519,141.9559)"
   y="198.39999"
   x="49.299999" />
	</g>
	<g
   style="fill:#dabe8d;fill-opacity:1"
   id="g1144">
		<g
   style="fill:#dabe8d;fill-opacity:1"
   id="g1142">
			<path
   style="fill:#dabe8d;fill-opacity:1"
   id="path1140"
   d="m 49.2,198.2 -2.8,1.5 v 0.1 l 4.7,0.7 c 1.5,0.5 3,1 4.5,1.4 -1.2,-1.1 -2.3,-2.1 -3.5,-3.2 L 49.2,195 h -0.1 z"
   class="st1" />
		</g>
	</g>
	<rect
   style="fill:#dabe8d;fill-opacity:1"
   id="rect1146"
   height="18.299999"
   width="1.5"
   class="st1"
   y="195.10001"
   x="35.299999" />
	<g
   style="fill:#dabe8d;fill-opacity:1"
   id="g1150">
		<path
   style="fill:#dabe8d;fill-opacity:1"
   id="path1148"
   d="m 62.6,207.6 v 2.5 H 65 v 0.6 h -2.4 v 2.5 h -0.7 v -2.5 h -2.4 v -0.6 h 2.4 v -2.5 z"
   class="st1" />
	</g>
	<g
   style="fill:#dabe8d;fill-opacity:1"
   id="g1154">
		<path
   style="fill:#dabe8d;fill-opacity:1"
   id="path1152"
   d="m 12.4,210.3 v 0.6 H 7.7 v -0.6 z"
   class="st1" />
	</g>
	<g
   style="fill:#dabe8d;fill-opacity:1"
   id="g1158">
		<rect
   style="fill:#dabe8d;fill-opacity:1"
   x="0"
   id="rect1156"
   height="3"
   width="41.400002"
   class="st1"
   y="344.60001" />
	</g>
	<g
   style="fill:#dabe8d;fill-opacity:1"
   id="g1162">
		<rect
   style="fill:#dabe8d;fill-opacity:1"
   id="rect1160"
   height="3"
   width="94.199997"
   class="st1"
   y="344.60001"
   x="107.4" />
	</g>
	<g
   style="fill:#dabe8d;fill-opacity:1"
   id="g1166">
		<path
   style="fill:#dabe8d;fill-opacity:1"
   id="path1164"
   d="m 87.5,349.5 h 1.7 v 2.2 h -1.7 v 2.9 h -2.3 v -2.9 h -7.6 l 9.9,-13.6 z m -2.2,0 v -5 l -3.5,5 z"
   class="st1" />
	</g>
	<g
   style="fill:#dabe8d;fill-opacity:1"
   id="g1170">
		<path
   style="fill:#dabe8d;fill-opacity:1"
   id="path1168"
   d="m 99.1,341.3 h -7.6 v -2.2 H 103 l -9.7,16 -1.9,-1.2 z"
   class="st1" />
	</g>
	<g
   style="fill:#dabe8d;fill-opacity:1"
   id="g1174">
		<path
   style="fill:#dabe8d;fill-opacity:1"
   id="path1172"
   d="m 51.2,345.9 h 10.4 v 1.5 H 51.2 Z"
   class="st1" />
	</g>
	<polygon
   style="fill:#dabe8d;fill-opacity:1"
   id="polygon1176"
   points="45.9,337.2 49.5,337.2 48.6,340 48.6,352.3 49.5,355 45.9,355 46.8,352.3 46.8,340 "
   class="st1" />
	<rect
   style="fill:#dabe8d;fill-opacity:1"
   id="rect1178"
   height="3"
   width="36.700001"
   class="st1"
   y="222.5"
   x="45.900002" />
	<path
   style="fill:#dabe8d;fill-opacity:1"
   id="path1180"
   d="m 70,341.7 c -3.6,0 -6.3,2.7 -6.3,6.4 0,3.7 2.7,6.4 6.3,6.4 3.6,0 6.3,-2.7 6.3,-6.4 0,-3.7 -2.6,-6.4 -6.3,-6.4 z m 0,10.9 c -2.1,0 -4.2,-1.5 -4.2,-4.5 0,-3 2,-4.5 4.2,-4.5 2.2,0 4.2,1.6 4.2,4.5 0,2.9 -2,4.5 -4.2,4.5 z"
   class="st1" />
	<rect
   style="fill:#dabe8d;fill-opacity:1"
   id="rect1182"
   height="1.8"
   width="12.7"
   class="st1"
   y="337.89999"
   x="63.799999" />
	<rect
   style="fill:#dabe8d;fill-opacity:1"
   id="rect1184"
   height="2"
   width="29.1"
   class="st1"
   y="291.5"
   x="145.5" />
	<g
   style="fill:#dabe8d;fill-opacity:1"
   id="g1188">
		<path
   style="fill:#dabe8d;fill-opacity:1"
   id="path1186"
   d="m 131.7,311.8 v 3.9 h -0.8 v -3.9 h -0.5 v -0.7 h 0.5 v -2 c 0,-0.4 0,-1 0.5,-1.3 0.2,-0.2 0.6,-0.3 0.9,-0.3 0.3,0 0.5,0.1 0.6,0.1 v 0.8 c -0.2,-0.1 -0.4,-0.1 -0.5,-0.1 -0.2,0 -0.4,0 -0.5,0.2 -0.1,0.2 -0.1,0.4 -0.1,0.7 v 2 h 1.1 v 0.7 h -1.2 z"
   class="st1" />
	</g>
	<g
   style="fill:#dabe8d;fill-opacity:1"
   id="g1192">
		<path
   style="fill:#dabe8d;fill-opacity:1"
   id="path1190"
   d="m 136.6,315.1 c -0.4,-0.5 -0.9,-0.6 -1.3,-0.6 -0.8,0 -1.4,0.5 -1.4,1.5 0,1 0.7,1.5 1.4,1.5 0.4,0 0.9,-0.2 1.3,-0.6 v 0.8 c -0.4,0.3 -0.9,0.4 -1.3,0.4 -1.3,0 -2.2,-0.9 -2.2,-2.1 0,-1.2 0.9,-2.1 2.2,-2.1 0.6,0 1.1,0.3 1.3,0.4 z"
   class="st1" />
	</g>
	<path
   style="fill:#dabe8d;fill-opacity:1"
   id="path1194"
   d="m 133.2,305.4 c -7.1,0 -12.8,-5.8 -12.8,-12.8 0,-7.1 5.8,-12.8 12.8,-12.8 7,0 12.8,5.8 12.8,12.8 0,7 -5.7,12.8 -12.8,12.8 z m 0,-24.7 c -6.5,0 -11.8,5.3 -11.8,11.8 0,6.5 5.3,11.8 11.8,11.8 6.5,0 11.8,-5.3 11.8,-11.8 0,-6.5 -5.3,-11.8 -11.8,-11.8 z"
   class="st1" />
	<path
   style="fill:#dabe8d;fill-opacity:1"
   id="path1196"
   d="m 191.9,160.9 c -3,0 -5.4,-2.4 -5.4,-5.4 0,-1 0.3,-1.9 0.7,-2.7 l 0.9,0.5 c -0.4,0.7 -0.6,1.4 -0.6,2.2 0,2.4 2,4.4 4.4,4.4 2.4,0 4.4,-2 4.4,-4.4 0,-2.4 -2,-4.4 -4.4,-4.4 v -1 c 3,0 5.4,2.4 5.4,5.4 0,3 -2.4,5.4 -5.4,5.4 z"
   class="st1" />
	<circle
   style="fill:#dabe8d;fill-opacity:1"
   id="circle1198"
   r="1.7"
   cy="274.89999"
   cx="133.2"
   class="st1" />
	<circle
   style="fill:#dabe8d;fill-opacity:1"
   id="circle1200"
   r="1.7"
   cy="287.39999"
   cx="116.3"
   class="st1" />
	<circle
   style="fill:#dabe8d;fill-opacity:1"
   id="circle1202"
   r="1.7"
   cy="297.60001"
   cx="116.3"
   class="st1" />
	<circle
   style="fill:#dabe8d;fill-opacity:1"
   id="circle1204"
   r="1.7"
   cy="287.39999"
   cx="150.10001"
   class="st1" />
	<circle
   style="fill:#dabe8d;fill-opacity:1"
   id="circle1206"
   r="1.7"
   cy="297.60001"
   cx="150.10001"
   class="st1" />
	<g
   style="fill:#dabe8d;fill-opacity:1"
   id="g1210">
		<path
   style="fill:#dabe8d;fill-opacity:1"
   id="path1208"
   d="m 133.1,267.8 h -0.7 l 0.2,-0.4 h 0.9 v 4 h -0.4 z"
   class="st1" />
	</g>
	<g
   style="fill:#dabe8d;fill-opacity:1"
   id="g1214">
		<path
   style="fill:#dabe8d;fill-opacity:1"
   id="path1212"
   d="m 113.1,284.5 1.5,-1.7 c 0.1,-0.1 0.4,-0.4 0.5,-0.6 0.2,-0.3 0.2,-0.5 0.2,-0.6 0,-0.5 -0.3,-0.8 -0.8,-0.8 -0.3,0 -0.5,0.1 -0.7,0.4 -0.1,0.1 -0.1,0.3 -0.1,0.5 h -0.4 c 0,-0.4 0.1,-0.6 0.3,-0.8 0.2,-0.2 0.4,-0.4 0.9,-0.4 0.7,0 1.2,0.5 1.2,1.2 0,0.3 -0.1,0.5 -0.3,0.9 -0.2,0.2 -0.4,0.5 -0.5,0.7 L 114,284 h 1.7 v 0.4 h -2.6 z"
   class="st1" />
	</g>
	<g
   style="fill:#dabe8d;fill-opacity:1"
   id="g1218">
		<path
   style="fill:#dabe8d;fill-opacity:1"
   id="path1216"
   d="m 146,280.9 h -0.7 l 0.2,-0.4 h 0.9 v 4 H 146 Z"
   class="st1" />
	</g>
	<g
   style="fill:#dabe8d;fill-opacity:1"
   id="g1222">
		<path
   style="fill:#dabe8d;fill-opacity:1"
   id="path1220"
   d="m 150.9,279.9 0.3,0.2 -3.1,5.6 -0.3,-0.2 z"
   class="st1" />
	</g>
	<g
   style="fill:#dabe8d;fill-opacity:1"
   id="g1226">
		<path
   style="fill:#dabe8d;fill-opacity:1"
   id="path1224"
   d="m 115.4,304.4 h 0.5 v 0.4 h -0.5 v 0.8 H 115 v -0.8 h -2.1 l 2.5,-3.5 z m -0.5,0 v -1.8 l -1.3,1.8 z"
   class="st1" />
	</g>
	<g
   style="fill:#dabe8d;fill-opacity:1"
   id="g1230">
		<path
   style="fill:#dabe8d;fill-opacity:1"
   id="path1228"
   d="m 146,302 h -0.7 l 0.2,-0.4 h 0.9 v 4 H 146 Z"
   class="st1" />
	</g>
	<g
   style="fill:#dabe8d;fill-opacity:1"
   id="g1234">
		<path
   style="fill:#dabe8d;fill-opacity:1"
   id="path1232"
   d="m 150.9,301 0.3,0.2 -3.1,5.6 -0.3,-0.2 z"
   class="st1" />
	</g>
	<g
   style="fill:#dabe8d;fill-opacity:1"
   id="g1238">
		<path
   style="fill:#dabe8d;fill-opacity:1"
   id="path1236"
   d="m 151.7,284.5 1.5,-1.7 c 0.1,-0.1 0.4,-0.4 0.5,-0.6 0.2,-0.3 0.2,-0.5 0.2,-0.6 0,-0.5 -0.3,-0.8 -0.8,-0.8 -0.3,0 -0.5,0.1 -0.7,0.4 -0.1,0.1 -0.1,0.3 -0.1,0.5 h -0.4 c 0,-0.4 0.1,-0.6 0.3,-0.8 0.2,-0.2 0.4,-0.4 0.9,-0.4 0.7,0 1.2,0.5 1.2,1.2 0,0.3 -0.1,0.5 -0.3,0.9 -0.2,0.2 -0.4,0.5 -0.5,0.7 l -0.8,0.9 h 1.7 v 0.4 h -2.7 z"
   class="st1" />
	</g>
	<g
   style="fill:#dabe8d;fill-opacity:1"
   id="g1242">
		<path
   style="fill:#dabe8d;fill-opacity:1"
   id="path1240"
   d="m 154,304.4 h 0.5 v 0.4 H 154 v 0.8 h -0.4 v -0.8 h -2.1 l 2.5,-3.5 z m -0.4,0 v -1.8 l -1.3,1.8 z"
   class="st1" />
	</g>
	<path
   style="fill:#dabe8d;fill-opacity:1"
   id="path1244"
   d="m 146.5,229.4 -7.2,-8.9 c -0.3,-0.4 -0.8,-0.6 -1.3,-0.6 h -4.6 v -2 h 4.6 c 1.1,0 2.2,0.5 2.9,1.4 l 7.2,8.9 z"
   class="st1" />
	<path
   style="fill:#dabe8d;fill-opacity:1"
   id="path1246"
   d="m 123.4,264.3 -1.6,-1.2 7.2,-8.9 c 0.7,-0.9 1.7,-1.4 2.9,-1.4 h 16 v 2 h -16 c -0.5,0 -1,0.2 -1.3,0.6 z"
   class="st1" />
	<path
   style="fill:#dabe8d;fill-opacity:1"
   id="path1248"
   d="m 122.8,229.4 -1.6,-1.2 7.2,-8.9 c 0.7,-0.9 1.7,-1.4 2.9,-1.4 h 5 v 2 h -5 c -0.5,0 -1,0.2 -1.3,0.6 z"
   class="st1" />
	<path
   style="fill:#dabe8d;fill-opacity:1"
   id="path1250"
   d="m 146.5,195.2 -7.2,-8.9 c -0.3,-0.4 -0.8,-0.6 -1.3,-0.6 h -16 v -2 h 16 c 1.1,0 2.2,0.5 2.9,1.4 l 7.2,8.9 z"
   class="st1" />
	<g
   style="fill:#dabe8d;fill-opacity:1"
   id="g1254">
		<path
   style="fill:#dabe8d;fill-opacity:1"
   id="path1252"
   d="m 34.7,177 c 12,0.7 22.4,-8.4 23.1,-20.4 0.1,-2.1 -0.1,-4.2 -0.5,-6.2 L 56.6,148 c -0.4,-1.7 -0.5,-3.5 -0.4,-5.3 0.5,-7.8 5.9,-14.6 13.5,-16.9 l 4.1,-0.7 C 95.2,120.2 111,101.6 112.3,79.9 113.9,52.7 93,29.3 65.6,27.7 38.2,26.1 14.6,46.9 13,74 c -0.7,12.5 3.4,24.8 11.6,34.6 l 0.7,0.8 c 6.3,7.6 5.8,12.3 5.6,14.3 v 0.1 c -0.5,5.3 -0.7,7.1 -9.5,15.3 -4.4,3.8 -7,9.1 -7.3,14.9 -0.6,12 8.6,22.2 20.6,23 z m 0.2,-3.1 c -10.3,-0.6 -18.3,-9.4 -17.7,-19.7 0.3,-5 2.5,-9.6 6.3,-12.9 9.3,-8.6 9.9,-11 10.4,-17.2 V 124 c 0.2,-2.2 0.7,-7.9 -6.4,-16.6 l -0.7,-0.8 C 19.2,97.5 15.4,86 16,74.2 c 1.5,-25.5 23.6,-45 49.3,-43.5 25.7,1.5 45.3,23.5 43.8,49 -1.2,20.4 -16,37.9 -36.1,42.4 l -4.3,0.8 c -8.9,2.6 -15.2,10.5 -15.7,19.6 -0.1,2.1 0.1,4.2 0.5,6.2 l 0.7,2.4 c 0.4,1.7 0.5,3.5 0.4,5.3 -0.5,10.3 -9.4,18.1 -19.7,17.5 z"
   class="st1" />
	</g>
	<g
   style="fill:#dabe8d;fill-opacity:1"
   id="g1258">
		<path
   style="fill:#dabe8d;fill-opacity:1"
   id="path1256"
   d="m 91.8,188.6 c -8.9,0 -16.1,-7.2 -16.1,-16.1 0,-8.9 7.2,-16.1 16.1,-16.1 8.9,0 16.1,7.2 16.1,16.1 0,8.9 -7.2,16.1 -16.1,16.1 z m 0,-31.1 c -8.3,0 -15.1,6.8 -15.1,15.1 0,8.3 6.8,15.1 15.1,15.1 8.3,0 15.1,-6.8 15.1,-15.1 0,-8.4 -6.8,-15.1 -15.1,-15.1 z"
   class="st1" />
	</g>
	<rect
   style="fill:#dabe8d;fill-opacity:1"
   id="rect1260"
   height="3"
   width="29.1"
   class="st1"
   y="291"
   x="91.800003" />
	<rect
   style="fill:#dabe8d;fill-opacity:1"
   id="rect1262"
   height="3"
   width="17.299999"
   class="st1"
   y="88.900002"
   x="149.39999" />
	<path
   style="fill:#dabe8d;fill-opacity:1"
   id="path1264"
   d="m 133.2,174.4 c -2.1,0 -4.1,-0.3 -6,-1 -4.6,-1.5 -8.5,-4.8 -10.7,-9.1 -1.4,-2.7 -2.2,-5.8 -2.2,-8.9 0,-1.7 0.2,-3.4 0.7,-5 l 1,0.3 c -0.4,1.5 -0.6,3.1 -0.6,4.7 0,3 0.7,5.8 2.1,8.4 2.1,4 5.8,7.2 10.2,8.6 1.8,0.6 3.7,0.9 5.7,0.9 v 1.1 z m 0,-2.6 c -9,0 -16.4,-7.3 -16.4,-16.4 0,-3.2 0.9,-6.2 2.6,-8.9 l 0.8,0.5 c -1.6,2.5 -2.4,5.4 -2.4,8.3 0,8.5 6.9,15.4 15.4,15.4 z"
   class="st1" />
	<g
   style="fill:#dabe8d;fill-opacity:1"
   id="g1268">
		<path
   style="fill:#dabe8d;fill-opacity:1"
   id="path1266"
   d="m 148.4,135 v -6.7 h 0.7 v 6.7 z"
   class="st1" />
	</g>
	<g
   style="fill:#dabe8d;fill-opacity:1"
   id="g1272">
		<path
   style="fill:#dabe8d;fill-opacity:1"
   id="path1270"
   d="m 151.6,128.4 v 5.1 l 5.2,-5.4 v 7 H 156 v -5.2 l -5.2,5.4 v -6.9 z"
   class="st1" />
	</g>
	<polygon
   style="fill:#dabe8d;fill-opacity:1"
   id="polygon1274"
   points="194,152.4 193.3,153.1 190.5,150.3 194.2,148.9 194.5,149.8 192.3,150.7 "
   class="st1" />
	<path
   style="fill:#dabe8d;fill-opacity:1"
   id="path1276"
   d="m 44,286.4 -2.2,-2.1 23.7,-24.5 c 2,-2.1 4.8,-3.3 7.7,-3.3 h 9.5 v 3 h -9.5 c -2.1,0 -4.1,0.9 -5.5,2.3 z"
   class="st1" />
</g>
</svg>
