<?xml version="1.0" encoding="UTF-8" standalone="no"?>
<!-- Generator: Adobe Illustrator 26.2.0, SVG Export Plug-In . SVG Version: 6.00 Build 0)  -->

<svg
   version="1.1"
   x="0px"
   y="0px"
   viewBox="0 0 30.187087 33.240945"
   xml:space="preserve"
   id="svg3225"
   sodipodi:docname="làrachd mic (inkscape render).svg"
   width="7.987mm"
   height="8.7950001mm"
   inkscape:version="1.2 (dc2aeda, 2022-05-15)"
   xmlns:inkscape="http://www.inkscape.org/namespaces/inkscape"
   xmlns:sodipodi="http://sodipodi.sourceforge.net/DTD/sodipodi-0.dtd"
   xmlns="http://www.w3.org/2000/svg"
   xmlns:svg="http://www.w3.org/2000/svg"><defs
   id="defs3229">
	

		
		
		
		
		
		
		
		
		
		
		
		
		
		
		
		
		
		
		
		
		
		
		
		
		
		
		
		
		
		
		
		
		
		
		
		
		
		
		
		
		
		
		
		
		
		
		
		
		
		
		
		
		
		
		
		
		
		
		
		
		
		
		
		
		
		
		
		
		
		
		
		
		
		
		
		
		
		
		
		
		
		
		
		
		
		
		
		
		
		
	</defs><sodipodi:namedview
   id="namedview3227"
   pagecolor="#ffffff"
   bordercolor="#000000"
   borderopacity="0.25"
   inkscape:showpageshadow="2"
   inkscape:pageopacity="0.0"
   inkscape:pagecheckerboard="0"
   inkscape:deskcolor="#d1d1d1"
   showgrid="false"
   inkscape:zoom="1.6849048"
   inkscape:cx="38.874599"
   inkscape:cy="105.3472"
   inkscape:window-width="1728"
   inkscape:window-height="1051"
   inkscape:window-x="0"
   inkscape:window-y="38"
   inkscape:window-maximized="0"
   inkscape:current-layer="svg3225"
   inkscape:document-units="mm" />
<style
   type="text/css"
   id="style2361">
	.st0{fill:#1F1F1F;}
	.st1{fill:#E1C48F;}
	.st2{fill:#E0C490;}
	.st3{fill:#E1C590;}
	.st4{fill:#DFC38F;}
</style>

<g
   id="g4766"
   transform="translate(-61.70667,-127.81334)"><g
     id="g2438"
     style="fill:#e1c590;fill-opacity:1"
     transform="scale(1.3333334)">
			<path
   class="st2"
   d="m 57.6,112.25 c -2.17,0 -3.93,-1.76 -3.93,-3.93 0,-0.14 0.01,-0.28 0.02,-0.42 0.21,-2 1.89,-3.51 3.91,-3.51 2.17,0 3.93,1.76 3.93,3.93 0,0.11 0,0.22 -0.02,0.33 -0.14,2.01 -1.87,3.6 -3.91,3.6 z m 0,-6.23 c -1.18,0 -2.17,0.88 -2.29,2.06 -0.01,0.08 -0.01,0.16 -0.01,0.25 0,1.27 1.03,2.3 2.3,2.3 1.2,0 2.2,-0.93 2.29,-2.12 0.01,-0.08 0.01,-0.13 0.01,-0.18 0,-1.28 -1.03,-2.31 -2.3,-2.31 z"
   id="path2436"
   style="fill:#e1c590;fill-opacity:1" />
		</g><g
     id="g2442"
     style="fill:#e1c590;fill-opacity:1"
     transform="scale(1.3333334)">
			<path
   class="st2"
   d="m 57.6,103.72 c -2.17,0 -3.93,-1.76 -3.93,-3.93 0,-0.14 0.01,-0.28 0.02,-0.42 0.21,-2 1.89,-3.51 3.91,-3.51 2.17,0 3.93,1.76 3.93,3.93 0,0.11 0,0.22 -0.02,0.33 -0.14,2.01 -1.87,3.6 -3.91,3.6 z m 0,-6.23 c -1.18,0 -2.17,0.88 -2.29,2.06 -0.01,0.08 -0.01,0.16 -0.01,0.25 0,1.27 1.03,2.3 2.3,2.3 1.2,0 2.2,-0.93 2.29,-2.12 0.01,-0.08 0.01,-0.13 0.01,-0.18 0,-1.28 -1.03,-2.31 -2.3,-2.31 z"
   id="path2440"
   style="fill:#e1c590;fill-opacity:1" />
		</g><g
     id="g2446"
     style="fill:#e1c590;fill-opacity:1"
     transform="scale(1.3333334)">
			<path
   class="st2"
   d="m 64.99,107.99 c -2.17,0 -3.93,-1.76 -3.93,-3.93 0,-0.14 0.01,-0.28 0.02,-0.42 0.21,-2 1.89,-3.51 3.91,-3.51 2.17,0 3.93,1.76 3.93,3.93 0,0.11 0,0.22 -0.01,0.32 -0.16,2.01 -1.88,3.61 -3.92,3.61 z m 0,-6.24 c -1.18,0 -2.17,0.88 -2.29,2.06 -0.01,0.08 -0.01,0.16 -0.01,0.25 0,1.27 1.03,2.3 2.3,2.3 1.2,0 2.2,-0.93 2.29,-2.12 0.01,-0.07 0.01,-0.13 0.01,-0.18 0,-1.27 -1.03,-2.31 -2.3,-2.31 z"
   id="path2444"
   style="fill:#e1c590;fill-opacity:1" />
		</g><g
     id="g2450"
     style="fill:#e1c590;fill-opacity:1"
     transform="scale(1.3333334)">
			<path
   class="st2"
   d="m 64.99,116.52 c -2.17,0 -3.93,-1.76 -3.93,-3.93 0,-0.14 0.01,-0.28 0.02,-0.42 0.21,-2 1.89,-3.51 3.91,-3.51 2.17,0 3.93,1.76 3.93,3.93 0,0.11 0,0.22 -0.01,0.32 -0.16,2.02 -1.88,3.61 -3.92,3.61 z m 0,-6.24 c -1.18,0 -2.17,0.88 -2.29,2.06 -0.01,0.08 -0.01,0.16 -0.01,0.25 0,1.27 1.03,2.3 2.3,2.3 1.2,0 2.2,-0.93 2.29,-2.12 0.01,-0.07 0.01,-0.13 0.01,-0.18 0,-1.27 -1.03,-2.31 -2.3,-2.31 z"
   id="path2448"
   style="fill:#e1c590;fill-opacity:1" />
		</g><g
     id="g2454"
     style="fill:#e1c590;fill-opacity:1"
     transform="scale(1.3333334)">
			<path
   class="st2"
   d="m 50.21,107.99 c -2.17,0 -3.93,-1.76 -3.93,-3.93 0,-0.14 0.01,-0.29 0.02,-0.43 0.21,-2 1.89,-3.51 3.91,-3.51 2.17,0 3.93,1.76 3.93,3.93 0,0.11 0,0.22 -0.02,0.33 -0.14,2.01 -1.87,3.61 -3.91,3.61 z m 0,-6.24 c -1.18,0 -2.17,0.88 -2.29,2.06 -0.01,0.09 -0.01,0.17 -0.01,0.25 0,1.27 1.03,2.3 2.3,2.3 1.2,0 2.2,-0.93 2.29,-2.12 0.01,-0.07 0.01,-0.13 0.01,-0.18 0,-1.27 -1.03,-2.31 -2.3,-2.31 z"
   id="path2452"
   style="fill:#e1c590;fill-opacity:1" />
		</g><g
     id="g2458"
     style="fill:#e1c590;fill-opacity:1"
     transform="scale(1.3333334)">
			<path
   class="st2"
   d="m 50.21,116.52 c -2.17,0 -3.93,-1.76 -3.93,-3.93 0,-0.14 0.01,-0.29 0.02,-0.43 0.21,-2 1.89,-3.51 3.91,-3.51 2.17,0 3.93,1.76 3.93,3.93 0,0.11 0,0.22 -0.02,0.33 -0.14,2.02 -1.87,3.61 -3.91,3.61 z m 0,-6.24 c -1.18,0 -2.17,0.88 -2.29,2.06 -0.01,0.09 -0.01,0.17 -0.01,0.25 0,1.27 1.03,2.3 2.3,2.3 1.2,0 2.2,-0.93 2.29,-2.12 0.01,-0.07 0.01,-0.13 0.01,-0.18 0,-1.27 -1.03,-2.31 -2.3,-2.31 z"
   id="path2456"
   style="fill:#e1c590;fill-opacity:1" />
		</g><g
     id="g2462"
     style="fill:#e1c590;fill-opacity:1"
     transform="scale(1.3333334)">
			<path
   class="st2"
   d="m 57.6,120.79 c -2.17,0 -3.93,-1.76 -3.93,-3.93 0,-0.14 0.01,-0.29 0.02,-0.42 0.21,-2 1.89,-3.51 3.91,-3.51 2.17,0 3.93,1.76 3.93,3.93 0,0.11 0,0.22 -0.02,0.33 -0.14,2 -1.87,3.6 -3.91,3.6 z m 0,-6.24 c -1.18,0 -2.17,0.88 -2.29,2.06 -0.01,0.08 -0.01,0.16 -0.01,0.25 0,1.27 1.03,2.3 2.3,2.3 1.2,0 2.2,-0.93 2.29,-2.12 0.01,-0.08 0.01,-0.13 0.01,-0.18 0,-1.28 -1.03,-2.31 -2.3,-2.31 z"
   id="path2460"
   style="fill:#e1c590;fill-opacity:1" />
		</g></g>
</svg>
