<?xml version="1.0" encoding="UTF-8" standalone="no"?>
<!-- Generator: Adobe Illustrator 28.0.0, SVG Export Plug-In . SVG Version: 6.00 Build 0)  -->

<svg
   version="1.1"
   x="0px"
   y="0px"
   viewBox="0 0 76.800001 485.6693"
   xml:space="preserve"
   id="svg10196"
   sodipodi:docname="ochdEx (Inkscape Render).svg"
   width="20.32mm"
   height="128.5mm"
   inkscape:version="1.2 (dc2aeda, 2022-05-15)"
   xmlns:inkscape="http://www.inkscape.org/namespaces/inkscape"
   xmlns:sodipodi="http://sodipodi.sourceforge.net/DTD/sodipodi-0.dtd"
   xmlns="http://www.w3.org/2000/svg"
   xmlns:svg="http://www.w3.org/2000/svg"><defs
   id="defs10200" /><sodipodi:namedview
   id="namedview10198"
   pagecolor="#ffffff"
   bordercolor="#000000"
   borderopacity="0.25"
   inkscape:showpageshadow="2"
   inkscape:pageopacity="0.0"
   inkscape:pagecheckerboard="0"
   inkscape:deskcolor="#d1d1d1"
   showgrid="false"
   inkscape:zoom="1.3977471"
   inkscape:cx="69.755107"
   inkscape:cy="213.20022"
   inkscape:window-width="1728"
   inkscape:window-height="1050"
   inkscape:window-x="0"
   inkscape:window-y="38"
   inkscape:window-maximized="0"
   inkscape:current-layer="svg10196"
   inkscape:document-units="mm" />
<style
   type="text/css"
   id="style9989">
	.st0{fill:#1E1E1E;}
	.st1{fill:#727171;}
	.st2{fill:#E0C490;}
</style>
<g
   id="BG"
   transform="matrix(1.3287197,0,0,1.3335235,0.03287197,0)"
   style="fill:#1e1e1e;fill-opacity:1">
	<rect
   class="st0"
   width="57.599998"
   height="364.20001"
   id="rect9991"
   x="0"
   y="0"
   style="fill:#1e1e1e;fill-opacity:1" />
</g>
<g
   id="Grey"
   transform="matrix(1.3287197,0,0,1.3335235,0.03287197,0)"
   style="fill:#727171;fill-opacity:1">
	<g
   id="g10000"
   style="fill:#727171;fill-opacity:1">
		<path
   class="st1"
   d="m 55.1,153.4 -1.2,-2.3 -0.5,0.5 -0.6,0.6 -7.1,7.5 -3.5,-3.5 -2.9,6 v 0 l -0.1,0.3 -0.4,0.8 -2.4,-5 -3.9,-4 -0.6,-0.6 -6.5,-6.8 -0.6,1.3 -0.4,0.7 -7,14.3 -5.8,-11.6 -7.7,8 -4,-4.1 v 1.7 l 3.2,3.2 -3.1,3.5 v 0.8 0 0 0.8 l 0.1,0.1 4,-4.1 2.6,2.7 5.8,12.1 1.9,-3.8 3.1,3.2 10.6,-10.9 5.9,11.2 6,-12.2 1.9,1.8 4,-4.2 4.4,4.3 5.1,10.6 1.5,-3.1 0.4,0.4 0.4,-0.4 v -0.8 l -1.1,-1.2 -1.2,2.4 -3,-6.3 -1.1,-2.2 -4.6,-4.6 6.8,-7.2 0.2,-0.2 1.2,2.4 2.2,4.3 0.5,-0.3 v -1.3 l -1.7,-3.3 z m -21.2,19.9 -5.5,-10.5 -10.9,11.2 -3.4,-3.5 -1.6,3.1 -4.8,-10 -2.9,-2.9 6.1,-6.4 0.4,-0.4 6.1,12.2 7.9,-16.1 0.3,-0.6 0.1,-0.2 0.1,-0.2 4.9,5.1 1,1 3.7,3.8 2.8,5.8 v 0 z m 7.9,-9.3 -1.3,-1.3 2.2,-4.4 2.3,2.3 z"
   id="path9994"
   style="fill:#727171;fill-opacity:1" />
		<polygon
   class="st1"
   points="22,112 22.8,112.8 23.2,112.2 23.5,113 37.3,126.8 44.6,112.5 51.4,126.5 51.4,126.5 50.4,127.5 49.3,125.7 46.5,131.6 39.4,138.4 38.8,139 36,141.7 32.8,135.2 32.5,134.5 28.1,125.7 24.5,132.9 23.5,134.8 23.5,134.9 21.3,139.3 7.2,126 0.4,132.8 0.2,133 0,133.2 0,134 0.4,134.5 0.9,134 7.2,127.7 12.4,132.6 12.5,132.7 12.5,132.7 20.8,140.5 20.9,140.6 21.4,141 21.6,141.3 24.7,135.1 25.2,134.2 28.1,128.4 31.6,135.4 31.9,136.1 35.7,143.7 39.3,140.1 39.9,139.6 47.4,132.4 49.5,128.2 50.2,129.3 52,127.6 57.2,132.7 57.6,132.3 57.6,131.4 52.2,126.1 57.6,120.8 57.6,119.9 57.2,119.5 51.9,124.7 44.6,109.8 37,124.8 24.6,112.3 23.3,109.9 22.6,110.9 22,110.3 10.6,121.5 8.6,123.5 1.9,109.8 0,113.6 0,115 0.5,115.2 1.9,112.5 6.6,122.2 8.3,125.5 "
   id="polygon9996"
   style="fill:#727171;fill-opacity:1" />
		<path
   class="st1"
   d="m 57.6,68.5 h -6.1 v -6.9 h 6.1 v -0.4 h -6.1 v -6.9 h 6.1 V 53.9 H 51.5 V 39.5 h 6.1 V 39 h -6.1 v -6.9 h 6.1 v -0.4 h -6.1 v -6.9 h 6.1 V 24.4 H 13.9 v 0.4 h 2.2 v 6.9 H 9.6 V 29.1 H 9.2 v 2.6 H 2.6 V 24.8 H 4.3 V 24.4 H 0 v 0.4 h 2.2 v 6.9 H 0 v 0.4 H 2.2 V 39 H 0 v 0.4 H 2.2 V 53.7 H 0 v 0.4 H 2.2 V 61 H 0 v 0.4 h 2.2 v 6.9 H 0 v 0.4 h 57.6 z m -6.6,0 H 44.5 V 61.6 H 51 Z M 23.1,54.2 v 6.9 h -6.5 v -6.9 z m 14,-14.7 V 53.8 H 30.6 V 39.5 Z M 30.5,39 V 32.1 H 37 V 39 Z M 30.1,53.7 H 23.6 V 39.5 h 6.5 z m -6.5,0.5 h 6.5 v 6.9 h -6.5 z m 6.9,0 H 37 v 6.9 h -6.5 z m 7,0 H 44 v 6.9 h -6.5 z m 0,-0.5 V 39.5 H 44 V 53.8 H 37.5 Z M 37.5,39 V 32.1 H 44 V 39 Z m 0,-7.3 V 24.8 H 44 v 6.9 z m -0.4,0 h -6.5 v -6.9 h 6.5 z m -7,0 h -6.5 v -6.9 h 6.5 z m 0,0.4 V 39 h -6.5 v -6.9 z m -7,6.9 h -6.5 v -6.9 h 6.5 z m 0,0.5 V 53.8 H 16.6 V 39.5 Z m -7,14.2 H 9.6 V 39.5 h 6.5 z m 0.1,0.5 v 6.9 H 9.6 v -6.9 z m 0,7.3 v 6.9 H 9.6 v -6.9 z m 0.4,0 h 6.5 v 6.9 h -6.5 z m 7,0 h 6.5 v 6.9 h -6.5 z m 6.9,0 H 37 v 6.9 h -6.5 z m 7,0 H 44 v 6.9 H 37.5 Z M 51,61.1 H 44.5 V 54.2 H 51 Z m 0,-7.4 H 44.5 V 39.5 H 51 Z M 51,39 H 44.5 V 32.1 H 51 Z m 0,-7.3 H 44.5 V 24.8 H 51 Z m -34.4,-7 h 6.5 v 6.9 h -6.5 z m -0.5,7.4 V 39 H 9.6 v -6.9 z m -13.5,0 H 9.1 V 39 H 2.6 Z m 0,7.4 H 9.1 V 53.8 H 2.6 Z m 0,14.7 h 6.5 v 6.9 H 2.6 Z m 0,7.3 h 6.5 v 6.9 H 2.6 Z"
   id="path9998"
   style="fill:#727171;fill-opacity:1" />
	</g>
</g>
<g
   id="COPPER"
   transform="matrix(1.3287197,0,0,1.3335235,0.03287197,0)"
   style="fill:#e0c490;fill-opacity:1">
	<g
   id="g10193"
   style="fill:#e0c490;fill-opacity:1">
		<rect
   y="344.60001"
   class="st2"
   width="48.599998"
   height="3"
   id="rect10003"
   x="0"
   style="fill:#e0c490;fill-opacity:1" />
		<path
   class="st2"
   d="m 50.9,349.8 -5.6,7.8 h 4.6 v 1.7 h 1 v -1.7 H 52 v -0.9 h -1.1 z m -1,6.9 H 47 l 2.9,-4 z"
   id="path10005"
   style="fill:#e0c490;fill-opacity:1" />
		<path
   class="st2"
   d="m 54.3,346 c 0.3,-0.4 0.3,-0.6 0.3,-0.9 0,-0.7 -0.6,-1.3 -1.3,-1.3 -0.5,0 -0.8,0.2 -1,0.4 -0.2,0.2 -0.3,0.4 -0.3,0.9 h 0.5 c 0,-0.2 0.1,-0.4 0.1,-0.5 0.2,-0.2 0.4,-0.4 0.7,-0.4 0.5,0 0.8,0.3 0.8,0.8 0,0.2 0,0.4 -0.2,0.6 -0.1,0.2 -0.4,0.5 -0.5,0.6 l -1.5,1.8 h 2.7 v -0.4 h -1.8 l 0.9,-1 c 0.2,-0.1 0.4,-0.4 0.6,-0.6 z"
   id="path10007"
   style="fill:#e0c490;fill-opacity:1" />
		<polygon
   class="st2"
   points="32,359.3 31.3,359.3 31.3,353.9 32,353.9 32,353.4 30.8,353.4 30.8,359.8 32,359.8 "
   id="polygon10009"
   style="fill:#e0c490;fill-opacity:1" />
		<polygon
   class="st2"
   points="41.5,359.3 40.8,359.3 40.8,359.8 42,359.8 42,353.4 40.8,353.4 40.8,353.9 41.5,353.9 "
   id="polygon10011"
   style="fill:#e0c490;fill-opacity:1" />
		<polygon
   class="st2"
   points="54.3,2.9 45.1,2.9 49.7,10.8 "
   id="polygon10013"
   style="fill:#e0c490;fill-opacity:1" />
		<polygon
   class="st2"
   points="50.1,11.5 50.4,12.1 50.5,12.1 55.8,2.9 55.1,2.9 "
   id="polygon10015"
   style="fill:#e0c490;fill-opacity:1" />
		<polygon
   class="st2"
   points="49.7,10.8 48.2,13.4 48.8,13.7 50.1,11.5 "
   id="polygon10017"
   style="fill:#e0c490;fill-opacity:1" />
		<polygon
   class="st2"
   points="54.3,2.9 55.1,2.9 55.8,1.6 55,1.6 "
   id="polygon10019"
   style="fill:#e0c490;fill-opacity:1" />
		<polygon
   class="st2"
   points="55.8,21.4 51.2,13.4 46.6,21.4 "
   id="polygon10021"
   style="fill:#e0c490;fill-opacity:1" />
		<polygon
   class="st2"
   points="50.8,12.8 50.5,12.2 50.4,12.2 45.1,21.4 45.8,21.4 "
   id="polygon10023"
   style="fill:#e0c490;fill-opacity:1" />
		<polygon
   class="st2"
   points="51.2,13.4 52.6,10.9 52.1,10.6 50.8,12.8 "
   id="polygon10025"
   style="fill:#e0c490;fill-opacity:1" />
		<polygon
   class="st2"
   points="46.6,21.4 45.8,21.4 45.1,22.7 45.9,22.7 "
   id="polygon10027"
   style="fill:#e0c490;fill-opacity:1" />
		<path
   class="st2"
   d="m 4.8,259.8 c 0,-0.5 -0.2,-0.9 -0.5,-1 -0.4,-0.2 -0.8,-0.3 -1.1,-0.3 H 2.4 v 4.7 h 0.5 v -2 H 3 l 1.4,2 H 5 l -1.5,-2.1 c 0.8,-0.1 1.3,-0.6 1.3,-1.3 z m -1.6,0.9 H 2.9 V 259 h 0.3 c 0.2,0 0.5,0 0.7,0.1 0.3,0.2 0.4,0.4 0.4,0.7 -0.1,0.6 -0.4,0.9 -1.1,0.9 z"
   id="path10029"
   style="fill:#e0c490;fill-opacity:1" />
		<path
   class="st2"
   d="m 11.5,259.8 c 0,-0.5 -0.2,-0.9 -0.5,-1 -0.4,-0.2 -0.8,-0.3 -1.1,-0.3 H 9.1 v 4.7 h 0.5 v -2 h 0.1 l 1.4,2 h 0.6 l -1.5,-2.1 c 0.9,-0.1 1.3,-0.6 1.3,-1.3 z M 10,260.7 H 9.7 V 259 H 10 c 0.2,0 0.5,0 0.7,0.1 0.3,0.2 0.4,0.4 0.4,0.7 -0.1,0.6 -0.5,0.9 -1.1,0.9 z"
   id="path10031"
   style="fill:#e0c490;fill-opacity:1" />
		<path
   class="st2"
   d="m 7.6,259.2 c 0.2,-0.3 0.3,-0.5 0.3,-0.7 0,-0.5 -0.4,-0.9 -1,-0.9 -0.4,0 -0.6,0.2 -0.7,0.3 C 6.1,258 6,258.2 6,258.6 h 0.4 c 0,-0.2 0,-0.3 0.1,-0.4 0.1,-0.2 0.3,-0.3 0.5,-0.3 0.4,0 0.6,0.3 0.6,0.6 0,0.1 0,0.3 -0.2,0.5 -0.1,0.1 -0.3,0.4 -0.4,0.5 l -1.1,1.3 h 2 v -0.3 H 6.5 l 0.7,-0.7 c 0.1,-0.2 0.2,-0.4 0.4,-0.6 z"
   id="path10033"
   style="fill:#e0c490;fill-opacity:1" />
		<polygon
   class="st2"
   points="4,180.5 4,180 1.2,180 1.2,180.5 2.3,180.5 2.3,184.7 2.9,184.7 2.9,180.5 "
   id="polygon10035"
   style="fill:#e0c490;fill-opacity:1" />
		<path
   class="st2"
   d="m 7.1,181.3 c 0,-0.5 -0.2,-0.9 -0.5,-1 C 6.2,180.1 5.8,180 5.5,180 H 4.7 v 4.7 h 0.5 v -2 h 0.1 l 1.4,2 h 0.6 l -1.5,-2.1 c 0.8,0 1.3,-0.6 1.3,-1.3 z m -1.6,0.9 H 5.2 v -1.7 h 0.3 c 0.2,0 0.5,0 0.7,0.1 0.3,0.2 0.4,0.4 0.4,0.7 0,0.6 -0.4,0.9 -1.1,0.9 z"
   id="path10037"
   style="fill:#e0c490;fill-opacity:1" />
		<rect
   x="8.1999998"
   y="180"
   class="st2"
   width="0.5"
   height="4.6999998"
   id="rect10039"
   style="fill:#e0c490;fill-opacity:1" />
		<path
   class="st2"
   d="m 12.1,180.4 c 0.6,0 0.9,0.2 1.1,0.4 0.2,0.1 0.3,0.3 0.4,0.5 l 0.4,-0.4 c -0.1,-0.2 -0.3,-0.4 -0.5,-0.6 -0.5,-0.4 -1,-0.5 -1.4,-0.5 -1.4,0 -2.4,1.1 -2.4,2.4 0,1.4 1,2.4 2.4,2.4 1.1,0 1.6,-0.7 1.7,-0.8 0.3,-0.4 0.4,-1 0.4,-1.5 v -0.1 h -1.9 v 0.5 h 1.4 c 0,0.3 -0.1,0.5 -0.2,0.7 -0.3,0.5 -0.8,0.8 -1.4,0.8 -0.9,0 -1.9,-0.6 -1.9,-1.9 0,-1 0.8,-1.9 1.9,-1.9 z"
   id="path10041"
   style="fill:#e0c490;fill-opacity:1" />
		<polygon
   class="st2"
   points="17.1,331.1 6.6,331.1 6.6,340.5 3.8,340.5 3.8,333.7 2,333.7 2,324.5 0,324.5 0,325.3 1.2,325.3 1.2,334.5 3,334.5 3,341.3 7.4,341.3 7.4,331.9 16.3,331.9 16.3,336.3 20.1,336.3 20.1,329 22.5,329 22.5,342.2 26.2,342.2 26.2,338.5 30.5,338.5 30.5,335.7 34.9,335.7 34.9,340.4 37,340.4 37,343 40.4,343 40.4,338 45.4,338 45.4,341.3 48.5,341.3 48.5,339.4 57.6,339.4 57.6,338.6 47.7,338.6 47.7,340.5 46.2,340.5 46.2,337.2 39.6,337.2 39.6,342.2 37.8,342.2 37.8,339.6 35.7,339.6 35.7,334.9 29.7,334.9 29.7,337.7 25.4,337.7 25.4,341.4 23.3,341.4 23.3,328.2 19.3,328.2 19.3,335.5 17.1,335.5 "
   id="polygon10043"
   style="fill:#e0c490;fill-opacity:1" />
		<polygon
   class="st2"
   points="37.2,257 36.2,257 36.2,265.1 34.2,265.1 30.4,261.5 30.4,261.5 30.4,252.9 29.4,252.9 29.4,260.7 28.4,259.7 28.4,251.2 27.4,251.2 27.4,258.8 23.8,255.5 22.8,255.5 22.8,247.4 21.8,247.4 21.8,255.5 17.9,255.5 17.9,247.4 16.9,247.4 16.9,255.5 9.1,255.5 9.1,247.4 8.1,247.4 8.1,255.5 7,255.5 7,247.4 6,247.4 6,255.5 3.1,255.5 3.1,247.4 2.1,247.4 2.1,255.5 0.1,255.5 0.1,256.5 23.4,256.5 33.8,266.1 57.5,266.1 57.5,265.1 56.5,265.1 56.5,257 55.5,257 55.5,265.1 52.7,265.1 52.7,257 51.7,257 51.7,265.1 49.4,265.1 49.4,257 48.4,257 48.4,265.1 37.2,265.1 "
   id="polygon10045"
   style="fill:#e0c490;fill-opacity:1" />
		<polygon
   class="st2"
   points="33.8,187.4 57.5,187.4 57.5,186.4 34.2,186.4 23.8,176.8 0.1,176.8 0.1,177.8 23.4,177.8 "
   id="polygon10047"
   style="fill:#e0c490;fill-opacity:1" />
		<polygon
   class="st2"
   points="33.8,109.9 57.5,109.9 57.5,108.9 34.2,108.9 23.8,99.3 0.1,99.3 0.1,100.3 23.4,100.3 "
   id="polygon10049"
   style="fill:#e0c490;fill-opacity:1" />
		<path
   class="st2"
   d="m 2.1,92.9 h 0.4 v 3.3 h 0.7 v -3.3 h 1 v -0.6 h -1 v -1.6 c 0,-0.2 0,-0.4 0.1,-0.6 0.1,-0.2 0.3,-0.2 0.4,-0.2 0.1,0 0.3,0 0.4,0.1 V 89.3 C 4,89.3 3.9,89.2 3.6,89.2 3.3,89.2 3,89.3 2.8,89.5 2.4,89.8 2.4,90.2 2.4,90.6 v 1.7 H 2.1 Z"
   id="path10051"
   style="fill:#e0c490;fill-opacity:1" />
		<path
   class="st2"
   d="m 6.1,95.2 c 0.4,0 0.8,-0.3 0.8,-0.8 0,-0.5 -0.3,-0.8 -0.8,-0.8 -0.4,0 -0.8,0.3 -0.8,0.8 0,0.5 0.4,0.8 0.8,0.8 z"
   id="path10053"
   style="fill:#e0c490;fill-opacity:1" />
		<path
   class="st2"
   d="m 7.8,93.7 h 0.4 c 0,-0.2 0,-0.3 0.1,-0.4 0.1,-0.2 0.3,-0.3 0.6,-0.3 0.4,0 0.7,0.3 0.7,0.7 0,0.1 0,0.3 -0.2,0.6 C 9.3,94.4 9.1,94.7 9,94.8 L 7.7,96.3 H 10 V 95.9 H 8.5 L 9.3,95 C 9.4,94.8 9.6,94.6 9.8,94.4 10,94.1 10.1,93.9 10.1,93.6 10.1,93 9.6,92.5 9,92.5 8.6,92.5 8.3,92.7 8.1,92.9 8,93.1 7.8,93.3 7.8,93.7 Z"
   id="path10055"
   style="fill:#e0c490;fill-opacity:1" />
		<path
   class="st2"
   d="m 14.4,218.4 h 11.3 v -1.1 H 14.1 v 0 c -5,0.1 -9.6,2.4 -12.6,6.4 l 0.9,0.7 c 2.8,-3.8 7.2,-6 12,-6 z"
   id="path10057"
   style="fill:#e0c490;fill-opacity:1" />
		<path
   class="st2"
   d="m 55.3,218.9 c -2.9,3.8 -7.3,5.9 -12.1,5.9 H 31.6 v 1.1 h 11.6 c 5.1,0 9.8,-2.3 12.9,-6.4 z"
   id="path10059"
   style="fill:#e0c490;fill-opacity:1" />
		<path
   class="st2"
   d="M 43.2,226.9 H 31.6 v 1.1 h 11.6 c 4.8,0 9.2,2.2 12.1,5.9 l 0.9,-0.7 c -3.2,-4 -7.9,-6.3 -13,-6.3 z"
   id="path10061"
   style="fill:#e0c490;fill-opacity:1" />
		<polygon
   class="st2"
   points="10.1,106.6 10.1,104.6 14,104.6 14,103.9 10.1,103.9 10.1,101.9 9.5,101.9 9.5,103.9 8.1,103.1 6,101.9 6,103.9 1.9,103.9 1.9,104.6 6,104.6 6,106.6 8.1,105.4 9.5,104.6 9.5,106.6 "
   id="polygon10063"
   style="fill:#e0c490;fill-opacity:1" />
		<polygon
   class="st2"
   points="52.9,112.4 52.9,114.7 50.6,114.7 50.6,115.5 52.9,115.5 52.9,117.8 53.8,117.8 53.8,115.5 56.2,115.5 56.2,114.7 53.8,114.7 53.8,112.4 "
   id="polygon10065"
   style="fill:#e0c490;fill-opacity:1" />
		<rect
   x="1.8"
   y="171.8"
   class="st2"
   width="5.6999998"
   height="0.80000001"
   id="rect10067"
   style="fill:#e0c490;fill-opacity:1" />
		<polygon
   class="st2"
   points="22.5,146 18.5,154.1 14.5,146.1 6.1,154.5 0.3,149 0,149.2 0,149.8 6.1,155.6 14.3,147.4 18.5,155.9 22.8,147.4 24.4,149 25.3,149.9 29.7,154.4 30.5,155.8 30.9,155.2 31.2,155.6 31.7,155.1 32.5,154.3 37.7,149.2 38.8,148.1 42.6,155.9 47.3,146.5 52.7,151.8 52.8,152.2 53.4,153.3 54.7,155.9 54.8,155.6 55.4,154.5 55.9,155 56.4,155.5 57.6,154.4 57.6,153.8 57.3,153.5 56.4,154.4 55.2,153.2 55.1,153.4 54.7,154.1 53.4,151.6 53.3,151.4 47,145.1 42.6,154.1 40,148.7 39,146.8 32,153.7 31.3,154.4 30.8,154 30.7,154.1 30.6,154.3 30.4,153.9 25.7,149.2 24.8,148.3 "
   id="polygon10069"
   style="fill:#e0c490;fill-opacity:1" />
		<polygon
   class="st2"
   points="20.8,140.5 19.6,142.9 15.4,138.7 12.5,132.7 12.5,132.7 12.4,132.6 12.4,132.6 11.5,134.4 10.2,133 4,139.5 3.8,139.7 0.9,134 0.7,133.5 0.4,132.8 0.4,132.7 0.2,133 0,133.4 0,134.3 0.3,134.5 3.6,141.1 10.2,134.2 11.8,135.8 12.4,134.5 14.7,139.1 19.8,144.3 21.4,141 24.5,134.6 24.7,135.1 27.6,140.6 31.9,136.1 32.8,135.2 33.8,134.2 35.8,136.2 36.6,134.5 38.8,139 39.3,140.1 39.3,140.1 43.7,144.6 48.7,134.6 51.5,140.3 57.6,133.9 57.6,133.3 57.3,133 51.7,138.9 48.7,132.8 43.5,143.3 40,139.7 39.9,139.6 39.4,138.4 36.7,132.7 35.6,134.9 33.8,133.1 32.5,134.5 31.6,135.4 27.8,139.2 25.2,134.2 25,133.8 24.5,132.9 23.5,134.8 23.5,134.9 "
   id="polygon10071"
   style="fill:#e0c490;fill-opacity:1" />
		<polygon
   class="st2"
   points="5,21.6 7.9,21.6 7.9,23.1 9.4,22.3 10.4,21.7 10.4,23.1 10.8,23.1 10.8,21.6 13.5,21.6 13.5,21.2 10.8,21.2 10.8,19.7 10.4,19.7 10.4,21.2 9.4,20.6 7.9,19.7 7.9,21.2 5,21.2 "
   id="polygon10073"
   style="fill:#e0c490;fill-opacity:1" />
		<path
   class="st2"
   d="m 9.1,27.8 6,-6 h 3.3 V 21 h -3.3 l -6,-6 -6,6 H 0.5 v 0.8 h 2.6 z m 5.3,-6.4 -5.3,5.3 -5.2,-5.2 v -0.1 l 5.2,-5.2 z"
   id="path10075"
   style="fill:#e0c490;fill-opacity:1" />
		<path
   class="st2"
   d="m 26.3,190.5 c 0.1,0.1 0.2,0.2 0.3,0.4 0.2,0.2 0.3,0.4 0.4,0.6 1.2,1.8 2,3.8 2.4,6 l 1.1,-0.2 C 30.1,195 29.3,192.9 28,191.1 v 0 c 0,-0.1 -0.1,-0.1 -0.1,-0.2 -0.2,-0.2 -0.3,-0.4 -0.5,-0.7 -0.1,-0.1 -0.2,-0.3 -0.3,-0.4 -0.1,-0.2 -0.3,-0.3 -0.4,-0.5 -0.2,-0.2 -0.3,-0.4 -0.5,-0.6 0,0 -0.1,-0.1 -0.1,-0.1 v 0 c -0.3,-0.3 -0.6,-0.6 -0.9,-0.8 v 0 c -0.1,0 -0.1,-0.1 -0.2,-0.1 -0.2,-0.2 -0.4,-0.4 -0.6,-0.5 -0.1,-0.1 -0.2,-0.2 -0.3,-0.2 -0.2,-0.2 -0.4,-0.3 -0.7,-0.5 -0.1,-0.1 -0.3,-0.2 -0.4,-0.3 -0.2,-0.1 -0.4,-0.2 -0.6,-0.3 -0.2,-0.1 -0.4,-0.2 -0.6,-0.3 -0.1,-0.1 -0.3,-0.1 -0.4,-0.2 -0.3,-0.1 -0.5,-0.3 -0.8,-0.4 0,0 -0.1,0 -0.1,-0.1 v 0 c -1.3,-0.5 -2.7,-0.9 -4.2,-1.1 l -0.1,1.1 c 1.4,0.2 2.7,0.5 3.9,1 0.3,0.1 0.6,0.2 0.8,0.4 0.1,0.1 0.2,0.1 0.3,0.2 0.2,0.1 0.4,0.2 0.6,0.3 0.2,0.1 0.3,0.2 0.5,0.3 0.1,0.1 0.3,0.2 0.4,0.3 0.2,0.1 0.4,0.3 0.6,0.4 0.1,0.1 0.2,0.1 0.3,0.2 0.2,0.2 0.4,0.3 0.6,0.5 0.4,0.3 0.7,0.7 1.1,1 0.2,0.2 0.3,0.3 0.5,0.5 0.2,0.2 0.4,0.4 0.5,0.5 z"
   id="path10077"
   style="fill:#e0c490;fill-opacity:1" />
		<path
   class="st2"
   d="M 55.2,39.2 51.4,45.7 51,44.9 47.7,39.2 41.4,28.3 35,39.2 31.2,45.7 27.4,39.2 21.1,28.3 14.8,39.2 11,45.7 7.2,39.2 0.9,28.3 0.7,28.7 c 0,0 -0.2,0.4 -0.7,1.1 V 31 l 0.1,-0.2 c 0.3,-0.6 0.6,-1.1 0.8,-1.4 l 5.7,9.8 4.1,7 H 0 v 0.1 0.4 0.1 h 10.7 l -0.2,0.3 0.5,0.2 v 0 0 l 0.5,-0.2 -0.2,-0.3 h 19.6 l -0.2,0.3 0.5,0.3 v 0 0 l 0.5,-0.2 -0.2,-0.3 h 19.6 l -0.1,0.3 0.5,0.2 v 0 0 L 52,47.2 51.8,46.9 h 5.8 v -0.1 -0.4 -0.1 h -5.8 l 4.1,-7 1.8,-3 v -1.1 z m -39.8,0 5.7,-9.8 5.7,9.8 4.1,7 H 11.3 Z m 16.2,7 4.1,-7 5.7,-9.8 5.7,9.8 3.9,6.8 0.2,0.3 H 31.6 Z"
   id="path10079"
   style="fill:#e0c490;fill-opacity:1" />
		<polygon
   class="st2"
   points="57.6,58.1 57.6,57.5 57.6,57 57.1,57.2 "
   id="polygon10081"
   style="fill:#e0c490;fill-opacity:1" />
		<polygon
   class="st2"
   points="56.6,56.3 57.1,56.1 56.5,55.2 56.1,55.4 "
   id="polygon10083"
   style="fill:#e0c490;fill-opacity:1" />
		<polygon
   class="st2"
   points="54.5,52.8 55,52.5 54.5,51.6 54,51.9 "
   id="polygon10085"
   style="fill:#e0c490;fill-opacity:1" />
		<polygon
   class="st2"
   points="53.5,51 54,50.8 53.5,49.9 53,50.1 "
   id="polygon10087"
   style="fill:#e0c490;fill-opacity:1" />
		<polygon
   class="st2"
   points="52.5,49.2 53,49 52.5,48.1 52,48.4 "
   id="polygon10089"
   style="fill:#e0c490;fill-opacity:1" />
		<polygon
   class="st2"
   points="56,54.3 55.8,54 55.5,53.4 55.1,53.7 55.2,54 55.6,54.6 "
   id="polygon10091"
   style="fill:#e0c490;fill-opacity:1" />
		<polygon
   class="st2"
   points="46.4,56.2 46.9,55.3 46.4,55.1 45.9,55.9 "
   id="polygon10093"
   style="fill:#e0c490;fill-opacity:1" />
		<polygon
   class="st2"
   points="45.4,57.9 45.9,57 45.4,56.8 44.9,57.7 "
   id="polygon10095"
   style="fill:#e0c490;fill-opacity:1" />
		<polygon
   class="st2"
   points="48.4,52.7 48.9,51.8 48.4,51.6 47.9,52.5 "
   id="polygon10097"
   style="fill:#e0c490;fill-opacity:1" />
		<polygon
   class="st2"
   points="47.9,53.6 47.4,53.3 47,54 46.9,54.2 47.4,54.4 47.7,54 "
   id="polygon10099"
   style="fill:#e0c490;fill-opacity:1" />
		<polygon
   class="st2"
   points="49.4,51 49.9,50.1 49.4,49.8 48.9,50.7 "
   id="polygon10101"
   style="fill:#e0c490;fill-opacity:1" />
		<polygon
   class="st2"
   points="50.4,49.2 50.9,48.3 50.5,48.1 50,49 "
   id="polygon10103"
   style="fill:#e0c490;fill-opacity:1" />
		<polygon
   class="st2"
   points="42.3,63.1 42.8,62.3 42.4,62 41.9,62.9 "
   id="polygon10105"
   style="fill:#e0c490;fill-opacity:1" />
		<polygon
   class="st2"
   points="44.3,59.7 44.8,58.8 44.4,58.5 43.9,59.4 "
   id="polygon10107"
   style="fill:#e0c490;fill-opacity:1" />
		<polygon
   class="st2"
   points="43.3,61.4 43.8,60.5 43.4,60.3 42.9,61.1 "
   id="polygon10109"
   style="fill:#e0c490;fill-opacity:1" />
		<polygon
   class="st2"
   points="40.8,64 41.3,64.9 41.8,64 41.4,63.8 41.3,63.8 "
   id="polygon10111"
   style="fill:#e0c490;fill-opacity:1" />
		<polygon
   class="st2"
   points="40.3,63.1 40.8,62.9 40.3,62 39.8,62.3 "
   id="polygon10113"
   style="fill:#e0c490;fill-opacity:1" />
		<polygon
   class="st2"
   points="35.8,54.2 35.6,54 35.3,53.3 34.8,53.6 35,54 35.3,54.4 "
   id="polygon10115"
   style="fill:#e0c490;fill-opacity:1" />
		<polygon
   class="st2"
   points="33.8,51.8 34.3,52.7 34.8,52.5 34.2,51.6 "
   id="polygon10117"
   style="fill:#e0c490;fill-opacity:1" />
		<polygon
   class="st2"
   points="33.3,51 33.7,50.7 33.2,49.8 32.8,50.1 "
   id="polygon10119"
   style="fill:#e0c490;fill-opacity:1" />
		<polygon
   class="st2"
   points="32.2,49.2 32.7,49 32.2,48.1 31.8,48.3 "
   id="polygon10121"
   style="fill:#e0c490;fill-opacity:1" />
		<polygon
   class="st2"
   points="36.3,56.2 36.8,55.9 36.3,55.1 35.8,55.3 "
   id="polygon10123"
   style="fill:#e0c490;fill-opacity:1" />
		<polygon
   class="st2"
   points="38.3,59.7 38.8,59.4 38.3,58.5 37.8,58.8 "
   id="polygon10125"
   style="fill:#e0c490;fill-opacity:1" />
		<polygon
   class="st2"
   points="39.3,61.4 39.8,61.1 39.3,60.3 38.8,60.5 "
   id="polygon10127"
   style="fill:#e0c490;fill-opacity:1" />
		<polygon
   class="st2"
   points="37.3,57.9 37.8,57.7 37.3,56.8 36.8,57 "
   id="polygon10129"
   style="fill:#e0c490;fill-opacity:1" />
		<polygon
   class="st2"
   points="26.2,56.2 26.7,55.3 26.2,55.1 25.7,55.9 "
   id="polygon10131"
   style="fill:#e0c490;fill-opacity:1" />
		<polygon
   class="st2"
   points="28.2,52.7 28.7,51.8 28.2,51.6 27.7,52.5 "
   id="polygon10133"
   style="fill:#e0c490;fill-opacity:1" />
		<polygon
   class="st2"
   points="27.7,53.6 27.2,53.3 26.8,54 26.7,54.2 27.2,54.4 27.4,54 "
   id="polygon10135"
   style="fill:#e0c490;fill-opacity:1" />
		<polygon
   class="st2"
   points="29.2,51 29.7,50.1 29.2,49.8 28.7,50.7 "
   id="polygon10137"
   style="fill:#e0c490;fill-opacity:1" />
		<polygon
   class="st2"
   points="30.2,49.2 30.7,48.3 30.2,48.1 29.7,49 "
   id="polygon10139"
   style="fill:#e0c490;fill-opacity:1" />
		<polygon
   class="st2"
   points="25.2,57.9 25.7,57 25.2,56.8 24.7,57.7 "
   id="polygon10141"
   style="fill:#e0c490;fill-opacity:1" />
		<polygon
   class="st2"
   points="23.1,61.4 23.6,60.5 23.2,60.3 22.7,61.1 "
   id="polygon10143"
   style="fill:#e0c490;fill-opacity:1" />
		<polygon
   class="st2"
   points="22.1,63.1 22.6,62.3 22.1,62 21.6,62.9 "
   id="polygon10145"
   style="fill:#e0c490;fill-opacity:1" />
		<polygon
   class="st2"
   points="23.7,59.4 24.1,59.7 24.6,58.8 24.2,58.5 "
   id="polygon10147"
   style="fill:#e0c490;fill-opacity:1" />
		<polygon
   class="st2"
   points="21.1,63.8 20.6,64 21.1,64.9 21.6,64 "
   id="polygon10149"
   style="fill:#e0c490;fill-opacity:1" />
		<polygon
   class="st2"
   points="18.1,59.7 18.6,59.4 18.1,58.5 17.6,58.8 "
   id="polygon10151"
   style="fill:#e0c490;fill-opacity:1" />
		<polygon
   class="st2"
   points="17.1,57.9 17.6,57.7 17.1,56.8 16.6,57 "
   id="polygon10153"
   style="fill:#e0c490;fill-opacity:1" />
		<polygon
   class="st2"
   points="19.1,61.4 19.6,61.1 19.1,60.3 18.6,60.5 "
   id="polygon10155"
   style="fill:#e0c490;fill-opacity:1" />
		<polygon
   class="st2"
   points="15.5,54.2 15.4,54 15,53.3 14.6,53.6 14.8,54 15.1,54.4 "
   id="polygon10157"
   style="fill:#e0c490;fill-opacity:1" />
		<polygon
   class="st2"
   points="14,52.7 14.5,52.5 14,51.6 13.5,51.8 "
   id="polygon10159"
   style="fill:#e0c490;fill-opacity:1" />
		<polygon
   class="st2"
   points="12,49.2 12.5,49 12,48.1 11.5,48.3 "
   id="polygon10161"
   style="fill:#e0c490;fill-opacity:1" />
		<polygon
   class="st2"
   points="20.1,63.1 20.6,62.9 20.1,62 19.6,62.3 "
   id="polygon10163"
   style="fill:#e0c490;fill-opacity:1" />
		<polygon
   class="st2"
   points="13,51 13.5,50.7 13,49.8 12.5,50.1 "
   id="polygon10165"
   style="fill:#e0c490;fill-opacity:1" />
		<polygon
   class="st2"
   points="16.1,56.2 16.5,55.9 16,55.1 15.6,55.3 "
   id="polygon10167"
   style="fill:#e0c490;fill-opacity:1" />
		<polygon
   class="st2"
   points="7.2,54 7.5,53.6 7,53.3 6.6,54 6.5,54.2 7,54.4 "
   id="polygon10169"
   style="fill:#e0c490;fill-opacity:1" />
		<polygon
   class="st2"
   points="8.5,51.8 8,51.6 7.5,52.5 8,52.7 "
   id="polygon10171"
   style="fill:#e0c490;fill-opacity:1" />
		<polygon
   class="st2"
   points="5.4,57 5,56.8 4.5,57.7 4.9,57.9 "
   id="polygon10173"
   style="fill:#e0c490;fill-opacity:1" />
		<polygon
   class="st2"
   points="2.4,61.1 2.9,61.4 3.4,60.5 2.9,60.3 "
   id="polygon10175"
   style="fill:#e0c490;fill-opacity:1" />
		<polygon
   class="st2"
   points="9.5,49 10,49.2 10.5,48.3 10,48.1 "
   id="polygon10177"
   style="fill:#e0c490;fill-opacity:1" />
		<polygon
   class="st2"
   points="8.5,50.7 9,51 9.5,50.1 9,49.8 "
   id="polygon10179"
   style="fill:#e0c490;fill-opacity:1" />
		<polygon
   class="st2"
   points="3.4,59.4 3.9,59.7 4.4,58.8 3.9,58.5 "
   id="polygon10181"
   style="fill:#e0c490;fill-opacity:1" />
		<polygon
   class="st2"
   points="5.5,55.9 5.9,56.2 6.5,55.3 6,55.1 "
   id="polygon10183"
   style="fill:#e0c490;fill-opacity:1" />
		<polygon
   class="st2"
   points="2.4,62.3 1.9,62 1.4,62.9 1.9,63.1 "
   id="polygon10185"
   style="fill:#e0c490;fill-opacity:1" />
		<polygon
   class="st2"
   points="0.4,64 0.9,64.9 1.4,64 0.9,63.8 "
   id="polygon10187"
   style="fill:#e0c490;fill-opacity:1" />
		<polygon
   class="st2"
   points="0,62.2 0,63.2 0.4,63 "
   id="polygon10189"
   style="fill:#e0c490;fill-opacity:1" />
		<path
   class="st2"
   d="m 39,353.3 -0.8,0.8 c -0.3,-0.2 -0.8,-0.5 -1.8,-0.5 -1.7,0 -3,1.2 -3,3 0,0.9 0.3,1.5 0.5,1.8 l -0.8,0.8 0.6,0.6 0.8,-0.8 c 0.3,0.2 0.9,0.6 1.8,0.6 1.7,0 3,-1.2 3,-2.9 0,-0.9 -0.3,-1.5 -0.6,-1.8 l 0.8,-0.8 z m -4.6,3.3 c 0,-1.4 0.9,-2.1 2,-2.1 0.4,0 0.8,0.1 1.1,0.3 l -2.8,2.9 c -0.2,-0.3 -0.3,-0.7 -0.3,-1.1 z m 2,2.1 c -0.5,0 -0.8,-0.1 -1.1,-0.4 l 2.8,-2.9 c 0.2,0.3 0.3,0.7 0.3,1.2 0,1.4 -1,2.1 -2,2.1 z"
   id="path10191"
   style="fill:#e0c490;fill-opacity:1" />
	</g>
</g>
</svg>
