<?xml version="1.0" encoding="UTF-8" standalone="no"?>
<svg
   xmlns:dc="http://purl.org/dc/elements/1.1/"
   xmlns:cc="http://creativecommons.org/ns#"
   xmlns:rdf="http://www.w3.org/1999/02/22-rdf-syntax-ns#"
   xmlns:svg="http://www.w3.org/2000/svg"
   xmlns="http://www.w3.org/2000/svg"
   xmlns:sodipodi="http://sodipodi.sourceforge.net/DTD/sodipodi-0.dtd"
   xmlns:inkscape="http://www.inkscape.org/namespaces/inkscape"
   inkscape:version="1.0 (4035a4f, 2020-05-01)"
   height="128.5mm"
   width="20.32mm"
   sodipodi:docname="ochd faceplate (inkscape render) v4.svg"
   id="svg11788"
   xml:space="preserve"
   viewBox="0 0 76.8 485.66932"
   y="0px"
   x="0px"
   version="1.1"><metadata
   id="metadata11794"><rdf:RDF><cc:Work
       rdf:about=""><dc:format>image/svg+xml</dc:format><dc:type
         rdf:resource="http://purl.org/dc/dcmitype/StillImage" /><dc:title></dc:title></cc:Work></rdf:RDF></metadata><defs
   id="defs11792" /><sodipodi:namedview
   inkscape:current-layer="svg11788"
   inkscape:window-maximized="0"
   inkscape:window-y="23"
   inkscape:window-x="1"
   inkscape:cy="244.93946"
   inkscape:cx="-18.081672"
   inkscape:zoom="1.097985"
   units="mm"
   inkscape:document-units="mm"
   showgrid="false"
   id="namedview11790"
   inkscape:window-height="855"
   inkscape:window-width="1440"
   inkscape:pageshadow="2"
   inkscape:pageopacity="0"
   guidetolerance="10"
   gridtolerance="10"
   objecttolerance="10"
   borderopacity="1"
   bordercolor="#666666"
   pagecolor="#ffffff" />
<style
   id="style11612"
   type="text/css">
	.st0{fill:#1E1E1E;}
	.st1{fill:#E0C490;}
</style>
<g
   transform="scale(1.3333335,1.3335236)"
   style="fill:#1f1f1f;fill-opacity:1"
   id="Layer_1">
	<rect
   y="0"
   style="fill:#1f1f1f;fill-opacity:1"
   id="rect11614"
   height="364.20001"
   width="57.599998"
   class="st0"
   x="0" />
</g>
<g
   transform="scale(1.3333335,1.3335236)"
   style="fill:#e0c490;fill-opacity:1"
   id="Layer_2">
	<g
   style="fill:#e0c490;fill-opacity:1"
   id="g11619">
		<rect
   style="fill:#e0c490;fill-opacity:1"
   id="rect11617"
   height="1"
   width="23.5"
   class="st1"
   y="143.8"
   x="19.700001" />
	</g>
	<g
   style="fill:#e0c490;fill-opacity:1"
   id="g11623">
		<rect
   style="fill:#e0c490;fill-opacity:1"
   id="rect11621"
   height="1"
   width="23.5"
   class="st1"
   y="169.10001"
   x="14.4" />
	</g>
	<g
   style="fill:#e0c490;fill-opacity:1"
   id="g11627">
		<rect
   style="fill:#e0c490;fill-opacity:1"
   id="rect11625"
   height="1"
   width="23.5"
   class="st1"
   y="194.60001"
   x="19.700001" />
	</g>
	<g
   style="fill:#e0c490;fill-opacity:1"
   id="g11631">
		<rect
   style="fill:#e0c490;fill-opacity:1"
   id="rect11629"
   height="1"
   width="23.5"
   class="st1"
   y="219.60001"
   x="14.4" />
	</g>
	<g
   style="fill:#e0c490;fill-opacity:1"
   id="g11635">
		<rect
   style="fill:#e0c490;fill-opacity:1"
   id="rect11633"
   height="1"
   width="23.5"
   class="st1"
   y="245"
   x="19.700001" />
	</g>
	<g
   style="fill:#e0c490;fill-opacity:1"
   id="g11639">
		<rect
   style="fill:#e0c490;fill-opacity:1"
   id="rect11637"
   height="1"
   width="23.5"
   class="st1"
   y="270.10001"
   x="14.4" />
	</g>
	<g
   style="fill:#e0c490;fill-opacity:1"
   id="g11643">
		<rect
   style="fill:#e0c490;fill-opacity:1"
   id="rect11641"
   height="1"
   width="23.5"
   class="st1"
   y="295.29999"
   x="19.700001" />
	</g>
	<g
   style="fill:#e0c490;fill-opacity:1"
   id="g11647">
		<rect
   style="fill:#e0c490;fill-opacity:1"
   id="rect11645"
   height="1"
   width="23.5"
   class="st1"
   y="320.5"
   x="14.4" />
	</g>
	<g
   style="fill:#e0c490;fill-opacity:1"
   id="g11651">
		<path
   style="fill:#e0c490;fill-opacity:1"
   id="path11649"
   d="m 14.4,150.4 c -3.2,0 -5.8,-2.6 -5.8,-5.8 0,-3.2 2.6,-5.8 5.8,-5.8 3.2,0 5.8,2.6 5.8,5.8 0,3.2 -2.6,5.8 -5.8,5.8 z m 0,-10.6 c -2.7,0 -4.8,2.2 -4.8,4.8 0,2.6 2.2,4.8 4.8,4.8 2.6,0 4.8,-2.2 4.8,-4.8 0,-2.6 -2.1,-4.8 -4.8,-4.8 z"
   class="st1" />
	</g>
	<g
   style="fill:#e0c490;fill-opacity:1"
   id="g11655">
		<path
   style="fill:#e0c490;fill-opacity:1"
   id="path11653"
   d="m 14.4,200.8 c -3.2,0 -5.8,-2.6 -5.8,-5.8 0,-3.2 2.6,-5.8 5.8,-5.8 3.2,0 5.8,2.6 5.8,5.8 0,3.2 -2.6,5.8 -5.8,5.8 z m 0,-10.6 c -2.7,0 -4.8,2.2 -4.8,4.8 0,2.6 2.2,4.8 4.8,4.8 2.6,0 4.8,-2.2 4.8,-4.8 0,-2.6 -2.1,-4.8 -4.8,-4.8 z"
   class="st1" />
	</g>
	<g
   style="fill:#e0c490;fill-opacity:1"
   id="g11659">
		<path
   style="fill:#e0c490;fill-opacity:1"
   id="path11657"
   d="m 14.4,251.3 c -3.2,0 -5.8,-2.6 -5.8,-5.8 0,-3.2 2.6,-5.8 5.8,-5.8 3.2,0 5.8,2.6 5.8,5.8 0,3.2 -2.6,5.8 -5.8,5.8 z m 0,-10.7 c -2.7,0 -4.8,2.2 -4.8,4.8 0,2.6 2.2,4.8 4.8,4.8 2.6,0 4.8,-2.2 4.8,-4.8 0,-2.6 -2.1,-4.8 -4.8,-4.8 z"
   class="st1" />
	</g>
	<g
   style="fill:#e0c490;fill-opacity:1"
   id="g11663">
		<path
   style="fill:#e0c490;fill-opacity:1"
   id="path11661"
   d="m 14.4,301.6 c -3.2,0 -5.8,-2.6 -5.8,-5.8 0,-3.2 2.6,-5.8 5.8,-5.8 3.2,0 5.8,2.6 5.8,5.8 0,3.2 -2.6,5.8 -5.8,5.8 z m 0,-10.6 c -2.7,0 -4.8,2.2 -4.8,4.8 0,2.6 2.2,4.8 4.8,4.8 2.6,0 4.8,-2.2 4.8,-4.8 0,-2.6 -2.1,-4.8 -4.8,-4.8 z"
   class="st1" />
	</g>
	<g
   style="fill:#e0c490;fill-opacity:1"
   id="g11667">
		<path
   style="fill:#e0c490;fill-opacity:1"
   id="path11665"
   d="m 43.2,175.3 c -3.2,0 -5.8,-2.6 -5.8,-5.8 0,-3.2 2.6,-5.8 5.8,-5.8 3.2,0 5.8,2.6 5.8,5.8 0,3.2 -2.6,5.8 -5.8,5.8 z m 0,-10.7 c -2.7,0 -4.8,2.2 -4.8,4.8 0,2.6 2.2,4.8 4.8,4.8 2.6,0 4.8,-2.2 4.8,-4.8 0,-2.6 -2.1,-4.8 -4.8,-4.8 z"
   class="st1" />
	</g>
	<g
   style="fill:#e0c490;fill-opacity:1"
   id="g11671">
		<path
   style="fill:#e0c490;fill-opacity:1"
   id="path11669"
   d="m 43.2,226 c -3.2,0 -5.8,-2.6 -5.8,-5.8 0,-3.2 2.6,-5.8 5.8,-5.8 3.2,0 5.8,2.6 5.8,5.8 0,3.2 -2.6,5.8 -5.8,5.8 z m 0,-10.6 c -2.7,0 -4.8,2.2 -4.8,4.8 0,2.6 2.2,4.8 4.8,4.8 2.6,0 4.8,-2.2 4.8,-4.8 0,-2.6 -2.1,-4.8 -4.8,-4.8 z"
   class="st1" />
	</g>
	<g
   style="fill:#e0c490;fill-opacity:1"
   id="g11675">
		<path
   style="fill:#e0c490;fill-opacity:1"
   id="path11673"
   d="m 43.2,276.4 c -3.2,0 -5.8,-2.6 -5.8,-5.8 0,-3.2 2.6,-5.8 5.8,-5.8 3.2,0 5.8,2.6 5.8,5.8 0,3.2 -2.6,5.8 -5.8,5.8 z m 0,-10.6 c -2.7,0 -4.8,2.2 -4.8,4.8 0,2.6 2.2,4.8 4.8,4.8 2.6,0 4.8,-2.2 4.8,-4.8 0,-2.6 -2.1,-4.8 -4.8,-4.8 z"
   class="st1" />
	</g>
	<g
   style="fill:#e0c490;fill-opacity:1"
   id="g11679">
		<path
   style="fill:#e0c490;fill-opacity:1"
   id="path11677"
   d="m 43.2,326.9 c -3.2,0 -5.8,-2.6 -5.8,-5.8 0,-3.2 2.6,-5.8 5.8,-5.8 3.2,0 5.8,2.6 5.8,5.8 0,3.2 -2.6,5.8 -5.8,5.8 z m 0,-10.7 c -2.7,0 -4.8,2.2 -4.8,4.8 0,2.6 2.2,4.8 4.8,4.8 2.6,0 4.8,-2.2 4.8,-4.8 0,-2.6 -2.1,-4.8 -4.8,-4.8 z"
   class="st1" />
	</g>
	<g
   style="fill:#e0c490;fill-opacity:1"
   id="g11709">
		<g
   style="fill:#e0c490;fill-opacity:1"
   id="g11683">
			<path
   style="fill:#e0c490;fill-opacity:1"
   id="path11681"
   d="m 45.8,22.8 c 0,-0.3 0.1,-0.5 0.1,-0.7 0.1,-0.5 0.2,-0.9 0.3,-1.4 0,0 0,0 0,-0.1 0,0 0,0 0,0 0,0 -0.1,0.1 -0.1,0.1 -0.2,0.5 -0.3,0.9 -0.5,1.4 0,0.1 -0.1,0.1 -0.1,0.2 0,0 0,0 -0.1,0 0,-0.2 0,-0.4 -0.1,-0.6 0,-0.3 -0.1,-0.6 -0.1,-0.8 0,0 0,0 0,-0.1 0,0 -0.1,0.1 -0.1,0.1 0,0.2 -0.2,0.2 -0.3,0.2 -0.1,0 -0.1,0 -0.2,0.1 -0.1,0.4 0,0.8 0.1,1.1 0,0.2 0.1,0.4 0.1,0.5 0,0.1 0,0.1 -0.1,0.1 -0.3,0 -0.6,0.1 -0.8,0.1 -0.5,0 -1.1,0 -1.6,-0.1 -0.3,0 -0.4,-0.2 -0.2,-0.5 0.1,-0.2 0.1,-0.4 0,-0.6 0,-0.1 -0.1,-0.1 -0.1,-0.1 -0.2,0 -0.4,0.2 -0.4,0.5 0,0 0,0.1 0,0.2 -0.1,-0.2 -0.1,-0.4 -0.3,-0.5 -0.1,0.1 -0.1,0.2 -0.1,0.3 0,0.1 0,0.3 0.1,0.4 -0.1,0 -0.1,0 -0.2,0 C 40.8,22.5 40.6,22.4 40.3,22.3 40.2,22.2 40.1,22.2 40.1,22 40,21.8 39.9,21.7 39.8,21.5 39.6,21.6 39.7,21.8 39.6,21.9 39.4,21.8 39.3,21.7 39.3,21.6 39.2,21.3 39.1,21 39,20.7 c 0,0 -0.1,-0.1 -0.1,-0.1 -0.1,0 -0.1,0.1 -0.1,0.1 0,0.1 0,0.2 0,0.4 0,0.1 0,0.2 0,0.3 -0.1,0 -0.1,0 -0.1,0 -0.3,-0.2 -0.7,-0.4 -1,-0.6 -0.2,-0.1 -0.3,-0.3 -0.3,-0.5 0,-0.3 0,-0.7 0,-1 0,-0.2 -0.1,-0.3 -0.3,-0.2 -0.1,0 -0.1,0 -0.1,0.1 0,0.1 0,0.2 -0.1,0.4 -0.2,-0.3 -0.1,-0.8 -0.4,-1 -0.2,0.2 -0.3,0.4 -0.2,0.6 0,0.1 0.1,0.3 0.1,0.4 0,0 0,0.1 0,0.2 -0.1,0 -0.1,-0.1 -0.1,-0.1 -0.2,-0.2 -0.4,-0.5 -0.5,-0.9 -0.1,-0.4 -0.2,-0.8 -0.3,-1.2 0,0 0,-0.1 0,-0.1 0,-0.5 -0.1,-1 -0.2,-1.5 C 35.2,15.6 35.2,15.1 35.1,14.7 35,14.1 35,13.6 34.9,13 34.8,12.1 34.6,11.2 34.5,10.3 34.4,9.8 34.3,9.2 34.3,8.7 34.2,8.2 34.2,7.8 34.1,7.3 34.1,7.1 34,6.9 34,6.7 c 0.3,0.1 0.6,0.2 0.9,0.3 0.6,0.2 1.1,0.4 1.7,0.5 0.5,0.1 1,0.2 1.5,0.3 0.2,0 0.4,0 0.6,0.1 0.1,0 0.2,0 0.2,-0.1 C 38.9,7.7 38.8,7.7 38.8,7.6 38.6,7.6 38.5,7.5 38.3,7.5 38.1,7.5 37.9,7.4 37.6,7.4 37,7.3 36.3,7.1 35.7,7 35.3,6.9 34.8,6.7 34.5,6.5 34.3,6.4 34.3,6.3 34.3,6.1 c 0.1,-0.3 0.2,-0.6 0.6,-0.7 0.2,-0.1 0.4,-0.2 0.6,-0.3 0,0 0.1,-0.1 0.1,-0.1 0,-0.1 0.1,-0.2 0.2,-0.2 0.1,-0.1 0.2,-0.1 0.3,-0.2 0.1,-0.1 0.3,-0.1 0.5,0 0.1,0 0.3,0 0.5,0 0.4,-0.1 0.7,-0.2 1.1,-0.2 0.2,0 0.4,0 0.6,0 0.6,0 1.2,-0.1 1.8,-0.1 0.6,0 1.1,-0.1 1.7,-0.1 0.9,0 1.8,0 2.6,0.1 0.5,0 1,0.1 1.4,0.2 0.4,-0.6 0.9,-0.5 1.5,-0.5 1.2,0.2 2.3,0.4 3.4,0.8 0.8,0.3 1.6,0.6 2.4,0.9 0.4,0.1 0.6,0.4 0.9,0.7 0.1,0.1 0.1,0.2 0,0.3 -0.3,0.3 -0.7,0.4 -1.1,0.5 -0.5,0.1 -1,0.3 -1.6,0.4 -0.1,0 -0.2,0 -0.3,0 -0.2,0 -0.3,0.1 -0.3,0.3 0,0.1 0,0.1 0.1,0.1 0.5,0.1 1,0 1.5,-0.2 0.5,-0.1 1,-0.3 1.5,-0.4 0,0.1 0,0.1 0,0.2 -0.2,0.9 -0.4,1.7 -0.5,2.6 -0.1,0.7 -0.2,1.4 -0.3,2.2 -0.1,0.6 -0.1,1.2 -0.2,1.8 0,0.5 -0.1,1 -0.1,1.5 0,0.1 0,0.1 0,0.2 0.1,0.4 0,0.7 -0.1,1.1 -0.1,0.6 -0.2,1.2 -0.3,1.8 0,0 0,0.1 -0.1,0.1 -0.2,0.2 -0.5,0.4 -0.7,0.6 0,0 -0.1,0 -0.2,0 0,0 0,0 -0.1,0 -0.3,0 -0.3,0 -0.3,0.3 0,0.1 -0.1,0.2 -0.2,0.3 0,0 -0.1,0 -0.1,0.1 -0.1,0.1 -0.2,0.1 -0.3,0.2 0,-0.1 0,-0.1 0,-0.2 0,-0.2 0,-0.3 0,-0.5 0,-0.1 0,-0.1 0.1,-0.2 0.1,-0.1 0.3,-0.2 0.4,-0.3 0.1,0 0.2,0 0.2,0 0.2,0 0.3,-0.1 0.2,-0.2 0,-0.2 0,-0.4 0.1,-0.5 0.2,-0.3 0.3,-0.6 0.3,-1 0,-0.4 -0.1,-0.7 -0.2,-1.1 -0.1,-0.3 -0.2,-0.6 -0.2,-0.9 0,-0.2 -0.2,-0.3 -0.3,-0.4 -0.2,-0.2 -0.5,-0.4 -0.7,-0.6 -0.1,-0.1 -0.2,-0.3 -0.1,-0.4 0,-0.1 0.1,-0.1 0.2,-0.1 0.1,0 0.2,0 0.2,-0.1 0,0 0.1,-0.1 0.2,-0.1 0.1,0 0.1,0 0.2,0 0.1,0 0.2,-0.1 0.1,-0.2 0,-0.1 0,-0.1 -0.1,-0.2 -0.1,-0.1 0,-0.2 0.1,-0.2 0.1,0 0.2,-0.1 0.3,-0.1 0.1,0 0.1,-0.1 0.2,-0.1 0,0 0,0 0,0 -0.1,0 -0.2,0 -0.3,0 -0.1,0 -0.1,-0.1 -0.1,-0.1 0,-0.1 0,-0.2 0.1,-0.2 0.1,-0.1 0.2,-0.1 0.3,-0.1 0.1,0 0.1,-0.1 0.2,-0.1 0,0 0,0 0,-0.1 -0.1,0 -0.1,0 -0.2,0 -0.1,0 -0.1,0 -0.2,0 0,0 0,0 0,0 0.1,0 0.1,0 0.2,-0.1 0.2,0 0.3,-0.2 0.3,-0.4 -0.1,0 -0.1,0 -0.2,0 -0.1,0 -0.2,0.1 -0.3,0.1 0,0 -0.1,0 -0.1,0 0,0 0,-0.1 0,-0.1 0,-0.1 0.1,-0.1 0.2,-0.2 0.1,-0.1 0.2,-0.2 0.4,-0.2 0,0 0,0 0,0 0,0 -0.1,-0.1 -0.1,-0.1 -0.1,-0.1 -0.1,-0.2 -0.2,-0.3 -0.1,-0.2 -0.1,-0.2 -0.3,-0.2 -0.1,0 -0.2,0 -0.2,-0.2 C 51.3,10.2 51.1,9.9 50.7,9.6 50.6,9.1 50.4,9 50.2,9 50.1,9 49.9,8.9 49.8,8.9 49.7,8.9 49.5,8.8 49.4,8.6 49.4,8.5 49.2,8.5 49.2,8.5 49,8.6 48.7,8.8 48.6,9 48.4,9.3 48.2,9.7 48,10.1 c -0.1,0.3 -0.3,0.6 -0.5,0.9 -0.3,0.5 -0.5,1 -0.6,1.6 -0.1,0.3 0,0.5 0.2,0.7 0.3,0.3 0.5,0.6 0.9,0.8 0.2,0.1 0.3,0.2 0.4,0.5 0,-0.1 0.1,-0.1 0.1,-0.2 0.1,0.1 0.2,0.1 0.2,0.2 0.2,-0.2 0.5,-0.3 0.8,-0.2 0,0 0.1,-0.1 0.2,-0.1 0.1,-0.1 0.1,-0.1 0.2,0 0,0.2 -0.1,0.3 -0.3,0.4 -0.6,0.5 -1.2,1 -1.7,1.6 -0.3,0.3 -0.5,0.6 -0.8,0.9 -0.3,0.3 -0.6,0.6 -0.9,0.9 -0.2,0.2 -0.3,0.5 -0.3,0.7 0,0 0,0.1 0,0.1 0.1,0.2 0.2,0.4 0.3,0.6 0.3,0.7 0.8,1.1 1.5,1.3 0.2,0.1 0.4,0 0.6,0 0.1,0 0.1,0 0.2,-0.1 0.1,-0.1 0.2,-0.1 0.3,-0.1 0.3,0 0.5,0 0.8,0 0.1,0 0.2,0 0.3,-0.2 0.1,-0.2 0.3,-0.3 0.5,-0.3 0,0.2 0,0.4 0.1,0.6 0,0 0,0.1 0,0.1 -0.3,0.3 -0.7,0.5 -1.1,0.7 0,-0.1 0,-0.2 0,-0.3 0,-0.1 0,-0.2 -0.1,-0.2 -0.1,0 -0.2,0 -0.2,0.1 -0.1,0.2 -0.2,0.4 -0.2,0.5 0,0.1 -0.1,0.2 -0.2,0.2 -0.5,0.2 -0.7,0.3 -0.9,0.2 -0.1,0 -0.1,0 -0.2,0.1 -0.1,0.1 -0.2,0.2 -0.3,0.2 -0.4,0.2 -0.8,0.3 -1.3,0.4 0,0.1 -0.1,0.1 -0.2,0.1 z M 39.1,9.7 C 39,9.8 38.8,9.9 38.7,10 c -0.2,0.1 -0.4,0.2 -0.6,0.3 -0.4,0.2 -0.6,0.5 -0.9,0.8 -0.1,0.1 -0.2,0.3 -0.4,0.4 0,0.1 0.1,0.1 0.1,0.2 0,0 0,0 0,0 -0.4,0.6 -0.7,1.1 -0.9,1.8 0,0.1 -0.1,0.1 -0.1,0.2 -0.1,0 -0.1,0.1 -0.1,0.2 0,0.1 0,0.1 0,0.2 0,0.2 0,0.4 0,0.7 0,0.3 0,0.5 0.1,0.8 0,0.3 0.1,0.6 0.1,1 0.1,0.6 0.5,1.1 0.8,1.5 0.1,0.1 0.2,0.2 0.2,0.2 0,0 0,0 0,0 -0.1,-0.2 -0.2,-0.4 -0.3,-0.6 0.1,0 0.1,0 0.2,0.1 0.3,0.3 0.6,0.7 1,1 0,0 0,0.1 0,0.1 -0.1,0 -0.1,0 -0.2,0 -0.2,-0.1 -0.3,-0.2 -0.5,-0.3 -0.1,0 -0.1,-0.1 -0.2,-0.1 0,0.1 0,0.2 0,0.3 0.2,0 0.3,0.1 0.4,0.2 0.1,0.1 0.2,0.1 0.2,0.2 0.4,0.3 0.8,0.4 1.2,0.6 0.1,0 0.1,0.1 0.2,0.1 0,0 0,0 0,0 0,0 -0.1,0 -0.1,0 -0.2,0 -0.4,0 -0.5,-0.1 -0.1,0 -0.2,0 -0.3,0 -0.1,0 -0.1,0.1 -0.1,0.1 0,0 0,0.1 0.1,0.1 0.1,0.1 0.3,0.1 0.4,0.2 0.3,0.1 0.6,0.1 0.9,0.1 0.6,0.1 1.2,0 1.7,-0.2 0.5,-0.2 0.9,-0.5 1.2,-0.8 0.2,-0.2 0.4,-0.4 0.7,-0.5 0.2,-0.1 0.4,-0.3 0.5,-0.4 0.1,-0.1 0.1,-0.2 0.2,-0.2 0.3,-0.4 0.6,-0.7 0.7,-1.2 0,-0.1 0.1,-0.2 0.2,-0.2 0.1,0 0.1,-0.1 0.1,-0.2 C 44.6,16.4 44.5,16.2 44.4,16.1 44,15.6 43.7,15.2 43.3,14.7 42.8,14.1 42.4,13.4 41.8,12.8 41.5,12.5 41.2,12.3 41,11.9 40.7,11.5 40.4,11.2 40.1,10.8 39.9,10.6 39.7,10.4 39.5,10.2 39.3,9.9 39.2,9.8 39.1,9.7 Z m 4.3,0.1 C 43.2,9.5 43.1,9.2 42.9,9 42.7,8.7 42.5,8.4 42.4,8 c 0,-0.1 -0.1,-0.2 -0.2,-0.2 -0.1,0 -0.1,0 -0.2,0 0,0 -0.1,0 -0.1,0 C 41.7,7.7 41.5,7.7 41.3,7.8 41.2,7.9 41.1,8 41.1,8 41,8 40.9,8.1 40.9,8.2 c -0.1,0.3 -0.3,0.6 -0.1,0.9 0.1,0.3 0.3,0.5 0.5,0.8 0.1,0.2 0.2,0.3 0.4,0.4 0.2,0.1 0.4,0.1 0.5,0.2 0.1,0 0.1,0 0.2,0 0.2,-0.1 0.5,-0.2 0.7,-0.2 0,0 0.1,-0.1 0.1,-0.1 -0.1,-0.2 0,-0.3 0.2,-0.4 -0.1,0 0,0 0,0 z m -0.7,10.6 c 0,0.3 0,0.5 0.3,0.7 0.2,0.1 0.3,0.2 0.5,0.3 0.1,0 0.2,0 0.2,0 0.2,-0.1 0.4,-0.2 0.5,-0.3 0.2,-0.1 0.2,-0.2 0.1,-0.4 -0.3,-0.4 -0.6,-0.9 -0.9,-1.3 -0.1,-0.1 -0.1,-0.2 -0.2,-0.2 -0.1,-0.1 -0.2,0 -0.2,0.1 0,0 0,0.1 0,0.1 0,0.1 0,0.2 -0.1,0.3 -0.2,0.1 -0.2,0.4 -0.2,0.7 z m 4.4,-6.6 c 0,-0.1 0,-0.2 -0.1,-0.3 -0.1,-0.2 -0.3,-0.3 -0.4,-0.5 -0.2,-0.3 -0.4,-0.3 -0.5,0.1 -0.1,0.2 -0.2,0.3 -0.3,0.4 -0.1,0.1 -0.2,0.3 -0.3,0.4 -0.1,0.1 0,0.2 0.1,0.2 0.1,0 0.2,0.1 0.2,0.3 0,0.1 0,0.1 0,0.2 0,0.1 0.1,0.2 0.2,0.2 0.3,0.1 0.7,0 0.8,-0.3 0.1,-0.2 0.2,-0.3 0.4,-0.4 0.1,0 0.1,-0.2 0,-0.2 -0.1,0.1 -0.1,0.1 -0.1,-0.1 z m -2.5,-2.3 c 0.3,0 0.5,-0.1 0.5,-0.3 0,-0.1 0,-0.2 0,-0.3 -0.2,-0.4 -0.5,-0.8 -0.8,-1.2 0,-0.1 -0.1,-0.1 -0.2,-0.2 -0.1,0 -0.1,0 -0.2,0.1 -0.3,0.4 -0.4,0.9 -0.4,1.4 0,0.2 0,0.3 0.3,0.4 0.3,0 0.6,0 0.8,0.1 z m 0,3.4 c -0.1,0.3 0.1,0.5 0.3,0.7 0,0 0,0 0,0 0.1,0.1 0.3,0.2 0.4,0.3 0.2,0.1 0.4,0.1 0.6,0.1 0.2,0 0.2,-0.1 0.2,-0.2 0,-0.2 -0.1,-0.3 -0.3,-0.5 -0.2,-0.3 -0.5,-0.5 -0.7,-0.8 0,-0.1 -0.1,-0.1 -0.1,-0.1 0,0 -0.1,0 -0.2,0 -0.1,0 -0.3,0.2 -0.2,0.5 z m 1.3,-6.8 c 0,0 0,0 0,0 0.2,0 0.4,0 0.5,0 0.1,0 0.1,-0.1 0.1,-0.1 0,0 -0.1,-0.1 -0.1,-0.1 0,0 -0.1,0 -0.1,0 -0.3,0 -0.5,-0.1 -0.8,-0.1 -0.1,0 -0.3,0 -0.4,0 -0.3,0 -0.6,-0.1 -0.9,-0.1 -0.4,0 -0.7,0 -1.1,0 -0.1,0 -0.2,0 -0.2,0.1 0,0.1 0.1,0.1 0.2,0.1 0.4,0 0.8,0.1 1.3,0.1 0.6,0.1 1,0.1 1.5,0.1 z m 2.9,0.1 c 0,0 0,0 0,0 0.1,0 0.3,0 0.4,0 0.2,0 0.4,-0.1 0.6,-0.1 0,0 0.1,-0.1 0.1,-0.1 0,0 -0.1,-0.1 -0.1,-0.1 -0.2,0 -0.4,0 -0.6,0 -0.3,0 -0.6,0 -0.9,0.1 -0.1,0 -0.1,0 -0.1,0.1 0,0.1 0.1,0.1 0.2,0.1 0.1,0 0.3,0 0.4,0 z M 40.9,7.7 C 40.8,7.5 40.8,7.5 40.6,7.5 c -0.1,0 -0.3,0 -0.4,0 -0.1,0 -0.2,-0.1 -0.4,-0.1 0,0 -0.1,0 -0.2,0.1 0,0.1 0,0.1 0.1,0.2 0,0 0.1,0 0.1,0 0.4,0 0.8,0 1.1,0 z"
   class="st1" />
		</g>
		<g
   style="fill:#e0c490;fill-opacity:1"
   id="g11687">
			<path
   style="fill:#e0c490;fill-opacity:1"
   id="path11685"
   d="m 38,23 c 0.2,0 0.4,-0.1 0.3,-0.4 0.1,0 0.1,0 0.1,0 0.3,0.1 0.6,0.3 0.7,0.6 0.1,0.2 0.2,0.4 0.3,0.7 0,0.1 0.1,0.1 0.1,0.1 0.1,0.1 0.2,0 0.2,-0.1 0,-0.1 0,-0.3 0,-0.4 0,-0.1 -0.1,-0.2 -0.1,-0.3 0.1,0 0.1,0.1 0.1,0.1 0.1,0.3 0.3,0.5 0.4,0.8 0,0 0,0.1 0.1,0.1 0.1,0 0.1,0 0.2,0 0,0 0.1,-0.1 0.1,-0.1 0,-0.1 0,-0.2 0,-0.3 0,-0.1 -0.1,-0.2 -0.1,-0.3 0.2,0 0.4,0.1 0.7,0.1 0.4,0.1 0.4,0.1 0.4,0.5 0,0.2 0,0.4 -0.1,0.5 0,0.2 0,0.2 0.2,0.3 0.1,0 0.1,0.1 0.2,0.1 0.2,0.1 0.2,0.1 0.3,-0.1 0,0 0,0 0,0 0.1,0 0.2,0.1 0.3,0.1 0.1,0 0.2,0 0.2,-0.2 0,-0.1 0,-0.3 -0.1,-0.4 -0.1,-0.2 -0.2,-0.4 -0.3,-0.6 0,0 0,0 0,0 0.1,0 0.2,0 0.3,0 0.7,0.1 1.4,0.2 2.1,0.3 0.1,0 0.2,0.1 0.1,0.2 -0.1,0.2 -0.2,0.5 -0.2,0.7 0,0.1 0,0.2 0.1,0.2 0.1,0 0.2,0 0.2,-0.1 0,0 0.1,-0.1 0.1,-0.1 0.1,-0.1 0.2,-0.2 0.3,-0.2 0.3,0 0.3,0 0.3,-0.3 0,-0.1 0,-0.2 0,-0.3 0,-0.1 0.1,-0.2 0.2,-0.2 0.5,-0.2 1.1,-0.3 1.6,-0.5 0.1,0 0.1,0 0.2,0.1 0,0.2 0,0.5 0,0.7 0,0.1 0.1,0.2 0.2,0.3 0.1,0 0.2,-0.1 0.3,-0.2 0,-0.2 0,-0.5 0.1,-0.7 0,-0.1 0,-0.2 0,-0.3 0,0 0,0 0,0 0,0.1 0,0.2 0.1,0.3 0,0.2 0.2,0.3 0.3,0.2 0.2,-0.1 0.3,-0.2 0.3,-0.5 0,0 0,0 0,0 0,-0.3 0.1,-0.5 0.3,-0.6 0.3,-0.1 0.5,-0.2 0.8,-0.4 0.1,-0.1 0.2,-0.1 0.3,-0.2 0.1,0 0.1,-0.1 0.2,-0.1 0,0.1 0,0.1 0.1,0.2 0,0 0.1,0.1 0.1,0.1 0,0 0.1,0 0.1,-0.1 0,0 0.1,-0.1 0.1,-0.2 0,-0.1 0.1,-0.1 0.2,0 0,0.1 0.1,0.2 0.1,0.3 0,0 0,0.1 -0.1,0.1 -0.9,0.9 -1.9,1.6 -3.1,2.1 -0.2,0.1 -0.5,0.3 -0.7,0.4 -0.6,0.3 -1.2,0.7 -1.9,0.8 -0.5,0.1 -1,0.1 -1.4,0 -0.7,0 -1.4,-0.1 -2.1,-0.3 -0.2,-0.1 -0.4,-0.2 -0.7,-0.2 -1,-0.3 -1.7,-1 -2.4,-1.6 -0.2,-0.2 -0.4,-0.4 -0.6,-0.6 0,0.1 0,0 -0.1,-0.1 z"
   class="st1" />
		</g>
		<g
   style="fill:#e0c490;fill-opacity:1"
   id="g11691">
			<path
   style="fill:#e0c490;fill-opacity:1"
   id="path11689"
   d="M 52.4,20.4 C 52.2,21 52,21.5 51.6,22 c -0.1,-0.3 -0.1,-0.5 0,-0.7 0.2,-0.3 0.3,-0.6 0.5,-0.8 0.1,-0.1 0.2,-0.1 0.3,-0.1 0,0 0,0 0,0 z"
   class="st1" />
		</g>
		<g
   style="fill:#e0c490;fill-opacity:1"
   id="g11695">
			<path
   style="fill:#e0c490;fill-opacity:1"
   id="path11693"
   d="m 41.4,12.8 c -0.4,-0.3 -0.8,-0.7 -1.1,-1.2 0,0 0,0 0,0 0,0 0.1,0 0.1,0.1 0.3,0.3 0.6,0.6 0.9,1 0.1,-0.1 0.1,0 0.1,0.1 0,0 0,0 0,0 z"
   class="st1" />
		</g>
		<g
   style="fill:#e0c490;fill-opacity:1"
   id="g11699">
			<path
   style="fill:#e0c490;fill-opacity:1"
   id="path11697"
   d="m 38.9,10.1 c -0.2,0.1 -0.4,0.2 -0.6,0.2 0.1,-0.1 0.3,-0.3 0.6,-0.2 z"
   class="st1" />
		</g>
		<g
   style="fill:#e0c490;fill-opacity:1"
   id="g11703">
			<path
   style="fill:#e0c490;fill-opacity:1"
   id="path11701"
   d="m 41.3,19.7 c -0.2,0.1 -0.4,0.1 -0.6,0.2 0,0 0,0 0,-0.1 0.2,0 0.4,-0.1 0.6,-0.1 0,0 0,0 0,0 z"
   class="st1" />
		</g>
		<g
   style="fill:#e0c490;fill-opacity:1"
   id="g11707">
			<path
   style="fill:#e0c490;fill-opacity:1"
   id="path11705"
   d="m 39.6,20 c -0.2,0.1 -0.2,0.1 -0.4,0 0.2,0 0.3,0 0.4,0 z"
   class="st1" />
		</g>
	</g>
	<g
   style="fill:#e0c490;fill-opacity:1"
   id="g11727">
		<g
   style="fill:#e0c490;fill-opacity:1"
   id="g11713">
			<path
   style="fill:#e0c490;fill-opacity:1"
   id="path11711"
   d="m 4.1,18.9 c 0.4,0 1,0 1.5,0.3 0.4,0.2 0.7,0.7 0.7,1.3 0,0.9 -0.6,1.6 -1.5,1.7 l 1.9,2.7 H 5.8 L 4,22.3 H 3.8 v 2.6 H 3.1 v -6 z M 3.8,21.7 H 4.2 C 5,21.7 5.5,21.3 5.5,20.6 5.5,20.3 5.4,19.9 5,19.7 4.7,19.5 4.4,19.5 4.1,19.5 H 3.8 Z"
   class="st1" />
		</g>
		<g
   style="fill:#e0c490;fill-opacity:1"
   id="g11717">
			<path
   style="fill:#e0c490;fill-opacity:1"
   id="path11715"
   d="M 10.9,23.2 H 8.4 L 7.7,24.9 H 6.9 l 2.8,-6.3 2.7,6.3 h -0.7 z m -0.2,-0.6 -1,-2.4 -1,2.4 z"
   class="st1" />
		</g>
		<g
   style="fill:#e0c490;fill-opacity:1"
   id="g11721">
			<path
   style="fill:#e0c490;fill-opacity:1"
   id="path11719"
   d="m 14.3,19.5 v 5.4 h -0.7 v -5.4 h -1.5 v -0.6 h 3.6 v 0.6 z"
   class="st1" />
		</g>
		<g
   style="fill:#e0c490;fill-opacity:1"
   id="g11725">
			<path
   style="fill:#e0c490;fill-opacity:1"
   id="path11723"
   d="m 19.8,19.5 h -2.4 v 1.8 h 2.4 v 0.6 h -2.4 v 2.3 h 2.4 v 0.6 h -3.1 v -6 h 3.1 z"
   class="st1" />
		</g>
	</g>
	<g
   style="fill:#e0c490;fill-opacity:1"
   id="g11737">
		<g
   style="fill:#e0c490;fill-opacity:1"
   id="g11731">
			<path
   style="fill:#e0c490;fill-opacity:1"
   id="path11729"
   d="m 48.2,112.4 c -0.2,-0.2 -0.5,-0.4 -0.8,-0.6 -0.3,-0.1 -0.7,-0.2 -1,-0.2 -1.4,0 -2.4,1.1 -2.4,2.5 0,1.6 1.3,2.4 2.4,2.4 0.4,0 0.8,-0.1 1.1,-0.3 0.3,-0.2 0.6,-0.4 0.7,-0.5 v 0.8 c -0.7,0.5 -1.4,0.6 -1.8,0.6 -1.8,0 -3.1,-1.4 -3.1,-3.1 0,-1.8 1.3,-3.1 3.1,-3.1 0.4,0 1.1,0 1.8,0.6 z"
   class="st1" />
		</g>
		<g
   style="fill:#e0c490;fill-opacity:1"
   id="g11735">
			<path
   style="fill:#e0c490;fill-opacity:1"
   id="path11733"
   d="m 49.4,111.1 1.7,4.6 1.7,-4.6 h 0.7 l -2.4,6.4 -2.4,-6.4 z"
   class="st1" />
		</g>
	</g>
	<g
   style="fill:#e0c490;fill-opacity:1"
   id="g11741">
		<path
   style="fill:#e0c490;fill-opacity:1"
   id="path11739"
   d="m 20.4,116.4 c -0.9,0 -1.8,0 -2.8,0 -1,0 -2,0 -3.1,0 v -1 c 1.1,0 2.1,0 3.1,0 10.1,0 16.8,0.1 20.7,-3.8 3,-3 4.3,-8.3 4.3,-17.3 h 1 c 0,9.3 -1.4,14.8 -4.6,18 -3.8,3.7 -9.8,4.1 -18.6,4.1 z"
   class="st1" />
	</g>
	<g
   style="fill:#e0c490;fill-opacity:1"
   id="g11745">
		<path
   style="fill:#e0c490;fill-opacity:1"
   id="path11743"
   d="m 28.8,75.7 c -13.6,0 -24.6,-11 -24.6,-24.6 0,-13.6 11,-24.6 24.6,-24.6 13.6,0 24.6,11 24.6,24.6 0,13.5 -11,24.6 -24.6,24.6 z m 0,-47.3 C 16.3,28.4 6.2,38.5 6.2,51 6.2,63.5 16.3,73.6 28.8,73.6 41.3,73.6 51.4,63.5 51.4,51 51.4,38.6 41.3,28.4 28.8,28.4 Z"
   class="st1" />
	</g>
	<g
   style="fill:#e0c490;fill-opacity:1"
   id="g11749">
		<path
   style="fill:#e0c490;fill-opacity:1"
   id="path11747"
   d="m 13.5,115.9 c 0,-2.6 0,-5 0,-7.2 -0.1,-18.8 -0.1,-25.2 3.8,-36.8 l 1.9,0.6 c -3.8,11.3 -3.8,17.6 -3.7,36.2 0,2.2 0,4.6 0,7.2 z"
   class="st1" />
	</g>
	<g
   style="fill:#e0c490;fill-opacity:1"
   id="g11755">
		<g
   style="fill:#e0c490;fill-opacity:1"
   id="g11753">
			<path
   style="fill:#e0c490;fill-opacity:1"
   id="path11751"
   d="m 19.5,101.8 h 2.4 v -2.2 h 0.9 v 2.2 h 2.4 v 0.9 h -2.4 v 2.2 h -0.9 v -2.2 h -2.4 z"
   class="st1" />
		</g>
	</g>
	<g
   style="fill:#e0c490;fill-opacity:1"
   id="g11761">
		<g
   style="fill:#e0c490;fill-opacity:1"
   id="g11759">
			<path
   style="fill:#e0c490;fill-opacity:1"
   id="path11757"
   d="m 3.6,102.1 h 5.7 v 0.8 H 3.6 Z"
   class="st1" />
		</g>
	</g>
	<g
   style="fill:#e0c490;fill-opacity:1"
   id="g11767">
		<g
   style="fill:#e0c490;fill-opacity:1"
   id="g11765">
			<rect
   x="0"
   style="fill:#e0c490;fill-opacity:1"
   id="rect11763"
   height="3"
   width="57.599998"
   class="st1"
   y="344" />
		</g>
	</g>
	<g
   style="fill:#e0c490;fill-opacity:1"
   id="g11785">
		<g
   style="fill:#e0c490;fill-opacity:1"
   id="g11771">
			<path
   style="fill:#e0c490;fill-opacity:1"
   id="path11769"
   d="m 35.5,354.7 c 0.3,0.3 0.6,0.9 0.6,1.8 0,1.7 -1.3,2.9 -3,2.9 -0.9,0 -1.5,-0.3 -1.8,-0.6 l -0.8,0.8 -0.6,-0.6 0.8,-0.8 c -0.2,-0.3 -0.5,-0.8 -0.5,-1.8 0,-1.7 1.3,-3 3,-3 0.9,0 1.5,0.3 1.8,0.5 l 0.8,-0.8 0.6,0.6 z m -1.3,0.1 c -0.3,-0.2 -0.7,-0.3 -1.1,-0.3 -1,0 -2,0.7 -2,2.1 0,0.5 0.1,0.8 0.3,1.1 z m -2.2,3.5 c 0.3,0.2 0.6,0.4 1.1,0.4 1,0 2,-0.7 2,-2.1 0,-0.5 -0.1,-0.8 -0.3,-1.2 z"
   class="st1" />
		</g>
		<g
   style="fill:#e0c490;fill-opacity:1"
   id="g11775">
			<path
   style="fill:#e0c490;fill-opacity:1"
   id="path11773"
   d="m 42,355.3 c -0.5,-0.6 -1.3,-0.8 -1.8,-0.8 -1,0 -2,0.7 -2,2.1 0,1.4 1,2.1 2,2.1 0.6,0 1.3,-0.3 1.8,-0.9 v 1.2 c -0.6,0.4 -1.3,0.6 -1.8,0.6 -1.7,0 -3,-1.2 -3,-2.9 0,-1.7 1.3,-3 3,-3 0.9,0 1.5,0.4 1.7,0.5 v 1.1 z"
   class="st1" />
		</g>
		<g
   style="fill:#e0c490;fill-opacity:1"
   id="g11779">
			<path
   style="fill:#e0c490;fill-opacity:1"
   id="path11777"
   d="m 43.5,349.5 h 1 v 4.9 c 0.2,-0.2 0.7,-0.8 1.6,-0.8 0.7,0 1.3,0.3 1.6,0.8 0.3,0.4 0.3,0.9 0.3,1.5 v 3.5 H 47 V 356 c 0,-0.3 0,-0.7 -0.3,-1 -0.2,-0.2 -0.5,-0.4 -0.9,-0.4 -0.3,0 -0.7,0.1 -1,0.4 -0.4,0.4 -0.4,1.1 -0.4,1.5 v 2.9 h -1 v -9.9 z"
   class="st1" />
		</g>
		<g
   style="fill:#e0c490;fill-opacity:1"
   id="g11783">
			<path
   style="fill:#e0c490;fill-opacity:1"
   id="path11781"
   d="m 54.2,349.5 h 1 v 9.9 h -1 v -0.8 c -0.3,0.4 -0.9,0.9 -1.9,0.9 -1.4,0 -2.7,-1 -2.7,-3 0,-1.9 1.3,-2.9 2.7,-2.9 1.1,0 1.7,0.6 1.9,0.9 z m -3.7,7 c 0,1.2 0.7,2.1 1.8,2.1 1.2,0 1.9,-1 1.9,-2.1 0,-1.4 -1,-2.1 -1.9,-2.1 -0.9,0.1 -1.8,0.8 -1.8,2.1 z"
   class="st1" />
		</g>
	</g>
</g>
</svg>
