<?xml version="1.0" encoding="UTF-8" standalone="no"?>
<svg
   xmlns:dc="http://purl.org/dc/elements/1.1/"
   xmlns:cc="http://creativecommons.org/ns#"
   xmlns:rdf="http://www.w3.org/1999/02/22-rdf-syntax-ns#"
   xmlns:svg="http://www.w3.org/2000/svg"
   xmlns="http://www.w3.org/2000/svg"
   xmlns:sodipodi="http://sodipodi.sourceforge.net/DTD/sodipodi-0.dtd"
   xmlns:inkscape="http://www.inkscape.org/namespaces/inkscape"
   inkscape:version="1.0 (4035a4f, 2020-05-01)"
   height="14.465mm"
   width="14.465mm"
   sodipodi:docname="Wee Knob (inscape render)V3.svg"
   xml:space="preserve"
   viewBox="0 0 54.670863 54.670863"
   y="0px"
   x="0px"
   id="Layer_1"
   version="1.1"><metadata
   id="metadata2420"><rdf:RDF><cc:Work
       rdf:about=""><dc:format>image/svg+xml</dc:format><dc:type
         rdf:resource="http://purl.org/dc/dcmitype/StillImage" /><dc:title></dc:title></cc:Work></rdf:RDF></metadata><defs
   id="defs2418" /><sodipodi:namedview
   inkscape:current-layer="Layer_1"
   inkscape:window-maximized="0"
   inkscape:window-y="23"
   inkscape:window-x="0"
   inkscape:cy="29.143267"
   inkscape:cx="11.709441"
   inkscape:zoom="9.0855945"
   units="mm"
   inkscape:document-units="mm"
   showgrid="false"
   id="namedview2416"
   inkscape:window-height="849"
   inkscape:window-width="1440"
   inkscape:pageshadow="2"
   inkscape:pageopacity="0"
   guidetolerance="10"
   gridtolerance="10"
   objecttolerance="10"
   borderopacity="1"
   bordercolor="#666666"
   pagecolor="#ffffff"
   inkscape:document-rotation="0" />
<style
   id="style2393"
   type="text/css">
	.st0{fill:#5A5A5C;}
	.st1{fill:#FFFFFF;}
	.st2{fill:#231E21;}
	.st3{fill:#D1D2D4;}
</style>
<path
   class="st0"
   d="M 54.137487,27.33543 A 26.802057,26.802057 0 0 1 27.33543,54.137487 26.802057,26.802057 0 0 1 0.53337288,27.33543 26.802057,26.802057 0 0 1 27.33543,0.53337288 26.802057,26.802057 0 0 1 54.137487,27.33543"
   style="fill:#5a5a5c;stroke-width:1.33343"
   id="circle2395" />

<path
   class="st2"
   d="M 51.023618,27.401572 A 23.622045,23.622046 0 0 1 27.401572,51.023617 23.622045,23.622046 0 0 1 3.7795272,27.401572 23.622045,23.622046 0 0 1 27.401572,3.7795272 23.622045,23.622046 0 0 1 51.023618,27.401572"
   style="fill:#231e21;stroke-width:1.45814"
   id="circle2399" />



<path
   class="st3"
   d="M 44.403406,27.33543 A 17.067976,17.067976 0 0 1 27.33543,44.403406 17.067976,17.067976 0 0 1 10.267454,27.33543 17.067976,17.067976 0 0 1 27.33543,10.267454 17.067976,17.067976 0 0 1 44.403406,27.33543"
   style="fill:#d1d2d4;stroke-width:1.33343"
   id="circle2407" />

<g
   style="fill:#231e21;fill-opacity:1"
   transform="matrix(1.3334356,0,0,1.3334356,-1.0667485,-1.3334356)"
   id="g2413">
	<path
   class="st2"
   d="M 20.6,8.1000004 H 22 V 21.6 h -1.4 z"
   style="fill:#231e21;fill-opacity:1"
   id="rect2411" />
</g>
</svg>
