<?xml version="1.0" encoding="UTF-8" standalone="no"?>
<svg
   xmlns:dc="http://purl.org/dc/elements/1.1/"
   xmlns:cc="http://creativecommons.org/ns#"
   xmlns:rdf="http://www.w3.org/1999/02/22-rdf-syntax-ns#"
   xmlns:svg="http://www.w3.org/2000/svg"
   xmlns="http://www.w3.org/2000/svg"
   xmlns:sodipodi="http://sodipodi.sourceforge.net/DTD/sodipodi-0.dtd"
   xmlns:inkscape="http://www.inkscape.org/namespaces/inkscape"
   inkscape:version="1.0 (4035a4f, 2020-05-01)"
   height="128.5mm"
   width="60.959999mm"
   sodipodi:docname="saich (Inkscape Render) V5.svg"
   id="svg11489"
   version="1.1"
   viewBox="0 0 230.39999 485.66928">
  <metadata
     id="metadata11495">
    <rdf:RDF>
      <cc:Work
         rdf:about="">
        <dc:format>image/svg+xml</dc:format>
        <dc:type
           rdf:resource="http://purl.org/dc/dcmitype/StillImage" />
        <dc:title></dc:title>
      </cc:Work>
    </rdf:RDF>
  </metadata>
  <defs
     id="defs11493" />
  <sodipodi:namedview
     inkscape:current-layer="svg11489"
     inkscape:window-maximized="0"
     inkscape:window-y="23"
     inkscape:window-x="0"
     inkscape:cy="257.25758"
     inkscape:cx="64.706182"
     inkscape:zoom="0.9387622"
     units="mm"
     inkscape:document-units="mm"
     showgrid="false"
     id="namedview11491"
     inkscape:window-height="855"
     inkscape:window-width="1440"
     inkscape:pageshadow="2"
     inkscape:pageopacity="0"
     guidetolerance="10"
     gridtolerance="10"
     objecttolerance="10"
     borderopacity="1"
     bordercolor="#666666"
     pagecolor="#ffffff" />
  <g
     style="fill:#1f1f1f;fill-opacity:1"
     transform="scale(1.3333333)"
     id="STOP">
    <path
       d="M 0,0 V 364.25 H 172.8 V 0 Z m 53.77,61.42 a 3.35,3.35 0 0 1 -3.34,3.35 h -8 a 3.35,3.35 0 0 1 -3.34,-3.35 v -0.31 a 3.35,3.35 0 0 1 3.34,-3.35 h 8 a 3.35,3.35 0 0 1 3.34,3.35 z M 57.07,53 a 3.35,3.35 0 0 1 -3.35,3.34 h -8 A 3.35,3.35 0 0 1 42.39,53 v -0.31 a 3.36,3.36 0 0 1 3.35,-3.35 h 8 a 3.36,3.36 0 0 1 3.35,3.35 z m 4,-8.46 a 3.35,3.35 0 0 1 -3.34,3.35 h -8 A 3.36,3.36 0 0 1 46.38,44.54 V 44.2 a 3.36,3.36 0 0 1 3.35,-3.35 h 8 a 3.35,3.35 0 0 1 3.34,3.35 z m 5.27,-8.45 A 3.35,3.35 0 0 1 63,39.4 H 55 A 3.35,3.35 0 0 1 51.65,36.06 V 35.75 A 3.36,3.36 0 0 1 55,32.4 h 8 a 3.36,3.36 0 0 1 3.35,3.35 z"
       style="fill:#1f1f1f;fill-opacity:1"
       id="path11220" />
  </g>
  <g
     style="fill:#e0c490;fill-opacity:1"
     transform="scale(1.3333333)"
     id="COPPER">
    <rect
       y="344.03"
       width="57.84"
       height="3"
       style="fill:#e0c490;fill-opacity:1"
       id="rect11223"
       x="0" />
    <rect
       x="112.72"
       y="344.03"
       width="60.080002"
       height="3"
       style="fill:#e0c490;fill-opacity:1"
       id="rect11225" />
    <path
       d="m 67.68,351.09 a 1.56,1.56 0 0 0 -1.43,-1 1.14,1.14 0 0 0 -1.25,1.12 c 0,0.74 0.5,1 1.66,1.46 a 6.15,6.15 0 0 1 2.57,1.58 2.43,2.43 0 0 1 0.54,1.65 3.26,3.26 0 0 1 -3.53,3.36 3.66,3.66 0 0 1 -3.58,-2.62 L 64.2,356 a 2.33,2.33 0 0 0 2.07,1.68 1.59,1.59 0 0 0 1.73,-1.63 c 0,-1 -0.69,-1.29 -1.65,-1.71 a 6.61,6.61 0 0 1 -2.5,-1.5 2.27,2.27 0 0 1 -0.47,-1.51 2.75,2.75 0 0 1 3,-2.86 3,3 0 0 1 2.82,1.85 z"
       style="fill:#e0c490;fill-opacity:1"
       id="path11227" />
    <path
       d="m 80,348.71 h 1.78 V 359 H 80 v -1.43 a 4.32,4.32 0 0 1 -3.5,1.73 c -2.6,0 -5,-1.83 -5,-5.43 0,-3.6 2.37,-5.36 5,-5.36 a 4.23,4.23 0 0 1 3.5,1.7 z m -6.66,5.12 c 0,2.19 1.23,3.85 3.35,3.85 2.12,0 3.41,-1.8 3.41,-3.83 a 3.47,3.47 0 0 0 -3.41,-3.8 c -1.75,0 -3.35,1.28 -3.35,3.78 z"
       style="fill:#e0c490;fill-opacity:1"
       id="path11229" />
    <path
       d="m 83.88,344.15 a 1.24,1.24 0 1 1 -1.23,1.23 1.26,1.26 0 0 1 1.23,-1.23 z m 3,4.56 V 359 h -1.74 v -10.29 z m 1.26,-4.56 a 1.24,1.24 0 1 1 -1.24,1.23 1.26,1.26 0 0 1 1.28,-1.23 z"
       style="fill:#e0c490;fill-opacity:1"
       id="path11231" />
    <path
       d="m 98.3,351.58 a 4.12,4.12 0 0 0 -3.21,-1.53 3.82,3.82 0 0 0 0,7.63 4.33,4.33 0 0 0 3.3,-1.61 v 2.13 a 5.48,5.48 0 0 1 -3.25,1.06 5.4,5.4 0 1 1 0,-10.79 5.36,5.36 0 0 1 3.18,1 z"
       style="fill:#e0c490;fill-opacity:1"
       id="path11233" />
    <path
       d="m 101.09,341 h 1.78 v 8.94 a 3.61,3.61 0 0 1 2.94,-1.43 3.47,3.47 0 0 1 2.94,1.41 4.54,4.54 0 0 1 0.59,2.74 V 359 h -1.78 v -6.29 a 3,3 0 0 0 -0.47,-1.88 2,2 0 0 0 -1.68,-0.74 2.24,2.24 0 0 0 -1.8,0.79 4.3,4.3 0 0 0 -0.74,2.76 V 359 h -1.78 z"
       style="fill:#e0c490;fill-opacity:1"
       id="path11235" />
    <path
       d="m 158.68,153.88 a 21.58,21.58 0 0 0 -7.34,-15 c -8.81,-8.19 -9,-10 -9.49,-15.28 v -0.13 c -0.19,-2 -0.65,-6.69 5.55,-14.38 l 0.73,-0.8 A 49.43,49.43 0 1 0 99.28,125 l 4.13,0.73 a 18.9,18.9 0 0 1 13.5,16.88 18.63,18.63 0 0 1 -0.42,5.29 l -0.71,2.44 a 21.46,21.46 0 0 0 -0.5,6.24 21.742889,21.742889 0 1 0 43.4,-2.73 z m -40.38,2.54 a 18.53,18.53 0 0 1 0.42,-5.28 l 0.71,-2.46 a 21.87,21.87 0 0 0 -15.27,-25.86 l -4.27,-0.76 a 46.63,46.63 0 1 1 45.94,-15.72 l -0.74,0.82 c -7,8.7 -6.48,14.47 -6.27,16.64 v 0.13 c 0.59,6.25 1.22,8.63 10.48,17.24 a 18.71,18.71 0 1 1 -31,15.25 z"
       style="fill:#e0c490;fill-opacity:1"
       id="path11237" />
    <path
       d="m 50,20.35 v -17 L 62.68,16.68 V 4 h 1.81 V 21.08 L 51.76,7.74 v 12.61 z"
       style="fill:#e0c490;fill-opacity:1"
       id="path11239" />
    <path
       d="m 76,7.15 a 3.82,3.82 0 0 0 -1,-1.22 2.92,2.92 0 0 0 -1.84,-0.57 2.51,2.51 0 0 0 -2.74,2.52 1.7,1.7 0 0 0 0.61,1.42 5.4,5.4 0 0 0 1.72,1 l 1.56,0.69 a 7.77,7.77 0 0 1 2.53,1.54 3.93,3.93 0 0 1 1.17,3 5.24,5.24 0 0 1 -8.71,3.7 5.93,5.93 0 0 1 -1.52,-2.89 l 1.76,-0.49 a 3.86,3.86 0 0 0 1,2.08 3.13,3.13 0 0 0 2.35,0.91 3.1,3.1 0 0 0 3.28,-3.24 2.41,2.41 0 0 0 -0.81,-1.9 6.75,6.75 0 0 0 -2,-1.13 L 72,11.87 A 7,7 0 0 1 69.82,10.53 3.41,3.41 0 0 1 68.69,7.86 c 0,-2.52 1.94,-4.21 4.58,-4.21 a 4.5,4.5 0 0 1 2.62,0.73 5.07,5.07 0 0 1 1.55,1.82 z"
       style="fill:#e0c490;fill-opacity:1"
       id="path11241" />
    <path
       d="M 84.36,5.74 V 20.35 H 82.55 V 5.74 h -4 V 4 h 9.74 v 1.74 z"
       style="fill:#e0c490;fill-opacity:1"
       id="path11243" />
    <path
       d="m 93.4,4 a 7.16,7.16 0 0 1 4,0.91 4.25,4.25 0 0 1 1.79,3.62 4.3,4.3 0 0 1 -4.19,4.53 l 5.18,7.29 H 98 L 93,13.2 h -0.46 v 7.15 H 90.78 V 4 Z m -0.81,7.57 h 1.15 c 2.25,0 3.6,-1.08 3.6,-3 A 2.55,2.55 0 0 0 96,6.2 4.74,4.74 0 0 0 93.65,5.74 h -1.1 z"
       style="fill:#e0c490;fill-opacity:1"
       id="path11245" />
    <path
       d="m 104.87,14 c 0,1.37 0,2.86 1.3,4 a 4.37,4.37 0 0 0 5.39,0 c 1.29,-1.1 1.29,-2.59 1.29,-4 V 4 h 1.81 v 10.5 a 6.3,6.3 0 0 1 -1,3.92 6.28,6.28 0 0 1 -9.55,0 6.31,6.31 0 0 1 -1,-3.92 V 4 h 1.81 z"
       style="fill:#e0c490;fill-opacity:1"
       id="path11247" />
    <path
       d="m 123,7.9 a 6.32,6.32 0 0 0 -6.43,6.59 6.44,6.44 0 1 0 12.87,0 A 6.33,6.33 0 0 0 123,7.9 Z m 0,11.22 a 4.28,4.28 0 0 1 -4.27,-4.63 c 0,-3 2,-4.66 4.27,-4.66 2.27,0 4.27,1.59 4.27,4.66 A 4.27,4.27 0 0 1 123,19.12 Z"
       style="fill:#e0c490;fill-opacity:1"
       id="path11249" />
    <rect
       x="116.59"
       y="3.9300001"
       width="13.02"
       height="1.8099999"
       style="fill:#e0c490;fill-opacity:1"
       id="rect11251" />
    <polygon
       points="45.39,17.76 46.08,20.35 43.32,20.35 44.01,17.76 44.01,6.43 43.32,3.84 46.08,3.84 45.39,6.43 "
       style="fill:#e0c490;fill-opacity:1"
       id="polygon11253" />
    <path
       d="m 50,20.35 v -17 L 62.68,16.68 V 4 h 1.81 V 21.08 L 51.76,7.74 v 12.61 z"
       style="fill:#e0c490;fill-opacity:1"
       id="path11255" />
    <path
       d="m 76,7.15 a 3.82,3.82 0 0 0 -1,-1.22 2.92,2.92 0 0 0 -1.84,-0.57 2.51,2.51 0 0 0 -2.74,2.52 1.7,1.7 0 0 0 0.61,1.42 5.4,5.4 0 0 0 1.72,1 l 1.56,0.69 a 7.77,7.77 0 0 1 2.53,1.54 3.93,3.93 0 0 1 1.17,3 5.24,5.24 0 0 1 -8.71,3.7 5.93,5.93 0 0 1 -1.52,-2.89 l 1.76,-0.49 a 3.86,3.86 0 0 0 1,2.08 3.13,3.13 0 0 0 2.35,0.91 3.1,3.1 0 0 0 3.28,-3.24 2.41,2.41 0 0 0 -0.81,-1.9 6.75,6.75 0 0 0 -2,-1.13 L 72,11.87 A 7,7 0 0 1 69.82,10.53 3.41,3.41 0 0 1 68.69,7.86 c 0,-2.52 1.94,-4.21 4.58,-4.21 a 4.5,4.5 0 0 1 2.62,0.73 5.07,5.07 0 0 1 1.55,1.82 z"
       style="fill:#e0c490;fill-opacity:1"
       id="path11257" />
    <path
       d="M 84.36,5.74 V 20.35 H 82.55 V 5.74 h -4 V 4 h 9.74 v 1.74 z"
       style="fill:#e0c490;fill-opacity:1"
       id="path11259" />
    <path
       d="m 93.4,4 a 7.16,7.16 0 0 1 4,0.91 4.25,4.25 0 0 1 1.79,3.62 4.3,4.3 0 0 1 -4.19,4.53 l 5.18,7.29 H 98 L 93,13.2 h -0.46 v 7.15 H 90.78 V 4 Z m -0.81,7.57 h 1.15 c 2.25,0 3.6,-1.08 3.6,-3 A 2.55,2.55 0 0 0 96,6.2 4.74,4.74 0 0 0 93.65,5.74 h -1.1 z"
       style="fill:#e0c490;fill-opacity:1"
       id="path11261" />
    <path
       d="m 104.87,14 c 0,1.37 0,2.86 1.3,4 a 4.37,4.37 0 0 0 5.39,0 c 1.29,-1.1 1.29,-2.59 1.29,-4 V 4 h 1.81 v 10.5 a 6.3,6.3 0 0 1 -1,3.92 6.28,6.28 0 0 1 -9.55,0 6.31,6.31 0 0 1 -1,-3.92 V 4 h 1.81 z"
       style="fill:#e0c490;fill-opacity:1"
       id="path11263" />
    <path
       d="m 123,7.9 a 6.32,6.32 0 0 0 -6.43,6.59 6.44,6.44 0 1 0 12.87,0 A 6.33,6.33 0 0 0 123,7.9 Z m 0,11.22 a 4.28,4.28 0 0 1 -4.27,-4.63 c 0,-3 2,-4.66 4.27,-4.66 2.27,0 4.27,1.59 4.27,4.66 A 4.27,4.27 0 0 1 123,19.12 Z"
       style="fill:#e0c490;fill-opacity:1"
       id="path11265" />
    <rect
       x="116.59"
       y="3.9300001"
       width="13.02"
       height="1.8099999"
       style="fill:#e0c490;fill-opacity:1"
       id="rect11267" />
    <polygon
       points="45.39,17.76 46.08,20.35 43.32,20.35 44.01,17.76 44.01,6.43 43.32,3.84 46.08,3.84 45.39,6.43 "
       style="fill:#e0c490;fill-opacity:1"
       id="polygon11269" />
    <path
       d="m 50,20.35 v -17 L 62.68,16.68 V 4 h 1.81 V 21.08 L 51.76,7.74 v 12.61 z"
       style="fill:#e0c490;fill-opacity:1"
       id="path11271" />
    <path
       d="m 76,7.15 a 3.82,3.82 0 0 0 -1,-1.22 2.92,2.92 0 0 0 -1.84,-0.57 2.51,2.51 0 0 0 -2.74,2.52 1.7,1.7 0 0 0 0.61,1.42 5.4,5.4 0 0 0 1.72,1 l 1.56,0.69 a 7.77,7.77 0 0 1 2.53,1.54 3.93,3.93 0 0 1 1.17,3 5.24,5.24 0 0 1 -8.71,3.7 5.93,5.93 0 0 1 -1.52,-2.89 l 1.76,-0.49 a 3.86,3.86 0 0 0 1,2.08 3.13,3.13 0 0 0 2.35,0.91 3.1,3.1 0 0 0 3.28,-3.24 2.41,2.41 0 0 0 -0.81,-1.9 6.75,6.75 0 0 0 -2,-1.13 L 72,11.87 A 7,7 0 0 1 69.82,10.53 3.41,3.41 0 0 1 68.69,7.86 c 0,-2.52 1.94,-4.21 4.58,-4.21 a 4.5,4.5 0 0 1 2.62,0.73 5.07,5.07 0 0 1 1.55,1.82 z"
       style="fill:#e0c490;fill-opacity:1"
       id="path11273" />
    <path
       d="M 84.36,5.74 V 20.35 H 82.55 V 5.74 h -4 V 4 h 9.74 v 1.74 z"
       style="fill:#e0c490;fill-opacity:1"
       id="path11275" />
    <path
       d="m 93.4,4 a 7.16,7.16 0 0 1 4,0.91 4.25,4.25 0 0 1 1.79,3.62 4.3,4.3 0 0 1 -4.19,4.53 l 5.18,7.29 H 98 L 93,13.2 h -0.46 v 7.15 H 90.78 V 4 Z m -0.81,7.57 h 1.15 c 2.25,0 3.6,-1.08 3.6,-3 A 2.55,2.55 0 0 0 96,6.2 4.74,4.74 0 0 0 93.65,5.74 h -1.1 z"
       style="fill:#e0c490;fill-opacity:1"
       id="path11277" />
    <path
       d="m 104.87,14 c 0,1.37 0,2.86 1.3,4 a 4.37,4.37 0 0 0 5.39,0 c 1.29,-1.1 1.29,-2.59 1.29,-4 V 4 h 1.81 v 10.5 a 6.3,6.3 0 0 1 -1,3.92 6.28,6.28 0 0 1 -9.55,0 6.31,6.31 0 0 1 -1,-3.92 V 4 h 1.81 z"
       style="fill:#e0c490;fill-opacity:1"
       id="path11279" />
    <path
       d="m 123,7.9 a 6.32,6.32 0 0 0 -6.43,6.59 6.44,6.44 0 1 0 12.87,0 A 6.33,6.33 0 0 0 123,7.9 Z m 0,11.22 a 4.28,4.28 0 0 1 -4.27,-4.63 c 0,-3 2,-4.66 4.27,-4.66 2.27,0 4.27,1.59 4.27,4.66 A 4.27,4.27 0 0 1 123,19.12 Z"
       style="fill:#e0c490;fill-opacity:1"
       id="path11281" />
    <rect
       x="116.59"
       y="3.9300001"
       width="13.02"
       height="1.8099999"
       style="fill:#e0c490;fill-opacity:1"
       id="rect11283" />
    <polygon
       points="45.39,17.76 46.08,20.35 43.32,20.35 44.01,17.76 44.01,6.43 43.32,3.84 46.08,3.84 45.39,6.43 "
       style="fill:#e0c490;fill-opacity:1"
       id="polygon11285" />
    <path
       d="m 140.66,23.31 a 3,3 0 0 0 -0.78,-0.56 2.5,2.5 0 0 0 -1,-0.23 2.48,2.48 0 0 0 0,4.95 2.58,2.58 0 0 0 1.12,-0.28 2.69,2.69 0 0 0 0.69,-0.51 v 0.83 a 3.13,3.13 0 0 1 -1.81,0.59 3.11,3.11 0 1 1 0,-6.21 2.81,2.81 0 0 1 1.77,0.59 z"
       style="fill:#e0c490;fill-opacity:1"
       id="path11287" />
    <path
       d="m 141.56,25 a 3.12,3.12 0 1 1 3.12,3.11 3.06,3.06 0 0 1 -3.12,-3.11 z m 0.68,0 a 2.44,2.44 0 1 0 2.44,-2.47 2.45,2.45 0 0 0 -2.44,2.47 z"
       style="fill:#e0c490;fill-opacity:1"
       id="path11289" />
    <path
       d="m 152.16,26.3 h -2.56 l -0.72,1.7 h -0.74 l 2.77,-6.29 2.69,6.29 h -0.74 z m -0.26,-0.63 -1,-2.41 -1,2.41 z"
       style="fill:#e0c490;fill-opacity:1"
       id="path11291" />
    <path
       d="m 155.41,22 a 2.62,2.62 0 0 1 1.46,0.34 1.55,1.55 0 0 1 0.65,1.33 1.58,1.58 0 0 1 -1.52,1.64 l 1.92,2.69 h -0.81 l -1.83,-2.63 h -0.17 V 28 h -0.66 v -6 z m -0.3,2.79 h 0.43 c 0.82,0 1.32,-0.4 1.32,-1.1 a 0.92,0.92 0 0 0 -0.48,-0.88 1.65,1.65 0 0 0 -0.86,-0.18 h -0.41 z"
       style="fill:#e0c490;fill-opacity:1"
       id="path11293" />
    <path
       d="m 161.65,23.17 a 1.56,1.56 0 0 0 -0.35,-0.45 1.11,1.11 0 0 0 -0.68,-0.2 0.92,0.92 0 0 0 -1,0.92 0.62,0.62 0 0 0 0.23,0.52 1.93,1.93 0 0 0 0.63,0.38 l 0.57,0.26 a 2.89,2.89 0 0 1 0.93,0.56 1.44,1.44 0 0 1 0.43,1.09 1.8,1.8 0 0 1 -1.9,1.85 1.77,1.77 0 0 1 -1.3,-0.49 2.15,2.15 0 0 1 -0.56,-1.06 l 0.65,-0.18 a 1.39,1.39 0 0 0 0.36,0.76 1.16,1.16 0 0 0 0.86,0.34 1.14,1.14 0 0 0 1.21,-1.19 0.87,0.87 0 0 0 -0.3,-0.7 2.48,2.48 0 0 0 -0.72,-0.42 l -0.54,-0.25 a 2.59,2.59 0 0 1 -0.8,-0.5 1.24,1.24 0 0 1 -0.41,-1 1.55,1.55 0 0 1 1.68,-1.54 1.65,1.65 0 0 1 1,0.26 1.9,1.9 0 0 1 0.59,0.67 z"
       style="fill:#e0c490;fill-opacity:1"
       id="path11295" />
    <path
       d="m 166.74,22.61 h -2.45 v 1.79 h 2.38 V 25 h -2.38 v 2.33 h 2.45 V 28 h -3.11 v -6 h 3.11 z"
       style="fill:#e0c490;fill-opacity:1"
       id="path11297" />
    <path
       d="m 2.7,25 a 3.07,3.07 0 0 1 3.12,-3.11 3.11,3.11 0 1 1 0,6.22 A 3.07,3.07 0 0 1 2.7,25 Z m 0.68,0 A 2.44,2.44 0 1 0 5.82,22.52 2.45,2.45 0 0 0 3.38,25 Z"
       style="fill:#e0c490;fill-opacity:1"
       id="path11299" />
    <path
       d="m 10.83,25.67 a 1.69,1.69 0 0 0 0.48,1.45 1.58,1.58 0 0 0 2,0 1.69,1.69 0 0 0 0.48,-1.45 V 22 h 0.66 v 3.87 a 2.35,2.35 0 0 1 -0.37,1.44 2.14,2.14 0 0 1 -1.76,0.81 2.13,2.13 0 0 1 -1.75,-0.81 2.29,2.29 0 0 1 -0.38,-1.44 V 22 h 0.66 z"
       style="fill:#e0c490;fill-opacity:1"
       id="path11301" />
    <path
       d="M 17.46,22.61 V 28 H 16.79 V 22.61 H 15.33 V 22 h 3.59 v 0.63 z"
       style="fill:#e0c490;fill-opacity:1"
       id="path11303" />
    <path
       d="m 26.84,94.77 h 1.23 a 3.31,3.31 0 0 1 2.21,0.7 2.94,2.94 0 0 1 1,2.31 2.81,2.81 0 0 1 -1.06,2.3 3,3 0 0 1 -2.19,0.7 h -1.19 z m 0.67,5.38 h 0.58 a 2.59,2.59 0 0 0 1.72,-0.54 2.41,2.41 0 0 0 -1.72,-4.21 h -0.58 z"
       style="fill:#e0c490;fill-opacity:1"
       id="path11305" />
    <path
       d="M 35.65,95.4 H 33.2 v 1.79 h 2.37 v 0.63 H 33.2 v 2.33 h 2.45 v 0.63 h -3.12 v -6 h 3.12 z"
       style="fill:#e0c490;fill-opacity:1"
       id="path11307" />
    <path
       d="m 38.34,95.4 v 5.38 H 37.68 V 95.4 h -1.46 v -0.63 h 3.58 v 0.63 z"
       style="fill:#e0c490;fill-opacity:1"
       id="path11309" />
    <path
       d="m 41.37,98.46 a 1.69,1.69 0 0 0 0.48,1.45 1.63,1.63 0 0 0 1,0.35 1.68,1.68 0 0 0 1,-0.35 1.71,1.71 0 0 0 0.47,-1.45 V 94.77 H 45 v 3.87 a 2.29,2.29 0 0 1 -0.38,1.44 2.31,2.31 0 0 1 -3.51,0 2.35,2.35 0 0 1 -0.38,-1.44 v -3.87 h 0.67 z"
       style="fill:#e0c490;fill-opacity:1"
       id="path11311" />
    <path
       d="m 46.52,100.78 v -6.26 l 4.68,4.91 v -4.66 h 0.66 v 6.28 l -4.68,-4.91 v 4.64 z"
       style="fill:#e0c490;fill-opacity:1"
       id="path11313" />
    <path
       d="m 56.52,95.4 h -2.44 v 1.79 h 2.37 v 0.63 h -2.37 v 2.33 h 2.44 v 0.63 h -3.11 v -6 h 3.11 z"
       style="fill:#e0c490;fill-opacity:1"
       id="path11315" />
    <path
       d="m 154.47,125 h -2.08 v 1.77 h 2 v 0.63 h -2 v 3 h -0.66 v -6 h 2.74 z"
       style="fill:#e0c490;fill-opacity:1"
       id="path11317" />
    <path
       d="m 156.3,124.37 v 6 h -0.66 v -6 z"
       style="fill:#e0c490;fill-opacity:1"
       id="path11319" />
    <path
       d="m 157.85,130.38 v -6.26 l 4.68,4.91 v -4.66 h 0.67 v 6.28 l -4.69,-4.91 v 4.64 z"
       style="fill:#e0c490;fill-opacity:1"
       id="path11321" />
    <path
       d="m 167.86,125 h -2.45 v 1.78 h 2.38 v 0.63 h -2.38 v 2.34 h 2.45 v 0.63 h -3.12 v -6 h 3.12 z"
       style="fill:#e0c490;fill-opacity:1"
       id="path11323" />
    <path
       d="m 75.42,239.79 h 4.84 v 0.7 h -4.84 z"
       style="fill:#e0c490;fill-opacity:1"
       id="path11325" />
    <path
       d="m 91.26,239.8 h 2 v -1.9 H 94 v 1.9 h 2 v 0.72 h -2 v 1.89 h -0.79 v -1.89 h -2 z"
       style="fill:#e0c490;fill-opacity:1"
       id="path11327" />
    <path
       d="m 88.19,213.19 a 21.62,21.62 0 0 0 29.51,20.14 l 2.92,-1.41 a 14.06,14.06 0 0 1 16.63,5.86 l 1.17,2.3 a 17.09,17.09 0 1 0 10.46,-25.47 l -2.07,0.67 a 13.89,13.89 0 0 1 -3.31,0.4 14.05,14.05 0 0 1 -12.84,-8.25 l -0.89,-2.61 a 21.63,21.63 0 0 0 -41.58,8.37 z m 55.31,5.49 a 17.25,17.25 0 0 0 4.14,-0.51 l 2.06,-0.67 a 13.65,13.65 0 0 1 3.32,-0.4 14.09,14.09 0 0 1 0,28.18 13.92,13.92 0 0 1 -12,-6.66 l -1.17,-2.3 a 17.06,17.06 0 0 0 -20.36,-7.19 l -3,1.45 a 18.39,18.39 0 0 1 -6.69,1.24 18.63,18.63 0 1 1 17.2,-25.94 l 0.9,2.65 a 17.14,17.14 0 0 0 15.6,10.15 z"
       style="fill:#e0c490;fill-opacity:1"
       id="path11329" />
    <rect
       x="151.53"
       y="205.74001"
       width="3"
       height="9.4799995"
       transform="rotate(-0.31,154.6777,212.96834)"
       style="fill:#e0c490;fill-opacity:1"
       id="rect11331" />
    <path
       d="m 121.79,237.11 h -2.07 v 1.77 h 2 v 0.63 h -2 v 3 h -0.67 v -6 h 2.74 z"
       style="fill:#e0c490;fill-opacity:1"
       id="path11333" />
    <path
       d="m 122.75,242.48 1,-6.33 2.31,5.06 2.35,-5.07 0.93,6.34 h -0.68 l -0.57,-4.17 -2,4.43 -2,-4.43 -0.59,4.17 z"
       style="fill:#e0c490;fill-opacity:1"
       id="path11335" />
    <path
       d="m 126.6,268.8 a 2.85,2.85 0 0 0 -0.79,-0.56 2.4,2.4 0 0 0 -3.44,2.27 2.39,2.39 0 0 0 2.42,2.44 2.49,2.49 0 0 0 1.11,-0.27 2.85,2.85 0 0 0 0.7,-0.51 V 273 a 3.13,3.13 0 0 1 -1.81,0.59 3.11,3.11 0 1 1 0,-6.22 2.85,2.85 0 0 1 1.78,0.6 z"
       style="fill:#e0c490;fill-opacity:1"
       id="path11337" />
    <path
       d="m 129.3,268.1 v 5.38 h -0.67 v -5.38 h -1.46 v -0.63 h 3.59 v 0.63 z"
       style="fill:#e0c490;fill-opacity:1"
       id="path11339" />
    <path
       d="m 132.62,267.47 a 2.62,2.62 0 0 1 1.46,0.34 1.67,1.67 0 0 1 -0.86,3 l 1.91,2.69 h -0.81 l -1.83,-2.63 h -0.17 v 2.63 h -0.67 v -6 z m -0.3,2.78 h 0.42 c 0.83,0 1.33,-0.39 1.33,-1.09 a 0.94,0.94 0 0 0 -0.48,-0.89 1.75,1.75 0 0 0 -0.86,-0.17 h -0.41 z"
       style="fill:#e0c490;fill-opacity:1"
       id="path11341" />
    <path
       d="m 136.84,267.47 v 5.38 h 1.66 v 0.63 h -2.33 v -6 z"
       style="fill:#e0c490;fill-opacity:1"
       id="path11343" />
    <path
       d="m 136,182.9 v 5.38 h 1.65 v 0.63 h -2.32 v -6 z"
       style="fill:#e0c490;fill-opacity:1"
       id="path11345" />
    <path
       d="m 139.2,182.9 v 6 h -0.67 v -6 z"
       style="fill:#e0c490;fill-opacity:1"
       id="path11347" />
    <path
       d="m 140.75,188.91 v -6.26 l 4.68,4.91 v -4.66 h 0.66 v 6.28 l -4.68,-4.91 v 4.64 z"
       style="fill:#e0c490;fill-opacity:1"
       id="path11349" />
    <path
       d="m 161.24,183.53 h -2.45 v 1.79 h 2.38 V 186 h -2.38 v 2.33 h 2.45 v 0.63 h -3.12 v -6 h 3.12 z"
       style="fill:#e0c490;fill-opacity:1"
       id="path11351" />
    <path
       d="M 163.59,185.8 162,182.9 h 0.75 l 1.24,2.26 1.28,-2.26 H 166 l -1.65,2.9 1.74,3.11 h -0.76 l -1.33,-2.47 -1.4,2.47 h -0.76 z"
       style="fill:#e0c490;fill-opacity:1"
       id="path11353" />
    <path
       d="m 168.09,182.9 a 2.18,2.18 0 0 1 1.51,0.43 1.72,1.72 0 0 1 -1.35,3 h -0.59 v 2.61 H 167 v -6 z m -0.43,2.77 h 0.55 c 0.8,0 1.27,-0.4 1.27,-1.09 0,-1 -0.89,-1.05 -1.32,-1.05 h -0.5 z"
       style="fill:#e0c490;fill-opacity:1"
       id="path11355" />
    <rect
       x="20.1"
       y="68.739998"
       width="3"
       height="5.9400001"
       style="fill:#e0c490;fill-opacity:1"
       id="rect11357" />
    <rect
       x="14.36"
       y="70.32"
       width="0.46000001"
       height="1"
       transform="rotate(-30.2,14.589746,70.812691)"
       style="fill:#e0c490;fill-opacity:1"
       id="rect11359" />
    <path
       d="m 15.17,70.49 v -2.11 h -0.08 l -2,2.48 -2.22,2.14 3,-1 L 17,71.56 V 71.5 Z"
       style="fill:#e0c490;fill-opacity:1"
       id="path11361" />
    <path
       d="m 34.61,76.63 a 21.71,21.71 0 0 0 -8,-6.31 12,12 0 0 0 -10,0 21.71,21.71 0 0 0 -8,6.31 L 7.81,76 a 22.58,22.58 0 0 1 8.4,-6.6 13,13 0 0 1 10.79,0 22.63,22.63 0 0 1 8.39,6.6 z"
       style="fill:#e0c490;fill-opacity:1"
       id="path11363" />
    <rect
       x="28.110001"
       y="70.589996"
       width="1"
       height="0.46000001"
       transform="rotate(-59.8,28.607037,70.819057)"
       style="fill:#e0c490;fill-opacity:1"
       id="rect11365" />
    <path
       d="m 28,70.49 -1.85,1 v 0.07 l 3.13,0.47 3,1 L 30,70.86 28.05,68.38 H 28 Z"
       style="fill:#e0c490;fill-opacity:1"
       id="path11367" />
    <rect
       x="52.73"
       y="104.96"
       width="3"
       height="5.7199998"
       style="fill:#e0c490;fill-opacity:1"
       id="rect11369" />
    <rect
       x="46.990002"
       y="106.54"
       width="0.46000001"
       height="1"
       transform="rotate(-30.24,47.222206,107.0559)"
       style="fill:#e0c490;fill-opacity:1"
       id="rect11371" />
    <path
       d="m 47.79,106.71 v -2.11 h -0.07 l -1.95,2.48 -2.31,2.13 3,-1 3.13,-0.47 v -0.06 z"
       style="fill:#e0c490;fill-opacity:1"
       id="path11373" />
    <path
       d="m 67.23,112.85 a 21.68,21.68 0 0 0 -8,-6.31 12,12 0 0 0 -10,0 21.63,21.63 0 0 0 -8,6.31 l -0.79,-0.62 a 22.74,22.74 0 0 1 8.4,-6.6 13,13 0 0 1 10.79,0 22.66,22.66 0 0 1 8.4,6.6 z"
       style="fill:#e0c490;fill-opacity:1"
       id="path11375" />
    <rect
       x="60.740002"
       y="106.81"
       width="1"
       height="0.46000001"
       transform="rotate(-59.74,61.241604,107.04568)"
       style="fill:#e0c490;fill-opacity:1"
       id="rect11377" />
    <path
       d="m 60.66,106.71 -1.85,1 v 0.07 l 3.12,0.47 3,1 -2.32,-2.13 -2,-2.48 h -0.06 z"
       style="fill:#e0c490;fill-opacity:1"
       id="path11379" />
    <rect
       x="85.129997"
       y="140.74001"
       width="3"
       height="5.9400001"
       style="fill:#e0c490;fill-opacity:1"
       id="rect11381" />
    <rect
       x="84.900002"
       y="141.67"
       width="3"
       height="5.02"
       style="fill:#e0c490;fill-opacity:1"
       id="rect11383" />
    <path
       d="m 112.23,270.68 a 25.87,25.87 0 0 0 -24.56,-25.8 v -6.27 h -3 v 6.3 A 25.86,25.86 0 0 0 60.62,269.15 H 30.81 v 3 h 29.8 a 25.87,25.87 0 0 0 24.17,24.3 v 12.07 h 3 v -12 a 25.86,25.86 0 0 0 24.45,-25.84 z M 86.4,293.51 a 22.83,22.83 0 1 1 22.83,-22.83 22.85,22.85 0 0 1 -22.83,22.83 z"
       style="fill:#e0c490;fill-opacity:1"
       id="path11385" />
    <rect
       x="79.389999"
       y="142.32001"
       width="0.46000001"
       height="1"
       transform="rotate(-30.2,79.595155,142.80362)"
       style="fill:#e0c490;fill-opacity:1"
       id="rect11387" />
    <path
       d="m 80.19,142.49 v -2.11 h -0.07 l -2,2.48 -2.22,2.14 3,-1 3.13,-0.47 v -0.06 z"
       style="fill:#e0c490;fill-opacity:1"
       id="path11389" />
    <path
       d="m 73.62,148.63 -0.79,-0.62 a 22.74,22.74 0 0 1 8.4,-6.6 13,13 0 0 1 10.79,0 22.66,22.66 0 0 1 8.4,6.6 l -0.79,0.62 a 21.68,21.68 0 0 0 -8,-6.31 12,12 0 0 0 -10,0 21.71,21.71 0 0 0 -8.01,6.31 z"
       style="fill:#e0c490;fill-opacity:1"
       id="path11391" />
    <rect
       x="93.139999"
       y="142.59"
       width="1"
       height="0.46000001"
       transform="rotate(-59.8,93.626098,142.82529)"
       style="fill:#e0c490;fill-opacity:1"
       id="rect11393" />
    <path
       d="m 93.06,142.49 -1.85,1 v 0.07 l 3.12,0.47 3,1 -2.33,-2.17 -2,-2.48 v 0 z"
       style="fill:#e0c490;fill-opacity:1"
       id="path11395" />
    <rect
       x="20.889999"
       y="92.260002"
       width="1.5"
       height="16.49"
       style="fill:#e0c490;fill-opacity:1"
       id="rect11397" />
    <path
       d="m 48.22,157.51 -1.34,-0.66 c 6.2,-12.53 7.1,-16.27 6.85,-28.59 h 1.5 c 0.25,12.47 -0.73,16.58 -7.01,29.25 z"
       style="fill:#e0c490;fill-opacity:1"
       id="path11399" />
    <path
       d="m 72.56,195 -1,-1.1 c 9.73,-9.08 13.29,-16.59 14.1,-29.74 l 1.5,0.1 C 86.3,177.89 82.62,185.65 72.56,195 Z"
       style="fill:#e0c490;fill-opacity:1"
       id="path11401" />
    <polygon
       points="28.61,22.98 20.8,29.42 20.48,29.03 29.11,21.93 29.11,23.14 30.58,21.93 30.58,24.68 33.92,21.93 33.92,23.99 36.43,21.93 36.43,29.75 35.93,29.75 35.93,22.98 33.42,25.04 33.42,22.98 30.08,25.73 30.08,22.98 28.61,24.2 "
       style="fill:#e0c490;fill-opacity:1"
       id="polygon11403" />
    <path
       d="m 15.3,147.47 0.53,0.27 -4.63,8.35 -0.52,-0.25 z"
       style="fill:#e0c490;fill-opacity:1"
       id="path11405" />
    <path
       d="m 3.65,149.24 h -1 l 0.36,-0.63 h 1.31 v 6 H 3.65 Z"
       style="fill:#e0c490;fill-opacity:1"
       id="path11407" />
    <path
       d="m 7.18,148.61 1.69,4.58 1.7,-4.58 H 11.3 L 8.87,155 6.44,148.64 Z"
       style="fill:#e0c490;fill-opacity:1"
       id="path11409" />
    <path
       d="m 16,151.62 a 3.13,3.13 0 1 1 3.12,3.1 3.07,3.07 0 0 1 -3.12,-3.1 z m 0.68,0 a 2.44,2.44 0 1 0 2.44,-2.48 2.45,2.45 0 0 0 -2.42,2.48 z"
       style="fill:#e0c490;fill-opacity:1"
       id="path11411" />
    <path
       d="m 28.08,149.93 a 2.93,2.93 0 0 0 -0.78,-0.55 2.51,2.51 0 0 0 -1,-0.24 2.5,2.5 0 0 0 0,5 2.58,2.58 0 0 0 1.12,-0.28 2.71,2.71 0 0 0 0.69,-0.5 v 0.83 a 3.18,3.18 0 0 1 -1.81,0.58 3.11,3.11 0 1 1 0,-6.21 2.87,2.87 0 0 1 1.77,0.59 z"
       style="fill:#e0c490;fill-opacity:1"
       id="path11413" />
    <path
       d="m 30.78,149.24 v 5.37 h -0.67 v -5.37 h -1.46 v -0.63 h 3.59 v 0.63 z"
       style="fill:#e0c490;fill-opacity:1"
       id="path11415" />
    <path
       d="m 66,181.07 a 28,28 0 0 1 -2.19,5.23 l -1.24,0.1 A 34.17,34.17 0 0 0 64,181.24 Z"
       style="fill:#e0c490;fill-opacity:1"
       id="path11417" />
    <path
       d="m 68.64,181.16 a 27.38,27.38 0 0 1 -2.77,5 h -1.25 a 34.18,34.18 0 0 0 2,-5 z"
       style="fill:#e0c490;fill-opacity:1"
       id="path11419" />
    <path
       d="m 41.9,145.8 a 27.2,27.2 0 0 1 -1.55,5.45 l -1.23,0.25 a 34.5,34.5 0 0 0 0.82,-5.29 z"
       style="fill:#e0c490;fill-opacity:1"
       id="path11421" />
    <path
       d="m 44.61,145.6 a 27.57,27.57 0 0 1 -2.14,5.25 l -1.24,0.11 a 32.94,32.94 0 0 0 1.38,-5.17 z"
       style="fill:#e0c490;fill-opacity:1"
       id="path11423" />
    <path
       d="m 47.31,145.89 a 27.18,27.18 0 0 1 -2.79,4.94 l -1.25,-0.05 a 33.15,33.15 0 0 0 2,-4.95 z"
       style="fill:#e0c490;fill-opacity:1"
       id="path11425" />
    <path
       d="m 18.9,110.84 a 27.11,27.11 0 0 1 -1.22,5.53 l -1.21,0.32 a 32.65,32.65 0 0 0 0.49,-5.33 z"
       style="fill:#e0c490;fill-opacity:1"
       id="path11427" />
    <path
       d="m 21.53,110.52 a 27,27 0 0 1 -1.83,5.37 l -1.23,0.19 a 33,33 0 0 0 1.07,-5.24 z"
       style="fill:#e0c490;fill-opacity:1"
       id="path11429" />
    <path
       d="m 24.23,110.64 a 27.45,27.45 0 0 1 -2.49,5.09 h -1.25 a 33.45,33.45 0 0 0 1.73,-5.07 z"
       style="fill:#e0c490;fill-opacity:1"
       id="path11431" />
    <path
       d="m 26.83,111.05 a 27.65,27.65 0 0 1 -3.06,4.78 l -1.24,-0.12 a 33.34,33.34 0 0 0 2.3,-4.83 z"
       style="fill:#e0c490;fill-opacity:1"
       id="path11433" />
    <path
       d="m 6.48,227.17 a 2.15,2.15 0 0 1 1.52,0.43 1.64,1.64 0 0 1 0.54,1.28 1.66,1.66 0 0 1 -1.89,1.69 H 6.06 v 2.61 H 5.39 v -6 z m -0.42,2.77 h 0.55 c 0.79,0 1.27,-0.4 1.27,-1.09 0,-1 -0.89,-1 -1.32,-1 h -0.5 z"
       style="fill:#e0c490;fill-opacity:1"
       id="path11435" />
    <path
       d="m 9.82,227.17 1.59,4.5 1.88,-4.8 1.78,4.8 1.76,-4.5 h 0.73 l -2.56,6.32 -1.76,-4.8 -1.89,4.8 -2.31,-6.32 z"
       style="fill:#e0c490;fill-opacity:1"
       id="path11437" />
    <path
       d="m 18.2,233.18 1,-6.34 2.3,5.07 2.35,-5.08 0.94,6.35 h -0.68 l -0.57,-4.18 -2,4.43 -2,-4.43 -0.59,4.18 z"
       style="fill:#e0c490;fill-opacity:1"
       id="path11439" />
    <path
       d="m 9.72,249.84 a 3,3 0 0 0 -0.78,-0.56 2.67,2.67 0 0 0 -1,-0.23 2.48,2.48 0 0 0 0,4.95 2.54,2.54 0 0 0 1.06,-0.28 3,3 0 0 0 0.69,-0.5 V 254 a 3.11,3.11 0 0 1 -1.81,0.59 3.11,3.11 0 1 1 0,-6.21 2.81,2.81 0 0 1 1.77,0.59 z"
       style="fill:#e0c490;fill-opacity:1"
       id="path11441" />
    <path
       d="m 11,248.52 1.69,4.58 1.7,-4.58 h 0.73 l -2.43,6.36 -2.43,-6.36 z"
       style="fill:#e0c490;fill-opacity:1"
       id="path11443" />
    <path
       d="M 52.65,41.6 A 27.7,27.7 0 0 1 51.09,47 l -1.22,0.25 A 33,33 0 0 0 50.68,42 Z"
       style="fill:#e0c490;fill-opacity:1"
       id="path11445" />
    <path
       d="m 55.36,41.4 a 26.89,26.89 0 0 1 -2.15,5.25 L 52,46.76 a 33.22,33.22 0 0 0 1.39,-5.17 z"
       style="fill:#e0c490;fill-opacity:1"
       id="path11447" />
    <path
       d="m 50,50.15 a 27.2,27.2 0 0 1 -1.55,5.45 l -1.23,0.25 A 33.35,33.35 0 0 0 48,50.56 Z"
       style="fill:#e0c490;fill-opacity:1"
       id="path11449" />
    <path
       d="M 47.89,58.57 A 27.71,27.71 0 0 1 46.37,64 l -1.23,0.25 A 32.29,32.29 0 0 0 45.93,59 Z"
       style="fill:#e0c490;fill-opacity:1"
       id="path11451" />
    <path
       d="m 52.68,50 a 27.72,27.72 0 0 1 -2.14,5.24 l -1.24,0.11 a 34.25,34.25 0 0 0 1.38,-5.16 z"
       style="fill:#e0c490;fill-opacity:1"
       id="path11453" />
    <path
       d="m 58.05,41.69 a 27.69,27.69 0 0 1 -2.78,4.93 h -1.25 a 34.72,34.72 0 0 0 2,-4.95 z"
       style="fill:#e0c490;fill-opacity:1"
       id="path11455" />
    <path
       d="m 56.82,33 a 26.45,26.45 0 0 1 -1.22,5.53 l -1.2,0.33 a 34,34 0 0 0 0.49,-5.33 z"
       style="fill:#e0c490;fill-opacity:1"
       id="path11457" />
    <path
       d="m 59.45,32.69 a 27.63,27.63 0 0 1 -1.82,5.36 l -1.24,0.19 A 32.77,32.77 0 0 0 57.46,33 Z"
       style="fill:#e0c490;fill-opacity:1"
       id="path11459" />
    <path
       d="m 62.15,32.8 a 27.45,27.45 0 0 1 -2.49,5.09 h -1.24 a 33,33 0 0 0 1.72,-5.06 z"
       style="fill:#e0c490;fill-opacity:1"
       id="path11461" />
    <path
       d="m 64.75,33.22 a 27.16,27.16 0 0 1 -3,4.77 l -1.24,-0.11 a 33.84,33.84 0 0 0 2.29,-4.83 z"
       style="fill:#e0c490;fill-opacity:1"
       id="path11463" />
    <path
       d="m 166.26,270.15 h -6 a 9.09,9.09 0 1 0 0,1 h 5 v 50.52 h -17 V 311 H 26.2 v 22.29 h 122.06 v -10.62 h 18 z m -15.06,8.59 a 8.09,8.09 0 1 1 8.09,-8.09 8.1,8.1 0 0 1 -8.09,8.09 z m -5.94,51.51 H 29.2 V 314 h 116.06 z"
       style="fill:#e0c490;fill-opacity:1"
       id="path11465" />
    <path
       d="m 29.83,294.17 a 1.35,1.35 0 0 0 -0.31,-0.4 1,1 0 0 0 -0.6,-0.18 0.82,0.82 0 0 0 -0.9,0.82 0.55,0.55 0 0 0 0.2,0.46 1.79,1.79 0 0 0 0.56,0.34 l 0.51,0.22 a 2.58,2.58 0 0 1 0.83,0.51 1.27,1.27 0 0 1 0.38,1 1.72,1.72 0 0 1 -2.85,1.21 1.9,1.9 0 0 1 -0.49,-0.94 l 0.57,-0.16 a 1.27,1.27 0 0 0 0.32,0.68 1,1 0 0 0 0.77,0.29 1,1 0 0 0 1.07,-1.05 0.82,0.82 0 0 0 -0.26,-0.63 2.21,2.21 0 0 0 -0.64,-0.36 l -0.48,-0.23 a 2.09,2.09 0 0 1 -0.71,-0.44 1.11,1.11 0 0 1 -0.37,-0.87 1.38,1.38 0 0 1 1.5,-1.37 1.41,1.41 0 0 1 0.85,0.24 1.56,1.56 0 0 1 0.52,0.59 z"
       style="fill:#e0c490;fill-opacity:1"
       id="path11467" />
    <path
       d="m 32.18,296.39 a 1.5,1.5 0 0 0 0.43,1.29 1.43,1.43 0 0 0 1.75,0 1.5,1.5 0 0 0 0.43,-1.29 v -3.28 h 0.59 v 3.43 a 2,2 0 0 1 -0.34,1.28 1.87,1.87 0 0 1 -1.55,0.72 1.88,1.88 0 0 1 -1.56,-0.72 2,2 0 0 1 -0.34,-1.28 v -3.43 h 0.59 z"
       style="fill:#e0c490;fill-opacity:1"
       id="path11469" />
    <path
       d="m 37.72,293.11 a 2,2 0 0 1 1.22,0.34 1.33,1.33 0 0 1 0.48,1.1 1.21,1.21 0 0 1 -0.53,1.05 1.34,1.34 0 0 1 1,1.34 1.49,1.49 0 0 1 -0.55,1.16 2,2 0 0 1 -1.27,0.35 h -1.31 v -5.34 z m -0.37,2.35 h 0.45 c 0.31,0 1.05,-0.07 1.05,-0.89 0,-0.82 -0.87,-0.9 -1,-0.9 h -0.46 z m 0,2.43 H 38 a 1.5,1.5 0 0 0 0.94,-0.23 0.91,0.91 0 0 0 0.35,-0.73 0.88,0.88 0 0 0 -0.46,-0.79 A 1.88,1.88 0 0 0 38,296 h -0.61 z"
       style="fill:#e0c490;fill-opacity:1"
       id="path11471" />
    <path
       d="m 149.16,295.29 c 0,1.89 -1,3.38 -2.34,3.38 -1.34,0 -2.3,-0.82 -2.66,-2.42 h -3.25 c -0.28,3.5 -2.2,4.94 -6.73,5.21 v 0 a 0.45,0.45 0 0 1 -0.44,-0.53 0.46,0.46 0 0 1 0.44,-0.37 c 4,-0.25 5.59,-1.36 5.85,-4.31 h -4.34 a 0.49,0.49 0 0 0 -0.32,0.14 0.67,0.67 0 0 1 -0.43,0.16 0.66,0.66 0 0 1 -0.64,-0.82 0.67,0.67 0 0 1 0.45,-0.47 0.69,0.69 0 0 1 0.45,0 0.81,0.81 0 0 0 0.31,0.06 h 0.3 2.05 2.14 v -0.06 c 0,-3.26 -3.11,-4.05 -5.76,-4.15 a 0.45,0.45 0 0 1 -0.44,-0.46 0.46,0.46 0 0 1 0.47,-0.44 c 4.31,0.16 6.67,1.95 6.63,5.06 v 0.05 h 3.6 a 0.44,0.44 0 0 1 0.44,0.38 c 0.29,1.81 1.13,2 1.84,2 0.71,0 1.43,-1.12 1.44,-2.46 a 0.47,0.47 0 0 1 0.44,-0.47 0.44,0.44 0 0 1 0.5,0.52 z"
       style="fill:#e0c490;fill-opacity:1"
       id="path11473" />
    <rect
       x="20.85"
       y="156.14999"
       width="1.5"
       height="28.450001"
       style="fill:#e0c490;fill-opacity:1"
       id="rect11475" />
    <path
       d="m 55.81,199.74 h -9.24 l -0.24,-0.05 -3.55,-1.35 h -0.07 l 0.85,1.36 h -5.59 a 16.38,16.38 0 0 0 -7.12,-12.79 l 3.14,-5 0.8,1.54 h 0.08 l 0.64,-3.74 0.15,-0.45 3.49,-5.57 -1.28,-0.8 -3.69,5.92 v 0.05 l -3,2.28 v 0.08 h 1.58 l -3.1,5 a 16.2,16.2 0 0 0 -7.22,-2 v -15.41 l 1.37,0.84 0.05,-0.07 -1.39,-3.53 v -0.15 -9.1 h -1.5 v 8.85 l -0.09,0.39 -1.41,3.52 v 0.08 l 1.46,-0.88 v 15.33 A 16.4,16.4 0 1 0 38,201.21 h 5.67 l -0.87,1.48 h 0.08 l 3.5,-1.45 0.3,-0.07 h 9.16 z m -34.21,16 A 15.31,15.31 0 1 1 36.91,200.43 15.33,15.33 0 0 1 21.6,215.77 Z"
       style="fill:#e0c490;fill-opacity:1"
       id="path11477" />
    <rect
       x="20.85"
       y="139.48"
       width="1.5"
       height="7.9400001"
       style="fill:#e0c490;fill-opacity:1"
       id="rect11479" />
    <rect
       x="20.85"
       y="139.48"
       width="1.5"
       height="7.1999998"
       style="fill:#e0c490;fill-opacity:1"
       id="rect11481" />
    <rect
       x="20.85"
       y="139.48"
       width="1.5"
       height="7.4299998"
       style="fill:#e0c490;fill-opacity:1"
       id="rect11483" />
    <rect
       x="20.85"
       y="139.48"
       width="1.5"
       height="6.6900001"
       style="fill:#e0c490;fill-opacity:1"
       id="rect11485" />
  </g>
</svg>
