<?xml version="1.0" encoding="UTF-8" standalone="no"?>
<svg
   xmlns:dc="http://purl.org/dc/elements/1.1/"
   xmlns:cc="http://creativecommons.org/ns#"
   xmlns:rdf="http://www.w3.org/1999/02/22-rdf-syntax-ns#"
   xmlns:svg="http://www.w3.org/2000/svg"
   xmlns="http://www.w3.org/2000/svg"
   xmlns:sodipodi="http://sodipodi.sourceforge.net/DTD/sodipodi-0.dtd"
   xmlns:inkscape="http://www.inkscape.org/namespaces/inkscape"
   inkscape:version="0.92.5 (2060ec1f9f, 2020-04-08)"
   height="128.5mm"
   width="71.120003mm"
   sodipodi:docname="tagh.svg"
   id="svg973"
   version="1.1"
   viewBox="0 0 268.80001 485.66928">
  <metadata
     id="metadata979">
    <rdf:RDF>
      <cc:Work
         rdf:about="">
        <dc:format>image/svg+xml</dc:format>
        <dc:type
           rdf:resource="http://purl.org/dc/dcmitype/StillImage" />
        <dc:title />
      </cc:Work>
    </rdf:RDF>
  </metadata>
  <defs
     id="defs977" />
  <sodipodi:namedview
     inkscape:current-layer="svg973"
     inkscape:window-maximized="1"
     inkscape:window-y="27"
     inkscape:window-x="72"
     inkscape:cy="260.23697"
     inkscape:cx="246.67564"
     inkscape:zoom="2.8284271"
     units="mm"
     inkscape:document-units="mm"
     showgrid="false"
     id="namedview975"
     inkscape:window-height="2096"
     inkscape:window-width="3768"
     inkscape:pageshadow="2"
     inkscape:pageopacity="0"
     guidetolerance="10"
     gridtolerance="10"
     objecttolerance="10"
     borderopacity="1"
     bordercolor="#666666"
     pagecolor="#ffffff" />
  <rect
     style="fill:#1f1f1f;fill-opacity:1;stroke:none"
     id="rect77"
     width="269.05414"
     height="486.13593"
     x="-0.7070933"
     y="0.2404854" />
  <g
     inkscape:groupmode="layer"
     id="layer1"
     inkscape:label="Layer 1"
     style="opacity:1">
    <g
       style="fill:#e1c490;fill-opacity:1"
       transform="matrix(1.3323421,0,0,1.3313668,-0.75683103,3.6541971)"
       id="logo">
      <polyline
         id="polyline844"
         style="fill:#e1c490;fill-opacity:1"
         points="71.07 344.03 71.07 347.03 0 347.03 0 344.03" />
      <polyline
         id="polyline846"
         style="fill:#e1c490;fill-opacity:1"
         points="201.75 344.03 201.75 347.03 130.68 347.03 130.68 344.03" />
      <path
         id="path848"
         style="fill:#e1c490;fill-opacity:1"
         d="m 80.84,342.77 v 9.67 h -2 v -9.67 H 77.62 V 341 h 1.22 v -4.16 h 2 V 341 h 2 v 1.82 z"
         inkscape:connector-curvature="0" />
      <path
         id="path850"
         style="fill:#e1c490;fill-opacity:1"
         d="m 95.05,341 h 2 v 11.49 h -2 v -1.61 a 4.83,4.83 0 0 1 -3.93,1.94 c -2.91,0 -5.6,-2 -5.6,-6.09 0,-4.09 2.66,-6 5.6,-6 a 4.75,4.75 0 0 1 3.93,1.91 z m -7.48,5.73 c 0,2.46 1.39,4.32 3.77,4.32 2.38,0 3.82,-2 3.82,-4.29 0,-3 -2,-4.27 -3.82,-4.27 -1.97,-0.05 -3.77,1.39 -3.77,4.19 z"
         inkscape:connector-curvature="0" />
      <path
         id="path852"
         style="fill:#e1c490;fill-opacity:1"
         d="m 109,341 h 2 v 11.21 a 7.24,7.24 0 0 1 -1.11,4.52 5.61,5.61 0 0 1 -4.6,2.13 5.7,5.7 0 0 1 -4.1,-1.55 5.2,5.2 0 0 1 -1.49,-3.71 h 2 a 3.42,3.42 0 0 0 3.66,3.49 3.23,3.23 0 0 0 3,-1.61 5.34,5.34 0 0 0 0.63,-2.93 v -1.67 a 4.83,4.83 0 0 1 -3.93,1.94 5.47,5.47 0 0 1 -3.93,-1.55 6.2,6.2 0 0 1 -1.66,-4.54 6,6 0 0 1 1.66,-4.46 5.67,5.67 0 0 1 3.93,-1.55 4.77,4.77 0 0 1 3.93,1.91 z m -6.31,2.57 a 4.38,4.38 0 0 0 -1.16,3.16 4.43,4.43 0 0 0 1.3,3.38 3.46,3.46 0 0 0 2.46,0.94 3.37,3.37 0 0 0 2.52,-1 4.65,4.65 0 0 0 1.3,-3.32 4.53,4.53 0 0 0 -1.21,-3.24 3.69,3.69 0 0 0 -2.61,-1 3.56,3.56 0 0 0 -2.64,1.03 z"
         inkscape:connector-curvature="0" />
      <path
         id="path854"
         style="fill:#e1c490;fill-opacity:1"
         d="m 114.73,332.25 h 2 v 10 a 4.07,4.07 0 0 1 3.3,-1.6 3.87,3.87 0 0 1 3.29,1.58 5.06,5.06 0 0 1 0.67,3.07 v 7.12 h -2 v -7.06 a 3.38,3.38 0 0 0 -0.52,-2.11 2.26,2.26 0 0 0 -1.89,-0.83 2.49,2.49 0 0 0 -2,0.89 4.86,4.86 0 0 0 -0.83,3.1 v 6 h -2 z"
         inkscape:connector-curvature="0" />
      <polygon
         id="polygon856"
         style="fill:#e1c490;fill-opacity:1"
         points="94.2,334.93 90.46,338.67 89.24,338.01 92.15,333.99 " />
      <path
         id="path858"
         style="fill:#e1c490;fill-opacity:1"
         d="M 55,25.34 V 4.07 L 70.87,20.75 V 4.92 h 2.27 V 26.26 L 57.22,9.58 v 15.76 z"
         inkscape:connector-curvature="0" />
      <path
         id="path860"
         style="fill:#e1c490;fill-opacity:1"
         d="M 87.52,8.83 A 4.86,4.86 0 0 0 86.33,7.3 3.72,3.72 0 0 0 84,6.6 a 3.12,3.12 0 0 0 -3.42,3.15 2.14,2.14 0 0 0 0.76,1.78 6.59,6.59 0 0 0 2.14,1.28 l 2,0.86 a 9.86,9.86 0 0 1 3.16,1.93 4.91,4.91 0 0 1 1.47,3.7 6.55,6.55 0 0 1 -10.9,4.62 7.33,7.33 0 0 1 -1.9,-3.61 l 2.2,-0.61 a 4.88,4.88 0 0 0 1.23,2.6 4.18,4.18 0 0 0 7,-2.91 3.05,3.05 0 0 0 -1,-2.38 8.7,8.7 0 0 0 -2.45,-1.41 L 82.45,14.74 A 9.32,9.32 0 0 1 79.73,13.06 4.25,4.25 0 0 1 78.32,9.72 c 0,-3.15 2.42,-5.26 5.72,-5.26 a 5.55,5.55 0 0 1 3.28,0.91 6.14,6.14 0 0 1 2,2.27 z"
         inkscape:connector-curvature="0" />
      <path
         id="path862"
         style="fill:#e1c490;fill-opacity:1"
         d="M 98,7.07 V 25.34 H 95.73 V 7.07 h -5 V 4.92 H 103 v 2.15 z"
         inkscape:connector-curvature="0" />
      <path
         id="path864"
         style="fill:#e1c490;fill-opacity:1"
         d="m 109.29,4.92 a 8.88,8.88 0 0 1 5,1.14 5.32,5.32 0 0 1 2.23,4.53 5.37,5.37 0 0 1 -5.14,5.63 l 6.49,9.12 h -2.76 L 108.9,16.4 h -0.58 v 8.94 H 106 V 4.92 Z m -1,9.46 h 1.44 c 2.81,0 4.5,-1.35 4.5,-3.73 a 3.16,3.16 0 0 0 -1.63,-3 5.78,5.78 0 0 0 -2.93,-0.58 h -1.38 z"
         inkscape:connector-curvature="0" />
      <path
         id="path866"
         style="fill:#e1c490;fill-opacity:1"
         d="m 123.65,17.44 c 0,1.72 0,3.58 1.62,5 a 5.42,5.42 0 0 0 6.73,0 c 1.63,-1.38 1.63,-3.24 1.63,-5 V 4.92 h 2.26 V 18.06 A 7.83,7.83 0 0 1 134.6,23 7.83,7.83 0 0 1 122.67,23 7.83,7.83 0 0 1 121.38,18.11 V 4.92 h 2.27 z"
         inkscape:connector-curvature="0" />
      <path
         id="path868"
         style="fill:#e1c490;fill-opacity:1"
         d="m 146.34,9.77 a 7.91,7.91 0 0 0 -8.05,8.23 8.05,8.05 0 1 0 16.1,0 7.91,7.91 0 0 0 -8.05,-8.23 z m 0,14 c -2.7,0 -5.34,-1.95 -5.34,-5.79 0,-3.84 2.56,-5.83 5.34,-5.83 2.78,0 5.34,2 5.34,5.83 0,3.83 -2.59,5.82 -5.34,5.82 z"
         inkscape:connector-curvature="0" />
      <polygon
         id="polygon870"
         style="fill:#e1c490;fill-opacity:1"
         points="49.24,7.93 49.24,22.1 50.11,25.34 46.65,25.34 47.52,22.1 47.52,7.93 46.65,4.69 50.11,4.69 " />
      <rect
         id="rect872"
         style="fill:#e1c490;fill-opacity:1"
         height="2.26"
         width="16.280001"
         y="4.7800002"
         x="138.28" />
      <path
         id="path874"
         style="fill:#e1c490;fill-opacity:1;stroke:#666666;stroke-width:2.5px"
         d="M 24.73,121.77"
         inkscape:connector-curvature="0" />
      <polygon
         id="polygon876"
         style="fill:#e1c490;fill-opacity:1"
         points="187.51,166.56 189.31,165.68 193,173.23 193,240.13 191,240.13 191,173.69 " />
      <polygon
         id="polygon878"
         style="fill:#e1c490;fill-opacity:1"
         points="191,238.05 193,238.05 193,307.62 177.28,325.64 175.78,324.32 191,306.87 " />
      <path
         id="path880"
         style="fill:#e1c490;fill-opacity:1"
         d="m 98.37,47 a 0.4,0.4 0 0 1 -0.4,-0.4 v -4.84 a 1.5006748,1.5006748 0 0 1 3,-0.09 v 0.64 a 0.4,0.4 0 0 1 -0.8,0 v -0.64 c 0,-0.17 -0.2,-0.49 -0.68,-0.49 -0.64,0 -0.69,0.44 -0.69,0.58 v 4.83 A 0.4,0.4 0 0 1 98.37,47 Z"
         inkscape:connector-curvature="0" />
      <path
         id="path882"
         style="fill:#e1c490;fill-opacity:1"
         d="M 90.26,213.1"
         inkscape:connector-curvature="0" />
      <path
         id="path884"
         style="fill:#e1c490;fill-opacity:1"
         d="M 108.63,60.32 H 105 V 36.4 h -1.7 v 11.89 a 0.88,0.88 0 0 1 -0.87,0.89 h -1.38 a 0.92,0.92 0 0 1 -0.91,-0.93 v -6.13 h 0.8 v 6.13 a 0.12,0.12 0 0 0 0.11,0.13 h 1.38 c 0,0 0.07,-0.05 0.07,-0.09 V 35.6 h 3.32 v 23.92 h 2 V 46.19 h 3.55 v 0.4 4.65 h 1.86 V 41 h 3.35 v 14.94 h 2.15 v 0.8 h -3 V 41.82 h -1.75 v 9.82 c 0,0.4 0,0.4 -3.06,0.4 h -0.4 V 47 h -2 z"
         inkscape:connector-curvature="0" />
      <rect
         id="rect886"
         style="fill:#e1c490;fill-opacity:1"
         transform="rotate(-45,147.99457,204.10864)"
         height="20.799999"
         width="2"
         y="193.72"
         x="147.00999" />
      <polygon
         id="polygon888"
         style="fill:#e1c490;fill-opacity:1"
         points="121.78,293.49 121.78,302.56 124.85,302.56 124.85,303.26 121.08,303.26 121.08,294.19 118.79,294.19 118.79,303.26 114.67,303.26 114.67,294.19 112.38,294.19 112.38,303.25 111.68,303.25 111.68,293.49 115.37,293.49 115.37,302.56 118.09,302.56 118.09,293.49 " />
      <polygon
         id="polygon890"
         style="fill:#e1c490;fill-opacity:1"
         points="111.68,322.45 111.68,312.69 125.26,312.69 125.26,321.76 131.26,321.76 131.26,322.46 124.56,322.46 124.56,313.39 112.38,313.39 112.38,322.45 " />
      <polygon
         id="polygon892"
         style="fill:#e1c490;fill-opacity:1"
         points="128.19,293.49 128.19,302.56 131.26,302.56 131.26,303.26 127.49,303.26 127.49,294.19 125.2,294.19 125.2,303.26 121.08,303.26 121.08,294.19 118.79,294.19 118.79,303.25 118.09,303.25 118.09,293.49 121.78,293.49 121.78,302.56 124.5,302.56 124.5,293.49 " />
      <rect
         id="rect894"
         style="fill:#e1c490;fill-opacity:1"
         height="2"
         width="93.57"
         y="306.82001"
         x="37.630001" />
      <rect
         id="rect896"
         style="fill:#e1c490;fill-opacity:1"
         height="22.25"
         width="0.69999999"
         y="229.89"
         x="68.059998" />
      <path
         id="path898"
         style="fill:#e1c490;fill-opacity:1"
         d="m 68,72.45 a 0.4,0.4 0 0 1 -0.4,-0.4 c 0,-27.23 0.68,-27.24 1.61,-27.25 0.93,-0.01 1.08,1.31 1.55,4.08 0.21,1.31 0.58,3.5 0.94,3.74 0.65,-0.44 1,-6.46 1.22,-10.45 0.41,-7.36 0.65,-9.22 1.61,-9.22 0.96,0 1.37,2.35 1.82,8.56 0.21,2.84 0.52,7.12 1,7.54 0.31,0 0.4,-0.94 0.5,-1.84 l 0.09,-0.83 c 0.19,-1.35 0.73,-2.17 1.45,-2.18 v 0 c 0.74,0 1.31,0.87 1.55,2.32 0.23,1.8 0.63,2.34 0.75,2.39 0.12,0.05 0.45,-0.6 0.62,-2.37 0,-0.39 0.07,-0.78 0.1,-1.17 0.13,-1.89 0.25,-3.53 1.37,-3.53 1.12,0 1.2,2.1 1.4,8.09 0.11,3.12 0.29,8.35 1,8.72 0.77,-0.52 1.12,-8 1.35,-13 C 88,35.84 88.3,33 89.47,33 c 1.17,0 1.25,1.93 1.47,5.63 0.1,1.62 0.33,5.41 0.87,5.41 0.26,0 0.59,-1.32 0.74,-2 0.37,-1.52 0.76,-3.09 1.94,-3.09 1.34,0 1.51,2.6 1.67,6.84 0.08,1.91 0.23,5.9 0.82,5.9 a 0.46,0.46 0 0 1 0.2,0.05 c 0,0 0.75,-0.42 0.79,-5.19 a 0.4,0.4 0 0 1 0.4,-0.4 v 0 a 0.4,0.4 0 0 1 0.4,0.4 c 0,3.48 -0.44,5.39 -1.25,5.86 a 0.79,0.79 0 0 1 -0.62,0.08 c -1.22,-0.11 -1.37,-2.5 -1.54,-6.67 -0.07,-2 -0.23,-6.07 -0.87,-6.07 -0.64,0 -0.91,1.43 -1.16,2.48 -0.34,1.38 -0.63,2.57 -1.52,2.57 -1.23,0 -1.43,-2.34 -1.66,-6.16 -0.11,-1.75 -0.27,-4.36 -0.66,-4.84 -0.65,0.89 -0.94,7.21 -1.16,11.86 -0.45,9.77 -0.77,13.75 -2.16,13.75 -1.39,0 -1.52,-2.86 -1.75,-9.41 -0.09,-2.83 -0.22,-6.68 -0.66,-7.3 -0.33,0.18 -0.45,1.85 -0.52,2.77 0,0.39 0,0.79 -0.09,1.19 -0.14,1.4 -0.5,3.07 -1.43,3.09 -0.72,0 -1.26,-1 -1.54,-3.08 C 80,45.41 79.58,45 79.43,45 c -0.15,0 -0.51,0.38 -0.66,1.49 0,0.27 -0.07,0.54 -0.1,0.8 -0.13,1.25 -0.26,2.54 -1.37,2.54 -1.11,0 -1.3,-2.27 -1.75,-8.26 -0.2,-2.77 -0.49,-6.87 -1,-7.71 -0.42,0.94 -0.67,5.2 -0.85,8.36 -0.44,7.78 -0.77,11.19 -2.07,11.19 v 0 c -0.9,0 -1.21,-1.59 -1.67,-4.4 a 18.41,18.41 0 0 0 -0.73,-3.28 c -0.75,1.89 -0.84,15.81 -0.84,26.32 A 0.4,0.4 0 0 1 68,72.45 Z"
         inkscape:connector-curvature="0" />
      <path
         id="path900"
         style="fill:#e1c490;fill-opacity:1"
         d="m 132.05,81.55 h -0.8 V 47 h -1.38 v 6.87 h -3.31 v -14.7 h -2 v 7.88 H 121 v -13.3 h -1.86 v 23 h -3 v -0.8 c 1,0 1.72,0 2.15,0 V 33 h 3.46 v 13.3 h 2 v -7.93 h 3.59 v 14.72 h 1.71 v -6.87 h 3 z"
         inkscape:connector-curvature="0" />
      <path
         id="path902"
         style="fill:#e1c490;fill-opacity:1"
         d="M 38.58,73.53 V 80.2 H 37.84 V 73.53 Z"
         inkscape:connector-curvature="0" />
      <path
         id="path904"
         style="fill:#e1c490;fill-opacity:1"
         d="m 40.3,80.2 v -7 l 5.2,5.45 v -5.12 h 0.74 v 7 L 41,75.05 v 5.15 z"
         inkscape:connector-curvature="0" />
      <path
         id="path906"
         style="fill:#e1c490;fill-opacity:1"
         d="m 152.7,76.87 a 3.47,3.47 0 1 1 3.47,3.45 3.4,3.4 0 0 1 -3.47,-3.45 z m 0.76,0 a 2.71,2.71 0 1 0 2.71,-2.75 2.72,2.72 0 0 0 -2.71,2.75 z"
         inkscape:connector-curvature="0" />
      <path
         id="path908"
         style="fill:#e1c490;fill-opacity:1"
         d="m 161.74,77.62 a 1.9,1.9 0 0 0 0.53,1.62 1.78,1.78 0 0 0 2.2,0 1.9,1.9 0 0 0 0.53,-1.62 v -4.09 h 0.74 v 4.29 a 2.58,2.58 0 0 1 -0.42,1.6 2.56,2.56 0 0 1 -3.9,0 2.58,2.58 0 0 1 -0.42,-1.6 v -4.29 h 0.74 z"
         inkscape:connector-curvature="0" />
      <path
         id="path910"
         style="fill:#e1c490;fill-opacity:1"
         d="m 169.1,74.23 v 6 h -0.74 v -6 h -1.62 v -0.7 h 4 v 0.7 z"
         inkscape:connector-curvature="0" />
      <path
         id="path912"
         style="fill:#e1c490;fill-opacity:1"
         d="m 153,295.41 a 1.61,1.61 0 0 0 -0.39,-0.5 1.2,1.2 0 0 0 -0.75,-0.23 1,1 0 0 0 -1.12,1 0.7,0.7 0 0 0 0.25,0.58 2.18,2.18 0 0 0 0.7,0.42 l 0.64,0.28 a 3.24,3.24 0 0 1 1,0.63 1.61,1.61 0 0 1 0.48,1.21 2.14,2.14 0 0 1 -3.56,1.51 2.42,2.42 0 0 1 -0.62,-1.18 l 0.72,-0.2 a 1.57,1.57 0 0 0 0.4,0.85 1.37,1.37 0 0 0 2.3,-0.95 1,1 0 0 0 -0.33,-0.78 2.91,2.91 0 0 0 -0.8,-0.46 l -0.6,-0.28 a 3,3 0 0 1 -0.89,-0.55 1.39,1.39 0 0 1 -0.46,-1.09 1.72,1.72 0 0 1 1.87,-1.72 1.81,1.81 0 0 1 1.07,0.3 2,2 0 0 1 0.65,0.74 z"
         inkscape:connector-curvature="0" />
      <path
         id="path914"
         style="fill:#e1c490;fill-opacity:1"
         d="m 155.92,294.09 v 6 h 1.84 v 0.7 h -2.58 v -6.67 z"
         inkscape:connector-curvature="0" />
      <path
         id="path916"
         style="fill:#e1c490;fill-opacity:1"
         d="m 162.22,294.79 h -2.72 v 2 h 2.64 v 0.7 h -2.64 v 2.59 h 2.72 v 0.7 h -3.46 v -6.67 h 3.46 z"
         inkscape:connector-curvature="0" />
      <path
         id="path918"
         style="fill:#e1c490;fill-opacity:1"
         d="m 163.62,294.09 1.76,5 2.09,-5.34 2,5.34 1.94,-5 h 0.82 l -2.79,7 -2,-5.34 -2.1,5.34 -2.56,-7 z"
         inkscape:connector-curvature="0" />
      <path
         id="path920"
         style="fill:#e1c490;fill-opacity:1"
         d="m 67.91,312.85 a 2.92,2.92 0 0 1 1.62,0.37 1.85,1.85 0 0 1 -1,3.32 l 2.12,3 h -0.9 l -2,-2.92 h -0.19 v 2.92 h -0.74 v -6.67 z m -0.33,3.09 h 0.47 c 0.92,0 1.47,-0.44 1.47,-1.22 a 1,1 0 0 0 -0.53,-1 1.9,1.9 0 0 0 -1,-0.19 h -0.45 z"
         inkscape:connector-curvature="0" />
      <path
         id="path922"
         style="fill:#e1c490;fill-opacity:1"
         d="M 75.54,317.64 H 72.7 l -0.8,1.88 h -0.82 l 3.07,-7 3,7 h -0.82 z m -0.29,-0.7 -1.12,-2.67 -1.13,2.67 z"
         inkscape:connector-curvature="0" />
      <path
         id="path924"
         style="fill:#e1c490;fill-opacity:1"
         d="m 79.27,313.55 v 6 h -0.74 v -6 h -1.62 v -0.7 h 4 v 0.7 z"
         inkscape:connector-curvature="0" />
      <path
         id="path926"
         style="fill:#e1c490;fill-opacity:1"
         d="m 85.35,313.55 h -2.72 v 2 h 2.64 v 0.7 h -2.64 v 2.59 h 2.72 v 0.7 h -3.46 v -6.67 h 3.46 z"
         inkscape:connector-curvature="0" />
      <path
         id="path928"
         style="fill:#e1c490;fill-opacity:1"
         d="m 17,269.12 v 6 h 1.84 v 0.7 h -2.59 v -6.67 z"
         inkscape:connector-curvature="0" />
      <path
         id="path930"
         style="fill:#e1c490;fill-opacity:1"
         d="m 23.29,269.82 h -2.72 v 2 h 2.64 v 0.7 h -2.64 v 2.59 h 2.72 v 0.7 h -3.46 v -6.67 h 3.46 z"
         inkscape:connector-curvature="0" />
      <path
         id="path932"
         style="fill:#e1c490;fill-opacity:1"
         d="m 24.69,269.12 1.88,5.09 1.88,-5.09 h 0.82 l -2.7,7.07 -2.7,-7.07 z"
         inkscape:connector-curvature="0" />
      <path
         id="path934"
         style="fill:#e1c490;fill-opacity:1"
         d="M 33.67,269.82 H 31 v 2 h 2.64 v 0.7 H 31 v 2.59 h 2.72 v 0.7 h -3.51 v -6.67 h 3.46 z"
         inkscape:connector-curvature="0" />
      <path
         id="path936"
         style="fill:#e1c490;fill-opacity:1"
         d="m 35.77,269.12 v 6 h 1.84 v 0.7 H 35 v -6.67 z"
         inkscape:connector-curvature="0" />
      <path
         id="path938"
         style="fill:#e1c490;fill-opacity:1"
         d="m 136.06,211.92 h 2.73 v -2.17 h 0.59 v 5.34 h -0.59 v -2.61 h -2.73 v 2.61 h -0.59 v -5.34 h 0.59 z"
         inkscape:connector-curvature="0" />
      <path
         id="path940"
         style="fill:#e1c490;fill-opacity:1"
         d="m 144.87,213.14 a 9.43,9.43 0 0 1 -0.68,0.79 l 0.89,1.16 h -0.74 l -0.57,-0.75 a 2.59,2.59 0 0 1 -1.72,0.84 1.48,1.48 0 0 1 -1.54,-1.47 1.52,1.52 0 0 1 0.48,-1.11 5.89,5.89 0 0 1 0.89,-0.66 1.92,1.92 0 0 1 -0.53,-1.15 1.1,1.1 0 0 1 1.16,-1.12 1.06,1.06 0 0 1 1.13,1.07 1.24,1.24 0 0 1 -0.49,1 c -0.14,0.12 -0.09,0 -0.44,0.34 l 1.12,1.43 a 7,7 0 0 0 0.6,-0.7 z m -2.64,-0.76 a 4.73,4.73 0 0 0 -0.76,0.55 1,1 0 0 0 -0.37,0.77 0.92,0.92 0 0 0 0.94,0.94 2.39,2.39 0 0 0 1.37,-0.73 z m 0.14,-0.76 0.35,-0.27 a 0.73,0.73 0 0 0 0.36,-0.62 0.53,0.53 0 0 0 -0.57,-0.55 0.58,0.58 0 0 0 -0.6,0.58 0.89,0.89 0 0 0 0.22,0.53 z"
         inkscape:connector-curvature="0" />
      <path
         id="path942"
         style="fill:#e1c490;fill-opacity:1"
         d="m 147.16,210.31 v 4.78 h -0.59 v -4.78 h -1.29 v -0.56 h 3.18 v 0.56 z"
         inkscape:connector-curvature="0" />
      <path
         id="path944"
         style="fill:#e1c490;fill-opacity:1"
         d="m 153.63,195.76 a 1.13,1.13 0 0 0 -0.31,-0.4 1,1 0 0 0 -0.6,-0.19 0.82,0.82 0 0 0 -0.9,0.83 0.55,0.55 0 0 0 0.2,0.46 1.79,1.79 0 0 0 0.56,0.34 l 0.51,0.22 a 2.87,2.87 0 0 1 0.83,0.5 1.31,1.31 0 0 1 0.38,1 1.72,1.72 0 0 1 -2.85,1.21 1.94,1.94 0 0 1 -0.49,-0.94 l 0.57,-0.16 a 1.27,1.27 0 0 0 0.32,0.68 1,1 0 0 0 0.77,0.29 1,1 0 0 0 1.07,-1 0.82,0.82 0 0 0 -0.26,-0.63 2.46,2.46 0 0 0 -0.64,-0.37 l -0.48,-0.22 a 2.46,2.46 0 0 1 -0.71,-0.44 1.11,1.11 0 0 1 -0.37,-0.87 1.38,1.38 0 0 1 1.49,-1.38 1.49,1.49 0 0 1 0.86,0.24 1.59,1.59 0 0 1 0.52,0.6 z"
         inkscape:connector-curvature="0" />
      <path
         id="path946"
         style="fill:#e1c490;fill-opacity:1"
         d="m 159.49,198.08 a 6.62,6.62 0 0 1 -0.68,0.8 l 0.9,1.16 H 159 l -0.57,-0.75 a 2.68,2.68 0 0 1 -1.72,0.84 1.49,1.49 0 0 1 -1.55,-1.48 1.53,1.53 0 0 1 0.48,-1.1 6.93,6.93 0 0 1 0.9,-0.67 1.87,1.87 0 0 1 -0.53,-1.14 1.1,1.1 0 0 1 1.16,-1.13 1.07,1.07 0 0 1 1.13,1.08 1.21,1.21 0 0 1 -0.5,1 c -0.13,0.12 -0.09,0.06 -0.43,0.35 l 1.11,1.43 a 7,7 0 0 0 0.61,-0.71 z m -2.64,-0.76 a 4.43,4.43 0 0 0 -0.75,0.56 1,1 0 0 0 -0.37,0.76 0.92,0.92 0 0 0 0.94,1 2.39,2.39 0 0 0 1.37,-0.74 z m 0.15,-0.76 0.35,-0.27 a 0.75,0.75 0 0 0 0.36,-0.61 0.54,0.54 0 0 0 -0.58,-0.55 0.57,0.57 0 0 0 -0.59,0.58 0.85,0.85 0 0 0 0.22,0.53 z"
         inkscape:connector-curvature="0" />
      <path
         id="path948"
         style="fill:#e1c490;fill-opacity:1"
         d="m 161.07,196.87 h 2.73 v -2.17 h 0.6 v 5.3 h -0.6 v -2.61 h -2.73 V 200 h -0.59 v -5.3 h 0.59 z"
         inkscape:connector-curvature="0" />
      <path
         id="path950"
         style="fill:#e1c490;fill-opacity:1"
         d="m 174.36,129.65 a 3.29,3.29 0 0 0 -0.87,-0.62 3,3 0 0 0 -1.15,-0.26 2.75,2.75 0 0 0 0,5.5 2.77,2.77 0 0 0 1.24,-0.31 3,3 0 0 0 0.77,-0.56 v 0.92 a 3.47,3.47 0 0 1 -2,0.65 3.45,3.45 0 1 1 0,-6.89 3.18,3.18 0 0 1 2,0.65 z"
         inkscape:connector-curvature="0" />
      <path
         id="path952"
         style="fill:#e1c490;fill-opacity:1"
         d="m 176.46,128.19 v 6 h 1.84 v 0.7 h -2.58 v -6.66 z"
         inkscape:connector-curvature="0" />
      <path
         id="path954"
         style="fill:#e1c490;fill-opacity:1"
         d="m 180,131 2.84,-2.85 h 1 l -3.12,3.1 3.22,3.56 h -1 L 180.21,131.75 180,132 v 2.87 h -0.74 v -6.66 H 180 Z"
         inkscape:connector-curvature="0" />
      <path
         id="path956"
         style="fill:#e1c490;fill-opacity:1"
         d="m 188.05,128.19 v 6.66 h -0.74 v -6.66 z"
         inkscape:connector-curvature="0" />
      <path
         id="path958"
         style="fill:#e1c490;fill-opacity:1"
         d="m 189.77,134.85 v -6.94 l 5.2,5.44 v -5.16 h 0.74 v 7 l -5.2,-5.45 v 5.15 z"
         inkscape:connector-curvature="0" />
      <path
         id="path960"
         style="fill:#e1c490;fill-opacity:1"
         d="m 79.48,245.34 a 0.39,0.39 0 0 1 -0.39,-0.38 c 0,-2.91 -1.39,-5.37 -3,-5.37 -1.61,0 -3.09,2.46 -3.09,5.41 h -0.77 c 0,-3.44 1.68,-6.14 3.82,-6.14 2.14,0 3.65,2.42 3.81,5.6 a 0.31,0.31 0 0 1 0,0.1 v 0.13 0 0.31 a 0.38,0.38 0 0 1 -0.38,0.34 z"
         inkscape:connector-curvature="0" />
      <path
         id="path962"
         style="fill:#e1c490;fill-opacity:1"
         d="M 86.36,245.34 A 0.39,0.39 0 0 1 86,245 c 0,-2.91 -1.39,-5.37 -3,-5.37 -1.61,0 -3,2.46 -3,5.37 h -0.9 c 0,-3.44 1.68,-6.14 3.82,-6.14 2.14,0 3.65,2.42 3.81,5.6 a 0.3,0.3 0 0 1 0,0.1 v 0.13 0 0.31 a 0.39,0.39 0 0 1 -0.37,0.34 z"
         inkscape:connector-curvature="0" />
      <path
         id="path964"
         style="fill:#e1c490;fill-opacity:1"
         d="m 82.48,250.49 h -0.06 a 2.77,2.77 0 0 1 -0.41,-0.12 0.26,0.26 0 0 1 -0.15,-0.35 0.26,0.26 0 0 1 0.35,-0.15 l 0.32,0.1 a 0.27,0.27 0 0 1 0.21,0.32 0.28,0.28 0 0 1 -0.26,0.2 z m 1.14,-0.07 a 0.27,0.27 0 0 1 -0.26,-0.18 0.28,0.28 0 0 1 0.17,-0.35 1.23,1.23 0 0 0 0.31,-0.14 0.29,0.29 0 0 1 0.37,0.12 0.26,0.26 0 0 1 -0.12,0.36 1.71,1.71 0 0 1 -0.39,0.17 z m -2.46,-0.69 a 0.24,0.24 0 0 1 -0.19,-0.08 2.68,2.68 0 0 1 -0.28,-0.3 0.27,0.27 0 0 1 0,-0.38 0.26,0.26 0 0 1 0.38,0 l 0.24,0.26 a 0.28,0.28 0 0 1 0,0.38 0.24,0.24 0 0 1 -0.15,0.12 z m 3.7,-0.2 a 0.26,0.26 0 0 1 -0.21,-0.44 3.25,3.25 0 0 0 0.23,-0.29 0.27,0.27 0 0 1 0.38,-0.05 0.26,0.26 0 0 1 0.06,0.37 c -0.09,0.12 -0.17,0.22 -0.26,0.32 a 0.27,0.27 0 0 1 -0.2,0.09 z m -4.58,-1.06 a 0.25,0.25 0 0 1 -0.24,-0.15 3,3 0 0 1 -0.17,-0.36 0.27,0.27 0 1 1 0.49,-0.21 3.36,3.36 0 0 0 0.16,0.33 0.28,0.28 0 0 1 -0.12,0.37 z m 5.39,-0.24 h -0.11 a 0.28,0.28 0 0 1 -0.13,-0.36 c 0,-0.11 0.09,-0.23 0.14,-0.34 a 0.27,0.27 0 0 1 0.35,-0.16 0.26,0.26 0 0 1 0.15,0.35 l -0.15,0.37 a 0.27,0.27 0 0 1 -0.25,0.14 z M 79.75,247 a 0.27,0.27 0 0 1 -0.26,-0.21 l -0.09,-0.38 a 0.27064737,0.27064737 0 1 1 0.53,-0.11 c 0,0.12 0,0.24 0.08,0.36 a 0.27,0.27 0 0 1 -0.2,0.33 z m 6.4,-0.26 h -0.06 a 0.27,0.27 0 0 1 -0.21,-0.32 c 0,-0.12 0.05,-0.25 0.08,-0.37 a 0.26,0.26 0 0 1 0.31,-0.22 0.28,0.28 0 0 1 0.22,0.31 c 0,0.13 0,0.26 -0.08,0.39 a 0.27,0.27 0 0 1 -0.26,0.24 z m -6.65,-1.26 a 0.27,0.27 0 0 1 -0.27,-0.26 c 0,-0.13 0,-0.26 0,-0.39 a 0.23,0.23 0 0 1 0,-0.14 0.24,0.24 0 0 1 0,-0.14 c 0,-0.13 0,-0.25 0,-0.38 a 0.27,0.27 0 0 1 0.25,-0.29 0.28,0.28 0 0 1 0.29,0.25 c 0,0.13 0,0.26 0,0.39 a 0.37,0.37 0 0 1 0,0.15 0.33,0.33 0 0 1 0,0.14 c 0,0.13 0,0.25 0,0.38 a 0.26,0.26 0 0 1 -0.25,0.28 z m 6.84,-0.27 v 0 a 0.27,0.27 0 0 1 -0.25,-0.29 v -0.37 a 0.28,0.28 0 0 1 0.27,-0.27 v 0 a 0.25,0.25 0 0 1 0.26,0.27 c 0,0.14 0,0.27 0,0.4 a 0.27,0.27 0 0 1 -0.28,0.29 z m -13.74,0 a 0.27,0.27 0 0 1 -0.27,-0.26 c 0,-0.14 0,-0.27 0,-0.4 a 0.28,0.28 0 0 1 0.28,-0.26 0.27,0.27 0 0 1 0.26,0.28 c 0,0.12 0,0.25 0,0.38 a 0.27,0.27 0 0 1 -0.27,0.27 z m 0.13,-1.53 v 0 a 0.28,0.28 0 0 1 -0.22,-0.31 c 0,-0.14 0.05,-0.27 0.07,-0.4 a 0.27064737,0.27064737 0 1 1 0.53,0.11 c 0,0.12 0,0.25 -0.07,0.37 a 0.26,0.26 0 0 1 -0.31,0.24 z m 6.55,-0.38 a 0.27,0.27 0 0 1 -0.26,-0.22 l -0.09,-0.36 a 0.27,0.27 0 0 1 0.2,-0.33 0.27,0.27 0 0 1 0.33,0.19 l 0.09,0.39 a 0.27,0.27 0 0 1 -0.21,0.32 z m -6.16,-1.11 h -0.1 a 0.27,0.27 0 0 1 -0.16,-0.35 l 0.15,-0.37 a 0.28,0.28 0 0 1 0.36,-0.14 0.27,0.27 0 0 1 0.14,0.36 3.45,3.45 0 0 0 -0.14,0.34 0.27,0.27 0 0 1 -0.25,0.17 z m 5.7,-0.36 a 0.28,0.28 0 0 1 -0.25,-0.17 c 0,-0.11 -0.1,-0.22 -0.16,-0.33 a 0.27060118,0.27060118 0 0 1 0.48,-0.25 l 0.18,0.37 a 0.27,0.27 0 0 1 -0.14,0.35 z m -5,-1 a 0.27,0.27 0 0 1 -0.15,-0.05 0.27,0.27 0 0 1 -0.07,-0.38 l 0.25,-0.32 a 0.27335874,0.27335874 0 0 1 0.42,0.35 c -0.08,0.09 -0.15,0.19 -0.23,0.29 a 0.27,0.27 0 0 1 -0.22,0.11 z m 4.2,-0.31 a 0.29,0.29 0 0 1 -0.21,-0.09 l -0.24,-0.27 a 0.27,0.27 0 1 1 0.37,-0.38 2.68,2.68 0 0 1 0.28,0.3 0.27,0.27 0 0 1 0,0.38 0.32,0.32 0 0 1 -0.22,0.06 z m -3.08,-0.74 a 0.27,0.27 0 0 1 -0.24,-0.14 0.26,0.26 0 0 1 0.1,-0.36 2.33,2.33 0 0 1 0.39,-0.19 0.2721213,0.2721213 0 1 1 0.19,0.51 1.77,1.77 0 0 0 -0.31,0.15 0.31,0.31 0 0 1 -0.13,0.03 z m 1.85,-0.17 H 76.7 l -0.33,-0.09 a 0.27,0.27 0 0 1 -0.21,-0.32 0.26,0.26 0 0 1 0.31,-0.21 2.17,2.17 0 0 1 0.42,0.11 0.27,0.27 0 0 1 0.16,0.35 0.27,0.27 0 0 1 -0.26,0.16 z"
         inkscape:connector-curvature="0" />
      <path
         id="path966"
         style="fill:#e1c490;fill-opacity:1"
         d="m 59.67,250.87 c -2,0 -3.64,-2.42 -3.81,-5.59 a 0.41,0.41 0 0 1 0,-0.11 c 0,-2.9 -1.4,-5.36 -3.06,-5.36 -1.66,0 -3,2.46 -3,5.36 a 0.39,0.39 0 1 1 -0.77,0 c 0,-3.44 1.68,-6.13 3.82,-6.13 2.14,0 3.65,2.42 3.81,5.59 a 0.43,0.43 0 0 1 0,0.11 c 0,2.9 1.4,5.36 3.05,5.36 1.65,0 3,-2.46 3,-5.36 a 0.39,0.39 0 0 1 0.78,0 c 0.01,3.44 -1.67,6.13 -3.82,6.13 z"
         inkscape:connector-curvature="0" />
      <path
         id="path968"
         style="fill:#e1c490;fill-opacity:1"
         d="m 18.22,137.23 a 0.28,0.28 0 0 1 -0.29,-0.22 l -2,-12.23 -0.87,7.55 a 0.3,0.3 0 0 1 -0.28,0.23 0.28,0.28 0 0 1 -0.3,-0.21 l -0.75,-3.28 c -0.3,2.37 -0.67,5.36 -0.67,5.8 a 0.31,0.31 0 0 1 -0.28,0.29 c -0.12,0 -0.2,0 -0.31,-0.29 v 0 c -0.22,-0.62 -0.55,-2.48 -1.52,-8.09 l -0.78,3.43 a 0.3,0.3 0 0 1 -0.35,0.2 0.26,0.26 0 0 1 -0.23,-0.3 l 1.11,-4.87 A 0.28,0.28 0 0 1 11,125 a 0.27,0.27 0 0 1 0.28,0.22 c 0.42,2.43 1,5.72 1.38,7.74 0.25,-2.18 0.68,-5.43 0.7,-5.63 a 0.3,0.3 0 0 1 0.28,-0.23 0.31,0.31 0 0 1 0.3,0.21 l 0.73,3.21 0.91,-7.92 a 0.28,0.28 0 0 1 0.29,-0.23 v 0 a 0.28,0.28 0 0 1 0.29,0.22 l 2,12.32 0.72,-5.68 a 0.3,0.3 0 0 1 0.28,-0.23 0.33,0.33 0 0 1 0.31,0.21 l 0.94,4 1.08,-9.13 a 0.28,0.28 0 0 1 0.29,-0.23 0.29,0.29 0 0 1 0.3,0.22 l 1.19,7.43 0.67,-4.75 a 0.28,0.28 0 0 1 0.29,-0.23 v 0 a 0.29,0.29 0 0 1 0.29,0.22 l 1,6.6 0.81,-3.27 a 0.3,0.3 0 0 1 0.35,-0.2 0.25,0.25 0 0 1 0.22,0.31 L 25.77,135 a 0.31,0.31 0 0 1 -0.3,0.21 0.29,0.29 0 0 1 -0.28,-0.23 l -0.92,-6.06 -0.66,4.69 a 0.28,0.28 0 0 1 -0.29,0.23 v 0 a 0.3,0.3 0 0 1 -0.3,-0.23 l -1.16,-7.26 -1,8.68 a 0.27,0.27 0 0 1 -0.28,0.23 0.28,0.28 0 0 1 -0.3,-0.2 l -1,-4.07 -0.76,6.01 a 0.29,0.29 0 0 1 -0.29,0.22 z"
         inkscape:connector-curvature="0" />
      <path
         id="path970"
         style="fill:#e1c490;fill-opacity:1"
         d="m 34.39,125.84 a 0.28,0.28 0 0 1 0.29,0.22 l 2,12.23 0.87,-7.54 a 0.28,0.28 0 0 1 0.28,-0.24 0.31,0.31 0 0 1 0.3,0.21 l 0.74,3.28 c 0.31,-2.37 0.68,-5.35 0.68,-5.8 a 0.31,0.31 0 0 1 0.27,-0.29 c 0.13,0 0.21,0 0.31,0.29 v 0 c 0.22,0.62 0.55,2.49 1.52,8.09 l 0.78,-3.43 a 0.29,0.29 0 0 1 0.35,-0.2 A 0.27,0.27 0 0 1 43,133 l -1.11,4.87 a 0.29,0.29 0 0 1 -0.3,0.2 0.27,0.27 0 0 1 -0.28,-0.22 c -0.42,-2.43 -1,-5.71 -1.38,-7.73 -0.25,2.18 -0.68,5.43 -0.7,5.62 a 0.29,0.29 0 0 1 -0.29,0.23 0.28,0.28 0 0 1 -0.3,-0.21 l -0.64,-3.24 -1,7.92 a 0.27,0.27 0 0 1 -0.28,0.23 v 0 a 0.28,0.28 0 0 1 -0.29,-0.22 l -2,-12.32 -0.73,5.68 a 0.27,0.27 0 0 1 -0.28,0.23 0.3,0.3 0 0 1 -0.3,-0.21 l -0.95,-4 -1.08,9.12 a 0.27,0.27 0 0 1 -0.28,0.23 0.29,0.29 0 0 1 -0.3,-0.22 l -1.19,-7.42 -0.67,4.75 a 0.29,0.29 0 0 1 -0.29,0.22 v 0 a 0.29,0.29 0 0 1 -0.3,-0.22 l -1,-6.59 -0.8,3.3 a 0.3,0.3 0 0 1 -0.35,0.19 0.26,0.26 0 0 1 -0.23,-0.3 l 1.17,-4.72 a 0.29,0.29 0 0 1 0.3,-0.2 0.28,0.28 0 0 1 0.28,0.22 l 0.92,6.06 0.66,-4.69 a 0.28,0.28 0 0 1 0.29,-0.22 v 0 a 0.28,0.28 0 0 1 0.29,0.22 l 1.17,7.26 1,-8.68 a 0.29,0.29 0 0 1 0.28,-0.23 0.28,0.28 0 0 1 0.31,0.21 l 1,4.07 0.78,-6.07 a 0.28,0.28 0 0 1 0.29,-0.23 z"
         inkscape:connector-curvature="0" />
    </g>
  </g>
</svg>
