<?xml version="1.0" encoding="UTF-8" standalone="no"?>
<svg
   xmlns:dc="http://purl.org/dc/elements/1.1/"
   xmlns:cc="http://creativecommons.org/ns#"
   xmlns:rdf="http://www.w3.org/1999/02/22-rdf-syntax-ns#"
   xmlns:svg="http://www.w3.org/2000/svg"
   xmlns="http://www.w3.org/2000/svg"
   xmlns:sodipodi="http://sodipodi.sourceforge.net/DTD/sodipodi-0.dtd"
   xmlns:inkscape="http://www.inkscape.org/namespaces/inkscape"
   sodipodi:docname="troika (Inkscape Render) V6.svg"
   inkscape:version="1.0 (4035a4f, 2020-05-01)"
   id="svg13427"
   version="1.1"
   viewBox="0 0 162.56 128.5"
   height="128.5mm"
   width="162.56mm">
  <defs
     id="defs13421" />
  <sodipodi:namedview
     inkscape:window-maximized="0"
     inkscape:window-y="23"
     inkscape:window-x="0"
     inkscape:window-height="855"
     inkscape:window-width="1440"
     showgrid="false"
     inkscape:document-rotation="0"
     inkscape:current-layer="layer1"
     inkscape:document-units="mm"
     inkscape:cy="230.29059"
     inkscape:cx="214.24903"
     inkscape:zoom="1.3386319"
     inkscape:pageshadow="2"
     inkscape:pageopacity="0.0"
     borderopacity="1.0"
     bordercolor="#666666"
     pagecolor="#ffffff"
     id="base" />
  <metadata
     id="metadata13424">
    <rdf:RDF>
      <cc:Work
         rdf:about="">
        <dc:format>image/svg+xml</dc:format>
        <dc:type
           rdf:resource="http://purl.org/dc/dcmitype/StillImage" />
        <dc:title></dc:title>
      </cc:Work>
    </rdf:RDF>
  </metadata>
  <g
     id="layer1"
     inkscape:groupmode="layer"
     inkscape:label="Layer 1">
    <g
       transform="scale(0.3527778)"
       id="Layer_3"
       data-name="Layer 3"
       style="fill:#1f1f1f;fill-opacity:1">
      <rect
         width="460.79999"
         height="364.25"
         style="fill:#1f1f1f;fill-opacity:1"
         id="rect833"
         x="0"
         y="0" />
    </g>
    <path
       id="path836"
       style="fill:#e0c490;fill-opacity:1;stroke-width:0.352777"
       d="m 59.693534,11.680473 a 7.5247503,7.5247503 0 0 0 -5.36575,2.229555 c -3.048,2.889251 -3.67595,2.910417 -5.53156,2.970389 h -0.0459 c -0.70555,0.02117 -2.34244,0.07761 -4.88244,-2.250722 l -0.26458,-0.271639 a 17.250834,17.250834 0 1 0 4.72722,17.391947 l 0.35278,-1.411113 a 6.5898892,6.5898892 0 0 1 6.17361,-4.328583 6.4523059,6.4523059 0 0 1 1.83091,0.261055 l 0.83609,0.299861 a 7.5882503,7.5882503 0 1 0 2.16253,-14.862528 z m 0,14.111112 a 6.4346669,6.4346669 0 0 1 -1.83092,-0.261056 l -0.83961,-0.299861 a 7.6200003,7.6200003 0 0 0 -9.34156,4.755445 l -0.35277,1.471083 a 16.27364,16.27364 0 1 1 -4.46617,-16.344195 l 0.27164,0.275166 c 2.87514,2.638778 4.89655,2.575278 5.64444,2.550584 h 0.0459 c 2.19075,-0.06703 3.03389,-0.232834 6.23359,-3.27025 a 6.5299169,6.5299169 0 1 1 4.63197,11.133667 z" />
    <path
       id="path838"
       style="fill:#e0c490;fill-opacity:1;stroke-width:0.352777"
       d="m 59.693534,49.780476 a 7.5247503,7.5247503 0 0 0 -5.36575,2.229554 c -3.048,2.88925 -3.67595,2.910416 -5.53156,2.970389 h -0.0459 c -0.70555,0.02117 -2.34244,0.07761 -4.88244,-2.250723 l -0.26458,-0.271637 a 17.254362,17.254362 0 1 0 4.72722,17.391944 l 0.35278,-1.411111 a 6.5898892,6.5898892 0 0 1 6.17361,-4.328583 6.4523059,6.4523059 0 0 1 1.83091,0.261057 l 0.83609,0.29986 a 7.5882503,7.5882503 0 1 0 2.16253,-14.86253 z m 0,14.11111 a 6.4346669,6.4346669 0 0 1 -1.83092,-0.261054 l -0.83961,-0.299863 a 7.6200003,7.6200003 0 0 0 -9.34156,4.755447 l -0.35277,1.471083 a 16.27364,16.27364 0 1 1 -4.46617,-16.344196 l 0.27164,0.275166 c 2.87514,2.638777 4.89303,2.575277 5.64444,2.550584 h 0.0459 c 2.19075,-0.06703 3.03389,-0.232834 6.23359,-3.27025 a 6.5299169,6.5299169 0 1 1 4.63197,11.133666 z" />
    <path
       id="path840"
       style="fill:#e0c490;fill-opacity:1;stroke-width:0.352777"
       d="m 59.693534,87.880476 a 7.5247503,7.5247503 0 0 0 -5.36575,2.229556 c -3.048,2.88925 -3.67242,2.910417 -5.53156,2.97039 h -0.0459 c -0.70555,0.02822 -2.33891,0.08114 -4.88244,-2.250723 l -0.26458,-0.27164 a 17.254362,17.254362 0 1 0 4.72722,17.391951 l 0.35278,-1.41111 a 6.5898892,6.5898892 0 0 1 6.17361,-4.32859 6.4523059,6.4523059 0 0 1 1.83091,0.26106 l 0.83609,0.29986 a 7.5882503,7.5882503 0 1 0 2.16253,-14.862531 z m 0,14.111114 a 6.5616669,6.5616669 0 0 1 -1.83092,-0.26106 l -0.83961,-0.30338 a 7.6200003,7.6200003 0 0 0 -9.34156,4.75897 l -0.35277,1.47108 a 16.277167,16.277167 0 1 1 -4.46617,-16.344195 l 0.27164,0.275167 c 2.88219,2.645833 4.89655,2.575277 5.64444,2.550583 h 0.0459 c 2.19075,-0.06703 3.03389,-0.232833 6.23359,-3.27025 a 6.5299169,6.5299169 0 1 1 4.63197,11.137195 z" />
    <path
       id="path844"
       style="fill:#e0c490;fill-opacity:1;stroke-width:0.352777"
       d="m 85.093534,11.641667 a 7.6270559,7.6270559 0 0 0 -7.10495,10.410473 l 0.49742,1.030111 a 4.9600559,4.9600559 0 0 1 -2.06728,5.866695 l -0.81139,0.41275 a 6.0289726,6.0289726 0 1 0 8.98526,3.693584 l -0.23637,-0.73025 a 4.9000836,4.9000836 0 0 1 -0.14111,-1.167694 4.956528,4.956528 0 0 1 2.921,-4.529667 l 0.92075,-0.313973 a 7.6305836,7.6305836 0 0 0 -2.96333,-14.672029 z m -1.93675,19.512139 a 6.0854169,6.0854169 0 0 0 0.17992,1.4605 l 0.23636,0.726724 a 4.8154169,4.8154169 0 0 1 0.14111,1.171223 4.97064,4.97064 0 0 1 -9.94128,0 4.9106669,4.9106669 0 0 1 2.3495,-4.233334 l 0.81139,-0.41275 a 6.0183892,6.0183892 0 0 0 2.53647,-7.182557 l -0.51153,-1.058333 a 6.4875836,6.4875836 0 0 1 -0.43744,-2.360084 6.5722503,6.5722503 0 1 1 9.15106,6.053667 l -0.93487,0.3175 a 6.0466113,6.0466113 0 0 0 -3.58069,5.520974 z" />
    <path
       id="path846"
       style="fill:#e0c490;fill-opacity:1;stroke-width:0.352777"
       d="m 85.093534,49.794586 a 7.6270559,7.6270559 0 0 0 -7.10495,10.410473 l 0.49742,1.03011 a 4.9600559,4.9600559 0 0 1 -2.06728,5.866697 l -0.81139,0.416276 a 6.0289726,6.0289726 0 1 0 9.17223,5.147027 5.9055003,5.9055003 0 0 0 -0.17992,-1.45697 l -0.23636,-0.73025 a 4.9671113,4.9671113 0 0 1 2.77283,-5.697363 l 0.92075,-0.3175 a 7.6305836,7.6305836 0 0 0 -2.95275,-14.6685 z m -1.93675,19.515667 a 6.036028,6.036028 0 0 0 0.17992,1.456973 l 0.23636,0.73025 a 4.7871946,4.7871946 0 0 1 0.14111,1.167693 4.97064,4.97064 0 0 1 -9.94128,0 4.9000836,4.9000836 0 0 1 2.3495,-4.233333 l 0.81139,-0.416277 a 5.9972226,5.9972226 0 0 0 2.53647,-7.179029 l -0.51153,-1.058334 a 6.5158059,6.5158059 0 0 1 -0.43744,-2.360083 6.5722503,6.5722503 0 1 1 9.15106,6.05014 l -0.93487,0.321029 a 6.0430836,6.0430836 0 0 0 -3.58069,5.520971 z" />
    <path
       id="path848"
       style="fill:#e0c490;fill-opacity:1;stroke-width:0.352777"
       d="m 85.093534,88.021589 a 7.6270559,7.6270559 0 0 0 -7.10495,10.403416 l 0.49742,1.030111 a 4.9600559,4.9600559 0 0 1 -2.06728,5.866694 l -0.81139,0.41275 a 6.0289726,6.0289726 0 1 0 8.98526,3.69006 l -0.23637,-0.72672 a 4.9706392,4.9706392 0 0 1 2.77989,-5.68678 l 0.92075,-0.31397 a 7.6305836,7.6305836 0 0 0 -2.95275,-14.668508 z m -1.93675,19.515671 a 6.036028,6.036028 0 0 0 0.17992,1.45697 l 0.23636,0.72672 a 4.8154169,4.8154169 0 0 1 0.14111,1.17122 4.97064,4.97064 0 1 1 -9.94128,0 4.9106669,4.9106669 0 0 1 2.3495,-4.23333 l 0.81139,-0.41275 a 6.0183892,6.0183892 0 0 0 2.53647,-7.182558 l -0.51153,-1.058333 a 6.4840559,6.4840559 0 0 1 -0.43744,-2.356557 6.5722503,6.5722503 0 1 1 9.15106,6.050138 l -0.93487,0.3175 a 6.0466113,6.0466113 0 0 0 -3.58069,5.52098 z" />
    <path
       id="path852"
       style="fill:#e0c490;fill-opacity:1;stroke-width:0.352777"
       d="m 66.043534,116.39198 a 5.6761946,5.6761946 0 1 1 5.67619,-5.6762 5.6832503,5.6832503 0 0 1 -5.67619,5.6762 z m 0,-10.99961 a 5.3234169,5.3234169 0 1 0 5.32342,5.32341 5.3304726,5.3304726 0 0 0 -5.32342,-5.32341 z" />
    <path
       id="path858"
       style="fill:#e0c490;fill-opacity:1;stroke-width:0.352777"
       d="m 6.988528,108.77198 a 5.6761946,5.6761946 0 1 1 5.676195,-5.6762 5.6832503,5.6832503 0 0 1 -5.676195,5.6762 z m 0,-10.999614 a 5.3234169,5.3234169 0 1 0 5.323417,5.323414 5.3304726,5.3304726 0 0 0 -5.323417,-5.323414 z" />
    <path
       id="path860"
       style="fill:#e0c490;fill-opacity:1;stroke-width:0.352777"
       d="M 137.33992,27.421419 V 26.363085 H 114.8327 v -8.935862 h 15.96672 V 10.960806 H 97.807644 v 6.466417 H 113.77437 V 36.360806 H 97.807644 v 6.466417 H 130.79942 V 36.360806 H 114.8327 v -8.939387 z m -7.40833,9.821334 v 4.699 H 98.689594 v -4.699 z M 98.887144,16.36889 v -4.34975 h 30.875116 v 4.34975 z" />
    <path
       id="path862"
       style="fill:#e0c490;fill-opacity:1;stroke-width:0.352777"
       d="M 137.33992,65.521419 V 64.463086 H 114.8327 v -8.93586 h 15.96672 V 49.060809 H 97.807644 v 6.466417 H 113.77437 V 74.460809 H 97.807644 v 6.466417 H 130.79942 V 74.460809 H 114.8327 v -8.93939 z m -7.59883,9.997723 v 4.34975 H 98.865974 v -4.34975 z M 98.865974,54.468892 v -4.34975 h 30.875116 v 4.34975 z" />
    <path
       id="path864"
       style="fill:#e0c490;fill-opacity:1;stroke-width:0.352777"
       d="m 137.33992,103.62142 v -1.05833 H 114.8327 v -8.935864 h 15.96672 V 87.160809 H 97.807644 v 6.466417 h 15.966726 v 16.555864 h -11.07722 v 1.05833 h 23.21277 v -1.05833 H 114.8327 v -6.56167 z M 98.865974,92.568892 v -4.34975 h 30.875116 v 4.34975 z" />
    <rect
       id="rect866"
       style="fill:#e0c490;fill-opacity:1;stroke-width:0.352777"
       height="1.0583333"
       width="145.90184"
       y="45.413082"
       x="12.311943" />
    <rect
       id="rect868"
       style="fill:#e0c490;fill-opacity:1;stroke-width:0.352777"
       height="1.0583333"
       width="145.90184"
       y="83.513084"
       x="12.311943" />
    <rect
       x="2.7197265e-07"
       id="rect870"
       style="fill:#e0c490;fill-opacity:1;stroke-width:0.352777"
       height="1.0583333"
       width="51.170418"
       y="121.35909" />
    <path
       id="path872"
       style="fill:#e0c490;fill-opacity:1;stroke-width:0.352777"
       d="m 54.945144,122.50915 v 3.4043 h -0.70556 v -3.4043 h -0.42686 v -0.64206 h 0.42686 v -1.4605 h 0.70556 v 1.4605 h 0.70555 v 0.64206 z" />
    <path
       id="path874"
       style="fill:#e0c490;fill-opacity:1;stroke-width:0.352777"
       d="m 56.310394,121.86709 h 0.70555 v 0.43744 a 1.1253612,1.1253612 0 0 1 0.91723,-0.53622 1.5169445,1.5169445 0 0 1 0.62089,0.16581 l -0.32809,0.635 a 0.74788892,0.74788892 0 0 0 -0.41275,-0.13759 0.67733336,0.67733336 0 0 0 -0.56444,0.254 c -0.11642,0.15523 -0.23284,0.43039 -0.23284,1.09362 v 2.1343 h -0.70555 z" />
    <path
       id="path876"
       style="fill:#e0c490;fill-opacity:1;stroke-width:0.352777"
       d="m 58.709284,123.90262 a 2.144889,2.144889 0 1 1 2.14136,2.11666 2.0778612,2.0778612 0 0 1 -2.14136,-2.11666 z m 0.70555,0 a 1.4111112,1.4111112 0 1 0 1.41111,-1.50989 1.4111112,1.4111112 0 0 0 -1.397,1.50989 z" />
    <path
       id="path878"
       style="fill:#e0c490;fill-opacity:1;stroke-width:0.352777"
       d="m 64.417224,119.83862 a 0.49741669,0.49741669 0 1 1 -0.49741,0.49741 0.49741669,0.49741669 0 0 1 0.49741,-0.49741 z m 0.35278,2.02847 v 4.04636 h -0.70555 v -4.04636 z" />
    <path
       id="path880"
       style="fill:#e0c490;fill-opacity:1;stroke-width:0.352777"
       d="m 66.794954,118.80851 v 4.56141 l 1.48166,-1.50283 h 0.91722 l -1.73566,1.73567 2.04611,2.31069 h -0.9137 l -1.61925,-1.84503 -0.17638,0.17639 v 1.66864 h -0.70556 v -7.10494 z" />
    <path
       id="path882"
       style="fill:#e0c490;fill-opacity:1;stroke-width:0.352777"
       d="m 73.307224,121.86709 h 0.70556 v 4.04636 h -0.70556 v -0.56797 a 1.7109723,1.7109723 0 0 1 -1.38641,0.68439 c -1.02306,0 -1.9685,-0.7232 -1.9685,-2.14489 0,-1.4217 0.93486,-2.11667 1.9685,-2.11667 a 1.6827501,1.6827501 0 0 1 1.38641,0.67381 z m -2.63172,2.01789 c 0,0.86783 0.48683,1.52047 1.32292,1.52047 0.83608,0 1.34761,-0.70555 1.34761,-1.50989 a 1.3723056,1.3723056 0 0 0 -1.34761,-1.50283 c -0.69145,0 -1.32292,0.508 -1.32292,1.49225 z" />
    <rect
       id="rect884"
       style="fill:#e0c490;fill-opacity:1;stroke-width:0.352777"
       height="1.0583333"
       width="86.331787"
       y="121.35909"
       x="76.224693" />
    <polygon
       id="polygon886"
       style="fill:#e0c490;fill-opacity:1"
       points="5.74,96.48 4.27,96.48 3.88,97.19 5,97.19 5,103.15 5.74,103.15 "
       transform="scale(0.3527778)" />
    <polygon
       id="polygon888"
       style="fill:#e0c490;fill-opacity:1"
       points="13.5,96.48 12.68,96.48 10.8,101.57 8.92,96.48 8.1,96.48 10.8,103.55 "
       transform="scale(0.3527778)" />
    <polygon
       id="polygon890"
       style="fill:#e0c490;fill-opacity:1"
       points="13.58,104.85 14.16,105.13 19.3,95.87 18.72,95.57 "
       transform="scale(0.3527778)" />
    <path
       id="path892"
       style="fill:#e0c490;fill-opacity:1;stroke-width:0.352777"
       d="M 8.279695,34.000723 A 1.2170834,1.2170834 0 1 0 9.503834,35.21428 1.1994445,1.1994445 0 0 0 8.279695,34.000723 Z m 0,2.183696 A 0.97013892,0.97013892 0 1 1 9.235723,35.21428 0.95955559,0.95955559 0 0 1 8.279695,36.184419 Z" />
    <path
       id="path894"
       style="fill:#e0c490;fill-opacity:1;stroke-width:0.352777"
       d="m 9.856612,35.221336 a 1.1888612,1.1888612 0 0 0 1.217083,1.210027 1.224139,1.224139 0 0 0 0.705556,-0.229307 v -0.324553 a 1.0583334,1.0583334 0 0 1 -0.271639,0.197553 0.97719449,0.97719449 0 0 1 -0.437445,0.109363 0.97013892,0.97013892 0 0 1 0,-1.93675 1.0583334,1.0583334 0 0 1 0.405695,0.08819 1.160639,1.160639 0 0 1 0.306916,0.218723 v -0.33514 a 1.1077223,1.1077223 0 0 0 -0.705555,-0.232833 1.192389,1.192389 0 0 0 -1.220611,1.234723 z" />
    <polygon
       id="polygon896"
       style="fill:#e0c490;fill-opacity:1"
       points="34.04,96.48 34.04,97.19 35.66,97.19 35.66,103.15 36.4,103.15 36.4,97.19 38.02,97.19 38.02,96.48 "
       transform="scale(0.3527778)" />
    <polygon
       id="polygon898"
       style="fill:#e0c490;fill-opacity:1"
       points="5.55,204.65 4.08,204.65 3.69,205.35 4.81,205.35 4.81,211.31 5.55,211.31 "
       transform="scale(0.3527778)" />
    <polygon
       id="polygon900"
       style="fill:#e0c490;fill-opacity:1"
       points="13.31,204.65 12.49,204.65 10.61,209.74 8.73,204.65 7.91,204.65 10.61,211.72 "
       transform="scale(0.3527778)" />
    <polygon
       id="polygon902"
       style="fill:#e0c490;fill-opacity:1"
       points="13.39,213.01 13.97,213.29 19.11,204.03 18.53,203.73 "
       transform="scale(0.3527778)" />
    <path
       id="path904"
       style="fill:#e0c490;fill-opacity:1;stroke-width:0.352777"
       d="m 8.212667,72.157169 a 1.2170834,1.2170834 0 1 0 1.224139,1.220613 1.1994445,1.1994445 0 0 0 -1.224139,-1.220613 z m 0,2.187223 a 0.97013892,0.97013892 0 1 1 0.959556,-0.96661 0.95955559,0.95955559 0 0 1 -0.959556,0.96661 z" />
    <path
       id="path906"
       style="fill:#e0c490;fill-opacity:1;stroke-width:0.352777"
       d="m 9.789584,73.377782 a 1.1888612,1.1888612 0 0 0 1.217083,1.210027 1.2523612,1.2523612 0 0 0 0.705556,-0.229306 v -0.324554 a 1.0583334,1.0583334 0 0 1 -0.271639,0.197554 0.97719449,0.97719449 0 0 1 -0.437444,0.109363 0.97014,0.97014 0 0 1 0,-1.94028 1.001889,1.001889 0 0 1 0.405694,0.09172 1.160639,1.160639 0 0 1 0.306917,0.218723 v -0.324556 a 1.1077223,1.1077223 0 0 0 -0.705556,-0.232834 1.1959167,1.1959167 0 0 0 -1.220611,1.22414 z" />
    <polygon
       id="polygon908"
       style="fill:#e0c490;fill-opacity:1"
       points="33.85,204.65 33.85,205.35 35.47,205.35 35.47,211.31 36.21,211.31 36.21,205.35 37.83,205.35 37.83,204.65 "
       transform="scale(0.3527778)" />
    <polygon
       id="polygon910"
       style="fill:#e0c490;fill-opacity:1"
       points="5.36,312.28 3.89,312.28 3.5,312.98 4.62,312.98 4.62,318.94 5.36,318.94 "
       transform="scale(0.3527778)" />
    <polygon
       id="polygon912"
       style="fill:#e0c490;fill-opacity:1"
       points="13.12,312.28 12.3,312.28 10.42,317.36 8.54,312.28 7.72,312.28 10.42,319.34 "
       transform="scale(0.3527778)" />
    <polygon
       id="polygon914"
       style="fill:#e0c490;fill-opacity:1"
       points="13.2,320.64 13.78,320.92 18.92,311.66 18.34,311.36 "
       transform="scale(0.3527778)" />
    <path
       id="path916"
       style="fill:#e0c490;fill-opacity:1;stroke-width:0.352777"
       d="m 8.145639,110.12665 a 1.2170834,1.2170834 0 1 0 1.224139,1.21355 1.1994445,1.1994445 0 0 0 -1.224139,-1.21355 z m 0,2.18369 a 0.97013892,0.97013892 0 1 1 0.956028,-0.97014 0.95955559,0.95955559 0 0 1 -0.956028,0.97014 z" />
    <path
       id="path918"
       style="fill:#e0c490;fill-opacity:1;stroke-width:0.352777"
       d="m 9.722556,111.34726 a 1.1888612,1.1888612 0 0 0 1.213556,1.21002 1.224139,1.224139 0 0 0 0.705555,-0.2293 v -0.32456 a 1.0583334,1.0583334 0 0 1 -0.271639,0.19756 0.97719449,0.97719449 0 0 1 -0.437444,0.10936 0.97013892,0.97013892 0 0 1 0,-1.93675 1.001889,1.001889 0 0 1 0.405694,0.0917 1.1535834,1.1535834 0 0 1 0.306917,0.2152 v -0.32103 a 1.1077223,1.1077223 0 0 0 -0.705555,-0.23283 1.1959167,1.1959167 0 0 0 -1.217084,1.22061 z" />
    <polygon
       id="polygon920"
       style="fill:#e0c490;fill-opacity:1"
       points="33.66,312.28 33.66,312.98 35.28,312.98 35.28,318.94 36.02,318.94 36.02,312.98 37.64,312.98 37.64,312.28 "
       transform="scale(0.3527778)" />
    <path
       id="path922"
       style="fill:#e0c490;fill-opacity:1;stroke-width:0.352777"
       d="m 6.7945,13.758334 a 1.1994445,1.1994445 0 0 0 -0.303388,-0.218722 1.0160001,1.0160001 0 0 0 -0.405695,-0.09172 0.97013898,0.97013898 0 0 0 0,1.940277 0.96308339,0.96308339 0 0 0 0.433917,-0.109361 1.0583334,1.0583334 0 0 0 0.271639,-0.197555 v 0.324555 a 1.2100278,1.2100278 0 0 1 -0.705556,0.229306 1.2170835,1.2170835 0 1 1 0,-2.434167 1.1077223,1.1077223 0 0 1 0.705556,0.232833 z" />
    <path
       id="path924"
       style="fill:#e0c490;fill-opacity:1;stroke-width:0.352777"
       d="M 7.150806,14.40039 A 1.224139,1.224139 0 1 1 8.371417,15.617473 1.1994445,1.1994445 0 0 1 7.150806,14.40039 Z m 0.268111,0 a 0.95602782,0.95602782 0 1 0 0.9525,-0.970139 0.95955559,0.95955559 0 0 0 -0.963083,0.970139 z" />
    <path
       id="path926"
       style="fill:#e0c490;fill-opacity:1;stroke-width:0.352777"
       d="M 11.306528,14.911917 H 10.30464 L 10.022417,15.57514 H 9.73314 l 1.083027,-2.469445 1.058334,2.469445 h -0.289278 z m -0.102305,-0.246944 -0.395111,-0.941917 -0.402167,0.941917 z" />
    <path
       id="path928"
       style="fill:#e0c490;fill-opacity:1;stroke-width:0.352777"
       d="m 12.580056,13.222112 a 1.0124723,1.0124723 0 0 1 0.567972,0.130528 0.6067778,0.6067778 0 0 1 0.257528,0.522111 0.61736113,0.61736113 0 0 1 -0.592666,0.649111 l 0.744361,1.058333 h -0.313973 l -0.705555,-1.030111 h -0.06703 v 1.030111 H 12.20964 v -2.360083 z m -0.116416,1.090083 h 0.165805 c 0.324556,0 0.518583,-0.155222 0.518583,-0.430389 a 0.3527778,0.3527778 0 0 0 -0.186972,-0.352778 0.67027782,0.67027782 0 0 0 -0.352778,-0.06703 h -0.15875 z" />
    <path
       id="path930"
       style="fill:#e0c490;fill-opacity:1;stroke-width:0.352777"
       d="m 15.024806,13.687778 a 0.56797226,0.56797226 0 0 0 -0.137583,-0.176388 0.42333336,0.42333336 0 0 0 -0.264583,-0.08114 0.3527778,0.3527778 0 0 0 -0.395112,0.352777 0.24694446,0.24694446 0 0 0 0.0882,0.204612 0.76905559,0.76905559 0 0 0 0.246944,0.148166 l 0.225778,0.09878 a 1.0900834,1.0900834 0 0 1 0.352778,0.22225 0.56797226,0.56797226 0 0 1 0.169333,0.426861 0.75141669,0.75141669 0 0 1 -1.252361,0.532695 0.85372226,0.85372226 0 0 1 -0.218722,-0.416278 l 0.254,-0.07056 a 0.55386113,0.55386113 0 0 0 0.141111,0.299861 0.48330559,0.48330559 0 0 0 0.811389,-0.352777 0.3527778,0.3527778 0 0 0 -0.116417,-0.275167 1.0830278,1.0830278 0 0 0 -0.282222,-0.162278 l -0.211667,-0.09878 a 1.0583334,1.0583334 0 0 1 -0.313972,-0.194027 0.49036113,0.49036113 0 0 1 -0.162278,-0.384528 0.6067778,0.6067778 0 0 1 0.659695,-0.606778 0.62088892,0.62088892 0 0 1 0.373944,0.105833 0.70555559,0.70555559 0 0 1 0.232834,0.261056 z" />
    <path
       id="path932"
       style="fill:#e0c490;fill-opacity:1;stroke-width:0.352777"
       d="m 17.018001,13.469056 h -0.956028 v 0.705556 h 0.927806 v 0.246944 h -0.927806 v 0.913695 h 0.956028 v 0.246944 h -1.217084 v -2.360083 h 1.217084 z" />
    <path
       id="path934"
       style="fill:#e0c490;fill-opacity:1;stroke-width:0.352777"
       d="m 6.25475,53.399976 a 1.0830278,1.0830278 0 0 0 -0.303389,-0.218723 1.001889,1.001889 0 0 0 -0.405694,-0.09172 0.97013977,0.97013977 0 0 0 0,1.940279 0.97719449,0.97719449 0 0 0 0.437444,-0.109363 1.033639,1.033639 0 0 0 0.268112,-0.197554 v 0.310444 a 1.2100278,1.2100278 0 0 1 -0.705556,0.229306 1.2170834,1.2170834 0 1 1 0,-2.434166 1.0936112,1.0936112 0 0 1 0.705556,0.232833 z" />
    <path
       id="path936"
       style="fill:#e0c490;fill-opacity:1;stroke-width:0.352777"
       d="m 6.611056,54.059669 a 1.224139,1.224139 0 1 1 1.224139,1.217084 1.1994445,1.1994445 0 0 1 -1.224139,-1.217084 z m 0.268111,0 A 0.95602782,0.95602782 0 1 0 7.835195,53.08953 0.95955559,0.95955559 0 0 0 6.879167,54.059669 Z" />
    <path
       id="path938"
       style="fill:#e0c490;fill-opacity:1;stroke-width:0.352777"
       d="M 10.766778,54.571196 H 9.76489 L 9.482667,55.234419 H 9.193389 l 1.083028,-2.469443 1.058334,2.469443 H 11.041945 Z M 10.664473,54.324253 10.269362,53.382336 9.877778,54.32778 Z" />
    <path
       id="path940"
       style="fill:#e0c490;fill-opacity:1;stroke-width:0.352777"
       d="m 12.040306,52.881392 a 1.0301112,1.0301112 0 0 1 0.5715,0.130527 0.65263892,0.65263892 0 0 1 -0.352778,1.171223 l 0.747889,1.058334 h -0.306916 l -0.705556,-1.030113 h -0.07056 v 1.030113 h -0.261056 v -2.360084 z m -0.116416,1.093611 h 0.165805 c 0.324556,0 0.518583,-0.155223 0.518583,-0.43039 a 0.3527778,0.3527778 0 0 0 -0.186972,-0.352777 0.67027782,0.67027782 0 0 0 -0.352778,-0.06703 H 11.92389 Z" />
    <path
       id="path942"
       style="fill:#e0c490;fill-opacity:1;stroke-width:0.352777"
       d="m 14.485056,53.347059 a 0.56797226,0.56797226 0 0 0 -0.137583,-0.17639 0.42333336,0.42333336 0 0 0 -0.264583,-0.08114 0.3527778,0.3527778 0 0 0 -0.395112,0.352779 0.24694446,0.24694446 0 0 0 0.0882,0.20461 0.76905559,0.76905559 0 0 0 0.246944,0.148167 l 0.225778,0.09878 a 1.1430001,1.1430001 0 0 1 0.352778,0.22225 0.56444446,0.56444446 0 0 1 0.165805,0.426863 0.70555559,0.70555559 0 0 1 -0.740833,0.723193 0.70555559,0.70555559 0 0 1 -0.511528,-0.1905 0.85372226,0.85372226 0 0 1 -0.218722,-0.416277 l 0.254,-0.07056 a 0.55386113,0.55386113 0 0 0 0.141111,0.29986 0.48330559,0.48330559 0 0 0 0.811389,-0.352777 0.3527778,0.3527778 0 0 0 -0.116417,-0.275166 1.0265834,1.0265834 0 0 0 -0.282222,-0.162277 l -0.211666,-0.09878 a 1.0583334,1.0583334 0 0 1 -0.313973,-0.194027 0.49036113,0.49036113 0 0 1 -0.162277,-0.384527 0.6067778,0.6067778 0 0 1 0.659694,-0.606779 0.63852782,0.63852782 0 0 1 0.377472,0.105833 0.70555559,0.70555559 0 0 1 0.229306,0.261057 z" />
    <path
       id="path944"
       style="fill:#e0c490;fill-opacity:1;stroke-width:0.352777"
       d="m 16.481778,53.128336 h -0.959555 v 0.705556 h 0.931333 v 0.246944 h -0.931333 v 0.913694 h 0.959555 v 0.246946 h -1.220611 v -2.360084 h 1.220611 z" />
    <path
       id="path946"
       style="fill:#e0c490;fill-opacity:1;stroke-width:0.352777"
       d="m 6.085417,92.473642 a 1.160639,1.160639 0 0 0 -0.306917,-0.21872 1.001889,1.001889 0 0 0 -0.405694,-0.09172 0.97013892,0.97013892 0 0 0 0,1.93675 0.97719449,0.97719449 0 0 0 0.437444,-0.10936 1.0583334,1.0583334 0 0 0 0.271639,-0.197557 v 0.324557 a 1.224139,1.224139 0 0 1 -0.705555,0.229303 1.2170834,1.2170834 0 1 1 0,-2.430637 1.1077223,1.1077223 0 0 1 0.705555,0.232834 z" />
    <path
       id="path948"
       style="fill:#e0c490;fill-opacity:1;stroke-width:0.352777"
       d="m 6.438195,93.133339 a 1.224139,1.224139 0 1 1 1.224139,1.213553 1.1994445,1.1994445 0 0 1 -1.224139,-1.213553 z m 0.268111,0 a 0.95602782,0.95602782 0 1 0 0.956028,-0.97014 0.95602782,0.95602782 0 0 0 -0.959556,0.97014 z" />
    <path
       id="path950"
       style="fill:#e0c490;fill-opacity:1;stroke-width:0.352777"
       d="M 10.583334,93.644866 H 9.592028 L 9.309806,94.304559 H 9.020528 l 1.083028,-2.469443 1.058334,2.469443 h -0.289278 z m -0.102306,-0.246944 -0.395111,-0.941917 -0.402166,0.941917 z" />
    <path
       id="path952"
       style="fill:#e0c490;fill-opacity:1;stroke-width:0.352777"
       d="m 11.867445,91.955059 a 1.0301112,1.0301112 0 0 1 0.5715,0.13053 0.65263892,0.65263892 0 0 1 -0.335139,1.17122 l 0.747889,1.058333 h -0.3175 L 11.82864,93.288559 h -0.06703 v 1.026583 h -0.261056 v -2.3495 z m -0.116417,1.090083 h 0.165806 c 0.324556,0 0.518583,-0.15522 0.518583,-0.430387 a 0.3527778,0.3527778 0 0 0 -0.186972,-0.352779 0.67027782,0.67027782 0 0 0 -0.352778,-0.06703 h -0.15875 z" />
    <path
       id="path954"
       style="fill:#e0c490;fill-opacity:1;stroke-width:0.352777"
       d="m 14.312195,92.427782 a 0.56797226,0.56797226 0 0 0 -0.137583,-0.17639 0.42333336,0.42333336 0 0 0 -0.264584,-0.08114 0.3527778,0.3527778 0 0 0 -0.395111,0.352777 0.24694446,0.24694446 0 0 0 0.08819,0.20461 0.76905559,0.76905559 0 0 0 0.246944,0.148167 l 0.225778,0.09878 a 1.1430001,1.1430001 0 0 1 0.352778,0.22225 0.56797226,0.56797226 0 0 1 0.169333,0.42686 0.75494449,0.75494449 0 0 1 -1.255889,0.529167 0.85372226,0.85372226 0 0 1 -0.218722,-0.416277 l 0.254,-0.06703 a 0.55738892,0.55738892 0 0 0 0.141111,0.296333 0.4480278,0.4480278 0 0 0 0.352778,0.13053 0.44450003,0.44450003 0 0 0 0.472722,-0.46214 0.3527778,0.3527778 0 0 0 -0.116417,-0.275166 1.0265834,1.0265834 0 0 0 -0.282222,-0.162277 l -0.211666,-0.09878 a 1.0583334,1.0583334 0 0 1 -0.313973,-0.194027 0.49036113,0.49036113 0 0 1 -0.162277,-0.384527 0.6067778,0.6067778 0 0 1 0.659694,-0.606779 0.63852782,0.63852782 0 0 1 0.377472,0.105833 0.70555559,0.70555559 0 0 1 0.229306,0.261057 z" />
    <path
       id="path956"
       style="fill:#e0c490;fill-opacity:1;stroke-width:0.352777"
       d="m 16.308917,92.202005 h -0.959555 v 0.705554 h 0.931333 v 0.246946 h -0.931333 v 0.910167 h 0.959555 v 0.246944 h -1.220611 v -2.3495 h 1.220611 z" />
    <path
       id="path958"
       style="fill:#e0c490;fill-opacity:1;stroke-width:0.352777"
       d="m 46.834784,12.206112 h -0.81139 v 0.705555 h 0.78317 v 0.246945 h -0.78317 v 1.164166 h -0.26106 v -2.360083 h 1.05834 z" />
    <path
       id="path960"
       style="fill:#e0c490;fill-opacity:1;stroke-width:0.352777"
       d="m 47.554444,11.962695 v 2.3495 h -0.26105 v -2.3495 z" />
    <path
       id="path962"
       style="fill:#e0c490;fill-opacity:1;stroke-width:0.352777"
       d="m 48.161224,14.312195 v -2.469444 l 1.83445,1.922639 v -1.802695 h 0.26105 v 2.469445 l -1.83444,-1.922639 v 1.816805 z" />
    <path
       id="path964"
       style="fill:#e0c490;fill-opacity:1;stroke-width:0.352777"
       d="m 52.084114,12.206112 h -0.95955 v 0.705555 h 0.93133 v 0.246945 h -0.93133 v 0.913694 h 0.95955 v 0.246945 h -1.22061 v -2.356556 h 1.22061 z" />
    <path
       id="path966"
       style="fill:#e0c490;fill-opacity:1;stroke-width:0.352777"
       d="m 46.834784,50.662419 h -0.81139 v 0.705557 h 0.78317 v 0.246943 h -0.78317 v 1.164167 h -0.26106 v -2.353027 h 1.05834 z" />
    <path
       id="path968"
       style="fill:#e0c490;fill-opacity:1;stroke-width:0.352777"
       d="m 47.554444,50.415476 v 2.353027 h -0.26105 v -2.353027 z" />
    <path
       id="path970"
       style="fill:#e0c490;fill-opacity:1;stroke-width:0.352777"
       d="m 48.161224,52.768503 v -2.469444 l 1.83445,1.922637 v -1.82386 h 0.26105 v 2.469444 l -1.83444,-1.922638 v 1.816804 z" />
    <path
       id="path972"
       style="fill:#e0c490;fill-opacity:1;stroke-width:0.352777"
       d="m 52.084114,50.662419 h -0.95955 v 0.705557 h 0.93133 v 0.246943 h -0.93133 v 0.913694 h 0.95955 v 0.246946 h -1.22061 V 50.42253 h 1.22061 z" />
    <path
       id="path974"
       style="fill:#e0c490;fill-opacity:1;stroke-width:0.352777"
       d="m 46.834784,88.289699 h -0.81139 v 0.705556 h 0.78317 v 0.246944 h -0.78317 v 1.164167 h -0.26106 v -2.353027 h 1.05834 z" />
    <path
       id="path976"
       style="fill:#e0c490;fill-opacity:1;stroke-width:0.352777"
       d="m 47.554444,88.042755 v 2.353027 h -0.26105 v -2.353027 z" />
    <path
       id="path978"
       style="fill:#e0c490;fill-opacity:1;stroke-width:0.352777"
       d="m 48.161224,90.395782 v -2.469443 l 1.83445,1.922637 v -1.82386 h 0.26105 v 2.469443 l -1.83444,-1.922637 v 1.816804 z" />
    <path
       id="path980"
       style="fill:#e0c490;fill-opacity:1;stroke-width:0.352777"
       d="m 52.084114,88.289699 h -0.95955 v 0.705556 h 0.93133 v 0.246944 h -0.93133 v 0.913693 h 0.95955 v 0.246947 h -1.22061 v -2.35303 h 1.22061 z" />
    <path
       id="path982"
       style="fill:#e0c490;fill-opacity:1;stroke-width:0.352777"
       d="m 51.611394,34.297056 a 0.59619446,0.59619446 0 0 0 -0.13758,-0.17286 0.42333336,0.42333336 0 0 0 -0.26459,-0.08114 0.3527778,0.3527778 0 0 0 -0.39511,0.35278 0.24694446,0.24694446 0 0 0 0.0882,0.20461 0.76905559,0.76905559 0 0 0 0.24694,0.148167 l 0.22578,0.09878 a 1.1430001,1.1430001 0 0 1 0.35278,0.22225 0.56797226,0.56797226 0 0 1 0.16933,0.426863 0.75494449,0.75494449 0 0 1 -1.25589,0.532693 0.85372226,0.85372226 0 0 1 -0.19402,-0.39864 l 0.254,-0.07055 a 0.55386113,0.55386113 0 0 0 0.14111,0.29986 0.48330559,0.48330559 0 0 0 0.81139,-0.352777 0.3527778,0.3527778 0 0 0 -0.11642,-0.275167 1.0265834,1.0265834 0 0 0 -0.28222,-0.162279 l -0.21167,-0.09878 a 1.0583334,1.0583334 0 0 1 -0.31397,-0.194027 0.48683336,0.48683336 0 0 1 -0.16228,-0.381 0.6067778,0.6067778 0 0 1 0.65969,-0.60678 0.63852782,0.63852782 0 0 1 0.37748,0.105834 0.70555559,0.70555559 0 0 1 0.2293,0.261056 z" />
    <path
       id="path984"
       style="fill:#e0c490;fill-opacity:1;stroke-width:0.352777"
       d="m 52.775564,35.171946 -0.77259,-1.337027 h 0.30339 l 0.59972,1.058334 0.60678,-1.058334 h 0.30339 l -0.77964,1.337027 v 1.012473 h -0.26105 z" />
    <path
       id="path986"
       style="fill:#e0c490;fill-opacity:1;stroke-width:0.352777"
       d="M 54.147864,36.184419 V 33.73614 l 1.83445,1.919113 v -1.820334 h 0.26105 v 2.469444 l -1.83444,-1.91911 v 1.813277 z" />
    <path
       id="path988"
       style="fill:#e0c490;fill-opacity:1;stroke-width:0.352777"
       d="m 58.649314,34.349973 a 1.1535834,1.1535834 0 0 0 -0.30692,-0.215193 1.001889,1.001889 0 0 0 -0.4057,-0.09172 0.97013892,0.97013892 0 0 0 0,1.93675 0.97719449,0.97719449 0 0 0 0.43745,-0.10936 1.0583334,1.0583334 0 0 0 0.27164,-0.197556 v 0.310446 a 1.224139,1.224139 0 0 1 -0.70556,0.229304 1.2170834,1.2170834 0 1 1 0,-2.430637 1.1077223,1.1077223 0 0 1 0.70556,0.232833 z" />
    <path
       id="path990"
       style="fill:#e0c490;fill-opacity:1;stroke-width:0.352777"
       d="m 51.611394,72.672226 a 0.56797226,0.56797226 0 0 0 -0.13758,-0.17639 0.42333336,0.42333336 0 0 0 -0.26459,-0.08114 0.3527778,0.3527778 0 0 0 -0.39511,0.352777 0.24694446,0.24694446 0 0 0 0.0882,0.20461 0.76905559,0.76905559 0 0 0 0.24694,0.148167 l 0.22578,0.09878 a 1.1430001,1.1430001 0 0 1 0.35278,0.22225 0.56797226,0.56797226 0 0 1 0.16933,0.42686 0.75494449,0.75494449 0 0 1 -1.25589,0.532694 0.85372226,0.85372226 0 0 1 -0.21872,-0.416277 l 0.254,-0.07056 a 0.55386113,0.55386113 0 0 0 0.14111,0.299863 0.48330559,0.48330559 0 0 0 0.81139,-0.35278 0.3527778,0.3527778 0 0 0 -0.11642,-0.275167 1.0265834,1.0265834 0 0 0 -0.28222,-0.162277 l -0.21166,-0.09878 a 1.0583334,1.0583334 0 0 1 -0.31398,-0.19403 0.49036113,0.49036113 0 0 1 -0.16227,-0.384527 0.6067778,0.6067778 0 0 1 0.65969,-0.606777 0.63852782,0.63852782 0 0 1 0.37747,0.105834 0.70555559,0.70555559 0 0 1 0.22931,0.261053 z" />
    <path
       id="path992"
       style="fill:#e0c490;fill-opacity:1;stroke-width:0.352777"
       d="m 52.775564,73.536532 -0.77259,-1.340556 h 0.30339 l 0.59972,1.058333 0.60678,-1.058333 h 0.30339 l -0.77964,1.340556 v 1.008944 h -0.26105 z" />
    <path
       id="path994"
       style="fill:#e0c490;fill-opacity:1;stroke-width:0.352777"
       d="m 54.147864,74.545476 v -2.448277 l 1.83445,1.922637 v -1.82386 h 0.26105 v 2.469443 l -1.83444,-1.91911 v 1.813277 z" />
    <path
       id="path996"
       style="fill:#e0c490;fill-opacity:1;stroke-width:0.352777"
       d="m 58.649314,72.714559 a 1.160639,1.160639 0 0 0 -0.30692,-0.218723 1.001889,1.001889 0 0 0 -0.4057,-0.09172 0.97013892,0.97013892 0 0 0 0,1.940276 0.97719449,0.97719449 0 0 0 0.43745,-0.10936 1.0583334,1.0583334 0 0 0 0.27164,-0.197556 v 0.324556 a 1.2523612,1.2523612 0 0 1 -0.70556,0.229304 1.2170835,1.2170835 0 1 1 0,-2.434167 1.1077223,1.1077223 0 0 1 0.70556,0.232834 z" />
    <path
       id="path998"
       style="fill:#e0c490;fill-opacity:1;stroke-width:0.352777"
       d="m 51.611394,110.41945 a 0.56797226,0.56797226 0 0 0 -0.13758,-0.17639 0.42333336,0.42333336 0 0 0 -0.26459,-0.0811 0.3527778,0.3527778 0 0 0 -0.39511,0.35278 0.2398889,0.2398889 0 0 0 0.0882,0.20108 0.76905559,0.76905559 0 0 0 0.24694,0.14817 l 0.22578,0.0988 a 1.1430001,1.1430001 0 0 1 0.35278,0.22225 0.56797226,0.56797226 0 0 1 0.16933,0.42686 0.75494449,0.75494449 0 0 1 -1.25589,0.53269 0.85372226,0.85372226 0 0 1 -0.21872,-0.41627 l 0.254,-0.0706 a 0.55386113,0.55386113 0 0 0 0.14111,0.29986 0.48330559,0.48330559 0 0 0 0.81139,-0.35278 0.3527778,0.3527778 0 0 0 -0.11642,-0.27516 1.0265834,1.0265834 0 0 0 -0.28222,-0.16228 l -0.21166,-0.0988 a 1.0583334,1.0583334 0 0 1 -0.31398,-0.19403 0.4797778,0.4797778 0 0 1 -0.16227,-0.381 0.6067778,0.6067778 0 0 1 0.65969,-0.60677 0.63852782,0.63852782 0 0 1 0.37747,0.10583 0.70555559,0.70555559 0 0 1 0.22931,0.26106 z" />
    <path
       id="path1000"
       style="fill:#e0c490;fill-opacity:1;stroke-width:0.352777"
       d="m 52.775564,111.29787 -0.77259,-1.33703 h 0.30339 l 0.59972,1.05833 0.60678,-1.05833 h 0.30339 l -0.77964,1.33703 v 1.01247 h -0.26105 z" />
    <path
       id="path1002"
       style="fill:#e0c490;fill-opacity:1;stroke-width:0.352777"
       d="m 54.147864,112.31034 v -2.44828 l 1.83445,1.91911 v -1.82033 h 0.26105 v 2.46944 l -1.83444,-1.91911 v 1.81328 z" />
    <path
       id="path1004"
       style="fill:#e0c490;fill-opacity:1;stroke-width:0.352777"
       d="m 58.649314,110.4759 a 1.1535834,1.1535834 0 0 0 -0.30692,-0.2152 1.001889,1.001889 0 0 0 -0.4057,-0.0917 0.97013892,0.97013892 0 0 0 0,1.93675 0.97719449,0.97719449 0 0 0 0.43745,-0.10936 1.0583334,1.0583334 0 0 0 0.27164,-0.19756 v 0.32456 a 1.224139,1.224139 0 0 1 -0.70556,0.2293 1.2170834,1.2170834 0 1 1 0,-2.43064 1.1077223,1.1077223 0 0 1 0.70556,0.23284 z" />
    <path
       id="path1006"
       style="fill:#e0c490;fill-opacity:1;stroke-width:0.352777"
       d="m 86.077784,31.48189 v 2.116666 h 0.64911 v 0.246947 h -0.91017 V 31.48189 Z" />
    <path
       id="path1008"
       style="fill:#e0c490;fill-opacity:1;stroke-width:0.352777"
       d="m 87.347784,31.48189 v 2.353029 h -0.26106 V 31.48189 Z" />
    <path
       id="path1010"
       style="fill:#e0c490;fill-opacity:1;stroke-width:0.352777"
       d="m 87.954564,33.834919 v -2.437696 l 1.83444,1.92264 V 31.48189 h 0.26106 v 2.469446 l -1.83445,-1.92264 v 1.816807 z" />
    <path
       id="path1012"
       style="fill:#e0c490;fill-opacity:1;stroke-width:0.352777"
       d="m 87.023224,35.962169 h -0.81138 v 0.705554 h 0.78316 v 0.246946 h -0.78316 v 1.164167 h -0.25753 v -2.35303 h 1.05833 z" />
    <path
       id="path1014"
       style="fill:#e0c490;fill-opacity:1;stroke-width:0.352777"
       d="m 87.404224,38.068253 0.39159,-2.469447 0.89958,1.98614 0.92075,-1.989666 0.35278,2.469443 h -0.26811 l -0.22225,-1.636887 -0.80081,1.735667 -0.79022,-1.735667 -0.22931,1.636887 z" />
    <path
       id="path1016"
       style="fill:#e0c490;fill-opacity:1;stroke-width:0.352777"
       d="m 86.077784,69.744169 v 2.116667 h 0.64911 v 0.246946 h -0.91017 v -2.363613 z" />
    <path
       id="path1018"
       style="fill:#e0c490;fill-opacity:1;stroke-width:0.352777"
       d="m 87.347784,69.744169 v 2.35303 h -0.26106 v -2.35303 z" />
    <path
       id="path1020"
       style="fill:#e0c490;fill-opacity:1;stroke-width:0.352777"
       d="m 87.954564,72.097199 v -2.469446 l 1.83444,1.922639 v -1.806223 h 0.26106 v 2.469447 l -1.83445,-1.92264 v 1.816806 z" />
    <path
       id="path1022"
       style="fill:#e0c490;fill-opacity:1;stroke-width:0.352777"
       d="m 87.023224,74.224449 h -0.81138 v 0.705554 h 0.78316 v 0.246946 h -0.78316 v 1.164167 h -0.25753 v -2.363613 h 1.05833 z" />
    <path
       id="path1024"
       style="fill:#e0c490;fill-opacity:1;stroke-width:0.352777"
       d="m 87.404224,76.330532 0.39159,-2.469446 0.89958,1.98614 0.92075,-1.989667 0.35278,2.487083 h -0.26811 l -0.22225,-1.636889 -0.80081,1.735666 -0.79022,-1.735666 -0.22931,1.636889 z" />
    <path
       id="path1026"
       style="fill:#e0c490;fill-opacity:1;stroke-width:0.352777"
       d="m 86.077784,107.50903 v 2.11667 h 0.64911 v 0.24695 h -0.91017 v -2.35303 z" />
    <path
       id="path1028"
       style="fill:#e0c490;fill-opacity:1;stroke-width:0.352777"
       d="m 87.347784,107.50903 v 2.35303 h -0.26106 v -2.35303 z" />
    <path
       id="path1030"
       style="fill:#e0c490;fill-opacity:1;stroke-width:0.352777"
       d="m 87.954564,109.86206 v -2.4518 l 1.83444,1.92264 v -1.82387 h 0.26106 v 2.46945 l -1.83445,-1.92264 v 1.81681 z" />
    <path
       id="path1032"
       style="fill:#e0c490;fill-opacity:1;stroke-width:0.352777"
       d="m 87.023224,111.98931 h -0.81138 v 0.70556 h 0.78316 v 0.24694 h -0.78316 v 1.16417 h -0.25753 v -2.35303 h 1.05833 z" />
    <path
       id="path1034"
       style="fill:#e0c490;fill-opacity:1;stroke-width:0.352777"
       d="m 87.404224,114.0954 0.39159,-2.46945 0.89958,1.98614 0.92075,-1.98967 0.35278,2.48709 h -0.26811 l -0.22225,-1.63689 -0.80081,1.73566 -0.79022,-1.73566 -0.22931,1.63689 z" />
    <path
       id="path1036"
       style="fill:#e0c490;fill-opacity:1;stroke-width:0.352777"
       d="m 134.05556,35.009669 a 1.224139,1.224139 0 1 1 1.22414,1.217084 1.1994445,1.1994445 0 0 1 -1.22414,-1.217084 z m 0.26811,0 a 0.95602782,0.95602782 0 1 0 0.95603,-0.966613 0.95955559,0.95955559 0 0 0 -0.96661,0.966613 z" />
    <path
       id="path1038"
       style="fill:#e0c490;fill-opacity:1;stroke-width:0.352777"
       d="m 137.23056,35.27778 a 0.67027782,0.67027782 0 0 0 0.18697,0.5715 0.62441669,0.62441669 0 0 0 0.77259,0 0.67027782,0.67027782 0 0 0 0.18697,-0.5715 v -1.442861 h 0.26458 v 1.509887 a 0.91016672,0.91016672 0 0 1 -0.14816,0.564447 0.89958339,0.89958339 0 0 1 -1.37231,0 0.91016672,0.91016672 0 0 1 -0.14817,-0.564447 v -1.509887 h 0.25753 z" />
    <path
       id="path1040"
       style="fill:#e0c490;fill-opacity:1;stroke-width:0.352777"
       d="m 139.83053,34.081863 v 2.116667 h -0.26105 v -2.116667 h -0.57503 v -0.246944 h 1.41111 v 0.246944 z" />
    <path
       id="path1042"
       style="fill:#e0c490;fill-opacity:1;stroke-width:0.352777"
       d="m 134.05556,73.377782 a 1.224139,1.224139 0 1 1 1.22414,1.217084 1.1994445,1.1994445 0 0 1 -1.22414,-1.217084 z m 0.26811,0 a 0.95602782,0.95602782 0 1 0 0.95603,-0.97014 0.95602782,0.95602782 0 0 0 -0.96661,0.97014 z" />
    <path
       id="path1044"
       style="fill:#e0c490;fill-opacity:1;stroke-width:0.352777"
       d="m 137.23056,73.638836 a 0.67027782,0.67027782 0 0 0 0.18697,0.5715 0.64205559,0.64205559 0 0 0 0.77612,0 0.67027782,0.67027782 0 0 0 0.18697,-0.5715 v -1.44286 h 0.26105 v 1.513416 a 0.87841672,0.87841672 0 0 1 -0.14816,0.560917 0.82197226,0.82197226 0 0 1 -0.68439,0.321027 0.83255559,0.83255559 0 0 1 -0.68792,-0.321027 0.89958339,0.89958339 0 0 1 -0.14817,-0.560917 v -1.513416 h 0.25753 z" />
    <path
       id="path1046"
       style="fill:#e0c490;fill-opacity:1;stroke-width:0.352777"
       d="m 139.83053,72.442919 v 2.116667 h -0.26105 v -2.116667 h -0.57503 v -0.246943 h 1.41111 v 0.246943 z" />
    <path
       id="path1048"
       style="fill:#e0c490;fill-opacity:1;stroke-width:0.352777"
       d="m 134.05556,112.79012 a 1.224139,1.224139 0 1 1 1.22414,1.21708 1.1994445,1.1994445 0 0 1 -1.22414,-1.21708 z m 0.26811,0 a 0.95602782,0.95602782 0 1 0 0.95603,-0.97014 0.95955559,0.95955559 0 0 0 -0.96661,0.97014 z" />
    <path
       id="path1050"
       style="fill:#e0c490;fill-opacity:1;stroke-width:0.352777"
       d="m 137.23056,113.0547 a 0.67027782,0.67027782 0 0 0 0.18697,0.5715 0.62441669,0.62441669 0 0 0 0.77259,0 0.67027782,0.67027782 0 0 0 0.18697,-0.5715 v -1.44286 h 0.26458 v 1.51342 a 0.91016672,0.91016672 0 0 1 -0.14816,0.56444 0.89958339,0.89958339 0 0 1 -1.37231,0 0.91016672,0.91016672 0 0 1 -0.14817,-0.56444 v -1.51342 h 0.25753 z" />
    <path
       id="path1052"
       style="fill:#e0c490;fill-opacity:1;stroke-width:0.352777"
       d="m 139.83053,111.85878 v 2.11667 h -0.26105 v -2.11667 h -0.57503 v -0.24694 h 1.41111 v 0.24694 z" />
    <path
       id="path1054"
       style="fill:#e0c490;fill-opacity:1;stroke-width:0.352777"
       d="m 149.6554,73.995142 v 2.116667 h 0.64911 v 0.246944 h -0.91017 v -2.3495 z" />
    <path
       id="path1056"
       style="fill:#e0c490;fill-opacity:1;stroke-width:0.352777"
       d="m 151.8779,74.238559 h -0.95956 v 0.705557 h 0.93133 v 0.246943 h -0.93133 v 0.913694 h 0.95956 v 0.246946 h -1.22062 v -2.3495 h 1.22062 z" />
    <path
       id="path1058"
       style="fill:#e0c490;fill-opacity:1;stroke-width:0.352777"
       d="m 152.37178,73.995142 0.66323,1.792111 0.65969,-1.792111 h 0.28928 l -0.94897,2.490611 -0.9525,-2.490611 z" />
    <path
       id="path1060"
       style="fill:#e0c490;fill-opacity:1;stroke-width:0.352777"
       d="m 155.53973,74.238559 h -0.95956 v 0.705557 h 0.92781 v 0.246943 h -0.92781 v 0.913694 h 0.95956 v 0.246946 h -1.22061 v -2.3495 h 1.22061 z" />
    <path
       id="path1062"
       style="fill:#e0c490;fill-opacity:1;stroke-width:0.352777"
       d="m 156.28056,73.995142 v 2.116667 h 0.64911 v 0.246944 h -0.91016 v -2.3495 z" />
    <path
       id="path1064"
       style="fill:#e0c490;fill-opacity:1;stroke-width:0.352777"
       d="m 149.6554,113.68617 v 2.11667 h 0.64911 v 0.24694 h -0.91017 v -2.35302 z" />
    <path
       id="path1066"
       style="fill:#e0c490;fill-opacity:1;stroke-width:0.352777"
       d="m 151.8779,113.94723 h -0.95956 v 0.70555 h 0.93133 v 0.24695 h -0.93133 v 0.91369 h 0.95956 v 0.24695 h -1.22062 v -2.35303 h 1.22062 z" />
    <path
       id="path1068"
       style="fill:#e0c490;fill-opacity:1;stroke-width:0.352777"
       d="m 152.37178,113.68617 0.66323,1.79564 0.65969,-1.79564 h 0.28928 l -0.94897,2.49414 -0.9525,-2.49414 z" />
    <path
       id="path1070"
       style="fill:#e0c490;fill-opacity:1;stroke-width:0.352777"
       d="m 155.53973,113.94723 h -0.95956 v 0.70555 h 0.92781 v 0.24695 h -0.92781 v 0.91369 h 0.95956 v 0.24695 h -1.22061 v -2.35303 h 1.22061 z" />
    <path
       id="path1072"
       style="fill:#e0c490;fill-opacity:1;stroke-width:0.352777"
       d="m 156.28056,113.68617 v 2.11667 h 0.64911 v 0.24694 h -0.91016 v -2.35302 z" />
    <path
       id="path1074"
       style="fill:#e0c490;fill-opacity:1;stroke-width:0.352777"
       d="m 149.26381,42.044056 v 2.11667 h 0.66675 v 0.246943 H 149.0204 V 42.05464 Z" />
    <path
       id="path1076"
       style="fill:#e0c490;fill-opacity:1;stroke-width:0.352777"
       d="m 151.48631,42.291003 h -0.95955 v 0.705553 h 0.93133 v 0.246947 h -0.93133 v 0.913693 h 0.95955 v 0.246946 h -1.20297 v -2.353029 h 1.22061 z" />
    <path
       id="path1078"
       style="fill:#e0c490;fill-opacity:1;stroke-width:0.352777"
       d="m 151.9802,42.044056 0.66322,1.79564 0.66323,-1.79564 h 0.28927 l -0.9525,2.49414 -0.9525,-2.49414 z" />
    <path
       id="path1080"
       style="fill:#e0c490;fill-opacity:1;stroke-width:0.352777"
       d="m 155.14815,42.291003 h -0.95956 v 0.705553 h 0.93133 v 0.246947 h -0.93133 v 0.913693 h 0.95956 v 0.246946 h -1.22062 v -2.353029 h 1.22062 z" />
    <path
       id="path1082"
       style="fill:#e0c490;fill-opacity:1;stroke-width:0.352777"
       d="m 155.88898,42.044056 v 2.11667 h 0.64911 v 0.246943 h -0.91017 V 42.05464 Z" />
    <path
       id="path1084"
       style="fill:#e0c490;fill-opacity:1;stroke-width:0.352777"
       d="m 150.02228,9.172223 0.38806,-2.469445 0.90311,1.982611 0.92075,-1.982611 0.35278,2.469445 h -0.26811 l -0.22225,-1.636889 -0.80081,1.735667 -0.79022,-1.735667 -0.22225,1.636889 z" />
    <path
       id="path1086"
       style="fill:#e0c490;fill-opacity:1;stroke-width:0.352777"
       d="m 153.40542,6.82625 v 2.345973 h -0.26105 V 6.82625 Z" />
    <path
       id="path1088"
       style="fill:#e0c490;fill-opacity:1;stroke-width:0.352777"
       d="M 154.45317,7.958667 153.81112,6.82625 h 0.2928 l 0.48684,0.881945 0.50094,-0.881945 h 0.29633 l -0.64558,1.132417 0.69497,1.213556 h -0.29633 l -0.53975,-0.966611 -0.54681,0.966611 h -0.29633 z" />
    <path
       id="path1090"
       style="fill:#e0c490;fill-opacity:1;stroke-width:0.352777"
       d="m 149.5284,12.234334 a 1.224139,1.224139 0 1 1 1.22413,1.217083 1.1994445,1.1994445 0 0 1 -1.22413,-1.217083 z m 0.26811,0 a 0.95602782,0.95602782 0 1 0 0.95602,-0.966611 0.95955559,0.95955559 0 0 0 -0.95602,0.966611 z" />
    <path
       id="path1092"
       style="fill:#e0c490;fill-opacity:1;stroke-width:0.352777"
       d="m 152.71751,12.498917 a 0.67027782,0.67027782 0 0 0 0.18697,0.5715 0.62794449,0.62794449 0 0 0 0.77611,0 0.67027782,0.67027782 0 0 0 0.18697,-0.5715 v -1.439333 h 0.26106 v 1.509889 a 0.91016672,0.91016672 0 0 1 -0.14817,0.564444 0.90311116,0.90311116 0 0 1 -1.37583,0 0.91016672,0.91016672 0 0 1 -0.14817,-0.564444 v -1.509889 h 0.26106 z" />
    <path
       id="path1094"
       style="fill:#e0c490;fill-opacity:1;stroke-width:0.352777"
       d="m 155.31395,11.306528 v 2.116667 h -0.26105 v -2.116667 h -0.5715 v -0.246944 h 1.41111 v 0.246944 z" />
    <path
       id="path1096"
       style="fill:#e0c490;fill-opacity:1;stroke-width:0.352777"
       d="m 99.525674,117.84542 a 0.85019449,0.85019449 0 0 1 0.592666,0.16581 0.67380559,0.67380559 0 0 1 -0.529166,1.16417 h -0.22931 v 1.02305 h -0.26105 v -2.35303 z m -0.16581,1.08303 h 0.2152 c 0.31044,0 0.497416,-0.15522 0.497416,-0.42686 0,-0.37394 -0.352776,-0.40922 -0.518586,-0.40922 h -0.19403 z" />
    <path
       id="path1098"
       style="fill:#e0c490;fill-opacity:1;stroke-width:0.352777"
       d="m 100.83448,117.84542 0.62089,1.76389 0.7373,-1.88383 0.70556,1.88383 0.68792,-1.76389 h 0.28927 l -0.98777,2.46945 -0.70556,-1.88384 -0.74083,1.88384 -0.90311,-2.46945 z" />
    <path
       id="path1100"
       style="fill:#e0c490;fill-opacity:1;stroke-width:0.352777"
       d="m 104.11884,120.19845 0.39158,-2.46944 0.90311,1.98614 0.92075,-1.98967 0.35278,2.48708 h -0.26811 l -0.22225,-1.63689 -0.78669,1.72156 -0.79023,-1.73567 -0.23283,1.63689 z" />
    <path
       id="path1102"
       style="fill:#e0c490;fill-opacity:1;stroke-width:0.352777"
       d="m 125.70884,118.36401 a 1.160639,1.160639 0 0 0 -0.30692,-0.21873 0.97366672,0.97366672 0 0 0 -0.40216,-0.0917 0.97014,0.97014 0 0 0 0,1.94028 0.99130562,0.99130562 0 0 0 0.43744,-0.10936 1.033639,1.033639 0 0 0 0.26811,-0.19756 v 0.32456 a 1.2170834,1.2170834 0 0 1 -0.70555,0.2293 1.2170834,1.2170834 0 1 1 0,-2.43416 1.0936112,1.0936112 0 0 1 0.70555,0.23283 z" />
    <path
       id="path1104"
       style="fill:#e0c490;fill-opacity:1;stroke-width:0.352777"
       d="m 126.20626,117.84542 0.66322,1.79564 0.65969,-1.79564 h 0.28928 l -0.94897,2.49414 -0.9525,-2.49414 z" />
    <polygon
       id="polygon1106"
       style="fill:#e0c490;fill-opacity:1"
       points="369.72,56.99 366.21,61.5 359.47,52.83 356.23,56.99 355.95,56.99 359.47,52.48 366.21,61.15 369.45,56.99 "
       transform="scale(0.3527778)" />
    <polygon
       id="polygon1108"
       style="fill:#e0c490;fill-opacity:1"
       points="366.21,61.7 359.47,53.03 356.29,57.11 355.7,57.11 359.47,52.27 366.21,60.94 369.39,56.86 369.98,56.86 "
       transform="scale(0.3527778)" />
    <path
       id="path1110"
       style="fill:#e0c490;fill-opacity:1;stroke-width:0.352777"
       d="m 103.07109,20.108334 v 0 c -0.29986,0.765528 -0.60678,1.55575 -1.22767,1.55575 -0.62089,0 -0.9278,-0.790222 -1.22766,-1.55575 -0.29986,-0.765528 -0.58209,-1.502833 -1.153586,-1.502833 -0.5715,0 -0.86078,0.754944 -1.15006,1.49225 h -0.0811 c 0,0 0,0 0,-0.01764 0.29634,-0.762 0.60325,-1.552222 1.22414,-1.552222 0.620896,0 0.927806,0.790222 1.227666,1.552222 0.29987,0.762 0.58562,1.506362 1.15359,1.506362 0.56797,0 0.86078,-0.754945 1.14653,-1.488723 z" />
    <path
       id="path1112"
       style="fill:#e0c490;fill-opacity:1;stroke-width:0.352777"
       d="m 101.8399,21.713473 c -0.64912,0 -0.96309,-0.800805 -1.26648,-1.576917 -0.30339,-0.776111 -0.575026,-1.481666 -1.114776,-1.481666 -0.53975,0 -0.8255,0.747889 -1.10772,1.453444 v 0.02822 h -0.16933 l 0.0212,-0.06703 c 0.30339,-0.786695 0.61736,-1.5875 1.26647,-1.5875 0.649106,0 0.963076,0.800805 1.266466,1.573389 0.30339,0.772583 0.57503,1.481666 1.11478,1.481666 0.53975,0 0.82903,-0.740833 1.10772,-1.4605 v -0.02822 h 0.17286 l -0.0212,0.0635 c -0.30339,0.797278 -0.61737,1.601611 -1.27,1.601611 z" />
    <rect
       id="rect1114"
       style="fill:#e0c490;fill-opacity:1;stroke-width:0.352777"
       height="3.1291389"
       width="0.077611119"
       y="31.707666"
       x="125.5783" />
    <rect
       id="rect1116"
       style="fill:#e0c490;fill-opacity:1;stroke-width:0.352777"
       height="3.2173336"
       width="0.16580558"
       y="31.665335"
       x="125.53245" />
    <rect
       id="rect1118"
       style="fill:#e0c490;fill-opacity:1;stroke-width:0.352777"
       height="0.077611119"
       width="2.3812499"
       y="31.67239"
       x="125.6171" />
    <rect
       id="rect1120"
       style="fill:#e0c490;fill-opacity:1;stroke-width:0.352777"
       height="0.16580558"
       width="2.4694445"
       y="31.62653"
       x="125.57125" />
    <rect
       id="rect1122"
       style="fill:#e0c490;fill-opacity:1;stroke-width:0.352777"
       height="3.1291389"
       width="0.077611119"
       y="31.707666"
       x="127.95956" />
    <rect
       id="rect1124"
       style="fill:#e0c490;fill-opacity:1;stroke-width:0.352777"
       height="3.2173336"
       width="0.16580558"
       y="31.665335"
       x="127.91369" />
    <rect
       id="rect1126"
       style="fill:#e0c490;fill-opacity:1;stroke-width:0.352777"
       height="0.077611119"
       width="2.4271114"
       y="34.798"
       x="127.99483" />
    <rect
       id="rect1128"
       style="fill:#e0c490;fill-opacity:1;stroke-width:0.352777"
       height="0.16580558"
       width="2.5153058"
       y="34.755669"
       x="127.95251" />
    <rect
       id="rect1130"
       style="fill:#e0c490;fill-opacity:1;stroke-width:0.352777"
       height="4.1239724"
       width="0.10230556"
       y="113.97545"
       x="111.08971" />
    <path
       id="path1132"
       style="fill:#e0c490;fill-opacity:1;stroke-width:0.352777"
       d="m 111.23437,118.14528 h -0.18697 v -4.19805 h 0.18697 z m -0.0988,-0.0882 v 0 -4.03578 0 z" />
    <rect
       id="rect1134"
       style="fill:#e0c490;fill-opacity:1;stroke-width:0.352777"
       height="0.10230556"
       width="3.1361947"
       y="113.92606"
       x="111.14263" />
    <path
       id="path1136"
       style="fill:#e0c490;fill-opacity:1;stroke-width:0.352777"
       d="m 114.32117,114.0707 h -3.22439 v -0.18697 h 3.22439 z m -3.13619,-0.0882 h 3.048 v 0 z" />
    <rect
       id="rect1138"
       style="fill:#e0c490;fill-opacity:1;stroke-width:0.352777"
       height="4.1239724"
       width="0.10230556"
       y="113.97545"
       x="114.22944" />
    <path
       id="path1140"
       style="fill:#e0c490;fill-opacity:1;stroke-width:0.352777"
       d="m 114.37409,118.14528 h -0.1905 v -4.19805 h 0.1905 z m -0.10231,-0.0882 v 0 -4.03578 0 z" />
    <rect
       id="rect1142"
       style="fill:#e0c490;fill-opacity:1;stroke-width:0.352777"
       height="0.10230556"
       width="3.1996944"
       y="118.05004"
       x="114.27883" />
    <path
       id="path1144"
       style="fill:#e0c490;fill-opacity:1;stroke-width:0.352777"
       d="m 117.5244,118.18056 h -3.29142 v -0.1905 h 3.29142 z m -3.20323,-0.0882 h 3.11503 v 0 z" />
    <rect
       id="rect1146"
       style="fill:#e0c490;fill-opacity:1;stroke-width:0.352777"
       transform="rotate(-34.740001)"
       height="0.17638889"
       width="5.8913894"
       y="84.521973"
       x="60.865585" />
    <rect
       id="rect1148"
       style="fill:#e0c490;fill-opacity:1;stroke-width:0.352777"
       height="3.3937223"
       width="0.17638889"
       y="31.48189"
       x="102.9829" />
    <path
       id="path1150"
       style="fill:#e0c490;fill-opacity:1;stroke-width:0.352777"
       d="m 102.77123,58.58228 v 0 c -0.29633,0.762 -0.60325,1.552223 -1.22414,1.552223 -0.62089,0 -0.92781,-0.790223 -1.22767,-1.552223 -0.29986,-0.762 -0.585606,-1.506361 -1.153576,-1.506361 -0.56798,0 -0.86078,0.758473 -1.15006,1.49225 h -0.0811 c 0.29633,-0.762 0.60325,-1.552223 1.22414,-1.552223 0.62089,0 0.927806,0.790223 1.227666,1.552223 0.29986,0.762 0.58561,1.502834 1.15358,1.502834 0.56798,0 0.86078,-0.751417 1.14653,-1.488723 z" />
    <path
       id="path1152"
       style="fill:#e0c490;fill-opacity:1;stroke-width:0.352777"
       d="m 101.54003,60.194476 c -0.64911,0 -0.96308,-0.800807 -1.26647,-1.576917 -0.303386,-0.776113 -0.575026,-1.481667 -1.114776,-1.481667 -0.53975,0 -0.8255,0.744361 -1.10772,1.464027 v 0.02822 h -0.17286 l 0.0247,-0.07408 c 0.30338,-0.77964 0.61383,-1.583973 1.26647,-1.583973 0.65264,0 0.963086,0.800806 1.266466,1.576917 0.30339,0.77611 0.57502,1.481666 1.11477,1.481666 0.53975,0 0.82903,-0.74436 1.10773,-1.4605 v -0.02822 h 0.16933 l -0.0176,0.0635 c -0.30338,0.786696 -0.61736,1.59103 -1.26999,1.59103 z" />
    <rect
       id="rect1154"
       style="fill:#e0c490;fill-opacity:1;stroke-width:0.352777"
       height="3.1291389"
       width="0.077611119"
       y="57.019478"
       x="125.61004" />
    <rect
       id="rect1156"
       style="fill:#e0c490;fill-opacity:1;stroke-width:0.352777"
       height="3.2173336"
       width="0.16580558"
       y="56.973614"
       x="125.56773" />
    <rect
       id="rect1158"
       style="fill:#e0c490;fill-opacity:1;stroke-width:0.352777"
       height="0.077611119"
       width="2.3812499"
       y="56.980671"
       x="125.64887" />
    <rect
       id="rect1160"
       style="fill:#e0c490;fill-opacity:1;stroke-width:0.352777"
       height="0.16580558"
       width="2.4694445"
       y="56.934807"
       x="125.60653" />
    <rect
       id="rect1162"
       style="fill:#e0c490;fill-opacity:1;stroke-width:0.352777"
       height="3.1291389"
       width="0.077611119"
       y="57.019478"
       x="127.99131" />
    <rect
       id="rect1164"
       style="fill:#e0c490;fill-opacity:1;stroke-width:0.352777"
       height="3.2173336"
       width="0.16580558"
       y="56.973614"
       x="127.94544" />
    <rect
       id="rect1166"
       style="fill:#e0c490;fill-opacity:1;stroke-width:0.352777"
       height="0.077611119"
       width="2.4271114"
       y="60.106285"
       x="128.03012" />
    <rect
       id="rect1168"
       style="fill:#e0c490;fill-opacity:1;stroke-width:0.352777"
       height="0.16580558"
       width="2.5153058"
       y="60.063946"
       x="127.98426" />
    <polygon
       id="polygon1170"
       style="fill:#e0c490;fill-opacity:1"
       points="291.77,203.29 288.27,207.8 281.52,199.13 278.29,203.29 278.01,203.29 281.52,198.78 288.27,207.45 291.5,203.29 "
       transform="scale(0.3527778)" />
    <polygon
       id="polygon1172"
       style="fill:#e0c490;fill-opacity:1"
       points="281.62,198.7 288.27,207.24 291.44,203.16 292.03,203.16 288.27,208 288.17,207.87 281.52,199.33 278.35,203.41 277.75,203.41 281.52,198.57 "
       transform="scale(0.3527778)" />
    <polygon
       id="polygon1174"
       style="fill:#e0c490;fill-opacity:1"
       points="356.41,208.14 356.12,207.73 369.85,198.22 370.13,198.63 "
       transform="scale(0.3527778)" />
    <rect
       id="rect1176"
       style="fill:#e0c490;fill-opacity:1;stroke-width:0.352777"
       height="3.3937223"
       width="0.17638889"
       y="69.998169"
       x="130.43605" />
    <path
       id="path1178"
       style="fill:#e0c490;fill-opacity:1;stroke-width:0.352777"
       d="m 103.07109,96.403589 v 0 c -0.29986,0.765527 -0.60678,1.552223 -1.22767,1.552223 -0.62089,0 -0.9278,-0.786696 -1.22766,-1.552223 -0.29986,-0.76553 -0.58209,-1.502834 -1.153586,-1.502834 -0.5715,0 -0.86078,0.754944 -1.15006,1.488721 h -0.0811 v 0 c 0.29634,-0.762 0.60325,-1.552221 1.22414,-1.552221 0.620896,0 0.927806,0.790221 1.227666,1.552221 0.29987,0.762002 0.58562,1.506363 1.15359,1.506363 0.56797,0 0.86078,-0.754944 1.14653,-1.49225 z" />
    <path
       id="path1180"
       style="fill:#e0c490;fill-opacity:1;stroke-width:0.352777"
       d="m 101.8399,98.015782 c -0.64912,0 -0.96309,-0.800804 -1.26648,-1.576916 -0.30339,-0.776111 -0.575026,-1.481667 -1.114776,-1.481667 -0.53975,0 -0.8255,0.74436 -1.10772,1.464027 v 0.02822 h -0.17286 l 0.0247,-0.06703 c 0.30339,-0.786696 0.61736,-1.5875 1.26647,-1.5875 0.649116,0 0.963086,0.797277 1.266476,1.573387 0.30339,0.776113 0.57503,1.481669 1.11478,1.481669 0.53975,0 0.82903,-0.740833 1.10772,-1.460502 v -0.02822 h 0.16933 l -0.0176,0.06703 c -0.30339,0.783167 -0.61737,1.5875 -1.27,1.5875 z" />
    <polygon
       id="polygon1182"
       style="fill:#e0c490;fill-opacity:1"
       points="355.6,278.18 355.32,277.77 369.05,268.26 369.33,268.67 "
       transform="scale(0.3527778)" />
    <rect
       id="rect1184"
       style="fill:#e0c490;fill-opacity:1;stroke-width:0.352777"
       height="3.3937223"
       width="0.17638889"
       y="94.706726"
       x="130.15384" />
    <path
       id="path1186"
       style="fill:#e0c490;fill-opacity:1;stroke-width:0.352777"
       d="M 89.326864,8.685389 V 1.181806 l 5.6127,5.87375 V 1.481667 h 0.8008 v 7.528278 l -5.61622,-5.884334 v 5.559778 z" />
    <path
       id="path1188"
       style="fill:#e0c490;fill-opacity:1;stroke-width:0.352777"
       d="m 100.81331,2.861028 a 1.7145001,1.7145001 0 0 0 -0.4198,-0.53975 1.3088056,1.3088056 0 0 0 -0.807866,-0.246945 1.1041945,1.1041945 0 0 0 -1.21003,1.100667 0.75494449,0.75494449 0 0 0 0.26811,0.627945 2.303639,2.303639 0 0 0 0.75848,0.451555 l 0.705556,0.303389 a 3.478389,3.478389 0 0 1 1.11477,0.680861 1.732139,1.732139 0 0 1 0.51859,1.305278 2.3106946,2.3106946 0 0 1 -3.845276,1.629834 2.6176112,2.6176112 0 0 1 -0.67028,-1.273528 l 0.77964,-0.215195 A 1.6933334,1.6933334 0 0 0 98.435594,7.602362 1.4746112,1.4746112 0 0 0 100.90503,6.575778 1.0583334,1.0583334 0 0 0 100.55226,5.736167 3.0691669,3.0691669 0 0 0 99.687954,5.23875 L 99.031784,4.938889 A 3.287889,3.287889 0 0 1 98.072224,4.353278 1.4993056,1.4993056 0 0 1 97.574814,3.175 c 0,-1.11125 0.85372,-1.855611 2.02141,-1.855611 a 1.954389,1.954389 0 0 1 1.153586,0.321028 2.1942779,2.1942779 0 0 1 0.70556,0.800805 z" />
    <path
       id="path1190"
       style="fill:#e0c490;fill-opacity:1;stroke-width:0.352777"
       d="m 104.5069,2.240139 v 6.44525 h -0.79023 v -6.44525 h -1.76389 V 1.481667 h 4.30389 v 0.758472 z" />
    <path
       id="path1192"
       style="fill:#e0c490;fill-opacity:1;stroke-width:0.352777"
       d="m 108.49328,1.481667 a 3.1750003,3.1750003 0 0 1 1.74625,0.402166 1.8697223,1.8697223 0 0 1 0.79023,1.598084 1.8944168,1.8944168 0 0 1 -1.81328,1.986139 l 2.28953,3.217333 h -0.97367 l -2.19075,-3.153833 h -0.20461 v 3.153833 h -0.80081 V 1.481667 Z m -0.35277,3.337278 h 0.51505 c 0.99131,0 1.58397,-0.47625 1.58397,-1.315861 a 1.1147778,1.1147778 0 0 0 -0.5715,-1.058334 2.0566945,2.0566945 0 0 0 -1.03716,-0.204611 h -0.48331 z" />
    <path
       id="path1194"
       style="fill:#e0c490;fill-opacity:1;stroke-width:0.352777"
       d="m 113.55565,5.898445 c 0,0.606778 0,1.262944 0.5715,1.763889 a 1.9332223,1.9332223 0 0 0 2.37772,0 c 0.5715,-0.486834 0.5715,-1.143 0.5715,-1.763889 V 1.481667 h 0.79728 v 4.631972 a 2.7834169,2.7834169 0 0 1 -0.45156,1.728611 2.765778,2.765778 0 0 1 -4.21217,0 2.7834169,2.7834169 0 0 1 -0.45155,-1.728611 V 1.481667 h 0.79728 z" />
    <path
       id="path1196"
       style="fill:#e0c490;fill-opacity:1;stroke-width:0.352777"
       d="m 121.5637,3.192639 a 2.7904723,2.7904723 0 0 0 -2.82222,2.906889 2.8380973,2.8380973 0 1 0 5.67619,0 2.7904723,2.7904723 0 0 0 -2.85397,-2.906889 z m 0,4.938889 c -0.95603,0 -1.88736,-0.705555 -1.88736,-2.042583 0,-1.337028 0.90664,-2.056695 1.88736,-2.056695 0.98072,0 1.88383,0.705556 1.88383,2.056695 0,1.351139 -0.91722,2.053167 -1.88383,2.053167 z" />
    <rect
       id="rect1198"
       style="fill:#e0c490;fill-opacity:1;stroke-width:0.352777"
       height="0.79727781"
       width="5.7432227"
       y="1.4428604"
       x="118.72384" />
    <polygon
       id="polygon1200"
       style="fill:#e0c490;fill-opacity:1"
       points="247.5,21.38 248.36,24.62 244.91,24.62 245.77,21.38 245.77,7.21 244.91,3.97 248.36,3.97 247.5,7.21 "
       transform="scale(0.3527778)" />
    <path
       d="m 6.988528,70.671976 a 5.6761946,5.6761946 0 1 1 5.676195,-5.6762 5.6832503,5.6832503 0 0 1 -5.676195,5.6762 z m 0,-10.99961 a 5.3234169,5.3234169 0 1 0 5.323417,5.32341 5.3304726,5.3304726 0 0 0 -5.323417,-5.32341 z"
       style="fill:#e0c490;fill-opacity:1;stroke-width:0.352777"
       id="path858-3" />
    <path
       id="path858-3-2"
       style="fill:#e0c490;fill-opacity:1;stroke-width:0.352777"
       d="m 6.988528,32.571973 a 5.6761946,5.6761946 0 1 1 5.676194,-5.6762 5.6832503,5.6832503 0 0 1 -5.676194,5.6762 z m 0,-10.99961 a 5.3234169,5.3234169 0 1 0 5.323416,5.32341 5.3304726,5.3304726 0 0 0 -5.323416,-5.32341 z" />
    <path
       d="m 66.043535,78.291976 a 5.6761946,5.6761946 0 1 1 5.676194,-5.676198 5.6832503,5.6832503 0 0 1 -5.676194,5.676198 z m 0,-10.99961 a 5.3234169,5.3234169 0 1 0 5.323416,5.323412 5.3304726,5.3304726 0 0 0 -5.323416,-5.323412 z"
       style="fill:#e0c490;fill-opacity:1;stroke-width:0.352777"
       id="path858-3-4-6" />
    <path
       d="m 66.043534,40.191974 a 5.6761946,5.6761946 0 1 1 5.676195,-5.6762 5.6832503,5.6832503 0 0 1 -5.676195,5.6762 z m 0,-10.999614 a 5.3234169,5.3234169 0 1 0 5.323417,5.323414 5.3304726,5.3304726 0 0 0 -5.323417,-5.323414 z"
       style="fill:#e0c490;fill-opacity:1;stroke-width:0.352777"
       id="path858-4" />
  </g>
</svg>
