<?xml version="1.0" encoding="UTF-8"?>
<svg id="a" data-name="svg3542" xmlns="http://www.w3.org/2000/svg" width="5.12mm" height="5.69mm" xmlns:xlink="http://www.w3.org/1999/xlink" viewBox="0 0 14.52 16.14">
  <defs>
    <clipPath id="g">
      <path d="M.12,4.04C.29,3.76,6.93,0,7.26,0s6.97,3.76,7.14,4.04c.16.28.16,7.79,0,8.07-.16.28-6.81,4.04-7.14,4.04S.29,12.39.12,12.11C-.04,11.83-.04,4.32.12,4.04Z" style="fill: none;"/>
    </clipPath>
    <clipPath id="j">
      <path d="M.42,4.2C.58,3.94,6.94.34,7.26.34s6.68,3.6,6.84,3.87c.16.27.16,7.47,0,7.73-.16.27-6.52,3.87-6.84,3.87S.58,12.21.42,11.94s-.16-7.47,0-7.73Z" style="fill: none;"/>
    </clipPath>
  </defs>
  <g id="b" data-name="layer1">
    <g id="c" data-name="layer1">
      <g id="d" data-name="g1516">
        <g id="e" data-name="g1475">
          <g id="f" data-name="g1304">
            <g style="clip-path: url(#g);">
              <path id="h" data-name="path944" d="M.25,4.11C.41,3.83,6.94.14,7.26.14s6.85,3.69,7.01,3.96c.16.27.16,7.65,0,7.93s-6.69,3.96-7.01,3.96S.41,12.31.25,12.04s-.16-7.65,0-7.93Z" style="fill: #999; fill-rule: evenodd; isolation: isolate; opacity: .9;"/>
            </g>
            <path id="i" data-name="path1810" d="M7.26,14.48c3.55,0,6.42-2.87,6.42-6.41,0-3.54-2.88-6.41-6.42-6.41h0c-3.55,0-6.42,2.87-6.42,6.41h0c0,3.54,2.88,6.41,6.42,6.41ZM7.26,14.3c-3.49,0-6.32-2.79-6.32-6.23,0-3.44,2.83-6.23,6.32-6.23,3.49,0,6.32,2.79,6.32,6.23,0,3.44-2.83,6.23-6.32,6.23Z" style="fill-rule: evenodd; isolation: isolate; opacity: .37;"/>
            <g style="clip-path: url(#j);">
              <path id="k" data-name="path1008" d="M.54,4.27c.16-.26,6.41-3.8,6.72-3.8s6.56,3.54,6.72,3.8c.16.26.16,7.33,0,7.6s-6.41,3.8-6.72,3.8S.7,12.13.54,11.87s-.16-7.33,0-7.6Z" style="fill: #1a1a1a; fill-rule: evenodd; isolation: isolate; opacity: .19;"/>
            </g>
            <ellipse id="l" data-name="path1815" cx="7.26" cy="8.07" rx="5.87" ry="5.76" style="fill: #1a1a1a; isolation: isolate; opacity: .91;"/>
            <g id="m" data-name="g1229">
              <ellipse id="n" data-name="path2994" cx="7.26" cy="8.07" rx="5.54" ry="5.48" style="fill: #f2f2f2;"/>
              <ellipse id="o" data-name="path3022" cx="7.26" cy="8.07" rx="5.01" ry="5" style="fill: #4d4d4d;"/>
              <ellipse id="p" data-name="path3012" cx="7.26" cy="8.07" rx="5.29" ry="5.27" style="fill: #4d4d4d; isolation: isolate; opacity: .2;"/>
              <ellipse id="q" data-name="path1794" cx="7.26" cy="7.94" rx="5.63" ry="5.61" style="isolation: isolate; opacity: .42;"/>
              <path id="r" data-name="path2977" d="M7.26,10.89c1.56,0,2.83-1.26,2.83-2.82,0-1.56-1.27-2.82-2.83-2.82-1.56,0-2.83,1.26-2.83,2.82,0,1.56,1.27,2.82,2.83,2.82ZM7.26,10.73c-1.47,0-2.67-1.19-2.67-2.66,0-1.47,1.19-2.66,2.67-2.66,1.47,0,2.67,1.19,2.67,2.66,0,1.47-1.19,2.66-2.67,2.66Z" style="fill: #a80000; fill-rule: evenodd;"/>
              <path id="s" data-name="path3060" d="M7.26,11.83c2.12,0,3.85-1.68,3.85-3.76h0c0-2.08-1.72-3.76-3.85-3.76h0c-2.12,0-3.85,1.68-3.85,3.76h0c0,2.08,1.72,3.76,3.85,3.76,0,0,0,0,0,0ZM7.26,11.21c-1.77,0-3.21-1.41-3.21-3.14h0c0-1.73,1.44-3.14,3.21-3.14,1.77,0,3.21,1.41,3.21,3.14,0,1.73-1.44,3.14-3.21,3.14,0,0,0,0,0,0Z" style="fill: #1a1a1a; fill-rule: evenodd;"/>
            </g>
          </g>
        </g>
      </g>
      <g>
        <g>
          <circle cx="7.24" cy="8.09" r="2.33" style="fill: #898989;"/>
          <path d="M9.57,8.09c-.07-3-4.61-3.04-4.63,0,.11,3.02,4.52,3.01,4.63,0h0ZM9.58,8.09c-.03,3.13-4.65,3.15-4.7,0,.12-3.12,4.63-3.15,4.7,0h0Z" style="fill: #aaa;"/>
        </g>
        <path id="t" data-name="path1733" d="M8.4,6.84c.04-.52-.38-.9-.98-.9s-1.21.38-1.42.89l1.16.16,1.24-.16Z" style="fill: #eaeaea; fill-rule: evenodd;"/>
        <path id="u" data-name="path1678" d="M7.85,9.59c.47.28,1.03.06,1.31-.51s.2-1.32-.19-1.77l-.69,1.03-.43,1.25Z" style="fill: #ccc; fill-rule: evenodd;"/>
        <path id="v" data-name="path1688" d="M6.47,9.52c-.44.26-.96.05-1.23-.48-.26-.53-.19-1.23.18-1.65l.65.96.4,1.17Z" style="fill: #ccc; fill-rule: evenodd;"/>
      </g>
    </g>
  </g>
</svg>