<?xml version="1.0" encoding="UTF-8"?>
<svg id="a" data-name="svg3542" xmlns="http://www.w3.org/2000/svg" width="5.12mm" height="5.69mm" xmlns:xlink="http://www.w3.org/1999/xlink" viewBox="0 0 14.52 16.14">
  <defs>
    <clipPath id="g">
      <path d="M14.4,12.11c-.16.28-6.81,4.04-7.14,4.04S.29,12.39.12,12.11C-.04,11.83-.04,4.32.12,4.04.29,3.76,6.93,0,7.26,0s6.97,3.76,7.14,4.04c.16.28.16,7.79,0,8.07Z" style="fill: none;"/>
    </clipPath>
    <clipPath id="j">
      <path d="M14.1,11.94c-.16.27-6.52,3.87-6.84,3.87S.58,12.21.42,11.94c-.16-.27-.16-7.47,0-7.73C.58,3.94,6.94.34,7.26.34s6.68,3.6,6.84,3.87.16,7.47,0,7.73Z" style="fill: none;"/>
    </clipPath>
    <linearGradient id="v" data-name="Degradado sin nombre" x1="-713.43" y1="-256.12" x2="-706.38" y2="-256.12" gradientTransform="translate(476.3 -192.92) scale(.66 -.79)" gradientUnits="userSpaceOnUse">
      <stop offset="0" stop-color="#636363"/>
      <stop offset="1" stop-color="#636363" stop-opacity="0"/>
    </linearGradient>
    <clipPath id="z">
      <path d="M7.25,8.92c1.32,0,2.38,1.1,2.38,2.46s-1.07,2.46-2.38,2.46-2.38-1.1-2.38-2.46,1.07-2.46,2.38-2.46Z" style="fill: none;"/>
    </clipPath>
    <clipPath id="ac">
      <path d="M7.26,8.88c1.32,0,2.38,1.1,2.38,2.46s-1.07,2.46-2.38,2.46-2.38-1.1-2.38-2.46,1.07-2.46,2.38-2.46Z" style="fill: none;"/>
    </clipPath>
  </defs>
  <g id="b" data-name="layer1">
    <g id="c" data-name="layer1">
      <g id="d" data-name="g1516">
        <g id="e" data-name="g1475">
          <g id="f" data-name="g1304">
            <g style="clip-path: url(#g);">
              <path id="h" data-name="path944" d="M14.27,12.04c-.16.27-6.69,3.96-7.01,3.96S.41,12.31.25,12.04c-.16-.27-.16-7.65,0-7.93S6.94.14,7.26.14s6.85,3.69,7.01,3.96.16,7.65,0,7.93Z" style="fill: #999; fill-rule: evenodd; isolation: isolate; opacity: .9;"/>
            </g>
            <path id="i" data-name="path1810" d="M7.26,1.66c-3.55,0-6.42,2.87-6.42,6.41,0,3.54,2.88,6.41,6.42,6.41h0c3.55,0,6.42-2.87,6.42-6.41h0c0-3.54-2.88-6.41-6.42-6.41ZM7.26,1.84c3.49,0,6.32,2.79,6.32,6.23,0,3.44-2.83,6.23-6.32,6.23-3.49,0-6.32-2.79-6.32-6.23,0-3.44,2.83-6.23,6.32-6.23Z" style="fill-rule: evenodd; isolation: isolate; opacity: .37;"/>
            <g style="clip-path: url(#j);">
              <path id="k" data-name="path1008" d="M13.98,11.87c-.16.26-6.41,3.8-6.72,3.8S.7,12.13.54,11.87c-.16-.26-.16-7.33,0-7.6S6.95.47,7.26.47s6.56,3.54,6.72,3.8.16,7.33,0,7.6Z" style="fill: #1a1a1a; fill-rule: evenodd; isolation: isolate; opacity: .19;"/>
            </g>
            <ellipse id="l" data-name="path1815" cx="7.26" cy="8.07" rx="5.87" ry="5.76" style="fill: #1a1a1a; isolation: isolate; opacity: .91;"/>
            <g id="m" data-name="g1229">
              <ellipse id="n" data-name="path2994" cx="7.26" cy="8.07" rx="5.54" ry="5.48" style="fill: #f2f2f2;"/>
              <ellipse id="o" data-name="path3022" cx="7.26" cy="8.07" rx="5.01" ry="5" style="fill: #4d4d4d;"/>
              <ellipse id="p" data-name="path3012" cx="7.26" cy="8.07" rx="5.29" ry="5.27" style="fill: #4d4d4d; isolation: isolate; opacity: .2;"/>
              <ellipse id="q" data-name="path1794" cx="7.26" cy="8.21" rx="5.63" ry="5.61" style="isolation: isolate; opacity: .42;"/>
              <path id="r" data-name="path2977" d="M7.26,5.25c-1.56,0-2.83,1.26-2.83,2.82,0,1.56,1.27,2.82,2.83,2.82,1.56,0,2.83-1.26,2.83-2.82,0-1.56-1.27-2.82-2.83-2.82ZM7.26,5.41c1.47,0,2.67,1.19,2.67,2.66,0,1.47-1.19,2.66-2.67,2.66-1.47,0-2.67-1.19-2.67-2.66,0-1.47,1.19-2.66,2.67-2.66Z" style="fill: #a80000; fill-rule: evenodd;"/>
              <path id="s" data-name="path3060" d="M7.26,4.31c-2.12,0-3.85,1.68-3.85,3.76h0c0,2.08,1.72,3.76,3.85,3.76h0c2.12,0,3.85-1.68,3.85-3.76h0c0-2.08-1.72-3.76-3.85-3.76,0,0,0,0,0,0ZM7.26,4.93c1.77,0,3.21,1.41,3.21,3.14h0c0,1.73-1.44,3.14-3.21,3.14-1.77,0-3.21-1.41-3.21-3.14,0-1.73,1.44-3.14,3.21-3.14,0,0,0,0,0,0Z" style="fill: #1a1a1a; fill-rule: evenodd;"/>
              <g id="t" data-name="g989">
                <g id="u" data-name="g3261">
                  <path id="w" data-name="path1344" d="M6.05,7.19c-.36.86-1.24,3.13-1,3.41-.05.31.47-1.56,2.1-1.58,1.97.15,1.73,1.03,2.49,1.63.22.18-1.25-3.51-1.43-3.64-.24-.9-1.87-.77-2.14.11l-.03.06Z" style="fill: url(#v); fill-rule: evenodd;"/>
                  <path id="x" data-name="path3101" d="M7.21,6.01c-.67,0-1.27.67-1.57,1.72h.15c.33-.81.87-1.28,1.43-1.28.57,0,1.1.49,1.43,1.3h.15c-.3-1.06-.91-1.73-1.58-1.73,0,0,0,0-.01,0h0Z" style="fill: #1a1a1a; fill-rule: evenodd; isolation: isolate; opacity: .69;"/>
                </g>
                <g id="y" data-name="g1829">
                  <g style="clip-path: url(#z);">
                    <g id="aa" data-name="g1737">
                      <circle id="ab" data-name="circle1735" cx="7.16" cy="10.67" r=".16" style="fill: rgba(204, 204, 204, .74);"/>
                    </g>
                  </g>
                  <g style="clip-path: url(#ac);">
                    <g id="ad" data-name="g1684">
                      <circle id="ae" data-name="circle1682" cx="7.17" cy="10.63" r=".16" style="fill: rgba(204, 204, 204, .74);"/>
                    </g>
                  </g>
                  <circle id="af" data-name="circle1747" cx="6.99" cy="11" r=".16" style="fill: rgba(236, 236, 236, .74);"/>
                </g>
              </g>
            </g>
          </g>
        </g>
      </g>
    </g>
  </g>
  <g>
    <g>
      <circle cx="7.21" cy="11.35" r="2.33" style="fill: #898989;"/>
      <path d="M9.53,11.35c-.07-3-4.61-3.04-4.63,0,.11,3.02,4.52,3.01,4.63,0h0ZM9.54,11.35c-.03,3.13-4.65,3.15-4.7,0,.12-3.12,4.63-3.15,4.7,0h0Z" style="fill: #aaa;"/>
    </g>
    <path id="ag" data-name="path1733" d="M8.36,10.11c.04-.52-.38-.9-.98-.9s-1.21.38-1.42.89l1.16.16,1.24-.16Z" style="fill: #eaeaea; fill-rule: evenodd;"/>
    <path id="ah" data-name="path1678" d="M7.82,12.85c.47.28,1.03.06,1.31-.51s.2-1.32-.19-1.77l-.69,1.03-.43,1.25Z" style="fill: #ccc; fill-rule: evenodd;"/>
    <path id="ai" data-name="path1688" d="M6.43,12.79c-.44.26-.96.05-1.23-.48-.26-.53-.19-1.23.18-1.65l.65.96.4,1.17Z" style="fill: #ccc; fill-rule: evenodd;"/>
  </g>
</svg>