<svg width="90px" height="380px" clip-rule="evenodd" fill-rule="evenodd" stroke-linecap="round" version="1.1" xml:space="preserve" xmlns="http://www.w3.org/2000/svg" xmlns:serif="http://www.serif.com/" xmlns:xlink="http://www.w3.org/1999/xlink">
  <defs>
    <linearGradient id="linearGradient287" x1=".6772" x2=".76349" y1="-.069792" y2="-.10385" gradientTransform="matrix(720 -380 1824 150 -300.04 380)" gradientUnits="userSpaceOnUse">
      <stop stop-color="#401B5C" offset="0"/>
      <stop stop-color="#401B5C" offset="1"/>
    </linearGradient>
    <linearGradient id="linearGradient289" x1="764.07" x2="759.19" y1="160.75" y2="253.33" gradientTransform="matrix(1 0 0 -1 -501.57 506.66)" gradientUnits="userSpaceOnUse" xlink:href="#linearGradient2296"/>
    <linearGradient id="linearGradient2296">
      <stop stop-color="#401B5C" offset="0"/>
      <stop stop-color="#401B5C" offset="1"/>
    </linearGradient>
    <linearGradient id="linearGradient291" x1="764.07" x2="759.32" y1="221.53" y2="126.67" gradientTransform="matrix(1 0 0 -1 -501.57 380)" gradientUnits="userSpaceOnUse" xlink:href="#linearGradient2296"/>
    <linearGradient id="linearGradient295" x1="42.029" x2="42.029" y1="-13.009" y2="-16.778" gradientTransform="matrix(1 0 0 .5 -.5495 8.4408)" gradientUnits="userSpaceOnUse">
      <stop stop-color="#401B5C" offset="0"/>
      <stop stop-color="#ccc" offset="1"/>
    </linearGradient>
  </defs>
  <g clip-rule="evenodd" fill-rule="evenodd" stroke-linecap="round">
    <path d="m0 0v380h90v-380z" fill="url(#linearGradient287)" stroke-width="2.4514"/>
    <path d="m0 253.33v126.67h90v-126.67z" fill="url(#linearGradient289)" style="paint-order:normal"/>
    <path d="m0 126.67v126.67h90v-126.67z" fill="url(#linearGradient291)" style="paint-order:normal"/>
    <path d="m0 0v380h90v-380z" fill="#103550" opacity=".1" stroke-width="2.4514"/>
    <path d="m0 0v2h90v-2z" fill="url(#linearGradient295)" style="paint-order:normal"/>
  </g>
  <g fill-rule="nonzero">
    <path d="m58.925 307.37c-5.3588 0-9.7226 4.3638-9.7226 9.7227v21.178c0 5.3598 4.3639 9.7207 9.7226 9.7207h10.412c5.3597 0 9.7207-4.361 9.7207-9.7207v-21.178c0-5.3588-4.3609-9.7227-9.7207-9.7227z" clip-rule="nonzero" color="#000000" color-rendering="auto" dominant-baseline="auto" fill="none" image-rendering="auto" shape-rendering="auto" solid-color="#000000" stroke="#FDDEA2" stroke-width="1.2" style="font-feature-settings:normal;font-variant-alternates:normal;font-variant-caps:normal;font-variant-ligatures:normal;font-variant-numeric:normal;font-variant-position:normal;isolation:auto;mix-blend-mode:normal;shape-padding:0;text-decoration-color:#000000;text-decoration-line:none;text-decoration-style:solid;text-indent:0;text-orientation:mixed;text-transform:none;white-space:normal"/>
    <g transform="translate(-210.76 147.75)" clip-rule="evenodd" fill="#FDDEA2" stroke-miterlimit="10">
      <path d="m268.55 192.09c0 0.21 0.04 0.403 0.119 0.581 0.079 0.177 0.187 0.331 0.322 0.462 0.135 0.13 0.293 0.232 0.472 0.304 0.18 0.072 0.37 0.109 0.571 0.109s0.391-0.037 0.57-0.109c0.18-0.072 0.339-0.174 0.476-0.304 0.138-0.131 0.247-0.285 0.326-0.462 0.079-0.178 0.119-0.371 0.119-0.581s-0.04-0.404-0.119-0.581c-0.079-0.178-0.188-0.332-0.326-0.462-0.137-0.131-0.296-0.233-0.476-0.305-0.179-0.072-0.369-0.108-0.57-0.108s-0.391 0.036-0.571 0.108c-0.179 0.072-0.337 0.174-0.472 0.305-0.135 0.13-0.243 0.284-0.322 0.462-0.079 0.177-0.119 0.371-0.119 0.581zm-1.435 0c0-0.392 0.072-0.758 0.217-1.096s0.345-0.633 0.602-0.885 0.563-0.45 0.92-0.592 0.751-0.213 1.18-0.213c0.425 0 0.817 0.071 1.176 0.213s0.668 0.34 0.927 0.592 0.461 0.547 0.606 0.885 0.217 0.704 0.217 1.096-0.072 0.757-0.217 1.095-0.347 0.634-0.606 0.886-0.568 0.449-0.927 0.591-0.751 0.214-1.176 0.214c-0.429 0-0.823-0.072-1.18-0.214s-0.663-0.339-0.92-0.591-0.457-0.548-0.602-0.886-0.217-0.703-0.217-1.095z"/>
      <path d="m275.2 189.45v2.87c0 0.154 6e-3 0.311 0.017 0.472 0.012 0.161 0.047 0.307 0.105 0.438 0.059 0.13 0.151 0.236 0.277 0.318s0.303 0.123 0.532 0.123 0.405-0.041 0.528-0.123c0.124-0.082 0.216-0.188 0.277-0.318 0.061-0.131 0.097-0.277 0.108-0.438 0.012-0.161 0.018-0.318 0.018-0.472v-2.87h1.365v3.059c0 0.821-0.188 1.421-0.564 1.799-0.375 0.378-0.953 0.567-1.732 0.567s-1.358-0.189-1.736-0.567-0.567-0.978-0.567-1.799v-3.059z"/>
      <path d="m281.54 190.61v4.116h-1.372v-4.116h-1.127v-1.162h3.626v1.162z"/>
    </g>
    <g transform="translate(-2167.2 63.867)" clip-rule="evenodd" stroke-linecap="round" stroke-miterlimit="10">
      <g transform="translate(2083 -74.958)">
        <path d="m137.38 369.52c0-4.509-3.655-8.165-8.164-8.165s-8.165 3.656-8.165 8.165 3.656 8.165 8.165 8.165 8.164-3.656 8.164-8.165z" fill="#757575" stroke="#353535" stroke-width=".61px"/>
        <path d="m127.32 374.49 0.553-0.89-1.064-2.393-2.216-2.284 0.46 3.101 0.597 1.28 0.833 1.263z" fill="#2b2b2b"/>
        <path d="m131.05 374.5-0.553-0.891 1.064-2.393 2.216-2.284-0.46 3.101-0.597 1.28-0.833 1.264z" fill="#401B5C"/>
        <path d="m126.64 363.46 2.584-0.661v13.448l-1.349-2.651-1.061-2.385-1.022-0.581-2.052-2.921-0.057-0.775 1.148-2.067z" fill="#424242"/>
        <path d="m131.8 363.46-2.584-0.66v13.448l1.35-2.651 1.06-2.385 1.023-0.581 2.051-2.921 0.058-0.775-1.149-2.068z" fill="#333"/>
        <path d="m127.5 369.34 1.723-1.685v1.23l-1.723 1.718v-1.263" fill="#4c4c4c"/>
        <path d="m129.22 368.88-1.723 1.718 0.377 3.004 1.346 2.643z" fill="#5b5b5b"/>
        <path d="m129.22 376.25-1.346-2.643 1.346-0.635z" fill="#333"/>
        <path d="m127.5 370.6v-1.264l-1.249-1.579-1.477-1.19-1e-3 0.932 0.775 1.823z" fill="#FDDEA2"/>
        <path d="m130.94 369.34-1.722-1.684v1.23l1.722 1.718v-1.264" fill="#2d2d2d"/>
        <path d="m129.22 368.88 1.722 1.718-0.376 3.004-1.347 2.643z" fill="#353535"/>
        <path d="m129.22 376.25 1.347-2.643-1.346-0.635z" fill="#401B5C"/>
        <path d="m130.94 370.6v-1.264l1.249-1.579 1.478-1.19 1e-3 0.932-0.775 1.823z" fill="#FDDEA2"/>
        <path d="m126.65 363.44 2.566 4.216-5e-3 -4.87" fill="#383838"/>
        <path d="m131.78 363.44-2.566 4.215 6e-3 -4.87" fill="#2d2d2d"/>
        <path d="m126.81 371.21 0.688-0.61 0.375 3.006z" fill="#333"/>
        <path d="m131.63 371.23-0.688-0.61-0.375 3.006z" fill="#1c1c1c"/>
      </g>
      <path d="m2200.6 304.21 2.2598 6.8106c0.2113 0.635 0.5947 0.95117 1.1503 0.95117 0.5477 0 0.9288-0.31232 1.1407-0.94141l2.2695-6.8203h-1.7441l-1.6895 5.4551-1.6328-5.4551zm6.9531 0v5.7676c0 0.48281 0.052 0.82913 0.1543 1.041 0.2775 0.57793 0.7963 0.86719 1.5566 0.86719h2.127c0.7386 0 1.2549-0.28091 1.5468-0.84375 0.1097-0.21254 0.1641-0.57172 0.1641-1.0762v-5.7559h-1.6445v5.6797l-0.01 0.0547c-0.037 0.19025-0.2241 0.28515-0.5606 0.28515h-1.1191c-0.3509 0-0.5394-0.10197-0.5684-0.30664v-5.7129zm6.3047 0v5.8008c0 0.59957 0.1245 1.046 0.3731 1.3418 0.248 0.29651 0.6694 0.47028 1.2617 0.52148 0.081 7e-3 0.1756 0.0117 0.2852 0.0117h3.0605l0.01-1.6562h-2.9278c-0.2781 0-0.416-0.11737-0.416-0.35156v-5.668zm5.043 0v1.6562h1.6347v6.0195h1.6446v-6.0195h1.6562v-1.6562z" fill="#666" stroke-width=".65599"/>
    </g>
  </g>
  <g fill="#FDDEA2">
    <g transform="translate(-.03052)" fill-rule="nonzero" serif:id="text9293-4">
      <path d="m15.403 339.39 1.274 3.213 1.281-3.213h1.491l-2.226 5.278h-1.092l-2.219-5.278z"/>
      <path d="m22.319 338.86h1.001l-2.884 7.021h-0.994z"/>
      <path d="m24.874 342.03c0 0.21 0.04 0.404 0.119 0.581 0.08 0.178 0.187 0.332 0.322 0.462 0.136 0.131 0.293 0.232 0.473 0.305 0.18 0.072 0.37 0.108 0.57 0.108 0.201 0 0.391-0.036 0.571-0.108 0.18-0.073 0.338-0.174 0.476-0.305 0.138-0.13 0.246-0.284 0.325-0.462 0.08-0.177 0.119-0.371 0.119-0.581s-0.039-0.403-0.119-0.581c-0.079-0.177-0.187-0.331-0.325-0.462-0.138-0.13-0.296-0.232-0.476-0.304-0.18-0.073-0.37-0.109-0.571-0.109-0.2 0-0.39 0.036-0.57 0.109-0.18 0.072-0.337 0.174-0.473 0.304-0.135 0.131-0.242 0.285-0.322 0.462-0.079 0.178-0.119 0.371-0.119 0.581zm-1.435 0c0-0.392 0.073-0.757 0.217-1.095 0.145-0.339 0.346-0.634 0.602-0.886 0.257-0.252 0.564-0.449 0.921-0.591 0.357-0.143 0.75-0.214 1.179-0.214 0.425 0 0.817 0.071 1.176 0.214 0.36 0.142 0.669 0.339 0.928 0.591s0.461 0.547 0.605 0.886c0.145 0.338 0.217 0.703 0.217 1.095s-0.072 0.757-0.217 1.096c-0.144 0.338-0.346 0.633-0.605 0.885s-0.568 0.449-0.928 0.592c-0.359 0.142-0.751 0.213-1.176 0.213-0.429 0-0.822-0.071-1.179-0.213-0.357-0.143-0.664-0.34-0.921-0.592-0.256-0.252-0.457-0.547-0.602-0.885-0.144-0.339-0.217-0.704-0.217-1.096z"/>
      <path d="m33.953 341.16c-0.317-0.387-0.709-0.581-1.176-0.581-0.205 0-0.395 0.038-0.57 0.112-0.175 0.075-0.326 0.176-0.452 0.305-0.126 0.128-0.225 0.281-0.297 0.458-0.072 0.178-0.109 0.369-0.109 0.574 0 0.21 0.037 0.404 0.109 0.581 0.072 0.178 0.173 0.332 0.301 0.462 0.128 0.131 0.279 0.234 0.451 0.308 0.173 0.075 0.36 0.112 0.56 0.112 0.439 0 0.833-0.186 1.183-0.56v1.624l-0.14 0.049c-0.21 0.075-0.406 0.13-0.588 0.165s-0.361 0.052-0.539 0.052c-0.364 0-0.712-0.069-1.046-0.206-0.334-0.138-0.628-0.332-0.882-0.581-0.254-0.25-0.459-0.546-0.613-0.889s-0.231-0.718-0.231-1.124 0.076-0.778 0.228-1.116c0.152-0.339 0.355-0.63 0.609-0.875s0.549-0.437 0.885-0.574c0.336-0.138 0.689-0.207 1.057-0.207 0.21 0 0.417 0.022 0.62 0.067 0.203 0.044 0.416 0.113 0.64 0.206z"/>
      <path d="m36.823 340.56v4.116h-1.372v-4.116h-1.127v-1.162h3.626v1.162z"/>
    </g>
    <g shape-rendering="auto">
      <path d="m45.001 210.72c-5.7056 0-11.412 1.934-16.027 5.8047-9.2292 7.7454-11.587 21.128-5.5644 31.564 0.39161 0.72245 1.4687 0.10091 1.0391-0.59961-5.7331-9.934-3.4881-22.672 5.2968-30.045 8.7857-7.3686 21.725-7.3686 30.51 0 8.7859 7.3726 11.03 20.111 5.2969 30.045-0.4296 0.70052 0.6474 1.3221 1.039 0.59961 6.0228-10.436 3.6658-23.819-5.5644-31.564-4.6146-3.8707-10.32-5.8047-16.025-5.8047zm-18.883 41.52c-2.371 0-4.3067 1.9356-4.3067 4.3066s1.9357 4.3047 4.3067 4.3047 4.3066-1.9336 4.3066-4.3047c0-2.371-1.9356-4.3066-4.3066-4.3066zm37.766 0c-2.371 0-4.3047 1.9337-4.3047 4.3047s1.9337 4.3066 4.3047 4.3066 4.3066-1.9356 4.3066-4.3066-1.9356-4.3047-4.3066-4.3047zm-37.766 1.1992c1.7225 0 3.1054 1.3849 3.1054 3.1074s-1.3829 3.1055-3.1054 3.1055-3.1055-1.383-3.1055-3.1055 1.383-3.1074 3.1055-3.1074z" clip-rule="nonzero" color="#000000" color-rendering="auto" dominant-baseline="auto" fill-rule="nonzero" image-rendering="auto" solid-color="#000000" style="font-feature-settings:normal;font-variant-alternates:normal;font-variant-caps:normal;font-variant-ligatures:normal;font-variant-numeric:normal;font-variant-position:normal;isolation:auto;mix-blend-mode:normal;shape-padding:0;text-decoration-color:#000000;text-decoration-line:none;text-decoration-style:solid;text-indent:0;text-orientation:mixed;text-transform:none;white-space:normal"/>
      <path d="m62.053 268.11c-0.3318 6e-3 -0.5961 0.2795-0.5898 0.61133v1.4082c-2.5205 0.12995-5.0063 1.0422-7.0469 2.7559-4.4191 3.7073-5.55 10.112-2.668 15.105l0.3008 0.51954 10.035-5.793 10.035 5.793 0.3008-0.51954c2.882-4.9932 1.7522-11.398-2.668-15.105-2.0515-1.7227-4.5549-2.6361-7.0898-2.7578v-1.4102c0-0.33796-0.2714-0.6127-0.6094-0.60743zm-0.5859 3.2188 0.019 10.35-8.9024 5.1406c-2.2095-4.4023-1.2092-9.8134 2.6055-13.014 1.8188-1.5274 4.0314-2.348 6.2774-2.4766zm1.1992 0c2.2594 0.12115 4.4875 0.94037 6.3164 2.4766 3.8157 3.2003 4.8132 8.6113 2.6035 13.014l-8.9023-5.1406zm7.9322 17.562 0.01 1.582-1.6055 8e-3c-0.8309-0.0278-0.8246 1.2353 0.01 1.1992l1.6055-8e-3 0.01 1.6289c-0.026 0.83079 1.2365 0.82237 1.1992-8e-3l-0.01-1.625 1.6036-8e-3c0.8007-4e-3 0.7947-1.2052-0.01-1.2012l-1.6055 8e-3 -0.01-1.584c0-0.77067-1.1973-0.75555-1.1973 8e-3zm-15.172 1.4453-4.4141 0.0195c-0.8008 4e-3 -0.7948 1.2052 0.01 1.2012l4.4141-0.0215c0.8309 0.0278 0.8246-1.2353-0.01-1.1992z" clip-rule="nonzero" color="#000000" color-rendering="auto" dominant-baseline="auto" fill-rule="nonzero" image-rendering="auto" solid-color="#000000" style="font-feature-settings:normal;font-variant-alternates:normal;font-variant-caps:normal;font-variant-ligatures:normal;font-variant-numeric:normal;font-variant-position:normal;isolation:auto;mix-blend-mode:normal;shape-padding:0;text-decoration-color:#000000;text-decoration-line:none;text-decoration-style:solid;text-indent:0;text-orientation:mixed;text-transform:none;white-space:normal"/>
      <path d="m22.181 57.714a0.60006 0.60006 0 0 0-0.5898 0.60938v2.5391c-3.8726 0.13643-7.7095 1.5048-10.844 4.1348-6.6112 5.5474-8.2994 15.132-3.9844 22.605a0.60006 0.60006 0 1 0 1.0391-0.59961c-4.025-6.9708-2.45-15.913 3.7168-21.088 2.912-2.4435 6.4743-3.7177 10.072-3.8535v2.3828a0.60006 0.60006 0 1 0 1.1992 0v-2.3867c3.6218 0.12155 7.212 1.398 10.143 3.8574 6.1668 5.1746 7.7437 14.117 3.7187 21.088a0.60006 0.60006 0 1 0 1.0391 0.59961c4.315-7.4732 2.6248-17.058-3.9864-22.605-3.1527-2.6459-7.0176-4.0166-10.914-4.1387v-2.5352a0.60006 0.60006 0 0 0-0.6094-0.60938zm14.412 30.799a0.60006 0.60006 0 0 0-0.5879 0.61133l0.016 2.7266-2.7597 0.0117a0.60061 0.60061 0 1 0 0.01 1.2012l2.7559-0.0137 0.016 2.793a0.60061 0.60061 0 1 0 1.2012-8e-3l-0.016-2.7891 2.7617-0.0137a0.60006 0.60006 0 1 0 0-1.1992h-0.01l-2.7598 0.0117-0.016-2.7266a0.60006 0.60006 0 0 0-0.6133-0.60547zm-24.51 3.1289-6.7187 0.0312a0.60006 0.60006 0 1 0 0.01 1.1992l6.7187-0.0312a0.60006 0.60006 0 1 0-0.01-1.1992z" clip-rule="evenodd" color="#000000" color-rendering="auto" dominant-baseline="auto" fill-rule="evenodd" image-rendering="auto" solid-color="#000000" style="font-feature-settings:normal;font-variant-alternates:normal;font-variant-caps:normal;font-variant-ligatures:normal;font-variant-numeric:normal;font-variant-position:normal;isolation:auto;mix-blend-mode:normal;shape-padding:0;text-decoration-color:#000000;text-decoration-line:none;text-decoration-style:solid;text-indent:0;text-orientation:mixed;text-transform:none;white-space:normal"/>
      <path d="m74.434 59.87a0.60006 0.60006 0 0 0-0.5352 0.39062l-0.5234 1.3555c-1.8089-0.5909-3.6908-0.90039-5.5762-0.90039-1.8651 0-3.7264 0.30453-5.5175 0.88281l-0.4571-1.2734a0.60006 0.60006 0 0 0-0.6035-0.40429 0.60006 0.60006 0 0 0-0.5254 0.80859l0.4571 1.2773c-1.7183 0.68586-3.3558 1.6324-4.8321 2.8711-1.855 1.5566-3.3073 3.4376-4.3633 5.4941l-1.2363-0.61914a0.60006 0.60006 0 0 0-0.289-0.0664 0.60006 0.60006 0 0 0-0.2481 1.1406l1.2578 0.62891c-1.6817 3.8993-1.9477 8.3298-0.6562 12.455l-1.2344 0.45312a0.60006 0.60006 0 1 0 0.4121 1.127l1.2188-0.44532c0.3233 0.83022 0.698 1.6472 1.1542 2.4375a0.60006 0.60006 0 1 0 1.0391-0.59961c-0.4215-0.73001-0.7666-1.4853-1.0664-2.252l1.418-0.51953a0.60006 0.60006 0 0 0-0.1953-1.166 0.60006 0.60006 0 0 0-0.2168 0.0391l-1.4004 0.51368c-1.1796-3.8122-0.937-7.8992 0.6015-11.506l1.3887 0.69336a0.60008 0.60008 0 1 0 0.5352-1.0742l-1.4102-0.70508c0.9845-1.9129 2.3364-3.6629 4.0625-5.1113 1.365-1.1454 2.8776-2.0218 4.4649-2.6602l0.5039 1.4043a0.60045 0.60045 0 0 0 1.1308-0.4043l-0.5058-1.4082c3.331-1.067 6.9284-1.0639 10.258 0.01l-0.5352 1.3848a0.60006 0.60006 0 1 0 1.1192 0.43164l0.5429-1.4062c1.5765 0.6375 3.079 1.5101 4.4356 2.6484 1.6744 1.405 2.9974 3.0937 3.9746 4.9394l-1.2793 0.61523a0.60006 0.60006 0 1 0 0.5195 1.0801l1.2871-0.61914c1.6251 3.6886 1.8821 7.9 0.6387 11.811l-1.3926-0.50196a0.60006 0.60006 0 0 0-0.2344-0.0391 0.60006 0.60006 0 0 0-0.1718 1.168l1.3925 0.50196c-0.2901 0.72528-0.618 1.4408-1.0175 2.1328a0.60006 0.60006 0 1 0 1.039 0.59961c0.4355-0.75423 0.7931-1.5333 1.1074-2.3242l1.1934 0.42969a0.60022 0.60022 0 1 0 0.4082-1.1289l-1.1953-0.43164c1.3518-4.2155 1.0756-8.7614-0.6855-12.736l1.2519-0.60156a0.60006 0.60006 0 0 0-0.248-1.1445 0.60006 0.60006 0 0 0-0.2715 0.0625l-1.2617 0.60742c-1.0496-1.9953-2.4752-3.8208-4.2832-5.3379-1.46-1.225-3.0781-2.1633-4.7754-2.8477l0.5156-1.3359a0.60006 0.60006 0 0 0-0.584-0.82422zm7.7324 28.523a0.60006 0.60006 0 0 0-0.5879 0.61133l0.016 2.7246-2.7579 0.0137a0.60059 0.60059 0 1 0 0 1.2012l2.7637-0.0137 0.016 2.793a0.60006 0.60006 0 1 0 1.1993-8e-3l-0.014-2.7891 2.7539-0.0137a0.60061 0.60061 0 0 0 0-1.2012h-0.01l-2.7519 0.0137-0.014-2.7266a0.60006 0.60006 0 0 0-0.6133-0.60547zm-24.51 3.1289-6.7188 0.0312a0.60006 0.60006 0 1 0 0.01 1.1992l6.7187-0.0312a0.60006 0.60006 0 1 0-0.01-1.1992z" clip-rule="evenodd" color="#000000" color-rendering="auto" dominant-baseline="auto" fill-rule="evenodd" image-rendering="auto" solid-color="#000000" style="font-feature-settings:normal;font-variant-alternates:normal;font-variant-caps:normal;font-variant-ligatures:normal;font-variant-numeric:normal;font-variant-position:normal;isolation:auto;mix-blend-mode:normal;shape-padding:0;text-decoration-color:#000000;text-decoration-line:none;text-decoration-style:solid;text-indent:0;text-orientation:mixed;text-transform:none;white-space:normal"/>
    </g>
    <path d="m63.499 95.277c-0.429 0-0.82464 0.07089-1.1816 0.21289-0.357 0.142-0.66292 0.3398-0.91992 0.5918s-0.45656 0.54872-0.60156 0.88672-0.2168 0.70175-0.2168 1.0938c0 0.392 0.0718 0.75771 0.2168 1.0957 0.145 0.338 0.34456 0.63276 0.60156 0.88476s0.56292 0.45175 0.91992 0.59375 0.75264 0.21289 1.1816 0.21289c0.425 0 0.81678-0.0709 1.1758-0.21289 0.359-0.142 0.66678-0.34175 0.92578-0.59375s0.46242-0.54676 0.60742-0.88476 0.2168-0.70371 0.2168-1.0957-0.0718-0.75575-0.2168-1.0938c-0.145-0.338-0.34842-0.63472-0.60742-0.88672s-0.56678-0.4498-0.92578-0.5918-0.75078-0.21289-1.1758-0.21289zm6.334 0c-0.369 0-0.72064 0.06903-1.0566 0.20703-0.336 0.138-0.63172 0.32922-0.88672 0.57422-0.254 0.245-0.45737 0.537-0.60937 0.875-0.151 0.338-0.22656 0.70924-0.22656 1.1152s0.07647 0.782 0.23047 1.125 0.35928 0.63867 0.61328 0.88867c0.255 0.25 0.54786 0.44208 0.88086 0.58008 0.334 0.138 0.68288 0.20703 1.0469 0.20703 0.177 0 0.35706-0.0177 0.53906-0.0527s0.37789-0.0891 0.58789-0.16406l0.14063-0.0508v-1.623c-0.35 0.374-0.74459 0.56054-1.1836 0.56054-0.201 0-0.38559-0.0383-0.55859-0.11328-0.173-0.074-0.32412-0.17564-0.45312-0.30664-0.128-0.13-0.22778-0.28489-0.30078-0.46289-0.072-0.177-0.10742-0.37008-0.10742-0.58008 0-0.205 0.03542-0.39622 0.10742-0.57422 0.073-0.177 0.17283-0.33098 0.29883-0.45898s0.27617-0.22969 0.45117-0.30469c0.175-0.074 0.36531-0.11133 0.57031-0.11133 0.467 0 0.85878 0.19308 1.1758 0.58008v-1.6367c-0.224-0.093-0.43762-0.16303-0.64063-0.20703-0.203-0.044-0.40914-0.06641-0.61914-0.06641zm1.6309 0.14648v1.1621h1.127v4.1152h1.373v-4.1152h1.127v-1.1621zm-7.9648 1.1836c0.201 0 0.38936 0.03737 0.56836 0.10938 0.18 0.072 0.33956 0.17274 0.47656 0.30274 0.138 0.131 0.24717 0.28589 0.32617 0.46289 0.079 0.178 0.11914 0.37008 0.11914 0.58008s-0.04014 0.40503-0.11914 0.58203c-0.079 0.178-0.18817 0.33094-0.32617 0.46094-0.137 0.131-0.29656 0.23269-0.47656 0.30469-0.179 0.072-0.36736 0.10937-0.56836 0.10937s-0.39227-0.0374-0.57227-0.10937c-0.179-0.072-0.3357-0.17369-0.4707-0.30469-0.135-0.13-0.24327-0.28294-0.32227-0.46094-0.079-0.177-0.11914-0.37203-0.11914-0.58203s0.04014-0.40208 0.11914-0.58008c0.079-0.177 0.18727-0.33189 0.32227-0.46289 0.135-0.13 0.2917-0.23074 0.4707-0.30274 0.18-0.072 0.37127-0.10938 0.57227-0.10938z" fill-rule="nonzero"/>
    <path d="m12.515 95.887v1.1621h1.127v4.1152h1.373v-4.1152h1.127v-1.1621zm4.2344 0v3.0586c0 0.822 0.19036 1.4208 0.56836 1.7988s0.95733 0.56836 1.7363 0.56836 1.3564-0.19036 1.7324-0.56836c0.375-0.378 0.5625-0.97682 0.5625-1.7988v-3.0586h-1.3652v2.8711c0 0.15399-0.0056 0.31165-0.01758 0.47265-0.011 0.161-0.04642 0.30555-0.10742 0.43555-0.061 0.131-0.15434 0.23831-0.27734 0.32031-0.124 0.082-0.29834 0.12109-0.52734 0.12109s-0.4072-0.0391-0.5332-0.12109c-0.126-0.082-0.21834-0.18931-0.27734-0.32031-0.058-0.13-0.09251-0.27455-0.10352-0.43555-0.012-0.161-0.01758-0.31866-0.01758-0.47265v-2.8711zm5.7051 0v5.2773h1.373v-3.2266l2.5332 3.2266h1.3652v-5.2773h-1.3652v3.2266l-2.5332-3.2266zm6.377 0v5.2773h3.0039v-1.1602h-1.6309v-0.91016h1.5391v-1.1621h-1.5391v-0.88281h1.6309v-1.1621z" fill-rule="nonzero"/>
  </g>
  <g fill="#FDDEA2">
    <g transform="matrix(1.0588 0 0 1.0588 7.7583 37.714)" fill="#FDDEA2" fill-rule="nonzero">
      <path d="m18.171-0.154v-0.954c0.645 0.27 1.196 0.404 1.653 0.404 0.534 0 0.8-0.181 0.8-0.545 0-0.234-0.219-0.439-0.659-0.615l-0.44-0.176c-0.478-0.194-0.819-0.402-1.024-0.625-0.205-0.222-0.308-0.498-0.308-0.826 0-0.458 0.174-0.813 0.523-1.067 0.349-0.253 0.837-0.38 1.464-0.38 0.393 0 0.861 0.057 1.403 0.172v0.914c-0.522-0.182-0.954-0.272-1.297-0.272-0.539 0-0.809 0.167-0.809 0.501 0 0.22 0.199 0.406 0.598 0.558l0.378 0.145c0.566 0.214 0.959 0.431 1.181 0.651 0.221 0.22 0.332 0.503 0.332 0.849 0 0.454-0.189 0.823-0.565 1.106-0.377 0.282-0.867 0.424-1.471 0.424-0.581 0-1.167-0.088-1.759-0.264z"/>
      <path d="m23.39 0v-4.828h1.249v0.91c0.381-0.68 0.923-1.02 1.627-1.02 0.363 0 0.662 0.089 0.897 0.268 0.234 0.179 0.378 0.43 0.431 0.752 0.451-0.68 0.997-1.02 1.636-1.02 0.882 0 1.323 0.487 1.323 1.46v3.478h-1.249v-3.052c0-0.571-0.19-0.857-0.571-0.857-0.39 0-0.77 0.281-1.139 0.844v3.065h-1.249v-3.052c0-0.574-0.192-0.861-0.576-0.861s-0.761 0.282-1.13 0.848v3.065z"/>
      <path d="m34.15 0.11c-0.753 0-1.352-0.228-1.796-0.684s-0.666-1.069-0.666-1.84c0-0.78 0.223-1.395 0.67-1.847 0.447-0.451 1.055-0.677 1.823-0.677 0.771 0 1.38 0.226 1.827 0.677 0.447 0.452 0.67 1.064 0.67 1.838 0 0.792-0.224 1.412-0.673 1.86-0.448 0.449-1.067 0.673-1.855 0.673zm0.022-0.814c0.747 0 1.121-0.573 1.121-1.719 0-0.525-0.099-0.939-0.297-1.244s-0.469-0.457-0.815-0.457c-0.343 0-0.614 0.152-0.812 0.457-0.197 0.305-0.296 0.722-0.296 1.253 0 0.525 0.098 0.941 0.294 1.249 0.197 0.308 0.465 0.461 0.805 0.461z"/>
      <path d="m39.901 0.11c-0.753 0-1.352-0.228-1.796-0.684s-0.666-1.069-0.666-1.84c0-0.78 0.223-1.395 0.67-1.847 0.447-0.451 1.055-0.677 1.823-0.677 0.771 0 1.38 0.226 1.827 0.677 0.447 0.452 0.671 1.064 0.671 1.838 0 0.792-0.225 1.412-0.673 1.86-0.449 0.449-1.067 0.673-1.856 0.673zm0.022-0.814c0.748 0 1.122-0.573 1.122-1.719 0-0.525-0.099-0.939-0.297-1.244s-0.47-0.457-0.816-0.457c-0.343 0-0.613 0.152-0.811 0.457s-0.297 0.722-0.297 1.253c0 0.525 0.098 0.941 0.295 1.249 0.196 0.308 0.464 0.461 0.804 0.461z"/>
      <path d="m46.114-0.026c-0.31 0.09-0.555 0.136-0.734 0.136-1.129 0-1.693-0.528-1.693-1.583v-2.542h-0.541v-0.813h0.541v-0.813l1.302-0.15v0.963h1.033v0.813h-1.033v2.37c0 0.593 0.242 0.889 0.725 0.889 0.112 0 0.245-0.021 0.4-0.062z"/>
      <path d="m47.275 0v-6.943h1.302v3.025c0.425-0.68 0.973-1.02 1.644-1.02 0.431 0 0.771 0.136 1.02 0.409s0.374 0.645 0.374 1.117v3.412h-1.301v-3.091c0-0.548-0.182-0.822-0.546-0.822-0.413 0-0.81 0.291-1.191 0.875v3.038z"/>
      <path d="m16.166 11.366c-0.754 0-1.352-0.227-1.796-0.683s-0.667-1.07-0.667-1.84c0-0.78 0.224-1.396 0.671-1.847 0.447-0.452 1.055-0.677 1.823-0.677 0.771 0 1.38 0.225 1.827 0.677 0.447 0.451 0.67 1.064 0.67 1.838 0 0.791-0.224 1.411-0.673 1.86-0.448 0.448-1.067 0.672-1.855 0.672zm0.022-0.813c0.747 0 1.121-0.573 1.121-1.719 0-0.525-0.099-0.94-0.297-1.245s-0.469-0.457-0.815-0.457c-0.343 0-0.614 0.152-0.812 0.457-0.197 0.305-0.296 0.723-0.296 1.254 0 0.524 0.098 0.94 0.294 1.248 0.197 0.308 0.465 0.462 0.805 0.462z"/>
      <path d="m19.763 11.103v-0.955c0.645 0.27 1.196 0.405 1.653 0.405 0.533 0 0.8-0.182 0.8-0.545 0-0.235-0.22-0.44-0.659-0.616l-0.44-0.176c-0.478-0.193-0.819-0.401-1.025-0.624-0.205-0.223-0.307-0.498-0.307-0.827 0-0.457 0.174-0.812 0.523-1.066s0.837-0.38 1.464-0.38c0.393 0 0.86 0.057 1.403 0.171v0.915c-0.522-0.182-0.954-0.273-1.297-0.273-0.54 0-0.809 0.167-0.809 0.501 0 0.22 0.199 0.406 0.598 0.559l0.378 0.145c0.566 0.214 0.959 0.431 1.18 0.651 0.222 0.219 0.332 0.502 0.332 0.848 0 0.455-0.188 0.823-0.565 1.106-0.376 0.283-0.867 0.424-1.471 0.424-0.58 0-1.166-0.087-1.758-0.263z"/>
      <path d="m28.544 11.151c-0.54 0.144-1.04 0.215-1.5 0.215-0.771 0-1.38-0.226-1.827-0.679s-0.67-1.069-0.67-1.849c0-0.788 0.23-1.405 0.69-1.851s1.096-0.668 1.908-0.668c0.393 0 0.846 0.063 1.359 0.189v0.941c-0.533-0.173-0.96-0.26-1.28-0.26-0.389 0-0.703 0.15-0.94 0.449-0.238 0.299-0.357 0.696-0.357 1.191 0 0.507 0.129 0.913 0.385 1.218 0.257 0.305 0.599 0.458 1.027 0.458 0.39 0 0.791-0.085 1.205-0.255z"/>
      <path d="m29.775 11.257v-4.828h1.301v4.828zm0-5.642v-1.086h1.301v1.086z"/>
      <rect x="32.703" y="4.314" width="1.302" height="6.943"/>
      <rect x="35.632" y="4.314" width="1.302" height="6.943"/>
      <path d="m40.926 10.738c-0.434 0.419-0.899 0.628-1.394 0.628-0.422 0-0.765-0.129-1.029-0.386-0.264-0.258-0.396-0.593-0.396-1.003 0-0.534 0.214-0.945 0.64-1.233 0.427-0.289 1.037-0.434 1.831-0.434h0.348v-0.439c0-0.501-0.286-0.752-0.858-0.752-0.507 0-1.02 0.144-1.539 0.431v-0.897c0.59-0.223 1.173-0.334 1.75-0.334 1.264 0 1.896 0.502 1.896 1.508v2.137c0 0.378 0.121 0.567 0.365 0.567 0.043 0 0.101-6e-3 0.171-0.018l0.031 0.73c-0.276 0.082-0.519 0.123-0.73 0.123-0.534 0-0.877-0.209-1.029-0.628zm0-0.699v-0.981h-0.308c-0.841 0-1.262 0.264-1.262 0.791 0 0.179 0.061 0.329 0.183 0.451 0.121 0.122 0.271 0.183 0.45 0.183 0.305 0 0.617-0.148 0.937-0.444z"/>
      <path d="m46.343 11.23c-0.311 0.091-0.556 0.136-0.734 0.136-1.129 0-1.693-0.527-1.693-1.583v-2.541h-0.541v-0.813h0.541v-0.814l1.301-0.149v0.963h1.034v0.813h-1.034v2.37c0 0.592 0.242 0.888 0.726 0.888 0.111 0 0.245-0.02 0.4-0.061z"/>
      <path d="m49.531 11.366c-0.753 0-1.352-0.227-1.796-0.683s-0.666-1.07-0.666-1.84c0-0.78 0.223-1.396 0.67-1.847 0.447-0.452 1.055-0.677 1.823-0.677 0.771 0 1.38 0.225 1.827 0.677 0.447 0.451 0.67 1.064 0.67 1.838 0 0.791-0.224 1.411-0.673 1.86-0.448 0.448-1.067 0.672-1.855 0.672zm0.022-0.813c0.747 0 1.121-0.573 1.121-1.719 0-0.525-0.099-0.94-0.297-1.245s-0.469-0.457-0.815-0.457c-0.343 0-0.614 0.152-0.812 0.457-0.197 0.305-0.296 0.723-0.296 1.254 0 0.524 0.098 0.94 0.294 1.248 0.197 0.308 0.465 0.462 0.805 0.462z"/>
      <path d="m53.255 11.257v-4.828h1.302v0.91c0.337-0.68 0.85-1.02 1.539-1.02 0.082 0 0.162 8e-3 0.242 0.026v1.161c-0.185-0.068-0.357-0.101-0.515-0.101-0.519 0-0.941 0.262-1.266 0.787v3.065z"/>
    </g>
  </g>
  <g fill="#FDDEA2" fill-rule="nonzero">
    <path d="m28.078 24.283h0.541c0.62 0 1.065-0.08 1.333-0.239 0.269-0.16 0.403-0.415 0.403-0.768 0-0.352-0.134-0.608-0.403-0.767-0.268-0.159-0.713-0.239-1.333-0.239h-0.541zm0-3.85h0.453c0.771 0 1.157-0.306 1.157-0.918s-0.386-0.918-1.157-0.918h-0.453zm-2.466-3.723h3.674c0.872 0 1.534 0.209 1.987 0.629 0.453 0.419 0.68 1.023 0.68 1.811 0 0.478-0.086 0.875-0.258 1.189-0.172 0.315-0.434 0.581-0.787 0.799 0.353 0.067 0.652 0.17 0.9 0.308 0.247 0.138 0.449 0.308 0.604 0.51 0.155 0.201 0.266 0.427 0.333 0.679 0.067 0.251 0.101 0.52 0.101 0.805 0 0.444-0.078 0.839-0.233 1.183-0.155 0.343-0.373 0.633-0.654 0.868-0.281 0.234-0.623 0.41-1.025 0.528-0.403 0.117-0.856 0.176-1.359 0.176h-3.963z"/>
    <path d="m39.337 22.673-1.107-3.158-1.107 3.158zm0.654 1.874h-3.522l-0.566 1.648h-2.63l3.611-9.485h2.692l3.61 9.485h-2.629z"/>
    <path d="m49.476 19.138c-0.268-0.218-0.536-0.38-0.805-0.485-0.268-0.104-0.528-0.157-0.78-0.157-0.319 0-0.578 0.076-0.78 0.227-0.201 0.151-0.302 0.348-0.302 0.591 0 0.168 0.051 0.306 0.151 0.415 0.101 0.109 0.233 0.203 0.397 0.283 0.163 0.08 0.348 0.149 0.553 0.208 0.206 0.058 0.409 0.121 0.61 0.188 0.805 0.269 1.394 0.627 1.768 1.076 0.373 0.449 0.559 1.033 0.559 1.755 0 0.486-0.081 0.926-0.245 1.321-0.163 0.394-0.402 0.731-0.717 1.012-0.314 0.281-0.7 0.499-1.157 0.654-0.457 0.156-0.975 0.233-1.554 0.233-1.199 0-2.31-0.356-3.334-1.069l1.057-1.988c0.369 0.327 0.734 0.571 1.095 0.73 0.36 0.159 0.717 0.239 1.069 0.239 0.402 0 0.702-0.092 0.899-0.277 0.197-0.184 0.296-0.394 0.296-0.629 0-0.142-0.025-0.266-0.075-0.371-0.051-0.105-0.135-0.201-0.252-0.289s-0.271-0.17-0.459-0.246c-0.189-0.075-0.417-0.159-0.686-0.251-0.319-0.101-0.631-0.212-0.937-0.334-0.306-0.121-0.579-0.283-0.818-0.484s-0.432-0.455-0.578-0.761c-0.147-0.306-0.221-0.694-0.221-1.164 0-0.469 0.078-0.895 0.233-1.276 0.155-0.382 0.373-0.709 0.654-0.982 0.281-0.272 0.625-0.484 1.032-0.635s0.862-0.226 1.365-0.226c0.469 0 0.96 0.065 1.472 0.195 0.511 0.13 1.002 0.32 1.471 0.572z"/>
    <path d="m57.376 22.673-1.107-3.158-1.107 3.158zm0.655 1.874h-3.523l-0.566 1.648h-2.629l3.61-9.485h2.692l3.611 9.485h-2.629z"/>
    <path d="m64.773 16.71v7.397h2.957v2.088h-5.422v-9.485z"/>
  </g>
  <g fill="#FDDEA2" fill-rule="nonzero">
    <path d="m43.488 262.83c-0.43 0-0.82464 0.0718-1.1816 0.21484-0.357 0.142-0.66392 0.3398-0.91992 0.5918-0.257 0.252-0.45756 0.54577-0.60156 0.88477-0.145 0.338-0.2168 0.7037-0.2168 1.0957s0.0718 0.7567 0.2168 1.0957c0.144 0.338 0.34456 0.63277 0.60156 0.88477 0.256 0.252 0.56292 0.44879 0.91992 0.59179 0.357 0.142 0.75164 0.2129 1.1816 0.2129 0.424 0 0.81578-0.0709 1.1758-0.2129 0.359-0.143 0.66678-0.33979 0.92578-0.59179s0.46242-0.54677 0.60742-0.88477c0.144-0.339 0.2168-0.7037 0.2168-1.0957s-0.0728-0.7577-0.2168-1.0957c-0.145-0.339-0.34842-0.63277-0.60742-0.88477s-0.56678-0.4498-0.92578-0.5918c-0.36-0.143-0.75178-0.21484-1.1758-0.21484zm11.088 8e-3c-0.299 0-0.57422 0.0485-0.82422 0.14649-0.25 0.098-0.46448 0.23792-0.64648 0.41992s-0.32383 0.40034-0.42383 0.65234-0.15039 0.53185-0.15039 0.83985h1.498c-0.014-0.098-0.02148-0.17361-0.02148-0.22461 0-0.182 0.0532-0.33408 0.1582-0.45508s0.2505-0.18164 0.4375-0.18164c0.098 0 0.18386 0.0177 0.25586 0.0527s0.13355 0.0816 0.18555 0.14063c0.051 0.058 0.08924 0.12422 0.11523 0.19922 0.026 0.075 0.03906 0.15146 0.03906 0.23046 0 0.075-0.01216 0.16644-0.03516 0.27344-0.024 0.107-0.08369 0.24692-0.17969 0.41992s-0.2415 0.38282-0.4375 0.63282c-0.196 0.249-0.46555 0.55506-0.81055 0.91406l-1.3105 1.3574h4.25v-1.1621h-1.709l0.875-0.81836c0.27-0.257 0.4678-0.50695 0.5918-0.75195s0.18555-0.51374 0.18555-0.80274c0-0.271-0.0523-0.52095-0.1543-0.75195-0.103-0.231-0.24378-0.43161-0.42578-0.59961s-0.39844-0.29762-0.64844-0.39062-0.52045-0.14063-0.81445-0.14063zm-20.357 0.14063-0.89453 5.2773h1.3652l0.45508-3.0371 1.1816 3.0371h0.54688l1.2461-3.0371 0.45508 3.0371h1.3652l-0.89648-5.2773h-1.3594l-1.0488 2.8125-1.0566-2.8125zm13.062 0v5.2773h2.0312c0.364 0 0.70258-0.0718 1.0176-0.2168s0.59017-0.33903 0.82617-0.58203 0.41973-0.52279 0.55273-0.84179c0.133-0.32 0.19922-0.65305 0.19922-0.99805 0-0.35-0.06813-0.68491-0.20312-1.0039-0.136-0.32-0.32064-0.59984-0.55664-0.83984-0.236-0.241-0.51117-0.43313-0.82617-0.57813s-0.65076-0.21679-1.0098-0.21679zm1.373 1.1621h0.31445c0.233 0 0.44191 0.0363 0.62891 0.11132 0.186 0.075 0.34466 0.1776 0.47266 0.3086s0.22883 0.28675 0.29883 0.46875 0.10352 0.37789 0.10352 0.58789c0 0.215-0.03356 0.4118-0.10156 0.5918-0.068 0.179-0.16497 0.33384-0.29297 0.46484s-0.28666 0.23359-0.47266 0.30859c-0.187 0.075-0.39872 0.11133-0.63672 0.11133h-0.31445zm-5.166 0.0195c0.2 0 0.38836 0.0364 0.56836 0.10937 0.18 0.072 0.33856 0.17369 0.47656 0.30469s0.24617 0.28394 0.32617 0.46094c0.079 0.177 0.11914 0.37203 0.11914 0.58203s-0.04014 0.40308-0.11914 0.58008c-0.08 0.177-0.18817 0.33189-0.32617 0.46289s-0.29656 0.23169-0.47656 0.30469c-0.18 0.072-0.36836 0.10742-0.56836 0.10742-0.201 0-0.39227-0.0354-0.57227-0.10742-0.18-0.073-0.3357-0.17369-0.4707-0.30469-0.136-0.131-0.24327-0.28589-0.32227-0.46289-0.08-0.177-0.11914-0.37008-0.11914-0.58008s0.03914-0.40503 0.11914-0.58203c0.079-0.177 0.18627-0.32994 0.32227-0.46094 0.135-0.131 0.2907-0.23269 0.4707-0.30469 0.18-0.073 0.37127-0.10937 0.57227-0.10937z"/>
    <path d="m45.001 115.97c-5.7056 0-11.412 1.934-16.027 5.8047-9.2292 7.7454-11.587 21.128-5.5644 31.564 0.39161 0.72245 1.4687 0.10091 1.0391-0.59961-5.7331-9.934-3.4881-22.672 5.2968-30.045 8.7857-7.3686 21.725-7.3686 30.51 0 8.7859 7.3726 11.03 20.111 5.2969 30.045-0.4296 0.70052 0.6474 1.3221 1.039 0.59961 6.0228-10.436 3.6658-23.819-5.5644-31.564-4.6146-3.8707-10.32-5.8047-16.025-5.8047zm-18.883 41.52c-2.371 0-4.3067 1.9356-4.3067 4.3066s1.9357 4.3047 4.3067 4.3047 4.3066-1.9336 4.3066-4.3047c0-2.371-1.9356-4.3066-4.3066-4.3066zm37.766 0c-2.371 0-4.3047 1.9337-4.3047 4.3047s1.9337 4.3066 4.3047 4.3066 4.3066-1.9356 4.3066-4.3066-1.9356-4.3047-4.3066-4.3047zm-37.766 1.1992c1.7225 0 3.1054 1.3849 3.1054 3.1074s-1.3829 3.1055-3.1054 3.1055-3.1055-1.383-3.1055-3.1055 1.383-3.1074 3.1055-3.1074z" clip-rule="nonzero" color="#000000" color-rendering="auto" dominant-baseline="auto" image-rendering="auto" shape-rendering="auto" solid-color="#000000" style="font-feature-settings:normal;font-variant-alternates:normal;font-variant-caps:normal;font-variant-ligatures:normal;font-variant-numeric:normal;font-variant-position:normal;isolation:auto;mix-blend-mode:normal;shape-padding:0;text-decoration-color:#000000;text-decoration-line:none;text-decoration-style:solid;text-indent:0;text-orientation:mixed;text-transform:none;white-space:normal"/>
    <path d="m44.098 168.09c-0.43 0-0.82464 0.0718-1.1816 0.21484-0.357 0.142-0.66392 0.3398-0.91992 0.5918-0.257 0.252-0.45756 0.54577-0.60156 0.88477-0.145 0.338-0.2168 0.7037-0.2168 1.0957s0.0718 0.7567 0.2168 1.0957c0.144 0.338 0.34456 0.63277 0.60156 0.88477 0.256 0.252 0.56292 0.44879 0.91992 0.59179 0.357 0.142 0.75164 0.2129 1.1816 0.2129 0.424-1e-5 0.81578-0.0709 1.1758-0.2129 0.359-0.143 0.66678-0.33979 0.92578-0.59179s0.46242-0.54677 0.60742-0.88477c0.144-0.339 0.2168-0.7037 0.2168-1.0957s-0.0728-0.7577-0.2168-1.0957c-0.145-0.339-0.34842-0.63277-0.60742-0.88477s-0.56678-0.4498-0.92578-0.5918c-0.36-0.143-0.75178-0.21484-1.1758-0.21484zm-9.2695 0.14844-0.89453 5.2773h1.3652l0.45508-3.0371 1.1816 3.0371h0.54688l1.2461-3.0371 0.45508 3.0371h1.3652l-0.89648-5.2773h-1.3594l-1.0488 2.8125-1.0566-2.8125zm13.062 0v5.2773h2.0312c0.364 0 0.70258-0.0718 1.0176-0.2168 0.315-0.145 0.59017-0.33903 0.82617-0.58203s0.41973-0.52279 0.55273-0.84179c0.133-0.32 0.19922-0.65305 0.19922-0.99805 0-0.35-0.06813-0.68491-0.20312-1.0039-0.136-0.32-0.32064-0.59984-0.55664-0.83984-0.236-0.241-0.51117-0.43313-0.82617-0.57813s-0.65076-0.21679-1.0098-0.21679zm6.0352 0v1.1621h0.76953v4.1152h1.3711v-5.2773zm-4.6621 1.1621h0.31445c0.233 0 0.44191 0.0363 0.62891 0.11132 0.186 0.075 0.34466 0.1776 0.47266 0.3086s0.22883 0.28675 0.29883 0.46875 0.10352 0.37789 0.10352 0.58789c0 0.215-0.03356 0.4118-0.10156 0.5918-0.068 0.179-0.16497 0.33384-0.29297 0.46484s-0.28666 0.23359-0.47266 0.30859c-0.187 0.075-0.39872 0.11133-0.63672 0.11133h-0.31445zm-5.166 0.0195c0.2 0 0.38836 0.0364 0.56836 0.10937 0.18 0.072 0.33856 0.17369 0.47656 0.30469s0.24617 0.28394 0.32617 0.46094c0.079 0.177 0.11914 0.37203 0.11914 0.58203s-0.04014 0.40308-0.11914 0.58008c-0.08 0.177-0.18817 0.33189-0.32617 0.46289s-0.29656 0.23168-0.47656 0.30469c-0.18 0.072-0.36836 0.10742-0.56836 0.10742-0.201 0-0.39227-0.0354-0.57227-0.10742-0.18-0.073-0.3357-0.17369-0.4707-0.30469-0.136-0.131-0.24326-0.28589-0.32227-0.46289-0.08-0.177-0.11914-0.37008-0.11914-0.58008s0.03914-0.40503 0.11914-0.58203c0.079-0.177 0.18627-0.32994 0.32227-0.46094 0.135-0.131 0.2907-0.23269 0.4707-0.30469 0.18-0.073 0.37127-0.10937 0.57227-0.10937z"/>
    <path d="m62.053 173.36c-0.3318 6e-3 -0.5961 0.2795-0.5898 0.61133v1.4082c-2.5205 0.12995-5.0063 1.0422-7.0469 2.7559-4.4191 3.7073-5.55 10.112-2.668 15.105l0.3008 0.51954 10.035-5.793 10.035 5.793 0.3008-0.51954c2.882-4.9932 1.7522-11.398-2.668-15.105-2.0515-1.7227-4.5549-2.6361-7.0898-2.7578v-1.4102c0-0.33796-0.2714-0.6127-0.6094-0.60743zm-0.5859 3.2188 0.019 10.35-8.9024 5.1406c-2.2095-4.4023-1.2092-9.8134 2.6055-13.014 1.8188-1.5274 4.0314-2.348 6.2774-2.4766zm1.1992 0c2.2594 0.12115 4.4875 0.94037 6.3164 2.4766 3.8157 3.2003 4.8132 8.6113 2.6035 13.014l-8.9023-5.1406zm7.9322 17.562 0.01 1.582-1.6055 8e-3c-0.8309-0.0278-0.8246 1.2353 0.01 1.1992l1.6055-8e-3 0.01 1.6289c-0.026 0.83079 1.2365 0.82237 1.1992-8e-3l-0.01-1.625 1.6036-8e-3c0.8007-4e-3 0.7947-1.2052-0.01-1.2012l-1.6055 8e-3 -0.01-1.584c0-0.77067-1.1973-0.75555-1.1973 8e-3zm-15.172 1.4453-4.4141 0.0195c-0.8008 4e-3 -0.7948 1.2052 0.01 1.2012l4.4141-0.0215c0.8309 0.0278 0.8246-1.2353-0.01-1.1992z" clip-rule="nonzero" color="#000000" color-rendering="auto" dominant-baseline="auto" image-rendering="auto" shape-rendering="auto" solid-color="#000000" style="font-feature-settings:normal;font-variant-alternates:normal;font-variant-caps:normal;font-variant-ligatures:normal;font-variant-numeric:normal;font-variant-position:normal;isolation:auto;mix-blend-mode:normal;shape-padding:0;text-decoration-color:#000000;text-decoration-line:none;text-decoration-style:solid;text-indent:0;text-orientation:mixed;text-transform:none;white-space:normal"/>
  </g>
  <g clip-rule="evenodd" fill="none" stroke="#FDDEA2" stroke-linecap="round" stroke-width="1.2">
    <path d="m7.7964 204.31h74.346"/>
    <path d="m7.7964 108.64h74.346"/>
    <path d="m7.7964 299.98h74.346"/>
  </g>
</svg>