<svg width="90px" height="380px" version="1.1" xmlns="http://www.w3.org/2000/svg" xmlns:xlink="http://www.w3.org/1999/xlink" xml:space="preserve" xmlns:serif="http://www.serif.com/" style="fill-rule:evenodd;clip-rule:evenodd;stroke-miterlimit:10;">
  <defs>
    <linearGradient id="_Linear1" x1="0" y1="0" x2="1" y2="0" gradientUnits="userSpaceOnUse" gradientTransform="matrix(0.005256,-37.8989,28.4242,0.007008,45.2125,112.195)">
      <stop offset="0" style="stop-color:#401B5C;stop-opacity:1"/>
      <stop offset="1" style="stop-color:#401B5C;stop-opacity:1"/>
    </linearGradient>
    <linearGradient id="_Linear2" x1="0" y1="0" x2="1" y2="0" gradientUnits="userSpaceOnUse" gradientTransform="matrix(-3.5625,94.86,-71.145,-4.75,196.913,158.47)">
      <stop offset="0" style="stop-color:#401B5C;stop-opacity:1"/>
      <stop offset="1" style="stop-color:#401B5C;stop-opacity:1"/>
    </linearGradient>
    <linearGradient id="_Linear3" x1="0" y1="0" x2="1" y2="0" gradientUnits="userSpaceOnUse" gradientTransform="matrix(-3.66,-92.58,69.435,-4.88,196.913,345.92)">
      <stop offset="0" style="stop-color:#401B5C;stop-opacity:1"/>
      <stop offset="1" style="stop-color:#401B5C;stop-opacity:1"/>
    </linearGradient>
    <linearGradient id="_Linear4" x1="0" y1="0" x2="1" y2="0" gradientUnits="userSpaceOnUse" gradientTransform="matrix(8.65443e-17,-1.8845,1.41338,1.15392e-16,31.1393,1.9395)">
      <stop offset="0" style="stop-color:#401B5C;stop-opacity:1"/>
      <stop offset="1" style="stop-color:#401B5C;stop-opacity:1"/>
    </linearGradient>
  </defs>
  <g id="Panel">
    <g>
      <rect x="0" y="0.002" width="90" height="380" style="fill:url(#_Linear1);"/>
      <rect x="0" y="126.67" width="90" height="126.67" style="fill:url(#_Linear2);"/>
      <rect x="0" y="253.33" width="90" height="126.66" style="fill:url(#_Linear3);"/>
      <rect x="0" y="0" width="90" height="380" style="fill:#103550;fill-opacity:0.1;"/>
      <rect x="0" y="0.003" width="90" height="2" style="fill:url(#_Linear4);"/>
    </g>
    <path d="M13.614,316.949l0,-5.696l1.504,0l0,4.48l2.408,0l0,1.216l-3.912,0Z" style="fill:#FDDEA2;fill-rule:nonzero;"/>
    <path d="M18.246,316.949l0,-5.696l4.064,0l0,1.152l-2.6,0l0,1.072l2.432,0l0,1.152l-2.432,0l0,1.168l2.6,0l0,1.152l-4.064,0Z" style="fill:#FDDEA2;fill-rule:nonzero;"/>
    <path d="M23.078,316.949l0,-5.696l3.976,0l0,1.176l-2.496,0l0,1.04l2.336,0l0,1.168l-2.336,0l0,2.312l-1.48,0Z" style="fill:#FDDEA2;fill-rule:nonzero;"/>
    <path d="M29.238,316.949l0,-4.48l-1.696,0l0,-1.216l4.912,0l0,1.216l-1.696,0l0,4.48l-1.52,0Z" style="fill:#FDDEA2;fill-rule:nonzero;"/>
    <path d="M58.566,316.949l-1.592,0l-0.736,-1.896c-0.086,-0.213 -0.286,-0.32 -0.6,-0.32l-0.544,0l0,2.216l-1.48,0l0,-5.696l2.648,0c0.688,0 1.205,0.148 1.552,0.444c0.346,0.296 0.52,0.719 0.52,1.268c0,0.384 -0.103,0.716 -0.308,0.996c-0.206,0.28 -0.495,0.479 -0.868,0.596c0.16,0.032 0.304,0.107 0.432,0.224c0.128,0.117 0.229,0.275 0.304,0.472l0.672,1.696Zm-2.544,-3.336c0.32,0 0.552,-0.049 0.696,-0.148c0.144,-0.099 0.216,-0.252 0.216,-0.46c0,-0.219 -0.071,-0.376 -0.212,-0.472c-0.142,-0.096 -0.375,-0.144 -0.7,-0.144l-0.944,0l0,1.224l0.944,0Z" style="fill:#FDDEA2;fill-rule:nonzero;"/>
    <rect x="59.326" y="311.253" width="1.504" height="5.696" style="fill:#FDDEA2;fill-rule:nonzero;"/>
    <path d="M66.91,313.733l0,2.856c-0.304,0.139 -0.644,0.245 -1.02,0.32c-0.376,0.075 -0.762,0.112 -1.156,0.112c-0.619,0 -1.156,-0.117 -1.612,-0.352c-0.456,-0.235 -0.807,-0.572 -1.052,-1.012c-0.246,-0.44 -0.368,-0.961 -0.368,-1.564c0,-0.587 0.122,-1.1 0.368,-1.54c0.245,-0.44 0.592,-0.779 1.04,-1.016c0.448,-0.237 0.97,-0.356 1.568,-0.356c0.41,0 0.798,0.053 1.164,0.16c0.365,0.107 0.662,0.253 0.892,0.44l-0.472,1.064c-0.262,-0.171 -0.514,-0.295 -0.756,-0.372c-0.243,-0.077 -0.503,-0.116 -0.78,-0.116c-0.507,0 -0.884,0.143 -1.132,0.428c-0.248,0.285 -0.372,0.721 -0.372,1.308c0,0.608 0.129,1.059 0.388,1.352c0.258,0.293 0.657,0.44 1.196,0.44c0.25,0 0.501,-0.027 0.752,-0.08l0,-1.056l-0.992,0l0,-1.016l2.344,0Z" style="fill:#FDDEA2;fill-rule:nonzero;"/>
    <path d="M71.638,311.253l1.472,0l0,5.696l-1.472,0l0,-2.304l-2.304,0l0,2.304l-1.472,0l0,-5.696l1.472,0l0,2.216l2.304,0l0,-2.216Z" style="fill:#FDDEA2;fill-rule:nonzero;"/>
    <path d="M75.414,316.949l0,-4.48l-1.696,0l0,-1.216l4.912,0l0,1.216l-1.696,0l0,4.48l-1.52,0Z" style="fill:#FDDEA2;fill-rule:nonzero;"/>
    <path d="M22.479,34.392l-2.552,0c0.027,0.314 0.118,0.541 0.272,0.68c0.155,0.138 0.382,0.208 0.68,0.208c0.203,0 0.406,-0.034 0.608,-0.1c0.203,-0.067 0.387,-0.159 0.552,-0.276l0.368,0.96c-0.202,0.149 -0.448,0.266 -0.736,0.352c-0.288,0.085 -0.576,0.128 -0.864,0.128c-0.464,0 -0.866,-0.086 -1.208,-0.256c-0.341,-0.171 -0.602,-0.415 -0.784,-0.732c-0.181,-0.318 -0.272,-0.692 -0.272,-1.124c0,-0.411 0.087,-0.778 0.26,-1.1c0.174,-0.323 0.414,-0.575 0.72,-0.756c0.307,-0.182 0.658,-0.272 1.052,-0.272c0.384,0 0.72,0.085 1.008,0.256c0.288,0.17 0.51,0.414 0.664,0.732c0.155,0.317 0.232,0.686 0.232,1.108l0,0.192Zm-1.864,-1.296c-0.357,0 -0.581,0.208 -0.672,0.624l1.296,0c-0.053,-0.416 -0.261,-0.624 -0.624,-0.624Z" style="fill:#FDDEA2;fill-rule:nonzero;"/>
    <path d="M27.511,32.216c-0.053,0.32 -0.08,0.709 -0.08,1.168l0,4.624l-1.448,0l0,-2.24c-0.122,0.181 -0.292,0.322 -0.508,0.424c-0.216,0.101 -0.454,0.152 -0.716,0.152c-0.346,0 -0.656,-0.086 -0.928,-0.256c-0.272,-0.171 -0.484,-0.415 -0.636,-0.732c-0.152,-0.318 -0.228,-0.684 -0.228,-1.1c0,-0.422 0.078,-0.795 0.232,-1.12c0.155,-0.326 0.368,-0.579 0.64,-0.76c0.272,-0.182 0.579,-0.272 0.92,-0.272c0.288,0 0.551,0.065 0.788,0.196c0.238,0.13 0.41,0.305 0.516,0.524l0.08,-0.608l1.368,0Zm-2.304,3.048c0.256,0 0.454,-0.088 0.592,-0.264c0.139,-0.176 0.208,-0.43 0.208,-0.76c0,-0.336 -0.069,-0.594 -0.208,-0.772c-0.138,-0.179 -0.336,-0.268 -0.592,-0.268c-0.25,0 -0.448,0.092 -0.592,0.276c-0.144,0.184 -0.216,0.444 -0.216,0.78c0,0.325 0.07,0.574 0.208,0.748c0.139,0.173 0.339,0.26 0.6,0.26Z" style="fill:#FDDEA2;fill-rule:nonzero;"/>
    <path d="M32.383,32.216l0,4.064l-1.416,0l0,-0.544c-0.261,0.405 -0.648,0.608 -1.16,0.608c-0.517,0 -0.902,-0.144 -1.156,-0.432c-0.253,-0.288 -0.38,-0.728 -0.38,-1.32l0,-2.376l1.448,0l0,2.416c0,0.4 0.174,0.6 0.52,0.6c0.203,0 0.367,-0.072 0.492,-0.216c0.126,-0.144 0.188,-0.336 0.188,-0.576l0,-2.224l1.464,0Z" style="fill:#FDDEA2;fill-rule:nonzero;"/>
    <path d="M37.527,32.216l0,4.064l-1.424,0l0,-0.552c-0.117,0.192 -0.288,0.342 -0.512,0.452c-0.224,0.109 -0.469,0.164 -0.736,0.164c-0.346,0 -0.656,-0.086 -0.928,-0.256c-0.272,-0.171 -0.484,-0.415 -0.636,-0.732c-0.152,-0.318 -0.228,-0.684 -0.228,-1.1c0,-0.422 0.078,-0.795 0.232,-1.12c0.155,-0.326 0.368,-0.579 0.64,-0.76c0.272,-0.182 0.579,-0.272 0.92,-0.272c0.267,0 0.511,0.057 0.732,0.172c0.222,0.114 0.394,0.268 0.516,0.46l0,-0.52l1.424,0Zm-2.224,3.048c0.256,0 0.454,-0.088 0.592,-0.264c0.139,-0.176 0.208,-0.43 0.208,-0.76c0,-0.336 -0.069,-0.594 -0.208,-0.772c-0.138,-0.179 -0.336,-0.268 -0.592,-0.268c-0.25,0 -0.448,0.092 -0.592,0.276c-0.144,0.184 -0.216,0.444 -0.216,0.78c0,0.325 0.07,0.574 0.208,0.748c0.139,0.173 0.339,0.26 0.6,0.26Z" style="fill:#FDDEA2;fill-rule:nonzero;"/>
    <rect x="38.391" y="30.392" width="1.448" height="5.888" style="fill:#FDDEA2;fill-rule:nonzero;"/>
    <path d="M40.703,36.28l0,-4.064l1.448,0l0,4.064l-1.448,0Zm-0.04,-6.056l1.512,0l0,1.304l-1.512,0l0,-1.304Z" style="fill:#FDDEA2;fill-rule:nonzero;"/>
    <path d="M44.647,35.208l1.968,0l0,1.072l-3.656,0l0,-1.016l1.84,-1.984l-1.832,0l0,-1.064l3.568,0l0,0.952l-1.888,2.04Z" style="fill:#FDDEA2;fill-rule:nonzero;"/>
    <path d="M50.919,34.392l-2.552,0c0.027,0.314 0.118,0.541 0.272,0.68c0.155,0.138 0.382,0.208 0.68,0.208c0.203,0 0.406,-0.034 0.608,-0.1c0.203,-0.067 0.387,-0.159 0.552,-0.276l0.368,0.96c-0.202,0.149 -0.448,0.266 -0.736,0.352c-0.288,0.085 -0.576,0.128 -0.864,0.128c-0.464,0 -0.866,-0.086 -1.208,-0.256c-0.341,-0.171 -0.602,-0.415 -0.784,-0.732c-0.181,-0.318 -0.272,-0.692 -0.272,-1.124c0,-0.411 0.087,-0.778 0.26,-1.1c0.174,-0.323 0.414,-0.575 0.72,-0.756c0.307,-0.182 0.658,-0.272 1.052,-0.272c0.384,0 0.72,0.085 1.008,0.256c0.288,0.17 0.51,0.414 0.664,0.732c0.155,0.317 0.232,0.686 0.232,1.108l0,0.192Zm-1.864,-1.296c-0.357,0 -0.581,0.208 -0.672,0.624l1.296,0c-0.053,-0.416 -0.261,-0.624 -0.624,-0.624Z" style="fill:#FDDEA2;fill-rule:nonzero;"/>
    <path d="M54.159,32.12c0.198,0 0.35,0.029 0.456,0.088l0,1.32c-0.229,-0.107 -0.45,-0.16 -0.664,-0.16c-0.608,0 -0.912,0.29 -0.912,0.872l0,2.04l-1.448,0l0,-2.896c0,-0.438 -0.021,-0.827 -0.064,-1.168l1.36,0l0.088,0.68c0.096,-0.251 0.251,-0.443 0.464,-0.576c0.214,-0.134 0.454,-0.2 0.72,-0.2Z" style="fill:#FDDEA2;fill-rule:nonzero;"/>
    <rect x="57.351" y="30.392" width="1.448" height="5.888" style="fill:#FDDEA2;fill-rule:nonzero;"/>
    <path d="M59.663,36.28l0,-4.064l1.448,0l0,4.064l-1.448,0Zm-0.04,-6.056l1.512,0l0,1.304l-1.512,0l0,-1.304Z" style="fill:#FDDEA2;fill-rule:nonzero;"/>
    <path d="M64.695,32.104c0.48,0 0.839,0.145 1.076,0.436c0.238,0.29 0.356,0.729 0.356,1.316l0,2.424l-1.448,0l0,-2.36c0,-0.251 -0.042,-0.431 -0.128,-0.54c-0.085,-0.11 -0.218,-0.164 -0.4,-0.164c-0.218,0 -0.394,0.073 -0.528,0.22c-0.133,0.146 -0.2,0.34 -0.2,0.58l0,2.264l-1.448,0l0,-2.896c0,-0.438 -0.021,-0.827 -0.064,-1.168l1.36,0l0.072,0.6c0.155,-0.23 0.347,-0.406 0.576,-0.528c0.23,-0.123 0.488,-0.184 0.776,-0.184Z" style="fill:#FDDEA2;fill-rule:nonzero;"/>
    <path d="M70.719,34.392l-2.552,0c0.027,0.314 0.118,0.541 0.272,0.68c0.155,0.138 0.382,0.208 0.68,0.208c0.203,0 0.406,-0.034 0.608,-0.1c0.203,-0.067 0.387,-0.159 0.552,-0.276l0.368,0.96c-0.202,0.149 -0.448,0.266 -0.736,0.352c-0.288,0.085 -0.576,0.128 -0.864,0.128c-0.464,0 -0.866,-0.086 -1.208,-0.256c-0.341,-0.171 -0.602,-0.415 -0.784,-0.732c-0.181,-0.318 -0.272,-0.692 -0.272,-1.124c0,-0.411 0.087,-0.778 0.26,-1.1c0.174,-0.323 0.414,-0.575 0.72,-0.756c0.307,-0.182 0.658,-0.272 1.052,-0.272c0.384,0 0.72,0.085 1.008,0.256c0.288,0.17 0.51,0.414 0.664,0.732c0.155,0.317 0.232,0.686 0.232,1.108l0,0.192Zm-1.864,-1.296c-0.357,0 -0.581,0.208 -0.672,0.624l1.296,0c-0.053,-0.416 -0.261,-0.624 -0.624,-0.624Z" style="fill:#FDDEA2;fill-rule:nonzero;"/>
    <path d="M17.743,18.188l3.783,0c1.023,0 1.904,0.184 2.645,0.553c0.741,0.368 1.309,0.899 1.703,1.592c0.395,0.693 0.592,1.517 0.592,2.47c0,0.962 -0.195,1.792 -0.585,2.49c-0.39,0.697 -0.956,1.23 -1.697,1.599c-0.741,0.368 -1.627,0.552 -2.658,0.552l-3.783,0l0,-9.256Zm3.614,7.306c0.901,0 1.575,-0.223 2.021,-0.669c0.447,-0.447 0.67,-1.121 0.67,-2.022c0,-1.777 -0.897,-2.665 -2.691,-2.665l-1.17,0l0,5.356l1.17,0Z" style="fill:#FDDEA2;fill-rule:nonzero;"/>
    <path d="M27.896,27.444l0,-9.256l6.604,0l0,1.872l-4.225,0l0,1.742l3.952,0l0,1.872l-3.952,0l0,1.898l4.225,0l0,1.872l-6.604,0Z" style="fill:#FDDEA2;fill-rule:nonzero;"/>
    <path d="M40.259,27.561c-0.962,0 -1.801,-0.197 -2.516,-0.591c-0.715,-0.395 -1.265,-0.952 -1.651,-1.671c-0.385,-0.719 -0.578,-1.551 -0.578,-2.496c0,-0.936 0.193,-1.761 0.578,-2.476c0.386,-0.715 0.936,-1.27 1.651,-1.665c0.715,-0.394 1.554,-0.591 2.516,-0.591c0.607,0 1.194,0.091 1.761,0.273c0.568,0.182 1.025,0.429 1.372,0.741l-0.741,1.729c-0.754,-0.546 -1.534,-0.819 -2.34,-0.819c-0.745,0 -1.317,0.236 -1.716,0.709c-0.399,0.472 -0.598,1.172 -0.598,2.099c0,0.936 0.199,1.642 0.598,2.119c0.399,0.477 0.971,0.715 1.716,0.715c0.806,0 1.586,-0.273 2.34,-0.819l0.741,1.729c-0.347,0.312 -0.804,0.559 -1.372,0.741c-0.567,0.182 -1.154,0.273 -1.761,0.273Z" style="fill:#FDDEA2;fill-rule:nonzero;"/>
    <path d="M44.666,27.444l0,-9.256l2.444,0l0,7.28l3.913,0l0,1.976l-6.357,0Z" style="fill:#FDDEA2;fill-rule:nonzero;"/>
    <rect x="52.193" y="18.188" width="2.444" height="9.256" style="fill:#FDDEA2;fill-rule:nonzero;"/>
    <path d="M62.281,18.188l2.301,0l0,9.256l-1.807,0l-4.199,-5.252l0,5.252l-2.275,0l0,-9.256l1.781,0l4.199,5.226l0,-5.226Z" style="fill:#FDDEA2;fill-rule:nonzero;"/>
    <path d="M66.259,27.444l0,-9.256l6.604,0l0,1.872l-4.225,0l0,1.742l3.952,0l0,1.872l-3.952,0l0,1.898l4.225,0l0,1.872l-6.604,0Z" style="fill:#FDDEA2;fill-rule:nonzero;"/>
    <path id="path42" d="M33.394,366.094l1.752,0l1.632,5.451l1.687,-5.451l1.743,0l-2.268,6.814c-0.212,0.628 -0.591,0.942 -1.139,0.942c-0.555,0 -0.938,-0.317 -1.15,-0.952l-2.257,-6.804Z" style="fill:#adb5bb;fill-rule:nonzero;"/>
    <path id="path44" d="M40.339,371.856l0,-5.762l1.643,0l0,5.707c0.029,0.205 0.219,0.307 0.57,0.307l1.117,0c0.336,0 0.522,-0.095 0.559,-0.285l0.011,-0.054l0,-5.675l1.643,0l0,5.751c0,0.504 -0.055,0.862 -0.165,1.074c-0.292,0.562 -0.806,0.843 -1.544,0.843l-2.125,0c-0.76,0 -1.278,-0.288 -1.556,-0.865c-0.102,-0.212 -0.153,-0.559 -0.153,-1.041l0,0Z" style="fill:#adb5bb;fill-rule:nonzero;"/>
    <path id="path46" d="M46.638,371.889l0,-5.794l1.643,0l0,5.663c0,0.233 0.138,0.35 0.416,0.35l2.925,0l-0.011,1.654l-3.057,0c-0.109,0 -0.204,-0.004 -0.284,-0.011c-0.592,-0.051 -1.012,-0.224 -1.26,-0.52c-0.248,-0.296 -0.372,-0.743 -0.372,-1.342l0,0Z" style="fill:#adb5bb;fill-rule:nonzero;"/>
    <path id="path48" d="M51.676,367.748l0,-1.654l4.929,0l0,1.654l-1.654,0l0,6.014l-1.643,0l0,-6.014l-1.632,0Z" style="fill:#adb5bb;fill-rule:nonzero;"/>
    <path id="path4" d="M53.383,356.417c0,-4.509 -3.655,-8.164 -8.164,-8.164c-4.509,0 -8.165,3.655 -8.165,8.164c0,4.509 3.655,8.165 8.165,8.165c4.509,0 8.164,-3.656 8.164,-8.165Z" style="fill:#757575;fill-rule:nonzero;stroke:#414c55;stroke-width:0.61px;"/>
    <path id="polygon6" d="M43.321,361.394l0.553,-0.891l-1.064,-2.393l-2.216,-2.284l0.46,3.101l0.597,1.28l0.833,1.264l0.837,-0.077Z" style="fill:#2b2b2b;fill-rule:nonzero;"/>
    <path id="polygon8" d="M47.048,361.401l-0.553,-0.89l1.064,-2.393l2.216,-2.285l-0.46,3.101l-0.597,1.281l-0.833,1.263l-0.837,-0.077Z" style="fill:#401B5C;fill-rule:nonzero;"/>
    <path id="polygon12" d="M42.636,350.359l2.584,-0.66l0,13.447l-1.349,-2.651l-1.061,-2.385l-1.023,-0.581l-2.051,-2.92l-0.057,-0.776l1.148,-2.067l1.809,-1.407Z" style="fill:#424242;fill-rule:nonzero;"/>
    <path id="polygon14" d="M47.801,350.364l-2.584,-0.661l0,13.448l1.35,-2.651l1.06,-2.385l1.023,-0.581l2.051,-2.921l0.058,-0.775l-1.149,-2.067l-1.809,-1.407Z" style="fill:#333;fill-rule:nonzero;"/>
    <path id="polyline16" d="M43.496,356.237l1.723,-1.684l0,1.229l-1.723,1.719l0,-1.264" style="fill:#4c4c4c;fill-rule:nonzero;"/>
    <path id="polygon18" d="M45.22,355.781l-1.723,1.718l0.377,3.004l1.346,2.643l0,-7.365Z" style="fill:#5b5b5b;fill-rule:nonzero;"/>
    <path id="polygon20" d="M45.22,363.146l-1.346,-2.643l1.346,-0.635l0,3.278Z" style="fill:#333;fill-rule:nonzero;"/>
    <path id="polygon22" d="M43.497,357.499l0,-1.263l-1.249,-1.58l-1.477,-1.19l-0.001,0.932l0.775,1.823l1.952,1.278Z" style="fill:#FDDEA2;fill-rule:nonzero;"/>
    <path id="polyline24" d="M46.942,356.238l-1.723,-1.685l0,1.23l1.723,1.718l0,-1.263" style="fill:#2d2d2d;fill-rule:nonzero;"/>
    <path id="polygon26" d="M45.218,355.781l1.722,1.718l-0.376,3.004l-1.347,2.643l0.001,-7.365Z" style="fill:#353535;fill-rule:nonzero;"/>
    <path id="polygon28" d="M45.217,363.146l1.347,-2.643l-1.346,-0.635l-0.001,3.278Z" style="fill:#401B5C;fill-rule:nonzero;"/>
    <path id="polygon30" d="M46.94,357.499l0,-1.263l1.249,-1.58l1.478,-1.19l0.001,0.932l-0.775,1.823l-1.953,1.278Z" style="fill:#FDDEA2;fill-rule:nonzero;"/>
    <path id="polyline32" d="M42.652,350.338l2.566,4.215l-0.005,-4.87" style="fill:#383838;fill-rule:nonzero;"/>
    <path id="polyline34" d="M47.785,350.338l-2.566,4.215l0.006,-4.869" style="fill:#2d2d2d;fill-rule:nonzero;"/>
    <path id="polygon36" d="M42.811,358.111l0.688,-0.611l0.375,3.006l-1.063,-2.395Z" style="fill:#333;fill-rule:nonzero;"/>
    <path id="polygon38" d="M47.631,358.125l-0.688,-0.61l-0.375,3.006l1.063,-2.396Z" style="fill:#1c1c1c;fill-rule:nonzero;"/>
    <path d="M39,325.859c0,-3.786 -3.073,-6.859 -6.859,-6.859l-17.282,0c-3.786,0 -6.859,3.073 -6.859,6.859l0,13.718c0,3.786 3.073,6.859 6.859,6.859l17.282,0c3.786,0 6.859,-3.073 6.859,-6.859l0,-13.718Z" style="fill:none;stroke:#FDDEA2;stroke-width:1px;stroke-linecap:round;stroke-linejoin:round;stroke-miterlimit:1.5;"/>
    <path d="M82,325.859c0,-3.786 -3.073,-6.859 -6.859,-6.859l-17.282,0c-3.786,0 -6.859,3.073 -6.859,6.859l0,13.718c0,3.786 3.073,6.859 6.859,6.859l17.282,0c3.786,0 6.859,-3.073 6.859,-6.859l0,-13.718Z" style="fill:none;stroke:#FDDEA2;stroke-width:1px;stroke-linecap:round;stroke-linejoin:round;stroke-miterlimit:1.5;"/>
    <path d="M7,298l0,-7.141c0,-3.786 2.507,-6.859 5.595,-6.859l19.81,0c3.088,0 5.595,3.073 5.595,6.859l0,7.141" style="fill:none;stroke:#FDDEA2;stroke-width:1px;stroke-linecap:round;stroke-linejoin:round;stroke-miterlimit:1.5;"/>
    <path d="M50,298l0,-7.141c0,-3.786 2.507,-6.859 5.595,-6.859l19.81,0c3.088,0 5.595,3.073 5.595,6.859l0,7.141" style="fill:none;stroke:#FDDEA2;stroke-width:1px;stroke-linecap:round;stroke-linejoin:round;stroke-miterlimit:1.5;"/>
    <g>
      <path d="M55.052,114.255l4.579,0" style="fill:none;stroke:#FDDEA2;stroke-width:1px;stroke-linecap:round;stroke-linejoin:round;stroke-miterlimit:1.5;"/>
      <path d="M73.052,114.255l4.579,0" style="fill:none;stroke:#FDDEA2;stroke-width:1px;stroke-linecap:round;stroke-linejoin:round;stroke-miterlimit:1.5;"/>
      <path d="M75.252,116.719l0,-4.579" style="fill:none;stroke:#FDDEA2;stroke-width:1px;stroke-linecap:round;stroke-linejoin:round;stroke-miterlimit:1.5;"/>
      <path d="M76.152,111.051c0.945,-1.706 1.442,-3.624 1.442,-5.575c0,-6.347 -5.153,-11.5 -11.5,-11.5c-6.348,0 -11.5,5.153 -11.5,11.5c0,2.019 0.531,4.002 1.54,5.75l9.96,-5.75l10.058,5.575Z" style="fill:none;stroke:#FDDEA2;stroke-width:1px;stroke-linecap:round;stroke-linejoin:round;stroke-miterlimit:1.5;"/>
    </g>
    <path d="M64.814,118.061l0,5.888l-1.424,0l0,-0.552c-0.118,0.192 -0.288,0.343 -0.512,0.452c-0.224,0.109 -0.47,0.164 -0.736,0.164c-0.347,0 -0.656,-0.089 -0.928,-0.268c-0.272,-0.179 -0.484,-0.429 -0.636,-0.752c-0.152,-0.323 -0.228,-0.695 -0.228,-1.116c0,-0.416 0.076,-0.784 0.228,-1.104c0.152,-0.32 0.364,-0.567 0.636,-0.74c0.272,-0.173 0.581,-0.26 0.928,-0.26c0.256,0 0.492,0.053 0.708,0.16c0.216,0.107 0.388,0.251 0.516,0.432l0,-2.304l1.448,0Zm-2.224,4.872c0.256,0 0.453,-0.089 0.592,-0.268c0.138,-0.179 0.208,-0.436 0.208,-0.772c0,-0.325 -0.071,-0.577 -0.212,-0.756c-0.142,-0.179 -0.338,-0.268 -0.588,-0.268c-0.262,0 -0.462,0.087 -0.6,0.26c-0.139,0.173 -0.208,0.423 -0.208,0.748c0,0.336 0.07,0.596 0.212,0.78c0.141,0.184 0.34,0.276 0.596,0.276Z" style="fill:#FDDEA2;fill-rule:nonzero;"/>
    <path d="M69.59,120.997c0.336,0.096 0.594,0.265 0.776,0.508c0.181,0.243 0.272,0.537 0.272,0.884c0,0.315 -0.083,0.589 -0.248,0.824c-0.166,0.235 -0.402,0.416 -0.708,0.544c-0.307,0.128 -0.668,0.192 -1.084,0.192l-2.84,0l0,-5.696l2.768,0c0.597,0 1.072,0.133 1.424,0.4c0.352,0.267 0.528,0.627 0.528,1.08c0,0.293 -0.078,0.552 -0.232,0.776c-0.155,0.224 -0.374,0.387 -0.656,0.488Zm-2.368,-0.512l1.048,0c0.277,0 0.48,-0.043 0.608,-0.128c0.128,-0.085 0.192,-0.221 0.192,-0.408c0,-0.192 -0.066,-0.333 -0.196,-0.424c-0.131,-0.091 -0.332,-0.136 -0.604,-0.136l-1.048,0l0,1.096Zm1.2,2.328c0.288,0 0.494,-0.045 0.62,-0.136c0.125,-0.091 0.188,-0.243 0.188,-0.456c0,-0.219 -0.062,-0.373 -0.184,-0.464c-0.123,-0.091 -0.331,-0.136 -0.624,-0.136l-1.2,0l0,1.192l1.2,0Z" style="fill:#FDDEA2;fill-rule:nonzero;"/>
    <g>
      <path d="M55.052,79.255l4.579,0" style="fill:none;stroke:#FDDEA2;stroke-width:1px;stroke-linecap:round;stroke-linejoin:round;stroke-miterlimit:1.5;"/>
      <path d="M73.052,79.255l4.579,0" style="fill:none;stroke:#FDDEA2;stroke-width:1px;stroke-linecap:round;stroke-linejoin:round;stroke-miterlimit:1.5;"/>
      <path d="M75.252,81.719l0,-4.579" style="fill:none;stroke:#FDDEA2;stroke-width:1px;stroke-linecap:round;stroke-linejoin:round;stroke-miterlimit:1.5;"/>
      <path d="M76.152,76.051c0.945,-1.706 1.442,-3.624 1.442,-5.575c0,-6.347 -5.153,-11.5 -11.5,-11.5c-6.348,0 -11.5,5.153 -11.5,11.5c0,2.019 0.531,4.002 1.54,5.75l9.96,-5.75l10.058,5.575Z" style="fill:none;stroke:#FDDEA2;stroke-width:1px;stroke-linecap:round;stroke-linejoin:round;stroke-miterlimit:1.5;"/>
    </g>
    <path d="M55.614,88.949l0,-5.696l3.976,0l0,1.176l-2.496,0l0,1.04l2.336,0l0,1.168l-2.336,0l0,2.312l-1.48,0Z" style="fill:#FDDEA2;fill-rule:nonzero;"/>
    <path d="M65.238,88.949l-1.592,0l-0.736,-1.896c-0.086,-0.213 -0.286,-0.32 -0.6,-0.32l-0.544,0l0,2.216l-1.48,0l0,-5.696l2.648,0c0.688,0 1.205,0.148 1.552,0.444c0.346,0.296 0.52,0.719 0.52,1.268c0,0.384 -0.103,0.716 -0.308,0.996c-0.206,0.28 -0.495,0.479 -0.868,0.596c0.16,0.032 0.304,0.107 0.432,0.224c0.128,0.117 0.229,0.275 0.304,0.472l0.672,1.696Zm-2.544,-3.336c0.32,0 0.552,-0.049 0.696,-0.148c0.144,-0.099 0.216,-0.252 0.216,-0.46c0,-0.219 -0.071,-0.376 -0.212,-0.472c-0.142,-0.096 -0.375,-0.144 -0.7,-0.144l-0.944,0l0,1.224l0.944,0Z" style="fill:#FDDEA2;fill-rule:nonzero;"/>
    <path d="M65.998,88.949l0,-5.696l4.064,0l0,1.152l-2.6,0l0,1.072l2.432,0l0,1.152l-2.432,0l0,1.168l2.6,0l0,1.152l-4.064,0Z" style="fill:#FDDEA2;fill-rule:nonzero;"/>
    <path d="M75.078,88.653c0.117,0.197 0.262,0.383 0.436,0.556c0.173,0.173 0.372,0.353 0.596,0.54l-1,0.728c-0.587,-0.384 -1.054,-0.869 -1.4,-1.456l-0.16,0c-0.582,0 -1.088,-0.119 -1.52,-0.356c-0.432,-0.237 -0.764,-0.577 -0.996,-1.02c-0.232,-0.443 -0.348,-0.96 -0.348,-1.552c0,-0.592 0.117,-1.107 0.352,-1.544c0.234,-0.437 0.566,-0.775 0.996,-1.012c0.429,-0.237 0.934,-0.356 1.516,-0.356c0.581,0 1.086,0.119 1.516,0.356c0.429,0.237 0.758,0.575 0.988,1.012c0.229,0.437 0.344,0.952 0.344,1.544c0,0.592 -0.115,1.108 -0.344,1.548c-0.23,0.44 -0.555,0.777 -0.976,1.012Zm-2.888,-2.56c0,0.587 0.12,1.031 0.36,1.332c0.24,0.301 0.573,0.452 1,0.452c0.426,0 0.761,-0.152 1.004,-0.456c0.242,-0.304 0.364,-0.747 0.364,-1.328c0,-0.576 -0.122,-1.015 -0.364,-1.316c-0.243,-0.301 -0.578,-0.452 -1.004,-0.452c-0.427,0 -0.76,0.149 -1,0.448c-0.24,0.299 -0.36,0.739 -0.36,1.32Z" style="fill:#FDDEA2;fill-rule:nonzero;"/>
    <g>
      <path d="M13.102,85.279l4.579,0" style="fill:none;stroke:#FDDEA2;stroke-width:1px;stroke-linecap:round;stroke-linejoin:round;stroke-miterlimit:1.5;"/>
      <path d="M31.102,85.279l4.579,0" style="fill:none;stroke:#FDDEA2;stroke-width:1px;stroke-linecap:round;stroke-linejoin:round;stroke-miterlimit:1.5;"/>
      <path d="M33.302,87.743l0,-4.579" style="fill:none;stroke:#FDDEA2;stroke-width:1px;stroke-linecap:round;stroke-linejoin:round;stroke-miterlimit:1.5;"/>
      <path d="M34.201,82.075c0.946,-1.706 1.442,-3.624 1.442,-5.575c0,-6.347 -5.153,-11.5 -11.5,-11.5c-6.347,0 -11.5,5.153 -11.5,11.5c0,2.019 0.531,4.002 1.541,5.75l9.959,-5.75l10.058,5.575Z" style="fill:none;stroke:#FDDEA2;stroke-width:1px;stroke-linecap:round;stroke-linejoin:round;stroke-miterlimit:1.5;"/>
    </g>
    <path d="M13.611,94.949l0,-5.696l3.976,0l0,1.176l-2.496,0l0,1.04l2.336,0l0,1.168l-2.336,0l0,2.312l-1.48,0Z" style="fill:#FDDEA2;fill-rule:nonzero;"/>
    <path d="M23.235,94.949l-1.592,0l-0.736,-1.896c-0.085,-0.213 -0.285,-0.32 -0.6,-0.32l-0.544,0l0,2.216l-1.48,0l0,-5.696l2.648,0c0.688,0 1.205,0.148 1.552,0.444c0.347,0.296 0.52,0.719 0.52,1.268c0,0.384 -0.103,0.716 -0.308,0.996c-0.205,0.28 -0.495,0.479 -0.868,0.596c0.16,0.032 0.304,0.107 0.432,0.224c0.128,0.117 0.229,0.275 0.304,0.472l0.672,1.696Zm-2.544,-3.336c0.32,0 0.552,-0.049 0.696,-0.148c0.144,-0.099 0.216,-0.252 0.216,-0.46c0,-0.219 -0.071,-0.376 -0.212,-0.472c-0.141,-0.096 -0.375,-0.144 -0.7,-0.144l-0.944,0l0,1.224l0.944,0Z" style="fill:#FDDEA2;fill-rule:nonzero;"/>
    <path d="M23.995,94.949l0,-5.696l4.064,0l0,1.152l-2.6,0l0,1.072l2.432,0l0,1.152l-2.432,0l0,1.168l2.6,0l0,1.152l-4.064,0Z" style="fill:#FDDEA2;fill-rule:nonzero;"/>
    <path d="M33.075,94.653c0.117,0.197 0.263,0.383 0.436,0.556c0.173,0.173 0.372,0.353 0.596,0.54l-1,0.728c-0.587,-0.384 -1.053,-0.869 -1.4,-1.456l-0.16,0c-0.581,0 -1.088,-0.119 -1.52,-0.356c-0.432,-0.237 -0.764,-0.577 -0.996,-1.02c-0.232,-0.443 -0.348,-0.96 -0.348,-1.552c0,-0.592 0.117,-1.107 0.352,-1.544c0.235,-0.437 0.567,-0.775 0.996,-1.012c0.429,-0.237 0.935,-0.356 1.516,-0.356c0.581,0 1.087,0.119 1.516,0.356c0.429,0.237 0.759,0.575 0.988,1.012c0.229,0.437 0.344,0.952 0.344,1.544c0,0.592 -0.115,1.108 -0.344,1.548c-0.229,0.44 -0.555,0.777 -0.976,1.012Zm-2.888,-2.56c0,0.587 0.12,1.031 0.36,1.332c0.24,0.301 0.573,0.452 1,0.452c0.427,0 0.761,-0.152 1.004,-0.456c0.243,-0.304 0.364,-0.747 0.364,-1.328c0,-0.576 -0.121,-1.015 -0.364,-1.316c-0.243,-0.301 -0.577,-0.452 -1.004,-0.452c-0.427,0 -0.76,0.149 -1,0.448c-0.24,0.299 -0.36,0.739 -0.36,1.32Z" style="fill:#FDDEA2;fill-rule:nonzero;"/>
    <path d="M16.324,146.252l-0.378,-0.882l-1.896,0l-0.378,0.882l-1.128,0l1.998,-4.272l0.888,0l2.004,4.272l-1.11,0Zm-1.908,-1.728l1.164,0l-0.582,-1.35l-0.582,1.35Z" style="fill:#FDDEA2;fill-rule:nonzero;"/>
    <path d="M19.642,146.306c-0.444,0 -0.831,-0.091 -1.161,-0.273c-0.33,-0.182 -0.584,-0.439 -0.762,-0.771c-0.178,-0.332 -0.267,-0.716 -0.267,-1.152c0,-0.432 0.089,-0.813 0.267,-1.143c0.178,-0.33 0.432,-0.586 0.762,-0.768c0.33,-0.182 0.717,-0.273 1.161,-0.273c0.28,0 0.551,0.042 0.813,0.126c0.262,0.084 0.473,0.198 0.633,0.342l-0.342,0.798c-0.348,-0.252 -0.708,-0.378 -1.08,-0.378c-0.344,0 -0.608,0.109 -0.792,0.327c-0.184,0.218 -0.276,0.541 -0.276,0.969c0,0.432 0.092,0.758 0.276,0.978c0.184,0.22 0.448,0.33 0.792,0.33c0.372,0 0.732,-0.126 1.08,-0.378l0.342,0.798c-0.16,0.144 -0.371,0.258 -0.633,0.342c-0.262,0.084 -0.533,0.126 -0.813,0.126Z" style="fill:#FDDEA2;fill-rule:nonzero;"/>
    <path d="M22.576,146.252l0,-3.36l-1.272,0l0,-0.912l3.684,0l0,0.912l-1.272,0l0,3.36l-1.14,0Z" style="fill:#FDDEA2;fill-rule:nonzero;"/>
    <rect x="25.444" y="141.98" width="1.128" height="4.272" style="fill:#FDDEA2;fill-rule:nonzero;"/>
    <path d="M30.466,141.98l1.134,0l-1.944,4.272l-0.894,0l-1.944,-4.272l1.17,0l1.23,2.868l1.248,-2.868Z" style="fill:#FDDEA2;fill-rule:nonzero;"/>
    <path d="M31.846,146.252l0,-4.272l3.048,0l0,0.864l-1.95,0l0,0.804l1.824,0l0,0.864l-1.824,0l0,0.876l1.95,0l0,0.864l-3.048,0Z" style="fill:#FDDEA2;fill-rule:nonzero;"/>
    <path d="M14.725,180.832c0.252,0.072 0.446,0.199 0.582,0.381c0.136,0.182 0.204,0.403 0.204,0.663c0,0.236 -0.062,0.442 -0.186,0.618c-0.124,0.176 -0.301,0.312 -0.531,0.408c-0.23,0.096 -0.501,0.144 -0.813,0.144l-2.13,0l0,-4.272l2.076,0c0.448,0 0.804,0.1 1.068,0.3c0.264,0.2 0.396,0.47 0.396,0.81c0,0.22 -0.058,0.414 -0.174,0.582c-0.116,0.168 -0.28,0.29 -0.492,0.366Zm-1.776,-0.384l0.786,0c0.208,0 0.36,-0.032 0.456,-0.096c0.096,-0.064 0.144,-0.166 0.144,-0.306c0,-0.144 -0.049,-0.25 -0.147,-0.318c-0.098,-0.068 -0.249,-0.102 -0.453,-0.102l-0.786,0l0,0.822Zm0.9,1.746c0.216,0 0.371,-0.034 0.465,-0.102c0.094,-0.068 0.141,-0.182 0.141,-0.342c0,-0.164 -0.046,-0.28 -0.138,-0.348c-0.092,-0.068 -0.248,-0.102 -0.468,-0.102l-0.9,0l0,0.894l0.9,0Z" style="fill:#FDDEA2;fill-rule:nonzero;"/>
    <path d="M19.969,178.774l-1.806,2.64l0,1.632l-1.134,0l0,-1.638l-1.794,-2.634l1.272,0l1.08,1.704l1.098,-1.704l1.284,0Z" style="fill:#FDDEA2;fill-rule:nonzero;"/>
    <path d="M19.951,178.774l2.034,0c0.488,0 0.866,0.117 1.134,0.351c0.268,0.234 0.402,0.551 0.402,0.951c0,0.396 -0.136,0.712 -0.408,0.948c-0.272,0.236 -0.648,0.354 -1.128,0.354l-0.906,0l0,1.668l-1.128,0l0,-4.272Zm1.884,1.764c0.424,0 0.636,-0.15 0.636,-0.45c0,-0.152 -0.051,-0.267 -0.153,-0.345c-0.102,-0.078 -0.263,-0.117 -0.483,-0.117l-0.756,0l0,0.912l0.756,0Z" style="fill:#FDDEA2;fill-rule:nonzero;"/>
    <path d="M26.863,183.046l-0.378,-0.882l-1.896,0l-0.378,0.882l-1.128,0l1.998,-4.272l0.888,0l2.004,4.272l-1.11,0Zm-1.908,-1.728l1.164,0l-0.582,-1.35l-0.582,1.35Z" style="fill:#FDDEA2;fill-rule:nonzero;"/>
    <path d="M29.701,183.1c-0.32,0 -0.636,-0.042 -0.948,-0.126c-0.312,-0.084 -0.566,-0.198 -0.762,-0.342l0.354,-0.798c0.208,0.132 0.429,0.233 0.663,0.303c0.234,0.07 0.469,0.105 0.705,0.105c0.24,0 0.424,-0.033 0.552,-0.099c0.128,-0.066 0.192,-0.159 0.192,-0.279c0,-0.108 -0.058,-0.197 -0.174,-0.267c-0.116,-0.07 -0.334,-0.139 -0.654,-0.207c-0.404,-0.08 -0.718,-0.179 -0.942,-0.297c-0.224,-0.118 -0.381,-0.257 -0.471,-0.417c-0.09,-0.16 -0.135,-0.354 -0.135,-0.582c0,-0.26 0.074,-0.495 0.222,-0.705c0.148,-0.21 0.356,-0.374 0.624,-0.492c0.268,-0.118 0.574,-0.177 0.918,-0.177c0.308,0 0.607,0.043 0.897,0.129c0.29,0.086 0.517,0.199 0.681,0.339l-0.348,0.798c-0.188,-0.132 -0.386,-0.233 -0.594,-0.303c-0.208,-0.07 -0.416,-0.105 -0.624,-0.105c-0.204,0 -0.368,0.039 -0.492,0.117c-0.124,0.078 -0.186,0.183 -0.186,0.315c0,0.072 0.022,0.132 0.066,0.18c0.044,0.048 0.126,0.095 0.246,0.141c0.12,0.046 0.3,0.095 0.54,0.147c0.388,0.084 0.693,0.185 0.915,0.303c0.222,0.118 0.379,0.256 0.471,0.414c0.092,0.158 0.138,0.347 0.138,0.567c0,0.416 -0.162,0.743 -0.486,0.981c-0.324,0.238 -0.78,0.357 -1.368,0.357Z" style="fill:#FDDEA2;fill-rule:nonzero;"/>
    <path d="M33.733,183.1c-0.32,0 -0.636,-0.042 -0.948,-0.126c-0.312,-0.084 -0.566,-0.198 -0.762,-0.342l0.354,-0.798c0.208,0.132 0.429,0.233 0.663,0.303c0.234,0.07 0.469,0.105 0.705,0.105c0.24,0 0.424,-0.033 0.552,-0.099c0.128,-0.066 0.192,-0.159 0.192,-0.279c0,-0.108 -0.058,-0.197 -0.174,-0.267c-0.116,-0.07 -0.334,-0.139 -0.654,-0.207c-0.404,-0.08 -0.718,-0.179 -0.942,-0.297c-0.224,-0.118 -0.381,-0.257 -0.471,-0.417c-0.09,-0.16 -0.135,-0.354 -0.135,-0.582c0,-0.26 0.074,-0.495 0.222,-0.705c0.148,-0.21 0.356,-0.374 0.624,-0.492c0.268,-0.118 0.574,-0.177 0.918,-0.177c0.308,0 0.607,0.043 0.897,0.129c0.29,0.086 0.517,0.199 0.681,0.339l-0.348,0.798c-0.188,-0.132 -0.386,-0.233 -0.594,-0.303c-0.208,-0.07 -0.416,-0.105 -0.624,-0.105c-0.204,0 -0.368,0.039 -0.492,0.117c-0.124,0.078 -0.186,0.183 -0.186,0.315c0,0.072 0.022,0.132 0.066,0.18c0.044,0.048 0.126,0.095 0.246,0.141c0.12,0.046 0.3,0.095 0.54,0.147c0.388,0.084 0.693,0.185 0.915,0.303c0.222,0.118 0.379,0.256 0.471,0.414c0.092,0.158 0.138,0.347 0.138,0.567c0,0.416 -0.162,0.743 -0.486,0.981c-0.324,0.238 -0.78,0.357 -1.368,0.357Z" style="fill:#FDDEA2;fill-rule:nonzero;"/>
    <path d="M18.833,53.078l1.104,0l0,4.272l-1.104,0l0,-1.728l-1.728,0l0,1.728l-1.104,0l0,-4.272l1.104,0l0,1.662l1.728,0l0,-1.662Z" style="fill:#ce9400;fill-rule:nonzero;"/>
    <rect x="20.705" y="53.078" width="1.128" height="4.272" style="fill:#ce9400;fill-rule:nonzero;"/>
    <path d="M26.393,54.938l0,2.142c-0.228,0.104 -0.483,0.184 -0.765,0.24c-0.282,0.056 -0.571,0.084 -0.867,0.084c-0.464,0 -0.867,-0.088 -1.209,-0.264c-0.342,-0.176 -0.605,-0.429 -0.789,-0.759c-0.184,-0.33 -0.276,-0.721 -0.276,-1.173c0,-0.44 0.092,-0.825 0.276,-1.155c0.184,-0.33 0.444,-0.584 0.78,-0.762c0.336,-0.178 0.728,-0.267 1.176,-0.267c0.308,0 0.599,0.04 0.873,0.12c0.274,0.08 0.497,0.19 0.669,0.33l-0.354,0.798c-0.196,-0.128 -0.385,-0.221 -0.567,-0.279c-0.182,-0.058 -0.377,-0.087 -0.585,-0.087c-0.38,0 -0.663,0.107 -0.849,0.321c-0.186,0.214 -0.279,0.541 -0.279,0.981c0,0.456 0.097,0.794 0.291,1.014c0.194,0.22 0.493,0.33 0.897,0.33c0.188,0 0.376,-0.02 0.564,-0.06l0,-0.792l-0.744,0l0,-0.762l1.758,0Z" style="fill:#ce9400;fill-rule:nonzero;"/>
    <path d="M29.939,53.078l1.104,0l0,4.272l-1.104,0l0,-1.728l-1.728,0l0,1.728l-1.104,0l0,-4.272l1.104,0l0,1.662l1.728,0l0,-1.662Z" style="fill:#ce9400;fill-rule:nonzero;"/>
    <path d="M55.001,50.078l2.034,0c0.488,0 0.866,0.117 1.134,0.351c0.268,0.234 0.402,0.551 0.402,0.951c0,0.396 -0.136,0.712 -0.408,0.948c-0.272,0.236 -0.648,0.354 -1.128,0.354l-0.906,0l0,1.668l-1.128,0l0,-4.272Zm1.884,1.764c0.424,0 0.636,-0.15 0.636,-0.45c0,-0.152 -0.051,-0.267 -0.153,-0.345c-0.102,-0.078 -0.263,-0.117 -0.483,-0.117l-0.756,0l0,0.912l0.756,0Z" style="fill:#ce9400;fill-rule:nonzero;"/>
    <path d="M59.111,54.35l0,-4.272l3.048,0l0,0.864l-1.95,0l0,0.804l1.824,0l0,0.864l-1.824,0l0,0.876l1.95,0l0,0.864l-3.048,0Z" style="fill:#ce9400;fill-rule:nonzero;"/>
    <path d="M65.939,54.35l-0.378,-0.882l-1.896,0l-0.378,0.882l-1.128,0l1.998,-4.272l0.888,0l2.004,4.272l-1.11,0Zm-1.908,-1.728l1.164,0l-0.582,-1.35l-0.582,1.35Z" style="fill:#ce9400;fill-rule:nonzero;"/>
    <path d="M71.471,54.35l-1.338,0l-1.71,-1.938l0,1.938l-1.128,0l0,-4.272l1.128,0l0,1.836l1.662,-1.836l1.32,0l-1.89,2.028l1.956,2.244Z" style="fill:#ce9400;fill-rule:nonzero;"/>
    <path d="M75.479,53.456l0.924,0l0,0.894l-2.964,0l0,-0.894l0.918,0l0,-2.154l-0.858,0.492l0,-0.966l1.32,-0.75l0.66,0l0,3.378Z" style="fill:#ce9400;fill-rule:nonzero;"/>
    <path d="M56.001,170.078l2.034,0c0.488,0 0.866,0.117 1.134,0.351c0.268,0.234 0.402,0.551 0.402,0.951c0,0.396 -0.136,0.712 -0.408,0.948c-0.272,0.236 -0.648,0.354 -1.128,0.354l-0.906,0l0,1.668l-1.128,0l0,-4.272Zm1.884,1.764c0.424,0 0.636,-0.15 0.636,-0.45c0,-0.152 -0.051,-0.267 -0.153,-0.345c-0.102,-0.078 -0.263,-0.117 -0.483,-0.117l-0.756,0l0,0.912l0.756,0Z" style="fill:#ce9400;fill-rule:nonzero;"/>
    <path d="M60.111,174.35l0,-4.272l3.048,0l0,0.864l-1.95,0l0,0.804l1.824,0l0,0.864l-1.824,0l0,0.876l1.95,0l0,0.864l-3.048,0Z" style="fill:#ce9400;fill-rule:nonzero;"/>
    <path d="M66.939,174.35l-0.378,-0.882l-1.896,0l-0.378,0.882l-1.128,0l1.998,-4.272l0.888,0l2.004,4.272l-1.11,0Zm-1.908,-1.728l1.164,0l-0.582,-1.35l-0.582,1.35Z" style="fill:#ce9400;fill-rule:nonzero;"/>
    <path d="M72.471,174.35l-1.338,0l-1.71,-1.938l0,1.938l-1.128,0l0,-4.272l1.128,0l0,1.836l1.662,-1.836l1.32,0l-1.89,2.028l1.956,2.244Z" style="fill:#ce9400;fill-rule:nonzero;"/>
    <path d="M77.241,173.456l0,0.894l-3.012,0l0,-0.828l1.392,-1.452c0.26,-0.272 0.39,-0.526 0.39,-0.762c0,-0.276 -0.164,-0.414 -0.492,-0.414c-0.168,0 -0.345,0.033 -0.531,0.099c-0.186,0.066 -0.373,0.161 -0.561,0.285l-0.354,-0.798c0.172,-0.14 0.395,-0.251 0.669,-0.333c0.274,-0.082 0.553,-0.123 0.837,-0.123c0.308,0 0.577,0.049 0.807,0.147c0.23,0.098 0.408,0.238 0.534,0.42c0.126,0.182 0.189,0.395 0.189,0.639c0,0.248 -0.049,0.473 -0.147,0.675c-0.098,0.202 -0.265,0.429 -0.501,0.681l-0.852,0.87l1.632,0Z" style="fill:#ce9400;fill-rule:nonzero;"/>
    <path d="M16.549,63.404c-0.32,0 -0.636,-0.042 -0.948,-0.126c-0.312,-0.084 -0.566,-0.198 -0.762,-0.342l0.354,-0.798c0.208,0.132 0.429,0.233 0.663,0.303c0.234,0.07 0.469,0.105 0.705,0.105c0.24,0 0.424,-0.033 0.552,-0.099c0.128,-0.066 0.192,-0.159 0.192,-0.279c0,-0.108 -0.058,-0.197 -0.174,-0.267c-0.116,-0.07 -0.334,-0.139 -0.654,-0.207c-0.404,-0.08 -0.718,-0.179 -0.942,-0.297c-0.224,-0.118 -0.381,-0.257 -0.471,-0.417c-0.09,-0.16 -0.135,-0.354 -0.135,-0.582c0,-0.26 0.074,-0.495 0.222,-0.705c0.148,-0.21 0.356,-0.374 0.624,-0.492c0.268,-0.118 0.574,-0.177 0.918,-0.177c0.308,0 0.607,0.043 0.897,0.129c0.29,0.086 0.517,0.199 0.681,0.339l-0.348,0.798c-0.188,-0.132 -0.386,-0.233 -0.594,-0.303c-0.208,-0.07 -0.416,-0.105 -0.624,-0.105c-0.204,0 -0.368,0.039 -0.492,0.117c-0.124,0.078 -0.186,0.183 -0.186,0.315c0,0.072 0.022,0.132 0.066,0.18c0.044,0.048 0.126,0.095 0.246,0.141c0.12,0.046 0.3,0.095 0.54,0.147c0.388,0.084 0.693,0.185 0.915,0.303c0.222,0.118 0.379,0.256 0.471,0.414c0.092,0.158 0.138,0.347 0.138,0.567c0,0.416 -0.162,0.743 -0.486,0.981c-0.324,0.238 -0.78,0.357 -1.368,0.357Z" style="fill:#ce9400;fill-rule:nonzero;"/>
    <path d="M21.865,59.078l1.104,0l0,4.272l-1.104,0l0,-1.728l-1.728,0l0,1.728l-1.104,0l0,-4.272l1.104,0l0,1.662l1.728,0l0,-1.662Z" style="fill:#ce9400;fill-rule:nonzero;"/>
    <path d="M23.737,63.35l0,-4.272l3.048,0l0,0.864l-1.95,0l0,0.804l1.824,0l0,0.864l-1.824,0l0,0.876l1.95,0l0,0.864l-3.048,0Z" style="fill:#ce9400;fill-rule:nonzero;"/>
    <path d="M27.361,63.35l0,-4.272l1.128,0l0,3.36l1.806,0l0,0.912l-2.934,0Z" style="fill:#ce9400;fill-rule:nonzero;"/>
    <path d="M30.835,63.35l0,-4.272l2.982,0l0,0.882l-1.872,0l0,0.78l1.752,0l0,0.876l-1.752,0l0,1.734l-1.11,0Z" style="fill:#ce9400;fill-rule:nonzero;"/>
    <path d="M67.854,277.653c0.117,0.197 0.262,0.383 0.436,0.556c0.173,0.173 0.372,0.353 0.596,0.54l-1,0.728c-0.587,-0.384 -1.054,-0.869 -1.4,-1.456l-0.16,0c-0.582,0 -1.088,-0.119 -1.52,-0.356c-0.432,-0.237 -0.764,-0.577 -0.996,-1.02c-0.232,-0.443 -0.348,-0.96 -0.348,-1.552c0,-0.592 0.117,-1.107 0.352,-1.544c0.234,-0.437 0.566,-0.775 0.996,-1.012c0.429,-0.237 0.934,-0.356 1.516,-0.356c0.581,0 1.086,0.119 1.516,0.356c0.429,0.237 0.758,0.575 0.988,1.012c0.229,0.437 0.344,0.952 0.344,1.544c0,0.592 -0.115,1.108 -0.344,1.548c-0.23,0.44 -0.555,0.777 -0.976,1.012Zm-2.888,-2.56c0,0.587 0.12,1.031 0.36,1.332c0.24,0.301 0.573,0.452 1,0.452c0.426,0 0.761,-0.152 1.004,-0.456c0.242,-0.304 0.364,-0.747 0.364,-1.328c0,-0.576 -0.122,-1.015 -0.364,-1.316c-0.243,-0.301 -0.578,-0.452 -1.004,-0.452c-0.427,0 -0.76,0.149 -1,0.448c-0.24,0.299 -0.36,0.739 -0.36,1.32Z" style="fill:#FDDEA2;fill-rule:nonzero;"/>
    <g>
      <path d="M55.052,234.255l4.579,0" style="fill:none;stroke:#FDDEA2;stroke-width:1px;stroke-linecap:round;stroke-linejoin:round;stroke-miterlimit:1.5;"/>
      <path d="M73.052,234.255l4.579,0" style="fill:none;stroke:#FDDEA2;stroke-width:1px;stroke-linecap:round;stroke-linejoin:round;stroke-miterlimit:1.5;"/>
      <path d="M75.252,236.719l0,-4.579" style="fill:none;stroke:#FDDEA2;stroke-width:1px;stroke-linecap:round;stroke-linejoin:round;stroke-miterlimit:1.5;"/>
      <path d="M76.152,231.051c0.945,-1.706 1.442,-3.624 1.442,-5.575c0,-6.347 -5.153,-11.5 -11.5,-11.5c-6.348,0 -11.5,5.153 -11.5,11.5c0,2.019 0.531,4.002 1.54,5.75l9.96,-5.75l10.058,5.575Z" style="fill:none;stroke:#FDDEA2;stroke-width:1px;stroke-linecap:round;stroke-linejoin:round;stroke-miterlimit:1.5;"/>
    </g>
    <path d="M64.814,238.061l0,5.888l-1.424,0l0,-0.552c-0.118,0.192 -0.288,0.343 -0.512,0.452c-0.224,0.109 -0.47,0.164 -0.736,0.164c-0.347,0 -0.656,-0.089 -0.928,-0.268c-0.272,-0.179 -0.484,-0.429 -0.636,-0.752c-0.152,-0.323 -0.228,-0.695 -0.228,-1.116c0,-0.416 0.076,-0.784 0.228,-1.104c0.152,-0.32 0.364,-0.567 0.636,-0.74c0.272,-0.173 0.581,-0.26 0.928,-0.26c0.256,0 0.492,0.053 0.708,0.16c0.216,0.107 0.388,0.251 0.516,0.432l0,-2.304l1.448,0Zm-2.224,4.872c0.256,0 0.453,-0.089 0.592,-0.268c0.138,-0.179 0.208,-0.436 0.208,-0.772c0,-0.325 -0.071,-0.577 -0.212,-0.756c-0.142,-0.179 -0.338,-0.268 -0.588,-0.268c-0.262,0 -0.462,0.087 -0.6,0.26c-0.139,0.173 -0.208,0.423 -0.208,0.748c0,0.336 0.07,0.596 0.212,0.78c0.141,0.184 0.34,0.276 0.596,0.276Z" style="fill:#FDDEA2;fill-rule:nonzero;"/>
    <path d="M69.59,240.997c0.336,0.096 0.594,0.265 0.776,0.508c0.181,0.243 0.272,0.537 0.272,0.884c0,0.315 -0.083,0.589 -0.248,0.824c-0.166,0.235 -0.402,0.416 -0.708,0.544c-0.307,0.128 -0.668,0.192 -1.084,0.192l-2.84,0l0,-5.696l2.768,0c0.597,0 1.072,0.133 1.424,0.4c0.352,0.267 0.528,0.627 0.528,1.08c0,0.293 -0.078,0.552 -0.232,0.776c-0.155,0.224 -0.374,0.387 -0.656,0.488Zm-2.368,-0.512l1.048,0c0.277,0 0.48,-0.043 0.608,-0.128c0.128,-0.085 0.192,-0.221 0.192,-0.408c0,-0.192 -0.066,-0.333 -0.196,-0.424c-0.131,-0.091 -0.332,-0.136 -0.604,-0.136l-1.048,0l0,1.096Zm1.2,2.328c0.288,0 0.494,-0.045 0.62,-0.136c0.125,-0.091 0.188,-0.243 0.188,-0.456c0,-0.219 -0.062,-0.373 -0.184,-0.464c-0.123,-0.091 -0.331,-0.136 -0.624,-0.136l-1.2,0l0,1.192l1.2,0Z" style="fill:#FDDEA2;fill-rule:nonzero;"/>
    <g>
      <path d="M55.052,199.255l4.579,0" style="fill:none;stroke:#FDDEA2;stroke-width:1px;stroke-linecap:round;stroke-linejoin:round;stroke-miterlimit:1.5;"/>
      <path d="M73.052,199.255l4.579,0" style="fill:none;stroke:#FDDEA2;stroke-width:1px;stroke-linecap:round;stroke-linejoin:round;stroke-miterlimit:1.5;"/>
      <path d="M75.252,201.719l0,-4.579" style="fill:none;stroke:#FDDEA2;stroke-width:1px;stroke-linecap:round;stroke-linejoin:round;stroke-miterlimit:1.5;"/>
      <path d="M76.152,196.051c0.945,-1.706 1.442,-3.624 1.442,-5.575c0,-6.347 -5.153,-11.5 -11.5,-11.5c-6.348,0 -11.5,5.153 -11.5,11.5c0,2.019 0.531,4.002 1.54,5.75l9.96,-5.75l10.058,5.575Z" style="fill:none;stroke:#FDDEA2;stroke-width:1px;stroke-linecap:round;stroke-linejoin:round;stroke-miterlimit:1.5;"/>
    </g>
    <path d="M55.614,208.949l0,-5.696l3.976,0l0,1.176l-2.496,0l0,1.04l2.336,0l0,1.168l-2.336,0l0,2.312l-1.48,0Z" style="fill:#FDDEA2;fill-rule:nonzero;"/>
    <path d="M65.238,208.949l-1.592,0l-0.736,-1.896c-0.086,-0.213 -0.286,-0.32 -0.6,-0.32l-0.544,0l0,2.216l-1.48,0l0,-5.696l2.648,0c0.688,0 1.205,0.148 1.552,0.444c0.346,0.296 0.52,0.719 0.52,1.268c0,0.384 -0.103,0.716 -0.308,0.996c-0.206,0.28 -0.495,0.479 -0.868,0.596c0.16,0.032 0.304,0.107 0.432,0.224c0.128,0.117 0.229,0.275 0.304,0.472l0.672,1.696Zm-2.544,-3.336c0.32,0 0.552,-0.049 0.696,-0.148c0.144,-0.099 0.216,-0.252 0.216,-0.46c0,-0.219 -0.071,-0.376 -0.212,-0.472c-0.142,-0.096 -0.375,-0.144 -0.7,-0.144l-0.944,0l0,1.224l0.944,0Z" style="fill:#FDDEA2;fill-rule:nonzero;"/>
    <path d="M65.998,208.949l0,-5.696l4.064,0l0,1.152l-2.6,0l0,1.072l2.432,0l0,1.152l-2.432,0l0,1.168l2.6,0l0,1.152l-4.064,0Z" style="fill:#FDDEA2;fill-rule:nonzero;"/>
    <path d="M75.078,208.653c0.117,0.197 0.262,0.383 0.436,0.556c0.173,0.173 0.372,0.353 0.596,0.54l-1,0.728c-0.587,-0.384 -1.054,-0.869 -1.4,-1.456l-0.16,0c-0.582,0 -1.088,-0.119 -1.52,-0.356c-0.432,-0.237 -0.764,-0.577 -0.996,-1.02c-0.232,-0.443 -0.348,-0.96 -0.348,-1.552c0,-0.592 0.117,-1.107 0.352,-1.544c0.234,-0.437 0.566,-0.775 0.996,-1.012c0.429,-0.237 0.934,-0.356 1.516,-0.356c0.581,0 1.086,0.119 1.516,0.356c0.429,0.237 0.758,0.575 0.988,1.012c0.229,0.437 0.344,0.952 0.344,1.544c0,0.592 -0.115,1.108 -0.344,1.548c-0.23,0.44 -0.555,0.777 -0.976,1.012Zm-2.888,-2.56c0,0.587 0.12,1.031 0.36,1.332c0.24,0.301 0.573,0.452 1,0.452c0.426,0 0.761,-0.152 1.004,-0.456c0.242,-0.304 0.364,-0.747 0.364,-1.328c0,-0.576 -0.122,-1.015 -0.364,-1.316c-0.243,-0.301 -0.578,-0.452 -1.004,-0.452c-0.427,0 -0.76,0.149 -1,0.448c-0.24,0.299 -0.36,0.739 -0.36,1.32Z" style="fill:#FDDEA2;fill-rule:nonzero;"/>
    <g>
      <path d="M55.052,149.255l4.579,0" style="fill:none;stroke:#FDDEA2;stroke-width:1px;stroke-linecap:round;stroke-linejoin:round;stroke-miterlimit:1.5;"/>
      <path d="M73.052,149.255l4.579,0" style="fill:none;stroke:#FDDEA2;stroke-width:1px;stroke-linecap:round;stroke-linejoin:round;stroke-miterlimit:1.5;"/>
      <path d="M75.252,151.719l0,-4.579" style="fill:none;stroke:#FDDEA2;stroke-width:1px;stroke-linecap:round;stroke-linejoin:round;stroke-miterlimit:1.5;"/>
      <path d="M76.152,146.051c0.945,-1.706 1.442,-3.624 1.442,-5.575c0,-6.347 -5.153,-11.5 -11.5,-11.5c-6.348,0 -11.5,5.153 -11.5,11.5c0,2.019 0.531,4.002 1.54,5.75l9.96,-5.75l10.058,5.575Z" style="fill:none;stroke:#FDDEA2;stroke-width:1px;stroke-linecap:round;stroke-linejoin:round;stroke-miterlimit:1.5;"/>
    </g>
    <path d="M67.854,157.653c0.117,0.197 0.262,0.383 0.436,0.556c0.173,0.173 0.372,0.353 0.596,0.54l-1,0.728c-0.587,-0.384 -1.054,-0.869 -1.4,-1.456l-0.16,0c-0.582,0 -1.088,-0.119 -1.52,-0.356c-0.432,-0.237 -0.764,-0.577 -0.996,-1.02c-0.232,-0.443 -0.348,-0.96 -0.348,-1.552c0,-0.592 0.117,-1.107 0.352,-1.544c0.234,-0.437 0.566,-0.775 0.996,-1.012c0.429,-0.237 0.934,-0.356 1.516,-0.356c0.581,0 1.086,0.119 1.516,0.356c0.429,0.237 0.758,0.575 0.988,1.012c0.229,0.437 0.344,0.952 0.344,1.544c0,0.592 -0.115,1.108 -0.344,1.548c-0.23,0.44 -0.555,0.777 -0.976,1.012Zm-2.888,-2.56c0,0.587 0.12,1.031 0.36,1.332c0.24,0.301 0.573,0.452 1,0.452c0.426,0 0.761,-0.152 1.004,-0.456c0.242,-0.304 0.364,-0.747 0.364,-1.328c0,-0.576 -0.122,-1.015 -0.364,-1.316c-0.243,-0.301 -0.578,-0.452 -1.004,-0.452c-0.427,0 -0.76,0.149 -1,0.448c-0.24,0.299 -0.36,0.739 -0.36,1.32Z" style="fill:#FDDEA2;fill-rule:nonzero;"/>
    <path d="M17.001,197.35l0,-4.272l1.128,0l0,3.36l1.806,0l0,0.912l-2.934,0Z" style="fill:#ce9400;fill-rule:nonzero;"/>
    <path d="M22.257,197.404c-0.436,0 -0.816,-0.089 -1.14,-0.267c-0.324,-0.178 -0.573,-0.433 -0.747,-0.765c-0.174,-0.332 -0.261,-0.72 -0.261,-1.164c0,-0.444 0.088,-0.83 0.264,-1.158c0.176,-0.328 0.425,-0.581 0.747,-0.759c0.322,-0.178 0.701,-0.267 1.137,-0.267c0.436,0 0.815,0.089 1.137,0.267c0.322,0.178 0.569,0.431 0.741,0.759c0.172,0.328 0.258,0.714 0.258,1.158c0,0.444 -0.086,0.832 -0.258,1.164c-0.172,0.332 -0.419,0.587 -0.741,0.765c-0.322,0.178 -0.701,0.267 -1.137,0.267Zm0,-0.858c0.32,0 0.571,-0.114 0.753,-0.342c0.182,-0.228 0.273,-0.56 0.273,-0.996c0,-0.432 -0.091,-0.761 -0.273,-0.987c-0.182,-0.226 -0.433,-0.339 -0.753,-0.339c-0.32,0 -0.57,0.112 -0.75,0.336c-0.18,0.224 -0.27,0.554 -0.27,0.99c0,0.44 0.09,0.773 0.27,0.999c0.18,0.226 0.43,0.339 0.75,0.339Z" style="fill:#ce9400;fill-rule:nonzero;"/>
    <path d="M30.195,193.078l1.068,0l-1.53,4.272l-0.894,0l-0.894,-2.538l-0.912,2.538l-0.894,0l-1.524,-4.272l1.146,0l0.876,2.694l0.954,-2.694l0.768,0l0.918,2.742l0.918,-2.742Z" style="fill:#ce9400;fill-rule:nonzero;"/>
    <path d="M16.549,203.404c-0.32,0 -0.636,-0.042 -0.948,-0.126c-0.312,-0.084 -0.566,-0.198 -0.762,-0.342l0.354,-0.798c0.208,0.132 0.429,0.233 0.663,0.303c0.234,0.07 0.469,0.105 0.705,0.105c0.24,0 0.424,-0.033 0.552,-0.099c0.128,-0.066 0.192,-0.159 0.192,-0.279c0,-0.108 -0.058,-0.197 -0.174,-0.267c-0.116,-0.07 -0.334,-0.139 -0.654,-0.207c-0.404,-0.08 -0.718,-0.179 -0.942,-0.297c-0.224,-0.118 -0.381,-0.257 -0.471,-0.417c-0.09,-0.16 -0.135,-0.354 -0.135,-0.582c0,-0.26 0.074,-0.495 0.222,-0.705c0.148,-0.21 0.356,-0.374 0.624,-0.492c0.268,-0.118 0.574,-0.177 0.918,-0.177c0.308,0 0.607,0.043 0.897,0.129c0.29,0.086 0.517,0.199 0.681,0.339l-0.348,0.798c-0.188,-0.132 -0.386,-0.233 -0.594,-0.303c-0.208,-0.07 -0.416,-0.105 -0.624,-0.105c-0.204,0 -0.368,0.039 -0.492,0.117c-0.124,0.078 -0.186,0.183 -0.186,0.315c0,0.072 0.022,0.132 0.066,0.18c0.044,0.048 0.126,0.095 0.246,0.141c0.12,0.046 0.3,0.095 0.54,0.147c0.388,0.084 0.693,0.185 0.915,0.303c0.222,0.118 0.379,0.256 0.471,0.414c0.092,0.158 0.138,0.347 0.138,0.567c0,0.416 -0.162,0.743 -0.486,0.981c-0.324,0.238 -0.78,0.357 -1.368,0.357Z" style="fill:#ce9400;fill-rule:nonzero;"/>
    <path d="M21.865,199.078l1.104,0l0,4.272l-1.104,0l0,-1.728l-1.728,0l0,1.728l-1.104,0l0,-4.272l1.104,0l0,1.662l1.728,0l0,-1.662Z" style="fill:#ce9400;fill-rule:nonzero;"/>
    <path d="M23.737,203.35l0,-4.272l3.048,0l0,0.864l-1.95,0l0,0.804l1.824,0l0,0.864l-1.824,0l0,0.876l1.95,0l0,0.864l-3.048,0Z" style="fill:#ce9400;fill-rule:nonzero;"/>
    <path d="M27.361,203.35l0,-4.272l1.128,0l0,3.36l1.806,0l0,0.912l-2.934,0Z" style="fill:#ce9400;fill-rule:nonzero;"/>
    <path d="M30.835,203.35l0,-4.272l2.982,0l0,0.882l-1.872,0l0,0.78l1.752,0l0,0.876l-1.752,0l0,1.734l-1.11,0Z" style="fill:#ce9400;fill-rule:nonzero;"/>
    <g>
      <path d="M13.102,120.279l4.579,0" style="fill:none;stroke:#FDDEA2;stroke-width:1px;stroke-linecap:round;stroke-linejoin:round;stroke-miterlimit:1.5;"/>
      <path d="M31.102,120.279l4.579,0" style="fill:none;stroke:#FDDEA2;stroke-width:1px;stroke-linecap:round;stroke-linejoin:round;stroke-miterlimit:1.5;"/>
      <path d="M33.302,122.743l0,-4.579" style="fill:none;stroke:#FDDEA2;stroke-width:1px;stroke-linecap:round;stroke-linejoin:round;stroke-miterlimit:1.5;"/>
      <path d="M34.201,117.075c0.946,-1.706 1.442,-3.624 1.442,-5.575c0,-6.347 -5.153,-11.5 -11.5,-11.5c-6.347,0 -11.5,5.153 -11.5,11.5c0,2.019 0.531,4.002 1.541,5.75l9.959,-5.75l10.058,5.575Z" style="fill:none;stroke:#FDDEA2;stroke-width:1px;stroke-linecap:round;stroke-linejoin:round;stroke-miterlimit:1.5;"/>
    </g>
    <path d="M22.811,124.061l0,5.888l-1.424,0l0,-0.552c-0.117,0.192 -0.288,0.343 -0.512,0.452c-0.224,0.109 -0.469,0.164 -0.736,0.164c-0.347,0 -0.656,-0.089 -0.928,-0.268c-0.272,-0.179 -0.484,-0.429 -0.636,-0.752c-0.152,-0.323 -0.228,-0.695 -0.228,-1.116c0,-0.416 0.076,-0.784 0.228,-1.104c0.152,-0.32 0.364,-0.567 0.636,-0.74c0.272,-0.173 0.581,-0.26 0.928,-0.26c0.256,0 0.492,0.053 0.708,0.16c0.216,0.107 0.388,0.251 0.516,0.432l0,-2.304l1.448,0Zm-2.224,4.872c0.256,0 0.453,-0.089 0.592,-0.268c0.139,-0.179 0.208,-0.436 0.208,-0.772c0,-0.325 -0.071,-0.577 -0.212,-0.756c-0.141,-0.179 -0.337,-0.268 -0.588,-0.268c-0.261,0 -0.461,0.087 -0.6,0.26c-0.139,0.173 -0.208,0.423 -0.208,0.748c0,0.336 0.071,0.596 0.212,0.78c0.141,0.184 0.34,0.276 0.596,0.276Z" style="fill:#FDDEA2;fill-rule:nonzero;"/>
    <path d="M27.587,126.997c0.336,0.096 0.595,0.265 0.776,0.508c0.181,0.243 0.272,0.537 0.272,0.884c0,0.315 -0.083,0.589 -0.248,0.824c-0.165,0.235 -0.401,0.416 -0.708,0.544c-0.307,0.128 -0.668,0.192 -1.084,0.192l-2.84,0l0,-5.696l2.768,0c0.597,0 1.072,0.133 1.424,0.4c0.352,0.267 0.528,0.627 0.528,1.08c0,0.293 -0.077,0.552 -0.232,0.776c-0.155,0.224 -0.373,0.387 -0.656,0.488Zm-2.368,-0.512l1.048,0c0.277,0 0.48,-0.043 0.608,-0.128c0.128,-0.085 0.192,-0.221 0.192,-0.408c0,-0.192 -0.065,-0.333 -0.196,-0.424c-0.131,-0.091 -0.332,-0.136 -0.604,-0.136l-1.048,0l0,1.096Zm1.2,2.328c0.288,0 0.495,-0.045 0.62,-0.136c0.125,-0.091 0.188,-0.243 0.188,-0.456c0,-0.219 -0.061,-0.373 -0.184,-0.464c-0.123,-0.091 -0.331,-0.136 -0.624,-0.136l-1.2,0l0,1.192l1.2,0Z" style="fill:#FDDEA2;fill-rule:nonzero;"/>
    <g>
      <path d="M55.052,269.255l4.579,0" style="fill:none;stroke:#FDDEA2;stroke-width:1px;stroke-linecap:round;stroke-linejoin:round;stroke-miterlimit:1.5;"/>
      <path d="M73.052,269.255l4.579,0" style="fill:none;stroke:#FDDEA2;stroke-width:1px;stroke-linecap:round;stroke-linejoin:round;stroke-miterlimit:1.5;"/>
      <path d="M75.252,271.719l0,-4.579" style="fill:none;stroke:#FDDEA2;stroke-width:1px;stroke-linecap:round;stroke-linejoin:round;stroke-miterlimit:1.5;"/>
      <path d="M76.152,266.051c0.945,-1.706 1.442,-3.624 1.442,-5.575c0,-6.347 -5.153,-11.5 -11.5,-11.5c-6.348,0 -11.5,5.153 -11.5,11.5c0,2.019 0.531,4.002 1.54,5.75l9.96,-5.75l10.058,5.575Z" style="fill:none;stroke:#FDDEA2;stroke-width:1px;stroke-linecap:round;stroke-linejoin:round;stroke-miterlimit:1.5;"/>
    </g>
    <g>
      <path d="M13.102,260.279l4.579,0" style="fill:none;stroke:#FDDEA2;stroke-width:1px;stroke-linecap:round;stroke-linejoin:round;stroke-miterlimit:1.5;"/>
      <path d="M31.102,260.279l4.579,0" style="fill:none;stroke:#FDDEA2;stroke-width:1px;stroke-linecap:round;stroke-linejoin:round;stroke-miterlimit:1.5;"/>
      <path d="M33.302,262.743l0,-4.579" style="fill:none;stroke:#FDDEA2;stroke-width:1px;stroke-linecap:round;stroke-linejoin:round;stroke-miterlimit:1.5;"/>
      <path d="M34.201,257.075c0.946,-1.706 1.442,-3.624 1.442,-5.575c0,-6.347 -5.153,-11.5 -11.5,-11.5c-6.347,0 -11.5,5.153 -11.5,11.5c0,2.019 0.531,4.002 1.541,5.75l9.959,-5.75l10.058,5.575Z" style="fill:none;stroke:#FDDEA2;stroke-width:1px;stroke-linecap:round;stroke-linejoin:round;stroke-miterlimit:1.5;"/>
    </g>
    <path d="M22.811,264.061l0,5.888l-1.424,0l0,-0.552c-0.117,0.192 -0.288,0.343 -0.512,0.452c-0.224,0.109 -0.469,0.164 -0.736,0.164c-0.347,0 -0.656,-0.089 -0.928,-0.268c-0.272,-0.179 -0.484,-0.429 -0.636,-0.752c-0.152,-0.323 -0.228,-0.695 -0.228,-1.116c0,-0.416 0.076,-0.784 0.228,-1.104c0.152,-0.32 0.364,-0.567 0.636,-0.74c0.272,-0.173 0.581,-0.26 0.928,-0.26c0.256,0 0.492,0.053 0.708,0.16c0.216,0.107 0.388,0.251 0.516,0.432l0,-2.304l1.448,0Zm-2.224,4.872c0.256,0 0.453,-0.089 0.592,-0.268c0.139,-0.179 0.208,-0.436 0.208,-0.772c0,-0.325 -0.071,-0.577 -0.212,-0.756c-0.141,-0.179 -0.337,-0.268 -0.588,-0.268c-0.261,0 -0.461,0.087 -0.6,0.26c-0.139,0.173 -0.208,0.423 -0.208,0.748c0,0.336 0.071,0.596 0.212,0.78c0.141,0.184 0.34,0.276 0.596,0.276Z" style="fill:#FDDEA2;fill-rule:nonzero;"/>
    <path d="M27.587,266.997c0.336,0.096 0.595,0.265 0.776,0.508c0.181,0.243 0.272,0.537 0.272,0.884c0,0.315 -0.083,0.589 -0.248,0.824c-0.165,0.235 -0.401,0.416 -0.708,0.544c-0.307,0.128 -0.668,0.192 -1.084,0.192l-2.84,0l0,-5.696l2.768,0c0.597,0 1.072,0.133 1.424,0.4c0.352,0.267 0.528,0.627 0.528,1.08c0,0.293 -0.077,0.552 -0.232,0.776c-0.155,0.224 -0.373,0.387 -0.656,0.488Zm-2.368,-0.512l1.048,0c0.277,0 0.48,-0.043 0.608,-0.128c0.128,-0.085 0.192,-0.221 0.192,-0.408c0,-0.192 -0.065,-0.333 -0.196,-0.424c-0.131,-0.091 -0.332,-0.136 -0.604,-0.136l-1.048,0l0,1.096Zm1.2,2.328c0.288,0 0.495,-0.045 0.62,-0.136c0.125,-0.091 0.188,-0.243 0.188,-0.456c0,-0.219 -0.061,-0.373 -0.184,-0.464c-0.123,-0.091 -0.331,-0.136 -0.624,-0.136l-1.2,0l0,1.192l1.2,0Z" style="fill:#FDDEA2;fill-rule:nonzero;"/>
    <path d="M13.611,234.949l0,-5.696l3.976,0l0,1.176l-2.496,0l0,1.04l2.336,0l0,1.168l-2.336,0l0,2.312l-1.48,0Z" style="fill:#FDDEA2;fill-rule:nonzero;"/>
    <path d="M23.235,234.949l-1.592,0l-0.736,-1.896c-0.085,-0.213 -0.285,-0.32 -0.6,-0.32l-0.544,0l0,2.216l-1.48,0l0,-5.696l2.648,0c0.688,0 1.205,0.148 1.552,0.444c0.347,0.296 0.52,0.719 0.52,1.268c0,0.384 -0.103,0.716 -0.308,0.996c-0.205,0.28 -0.495,0.479 -0.868,0.596c0.16,0.032 0.304,0.107 0.432,0.224c0.128,0.117 0.229,0.275 0.304,0.472l0.672,1.696Zm-2.544,-3.336c0.32,0 0.552,-0.049 0.696,-0.148c0.144,-0.099 0.216,-0.252 0.216,-0.46c0,-0.219 -0.071,-0.376 -0.212,-0.472c-0.141,-0.096 -0.375,-0.144 -0.7,-0.144l-0.944,0l0,1.224l0.944,0Z" style="fill:#FDDEA2;fill-rule:nonzero;"/>
    <path d="M23.995,234.949l0,-5.696l4.064,0l0,1.152l-2.6,0l0,1.072l2.432,0l0,1.152l-2.432,0l0,1.168l2.6,0l0,1.152l-4.064,0Z" style="fill:#FDDEA2;fill-rule:nonzero;"/>
    <path d="M33.075,234.653c0.117,0.197 0.263,0.383 0.436,0.556c0.173,0.173 0.372,0.353 0.596,0.54l-1,0.728c-0.587,-0.384 -1.053,-0.869 -1.4,-1.456l-0.16,0c-0.581,0 -1.088,-0.119 -1.52,-0.356c-0.432,-0.237 -0.764,-0.577 -0.996,-1.02c-0.232,-0.443 -0.348,-0.96 -0.348,-1.552c0,-0.592 0.117,-1.107 0.352,-1.544c0.235,-0.437 0.567,-0.775 0.996,-1.012c0.429,-0.237 0.935,-0.356 1.516,-0.356c0.581,0 1.087,0.119 1.516,0.356c0.429,0.237 0.759,0.575 0.988,1.012c0.229,0.437 0.344,0.952 0.344,1.544c0,0.592 -0.115,1.108 -0.344,1.548c-0.229,0.44 -0.555,0.777 -0.976,1.012Zm-2.888,-2.56c0,0.587 0.12,1.031 0.36,1.332c0.24,0.301 0.573,0.452 1,0.452c0.427,0 0.761,-0.152 1.004,-0.456c0.243,-0.304 0.364,-0.747 0.364,-1.328c0,-0.576 -0.121,-1.015 -0.364,-1.316c-0.243,-0.301 -0.577,-0.452 -1.004,-0.452c-0.427,0 -0.76,0.149 -1,0.448c-0.24,0.299 -0.36,0.739 -0.36,1.32Z" style="fill:#FDDEA2;fill-rule:nonzero;"/>
    <path d="M45,51l0,223" style="fill:none;stroke:#FDDEA2;stroke-width:1px;stroke-linecap:round;stroke-linejoin:round;stroke-miterlimit:1.5;"/>
    <path d="M53,163l25,0" style="fill:none;stroke:#FDDEA2;stroke-width:1px;stroke-linecap:round;stroke-linejoin:round;stroke-miterlimit:1.5;"/>
    <path d="M11.503,136l25,0" style="fill:none;stroke:#FDDEA2;stroke-width:1px;stroke-linecap:round;stroke-linejoin:round;stroke-miterlimit:1.5;"/>
    <path d="M11.503,189l25,0" style="fill:none;stroke:#FDDEA2;stroke-width:1px;stroke-linecap:round;stroke-linejoin:round;stroke-miterlimit:1.5;"/>
    <g>
      <path d="M13.102,225.279l4.579,0" style="fill:none;stroke:#FDDEA2;stroke-width:1px;stroke-linecap:round;stroke-linejoin:round;stroke-miterlimit:1.5;"/>
      <path d="M31.102,225.279l4.579,0" style="fill:none;stroke:#FDDEA2;stroke-width:1px;stroke-linecap:round;stroke-linejoin:round;stroke-miterlimit:1.5;"/>
      <path d="M33.302,227.743l0,-4.579" style="fill:none;stroke:#FDDEA2;stroke-width:1px;stroke-linecap:round;stroke-linejoin:round;stroke-miterlimit:1.5;"/>
      <path d="M34.201,222.075c0.946,-1.706 1.442,-3.624 1.442,-5.575c0,-6.347 -5.153,-11.5 -11.5,-11.5c-6.347,0 -11.5,5.153 -11.5,11.5c0,2.019 0.531,4.002 1.541,5.75l9.959,-5.75l10.058,5.575Z" style="fill:none;stroke:#FDDEA2;stroke-width:1px;stroke-linecap:round;stroke-linejoin:round;stroke-miterlimit:1.5;"/>
    </g>
    <path d="M24.143,242l0,-4" style="fill:none;stroke:#FDDEA2;stroke-width:1px;stroke-linecap:round;stroke-linejoin:round;stroke-miterlimit:1.5;"/>
    <path d="M24.143,102l0,-4" style="fill:none;stroke:#FDDEA2;stroke-width:1px;stroke-linecap:round;stroke-linejoin:round;stroke-miterlimit:1.5;"/>
    <path d="M66.143,96l0,-4" style="fill:none;stroke:#FDDEA2;stroke-width:1px;stroke-linecap:round;stroke-linejoin:round;stroke-miterlimit:1.5;"/>
    <path d="M66.143,216l0,-4" style="fill:none;stroke:#FDDEA2;stroke-width:1px;stroke-linecap:round;stroke-linejoin:round;stroke-miterlimit:1.5;"/>
  </g>
</svg>