<svg width="150px" height="380px" version="1.1" xmlns="http://www.w3.org/2000/svg" xmlns:xlink="http://www.w3.org/1999/xlink" xml:space="preserve" xmlns:serif="http://www.serif.com/" style="fill-rule:evenodd;clip-rule:evenodd;stroke-linecap:round;stroke-miterlimit:10;">
  <defs>
    <linearGradient id="_Linear1" x1="0" y1="0" x2="1" y2="0" gradientUnits="userSpaceOnUse" gradientTransform="matrix(0.007008,-37.8989,37.8989,0.007008,75.2834,112.195)">
      <stop offset="0" style="stop-color:#401B5C;stop-opacity:1"/>
      <stop offset="1" style="stop-color:#401B5C;stop-opacity:1"/>
    </linearGradient>
    <linearGradient id="_Linear2" x1="0" y1="0" x2="1" y2="0" gradientUnits="userSpaceOnUse" gradientTransform="matrix(-4.88,-92.58,92.58,-4.88,277.54,345.91)">
      <stop offset="0" style="stop-color:#401B5C;stop-opacity:1"/>
      <stop offset="1" style="stop-color:#401B5C;stop-opacity:1"/>
    </linearGradient>
    <linearGradient id="_Linear3" x1="0" y1="0" x2="1" y2="0" gradientUnits="userSpaceOnUse" gradientTransform="matrix(-4.75,94.86,-94.86,-4.75,277.54,158.47)">
      <stop offset="0" style="stop-color:#401B5C;stop-opacity:1"/>
      <stop offset="1" style="stop-color:#401B5C;stop-opacity:1"/>
    </linearGradient>
    <linearGradient id="_Linear4" x1="0" y1="0" x2="1" y2="0" gradientUnits="userSpaceOnUse" gradientTransform="matrix(1.15392e-16,-1.8845,1.8845,1.15392e-16,56.519,1.9362)">
      <stop offset="0" style="stop-color:#401B5C;stop-opacity:1"/>
      <stop offset="1" style="stop-color:#401B5C;stop-opacity:1"/>
    </linearGradient>
  </defs>
  <g id="Panel">
    <g>
      <rect x="0" y="0" width="150" height="380" style="fill:url(#_Linear1);"/>
      <rect x="0" y="253.33" width="150" height="126.67" style="fill:url(#_Linear2);"/>
      <rect x="0" y="126.67" width="150" height="126.67" style="fill:url(#_Linear3);"/>
      <rect x="0" y="-0" width="150" height="380" style="fill:#103550;fill-opacity:0.1;"/>
      <rect x="0" y="0" width="150" height="2" style="fill:url(#_Linear4);"/>
    </g>
    <g>
      <path d="M63.2,363.5l3.443,10.383c0.322,0.968 0.909,1.451 1.756,1.451c0.835,0 1.413,-0.476 1.736,-1.435l3.461,-10.398l-2.66,-0l-2.574,8.318l-2.49,-8.318l-2.672,-0.001Zm10.598,0l-0,8.793c-0,0.736 0.078,1.265 0.234,1.588c0.423,0.881 1.214,1.32 2.373,1.32l3.243,0c1.126,0 1.912,-0.429 2.357,-1.287c0.168,-0.324 0.25,-0.87 0.25,-1.639l0,-8.775l-2.506,-0l0,8.658l-0.018,0.084c-0.056,0.29 -0.34,0.436 -0.853,0.436l-1.705,-0c-0.535,-0 -0.826,-0.157 -0.87,-0.469l0,-8.709l-2.505,-0Zm9.611,-0l0,8.842c0,0.914 0.19,1.598 0.569,2.049c0.378,0.452 1.019,0.717 1.922,0.795c0.123,0.011 0.268,0.015 0.435,0.015l4.664,0l0.016,-2.523l-4.463,-0c-0.424,-0 -0.634,-0.178 -0.634,-0.535l-0,-8.643l-2.509,0Zm7.69,0l-0,2.525l2.49,0l-0,9.176l2.508,0l-0,-9.176l2.523,0l0,-2.525l-7.521,0Z" style="fill:#666;fill-rule:nonzero;"/>
      <path d="M59.6,369.42c-0,-4.509 -3.655,-8.165 -8.164,-8.165c-4.509,0 -8.165,3.656 -8.165,8.165c-0,4.509 3.656,8.165 8.165,8.165c4.509,0 8.164,-3.656 8.164,-8.165Z" style="fill:#757575;fill-rule:nonzero;stroke:#353535;stroke-width:0.61px;"/>
      <g>
        <path d="M49.62,374.393l0.553,-0.89l-1.064,-2.393l-2.216,-2.284l0.46,3.101l0.597,1.28l0.833,1.263l0.837,-0.077Z" style="fill:#2b2b2b;fill-rule:nonzero;"/>
        <path d="M53.35,374.403l-0.553,-0.891l1.064,-2.393l2.216,-2.284l-0.46,3.101l-0.597,1.28l-0.833,1.264l-0.837,-0.077Z" style="fill:#401B5C;fill-rule:nonzero;"/>
        <path d="M48.94,363.363l2.584,-0.661l-0,13.448l-1.349,-2.651l-1.061,-2.385l-1.022,-0.581l-2.052,-2.921l-0.057,-0.775l1.148,-2.067l1.809,-1.407Z" style="fill:#424242;fill-rule:nonzero;"/>
        <path d="M54.1,363.363l-2.584,-0.66l-0,13.448l1.35,-2.651l1.06,-2.385l1.023,-0.581l2.051,-2.921l0.058,-0.775l-1.149,-2.068l-1.809,-1.407Z" style="fill:#333;fill-rule:nonzero;"/>
        <path d="M49.8,369.243l1.723,-1.685l-0,1.23l-1.723,1.718l-0,-1.263" style="fill:#4c4c4c;fill-rule:nonzero;"/>
        <path d="M51.52,368.783l-1.723,1.718l0.377,3.004l1.346,2.643l-0,-7.365Z" style="fill:#5b5b5b;fill-rule:nonzero;"/>
        <path d="M51.52,376.153l-1.346,-2.643l1.346,-0.635l-0,3.278Z" style="fill:#333;fill-rule:nonzero;"/>
        <path d="M49.8,370.503l-0,-1.264l-1.249,-1.579l-1.477,-1.19l-0.001,0.932l0.775,1.823l1.952,1.278Z" style="fill:#FDDEA2;fill-rule:nonzero;"/>
        <path d="M53.24,369.243l-1.722,-1.684l-0,1.23l1.722,1.718l-0,-1.264" style="fill:#2d2d2d;fill-rule:nonzero;"/>
        <path d="M51.52,368.783l1.722,1.718l-0.376,3.004l-1.347,2.643l0.001,-7.365Z" style="fill:#353535;fill-rule:nonzero;"/>
        <path d="M51.52,376.153l1.347,-2.643l-1.346,-0.635l-0.001,3.278Z" style="fill:#401B5C;fill-rule:nonzero;"/>
        <path d="M53.24,370.503l-0,-1.264l1.249,-1.579l1.478,-1.19l0.001,0.932l-0.775,1.823l-1.953,1.278Z" style="fill:#FDDEA2;fill-rule:nonzero;"/>
        <path d="M48.95,363.343l2.566,4.216l-0.005,-4.87" style="fill:#383838;fill-rule:nonzero;"/>
        <path d="M54.08,363.343l-2.566,4.215l0.006,-4.87" style="fill:#2d2d2d;fill-rule:nonzero;"/>
        <path d="M49.11,371.113l0.688,-0.61l0.375,3.006l-1.063,-2.396Z" style="fill:#333;fill-rule:nonzero;"/>
        <path d="M53.93,371.133l-0.688,-0.61l-0.375,3.006l1.063,-2.396Z" style="fill:#1c1c1c;fill-rule:nonzero;"/>
      </g>
    </g>
    <path d="M124.63,313.28c-5.359,-0 -9.723,4.364 -9.723,9.723l0,25.455c0,5.359 4.364,9.72 9.723,9.72l10.412,0c5.36,0 9.721,-4.361 9.721,-9.72l-0,-25.455c-0,-5.359 -4.361,-9.723 -9.721,-9.723l-10.412,-0Z" style="fill:none;fill-rule:nonzero;stroke:#FDDEA2;stroke-width:1.2px;stroke-linecap:butt;"/>
    <path d="M124.75,105.98c0,0 5.366,13.802 5.366,29.327c-0,17.368 -5.366,31.096 -5.366,31.096" style="fill:none;stroke:#505050;stroke-width:1.2px;"/>
    <path d="M76.001,46.064c-4.145,0 -8.291,1.407 -11.645,4.221c-6.706,5.627 -8.42,15.35 -4.043,22.932c0.392,0.722 1.469,0.101 1.039,-0.6c-4.087,-7.08 -2.486,-16.157 3.776,-21.412c6.261,-5.255 15.481,-5.255 21.743,0c6.262,5.255 7.863,14.332 3.776,21.412c-0.43,0.701 0.647,1.322 1.039,0.6c4.377,-7.582 2.663,-17.304 -4.043,-22.932c-3.353,-2.814 -7.497,-4.221 -11.642,-4.221l0,0Zm-13.6,29.889c-1.797,0 -3.268,1.468 -3.268,3.266c0,1.797 1.471,3.267 3.268,3.267c1.797,0 3.266,-1.47 3.266,-3.267c-0,-1.798 -1.469,-3.266 -3.266,-3.266Zm27.195,0c-1.797,0 -3.268,1.468 -3.268,3.266c0,1.797 1.471,3.267 3.268,3.267c1.797,0 3.267,-1.47 3.267,-3.267c0.001,-1.798 -1.47,-3.266 -3.267,-3.266Zm-27.195,1.199c1.149,0 2.066,0.918 2.066,2.067c0,1.148 -0.917,2.068 -2.066,2.068c-1.149,0 -2.068,-0.92 -2.068,-2.068c-0,-1.149 0.919,-2.067 2.068,-2.067Z" style="fill:#FDDEA2;"/>
    <g>
      <path d="M28.877,60.052c-4.145,0 -8.292,1.407 -11.645,4.221c-6.706,5.627 -8.42,15.35 -4.043,22.932c0.392,0.722 1.469,0.101 1.039,-0.6c-4.087,-7.08 -2.486,-16.157 3.775,-21.412c6.262,-5.255 15.482,-5.255 21.744,0c6.262,5.255 7.863,14.332 3.776,21.412c-0.43,0.701 0.647,1.322 1.039,0.6c4.377,-7.582 2.663,-17.304 -4.043,-22.932c-3.353,-2.814 -7.498,-4.221 -11.642,-4.221l-0,-0Zm-13.6,29.889c-1.797,0 -3.268,1.468 -3.268,3.266c0,1.797 1.471,3.267 3.268,3.267c1.797,0 3.266,-1.47 3.266,-3.267c-0,-1.798 -1.469,-3.266 -3.266,-3.266Zm27.195,0c-1.797,0 -3.268,1.468 -3.268,3.266c0,1.797 1.471,3.267 3.268,3.267c1.797,0 3.267,-1.47 3.267,-3.267c0,-1.798 -1.47,-3.266 -3.267,-3.266Zm-27.195,1.199c1.149,0 2.066,0.918 2.066,2.067c0,1.148 -0.917,2.068 -2.066,2.068c-1.149,0 -2.068,-0.92 -2.068,-2.068c-0,-1.149 0.919,-2.067 2.068,-2.067Z" style="fill:#FDDEA2;"/>
      <path d="M121.12,60.052c-4.145,0 -8.292,1.407 -11.645,4.221c-6.706,5.627 -8.42,15.35 -4.043,22.932c0.392,0.722 1.469,0.101 1.039,-0.6c-4.087,-7.08 -2.486,-16.157 3.775,-21.412c6.262,-5.255 15.482,-5.255 21.744,0c6.262,5.255 7.863,14.332 3.776,21.412c-0.43,0.701 0.647,1.322 1.039,0.6c4.377,-7.582 2.663,-17.304 -4.043,-22.932c-3.353,-2.814 -7.498,-4.221 -11.642,-4.221l-0,-0Zm-13.6,29.889c-1.797,0 -3.268,1.468 -3.268,3.266c0,1.797 1.471,3.267 3.268,3.267c1.797,0 3.266,-1.47 3.266,-3.267c-0,-1.798 -1.469,-3.266 -3.266,-3.266Zm27.195,0c-1.797,0 -3.268,1.468 -3.268,3.266c0,1.797 1.471,3.267 3.268,3.267c1.797,0 3.267,-1.47 3.267,-3.267c0,-1.798 -1.47,-3.266 -3.267,-3.266Zm-27.195,1.199c1.149,0 2.066,0.918 2.066,2.067c0,1.148 -0.917,2.068 -2.066,2.068c-1.149,0 -2.068,-0.92 -2.068,-2.068c-0,-1.149 0.919,-2.067 2.068,-2.067Z" style="fill:#FDDEA2;"/>
    </g>
    <path d="M23.972,116.73c-4.145,0 -8.291,1.407 -11.645,4.221c-6.706,5.627 -8.42,15.35 -4.043,22.932c0.392,0.722 1.469,0.101 1.039,-0.6c-4.087,-7.08 -2.486,-16.157 3.775,-21.412c6.262,-5.255 15.482,-5.255 21.744,0c6.262,5.255 7.863,14.332 3.776,21.412c-0.43,0.701 0.647,1.322 1.039,0.6c4.377,-7.582 2.663,-17.304 -4.043,-22.932c-3.353,-2.814 -7.498,-4.221 -11.642,-4.221l-0,0Zm-13.6,29.889c-1.797,0 -3.268,1.468 -3.268,3.266c0,1.797 1.471,3.267 3.268,3.267c1.797,0 3.266,-1.47 3.266,-3.267c-0,-1.798 -1.469,-3.266 -3.266,-3.266Zm27.195,0c-1.797,0 -3.268,1.468 -3.268,3.266c0,1.797 1.471,3.267 3.268,3.267c1.797,0 3.267,-1.47 3.267,-3.267c0,-1.798 -1.47,-3.266 -3.267,-3.266Zm-27.195,1.199c1.149,0 2.066,0.918 2.066,2.067c0,1.148 -0.917,2.068 -2.066,2.068c-1.149,-0 -2.068,-0.92 -2.068,-2.068c-0,-1.149 0.919,-2.067 2.068,-2.067Z" style="fill:#FDDEA2;"/>
    <path d="M127.01,116.73c-4.145,0 -8.291,1.407 -11.645,4.221c-6.706,5.627 -8.42,15.35 -4.043,22.932c0.392,0.722 1.469,0.101 1.039,-0.6c-4.087,-7.08 -2.486,-16.157 3.776,-21.412c6.261,-5.255 15.482,-5.255 21.744,0c6.261,5.255 7.862,14.332 3.775,21.412c-0.43,0.701 0.647,1.322 1.039,0.6c4.377,-7.582 2.663,-17.304 -4.043,-22.932c-3.353,-2.814 -7.498,-4.221 -11.642,-4.221l0,0Zm-13.6,29.889c-1.797,0 -3.268,1.468 -3.268,3.266c0,1.797 1.471,3.267 3.268,3.267c1.797,0 3.266,-1.47 3.266,-3.267c-0,-1.798 -1.469,-3.266 -3.266,-3.266Zm27.195,0c-1.797,0 -3.268,1.468 -3.268,3.266c0,1.797 1.471,3.267 3.268,3.267c1.797,0 3.268,-1.47 3.268,-3.267c-0,-1.798 -1.471,-3.266 -3.268,-3.266Zm-27.195,1.199c1.149,0 2.066,0.918 2.066,2.067c0,1.148 -0.917,2.068 -2.066,2.068c-1.149,-0 -2.068,-0.92 -2.068,-2.068c-0,-1.149 0.919,-2.067 2.068,-2.067Z" style="fill:#FDDEA2;"/>
    <path d="M75.581,99.499c-0.329,0.006 -0.595,0.281 -0.59,0.609l0,2.125c-5.336,0.14 -10.637,2.003 -14.955,5.627c-8.983,7.539 -11.281,20.566 -5.414,30.723c0.105,0.194 0.308,0.315 0.528,0.315c0.329,-0 0.6,-0.271 0.6,-0.601c-0,-0.11 -0.031,-0.219 -0.089,-0.313c-5.576,-9.655 -3.393,-22.037 5.147,-29.203c4.097,-3.438 9.123,-5.209 14.186,-5.348l0.041,23.023c-0.001,0.008 -0.001,0.015 -0.001,0.023c0,0.329 0.271,0.6 0.6,0.6c0.33,-0 0.6,-0.271 0.6,-0.6c0,-0.009 0,-0.017 -0,-0.025l-0.041,-23.025c5.09,0.122 10.149,1.895 14.268,5.352c8.543,7.166 10.723,19.548 5.15,29.203c-0.053,0.091 -0.08,0.195 -0.08,0.3c-0,0.33 0.271,0.601 0.6,0.601c0.215,0 0.414,-0.115 0.521,-0.302c5.863,-10.157 3.568,-23.184 -5.42,-30.723c-4.341,-3.643 -9.675,-5.509 -15.041,-5.631l0,-2.123c0,-0.002 0,-0.005 0,-0.007c0,-0.329 -0.27,-0.6 -0.6,-0.6l-0.01,0Zm19.768,40.668c-0.329,0.007 -0.594,0.282 -0.588,0.611l0.022,3.963l-4.006,0.018c-0.327,0.003 -0.595,0.273 -0.595,0.6c-0,0.33 0.271,0.601 0.6,0.601c0.002,0 0.004,0 0.005,0l4.004,-0.019l0.021,4.054c-0,0.007 -0,0.013 -0,0.019c-0,0.33 0.271,0.6 0.6,0.6c0.329,0 0.6,-0.27 0.6,-0.6c-0,-0.009 -0,-0.018 -0.001,-0.027l-0.021,-4.051l4.01,-0.019c0.006,0 0.012,0 0.018,0c0.329,0 0.6,-0.271 0.6,-0.6c0,-0.329 -0.271,-0.6 -0.6,-0.6c-0.009,0 -0.019,0 -0.028,0.001l-4.008,0.017l-0.022,-3.964c0,-0.002 0,-0.003 0,-0.004c0,-0.329 -0.271,-0.6 -0.6,-0.6c-0.003,-0 -0.007,-0 -0.011,0l0,0Zm-33.621,4.289l-9.213,0.043c-0.006,-0 -0.012,-0 -0.018,-0c-0.329,-0 -0.6,0.271 -0.6,0.6c0,0.329 0.271,0.6 0.6,0.6c0.009,-0 0.019,-0 0.028,-0.001l9.213,-0.043c0.006,0 0.012,0.001 0.018,0.001c0.329,-0 0.6,-0.271 0.6,-0.6c0,-0.33 -0.271,-0.601 -0.6,-0.601c-0.009,0 -0.019,0.001 -0.028,0.001Z" style="fill:#FDDEA2;"/>
    <g>
      <path d="M109.72,166.45c-5.706,-0 -11.412,1.934 -16.027,5.805c-9.229,7.745 -11.587,21.128 -5.564,31.564c0.391,0.722 1.468,0.101 1.039,-0.6c-5.733,-9.934 -3.488,-22.672 5.297,-30.045c8.785,-7.369 21.725,-7.369 30.51,0c8.785,7.373 11.03,20.111 5.296,30.045c-0.429,0.701 0.648,1.322 1.039,0.6c6.023,-10.436 3.666,-23.819 -5.564,-31.564c-4.615,-3.871 -10.32,-5.805 -16.025,-5.805l-0.001,-0Zm-18.883,41.52c-2.371,-0 -4.307,1.936 -4.307,4.307c0,2.371 1.936,4.304 4.307,4.304c2.371,0 4.307,-1.933 4.307,-4.304c-0,-2.371 -1.936,-4.307 -4.307,-4.307Zm37.766,-0c-2.371,-0 -4.305,1.934 -4.305,4.305c0,2.371 1.934,4.306 4.305,4.306c2.371,0 4.307,-1.935 4.307,-4.306c-0,-2.371 -1.936,-4.305 -4.307,-4.305Zm-37.766,1.199c1.723,0 3.105,1.385 3.105,3.108c0,1.722 -1.382,3.105 -3.105,3.105c-1.722,0 -3.105,-1.383 -3.105,-3.105c-0,-1.723 1.383,-3.108 3.105,-3.108Z" style="fill:#FDDEA2;fill-rule:nonzero;"/>
      <path d="M40.282,166.45c-5.706,-0 -11.412,1.934 -16.027,5.805c-9.229,7.745 -11.587,21.128 -5.564,31.564c0.391,0.722 1.468,0.101 1.039,-0.6c-5.733,-9.934 -3.488,-22.672 5.296,-30.045c8.786,-7.369 21.725,-7.369 30.511,0c8.785,7.373 11.029,20.111 5.296,30.045c-0.429,0.701 0.648,1.322 1.039,0.6c6.023,-10.436 3.666,-23.819 -5.564,-31.564c-4.615,-3.871 -10.32,-5.805 -16.025,-5.805l-0.001,-0Zm-18.883,41.52c-2.371,-0 -4.307,1.936 -4.307,4.307c0,2.371 1.936,4.304 4.307,4.304c2.371,0 4.307,-1.933 4.307,-4.304c-0,-2.371 -1.936,-4.307 -4.307,-4.307Zm37.766,-0c-2.371,-0 -4.305,1.934 -4.305,4.305c0,2.371 1.934,4.306 4.305,4.306c2.371,0 4.307,-1.935 4.307,-4.306c-0,-2.371 -1.936,-4.305 -4.307,-4.305Zm-37.766,1.199c1.722,0 3.105,1.385 3.105,3.108c0,1.722 -1.383,3.105 -3.105,3.105c-1.723,0 -3.106,-1.383 -3.106,-3.105c0,-1.723 1.383,-3.108 3.106,-3.108Z" style="fill:#FDDEA2;fill-rule:nonzero;"/>
      <path d="M12.732,346c-0.486,0 -0.925,0.077 -1.32,0.232c-0.394,0.155 -0.732,0.372 -1.012,0.649c-0.28,0.278 -0.496,0.612 -0.648,1.004c-0.152,0.392 -0.229,0.824 -0.229,1.293c0,0.475 0.077,0.909 0.232,1.301c0.154,0.392 0.372,0.727 0.649,1.007c0.277,0.28 0.61,0.498 0.996,0.653c0.387,0.154 0.815,0.232 1.285,0.232c0.341,0 0.666,-0.044 0.975,-0.129c0.31,-0.086 0.594,-0.21 0.853,-0.373c0.258,-0.162 0.484,-0.364 0.676,-0.607c0.192,-0.243 0.345,-0.521 0.457,-0.836c0.08,-0.224 0.134,-0.468 0.16,-0.729c0.027,-0.262 0.039,-0.553 0.039,-0.873l-3.113,0l0,1.219l1.289,0c-0.027,0.176 -0.077,0.324 -0.152,0.447c-0.074,0.123 -0.168,0.222 -0.283,0.299c-0.114,0.077 -0.245,0.133 -0.389,0.168c-0.144,0.035 -0.294,0.053 -0.449,0.053c-0.261,-0 -0.491,-0.043 -0.688,-0.131c-0.198,-0.088 -0.362,-0.213 -0.496,-0.373c-0.133,-0.16 -0.234,-0.35 -0.301,-0.568c-0.066,-0.219 -0.099,-0.457 -0.099,-0.713c-0,-0.282 0.038,-0.539 0.115,-0.768c0.078,-0.229 0.185,-0.425 0.322,-0.588c0.136,-0.163 0.3,-0.289 0.492,-0.377c0.192,-0.088 0.404,-0.131 0.639,-0.131c0.283,0 0.535,0.071 0.756,0.215c0.222,0.144 0.402,0.382 0.541,0.713l1.488,-0.615c-0.277,-0.571 -0.652,-0.994 -1.127,-1.266c-0.475,-0.272 -1.028,-0.408 -1.658,-0.408l0,-0Zm5.604,0.168l-2.299,6.035l1.674,0l0.359,-1.049l2.242,0l0.359,1.049l1.674,0l-2.297,-6.035l-1.713,-0l0.001,-0Zm3.865,-0l-0,1.328l1.287,0l-0,4.707l1.57,0l0,-4.707l1.289,0l0,-1.328l-4.146,-0Zm4.842,-0l-0,6.035l3.433,0l0,-1.33l-1.865,0l-0,-1.039l1.76,-0l-0,-1.328l-1.76,-0l-0,-1.01l1.865,0l0,-1.328l-3.433,-0Zm-7.852,1.785l0.705,2.01l-1.41,-0l0.705,-2.01l-0,0Z" style="fill:#FDDEA2;fill-rule:nonzero;"/>
      <path d="M45.955,346l0,1.328l1.289,0l0,4.707l1.568,0l0,-4.707l1.29,0l-0,-1.328l-4.147,0Zm4.842,0l-0,3.496c-0,0.94 0.216,1.627 0.648,2.059c0.432,0.432 1.095,0.648 1.987,0.648c0.891,0 1.549,-0.216 1.978,-0.648c0.43,-0.432 0.647,-1.119 0.647,-2.059l-0,-3.496l-1.563,0l0,3.281c0,0.176 -0.007,0.357 -0.02,0.541c-0.013,0.184 -0.054,0.35 -0.123,0.5c-0.069,0.149 -0.175,0.271 -0.316,0.363c-0.142,0.094 -0.342,0.141 -0.603,0.141c-0.262,0 -0.466,-0.048 -0.61,-0.141c-0.144,-0.093 -0.249,-0.214 -0.316,-0.363c-0.067,-0.15 -0.106,-0.316 -0.119,-0.5c-0.013,-0.184 -0.022,-0.365 -0.022,-0.541l0,-3.281l-1.568,0l-0,0Zm6.523,0l0,6.035l1.569,0l-0,-3.689l2.896,3.689l1.563,0l-0,-6.035l-1.563,0l0,3.689l-2.896,-3.689l-1.569,0Zm7.291,0l0,6.035l3.434,0l-0,-1.33l-1.865,0l-0,-1.039l1.761,-0l0,-1.328l-1.761,-0l-0,-1.01l1.865,0l-0,-1.328l-3.434,-0Z" style="fill:#FDDEA2;fill-rule:nonzero;"/>
      <g id="text9293-4">
        <path d="M122.585,348.82c0,0.24 0.045,0.461 0.136,0.664c0.091,0.203 0.213,0.379 0.368,0.528c0.155,0.15 0.335,0.266 0.54,0.348c0.206,0.083 0.423,0.124 0.653,0.124c0.229,0 0.447,-0.041 0.652,-0.124c0.205,-0.082 0.387,-0.198 0.544,-0.348c0.158,-0.149 0.282,-0.325 0.372,-0.528c0.091,-0.203 0.136,-0.424 0.136,-0.664c0,-0.24 -0.045,-0.462 -0.136,-0.665c-0.09,-0.202 -0.214,-0.378 -0.372,-0.528c-0.157,-0.149 -0.339,-0.265 -0.544,-0.348c-0.205,-0.083 -0.423,-0.124 -0.652,-0.124c-0.23,0 -0.447,0.041 -0.653,0.124c-0.205,0.083 -0.385,0.199 -0.54,0.348c-0.155,0.15 -0.277,0.326 -0.368,0.528c-0.091,0.203 -0.136,0.425 -0.136,0.665Zm-1.641,0c0,-0.449 0.083,-0.866 0.248,-1.253c0.166,-0.387 0.395,-0.724 0.689,-1.012c0.293,-0.288 0.644,-0.514 1.052,-0.677c0.408,-0.162 0.858,-0.244 1.349,-0.244c0.485,0 0.933,0.082 1.344,0.244c0.411,0.163 0.765,0.389 1.061,0.677c0.296,0.288 0.527,0.625 0.692,1.012c0.165,0.387 0.248,0.804 0.248,1.253c0,0.448 -0.083,0.865 -0.248,1.252c-0.165,0.387 -0.396,0.724 -0.692,1.013c-0.296,0.288 -0.65,0.513 -1.061,0.676c-0.411,0.163 -0.859,0.244 -1.344,0.244c-0.491,0 -0.941,-0.081 -1.349,-0.244c-0.408,-0.163 -0.759,-0.388 -1.052,-0.676c-0.294,-0.289 -0.523,-0.626 -0.689,-1.013c-0.165,-0.387 -0.248,-0.804 -0.248,-1.252Z" style="fill:#FDDEA2;fill-rule:nonzero;"/>
        <path d="M130.195,345.8l0,3.282c0,0.176 0.007,0.356 0.02,0.54c0.013,0.184 0.054,0.351 0.12,0.5c0.067,0.15 0.172,0.271 0.316,0.364c0.144,0.094 0.347,0.14 0.609,0.14c0.261,0 0.462,-0.046 0.604,-0.14c0.141,-0.093 0.247,-0.214 0.316,-0.364c0.069,-0.149 0.111,-0.316 0.124,-0.5c0.013,-0.184 0.02,-0.364 0.02,-0.54l0,-3.282l1.561,0l0,3.498c0,0.939 -0.215,1.625 -0.645,2.057c-0.429,0.432 -1.089,0.648 -1.98,0.648c-0.891,0 -1.553,-0.216 -1.985,-0.648c-0.432,-0.432 -0.649,-1.118 -0.649,-2.057l0,-3.498l1.569,0Z" style="fill:#FDDEA2;fill-rule:nonzero;"/>
        <path d="M137.435,347.13l0,4.706l-1.568,0l0,-4.706l-1.289,0l0,-1.329l4.146,0l0,1.329l-1.289,0Z" style="fill:#FDDEA2;fill-rule:nonzero;"/>
      </g>
      <path d="M51.339,37.714l0,-7.351l1.378,0l0,3.203c0.354,-0.72 0.911,-1.08 1.671,-1.08c0.615,0 1.098,0.225 1.451,0.675c0.352,0.45 0.528,1.069 0.528,1.858c0,0.853 -0.199,1.535 -0.596,2.046c-0.397,0.51 -0.928,0.766 -1.592,0.766c-0.571,0 -1.058,-0.211 -1.462,-0.634l-0.256,0.517l-1.122,0Zm1.378,-1.336c0.335,0.373 0.692,0.559 1.071,0.559c0.338,0 0.608,-0.164 0.81,-0.491c0.202,-0.328 0.302,-0.765 0.302,-1.311c0,-1.046 -0.336,-1.569 -1.01,-1.569c-0.406,0 -0.797,0.262 -1.173,0.787l0,2.025Z" style="fill:#FDDEA2;fill-rule:nonzero;"/>
      <path d="M60.161,37.165c-0.459,0.444 -0.951,0.666 -1.476,0.666c-0.447,0 -0.81,-0.137 -1.089,-0.41c-0.279,-0.273 -0.419,-0.627 -0.419,-1.062c0,-0.564 0.226,-1 0.677,-1.305c0.452,-0.306 1.098,-0.459 1.939,-0.459l0.368,0l0,-0.465c0,-0.531 -0.302,-0.797 -0.908,-0.797c-0.537,0 -1.08,0.152 -1.629,0.457l0,-0.95c0.624,-0.236 1.241,-0.354 1.853,-0.354c1.338,0 2.006,0.532 2.006,1.597l0,2.263c0,0.4 0.129,0.6 0.387,0.6c0.046,0 0.107,-0.006 0.181,-0.019l0.033,0.773c-0.292,0.087 -0.549,0.131 -0.773,0.131c-0.565,0 -0.928,-0.222 -1.089,-0.666l-0.061,-0Zm-0,-0.74l-0,-1.039l-0.326,-0c-0.89,-0 -1.336,0.28 -1.336,0.838c-0,0.19 0.065,0.349 0.193,0.478c0.129,0.128 0.288,0.193 0.478,0.193c0.322,-0 0.653,-0.157 0.991,-0.47Z" style="fill:#FDDEA2;fill-rule:nonzero;"/>
      <path d="M63.127,37.551l0,-1.01c0.683,0.286 1.266,0.428 1.75,0.428c0.565,0 0.848,-0.192 0.848,-0.577c0,-0.248 -0.233,-0.465 -0.699,-0.652l-0.465,-0.186c-0.506,-0.205 -0.868,-0.425 -1.085,-0.661c-0.217,-0.236 -0.326,-0.528 -0.326,-0.875c0,-0.484 0.185,-0.861 0.554,-1.129c0.369,-0.269 0.886,-0.403 1.55,-0.403c0.416,0 0.911,0.061 1.485,0.182l0,0.968c-0.552,-0.192 -1.01,-0.289 -1.373,-0.289c-0.571,0 -0.857,0.177 -0.857,0.531c0,0.233 0.212,0.43 0.634,0.591l0.4,0.154c0.599,0.227 1.016,0.456 1.25,0.689c0.234,0.233 0.351,0.532 0.351,0.899c0,0.481 -0.199,0.871 -0.598,1.17c-0.399,0.3 -0.918,0.45 -1.557,0.45c-0.615,0 -1.235,-0.093 -1.862,-0.28Z" style="fill:#FDDEA2;fill-rule:nonzero;"/>
      <path d="M68.518,37.551l0,-1.01c0.683,0.286 1.266,0.428 1.75,0.428c0.565,0 0.848,-0.192 0.848,-0.577c0,-0.248 -0.233,-0.465 -0.699,-0.652l-0.465,-0.186c-0.506,-0.205 -0.868,-0.425 -1.085,-0.661c-0.217,-0.236 -0.326,-0.528 -0.326,-0.875c0,-0.484 0.185,-0.861 0.554,-1.129c0.369,-0.269 0.886,-0.403 1.55,-0.403c0.416,0 0.911,0.061 1.486,0.182l0,0.968c-0.553,-0.192 -1.011,-0.289 -1.374,-0.289c-0.571,0 -0.856,0.177 -0.856,0.531c0,0.233 0.211,0.43 0.633,0.591l0.4,0.154c0.599,0.227 1.016,0.456 1.25,0.689c0.234,0.233 0.352,0.532 0.352,0.899c0,0.481 -0.2,0.871 -0.599,1.17c-0.399,0.3 -0.918,0.45 -1.557,0.45c-0.614,0 -1.235,-0.093 -1.862,-0.28Z" style="fill:#FDDEA2;fill-rule:nonzero;"/>
      <path d="M80.403,37.714l0,-0.963c-0.353,0.72 -0.911,1.08 -1.671,1.08c-0.614,0 -1.097,-0.225 -1.448,-0.675c-0.351,-0.45 -0.526,-1.07 -0.526,-1.858c0,-0.857 0.198,-1.539 0.594,-2.048c0.395,-0.509 0.927,-0.764 1.594,-0.764c0.534,0 1.02,0.211 1.457,0.633l0,-2.756l1.383,0l0,7.351l-1.383,0Zm0,-3.775c-0.332,-0.373 -0.687,-0.559 -1.066,-0.559c-0.338,0 -0.608,0.163 -0.81,0.489c-0.202,0.326 -0.302,0.763 -0.302,1.313c0,1.046 0.335,1.569 1.005,1.569c0.41,0 0.801,-0.263 1.173,-0.787l0,-2.025Z" style="fill:#FDDEA2;fill-rule:nonzero;"/>
      <path d="M83.504,37.714l0,-5.111l1.378,0l0,0.963c0.357,-0.72 0.9,-1.08 1.629,-1.08c0.087,0 0.173,0.009 0.256,0.028l0,1.229c-0.195,-0.071 -0.377,-0.107 -0.544,-0.107c-0.55,0 -0.997,0.278 -1.341,0.833l0,3.245l-1.378,0Z" style="fill:#FDDEA2;fill-rule:nonzero;"/>
      <path d="M90.999,37.714l0,-0.963c-0.447,0.72 -1.027,1.08 -1.741,1.08c-0.456,0 -0.816,-0.145 -1.08,-0.433c-0.264,-0.289 -0.396,-0.683 -0.396,-1.183l0,-3.612l1.378,0l0,3.272c0,0.581 0.194,0.871 0.582,0.871c0.435,0 0.854,-0.309 1.257,-0.927l0,-3.216l1.378,0l0,5.111l-1.378,0Z" style="fill:#FDDEA2;fill-rule:nonzero;"/>
      <path d="M94.1,37.714l-0,-5.111l1.322,0l-0,0.963c0.403,-0.72 0.978,-1.08 1.723,-1.08c0.384,0 0.701,0.095 0.949,0.284c0.249,0.189 0.401,0.455 0.457,0.796c0.477,-0.72 1.055,-1.08 1.731,-1.08c0.935,0 1.402,0.515 1.402,1.546l-0,3.682l-1.322,0l-0,-3.231c-0,-0.605 -0.202,-0.907 -0.606,-0.907c-0.413,0 -0.814,0.297 -1.205,0.893l-0,3.245l-1.323,0l-0,-3.231c-0,-0.608 -0.203,-0.912 -0.61,-0.912c-0.406,0 -0.805,0.299 -1.196,0.898l-0,3.245l-1.322,-0Z" style="fill:#FDDEA2;fill-rule:nonzero;"/>
      <path d="M52.07,19.622l3.006,-3.912l3.045,0l-3.762,4.491l4.114,4.994l-3.195,0l-3.208,-4.114l0,4.114l-2.466,0l0,-9.485l2.466,0l0,3.912Z" style="fill:#FDDEA2;fill-rule:nonzero;"/>
      <path d="M59.567,25.195l0,-9.485l2.466,0l4.554,5.799l0,-5.799l2.453,0l0,9.485l-2.453,0l-4.554,-5.799l0,5.799l-2.466,0Z" style="fill:#FDDEA2;fill-rule:nonzero;"/>
      <path d="M73.292,20.452c0,0.378 0.071,0.726 0.214,1.045c0.142,0.318 0.335,0.595 0.579,0.83c0.243,0.235 0.526,0.417 0.849,0.547c0.323,0.13 0.664,0.195 1.025,0.195c0.361,0 0.702,-0.065 1.025,-0.195c0.323,-0.13 0.608,-0.312 0.856,-0.547c0.247,-0.235 0.442,-0.512 0.585,-0.83c0.142,-0.319 0.213,-0.667 0.213,-1.045c0,-0.377 -0.071,-0.725 -0.213,-1.044c-0.143,-0.318 -0.338,-0.595 -0.585,-0.83c-0.248,-0.235 -0.533,-0.417 -0.856,-0.547c-0.323,-0.13 -0.664,-0.195 -1.025,-0.195c-0.361,0 -0.702,0.065 -1.025,0.195c-0.323,0.13 -0.606,0.312 -0.849,0.547c-0.244,0.235 -0.437,0.512 -0.579,0.83c-0.143,0.319 -0.214,0.667 -0.214,1.044Zm-2.579,0c0,-0.704 0.13,-1.36 0.39,-1.968c0.26,-0.608 0.621,-1.139 1.082,-1.592c0.461,-0.453 1.013,-0.807 1.654,-1.063c0.642,-0.255 1.348,-0.383 2.12,-0.383c0.763,0 1.468,0.128 2.113,0.383c0.646,0.256 1.202,0.61 1.667,1.063c0.466,0.453 0.828,0.984 1.088,1.592c0.26,0.608 0.39,1.264 0.39,1.968c0,0.705 -0.13,1.361 -0.39,1.969c-0.26,0.608 -0.622,1.139 -1.088,1.591c-0.465,0.453 -1.021,0.808 -1.667,1.063c-0.645,0.256 -1.35,0.384 -2.113,0.384c-0.772,0 -1.478,-0.128 -2.12,-0.384c-0.641,-0.255 -1.193,-0.61 -1.654,-1.063c-0.461,-0.452 -0.822,-0.983 -1.082,-1.591c-0.26,-0.608 -0.39,-1.264 -0.39,-1.969Z" style="fill:#FDDEA2;fill-rule:nonzero;"/>
      <path d="M89.608,18.88c-0.57,-0.696 -1.275,-1.044 -2.113,-1.044c-0.369,0 -0.711,0.067 -1.026,0.201c-0.314,0.134 -0.585,0.317 -0.811,0.547c-0.226,0.231 -0.405,0.506 -0.535,0.824c-0.13,0.319 -0.195,0.663 -0.195,1.032c0,0.377 0.065,0.725 0.195,1.044c0.13,0.319 0.311,0.595 0.541,0.83c0.231,0.235 0.501,0.42 0.812,0.554c0.31,0.134 0.645,0.201 1.006,0.201c0.788,0 1.497,-0.335 2.126,-1.006l0,2.918l-0.251,0.088c-0.378,0.134 -0.73,0.233 -1.057,0.296c-0.327,0.063 -0.65,0.094 -0.969,0.094c-0.654,0 -1.281,-0.124 -1.881,-0.371c-0.599,-0.247 -1.128,-0.595 -1.585,-1.044c-0.457,-0.449 -0.824,-0.981 -1.1,-1.598c-0.277,-0.616 -0.415,-1.289 -0.415,-2.019c0,-0.729 0.136,-1.398 0.408,-2.006c0.273,-0.608 0.638,-1.132 1.095,-1.573c0.457,-0.44 0.987,-0.784 1.591,-1.031c0.604,-0.248 1.237,-0.371 1.9,-0.371c0.377,0 0.748,0.039 1.113,0.119c0.365,0.08 0.749,0.204 1.151,0.371l0,2.944Z" style="fill:#FDDEA2;fill-rule:nonzero;"/>
      <path d="M94.036,19.622l3.007,-3.912l3.044,0l-3.761,4.491l4.113,4.994l-3.195,0l-3.208,-4.114l0,4.114l-2.465,0l0,-9.485l2.465,0l0,3.912Z" style="fill:#FDDEA2;fill-rule:nonzero;"/>
      <path d="M24.043,153.95c-0.369,-0 -0.723,0.068 -1.059,0.205c-0.336,0.138 -0.629,0.329 -0.884,0.574c-0.254,0.245 -0.458,0.537 -0.61,0.875c-0.151,0.339 -0.226,0.711 -0.226,1.117c-0,0.407 0.076,0.781 0.23,1.123c0.154,0.343 0.357,0.64 0.611,0.889c0.255,0.25 0.55,0.445 0.883,0.582c0.334,0.138 0.683,0.207 1.047,0.207c0.177,0 0.357,-0.018 0.539,-0.053c0.182,-0.035 0.378,-0.089 0.588,-0.164l0.141,-0.048l-0,-1.625c-0.35,0.373 -0.745,0.56 -1.184,0.56c-0.201,0 -0.387,-0.038 -0.56,-0.113c-0.173,-0.075 -0.323,-0.176 -0.452,-0.307c-0.128,-0.131 -0.227,-0.286 -0.3,-0.463c-0.072,-0.177 -0.11,-0.37 -0.11,-0.58c0,-0.205 0.038,-0.397 0.11,-0.574c0.073,-0.177 0.171,-0.33 0.297,-0.459c0.126,-0.128 0.276,-0.23 0.451,-0.305c0.175,-0.075 0.367,-0.111 0.572,-0.111c0.467,0 0.859,0.193 1.176,0.58l-0,-1.637c-0.224,-0.093 -0.44,-0.162 -0.643,-0.207c-0.203,-0.044 -0.407,-0.066 -0.617,-0.066l0,-0Zm-12.033,0.146l0,5.278l2.029,-0c0.364,-0 0.703,-0.072 1.018,-0.217c0.315,-0.145 0.591,-0.337 0.826,-0.58c0.236,-0.243 0.42,-0.524 0.553,-0.844c0.133,-0.319 0.201,-0.653 0.201,-0.998c-0,-0.35 -0.068,-0.684 -0.203,-1.004c-0.135,-0.319 -0.321,-0.599 -0.557,-0.84c-0.235,-0.24 -0.511,-0.433 -0.826,-0.578c-0.315,-0.145 -0.653,-0.217 -1.012,-0.217l-2.029,0l0,0Zm5.502,0l0,5.278l3.002,-0l0,-1.162l-1.631,-0l0,-0.909l1.541,0l0,-1.162l-1.541,0l0,-0.882l1.631,-0l0,-1.163l-3.002,0Zm10.289,0l-2.008,5.278l1.463,-0l0.315,-0.916l1.959,-0l0.316,0.916l1.463,-0l-2.01,-5.278l-1.498,0Zm2.961,0l1.926,2.745l-0,2.533l1.371,-0l-0,-2.533l1.931,-2.745l-1.636,0l-0.973,1.442l-0.98,-1.442l-1.639,0l-0,0Zm-17.381,1.163l0.314,-0c0.233,-0 0.444,0.036 0.631,0.111c0.187,0.075 0.345,0.178 0.473,0.309c0.129,0.131 0.227,0.286 0.297,0.468c0.07,0.182 0.105,0.378 0.105,0.588c0,0.215 -0.033,0.413 -0.101,0.592c-0.067,0.18 -0.166,0.334 -0.295,0.465c-0.128,0.131 -0.286,0.233 -0.473,0.308c-0.187,0.075 -0.399,0.112 -0.637,0.112l-0.314,-0l-0,-2.953l-0,-0Zm15.17,0.398l0.615,1.758l-1.232,-0l0.617,-1.758l-0,0Z" style="fill:#FDDEA2;fill-rule:nonzero;"/>
      <path d="M18.883,95.914l0,5.277l2.205,0c0.28,0 0.532,-0.031 0.756,-0.097c0.224,-0.065 0.413,-0.162 0.57,-0.293c0.156,-0.13 0.277,-0.293 0.364,-0.485c0.086,-0.191 0.128,-0.41 0.128,-0.658c0,-0.158 -0.017,-0.307 -0.054,-0.447c-0.037,-0.14 -0.1,-0.267 -0.186,-0.379c-0.087,-0.112 -0.199,-0.204 -0.336,-0.281c-0.138,-0.077 -0.306,-0.134 -0.502,-0.172c0.196,-0.121 0.344,-0.271 0.44,-0.446c0.095,-0.175 0.142,-0.396 0.142,-0.662c0,-0.438 -0.127,-0.773 -0.379,-1.007c-0.252,-0.233 -0.62,-0.35 -1.105,-0.35l-2.043,-0l-0,0Zm4.844,-0l-0,5.277l3.002,0l-0,-1.162l-1.631,0l-0,-0.91l1.541,0l-0,-1.162l-1.541,-0l-0,-0.881l1.631,0l-0,-1.162l-3.002,-0Zm3.99,0l-0,5.277l1.371,0l0,-3.226l2.533,3.226l1.365,0l0,-5.277l-1.365,0l0,3.227l-2.533,-3.227l-1.371,0Zm6.377,0l-0,5.277l2.029,0c0.364,0 0.705,-0.071 1.02,-0.216c0.315,-0.144 0.59,-0.338 0.826,-0.581c0.235,-0.242 0.42,-0.524 0.553,-0.843c0.133,-0.32 0.199,-0.652 0.199,-0.998c-0,-0.35 -0.068,-0.685 -0.203,-1.004c-0.135,-0.32 -0.322,-0.6 -0.557,-0.84c-0.236,-0.241 -0.511,-0.433 -0.826,-0.578c-0.315,-0.144 -0.653,-0.217 -1.012,-0.217l-2.029,-0l0,0Zm-13.84,1.051l0.252,-0c0.429,-0 0.644,0.17 0.644,0.51c0,0.341 -0.215,0.511 -0.644,0.511l-0.252,0l0,-1.021l0,-0Zm15.211,0.111l0.314,0c0.233,0 0.444,0.037 0.631,0.111c0.187,0.075 0.344,0.179 0.473,0.309c0.128,0.131 0.227,0.287 0.297,0.469c0.07,0.182 0.105,0.378 0.105,0.588c0,0.215 -0.034,0.411 -0.101,0.591c-0.068,0.179 -0.165,0.335 -0.293,0.465c-0.129,0.131 -0.286,0.235 -0.473,0.309c-0.187,0.075 -0.401,0.111 -0.639,0.111l-0.314,0l0,-2.953l0,0Zm-15.211,1.932l0.301,-0c0.345,-0 0.593,0.045 0.742,0.133c0.149,0.089 0.225,0.231 0.225,0.427c-0,0.196 -0.076,0.338 -0.225,0.426c-0.149,0.089 -0.397,0.135 -0.742,0.135l-0.301,-0l0,-1.121l0,-0Z" style="fill:#FDDEA2;fill-rule:nonzero;"/>
      <path d="M111.7,96.146l0,1.162l1.127,0l0,4.117l1.373,0l0,-4.117l1.127,0l0,-1.162l-3.627,0Zm3.928,0l1.925,2.744l0.001,2.535l1.371,0l-0,-2.535l1.931,-2.744l-1.636,0l-0.975,1.443l-0.979,-1.443l-1.638,0l-0,0Zm5.713,0l-0,5.279l1.371,0l-0,-1.75l0.812,0c0.593,0 1.047,-0.155 1.362,-0.463c0.315,-0.308 0.472,-0.742 0.472,-1.302c0,-0.56 -0.157,-0.993 -0.472,-1.301c-0.315,-0.308 -0.769,-0.463 -1.362,-0.463l-2.183,0l-0,0Zm4.746,0l-0,5.279l3.002,0l-0,-1.162l-1.631,0l-0,-0.91l1.539,0l-0,-1.162l-1.539,-0l-0,-0.883l1.631,0l-0,-1.162l-3.002,0l-0,0Zm-3.375,1.107l0.455,0c0.504,0 0.756,0.218 0.756,0.657c-0,0.439 -0.252,0.658 -0.756,0.658l-0.455,-0l-0,-1.315l-0,0Z" style="fill:#FDDEA2;fill-rule:nonzero;"/>
    </g>
    <path d="M100.86,216.12c-0.28,0 -0.534,0.043 -0.76,0.127c-0.227,0.084 -0.418,0.201 -0.574,0.352c-0.157,0.152 -0.277,0.334 -0.363,0.546c-0.087,0.213 -0.131,0.45 -0.131,0.711c-0,0.261 0.041,0.477 0.123,0.647c0.081,0.171 0.189,0.312 0.322,0.424c0.133,0.112 0.284,0.202 0.455,0.269c0.17,0.068 0.345,0.13 0.522,0.186c0.15,0.051 0.278,0.098 0.383,0.14c0.105,0.042 0.188,0.086 0.253,0.135c0.066,0.049 0.113,0.104 0.141,0.162c0.028,0.059 0.041,0.128 0.041,0.207c0,0.131 -0.055,0.247 -0.164,0.35c-0.11,0.103 -0.276,0.154 -0.5,0.154c-0.196,0 -0.395,-0.044 -0.596,-0.133c-0.2,-0.089 -0.403,-0.224 -0.609,-0.406l-0.588,1.106c0.57,0.397 1.189,0.595 1.856,0.595c0.322,0 0.61,-0.044 0.865,-0.131c0.254,-0.086 0.469,-0.206 0.644,-0.363c0.175,-0.156 0.308,-0.343 0.399,-0.562c0.091,-0.219 0.137,-0.466 0.137,-0.737c-0,-0.401 -0.106,-0.726 -0.313,-0.976c-0.208,-0.249 -0.534,-0.449 -0.982,-0.598c-0.112,-0.037 -0.226,-0.072 -0.34,-0.105c-0.115,-0.033 -0.218,-0.071 -0.309,-0.116c-0.091,-0.044 -0.165,-0.097 -0.221,-0.158c-0.056,-0.061 -0.084,-0.137 -0.084,-0.23c0,-0.135 0.056,-0.244 0.168,-0.328c0.112,-0.084 0.257,-0.127 0.434,-0.127c0.14,-0 0.287,0.03 0.436,0.088c0.15,0.059 0.298,0.148 0.447,0.269l0.547,-1.07c-0.261,-0.14 -0.536,-0.248 -0.821,-0.321c-0.284,-0.072 -0.556,-0.107 -0.818,-0.107l-0,0Zm2.715,0.146l-0,5.28l1.373,-0l-0,-2.178l1.98,0l0,2.178l1.373,-0l0,-5.28l-1.373,0l0,2.038l-1.98,-0l-0,-2.038l-1.373,0Zm5.832,0l-0,5.28l1.371,-0l-0,-5.28l-1.371,0Zm2.478,0l0,5.28l1.371,-0l0,-2.073l1.506,0l0,-1.162l-1.506,0l0,-0.882l1.653,-0l-0,-1.163l-3.024,0Zm3.346,0l-0,1.163l1.127,-0l-0,4.117l1.371,-0l0,-4.117l1.127,-0l0,-1.163l-3.625,0Z" style="fill:#FDDEA2;fill-rule:nonzero;"/>
    <g>
      <path d="M114.99,153.9l-0,5.279l2.031,0c0.364,0 0.705,-0.071 1.02,-0.216c0.315,-0.145 0.588,-0.34 0.824,-0.583c0.235,-0.243 0.422,-0.523 0.555,-0.843c0.133,-0.319 0.197,-0.651 0.197,-0.996c-0,-0.35 -0.066,-0.686 -0.201,-1.006c-0.135,-0.319 -0.322,-0.599 -0.557,-0.84c-0.236,-0.24 -0.511,-0.433 -0.826,-0.578c-0.315,-0.145 -0.653,-0.217 -1.012,-0.217l-2.031,-0l-0,0Zm5.502,0l-0,5.279l3.004,0l-0,-1.162l-1.631,0l-0,-0.91l1.539,0l0,-1.162l-1.539,-0l-0,-0.883l1.631,0l-0,-1.162l-3.004,0l-0,0Zm3.99,0l0,5.279l1.373,0l0,-1.75l0.813,0c0.593,0 1.046,-0.155 1.361,-0.463c0.315,-0.308 0.473,-0.74 0.473,-1.3c-0,-0.56 -0.158,-0.995 -0.473,-1.303c-0.315,-0.308 -0.768,-0.463 -1.361,-0.463l-2.186,0l0,0Zm4.25,0l0,1.162l1.127,0l0,4.117l1.371,0l0,-4.117l1.127,0l0,-1.162l-3.625,0Zm4.235,0l-0,5.279l1.373,0l-0,-2.177l1.98,-0l0,2.177l1.371,0l0,-5.279l-1.371,0l0,2.037l-1.98,0l-0,-2.037l-1.373,0Zm-7.112,1.107l0.455,0c0.504,0 0.756,0.22 0.756,0.659c0,0.439 -0.252,0.656 -0.756,0.656l-0.455,-0l0,-1.315Zm-9.492,0.055l0.315,0c0.233,0 0.443,0.038 0.63,0.113c0.187,0.075 0.344,0.176 0.473,0.307c0.128,0.131 0.227,0.287 0.297,0.469c0.07,0.182 0.105,0.38 0.105,0.59c0,0.215 -0.034,0.41 -0.101,0.589c-0.068,0.18 -0.165,0.336 -0.293,0.467c-0.129,0.131 -0.288,0.232 -0.475,0.307c-0.187,0.075 -0.398,0.113 -0.636,0.113l-0.315,0l0,-2.955l0,0Z" style="fill:#FDDEA2;fill-rule:nonzero;"/>
      <path d="M30.822,216.42l0,5.277l1.373,0l0,-2.072l1.504,0l-0,-1.162l-1.504,-0l0,-0.883l1.652,0l0,-1.16l-3.025,-0l-0,0Zm3.844,0l-0,3.059c-0,0.821 0.188,1.42 0.566,1.798c0.378,0.378 0.958,0.567 1.737,0.567c0.778,-0 1.357,-0.189 1.732,-0.567c0.376,-0.378 0.564,-0.977 0.564,-1.798l0,-3.059l-1.365,0l0,2.869c0,0.154 -0.005,0.312 -0.017,0.473c-0.011,0.161 -0.049,0.306 -0.11,0.437c-0.061,0.131 -0.153,0.238 -0.277,0.319c-0.123,0.082 -0.298,0.123 -0.527,0.123c-0.229,-0 -0.406,-0.041 -0.532,-0.123c-0.126,-0.081 -0.218,-0.188 -0.277,-0.319c-0.058,-0.131 -0.094,-0.276 -0.106,-0.437c-0.011,-0.161 -0.017,-0.319 -0.017,-0.473l-0,-2.869l-1.371,0l-0,0Zm5.705,0l-0,5.277l1.371,0l0,-2.029l1.311,2.029l1.707,0l-1.659,-2.164c0.378,-0.089 0.663,-0.258 0.856,-0.508c0.194,-0.249 0.291,-0.573 0.291,-0.974c-0,-0.224 -0.035,-0.435 -0.108,-0.631c-0.072,-0.196 -0.179,-0.369 -0.322,-0.518c-0.142,-0.149 -0.324,-0.266 -0.543,-0.353c-0.219,-0.086 -0.475,-0.129 -0.769,-0.129l-2.135,0l-0,0Zm4.06,0l1.924,2.742l0,2.535l1.373,0l0,-2.535l1.932,-2.742l-1.639,0l-0.973,1.441l-0.98,-1.441l-1.637,0l0,0Zm-2.689,1.057l0.26,-0c0.271,-0 0.478,0.056 0.623,0.168c0.145,0.112 0.217,0.272 0.217,0.482c-0,0.21 -0.072,0.37 -0.217,0.482c-0.145,0.112 -0.352,0.168 -0.623,0.168l-0.26,0l-0,-1.3l-0,-0Z" style="fill:#FDDEA2;fill-rule:nonzero;"/>
      <path d="M21.986,229.33l0,5.277l3.002,0l0,-1.162l-1.631,0l0,-0.91l1.541,0l0,-1.16l-1.541,-0l0,-0.883l1.631,0l0,-1.162l-3.002,0l0,0Zm3.857,0l1.645,2.465l-2.065,2.812l1.659,0l1.238,-1.72l1.059,1.72l1.671,0l-1.966,-2.812l1.742,-2.465l-1.694,0l-0.88,1.365l-0.715,-1.365l-1.694,0l0,0Zm5.264,0l0,1.162l1.127,0l0,4.115l1.371,0l0,-4.115l1.127,0l0,-1.162l-3.625,0Zm4.234,0l0,5.277l1.373,0l0,-2.029l1.309,2.029l1.707,0l-1.658,-2.162c0.378,-0.088 0.664,-0.259 0.857,-0.508c0.194,-0.25 0.291,-0.574 0.291,-0.976c0,-0.224 -0.036,-0.433 -0.109,-0.629c-0.072,-0.196 -0.179,-0.37 -0.322,-0.52c-0.142,-0.149 -0.324,-0.265 -0.543,-0.351c-0.219,-0.087 -0.476,-0.131 -0.77,-0.131l-2.135,0l0.001,0Zm4.962,0l0,5.277l3.004,0l0,-1.162l-1.631,0l0,-0.91l1.54,0l-0,-1.16l-1.54,-0l0,-0.883l1.631,0l0,-1.162l-3.004,0l0,0Zm4.649,0l-0.897,5.277l1.366,0l0.455,-3.037l1.183,3.037l0.545,0l1.246,-3.037l0.455,3.037l1.366,0l-0.897,-5.277l-1.357,0l-1.051,2.815l-1.057,-2.815l-1.357,0Zm6.586,0l-0,5.277l3.004,0l-0,-1.162l-1.631,0l-0,-0.91l1.539,0l-0,-1.16l-1.539,-0l-0,-0.883l1.631,0l-0,-1.162l-3.004,0l-0,0Zm-14.824,1.057l0.258,-0c0.271,-0 0.478,0.056 0.623,0.168c0.145,0.112 0.216,0.274 0.216,0.484c0,0.21 -0.071,0.37 -0.216,0.482c-0.145,0.112 -0.352,0.168 -0.623,0.168l-0.258,0l-0,-1.302Z" style="fill:#FDDEA2;fill-rule:nonzero;"/>
      <path d="M65.361,151.55l0,1.162l1.127,0l0,4.115l1.373,0l0,-4.115l1.127,0l0,-1.162l-3.627,0Zm4.236,0l0,3.059c0,0.821 0.189,1.42 0.567,1.798c0.378,0.378 0.956,0.569 1.736,0.569c0.779,-0 1.357,-0.191 1.732,-0.569c0.376,-0.378 0.563,-0.977 0.563,-1.798l-0,-3.059l-1.365,0l-0,2.871c-0,0.154 -0.006,0.312 -0.018,0.473c-0.011,0.161 -0.047,0.304 -0.107,0.435c-0.061,0.131 -0.154,0.239 -0.278,0.321c-0.123,0.081 -0.299,0.121 -0.527,0.121c-0.229,-0 -0.407,-0.04 -0.533,-0.121c-0.126,-0.082 -0.217,-0.19 -0.276,-0.321c-0.058,-0.131 -0.093,-0.274 -0.105,-0.435c-0.011,-0.161 -0.018,-0.319 -0.018,-0.473l0,-2.871l-1.371,0l0,0Zm5.705,0l0,5.277l1.371,0l0.001,-3.226l2.533,3.226l1.365,0l-0,-5.277l-1.365,0l-0,3.227l-2.534,-3.227l-1.371,0Zm6.377,-0l0,5.277l3.002,0l0,-1.162l-1.63,0l-0.001,-0.908l1.541,0l0.001,-1.162l-1.541,-0l-0.001,-0.883l1.631,0l0,-1.162l-3.002,-0Z" style="fill:#FDDEA2;fill-rule:nonzero;"/>
      <path d="M80.02,345.46c-0.32,0 -0.61,0.049 -0.869,0.145c-0.258,0.096 -0.477,0.23 -0.656,0.404c-0.179,0.173 -0.317,0.382 -0.416,0.625c-0.099,0.243 -0.147,0.511 -0.147,0.81c0,0.299 0.046,0.547 0.139,0.741c0.093,0.195 0.217,0.358 0.369,0.486c0.152,0.128 0.325,0.229 0.519,0.307c0.195,0.077 0.395,0.148 0.598,0.212c0.17,0.059 0.316,0.113 0.436,0.161c0.12,0.048 0.216,0.1 0.291,0.156c0.075,0.056 0.128,0.116 0.16,0.183c0.032,0.067 0.049,0.146 0.049,0.237c-0,0.15 -0.063,0.281 -0.188,0.398c-0.126,0.118 -0.316,0.178 -0.572,0.178c-0.224,-0 -0.452,-0.05 -0.682,-0.152c-0.229,-0.101 -0.46,-0.257 -0.695,-0.465l-0.672,1.265c0.651,0.453 1.358,0.68 2.121,0.68c0.368,0 0.697,-0.049 0.988,-0.148c0.291,-0.099 0.535,-0.238 0.735,-0.416c0.2,-0.179 0.353,-0.394 0.457,-0.645c0.104,-0.25 0.156,-0.53 0.156,-0.84c0,-0.459 -0.119,-0.83 -0.357,-1.115c-0.237,-0.286 -0.611,-0.515 -1.123,-0.686c-0.128,-0.042 -0.258,-0.083 -0.389,-0.121c-0.131,-0.037 -0.248,-0.079 -0.352,-0.13c-0.104,-0.05 -0.187,-0.11 -0.251,-0.18c-0.064,-0.069 -0.096,-0.159 -0.096,-0.266c-0,-0.155 0.063,-0.279 0.191,-0.375c0.128,-0.096 0.293,-0.144 0.496,-0.144c0.16,-0 0.325,0.032 0.496,0.099c0.171,0.067 0.342,0.17 0.512,0.309l0.625,-1.225c-0.299,-0.16 -0.611,-0.28 -0.937,-0.363c-0.325,-0.082 -0.637,-0.125 -0.936,-0.125l0,-0Zm19.721,-0c-0.32,-0 -0.611,0.049 -0.869,0.145c-0.259,0.096 -0.477,0.23 -0.656,0.404c-0.178,0.173 -0.317,0.382 -0.416,0.625c-0.099,0.243 -0.149,0.511 -0.149,0.81c0,0.299 0.048,0.547 0.141,0.741c0.094,0.195 0.215,0.358 0.367,0.486c0.152,0.128 0.326,0.229 0.521,0.307c0.194,0.077 0.393,0.148 0.596,0.212c0.17,0.059 0.318,0.113 0.438,0.161c0.12,0.048 0.216,0.1 0.291,0.156c0.075,0.056 0.128,0.116 0.16,0.183c0.032,0.067 0.049,0.146 0.049,0.237c-0,0.15 -0.065,0.281 -0.19,0.398c-0.125,0.118 -0.316,0.178 -0.572,0.178c-0.224,-0 -0.451,-0.05 -0.68,-0.152c-0.23,-0.101 -0.462,-0.257 -0.697,-0.465l-0.672,1.265c0.651,0.453 1.358,0.68 2.121,0.68c0.368,0 0.697,-0.049 0.988,-0.148c0.291,-0.099 0.536,-0.238 0.737,-0.416c0.2,-0.179 0.353,-0.394 0.457,-0.645c0.104,-0.25 0.156,-0.53 0.156,-0.84c0,-0.459 -0.118,-0.83 -0.355,-1.115c-0.238,-0.286 -0.613,-0.515 -1.125,-0.686c-0.128,-0.042 -0.258,-0.083 -0.389,-0.121c-0.131,-0.037 -0.248,-0.079 -0.352,-0.13c-0.104,-0.05 -0.188,-0.11 -0.252,-0.18c-0.064,-0.069 -0.095,-0.159 -0.095,-0.266c-0,-0.155 0.063,-0.279 0.191,-0.375c0.128,-0.096 0.293,-0.144 0.496,-0.144c0.16,-0 0.326,0.032 0.496,0.099c0.171,0.067 0.342,0.17 0.512,0.309l0.625,-1.225c-0.299,-0.16 -0.611,-0.28 -0.937,-0.363c-0.325,-0.082 -0.637,-0.125 -0.936,-0.125l0,-0Zm5.17,-0c-0.32,-0 -0.608,0.049 -0.867,0.145c-0.259,0.096 -0.479,0.23 -0.658,0.404c-0.178,0.173 -0.318,0.382 -0.417,0.625c-0.098,0.243 -0.148,0.511 -0.148,0.81c0,0.299 0.048,0.547 0.141,0.741c0.094,0.195 0.215,0.358 0.367,0.486c0.152,0.128 0.326,0.229 0.521,0.307c0.194,0.077 0.393,0.148 0.596,0.212c0.171,0.059 0.318,0.113 0.438,0.161c0.12,0.048 0.217,0.1 0.291,0.156c0.075,0.056 0.128,0.116 0.16,0.183c0.032,0.067 0.049,0.146 0.049,0.237c-0,0.15 -0.064,0.281 -0.19,0.398c-0.125,0.118 -0.316,0.178 -0.572,0.178c-0.224,-0 -0.451,-0.05 -0.68,-0.152c-0.23,-0.101 -0.462,-0.257 -0.697,-0.465l-0.672,1.265c0.651,0.453 1.358,0.68 2.121,0.68c0.368,0 0.698,-0.049 0.988,-0.148c0.291,-0.099 0.539,-0.238 0.739,-0.416c0.2,-0.179 0.351,-0.394 0.455,-0.645c0.104,-0.25 0.156,-0.53 0.156,-0.84c0,-0.459 -0.118,-0.83 -0.355,-1.115c-0.238,-0.286 -0.612,-0.515 -1.125,-0.686c-0.128,-0.042 -0.258,-0.083 -0.389,-0.121c-0.131,-0.037 -0.248,-0.079 -0.352,-0.13c-0.104,-0.05 -0.188,-0.11 -0.252,-0.18c-0.064,-0.069 -0.095,-0.159 -0.095,-0.266c-0,-0.155 0.063,-0.279 0.191,-0.375c0.128,-0.096 0.293,-0.144 0.496,-0.144c0.16,-0 0.326,0.032 0.496,0.099c0.171,0.067 0.341,0.17 0.512,0.309l0.625,-1.225c-0.299,-0.16 -0.612,-0.28 -0.938,-0.363c-0.325,-0.082 -0.636,-0.125 -0.935,-0.125l-0,-0Zm-22.313,0.168l-0,1.328l1.287,0l0,4.707l1.568,0l0,-4.707l1.29,0l-0,-1.328l-4.145,-0Zm4.842,-0l-0,6.035l1.568,0l0,-2.32l1.496,2.32l1.953,0l-1.896,-2.472c0.432,-0.102 0.758,-0.296 0.98,-0.581c0.221,-0.286 0.332,-0.658 0.332,-1.117c0,-0.256 -0.043,-0.496 -0.125,-0.72c-0.083,-0.224 -0.204,-0.422 -0.367,-0.592c-0.162,-0.171 -0.37,-0.306 -0.621,-0.405c-0.251,-0.098 -0.543,-0.148 -0.879,-0.148l-2.441,0l-0,-0Zm5.674,-0l-0,6.035l3.433,0l0,-1.328l-1.865,0l-0,-1.041l1.762,0l-0,-1.328l-1.762,-0l-0,-1.01l1.865,0l0,-1.328l-3.433,0l-0,-0Zm-4.106,1.209l0.297,-0c0.309,-0 0.546,0.063 0.711,0.191c0.165,0.128 0.248,0.313 0.248,0.553c-0,0.24 -0.083,0.425 -0.248,0.553c-0.165,0.128 -0.402,0.191 -0.711,0.191l-0.297,0l0,-1.488l0,-0Z" style="fill:#FDDEA2;fill-rule:nonzero;"/>
      <path d="M66.52,81.914l0,1.162l1.127,0l0,4.115l1.371,0l0.002,-4.115l1.125,0l0,-1.162l-3.625,0Zm4.234,0l0,5.277l1.373,0l0,-5.277l-1.373,0Zm3.137,0l-0.896,5.277l1.365,0l0.455,-3.037l1.182,3.037l0.546,0l1.246,-3.037l0.456,3.037l1.365,0l-0.897,-5.277l-1.357,0l-1.051,2.814l-1.057,-2.814l-1.357,-0Zm6.586,-0l0,5.277l3.004,0l-0,-1.162l-1.631,0l0,-0.91l1.539,0l0,-1.162l-1.539,-0l0,-0.881l1.631,0l-0,-1.162l-3.004,0Z" style="fill:#FDDEA2;fill-rule:nonzero;"/>
    </g>
    <path d="M7.797,241.65c-0.008,-0 -0.016,-0 -0.024,-0c-0.329,-0 -0.6,0.27 -0.6,0.6c0,0.329 0.271,0.6 0.6,0.6c0.008,-0 0.016,-0 0.024,-0.001l134.37,0c0.008,0.001 0.016,0.001 0.023,0.001c0.33,-0 0.6,-0.271 0.6,-0.6c0,-0.33 -0.27,-0.6 -0.6,-0.6c-0.007,-0 -0.015,-0 -0.023,-0l-134.37,0Z" style="fill:#FDDEA2;"/>
    <path d="M15.629,313.41c-5.507,0 -9.988,4.481 -9.988,9.988l-0,13.145c-0,0.801 1.201,0.801 1.201,0l-0,-13.145c-0,-4.857 3.93,-8.789 8.787,-8.789l81.742,0c4.857,0 8.789,3.932 8.789,8.789l0,13.145c0,0.843 1.231,0.831 1.199,0l0,-13.145c0,-5.506 -4.481,-9.988 -9.988,-9.988l-81.742,0Z" style="fill:#FDDEA2;"/>
    <path d="M19.797,258.15c-0.332,0.006 -0.596,0.279 -0.59,0.611l0.002,1.409c-2.52,0.129 -5.006,1.042 -7.047,2.755c-4.419,3.708 -5.55,10.112 -2.668,15.105l0.301,0.52l10.035,-5.793l10.035,5.793l0.301,-0.52c2.882,-4.993 1.752,-11.398 -2.668,-15.105c-2.052,-1.722 -4.555,-2.636 -7.09,-2.757l-0.002,-1.411c0.004,-0.338 -0.271,-0.612 -0.609,-0.607l0,0Zm-0.586,3.219l0.02,10.35l-8.903,5.14c-2.209,-4.402 -1.209,-9.813 2.606,-13.014c1.819,-1.527 4.031,-2.348 6.277,-2.476Zm1.199,-0c2.26,0.121 4.488,0.94 6.317,2.476l0.002,0c3.815,3.201 4.813,8.612 2.603,13.014l-8.902,-5.14l-0.02,-10.35Zm8.852,16.951c-0.331,0.007 -0.926,0.28 -0.919,0.611l0.01,1.582l-1.606,0.008c-0.831,-0.028 -0.825,1.235 0.006,1.199l1.606,-0.008l0.01,1.629c-0.027,0.831 1.236,0.823 1.199,-0.008l-0.008,-1.625l1.603,-0.008c0.801,-0.004 0.795,-1.205 -0.006,-1.201l-1.605,0.008l-0.008,-1.584c0.002,-0.338 -0.276,-0.611 -0.614,-0.603l0.332,-0Zm-16.092,2.056l-4.414,0.02c-0.801,0.004 -0.795,1.205 0.006,1.201l4.414,-0.021c0.831,0.027 0.824,-1.236 -0.006,-1.2Z" style="fill:#FDDEA2;fill-rule:nonzero;"/>
    <path d="M129.8,258.15c-0.332,0.006 -0.596,0.279 -0.59,0.611l0.002,1.409c-2.52,0.129 -5.006,1.042 -7.047,2.755c-4.419,3.708 -5.55,10.112 -2.668,15.105l0.301,0.52l10.035,-5.793l10.035,5.793l0.301,-0.52c2.882,-4.993 1.752,-11.398 -2.668,-15.105c-2.052,-1.722 -4.555,-2.636 -7.09,-2.757l-0.002,-1.411c0.004,-0.338 -0.271,-0.612 -0.609,-0.607l0,0Zm-0.586,3.219l0.02,10.35l-8.903,5.14c-2.209,-4.402 -1.209,-9.813 2.606,-13.014c1.819,-1.527 4.031,-2.348 6.277,-2.476Zm1.199,-0c2.26,0.121 4.488,0.94 6.317,2.476l0.002,0c3.815,3.201 4.813,8.612 2.603,13.014l-8.902,-5.14l-0.02,-10.35Zm8.852,16.951c-0.331,0.007 -0.926,0.28 -0.919,0.611l0.01,1.582l-1.606,0.008c-0.831,-0.028 -0.825,1.235 0.006,1.199l1.606,-0.008l0.01,1.629c-0.027,0.831 1.236,0.823 1.199,-0.008l-0.008,-1.625l1.603,-0.008c0.801,-0.004 0.795,-1.205 -0.006,-1.201l-1.605,0.008l-0.008,-1.584c0.002,-0.338 -0.276,-0.611 -0.614,-0.603l0.332,-0Zm-16.092,2.056l-4.414,0.02c-0.801,0.004 -0.795,1.205 0.006,1.201l4.414,-0.021c0.831,0.027 0.824,-1.236 -0.006,-1.2Z" style="fill:#FDDEA2;fill-rule:nonzero;"/>
    <path d="M56.464,258.15c-0.332,0.006 -0.596,0.279 -0.59,0.611l0.002,1.409c-2.52,0.129 -5.006,1.042 -7.047,2.755c-4.419,3.708 -5.55,10.112 -2.668,15.105l0.301,0.52l10.035,-5.793l10.035,5.793l0.301,-0.52c2.882,-4.993 1.752,-11.398 -2.668,-15.105c-2.052,-1.722 -4.555,-2.636 -7.09,-2.757l-0.002,-1.411c0.004,-0.338 -0.271,-0.612 -0.609,-0.607l0,0Zm-0.586,3.219l0.02,10.35l-8.903,5.14c-2.209,-4.402 -1.209,-9.813 2.606,-13.014c1.819,-1.527 4.031,-2.348 6.277,-2.476Zm1.199,-0c2.26,0.121 4.488,0.94 6.317,2.476l0.002,0c3.815,3.201 4.813,8.612 2.603,13.014l-8.902,-5.14l-0.02,-10.35Zm8.852,16.951c-0.331,0.007 -0.926,0.28 -0.919,0.611l0.01,1.582l-1.606,0.008c-0.831,-0.028 -0.825,1.235 0.006,1.199l1.606,-0.008l0.01,1.629c-0.027,0.831 1.236,0.823 1.199,-0.008l-0.008,-1.625l1.603,-0.008c0.801,-0.004 0.795,-1.205 -0.006,-1.201l-1.605,0.008l-0.008,-1.584c0.002,-0.338 -0.276,-0.611 -0.614,-0.603l0.332,-0Zm-16.092,2.056l-4.414,0.02c-0.801,0.004 -0.795,1.205 0.006,1.201l4.414,-0.021c0.831,0.027 0.824,-1.236 -0.006,-1.2Z" style="fill:#FDDEA2;fill-rule:nonzero;"/>
    <path d="M93.131,258.15c-0.332,0.006 -0.596,0.279 -0.59,0.611l0.002,1.409c-2.52,0.129 -5.006,1.042 -7.047,2.755c-4.419,3.708 -5.55,10.112 -2.668,15.105l0.301,0.52l10.035,-5.793l10.035,5.793l0.301,-0.52c2.882,-4.993 1.752,-11.398 -2.668,-15.105c-2.052,-1.722 -4.555,-2.636 -7.09,-2.757l-0.002,-1.411c0.004,-0.338 -0.271,-0.612 -0.609,-0.607l0,0Zm-0.586,3.219l0.02,10.35l-8.903,5.14c-2.209,-4.402 -1.209,-9.813 2.606,-13.014c1.819,-1.527 4.031,-2.348 6.277,-2.476Zm1.199,-0c2.26,0.121 4.488,0.94 6.317,2.476l0.002,0c3.815,3.201 4.813,8.612 2.603,13.014l-8.902,-5.14l-0.02,-10.35Zm8.852,16.951c-0.331,0.007 -0.926,0.28 -0.919,0.611l0.01,1.582l-1.606,0.008c-0.831,-0.028 -0.825,1.235 0.006,1.199l1.606,-0.008l0.01,1.629c-0.027,0.831 1.236,0.823 1.199,-0.008l-0.008,-1.625l1.603,-0.008c0.801,-0.004 0.795,-1.205 -0.006,-1.201l-1.605,0.008l-0.008,-1.584c0.002,-0.338 -0.276,-0.611 -0.614,-0.603l0.332,-0Zm-16.092,2.056l-4.414,0.02c-0.801,0.004 -0.795,1.205 0.006,1.201l4.414,-0.021c0.831,0.027 0.824,-1.236 -0.006,-1.2Z" style="fill:#FDDEA2;fill-rule:nonzero;"/>
    <g id="text9293-41" serif:id="text9293-4">
      <path d="M46.372,254.114l0.315,-0c0.238,-0 0.45,-0.037 0.637,-0.112c0.187,-0.075 0.344,-0.177 0.473,-0.308c0.128,-0.131 0.226,-0.286 0.294,-0.465c0.067,-0.18 0.101,-0.377 0.101,-0.592c0,-0.21 -0.035,-0.406 -0.105,-0.588c-0.07,-0.182 -0.169,-0.338 -0.297,-0.469c-0.129,-0.131 -0.286,-0.233 -0.473,-0.308c-0.187,-0.075 -0.397,-0.112 -0.63,-0.112l-0.315,-0l0,2.954Zm-1.372,-4.116l2.03,-0c0.359,-0 0.697,0.072 1.012,0.217c0.315,0.145 0.59,0.337 0.826,0.577c0.235,0.241 0.421,0.521 0.556,0.84c0.135,0.32 0.203,0.655 0.203,1.005c0,0.345 -0.066,0.678 -0.2,0.997c-0.132,0.32 -0.317,0.601 -0.552,0.844c-0.236,0.243 -0.511,0.436 -0.826,0.581c-0.315,0.145 -0.655,0.217 -1.019,0.217l-2.03,-0l0,-5.278Z" style="fill:#FDDEA2;fill-rule:nonzero;"/>
      <path d="M53.505,251.154l-1.631,-0l0,0.882l1.54,-0l0,1.162l-1.54,-0l0,0.91l1.631,-0l0,1.162l-3.003,-0l0,-5.278l3.003,-0l0,1.162Z" style="fill:#FDDEA2;fill-rule:nonzero;"/>
      <path d="M58.293,251.754c-0.317,-0.387 -0.709,-0.581 -1.176,-0.581c-0.205,-0 -0.395,0.037 -0.57,0.112c-0.175,0.075 -0.326,0.176 -0.452,0.305c-0.126,0.128 -0.225,0.281 -0.297,0.458c-0.073,0.177 -0.109,0.369 -0.109,0.574c0,0.21 0.036,0.404 0.109,0.581c0.072,0.177 0.172,0.331 0.3,0.462c0.129,0.131 0.279,0.233 0.452,0.308c0.173,0.075 0.359,0.112 0.56,0.112c0.439,-0 0.833,-0.187 1.183,-0.56l0,1.624l-0.14,0.049c-0.21,0.075 -0.406,0.13 -0.588,0.165c-0.182,0.035 -0.362,0.052 -0.539,0.052c-0.364,-0 -0.713,-0.069 -1.046,-0.207c-0.334,-0.137 -0.628,-0.331 -0.882,-0.581c-0.255,-0.249 -0.459,-0.546 -0.613,-0.888c-0.154,-0.344 -0.231,-0.718 -0.231,-1.124c0,-0.406 0.076,-0.778 0.228,-1.117c0.151,-0.338 0.354,-0.63 0.609,-0.875c0.254,-0.244 0.549,-0.436 0.885,-0.573c0.336,-0.138 0.688,-0.207 1.057,-0.207c0.21,-0 0.416,0.022 0.62,0.066c0.203,0.045 0.416,0.114 0.64,0.207l0,1.638Z" style="fill:#FDDEA2;fill-rule:nonzero;"/>
      <path d="M62.157,253.314l-0.616,-1.757l-0.616,1.757l1.232,-0Zm0.364,1.043l-1.96,-0l-0.315,0.917l-1.463,-0l2.009,-5.278l1.498,-0l2.009,5.278l-1.463,-0l-0.315,-0.917Z" style="fill:#FDDEA2;fill-rule:nonzero;"/>
      <path d="M65.678,252.734l-1.925,-2.744l1.638,-0l0.98,1.442l0.973,-1.442l1.638,-0l-1.932,2.744l0,2.534l-1.372,-0l-0,-2.534Z" style="fill:#FDDEA2;fill-rule:nonzero;"/>
    </g>
    <g id="text9293-42" serif:id="text9293-4">
      <path d="M122.7,251.344c-0.149,-0.121 -0.299,-0.211 -0.448,-0.269c-0.149,-0.059 -0.294,-0.088 -0.434,-0.088c-0.177,-0 -0.322,0.042 -0.434,0.126c-0.112,0.084 -0.168,0.194 -0.168,0.329c0,0.093 0.028,0.17 0.084,0.231c0.056,0.061 0.129,0.113 0.22,0.158c0.091,0.044 0.194,0.082 0.308,0.115c0.115,0.033 0.228,0.068 0.34,0.105c0.448,0.149 0.776,0.349 0.983,0.599c0.208,0.249 0.312,0.575 0.312,0.976c0,0.271 -0.046,0.516 -0.137,0.735c-0.091,0.219 -0.224,0.407 -0.399,0.564c-0.175,0.156 -0.389,0.277 -0.644,0.364c-0.254,0.086 -0.542,0.129 -0.864,0.129c-0.667,-0 -1.286,-0.198 -1.855,-0.595l0.588,-1.106c0.205,0.182 0.408,0.317 0.609,0.406c0.201,0.089 0.399,0.133 0.595,0.133c0.224,-0 0.391,-0.051 0.5,-0.154c0.11,-0.103 0.165,-0.219 0.165,-0.35c0,-0.079 -0.014,-0.148 -0.042,-0.207c-0.028,-0.058 -0.075,-0.112 -0.14,-0.161c-0.065,-0.049 -0.151,-0.094 -0.256,-0.136c-0.105,-0.042 -0.232,-0.089 -0.381,-0.14c-0.177,-0.056 -0.351,-0.118 -0.522,-0.186c-0.17,-0.067 -0.322,-0.157 -0.455,-0.269c-0.133,-0.112 -0.24,-0.253 -0.322,-0.424c-0.081,-0.17 -0.122,-0.386 -0.122,-0.647c0,-0.261 0.043,-0.498 0.129,-0.711c0.087,-0.212 0.208,-0.394 0.364,-0.546c0.157,-0.151 0.348,-0.269 0.574,-0.353c0.227,-0.084 0.48,-0.126 0.76,-0.126c0.261,-0 0.534,0.036 0.819,0.108c0.285,0.073 0.558,0.179 0.819,0.319l-0.546,1.071Z" style="fill:#FDDEA2;fill-rule:nonzero;"/>
      <path d="M125.7,252.034l1.981,-0l0,-2.037l1.372,-0l0,5.278l-1.372,-0l0,-2.177l-1.981,-0l0,2.177l-1.372,-0l0,-5.278l1.372,-0l0,2.037Z" style="fill:#FDDEA2;fill-rule:nonzero;"/>
      <rect x="130.16" y="249.994" width="1.372" height="5.278" style="fill:#FDDEA2;"/>
      <path d="M135.66,251.154l-1.652,-0l0,0.882l1.505,-0l0,1.162l-1.505,-0l0,2.072l-1.372,-0l0,-5.278l3.024,-0l0,1.162Z" style="fill:#FDDEA2;fill-rule:nonzero;"/>
      <path d="M138.48,251.154l0,4.116l-1.372,-0l0,-4.116l-1.127,-0l0,-1.162l3.626,-0l0,1.162l-1.127,-0Z" style="fill:#FDDEA2;fill-rule:nonzero;"/>
    </g>
    <g id="text9293-43" serif:id="text9293-4">
      <path d="M82.743,254.064l0.315,-0c0.238,-0 0.451,-0.037 0.637,-0.112c0.187,-0.074 0.344,-0.177 0.473,-0.308c0.128,-0.13 0.226,-0.286 0.294,-0.465c0.067,-0.18 0.101,-0.377 0.101,-0.592c0,-0.21 -0.035,-0.406 -0.105,-0.588c-0.07,-0.182 -0.169,-0.338 -0.297,-0.469c-0.129,-0.13 -0.286,-0.233 -0.473,-0.308c-0.186,-0.074 -0.396,-0.112 -0.63,-0.112l-0.315,-0l0,2.954Zm-1.372,-4.116l2.03,-0c0.36,-0 0.697,0.073 1.012,0.217c0.315,0.145 0.59,0.337 0.826,0.578c0.235,0.24 0.421,0.52 0.556,0.84c0.136,0.319 0.203,0.654 0.203,1.004c0,0.346 -0.066,0.678 -0.199,0.998c-0.133,0.319 -0.318,0.601 -0.553,0.843c-0.236,0.243 -0.511,0.437 -0.826,0.581c-0.315,0.145 -0.655,0.217 -1.019,0.217l-2.03,-0l0,-5.278Z" style="fill:#FDDEA2;fill-rule:nonzero;"/>
      <path d="M89.876,251.114l-1.631,-0l0,0.882l1.54,-0l0,1.162l-1.54,-0l0,0.91l1.631,-0l0,1.162l-3.003,-0l0,-5.278l3.003,-0l0,1.162Z" style="fill:#FDDEA2;fill-rule:nonzero;"/>
      <path d="M92.235,252.374l0.455,-0c0.504,-0 0.756,-0.219 0.756,-0.658c0,-0.438 -0.252,-0.658 -0.756,-0.658l-0.455,-0l0,1.316Zm0,2.856l-1.372,-0l0,-5.278l2.184,-0c0.593,-0 1.047,0.154 1.362,0.462c0.315,0.308 0.472,0.742 0.472,1.302c0,0.56 -0.157,0.994 -0.472,1.302c-0.315,0.308 -0.769,0.462 -1.362,0.462l-0.812,-0l0,1.75Z" style="fill:#FDDEA2;fill-rule:nonzero;"/>
      <path d="M97.611,251.114l0,4.116l-1.372,-0l0,-4.116l-1.127,-0l0,-1.162l3.626,-0l0,1.162l-1.127,-0Z" style="fill:#FDDEA2;fill-rule:nonzero;"/>
      <path d="M100.72,251.994l1.981,-0l0,-2.037l1.372,-0l0,5.278l-1.372,-0l0,-2.177l-1.981,-0l0,2.177l-1.372,-0l0,-5.278l1.372,-0l0,2.037Z" style="fill:#FDDEA2;fill-rule:nonzero;"/>
    </g>
    <g id="text9293-44" serif:id="text9293-4">
      <path d="M13.285,251.154l-1.652,-0l0,0.882l1.505,-0l0,1.162l-1.505,-0l0,2.072l-1.372,-0l0,-5.278l3.024,-0l0,1.162Z" style="fill:#FDDEA2;fill-rule:nonzero;"/>
      <path d="M15.476,249.994l0,2.87c0,0.154 0.006,0.312 0.017,0.473c0.012,0.161 0.047,0.306 0.105,0.437c0.059,0.131 0.151,0.237 0.277,0.319c0.126,0.081 0.303,0.122 0.532,0.122c0.229,-0 0.405,-0.041 0.528,-0.123c0.124,-0.081 0.216,-0.187 0.277,-0.318c0.061,-0.131 0.097,-0.276 0.108,-0.438c0.012,-0.161 0.018,-0.318 0.018,-0.472l0,-2.87l1.365,-0l0,3.059c0,0.821 -0.188,1.421 -0.564,1.799c-0.375,0.378 -0.953,0.567 -1.732,0.567c-0.779,-0 -1.358,-0.189 -1.736,-0.567c-0.378,-0.378 -0.567,-0.978 -0.567,-1.799l0,-3.059l1.372,-0Z" style="fill:#FDDEA2;fill-rule:nonzero;"/>
      <path d="M21.181,252.354l0.259,-0c0.271,-0 0.478,-0.056 0.623,-0.168c0.145,-0.112 0.217,-0.273 0.217,-0.483c0,-0.21 -0.072,-0.371 -0.217,-0.483c-0.145,-0.112 -0.352,-0.168 -0.623,-0.168l-0.259,-0l0,1.302Zm3.017,2.919l-1.708,-0l-1.309,-2.03l0,2.03l-1.372,-0l0,-5.278l2.135,-0c0.294,-0 0.551,0.043 0.77,0.13c0.219,0.086 0.4,0.204 0.543,0.353c0.142,0.149 0.249,0.322 0.321,0.518c0.073,0.196 0.109,0.406 0.109,0.63c0,0.401 -0.097,0.727 -0.291,0.977c-0.193,0.249 -0.479,0.418 -0.857,0.507l1.659,2.163Z" style="fill:#FDDEA2;fill-rule:nonzero;"/>
      <path d="M25.794,252.734l-1.925,-2.744l1.638,-0l0.98,1.442l0.973,-1.442l1.638,-0l-1.932,2.744l-0,2.534l-1.372,-0l-0,-2.534Z" style="fill:#FDDEA2;fill-rule:nonzero;"/>
    </g>
    <path d="M101.485,224.532l1.239,0l0,4.984l-0.973,0l-2.261,-2.828l0,2.828l-1.225,0l0,-4.984l0.959,0l2.261,2.814l0,-2.814Z" style="fill:#fdcc0c;fill-rule:nonzero;"/>
    <path d="M106,229.579c-0.508,0 -0.952,-0.103 -1.33,-0.311c-0.378,-0.208 -0.668,-0.505 -0.871,-0.893c-0.203,-0.387 -0.305,-0.84 -0.305,-1.358c0,-0.518 0.103,-0.968 0.308,-1.351c0.206,-0.382 0.496,-0.677 0.872,-0.885c0.376,-0.208 0.818,-0.312 1.326,-0.312c0.509,0 0.951,0.104 1.327,0.312c0.376,0.208 0.664,0.503 0.864,0.885c0.201,0.383 0.301,0.833 0.301,1.351c0,0.518 -0.1,0.971 -0.301,1.358c-0.2,0.388 -0.488,0.685 -0.864,0.893c-0.376,0.208 -0.818,0.311 -1.327,0.311Zm0,-1.001c0.374,0 0.667,-0.133 0.879,-0.399c0.212,-0.266 0.318,-0.653 0.318,-1.162c0,-0.504 -0.106,-0.887 -0.318,-1.151c-0.212,-0.264 -0.505,-0.396 -0.879,-0.396c-0.373,0 -0.665,0.131 -0.875,0.392c-0.21,0.262 -0.315,0.647 -0.315,1.155c0,0.514 0.105,0.902 0.315,1.166c0.21,0.264 0.502,0.395 0.875,0.395Z" style="fill:#fdcc0c;fill-rule:nonzero;"/>
    <rect x="109.262" y="224.532" width="1.316" height="4.984" style="fill:#fdcc0c;fill-rule:nonzero;"/>
    <path d="M113.28,229.579c-0.373,0 -0.742,-0.049 -1.106,-0.147c-0.364,-0.098 -0.66,-0.231 -0.889,-0.399l0.413,-0.931c0.243,0.154 0.501,0.272 0.774,0.354c0.273,0.082 0.547,0.122 0.822,0.122c0.28,0 0.495,-0.038 0.644,-0.115c0.15,-0.077 0.224,-0.186 0.224,-0.326c0,-0.126 -0.067,-0.229 -0.203,-0.311c-0.135,-0.082 -0.389,-0.162 -0.763,-0.242c-0.471,-0.093 -0.837,-0.208 -1.099,-0.346c-0.261,-0.138 -0.444,-0.3 -0.549,-0.487c-0.105,-0.186 -0.158,-0.413 -0.158,-0.679c0,-0.303 0.087,-0.577 0.259,-0.822c0.173,-0.245 0.416,-0.436 0.728,-0.574c0.313,-0.138 0.67,-0.207 1.071,-0.207c0.36,0 0.709,0.051 1.047,0.151c0.338,0.1 0.603,0.232 0.794,0.395l-0.406,0.931c-0.219,-0.154 -0.45,-0.271 -0.693,-0.353c-0.242,-0.082 -0.485,-0.123 -0.728,-0.123c-0.238,0 -0.429,0.046 -0.574,0.137c-0.144,0.091 -0.217,0.213 -0.217,0.367c0,0.084 0.026,0.154 0.077,0.21c0.052,0.056 0.147,0.111 0.287,0.165c0.14,0.054 0.35,0.111 0.63,0.171c0.453,0.098 0.809,0.216 1.068,0.354c0.259,0.138 0.442,0.299 0.549,0.483c0.108,0.184 0.161,0.405 0.161,0.661c0,0.486 -0.189,0.867 -0.567,1.145c-0.378,0.278 -0.91,0.416 -1.596,0.416Z" style="fill:#fdcc0c;fill-rule:nonzero;"/>
    <path d="M116.178,229.516l0,-4.984l3.556,0l0,1.008l-2.275,0l0,0.938l2.128,0l0,1.008l-2.128,0l0,1.022l2.275,0l0,1.008l-3.556,0Z" style="fill:#fdcc0c;fill-rule:nonzero;"/>
  </g>
</svg>