<svg width="150px" height="380px" version="1.1" xmlns="http://www.w3.org/2000/svg" xmlns:xlink="http://www.w3.org/1999/xlink" xml:space="preserve" xmlns:serif="http://www.serif.com/" style="fill-rule:evenodd;clip-rule:evenodd;stroke-linecap:round;stroke-miterlimit:10;">
  <defs>
    <linearGradient id="_Linear1" x1="0" y1="0" x2="1" y2="0" gradientUnits="userSpaceOnUse" gradientTransform="matrix(0.007008,-37.8989,37.8989,0.007008,75.2834,112.195)">
      <stop offset="0" style="stop-color:#401B5C;stop-opacity:1"/>
      <stop offset="1" style="stop-color:#401B5C;stop-opacity:1"/>
    </linearGradient>
    <linearGradient id="_Linear2" x1="0" y1="0" x2="1" y2="0" gradientUnits="userSpaceOnUse" gradientTransform="matrix(-4.88,-92.58,92.58,-4.88,277.54,345.91)">
      <stop offset="0" style="stop-color:#401B5C;stop-opacity:1"/>
      <stop offset="1" style="stop-color:#401B5C;stop-opacity:1"/>
    </linearGradient>
    <linearGradient id="_Linear3" x1="0" y1="0" x2="1" y2="0" gradientUnits="userSpaceOnUse" gradientTransform="matrix(-4.75,94.86,-94.86,-4.75,277.54,158.47)">
      <stop offset="0" style="stop-color:#401B5C;stop-opacity:1"/>
      <stop offset="1" style="stop-color:#401B5C;stop-opacity:1"/>
    </linearGradient>
    <linearGradient id="_Linear4" x1="0" y1="0" x2="1" y2="0" gradientUnits="userSpaceOnUse" gradientTransform="matrix(1.15392e-16,-1.8845,1.8845,1.15392e-16,56.519,1.9362)">
      <stop offset="0" style="stop-color:#401B5C;stop-opacity:1"/>
      <stop offset="1" style="stop-color:#401B5C;stop-opacity:1"/>
    </linearGradient>
  </defs>
  <g id="Panel">
    <g>
      <rect x="0" y="0" width="150" height="380" style="fill:url(#_Linear1);"/>
      <rect x="0" y="253.33" width="150" height="126.67" style="fill:url(#_Linear2);"/>
      <rect x="0" y="126.67" width="150" height="126.67" style="fill:url(#_Linear3);"/>
      <rect x="0" y="0" width="150" height="380" style="fill:rgb(16,53,80);fill-opacity:0.1;"/>
      <rect x="0" y="0" width="150" height="2" style="fill:url(#_Linear4);"/>
    </g>
    <g>
      <path d="M62.9,363.5l3.443,10.383c0.322,0.968 0.909,1.451 1.756,1.451c0.835,0 1.413,-0.476 1.736,-1.435l3.461,-10.398l-2.66,0l-2.574,8.318l-2.49,-8.318l-2.672,-0.001Zm10.598,0l0,8.793c0,0.736 0.078,1.265 0.234,1.588c0.423,0.881 1.214,1.32 2.373,1.32l3.243,0c1.126,0 1.912,-0.429 2.357,-1.287c0.168,-0.324 0.25,-0.87 0.25,-1.639l0,-8.775l-2.506,0l0,8.658l-0.018,0.084c-0.056,0.29 -0.34,0.436 -0.853,0.436l-1.705,0c-0.535,0 -0.826,-0.157 -0.87,-0.469l0,-8.709l-2.505,0Zm9.611,0l0,8.842c0,0.914 0.19,1.598 0.569,2.049c0.378,0.452 1.019,0.717 1.922,0.795c0.123,0.011 0.268,0.015 0.435,0.015l4.664,0l0.016,-2.523l-4.463,0c-0.424,0 -0.634,-0.178 -0.634,-0.535l0,-8.643l-2.509,0Zm7.69,0l0,2.525l2.49,0l0,9.176l2.508,0l0,-9.176l2.523,0l0,-2.525l-7.521,0Z" style="fill:rgb(102,102,102);fill-rule:nonzero;"/>
      <path d="M59.3,369.42c0,-4.509 -3.655,-8.165 -8.164,-8.165c-4.509,0 -8.165,3.656 -8.165,8.165c0,4.509 3.656,8.165 8.165,8.165c4.509,0 8.164,-3.656 8.164,-8.165Z" style="fill:rgb(117,117,117);fill-rule:nonzero;stroke:rgb(53,53,53);stroke-width:0.61px;"/>
      <g>
        <path d="M49.32,374.389l0.553,-0.89l-1.064,-2.393l-2.216,-2.284l0.46,3.101l0.597,1.28l0.833,1.263l0.837,-0.077Z" style="fill:rgb(43,43,43);fill-rule:nonzero;"/>
        <path d="M53.05,374.399l-0.553,-0.891l1.064,-2.393l2.216,-2.284l-0.46,3.101l-0.597,1.28l-0.833,1.264l-0.837,-0.077Z" style="fill:#401B5C;fill-rule:nonzero;"/>
        <path d="M48.64,363.359l2.584,-0.661l0,13.448l-1.349,-2.651l-1.061,-2.385l-1.022,-0.581l-2.052,-2.921l-0.057,-0.775l1.148,-2.067l1.809,-1.407Z" style="fill:rgb(66,66,66);fill-rule:nonzero;"/>
        <path d="M53.8,363.359l-2.584,-0.66l0,13.448l1.35,-2.651l1.06,-2.385l1.023,-0.581l2.051,-2.921l0.058,-0.775l-1.149,-2.068l-1.809,-1.407Z" style="fill:rgb(51,51,51);fill-rule:nonzero;"/>
        <path d="M49.5,369.239l1.723,-1.685l0,1.23l-1.723,1.718l0,-1.263" style="fill:rgb(76,76,76);fill-rule:nonzero;"/>
        <path d="M51.22,368.779l-1.723,1.718l0.377,3.004l1.346,2.643l0,-7.365Z" style="fill:rgb(91,91,91);fill-rule:nonzero;"/>
        <path d="M51.22,376.149l-1.346,-2.643l1.346,-0.635l0,3.278Z" style="fill:rgb(51,51,51);fill-rule:nonzero;"/>
        <path d="M49.5,370.499l0,-1.264l-1.249,-1.579l-1.477,-1.19l-0.001,0.932l0.775,1.823l1.952,1.278Z" style="fill:#FDDEA2;fill-rule:nonzero;"/>
        <path d="M52.94,369.239l-1.722,-1.684l0,1.23l1.722,1.718l0,-1.264" style="fill:rgb(45,45,45);fill-rule:nonzero;"/>
        <path d="M51.22,368.779l1.722,1.718l-0.376,3.004l-1.347,2.643l0.001,-7.365Z" style="fill:rgb(53,53,53);fill-rule:nonzero;"/>
        <path d="M51.22,376.149l1.347,-2.643l-1.346,-0.635l-0.001,3.278Z" style="fill:#401B5C;fill-rule:nonzero;"/>
        <path d="M52.94,370.499l0,-1.264l1.249,-1.579l1.478,-1.19l0.001,0.932l-0.775,1.823l-1.953,1.278Z" style="fill:#FDDEA2;fill-rule:nonzero;"/>
        <path d="M48.65,363.339l2.566,4.216l-0.005,-4.87" style="fill:rgb(56,56,56);fill-rule:nonzero;"/>
        <path d="M53.78,363.339l-2.566,4.215l0.006,-4.87" style="fill:rgb(45,45,45);fill-rule:nonzero;"/>
        <path d="M48.81,371.109l0.688,-0.61l0.375,3.006l-1.063,-2.396Z" style="fill:rgb(51,51,51);fill-rule:nonzero;"/>
        <path d="M53.63,371.129l-0.688,-0.61l-0.375,3.006l1.063,-2.396Z" style="fill:rgb(28,28,28);fill-rule:nonzero;"/>
      </g>
    </g>
    <path d="M62.018,17.445c-0.504,0 -0.957,0.076 -1.365,0.227c-0.406,0.152 -0.75,0.362 -1.031,0.634c-0.281,0.273 -0.499,0.6 -0.653,0.983c-0.156,0.381 -0.234,0.807 -0.234,1.277c0,0.469 0.073,0.855 0.219,1.162c0.147,0.306 0.34,0.559 0.58,0.762c0.238,0.201 0.512,0.363 0.818,0.484c0.305,0.123 0.617,0.233 0.936,0.334c0.269,0.092 0.498,0.175 0.687,0.25c0.189,0.076 0.341,0.157 0.459,0.246c0.117,0.088 0.201,0.184 0.252,0.289c0.049,0.105 0.074,0.229 0.074,0.371c0,0.236 -0.098,0.444 -0.295,0.629c-0.197,0.184 -0.498,0.276 -0.9,0.276c-0.353,0 -0.709,-0.077 -1.07,-0.237c-0.361,-0.16 -0.725,-0.402 -1.094,-0.73l-1.057,1.988c1.023,0.713 2.135,1.069 3.334,1.069c0.578,0 1.096,-0.079 1.553,-0.233c0.458,-0.156 0.843,-0.373 1.158,-0.654c0.314,-0.28 0.554,-0.619 0.717,-1.014c0.163,-0.394 0.246,-0.832 0.246,-1.32c0,-0.721 -0.186,-1.305 -0.559,-1.754c-0.374,-0.449 -0.963,-0.807 -1.767,-1.076c-0.203,-0.067 -0.406,-0.129 -0.613,-0.188c-0.205,-0.059 -0.388,-0.129 -0.551,-0.209c-0.164,-0.08 -0.296,-0.173 -0.397,-0.283c-0.1,-0.109 -0.152,-0.246 -0.152,-0.414c0,-0.244 0.102,-0.442 0.303,-0.592c0.202,-0.152 0.46,-0.226 0.779,-0.226c0.251,0 0.512,0.052 0.781,0.158c0.268,0.103 0.537,0.265 0.805,0.482l0.98,-1.923c-0.47,-0.251 -0.96,-0.444 -1.472,-0.573c-0.511,-0.13 -1.001,-0.195 -1.471,-0.195l0,0Zm9.447,0c-0.662,0 -1.295,0.123 -1.898,0.371c-0.604,0.248 -1.135,0.591 -1.592,1.031c-0.457,0.441 -0.823,0.966 -1.096,1.574c-0.272,0.607 -0.408,1.277 -0.408,2.006c0,0.73 0.139,1.401 0.416,2.018c0.277,0.616 0.642,1.151 1.1,1.6c0.457,0.449 0.986,0.796 1.586,1.043c0.6,0.247 1.226,0.371 1.881,0.371c0.318,0 0.641,-0.031 0.968,-0.094c0.327,-0.064 0.68,-0.162 1.057,-0.295l0.25,-0.09l0,-2.918c-0.628,0.672 -1.337,1.006 -2.125,1.006c-0.361,0 -0.696,-0.068 -1.006,-0.201c-0.311,-0.134 -0.581,-0.319 -0.812,-0.553c-0.23,-0.234 -0.411,-0.512 -0.541,-0.83c-0.131,-0.319 -0.194,-0.668 -0.194,-1.045c0,-0.369 0.063,-0.712 0.194,-1.031c0.13,-0.319 0.308,-0.592 0.535,-0.822c0.226,-0.231 0.498,-0.414 0.812,-0.549c0.315,-0.134 0.655,-0.201 1.024,-0.201c0.839,0 1.543,0.349 2.113,1.045l0,-2.944c-0.402,-0.168 -0.785,-0.293 -1.15,-0.373c-0.364,-0.08 -0.737,-0.119 -1.114,-0.119l0,0Zm8.782,0c-0.772,0 -1.478,0.127 -2.12,0.383c-0.642,0.256 -1.193,0.611 -1.654,1.064c-0.461,0.453 -0.822,0.983 -1.082,1.59c-0.26,0.609 -0.391,1.264 -0.391,1.969c0,0.705 0.131,1.363 0.391,1.971c0.26,0.608 0.621,1.136 1.082,1.589c0.461,0.453 1.012,0.807 1.654,1.063c0.642,0.256 1.348,0.385 2.12,0.385c0.764,0 1.468,-0.129 2.113,-0.385c0.646,-0.256 1.2,-0.61 1.666,-1.063c0.465,-0.453 0.83,-0.981 1.09,-1.589c0.259,-0.608 0.39,-1.266 0.39,-1.971c0,-0.705 -0.131,-1.36 -0.39,-1.969c-0.26,-0.607 -0.625,-1.137 -1.09,-1.59c-0.466,-0.453 -1.02,-0.808 -1.666,-1.064c-0.645,-0.256 -1.349,-0.383 -2.113,-0.383Zm-37.564,0.266l0,9.484l2.466,0l0,-3.648l2.354,3.648l3.068,0l-2.98,-3.887c0.679,-0.159 1.192,-0.463 1.541,-0.912c0.348,-0.449 0.521,-1.035 0.521,-1.756c0,-0.403 -0.066,-0.779 -0.197,-1.132c-0.129,-0.351 -0.32,-0.663 -0.576,-0.932c-0.255,-0.267 -0.582,-0.479 -0.977,-0.635c-0.394,-0.154 -0.854,-0.23 -1.383,-0.23l-3.838,0l0.001,0Zm8.919,0l0,9.484l5.397,0l0,-2.09l-2.932,0l0,-1.635l2.77,0l0,-2.087l-2.77,0l0,-1.586l2.932,0l0,-2.086l-5.397,0l0,0Zm36.645,0l-1.609,9.484l2.453,0l0.817,-5.461l2.127,5.461l0.98,0l2.24,-5.461l0.817,5.461l2.453,0l-1.61,-9.484l-2.439,0l-1.887,5.054l-1.9,-5.054l-2.442,0l0,0Zm11.838,0l0,9.484l3.963,0c0.504,0 0.956,-0.059 1.358,-0.176c0.404,-0.117 0.746,-0.294 1.027,-0.529c0.281,-0.234 0.499,-0.524 0.654,-0.869c0.155,-0.344 0.233,-0.738 0.233,-1.182c0,-0.286 -0.034,-0.553 -0.102,-0.804c-0.066,-0.252 -0.178,-0.478 -0.334,-0.68c-0.154,-0.201 -0.355,-0.371 -0.603,-0.508c-0.248,-0.139 -0.547,-0.241 -0.899,-0.309c0.352,-0.219 0.615,-0.484 0.787,-0.8c0.172,-0.314 0.256,-0.709 0.256,-1.188c0,-0.788 -0.227,-1.39 -0.679,-1.81c-0.453,-0.42 -1.114,-0.629 -1.987,-0.629l-3.674,0l0,0Zm2.465,1.884l0.453,0c0.773,0 1.159,0.308 1.159,0.92c0,0.612 -0.386,0.918 -1.159,0.918l-0.453,0l0,-1.838l0,0Zm-57.4,0.014l0.465,0c0.486,0 0.859,0.1 1.119,0.301c0.261,0.202 0.391,0.492 0.391,0.869c0,0.377 -0.13,0.666 -0.391,0.867c-0.26,0.202 -0.633,0.301 -1.119,0.301l-0.465,0l0,-2.338l0,0Zm35.098,0.227c0.36,0 0.703,0.065 1.026,0.195c0.323,0.13 0.607,0.313 0.855,0.547c0.246,0.234 0.443,0.511 0.586,0.83c0.142,0.319 0.213,0.666 0.213,1.043c0,0.378 -0.071,0.727 -0.213,1.045c-0.143,0.318 -0.34,0.595 -0.586,0.83c-0.248,0.235 -0.532,0.418 -0.855,0.547c-0.323,0.131 -0.666,0.195 -1.026,0.195c-0.361,0 -0.703,-0.064 -1.025,-0.195c-0.324,-0.129 -0.606,-0.312 -0.85,-0.547c-0.242,-0.235 -0.436,-0.512 -0.578,-0.83c-0.143,-0.318 -0.215,-0.667 -0.215,-1.045c0,-0.377 0.072,-0.724 0.215,-1.043c0.142,-0.319 0.336,-0.596 0.578,-0.83c0.244,-0.234 0.526,-0.417 0.85,-0.547c0.322,-0.13 0.664,-0.195 1.025,-0.195Zm22.303,3.433l0.543,0c0.62,0 1.065,0.081 1.334,0.241c0.267,0.159 0.401,0.414 0.401,0.767c0,0.351 -0.134,0.608 -0.401,0.768c-0.269,0.16 -0.714,0.236 -1.334,0.236l-0.543,0l0,-2.012l0,0Zm0.924,7.823c-0.564,0 -1,0.172 -1.305,0.517c-0.306,0.347 -0.459,0.842 -0.459,1.485l0,0.353l-0.703,0l0,0.861l0.703,0l0,4.25l1.377,0l0,-4.25l1.84,0l0,4.25l1.379,0l0,-5.111l-3.219,0l0,-0.316c0,-0.776 0.213,-1.164 0.639,-1.164c0.185,0 0.47,0.084 0.855,0.255l0,-0.941c-0.391,-0.127 -0.76,-0.189 -1.107,-0.189l0,0Zm-11.369,0.115l0,7.351l1.123,0l0.256,-0.515c0.404,0.423 0.89,0.633 1.461,0.633c0.664,0 1.195,-0.256 1.592,-0.766c0.398,-0.511 0.597,-1.193 0.597,-2.047c0,-0.787 -0.177,-1.407 -0.529,-1.857c-0.353,-0.45 -0.835,-0.676 -1.449,-0.676c-0.761,0 -1.318,0.36 -1.672,1.08l0,-3.203l-1.379,0l0,0Zm15.922,0l0,7.351l1.379,0l0,-7.351l-1.379,0Zm-2.873,0.228l0,1.153l1.152,0l0,-1.153l-1.152,0Zm-39.021,0.993l-1.377,0.16l0,0.859l-0.572,0l0,0.861l0.572,0l0,2.692c0,1.117 0.597,1.676 1.791,1.676c0.19,0 0.448,-0.05 0.777,-0.145l0,-0.838c-0.165,0.043 -0.305,0.067 -0.422,0.067c-0.513,0 -0.769,-0.316 -0.769,-0.944l0,-2.508l1.094,0l0,-0.861l-1.094,0l0,-1.019l0,0Zm46.439,0l-1.379,0.16l0,0.859l-0.572,0l0,0.861l0.572,0l0,2.692c0,1.117 0.599,1.676 1.793,1.676c0.189,0 0.448,-0.05 0.777,-0.145l0,-0.838c-0.165,0.043 -0.304,0.067 -0.423,0.067c-0.511,0 -0.768,-0.316 -0.768,-0.944l0,-2.508l1.094,0l0,-0.861l-1.094,0l0,-1.019l0,0Zm-84.404,0.902c-0.73,0 -1.274,0.36 -1.631,1.08l0,-0.963l-1.377,0l0,5.111l1.377,0l0,-3.244c0.344,-0.555 0.792,-0.834 1.342,-0.834c0.168,0 0.349,0.037 0.545,0.108l0,-1.231c-0.084,-0.018 -0.169,-0.027 -0.256,-0.027l0,0Zm3.332,0c-0.741,0 -1.338,0.241 -1.789,0.724c-0.452,0.483 -0.678,1.121 -0.678,1.913c0,0.838 0.247,1.498 0.74,1.982c0.493,0.484 1.169,0.727 2.022,0.727c0.587,0 1.207,-0.098 1.861,-0.29l0,-0.966c-0.58,0.214 -1.101,0.32 -1.562,0.32c-0.979,0 -1.514,-0.487 -1.608,-1.463l3.17,0c0,-1.02 -0.171,-1.768 -0.515,-2.24c-0.344,-0.471 -0.893,-0.707 -1.641,-0.707l0,0Zm5.574,0c-0.665,0 -1.181,0.134 -1.551,0.402c-0.368,0.269 -0.554,0.646 -0.554,1.131c0,0.347 0.109,0.638 0.326,0.873c0.217,0.237 0.581,0.457 1.086,0.662l0.465,0.188c0.466,0.186 0.699,0.402 0.699,0.65c0,0.385 -0.284,0.578 -0.85,0.578c-0.484,0 -1.067,-0.141 -1.75,-0.427l0,1.009c0.627,0.186 1.25,0.28 1.864,0.28c0.64,0 1.157,-0.152 1.556,-0.45c0.398,-0.3 0.6,-0.69 0.6,-1.169c0,-0.367 -0.119,-0.668 -0.352,-0.901c-0.236,-0.233 -0.653,-0.462 -1.252,-0.689l-0.398,-0.153c-0.423,-0.161 -0.635,-0.358 -0.635,-0.591c0,-0.353 0.287,-0.53 0.857,-0.53c0.363,0 0.82,0.094 1.373,0.287l0,-0.966c-0.574,-0.122 -1.069,-0.184 -1.484,-0.184l0,0Zm5.576,0c-0.813,0 -1.454,0.241 -1.927,0.719c-0.474,0.478 -0.711,1.129 -0.711,1.955c0,0.817 0.235,1.465 0.705,1.947c0.47,0.483 1.103,0.725 1.9,0.725c0.835,0 1.491,-0.238 1.965,-0.713c0.475,-0.474 0.713,-1.131 0.713,-1.969c0,-0.82 -0.238,-1.467 -0.711,-1.945c-0.473,-0.478 -1.118,-0.719 -1.934,-0.719l0,0Zm7.032,0c-0.711,0 -1.293,0.36 -1.743,1.08l0,-0.963l-1.377,0l0,5.111l1.377,0l0,-3.214c0.404,-0.619 0.825,-0.928 1.262,-0.928c0.385,0 0.576,0.289 0.576,0.869l0,3.273l1.379,0l0,-3.611c0,-0.5 -0.131,-0.895 -0.394,-1.184c-0.264,-0.289 -0.624,-0.433 -1.08,-0.433l0,0Zm4.961,0c-0.611,0 -1.229,0.118 -1.852,0.355l0,0.95c0.549,-0.304 1.092,-0.457 1.629,-0.457c0.606,0 0.908,0.266 0.908,0.796l0,0.465l-0.369,0c-0.841,0 -1.487,0.153 -1.938,0.459c-0.452,0.306 -0.677,0.741 -0.677,1.305c0,0.435 0.14,0.789 0.42,1.062c0.279,0.273 0.641,0.411 1.087,0.411c0.525,0 1.018,-0.223 1.477,-0.666l0.061,0c0.161,0.443 0.524,0.666 1.089,0.666c0.224,0 0.48,-0.044 0.772,-0.131l-0.031,-0.774c-0.075,0.013 -0.137,0.018 -0.184,0.018c-0.257,0 -0.385,-0.2 -0.385,-0.6l0,-2.261c0,-1.065 -0.669,-1.598 -2.007,-1.598l0,0Zm6.906,0c-0.711,0 -1.292,0.36 -1.742,1.08l0,-0.963l-1.379,0l0,5.111l1.379,0l0,-3.214c0.403,-0.619 0.824,-0.928 1.261,-0.928c0.385,0 0.576,0.289 0.576,0.869l0,3.273l1.379,0l0,-3.611c0,-0.5 -0.131,-0.895 -0.394,-1.184c-0.264,-0.289 -0.624,-0.433 -1.08,-0.433l0,0Zm12.438,0c-0.86,0 -1.533,0.236 -2.02,0.707c-0.488,0.472 -0.732,1.126 -0.732,1.961c0,0.825 0.237,1.479 0.711,1.959c0.473,0.478 1.119,0.719 1.935,0.719c0.487,0 1.016,-0.077 1.586,-0.229l0,-0.955c-0.437,0.18 -0.862,0.271 -1.275,0.271c-0.453,0 -0.815,-0.161 -1.086,-0.484c-0.272,-0.323 -0.408,-0.754 -0.408,-1.291c0,-0.525 0.126,-0.945 0.377,-1.262c0.252,-0.316 0.583,-0.472 0.996,-0.472c0.339,0 0.79,0.09 1.355,0.273l0,-0.996c-0.543,-0.133 -1.023,-0.201 -1.439,-0.201l0,0Zm4.963,0c-0.814,0 -1.456,0.241 -1.93,0.719c-0.473,0.478 -0.709,1.129 -0.709,1.955c0,0.817 0.235,1.465 0.705,1.947c0.47,0.483 1.103,0.725 1.902,0.725c0.834,0 1.49,-0.238 1.965,-0.713c0.475,-0.474 0.711,-1.131 0.711,-1.969c0,-0.82 -0.236,-1.467 -0.709,-1.945c-0.473,-0.478 -1.119,-0.719 -1.935,-0.719l0,0Zm6.957,0c-0.746,0 -1.32,0.36 -1.723,1.08l0,-0.963l-1.322,0l0,5.111l1.322,0l0,-3.244c0.391,-0.599 0.789,-0.898 1.195,-0.898c0.407,0 0.61,0.304 0.61,0.912l0,3.23l1.322,0l0,-3.244c0.391,-0.596 0.794,-0.894 1.207,-0.894c0.403,0 0.603,0.303 0.603,0.908l0,3.23l1.325,0l0,-3.681c0,-1.03 -0.469,-1.547 -1.403,-1.547c-0.677,0 -1.254,0.36 -1.732,1.08c-0.055,-0.341 -0.207,-0.606 -0.455,-0.795c-0.248,-0.19 -0.565,-0.285 -0.949,-0.285l0,0Zm31.094,0c-0.743,0 -1.34,0.241 -1.791,0.724c-0.452,0.483 -0.678,1.121 -0.678,1.913c0,0.838 0.246,1.498 0.74,1.982c0.493,0.484 1.167,0.727 2.022,0.727c0.586,0 1.207,-0.098 1.861,-0.29l0,-0.966c-0.58,0.214 -1.101,0.32 -1.564,0.32c-0.977,0 -1.513,-0.487 -1.606,-1.463l3.17,0c0,-1.02 -0.171,-1.768 -0.516,-2.24c-0.345,-0.471 -0.891,-0.707 -1.638,-0.707l0,0Zm6.586,0c-0.728,0 -1.271,0.36 -1.629,1.08l0,-0.963l-1.379,0l0,5.111l1.379,0l0,-3.244c0.345,-0.555 0.792,-0.834 1.341,-0.834c0.168,0 0.349,0.037 0.543,0.108l0,-1.231c-0.083,-0.018 -0.167,-0.027 -0.255,-0.027l0,0Zm-92.127,0.863c0.562,0 0.843,0.435 0.843,1.307l-1.836,0c0.09,-0.872 0.422,-1.307 0.993,-1.307l0,0Zm11.191,0c0.366,0 0.655,0.162 0.865,0.485c0.209,0.323 0.312,0.76 0.312,1.316c0,1.213 -0.395,1.82 -1.187,1.82c-0.36,0 -0.645,-0.162 -0.852,-0.488c-0.209,-0.326 -0.31,-0.766 -0.31,-1.322c0,-0.562 0.102,-1.004 0.312,-1.327c0.21,-0.323 0.497,-0.484 0.86,-0.484l0,0Zm36.299,0c0.366,0 0.654,0.162 0.863,0.485c0.21,0.323 0.316,0.76 0.316,1.316c0,1.213 -0.397,1.82 -1.189,1.82c-0.36,0 -0.643,-0.162 -0.85,-0.488c-0.209,-0.326 -0.314,-0.766 -0.314,-1.322c0,-0.562 0.106,-1.004 0.316,-1.327c0.21,-0.323 0.493,-0.484 0.857,-0.484l0.001,0Zm38.008,0c0.562,0 0.843,0.435 0.843,1.307l-1.836,0c0.09,-0.872 0.423,-1.307 0.993,-1.307l0,0Zm-22.301,0.217c0.674,0 1.011,0.524 1.011,1.57c0,0.546 -0.101,0.984 -0.303,1.311c-0.201,0.327 -0.471,0.49 -0.81,0.49c-0.378,0 -0.734,-0.186 -1.07,-0.559l0,-2.025c0.376,-0.525 0.766,-0.787 1.172,-0.787l0,0Zm-39.654,1.82l0.326,0l0,1.039c-0.338,0.313 -0.669,0.471 -0.992,0.471c-0.189,0 -0.348,-0.065 -0.477,-0.193c-0.128,-0.129 -0.193,-0.289 -0.193,-0.479c0,-0.559 0.445,-0.838 1.335,-0.838l0.001,0Z" style="fill:#FDDEA2;fill-rule:nonzero;"/>
    <path d="M111.991,153.2c-0.332,0.006 -0.596,0.279 -0.59,0.611l0,1.408c-2.521,0.13 -5.006,1.043 -7.047,2.756c-4.419,3.708 -5.55,10.112 -2.668,15.105l0.301,0.52l10.035,-5.793l10.035,5.793l0.301,-0.52c2.882,-4.993 1.752,-11.398 -2.668,-15.105c-2.052,-1.722 -4.555,-2.636 -7.09,-2.757l0,-1.411c0,-0.338 -0.272,-0.612 -0.61,-0.607l0.001,0Zm-0.586,3.219l0.019,10.35l-8.903,5.14c-2.209,-4.402 -1.209,-9.813 2.606,-13.014c1.819,-1.527 4.031,-2.348 6.277,-2.476l0.001,0Zm1.199,0c2.259,0.121 4.488,0.94 6.316,2.476c3.816,3.201 4.814,8.612 2.604,13.014l-8.902,-5.14l-0.018,-10.35Zm7.932,17.562l0.01,1.582l-1.605,0.008c-0.831,-0.028 -0.825,1.235 0.01,1.199l1.605,-0.008l0.01,1.629c-0.026,0.831 1.237,0.822 1.199,-0.008l-0.01,-1.625l1.604,-0.008c0.801,-0.004 0.795,-1.205 -0.01,-1.201l-1.605,0.008l-0.01,-1.584c0,-0.771 -1.198,-0.756 -1.198,0.008l0,0Zm-15.172,1.445l-4.414,0.02c-0.801,0.004 -0.795,1.205 0.01,1.201l4.414,-0.022c0.831,0.028 0.825,-1.235 -0.01,-1.199Z" style="fill:#FDDEA2;fill-rule:nonzero;"/>
    <path d="M50.056,233.497c-5.705,0 -11.412,1.934 -16.027,5.804c-9.229,7.746 -11.587,21.128 -5.564,31.564c0.392,0.723 1.469,0.101 1.039,-0.599c-5.733,-9.934 -3.488,-22.672 5.297,-30.045c8.786,-7.369 21.725,-7.369 30.51,0c8.786,7.372 11.03,20.111 5.297,30.045c-0.43,0.7 0.647,1.322 1.039,0.599c6.023,-10.436 3.666,-23.819 -5.565,-31.564c-4.614,-3.87 -10.32,-5.804 -16.025,-5.804l-0.001,0Zm-18.883,41.52c-2.371,0 -4.306,1.935 -4.306,4.306c0,2.371 1.935,4.305 4.306,4.305c2.371,0 4.307,-1.934 4.307,-4.305c0,-2.371 -1.936,-4.306 -4.307,-4.306Zm37.766,0c-2.371,0 -4.304,1.933 -4.304,4.304c0,2.371 1.933,4.307 4.304,4.307c2.371,0 4.307,-1.936 4.307,-4.307c0,-2.371 -1.936,-4.304 -4.307,-4.304Zm-37.766,1.199c1.723,0 3.106,1.385 3.106,3.107c0,1.723 -1.383,3.106 -3.106,3.106c-1.722,0 -3.105,-1.383 -3.105,-3.106c0,-1.722 1.383,-3.107 3.105,-3.107Z" style="fill:#FDDEA2;fill-rule:nonzero;"/>
    <path d="M111.935,233.46c-0.332,0.006 -0.596,0.279 -0.59,0.611l0,1.408c-2.521,0.13 -5.006,1.042 -7.047,2.756c-4.419,3.707 -5.55,10.112 -2.668,15.105l0.301,0.52l10.035,-5.793l10.035,5.793l0.301,-0.52c2.882,-4.993 1.752,-11.398 -2.668,-15.105c-2.052,-1.723 -4.555,-2.636 -7.09,-2.758l0,-1.41c0,-0.338 -0.272,-0.613 -0.61,-0.607l0.001,0Zm-0.586,3.218l0.019,10.35l-8.903,5.141c-2.209,-4.402 -1.209,-9.813 2.606,-13.014c1.819,-1.527 4.031,-2.348 6.277,-2.477l0.001,0Zm1.199,0c2.259,0.121 4.488,0.941 6.316,2.477c3.816,3.2 4.814,8.611 2.604,13.014l-8.902,-5.141l-0.018,-10.35Zm7.932,17.562l0.01,1.582l-1.605,0.008c-0.831,-0.027 -0.825,1.236 0.01,1.2l1.605,-0.008l0.01,1.628c-0.026,0.831 1.237,0.823 1.199,-0.008l-0.01,-1.625l1.604,-0.008c0.801,-0.004 0.795,-1.205 -0.01,-1.201l-1.605,0.008l-0.01,-1.584c0,-0.77 -1.198,-0.755 -1.198,0.008l0,0Zm-15.172,1.446l-4.414,0.019c-0.801,0.004 -0.795,1.205 0.01,1.201l4.414,-0.021c0.831,0.028 0.825,-1.235 -0.01,-1.199Z" style="fill:#FDDEA2;fill-rule:nonzero;"/>
    <path d="M38.757,124.161l0,1.328l1.287,0l0,4.707l1.57,0l0,-4.707l1.287,0l0,-1.328l-4.144,0Zm4.841,0l0,3.498c0,0.94 0.217,1.623 0.649,2.056c0.432,0.432 1.092,0.649 1.984,0.649c0.892,0 1.553,-0.217 1.981,-0.649c0.428,-0.433 0.644,-1.116 0.644,-2.056l0,-3.498l-1.56,0l0,3.281c0,0.176 -0.01,0.357 -0.022,0.541c-0.012,0.184 -0.055,0.352 -0.123,0.5c-0.068,0.148 -0.176,0.271 -0.316,0.363c-0.14,0.092 -0.344,0.141 -0.604,0.141c-0.26,0 -0.463,-0.049 -0.607,-0.141c-0.144,-0.092 -0.248,-0.215 -0.316,-0.363c-0.068,-0.148 -0.11,-0.316 -0.122,-0.5c-0.012,-0.184 -0.019,-0.365 -0.019,-0.541l0,-3.281l-1.569,0Zm6.524,0l0,6.035l1.566,0l0,-3.692l2.899,3.692l1.56,0l0,-6.035l-1.56,0l0,3.689l-2.899,-3.689l-1.566,0Zm7.291,0l0,6.035l3.431,0l0,-1.33l-1.865,0l0,-1.039l1.762,0l0,-1.331l-1.762,0l0,-1.007l1.865,0l0,-1.328l-3.431,0Z" style="fill:#FDDEA2;fill-rule:nonzero;"/>
    <path d="M108.999,115.54l-3.289,8.027l1.137,0l3.297,-8.027l-1.145,0Zm4.619,0.441c-0.493,0 -0.941,0.081 -1.349,0.245c-0.408,0.164 -0.761,0.386 -1.053,0.675c-0.292,0.288 -0.524,0.624 -0.688,1.012c-0.164,0.388 -0.248,0.805 -0.248,1.254c0,0.448 0.084,0.864 0.248,1.252c0.164,0.388 0.396,0.724 0.688,1.012c0.292,0.289 0.645,0.513 1.053,0.677c0.408,0.164 0.856,0.245 1.349,0.245c0.484,0 0.932,-0.081 1.344,-0.245c0.412,-0.164 0.765,-0.388 1.06,-0.677c0.296,-0.288 0.528,-0.624 0.692,-1.012c0.164,-0.388 0.248,-0.804 0.248,-1.252c0,-0.449 -0.084,-0.866 -0.248,-1.254c-0.164,-0.388 -0.396,-0.724 -0.692,-1.012c-0.296,-0.289 -0.648,-0.511 -1.06,-0.675c-0.412,-0.164 -0.86,-0.245 -1.344,-0.245Zm7.242,0c-0.42,0 -0.825,0.081 -1.209,0.237c-0.384,0.156 -0.719,0.375 -1.011,0.656c-0.292,0.28 -0.525,0.612 -0.698,1c-0.172,0.388 -0.259,0.812 -0.259,1.277c0,0.464 0.087,0.892 0.263,1.284c0.177,0.392 0.409,0.731 0.701,1.015c0.292,0.285 0.628,0.51 1.008,0.666c0.38,0.156 0.782,0.237 1.198,0.237c0.204,0 0.407,-0.021 0.615,-0.061c0.208,-0.04 0.432,-0.103 0.672,-0.187l0.16,-0.057l0,-1.857c-0.4,0.428 -0.852,0.64 -1.352,0.64c-0.228,0 -0.443,-0.045 -0.64,-0.129c-0.196,-0.084 -0.368,-0.203 -0.516,-0.351c-0.148,-0.148 -0.26,-0.324 -0.344,-0.528c-0.084,-0.204 -0.125,-0.424 -0.125,-0.664c0,-0.237 0.041,-0.454 0.125,-0.658c0.084,-0.204 0.196,-0.375 0.34,-0.523c0.144,-0.148 0.316,-0.264 0.516,-0.348c0.201,-0.084 0.416,-0.129 0.652,-0.129c0.532,0 0.98,0.22 1.344,0.664l0,-1.873c-0.256,-0.108 -0.499,-0.182 -0.731,-0.234c-0.232,-0.052 -0.469,-0.076 -0.709,-0.076l0,-0.001Zm-21.473,0.168l2.537,6.036l1.248,0l2.545,-6.036l-1.705,0l-1.465,3.674l-1.455,-3.674l-1.705,0Zm23.338,0l0,1.328l1.287,0l0,4.707l1.571,0l0,-4.707l1.287,0l0,-1.328l-4.145,0Zm-9.107,1.352c0.228,0 0.448,0.041 0.652,0.125c0.204,0.084 0.387,0.2 0.543,0.348c0.156,0.148 0.281,0.323 0.373,0.527c0.092,0.204 0.135,0.425 0.135,0.666c0,0.24 -0.043,0.46 -0.135,0.664c-0.092,0.204 -0.217,0.379 -0.373,0.527c-0.156,0.148 -0.339,0.264 -0.543,0.348c-0.204,0.084 -0.424,0.125 -0.652,0.125c-0.228,0 -0.449,-0.041 -0.654,-0.125c-0.204,-0.084 -0.383,-0.2 -0.539,-0.348c-0.156,-0.148 -0.278,-0.323 -0.37,-0.527c-0.092,-0.204 -0.134,-0.424 -0.134,-0.664c0,-0.241 0.043,-0.462 0.134,-0.666c0.092,-0.204 0.214,-0.379 0.37,-0.527c0.156,-0.148 0.335,-0.264 0.539,-0.348c0.205,-0.084 0.426,-0.125 0.654,-0.125Z" style="fill:#FDDEA2;fill-rule:nonzero;"/>
    <path d="M40.139,204.586c-0.421,0 -0.825,0.08 -1.209,0.236c-0.384,0.156 -0.72,0.375 -1.012,0.656c-0.292,0.28 -0.525,0.612 -0.697,1c-0.172,0.388 -0.26,0.813 -0.26,1.278c0,0.464 0.088,0.891 0.264,1.283c0.176,0.392 0.409,0.732 0.701,1.016c0.292,0.285 0.628,0.51 1.008,0.666c0.38,0.156 0.78,0.236 1.197,0.236c0.204,0 0.409,-0.021 0.617,-0.061c0.208,-0.04 0.432,-0.103 0.672,-0.187l0.16,-0.057l0,-1.857c-0.4,0.428 -0.853,0.64 -1.353,0.64c-0.228,0 -0.445,-0.044 -0.641,-0.128c-0.196,-0.084 -0.367,-0.204 -0.515,-0.352c-0.148,-0.148 -0.26,-0.323 -0.344,-0.527c-0.084,-0.204 -0.125,-0.424 -0.125,-0.664c0,-0.237 0.041,-0.453 0.125,-0.657c0.084,-0.204 0.196,-0.377 0.34,-0.525c0.144,-0.148 0.315,-0.264 0.515,-0.348c0.2,-0.084 0.419,-0.127 0.655,-0.127c0.532,0 0.979,0.22 1.344,0.664l0,-1.873c-0.256,-0.108 -0.501,-0.184 -0.733,-0.236c-0.232,-0.052 -0.469,-0.076 -0.709,-0.076l0,0Zm5.586,0c-0.492,0 -0.94,0.08 -1.348,0.244c-0.408,0.164 -0.761,0.387 -1.052,0.676c-0.292,0.288 -0.524,0.625 -0.688,1.013c-0.164,0.388 -0.248,0.803 -0.248,1.252c0,0.448 0.084,0.864 0.248,1.252c0.164,0.388 0.396,0.724 0.688,1.012c0.292,0.289 0.644,0.514 1.052,0.678c0.408,0.164 0.856,0.244 1.348,0.244c0.484,0 0.934,-0.08 1.346,-0.244c0.413,-0.164 0.764,-0.389 1.06,-0.678c0.296,-0.288 0.528,-0.624 0.692,-1.012c0.164,-0.388 0.248,-0.804 0.248,-1.252c0,-0.449 -0.084,-0.864 -0.248,-1.252c-0.164,-0.388 -0.396,-0.725 -0.692,-1.013c-0.296,-0.289 -0.647,-0.512 -1.06,-0.676c-0.412,-0.164 -0.862,-0.244 -1.346,-0.244Zm5.09,0.168l-1.024,6.035l1.561,0l0.519,-3.475l1.354,3.475l0.623,0l1.426,-3.475l0.519,3.475l1.561,0l-1.024,-6.035l-1.552,0l-1.202,3.217l-1.207,-3.217l-1.554,0l0,0Zm7.531,0l0,6.035l2.521,0c0.32,0 0.609,-0.037 0.866,-0.113c0.256,-0.076 0.472,-0.188 0.652,-0.336c0.18,-0.148 0.316,-0.333 0.416,-0.553c0.1,-0.22 0.148,-0.468 0.148,-0.752c0,-0.18 -0.02,-0.352 -0.064,-0.512c-0.044,-0.16 -0.113,-0.303 -0.213,-0.431c-0.1,-0.128 -0.227,-0.237 -0.383,-0.325c-0.156,-0.088 -0.348,-0.153 -0.572,-0.197c0.224,-0.14 0.392,-0.308 0.5,-0.508c0.108,-0.2 0.164,-0.451 0.164,-0.755c0,-0.5 -0.144,-0.884 -0.432,-1.153c-0.289,-0.268 -0.709,-0.4 -1.265,-0.4l-2.338,0l0,0Zm1.57,1.201l0.287,0c0.492,0 0.737,0.196 0.737,0.584c0,0.388 -0.245,0.584 -0.737,0.584l-0.287,0l0,-1.168l0,0Zm-14.191,0.152c0.228,0 0.449,0.039 0.653,0.123c0.204,0.084 0.388,0.2 0.544,0.348c0.156,0.148 0.281,0.325 0.374,0.529c0.092,0.204 0.134,0.423 0.134,0.664c0,0.24 -0.042,0.46 -0.134,0.664c-0.093,0.204 -0.218,0.38 -0.374,0.528c-0.156,0.148 -0.34,0.265 -0.544,0.349c-0.204,0.084 -0.425,0.123 -0.653,0.123c-0.228,0 -0.446,-0.039 -0.65,-0.123c-0.204,-0.084 -0.385,-0.201 -0.541,-0.349c-0.156,-0.148 -0.277,-0.324 -0.369,-0.528c-0.092,-0.204 -0.135,-0.424 -0.135,-0.664c0,-0.241 0.043,-0.46 0.135,-0.664c0.092,-0.204 0.213,-0.381 0.369,-0.529c0.156,-0.148 0.337,-0.264 0.541,-0.348c0.204,-0.084 0.422,-0.123 0.65,-0.123Zm14.191,2.184l0.344,0c0.396,0 0.676,0.052 0.848,0.152c0.172,0.1 0.255,0.265 0.255,0.489c0,0.224 -0.083,0.388 -0.255,0.488c-0.172,0.1 -0.452,0.152 -0.848,0.152l-0.344,0l0,-1.281l0,0Z" style="fill:#FDDEA2;fill-rule:nonzero;"/>
    <path d="M62.293,286.33c-0.42,0 -0.825,0.08 -1.209,0.236c-0.384,0.156 -0.72,0.376 -1.012,0.657c-0.292,0.28 -0.523,0.612 -0.695,1c-0.172,0.388 -0.262,0.812 -0.262,1.277c0,0.464 0.09,0.891 0.266,1.283c0.176,0.392 0.407,0.734 0.699,1.018c0.292,0.285 0.63,0.508 1.01,0.664c0.38,0.156 0.779,0.236 1.195,0.236c0.204,0 0.409,-0.021 0.617,-0.06c0.208,-0.04 0.432,-0.104 0.672,-0.188l0.16,-0.057l0,-1.857c-0.4,0.428 -0.851,0.641 -1.351,0.641c-0.228,0 -0.445,-0.043 -0.641,-0.127c-0.196,-0.084 -0.369,-0.206 -0.517,-0.354c-0.148,-0.148 -0.26,-0.323 -0.344,-0.527c-0.084,-0.204 -0.123,-0.424 -0.123,-0.664c0,-0.237 0.039,-0.452 0.123,-0.656c0.084,-0.204 0.196,-0.378 0.34,-0.526c0.144,-0.148 0.317,-0.263 0.517,-0.347c0.2,-0.084 0.417,-0.127 0.653,-0.127c0.532,0 0.979,0.22 1.343,0.664l0,-1.873c-0.256,-0.108 -0.5,-0.185 -0.732,-0.237c-0.232,-0.052 -0.469,-0.076 -0.709,-0.076l0,0Zm-34.357,0.168l0,6.035l1.568,0l0,-2.369l1.721,0l0,-1.33l-1.721,0l0,-1.008l1.889,0l0,-1.328l-3.457,0Zm4.393,0l0,6.035l3.435,0l0,-1.33l-1.865,0l0,-1.039l1.76,0l0,-1.33l-1.76,0l0,-1.008l1.865,0l0,-1.328l-3.435,0Zm4.562,0l0,6.035l3.434,0l0,-1.33l-1.865,0l0,-1.039l1.761,0l0,-1.33l-1.761,0l0,-1.008l1.865,0l0,-1.328l-3.434,0Zm4.563,0l0,6.035l2.32,0c0.416,0 0.805,-0.084 1.166,-0.248c0.36,-0.164 0.675,-0.389 0.943,-0.666c0.268,-0.276 0.481,-0.599 0.633,-0.963c0.152,-0.364 0.227,-0.744 0.227,-1.14c0,-0.401 -0.075,-0.785 -0.231,-1.149c-0.156,-0.364 -0.369,-0.685 -0.637,-0.961c-0.268,-0.276 -0.583,-0.496 -0.943,-0.66c-0.361,-0.164 -0.746,-0.248 -1.158,-0.248l-2.32,0Zm6.291,0l0,6.035l2.521,0c0.32,0 0.607,-0.035 0.863,-0.111c0.256,-0.076 0.473,-0.19 0.653,-0.338c0.181,-0.148 0.316,-0.333 0.416,-0.553c0.1,-0.22 0.148,-0.468 0.148,-0.752c0,-0.18 -0.02,-0.351 -0.064,-0.511c-0.044,-0.16 -0.111,-0.304 -0.211,-0.432c-0.1,-0.128 -0.229,-0.236 -0.385,-0.324c-0.156,-0.088 -0.348,-0.154 -0.572,-0.198c0.224,-0.14 0.392,-0.307 0.5,-0.507c0.108,-0.2 0.164,-0.452 0.164,-0.756c0,-0.5 -0.144,-0.884 -0.432,-1.153c-0.288,-0.268 -0.709,-0.4 -1.265,-0.4l-2.336,0Zm7.17,0l-2.297,6.035l1.672,0l0.361,-1.049l2.242,0l0.359,1.049l1.672,0l-2.297,-6.035l-1.712,0Zm10.068,0l0,6.035l1.57,0l0,-2.617l2.039,2.617l2.033,0l-2.617,-3.178l2.393,-2.857l-1.936,0l-1.912,2.488l0,-2.488l-1.57,0Zm-15.67,1.201l0.289,0c0.492,0 0.734,0.196 0.734,0.584c0,0.388 -0.242,0.584 -0.734,0.584l-0.289,0l0,-1.168Zm-6.291,0.127l0.361,0c0.268,0 0.507,0.045 0.719,0.129c0.212,0.084 0.393,0.204 0.541,0.352c0.149,0.148 0.259,0.329 0.339,0.537c0.08,0.208 0.122,0.431 0.122,0.672c0,0.244 -0.042,0.471 -0.118,0.675c-0.076,0.204 -0.187,0.386 -0.336,0.534c-0.148,0.148 -0.329,0.267 -0.541,0.351c-0.212,0.084 -0.454,0.127 -0.726,0.127l-0.362,0l0.001,-3.377Zm12.75,0.457l0.703,2.008l-1.409,0l0.706,-2.008Zm-6.459,1.752l0.343,0c0.396,0 0.676,0.052 0.848,0.152c0.172,0.1 0.258,0.265 0.258,0.489c0,0.224 -0.086,0.388 -0.258,0.488c-0.172,0.1 -0.452,0.152 -0.848,0.152l-0.343,0l0,-1.281Z" style="fill:#FDDEA2;fill-rule:nonzero;"/>
    <path d="M50.063,151.951c-0.328,0.006 -0.594,0.28 -0.589,0.609l0,2.125c-5.337,0.14 -10.637,2.003 -14.955,5.627c-8.984,7.539 -11.281,20.566 -5.414,30.723c0.104,0.194 0.307,0.314 0.527,0.314c0.329,0 0.6,-0.27 0.6,-0.6c0,-0.11 -0.03,-0.219 -0.088,-0.313c-5.577,-9.655 -3.393,-22.037 5.146,-29.203c4.097,-3.438 9.123,-5.209 14.186,-5.348l0.041,23.023c0,0.007 0,0.015 0,0.022c0,0.33 0.271,0.601 0.6,0.601c0.329,0 0.6,-0.271 0.6,-0.601c0,-0.008 0,-0.016 -0.001,-0.024l-0.041,-23.025c5.091,0.122 10.149,1.895 14.268,5.352c8.544,7.166 10.723,19.548 5.151,29.203c-0.053,0.091 -0.081,0.195 -0.081,0.3c0,0.33 0.271,0.601 0.601,0.601c0.215,0 0.414,-0.115 0.521,-0.302c5.863,-10.157 3.568,-23.184 -5.42,-30.723c-4.342,-3.643 -9.675,-5.509 -15.041,-5.631l0,-2.123c0,-0.002 0,-0.005 0,-0.007c0,-0.329 -0.271,-0.6 -0.6,-0.6c-0.003,0 -0.006,0 -0.01,0l-0.001,0Zm19.768,40.668c-0.328,0.007 -0.594,0.282 -0.587,0.611l0.022,3.963l-4.006,0.018c-0.328,0.002 -0.596,0.273 -0.596,0.6c0,0.33 0.271,0.601 0.601,0.601c0.001,0 0.003,0 0.005,0l4.004,-0.02l0.021,4.055c-0.001,0.007 -0.001,0.013 -0.001,0.019c0,0.329 0.271,0.6 0.6,0.6c0.33,0 0.6,-0.271 0.6,-0.6c0,-0.009 0,-0.018 0,-0.027l-0.021,-4.051l4.01,-0.019c0.006,0 0.012,0 0.018,0c0.329,0 0.6,-0.271 0.6,-0.6c0,-0.329 -0.271,-0.6 -0.6,-0.6c-0.01,0 -0.019,0 -0.028,0.001l-4.008,0.017l-0.022,-3.965c0,-0.001 0,-0.002 0,-0.003c0,-0.329 -0.271,-0.6 -0.6,-0.6c-0.004,0 -0.008,0 -0.012,0l0,0Zm-33.621,4.289l-9.212,0.043c-0.006,0 -0.012,0 -0.018,0c-0.33,0 -0.6,0.271 -0.6,0.6c0,0.329 0.27,0.6 0.6,0.6c0.009,0 0.018,0 0.028,-0.001l9.212,-0.043c0.006,0 0.012,0 0.018,0c0.33,0 0.6,-0.27 0.6,-0.6c0,-0.329 -0.27,-0.6 -0.6,-0.6c-0.009,0 -0.018,0.001 -0.028,0.001Z" style="fill:#FDDEA2;"/>
    <path d="M49.98,71.036c-0.328,0.006 -0.595,0.281 -0.589,0.609l0,2.125c-5.337,0.14 -10.637,2.003 -14.955,5.627c-8.984,7.539 -11.281,20.566 -5.414,30.723c0.104,0.194 0.307,0.315 0.527,0.315c0.329,0 0.6,-0.271 0.6,-0.601c0,-0.11 -0.031,-0.219 -0.088,-0.313c-5.577,-9.655 -3.393,-22.037 5.146,-29.203c4.097,-3.438 9.123,-5.209 14.186,-5.348l0.041,23.023c0,0.008 0,0.015 0,0.023c0,0.329 0.271,0.6 0.6,0.6c0.329,0 0.6,-0.271 0.6,-0.6c0,-0.009 0,-0.017 -0.001,-0.025l-0.041,-23.025c5.091,0.122 10.149,1.895 14.268,5.352c8.544,7.166 10.723,19.548 5.151,29.203c-0.053,0.091 -0.081,0.195 -0.081,0.3c0,0.33 0.271,0.601 0.601,0.601c0.215,0 0.414,-0.115 0.521,-0.302c5.863,-10.157 3.568,-23.184 -5.42,-30.723c-4.342,-3.643 -9.675,-5.509 -15.041,-5.631l0,-2.123c0,-0.002 0,-0.005 0,-0.007c0,-0.329 -0.271,-0.6 -0.6,-0.6c-0.003,0 -0.006,0 -0.01,0l-0.001,0Zm19.768,40.668c-0.328,0.007 -0.594,0.283 -0.587,0.611l0.022,3.963l-4.006,0.018c-0.328,0.003 -0.596,0.273 -0.596,0.6c0,0.33 0.271,0.601 0.601,0.601c0.001,0 0.003,0 0.005,0l4.004,-0.019l0.021,4.054c-0.001,0.007 -0.001,0.013 -0.001,0.019c0,0.33 0.271,0.6 0.6,0.6c0.329,0 0.6,-0.27 0.6,-0.6c0,-0.009 0,-0.018 0,-0.027l-0.021,-4.051l4.01,-0.019c0.005,0 0.011,0 0.017,0c0.33,0 0.601,-0.271 0.601,-0.6c0,-0.329 -0.271,-0.6 -0.601,-0.6c-0.009,0 -0.018,0 -0.027,0.001l-4.008,0.017l-0.022,-3.964c0,-0.002 0,-0.003 0,-0.004c0,-0.329 -0.271,-0.6 -0.6,-0.6c-0.004,0 -0.008,0 -0.012,0l0,0Zm-33.621,4.289l-9.212,0.043c-0.006,0 -0.012,0 -0.018,0c-0.33,0 -0.6,0.271 -0.6,0.6c0,0.329 0.27,0.6 0.6,0.6c0.009,0 0.018,0 0.028,-0.001l9.212,-0.043c0.006,0.001 0.012,0.001 0.018,0.001c0.33,0 0.6,-0.271 0.6,-0.6c0,-0.33 -0.27,-0.601 -0.6,-0.601c-0.009,0 -0.018,0.001 -0.028,0.001Z" style="fill:#FDDEA2;"/>
    <path d="M23.411,347.84l0,6.035l1.57,0l0,-6.035l-1.57,0Zm2.834,0l0,6.035l1.568,0l0,-3.689l2.897,3.689l1.56,0l0,-6.035l-1.56,0l0,3.691l-2.897,-3.691l-1.568,0Zm7.291,0l0,6.035l1.569,0l-0.001,-2l0.928,0c0.676,0 1.197,-0.177 1.557,-0.529c0.361,-0.352 0.541,-0.848 0.541,-1.488c0,-0.64 -0.18,-1.137 -0.541,-1.489c-0.36,-0.353 -0.881,-0.529 -1.557,-0.529l-2.496,0Zm5.426,0l0,3.498c0,0.94 0.216,1.626 0.648,2.059c0.432,0.432 1.093,0.646 1.985,0.646c0.892,0 1.552,-0.214 1.98,-0.646c0.428,-0.433 0.645,-1.119 0.645,-2.059l0,-3.498l-1.561,0l0,3.283c0,0.176 -0.01,0.355 -0.019,0.539c-0.012,0.184 -0.056,0.352 -0.125,0.5c-0.068,0.148 -0.176,0.273 -0.316,0.365c-0.14,0.092 -0.344,0.139 -0.604,0.139c-0.26,0 -0.463,-0.047 -0.607,-0.139c-0.144,-0.092 -0.249,-0.217 -0.317,-0.365c-0.068,-0.148 -0.109,-0.316 -0.121,-0.5c-0.012,-0.184 -0.02,-0.363 -0.02,-0.539l0,-3.283l-1.568,0Zm5.953,0l0,1.33l1.289,0l0,4.705l1.57,0l0,-4.705l1.287,0l0,-1.33l-4.146,0Zm-9.81,1.266l0.519,0c0.576,0 0.865,0.252 0.865,0.752c0,0.5 -0.289,0.752 -0.865,0.752l-0.519,0l0,-1.504Z" style="fill:#FDDEA2;"/>
    <path d="M23.506,315.32l0,3.529l1.412,0l0,0.997l-2.589,0l0,-4.526l1.177,0Z" style="fill:rgb(140,140,140);fill-rule:nonzero;"/>
    <path d="M50.144,317.35l0.224,0c0.232,0 0.408,-0.048 0.532,-0.144c0.124,-0.096 0.188,-0.236 0.188,-0.416c0,-0.181 -0.064,-0.317 -0.188,-0.413c-0.124,-0.096 -0.3,-0.144 -0.532,-0.144l-0.224,0l0,1.117Zm2.589,2.501l-1.465,0l-1.124,-1.741l0,1.741l-1.177,0l0,-4.526l1.833,0c0.252,0 0.472,0.04 0.66,0.112c0.188,0.076 0.34,0.176 0.464,0.304c0.12,0.128 0.213,0.276 0.277,0.444c0.06,0.168 0.092,0.348 0.092,0.541c0,0.344 -0.084,0.624 -0.249,0.836c-0.168,0.212 -0.412,0.36 -0.736,0.436l1.425,1.853Z" style="fill:rgb(140,140,140);fill-rule:nonzero;"/>
    <path d="M19.721,311.99c-6.033,0 -10.942,4.481 -10.942,9.988l0,13.145c0,0.801 1.316,0.801 1.316,0l0,-13.145c0,-4.857 4.305,-8.789 9.626,-8.789l33.375,0c5.321,0 9.629,3.932 9.629,8.789l0,13.145c0,0.843 1.349,0.831 1.313,0l0,-13.145c0,-5.506 -4.909,-9.988 -10.942,-9.988l-33.375,0Z" style="fill:#FDDEA2;"/>
    <path d="M97.096,311.99c-5.763,0 -10.456,4.362 -10.456,9.721l0,23.115c0,5.36 4.693,9.722 10.456,9.722l33.334,0c5.765,0 10.457,-4.363 10.457,-9.722l0,-23.115c0,-5.359 -4.692,-9.721 -10.457,-9.721l-33.334,0Z" style="fill:none;stroke:#FDDEA2;stroke-width:1.25px;stroke-linecap:butt;stroke-linejoin:round;stroke-miterlimit:1.5;"/>
    <path d="M99.888,346.625c-0.493,0 -0.942,0.08 -1.35,0.244c-0.408,0.16 -0.758,0.389 -1.05,0.678c-0.293,0.288 -0.526,0.624 -0.69,1.008c-0.164,0.388 -0.248,0.805 -0.248,1.254c0,0.448 0.084,0.868 0.248,1.252c0.164,0.388 0.397,0.723 0.69,1.011c0.292,0.289 0.642,0.512 1.05,0.676c0.408,0.164 0.857,0.244 1.35,0.244c0.484,0 0.932,-0.08 1.34,-0.244c0.412,-0.164 0.763,-0.387 1.06,-0.676c0.296,-0.288 0.53,-0.623 0.694,-1.011c0.168,-0.384 0.248,-0.804 0.248,-1.252c0,-0.449 -0.08,-0.866 -0.248,-1.254c-0.164,-0.384 -0.398,-0.72 -0.694,-1.008c-0.297,-0.289 -0.648,-0.518 -1.06,-0.678c-0.408,-0.164 -0.856,-0.244 -1.34,-0.244Zm4.334,0.168l0,3.494c0,0.94 0.215,1.626 0.648,2.059c0.432,0.432 1.093,0.646 1.985,0.646c0.889,0 1.548,-0.214 1.98,-0.646c0.428,-0.433 0.645,-1.119 0.645,-2.059l0,-3.494l-1.561,0l0,3.279c0,0.176 -0.01,0.355 -0.019,0.539c-0.016,0.184 -0.057,0.352 -0.125,0.5c-0.072,0.148 -0.174,0.274 -0.314,0.366c-0.14,0.092 -0.345,0.138 -0.606,0.138c-0.26,0 -0.465,-0.046 -0.609,-0.138c-0.144,-0.092 -0.247,-0.218 -0.314,-0.366c-0.068,-0.148 -0.109,-0.316 -0.122,-0.5c-0.012,-0.184 -0.019,-0.363 -0.019,-0.539l0,-3.279l-1.569,0Zm5.955,0l0,1.326l1.283,0l0,4.705l1.569,0l0,-4.705l1.289,0l0,-1.326l-4.141,0Zm4.838,0l0,6.031l1.568,0l0,-2l0.928,0c0.676,0 1.197,-0.177 1.557,-0.529c0.361,-0.352 0.541,-0.848 0.541,-1.488c0,-0.64 -0.18,-1.133 -0.541,-1.485c-0.36,-0.353 -0.881,-0.529 -1.557,-0.529l-2.496,0Zm5.422,0l0,3.494c0,0.94 0.216,1.626 0.648,2.059c0.433,0.432 1.097,0.646 1.985,0.646c0.893,0 1.552,-0.214 1.98,-0.646c0.428,-0.433 0.645,-1.119 0.645,-2.059l0,-3.494l-1.561,0l0,3.279c0,0.176 -0.01,0.355 -0.02,0.539c-0.012,0.184 -0.057,0.352 -0.125,0.5c-0.068,0.148 -0.176,0.274 -0.316,0.366c-0.14,0.092 -0.34,0.138 -0.604,0.138c-0.26,0 -0.463,-0.046 -0.607,-0.138c-0.144,-0.092 -0.249,-0.218 -0.317,-0.366c-0.064,-0.148 -0.105,-0.316 -0.121,-0.5c-0.012,-0.184 -0.02,-0.363 -0.02,-0.539l0,-3.279l-1.567,0Zm5.955,0l0,1.326l1.287,0l0,4.705l1.57,0l0,-4.705l1.284,0l0,-1.326l-4.141,0Zm-9.809,1.262l0.52,0c0.576,0 0.865,0.252 0.865,0.752c0,0.504 -0.289,0.752 -0.865,0.752l-0.52,0l0,-1.504Zm-16.695,0.088c0.228,0 0.445,0.045 0.653,0.125c0.204,0.084 0.383,0.199 0.539,0.347c0.16,0.152 0.285,0.328 0.373,0.528c0.092,0.204 0.137,0.425 0.137,0.666c0,0.24 -0.045,0.464 -0.137,0.664c-0.088,0.204 -0.213,0.379 -0.373,0.527c-0.156,0.152 -0.335,0.264 -0.539,0.348c-0.208,0.084 -0.425,0.125 -0.653,0.125c-0.233,0 -0.448,-0.041 -0.652,-0.125c-0.208,-0.084 -0.389,-0.196 -0.541,-0.348c-0.156,-0.148 -0.279,-0.323 -0.367,-0.527c-0.092,-0.2 -0.137,-0.424 -0.137,-0.664c0,-0.241 0.045,-0.462 0.137,-0.666c0.088,-0.2 0.211,-0.376 0.367,-0.528c0.152,-0.148 0.333,-0.263 0.541,-0.347c0.204,-0.08 0.419,-0.125 0.652,-0.125Z" style="fill:#FDDEA2;fill-rule:nonzero;"/>
    <path d="M99.694,315.32l0,3.529l1.412,0l0,0.997l-2.589,0l0,-4.526l1.177,0Z" style="fill:rgb(137,137,137);fill-rule:nonzero;"/>
    <path d="M124.33,317.35l0.224,0c0.232,0 0.408,-0.048 0.532,-0.144c0.124,-0.096 0.188,-0.236 0.188,-0.416c0,-0.181 -0.064,-0.317 -0.188,-0.413c-0.124,-0.096 -0.3,-0.144 -0.532,-0.144l-0.224,0l0,1.117Zm2.589,2.501l-1.465,0l-1.124,-1.741l0,1.741l-1.177,0l0,-4.526l1.833,0c0.252,0 0.472,0.04 0.66,0.112c0.188,0.076 0.34,0.176 0.464,0.304c0.12,0.128 0.213,0.276 0.277,0.444c0.06,0.168 0.092,0.348 0.092,0.541c0,0.344 -0.084,0.624 -0.249,0.836c-0.168,0.212 -0.412,0.36 -0.736,0.436l1.425,1.853Z" style="fill:rgb(137,137,137);fill-rule:nonzero;"/>
  </g>
</svg>