<svg width="150px" height="380px" version="1.1" xmlns="http://www.w3.org/2000/svg" xmlns:xlink="http://www.w3.org/1999/xlink" xml:space="preserve" xmlns:serif="http://www.serif.com/" style="fill-rule:evenodd;clip-rule:evenodd;stroke-linecap:round;stroke-miterlimit:10;">
  <defs>
    <linearGradient id="_Linear1" x1="0" y1="0" x2="1" y2="0" gradientUnits="userSpaceOnUse" gradientTransform="matrix(0.007008,-37.8989,37.8989,0.007008,75.2834,112.195)">
      <stop offset="0" style="stop-color:#401B5C;stop-opacity:1"/>
      <stop offset="1" style="stop-color:#401B5C;stop-opacity:1"/>
    </linearGradient>
    <linearGradient id="_Linear2" x1="0" y1="0" x2="1" y2="0" gradientUnits="userSpaceOnUse" gradientTransform="matrix(-4.88,-92.58,92.58,-4.88,277.54,345.91)">
      <stop offset="0" style="stop-color:#401B5C;stop-opacity:1"/>
      <stop offset="1" style="stop-color:#401B5C;stop-opacity:1"/>
    </linearGradient>
    <linearGradient id="_Linear3" x1="0" y1="0" x2="1" y2="0" gradientUnits="userSpaceOnUse" gradientTransform="matrix(-4.75,94.86,-94.86,-4.75,277.54,158.47)">
      <stop offset="0" style="stop-color:#401B5C;stop-opacity:1"/>
      <stop offset="1" style="stop-color:#401B5C;stop-opacity:1"/>
    </linearGradient>
    <linearGradient id="_Linear4" x1="0" y1="0" x2="1" y2="0" gradientUnits="userSpaceOnUse" gradientTransform="matrix(1.15392e-16,-1.8845,1.8845,1.15392e-16,56.519,1.9362)">
      <stop offset="0" style="stop-color:#401B5C;stop-opacity:1"/>
      <stop offset="1" style="stop-color:#401B5C;stop-opacity:1"/>
    </linearGradient>
  </defs>
  <g id="Panel">
    <rect x="0" y="0" width="150" height="380" style="fill:url(#_Linear1);"/>
    <rect x="0" y="253.33" width="150" height="126.67" style="fill:url(#_Linear2);"/>
    <rect x="0" y="126.67" width="150" height="126.67" style="fill:url(#_Linear3);"/>
    <rect x="0" y="0" width="150" height="380" style="fill:rgb(16,53,80);fill-opacity:0.1;"/>
    <rect x="0" y="0" width="150" height="2" style="fill:url(#_Linear4);"/>
    <g>
      <path d="M62.9,363.496l3.443,10.383c0.322,0.968 0.909,1.451 1.756,1.451c0.835,0 1.414,-0.476 1.737,-1.435l3.46,-10.398l-2.66,0l-2.574,8.318l-2.49,-8.318l-2.672,-0.001Zm10.598,0l0,8.793c0,0.736 0.078,1.265 0.234,1.588c0.423,0.881 1.214,1.32 2.373,1.32l3.243,0c1.126,0 1.912,-0.429 2.357,-1.287c0.168,-0.324 0.25,-0.87 0.25,-1.639l0,-8.775l-2.506,0l0,8.658l-0.018,0.084c-0.056,0.29 -0.34,0.436 -0.853,0.436l-1.705,0c-0.535,0 -0.826,-0.157 -0.87,-0.469l0,-8.709l-2.505,0Zm9.611,0l0,8.842c0,0.914 0.19,1.598 0.569,2.049c0.378,0.452 1.019,0.717 1.922,0.795c0.123,0.011 0.268,0.015 0.435,0.015l4.664,0l0.016,-2.523l-4.463,0c-0.424,0 -0.634,-0.178 -0.634,-0.535l0,-8.643l-2.509,0Zm7.69,0l0,2.525l2.49,0l0,9.176l2.508,0l0,-9.176l2.523,0l0,-2.525l-7.521,0Z" style="fill:rgb(102,102,102);fill-rule:nonzero;"/>
      <path d="M59.3,369.416c0,-4.509 -3.655,-8.165 -8.164,-8.165c-4.509,0 -8.165,3.656 -8.165,8.165c0,4.509 3.656,8.165 8.165,8.165c4.509,0 8.164,-3.656 8.164,-8.165Z" style="fill:rgb(117,117,117);fill-rule:nonzero;stroke:rgb(53,53,53);stroke-width:0.61px;"/>
      <g>
        <path d="M49.32,374.389l0.553,-0.89l-1.064,-2.393l-2.216,-2.284l0.46,3.101l0.597,1.28l0.833,1.263l0.837,-0.077Z" style="fill:rgb(43,43,43);fill-rule:nonzero;"/>
        <path d="M53.05,374.399l-0.553,-0.891l1.064,-2.393l2.216,-2.284l-0.46,3.101l-0.597,1.28l-0.833,1.264l-0.837,-0.077Z" style="fill:#401B5C;fill-rule:nonzero;"/>
        <path d="M48.64,363.359l2.584,-0.661l0,13.448l-1.349,-2.651l-1.061,-2.385l-1.022,-0.581l-2.052,-2.921l-0.057,-0.775l1.148,-2.067l1.809,-1.407Z" style="fill:rgb(66,66,66);fill-rule:nonzero;"/>
        <path d="M53.8,363.359l-2.584,-0.66l0,13.448l1.35,-2.651l1.06,-2.385l1.023,-0.581l2.051,-2.921l0.058,-0.775l-1.149,-2.068l-1.809,-1.407Z" style="fill:rgb(51,51,51);fill-rule:nonzero;"/>
        <path d="M49.5,369.239l1.723,-1.685l0,1.23l-1.723,1.718l0,-1.263" style="fill:rgb(76,76,76);fill-rule:nonzero;"/>
        <path d="M51.22,368.779l-1.723,1.718l0.377,3.004l1.346,2.643l0,-7.365Z" style="fill:rgb(91,91,91);fill-rule:nonzero;"/>
        <path d="M51.22,376.149l-1.346,-2.643l1.346,-0.635l0,3.278Z" style="fill:rgb(51,51,51);fill-rule:nonzero;"/>
        <path d="M49.5,370.499l0,-1.264l-1.249,-1.579l-1.477,-1.19l-0.001,0.932l0.775,1.823l1.952,1.278Z" style="fill:#FDDEA2;fill-rule:nonzero;"/>
        <path d="M52.94,369.239l-1.722,-1.684l0,1.23l1.722,1.718l0,-1.264" style="fill:rgb(45,45,45);fill-rule:nonzero;"/>
        <path d="M51.22,368.779l1.722,1.718l-0.376,3.004l-1.347,2.643l0.001,-7.365Z" style="fill:rgb(53,53,53);fill-rule:nonzero;"/>
        <path d="M51.22,376.149l1.347,-2.643l-1.346,-0.635l-0.001,3.278Z" style="fill:#401B5C;fill-rule:nonzero;"/>
        <path d="M52.94,370.499l0,-1.264l1.249,-1.579l1.478,-1.19l0.001,0.932l-0.775,1.823l-1.953,1.278Z" style="fill:#FDDEA2;fill-rule:nonzero;"/>
        <path d="M48.65,363.339l2.566,4.216l-0.005,-4.87" style="fill:rgb(56,56,56);fill-rule:nonzero;"/>
        <path d="M53.78,363.339l-2.566,4.215l0.006,-4.87" style="fill:rgb(45,45,45);fill-rule:nonzero;"/>
        <path d="M48.81,371.109l0.688,-0.61l0.375,3.006l-1.063,-2.396Z" style="fill:rgb(51,51,51);fill-rule:nonzero;"/>
        <path d="M53.63,371.129l-0.688,-0.61l-0.375,3.006l1.063,-2.396Z" style="fill:rgb(28,28,28);fill-rule:nonzero;"/>
      </g>
    </g>
    <path d="M75.175,135.583c-7.924,0 -15.85,2.688 -22.26,8.065c-12.819,10.758 -16.094,29.346 -7.728,43.84c0.105,0.193 0.308,0.314 0.527,0.314c0.33,0 0.6,-0.271 0.6,-0.6c0,-0.111 -0.03,-0.22 -0.088,-0.314c-8.076,-13.992 -4.914,-31.937 7.461,-42.322c12.376,-10.38 30.6,-10.38 42.975,0c12.376,10.386 15.537,28.33 7.461,42.322c-0.058,0.094 -0.089,0.203 -0.089,0.314c0,0.329 0.271,0.6 0.6,0.6c0.22,0 0.423,-0.121 0.528,-0.314c8.366,-14.494 5.091,-33.081 -7.729,-43.84c-6.409,-5.377 -14.333,-8.065 -22.258,-8.065Zm29.68,56.053c-2.371,0 -4.304,1.936 -4.304,4.307c0,2.371 1.933,4.306 4.304,4.306c2.371,0 4.307,-1.935 4.307,-4.306c0,-2.371 -1.936,-4.307 -4.307,-4.307Zm-58.777,0.514c-2.371,0 -4.306,1.933 -4.306,4.305c0,2.371 1.935,4.306 4.306,4.306c2.371,0 4.305,-1.935 4.305,-4.306c0,-2.371 -1.934,-4.305 -4.305,-4.305Zm0,1.199c1.723,0 3.106,1.383 3.106,3.106c0,1.722 -1.383,3.107 -3.106,3.107c-1.722,0 -3.107,-1.385 -3.107,-3.107c0,-1.723 1.385,-3.106 3.107,-3.106Z" style="fill:#FDDEA2;fill-rule:nonzero;"/>
    <path d="M34.016,45.137c-5.706,0 -11.412,1.934 -16.027,5.805c-9.229,7.745 -11.587,21.128 -5.564,31.564c0.104,0.193 0.307,0.314 0.527,0.314c0.329,0 0.6,-0.271 0.6,-0.6c0,-0.111 -0.03,-0.22 -0.088,-0.314c-5.733,-9.934 -3.488,-22.672 5.297,-30.045c8.785,-7.369 21.725,-7.369 30.51,0c8.785,7.373 11.03,20.111 5.297,30.045c-0.058,0.094 -0.089,0.203 -0.089,0.314c0,0.329 0.271,0.6 0.6,0.6c0.22,0 0.423,-0.121 0.528,-0.314c6.023,-10.436 3.665,-23.819 -5.565,-31.564c-4.615,-3.871 -10.32,-5.805 -16.025,-5.805l-0.001,0Zm19.639,41.52c-2.371,0 -4.305,1.934 -4.305,4.305c0,2.371 1.934,4.306 4.305,4.306c2.371,0 4.307,-1.935 4.307,-4.306c0,-2.371 -1.936,-4.305 -4.307,-4.305Zm-37.779,0.512c-2.371,0 -4.307,1.935 -4.307,4.306c0,2.371 1.936,4.305 4.307,4.305c2.371,0 4.307,-1.934 4.307,-4.305c0,-2.371 -1.936,-4.306 -4.307,-4.306Zm0,1.199c1.722,0 3.105,1.385 3.105,3.107c0,1.723 -1.383,3.106 -3.105,3.106c-1.723,0 -3.105,-1.383 -3.105,-3.106c0,-1.722 1.383,-3.107 3.105,-3.107Z" style="fill:#FDDEA2;fill-rule:nonzero;"/>
    <path d="M116.03,45.137c-5.706,0 -11.412,1.934 -16.027,5.805c-9.229,7.745 -11.587,21.128 -5.564,31.564c0.104,0.193 0.307,0.314 0.527,0.314c0.329,0 0.6,-0.271 0.6,-0.6c0,-0.111 -0.03,-0.22 -0.088,-0.314c-5.733,-9.934 -3.488,-22.672 5.297,-30.045c8.785,-7.369 21.725,-7.369 30.51,0c8.785,7.373 11.03,20.111 5.296,30.045c-0.057,0.094 -0.088,0.203 -0.088,0.314c0,0.329 0.271,0.6 0.6,0.6c0.22,0 0.423,-0.121 0.528,-0.314c6.022,-10.436 3.665,-23.819 -5.565,-31.564c-4.615,-3.871 -10.32,-5.805 -16.025,-5.805l-0.001,0Zm19.639,41.52c-2.371,0 -4.305,1.934 -4.305,4.305c0,2.371 1.934,4.306 4.305,4.306c2.371,0 4.307,-1.935 4.307,-4.306c0,-2.371 -1.936,-4.305 -4.307,-4.305Zm-37.779,0.512c-2.371,0 -4.307,1.935 -4.307,4.306c0,2.371 1.936,4.305 4.307,4.305c2.371,0 4.307,-1.934 4.307,-4.305c0,-2.371 -1.936,-4.306 -4.307,-4.306Zm0,1.199c1.723,0 3.106,1.385 3.106,3.107c0,1.723 -1.383,3.106 -3.106,3.106c-1.722,0 -3.105,-1.383 -3.105,-3.106c0,-1.722 1.383,-3.107 3.105,-3.107Z" style="fill:#FDDEA2;fill-rule:nonzero;"/>
    <g>
      <path d="M46.825,27.561l-2.587,0l-1.196,-3.081c-0.139,-0.347 -0.464,-0.52 -0.975,-0.52l-0.884,0l0,3.601l-2.405,0l0,-9.256l4.303,0c1.118,0 1.958,0.241 2.522,0.722c0.563,0.481 0.845,1.167 0.845,2.06c0,0.624 -0.167,1.164 -0.501,1.619c-0.334,0.455 -0.804,0.777 -1.41,0.968c0.26,0.052 0.494,0.173 0.702,0.364c0.208,0.191 0.372,0.446 0.494,0.767l1.092,2.756Zm-4.134,-5.421c0.52,0 0.897,-0.08 1.131,-0.24c0.234,-0.161 0.351,-0.41 0.351,-0.748c0,-0.355 -0.115,-0.611 -0.345,-0.767c-0.23,-0.156 -0.609,-0.234 -1.137,-0.234l-1.534,0l0,1.989l1.534,0Z" style="fill:#FDDEA2;fill-rule:nonzero;"/>
      <path d="M48.06,27.561l0,-9.256l6.604,0l0,1.872l-4.225,0l0,1.742l3.952,0l0,1.872l-3.952,0l0,1.898l4.225,0l0,1.872l-6.604,0Z" style="fill:#FDDEA2;fill-rule:nonzero;"/>
      <path d="M59.136,27.678c-0.694,0 -1.378,-0.091 -2.054,-0.273c-0.676,-0.182 -1.227,-0.429 -1.651,-0.741l0.767,-1.729c0.45,0.286 0.929,0.505 1.436,0.657c0.507,0.151 1.016,0.227 1.528,0.227c0.52,0 0.918,-0.071 1.196,-0.214c0.277,-0.143 0.416,-0.345 0.416,-0.605c0,-0.234 -0.126,-0.427 -0.377,-0.578c-0.252,-0.152 -0.724,-0.302 -1.417,-0.449c-0.876,-0.173 -1.556,-0.388 -2.041,-0.643c-0.486,-0.256 -0.826,-0.557 -1.021,-0.904c-0.195,-0.347 -0.292,-0.767 -0.292,-1.261c0,-0.563 0.16,-1.072 0.481,-1.527c0.32,-0.455 0.771,-0.811 1.352,-1.066c0.58,-0.256 1.243,-0.384 1.989,-0.384c0.667,0 1.315,0.093 1.943,0.28c0.628,0.186 1.12,0.431 1.476,0.734l-0.754,1.729c-0.408,-0.286 -0.837,-0.505 -1.287,-0.656c-0.451,-0.152 -0.902,-0.228 -1.352,-0.228c-0.442,0 -0.798,0.085 -1.066,0.254c-0.269,0.169 -0.403,0.396 -0.403,0.682c0,0.156 0.047,0.286 0.143,0.39c0.095,0.104 0.273,0.206 0.533,0.306c0.26,0.099 0.65,0.205 1.17,0.318c0.84,0.182 1.501,0.401 1.982,0.657c0.481,0.255 0.821,0.554 1.021,0.897c0.199,0.342 0.299,0.751 0.299,1.228c0,0.901 -0.351,1.61 -1.053,2.126c-0.702,0.515 -1.69,0.773 -2.964,0.773Z" style="fill:#FDDEA2;fill-rule:nonzero;"/>
      <path d="M69.016,27.678c-0.962,0 -1.801,-0.197 -2.516,-0.591c-0.715,-0.395 -1.265,-0.952 -1.651,-1.671c-0.386,-0.719 -0.578,-1.551 -0.578,-2.496c0,-0.936 0.192,-1.761 0.578,-2.476c0.386,-0.715 0.936,-1.27 1.651,-1.664c0.715,-0.395 1.554,-0.592 2.516,-0.592c0.606,0 1.193,0.091 1.761,0.273c0.568,0.182 1.025,0.429 1.372,0.741l-0.741,1.729c-0.754,-0.546 -1.534,-0.819 -2.34,-0.819c-0.746,0 -1.318,0.236 -1.716,0.709c-0.399,0.472 -0.598,1.172 -0.598,2.099c0,0.936 0.199,1.642 0.598,2.119c0.398,0.477 0.97,0.715 1.716,0.715c0.806,0 1.586,-0.273 2.34,-0.819l0.741,1.729c-0.347,0.312 -0.804,0.559 -1.372,0.741c-0.568,0.182 -1.155,0.273 -1.761,0.273Z" style="fill:#FDDEA2;fill-rule:nonzero;"/>
      <path d="M77.622,27.678c-0.945,0 -1.768,-0.193 -2.47,-0.578c-0.702,-0.386 -1.242,-0.939 -1.619,-1.658c-0.377,-0.719 -0.565,-1.56 -0.565,-2.522c0,-0.962 0.19,-1.798 0.572,-2.509c0.381,-0.711 0.92,-1.259 1.618,-1.644c0.698,-0.386 1.519,-0.579 2.464,-0.579c0.944,0 1.765,0.193 2.463,0.579c0.698,0.385 1.233,0.933 1.606,1.644c0.372,0.711 0.559,1.547 0.559,2.509c0,0.962 -0.187,1.803 -0.559,2.522c-0.373,0.719 -0.908,1.272 -1.606,1.658c-0.698,0.385 -1.519,0.578 -2.463,0.578Zm0,-1.859c0.693,0 1.237,-0.247 1.631,-0.741c0.394,-0.494 0.592,-1.213 0.592,-2.158c0,-0.936 -0.198,-1.649 -0.592,-2.138c-0.394,-0.49 -0.938,-0.735 -1.631,-0.735c-0.694,0 -1.235,0.243 -1.625,0.728c-0.39,0.485 -0.585,1.2 -0.585,2.145c0,0.953 0.195,1.675 0.585,2.165c0.39,0.489 0.931,0.734 1.625,0.734Z" style="fill:#FDDEA2;fill-rule:nonzero;"/>
      <path d="M91.155,18.305l1.898,0l0,9.256l-2.132,0l-0.013,-4.238l-1.755,4.238l-1.547,0l-1.768,-4.186l0,4.186l-2.119,0l0,-9.256l1.911,0l2.769,6.318l2.756,-6.318Z" style="fill:#FDDEA2;fill-rule:nonzero;"/>
      <path d="M100.98,22.764c0.546,0.156 0.966,0.431 1.261,0.826c0.294,0.394 0.442,0.873 0.442,1.436c0,0.511 -0.135,0.958 -0.403,1.339c-0.269,0.381 -0.653,0.676 -1.151,0.884c-0.498,0.208 -1.085,0.312 -1.761,0.312l-4.615,0l0,-9.256l4.498,0c0.97,0 1.742,0.217 2.314,0.65c0.572,0.433 0.858,1.018 0.858,1.755c0,0.477 -0.126,0.897 -0.377,1.261c-0.252,0.364 -0.607,0.628 -1.066,0.793Zm-3.848,-0.832l1.703,0c0.45,0 0.78,-0.069 0.988,-0.208c0.208,-0.139 0.312,-0.36 0.312,-0.663c0,-0.312 -0.107,-0.542 -0.319,-0.689c-0.212,-0.147 -0.539,-0.221 -0.981,-0.221l-1.703,0l0,1.781Zm1.95,3.783c0.468,0 0.803,-0.074 1.007,-0.221c0.204,-0.147 0.306,-0.394 0.306,-0.741c0,-0.355 -0.1,-0.607 -0.299,-0.754c-0.2,-0.147 -0.538,-0.221 -1.014,-0.221l-1.95,0l0,1.937l1.95,0Z" style="fill:#FDDEA2;fill-rule:nonzero;"/>
      <path d="M114.09,25.624l0,1.937l-6.526,0l0,-1.794l3.016,-3.146c0.563,-0.589 0.845,-1.14 0.845,-1.651c0,-0.598 -0.356,-0.897 -1.066,-0.897c-0.364,0 -0.748,0.072 -1.151,0.215c-0.403,0.143 -0.808,0.348 -1.215,0.617l-0.767,-1.729c0.372,-0.303 0.855,-0.544 1.449,-0.721c0.594,-0.178 1.198,-0.267 1.814,-0.267c0.667,0 1.25,0.106 1.748,0.319c0.498,0.212 0.884,0.515 1.157,0.91c0.273,0.394 0.41,0.855 0.41,1.384c0,0.537 -0.107,1.025 -0.319,1.463c-0.212,0.437 -0.574,0.929 -1.085,1.475l-1.846,1.885l3.536,0Z" style="fill:#FDDEA2;fill-rule:nonzero;"/>
    </g>
    <path d="M67.977,201.91c-0.606,0 -1.132,0.124 -1.58,0.371c-0.448,0.248 -0.794,0.599 -1.039,1.055c-0.245,0.456 -0.367,0.993 -0.367,1.611c0,0.617 0.121,1.157 0.363,1.619c0.242,0.462 0.588,0.817 1.039,1.065c0.45,0.247 0.978,0.371 1.584,0.371l0.168,0c0.362,0.612 0.849,1.119 1.461,1.519l1.043,-0.759c-0.234,-0.195 -0.442,-0.384 -0.623,-0.565c-0.18,-0.18 -0.331,-0.374 -0.453,-0.58c0.439,-0.244 0.777,-0.596 1.017,-1.055c0.239,-0.459 0.36,-0.998 0.36,-1.615c0,-0.618 -0.121,-1.155 -0.36,-1.611c-0.24,-0.456 -0.583,-0.807 -1.031,-1.055c-0.448,-0.247 -0.975,-0.371 -1.582,-0.371l0,0Zm24.486,0c-0.618,0 -1.154,0.125 -1.613,0.379c-0.459,0.253 -0.813,0.609 -1.061,1.068c-0.247,0.459 -0.371,0.989 -0.371,1.59c0,0.606 0.124,1.14 0.371,1.602c0.248,0.462 0.602,0.82 1.061,1.074c0.459,0.253 0.995,0.379 1.613,0.379c0.39,0 0.768,-0.059 1.133,-0.176c0.364,-0.117 0.657,-0.274 0.879,-0.475l-0.475,-1.111c-0.484,0.351 -0.986,0.526 -1.504,0.526c-0.478,0 -0.843,-0.153 -1.099,-0.459c-0.256,-0.306 -0.385,-0.759 -0.385,-1.36c0,-0.596 0.129,-1.044 0.385,-1.347c0.256,-0.303 0.621,-0.456 1.099,-0.456c0.518,0 1.02,0.175 1.504,0.526l0.475,-1.11c-0.222,-0.201 -0.515,-0.359 -0.879,-0.476c-0.365,-0.117 -0.743,-0.174 -1.133,-0.174l0,0Zm-43.197,0.074l0,5.942l1.545,0l0,-2.413l2.435,0l0,-1.216l-2.435,0l0,-1.086l2.603,0l0,-1.227l-4.148,0Zm4.875,0l0,5.942l1.543,0l0,-2.311l0.568,0c0.328,0 0.536,0.112 0.625,0.334l0.768,1.977l1.662,0l-0.701,-1.768c-0.078,-0.206 -0.184,-0.371 -0.318,-0.494c-0.134,-0.122 -0.285,-0.2 -0.452,-0.233c0.39,-0.123 0.693,-0.329 0.907,-0.621c0.214,-0.292 0.322,-0.638 0.322,-1.039c0,-0.573 -0.182,-1.015 -0.543,-1.324c-0.362,-0.309 -0.902,-0.463 -1.619,-0.463l-2.762,0Zm5.959,0l0,5.942l4.238,0l0,-1.202l-2.713,0l0,-1.218l2.537,0l0,-1.202l-2.537,0l0,-1.117l2.713,0l0,-1.203l-4.238,0Zm11.742,0l0,3.438c0,0.846 0.221,1.486 0.666,1.923c0.445,0.437 1.103,0.657 1.971,0.657c0.851,0 1.503,-0.222 1.957,-0.664c0.453,-0.443 0.679,-1.081 0.679,-1.916l0,-3.438l-1.543,0l0,3.498c0,0.423 -0.095,0.749 -0.285,0.979c-0.189,0.231 -0.458,0.347 -0.808,0.347c-0.356,0 -0.631,-0.113 -0.823,-0.341c-0.192,-0.228 -0.287,-0.557 -0.287,-0.985l0,-3.498l-1.527,0Zm6.301,0l0,5.942l4.238,0l0,-1.202l-2.711,0l0,-1.218l2.537,0l0,-1.202l-2.537,0l0,-1.117l2.711,0l0,-1.203l-4.238,0Zm5.041,0l0,5.942l1.461,0l0,-3.372l2.695,3.372l1.16,0l0,-5.942l-1.476,0l0,3.356l-2.698,-3.356l-1.142,0Zm10.967,0l2.494,3.664l0,2.278l1.578,0l0,-2.27l2.512,-3.672l-1.786,0l-1.529,2.371l-1.502,-2.371l-1.767,0Zm-26.174,1.119c0.446,0 0.796,0.156 1.049,0.471c0.253,0.314 0.379,0.772 0.379,1.373c0,0.606 -0.126,1.068 -0.379,1.385c-0.253,0.317 -0.603,0.476 -1.049,0.476c-0.445,0 -0.792,-0.157 -1.043,-0.472c-0.25,-0.314 -0.375,-0.777 -0.375,-1.389c0,-0.607 0.125,-1.066 0.375,-1.377c0.251,-0.312 0.598,-0.467 1.043,-0.467l0,0Zm-12.311,0.067l0.986,0c0.34,0 0.583,0.05 0.731,0.15c0.147,0.1 0.22,0.264 0.22,0.492c0,0.217 -0.075,0.378 -0.226,0.481c-0.15,0.102 -0.391,0.154 -0.725,0.154l-0.986,0l0,-1.277Z" style="fill:#FDDEA2;fill-rule:nonzero;"/>
    <path d="M47.944,97.009c-0.617,0 -1.156,0.128 -1.615,0.381c-0.459,0.253 -0.812,0.607 -1.059,1.066c-0.248,0.459 -0.373,0.991 -0.373,1.592c0,0.606 0.125,1.14 0.373,1.602c0.247,0.462 0.6,0.818 1.059,1.072c0.459,0.253 0.998,0.379 1.615,0.379c0.39,0 0.767,-0.057 1.131,-0.174c0.365,-0.117 0.658,-0.276 0.881,-0.477l-0.477,-1.109c-0.484,0.351 -0.985,0.525 -1.502,0.525c-0.479,0 -0.845,-0.153 -1.101,-0.459c-0.256,-0.306 -0.383,-0.758 -0.383,-1.359c0,-0.596 0.127,-1.047 0.383,-1.35c0.256,-0.303 0.622,-0.455 1.101,-0.455c0.517,0 1.018,0.177 1.502,0.528l0.477,-1.112c-0.223,-0.2 -0.516,-0.357 -0.881,-0.474c-0.364,-0.117 -0.741,-0.176 -1.131,-0.176l0,0Zm-36.496,0.076l0,5.942l1.545,0l0,-2.413l2.435,0l0,-1.218l-2.435,0l0,-1.084l2.603,0l0,-1.227l-4.148,0Zm4.875,0l0,5.942l4.238,0l0,-1.204l-2.713,0l0,-1.216l2.54,0l0,-1.203l-2.54,0l0,-1.118l2.713,0l0,-1.201l-4.238,0Zm5.041,0l0,5.942l4.238,0l0,-1.204l-2.713,0l0,-1.216l2.537,0l0,-1.203l-2.537,0l0,-1.118l2.713,0l0,-1.201l-4.238,0Zm5.041,0l0,5.942l2.428,0c0.662,0 1.232,-0.118 1.707,-0.354c0.476,-0.237 0.838,-0.579 1.088,-1.027c0.251,-0.448 0.377,-0.981 0.377,-1.598c0,-0.612 -0.128,-1.141 -0.381,-1.586c-0.253,-0.445 -0.616,-0.787 -1.092,-1.023c-0.476,-0.237 -1.043,-0.354 -1.699,-0.354l-2.428,0Zm6.518,0l0,5.942l2.962,0c0.434,0 0.811,-0.069 1.131,-0.202c0.319,-0.134 0.567,-0.321 0.739,-0.566c0.173,-0.244 0.257,-0.531 0.257,-0.859c0,-0.362 -0.094,-0.669 -0.283,-0.922c-0.189,-0.254 -0.458,-0.432 -0.808,-0.532c0.294,-0.106 0.522,-0.274 0.683,-0.507c0.161,-0.234 0.242,-0.505 0.242,-0.811c0,-0.473 -0.183,-0.848 -0.55,-1.127c-0.367,-0.278 -0.864,-0.416 -1.487,-0.416l-2.886,0Zm7.927,0l-2.779,5.942l1.568,0l0.528,-1.227l2.636,0l0.526,1.227l1.545,0l-2.787,-5.942l-1.237,0Zm9.924,0l0,5.942l1.569,0l-0.001,-2.696l2.379,2.696l1.862,0l-2.721,-3.122l2.629,-2.82l-1.836,0l-2.313,2.553l0,-2.553l-1.568,0Zm-16.324,1.184l1.094,0c0.283,0 0.492,0.047 0.629,0.142c0.136,0.095 0.205,0.242 0.205,0.442c0,0.195 -0.068,0.337 -0.201,0.426c-0.134,0.089 -0.344,0.134 -0.633,0.134l-1.094,0l0,-1.144Zm-6.476,0.068l0.75,0c1.152,0 1.728,0.57 1.728,1.711c0,0.578 -0.144,1.01 -0.43,1.297c-0.287,0.286 -0.72,0.43 -1.298,0.43l-0.75,0l0,-3.438Zm13.512,0.408l0.808,1.877l-1.619,0l0.811,-1.877Zm-7.036,1.854l1.252,0c0.306,0 0.523,0.045 0.651,0.14c0.128,0.094 0.191,0.256 0.191,0.485c0,0.222 -0.064,0.38 -0.195,0.474c-0.131,0.095 -0.346,0.143 -0.647,0.143l-1.252,0l0,-1.242Z" style="fill:#FDDEA2;fill-rule:nonzero;"/>
    <path d="M103.22,97.085l0,5.941l2.43,0c0.662,0 1.231,-0.116 1.707,-0.353c0.475,-0.236 0.837,-0.579 1.088,-1.027c0.25,-0.448 0.375,-0.981 0.375,-1.598c0,-0.612 -0.126,-1.141 -0.379,-1.586c-0.254,-0.445 -0.618,-0.786 -1.094,-1.022c-0.475,-0.237 -1.041,-0.355 -1.697,-0.355l-2.43,0Zm6.518,0l0,5.941l1.545,0l0,-2.31l0.568,0c0.328,0 0.536,0.112 0.625,0.334l0.767,1.976l1.661,0l-0.702,-1.767c-0.078,-0.206 -0.182,-0.371 -0.316,-0.494c-0.133,-0.122 -0.284,-0.2 -0.451,-0.233c0.39,-0.123 0.692,-0.329 0.906,-0.621c0.214,-0.292 0.32,-0.638 0.32,-1.039c0,-0.573 -0.18,-1.015 -0.541,-1.324c-0.362,-0.309 -0.902,-0.463 -1.619,-0.463l-2.763,0Zm5.959,0l0,5.941l1.57,0l0,-5.941l-1.57,0Zm1.912,0l2.703,5.941l1.244,0l2.705,-5.941l-1.578,0l-1.736,3.988l-1.711,-3.988l-1.627,0Zm6.994,0l0,5.941l4.24,0l0,-1.201l-2.715,0l0,-1.219l2.539,0l0,-1.201l-2.539,0l0,-1.117l2.715,0l0,-1.203l-4.24,0Zm-13.336,1.185l0.982,0c0.34,0 0.585,0.051 0.733,0.151c0.147,0.1 0.22,0.264 0.22,0.492c0,0.217 -0.075,0.378 -0.226,0.481c-0.15,0.102 -0.393,0.154 -0.727,0.154l-0.982,0l0,-1.278Zm-6.479,0.067l0.752,0c1.152,0 1.729,0.57 1.729,1.711c0,0.578 -0.145,1.011 -0.432,1.297c-0.286,0.287 -0.718,0.429 -1.297,0.429l-0.752,0l0,-3.437Z" style="fill:#FDDEA2;fill-rule:nonzero;"/>
    <path d="M25.524,38.772l0,-5.112l1.378,0l0,0.964c0.357,-0.72 0.9,-1.08 1.63,-1.08c0.087,0 0.172,0.009 0.256,0.028l0,1.229c-0.196,-0.072 -0.377,-0.107 -0.545,-0.107c-0.549,0 -0.996,0.277 -1.341,0.833l0,3.245l-1.378,0Z" style="fill:#FDDEA2;fill-rule:nonzero;"/>
    <path d="M34.021,38.6c-0.655,0.192 -1.276,0.288 -1.863,0.288c-0.853,0 -1.527,-0.242 -2.02,-0.726c-0.494,-0.484 -0.74,-1.145 -0.74,-1.983c0,-0.792 0.225,-1.429 0.677,-1.911c0.452,-0.483 1.048,-0.724 1.79,-0.724c0.748,0 1.294,0.236 1.639,0.707c0.344,0.472 0.517,1.219 0.517,2.24l-3.171,0c0.093,0.974 0.629,1.461 1.606,1.461c0.463,0 0.984,-0.107 1.565,-0.321l0,0.969Zm-3.189,-2.887l1.834,0c0,-0.872 -0.281,-1.308 -0.843,-1.308c-0.571,0 -0.901,0.436 -0.991,1.308Z" style="fill:#FDDEA2;fill-rule:nonzero;"/>
    <path d="M35.31,38.609l0,-1.01c0.683,0.285 1.266,0.428 1.751,0.428c0.564,0 0.847,-0.192 0.847,-0.577c0,-0.249 -0.233,-0.466 -0.698,-0.652l-0.466,-0.186c-0.506,-0.205 -0.867,-0.426 -1.085,-0.661c-0.217,-0.236 -0.326,-0.528 -0.326,-0.876c0,-0.484 0.185,-0.86 0.554,-1.129c0.37,-0.268 0.887,-0.402 1.551,-0.402c0.416,0 0.911,0.06 1.485,0.181l0,0.969c-0.553,-0.193 -1.01,-0.289 -1.374,-0.289c-0.571,0 -0.856,0.177 -0.856,0.531c0,0.232 0.211,0.43 0.633,0.591l0.4,0.154c0.599,0.226 1.016,0.456 1.25,0.689c0.235,0.232 0.352,0.532 0.352,0.898c0,0.481 -0.2,0.871 -0.598,1.171c-0.399,0.299 -0.918,0.449 -1.558,0.449c-0.614,0 -1.235,-0.093 -1.862,-0.279Z" style="fill:#FDDEA2;fill-rule:nonzero;"/>
    <path d="M42.982,38.888c-0.797,0 -1.431,-0.241 -1.901,-0.724c-0.471,-0.482 -0.706,-1.132 -0.706,-1.948c0,-0.826 0.237,-1.477 0.71,-1.955c0.474,-0.478 1.117,-0.717 1.93,-0.717c0.816,0 1.461,0.239 1.934,0.717c0.474,0.478 0.71,1.126 0.71,1.946c0,0.838 -0.237,1.494 -0.712,1.969c-0.475,0.475 -1.13,0.712 -1.965,0.712Zm0.024,-0.861c0.791,0 1.187,-0.607 1.187,-1.82c0,-0.556 -0.105,-0.995 -0.314,-1.318c-0.21,-0.323 -0.498,-0.484 -0.864,-0.484c-0.363,0 -0.649,0.161 -0.859,0.484c-0.209,0.323 -0.314,0.765 -0.314,1.327c0,0.555 0.104,0.996 0.312,1.322c0.208,0.326 0.492,0.489 0.852,0.489Z" style="fill:#FDDEA2;fill-rule:nonzero;"/>
    <path d="M46.926,38.772l0,-5.112l1.378,0l0,0.964c0.45,-0.72 1.03,-1.08 1.741,-1.08c0.456,0 0.816,0.144 1.08,0.433c0.264,0.288 0.396,0.682 0.396,1.182l0,3.613l-1.378,0l0,-3.273c0,-0.58 -0.193,-0.871 -0.578,-0.871c-0.437,0 -0.858,0.309 -1.261,0.927l0,3.217l-1.378,0Z" style="fill:#FDDEA2;fill-rule:nonzero;"/>
    <path d="M55.692,38.222c-0.459,0.444 -0.951,0.666 -1.476,0.666c-0.447,0 -0.81,-0.136 -1.089,-0.409c-0.28,-0.274 -0.419,-0.627 -0.419,-1.062c0,-0.565 0.226,-1 0.677,-1.306c0.452,-0.306 1.098,-0.458 1.939,-0.458l0.368,0l0,-0.466c0,-0.531 -0.303,-0.796 -0.908,-0.796c-0.537,0 -1.08,0.152 -1.629,0.456l0,-0.949c0.624,-0.236 1.241,-0.354 1.853,-0.354c1.337,0 2.006,0.532 2.006,1.597l0,2.262c0,0.4 0.129,0.601 0.387,0.601c0.046,0 0.107,-0.007 0.181,-0.019l0.033,0.773c-0.292,0.087 -0.55,0.13 -0.773,0.13c-0.565,0 -0.928,-0.222 -1.09,-0.666l-0.06,0Zm0,-0.74l0,-1.038l-0.326,0c-0.891,0 -1.336,0.279 -1.336,0.838c0,0.189 0.064,0.348 0.193,0.477c0.129,0.129 0.288,0.193 0.477,0.193c0.323,0 0.654,-0.156 0.992,-0.47Z" style="fill:#FDDEA2;fill-rule:nonzero;"/>
    <path d="M58.793,38.772l0,-5.112l1.378,0l0,0.964c0.45,-0.72 1.03,-1.08 1.741,-1.08c0.456,0 0.816,0.144 1.08,0.433c0.264,0.288 0.395,0.682 0.395,1.182l0,3.613l-1.378,0l0,-3.273c0,-0.58 -0.192,-0.871 -0.577,-0.871c-0.437,0 -0.858,0.309 -1.261,0.927l0,3.217l-1.378,0Z" style="fill:#FDDEA2;fill-rule:nonzero;"/>
    <path d="M67.689,38.744c-0.329,0.096 -0.588,0.144 -0.777,0.144c-1.195,0 -1.793,-0.558 -1.793,-1.676l0,-2.691l-0.572,0l0,-0.861l0.572,0l0,-0.861l1.378,-0.158l0,1.019l1.094,0l0,0.861l-1.094,0l0,2.51c0,0.627 0.256,0.94 0.769,0.94c0.117,0 0.259,-0.022 0.423,-0.065l0,0.838Z" style="fill:#FDDEA2;fill-rule:nonzero;"/>
    <path d="M75.832,38.66c-0.571,0.152 -1.101,0.228 -1.588,0.228c-0.816,0 -1.461,-0.24 -1.934,-0.719c-0.474,-0.48 -0.71,-1.132 -0.71,-1.958c0,-0.835 0.243,-1.488 0.731,-1.96c0.487,-0.471 1.16,-0.707 2.02,-0.707c0.416,0 0.896,0.066 1.439,0.2l0,0.996c-0.565,-0.183 -1.017,-0.275 -1.355,-0.275c-0.413,0 -0.745,0.159 -0.996,0.475c-0.252,0.317 -0.377,0.737 -0.377,1.262c0,0.537 0.135,0.967 0.407,1.29c0.272,0.322 0.634,0.484 1.087,0.484c0.413,0 0.838,-0.09 1.276,-0.27l0,0.954Z" style="fill:#FDDEA2;fill-rule:nonzero;"/>
    <path d="M79.281,38.888c-0.797,0 -1.431,-0.241 -1.901,-0.724c-0.471,-0.482 -0.706,-1.132 -0.706,-1.948c0,-0.826 0.237,-1.477 0.71,-1.955c0.474,-0.478 1.117,-0.717 1.93,-0.717c0.816,0 1.461,0.239 1.934,0.717c0.474,0.478 0.71,1.126 0.71,1.946c0,0.838 -0.237,1.494 -0.712,1.969c-0.475,0.475 -1.13,0.712 -1.965,0.712Zm0.024,-0.861c0.791,0 1.187,-0.607 1.187,-1.82c0,-0.556 -0.105,-0.995 -0.314,-1.318c-0.21,-0.323 -0.498,-0.484 -0.864,-0.484c-0.363,0 -0.649,0.161 -0.859,0.484c-0.209,0.323 -0.314,0.765 -0.314,1.327c0,0.555 0.104,0.996 0.312,1.322c0.208,0.326 0.492,0.489 0.852,0.489Z" style="fill:#FDDEA2;fill-rule:nonzero;"/>
    <path d="M83.225,38.772l0,-5.112l1.322,0l0,0.964c0.403,-0.72 0.977,-1.08 1.722,-1.08c0.385,0 0.702,0.094 0.95,0.284c0.248,0.189 0.4,0.454 0.456,0.796c0.478,-0.72 1.056,-1.08 1.732,-1.08c0.934,0 1.401,0.515 1.401,1.545l0,3.683l-1.322,0l0,-3.231c0,-0.605 -0.201,-0.908 -0.605,-0.908c-0.413,0 -0.815,0.298 -1.206,0.894l0,3.245l-1.322,0l0,-3.231c0,-0.608 -0.203,-0.913 -0.61,-0.913c-0.406,0 -0.805,0.3 -1.196,0.899l0,3.245l-1.322,0Z" style="fill:#FDDEA2;fill-rule:nonzero;"/>
    <path d="M92.47,38.772l0,-7.351l1.378,0l0,3.203c0.354,-0.72 0.911,-1.08 1.672,-1.08c0.614,0 1.098,0.225 1.45,0.675c0.352,0.45 0.528,1.069 0.528,1.857c0,0.854 -0.198,1.536 -0.596,2.046c-0.397,0.511 -0.928,0.766 -1.592,0.766c-0.571,0 -1.058,-0.211 -1.462,-0.633l-0.256,0.517l-1.122,0Zm1.378,-1.336c0.336,0.372 0.693,0.558 1.071,0.558c0.339,0 0.609,-0.163 0.81,-0.491c0.202,-0.327 0.303,-0.764 0.303,-1.31c0,-1.046 -0.337,-1.569 -1.01,-1.569c-0.407,0 -0.798,0.262 -1.174,0.787l0,2.025Z" style="fill:#FDDEA2;fill-rule:nonzero;"/>
    <path d="M102.08,38.772l0,-4.251l-0.703,0l0,-0.861l0.703,0l0,-0.354c0,-0.642 0.153,-1.136 0.458,-1.483c0.306,-0.346 0.741,-0.519 1.306,-0.519c0.348,0 0.717,0.064 1.108,0.191l0,0.941c-0.385,-0.171 -0.67,-0.256 -0.856,-0.256c-0.426,0 -0.638,0.388 -0.638,1.163l0,0.317l3.217,0l0,5.112l-1.378,0l0,-4.251l-1.839,0l0,4.251l-1.378,0Zm3.445,-5.973l0,-1.15l1.15,0l0,1.15l-1.15,0Z" style="fill:#FDDEA2;fill-rule:nonzero;"/>
    <rect x="108.39" y="31.421" width="1.378" height="7.351" style="fill:#FDDEA2;"/>
    <path d="M114.13,38.744c-0.329,0.096 -0.588,0.144 -0.778,0.144c-1.195,0 -1.792,-0.558 -1.792,-1.676l0,-2.691l-0.573,0l0,-0.861l0.573,0l0,-0.861l1.378,-0.158l0,1.019l1.094,0l0,0.861l-1.094,0l0,2.51c0,0.627 0.256,0.94 0.768,0.94c0.118,0 0.259,-0.022 0.424,-0.065l0,0.838Z" style="fill:#FDDEA2;fill-rule:nonzero;"/>
    <path d="M119.52,38.6c-0.655,0.192 -1.276,0.288 -1.862,0.288c-0.854,0 -1.527,-0.242 -2.021,-0.726c-0.493,-0.484 -0.74,-1.145 -0.74,-1.983c0,-0.792 0.226,-1.429 0.677,-1.911c0.452,-0.483 1.049,-0.724 1.79,-0.724c0.748,0 1.295,0.236 1.639,0.707c0.345,0.472 0.517,1.219 0.517,2.24l-3.17,0c0.093,0.974 0.628,1.461 1.606,1.461c0.462,0 0.984,-0.107 1.564,-0.321l0,0.969Zm-3.189,-2.887l1.834,0c0,-0.872 -0.281,-1.308 -0.842,-1.308c-0.572,0 -0.902,0.436 -0.992,1.308Z" style="fill:#FDDEA2;fill-rule:nonzero;"/>
    <path d="M120.94,38.772l0,-5.112l1.379,0l0,0.964c0.356,-0.72 0.9,-1.08 1.629,-1.08c0.087,0 0.172,0.009 0.256,0.028l0,1.229c-0.196,-0.072 -0.377,-0.107 -0.545,-0.107c-0.549,0 -0.996,0.277 -1.34,0.833l0,3.245l-1.379,0Z" style="fill:#FDDEA2;fill-rule:nonzero;"/>
    <g>
      <path d="M29.864,147.179l0,1.573l-2.405,0l0,2.418l-1.586,0l0,-2.418l-2.405,0l0,-1.573l2.405,0l0,-2.418l1.586,0l0,2.418l2.405,0Z" style="fill:#FDDEA2;fill-rule:nonzero;"/>
      <rect x="24.56" y="159.279" width="4.212" height="1.82" style="fill:#FDDEA2;"/>
    </g>
    <path d="M11.401,166.21c-0.466,0 -0.871,0.094 -1.217,0.285c-0.346,0.191 -0.614,0.461 -0.801,0.807c-0.187,0.346 -0.279,0.745 -0.279,1.199c0,0.457 0.092,0.86 0.279,1.209c0.187,0.348 0.455,0.62 0.801,0.811c0.346,0.191 0.751,0.285 1.217,0.285c0.294,0 0.58,-0.045 0.855,-0.133c0.275,-0.088 0.497,-0.207 0.665,-0.358l-0.36,-0.837c-0.365,0.264 -0.743,0.396 -1.133,0.396c-0.361,0 -0.638,-0.115 -0.832,-0.346c-0.193,-0.231 -0.289,-0.574 -0.289,-1.027c0,-0.449 0.096,-0.787 0.289,-1.016c0.194,-0.229 0.471,-0.343 0.832,-0.343c0.39,0 0.768,0.132 1.133,0.396l0.36,-0.838c-0.168,-0.151 -0.39,-0.271 -0.665,-0.359c-0.275,-0.088 -0.561,-0.131 -0.855,-0.131l0,0Zm4.17,0c-0.458,0 -0.855,0.092 -1.194,0.279c-0.338,0.187 -0.599,0.453 -0.783,0.797c-0.185,0.345 -0.277,0.749 -0.277,1.215c0,0.466 0.09,0.875 0.273,1.223c0.182,0.349 0.444,0.615 0.784,0.802c0.34,0.187 0.739,0.28 1.197,0.28c0.458,0 0.855,-0.093 1.193,-0.28c0.338,-0.187 0.597,-0.453 0.778,-0.802c0.18,-0.348 0.271,-0.757 0.271,-1.223c0,-0.466 -0.091,-0.87 -0.271,-1.215c-0.181,-0.344 -0.44,-0.61 -0.778,-0.797c-0.338,-0.187 -0.735,-0.279 -1.193,-0.279Zm2.953,0.057l0,4.482l1.027,0l0,-2.027l0.856,2.027l0.748,0l0.851,-2.053l0.006,2.053l1.033,0l0,-4.482l-0.919,0l-1.336,3.06l-1.34,-3.06l-0.926,0Zm5.346,0l0,4.482l2.236,0c0.327,0 0.611,-0.05 0.852,-0.15c0.241,-0.101 0.428,-0.245 0.558,-0.43c0.13,-0.184 0.195,-0.4 0.195,-0.647c0,-0.273 -0.071,-0.506 -0.214,-0.697c-0.142,-0.191 -0.346,-0.324 -0.61,-0.4c0.222,-0.08 0.394,-0.207 0.516,-0.383c0.122,-0.176 0.183,-0.38 0.183,-0.611c0,-0.357 -0.139,-0.64 -0.416,-0.85c-0.277,-0.21 -0.651,-0.314 -1.121,-0.314l-2.179,0Zm-8.299,0.843c0.336,0 0.598,0.119 0.789,0.356c0.191,0.237 0.287,0.581 0.287,1.035c0,0.457 -0.096,0.806 -0.287,1.045c-0.191,0.239 -0.453,0.359 -0.789,0.359c-0.336,0 -0.598,-0.118 -0.787,-0.355c-0.189,-0.237 -0.283,-0.588 -0.283,-1.049c0,-0.458 0.094,-0.804 0.283,-1.039c0.189,-0.235 0.451,-0.352 0.787,-0.352l0,0Zm9.451,0.049l0.826,0c0.214,0 0.372,0.038 0.475,0.11c0.103,0.071 0.154,0.181 0.154,0.332c0,0.147 -0.051,0.253 -0.152,0.32c-0.101,0.068 -0.259,0.101 -0.477,0.101l-0.826,0l0,-0.863Zm0,1.758l0.945,0c0.231,0 0.395,0.036 0.491,0.107c0.097,0.072 0.144,0.193 0.144,0.366c0,0.167 -0.049,0.286 -0.148,0.357c-0.098,0.072 -0.26,0.109 -0.487,0.109l-0.945,0l0,-0.939Z" style="fill:#FDDEA2;fill-rule:nonzero;"/>
    <path d="M13.919,200.545l-1.656,5.175l0.912,0l1.664,-5.175l-0.92,0Zm3.217,0.232c-0.457,0 -0.853,0.092 -1.191,0.279c-0.338,0.187 -0.601,0.453 -0.786,0.797c-0.185,0.345 -0.277,0.749 -0.277,1.215c0,0.466 0.092,0.875 0.275,1.223c0.182,0.349 0.444,0.615 0.784,0.802c0.34,0.187 0.738,0.28 1.195,0.28c0.458,0 0.857,-0.093 1.195,-0.28c0.337,-0.187 0.598,-0.453 0.778,-0.802c0.181,-0.348 0.269,-0.757 0.269,-1.223c0,-0.466 -0.088,-0.87 -0.269,-1.215c-0.18,-0.344 -0.441,-0.61 -0.778,-0.797c-0.338,-0.187 -0.737,-0.279 -1.195,-0.279l0,0Zm5.113,0c-0.466,0 -0.871,0.094 -1.217,0.285c-0.346,0.191 -0.613,0.461 -0.8,0.807c-0.187,0.346 -0.28,0.745 -0.28,1.199c0,0.457 0.093,0.86 0.28,1.209c0.187,0.348 0.454,0.619 0.8,0.81c0.346,0.191 0.751,0.286 1.217,0.286c0.294,0 0.581,-0.045 0.856,-0.133c0.275,-0.088 0.496,-0.207 0.664,-0.358l-0.36,-0.837c-0.365,0.264 -0.742,0.396 -1.132,0.396c-0.361,0 -0.639,-0.115 -0.832,-0.346c-0.193,-0.231 -0.289,-0.574 -0.289,-1.027c0,-0.449 0.096,-0.787 0.289,-1.016c0.193,-0.229 0.471,-0.343 0.832,-0.343c0.39,0 0.767,0.132 1.132,0.396l0.36,-0.838c-0.168,-0.151 -0.389,-0.271 -0.664,-0.359c-0.275,-0.088 -0.562,-0.131 -0.856,-0.131l0,0Zm-14.557,0.057l2.039,4.482l0.938,0l2.041,-4.482l-1.19,0l-1.31,3.009l-1.291,-3.009l-1.227,0Zm16.303,0l0,0.957l1.334,0l0,3.525l1.198,0l0,-3.525l1.334,0l0,-0.957l-3.866,0Zm-6.859,0.843c0.336,0 0.6,0.119 0.791,0.356c0.191,0.237 0.287,0.581 0.287,1.035c0,0.457 -0.096,0.806 -0.287,1.045c-0.191,0.239 -0.455,0.359 -0.791,0.359c-0.336,0 -0.598,-0.118 -0.787,-0.355c-0.189,-0.237 -0.281,-0.588 -0.281,-1.049c0,-0.458 0.092,-0.804 0.281,-1.039c0.189,-0.235 0.451,-0.352 0.787,-0.352l0,0Z" style="fill:#FDDEA2;fill-rule:nonzero;"/>
    <path d="M130.29,199.445c-0.466,0 -0.871,0.093 -1.217,0.283c-0.346,0.189 -0.613,0.457 -0.8,0.8c-0.187,0.344 -0.28,0.74 -0.28,1.191c0,0.453 0.093,0.853 0.28,1.2c0.187,0.345 0.454,0.615 0.8,0.805c0.346,0.189 0.751,0.283 1.217,0.283c0.294,0 0.581,-0.045 0.856,-0.132c0.275,-0.088 0.496,-0.205 0.664,-0.355l-0.36,-0.832c-0.365,0.262 -0.743,0.394 -1.132,0.394c-0.361,0 -0.639,-0.114 -0.833,-0.343c-0.193,-0.23 -0.289,-0.571 -0.289,-1.02c0,-0.446 0.097,-0.781 0.289,-1.008c0.194,-0.228 0.472,-0.342 0.833,-0.342c0.39,0 0.767,0.132 1.132,0.394l0.36,-0.832c-0.168,-0.15 -0.389,-0.269 -0.664,-0.357c-0.275,-0.087 -0.562,-0.129 -0.856,-0.129l0,0Zm1.531,0.056l2.041,4.449l0.938,0l2.039,-4.449l-1.189,0l-1.311,2.987l-1.291,-2.987l-1.227,0Z" style="fill:#FDDEA2;fill-rule:nonzero;"/>
    <path d="M100.947,104.243c-0.331,0.006 -0.596,0.279 -0.589,0.611l0.002,1.408c-2.521,0.13 -5.007,1.043 -7.047,2.756c-4.419,3.708 -5.55,10.112 -2.668,15.105l0.3,0.52l10.035,-5.793l10.035,5.793l0.301,-0.52c2.882,-4.993 1.752,-11.398 -2.668,-15.105c-2.051,-1.722 -4.555,-2.636 -7.09,-2.757l-0.002,-1.411c0.004,-0.338 -0.271,-0.612 -0.609,-0.607l0,0Zm-0.586,3.219l0.02,10.35l-8.902,5.14c-2.21,-4.402 -1.21,-9.813 2.605,-13.014c1.819,-1.527 4.031,-2.348 6.277,-2.476Zm1.2,0c2.259,0.121 4.487,0.94 6.316,2.476l0.002,0c3.816,3.201 4.813,8.612 2.604,13.014l-8.903,-5.14l-0.019,-10.35Zm8.851,16.951c-0.331,0.007 -0.925,0.28 -0.919,0.611l0.01,1.582l-1.606,0.008c-0.831,-0.028 -0.824,1.235 0.006,1.199l1.606,-0.008l0.01,1.629c-0.026,0.831 1.236,0.822 1.199,-0.008l-0.008,-1.625l1.604,-0.008c0.8,-0.004 0.794,-1.205 -0.006,-1.201l-1.606,0.008l-0.008,-1.584c0.002,-0.338 -0.275,-0.611 -0.613,-0.604l0.331,0.001Zm-16.092,2.056l-4.414,0.02c-0.801,0.004 -0.795,1.205 0.006,1.201l4.414,-0.022c0.831,0.028 0.825,-1.235 -0.006,-1.199Z" style="fill:#FDDEA2;fill-rule:nonzero;"/>
    <path d="M48.948,104.374c-0.332,0.006 -0.596,0.28 -0.59,0.611l0.002,1.409c-2.52,0.13 -5.006,1.042 -7.046,2.756c-4.42,3.707 -5.55,10.112 -2.668,15.105l0.3,0.519l10.035,-5.793l10.035,5.793l0.301,-0.519c2.882,-4.994 1.752,-11.398 -2.668,-15.105c-2.051,-1.723 -4.555,-2.637 -7.09,-2.758l-0.002,-1.41c0.004,-0.338 -0.271,-0.613 -0.609,-0.608l0,0Zm-0.586,3.219l0.02,10.35l-8.902,5.141c-2.21,-4.403 -1.21,-9.814 2.605,-13.014c1.819,-1.528 4.031,-2.348 6.277,-2.477Zm1.2,0c2.259,0.121 4.487,0.94 6.316,2.477l0.002,0c3.816,3.2 4.813,8.611 2.603,13.014l-8.902,-5.141l-0.019,-10.35Zm8.851,16.951c-0.331,0.007 -0.925,0.28 -0.919,0.611l0.01,1.582l-1.606,0.008c-0.831,-0.028 -0.824,1.236 0.006,1.199l1.606,-0.008l0.01,1.629c-0.026,0.831 1.236,0.823 1.199,-0.008l-0.008,-1.625l1.604,-0.008c0.8,-0.004 0.794,-1.205 -0.006,-1.201l-1.606,0.008l-0.008,-1.584c0.002,-0.338 -0.275,-0.611 -0.613,-0.603l0.331,0Zm-16.092,2.057l-4.414,0.019c-0.801,0.004 -0.795,1.205 0.006,1.201l4.414,-0.021c0.831,0.028 0.825,-1.236 -0.006,-1.199Z" style="fill:#FDDEA2;fill-rule:nonzero;"/>
    <path d="M131.989,145.855c-0.332,0.006 -0.596,0.279 -0.59,0.611l0,1.408c-2.52,0.13 -5.006,1.042 -7.047,2.756c-4.419,3.707 -5.55,10.112 -2.668,15.105l0.301,0.52l10.035,-5.793l10.035,5.793l0.301,-0.52c2.882,-4.993 1.752,-11.398 -2.668,-15.105c-2.051,-1.723 -4.555,-2.636 -7.09,-2.758l0,-1.41c0,-0.338 -0.271,-0.613 -0.609,-0.607l0,0Zm-0.586,3.219l0.019,10.35l-8.902,5.14c-2.21,-4.402 -1.209,-9.813 2.605,-13.014c1.819,-1.527 4.032,-2.348 6.278,-2.476l0,0Zm1.199,0c2.26,0.121 4.488,0.94 6.317,2.476c3.816,3.2 4.813,8.611 2.603,13.014l-8.902,-5.14l-0.018,-10.35Zm7.933,17.562l0.01,1.582l-1.606,0.008c-0.831,-0.028 -0.824,1.235 0.01,1.199l1.606,-0.008l0.01,1.629c-0.026,0.83 1.236,0.822 1.199,-0.008l-0.01,-1.625l1.603,-0.008c0.801,-0.004 0.795,-1.206 -0.01,-1.202l-1.605,0.008l-0.01,-1.584c0,-0.77 -1.197,-0.755 -1.197,0.008l0,0.001Zm-15.172,1.445l-4.414,0.019c-0.801,0.004 -0.795,1.206 0.01,1.202l4.414,-0.022c0.831,0.028 0.824,-1.235 -0.01,-1.199Z" style="fill:#FDDEA2;fill-rule:nonzero;"/>
    <path d="M7.797,212.83c-0.008,0 -0.016,0 -0.024,0c-0.329,0 -0.6,0.27 -0.6,0.6c0,0.329 0.271,0.6 0.6,0.6c0.008,0 0.016,0 0.024,-0.001l134.35,0c0.008,0.001 0.016,0.001 0.023,0.001c0.33,0 0.6,-0.271 0.6,-0.6c0,-0.33 -0.27,-0.6 -0.6,-0.6c-0.007,0 -0.015,0 -0.023,0l-134.35,0Z" style="fill:#FDDEA2;"/>
    <path d="M74.811,217.02c-0.332,0.006 -0.596,0.28 -0.59,0.611l0.004,2.502c-5.445,0.168 -10.846,2.077 -15.252,5.772c-9.229,7.745 -11.587,21.128 -5.564,31.564c0.391,0.723 1.469,0.101 1.039,-0.6c-5.733,-9.934 -3.488,-22.672 5.297,-30.045c4.184,-3.509 9.311,-5.327 14.482,-5.494l0.017,9.61c0.001,0.8 1.203,0.798 1.201,-0.002l-0.017,-9.623c5.287,0.094 10.549,1.922 14.826,5.509c8.786,7.373 11.03,20.111 5.297,30.045c-0.431,0.701 0.647,1.324 1.039,0.6c6.023,-10.436 3.665,-23.819 -5.565,-31.564c-4.499,-3.774 -10.037,-5.693 -15.6,-5.787l-0.004,-2.49c0.005,-0.339 -0.272,-0.614 -0.611,-0.608l0.001,0Zm-18.701,45.111c-2.371,0 -4.307,1.936 -4.307,4.307c0,2.371 1.936,4.304 4.307,4.304c2.371,0 4.307,-1.933 4.307,-4.304c0,-2.371 -1.936,-4.307 -4.307,-4.307Zm37.779,0c-2.371,0 -4.305,1.934 -4.305,4.305c0,2.371 1.934,4.306 4.305,4.306c2.371,0 4.307,-1.935 4.307,-4.306c0,-2.371 -1.936,-4.305 -4.307,-4.305Zm-37.779,1.199c1.722,0 3.105,1.385 3.105,3.108c0.001,1.722 -1.383,3.105 -3.105,3.105c-1.722,0 -3.105,-1.383 -3.105,-3.105c-0.001,-1.723 1.383,-3.108 3.105,-3.108Z" style="fill:#FDDEA2;fill-rule:nonzero;"/>
    <path d="M64.463,268.65l0,5.943l1.545,0l0,-2.312l0.566,0c0.328,0 0.538,0.111 0.627,0.334l0.768,1.978l3.205,0l0.525,-1.228l2.637,0l0.525,1.228l1.545,0l-2.787,-5.943l-1.236,0l-2.766,5.914l-0.689,-1.74c-0.078,-0.206 -0.183,-0.371 -0.317,-0.494c-0.134,-0.122 -0.284,-0.2 -0.451,-0.233c0.39,-0.123 0.693,-0.329 0.907,-0.621c0.214,-0.292 0.32,-0.639 0.32,-1.039c0,-0.573 -0.18,-1.015 -0.541,-1.324c-0.362,-0.309 -0.902,-0.463 -1.619,-0.463l-2.764,0Zm11.076,0l0,1.268l1.768,0l0,4.675l1.585,0l0,-4.675l1.77,0l0,-1.268l-5.123,0Zm5.758,0l0,5.943l4.24,0l0,-1.203l-2.713,0l0,-1.218l2.537,0l0,-1.202l-2.537,0l0,-1.117l2.713,0l0,-1.203l-4.24,0Zm-15.307,1.186l0.984,0c0.34,0 0.585,0.05 0.733,0.15c0.147,0.1 0.22,0.264 0.22,0.492c0,0.217 -0.075,0.376 -0.226,0.479c-0.15,0.103 -0.393,0.156 -0.727,0.156l-0.984,0l0,-1.277Zm7.027,0.476l0.809,1.877l-1.618,0l0.809,-1.877Z" style="fill:#FDDEA2;fill-rule:nonzero;"/>
    <path d="M127.592,219.528c-5.359,0 -9.722,4.362 -9.722,9.721l0,15.266c0,5.36 4.363,9.723 9.722,9.723l9.646,0c5.36,0 9.723,-4.363 9.723,-9.723l0,-15.266c0,-5.359 -4.363,-9.721 -9.723,-9.721l-9.646,0Z" style="fill:none;stroke:#FDDEA2;stroke-width:1.2px;stroke-linecap:butt;stroke-miterlimit:4;"/>
    <path d="M135.84,247.28c-0.458,0 -0.855,0.092 -1.193,0.279c-0.338,0.187 -0.6,0.453 -0.784,0.797c-0.185,0.344 -0.277,0.749 -0.277,1.215c0,0.466 0.09,0.874 0.273,1.223c0.182,0.348 0.444,0.615 0.784,0.802c0.341,0.186 0.739,0.28 1.197,0.28c0.457,0 0.855,-0.094 1.193,-0.28c0.338,-0.187 0.597,-0.454 0.778,-0.802c0.18,-0.349 0.271,-0.757 0.271,-1.223c0,-0.466 -0.091,-0.871 -0.271,-1.215c-0.181,-0.344 -0.44,-0.61 -0.778,-0.797c-0.338,-0.187 -0.736,-0.279 -1.193,-0.279Zm-9.445,0.057l0,4.482l3.08,0l0,-0.957l-1.897,0l0,-3.525l-1.183,0Zm3.644,0l0,4.482l1.166,0l0,-1.82l1.838,0l0,-0.918l-1.838,0l0,-0.819l1.965,0l0,-0.925l-3.131,0Zm5.801,0.843c0.336,0 0.598,0.119 0.789,0.356c0.191,0.238 0.287,0.582 0.287,1.035c0,0.458 -0.096,0.806 -0.287,1.045c-0.191,0.24 -0.453,0.359 -0.789,0.359c-0.336,0 -0.598,-0.118 -0.787,-0.355c-0.189,-0.238 -0.283,-0.587 -0.283,-1.049c0,-0.457 0.094,-0.804 0.283,-1.039c0.189,-0.235 0.451,-0.352 0.787,-0.352l0,0Z" style="fill:#FDDEA2;fill-rule:nonzero;"/>
    <path d="M93.323,301.15c-0.458,0 -0.855,0.094 -1.193,0.281c-0.338,0.187 -0.6,0.453 -0.784,0.797c-0.185,0.344 -0.277,0.749 -0.277,1.215c0,0.466 0.091,0.872 0.273,1.221c0.183,0.348 0.446,0.617 0.786,0.804c0.34,0.186 0.737,0.28 1.195,0.28c0.458,0 0.855,-0.094 1.193,-0.28c0.338,-0.187 0.597,-0.456 0.778,-0.804c0.18,-0.349 0.271,-0.755 0.271,-1.221c0,-0.466 -0.091,-0.871 -0.271,-1.215c-0.181,-0.344 -0.44,-0.61 -0.778,-0.797c-0.338,-0.187 -0.735,-0.281 -1.193,-0.281l0,0Zm-9.445,0.057l0,4.484l3.08,0l0,-0.957l-1.897,0l0,-3.527l-1.183,0Zm3.644,0l0,4.484l1.166,0l0,-1.82l1.838,0l0,-0.92l-1.838,0l0,-0.819l1.965,0l0,-0.925l-3.131,0Zm14.213,0l0,4.484l1.166,0l0,-1.82l1.838,0l0,-0.92l-1.838,0l0,-0.819l1.963,0l0,-0.925l-3.129,0Zm3.678,0l0,4.484l3.199,0l0,-0.908l-2.047,0l0,-0.918l1.914,0l0,-0.908l-1.914,0l0,-0.844l2.047,0l0,-0.906l-3.199,0Zm3.803,0l0,4.484l3.199,0l0,-0.908l-2.047,0l0,-0.918l1.914,0l0,-0.908l-1.914,0l0,-0.844l2.047,0l0,-0.906l-3.199,0Zm3.804,0l0,4.484l1.832,0c0.5,0 0.928,-0.09 1.287,-0.268c0.359,-0.179 0.634,-0.437 0.823,-0.775c0.189,-0.338 0.283,-0.739 0.283,-1.205c0,-0.462 -0.094,-0.861 -0.285,-1.197c-0.191,-0.336 -0.467,-0.593 -0.826,-0.772c-0.359,-0.178 -0.786,-0.267 -1.282,-0.267l-1.832,0Zm-19.697,0.845c0.336,0 0.598,0.117 0.789,0.354c0.191,0.237 0.287,0.584 0.287,1.037c0,0.458 -0.096,0.806 -0.287,1.045c-0.191,0.24 -0.453,0.359 -0.789,0.359c-0.336,0 -0.598,-0.118 -0.787,-0.355c-0.189,-0.238 -0.283,-0.587 -0.283,-1.049c0,-0.457 0.094,-0.804 0.283,-1.039c0.189,-0.235 0.451,-0.352 0.787,-0.352l0,0Zm20.881,0.1l0.567,0c0.869,0 1.302,0.431 1.302,1.291c0,0.437 -0.106,0.762 -0.322,0.978c-0.217,0.217 -0.543,0.325 -0.98,0.325l-0.567,0l0,-2.594Z" style="fill:#FDDEA2;fill-rule:nonzero;"/>
    <g>
      <path d="M27.382,248.231c-0.24,0 -0.458,0.037 -0.652,0.109c-0.194,0.072 -0.358,0.173 -0.492,0.303c-0.134,0.13 -0.237,0.284 -0.311,0.466c-0.074,0.182 -0.111,0.386 -0.111,0.61c0,0.224 0.035,0.408 0.105,0.554c0.07,0.146 0.162,0.268 0.276,0.364c0.114,0.096 0.244,0.172 0.39,0.23c0.146,0.058 0.294,0.112 0.446,0.16c0.128,0.044 0.238,0.083 0.328,0.12c0.09,0.036 0.163,0.075 0.219,0.117c0.056,0.042 0.095,0.088 0.119,0.138c0.024,0.05 0.037,0.108 0.037,0.176c0,0.112 -0.047,0.213 -0.141,0.301c-0.094,0.088 -0.238,0.133 -0.43,0.133c-0.168,0 -0.337,-0.039 -0.509,-0.115c-0.172,-0.076 -0.346,-0.192 -0.522,-0.348l-0.504,0.947c0.488,0.34 1.018,0.512 1.59,0.512c0.276,0 0.522,-0.037 0.74,-0.111c0.218,-0.074 0.403,-0.179 0.553,-0.313c0.15,-0.134 0.264,-0.294 0.342,-0.482c0.078,-0.188 0.117,-0.399 0.117,-0.631c0,-0.344 -0.089,-0.622 -0.267,-0.836c-0.178,-0.214 -0.46,-0.386 -0.844,-0.514c-0.096,-0.032 -0.193,-0.062 -0.291,-0.09c-0.098,-0.028 -0.186,-0.061 -0.264,-0.099c-0.078,-0.038 -0.141,-0.083 -0.189,-0.135c-0.048,-0.052 -0.071,-0.117 -0.071,-0.197c0,-0.116 0.047,-0.212 0.143,-0.284c0.096,-0.072 0.221,-0.107 0.373,-0.107c0.12,0 0.243,0.024 0.371,0.074c0.128,0.05 0.257,0.129 0.385,0.233l0.467,-0.918c-0.224,-0.12 -0.458,-0.212 -0.702,-0.274c-0.244,-0.062 -0.477,-0.093 -0.701,-0.093l0,0Zm3.534,0.126l-1.723,4.524l1.254,0l0.271,-0.785l1.68,0l0.269,0.785l1.254,0l-1.722,-4.524l-1.283,0Zm2.843,0l1.35,4.524l1.201,0l0.887,-2.621l0.888,2.621l1.2,0l1.351,-4.524l-1.23,0l-0.78,2.922l-0.96,-2.922l-0.936,0l-0.961,2.922l-0.779,-2.922l-1.231,0Zm-2.201,1.338l0.527,1.506l-1.056,0l0.529,-1.506Z" style="fill:#FDDEA2;fill-rule:nonzero;"/>
      <path d="M25.237,237.141l0,0.996l0.965,0l0,3.527l1.178,0l0,-3.527l0.965,0l0,-0.996l-3.108,0Zm3.629,0l0,4.523l1.178,0l0,-1.738l1.121,1.738l1.465,0l-1.422,-1.854c0.324,-0.076 0.568,-0.221 0.734,-0.435c0.166,-0.214 0.248,-0.492 0.248,-0.836c0,-0.192 -0.029,-0.373 -0.091,-0.541c-0.062,-0.168 -0.156,-0.315 -0.278,-0.443c-0.122,-0.128 -0.277,-0.229 -0.465,-0.303c-0.188,-0.074 -0.408,-0.112 -0.66,-0.112l-1.83,0.001Zm4.254,0l0,4.523l1.178,0l0,-4.523l-1.178,0Zm-3.076,0.906l0.221,0c0.232,0 0.411,0.048 0.535,0.144c0.124,0.096 0.185,0.234 0.185,0.414c0,0.18 -0.061,0.318 -0.185,0.414c-0.124,0.096 -0.303,0.143 -0.535,0.143l-0.221,0l0,-1.115Z" style="fill:#FDDEA2;fill-rule:nonzero;"/>
      <path d="M28.011,259.551c-0.316,0 -0.618,0.057 -0.906,0.175c-0.288,0.118 -0.54,0.282 -0.758,0.492c-0.218,0.21 -0.393,0.46 -0.523,0.75c-0.13,0.29 -0.194,0.61 -0.194,0.958c0,0.348 0.066,0.668 0.198,0.962c0.132,0.294 0.307,0.548 0.525,0.762c0.218,0.214 0.47,0.38 0.756,0.498c0.286,0.118 0.584,0.178 0.896,0.178c0.152,0 0.307,-0.015 0.463,-0.045c0.156,-0.03 0.324,-0.077 0.504,-0.141l0.119,-0.043l0,-1.392c-0.3,0.32 -0.637,0.48 -1.013,0.48c-0.172,0 -0.333,-0.031 -0.481,-0.095c-0.148,-0.064 -0.277,-0.152 -0.387,-0.264c-0.11,-0.112 -0.195,-0.245 -0.257,-0.397c-0.062,-0.152 -0.094,-0.318 -0.094,-0.498c0,-0.176 0.032,-0.34 0.094,-0.492c0.062,-0.152 0.148,-0.282 0.256,-0.392c0.108,-0.11 0.236,-0.198 0.386,-0.262c0.15,-0.064 0.313,-0.096 0.489,-0.096c0.4,0 0.735,0.166 1.007,0.498l0,-1.404c-0.192,-0.08 -0.374,-0.138 -0.548,-0.176c-0.174,-0.038 -0.352,-0.056 -0.532,-0.056l0,0Zm13.963,0c-0.368,0 -0.705,0.059 -1.011,0.181c-0.306,0.122 -0.569,0.292 -0.789,0.508c-0.22,0.216 -0.392,0.468 -0.516,0.758c-0.124,0.29 -0.186,0.603 -0.186,0.939c0,0.336 0.062,0.65 0.186,0.94c0.124,0.29 0.296,0.543 0.516,0.759c0.22,0.216 0.483,0.384 0.789,0.506c0.306,0.122 0.643,0.184 1.011,0.184c0.364,0 0.7,-0.062 1.008,-0.184c0.308,-0.122 0.573,-0.29 0.795,-0.506c0.222,-0.216 0.396,-0.469 0.52,-0.759c0.124,-0.29 0.185,-0.604 0.185,-0.94c0,-0.336 -0.061,-0.649 -0.185,-0.939c-0.124,-0.29 -0.298,-0.542 -0.52,-0.758c-0.222,-0.216 -0.487,-0.386 -0.795,-0.508c-0.308,-0.122 -0.644,-0.181 -1.008,-0.181Zm4.799,0c-0.24,0 -0.456,0.035 -0.65,0.107c-0.194,0.072 -0.358,0.173 -0.492,0.303c-0.134,0.13 -0.239,0.286 -0.313,0.468c-0.074,0.182 -0.109,0.384 -0.109,0.608c0,0.224 0.033,0.41 0.103,0.556c0.07,0.146 0.163,0.266 0.277,0.362c0.114,0.096 0.243,0.174 0.389,0.232c0.146,0.058 0.295,0.11 0.447,0.158c0.128,0.044 0.239,0.086 0.329,0.122c0.09,0.036 0.162,0.073 0.218,0.115c0.056,0.042 0.095,0.088 0.119,0.138c0.024,0.05 0.038,0.11 0.038,0.178c0,0.112 -0.049,0.211 -0.143,0.299c-0.094,0.088 -0.236,0.133 -0.428,0.133c-0.168,0 -0.338,-0.037 -0.51,-0.113c-0.172,-0.076 -0.347,-0.194 -0.523,-0.35l-0.504,0.949c0.488,0.34 1.018,0.51 1.59,0.51c0.276,0 0.524,-0.037 0.742,-0.111c0.218,-0.074 0.401,-0.179 0.551,-0.313c0.15,-0.134 0.264,-0.294 0.342,-0.482c0.078,-0.188 0.117,-0.399 0.117,-0.631c0,-0.344 -0.088,-0.622 -0.266,-0.836c-0.178,-0.214 -0.459,-0.386 -0.843,-0.514c-0.096,-0.032 -0.194,-0.062 -0.292,-0.09c-0.098,-0.028 -0.185,-0.061 -0.263,-0.099c-0.078,-0.038 -0.142,-0.083 -0.19,-0.135c-0.048,-0.052 -0.072,-0.117 -0.072,-0.197c0,-0.116 0.049,-0.209 0.145,-0.281c0.096,-0.072 0.219,-0.11 0.371,-0.11c0.12,0 0.245,0.026 0.373,0.076c0.128,0.05 0.257,0.127 0.385,0.231l0.466,-0.918c-0.224,-0.12 -0.457,-0.212 -0.701,-0.274c-0.244,-0.062 -0.479,-0.091 -0.703,-0.091l0,0Zm-16.746,0.125l0,4.523l1.176,0l0,-1.865l1.699,0l0,1.865l1.176,0l0,-4.523l-1.176,0l0,1.746l-1.699,0l0,-1.746l-1.176,0Zm6.289,0l-1.723,4.523l1.254,0l0.27,-0.785l1.682,0l0.269,0.785l1.254,0l-1.723,-4.523l-1.283,0Zm5.658,1.013c0.172,0 0.335,0.032 0.489,0.094c0.154,0.062 0.29,0.148 0.408,0.26c0.118,0.112 0.211,0.244 0.279,0.396c0.068,0.152 0.102,0.318 0.102,0.498c0,0.18 -0.034,0.346 -0.102,0.498c-0.068,0.152 -0.161,0.285 -0.279,0.397c-0.118,0.112 -0.254,0.199 -0.408,0.261c-0.154,0.062 -0.317,0.092 -0.489,0.092c-0.172,0 -0.336,-0.03 -0.49,-0.092c-0.154,-0.062 -0.288,-0.149 -0.404,-0.261c-0.116,-0.112 -0.208,-0.245 -0.276,-0.397c-0.068,-0.152 -0.103,-0.318 -0.103,-0.498c0,-0.18 0.035,-0.346 0.103,-0.498c0.068,-0.152 0.16,-0.284 0.276,-0.396c0.116,-0.112 0.25,-0.198 0.404,-0.26c0.154,-0.062 0.318,-0.094 0.49,-0.094Zm-5.015,0.324l0.527,1.506l-1.056,0l0.529,-1.506Z" style="fill:#FDDEA2;fill-rule:nonzero;"/>
    </g>
    <path d="M21.104,222.04c-0.582,0 -1.087,0.117 -1.516,0.355c-0.43,0.237 -0.762,0.574 -0.996,1.012c-0.235,0.437 -0.351,0.953 -0.351,1.545c0,0.592 0.115,1.108 0.347,1.551c0.232,0.442 0.564,0.783 0.996,1.021c0.432,0.237 0.938,0.356 1.52,0.356c0.581,0 1.086,-0.119 1.516,-0.356c0.429,-0.238 0.758,-0.579 0.988,-1.021c0.229,-0.443 0.344,-0.959 0.344,-1.551c0,-0.592 -0.115,-1.108 -0.344,-1.545c-0.23,-0.438 -0.559,-0.775 -0.988,-1.012c-0.43,-0.238 -0.935,-0.355 -1.516,-0.355Zm-12,0.072l0,5.696l3.912,0l0,-1.217l-2.408,0l0,-4.479l-1.504,0Zm4.633,0l0,5.696l1.48,0l0,-2.313l2.336,0l0,-1.168l-2.336,0l0,-1.039l2.496,0l0,-1.176l-3.976,0Zm7.367,1.073c0.426,0 0.761,0.149 1.004,0.451c0.242,0.301 0.365,0.74 0.365,1.316c0,0.581 -0.123,1.024 -0.365,1.328c-0.243,0.304 -0.578,0.455 -1.004,0.455c-0.427,0 -0.76,-0.15 -1,-0.451c-0.24,-0.302 -0.359,-0.746 -0.359,-1.332c0,-0.582 0.119,-1.022 0.359,-1.32c0.24,-0.299 0.573,-0.447 1,-0.447l0,0Z" style="fill:rgb(255,204,0);fill-rule:nonzero;"/>
    <path d="M9.971,269.32l1.523,4.272l0.895,0l0.912,-2.538l0.892,2.538l0.895,0l1.529,-4.272l-1.066,0l-0.918,2.742l-0.918,-2.742l-0.77,0l-0.953,2.693l-0.877,-2.693l-1.144,0Zm8.14,0l-1.998,4.272l1.129,0l0.377,-0.883l1.897,0l0.379,0.882l1.109,0l-2.004,-4.271l-0.889,0Zm2.178,0l1.945,4.272l0.895,0l1.943,-4.272l-1.135,0l-1.248,2.867l-1.228,-2.867l-1.172,0Zm5.029,0l0,4.272l3.047,0l0,-0.864l-1.949,0l0,-0.877l1.824,0l0,-0.863l-1.824,0l0,-0.805l1.949,0l0,-0.863l-3.047,0Zm-6.75,1.193l0.582,1.35l-1.164,0l0.582,-1.35Z" style="fill:#FDDEA2;fill-rule:nonzero;"/>
    <path d="M41.775,301.15c-0.458,0 -0.855,0.095 -1.193,0.281c-0.338,0.187 -0.601,0.453 -0.786,0.797c-0.184,0.344 -0.277,0.749 -0.277,1.215c0,0.466 0.093,0.873 0.275,1.221c0.183,0.348 0.444,0.617 0.784,0.804c0.34,0.187 0.739,0.28 1.197,0.28c0.457,0 0.855,-0.093 1.193,-0.28c0.338,-0.187 0.597,-0.456 0.778,-0.804c0.18,-0.348 0.269,-0.755 0.269,-1.221c0,-0.466 -0.089,-0.871 -0.269,-1.215c-0.181,-0.344 -0.44,-0.61 -0.778,-0.797c-0.338,-0.186 -0.736,-0.281 -1.193,-0.281l0,0Zm22.529,0c-0.457,0 -0.853,0.095 -1.191,0.281c-0.338,0.187 -0.601,0.453 -0.786,0.797c-0.185,0.344 -0.277,0.749 -0.277,1.215c0,0.466 0.092,0.873 0.275,1.221c0.182,0.348 0.444,0.617 0.784,0.804c0.34,0.187 0.738,0.28 1.195,0.28l0.127,0c0.273,0.462 0.64,0.844 1.102,1.146l0.787,-0.574c-0.176,-0.147 -0.333,-0.288 -0.469,-0.424c-0.136,-0.136 -0.252,-0.283 -0.344,-0.439c0.332,-0.184 0.59,-0.449 0.77,-0.795c0.181,-0.347 0.269,-0.753 0.269,-1.219c0,-0.466 -0.088,-0.871 -0.269,-1.215c-0.18,-0.344 -0.442,-0.61 -0.78,-0.797c-0.338,-0.186 -0.735,-0.281 -1.193,-0.281l0,0Zm-31.975,0.057l0,4.484l3.078,0l0,-0.957l-1.894,0l0,-3.527l-1.184,0Zm3.644,0l0,4.484l1.166,0l0,-1.82l1.838,0l0,-0.92l-1.838,0l0,-0.817l1.965,0l0,-0.927l-3.131,0Zm14.213,0l0,4.484l1.165,0l0,-1.82l1.839,0l0,-0.92l-1.839,0l0,-0.817l1.966,0l0,-0.927l-3.131,0Zm3.678,0l0,4.484l1.166,0l0,-1.744l0.428,0c0.248,0 0.404,0.084 0.471,0.252l0.58,1.492l1.254,0l-0.53,-1.336c-0.059,-0.155 -0.139,-0.279 -0.24,-0.371c-0.1,-0.092 -0.214,-0.151 -0.34,-0.176c0.294,-0.093 0.522,-0.249 0.684,-0.47c0.161,-0.22 0.242,-0.481 0.242,-0.784c0,-0.432 -0.135,-0.765 -0.408,-0.998c-0.273,-0.233 -0.681,-0.349 -1.223,-0.349l-2.084,0Zm4.496,0l0,4.484l3.2,0l0,-0.906l-2.047,0l0,-0.92l1.914,0l0,-0.908l-1.914,0l0,-0.842l2.047,0l0,-0.908l-3.2,0Zm-16.586,0.845c0.336,0 0.6,0.118 0.791,0.356c0.191,0.237 0.285,0.582 0.285,1.035c0,0.458 -0.094,0.805 -0.285,1.045c-0.191,0.239 -0.455,0.359 -0.791,0.359c-0.336,0 -0.599,-0.118 -0.787,-0.355c-0.189,-0.237 -0.283,-0.587 -0.283,-1.049c0,-0.457 0.094,-0.804 0.283,-1.039c0.188,-0.235 0.451,-0.352 0.787,-0.352l0,0Zm22.529,0c0.336,0 0.6,0.118 0.791,0.356c0.191,0.237 0.287,0.582 0.287,1.035c0,0.458 -0.096,0.805 -0.287,1.045c-0.191,0.239 -0.455,0.359 -0.791,0.359c-0.336,0 -0.598,-0.118 -0.787,-0.355c-0.189,-0.237 -0.281,-0.587 -0.281,-1.049c0,-0.457 0.092,-0.804 0.281,-1.039c0.189,-0.235 0.451,-0.352 0.787,-0.352l0,0Zm-9.287,0.049l0.742,0c0.256,0 0.44,0.038 0.551,0.113c0.111,0.076 0.168,0.199 0.168,0.371c0,0.164 -0.057,0.286 -0.17,0.364c-0.113,0.078 -0.297,0.117 -0.549,0.117l-0.742,0l0,-0.965Z" style="fill:#FDDEA2;fill-rule:nonzero;"/>
    <path d="M125.72,281c-0.361,0 -0.682,0.063 -0.963,0.188c-0.282,0.124 -0.501,0.295 -0.656,0.515c-0.156,0.221 -0.233,0.467 -0.233,0.74c0,0.239 0.047,0.444 0.141,0.612c0.095,0.168 0.261,0.313 0.496,0.437c0.235,0.123 0.564,0.227 0.988,0.311c0.336,0.072 0.564,0.144 0.686,0.218c0.121,0.073 0.184,0.166 0.184,0.28c0,0.126 -0.068,0.223 -0.202,0.293c-0.135,0.069 -0.328,0.103 -0.58,0.103c-0.247,0 -0.495,-0.035 -0.74,-0.109c-0.246,-0.073 -0.477,-0.179 -0.695,-0.318l-0.371,0.837c0.206,0.151 0.471,0.272 0.799,0.36c0.327,0.088 0.66,0.131 0.996,0.131c0.617,0 1.095,-0.125 1.435,-0.375c0.34,-0.25 0.51,-0.594 0.51,-1.03c0,-0.231 -0.049,-0.428 -0.145,-0.593c-0.097,-0.166 -0.263,-0.312 -0.496,-0.436c-0.233,-0.124 -0.552,-0.23 -0.959,-0.318c-0.252,-0.054 -0.442,-0.107 -0.568,-0.155c-0.125,-0.048 -0.212,-0.098 -0.258,-0.148c-0.046,-0.05 -0.068,-0.112 -0.068,-0.188c0,-0.139 0.065,-0.25 0.195,-0.332c0.13,-0.081 0.303,-0.121 0.518,-0.121c0.218,0 0.434,0.036 0.652,0.11c0.219,0.073 0.428,0.179 0.625,0.318l0.365,-0.838c-0.172,-0.147 -0.41,-0.265 -0.715,-0.355c-0.304,-0.091 -0.618,-0.137 -0.941,-0.137l0,0Zm13.463,0c-0.466,0 -0.872,0.096 -1.219,0.287c-0.346,0.191 -0.613,0.46 -0.799,0.807c-0.187,0.346 -0.281,0.746 -0.281,1.199c0,0.458 0.094,0.861 0.281,1.209c0.186,0.349 0.453,0.618 0.799,0.809c0.347,0.191 0.753,0.287 1.219,0.287c0.294,0 0.579,-0.043 0.854,-0.131c0.275,-0.088 0.496,-0.209 0.664,-0.36l-0.36,-0.837c-0.365,0.265 -0.743,0.396 -1.133,0.396c-0.361,0 -0.639,-0.115 -0.832,-0.346c-0.193,-0.231 -0.289,-0.573 -0.289,-1.027c0,-0.449 0.096,-0.789 0.289,-1.018c0.193,-0.228 0.471,-0.341 0.832,-0.341c0.39,0 0.768,0.131 1.133,0.396l0.36,-0.838c-0.168,-0.151 -0.389,-0.27 -0.664,-0.359c-0.275,-0.088 -0.56,-0.133 -0.854,-0.133l0,0Zm-11.951,0.059l1.883,2.763l0,1.719l1.189,0l0,-1.713l1.877,-2.74l0,4.453l1.102,0l0,-2.545l2.033,2.545l0.877,0l0,-4.482l-1.115,0l0,2.531l-2.035,-2.531l-2.192,0l-1.15,1.787l-1.135,-1.787l-1.334,0Z" style="fill:#FDDEA2;fill-rule:nonzero;"/>
    <path d="M100.959,273.691c-0.332,0.006 -0.596,0.28 -0.59,0.612l0.002,1.408c-2.52,0.13 -5.006,1.042 -7.047,2.756c-4.419,3.707 -5.55,10.112 -2.668,15.105l0.301,0.519l10.035,-5.793l10.035,5.793l0.301,-0.519c2.882,-4.994 1.752,-11.398 -2.668,-15.105c-2.052,-1.723 -4.555,-2.636 -7.09,-2.758l-0.002,-1.41c0.004,-0.338 -0.272,-0.613 -0.61,-0.608l0.001,0Zm-0.586,3.219l0.019,10.35l-8.902,5.141c-2.209,-4.403 -1.209,-9.814 2.606,-13.014c1.818,-1.528 4.031,-2.348 6.277,-2.477Zm1.199,0c2.259,0.121 4.488,0.94 6.316,2.477l0.002,0c3.816,3.2 4.814,8.611 2.604,13.014l-8.902,-5.141l-0.02,-10.35Zm8.852,16.951c-0.331,0.007 -0.926,0.28 -0.92,0.611l0.01,1.582l-1.605,0.008c-0.831,-0.027 -0.825,1.236 0.006,1.2l1.605,-0.008l0.01,1.628c-0.026,0.831 1.237,0.823 1.2,-0.008l-0.008,-1.625l1.603,-0.008c0.801,-0.004 0.795,-1.205 -0.006,-1.201l-1.605,0.008l-0.008,-1.584c0.002,-0.338 -0.276,-0.611 -0.614,-0.603l0.332,0Zm-16.092,2.057l-4.414,0.019c-0.801,0.004 -0.795,1.205 0.006,1.201l4.414,-0.021c0.831,0.028 0.824,-1.235 -0.006,-1.199Z" style="fill:#FDDEA2;fill-rule:nonzero;"/>
    <path d="M49.992,273.985c-0.332,0.006 -0.596,0.28 -0.59,0.612l0.002,1.408c-2.521,0.13 -5.006,1.042 -7.047,2.756c-4.419,3.707 -5.55,10.112 -2.668,15.105l0.301,0.519l10.035,-5.793l10.035,5.793l0.301,-0.519c2.882,-4.993 1.752,-11.398 -2.668,-15.105c-2.052,-1.723 -4.555,-2.636 -7.09,-2.758l-0.002,-1.41c0.004,-0.338 -0.272,-0.613 -0.61,-0.608l0.001,0Zm-0.586,3.219l0.019,10.35l-8.902,5.141c-2.21,-4.403 -1.209,-9.814 2.605,-13.014c1.819,-1.528 4.032,-2.348 6.278,-2.477Zm1.199,0c2.259,0.121 4.487,0.941 6.316,2.477l0.002,0c3.816,3.2 4.813,8.611 2.604,13.014l-8.903,-5.141l-0.019,-10.35Zm8.852,16.951c-0.332,0.007 -0.926,0.28 -0.92,0.611l0.01,1.582l-1.605,0.008c-0.831,-0.027 -0.825,1.236 0.006,1.2l1.605,-0.008l0.01,1.629c-0.026,0.83 1.237,0.822 1.199,-0.008l-0.008,-1.625l1.604,-0.008c0.801,-0.004 0.795,-1.206 -0.006,-1.202l-1.606,0.008l-0.008,-1.584c0.002,-0.338 -0.275,-0.611 -0.613,-0.603l0.332,0Zm-16.092,2.057l-4.415,0.019c-0.8,0.004 -0.794,1.205 0.006,1.201l4.415,-0.021c0.83,0.028 0.824,-1.235 -0.006,-1.199Z" style="fill:#FDDEA2;fill-rule:nonzero;"/>
    <path d="M7.797,307.88c-0.008,0 -0.016,0 -0.024,0c-0.329,0 -0.6,0.27 -0.6,0.6c0,0.329 0.271,0.6 0.6,0.6c0.008,0 0.016,0 0.024,-0.001l134.35,0c0.008,0.001 0.016,0.001 0.023,0.001c0.33,0 0.6,-0.271 0.6,-0.6c0,-0.33 -0.27,-0.6 -0.6,-0.6c-0.007,0 -0.015,0 -0.023,0l-134.35,0Z" style="fill:#FDDEA2;"/>
    <path d="M44.68,301.18l0,4.551l3.138,-2.276l-3.138,-2.275Z" style="fill:#FDDEA2;"/>
    <path d="M96.214,301.18l0,4.551l3.138,-2.276l-3.138,-2.275Z" style="fill:#FDDEA2;"/>
    <path d="M23.411,347.84l0,6.035l1.57,0l0,-6.035l-1.57,0Zm2.834,0l0,6.035l1.568,0l0,-3.689l2.897,3.689l1.56,0l0,-6.035l-1.56,0l0,3.691l-2.897,-3.691l-1.568,0Zm7.291,0l0,6.035l1.569,0l-0.001,-2l0.928,0c0.676,0 1.197,-0.177 1.557,-0.529c0.361,-0.352 0.541,-0.848 0.541,-1.488c0,-0.64 -0.18,-1.137 -0.541,-1.489c-0.36,-0.353 -0.881,-0.529 -1.557,-0.529l-2.496,0Zm5.426,0l0,3.498c0,0.94 0.216,1.626 0.648,2.059c0.432,0.432 1.093,0.646 1.985,0.646c0.892,0 1.552,-0.214 1.98,-0.646c0.428,-0.433 0.645,-1.119 0.645,-2.059l0,-3.498l-1.561,0l0,3.283c0,0.176 -0.01,0.355 -0.019,0.539c-0.012,0.184 -0.056,0.352 -0.125,0.5c-0.068,0.148 -0.176,0.273 -0.316,0.365c-0.14,0.092 -0.344,0.139 -0.604,0.139c-0.26,0 -0.463,-0.047 -0.607,-0.139c-0.144,-0.092 -0.249,-0.217 -0.317,-0.365c-0.068,-0.148 -0.109,-0.316 -0.121,-0.5c-0.012,-0.184 -0.02,-0.363 -0.02,-0.539l0,-3.283l-1.568,0Zm5.953,0l0,1.33l1.289,0l0,4.705l1.57,0l0,-4.705l1.287,0l0,-1.33l-4.146,0Zm-9.81,1.266l0.519,0c0.576,0 0.865,0.252 0.865,0.752c0,0.5 -0.289,0.752 -0.865,0.752l-0.519,0l0,-1.504Z" style="fill:#FDDEA2;"/>
    <path d="M23.506,315.32l0,3.529l1.412,0l0,0.997l-2.589,0l0,-4.526l1.177,0Z" style="fill:rgb(140,140,140);fill-rule:nonzero;"/>
    <path d="M50.144,317.35l0.224,0c0.232,0 0.408,-0.048 0.532,-0.144c0.124,-0.096 0.188,-0.236 0.188,-0.416c0,-0.181 -0.064,-0.317 -0.188,-0.413c-0.124,-0.096 -0.3,-0.144 -0.532,-0.144l-0.224,0l0,1.117Zm2.589,2.501l-1.465,0l-1.124,-1.741l0,1.741l-1.177,0l0,-4.526l1.833,0c0.252,0 0.472,0.04 0.66,0.112c0.188,0.076 0.34,0.176 0.464,0.304c0.12,0.128 0.213,0.276 0.277,0.444c0.06,0.168 0.092,0.348 0.092,0.541c0,0.344 -0.084,0.624 -0.249,0.836c-0.168,0.212 -0.412,0.36 -0.736,0.436l1.425,1.853Z" style="fill:rgb(140,140,140);fill-rule:nonzero;"/>
    <path d="M19.721,311.99c-6.033,0 -10.942,4.481 -10.942,9.988l0,13.145c0,0.801 1.316,0.801 1.316,0l0,-13.145c0,-4.857 4.305,-8.789 9.626,-8.789l33.375,0c5.321,0 9.629,3.932 9.629,8.789l0,13.145c0,0.843 1.349,0.831 1.313,0l0,-13.145c0,-5.506 -4.909,-9.988 -10.942,-9.988l-33.375,0Z" style="fill:#FDDEA2;"/>
    <path d="M97.096,311.99c-5.763,0 -10.456,4.362 -10.456,9.721l0,23.115c0,5.36 4.693,9.722 10.456,9.722l33.334,0c5.765,0 10.457,-4.363 10.457,-9.722l0,-23.115c0,-5.359 -4.692,-9.721 -10.457,-9.721l-33.334,0Z" style="fill:none;stroke:#FDDEA2;stroke-width:1.25px;stroke-linecap:butt;stroke-linejoin:round;stroke-miterlimit:1.5;"/>
    <path d="M99.888,346.625c-0.493,0 -0.942,0.08 -1.35,0.244c-0.408,0.16 -0.758,0.389 -1.05,0.678c-0.293,0.288 -0.526,0.624 -0.69,1.008c-0.164,0.388 -0.248,0.805 -0.248,1.254c0,0.448 0.084,0.868 0.248,1.252c0.164,0.388 0.397,0.723 0.69,1.011c0.292,0.289 0.642,0.512 1.05,0.676c0.408,0.164 0.857,0.244 1.35,0.244c0.484,0 0.932,-0.08 1.34,-0.244c0.412,-0.164 0.763,-0.387 1.06,-0.676c0.296,-0.288 0.53,-0.623 0.694,-1.011c0.168,-0.384 0.248,-0.804 0.248,-1.252c0,-0.449 -0.08,-0.866 -0.248,-1.254c-0.164,-0.384 -0.398,-0.72 -0.694,-1.008c-0.297,-0.289 -0.648,-0.518 -1.06,-0.678c-0.408,-0.164 -0.856,-0.244 -1.34,-0.244Zm4.334,0.168l0,3.494c0,0.94 0.215,1.626 0.648,2.059c0.432,0.432 1.093,0.646 1.985,0.646c0.889,0 1.548,-0.214 1.98,-0.646c0.428,-0.433 0.645,-1.119 0.645,-2.059l0,-3.494l-1.561,0l0,3.279c0,0.176 -0.01,0.355 -0.019,0.539c-0.016,0.184 -0.057,0.352 -0.125,0.5c-0.072,0.148 -0.174,0.274 -0.314,0.366c-0.14,0.092 -0.345,0.138 -0.606,0.138c-0.26,0 -0.465,-0.046 -0.609,-0.138c-0.144,-0.092 -0.247,-0.218 -0.314,-0.366c-0.068,-0.148 -0.109,-0.316 -0.122,-0.5c-0.012,-0.184 -0.019,-0.363 -0.019,-0.539l0,-3.279l-1.569,0Zm5.955,0l0,1.326l1.283,0l0,4.705l1.569,0l0,-4.705l1.289,0l0,-1.326l-4.141,0Zm4.838,0l0,6.031l1.568,0l0,-2l0.928,0c0.676,0 1.197,-0.177 1.557,-0.529c0.361,-0.352 0.541,-0.848 0.541,-1.488c0,-0.64 -0.18,-1.133 -0.541,-1.485c-0.36,-0.353 -0.881,-0.529 -1.557,-0.529l-2.496,0Zm5.422,0l0,3.494c0,0.94 0.216,1.626 0.648,2.059c0.433,0.432 1.097,0.646 1.985,0.646c0.893,0 1.552,-0.214 1.98,-0.646c0.428,-0.433 0.645,-1.119 0.645,-2.059l0,-3.494l-1.561,0l0,3.279c0,0.176 -0.01,0.355 -0.02,0.539c-0.012,0.184 -0.057,0.352 -0.125,0.5c-0.068,0.148 -0.176,0.274 -0.316,0.366c-0.14,0.092 -0.34,0.138 -0.604,0.138c-0.26,0 -0.463,-0.046 -0.607,-0.138c-0.144,-0.092 -0.249,-0.218 -0.317,-0.366c-0.064,-0.148 -0.105,-0.316 -0.121,-0.5c-0.012,-0.184 -0.02,-0.363 -0.02,-0.539l0,-3.279l-1.567,0Zm5.955,0l0,1.326l1.287,0l0,4.705l1.57,0l0,-4.705l1.284,0l0,-1.326l-4.141,0Zm-9.809,1.262l0.52,0c0.576,0 0.865,0.252 0.865,0.752c0,0.504 -0.289,0.752 -0.865,0.752l-0.52,0l0,-1.504Zm-16.695,0.088c0.228,0 0.445,0.045 0.653,0.125c0.204,0.084 0.383,0.199 0.539,0.347c0.16,0.152 0.285,0.328 0.373,0.528c0.092,0.204 0.137,0.425 0.137,0.666c0,0.24 -0.045,0.464 -0.137,0.664c-0.088,0.204 -0.213,0.379 -0.373,0.527c-0.156,0.152 -0.335,0.264 -0.539,0.348c-0.208,0.084 -0.425,0.125 -0.653,0.125c-0.233,0 -0.448,-0.041 -0.652,-0.125c-0.208,-0.084 -0.389,-0.196 -0.541,-0.348c-0.156,-0.148 -0.279,-0.323 -0.367,-0.527c-0.092,-0.2 -0.137,-0.424 -0.137,-0.664c0,-0.241 0.045,-0.462 0.137,-0.666c0.088,-0.2 0.211,-0.376 0.367,-0.528c0.152,-0.148 0.333,-0.263 0.541,-0.347c0.204,-0.08 0.419,-0.125 0.652,-0.125Z" style="fill:#FDDEA2;fill-rule:nonzero;"/>
    <path d="M99.694,315.32l0,3.529l1.412,0l0,0.997l-2.589,0l0,-4.526l1.177,0Z" style="fill:rgb(137,137,137);fill-rule:nonzero;"/>
    <path d="M124.33,317.35l0.224,0c0.232,0 0.408,-0.048 0.532,-0.144c0.124,-0.096 0.188,-0.236 0.188,-0.416c0,-0.181 -0.064,-0.317 -0.188,-0.413c-0.124,-0.096 -0.3,-0.144 -0.532,-0.144l-0.224,0l0,1.117Zm2.589,2.501l-1.465,0l-1.124,-1.741l0,1.741l-1.177,0l0,-4.526l1.833,0c0.252,0 0.472,0.04 0.66,0.112c0.188,0.076 0.34,0.176 0.464,0.304c0.12,0.128 0.213,0.276 0.277,0.444c0.06,0.168 0.092,0.348 0.092,0.541c0,0.344 -0.084,0.624 -0.249,0.836c-0.168,0.212 -0.412,0.36 -0.736,0.436l1.425,1.853Z" style="fill:rgb(137,137,137);fill-rule:nonzero;"/>
  </g>
</svg>