<svg width="45px" height="380px" version="1.1" xmlns="http://www.w3.org/2000/svg" xmlns:xlink="http://www.w3.org/1999/xlink" xml:space="preserve" xmlns:serif="http://www.serif.com/" style="fill-rule:evenodd;clip-rule:evenodd;stroke-linecap:round;stroke-linejoin:round;stroke-miterlimit:1.5;">
  <defs>
    <linearGradient id="_Linear1" x1="0" y1="0" x2="1" y2="0" gradientUnits="userSpaceOnUse" gradientTransform="matrix(0.007008,-37.8989,37.8989,0.007008,22.7834,112.195)">
      <stop offset="0" style="stop-color:#401B5C;stop-opacity:1"/>
      <stop offset="1" style="stop-color:#401B5C;stop-opacity:1"/>
    </linearGradient>
    <linearGradient id="_Linear2" x1="0" y1="0" x2="1" y2="0" gradientUnits="userSpaceOnUse" gradientTransform="matrix(-4.88,-92.58,92.58,-4.88,225.07,345.91)">
      <stop offset="0" style="stop-color:#401B5C;stop-opacity:1"/>
      <stop offset="1" style="stop-color:#401B5C;stop-opacity:1"/>
    </linearGradient>
    <linearGradient id="_Linear3" x1="0" y1="0" x2="1" y2="0" gradientUnits="userSpaceOnUse" gradientTransform="matrix(-4.75,94.86,-94.86,-4.75,225.07,158.47)">
      <stop offset="0" style="stop-color:#401B5C;stop-opacity:1"/>
      <stop offset="1" style="stop-color:#401B5C;stop-opacity:1"/>
    </linearGradient>
    <linearGradient id="_Linear4" x1="0" y1="0" x2="1" y2="0" gradientUnits="userSpaceOnUse" gradientTransform="matrix(1.15392e-16,-1.8845,1.8845,1.15392e-16,4.029,1.9362)">
      <stop offset="0" style="stop-color:#401B5C;stop-opacity:1"/>
      <stop offset="1" style="stop-color:#401B5C;stop-opacity:1"/>
    </linearGradient>
  </defs>
  <g id="Background">
    <g>
      <g>
        <rect x="0" y="0" width="45" height="380" style="fill:url(#_Linear1);"/>
        <rect x="0" y="253.33" width="45" height="126.67" style="fill:url(#_Linear2);"/>
        <rect x="0" y="126.67" width="45" height="126.67" style="fill:url(#_Linear3);"/>
        <rect x="0" y="0" width="45" height="380" style="fill:rgb(16,53,80);fill-opacity:0.1;"/>
        <rect x="0" y="0" width="45" height="2" style="fill:url(#_Linear4);"/>
      </g>
      <path d="M16.679,218.15c-5.359,0 -9.723,4.362 -9.723,9.721l0,82.708c0,5.36 4.364,9.722 9.723,9.722l12.17,0c5.36,0 9.723,-4.363 9.723,-9.722l0,-82.708c0,-5.359 -4.363,-9.721 -9.723,-9.721l-12.17,0Z" style="fill:none;stroke:#FDDEA2;stroke-width:1.2px;"/>
    </g>
    <path d="M9.361,22.859c-0.503,0 -0.957,0.076 -1.365,0.227c-0.406,0.151 -0.75,0.365 -1.031,0.636c-0.281,0.273 -0.5,0.598 -0.654,0.981c-0.156,0.381 -0.233,0.807 -0.233,1.277c0,0.469 0.072,0.856 0.219,1.162c0.146,0.306 0.34,0.559 0.58,0.762c0.238,0.201 0.511,0.363 0.816,0.484c0.307,0.123 0.62,0.233 0.938,0.334c0.269,0.092 0.496,0.176 0.685,0.25c0.19,0.076 0.341,0.159 0.459,0.248c0.118,0.088 0.202,0.184 0.252,0.289c0.05,0.106 0.075,0.227 0.075,0.369c0,0.236 -0.098,0.446 -0.295,0.631c-0.197,0.184 -0.497,0.276 -0.899,0.276c-0.353,0 -0.709,-0.079 -1.07,-0.239c-0.361,-0.159 -0.725,-0.402 -1.094,-0.73l-1.056,1.988c1.022,0.713 2.135,1.069 3.334,1.069c0.578,0 1.095,-0.078 1.552,-0.233c0.458,-0.156 0.842,-0.373 1.156,-0.654c0.315,-0.28 0.555,-0.618 0.719,-1.012c0.163,-0.394 0.244,-0.835 0.244,-1.322c0,-0.721 -0.185,-1.305 -0.558,-1.754c-0.375,-0.449 -0.963,-0.807 -1.768,-1.076c-0.202,-0.067 -0.405,-0.129 -0.611,-0.188c-0.205,-0.058 -0.389,-0.127 -0.553,-0.207c-0.164,-0.08 -0.295,-0.176 -0.396,-0.285c-0.1,-0.109 -0.151,-0.246 -0.151,-0.414c0,-0.244 0.102,-0.441 0.303,-0.592c0.201,-0.152 0.461,-0.226 0.779,-0.226c0.252,0 0.511,0.053 0.78,0.158c0.267,0.104 0.537,0.265 0.804,0.482l0.983,-1.923c-0.471,-0.252 -0.962,-0.442 -1.473,-0.571c-0.511,-0.13 -1.001,-0.197 -1.471,-0.197l0,0Zm4.881,0.266l0,9.484l2.465,0l0,-3.144l1.459,0c1.066,0 1.881,-0.276 2.447,-0.831c0.566,-0.552 0.85,-1.334 0.85,-2.339c0,-1.007 -0.284,-1.787 -0.85,-2.34c-0.566,-0.554 -1.381,-0.83 -2.447,-0.83l-3.924,0l0,0Zm8.528,0l0,9.484l5.423,0l0,-2.088l-2.957,0l0,-7.396l-2.466,0Zm6.693,0l0,9.484l2.465,0l0,-9.484l-2.465,0Zm4.453,0l0,9.484l5.397,0l0,-2.088l-2.93,0l0,-1.637l2.765,0l0,-2.087l-2.765,0l0,-1.584l2.93,0l0,-2.088l-5.397,0Zm-17.209,1.986l0.818,0c0.906,0 1.358,0.395 1.358,1.184c0,0.788 -0.452,1.181 -1.358,1.181l-0.818,0l0,-2.365Z" style="fill:#FDDEA2;fill-rule:nonzero;"/>
    <g>
      <g>
        <path d="M30.68,340.459c0,-4.509 -3.655,-8.165 -8.164,-8.165c-4.509,0 -8.165,3.656 -8.165,8.165c0,4.509 3.656,8.165 8.165,8.165c4.509,0 8.164,-3.656 8.164,-8.165Z" style="fill:rgb(117,117,117);fill-rule:nonzero;stroke:rgb(53,53,53);stroke-width:0.61px;stroke-miterlimit:10;"/>
        <path d="M20.62,345.429l0.553,-0.89l-1.064,-2.393l-2.216,-2.284l0.46,3.101l0.597,1.28l0.833,1.263l0.837,-0.077Z" style="fill:rgb(43,43,43);fill-rule:nonzero;"/>
        <path d="M24.35,345.439l-0.553,-0.891l1.064,-2.393l2.216,-2.284l-0.46,3.101l-0.597,1.28l-0.833,1.264l-0.837,-0.077Z" style="fill:#401B5C;fill-rule:nonzero;"/>
        <path d="M19.94,334.399l2.584,-0.661l0,13.448l-1.349,-2.651l-1.061,-2.385l-1.022,-0.581l-2.052,-2.921l-0.057,-0.775l1.148,-2.067l1.809,-1.407Z" style="fill:rgb(66,66,66);fill-rule:nonzero;"/>
        <path d="M25.1,334.399l-2.584,-0.66l0,13.448l1.35,-2.651l1.06,-2.385l1.023,-0.581l2.051,-2.921l0.058,-0.775l-1.149,-2.068l-1.809,-1.407Z" style="fill:rgb(51,51,51);fill-rule:nonzero;"/>
        <path d="M20.8,340.279l1.723,-1.685l0,1.23l-1.723,1.718l0,-1.263" style="fill:rgb(76,76,76);fill-rule:nonzero;"/>
        <path d="M22.52,339.819l-1.723,1.718l0.377,3.004l1.346,2.643l0,-7.365Z" style="fill:rgb(91,91,91);fill-rule:nonzero;"/>
        <path d="M22.52,347.189l-1.346,-2.643l1.346,-0.635l0,3.278Z" style="fill:rgb(51,51,51);fill-rule:nonzero;"/>
        <path d="M20.8,341.539l0,-1.264l-1.249,-1.579l-1.477,-1.19l-0.001,0.932l0.775,1.823l1.952,1.278Z" style="fill:#FDDEA2;fill-rule:nonzero;"/>
        <path d="M24.24,340.279l-1.722,-1.684l0,1.23l1.722,1.718l0,-1.264" style="fill:rgb(45,45,45);fill-rule:nonzero;"/>
        <path d="M22.52,339.819l1.722,1.718l-0.376,3.004l-1.347,2.643l0.001,-7.365Z" style="fill:rgb(53,53,53);fill-rule:nonzero;"/>
        <path d="M22.52,347.189l1.347,-2.643l-1.346,-0.635l-0.001,3.278Z" style="fill:#401B5C;fill-rule:nonzero;"/>
        <path d="M24.24,341.539l0,-1.264l1.249,-1.579l1.478,-1.19l0.001,0.932l-0.775,1.823l-1.953,1.278Z" style="fill:#FDDEA2;fill-rule:nonzero;"/>
        <path d="M19.95,334.379l2.566,4.216l-0.005,-4.87" style="fill:rgb(56,56,56);fill-rule:nonzero;"/>
        <path d="M25.08,334.379l-2.566,4.215l0.006,-4.87" style="fill:rgb(45,45,45);fill-rule:nonzero;"/>
        <path d="M20.11,342.149l0.688,-0.61l0.375,3.006l-1.063,-2.396Z" style="fill:rgb(51,51,51);fill-rule:nonzero;"/>
        <path d="M24.93,342.169l-0.688,-0.61l-0.375,3.006l1.063,-2.396Z" style="fill:rgb(28,28,28);fill-rule:nonzero;"/>
      </g>
      <path d="M10.9,350.107l2.26,6.811c0.211,0.635 0.595,0.951 1.15,0.951c0.548,0 0.929,-0.313 1.141,-0.942l2.269,-6.82l-1.744,0l-1.689,5.455l-1.633,-5.455l-1.754,0Zm6.953,0l0,5.768c0,0.482 0.052,0.829 0.154,1.041c0.278,0.578 0.797,0.867 1.557,0.867l2.127,0c0.739,0 1.255,-0.281 1.547,-0.844c0.11,-0.213 0.164,-0.572 0.164,-1.076l0,-5.756l-1.645,0l0,5.68l-0.01,0.054c-0.037,0.191 -0.224,0.285 -0.56,0.285l-1.119,0c-0.351,0 -0.54,-0.101 -0.569,-0.306l0,-5.713l-1.646,0Zm6.305,0l0,5.801c0,0.599 0.124,1.046 0.373,1.342c0.248,0.296 0.669,0.47 1.262,0.521c0.081,0.007 0.175,0.012 0.285,0.012l3.06,0l0.01,-1.656l-2.927,0c-0.279,0 -0.416,-0.118 -0.416,-0.352l0,-5.668l-1.647,0Zm5.043,0l0,1.656l1.635,0l0,6.02l1.644,0l0,-6.02l1.656,0l0,-1.656l-4.935,0Z" style="fill:rgb(102,102,102);fill-rule:nonzero;"/>
    </g>
    <path d="M16.996,74.681c-5.359,0 -9.723,4.362 -9.723,9.721l0,82.708c0,5.359 4.364,9.722 9.723,9.722l12.17,0c5.36,0 9.723,-4.363 9.723,-9.722l0,-82.708c0,-5.359 -4.363,-9.721 -9.723,-9.721l-12.17,0Z" style="fill:none;stroke:#FDDEA2;stroke-width:1.2px;"/>
    <circle cx="22.853" cy="60.728" r="6.854"/>
    <path d="M41.631,65.628l0,-13.145c0,-5.182 -4.207,-9.389 -9.389,-9.389l-18.778,0c-5.182,0 -9.389,4.207 -9.389,9.389l0,13.145" style="fill:none;stroke:#FDDEA2;stroke-width:1.2px;"/>
    <circle cx="22.853" cy="204.2" r="6.854"/>
    <path d="M41.631,209.1l0,-13.145c0,-5.182 -4.207,-9.389 -9.389,-9.389l-18.778,0c-5.182,0 -9.389,4.207 -9.389,9.389l0,13.145" style="fill:none;stroke:#FDDEA2;stroke-width:1.2px;"/>
  </g>
</svg>