<svg width="150px" height="380px" version="1.1" xmlns="http://www.w3.org/2000/svg" xmlns:xlink="http://www.w3.org/1999/xlink" xml:space="preserve" xmlns:serif="http://www.serif.com/" style="fill-rule:evenodd;clip-rule:evenodd;stroke-linejoin:round;stroke-miterlimit:1.4142;">
  <defs>
    <linearGradient id="_Linear1" x1="0" y1="0" x2="1" y2="0" gradientUnits="userSpaceOnUse" gradientTransform="matrix(0.007008,-37.8989,37.8989,0.007008,75.2834,112.195)">
      <stop offset="0" style="stop-color:#401B5C;stop-opacity:1"/>
      <stop offset="1" style="stop-color:#401B5C;stop-opacity:1"/>
    </linearGradient>
    <linearGradient id="_Linear2" x1="0" y1="0" x2="1" y2="0" gradientUnits="userSpaceOnUse" gradientTransform="matrix(-4.88,-92.58,92.58,-4.88,277.54,345.91)">
      <stop offset="0" style="stop-color:#401B5C;stop-opacity:1"/>
      <stop offset="1" style="stop-color:#401B5C;stop-opacity:1"/>
    </linearGradient>
    <linearGradient id="_Linear3" x1="0" y1="0" x2="1" y2="0" gradientUnits="userSpaceOnUse" gradientTransform="matrix(-4.75,94.86,-94.86,-4.75,277.54,158.47)">
      <stop offset="0" style="stop-color:#401B5C;stop-opacity:1"/>
      <stop offset="1" style="stop-color:#401B5C;stop-opacity:1"/>
    </linearGradient>
    <linearGradient id="_Linear4" x1="0" y1="0" x2="1" y2="0" gradientUnits="userSpaceOnUse" gradientTransform="matrix(1.15392e-16,-1.8845,1.8845,1.15392e-16,56.519,1.9362)">
      <stop offset="0" style="stop-color:#401B5C;stop-opacity:1"/>
      <stop offset="1" style="stop-color:#401B5C;stop-opacity:1"/>
    </linearGradient>
  </defs>
  <g id="Panel">
    <g>
      <rect x="0" y="0" width="150" height="380" style="fill:url(#_Linear1);"/>
      <rect x="0" y="253.33" width="150" height="126.67" style="fill:url(#_Linear2);"/>
      <rect x="0" y="126.67" width="150" height="126.67" style="fill:url(#_Linear3);"/>
      <rect x="0" y="0" width="150" height="380" style="fill:rgb(16,53,80);fill-opacity:0.1;"/>
      <rect x="0" y="0" width="150" height="2" style="fill:url(#_Linear4);"/>
    </g>
    <g>
      <path d="M62.9,363.5l3.443,10.383c0.322,0.968 0.909,1.451 1.756,1.451c0.835,0 1.413,-0.476 1.736,-1.435l3.461,-10.398l-2.66,0l-2.574,8.318l-2.49,-8.318l-2.672,-0.001Zm10.598,0l0,8.793c0,0.736 0.078,1.265 0.234,1.588c0.423,0.881 1.214,1.32 2.373,1.32l3.243,0c1.126,0 1.912,-0.429 2.357,-1.287c0.168,-0.324 0.25,-0.87 0.25,-1.639l0,-8.775l-2.506,0l0,8.658l-0.018,0.084c-0.056,0.29 -0.34,0.436 -0.853,0.436l-1.705,0c-0.535,0 -0.826,-0.157 -0.87,-0.469l0,-8.709l-2.505,0Zm9.611,0l0,8.842c0,0.914 0.19,1.598 0.569,2.049c0.378,0.452 1.019,0.717 1.922,0.795c0.123,0.011 0.268,0.015 0.435,0.015l4.664,0l0.016,-2.523l-4.463,0c-0.424,0 -0.634,-0.178 -0.634,-0.535l0,-8.643l-2.509,0Zm7.69,0l0,2.525l2.49,0l0,9.176l2.508,0l0,-9.176l2.523,0l0,-2.525l-7.521,0Z" style="fill:rgb(102,102,102);fill-rule:nonzero;"/>
      <path d="M59.3,369.42c0,-4.509 -3.655,-8.165 -8.164,-8.165c-4.509,0 -8.165,3.656 -8.165,8.165c0,4.509 3.656,8.165 8.165,8.165c4.509,0 8.164,-3.656 8.164,-8.165Z" style="fill:rgb(117,117,117);fill-rule:nonzero;"/>
      <g>
        <path d="M49.32,374.389l0.553,-0.89l-1.064,-2.393l-2.216,-2.284l0.46,3.101l0.597,1.28l0.833,1.263l0.837,-0.077Z" style="fill:rgb(43,43,43);fill-rule:nonzero;"/>
        <path d="M53.05,374.399l-0.553,-0.891l1.064,-2.393l2.216,-2.284l-0.46,3.101l-0.597,1.28l-0.833,1.264l-0.837,-0.077Z" style="fill:#401B5C;fill-rule:nonzero;"/>
        <path d="M48.64,363.359l2.584,-0.661l0,13.448l-1.349,-2.651l-1.061,-2.385l-1.022,-0.581l-2.052,-2.921l-0.057,-0.775l1.148,-2.067l1.809,-1.407Z" style="fill:rgb(66,66,66);fill-rule:nonzero;"/>
        <path d="M53.8,363.359l-2.584,-0.66l0,13.448l1.35,-2.651l1.06,-2.385l1.023,-0.581l2.051,-2.921l0.058,-0.775l-1.149,-2.068l-1.809,-1.407Z" style="fill:rgb(51,51,51);fill-rule:nonzero;"/>
        <path d="M49.5,369.239l1.723,-1.685l0,1.23l-1.723,1.718l0,-1.263" style="fill:rgb(76,76,76);fill-rule:nonzero;"/>
        <path d="M51.22,368.779l-1.723,1.718l0.377,3.004l1.346,2.643l0,-7.365Z" style="fill:rgb(91,91,91);fill-rule:nonzero;"/>
        <path d="M51.22,376.149l-1.346,-2.643l1.346,-0.635l0,3.278Z" style="fill:rgb(51,51,51);fill-rule:nonzero;"/>
        <path d="M49.5,370.499l0,-1.264l-1.249,-1.579l-1.477,-1.19l-0.001,0.932l0.775,1.823l1.952,1.278Z" style="fill:#FDDEA2;fill-rule:nonzero;"/>
        <path d="M52.94,369.239l-1.722,-1.684l0,1.23l1.722,1.718l0,-1.264" style="fill:rgb(45,45,45);fill-rule:nonzero;"/>
        <path d="M51.22,368.779l1.722,1.718l-0.376,3.004l-1.347,2.643l0.001,-7.365Z" style="fill:rgb(53,53,53);fill-rule:nonzero;"/>
        <path d="M51.22,376.149l1.347,-2.643l-1.346,-0.635l-0.001,3.278Z" style="fill:#401B5C;fill-rule:nonzero;"/>
        <path d="M52.94,370.499l0,-1.264l1.249,-1.579l1.478,-1.19l0.001,0.932l-0.775,1.823l-1.953,1.278Z" style="fill:#FDDEA2;fill-rule:nonzero;"/>
        <path d="M48.65,363.339l2.566,4.216l-0.005,-4.87" style="fill:rgb(56,56,56);fill-rule:nonzero;"/>
        <path d="M53.78,363.339l-2.566,4.215l0.006,-4.87" style="fill:rgb(45,45,45);fill-rule:nonzero;"/>
        <path d="M48.81,371.109l0.688,-0.61l0.375,3.006l-1.063,-2.396Z" style="fill:rgb(51,51,51);fill-rule:nonzero;"/>
        <path d="M53.63,371.129l-0.688,-0.61l-0.375,3.006l1.063,-2.396Z" style="fill:rgb(28,28,28);fill-rule:nonzero;"/>
      </g>
    </g>
    <path d="M15.076,274.26c-5.359,0 -9.723,4.362 -9.723,9.721l0,20.43c0,5.36 4.364,9.722 9.723,9.722l119.84,0c5.36,0 9.723,-4.363 9.723,-9.722l0,-20.43c0,-5.359 -4.363,-9.721 -9.723,-9.721l-119.84,0Z" style="fill:none;stroke:#FDDEA2;stroke-width:1.2px;"/>
    <path d="M54.32,129.16c-5.706,0 -11.412,1.934 -16.027,5.805c-9.229,7.745 -11.587,21.128 -5.565,31.564c0.392,0.722 1.469,0.101 1.039,-0.6c-5.733,-9.934 -3.488,-22.672 5.297,-30.045c8.786,-7.369 21.725,-7.369 30.51,0c8.786,7.373 11.03,20.111 5.297,30.045c-0.429,0.701 0.648,1.322 1.039,0.6c6.023,-10.436 3.666,-23.819 -5.564,-31.564c-4.615,-3.871 -10.32,-5.805 -16.025,-5.805l-0.001,0Zm-18.883,41.52c-2.371,0 -4.307,1.936 -4.307,4.307c0,2.371 1.936,4.304 4.307,4.304c2.371,0 4.306,-1.933 4.306,-4.304c0,-2.371 -1.935,-4.307 -4.306,-4.307Zm37.766,0c-2.371,0 -4.305,1.934 -4.305,4.305c0,2.371 1.934,4.306 4.305,4.306c2.371,0 4.306,-1.935 4.306,-4.306c0,-2.371 -1.935,-4.305 -4.306,-4.305Zm-37.766,1.199c1.722,0 3.105,1.385 3.105,3.108c0,1.722 -1.383,3.105 -3.105,3.105c-1.723,0 -3.106,-1.383 -3.106,-3.105c0,-1.723 1.383,-3.108 3.106,-3.108Z" style="fill:#FDDEA2;fill-rule:nonzero;"/>
    <path d="M40.281,181.86c-0.32,0 -0.609,0.047 -0.869,0.143c-0.26,0.096 -0.477,0.232 -0.657,0.404c-0.18,0.172 -0.316,0.381 -0.416,0.625c-0.1,0.244 -0.148,0.512 -0.148,0.812c0,0.3 0.048,0.545 0.141,0.741c0.092,0.196 0.217,0.356 0.369,0.484c0.152,0.128 0.323,0.233 0.519,0.309c0.196,0.076 0.392,0.147 0.596,0.211c0.172,0.06 0.315,0.112 0.435,0.16c0.12,0.048 0.217,0.1 0.293,0.156c0.076,0.056 0.129,0.116 0.161,0.184c0.032,0.068 0.048,0.144 0.048,0.236c0,0.148 -0.065,0.284 -0.189,0.4c-0.124,0.116 -0.316,0.176 -0.572,0.176c-0.224,0 -0.452,-0.052 -0.68,-0.152c-0.228,-0.1 -0.459,-0.255 -0.695,-0.463l-0.674,1.263c0.652,0.453 1.357,0.68 2.121,0.68c0.368,0 0.696,-0.046 0.988,-0.146c0.292,-0.1 0.536,-0.238 0.737,-0.418c0.2,-0.18 0.353,-0.391 0.457,-0.643c0.104,-0.252 0.156,-0.534 0.156,-0.842c0,-0.46 -0.121,-0.831 -0.358,-1.115c-0.236,-0.284 -0.61,-0.513 -1.123,-0.685c-0.128,-0.044 -0.256,-0.084 -0.388,-0.12c-0.132,-0.036 -0.248,-0.08 -0.352,-0.132c-0.104,-0.052 -0.188,-0.112 -0.252,-0.18c-0.064,-0.068 -0.097,-0.156 -0.097,-0.264c0,-0.156 0.065,-0.281 0.193,-0.377c0.128,-0.096 0.292,-0.142 0.496,-0.142c0.16,0 0.324,0.031 0.496,0.099c0.172,0.068 0.34,0.169 0.512,0.309l0.625,-1.225c-0.3,-0.16 -0.614,-0.281 -0.938,-0.365c-0.324,-0.084 -0.635,-0.123 -0.935,-0.123l0,0Zm6.17,0c-0.493,0 -0.94,0.08 -1.348,0.244c-0.408,0.164 -0.761,0.388 -1.053,0.676c-0.292,0.288 -0.525,0.623 -0.689,1.012c-0.164,0.388 -0.248,0.803 -0.248,1.252c0,0.448 0.084,0.865 0.248,1.254c0.164,0.388 0.397,0.723 0.689,1.011c0.292,0.288 0.645,0.512 1.053,0.676c0.408,0.164 0.855,0.244 1.348,0.244c0.484,0 0.933,-0.08 1.345,-0.244c0.413,-0.164 0.765,-0.388 1.061,-0.676c0.296,-0.288 0.527,-0.623 0.691,-1.011c0.164,-0.389 0.248,-0.806 0.248,-1.254c0,-0.449 -0.084,-0.864 -0.248,-1.252c-0.164,-0.389 -0.395,-0.724 -0.691,-1.012c-0.296,-0.288 -0.649,-0.512 -1.061,-0.676c-0.412,-0.164 -0.861,-0.244 -1.345,-0.244Zm28.34,0c-0.421,0 -0.825,0.078 -1.209,0.234c-0.385,0.156 -0.72,0.376 -1.012,0.657c-0.292,0.28 -0.523,0.613 -0.695,1.002c-0.172,0.388 -0.262,0.811 -0.262,1.275c0,0.464 0.089,0.893 0.266,1.285c0.176,0.392 0.407,0.732 0.699,1.016c0.292,0.284 0.627,0.508 1.008,0.664c0.38,0.156 0.781,0.236 1.197,0.236c0.204,0 0.409,-0.018 0.617,-0.058c0.208,-0.04 0.432,-0.106 0.672,-0.19l0.16,-0.055l0,-1.857c-0.4,0.428 -0.853,0.641 -1.353,0.641c-0.228,0 -0.445,-0.045 -0.641,-0.129c-0.196,-0.084 -0.368,-0.204 -0.516,-0.352c-0.148,-0.148 -0.259,-0.325 -0.343,-0.529c-0.084,-0.204 -0.125,-0.424 -0.125,-0.664c0,-0.236 0.041,-0.452 0.125,-0.656c0.084,-0.204 0.195,-0.376 0.339,-0.524c0.145,-0.148 0.316,-0.263 0.516,-0.347c0.2,-0.084 0.416,-0.129 0.652,-0.129c0.533,0 0.982,0.219 1.346,0.664l0,-1.873c-0.256,-0.108 -0.5,-0.185 -0.732,-0.237c-0.232,-0.052 -0.469,-0.074 -0.709,-0.074l0,0Zm-46.811,0.168l0,6.033l1.568,0l0,-2.32l1.496,2.32l1.953,0l-1.896,-2.472c0.432,-0.1 0.76,-0.296 0.98,-0.581c0.22,-0.284 0.332,-0.657 0.332,-1.117c0,-0.256 -0.041,-0.494 -0.125,-0.718c-0.084,-0.225 -0.203,-0.422 -0.367,-0.594c-0.164,-0.172 -0.369,-0.304 -0.621,-0.405c-0.252,-0.1 -0.545,-0.146 -0.881,-0.146l-2.439,0Zm5.673,0l0,6.033l3.434,0l0,-1.328l-1.865,0l0,-1.041l1.762,0l0,-1.328l-1.762,0l0,-1.008l1.865,0l0,-1.328l-3.434,0Zm17.135,0l0,6.033l1.569,0l0,-3.689l2.898,3.689l1.561,0l0,-6.033l-1.561,0l0,3.689l-2.898,-3.689l-1.569,0Zm9.028,0l-2.297,6.033l1.674,0l0.359,-1.047l2.24,0l0.362,1.047l1.671,0l-2.296,-6.033l-1.713,0Zm4.699,0l0,6.033l1.568,0l0,-3.689l2.897,3.689l1.56,0l0,-6.033l-1.56,0l0,3.689l-2.897,-3.689l-1.568,0Zm12.709,0l0,6.033l3.434,0l0,-1.328l-1.866,0l0,-1.041l1.76,0l0,-1.328l-1.76,0l0,-1.008l1.866,0l0,-1.328l-3.434,0Zm-47.676,1.207l0.295,0c0.308,0 0.549,0.065 0.713,0.193c0.164,0.128 0.248,0.311 0.248,0.551c0,0.24 -0.084,0.425 -0.248,0.553c-0.164,0.128 -0.405,0.193 -0.713,0.193l-0.295,0l0,-1.49Zm16.902,0.145c0.228,0 0.448,0.041 0.652,0.125c0.204,0.084 0.389,0.199 0.545,0.347c0.156,0.148 0.279,0.323 0.371,0.528c0.092,0.204 0.137,0.423 0.137,0.664c0,0.24 -0.045,0.462 -0.137,0.666c-0.092,0.204 -0.215,0.379 -0.371,0.527c-0.156,0.148 -0.341,0.264 -0.545,0.348c-0.204,0.084 -0.424,0.125 -0.652,0.125c-0.228,0 -0.448,-0.041 -0.652,-0.125c-0.204,-0.084 -0.383,-0.2 -0.539,-0.348c-0.157,-0.148 -0.278,-0.323 -0.37,-0.527c-0.092,-0.204 -0.136,-0.426 -0.136,-0.666c0,-0.241 0.044,-0.46 0.136,-0.664c0.092,-0.205 0.213,-0.38 0.37,-0.528c0.156,-0.148 0.335,-0.263 0.539,-0.347c0.204,-0.084 0.424,-0.125 0.652,-0.125Zm14.223,0.431l0.703,2.01l-1.408,0l0.705,-2.01Z" style="fill:#FDDEA2;fill-rule:nonzero;"/>
    <path d="M116.97,129.044c-0.332,0.006 -0.596,0.28 -0.59,0.612l0,1.408c-2.52,0.13 -5.006,1.042 -7.047,2.756c-4.419,3.707 -5.55,10.112 -2.668,15.105l0.301,0.519l10.035,-5.793l10.035,5.793l0.301,-0.519c2.882,-4.993 1.752,-11.398 -2.668,-15.105c-2.052,-1.723 -4.555,-2.636 -7.09,-2.758l0,-1.41c0,-0.338 -0.271,-0.613 -0.609,-0.608l0,0Zm-0.586,3.219l0.019,10.35l-8.902,5.141c-2.21,-4.402 -1.21,-9.814 2.605,-13.014c1.819,-1.528 4.032,-2.348 6.278,-2.477l0,0Zm1.199,0c2.26,0.121 4.488,0.941 6.317,2.477c3.815,3.2 4.813,8.611 2.603,13.014l-8.902,-5.141l-0.018,-10.35Zm7.932,17.562l0.01,1.582l-1.605,0.008c-0.831,-0.028 -0.825,1.236 0.01,1.199l1.605,-0.008l0.01,1.629c-0.026,0.831 1.237,0.823 1.2,-0.008l-0.01,-1.625l1.603,-0.008c0.801,-0.004 0.795,-1.205 -0.01,-1.201l-1.605,0.008l-0.01,-1.584c0,-0.771 -1.198,-0.755 -1.198,0.008l0,0Zm-15.172,1.446l-4.414,0.019c-0.8,0.004 -0.794,1.205 0.01,1.201l4.414,-0.021c0.831,0.028 0.825,-1.236 -0.01,-1.199Z" style="fill:#FDDEA2;fill-rule:nonzero;"/>
    <path d="M55.29,48.59c-7.925,0 -15.848,2.688 -22.258,8.065c-12.82,10.758 -16.096,29.349 -7.73,43.841c0.107,0.186 0.305,0.3 0.519,0.3c0.329,0 0.6,-0.271 0.6,-0.6c0,-0.106 -0.027,-0.21 -0.08,-0.301c-8.076,-13.991 -4.913,-31.935 7.463,-42.32c12.375,-10.379 30.599,-10.379 42.975,0c12.375,10.386 15.537,28.329 7.46,42.32c-0.053,0.091 -0.08,0.195 -0.08,0.301c0,0.329 0.271,0.6 0.6,0.6c0.214,0 0.412,-0.114 0.52,-0.3c8.365,-14.493 5.09,-33.083 -7.729,-43.842c-6.41,-5.376 -14.335,-8.064 -22.26,-8.064Zm-29.098,56.055c-2.371,0 -4.307,1.936 -4.307,4.307c0,2.371 1.936,4.304 4.307,4.304c2.371,0 4.307,-1.933 4.307,-4.304c0,-2.371 -1.936,-4.307 -4.307,-4.307Zm58.779,0.1c-2.317,0 -4.207,1.89 -4.207,4.207c0,2.317 1.89,4.205 4.207,4.205c2.317,0 4.205,-1.888 4.205,-4.205c0,-2.317 -1.888,-4.207 -4.205,-4.207Zm-58.779,1.099c1.723,0 3.106,1.385 3.106,3.108c0,1.722 -1.383,3.105 -3.106,3.105c-1.722,0 -3.105,-1.383 -3.105,-3.105c0,-1.723 1.383,-3.108 3.105,-3.108Z" style="fill:#FDDEA2;"/>
    <path d="M42.665,118.02c-0.42,0 -0.825,0.08 -1.209,0.236c-0.384,0.156 -0.72,0.376 -1.012,0.657c-0.292,0.28 -0.525,0.611 -0.697,1c-0.172,0.388 -0.26,0.813 -0.26,1.277c0,0.464 0.088,0.891 0.264,1.283c0.176,0.392 0.409,0.734 0.701,1.018c0.292,0.284 0.628,0.508 1.008,0.664c0.38,0.156 0.781,0.236 1.197,0.236c0.204,0 0.407,-0.02 0.615,-0.06c0.209,-0.04 0.434,-0.104 0.674,-0.188l0.16,-0.056l0,-1.858c-0.4,0.428 -0.853,0.641 -1.353,0.641c-0.228,0 -0.445,-0.045 -0.641,-0.129c-0.196,-0.084 -0.367,-0.204 -0.515,-0.352c-0.148,-0.148 -0.26,-0.323 -0.344,-0.527c-0.084,-0.204 -0.125,-0.424 -0.125,-0.664c0,-0.236 0.041,-0.452 0.125,-0.656c0.084,-0.204 0.196,-0.378 0.34,-0.526c0.144,-0.148 0.315,-0.263 0.515,-0.347c0.2,-0.084 0.417,-0.129 0.653,-0.129c0.532,0 0.981,0.222 1.345,0.666l0,-1.873c-0.256,-0.108 -0.5,-0.185 -0.732,-0.237c-0.232,-0.052 -0.469,-0.076 -0.709,-0.076l0,0Zm16.238,0c-0.492,0 -0.939,0.08 -1.348,0.244c-0.408,0.164 -0.76,0.388 -1.052,0.676c-0.292,0.288 -0.524,0.623 -0.688,1.012c-0.164,0.388 -0.248,0.805 -0.248,1.254c0,0.448 0.084,0.863 0.248,1.252c0.164,0.388 0.395,0.723 0.688,1.011c0.292,0.288 0.644,0.514 1.052,0.678c0.408,0.164 0.856,0.244 1.348,0.244c0.484,0 0.934,-0.08 1.346,-0.244c0.412,-0.164 0.764,-0.39 1.06,-0.678c0.296,-0.288 0.528,-0.623 0.692,-1.011c0.164,-0.389 0.248,-0.804 0.248,-1.252c0,-0.449 -0.084,-0.866 -0.248,-1.254c-0.164,-0.389 -0.396,-0.724 -0.692,-1.012c-0.296,-0.288 -0.648,-0.512 -1.06,-0.676c-0.412,-0.164 -0.862,-0.244 -1.346,-0.244Zm-13.805,0.168l0,3.498c0,0.94 0.216,1.624 0.648,2.057c0.433,0.432 1.092,0.648 1.985,0.648c0.892,0 1.552,-0.216 1.98,-0.648c0.429,-0.433 0.645,-1.117 0.645,-2.057l0,-3.498l-1.561,0l0,3.281c0,0.176 -0.007,0.357 -0.019,0.541c-0.012,0.184 -0.057,0.352 -0.125,0.5c-0.068,0.148 -0.177,0.271 -0.317,0.363c-0.14,0.093 -0.343,0.141 -0.603,0.141c-0.26,0 -0.465,-0.049 -0.609,-0.141c-0.145,-0.092 -0.247,-0.215 -0.315,-0.363c-0.068,-0.148 -0.109,-0.316 -0.121,-0.5c-0.012,-0.184 -0.02,-0.365 -0.02,-0.541l0,-3.281l-1.568,0Zm5.953,0l0,1.328l1.289,0l0,4.707l1.569,0l0,-4.707l1.289,0l0,-1.328l-4.147,0Zm12.189,0l0,6.035l1.568,0l0,-2.369l1.721,0l0,-1.33l-1.721,0l0,-1.008l1.889,0l0,-1.328l-3.457,0Zm4.395,0l0,6.035l1.568,0l0,-2.369l1.721,0l0,-1.33l-1.721,0l0,-1.008l1.889,0l0,-1.328l-3.457,0Zm-8.733,1.352c0.228,0 0.448,0.041 0.653,0.125c0.204,0.084 0.388,0.199 0.544,0.347c0.157,0.148 0.28,0.325 0.372,0.53c0.092,0.204 0.136,0.423 0.136,0.664c0,0.24 -0.044,0.46 -0.136,0.664c-0.092,0.204 -0.215,0.379 -0.372,0.527c-0.156,0.148 -0.34,0.266 -0.544,0.35c-0.205,0.084 -0.425,0.123 -0.653,0.123c-0.228,0 -0.448,-0.039 -0.652,-0.123c-0.204,-0.084 -0.383,-0.202 -0.539,-0.35c-0.156,-0.148 -0.277,-0.323 -0.369,-0.527c-0.092,-0.204 -0.135,-0.424 -0.135,-0.664c0,-0.241 0.043,-0.46 0.135,-0.664c0.092,-0.205 0.213,-0.382 0.369,-0.53c0.156,-0.148 0.335,-0.263 0.539,-0.347c0.204,-0.085 0.424,-0.125 0.652,-0.125Z" style="fill:#FDDEA2;fill-rule:nonzero;"/>
    <path d="M117.021,55.344c-0.332,0.006 -0.596,0.279 -0.59,0.611l0,1.408c-2.52,0.13 -5.006,1.042 -7.047,2.756c-4.419,3.707 -5.55,10.112 -2.668,15.105l0.301,0.52l10.035,-5.793l10.035,5.793l0.301,-0.52c2.882,-4.993 1.752,-11.398 -2.668,-15.105c-2.052,-1.723 -4.555,-2.636 -7.09,-2.758l0,-1.41c0,-0.338 -0.271,-0.613 -0.609,-0.607l0,0Zm-0.586,3.219l0.019,10.35l-8.902,5.14c-2.21,-4.402 -1.21,-9.813 2.605,-13.014c1.819,-1.527 4.031,-2.348 6.277,-2.476l0.001,0Zm1.199,0c2.26,0.121 4.488,0.94 6.317,2.476c3.815,3.2 4.813,8.611 2.603,13.014l-8.902,-5.14l-0.018,-10.35Zm7.932,17.562l0.01,1.582l-1.605,0.008c-0.831,-0.028 -0.825,1.235 0.01,1.199l1.605,-0.008l0.01,1.629c-0.026,0.83 1.237,0.822 1.2,-0.008l-0.01,-1.625l1.603,-0.008c0.801,-0.004 0.795,-1.206 -0.01,-1.202l-1.605,0.008l-0.01,-1.584c0,-0.77 -1.198,-0.755 -1.198,0.008l0,0.001Zm-15.172,1.445l-4.414,0.019c-0.801,0.004 -0.795,1.206 0.01,1.202l4.414,-0.022c0.831,0.028 0.825,-1.235 -0.01,-1.199Z" style="fill:#FDDEA2;fill-rule:nonzero;"/>
    <g id="text9293-4">
      <rect x="62.174" y="350.465" width="1.569" height="6.035" style="fill:#FDDEA2;"/>
      <path d="M65.007,356.5l0,-6.035l1.569,0l2.897,3.69l0,-3.69l1.561,0l0,6.035l-1.561,0l-2.897,-3.69l0,3.69l-1.569,0Z" style="fill:#FDDEA2;fill-rule:nonzero;"/>
      <path d="M73.867,353.235l0.52,0c0.577,0 0.865,-0.252 0.865,-0.753c0,-0.5 -0.288,-0.752 -0.865,-0.752l-0.52,0l0,1.505Zm0,3.265l-1.568,0l0,-6.035l2.497,0c0.676,0 1.196,0.177 1.556,0.529c0.36,0.352 0.541,0.848 0.541,1.488c0,0.641 -0.181,1.137 -0.541,1.489c-0.36,0.352 -0.88,0.528 -1.556,0.528l-0.929,0l0,2.001Z" style="fill:#FDDEA2;fill-rule:nonzero;"/>
      <path d="M79.294,350.465l0,3.282c0,0.176 0.008,0.356 0.02,0.54c0.012,0.184 0.052,0.352 0.12,0.5c0.068,0.148 0.172,0.272 0.316,0.364c0.144,0.092 0.348,0.14 0.608,0.14c0.26,0 0.464,-0.048 0.604,-0.14c0.14,-0.092 0.248,-0.216 0.316,-0.364c0.068,-0.148 0.112,-0.316 0.124,-0.5c0.012,-0.184 0.02,-0.364 0.02,-0.54l0,-3.282l1.561,0l0,3.498c0,0.94 -0.216,1.625 -0.644,2.057c-0.428,0.432 -1.089,0.648 -1.981,0.648c-0.892,0 -1.553,-0.216 -1.985,-0.648c-0.432,-0.432 -0.648,-1.117 -0.648,-2.057l0,-3.498l1.569,0Z" style="fill:#FDDEA2;fill-rule:nonzero;"/>
      <path d="M86.537,351.794l0,4.706l-1.569,0l0,-4.706l-1.289,0l0,-1.329l4.146,0l0,1.329l-1.288,0Z" style="fill:#FDDEA2;fill-rule:nonzero;"/>
    </g>
    <g id="text9293-41" serif:id="text9293-4">
      <path d="M62.642,267.538c0,0.24 0.044,0.46 0.136,0.664c0.092,0.204 0.212,0.38 0.368,0.528c0.156,0.148 0.336,0.264 0.54,0.348c0.204,0.084 0.424,0.124 0.653,0.124c0.228,0 0.448,-0.04 0.652,-0.124c0.204,-0.084 0.388,-0.2 0.544,-0.348c0.156,-0.148 0.28,-0.324 0.372,-0.528c0.092,-0.204 0.136,-0.424 0.136,-0.664c0,-0.24 -0.044,-0.461 -0.136,-0.665c-0.092,-0.204 -0.216,-0.38 -0.372,-0.528c-0.156,-0.148 -0.34,-0.264 -0.544,-0.348c-0.204,-0.084 -0.424,-0.124 -0.652,-0.124c-0.229,0 -0.449,0.04 -0.653,0.124c-0.204,0.084 -0.384,0.2 -0.54,0.348c-0.156,0.148 -0.276,0.324 -0.368,0.528c-0.092,0.204 -0.136,0.425 -0.136,0.665Zm-1.641,0c0,-0.448 0.084,-0.865 0.248,-1.253c0.164,-0.388 0.396,-0.724 0.689,-1.012c0.292,-0.288 0.644,-0.512 1.052,-0.677c0.408,-0.164 0.856,-0.244 1.349,-0.244c0.484,0 0.932,0.08 1.344,0.244c0.412,0.165 0.764,0.389 1.061,0.677c0.296,0.288 0.528,0.624 0.692,1.012c0.164,0.388 0.248,0.805 0.248,1.253c0,0.448 -0.084,0.864 -0.248,1.252c-0.164,0.388 -0.396,0.725 -0.692,1.013c-0.297,0.288 -0.649,0.512 -1.061,0.676c-0.412,0.164 -0.86,0.244 -1.344,0.244c-0.493,0 -0.941,-0.08 -1.349,-0.244c-0.408,-0.164 -0.76,-0.388 -1.052,-0.676c-0.293,-0.288 -0.525,-0.625 -0.689,-1.013c-0.164,-0.388 -0.248,-0.804 -0.248,-1.252Z" style="fill:#FDDEA2;fill-rule:nonzero;"/>
      <path d="M70.245,264.52l0,3.282c0,0.176 0.008,0.356 0.02,0.54c0.012,0.184 0.052,0.352 0.12,0.5c0.068,0.148 0.172,0.272 0.316,0.364c0.144,0.092 0.348,0.14 0.609,0.14c0.26,0 0.464,-0.048 0.604,-0.14c0.14,-0.092 0.248,-0.216 0.316,-0.364c0.068,-0.148 0.112,-0.316 0.124,-0.5c0.012,-0.184 0.02,-0.364 0.02,-0.54l0,-3.282l1.561,0l0,3.498c0,0.94 -0.216,1.625 -0.645,2.057c-0.428,0.432 -1.088,0.648 -1.98,0.648c-0.893,0 -1.553,-0.216 -1.985,-0.648c-0.432,-0.432 -0.649,-1.117 -0.649,-2.057l0,-3.498l1.569,0Z" style="fill:#FDDEA2;fill-rule:nonzero;"/>
      <path d="M77.488,265.849l0,4.706l-1.569,0l0,-4.706l-1.288,0l0,-1.329l4.146,0l0,1.329l-1.289,0Z" style="fill:#FDDEA2;fill-rule:nonzero;"/>
      <path d="M81.042,267.29l0.52,0c0.576,0 0.864,-0.253 0.864,-0.753c0,-0.5 -0.288,-0.752 -0.864,-0.752l-0.52,0l0,1.505Zm0,3.265l-1.569,0l0,-6.035l2.497,0c0.676,0 1.197,0.176 1.557,0.529c0.36,0.352 0.54,0.848 0.54,1.488c0,0.641 -0.18,1.137 -0.54,1.489c-0.36,0.352 -0.881,0.528 -1.557,0.528l-0.928,0l0,2.001Z" style="fill:#FDDEA2;fill-rule:nonzero;"/>
      <path d="M86.468,264.52l0,3.282c0,0.176 0.008,0.356 0.02,0.54c0.012,0.184 0.052,0.352 0.12,0.5c0.068,0.148 0.172,0.272 0.316,0.364c0.144,0.092 0.348,0.14 0.608,0.14c0.261,0 0.465,-0.048 0.605,-0.14c0.14,-0.092 0.248,-0.216 0.316,-0.364c0.068,-0.148 0.112,-0.316 0.124,-0.5c0.012,-0.184 0.02,-0.364 0.02,-0.54l0,-3.282l1.561,0l0,3.498c0,0.94 -0.217,1.625 -0.645,2.057c-0.428,0.432 -1.088,0.648 -1.981,0.648c-0.892,0 -1.552,-0.216 -1.984,-0.648c-0.433,-0.432 -0.649,-1.117 -0.649,-2.057l0,-3.498l1.569,0Z" style="fill:#FDDEA2;fill-rule:nonzero;"/>
      <path d="M93.711,265.849l0,4.706l-1.569,0l0,-4.706l-1.288,0l0,-1.329l4.146,0l0,1.329l-1.289,0Z" style="fill:#FDDEA2;fill-rule:nonzero;"/>
    </g>
    <g>
      <path d="M28.023,38.381l0,-1.01c0.683,0.286 1.267,0.428 1.751,0.428c0.565,0 0.848,-0.192 0.848,-0.577c0,-0.248 -0.233,-0.465 -0.699,-0.652l-0.466,-0.186c-0.506,-0.205 -0.867,-0.426 -1.084,-0.662c-0.217,-0.235 -0.326,-0.527 -0.326,-0.874c0,-0.485 0.184,-0.861 0.553,-1.13c0.37,-0.268 0.887,-0.402 1.55,-0.402c0.417,0 0.912,0.06 1.486,0.182l0,0.967c-0.553,-0.192 -1.01,-0.288 -1.373,-0.288c-0.571,0 -0.857,0.177 -0.857,0.531c0,0.233 0.211,0.43 0.633,0.591l0.401,0.153c0.599,0.227 1.015,0.457 1.25,0.69c0.234,0.232 0.351,0.532 0.351,0.898c0,0.481 -0.2,0.872 -0.598,1.172c-0.399,0.298 -0.918,0.448 -1.557,0.448c-0.615,0 -1.236,-0.093 -1.863,-0.279Z" style="fill:#FDDEA2;fill-rule:nonzero;"/>
      <path d="M36.185,38.516c-0.33,0.096 -0.588,0.144 -0.778,0.144c-1.195,0 -1.792,-0.559 -1.792,-1.676l0,-2.691l-0.573,0l0,-0.861l0.573,0l0,-0.861l1.377,-0.159l0,1.02l1.095,0l0,0.861l-1.095,0l0,2.509c0,0.628 0.257,0.942 0.769,0.942c0.118,0 0.259,-0.023 0.424,-0.066l0,0.838Z" style="fill:#FDDEA2;fill-rule:nonzero;"/>
      <path d="M39.918,37.994c-0.459,0.444 -0.951,0.666 -1.475,0.666c-0.448,0 -0.81,-0.136 -1.09,-0.409c-0.279,-0.273 -0.419,-0.627 -0.419,-1.062c0,-0.565 0.226,-1 0.678,-1.306c0.451,-0.306 1.098,-0.458 1.938,-0.458l0.368,0l0,-0.466c0,-0.531 -0.302,-0.796 -0.907,-0.796c-0.537,0 -1.08,0.152 -1.63,0.456l0,-0.95c0.624,-0.236 1.242,-0.353 1.853,-0.353c1.338,0 2.006,0.532 2.006,1.596l0,2.263c0,0.4 0.13,0.6 0.387,0.6c0.046,0 0.107,-0.005 0.182,-0.018l0.032,0.773c-0.291,0.087 -0.549,0.13 -0.772,0.13c-0.566,0 -0.929,-0.222 -1.09,-0.666l-0.061,0Zm0,-0.74l0,-1.038l-0.325,0c-0.892,0 -1.336,0.279 -1.336,0.838c0,0.19 0.064,0.349 0.192,0.478c0.13,0.128 0.288,0.192 0.478,0.192c0.323,0 0.653,-0.156 0.991,-0.47Z" style="fill:#FDDEA2;fill-rule:nonzero;"/>
      <path d="M45.654,38.516c-0.329,0.096 -0.588,0.144 -0.778,0.144c-1.194,0 -1.792,-0.559 -1.792,-1.676l0,-2.691l-0.572,0l0,-0.861l0.572,0l0,-0.861l1.378,-0.159l0,1.02l1.094,0l0,0.861l-1.094,0l0,2.509c0,0.628 0.256,0.942 0.769,0.942c0.117,0 0.258,-0.023 0.423,-0.066l0,0.838Z" style="fill:#FDDEA2;fill-rule:nonzero;"/>
      <path d="M51.045,38.371c-0.655,0.193 -1.275,0.289 -1.862,0.289c-0.853,0 -1.527,-0.242 -2.021,-0.726c-0.493,-0.484 -0.74,-1.146 -0.74,-1.983c0,-0.792 0.226,-1.428 0.678,-1.911c0.451,-0.483 1.048,-0.724 1.79,-0.724c0.748,0 1.294,0.236 1.638,0.707c0.345,0.472 0.517,1.219 0.517,2.239l-3.17,0c0.093,0.975 0.629,1.462 1.606,1.462c0.463,0 0.984,-0.106 1.564,-0.32l0,0.967Zm-3.189,-2.886l1.835,0c0,-0.872 -0.281,-1.308 -0.843,-1.308c-0.571,0 -0.901,0.436 -0.992,1.308Z" style="fill:#FDDEA2;fill-rule:nonzero;"/>
      <path d="M56.875,38.544l-1.952,-5.112l1.453,0l1.429,3.687l1.42,-3.687l0.996,0l-1.969,5.112l-1.377,0Z" style="fill:#FDDEA2;fill-rule:nonzero;"/>
      <path d="M63.774,37.994c-0.46,0.444 -0.951,0.666 -1.476,0.666c-0.447,0 -0.81,-0.136 -1.09,-0.409c-0.279,-0.273 -0.418,-0.627 -0.418,-1.062c0,-0.565 0.226,-1 0.677,-1.306c0.452,-0.306 1.098,-0.458 1.939,-0.458l0.368,0l0,-0.466c0,-0.531 -0.303,-0.796 -0.908,-0.796c-0.536,0 -1.08,0.152 -1.629,0.456l0,-0.95c0.623,-0.236 1.241,-0.353 1.853,-0.353c1.337,0 2.006,0.532 2.006,1.596l0,2.263c0,0.4 0.129,0.6 0.387,0.6c0.046,0 0.107,-0.005 0.181,-0.018l0.032,0.773c-0.291,0.087 -0.549,0.13 -0.772,0.13c-0.565,0 -0.928,-0.222 -1.09,-0.666l-0.06,0Zm0,-0.74l0,-1.038l-0.326,0c-0.891,0 -1.337,0.279 -1.337,0.838c0,0.19 0.065,0.349 0.194,0.478c0.128,0.128 0.288,0.192 0.478,0.192c0.322,0 0.653,-0.156 0.991,-0.47Z" style="fill:#FDDEA2;fill-rule:nonzero;"/>
      <path d="M66.875,38.544l0,-5.112l1.377,0l0,0.964c0.357,-0.72 0.9,-1.08 1.63,-1.08c0.087,0 0.173,0.009 0.256,0.027l0,1.229c-0.196,-0.071 -0.377,-0.107 -0.545,-0.107c-0.549,0 -0.996,0.279 -1.341,0.834l0,3.245l-1.377,0Z" style="fill:#FDDEA2;fill-rule:nonzero;"/>
      <path d="M71.209,38.544l0,-5.112l1.378,0l0,5.112l-1.378,0Zm0,-5.973l0,-1.151l1.378,0l0,1.151l-1.378,0Z" style="fill:#FDDEA2;fill-rule:nonzero;"/>
      <path d="M76.814,37.994c-0.46,0.444 -0.951,0.666 -1.476,0.666c-0.447,0 -0.81,-0.136 -1.089,-0.409c-0.279,-0.273 -0.419,-0.627 -0.419,-1.062c0,-0.565 0.226,-1 0.678,-1.306c0.451,-0.306 1.098,-0.458 1.938,-0.458l0.368,0l0,-0.466c0,-0.531 -0.303,-0.796 -0.907,-0.796c-0.537,0 -1.08,0.152 -1.63,0.456l0,-0.95c0.624,-0.236 1.241,-0.353 1.853,-0.353c1.337,0 2.006,0.532 2.006,1.596l0,2.263c0,0.4 0.13,0.6 0.387,0.6c0.046,0 0.107,-0.005 0.182,-0.018l0.032,0.773c-0.291,0.087 -0.55,0.13 -0.773,0.13c-0.565,0 -0.928,-0.222 -1.09,-0.666l-0.06,0Zm0,-0.74l0,-1.038l-0.325,0c-0.892,0 -1.336,0.279 -1.336,0.838c0,0.19 0.063,0.349 0.192,0.478c0.13,0.128 0.288,0.192 0.478,0.192c0.323,0 0.653,-0.156 0.991,-0.47Z" style="fill:#FDDEA2;fill-rule:nonzero;"/>
      <path d="M79.915,38.544l0,-7.351l1.378,0l0,3.203c0.353,-0.72 0.911,-1.08 1.671,-1.08c0.615,0 1.098,0.225 1.451,0.675c0.352,0.45 0.528,1.07 0.528,1.857c0,0.854 -0.199,1.536 -0.596,2.047c-0.397,0.51 -0.928,0.765 -1.592,0.765c-0.571,0 -1.059,-0.21 -1.462,-0.633l-0.257,0.517l-1.121,0Zm1.378,-1.336c0.335,0.372 0.692,0.559 1.071,0.559c0.338,0 0.608,-0.164 0.81,-0.491c0.201,-0.328 0.303,-0.765 0.303,-1.311c0,-1.046 -0.338,-1.569 -1.011,-1.569c-0.407,0 -0.798,0.262 -1.173,0.786l0,2.026Z" style="fill:#FDDEA2;fill-rule:nonzero;"/>
      <rect x="86.233" y="31.193" width="1.379" height="7.351" style="fill:#FDDEA2;"/>
      <path d="M93.495,38.371c-0.654,0.193 -1.276,0.289 -1.862,0.289c-0.854,0 -1.527,-0.242 -2.02,-0.726c-0.494,-0.484 -0.74,-1.146 -0.74,-1.983c0,-0.792 0.225,-1.428 0.677,-1.911c0.451,-0.483 1.048,-0.724 1.79,-0.724c0.748,0 1.294,0.236 1.639,0.707c0.344,0.472 0.516,1.219 0.516,2.239l-3.17,0c0.093,0.975 0.628,1.462 1.606,1.462c0.462,0 0.984,-0.106 1.564,-0.32l0,0.967Zm-3.189,-2.886l1.834,0c0,-0.872 -0.281,-1.308 -0.842,-1.308c-0.571,0 -0.902,0.436 -0.992,1.308Z" style="fill:#FDDEA2;fill-rule:nonzero;"/>
      <path d="M98.207,38.544l0,-4.251l-0.703,0l0,-0.861l0.703,0l0,-0.354c0,-0.642 0.152,-1.137 0.458,-1.483c0.306,-0.345 0.742,-0.519 1.306,-0.519c0.348,0 0.718,0.064 1.108,0.191l0,0.941c-0.385,-0.171 -0.67,-0.256 -0.856,-0.256c-0.426,0 -0.639,0.387 -0.639,1.164l0,0.316l3.218,0l0,5.112l-1.378,0l0,-4.251l-1.84,0l0,4.251l-1.377,0Zm3.445,-5.973l0,-1.151l1.15,0l0,1.151l-1.15,0Z" style="fill:#FDDEA2;fill-rule:nonzero;"/>
      <rect x="104.525" y="31.193" width="1.379" height="7.351" style="fill:#FDDEA2;"/>
      <path d="M110.26,38.516c-0.329,0.096 -0.588,0.144 -0.777,0.144c-1.195,0 -1.792,-0.559 -1.792,-1.676l0,-2.691l-0.573,0l0,-0.861l0.573,0l0,-0.861l1.377,-0.159l0,1.02l1.095,0l0,0.861l-1.095,0l0,2.509c0,0.628 0.256,0.942 0.769,0.942c0.117,0 0.259,-0.023 0.423,-0.066l0,0.838Z" style="fill:#FDDEA2;fill-rule:nonzero;"/>
      <path d="M115.652,38.371c-0.656,0.193 -1.276,0.289 -1.863,0.289c-0.853,0 -1.526,-0.242 -2.02,-0.726c-0.494,-0.484 -0.741,-1.146 -0.741,-1.983c0,-0.792 0.227,-1.428 0.678,-1.911c0.452,-0.483 1.048,-0.724 1.79,-0.724c0.748,0 1.294,0.236 1.639,0.707c0.344,0.472 0.517,1.219 0.517,2.239l-3.171,0c0.093,0.975 0.629,1.462 1.606,1.462c0.463,0 0.985,-0.106 1.565,-0.32l0,0.967Zm-3.189,-2.886l1.833,0c0,-0.872 -0.28,-1.308 -0.842,-1.308c-0.571,0 -0.901,0.436 -0.991,1.308Z" style="fill:#FDDEA2;fill-rule:nonzero;"/>
      <path d="M117.076,38.544l0,-5.112l1.378,0l0,0.964c0.357,-0.72 0.9,-1.08 1.63,-1.08c0.087,0 0.171,0.009 0.256,0.027l0,1.229c-0.196,-0.071 -0.378,-0.107 -0.545,-0.107c-0.55,0 -0.997,0.279 -1.341,0.834l0,3.245l-1.378,0Z" style="fill:#FDDEA2;fill-rule:nonzero;"/>
    </g>
    <g>
      <path d="M55.89,20.122c-0.267,-0.217 -0.536,-0.379 -0.804,-0.483c-0.269,-0.105 -0.529,-0.157 -0.781,-0.157c-0.318,0 -0.578,0.074 -0.779,0.226c-0.201,0.151 -0.302,0.348 -0.302,0.591c0,0.168 0.05,0.305 0.15,0.415c0.102,0.109 0.233,0.203 0.397,0.283c0.164,0.08 0.348,0.149 0.553,0.208c0.206,0.059 0.409,0.121 0.611,0.188c0.805,0.269 1.394,0.627 1.768,1.076c0.373,0.449 0.559,1.034 0.559,1.754c0,0.488 -0.082,0.927 -0.245,1.321c-0.164,0.395 -0.403,0.733 -0.718,1.013c-0.314,0.281 -0.699,0.499 -1.157,0.655c-0.457,0.154 -0.975,0.232 -1.553,0.232c-1.199,0 -2.311,-0.356 -3.334,-1.068l1.056,-1.989c0.369,0.328 0.734,0.57 1.095,0.73c0.361,0.16 0.717,0.238 1.07,0.238c0.402,0 0.702,-0.092 0.899,-0.275c0.197,-0.186 0.295,-0.395 0.295,-0.63c0,-0.143 -0.025,-0.265 -0.074,-0.371c-0.051,-0.105 -0.135,-0.201 -0.252,-0.289c-0.119,-0.089 -0.27,-0.17 -0.46,-0.246c-0.189,-0.075 -0.416,-0.159 -0.685,-0.251c-0.319,-0.101 -0.632,-0.211 -0.938,-0.334c-0.305,-0.121 -0.578,-0.282 -0.817,-0.483c-0.239,-0.203 -0.432,-0.456 -0.579,-0.762c-0.146,-0.306 -0.22,-0.694 -0.22,-1.163c0,-0.47 0.078,-0.896 0.233,-1.277c0.155,-0.382 0.373,-0.709 0.654,-0.982c0.281,-0.272 0.625,-0.483 1.031,-0.635c0.408,-0.151 0.862,-0.227 1.365,-0.227c0.471,0 0.961,0.066 1.472,0.196c0.512,0.129 1.002,0.32 1.472,0.572l-0.982,1.924Z" style="fill:#FDDEA2;fill-rule:nonzero;"/>
      <path d="M62.47,19.783l0,7.397l-2.465,0l0,-7.397l-2.026,0l0,-2.087l6.517,0l0,2.087l-2.026,0Z" style="fill:#FDDEA2;fill-rule:nonzero;"/>
      <path d="M70.307,23.657l-1.107,-3.157l-1.107,3.157l2.214,0Zm0.654,1.875l-3.522,0l-0.566,1.648l-2.629,0l3.609,-9.484l2.694,0l3.609,9.484l-2.629,0l-0.566,-1.648Z" style="fill:#FDDEA2;fill-rule:nonzero;"/>
      <path d="M77.704,25.267l0.541,0c0.621,0 1.065,-0.078 1.333,-0.238c0.269,-0.16 0.402,-0.416 0.402,-0.767c0,-0.353 -0.133,-0.609 -0.402,-0.767c-0.268,-0.16 -0.712,-0.24 -1.333,-0.24l-0.541,0l0,2.012Zm0,-3.849l0.453,0c0.771,0 1.157,-0.306 1.157,-0.918c0,-0.612 -0.386,-0.919 -1.157,-0.919l-0.453,0l0,1.837Zm-2.465,-3.722l3.672,0c0.872,0 1.536,0.209 1.988,0.628c0.453,0.42 0.68,1.023 0.68,1.812c0,0.478 -0.087,0.873 -0.259,1.188c-0.172,0.315 -0.434,0.58 -0.786,0.799c0.352,0.068 0.652,0.17 0.9,0.309c0.247,0.137 0.448,0.307 0.604,0.509c0.155,0.201 0.265,0.427 0.333,0.679c0.067,0.252 0.1,0.519 0.1,0.806c0,0.443 -0.077,0.837 -0.232,1.181c-0.156,0.345 -0.374,0.634 -0.654,0.868c-0.281,0.235 -0.623,0.412 -1.025,0.529c-0.402,0.117 -0.855,0.176 -1.359,0.176l-3.962,0l0,-9.484Z" style="fill:#FDDEA2;fill-rule:nonzero;"/>
      <rect x="83.943" y="17.696" width="2.465" height="9.484" style="fill:#FDDEA2;"/>
      <path d="M90.862,17.696l0,7.396l2.957,0l0,2.088l-5.422,0l0,-9.484l2.465,0Z" style="fill:#FDDEA2;fill-rule:nonzero;"/>
      <path d="M100.485,19.783l-2.93,0l0,1.585l2.768,0l0,2.088l-2.768,0l0,1.636l2.93,0l0,2.088l-5.396,0l0,-9.484l5.396,0l0,2.087Z" style="fill:#FDDEA2;fill-rule:nonzero;"/>
    </g>
    <path d="M53.904,194.938c-0.329,0.006 -0.595,0.28 -0.59,0.609l0.004,2.125c-5.337,0.14 -10.637,2.003 -14.955,5.627c-8.984,7.539 -11.283,20.566 -5.416,30.723c0.105,0.194 0.308,0.314 0.528,0.314c0.329,0 0.6,-0.27 0.6,-0.6c0,-0.11 -0.031,-0.219 -0.089,-0.313c-5.576,-9.655 -3.391,-22.037 5.149,-29.203c4.097,-3.439 9.122,-5.209 14.186,-5.348l0.041,23.023c-0.001,0.008 -0.001,0.015 -0.001,0.022c0,0.33 0.271,0.601 0.6,0.601c0.329,0 0.6,-0.271 0.6,-0.601c0,-0.008 0,-0.016 0,-0.024l-0.041,-23.025c5.089,0.122 10.147,1.895 14.266,5.352l0.002,0c8.543,7.166 10.723,19.548 5.15,29.203c-0.058,0.094 -0.088,0.203 -0.088,0.313c0,0.329 0.271,0.6 0.6,0.6c0.22,0 0.422,-0.12 0.527,-0.314c5.863,-10.157 3.568,-23.184 -5.42,-30.723c-4.341,-3.643 -9.673,-5.509 -15.039,-5.631l-0.004,-2.123c0,-0.002 0,-0.005 0,-0.007c0,-0.329 -0.27,-0.6 -0.6,-0.6c-0.003,0 -0.006,0 -0.009,0l-0.001,0Zm19.766,40.666c-0.325,0.006 -0.588,0.275 -0.588,0.6c0,0.004 0,0.009 0,0.013l0.022,3.961l-4.004,0.02c-0.329,0.001 -0.598,0.272 -0.598,0.6c0,0.33 0.271,0.601 0.601,0.601c0.001,0 0.002,0 0.003,0l4.005,-0.02l0.022,4.055c0.002,0.328 0.273,0.597 0.601,0.597c0.329,0 0.6,-0.271 0.6,-0.601c0,-0.001 0,-0.003 0,-0.004l-0.021,-4.051l4.006,-0.019c0.328,-0.002 0.597,-0.272 0.597,-0.601c0,-0.329 -0.271,-0.6 -0.6,-0.6c-0.001,0 -0.002,0 -0.003,0l-4.008,0.019l-0.022,-3.965c0,-0.002 0,-0.003 0,-0.005c0,-0.33 -0.27,-0.6 -0.6,-0.6c-0.004,0 -0.008,0 -0.013,0l0,0Zm-33.619,4.291l-9.213,0.043c-0.007,0 -0.013,0 -0.02,0c-0.329,0 -0.6,0.27 -0.6,0.6c0,0.329 0.271,0.6 0.6,0.6c0.008,0 0.017,0 0.026,-0.001l9.213,-0.043c0.007,0 0.013,0.001 0.02,0.001c0.329,0 0.6,-0.271 0.6,-0.601c0,-0.329 -0.271,-0.6 -0.6,-0.6c-0.009,0 -0.017,0.001 -0.026,0.001Z" style="fill:#FDDEA2;fill-rule:nonzero;"/>
    <g id="text9293-42" serif:id="text9293-4">
      <path d="M32.405,252.59c-0.172,-0.14 -0.34,-0.24 -0.513,-0.308c-0.172,-0.068 -0.336,-0.1 -0.496,-0.1c-0.204,0 -0.368,0.048 -0.496,0.144c-0.128,0.096 -0.192,0.22 -0.192,0.376c0,0.108 0.032,0.196 0.096,0.264c0.064,0.068 0.148,0.128 0.252,0.18c0.104,0.052 0.22,0.096 0.352,0.132c0.132,0.036 0.26,0.076 0.388,0.12c0.513,0.173 0.889,0.401 1.125,0.685c0.236,0.284 0.356,0.656 0.356,1.116c0,0.308 -0.052,0.588 -0.156,0.841c-0.104,0.252 -0.256,0.464 -0.456,0.644c-0.2,0.18 -0.444,0.316 -0.737,0.416c-0.292,0.1 -0.62,0.148 -0.988,0.148c-0.764,0 -1.469,-0.228 -2.121,-0.68l0.672,-1.265c0.237,0.208 0.469,0.364 0.697,0.464c0.228,0.1 0.456,0.153 0.68,0.153c0.256,0 0.448,-0.061 0.572,-0.177c0.124,-0.116 0.188,-0.252 0.188,-0.4c0,-0.092 -0.016,-0.168 -0.048,-0.236c-0.032,-0.068 -0.084,-0.128 -0.16,-0.184c-0.076,-0.056 -0.172,-0.108 -0.292,-0.156c-0.12,-0.048 -0.264,-0.1 -0.436,-0.16c-0.204,-0.064 -0.4,-0.136 -0.596,-0.212c-0.196,-0.076 -0.368,-0.18 -0.521,-0.308c-0.152,-0.128 -0.276,-0.288 -0.368,-0.484c-0.092,-0.197 -0.14,-0.441 -0.14,-0.741c0,-0.3 0.048,-0.568 0.148,-0.812c0.1,-0.244 0.236,-0.452 0.416,-0.624c0.181,-0.172 0.397,-0.309 0.657,-0.405c0.26,-0.096 0.548,-0.144 0.868,-0.144c0.3,0 0.612,0.04 0.937,0.124c0.324,0.084 0.636,0.205 0.936,0.365l-0.624,1.224Z" style="fill:#FDDEA2;fill-rule:nonzero;"/>
      <path d="M37.695,252.374l-1.865,0l0,1.008l1.761,0l0,1.329l-1.761,0l0,1.04l1.865,0l0,1.329l-3.434,0l0,-6.035l3.434,0l0,1.329Z" style="fill:#FDDEA2;fill-rule:nonzero;"/>
      <path d="M38.551,257.08l1.025,-6.035l1.552,0l1.209,3.218l1.2,-3.218l1.553,0l1.025,6.035l-1.561,0l-0.52,-3.473l-1.425,3.473l-0.624,0l-1.353,-3.473l-0.52,3.473l-1.561,0Z" style="fill:#FDDEA2;fill-rule:nonzero;"/>
      <path d="M48.676,255.863l0.344,0c0.396,0 0.676,-0.052 0.848,-0.152c0.172,-0.1 0.256,-0.264 0.256,-0.488c0,-0.224 -0.084,-0.388 -0.256,-0.488c-0.172,-0.1 -0.452,-0.152 -0.848,-0.152l-0.344,0l0,1.28Zm0,-2.449l0.288,0c0.492,0 0.736,-0.196 0.736,-0.584c0,-0.388 -0.244,-0.584 -0.736,-0.584l-0.288,0l0,1.168Zm-1.569,-2.369l2.337,0c0.556,0 0.976,0.132 1.264,0.401c0.289,0.268 0.433,0.652 0.433,1.152c0,0.304 -0.056,0.556 -0.164,0.756c-0.108,0.201 -0.277,0.369 -0.501,0.509c0.224,0.044 0.417,0.108 0.573,0.196c0.156,0.088 0.284,0.196 0.384,0.324c0.1,0.128 0.168,0.272 0.212,0.432c0.044,0.16 0.064,0.332 0.064,0.512c0,0.284 -0.048,0.532 -0.148,0.753c-0.1,0.22 -0.236,0.404 -0.416,0.552c-0.18,0.148 -0.397,0.26 -0.653,0.336c-0.256,0.076 -0.544,0.112 -0.864,0.112l-2.521,0l0,-6.035Z" style="fill:#FDDEA2;fill-rule:nonzero;"/>
      <path d="M54.214,251.045l0,4.706l1.881,0l0,1.329l-3.45,0l0,-6.035l1.569,0Z" style="fill:#FDDEA2;fill-rule:nonzero;"/>
      <path d="M60.433,254.839l-0.705,-2.009l-0.704,2.009l1.409,0Zm0.416,1.193l-2.241,0l-0.36,1.048l-1.673,0l2.297,-6.035l1.713,0l2.297,6.035l-1.673,0l-0.36,-1.048Z" style="fill:#FDDEA2;fill-rule:nonzero;"/>
      <path d="M63.57,257.08l0,-6.035l1.569,0l2.897,3.69l0,-3.69l1.56,0l0,6.035l-1.56,0l-2.897,-3.69l0,3.69l-1.569,0Z" style="fill:#FDDEA2;fill-rule:nonzero;"/>
      <path d="M75.287,253.062c-0.364,-0.444 -0.812,-0.664 -1.345,-0.664c-0.236,0 -0.452,0.044 -0.652,0.128c-0.2,0.084 -0.372,0.2 -0.516,0.348c-0.144,0.148 -0.256,0.32 -0.34,0.524c-0.084,0.205 -0.124,0.421 -0.124,0.657c0,0.24 0.04,0.46 0.124,0.664c0.084,0.204 0.196,0.38 0.344,0.528c0.148,0.148 0.32,0.268 0.516,0.352c0.196,0.084 0.412,0.128 0.64,0.128c0.501,0 0.953,-0.212 1.353,-0.64l0,1.857l-0.16,0.056c-0.24,0.084 -0.464,0.148 -0.672,0.188c-0.209,0.04 -0.413,0.06 -0.617,0.06c-0.416,0 -0.816,-0.08 -1.196,-0.236c-0.38,-0.156 -0.717,-0.38 -1.009,-0.664c-0.292,-0.284 -0.524,-0.625 -0.7,-1.017c-0.176,-0.392 -0.264,-0.82 -0.264,-1.284c0,-0.464 0.088,-0.889 0.26,-1.277c0.172,-0.388 0.404,-0.72 0.696,-1c0.292,-0.28 0.629,-0.5 1.013,-0.657c0.384,-0.156 0.788,-0.236 1.208,-0.236c0.24,0 0.476,0.024 0.709,0.076c0.232,0.052 0.476,0.128 0.732,0.236l0,1.873Z" style="fill:#FDDEA2;fill-rule:nonzero;"/>
      <path d="M79.713,252.374l-1.865,0l0,1.008l1.761,0l0,1.329l-1.761,0l0,1.04l1.865,0l0,1.329l-3.434,0l0,-6.035l3.434,0l0,1.329Z" style="fill:#FDDEA2;fill-rule:nonzero;"/>
    </g>
    <path d="M126.9,216.66c2.737,-4.742 1.665,-10.824 -2.533,-14.346c-4.194,-3.522 -10.372,-3.522 -14.566,0c-4.198,3.522 -5.27,9.604 -2.533,14.346l9.816,-5.666l9.816,5.666Z" style="fill:none;stroke:#FDDEA2;stroke-width:1px;stroke-linecap:round;stroke-linejoin:miter;stroke-miterlimit:4;"/>
    <g>
      <path d="M126.53,217.86l0.024,4.41" style="fill:#FDDEA2;fill-rule:nonzero;stroke:#FDDEA2;stroke-width:1px;stroke-linecap:round;stroke-linejoin:miter;stroke-miterlimit:4;"/>
      <path d="M128.75,220.03l-4.41,0.02" style="fill:#FDDEA2;fill-rule:nonzero;stroke:#FDDEA2;stroke-width:1px;stroke-linecap:round;stroke-linejoin:miter;stroke-miterlimit:4;"/>
      <path d="M126.53,217.86l0.024,4.41" style="fill:#FDDEA2;fill-rule:nonzero;stroke:#FDDEA2;stroke-width:1px;stroke-linecap:round;stroke-linejoin:miter;stroke-miterlimit:4;"/>
      <path d="M128.75,220.03l-4.41,0.02" style="fill:#FDDEA2;fill-rule:nonzero;stroke:#FDDEA2;stroke-width:1px;stroke-linecap:round;stroke-linejoin:miter;stroke-miterlimit:4;"/>
      <path d="M110.43,219.91l-4.414,0.02" style="fill:#FDDEA2;fill-rule:nonzero;stroke:#FDDEA2;stroke-width:1px;stroke-linecap:round;stroke-linejoin:miter;stroke-miterlimit:4;"/>
    </g>
    <path d="M117.09,211l-0.024,-13.31" style="fill:none;stroke:#FDDEA2;stroke-width:1px;stroke-linecap:round;stroke-linejoin:miter;stroke-miterlimit:4;"/>
    <path d="M116.996,197.164c-0.332,0.006 -0.596,0.28 -0.59,0.611l0,1.409c-2.521,0.129 -5.006,1.042 -7.047,2.755c-4.419,3.708 -5.55,10.112 -2.668,15.105l0.301,0.52l10.035,-5.793l10.035,5.793l0.301,-0.52c2.882,-4.993 1.752,-11.398 -2.668,-15.105c-2.052,-1.722 -4.555,-2.636 -7.09,-2.757l0,-1.411c0,-0.338 -0.272,-0.612 -0.61,-0.607l0.001,0Zm-0.586,3.219l0.019,10.35l-8.903,5.14c-2.209,-4.402 -1.209,-9.813 2.606,-13.014c1.819,-1.527 4.031,-2.348 6.277,-2.476l0.001,0Zm1.199,0c2.259,0.121 4.488,0.94 6.316,2.476c3.816,3.201 4.814,8.612 2.604,13.014l-8.902,-5.14l-0.018,-10.35Zm7.932,17.562l0.01,1.582l-1.605,0.008c-0.831,-0.028 -0.825,1.235 0.01,1.199l1.605,-0.008l0.01,1.629c-0.026,0.831 1.237,0.822 1.199,-0.008l-0.01,-1.625l1.604,-0.008c0.801,-0.004 0.795,-1.205 -0.01,-1.201l-1.605,0.008l-0.01,-1.584c0,-0.771 -1.198,-0.756 -1.198,0.008l0,0Zm-15.172,1.445l-4.414,0.02c-0.801,0.004 -0.795,1.205 0.01,1.201l4.414,-0.022c0.831,0.028 0.825,-1.235 -0.01,-1.199Z" style="fill:#FDDEA2;fill-rule:nonzero;"/>
    <g id="text9293-43" serif:id="text9293-4">
      <path d="M17.733,303.645l0,4.706l1.881,0l0,1.329l-3.45,0l0,-6.035l1.569,0Z" style="fill:#FDDEA2;fill-rule:nonzero;"/>
      <path d="M21.991,306.415l0.52,0c0.576,0 0.864,-0.252 0.864,-0.753c0,-0.5 -0.288,-0.752 -0.864,-0.752l-0.52,0l0,1.505Zm0,3.265l-1.569,0l0,-6.035l2.497,0c0.676,0 1.197,0.177 1.557,0.529c0.36,0.352 0.54,0.848 0.54,1.488c0,0.641 -0.18,1.137 -0.54,1.489c-0.36,0.352 -0.881,0.528 -1.557,0.528l-0.928,0l0,2.001Z" style="fill:#FDDEA2;fill-rule:nonzero;"/>
    </g>
    <g id="text9293-44" serif:id="text9293-4">
      <path d="M89.098,305.974l2.265,0l0,-2.329l1.569,0l0,6.035l-1.569,0l0,-2.489l-2.265,0l0,2.489l-1.569,0l0,-6.035l1.569,0l0,2.329Z" style="fill:#FDDEA2;fill-rule:nonzero;"/>
      <path d="M95.765,306.415l0.52,0c0.576,0 0.864,-0.252 0.864,-0.753c0,-0.5 -0.288,-0.752 -0.864,-0.752l-0.52,0l0,1.505Zm0,3.265l-1.569,0l0,-6.035l2.497,0c0.676,0 1.197,0.177 1.557,0.529c0.36,0.352 0.54,0.848 0.54,1.488c0,0.641 -0.18,1.137 -0.54,1.489c-0.36,0.352 -0.881,0.528 -1.557,0.528l-0.928,0l0,2.001Z" style="fill:#FDDEA2;fill-rule:nonzero;"/>
    </g>
    <g id="text9293-45" serif:id="text9293-4">
      <path d="M53.343,308.463l0.344,0c0.396,0 0.676,-0.052 0.848,-0.152c0.173,-0.1 0.257,-0.264 0.257,-0.488c0,-0.224 -0.084,-0.388 -0.257,-0.488c-0.172,-0.1 -0.452,-0.152 -0.848,-0.152l-0.344,0l0,1.28Zm0,-2.449l0.288,0c0.492,0 0.736,-0.196 0.736,-0.584c0,-0.388 -0.244,-0.584 -0.736,-0.584l-0.288,0l0,1.168Zm-1.569,-2.369l2.337,0c0.556,0 0.977,0.132 1.265,0.401c0.288,0.268 0.432,0.652 0.432,1.152c0,0.304 -0.056,0.556 -0.164,0.756c-0.108,0.201 -0.276,0.369 -0.5,0.509c0.224,0.044 0.416,0.108 0.572,0.196c0.156,0.088 0.284,0.196 0.384,0.324c0.1,0.128 0.168,0.272 0.212,0.432c0.044,0.16 0.064,0.332 0.064,0.512c0,0.284 -0.048,0.532 -0.148,0.753c-0.1,0.22 -0.236,0.404 -0.416,0.552c-0.18,0.148 -0.396,0.26 -0.652,0.336c-0.256,0.076 -0.545,0.112 -0.865,0.112l-2.521,0l0,-6.035Z" style="fill:#FDDEA2;fill-rule:nonzero;"/>
      <path d="M58.881,306.415l0.521,0c0.576,0 0.864,-0.252 0.864,-0.753c0,-0.5 -0.288,-0.752 -0.864,-0.752l-0.521,0l0,1.505Zm0,3.265l-1.568,0l0,-6.035l2.497,0c0.676,0 1.196,0.177 1.556,0.529c0.36,0.352 0.541,0.848 0.541,1.488c0,0.641 -0.181,1.137 -0.541,1.489c-0.36,0.352 -0.88,0.528 -1.556,0.528l-0.929,0l0,2.001Z" style="fill:#FDDEA2;fill-rule:nonzero;"/>
    </g>
    <g id="text9293-46" serif:id="text9293-4">
      <path d="M124.416,305.19c-0.172,-0.14 -0.34,-0.24 -0.513,-0.308c-0.172,-0.068 -0.336,-0.1 -0.496,-0.1c-0.204,0 -0.368,0.048 -0.496,0.144c-0.128,0.096 -0.192,0.22 -0.192,0.376c0,0.108 0.032,0.196 0.096,0.264c0.064,0.068 0.148,0.128 0.252,0.18c0.104,0.052 0.22,0.096 0.352,0.132c0.132,0.036 0.26,0.076 0.388,0.12c0.513,0.173 0.889,0.401 1.125,0.685c0.236,0.284 0.356,0.656 0.356,1.116c0,0.308 -0.052,0.588 -0.156,0.841c-0.104,0.252 -0.256,0.464 -0.456,0.644c-0.2,0.18 -0.444,0.316 -0.737,0.416c-0.292,0.1 -0.62,0.148 -0.988,0.148c-0.764,0 -1.469,-0.228 -2.121,-0.68l0.672,-1.265c0.237,0.208 0.469,0.364 0.697,0.464c0.228,0.1 0.456,0.153 0.68,0.153c0.256,0 0.448,-0.061 0.572,-0.177c0.124,-0.116 0.188,-0.252 0.188,-0.4c0,-0.092 -0.016,-0.168 -0.048,-0.236c-0.032,-0.068 -0.084,-0.128 -0.16,-0.184c-0.076,-0.056 -0.172,-0.108 -0.292,-0.156c-0.12,-0.048 -0.264,-0.1 -0.436,-0.16c-0.204,-0.064 -0.4,-0.136 -0.596,-0.212c-0.196,-0.076 -0.368,-0.18 -0.521,-0.308c-0.152,-0.128 -0.276,-0.288 -0.368,-0.484c-0.092,-0.197 -0.14,-0.441 -0.14,-0.741c0,-0.3 0.048,-0.568 0.148,-0.812c0.1,-0.244 0.236,-0.452 0.416,-0.624c0.181,-0.172 0.397,-0.309 0.657,-0.405c0.26,-0.096 0.548,-0.144 0.868,-0.144c0.3,0 0.612,0.04 0.937,0.124c0.324,0.084 0.636,0.205 0.936,0.365l-0.624,1.224Z" style="fill:#FDDEA2;fill-rule:nonzero;"/>
      <path d="M129.706,304.974l-1.865,0l0,1.008l1.761,0l0,1.329l-1.761,0l0,1.04l1.865,0l0,1.329l-3.434,0l0,-6.035l3.434,0l0,1.329Z" style="fill:#FDDEA2;fill-rule:nonzero;"/>
      <path d="M130.562,309.68l1.025,-6.035l1.552,0l1.209,3.218l1.2,-3.218l1.553,0l1.025,6.035l-1.561,0l-0.52,-3.473l-1.425,3.473l-0.624,0l-1.353,-3.473l-0.52,3.473l-1.561,0Z" style="fill:#FDDEA2;fill-rule:nonzero;"/>
    </g>
    <path d="M93.778,342.78l0,-13.145c0,-5.182 -4.207,-9.389 -9.389,-9.389l-18.778,0c-5.182,0 -9.389,4.207 -9.389,9.389l0,13.145" style="fill:none;stroke:#FDDEA2;stroke-width:1.2px;stroke-linecap:round;stroke-miterlimit:1.5;"/>
  </g>
</svg>