<?xml version="1.0" encoding="UTF-8" standalone="no"?>
<svg
   width="20.120001mm"
   height="128.5mm"
   viewBox="0 0 20.12 128.5"
   version="1.1"
   id="svg5"
   sodipodi:docname="Stress.svg"
   inkscape:version="1.2.1 (9c6d41e, 2022-07-14)"
   xmlns:inkscape="http://www.inkscape.org/namespaces/inkscape"
   xmlns:sodipodi="http://sodipodi.sourceforge.net/DTD/sodipodi-0.dtd"
   xmlns="http://www.w3.org/2000/svg"
   xmlns:svg="http://www.w3.org/2000/svg">
  <defs
     id="defs242">
    <linearGradient
       id="_Linear1"
       x1="0"
       y1="0"
       x2="1"
       y2="0"
       gradientUnits="userSpaceOnUse"
       gradientTransform="matrix(0.007008,-37.8989,37.8989,0.007008,45.2834,112.196)">
      <stop
   offset="0"
   style="stop-color:#401B5C;stop-opacity:1"
   id="stop182" />

      <stop
   offset="1"
   style="stop-color:#401B5C;stop-opacity:1"
   id="stop184" />

    </linearGradient>
    <linearGradient
       id="_Linear2"
       x1="0"
       y1="0"
       x2="1"
       y2="0"
       gradientUnits="userSpaceOnUse"
       gradientTransform="matrix(-4.75,94.86,-94.86,-4.75,247.47,158.47)">
      <stop
   offset="0"
   style="stop-color:#401B5C;stop-opacity:1"
   id="stop187" />

      <stop
   offset="1"
   style="stop-color:#401B5C;stop-opacity:1"
   id="stop189" />

    </linearGradient>
    <linearGradient
       id="_Linear3"
       x1="0"
       y1="0"
       x2="1"
       y2="0"
       gradientUnits="userSpaceOnUse"
       gradientTransform="matrix(-4.88,-92.58,92.58,-4.88,247.47,345.92)">
      <stop
   offset="0"
   style="stop-color:#401B5C;stop-opacity:1"
   id="stop192" />

      <stop
   offset="1"
   style="stop-color:#401B5C;stop-opacity:1"
   id="stop194" />

    </linearGradient>
    <linearGradient
       id="_Linear4"
       x1="0"
       y1="0"
       x2="1"
       y2="0"
       gradientUnits="userSpaceOnUse"
       gradientTransform="matrix(0,-1.8845,1.8845,0,27.6195,1.9358)">
      <stop
   offset="0"
   style="stop-color:#401B5C;stop-opacity:1"
   id="stop197" />

      <stop
   offset="1"
   style="stop-color:#401B5C;stop-opacity:1"
   id="stop199" />

    </linearGradient>
  </defs>
  <sodipodi:namedview
     id="namedview240"
     pagecolor="#FDDEA2"
     bordercolor="#000000"
     borderopacity="0.25"
     inkscape:showpageshadow="2"
     inkscape:pageopacity="0.0"
     inkscape:pagecheckerboard="0"
     inkscape:deskcolor="#d1d1d1"
     inkscape:document-units="mm"
     showgrid="false"
     inkscape:zoom="0.90158649"
     inkscape:cx="-118.12511"
     inkscape:cy="284.49849"
     inkscape:window-width="1390"
     inkscape:window-height="1027"
     inkscape:window-x="0"
     inkscape:window-y="25"
     inkscape:window-maximized="0"
     inkscape:current-layer="svg5" />
  <g
     id="g216"
     style="clip-rule:evenodd;fill-rule:evenodd;stroke-linecap:round;stroke-miterlimit:10"
     transform="scale(0.33535208,0.33811115)">
        <g
   id="g210">
          <rect
   x="0"
   y="0"
   width="60"
   height="380"
   style="fill:url(#_Linear1)"
   id="rect204" />

          <rect
   x="0"
   y="126.67"
   width="60"
   height="126.67"
   style="fill:url(#_Linear2)"
   id="rect206" />

          <rect
   x="0"
   y="253.33"
   width="60"
   height="126.67"
   style="fill:url(#_Linear3)"
   id="rect208" />

        </g>

        <rect
   x="0"
   y="0"
   width="60"
   height="380"
   style="fill:#103550;fill-opacity:0.1"
   id="rect212" />

        <rect
   x="0"
   y="0"
   width="60"
   height="2"
   style="fill:url(#_Linear4)"
   id="rect214" />

      </g>
  <g
     id="g184">
    <g
       aria-label="STRESS"
       id="any"
       style="font-size:4px;line-height:1.25;font-family:'Muli Black';-inkscape-font-specification:'Muli Black, ';fill:#FDDEA2;stroke-width:0.264583">
      <path
         d="m 3.6479999,9.036 q -0.32,0 -0.632,-0.084 -0.312,-0.084 -0.508,-0.228 l 0.236,-0.532 q 0.208,0.132 0.44,0.204 0.236,0.068 0.472,0.068 0.24,0 0.368,-0.064 0.128,-0.068 0.128,-0.188 0,-0.108 -0.116,-0.176 -0.116,-0.072 -0.436,-0.14 -0.404,-0.08 -0.628,-0.196 -0.224,-0.12 -0.316,-0.28 -0.088,-0.16 -0.088,-0.388 0,-0.26 0.148,-0.468 0.148,-0.212 0.416,-0.328 0.268,-0.12 0.612,-0.12 0.308,0 0.596,0.088 0.292,0.084 0.456,0.224 l -0.232,0.532 q -0.188,-0.132 -0.396,-0.2 -0.208,-0.072 -0.416,-0.072 -0.204,0 -0.328,0.08 -0.124,0.076 -0.124,0.208 0,0.072 0.044,0.12 0.044,0.048 0.164,0.096 0.12,0.044 0.36,0.096 0.388,0.084 0.608,0.204 0.224,0.116 0.316,0.276 0.092,0.156 0.092,0.376 0,0.416 -0.324,0.656 -0.324,0.236 -0.912,0.236 z"
         id="path432" />
      <path
         d="m 5.8839906,6.76 h -0.848 V 6.152 h 2.456 V 6.76 h -0.848 V 9 h -0.76 z"
         id="path434" />
      <path
         d="M 10.271985,9 H 9.4759849 l -0.368,-0.948 q -0.064,-0.16 -0.3,-0.16 h -0.272 V 9 h -0.74 V 6.152 h 1.324 q 0.516,0 0.776,0.224 0.2600001,0.22 0.2600001,0.632 0,0.288 -0.1560001,0.5 -0.152,0.208 -0.432,0.296 0.12,0.024 0.216,0.112 0.096,0.088 0.152,0.236 z M 8.9999849,7.332 q 0.24,0 0.348,-0.072 0.108,-0.076 0.108,-0.232 0,-0.164 -0.108,-0.236 -0.104,-0.072 -0.348,-0.072 h -0.472 v 0.612 z"
         id="path436" />
      <path
         d="m 10.65198,6.152 h 2.032 v 0.576 h -1.3 v 0.536 h 1.216 V 7.84 h -1.216 v 0.584 h 1.3 V 9 h -2.032 z"
         id="path438" />
      <path
         d="m 14.059972,9.036 q -0.32,0 -0.632,-0.084 -0.312,-0.084 -0.508,-0.228 l 0.236,-0.532 q 0.208,0.132 0.44,0.204 0.236,0.068 0.472,0.068 0.24,0 0.368,-0.064 0.128,-0.068 0.128,-0.188 0,-0.108 -0.116,-0.176 -0.116,-0.072 -0.436,-0.14 -0.404,-0.08 -0.628,-0.196 -0.224,-0.12 -0.316,-0.28 -0.088,-0.16 -0.088,-0.388 0,-0.26 0.148,-0.468 0.148,-0.212 0.416,-0.328 0.268,-0.12 0.612,-0.12 0.308,0 0.596,0.088 0.292,0.084 0.456,0.224 l -0.232,0.532 q -0.188,-0.132 -0.396,-0.2 -0.208,-0.072 -0.416,-0.072 -0.204,0 -0.328,0.08 -0.124,0.076 -0.124,0.208 0,0.072 0.044,0.12 0.044,0.048 0.164,0.096 0.12,0.044 0.36,0.096 0.388,0.084 0.608,0.204 0.224,0.116 0.316,0.276 0.092,0.156 0.092,0.376 0,0.416 -0.324,0.656 -0.324,0.236 -0.912,0.236 z"
         id="path440" />
      <path
         d="m 16.747968,9.036 q -0.32,0 -0.632,-0.084 -0.312,-0.084 -0.508,-0.228 l 0.236,-0.532 q 0.208,0.132 0.44,0.204 0.236,0.068 0.472,0.068 0.24,0 0.368,-0.064 0.128,-0.068 0.128,-0.188 0,-0.108 -0.116,-0.176 -0.116,-0.072 -0.436,-0.14 -0.404,-0.08 -0.628,-0.196 -0.224,-0.12 -0.316,-0.28 -0.088,-0.16 -0.088,-0.388 0,-0.26 0.148,-0.468 0.148,-0.212 0.416,-0.328 0.268,-0.12 0.612,-0.12 0.308,0 0.596,0.088 0.292,0.084 0.456,0.224 l -0.232,0.532 q -0.188,-0.132 -0.396,-0.2 -0.208,-0.072 -0.416,-0.072 -0.204,0 -0.328,0.08 -0.124,0.076 -0.124,0.208 0,0.072 0.044,0.12 0.044,0.048 0.164,0.096 0.12,0.044 0.36,0.096 0.388,0.084 0.608,0.204 0.224,0.116 0.316,0.276 0.092,0.156 0.092,0.376 0,0.416 -0.324,0.656 -0.324,0.236 -0.912,0.236 z"
         id="path442" />
    </g>
  </g>
  <g
     id="logo_images_Panel-Logo_svg_0"
     transform="translate(5.66,110)">
    <path
       id="ellipse186"
       style="fill:none;stroke:#FDDEA2;stroke-width:0.45px"
       d="M 8.5650001,4.4349999 A 4.0500002,4.0349998 0 0 1 4.5149999,8.4699998 4.0500002,4.0349998 0 0 1 0.46499968,4.4349999 4.0500002,4.0349998 0 0 1 4.5149999,0.4000001 4.0500002,4.0349998 0 0 1 8.5650001,4.4349999 Z" />
    <path
       d="M 0.105,9.002 H 0.77 l 0.62,2.071 0.641,-2.071 h 0.663 l -0.862,2.589 c -0.081,0.239 -0.225,0.358 -0.433,0.358 -0.211,0 -0.357,-0.12 -0.437,-0.361 z"
       style="fill:#FDDEA2;fill-rule:nonzero"
       id="path188" />
    <path
       d="m 2.744,11.192 v -2.19 h 0.624 v 2.169 c 0.011,0.078 0.083,0.117 0.216,0.117 h 0.425 c 0.127,0 0.198,-0.036 0.212,-0.109 l 0.004,-0.02 V 9.002 H 4.85 v 2.186 c 0,0.191 -0.021,0.327 -0.063,0.408 -0.111,0.213 -0.306,0.32 -0.587,0.32 H 3.393 c -0.289,0 -0.486,-0.109 -0.591,-0.329 -0.039,-0.08 -0.058,-0.212 -0.058,-0.395 z"
       style="fill:#FDDEA2;fill-rule:nonzero"
       id="path190" />
    <path
       d="M 5.137,11.204 V 9.002 h 0.624 v 2.152 c 0,0.089 0.053,0.134 0.158,0.134 H 7.031 L 7.027,11.916 H 5.865 C 5.824,11.916 5.788,11.915 5.757,11.912 5.532,11.893 5.373,11.827 5.278,11.714 5.184,11.602 5.137,11.432 5.137,11.204 Z"
       style="fill:#FDDEA2;fill-rule:nonzero"
       id="path192" />
    <path
       d="M 7.052,9.631 V 9.002 H 8.925 V 9.631 H 8.296 v 2.285 H 7.672 V 9.631 Z"
       style="fill:#FDDEA2;fill-rule:nonzero"
       id="path194" />
    <path
       d="M 4.603,6.965 V 6.427 L 4.654,6.451 C 4.826,6.531 5.041,6.633 5.043,6.635 5.046,6.638 4.664,7.394 4.621,7.47 L 4.603,7.503 Z m -0.4,0.104 C 4.083,6.834 3.984,6.64 3.983,6.639 3.981,6.635 4.417,6.429 4.421,6.433 4.422,6.434 4.423,6.674 4.422,6.966 L 4.421,7.497 Z M 5.608,6.961 C 5.497,6.95 5.457,6.945 5.452,6.939 5.448,6.934 5.402,6.862 5.35,6.778 L 5.256,6.626 5.492,6.094 C 5.622,5.802 5.735,5.547 5.743,5.529 L 5.759,5.495 5.986,5.366 C 6.111,5.295 6.222,5.231 6.231,5.224 6.241,5.216 6.322,5.107 6.411,4.979 6.5,4.852 6.574,4.748 6.574,4.749 6.574,4.75 6.54,4.988 6.496,5.278 l -0.078,0.529 -0.14,0.3 -0.14,0.3 L 5.95,6.692 C 5.847,6.849 5.761,6.976 5.76,6.976 5.758,6.976 5.689,6.969 5.608,6.961 Z M 3.047,6.692 2.863,6.413 2.72,6.107 2.577,5.802 2.495,5.246 C 2.45,4.941 2.413,4.69 2.414,4.689 2.415,4.689 2.496,4.804 2.596,4.945 2.695,5.087 2.782,5.208 2.789,5.214 2.796,5.221 2.906,5.285 3.034,5.358 3.161,5.43 3.268,5.492 3.272,5.496 3.277,5.502 3.74,6.537 3.754,6.575 3.759,6.589 3.751,6.603 3.656,6.757 3.599,6.849 3.549,6.929 3.545,6.934 3.539,6.942 3.511,6.946 3.387,6.957 3.304,6.965 3.235,6.971 3.234,6.971 3.232,6.971 3.148,6.846 3.047,6.692 Z M 3.932,6.441 C 3.93,6.431 3.894,6.141 3.85,5.795 L 3.772,5.167 4.098,4.841 4.423,4.516 V 6.233 L 4.182,6.346 C 4.049,6.408 3.94,6.459 3.938,6.459 3.936,6.459 3.933,6.451 3.932,6.441 Z M 4.846,6.345 4.606,6.232 4.605,5.374 4.603,4.516 4.93,4.843 5.257,5.17 5.178,5.802 C 5.135,6.15 5.098,6.44 5.096,6.447 5.095,6.453 5.092,6.459 5.09,6.459 5.087,6.459 4.978,6.407 4.846,6.345 Z M 3.579,5.741 C 3.514,5.595 3.46,5.472 3.457,5.466 3.454,5.458 3.469,5.442 3.53,5.388 3.572,5.35 3.608,5.32 3.61,5.322 3.613,5.325 3.699,6.002 3.697,6.004 3.696,6.005 3.643,5.886 3.579,5.741 Z M 5.336,5.987 C 5.337,5.975 5.356,5.822 5.378,5.647 5.399,5.471 5.418,5.327 5.419,5.326 5.42,5.325 5.456,5.355 5.499,5.393 l 0.079,0.07 -0.01,0.022 C 5.521,5.594 5.342,5.995 5.338,6.001 5.334,6.007 5.334,6.003 5.336,5.987 Z M 5.591,5.237 5.492,5.149 5.548,5.113 C 6.104,4.75 6.352,4.586 6.362,4.577 6.369,4.57 6.458,4.368 6.568,4.109 L 6.762,3.652 v -0.5 L 6.749,3.134 C 6.723,3.095 6.677,3.08 6.639,3.097 6.631,3.101 6.46,3.236 6.259,3.398 L 5.893,3.693 5.623,4.035 C 5.474,4.223 5.35,4.379 5.346,4.383 5.342,4.387 5.249,4.299 4.985,4.041 4.79,3.85 4.63,3.692 4.63,3.69 4.63,3.685 5.776,1.802 5.781,1.798 5.783,1.797 5.963,1.935 6.182,2.105 L 6.579,2.414 6.847,2.896 7.115,3.379 7.102,3.541 7.09,3.704 6.121,5.084 5.912,5.203 C 5.797,5.269 5.7,5.323 5.696,5.324 5.693,5.325 5.646,5.286 5.591,5.237 Z M 3.117,5.201 2.909,5.083 1.939,3.701 1.927,3.539 1.915,3.376 2.182,2.894 2.45,2.412 2.847,2.103 C 3.065,1.933 3.245,1.796 3.248,1.798 3.25,1.8 3.51,2.227 3.827,2.747 L 4.402,3.691 4.256,3.834 C 3.79,4.29 3.692,4.385 3.688,4.385 3.685,4.385 3.565,4.235 3.42,4.052 3.276,3.87 3.15,3.712 3.141,3.702 3.126,3.686 2.476,3.16 2.41,3.109 2.391,3.095 2.384,3.093 2.354,3.093 2.316,3.093 2.297,3.103 2.279,3.135 2.268,3.152 2.268,3.164 2.266,3.4 L 2.265,3.646 2.459,4.103 c 0.124,0.293 0.199,0.462 0.208,0.471 0.008,0.008 0.206,0.141 0.44,0.294 L 3.533,5.147 3.436,5.233 C 3.383,5.281 3.336,5.32 3.332,5.32 3.328,5.32 3.231,5.266 3.117,5.201 Z M 4.932,4.593 4.603,4.265 4.605,4.092 4.606,3.919 5.262,4.559 5.263,4.741 c 0,0.099 -0.001,0.181 -0.002,0.181 0,0 -0.149,-0.148 -0.329,-0.329 z M 3.769,4.739 V 4.558 L 4.095,4.239 4.421,3.921 4.424,4.265 4.096,4.592 3.769,4.919 Z M 4.603,2.378 c 0,-0.675 0.002,-1.01 0.006,-1.01 0.003,0 0.225,0.056 0.494,0.125 C 5.372,1.562 5.609,1.622 5.63,1.627 5.656,1.634 5.666,1.639 5.664,1.644 5.662,1.65 4.666,3.287 4.619,3.363 L 4.603,3.388 Z M 3.89,2.51 C 3.599,2.031 3.361,1.638 3.362,1.638 3.366,1.634 4.419,1.367 4.421,1.369 4.422,1.371 4.423,1.824 4.422,2.376 L 4.421,3.381 Z"
       style="fill:#FDDEA2;fill-rule:nonzero"
       id="path196" />
  </g>
  <g
     id="RATE_images_Panel-Knob-14-A_svg_0"
     transform="translate(0.16,10)">
    <path
       d="m 2.5176688,14.032954 a 8.5,8.5 0 1 1 14.9631672,0.0028"
       stroke="#FDDEA2"
       stroke-linecap="round"
       fill="none"
       stroke-width="0.5"
       id="path199" />
    <path
       id="circle201"
       style="fill:none;stroke:#FDDEA2;stroke-width:0.5;stroke-linecap:round"
       d="m 4.5333333,16.666666 a 1.2,1.2 0 0 1 -1.2,1.2 1.2,1.2 0 0 1 -1.2000001,-1.2 1.2,1.2 0 0 1 1.2000001,-1.2 1.2,1.2 0 0 1 1.2,1.2 z" />
    <path
       id="circle203"
       style="fill:#FDDEA2;stroke:#FDDEA2;stroke-width:0.5;stroke-linecap:round"
       d="m 17.866666,16.666666 a 1.2,1.2 0 0 1 -1.2,1.2 1.2,1.2 0 0 1 -1.2,-1.2 1.2,1.2 0 0 1 1.2,-1.2 1.2,1.2 0 0 1 1.2,1.2 z" />
  </g>
  <g
     id="g208">
    <g
       aria-label="RATE"
       id="text206"
       style="font-size:3px;line-height:1.25;font-family:'Muli Black';-inkscape-font-specification:'Muli Black, ';fill:#FDDEA2;stroke-width:0.264583">
      <path
         d="m 8.3090002,32.5 h -0.597 l -0.276,-0.711 q -0.048,-0.12 -0.225,-0.12 h -0.204 V 32.5 h -0.555 v -2.136 h 0.993 q 0.387,0 0.582,0.168 0.195,0.165 0.195,0.474 0,0.216 -0.117,0.375 -0.114,0.156 -0.324,0.222 0.09,0.018 0.162,0.084 0.072,0.066 0.114,0.177 z m -0.954,-1.251 q 0.18,0 0.261,-0.054 0.081,-0.057 0.081,-0.174 0,-0.123 -0.081,-0.177 -0.078,-0.054 -0.261,-0.054 h -0.354 v 0.459 z"
         id="path448" />
      <path
         d="M 10.000992,32.059 H 9.0529919 l -0.189,0.441 h -0.564 l 0.999,-2.136 h 0.444 L 10.744992,32.5 h -0.555 z m -0.1830001,-0.423 -0.291,-0.675 -0.291,0.675 z"
         id="path450" />
      <path
         d="m 11.068988,30.82 h -0.636 v -0.456 h 1.842 v 0.456 h -0.636 v 1.68 h -0.57 z"
         id="path452" />
      <path
         d="m 12.502984,30.364 h 1.524 v 0.432 h -0.975 v 0.402 h 0.912 v 0.432 h -0.912 v 0.438 h 0.975 V 32.5 h -1.524 z"
         id="path454" />
    </g>
  </g>
  <g
     id="WAVES_images_Panel-Knob-14-A_svg_0"
     transform="translate(0.16,35)">
    <path
       d="m 2.5176688,14.032954 a 8.5,8.5 0 1 1 14.9631672,0.0028"
       stroke="#FDDEA2"
       stroke-linecap="round"
       fill="none"
       stroke-width="0.5"
       id="path210" />
    <path
       id="circle212"
       style="fill:none;stroke:#FDDEA2;stroke-width:0.5;stroke-linecap:round"
       d="m 4.5333333,16.666666 a 1.2,1.2 0 0 1 -1.2,1.2 1.2,1.2 0 0 1 -1.2000001,-1.2 1.2,1.2 0 0 1 1.2000001,-1.2 1.2,1.2 0 0 1 1.2,1.2 z" />
    <path
       id="circle214"
       style="fill:#FDDEA2;stroke:#FDDEA2;stroke-width:0.5;stroke-linecap:round"
       d="m 17.866666,16.666666 a 1.2,1.2 0 0 1 -1.2,1.2 1.2,1.2 0 0 1 -1.2,-1.2 1.2,1.2 0 0 1 1.2,-1.2 1.2,1.2 0 0 1 1.2,1.2 z" />
  </g>
  <g
     id="g219">
    <g
       aria-label="WAVES"
       id="text217"
       style="font-size:3px;line-height:1.25;font-family:'Muli Black';-inkscape-font-specification:'Muli Black, ';fill:#FDDEA2;stroke-width:0.264583">
      <path
         d="M 7.82,55.364 7.055,57.5 H 6.608 L 6.161,56.231 5.705,57.5 H 5.258 L 4.496,55.364 h 0.573 l 0.438,1.347 0.477,-1.347 h 0.384 l 0.459,1.371 0.459,-1.371 z"
         id="path459" />
      <path
         d="m 9.2689944,57.059 h -0.948 l -0.189,0.441 h -0.564 l 0.999,-2.136 h 0.444 L 10.012994,57.5 H 9.4579944 Z m -0.183,-0.423 -0.291,-0.675 -0.291,0.675 z"
         id="path461" />
      <path
         d="m 12.046986,55.364 -0.972,2.136 h -0.447 L 9.6559861,55.364 h 0.5849999 l 0.615,1.434 0.624,-1.434 z"
         id="path463" />
      <path
         d="m 12.169984,55.364 h 1.524 v 0.432 h -0.975 v 0.402 h 0.912 v 0.432 h -0.912 v 0.438 h 0.975 V 57.5 h -1.524 z"
         id="path465" />
      <path
         d="m 14.725978,57.527 q -0.24,0 -0.474,-0.063 -0.234,-0.063 -0.381,-0.171 l 0.177,-0.399 q 0.156,0.099 0.33,0.153 0.177,0.051 0.354,0.051 0.18,0 0.276,-0.048 0.096,-0.051 0.096,-0.141 0,-0.081 -0.087,-0.132 -0.087,-0.054 -0.327,-0.105 -0.303,-0.06 -0.471,-0.147 -0.168,-0.09 -0.237,-0.21 -0.066,-0.12 -0.066,-0.291 0,-0.195 0.111,-0.351 0.111,-0.159 0.312,-0.246 0.201,-0.09 0.459,-0.09 0.231,0 0.447,0.066 0.219,0.063 0.342,0.168 l -0.174,0.399 q -0.141,-0.099 -0.297,-0.15 -0.156,-0.054 -0.312,-0.054 -0.153,0 -0.246,0.06 -0.093,0.057 -0.093,0.156 0,0.054 0.033,0.09 0.033,0.036 0.123,0.072 0.09,0.033 0.27,0.072 0.291,0.063 0.456,0.153 0.168,0.087 0.237,0.207 0.069,0.117 0.069,0.282 0,0.312 -0.243,0.492 -0.243,0.177 -0.684,0.177 z"
         id="path467" />
    </g>
  </g>
  <g
     id="RANGE_images_Panel-Knob-14-A_svg_0"
     transform="translate(0.16,60)">
    <path
       d="m 2.5176688,14.032954 a 8.5,8.5 0 1 1 14.9631672,0.0028"
       stroke="#FDDEA2"
       stroke-linecap="round"
       fill="none"
       stroke-width="0.5"
       id="path221" />
    <path
       id="circle223"
       style="fill:none;stroke:#FDDEA2;stroke-width:0.5;stroke-linecap:round"
       d="m 4.5333333,16.666666 a 1.2,1.2 0 0 1 -1.2,1.2 1.2,1.2 0 0 1 -1.2000001,-1.2 1.2,1.2 0 0 1 1.2000001,-1.2 1.2,1.2 0 0 1 1.2,1.2 z" />
    <path
       id="circle225"
       style="fill:#FDDEA2;stroke:#FDDEA2;stroke-width:0.5;stroke-linecap:round"
       d="m 17.866666,16.666666 a 1.2,1.2 0 0 1 -1.2,1.2 1.2,1.2 0 0 1 -1.2,-1.2 1.2,1.2 0 0 1 1.2,-1.2 1.2,1.2 0 0 1 1.2,1.2 z" />
  </g>
  <g
     id="g230">
    <g
       aria-label="RANGE"
       id="text228"
       style="font-size:3px;line-height:1.25;font-family:'Muli Black';-inkscape-font-specification:'Muli Black, ';fill:#FDDEA2;stroke-width:0.264583">
      <path
         d="m 6.8090002,82.5 h -0.597 l -0.276,-0.711 q -0.048,-0.12 -0.225,-0.12 h -0.204 V 82.5 h -0.555 v -2.136 h 0.993 q 0.387,0 0.582,0.168 0.195,0.165 0.195,0.474 0,0.216 -0.117,0.375 -0.114,0.156 -0.324,0.222 0.09,0.018 0.162,0.084 0.072,0.066 0.114,0.177 z m -0.954,-1.251 q 0.18,0 0.261,-0.054 0.081,-0.057 0.081,-0.174 0,-0.123 -0.081,-0.177 -0.078,-0.054 -0.261,-0.054 h -0.354 v 0.459 z"
         id="path472" />
      <path
         d="m 8.5009919,82.059 h -0.948 l -0.189,0.441 h -0.564 l 0.999,-2.136 h 0.444 l 1.002,2.136 h -0.555 z m -0.183,-0.423 -0.291,-0.675 -0.291,0.675 z"
         id="path474" />
      <path
         d="M 11.278989,80.364 V 82.5 h -0.417 L 9.8929892,81.288 V 82.5 h -0.525 v -2.136 h 0.411 l 0.9689998,1.206 v -1.206 z"
         id="path476" />
      <path
         d="m 13.561986,81.294 v 1.071 q -0.171,0.078 -0.384,0.12 -0.21,0.042 -0.432,0.042 -0.348,0 -0.606,-0.132 -0.255,-0.132 -0.393,-0.378 -0.138,-0.249 -0.138,-0.588 0,-0.33 0.138,-0.576 0.138,-0.249 0.39,-0.381 0.252,-0.135 0.588,-0.135 0.231,0 0.435,0.06 0.207,0.06 0.336,0.165 l -0.177,0.399 q -0.147,-0.096 -0.285,-0.138 -0.135,-0.045 -0.291,-0.045 -0.285,0 -0.426,0.162 -0.138,0.159 -0.138,0.489 0,0.342 0.144,0.507 0.147,0.165 0.45,0.165 0.141,0 0.282,-0.03 v -0.396 h -0.372 v -0.381 z"
         id="path478" />
      <path
         d="m 13.918984,80.364 h 1.524 v 0.432 h -0.975 v 0.402 h 0.912 v 0.432 h -0.912 v 0.438 h 0.975 V 82.5 h -1.524 z"
         id="path480" />
    </g>
  </g>
  <g
     id="OUT_images_Panel-JackOutput_svg_1"
     transform="translate(4.16,87)">
    <path
       d="m 11.454,6.574 c 0,-1.504 -1.221,-2.725 -2.725,-2.725 h -5.45 c -1.504,0 -2.725,1.221 -2.725,2.725 v 8.052 c 0,1.504 1.221,2.725 2.725,2.725 h 5.45 c 1.504,0 2.725,-1.221 2.725,-2.725 z"
       style="fill:none;stroke:#FDDEA2;stroke-width:0.42px"
       id="path232" />
  </g>
  <g
     id="g237">
    <g
       aria-label="OUT"
       id="text235"
       style="font-size:2.6px;line-height:1.25;font-family:'Muli Black';-inkscape-font-specification:'Muli Black, ';fill:#FDDEA2;stroke-width:0.264583">
      <path
         d="m 8.3478002,102.8234 q -0.2834,0 -0.494,-0.1144 -0.2106,-0.117 -0.325,-0.3328 -0.1118,-0.2158 -0.1118,-0.5044 0,-0.2886 0.1144,-0.5018 0.1144,-0.2132 0.3224,-0.3276 0.2106,-0.117 0.494,-0.117 0.2833999,0 0.4913999,0.117 0.2106,0.1144 0.3224,0.3276 0.1118,0.2132 0.1118,0.5018 0,0.2886 -0.1118,0.5044 -0.1118,0.2158 -0.3224,0.3328 -0.208,0.1144 -0.4913999,0.1144 z m 0,-0.3718 q 0.2079999,0 0.3249999,-0.1482 0.1196,-0.1482 0.1196,-0.4316 0,-0.2808 -0.1196,-0.4264 -0.117,-0.1482 -0.3249999,-0.1482 -0.208,0 -0.325,0.1456 -0.117,0.1456 -0.117,0.429 0,0.286 0.117,0.4342 0.117,0.1456 0.325,0.1456 z"
         id="path483" />
      <path
         d="m 10.373196,102.8234 q -0.4056002,0 -0.6136002,-0.2028 -0.208,-0.2054 -0.208,-0.6006 v -1.0712 h 0.4758002 v 1.0894 q 0,0.2002 0.0884,0.3068 0.091,0.1066 0.2574,0.1066 0.1638,0 0.2522,-0.1066 0.0884,-0.1092 0.0884,-0.3068 v -1.0894 h 0.481 v 1.0712 q 0,0.39 -0.2132,0.598 -0.2106,0.2054 -0.6084,0.2054 z"
         id="path485" />
      <path
         d="m 11.930593,101.344 h -0.5512 v -0.3952 h 1.5964 v 0.3952 h -0.5512 v 1.456 h -0.494 z"
         id="path487" />
    </g>
  </g>
</svg>
