<svg width="150px" height="380px" version="1.1" xmlns="http://www.w3.org/2000/svg" xmlns:xlink="http://www.w3.org/1999/xlink" xml:space="preserve" xmlns:serif="http://www.serif.com/" style="fill-rule:evenodd;clip-rule:evenodd;stroke-linecap:round;stroke-miterlimit:10;">
  <defs>
    <linearGradient id="_Linear1" x1="0" y1="0" x2="1" y2="0" gradientUnits="userSpaceOnUse" gradientTransform="matrix(0.007008,-37.8989,37.8989,0.007008,75.2834,112.195)">
      <stop offset="0" style="stop-color:#401B5C;stop-opacity:1"/>
      <stop offset="1" style="stop-color:#401B5C;stop-opacity:1"/>
    </linearGradient>
    <linearGradient id="_Linear2" x1="0" y1="0" x2="1" y2="0" gradientUnits="userSpaceOnUse" gradientTransform="matrix(-4.88,-92.58,92.58,-4.88,277.54,345.91)">
      <stop offset="0" style="stop-color:#401B5C;stop-opacity:1"/>
      <stop offset="1" style="stop-color:#401B5C;stop-opacity:1"/>
    </linearGradient>
    <linearGradient id="_Linear3" x1="0" y1="0" x2="1" y2="0" gradientUnits="userSpaceOnUse" gradientTransform="matrix(-4.75,94.86,-94.86,-4.75,277.54,158.47)">
      <stop offset="0" style="stop-color:#401B5C;stop-opacity:1"/>
      <stop offset="1" style="stop-color:#401B5C;stop-opacity:1"/>
    </linearGradient>
    <linearGradient id="_Linear4" x1="0" y1="0" x2="1" y2="0" gradientUnits="userSpaceOnUse" gradientTransform="matrix(1.15392e-16,-1.8845,1.8845,1.15392e-16,56.519,1.9362)">
      <stop offset="0" style="stop-color:#401B5C;stop-opacity:1"/>
      <stop offset="1" style="stop-color:#401B5C;stop-opacity:1"/>
    </linearGradient>
  </defs>
  <g id="Panel">
    <g>
      <rect x="0" y="0" width="150" height="380" style="fill:url(#_Linear1);"/>
      <rect x="0" y="253.33" width="150" height="126.67" style="fill:url(#_Linear2);"/>
      <rect x="0" y="126.67" width="150" height="126.67" style="fill:url(#_Linear3);"/>
      <rect x="0" y="0" width="150" height="380" style="fill:rgb(16,53,80);fill-opacity:0.1;"/>
      <rect x="0" y="0" width="150" height="2" style="fill:url(#_Linear4);"/>
    </g>
    <path d="M53.94,232.302c-0.329,0.005 -0.595,0.28 -0.59,0.609l0,2.125c-5.336,0.14 -10.637,2.003 -14.955,5.627c-8.984,7.539 -11.281,20.566 -5.414,30.723c0.105,0.193 0.308,0.314 0.528,0.314c0.329,0 0.6,-0.271 0.6,-0.6c0,-0.111 -0.031,-0.219 -0.089,-0.314c-5.576,-9.654 -3.393,-22.037 5.147,-29.203c4.096,-3.437 9.122,-5.208 14.186,-5.347l0.041,23.023c-0.001,0.007 -0.001,0.015 -0.001,0.022c0,0.329 0.271,0.6 0.6,0.6c0.33,0 0.6,-0.271 0.6,-0.6c0,-0.008 0,-0.016 0,-0.024l-0.041,-23.025c5.09,0.122 10.149,1.895 14.268,5.351c8.543,7.167 10.723,19.548 5.15,29.203c-0.053,0.092 -0.08,0.196 -0.08,0.301c0,0.33 0.271,0.601 0.6,0.601c0.215,0 0.414,-0.116 0.521,-0.302c5.863,-10.157 3.568,-23.184 -5.42,-30.723c-4.341,-3.643 -9.675,-5.509 -15.041,-5.631l0,-2.123c0,-0.002 0,-0.005 0,-0.007c0,-0.33 -0.27,-0.6 -0.6,-0.6c-0.003,0 -0.006,0 -0.009,0l-0.001,0Zm19.768,40.668c-0.329,0.006 -0.594,0.282 -0.588,0.611l0.022,3.963l-4.006,0.018c-0.327,0.002 -0.595,0.273 -0.595,0.6c0,0.33 0.271,0.601 0.6,0.601c0.002,0 0.004,0 0.005,0l4.004,-0.02l0.021,4.055c0,0.006 0,0.013 0,0.019c0,0.329 0.271,0.6 0.6,0.6c0.329,0 0.6,-0.271 0.6,-0.6c0,-0.009 0,-0.018 -0.001,-0.027l-0.021,-4.051l4.01,-0.019c0.006,0 0.012,0 0.018,0c0.329,0 0.6,-0.271 0.6,-0.6c0,-0.329 -0.271,-0.6 -0.6,-0.6c-0.009,0 -0.019,0 -0.028,0l-4.008,0.018l-0.022,-3.965c0,-0.001 0,-0.002 0,-0.003c0,-0.329 -0.271,-0.6 -0.6,-0.6c-0.004,0 -0.007,0 -0.011,0l0,0Zm-33.621,4.289l-9.213,0.043c-0.006,0 -0.012,0 -0.018,0c-0.329,0 -0.6,0.27 -0.6,0.6c0,0.329 0.271,0.6 0.6,0.6c0.009,0 0.019,-0.001 0.028,-0.001l9.213,-0.043c0.006,0 0.012,0 0.018,0c0.329,0 0.6,-0.271 0.6,-0.6c0,-0.329 -0.271,-0.6 -0.6,-0.6c-0.009,0 -0.019,0 -0.028,0.001Z" style="fill:#FDDEA2;"/>
    <path d="M53.989,174.168c-5.706,0 -11.412,1.934 -16.027,5.805c-9.23,7.745 -11.587,21.128 -5.565,31.564c0.392,0.722 1.469,0.1 1.039,-0.6c-5.733,-9.934 -3.488,-22.672 5.297,-30.045c8.786,-7.369 21.725,-7.369 30.51,0c8.786,7.373 11.03,20.111 5.297,30.045c-0.43,0.7 0.647,1.322 1.039,0.6c6.023,-10.436 3.666,-23.819 -5.564,-31.564c-4.615,-3.871 -10.32,-5.805 -16.025,-5.805l-0.001,0Zm-18.883,41.52c-2.371,0 -4.307,1.935 -4.307,4.306c0,2.371 1.936,4.305 4.307,4.305c2.371,0 4.306,-1.933 4.306,-4.305c0,-2.371 -1.935,-4.306 -4.306,-4.306Zm37.766,0c-2.371,0 -4.305,1.934 -4.305,4.305c0,2.371 1.934,4.306 4.305,4.306c2.371,0 4.306,-1.935 4.306,-4.306c0,-2.371 -1.935,-4.305 -4.306,-4.305Zm-37.766,1.199c1.722,0 3.105,1.385 3.105,3.107c0,1.723 -1.383,3.106 -3.105,3.106c-1.723,0 -3.106,-1.383 -3.106,-3.106c0,-1.722 1.383,-3.107 3.106,-3.107Z" style="fill:#FDDEA2;fill-rule:nonzero;"/>
    <path d="M54.452,111.16c-5.706,0 -11.412,1.934 -16.027,5.805c-9.229,7.745 -11.587,21.128 -5.564,31.564c0.391,0.722 1.468,0.101 1.039,-0.6c-5.733,-9.934 -3.488,-22.672 5.296,-30.045c8.786,-7.369 21.725,-7.369 30.51,0c8.786,7.373 11.03,20.111 5.297,30.045c-0.429,0.701 0.648,1.322 1.039,0.6c6.023,-10.436 3.666,-23.819 -5.564,-31.564c-4.615,-3.871 -10.32,-5.805 -16.025,-5.805l-0.001,0Zm-18.883,41.52c-2.371,0 -4.307,1.936 -4.307,4.307c0,2.371 1.936,4.304 4.307,4.304c2.371,0 4.307,-1.933 4.307,-4.304c0,-2.371 -1.936,-4.307 -4.307,-4.307Zm37.766,0c-2.371,0 -4.305,1.934 -4.305,4.305c0,2.371 1.934,4.306 4.305,4.306c2.371,0 4.307,-1.935 4.307,-4.306c0,-2.371 -1.936,-4.305 -4.307,-4.305Zm-37.766,1.199c1.722,0 3.105,1.385 3.105,3.108c0,1.722 -1.382,3.105 -3.105,3.105c-1.723,0 -3.105,-1.383 -3.105,-3.105c-0.001,-1.723 1.383,-3.108 3.105,-3.108Z" style="fill:#FDDEA2;fill-rule:nonzero;"/>
    <path d="M54.284,50.133c-5.706,0 -11.412,1.934 -16.027,5.805c-9.229,7.745 -11.587,21.128 -5.564,31.564c0.391,0.722 1.468,0.101 1.039,-0.6c-5.733,-9.934 -3.488,-22.672 5.296,-30.045c8.786,-7.369 21.725,-7.369 30.511,0c8.785,7.373 11.029,20.111 5.296,30.045c-0.429,0.701 0.648,1.322 1.039,0.6c6.023,-10.436 3.666,-23.819 -5.564,-31.564c-4.615,-3.871 -10.32,-5.805 -16.025,-5.805l-0.001,0Zm-18.883,41.52c-2.371,0 -4.307,1.936 -4.307,4.307c0,2.371 1.936,4.304 4.307,4.304c2.371,0 4.307,-1.933 4.307,-4.304c0,-2.371 -1.936,-4.307 -4.307,-4.307Zm37.766,0c-2.371,0 -4.305,1.934 -4.305,4.305c0,2.371 1.934,4.306 4.305,4.306c2.371,0 4.307,-1.935 4.307,-4.306c0,-2.371 -1.936,-4.305 -4.307,-4.305Zm-37.766,1.199c1.722,0 3.105,1.385 3.105,3.108c0,1.722 -1.382,3.105 -3.105,3.105c-1.723,0 -3.105,-1.383 -3.105,-3.105c-0.001,-1.723 1.383,-3.108 3.105,-3.108Z" style="fill:#FDDEA2;fill-rule:nonzero;"/>
    <path d="M62.9,363.496l3.443,10.383c0.322,0.968 0.909,1.451 1.756,1.451c0.835,0 1.414,-0.476 1.737,-1.435l3.46,-10.398l-2.66,0l-2.574,8.318l-2.49,-8.318l-2.672,-0.001Zm10.598,0l0,8.793c0,0.736 0.078,1.265 0.234,1.588c0.423,0.881 1.214,1.32 2.373,1.32l3.243,0c1.126,0 1.912,-0.429 2.357,-1.287c0.168,-0.324 0.25,-0.87 0.25,-1.639l0,-8.775l-2.506,0l0,8.658l-0.018,0.084c-0.056,0.29 -0.34,0.436 -0.853,0.436l-1.705,0c-0.535,0 -0.826,-0.157 -0.87,-0.469l0,-8.709l-2.505,0Zm9.611,0l0,8.842c0,0.914 0.19,1.598 0.569,2.049c0.378,0.452 1.019,0.717 1.922,0.795c0.123,0.011 0.268,0.015 0.435,0.015l4.664,0l0.016,-2.523l-4.463,0c-0.424,0 -0.634,-0.178 -0.634,-0.535l0,-8.643l-2.509,0Zm7.69,0l0,2.525l2.49,0l0,9.176l2.508,0l0,-9.176l2.523,0l0,-2.525l-7.521,0Z" style="fill:rgb(102,102,102);fill-rule:nonzero;"/>
    <path d="M59.3,369.416c0,-4.509 -3.655,-8.165 -8.164,-8.165c-4.509,0 -8.165,3.656 -8.165,8.165c0,4.509 3.656,8.165 8.165,8.165c4.509,0 8.164,-3.656 8.164,-8.165Z" style="fill:rgb(117,117,117);fill-rule:nonzero;stroke:rgb(53,53,53);stroke-width:0.61px;"/>
    <g>
      <path d="M49.32,374.389l0.553,-0.89l-1.064,-2.393l-2.216,-2.284l0.46,3.101l0.597,1.28l0.833,1.263l0.837,-0.077Z" style="fill:rgb(43,43,43);fill-rule:nonzero;"/>
      <path d="M53.05,374.399l-0.553,-0.891l1.064,-2.393l2.216,-2.284l-0.46,3.101l-0.597,1.28l-0.833,1.264l-0.837,-0.077Z" style="fill:#401B5C;fill-rule:nonzero;"/>
      <path d="M48.64,363.359l2.584,-0.661l0,13.448l-1.349,-2.651l-1.061,-2.385l-1.022,-0.581l-2.052,-2.921l-0.057,-0.775l1.148,-2.067l1.809,-1.407Z" style="fill:rgb(66,66,66);fill-rule:nonzero;"/>
      <path d="M53.8,363.359l-2.584,-0.66l0,13.448l1.35,-2.651l1.06,-2.385l1.023,-0.581l2.051,-2.921l0.058,-0.775l-1.149,-2.068l-1.809,-1.407Z" style="fill:rgb(51,51,51);fill-rule:nonzero;"/>
      <path d="M49.5,369.239l1.723,-1.685l0,1.23l-1.723,1.718l0,-1.263" style="fill:rgb(76,76,76);fill-rule:nonzero;"/>
      <path d="M51.22,368.779l-1.723,1.718l0.377,3.004l1.346,2.643l0,-7.365Z" style="fill:rgb(91,91,91);fill-rule:nonzero;"/>
      <path d="M51.22,376.149l-1.346,-2.643l1.346,-0.635l0,3.278Z" style="fill:rgb(51,51,51);fill-rule:nonzero;"/>
      <path d="M49.5,370.499l0,-1.264l-1.249,-1.579l-1.477,-1.19l-0.001,0.932l0.775,1.823l1.952,1.278Z" style="fill:#FDDEA2;fill-rule:nonzero;"/>
      <path d="M52.94,369.239l-1.722,-1.684l0,1.23l1.722,1.718l0,-1.264" style="fill:rgb(45,45,45);fill-rule:nonzero;"/>
      <path d="M51.22,368.779l1.722,1.718l-0.376,3.004l-1.347,2.643l0.001,-7.365Z" style="fill:rgb(53,53,53);fill-rule:nonzero;"/>
      <path d="M51.22,376.149l1.347,-2.643l-1.346,-0.635l-0.001,3.278Z" style="fill:#401B5C;fill-rule:nonzero;"/>
      <path d="M52.94,370.499l0,-1.264l1.249,-1.579l1.478,-1.19l0.001,0.932l-0.775,1.823l-1.953,1.278Z" style="fill:#FDDEA2;fill-rule:nonzero;"/>
      <path d="M48.65,363.339l2.566,4.216l-0.005,-4.87" style="fill:rgb(56,56,56);fill-rule:nonzero;"/>
      <path d="M53.78,363.339l-2.566,4.215l0.006,-4.87" style="fill:rgb(45,45,45);fill-rule:nonzero;"/>
      <path d="M48.81,371.109l0.688,-0.61l0.375,3.006l-1.063,-2.396Z" style="fill:rgb(51,51,51);fill-rule:nonzero;"/>
      <path d="M53.63,371.129l-0.688,-0.61l-0.375,3.006l1.063,-2.396Z" style="fill:rgb(28,28,28);fill-rule:nonzero;"/>
    </g>
    <path d="M17.521,297.2c-5.359,0 -9.723,4.362 -9.723,9.721l0,17.52c0,5.36 4.364,9.722 9.723,9.722l114.96,0c5.36,0 9.723,-4.363 9.723,-9.722l0,-17.52c0,-5.359 -4.363,-9.721 -9.723,-9.721l-114.96,0Z" style="fill:none;stroke:#FDDEA2;stroke-width:1.2px;stroke-linecap:butt;stroke-miterlimit:4;"/>
    <g>
      <path d="M40.393,164.88c-0.32,0 -0.609,0.047 -0.869,0.143c-0.26,0.096 -0.476,0.232 -0.656,0.404c-0.18,0.172 -0.316,0.381 -0.416,0.625c-0.1,0.244 -0.149,0.512 -0.149,0.812c0,0.3 0.049,0.545 0.141,0.741c0.092,0.196 0.217,0.356 0.369,0.484c0.152,0.128 0.323,0.233 0.519,0.309c0.197,0.076 0.392,0.147 0.596,0.211c0.172,0.06 0.316,0.112 0.436,0.16c0.12,0.048 0.217,0.1 0.293,0.156c0.076,0.056 0.128,0.116 0.16,0.184c0.032,0.068 0.049,0.144 0.049,0.236c0,0.148 -0.066,0.284 -0.19,0.4c-0.124,0.116 -0.316,0.176 -0.572,0.176c-0.224,0 -0.452,-0.052 -0.68,-0.152c-0.228,-0.1 -0.459,-0.255 -0.695,-0.463l-0.674,1.263c0.652,0.453 1.357,0.68 2.121,0.68c0.368,0 0.696,-0.046 0.988,-0.146c0.293,-0.1 0.537,-0.238 0.737,-0.418c0.2,-0.18 0.353,-0.391 0.457,-0.643c0.104,-0.252 0.156,-0.534 0.156,-0.842c0,-0.46 -0.121,-0.831 -0.357,-1.115c-0.236,-0.284 -0.611,-0.513 -1.123,-0.685c-0.128,-0.044 -0.257,-0.084 -0.389,-0.12c-0.132,-0.036 -0.248,-0.08 -0.352,-0.132c-0.104,-0.052 -0.187,-0.112 -0.251,-0.18c-0.065,-0.068 -0.098,-0.156 -0.098,-0.264c0,-0.156 0.065,-0.281 0.193,-0.377c0.128,-0.096 0.292,-0.142 0.496,-0.142c0.16,0 0.324,0.031 0.496,0.099c0.172,0.068 0.34,0.169 0.512,0.309l0.625,-1.225c-0.3,-0.16 -0.613,-0.281 -0.937,-0.365c-0.325,-0.084 -0.636,-0.123 -0.936,-0.123l0,0Zm6.17,0c-0.492,0 -0.94,0.08 -1.348,0.244c-0.408,0.164 -0.76,0.388 -1.053,0.676c-0.292,0.288 -0.525,0.623 -0.689,1.012c-0.164,0.388 -0.248,0.803 -0.248,1.252c0,0.448 0.084,0.865 0.248,1.254c0.164,0.388 0.397,0.723 0.689,1.011c0.293,0.288 0.645,0.512 1.053,0.676c0.408,0.164 0.856,0.244 1.348,0.244c0.484,0 0.933,-0.08 1.346,-0.244c0.412,-0.164 0.764,-0.388 1.06,-0.676c0.296,-0.288 0.527,-0.623 0.692,-1.011c0.164,-0.389 0.248,-0.806 0.248,-1.254c0,-0.449 -0.084,-0.864 -0.248,-1.252c-0.165,-0.389 -0.396,-0.724 -0.692,-1.012c-0.296,-0.288 -0.648,-0.512 -1.06,-0.676c-0.413,-0.164 -0.862,-0.244 -1.346,-0.244Zm28.34,0c-0.42,0 -0.825,0.078 -1.209,0.234c-0.384,0.156 -0.72,0.376 -1.012,0.657c-0.292,0.28 -0.523,0.613 -0.695,1.002c-0.172,0.388 -0.262,0.811 -0.262,1.275c0,0.464 0.09,0.893 0.266,1.285c0.176,0.392 0.407,0.732 0.699,1.016c0.292,0.284 0.628,0.508 1.008,0.664c0.38,0.156 0.781,0.236 1.197,0.236c0.204,0 0.409,-0.018 0.617,-0.058c0.208,-0.04 0.432,-0.106 0.672,-0.19l0.16,-0.055l0,-1.857c-0.4,0.428 -0.853,0.641 -1.353,0.641c-0.228,0 -0.445,-0.045 -0.641,-0.129c-0.196,-0.084 -0.367,-0.204 -0.515,-0.352c-0.148,-0.148 -0.26,-0.325 -0.344,-0.529c-0.084,-0.204 -0.125,-0.424 -0.125,-0.664c0,-0.236 0.041,-0.452 0.125,-0.656c0.084,-0.204 0.196,-0.376 0.34,-0.524c0.144,-0.148 0.315,-0.263 0.515,-0.347c0.2,-0.084 0.417,-0.129 0.653,-0.129c0.532,0 0.981,0.219 1.345,0.664l0,-1.873c-0.256,-0.108 -0.5,-0.185 -0.732,-0.237c-0.232,-0.052 -0.469,-0.074 -0.709,-0.074l0,0Zm-46.811,0.168l0,6.033l1.568,0l0,-2.32l1.496,2.32l1.953,0l-1.896,-2.472c0.432,-0.1 0.76,-0.296 0.98,-0.581c0.221,-0.284 0.332,-0.657 0.332,-1.117c0,-0.256 -0.04,-0.494 -0.125,-0.718c-0.084,-0.225 -0.203,-0.422 -0.367,-0.594c-0.164,-0.172 -0.369,-0.304 -0.621,-0.405c-0.252,-0.1 -0.545,-0.146 -0.881,-0.146l-2.439,0l0,0Zm5.674,0l0,6.033l3.433,0l0,-1.328l-1.865,0l0,-1.041l1.762,0l0,-1.328l-1.762,0l0,-1.008l1.865,0l0,-1.328l-3.433,0l0,0Zm17.135,0l0,6.033l1.568,0l0,-3.689l2.898,3.689l1.561,0l0,-6.033l-1.561,0l0,3.689l-2.898,-3.689l-1.568,0Zm9.027,0l-2.297,6.033l1.674,0l0.359,-1.047l2.24,0l0.362,1.047l1.672,0l-2.297,-6.033l-1.713,0l0,0Zm4.699,0l0,6.033l1.569,0l0,-3.689l2.896,3.689l1.561,0l0,-6.033l-1.561,0l0,3.689l-2.896,-3.689l-1.569,0Zm12.709,0l0,6.033l3.434,0l0,-1.328l-1.865,0l0,-1.041l1.759,0l0,-1.328l-1.759,0l0,-1.008l1.865,0l0,-1.328l-3.434,0l0,0Zm-47.676,1.207l0.295,0c0.308,0 0.549,0.065 0.713,0.193c0.164,0.128 0.248,0.311 0.248,0.551c0,0.24 -0.084,0.425 -0.248,0.553c-0.164,0.128 -0.405,0.193 -0.713,0.193l-0.295,0l0,-1.49l0,0Zm16.902,0.145c0.228,0 0.448,0.041 0.653,0.125c0.204,0.084 0.388,0.199 0.544,0.347c0.157,0.148 0.28,0.323 0.372,0.528c0.092,0.204 0.136,0.423 0.136,0.664c0,0.24 -0.044,0.462 -0.136,0.666c-0.092,0.204 -0.215,0.379 -0.372,0.527c-0.156,0.148 -0.34,0.264 -0.544,0.348c-0.205,0.084 -0.425,0.125 -0.653,0.125c-0.228,0 -0.448,-0.041 -0.652,-0.125c-0.204,-0.084 -0.383,-0.2 -0.539,-0.348c-0.156,-0.148 -0.277,-0.323 -0.369,-0.527c-0.092,-0.204 -0.137,-0.426 -0.137,-0.666c0,-0.241 0.045,-0.46 0.137,-0.664c0.092,-0.205 0.213,-0.38 0.369,-0.528c0.156,-0.148 0.335,-0.263 0.539,-0.347c0.204,-0.084 0.424,-0.125 0.652,-0.125Zm14.223,0.431l0.703,2.01l-1.408,0l0.705,-2.01Z" style="fill:#FDDEA2;fill-rule:nonzero;"/>
      <path d="M75.98,348.54l0,6.033l1.568,0l0,-6.033l-1.568,0Zm2.834,0l0,6.033l1.568,0l0,-3.689l2.897,3.689l1.56,0l0,-6.033l-1.56,0l0,3.69l-2.897,-3.69l-1.568,0Zm7.291,0l0,6.033l1.568,0l0,-2l0.928,0c0.676,0 1.197,-0.177 1.557,-0.529c0.36,-0.352 0.541,-0.848 0.541,-1.488c0,-0.641 -0.181,-1.136 -0.541,-1.489c-0.36,-0.352 -0.881,-0.527 -1.557,-0.527l-2.496,0l0,0Zm5.426,0l0,3.496c0,0.94 0.216,1.625 0.648,2.057c0.432,0.432 1.092,0.648 1.985,0.648c0.892,0 1.552,-0.216 1.98,-0.648c0.428,-0.432 0.645,-1.117 0.645,-2.057l0,-3.496l-1.561,0l0,3.281c0,0.176 -0.007,0.355 -0.019,0.539c-0.012,0.184 -0.057,0.352 -0.125,0.5c-0.068,0.148 -0.177,0.273 -0.317,0.365c-0.14,0.093 -0.343,0.141 -0.603,0.141c-0.26,0 -0.464,-0.048 -0.608,-0.141c-0.144,-0.092 -0.248,-0.217 -0.316,-0.365c-0.068,-0.148 -0.109,-0.316 -0.121,-0.5c-0.012,-0.184 -0.02,-0.363 -0.02,-0.539l0,-3.281l-1.568,0l0,0Zm5.955,0l0,1.328l1.287,0l0,4.705l1.568,0l0,-4.705l1.289,0l0,-1.328l-4.144,0l0,0Zm-9.813,1.264l0.52,0c0.576,0 0.865,0.251 0.865,0.752c0,0.5 -0.289,0.752 -0.865,0.752l-0.52,0l0,-1.504l0,0Z" style="fill:#FDDEA2;fill-rule:nonzero;"/>
      <path d="M113.14,31.092c-0.564,0 -0.999,0.174 -1.305,0.52c-0.306,0.346 -0.459,0.839 -0.459,1.482l0,0.353l-0.703,0l0,0.862l0.703,0l0,4.25l1.377,0l0,-4.25l1.84,0l0,4.25l1.379,0l0,-5.112l-3.219,0l0,-0.316c0,-0.776 0.213,-1.164 0.639,-1.164c0.186,0 0.472,0.084 0.857,0.256l0,-0.942c-0.39,-0.127 -0.761,-0.189 -1.109,-0.189l0,0Zm-96.982,0.117l0,7.35l1.121,0l0.258,-0.516c0.403,0.423 0.889,0.633 1.461,0.633c0.664,0 1.195,-0.255 1.592,-0.766c0.398,-0.511 0.595,-1.193 0.595,-2.047c0,-0.787 -0.174,-1.407 -0.527,-1.857c-0.352,-0.45 -0.835,-0.676 -1.449,-0.676c-0.761,0 -1.318,0.36 -1.672,1.08l0,-3.201l-1.379,0l0,0Zm76.928,0l0,7.35l1.121,0l0.256,-0.516c0.403,0.423 0.892,0.633 1.463,0.633c0.664,0 1.195,-0.255 1.592,-0.766c0.397,-0.511 0.595,-1.193 0.595,-2.047c0,-0.787 -0.175,-1.407 -0.527,-1.857c-0.353,-0.45 -0.837,-0.676 -1.451,-0.676c-0.76,0 -1.318,0.36 -1.672,1.08l0,-3.201l-1.377,0l0,0Zm6.318,0l0,7.35l1.377,0l0,-7.35l-1.377,0Zm18.291,0l0,7.35l1.379,0l0,-7.35l-1.379,0Zm-33.316,0.227l0,1.15l1.379,0l0,-1.15l-1.379,0Zm30.443,0l0,1.15l1.151,0l0,-1.15l-1.151,0Zm-79.055,0.992l-1.378,0.158l0,0.861l-0.573,0l0,0.862l0.573,0l0,2.691c0,1.117 0.598,1.676 1.793,1.676c0.189,0 0.448,-0.049 0.777,-0.145l0,-0.837c-0.165,0.043 -0.305,0.064 -0.424,0.064c-0.511,0 -0.768,-0.312 -0.768,-0.939l0,-2.51l1.094,0l0,-0.862l-1.094,0l0,-1.019l0,0Zm12.396,0l-1.377,0.158l0,0.861l-0.572,0l0,0.862l0.572,0l0,2.691c0,1.117 0.598,1.676 1.793,1.676c0.19,0 0.448,-0.049 0.778,-0.145l0,-0.837c-0.164,0.043 -0.307,0.064 -0.424,0.064c-0.513,0 -0.77,-0.312 -0.77,-0.939l0,-2.51l1.096,0l0,-0.862l-1.096,0l0,-1.019l0,0Zm9.471,0l-1.379,0.158l0,0.861l-0.572,0l0,0.862l0.572,0l0,2.691c0,1.117 0.599,1.676 1.793,1.676c0.19,0 0.448,-0.049 0.778,-0.145l0,-0.837c-0.166,0.043 -0.307,0.064 -0.424,0.064c-0.513,0 -0.768,-0.312 -0.768,-0.939l0,-2.51l1.094,0l0,-0.862l-1.094,0l0,-1.019l0,0Zm64.604,0l-1.377,0.158l0,0.861l-0.574,0l0,0.862l0.574,0l0,2.691c0,1.117 0.596,1.676 1.791,1.676c0.189,0 0.448,-0.049 0.777,-0.145l0,-0.837c-0.164,0.043 -0.306,0.064 -0.423,0.064c-0.513,0 -0.768,-0.312 -0.768,-0.939l0,-2.51l1.094,0l0,-0.862l-1.094,0l0,-1.019l0,0Zm-97.756,0.902c-0.741,0 -1.338,0.242 -1.789,0.725c-0.452,0.483 -0.678,1.12 -0.678,1.912c0,0.837 0.247,1.499 0.741,1.982c0.493,0.484 1.166,0.727 2.019,0.727c0.587,0 1.207,-0.096 1.861,-0.289l0,-0.969c-0.58,0.214 -1.099,0.322 -1.562,0.322c-0.978,0 -1.514,-0.487 -1.608,-1.463l3.17,0c0,-1.02 -0.17,-1.766 -0.515,-2.238c-0.344,-0.471 -0.89,-0.709 -1.639,-0.709l0,0Zm6.699,0c-0.71,0 -1.292,0.36 -1.742,1.08l0,-0.963l-1.377,0l0,5.112l1.377,0l0,-3.217c0.403,-0.618 0.825,-0.926 1.262,-0.926c0.384,0 0.578,0.291 0.578,0.871l0,3.272l1.379,0l0,-3.611c0,-0.5 -0.133,-0.895 -0.397,-1.184c-0.263,-0.289 -0.623,-0.434 -1.08,-0.434l0,0Zm12.141,0c-0.664,0 -1.179,0.135 -1.548,0.403c-0.37,0.269 -0.555,0.646 -0.555,1.131c0,0.347 0.109,0.639 0.326,0.875c0.217,0.236 0.578,0.454 1.084,0.66l0.467,0.187c0.466,0.187 0.697,0.403 0.697,0.651c0,0.385 -0.282,0.578 -0.848,0.578c-0.483,0 -1.067,-0.142 -1.75,-0.428l0,1.01c0.627,0.186 1.248,0.279 1.864,0.279c0.639,0 1.157,-0.151 1.556,-0.449c0.398,-0.3 0.598,-0.691 0.598,-1.172c0,-0.366 -0.118,-0.666 -0.352,-0.899c-0.235,-0.232 -0.65,-0.462 -1.25,-0.689l-0.4,-0.152c-0.422,-0.161 -0.633,-0.359 -0.633,-0.592c0,-0.354 0.287,-0.529 0.858,-0.529c0.363,0 0.82,0.094 1.373,0.287l0,-0.967c-0.574,-0.122 -1.071,-0.184 -1.487,-0.184l0,0Zm9.084,0c-0.611,0 -1.23,0.118 -1.853,0.354l0,0.951c0.549,-0.304 1.092,-0.457 1.629,-0.457c0.605,0 0.908,0.266 0.908,0.797l0,0.465l-0.367,0c-0.841,0 -1.489,0.153 -1.94,0.459c-0.452,0.306 -0.678,0.74 -0.678,1.304c0,0.435 0.141,0.79 0.42,1.063c0.28,0.273 0.642,0.41 1.09,0.41c0.524,0 1.016,-0.222 1.475,-0.666l0.06,0c0.161,0.444 0.525,0.666 1.09,0.666c0.224,0 0.48,-0.044 0.772,-0.131l-0.032,-0.773c-0.075,0.012 -0.135,0.019 -0.181,0.019c-0.258,0 -0.387,-0.201 -0.387,-0.601l0,-2.262c0,-1.064 -0.668,-1.598 -2.006,-1.598l0,0Zm9.657,0c-0.743,0 -1.341,0.242 -1.791,0.725c-0.453,0.483 -0.678,1.12 -0.678,1.912c0,0.837 0.247,1.499 0.74,1.982c0.493,0.484 1.168,0.727 2.021,0.727c0.587,0 1.207,-0.096 1.862,-0.289l0,-0.969c-0.58,0.214 -1.102,0.322 -1.565,0.322c-0.977,0 -1.512,-0.487 -1.605,-1.463l3.17,0c0,-1.02 -0.173,-1.766 -0.518,-2.238c-0.344,-0.471 -0.889,-0.709 -1.637,-0.709l0,0Zm14.199,0c-0.611,0 -1.229,0.118 -1.853,0.354l0,0.951c0.549,-0.304 1.092,-0.457 1.629,-0.457c0.604,0 0.908,0.266 0.908,0.797l0,0.465l-0.367,0c-0.842,0 -1.487,0.153 -1.94,0.459c-0.451,0.306 -0.677,0.74 -0.677,1.304c0,0.435 0.138,0.79 0.418,1.063c0.279,0.273 0.643,0.41 1.089,0.41c0.526,0 1.018,-0.222 1.477,-0.666l0.061,0c0.162,0.444 0.525,0.666 1.089,0.666c0.224,0 0.481,-0.044 0.772,-0.131l-0.033,-0.773c-0.074,0.012 -0.133,0.019 -0.18,0.019c-0.257,0 -0.387,-0.201 -0.387,-0.601l0,-2.262c0,-1.064 -0.668,-1.598 -2.006,-1.598l0,0Zm6.791,0c-0.729,0 -1.272,0.36 -1.628,1.08l0,-0.963l-1.377,0l0,5.112l1.377,0l0,-3.244c0.344,-0.555 0.791,-0.834 1.339,-0.834c0.169,0 0.349,0.036 0.545,0.107l0,-1.228c-0.083,-0.018 -0.169,-0.03 -0.256,-0.03l0,0Zm6.248,0c-0.611,0 -1.229,0.118 -1.853,0.354l0,0.951c0.549,-0.304 1.094,-0.457 1.631,-0.457c0.604,0 0.906,0.266 0.906,0.797l0,0.465l-0.367,0c-0.841,0 -1.487,0.153 -1.938,0.459c-0.452,0.306 -0.677,0.74 -0.677,1.304c0,0.435 0.138,0.79 0.418,1.063c0.278,0.273 0.643,0.41 1.089,0.41c0.526,0 1.016,-0.222 1.475,-0.666l0.061,0c0.162,0.444 0.525,0.666 1.089,0.666c0.224,0 0.483,-0.044 0.774,-0.131l-0.033,-0.773c-0.075,0.012 -0.135,0.019 -0.182,0.019c-0.257,0 -0.387,-0.201 -0.387,-0.601l0,-2.262c0,-1.064 -0.668,-1.598 -2.006,-1.598l0,0Zm15.209,0c-0.741,0 -1.338,0.242 -1.789,0.725c-0.452,0.483 -0.677,1.12 -0.677,1.912c0,0.837 0.247,1.499 0.74,1.982c0.493,0.484 1.166,0.727 2.019,0.727c0.587,0 1.209,-0.096 1.864,-0.289l0,-0.969c-0.581,0.214 -1.103,0.322 -1.565,0.322c-0.978,0 -1.512,-0.487 -1.605,-1.462l3.17,0c0,-1.021 -0.174,-1.767 -0.518,-2.239c-0.344,-0.471 -0.89,-0.709 -1.639,-0.709l0,0Zm22.156,0c-0.742,0 -1.338,0.242 -1.791,0.725c-0.451,0.483 -0.677,1.12 -0.677,1.912c0,0.837 0.248,1.499 0.742,1.982c0.493,0.484 1.166,0.727 2.019,0.727c0.587,0 1.208,-0.096 1.864,-0.289l0,-0.969c-0.58,0.214 -1.104,0.322 -1.567,0.322c-0.977,0 -1.512,-0.487 -1.605,-1.462l3.172,0c0,-1.021 -0.174,-1.767 -0.518,-2.239c-0.345,-0.471 -0.891,-0.709 -1.639,-0.709l0,0Zm6.588,0c-0.729,0 -1.272,0.36 -1.629,1.08l0,-0.963l-1.378,0l0,5.112l1.378,0l0,-3.244c0.345,-0.555 0.791,-0.834 1.34,-0.834c0.168,0 0.349,0.036 0.545,0.107l0,-1.228c-0.084,-0.018 -0.169,-0.03 -0.256,-0.03l0,0Zm-65.16,0.117l1.953,5.112l1.377,0l1.969,-5.112l-0.996,0l-1.42,3.688l-1.429,-3.688l-1.453,0l-0.001,0Zm16.285,0l0,5.112l1.379,0l0,-5.112l-1.379,0Zm-59.938,0.747c0.562,0 0.842,0.434 0.842,1.306l-1.834,0c0.09,-0.872 0.421,-1.306 0.992,-1.306l0,0Zm37.578,0c0.563,0 0.842,0.434 0.842,1.306l-1.834,0c0.09,-0.872 0.422,-1.306 0.992,-1.306l0,0Zm42.449,0c0.562,0 0.842,0.434 0.842,1.306l-1.834,0c0.09,-0.872 0.421,-1.306 0.992,-1.306l0,0Zm22.154,0c0.563,0 0.844,0.434 0.844,1.306l-1.834,0c0.09,-0.872 0.42,-1.306 0.99,-1.306l0,0Zm-107.91,0.216c0.674,0 1.01,0.525 1.01,1.571c0,0.546 -0.1,0.983 -0.303,1.31c-0.201,0.327 -0.469,0.49 -0.808,0.49c-0.378,0 -0.735,-0.186 -1.07,-0.558l0,-2.026c0.375,-0.524 0.765,-0.787 1.171,-0.787l0,0Zm76.928,0c0.674,0 1.012,0.525 1.012,1.571c0,0.546 -0.101,0.983 -0.303,1.31c-0.202,0.327 -0.472,0.49 -0.81,0.49c-0.379,0 -0.737,-0.186 -1.072,-0.558l0,-2.026c0.375,-0.524 0.767,-0.787 1.173,-0.787l0,0Zm-42.871,1.821l0.325,0l0,1.039c-0.338,0.313 -0.668,0.47 -0.991,0.47c-0.189,0 -0.349,-0.065 -0.478,-0.193c-0.128,-0.129 -0.194,-0.287 -0.194,-0.476c0,-0.559 0.447,-0.84 1.338,-0.84l0,0Zm23.854,0l0.327,0l0,1.039c-0.338,0.313 -0.671,0.47 -0.993,0.47c-0.189,0 -0.348,-0.065 -0.476,-0.193c-0.129,-0.129 -0.194,-0.287 -0.194,-0.476c0,-0.559 0.446,-0.84 1.336,-0.84l0,0Zm13.041,0l0.325,0l0,1.039c-0.338,0.313 -0.668,0.47 -0.991,0.47c-0.189,0 -0.349,-0.065 -0.478,-0.193c-0.129,-0.129 -0.192,-0.287 -0.192,-0.476c0,-0.559 0.445,-0.84 1.336,-0.84l0,0Z" style="fill:#FDDEA2;fill-rule:nonzero;"/>
      <path d="M64.641,17.445c-0.503,0 -0.959,0.076 -1.365,0.227c-0.406,0.151 -0.75,0.363 -1.031,0.634c-0.281,0.273 -0.499,0.6 -0.655,0.983c-0.154,0.381 -0.232,0.807 -0.232,1.277c0,0.469 0.074,0.856 0.221,1.162c0.146,0.306 0.339,0.559 0.578,0.762c0.239,0.201 0.511,0.363 0.816,0.484c0.306,0.123 0.621,0.233 0.94,0.334c0.269,0.092 0.496,0.176 0.685,0.25c0.188,0.076 0.341,0.157 0.459,0.246c0.117,0.088 0.201,0.184 0.25,0.289c0.051,0.106 0.076,0.229 0.076,0.371c0,0.236 -0.098,0.444 -0.295,0.629c-0.197,0.184 -0.498,0.278 -0.9,0.278c-0.353,0 -0.707,-0.081 -1.068,-0.241c-0.361,-0.159 -0.727,-0.4 -1.096,-0.728l-1.057,1.988c1.023,0.713 2.134,1.069 3.334,1.069c0.578,0 1.096,-0.078 1.553,-0.233c0.457,-0.156 0.844,-0.373 1.158,-0.654c0.314,-0.28 0.555,-0.619 0.719,-1.014c0.162,-0.394 0.244,-0.833 0.244,-1.32c0,-0.721 -0.186,-1.305 -0.561,-1.754c-0.372,-0.449 -0.961,-0.807 -1.767,-1.076c-0.201,-0.067 -0.403,-0.129 -0.609,-0.188c-0.206,-0.058 -0.389,-0.129 -0.553,-0.209c-0.164,-0.08 -0.295,-0.174 -0.397,-0.283c-0.1,-0.109 -0.152,-0.246 -0.152,-0.414c0,-0.244 0.1,-0.441 0.303,-0.592c0.201,-0.152 0.461,-0.226 0.779,-0.226c0.252,0 0.512,0.053 0.781,0.158c0.268,0.104 0.537,0.265 0.805,0.482l0.98,-1.923c-0.47,-0.252 -0.959,-0.444 -1.47,-0.573c-0.512,-0.13 -1.004,-0.195 -1.473,-0.195l0,0Zm-24.959,0.266l0,5.496c0,1.476 0.34,2.553 1.02,3.232c0.679,0.679 1.719,1.02 3.121,1.02c1.399,0 2.436,-0.341 3.111,-1.02c0.675,-0.679 1.014,-1.757 1.014,-3.232l0,-5.496l-2.453,0l0,5.156c0,0.277 -0.01,0.56 -0.032,0.849c-0.021,0.291 -0.086,0.552 -0.195,0.788c-0.109,0.234 -0.275,0.424 -0.496,0.572c-0.223,0.146 -0.539,0.219 -0.949,0.219c-0.412,0 -0.731,-0.073 -0.957,-0.219c-0.227,-0.148 -0.393,-0.338 -0.496,-0.572c-0.106,-0.236 -0.169,-0.497 -0.19,-0.788c-0.021,-0.289 -0.031,-0.572 -0.031,-0.849l0,-5.156l-2.467,0l0,0Zm10.254,0l0,9.484l2.465,0l0,-5.799l4.555,5.799l2.453,0l0,-9.484l-2.453,0l0,5.798l-4.555,-5.798l-2.465,0Zm18.756,0l0,2.086l2.025,0l0,7.398l2.467,0l0,-7.398l2.026,0l0,-2.086l-6.518,0Zm9.875,0l-3.609,9.484l2.629,0l0.566,-1.648l3.521,0l0.567,1.648l2.629,0l-3.61,-9.484l-2.693,0l0,0Zm7.385,0l0,9.484l3.963,0c0.502,0 0.956,-0.059 1.359,-0.176c0.402,-0.117 0.743,-0.295 1.023,-0.529c0.281,-0.234 0.501,-0.524 0.657,-0.869c0.154,-0.344 0.23,-0.736 0.23,-1.18c0,-0.286 -0.033,-0.555 -0.099,-0.807c-0.068,-0.251 -0.179,-0.478 -0.334,-0.679c-0.155,-0.201 -0.356,-0.371 -0.604,-0.508c-0.248,-0.139 -0.547,-0.243 -0.898,-0.311c0.351,-0.218 0.613,-0.483 0.785,-0.798c0.172,-0.315 0.258,-0.71 0.258,-1.188c0,-0.788 -0.225,-1.391 -0.678,-1.81c-0.453,-0.42 -1.118,-0.629 -1.99,-0.629l-3.672,0l0,0Zm8.705,0l0,9.484l2.465,0l0,-9.484l-2.465,0Zm4.453,0l0,9.484l5.422,0l0,-2.088l-2.955,0l0,-7.396l-2.467,0Zm6.693,0l0,9.484l5.397,0l0,-2.088l-2.932,0l0,-1.637l2.768,0l0,-2.087l-2.768,0l0,-1.586l2.932,0l0,-2.086l-5.397,0l0,0Zm-17.385,1.884l0.452,0c0.771,0 1.158,0.308 1.158,0.92c0,0.612 -0.387,0.918 -1.158,0.918l-0.452,0l0,-1.838l0,0Zm-8.505,0.92l1.107,3.157l-2.213,0l1.106,-3.157Zm8.505,2.754l0.539,0c0.621,0 1.065,0.081 1.334,0.24c0.268,0.159 0.403,0.415 0.403,0.768c0,0.352 -0.135,0.606 -0.403,0.766c-0.269,0.16 -0.713,0.24 -1.334,0.24l-0.539,0l0,-2.014l0,0Z" style="fill:#FDDEA2;fill-rule:nonzero;"/>
    </g>
    <g>
      <g>
        <path d="M32.405,288.59c-0.172,-0.14 -0.34,-0.24 -0.512,-0.308c-0.172,-0.068 -0.336,-0.1 -0.496,-0.1c-0.205,0 -0.369,0.048 -0.497,0.144c-0.128,0.096 -0.192,0.22 -0.192,0.376c0,0.108 0.032,0.196 0.096,0.264c0.064,0.068 0.148,0.128 0.252,0.18c0.104,0.052 0.221,0.096 0.353,0.132c0.132,0.036 0.26,0.076 0.388,0.12c0.512,0.172 0.888,0.4 1.124,0.685c0.236,0.284 0.356,0.656 0.356,1.116c0,0.308 -0.052,0.588 -0.156,0.84c-0.104,0.253 -0.256,0.465 -0.456,0.645c-0.2,0.18 -0.444,0.316 -0.736,0.416c-0.292,0.1 -0.62,0.148 -0.989,0.148c-0.764,0 -1.468,-0.228 -2.12,-0.68l0.672,-1.265c0.236,0.208 0.468,0.364 0.696,0.464c0.228,0.1 0.456,0.152 0.68,0.152c0.256,0 0.449,-0.06 0.573,-0.176c0.124,-0.116 0.188,-0.252 0.188,-0.4c0,-0.092 -0.016,-0.168 -0.048,-0.236c-0.032,-0.068 -0.084,-0.128 -0.16,-0.184c-0.076,-0.056 -0.172,-0.108 -0.293,-0.156c-0.12,-0.048 -0.264,-0.1 -0.436,-0.16c-0.204,-0.064 -0.4,-0.136 -0.596,-0.212c-0.196,-0.076 -0.368,-0.18 -0.52,-0.308c-0.152,-0.128 -0.276,-0.288 -0.368,-0.485c-0.092,-0.196 -0.14,-0.44 -0.14,-0.74c0,-0.3 0.048,-0.568 0.148,-0.812c0.1,-0.244 0.236,-0.452 0.416,-0.624c0.18,-0.172 0.396,-0.309 0.656,-0.405c0.26,-0.096 0.548,-0.144 0.868,-0.144c0.301,0 0.613,0.04 0.937,0.124c0.324,0.084 0.636,0.204 0.936,0.365l-0.624,1.224Z" style="fill:#FDDEA2;fill-rule:nonzero;"/>
        <path d="M37.695,288.37l-1.865,0l0,1.008l1.761,0l0,1.329l-1.761,0l0,1.04l1.865,0l0,1.329l-3.433,0l0,-6.035l3.433,0l0,1.329Z" style="fill:#FDDEA2;fill-rule:nonzero;"/>
        <path d="M38.551,293.08l1.024,-6.034l1.553,0l1.209,3.217l1.2,-3.217l1.553,0l1.024,6.034l-1.561,0l-0.52,-3.473l-1.424,3.473l-0.625,0l-1.352,-3.473l-0.521,3.473l-1.56,0Z" style="fill:#FDDEA2;fill-rule:nonzero;"/>
        <path d="M48.675,291.86l0.344,0c0.396,0 0.676,-0.052 0.848,-0.152c0.173,-0.1 0.257,-0.264 0.257,-0.488c0,-0.224 -0.084,-0.388 -0.257,-0.488c-0.172,-0.101 -0.452,-0.153 -0.848,-0.153l-0.344,0l0,1.281Zm0,-2.449l0.288,0c0.492,0 0.736,-0.196 0.736,-0.584c0,-0.388 -0.244,-0.584 -0.736,-0.584l-0.288,0l0,1.168Zm-1.569,-2.369l2.337,0c0.557,0 0.977,0.132 1.265,0.4c0.288,0.268 0.432,0.652 0.432,1.153c0,0.304 -0.056,0.556 -0.164,0.756c-0.108,0.2 -0.276,0.368 -0.5,0.508c0.224,0.044 0.416,0.108 0.572,0.196c0.156,0.088 0.284,0.196 0.384,0.324c0.1,0.128 0.168,0.273 0.212,0.433c0.044,0.16 0.064,0.332 0.064,0.512c0,0.284 -0.048,0.532 -0.148,0.752c-0.1,0.22 -0.236,0.404 -0.416,0.552c-0.18,0.148 -0.396,0.26 -0.652,0.336c-0.256,0.076 -0.544,0.113 -0.865,0.113l-2.521,0l0,-6.035Z" style="fill:#FDDEA2;fill-rule:nonzero;"/>
        <path d="M54.214,287.04l0,4.706l1.881,0l0,1.329l-3.45,0l0,-6.035l1.569,0Z" style="fill:#FDDEA2;fill-rule:nonzero;"/>
        <path d="M60.432,290.84l-0.704,-2.009l-0.705,2.009l1.409,0Zm0.416,1.192l-2.241,0l-0.36,1.049l-1.673,0l2.297,-6.035l1.713,0l2.297,6.035l-1.673,0l-0.36,-1.049Z" style="fill:#FDDEA2;fill-rule:nonzero;"/>
        <path d="M63.569,293.08l0,-6.034l1.569,0l2.897,3.689l0,-3.69l1.56,0l0,6.035l-1.56,0l-2.897,-3.69l0,3.69l-1.569,0Z" style="fill:#FDDEA2;fill-rule:nonzero;"/>
        <path d="M75.286,289.06c-0.364,-0.444 -0.812,-0.664 -1.345,-0.664c-0.236,0 -0.452,0.044 -0.652,0.128c-0.2,0.084 -0.372,0.2 -0.516,0.348c-0.144,0.148 -0.256,0.32 -0.34,0.524c-0.084,0.204 -0.124,0.42 -0.124,0.656c0,0.241 0.04,0.461 0.124,0.665c0.084,0.204 0.196,0.38 0.344,0.528c0.148,0.148 0.32,0.268 0.516,0.352c0.196,0.084 0.412,0.128 0.64,0.128c0.501,0 0.953,-0.212 1.353,-0.64l0,1.857l-0.16,0.056c-0.24,0.084 -0.464,0.148 -0.672,0.188c-0.208,0.04 -0.413,0.06 -0.617,0.06c-0.416,0 -0.816,-0.08 -1.196,-0.236c-0.38,-0.156 -0.716,-0.381 -1.009,-0.665c-0.292,-0.284 -0.524,-0.624 -0.7,-1.016c-0.176,-0.392 -0.264,-0.82 -0.264,-1.285c0,-0.464 0.088,-0.888 0.26,-1.276c0.172,-0.388 0.404,-0.72 0.696,-1c0.293,-0.281 0.629,-0.501 1.013,-0.657c0.384,-0.156 0.788,-0.236 1.208,-0.236c0.24,0 0.477,0.024 0.709,0.076c0.232,0.052 0.476,0.128 0.732,0.236l0,1.873Z" style="fill:#FDDEA2;fill-rule:nonzero;"/>
        <path d="M79.712,288.37l-1.865,0l0,1.008l1.761,0l0,1.329l-1.761,0l0,1.04l1.865,0l0,1.329l-3.433,0l0,-6.035l3.433,0l0,1.329Z" style="fill:#FDDEA2;fill-rule:nonzero;"/>
      </g>
      <path d="M41.092,226.04l0,6.033l2.32,0c0.416,0 0.804,-0.084 1.164,-0.248c0.361,-0.164 0.678,-0.388 0.946,-0.664c0.268,-0.276 0.479,-0.601 0.631,-0.965c0.152,-0.364 0.228,-0.744 0.228,-1.14c0,-0.401 -0.076,-0.785 -0.232,-1.149c-0.156,-0.364 -0.367,-0.683 -0.635,-0.959c-0.268,-0.276 -0.585,-0.496 -0.945,-0.66c-0.361,-0.164 -0.744,-0.248 -1.157,-0.248l-2.32,0l0,0Zm6.289,0l0,6.033l1.57,0l0,-2.32l1.496,2.32l1.954,0l-1.897,-2.472c0.432,-0.1 0.76,-0.296 0.981,-0.58c0.22,-0.285 0.332,-0.657 0.332,-1.118c0,-0.256 -0.041,-0.494 -0.125,-0.718c-0.084,-0.225 -0.204,-0.422 -0.368,-0.594c-0.164,-0.172 -0.369,-0.304 -0.621,-0.404c-0.252,-0.101 -0.544,-0.147 -0.881,-0.147l-2.441,0l0,0Zm5.676,0l0,6.033l1.568,0l0,-6.033l-1.568,0Zm2.201,0l2.537,6.033l1.248,0l2.545,-6.033l-1.705,0l-1.465,3.672l-1.457,-3.672l-1.703,0Zm6.963,0l0,6.033l3.434,0l0,-1.328l-1.866,0l0,-1.041l1.76,0l0,-1.328l-1.76,0l0,-1.008l1.866,0l0,-1.328l-3.434,0l0,0Zm-13.27,1.207l0.295,0c0.308,0 0.549,0.065 0.713,0.193c0.164,0.128 0.248,0.311 0.248,0.551c0,0.24 -0.084,0.425 -0.248,0.553c-0.164,0.128 -0.405,0.193 -0.713,0.193l-0.295,0l0,-1.49l0,0Zm-6.291,0.121l0.359,0c0.268,0 0.509,0.043 0.721,0.127c0.212,0.084 0.393,0.206 0.541,0.354c0.148,0.148 0.26,0.327 0.34,0.535c0.08,0.208 0.119,0.431 0.119,0.672c0,0.244 -0.039,0.473 -0.115,0.677c-0.076,0.204 -0.188,0.384 -0.336,0.532c-0.148,0.148 -0.329,0.269 -0.541,0.353c-0.212,0.084 -0.457,0.127 -0.729,0.127l-0.359,0l0,-3.377l0,0Z" style="fill:#FDDEA2;fill-rule:nonzero;"/>
      <path d="M40.996,102.88c-0.42,0 -0.825,0.078 -1.209,0.234c-0.384,0.156 -0.72,0.377 -1.012,0.657c-0.292,0.28 -0.523,0.613 -0.695,1.002c-0.172,0.388 -0.262,0.811 -0.262,1.275c0,0.464 0.09,0.893 0.266,1.285c0.176,0.392 0.407,0.732 0.699,1.016c0.292,0.284 0.628,0.508 1.008,0.664c0.38,0.156 0.781,0.236 1.197,0.236c0.204,0 0.409,-0.018 0.617,-0.058c0.208,-0.04 0.432,-0.106 0.672,-0.19l0.16,-0.055l0,-1.857c-0.4,0.428 -0.853,0.641 -1.353,0.641c-0.228,0 -0.445,-0.045 -0.641,-0.129c-0.196,-0.084 -0.367,-0.204 -0.515,-0.352c-0.148,-0.148 -0.26,-0.325 -0.344,-0.529c-0.084,-0.204 -0.125,-0.424 -0.125,-0.664c0,-0.236 0.041,-0.452 0.125,-0.656c0.084,-0.204 0.196,-0.376 0.34,-0.524c0.144,-0.148 0.315,-0.263 0.515,-0.347c0.2,-0.085 0.417,-0.129 0.653,-0.129c0.532,0 0.981,0.22 1.345,0.664l0,-1.873c-0.256,-0.108 -0.5,-0.185 -0.732,-0.237c-0.232,-0.052 -0.469,-0.074 -0.709,-0.074l0,0Zm16.238,0c-0.492,0 -0.939,0.08 -1.348,0.244c-0.408,0.164 -0.76,0.388 -1.052,0.676c-0.292,0.288 -0.524,0.623 -0.688,1.012c-0.164,0.388 -0.248,0.803 -0.248,1.252c0,0.448 0.084,0.865 0.248,1.254c0.164,0.388 0.395,0.723 0.688,1.011c0.292,0.288 0.644,0.512 1.052,0.676c0.408,0.164 0.856,0.244 1.348,0.244c0.484,0 0.934,-0.08 1.346,-0.244c0.412,-0.164 0.764,-0.388 1.06,-0.676c0.296,-0.288 0.528,-0.623 0.692,-1.011c0.164,-0.389 0.248,-0.806 0.248,-1.254c0,-0.449 -0.084,-0.864 -0.248,-1.252c-0.164,-0.389 -0.396,-0.724 -0.692,-1.012c-0.296,-0.288 -0.648,-0.512 -1.06,-0.676c-0.412,-0.164 -0.862,-0.244 -1.346,-0.244Zm-13.805,0.168l0,3.496c0,0.94 0.216,1.625 0.648,2.057c0.433,0.432 1.092,0.648 1.985,0.648c0.892,0 1.552,-0.216 1.98,-0.648c0.429,-0.433 0.645,-1.117 0.645,-2.057l0,-3.496l-1.561,0l0,3.281c0,0.176 -0.007,0.355 -0.019,0.539c-0.012,0.184 -0.057,0.352 -0.125,0.5c-0.068,0.148 -0.177,0.273 -0.317,0.365c-0.14,0.093 -0.343,0.141 -0.603,0.141c-0.26,0 -0.463,-0.049 -0.608,-0.141c-0.144,-0.092 -0.248,-0.217 -0.316,-0.365c-0.068,-0.148 -0.109,-0.316 -0.121,-0.5c-0.012,-0.184 -0.02,-0.363 -0.02,-0.539l0,-3.281l-1.568,0l0,0Zm5.955,0l0,1.328l1.287,0l0,4.705l1.569,0l0,-4.705l1.289,0l0,-1.328l-4.145,0l0,0Zm12.188,0l0,6.033l1.569,0l0,-2.369l1.72,0l0,-1.328l-1.72,0l0,-1.008l1.89,0l0,-1.328l-3.459,0l0,0Zm4.395,0l0,6.033l1.568,0l0,-2.369l1.721,0l0,-1.328l-1.721,0l0,-1.008l1.889,0l0,-1.328l-3.457,0l0,0Zm-8.733,1.352c0.228,0 0.448,0.041 0.653,0.125c0.204,0.084 0.388,0.199 0.544,0.347c0.157,0.148 0.281,0.323 0.374,0.528c0.092,0.204 0.134,0.424 0.134,0.664c0,0.24 -0.042,0.462 -0.134,0.666c-0.093,0.204 -0.217,0.379 -0.374,0.527c-0.156,0.148 -0.34,0.264 -0.544,0.348c-0.205,0.084 -0.425,0.125 -0.653,0.125c-0.228,0 -0.448,-0.041 -0.652,-0.125c-0.204,-0.084 -0.383,-0.2 -0.539,-0.348c-0.156,-0.148 -0.277,-0.323 -0.369,-0.527c-0.092,-0.204 -0.135,-0.426 -0.135,-0.666c0,-0.24 0.043,-0.46 0.135,-0.664c0.092,-0.205 0.213,-0.38 0.369,-0.528c0.156,-0.148 0.335,-0.263 0.539,-0.347c0.204,-0.084 0.424,-0.125 0.652,-0.125Z" style="fill:#FDDEA2;fill-rule:nonzero;"/>
    </g>
    <path d="M117.06,50.133c-0.332,0.006 -0.596,0.279 -0.59,0.611l0.002,1.409c-2.52,0.129 -5.006,1.042 -7.047,2.755c-4.419,3.708 -5.55,10.112 -2.668,15.105l0.301,0.52l10.035,-5.793l10.035,5.793l0.301,-0.52c2.882,-4.993 1.752,-11.398 -2.668,-15.105c-2.052,-1.722 -4.555,-2.636 -7.09,-2.757l-0.002,-1.411c0.004,-0.338 -0.271,-0.612 -0.609,-0.607l0,0Zm-0.586,3.219l0.02,10.35l-8.903,5.14c-2.209,-4.402 -1.209,-9.813 2.606,-13.014c1.819,-1.527 4.031,-2.348 6.277,-2.476Zm1.199,0c2.26,0.121 4.488,0.94 6.317,2.476l0.002,0c3.815,3.201 4.813,8.612 2.603,13.014l-8.902,-5.14l-0.02,-10.35Zm8.852,16.951c-0.331,0.007 -0.926,0.28 -0.919,0.611l0.01,1.582l-1.606,0.008c-0.831,-0.028 -0.825,1.235 0.006,1.199l1.606,-0.008l0.01,1.629c-0.027,0.831 1.236,0.823 1.199,-0.008l-0.008,-1.625l1.603,-0.008c0.801,-0.004 0.795,-1.205 -0.006,-1.201l-1.605,0.008l-0.008,-1.584c0.002,-0.338 -0.276,-0.611 -0.614,-0.603l0.332,0Zm-16.092,2.056l-4.414,0.02c-0.801,0.004 -0.795,1.205 0.006,1.201l4.414,-0.021c0.831,0.027 0.824,-1.236 -0.006,-1.2Z" style="fill:#FDDEA2;fill-rule:nonzero;"/>
    <g>
      <path d="M84.705,324.69l0,6.035l1.568,0l0,-2.49l2.266,0l0,2.49l1.568,0l0,-6.035l-1.568,0l0,2.33l-2.266,0l0,-2.33l-1.568,0Zm6.666,0l0,6.035l1.568,0l0,-2.002l0.93,0c0.676,0 1.197,-0.175 1.557,-0.527c0.36,-0.352 0.539,-0.848 0.539,-1.488c0,-0.641 -0.179,-1.137 -0.539,-1.489c-0.36,-0.352 -0.881,-0.529 -1.557,-0.529l-2.498,0Zm1.568,1.266l0.522,0c0.576,0 0.863,0.251 0.863,0.752c0,0.5 -0.287,0.752 -0.863,0.752l-0.522,0l0,-1.504Z" style="fill:#FDDEA2;fill-rule:nonzero;"/>
      <path d="M52.324,324.69l0,6.035l2.522,0c0.32,0 0.607,-0.037 0.863,-0.113c0.256,-0.076 0.472,-0.188 0.652,-0.336c0.18,-0.148 0.316,-0.331 0.416,-0.551c0.1,-0.22 0.149,-0.47 0.149,-0.754c0,-0.18 -0.021,-0.351 -0.065,-0.511c-0.044,-0.16 -0.111,-0.304 -0.211,-0.432c-0.1,-0.128 -0.229,-0.236 -0.385,-0.324c-0.156,-0.088 -0.348,-0.152 -0.572,-0.196c0.224,-0.14 0.392,-0.309 0.5,-0.509c0.108,-0.2 0.164,-0.452 0.164,-0.756c0,-0.5 -0.143,-0.884 -0.431,-1.153c-0.289,-0.268 -0.708,-0.4 -1.264,-0.4l-2.338,0Zm5.539,0l0,6.035l1.568,0l0,-2.002l0.928,0c0.677,0 1.197,-0.175 1.557,-0.527c0.36,-0.352 0.541,-0.848 0.541,-1.488c0,-0.641 -0.181,-1.137 -0.541,-1.489c-0.36,-0.352 -0.881,-0.529 -1.557,-0.529l-2.496,0Zm-3.971,1.201l0.289,0c0.493,0 0.737,0.196 0.737,0.584c0,0.388 -0.244,0.584 -0.737,0.584l-0.289,0l0,-1.168Zm5.539,0.065l0.52,0c0.576,0 0.865,0.251 0.865,0.752c0,0.5 -0.289,0.752 -0.865,0.752l-0.52,0l0,-1.504Zm-5.539,2.271l0.344,0c0.396,0 0.678,0.053 0.85,0.153c0.172,0.1 0.256,0.264 0.256,0.488c0,0.224 -0.084,0.388 -0.256,0.488c-0.172,0.1 -0.454,0.152 -0.85,0.152l-0.344,0l0,-1.281Z" style="fill:#FDDEA2;fill-rule:nonzero;"/>
      <path d="M116.97,324.52c-0.32,0 -0.607,0.048 -0.867,0.145c-0.26,0.096 -0.476,0.232 -0.656,0.404c-0.181,0.172 -0.318,0.379 -0.418,0.623c-0.1,0.244 -0.147,0.512 -0.147,0.812c0,0.3 0.047,0.545 0.139,0.741c0.092,0.196 0.217,0.356 0.369,0.484c0.152,0.128 0.323,0.233 0.519,0.309c0.197,0.076 0.394,0.148 0.598,0.212c0.172,0.06 0.316,0.113 0.436,0.161c0.12,0.048 0.215,0.098 0.291,0.154c0.076,0.056 0.128,0.117 0.16,0.185c0.032,0.068 0.049,0.145 0.049,0.237c0,0.148 -0.064,0.284 -0.188,0.4c-0.124,0.116 -0.316,0.176 -0.572,0.176c-0.224,0 -0.454,-0.052 -0.682,-0.152c-0.228,-0.1 -0.459,-0.257 -0.695,-0.465l-0.672,1.265c0.652,0.453 1.357,0.68 2.121,0.68c0.368,0 0.696,-0.048 0.988,-0.148c0.293,-0.1 0.537,-0.236 0.737,-0.416c0.2,-0.18 0.351,-0.393 0.455,-0.645c0.104,-0.252 0.156,-0.532 0.156,-0.84c0,-0.46 -0.119,-0.833 -0.355,-1.117c-0.237,-0.284 -0.613,-0.511 -1.125,-0.684c-0.128,-0.044 -0.257,-0.085 -0.389,-0.121c-0.132,-0.036 -0.248,-0.079 -0.352,-0.13c-0.104,-0.052 -0.188,-0.112 -0.252,-0.18c-0.064,-0.068 -0.095,-0.158 -0.095,-0.266c0,-0.156 0.063,-0.279 0.191,-0.375c0.128,-0.096 0.292,-0.144 0.496,-0.144c0.16,0 0.324,0.031 0.496,0.099c0.172,0.068 0.34,0.169 0.512,0.309l0.625,-1.225c-0.3,-0.16 -0.611,-0.279 -0.936,-0.363c-0.324,-0.084 -0.637,-0.125 -0.937,-0.125l0,0Zm3.106,0.168l0,6.035l3.433,0l0,-1.328l-1.865,0l0,-1.041l1.762,0l0,-1.328l-1.762,0l0,-1.01l1.865,0l0,-1.328l-3.433,0Zm5.314,0l-1.025,6.035l1.562,0l0.52,-3.474l1.351,3.474l0.625,0l1.424,-3.474l0.521,3.474l1.561,0l-1.025,-6.035l-1.553,0l-1.199,3.217l-1.209,-3.217l-1.553,0Z" style="fill:#FDDEA2;fill-rule:nonzero;"/>
      <path d="M20.02,324.69l0,6.035l3.449,0l0,-1.328l-1.881,0l0,-4.707l-1.568,0Zm4.258,0l0,6.035l1.568,0l0,-2.002l0.93,0c0.676,0 1.196,-0.175 1.556,-0.527c0.361,-0.352 0.54,-0.848 0.54,-1.488c0,-0.641 -0.179,-1.137 -0.54,-1.489c-0.36,-0.352 -0.88,-0.529 -1.556,-0.529l-2.498,0Zm1.568,1.266l0.522,0c0.576,0 0.863,0.251 0.863,0.752c0,0.5 -0.287,0.752 -0.863,0.752l-0.522,0l0,-1.504Z" style="fill:#FDDEA2;fill-rule:nonzero;"/>
    </g>
    <path d="M117.06,111.16c-0.332,0.006 -0.596,0.28 -0.59,0.611l0.002,1.409c-2.52,0.129 -5.006,1.042 -7.047,2.755c-4.419,3.708 -5.55,10.112 -2.668,15.105l0.301,0.52l10.035,-5.793l10.035,5.793l0.301,-0.52c2.882,-4.993 1.752,-11.398 -2.668,-15.105c-2.052,-1.722 -4.555,-2.636 -7.09,-2.757l-0.002,-1.411c0.004,-0.338 -0.271,-0.612 -0.609,-0.607l0,0Zm-0.586,3.219l0.02,10.35l-8.903,5.14c-2.209,-4.402 -1.209,-9.813 2.606,-13.014c1.819,-1.527 4.031,-2.348 6.277,-2.476Zm1.199,0c2.26,0.121 4.488,0.94 6.317,2.476l0.002,0c3.815,3.201 4.813,8.612 2.603,13.014l-8.902,-5.14l-0.02,-10.35Zm8.852,16.951c-0.331,0.007 -0.926,0.28 -0.919,0.611l0.01,1.582l-1.606,0.008c-0.831,-0.028 -0.825,1.235 0.006,1.199l1.606,-0.008l0.01,1.629c-0.027,0.831 1.236,0.823 1.199,-0.008l-0.008,-1.625l1.603,-0.008c0.801,-0.004 0.795,-1.205 -0.006,-1.201l-1.605,0.008l-0.008,-1.584c0.002,-0.338 -0.276,-0.611 -0.614,-0.603l0.332,0Zm-16.092,2.056l-4.414,0.02c-0.801,0.004 -0.795,1.205 0.006,1.201l4.414,-0.021c0.831,0.027 0.824,-1.236 -0.006,-1.2Z" style="fill:#FDDEA2;fill-rule:nonzero;"/>
    <path d="M117.06,174.261c-0.332,0.006 -0.596,0.279 -0.59,0.611l0.002,1.408c-2.52,0.13 -5.006,1.043 -7.047,2.756c-4.419,3.708 -5.55,10.112 -2.668,15.105l0.301,0.52l10.035,-5.793l10.035,5.793l0.301,-0.52c2.882,-4.993 1.752,-11.398 -2.668,-15.105c-2.052,-1.722 -4.555,-2.636 -7.09,-2.757l-0.002,-1.411c0.004,-0.338 -0.271,-0.612 -0.609,-0.607l0,0Zm-0.586,3.219l0.02,10.35l-8.903,5.14c-2.209,-4.402 -1.209,-9.813 2.606,-13.014c1.819,-1.527 4.031,-2.348 6.277,-2.476Zm1.199,0c2.26,0.121 4.488,0.94 6.317,2.476l0.002,0c3.815,3.201 4.813,8.612 2.603,13.014l-8.902,-5.14l-0.02,-10.35Zm8.852,16.951c-0.331,0.007 -0.926,0.28 -0.919,0.611l0.01,1.582l-1.606,0.008c-0.831,-0.028 -0.825,1.235 0.006,1.199l1.606,-0.008l0.01,1.629c-0.027,0.831 1.236,0.823 1.199,-0.008l-0.008,-1.625l1.603,-0.008c0.801,-0.004 0.795,-1.205 -0.006,-1.201l-1.605,0.008l-0.008,-1.584c0.002,-0.338 -0.276,-0.611 -0.614,-0.604l0.332,0.001Zm-16.092,2.056l-4.414,0.02c-0.801,0.004 -0.795,1.205 0.006,1.201l4.414,-0.021c0.831,0.027 0.824,-1.236 -0.006,-1.2Z" style="fill:#FDDEA2;fill-rule:nonzero;"/>
    <path d="M117.023,234.964c-0.332,0.006 -0.596,0.28 -0.59,0.612l0.002,1.408c-2.521,0.13 -5.006,1.042 -7.047,2.756c-4.419,3.707 -5.55,10.112 -2.668,15.105l0.301,0.519l10.035,-5.793l10.035,5.793l0.301,-0.519c2.882,-4.993 1.752,-11.398 -2.668,-15.105c-2.052,-1.723 -4.555,-2.636 -7.09,-2.758l-0.002,-1.41c0.004,-0.338 -0.272,-0.613 -0.61,-0.608l0.001,0Zm-0.586,3.219l0.019,10.35l-8.902,5.141c-2.21,-4.402 -1.209,-9.814 2.605,-13.014c1.819,-1.528 4.032,-2.348 6.278,-2.477Zm1.199,0c2.259,0.121 4.487,0.941 6.316,2.477l0.002,0c3.816,3.2 4.813,8.611 2.604,13.014l-8.903,-5.141l-0.019,-10.35Zm8.852,16.951c-0.331,0.007 -0.926,0.281 -0.92,0.612l0.01,1.582l-1.605,0.008c-0.831,-0.028 -0.825,1.235 0.006,1.199l1.605,-0.008l0.01,1.629c-0.026,0.83 1.237,0.822 1.199,-0.008l-0.008,-1.625l1.604,-0.008c0.801,-0.004 0.795,-1.206 -0.006,-1.202l-1.606,0.008l-0.008,-1.584c0.002,-0.338 -0.275,-0.61 -0.613,-0.603l0.332,0Zm-16.092,2.057l-4.415,0.019c-0.8,0.004 -0.794,1.206 0.006,1.202l4.415,-0.022c0.831,0.028 0.824,-1.235 -0.006,-1.199Z" style="fill:#FDDEA2;fill-rule:nonzero;"/>
    <path d="M113.988,336.83c-5.507,0 -9.988,4.481 -9.988,9.988l0,13.145c0,0.801 1.201,0.801 1.201,0l0,-13.145c0,-4.857 3.93,-8.789 8.787,-8.789l5.862,0c4.857,0 8.789,3.932 8.789,8.789l0,13.145c0,0.843 1.231,0.831 1.199,0l0,-13.145c0,-5.506 -4.481,-9.988 -9.988,-9.988l-5.862,0Z" style="fill:#FDDEA2;"/>
  </g>
</svg>