<svg width="150px" height="380px" version="1.1" xmlns="http://www.w3.org/2000/svg" xmlns:xlink="http://www.w3.org/1999/xlink" xml:space="preserve" xmlns:serif="http://www.serif.com/" style="fill-rule:evenodd;clip-rule:evenodd;stroke-linecap:round;stroke-miterlimit:10;">
  <defs>
    <linearGradient id="_Linear1" x1="0" y1="0" x2="1" y2="0" gradientUnits="userSpaceOnUse" gradientTransform="matrix(0.007008,-37.8989,37.8989,0.007008,75.2834,112.195)">
      <stop offset="0" style="stop-color:#401B5C;stop-opacity:1"/>
      <stop offset="1" style="stop-color:#401B5C;stop-opacity:1"/>
    </linearGradient>
    <linearGradient id="_Linear2" x1="0" y1="0" x2="1" y2="0" gradientUnits="userSpaceOnUse" gradientTransform="matrix(-4.88,-92.58,92.58,-4.88,277.54,345.91)">
      <stop offset="0" style="stop-color:#401B5C;stop-opacity:1"/>
      <stop offset="1" style="stop-color:#401B5C;stop-opacity:1"/>
    </linearGradient>
    <linearGradient id="_Linear3" x1="0" y1="0" x2="1" y2="0" gradientUnits="userSpaceOnUse" gradientTransform="matrix(-4.75,94.86,-94.86,-4.75,277.54,158.47)">
      <stop offset="0" style="stop-color:#401B5C;stop-opacity:1"/>
      <stop offset="1" style="stop-color:#401B5C;stop-opacity:1"/>
    </linearGradient>
    <linearGradient id="_Linear4" x1="0" y1="0" x2="1" y2="0" gradientUnits="userSpaceOnUse" gradientTransform="matrix(1.15392e-16,-1.8845,1.8845,1.15392e-16,56.519,1.9362)">
      <stop offset="0" style="stop-color:#401B5C;stop-opacity:1"/>
      <stop offset="1" style="stop-color:#401B5C;stop-opacity:1"/>
    </linearGradient>
  </defs>
  <g id="Panel">
    <g>
      <rect x="0" y="0" width="150" height="380" style="fill:url(#_Linear1);"/>
      <rect x="0" y="253.33" width="150" height="126.67" style="fill:url(#_Linear2);"/>
      <rect x="0" y="126.67" width="150" height="126.67" style="fill:url(#_Linear3);"/>
      <rect x="0" y="0" width="150" height="380" style="fill:rgb(16,53,80);fill-opacity:0.1;"/>
      <rect x="0" y="0" width="150" height="2" style="fill:url(#_Linear4);"/>
    </g>
    <g>
      <path d="M62.9,363.497l3.443,10.383c0.322,0.968 0.909,1.451 1.756,1.451c0.835,0 1.414,-0.476 1.737,-1.435l3.46,-10.398l-2.66,0l-2.574,8.318l-2.49,-8.318l-2.672,-0.001Zm10.598,0l0,8.793c0,0.736 0.078,1.265 0.234,1.588c0.423,0.881 1.214,1.32 2.373,1.32l3.243,0c1.126,0 1.912,-0.429 2.357,-1.287c0.168,-0.324 0.25,-0.87 0.25,-1.639l0,-8.775l-2.506,0l0,8.658l-0.018,0.084c-0.056,0.29 -0.34,0.436 -0.853,0.436l-1.705,0c-0.535,0 -0.826,-0.157 -0.87,-0.469l0,-8.709l-2.505,0Zm9.611,0l0,8.842c0,0.914 0.19,1.598 0.569,2.049c0.378,0.452 1.019,0.717 1.922,0.795c0.123,0.011 0.268,0.015 0.435,0.015l4.664,0l0.016,-2.523l-4.463,0c-0.424,0 -0.634,-0.178 -0.634,-0.535l0,-8.643l-2.509,0Zm7.69,0l0,2.525l2.49,0l0,9.176l2.508,0l0,-9.176l2.523,0l0,-2.525l-7.521,0Z" style="fill:rgb(102,102,102);fill-rule:nonzero;"/>
      <path d="M59.3,369.417c0,-4.509 -3.655,-8.165 -8.164,-8.165c-4.509,0 -8.165,3.656 -8.165,8.165c0,4.509 3.656,8.165 8.165,8.165c4.509,0 8.164,-3.656 8.164,-8.165Z" style="fill:rgb(117,117,117);fill-rule:nonzero;stroke:rgb(53,53,53);stroke-width:0.61px;"/>
      <g>
        <path d="M49.32,374.39l0.553,-0.89l-1.064,-2.393l-2.216,-2.284l0.46,3.101l0.597,1.28l0.833,1.263l0.837,-0.077Z" style="fill:rgb(43,43,43);fill-rule:nonzero;"/>
        <path d="M53.05,374.4l-0.553,-0.891l1.064,-2.393l2.216,-2.284l-0.46,3.101l-0.597,1.28l-0.833,1.264l-0.837,-0.077Z" style="fill:#401B5C;fill-rule:nonzero;"/>
        <path d="M48.64,363.36l2.584,-0.661l0,13.448l-1.349,-2.651l-1.061,-2.385l-1.022,-0.581l-2.052,-2.921l-0.057,-0.775l1.148,-2.067l1.809,-1.407Z" style="fill:rgb(66,66,66);fill-rule:nonzero;"/>
        <path d="M53.8,363.36l-2.584,-0.66l0,13.448l1.35,-2.651l1.06,-2.385l1.023,-0.581l2.051,-2.921l0.058,-0.775l-1.149,-2.068l-1.809,-1.407Z" style="fill:rgb(51,51,51);fill-rule:nonzero;"/>
        <path d="M49.5,369.24l1.723,-1.685l0,1.23l-1.723,1.718l0,-1.263" style="fill:rgb(76,76,76);fill-rule:nonzero;"/>
        <path d="M51.22,368.78l-1.723,1.718l0.377,3.004l1.346,2.643l0,-7.365Z" style="fill:rgb(91,91,91);fill-rule:nonzero;"/>
        <path d="M51.22,376.15l-1.346,-2.643l1.346,-0.635l0,3.278Z" style="fill:rgb(51,51,51);fill-rule:nonzero;"/>
        <path d="M49.5,370.5l0,-1.264l-1.249,-1.579l-1.477,-1.19l-0.001,0.932l0.775,1.823l1.952,1.278Z" style="fill:#FDDEA2;fill-rule:nonzero;"/>
        <path d="M52.94,369.24l-1.722,-1.684l0,1.23l1.722,1.718l0,-1.264" style="fill:rgb(45,45,45);fill-rule:nonzero;"/>
        <path d="M51.22,368.78l1.722,1.718l-0.376,3.004l-1.347,2.643l0.001,-7.365Z" style="fill:rgb(53,53,53);fill-rule:nonzero;"/>
        <path d="M51.22,376.15l1.347,-2.643l-1.346,-0.635l-0.001,3.278Z" style="fill:#401B5C;fill-rule:nonzero;"/>
        <path d="M52.94,370.5l0,-1.264l1.249,-1.579l1.478,-1.19l0.001,0.932l-0.775,1.823l-1.953,1.278Z" style="fill:#FDDEA2;fill-rule:nonzero;"/>
        <path d="M48.65,363.34l2.566,4.216l-0.005,-4.87" style="fill:rgb(56,56,56);fill-rule:nonzero;"/>
        <path d="M53.78,363.34l-2.566,4.215l0.006,-4.87" style="fill:rgb(45,45,45);fill-rule:nonzero;"/>
        <path d="M48.81,371.11l0.688,-0.61l0.375,3.006l-1.063,-2.396Z" style="fill:rgb(51,51,51);fill-rule:nonzero;"/>
        <path d="M53.63,371.13l-0.688,-0.61l-0.375,3.006l1.063,-2.396Z" style="fill:rgb(28,28,28);fill-rule:nonzero;"/>
      </g>
    </g>
    <path d="M90.338,270.32c-0.492,0 -0.939,0.08 -1.348,0.244c-0.408,0.164 -0.76,0.388 -1.052,0.676c-0.292,0.288 -0.524,0.625 -0.688,1.014c-0.164,0.388 -0.25,0.803 -0.25,1.252c0,0.448 0.086,0.863 0.25,1.252c0.164,0.388 0.395,0.725 0.688,1.013c0.292,0.288 0.644,0.512 1.052,0.676c0.408,0.164 0.856,0.244 1.348,0.244c0.484,0 0.934,-0.08 1.346,-0.244c0.412,-0.164 0.764,-0.388 1.06,-0.676c0.296,-0.288 0.528,-0.625 0.692,-1.013c0.164,-0.389 0.248,-0.804 0.248,-1.252c0,-0.449 -0.084,-0.864 -0.248,-1.252c-0.164,-0.389 -0.396,-0.726 -0.692,-1.014c-0.296,-0.288 -0.648,-0.512 -1.06,-0.676c-0.412,-0.164 -0.862,-0.244 -1.346,-0.244Zm4.338,0.168l0,3.498c0,0.94 0.216,1.624 0.648,2.057c0.433,0.432 1.092,0.648 1.985,0.648c0.892,0 1.554,-0.216 1.982,-0.648c0.428,-0.433 0.643,-1.117 0.643,-2.057l0,-3.498l-1.561,0l0,3.281c0,0.176 -0.007,0.357 -0.019,0.541c-0.012,0.184 -0.055,0.352 -0.123,0.5c-0.068,0.148 -0.177,0.271 -0.317,0.363c-0.14,0.093 -0.345,0.141 -0.605,0.141c-0.26,0 -0.464,-0.049 -0.608,-0.141c-0.144,-0.092 -0.248,-0.215 -0.316,-0.363c-0.068,-0.148 -0.107,-0.316 -0.119,-0.5c-0.012,-0.184 -0.022,-0.365 -0.022,-0.541l0,-3.281l-1.568,0Zm5.955,0l0,1.328l1.289,0l0,4.707l1.569,0l0,-4.707l1.287,0l0,-1.328l-4.145,0Zm4.842,0l0,6.035l1.568,0l0,-2.002l0.928,0c0.676,0 1.196,-0.175 1.557,-0.527c0.36,-0.352 0.541,-0.848 0.541,-1.488c0,-0.641 -0.181,-1.137 -0.541,-1.489c-0.361,-0.352 -0.881,-0.529 -1.557,-0.529l-2.496,0Zm5.426,0l0,3.498c0,0.94 0.216,1.624 0.648,2.057c0.432,0.432 1.092,0.648 1.984,0.648c0.893,0 1.555,-0.216 1.983,-0.648c0.428,-0.433 0.642,-1.117 0.642,-2.057l0,-3.498l-1.56,0l0,3.281c0,0.176 -0.008,0.357 -0.02,0.541c-0.012,0.184 -0.055,0.352 -0.123,0.5c-0.068,0.148 -0.176,0.271 -0.316,0.363c-0.14,0.093 -0.345,0.141 -0.606,0.141c-0.26,0 -0.463,-0.049 -0.607,-0.141c-0.144,-0.092 -0.248,-0.215 -0.316,-0.363c-0.068,-0.148 -0.108,-0.316 -0.12,-0.5c-0.012,-0.184 -0.021,-0.365 -0.021,-0.541l0,-3.281l-1.568,0Zm5.955,0l0,1.328l1.289,0l0,4.707l1.568,0l0,-4.707l1.289,0l0,-1.328l-4.146,0Zm-9.813,1.266l0.52,0c0.576,0 0.865,0.251 0.865,0.752c0,0.5 -0.289,0.751 -0.865,0.751l-0.52,0l0,-1.503Zm-16.703,0.087c0.228,0 0.448,0.039 0.653,0.124c0.204,0.084 0.388,0.199 0.544,0.347c0.157,0.148 0.28,0.325 0.372,0.529c0.092,0.205 0.136,0.424 0.136,0.665c0,0.24 -0.044,0.46 -0.136,0.664c-0.092,0.204 -0.215,0.381 -0.372,0.529c-0.156,0.148 -0.34,0.264 -0.544,0.348c-0.205,0.084 -0.425,0.123 -0.653,0.123c-0.228,0 -0.448,-0.039 -0.652,-0.123c-0.204,-0.084 -0.383,-0.2 -0.539,-0.348c-0.156,-0.148 -0.277,-0.325 -0.369,-0.529c-0.092,-0.204 -0.135,-0.424 -0.135,-0.664c0,-0.241 0.043,-0.46 0.135,-0.665c0.092,-0.204 0.213,-0.381 0.369,-0.529c0.156,-0.148 0.335,-0.263 0.539,-0.347c0.204,-0.084 0.424,-0.124 0.652,-0.124Z" style="fill:#FDDEA2;fill-rule:nonzero;"/>
    <path d="M86.555,31.092c-0.564,0 -0.999,0.174 -1.305,0.52c-0.306,0.346 -0.459,0.839 -0.459,1.482l0,0.353l-0.703,0l0,0.862l0.703,0l0,4.25l1.377,0l0,-4.25l1.84,0l0,4.25l1.379,0l0,-5.112l-3.219,0l0,-0.316c0,-0.776 0.213,-1.164 0.639,-1.164c0.186,0 0.472,0.084 0.857,0.256l0,-0.942c-0.391,-0.127 -0.761,-0.189 -1.109,-0.189l0,0Zm4.555,0.117l0,7.35l1.377,0l0,-7.35l-1.377,0Zm-24.572,0.227l0,1.15l1.377,0l0,-1.15l-1.377,0Zm21.699,0l0,1.15l1.15,0l0,-1.15l-1.15,0Zm7.416,0.992l-1.379,0.158l0,0.861l-0.572,0l0,0.862l0.572,0l0,2.691c0,1.117 0.598,1.676 1.793,1.676c0.189,0 0.448,-0.049 0.777,-0.145l0,-0.837c-0.165,0.043 -0.306,0.064 -0.424,0.064c-0.512,0 -0.767,-0.312 -0.767,-0.939l0,-2.51l1.094,0l0,-0.862l-1.094,0l0,-1.019l0,0Zm-47.486,0.902c-0.73,0 -1.272,0.36 -1.629,1.08l0,-0.963l-1.379,0l0,5.112l1.379,0l0,-3.244c0.344,-0.555 0.79,-0.834 1.34,-0.834c0.168,0 0.349,0.036 0.545,0.107l0,-1.228c-0.084,-0.018 -0.17,-0.03 -0.256,-0.03l0,0Zm9.58,0c-0.664,0 -1.18,0.135 -1.549,0.403c-0.37,0.269 -0.555,0.646 -0.555,1.131c0,0.347 0.109,0.639 0.326,0.875c0.219,0.236 0.578,0.454 1.084,0.66l0.467,0.187c0.465,0.187 0.698,0.403 0.698,0.651c0,0.385 -0.283,0.578 -0.848,0.578c-0.484,0 -1.067,-0.142 -1.75,-0.428l0,1.01c0.627,0.186 1.248,0.279 1.863,0.279c0.639,0 1.159,-0.151 1.557,-0.449c0.399,-0.3 0.597,-0.691 0.597,-1.172c0,-0.366 -0.116,-0.666 -0.351,-0.898c-0.234,-0.233 -0.651,-0.463 -1.25,-0.69l-0.401,-0.152c-0.422,-0.161 -0.632,-0.359 -0.632,-0.592c0,-0.354 0.285,-0.529 0.857,-0.529c0.363,0 0.82,0.094 1.373,0.287l0,-0.967c-0.574,-0.122 -1.07,-0.184 -1.486,-0.184l0,0Zm5.392,0c-0.663,0 -1.181,0.135 -1.55,0.403c-0.37,0.269 -0.555,0.646 -0.555,1.131c0,0.347 0.109,0.639 0.326,0.875c0.217,0.236 0.578,0.454 1.084,0.66l0.467,0.187c0.465,0.187 0.697,0.403 0.697,0.651c0,0.385 -0.281,0.578 -0.846,0.578c-0.483,0 -1.068,-0.142 -1.75,-0.428l0,1.01c0.627,0.186 1.246,0.279 1.86,0.279c0.639,0 1.159,-0.151 1.558,-0.449c0.4,-0.3 0.598,-0.691 0.598,-1.172c0,-0.366 -0.116,-0.666 -0.351,-0.899c-0.234,-0.232 -0.65,-0.462 -1.248,-0.689l-0.403,-0.152c-0.421,-0.161 -0.633,-0.359 -0.633,-0.592c0,-0.354 0.285,-0.529 0.856,-0.529c0.363,0 0.822,0.094 1.375,0.287l0,-0.967c-0.575,-0.122 -1.068,-0.184 -1.485,-0.184l0,0Zm8.319,0c-0.612,0 -1.228,0.118 -1.852,0.354l0,0.951c0.549,-0.304 1.09,-0.457 1.627,-0.457c0.606,0 0.908,0.266 0.908,0.797l0,0.465l-0.367,0c-0.842,0 -1.487,0.153 -1.939,0.459c-0.451,0.306 -0.678,0.74 -0.678,1.304c0,0.435 0.14,0.79 0.42,1.063c0.279,0.273 0.643,0.41 1.09,0.41c0.524,0 1.015,-0.222 1.474,-0.666l0.061,0c0.162,0.444 0.524,0.666 1.09,0.666c0.223,0 0.481,-0.044 0.773,-0.131l-0.033,-0.773c-0.074,0.012 -0.135,0.019 -0.182,0.019c-0.258,0 -0.385,-0.201 -0.385,-0.601l0,-2.262c0,-1.064 -0.67,-1.598 -2.007,-1.598l0,0Zm6.904,0c-0.71,0 -1.29,0.36 -1.74,1.08l0,-0.963l-1.379,0l0,5.112l1.379,0l0,-3.217c0.403,-0.618 0.823,-0.926 1.262,-0.926c0.384,0 0.576,0.291 0.576,0.871l0,3.272l1.377,0l0,-3.611c0,-0.5 -0.131,-0.895 -0.395,-1.184c-0.264,-0.289 -0.624,-0.434 -1.08,-0.434l0,0Zm21.719,0c-0.742,0 -1.339,0.242 -1.791,0.725c-0.451,0.483 -0.678,1.12 -0.678,1.912c0,0.837 0.247,1.499 0.741,1.982c0.494,0.484 1.168,0.727 2.021,0.727c0.587,0 1.206,-0.096 1.861,-0.289l0,-0.969c-0.581,0.214 -1.101,0.322 -1.564,0.322c-0.977,0 -1.512,-0.487 -1.606,-1.463l3.17,0c0,-1.02 -0.171,-1.766 -0.515,-2.238c-0.345,-0.471 -0.892,-0.709 -1.639,-0.709l0,0Zm6.588,0c-0.729,0 -1.274,0.36 -1.631,1.08l0,-0.963l-1.379,0l0,5.112l1.379,0l0,-3.244c0.344,-0.555 0.792,-0.834 1.342,-0.834c0.167,0 0.348,0.036 0.543,0.107l0,-1.228c-0.084,-0.018 -0.167,-0.03 -0.254,-0.03l0,0Zm-57.232,0.117l0,3.614c0,0.5 0.133,0.892 0.396,1.181c0.264,0.289 0.624,0.434 1.081,0.434c0.713,0 1.295,-0.36 1.742,-1.08l0,0.963l1.377,0l0,-5.112l-1.377,0l0,3.217c-0.404,0.619 -0.824,0.926 -1.258,0.926c-0.389,0 -0.582,-0.289 -0.582,-0.869l0,-3.274l-1.379,0l0,0Zm17.102,0l0,5.112l1.377,0l0,-5.112l-1.377,0Zm33.5,0.747c0.562,0 0.842,0.434 0.842,1.306l-1.832,0c0.09,-0.872 0.419,-1.306 0.99,-1.306l0,0Zm-28.221,2.037l0.324,0l0,1.039c-0.339,0.313 -0.667,0.47 -0.99,0.47c-0.188,0 -0.348,-0.065 -0.477,-0.193c-0.129,-0.129 -0.195,-0.287 -0.195,-0.476c0,-0.559 0.448,-0.84 1.338,-0.84l0,0Z" style="fill:#FDDEA2;fill-rule:nonzero;"/>
    <path d="M64.012,17.445c-0.771,0 -1.479,0.127 -2.121,0.383c-0.641,0.256 -1.192,0.611 -1.654,1.064c-0.461,0.453 -0.823,0.983 -1.082,1.59c-0.26,0.609 -0.391,1.264 -0.391,1.969c0,0.705 0.131,1.361 0.391,1.969c0.259,0.608 0.621,1.139 1.082,1.592c0.462,0.452 1.013,0.806 1.654,1.062c0.642,0.256 1.35,0.385 2.121,0.385c0.763,0 1.467,-0.129 2.113,-0.385c0.645,-0.256 1.201,-0.61 1.666,-1.062c0.466,-0.453 0.828,-0.984 1.088,-1.592c0.26,-0.608 0.391,-1.264 0.391,-1.969c0,-0.705 -0.131,-1.36 -0.391,-1.969c-0.26,-0.607 -0.622,-1.137 -1.088,-1.59c-0.465,-0.453 -1.021,-0.808 -1.666,-1.064c-0.646,-0.256 -1.35,-0.383 -2.113,-0.383Zm-15.322,0.266l3.986,9.484l1.963,0l4,-9.484l-2.679,0l-2.301,5.773l-2.289,-5.773l-2.68,0l0,0Zm22.141,0l0,9.484l2.465,0l0,-3.648l2.351,3.648l3.071,0l-2.981,-3.887c0.679,-0.159 1.192,-0.463 1.541,-0.912c0.348,-0.449 0.52,-1.034 0.52,-1.756c0,-0.402 -0.063,-0.78 -0.194,-1.132c-0.13,-0.352 -0.322,-0.661 -0.578,-0.93c-0.255,-0.268 -0.58,-0.481 -0.974,-0.637c-0.395,-0.154 -0.858,-0.23 -1.385,-0.23l-3.836,0l0,0Zm8.037,0l0,2.086l2.026,0l0,7.398l2.466,0l0,-7.398l2.026,0l0,-2.086l-6.518,0Zm7.611,0l0,9.484l5.397,0l0,-2.088l-2.93,0l0,-1.637l2.768,0l0,-2.087l-2.768,0l0,-1.586l2.93,0l0,-2.086l-5.397,0l0,0Zm6.932,0l2.955,4.425l-3.709,5.059l2.981,0l2.226,-3.094l1.899,3.094l3.007,0l-3.535,-5.059l3.133,-4.425l-3.045,0l-1.584,2.451l-1.285,-2.451l-3.043,0l0,0Zm-20.115,1.898l0.465,0c0.486,0 0.859,0.1 1.119,0.301c0.26,0.202 0.391,0.492 0.391,0.869c0,0.377 -0.131,0.666 -0.391,0.867c-0.26,0.201 -0.633,0.303 -1.119,0.303l-0.465,0l0,-2.34l0,0Zm-9.283,0.227c0.361,0 0.702,0.066 1.025,0.195c0.323,0.13 0.608,0.312 0.856,0.547c0.247,0.234 0.441,0.512 0.584,0.83c0.142,0.32 0.214,0.666 0.214,1.043c0,0.378 -0.072,0.726 -0.214,1.045c-0.143,0.318 -0.337,0.596 -0.584,0.832c-0.248,0.234 -0.533,0.416 -0.856,0.545c-0.323,0.13 -0.664,0.195 -1.025,0.195c-0.361,0 -0.702,-0.065 -1.026,-0.195c-0.322,-0.129 -0.607,-0.311 -0.849,-0.545c-0.244,-0.236 -0.436,-0.514 -0.578,-0.832c-0.143,-0.319 -0.215,-0.667 -0.215,-1.045c0,-0.377 0.072,-0.723 0.215,-1.043c0.142,-0.318 0.334,-0.596 0.578,-0.83c0.242,-0.235 0.527,-0.417 0.849,-0.547c0.324,-0.129 0.665,-0.195 1.026,-0.195Z" style="fill:#FDDEA2;fill-rule:nonzero;"/>
    <path d="M65.612,319.86c-5.507,0 -9.99,4.481 -9.99,9.988l0,13.145c0,0.33 0.271,0.601 0.6,0.601c0.33,0 0.601,-0.271 0.601,-0.601l0,-13.145c0,-4.857 3.932,-8.789 8.789,-8.789l18.777,0c4.857,0 8.789,3.932 8.789,8.789l0,13.145c0,0.008 0,0.015 0,0.022c0,0.33 0.27,0.601 0.6,0.601c0.329,0 0.6,-0.271 0.6,-0.601c0,-0.007 0,-0.014 -0.001,-0.022l0,-13.145c0,-5.506 -4.481,-9.988 -9.988,-9.988l-18.777,0Z" style="fill:#FDDEA2;"/>
    <path d="M55.271,51.55c-7.925,0 -15.848,2.688 -22.258,8.064c-12.82,10.758 -16.096,29.349 -7.73,43.843c0.107,0.185 0.305,0.299 0.519,0.299c0.329,0 0.6,-0.271 0.6,-0.6c0,-0.106 -0.027,-0.21 -0.08,-0.301c-8.076,-13.991 -4.913,-31.935 7.463,-42.32c12.375,-10.379 30.599,-10.379 42.975,0c12.374,10.386 15.537,28.329 7.46,42.32c-0.053,0.091 -0.08,0.195 -0.08,0.301c0,0.329 0.271,0.6 0.6,0.6c0.214,0 0.412,-0.114 0.519,-0.3c8.366,-14.493 5.091,-33.083 -7.728,-43.842c-6.41,-5.376 -14.335,-8.064 -22.26,-8.064Zm-29.098,56.055c-2.371,0 -4.307,1.936 -4.307,4.307c0,2.371 1.936,4.304 4.307,4.304c2.371,0 4.307,-1.933 4.307,-4.304c0,-2.371 -1.936,-4.307 -4.307,-4.307Zm58.779,0.1c-2.317,0 -4.207,1.89 -4.207,4.207c0,2.317 1.89,4.205 4.207,4.205c2.317,0 4.205,-1.888 4.205,-4.205c0,-2.317 -1.888,-4.207 -4.205,-4.207Zm-58.779,1.099c1.723,0 3.105,1.385 3.105,3.108c0,1.722 -1.383,3.105 -3.105,3.105c-1.723,0 -3.105,-1.383 -3.105,-3.105c0,-1.723 1.383,-3.108 3.105,-3.108Z" style="fill:#FDDEA2;"/>
    <path d="M42.646,120.98c-0.42,0 -0.825,0.08 -1.209,0.236c-0.384,0.156 -0.72,0.376 -1.012,0.657c-0.292,0.28 -0.525,0.611 -0.697,1c-0.172,0.388 -0.26,0.813 -0.26,1.277c0,0.464 0.088,0.891 0.264,1.283c0.176,0.392 0.409,0.734 0.701,1.018c0.292,0.284 0.628,0.508 1.008,0.664c0.38,0.156 0.781,0.236 1.197,0.236c0.204,0 0.407,-0.02 0.615,-0.06c0.209,-0.04 0.434,-0.104 0.674,-0.188l0.16,-0.056l0,-1.858c-0.4,0.428 -0.853,0.641 -1.353,0.641c-0.228,0 -0.445,-0.045 -0.641,-0.129c-0.196,-0.084 -0.367,-0.204 -0.515,-0.352c-0.148,-0.148 -0.26,-0.323 -0.344,-0.527c-0.084,-0.204 -0.125,-0.424 -0.125,-0.664c0,-0.236 0.041,-0.452 0.125,-0.656c0.084,-0.204 0.196,-0.378 0.34,-0.526c0.144,-0.148 0.315,-0.263 0.515,-0.347c0.2,-0.084 0.417,-0.129 0.653,-0.129c0.532,0 0.981,0.222 1.345,0.666l0,-1.873c-0.256,-0.108 -0.5,-0.185 -0.732,-0.237c-0.232,-0.052 -0.469,-0.076 -0.709,-0.076l0,0Zm16.238,0c-0.492,0 -0.939,0.08 -1.348,0.244c-0.408,0.164 -0.76,0.388 -1.052,0.676c-0.292,0.288 -0.524,0.623 -0.688,1.012c-0.164,0.388 -0.248,0.805 -0.248,1.254c0,0.448 0.084,0.863 0.248,1.252c0.164,0.388 0.395,0.723 0.688,1.011c0.292,0.288 0.644,0.514 1.052,0.678c0.408,0.164 0.856,0.244 1.348,0.244c0.484,0 0.934,-0.08 1.346,-0.244c0.412,-0.164 0.764,-0.39 1.06,-0.678c0.296,-0.288 0.528,-0.623 0.692,-1.011c0.164,-0.389 0.248,-0.804 0.248,-1.252c0,-0.449 -0.084,-0.866 -0.248,-1.254c-0.164,-0.389 -0.396,-0.724 -0.692,-1.012c-0.296,-0.288 -0.648,-0.512 -1.06,-0.676c-0.412,-0.164 -0.862,-0.244 -1.346,-0.244Zm-13.805,0.168l0,3.498c0,0.94 0.216,1.624 0.648,2.057c0.433,0.432 1.092,0.648 1.985,0.648c0.892,0 1.552,-0.216 1.98,-0.648c0.429,-0.433 0.645,-1.117 0.645,-2.057l0,-3.498l-1.561,0l0,3.281c0,0.176 -0.007,0.357 -0.019,0.541c-0.012,0.184 -0.057,0.352 -0.125,0.5c-0.068,0.148 -0.177,0.271 -0.317,0.363c-0.14,0.093 -0.343,0.141 -0.603,0.141c-0.26,0 -0.465,-0.049 -0.609,-0.141c-0.145,-0.092 -0.247,-0.215 -0.315,-0.363c-0.068,-0.148 -0.109,-0.316 -0.121,-0.5c-0.012,-0.184 -0.02,-0.365 -0.02,-0.541l0,-3.281l-1.568,0Zm5.953,0l0,1.328l1.289,0l0,4.707l1.569,0l0,-4.707l1.289,0l0,-1.328l-4.147,0Zm12.189,0l0,6.035l1.568,0l0,-2.369l1.721,0l0,-1.33l-1.721,0l0,-1.008l1.889,0l0,-1.328l-3.457,0Zm4.395,0l0,6.035l1.568,0l0,-2.369l1.721,0l0,-1.33l-1.721,0l0,-1.008l1.889,0l0,-1.328l-3.457,0Zm-8.733,1.352c0.228,0 0.448,0.041 0.653,0.125c0.204,0.084 0.388,0.199 0.544,0.347c0.157,0.148 0.28,0.325 0.372,0.53c0.092,0.204 0.136,0.423 0.136,0.664c0,0.24 -0.044,0.46 -0.136,0.664c-0.092,0.204 -0.215,0.379 -0.372,0.527c-0.156,0.148 -0.34,0.266 -0.544,0.35c-0.205,0.084 -0.425,0.123 -0.653,0.123c-0.228,0 -0.448,-0.039 -0.652,-0.123c-0.204,-0.084 -0.383,-0.202 -0.539,-0.35c-0.156,-0.148 -0.277,-0.323 -0.369,-0.527c-0.092,-0.204 -0.135,-0.424 -0.135,-0.664c0,-0.241 0.043,-0.46 0.135,-0.664c0.092,-0.205 0.213,-0.382 0.369,-0.53c0.156,-0.148 0.335,-0.263 0.539,-0.347c0.204,-0.085 0.424,-0.125 0.652,-0.125Z" style="fill:#FDDEA2;fill-rule:nonzero;"/>
    <path d="M117.04,58.235c-0.332,0.006 -0.596,0.279 -0.59,0.611l0,1.408c-2.52,0.13 -5.006,1.043 -7.047,2.756c-4.419,3.708 -5.55,10.112 -2.668,15.105l0.301,0.52l10.035,-5.793l10.035,5.793l0.301,-0.52c2.882,-4.993 1.752,-11.398 -2.668,-15.105c-2.052,-1.722 -4.555,-2.636 -7.09,-2.758l0,-1.41c0,-0.338 -0.271,-0.612 -0.609,-0.607l0,0Zm-0.586,3.219l0.019,10.35l-8.902,5.14c-2.21,-4.402 -1.209,-9.813 2.605,-13.014c1.819,-1.527 4.032,-2.348 6.278,-2.476l0,0Zm1.199,0c2.26,0.121 4.488,0.94 6.317,2.476c3.815,3.201 4.813,8.612 2.603,13.014l-8.902,-5.14l-0.018,-10.35Zm7.933,17.562l0.01,1.582l-1.606,0.008c-0.831,-0.028 -0.825,1.235 0.01,1.199l1.606,-0.008l0.01,1.629c-0.026,0.831 1.236,0.822 1.199,-0.008l-0.01,-1.625l1.603,-0.008c0.801,-0.004 0.795,-1.205 -0.01,-1.201l-1.605,0.008l-0.01,-1.584c0,-0.771 -1.197,-0.756 -1.197,0.008l0,0Zm-15.172,1.445l-4.415,0.019c-0.8,0.004 -0.794,1.206 0.01,1.202l4.415,-0.022c0.83,0.028 0.824,-1.235 -0.01,-1.199Z" style="fill:#FDDEA2;fill-rule:nonzero;"/>
    <path d="M54.241,136.594c-5.706,0 -11.412,1.934 -16.027,5.804c-9.229,7.746 -11.587,21.128 -5.564,31.564c0.391,0.723 1.468,0.101 1.039,-0.599c-5.733,-9.934 -3.488,-22.672 5.297,-30.045c8.785,-7.369 21.725,-7.369 30.51,0c8.785,7.372 11.03,20.111 5.296,30.045c-0.429,0.7 0.648,1.322 1.039,0.599c6.023,-10.436 3.666,-23.819 -5.564,-31.564c-4.615,-3.87 -10.32,-5.804 -16.025,-5.804l-0.001,0Zm-18.883,41.52c-2.371,0 -4.307,1.935 -4.307,4.306c0,2.371 1.936,4.305 4.307,4.305c2.371,0 4.307,-1.934 4.307,-4.305c0,-2.371 -1.936,-4.306 -4.307,-4.306Zm37.766,0c-2.371,0 -4.305,1.933 -4.305,4.304c0,2.371 1.934,4.307 4.305,4.307c2.371,0 4.307,-1.936 4.307,-4.307c0,-2.371 -1.936,-4.304 -4.307,-4.304Zm-37.766,1.199c1.723,0 3.105,1.385 3.105,3.107c0,1.723 -1.382,3.106 -3.105,3.106c-1.722,0 -3.105,-1.383 -3.105,-3.106c0,-1.722 1.383,-3.107 3.105,-3.107Z" style="fill:#FDDEA2;fill-rule:nonzero;"/>
    <path d="M40.274,187.88c-0.32,0 -0.609,0.047 -0.869,0.143c-0.26,0.096 -0.476,0.232 -0.656,0.404c-0.18,0.172 -0.316,0.381 -0.416,0.625c-0.1,0.244 -0.149,0.512 -0.149,0.812c0,0.3 0.049,0.545 0.141,0.741c0.092,0.196 0.217,0.356 0.369,0.484c0.152,0.128 0.323,0.233 0.519,0.309c0.197,0.076 0.392,0.147 0.596,0.211c0.172,0.06 0.316,0.112 0.436,0.16c0.12,0.048 0.217,0.1 0.293,0.156c0.076,0.056 0.128,0.116 0.16,0.184c0.032,0.068 0.049,0.144 0.049,0.236c0,0.148 -0.066,0.284 -0.19,0.4c-0.124,0.116 -0.316,0.176 -0.572,0.176c-0.224,0 -0.452,-0.052 -0.68,-0.152c-0.228,-0.1 -0.459,-0.255 -0.695,-0.463l-0.674,1.263c0.652,0.453 1.357,0.68 2.121,0.68c0.368,0 0.696,-0.046 0.988,-0.146c0.293,-0.1 0.537,-0.238 0.737,-0.418c0.2,-0.18 0.353,-0.391 0.457,-0.643c0.104,-0.252 0.156,-0.534 0.156,-0.842c0,-0.46 -0.121,-0.831 -0.357,-1.115c-0.236,-0.284 -0.611,-0.513 -1.123,-0.685c-0.128,-0.044 -0.257,-0.084 -0.389,-0.12c-0.132,-0.036 -0.248,-0.08 -0.352,-0.132c-0.104,-0.052 -0.187,-0.112 -0.251,-0.18c-0.065,-0.068 -0.098,-0.156 -0.098,-0.264c0,-0.156 0.065,-0.281 0.193,-0.377c0.128,-0.096 0.292,-0.142 0.496,-0.142c0.16,0 0.324,0.031 0.496,0.099c0.172,0.068 0.34,0.169 0.512,0.309l0.625,-1.225c-0.3,-0.16 -0.613,-0.281 -0.937,-0.365c-0.325,-0.084 -0.636,-0.123 -0.936,-0.123l0,0Zm6.17,0c-0.492,0 -0.94,0.08 -1.348,0.244c-0.408,0.164 -0.76,0.388 -1.053,0.676c-0.292,0.288 -0.525,0.623 -0.689,1.012c-0.164,0.388 -0.248,0.803 -0.248,1.252c0,0.448 0.084,0.865 0.248,1.254c0.164,0.388 0.397,0.723 0.689,1.011c0.293,0.288 0.645,0.512 1.053,0.676c0.408,0.164 0.856,0.244 1.348,0.244c0.484,0 0.933,-0.08 1.346,-0.244c0.412,-0.164 0.764,-0.388 1.06,-0.676c0.296,-0.288 0.527,-0.623 0.692,-1.011c0.164,-0.389 0.248,-0.806 0.248,-1.254c0,-0.449 -0.084,-0.864 -0.248,-1.252c-0.165,-0.389 -0.396,-0.724 -0.692,-1.012c-0.296,-0.288 -0.648,-0.512 -1.06,-0.676c-0.413,-0.164 -0.862,-0.244 -1.346,-0.244Zm28.34,0c-0.42,0 -0.825,0.078 -1.209,0.234c-0.384,0.156 -0.72,0.376 -1.012,0.657c-0.292,0.28 -0.523,0.613 -0.695,1.002c-0.172,0.388 -0.262,0.811 -0.262,1.275c0,0.464 0.09,0.893 0.266,1.285c0.176,0.392 0.407,0.732 0.699,1.016c0.292,0.284 0.628,0.508 1.008,0.664c0.38,0.156 0.781,0.236 1.197,0.236c0.204,0 0.409,-0.018 0.617,-0.058c0.208,-0.04 0.432,-0.106 0.672,-0.19l0.16,-0.055l0,-1.857c-0.4,0.428 -0.853,0.641 -1.353,0.641c-0.228,0 -0.445,-0.045 -0.641,-0.129c-0.196,-0.084 -0.367,-0.204 -0.515,-0.352c-0.148,-0.148 -0.26,-0.325 -0.344,-0.529c-0.084,-0.204 -0.125,-0.424 -0.125,-0.664c0,-0.236 0.041,-0.452 0.125,-0.656c0.084,-0.204 0.196,-0.376 0.34,-0.524c0.144,-0.148 0.315,-0.263 0.515,-0.347c0.2,-0.084 0.417,-0.129 0.653,-0.129c0.532,0 0.981,0.219 1.345,0.664l0,-1.873c-0.256,-0.108 -0.5,-0.185 -0.732,-0.237c-0.232,-0.052 -0.469,-0.074 -0.709,-0.074l0,0Zm-46.811,0.168l0,6.033l1.568,0l0,-2.32l1.496,2.32l1.953,0l-1.896,-2.472c0.432,-0.1 0.76,-0.296 0.98,-0.581c0.221,-0.284 0.332,-0.657 0.332,-1.117c0,-0.256 -0.04,-0.494 -0.125,-0.718c-0.084,-0.225 -0.203,-0.422 -0.367,-0.594c-0.164,-0.172 -0.369,-0.304 -0.621,-0.405c-0.252,-0.1 -0.545,-0.146 -0.881,-0.146l-2.439,0Zm5.674,0l0,6.033l3.433,0l0,-1.328l-1.865,0l0,-1.041l1.762,0l0,-1.328l-1.762,0l0,-1.008l1.865,0l0,-1.328l-3.433,0Zm17.135,0l0,6.033l1.568,0l0,-3.689l2.898,3.689l1.561,0l0,-6.033l-1.561,0l0,3.689l-2.898,-3.689l-1.568,0Zm9.027,0l-2.297,6.033l1.674,0l0.359,-1.047l2.24,0l0.362,1.047l1.672,0l-2.297,-6.033l-1.713,0Zm4.699,0l0,6.033l1.569,0l0,-3.689l2.896,3.689l1.561,0l0,-6.033l-1.561,0l0,3.689l-2.896,-3.689l-1.569,0Zm12.709,0l0,6.033l3.434,0l0,-1.328l-1.865,0l0,-1.041l1.759,0l0,-1.328l-1.759,0l0,-1.008l1.865,0l0,-1.328l-3.434,0Zm-47.676,1.207l0.295,0c0.308,0 0.549,0.065 0.713,0.193c0.164,0.128 0.248,0.311 0.248,0.551c0,0.24 -0.084,0.425 -0.248,0.553c-0.164,0.128 -0.405,0.193 -0.713,0.193l-0.295,0l0,-1.49Zm16.902,0.145c0.228,0 0.448,0.041 0.653,0.125c0.204,0.084 0.388,0.199 0.544,0.347c0.157,0.148 0.28,0.323 0.372,0.528c0.092,0.204 0.136,0.423 0.136,0.664c0,0.24 -0.044,0.462 -0.136,0.666c-0.092,0.204 -0.215,0.379 -0.372,0.527c-0.156,0.148 -0.34,0.264 -0.544,0.348c-0.205,0.084 -0.425,0.125 -0.653,0.125c-0.228,0 -0.448,-0.041 -0.652,-0.125c-0.204,-0.084 -0.383,-0.2 -0.539,-0.348c-0.156,-0.148 -0.277,-0.323 -0.369,-0.527c-0.092,-0.204 -0.137,-0.426 -0.137,-0.666c0,-0.241 0.045,-0.46 0.137,-0.664c0.092,-0.205 0.213,-0.38 0.369,-0.528c0.156,-0.148 0.335,-0.263 0.539,-0.347c0.204,-0.084 0.424,-0.125 0.652,-0.125Zm14.223,0.431l0.703,2.01l-1.408,0l0.705,-2.01Z" style="fill:#FDDEA2;fill-rule:nonzero;"/>
    <path d="M117.04,136.38c-0.332,0.006 -0.596,0.28 -0.59,0.611l0,1.409c-2.52,0.129 -5.006,1.042 -7.047,2.755c-4.419,3.708 -5.55,10.112 -2.668,15.105l0.301,0.52l10.035,-5.793l10.035,5.793l0.301,-0.52c2.882,-4.993 1.752,-11.398 -2.668,-15.105c-2.052,-1.722 -4.555,-2.636 -7.09,-2.757l0,-1.411c0,-0.338 -0.271,-0.612 -0.609,-0.607l0,0Zm-0.586,3.219l0.019,10.35l-8.902,5.14c-2.21,-4.402 -1.209,-9.813 2.605,-13.014c1.819,-1.527 4.032,-2.348 6.278,-2.476l0,0Zm1.199,0c2.26,0.121 4.488,0.94 6.317,2.476c3.815,3.201 4.813,8.612 2.603,13.014l-8.902,-5.14l-0.018,-10.35Zm7.933,17.562l0.01,1.582l-1.606,0.008c-0.831,-0.028 -0.825,1.235 0.01,1.199l1.606,-0.008l0.01,1.629c-0.026,0.831 1.236,0.822 1.199,-0.008l-0.01,-1.625l1.603,-0.008c0.801,-0.004 0.795,-1.205 -0.01,-1.201l-1.605,0.008l-0.01,-1.584c0,-0.771 -1.197,-0.756 -1.197,0.008l0,0Zm-15.172,1.445l-4.415,0.02c-0.8,0.004 -0.794,1.205 0.01,1.201l4.415,-0.022c0.83,0.028 0.824,-1.235 -0.01,-1.199Z" style="fill:#FDDEA2;fill-rule:nonzero;"/>
    <path d="M54.313,205.11c-5.706,0 -11.412,1.934 -16.027,5.805c-9.229,7.745 -11.587,21.128 -5.564,31.564c0.391,0.722 1.468,0.101 1.039,-0.6c-5.733,-9.934 -3.488,-22.672 5.296,-30.045c8.786,-7.369 21.725,-7.369 30.51,0c8.786,7.373 11.03,20.111 5.297,30.045c-0.429,0.701 0.648,1.322 1.039,0.6c6.023,-10.436 3.666,-23.819 -5.564,-31.564c-4.615,-3.871 -10.32,-5.805 -16.025,-5.805l-0.001,0Zm-18.883,41.52c-2.371,0 -4.307,1.936 -4.307,4.307c0,2.371 1.936,4.304 4.307,4.304c2.371,0 4.307,-1.933 4.307,-4.304c0,-2.371 -1.936,-4.307 -4.307,-4.307Zm37.766,0c-2.371,0 -4.305,1.934 -4.305,4.305c0,2.371 1.934,4.306 4.305,4.306c2.371,0 4.307,-1.935 4.307,-4.306c0,-2.371 -1.936,-4.305 -4.307,-4.305Zm-37.766,1.199c1.722,0 3.105,1.385 3.105,3.108c0,1.722 -1.382,3.105 -3.105,3.105c-1.723,0 -3.105,-1.383 -3.105,-3.105c-0.001,-1.723 1.383,-3.108 3.105,-3.108Z" style="fill:#FDDEA2;fill-rule:nonzero;"/>
    <path d="M42.031,253.97l0,6.033l2.32,0c0.416,0 0.804,-0.084 1.164,-0.248c0.361,-0.164 0.678,-0.388 0.946,-0.664c0.268,-0.276 0.479,-0.601 0.631,-0.965c0.152,-0.364 0.228,-0.744 0.228,-1.14c0,-0.401 -0.076,-0.785 -0.232,-1.149c-0.156,-0.364 -0.367,-0.683 -0.635,-0.959c-0.268,-0.276 -0.585,-0.496 -0.945,-0.66c-0.361,-0.164 -0.744,-0.248 -1.157,-0.248l-2.32,0Zm6.289,0l0,6.033l1.57,0l0,-2.32l1.496,2.32l1.954,0l-1.897,-2.472c0.432,-0.1 0.76,-0.296 0.981,-0.58c0.22,-0.285 0.332,-0.657 0.332,-1.118c0,-0.256 -0.041,-0.494 -0.125,-0.718c-0.084,-0.225 -0.204,-0.422 -0.368,-0.594c-0.164,-0.172 -0.369,-0.304 -0.621,-0.404c-0.252,-0.101 -0.544,-0.147 -0.881,-0.147l-2.441,0Zm5.676,0l0,6.033l1.568,0l0,-6.033l-1.568,0Zm2.201,0l2.537,6.033l1.248,0l2.545,-6.033l-1.705,0l-1.465,3.672l-1.457,-3.672l-1.703,0Zm6.963,0l0,6.033l3.434,0l0,-1.328l-1.866,0l0,-1.041l1.76,0l0,-1.328l-1.76,0l0,-1.008l1.866,0l0,-1.328l-3.434,0Zm-13.27,1.207l0.295,0c0.308,0 0.549,0.065 0.713,0.193c0.164,0.128 0.248,0.311 0.248,0.551c0,0.24 -0.084,0.425 -0.248,0.553c-0.164,0.128 -0.405,0.193 -0.713,0.193l-0.295,0l0,-1.49Zm-6.291,0.121l0.359,0c0.268,0 0.509,0.043 0.721,0.127c0.212,0.084 0.393,0.205 0.541,0.354c0.148,0.148 0.26,0.327 0.34,0.535c0.08,0.208 0.119,0.431 0.119,0.672c0,0.244 -0.039,0.473 -0.115,0.677c-0.076,0.204 -0.188,0.384 -0.336,0.532c-0.148,0.148 -0.329,0.269 -0.541,0.353c-0.212,0.084 -0.457,0.127 -0.729,0.127l-0.359,0l0,-3.377Z" style="fill:#FDDEA2;fill-rule:nonzero;"/>
    <path d="M117.04,204.95c-0.332,0.006 -0.596,0.279 -0.59,0.611l0,1.409c-2.52,0.129 -5.006,1.042 -7.047,2.755c-4.419,3.708 -5.55,10.112 -2.668,15.105l0.301,0.52l10.035,-5.793l10.035,5.793l0.301,-0.52c2.882,-4.993 1.752,-11.398 -2.668,-15.105c-2.052,-1.722 -4.555,-2.636 -7.09,-2.757l0,-1.411c0,-0.338 -0.271,-0.612 -0.609,-0.607l0,0Zm-0.586,3.219l0.019,10.35l-8.902,5.14c-2.21,-4.402 -1.209,-9.813 2.605,-13.014c1.819,-1.527 4.032,-2.348 6.278,-2.476l0,0Zm1.199,0c2.26,0.121 4.488,0.94 6.317,2.476c3.815,3.201 4.813,8.612 2.603,13.014l-8.902,-5.14l-0.018,-10.35Zm7.933,17.562l0.01,1.582l-1.606,0.008c-0.831,-0.028 -0.825,1.235 0.01,1.199l1.606,-0.008l0.01,1.629c-0.026,0.831 1.236,0.822 1.199,-0.008l-0.01,-1.625l1.603,-0.008c0.801,-0.004 0.795,-1.205 -0.01,-1.201l-1.605,0.008l-0.01,-1.584c0,-0.771 -1.197,-0.756 -1.197,0.008l0,0Zm-15.172,1.445l-4.415,0.02c-0.8,0.004 -0.794,1.205 0.01,1.201l4.415,-0.022c0.83,0.028 0.824,-1.235 -0.01,-1.199Z" style="fill:#FDDEA2;fill-rule:nonzero;"/>
    <path d="M62.175,353.61l0,6.035l1.568,0l0,-6.035l-1.568,0Zm2.834,0l0,6.035l1.568,0l0,-3.689l2.897,3.689l1.56,0l0,-6.035l-1.56,0l0,3.691l-2.897,-3.691l-1.568,0Zm7.291,0l0,6.035l1.568,0l0,-2l0.928,0c0.676,0 1.197,-0.177 1.557,-0.529c0.36,-0.352 0.541,-0.848 0.541,-1.488c0,-0.641 -0.181,-1.137 -0.541,-1.489c-0.36,-0.352 -0.881,-0.529 -1.557,-0.529l-2.496,0Zm5.426,0l0,3.498c0,0.94 0.216,1.624 0.648,2.057c0.432,0.432 1.092,0.648 1.985,0.648c0.892,0 1.552,-0.216 1.98,-0.648c0.428,-0.433 0.645,-1.117 0.645,-2.057l0,-3.498l-1.561,0l0,3.283c0,0.176 -0.007,0.355 -0.019,0.539c-0.012,0.184 -0.057,0.352 -0.125,0.5c-0.068,0.148 -0.177,0.273 -0.317,0.365c-0.14,0.093 -0.343,0.139 -0.603,0.139c-0.26,0 -0.466,-0.047 -0.61,-0.139c-0.144,-0.092 -0.246,-0.217 -0.314,-0.365c-0.068,-0.148 -0.109,-0.316 -0.121,-0.5c-0.012,-0.184 -0.02,-0.363 -0.02,-0.539l0,-3.283l-1.568,0Zm5.953,0l0,1.33l1.289,0l0,4.705l1.568,0l0,-4.705l1.289,0l0,-1.33l-4.146,0Zm-9.811,1.266l0.52,0c0.576,0 0.865,0.251 0.865,0.752c0,0.5 -0.289,0.751 -0.865,0.751l-0.52,0l0,-1.503Z" style="fill:#FDDEA2;fill-rule:nonzero;"/>
    <path d="M112.59,304.89l0,6.035l2.519,0c0.321,0 0.61,-0.035 0.866,-0.111c0.256,-0.076 0.472,-0.19 0.652,-0.338c0.18,-0.148 0.316,-0.331 0.416,-0.551c0.1,-0.22 0.149,-0.468 0.149,-0.752c0,-0.18 -0.021,-0.353 -0.065,-0.513c-0.044,-0.16 -0.113,-0.304 -0.213,-0.432c-0.1,-0.128 -0.227,-0.236 -0.383,-0.324c-0.156,-0.088 -0.348,-0.152 -0.572,-0.196c0.224,-0.14 0.392,-0.309 0.5,-0.509c0.108,-0.2 0.164,-0.452 0.164,-0.756c0,-0.5 -0.143,-0.884 -0.432,-1.153c-0.288,-0.268 -0.709,-0.4 -1.265,-0.4l-2.336,0Zm5.537,0l0,6.035l1.568,0l0,-2l0.93,0c0.676,0 1.197,-0.177 1.557,-0.529c0.36,-0.352 0.539,-0.848 0.539,-1.488c0,-0.641 -0.179,-1.137 -0.539,-1.489c-0.36,-0.352 -0.881,-0.529 -1.557,-0.529l-2.498,0Zm-3.969,1.201l0.287,0c0.493,0 0.737,0.196 0.737,0.584c0,0.388 -0.244,0.584 -0.737,0.584l-0.287,0l0,-1.168Zm5.537,0.065l0.522,0c0.576,0 0.863,0.251 0.863,0.752c0,0.5 -0.287,0.752 -0.863,0.752l-0.522,0l0,-1.504Zm-5.537,2.271l0.344,0c0.396,0 0.676,0.052 0.848,0.153c0.172,0.1 0.256,0.264 0.256,0.488c0,0.224 -0.084,0.388 -0.256,0.488c-0.172,0.1 -0.452,0.152 -0.848,0.152l-0.344,0l0,-1.281Z" style="fill:#FDDEA2;fill-rule:nonzero;"/>
    <path d="M82.453,304.89l0,6.035l3.449,0l0,-1.328l-1.881,0l0,-4.707l-1.568,0Zm4.258,0l0,6.035l1.568,0l0,-2l0.928,0c0.676,0 1.196,-0.177 1.557,-0.529c0.36,-0.352 0.541,-0.848 0.541,-1.488c0,-0.641 -0.181,-1.137 -0.541,-1.489c-0.361,-0.352 -0.881,-0.529 -1.557,-0.529l-2.496,0Zm1.568,1.266l0.52,0c0.576,0 0.865,0.251 0.865,0.752c0,0.5 -0.289,0.752 -0.865,0.752l-0.52,0l0,-1.504Z" style="fill:#FDDEA2;fill-rule:nonzero;"/>
    <path d="M135,277.928c0,-6.407 -5.201,-11.608 -11.608,-11.608l-41.784,0c-6.407,0 -11.608,5.201 -11.608,11.608l0,23.215c0,6.407 5.201,11.608 11.608,11.608l41.784,0c6.407,0 11.608,-5.201 11.608,-11.608l0,-23.215Z" style="fill:none;stroke:#FDDEA2;stroke-width:1px;stroke-linejoin:round;stroke-miterlimit:1.5;"/>
    <path d="M41.747,285.492l0,-4.984l1.316,0l0,3.92l2.107,0l0,1.064l-3.423,0Z" style="fill:#FDDEA2;fill-rule:nonzero;"/>
    <path d="M48.677,280.508l1.323,0l-2.268,4.984l-1.043,0l-2.268,-4.984l1.365,0l1.435,3.346l1.456,-3.346Z" style="fill:#FDDEA2;fill-rule:nonzero;"/>
    <path d="M45.52,297.492l-1.393,0l-0.644,-1.659c-0.075,-0.187 -0.25,-0.28 -0.525,-0.28l-0.476,0l0,1.939l-1.295,0l0,-4.984l2.317,0c0.602,0 1.055,0.129 1.358,0.388c0.303,0.259 0.455,0.629 0.455,1.11c0,0.336 -0.09,0.626 -0.27,0.871c-0.179,0.245 -0.432,0.419 -0.759,0.522c0.14,0.028 0.266,0.093 0.378,0.196c0.112,0.103 0.201,0.24 0.266,0.413l0.588,1.484Zm-2.226,-2.919c0.28,0 0.483,-0.043 0.609,-0.13c0.126,-0.086 0.189,-0.22 0.189,-0.402c0,-0.191 -0.062,-0.329 -0.186,-0.413c-0.123,-0.084 -0.327,-0.126 -0.612,-0.126l-0.826,0l0,1.071l0.826,0Z" style="fill:#FDDEA2;fill-rule:nonzero;"/>
    <path d="M47.949,297.555c-0.373,0 -0.742,-0.049 -1.106,-0.147c-0.364,-0.098 -0.66,-0.231 -0.889,-0.399l0.413,-0.931c0.243,0.154 0.501,0.272 0.774,0.353c0.273,0.082 0.547,0.123 0.822,0.123c0.28,0 0.495,-0.038 0.644,-0.115c0.149,-0.077 0.224,-0.186 0.224,-0.326c0,-0.126 -0.068,-0.23 -0.203,-0.311c-0.135,-0.082 -0.39,-0.163 -0.763,-0.242c-0.471,-0.093 -0.838,-0.209 -1.099,-0.346c-0.261,-0.138 -0.444,-0.3 -0.549,-0.487c-0.105,-0.187 -0.158,-0.413 -0.158,-0.679c0,-0.303 0.086,-0.577 0.259,-0.822c0.173,-0.245 0.415,-0.437 0.728,-0.575c0.313,-0.137 0.67,-0.206 1.071,-0.206c0.359,0 0.708,0.05 1.047,0.151c0.338,0.1 0.603,0.232 0.794,0.395l-0.406,0.931c-0.219,-0.154 -0.45,-0.272 -0.693,-0.353c-0.243,-0.082 -0.485,-0.123 -0.728,-0.123c-0.238,0 -0.429,0.046 -0.574,0.137c-0.145,0.091 -0.217,0.213 -0.217,0.367c0,0.084 0.026,0.154 0.077,0.21c0.051,0.056 0.147,0.111 0.287,0.165c0.14,0.053 0.35,0.11 0.63,0.171c0.453,0.098 0.809,0.216 1.068,0.354c0.259,0.137 0.442,0.298 0.549,0.483c0.107,0.184 0.161,0.404 0.161,0.661c0,0.485 -0.189,0.867 -0.567,1.145c-0.378,0.277 -0.91,0.416 -1.596,0.416Z" style="fill:#FDDEA2;fill-rule:nonzero;"/>
  </g>
</svg>