<svg width="150px" height="380px" version="1.1" xmlns="http://www.w3.org/2000/svg" xmlns:xlink="http://www.w3.org/1999/xlink" xml:space="preserve" xmlns:serif="http://www.serif.com/" style="fill-rule:evenodd;clip-rule:evenodd;stroke-linecap:round;stroke-miterlimit:10;">
  <defs>
    <linearGradient id="_Linear1" x1="0" y1="0" x2="1" y2="0" gradientUnits="userSpaceOnUse" gradientTransform="matrix(0.007008,-37.8989,37.8989,0.007008,75.2834,112.195)">
      <stop offset="0" style="stop-color:#401B5C;stop-opacity:1"/>
      <stop offset="1" style="stop-color:#401B5C;stop-opacity:1"/>
    </linearGradient>
    <linearGradient id="_Linear2" x1="0" y1="0" x2="1" y2="0" gradientUnits="userSpaceOnUse" gradientTransform="matrix(-4.88,-92.58,92.58,-4.88,277.54,345.91)">
      <stop offset="0" style="stop-color:#401B5C;stop-opacity:1"/>
      <stop offset="1" style="stop-color:#401B5C;stop-opacity:1"/>
    </linearGradient>
    <linearGradient id="_Linear3" x1="0" y1="0" x2="1" y2="0" gradientUnits="userSpaceOnUse" gradientTransform="matrix(-4.75,94.86,-94.86,-4.75,277.54,158.47)">
      <stop offset="0" style="stop-color:#401B5C;stop-opacity:1"/>
      <stop offset="1" style="stop-color:#401B5C;stop-opacity:1"/>
    </linearGradient>
    <linearGradient id="_Linear4" x1="0" y1="0" x2="1" y2="0" gradientUnits="userSpaceOnUse" gradientTransform="matrix(1.15392e-16,-1.8845,1.8845,1.15392e-16,56.519,1.9362)">
      <stop offset="0" style="stop-color:#401B5C;stop-opacity:1"/>
      <stop offset="1" style="stop-color:#401B5C;stop-opacity:1"/>
    </linearGradient>
  </defs>
  <g id="Panel">
    <g>
      <rect x="0" y="0" width="150" height="380" style="fill:url(#_Linear1);"/>
      <rect x="0" y="253.33" width="150" height="126.67" style="fill:url(#_Linear2);"/>
      <rect x="0" y="126.67" width="150" height="126.67" style="fill:url(#_Linear3);"/>
      <rect x="0" y="0" width="150" height="380" style="fill:#103550;fill-opacity:0.1;"/>
      <rect x="0" y="0" width="150" height="2" style="fill:url(#_Linear4);"/>
    </g>
    <g>
      <path d="M62.9,363.5l3.443,10.383c0.322,0.968 0.909,1.451 1.756,1.451c0.835,0 1.413,-0.476 1.736,-1.435l3.461,-10.398l-2.66,0l-2.574,8.318l-2.49,-8.318l-2.672,-0.001Zm10.598,0l0,8.793c0,0.736 0.078,1.265 0.234,1.588c0.423,0.881 1.214,1.32 2.373,1.32l3.243,0c1.126,0 1.912,-0.429 2.357,-1.287c0.168,-0.324 0.25,-0.87 0.25,-1.639l0,-8.775l-2.506,0l0,8.658l-0.018,0.084c-0.056,0.29 -0.34,0.436 -0.853,0.436l-1.705,0c-0.535,0 -0.826,-0.157 -0.87,-0.469l0,-8.709l-2.505,0Zm9.611,0l0,8.842c0,0.914 0.19,1.598 0.569,2.049c0.378,0.452 1.019,0.717 1.922,0.795c0.123,0.011 0.268,0.015 0.435,0.015l4.664,0l0.016,-2.523l-4.463,0c-0.424,0 -0.634,-0.178 -0.634,-0.535l0,-8.643l-2.509,0Zm7.69,0l0,2.525l2.49,0l0,9.176l2.508,0l0,-9.176l2.523,0l0,-2.525l-7.521,0Z" style="fill:#666;fill-rule:nonzero;"/>
      <path d="M59.3,369.42c0,-4.509 -3.655,-8.165 -8.164,-8.165c-4.509,0 -8.165,3.656 -8.165,8.165c0,4.509 3.656,8.165 8.165,8.165c4.509,0 8.164,-3.656 8.164,-8.165Z" style="fill:#757575;fill-rule:nonzero;stroke:#353535;stroke-width:0.61px;"/>
      <g>
        <path d="M49.32,374.389l0.553,-0.89l-1.064,-2.393l-2.216,-2.284l0.46,3.101l0.597,1.28l0.833,1.263l0.837,-0.077Z" style="fill:#2b2b2b;fill-rule:nonzero;"/>
        <path d="M53.05,374.399l-0.553,-0.891l1.064,-2.393l2.216,-2.284l-0.46,3.101l-0.597,1.28l-0.833,1.264l-0.837,-0.077Z" style="fill:#401B5C;fill-rule:nonzero;"/>
        <path d="M48.64,363.359l2.584,-0.661l0,13.448l-1.349,-2.651l-1.061,-2.385l-1.022,-0.581l-2.052,-2.921l-0.057,-0.775l1.148,-2.067l1.809,-1.407Z" style="fill:#424242;fill-rule:nonzero;"/>
        <path d="M53.8,363.359l-2.584,-0.66l0,13.448l1.35,-2.651l1.06,-2.385l1.023,-0.581l2.051,-2.921l0.058,-0.775l-1.149,-2.068l-1.809,-1.407Z" style="fill:#333;fill-rule:nonzero;"/>
        <path d="M49.5,369.239l1.723,-1.685l0,1.23l-1.723,1.718l0,-1.263" style="fill:#4c4c4c;fill-rule:nonzero;"/>
        <path d="M51.22,368.779l-1.723,1.718l0.377,3.004l1.346,2.643l0,-7.365Z" style="fill:#5b5b5b;fill-rule:nonzero;"/>
        <path d="M51.22,376.149l-1.346,-2.643l1.346,-0.635l0,3.278Z" style="fill:#333;fill-rule:nonzero;"/>
        <path d="M49.5,370.499l0,-1.264l-1.249,-1.579l-1.477,-1.19l-0.001,0.932l0.775,1.823l1.952,1.278Z" style="fill:#FDDEA2;fill-rule:nonzero;"/>
        <path d="M52.94,369.239l-1.722,-1.684l0,1.23l1.722,1.718l0,-1.264" style="fill:#2d2d2d;fill-rule:nonzero;"/>
        <path d="M51.22,368.779l1.722,1.718l-0.376,3.004l-1.347,2.643l0.001,-7.365Z" style="fill:#353535;fill-rule:nonzero;"/>
        <path d="M51.22,376.149l1.347,-2.643l-1.346,-0.635l-0.001,3.278Z" style="fill:#401B5C;fill-rule:nonzero;"/>
        <path d="M52.94,370.499l0,-1.264l1.249,-1.579l1.478,-1.19l0.001,0.932l-0.775,1.823l-1.953,1.278Z" style="fill:#FDDEA2;fill-rule:nonzero;"/>
        <path d="M48.65,363.339l2.566,4.216l-0.005,-4.87" style="fill:#383838;fill-rule:nonzero;"/>
        <path d="M53.78,363.339l-2.566,4.215l0.006,-4.87" style="fill:#2d2d2d;fill-rule:nonzero;"/>
        <path d="M48.81,371.109l0.688,-0.61l0.375,3.006l-1.063,-2.396Z" style="fill:#333;fill-rule:nonzero;"/>
        <path d="M53.63,371.129l-0.688,-0.61l-0.375,3.006l1.063,-2.396Z" style="fill:#1c1c1c;fill-rule:nonzero;"/>
      </g>
    </g>
    <path d="M21.964,180.196c-0.332,0.006 -0.597,0.28 -0.59,0.612l0,1.408c-2.521,0.13 -5.007,1.042 -7.047,2.756c-4.419,3.707 -5.55,10.112 -2.668,15.105l0.301,0.519l10.035,-5.793l10.035,5.793l0.3,-0.519c2.882,-4.993 1.753,-11.398 -2.668,-15.105c-2.051,-1.723 -4.554,-2.636 -7.089,-2.758l0,-1.41c0,-0.338 -0.272,-0.613 -0.61,-0.608l0.001,0Zm-0.586,3.219l0.019,10.35l-8.903,5.141c-2.209,-4.403 -1.209,-9.814 2.606,-13.014c1.819,-1.528 4.031,-2.348 6.277,-2.477l0.001,0Zm1.199,0c2.259,0.121 4.487,0.941 6.316,2.477c3.816,3.2 4.813,8.611 2.604,13.014l-8.903,-5.141l-0.017,-10.35Zm7.932,17.562l0.01,1.582l-1.605,0.008c-0.831,-0.028 -0.825,1.235 0.01,1.199l1.605,-0.008l0.01,1.629c-0.026,0.831 1.237,0.823 1.199,-0.008l-0.01,-1.625l1.604,-0.008c0.801,-0.004 0.795,-1.205 -0.01,-1.201l-1.606,0.008l-0.01,-1.584c0,-0.771 -1.197,-0.756 -1.197,0.008l0,0Zm-15.172,1.445l-4.414,0.02c-0.801,0.004 -0.795,1.205 0.01,1.201l4.414,-0.021c0.831,0.027 0.825,-1.236 -0.01,-1.2Z" style="fill:#FDDEA2;fill-rule:nonzero;"/>
    <path d="M56.964,180.196c-0.332,0.006 -0.597,0.28 -0.59,0.612l0,1.408c-2.521,0.13 -5.007,1.042 -7.047,2.756c-4.419,3.707 -5.55,10.112 -2.668,15.105l0.301,0.519l10.035,-5.793l10.035,5.793l0.3,-0.519c2.882,-4.993 1.753,-11.398 -2.668,-15.105c-2.051,-1.723 -4.554,-2.636 -7.089,-2.758l0,-1.41c0,-0.338 -0.272,-0.613 -0.61,-0.608l0.001,0Zm-0.586,3.219l0.019,10.35l-8.903,5.141c-2.209,-4.403 -1.209,-9.814 2.606,-13.014c1.819,-1.528 4.031,-2.348 6.277,-2.477l0.001,0Zm1.199,0c2.259,0.121 4.487,0.941 6.316,2.477c3.816,3.2 4.813,8.611 2.604,13.014l-8.903,-5.141l-0.017,-10.35Zm7.932,17.562l0.01,1.582l-1.605,0.008c-0.831,-0.028 -0.825,1.235 0.01,1.199l1.605,-0.008l0.01,1.629c-0.026,0.831 1.237,0.823 1.199,-0.008l-0.01,-1.625l1.604,-0.008c0.801,-0.004 0.795,-1.205 -0.01,-1.201l-1.606,0.008l-0.01,-1.584c0,-0.771 -1.197,-0.756 -1.197,0.008l0,0Zm-15.172,1.445l-4.414,0.02c-0.801,0.004 -0.795,1.205 0.01,1.201l4.414,-0.021c0.831,0.027 0.825,-1.236 -0.01,-1.2Z" style="fill:#FDDEA2;fill-rule:nonzero;"/>
    <path d="M91.964,180.196c-0.332,0.006 -0.597,0.28 -0.59,0.612l0,1.408c-2.521,0.13 -5.007,1.042 -7.047,2.756c-4.419,3.707 -5.55,10.112 -2.668,15.105l0.301,0.519l10.035,-5.793l10.035,5.793l0.3,-0.519c2.882,-4.993 1.753,-11.398 -2.668,-15.105c-2.051,-1.723 -4.554,-2.636 -7.089,-2.758l0,-1.41c0,-0.338 -0.272,-0.613 -0.61,-0.608l0.001,0Zm-0.586,3.219l0.019,10.35l-8.903,5.141c-2.209,-4.403 -1.209,-9.814 2.606,-13.014c1.819,-1.528 4.031,-2.348 6.277,-2.477l0.001,0Zm1.199,0c2.259,0.121 4.487,0.941 6.316,2.477c3.816,3.2 4.813,8.611 2.604,13.014l-8.903,-5.141l-0.017,-10.35Zm7.932,17.562l0.01,1.582l-1.605,0.008c-0.831,-0.028 -0.825,1.235 0.01,1.199l1.605,-0.008l0.01,1.629c-0.026,0.831 1.237,0.823 1.199,-0.008l-0.01,-1.625l1.604,-0.008c0.801,-0.004 0.795,-1.205 -0.01,-1.201l-1.606,0.008l-0.01,-1.584c0,-0.771 -1.197,-0.756 -1.197,0.008l0,0Zm-15.172,1.445l-4.414,0.02c-0.801,0.004 -0.795,1.205 0.01,1.201l4.414,-0.021c0.831,0.027 0.825,-1.236 -0.01,-1.2Z" style="fill:#FDDEA2;fill-rule:nonzero;"/>
    <path d="M126.964,180.196c-0.332,0.006 -0.597,0.28 -0.59,0.612l0,1.408c-2.521,0.13 -5.007,1.042 -7.047,2.756c-4.419,3.707 -5.55,10.112 -2.668,15.105l0.301,0.519l10.035,-5.793l10.035,5.793l0.3,-0.519c2.882,-4.993 1.753,-11.398 -2.668,-15.105c-2.051,-1.723 -4.554,-2.636 -7.089,-2.758l0,-1.41c0,-0.338 -0.272,-0.613 -0.61,-0.608l0.001,0Zm-0.586,3.219l0.019,10.35l-8.903,5.141c-2.209,-4.403 -1.209,-9.814 2.606,-13.014c1.819,-1.528 4.031,-2.348 6.277,-2.477l0.001,0Zm1.199,0c2.259,0.121 4.487,0.941 6.316,2.477c3.816,3.2 4.813,8.611 2.604,13.014l-8.903,-5.141l-0.017,-10.35Zm7.932,17.562l0.01,1.582l-1.605,0.008c-0.831,-0.028 -0.825,1.235 0.01,1.199l1.605,-0.008l0.01,1.629c-0.026,0.831 1.237,0.823 1.199,-0.008l-0.01,-1.625l1.604,-0.008c0.801,-0.004 0.795,-1.205 -0.01,-1.201l-1.606,0.008l-0.01,-1.584c0,-0.771 -1.197,-0.756 -1.197,0.008l0,0Zm-15.172,1.445l-4.414,0.02c-0.801,0.004 -0.795,1.205 0.01,1.201l4.414,-0.021c0.831,0.027 0.825,-1.236 -0.01,-1.2Z" style="fill:#FDDEA2;fill-rule:nonzero;"/>
    <path d="M142.648,322.933c0,-4.107 -3.334,-7.441 -7.441,-7.441l-121.423,0c-4.107,0 -7.441,3.334 -7.441,7.441l0,22.777c0,4.107 3.334,7.442 7.441,7.442l121.423,0c4.107,0 7.441,-3.335 7.441,-7.442l0,-22.777Z" style="fill:none;stroke:#FDDEA2;stroke-width:1px;stroke-linejoin:round;stroke-miterlimit:1.5;"/>
    <path d="M39.206,46.512c-5.706,0 -11.412,1.934 -16.027,5.804c-9.23,7.746 -11.587,21.128 -5.565,31.564c0.392,0.723 1.469,0.101 1.039,-0.599c-5.733,-9.934 -3.488,-22.672 5.297,-30.045c8.786,-7.369 21.725,-7.369 30.51,0c8.786,7.372 11.03,20.111 5.297,30.045c-0.43,0.7 0.647,1.322 1.039,0.599c6.023,-10.436 3.666,-23.819 -5.564,-31.564c-4.615,-3.87 -10.32,-5.804 -16.025,-5.804l-0.001,0Zm-18.883,41.52c-2.371,0 -4.307,1.935 -4.307,4.306c0,2.371 1.936,4.305 4.307,4.305c2.371,0 4.306,-1.934 4.306,-4.305c0,-2.371 -1.935,-4.306 -4.306,-4.306Zm37.766,0c-2.371,0 -4.305,1.933 -4.305,4.304c0,2.371 1.934,4.307 4.305,4.307c2.371,0 4.306,-1.936 4.306,-4.307c0,-2.371 -1.935,-4.304 -4.306,-4.304Zm-37.766,1.199c1.722,0 3.105,1.385 3.105,3.107c0,1.723 -1.383,3.106 -3.105,3.106c-1.723,0 -3.106,-1.383 -3.106,-3.106c0,-1.722 1.383,-3.107 3.106,-3.107Z" style="fill:#FDDEA2;fill-rule:nonzero;"/>
    <g>
      <path d="M39.206,117.512c-5.706,0 -11.412,1.934 -16.027,5.804c-9.23,7.746 -11.587,21.128 -5.565,31.564c0.392,0.723 1.469,0.101 1.039,-0.599c-5.733,-9.934 -3.488,-22.672 5.297,-30.045c8.786,-7.369 21.725,-7.369 30.51,0c8.786,7.372 11.03,20.111 5.297,30.045c-0.43,0.7 0.647,1.322 1.039,0.599c6.023,-10.436 3.666,-23.819 -5.564,-31.564c-4.615,-3.87 -10.32,-5.804 -16.025,-5.804l-0.001,0Zm-18.883,41.52c-2.371,0 -4.307,1.935 -4.307,4.306c0,2.371 1.936,4.305 4.307,4.305c2.371,0 4.306,-1.934 4.306,-4.305c0,-2.371 -1.935,-4.306 -4.306,-4.306Zm37.766,0c-2.371,0 -4.305,1.933 -4.305,4.304c0,2.371 1.934,4.307 4.305,4.307c2.371,0 4.306,-1.936 4.306,-4.307c0,-2.371 -1.935,-4.304 -4.306,-4.304Zm-37.766,1.199c1.722,0 3.105,1.385 3.105,3.107c0,1.723 -1.383,3.106 -3.105,3.106c-1.723,0 -3.106,-1.383 -3.106,-3.106c0,-1.722 1.383,-3.107 3.106,-3.107Z" style="fill:#FDDEA2;fill-rule:nonzero;"/>
      <path d="M39.136,116.483l0,3.166" style="fill:none;stroke:#FDDEA2;stroke-width:1.2px;stroke-linejoin:round;stroke-miterlimit:1.5;"/>
    </g>
    <path d="M109.206,46.512c-5.706,0 -11.412,1.934 -16.027,5.804c-9.23,7.746 -11.587,21.128 -5.565,31.564c0.392,0.723 1.469,0.101 1.039,-0.599c-5.733,-9.934 -3.488,-22.672 5.297,-30.045c8.786,-7.369 21.725,-7.369 30.51,0c8.786,7.372 11.03,20.111 5.297,30.045c-0.43,0.7 0.647,1.322 1.039,0.599c6.023,-10.436 3.666,-23.819 -5.564,-31.564c-4.615,-3.87 -10.32,-5.804 -16.025,-5.804l-0.001,0Zm-18.883,41.52c-2.371,0 -4.307,1.935 -4.307,4.306c0,2.371 1.936,4.305 4.307,4.305c2.371,0 4.306,-1.934 4.306,-4.305c0,-2.371 -1.935,-4.306 -4.306,-4.306Zm37.766,0c-2.371,0 -4.305,1.933 -4.305,4.304c0,2.371 1.934,4.307 4.305,4.307c2.371,0 4.306,-1.936 4.306,-4.307c0,-2.371 -1.935,-4.304 -4.306,-4.304Zm-37.766,1.199c1.722,0 3.105,1.385 3.105,3.107c0,1.723 -1.383,3.106 -3.105,3.106c-1.723,0 -3.106,-1.383 -3.106,-3.106c0,-1.722 1.383,-3.107 3.106,-3.107Z" style="fill:#FDDEA2;fill-rule:nonzero;"/>
    <path d="M32.044,97.962l0,4.116l-1.372,0l0,-4.116l-1.127,0l0,-1.162l3.626,0l0,1.162l-1.127,0Z" style="fill:#FDDEA2;fill-rule:nonzero;"/>
    <path d="M35.152,96.8l0,2.87c0,0.154 0.006,0.311 0.018,0.472c0.011,0.161 0.046,0.307 0.105,0.438c0.058,0.13 0.15,0.237 0.276,0.318c0.126,0.082 0.304,0.123 0.532,0.123c0.229,0 0.405,-0.041 0.529,-0.123c0.123,-0.081 0.216,-0.188 0.276,-0.318c0.061,-0.131 0.097,-0.277 0.109,-0.438c0.011,-0.161 0.017,-0.318 0.017,-0.472l0,-2.87l1.365,0l0,3.059c0,0.821 -0.188,1.421 -0.563,1.799c-0.376,0.378 -0.953,0.567 -1.733,0.567c-0.779,0 -1.358,-0.189 -1.736,-0.567c-0.378,-0.378 -0.567,-0.978 -0.567,-1.799l0,-3.059l1.372,0Z" style="fill:#FDDEA2;fill-rule:nonzero;"/>
    <path d="M39.485,102.078l0,-5.278l1.372,0l2.534,3.227l0,-3.227l1.365,0l0,5.278l-1.365,0l-2.534,-3.227l0,3.227l-1.372,0Z" style="fill:#FDDEA2;fill-rule:nonzero;"/>
    <path d="M48.865,97.962l-1.631,0l0,0.882l1.54,0l0,1.162l-1.54,0l0,0.91l1.631,0l0,1.162l-3.003,0l0,-5.278l3.003,0l0,1.162Z" style="fill:#FDDEA2;fill-rule:nonzero;"/>
    <path d="M31.414,172.014l0.301,0c0.346,0 0.593,-0.045 0.742,-0.133c0.15,-0.089 0.224,-0.231 0.224,-0.427c0,-0.196 -0.074,-0.339 -0.224,-0.427c-0.149,-0.089 -0.396,-0.133 -0.742,-0.133l-0.301,0l0,1.12Zm0,-2.142l0.252,0c0.43,0 0.644,-0.171 0.644,-0.511c0,-0.341 -0.214,-0.511 -0.644,-0.511l-0.252,0l0,1.022Zm-1.372,-2.072l2.044,0c0.486,0 0.854,0.116 1.106,0.35c0.252,0.233 0.378,0.569 0.378,1.008c0,0.266 -0.048,0.486 -0.143,0.661c-0.096,0.175 -0.242,0.323 -0.438,0.445c0.196,0.037 0.363,0.094 0.501,0.171c0.137,0.077 0.249,0.172 0.336,0.284c0.086,0.112 0.148,0.238 0.185,0.378c0.038,0.14 0.056,0.289 0.056,0.448c0,0.247 -0.043,0.466 -0.129,0.658c-0.087,0.191 -0.208,0.352 -0.364,0.483c-0.157,0.13 -0.347,0.228 -0.571,0.294c-0.224,0.065 -0.476,0.098 -0.756,0.098l-2.205,0l0,-5.278Z" style="fill:#FDDEA2;fill-rule:nonzero;"/>
    <path d="M36.041,170.439c0,0.21 0.04,0.403 0.119,0.581c0.08,0.177 0.187,0.331 0.322,0.462c0.136,0.13 0.293,0.232 0.473,0.304c0.179,0.073 0.37,0.109 0.57,0.109c0.201,0 0.391,-0.036 0.571,-0.109c0.179,-0.072 0.338,-0.174 0.476,-0.304c0.137,-0.131 0.246,-0.285 0.325,-0.462c0.08,-0.178 0.119,-0.371 0.119,-0.581c0,-0.21 -0.039,-0.404 -0.119,-0.581c-0.079,-0.178 -0.188,-0.332 -0.325,-0.462c-0.138,-0.131 -0.297,-0.232 -0.476,-0.305c-0.18,-0.072 -0.37,-0.108 -0.571,-0.108c-0.2,0 -0.391,0.036 -0.57,0.108c-0.18,0.073 -0.337,0.174 -0.473,0.305c-0.135,0.13 -0.242,0.284 -0.322,0.462c-0.079,0.177 -0.119,0.371 -0.119,0.581Zm-1.435,0c0,-0.392 0.073,-0.757 0.217,-1.096c0.145,-0.338 0.346,-0.633 0.602,-0.885c0.257,-0.252 0.564,-0.449 0.921,-0.592c0.357,-0.142 0.75,-0.213 1.179,-0.213c0.425,0 0.817,0.071 1.176,0.213c0.36,0.143 0.669,0.34 0.928,0.592c0.259,0.252 0.461,0.547 0.605,0.885c0.145,0.339 0.217,0.704 0.217,1.096c0,0.392 -0.072,0.757 -0.217,1.095c-0.144,0.339 -0.346,0.634 -0.605,0.886c-0.259,0.252 -0.568,0.449 -0.928,0.591c-0.359,0.143 -0.751,0.214 -1.176,0.214c-0.429,0 -0.822,-0.071 -1.179,-0.214c-0.357,-0.142 -0.664,-0.339 -0.921,-0.591c-0.256,-0.252 -0.457,-0.547 -0.602,-0.886c-0.144,-0.338 -0.217,-0.703 -0.217,-1.095Z" style="fill:#FDDEA2;fill-rule:nonzero;"/>
    <path d="M43.265,168.962l0,4.116l-1.372,0l0,-4.116l-1.127,0l0,-1.162l3.626,0l0,1.162l-1.127,0Z" style="fill:#FDDEA2;fill-rule:nonzero;"/>
    <path d="M46.373,169.837l1.981,0l0,-2.037l1.372,0l0,5.278l-1.372,0l0,-2.177l-1.981,0l0,2.177l-1.372,0l0,-5.278l1.372,0l0,2.037Z" style="fill:#FDDEA2;fill-rule:nonzero;"/>
    <path d="M93.414,99.222l0.455,0c0.504,0 0.756,-0.22 0.756,-0.658c0,-0.439 -0.252,-0.658 -0.756,-0.658l-0.455,0l0,1.316Zm0,2.856l-1.372,0l0,-5.278l2.184,0c0.593,0 1.047,0.154 1.362,0.462c0.315,0.308 0.472,0.742 0.472,1.302c0,0.56 -0.157,0.994 -0.472,1.302c-0.315,0.308 -0.769,0.462 -1.362,0.462l-0.812,0l0,1.75Z" style="fill:#FDDEA2;fill-rule:nonzero;"/>
    <path d="M97.67,96.8l0.91,3.409l1.12,-3.409l1.092,0l1.12,3.409l0.91,-3.409l1.435,0l-1.575,5.278l-1.4,0l-1.036,-3.059l-1.036,3.059l-1.4,0l-1.575,-5.278l1.435,0Z" style="fill:#FDDEA2;fill-rule:nonzero;"/>
    <path d="M107.127,96.268l1.001,0l-2.884,7.021l-0.994,0l2.877,-7.021Z" style="fill:#FDDEA2;fill-rule:nonzero;"/>
    <path d="M111.439,98.151c-0.149,-0.122 -0.298,-0.211 -0.448,-0.27c-0.149,-0.058 -0.294,-0.087 -0.434,-0.087c-0.177,0 -0.322,0.042 -0.434,0.126c-0.112,0.084 -0.168,0.193 -0.168,0.329c0,0.093 0.028,0.17 0.084,0.231c0.056,0.06 0.13,0.113 0.221,0.157c0.091,0.045 0.193,0.083 0.308,0.116c0.114,0.032 0.227,0.067 0.339,0.105c0.448,0.149 0.776,0.349 0.984,0.598c0.207,0.25 0.311,0.575 0.311,0.977c0,0.27 -0.045,0.515 -0.136,0.735c-0.091,0.219 -0.224,0.407 -0.399,0.563c-0.175,0.157 -0.39,0.278 -0.644,0.364c-0.255,0.087 -0.543,0.13 -0.865,0.13c-0.667,0 -1.285,-0.199 -1.855,-0.595l0.588,-1.106c0.206,0.182 0.409,0.317 0.609,0.406c0.201,0.088 0.399,0.133 0.595,0.133c0.224,0 0.391,-0.052 0.501,-0.154c0.109,-0.103 0.164,-0.22 0.164,-0.35c0,-0.08 -0.014,-0.148 -0.042,-0.207c-0.028,-0.058 -0.074,-0.112 -0.14,-0.161c-0.065,-0.049 -0.15,-0.094 -0.255,-0.136c-0.105,-0.042 -0.232,-0.089 -0.382,-0.14c-0.177,-0.056 -0.351,-0.118 -0.521,-0.186c-0.171,-0.067 -0.322,-0.157 -0.455,-0.269c-0.133,-0.112 -0.241,-0.253 -0.322,-0.424c-0.082,-0.17 -0.123,-0.386 -0.123,-0.647c0,-0.262 0.043,-0.498 0.13,-0.711c0.086,-0.212 0.207,-0.394 0.364,-0.546c0.156,-0.151 0.347,-0.269 0.574,-0.353c0.226,-0.084 0.479,-0.126 0.759,-0.126c0.262,0 0.535,0.036 0.819,0.108c0.285,0.073 0.558,0.179 0.819,0.319l-0.546,1.071Z" style="fill:#FDDEA2;fill-rule:nonzero;"/>
    <path d="M114.435,98.977l1.673,-2.177l1.694,0l-2.093,2.499l2.289,2.779l-1.778,0l-1.785,-2.289l0,2.289l-1.372,0l0,-5.278l1.372,0l0,2.177Z" style="fill:#FDDEA2;fill-rule:nonzero;"/>
    <rect x="118.607" y="96.8" width="1.372" height="5.278" style="fill:#FDDEA2;fill-rule:nonzero;"/>
    <path d="M122.457,99.222l0.455,0c0.504,0 0.756,-0.22 0.756,-0.658c0,-0.439 -0.252,-0.658 -0.756,-0.658l-0.455,0l0,1.316Zm0,2.856l-1.372,0l0,-5.278l2.184,0c0.593,0 1.047,0.154 1.362,0.462c0.315,0.308 0.472,0.742 0.472,1.302c0,0.56 -0.157,0.994 -0.472,1.302c-0.315,0.308 -0.769,0.462 -1.362,0.462l-0.812,0l0,1.75Z" style="fill:#FDDEA2;fill-rule:nonzero;"/>
    <path d="M109.206,116.512c-5.706,0 -11.412,1.934 -16.027,5.804c-9.23,7.746 -11.587,21.128 -5.565,31.564c0.392,0.723 1.469,0.101 1.039,-0.599c-5.733,-9.934 -3.488,-22.672 5.297,-30.045c8.786,-7.369 21.725,-7.369 30.51,0c8.786,7.372 11.03,20.111 5.297,30.045c-0.43,0.7 0.647,1.322 1.039,0.599c6.023,-10.436 3.666,-23.819 -5.564,-31.564c-4.615,-3.87 -10.32,-5.804 -16.025,-5.804l-0.001,0Zm-18.883,41.52c-2.371,0 -4.307,1.935 -4.307,4.306c0,2.371 1.936,4.305 4.307,4.305c2.371,0 4.306,-1.934 4.306,-4.305c0,-2.371 -1.935,-4.306 -4.306,-4.306Zm37.766,0c-2.371,0 -4.305,1.933 -4.305,4.304c0,2.371 1.934,4.307 4.305,4.307c2.371,0 4.306,-1.936 4.306,-4.307c0,-2.371 -1.935,-4.304 -4.306,-4.304Zm-37.766,1.199c1.722,0 3.105,1.385 3.105,3.107c0,1.723 -1.383,3.106 -3.105,3.106c-1.723,0 -3.106,-1.383 -3.106,-3.106c0,-1.722 1.383,-3.107 3.106,-3.107Z" style="fill:#FDDEA2;fill-rule:nonzero;"/>
    <path d="M98.924,166.8l0.91,3.409l1.12,-3.409l1.092,0l1.12,3.409l0.91,-3.409l1.435,0l-1.575,5.278l-1.4,0l-1.036,-3.059l-1.036,3.059l-1.4,0l-1.575,-5.278l1.435,0Z" style="fill:#FDDEA2;fill-rule:nonzero;"/>
    <path d="M108.654,170.118l-0.616,-1.757l-0.616,1.757l1.232,0Zm0.364,1.043l-1.96,0l-0.315,0.917l-1.463,0l2.009,-5.278l1.498,0l2.009,5.278l-1.463,0l-0.315,-0.917Z" style="fill:#FDDEA2;fill-rule:nonzero;"/>
    <path d="M111.93,166.8l1.274,3.213l1.281,-3.213l1.491,0l-2.226,5.278l-1.092,0l-2.219,-5.278l1.491,0Z" style="fill:#FDDEA2;fill-rule:nonzero;"/>
    <path d="M119.532,167.962l-1.631,0l0,0.882l1.54,0l0,1.162l-1.54,0l0,0.91l1.631,0l0,1.162l-3.003,0l0,-5.278l3.003,0l0,1.162Z" style="fill:#FDDEA2;fill-rule:nonzero;"/>
    <path d="M52.513,17.95l2.116,5.336l2.127,-5.336l2.476,0l-3.697,8.765l-1.813,0l-3.685,-8.765l2.476,0Z" style="fill:#FDDEA2;fill-rule:nonzero;"/>
    <path d="M62.429,17.95l0,4.766c0,0.256 0.01,0.518 0.029,0.785c0.019,0.267 0.078,0.51 0.174,0.727c0.097,0.217 0.25,0.393 0.46,0.529c0.209,0.135 0.503,0.203 0.883,0.203c0.38,0 0.672,-0.068 0.878,-0.203c0.205,-0.136 0.358,-0.312 0.459,-0.529c0.101,-0.217 0.161,-0.46 0.18,-0.727c0.019,-0.267 0.029,-0.529 0.029,-0.785l0,-4.766l2.267,0l0,5.08c0,1.364 -0.312,2.36 -0.936,2.988c-0.624,0.628 -1.583,0.942 -2.877,0.942c-1.294,0 -2.255,-0.314 -2.883,-0.942c-0.628,-0.628 -0.942,-1.624 -0.942,-2.988l0,-5.08l2.279,0Z" style="fill:#FDDEA2;fill-rule:nonzero;"/>
    <path d="M71.903,17.95l0,6.836l2.732,0l0,1.929l-5.01,0l0,-8.765l2.278,0Z" style="fill:#FDDEA2;fill-rule:nonzero;"/>
    <path d="M78.669,19.88l0,6.835l-2.278,0l0,-6.835l-1.872,0l0,-1.93l6.022,0l0,1.93l-1.872,0Z" style="fill:#FDDEA2;fill-rule:nonzero;"/>
    <path d="M85.911,23.46l-1.023,-2.917l-1.023,2.917l2.046,0Zm0.605,1.733l-3.255,0l-0.523,1.522l-2.43,0l3.337,-8.765l2.487,0l3.337,8.765l-2.43,0l-0.523,-1.522Z" style="fill:#FDDEA2;fill-rule:nonzero;"/>
    <path d="M92.747,21.868l0.43,0c0.45,0 0.794,-0.093 1.035,-0.279c0.24,-0.186 0.36,-0.454 0.36,-0.802c0,-0.349 -0.12,-0.616 -0.36,-0.802c-0.241,-0.186 -0.585,-0.279 -1.035,-0.279l-0.43,0l0,2.162Zm5.01,4.847l-2.836,0l-2.174,-3.371l0,3.371l-2.279,0l0,-8.765l3.546,0c0.488,0 0.915,0.072 1.279,0.215c0.364,0.144 0.664,0.339 0.901,0.587c0.236,0.248 0.414,0.535 0.534,0.861c0.121,0.325 0.181,0.674 0.181,1.046c0,0.666 -0.161,1.207 -0.483,1.621c-0.321,0.415 -0.796,0.696 -1.424,0.843l2.755,3.592Z" style="fill:#FDDEA2;fill-rule:nonzero;"/>
    <rect x="98.711" y="17.95" width="2.278" height="8.765" style="fill:#FDDEA2;fill-rule:nonzero;"/>
    <path d="M51.044,33.809c0.395,0 0.749,0.102 1.059,0.306c0.311,0.204 0.553,0.492 0.727,0.864c0.173,0.371 0.26,0.794 0.26,1.269c0,0.475 -0.085,0.894 -0.256,1.257c-0.17,0.362 -0.411,0.641 -0.722,0.835c-0.31,0.195 -0.666,0.293 -1.068,0.293c-0.323,0 -0.613,-0.067 -0.868,-0.201c-0.256,-0.134 -0.451,-0.32 -0.585,-0.557l0,2.658l-1.379,0l0,-5.28c0,-0.494 -0.025,-0.935 -0.074,-1.325l1.298,0l0.091,0.767c0.122,-0.274 0.318,-0.49 0.589,-0.648c0.271,-0.159 0.58,-0.238 0.928,-0.238Zm-0.393,3.773c0.341,0 0.603,-0.114 0.785,-0.342c0.183,-0.229 0.274,-0.559 0.274,-0.992c0,-0.432 -0.092,-0.77 -0.278,-1.014c-0.186,-0.243 -0.446,-0.365 -0.781,-0.365c-0.341,0 -0.605,0.117 -0.79,0.352c-0.186,0.234 -0.279,0.571 -0.279,1.009c0,0.439 0.093,0.774 0.279,1.005c0.185,0.231 0.449,0.347 0.79,0.347Z" style="fill:#FDDEA2;fill-rule:nonzero;"/>
    <path d="M58.398,33.928l0,4.632l-1.343,0l0,-0.676c-0.146,0.243 -0.338,0.429 -0.576,0.557c-0.237,0.128 -0.505,0.192 -0.804,0.192c-0.578,0 -1.011,-0.162 -1.297,-0.484c-0.286,-0.323 -0.429,-0.81 -0.429,-1.462l0,-2.759l1.379,0l0,2.786c0,0.561 0.241,0.841 0.722,0.841c0.286,0 0.518,-0.098 0.694,-0.293c0.177,-0.194 0.265,-0.45 0.265,-0.767l0,-2.567l1.389,0Z" style="fill:#FDDEA2;fill-rule:nonzero;"/>
    <path d="M62.372,33.809c1.096,0 1.644,0.649 1.644,1.946l0,2.805l-1.379,0l0,-2.741c0,-0.323 -0.06,-0.559 -0.179,-0.708c-0.118,-0.149 -0.306,-0.224 -0.561,-0.224c-0.305,0 -0.549,0.098 -0.731,0.293c-0.183,0.194 -0.274,0.456 -0.274,0.785l0,2.595l-1.38,0l0,-3.307c0,-0.494 -0.024,-0.935 -0.073,-1.325l1.297,0l0.092,0.731c0.164,-0.274 0.379,-0.484 0.644,-0.631c0.265,-0.146 0.565,-0.219 0.9,-0.219Z" style="fill:#FDDEA2;fill-rule:nonzero;"/>
    <path d="M70,38.56l-1.69,0l-1.818,-2.074l0,2.074l-1.38,0l0,-6.724l1.38,0l0,4.084l1.735,-1.983l1.654,0l-1.964,2.22l2.083,2.403Z" style="fill:#FDDEA2;fill-rule:nonzero;"/>
    <path d="M75.107,38.633c-0.756,0 -1.348,-0.213 -1.777,-0.64c-0.43,-0.426 -0.644,-1.008 -0.644,-1.745c0,-0.481 0.103,-0.906 0.31,-1.274c0.207,-0.368 0.498,-0.655 0.873,-0.859c0.374,-0.204 0.808,-0.306 1.301,-0.306c0.335,0 0.661,0.052 0.978,0.156c0.317,0.103 0.569,0.243 0.758,0.42l-0.365,0.959c-0.183,-0.146 -0.384,-0.26 -0.603,-0.343c-0.219,-0.082 -0.433,-0.123 -0.64,-0.123c-0.377,0 -0.671,0.114 -0.881,0.343c-0.21,0.228 -0.315,0.561 -0.315,1c0,0.445 0.103,0.781 0.31,1.009c0.207,0.229 0.503,0.343 0.886,0.343c0.207,0 0.421,-0.041 0.64,-0.123c0.219,-0.083 0.42,-0.197 0.603,-0.343l0.365,0.959c-0.201,0.177 -0.463,0.316 -0.785,0.416c-0.323,0.101 -0.661,0.151 -1.014,0.151Z" style="fill:#FDDEA2;fill-rule:nonzero;"/>
    <path d="M79.775,38.633c-0.494,0 -0.924,-0.098 -1.293,-0.293c-0.368,-0.194 -0.652,-0.475 -0.849,-0.84c-0.198,-0.365 -0.297,-0.792 -0.297,-1.279c0,-0.487 0.099,-0.914 0.297,-1.279c0.197,-0.365 0.481,-0.646 0.849,-0.84c0.369,-0.195 0.799,-0.293 1.293,-0.293c0.487,0 0.913,0.098 1.279,0.293c0.365,0.194 0.647,0.475 0.845,0.84c0.198,0.365 0.297,0.792 0.297,1.279c0,0.487 -0.099,0.914 -0.297,1.279c-0.198,0.365 -0.48,0.646 -0.845,0.84c-0.366,0.195 -0.792,0.293 -1.279,0.293Zm0,-1.051c0.341,0 0.601,-0.113 0.781,-0.338c0.18,-0.225 0.269,-0.566 0.269,-1.023c0,-0.451 -0.089,-0.79 -0.269,-1.019c-0.18,-0.228 -0.44,-0.342 -0.781,-0.342c-0.347,0 -0.612,0.114 -0.795,0.342c-0.183,0.229 -0.274,0.568 -0.274,1.019c0,0.907 0.356,1.361 1.069,1.361Z" style="fill:#FDDEA2;fill-rule:nonzero;"/>
    <path d="M85.941,33.809c1.097,0 1.645,0.649 1.645,1.946l0,2.805l-1.38,0l0,-2.741c0,-0.323 -0.059,-0.559 -0.178,-0.708c-0.119,-0.149 -0.306,-0.224 -0.562,-0.224c-0.304,0 -0.548,0.098 -0.731,0.293c-0.182,0.194 -0.274,0.456 -0.274,0.785l0,2.595l-1.379,0l0,-3.307c0,-0.494 -0.025,-0.935 -0.073,-1.325l1.297,0l0.091,0.731c0.165,-0.274 0.379,-0.484 0.644,-0.631c0.265,-0.146 0.565,-0.219 0.9,-0.219Z" style="fill:#FDDEA2;fill-rule:nonzero;"/>
    <path d="M90.454,38.633c-0.877,0 -1.568,-0.189 -2.074,-0.567l0.366,-0.959c0.243,0.177 0.515,0.312 0.813,0.407c0.298,0.094 0.603,0.141 0.913,0.141c0.238,0 0.421,-0.036 0.549,-0.109c0.128,-0.073 0.191,-0.18 0.191,-0.32c0,-0.116 -0.045,-0.207 -0.137,-0.274c-0.091,-0.067 -0.252,-0.125 -0.484,-0.174l-0.758,-0.173c-0.445,-0.098 -0.772,-0.253 -0.982,-0.466c-0.21,-0.213 -0.315,-0.497 -0.315,-0.85c0,-0.286 0.084,-0.542 0.251,-0.767c0.167,-0.226 0.4,-0.401 0.699,-0.526c0.298,-0.124 0.642,-0.187 1.032,-0.187c0.329,0 0.652,0.05 0.969,0.151c0.316,0.1 0.599,0.242 0.849,0.425l-0.384,0.922c-0.237,-0.164 -0.479,-0.289 -0.726,-0.374c-0.246,-0.085 -0.486,-0.128 -0.717,-0.128c-0.225,0 -0.402,0.04 -0.53,0.119c-0.128,0.079 -0.192,0.189 -0.192,0.329c0,0.103 0.038,0.187 0.115,0.251c0.076,0.064 0.211,0.117 0.406,0.16l0.777,0.173c0.475,0.11 0.819,0.274 1.032,0.494c0.213,0.219 0.32,0.511 0.32,0.877c0,0.438 -0.177,0.785 -0.53,1.041c-0.353,0.256 -0.838,0.384 -1.453,0.384Z" style="fill:#FDDEA2;fill-rule:nonzero;"/>
    <path d="M95.488,38.633c-0.493,0 -0.924,-0.098 -1.293,-0.293c-0.368,-0.194 -0.651,-0.475 -0.849,-0.84c-0.198,-0.365 -0.297,-0.792 -0.297,-1.279c0,-0.487 0.099,-0.914 0.297,-1.279c0.198,-0.365 0.481,-0.646 0.849,-0.84c0.369,-0.195 0.8,-0.293 1.293,-0.293c0.487,0 0.913,0.098 1.279,0.293c0.365,0.194 0.647,0.475 0.845,0.84c0.198,0.365 0.297,0.792 0.297,1.279c0,0.487 -0.099,0.914 -0.297,1.279c-0.198,0.365 -0.48,0.646 -0.845,0.84c-0.366,0.195 -0.792,0.293 -1.279,0.293Zm0,-1.051c0.341,0 0.601,-0.113 0.781,-0.338c0.18,-0.225 0.269,-0.566 0.269,-1.023c0,-0.451 -0.089,-0.79 -0.269,-1.019c-0.18,-0.228 -0.44,-0.342 -0.781,-0.342c-0.347,0 -0.612,0.114 -0.795,0.342c-0.183,0.229 -0.274,0.568 -0.274,1.019c0,0.907 0.356,1.361 1.069,1.361Z" style="fill:#FDDEA2;fill-rule:nonzero;"/>
    <rect x="98.795" y="31.836" width="1.379" height="6.724" style="fill:#FDDEA2;fill-rule:nonzero;"/>
    <path d="M105.455,36.358l-3.052,0c0.025,0.432 0.138,0.748 0.338,0.946c0.201,0.197 0.5,0.296 0.896,0.296c0.237,0 0.475,-0.039 0.712,-0.118c0.238,-0.079 0.457,-0.195 0.658,-0.347l0.366,0.931c-0.22,0.177 -0.492,0.316 -0.818,0.416c-0.326,0.101 -0.653,0.151 -0.982,0.151c-0.78,0 -1.392,-0.215 -1.836,-0.644c-0.445,-0.43 -0.667,-1.016 -0.667,-1.759c0,-0.469 0.096,-0.888 0.287,-1.256c0.192,-0.368 0.462,-0.655 0.809,-0.859c0.347,-0.204 0.74,-0.306 1.178,-0.306c0.652,0 1.167,0.212 1.544,0.635c0.378,0.423 0.567,0.994 0.567,1.713l0,0.201Zm-2.074,-1.58c-0.262,0 -0.474,0.076 -0.635,0.228c-0.161,0.152 -0.266,0.375 -0.315,0.667l1.836,0c-0.073,-0.597 -0.368,-0.895 -0.886,-0.895Z" style="fill:#FDDEA2;fill-rule:nonzero;"/>
    <path d="M20.277,270.053l0,1.625l1.714,1.095l-2.817,0.895l2.817,1.185l-2.817,0.833l2.817,1.469l-2.817,1.289l1.57,0.756l0,1.841" style="fill:none;stroke:#FDDEA2;stroke-width:0.55px;stroke-linejoin:round;stroke-miterlimit:1.5;"/>
    <path d="M20.244,269.841l6.632,0" style="fill:none;stroke:#FDDEA2;stroke-width:0.55px;stroke-linejoin:round;stroke-miterlimit:1.5;"/>
    <path d="M20.7,280.98l6.176,0" style="fill:none;stroke:#FDDEA2;stroke-width:0.55px;stroke-linejoin:round;stroke-miterlimit:1.5;"/>
    <path d="M20.674,281.066l0,10.526l12.568,0l2.034,0l15.455,0l0,-10.526" style="fill:none;stroke:#FDDEA2;stroke-width:0.55px;stroke-linejoin:round;stroke-miterlimit:1.5;"/>
    <path d="M47.453,269.894l3.278,0" style="fill:none;stroke:#FDDEA2;stroke-width:0.55px;stroke-linejoin:round;stroke-miterlimit:1.5;"/>
    <path d="M47.488,281.094l3.142,0" style="fill:none;stroke:#FDDEA2;stroke-width:0.55px;stroke-linejoin:round;stroke-miterlimit:1.5;"/>
    <path d="M50.645,291.489l0,3.912" style="fill:none;stroke:#FDDEA2;stroke-width:0.55px;stroke-linejoin:round;stroke-miterlimit:1.5;"/>
    <path d="M53.383,295.401l-5.384,0" style="fill:none;stroke:#FDDEA2;stroke-width:0.55px;stroke-linejoin:round;stroke-miterlimit:1.5;"/>
    <path d="M53.383,297.839l-5.384,0" style="fill:none;stroke:#FDDEA2;stroke-width:0.55px;stroke-linejoin:round;stroke-miterlimit:1.5;"/>
    <g>
      <g>
        <path d="M69.101,294.374l0,-5.384" style="fill:none;stroke:#FDDEA2;stroke-width:0.55px;stroke-linejoin:round;stroke-miterlimit:1.5;"/>
        <path d="M66.663,294.374l0,-5.384" style="fill:none;stroke:#FDDEA2;stroke-width:0.55px;stroke-linejoin:round;stroke-miterlimit:1.5;"/>
      </g>
      <path d="M63.915,291.715l2.449,0" style="fill:none;stroke:#FDDEA2;stroke-width:0.55px;stroke-linejoin:round;stroke-miterlimit:1.5;"/>
      <path d="M69.282,291.699l4.775,0" style="fill:none;stroke:#FDDEA2;stroke-width:0.55px;stroke-linejoin:round;stroke-miterlimit:1.5;"/>
    </g>
    <g>
      <g>
        <path d="M133.233,273.394l0,-5.384" style="fill:none;stroke:#FDDEA2;stroke-width:0.55px;stroke-linejoin:round;stroke-miterlimit:1.5;"/>
        <path d="M130.795,273.394l0,-5.384" style="fill:none;stroke:#FDDEA2;stroke-width:0.55px;stroke-linejoin:round;stroke-miterlimit:1.5;"/>
      </g>
      <path d="M128.047,270.735l2.448,0" style="fill:none;stroke:#FDDEA2;stroke-width:0.55px;stroke-linejoin:round;stroke-miterlimit:1.5;"/>
      <path d="M133.413,270.719l4.776,0" style="fill:none;stroke:#FDDEA2;stroke-width:0.55px;stroke-linejoin:round;stroke-miterlimit:1.5;"/>
    </g>
    <path d="M50.682,297.845l0,4.322" style="fill:none;stroke:#FDDEA2;stroke-width:0.55px;stroke-linejoin:round;stroke-miterlimit:1.5;"/>
    <g>
      <path d="M53.595,302.216l-5.754,0" style="fill:none;stroke:#FDDEA2;stroke-width:0.55px;stroke-linejoin:round;stroke-miterlimit:1.5;"/>
      <path d="M52.32,303.612l-3.203,0" style="fill:none;stroke:#FDDEA2;stroke-width:0.55px;stroke-linejoin:round;stroke-miterlimit:1.5;"/>
      <path d="M51.31,304.959l-1.183,0" style="fill:none;stroke:#FDDEA2;stroke-width:0.55px;stroke-linejoin:round;stroke-miterlimit:1.5;"/>
    </g>
    <g>
      <g>
        <path d="M78.188,297.677l-5.755,0" style="fill:none;stroke:#FDDEA2;stroke-width:0.55px;stroke-linejoin:round;stroke-miterlimit:1.5;"/>
        <path d="M76.912,299.073l-3.203,0" style="fill:none;stroke:#FDDEA2;stroke-width:0.55px;stroke-linejoin:round;stroke-miterlimit:1.5;"/>
        <path d="M75.902,300.42l-1.183,0" style="fill:none;stroke:#FDDEA2;stroke-width:0.55px;stroke-linejoin:round;stroke-miterlimit:1.5;"/>
      </g>
      <path d="M80.708,291.45l0,4.47l-1.495,0l0,-4.47l1.495,0" style="fill:none;stroke:#FDDEA2;stroke-width:0.55px;stroke-linejoin:round;stroke-miterlimit:1.5;"/>
      <path d="M79.213,295.92l-3.902,0" style="fill:none;stroke:#FDDEA2;stroke-width:0.55px;stroke-linejoin:round;stroke-miterlimit:1.5;"/>
      <path d="M75.311,295.92l0,1.659" style="fill:none;stroke:#FDDEA2;stroke-width:0.55px;stroke-linejoin:round;stroke-miterlimit:1.5;"/>
      <path d="M78.109,291.696l-0.749,0.897l-0.811,-0.897l-2.573,0" style="fill:none;stroke:#FDDEA2;stroke-width:0.55px;stroke-linejoin:round;stroke-miterlimit:1.5;"/>
    </g>
    <g>
      <g>
        <path d="M142.073,276.692l-5.754,0" style="fill:none;stroke:#FDDEA2;stroke-width:0.55px;stroke-linejoin:round;stroke-miterlimit:1.5;"/>
        <path d="M140.797,278.088l-3.203,0" style="fill:none;stroke:#FDDEA2;stroke-width:0.55px;stroke-linejoin:round;stroke-miterlimit:1.5;"/>
        <path d="M139.787,279.435l-1.183,0" style="fill:none;stroke:#FDDEA2;stroke-width:0.55px;stroke-linejoin:round;stroke-miterlimit:1.5;"/>
      </g>
      <path d="M144.593,270.465l0,4.47l-1.494,0l0,-4.47l1.494,0" style="fill:none;stroke:#FDDEA2;stroke-width:0.55px;stroke-linejoin:round;stroke-miterlimit:1.5;"/>
      <path d="M143.099,274.935l-3.903,0" style="fill:none;stroke:#FDDEA2;stroke-width:0.55px;stroke-linejoin:round;stroke-miterlimit:1.5;"/>
      <path d="M139.196,274.935l0,1.659" style="fill:none;stroke:#FDDEA2;stroke-width:0.55px;stroke-linejoin:round;stroke-miterlimit:1.5;"/>
      <path d="M141.994,270.711l-0.748,0.897l-0.812,-0.897l-2.573,0" style="fill:none;stroke:#FDDEA2;stroke-width:0.55px;stroke-linejoin:round;stroke-miterlimit:1.5;"/>
    </g>
    <g>
      <g>
        <path d="M142.043,298.355l-5.754,0" style="fill:none;stroke:#FDDEA2;stroke-width:0.55px;stroke-linejoin:round;stroke-miterlimit:1.5;"/>
        <path d="M140.767,299.751l-3.203,0" style="fill:none;stroke:#FDDEA2;stroke-width:0.55px;stroke-linejoin:round;stroke-miterlimit:1.5;"/>
        <path d="M139.757,301.098l-1.183,0" style="fill:none;stroke:#FDDEA2;stroke-width:0.55px;stroke-linejoin:round;stroke-miterlimit:1.5;"/>
      </g>
      <path d="M144.563,292.129l0,4.469l-1.495,0l0,-4.469l1.495,0" style="fill:none;stroke:#FDDEA2;stroke-width:0.55px;stroke-linejoin:round;stroke-miterlimit:1.5;"/>
      <path d="M143.068,296.598l-3.902,0" style="fill:none;stroke:#FDDEA2;stroke-width:0.55px;stroke-linejoin:round;stroke-miterlimit:1.5;"/>
      <path d="M139.166,296.598l0,1.659" style="fill:none;stroke:#FDDEA2;stroke-width:0.55px;stroke-linejoin:round;stroke-miterlimit:1.5;"/>
      <path d="M141.964,292.375l-0.749,0.897l-0.811,-0.897l-2.573,0" style="fill:none;stroke:#FDDEA2;stroke-width:0.55px;stroke-linejoin:round;stroke-miterlimit:1.5;"/>
    </g>
    <g>
      <path d="M53.595,302.216l-5.754,0" style="fill:none;stroke:#FDDEA2;stroke-width:0.55px;stroke-linejoin:round;stroke-miterlimit:1.5;"/>
      <path d="M52.32,303.612l-3.203,0" style="fill:none;stroke:#FDDEA2;stroke-width:0.55px;stroke-linejoin:round;stroke-miterlimit:1.5;"/>
      <path d="M51.31,304.959l-1.183,0" style="fill:none;stroke:#FDDEA2;stroke-width:0.55px;stroke-linejoin:round;stroke-miterlimit:1.5;"/>
    </g>
    <path d="M37.228,284.421l0,2.056" style="fill:none;stroke:#FDDEA2;stroke-width:0.55px;stroke-linejoin:round;stroke-miterlimit:1.5;"/>
    <g>
      <path d="M40.141,286.526l-5.754,0" style="fill:none;stroke:#FDDEA2;stroke-width:0.55px;stroke-linejoin:round;stroke-miterlimit:1.5;"/>
      <path d="M38.865,287.922l-3.203,0" style="fill:none;stroke:#FDDEA2;stroke-width:0.55px;stroke-linejoin:round;stroke-miterlimit:1.5;"/>
      <path d="M37.855,289.27l-1.183,0" style="fill:none;stroke:#FDDEA2;stroke-width:0.55px;stroke-linejoin:round;stroke-miterlimit:1.5;"/>
    </g>
    <path d="M101.341,284.709l0,2.057" style="fill:none;stroke:#FDDEA2;stroke-width:0.55px;stroke-linejoin:round;stroke-miterlimit:1.5;"/>
    <g>
      <path d="M104.255,286.815l-5.755,0" style="fill:none;stroke:#FDDEA2;stroke-width:0.55px;stroke-linejoin:round;stroke-miterlimit:1.5;"/>
      <path d="M102.979,288.21l-3.203,0" style="fill:none;stroke:#FDDEA2;stroke-width:0.55px;stroke-linejoin:round;stroke-miterlimit:1.5;"/>
      <path d="M101.969,289.558l-1.183,0" style="fill:none;stroke:#FDDEA2;stroke-width:0.55px;stroke-linejoin:round;stroke-miterlimit:1.5;"/>
    </g>
    <rect x="91.063" y="267.005" width="20.604" height="17.588" style="fill:none;stroke:#FDDEA2;stroke-width:0.55px;stroke-linejoin:round;stroke-miterlimit:1.5;"/>
    <rect x="27.084" y="267.005" width="20.479" height="17.588" style="fill:none;stroke:#FDDEA2;stroke-width:0.55px;stroke-linejoin:round;stroke-miterlimit:1.5;"/>
    <path d="M84.749,270.692l5.834,0" style="fill:none;stroke:#FDDEA2;stroke-width:0.55px;stroke-linejoin:round;stroke-miterlimit:1.5;"/>
    <path d="M84.608,281.831l6.176,0" style="fill:none;stroke:#FDDEA2;stroke-width:0.55px;stroke-linejoin:round;stroke-miterlimit:1.5;"/>
    <path d="M84.513,281.917l0,10.461l15.419,0l2.782,0l18.385,0" style="fill:none;stroke:#FDDEA2;stroke-width:0.55px;stroke-linejoin:round;stroke-miterlimit:1.5;"/>
    <path d="M111.737,270.745l19.037,0" style="fill:none;stroke:#FDDEA2;stroke-width:0.55px;stroke-linejoin:round;stroke-miterlimit:1.5;"/>
    <path d="M111.875,281.945l9.182,0" style="fill:none;stroke:#FDDEA2;stroke-width:0.55px;stroke-linejoin:round;stroke-miterlimit:1.5;"/>
    <path d="M114.73,292.449l0,3.766" style="fill:none;stroke:#FDDEA2;stroke-width:0.55px;stroke-linejoin:round;stroke-miterlimit:1.5;"/>
    <path d="M117.469,296.215l-5.384,0" style="fill:none;stroke:#FDDEA2;stroke-width:0.55px;stroke-linejoin:round;stroke-miterlimit:1.5;"/>
    <path d="M117.469,298.653l-5.384,0" style="fill:none;stroke:#FDDEA2;stroke-width:0.55px;stroke-linejoin:round;stroke-miterlimit:1.5;"/>
    <path d="M114.768,298.659l0,4.322" style="fill:none;stroke:#FDDEA2;stroke-width:0.55px;stroke-linejoin:round;stroke-miterlimit:1.5;"/>
    <g>
      <path d="M117.681,303.03l-5.754,0" style="fill:none;stroke:#FDDEA2;stroke-width:0.55px;stroke-linejoin:round;stroke-miterlimit:1.5;"/>
      <path d="M116.405,304.426l-3.203,0" style="fill:none;stroke:#FDDEA2;stroke-width:0.55px;stroke-linejoin:round;stroke-miterlimit:1.5;"/>
      <path d="M115.395,305.773l-1.183,0" style="fill:none;stroke:#FDDEA2;stroke-width:0.55px;stroke-linejoin:round;stroke-miterlimit:1.5;"/>
    </g>
    <path d="M50.731,269.894l-0.101,-13.627l71.435,0.649l0,12.481c0,0 -1.819,-0.189 -1.817,1.315c0.002,1.579 1.817,1.382 1.817,1.382l0,9.862l-6.873,0" style="fill:none;stroke:#FDDEA2;stroke-width:0.55px;stroke-linejoin:round;stroke-miterlimit:1.5;"/>
    <circle cx="20.732" cy="281.058" r="0.649" style="fill:#FDDEA2;stroke:#FDDEA2;stroke-width:0.55px;stroke-linejoin:round;stroke-miterlimit:1.5;"/>
    <circle cx="50.671" cy="291.63" r="0.649" style="fill:#FDDEA2;stroke:#FDDEA2;stroke-width:0.55px;stroke-linejoin:round;stroke-miterlimit:1.5;"/>
    <circle cx="84.56" cy="281.931" r="0.649" style="fill:#FDDEA2;stroke:#FDDEA2;stroke-width:0.55px;stroke-linejoin:round;stroke-miterlimit:1.5;"/>
    <circle cx="84.693" cy="270.695" r="0.649" style="fill:#FDDEA2;stroke:#FDDEA2;stroke-width:0.55px;stroke-linejoin:round;stroke-miterlimit:1.5;"/>
    <circle cx="101.545" cy="263.808" r="0.649" style="fill:#FDDEA2;stroke:#FDDEA2;stroke-width:0.55px;stroke-linejoin:round;stroke-miterlimit:1.5;"/>
    <circle cx="95.874" cy="263.836" r="0.649" style="fill:#FDDEA2;stroke:#FDDEA2;stroke-width:0.55px;stroke-linejoin:round;stroke-miterlimit:1.5;"/>
    <path d="M103.809,261.089l-4.422,0l2.163,0l0,2.555" style="fill:none;stroke:#FDDEA2;stroke-width:0.55px;stroke-linejoin:round;stroke-miterlimit:1.5;"/>
    <path d="M107.315,266.998l0,-3.188l-11.434,0l0,3.188" style="fill:none;stroke:#FDDEA2;stroke-width:0.55px;stroke-linejoin:round;stroke-miterlimit:1.5;"/>
    <path d="M100.019,258.932l0.424,0l-0.726,1.596l-0.334,0l-0.726,-1.596l0.437,0l0.459,1.071l0.466,-1.071Z" style="fill:#FDDEA2;fill-rule:nonzero;"/>
    <path d="M101.263,260.548c-0.166,0 -0.31,-0.034 -0.434,-0.102c-0.123,-0.068 -0.218,-0.164 -0.284,-0.288c-0.067,-0.124 -0.1,-0.267 -0.1,-0.43c0,-0.162 0.033,-0.304 0.1,-0.427c0.066,-0.123 0.161,-0.219 0.284,-0.287c0.124,-0.068 0.268,-0.102 0.434,-0.102c0.104,0 0.206,0.016 0.304,0.047c0.097,0.031 0.176,0.074 0.236,0.128l-0.128,0.298c-0.13,-0.094 -0.264,-0.141 -0.403,-0.141c-0.129,0 -0.227,0.04 -0.296,0.122c-0.069,0.081 -0.103,0.202 -0.103,0.362c0,0.161 0.034,0.283 0.103,0.365c0.069,0.082 0.167,0.123 0.296,0.123c0.139,0 0.273,-0.047 0.403,-0.141l0.128,0.298c-0.06,0.054 -0.139,0.096 -0.236,0.128c-0.098,0.031 -0.2,0.047 -0.304,0.047Z" style="fill:#FDDEA2;fill-rule:nonzero;"/>
    <path d="M102.762,260.548c-0.166,0 -0.31,-0.034 -0.434,-0.102c-0.123,-0.068 -0.218,-0.164 -0.284,-0.288c-0.067,-0.124 -0.1,-0.267 -0.1,-0.43c0,-0.162 0.033,-0.304 0.1,-0.427c0.066,-0.123 0.161,-0.219 0.284,-0.287c0.124,-0.068 0.268,-0.102 0.434,-0.102c0.105,0 0.206,0.016 0.304,0.047c0.098,0.031 0.176,0.074 0.236,0.128l-0.128,0.298c-0.13,-0.094 -0.264,-0.141 -0.403,-0.141c-0.128,0 -0.227,0.04 -0.296,0.122c-0.068,0.081 -0.103,0.202 -0.103,0.362c0,0.161 0.035,0.283 0.103,0.365c0.069,0.082 0.168,0.123 0.296,0.123c0.139,0 0.273,-0.047 0.403,-0.141l0.128,0.298c-0.06,0.054 -0.138,0.096 -0.236,0.128c-0.098,0.031 -0.199,0.047 -0.304,0.047Z" style="fill:#FDDEA2;fill-rule:nonzero;"/>
    <circle cx="37.431" cy="263.808" r="0.649" style="fill:#FDDEA2;stroke:#FDDEA2;stroke-width:0.55px;stroke-linejoin:round;stroke-miterlimit:1.5;"/>
    <circle cx="31.798" cy="263.889" r="0.649" style="fill:#FDDEA2;stroke:#FDDEA2;stroke-width:0.55px;stroke-linejoin:round;stroke-miterlimit:1.5;"/>
    <path d="M39.696,261.089l-4.423,0l2.163,0l0,2.555" style="fill:none;stroke:#FDDEA2;stroke-width:0.55px;stroke-linejoin:round;stroke-miterlimit:1.5;"/>
    <path d="M43.201,266.998l0,-3.188l-11.434,0l0,3.188" style="fill:none;stroke:#FDDEA2;stroke-width:0.55px;stroke-linejoin:round;stroke-miterlimit:1.5;"/>
    <path d="M35.905,258.932l0.424,0l-0.726,1.596l-0.334,0l-0.726,-1.596l0.437,0l0.459,1.071l0.466,-1.071Z" style="fill:#FDDEA2;fill-rule:nonzero;"/>
    <path d="M37.149,260.548c-0.166,0 -0.31,-0.034 -0.434,-0.102c-0.123,-0.068 -0.218,-0.164 -0.284,-0.288c-0.067,-0.124 -0.1,-0.267 -0.1,-0.43c0,-0.162 0.033,-0.304 0.1,-0.427c0.066,-0.123 0.161,-0.219 0.284,-0.287c0.124,-0.068 0.268,-0.102 0.434,-0.102c0.105,0 0.206,0.016 0.304,0.047c0.098,0.031 0.176,0.074 0.236,0.128l-0.128,0.298c-0.13,-0.094 -0.264,-0.141 -0.403,-0.141c-0.128,0 -0.227,0.04 -0.296,0.122c-0.068,0.081 -0.103,0.202 -0.103,0.362c0,0.161 0.035,0.283 0.103,0.365c0.069,0.082 0.168,0.123 0.296,0.123c0.139,0 0.273,-0.047 0.403,-0.141l0.128,0.298c-0.06,0.054 -0.138,0.096 -0.236,0.128c-0.098,0.031 -0.199,0.047 -0.304,0.047Z" style="fill:#FDDEA2;fill-rule:nonzero;"/>
    <path d="M38.648,260.548c-0.165,0 -0.31,-0.034 -0.433,-0.102c-0.124,-0.068 -0.218,-0.164 -0.285,-0.288c-0.066,-0.124 -0.1,-0.267 -0.1,-0.43c0,-0.162 0.034,-0.304 0.1,-0.427c0.067,-0.123 0.161,-0.219 0.285,-0.287c0.123,-0.068 0.268,-0.102 0.433,-0.102c0.105,0 0.206,0.016 0.304,0.047c0.098,0.031 0.177,0.074 0.236,0.128l-0.127,0.298c-0.13,-0.094 -0.265,-0.141 -0.404,-0.141c-0.128,0 -0.227,0.04 -0.295,0.122c-0.069,0.081 -0.104,0.202 -0.104,0.362c0,0.161 0.035,0.283 0.104,0.365c0.068,0.082 0.167,0.123 0.295,0.123c0.139,0 0.274,-0.047 0.404,-0.141l0.127,0.298c-0.059,0.054 -0.138,0.096 -0.236,0.128c-0.098,0.031 -0.199,0.047 -0.304,0.047Z" style="fill:#FDDEA2;fill-rule:nonzero;"/>
    <path d="M84.643,281.936l0,-11.25" style="fill:none;stroke:#FDDEA2;stroke-width:0.55px;stroke-linejoin:round;stroke-miterlimit:1.5;"/>
    <path d="M35.211,275.238c0.171,0 0.324,0.038 0.459,0.113c0.135,0.075 0.241,0.181 0.316,0.316c0.075,0.135 0.113,0.291 0.113,0.467c0,0.192 -0.046,0.361 -0.138,0.505c-0.093,0.144 -0.224,0.255 -0.394,0.333c-0.17,0.078 -0.368,0.117 -0.594,0.117c-0.179,0 -0.357,-0.027 -0.534,-0.082c-0.177,-0.055 -0.318,-0.126 -0.425,-0.214l0.226,-0.519c0.239,0.167 0.487,0.25 0.745,0.25c0.145,0 0.253,-0.029 0.323,-0.088c0.07,-0.058 0.105,-0.149 0.105,-0.271c0,-0.119 -0.037,-0.211 -0.111,-0.274c-0.074,-0.064 -0.177,-0.096 -0.31,-0.096c-0.072,0 -0.151,0.013 -0.235,0.037c-0.085,0.025 -0.163,0.057 -0.236,0.096l-0.401,0l0,-1.645l1.831,0l0,0.554l-1.122,0l0,0.475c0.106,-0.049 0.233,-0.074 0.382,-0.074Z" style="fill:#FDDEA2;fill-rule:nonzero;"/>
    <path d="M37.548,275.238c0.172,0 0.325,0.038 0.46,0.113c0.135,0.075 0.24,0.181 0.316,0.316c0.075,0.135 0.113,0.291 0.113,0.467c0,0.192 -0.046,0.361 -0.139,0.505c-0.092,0.144 -0.223,0.255 -0.393,0.333c-0.17,0.078 -0.368,0.117 -0.594,0.117c-0.18,0 -0.357,-0.027 -0.534,-0.082c-0.177,-0.055 -0.318,-0.126 -0.425,-0.214l0.226,-0.519c0.239,0.167 0.487,0.25 0.744,0.25c0.146,0 0.254,-0.029 0.324,-0.088c0.07,-0.058 0.105,-0.149 0.105,-0.271c0,-0.119 -0.037,-0.211 -0.111,-0.274c-0.074,-0.064 -0.177,-0.096 -0.31,-0.096c-0.073,0 -0.151,0.013 -0.236,0.037c-0.084,0.025 -0.163,0.057 -0.235,0.096l-0.402,0l0,-1.645l1.832,0l0,0.554l-1.122,0l0,0.475c0.106,-0.049 0.233,-0.074 0.381,-0.074Z" style="fill:#FDDEA2;fill-rule:nonzero;"/>
    <path d="M39.886,275.238c0.172,0 0.325,0.038 0.46,0.113c0.135,0.075 0.24,0.181 0.316,0.316c0.075,0.135 0.113,0.291 0.113,0.467c0,0.192 -0.047,0.361 -0.139,0.505c-0.092,0.144 -0.223,0.255 -0.393,0.333c-0.17,0.078 -0.368,0.117 -0.594,0.117c-0.18,0 -0.358,-0.027 -0.534,-0.082c-0.177,-0.055 -0.318,-0.126 -0.425,-0.214l0.226,-0.519c0.239,0.167 0.487,0.25 0.744,0.25c0.146,0 0.253,-0.029 0.324,-0.088c0.07,-0.058 0.105,-0.149 0.105,-0.271c0,-0.119 -0.037,-0.211 -0.111,-0.274c-0.074,-0.064 -0.178,-0.096 -0.31,-0.096c-0.073,0 -0.151,0.013 -0.236,0.037c-0.084,0.025 -0.163,0.057 -0.235,0.096l-0.402,0l0,-1.645l1.832,0l0,0.554l-1.123,0l0,0.475c0.107,-0.049 0.234,-0.074 0.382,-0.074Z" style="fill:#FDDEA2;fill-rule:nonzero;"/>
    <path d="M37.453,283.395l0.4,0l0,0.387l-1.283,0l0,-0.387l0.397,0l0,-0.932l-0.372,0.213l0,-0.418l0.572,-0.325l0.286,0l0,1.462Z" style="fill:#FDDEA2;fill-rule:nonzero;"/>
    <path d="M46.239,270.117c0.107,0.031 0.19,0.086 0.248,0.164c0.058,0.078 0.087,0.173 0.087,0.286c0,0.107 -0.029,0.2 -0.087,0.279c-0.058,0.079 -0.142,0.139 -0.251,0.182c-0.109,0.042 -0.236,0.063 -0.381,0.063c-0.13,0 -0.256,-0.017 -0.378,-0.053c-0.123,-0.035 -0.22,-0.084 -0.293,-0.144l0.154,-0.346c0.161,0.111 0.325,0.167 0.493,0.167c0.104,0 0.178,-0.016 0.221,-0.046c0.043,-0.03 0.065,-0.082 0.065,-0.154c0,-0.07 -0.021,-0.119 -0.064,-0.148c-0.042,-0.03 -0.113,-0.045 -0.211,-0.045l-0.289,0l0,-0.374l0.239,0c0.097,0 0.167,-0.013 0.209,-0.04c0.043,-0.027 0.064,-0.07 0.064,-0.131c0,-0.066 -0.02,-0.116 -0.061,-0.151c-0.041,-0.034 -0.098,-0.052 -0.17,-0.052c-0.075,0 -0.153,0.015 -0.235,0.043c-0.083,0.029 -0.161,0.07 -0.235,0.124l-0.154,-0.346c0.075,-0.059 0.172,-0.106 0.293,-0.143c0.12,-0.036 0.242,-0.054 0.365,-0.054c0.131,0 0.246,0.02 0.345,0.062c0.099,0.042 0.175,0.101 0.23,0.178c0.054,0.077 0.082,0.167 0.082,0.269c0.001,0.097 -0.023,0.181 -0.073,0.252c-0.05,0.071 -0.121,0.124 -0.213,0.158Z" style="fill:#FDDEA2;fill-rule:nonzero;"/>
    <path d="M43.841,269.578l0,0.371l-0.239,0l0,0.312l-0.478,0l0,-0.312l-0.74,0l0,-0.358l0.828,-1.18l0.39,0l0,1.167l0.239,0Zm-1.021,0l0.304,0l0,-0.437l-0.304,0.437Z" style="fill:#FDDEA2;fill-rule:nonzero;"/>
    <path d="M31.424,269.155c-0.118,0.032 -0.21,0.085 -0.276,0.161c-0.065,0.077 -0.098,0.171 -0.098,0.284c0,0.109 0.031,0.203 0.093,0.283c0.062,0.079 0.149,0.14 0.259,0.183c0.11,0.042 0.236,0.063 0.378,0.063c0.142,0 0.268,-0.021 0.377,-0.063c0.11,-0.043 0.197,-0.104 0.259,-0.183c0.062,-0.08 0.093,-0.174 0.093,-0.283c0,-0.115 -0.032,-0.21 -0.098,-0.288c-0.066,-0.077 -0.159,-0.13 -0.278,-0.159c0.102,-0.035 0.183,-0.088 0.241,-0.16c0.059,-0.072 0.089,-0.156 0.089,-0.253c0,-0.102 -0.03,-0.192 -0.09,-0.268c-0.06,-0.076 -0.141,-0.134 -0.244,-0.175c-0.103,-0.041 -0.22,-0.061 -0.349,-0.061c-0.13,0 -0.247,0.02 -0.35,0.061c-0.103,0.041 -0.184,0.099 -0.244,0.175c-0.06,0.076 -0.09,0.166 -0.09,0.268c0,0.098 0.03,0.185 0.09,0.258c0.06,0.074 0.139,0.126 0.238,0.157Zm0.356,-0.553c0.067,0 0.122,0.016 0.164,0.048c0.043,0.032 0.064,0.081 0.064,0.147c0,0.114 -0.076,0.19 -0.228,0.228c-0.153,-0.038 -0.229,-0.114 -0.229,-0.228c0,-0.066 0.021,-0.115 0.064,-0.147c0.042,-0.032 0.097,-0.048 0.165,-0.048Zm0,1.161c-0.084,0 -0.151,-0.017 -0.203,-0.052c-0.052,-0.034 -0.078,-0.085 -0.078,-0.15c0,-0.065 0.025,-0.116 0.075,-0.156c0.051,-0.04 0.119,-0.068 0.206,-0.083c0.086,0.015 0.155,0.043 0.205,0.083c0.05,0.04 0.075,0.091 0.075,0.156c0,0.065 -0.026,0.116 -0.078,0.15c-0.052,0.035 -0.119,0.052 -0.202,0.052Z" style="fill:#FDDEA2;fill-rule:nonzero;"/>
    <path d="M28.187,269.186l1.374,0l0,0.363l-0.806,1.486l-0.519,0l0.803,-1.462l-0.852,0l0,-0.387Z" style="fill:#FDDEA2;fill-rule:nonzero;"/>
    <path d="M55.602,296.352l0,0.372l-0.239,0l0,0.311l-0.478,0l0,-0.311l-0.74,0l0,-0.359l0.829,-1.179l0.389,0l0,1.166l0.239,0Zm-1.021,0l0.304,0l0,-0.436l-0.304,0.436Z" style="fill:#FDDEA2;fill-rule:nonzero;"/>
    <path d="M56.413,297.059c-0.229,0 -0.404,-0.082 -0.526,-0.245c-0.122,-0.162 -0.183,-0.398 -0.183,-0.706c0,-0.303 0.061,-0.536 0.183,-0.698c0.122,-0.161 0.297,-0.242 0.526,-0.242c0.228,0 0.404,0.081 0.526,0.242c0.122,0.162 0.183,0.395 0.183,0.698c0,0.308 -0.061,0.544 -0.183,0.706c-0.122,0.163 -0.298,0.245 -0.526,0.245Zm0,-0.367c0.083,0 0.143,-0.045 0.179,-0.136c0.036,-0.091 0.054,-0.24 0.054,-0.448c0,-0.203 -0.018,-0.349 -0.054,-0.439c-0.036,-0.09 -0.096,-0.135 -0.179,-0.135c-0.083,0 -0.143,0.045 -0.18,0.135c-0.036,0.09 -0.054,0.236 -0.054,0.439c0,0.208 0.018,0.357 0.054,0.448c0.037,0.091 0.097,0.136 0.18,0.136Z" style="fill:#FDDEA2;fill-rule:nonzero;"/>
    <path d="M58.215,295.679c0.156,0 0.273,0.047 0.35,0.142c0.077,0.094 0.115,0.237 0.115,0.427l0,0.787l-0.47,0l0,-0.766c0,-0.081 -0.014,-0.14 -0.041,-0.175c-0.028,-0.036 -0.071,-0.054 -0.13,-0.054c-0.071,0 -0.128,0.024 -0.172,0.072c-0.043,0.047 -0.065,0.11 -0.065,0.188l0,0.735l-0.47,0l0,-0.94c0,-0.142 -0.007,-0.269 -0.021,-0.379l0.442,0l0.023,0.194c0.051,-0.074 0.113,-0.131 0.187,-0.171c0.075,-0.04 0.159,-0.06 0.252,-0.06Z" style="fill:#FDDEA2;fill-rule:nonzero;"/>
    <path d="M66.537,296.648l0.4,0l0,0.387l-1.283,0l0,-0.387l0.398,0l0,-0.932l-0.372,0.213l0,-0.419l0.572,-0.324l0.285,0l0,1.462Z" style="fill:#FDDEA2;fill-rule:nonzero;"/>
    <path d="M67.753,297.059c-0.229,0 -0.404,-0.082 -0.526,-0.245c-0.122,-0.162 -0.183,-0.398 -0.183,-0.706c0,-0.303 0.061,-0.536 0.183,-0.698c0.122,-0.161 0.297,-0.242 0.526,-0.242c0.229,0 0.404,0.081 0.526,0.242c0.122,0.162 0.183,0.395 0.183,0.698c0,0.308 -0.061,0.544 -0.183,0.706c-0.122,0.163 -0.297,0.245 -0.526,0.245Zm0,-0.367c0.083,0 0.143,-0.045 0.179,-0.136c0.037,-0.091 0.055,-0.24 0.055,-0.448c0,-0.203 -0.018,-0.349 -0.055,-0.439c-0.036,-0.09 -0.096,-0.135 -0.179,-0.135c-0.083,0 -0.143,0.045 -0.179,0.135c-0.037,0.09 -0.055,0.236 -0.055,0.439c0,0.208 0.018,0.357 0.055,0.448c0.036,0.091 0.096,0.136 0.179,0.136Z" style="fill:#FDDEA2;fill-rule:nonzero;"/>
    <path d="M70,295.716l0,1.319l-0.46,0l0,-0.176c-0.085,0.131 -0.21,0.197 -0.376,0.197c-0.168,0 -0.294,-0.047 -0.376,-0.14c-0.082,-0.094 -0.123,-0.237 -0.123,-0.429l0,-0.771l0.47,0l0,0.784c0,0.13 0.056,0.195 0.169,0.195c0.066,0 0.119,-0.023 0.16,-0.07c0.04,-0.047 0.061,-0.109 0.061,-0.187l0,-0.722l0.475,0Z" style="fill:#FDDEA2;fill-rule:nonzero;"/>
    <path d="M130.537,297.594l0.4,0l0,0.387l-1.283,0l0,-0.387l0.398,0l0,-0.933l-0.372,0.213l0,-0.418l0.572,-0.325l0.285,0l0,1.463Z" style="fill:#FDDEA2;fill-rule:nonzero;"/>
    <path d="M131.753,298.004c-0.229,0 -0.404,-0.081 -0.526,-0.244c-0.122,-0.163 -0.183,-0.398 -0.183,-0.707c0,-0.303 0.061,-0.535 0.183,-0.697c0.122,-0.162 0.297,-0.243 0.526,-0.243c0.229,0 0.404,0.081 0.526,0.243c0.122,0.162 0.183,0.394 0.183,0.697c0,0.309 -0.061,0.544 -0.183,0.707c-0.122,0.163 -0.297,0.244 -0.526,0.244Zm0,-0.366c0.083,0 0.143,-0.046 0.179,-0.136c0.037,-0.091 0.055,-0.241 0.055,-0.449c0,-0.202 -0.018,-0.349 -0.055,-0.439c-0.036,-0.09 -0.096,-0.135 -0.179,-0.135c-0.083,0 -0.143,0.045 -0.179,0.135c-0.037,0.09 -0.055,0.237 -0.055,0.439c0,0.208 0.018,0.358 0.055,0.449c0.036,0.09 0.096,0.136 0.179,0.136Z" style="fill:#FDDEA2;fill-rule:nonzero;"/>
    <path d="M134,296.661l0,1.32l-0.46,0l0,-0.177c-0.085,0.132 -0.21,0.198 -0.376,0.198c-0.168,0 -0.294,-0.047 -0.376,-0.141c-0.082,-0.093 -0.123,-0.236 -0.123,-0.428l0,-0.772l0.47,0l0,0.785c0,0.13 0.056,0.194 0.169,0.194c0.066,0 0.119,-0.023 0.16,-0.07c0.04,-0.046 0.061,-0.109 0.061,-0.187l0,-0.722l0.475,0Z" style="fill:#FDDEA2;fill-rule:nonzero;"/>
    <path d="M130.537,275.594l0.4,0l0,0.387l-1.283,0l0,-0.387l0.398,0l0,-0.933l-0.372,0.213l0,-0.418l0.572,-0.325l0.285,0l0,1.463Z" style="fill:#FDDEA2;fill-rule:nonzero;"/>
    <path d="M131.753,276.004c-0.229,0 -0.404,-0.081 -0.526,-0.244c-0.122,-0.163 -0.183,-0.398 -0.183,-0.707c0,-0.303 0.061,-0.535 0.183,-0.697c0.122,-0.162 0.297,-0.243 0.526,-0.243c0.229,0 0.404,0.081 0.526,0.243c0.122,0.162 0.183,0.394 0.183,0.697c0,0.309 -0.061,0.544 -0.183,0.707c-0.122,0.163 -0.297,0.244 -0.526,0.244Zm0,-0.366c0.083,0 0.143,-0.046 0.179,-0.136c0.037,-0.091 0.055,-0.241 0.055,-0.449c0,-0.202 -0.018,-0.349 -0.055,-0.439c-0.036,-0.09 -0.096,-0.135 -0.179,-0.135c-0.083,0 -0.143,0.045 -0.179,0.135c-0.037,0.09 -0.055,0.237 -0.055,0.439c0,0.208 0.018,0.358 0.055,0.449c0.036,0.09 0.096,0.136 0.179,0.136Z" style="fill:#FDDEA2;fill-rule:nonzero;"/>
    <path d="M134,274.661l0,1.32l-0.46,0l0,-0.177c-0.085,0.132 -0.21,0.198 -0.376,0.198c-0.168,0 -0.294,-0.047 -0.376,-0.141c-0.082,-0.093 -0.123,-0.236 -0.123,-0.428l0,-0.772l0.47,0l0,0.785c0,0.13 0.056,0.194 0.169,0.194c0.066,0 0.119,-0.023 0.16,-0.07c0.04,-0.046 0.061,-0.109 0.061,-0.187l0,-0.722l0.475,0Z" style="fill:#FDDEA2;fill-rule:nonzero;"/>
    <path d="M119.602,297.243l0,0.372l-0.239,0l0,0.311l-0.478,0l0,-0.311l-0.74,0l0,-0.359l0.829,-1.179l0.389,0l0,1.166l0.239,0Zm-1.021,0l0.304,0l0,-0.436l-0.304,0.436Z" style="fill:#FDDEA2;fill-rule:nonzero;"/>
    <path d="M120.413,297.95c-0.229,0 -0.404,-0.082 -0.526,-0.244c-0.122,-0.163 -0.183,-0.399 -0.183,-0.707c0,-0.303 0.061,-0.536 0.183,-0.698c0.122,-0.161 0.297,-0.242 0.526,-0.242c0.228,0 0.404,0.081 0.526,0.242c0.122,0.162 0.183,0.395 0.183,0.698c0,0.308 -0.061,0.544 -0.183,0.707c-0.122,0.162 -0.298,0.244 -0.526,0.244Zm0,-0.367c0.083,0 0.143,-0.045 0.179,-0.136c0.036,-0.091 0.054,-0.24 0.054,-0.448c0,-0.203 -0.018,-0.349 -0.054,-0.439c-0.036,-0.09 -0.096,-0.135 -0.179,-0.135c-0.083,0 -0.143,0.045 -0.18,0.135c-0.036,0.09 -0.054,0.236 -0.054,0.439c0,0.208 0.018,0.357 0.054,0.448c0.037,0.091 0.097,0.136 0.18,0.136Z" style="fill:#FDDEA2;fill-rule:nonzero;"/>
    <path d="M121.971,297.95c-0.228,0 -0.404,-0.082 -0.526,-0.244c-0.122,-0.163 -0.183,-0.399 -0.183,-0.707c0,-0.303 0.061,-0.536 0.183,-0.698c0.122,-0.161 0.298,-0.242 0.526,-0.242c0.229,0 0.404,0.081 0.526,0.242c0.122,0.162 0.183,0.395 0.183,0.698c0,0.308 -0.061,0.544 -0.183,0.707c-0.122,0.162 -0.297,0.244 -0.526,0.244Zm0,-0.367c0.083,0 0.143,-0.045 0.18,-0.136c0.036,-0.091 0.054,-0.24 0.054,-0.448c0,-0.203 -0.018,-0.349 -0.054,-0.439c-0.037,-0.09 -0.097,-0.135 -0.18,-0.135c-0.083,0 -0.143,0.045 -0.179,0.135c-0.036,0.09 -0.055,0.236 -0.055,0.439c0,0.208 0.019,0.357 0.055,0.448c0.036,0.091 0.096,0.136 0.179,0.136Z" style="fill:#FDDEA2;fill-rule:nonzero;"/>
    <path d="M123.774,296.57c0.156,0 0.272,0.048 0.349,0.142c0.077,0.094 0.116,0.237 0.116,0.427l0,0.787l-0.47,0l0,-0.766c0,-0.081 -0.014,-0.14 -0.042,-0.175c-0.027,-0.036 -0.071,-0.054 -0.13,-0.054c-0.071,0 -0.128,0.024 -0.171,0.072c-0.043,0.047 -0.065,0.11 -0.065,0.188l0,0.735l-0.47,0l0,-0.94c0,-0.142 -0.007,-0.268 -0.021,-0.379l0.442,0l0.023,0.195c0.05,-0.075 0.113,-0.132 0.187,-0.172c0.075,-0.04 0.159,-0.06 0.252,-0.06Z" style="fill:#FDDEA2;fill-rule:nonzero;"/>
    <path d="M8.602,267.352l0,0.372l-0.239,0l0,0.311l-0.478,0l0,-0.311l-0.74,0l0,-0.359l0.829,-1.179l0.389,0l0,1.166l0.239,0Zm-1.021,0l0.304,0l0,-0.436l-0.304,0.436Z" style="fill:#FDDEA2;fill-rule:nonzero;"/>
    <path d="M8.727,266.186l1.374,0l0,0.363l-0.805,1.486l-0.52,0l0.803,-1.462l-0.852,0l0,-0.387Z" style="fill:#FDDEA2;fill-rule:nonzero;"/>
    <path d="M10.971,268.059c-0.228,0 -0.404,-0.082 -0.526,-0.245c-0.122,-0.162 -0.183,-0.398 -0.183,-0.706c0,-0.303 0.061,-0.536 0.183,-0.698c0.122,-0.161 0.298,-0.242 0.526,-0.242c0.229,0 0.404,0.081 0.526,0.242c0.122,0.162 0.183,0.395 0.183,0.698c0,0.308 -0.061,0.544 -0.183,0.706c-0.122,0.163 -0.297,0.245 -0.526,0.245Zm0,-0.367c0.083,0 0.143,-0.045 0.18,-0.136c0.036,-0.091 0.054,-0.24 0.054,-0.448c0,-0.203 -0.018,-0.349 -0.054,-0.439c-0.037,-0.09 -0.097,-0.135 -0.18,-0.135c-0.083,0 -0.143,0.045 -0.179,0.135c-0.036,0.09 -0.055,0.236 -0.055,0.439c0,0.208 0.019,0.357 0.055,0.448c0.036,0.091 0.096,0.136 0.179,0.136Z" style="fill:#FDDEA2;fill-rule:nonzero;"/>
    <path d="M13.379,268.035l-0.569,0l-0.449,-0.569l0,0.569l-0.47,0l0,-1.912l0.47,0l0,1.143l0.442,-0.548l0.555,0l-0.519,0.631l0.54,0.686Z" style="fill:#FDDEA2;fill-rule:nonzero;"/>
    <path d="M23.197,275.389l0.4,0l0,0.387l-1.283,0l0,-0.387l0.397,0l0,-0.933l-0.371,0.213l0,-0.418l0.571,-0.325l0.286,0l0,1.463Z" style="fill:#FDDEA2;fill-rule:nonzero;"/>
    <path d="M25.262,275.776l-0.569,0l-0.449,-0.569l0,0.569l-0.47,0l0,-1.912l0.47,0l0,1.143l0.441,-0.548l0.556,0l-0.519,0.631l0.54,0.686Z" style="fill:#FDDEA2;fill-rule:nonzero;"/>
    <path d="M73.34,268.32l0,0.371l-0.239,0l0,0.312l-0.478,0l0,-0.312l-0.74,0l0,-0.358l0.829,-1.18l0.389,0l0,1.167l0.239,0Zm-1.021,0l0.304,0l0,-0.437l-0.304,0.437Z" style="fill:#FDDEA2;fill-rule:nonzero;"/>
    <path d="M73.465,267.153l1.374,0l0,0.364l-0.805,1.486l-0.52,0l0.803,-1.463l-0.852,0l0,-0.387Z" style="fill:#FDDEA2;fill-rule:nonzero;"/>
    <path d="M75.709,269.026c-0.228,0 -0.404,-0.081 -0.526,-0.244c-0.122,-0.163 -0.183,-0.398 -0.183,-0.706c0,-0.304 0.061,-0.536 0.183,-0.698c0.122,-0.162 0.298,-0.243 0.526,-0.243c0.229,0 0.404,0.081 0.526,0.243c0.122,0.162 0.183,0.394 0.183,0.698c0,0.308 -0.061,0.543 -0.183,0.706c-0.122,0.163 -0.297,0.244 -0.526,0.244Zm0,-0.366c0.083,0 0.143,-0.045 0.179,-0.136c0.037,-0.091 0.055,-0.241 0.055,-0.448c0,-0.203 -0.018,-0.349 -0.055,-0.439c-0.036,-0.091 -0.096,-0.136 -0.179,-0.136c-0.083,0 -0.143,0.045 -0.179,0.136c-0.036,0.09 -0.055,0.236 -0.055,0.439c0,0.207 0.019,0.357 0.055,0.448c0.036,0.091 0.096,0.136 0.179,0.136Z" style="fill:#FDDEA2;fill-rule:nonzero;"/>
    <path d="M78.117,269.003l-0.569,0l-0.449,-0.569l0,0.569l-0.47,0l0,-1.912l0.47,0l0,1.143l0.441,-0.548l0.556,0l-0.519,0.631l0.54,0.686Z" style="fill:#FDDEA2;fill-rule:nonzero;"/>
    <path d="M28.811,280.764c0.106,0 0.201,0.026 0.285,0.078c0.084,0.052 0.15,0.123 0.197,0.214c0.048,0.091 0.072,0.195 0.072,0.311c0,0.122 -0.028,0.232 -0.083,0.329c-0.056,0.097 -0.133,0.173 -0.232,0.228c-0.098,0.054 -0.21,0.082 -0.335,0.082c-0.247,0 -0.438,-0.081 -0.572,-0.242c-0.135,-0.161 -0.202,-0.391 -0.202,-0.688c0,-0.2 0.033,-0.372 0.098,-0.517c0.065,-0.146 0.158,-0.257 0.279,-0.334c0.121,-0.077 0.265,-0.116 0.431,-0.116c0.118,0 0.231,0.018 0.34,0.052c0.109,0.035 0.202,0.083 0.278,0.146l-0.153,0.345c-0.078,-0.057 -0.155,-0.099 -0.231,-0.126c-0.076,-0.027 -0.146,-0.04 -0.211,-0.04c-0.207,0 -0.322,0.153 -0.342,0.46c0.039,-0.056 0.093,-0.1 0.161,-0.133c0.067,-0.033 0.141,-0.049 0.22,-0.049Zm-0.122,0.867c0.068,0 0.122,-0.022 0.161,-0.067c0.04,-0.045 0.06,-0.104 0.06,-0.177c0,-0.076 -0.019,-0.136 -0.058,-0.18c-0.039,-0.044 -0.093,-0.066 -0.163,-0.066c-0.065,0 -0.119,0.022 -0.159,0.067c-0.041,0.045 -0.061,0.105 -0.061,0.179c0,0.071 0.02,0.13 0.061,0.176c0.04,0.046 0.094,0.068 0.159,0.068Z" style="fill:#FDDEA2;fill-rule:nonzero;"/>
    <path d="M46.438,281.61l0,0.387l-1.304,0l0,-0.359l0.603,-0.629c0.113,-0.117 0.169,-0.227 0.169,-0.329c0,-0.12 -0.071,-0.18 -0.213,-0.18c-0.073,0 -0.15,0.015 -0.23,0.043c-0.081,0.029 -0.162,0.07 -0.243,0.124l-0.153,-0.346c0.074,-0.06 0.171,-0.109 0.289,-0.144c0.119,-0.036 0.24,-0.053 0.363,-0.053c0.133,0 0.25,0.021 0.349,0.063c0.1,0.043 0.177,0.103 0.231,0.182c0.055,0.079 0.082,0.171 0.082,0.277c0,0.107 -0.021,0.205 -0.063,0.292c-0.043,0.088 -0.115,0.186 -0.217,0.295l-0.369,0.377l0.706,0Z" style="fill:#FDDEA2;fill-rule:nonzero;"/>
    <path d="M101.566,283.395l0.4,0l0,0.387l-1.283,0l0,-0.387l0.398,0l0,-0.932l-0.372,0.213l0,-0.418l0.572,-0.325l0.285,0l0,1.462Z" style="fill:#FDDEA2;fill-rule:nonzero;"/>
    <path d="M110.353,270.767c0.107,0.031 0.19,0.085 0.248,0.163c0.058,0.078 0.087,0.173 0.087,0.286c0,0.107 -0.029,0.2 -0.087,0.279c-0.058,0.079 -0.142,0.14 -0.251,0.182c-0.109,0.042 -0.236,0.064 -0.382,0.064c-0.13,0 -0.256,-0.018 -0.378,-0.054c-0.122,-0.035 -0.219,-0.083 -0.292,-0.144l0.153,-0.345c0.161,0.111 0.326,0.166 0.494,0.166c0.104,0 0.177,-0.015 0.221,-0.045c0.043,-0.031 0.065,-0.082 0.065,-0.155c0,-0.069 -0.022,-0.119 -0.064,-0.148c-0.042,-0.029 -0.113,-0.044 -0.212,-0.044l-0.288,0l0,-0.374l0.239,0c0.097,0 0.167,-0.014 0.209,-0.041c0.042,-0.026 0.064,-0.07 0.064,-0.131c0,-0.066 -0.021,-0.116 -0.061,-0.15c-0.041,-0.035 -0.098,-0.052 -0.17,-0.052c-0.075,0 -0.153,0.014 -0.236,0.043c-0.082,0.028 -0.16,0.069 -0.235,0.123l-0.153,-0.346c0.075,-0.058 0.172,-0.106 0.292,-0.142c0.121,-0.037 0.242,-0.055 0.365,-0.055c0.132,0 0.247,0.021 0.346,0.062c0.098,0.042 0.175,0.101 0.23,0.178c0.054,0.077 0.081,0.167 0.081,0.269c0.002,0.097 -0.022,0.181 -0.072,0.252c-0.05,0.071 -0.121,0.124 -0.213,0.159Z" style="fill:#FDDEA2;fill-rule:nonzero;"/>
    <path d="M107.955,269.578l0,0.371l-0.239,0l0,0.312l-0.478,0l0,-0.312l-0.74,0l0,-0.358l0.828,-1.18l0.39,0l0,1.167l0.239,0Zm-1.021,0l0.304,0l0,-0.437l-0.304,0.437Z" style="fill:#FDDEA2;fill-rule:nonzero;"/>
    <path d="M96.249,269.155c0.118,0.032 0.21,0.085 0.276,0.161c0.065,0.077 0.098,0.171 0.098,0.284c0,0.109 -0.031,0.203 -0.093,0.283c-0.063,0.079 -0.149,0.14 -0.259,0.183c-0.11,0.042 -0.236,0.063 -0.378,0.063c-0.142,0 -0.268,-0.021 -0.378,-0.063c-0.11,-0.043 -0.196,-0.104 -0.258,-0.183c-0.062,-0.08 -0.094,-0.174 -0.094,-0.283c0,-0.115 0.033,-0.21 0.099,-0.288c0.066,-0.077 0.159,-0.13 0.278,-0.159c-0.102,-0.035 -0.183,-0.088 -0.242,-0.16c-0.058,-0.072 -0.088,-0.156 -0.088,-0.253c0,-0.102 0.03,-0.192 0.09,-0.268c0.06,-0.076 0.141,-0.134 0.244,-0.175c0.103,-0.041 0.219,-0.061 0.349,-0.061c0.13,0 0.247,0.02 0.35,0.061c0.103,0.041 0.184,0.099 0.244,0.175c0.06,0.076 0.089,0.166 0.089,0.268c0,0.098 -0.029,0.185 -0.089,0.258c-0.06,0.074 -0.139,0.126 -0.238,0.157Zm-0.356,-0.553c-0.067,0 -0.122,0.016 -0.165,0.048c-0.042,0.032 -0.063,0.081 -0.063,0.147c0,0.114 0.076,0.19 0.228,0.228c0.153,-0.038 0.229,-0.114 0.229,-0.228c0,-0.066 -0.021,-0.115 -0.064,-0.147c-0.042,-0.032 -0.097,-0.048 -0.165,-0.048Zm0,1.161c0.083,0 0.151,-0.017 0.203,-0.052c0.052,-0.034 0.078,-0.085 0.078,-0.15c0,-0.065 -0.025,-0.116 -0.075,-0.156c-0.051,-0.04 -0.119,-0.068 -0.206,-0.083c-0.086,0.015 -0.155,0.043 -0.205,0.083c-0.05,0.04 -0.075,0.091 -0.075,0.156c0,0.065 0.026,0.116 0.078,0.15c0.052,0.035 0.119,0.052 0.202,0.052Z" style="fill:#FDDEA2;fill-rule:nonzero;"/>
    <path d="M92.3,269.835l1.374,0l0,0.364l-0.805,1.486l-0.519,0l0.802,-1.463l-0.852,0l0,-0.387Z" style="fill:#FDDEA2;fill-rule:nonzero;"/>
    <path d="M92.925,281.413c0.106,0 0.201,0.026 0.285,0.078c0.084,0.052 0.149,0.124 0.197,0.215c0.048,0.09 0.072,0.194 0.072,0.31c0,0.123 -0.028,0.233 -0.084,0.33c-0.055,0.097 -0.132,0.173 -0.231,0.227c-0.099,0.055 -0.21,0.082 -0.335,0.082c-0.248,0 -0.438,-0.081 -0.573,-0.242c-0.134,-0.161 -0.201,-0.39 -0.201,-0.688c0,-0.199 0.032,-0.371 0.097,-0.517c0.065,-0.145 0.158,-0.257 0.28,-0.334c0.121,-0.077 0.265,-0.115 0.431,-0.115c0.118,0 0.231,0.017 0.34,0.052c0.109,0.034 0.202,0.083 0.278,0.145l-0.153,0.346c-0.078,-0.058 -0.155,-0.1 -0.231,-0.126c-0.077,-0.027 -0.147,-0.041 -0.211,-0.041c-0.208,0 -0.322,0.154 -0.343,0.46c0.04,-0.055 0.094,-0.099 0.161,-0.132c0.068,-0.033 0.142,-0.05 0.221,-0.05Zm-0.122,0.868c0.068,0 0.121,-0.023 0.161,-0.068c0.04,-0.045 0.06,-0.104 0.06,-0.176c0,-0.076 -0.02,-0.137 -0.059,-0.181c-0.038,-0.044 -0.093,-0.066 -0.162,-0.066c-0.066,0 -0.119,0.022 -0.16,0.067c-0.04,0.046 -0.061,0.105 -0.061,0.18c0,0.071 0.021,0.129 0.061,0.175c0.041,0.046 0.094,0.069 0.16,0.069Z" style="fill:#FDDEA2;fill-rule:nonzero;"/>
    <path d="M110.552,282.259l0,0.387l-1.304,0l0,-0.358l0.603,-0.629c0.112,-0.118 0.169,-0.228 0.169,-0.33c0,-0.119 -0.071,-0.179 -0.213,-0.179c-0.073,0 -0.15,0.014 -0.23,0.043c-0.081,0.028 -0.162,0.069 -0.243,0.123l-0.153,-0.345c0.074,-0.061 0.171,-0.109 0.289,-0.145c0.119,-0.035 0.24,-0.053 0.363,-0.053c0.133,0 0.249,0.021 0.349,0.064c0.099,0.042 0.177,0.103 0.231,0.182c0.055,0.078 0.082,0.171 0.082,0.276c0,0.108 -0.021,0.205 -0.064,0.292c-0.042,0.088 -0.114,0.186 -0.217,0.295l-0.368,0.377l0.706,0Z" style="fill:#FDDEA2;fill-rule:nonzero;"/>
    <path d="M98.963,275.234c0.172,0 0.325,0.038 0.46,0.113c0.135,0.076 0.24,0.181 0.315,0.316c0.076,0.135 0.113,0.291 0.113,0.467c0,0.193 -0.046,0.361 -0.138,0.505c-0.092,0.144 -0.223,0.255 -0.393,0.333c-0.171,0.078 -0.369,0.117 -0.595,0.117c-0.179,0 -0.357,-0.027 -0.533,-0.082c-0.177,-0.054 -0.319,-0.126 -0.425,-0.214l0.226,-0.518c0.239,0.166 0.487,0.249 0.744,0.249c0.146,0 0.253,-0.029 0.324,-0.088c0.07,-0.058 0.105,-0.148 0.105,-0.27c0,-0.12 -0.037,-0.212 -0.111,-0.275c-0.074,-0.064 -0.178,-0.096 -0.31,-0.096c-0.073,0 -0.151,0.013 -0.236,0.037c-0.084,0.025 -0.163,0.057 -0.236,0.096l-0.401,0l0,-1.644l1.831,0l0,0.553l-1.122,0l0,0.475c0.107,-0.049 0.234,-0.074 0.382,-0.074Z" style="fill:#FDDEA2;fill-rule:nonzero;"/>
    <path d="M101.301,275.234c0.171,0 0.325,0.038 0.46,0.113c0.135,0.076 0.24,0.181 0.315,0.316c0.076,0.135 0.113,0.291 0.113,0.467c0,0.193 -0.046,0.361 -0.138,0.505c-0.092,0.144 -0.223,0.255 -0.394,0.333c-0.17,0.078 -0.368,0.117 -0.594,0.117c-0.179,0 -0.357,-0.027 -0.534,-0.082c-0.176,-0.054 -0.318,-0.126 -0.424,-0.214l0.226,-0.518c0.239,0.166 0.487,0.249 0.744,0.249c0.145,0 0.253,-0.029 0.323,-0.088c0.071,-0.058 0.106,-0.148 0.106,-0.27c0,-0.12 -0.037,-0.212 -0.111,-0.275c-0.075,-0.064 -0.178,-0.096 -0.31,-0.096c-0.073,0 -0.152,0.013 -0.236,0.037c-0.084,0.025 -0.163,0.057 -0.236,0.096l-0.401,0l0,-1.644l1.831,0l0,0.553l-1.122,0l0,0.475c0.107,-0.049 0.234,-0.074 0.382,-0.074Z" style="fill:#FDDEA2;fill-rule:nonzero;"/>
    <path d="M103.639,275.234c0.171,0 0.325,0.038 0.46,0.113c0.135,0.076 0.24,0.181 0.315,0.316c0.076,0.135 0.113,0.291 0.113,0.467c0,0.193 -0.046,0.361 -0.138,0.505c-0.092,0.144 -0.224,0.255 -0.394,0.333c-0.17,0.078 -0.368,0.117 -0.594,0.117c-0.179,0 -0.357,-0.027 -0.534,-0.082c-0.176,-0.054 -0.318,-0.126 -0.424,-0.214l0.226,-0.518c0.239,0.166 0.487,0.249 0.744,0.249c0.145,0 0.253,-0.029 0.323,-0.088c0.07,-0.058 0.105,-0.148 0.105,-0.27c0,-0.12 -0.037,-0.212 -0.111,-0.275c-0.074,-0.064 -0.177,-0.096 -0.309,-0.096c-0.073,0 -0.152,0.013 -0.236,0.037c-0.085,0.025 -0.163,0.057 -0.236,0.096l-0.401,0l0,-1.644l1.831,0l0,0.553l-1.122,0l0,0.475c0.106,-0.049 0.234,-0.074 0.382,-0.074Z" style="fill:#FDDEA2;fill-rule:nonzero;"/>
    <path d="M60.314,293.654l3.492,-1.897l-3.492,-2.03l0,3.927Z" style="fill:none;stroke:#FDDEA2;stroke-width:0.55px;stroke-linejoin:round;stroke-miterlimit:1.5;"/>
    <path d="M50.721,291.715l9.491,0" style="fill:none;stroke:#FDDEA2;stroke-width:0.55px;stroke-linejoin:round;stroke-miterlimit:1.5;"/>
    <circle cx="114.785" cy="292.279" r="0.649" style="fill:#FDDEA2;stroke:#FDDEA2;stroke-width:0.55px;stroke-linejoin:round;stroke-miterlimit:1.5;"/>
    <path d="M124.428,294.314l3.492,-1.897l-3.492,-2.03l0,3.927Z" style="fill:none;stroke:#FDDEA2;stroke-width:0.55px;stroke-linejoin:round;stroke-miterlimit:1.5;"/>
    <path d="M121.197,292.375l3.038,0" style="fill:none;stroke:#FDDEA2;stroke-width:0.55px;stroke-linejoin:round;stroke-miterlimit:1.5;"/>
    <g>
      <g>
        <path d="M133.215,295.054l0,-5.384" style="fill:none;stroke:#FDDEA2;stroke-width:0.55px;stroke-linejoin:round;stroke-miterlimit:1.5;"/>
        <path d="M130.777,295.054l0,-5.384" style="fill:none;stroke:#FDDEA2;stroke-width:0.55px;stroke-linejoin:round;stroke-miterlimit:1.5;"/>
      </g>
      <path d="M128.029,292.395l2.449,0" style="fill:none;stroke:#FDDEA2;stroke-width:0.55px;stroke-linejoin:round;stroke-miterlimit:1.5;"/>
      <path d="M133.395,292.379l4.776,0" style="fill:none;stroke:#FDDEA2;stroke-width:0.55px;stroke-linejoin:round;stroke-miterlimit:1.5;"/>
    </g>
    <path d="M6.127,276.959l0,1.909l-0.637,0l0,-1.909l-0.522,0l0,-0.539l1.682,0l0,0.539l-0.523,0Z" style="fill:#FDDEA2;fill-rule:nonzero;"/>
    <path d="M7.568,276.42l0,1.331c0,0.071 0.003,0.144 0.009,0.219c0.005,0.075 0.021,0.142 0.048,0.203c0.027,0.061 0.07,0.11 0.129,0.148c0.058,0.038 0.14,0.057 0.246,0.057c0.106,0 0.188,-0.019 0.245,-0.057c0.058,-0.038 0.101,-0.087 0.129,-0.148c0.028,-0.061 0.045,-0.128 0.05,-0.203c0.005,-0.075 0.008,-0.148 0.008,-0.219l0,-1.331l0.633,0l0,1.419c0,0.381 -0.087,0.659 -0.261,0.834c-0.174,0.175 -0.442,0.263 -0.804,0.263c-0.361,0 -0.63,-0.088 -0.805,-0.263c-0.175,-0.175 -0.263,-0.453 -0.263,-0.834l0,-1.419l0.636,0Z" style="fill:#FDDEA2;fill-rule:nonzero;"/>
    <path d="M9.578,278.868l0,-2.448l0.637,0l1.175,1.496l0,-1.496l0.633,0l0,2.448l-0.633,0l-1.175,-1.497l0,1.497l-0.637,0Z" style="fill:#FDDEA2;fill-rule:nonzero;"/>
    <path d="M13.929,276.959l-0.756,0l0,0.409l0.714,0l0,0.539l-0.714,0l0,0.422l0.756,0l0,0.539l-1.393,0l0,-2.448l1.393,0l0,0.539Z" style="fill:#FDDEA2;fill-rule:nonzero;"/>
    <path d="M73.026,287.292c-0.07,-0.057 -0.139,-0.098 -0.208,-0.125c-0.069,-0.027 -0.137,-0.041 -0.202,-0.041c-0.082,0 -0.149,0.02 -0.201,0.059c-0.052,0.039 -0.078,0.089 -0.078,0.152c0,0.044 0.013,0.079 0.039,0.107c0.026,0.029 0.06,0.053 0.102,0.073c0.043,0.021 0.09,0.039 0.143,0.054c0.053,0.015 0.106,0.031 0.158,0.049c0.208,0.069 0.36,0.162 0.456,0.277c0.096,0.116 0.145,0.267 0.145,0.453c0,0.126 -0.022,0.239 -0.064,0.341c-0.042,0.102 -0.104,0.189 -0.185,0.262c-0.081,0.072 -0.181,0.128 -0.299,0.168c-0.118,0.04 -0.251,0.061 -0.401,0.061c-0.309,0 -0.596,-0.092 -0.86,-0.276l0.273,-0.514c0.095,0.085 0.189,0.148 0.282,0.189c0.093,0.041 0.185,0.062 0.276,0.062c0.104,0 0.181,-0.024 0.232,-0.072c0.051,-0.048 0.077,-0.102 0.077,-0.162c0,-0.037 -0.007,-0.069 -0.02,-0.096c-0.013,-0.027 -0.034,-0.052 -0.065,-0.075c-0.03,-0.022 -0.07,-0.044 -0.118,-0.063c-0.049,-0.02 -0.108,-0.041 -0.177,-0.065c-0.083,-0.026 -0.163,-0.055 -0.242,-0.086c-0.079,-0.031 -0.15,-0.073 -0.211,-0.125c-0.062,-0.052 -0.112,-0.117 -0.15,-0.196c-0.037,-0.08 -0.056,-0.18 -0.056,-0.301c0,-0.121 0.02,-0.231 0.06,-0.329c0.04,-0.099 0.096,-0.183 0.169,-0.254c0.072,-0.07 0.161,-0.125 0.266,-0.164c0.105,-0.039 0.222,-0.058 0.352,-0.058c0.121,0 0.248,0.017 0.38,0.05c0.132,0.034 0.259,0.083 0.38,0.148l-0.253,0.497Z" style="fill:#FDDEA2;fill-rule:nonzero;"/>
    <path d="M75.065,288.204l-0.286,-0.815l-0.286,0.815l0.572,0Zm0.169,0.484l-0.91,0l-0.146,0.425l-0.678,0l0.932,-2.448l0.694,0l0.932,2.448l-0.678,0l-0.146,-0.425Z" style="fill:#FDDEA2;fill-rule:nonzero;"/>
    <path d="M76.636,286.665l0.422,1.581l0.52,-1.581l0.506,0l0.52,1.581l0.422,-1.581l0.666,0l-0.731,2.448l-0.649,0l-0.481,-1.419l-0.48,1.419l-0.65,0l-0.73,-2.448l0.665,0Z" style="fill:#FDDEA2;fill-rule:nonzero;"/>
    <path d="M80.552,287.204l-0.357,0l0,-0.539l0.994,0l0,2.448l-0.637,0l0,-1.909Z" style="fill:#FDDEA2;fill-rule:nonzero;"/>
    <path d="M137.433,289.227c-0.069,-0.056 -0.139,-0.098 -0.208,-0.125c-0.069,-0.027 -0.136,-0.041 -0.201,-0.041c-0.083,0 -0.15,0.02 -0.202,0.059c-0.052,0.039 -0.078,0.09 -0.078,0.152c0,0.044 0.013,0.079 0.039,0.108c0.026,0.028 0.061,0.052 0.103,0.073c0.042,0.02 0.09,0.038 0.143,0.053c0.053,0.015 0.105,0.032 0.157,0.049c0.208,0.069 0.36,0.162 0.456,0.278c0.097,0.115 0.145,0.266 0.145,0.453c0,0.125 -0.021,0.239 -0.064,0.34c-0.042,0.102 -0.103,0.189 -0.185,0.262c-0.081,0.072 -0.18,0.129 -0.298,0.169c-0.118,0.04 -0.252,0.06 -0.401,0.06c-0.31,0 -0.597,-0.092 -0.861,-0.276l0.273,-0.513c0.095,0.084 0.189,0.147 0.282,0.188c0.094,0.041 0.186,0.062 0.276,0.062c0.104,0 0.182,-0.024 0.233,-0.072c0.05,-0.047 0.076,-0.101 0.076,-0.162c0,-0.037 -0.007,-0.069 -0.02,-0.096c-0.013,-0.027 -0.034,-0.052 -0.065,-0.074c-0.03,-0.023 -0.069,-0.044 -0.118,-0.064c-0.049,-0.019 -0.108,-0.041 -0.177,-0.065c-0.082,-0.026 -0.163,-0.054 -0.242,-0.086c-0.079,-0.031 -0.149,-0.073 -0.211,-0.125c-0.062,-0.052 -0.111,-0.117 -0.149,-0.196c-0.038,-0.079 -0.057,-0.179 -0.057,-0.301c0,-0.121 0.02,-0.231 0.06,-0.329c0.04,-0.099 0.096,-0.183 0.169,-0.253c0.072,-0.071 0.161,-0.125 0.266,-0.164c0.105,-0.039 0.222,-0.059 0.352,-0.059c0.122,0 0.248,0.017 0.38,0.05c0.132,0.034 0.259,0.083 0.38,0.148l-0.253,0.497Z" style="fill:#FDDEA2;fill-rule:nonzero;"/>
    <path d="M139.472,290.139l-0.286,-0.815l-0.285,0.815l0.571,0Zm0.169,0.484l-0.909,0l-0.146,0.426l-0.679,0l0.932,-2.449l0.695,0l0.932,2.449l-0.679,0l-0.146,-0.426Z" style="fill:#FDDEA2;fill-rule:nonzero;"/>
    <path d="M141.044,288.6l0.422,1.582l0.519,-1.582l0.507,0l0.519,1.582l0.422,-1.582l0.666,0l-0.731,2.449l-0.649,0l-0.481,-1.419l-0.48,1.419l-0.65,0l-0.73,-2.449l0.666,0Z" style="fill:#FDDEA2;fill-rule:nonzero;"/>
    <path d="M146.161,291.049l-1.971,0l0.607,-0.63c0.16,-0.167 0.286,-0.308 0.377,-0.424c0.091,-0.116 0.158,-0.214 0.203,-0.294c0.044,-0.08 0.072,-0.145 0.082,-0.195c0.011,-0.05 0.017,-0.092 0.017,-0.126c0,-0.037 -0.006,-0.073 -0.018,-0.108c-0.012,-0.034 -0.03,-0.065 -0.054,-0.092c-0.024,-0.027 -0.052,-0.049 -0.086,-0.065c-0.033,-0.016 -0.073,-0.024 -0.118,-0.024c-0.087,0 -0.155,0.028 -0.203,0.084c-0.049,0.056 -0.073,0.127 -0.073,0.211c0,0.024 0.003,0.059 0.009,0.104l-0.694,0c0,-0.143 0.023,-0.273 0.069,-0.39c0.047,-0.117 0.112,-0.217 0.197,-0.302c0.084,-0.084 0.184,-0.149 0.3,-0.194c0.116,-0.046 0.243,-0.069 0.382,-0.069c0.136,0 0.262,0.022 0.378,0.065c0.116,0.044 0.216,0.104 0.3,0.182c0.085,0.078 0.151,0.171 0.198,0.278c0.048,0.107 0.072,0.223 0.072,0.349c0,0.134 -0.029,0.258 -0.086,0.372c-0.058,0.113 -0.149,0.23 -0.275,0.349l-0.405,0.38l0.792,0l0,0.539Z" style="fill:#FDDEA2;fill-rule:nonzero;"/>
    <path d="M135.742,267.713l0.211,0c0.234,0 0.351,-0.102 0.351,-0.306c0,-0.203 -0.117,-0.305 -0.351,-0.305l-0.211,0l0,0.611Zm0,1.324l-0.637,0l0,-2.448l1.013,0c0.275,0 0.486,0.072 0.632,0.214c0.146,0.143 0.219,0.345 0.219,0.604c0,0.26 -0.073,0.461 -0.219,0.604c-0.146,0.143 -0.357,0.215 -0.632,0.215l-0.376,0l0,0.811Z" style="fill:#FDDEA2;fill-rule:nonzero;"/>
    <path d="M137.943,266.589l0,1.331c0,0.072 0.003,0.145 0.008,0.22c0.006,0.074 0.022,0.142 0.049,0.202c0.027,0.061 0.07,0.11 0.128,0.148c0.059,0.038 0.141,0.057 0.247,0.057c0.106,0 0.188,-0.019 0.245,-0.057c0.058,-0.038 0.1,-0.087 0.129,-0.148c0.028,-0.06 0.044,-0.128 0.05,-0.202c0.005,-0.075 0.008,-0.148 0.008,-0.22l0,-1.331l0.633,0l0,1.419c0,0.381 -0.087,0.659 -0.261,0.835c-0.174,0.175 -0.442,0.263 -0.804,0.263c-0.361,0 -0.63,-0.088 -0.805,-0.263c-0.175,-0.176 -0.263,-0.454 -0.263,-0.835l0,-1.419l0.636,0Z" style="fill:#FDDEA2;fill-rule:nonzero;"/>
    <path d="M140.59,266.589l0,1.909l0.763,0l0,0.539l-1.4,0l0,-2.448l0.637,0Z" style="fill:#FDDEA2;fill-rule:nonzero;"/>
    <path d="M143.064,267.216c-0.069,-0.057 -0.139,-0.098 -0.208,-0.125c-0.069,-0.027 -0.136,-0.041 -0.201,-0.041c-0.083,0 -0.15,0.02 -0.202,0.059c-0.052,0.039 -0.078,0.089 -0.078,0.152c0,0.044 0.013,0.079 0.039,0.107c0.026,0.029 0.061,0.053 0.103,0.073c0.042,0.021 0.09,0.039 0.143,0.054c0.053,0.015 0.105,0.031 0.157,0.049c0.208,0.069 0.36,0.162 0.456,0.277c0.097,0.116 0.145,0.267 0.145,0.453c0,0.126 -0.021,0.239 -0.064,0.341c-0.042,0.102 -0.103,0.189 -0.185,0.262c-0.081,0.072 -0.18,0.128 -0.298,0.168c-0.118,0.04 -0.252,0.061 -0.401,0.061c-0.31,0 -0.597,-0.092 -0.861,-0.276l0.273,-0.514c0.095,0.085 0.189,0.148 0.282,0.189c0.094,0.041 0.186,0.062 0.276,0.062c0.104,0 0.182,-0.024 0.233,-0.072c0.05,-0.048 0.076,-0.102 0.076,-0.162c0,-0.037 -0.007,-0.069 -0.02,-0.096c-0.013,-0.027 -0.034,-0.052 -0.065,-0.075c-0.03,-0.022 -0.069,-0.044 -0.118,-0.063c-0.049,-0.02 -0.108,-0.041 -0.177,-0.065c-0.082,-0.026 -0.163,-0.055 -0.242,-0.086c-0.079,-0.031 -0.149,-0.073 -0.211,-0.125c-0.062,-0.052 -0.111,-0.117 -0.149,-0.196c-0.038,-0.08 -0.057,-0.18 -0.057,-0.301c0,-0.121 0.02,-0.231 0.06,-0.329c0.04,-0.099 0.096,-0.183 0.169,-0.254c0.072,-0.07 0.161,-0.125 0.266,-0.164c0.105,-0.039 0.222,-0.058 0.352,-0.058c0.122,0 0.248,0.017 0.38,0.05c0.132,0.034 0.259,0.083 0.38,0.148l-0.253,0.497Z" style="fill:#FDDEA2;fill-rule:nonzero;"/>
    <path d="M145.21,267.128l-0.756,0l0,0.409l0.714,0l0,0.539l-0.714,0l0,0.422l0.756,0l0,0.539l-1.393,0l0,-2.448l1.393,0l0,0.539Z" style="fill:#FDDEA2;fill-rule:nonzero;"/>
    <path d="M65.849,278.294l0.211,0c0.234,0 0.35,-0.102 0.35,-0.305c0,-0.204 -0.116,-0.306 -0.35,-0.306l-0.211,0l0,0.611Zm0,1.325l-0.637,0l0,-2.449l1.013,0c0.275,0 0.486,0.072 0.632,0.215c0.146,0.143 0.219,0.344 0.219,0.604c0,0.259 -0.073,0.461 -0.219,0.604c-0.146,0.142 -0.357,0.214 -0.632,0.214l-0.376,0l0,0.812Z" style="fill:#FDDEA2;fill-rule:nonzero;"/>
    <path d="M67.823,277.17l0.422,1.582l0.52,-1.582l0.506,0l0.52,1.582l0.422,-1.582l0.665,0l-0.73,2.449l-0.65,0l-0.48,-1.419l-0.481,1.419l-0.649,0l-0.731,-2.449l0.666,0Z" style="fill:#FDDEA2;fill-rule:nonzero;"/>
    <path d="M72.21,276.924l0.464,0l-1.338,3.256l-0.461,0l1.335,-3.256Z" style="fill:#FDDEA2;fill-rule:nonzero;"/>
    <path d="M74.21,277.797c-0.069,-0.056 -0.139,-0.098 -0.208,-0.125c-0.069,-0.027 -0.136,-0.041 -0.201,-0.041c-0.083,0 -0.15,0.02 -0.202,0.059c-0.052,0.039 -0.078,0.09 -0.078,0.153c0,0.043 0.013,0.079 0.039,0.107c0.026,0.028 0.06,0.052 0.103,0.073c0.042,0.02 0.09,0.038 0.143,0.053c0.053,0.015 0.105,0.032 0.157,0.049c0.208,0.069 0.36,0.162 0.456,0.278c0.097,0.115 0.145,0.266 0.145,0.453c0,0.125 -0.021,0.239 -0.064,0.341c-0.042,0.101 -0.103,0.188 -0.185,0.261c-0.081,0.072 -0.18,0.129 -0.298,0.169c-0.118,0.04 -0.252,0.06 -0.401,0.06c-0.31,0 -0.597,-0.092 -0.861,-0.276l0.273,-0.513c0.095,0.084 0.189,0.147 0.282,0.188c0.093,0.041 0.185,0.062 0.276,0.062c0.104,0 0.182,-0.024 0.233,-0.072c0.05,-0.047 0.076,-0.101 0.076,-0.162c0,-0.037 -0.007,-0.069 -0.02,-0.096c-0.013,-0.027 -0.034,-0.052 -0.065,-0.074c-0.03,-0.023 -0.069,-0.044 -0.118,-0.064c-0.049,-0.019 -0.108,-0.041 -0.177,-0.065c-0.082,-0.026 -0.163,-0.054 -0.242,-0.086c-0.079,-0.031 -0.149,-0.073 -0.211,-0.125c-0.062,-0.052 -0.111,-0.117 -0.149,-0.196c-0.038,-0.079 -0.057,-0.179 -0.057,-0.301c0,-0.121 0.02,-0.231 0.06,-0.329c0.04,-0.099 0.096,-0.183 0.169,-0.253c0.072,-0.071 0.161,-0.125 0.266,-0.164c0.105,-0.039 0.222,-0.059 0.352,-0.059c0.122,0 0.248,0.017 0.38,0.051c0.132,0.033 0.259,0.082 0.38,0.147l-0.253,0.497Z" style="fill:#FDDEA2;fill-rule:nonzero;"/>
    <path d="M75.6,278.18l0.776,-1.01l0.785,0l-0.971,1.16l1.062,1.289l-0.824,0l-0.828,-1.062l0,1.062l-0.637,0l0,-2.449l0.637,0l0,1.01Z" style="fill:#FDDEA2;fill-rule:nonzero;"/>
    <rect x="77.535" y="277.17" width="0.636" height="2.448" style="fill:#FDDEA2;fill-rule:nonzero;"/>
    <path d="M79.321,278.294l0.211,0c0.233,0 0.35,-0.102 0.35,-0.305c0,-0.204 -0.117,-0.306 -0.35,-0.306l-0.211,0l0,0.611Zm0,1.325l-0.637,0l0,-2.449l1.013,0c0.275,0 0.486,0.072 0.632,0.215c0.146,0.143 0.219,0.344 0.219,0.604c0,0.259 -0.073,0.461 -0.219,0.604c-0.146,0.142 -0.357,0.214 -0.632,0.214l-0.376,0l0,0.812Z" style="fill:#FDDEA2;fill-rule:nonzero;"/>
    <path d="M4.942,264.257l0,1.625l1.714,1.095l-2.817,0.895l2.817,1.185l-2.817,0.832l2.817,1.469l-2.817,1.29l1.571,0.756l0,1.841" style="fill:none;stroke:#FDDEA2;stroke-width:0.55px;stroke-linejoin:round;stroke-miterlimit:1.5;"/>
    <path d="M7.161,269.69l0.937,-0.651l0,1.399l-0.937,-0.748Z" style="fill:#FDDEA2;stroke:#FDDEA2;stroke-width:0.55px;stroke-linejoin:round;stroke-miterlimit:1.5;"/>
    <path d="M8.098,269.738l3.568,0" style="fill:none;stroke:#FDDEA2;stroke-width:0.55px;stroke-linejoin:round;stroke-miterlimit:1.5;"/>
    <path d="M11.103,269.752c0,0.358 0.291,0.649 0.649,0.649c0.359,0 0.65,-0.291 0.65,-0.649c0,-0.358 -0.291,-0.649 -0.65,-0.649c-0.358,0 -0.649,0.291 -0.649,0.649Z" style="fill:#FDDEA2;stroke:#FDDEA2;stroke-width:0.55px;stroke-linejoin:round;stroke-miterlimit:1.5;"/>
    <path d="M19.64,269.852c0,0.358 0.291,0.649 0.649,0.649c0.359,0 0.65,-0.291 0.65,-0.649c0,-0.359 -0.291,-0.65 -0.65,-0.65c-0.358,0 -0.649,0.291 -0.649,0.65Z" style="fill:#FDDEA2;stroke:#FDDEA2;stroke-width:0.55px;stroke-linejoin:round;stroke-miterlimit:1.5;"/>
    <path d="M31.663,263.877l-26.714,0" style="fill:none;stroke:#FDDEA2;stroke-width:0.55px;stroke-linejoin:round;stroke-miterlimit:1.5;"/>
    <path d="M20.375,269.869l-8.684,0" style="fill:none;stroke:#FDDEA2;stroke-width:0.55px;stroke-linejoin:round;stroke-miterlimit:1.5;"/>
    <path d="M11.754,269.764l0,5.5l-6.339,0" style="fill:none;stroke:#FDDEA2;stroke-width:0.55px;stroke-linejoin:round;stroke-miterlimit:1.5;"/>
    <path d="M69.056,264.906l0,1.625l1.714,1.095l-2.817,0.895l2.817,1.185l-2.817,0.833l2.817,1.469l-2.817,1.289l1.57,0.756l0,1.841" style="fill:none;stroke:#FDDEA2;stroke-width:0.55px;stroke-linejoin:round;stroke-miterlimit:1.5;"/>
    <path d="M71.275,270.34l0.936,-0.652l0,1.399l-0.936,-0.747Z" style="fill:#FDDEA2;stroke:#FDDEA2;stroke-width:0.55px;stroke-linejoin:round;stroke-miterlimit:1.5;"/>
    <path d="M72.211,270.388l3.569,0" style="fill:none;stroke:#FDDEA2;stroke-width:0.55px;stroke-linejoin:round;stroke-miterlimit:1.5;"/>
    <path d="M75.217,270.401c0,0.359 0.291,0.65 0.649,0.65c0.358,0 0.649,-0.291 0.649,-0.65c0,-0.358 -0.291,-0.649 -0.649,-0.649c-0.358,0 -0.649,0.291 -0.649,0.649Z" style="fill:#FDDEA2;stroke:#FDDEA2;stroke-width:0.55px;stroke-linejoin:round;stroke-miterlimit:1.5;"/>
    <path d="M95.787,263.854l-26.728,0l0,1.069" style="fill:none;stroke:#FDDEA2;stroke-width:0.55px;stroke-linejoin:round;stroke-miterlimit:1.5;"/>
    <path d="M84.489,270.519l-8.684,0" style="fill:none;stroke:#FDDEA2;stroke-width:0.55px;stroke-linejoin:round;stroke-miterlimit:1.5;"/>
    <path d="M75.868,270.413l0,5.501l-6.34,0" style="fill:none;stroke:#FDDEA2;stroke-width:0.55px;stroke-linejoin:round;stroke-miterlimit:1.5;"/>
    <path d="M14.96,213.272l0,-3.36l-1.272,0l0,-0.912l3.684,0l0,0.912l-1.272,0l0,3.36l-1.14,0Z" style="fill:#FDDEA2;fill-rule:nonzero;"/>
    <path d="M19.706,213.326c-0.624,0 -1.096,-0.157 -1.416,-0.471c-0.32,-0.314 -0.48,-0.775 -0.48,-1.383l0,-2.472l1.098,0l0,2.514c0,0.308 0.069,0.544 0.207,0.708c0.138,0.164 0.335,0.246 0.591,0.246c0.252,0 0.446,-0.083 0.582,-0.249c0.136,-0.166 0.204,-0.401 0.204,-0.705l0,-2.514l1.11,0l0,2.472c0,0.6 -0.163,1.059 -0.489,1.377c-0.326,0.318 -0.795,0.477 -1.407,0.477Z" style="fill:#FDDEA2;fill-rule:nonzero;"/>
    <path d="M25.1,209l1.062,0l0,4.272l-0.834,0l-1.938,-2.424l0,2.424l-1.05,0l0,-4.272l0.822,0l1.938,2.412l0,-2.412Z" style="fill:#FDDEA2;fill-rule:nonzero;"/>
    <path d="M26.936,213.272l0,-4.272l3.048,0l0,0.864l-1.95,0l0,0.804l1.824,0l0,0.864l-1.824,0l0,0.876l1.95,0l0,0.864l-3.048,0Z" style="fill:#FDDEA2;fill-rule:nonzero;"/>
    <path d="M45,209l2.034,0c0.488,0 0.866,0.117 1.134,0.351c0.268,0.234 0.402,0.551 0.402,0.951c0,0.396 -0.136,0.712 -0.408,0.948c-0.272,0.236 -0.648,0.354 -1.128,0.354l-0.906,0l0,1.668l-1.128,0l0,-4.272Zm1.884,1.764c0.424,0 0.636,-0.15 0.636,-0.45c0,-0.152 -0.051,-0.267 -0.153,-0.345c-0.102,-0.078 -0.263,-0.117 -0.483,-0.117l-0.756,0l0,0.912l0.756,0Z" style="fill:#FDDEA2;fill-rule:nonzero;"/>
    <path d="M54.378,209l1.068,0l-1.53,4.272l-0.894,0l-0.894,-2.538l-0.912,2.538l-0.894,0l-1.524,-4.272l1.146,0l0.876,2.694l0.954,-2.694l0.768,0l0.918,2.742l0.918,-2.742Z" style="fill:#FDDEA2;fill-rule:nonzero;"/>
    <path d="M56.1,213.656l-0.87,0l1.578,-4.932l0.876,0l-1.584,4.932Z" style="fill:#FDDEA2;fill-rule:nonzero;"/>
    <path d="M59.448,213.326c-0.32,0 -0.636,-0.042 -0.948,-0.126c-0.312,-0.084 -0.566,-0.198 -0.762,-0.342l0.354,-0.798c0.208,0.132 0.429,0.233 0.663,0.303c0.234,0.07 0.469,0.105 0.705,0.105c0.24,0 0.424,-0.033 0.552,-0.099c0.128,-0.066 0.192,-0.159 0.192,-0.279c0,-0.108 -0.058,-0.197 -0.174,-0.267c-0.116,-0.07 -0.334,-0.139 -0.654,-0.207c-0.404,-0.08 -0.718,-0.179 -0.942,-0.297c-0.224,-0.118 -0.381,-0.257 -0.471,-0.417c-0.09,-0.16 -0.135,-0.354 -0.135,-0.582c0,-0.26 0.074,-0.495 0.222,-0.705c0.148,-0.21 0.356,-0.374 0.624,-0.492c0.268,-0.118 0.574,-0.177 0.918,-0.177c0.308,0 0.607,0.043 0.897,0.129c0.29,0.086 0.517,0.199 0.681,0.339l-0.348,0.798c-0.188,-0.132 -0.386,-0.233 -0.594,-0.303c-0.208,-0.07 -0.416,-0.105 -0.624,-0.105c-0.204,0 -0.368,0.039 -0.492,0.117c-0.124,0.078 -0.186,0.183 -0.186,0.315c0,0.072 0.022,0.132 0.066,0.18c0.044,0.048 0.126,0.095 0.246,0.141c0.12,0.046 0.3,0.095 0.54,0.147c0.388,0.084 0.693,0.185 0.915,0.303c0.222,0.118 0.379,0.256 0.471,0.414c0.092,0.158 0.138,0.347 0.138,0.567c0,0.416 -0.162,0.743 -0.486,0.981c-0.324,0.238 -0.78,0.357 -1.368,0.357Z" style="fill:#FDDEA2;fill-rule:nonzero;"/>
    <path d="M66.108,213.272l-1.338,0l-1.71,-1.938l0,1.938l-1.128,0l0,-4.272l1.128,0l0,1.836l1.662,-1.836l1.32,0l-1.89,2.028l1.956,2.244Z" style="fill:#FDDEA2;fill-rule:nonzero;"/>
    <rect x="66.168" y="209" width="1.128" height="4.272" style="fill:#FDDEA2;fill-rule:nonzero;"/>
    <path d="M68.064,209l2.034,0c0.488,0 0.866,0.117 1.134,0.351c0.268,0.234 0.402,0.551 0.402,0.951c0,0.396 -0.136,0.712 -0.408,0.948c-0.272,0.236 -0.648,0.354 -1.128,0.354l-0.906,0l0,1.668l-1.128,0l0,-4.272Zm1.884,1.764c0.424,0 0.636,-0.15 0.636,-0.45c0,-0.152 -0.051,-0.267 -0.153,-0.345c-0.102,-0.078 -0.263,-0.117 -0.483,-0.117l-0.756,0l0,0.912l0.756,0Z" style="fill:#FDDEA2;fill-rule:nonzero;"/>
    <path d="M86.874,211.058c0.252,0.072 0.446,0.199 0.582,0.381c0.136,0.182 0.204,0.403 0.204,0.663c0,0.236 -0.062,0.442 -0.186,0.618c-0.124,0.176 -0.301,0.312 -0.531,0.408c-0.23,0.096 -0.501,0.144 -0.813,0.144l-2.13,0l0,-4.272l2.076,0c0.448,0 0.804,0.1 1.068,0.3c0.264,0.2 0.396,0.47 0.396,0.81c0,0.22 -0.058,0.414 -0.174,0.582c-0.116,0.168 -0.28,0.29 -0.492,0.366Zm-1.776,-0.384l0.786,0c0.208,0 0.36,-0.032 0.456,-0.096c0.096,-0.064 0.144,-0.166 0.144,-0.306c0,-0.144 -0.049,-0.25 -0.147,-0.318c-0.098,-0.068 -0.249,-0.102 -0.453,-0.102l-0.786,0l0,0.822Zm0.9,1.746c0.216,0 0.371,-0.034 0.465,-0.102c0.094,-0.068 0.141,-0.182 0.141,-0.342c0,-0.164 -0.046,-0.28 -0.138,-0.348c-0.092,-0.068 -0.248,-0.102 -0.468,-0.102l-0.9,0l0,0.894l0.9,0Z" style="fill:#FDDEA2;fill-rule:nonzero;"/>
    <path d="M90.246,213.326c-0.436,0 -0.816,-0.089 -1.14,-0.267c-0.324,-0.178 -0.573,-0.433 -0.747,-0.765c-0.174,-0.332 -0.261,-0.72 -0.261,-1.164c0,-0.444 0.088,-0.83 0.264,-1.158c0.176,-0.328 0.425,-0.581 0.747,-0.759c0.322,-0.178 0.701,-0.267 1.137,-0.267c0.436,0 0.815,0.089 1.137,0.267c0.322,0.178 0.569,0.431 0.741,0.759c0.172,0.328 0.258,0.714 0.258,1.158c0,0.444 -0.086,0.832 -0.258,1.164c-0.172,0.332 -0.419,0.587 -0.741,0.765c-0.322,0.178 -0.701,0.267 -1.137,0.267Zm0,-0.858c0.32,0 0.571,-0.114 0.753,-0.342c0.182,-0.228 0.273,-0.56 0.273,-0.996c0,-0.432 -0.091,-0.761 -0.273,-0.987c-0.182,-0.226 -0.433,-0.339 -0.753,-0.339c-0.32,0 -0.57,0.112 -0.75,0.336c-0.18,0.224 -0.27,0.554 -0.27,0.99c0,0.44 0.09,0.773 0.27,0.999c0.18,0.226 0.43,0.339 0.75,0.339Z" style="fill:#FDDEA2;fill-rule:nonzero;"/>
    <path d="M93.768,213.272l0,-3.36l-1.272,0l0,-0.912l3.684,0l0,0.912l-1.272,0l0,3.36l-1.14,0Z" style="fill:#FDDEA2;fill-rule:nonzero;"/>
    <path d="M99.468,209l1.104,0l0,4.272l-1.104,0l0,-1.728l-1.728,0l0,1.728l-1.104,0l0,-4.272l1.104,0l0,1.662l1.728,0l0,-1.662Z" style="fill:#FDDEA2;fill-rule:nonzero;"/>
    <path d="M124.268,209l1.068,0l-1.53,4.272l-0.894,0l-0.894,-2.538l-0.912,2.538l-0.894,0l-1.524,-4.272l1.146,0l0.876,2.694l0.954,-2.694l0.768,0l0.918,2.742l0.918,-2.742Z" style="fill:#FDDEA2;fill-rule:nonzero;"/>
    <path d="M128.612,213.272l-0.378,-0.882l-1.896,0l-0.378,0.882l-1.128,0l1.998,-4.272l0.888,0l2.004,4.272l-1.11,0Zm-1.908,-1.728l1.164,0l-0.582,-1.35l-0.582,1.35Z" style="fill:#FDDEA2;fill-rule:nonzero;"/>
    <path d="M132.656,209l1.134,0l-1.944,4.272l-0.894,0l-1.944,-4.272l1.17,0l1.23,2.868l1.248,-2.868Z" style="fill:#FDDEA2;fill-rule:nonzero;"/>
    <path d="M134.036,213.272l0,-4.272l3.048,0l0,0.864l-1.95,0l0,0.804l1.824,0l0,0.864l-1.824,0l0,0.876l1.95,0l0,0.864l-3.048,0Z" style="fill:#FDDEA2;fill-rule:nonzero;"/>
    <path d="M13.87,349.335c-0.373,0 -0.742,-0.049 -1.106,-0.147c-0.364,-0.098 -0.66,-0.231 -0.889,-0.399l0.413,-0.931c0.243,0.154 0.5,0.272 0.773,0.353c0.273,0.082 0.548,0.123 0.823,0.123c0.28,0 0.495,-0.038 0.644,-0.115c0.149,-0.077 0.224,-0.186 0.224,-0.326c0,-0.126 -0.068,-0.23 -0.203,-0.311c-0.135,-0.082 -0.39,-0.163 -0.763,-0.242c-0.471,-0.093 -0.838,-0.209 -1.099,-0.346c-0.261,-0.138 -0.445,-0.3 -0.55,-0.487c-0.105,-0.187 -0.157,-0.413 -0.157,-0.679c0,-0.303 0.086,-0.577 0.259,-0.822c0.173,-0.245 0.415,-0.437 0.728,-0.575c0.313,-0.137 0.67,-0.206 1.071,-0.206c0.359,0 0.708,0.05 1.046,0.151c0.339,0.1 0.604,0.232 0.795,0.395l-0.406,0.931c-0.219,-0.154 -0.45,-0.272 -0.693,-0.353c-0.243,-0.082 -0.485,-0.123 -0.728,-0.123c-0.238,0 -0.429,0.046 -0.574,0.137c-0.145,0.091 -0.217,0.213 -0.217,0.367c0,0.084 0.026,0.154 0.077,0.21c0.051,0.056 0.147,0.111 0.287,0.165c0.14,0.053 0.35,0.11 0.63,0.171c0.453,0.098 0.808,0.216 1.067,0.354c0.259,0.137 0.443,0.298 0.55,0.483c0.107,0.184 0.161,0.404 0.161,0.661c0,0.485 -0.189,0.867 -0.567,1.145c-0.378,0.277 -0.91,0.416 -1.596,0.416Z" style="fill:#FDDEA2;fill-rule:nonzero;"/>
    <path d="M20.485,349.272l-0.441,-1.029l-2.212,0l-0.441,1.029l-1.316,0l2.331,-4.984l1.036,0l2.338,4.984l-1.295,0Zm-2.226,-2.016l1.358,0l-0.679,-1.575l-0.679,1.575Z" style="fill:#FDDEA2;fill-rule:nonzero;"/>
    <path d="M27.702,344.288l1.246,0l-1.785,4.984l-1.043,0l-1.043,-2.961l-1.064,2.961l-1.043,0l-1.778,-4.984l1.337,0l1.022,3.143l1.113,-3.143l0.896,0l1.071,3.199l1.071,-3.199Z" style="fill:#FDDEA2;fill-rule:nonzero;"/>
    <path d="M32.056,348.229l1.078,0l0,1.043l-3.458,0l0,-1.043l1.071,0l0,-2.513l-1.001,0.574l0,-1.127l1.54,-0.875l0.77,0l0,3.941Z" style="fill:#FDDEA2;fill-rule:nonzero;"/>
    <path d="M47.064,344.288l2.373,0c0.569,0 1.01,0.136 1.323,0.409c0.313,0.274 0.469,0.643 0.469,1.11c0,0.462 -0.159,0.831 -0.476,1.106c-0.317,0.275 -0.756,0.413 -1.316,0.413l-1.057,0l0,1.946l-1.316,0l0,-4.984Zm2.198,2.058c0.495,0 0.742,-0.175 0.742,-0.525c0,-0.177 -0.059,-0.312 -0.178,-0.403c-0.119,-0.091 -0.307,-0.136 -0.564,-0.136l-0.882,0l0,1.064l0.882,0Z" style="fill:#FDDEA2;fill-rule:nonzero;"/>
    <path d="M54.05,349.335c-0.728,0 -1.279,-0.183 -1.652,-0.549c-0.373,-0.367 -0.56,-0.905 -0.56,-1.614l0,-2.884l1.281,0l0,2.933c0,0.359 0.081,0.635 0.242,0.826c0.161,0.191 0.39,0.287 0.689,0.287c0.294,0 0.52,-0.097 0.679,-0.291c0.159,-0.193 0.238,-0.467 0.238,-0.822l0,-2.933l1.295,0l0,2.884c0,0.7 -0.19,1.235 -0.57,1.606c-0.381,0.371 -0.928,0.557 -1.642,0.557Z" style="fill:#FDDEA2;fill-rule:nonzero;"/>
    <path d="M57.123,349.272l0,-4.984l1.316,0l0,3.92l2.107,0l0,1.064l-3.423,0Z" style="fill:#FDDEA2;fill-rule:nonzero;"/>
    <path d="M62.926,349.335c-0.373,0 -0.742,-0.049 -1.106,-0.147c-0.364,-0.098 -0.66,-0.231 -0.889,-0.399l0.413,-0.931c0.243,0.154 0.501,0.272 0.774,0.353c0.273,0.082 0.547,0.123 0.822,0.123c0.28,0 0.495,-0.038 0.644,-0.115c0.149,-0.077 0.224,-0.186 0.224,-0.326c0,-0.126 -0.068,-0.23 -0.203,-0.311c-0.135,-0.082 -0.39,-0.163 -0.763,-0.242c-0.471,-0.093 -0.838,-0.209 -1.099,-0.346c-0.261,-0.138 -0.444,-0.3 -0.549,-0.487c-0.105,-0.187 -0.158,-0.413 -0.158,-0.679c0,-0.303 0.086,-0.577 0.259,-0.822c0.173,-0.245 0.415,-0.437 0.728,-0.575c0.313,-0.137 0.67,-0.206 1.071,-0.206c0.359,0 0.708,0.05 1.047,0.151c0.338,0.1 0.603,0.232 0.794,0.395l-0.406,0.931c-0.219,-0.154 -0.45,-0.272 -0.693,-0.353c-0.243,-0.082 -0.485,-0.123 -0.728,-0.123c-0.238,0 -0.429,0.046 -0.574,0.137c-0.145,0.091 -0.217,0.213 -0.217,0.367c0,0.084 0.026,0.154 0.077,0.21c0.051,0.056 0.147,0.111 0.287,0.165c0.14,0.053 0.35,0.11 0.63,0.171c0.453,0.098 0.809,0.216 1.068,0.354c0.259,0.137 0.442,0.298 0.549,0.483c0.107,0.184 0.161,0.404 0.161,0.661c0,0.485 -0.189,0.867 -0.567,1.145c-0.378,0.277 -0.91,0.416 -1.596,0.416Z" style="fill:#FDDEA2;fill-rule:nonzero;"/>
    <path d="M65.824,349.272l0,-4.984l3.556,0l0,1.008l-2.275,0l0,0.938l2.128,0l0,1.008l-2.128,0l0,1.022l2.275,0l0,1.008l-3.556,0Z" style="fill:#FDDEA2;fill-rule:nonzero;"/>
    <path d="M83.87,349.335c-0.373,0 -0.742,-0.049 -1.106,-0.147c-0.364,-0.098 -0.66,-0.231 -0.889,-0.399l0.413,-0.931c0.243,0.154 0.5,0.272 0.773,0.353c0.273,0.082 0.548,0.123 0.823,0.123c0.28,0 0.495,-0.038 0.644,-0.115c0.149,-0.077 0.224,-0.186 0.224,-0.326c0,-0.126 -0.068,-0.23 -0.203,-0.311c-0.135,-0.082 -0.39,-0.163 -0.763,-0.242c-0.471,-0.093 -0.838,-0.209 -1.099,-0.346c-0.261,-0.138 -0.444,-0.3 -0.549,-0.487c-0.105,-0.187 -0.158,-0.413 -0.158,-0.679c0,-0.303 0.086,-0.577 0.259,-0.822c0.173,-0.245 0.415,-0.437 0.728,-0.575c0.313,-0.137 0.67,-0.206 1.071,-0.206c0.359,0 0.708,0.05 1.047,0.151c0.338,0.1 0.603,0.232 0.794,0.395l-0.406,0.931c-0.219,-0.154 -0.45,-0.272 -0.693,-0.353c-0.243,-0.082 -0.485,-0.123 -0.728,-0.123c-0.238,0 -0.429,0.046 -0.574,0.137c-0.145,0.091 -0.217,0.213 -0.217,0.367c0,0.084 0.026,0.154 0.077,0.21c0.051,0.056 0.147,0.111 0.287,0.165c0.14,0.053 0.35,0.11 0.63,0.171c0.453,0.098 0.809,0.216 1.068,0.354c0.259,0.137 0.442,0.298 0.549,0.483c0.107,0.184 0.161,0.404 0.161,0.661c0,0.485 -0.189,0.867 -0.567,1.145c-0.378,0.277 -0.91,0.416 -1.596,0.416Z" style="fill:#FDDEA2;fill-rule:nonzero;"/>
    <path d="M90.485,349.272l-0.441,-1.029l-2.212,0l-0.441,1.029l-1.316,0l2.331,-4.984l1.036,0l2.338,4.984l-1.295,0Zm-2.226,-2.016l1.358,0l-0.679,-1.575l-0.679,1.575Z" style="fill:#FDDEA2;fill-rule:nonzero;"/>
    <path d="M97.702,344.288l1.246,0l-1.785,4.984l-1.043,0l-1.043,-2.961l-1.064,2.961l-1.043,0l-1.778,-4.984l1.337,0l1.022,3.143l1.113,-3.143l0.896,0l1.071,3.199l1.071,-3.199Z" style="fill:#FDDEA2;fill-rule:nonzero;"/>
    <path d="M102.945,348.229l0,1.043l-3.514,0l0,-0.966l1.624,-1.694c0.303,-0.317 0.455,-0.614 0.455,-0.889c0,-0.322 -0.191,-0.483 -0.574,-0.483c-0.196,0 -0.403,0.039 -0.62,0.116c-0.217,0.077 -0.435,0.187 -0.654,0.332l-0.413,-0.931c0.201,-0.163 0.461,-0.293 0.78,-0.388c0.32,-0.096 0.646,-0.144 0.977,-0.144c0.359,0 0.673,0.057 0.941,0.172c0.269,0.114 0.476,0.277 0.623,0.49c0.147,0.212 0.221,0.46 0.221,0.745c0,0.289 -0.057,0.552 -0.172,0.787c-0.114,0.236 -0.309,0.501 -0.584,0.795l-0.994,1.015l1.904,0Z" style="fill:#FDDEA2;fill-rule:nonzero;"/>
    <path d="M122.21,344.288l1.246,0l-1.785,4.984l-1.043,0l-1.043,-2.961l-1.064,2.961l-1.043,0l-1.778,-4.984l1.337,0l1.022,3.143l1.113,-3.143l0.896,0l1.071,3.199l1.071,-3.199Z" style="fill:#FDDEA2;fill-rule:nonzero;"/>
    <path d="M127.278,349.272l-0.441,-1.029l-2.212,0l-0.441,1.029l-1.316,0l2.331,-4.984l1.036,0l2.338,4.984l-1.295,0Zm-2.226,-2.016l1.358,0l-0.679,-1.575l-0.679,1.575Z" style="fill:#FDDEA2;fill-rule:nonzero;"/>
    <path d="M131.996,344.288l1.323,0l-2.268,4.984l-1.043,0l-2.268,-4.984l1.365,0l1.435,3.346l1.456,-3.346Z" style="fill:#FDDEA2;fill-rule:nonzero;"/>
    <path d="M133.606,349.272l0,-4.984l3.556,0l0,1.008l-2.275,0l0,0.938l2.128,0l0,1.008l-2.128,0l0,1.022l2.275,0l0,1.008l-3.556,0Z" style="fill:#FDDEA2;fill-rule:nonzero;"/>
    <path d="M10,243l127.88,0" style="fill:none;stroke:#FDDEA2;stroke-width:1px;stroke-linejoin:round;stroke-miterlimit:1.5;"/>
    <path d="M58.09,121l20.91,-19" style="fill:none;stroke:#FDDEA2;stroke-width:1px;stroke-linejoin:round;stroke-miterlimit:1.5;"/>
    <path d="M39.205,113.5l0,-7.5" style="fill:none;stroke:#FDDEA2;stroke-width:1px;stroke-linejoin:round;stroke-miterlimit:1.5;"/>
    <path d="M39.205,105l-2,3l4,0l-2,-3Z" style="fill:#FDDEA2;stroke:#FDDEA2;stroke-width:1px;stroke-linejoin:round;stroke-miterlimit:1.5;"/>
    <path d="M79.208,101.432l-3.493,0.895l2.976,2.673l0.517,-3.568Z" style="fill:#FDDEA2;stroke:#FDDEA2;stroke-width:1px;stroke-linejoin:round;stroke-miterlimit:1.5;"/>
  </g>
</svg>