<svg width="150px" height="380px" version="1.1" xmlns="http://www.w3.org/2000/svg" xmlns:xlink="http://www.w3.org/1999/xlink" xml:space="preserve" xmlns:serif="http://www.serif.com/" style="fill-rule:evenodd;clip-rule:evenodd;">
  <defs>
    <linearGradient id="_Linear1" x1="0" y1="0" x2="1" y2="0" gradientUnits="userSpaceOnUse" gradientTransform="matrix(0.007008,-37.8989,37.8989,0.007008,75.2834,112.195)">
      <stop offset="0" style="stop-color:#401B5C;stop-opacity:1"/>
      <stop offset="1" style="stop-color:#401B5C;stop-opacity:1"/>
    </linearGradient>
    <linearGradient id="_Linear2" x1="0" y1="0" x2="1" y2="0" gradientUnits="userSpaceOnUse" gradientTransform="matrix(-4.88,-92.58,92.58,-4.88,277.54,345.91)">
      <stop offset="0" style="stop-color:#401B5C;stop-opacity:1"/>
      <stop offset="1" style="stop-color:#401B5C;stop-opacity:1"/>
    </linearGradient>
    <linearGradient id="_Linear3" x1="0" y1="0" x2="1" y2="0" gradientUnits="userSpaceOnUse" gradientTransform="matrix(-4.75,94.86,-94.86,-4.75,277.54,158.47)">
      <stop offset="0" style="stop-color:#401B5C;stop-opacity:1"/>
      <stop offset="1" style="stop-color:#401B5C;stop-opacity:1"/>
    </linearGradient>
    <linearGradient id="_Linear4" x1="0" y1="0" x2="1" y2="0" gradientUnits="userSpaceOnUse" gradientTransform="matrix(1.15392e-16,-1.8845,1.8845,1.15392e-16,56.519,1.9362)">
      <stop offset="0" style="stop-color:#401B5C;stop-opacity:1"/>
      <stop offset="1" style="stop-color:#401B5C;stop-opacity:1"/>
    </linearGradient>
  </defs>
  <g id="Panel">
    <g>
      <rect x="0" y="0" width="150" height="380" style="fill:url(#_Linear1);"/>
      <rect x="0" y="253.33" width="150" height="126.67" style="fill:url(#_Linear2);"/>
      <rect x="0" y="126.67" width="150" height="126.67" style="fill:url(#_Linear3);"/>
      <rect x="0" y="-0" width="150" height="380" style="fill:#103550;fill-opacity:0.1;"/>
      <rect x="0" y="0" width="150" height="2" style="fill:url(#_Linear4);"/>
    </g>
    <path id="path1713" d="M-0,0l149.931,0l-0,380l-149.931,0l-0,-380" style="fill:none;fill-rule:nonzero;stroke:#000;stroke-width:0.78px;"/>
    <path id="path839" d="M15.052,8.872l0.059,0.745l0.059,0.306l0.059,0.232l0.059,0.194l0.059,0.169l0.059,0.151l0.059,0.138l0.059,0.127l0.059,0.118l0.059,0.11l0.059,0.104l0.059,0.098l0.059,0.093l0.059,0.089l0.06,0.084l0.059,0.081l0.059,0.077l0.059,0.074l0.059,0.071l0.059,0.068l0.059,0.066l0.059,0.063l0.059,0.062l0.059,0.059l0.059,0.057l0.059,0.055l0.059,0.053l0.059,0.051l0.059,0.05l0.059,0.048l0.059,0.047l0.059,0.045l0.059,0.043l0.059,0.043l0.059,0.041l0.059,0.039l0.059,0.039l0.059,0.037l0.059,0.035l0.059,0.035l0.059,0.034l0.059,0.032l0.059,0.032l0.059,0.03l0.059,0.029l0.059,0.029l0.059,0.027l0.059,0.026l0.059,0.025l0.059,0.025l0.06,0.023l0.059,0.023l0.059,0.021l0.059,0.021l0.059,0.02l0.059,0.019l0.059,0.018l0.059,0.018l0.059,0.016l0.059,0.016l0.059,0.015l0.059,0.014l0.059,0.013l0.059,0.013l0.059,0.011l0.059,0.011l0.059,0.01l0.059,0.01l0.059,0.008l0.059,0.008l0.059,0.007l0.059,0.006l0.059,0.006l0.059,0.005l0.059,0.004l0.059,0.003l0.059,0.003l0.059,0.002l0.059,0.001l0.059,0l4.723,0l0.059,-0l0.059,-0.001l0.059,-0.002l0.059,-0.003l0.059,-0.003l0.059,-0.004l0.059,-0.005l0.059,-0.006l0.059,-0.006l0.059,-0.007l0.059,-0.008l0.059,-0.008l0.059,-0.01l0.059,-0.01l0.059,-0.011l0.059,-0.011l0.059,-0.013l0.059,-0.013l0.059,-0.014l0.059,-0.015l0.059,-0.016l0.059,-0.016l0.059,-0.018l0.059,-0.018l0.059,-0.019l0.059,-0.02l0.059,-0.021l0.059,-0.021l0.059,-0.023l0.059,-0.023l0.059,-0.025l0.059,-0.025l0.059,-0.026l0.059,-0.027l0.06,-0.029l0.059,-0.029l0.059,-0.03l0.059,-0.032l0.059,-0.032l0.059,-0.034l0.059,-0.035l0.059,-0.035l0.059,-0.037l0.059,-0.039l0.059,-0.039l0.059,-0.041l0.059,-0.043l0.059,-0.043l0.059,-0.045l0.059,-0.047l0.059,-0.048l0.059,-0.05l0.059,-0.051l0.059,-0.053l0.059,-0.055l0.059,-0.057l0.059,-0.059l0.059,-0.062l0.059,-0.063l0.059,-0.066l0.059,-0.068l0.059,-0.071l0.059,-0.074l0.059,-0.077l0.059,-0.081l0.059,-0.084l0.059,-0.089l0.059,-0.093l0.059,-0.098l0.059,-0.104l0.06,-0.11l0.059,-0.118l0.059,-0.127l0.059,-0.138l0.059,-0.151l0.059,-0.169l0.059,-0.194l0.059,-0.232l0.059,-0.306l0.059,-0.745l-0.059,-0.746l-0.059,-0.306l-0.059,-0.232l-0.059,-0.194l-0.059,-0.169l-0.059,-0.151l-0.059,-0.138l-0.059,-0.127l-0.059,-0.118l-0.06,-0.11l-0.059,-0.104l-0.059,-0.098l-0.059,-0.093l-0.059,-0.088l-0.059,-0.085l-0.059,-0.08l-0.059,-0.077l-0.059,-0.075l-0.059,-0.071l-0.059,-0.068l-0.059,-0.066l-0.059,-0.063l-0.059,-0.061l-0.059,-0.059l-0.059,-0.057l-0.059,-0.055l-0.059,-0.054l-0.059,-0.051l-0.059,-0.05l-0.059,-0.048l-0.059,-0.047l-0.059,-0.045l-0.059,-0.043l-0.059,-0.043l-0.059,-0.04l-0.059,-0.04l-0.059,-0.038l-0.059,-0.037l-0.059,-0.036l-0.059,-0.035l-0.059,-0.034l-0.059,-0.032l-0.059,-0.031l-0.059,-0.031l-0.059,-0.029l-0.06,-0.028l-0.059,-0.028l-0.059,-0.026l-0.059,-0.025l-0.059,-0.025l-0.059,-0.023l-0.059,-0.023l-0.059,-0.021l-0.059,-0.021l-0.059,-0.02l-0.059,-0.019l-0.059,-0.018l-0.059,-0.017l-0.059,-0.017l-0.059,-0.016l-0.059,-0.015l-0.059,-0.014l-0.059,-0.013l-0.059,-0.012l-0.059,-0.012l-0.059,-0.011l-0.059,-0.01l-0.059,-0.009l-0.059,-0.009l-0.059,-0.008l-0.059,-0.007l-0.059,-0.006l-0.059,-0.006l-0.059,-0.005l-0.059,-0.004l-0.059,-0.003l-0.059,-0.003l-0.059,-0.001l-0.059,-0.002l-0.059,0l-4.723,0l-0.059,0l-0.059,0.002l-0.059,0.001l-0.059,0.003l-0.059,0.003l-0.059,0.004l-0.059,0.005l-0.059,0.006l-0.059,0.006l-0.059,0.007l-0.059,0.008l-0.059,0.009l-0.059,0.009l-0.059,0.01l-0.059,0.011l-0.059,0.012l-0.059,0.012l-0.059,0.013l-0.059,0.014l-0.059,0.015l-0.059,0.016l-0.059,0.017l-0.059,0.017l-0.059,0.018l-0.059,0.019l-0.059,0.02l-0.059,0.021l-0.059,0.021l-0.059,0.023l-0.06,0.023l-0.059,0.025l-0.059,0.025l-0.059,0.026l-0.059,0.028l-0.059,0.028l-0.059,0.029l-0.059,0.031l-0.059,0.031l-0.059,0.032l-0.059,0.034l-0.059,0.035l-0.059,0.036l-0.059,0.037l-0.059,0.038l-0.059,0.04l-0.059,0.04l-0.059,0.043l-0.059,0.043l-0.059,0.045l-0.059,0.047l-0.059,0.048l-0.059,0.05l-0.059,0.051l-0.059,0.054l-0.059,0.055l-0.059,0.057l-0.059,0.059l-0.059,0.061l-0.059,0.063l-0.059,0.066l-0.059,0.068l-0.059,0.071l-0.059,0.075l-0.059,0.077l-0.059,0.08l-0.06,0.085l-0.059,0.088l-0.059,0.093l-0.059,0.098l-0.059,0.104l-0.059,0.11l-0.059,0.118l-0.059,0.127l-0.059,0.138l-0.059,0.151l-0.059,0.169l-0.059,0.194l-0.059,0.232l-0.059,0.306l-0.059,0.746" style="fill-rule:nonzero;"/>
    <path id="path841" d="M15.052,371.128l0.059,0.746l0.059,0.307l0.059,0.231l0.059,0.195l0.059,0.169l0.059,0.15l0.059,0.139l0.059,0.125l0.059,0.118l0.059,0.112l0.059,0.104l0.059,0.097l0.059,0.092l0.059,0.089l0.06,0.085l0.059,0.08l0.059,0.077l0.059,0.074l0.059,0.071l0.118,0.136l0.118,0.124l0.059,0.059l0.118,0.113l0.059,0.05l0.059,0.053l0.059,0.051l0.118,0.094l0.118,0.089l0.118,0.083l0.177,0.115l0.118,0.071l0.177,0.098l0.118,0.059l0.059,0.026l0.059,0.03l0.059,0.024l0.059,0.026l0.178,0.071l0.177,0.062l0.236,0.071l0.177,0.045l0.059,0.012l0.059,0.014l0.059,0.012l0.059,0.009l0.059,0.012l0.118,0.018l0.059,0.005l0.059,0.009l0.118,0.012l0.059,0.003l0.059,0.006l0.177,0.009l4.959,-0l0.177,-0.009l0.059,-0.006l0.059,-0.003l0.118,-0.012l0.059,-0.009l0.059,-0.005l0.118,-0.018l0.059,-0.012l0.059,-0.009l0.059,-0.012l0.059,-0.014l0.059,-0.012l0.177,-0.045l0.236,-0.071l0.177,-0.062l0.177,-0.071l0.059,-0.026l0.059,-0.024l0.059,-0.03l0.06,-0.026l0.118,-0.059l0.177,-0.098l0.118,-0.071l0.177,-0.115l0.118,-0.083l0.118,-0.089l0.118,-0.094l0.059,-0.051l0.059,-0.053l0.059,-0.05l0.118,-0.113l0.059,-0.059l0.118,-0.124l0.118,-0.136l0.059,-0.071l0.059,-0.074l0.059,-0.077l0.059,-0.08l0.059,-0.085l0.059,-0.089l0.059,-0.092l0.059,-0.097l0.059,-0.104l0.06,-0.112l0.059,-0.118l0.059,-0.125l0.059,-0.139l0.059,-0.15l0.059,-0.169l0.059,-0.195l0.059,-0.231l0.059,-0.307l0.059,-0.746l-0.059,-0.745l-0.059,-0.307l-0.059,-0.231l-0.059,-0.195l-0.059,-0.169l-0.059,-0.151l-0.059,-0.139l-0.059,-0.124l-0.059,-0.118l-0.06,-0.112l-0.059,-0.104l-0.059,-0.098l-0.059,-0.091l-0.059,-0.089l-0.059,-0.086l-0.059,-0.08l-0.059,-0.076l-0.059,-0.074l-0.059,-0.071l-0.118,-0.136l-0.118,-0.125l-0.059,-0.059l-0.118,-0.112l-0.059,-0.05l-0.059,-0.054l-0.059,-0.05l-0.118,-0.094l-0.118,-0.089l-0.118,-0.083l-0.177,-0.115l-0.118,-0.071l-0.177,-0.098l-0.118,-0.059l-0.06,-0.027l-0.059,-0.029l-0.059,-0.024l-0.059,-0.026l-0.177,-0.071l-0.177,-0.063l-0.236,-0.071l-0.177,-0.044l-0.059,-0.012l-0.059,-0.014l-0.059,-0.012l-0.059,-0.009l-0.059,-0.012l-0.118,-0.018l-0.059,-0.006l-0.059,-0.009l-0.118,-0.011l-0.059,-0.003l-0.059,-0.006l-0.177,-0.009l-4.959,-0l-0.177,0.009l-0.059,0.006l-0.059,0.003l-0.118,0.011l-0.059,0.009l-0.059,0.006l-0.118,0.018l-0.059,0.012l-0.059,0.009l-0.059,0.012l-0.059,0.014l-0.059,0.012l-0.177,0.044l-0.236,0.071l-0.177,0.063l-0.178,0.071l-0.059,0.026l-0.059,0.024l-0.059,0.029l-0.059,0.027l-0.118,0.059l-0.177,0.098l-0.118,0.071l-0.177,0.115l-0.118,0.083l-0.118,0.089l-0.118,0.094l-0.059,0.05l-0.059,0.054l-0.059,0.05l-0.118,0.112l-0.059,0.059l-0.118,0.125l-0.118,0.136l-0.059,0.071l-0.059,0.074l-0.059,0.076l-0.059,0.08l-0.06,0.086l-0.059,0.089l-0.059,0.091l-0.059,0.098l-0.059,0.104l-0.059,0.112l-0.059,0.118l-0.059,0.124l-0.059,0.139l-0.059,0.151l-0.059,0.169l-0.059,0.195l-0.059,0.231l-0.059,0.307l-0.059,0.745" style="fill-rule:nonzero;"/>
    <path id="path843" d="M120.004,8.872l0.059,0.745l0.059,0.306l0.059,0.232l0.059,0.194l0.059,0.169l0.059,0.151l0.059,0.138l0.059,0.127l0.059,0.118l0.059,0.11l0.059,0.104l0.059,0.098l0.059,0.093l0.059,0.089l0.059,0.084l0.059,0.081l0.059,0.077l0.059,0.074l0.059,0.071l0.059,0.068l0.059,0.066l0.059,0.063l0.059,0.062l0.059,0.059l0.059,0.057l0.059,0.055l0.059,0.053l0.059,0.051l0.059,0.05l0.059,0.048l0.059,0.047l0.059,0.045l0.059,0.043l0.059,0.043l0.06,0.041l0.059,0.039l0.059,0.039l0.059,0.037l0.059,0.035l0.059,0.035l0.059,0.034l0.059,0.032l0.059,0.032l0.059,0.03l0.059,0.029l0.059,0.029l0.059,0.027l0.059,0.026l0.059,0.025l0.059,0.025l0.059,0.023l0.059,0.023l0.059,0.021l0.059,0.021l0.059,0.02l0.059,0.019l0.059,0.018l0.059,0.018l0.059,0.016l0.059,0.016l0.059,0.015l0.059,0.014l0.059,0.013l0.059,0.013l0.059,0.011l0.059,0.011l0.059,0.01l0.059,0.01l0.059,0.008l0.059,0.008l0.06,0.007l0.059,0.006l0.059,0.006l0.059,0.005l0.059,0.004l0.059,0.003l0.059,0.003l0.059,0.002l0.059,0.001l0.059,0l4.722,0l0.059,-0l0.059,-0.001l0.059,-0.002l0.059,-0.003l0.059,-0.003l0.059,-0.004l0.059,-0.005l0.059,-0.006l0.059,-0.006l0.059,-0.007l0.059,-0.008l0.059,-0.008l0.059,-0.01l0.059,-0.01l0.059,-0.011l0.059,-0.011l0.059,-0.013l0.059,-0.013l0.06,-0.014l0.059,-0.015l0.059,-0.016l0.059,-0.016l0.059,-0.018l0.059,-0.018l0.059,-0.019l0.059,-0.02l0.059,-0.021l0.059,-0.021l0.059,-0.023l0.059,-0.023l0.059,-0.025l0.059,-0.025l0.059,-0.026l0.059,-0.027l0.059,-0.029l0.059,-0.029l0.059,-0.03l0.059,-0.032l0.059,-0.032l0.059,-0.034l0.059,-0.035l0.059,-0.035l0.059,-0.037l0.059,-0.039l0.059,-0.039l0.059,-0.041l0.059,-0.043l0.059,-0.043l0.059,-0.045l0.059,-0.047l0.059,-0.048l0.059,-0.05l0.059,-0.051l0.059,-0.053l0.06,-0.055l0.059,-0.057l0.059,-0.059l0.059,-0.062l0.059,-0.063l0.059,-0.066l0.059,-0.068l0.059,-0.071l0.059,-0.074l0.059,-0.077l0.059,-0.081l0.059,-0.084l0.059,-0.089l0.059,-0.093l0.059,-0.098l0.059,-0.104l0.059,-0.11l0.059,-0.118l0.059,-0.127l0.059,-0.138l0.059,-0.151l0.059,-0.169l0.059,-0.194l0.059,-0.232l0.059,-0.306l0.059,-0.745l-0.059,-0.746l-0.059,-0.306l-0.059,-0.232l-0.059,-0.194l-0.059,-0.169l-0.059,-0.151l-0.059,-0.138l-0.059,-0.127l-0.059,-0.118l-0.059,-0.11l-0.059,-0.104l-0.059,-0.098l-0.059,-0.093l-0.059,-0.088l-0.059,-0.085l-0.059,-0.08l-0.059,-0.077l-0.059,-0.075l-0.059,-0.071l-0.059,-0.068l-0.059,-0.066l-0.059,-0.063l-0.059,-0.061l-0.059,-0.059l-0.059,-0.057l-0.06,-0.055l-0.059,-0.054l-0.059,-0.051l-0.059,-0.05l-0.059,-0.048l-0.059,-0.047l-0.059,-0.045l-0.059,-0.043l-0.059,-0.043l-0.059,-0.04l-0.059,-0.04l-0.059,-0.038l-0.059,-0.037l-0.059,-0.036l-0.059,-0.035l-0.059,-0.034l-0.059,-0.032l-0.059,-0.031l-0.059,-0.031l-0.059,-0.029l-0.059,-0.028l-0.059,-0.028l-0.059,-0.026l-0.059,-0.025l-0.059,-0.025l-0.059,-0.023l-0.059,-0.023l-0.059,-0.021l-0.059,-0.021l-0.059,-0.02l-0.059,-0.019l-0.059,-0.018l-0.059,-0.017l-0.059,-0.017l-0.059,-0.016l-0.059,-0.015l-0.06,-0.014l-0.059,-0.013l-0.059,-0.012l-0.059,-0.012l-0.059,-0.011l-0.059,-0.01l-0.059,-0.009l-0.059,-0.009l-0.059,-0.008l-0.059,-0.007l-0.059,-0.006l-0.059,-0.006l-0.059,-0.005l-0.059,-0.004l-0.059,-0.003l-0.059,-0.003l-0.059,-0.001l-0.059,-0.002l-0.059,0l-4.722,0l-0.059,0l-0.059,0.002l-0.059,0.001l-0.059,0.003l-0.059,0.003l-0.059,0.004l-0.059,0.005l-0.059,0.006l-0.059,0.006l-0.06,0.007l-0.059,0.008l-0.059,0.009l-0.059,0.009l-0.059,0.01l-0.059,0.011l-0.059,0.012l-0.059,0.012l-0.059,0.013l-0.059,0.014l-0.059,0.015l-0.059,0.016l-0.059,0.017l-0.059,0.017l-0.059,0.018l-0.059,0.019l-0.059,0.02l-0.059,0.021l-0.059,0.021l-0.059,0.023l-0.059,0.023l-0.059,0.025l-0.059,0.025l-0.059,0.026l-0.059,0.028l-0.059,0.028l-0.059,0.029l-0.059,0.031l-0.059,0.031l-0.059,0.032l-0.059,0.034l-0.059,0.035l-0.059,0.036l-0.059,0.037l-0.059,0.038l-0.059,0.04l-0.06,0.04l-0.059,0.043l-0.059,0.043l-0.059,0.045l-0.059,0.047l-0.059,0.048l-0.059,0.05l-0.059,0.051l-0.059,0.054l-0.059,0.055l-0.059,0.057l-0.059,0.059l-0.059,0.061l-0.059,0.063l-0.059,0.066l-0.059,0.068l-0.059,0.071l-0.059,0.075l-0.059,0.077l-0.059,0.08l-0.059,0.085l-0.059,0.088l-0.059,0.093l-0.059,0.098l-0.059,0.104l-0.059,0.11l-0.059,0.118l-0.059,0.127l-0.059,0.138l-0.059,0.151l-0.059,0.169l-0.059,0.194l-0.059,0.232l-0.059,0.306l-0.059,0.746" style="fill-rule:nonzero;"/>
    <path id="path845" d="M120.004,371.128l0.059,0.746l0.059,0.307l0.059,0.231l0.059,0.195l0.059,0.169l0.059,0.15l0.059,0.139l0.059,0.125l0.059,0.118l0.059,0.112l0.059,0.104l0.059,0.097l0.059,0.092l0.059,0.089l0.059,0.085l0.059,0.08l0.059,0.077l0.059,0.074l0.059,0.071l0.118,0.136l0.118,0.124l0.059,0.059l0.118,0.113l0.059,0.05l0.059,0.053l0.059,0.051l0.118,0.094l0.118,0.089l0.119,0.083l0.177,0.115l0.118,0.071l0.177,0.098l0.118,0.059l0.059,0.026l0.059,0.03l0.059,0.024l0.059,0.026l0.177,0.071l0.177,0.062l0.236,0.071l0.177,0.045l0.059,0.012l0.059,0.014l0.059,0.012l0.059,0.009l0.059,0.012l0.118,0.018l0.059,0.005l0.06,0.009l0.118,0.012l0.059,0.003l0.059,0.006l0.177,0.009l4.958,-0l0.177,-0.009l0.059,-0.006l0.059,-0.003l0.118,-0.012l0.059,-0.009l0.059,-0.005l0.118,-0.018l0.059,-0.012l0.059,-0.009l0.059,-0.012l0.059,-0.014l0.059,-0.012l0.178,-0.045l0.236,-0.071l0.177,-0.062l0.177,-0.071l0.059,-0.026l0.059,-0.024l0.059,-0.03l0.059,-0.026l0.118,-0.059l0.177,-0.098l0.118,-0.071l0.177,-0.115l0.118,-0.083l0.118,-0.089l0.118,-0.094l0.059,-0.051l0.059,-0.053l0.059,-0.05l0.119,-0.113l0.059,-0.059l0.118,-0.124l0.118,-0.136l0.059,-0.071l0.059,-0.074l0.059,-0.077l0.059,-0.08l0.059,-0.085l0.059,-0.089l0.059,-0.092l0.059,-0.097l0.059,-0.104l0.059,-0.112l0.059,-0.118l0.059,-0.125l0.059,-0.139l0.059,-0.15l0.059,-0.169l0.059,-0.195l0.059,-0.231l0.059,-0.307l0.059,-0.746l-0.059,-0.745l-0.059,-0.307l-0.059,-0.231l-0.059,-0.195l-0.059,-0.169l-0.059,-0.151l-0.059,-0.139l-0.059,-0.124l-0.059,-0.118l-0.059,-0.112l-0.059,-0.104l-0.059,-0.098l-0.059,-0.091l-0.059,-0.089l-0.059,-0.086l-0.059,-0.08l-0.059,-0.076l-0.059,-0.074l-0.059,-0.071l-0.118,-0.136l-0.118,-0.125l-0.059,-0.059l-0.119,-0.112l-0.059,-0.05l-0.059,-0.054l-0.059,-0.05l-0.118,-0.094l-0.118,-0.089l-0.118,-0.083l-0.177,-0.115l-0.118,-0.071l-0.177,-0.098l-0.118,-0.059l-0.059,-0.027l-0.059,-0.029l-0.059,-0.024l-0.059,-0.026l-0.177,-0.071l-0.177,-0.063l-0.236,-0.071l-0.178,-0.044l-0.059,-0.012l-0.059,-0.014l-0.059,-0.012l-0.059,-0.009l-0.059,-0.012l-0.118,-0.018l-0.059,-0.006l-0.059,-0.009l-0.118,-0.011l-0.059,-0.003l-0.059,-0.006l-0.177,-0.009l-4.958,-0l-0.177,0.009l-0.059,0.006l-0.059,0.003l-0.118,0.011l-0.06,0.009l-0.059,0.006l-0.118,0.018l-0.059,0.012l-0.059,0.009l-0.059,0.012l-0.059,0.014l-0.059,0.012l-0.177,0.044l-0.236,0.071l-0.177,0.063l-0.177,0.071l-0.059,0.026l-0.059,0.024l-0.059,0.029l-0.059,0.027l-0.118,0.059l-0.177,0.098l-0.118,0.071l-0.177,0.115l-0.119,0.083l-0.118,0.089l-0.118,0.094l-0.059,0.05l-0.059,0.054l-0.059,0.05l-0.118,0.112l-0.059,0.059l-0.118,0.125l-0.118,0.136l-0.059,0.071l-0.059,0.074l-0.059,0.076l-0.059,0.08l-0.059,0.086l-0.059,0.089l-0.059,0.091l-0.059,0.098l-0.059,0.104l-0.059,0.112l-0.059,0.118l-0.059,0.124l-0.059,0.139l-0.059,0.151l-0.059,0.169l-0.059,0.195l-0.059,0.231l-0.059,0.307l-0.059,0.745" style="fill-rule:nonzero;"/>
    <g id="g854">
      <path id="any" d="M67.788,18.193l2.101,-0l-3.01,8.422l-1.76,-0l-1.759,-5.004l-1.794,5.004l-1.759,-0l-2.999,-8.422l2.255,-0l1.724,5.311l1.877,-5.311l1.511,-0l1.806,5.405l1.807,-5.405Z" style="fill:#FDDEA2;fill-rule:nonzero;"/>
      <path d="M74.54,26.721c-0.858,0 -1.605,-0.175 -2.243,-0.526c-0.637,-0.351 -1.127,-0.854 -1.47,-1.508c-0.342,-0.655 -0.513,-1.42 -0.513,-2.295c-0,-0.875 0.173,-1.636 0.519,-2.283c0.347,-0.647 0.837,-1.145 1.47,-1.496c0.634,-0.351 1.379,-0.527 2.237,-0.527c0.858,0 1.604,0.176 2.237,0.527c0.634,0.351 1.12,0.849 1.458,1.496c0.339,0.647 0.508,1.408 0.508,2.283c0,0.875 -0.169,1.64 -0.508,2.295c-0.338,0.654 -0.824,1.157 -1.458,1.508c-0.633,0.351 -1.379,0.526 -2.237,0.526Zm0,-1.691c0.63,-0 1.124,-0.225 1.482,-0.675c0.358,-0.449 0.537,-1.104 0.537,-1.963c0,-0.852 -0.179,-1.5 -0.537,-1.946c-0.358,-0.445 -0.852,-0.668 -1.482,-0.668c-0.629,-0 -1.121,0.221 -1.475,0.662c-0.355,0.442 -0.532,1.092 -0.532,1.952c0,0.867 0.177,1.524 0.532,1.969c0.354,0.446 0.846,0.669 1.475,0.669Z" style="fill:#FDDEA2;fill-rule:nonzero;"/>
      <path d="M80.042,26.615l-0,-8.422l2.219,-0l0,6.624l3.554,-0l-0,1.798l-5.773,-0Z" style="fill:#FDDEA2;fill-rule:nonzero;"/>
      <path d="M91.729,18.193l2.231,-0l-3.825,8.422l-1.759,-0l-3.825,-8.422l2.303,-0l2.42,5.654l2.455,-5.654Z" style="fill:#FDDEA2;fill-rule:nonzero;"/>
    </g>
    <g id="g858">
      <path id="text856" d="M58.26,32.47l1.284,0l-1.564,3.756l-1.099,-0l-0.753,-1.863l-0.708,1.863l-1.107,-0l-1.564,-3.756l1.357,0l0.834,2.166l0.812,-2.166l0.856,0l0.833,2.211l0.819,-2.211Z" style="fill:#FDDEA2;fill-rule:nonzero;"/>
      <path d="M63.735,32.47l0,3.756l-1.313,-0l-0,-0.51c-0.108,0.177 -0.266,0.316 -0.472,0.417c-0.207,0.101 -0.433,0.152 -0.679,0.152c-0.32,-0 -0.605,-0.079 -0.856,-0.237c-0.251,-0.157 -0.446,-0.383 -0.587,-0.676c-0.14,-0.293 -0.21,-0.632 -0.21,-1.017c0,-0.389 0.071,-0.734 0.214,-1.035c0.143,-0.3 0.339,-0.535 0.59,-0.702c0.251,-0.168 0.534,-0.251 0.849,-0.251c0.246,-0 0.471,0.053 0.675,0.158c0.204,0.106 0.363,0.248 0.476,0.426l-0,-0.481l1.313,0Zm-2.051,2.817c0.236,-0 0.418,-0.082 0.546,-0.244c0.128,-0.163 0.192,-0.397 0.192,-0.703c-0,-0.31 -0.064,-0.548 -0.192,-0.713c-0.128,-0.165 -0.31,-0.248 -0.546,-0.248c-0.231,0 -0.413,0.085 -0.546,0.255c-0.133,0.17 -0.199,0.411 -0.199,0.721c-0,0.301 0.064,0.531 0.192,0.691c0.128,0.161 0.312,0.241 0.553,0.241Z" style="fill:#FDDEA2;fill-rule:nonzero;"/>
      <path d="M67.092,32.477l1.314,0l-1.668,3.749l-1.099,-0l-1.645,-3.749l1.387,0l0.841,2.159l0.87,-2.159Z" style="fill:#FDDEA2;fill-rule:nonzero;"/>
      <path d="M72.036,34.481l-2.354,-0c0.025,0.291 0.109,0.5 0.251,0.628c0.143,0.128 0.352,0.193 0.627,0.193c0.187,-0 0.374,-0.031 0.561,-0.093c0.187,-0.061 0.357,-0.146 0.509,-0.255l0.34,0.887c-0.187,0.138 -0.414,0.247 -0.679,0.326c-0.266,0.078 -0.531,0.118 -0.797,0.118c-0.428,-0 -0.799,-0.079 -1.114,-0.237c-0.315,-0.157 -0.556,-0.383 -0.723,-0.676c-0.168,-0.293 -0.251,-0.64 -0.251,-1.039c-0,-0.379 0.08,-0.718 0.24,-1.016c0.16,-0.299 0.381,-0.532 0.664,-0.699c0.283,-0.168 0.606,-0.251 0.97,-0.251c0.354,-0 0.664,0.078 0.93,0.236c0.265,0.158 0.469,0.383 0.612,0.677c0.143,0.293 0.214,0.634 0.214,1.024l0,0.177Zm-1.719,-1.198c-0.33,0 -0.536,0.192 -0.62,0.577l1.195,-0c-0.049,-0.385 -0.241,-0.577 -0.575,-0.577Z" style="fill:#FDDEA2;fill-rule:nonzero;"/>
      <path d="M74.168,36.285c-0.747,-0 -1.338,-0.15 -1.77,-0.451l0.339,-0.909c0.202,0.138 0.43,0.245 0.686,0.321c0.256,0.077 0.507,0.115 0.753,0.115c0.152,-0 0.27,-0.022 0.354,-0.067c0.084,-0.044 0.125,-0.106 0.125,-0.185c0,-0.069 -0.03,-0.124 -0.092,-0.166c-0.061,-0.042 -0.178,-0.08 -0.35,-0.115l-0.605,-0.14c-0.384,-0.079 -0.661,-0.203 -0.83,-0.373c-0.17,-0.17 -0.255,-0.406 -0.255,-0.706c0,-0.242 0.071,-0.456 0.214,-0.644c0.143,-0.187 0.341,-0.334 0.594,-0.44c0.253,-0.105 0.545,-0.158 0.874,-0.158c0.271,-0 0.537,0.039 0.797,0.118c0.261,0.079 0.504,0.19 0.731,0.333l-0.354,0.887c-0.197,-0.128 -0.399,-0.227 -0.606,-0.296c-0.206,-0.069 -0.4,-0.104 -0.582,-0.104c-0.148,0 -0.264,0.024 -0.347,0.071c-0.084,0.047 -0.126,0.114 -0.126,0.203c0,0.054 0.025,0.097 0.074,0.129c0.049,0.032 0.143,0.066 0.281,0.1l0.627,0.141c0.398,0.093 0.685,0.23 0.859,0.41c0.175,0.18 0.262,0.425 0.262,0.736c0,0.369 -0.146,0.66 -0.439,0.872c-0.292,0.212 -0.697,0.318 -1.214,0.318Z" style="fill:#FDDEA2;fill-rule:nonzero;"/>
      <path d="M78.905,32.367c0.443,-0 0.774,0.134 0.993,0.402c0.219,0.269 0.328,0.674 0.328,1.217l0,2.24l-1.335,-0l-0,-2.181c-0,-0.232 -0.04,-0.398 -0.118,-0.499c-0.079,-0.101 -0.202,-0.152 -0.369,-0.152c-0.202,0 -0.364,0.068 -0.487,0.203c-0.123,0.136 -0.185,0.315 -0.185,0.536l0,2.093l-1.335,-0l-0,-5.442l1.335,0l0,2.144c0.29,-0.374 0.682,-0.561 1.173,-0.561Z" style="fill:#FDDEA2;fill-rule:nonzero;"/>
      <path d="M84.948,32.47l0,3.756l-1.313,-0l0,-0.51c-0.108,0.177 -0.266,0.316 -0.472,0.417c-0.207,0.101 -0.433,0.152 -0.679,0.152c-0.32,-0 -0.605,-0.079 -0.856,-0.237c-0.251,-0.157 -0.446,-0.383 -0.587,-0.676c-0.14,-0.293 -0.21,-0.632 -0.21,-1.017c0,-0.389 0.072,-0.734 0.214,-1.035c0.143,-0.3 0.34,-0.535 0.59,-0.702c0.251,-0.168 0.534,-0.251 0.849,-0.251c0.246,-0 0.471,0.053 0.675,0.158c0.204,0.106 0.363,0.248 0.476,0.426l0,-0.481l1.313,0Zm-2.051,2.817c0.236,-0 0.418,-0.082 0.546,-0.244c0.128,-0.163 0.192,-0.397 0.192,-0.703c0,-0.31 -0.064,-0.548 -0.192,-0.713c-0.128,-0.165 -0.31,-0.248 -0.546,-0.248c-0.231,0 -0.413,0.085 -0.546,0.255c-0.133,0.17 -0.199,0.411 -0.199,0.721c-0,0.301 0.064,0.531 0.192,0.691c0.128,0.161 0.312,0.241 0.553,0.241Z" style="fill:#FDDEA2;fill-rule:nonzero;"/>
      <path d="M88.217,32.367c0.32,-0 0.605,0.083 0.856,0.251c0.251,0.167 0.448,0.402 0.59,0.702c0.143,0.301 0.214,0.646 0.214,1.035c0,0.385 -0.07,0.724 -0.21,1.017c-0.14,0.293 -0.336,0.519 -0.587,0.676c-0.251,0.158 -0.538,0.237 -0.863,0.237c-0.246,-0 -0.47,-0.048 -0.671,-0.144c-0.202,-0.096 -0.357,-0.231 -0.465,-0.403l-0,2.085l-1.336,-0l0,-4.274c0,-0.404 -0.019,-0.764 -0.059,-1.079l1.255,0l0.073,0.584c0.094,-0.207 0.249,-0.373 0.465,-0.499c0.217,-0.126 0.463,-0.188 0.738,-0.188Zm-0.406,2.92c0.241,-0 0.423,-0.079 0.546,-0.237c0.123,-0.158 0.185,-0.389 0.185,-0.695c-0,-0.31 -0.063,-0.551 -0.188,-0.721c-0.126,-0.17 -0.307,-0.255 -0.543,-0.255c-0.241,0 -0.425,0.082 -0.553,0.244c-0.128,0.163 -0.192,0.402 -0.192,0.717c0,0.306 0.064,0.54 0.192,0.703c0.128,0.162 0.312,0.244 0.553,0.244Z" style="fill:#FDDEA2;fill-rule:nonzero;"/>
      <path d="M93.965,34.481l-2.354,-0c0.025,0.291 0.108,0.5 0.251,0.628c0.143,0.128 0.352,0.193 0.627,0.193c0.187,-0 0.374,-0.031 0.561,-0.093c0.187,-0.061 0.357,-0.146 0.509,-0.255l0.339,0.887c-0.186,0.138 -0.413,0.247 -0.678,0.326c-0.266,0.078 -0.532,0.118 -0.797,0.118c-0.428,-0 -0.8,-0.079 -1.114,-0.237c-0.315,-0.157 -0.556,-0.383 -0.723,-0.676c-0.168,-0.293 -0.251,-0.64 -0.251,-1.039c-0,-0.379 0.08,-0.718 0.239,-1.016c0.16,-0.299 0.382,-0.532 0.665,-0.699c0.282,-0.168 0.606,-0.251 0.97,-0.251c0.354,-0 0.664,0.078 0.93,0.236c0.265,0.158 0.469,0.383 0.612,0.677c0.143,0.293 0.214,0.634 0.214,1.024l-0,0.177Zm-1.719,-1.198c-0.33,0 -0.536,0.192 -0.62,0.577l1.195,-0c-0.049,-0.385 -0.241,-0.577 -0.575,-0.577Z" style="fill:#FDDEA2;fill-rule:nonzero;"/>
      <path d="M96.953,32.381c0.182,0 0.322,0.027 0.421,0.082l-0,1.219c-0.212,-0.098 -0.416,-0.147 -0.613,-0.147c-0.56,-0 -0.841,0.268 -0.841,0.805l0,1.886l-1.335,-0l-0,-2.677c-0,-0.404 -0.02,-0.764 -0.059,-1.079l1.254,0l0.081,0.628c0.089,-0.231 0.231,-0.409 0.428,-0.532c0.197,-0.123 0.418,-0.185 0.664,-0.185Z" style="fill:#FDDEA2;fill-rule:nonzero;"/>
    </g>
    <ellipse id="circle7461" cx="18.027" cy="98.04" rx="3.807" ry="3.815" style="fill:none;stroke:#FDDEA2;stroke-width:1.18px;"/>
    <ellipse id="circle7464" cx="66.079" cy="97.454" rx="3.807" ry="3.815" style="fill:#FDDEA2;stroke:#FDDEA2;stroke-width:1.18px;"/>
    <path id="path7499" d="M68.097,86.673c7.503,-13.024 4.566,-29.729 -6.932,-39.396c-11.499,-9.664 -28.431,-9.664 -39.93,-0c-11.495,9.667 -14.435,26.372 -6.93,39.396" style="fill:none;fill-rule:nonzero;stroke:#FDDEA2;stroke-width:1.18px;stroke-linecap:round;"/>
    <g id="g866">
      <path id="text864" d="M19.308,110.895l-0,-6.317l4.401,0l-0,1.304l-2.763,0l0,1.154l2.585,-0l0,1.295l-2.585,0l0,2.564l-1.638,-0Z" style="fill:#FDDEA2;fill-rule:nonzero;"/>
      <path d="M27.463,110.975c-0.644,-0 -1.204,-0.132 -1.683,-0.395c-0.478,-0.263 -0.845,-0.64 -1.102,-1.131c-0.257,-0.491 -0.385,-1.065 -0.385,-1.721c-0,-0.657 0.13,-1.227 0.389,-1.712c0.26,-0.485 0.628,-0.86 1.103,-1.123c0.475,-0.263 1.034,-0.394 1.678,-0.394c0.643,-0 1.202,0.131 1.678,0.394c0.475,0.263 0.839,0.638 1.093,1.123c0.254,0.485 0.381,1.055 0.381,1.712c-0,0.656 -0.127,1.23 -0.381,1.721c-0.254,0.491 -0.618,0.868 -1.093,1.131c-0.476,0.263 -1.035,0.395 -1.678,0.395Zm-0,-1.269c0.472,0 0.842,-0.168 1.111,-0.506c0.268,-0.337 0.403,-0.828 0.403,-1.472c-0,-0.639 -0.135,-1.125 -0.403,-1.46c-0.269,-0.334 -0.639,-0.501 -1.111,-0.501c-0.473,0 -0.841,0.166 -1.107,0.497c-0.266,0.331 -0.399,0.819 -0.399,1.464c0,0.65 0.133,1.143 0.399,1.477c0.266,0.334 0.634,0.501 1.107,0.501Z" style="fill:#FDDEA2;fill-rule:nonzero;"/>
      <path d="M31.589,110.895l-0,-6.317l1.664,0l0,4.968l2.665,0l0,1.349l-4.329,-0Z" style="fill:#FDDEA2;fill-rule:nonzero;"/>
      <path d="M36.715,104.578l2.577,0c0.696,0 1.297,0.126 1.802,0.377c0.504,0.252 0.891,0.614 1.16,1.087c0.268,0.473 0.402,1.035 0.402,1.686c0,0.656 -0.132,1.223 -0.398,1.699c-0.266,0.476 -0.651,0.84 -1.155,1.091c-0.505,0.251 -1.109,0.377 -1.811,0.377l-2.577,-0l0,-6.317Zm2.462,4.986c0.614,0 1.073,-0.152 1.377,-0.457c0.304,-0.304 0.456,-0.764 0.456,-1.379c-0,-1.213 -0.611,-1.819 -1.833,-1.819l-0.797,0l-0,3.655l0.797,0Z" style="fill:#FDDEA2;fill-rule:nonzero;"/>
      <rect x="43.63" y="107.87" width="2.869" height="1.242" style="fill:#FDDEA2;fill-rule:nonzero;"/>
      <path d="M52.706,104.578l1.293,0l-0,6.317l-1.452,-0l-0.009,-2.892l-1.196,2.892l-1.053,-0l-1.204,-2.857l-0,2.857l-1.444,-0l0,-6.317l1.302,0l1.886,4.312l1.877,-4.312Z" style="fill:#FDDEA2;fill-rule:nonzero;"/>
      <rect x="55.159" y="104.578" width="1.665" height="6.317" style="fill:#FDDEA2;fill-rule:nonzero;"/>
      <path d="M61.392,107.701l2.408,3.194l-1.939,-0l-1.408,-1.97l-1.416,1.97l-1.931,-0l2.4,-3.194l-2.346,-3.123l1.921,0l1.363,1.917l1.391,-1.917l1.93,0l-2.373,3.123Z" style="fill:#FDDEA2;fill-rule:nonzero;"/>
    </g>
    <ellipse id="circle868" cx="85.319" cy="98.04" rx="3.807" ry="3.815" style="fill:none;stroke:#FDDEA2;stroke-width:1.18px;"/>
    <ellipse id="circle870" cx="133.37" cy="97.454" rx="3.807" ry="3.815" style="fill:#FDDEA2;stroke:#FDDEA2;stroke-width:1.18px;"/>
    <path id="path872" d="M135.389,86.673c7.503,-13.024 4.566,-29.729 -6.933,-39.396c-11.498,-9.664 -28.43,-9.664 -39.929,-0c-11.496,9.667 -14.435,26.372 -6.93,39.396" style="fill:none;fill-rule:nonzero;stroke:#FDDEA2;stroke-width:1.18px;stroke-linecap:round;"/>
    <g id="g877">
      <path id="text875" d="M82.615,104.578l3.002,0c0.72,0 1.278,0.173 1.673,0.519c0.396,0.346 0.594,0.815 0.594,1.407c-0,0.585 -0.201,1.052 -0.603,1.401c-0.401,0.349 -0.956,0.524 -1.664,0.524l-1.337,-0l-0,2.466l-1.665,-0l0,-6.317Zm2.781,2.609c0.625,-0 0.938,-0.222 0.938,-0.666c0,-0.225 -0.075,-0.395 -0.226,-0.51c-0.15,-0.115 -0.388,-0.173 -0.712,-0.173l-1.116,0l-0,1.349l1.116,-0Z" style="fill:#FDDEA2;fill-rule:nonzero;"/>
      <path d="M91.452,110.975c-0.921,-0 -1.618,-0.232 -2.09,-0.697c-0.472,-0.464 -0.708,-1.146 -0.708,-2.045l-0,-3.655l1.62,0l0,3.718c0,0.455 0.102,0.804 0.306,1.046c0.203,0.243 0.494,0.364 0.872,0.364c0.372,0 0.658,-0.123 0.859,-0.368c0.2,-0.245 0.301,-0.593 0.301,-1.042l-0,-3.718l1.638,0l-0,3.655c-0,0.888 -0.241,1.566 -0.722,2.036c-0.481,0.471 -1.173,0.706 -2.076,0.706Z" style="fill:#FDDEA2;fill-rule:nonzero;"/>
      <path d="M95.339,110.895l-0,-6.317l1.664,0l0,4.968l2.665,0l0,1.349l-4.329,-0Z" style="fill:#FDDEA2;fill-rule:nonzero;"/>
      <path d="M102.679,110.975c-0.472,-0 -0.939,-0.062 -1.399,-0.187c-0.46,-0.124 -0.835,-0.292 -1.125,-0.505l0.523,-1.18c0.307,0.195 0.633,0.344 0.978,0.448c0.346,0.103 0.692,0.155 1.041,0.155c0.354,0 0.625,-0.049 0.814,-0.146c0.189,-0.098 0.284,-0.235 0.284,-0.413c-0,-0.159 -0.086,-0.291 -0.257,-0.395c-0.171,-0.103 -0.493,-0.205 -0.965,-0.306c-0.597,-0.118 -1.06,-0.264 -1.39,-0.439c-0.331,-0.174 -0.563,-0.38 -0.696,-0.616c-0.132,-0.237 -0.199,-0.524 -0.199,-0.861c0,-0.384 0.109,-0.732 0.328,-1.042c0.218,-0.311 0.525,-0.553 0.921,-0.728c0.395,-0.174 0.847,-0.261 1.354,-0.261c0.455,-0 0.896,0.063 1.324,0.19c0.428,0.127 0.763,0.295 1.005,0.502l-0.514,1.179c-0.277,-0.195 -0.569,-0.344 -0.876,-0.448c-0.307,-0.103 -0.614,-0.155 -0.921,-0.155c-0.301,0 -0.543,0.058 -0.726,0.173c-0.183,0.115 -0.274,0.271 -0.274,0.466c-0,0.106 0.032,0.195 0.097,0.266c0.065,0.071 0.186,0.141 0.363,0.209c0.177,0.068 0.443,0.14 0.797,0.217c0.572,0.124 1.023,0.273 1.35,0.448c0.328,0.174 0.559,0.378 0.695,0.612c0.136,0.234 0.204,0.513 0.204,0.838c-0,0.616 -0.239,1.099 -0.717,1.451c-0.478,0.352 -1.151,0.528 -2.019,0.528Z" style="fill:#FDDEA2;fill-rule:nonzero;"/>
      <path d="M106.345,110.895l-0,-6.317l4.497,0l0,1.278l-2.877,-0l-0,1.189l2.691,-0l0,1.277l-2.691,0l-0,1.295l2.877,0l0,1.278l-4.497,-0Z" style="fill:#FDDEA2;fill-rule:nonzero;"/>
      <rect x="111.639" y="107.87" width="2.869" height="1.242" style="fill:#FDDEA2;fill-rule:nonzero;"/>
      <path d="M120.299,110.895l-0.558,-1.304l-2.798,-0l-0.558,1.304l-1.664,-0l2.948,-6.317l1.31,0l2.958,6.317l-1.638,-0Zm-2.816,-2.555l1.718,-0l-0.859,-1.996l-0.859,1.996Z" style="fill:#FDDEA2;fill-rule:nonzero;"/>
      <path d="M127.391,104.578l1.293,0l-0,6.317l-1.453,-0l-0.008,-2.892l-1.196,2.892l-1.053,-0l-1.204,-2.857l-0,2.857l-1.444,-0l0,-6.317l1.302,0l1.886,4.312l1.877,-4.312Z" style="fill:#FDDEA2;fill-rule:nonzero;"/>
      <path d="M129.843,104.578l3.002,0c0.72,0 1.278,0.173 1.673,0.519c0.396,0.346 0.594,0.815 0.594,1.407c-0,0.585 -0.201,1.052 -0.602,1.401c-0.402,0.349 -0.957,0.524 -1.665,0.524l-1.337,-0l0,2.466l-1.665,-0l0,-6.317Zm2.781,2.609c0.625,-0 0.938,-0.222 0.938,-0.666c0,-0.225 -0.075,-0.395 -0.226,-0.51c-0.15,-0.115 -0.388,-0.173 -0.712,-0.173l-1.116,0l0,1.349l1.116,-0Z" style="fill:#FDDEA2;fill-rule:nonzero;"/>
    </g>
    <ellipse id="circle879" cx="15.076" cy="183.799" rx="3.807" ry="3.815" style="fill:none;stroke:#FDDEA2;stroke-width:1.18px;"/>
    <ellipse id="circle881" cx="63.127" cy="183.213" rx="3.807" ry="3.815" style="fill:#FDDEA2;stroke:#FDDEA2;stroke-width:1.18px;"/>
    <path id="path883" d="M65.146,172.431c7.502,-13.023 4.566,-29.728 -6.933,-39.396c-11.498,-9.664 -28.431,-9.664 -39.929,0c-11.496,9.668 -14.435,26.373 -6.93,39.396" style="fill:none;fill-rule:nonzero;stroke:#FDDEA2;stroke-width:1.18px;stroke-linecap:round;"/>
    <g id="g888">
      <path id="text886" d="M24.671,196.734c-0.644,-0 -1.204,-0.132 -1.683,-0.395c-0.478,-0.263 -0.845,-0.64 -1.102,-1.131c-0.257,-0.491 -0.385,-1.065 -0.385,-1.721c-0,-0.657 0.13,-1.228 0.389,-1.713c0.26,-0.485 0.628,-0.859 1.103,-1.122c0.475,-0.263 1.034,-0.395 1.678,-0.395c0.643,0 1.202,0.132 1.678,0.395c0.475,0.263 0.839,0.637 1.093,1.122c0.254,0.485 0.381,1.056 0.381,1.713c-0,0.656 -0.127,1.23 -0.381,1.721c-0.254,0.491 -0.618,0.868 -1.093,1.131c-0.476,0.263 -1.035,0.395 -1.678,0.395Zm-0,-1.269c0.472,-0 0.842,-0.169 1.111,-0.506c0.268,-0.337 0.403,-0.828 0.403,-1.472c-0,-0.639 -0.135,-1.126 -0.403,-1.46c-0.269,-0.334 -0.639,-0.501 -1.111,-0.501c-0.473,-0 -0.841,0.166 -1.107,0.497c-0.266,0.331 -0.399,0.819 -0.399,1.464c0,0.65 0.133,1.142 0.399,1.477c0.266,0.334 0.634,0.501 1.107,0.501Z" style="fill:#FDDEA2;fill-rule:nonzero;"/>
      <path d="M28.797,196.654l-0,-6.317l4.4,0l0,1.304l-2.762,0l-0,1.154l2.585,-0l0,1.295l-2.585,-0l-0,2.564l-1.638,-0Z" style="fill:#FDDEA2;fill-rule:nonzero;"/>
      <path d="M33.968,196.654l-0,-6.317l4.4,0l0,1.304l-2.762,0l-0,1.154l2.585,-0l-0,1.295l-2.585,-0l-0,2.564l-1.638,-0Z" style="fill:#FDDEA2;fill-rule:nonzero;"/>
      <path d="M41.308,196.734c-0.473,-0 -0.939,-0.063 -1.399,-0.187c-0.461,-0.124 -0.836,-0.293 -1.125,-0.505l0.523,-1.18c0.307,0.195 0.633,0.344 0.978,0.448c0.345,0.103 0.692,0.155 1.04,0.155c0.355,-0 0.626,-0.049 0.815,-0.146c0.189,-0.098 0.283,-0.236 0.283,-0.413c0,-0.16 -0.085,-0.291 -0.256,-0.395c-0.172,-0.103 -0.493,-0.205 -0.966,-0.306c-0.596,-0.118 -1.059,-0.265 -1.39,-0.439c-0.33,-0.174 -0.562,-0.38 -0.695,-0.617c-0.133,-0.236 -0.199,-0.523 -0.199,-0.86c0,-0.385 0.109,-0.732 0.328,-1.043c0.218,-0.31 0.525,-0.553 0.92,-0.727c0.396,-0.174 0.848,-0.262 1.355,-0.262c0.455,0 0.896,0.064 1.324,0.191c0.428,0.127 0.763,0.294 1.005,0.501l-0.514,1.18c-0.277,-0.195 -0.569,-0.344 -0.876,-0.448c-0.307,-0.103 -0.614,-0.155 -0.921,-0.155c-0.301,-0 -0.543,0.058 -0.726,0.173c-0.183,0.115 -0.275,0.27 -0.275,0.466c0,0.106 0.033,0.195 0.098,0.266c0.065,0.071 0.186,0.14 0.363,0.208c0.177,0.068 0.442,0.141 0.797,0.218c0.572,0.124 1.022,0.273 1.35,0.448c0.328,0.174 0.559,0.378 0.695,0.612c0.136,0.233 0.204,0.513 0.204,0.838c-0,0.615 -0.239,1.099 -0.718,1.451c-0.478,0.352 -1.151,0.528 -2.018,0.528Z" style="fill:#FDDEA2;fill-rule:nonzero;"/>
      <path d="M44.973,196.654l0,-6.317l4.498,0l0,1.278l-2.877,-0l-0,1.188l2.691,0l0,1.278l-2.691,-0l-0,1.295l2.877,0l0,1.278l-4.498,-0Z" style="fill:#FDDEA2;fill-rule:nonzero;"/>
      <path d="M51.888,196.654l0,-4.968l-1.877,-0l0,-1.349l5.437,0l-0,1.349l-1.877,-0l-0,4.968l-1.683,-0Z" style="fill:#FDDEA2;fill-rule:nonzero;"/>
    </g>
    <ellipse id="circle890" cx="88.27" cy="183.799" rx="3.807" ry="3.815" style="fill:none;stroke:#FDDEA2;stroke-width:1.18px;"/>
    <ellipse id="circle892" cx="136.322" cy="183.213" rx="3.807" ry="3.815" style="fill:#FDDEA2;stroke:#FDDEA2;stroke-width:1.18px;"/>
    <path id="path894" d="M138.341,172.431c7.502,-13.023 4.565,-29.728 -6.933,-39.396c-11.499,-9.664 -28.431,-9.664 -39.93,0c-11.495,9.668 -14.435,26.373 -6.93,39.396" style="fill:none;fill-rule:nonzero;stroke:#FDDEA2;stroke-width:1.18px;stroke-linecap:round;"/>
    <g id="g899">
      <path id="text897" d="M103.966,190.337l1.576,0l-2.258,6.317l-1.319,-0l-1.32,-3.753l-1.345,3.753l-1.32,-0l-2.249,-6.317l1.691,0l1.293,3.983l1.408,-3.983l1.133,0l1.355,4.054l1.355,-4.054Z" style="fill:#FDDEA2;fill-rule:nonzero;"/>
      <rect x="106.215" y="190.337" width="1.665" height="6.317" style="fill:#FDDEA2;fill-rule:nonzero;"/>
      <path d="M109.013,190.337l2.576,0c0.697,0 1.297,0.126 1.802,0.377c0.505,0.252 0.891,0.614 1.16,1.087c0.268,0.473 0.403,1.035 0.403,1.686c-0,0.656 -0.133,1.222 -0.399,1.698c-0.265,0.477 -0.651,0.84 -1.155,1.092c-0.505,0.251 -1.108,0.377 -1.811,0.377l-2.576,-0l-0,-6.317Zm2.461,4.986c0.614,-0 1.073,-0.152 1.377,-0.457c0.304,-0.305 0.456,-0.764 0.456,-1.379c-0,-1.213 -0.611,-1.819 -1.833,-1.819l-0.797,-0l0,3.655l0.797,-0Z" style="fill:#FDDEA2;fill-rule:nonzero;"/>
      <path d="M116.999,196.654l0,-4.968l-1.877,-0l-0,-1.349l5.436,0l0,1.349l-1.877,-0l0,4.968l-1.682,-0Z" style="fill:#FDDEA2;fill-rule:nonzero;"/>
      <path d="M125.41,190.337l1.63,0l-0,6.317l-1.63,-0l0,-2.555l-2.55,-0l0,2.555l-1.629,-0l0,-6.317l1.629,0l0,2.458l2.55,-0l0,-2.458Z" style="fill:#FDDEA2;fill-rule:nonzero;"/>
    </g>
    <path id="path7818" d="M46.818,228.707c3.193,-5.545 1.942,-12.654 -2.954,-16.773c-4.894,-4.117 -12.104,-4.117 -16.997,-0c-4.9,4.119 -6.151,11.228 -2.958,16.773" style="fill:none;fill-rule:nonzero;stroke:#FDDEA2;stroke-width:1.3px;stroke-linecap:round;"/>
    <ellipse id="circle902" cx="45.838" cy="232.933" rx="2.904" ry="2.91" style="fill:#FDDEA2;stroke:#FDDEA2;stroke-width:1.3px;stroke-linejoin:round;stroke-miterlimit:1.5;"/>
    <ellipse id="circle904" cx="25.178" cy="232.933" rx="2.904" ry="2.91" style="fill:none;stroke:#FDDEA2;stroke-width:1.3px;stroke-linejoin:round;stroke-miterlimit:1.5;"/>
    <g id="g909">
      <path id="text907" d="M26.285,242.544c-0.429,-0 -0.803,-0.088 -1.121,-0.264c-0.319,-0.175 -0.564,-0.427 -0.735,-0.754c-0.172,-0.327 -0.257,-0.71 -0.257,-1.147c-0,-0.438 0.086,-0.818 0.26,-1.142c0.173,-0.323 0.418,-0.572 0.735,-0.748c0.316,-0.175 0.689,-0.263 1.118,-0.263c0.429,-0 0.802,0.088 1.119,0.263c0.316,0.176 0.559,0.425 0.729,0.748c0.169,0.324 0.253,0.704 0.253,1.142c0,0.437 -0.084,0.82 -0.253,1.147c-0.17,0.327 -0.413,0.579 -0.729,0.754c-0.317,0.176 -0.69,0.264 -1.119,0.264Zm0,-0.846c0.315,-0 0.562,-0.113 0.741,-0.337c0.179,-0.225 0.268,-0.552 0.268,-0.982c0,-0.426 -0.089,-0.75 -0.268,-0.973c-0.179,-0.223 -0.426,-0.334 -0.741,-0.334c-0.315,-0 -0.561,0.11 -0.738,0.331c-0.177,0.221 -0.265,0.546 -0.265,0.976c-0,0.434 0.088,0.762 0.265,0.985c0.177,0.222 0.423,0.334 0.738,0.334Z" style="fill:#FDDEA2;fill-rule:nonzero;"/>
      <path d="M29.036,242.49l-0,-4.211l2.933,0l0,0.87l-1.841,-0l-0,0.769l1.723,-0l0,0.863l-1.723,0l-0,1.709l-1.092,0Z" style="fill:#FDDEA2;fill-rule:nonzero;"/>
      <path d="M32.483,242.49l0,-4.211l2.934,0l-0,0.87l-1.842,-0l0,0.769l1.724,-0l-0,0.863l-1.724,0l0,1.709l-1.092,0Z" style="fill:#FDDEA2;fill-rule:nonzero;"/>
      <path d="M37.376,242.544c-0.314,-0 -0.625,-0.042 -0.932,-0.125c-0.307,-0.083 -0.557,-0.195 -0.75,-0.337l0.348,-0.786c0.205,0.13 0.422,0.229 0.653,0.298c0.23,0.069 0.461,0.104 0.693,0.104c0.236,-0 0.417,-0.033 0.543,-0.098c0.126,-0.065 0.189,-0.157 0.189,-0.275c0,-0.106 -0.057,-0.194 -0.171,-0.263c-0.114,-0.069 -0.329,-0.137 -0.643,-0.204c-0.398,-0.079 -0.707,-0.177 -0.927,-0.293c-0.221,-0.116 -0.375,-0.253 -0.464,-0.411c-0.088,-0.158 -0.132,-0.349 -0.132,-0.574c-0,-0.256 0.072,-0.488 0.218,-0.695c0.146,-0.207 0.35,-0.368 0.614,-0.485c0.264,-0.116 0.565,-0.174 0.903,-0.174c0.303,-0 0.597,0.042 0.883,0.127c0.285,0.085 0.508,0.196 0.67,0.334l-0.343,0.787c-0.185,-0.13 -0.38,-0.23 -0.584,-0.299c-0.205,-0.069 -0.409,-0.103 -0.614,-0.103c-0.201,-0 -0.362,0.038 -0.484,0.115c-0.122,0.077 -0.183,0.18 -0.183,0.311c-0,0.071 0.022,0.13 0.065,0.177c0.043,0.047 0.124,0.094 0.242,0.139c0.118,0.045 0.295,0.094 0.531,0.145c0.382,0.083 0.682,0.182 0.9,0.299c0.219,0.116 0.373,0.252 0.464,0.408c0.09,0.155 0.135,0.342 0.135,0.559c0,0.41 -0.159,0.732 -0.478,0.967c-0.319,0.234 -0.767,0.352 -1.346,0.352Z" style="fill:#FDDEA2;fill-rule:nonzero;"/>
      <path d="M39.82,242.49l0,-4.211l2.999,0l-0,0.852l-1.919,-0l0,0.792l1.795,0l-0,0.852l-1.795,0l0,0.864l1.919,-0l-0,0.851l-2.999,0Z" style="fill:#FDDEA2;fill-rule:nonzero;"/>
      <path d="M44.43,242.49l0,-3.312l-1.251,0l-0,-0.899l3.624,0l0,0.899l-1.251,0l-0,3.312l-1.122,0Z" style="fill:#FDDEA2;fill-rule:nonzero;"/>
    </g>
    <path id="path911" d="M125.915,228.707c3.194,-5.545 1.942,-12.654 -2.954,-16.773c-4.894,-4.117 -12.104,-4.117 -16.997,-0c-4.9,4.119 -6.151,11.228 -2.958,16.773" style="fill:none;fill-rule:nonzero;stroke:#FDDEA2;stroke-width:1.3px;stroke-linecap:round;"/>
    <ellipse id="circle913" cx="124.935" cy="232.933" rx="2.904" ry="2.91" style="fill:#FDDEA2;stroke:#FDDEA2;stroke-width:1.3px;stroke-linejoin:round;stroke-miterlimit:1.5;"/>
    <ellipse id="circle915" cx="104.276" cy="232.933" rx="2.904" ry="2.91" style="fill:none;stroke:#FDDEA2;stroke-width:1.3px;stroke-linejoin:round;stroke-miterlimit:1.5;"/>
    <g id="g920">
      <path id="text918" d="M109.449,238.279l1.051,0l-1.505,4.211l-0.88,0l-0.879,-2.502l-0.897,2.502l-0.88,0l-1.499,-4.211l1.127,0l0.862,2.656l0.939,-2.656l0.755,0l0.903,2.703l0.903,-2.703Z" style="fill:#FDDEA2;fill-rule:nonzero;"/>
      <rect x="110.949" y="238.279" width="1.11" height="4.211" style="fill:#FDDEA2;fill-rule:nonzero;"/>
      <path d="M112.814,238.279l1.718,0c0.464,0 0.864,0.084 1.201,0.252c0.336,0.167 0.594,0.409 0.773,0.724c0.179,0.316 0.269,0.69 0.269,1.124c-0,0.437 -0.089,0.815 -0.266,1.132c-0.177,0.318 -0.434,0.56 -0.77,0.728c-0.337,0.167 -0.739,0.251 -1.207,0.251l-1.718,0l-0,-4.211Zm1.641,3.324c0.409,0 0.715,-0.101 0.918,-0.304c0.202,-0.204 0.304,-0.51 0.304,-0.92c-0,-0.808 -0.407,-1.213 -1.222,-1.213l-0.531,0l-0,2.437l0.531,0Z" style="fill:#FDDEA2;fill-rule:nonzero;"/>
      <path d="M118.138,242.49l0,-3.312l-1.251,0l-0,-0.899l3.624,0l0,0.899l-1.251,0l-0,3.312l-1.122,0Z" style="fill:#FDDEA2;fill-rule:nonzero;"/>
      <path d="M123.746,238.279l1.086,0l0,4.211l-1.086,0l-0,-1.703l-1.7,-0l-0,1.703l-1.086,0l-0,-4.211l1.086,0l-0,1.639l1.7,-0l-0,-1.639Z" style="fill:#FDDEA2;fill-rule:nonzero;"/>
    </g>
    <path id="path922" d="M51.514,280.934l-0,-7.174c-0,-4.448 -3.604,-8.059 -8.043,-8.059l-16.085,0c-4.439,0 -8.043,3.611 -8.043,8.059l0,7.174" style="fill:none;fill-rule:nonzero;stroke:#FDDEA2;stroke-width:1.24px;stroke-linecap:round;"/>
    <g id="g927">
      <path id="text925" d="M26.285,301.687c-0.429,0 -0.803,-0.087 -1.121,-0.263c-0.319,-0.175 -0.564,-0.427 -0.735,-0.754c-0.172,-0.327 -0.257,-0.71 -0.257,-1.147c-0,-0.438 0.086,-0.818 0.26,-1.142c0.173,-0.323 0.418,-0.572 0.735,-0.748c0.316,-0.175 0.689,-0.263 1.118,-0.263c0.429,-0 0.802,0.088 1.119,0.263c0.316,0.176 0.559,0.425 0.729,0.748c0.169,0.324 0.253,0.704 0.253,1.142c0,0.437 -0.084,0.82 -0.253,1.147c-0.17,0.327 -0.413,0.579 -0.729,0.754c-0.317,0.176 -0.69,0.263 -1.119,0.263Zm0,-0.845c0.315,-0 0.562,-0.113 0.741,-0.337c0.179,-0.225 0.268,-0.552 0.268,-0.982c0,-0.426 -0.089,-0.75 -0.268,-0.973c-0.179,-0.223 -0.426,-0.334 -0.741,-0.334c-0.315,-0 -0.561,0.11 -0.738,0.331c-0.177,0.221 -0.265,0.546 -0.265,0.976c-0,0.434 0.088,0.762 0.265,0.985c0.177,0.222 0.423,0.334 0.738,0.334Z" style="fill:#FDDEA2;fill-rule:nonzero;"/>
      <path d="M29.036,301.634l-0,-4.211l2.933,0l0,0.87l-1.841,-0l-0,0.768l1.723,0l0,0.864l-1.723,-0l-0,1.709l-1.092,0Z" style="fill:#FDDEA2;fill-rule:nonzero;"/>
      <path d="M32.483,301.634l0,-4.211l2.934,0l-0,0.87l-1.842,-0l0,0.768l1.724,0l-0,0.864l-1.724,-0l0,1.709l-1.092,0Z" style="fill:#FDDEA2;fill-rule:nonzero;"/>
      <path d="M37.376,301.687c-0.314,0 -0.625,-0.041 -0.932,-0.124c-0.307,-0.083 -0.557,-0.195 -0.75,-0.337l0.348,-0.786c0.205,0.13 0.422,0.229 0.653,0.298c0.23,0.069 0.461,0.104 0.693,0.104c0.236,-0 0.417,-0.033 0.543,-0.098c0.126,-0.065 0.189,-0.157 0.189,-0.275c0,-0.106 -0.057,-0.194 -0.171,-0.263c-0.114,-0.069 -0.329,-0.137 -0.643,-0.204c-0.398,-0.079 -0.707,-0.177 -0.927,-0.293c-0.221,-0.116 -0.375,-0.253 -0.464,-0.411c-0.088,-0.158 -0.132,-0.349 -0.132,-0.574c-0,-0.256 0.072,-0.488 0.218,-0.695c0.146,-0.207 0.35,-0.368 0.614,-0.485c0.264,-0.116 0.565,-0.174 0.903,-0.174c0.303,-0 0.597,0.042 0.883,0.127c0.285,0.085 0.508,0.196 0.67,0.334l-0.343,0.787c-0.185,-0.13 -0.38,-0.23 -0.584,-0.299c-0.205,-0.069 -0.409,-0.103 -0.614,-0.103c-0.201,-0 -0.362,0.038 -0.484,0.115c-0.122,0.077 -0.183,0.18 -0.183,0.311c-0,0.071 0.022,0.13 0.065,0.177c0.043,0.047 0.124,0.094 0.242,0.139c0.118,0.045 0.295,0.094 0.531,0.145c0.382,0.083 0.682,0.182 0.9,0.299c0.219,0.116 0.373,0.252 0.464,0.408c0.09,0.155 0.135,0.342 0.135,0.559c0,0.41 -0.159,0.732 -0.478,0.967c-0.319,0.234 -0.767,0.351 -1.346,0.351Z" style="fill:#FDDEA2;fill-rule:nonzero;"/>
      <path d="M39.82,301.634l0,-4.211l2.999,0l-0,0.852l-1.919,-0l0,0.792l1.795,0l-0,0.852l-1.795,0l0,0.864l1.919,-0l-0,0.851l-2.999,0Z" style="fill:#FDDEA2;fill-rule:nonzero;"/>
      <path d="M44.43,301.634l0,-3.312l-1.251,0l-0,-0.899l3.624,0l0,0.899l-1.251,0l-0,3.312l-1.122,0Z" style="fill:#FDDEA2;fill-rule:nonzero;"/>
    </g>
    <path id="path929" d="M130.611,280.934l-0,-7.174c-0,-4.448 -3.604,-8.059 -8.043,-8.059l-16.085,0c-4.439,0 -8.042,3.611 -8.042,8.059l-0,7.174" style="fill:none;fill-rule:nonzero;stroke:#FDDEA2;stroke-width:1.24px;stroke-linecap:round;"/>
    <g id="g934">
      <path id="text932" d="M109.449,297.423l1.051,0l-1.505,4.211l-0.88,0l-0.879,-2.502l-0.897,2.502l-0.88,0l-1.499,-4.211l1.127,0l0.862,2.656l0.939,-2.656l0.755,0l0.903,2.703l0.903,-2.703Z" style="fill:#FDDEA2;fill-rule:nonzero;"/>
      <rect x="110.949" y="297.423" width="1.11" height="4.211" style="fill:#FDDEA2;fill-rule:nonzero;"/>
      <path d="M112.814,297.423l1.718,0c0.464,0 0.864,0.084 1.201,0.252c0.336,0.167 0.594,0.409 0.773,0.724c0.179,0.316 0.269,0.69 0.269,1.124c-0,0.437 -0.089,0.815 -0.266,1.132c-0.177,0.318 -0.434,0.56 -0.77,0.728c-0.337,0.167 -0.739,0.251 -1.207,0.251l-1.718,0l-0,-4.211Zm1.641,3.324c0.409,0 0.715,-0.101 0.918,-0.305c0.202,-0.203 0.304,-0.509 0.304,-0.919c-0,-0.808 -0.407,-1.213 -1.222,-1.213l-0.531,0l-0,2.437l0.531,0Z" style="fill:#FDDEA2;fill-rule:nonzero;"/>
      <path d="M118.138,301.634l0,-3.312l-1.251,0l-0,-0.899l3.624,0l0,0.899l-1.251,0l-0,3.312l-1.122,0Z" style="fill:#FDDEA2;fill-rule:nonzero;"/>
      <path d="M123.746,297.423l1.086,0l0,4.211l-1.086,0l-0,-1.703l-1.7,-0l-0,1.703l-1.086,0l-0,-4.211l1.086,0l-0,1.638l1.7,0l-0,-1.638Z" style="fill:#FDDEA2;fill-rule:nonzero;"/>
    </g>
    <path id="path936" d="M91.062,289.805l0,-7.174c0,-4.447 -3.603,-8.058 -8.042,-8.058l-16.085,-0c-4.439,-0 -8.043,3.611 -8.043,8.058l0,7.174" style="fill:none;fill-rule:nonzero;stroke:#FDDEA2;stroke-width:1.24px;stroke-linecap:round;"/>
    <g id="g941">
      <rect id="text939" x="65.899" y="306.295" width="1.11" height="4.211" style="fill:#FDDEA2;fill-rule:nonzero;"/>
      <path d="M70.479,306.295l1.045,-0l0,4.211l-0.82,-0l-1.907,-2.39l-0,2.39l-1.033,-0l-0,-4.211l0.809,-0l1.906,2.377l0,-2.377Z" style="fill:#FDDEA2;fill-rule:nonzero;"/>
      <path d="M72.285,306.295l2.002,-0c0.48,-0 0.851,0.115 1.115,0.346c0.264,0.23 0.396,0.543 0.396,0.937c-0,0.391 -0.134,0.702 -0.402,0.935c-0.267,0.232 -0.637,0.349 -1.109,0.349l-0.892,-0l0,1.644l-1.11,-0l0,-4.211Zm1.854,1.739c0.417,-0 0.626,-0.148 0.626,-0.444c-0,-0.15 -0.051,-0.263 -0.151,-0.34c-0.1,-0.077 -0.259,-0.115 -0.475,-0.115l-0.744,-0l0,0.899l0.744,-0Z" style="fill:#FDDEA2;fill-rule:nonzero;"/>
      <path d="M78.176,310.559c-0.613,0 -1.078,-0.155 -1.393,-0.464c-0.314,-0.31 -0.472,-0.764 -0.472,-1.363l0,-2.437l1.08,-0l0,2.478c0,0.304 0.068,0.536 0.204,0.698c0.136,0.161 0.33,0.242 0.581,0.242c0.248,0 0.439,-0.082 0.573,-0.245c0.134,-0.164 0.201,-0.395 0.201,-0.695l-0,-2.478l1.092,-0l-0,2.437c-0,0.591 -0.161,1.043 -0.481,1.357c-0.321,0.313 -0.782,0.47 -1.385,0.47Z" style="fill:#FDDEA2;fill-rule:nonzero;"/>
      <path d="M81.712,310.506l0,-3.312l-1.251,-0l-0,-0.899l3.624,-0l0,0.899l-1.251,-0l-0,3.312l-1.122,-0Z" style="fill:#FDDEA2;fill-rule:nonzero;"/>
    </g>
    <path id="path943" d="M51.514,318.118c-0,-4.448 -3.604,-8.059 -8.043,-8.059l-16.085,0c-4.439,0 -8.043,3.611 -8.043,8.059l0,23.811c0,4.448 3.604,8.058 8.043,8.058l16.085,0c4.439,0 8.043,-3.61 8.043,-8.058l-0,-23.811Z" style="fill:none;fill-rule:nonzero;stroke:#FDDEA2;stroke-width:1.24px;"/>
    <g id="g948">
      <path id="text946" d="M27.826,345.992l-0,-4.211l2.933,0l0,0.87l-1.841,-0l-0,0.768l1.723,0l0,0.864l-1.723,-0l-0,1.709l-1.092,0Z" style="fill:#FDDEA2;fill-rule:nonzero;"/>
      <path d="M33.262,346.045c-0.429,0 -0.803,-0.087 -1.121,-0.263c-0.319,-0.175 -0.564,-0.427 -0.735,-0.754c-0.171,-0.327 -0.257,-0.71 -0.257,-1.147c-0,-0.438 0.087,-0.818 0.26,-1.142c0.173,-0.323 0.418,-0.572 0.735,-0.748c0.316,-0.175 0.689,-0.263 1.118,-0.263c0.429,-0 0.802,0.088 1.119,0.263c0.317,0.176 0.56,0.425 0.729,0.748c0.169,0.324 0.254,0.704 0.254,1.142c-0,0.437 -0.085,0.82 -0.254,1.147c-0.169,0.327 -0.412,0.579 -0.729,0.754c-0.317,0.176 -0.69,0.263 -1.119,0.263Zm0,-0.845c0.315,-0 0.562,-0.113 0.741,-0.337c0.179,-0.225 0.269,-0.552 0.269,-0.982c-0,-0.426 -0.09,-0.75 -0.269,-0.973c-0.179,-0.223 -0.426,-0.334 -0.741,-0.334c-0.315,-0 -0.561,0.11 -0.738,0.331c-0.177,0.221 -0.265,0.546 -0.265,0.976c-0,0.434 0.088,0.762 0.265,0.985c0.177,0.222 0.423,0.334 0.738,0.334Z" style="fill:#FDDEA2;fill-rule:nonzero;"/>
      <path d="M36.013,345.992l-0,-4.211l1.11,0l-0,3.312l1.776,0l0,0.899l-2.886,0Z" style="fill:#FDDEA2;fill-rule:nonzero;"/>
      <path d="M39.431,341.781l1.717,0c0.465,0 0.865,0.084 1.202,0.252c0.336,0.167 0.594,0.409 0.773,0.724c0.179,0.315 0.268,0.69 0.268,1.124c0,0.437 -0.088,0.815 -0.265,1.132c-0.177,0.318 -0.434,0.56 -0.771,0.728c-0.336,0.167 -0.738,0.251 -1.207,0.251l-1.717,0l-0,-4.211Zm1.641,3.324c0.409,0 0.715,-0.101 0.917,-0.305c0.203,-0.203 0.304,-0.509 0.304,-0.919c0,-0.809 -0.407,-1.213 -1.221,-1.213l-0.532,0l0,2.437l0.532,0Z" style="fill:#FDDEA2;fill-rule:nonzero;"/>
    </g>
    <path id="path950" d="M130.611,318.118c-0,-4.448 -3.604,-8.059 -8.043,-8.059l-16.085,0c-4.439,0 -8.042,3.611 -8.042,8.059l-0,23.811c-0,4.448 3.603,8.058 8.042,8.058l16.085,0c4.439,0 8.043,-3.61 8.043,-8.058l-0,-23.811Z" style="fill:none;fill-rule:nonzero;stroke:#FDDEA2;stroke-width:1.24px;"/>
    <g id="g955">
      <path id="text953" d="M104.202,346.045c-0.429,0 -0.803,-0.087 -1.122,-0.263c-0.318,-0.175 -0.563,-0.427 -0.735,-0.754c-0.171,-0.327 -0.256,-0.71 -0.256,-1.147c-0,-0.438 0.086,-0.818 0.259,-1.142c0.173,-0.323 0.418,-0.572 0.735,-0.748c0.317,-0.175 0.69,-0.263 1.119,-0.263c0.429,-0 0.802,0.088 1.118,0.263c0.317,0.176 0.56,0.425 0.729,0.748c0.17,0.324 0.254,0.704 0.254,1.142c0,0.437 -0.084,0.82 -0.254,1.147c-0.169,0.327 -0.412,0.579 -0.729,0.754c-0.316,0.176 -0.689,0.263 -1.118,0.263Zm-0,-0.845c0.315,-0 0.562,-0.113 0.741,-0.337c0.179,-0.225 0.268,-0.552 0.268,-0.982c0,-0.426 -0.089,-0.75 -0.268,-0.973c-0.179,-0.223 -0.426,-0.334 -0.741,-0.334c-0.315,-0 -0.561,0.11 -0.738,0.331c-0.177,0.221 -0.266,0.546 -0.266,0.976c0,0.434 0.089,0.762 0.266,0.985c0.177,0.222 0.423,0.334 0.738,0.334Z" style="fill:#FDDEA2;fill-rule:nonzero;"/>
      <path d="M108.8,346.045c-0.614,0 -1.078,-0.154 -1.393,-0.464c-0.315,-0.309 -0.472,-0.764 -0.472,-1.363l-0,-2.437l1.08,0l-0,2.478c-0,0.304 0.068,0.537 0.204,0.698c0.135,0.162 0.329,0.243 0.581,0.243c0.248,-0 0.439,-0.082 0.573,-0.246c0.133,-0.163 0.2,-0.395 0.2,-0.695l0,-2.478l1.092,0l0,2.437c0,0.591 -0.16,1.044 -0.481,1.357c-0.32,0.314 -0.782,0.47 -1.384,0.47Z" style="fill:#FDDEA2;fill-rule:nonzero;"/>
      <path d="M112.336,345.992l-0,-3.312l-1.252,0l0,-0.899l3.625,0l-0,0.899l-1.252,0l0,3.312l-1.121,0Z" style="fill:#FDDEA2;fill-rule:nonzero;"/>
      <path d="M115.157,341.781l2.001,0c0.48,0 0.852,0.115 1.116,0.346c0.264,0.231 0.396,0.543 0.396,0.938c-0,0.39 -0.134,0.701 -0.402,0.934c-0.267,0.233 -0.637,0.349 -1.11,0.349l-0.891,0l0,1.644l-1.11,0l0,-4.211Zm1.854,1.739c0.417,0 0.626,-0.148 0.626,-0.444c-0,-0.149 -0.051,-0.263 -0.151,-0.34c-0.1,-0.077 -0.259,-0.115 -0.475,-0.115l-0.744,0l0,0.899l0.744,0Z" style="fill:#FDDEA2;fill-rule:nonzero;"/>
      <path d="M121.048,346.045c-0.614,0 -1.078,-0.154 -1.393,-0.464c-0.315,-0.309 -0.472,-0.764 -0.472,-1.363l0,-2.437l1.08,0l0,2.478c0,0.304 0.068,0.537 0.204,0.698c0.136,0.162 0.329,0.243 0.581,0.243c0.248,-0 0.439,-0.082 0.573,-0.246c0.134,-0.163 0.201,-0.395 0.201,-0.695l-0,-2.478l1.092,0l-0,2.437c-0,0.591 -0.161,1.044 -0.481,1.357c-0.321,0.314 -0.783,0.47 -1.385,0.47Z" style="fill:#FDDEA2;fill-rule:nonzero;"/>
      <path d="M124.584,345.992l0,-3.312l-1.251,0l-0,-0.899l3.624,0l0,0.899l-1.251,0l-0,3.312l-1.122,0Z" style="fill:#FDDEA2;fill-rule:nonzero;"/>
    </g>
    <ellipse id="ellipse969" cx="75.01" cy="335.154" rx="11.953" ry="11.932" style="fill:none;stroke:#FDDEA2;stroke-width:1.33px;"/>
    <path id="path971" d="M61.994,348.66l1.963,-0l1.829,6.124l1.892,-6.124l1.957,-0l-2.544,7.656c-0.239,0.707 -0.664,1.058 -1.278,1.058c-0.623,0 -1.054,-0.354 -1.29,-1.067l-2.529,-7.647Z" style="fill:#FDDEA2;fill-rule:nonzero;"/>
    <path id="path973" d="M69.783,355.136l-0,-6.476l1.841,-0l0,6.414c0.033,0.23 0.245,0.346 0.638,0.346l1.254,-0c0.375,-0 0.585,-0.107 0.626,-0.323l0.012,-0.059l-0,-6.378l1.844,-0l0,6.464c0,0.565 -0.062,0.967 -0.186,1.207c-0.327,0.629 -0.903,0.946 -1.732,0.946l-2.382,-0c-0.853,-0 -1.434,-0.322 -1.744,-0.973c-0.115,-0.237 -0.171,-0.627 -0.171,-1.168Z" style="fill:#FDDEA2;fill-rule:nonzero;"/>
    <path id="path975" d="M76.845,355.171l0,-6.511l1.842,-0l0,6.364c0,0.263 0.156,0.396 0.466,0.396l3.282,-0l-0.012,1.857l-3.429,-0c-0.121,-0 -0.227,-0.003 -0.319,-0.012c-0.664,-0.056 -1.133,-0.251 -1.413,-0.585c-0.278,-0.332 -0.417,-0.834 -0.417,-1.509Z" style="fill:#FDDEA2;fill-rule:nonzero;"/>
    <path id="path977" d="M82.497,350.52l0,-1.86l5.528,-0l0,1.86l-1.856,-0l-0,6.757l-1.842,-0l0,-6.757l-1.83,-0Z" style="fill:#FDDEA2;fill-rule:nonzero;"/>
    <path id="path979" d="M75.269,344.227l0,-3.182l0.151,0.071c0.507,0.236 1.142,0.538 1.148,0.544c0.009,0.009 -1.119,2.244 -1.246,2.469l-0.053,0.098Zm-1.18,-1.284c-0.354,-0.695 -0.647,-1.268 -0.65,-1.271c-0.005,-0.012 1.281,-0.621 1.293,-0.609c0.003,0.003 0.006,0.712 0.003,1.576l-0.003,1.57l-0.643,-1.266Zm4.146,-0.319c-0.327,-0.033 -0.445,-0.047 -0.46,-0.065c-0.012,-0.015 -0.148,-0.228 -0.301,-0.476l-0.277,-0.45l0.696,-1.573c0.384,-0.863 0.717,-1.618 0.741,-1.671l0.047,-0.1l0.67,-0.382c0.369,-0.21 0.697,-0.399 0.723,-0.42c0.03,-0.023 0.269,-0.346 0.531,-0.724c0.263,-0.376 0.482,-0.683 0.482,-0.68c-0,0.003 -0.101,0.706 -0.231,1.564l-0.23,1.564l-0.826,1.775l-0.555,0.842c-0.304,0.465 -0.558,0.84 -0.561,0.84c-0.006,0 -0.209,-0.02 -0.449,-0.044Zm-7.558,-0.796l-0.543,-0.825l-0.422,-0.904l-0.422,-0.902l-0.242,-1.645c-0.133,-0.902 -0.242,-1.644 -0.239,-1.647c0.003,0 0.242,0.34 0.537,0.757c0.292,0.42 0.549,0.778 0.569,0.796c0.021,0.02 0.346,0.21 0.724,0.426c0.374,0.212 0.69,0.396 0.702,0.408c0.015,0.017 1.381,3.078 1.423,3.19c0.014,0.042 -0.009,0.083 -0.29,0.539c-0.168,0.272 -0.315,0.508 -0.327,0.523c-0.018,0.024 -0.101,0.036 -0.467,0.068c-0.245,0.024 -0.448,0.042 -0.451,0.042c-0.006,-0 -0.254,-0.37 -0.552,-0.826Zm2.612,-0.742c-0.006,-0.029 -0.112,-0.887 -0.242,-1.91l-0.23,-1.857l1.921,-1.925l0,5.077l-0.711,0.334c-0.393,0.184 -0.714,0.334 -0.72,0.334c-0.006,0 -0.015,-0.023 -0.018,-0.053Zm2.698,-0.284l-0.709,-0.334l-0.003,-2.537l-0.006,-2.537l1.931,1.934l-0.234,1.869c-0.127,1.029 -0.236,1.886 -0.242,1.907c-0.003,0.018 -0.011,0.035 -0.017,0.035c-0.009,0 -0.331,-0.153 -0.72,-0.337Zm-3.74,-1.786c-0.192,-0.432 -0.351,-0.795 -0.36,-0.813c-0.009,-0.024 0.035,-0.071 0.215,-0.231c0.124,-0.112 0.231,-0.201 0.237,-0.195c0.008,0.009 0.262,2.011 0.256,2.017c-0.003,0.003 -0.159,-0.349 -0.348,-0.778Zm5.186,0.728c0.003,-0.036 0.059,-0.488 0.124,-1.006c0.062,-0.52 0.118,-0.946 0.121,-0.949c0.003,-0.003 0.109,0.086 0.236,0.198l0.233,0.207l-0.03,0.065c-0.138,0.322 -0.667,1.508 -0.678,1.526c-0.012,0.018 -0.012,0.006 -0.006,-0.041Zm0.752,-2.218l-0.292,-0.26l0.165,-0.107c1.641,-1.073 2.373,-1.558 2.403,-1.585c0.02,-0.021 0.283,-0.618 0.608,-1.384l0.572,-1.351l0,-1.479l-0.038,-0.053c-0.077,-0.116 -0.213,-0.16 -0.325,-0.11c-0.023,0.012 -0.528,0.411 -1.121,0.89l-1.08,0.873l-0.797,1.011c-0.44,0.556 -0.806,1.017 -0.818,1.029c-0.012,0.012 -0.286,-0.248 -1.065,-1.011c-0.576,-0.565 -1.048,-1.032 -1.048,-1.038c0,-0.015 3.382,-5.583 3.397,-5.595c0.006,-0.003 0.537,0.405 1.184,0.908l1.171,0.914l0.791,1.425l0.791,1.428l-0.038,0.479l-0.036,0.482l-2.859,4.081l-0.617,0.352c-0.34,0.195 -0.626,0.355 -0.638,0.358c-0.009,0.003 -0.147,-0.112 -0.31,-0.257Zm-7.301,-0.107l-0.614,-0.349l-2.863,-4.086l-0.036,-0.48l-0.035,-0.482l0.788,-1.425l0.791,-1.425l1.172,-0.914c0.643,-0.503 1.174,-0.908 1.183,-0.902c0.006,0.006 0.773,1.269 1.709,2.806l1.697,2.792l-0.431,0.423c-1.375,1.348 -1.664,1.629 -1.676,1.629c-0.009,0 -0.363,-0.443 -0.791,-0.985c-0.425,-0.538 -0.797,-1.005 -0.824,-1.035c-0.044,-0.047 -1.962,-1.602 -2.157,-1.753c-0.056,-0.042 -0.077,-0.047 -0.165,-0.047c-0.113,-0 -0.169,0.029 -0.222,0.124c-0.032,0.05 -0.032,0.085 -0.038,0.783l-0.003,0.728l0.573,1.351c0.366,0.867 0.587,1.367 0.613,1.393c0.024,0.024 0.608,0.417 1.299,0.87l1.257,0.825l-0.286,0.254c-0.156,0.142 -0.295,0.257 -0.307,0.257c-0.012,0 -0.298,-0.159 -0.634,-0.352Zm5.356,-1.798l-0.971,-0.97l0.006,-0.511l0.003,-0.512l1.936,1.893l0.003,0.538c0,0.293 -0.003,0.535 -0.006,0.535c0,0 -0.439,-0.437 -0.971,-0.973Zm-3.432,0.964l-0,-1.067l0.962,-0.944l0.962,-0.94l0.009,1.017l-0.968,0.967l-0.965,0.967Zm2.461,-7.514c0,-1.996 0.006,-2.987 0.018,-2.987c0.009,0 0.664,0.166 1.458,0.37c0.794,0.204 1.493,0.381 1.555,0.396c0.077,0.021 0.107,0.036 0.101,0.051c-0.006,0.017 -2.946,4.858 -3.084,5.083l-0.048,0.074l0,-2.987Zm-2.104,0.39c-0.859,-1.416 -1.561,-2.578 -1.558,-2.578c0.011,-0.012 3.119,-0.802 3.125,-0.796c0.003,0.006 0.006,1.346 0.003,2.978l-0.003,2.972l-1.567,-2.576Z" style="fill:#FDDEA2;fill-rule:nonzero;"/>
    <path id="path938" d="M64.567,209.341l-3.499,6.101l-3.489,6.088l-0.02,0l0,11.892l-5.192,-0l-0,1.368l19.216,0l1.757,5.56l1.557,-5.56l4.149,0l0,11.893l3.509,6.095l3.509,6.094l3.497,-6.101l3.49,-6.088l0.019,-0l0,-11.893l4.966,0l-0,-1.368l-18.99,-0l-1.882,-6.726l-1.883,6.726l-3.698,-0l0,-11.892l-3.508,-6.094l-3.508,-6.095Z" style="fill:none;fill-rule:nonzero;stroke:#FDDEA2;stroke-width:0.75px;stroke-linecap:round;stroke-linejoin:round;"/>
    <path id="path1636" d="M38.365,123.164l-0,5.528" style="fill:none;fill-rule:nonzero;stroke:#FDDEA2;stroke-width:1.08px;stroke-linecap:round;"/>
  </g>
</svg>