<svg xmlns="http://www.w3.org/2000/svg" xmlns:inkscape="http://www.inkscape.org/namespaces/inkscape" xmlns:sodipodi="http://sodipodi.sourceforge.net/DTD/sodipodi-0.dtd" width="20.320108mm" height="128.5mm" viewBox="0 0 76.800412 485.66929" version="1.1" id="svg34" sodipodi:docname="Accent_info.svg" inkscape:version="1.4 (e7c3feb1, 2024-10-09)">
  <sodipodi:namedview id="namedview34" pagecolor="#ffffff" bordercolor="#000000" borderopacity="0.25" inkscape:showpageshadow="2" inkscape:pageopacity="0.0" inkscape:pagecheckerboard="0" inkscape:deskcolor="#d1d1d1" inkscape:zoom="2.4572787" inkscape:cx="30.725046" inkscape:cy="217.51704" inkscape:window-width="1200" inkscape:window-height="900" inkscape:window-x="2189" inkscape:window-y="25" inkscape:window-maximized="0" inkscape:current-layer="components" showgrid="false" inkscape:document-units="mm" />
  <defs id="defs2">
    <clipPath id="clippath">
      <rect x="14.9" y="32.98" width="27.799999" height="25.620001" style="fill:none" id="rect1" />
    </clipPath>
    <clipPath id="clippath-1">
      <rect x="14.9" y="32.98" width="27.799999" height="25.620001" style="fill:none" id="rect2" />
    </clipPath>
  </defs>
  <g id="faceplate" transform="scale(1.3333405)">
    <g id="g3">
      <rect x="0.13" y="0.13" width="57.349998" height="364" style="fill:#ededed" id="rect3" />
      <path d="M 57.35,0.25 V 364 H 0.25 V 0.25 h 57.1 M 57.6,0 H 0 v 364.25 h 57.6 z" style="fill:#9d9d9e" id="path3" />
    </g>
    <g id="g5" transform="translate(0,-8.7284244)">
      <path d="M 13.08,324.44 V 214.26 c 0,-8.03 6.98,-14.54 15.59,-14.54 8.61,0 15.59,6.51 15.59,14.54 v 110.18 z" style="fill:#d1d3d4" id="path4" />
      <path d="m 44.27,310.67 c 0,-8.05 -6.98,-14.57 -15.59,-14.57 -8.61,0 -15.59,6.53 -15.59,14.57 v 5.36 c 0,0 0,0 0,0 v 19.77 c 0,3.11 2.55,5.65 5.67,5.65 H 38.6 c 3.12,0 5.67,-2.54 5.67,-5.65 v -19.77 c 0,0 0,0 0,0 v -5.35 z" style="fill:#d1d3d4" id="path5" />
    </g>
    <path d="m 44.27,301.94158 c 0,-8.05 -6.98,-14.57 -15.59,-14.57 -8.61,0 -15.59,6.53 -15.59,14.57 v 5.36 c 0,0 0,0 0,0 v 19.77 c 0,3.11 2.55,5.65 5.67,5.65 H 38.6 c 3.12,0 5.67,-2.54 5.67,-5.65 v -19.77 c 0,0 0,0 0,0 v -5.35 z" id="path6" />
    <path d="M 21.581875,280.39158 H 20.145 v -5.41407 h 1.436875 z m 4.455275,0 h -1.2375 v -2.14454 q 0,-0.32812 -0.09625,-0.57031 -0.09281,-0.24609 -0.4125,-0.24609 -0.15125,0 -0.268125,0.0664 -0.113437,0.0625 -0.20625,0.16407 -0.08937,0.10156 -0.15125,0.19531 -0.06187,0.0937 -0.127187,0.19922 v 2.33594 h -1.2375 v -3.97657 h 1.2375 v 0.57032 q 0.292187,-0.35547 0.584375,-0.4961 0.295625,-0.14453 0.656562,-0.14453 1.258125,0 1.258125,1.71094 z m 4.304025,-2.01563 q 0,0.39844 -0.09969,0.76953 -0.09969,0.3711 -0.305937,0.67188 -0.202813,0.29687 -0.525937,0.47265 -0.319688,0.17188 -0.745938,0.17188 -0.34375,0 -0.543125,-0.082 -0.195937,-0.082 -0.391875,-0.21875 v 2.03906 h -1.2375 v -5.78516 h 1.2375 v 0.35938 q 0.185625,-0.1836 0.409063,-0.30469 0.226875,-0.125 0.611875,-0.125 0.381562,0 0.749374,0.21484 0.367813,0.21485 0.605,0.67188 0.237188,0.45312 0.237188,1.14453 z m -1.302812,0.0312 q 0,-0.35937 -0.09969,-0.58203 -0.09969,-0.22656 -0.257812,-0.32422 -0.158126,-0.10156 -0.326563,-0.10156 -0.22,0 -0.360937,0.082 -0.140938,0.0781 -0.264688,0.19922 v 1.51953 q 0.06531,0.0391 0.1375,0.0898 0.07563,0.0469 0.147813,0.082 0.07562,0.0352 0.158125,0.0586 0.08594,0.0234 0.182187,0.0234 0.292187,0 0.488125,-0.28125 0.195938,-0.28125 0.195938,-0.76563 z m 5.352462,1.98438 h -1.240938 v -0.56641 q -0.26125,0.32031 -0.55,0.48047 -0.285312,0.15625 -0.6875,0.15625 -0.794062,0 -1.027812,-0.52344 -0.23375,-0.52734 -0.23375,-1.1875 v -2.33594 h 1.240938 v 2.14844 q 0,0.32422 0.09281,0.57031 0.09625,0.24219 0.4125,0.24219 0.271562,0 0.429688,-0.17578 0.158124,-0.17578 0.323124,-0.44922 v -2.33594 h 1.240938 z m 3.269337,-0.23047 q -0.1925,0.10547 -0.532813,0.20312 -0.336874,0.0977 -0.64625,0.0977 -1.337187,0 -1.337187,-1.48438 v -1.58593 h -0.560313 v -0.2461 l 1.660313,-1.92187 h 0.140937 v 1.1914 h 1.1825 v 0.97657 h -1.1825 v 1.27343 q 0,0.22266 0.02406,0.35938 0.02406,0.13672 0.134063,0.23047 0.113437,0.0898 0.340313,0.0898 0.295624,0 0.776874,-0.28125 z" id="text6" style="font-weight:700;font-size:8px;font-family:GillSans-Bold, 'Gill Sans';letter-spacing:-0.04em;stroke-width:0.938083" aria-label="Input" />
    <path d="m 27.765937,325.87064 q 0,0.75781 -0.309375,1.39453 -0.305937,0.63672 -0.914375,1.01172 -0.608437,0.375 -1.481562,0.375 -0.883437,0 -1.495313,-0.39063 -0.611875,-0.39062 -0.910937,-1.02734 -0.295625,-0.63672 -0.295625,-1.36328 0,-0.73047 0.295625,-1.36328 0.295625,-0.63672 0.9075,-1.02344 0.615313,-0.39063 1.49875,-0.39063 0.66,0 1.175625,0.22266 0.519062,0.22266 0.8525,0.60547 0.333437,0.37891 0.505312,0.88672 0.171875,0.5039 0.171875,1.0625 z m -1.464375,0 q 0,-0.30469 -0.07906,-0.55469 -0.07906,-0.25391 -0.240625,-0.4375 -0.158125,-0.1875 -0.388438,-0.28906 -0.230312,-0.10547 -0.532812,-0.10547 -0.5775,0 -0.9075,0.38281 -0.33,0.38281 -0.33,1.00391 0,0.62109 0.33,1.00781 0.333437,0.38281 0.9075,0.38281 0.395312,0 0.67375,-0.17578 0.278437,-0.17969 0.422812,-0.49219 0.144375,-0.3164 0.144375,-0.72265 z m 5.562151,2.71094 h -1.240938 v -0.56641 q -0.26125,0.32031 -0.55,0.48047 -0.285313,0.15625 -0.6875,0.15625 -0.794063,0 -1.027813,-0.52344 -0.23375,-0.52734 -0.23375,-1.1875 v -2.33594 h 1.240938 v 2.14844 q 0,0.32422 0.09281,0.57031 0.09625,0.24219 0.4125,0.24219 0.271563,0 0.429688,-0.17578 0.158125,-0.17578 0.323125,-0.44922 v -2.33594 h 1.240938 z m 3.269337,-0.23047 q -0.1925,0.10547 -0.532813,0.20312 -0.336875,0.0977 -0.64625,0.0977 -1.337187,0 -1.337187,-1.48438 v -1.58593 h -0.560313 v -0.2461 l 1.660313,-1.92187 h 0.140937 v 1.1914 h 1.1825 v 0.97657 h -1.1825 v 1.27343 q 0,0.22266 0.02406,0.35938 0.02406,0.13672 0.134062,0.23047 0.113438,0.0898 0.340313,0.0898 0.295625,0 0.776875,-0.28125 z" id="text7" style="font-weight:700;font-size:8px;font-family:GillSans-Bold, 'Gill Sans';letter-spacing:-0.04em;fill:#ffffff;stroke-width:0.938083" aria-label="Out" />
    <g id="pips_-_fewest" data-name="pips - fewest" transform="translate(0,8.3792874)">
      <g clip-path="url(#clippath)" id="g17">
        <g clip-path="url(#clippath-1)" id="g16">
          <path d="m 34.49,35.76 0.71,-1.23 c -1.74,-0.9 -3.7,-1.45 -5.77,-1.55 v 1.43 c 1.81,0.09 3.53,0.56 5.06,1.35" id="path7" />
          <path d="m 39.29,40.1 1.23,-0.71 C 39.43,37.7 37.99,36.25 36.3,35.17 l -0.71,1.23 c 1.48,0.96 2.74,2.22 3.7,3.7" id="path8" />
          <path d="M 22.01,36.4 21.3,35.17 c -1.69,1.09 -3.14,2.53 -4.22,4.22 l 1.23,0.71 c 0.96,-1.48 2.22,-2.74 3.7,-3.7" id="path9" />
          <path d="m 41.27,46.25 h 1.43 c -0.09,-2.07 -0.64,-4.03 -1.55,-5.77 l -1.23,0.71 c 0.79,1.53 1.26,3.24 1.35,5.06" id="path10" />
          <path d="m 28.17,34.41 v -1.43 c -2.07,0.09 -4.03,0.64 -5.77,1.55 l 0.71,1.23 c 1.53,-0.79 3.24,-1.26 5.06,-1.35" id="path11" />
          <path d="m 18.31,53.67 -1.23,0.71 c 1.09,1.69 2.53,3.14 4.22,4.22 l 0.71,-1.23 c -1.48,-0.96 -2.74,-2.22 -3.7,-3.7" id="path12" />
          <path d="m 35.59,57.38 0.71,1.23 c 1.69,-1.09 3.14,-2.53 4.22,-4.22 l -1.23,-0.71 c -0.96,1.48 -2.22,2.74 -3.7,3.7" id="path13" />
          <path d="m 41.27,47.52 c -0.09,1.81 -0.56,3.53 -1.35,5.06 l 1.23,0.71 c 0.9,-1.74 1.45,-3.7 1.55,-5.77 z" id="path14" />
          <path d="M 16.33,47.52 H 14.9 c 0.09,2.07 0.64,4.03 1.55,5.77 l 1.23,-0.71 c -0.79,-1.53 -1.26,-3.24 -1.35,-5.06" id="path15" />
          <path d="m 17.68,41.2 -1.23,-0.71 c -0.9,1.74 -1.45,3.7 -1.55,5.77 h 1.43 c 0.09,-1.81 0.56,-3.53 1.35,-5.06" id="path16" />
        </g>
      </g>
    </g>
    <path d="m 18.4675,78.219287 h -1.839063 l -0.485546,-1.37207 h -2.586719 l -0.494141,1.37207 h -1.839062 l 2.633984,-6.767578 h 1.985156 z m -2.737109,-2.548828 -0.872266,-2.470703 -0.880859,2.470703 z M 26.44714,78.219287 H 24.900266 V 75.56792 q 0,-0.527343 -0.154688,-0.786133 -0.150391,-0.263671 -0.48125,-0.263671 -0.322265,0 -0.528515,0.224609 -0.20625,0.219727 -0.4125,0.556641 v 2.919921 H 21.776437 V 75.56792 q 0,-0.502929 -0.141797,-0.776367 -0.141796,-0.273437 -0.502734,-0.273437 -0.171875,0 -0.317969,0.07813 -0.141797,0.07813 -0.232031,0.175781 -0.09023,0.09766 -0.21914,0.288086 -0.128907,0.190429 -0.163282,0.239258 v 2.919921 h -1.546875 v -4.970703 h 1.546875 v 0.712891 q 0.348047,-0.419922 0.708985,-0.610352 0.360937,-0.190429 0.833594,-0.190429 0.223437,0 0.42539,0.04883 0.201953,0.04394 0.395313,0.15625 0.197656,0.112304 0.35664,0.307617 0.158984,0.195312 0.253516,0.454101 0.373828,-0.478515 0.773437,-0.722656 0.403907,-0.24414 0.928125,-0.24414 0.524219,0 0.876563,0.239257 0.35664,0.239258 0.524219,0.69336 0.171874,0.449219 0.171874,1.09375 z m 5.39722,-2.490234 q 0,0.742188 -0.283593,1.323242 -0.283595,0.581055 -0.850782,0.917969 -0.562891,0.336914 -1.375,0.336914 -0.81211,0 -1.379297,-0.336914 -0.56289,-0.336914 -0.846484,-0.917969 -0.279297,-0.581054 -0.279297,-1.323242 0,-0.561523 0.154687,-1.020508 0.158984,-0.458984 0.476954,-0.810547 0.322266,-0.356445 0.790624,-0.546875 0.46836,-0.190429 1.082813,-0.190429 0.61875,0 1.091406,0.195312 0.476953,0.19043 0.786329,0.53711 0.313671,0.346679 0.472655,0.810546 0.158985,0.463868 0.158985,1.025391 z m -1.628516,0 q 0,-0.59082 -0.227734,-0.922851 -0.223438,-0.336915 -0.653125,-0.336915 -0.425391,0 -0.653125,0.336915 -0.223438,0.332031 -0.223438,0.922851 0,0.585938 0.227735,0.927734 0.227734,0.341797 0.648828,0.341797 0.429687,0 0.653125,-0.336914 0.227734,-0.341797 0.227734,-0.932617 z m 6.690578,2.490234 H 35.355249 V 77.51128 q -0.326563,0.40039 -0.6875,0.600586 -0.35664,0.195312 -0.859374,0.195312 -0.992579,0 -1.284766,-0.654297 -0.292187,-0.659179 -0.292187,-1.484375 v -2.919922 h 1.551171 v 2.685547 q 0,0.405274 0.116016,0.712891 0.120313,0.302734 0.515624,0.302734 0.339453,0 0.53711,-0.219726 0.197656,-0.219727 0.403906,-0.561524 v -2.919922 h 1.551173 z m 5.306984,0 H 40.66653 v -2.680664 q 0,-0.410156 -0.120311,-0.71289 -0.116016,-0.307617 -0.515626,-0.307617 -0.189063,0 -0.335156,0.08301 -0.141797,0.07813 -0.257812,0.205078 -0.111719,0.126953 -0.189063,0.24414 -0.07734,0.117188 -0.158984,0.249024 v 2.919921 h -1.546875 v -4.970703 h 1.546875 v 0.712891 q 0.365234,-0.444336 0.730468,-0.620117 0.369532,-0.180664 0.820704,-0.180664 1.572656,0 1.572656,2.138672 z m 4.026516,-0.288086 q -0.240625,0.131836 -0.666016,0.253907 -0.421093,0.12207 -0.807812,0.12207 -1.671484,0 -1.671484,-1.855469 V 74.469287 H 42.394219 V 74.16167 l 2.075391,-2.402343 h 0.176171 v 1.489257 h 1.478125 v 1.220703 h -1.478125 v 1.591797 q 0,0.278321 0.03008,0.449219 0.03008,0.170899 0.167577,0.288086 0.141797,0.112305 0.425391,0.112305 0.369532,0 0.971094,-0.351563 z" id="text17" style="font-weight:700;font-size:10px;font-family:GillSans-Bold, 'Gill Sans';letter-spacing:-0.04em;stroke-width:0.938083" aria-label="Amount" />
    <g id="text19" style="font-weight:700;font-size:11px;font-family:GillSans-Bold, 'Gill Sans'" transform="matrix(0.82,0,0,1,14.21,348.33158)" aria-label="ACNT">
      <path style="letter-spacing:-0.01em" d="M 9.109375,0 H 6.8105469 L 6.2036133,-1.5092773 H 2.9702148 L 2.3525391,0 H 0.05371094 L 3.3461914,-7.4443359 H 5.8276367 Z M 5.6879883,-2.8037109 4.5976562,-5.5214844 3.496582,-2.8037109 Z" id="path34" />
      <path d="m 16.610098,-0.55859375 q -0.461914,0.24169922 -0.945313,0.38671875 -0.483398,0.14501953 -0.977539,0.20410156 -0.488769,0.06445313 -1.015136,0.06445313 -0.972168,0 -1.745606,-0.26855469 Q 11.158438,-0.44042969 10.589102,-0.96142578 10.025137,-1.487793 9.740469,-2.1860352 9.4611721,-2.8896484 9.4611721,-3.7275391 q 0,-0.9614257 0.3330078,-1.6811523 0.3330081,-0.7250977 0.9291991,-1.203125 0.601563,-0.4780273 1.364258,-0.7036133 0.768066,-0.230957 1.616699,-0.230957 1.267578,0 2.873535,0.5639648 v 1.9765625 q -0.553222,-0.34375 -1.095703,-0.5693359 -0.537109,-0.230957 -1.267578,-0.230957 -0.649902,0 -1.213867,0.2578125 -0.563965,0.2578125 -0.907715,0.7358398 -0.34375,0.4780273 -0.34375,1.1171875 0,0.5639648 0.300781,1.0366211 0.300782,0.4672851 0.83252,0.746582 0.537109,0.2739258 1.208496,0.2739258 0.54248,0 1.025879,-0.1289062 0.483398,-0.1342774 0.811035,-0.2954102 0.333008,-0.1611328 0.682129,-0.3813477 z M 26.202871,0 H 24.204824 L 20.343008,-4.1464844 V 0 h -2.223633 v -7.4443359 h 1.992676 l 3.851074,4.125 v -4.125 h 2.239746 z m 9.007325,-5.6342773 H 32.48168 V 0 h -2.239746 v -5.6342773 h -2.728516 v -1.8100586 h 7.696778 z" id="path35" />
    </g>
    <g id="g21" transform="translate(0,8.5210535)">
      <path d="m 20.6,18.07 c -0.37,0 -0.71,-0.17 -0.97,-0.47 -0.51,-0.6 -0.52,-1.54 -0.04,-2.16 l 6.97,-8.88 c 0.38,-0.48 1.05,-0.65 1.57,-0.39 0.5,0.25 0.79,0.82 0.79,1.45 v 4.77 l 4.64,-5.85 c 0.38,-0.48 1.01,-0.64 1.53,-0.38 0.5,0.25 0.83,0.81 0.83,1.44 v 8.82 c 0,0.86 -0.61,1.57 -1.36,1.57 -0.75,0 -1.36,-0.7 -1.36,-1.57 v -4.79 l -4.64,5.85 c -0.38,0.48 -1.01,0.64 -1.54,0.38 -0.5,-0.24 -0.83,-0.81 -0.83,-1.44 v -4.67 l -4.61,5.8 c -0.26,0.32 -0.62,0.51 -1,0.51 v 0 z" style="fill:#2cabe1" id="path19" />
      <path d="m 20.6,18.07 c -0.75,0 -1.35,-0.7 -1.35,-1.57 v -4.93 l -2.26,2.84 c -0.5,0.63 -1.44,0.65 -1.97,0.04 -0.51,-0.6 -0.52,-1.53 -0.03,-2.15 L 19.6,6.54 c 0.26,-0.32 0.63,-0.5 1,-0.5 0.18,0 0.37,0.04 0.54,0.12 0.5,0.25 0.82,0.81 0.82,1.44 v 8.89 c 0,0.86 -0.61,1.57 -1.36,1.57 v 0 z" style="fill:#ea2228" id="path20" />
      <path d="m 37.2,18.09 v 0 c -0.35,0 -0.68,-0.15 -0.94,-0.42 -0.76,-0.78 -0.14,-1.84 0.29,-2.3 l 1.95,-2.36 -1.26,-0.02 c -0.56,-0.01 -1.04,-0.4 -1.24,-1 -0.19,-0.56 -0.07,-1.21 0.29,-1.64 L 39.45,6.52 C 39.68,6.24 40,6.04 40.58,6.05 c 0.33,0 0.67,0.17 0.92,0.4 0.71,0.66 0.29,1.7 -0.07,2.2 l -1.04,1.26 1.26,0.02 c 0.56,0.01 1.04,0.4 1.24,1 0.19,0.56 0.07,1.21 -0.29,1.64 l -4.1,4.97 c -0.35,0.35 -0.65,0.55 -1.3,0.54 v 0 z" style="fill:#00a650" id="path21" />
    </g>
    <path id="line21" style="fill:#ffffff;stroke:#231f20;stroke-miterlimit:10" d="M 28.799999,81.569289 V 100.56929" />
    <path d="m 21.366562,228.10392 h -1.746249 v 4.09766 h -1.433438 v -4.09766 h -1.74625 v -1.31641 h 4.925937 z m 3.228088,0.33594 -0.457188,1.41015 q -0.281875,-0.30468 -0.570625,-0.30468 -0.26125,0 -0.45375,0.20312 -0.189062,0.19922 -0.364375,0.74219 v 1.71094 h -1.2375 v -3.97657 h 1.2375 v 0.96094 q 0.116875,-0.35547 0.4125,-0.69141 0.295625,-0.33984 0.694375,-0.33984 0.209688,0 0.364375,0.0703 0.158125,0.0703 0.374688,0.21485 z m 1.014337,-1.13282 q 0,0.2461 -0.154687,0.41797 -0.154688,0.17188 -0.367813,0.17188 -0.144375,0 -0.264687,-0.0781 -0.116875,-0.0781 -0.185625,-0.21093 -0.06875,-0.13672 -0.06875,-0.30079 0,-0.24218 0.15125,-0.41796 0.15125,-0.17579 0.367812,-0.17579 0.213125,0 0.367813,0.17579 0.154687,0.17578 0.154687,0.41796 z m 0.09969,4.89454 h -1.240938 v -3.97657 h 1.240938 z m 4.0909,-3.12891 H 29.1877 q 0.323125,0.32031 0.323125,0.78516 0,0.24609 -0.09281,0.47265 -0.08938,0.22656 -0.268126,0.40235 -0.175312,0.17578 -0.436562,0.28906 -0.257812,0.10937 -0.59125,0.13281 -0.429688,0.0195 -0.429688,0.26172 0,0.0937 0.055,0.13672 0.055,0.043 0.171876,0.0664 0.120312,0.0195 0.402187,0.0469 0.319687,0.0312 0.594687,0.10937 0.275,0.0781 0.512188,0.32813 0.237188,0.25 0.237188,0.71484 0,0.3711 -0.17875,0.65625 -0.175313,0.28516 -0.570626,0.44532 -0.395312,0.16015 -1.045,0.16015 -0.935,0 -1.375,-0.28515 -0.436562,-0.28516 -0.436562,-0.76172 0,-0.12891 0.055,-0.29688 0.05844,-0.16797 0.240625,-0.32422 0.185625,-0.15625 0.53625,-0.21093 -0.12375,-0.0508 -0.213125,-0.19532 -0.08938,-0.14843 -0.08938,-0.30859 0,-0.20703 0.12375,-0.41016 0.127187,-0.20312 0.409063,-0.26172 -0.391876,-0.11718 -0.677188,-0.4414 -0.285312,-0.32422 -0.285312,-0.83985 0,-0.39062 0.130624,-0.68359 0.134063,-0.29297 0.367813,-0.47656 0.23375,-0.1836 0.543125,-0.26953 0.309375,-0.0899 0.677188,-0.0899 h 1.921562 z m -1.368125,0.67187 q 0,-0.30078 -0.182187,-0.48046 -0.17875,-0.1836 -0.402188,-0.1836 -0.285312,0 -0.450312,0.21875 -0.161563,0.21875 -0.161563,0.46094 0,0.16797 0.06875,0.3125 0.07219,0.14453 0.199375,0.23437 0.130625,0.0859 0.309375,0.0859 0.268125,0 0.443438,-0.1914 0.175312,-0.19141 0.175312,-0.45704 z m 0.2475,3.19922 q 0,-0.26172 -0.2475,-0.33984 -0.244063,-0.0742 -0.505313,-0.0742 -0.429687,0 -0.622187,0.10156 -0.189063,0.10547 -0.189063,0.33203 0,0.44532 0.790626,0.44532 0.354062,0 0.56375,-0.11719 0.209687,-0.11328 0.209687,-0.34766 z m 4.802463,-3.87109 H 32.86954 q 0.323125,0.32031 0.323125,0.78516 0,0.24609 -0.09281,0.47265 -0.08938,0.22656 -0.268125,0.40235 -0.175312,0.17578 -0.436562,0.28906 -0.257813,0.10937 -0.59125,0.13281 -0.429688,0.0195 -0.429688,0.26172 0,0.0937 0.055,0.13672 0.055,0.043 0.171875,0.0664 0.120313,0.0195 0.402188,0.0469 0.319687,0.0312 0.594687,0.10937 0.275,0.0781 0.512188,0.32813 0.237187,0.25 0.237187,0.71484 0,0.3711 -0.17875,0.65625 -0.175312,0.28516 -0.570625,0.44532 -0.395312,0.16015 -1.045,0.16015 -0.935,0 -1.375,-0.28515 -0.436562,-0.28516 -0.436562,-0.76172 0,-0.12891 0.055,-0.29688 0.05844,-0.16797 0.240625,-0.32422 0.185625,-0.15625 0.53625,-0.21093 -0.12375,-0.0508 -0.213125,-0.19532 -0.08938,-0.14843 -0.08938,-0.30859 0,-0.20703 0.12375,-0.41016 0.127187,-0.20312 0.409062,-0.26172 -0.391875,-0.11718 -0.677187,-0.4414 -0.285313,-0.32422 -0.285313,-0.83985 0,-0.39062 0.130625,-0.68359 0.134063,-0.29297 0.367813,-0.47656 0.23375,-0.1836 0.543125,-0.26953 0.309375,-0.0899 0.677187,-0.0899 h 1.921563 z m -1.368125,0.67187 q 0,-0.30078 -0.182188,-0.48046 -0.17875,-0.1836 -0.402187,-0.1836 -0.285313,0 -0.450313,0.21875 -0.161562,0.21875 -0.161562,0.46094 0,0.16797 0.06875,0.3125 0.07219,0.14453 0.199374,0.23437 0.130626,0.0859 0.309376,0.0859 0.268124,0 0.443437,-0.1914 0.175313,-0.19141 0.175313,-0.45704 z m 0.2475,3.19922 q 0,-0.26172 -0.2475,-0.33984 -0.244063,-0.0742 -0.505313,-0.0742 -0.429687,0 -0.622187,0.10156 -0.189063,0.10547 -0.189063,0.33203 0,0.44532 0.790625,0.44532 0.354063,0 0.56375,-0.11719 0.209688,-0.11328 0.209688,-0.34766 z m 4.87121,-2.39062 h -2.464688 q 0.07219,0.36328 0.354063,0.59375 0.281875,0.23047 0.639375,0.23047 0.625625,0 1.381875,-0.39844 v 0.87109 q -0.271563,0.16016 -0.66,0.29297 -0.385,0.12891 -0.983125,0.12891 -0.64625,0 -1.1,-0.27344 -0.45375,-0.27344 -0.680625,-0.74219 -0.223438,-0.46875 -0.223438,-1.0625 0,-0.58593 0.223438,-1.04687 0.226875,-0.46485 0.680625,-0.72656 0.45375,-0.26563 1.1,-0.26563 0.42625,0 0.821562,0.21094 0.39875,0.20703 0.653125,0.68359 0.257813,0.47266 0.257813,1.22266 z m -1.161875,-0.69531 q 0,-0.38282 -0.168438,-0.60938 -0.165,-0.23047 -0.477812,-0.23047 -0.309375,0 -0.501875,0.23438 -0.189063,0.23047 -0.189063,0.60547 z m 4.565275,-1.41797 -0.457187,1.41015 q -0.281876,-0.30468 -0.570626,-0.30468 -0.26125,0 -0.45375,0.20312 -0.189062,0.19922 -0.364374,0.74219 v 1.71094 h -1.2375 v -3.97657 h 1.2375 v 0.96094 q 0.116874,-0.35547 0.4125,-0.69141 0.295624,-0.33984 0.694374,-0.33984 0.209688,0 0.364376,0.0703 0.158124,0.0703 0.374687,0.21485 z" id="text21" style="font-weight:700;font-size:8px;font-family:GillSans-Bold, 'Gill Sans';letter-spacing:-0.04em;stroke-width:0.938083" aria-label="Trigger" />
    <path style="fill:none;stroke:#000000;stroke-width:1.41731;stroke-dasharray:none;stroke-opacity:1" d="m 28.8,166.95742 v 43.2795" id="path24" />
  </g>
  <g /></svg>