<svg xmlns="http://www.w3.org/2000/svg" xmlns:inkscape="http://www.inkscape.org/namespaces/inkscape" xmlns:sodipodi="http://sodipodi.sourceforge.net/DTD/sodipodi-0.dtd" width="50.800274mm" height="128.5mm" viewBox="0 0 192.00103 485.6693" version="1.1" id="svg535" sodipodi:docname="Clap_info.svg" inkscape:version="1.4 (e7c3feb1, 2024-10-09)">
  <defs id="defs539" />
  <sodipodi:namedview id="namedview537" pagecolor="#ffffff" bordercolor="#000000" borderopacity="0.25" inkscape:showpageshadow="2" inkscape:pageopacity="0.0" inkscape:pagecheckerboard="0" inkscape:deskcolor="#d1d1d1" showgrid="false" inkscape:zoom="5.943448" inkscape:cx="54.09318" inkscape:cy="354.33977" inkscape:window-width="1392" inkscape:window-height="1027" inkscape:window-x="2242" inkscape:window-y="25" inkscape:window-maximized="0" inkscape:current-layer="components" inkscape:document-units="mm" showguides="false" />
  <g id="faceplate" transform="scale(1.3333405)">
    <g id="g303">
      <rect x="0.13" y="0.13" width="143.75" height="364" style="fill:#ededed" id="rect299" />
      <path d="M 143.75,0.25 V 364 H 0.25 V 0.25 h 143.5 M 144,0 H 0 v 364.25 h 144 z" style="fill:#9d9d9e" id="path301" />
    </g>
    <path d="M 12.48,291.71 V 229.7 c 0,-7.82 6.4,-14.22 14.22,-14.22 h 90.62 c 7.82,0 14.22,6.4 14.22,14.22 v 62.01 -0.93 45.22 c 0,3.11 -2.54,5.65 -5.65,5.65 H 18.13 c -3.11,0 -5.65,-2.54 -5.65,-5.65 v -45.22" style="fill:#d1d3d4;stroke:#d1d3d4;stroke-miterlimit:10" id="path305" />
    <path d="m 125.99,45.65 h 2.26 c -0.15,-3.28 -1.01,-6.37 -2.44,-9.12 l -1.95,1.13 c 1.24,2.42 1.99,5.13 2.14,8 z" id="path307" />
    <path d="m 125.99,47.65 c -0.14,2.87 -0.89,5.57 -2.14,8 l 1.95,1.13 c 1.43,-2.75 2.3,-5.84 2.44,-9.12 h -2.26 z" id="path309" />
    <g id="g331">
      <path d="m 46.72,29.07 1.13,-1.95 c -2.75,-1.43 -5.84,-2.3 -9.12,-2.44 v 2.26 c 2.87,0.14 5.57,0.89 7.99,2.14 z" id="path311" />
      <path d="m 54.31,35.93 1.95,-1.13 c -1.72,-2.68 -4,-4.96 -6.68,-6.68 l -1.13,1.95 c 2.34,1.52 4.33,3.51 5.85,5.85 z" id="path313" />
      <path d="m 27,30.07 -1.13,-1.95 c -2.68,1.72 -4.96,4 -6.68,6.68 l 1.95,1.13 c 1.52,-2.34 3.51,-4.33 5.85,-5.85 z" id="path315" />
      <path d="m 57.45,45.65 h 2.26 C 59.56,42.37 58.7,39.28 57.27,36.53 l -1.95,1.13 c 1.24,2.42 1.99,5.13 2.14,8 z" id="path317" />
      <path d="m 36.73,26.94 v -2.26 c -3.28,0.15 -6.37,1.01 -9.12,2.44 l 1.13,1.95 c 2.42,-1.24 5.13,-1.99 8,-2.14 z" id="path319" />
      <path d="m 21.15,57.38 -1.95,1.13 c 1.72,2.68 4,4.96 6.68,6.68 l 1.13,-1.95 c -2.34,-1.52 -4.33,-3.51 -5.85,-5.85 z" id="path321" />
      <path d="m 48.46,63.23 1.13,1.95 c 2.68,-1.72 4.96,-4 6.68,-6.68 l -1.95,-1.13 c -1.52,2.34 -3.51,4.33 -5.85,5.85 z" id="path323" />
      <path d="m 57.45,47.65 c -0.14,2.87 -0.89,5.57 -2.14,8 l 1.95,1.13 c 1.43,-2.75 2.3,-5.84 2.44,-9.12 h -2.26 z" id="path325" />
      <path d="m 18.01,47.65 h -2.26 c 0.15,3.28 1.01,6.37 2.44,9.12 l 1.95,-1.13 C 18.9,53.22 18.15,50.51 18,47.64 Z" id="path327" />
      <path d="M 20.15,37.66 18.2,36.53 c -1.43,2.75 -2.3,5.84 -2.44,9.12 h 2.26 c 0.14,-2.87 0.89,-5.57 2.14,-8 z" id="path329" />
    </g>
    <path d="m 115.27,29.07 1.13,-1.95 c -2.75,-1.43 -5.84,-2.3 -9.12,-2.44 v 2.26 c 2.87,0.14 5.57,0.89 7.99,2.14 z" id="path333" />
    <path d="m 122.85,35.93 1.95,-1.13 c -1.72,-2.68 -4,-4.96 -6.68,-6.68 l -1.13,1.95 c 2.34,1.52 4.33,3.51 5.85,5.85 z" id="path335" />
    <path d="m 95.54,30.07 -1.13,-1.95 c -2.68,1.72 -4.96,4 -6.68,6.68 l 1.95,1.13 c 1.52,-2.34 3.51,-4.33 5.85,-5.85 z" id="path337" />
    <path d="m 105.27,26.94 v -2.26 c -3.28,0.15 -6.37,1.01 -9.12,2.44 l 1.13,1.95 c 2.42,-1.24 5.13,-1.99 8,-2.14 z" id="path339" />
    <path d="m 89.69,57.38 -1.95,1.13 c 1.72,2.68 4,4.96 6.68,6.68 l 1.13,-1.95 C 93.21,61.72 91.22,59.73 89.7,57.39 Z" id="path341" />
    <path d="m 117,63.23 1.13,1.95 c 2.68,-1.72 4.96,-4 6.68,-6.68 l -1.95,-1.13 c -1.52,2.34 -3.51,4.33 -5.85,5.85 z" id="path343" />
    <path d="m 86.55,47.65 h -2.26 c 0.15,3.28 1.01,6.37 2.44,9.12 l 1.95,-1.13 c -1.24,-2.42 -1.99,-5.13 -2.14,-8 z" id="path345" />
    <path d="m 88.69,37.66 -1.95,-1.13 c -1.43,2.75 -2.3,5.84 -2.44,9.12 h 2.26 c 0.14,-2.87 0.89,-5.57 2.14,-8 z" id="path347" />
    <g id="g369">
      <path d="m 46.72,87.01 1.13,-1.95 c -2.75,-1.43 -5.84,-2.3 -9.12,-2.44 v 2.26 c 2.87,0.14 5.57,0.89 7.99,2.14 z" id="path349" />
      <path d="m 54.31,93.86 1.95,-1.13 c -1.72,-2.68 -4,-4.96 -6.68,-6.68 L 48.45,88 c 2.34,1.52 4.33,3.51 5.85,5.85 z" id="path351" />
      <path d="m 27,88.01 -1.13,-1.95 c -2.68,1.72 -4.96,4 -6.68,6.68 l 1.95,1.13 c 1.52,-2.34 3.51,-4.33 5.85,-5.85 z" id="path353" />
      <path d="m 57.45,103.59 h 2.26 c -0.15,-3.28 -1.01,-6.37 -2.44,-9.12 l -1.95,1.13 c 1.24,2.42 1.99,5.13 2.14,8 z" id="path355" />
      <path d="m 36.73,84.88 v -2.26 c -3.28,0.15 -6.37,1.01 -9.12,2.44 l 1.13,1.95 c 2.42,-1.24 5.13,-1.99 8,-2.14 z" id="path357" />
      <path d="m 21.15,115.32 -1.95,1.13 c 1.72,2.68 4,4.96 6.68,6.68 l 1.13,-1.95 c -2.34,-1.52 -4.33,-3.51 -5.85,-5.85 z" id="path359" />
      <path d="m 48.46,121.17 1.13,1.95 c 2.68,-1.72 4.96,-4 6.68,-6.68 l -1.95,-1.13 c -1.52,2.34 -3.51,4.33 -5.85,5.85 z" id="path361" />
      <path d="m 57.45,105.59 c -0.14,2.87 -0.89,5.57 -2.14,8 l 1.95,1.13 c 1.43,-2.75 2.3,-5.84 2.44,-9.12 h -2.26 z" id="path363" />
      <path d="m 18.01,105.59 h -2.26 c 0.15,3.28 1.01,6.37 2.44,9.12 l 1.95,-1.13 c -1.24,-2.42 -1.99,-5.13 -2.14,-8 z" id="path365" />
      <path d="M 20.15,95.6 18.2,94.47 c -1.43,2.75 -2.3,5.84 -2.44,9.12 h 2.26 c 0.14,-2.87 0.89,-5.57 2.14,-8 z" id="path367" />
    </g>
    <path d="m 115.27,87.01 1.13,-1.95 c -2.75,-1.43 -5.84,-2.3 -9.12,-2.44 v 2.26 c 2.87,0.14 5.57,0.89 7.99,2.14 z" id="path371" />
    <path d="m 122.85,93.86 1.95,-1.13 c -1.72,-2.68 -4,-4.96 -6.68,-6.68 L 116.99,88 c 2.34,1.52 4.33,3.51 5.85,5.85 z" id="path373" />
    <path d="m 95.54,88.01 -1.13,-1.95 c -2.68,1.72 -4.96,4 -6.68,6.68 l 1.95,1.13 c 1.52,-2.34 3.51,-4.33 5.85,-5.85 z" id="path375" />
    <path d="m 125.99,103.59 h 2.26 c -0.15,-3.28 -1.01,-6.37 -2.44,-9.12 l -1.95,1.13 c 1.24,2.42 1.99,5.13 2.14,8 z" id="path377" />
    <path d="m 105.27,84.88 v -2.26 c -3.28,0.15 -6.37,1.01 -9.12,2.44 l 1.13,1.95 c 2.42,-1.24 5.13,-1.99 8,-2.14 z" id="path379" />
    <path d="m 89.69,115.32 -1.95,1.13 c 1.72,2.68 4,4.96 6.68,6.68 l 1.13,-1.95 c -2.34,-1.52 -4.33,-3.51 -5.85,-5.85 z" id="path381" />
    <path d="m 117,121.17 1.13,1.95 c 2.68,-1.72 4.96,-4 6.68,-6.68 l -1.95,-1.13 c -1.52,2.34 -3.51,4.33 -5.85,5.85 z" id="path383" />
    <path d="m 125.99,105.59 c -0.14,2.87 -0.89,5.57 -2.14,8 l 1.95,1.13 c 1.43,-2.75 2.3,-5.84 2.44,-9.12 h -2.26 z" id="path385" />
    <path d="m 86.55,105.59 h -2.26 c 0.15,3.28 1.01,6.37 2.44,9.12 l 1.95,-1.13 c -1.24,-2.42 -1.99,-5.13 -2.14,-8 z" id="path387" />
    <path d="m 88.69,95.6 -1.95,-1.13 c -1.43,2.75 -2.3,5.84 -2.44,9.12 h 2.26 c 0.14,-2.87 0.89,-5.57 2.14,-8 z" id="path389" />
    <g id="g411">
      <path d="m 46.72,145.47 1.13,-1.95 c -2.75,-1.43 -5.84,-2.3 -9.12,-2.44 v 2.26 c 2.87,0.14 5.57,0.89 7.99,2.14 z" id="path391" />
      <path d="m 54.31,152.32 1.95,-1.13 c -1.72,-2.68 -4,-4.96 -6.68,-6.68 l -1.13,1.95 c 2.34,1.52 4.33,3.51 5.85,5.85 z" id="path393" />
      <path d="m 27,146.47 -1.13,-1.95 c -2.68,1.72 -4.96,4 -6.68,6.68 l 1.95,1.13 c 1.52,-2.34 3.51,-4.33 5.85,-5.85 z" id="path395" />
      <path d="m 57.45,162.05 h 2.26 c -0.15,-3.28 -1.01,-6.37 -2.44,-9.12 l -1.95,1.13 c 1.24,2.42 1.99,5.13 2.14,8 z" id="path397" />
      <path d="m 36.73,143.33 v -2.26 c -3.28,0.15 -6.37,1.01 -9.12,2.44 l 1.13,1.95 c 2.42,-1.24 5.13,-1.99 8,-2.14 z" id="path399" />
      <path d="m 21.15,173.78 -1.95,1.13 c 1.72,2.68 4,4.96 6.68,6.68 l 1.13,-1.95 c -2.34,-1.52 -4.33,-3.51 -5.85,-5.85 z" id="path401" />
      <path d="m 48.46,179.63 1.13,1.95 c 2.68,-1.72 4.96,-4 6.68,-6.68 l -1.95,-1.13 c -1.52,2.34 -3.51,4.33 -5.85,5.85 z" id="path403" />
      <path d="m 57.45,164.05 c -0.14,2.87 -0.89,5.57 -2.14,8 l 1.95,1.13 c 1.43,-2.75 2.3,-5.84 2.44,-9.12 h -2.26 z" id="path405" />
      <path d="m 18.01,164.05 h -2.26 c 0.15,3.28 1.01,6.37 2.44,9.12 l 1.95,-1.13 c -1.24,-2.42 -1.99,-5.13 -2.14,-8 z" id="path407" />
      <path d="m 20.15,154.06 -1.95,-1.13 c -1.43,2.75 -2.3,5.84 -2.44,9.12 h 2.26 c 0.14,-2.87 0.89,-5.57 2.14,-8 z" id="path409" />
    </g>
    <g id="g433">
      <path d="m 115.27,145.47 1.13,-1.95 c -2.75,-1.43 -5.84,-2.3 -9.12,-2.44 v 2.26 c 2.87,0.14 5.57,0.89 7.99,2.14 z" id="path413" />
      <path d="m 122.85,152.32 1.95,-1.13 c -1.72,-2.68 -4,-4.96 -6.68,-6.68 l -1.13,1.95 c 2.34,1.52 4.33,3.51 5.85,5.85 z" id="path415" />
      <path d="m 95.54,146.47 -1.13,-1.95 c -2.68,1.72 -4.96,4 -6.68,6.68 l 1.95,1.13 c 1.52,-2.34 3.51,-4.33 5.85,-5.85 z" id="path417" />
      <path d="m 125.99,162.05 h 2.26 c -0.15,-3.28 -1.01,-6.37 -2.44,-9.12 l -1.95,1.13 c 1.24,2.42 1.99,5.13 2.14,8 z" id="path419" />
      <path d="m 105.27,143.33 v -2.26 c -3.28,0.15 -6.37,1.01 -9.12,2.44 l 1.13,1.95 c 2.42,-1.24 5.13,-1.99 8,-2.14 z" id="path421" />
      <path d="m 89.69,173.78 -1.95,1.13 c 1.72,2.68 4,4.96 6.68,6.68 l 1.13,-1.95 c -2.34,-1.52 -4.33,-3.51 -5.85,-5.85 z" id="path423" />
      <path d="m 117,179.63 1.13,1.95 c 2.68,-1.72 4.96,-4 6.68,-6.68 l -1.95,-1.13 c -1.52,2.34 -3.51,4.33 -5.85,5.85 z" id="path425" />
      <path d="m 125.99,164.05 c -0.14,2.87 -0.89,5.57 -2.14,8 l 1.95,1.13 c 1.43,-2.75 2.3,-5.84 2.44,-9.12 h -2.26 z" id="path427" />
      <path d="m 86.55,164.05 h -2.26 c 0.15,3.28 1.01,6.37 2.44,9.12 l 1.95,-1.13 c -1.24,-2.42 -1.99,-5.13 -2.14,-8 z" id="path429" />
      <path d="m 88.69,154.06 -1.95,-1.13 c -1.43,2.75 -2.3,5.84 -2.44,9.12 h 2.26 c 0.14,-2.87 0.89,-5.57 2.14,-8 z" id="path431" />
    </g>
    <path d="m 132.06,318.53 v -21.52 h -21.54 c -7.49,0 -13.57,6.52 -13.57,14.57 v 30.53 h 15.07 c 0,0 0,0 0,0 h 14.39 c 3.12,0 5.64,-2.36 5.64,-5.25 v -18.39 0.08 z" id="path435" />
    <path d="M 5.9521484,0 H 0.84960938 V -6.7675781 H 5.8691406 v 1.3574219 H 2.890625 v 1.2402343 h 2.8417969 v 1.3623047 H 2.890625 v 1.4453125 h 3.0615234 z m 5.9867186,0 h -1.757812 v -2.6806641 q 0,-0.4101562 -0.136719,-0.7128906 -0.1318361,-0.3076172 -0.5859377,-0.3076172 -0.2148437,0 -0.3808593,0.083008 -0.1611328,0.078125 -0.2929688,0.2050782 -0.1269531,0.1269531 -0.2148437,0.2441406 -0.087891,0.1171875 -0.1806641,0.2490234 V 0 H 6.6312499 v -4.9707031 h 1.7578125 v 0.7128906 q 0.4150391,-0.4443359 0.8300781,-0.6201172 0.4199219,-0.180664 0.9326175,-0.180664 1.787109,0 1.787109,2.1386718 z m 5.752344,-2.0605469 h -3.500977 q 0.102539,0.4541016 0.50293,0.7421875 0.40039,0.288086 0.908203,0.288086 0.888672,0 1.962891,-0.4980469 v 1.08886717 q -0.385743,0.20019532 -0.9375,0.36621094 -0.546875,0.16113281 -1.396485,0.16113281 -0.917969,0 -1.5625,-0.34179687 -0.644531,-0.34179687 -0.966797,-0.92773435 -0.317382,-0.5859375 -0.317382,-1.328125 0,-0.7324219 0.317382,-1.3085938 0.322266,-0.5810547 0.966797,-0.9082031 0.644531,-0.3320312 1.5625,-0.3320312 0.605469,0 1.166992,0.2636718 0.566407,0.2587891 0.927735,0.8544922 0.366211,0.5908203 0.366211,1.5283203 z M 16.04082,-2.9296875 q 0,-0.4785156 -0.239258,-0.7617188 -0.234375,-0.2880859 -0.678711,-0.2880859 -0.439453,0 -0.71289,0.2929688 -0.268555,0.2880859 -0.268555,0.7568359 z m 6.484765,-1.7724609 -0.649414,1.7626953 q -0.400391,-0.3808594 -0.810547,-0.3808594 -0.371094,0 -0.644531,0.2539062 -0.268555,0.2490235 -0.517578,0.9277344 V 0 h -1.757813 v -4.9707031 h 1.757813 v 1.2011718 q 0.166015,-0.4443359 0.585937,-0.8642578 0.419922,-0.4248046 0.986328,-0.4248046 0.297852,0 0.517579,0.087891 0.224609,0.087891 0.532226,0.2685543 z m 4.873438,0.7910156 h -0.869141 q 0.458985,0.4003906 0.458985,0.9814453 0,0.3076172 -0.131836,0.5908203 -0.126953,0.2832031 -0.38086,0.5029297 -0.249023,0.2197266 -0.620117,0.3613281 -0.366211,0.1367188 -0.839843,0.1660157 -0.610352,0.024414 -0.610352,0.32714839 0,0.1171875 0.07813,0.17089843 0.07813,0.0537109 0.244141,0.0830078 0.170898,0.0244141 0.571289,0.0585938 0.454101,0.0390625 0.844726,0.13671875 0.390625,0.0976563 0.727539,0.41015625 0.336914,0.3125 0.336914,0.89355468 0,0.4638672 -0.253906,0.8203125 -0.249023,0.3564453 -0.810547,0.5566406 -0.561523,0.2001953 -1.484375,0.2001953 -1.328125,0 -1.953125,-0.3564453 -0.620117,-0.3564453 -0.620117,-0.9521484 0,-0.16113282 0.07813,-0.37109376 0.08301,-0.20996093 0.341797,-0.40527343 Q 22.770117,0.06835937 23.268164,0 23.092382,-0.06347656 22.965429,-0.24414063 22.838476,-0.4296875 22.838476,-0.62988281 q 0,-0.25878907 0.175781,-0.51269529 0.180664,-0.2539063 0.581055,-0.3271485 -0.556641,-0.1464843 -0.961914,-0.5517578 -0.405273,-0.4052734 -0.405273,-1.0498047 0,-0.4882812 0.185546,-0.8544922 0.19043,-0.3662109 0.522461,-0.5957031 0.332032,-0.2294922 0.771485,-0.336914 0.439453,-0.1123047 0.961914,-0.1123047 h 2.729492 z m -1.943359,0.8398437 q 0,-0.3759765 -0.258789,-0.6005859 -0.253907,-0.2294922 -0.571289,-0.2294922 -0.405274,0 -0.639649,0.2734375 -0.229492,0.2734375 -0.229492,0.5761719 0,0.2099609 0.09766,0.390625 0.102539,0.180664 0.283203,0.2929687 0.185547,0.1074219 0.439453,0.1074219 0.38086,0 0.629883,-0.2392578 0.249024,-0.2392578 0.249024,-0.5712891 z m 0.351562,3.99902348 q 0,-0.32714844 -0.351562,-0.42480469 -0.34668,-0.0927734 -0.717774,-0.0927734 -0.610351,0 -0.883789,0.12695312 -0.268555,0.13183594 -0.268555,0.41503907 0,0.55664062 1.123047,0.55664062 0.50293,0 0.800782,-0.1464844 0.297851,-0.1416016 0.297851,-0.43457032 z M 33.097656,-4.9707031 29.71875,2.2607422 H 27.941406 L 29.308594,-0.64941406 27.34082,-4.9707031 h 1.889649 L 30.241211,-2.5 31.388672,-4.9707031 Z" id="text439" style="font-weight:700;font-size:10px;font-family:GillSans-Bold, 'Gill Sans';letter-spacing:-0.04em" transform="matrix(0.88,0,0,1,23.13,75.97)" aria-label="Energy" />
    <path d="m 5.5810547,-1.9677734 q 0,0.6347656 -0.3271485,1.09863277 Q 4.9316406,-0.40527344 4.3505859,-0.15625 3.7695313,0.08789062 3.0175781,0.08789062 2.8076172,0.08789062 2.5,0.05859375 2.1972656,0.03417969 1.6894531,-0.08789062 1.1865234,-0.20996094 0.63964844,-0.44921875 V -2.109375 q 0.51269526,0.3173828 1.00585936,0.5273438 0.4980469,0.2099609 1.0644531,0.2099609 0.522461,0 0.6738282,-0.1708984 0.15625,-0.1757813 0.15625,-0.3271485 0,-0.2734375 -0.2636719,-0.4589844 Q 3.0126953,-2.5195313 2.5097656,-2.7197266 1.953125,-2.9541016 1.5332031,-3.2275391 1.1132812,-3.5058594 0.84472656,-3.9208984 0.58105469,-4.3359375 0.58105469,-4.9023437 q 0,-0.546875 0.26855469,-0.9863282 0.26855472,-0.4443359 0.82031252,-0.7080078 0.5517578,-0.2636719 1.3476562,-0.2636719 0.5664063,0 1.0449219,0.1123047 0.4833984,0.1074219 0.7958984,0.2441407 0.3125,0.1367187 0.4296875,0.2148437 v 1.5869141 Q 4.8730469,-5 4.3603516,-5.234375 3.8525391,-5.46875 3.2714844,-5.46875 q -0.3808594,0 -0.5517578,0.1464844 -0.1708985,0.1464844 -0.1708985,0.3613281 0,0.2001953 0.1708985,0.3466797 0.1708984,0.1464844 0.6103515,0.3564453 0.78125,0.3662109 1.25,0.6591797 0.46875,0.2929687 0.7324219,0.6787109 0.2685547,0.3808594 0.2685547,0.9521485 z m 6.1576173,-0.5517579 q 0,0.4980469 -0.141602,0.9619141 -0.141601,0.4638672 -0.43457,0.83984376 -0.288086,0.37109375 -0.74707,0.59082032 -0.454102,0.21484374 -1.0595707,0.21484374 -0.4882813,0 -0.7714844,-0.10253906 Q 8.3060546,-0.1171875 8.0277343,-0.28808594 V 2.2607422 H 6.2699218 v -7.2314453 h 1.7578125 v 0.4492187 q 0.2636719,-0.2294922 0.5810547,-0.3808593 0.3222656,-0.15625 0.8691406,-0.15625 0.5419924,0 1.0644534,0.2685546 0.522461,0.2685547 0.859375,0.8398438 0.336914,0.5664062 0.336914,1.430664 z m -1.8505862,0.039063 q 0,-0.4492187 -0.1416015,-0.727539 -0.1416016,-0.2832031 -0.366211,-0.4052735 -0.2246093,-0.1269531 -0.4638671,-0.1269531 -0.3125,0 -0.5126954,0.1025391 -0.2001953,0.097656 -0.3759765,0.2490234 v 1.8994141 q 0.092773,0.048828 0.1953125,0.1123047 0.1074219,0.058594 0.2099609,0.102539 0.1074219,0.043945 0.2246094,0.073242 0.1220703,0.029297 0.2587891,0.029297 0.415039,0 0.6933593,-0.3515625 Q 9.8880858,-1.875 9.8880858,-2.4804683 Z m 6.7337892,-2.2216796 -0.649414,1.7626953 Q 15.57207,-3.320312 15.161914,-3.320312 q -0.371094,0 -0.644531,0.2539062 -0.268555,0.2490235 -0.517579,0.9277344 V 0 h -1.757812 v -4.9707031 h 1.757812 v 1.2011718 q 0.166016,-0.4443359 0.585938,-0.8642578 0.419922,-0.4248046 0.986328,-0.4248046 0.297852,0 0.517578,0.087891 0.22461,0.087891 0.532227,0.2685548 z m 4.829491,2.6416015 H 17.95039 q 0.102539,0.4541016 0.50293,0.7421875 0.40039,0.288086 0.908203,0.288086 0.888672,0 1.96289,-0.4980469 v 1.08886717 q -0.385742,0.20019532 -0.9375,0.36621094 -0.546875,0.16113281 -1.396484,0.16113281 -0.917969,0 -1.5625,-0.34179687 -0.644531,-0.34179687 -0.966797,-0.92773435 -0.317383,-0.5859375 -0.317383,-1.328125 0,-0.7324219 0.317383,-1.3085938 0.322266,-0.5810547 0.966797,-0.9082031 0.644531,-0.3320312 1.5625,-0.3320312 0.605469,0 1.166992,0.2636718 0.566406,0.2587891 0.927734,0.8544922 0.366211,0.5908203 0.366211,1.5283203 z m -1.65039,-0.8691406 q 0,-0.4785156 -0.239258,-0.7617188 -0.234375,-0.2880859 -0.678711,-0.2880859 -0.439453,0 -0.712891,0.2929688 -0.268554,0.2880859 -0.268554,0.7568359 z m 7.270899,2.68066406 q -0.385743,0.15136719 -0.712891,0.24414063 -0.327148,0.09277343 -0.786133,0.09277343 -0.43457,0 -0.605469,-0.15136718 -0.170898,-0.15625 -0.24414,-0.37597657 -0.283203,0.22949219 -0.629883,0.38085938 -0.34668,0.14648437 -0.908203,0.14648437 -0.541992,0 -0.878906,-0.18554687 -0.332032,-0.19042969 -0.46875,-0.47363281 -0.131836,-0.28808594 -0.131836,-0.59082034 0,-0.4589843 0.229492,-0.7568359 0.234375,-0.3027344 0.625,-0.4931641 0.390625,-0.1904297 1.035156,-0.3955078 0.366211,-0.1171875 0.551758,-0.1757812 0.19043,-0.063477 0.283203,-0.097656 0.09277,-0.03418 0.195313,-0.087891 0,-0.3613281 -0.146485,-0.5664063 -0.146484,-0.2050781 -0.634765,-0.2050781 -0.576172,0 -1.069336,0.2539063 -0.493164,0.2539062 -0.903321,0.6542968 v -1.3476562 q 0.327149,-0.234375 0.708008,-0.3808594 0.380859,-0.1513672 0.795899,-0.2246094 0.415039,-0.073242 0.839843,-0.073242 1.079102,0 1.621094,0.4199218 0.546875,0.4150391 0.546875,1.147461 v 1.9189453 q 0,0.2734375 0.04883,0.4101562 0.05371,0.131836 0.19043,0.131836 0.166015,0 0.449219,-0.1416016 z M 24.625586,-1.2011719 v -1.1767578 q -0.625,0.2539063 -0.913086,0.4589844 -0.288086,0.2001953 -0.288086,0.546875 0,0.2490234 0.141601,0.38085936 0.146485,0.13183594 0.336914,0.13183594 0.180664,0 0.356446,-0.0976563 0.180664,-0.1025391 0.366211,-0.2441406 z M 32.482422,0 h -1.762695 v -0.44921875 q -0.278321,0.234375 -0.590821,0.38574219 -0.307617,0.15136718 -0.854492,0.15136718 -0.541992,0 -1.064453,-0.26855468 -0.522461,-0.26855469 -0.859375,-0.83496094 -0.336914,-0.5712891 -0.336914,-1.4355469 0,-0.6787109 0.253906,-1.2695312 0.253906,-0.5957031 0.795899,-0.9667969 0.541992,-0.3710937 1.328125,-0.3710937 0.488281,0 0.791015,0.1074218 0.302735,0.1074219 0.53711,0.2734375 v -2.0898437 h 1.762695 z m -1.762695,-1.5820312 v -1.8994141 q -0.307618,-0.1708985 -0.483399,-0.2441406 -0.170898,-0.073242 -0.405273,-0.073242 -0.415039,0 -0.69336,0.3515625 -0.273437,0.3515625 -0.273437,0.9570312 0,0.6591797 0.288086,0.9619141 0.292968,0.2978516 0.678711,0.2978516 0.317382,0 0.512695,-0.097656 0.195312,-0.1025391 0.375977,-0.2539067 z" id="text443" style="font-weight:700;font-size:10px;font-family:GillSans-Bold, 'Gill Sans';letter-spacing:-0.04em" transform="matrix(0.88,0,0,1,91.55,75.97)" aria-label="Spread" />
    <path d="M 6.9091797,-0.5078125 Q 6.4892578,-0.28808594 6.0498047,-0.15625 5.6103516,-0.02441406 5.1611328,0.02929688 4.7167969,0.08789062 4.2382812,0.08789062 q -0.883789,0 -1.586914,-0.24414062 Q 1.953125,-0.40039063 1.4355469,-0.87402344 0.92285156,-1.3525391 0.6640625,-1.9873047 0.41015625,-2.6269531 0.41015625,-3.3886719 q 0,-0.8740234 0.30273437,-1.5283203 0.30273438,-0.6591797 0.84472658,-1.09375 0.546875,-0.4345703 1.2402344,-0.6396484 0.6982422,-0.209961 1.4697265,-0.209961 1.1523438,0 2.6123047,0.5126954 v 1.796875 q -0.5029297,-0.3125 -0.9960937,-0.5175782 -0.4882813,-0.2099609 -1.1523438,-0.2099609 -0.5908203,0 -1.1035156,0.234375 -0.5126953,0.234375 -0.8251953,0.6689453 -0.3125,0.4345703 -0.3125,1.015625 0,0.5126953 0.2734375,0.9423828 0.2734375,0.4248047 0.7568359,0.678711 0.4882813,0.2490234 1.0986328,0.2490234 0.4931641,0 0.9326172,-0.1171875 Q 5.9912109,-1.7285156 6.2890625,-1.875 6.5917969,-2.0214844 6.9091797,-2.2216797 Z m 6.1722653,-1.9824219 q 0,0.7421875 -0.322265,1.3232422 -0.322266,0.5810547 -0.966797,0.91796876 -0.639649,0.33691406 -1.5625,0.33691406 -0.9228518,0 -1.5673831,-0.33691406 Q 8.0228515,-0.5859375 7.7005858,-1.1669922 7.383203,-1.7480469 7.383203,-2.4902344 q 0,-0.5615234 0.1757813,-1.0205078 0.180664,-0.4589844 0.5419922,-0.8105469 0.3662109,-0.3564453 0.8984375,-0.546875 0.5322265,-0.1904296 1.230469,-0.1904296 0.703125,0 1.240234,0.1953125 0.541992,0.1904296 0.893555,0.5371093 0.356445,0.3466797 0.537109,0.8105469 0.180664,0.4638672 0.180664,1.0253906 z m -1.850586,0 q 0,-0.5908203 -0.258789,-0.9228515 Q 10.718164,-3.75 10.229883,-3.75 q -0.4833987,0 -0.7421878,0.3369141 -0.2539062,0.3320312 -0.2539062,0.9228515 0,0.5859375 0.258789,0.9277344 0.2587891,0.3417969 0.737305,0.3417969 0.488281,0 0.742187,-0.3369141 0.258789,-0.3417969 0.258789,-0.9326172 z M 15.445117,0 h -1.762695 v -6.7675781 h 1.762695 z m 6.157618,-2.4902344 q 0,0.7421875 -0.322266,1.3232422 -0.322266,0.5810547 -0.966797,0.91796876 -0.639648,0.33691406 -1.5625,0.33691406 -0.922851,0 -1.567383,-0.33691406 -0.639648,-0.33691406 -0.961914,-0.91796876 -0.317383,-0.5810547 -0.317383,-1.3232422 0,-0.5615234 0.175782,-1.0205078 0.180664,-0.4589844 0.541992,-0.8105469 0.366211,-0.3564453 0.898437,-0.546875 0.532227,-0.1904296 1.230469,-0.1904296 0.703125,0 1.240234,0.1953125 0.541993,0.1904296 0.893555,0.5371093 0.356445,0.3466797 0.53711,0.8105469 0.180664,0.4638672 0.180664,1.0253906 z m -1.850586,0 q 0,-0.5908203 -0.258789,-0.9228515 Q 19.239453,-3.75 18.751172,-3.75 q -0.483398,0 -0.742187,0.3369141 -0.253907,0.3320312 -0.253907,0.9228515 0,0.5859375 0.258789,0.9277344 0.258789,0.3417969 0.737305,0.3417969 0.488281,0 0.742188,-0.3369141 0.258789,-0.3417969 0.258789,-0.9326172 z m 6.733788,-2.211914 -0.649414,1.7626953 q -0.400391,-0.3808594 -0.810547,-0.3808594 -0.371094,0 -0.644531,0.2539062 -0.268555,0.2490235 -0.517578,0.9277344 V 0 h -1.757813 v -4.9707031 h 1.757813 v 1.2011718 q 0.166015,-0.4443359 0.585937,-0.8642578 0.419922,-0.4248046 0.986328,-0.4248046 0.297852,0 0.517579,0.087891 0.224609,0.087891 0.532226,0.2685543 z" id="text447" style="font-weight:700;font-size:10px;font-family:GillSans-Bold, 'Gill Sans';letter-spacing:-0.04em" transform="matrix(0.88,0,0,1,25.99,134.07)" aria-label="Color" />
    <path d="M 7.4707031,-6.7675781 4.4189453,0.08789062 H 3.0712891 L 0.078125,-6.7675781 h 2.1240234 l 1.5478516,3.90625 1.5917969,-3.90625 z m 4.7660159,4.7070312 H 8.7357421 q 0.1025391,0.4541016 0.5029297,0.7421875 0.4003906,0.288086 0.9082032,0.288086 0.888672,0 1.962891,-0.4980469 v 1.08886717 q -0.385743,0.20019532 -0.9375,0.36621094 -0.546875,0.16113281 -1.3964848,0.16113281 -0.9179688,0 -1.5625,-0.34179687 -0.6445313,-0.34179687 -0.9667969,-0.92773435 -0.3173828,-0.5859375 -0.3173828,-1.328125 0,-0.7324219 0.3173828,-1.3085938 0.3222656,-0.5810547 0.9667969,-0.9082031 0.6445312,-0.3320312 1.5625,-0.3320312 0.6054688,0 1.1669918,0.2636718 0.566407,0.2587891 0.927735,0.8544922 0.366211,0.5908203 0.366211,1.5283203 z m -1.650391,-0.8691406 q 0,-0.4785156 -0.239258,-0.7617188 -0.234375,-0.2880859 -0.6787107,-0.2880859 -0.4394531,0 -0.7128906,0.2929688 -0.2685547,0.2880859 -0.2685547,0.7568359 z m 6.484766,-1.7724609 -0.649415,1.7626953 q -0.40039,-0.3808594 -0.810546,-0.3808594 -0.371094,0 -0.644532,0.2539062 -0.268554,0.2490235 -0.517578,0.9277344 V 0 h -1.757812 v -4.9707031 h 1.757812 v 1.2011718 q 0.166016,-0.4443359 0.585938,-0.8642578 0.419922,-0.4248046 0.986328,-0.4248046 0.297851,0 0.517578,0.087891 0.224609,0.087891 0.532227,0.2685543 z m 5.620507,2.2509765 q 0,0.8642578 -0.336914,1.4355469 -0.336914,0.56640625 -0.859375,0.83496094 -0.522461,0.26855468 -1.064453,0.26855468 -0.390625,0 -0.678711,-0.08789062 -0.283203,-0.09277344 -0.444336,-0.1953125 -0.15625,-0.10742188 -0.327149,-0.25390625 V 0 h -1.757812 v -6.7675781 h 1.757812 v 2.0898437 q 0.195313,-0.1513672 0.53711,-0.2636718 0.341797,-0.1171875 0.791015,-0.1171875 0.600586,0 1.059571,0.2197265 0.458984,0.2148438 0.74707,0.5859375 0.292969,0.3710938 0.43457,0.8349609 0.141602,0.4589844 0.141602,0.9667969 z m -1.850586,-0.039063 q 0,-0.6396484 -0.288086,-0.9716797 -0.288086,-0.336914 -0.683594,-0.336914 -0.395508,0 -0.888672,0.3173828 v 1.8994141 q 0.371094,0.3515625 0.888672,0.3515625 0.327149,0 0.649414,-0.2636719 0.322266,-0.2685547 0.322266,-0.9960938 z m 12.178516,-0.7714844 q 0,1.0400391 -0.380859,1.6699219 Q 32.262695,-0.96191406 31.75,-0.57128906 31.022461,0 29.713867,0 h -3.652344 v -6.7675781 h 2.8125 q 0.634766,0 1.083985,0.068359 0.454101,0.063477 0.815429,0.1855468 0.361329,0.1171875 0.615235,0.2685547 0.253906,0.1464844 0.454101,0.3173828 0.34668,0.2832032 0.605469,0.6689453 0.263672,0.3857422 0.415039,0.8935547 0.15625,0.5078125 0.15625,1.1035155 z m -2.075195,-0.087891 q 0,-0.8251953 -0.317383,-1.2841797 -0.3125,-0.4638671 -0.756836,-0.6201171 -0.439453,-0.15625 -0.898437,-0.15625 h -0.869141 v 4.008789 h 0.869141 q 0.800781,0 1.386718,-0.3808594 0.585938,-0.3808593 0.585938,-1.5673828 z m 7.74453,1.2890625 h -3.500977 q 0.102539,0.4541016 0.50293,0.7421875 0.40039,0.288086 0.908203,0.288086 0.888672,0 1.962891,-0.4980469 v 1.08886717 q -0.385743,0.20019532 -0.9375,0.36621094 -0.546875,0.16113281 -1.396485,0.16113281 -0.917969,0 -1.5625,-0.34179687 -0.644531,-0.34179687 -0.966797,-0.92773435 -0.317383,-0.5859375 -0.317383,-1.328125 0,-0.7324219 0.317383,-1.3085938 0.322266,-0.5810547 0.966797,-0.9082031 0.644531,-0.3320312 1.5625,-0.3320312 0.605469,0 1.166992,0.2636718 0.566407,0.2587891 0.927735,0.8544922 0.366211,0.5908203 0.366211,1.5283203 z m -1.650391,-0.8691406 q 0,-0.4785156 -0.239258,-0.7617188 -0.234375,-0.2880859 -0.678711,-0.2880859 -0.439453,0 -0.71289,0.2929688 -0.268555,0.2880859 -0.268555,0.7568359 z m 6.372463,2.70019531 q -0.219726,0.0830078 -0.463867,0.15625 -0.244141,0.06835938 -0.551758,0.11230469 -0.302734,0.04882812 -0.664062,0.04882812 -0.81543,0 -1.381836,-0.27343749 Q 39.787891,-0.46386719 39.480274,-0.87890625 39.17754,-1.2988281 39.060352,-1.7333984 38.943165,-2.1679688 38.943165,-2.5 q 0,-0.3320313 0.117187,-0.7666016 0.122071,-0.4345703 0.419922,-0.8398437 0.297852,-0.4052734 0.859375,-0.6787109 0.566406,-0.2734375 1.391602,-0.2734375 0.551758,0 0.898437,0.078125 0.34668,0.078125 0.703125,0.2099609 v 1.3818359 q -0.859375,-0.2734375 -1.342773,-0.2734375 -0.46875,0 -0.834961,0.2832031 -0.361328,0.2832032 -0.361328,0.8789063 0,0.3955078 0.180664,0.6689453 0.180664,0.2685547 0.458984,0.3955078 0.278321,0.1269532 0.556641,0.1269532 0.263672,0 0.600586,-0.078125 0.336914,-0.078125 0.820312,-0.2246094 z m 5.610741,-0.0195313 q -0.385742,0.15136719 -0.712891,0.24414063 -0.327148,0.09277343 -0.786133,0.09277343 -0.43457,0 -0.605468,-0.15136718 -0.170899,-0.15625 -0.244141,-0.37597657 -0.283203,0.22949219 -0.629883,0.38085938 -0.346679,0.14648437 -0.908203,0.14648437 -0.541992,0 -0.878906,-0.18554687 -0.332031,-0.19042969 -0.46875,-0.47363281 -0.131836,-0.28808594 -0.131836,-0.59082029 0,-0.4589843 0.229492,-0.7568359 0.234375,-0.3027344 0.625,-0.4931641 0.390625,-0.1904298 1.035156,-0.3955078 0.366211,-0.1171875 0.551758,-0.1757812 0.19043,-0.063477 0.283203,-0.097656 0.09277,-0.03418 0.195313,-0.087891 0,-0.3613281 -0.146485,-0.5664063 -0.146484,-0.2050782 -0.634765,-0.2050782 -0.576172,0 -1.069336,0.2539064 -0.493164,0.2539061 -0.90332,0.6542968 v -1.3476562 q 0.327148,-0.234375 0.708007,-0.3808594 0.38086,-0.1513672 0.795899,-0.2246094 0.415039,-0.073242 0.839844,-0.073242 1.079101,0 1.621093,0.4199218 0.546875,0.4150391 0.546875,1.1474609 v 1.9189454 q 0,0.2734375 0.04883,0.4101562 0.05371,0.131836 0.19043,0.131836 0.166016,0 0.449219,-0.1416016 z M 46.57539,-1.2011719 v -1.1767578 q -0.625,0.2539063 -0.913086,0.4589844 -0.288086,0.2001953 -0.288086,0.546875 0,0.2490234 0.141602,0.38085936 0.146484,0.13183594 0.336914,0.13183594 0.180664,0 0.356445,-0.0976563 0.180664,-0.1025391 0.366211,-0.2441406 z m 7.925197,-3.7695312 -3.378906,7.2314453 H 49.344337 L 50.711525,-0.64941406 48.743752,-4.9707031 H 50.6334 L 51.644142,-2.5 52.791603,-4.9707031 Z" id="text451" style="font-weight:700;font-size:10px;font-family:GillSans-Bold, 'Gill Sans';letter-spacing:-0.04em" transform="matrix(0.88,0,0,1,82.04,134.07)" aria-label="Verb Decay" />
    <path d="M 7.4707031,-6.7675781 4.4189453,0.08789062 H 3.0712891 L 0.078125,-6.7675781 h 2.1240234 l 1.5478516,3.90625 1.5917969,-3.90625 z m 4.7660159,4.7070312 H 8.7357421 q 0.1025391,0.4541016 0.5029297,0.7421875 0.4003906,0.288086 0.9082032,0.288086 0.888672,0 1.962891,-0.4980469 v 1.08886717 q -0.385743,0.20019532 -0.9375,0.36621094 -0.546875,0.16113281 -1.3964848,0.16113281 -0.9179688,0 -1.5625,-0.34179687 -0.6445313,-0.34179687 -0.9667969,-0.92773435 -0.3173828,-0.5859375 -0.3173828,-1.328125 0,-0.7324219 0.3173828,-1.3085938 0.3222656,-0.5810547 0.9667969,-0.9082031 0.6445312,-0.3320312 1.5625,-0.3320312 0.6054688,0 1.1669918,0.2636718 0.566407,0.2587891 0.927735,0.8544922 0.366211,0.5908203 0.366211,1.5283203 z m -1.650391,-0.8691406 q 0,-0.4785156 -0.239258,-0.7617188 -0.234375,-0.2880859 -0.6787107,-0.2880859 -0.4394531,0 -0.7128906,0.2929688 -0.2685547,0.2880859 -0.2685547,0.7568359 z m 6.484766,-1.7724609 -0.649415,1.7626953 q -0.40039,-0.3808594 -0.810546,-0.3808594 -0.371094,0 -0.644532,0.2539062 -0.268554,0.2490235 -0.517578,0.9277344 V 0 h -1.757812 v -4.9707031 h 1.757812 v 1.2011718 q 0.166016,-0.4443359 0.585938,-0.8642578 0.419922,-0.4248046 0.986328,-0.4248046 0.297851,0 0.517578,0.087891 0.224609,0.087891 0.532227,0.2685543 z m 5.620507,2.2509765 q 0,0.8642578 -0.336914,1.4355469 -0.336914,0.56640625 -0.859375,0.83496094 -0.522461,0.26855468 -1.064453,0.26855468 -0.390625,0 -0.678711,-0.08789062 -0.283203,-0.09277344 -0.444336,-0.1953125 -0.15625,-0.10742188 -0.327149,-0.25390625 V 0 h -1.757812 v -6.7675781 h 1.757812 v 2.0898437 q 0.195313,-0.1513672 0.53711,-0.2636718 0.341797,-0.1171875 0.791015,-0.1171875 0.600586,0 1.059571,0.2197265 0.458984,0.2148438 0.74707,0.5859375 0.292969,0.3710938 0.43457,0.8349609 0.141602,0.4589844 0.141602,0.9667969 z m -1.850586,-0.039063 q 0,-0.6396484 -0.288086,-0.9716797 -0.288086,-0.336914 -0.683594,-0.336914 -0.395508,0 -0.888672,0.3173828 v 1.8994141 q 0.371094,0.3515625 0.888672,0.3515625 0.327149,0 0.649414,-0.2636719 0.322266,-0.2685547 0.322266,-0.9960938 z M 32.682617,-6.7675781 29.630859,0.08789062 H 28.283203 L 25.290039,-6.7675781 h 2.124023 l 1.547852,3.90625 1.591797,-3.90625 z m 5.156639,4.2773437 q 0,0.7421875 -0.322265,1.3232422 -0.322266,0.5810547 -0.966797,0.91796876 -0.639649,0.33691406 -1.5625,0.33691406 -0.922852,0 -1.567383,-0.33691406 -0.639648,-0.33691406 -0.961914,-0.91796876 -0.317383,-0.5810547 -0.317383,-1.3232422 0,-0.5615234 0.175781,-1.0205078 0.180664,-0.4589844 0.541993,-0.8105469 0.36621,-0.3564453 0.898437,-0.546875 0.532227,-0.1904296 1.230469,-0.1904296 0.703125,0 1.240234,0.1953125 0.541992,0.1904296 0.893555,0.5371093 0.356445,0.3466797 0.537109,0.8105469 0.180664,0.4638672 0.180664,1.0253906 z m -1.850586,0 q 0,-0.5908203 -0.258789,-0.9228515 Q 35.475975,-3.75 34.987694,-3.75 q -0.483399,0 -0.742188,0.3369141 -0.253906,0.3320312 -0.253906,0.9228515 0,0.5859375 0.258789,0.9277344 0.258789,0.3417969 0.737305,0.3417969 0.488281,0 0.742187,-0.3369141 0.258789,-0.3417969 0.258789,-0.9326172 z M 40.20293,0 h -1.762695 v -6.7675781 h 1.762695 z m 6.050194,0 h -1.762695 v -0.70800781 q -0.371094,0.40039062 -0.78125,0.60058594 -0.405274,0.19531249 -0.976563,0.19531249 -1.127929,0 -1.459961,-0.65429687 -0.332031,-0.65917965 -0.332031,-1.48437505 v -2.9199218 h 1.762696 v 2.6855468 q 0,0.4052735 0.131835,0.7128907 0.136719,0.3027344 0.585938,0.3027344 0.385742,0 0.610352,-0.2197266 0.224609,-0.2197266 0.458984,-0.5615235 v -2.9199218 h 1.762695 z m 9.580471,0 h -1.757812 v -2.6513672 q 0,-0.5273437 -0.175781,-0.7861328 -0.170899,-0.2636719 -0.546875,-0.2636719 -0.366211,0 -0.600586,0.2246094 -0.234375,0.2197266 -0.46875,0.5566406 V 0 h -1.757813 v -2.6513672 q 0,-0.5029297 -0.161133,-0.7763672 -0.161133,-0.2734375 -0.571289,-0.2734375 -0.195312,0 -0.361328,0.078125 -0.161133,0.078125 -0.263672,0.1757813 -0.102539,0.097656 -0.249023,0.2880859 -0.146485,0.1904297 -0.185547,0.2392578 V 0 h -1.757813 v -4.9707031 h 1.757813 v 0.7128906 q 0.395508,-0.4199219 0.805664,-0.6103516 0.410156,-0.1904296 0.947266,-0.1904296 0.253906,0 0.483398,0.048828 0.229492,0.043945 0.449219,0.15625 0.224609,0.1123047 0.405273,0.3076172 0.180664,0.1953125 0.288086,0.4541015 0.424805,-0.4785156 0.878906,-0.7226562 0.458985,-0.2441406 1.054688,-0.2441406 0.595703,0 0.996094,0.2392578 0.405273,0.2392578 0.595703,0.6933593 0.195312,0.4492188 0.195312,1.09375 z m 5.742577,-2.0605469 h -3.500977 q 0.102539,0.4541016 0.50293,0.7421875 0.400391,0.288086 0.908203,0.288086 0.888672,0 1.962891,-0.4980469 v 1.08886717 q -0.385742,0.20019532 -0.9375,0.36621094 -0.546875,0.16113281 -1.396485,0.16113281 -0.917968,0 -1.5625,-0.34179687 -0.644531,-0.34179687 -0.966797,-0.92773435 -0.317382,-0.5859375 -0.317382,-1.328125 0,-0.7324219 0.317382,-1.3085938 0.322266,-0.5810547 0.966797,-0.9082031 0.644532,-0.3320312 1.5625,-0.3320312 0.605469,0 1.166993,0.2636718 0.566406,0.2587891 0.927734,0.8544922 0.366211,0.5908203 0.366211,1.5283203 z m -1.650391,-0.8691406 q 0,-0.4785156 -0.239258,-0.7617188 -0.234375,-0.2880859 -0.678711,-0.2880859 -0.439453,0 -0.71289,0.2929688 -0.268555,0.2880859 -0.268555,0.7568359 z" id="text455" style="font-weight:700;font-size:10px;font-family:GillSans-Bold, 'Gill Sans';letter-spacing:-0.04em" transform="matrix(0.88,0,0,1,10,192.94)" aria-label="Verb Volume" />
    <path d="m 5.5810547,-1.9677734 q 0,0.6347656 -0.3271485,1.09863277 Q 4.9316406,-0.40527344 4.3505859,-0.15625 3.7695313,0.08789062 3.0175781,0.08789062 2.8076172,0.08789062 2.5,0.05859375 2.1972656,0.03417969 1.6894531,-0.08789062 1.1865234,-0.20996094 0.63964844,-0.44921875 V -2.109375 q 0.51269526,0.3173828 1.00585936,0.5273438 0.4980469,0.2099609 1.0644531,0.2099609 0.522461,0 0.6738282,-0.1708984 0.15625,-0.1757813 0.15625,-0.3271485 0,-0.2734375 -0.2636719,-0.4589844 Q 3.0126953,-2.5195313 2.5097656,-2.7197266 1.953125,-2.9541016 1.5332031,-3.2275391 1.1132812,-3.5058594 0.84472656,-3.9208984 0.58105469,-4.3359375 0.58105469,-4.9023437 q 0,-0.546875 0.26855469,-0.9863282 0.26855472,-0.4443359 0.82031252,-0.7080078 0.5517578,-0.2636719 1.3476562,-0.2636719 0.5664063,0 1.0449219,0.1123047 0.4833984,0.1074219 0.7958984,0.2441407 0.3125,0.1367187 0.4296875,0.2148437 v 1.5869141 Q 4.8730469,-5 4.3603516,-5.234375 3.8525391,-5.46875 3.2714844,-5.46875 q -0.3808594,0 -0.5517578,0.1464844 -0.1708985,0.1464844 -0.1708985,0.3613281 0,0.2001953 0.1708985,0.3466797 0.1708984,0.1464844 0.6103515,0.3564453 0.78125,0.3662109 1.25,0.6591797 0.46875,0.2929687 0.7324219,0.6787109 0.2685547,0.3808594 0.2685547,0.9521485 z m 5.8548823,1.71874996 q -0.385742,0.15136719 -0.71289,0.24414063 -0.327149,0.09277343 -0.786133,0.09277343 -0.4345703,0 -0.6054688,-0.15136718 -0.1708984,-0.15625 -0.2441406,-0.37597657 -0.2832031,0.22949219 -0.6298828,0.38085938 -0.3466797,0.14648437 -0.9082031,0.14648437 -0.5419922,0 -0.8789063,-0.18554687 Q 6.3382812,-0.28808594 6.2015624,-0.57128906 6.0697265,-0.859375 6.0697265,-1.1621094 q 0,-0.4589843 0.2294922,-0.7568359 0.234375,-0.3027344 0.625,-0.4931641 0.390625,-0.1904297 1.0351562,-0.3955078 0.3662109,-0.1171875 0.5517578,-0.1757812 0.1904297,-0.063477 0.2832031,-0.097656 0.092773,-0.03418 0.1953125,-0.087891 0,-0.3613281 -0.1464843,-0.5664063 -0.1464844,-0.2050781 -0.6347657,-0.2050781 -0.5761718,0 -1.0693359,0.2539063 -0.4931641,0.2539062 -0.9033203,0.6542968 v -1.3476562 q 0.3271484,-0.234375 0.7080078,-0.3808594 0.3808594,-0.1513672 0.7958984,-0.2246094 0.4150391,-0.073242 0.8398438,-0.073242 1.0791016,0 1.6210939,0.4199218 0.546875,0.4150391 0.546875,1.147461 v 1.9189453 q 0,0.2734375 0.04883,0.4101562 0.05371,0.131836 0.19043,0.131836 0.166015,0 0.449218,-0.1416016 z M 8.9896483,-1.2011719 v -1.1767578 q -0.625,0.2539063 -0.9130859,0.4589844 -0.2880859,0.2001953 -0.2880859,0.546875 0,0.2490234 0.1416015,0.38085936 0.1464844,0.13183594 0.3369141,0.13183594 0.1806641,0 0.3564453,-0.0976563 0.1806641,-0.1025391 0.3662109,-0.2441406 z m 6.5189457,0.91308596 q -0.273438,0.13183594 -0.756836,0.25390625 -0.478516,0.12207031 -0.917969,0.12207031 -1.899414,0 -1.899414,-1.85546872 V -3.75 h -0.795899 v -0.3076172 l 2.358399,-2.4023437 h 0.200195 v 1.4892578 h 1.679688 V -3.75 H 13.69707 v 1.5917969 q 0,0.2783203 0.03418,0.4492187 0.03418,0.1708985 0.190429,0.288086 0.161133,0.1123047 0.483399,0.1123047 0.419922,0 1.103516,-0.3515625 z M 21.119336,0 h -1.762695 v -0.70800781 q -0.371094,0.40039062 -0.78125,0.60058594 -0.405274,0.19531249 -0.976563,0.19531249 -1.127929,0 -1.459961,-0.65429687 -0.332031,-0.65917965 -0.332031,-1.48437505 v -2.9199218 h 1.762695 v 2.6855468 q 0,0.4052735 0.131836,0.7128907 0.136719,0.3027344 0.585938,0.3027344 0.385742,0 0.610351,-0.2197266 0.22461,-0.2197266 0.458985,-0.5615235 v -2.9199218 h 1.762695 z m 5.093164,-4.7021484 -0.649414,1.7626953 q -0.400391,-0.3808594 -0.810547,-0.3808594 -0.371094,0 -0.644532,0.2539062 -0.268554,0.2490235 -0.517578,0.9277344 V 0 h -1.757812 v -4.9707031 h 1.757812 v 1.2011718 q 0.166016,-0.4443359 0.585938,-0.8642578 0.419922,-0.4248046 0.986328,-0.4248046 0.297851,0 0.517578,0.087891 0.224609,0.087891 0.532227,0.2685543 z m 5.176172,4.45312496 q -0.385742,0.15136719 -0.712891,0.24414063 -0.327148,0.09277343 -0.786133,0.09277343 -0.43457,0 -0.605468,-0.15136718 -0.170899,-0.15625 -0.244141,-0.37597657 -0.283203,0.22949219 -0.629883,0.38085938 -0.346679,0.14648437 -0.908203,0.14648437 -0.541992,0 -0.878906,-0.18554687 -0.332031,-0.19042969 -0.46875,-0.47363281 -0.131836,-0.28808594 -0.131836,-0.59082034 0,-0.4589843 0.229492,-0.7568359 0.234375,-0.3027344 0.625,-0.4931641 0.390625,-0.1904297 1.035156,-0.3955078 0.366211,-0.1171875 0.551758,-0.1757812 0.19043,-0.063477 0.283203,-0.097656 0.09277,-0.03418 0.195313,-0.087891 0,-0.3613281 -0.146485,-0.5664063 -0.146484,-0.2050781 -0.634765,-0.2050781 -0.576172,0 -1.069336,0.2539063 -0.493164,0.2539062 -0.90332,0.6542968 v -1.3476562 q 0.327148,-0.234375 0.708007,-0.3808594 0.38086,-0.1513672 0.795899,-0.2246094 0.415039,-0.073242 0.839844,-0.073242 1.079101,0 1.621093,0.4199218 0.546875,0.4150391 0.546875,1.147461 v 1.9189453 q 0,0.2734375 0.04883,0.4101562 0.05371,0.131836 0.19043,0.131836 0.166016,0 0.449219,-0.1416016 z M 28.942383,-1.2011719 v -1.1767578 q -0.625,0.2539063 -0.913086,0.4589844 -0.288086,0.2001953 -0.288086,0.546875 0,0.2490234 0.141601,0.38085936 0.146485,0.13183594 0.336915,0.13183594 0.180664,0 0.356445,-0.0976563 0.180664,-0.1025391 0.366211,-0.2441406 z m 6.518946,0.91308596 q -0.273438,0.13183594 -0.756836,0.25390625 -0.478516,0.12207031 -0.917969,0.12207031 -1.899414,0 -1.899414,-1.85546872 V -3.75 h -0.795899 v -0.3076172 l 2.358399,-2.4023437 h 0.200195 v 1.4892578 h 1.679688 V -3.75 h -1.679688 v 1.5917969 q 0,0.2783203 0.03418,0.4492187 0.03418,0.1708985 0.190429,0.288086 0.161133,0.1123047 0.483399,0.1123047 0.419922,0 1.103516,-0.3515625 z m 2.080469,-5.83007816 q 0,0.3076172 -0.219727,0.522461 -0.219726,0.2148437 -0.522461,0.2148437 -0.205078,0 -0.375976,-0.097656 -0.166016,-0.097656 -0.263672,-0.2636719 -0.09766,-0.1708984 -0.09766,-0.3759766 0,-0.3027343 0.214844,-0.5224609 0.214844,-0.2197266 0.522461,-0.2197266 0.302735,0 0.522461,0.2197266 0.219727,0.2197266 0.219727,0.5224609 z M 37.683399,0 h -1.762695 v -4.9707031 h 1.762695 z m 6.299217,-2.4902344 q 0,0.7421875 -0.322265,1.3232422 -0.322266,0.5810547 -0.966797,0.91796876 -0.639649,0.33691406 -1.5625,0.33691406 -0.922852,0 -1.567383,-0.33691406 -0.639648,-0.33691406 -0.961914,-0.91796876 -0.317383,-0.5810547 -0.317383,-1.3232422 0,-0.5615234 0.175781,-1.0205078 0.180665,-0.4589844 0.541993,-0.8105469 0.366211,-0.3564453 0.898437,-0.546875 0.532227,-0.1904296 1.230469,-0.1904296 0.703125,0 1.240234,0.1953125 0.541992,0.1904296 0.893555,0.5371093 0.356445,0.3466797 0.537109,0.8105469 0.180664,0.4638672 0.180664,1.0253906 z m -1.850586,0 q 0,-0.5908203 -0.258789,-0.9228515 Q 41.619335,-3.75 41.131054,-3.75 q -0.483399,0 -0.742188,0.3369141 -0.253906,0.3320312 -0.253906,0.9228515 0,0.5859375 0.258789,0.9277344 0.258789,0.3417969 0.737305,0.3417969 0.488281,0 0.742187,-0.3369141 0.258789,-0.3417969 0.258789,-0.9326172 z M 49.803322,0 h -1.757813 v -2.6806641 q 0,-0.4101562 -0.136718,-0.7128906 -0.131836,-0.3076172 -0.585938,-0.3076172 -0.214844,0 -0.380859,0.083008 -0.161133,0.078125 -0.292969,0.2050782 -0.126953,0.1269531 -0.214844,0.2441406 -0.08789,0.1171875 -0.180664,0.2490234 V 0 h -1.757812 v -4.9707031 h 1.757812 v 0.7128906 q 0.415039,-0.4443359 0.830078,-0.6201172 0.419922,-0.180664 0.932617,-0.180664 1.78711,0 1.78711,2.1386718 z" id="text459" style="font-weight:700;font-size:10px;font-family:GillSans-Bold, 'Gill Sans';letter-spacing:-0.04em" transform="matrix(0.88,0,0,1,84.08,192.94)" aria-label="Saturation" />
    <path d="m 21.754297,249.63716 h -1.627188 v 4.09766 h -1.335703 v -4.09766 h -1.627187 v -1.3164 h 4.590078 z m 3.27039,0.33594 -0.426015,1.41016 q -0.262656,-0.30469 -0.531719,-0.30469 -0.243437,0 -0.422812,0.20312 -0.176172,0.19922 -0.339532,0.74219 v 1.71094 h -1.153125 v -3.97656 h 1.153125 v 0.96093 q 0.108907,-0.35547 0.384375,-0.6914 0.275469,-0.33985 0.647032,-0.33985 0.19539,0 0.339531,0.0703 0.147344,0.0703 0.34914,0.21484 z m 1.207578,-1.13281 q 0,0.24609 -0.14414,0.41797 -0.14414,0.17187 -0.342735,0.17187 -0.13453,0 -0.24664,-0.0781 -0.108906,-0.0781 -0.172968,-0.21094 -0.06407,-0.13672 -0.06407,-0.30078 0,-0.24219 0.140938,-0.41797 0.140937,-0.17578 0.342733,-0.17578 0.198594,0 0.342735,0.17578 0.14414,0.17578 0.14414,0.41797 z m 0.09289,4.89453 h -1.156329 v -3.97656 h 1.156329 z m 4.074374,-3.12891 h -0.570156 q 0.301093,0.32031 0.301093,0.78516 0,0.24609 -0.08648,0.47266 -0.08328,0.22656 -0.249845,0.40234 -0.163358,0.17578 -0.406796,0.28906 -0.240234,0.10938 -0.550937,0.13281 -0.400392,0.0195 -0.400392,0.26172 0,0.0937 0.05125,0.13672 0.05125,0.043 0.160157,0.0664 0.11211,0.0195 0.374765,0.0469 0.297891,0.0312 0.554141,0.10938 0.25625,0.0781 0.477266,0.32812 0.221016,0.25 0.221016,0.71485 0,0.37109 -0.166563,0.65625 -0.163359,0.28515 -0.531719,0.44531 -0.368359,0.16016 -0.97375,0.16016 -0.87125,0 -1.28125,-0.28516 -0.406796,-0.28516 -0.406796,-0.76172 0,-0.12891 0.05125,-0.29687 0.05445,-0.16797 0.224218,-0.32422 0.172969,-0.15625 0.499687,-0.21094 -0.115312,-0.0508 -0.198593,-0.19531 -0.08328,-0.14844 -0.08328,-0.3086 0,-0.20703 0.115313,-0.41015 0.118515,-0.20313 0.381172,-0.26172 -0.365157,-0.11719 -0.631015,-0.44141 -0.26586,-0.32422 -0.26586,-0.83984 0,-0.39063 0.121718,-0.6836 0.124922,-0.29297 0.342735,-0.47656 0.217812,-0.18359 0.506094,-0.26953 0.288281,-0.0898 0.631016,-0.0898 h 1.790546 z m -1.274844,0.67188 q 0,-0.30078 -0.169765,-0.48047 -0.166562,-0.1836 -0.374765,-0.1836 -0.26586,0 -0.41961,0.21875 -0.150547,0.21875 -0.150547,0.46094 0,0.16797 0.06407,0.3125 0.06726,0.14453 0.185781,0.23438 0.121719,0.0859 0.288281,0.0859 0.249844,0 0.413203,-0.1914 0.16336,-0.19141 0.16336,-0.45703 z m 0.230626,3.19922 q 0,-0.26172 -0.230626,-0.33985 -0.227422,-0.0742 -0.470859,-0.0742 -0.40039,0 -0.579765,0.10157 -0.176173,0.10546 -0.176173,0.33203 0,0.44531 0.73672,0.44531 0.329922,0 0.525312,-0.11719 0.195391,-0.11328 0.195391,-0.34765 z m 4.737422,-3.8711 h -0.570157 q 0.301094,0.32031 0.301094,0.78516 0,0.24609 -0.08648,0.47266 -0.08328,0.22656 -0.249845,0.40234 -0.163358,0.17578 -0.406796,0.28906 -0.240234,0.10938 -0.550937,0.13281 -0.400392,0.0195 -0.400392,0.26172 0,0.0937 0.05125,0.13672 0.05125,0.043 0.160157,0.0664 0.11211,0.0195 0.374765,0.0469 0.297891,0.0312 0.554141,0.10938 0.25625,0.0781 0.477266,0.32812 0.221016,0.25 0.221016,0.71485 0,0.37109 -0.166563,0.65625 -0.16336,0.28515 -0.531719,0.44531 -0.368359,0.16016 -0.97375,0.16016 -0.87125,0 -1.28125,-0.28516 -0.406796,-0.28516 -0.406796,-0.76172 0,-0.12891 0.05125,-0.29687 0.05446,-0.16797 0.224218,-0.32422 0.172969,-0.15625 0.499687,-0.21094 -0.115312,-0.0508 -0.198593,-0.19531 -0.08328,-0.14844 -0.08328,-0.3086 0,-0.20703 0.115313,-0.41015 0.118515,-0.20313 0.381172,-0.26172 -0.365157,-0.11719 -0.631015,-0.44141 -0.26586,-0.32422 -0.26586,-0.83984 0,-0.39063 0.121718,-0.6836 0.124922,-0.29297 0.342735,-0.47656 0.217812,-0.18359 0.506094,-0.26953 0.288281,-0.0898 0.631016,-0.0898 h 1.790547 z m -1.274845,0.67188 q 0,-0.30078 -0.169765,-0.48047 -0.166562,-0.1836 -0.374765,-0.1836 -0.26586,0 -0.41961,0.21875 -0.150547,0.21875 -0.150547,0.46094 0,0.16797 0.06407,0.3125 0.06726,0.14453 0.185781,0.23438 0.121719,0.0859 0.288281,0.0859 0.249844,0 0.413203,-0.1914 0.16336,-0.19141 0.16336,-0.45703 z m 0.230625,3.19922 q 0,-0.26172 -0.230625,-0.33985 -0.227422,-0.0742 -0.470859,-0.0742 -0.400391,0 -0.579766,0.10157 -0.176172,0.10546 -0.176172,0.33203 0,0.44531 0.73672,0.44531 0.329922,0 0.525312,-0.11719 0.19539,-0.11328 0.19539,-0.34765 z M 37.85,252.08638 h -2.29664 q 0.06726,0.36328 0.329921,0.59375 0.262657,0.23047 0.595781,0.23047 0.582969,0 1.287656,-0.39844 v 0.8711 q -0.253046,0.16015 -0.615,0.29297 -0.35875,0.1289 -0.916093,0.1289 -0.602188,0 -1.025,-0.27344 -0.422813,-0.27343 -0.634219,-0.74218 -0.208203,-0.46875 -0.208203,-1.0625 0,-0.58594 0.208203,-1.04688 0.211406,-0.46484 0.634219,-0.72656 0.422812,-0.26563 1.025,-0.26563 0.397187,0 0.765547,0.21094 0.371563,0.20703 0.608593,0.68359 0.240235,0.47266 0.240235,1.22266 z m -1.082657,-0.69531 q 0,-0.38281 -0.156953,-0.60938 -0.15375,-0.23047 -0.445234,-0.23047 -0.288281,0 -0.467656,0.23438 -0.176172,0.23047 -0.176172,0.60547 z m 4.516407,-1.41797 -0.426015,1.41016 q -0.262657,-0.30469 -0.53172,-0.30469 -0.243437,0 -0.422812,0.20312 -0.176172,0.19922 -0.339531,0.74219 v 1.71094 h -1.153125 v -3.97656 h 1.153125 v 0.96093 q 0.108906,-0.35547 0.384375,-0.6914 0.275468,-0.33985 0.647031,-0.33985 0.19539,0 0.339532,0.0703 0.147343,0.0703 0.34914,0.21484 z" id="text463" style="font-weight:700;font-size:8px;font-family:GillSans-Bold, 'Gill Sans';stroke-width:0.905538" aria-label="Trigger" />
    <path d="m 63.874609,253.69773 h -3.347265 v -5.41406 h 3.292812 v 1.08594 H 61.86625 v 0.99219 h 1.864219 v 1.08984 H 61.86625 v 1.15625 h 2.008359 z m 4.189688,0 h -1.153125 v -2.14453 q 0,-0.32812 -0.08969,-0.57031 -0.08648,-0.24609 -0.384375,-0.24609 -0.140937,0 -0.249843,0.0664 -0.105703,0.0625 -0.192188,0.16407 -0.08328,0.10156 -0.140937,0.19531 -0.05766,0.0937 -0.118516,0.19922 v 2.33593 H 64.5825 v -3.97656 h 1.153125 v 0.57031 q 0.272266,-0.35546 0.544531,-0.49609 0.275469,-0.14453 0.611797,-0.14453 1.172344,0 1.172344,1.71094 z m 4.035938,-1.64843 h -2.296641 q 0.06726,0.36328 0.329921,0.59375 0.262657,0.23047 0.595782,0.23047 0.582968,0 1.287656,-0.39844 v 0.87109 q -0.253046,0.16016 -0.615,0.29297 -0.35875,0.12891 -0.916093,0.12891 -0.602188,0 -1.025,-0.27344 -0.422813,-0.27344 -0.63422,-0.74219 -0.208202,-0.46875 -0.208202,-1.0625 0,-0.58594 0.208202,-1.04687 0.211407,-0.46485 0.63422,-0.72657 0.422812,-0.26562 1.025,-0.26562 0.397187,0 0.765547,0.21094 0.371562,0.20703 0.608593,0.68359 0.240235,0.47266 0.240235,1.22266 z m -1.082657,-0.69532 q 0,-0.38281 -0.156953,-0.60937 -0.15375,-0.23047 -0.445235,-0.23047 -0.28828,0 -0.467655,0.23438 -0.176172,0.23046 -0.176172,0.60546 z m 4.516407,-1.41796 -0.426017,1.41015 q -0.262655,-0.30469 -0.531718,-0.30469 -0.243437,0 -0.422812,0.20313 -0.176173,0.19922 -0.339532,0.74219 v 1.71093 h -1.153124 v -3.97656 h 1.153124 v 0.96094 q 0.108907,-0.35547 0.384375,-0.69141 0.275469,-0.33984 0.647032,-0.33984 0.19539,0 0.33953,0.0703 0.147345,0.0703 0.349142,0.21485 z m 3.459375,0.63281 h -0.570157 q 0.301094,0.32031 0.301094,0.78515 0,0.2461 -0.08648,0.47266 -0.08328,0.22656 -0.249845,0.40234 -0.163358,0.17579 -0.406796,0.28907 -0.240234,0.10937 -0.550937,0.13281 -0.400392,0.0195 -0.400392,0.26172 0,0.0937 0.05125,0.13672 0.05125,0.043 0.160157,0.0664 0.11211,0.0195 0.374765,0.0469 0.297891,0.0312 0.554141,0.10937 0.25625,0.0781 0.477266,0.32813 0.221016,0.25 0.221016,0.71484 0,0.3711 -0.166563,0.65625 -0.16336,0.28516 -0.531719,0.44531 -0.368359,0.16016 -0.97375,0.16016 -0.87125,0 -1.28125,-0.28516 -0.406796,-0.28515 -0.406796,-0.76171 0,-0.12891 0.05125,-0.29688 0.05446,-0.16797 0.224218,-0.32422 0.172969,-0.15625 0.499687,-0.21094 -0.115312,-0.0508 -0.198593,-0.19531 -0.08328,-0.14844 -0.08328,-0.30859 0,-0.20703 0.115313,-0.41016 0.118515,-0.20312 0.381172,-0.26172 -0.365157,-0.11718 -0.631015,-0.4414 -0.26586,-0.32422 -0.26586,-0.83985 0,-0.39062 0.121718,-0.68359 0.124922,-0.29297 0.342735,-0.47656 0.217812,-0.1836 0.506094,-0.26953 0.288281,-0.0899 0.631016,-0.0899 h 1.790547 z m -1.274845,0.67187 q 0,-0.30078 -0.169765,-0.48047 -0.166562,-0.18359 -0.374765,-0.18359 -0.26586,0 -0.41961,0.21875 -0.150547,0.21875 -0.150547,0.46094 0,0.16797 0.06407,0.3125 0.06726,0.14453 0.185781,0.23437 0.121719,0.0859 0.288281,0.0859 0.249844,0 0.413203,-0.19141 0.16336,-0.1914 0.16336,-0.45703 z m 0.230625,3.19922 q 0,-0.26172 -0.230625,-0.33984 -0.227422,-0.0742 -0.470859,-0.0742 -0.400391,0 -0.579766,0.10156 -0.176172,0.10547 -0.176172,0.33203 0,0.44532 0.73672,0.44532 0.329922,0 0.525312,-0.11719 0.19539,-0.11328 0.19539,-0.34766 z m 5.044923,-4.71875 -2.216563,5.78516 h -1.165937 l 0.896875,-2.32813 -1.29086,-3.45703 h 1.23961 l 0.663047,1.97656 0.752733,-1.97656 z" id="text467" style="font-weight:700;font-size:8px;font-family:GillSans-Bold, 'Gill Sans';stroke-width:0.905538" aria-label="Energy" />
    <path d="m 4.4648437,-1.5742187 q 0,0.5078125 -0.2617187,0.8789062 Q 3.9453125,-0.32421875 3.4804688,-0.125 3.015625,0.0703125 2.4140625,0.0703125 2.2460938,0.0703125 2,0.046875 1.7578125,0.02734375 1.3515625,-0.0703125 0.94921875,-0.16796875 0.51171875,-0.359375 V -1.6875 q 0.41015625,0.2539063 0.80468745,0.421875 0.3984375,0.1679688 0.8515626,0.1679688 0.4179687,0 0.5390625,-0.1367188 0.125,-0.140625 0.125,-0.2617187 0,-0.21875 -0.2109375,-0.3671875 Q 2.4101563,-2.015625 2.0078125,-2.1757813 1.5625,-2.3632813 1.2265625,-2.5820313 0.890625,-2.8046875 0.67578125,-3.1367188 0.46484375,-3.46875 0.46484375,-3.921875 q 0,-0.4375 0.21484375,-0.7890625 0.21484375,-0.3554687 0.65625,-0.5664062 0.4414062,-0.2109375 1.078125,-0.2109375 0.453125,0 0.8359375,0.089844 0.3867188,0.085937 0.6367188,0.1953125 0.2499999,0.109375 0.3437499,0.171875 v 1.2695312 Q 3.8984375,-4 3.4882813,-4.1875 3.0820313,-4.375 2.6171875,-4.375 2.3125,-4.375 2.1757813,-4.2578125 2.0390625,-4.140625 2.0390625,-3.96875 q 0,0.1601562 0.1367188,0.2773437 0.1367187,0.1171875 0.4882812,0.2851563 0.625,0.2929687 1,0.5273437 0.375,0.234375 0.5859375,0.5429688 0.2148437,0.3046875 0.2148437,0.7617188 z M 9.7109375,-2.015625 q 0,0.3984375 -0.1132812,0.7695313 Q 9.484375,-0.875 9.25,-0.57421875 q -0.2304687,0.296875 -0.5976562,0.47265625 -0.3632813,0.171875 -0.8476563,0.171875 -0.390625,0 -0.6171875,-0.08203125 Q 6.9648437,-0.09375 6.7421875,-0.23046875 V 1.8085937 h -1.40625 v -5.7851562 h 1.40625 v 0.359375 q 0.2109375,-0.1835938 0.4648437,-0.3046875 0.2578125,-0.125 0.6953125,-0.125 0.4335938,0 0.8515626,0.2148437 0.4179687,0.2148438 0.6875,0.671875 0.2695312,0.453125 0.2695312,1.1445313 z m -1.4804687,0.03125 q 0,-0.359375 -0.1132813,-0.5820313 Q 8.0039063,-2.7929688 7.8242187,-2.890625 7.6445312,-2.9921875 7.453125,-2.9921875 q -0.25,0 -0.4101563,0.082031 -0.1601562,0.078125 -0.3007812,0.1992188 v 1.5195313 q 0.074219,0.039063 0.15625,0.089844 0.085937,0.046875 0.1679687,0.082031 0.085937,0.0351562 0.1796875,0.0585937 Q 7.34375,-0.9375 7.453125,-0.9375 q 0.3320312,0 0.5546875,-0.28125 Q 8.2304688,-1.5 8.2304688,-1.984375 Z M 13.9375,-3.7617188 13.417969,-2.3515625 Q 13.097656,-2.65625 12.769531,-2.65625 q -0.296875,0 -0.515625,0.203125 -0.214843,0.1992187 -0.414062,0.7421875 V 0 h -1.40625 v -3.9765625 h 1.40625 v 0.9609375 q 0.132812,-0.3554688 0.46875,-0.6914063 0.335937,-0.3398437 0.789062,-0.3398437 0.238282,0 0.414063,0.070312 0.179687,0.070312 0.425781,0.2148442 z m 4.183594,2.1132813 h -2.800781 q 0.08203,0.3632813 0.402343,0.59375 0.320313,0.23046875 0.726563,0.23046875 0.710937,0 1.570312,-0.39843745 v 0.8710937 q -0.308594,0.16015625 -0.75,0.29296875 -0.4375,0.12890625 -1.117187,0.12890625 -0.734375,0 -1.25,-0.2734375 -0.515625,-0.2734375 -0.773438,-0.7421875 -0.253906,-0.46875 -0.253906,-1.0625 0,-0.5859375 0.253906,-1.046875 0.257813,-0.4648438 0.773438,-0.7265625 0.515625,-0.265625 1.25,-0.265625 0.484375,0 0.933593,0.2109375 0.453125,0.2070312 0.742188,0.6835937 0.292969,0.4726563 0.292969,1.2226563 z M 16.800781,-2.34375 q 0,-0.3828125 -0.191406,-0.609375 -0.1875,-0.2304688 -0.542969,-0.2304688 -0.351562,0 -0.570312,0.234375 Q 15.28125,-2.71875 15.28125,-2.34375 Z m 6.136719,2.14453125 q -0.308594,0.12109375 -0.570313,0.1953125 -0.261718,0.07421875 -0.628906,0.07421875 -0.347656,0 -0.484375,-0.12109375 -0.136719,-0.125 -0.195312,-0.30078125 -0.226563,0.18359375 -0.503907,0.3046875 -0.277343,0.1171875 -0.726562,0.1171875 -0.433594,0 -0.703125,-0.1484375 Q 18.859375,-0.23046875 18.75,-0.45703125 18.644531,-0.6875 18.644531,-0.9296875 q 0,-0.3671875 0.183594,-0.6054687 0.1875,-0.2421875 0.5,-0.3945313 0.3125,-0.1523438 0.828125,-0.3164063 0.292969,-0.09375 0.441406,-0.140625 0.152344,-0.050781 0.226563,-0.078125 0.07422,-0.027344 0.15625,-0.070312 0,-0.2890625 -0.117188,-0.453125 -0.117187,-0.1640625 -0.507812,-0.1640625 -0.460938,0 -0.855469,0.203125 -0.394531,0.203125 -0.722656,0.5234375 v -1.078125 q 0.261718,-0.1875 0.566406,-0.3046875 0.304687,-0.1210937 0.636719,-0.1796875 0.332031,-0.058594 0.671875,-0.058594 0.863281,0 1.296875,0.3359375 0.4375,0.3320312 0.4375,0.9179687 v 1.5351563 q 0,0.21875 0.03906,0.328125 0.04297,0.10546875 0.152344,0.10546875 0.132812,0 0.359375,-0.11328125 z M 20.980469,-0.9609375 v -0.9414062 q -0.5,0.203125 -0.730469,0.3671875 -0.230469,0.1601562 -0.230469,0.4375 0,0.1992187 0.113281,0.30468745 Q 20.25,-0.6875 20.402344,-0.6875 q 0.144531,0 0.285156,-0.078125 0.144531,-0.0820313 0.292969,-0.1953125 z M 27.585937,0 h -1.410156 v -0.359375 q -0.222656,0.1875 -0.472656,0.30859375 -0.246094,0.12109375 -0.683594,0.12109375 -0.433594,0 -0.851562,-0.21484375 Q 23.75,-0.359375 23.480469,-0.8125 q -0.269532,-0.4570312 -0.269532,-1.1484375 0,-0.5429688 0.203125,-1.015625 0.203125,-0.4765625 0.636719,-0.7734375 0.433594,-0.296875 1.0625,-0.296875 0.390625,0 0.632813,0.085937 0.242187,0.085937 0.429687,0.21875 v -1.671875 h 1.410156 z m -1.410156,-1.265625 v -1.5195313 q -0.246094,-0.1367187 -0.386719,-0.1953125 -0.136718,-0.058594 -0.324218,-0.058594 -0.332032,0 -0.554688,0.28125 -0.21875,0.28125 -0.21875,0.765625 0,0.5273438 0.230469,0.7695313 0.234375,0.2382812 0.542969,0.2382812 0.253906,0 0.410156,-0.078125 0.15625,-0.082031 0.300781,-0.2031247 z" id="text471" style="font-weight:700;font-size:8px;font-family:GillSans-Bold, 'Gill Sans'" transform="matrix(0.82,0,0,1,102.94,253.77)" aria-label="Spread" />
    <path d="m 24.622422,335.80372 q -0.275469,0.17578 -0.56375,0.28125 -0.288281,0.10547 -0.582969,0.14844 -0.291484,0.0469 -0.605391,0.0469 -0.579765,0 -1.041015,-0.19531 -0.458047,-0.19531 -0.797578,-0.57422 -0.336328,-0.38281 -0.506094,-0.89062 -0.166563,-0.51172 -0.166563,-1.1211 0,-0.69922 0.198594,-1.22266 0.198594,-0.52734 0.554141,-0.87499 0.35875,-0.34766 0.813594,-0.51172 0.458046,-0.16797 0.96414,-0.16797 0.755938,0 1.713672,0.41015 v 1.4375 q -0.329922,-0.25 -0.653437,-0.41406 -0.320313,-0.16797 -0.755938,-0.16797 -0.387578,0 -0.723906,0.1875 -0.336328,0.1875 -0.541328,0.53516 -0.205,0.34765 -0.205,0.8125 0,0.41015 0.179375,0.75391 0.179375,0.33984 0.496484,0.54296 0.320313,0.19922 0.720703,0.19922 0.323516,0 0.611797,-0.0937 0.288281,-0.0976 0.483672,-0.21484 0.198594,-0.11719 0.406797,-0.27734 z m 4.311406,-1.58594 q 0,0.59375 -0.211406,1.0586 -0.211407,0.46484 -0.634219,0.73437 -0.419609,0.26953 -1.025,0.26953 -0.605391,0 -1.028203,-0.26953 -0.419609,-0.26953 -0.631016,-0.73437 -0.208203,-0.46485 -0.208203,-1.0586 0,-0.44922 0.115313,-0.81641 0.118515,-0.36718 0.355547,-0.64843 0.240234,-0.28516 0.589375,-0.4375 0.34914,-0.15235 0.807187,-0.15235 0.46125,0 0.813594,0.15625 0.355547,0.15235 0.586172,0.42969 0.233828,0.27734 0.352343,0.64844 0.118516,0.37109 0.118516,0.82031 z m -1.213984,0 q 0,-0.47266 -0.169766,-0.73828 -0.166562,-0.26953 -0.486875,-0.26953 -0.317109,0 -0.486875,0.26953 -0.166562,0.26562 -0.166562,0.73828 0,0.46875 0.169765,0.74219 0.169766,0.27344 0.483672,0.27344 0.320313,0 0.486875,-0.26953 0.169766,-0.27344 0.169766,-0.7461 z m 3.026953,1.99219 h -1.156328 v -5.41406 h 1.156328 z m 4.301796,-1.99219 q 0,0.59375 -0.211406,1.0586 -0.211406,0.46484 -0.634219,0.73437 -0.419608,0.26953 -1.024999,0.26953 -0.605391,0 -1.028204,-0.26953 -0.419608,-0.26953 -0.631015,-0.73437 -0.208203,-0.46485 -0.208203,-1.0586 0,-0.44922 0.115313,-0.81641 0.118515,-0.36718 0.355547,-0.64843 0.240233,-0.28516 0.589375,-0.4375 0.34914,-0.15235 0.807187,-0.15235 0.461249,0 0.813593,0.15625 0.355548,0.15235 0.586173,0.42969 0.233827,0.27734 0.352343,0.64844 0.118515,0.37109 0.118515,0.82031 z m -1.213983,0 q 0,-0.47266 -0.169767,-0.73828 -0.166562,-0.26953 -0.486874,-0.26953 -0.317109,0 -0.486875,0.26953 -0.166562,0.26562 -0.166562,0.73828 0,0.46875 0.169765,0.74219 0.169766,0.27344 0.483672,0.27344 0.320312,0 0.486874,-0.26953 0.169767,-0.27344 0.169767,-0.7461 z m 4.679765,-1.76953 -0.426015,1.41016 q -0.262657,-0.30469 -0.53172,-0.30469 -0.243437,0 -0.422812,0.20312 -0.176172,0.19922 -0.339531,0.74219 v 1.71094 h -1.153125 v -3.97656 h 1.153125 v 0.96093 q 0.108906,-0.35547 0.384375,-0.6914 0.275468,-0.33985 0.647031,-0.33985 0.19539,0 0.339532,0.0703 0.147343,0.0703 0.34914,0.21484 z" id="text475" style="font-weight:700;font-size:8px;font-family:GillSans-Bold, 'Gill Sans';stroke-width:0.905538" aria-label="Color" />
    <path d="M 5.9765625,-5.4140625 3.5351563,0.0703125 H 2.4570313 L 0.0625,-5.4140625 H 1.7617187 L 3,-2.2890625 l 1.2734375,-3.125 z m 1.34375,4.64453125 q 0,0.3515625 -0.2421875,0.59765625 -0.2382813,0.2421875 -0.5898438,0.2421875 -0.3476562,0 -0.5976562,-0.24609375 -0.25,-0.24609375 -0.25,-0.59375 0,-0.35156245 0.25,-0.59374995 0.25,-0.2460938 0.5976562,-0.2460938 0.21875,0 0.4140625,0.1132813 0.1992188,0.1132812 0.3085938,0.3046875 Q 7.3203125,-1 7.3203125,-0.76953125 Z M 16.21875,-2.609375 q 0,0.8320313 -0.304687,1.3359375 -0.300782,0.50390625 -0.710938,0.81640625 Q 14.621094,0 13.574219,0 h -2.921875 v -5.4140625 h 2.25 q 0.507812,0 0.867187,0.054687 0.363282,0.050781 0.652344,0.1484375 0.289063,0.09375 0.492188,0.2148438 0.203125,0.1171875 0.363281,0.2539062 0.277344,0.2265625 0.484375,0.5351563 0.210937,0.3085937 0.332031,0.7148437 0.125,0.40625 0.125,0.882813 z m -1.660156,-0.070312 q 0,-0.6601563 -0.253906,-1.0273438 -0.25,-0.3710937 -0.605469,-0.4960937 -0.351563,-0.125 -0.71875,-0.125 h -0.695313 v 3.2070313 h 0.695313 q 0.640625,0 1.109375,-0.3046875 0.46875,-0.3046875 0.46875,-1.2539063 z m 6.515625,1.03125 h -2.800782 q 0.08203,0.3632813 0.402344,0.59375 0.320313,0.23046875 0.726563,0.23046875 0.710937,0 1.570312,-0.39843745 v 0.8710937 q -0.308594,0.16015625 -0.75,0.29296875 -0.4375,0.12890625 -1.117187,0.12890625 -0.734375,0 -1.25,-0.2734375 -0.515625,-0.2734375 -0.773438,-0.7421875 -0.253906,-0.46875 -0.253906,-1.0625 0,-0.5859375 0.253906,-1.046875 0.257813,-0.4648438 0.773438,-0.7265625 0.515625,-0.265625 1.25,-0.265625 0.484375,0 0.933593,0.2109375 0.453125,0.2070312 0.742188,0.6835937 0.292969,0.4726563 0.292969,1.2226563 z M 19.753906,-2.34375 q 0,-0.3828125 -0.191406,-0.609375 -0.1875,-0.2304688 -0.542969,-0.2304688 -0.351562,0 -0.570312,0.234375 -0.214844,0.2304688 -0.214844,0.6054688 z m 5.417969,2.16015625 q -0.175781,0.0664063 -0.371094,0.125 -0.195312,0.0546875 -0.441406,0.08984375 -0.242188,0.0390625 -0.53125,0.0390625 -0.652344,0 -1.105469,-0.21875 Q 22.273437,-0.37109375 22.027344,-0.703125 21.785156,-1.0390625 21.691406,-1.3867187 21.597656,-1.734375 21.597656,-2 q 0,-0.265625 0.09375,-0.6132813 0.09766,-0.3476562 0.335938,-0.671875 0.238281,-0.3242187 0.6875,-0.5429687 0.453125,-0.21875 1.113281,-0.21875 0.441406,0 0.71875,0.0625 0.277344,0.0625 0.5625,0.1679687 v 1.1054688 q -0.6875,-0.21875 -1.074219,-0.21875 -0.375,0 -0.667969,0.2265625 Q 23.078125,-2.4765625 23.078125,-2 q 0,0.3164063 0.144531,0.5351563 0.144531,0.2148437 0.367188,0.3164062 0.222656,0.1015625 0.445312,0.1015625 0.210938,0 0.480469,-0.0625 0.269531,-0.0625 0.65625,-0.1796875 z m 4.808594,-0.015625 q -0.308594,0.12109375 -0.570313,0.1953125 -0.261719,0.07421875 -0.628906,0.07421875 -0.347656,0 -0.484375,-0.12109375 -0.136719,-0.125 -0.195313,-0.30078125 -0.226562,0.18359375 -0.503906,0.3046875 -0.277344,0.1171875 -0.726562,0.1171875 -0.433594,0 -0.703125,-0.1484375 -0.265625,-0.15234375 -0.375,-0.37890625 Q 25.6875,-0.6875 25.6875,-0.9296875 q 0,-0.3671875 0.183594,-0.6054687 0.1875,-0.2421875 0.5,-0.3945313 0.3125,-0.1523438 0.828125,-0.3164063 0.292968,-0.09375 0.441406,-0.140625 0.152344,-0.050781 0.226562,-0.078125 0.07422,-0.027344 0.15625,-0.070312 0,-0.2890625 -0.117187,-0.453125 -0.117188,-0.1640625 -0.507813,-0.1640625 -0.460937,0 -0.855468,0.203125 -0.394532,0.203125 -0.722657,0.5234375 v -1.078125 q 0.261719,-0.1875 0.566407,-0.3046875 0.304687,-0.1210937 0.636718,-0.1796875 0.332032,-0.058594 0.671875,-0.058594 0.863282,0 1.296875,0.3359375 0.4375,0.3320312 0.4375,0.9179687 v 1.5351563 q 0,0.21875 0.03906,0.328125 0.04297,0.10546875 0.152344,0.10546875 0.132812,0 0.359375,-0.11328125 z M 28.023437,-0.9609375 v -0.9414062 q -0.5,0.203125 -0.730468,0.3671875 -0.230469,0.1601562 -0.230469,0.4375 0,0.1992187 0.113281,0.30468745 0.117188,0.10546875 0.269531,0.10546875 0.144532,0 0.285157,-0.078125 0.144531,-0.0820313 0.292968,-0.1953125 z m 6.660157,-3.015625 -2.703125,5.7851562 h -1.421875 l 1.09375,-2.32812495 -1.574219,-3.45703125 h 1.511719 L 32.398437,-2 33.316406,-3.9765625 Z" id="text479" style="font-weight:700;font-size:8px;font-family:GillSans-Bold, 'Gill Sans'" transform="matrix(0.82,0,0,1,57.03,294.69)" aria-label="V. Decay" />
    <path d="M 5.9765625,-5.4140625 3.5351563,0.0703125 H 2.4570313 L 0.0625,-5.4140625 H 1.7617187 L 3,-2.2890625 l 1.2734375,-3.125 z m 4.1328125,3.765625 H 7.3085937 q 0.082031,0.3632813 0.4023438,0.59375 0.3203125,0.23046875 0.7265625,0.23046875 0.7109375,0 1.570313,-0.39843745 v 0.8710937 q -0.3085942,0.16015625 -0.7500005,0.29296875 -0.4375,0.12890625 -1.1171875,0.12890625 -0.734375,0 -1.25,-0.2734375 Q 6.375,-0.4765625 6.1171875,-0.9453125 q -0.2539063,-0.46875 -0.2539063,-1.0625 0,-0.5859375 0.2539063,-1.046875 Q 6.375,-3.5195313 6.890625,-3.78125 q 0.515625,-0.265625 1.25,-0.265625 0.484375,0 0.9335938,0.2109375 0.453125,0.2070312 0.7421875,0.6835937 0.2929687,0.4726563 0.2929687,1.2226563 z M 8.7890625,-2.34375 q 0,-0.3828125 -0.1914062,-0.609375 -0.1875,-0.2304688 -0.5429688,-0.2304688 -0.3515625,0 -0.5703125,0.234375 Q 7.2695312,-2.71875 7.2695312,-2.34375 Z m 5.5078125,-1.4179688 -0.519531,1.4101563 Q 13.457031,-2.65625 13.128906,-2.65625 q -0.296875,0 -0.515625,0.203125 -0.214843,0.1992187 -0.414062,0.7421875 V 0 h -1.40625 v -3.9765625 h 1.40625 v 0.9609375 q 0.132812,-0.3554688 0.46875,-0.6914063 0.335937,-0.3398437 0.789062,-0.3398437 0.238282,0 0.414063,0.070312 0.179687,0.070312 0.425781,0.2148442 z m 4.816406,1.8007813 q 0,0.6914063 -0.269531,1.1484375 -0.269531,0.453125 -0.6875,0.66796875 -0.417969,0.21484375 -0.851563,0.21484375 -0.3125,0 -0.542968,-0.0703125 -0.226563,-0.07421875 -0.355469,-0.15625 -0.125,-0.0859375 -0.261719,-0.203125 V 0 h -1.40625 v -5.4140625 h 1.40625 v 1.671875 q 0.15625,-0.1210938 0.429688,-0.2109375 0.273437,-0.09375 0.632812,-0.09375 0.480469,0 0.847656,0.1757812 0.367188,0.171875 0.597657,0.46875 0.234375,0.296875 0.347656,0.6679688 0.113281,0.3671875 0.113281,0.7734375 z m -1.480469,-0.03125 q 0,-0.5117188 -0.230468,-0.7773438 -0.230469,-0.2695312 -0.546875,-0.2695312 -0.316407,0 -0.710938,0.2539062 v 1.5195313 q 0.296875,0.28125 0.710938,0.28125 0.261718,0 0.519531,-0.2109375 0.257812,-0.2148437 0.257812,-0.796875 z m 10.113282,-3.421875 -2.441407,5.484375 h -1.078125 l -2.394531,-5.484375 h 1.699219 l 1.238281,3.125 1.273438,-3.125 z m 4.445312,3.421875 q 0,0.59375 -0.257812,1.05859375 -0.257813,0.46484375 -0.773438,0.734375 -0.511719,0.26953125 -1.25,0.26953125 -0.738281,0 -1.253906,-0.26953125 -0.511719,-0.26953125 -0.769531,-0.734375 -0.253907,-0.46484375 -0.253907,-1.05859375 0,-0.4492188 0.140625,-0.8164063 0.144532,-0.3671875 0.433594,-0.6484375 0.292969,-0.2851562 0.71875,-0.4375 0.425781,-0.1523437 0.984375,-0.1523437 0.5625,0 0.992188,0.15625 0.433593,0.1523437 0.714843,0.4296875 0.285157,0.2773437 0.429688,0.6484375 0.144531,0.3710937 0.144531,0.8203125 z m -1.480469,0 q 0,-0.4726563 -0.207031,-0.7382813 Q 30.300781,-3 29.910156,-3 q -0.386719,0 -0.59375,0.2695312 -0.203125,0.265625 -0.203125,0.7382813 0,0.46875 0.207031,0.7421875 0.207032,0.2734375 0.589844,0.2734375 0.390625,0 0.59375,-0.2695312 0.207031,-0.2734375 0.207031,-0.7460938 z M 34.402344,0 h -1.410157 v -5.4140625 h 1.410157 z m 2.488281,-0.76953125 q 0,0.3515625 -0.242188,0.59765625 -0.238281,0.2421875 -0.589843,0.2421875 -0.347657,0 -0.597657,-0.24609375 -0.25,-0.24609375 -0.25,-0.59375 0,-0.35156245 0.25,-0.59374995 0.25,-0.2460938 0.597657,-0.2460938 0.21875,0 0.414062,0.1132813 0.199219,0.1132812 0.308594,0.3046875 Q 36.890625,-1 36.890625,-0.76953125 Z" id="text483" style="font-weight:700;font-size:8px;font-family:GillSans-Bold, 'Gill Sans'" transform="matrix(0.82,0,0,1,97.96,294.69)" aria-label="Verb Vol." />
    <path d="m 6.4726562,-2.7109375 q 0,0.7578125 -0.3515625,1.3945313 -0.3476562,0.6367187 -1.0390625,1.0117187 -0.6914062,0.375 -1.6835937,0.375 -1.0039062,0 -1.6992188,-0.390625 Q 1.0039062,-0.7109375 0.6640625,-1.3476562 0.328125,-1.984375 0.328125,-2.7109375 q 0,-0.7304688 0.3359375,-1.3632812 Q 1,-4.7109375 1.6953125,-5.0976562 q 0.6992188,-0.390625 1.703125,-0.390625 0.75,0 1.3359375,0.2226562 0.5898437,0.2226563 0.96875,0.6054688 0.3789062,0.3789062 0.5742187,0.8867187 0.1953125,0.5039062 0.1953125,1.0625 z m -1.6640625,0 q 0,-0.3046875 -0.089844,-0.5546875 -0.089844,-0.2539063 -0.2734375,-0.4375 -0.1796875,-0.1875 -0.4414063,-0.2890625 -0.2617187,-0.1054687 -0.6054687,-0.1054687 -0.65625,0 -1.03125,0.3828124 -0.375,0.3828125 -0.375,1.0039063 0,0.6210937 0.375,1.0078125 0.3789063,0.3828125 1.03125,0.3828125 0.4492188,0 0.765625,-0.1757812 0.3164062,-0.1796875 0.4804687,-0.4921875 0.1640625,-0.3164063 0.1640628,-0.7226563 z M 11.449219,0 h -1.410156 v -0.56640625 q -0.2968755,0.3203125 -0.6250005,0.48046875 -0.3242187,0.15625 -0.78125,0.15625 -0.9023438,0 -1.1679688,-0.5234375 -0.265625,-0.52734375 -0.265625,-1.1875 V -3.9765625 H 8.609375 v 2.1484375 q 0,0.3242188 0.1054688,0.5703125 0.109375,0.2421875 0.46875,0.2421875 0.3085937,0 0.4882812,-0.1757812 0.1796875,-0.1757813 0.367188,-0.4492188 v -2.3359375 h 1.410156 z m 4.035156,-0.23046875 q -0.21875,0.10546875 -0.605469,0.203125 -0.382812,0.09765625 -0.734375,0.09765625 -1.519531,0 -1.519531,-1.484375 V -3 H 11.988281 V -3.2460938 L 13.875,-5.1679687 h 0.160156 v 1.1914062 h 1.34375 V -3 h -1.34375 v 1.2734375 q 0,0.2226563 0.02734,0.359375 0.02734,0.1367188 0.152344,0.2304688 0.128906,0.089844 0.386719,0.089844 0.335937,0 0.882812,-0.28125 z" id="text487" style="font-weight:700;font-size:8px;font-family:GillSans-Bold, 'Gill Sans';fill:#ffffff" transform="matrix(0.82,0,0,1,108.24,336.21)" aria-label="Out" />
    <g id="g495">
      <path d="m 63.8,18.07 c -0.37,0 -0.71,-0.17 -0.97,-0.47 -0.51,-0.6 -0.52,-1.54 -0.04,-2.16 l 6.97,-8.88 c 0.38,-0.48 1.05,-0.65 1.57,-0.39 0.5,0.25 0.79,0.82 0.79,1.45 v 4.77 l 4.64,-5.85 c 0.38,-0.48 1.01,-0.64 1.53,-0.38 0.5,0.25 0.83,0.81 0.83,1.44 v 8.82 c 0,0.86 -0.61,1.57 -1.36,1.57 -0.75,0 -1.36,-0.7 -1.36,-1.57 v -4.79 l -4.64,5.85 c -0.38,0.48 -1.01,0.64 -1.54,0.38 -0.5,-0.24 -0.83,-0.81 -0.83,-1.44 v -4.67 l -4.61,5.8 c -0.26,0.32 -0.62,0.51 -1,0.51 v 0 z" style="fill:#2cabe1" id="path489" />
      <path d="m 63.8,18.07 c -0.75,0 -1.35,-0.7 -1.35,-1.57 v -4.93 l -2.26,2.84 c -0.5,0.63 -1.44,0.65 -1.97,0.04 -0.51,-0.6 -0.52,-1.53 -0.03,-2.15 L 62.8,6.54 c 0.26,-0.32 0.63,-0.5 1,-0.5 0.18,0 0.37,0.04 0.54,0.12 0.5,0.25 0.82,0.81 0.82,1.44 v 8.89 c 0,0.86 -0.61,1.57 -1.36,1.57 v 0 z" style="fill:#ea2228" id="path491" />
      <path d="m 80.4,18.09 v 0 c -0.35,0 -0.68,-0.15 -0.94,-0.42 -0.76,-0.78 -0.14,-1.84 0.29,-2.3 l 1.95,-2.36 -1.26,-0.02 c -0.56,-0.01 -1.04,-0.4 -1.24,-1 -0.19,-0.56 -0.07,-1.21 0.29,-1.64 l 3.16,-3.83 c 0.23,-0.28 0.55,-0.48 1.13,-0.47 0.33,0 0.67,0.17 0.92,0.4 0.71,0.66 0.29,1.7 -0.07,2.2 l -1.04,1.26 1.26,0.02 c 0.56,0.01 1.04,0.4 1.24,1 0.19,0.56 0.07,1.21 -0.29,1.64 l -4.1,4.97 c -0.35,0.35 -0.65,0.55 -1.3,0.54 v 0 z" style="fill:#00a650" id="path493" />
    </g>
    <g id="text503" style="font-weight:700;font-size:11px;font-family:GillSans-Bold, 'Gill Sans'" transform="matrix(0.82,0,0,1,58.95,357.06)" aria-label="CLAP">
      <path d="M 7.6000977,-0.55859375 Q 7.1381836,-0.31689453 6.6547852,-0.171875 6.1713867,-0.02685547 5.6772461,0.03222656 5.1884766,0.09667969 4.6621094,0.09667969 q -0.972168,0 -1.7456055,-0.26855469 Q 2.1484375,-0.44042969 1.5791016,-0.96142578 1.0151367,-1.487793 0.73046875,-2.1860352 0.45117188,-2.8896484 0.45117188,-3.7275391 q 0,-0.9614257 0.33300781,-1.6811523 0.33300781,-0.7250977 0.92919921,-1.203125 0.6015625,-0.4780273 1.3642578,-0.7036133 0.7680664,-0.230957 1.6166992,-0.230957 1.2675782,0 2.8735352,0.5639648 v 1.9765625 q -0.5532227,-0.34375 -1.0957031,-0.5693359 -0.5371094,-0.230957 -1.2675782,-0.230957 -0.6499023,0 -1.2138671,0.2578125 -0.5639649,0.2578125 -0.9077149,0.7358398 -0.34375,0.4780273 -0.34375,1.1171875 0,0.5639648 0.3007813,1.0366211 0.3007812,0.4672851 0.8325195,0.746582 0.5371094,0.2739258 1.2084961,0.2739258 0.5424805,0 1.0258789,-0.1289062 Q 6.590332,-1.9013672 6.9179687,-2.0625 7.2509766,-2.2236328 7.6000977,-2.4438477 Z" id="path1" />
      <path style="letter-spacing:-0.01em" d="M 14.760332,0 H 9.1045704 v -7.4443359 h 2.2451176 v 5.6611328 h 3.410644 z" id="path2" />
      <path d="M 24.089375,0 H 21.790546 L 21.183613,-1.5092773 H 17.950214 L 17.332539,0 H 15.03371 l 3.292481,-7.4443359 h 2.481445 z m -3.421387,-2.8037109 -1.090332,-2.7177735 -1.101074,2.7177735 z m 10.85498,-2.2988282 q 0,0.4135743 -0.145019,0.8110352 -0.139649,0.3920898 -0.456543,0.7358398 -0.316895,0.3383789 -0.859375,0.5532227 -0.53711,0.2094726 -1.267578,0.2094726 h -1.47168 V 0 h -2.245117 v -7.4443359 h 3.716797 q 0.730468,0 1.267578,0.2148437 0.54248,0.2148438 0.859375,0.5585938 0.316894,0.34375 0.456543,0.746582 0.145019,0.402832 0.145019,0.8217773 z m -2.288086,0.010742 q 0,-0.5317383 -0.316894,-0.7250976 -0.311524,-0.1987305 -1.122559,-0.1987305 h -0.472656 v 1.7939453 h 0.483398 q 0.558594,0 0.859375,-0.069824 0.300782,-0.069824 0.435059,-0.2578125 0.134277,-0.1879883 0.134277,-0.5424807 z" id="path3" />
    </g>
    <path d="m 57.383517,334.63575 q 0,0.50781 -0.214609,0.8789 -0.211407,0.3711 -0.592578,0.57031 -0.381172,0.19532 -0.874454,0.19532 -0.137734,0 -0.339531,-0.0234 -0.198594,-0.0195 -0.531719,-0.11719 -0.329921,-0.0976 -0.688671,-0.28906 v -1.32813 q 0.336328,0.25391 0.659843,0.42188 0.326719,0.16797 0.698282,0.16797 0.342734,0 0.442031,-0.13672 0.1025,-0.14063 0.1025,-0.26172 0,-0.21875 -0.172969,-0.36719 -0.172969,-0.15234 -0.502891,-0.3125 -0.365156,-0.1875 -0.640625,-0.40625 -0.275468,-0.22265 -0.45164,-0.55468 -0.172969,-0.33204 -0.172969,-0.78516 0,-0.4375 0.176172,-0.78906 0.176172,-0.35547 0.538125,-0.56641 0.361953,-0.21094 0.884062,-0.21094 0.371563,0 0.685469,0.0899 0.31711,0.0859 0.52211,0.19531 0.205,0.10938 0.281875,0.17188 v 1.26953 q -0.272266,-0.23829 -0.608594,-0.42579 -0.333125,-0.1875 -0.714297,-0.1875 -0.249844,0 -0.361953,0.11719 -0.11211,0.11719 -0.11211,0.28906 0,0.16016 0.11211,0.27735 0.112109,0.11719 0.40039,0.28515 0.5125,0.29297 0.82,0.52735 0.3075,0.23437 0.480469,0.54297 0.176172,0.30468 0.176172,0.76172 z m 4.103203,1.375 q -0.253047,0.12109 -0.467656,0.19531 -0.214609,0.0742 -0.515703,0.0742 -0.285078,0 -0.397188,-0.1211 -0.112109,-0.125 -0.160156,-0.30078 -0.185781,0.1836 -0.413203,0.30469 -0.227422,0.11719 -0.595781,0.11719 -0.355547,0 -0.576563,-0.14844 -0.217812,-0.15234 -0.3075,-0.37891 -0.08648,-0.23047 -0.08648,-0.47265 0,-0.36719 0.150547,-0.60547 0.15375,-0.24219 0.41,-0.39453 0.25625,-0.15235 0.679062,-0.31641 0.240235,-0.0937 0.361953,-0.14062 0.124922,-0.0508 0.185782,-0.0781 0.06086,-0.0273 0.128125,-0.0703 0,-0.28906 -0.09609,-0.45313 -0.09609,-0.16406 -0.416406,-0.16406 -0.377969,0 -0.701485,0.20313 -0.323515,0.20312 -0.592578,0.52343 v -1.07812 q 0.214609,-0.1875 0.464453,-0.30469 0.249844,-0.12109 0.52211,-0.17969 0.272265,-0.0586 0.550937,-0.0586 0.707891,0 1.063438,0.33594 0.35875,0.33203 0.35875,0.91797 v 1.53515 q 0,0.21875 0.03203,0.32813 0.03523,0.10547 0.124922,0.10547 0.108906,0 0.294687,-0.11329 z m -1.604765,-0.76172 v -0.94141 q -0.41,0.20313 -0.598985,0.36719 -0.188984,0.16015 -0.188984,0.4375 0,0.19922 0.09289,0.30469 0.09609,0.10546 0.221016,0.10546 0.118516,0 0.233828,-0.0781 0.118516,-0.082 0.240235,-0.19531 z m 4.538828,0.73047 q -0.179375,0.10546 -0.496485,0.20312 -0.313906,0.0977 -0.602187,0.0977 -1.246016,0 -1.246016,-1.48438 V 333.21 h -0.522109 v -0.24609 l 1.547109,-1.92187 h 0.131328 v 1.1914 h 1.101875 V 333.21 h -1.101875 v 1.27344 q 0,0.22266 0.02242,0.35938 0.02242,0.13672 0.124922,0.23047 0.105703,0.0898 0.31711,0.0898 0.275468,0 0.723905,-0.28125 z m 3.943047,0.23046 h -1.156329 v -0.5664 q -0.243437,0.32031 -0.512499,0.48047 -0.26586,0.15625 -0.640625,0.15625 -0.739922,0 -0.957735,-0.52344 -0.217812,-0.52734 -0.217812,-1.1875 v -2.33594 h 1.156328 v 2.14844 q 0,0.32422 0.08648,0.57031 0.08969,0.24219 0.384375,0.24219 0.253047,0 0.400391,-0.17578 0.147343,-0.17578 0.301093,-0.44922 v -2.33594 h 1.156329 z m 3.603515,-3.76171 -0.426015,1.41015 q -0.262657,-0.30469 -0.531719,-0.30469 -0.243438,0 -0.422813,0.20313 -0.176172,0.19922 -0.339531,0.74219 v 1.71093 h -1.153125 v -3.97656 h 1.153125 v 0.96094 q 0.108906,-0.35547 0.384375,-0.69141 0.275469,-0.33984 0.647031,-0.33984 0.195391,0 0.339532,0.0703 0.147343,0.0703 0.34914,0.21485 z m 3.657969,3.5625 q -0.253047,0.12109 -0.467656,0.19531 -0.21461,0.0742 -0.515703,0.0742 -0.285079,0 -0.397188,-0.1211 -0.112109,-0.125 -0.160156,-0.30078 -0.185781,0.1836 -0.413203,0.30469 -0.227422,0.11719 -0.595782,0.11719 -0.355546,0 -0.576562,-0.14844 -0.217813,-0.15234 -0.3075,-0.37891 -0.08648,-0.23047 -0.08648,-0.47265 0,-0.36719 0.150546,-0.60547 0.15375,-0.24219 0.41,-0.39453 0.25625,-0.15235 0.679063,-0.31641 0.240234,-0.0937 0.361953,-0.14062 0.124922,-0.0508 0.185781,-0.0781 0.06086,-0.0273 0.128125,-0.0703 0,-0.28906 -0.09609,-0.45313 -0.09609,-0.16406 -0.416407,-0.16406 -0.377968,0 -0.701484,0.20313 -0.323516,0.20312 -0.592578,0.52343 v -1.07812 q 0.214609,-0.1875 0.464453,-0.30469 0.249844,-0.12109 0.522109,-0.17969 0.272266,-0.0586 0.550938,-0.0586 0.70789,0 1.063437,0.33594 0.35875,0.33203 0.35875,0.91797 v 1.53515 q 0,0.21875 0.03203,0.32813 0.03524,0.10547 0.124922,0.10547 0.108906,0 0.294687,-0.11329 z m -1.604766,-0.76172 v -0.94141 q -0.41,0.20313 -0.598984,0.36719 -0.188984,0.16015 -0.188984,0.4375 0,0.19922 0.09289,0.30469 0.09609,0.10546 0.221016,0.10546 0.118515,0 0.233828,-0.0781 0.118516,-0.082 0.240234,-0.19531 z m 4.538828,0.73047 q -0.179375,0.10546 -0.496484,0.20312 -0.313906,0.0977 -0.602187,0.0977 -1.246016,0 -1.246016,-1.48438 V 333.21 H 75.69258 v -0.24609 l 1.547109,-1.92187 h 0.131328 v 1.1914 h 1.101875 V 333.21 h -1.101875 v 1.27344 q 0,0.22266 0.02242,0.35938 0.02242,0.13672 0.124922,0.23047 0.105703,0.0898 0.31711,0.0898 0.275468,0 0.723906,-0.28125 z m 1.627188,-4.66407 q 0,0.2461 -0.144141,0.41797 -0.14414,0.17188 -0.342734,0.17188 -0.134531,0 -0.246641,-0.0781 -0.108906,-0.0781 -0.172968,-0.21094 -0.06407,-0.13671 -0.06407,-0.30078 0,-0.24218 0.140938,-0.41797 0.140937,-0.17578 0.342733,-0.17578 0.198595,0 0.342735,0.17578 0.14414,0.17579 0.14414,0.41797 z m 0.09289,4.89453 h -1.156329 v -3.97656 h 1.156329 z m 4.394687,-1.99218 q 0,0.59375 -0.211406,1.05859 -0.211406,0.46484 -0.634219,0.73438 -0.419609,0.26953 -1.025,0.26953 -0.605391,0 -1.028203,-0.26953 -0.419609,-0.26954 -0.631016,-0.73438 -0.208203,-0.46484 -0.208203,-1.05859 0,-0.44922 0.115313,-0.81641 0.118515,-0.36719 0.355547,-0.64844 0.240234,-0.28515 0.589375,-0.4375 0.34914,-0.15234 0.807187,-0.15234 0.46125,0 0.813594,0.15625 0.355547,0.15234 0.586172,0.42969 0.233828,0.27734 0.352343,0.64843 0.118516,0.3711 0.118516,0.82032 z m -1.213984,0 q 0,-0.47266 -0.169766,-0.73828 -0.166562,-0.26954 -0.486875,-0.26954 -0.317109,0 -0.486875,0.26954 -0.166562,0.26562 -0.166562,0.73828 0,0.46875 0.169765,0.74218 0.169766,0.27344 0.483672,0.27344 0.320313,0 0.486875,-0.26953 0.169766,-0.27344 0.169766,-0.74609 z m 5.294765,1.99218 h -1.153125 v -2.14453 q 0,-0.32812 -0.08969,-0.57031 -0.08649,-0.24609 -0.384375,-0.24609 -0.140938,0 -0.249844,0.0664 -0.105703,0.0625 -0.192187,0.16407 -0.08328,0.10156 -0.140938,0.19531 -0.05765,0.0937 -0.118516,0.19922 v 2.33593 h -1.153125 v -3.97656 h 1.153125 v 0.57031 q 0.272266,-0.35546 0.544532,-0.49609 0.275468,-0.14453 0.611797,-0.14453 1.172343,0 1.172343,1.71094 z" id="text507" style="font-weight:700;font-size:8px;font-family:GillSans-Bold, 'Gill Sans';stroke-width:0.905538" aria-label="Saturation" />
    <path style="fill:none;stroke:#000000;stroke-width:1.1678;stroke-dasharray:none;stroke-opacity:1" d="m 39.674023,307.12067 v 22.03678" id="path24" transform="scale(0.74999597)" />
    <path style="fill:none;stroke:#000000;stroke-width:1.1678;stroke-dasharray:none;stroke-opacity:1" d="m 39.674023,343.37457 v 22.03678" id="path24-7" transform="scale(0.74999597)" />
  </g>
  <g /></svg>