<svg xmlns="http://www.w3.org/2000/svg" xmlns:inkscape="http://www.inkscape.org/namespaces/inkscape" xmlns:sodipodi="http://sodipodi.sourceforge.net/DTD/sodipodi-0.dtd" width="20.320108mm" height="128.5mm" viewBox="0 0 76.800412 485.66929" version="1.1" id="svg45" sodipodi:docname="Clave_info.svg" inkscape:version="1.4 (e7c3feb1, 2024-10-09)">
  <sodipodi:namedview id="namedview45" pagecolor="#ffffff" bordercolor="#000000" borderopacity="0.25" inkscape:showpageshadow="2" inkscape:pageopacity="0.0" inkscape:pagecheckerboard="0" inkscape:deskcolor="#d1d1d1" inkscape:zoom="2.3212253" inkscape:cx="38.772626" inkscape:cy="301.99567" inkscape:window-width="1200" inkscape:window-height="1027" inkscape:window-x="2560" inkscape:window-y="159" inkscape:window-maximized="0" inkscape:current-layer="components" inkscape:document-units="mm" />
  <defs id="defs4">
    <clipPath id="clippath">
      <rect x="14.9" y="32.98" width="27.799999" height="25.620001" style="fill:none" id="rect1" />
    </clipPath>
    <clipPath id="clippath-1">
      <rect x="14.9" y="32.98" width="27.799999" height="25.620001" style="fill:none" id="rect2" />
    </clipPath>
    <clipPath id="clippath-2">
      <rect x="14.9" y="129.37" width="27.799999" height="25.620001" style="fill:none" id="rect3" />
    </clipPath>
    <clipPath id="clippath-3">
      <rect x="14.9" y="129.37" width="27.799999" height="25.620001" style="fill:none" id="rect4" />
    </clipPath>
  </defs>
  <g id="faceplate" transform="scale(1.3333405)">
    <g id="g5">
      <rect x="0.13" y="0.13" width="57.349998" height="364" style="fill:#ededed" id="rect5" />
      <path d="M 57.35,0.25 V 364 H 0.25 V 0.25 h 57.1 M 57.6,0 H 0 v 364.25 h 57.6 z" style="fill:#9d9d9e" id="path5" />
    </g>
    <path d="m 44.27,252.90621 c 0,-8.05 -6.98,-14.57 -15.59,-14.57 -8.61,0 -15.59,6.53 -15.59,14.57 v 54.4 c 0,0 0,0 0,0 v 19.77 c 0,3.11 2.55,5.65 5.67,5.65 H 38.6 c 3.12,0 5.67,-2.54 5.67,-5.65 v -19.77 c 0,0 0,0 0,0 v -54.39 z" style="fill:#d1d3d4" id="path6" />
    <path d="m 44.27,301.94621 c 0,-8.05 -6.98,-14.57 -15.59,-14.57 -8.61,0 -15.59,6.53 -15.59,14.57 v 5.36 c 0,0 0,0 0,0 v 19.77 c 0,3.11 2.55,5.65 5.67,5.65 H 38.6 c 3.12,0 5.67,-2.54 5.67,-5.65 v -19.77 c 0,0 0,0 0,0 v -5.35 z" id="path7" />
    <g id="text10" style="font-weight:700;font-size:11px;font-family:GillSans-Bold, 'Gill Sans'" transform="matrix(0.82,0,0,1,12.9,348.33621)" aria-label="CLAVE">
      <path d="M 7.6000977,-0.55859375 Q 7.1381836,-0.31689453 6.6547852,-0.171875 6.1713867,-0.02685547 5.6772461,0.03222656 5.1884766,0.09667969 4.6621094,0.09667969 q -0.972168,0 -1.7456055,-0.26855469 Q 2.1484375,-0.44042969 1.5791016,-0.96142578 1.0151367,-1.487793 0.73046875,-2.1860352 0.45117188,-2.8896484 0.45117188,-3.7275391 q 0,-0.9614257 0.33300781,-1.6811523 0.33300781,-0.7250977 0.92919921,-1.203125 0.6015625,-0.4780273 1.3642578,-0.7036133 0.7680664,-0.230957 1.6166992,-0.230957 1.2675782,0 2.8735352,0.5639648 v 1.9765625 q -0.5532227,-0.34375 -1.0957031,-0.5693359 -0.5371094,-0.230957 -1.2675782,-0.230957 -0.6499023,0 -1.2138671,0.2578125 -0.5639649,0.2578125 -0.9077149,0.7358398 -0.34375,0.4780273 -0.34375,1.1171875 0,0.5639648 0.3007813,1.0366211 0.3007812,0.4672851 0.8325195,0.746582 0.5371094,0.2739258 1.2084961,0.2739258 0.5424805,0 1.0258789,-0.1289062 Q 6.590332,-1.9013672 6.9179687,-2.0625 7.2509766,-2.2236328 7.6000977,-2.4438477 Z" id="path45" />
      <path style="letter-spacing:-0.01em" d="M 14.760332,0 H 9.1045704 v -7.4443359 h 2.2451176 v 5.6611328 h 3.410644 z" id="path46" />
      <path style="letter-spacing:-0.07em" d="M 24.089375,0 H 21.790546 L 21.183613,-1.5092773 H 17.950214 L 17.332539,0 H 15.03371 l 3.292481,-7.4443359 h 2.481445 z m -3.421387,-2.8037109 -1.090332,-2.7177735 -1.101074,2.7177735 z" id="path47" />
      <path d="M 31.567774,-7.4443359 28.21084,0.09667969 h -1.482422 l -3.29248,-7.54101559 h 2.336426 l 1.702636,4.296875 1.750977,-4.296875 z M 38.201075,0 h -5.612793 v -7.4443359 h 5.521484 v 1.493164 h -3.276367 v 1.3642578 h 3.125976 v 1.4985352 h -3.125976 v 1.5898437 h 3.367676 z" id="path48" />
    </g>
    <path d="m 21.376562,276.29855 h -1.746249 v 4.09766 h -1.433438 v -4.09766 h -1.74625 v -1.31641 h 4.925937 z m 3.228088,0.33594 -0.457188,1.41015 q -0.281875,-0.30468 -0.570625,-0.30468 -0.26125,0 -0.45375,0.20312 -0.189062,0.19922 -0.364375,0.74219 v 1.71094 h -1.2375 v -3.97657 h 1.2375 v 0.96094 q 0.116875,-0.35547 0.4125,-0.69141 0.295625,-0.33984 0.694375,-0.33984 0.209688,0 0.364375,0.0703 0.158125,0.0703 0.374688,0.21485 z m 1.014337,-1.13282 q 0,0.2461 -0.154687,0.41797 -0.154688,0.17188 -0.367813,0.17188 -0.144375,0 -0.264687,-0.0781 -0.116875,-0.0781 -0.185625,-0.21093 -0.06875,-0.13672 -0.06875,-0.30079 0,-0.24218 0.15125,-0.41796 0.15125,-0.17579 0.367812,-0.17579 0.213125,0 0.367813,0.17579 0.154687,0.17578 0.154687,0.41796 z m 0.09969,4.89454 h -1.240938 v -3.97657 h 1.240938 z m 4.0909,-3.12891 H 29.1977 q 0.323125,0.32031 0.323125,0.78516 0,0.24609 -0.09281,0.47265 -0.08938,0.22656 -0.268126,0.40235 -0.175312,0.17578 -0.436562,0.28906 -0.257812,0.10937 -0.59125,0.13281 -0.429688,0.0195 -0.429688,0.26172 0,0.0937 0.055,0.13672 0.055,0.043 0.171876,0.0664 0.120312,0.0195 0.402187,0.0469 0.319687,0.0312 0.594687,0.10937 0.275,0.0781 0.512188,0.32813 0.237188,0.25 0.237188,0.71484 0,0.3711 -0.17875,0.65625 -0.175313,0.28516 -0.570626,0.44532 -0.395312,0.16015 -1.045,0.16015 -0.935,0 -1.375,-0.28515 -0.436562,-0.28516 -0.436562,-0.76172 0,-0.12891 0.055,-0.29688 0.05844,-0.16797 0.240625,-0.32422 0.185625,-0.15625 0.53625,-0.21093 -0.12375,-0.0508 -0.213125,-0.19532 -0.08938,-0.14843 -0.08938,-0.30859 0,-0.20703 0.12375,-0.41016 0.127187,-0.20312 0.409063,-0.26172 -0.391876,-0.11718 -0.677188,-0.4414 -0.285312,-0.32422 -0.285312,-0.83985 0,-0.39062 0.130624,-0.68359 0.134063,-0.29297 0.367813,-0.47656 0.23375,-0.1836 0.543125,-0.26953 0.309375,-0.0899 0.677188,-0.0899 h 1.921562 z m -1.368125,0.67187 q 0,-0.30078 -0.182187,-0.48046 -0.17875,-0.1836 -0.402188,-0.1836 -0.285312,0 -0.450312,0.21875 -0.161563,0.21875 -0.161563,0.46094 0,0.16797 0.06875,0.3125 0.07219,0.14453 0.199375,0.23437 0.130625,0.0859 0.309375,0.0859 0.268125,0 0.443438,-0.1914 0.175312,-0.19141 0.175312,-0.45704 z m 0.2475,3.19922 q 0,-0.26172 -0.2475,-0.33984 -0.244063,-0.0742 -0.505313,-0.0742 -0.429687,0 -0.622187,0.10156 -0.189063,0.10547 -0.189063,0.33203 0,0.44532 0.790626,0.44532 0.354062,0 0.56375,-0.11719 0.209687,-0.11328 0.209687,-0.34766 z m 4.802463,-3.87109 H 32.87954 q 0.323125,0.32031 0.323125,0.78516 0,0.24609 -0.09281,0.47265 -0.08938,0.22656 -0.268125,0.40235 -0.175312,0.17578 -0.436562,0.28906 -0.257813,0.10937 -0.59125,0.13281 -0.429688,0.0195 -0.429688,0.26172 0,0.0937 0.055,0.13672 0.055,0.043 0.171875,0.0664 0.120313,0.0195 0.402188,0.0469 0.319687,0.0312 0.594687,0.10937 0.275,0.0781 0.512188,0.32813 0.237187,0.25 0.237187,0.71484 0,0.3711 -0.17875,0.65625 -0.175312,0.28516 -0.570625,0.44532 -0.395312,0.16015 -1.045,0.16015 -0.935,0 -1.375,-0.28515 -0.436562,-0.28516 -0.436562,-0.76172 0,-0.12891 0.055,-0.29688 0.05844,-0.16797 0.240625,-0.32422 0.185625,-0.15625 0.53625,-0.21093 -0.12375,-0.0508 -0.213125,-0.19532 -0.08938,-0.14843 -0.08938,-0.30859 0,-0.20703 0.12375,-0.41016 0.127187,-0.20312 0.409062,-0.26172 -0.391875,-0.11718 -0.677187,-0.4414 -0.285313,-0.32422 -0.285313,-0.83985 0,-0.39062 0.130625,-0.68359 0.134063,-0.29297 0.367813,-0.47656 0.23375,-0.1836 0.543125,-0.26953 0.309375,-0.0899 0.677187,-0.0899 h 1.921563 z m -1.368125,0.67187 q 0,-0.30078 -0.182188,-0.48046 -0.17875,-0.1836 -0.402187,-0.1836 -0.285313,0 -0.450313,0.21875 -0.161562,0.21875 -0.161562,0.46094 0,0.16797 0.06875,0.3125 0.07219,0.14453 0.199374,0.23437 0.130626,0.0859 0.309376,0.0859 0.268124,0 0.443437,-0.1914 0.175313,-0.19141 0.175313,-0.45704 z m 0.2475,3.19922 q 0,-0.26172 -0.2475,-0.33984 -0.244063,-0.0742 -0.505313,-0.0742 -0.429687,0 -0.622187,0.10156 -0.189063,0.10547 -0.189063,0.33203 0,0.44532 0.790625,0.44532 0.354063,0 0.56375,-0.11719 0.209688,-0.11328 0.209688,-0.34766 z m 4.87121,-2.39062 h -2.464688 q 0.07219,0.36328 0.354063,0.59375 0.281875,0.23047 0.639375,0.23047 0.625625,0 1.381875,-0.39844 v 0.87109 q -0.271563,0.16016 -0.66,0.29297 -0.385,0.12891 -0.983125,0.12891 -0.64625,0 -1.1,-0.27344 -0.45375,-0.27344 -0.680625,-0.74219 -0.223438,-0.46875 -0.223438,-1.0625 0,-0.58593 0.223438,-1.04687 0.226875,-0.46485 0.680625,-0.72656 0.45375,-0.26563 1.1,-0.26563 0.42625,0 0.821562,0.21094 0.39875,0.20703 0.653125,0.68359 0.257813,0.47266 0.257813,1.22266 z m -1.161875,-0.69531 q 0,-0.38282 -0.168438,-0.60938 -0.165,-0.23047 -0.477812,-0.23047 -0.309375,0 -0.501875,0.23438 -0.189063,0.23047 -0.189063,0.60547 z m 4.565275,-1.41797 -0.457187,1.41015 q -0.281876,-0.30468 -0.570626,-0.30468 -0.26125,0 -0.45375,0.20312 -0.189062,0.19922 -0.364374,0.74219 v 1.71094 h -1.2375 v -3.97657 h 1.2375 v 0.96094 q 0.116874,-0.35547 0.4125,-0.69141 0.295624,-0.33984 0.694374,-0.33984 0.209688,0 0.364376,0.0703 0.158124,0.0703 0.374687,0.21485 z" id="text11" style="font-weight:700;font-size:8px;font-family:GillSans-Bold, 'Gill Sans';letter-spacing:-0.04em;stroke-width:0.938083" aria-label="Trigger" />
    <path d="m 27.765937,325.87527 q 0,0.75781 -0.309375,1.39453 -0.305937,0.63672 -0.914375,1.01172 -0.608437,0.375 -1.481562,0.375 -0.883437,0 -1.495313,-0.39063 -0.611875,-0.39062 -0.910937,-1.02734 -0.295625,-0.63672 -0.295625,-1.36328 0,-0.73047 0.295625,-1.36328 0.295625,-0.63672 0.9075,-1.02344 0.615313,-0.39063 1.49875,-0.39063 0.66,0 1.175625,0.22266 0.519062,0.22266 0.8525,0.60547 0.333437,0.37891 0.505312,0.88672 0.171875,0.5039 0.171875,1.0625 z m -1.464375,0 q 0,-0.30469 -0.07906,-0.55469 -0.07906,-0.25391 -0.240625,-0.4375 -0.158125,-0.1875 -0.388438,-0.28906 -0.230312,-0.10547 -0.532812,-0.10547 -0.5775,0 -0.9075,0.38281 -0.33,0.38281 -0.33,1.00391 0,0.62109 0.33,1.00781 0.333437,0.38281 0.9075,0.38281 0.395312,0 0.67375,-0.17578 0.278437,-0.17969 0.422812,-0.49219 0.144375,-0.3164 0.144375,-0.72265 z m 5.562151,2.71094 h -1.240938 v -0.56641 q -0.26125,0.32031 -0.55,0.48047 -0.285313,0.15625 -0.6875,0.15625 -0.794063,0 -1.027813,-0.52344 -0.23375,-0.52734 -0.23375,-1.1875 v -2.33594 h 1.240938 v 2.14844 q 0,0.32422 0.09281,0.57031 0.09625,0.24219 0.4125,0.24219 0.271563,0 0.429688,-0.17578 0.158125,-0.17578 0.323125,-0.44922 v -2.33594 h 1.240938 z m 3.269337,-0.23047 q -0.1925,0.10547 -0.532813,0.20312 -0.336875,0.0977 -0.64625,0.0977 -1.337187,0 -1.337187,-1.48438 v -1.58593 h -0.560313 v -0.2461 l 1.660313,-1.92187 h 0.140937 v 1.1914 h 1.1825 v 0.97657 h -1.1825 v 1.27343 q 0,0.22266 0.02406,0.35938 0.02406,0.13672 0.134062,0.23047 0.113438,0.0898 0.340313,0.0898 0.295625,0 0.776875,-0.28125 z" id="text12" style="font-weight:700;font-size:8px;font-family:GillSans-Bold, 'Gill Sans';letter-spacing:-0.04em;fill:#ffffff;stroke-width:0.938083" aria-label="Out" />
    <g id="pips_-_fewest" data-name="pips - fewest" transform="translate(0,5.8158629)">
      <g clip-path="url(#clippath)" id="g22">
        <g clip-path="url(#clippath-1)" id="g21">
          <path d="m 34.49,35.76 0.71,-1.23 c -1.74,-0.9 -3.7,-1.45 -5.77,-1.55 v 1.43 c 1.81,0.09 3.53,0.56 5.06,1.35" id="path12" />
          <path d="m 39.29,40.1 1.23,-0.71 C 39.43,37.7 37.99,36.25 36.3,35.17 l -0.71,1.23 c 1.48,0.96 2.74,2.22 3.7,3.7" id="path13" />
          <path d="M 22.01,36.4 21.3,35.17 c -1.69,1.09 -3.14,2.53 -4.22,4.22 l 1.23,0.71 c 0.96,-1.48 2.22,-2.74 3.7,-3.7" id="path14" />
          <path d="m 41.27,46.25 h 1.43 c -0.09,-2.07 -0.64,-4.03 -1.55,-5.77 l -1.23,0.71 c 0.79,1.53 1.26,3.24 1.35,5.06" id="path15" />
          <path d="m 28.17,34.41 v -1.43 c -2.07,0.09 -4.03,0.64 -5.77,1.55 l 0.71,1.23 c 1.53,-0.79 3.24,-1.26 5.06,-1.35" id="path16" />
          <path d="m 18.31,53.67 -1.23,0.71 c 1.09,1.69 2.53,3.14 4.22,4.22 l 0.71,-1.23 c -1.48,-0.96 -2.74,-2.22 -3.7,-3.7" id="path17" />
          <path d="m 35.59,57.38 0.71,1.23 c 1.69,-1.09 3.14,-2.53 4.22,-4.22 l -1.23,-0.71 c -0.96,1.48 -2.22,2.74 -3.7,3.7" id="path18" />
          <path d="m 41.27,47.52 c -0.09,1.81 -0.56,3.53 -1.35,5.06 l 1.23,0.71 c 0.9,-1.74 1.45,-3.7 1.55,-5.77 z" id="path19" />
          <path d="M 16.33,47.52 H 14.9 c 0.09,2.07 0.64,4.03 1.55,5.77 l 1.23,-0.71 c -0.79,-1.53 -1.26,-3.24 -1.35,-5.06" id="path20" />
          <path d="m 17.68,41.2 -1.23,-0.71 c -0.9,1.74 -1.45,3.7 -1.55,5.77 h 1.43 c 0.09,-1.81 0.56,-3.53 1.35,-5.06" id="path21" />
        </g>
      </g>
    </g>
    <g id="pips_-_fewest-2" data-name="pips - fewest" transform="translate(0,5.8158629)">
      <g clip-path="url(#clippath-2)" id="g32">
        <g clip-path="url(#clippath-3)" id="g31">
          <path d="m 34.49,132.15 0.71,-1.23 c -1.74,-0.9 -3.7,-1.45 -5.77,-1.55 v 1.43 c 1.81,0.09 3.53,0.56 5.06,1.35" id="path22" />
          <path d="m 39.29,136.48 1.23,-0.71 c -1.09,-1.69 -2.53,-3.14 -4.22,-4.22 l -0.71,1.23 c 1.48,0.96 2.74,2.22 3.7,3.7" id="path23" />
          <path d="m 22.01,132.78 -0.71,-1.23 c -1.69,1.09 -3.14,2.53 -4.22,4.22 l 1.23,0.71 c 0.96,-1.48 2.22,-2.74 3.7,-3.7" id="path24" />
          <path d="m 41.27,142.64 h 1.43 c -0.09,-2.07 -0.64,-4.03 -1.55,-5.77 l -1.23,0.71 c 0.79,1.53 1.26,3.24 1.35,5.06" id="path25" />
          <path d="m 28.17,130.8 v -1.43 c -2.07,0.09 -4.03,0.64 -5.77,1.55 l 0.71,1.23 c 1.53,-0.79 3.24,-1.26 5.06,-1.35" id="path26" />
          <path d="m 18.31,150.06 -1.23,0.71 c 1.09,1.69 2.53,3.14 4.22,4.22 l 0.71,-1.23 c -1.48,-0.96 -2.74,-2.22 -3.7,-3.7" id="path27" />
          <path d="m 35.59,153.76 0.71,1.23 c 1.69,-1.09 3.14,-2.53 4.22,-4.22 l -1.23,-0.71 c -0.96,1.48 -2.22,2.74 -3.7,3.7" id="path28" />
          <path d="m 41.27,143.9 c -0.09,1.81 -0.56,3.53 -1.35,5.06 l 1.23,0.71 c 0.9,-1.74 1.45,-3.7 1.55,-5.77 z" id="path29" />
          <path d="M 16.33,143.9 H 14.9 c 0.09,2.07 0.64,4.03 1.55,5.77 l 1.23,-0.71 c -0.79,-1.53 -1.26,-3.24 -1.35,-5.06" id="path30" />
          <path d="m 17.68,137.58 -1.23,-0.71 c -0.9,1.74 -1.45,3.7 -1.55,5.77 h 1.43 c 0.09,-1.81 0.56,-3.53 1.35,-5.06" id="path31" />
        </g>
      </g>
    </g>
    <path d="m 23.903906,71.117191 q 0,0.375977 -0.116015,0.737305 -0.111719,0.356445 -0.365235,0.668945 -0.253515,0.307617 -0.6875,0.50293 Q 22.305469,73.2168 21.721094,73.2168 H 20.54375 v 2.539063 h -1.796094 v -6.767578 h 2.973438 q 0.584375,0 1.014062,0.195312 0.433985,0.195313 0.6875,0.507813 0.253516,0.3125 0.365235,0.678711 0.116015,0.366211 0.116015,0.74707 z m -1.830469,0.0098 q 0,-0.483399 -0.253515,-0.65918 -0.249219,-0.180668 -0.898047,-0.180668 H 20.54375 v 1.630859 h 0.386719 q 0.446875,0 0.6875,-0.06348 0.240625,-0.06348 0.348047,-0.234375 0.107421,-0.170898 0.107421,-0.493164 z m 3.725735,-1.489258 q 0,0.307617 -0.19336,0.522461 -0.193359,0.214844 -0.459765,0.214844 -0.180469,0 -0.33086,-0.09766 -0.146093,-0.09766 -0.232031,-0.263672 -0.08594,-0.170899 -0.08594,-0.375977 0,-0.302734 0.189062,-0.522461 0.189063,-0.219726 0.459766,-0.219726 0.266406,0 0.459766,0.219726 0.193359,0.219727 0.193359,0.522461 z m 0.124609,6.11816 H 24.372609 V 70.78516 h 1.551172 z m 4.164016,-0.288086 q -0.240625,0.131836 -0.666016,0.253906 -0.421094,0.12207 -0.807812,0.12207 -1.671485,0 -1.671485,-1.855468 v -1.982422 h -0.70039 v -0.307617 l 2.07539,-2.402344 h 0.176172 v 1.489258 h 1.478125 v 1.220703 h -1.478125 v 1.591797 q 0,0.27832 0.03008,0.449218 0.03008,0.170899 0.167579,0.288086 0.141796,0.112305 0.42539,0.112305 0.369531,0 0.971094,-0.351562 z m 4.073781,0.05859 q -0.193359,0.08301 -0.408203,0.15625 -0.214844,0.06836 -0.485547,0.112304 -0.266406,0.04883 -0.584375,0.04883 -0.717578,0 -1.216016,-0.273437 -0.49414,-0.27832 -0.764843,-0.693359 -0.266407,-0.419922 -0.369531,-0.854493 -0.103126,-0.43457 -0.103126,-0.766601 0,-0.332031 0.103126,-0.766602 0.107421,-0.43457 0.369531,-0.839843 0.262109,-0.405274 0.75625,-0.678711 0.498437,-0.273438 1.224609,-0.273438 0.485547,0 0.790625,0.07813 0.305079,0.07813 0.61875,0.209961 v 1.381836 q -0.75625,-0.273438 -1.181641,-0.273438 -0.4125,0 -0.734765,0.283204 -0.317969,0.283203 -0.317969,0.878906 0,0.395508 0.158984,0.668945 0.158985,0.268555 0.403907,0.395508 0.244922,0.126953 0.489843,0.126953 0.232032,0 0.528516,-0.07813 0.296484,-0.07813 0.721875,-0.224609 z m 5.070656,0.229492 h -1.546875 v -2.578125 q 0,-0.0293 0,-0.05371 0.0043,-0.0293 0.0043,-0.117188 0,-0.356445 -0.133203,-0.654297 -0.133203,-0.297851 -0.507031,-0.297851 -0.292188,0 -0.515626,0.224609 -0.223437,0.219727 -0.42539,0.556641 v 2.919922 h -1.546876 v -6.767578 h 1.546876 v 2.509765 q 0.382421,-0.463867 0.75625,-0.629882 0.373828,-0.170899 0.794921,-0.170899 1.572657,0 1.572657,2.006836 z" id="text32" style="font-weight:700;font-size:10px;font-family:GillSans-Bold, 'Gill Sans';letter-spacing:-0.04em;stroke-width:0.938083" aria-label="Pitch" />
    <path d="m 22.810703,168.84414 q 0,1.04004 -0.335156,1.66993 -0.33086,0.62988 -0.782031,1.0205 -0.640235,0.57129 -1.791797,0.57129 h -3.214063 v -6.76758 h 2.475 q 0.558594,0 0.953906,0.0684 0.39961,0.0635 0.717579,0.18555 0.317968,0.11719 0.541406,0.26856 0.223437,0.14648 0.399609,0.31738 0.305078,0.2832 0.532813,0.66894 0.232031,0.38575 0.365234,0.89356 0.1375,0.50781 0.1375,1.10351 z m -1.826172,-0.0879 q 0,-0.82519 -0.279297,-1.28418 -0.275,-0.46386 -0.666015,-0.62011 Q 19.6525,166.6957 19.248594,166.6957 H 18.48375 v 4.00879 h 0.764844 q 0.704687,0 1.220312,-0.38086 0.515625,-0.38086 0.515625,-1.56739 z m 6.815188,1.28907 h -3.08086 q 0.09024,0.4541 0.442578,0.74218 0.352344,0.28809 0.799219,0.28809 0.782031,0 1.727344,-0.49805 v 1.08887 q -0.339453,0.20019 -0.825,0.36621 -0.48125,0.16113 -1.228906,0.16113 -0.807813,0 -1.375,-0.34179 -0.567188,-0.3418 -0.850782,-0.92774 -0.279296,-0.58594 -0.279296,-1.32812 0,-0.73243 0.279296,-1.3086 0.283594,-0.58105 0.850782,-0.9082 0.567187,-0.33203 1.375,-0.33203 0.532812,0 1.026953,0.26367 0.498437,0.25879 0.816406,0.85449 0.322266,0.59082 0.322266,1.52832 z m -1.452344,-0.86915 q 0,-0.47851 -0.210547,-0.76171 -0.20625,-0.28809 -0.597265,-0.28809 -0.386719,0 -0.627344,0.29297 -0.236328,0.28808 -0.236328,0.75683 z m 5.607765,2.7002 q -0.193359,0.083 -0.408203,0.15625 -0.214844,0.0684 -0.485547,0.1123 -0.266406,0.0488 -0.584374,0.0488 -0.717579,0 -1.216016,-0.27343 -0.494141,-0.27832 -0.764844,-0.69336 -0.266406,-0.41993 -0.369531,-0.8545 -0.103125,-0.43457 -0.103125,-0.7666 0,-0.33203 0.103125,-0.7666 0.107422,-0.43457 0.369531,-0.83984 0.26211,-0.40528 0.75625,-0.67871 0.498437,-0.27344 1.22461,-0.27344 0.485547,0 0.790624,0.0781 0.305079,0.0781 0.61875,0.20997 v 1.38183 q -0.75625,-0.27344 -1.18164,-0.27344 -0.4125,0 -0.734766,0.28321 -0.317968,0.2832 -0.317968,0.8789 0,0.39551 0.158984,0.66895 0.158984,0.26855 0.403906,0.39551 0.244922,0.12695 0.489844,0.12695 0.232031,0 0.528516,-0.0781 0.296484,-0.0781 0.721874,-0.22461 z m 4.937453,-0.0195 q -0.339453,0.15137 -0.627344,0.24414 -0.28789,0.0928 -0.691797,0.0928 -0.382422,0 -0.532812,-0.15136 -0.150391,-0.15625 -0.214844,-0.37598 -0.249218,0.22949 -0.554297,0.38086 -0.305077,0.14648 -0.799219,0.14648 -0.476952,0 -0.773437,-0.18554 -0.292187,-0.19043 -0.4125,-0.47364 -0.116015,-0.28808 -0.116015,-0.59082 0,-0.45898 0.201952,-0.75683 0.20625,-0.30274 0.55,-0.49317 0.34375,-0.19043 0.910938,-0.3955 0.322265,-0.11719 0.485547,-0.17579 0.167578,-0.0635 0.249218,-0.0976 0.08164,-0.0342 0.171876,-0.0879 0,-0.36133 -0.128907,-0.56641 -0.128906,-0.20508 -0.558593,-0.20508 -0.507031,0 -0.941016,0.25391 -0.433984,0.25391 -0.794921,0.6543 v -1.34766 q 0.28789,-0.23438 0.623046,-0.38086 0.335157,-0.15137 0.700391,-0.22461 0.365234,-0.0732 0.739063,-0.0732 0.949608,0 1.426561,0.41992 0.48125,0.41504 0.48125,1.14746 v 1.91895 q 0,0.27343 0.04297,0.41015 0.04727,0.13184 0.167578,0.13184 0.146094,0 0.395313,-0.1416 z m -2.152734,-0.95215 v -1.17676 q -0.55,0.25391 -0.803516,0.45899 -0.253515,0.20019 -0.253515,0.54687 0,0.24903 0.124608,0.38086 0.128907,0.13184 0.296486,0.13184 0.158984,0 0.313671,-0.0977 0.158985,-0.10254 0.322266,-0.24414 z m 6.974171,-3.76953 -2.973437,7.23145 H 37.17653 l 1.203126,-2.91016 -1.73164,-4.32129 h 1.66289 l 0.889453,2.4707 1.009766,-2.4707 z" id="text33" style="font-weight:700;font-size:10px;font-family:GillSans-Bold, 'Gill Sans';letter-spacing:-0.04em;stroke-width:0.938083" aria-label="Decay" />
    <g id="g35" transform="translate(0,8.9141413)">
      <path d="m 20.6,18.07 c -0.37,0 -0.71,-0.17 -0.97,-0.47 -0.51,-0.6 -0.52,-1.54 -0.04,-2.16 l 6.97,-8.88 c 0.38,-0.48 1.05,-0.65 1.57,-0.39 0.5,0.25 0.79,0.82 0.79,1.45 v 4.77 l 4.64,-5.85 c 0.38,-0.48 1.01,-0.64 1.53,-0.38 0.5,0.25 0.83,0.81 0.83,1.44 v 8.82 c 0,0.86 -0.61,1.57 -1.36,1.57 -0.75,0 -1.36,-0.7 -1.36,-1.57 v -4.79 l -4.64,5.85 c -0.38,0.48 -1.01,0.64 -1.54,0.38 -0.5,-0.24 -0.83,-0.81 -0.83,-1.44 v -4.67 l -4.61,5.8 c -0.26,0.32 -0.62,0.51 -1,0.51 v 0 z" style="fill:#2cabe1" id="path33" />
      <path d="m 20.6,18.07 c -0.75,0 -1.35,-0.7 -1.35,-1.57 v -4.93 l -2.26,2.84 c -0.5,0.63 -1.44,0.65 -1.97,0.04 -0.51,-0.6 -0.52,-1.53 -0.03,-2.15 L 19.6,6.54 c 0.26,-0.32 0.63,-0.5 1,-0.5 0.18,0 0.37,0.04 0.54,0.12 0.5,0.25 0.82,0.81 0.82,1.44 v 8.89 c 0,0.86 -0.61,1.57 -1.36,1.57 v 0 z" style="fill:#ea2228" id="path34" />
      <path d="m 37.2,18.09 v 0 c -0.35,0 -0.68,-0.15 -0.94,-0.42 -0.76,-0.78 -0.14,-1.84 0.29,-2.3 l 1.95,-2.36 -1.26,-0.02 c -0.56,-0.01 -1.04,-0.4 -1.24,-1 -0.19,-0.56 -0.07,-1.21 0.29,-1.64 L 39.45,6.52 C 39.68,6.24 40,6.04 40.58,6.05 c 0.33,0 0.67,0.17 0.92,0.4 0.71,0.66 0.29,1.7 -0.07,2.2 l -1.04,1.26 1.26,0.02 c 0.56,0.01 1.04,0.4 1.24,1 0.19,0.56 0.07,1.21 -0.29,1.64 l -4.1,4.97 c -0.35,0.35 -0.65,0.55 -1.3,0.54 v 0 z" style="fill:#00a650" id="path35" />
    </g>
    <line x1="28.799999" y1="79.005867" x2="28.799999" y2="98.005867" style="fill:#ffffff;stroke:#231f20;stroke-miterlimit:10" id="line35" />
    <line x1="28.799999" y1="175.36586" x2="28.799999" y2="194.36586" style="fill:#ffffff;stroke:#231f20;stroke-miterlimit:10" id="line36" />
    <path style="fill:none;stroke:#000000;stroke-width:1.32547;stroke-dasharray:none;stroke-opacity:1" d="m 28.92,221.83634 v 37.85233" id="path24-9" />
  </g>
  <g /></svg>