<svg xmlns="http://www.w3.org/2000/svg" xmlns:inkscape="http://www.inkscape.org/namespaces/inkscape" xmlns:sodipodi="http://sodipodi.sourceforge.net/DTD/sodipodi-0.dtd" width="50.800274mm" height="128.5mm" viewBox="0 0 192.00103 485.6693" version="1.1" id="svg52" sodipodi:docname="Congabongo_info.svg" inkscape:version="1.4 (e7c3feb1, 2024-10-09)">
  <defs id="defs52" />
  <sodipodi:namedview id="namedview52" pagecolor="#ffffff" bordercolor="#000000" borderopacity="0.25" inkscape:showpageshadow="2" inkscape:pageopacity="0.0" inkscape:pagecheckerboard="0" inkscape:deskcolor="#d1d1d1" inkscape:zoom="2.149867" inkscape:cx="247.92231" inkscape:cy="229.78166" inkscape:window-width="1600" inkscape:window-height="847" inkscape:window-x="2034" inkscape:window-y="74" inkscape:window-maximized="0" inkscape:current-layer="components" inkscape:document-units="mm" />
  <g id="faceplate" transform="scale(1.3333405)">
    <g id="g1">
      <rect x="0.13" y="0.13" width="143.75" height="364" style="fill:#ededed" id="rect1" />
      <path d="M 143.75,0.25 V 364 H 0.25 V 0.25 h 143.5 M 144,0 H 0 v 364.25 h 144 z" style="fill:#9d9d9e" id="path1" />
    </g>
    <path d="M 12.48,291.71 V 229.7 c 0,-7.82 6.4,-14.22 14.22,-14.22 h 90.62 c 7.82,0 14.22,6.4 14.22,14.22 v 62.01 -0.93 45.22 c 0,3.11 -2.54,5.65 -5.65,5.65 H 18.13 c -3.11,0 -5.65,-2.54 -5.65,-5.65 v -45.22" style="fill:#d1d3d4;stroke:#d1d3d4;stroke-miterlimit:10" id="path2" />
    <path d="m 132.06,318.53 v -21.52 h -21.54 c -7.49,0 -13.57,6.52 -13.57,14.57 v 30.53 h 15.07 c 0,0 0,0 0,0 h 14.39 c 3.12,0 5.64,-2.36 5.64,-5.25 v -18.39 0.08 z" id="path3" />
    <g id="g13">
      <path d="m 80.98,40.28 1.13,-1.95 c -2.75,-1.43 -5.84,-2.3 -9.12,-2.44 v 2.26 c 2.87,0.14 5.57,0.89 7.99,2.14 z" id="path4" />
      <path d="M 88.57,47.13 90.52,46 c -1.72,-2.68 -4,-4.96 -6.68,-6.68 l -1.13,1.95 c 2.34,1.52 4.33,3.51 5.85,5.85 z" id="path5" />
      <path d="m 61.26,41.28 -1.13,-1.95 c -2.68,1.72 -4.96,4 -6.68,6.68 l 1.95,1.13 c 1.52,-2.34 3.51,-4.33 5.85,-5.85 z" id="path6" />
      <path d="m 91.71,56.86 h 2.26 c -0.15,-3.28 -1.01,-6.37 -2.44,-9.12 l -1.95,1.13 c 1.24,2.42 1.99,5.13 2.14,8 z" id="path7" />
      <path d="m 70.99,38.14 v -2.26 c -3.28,0.15 -6.37,1.01 -9.12,2.44 L 63,40.27 c 2.42,-1.24 5.13,-1.99 8,-2.14 z" id="path8" />
      <path d="m 55.41,68.59 -1.95,1.13 c 1.72,2.68 4,4.96 6.68,6.68 l 1.13,-1.95 C 58.93,72.93 56.94,70.94 55.42,68.6 Z" id="path9" />
      <path d="m 82.72,74.44 1.13,1.95 c 2.68,-1.72 4.96,-4 6.68,-6.68 l -1.95,-1.13 c -1.52,2.34 -3.51,4.33 -5.85,5.85 z" id="path10" />
      <path d="m 91.71,58.86 c -0.14,2.87 -0.89,5.57 -2.14,8 l 1.95,1.13 c 1.43,-2.75 2.3,-5.84 2.44,-9.12 H 91.7 Z" id="path11" />
      <path d="m 52.27,58.86 h -2.26 c 0.15,3.28 1.01,6.37 2.44,9.12 l 1.95,-1.13 c -1.24,-2.42 -1.99,-5.13 -2.14,-8 z" id="path12" />
      <path d="m 54.41,48.86 -1.95,-1.13 c -1.43,2.75 -2.3,5.84 -2.44,9.12 h 2.26 c 0.14,-2.87 0.89,-5.57 2.14,-8 z" id="path13" />
    </g>
    <g id="g23">
      <path d="m 80.98,101.68 1.13,-1.95 c -2.75,-1.43 -5.84,-2.3 -9.12,-2.44 v 2.26 c 2.87,0.14 5.57,0.89 7.99,2.14 z" id="path14" />
      <path d="m 88.57,108.53 1.95,-1.13 c -1.72,-2.68 -4,-4.96 -6.68,-6.68 l -1.13,1.95 c 2.34,1.52 4.33,3.51 5.85,5.85 z" id="path15" />
      <path d="m 61.26,102.68 -1.13,-1.95 c -2.68,1.72 -4.96,4 -6.68,6.68 l 1.95,1.13 c 1.52,-2.34 3.51,-4.33 5.85,-5.85 z" id="path16" />
      <path d="m 91.71,118.26 h 2.26 c -0.15,-3.28 -1.01,-6.37 -2.44,-9.12 l -1.95,1.13 c 1.24,2.42 1.99,5.13 2.14,8 z" id="path17" />
      <path d="m 70.99,99.54 v -2.26 c -3.28,0.15 -6.37,1.01 -9.12,2.44 l 1.13,1.95 c 2.42,-1.24 5.13,-1.99 8,-2.14 z" id="path18" />
      <path d="m 55.41,129.99 -1.95,1.13 c 1.72,2.68 4,4.96 6.68,6.68 l 1.13,-1.95 c -2.34,-1.52 -4.33,-3.51 -5.85,-5.85 z" id="path19" />
      <path d="m 82.72,135.84 1.13,1.95 c 2.68,-1.72 4.96,-4 6.68,-6.68 l -1.95,-1.13 c -1.52,2.34 -3.51,4.33 -5.85,5.85 z" id="path20" />
      <path d="m 91.71,120.26 c -0.14,2.87 -0.89,5.57 -2.14,8 l 1.95,1.13 c 1.43,-2.75 2.3,-5.84 2.44,-9.12 H 91.7 Z" id="path21" />
      <path d="m 52.27,120.26 h -2.26 c 0.15,3.28 1.01,6.37 2.44,9.12 l 1.95,-1.13 c -1.24,-2.42 -1.99,-5.13 -2.14,-8 z" id="path22" />
      <path d="m 54.41,110.26 -1.95,-1.13 c -1.43,2.75 -2.3,5.84 -2.44,9.12 h 2.26 c 0.14,-2.87 0.89,-5.57 2.14,-8 z" id="path23" />
    </g>
    <g id="g26">
      <path d="m 63.8,18.07 c -0.37,0 -0.71,-0.17 -0.97,-0.47 -0.51,-0.6 -0.52,-1.54 -0.04,-2.16 l 6.97,-8.88 c 0.38,-0.48 1.05,-0.65 1.57,-0.39 0.5,0.25 0.79,0.82 0.79,1.45 v 4.77 l 4.64,-5.85 c 0.38,-0.48 1.01,-0.64 1.53,-0.38 0.5,0.25 0.83,0.81 0.83,1.44 v 8.82 c 0,0.86 -0.61,1.57 -1.36,1.57 -0.75,0 -1.36,-0.7 -1.36,-1.57 v -4.79 l -4.64,5.85 c -0.38,0.48 -1.01,0.64 -1.54,0.38 -0.5,-0.24 -0.83,-0.81 -0.83,-1.44 v -4.67 l -4.61,5.8 c -0.26,0.32 -0.62,0.51 -1,0.51 v 0 z" style="fill:#2cabe1" id="path24" />
      <path d="m 63.8,18.07 c -0.75,0 -1.35,-0.7 -1.35,-1.57 v -4.93 l -2.26,2.84 c -0.5,0.63 -1.44,0.65 -1.97,0.04 -0.51,-0.6 -0.52,-1.53 -0.03,-2.15 L 62.8,6.54 c 0.26,-0.32 0.63,-0.5 1,-0.5 0.18,0 0.37,0.04 0.54,0.12 0.5,0.25 0.82,0.81 0.82,1.44 v 8.89 c 0,0.86 -0.61,1.57 -1.36,1.57 v 0 z" style="fill:#ea2228" id="path25" />
      <path d="m 80.4,18.09 v 0 c -0.35,0 -0.68,-0.15 -0.94,-0.42 -0.76,-0.78 -0.14,-1.84 0.29,-2.3 l 1.95,-2.36 -1.26,-0.02 c -0.56,-0.01 -1.04,-0.4 -1.24,-1 -0.19,-0.56 -0.07,-1.21 0.29,-1.64 l 3.16,-3.83 c 0.23,-0.28 0.55,-0.48 1.13,-0.47 0.33,0 0.67,0.17 0.92,0.4 0.71,0.66 0.29,1.7 -0.07,2.2 l -1.04,1.26 1.26,0.02 c 0.56,0.01 1.04,0.4 1.24,1 0.19,0.56 0.07,1.21 -0.29,1.64 l -4.1,4.97 c -0.35,0.35 -0.65,0.55 -1.3,0.54 v 0 z" style="fill:#00a650" id="path26" />
    </g>
    <path d="m 12.06,318.51 v -21.52 h 1.14 c 0,0 20.4,0 20.4,0 7.49,0 13.57,6.52 13.57,14.57 v 30.07 c 0,0 0,0.46 0,0.46 H 32.1 c 0,0 0,0 0,0 H 17.71 c -3.12,0 -5.64,-2.36 -5.64,-5.25 v -9.31 c 0,0 0,-9.08 0,-9.08 v 0.08 z" id="path27" />
    <path d="m 65.214454,208.14222 q -0.369531,0.21972 -0.75625,0.35156 -0.386719,0.13185 -0.782031,0.18555 -0.391016,0.0586 -0.81211,0.0586 -0.777734,0 -1.396484,-0.24414 -0.614453,-0.24414 -1.069922,-0.71777 -0.451172,-0.47852 -0.678906,-1.11328 -0.223438,-0.63965 -0.223438,-1.40137 0,-0.87402 0.266407,-1.52832 0.266406,-0.65918 0.743359,-1.09375 0.48125,-0.43457 1.091406,-0.63965 0.614453,-0.20996 1.29336,-0.20996 1.014062,0 2.298828,0.51269 v 1.79688 q -0.442578,-0.3125 -0.876563,-0.51758 -0.429687,-0.20996 -1.014062,-0.20996 -0.519922,0 -0.971094,0.23438 -0.451172,0.23437 -0.726172,0.66893 -0.275,0.43458 -0.275,1.01563 0,0.51269 0.240625,0.94238 0.240625,0.4248 0.666016,0.67871 0.429687,0.24902 0.966797,0.24902 0.433984,0 0.820703,-0.11718 0.386718,-0.12207 0.648828,-0.26856 0.266406,-0.14648 0.545703,-0.34668 z m 5.431593,-1.98242 q 0,0.74218 -0.283593,1.32324 -0.283594,0.58105 -0.850781,0.91797 -0.562891,0.33691 -1.375,0.33691 -0.81211,0 -1.379297,-0.33691 -0.562891,-0.33692 -0.846485,-0.91797 -0.279297,-0.58106 -0.279297,-1.32324 0,-0.56153 0.154688,-1.02051 0.158984,-0.45899 0.476953,-0.81055 0.322266,-0.35644 0.790625,-0.54687 0.468359,-0.19043 1.082813,-0.19043 0.61875,0 1.091406,0.19531 0.476953,0.19043 0.786328,0.53711 0.313672,0.34668 0.472656,0.81056 0.158984,0.46386 0.158984,1.02538 z m -1.628515,0 q 0,-0.59082 -0.227735,-0.92286 -0.223437,-0.33691 -0.653124,-0.33691 -0.425391,0 -0.653125,0.33691 -0.223438,0.33204 -0.223438,0.92286 0,0.58593 0.227734,0.92773 0.227735,0.3418 0.648829,0.3418 0.429687,0 0.653124,-0.33691 0.227735,-0.34179 0.227735,-0.93262 z m 6.750734,2.49023 h -1.546874 v -2.68065 q 0,-0.41016 -0.120313,-0.71289 -0.116016,-0.30763 -0.515626,-0.30763 -0.189061,0 -0.335156,0.083 -0.141797,0.0781 -0.257812,0.20509 -0.111719,0.12695 -0.189062,0.24413 -0.07734,0.11718 -0.158984,0.24902 v 2.91992 h -1.546876 v -4.9707 h 1.546876 v 0.71289 q 0.365234,-0.44434 0.730468,-0.62012 0.369532,-0.18066 0.820703,-0.18066 1.572656,0 1.572656,2.13867 z m 4.976125,-3.91113 h -0.764844 q 0.403906,0.40039 0.403906,0.98144 0,0.30762 -0.116015,0.59082 -0.111719,0.28321 -0.335156,0.50293 -0.219141,0.21973 -0.545704,0.36133 -0.322266,0.13672 -0.739062,0.16602 -0.53711,0.0244 -0.53711,0.32715 0,0.11718 0.06875,0.17089 0.06875,0.0537 0.214844,0.083 0.15039,0.0244 0.502734,0.0586 0.399609,0.0391 0.743359,0.13671 0.34375,0.0977 0.640234,0.41016 0.296485,0.3125 0.296485,0.89356 0,0.46386 -0.223438,0.82031 -0.21914,0.35644 -0.713281,0.55664 -0.49414,0.20019 -1.30625,0.20019 -1.16875,0 -1.71875,-0.35644 -0.545703,-0.35645 -0.545703,-0.95215 0,-0.16113 0.06875,-0.37109 0.07305,-0.20996 0.300782,-0.40528 0.232022,-0.19531 0.670304,-0.26367 -0.154688,-0.0635 -0.266407,-0.24414 -0.111719,-0.18555 -0.111719,-0.38574 0,-0.25879 0.154688,-0.5127 0.158985,-0.2539 0.511328,-0.32715 -0.489843,-0.14648 -0.846484,-0.55175 -0.356641,-0.40528 -0.356641,-1.04981 0,-0.48828 0.163282,-0.85449 0.167577,-0.36621 0.459765,-0.5957 0.292188,-0.2295 0.678906,-0.33692 0.386719,-0.1123 0.846485,-0.1123 h 2.401953 z m -1.710156,0.83984 q 0,-0.37597 -0.227735,-0.60058 -0.223438,-0.2295 -0.502734,-0.2295 -0.356641,0 -0.562891,0.27344 -0.201953,0.27344 -0.201953,0.57617 0,0.20996 0.08594,0.39063 0.09023,0.18066 0.249218,0.29297 0.163282,0.10742 0.38672,0.10742 0.335156,0 0.554296,-0.23926 0.219141,-0.23926 0.219141,-0.57129 z m 0.309374,3.99903 q 0,-0.32714 -0.309374,-0.42481 -0.305079,-0.0928 -0.631641,-0.0928 -0.537109,0 -0.777735,0.12695 -0.236327,0.13184 -0.236327,0.41504 0,0.55664 0.98828,0.55664 0.442579,0 0.704688,-0.14648 0.262109,-0.14161 0.262109,-0.43457 z m 6.265188,-1.17676 q -0.339453,0.15136 -0.627344,0.24414 -0.28789,0.0928 -0.691797,0.0928 -0.382421,0 -0.532812,-0.15136 -0.150391,-0.15625 -0.214844,-0.37597 -0.249218,0.22949 -0.554297,0.38086 -0.305077,0.14648 -0.799218,0.14648 -0.476953,0 -0.773438,-0.18555 -0.292187,-0.19043 -0.4125,-0.47364 -0.116015,-0.28808 -0.116015,-0.59082 0,-0.45898 0.201953,-0.75683 0.20625,-0.30274 0.55,-0.49317 0.34375,-0.19043 0.910937,-0.39551 0.322266,-0.11718 0.485547,-0.17578 0.167578,-0.0635 0.249219,-0.0977 0.08164,-0.0342 0.171875,-0.0879 0,-0.36133 -0.128907,-0.56641 -0.128906,-0.20508 -0.558593,-0.20508 -0.507031,0 -0.941016,0.25391 -0.433984,0.2539 -0.794921,0.65429 v -1.34765 q 0.28789,-0.23437 0.623046,-0.38086 0.335157,-0.15137 0.700391,-0.22461 0.365234,-0.0732 0.739063,-0.0732 0.949609,0 1.426562,0.41992 0.48125,0.41504 0.48125,1.14746 v 1.91895 q 0,0.27343 0.04297,0.41015 0.04726,0.13184 0.167578,0.13184 0.146095,0 0.395313,-0.1416 z m -2.152734,-0.95215 v -1.17676 q -0.55,0.25391 -0.803516,0.45899 -0.253515,0.20019 -0.253515,0.54688 0,0.24902 0.12461,0.38086 0.128905,0.13184 0.296484,0.13184 0.158984,0 0.313671,-0.0977 0.158985,-0.10254 0.322266,-0.24414 z" id="text27" style="font-weight:700;font-size:10px;font-family:GillSans-Bold, 'Gill Sans';letter-spacing:-0.04em;stroke-width:0.938083" aria-label="Conga" />
    <path d="m 6.7089844,-4.6386719 q 0,0.3759766 -0.131836,0.7373047 -0.1269531,0.3564453 -0.415039,0.6689453 -0.288086,0.3076172 -0.78125,0.5029297 -0.4882813,0.1904297 -1.1523438,0.1904297 H 2.890625 V 0 H 0.84960938 V -6.7675781 H 4.2285156 q 0.6640625,0 1.1523438,0.1953125 0.493164,0.1953125 0.78125,0.5078125 0.2880859,0.3125 0.415039,0.6787109 0.131836,0.366211 0.131836,0.7470703 z m -2.0800782,0.00977 q 0,-0.4833985 -0.2880859,-0.6591797 Q 4.0576172,-5.46875 3.3203125,-5.46875 H 2.890625 v 1.6308594 h 0.4394531 q 0.5078125,0 0.78125,-0.063477 0.2734375,-0.063477 0.3955078,-0.234375 0.1220703,-0.1708984 0.1220703,-0.493164 z m 4.233789,-1.4892579 q 0,0.3076172 -0.2197265,0.522461 -0.2197266,0.2148437 -0.522461,0.2148437 -0.2050781,0 -0.3759765,-0.097656 -0.1660157,-0.097656 -0.2636719,-0.2636719 -0.097656,-0.1708984 -0.097656,-0.3759766 0,-0.3027343 0.2148438,-0.5224609 0.2148437,-0.2197266 0.5224609,-0.2197266 0.3027344,0 0.522461,0.2197266 0.2197265,0.2197266 0.2197262,0.5224607 z M 9.0042968,0 H 7.2416015 v -4.9707031 h 1.7626953 z m 4.7318362,-0.28808594 q -0.273438,0.13183594 -0.756836,0.25390625 -0.478516,0.12207031 -0.917969,0.12207031 -1.899414,0 -1.899414,-1.85546872 V -3.75 H 9.3660154 v -0.3076172 l 2.3583986,-2.4023437 h 0.200195 v 1.4892578 h 1.679688 V -3.75 h -1.679688 v 1.5917969 q 0,0.2783203 0.03418,0.4492187 0.03418,0.1708985 0.19043,0.288086 0.161132,0.1123047 0.483398,0.1123047 0.419922,0 1.103516,-0.3515625 z m 4.629297,0.0585937 q -0.219727,0.0830078 -0.463867,0.15625 -0.244141,0.06835938 -0.551758,0.11230469 -0.302734,0.04882812 -0.664063,0.04882812 -0.815429,0 -1.381836,-0.27343749 Q 14.742383,-0.46386724 14.434766,-0.8789063 14.132031,-1.2988281 14.014844,-1.7333984 13.897656,-2.1679688 13.897656,-2.5 q 0,-0.3320313 0.117188,-0.7666016 0.12207,-0.4345703 0.419922,-0.8398437 0.297851,-0.4052734 0.859375,-0.6787109 0.566406,-0.2734375 1.391601,-0.2734375 0.551758,0 0.898438,0.078125 0.34668,0.078125 0.703125,0.2099609 v 1.3818359 q -0.859375,-0.2734375 -1.342774,-0.2734375 -0.46875,0 -0.83496,0.2832031 -0.361329,0.2832032 -0.361329,0.8789063 0,0.3955078 0.180664,0.6689453 0.180665,0.2685547 0.458985,0.3955078 0.27832,0.1269532 0.55664,0.1269532 0.263672,0 0.600586,-0.078125 0.336914,-0.078125 0.820313,-0.2246094 z M 24.127539,0 h -1.757813 v -2.578125 q 0,-0.029297 0,-0.053711 0.0049,-0.029297 0.0049,-0.1171875 0,-0.3564454 -0.151367,-0.6542969 -0.151367,-0.2978516 -0.576172,-0.2978516 -0.332031,0 -0.585938,0.2246094 -0.253906,0.2197266 -0.483398,0.5566406 V 0 h -1.757813 v -6.7675781 h 1.757813 v 2.5097656 q 0.43457,-0.4638672 0.859375,-0.6298828 0.424805,-0.1708984 0.90332,-0.1708984 1.78711,0 1.78711,2.0068359 z" id="text28" style="font-weight:700;font-size:10px;font-family:GillSans-Bold, 'Gill Sans';letter-spacing:-0.04em" transform="matrix(0.88,0,0,1,61.24,87.63)" aria-label="Pitch" />
    <path d="m 65.018947,164.95906 q 0,0.87403 -0.528516,1.39649 -0.524219,0.52246 -1.469531,0.52246 h -3.441797 v -6.76758 h 2.878906 q 0.558594,0 0.971094,0.12207 0.416797,0.12207 0.670313,0.33691 0.253515,0.20996 0.378125,0.49805 0.124609,0.28809 0.124609,0.62988 0,0.3711 -0.128906,0.68848 -0.128907,0.3125 -0.322266,0.51758 -0.189062,0.20019 -0.382422,0.2832 0.610156,0.27344 0.928125,0.69336 0.322266,0.41504 0.322266,1.0791 z m -2.096875,-2.90039 q 0,-0.48828 -0.283594,-0.64941 -0.283594,-0.16114 -0.885156,-0.16114 h -0.378125 v 1.6211 h 0.386719 q 0.614453,0 0.885156,-0.16113 0.275,-0.16114 0.275,-0.64942 z m 0.292187,2.81738 q 0,-0.86914 -1.108593,-0.86914 h -0.730469 v 1.7334 h 0.730469 q 1.108593,0 1.108593,-0.86426 z m 7.180422,-0.48828 q 0,0.74219 -0.283594,1.32325 -0.283593,0.58105 -0.850781,0.91796 -0.562891,0.33692 -1.375,0.33692 -0.812109,0 -1.379297,-0.33692 -0.56289,-0.33691 -0.846484,-0.91796 -0.279297,-0.58106 -0.279297,-1.32325 0,-0.56152 0.154687,-1.0205 0.158985,-0.45899 0.476954,-0.81055 0.322265,-0.35645 0.790625,-0.54688 0.468359,-0.19043 1.082812,-0.19043 0.61875,0 1.091406,0.19532 0.476953,0.19043 0.786329,0.53711 0.313671,0.34668 0.472656,0.81054 0.158984,0.46387 0.158984,1.02539 z m -1.628516,0 q 0,-0.59082 -0.227734,-0.92285 -0.223437,-0.33691 -0.653125,-0.33691 -0.425391,0 -0.653125,0.33691 -0.223437,0.33203 -0.223437,0.92285 0,0.58594 0.227734,0.92774 0.227734,0.34179 0.648828,0.34179 0.429688,0 0.653125,-0.33691 0.227734,-0.3418 0.227734,-0.93262 z m 6.750735,2.49024 h -1.546876 v -2.68067 q 0,-0.41015 -0.120312,-0.71289 -0.116015,-0.30761 -0.515625,-0.30761 -0.189063,0 -0.335156,0.083 -0.141797,0.0781 -0.257813,0.20508 -0.111718,0.12695 -0.189062,0.24414 -0.07734,0.11719 -0.158985,0.24903 v 2.91992 h -1.546874 v -4.97071 h 1.546874 v 0.71289 q 0.365235,-0.44433 0.730469,-0.62011 0.369531,-0.18067 0.820704,-0.18067 1.572656,0 1.572656,2.13868 z m 4.976124,-3.91114 H 79.72818 q 0.403907,0.4004 0.403907,0.98145 0,0.30762 -0.116016,0.59082 -0.111718,0.2832 -0.335156,0.50293 -0.219141,0.21973 -0.545703,0.36133 -0.322266,0.13672 -0.739063,0.16601 -0.537109,0.0244 -0.537109,0.32715 0,0.11719 0.06875,0.1709 0.06875,0.0537 0.214844,0.083 0.150391,0.0244 0.502735,0.0586 0.399609,0.0391 0.743359,0.13672 0.34375,0.0977 0.640234,0.41016 0.296484,0.3125 0.296484,0.89355 0,0.46387 -0.223437,0.82031 -0.21914,0.35645 -0.713281,0.55664 -0.494141,0.2002 -1.30625,0.2002 -1.16875,0 -1.71875,-0.35645 -0.545703,-0.35644 -0.545703,-0.95214 0,-0.16114 0.06875,-0.3711 0.07305,-0.20996 0.300781,-0.40527 0.232023,-0.19531 0.670304,-0.26367 -0.154688,-0.0635 -0.266406,-0.24414 -0.111719,-0.18555 -0.111719,-0.38575 0,-0.25878 0.154687,-0.51269 0.158985,-0.25391 0.511329,-0.32715 -0.489844,-0.14648 -0.846485,-0.55176 -0.356641,-0.40527 -0.356641,-1.0498 0,-0.48828 0.163282,-0.85449 0.167578,-0.36621 0.459765,-0.59571 0.292188,-0.22949 0.678907,-0.33691 0.386719,-0.11231 0.846484,-0.11231 h 2.401953 z m -1.710156,0.83985 q 0,-0.37598 -0.227735,-0.60059 -0.223437,-0.22949 -0.502734,-0.22949 -0.35664,0 -0.56289,0.27344 -0.201953,0.27344 -0.201953,0.57617 0,0.20996 0.08594,0.39062 0.09023,0.18067 0.249219,0.29297 0.163281,0.10743 0.386719,0.10743 0.335157,0 0.554297,-0.23926 0.219141,-0.23926 0.219141,-0.57129 z m 0.309375,3.99902 q 0,-0.32715 -0.309375,-0.4248 -0.305078,-0.0928 -0.631641,-0.0928 -0.537109,0 -0.777734,0.12696 -0.236328,0.13183 -0.236328,0.41504 0,0.55664 0.988281,0.55664 0.442578,0 0.704687,-0.14649 0.26211,-0.1416 0.26211,-0.43457 z m 6.432766,-3.41797 q 0,0.74219 -0.283594,1.32325 -0.283594,0.58105 -0.850781,0.91796 -0.562891,0.33692 -1.375,0.33692 -0.81211,0 -1.379297,-0.33692 -0.56289,-0.33691 -0.846484,-0.91796 -0.279297,-0.58106 -0.279297,-1.32325 0,-0.56152 0.154687,-1.0205 0.158984,-0.45899 0.476954,-0.81055 0.322265,-0.35645 0.790624,-0.54688 0.46836,-0.19043 1.082813,-0.19043 0.61875,0 1.091406,0.19532 0.476953,0.19043 0.786328,0.53711 0.313672,0.34668 0.472656,0.81054 0.158985,0.46387 0.158985,1.02539 z m -1.628516,0 q 0,-0.59082 -0.227734,-0.92285 -0.223438,-0.33691 -0.653125,-0.33691 -0.425391,0 -0.653125,0.33691 -0.223438,0.33203 -0.223438,0.92285 0,0.58594 0.227735,0.92774 0.227734,0.34179 0.648828,0.34179 0.429687,0 0.653125,-0.33691 0.227734,-0.3418 0.227734,-0.93262 z" id="text29" style="font-weight:700;font-size:10px;font-family:GillSans-Bold, 'Gill Sans';letter-spacing:-0.04em;stroke-width:0.938083" aria-label="Bongo" />
    <path d="m 7.8076172,-3.2617188 q 0,1.0400391 -0.3808594,1.6699219 Q 7.0507812,-0.96191406 6.5380859,-0.57128906 5.8105469,0 4.5019531,0 H 0.84960938 V -6.7675781 H 3.6621094 q 0.6347656,0 1.0839843,0.068359 0.4541016,0.063477 0.8154297,0.1855468 0.3613282,0.1171875 0.6152344,0.2685547 0.2539063,0.1464844 0.4541016,0.3173828 0.3466797,0.2832032 0.6054687,0.6689453 0.2636719,0.3857422 0.4150391,0.8935547 0.15625,0.5078125 0.15625,1.103516 z m -2.0751953,-0.087891 q 0,-0.8251953 -0.3173828,-1.2841797 -0.3125,-0.4638671 -0.756836,-0.6201171 -0.4394531,-0.15625 -0.8984375,-0.15625 H 2.890625 v 4.008789 h 0.8691406 q 0.8007813,0 1.3867188,-0.3808594 0.5859375,-0.3808593 0.5859375,-1.5673828 z m 7.7445311,1.2890625 H 9.9759765 q 0.1025395,0.4541016 0.5029295,0.7421875 0.400391,0.288086 0.908203,0.288086 0.888672,0 1.962891,-0.4980469 v 1.08886717 q -0.385742,0.20019532 -0.9375,0.36621094 -0.546875,0.16113281 -1.396484,0.16113281 -0.917969,0 -1.5625005,-0.34179687 Q 8.8089843,-0.59570352 8.4867187,-1.181641 8.1693358,-1.7675785 8.1693358,-2.509766 q 0,-0.7324219 0.3173829,-1.3085938 0.3222656,-0.5810547 0.9667968,-0.9082031 0.6445315,-0.3320312 1.5625005,-0.3320312 0.605468,0 1.166992,0.2636718 0.566406,0.2587891 0.927734,0.8544922 0.366211,0.5908203 0.366211,1.5283203 z m -1.650391,-0.8691406 q 0,-0.4785156 -0.239257,-0.7617188 -0.234375,-0.2880859 -0.678711,-0.2880859 -0.439453,0 -0.712891,0.2929688 -0.2685547,0.2880859 -0.2685547,0.7568359 z m 6.372461,2.70019531 q -0.219726,0.0830078 -0.463867,0.15625 -0.244141,0.06835938 -0.551758,0.11230469 -0.302734,0.04882812 -0.664062,0.04882812 -0.81543,0 -1.381836,-0.27343749 Q 14.575976,-0.46386719 14.268359,-0.87890625 13.965625,-1.2988281 13.848437,-1.7333984 13.73125,-2.1679688 13.73125,-2.5 q 0,-0.3320313 0.117187,-0.7666016 0.122071,-0.4345703 0.419922,-0.8398437 0.297852,-0.4052734 0.859375,-0.6787109 0.566406,-0.2734375 1.391602,-0.2734375 0.551758,0 0.898437,0.078125 0.34668,0.078125 0.703125,0.2099609 v 1.3818359 q -0.859375,-0.2734375 -1.342773,-0.2734375 -0.46875,0 -0.834961,0.2832031 -0.361328,0.2832032 -0.361328,0.8789063 0,0.3955078 0.180664,0.6689453 0.180664,0.2685547 0.458984,0.3955078 0.27832,0.1269532 0.556641,0.1269532 0.263672,0 0.600586,-0.078125 0.336914,-0.078125 0.820312,-0.2246094 z m 5.610742,-0.0195313 q -0.385742,0.15136719 -0.712891,0.24414063 -0.327148,0.09277343 -0.786133,0.09277343 -0.43457,0 -0.605468,-0.15136718 -0.170899,-0.15625 -0.244141,-0.37597657 -0.283203,0.22949219 -0.629883,0.38085938 -0.346679,0.14648437 -0.908203,0.14648437 -0.541992,0 -0.878906,-0.18554687 -0.332031,-0.19042969 -0.46875,-0.47363281 -0.131836,-0.28808594 -0.131836,-0.59082039 0,-0.4589843 0.229492,-0.7568359 0.234375,-0.3027344 0.625,-0.4931641 0.390625,-0.1904297 1.035156,-0.3955078 0.366211,-0.1171875 0.551758,-0.1757812 0.19043,-0.063477 0.283203,-0.097656 0.09277,-0.03418 0.195313,-0.087891 0,-0.3613281 -0.146485,-0.5664063 -0.146484,-0.2050781 -0.634765,-0.2050781 -0.576172,0 -1.069336,0.2539063 -0.493164,0.2539062 -0.90332,0.6542968 v -1.3476561 q 0.327148,-0.234375 0.708007,-0.3808595 0.38086,-0.1513672 0.795899,-0.2246094 0.415039,-0.073242 0.839844,-0.073242 1.079101,0 1.621093,0.4199218 0.546875,0.415039 0.546875,1.1474609 v 1.9189453 q 0,0.2734375 0.04883,0.4101562 0.05371,0.131836 0.19043,0.131836 0.166016,0 0.449219,-0.1416016 z M 21.363476,-1.2011719 v -1.1767578 q -0.625,0.2539063 -0.913086,0.4589844 -0.288086,0.2001953 -0.288086,0.546875 0,0.2490234 0.141601,0.38085936 0.146485,0.13183594 0.336915,0.13183594 0.180664,0 0.356445,-0.0976563 0.180664,-0.1025391 0.366211,-0.2441406 z m 7.925195,-3.7695312 -3.378906,7.2314453 h -1.777344 l 1.367188,-2.91015626 -1.967773,-4.32128904 h 1.889648 L 26.432226,-2.5 27.579687,-4.9707031 Z" id="text30" style="font-weight:700;font-size:10px;font-family:GillSans-Bold, 'Gill Sans';letter-spacing:-0.04em" transform="matrix(0.88,0,0,1,60.13,148.95)" aria-label="Decay" />
    <path d="m 4.4648437,-1.5742187 q 0,0.5078125 -0.2617187,0.8789062 Q 3.9453125,-0.32421875 3.4804688,-0.125 3.015625,0.0703125 2.4140625,0.0703125 2.2460938,0.0703125 2,0.046875 1.7578125,0.02734375 1.3515625,-0.0703125 0.94921875,-0.16796875 0.51171875,-0.359375 V -1.6875 q 0.41015625,0.2539063 0.80468745,0.421875 0.3984375,0.1679688 0.8515626,0.1679688 0.4179687,0 0.5390625,-0.1367188 0.125,-0.140625 0.125,-0.2617187 0,-0.21875 -0.2109375,-0.3671875 Q 2.4101563,-2.015625 2.0078125,-2.1757813 1.5625,-2.3632813 1.2265625,-2.5820313 0.890625,-2.8046875 0.67578125,-3.1367188 0.46484375,-3.46875 0.46484375,-3.921875 q 0,-0.4375 0.21484375,-0.7890625 0.21484375,-0.3554687 0.65625,-0.5664062 0.4414062,-0.2109375 1.078125,-0.2109375 0.453125,0 0.8359375,0.089844 0.3867188,0.085937 0.6367188,0.1953125 0.2499999,0.109375 0.3437499,0.171875 v 1.2695312 Q 3.8984375,-4 3.4882813,-4.1875 3.0820313,-4.375 2.6171875,-4.375 2.3125,-4.375 2.1757813,-4.2578125 2.0390625,-4.140625 2.0390625,-3.96875 q 0,0.1601562 0.1367188,0.2773437 0.1367187,0.1171875 0.4882812,0.2851563 0.625,0.2929687 1,0.5273437 0.375,0.234375 0.5859375,0.5429688 0.2148437,0.3046875 0.2148437,0.7617188 z M 6.8242187,0 H 5.4140625 v -5.4140625 h 1.4101562 z m 5.0937503,-0.19921875 q -0.308594,0.12109375 -0.570313,0.1953125 -0.261718,0.07421875 -0.628906,0.07421875 -0.347656,0 -0.484375,-0.12109375 -0.136719,-0.125 -0.195312,-0.30078125 Q 9.8125,-0.16796875 9.5351563,-0.046875 9.2578125,0.0703125 8.8085938,0.0703125 8.375,0.0703125 8.1054688,-0.078125 7.8398437,-0.23046875 7.7304687,-0.45703125 7.625,-0.6875 7.625,-0.9296875 q 0,-0.3671875 0.1835937,-0.6054687 0.1875,-0.2421875 0.5000001,-0.3945313 0.3125,-0.1523438 0.828125,-0.3164063 0.2929687,-0.09375 0.4414062,-0.140625 0.1523438,-0.050781 0.2265625,-0.078125 0.074219,-0.027344 0.15625,-0.070312 0,-0.2890625 -0.1171875,-0.453125 -0.1171875,-0.1640625 -0.5078125,-0.1640625 -0.4609375,0 -0.8554687,0.203125 -0.3945313,0.203125 -0.7226563,0.5234375 v -1.078125 q 0.2617188,-0.1875 0.5664063,-0.3046875 0.3046875,-0.1210937 0.6367187,-0.1796875 0.3320313,-0.058594 0.671875,-0.058594 0.8632815,0 1.2968755,0.3359375 0.4375,0.3320312 0.4375,0.9179687 v 1.5351563 q 0,0.21875 0.03906,0.328125 0.04297,0.10546875 0.152344,0.10546875 0.132812,0 0.359375,-0.11328125 z M 9.9609375,-0.9609375 v -0.9414062 q -0.5,0.203125 -0.7304687,0.3671875 Q 9,-1.375 9,-1.0976562 9,-0.8984375 9.1132813,-0.79296875 9.2304688,-0.6875 9.3828125,-0.6875 q 0.1445313,0 0.2851563,-0.078125 Q 9.8125,-0.84765625 9.9609375,-0.9609375 Z M 16.839844,-2.015625 q 0,0.3984375 -0.113282,0.7695313 -0.113281,0.3710937 -0.347656,0.67187495 -0.230469,0.296875 -0.597656,0.47265625 -0.363281,0.171875 -0.847656,0.171875 -0.390625,0 -0.617188,-0.08203125 -0.222656,-0.08203125 -0.445312,-0.21875 V 1.8085937 h -1.40625 v -5.7851562 h 1.40625 v 0.359375 q 0.210937,-0.1835938 0.464844,-0.3046875 0.257812,-0.125 0.695312,-0.125 0.433594,0 0.851563,0.2148437 0.417968,0.2148438 0.687499,0.671875 0.269532,0.453125 0.269532,1.1445313 z m -1.480469,0.03125 q 0,-0.359375 -0.113281,-0.5820313 -0.113281,-0.2265625 -0.292969,-0.3242187 -0.179687,-0.1015625 -0.371094,-0.1015625 -0.25,0 -0.410156,0.082031 -0.160156,0.078125 -0.300781,0.1992188 v 1.5195313 q 0.07422,0.039063 0.15625,0.089844 0.08594,0.046875 0.167969,0.082031 0.08594,0.0351562 0.179687,0.0585937 0.09766,0.0234375 0.207031,0.0234375 0.332032,0 0.554688,-0.28125 Q 15.359375,-1.5 15.359375,-1.984375 Z M 24.289062,0 h -4.113281 v -5.4140625 h 1.632813 v 4.1171875 h 2.480468 z m 6.285157,-2.7109375 q 0,0.7578125 -0.351563,1.3945313 -0.347656,0.6367187 -1.039062,1.0117187 -0.691407,0.375 -1.683594,0.375 -1.003906,0 -1.699219,-0.390625 -0.695312,-0.390625 -1.035156,-1.0273437 -0.335938,-0.6367188 -0.335938,-1.3632813 0,-0.7304688 0.335938,-1.3632812 0.335937,-0.6367188 1.03125,-1.0234375 0.699219,-0.390625 1.703125,-0.390625 0.75,0 1.335937,0.2226562 0.589844,0.2226563 0.96875,0.6054688 0.378907,0.3789062 0.574219,0.8867187 0.195313,0.5039062 0.195313,1.0625 z m -1.664063,0 q 0,-0.3046875 -0.08984,-0.5546875 -0.08984,-0.2539063 -0.273437,-0.4375 -0.179688,-0.1875 -0.441406,-0.2890625 Q 27.84375,-4.0976562 27.5,-4.0976562 q -0.65625,0 -1.03125,0.3828124 -0.375,0.3828125 -0.375,1.0039063 0,0.6210937 0.375,1.0078125 0.378906,0.3828125 1.03125,0.3828125 0.449219,0 0.765625,-0.1757812 0.316406,-0.1796875 0.480469,-0.4921875 0.164062,-0.3164063 0.164062,-0.7226563 z" id="text31" style="font-weight:700;font-size:8px;font-family:GillSans-Bold, 'Gill Sans'" transform="matrix(0.82,0,0,1,17.01,253.68)" aria-label="Slap LO" />
    <path d="m 20.671172,164.93417 q 0,0.50781 -0.21461,0.87891 -0.211406,0.37109 -0.592578,0.57031 -0.381172,0.19531 -0.874453,0.19531 -0.137734,0 -0.339531,-0.0234 -0.198594,-0.0195 -0.531719,-0.11718 -0.329922,-0.0977 -0.688672,-0.28907 v -1.32812 q 0.336329,0.25391 0.659844,0.42187 0.326719,0.16797 0.698281,0.16797 0.342735,0 0.442032,-0.13672 0.1025,-0.14062 0.1025,-0.26171 0,-0.21875 -0.172969,-0.36719 -0.172969,-0.15235 -0.502891,-0.3125 -0.365156,-0.1875 -0.640625,-0.40625 -0.275469,-0.22266 -0.45164,-0.55469 -0.172969,-0.33203 -0.172969,-0.78516 0,-0.4375 0.176172,-0.78906 0.176172,-0.35547 0.538125,-0.5664 0.361953,-0.21094 0.884062,-0.21094 0.371563,0 0.685469,0.0898 0.317109,0.0859 0.522109,0.19532 0.205,0.10937 0.281875,0.17187 v 1.26953 q -0.272265,-0.23828 -0.608593,-0.42578 -0.333125,-0.1875 -0.714297,-0.1875 -0.249844,0 -0.361953,0.11719 -0.11211,0.11718 -0.11211,0.28906 0,0.16016 0.11211,0.27734 0.112109,0.11719 0.40039,0.28516 0.5125,0.29297 0.82,0.52734 0.3075,0.23438 0.480469,0.54297 0.176172,0.30469 0.176172,0.76172 z m 1.934687,1.57422 h -1.156328 v -5.41406 h 1.156328 z m 4.176876,-0.19922 q -0.253048,0.12109 -0.467657,0.19531 -0.214609,0.0742 -0.515703,0.0742 -0.285078,0 -0.397188,-0.12109 -0.112109,-0.125 -0.160155,-0.30078 -0.185782,0.18359 -0.413204,0.30468 -0.227422,0.11719 -0.595781,0.11719 -0.355547,0 -0.576563,-0.14844 -0.217812,-0.15234 -0.3075,-0.3789 -0.08648,-0.23047 -0.08648,-0.47266 0,-0.36719 0.150547,-0.60547 0.15375,-0.24218 0.41,-0.39453 0.25625,-0.15234 0.679062,-0.3164 0.240235,-0.0937 0.361953,-0.14063 0.124922,-0.0508 0.185782,-0.0781 0.06086,-0.0273 0.128125,-0.0703 0,-0.28906 -0.09609,-0.45312 -0.09609,-0.16406 -0.416406,-0.16406 -0.377969,0 -0.701485,0.20312 -0.323515,0.20313 -0.592578,0.52344 v -1.07813 q 0.21461,-0.1875 0.464453,-0.30468 0.249844,-0.1211 0.52211,-0.17969 0.272265,-0.0586 0.550937,-0.0586 0.707891,0 1.063438,0.33593 0.35875,0.33203 0.35875,0.91797 v 1.53516 q 0,0.21875 0.03203,0.32812 0.03524,0.10547 0.124922,0.10547 0.108906,0 0.294688,-0.11328 z m -1.604766,-0.76172 v -0.9414 q -0.41,0.20312 -0.598985,0.36718 -0.188984,0.16016 -0.188984,0.4375 0,0.19922 0.09289,0.30469 0.09609,0.10547 0.221015,0.10547 0.118516,0 0.233828,-0.0781 0.118516,-0.082 0.240235,-0.19531 z m 5.640703,-1.05469 q 0,0.39844 -0.09289,0.76954 -0.09289,0.37109 -0.285078,0.67187 -0.188985,0.29688 -0.490078,0.47266 -0.29789,0.17187 -0.695078,0.17187 -0.320312,0 -0.506094,-0.082 -0.182578,-0.082 -0.365156,-0.21875 v 2.03906 h -1.153125 v -5.78515 h 1.153125 v 0.35934 q 0.172968,-0.18359 0.381172,-0.30469 0.211406,-0.125 0.570156,-0.125 0.355547,0 0.698282,0.21485 0.342733,0.21484 0.563749,0.67187 0.221016,0.45313 0.221016,1.14453 z m -1.213985,0.0312 q 0,-0.35937 -0.09289,-0.58203 -0.09289,-0.22656 -0.240235,-0.32422 -0.147343,-0.10156 -0.304297,-0.10156 -0.205,0 -0.336328,0.082 -0.131327,0.0781 -0.24664,0.19922 v 1.51953 q 0.06086,0.0391 0.128125,0.0898 0.07047,0.0469 0.137735,0.082 0.07047,0.0352 0.147343,0.0586 0.08008,0.0234 0.169765,0.0234 0.272267,0 0.454845,-0.28125 0.182577,-0.28125 0.182577,-0.76563 z m 7.322344,1.98438 H 33.55414 v -5.41406 h 1.338907 v 4.11718 h 2.033984 z m 5.153829,-2.71094 q 0,0.75781 -0.288282,1.39453 -0.285078,0.63672 -0.852031,1.01172 -0.566954,0.375 -1.380547,0.375 -0.823203,0 -1.39336,-0.39062 -0.570155,-0.39063 -0.848828,-1.02735 -0.275469,-0.63672 -0.275469,-1.36328 0,-0.73047 0.275469,-1.36328 0.275469,-0.63672 0.845625,-1.02344 0.57336,-0.39062 1.396563,-0.39062 0.615,0 1.095468,0.22265 0.483672,0.22266 0.794375,0.60547 0.310704,0.37891 0.47086,0.88672 0.160157,0.50391 0.160157,1.0625 z m -1.364532,0 q 0,-0.30469 -0.07367,-0.55469 -0.07367,-0.2539 -0.224218,-0.4375 -0.147344,-0.1875 -0.361953,-0.28906 -0.214613,-0.10547 -0.496488,-0.10547 -0.538125,0 -0.845625,0.38282 -0.3075,0.38281 -0.3075,1.0039 0,0.6211 0.3075,1.00781 0.310703,0.38282 0.845625,0.38282 0.36836,0 0.627812,-0.17578 0.259453,-0.17969 0.393985,-0.49219 0.134531,-0.31641 0.134532,-0.72266 z" id="text31-6" style="font-weight:700;font-size:8px;font-family:GillSans-Bold, 'Gill Sans';stroke-width:0.905538" aria-label="Slap LO" />
    <path d="M 5.8710937,-4.0976562 H 3.8867188 V 0 H 2.2578125 v -4.0976562 h -1.984375 v -1.3164063 h 5.5976562 z m 4.3125003,2.1054687 q 0,0.59375 -0.2578127,1.05859375 Q 9.6679688,-0.46875 9.1523438,-0.19921875 8.640625,0.0703125 7.9023437,0.0703125 q -0.7382812,0 -1.2539062,-0.26953125 Q 6.1367187,-0.46875 5.8789062,-0.93359375 5.625,-1.3984375 5.625,-1.9921875 q 0,-0.4492188 0.140625,-0.8164063 0.1445312,-0.3671875 0.4335937,-0.6484375 0.2929688,-0.2851562 0.71875,-0.4375 0.4257813,-0.1523437 0.984375,-0.1523437 0.5625001,0 0.9921876,0.15625 0.4335937,0.1523437 0.7148437,0.4296875 0.2851563,0.2773437 0.429688,0.6484375 0.144531,0.3710937 0.144531,0.8203125 z m -1.480469,0 q 0,-0.4726563 -0.2070312,-0.7382813 Q 8.2929688,-3 7.9023437,-3 q -0.3867187,0 -0.59375,0.2695312 -0.203125,0.265625 -0.203125,0.7382813 0,0.46875 0.2070313,0.7421875 0.2070312,0.2734375 0.5898437,0.2734375 0.3906251,0 0.5937501,-0.2695312 Q 8.703125,-1.5195312 8.703125,-1.9921875 Z M 15.160156,0 h -1.40625 v -2.1445313 q 0,-0.328125 -0.109375,-0.5703125 -0.105468,-0.2460937 -0.46875,-0.2460937 -0.171875,0 -0.304687,0.066406 -0.128906,0.0625 -0.234375,0.1640625 -0.101563,0.1015625 -0.171875,0.1953125 -0.07031,0.09375 -0.144531,0.1992188 V 0 h -1.40625 v -3.9765625 h 1.40625 V -3.40625 q 0.332031,-0.3554688 0.664062,-0.4960938 0.335938,-0.1445312 0.746094,-0.1445312 1.429687,0 1.429687,1.7109375 z m 4.921875,-1.6484375 H 17.28125 q 0.08203,0.3632813 0.402344,0.59375 0.320312,0.23046875 0.726562,0.23046875 0.710938,0 1.570313,-0.39843745 v 0.8710937 q -0.308594,0.16015625 -0.75,0.29296875 -0.4375,0.12890625 -1.117188,0.12890625 -0.734375,0 -1.25,-0.2734375 -0.515625,-0.2734375 -0.773437,-0.7421875 -0.253906,-0.46875 -0.253906,-1.0625 0,-0.5859375 0.253906,-1.046875 0.257812,-0.4648438 0.773437,-0.7265625 0.515625,-0.265625 1.25,-0.265625 0.484375,0 0.933594,0.2109375 0.453125,0.2070312 0.742187,0.6835937 0.292969,0.4726563 0.292969,1.2226563 z M 18.761719,-2.34375 q 0,-0.3828125 -0.191407,-0.609375 -0.1875,-0.2304688 -0.542968,-0.2304688 -0.351563,0 -0.570313,0.234375 Q 17.242187,-2.71875 17.242187,-2.34375 Z M 27.492187,0 h -4.113281 v -5.4140625 h 1.632813 v 4.1171875 h 2.480468 z m 6.285157,-2.7109375 q 0,0.7578125 -0.351563,1.3945313 -0.347656,0.6367187 -1.039062,1.0117187 -0.691407,0.375 -1.683594,0.375 -1.003906,0 -1.699219,-0.390625 -0.695312,-0.390625 -1.035156,-1.0273437 -0.335938,-0.6367188 -0.335938,-1.3632813 0,-0.7304688 0.335938,-1.3632812 0.335937,-0.6367188 1.03125,-1.0234375 0.699219,-0.390625 1.703125,-0.390625 0.75,0 1.335937,0.2226562 0.589844,0.2226563 0.96875,0.6054688 0.378907,0.3789062 0.574219,0.8867187 0.195313,0.5039062 0.195313,1.0625 z m -1.664063,0 q 0,-0.3046875 -0.08984,-0.5546875 -0.08984,-0.2539063 -0.273437,-0.4375 -0.179688,-0.1875 -0.441406,-0.2890625 -0.261719,-0.1054687 -0.605469,-0.1054687 -0.65625,0 -1.03125,0.3828124 -0.375,0.3828125 -0.375,1.0039063 0,0.6210937 0.375,1.0078125 0.378906,0.3828125 1.03125,0.3828125 0.449219,0 0.765625,-0.1757812 0.316406,-0.1796875 0.480469,-0.4921875 0.164062,-0.3164063 0.164062,-0.7226563 z" id="text32" style="font-weight:700;font-size:8px;font-family:GillSans-Bold, 'Gill Sans'" transform="matrix(0.82,0,0,1,15.32,293.26)" aria-label="Tone LO" />
    <path d="m 20.589492,205.0055 h -1.627188 v 4.09766 h -1.335703 v -4.09766 h -1.627187 v -1.3164 h 4.590078 z m 3.53625,2.10547 q 0,0.59375 -0.211406,1.0586 -0.211407,0.46484 -0.634219,0.73437 -0.41961,0.26953 -1.025,0.26953 -0.605391,0 -1.028203,-0.26953 -0.41961,-0.26953 -0.631016,-0.73437 -0.208203,-0.46485 -0.208203,-1.0586 0,-0.44922 0.115312,-0.8164 0.118516,-0.36719 0.355547,-0.64844 0.240235,-0.28516 0.589375,-0.4375 0.349141,-0.15234 0.807188,-0.15234 0.46125,0 0.813594,0.15625 0.355546,0.15234 0.586171,0.42968 0.233829,0.27735 0.352345,0.64844 0.118515,0.37109 0.118515,0.82031 z m -1.213985,0 q 0,-0.47265 -0.169765,-0.73828 -0.166563,-0.26953 -0.486875,-0.26953 -0.31711,0 -0.486875,0.26953 -0.166563,0.26563 -0.166563,0.73828 0,0.46875 0.169766,0.74219 0.169766,0.27344 0.483672,0.27344 0.320312,0 0.486875,-0.26953 0.169765,-0.27344 0.169765,-0.7461 z m 5.294766,1.99219 h -1.153125 v -2.14453 q 0,-0.32813 -0.08969,-0.57031 -0.08648,-0.2461 -0.384375,-0.2461 -0.140937,0 -0.249843,0.0664 -0.105703,0.0625 -0.192187,0.16406 -0.08328,0.10156 -0.140938,0.19531 -0.05765,0.0937 -0.118515,0.19922 v 2.33594 h -1.153123 v -3.97656 h 1.153125 v 0.57031 q 0.272265,-0.35547 0.54453,-0.49609 0.27547,-0.14453 0.611798,-0.14453 1.172343,0 1.172343,1.71093 z m 4.035937,-1.64844 h -2.29664 q 0.06727,0.36328 0.329922,0.59375 0.262656,0.23047 0.595781,0.23047 0.582969,0 1.287657,-0.39844 v 0.8711 q -0.253048,0.16015 -0.615,0.29297 -0.35875,0.1289 -0.916095,0.1289 -0.602187,0 -1.025,-0.27343 -0.422812,-0.27344 -0.634218,-0.74219 -0.208203,-0.46875 -0.208203,-1.0625 0,-0.58594 0.208203,-1.04688 0.211406,-0.46484 0.634218,-0.72656 0.422813,-0.26562 1.025,-0.26562 0.397188,0 0.765547,0.21093 0.371563,0.20703 0.608594,0.6836 0.240234,0.47265 0.240234,1.22265 z m -1.082655,-0.69531 q 0,-0.38281 -0.156954,-0.60937 -0.15375,-0.23047 -0.445234,-0.23047 -0.288282,0 -0.467657,0.23437 -0.176172,0.23047 -0.176172,0.60547 z m 7.158983,2.34375 h -3.37289 v -5.41406 h 1.338907 v 4.11719 h 2.033983 z m 5.153829,-2.71094 q 0,0.75782 -0.288282,1.39453 -0.285078,0.63672 -0.85203,1.01172 -0.566954,0.375 -1.380548,0.375 -0.823202,0 -1.393359,-0.39062 -0.570156,-0.39063 -0.848828,-1.02735 -0.275469,-0.63671 -0.275469,-1.36328 0,-0.73047 0.275469,-1.36328 0.275468,-0.63672 0.845625,-1.02344 0.57336,-0.39062 1.396562,-0.39062 0.615,0 1.095469,0.22266 0.483672,0.22265 0.794375,0.60546 0.310704,0.37891 0.470859,0.88672 0.160157,0.50391 0.160157,1.0625 z m -1.364532,0 q 0,-0.30468 -0.07367,-0.55468 -0.07367,-0.25391 -0.224219,-0.4375 -0.147344,-0.1875 -0.361953,-0.28907 -0.214609,-0.10547 -0.496484,-0.10547 -0.538125,0 -0.845625,0.38282 -0.3075,0.38281 -0.3075,1.0039 0,0.6211 0.3075,1.00782 0.310703,0.38281 0.845625,0.38281 0.368359,0 0.627812,-0.17578 0.259453,-0.17969 0.393985,-0.49219 0.134531,-0.31641 0.134531,-0.72266 z" id="text32-5" style="font-weight:700;font-size:8px;font-family:GillSans-Bold, 'Gill Sans';stroke-width:0.905538" aria-label="Tone LO" />
    <path d="m 6.4726562,-2.7109375 q 0,0.7578125 -0.3515625,1.3945313 -0.3476562,0.6367187 -1.0390625,1.0117187 -0.6914062,0.375 -1.6835937,0.375 -1.0039062,0 -1.6992188,-0.390625 Q 1.0039062,-0.7109375 0.6640625,-1.3476562 0.328125,-1.984375 0.328125,-2.7109375 q 0,-0.7304688 0.3359375,-1.3632812 Q 1,-4.7109375 1.6953125,-5.0976562 q 0.6992188,-0.390625 1.703125,-0.390625 0.75,0 1.3359375,0.2226562 0.5898437,0.2226563 0.96875,0.6054688 0.3789062,0.3789062 0.5742187,0.8867187 0.1953125,0.5039062 0.1953125,1.0625 z m -1.6640625,0 q 0,-0.3046875 -0.089844,-0.5546875 -0.089844,-0.2539063 -0.2734375,-0.4375 -0.1796875,-0.1875 -0.4414063,-0.2890625 -0.2617187,-0.1054687 -0.6054687,-0.1054687 -0.65625,0 -1.03125,0.3828124 -0.375,0.3828125 -0.375,1.0039063 0,0.6210937 0.375,1.0078125 0.3789063,0.3828125 1.03125,0.3828125 0.4492188,0 0.765625,-0.1757812 0.3164062,-0.1796875 0.4804687,-0.4921875 0.1640625,-0.3164063 0.1640628,-0.7226563 z M 11.449219,0 h -1.410156 v -0.56640625 q -0.2968755,0.3203125 -0.6250005,0.48046875 -0.3242187,0.15625 -0.78125,0.15625 -0.9023438,0 -1.1679688,-0.5234375 -0.265625,-0.52734375 -0.265625,-1.1875 V -3.9765625 H 8.609375 v 2.1484375 q 0,0.3242188 0.1054688,0.5703125 0.109375,0.2421875 0.46875,0.2421875 0.3085937,0 0.4882812,-0.1757812 0.1796875,-0.1757813 0.367188,-0.4492188 v -2.3359375 h 1.410156 z m 4.035156,-0.23046875 q -0.21875,0.10546875 -0.605469,0.203125 -0.382812,0.09765625 -0.734375,0.09765625 -1.519531,0 -1.519531,-1.484375 V -3 H 11.988281 V -3.2460938 L 13.875,-5.1679687 h 0.160156 v 1.1914062 h 1.34375 V -3 h -1.34375 v 1.2734375 q 0,0.2226563 0.02734,0.359375 0.02734,0.1367188 0.152344,0.2304688 0.128906,0.089844 0.386719,0.089844 0.335937,0 0.882812,-0.28125 z M 22.820312,0 h -4.113281 v -5.4140625 h 1.632813 v 4.1171875 h 2.480468 z m 6.285157,-2.7109375 q 0,0.7578125 -0.351563,1.3945313 -0.347656,0.6367187 -1.039062,1.0117187 -0.691407,0.375 -1.683594,0.375 -1.003906,0 -1.699219,-0.390625 -0.695312,-0.390625 -1.035156,-1.0273437 -0.335938,-0.6367188 -0.335938,-1.3632813 0,-0.7304688 0.335938,-1.3632812 0.335937,-0.6367188 1.03125,-1.0234375 0.699219,-0.390625 1.703125,-0.390625 0.75,0 1.335937,0.2226562 0.589844,0.2226563 0.96875,0.6054688 0.378907,0.3789062 0.574219,0.8867187 0.195313,0.5039062 0.195313,1.0625 z m -1.664063,0 q 0,-0.3046875 -0.08984,-0.5546875 -0.08984,-0.2539063 -0.273437,-0.4375 -0.179688,-0.1875 -0.441406,-0.2890625 -0.261719,-0.1054687 -0.605469,-0.1054687 -0.65625,0 -1.03125,0.3828124 -0.375,0.3828125 -0.375,1.0039063 0,0.6210937 0.375,1.0078125 0.378906,0.3828125 1.03125,0.3828125 0.449219,0 0.765625,-0.1757812 0.316406,-0.1796875 0.480469,-0.4921875 0.164062,-0.3164063 0.164062,-0.7226563 z" id="text33" style="font-weight:700;font-size:8px;font-family:GillSans-Bold, 'Gill Sans';fill:#ffffff" transform="matrix(0.82,0,0,1,17.13,336.21)" aria-label="Out LO" />
    <path d="m 6.4726562,-2.7109375 q 0,0.7578125 -0.3515625,1.3945313 -0.3476562,0.6367187 -1.0390625,1.0117187 -0.6914062,0.375 -1.6835937,0.375 -1.0039062,0 -1.6992188,-0.390625 Q 1.0039062,-0.7109375 0.6640625,-1.3476562 0.328125,-1.984375 0.328125,-2.7109375 q 0,-0.7304688 0.3359375,-1.3632812 Q 1,-4.7109375 1.6953125,-5.0976562 q 0.6992188,-0.390625 1.703125,-0.390625 0.75,0 1.3359375,0.2226562 0.5898437,0.2226563 0.96875,0.6054688 0.3789062,0.3789062 0.5742187,0.8867187 0.1953125,0.5039062 0.1953125,1.0625 z m -1.6640625,0 q 0,-0.3046875 -0.089844,-0.5546875 -0.089844,-0.2539063 -0.2734375,-0.4375 -0.1796875,-0.1875 -0.4414063,-0.2890625 -0.2617187,-0.1054687 -0.6054687,-0.1054687 -0.65625,0 -1.03125,0.3828124 -0.375,0.3828125 -0.375,1.0039063 0,0.6210937 0.375,1.0078125 0.3789063,0.3828125 1.03125,0.3828125 0.4492188,0 0.765625,-0.1757812 0.3164062,-0.1796875 0.4804687,-0.4921875 0.1640625,-0.3164063 0.1640628,-0.7226563 z M 11.449219,0 h -1.410156 v -0.56640625 q -0.2968755,0.3203125 -0.6250005,0.48046875 -0.3242187,0.15625 -0.78125,0.15625 -0.9023438,0 -1.1679688,-0.5234375 -0.265625,-0.52734375 -0.265625,-1.1875 V -3.9765625 H 8.609375 v 2.1484375 q 0,0.3242188 0.1054688,0.5703125 0.109375,0.2421875 0.46875,0.2421875 0.3085937,0 0.4882812,-0.1757812 0.1796875,-0.1757813 0.367188,-0.4492188 v -2.3359375 h 1.410156 z m 4.035156,-0.23046875 q -0.21875,0.10546875 -0.605469,0.203125 -0.382812,0.09765625 -0.734375,0.09765625 -1.519531,0 -1.519531,-1.484375 V -3 H 11.988281 V -3.2460938 L 13.875,-5.1679687 h 0.160156 v 1.1914062 h 1.34375 V -3 h -1.34375 v 1.2734375 q 0,0.2226563 0.02734,0.359375 0.02734,0.1367188 0.152344,0.2304688 0.128906,0.089844 0.386719,0.089844 0.335937,0 0.882812,-0.28125 z M 24.425781,0 H 22.796875 V -2.1132813 H 20.339844 V 0 h -1.632813 v -5.4140625 h 1.632813 v 1.9882812 h 2.457031 v -1.9882812 h 1.628906 z m 3,0 h -1.632812 v -5.4140625 h 1.632812 z" id="text34" style="font-weight:700;font-size:8px;font-family:GillSans-Bold, 'Gill Sans';fill:#ffffff" transform="matrix(0.82,0,0,1,103.09,336.21)" aria-label="Out HI" />
    <path d="m 4.4648437,-1.5742187 q 0,0.5078125 -0.2617187,0.8789062 Q 3.9453125,-0.32421875 3.4804688,-0.125 3.015625,0.0703125 2.4140625,0.0703125 2.2460938,0.0703125 2,0.046875 1.7578125,0.02734375 1.3515625,-0.0703125 0.94921875,-0.16796875 0.51171875,-0.359375 V -1.6875 q 0.41015625,0.2539063 0.80468745,0.421875 0.3984375,0.1679688 0.8515626,0.1679688 0.4179687,0 0.5390625,-0.1367188 0.125,-0.140625 0.125,-0.2617187 0,-0.21875 -0.2109375,-0.3671875 Q 2.4101563,-2.015625 2.0078125,-2.1757813 1.5625,-2.3632813 1.2265625,-2.5820313 0.890625,-2.8046875 0.67578125,-3.1367188 0.46484375,-3.46875 0.46484375,-3.921875 q 0,-0.4375 0.21484375,-0.7890625 0.21484375,-0.3554687 0.65625,-0.5664062 0.4414062,-0.2109375 1.078125,-0.2109375 0.453125,0 0.8359375,0.089844 0.3867188,0.085937 0.6367188,0.1953125 0.2499999,0.109375 0.3437499,0.171875 v 1.2695312 Q 3.8984375,-4 3.4882813,-4.1875 3.0820313,-4.375 2.6171875,-4.375 2.3125,-4.375 2.1757813,-4.2578125 2.0390625,-4.140625 2.0390625,-3.96875 q 0,0.1601562 0.1367188,0.2773437 0.1367187,0.1171875 0.4882812,0.2851563 0.625,0.2929687 1,0.5273437 0.375,0.234375 0.5859375,0.5429688 0.2148437,0.3046875 0.2148437,0.7617188 z M 6.8242187,0 H 5.4140625 v -5.4140625 h 1.4101562 z m 5.0937503,-0.19921875 q -0.308594,0.12109375 -0.570313,0.1953125 -0.261718,0.07421875 -0.628906,0.07421875 -0.347656,0 -0.484375,-0.12109375 -0.136719,-0.125 -0.195312,-0.30078125 Q 9.8125,-0.16796875 9.5351563,-0.046875 9.2578125,0.0703125 8.8085938,0.0703125 8.375,0.0703125 8.1054688,-0.078125 7.8398437,-0.23046875 7.7304687,-0.45703125 7.625,-0.6875 7.625,-0.9296875 q 0,-0.3671875 0.1835937,-0.6054687 0.1875,-0.2421875 0.5000001,-0.3945313 0.3125,-0.1523438 0.828125,-0.3164063 0.2929687,-0.09375 0.4414062,-0.140625 0.1523438,-0.050781 0.2265625,-0.078125 0.074219,-0.027344 0.15625,-0.070312 0,-0.2890625 -0.1171875,-0.453125 -0.1171875,-0.1640625 -0.5078125,-0.1640625 -0.4609375,0 -0.8554687,0.203125 -0.3945313,0.203125 -0.7226563,0.5234375 v -1.078125 q 0.2617188,-0.1875 0.5664063,-0.3046875 0.3046875,-0.1210937 0.6367187,-0.1796875 0.3320313,-0.058594 0.671875,-0.058594 0.8632815,0 1.2968755,0.3359375 0.4375,0.3320312 0.4375,0.9179687 v 1.5351563 q 0,0.21875 0.03906,0.328125 0.04297,0.10546875 0.152344,0.10546875 0.132812,0 0.359375,-0.11328125 z M 9.9609375,-0.9609375 v -0.9414062 q -0.5,0.203125 -0.7304687,0.3671875 Q 9,-1.375 9,-1.0976562 9,-0.8984375 9.1132813,-0.79296875 9.2304688,-0.6875 9.3828125,-0.6875 q 0.1445313,0 0.2851563,-0.078125 Q 9.8125,-0.84765625 9.9609375,-0.9609375 Z M 16.839844,-2.015625 q 0,0.3984375 -0.113282,0.7695313 -0.113281,0.3710937 -0.347656,0.67187495 -0.230469,0.296875 -0.597656,0.47265625 -0.363281,0.171875 -0.847656,0.171875 -0.390625,0 -0.617188,-0.08203125 -0.222656,-0.08203125 -0.445312,-0.21875 V 1.8085937 h -1.40625 v -5.7851562 h 1.40625 v 0.359375 q 0.210937,-0.1835938 0.464844,-0.3046875 0.257812,-0.125 0.695312,-0.125 0.433594,0 0.851563,0.2148437 0.417968,0.2148438 0.687499,0.671875 0.269532,0.453125 0.269532,1.1445313 z m -1.480469,0.03125 q 0,-0.359375 -0.113281,-0.5820313 -0.113281,-0.2265625 -0.292969,-0.3242187 -0.179687,-0.1015625 -0.371094,-0.1015625 -0.25,0 -0.410156,0.082031 -0.160156,0.078125 -0.300781,0.1992188 v 1.5195313 q 0.07422,0.039063 0.15625,0.089844 0.08594,0.046875 0.167969,0.082031 0.08594,0.0351562 0.179687,0.0585937 0.09766,0.0234375 0.207031,0.0234375 0.332032,0 0.554688,-0.28125 Q 15.359375,-1.5 15.359375,-1.984375 Z M 25.894531,0 H 24.265625 V -2.1132813 H 21.808594 V 0 h -1.632813 v -5.4140625 h 1.632813 v 1.9882812 h 2.457031 v -1.9882812 h 1.628906 z m 3,0 h -1.632812 v -5.4140625 h 1.632812 z" id="text35" style="font-weight:700;font-size:8px;font-family:GillSans-Bold, 'Gill Sans'" transform="matrix(0.82,0,0,1,102,253.68)" aria-label="Slap HI" />
    <path d="M 5.8710937,-4.0976562 H 3.8867188 V 0 H 2.2578125 v -4.0976562 h -1.984375 v -1.3164063 h 5.5976562 z m 4.3125003,2.1054687 q 0,0.59375 -0.2578127,1.05859375 Q 9.6679688,-0.46875 9.1523438,-0.19921875 8.640625,0.0703125 7.9023437,0.0703125 q -0.7382812,0 -1.2539062,-0.26953125 Q 6.1367187,-0.46875 5.8789062,-0.93359375 5.625,-1.3984375 5.625,-1.9921875 q 0,-0.4492188 0.140625,-0.8164063 0.1445312,-0.3671875 0.4335937,-0.6484375 0.2929688,-0.2851562 0.71875,-0.4375 0.4257813,-0.1523437 0.984375,-0.1523437 0.5625001,0 0.9921876,0.15625 0.4335937,0.1523437 0.7148437,0.4296875 0.2851563,0.2773437 0.429688,0.6484375 0.144531,0.3710937 0.144531,0.8203125 z m -1.480469,0 q 0,-0.4726563 -0.2070312,-0.7382813 Q 8.2929688,-3 7.9023437,-3 q -0.3867187,0 -0.59375,0.2695312 -0.203125,0.265625 -0.203125,0.7382813 0,0.46875 0.2070313,0.7421875 0.2070312,0.2734375 0.5898437,0.2734375 0.3906251,0 0.5937501,-0.2695312 Q 8.703125,-1.5195312 8.703125,-1.9921875 Z M 15.160156,0 h -1.40625 v -2.1445313 q 0,-0.328125 -0.109375,-0.5703125 -0.105468,-0.2460937 -0.46875,-0.2460937 -0.171875,0 -0.304687,0.066406 -0.128906,0.0625 -0.234375,0.1640625 -0.101563,0.1015625 -0.171875,0.1953125 -0.07031,0.09375 -0.144531,0.1992188 V 0 h -1.40625 v -3.9765625 h 1.40625 V -3.40625 q 0.332031,-0.3554688 0.664062,-0.4960938 0.335938,-0.1445312 0.746094,-0.1445312 1.429687,0 1.429687,1.7109375 z m 4.921875,-1.6484375 H 17.28125 q 0.08203,0.3632813 0.402344,0.59375 0.320312,0.23046875 0.726562,0.23046875 0.710938,0 1.570313,-0.39843745 v 0.8710937 q -0.308594,0.16015625 -0.75,0.29296875 -0.4375,0.12890625 -1.117188,0.12890625 -0.734375,0 -1.25,-0.2734375 -0.515625,-0.2734375 -0.773437,-0.7421875 -0.253906,-0.46875 -0.253906,-1.0625 0,-0.5859375 0.253906,-1.046875 0.257812,-0.4648438 0.773437,-0.7265625 0.515625,-0.265625 1.25,-0.265625 0.484375,0 0.933594,0.2109375 0.453125,0.2070312 0.742187,0.6835937 0.292969,0.4726563 0.292969,1.2226563 z M 18.761719,-2.34375 q 0,-0.3828125 -0.191407,-0.609375 -0.1875,-0.2304688 -0.542968,-0.2304688 -0.351563,0 -0.570313,0.234375 Q 17.242187,-2.71875 17.242187,-2.34375 Z M 29.097656,0 H 27.46875 V -2.1132813 H 25.011719 V 0 h -1.632813 v -5.4140625 h 1.632813 v 1.9882812 h 2.457031 v -1.9882812 h 1.628906 z m 3,0 h -1.632812 v -5.4140625 h 1.632812 z" id="text36" style="font-weight:700;font-size:8px;font-family:GillSans-Bold, 'Gill Sans'" transform="matrix(0.82,0,0,1,99.27,293.26)" aria-label="Tone HI" />
    <path d="m 105.66117,164.93412 q 0,0.50781 -0.21461,0.87891 -0.2114,0.37109 -0.59258,0.57031 -0.38117,0.19531 -0.87445,0.19531 -0.13773,0 -0.33953,-0.0234 -0.19859,-0.0195 -0.53172,-0.11718 -0.32992,-0.0977 -0.68867,-0.28907 v -1.32812 q 0.33633,0.25391 0.65984,0.42187 0.32672,0.16797 0.69828,0.16797 0.34274,0 0.44204,-0.13672 0.1025,-0.14062 0.1025,-0.26171 0,-0.21875 -0.17297,-0.36719 -0.17297,-0.15235 -0.50289,-0.3125 -0.36516,-0.1875 -0.64063,-0.40625 -0.27547,-0.22266 -0.45164,-0.55469 -0.17297,-0.33203 -0.17297,-0.78516 0,-0.4375 0.17617,-0.78906 0.17618,-0.35547 0.53813,-0.5664 0.36195,-0.21094 0.88406,-0.21094 0.37156,0 0.68547,0.0898 0.31711,0.0859 0.52211,0.19532 0.205,0.10938 0.28187,0.17188 v 1.26953 q -0.27226,-0.23828 -0.60859,-0.42578 -0.33312,-0.1875 -0.7143,-0.1875 -0.24984,0 -0.36195,0.11719 -0.11211,0.11717 -0.11211,0.28906 0,0.16015 0.11211,0.27734 0.11211,0.11719 0.40039,0.28516 0.5125,0.29297 0.82,0.52734 0.3075,0.23438 0.48047,0.54297 0.17617,0.30469 0.17617,0.76171 z m 1.93469,1.57422 h -1.15633 v -5.41406 h 1.15633 z m 4.17687,-0.19922 q -0.25304,0.12109 -0.46765,0.19531 -0.21461,0.0742 -0.51571,0.0742 -0.28507,0 -0.39718,-0.12109 -0.11211,-0.125 -0.16016,-0.30078 -0.18578,0.18359 -0.4132,0.30468 -0.22742,0.11719 -0.59578,0.11719 -0.35555,0 -0.57657,-0.14844 -0.21781,-0.15234 -0.3075,-0.3789 -0.0865,-0.23047 -0.0865,-0.47266 0,-0.36719 0.15055,-0.60547 0.15375,-0.24218 0.41,-0.39453 0.25625,-0.15234 0.67906,-0.3164 0.24023,-0.0937 0.36195,-0.14063 0.12492,-0.0508 0.18578,-0.0781 0.0609,-0.0273 0.12813,-0.0703 0,-0.28906 -0.0961,-0.45312 -0.0961,-0.16406 -0.4164,-0.16406 -0.37797,0 -0.70149,0.20312 -0.32351,0.20313 -0.59257,0.52344 v -1.07813 q 0.21461,-0.1875 0.46445,-0.30468 0.24984,-0.1211 0.52211,-0.17969 0.27226,-0.0586 0.55094,-0.0586 0.70789,0 1.06343,0.33593 0.35875,0.33203 0.35875,0.91797 v 1.53516 q 0,0.21875 0.032,0.32812 0.0352,0.10547 0.12493,0.10547 0.1089,0 0.29468,-0.11328 z m -1.60476,-0.76172 v -0.9414 q -0.41,0.20312 -0.59899,0.36718 -0.18898,0.16016 -0.18898,0.4375 0,0.19922 0.0929,0.30469 0.0961,0.10547 0.22102,0.10547 0.11851,0 0.23382,-0.0781 0.11852,-0.082 0.24024,-0.19531 z m 5.6407,-1.05469 q 0,0.39844 -0.0929,0.76954 -0.0929,0.37109 -0.28508,0.67187 -0.18898,0.29688 -0.49008,0.47266 -0.29789,0.17187 -0.69507,0.17187 -0.32032,0 -0.5061,-0.082 -0.18258,-0.082 -0.36515,-0.21875 v 2.03906 h -1.15313 v -5.78514 h 1.15313 v 0.35937 q 0.17297,-0.18359 0.38117,-0.30469 0.2114,-0.125 0.57015,-0.125 0.35555,0 0.69829,0.21485 0.34273,0.21484 0.56375,0.67187 0.22101,0.45313 0.22101,1.14453 z m -1.21398,0.0312 q 0,-0.35937 -0.0929,-0.58203 -0.0929,-0.22656 -0.24024,-0.32422 -0.14734,-0.10156 -0.30429,-0.10156 -0.205,0 -0.33633,0.082 -0.13133,0.0781 -0.24664,0.19922 v 1.51953 q 0.0609,0.0391 0.12812,0.0898 0.0705,0.0469 0.13774,0.082 0.0705,0.0352 0.14734,0.0586 0.0801,0.0234 0.16977,0.0234 0.27226,0 0.45484,-0.28125 0.18258,-0.28125 0.18258,-0.76563 z m 8.63883,1.98438 h -1.33571 v -2.11323 h -2.01476 v 2.11328 h -1.33891 v -5.41406 h 1.33891 v 1.98828 h 2.01476 v -1.98828 h 1.33571 z m 2.46,0 h -1.33891 v -5.41406 h 1.33891 z" id="text35-1" style="font-weight:700;font-size:8px;font-family:GillSans-Bold, 'Gill Sans';stroke-width:0.905538" aria-label="Slap HI" />
    <path d="m 105.57949,204.96839 h -1.62719 v 4.09766 h -1.3357 v -4.09766 h -1.62719 v -1.3164 h 4.59008 z m 3.53625,2.10547 q 0,0.59375 -0.21141,1.0586 -0.21141,0.46484 -0.63422,0.73437 -0.41961,0.26953 -1.025,0.26953 -0.60539,0 -1.0282,-0.26953 -0.41961,-0.26953 -0.63102,-0.73437 -0.2082,-0.46485 -0.2082,-1.0586 0,-0.44922 0.11531,-0.8164 0.11852,-0.36719 0.35555,-0.64844 0.24023,-0.28516 0.58937,-0.4375 0.34914,-0.15235 0.80719,-0.15235 0.46125,0 0.8136,0.15625 0.35554,0.15235 0.58617,0.42969 0.23383,0.27735 0.35234,0.64844 0.11852,0.37109 0.11852,0.82031 z m -1.21399,0 q 0,-0.47265 -0.16976,-0.73828 -0.16657,-0.26953 -0.48688,-0.26953 -0.31711,0 -0.48687,0.26953 -0.16657,0.26563 -0.16657,0.73828 0,0.46875 0.16977,0.74219 0.16977,0.27344 0.48367,0.27344 0.32031,0 0.48688,-0.26953 0.16976,-0.27344 0.16976,-0.7461 z m 5.29477,1.99219 h -1.15313 v -2.14453 q 0,-0.32813 -0.0897,-0.57031 -0.0865,-0.2461 -0.38438,-0.2461 -0.14094,0 -0.24984,0.0664 -0.10571,0.0625 -0.19219,0.16406 -0.0833,0.10156 -0.14094,0.19531 -0.0577,0.0937 -0.11851,0.19922 v 2.33594 h -1.15313 v -3.97656 h 1.15313 v 0.57031 q 0.27226,-0.35547 0.54453,-0.49609 0.27547,-0.14454 0.61179,-0.14454 1.17235,0 1.17235,1.71094 z m 4.03594,-1.64844 h -2.29665 q 0.0673,0.36328 0.32993,0.59375 0.26265,0.23047 0.59578,0.23047 0.58297,0 1.28765,-0.39844 v 0.8711 q -0.25304,0.16015 -0.615,0.29297 -0.35875,0.1289 -0.91609,0.1289 -0.60219,0 -1.025,-0.27344 -0.42281,-0.27343 -0.63422,-0.74218 -0.2082,-0.46875 -0.2082,-1.0625 0,-0.58594 0.2082,-1.04688 0.21141,-0.46484 0.63422,-0.72656 0.42281,-0.26563 1.025,-0.26563 0.39719,0 0.76555,0.21094 0.37156,0.20703 0.60859,0.6836 0.24024,0.47265 0.24024,1.22265 z m -1.08266,-0.69531 q 0,-0.38281 -0.15695,-0.60938 -0.15375,-0.23046 -0.44524,-0.23046 -0.28828,0 -0.46765,0.23437 -0.17618,0.23047 -0.17618,0.60547 z m 8.47547,2.34375 h -1.33571 v -2.11328 h -2.01476 v 2.11328 h -1.33891 v -5.41406 h 1.33891 v 1.98828 h 2.01476 v -1.98828 h 1.33571 z m 2.46,0 h -1.33891 v -5.41406 h 1.33891 z" id="text36-4" style="font-weight:700;font-size:8px;font-family:GillSans-Bold, 'Gill Sans';stroke-width:0.905538" aria-label="Tone HI" />
    <path d="m 5.3671875,-3.7109375 q 0,0.3007812 -0.1054688,0.5898437 -0.1015625,0.2851563 -0.3320312,0.5351563 -0.2304688,0.2460937 -0.625,0.4023437 Q 3.9140625,-2.03125 3.3828125,-2.03125 H 2.3125 V 0 H 0.6796875 v -5.4140625 h 2.703125 q 0.53125,0 0.921875,0.15625 0.3945312,0.15625 0.625,0.40625 0.2304687,0.25 0.3320312,0.5429688 0.1054688,0.2929687 0.1054688,0.5976562 z m -1.6640625,0.00781 q 0,-0.3867187 -0.2304687,-0.5273437 Q 3.2460938,-4.375 2.65625,-4.375 H 2.3125 v 1.3046875 h 0.3515625 q 0.40625,0 0.625,-0.050781 0.21875,-0.050781 0.3164063,-0.1875 0.097656,-0.1367187 0.097656,-0.3945312 z m 3.7070312,-1.1914062 q 0,0.2460937 -0.1757812,0.4179687 -0.1757813,0.171875 -0.4179688,0.171875 -0.1640625,0 -0.3007812,-0.078125 -0.1328125,-0.078125 -0.2109375,-0.2109375 -0.078125,-0.1367187 -0.078125,-0.3007812 0,-0.2421875 0.171875,-0.4179688 0.171875,-0.1757812 0.4179687,-0.1757812 0.2421875,0 0.4179688,0.1757812 0.1757812,0.1757813 0.1757812,0.4179688 z M 7.5234375,0 H 6.1132812 v -3.9765625 h 1.4101563 z m 4.1054685,-0.23046875 q -0.21875,0.10546875 -0.605468,0.203125 -0.382813,0.09765625 -0.734375,0.09765625 -1.5195317,0 -1.5195317,-1.484375 V -3 H 8.1328125 v -0.2460938 l 1.8867185,-1.9218749 h 0.160157 v 1.1914062 h 1.34375 V -3 h -1.34375 v 1.2734375 q 0,0.2226563 0.02734,0.359375 0.02734,0.1367188 0.152344,0.2304688 0.128906,0.089844 0.386719,0.089844 0.335937,0 0.882812,-0.28125 z m 4.023438,0.046875 q -0.175781,0.0664063 -0.371094,0.125 -0.195312,0.0546875 -0.441406,0.08984375 -0.242188,0.0390625 -0.53125,0.0390625 -0.652344,0 -1.105469,-0.21875 Q 12.753906,-0.37109375 12.507813,-0.703125 12.265625,-1.0390625 12.171875,-1.3867187 12.078125,-1.734375 12.078125,-2 q 0,-0.265625 0.09375,-0.6132813 0.09766,-0.3476562 0.335938,-0.671875 0.238281,-0.3242187 0.6875,-0.5429687 0.453125,-0.21875 1.113281,-0.21875 0.441406,0 0.71875,0.0625 0.277344,0.0625 0.5625,0.1679687 v 1.1054688 q -0.6875,-0.21875 -1.074219,-0.21875 -0.375,0 -0.667969,0.2265625 Q 13.558594,-2.4765625 13.558594,-2 q 0,0.3164063 0.144531,0.5351563 0.144531,0.2148437 0.367188,0.3164062 0.222656,0.1015625 0.445312,0.1015625 0.210938,0 0.480469,-0.0625 0.269531,-0.0625 0.65625,-0.1796875 z M 20.582031,0 h -1.40625 v -2.0625 q 0,-0.023437 0,-0.042969 0.0039,-0.023437 0.0039,-0.09375 0,-0.2851562 -0.121093,-0.5234375 -0.121094,-0.2382812 -0.460938,-0.2382812 -0.265625,0 -0.46875,0.1796875 -0.203125,0.1757812 -0.386719,0.4453125 V 0 h -1.40625 v -5.4140625 h 1.40625 V -3.40625 q 0.347657,-0.3710938 0.6875,-0.5039063 0.339844,-0.1367187 0.722657,-0.1367187 1.429687,0 1.429687,1.6054687 z" id="text37" style="font-weight:700;font-size:8px;font-family:GillSans-Bold, 'Gill Sans'" transform="matrix(0.82,0,0,1,63.39,253.68)" aria-label="Pitch" />
    <path d="m 6.2460937,-2.609375 q 0,0.8320313 -0.3046875,1.3359375 Q 5.640625,-0.76953125 5.2304687,-0.45703125 4.6484375,0 3.6015625,0 h -2.921875 v -5.4140625 h 2.25 q 0.5078125,0 0.8671875,0.054687 0.3632812,0.050781 0.6523437,0.1484375 0.2890625,0.09375 0.4921875,0.2148438 0.203125,0.1171875 0.3632813,0.2539062 0.2773437,0.2265625 0.484375,0.5351563 Q 6,-3.8984375 6.1210937,-3.4921875 q 0.125,0.40625 0.125,0.8828125 z M 4.5859375,-2.679687 q 0,-0.6601563 -0.2539063,-1.0273438 -0.25,-0.3710937 -0.6054687,-0.4960937 -0.3515625,-0.125 -0.71875,-0.125 H 2.3125 v 3.2070313 h 0.6953125 q 0.640625,0 1.109375,-0.3046875 0.46875,-0.3046875 0.46875,-1.2539063 z m 6.5156255,1.03125 H 8.3007813 q 0.082031,0.3632813 0.4023437,0.59375 0.3203125,0.23046875 0.7265625,0.23046875 0.7109375,0 1.5703125,-0.39843745 V -0.351562 Q 10.691406,-0.19140575 10.25,-0.05859325 9.8125,0.070313 9.1328125,0.070313 q -0.734375,0 -1.25,-0.2734375 -0.515625,-0.2734375 -0.7734375,-0.7421875 -0.2539063,-0.46875 -0.2539063,-1.0625 0,-0.5859375 0.2539063,-1.046875 0.2578125,-0.4648438 0.7734375,-0.7265625 0.515625,-0.265625 1.25,-0.265625 0.484375,0 0.9335935,0.2109375 0.453125,0.2070312 0.742188,0.6835937 0.292969,0.4726563 0.292969,1.2226563 z M 9.78125,-2.34375 q 0,-0.3828125 -0.1914062,-0.609375 -0.1875,-0.2304688 -0.5429688,-0.2304688 -0.3515625,0 -0.5703125,0.234375 Q 8.2617188,-2.71875 8.2617188,-2.34375 Z m 5.417969,2.16015625 q -0.175781,0.0664063 -0.371094,0.125 -0.195312,0.0546875 -0.441406,0.08984375 -0.242188,0.0390625 -0.53125,0.0390625 -0.652344,0 -1.105469,-0.21875 Q 12.300781,-0.37109375 12.054688,-0.703125 11.8125,-1.0390625 11.71875,-1.3867187 11.625,-1.734375 11.625,-2 q 0,-0.265625 0.09375,-0.6132813 0.09766,-0.3476562 0.335938,-0.671875 0.238281,-0.3242187 0.6875,-0.5429687 0.453125,-0.21875 1.113281,-0.21875 0.441406,0 0.71875,0.0625 0.277344,0.0625 0.5625,0.1679687 v 1.1054688 q -0.6875,-0.21875 -1.074219,-0.21875 -0.375,0 -0.667969,0.2265625 Q 13.105469,-2.4765625 13.105469,-2 q 0,0.3164063 0.144531,0.5351563 0.144531,0.2148437 0.367188,0.3164062 0.222656,0.1015625 0.445312,0.1015625 0.210938,0 0.480469,-0.0625 0.269531,-0.0625 0.65625,-0.1796875 z m 4.808593,-0.015625 Q 19.699219,-0.078125 19.4375,-0.00390625 19.175781,0.0703125 18.808594,0.0703125 q -0.347657,0 -0.484375,-0.12109375 -0.136719,-0.125 -0.195313,-0.30078125 -0.226562,0.18359375 -0.503906,0.3046875 -0.277344,0.1171875 -0.726563,0.1171875 -0.433593,0 -0.703125,-0.1484375 Q 15.929688,-0.23046875 15.820313,-0.45703125 15.714844,-0.6875 15.714844,-0.9296875 q 0,-0.3671875 0.183594,-0.6054687 0.187499,-0.2421875 0.499999,-0.3945313 0.3125,-0.1523438 0.828125,-0.3164063 0.292969,-0.09375 0.441407,-0.140625 0.152343,-0.050781 0.226562,-0.078125 0.07422,-0.027344 0.15625,-0.070312 0,-0.2890625 -0.117187,-0.453125 -0.117188,-0.1640625 -0.507813,-0.1640625 -0.460937,0 -0.855469,0.203125 -0.394531,0.203125 -0.722656,0.5234375 v -1.078125 q 0.261719,-0.1875 0.566406,-0.3046875 0.304688,-0.1210937 0.636719,-0.1796875 0.332031,-0.058594 0.671875,-0.058594 0.863281,0 1.296875,0.3359375 0.4375,0.3320312 0.4375,0.9179687 v 1.5351563 q 0,0.21875 0.03906,0.328125 0.04297,0.10546875 0.152343,0.10546875 0.132813,0 0.359375,-0.11328125 z M 18.050781,-0.9609375 v -0.9414062 q -0.5,0.203125 -0.730469,0.3671875 -0.230468,0.1601562 -0.230468,0.4375 0,0.1992187 0.113281,0.30468745 0.117187,0.10546875 0.269531,0.10546875 0.144531,0 0.285156,-0.078125 0.144532,-0.0820313 0.292969,-0.1953125 z m 6.660156,-3.015625 -2.703125,5.7851562 h -1.421875 l 1.09375,-2.32812495 -1.574218,-3.45703125 h 1.511718 L 22.425781,-2 23.34375,-3.9765625 Z" id="text38" style="font-weight:700;font-size:8px;font-family:GillSans-Bold, 'Gill Sans'" transform="matrix(0.82,0,0,1,60.88,293.26)" aria-label="Decay" />
    <g id="text44" style="font-weight:700;font-size:11px;font-family:GillSans-Bold, 'Gill Sans'" transform="matrix(0.82,0,0,1,34.89,357.06)" aria-label="CONGABONGO">
      <path style="letter-spacing:-0.01em" d="M 7.6000977,-0.55859375 Q 7.1381836,-0.31689453 6.6547852,-0.171875 6.1713867,-0.02685547 5.6772461,0.03222656 5.1884766,0.09667969 4.6621094,0.09667969 q -0.972168,0 -1.7456055,-0.26855469 Q 2.1484375,-0.44042969 1.5791016,-0.96142578 1.0151367,-1.487793 0.73046875,-2.1860352 0.45117188,-2.8896484 0.45117188,-3.7275391 q 0,-0.9614257 0.33300781,-1.6811523 0.33300781,-0.7250977 0.92919921,-1.203125 0.6015625,-0.4780273 1.3642578,-0.7036133 0.7680664,-0.230957 1.6166992,-0.230957 1.2675782,0 2.8735352,0.5639648 v 1.9765625 q -0.5532227,-0.34375 -1.0957031,-0.5693359 -0.5371094,-0.230957 -1.2675782,-0.230957 -0.6499023,0 -1.2138671,0.2578125 -0.5639649,0.2578125 -0.9077149,0.7358398 -0.34375,0.4780273 -0.34375,1.1171875 0,0.5639648 0.3007813,1.0366211 0.3007812,0.4672851 0.8325195,0.746582 0.5371094,0.2739258 1.2084961,0.2739258 0.5424805,0 1.0258789,-0.1289062 Q 6.590332,-1.9013672 6.9179687,-2.0625 7.2509766,-2.2236328 7.6000977,-2.4438477 Z M 16.808945,-3.7275391 q 0,1.0419922 -0.483398,1.9174805 -0.478028,0.87548829 -1.428711,1.39111329 -0.950684,0.515625 -2.314942,0.515625 -1.380371,0 -2.336425,-0.53710938 Q 9.2894139,-0.97753906 8.8221288,-1.8530273 8.3602147,-2.7285156 8.3602147,-3.7275391 q 0,-1.0043945 0.4619141,-1.8745117 0.461914,-0.8754883 1.4179692,-1.4072265 0.961425,-0.5371094 2.341796,-0.5371094 1.03125,0 1.836914,0.3061523 0.811036,0.3061524 1.332032,0.8325196 0.520996,0.5209961 0.78955,1.2192382 0.268555,0.6928711 0.268555,1.4609375 z m -2.288086,0 q 0,-0.4189453 -0.123535,-0.7626953 -0.123535,-0.3491211 -0.375976,-0.6015625 -0.247071,-0.2578125 -0.606934,-0.3974609 -0.359863,-0.1450195 -0.83252,-0.1450195 -0.902343,0 -1.417968,0.5263671 -0.515625,0.5263672 -0.515625,1.3803711 0,0.8540039 0.515625,1.3857422 0.520996,0.5263672 1.417968,0.5263672 0.617676,0 1.052735,-0.2416992 0.435058,-0.2470703 0.660644,-0.6767578 0.225586,-0.4350586 0.225586,-0.9936524 z" id="path52" />
      <path d="M 26.238066,0 H 24.240019 L 20.378202,-4.1464844 V 0 H 18.15457 v -7.4443359 h 1.992675 l 3.851075,4.125 v -4.125 h 2.239746 z" id="path53" />
      <path style="letter-spacing:-0.01em" d="m 35.13459,-0.52636719 q -0.241699,0.0913086 -0.413574,0.15039063 -0.171875,0.059082 -0.333008,0.10742187 -0.155762,0.0483398 -0.456543,0.12353516 -0.510254,0.11816406 -1.020508,0.17724609 -0.504882,0.06445313 -1.068847,0.06445313 -1.133301,0 -2.094727,-0.41357422 -0.961426,-0.41357422 -1.541504,-1.28369137 -0.574707,-0.8701172 -0.574707,-2.1376954 0,-0.8164062 0.29541,-1.6005859 0.300782,-0.7895508 0.913086,-1.262207 0.504883,-0.3920899 1.020508,-0.5961914 0.520996,-0.2094727 1.015137,-0.2792969 0.49414,-0.069824 1.090332,-0.069824 0.98291,0 1.62207,0.1503906 0.63916,0.1450195 1.401856,0.3867188 v 1.7617187 q -0.504883,-0.2954101 -1.068848,-0.4941406 -0.563965,-0.1987305 -1.407227,-0.1987305 -0.972168,0 -1.557617,0.3706055 -0.580078,0.3652344 -0.811035,0.8754883 -0.225586,0.5102539 -0.225586,0.9882812 0,0.5639649 0.263184,1.0419922 0.263183,0.4726562 0.794922,0.7626953 0.531738,0.284668 1.283691,0.284668 0.429687,0 0.913086,-0.112793 v -0.8754883 h -1.009766 v -1.4985351 h 2.970215 z" id="path54" />
      <path d="M 44.919376,0 H 42.620548 L 42.013615,-1.5092773 H 38.780216 L 38.16254,0 h -2.298828 l 3.292481,-7.4443359 h 2.481445 z m -3.421386,-2.8037109 -1.090332,-2.7177735 -1.101075,2.7177735 z m 11.209472,0.6928711 q 0,0.9614257 -0.660644,1.53613277 Q 51.391544,0 50.209904,0 h -4.302246 v -7.4443359 h 3.598632 q 0.698243,0 1.213868,0.1342773 0.520996,0.1342774 0.83789,0.3706055 0.316895,0.230957 0.472656,0.5478515 0.155762,0.3168946 0.155762,0.6928711 0,0.4082032 -0.161133,0.7573243 -0.161132,0.34375 -0.402832,0.5693359 -0.236328,0.2202148 -0.478027,0.3115234 0.762695,0.3007813 1.160156,0.7626953 0.402832,0.456543 0.402832,1.1870118 z m -2.621093,-3.1904297 q 0,-0.5371094 -0.354493,-0.7143555 -0.354492,-0.1772461 -1.106445,-0.1772461 h -0.472656 v 1.7832031 h 0.483398 q 0.768067,0 1.106446,-0.1772461 0.34375,-0.1772461 0.34375,-0.7143554 z m 0.365234,3.0991211 q 0,-0.9560547 -1.385742,-0.9560547 h -0.913086 v 1.9067383 h 0.913086 q 1.385742,0 1.385742,-0.9506836 z" id="path55" />
      <path style="letter-spacing:-0.01em" d="m 62.109901,-3.7275391 q 0,1.0419922 -0.483398,1.9174805 -0.478027,0.87548829 -1.428711,1.39111329 -0.950684,0.515625 -2.314941,0.515625 -1.380371,0 -2.336426,-0.53710938 -0.956055,-0.53710937 -1.42334,-1.41259761 -0.461914,-0.8754883 -0.461914,-1.8745118 0,-1.0043945 0.461914,-1.8745117 0.461914,-0.8754883 1.417969,-1.4072265 0.961426,-0.5371094 2.341797,-0.5371094 1.03125,0 1.836914,0.3061523 0.811035,0.3061524 1.332031,0.8325196 0.520996,0.5209961 0.789551,1.2192382 0.268554,0.6928711 0.268554,1.4609375 z m -2.288086,0 q 0,-0.4189453 -0.123535,-0.7626953 -0.123535,-0.3491211 -0.375976,-0.6015625 -0.247071,-0.2578125 -0.606934,-0.3974609 -0.359863,-0.1450195 -0.832519,-0.1450195 -0.902344,0 -1.417969,0.5263671 -0.515625,0.5263672 -0.515625,1.3803711 0,0.8540039 0.515625,1.3857422 0.520996,0.5263672 1.417969,0.5263672 0.617675,0 1.052734,-0.2416992 0.435059,-0.2470703 0.660645,-0.6767578 0.225585,-0.4350586 0.225585,-0.9936524 z" id="path56" />
      <path d="M 71.438065,0 H 69.440018 L 65.578201,-4.1464844 V 0 h -2.223633 v -7.4443359 h 1.992676 l 3.851074,4.125 v -4.125 h 2.239747 z m 8.88916,-0.52636719 q -0.241699,0.0913086 -0.413574,0.15039063 -0.171875,0.059082 -0.333008,0.10742187 -0.155762,0.0483398 -0.456543,0.12353516 -0.510254,0.11816406 -1.020508,0.17724609 -0.504883,0.06445313 -1.068848,0.06445313 -1.133301,0 -2.094726,-0.41357422 -0.961426,-0.41357422 -1.541504,-1.28369137 -0.574707,-0.8701172 -0.574707,-2.1376954 0,-0.8164062 0.29541,-1.6005859 0.300781,-0.7895508 0.913086,-1.262207 0.504883,-0.3920899 1.020508,-0.5961914 0.520996,-0.2094727 1.015136,-0.2792969 0.494141,-0.069824 1.090332,-0.069824 0.982911,0 1.622071,0.1503906 0.63916,0.1450195 1.401855,0.3867188 v 1.7617187 q -0.504883,-0.2954101 -1.068847,-0.4941406 -0.563965,-0.1987305 -1.407227,-0.1987305 -0.972168,0 -1.557617,0.3706055 -0.580078,0.3652344 -0.811035,0.8754883 -0.225586,0.5102539 -0.225586,0.9882812 0,0.5639649 0.263183,1.0419922 0.263184,0.4726562 0.794922,0.7626953 0.531738,0.284668 1.283692,0.284668 0.429687,0 0.913086,-0.112793 V -2.6049805 H 77.35701 v -1.4985351 h 2.970215 z m 9.732422,-3.20117191 q 0,1.0419922 -0.483399,1.9174805 -0.478027,0.87548829 -1.428711,1.39111329 -0.950683,0.515625 -2.314941,0.515625 -1.380371,0 -2.336426,-0.53710938 -0.956055,-0.53710937 -1.42334,-1.41259761 -0.461914,-0.8754883 -0.461914,-1.8745118 0,-1.0043945 0.461914,-1.8745117 0.461914,-0.8754883 1.417969,-1.4072265 0.961426,-0.5371094 2.341797,-0.5371094 1.03125,0 1.836914,0.3061523 0.811035,0.3061524 1.332031,0.8325196 0.520996,0.5209961 0.789551,1.2192382 0.268555,0.6928711 0.268555,1.4609375 z m -2.288086,0 q 0,-0.4189453 -0.123535,-0.7626953 -0.123536,-0.3491211 -0.375977,-0.6015625 -0.24707,-0.2578125 -0.606934,-0.3974609 -0.359863,-0.1450195 -0.832519,-0.1450195 -0.902344,0 -1.417969,0.5263671 -0.515625,0.5263672 -0.515625,1.3803711 0,0.8540039 0.515625,1.3857422 0.520996,0.5263672 1.417969,0.5263672 0.617676,0 1.052734,-0.2416992 0.435059,-0.2470703 0.660645,-0.6767578 0.225586,-0.4350586 0.225586,-0.9936524 z" id="path57" />
    </g>
  </g>
  <g /></svg>