<svg xmlns="http://www.w3.org/2000/svg" xmlns:inkscape="http://www.inkscape.org/namespaces/inkscape" xmlns:sodipodi="http://sodipodi.sourceforge.net/DTD/sodipodi-0.dtd" width="20.320108mm" height="128.5mm" viewBox="0 0 76.800412 485.66929" version="1.1" id="svg41" sodipodi:docname="Cowbell_info.svg" inkscape:version="1.4 (e7c3feb1, 2024-10-09)">
  <sodipodi:namedview id="namedview41" pagecolor="#ffffff" bordercolor="#000000" borderopacity="0.25" inkscape:showpageshadow="2" inkscape:pageopacity="0.0" inkscape:pagecheckerboard="0" inkscape:deskcolor="#d1d1d1" inkscape:zoom="5.253686" inkscape:cx="56.912423" inkscape:cy="346.2331" inkscape:window-width="1920" inkscape:window-height="1027" inkscape:window-x="2560" inkscape:window-y="232" inkscape:window-maximized="0" inkscape:current-layer="components" inkscape:document-units="mm" />
  <defs id="defs4">
    <clipPath id="clippath">
      <rect x="14.9" y="32.98" width="27.799999" height="25.620001" style="fill:none" id="rect1" />
    </clipPath>
    <clipPath id="clippath-1">
      <rect x="14.9" y="32.98" width="27.799999" height="25.620001" style="fill:none" id="rect2" />
    </clipPath>
    <clipPath id="clippath-2">
      <rect x="14.9" y="129.37" width="27.799999" height="25.620001" style="fill:none" id="rect3" />
    </clipPath>
    <clipPath id="clippath-3">
      <rect x="14.9" y="129.37" width="27.799999" height="25.620001" style="fill:none" id="rect4" />
    </clipPath>
  </defs>
  <g id="faceplate" transform="scale(1.3333405)">
    <g id="g5">
      <rect x="0.13" y="0.13" width="57.349998" height="364" style="fill:#ededed" id="rect5" />
      <path d="M 57.35,0.25 V 364 H 0.25 V 0.25 h 57.1 M 57.6,0 H 0 v 364.25 h 57.6 z" style="fill:#9d9d9e" id="path5" />
    </g>
    <path d="m 44.27,252.90059 c 0,-8.05 -6.98,-14.57 -15.59,-14.57 -8.61,0 -15.59,6.53 -15.59,14.57 v 54.4 c 0,0 0,0 0,0 v 19.77 c 0,3.11 2.55,5.65 5.67,5.65 H 38.6 c 3.12,0 5.67,-2.54 5.67,-5.65 v -19.77 c 0,0 0,0 0,0 v -54.39 z" style="fill:#d1d3d4" id="path6" />
    <path d="m 44.27,301.94059 c 0,-8.05 -6.98,-14.57 -15.59,-14.57 -8.61,0 -15.59,6.53 -15.59,14.57 v 5.36 c 0,0 0,0 0,0 v 19.77 c 0,3.11 2.55,5.65 5.67,5.65 H 38.6 c 3.12,0 5.67,-2.54 5.67,-5.65 v -19.77 c 0,0 0,0 0,0 v -5.35 z" id="path7" />
    <g id="pips_-_fewest" data-name="pips - fewest" transform="translate(0,5.8155423)">
      <g clip-path="url(#clippath)" id="g18">
        <g clip-path="url(#clippath-1)" id="g17">
          <path d="m 34.49,35.76 0.71,-1.23 c -1.74,-0.9 -3.7,-1.45 -5.77,-1.55 v 1.43 c 1.81,0.09 3.53,0.56 5.06,1.35" id="path8" />
          <path d="m 39.29,40.1 1.23,-0.71 C 39.43,37.7 37.99,36.25 36.3,35.17 l -0.71,1.23 c 1.48,0.96 2.74,2.22 3.7,3.7" id="path9" />
          <path d="M 22.01,36.4 21.3,35.17 c -1.69,1.09 -3.14,2.53 -4.22,4.22 l 1.23,0.71 c 0.96,-1.48 2.22,-2.74 3.7,-3.7" id="path10" />
          <path d="m 41.27,46.25 h 1.43 c -0.09,-2.07 -0.64,-4.03 -1.55,-5.77 l -1.23,0.71 c 0.79,1.53 1.26,3.24 1.35,5.06" id="path11" />
          <path d="m 28.17,34.41 v -1.43 c -2.07,0.09 -4.03,0.64 -5.77,1.55 l 0.71,1.23 c 1.53,-0.79 3.24,-1.26 5.06,-1.35" id="path12" />
          <path d="m 18.31,53.67 -1.23,0.71 c 1.09,1.69 2.53,3.14 4.22,4.22 l 0.71,-1.23 c -1.48,-0.96 -2.74,-2.22 -3.7,-3.7" id="path13" />
          <path d="m 35.59,57.38 0.71,1.23 c 1.69,-1.09 3.14,-2.53 4.22,-4.22 l -1.23,-0.71 c -0.96,1.48 -2.22,2.74 -3.7,3.7" id="path14" />
          <path d="m 41.27,47.52 c -0.09,1.81 -0.56,3.53 -1.35,5.06 l 1.23,0.71 c 0.9,-1.74 1.45,-3.7 1.55,-5.77 z" id="path15" />
          <path d="M 16.33,47.52 H 14.9 c 0.09,2.07 0.64,4.03 1.55,5.77 l 1.23,-0.71 c -0.79,-1.53 -1.26,-3.24 -1.35,-5.06" id="path16" />
          <path d="m 17.68,41.2 -1.23,-0.71 c -0.9,1.74 -1.45,3.7 -1.55,5.77 h 1.43 c 0.09,-1.81 0.56,-3.53 1.35,-5.06" id="path17" />
        </g>
      </g>
    </g>
    <path d="m 23.903906,71.01687 q 0,0.375977 -0.116015,0.737305 -0.111719,0.356445 -0.365235,0.668945 -0.253515,0.307618 -0.6875,0.50293 -0.429687,0.19043 -1.014062,0.19043 H 20.54375 v 2.539062 h -1.796094 v -6.767578 h 2.973438 q 0.584375,0 1.014062,0.195313 0.433985,0.195312 0.6875,0.507812 0.253516,0.3125 0.365235,0.678711 0.116015,0.366211 0.116015,0.74707 z m -1.830469,0.0098 q 0,-0.483398 -0.253515,-0.659179 -0.249219,-0.180669 -0.898047,-0.180669 H 20.54375 v 1.63086 h 0.386719 q 0.446875,0 0.6875,-0.06348 0.240625,-0.06348 0.348047,-0.234375 0.107421,-0.170899 0.107421,-0.493164 z m 3.725735,-1.489257 q 0,0.307617 -0.19336,0.522461 -0.193359,0.214843 -0.459765,0.214843 -0.180469,0 -0.33086,-0.09766 -0.146093,-0.09766 -0.232031,-0.263672 -0.08594,-0.170898 -0.08594,-0.375976 0,-0.302735 0.189062,-0.522461 0.189063,-0.219727 0.459766,-0.219727 0.266406,0 0.459766,0.219727 0.193359,0.219726 0.193359,0.522461 z m 0.124609,6.118159 h -1.551172 v -4.970703 h 1.551172 z m 4.164016,-0.288086 q -0.240625,0.131836 -0.666016,0.253907 -0.421094,0.12207 -0.807812,0.12207 -1.671485,0 -1.671485,-1.855469 v -1.982422 h -0.70039 v -0.307617 l 2.07539,-2.402344 h 0.176172 v 1.489258 h 1.478125 v 1.220703 h -1.478125 v 1.591797 q 0,0.278321 0.03008,0.449219 0.03008,0.170898 0.167579,0.288086 0.141796,0.112305 0.42539,0.112305 0.369531,0 0.971094,-0.351563 z m 4.073781,0.05859 q -0.193359,0.08301 -0.408203,0.15625 -0.214844,0.06836 -0.485547,0.112305 -0.266406,0.04883 -0.584375,0.04883 -0.717578,0 -1.216016,-0.273438 -0.49414,-0.27832 -0.764843,-0.693359 -0.266407,-0.419922 -0.369531,-0.854492 -0.103126,-0.43457 -0.103126,-0.766602 0,-0.332031 0.103126,-0.766601 0.107421,-0.434571 0.369531,-0.839844 0.262109,-0.405273 0.75625,-0.678711 0.498437,-0.273437 1.224609,-0.273437 0.485547,0 0.790625,0.07813 0.305079,0.07813 0.61875,0.209961 v 1.381835 q -0.75625,-0.273437 -1.181641,-0.273437 -0.4125,0 -0.734765,0.283203 -0.317969,0.283203 -0.317969,0.878906 0,0.395508 0.158984,0.668946 0.158985,0.268554 0.403907,0.395507 0.244922,0.126954 0.489843,0.126954 0.232032,0 0.528516,-0.07813 0.296484,-0.07813 0.721875,-0.22461 z m 5.070656,0.229492 h -1.546875 v -2.578125 q 0,-0.0293 0,-0.05371 0.0043,-0.0293 0.0043,-0.117187 0,-0.356446 -0.133203,-0.654297 -0.133203,-0.297852 -0.507031,-0.297852 -0.292188,0 -0.515626,0.22461 -0.223437,0.219726 -0.42539,0.55664 v 2.919922 h -1.546876 v -6.767578 h 1.546876 v 2.509766 q 0.382421,-0.463867 0.75625,-0.629883 0.373828,-0.170898 0.794921,-0.170898 1.572657,0 1.572657,2.006836 z" id="text18" style="font-weight:700;font-size:10px;font-family:GillSans-Bold, 'Gill Sans';letter-spacing:-0.04em;stroke-width:0.938083" aria-label="Pitch" />
    <g id="pips_-_fewest-2" data-name="pips - fewest" transform="translate(0,5.8155423)">
      <g clip-path="url(#clippath-2)" id="g28">
        <g clip-path="url(#clippath-3)" id="g27">
          <path d="m 34.49,132.15 0.71,-1.23 c -1.74,-0.9 -3.7,-1.45 -5.77,-1.55 v 1.43 c 1.81,0.09 3.53,0.56 5.06,1.35" id="path18" />
          <path d="m 39.29,136.48 1.23,-0.71 c -1.09,-1.69 -2.53,-3.14 -4.22,-4.22 l -0.71,1.23 c 1.48,0.96 2.74,2.22 3.7,3.7" id="path19" />
          <path d="m 22.01,132.78 -0.71,-1.23 c -1.69,1.09 -3.14,2.53 -4.22,4.22 l 1.23,0.71 c 0.96,-1.48 2.22,-2.74 3.7,-3.7" id="path20" />
          <path d="m 41.27,142.64 h 1.43 c -0.09,-2.07 -0.64,-4.03 -1.55,-5.77 l -1.23,0.71 c 0.79,1.53 1.26,3.24 1.35,5.06" id="path21" />
          <path d="m 28.17,130.8 v -1.43 c -2.07,0.09 -4.03,0.64 -5.77,1.55 l 0.71,1.23 c 1.53,-0.79 3.24,-1.26 5.06,-1.35" id="path22" />
          <path d="m 18.31,150.06 -1.23,0.71 c 1.09,1.69 2.53,3.14 4.22,4.22 l 0.71,-1.23 c -1.48,-0.96 -2.74,-2.22 -3.7,-3.7" id="path23" />
          <path d="m 35.59,153.76 0.71,1.23 c 1.69,-1.09 3.14,-2.53 4.22,-4.22 l -1.23,-0.71 c -0.96,1.48 -2.22,2.74 -3.7,3.7" id="path24" />
          <path d="m 41.27,143.9 c -0.09,1.81 -0.56,3.53 -1.35,5.06 l 1.23,0.71 c 0.9,-1.74 1.45,-3.7 1.55,-5.77 z" id="path25" />
          <path d="M 16.33,143.9 H 14.9 c 0.09,2.07 0.64,4.03 1.55,5.77 l 1.23,-0.71 c -0.79,-1.53 -1.26,-3.24 -1.35,-5.06" id="path26" />
          <path d="m 17.68,137.58 -1.23,-0.71 c -0.9,1.74 -1.45,3.7 -1.55,5.77 h 1.43 c 0.09,-1.81 0.56,-3.53 1.35,-5.06" id="path27" />
        </g>
      </g>
    </g>
    <path d="m 21.366562,276.29293 h -1.746249 v 4.09766 h -1.433438 v -4.09766 h -1.74625 v -1.31641 h 4.925937 z m 3.228088,0.33594 -0.457188,1.41015 q -0.281875,-0.30468 -0.570625,-0.30468 -0.26125,0 -0.45375,0.20312 -0.189062,0.19922 -0.364375,0.74219 v 1.71094 h -1.2375 v -3.97657 h 1.2375 v 0.96094 q 0.116875,-0.35547 0.4125,-0.6914 0.295625,-0.33985 0.694375,-0.33985 0.209688,0 0.364375,0.0703 0.158125,0.0703 0.374688,0.21485 z m 1.014337,-1.13281 q 0,0.24609 -0.154687,0.41796 -0.154688,0.17188 -0.367813,0.17188 -0.144375,0 -0.264687,-0.0781 -0.116875,-0.0781 -0.185625,-0.21093 -0.06875,-0.13672 -0.06875,-0.30078 0,-0.24219 0.15125,-0.41797 0.15125,-0.17578 0.367812,-0.17578 0.213125,0 0.367813,0.17578 0.154687,0.17578 0.154687,0.41797 z m 0.09969,4.89453 h -1.240938 v -3.97657 h 1.240938 z m 4.0909,-3.12891 H 29.1877 q 0.323125,0.32031 0.323125,0.78516 0,0.24609 -0.09281,0.47265 -0.08938,0.22657 -0.268126,0.40235 -0.175312,0.17578 -0.436562,0.28906 -0.257812,0.10937 -0.59125,0.13281 -0.429688,0.0195 -0.429688,0.26172 0,0.0937 0.055,0.13672 0.055,0.043 0.171876,0.0664 0.120312,0.0195 0.402187,0.0469 0.319687,0.0312 0.594687,0.10938 0.275,0.0781 0.512188,0.32812 0.237188,0.25 0.237188,0.71484 0,0.3711 -0.17875,0.65625 -0.175313,0.28516 -0.570626,0.44532 -0.395312,0.16015 -1.045,0.16015 -0.935,0 -1.375,-0.28515 -0.436562,-0.28516 -0.436562,-0.76172 0,-0.12891 0.055,-0.29688 0.05844,-0.16797 0.240625,-0.32422 0.185625,-0.15625 0.53625,-0.21093 -0.12375,-0.0508 -0.213125,-0.19532 -0.08938,-0.14843 -0.08938,-0.30859 0,-0.20703 0.12375,-0.41016 0.127187,-0.20312 0.409063,-0.26171 -0.391876,-0.11719 -0.677188,-0.44141 -0.285312,-0.32422 -0.285312,-0.83984 0,-0.39063 0.130624,-0.6836 0.134063,-0.29297 0.367813,-0.47656 0.23375,-0.18359 0.543125,-0.26953 0.309375,-0.0899 0.677188,-0.0899 h 1.921562 z m -1.368125,0.67188 q 0,-0.30079 -0.182187,-0.48047 -0.17875,-0.1836 -0.402188,-0.1836 -0.285312,0 -0.450312,0.21875 -0.161563,0.21875 -0.161563,0.46094 0,0.16797 0.06875,0.3125 0.07219,0.14453 0.199375,0.23438 0.130625,0.0859 0.309375,0.0859 0.268125,0 0.443438,-0.1914 0.175312,-0.19141 0.175312,-0.45704 z m 0.2475,3.19921 q 0,-0.26171 -0.2475,-0.33984 -0.244063,-0.0742 -0.505313,-0.0742 -0.429687,0 -0.622187,0.10156 -0.189063,0.10547 -0.189063,0.33204 0,0.44531 0.790626,0.44531 0.354062,0 0.56375,-0.11719 0.209687,-0.11328 0.209687,-0.34766 z m 4.802463,-3.87109 H 32.86954 q 0.323125,0.32031 0.323125,0.78516 0,0.24609 -0.09281,0.47265 -0.08938,0.22657 -0.268125,0.40235 -0.175312,0.17578 -0.436562,0.28906 -0.257813,0.10937 -0.59125,0.13281 -0.429688,0.0195 -0.429688,0.26172 0,0.0937 0.055,0.13672 0.055,0.043 0.171875,0.0664 0.120313,0.0195 0.402188,0.0469 0.319687,0.0312 0.594687,0.10938 0.275,0.0781 0.512188,0.32812 0.237187,0.25 0.237187,0.71484 0,0.3711 -0.17875,0.65625 -0.175312,0.28516 -0.570625,0.44532 -0.395312,0.16015 -1.045,0.16015 -0.935,0 -1.375,-0.28515 -0.436562,-0.28516 -0.436562,-0.76172 0,-0.12891 0.055,-0.29688 0.05844,-0.16797 0.240625,-0.32422 0.185625,-0.15625 0.53625,-0.21093 -0.12375,-0.0508 -0.213125,-0.19532 -0.08938,-0.14843 -0.08938,-0.30859 0,-0.20703 0.12375,-0.41016 0.127187,-0.20312 0.409062,-0.26171 -0.391875,-0.11719 -0.677187,-0.44141 -0.285313,-0.32422 -0.285313,-0.83984 0,-0.39063 0.130625,-0.6836 0.134063,-0.29297 0.367813,-0.47656 0.23375,-0.18359 0.543125,-0.26953 0.309375,-0.0899 0.677187,-0.0899 h 1.921563 z m -1.368125,0.67188 q 0,-0.30079 -0.182188,-0.48047 -0.17875,-0.1836 -0.402187,-0.1836 -0.285313,0 -0.450313,0.21875 -0.161562,0.21875 -0.161562,0.46094 0,0.16797 0.06875,0.3125 0.07219,0.14453 0.199374,0.23438 0.130626,0.0859 0.309376,0.0859 0.268124,0 0.443437,-0.1914 0.175313,-0.19141 0.175313,-0.45704 z m 0.2475,3.19921 q 0,-0.26171 -0.2475,-0.33984 -0.244063,-0.0742 -0.505313,-0.0742 -0.429687,0 -0.622187,0.10156 -0.189063,0.10547 -0.189063,0.33204 0,0.44531 0.790625,0.44531 0.354063,0 0.56375,-0.11719 0.209688,-0.11328 0.209688,-0.34766 z m 4.87121,-2.39062 h -2.464688 q 0.07219,0.36328 0.354063,0.59375 0.281875,0.23047 0.639375,0.23047 0.625625,0 1.381875,-0.39844 v 0.87109 q -0.271563,0.16016 -0.66,0.29297 -0.385,0.12891 -0.983125,0.12891 -0.64625,0 -1.1,-0.27344 -0.45375,-0.27344 -0.680625,-0.74219 -0.223438,-0.46875 -0.223438,-1.0625 0,-0.58593 0.223438,-1.04687 0.226875,-0.46484 0.680625,-0.72656 0.45375,-0.26563 1.1,-0.26563 0.42625,0 0.821562,0.21094 0.39875,0.20703 0.653125,0.68359 0.257813,0.47266 0.257813,1.22266 z m -1.161875,-0.69531 q 0,-0.38282 -0.168438,-0.60938 -0.165,-0.23047 -0.477812,-0.23047 -0.309375,0 -0.501875,0.23438 -0.189063,0.23047 -0.189063,0.60547 z m 4.565275,-1.41797 -0.457187,1.41015 q -0.281876,-0.30468 -0.570626,-0.30468 -0.26125,0 -0.45375,0.20312 -0.189062,0.19922 -0.364374,0.74219 v 1.71094 h -1.2375 v -3.97657 h 1.2375 v 0.96094 q 0.116874,-0.35547 0.4125,-0.6914 0.295624,-0.33985 0.694374,-0.33985 0.209688,0 0.364376,0.0703 0.158124,0.0703 0.374687,0.21485 z" id="text28" style="font-weight:700;font-size:8px;font-family:GillSans-Bold, 'Gill Sans';letter-spacing:-0.04em;stroke-width:0.938083" aria-label="Trigger" />
    <path d="m 27.765937,325.86965 q 0,0.75781 -0.309375,1.39453 -0.305937,0.63672 -0.914375,1.01172 -0.608437,0.375 -1.481562,0.375 -0.883437,0 -1.495313,-0.39063 -0.611875,-0.39062 -0.910937,-1.02734 -0.295625,-0.63672 -0.295625,-1.36328 0,-0.73047 0.295625,-1.36328 0.295625,-0.63672 0.9075,-1.02344 0.615313,-0.39062 1.49875,-0.39062 0.66,0 1.175625,0.22265 0.519062,0.22266 0.8525,0.60547 0.333437,0.37891 0.505312,0.88672 0.171875,0.50391 0.171875,1.0625 z m -1.464375,0 q 0,-0.30469 -0.07906,-0.55469 -0.07906,-0.2539 -0.240625,-0.4375 -0.158125,-0.1875 -0.388438,-0.28906 -0.230312,-0.10547 -0.532812,-0.10547 -0.5775,0 -0.9075,0.38281 -0.33,0.38282 -0.33,1.00391 0,0.62109 0.33,1.00781 0.333437,0.38281 0.9075,0.38281 0.395312,0 0.67375,-0.17578 0.278437,-0.17968 0.422812,-0.49218 0.144375,-0.31641 0.144375,-0.72266 z m 5.562151,2.71094 h -1.240938 v -0.56641 q -0.26125,0.32031 -0.55,0.48047 -0.285313,0.15625 -0.6875,0.15625 -0.794063,0 -1.027813,-0.52344 -0.23375,-0.52734 -0.23375,-1.1875 v -2.33594 h 1.240938 v 2.14844 q 0,0.32422 0.09281,0.57031 0.09625,0.24219 0.4125,0.24219 0.271563,0 0.429688,-0.17578 0.158125,-0.17578 0.323125,-0.44922 v -2.33594 h 1.240938 z m 3.269337,-0.23047 q -0.1925,0.10547 -0.532813,0.20312 -0.336875,0.0977 -0.64625,0.0977 -1.337187,0 -1.337187,-1.48438 v -1.58593 h -0.560313 v -0.2461 l 1.660313,-1.92187 h 0.140937 v 1.1914 h 1.1825 v 0.97657 h -1.1825 v 1.27343 q 0,0.22266 0.02406,0.35938 0.02406,0.13672 0.134062,0.23047 0.113438,0.0898 0.340313,0.0898 0.295625,0 0.776875,-0.28125 z" id="text29" style="font-weight:700;font-size:8px;font-family:GillSans-Bold, 'Gill Sans';letter-spacing:-0.04em;fill:#ffffff;stroke-width:0.938083" aria-label="Out" />
    <path d="m 19.67208,347.77199 q -0.378769,0.2417 -0.775156,0.38672 -0.396387,0.14502 -0.801582,0.2041 -0.400791,0.0645 -0.832412,0.0645 -0.797178,0 -1.431397,-0.26856 -0.629814,-0.26855 -1.09667,-0.78955 -0.462451,-0.52637 -0.695879,-1.22461 -0.229023,-0.70361 -0.229023,-1.5415 0,-0.96143 0.273066,-1.68115 0.273067,-0.7251 0.761944,-1.20313 0.493281,-0.47803 1.118691,-0.70361 0.629815,-0.23096 1.325693,-0.23096 1.039415,0 2.356299,0.56396 v 1.97657 q -0.453642,-0.34375 -0.898476,-0.56934 -0.44043,-0.23096 -1.039414,-0.23096 -0.53292,0 -0.995371,0.25782 -0.462452,0.25781 -0.744327,0.73584 -0.281875,0.47802 -0.281875,1.11718 0,0.56397 0.246641,1.03663 0.246641,0.46728 0.682666,0.74658 0.44043,0.27392 0.990967,0.27392 0.444834,0 0.841221,-0.1289 0.396386,-0.13428 0.665048,-0.29541 0.273067,-0.16114 0.559346,-0.38135 z m 6.813448,-1.55224 q 0,0.96142 -0.541729,1.53613 -0.537324,0.57471 -1.50627,0.57471 h -3.527842 v -7.44434 h 2.95088 q 0.572558,0 0.99537,0.13428 0.427217,0.13428 0.687071,0.3706 0.259853,0.23096 0.387578,0.54786 0.127725,0.31689 0.127725,0.69287 0,0.4082 -0.132129,0.75732 -0.132129,0.34375 -0.330322,0.56934 -0.193789,0.22021 -0.391983,0.31152 0.62541,0.30078 0.951328,0.7627 0.330323,0.45654 0.330323,1.18701 z m -2.149297,-3.19043 q 0,-0.53711 -0.290684,-0.71436 -0.290683,-0.17724 -0.907286,-0.17724 h -0.387578 v 1.7832 h 0.396388 q 0.629814,0 0.907285,-0.17725 0.281875,-0.17724 0.281875,-0.71435 z m 0.299491,3.09912 q 0,-0.95606 -1.136308,-0.95606 h -0.748731 v 1.90674 h 0.748731 q 1.136308,0 1.136308,-0.95068 z m 7.632647,2.20215 h -4.60249 v -7.44434 h 4.527617 v 1.49316 h -2.686621 v 1.36426 h 2.563301 v 1.49854 h -2.563301 v 1.58984 h 2.761494 z m 5.870928,0 h -4.637725 v -7.44434 h 1.840996 v 5.66113 h 2.796729 z m 5.707968,0 h -4.637724 v -7.44434 h 1.840996 v 5.66113 h 2.796728 z" id="text30" style="font-weight:700;font-size:11px;font-family:GillSans-Bold, 'Gill Sans';stroke-width:0.905538" aria-label="CBELL" />
    <path d="m 22.810703,168.74382 q 0,1.04004 -0.335156,1.66993 -0.33086,0.62988 -0.782031,1.0205 -0.640235,0.57129 -1.791797,0.57129 h -3.214063 v -6.76758 h 2.475 q 0.558594,0 0.953906,0.0684 0.39961,0.0635 0.717579,0.18555 0.317968,0.11719 0.541406,0.26855 0.223437,0.14649 0.399609,0.31739 0.305078,0.2832 0.532813,0.66894 0.232031,0.38575 0.365234,0.89356 0.1375,0.50781 0.1375,1.10351 z m -1.826172,-0.0879 q 0,-0.82519 -0.279297,-1.28418 -0.275,-0.46386 -0.666015,-0.62011 -0.386719,-0.15625 -0.790625,-0.15625 H 18.48375 v 4.00878 h 0.764844 q 0.704687,0 1.220312,-0.38085 0.515625,-0.38086 0.515625,-1.56739 z m 6.815188,1.28907 h -3.08086 q 0.09024,0.4541 0.442578,0.74218 0.352344,0.28809 0.799219,0.28809 0.782031,0 1.727344,-0.49805 v 1.08887 q -0.339453,0.20019 -0.825,0.36621 -0.48125,0.16113 -1.228906,0.16113 -0.807813,0 -1.375,-0.34179 -0.567188,-0.3418 -0.850782,-0.92774 -0.279296,-0.58594 -0.279296,-1.32812 0,-0.73243 0.279296,-1.3086 0.283594,-0.58105 0.850782,-0.9082 0.567187,-0.33203 1.375,-0.33203 0.532812,0 1.026953,0.26367 0.498437,0.25879 0.816406,0.85449 0.322266,0.59082 0.322266,1.52832 z m -1.452344,-0.86915 q 0,-0.47851 -0.210547,-0.76171 -0.20625,-0.28809 -0.597265,-0.28809 -0.386719,0 -0.627344,0.29297 -0.236328,0.28808 -0.236328,0.75683 z m 5.607765,2.7002 q -0.193359,0.083 -0.408203,0.15625 -0.214844,0.0684 -0.485547,0.1123 -0.266406,0.0488 -0.584374,0.0488 -0.717579,0 -1.216016,-0.27343 -0.494141,-0.27832 -0.764844,-0.69336 -0.266406,-0.41993 -0.369531,-0.8545 -0.103125,-0.43457 -0.103125,-0.7666 0,-0.33203 0.103125,-0.7666 0.107422,-0.43457 0.369531,-0.83984 0.26211,-0.40528 0.75625,-0.67871 0.498437,-0.27344 1.22461,-0.27344 0.485547,0 0.790624,0.0781 0.305079,0.0781 0.61875,0.20996 v 1.38184 q -0.75625,-0.27344 -1.18164,-0.27344 -0.4125,0 -0.734766,0.28321 -0.317968,0.2832 -0.317968,0.8789 0,0.39551 0.158984,0.66895 0.158984,0.26855 0.403906,0.39551 0.244922,0.12695 0.489844,0.12695 0.232031,0 0.528516,-0.0781 0.296484,-0.0781 0.721874,-0.22461 z m 4.937453,-0.0195 q -0.339453,0.15137 -0.627344,0.24414 -0.28789,0.0928 -0.691797,0.0928 -0.382422,0 -0.532812,-0.15136 -0.150391,-0.15625 -0.214844,-0.37598 -0.249218,0.22949 -0.554297,0.38086 -0.305077,0.14648 -0.799219,0.14648 -0.476952,0 -0.773437,-0.18554 -0.292187,-0.19043 -0.4125,-0.47364 -0.116015,-0.28808 -0.116015,-0.59082 0,-0.45898 0.201952,-0.75683 0.20625,-0.30274 0.55,-0.49317 0.34375,-0.19043 0.910938,-0.39551 0.322265,-0.11718 0.485547,-0.17578 0.167578,-0.0635 0.249218,-0.0977 0.08164,-0.0342 0.171876,-0.0879 0,-0.36133 -0.128907,-0.56641 -0.128906,-0.20508 -0.558593,-0.20508 -0.507031,0 -0.941016,0.25391 -0.433984,0.2539 -0.794921,0.6543 v -1.34766 q 0.28789,-0.23438 0.623046,-0.38086 0.335157,-0.15137 0.700391,-0.22461 0.365234,-0.0732 0.739063,-0.0732 0.949608,0 1.426561,0.41992 0.48125,0.41504 0.48125,1.14746 v 1.91895 q 0,0.27343 0.04297,0.41015 0.04727,0.13184 0.167578,0.13184 0.146094,0 0.395313,-0.1416 z m -2.152734,-0.95215 v -1.17676 q -0.55,0.25391 -0.803516,0.45899 -0.253515,0.20019 -0.253515,0.54687 0,0.24903 0.124608,0.38086 0.128907,0.13184 0.296486,0.13184 0.158984,0 0.313671,-0.0977 0.158985,-0.10254 0.322266,-0.24414 z m 6.974171,-3.76953 -2.973437,7.23144 H 37.17653 l 1.203126,-2.91015 -1.73164,-4.32129 h 1.66289 l 0.889453,2.4707 1.009766,-2.4707 z" id="text31" style="font-weight:700;font-size:10px;font-family:GillSans-Bold, 'Gill Sans';letter-spacing:-0.04em;stroke-width:0.938083" aria-label="Decay" />
    <g id="g33" transform="translate(0,8.7233135)">
      <path d="m 20.6,18.07 c -0.37,0 -0.71,-0.17 -0.97,-0.47 -0.51,-0.6 -0.52,-1.54 -0.04,-2.16 l 6.97,-8.88 c 0.38,-0.48 1.05,-0.65 1.57,-0.39 0.5,0.25 0.79,0.82 0.79,1.45 v 4.77 l 4.64,-5.85 c 0.38,-0.48 1.01,-0.64 1.53,-0.38 0.5,0.25 0.83,0.81 0.83,1.44 v 8.82 c 0,0.86 -0.61,1.57 -1.36,1.57 -0.75,0 -1.36,-0.7 -1.36,-1.57 v -4.79 l -4.64,5.85 c -0.38,0.48 -1.01,0.64 -1.54,0.38 -0.5,-0.24 -0.83,-0.81 -0.83,-1.44 v -4.67 l -4.61,5.8 c -0.26,0.32 -0.62,0.51 -1,0.51 v 0 z" style="fill:#2cabe1" id="path31" />
      <path d="m 20.6,18.07 c -0.75,0 -1.35,-0.7 -1.35,-1.57 v -4.93 l -2.26,2.84 c -0.5,0.63 -1.44,0.65 -1.97,0.04 -0.51,-0.6 -0.52,-1.53 -0.03,-2.15 L 19.6,6.54 c 0.26,-0.32 0.63,-0.5 1,-0.5 0.18,0 0.37,0.04 0.54,0.12 0.5,0.25 0.82,0.81 0.82,1.44 v 8.89 c 0,0.86 -0.61,1.57 -1.36,1.57 v 0 z" style="fill:#ea2228" id="path32" />
      <path d="m 37.2,18.09 v 0 c -0.35,0 -0.68,-0.15 -0.94,-0.42 -0.76,-0.78 -0.14,-1.84 0.29,-2.3 l 1.95,-2.36 -1.26,-0.02 c -0.56,-0.01 -1.04,-0.4 -1.24,-1 -0.19,-0.56 -0.07,-1.21 0.29,-1.64 L 39.45,6.52 C 39.68,6.24 40,6.04 40.58,6.05 c 0.33,0 0.67,0.17 0.92,0.4 0.71,0.66 0.29,1.7 -0.07,2.2 l -1.04,1.26 1.26,0.02 c 0.56,0.01 1.04,0.4 1.24,1 0.19,0.56 0.07,1.21 -0.29,1.64 l -4.1,4.97 c -0.35,0.35 -0.65,0.55 -1.3,0.54 v 0 z" style="fill:#00a650" id="path33" />
    </g>
    <line x1="28.799999" y1="79.005547" x2="28.799999" y2="98.005547" style="fill:#ffffff;stroke:#231f20;stroke-miterlimit:10" id="line33" />
    <line x1="28.799999" y1="175.36554" x2="28.799999" y2="194.36554" style="fill:#ffffff;stroke:#231f20;stroke-miterlimit:10" id="line34" />
    <path style="fill:none;stroke:#000000;stroke-width:1.94081;stroke-dasharray:none;stroke-opacity:1" d="m 38.573544,292.11061 v 60.86666" id="path24-0" transform="scale(0.749996)" />
  </g>
  <g /></svg>