<svg xmlns="http://www.w3.org/2000/svg" xmlns:inkscape="http://www.inkscape.org/namespaces/inkscape" xmlns:sodipodi="http://sodipodi.sourceforge.net/DTD/sodipodi-0.dtd" width="20.320108mm" height="128.5mm" viewBox="0 0 76.800412 485.66929" version="1.1" id="svg44" sodipodi:docname="Duck_info_fix.svg" inkscape:version="1.4.2 (ebf0e940, 2025-05-08)">
  <sodipodi:namedview id="namedview44" pagecolor="#ffffff" bordercolor="#000000" borderopacity="0.25" inkscape:showpageshadow="2" inkscape:pageopacity="0.0" inkscape:pagecheckerboard="0" inkscape:deskcolor="#d1d1d1" inkscape:zoom="1.4444389" inkscape:cx="-197.65461" inkscape:cy="105.92349" inkscape:window-width="1920" inkscape:window-height="1027" inkscape:window-x="0" inkscape:window-y="25" inkscape:window-maximized="1" inkscape:current-layer="components" inkscape:document-units="mm" />
  <defs id="defs4">
    <clipPath id="clippath">
      <rect x="14.9" y="32.98" width="27.799999" height="25.620001" style="fill:none" id="rect1" />
    </clipPath>
    <clipPath id="clippath-1">
      <rect x="14.9" y="32.98" width="27.799999" height="25.620001" style="fill:none" id="rect2" />
    </clipPath>
    <clipPath id="clippath-2">
      <rect x="14.9" y="115.12" width="27.799999" height="25.620001" style="fill:none" id="rect3" />
    </clipPath>
    <clipPath id="clippath-3">
      <rect x="14.9" y="115.12" width="27.799999" height="25.620001" style="fill:none" id="rect4" />
    </clipPath>
  </defs>
  <g id="faceplate" transform="scale(1.3333405)">
    <g id="g5" style="display:inline" sodipodi:insensitive="true">
      <rect x="0.13" y="0.13" width="57.349998" height="364" style="fill:#ededed" id="rect5" />
      <path d="M 57.35,0.25 V 364 H 0.25 V 0.25 h 57.1 M 57.6,0 H 0 v 364.25 h 57.6 z" style="fill:#9d9d9e" id="path5" />
    </g>
    <path d="m 21.272471,344.90225 q 0,1.14405 -0.343535,1.83692 -0.339131,0.69287 -0.801583,1.12256 -0.65624,0.62841 -1.836591,0.62841 h -3.294414 v -7.44433 h 2.536875 q 0.572558,0 0.977754,0.0752 0.409599,0.0698 0.735517,0.2041 0.325918,0.12891 0.554942,0.29541 0.229023,0.16114 0.409599,0.34913 0.312705,0.31152 0.546133,0.73584 0.237832,0.42431 0.374365,0.98291 0.140938,0.55859 0.140938,1.21386 z m -1.871826,-0.0967 q 0,-0.90771 -0.28628,-1.41259 -0.281875,-0.51026 -0.682666,-0.68213 -0.396387,-0.17188 -0.81039,-0.17188 h -0.783965 v 4.40967 h 0.783965 q 0.722304,0 1.25082,-0.41895 0.528516,-0.41894 0.528516,-1.72412 z m 9.367939,0.34912 q 0,0.95606 -0.295088,1.63282 -0.290684,0.67138 -0.775156,1.06347 -0.480069,0.39209 -1.039414,0.56397 -0.554941,0.17187 -1.109883,0.17187 -0.775157,0 -1.510674,-0.32226 -0.731113,-0.32227 -1.224394,-1.09571 -0.493282,-0.77343 -0.493282,-2.01416 v -4.10888 h 1.836592 v 3.52881 q 0,0.73584 0.171768,1.21923 0.176172,0.47803 0.484472,0.70362 0.312706,0.22021 0.735518,0.22021 0.405196,0 0.7179,-0.22021 0.312706,-0.22022 0.484473,-0.69824 0.176172,-0.47803 0.176172,-1.21387 v -3.53955 h 1.840996 z m 6.910342,2.77686 q -0.37877,0.2417 -0.775157,0.38672 -0.396386,0.14502 -0.801582,0.2041 -0.400791,0.0644 -0.832412,0.0644 -0.797178,0 -1.431396,-0.26855 -0.629815,-0.26856 -1.09667,-0.78955 -0.462451,-0.52637 -0.695879,-1.22461 -0.229023,-0.70361 -0.229023,-1.54151 0,-0.96142 0.273066,-1.68115 0.273066,-0.7251 0.761944,-1.20312 0.49328,-0.47803 1.118691,-0.70362 0.629814,-0.23095 1.325693,-0.23095 1.039414,0 2.356299,0.56396 v 1.97656 q -0.453643,-0.34375 -0.898476,-0.56933 -0.440431,-0.23096 -1.039414,-0.23096 -0.532921,0 -0.995371,0.25781 -0.462452,0.25782 -0.744327,0.73584 -0.281875,0.47803 -0.281875,1.11719 0,0.56397 0.246641,1.03662 0.24664,0.46729 0.682665,0.74658 0.440431,0.27393 0.990968,0.27393 0.444833,0 0.84122,-0.12891 0.396387,-0.13427 0.665049,-0.29541 0.273066,-0.16113 0.559346,-0.38134 z m 7.659072,0.55859 h -2.246191 l -2.334278,-3.48584 v 3.48584 h -1.840996 v -7.44433 h 1.840996 v 3.33008 l 2.210957,-3.33008 h 1.999551 l -2.272617,3.48584 z" id="text5" style="font-weight:700;font-size:11px;font-family:GillSans-Bold, 'Gill Sans';stroke-width:0.905538" aria-label="DUCK" />
    <g id="pips_-_fewest" data-name="pips - fewest">
      <g clip-path="url(#clippath)" id="g16">
        <g clip-path="url(#clippath-1)" id="g15">
          <path d="m 34.49,35.76 0.71,-1.23 c -1.74,-0.9 -3.7,-1.45 -5.77,-1.55 v 1.43 c 1.81,0.09 3.53,0.56 5.06,1.35" id="path6" />
          <path d="m 39.29,40.1 1.23,-0.71 C 39.43,37.7 37.99,36.25 36.3,35.17 l -0.71,1.23 c 1.48,0.96 2.74,2.22 3.7,3.7" id="path7" />
          <path d="M 22.01,36.4 21.3,35.17 c -1.69,1.09 -3.14,2.53 -4.22,4.22 l 1.23,0.71 c 0.96,-1.48 2.22,-2.74 3.7,-3.7" id="path8" />
          <path d="m 41.27,46.25 h 1.43 c -0.09,-2.07 -0.64,-4.03 -1.55,-5.77 l -1.23,0.71 c 0.79,1.53 1.26,3.24 1.35,5.06" id="path9" />
          <path d="m 28.17,34.41 v -1.43 c -2.07,0.09 -4.03,0.64 -5.77,1.55 l 0.71,1.23 c 1.53,-0.79 3.24,-1.26 5.06,-1.35" id="path10" />
          <path d="m 18.31,53.67 -1.23,0.71 c 1.09,1.69 2.53,3.14 4.22,4.22 l 0.71,-1.23 c -1.48,-0.96 -2.74,-2.22 -3.7,-3.7" id="path11" />
          <path d="m 35.59,57.38 0.71,1.23 c 1.69,-1.09 3.14,-2.53 4.22,-4.22 l -1.23,-0.71 c -0.96,1.48 -2.22,2.74 -3.7,3.7" id="path12" />
          <path d="m 41.27,47.52 c -0.09,1.81 -0.56,3.53 -1.35,5.06 l 1.23,0.71 c 0.9,-1.74 1.45,-3.7 1.55,-5.77 z" id="path13" />
          <path d="M 16.33,47.52 H 14.9 c 0.09,2.07 0.64,4.03 1.55,5.77 l 1.23,-0.71 c -0.79,-1.53 -1.26,-3.24 -1.35,-5.06" id="path14" />
          <path d="m 17.68,41.2 -1.23,-0.71 c -0.9,1.74 -1.45,3.7 -1.55,5.77 h 1.43 c 0.09,-1.81 0.56,-3.53 1.35,-5.06" id="path15" />
        </g>
      </g>
    </g>
    <g id="pips_-_fewest-2" data-name="pips - fewest" transform="translate(0,-14.99992)">
      <g clip-path="url(#clippath-2)" id="g26" style="display:inline" inkscape:label="g26">
        <g clip-path="url(#clippath-3)" id="g25">
          <path d="m 34.49,117.9 0.71,-1.23 c -1.74,-0.9 -3.7,-1.45 -5.77,-1.55 v 1.43 c 1.81,0.09 3.53,0.56 5.06,1.35" id="path16" />
          <path d="m 39.29,122.23 1.23,-0.71 c -1.09,-1.69 -2.53,-3.14 -4.22,-4.22 l -0.71,1.23 c 1.48,0.96 2.74,2.22 3.7,3.7" id="path17" />
          <path d="M 22.01,118.53 21.3,117.3 c -1.69,1.09 -3.14,2.53 -4.22,4.22 l 1.23,0.71 c 0.96,-1.48 2.22,-2.74 3.7,-3.7" id="path18" />
          <path d="m 41.27,128.39 h 1.43 c -0.09,-2.07 -0.64,-4.03 -1.55,-5.77 l -1.23,0.71 c 0.79,1.53 1.26,3.24 1.35,5.06" id="path19" />
          <path d="m 28.17,116.55 v -1.43 c -2.07,0.09 -4.03,0.64 -5.77,1.55 l 0.71,1.23 c 1.53,-0.79 3.24,-1.26 5.06,-1.35" id="path20" />
          <path d="m 18.31,135.81 -1.23,0.71 c 1.09,1.69 2.53,3.14 4.22,4.22 l 0.71,-1.23 c -1.48,-0.96 -2.74,-2.22 -3.7,-3.7" id="path21" />
          <path d="m 35.59,139.51 0.71,1.23 c 1.69,-1.09 3.14,-2.53 4.22,-4.22 l -1.23,-0.71 c -0.96,1.48 -2.22,2.74 -3.7,3.7" id="path22" />
          <path d="m 41.27,129.65 c -0.09,1.81 -0.56,3.53 -1.35,5.06 l 1.23,0.71 c 0.9,-1.74 1.45,-3.7 1.55,-5.77 z" id="path23" />
          <path d="M 16.33,129.65 H 14.9 c 0.09,2.07 0.64,4.03 1.55,5.77 l 1.23,-0.71 c -0.79,-1.53 -1.26,-3.24 -1.35,-5.06" id="path24" />
          <path d="m 17.68,123.33 -1.23,-0.71 c -0.9,1.74 -1.45,3.7 -1.55,5.77 h 1.43 c 0.09,-1.81 0.56,-3.53 1.35,-5.06" id="path25" />
        </g>
      </g>
    </g>
    <path d="M 8.28125,0 H 6.1914062 L 5.6396484,-1.3720703 H 2.7001953 L 2.1386719,0 H 0.04882812 L 3.0419922,-6.7675781 H 5.2978516 Z M 5.1708984,-2.5488281 4.1796875,-5.0195312 3.1787109,-2.5488281 Z M 17.349023,0 h -1.757812 v -2.6513672 q 0,-0.5273437 -0.175781,-0.7861328 -0.170899,-0.2636719 -0.546875,-0.2636719 -0.366211,0 -0.600586,0.2246094 -0.234375,0.2197266 -0.46875,0.5566406 V 0 h -1.757813 v -2.6513672 q 0,-0.5029297 -0.161133,-0.7763672 -0.161132,-0.2734375 -0.571289,-0.2734375 -0.195312,0 -0.361328,0.078125 -0.161133,0.078125 -0.263672,0.1757813 -0.102539,0.097656 -0.249023,0.2880859 -0.146485,0.1904297 -0.185547,0.2392578 V 0 H 8.4916015 v -4.9707031 h 1.7578125 v 0.7128906 q 0.395508,-0.4199219 0.805664,-0.6103516 0.410156,-0.1904296 0.947266,-0.1904296 0.253906,0 0.483398,0.048828 0.229492,0.043945 0.449219,0.15625 0.224609,0.1123047 0.405273,0.3076172 0.180664,0.1953125 0.288086,0.4541015 0.424805,-0.4785156 0.878906,-0.7226562 0.458985,-0.2441406 1.054688,-0.2441406 0.595703,0 0.996094,0.2392578 0.405273,0.2392578 0.595703,0.6933593 0.195312,0.4492188 0.195312,1.09375 z m 6.133204,-2.4902344 q 0,0.7421875 -0.322265,1.3232422 -0.322266,0.5810547 -0.966797,0.91796876 -0.639649,0.33691406 -1.5625,0.33691406 -0.922852,0 -1.567383,-0.33691406 -0.639648,-0.33691406 -0.961914,-0.91796876 -0.317383,-0.5810547 -0.317383,-1.3232422 0,-0.5615234 0.175781,-1.0205078 0.180664,-0.4589844 0.541993,-0.8105469 0.366211,-0.3564453 0.898437,-0.546875 0.532227,-0.1904296 1.230469,-0.1904296 0.703125,0 1.240234,0.1953125 0.541992,0.1904296 0.893555,0.5371093 0.356445,0.3466797 0.537109,0.8105469 0.180664,0.4638672 0.180664,1.0253906 z m -1.850586,0 q 0,-0.5908203 -0.258789,-0.9228515 Q 21.118946,-3.75 20.630665,-3.75 q -0.483399,0 -0.742188,0.3369141 -0.253906,0.3320312 -0.253906,0.9228515 0,0.5859375 0.258789,0.9277344 0.258789,0.3417969 0.737305,0.3417969 0.488281,0 0.742187,-0.3369141 0.258789,-0.3417969 0.258789,-0.9326172 z M 29.23457,0 h -1.762696 v -0.70800781 q -0.371094,0.40039062 -0.78125,0.60058594 -0.405273,0.19531249 -0.976562,0.19531249 -1.12793,0 -1.459961,-0.65429687 Q 23.92207,-1.2255859 23.92207,-2.0507813 v -2.9199218 h 1.762695 v 2.6855468 q 0,0.4052735 0.131836,0.7128907 0.136719,0.3027344 0.585937,0.3027344 0.385742,0 0.610352,-0.2197266 0.224609,-0.2197266 0.458984,-0.5615235 v -2.9199218 h 1.762696 z m 6.030664,0 h -1.757813 v -2.6806641 q 0,-0.4101562 -0.136718,-0.7128906 -0.131836,-0.3076172 -0.585938,-0.3076172 -0.214844,0 -0.380859,0.083008 -0.161133,0.078125 -0.292969,0.2050782 -0.126953,0.1269531 -0.214844,0.2441406 -0.08789,0.1171875 -0.180664,0.2490234 V 0 h -1.757812 v -4.9707031 h 1.757812 v 0.7128906 q 0.415039,-0.4443359 0.830078,-0.6201172 0.419922,-0.180664 0.932618,-0.180664 1.787109,0 1.787109,2.1386718 z m 4.575586,-0.28808594 q -0.273437,0.13183594 -0.756836,0.25390625 -0.478515,0.12207031 -0.917968,0.12207031 -1.899414,0 -1.899414,-1.85546872 V -3.75 h -0.795899 v -0.3076172 l 2.358399,-2.4023437 h 0.200195 v 1.4892578 h 1.679687 V -3.75 h -1.679687 v 1.5917969 q 0,0.2783203 0.03418,0.4492187 0.03418,0.1708985 0.190429,0.288086 0.161133,0.1123047 0.483399,0.1123047 0.419922,0 1.103515,-0.3515625 z" id="text26" style="font-weight:700;font-size:10px;font-family:GillSans-Bold, 'Gill Sans';letter-spacing:-0.04em" transform="matrix(0.88,0,0,1,11.18,69.94)" aria-label="Amount" />
    <path d="m 24.078203,131.91803 h -2.182812 v 5.12207 h -1.791797 v -5.12207 h -2.182813 v -1.64551 h 6.157422 z m 1.822219,-0.9961 q 0,0.30762 -0.19336,0.52246 -0.193359,0.21485 -0.459765,0.21485 -0.180469,0 -0.33086,-0.0977 -0.146093,-0.0976 -0.232031,-0.26367 -0.08594,-0.1709 -0.08594,-0.37598 0,-0.30273 0.189062,-0.52246 0.189063,-0.21972 0.459766,-0.21972 0.266406,0 0.459766,0.21972 0.193359,0.21973 0.193359,0.52246 z m 0.124609,6.11817 h -1.551172 v -4.97071 h 1.551172 z m 8.508156,0 h -1.546874 v -2.65137 q 0,-0.52734 -0.154688,-0.78613 -0.150391,-0.26367 -0.48125,-0.26367 -0.322266,0 -0.528516,0.22461 -0.20625,0.21972 -0.4125,0.55664 v 2.91992 h -1.546875 v -2.65137 q 0,-0.50293 -0.141797,-0.77637 -0.141797,-0.27343 -0.502734,-0.27343 -0.171875,0 -0.317969,0.0781 -0.141797,0.0781 -0.232031,0.17578 -0.09023,0.0977 -0.21914,0.28809 -0.128907,0.19043 -0.163282,0.23926 v 2.91992 h -1.546875 v -4.97071 h 1.546875 v 0.7129 q 0.348047,-0.41993 0.708985,-0.61036 0.360937,-0.19043 0.833593,-0.19043 0.223438,0 0.425391,0.0488 0.201953,0.0439 0.395313,0.15625 0.197656,0.11231 0.35664,0.30762 0.158984,0.19531 0.253516,0.4541 0.373828,-0.47851 0.773437,-0.72266 0.403907,-0.24414 0.928125,-0.24414 0.524219,0 0.876562,0.23926 0.356641,0.23926 0.52422,0.69336 0.171874,0.44922 0.171874,1.09375 z m 5.053469,-2.06055 h -3.08086 q 0.09023,0.4541 0.442579,0.74219 0.352343,0.28808 0.799218,0.28808 0.782032,0 1.727343,-0.49804 v 1.08886 q -0.339453,0.2002 -0.825,0.36622 -0.48125,0.16113 -1.228906,0.16113 -0.807812,0 -1.375,-0.3418 -0.567187,-0.3418 -0.850781,-0.92773 -0.279297,-0.58594 -0.279297,-1.32813 0,-0.73242 0.279297,-1.30859 0.283594,-0.58106 0.850781,-0.9082 0.567188,-0.33204 1.375,-0.33204 0.532813,0 1.026953,0.26368 0.498439,0.25879 0.816407,0.85449 0.322266,0.59082 0.322266,1.52832 z m -1.452344,-0.86914 q 0,-0.47852 -0.210547,-0.76172 -0.20625,-0.28808 -0.597266,-0.28808 -0.386719,0 -0.627343,0.29296 -0.236328,0.28809 -0.236328,0.75684 z" id="text27" style="font-weight:700;font-size:10px;font-family:GillSans-Bold, 'Gill Sans';letter-spacing:-0.04em;stroke-width:0.938083" aria-label="Time" />
    <g id="g29" transform="translate(0,8.8577722)">
      <path d="m 20.6,18.07 c -0.37,0 -0.71,-0.17 -0.97,-0.47 -0.51,-0.6 -0.52,-1.54 -0.04,-2.16 l 6.97,-8.88 c 0.38,-0.48 1.05,-0.65 1.57,-0.39 0.5,0.25 0.79,0.82 0.79,1.45 v 4.77 l 4.64,-5.85 c 0.38,-0.48 1.01,-0.64 1.53,-0.38 0.5,0.25 0.83,0.81 0.83,1.44 v 8.82 c 0,0.86 -0.61,1.57 -1.36,1.57 -0.75,0 -1.36,-0.7 -1.36,-1.57 v -4.79 l -4.64,5.85 c -0.38,0.48 -1.01,0.64 -1.54,0.38 -0.5,-0.24 -0.83,-0.81 -0.83,-1.44 v -4.67 l -4.61,5.8 c -0.26,0.32 -0.62,0.51 -1,0.51 v 0 z" style="fill:#2cabe1" id="path27" />
      <path d="m 20.6,18.07 c -0.75,0 -1.35,-0.7 -1.35,-1.57 v -4.93 l -2.26,2.84 c -0.5,0.63 -1.44,0.65 -1.97,0.04 -0.51,-0.6 -0.52,-1.53 -0.03,-2.15 L 19.6,6.54 c 0.26,-0.32 0.63,-0.5 1,-0.5 0.18,0 0.37,0.04 0.54,0.12 0.5,0.25 0.82,0.81 0.82,1.44 v 8.89 c 0,0.86 -0.61,1.57 -1.36,1.57 v 0 z" style="fill:#ea2228" id="path28" />
      <path d="m 37.2,18.09 v 0 c -0.35,0 -0.68,-0.15 -0.94,-0.42 -0.76,-0.78 -0.14,-1.84 0.29,-2.3 l 1.95,-2.36 -1.26,-0.02 c -0.56,-0.01 -1.04,-0.4 -1.24,-1 -0.19,-0.56 -0.07,-1.21 0.29,-1.64 L 39.45,6.52 C 39.68,6.24 40,6.04 40.58,6.05 c 0.33,0 0.67,0.17 0.92,0.4 0.71,0.66 0.29,1.7 -0.07,2.2 l -1.04,1.26 1.26,0.02 c 0.56,0.01 1.04,0.4 1.24,1 0.19,0.56 0.07,1.21 -0.29,1.64 l -4.1,4.97 c -0.35,0.35 -0.65,0.55 -1.3,0.54 v 0 z" style="fill:#00a650" id="path29" />
    </g>
    <line x1="28.799999" y1="73.190002" x2="28.799999" y2="92.190002" style="fill:#ffffff;stroke:#231f20;stroke-miterlimit:10;stroke-width:0.99212069;stroke-dasharray:none" id="line29" />
    <line x1="28.799999" y1="140.30016" x2="28.799999" y2="159.30016" style="display:none;fill:#ffffff;stroke:#231f20;stroke-width:0.992121;stroke-miterlimit:10;stroke-dasharray:none" id="line30" />
    <path d="M 2.3203125,0 H 0.6875 v -5.4140625 h 1.6328125 z m 5.0628126,0 h -1.40625 v -2.1445313 q 0,-0.328125 -0.109375,-0.5703125 -0.1054688,-0.2460937 -0.46875,-0.2460937 -0.171875,0 -0.3046875,0.066406 -0.1289063,0.0625 -0.234375,0.1640625 -0.1015625,0.1015625 -0.171875,0.1953125 -0.070312,0.09375 -0.1445313,0.1992188 V 0 h -1.40625 v -3.9765625 h 1.40625 V -3.40625 q 0.3320313,-0.3554688 0.6640625,-0.4960938 0.3359375,-0.1445312 0.7460938,-0.1445312 1.4296875,0 1.4296875,1.7109375 z m 4.8909379,-2.015625 q 0,0.3984375 -0.113282,0.7695313 -0.113281,0.3710937 -0.347656,0.67187495 -0.230469,0.296875 -0.597656,0.47265625 -0.363281,0.171875 -0.847656,0.171875 -0.3906254,0 -0.6171879,-0.08203125 Q 9.5279689,-0.09375 9.3053126,-0.23046875 V 1.8085937 h -1.40625 v -5.7851562 h 1.40625 v 0.359375 q 0.2109375,-0.1835938 0.4648438,-0.3046875 0.2578126,-0.125 0.6953126,-0.125 0.433594,0 0.851562,0.2148437 0.417969,0.2148438 0.6875,0.671875 0.269532,0.453125 0.269532,1.1445313 z m -1.480469,0.03125 q 0,-0.359375 -0.113281,-0.5820313 -0.113282,-0.2265625 -0.292969,-0.3242187 -0.179688,-0.1015625 -0.371094,-0.1015625 -0.2499999,0 -0.4101561,0.082031 -0.1601563,0.078125 -0.3007813,0.1992188 v 1.5195313 q 0.074219,0.039063 0.15625,0.089844 0.085937,0.046875 0.1679688,0.082031 0.085937,0.0351562 0.1796875,0.0585937 0.097656,0.0234375 0.2070311,0.0234375 0.332031,0 0.554688,-0.28125 Q 10.793594,-1.5 10.793594,-1.984375 Z M 16.875937,0 h -1.410156 v -0.56640625 q -0.296875,0.3203125 -0.625,0.48046875 -0.324219,0.15625 -0.78125,0.15625 -0.902344,0 -1.167969,-0.5234375 -0.265625,-0.52734375 -0.265625,-1.1875 v -2.3359375 h 1.410157 v 2.1484375 q 0,0.3242188 0.105468,0.5703125 0.109375,0.2421875 0.46875,0.2421875 0.308594,0 0.488282,-0.1757812 0.179687,-0.1757813 0.367187,-0.4492188 v -2.3359375 h 1.410156 z m 3.715156,-0.23046875 q -0.21875,0.10546875 -0.605469,0.203125 -0.382812,0.09765625 -0.734375,0.09765625 -1.519531,0 -1.519531,-1.484375 V -3 h -0.636719 v -0.2460938 l 1.886719,-1.9218749 h 0.160156 v 1.1914062 h 1.34375 V -3 h -1.34375 v 1.2734375 q 0,0.2226563 0.02734,0.359375 0.02734,0.1367188 0.152344,0.2304688 0.128906,0.089844 0.386719,0.089844 0.335937,0 0.882812,-0.28125 z" id="text30" style="font-weight:700;font-size:8px;font-family:GillSans-Bold, 'Gill Sans';letter-spacing:-0.04em" transform="matrix(0.88,0,0,1,19.54,289.12)" aria-label="Input" />
    <path d="M 5.8710937,-4.0976562 H 3.8867188 V 0 H 2.2578125 v -4.0976562 h -1.984375 v -1.3164063 h 5.5976562 z m 3.6682811,0.3359374 -0.5195312,1.4101563 Q 8.6995311,-2.65625 8.3714061,-2.65625 q -0.296875,0 -0.515625,0.203125 -0.2148438,0.1992187 -0.4140625,0.7421875 V 0 h -1.40625 v -3.9765625 h 1.40625 v 0.9609375 q 0.1328125,-0.3554688 0.46875,-0.6914063 0.3359375,-0.3398437 0.7890625,-0.3398437 0.2382812,0 0.4140625,0.070312 0.1796875,0.070312 0.4257812,0.2148442 z m 1.1526562,-1.1328124 q 0,0.2460937 -0.175781,0.4179687 -0.175782,0.171875 -0.417969,0.171875 -0.1640626,0 -0.3007813,-0.078125 -0.1328125,-0.078125 -0.2109375,-0.2109375 -0.078125,-0.1367187 -0.078125,-0.3007812 0,-0.2421875 0.171875,-0.4179688 0.171875,-0.1757812 0.4179688,-0.1757812 0.242187,0 0.417969,0.1757812 0.175781,0.1757813 0.175781,0.4179688 z M 10.805312,0 H 9.3951559 v -3.9765625 h 1.4101561 z m 4.64875,-3.1289063 H 14.75875 q 0.367187,0.3203125 0.367187,0.7851563 0,0.2460937 -0.105468,0.4726563 -0.101563,0.2265625 -0.304688,0.4023437 -0.199219,0.1757813 -0.496094,0.2890625 -0.292968,0.109375 -0.671875,0.1328125 -0.488281,0.019531 -0.488281,0.26171875 0,0.09375 0.0625,0.13671875 0.0625,0.0429687 0.195313,0.0664063 0.136718,0.0195313 0.457031,0.046875 0.363281,0.03125 0.675781,0.109375 0.3125,0.078125 0.582031,0.328125 0.269532,0.25 0.269532,0.71484375 0,0.37109375 -0.203125,0.65625005 -0.199219,0.2851562 -0.648438,0.4453125 -0.449219,0.1601562 -1.1875,0.1601562 -1.0625,0 -1.5625,-0.2851562 -0.496094,-0.2851563 -0.496094,-0.7617188 0,-0.12890625 0.0625,-0.296875 Q 11.332969,0.3671875 11.54,0.2109375 11.750937,0.0546875 12.149375,0 12.00875,-0.05078125 11.907187,-0.1953125 11.805625,-0.34375 11.805625,-0.50390625 q 0,-0.20703125 0.140625,-0.41015625 0.144531,-0.203125 0.464844,-0.2617187 -0.445313,-0.1171875 -0.769532,-0.4414063 -0.324218,-0.3242187 -0.324218,-0.8398438 0,-0.390625 0.148437,-0.6835937 0.152344,-0.2929688 0.417969,-0.4765625 0.265625,-0.1835938 0.617187,-0.2695313 0.351563,-0.089844 0.769532,-0.089844 h 2.183593 z m -1.554687,0.671875 q 0,-0.3007812 -0.207031,-0.4804687 -0.203125,-0.1835938 -0.457032,-0.1835938 -0.324218,0 -0.511718,0.21875 -0.183594,0.21875 -0.183594,0.4609375 0,0.1679688 0.07813,0.3125 0.08203,0.1445313 0.226562,0.2343751 0.148438,0.085937 0.351563,0.085937 0.304687,0 0.503906,-0.1914063 0.199219,-0.1914063 0.199219,-0.4570313 z m 0.28125,3.1992188 q 0,-0.26171875 -0.28125,-0.33984375 -0.277344,-0.0742188 -0.574219,-0.0742188 -0.488281,0 -0.707031,0.1015625 -0.214844,0.10546875 -0.214844,0.33203125 0,0.4453124 0.898438,0.4453124 0.402343,0 0.640625,-0.1171875 0.238281,-0.11328115 0.238281,-0.3476561 z m 5.457344,-3.8710938 h -0.695312 q 0.367187,0.3203125 0.367187,0.7851563 0,0.2460937 -0.105469,0.4726563 -0.101562,0.2265625 -0.304687,0.4023437 -0.199219,0.1757813 -0.496094,0.2890625 -0.292969,0.109375 -0.671875,0.1328125 -0.488281,0.019531 -0.488281,0.26171875 0,0.09375 0.0625,0.13671875 0.0625,0.0429687 0.195312,0.0664063 0.136719,0.0195313 0.457032,0.046875 0.363281,0.03125 0.675781,0.109375 0.3125,0.078125 0.582031,0.328125 0.269531,0.25 0.269531,0.71484375 0,0.37109375 -0.203125,0.65625005 -0.199218,0.2851562 -0.648437,0.4453125 -0.449219,0.1601562 -1.1875,0.1601562 -1.0625,0 -1.5625,-0.2851562 -0.496094,-0.2851563 -0.496094,-0.7617188 0,-0.12890625 0.0625,-0.296875 0.06641,-0.1679688 0.273438,-0.3242188 Q 15.934844,0.0546875 16.333282,0 16.192657,-0.05078125 16.091094,-0.1953125 15.989532,-0.34375 15.989532,-0.50390625 q 0,-0.20703125 0.140625,-0.41015625 0.144531,-0.203125 0.464843,-0.2617187 -0.445312,-0.1171875 -0.769531,-0.4414063 -0.324219,-0.3242187 -0.324219,-0.8398438 0,-0.390625 0.148438,-0.6835937 0.152344,-0.2929688 0.417969,-0.4765625 0.265625,-0.1835938 0.617187,-0.2695313 0.351563,-0.089844 0.769531,-0.089844 h 2.183594 z m -1.554687,0.671875 q 0,-0.3007812 -0.207032,-0.4804687 -0.203125,-0.1835938 -0.457031,-0.1835938 -0.324219,0 -0.511719,0.21875 -0.183593,0.21875 -0.183593,0.4609375 0,0.1679688 0.07813,0.3125 0.08203,0.1445313 0.226562,0.2343751 0.148438,0.085937 0.351563,0.085937 0.304687,0 0.503906,-0.1914063 0.199219,-0.1914063 0.199219,-0.4570313 z m 0.28125,3.1992188 q 0,-0.26171875 -0.28125,-0.33984375 -0.277344,-0.0742188 -0.574219,-0.0742188 -0.488281,0 -0.707031,0.1015625 -0.214844,0.10546875 -0.214844,0.33203125 0,0.4453124 0.898437,0.4453124 0.402344,0 0.640625,-0.1171875 0.238282,-0.11328115 0.238282,-0.3476561 z M 23.9,-1.6484375 h -2.800782 q 0.08203,0.3632813 0.402344,0.59375 0.320313,0.23046875 0.726563,0.23046875 0.710937,0 1.570312,-0.39843745 v 0.8710937 q -0.308594,0.16015625 -0.75,0.29296875 -0.4375,0.12890625 -1.117187,0.12890625 -0.734375,0 -1.25,-0.2734375 -0.515625,-0.2734375 -0.773438,-0.7421875 -0.253906,-0.46875 -0.253906,-1.0625 0,-0.5859375 0.253906,-1.046875 0.257813,-0.4648438 0.773438,-0.7265625 0.515625,-0.265625 1.25,-0.265625 0.484375,0 0.933593,0.2109375 0.453125,0.2070312 0.742188,0.6835937 Q 23.9,-2.6796875 23.9,-1.9296875 Z M 22.579687,-2.34375 q 0,-0.3828125 -0.191406,-0.609375 -0.1875,-0.2304688 -0.542969,-0.2304688 -0.351562,0 -0.570312,0.234375 Q 21.060156,-2.71875 21.060156,-2.34375 Z M 27.7675,-3.7617188 27.247969,-2.3515625 Q 26.927656,-2.65625 26.599531,-2.65625 q -0.296875,0 -0.515625,0.203125 -0.214844,0.1992187 -0.414062,0.7421875 V 0 h -1.40625 v -3.9765625 h 1.40625 v 0.9609375 q 0.132812,-0.3554688 0.46875,-0.6914063 0.335937,-0.3398437 0.789062,-0.3398437 0.238281,0 0.414063,0.070312 0.179687,0.070312 0.425781,0.2148442 z" id="text32" style="font-weight:700;font-size:8px;font-family:GillSans-Bold, 'Gill Sans';letter-spacing:-0.04em" transform="matrix(0.88,0,0,1,16.2,240.93)" aria-label="Trigger" />
    <g id="g33" transform="translate(0,-8.5722072)" style="display:inline">
      <path d="M 13.08,324.44 V 214.26 c 0,-8.03 6.98,-14.54 15.59,-14.54 8.61,0 15.59,6.51 15.59,14.54 v 110.18 z" style="fill:#d1d3d4" id="path32" />
      <path d="m 44.27,310.67 c 0,-8.05 -6.98,-14.57 -15.59,-14.57 -8.61,0 -15.59,6.53 -15.59,14.57 v 5.36 c 0,0 0,0 0,0 v 19.77 c 0,3.11 2.55,5.65 5.67,5.65 H 38.6 c 3.12,0 5.67,-2.54 5.67,-5.65 v -19.77 c 0,0 0,0 0,0 v -5.35 z" style="fill:#d1d3d4" id="path33" />
    </g>
    <path d="m 44.27,302.09779 c 0,-8.05 -6.98,-14.57 -15.59,-14.57 -8.61,0 -15.59,6.53 -15.59,14.57 v 5.36 c 0,0 0,0 0,0 v 19.77 c 0,3.11 2.55,5.65 5.67,5.65 H 38.6 c 3.12,0 5.67,-2.54 5.67,-5.65 v -19.77 c 0,0 0,0 0,0 v -5.35 z" id="path34" />
    <path d="M 21.581875,280.54779 H 20.145 v -5.41406 h 1.436875 z m 4.455275,0 h -1.2375 v -2.14453 q 0,-0.32812 -0.09625,-0.57031 -0.09281,-0.24609 -0.4125,-0.24609 -0.15125,0 -0.268125,0.0664 -0.113437,0.0625 -0.20625,0.16406 -0.08937,0.10157 -0.15125,0.19532 -0.06187,0.0937 -0.127187,0.19922 v 2.33593 h -1.2375 v -3.97656 h 1.2375 v 0.57031 q 0.292187,-0.35547 0.584375,-0.49609 0.295625,-0.14453 0.656562,-0.14453 1.258125,0 1.258125,1.71094 z m 4.304025,-2.01562 q 0,0.39844 -0.09969,0.76953 -0.09969,0.37109 -0.305937,0.67187 -0.202813,0.29688 -0.525937,0.47266 -0.319688,0.17188 -0.745938,0.17188 -0.34375,0 -0.543125,-0.082 -0.195937,-0.082 -0.391875,-0.21875 v 2.03907 h -1.2375 v -5.78516 h 1.2375 v 0.35938 q 0.185625,-0.1836 0.409063,-0.30469 0.226875,-0.125 0.611875,-0.125 0.381562,0 0.749374,0.21484 0.367813,0.21485 0.605,0.67188 0.237188,0.45312 0.237188,1.14453 z m -1.302812,0.0312 q 0,-0.35938 -0.09969,-0.58203 -0.09969,-0.22657 -0.257812,-0.32422 -0.158126,-0.10156 -0.326563,-0.10156 -0.22,0 -0.360937,0.082 -0.140938,0.0781 -0.264688,0.19922 v 1.51953 q 0.06531,0.0391 0.1375,0.0898 0.07563,0.0469 0.147813,0.082 0.07562,0.0352 0.158125,0.0586 0.08594,0.0234 0.182187,0.0234 0.292187,0 0.488125,-0.28125 0.195938,-0.28125 0.195938,-0.76562 z m 5.352462,1.98437 h -1.240938 v -0.5664 q -0.26125,0.32031 -0.55,0.48047 -0.285312,0.15625 -0.6875,0.15625 -0.794062,0 -1.027812,-0.52344 -0.23375,-0.52735 -0.23375,-1.1875 v -2.33594 h 1.240938 v 2.14844 q 0,0.32422 0.09281,0.57031 0.09625,0.24219 0.4125,0.24219 0.271562,0 0.429688,-0.17578 0.158124,-0.17578 0.323124,-0.44922 v -2.33594 h 1.240938 z m 3.269337,-0.23047 q -0.1925,0.10547 -0.532813,0.20313 -0.336874,0.0977 -0.64625,0.0977 -1.337187,0 -1.337187,-1.48438 v -1.58594 h -0.560313 v -0.24609 l 1.660313,-1.92188 h 0.140937 v 1.19141 h 1.1825 v 0.97656 h -1.1825 v 1.27344 q 0,0.22266 0.02406,0.35938 0.02406,0.13671 0.134063,0.23046 0.113437,0.0899 0.340313,0.0899 0.295624,0 0.776874,-0.28125 z" id="text34" style="font-weight:700;font-size:8px;font-family:GillSans-Bold, 'Gill Sans';letter-spacing:-0.04em;stroke-width:0.938083" aria-label="Input" />
    <path d="m 27.765937,326.02686 q 0,0.75781 -0.309375,1.39453 -0.305937,0.63672 -0.914375,1.01172 -0.608437,0.375 -1.481562,0.375 -0.883437,0 -1.495313,-0.39063 -0.611875,-0.39062 -0.910937,-1.02734 -0.295625,-0.63672 -0.295625,-1.36328 0,-0.73047 0.295625,-1.36329 0.295625,-0.63671 0.9075,-1.02343 0.615313,-0.39063 1.49875,-0.39063 0.66,0 1.175625,0.22266 0.519062,0.22265 0.8525,0.60547 0.333437,0.3789 0.505312,0.88672 0.171875,0.5039 0.171875,1.0625 z m -1.464375,0 q 0,-0.30469 -0.07906,-0.55469 -0.07906,-0.25391 -0.240625,-0.4375 -0.158125,-0.1875 -0.388438,-0.28906 -0.230312,-0.10547 -0.532812,-0.10547 -0.5775,0 -0.9075,0.38281 -0.33,0.38281 -0.33,1.00391 0,0.62109 0.33,1.00781 0.333437,0.38281 0.9075,0.38281 0.395312,0 0.67375,-0.17578 0.278437,-0.17969 0.422812,-0.49219 0.144375,-0.3164 0.144375,-0.72265 z m 5.562151,2.71093 h -1.240938 v -0.5664 q -0.26125,0.32031 -0.55,0.48047 -0.285313,0.15625 -0.6875,0.15625 -0.794063,0 -1.027813,-0.52344 -0.23375,-0.52735 -0.23375,-1.1875 v -2.33594 h 1.240938 v 2.14844 q 0,0.32422 0.09281,0.57031 0.09625,0.24219 0.4125,0.24219 0.271563,0 0.429688,-0.17578 0.158125,-0.17578 0.323125,-0.44922 v -2.33594 h 1.240938 z m 3.269337,-0.23047 q -0.1925,0.10547 -0.532813,0.20313 -0.336875,0.0977 -0.64625,0.0977 -1.337187,0 -1.337187,-1.48438 v -1.58594 h -0.560313 v -0.24609 l 1.660313,-1.92188 h 0.140937 v 1.19141 h 1.1825 v 0.97656 h -1.1825 v 1.27344 q 0,0.22266 0.02406,0.35938 0.02406,0.13671 0.134062,0.23046 0.113438,0.0899 0.340313,0.0899 0.295625,0 0.776875,-0.28125 z" id="text35" style="font-weight:700;font-size:8px;font-family:GillSans-Bold, 'Gill Sans';letter-spacing:-0.04em;fill:#ffffff;stroke-width:0.938083" aria-label="Out" />
    <path d="m 21.366562,228.26014 h -1.746249 v 4.09765 h -1.433438 v -4.09765 h -1.74625 v -1.31641 h 4.925937 z m 3.228088,0.33593 -0.457188,1.41016 q -0.281875,-0.30469 -0.570625,-0.30469 -0.26125,0 -0.45375,0.20313 -0.189062,0.19922 -0.364375,0.74219 v 1.71093 h -1.2375 v -3.97656 h 1.2375 v 0.96094 q 0.116875,-0.35547 0.4125,-0.69141 0.295625,-0.33984 0.694375,-0.33984 0.209688,0 0.364375,0.0703 0.158125,0.0703 0.374688,0.21484 z m 1.014337,-1.13281 q 0,0.2461 -0.154687,0.41797 -0.154688,0.17188 -0.367813,0.17188 -0.144375,0 -0.264687,-0.0781 -0.116875,-0.0781 -0.185625,-0.21094 -0.06875,-0.13672 -0.06875,-0.30078 0,-0.24219 0.15125,-0.41797 0.15125,-0.17578 0.367812,-0.17578 0.213125,0 0.367813,0.17578 0.154687,0.17578 0.154687,0.41797 z m 0.09969,4.89453 h -1.240938 v -3.97656 h 1.240938 z m 4.0909,-3.1289 H 29.1877 q 0.323125,0.32031 0.323125,0.78515 0,0.2461 -0.09281,0.47266 -0.08938,0.22656 -0.268126,0.40234 -0.175312,0.17578 -0.436562,0.28907 -0.257812,0.10937 -0.59125,0.13281 -0.429688,0.0195 -0.429688,0.26172 0,0.0937 0.055,0.13672 0.055,0.043 0.171876,0.0664 0.120312,0.0195 0.402187,0.0469 0.319687,0.0312 0.594687,0.10937 0.275,0.0781 0.512188,0.32813 0.237188,0.25 0.237188,0.71484 0,0.37109 -0.17875,0.65625 -0.175313,0.28516 -0.570626,0.44531 -0.395312,0.16016 -1.045,0.16016 -0.935,0 -1.375,-0.28516 -0.436562,-0.28515 -0.436562,-0.76172 0,-0.1289 0.055,-0.29687 0.05844,-0.16797 0.240625,-0.32422 0.185625,-0.15625 0.53625,-0.21094 -0.12375,-0.0508 -0.213125,-0.19531 -0.08938,-0.14844 -0.08938,-0.30859 0,-0.20703 0.12375,-0.41016 0.127187,-0.20312 0.409063,-0.26172 -0.391876,-0.11719 -0.677188,-0.4414 -0.285312,-0.32422 -0.285312,-0.83985 0,-0.39062 0.130624,-0.68359 0.134063,-0.29297 0.367813,-0.47656 0.23375,-0.1836 0.543125,-0.26954 0.309375,-0.0898 0.677188,-0.0898 h 1.921562 z m -1.368125,0.67187 q 0,-0.30078 -0.182187,-0.48047 -0.17875,-0.18359 -0.402188,-0.18359 -0.285312,0 -0.450312,0.21875 -0.161563,0.21875 -0.161563,0.46094 0,0.16797 0.06875,0.3125 0.07219,0.14453 0.199375,0.23437 0.130625,0.0859 0.309375,0.0859 0.268125,0 0.443438,-0.19141 0.175312,-0.1914 0.175312,-0.45703 z m 0.2475,3.19922 q 0,-0.26172 -0.2475,-0.33984 -0.244063,-0.0742 -0.505313,-0.0742 -0.429687,0 -0.622187,0.10156 -0.189063,0.10547 -0.189063,0.33203 0,0.44531 0.790626,0.44531 0.354062,0 0.56375,-0.11718 0.209687,-0.11328 0.209687,-0.34766 z m 4.802463,-3.87109 H 32.86954 q 0.323125,0.32031 0.323125,0.78515 0,0.2461 -0.09281,0.47266 -0.08938,0.22656 -0.268125,0.40234 -0.175312,0.17578 -0.436562,0.28907 -0.257813,0.10937 -0.59125,0.13281 -0.429688,0.0195 -0.429688,0.26172 0,0.0937 0.055,0.13672 0.055,0.043 0.171875,0.0664 0.120313,0.0195 0.402188,0.0469 0.319687,0.0312 0.594687,0.10937 0.275,0.0781 0.512188,0.32813 0.237187,0.25 0.237187,0.71484 0,0.37109 -0.17875,0.65625 -0.175312,0.28516 -0.570625,0.44531 -0.395312,0.16016 -1.045,0.16016 -0.935,0 -1.375,-0.28516 -0.436562,-0.28515 -0.436562,-0.76172 0,-0.1289 0.055,-0.29687 0.05844,-0.16797 0.240625,-0.32422 0.185625,-0.15625 0.53625,-0.21094 -0.12375,-0.0508 -0.213125,-0.19531 -0.08938,-0.14844 -0.08938,-0.30859 0,-0.20703 0.12375,-0.41016 0.127187,-0.20312 0.409062,-0.26172 -0.391875,-0.11719 -0.677187,-0.4414 -0.285313,-0.32422 -0.285313,-0.83985 0,-0.39062 0.130625,-0.68359 0.134063,-0.29297 0.367813,-0.47656 0.23375,-0.1836 0.543125,-0.26954 0.309375,-0.0898 0.677187,-0.0898 h 1.921563 z m -1.368125,0.67187 q 0,-0.30078 -0.182188,-0.48047 -0.17875,-0.18359 -0.402187,-0.18359 -0.285313,0 -0.450313,0.21875 -0.161562,0.21875 -0.161562,0.46094 0,0.16797 0.06875,0.3125 0.07219,0.14453 0.199374,0.23437 0.130626,0.0859 0.309376,0.0859 0.268124,0 0.443437,-0.19141 0.175313,-0.1914 0.175313,-0.45703 z m 0.2475,3.19922 q 0,-0.26172 -0.2475,-0.33984 -0.244063,-0.0742 -0.505313,-0.0742 -0.429687,0 -0.622187,0.10156 -0.189063,0.10547 -0.189063,0.33203 0,0.44531 0.790625,0.44531 0.354063,0 0.56375,-0.11718 0.209688,-0.11328 0.209688,-0.34766 z m 4.87121,-2.39062 h -2.464688 q 0.07219,0.36328 0.354063,0.59375 0.281875,0.23046 0.639375,0.23046 0.625625,0 1.381875,-0.39843 v 0.87109 q -0.271563,0.16016 -0.66,0.29297 -0.385,0.12891 -0.983125,0.12891 -0.64625,0 -1.1,-0.27344 -0.45375,-0.27344 -0.680625,-0.74219 -0.223438,-0.46875 -0.223438,-1.0625 0,-0.58594 0.223438,-1.04687 0.226875,-0.46485 0.680625,-0.72657 0.45375,-0.26562 1.1,-0.26562 0.42625,0 0.821562,0.21094 0.39875,0.20703 0.653125,0.68359 0.257813,0.47266 0.257813,1.22266 z m -1.161875,-0.69532 q 0,-0.38281 -0.168438,-0.60937 -0.165,-0.23047 -0.477812,-0.23047 -0.309375,0 -0.501875,0.23437 -0.189063,0.23047 -0.189063,0.60547 z m 4.565275,-1.41797 -0.457187,1.41016 q -0.281876,-0.30469 -0.570626,-0.30469 -0.26125,0 -0.45375,0.20313 -0.189062,0.19922 -0.364374,0.74219 v 1.71093 h -1.2375 v -3.97656 h 1.2375 v 0.96094 q 0.116874,-0.35547 0.4125,-0.69141 0.295624,-0.33984 0.694374,-0.33984 0.209688,0 0.364376,0.0703 0.158124,0.0703 0.374687,0.21484 z" id="text36" style="font-weight:700;font-size:8px;font-family:GillSans-Bold, 'Gill Sans';letter-spacing:-0.04em;stroke-width:0.938083" aria-label="Trigger" />
    <path style="fill:none;stroke:#000000;stroke-width:1.32283465;stroke-dasharray:none;stroke-opacity:1" d="M 38.400208,238.48077 V 277.133" id="path24-7" transform="scale(0.749996)" />
  </g>
  <g /></svg>