<svg xmlns="http://www.w3.org/2000/svg" xmlns:inkscape="http://www.inkscape.org/namespaces/inkscape" xmlns:sodipodi="http://sodipodi.sourceforge.net/DTD/sodipodi-0.dtd" width="20.320108mm" height="128.5mm" viewBox="0 0 76.800412 485.66929" version="1.1" id="svg28" sodipodi:docname="Maraca_info.svg" inkscape:version="1.4 (e7c3feb1, 2024-10-09)">
  <sodipodi:namedview id="namedview28" pagecolor="#ffffff" bordercolor="#000000" borderopacity="0.25" inkscape:showpageshadow="2" inkscape:pageopacity="0.0" inkscape:pagecheckerboard="0" inkscape:deskcolor="#d1d1d1" inkscape:zoom="2.8284271" inkscape:cx="89.802562" inkscape:cy="252.43712" inkscape:window-width="1920" inkscape:window-height="1027" inkscape:window-x="2233" inkscape:window-y="123" inkscape:window-maximized="0" inkscape:current-layer="components" inkscape:document-units="mm" />
  <defs id="defs2">
    <clipPath id="clippath">
      <rect x="14.9" y="32.98" width="27.799999" height="25.620001" style="fill:none" id="rect1" />
    </clipPath>
    <clipPath id="clippath-1">
      <rect x="14.9" y="32.98" width="27.799999" height="25.620001" style="fill:none" id="rect2" />
    </clipPath>
  </defs>
  <g id="faceplate" transform="scale(1.3333405)" sodipodi:insensitive="true">
    <g id="g3">
      <rect x="0.13" y="0.13" width="57.349998" height="364" style="fill:#ededed" id="rect3" />
      <path d="M 57.35,0.25 V 364 H 0.25 V 0.25 h 57.1 M 57.6,0 H 0 v 364.25 h 57.6 z" style="fill:#9d9d9e" id="path3" />
    </g>
    <path d="m 44.27,252.93829 c 0,-8.05 -6.98,-14.57 -15.59,-14.57 -8.61,0 -15.59,6.53 -15.59,14.57 v 54.4 c 0,0 0,0 0,0 v 19.77 c 0,3.11 2.55,5.65 5.67,5.65 H 38.6 c 3.12,0 5.67,-2.54 5.67,-5.65 v -19.77 c 0,0 0,0 0,0 v -54.39 z" style="fill:#d1d3d4" id="path4" />
    <path d="m 44.27,301.97829 c 0,-8.05 -6.98,-14.57 -15.59,-14.57 -8.61,0 -15.59,6.53 -15.59,14.57 v 5.36 c 0,0 0,0 0,0 v 19.77 c 0,3.11 2.55,5.65 5.67,5.65 H 38.6 c 3.12,0 5.67,-2.54 5.67,-5.65 v -19.77 c 0,0 0,0 0,0 v -5.35 z" id="path5" />
    <path d="m 21.366562,276.33064 h -1.746249 v 4.09765 h -1.433438 v -4.09765 h -1.74625 v -1.31641 h 4.925937 z m 3.228088,0.33594 -0.457188,1.41015 q -0.281875,-0.30469 -0.570625,-0.30469 -0.26125,0 -0.45375,0.20313 -0.189062,0.19922 -0.364375,0.74219 v 1.71093 h -1.2375 v -3.97656 h 1.2375 v 0.96094 q 0.116875,-0.35547 0.4125,-0.69141 0.295625,-0.33984 0.694375,-0.33984 0.209688,0 0.364375,0.0703 0.158125,0.0703 0.374688,0.21485 z m 1.014337,-1.13282 q 0,0.2461 -0.154687,0.41797 -0.154688,0.17188 -0.367813,0.17188 -0.144375,0 -0.264687,-0.0781 -0.116875,-0.0781 -0.185625,-0.21094 -0.06875,-0.13671 -0.06875,-0.30078 0,-0.24218 0.15125,-0.41797 0.15125,-0.17578 0.367812,-0.17578 0.213125,0 0.367813,0.17578 0.154687,0.17579 0.154687,0.41797 z m 0.09969,4.89453 h -1.240938 v -3.97656 h 1.240938 z m 4.0909,-3.1289 H 29.1877 q 0.323125,0.32031 0.323125,0.78515 0,0.2461 -0.09281,0.47266 -0.08938,0.22656 -0.268126,0.40234 -0.175312,0.17579 -0.436562,0.28907 -0.257812,0.10937 -0.59125,0.13281 -0.429688,0.0195 -0.429688,0.26172 0,0.0937 0.055,0.13672 0.055,0.043 0.171876,0.0664 0.120312,0.0195 0.402187,0.0469 0.319687,0.0312 0.594687,0.10937 0.275,0.0781 0.512188,0.32813 0.237188,0.25 0.237188,0.71484 0,0.3711 -0.17875,0.65625 -0.175313,0.28516 -0.570626,0.44532 -0.395312,0.16015 -1.045,0.16015 -0.935,0 -1.375,-0.28515 -0.436562,-0.28516 -0.436562,-0.76172 0,-0.12891 0.055,-0.29688 0.05844,-0.16797 0.240625,-0.32422 0.185625,-0.15625 0.53625,-0.21094 -0.12375,-0.0508 -0.213125,-0.19531 -0.08938,-0.14844 -0.08938,-0.30859 0,-0.20703 0.12375,-0.41016 0.127187,-0.20312 0.409063,-0.26172 -0.391876,-0.11718 -0.677188,-0.4414 -0.285312,-0.32422 -0.285312,-0.83985 0,-0.39062 0.130624,-0.68359 0.134063,-0.29297 0.367813,-0.47656 0.23375,-0.1836 0.543125,-0.26953 0.309375,-0.0899 0.677188,-0.0899 h 1.921562 z m -1.368125,0.67187 q 0,-0.30078 -0.182187,-0.48047 -0.17875,-0.18359 -0.402188,-0.18359 -0.285312,0 -0.450312,0.21875 -0.161563,0.21875 -0.161563,0.46094 0,0.16797 0.06875,0.3125 0.07219,0.14453 0.199375,0.23437 0.130625,0.0859 0.309375,0.0859 0.268125,0 0.443438,-0.19141 0.175312,-0.1914 0.175312,-0.45703 z m 0.2475,3.19922 q 0,-0.26172 -0.2475,-0.33984 -0.244063,-0.0742 -0.505313,-0.0742 -0.429687,0 -0.622187,0.10156 -0.189063,0.10547 -0.189063,0.33203 0,0.44532 0.790626,0.44532 0.354062,0 0.56375,-0.11719 0.209687,-0.11328 0.209687,-0.34766 z m 4.802463,-3.87109 H 32.86954 q 0.323125,0.32031 0.323125,0.78515 0,0.2461 -0.09281,0.47266 -0.08938,0.22656 -0.268125,0.40234 -0.175312,0.17579 -0.436562,0.28907 -0.257813,0.10937 -0.59125,0.13281 -0.429688,0.0195 -0.429688,0.26172 0,0.0937 0.055,0.13672 0.055,0.043 0.171875,0.0664 0.120313,0.0195 0.402188,0.0469 0.319687,0.0312 0.594687,0.10937 0.275,0.0781 0.512188,0.32813 0.237187,0.25 0.237187,0.71484 0,0.3711 -0.17875,0.65625 -0.175312,0.28516 -0.570625,0.44532 -0.395312,0.16015 -1.045,0.16015 -0.935,0 -1.375,-0.28515 -0.436562,-0.28516 -0.436562,-0.76172 0,-0.12891 0.055,-0.29688 0.05844,-0.16797 0.240625,-0.32422 0.185625,-0.15625 0.53625,-0.21094 -0.12375,-0.0508 -0.213125,-0.19531 -0.08938,-0.14844 -0.08938,-0.30859 0,-0.20703 0.12375,-0.41016 0.127187,-0.20312 0.409062,-0.26172 -0.391875,-0.11718 -0.677187,-0.4414 -0.285313,-0.32422 -0.285313,-0.83985 0,-0.39062 0.130625,-0.68359 0.134063,-0.29297 0.367813,-0.47656 0.23375,-0.1836 0.543125,-0.26953 0.309375,-0.0899 0.677187,-0.0899 h 1.921563 z m -1.368125,0.67187 q 0,-0.30078 -0.182188,-0.48047 -0.17875,-0.18359 -0.402187,-0.18359 -0.285313,0 -0.450313,0.21875 -0.161562,0.21875 -0.161562,0.46094 0,0.16797 0.06875,0.3125 0.07219,0.14453 0.199374,0.23437 0.130626,0.0859 0.309376,0.0859 0.268124,0 0.443437,-0.19141 0.175313,-0.1914 0.175313,-0.45703 z m 0.2475,3.19922 q 0,-0.26172 -0.2475,-0.33984 -0.244063,-0.0742 -0.505313,-0.0742 -0.429687,0 -0.622187,0.10156 -0.189063,0.10547 -0.189063,0.33203 0,0.44532 0.790625,0.44532 0.354063,0 0.56375,-0.11719 0.209688,-0.11328 0.209688,-0.34766 z m 4.87121,-2.39062 h -2.464688 q 0.07219,0.36328 0.354063,0.59375 0.281875,0.23047 0.639375,0.23047 0.625625,0 1.381875,-0.39844 v 0.87109 q -0.271563,0.16016 -0.66,0.29297 -0.385,0.12891 -0.983125,0.12891 -0.64625,0 -1.1,-0.27344 -0.45375,-0.27344 -0.680625,-0.74219 -0.223438,-0.46875 -0.223438,-1.0625 0,-0.58594 0.223438,-1.04687 0.226875,-0.46485 0.680625,-0.72657 0.45375,-0.26562 1.1,-0.26562 0.42625,0 0.821562,0.21094 0.39875,0.20703 0.653125,0.68359 0.257813,0.47266 0.257813,1.22266 z m -1.161875,-0.69532 q 0,-0.38281 -0.168438,-0.60937 -0.165,-0.23047 -0.477812,-0.23047 -0.309375,0 -0.501875,0.23438 -0.189063,0.23046 -0.189063,0.60546 z m 4.565275,-1.41796 -0.457187,1.41015 q -0.281876,-0.30469 -0.570626,-0.30469 -0.26125,0 -0.45375,0.20313 -0.189062,0.19922 -0.364374,0.74219 v 1.71093 h -1.2375 v -3.97656 h 1.2375 v 0.96094 q 0.116874,-0.35547 0.4125,-0.69141 0.295624,-0.33984 0.694374,-0.33984 0.209688,0 0.364376,0.0703 0.158124,0.0703 0.374687,0.21485 z" id="text5" style="font-weight:700;font-size:8px;font-family:GillSans-Bold, 'Gill Sans';letter-spacing:-0.04em;stroke-width:0.938083" aria-label="Trigger" />
    <path d="m 27.765937,325.90736 q 0,0.75781 -0.309375,1.39453 -0.305937,0.63672 -0.914375,1.01172 -0.608437,0.375 -1.481562,0.375 -0.883437,0 -1.495313,-0.39063 -0.611875,-0.39062 -0.910937,-1.02734 -0.295625,-0.63672 -0.295625,-1.36328 0,-0.73047 0.295625,-1.36328 0.295625,-0.63672 0.9075,-1.02344 0.615313,-0.39063 1.49875,-0.39063 0.66,0 1.175625,0.22266 0.519062,0.22266 0.8525,0.60547 0.333437,0.3789 0.505312,0.88672 0.171875,0.5039 0.171875,1.0625 z m -1.464375,0 q 0,-0.30469 -0.07906,-0.55469 -0.07906,-0.25391 -0.240625,-0.4375 -0.158125,-0.1875 -0.388438,-0.28906 -0.230312,-0.10547 -0.532812,-0.10547 -0.5775,0 -0.9075,0.38281 -0.33,0.38281 -0.33,1.00391 0,0.62109 0.33,1.00781 0.333437,0.38281 0.9075,0.38281 0.395312,0 0.67375,-0.17578 0.278437,-0.17969 0.422812,-0.49219 0.144375,-0.3164 0.144375,-0.72265 z m 5.562151,2.71093 h -1.240938 v -0.5664 q -0.26125,0.32031 -0.55,0.48047 -0.285313,0.15625 -0.6875,0.15625 -0.794063,0 -1.027813,-0.52344 -0.23375,-0.52734 -0.23375,-1.1875 v -2.33594 h 1.240938 v 2.14844 q 0,0.32422 0.09281,0.57031 0.09625,0.24219 0.4125,0.24219 0.271563,0 0.429688,-0.17578 0.158125,-0.17578 0.323125,-0.44922 v -2.33594 h 1.240938 z m 3.269337,-0.23046 q -0.1925,0.10546 -0.532813,0.20312 -0.336875,0.0977 -0.64625,0.0977 -1.337187,0 -1.337187,-1.48438 v -1.58594 h -0.560313 v -0.24609 l 1.660313,-1.92187 h 0.140937 v 1.1914 h 1.1825 v 0.97656 h -1.1825 v 1.27344 q 0,0.22266 0.02406,0.35938 0.02406,0.13672 0.134062,0.23047 0.113438,0.0898 0.340313,0.0898 0.295625,0 0.776875,-0.28125 z" id="text6" style="font-weight:700;font-size:8px;font-family:GillSans-Bold, 'Gill Sans';letter-spacing:-0.04em;fill:#ffffff;stroke-width:0.938083" aria-label="Out" />
    <g id="pips_-_fewest" data-name="pips - fewest" transform="translate(0,3.7681504)">
      <g clip-path="url(#clippath)" id="g16">
        <g clip-path="url(#clippath-1)" id="g15">
          <path d="m 34.49,35.76 0.71,-1.23 c -1.74,-0.9 -3.7,-1.45 -5.77,-1.55 v 1.43 c 1.81,0.09 3.53,0.56 5.06,1.35" id="path6" />
          <path d="m 39.29,40.1 1.23,-0.71 C 39.43,37.7 37.99,36.25 36.3,35.17 l -0.71,1.23 c 1.48,0.96 2.74,2.22 3.7,3.7" id="path7" />
          <path d="M 22.01,36.4 21.3,35.17 c -1.69,1.09 -3.14,2.53 -4.22,4.22 l 1.23,0.71 c 0.96,-1.48 2.22,-2.74 3.7,-3.7" id="path8" />
          <path d="m 41.27,46.25 h 1.43 c -0.09,-2.07 -0.64,-4.03 -1.55,-5.77 l -1.23,0.71 c 0.79,1.53 1.26,3.24 1.35,5.06" id="path9" />
          <path d="m 28.17,34.41 v -1.43 c -2.07,0.09 -4.03,0.64 -5.77,1.55 l 0.71,1.23 c 1.53,-0.79 3.24,-1.26 5.06,-1.35" id="path10" />
          <path d="m 18.31,53.67 -1.23,0.71 c 1.09,1.69 2.53,3.14 4.22,4.22 l 0.71,-1.23 c -1.48,-0.96 -2.74,-2.22 -3.7,-3.7" id="path11" />
          <path d="m 35.59,57.38 0.71,1.23 c 1.69,-1.09 3.14,-2.53 4.22,-4.22 l -1.23,-0.71 c -0.96,1.48 -2.22,2.74 -3.7,3.7" id="path12" />
          <path d="m 41.27,47.52 c -0.09,1.81 -0.56,3.53 -1.35,5.06 l 1.23,0.71 c 0.9,-1.74 1.45,-3.7 1.55,-5.77 z" id="path13" />
          <path d="M 16.33,47.52 H 14.9 c 0.09,2.07 0.64,4.03 1.55,5.77 l 1.23,-0.71 c -0.79,-1.53 -1.26,-3.24 -1.35,-5.06" id="path14" />
          <path d="m 17.68,41.2 -1.23,-0.71 c -0.9,1.74 -1.45,3.7 -1.55,5.77 h 1.43 c 0.09,-1.81 0.56,-3.53 1.35,-5.06" id="path15" />
        </g>
      </g>
    </g>
    <path d="m 22.840703,69.144564 q 0,1.040039 -0.335156,1.669922 -0.33086,0.629883 -0.782031,1.020508 -0.640235,0.571289 -1.791797,0.571289 h -3.214063 v -6.767578 h 2.475 q 0.558594,0 0.953906,0.06836 0.39961,0.06348 0.717579,0.185547 0.317968,0.117187 0.541406,0.268554 0.223437,0.146485 0.399609,0.317383 0.305078,0.283203 0.532813,0.668945 0.232031,0.385743 0.365234,0.893555 0.1375,0.507813 0.1375,1.103515 z m -1.826172,-0.08789 q 0,-0.825195 -0.279297,-1.28418 -0.275,-0.463867 -0.666015,-0.620117 -0.386719,-0.15625 -0.790625,-0.15625 H 18.51375 v 4.008789 h 0.764844 q 0.704687,0 1.220312,-0.380859 0.515625,-0.380859 0.515625,-1.567383 z m 6.815188,1.289063 h -3.08086 q 0.09023,0.454101 0.442578,0.742187 0.352344,0.288086 0.799219,0.288086 0.782031,0 1.727344,-0.498047 v 1.088867 q -0.339453,0.200196 -0.825,0.366211 -0.48125,0.161133 -1.228906,0.161133 -0.807813,0 -1.375,-0.341797 -0.567188,-0.341797 -0.850782,-0.927734 -0.279296,-0.585938 -0.279296,-1.328125 0,-0.732422 0.279296,-1.308594 0.283594,-0.581055 0.850782,-0.908203 0.567187,-0.332031 1.375,-0.332031 0.532812,0 1.026953,0.263672 0.498437,0.258789 0.816406,0.854492 0.322266,0.59082 0.322266,1.52832 z m -1.452344,-0.869141 q 0,-0.478516 -0.210547,-0.761719 -0.20625,-0.288086 -0.597265,-0.288086 -0.386719,0 -0.627344,0.292969 -0.236328,0.288086 -0.236328,0.756836 z m 5.607765,2.700195 q -0.193359,0.08301 -0.408203,0.15625 -0.214844,0.06836 -0.485547,0.112305 -0.266406,0.04883 -0.584374,0.04883 -0.717579,0 -1.216016,-0.273437 Q 28.796859,71.942419 28.526156,71.52738 28.25975,71.107455 28.156625,70.672885 28.0535,70.238314 28.0535,69.906283 q 0,-0.332031 0.103125,-0.766602 0.107422,-0.43457 0.369531,-0.839843 0.26211,-0.405274 0.75625,-0.678711 0.498437,-0.273438 1.22461,-0.273438 0.485547,0 0.790624,0.07813 0.305079,0.07813 0.61875,0.209961 v 1.381836 q -0.75625,-0.273437 -1.18164,-0.273437 -0.4125,0 -0.734766,0.283203 -0.317968,0.283203 -0.317968,0.878906 0,0.395508 0.158984,0.668945 0.158984,0.268555 0.403906,0.395508 0.244922,0.126953 0.489844,0.126953 0.232031,0 0.528516,-0.07813 0.296484,-0.07813 0.721874,-0.224609 z m 4.937453,-0.01953 q -0.339453,0.151367 -0.627344,0.244141 -0.28789,0.09277 -0.691797,0.09277 -0.382422,0 -0.532812,-0.151367 -0.150391,-0.15625 -0.214844,-0.375977 -0.249218,0.229493 -0.554297,0.38086 -0.305077,0.146484 -0.799219,0.146484 -0.476952,0 -0.773437,-0.185547 -0.292187,-0.190429 -0.4125,-0.473633 -0.116015,-0.288085 -0.116015,-0.59082 0,-0.458984 0.201952,-0.756836 0.20625,-0.302734 0.55,-0.493164 0.34375,-0.19043 0.910938,-0.395508 0.322265,-0.117187 0.485547,-0.175781 0.167578,-0.06348 0.249218,-0.09766 0.08164,-0.03418 0.171876,-0.08789 0,-0.361328 -0.128907,-0.566406 -0.128906,-0.205078 -0.558593,-0.205078 -0.507031,0 -0.941016,0.253906 -0.433984,0.253906 -0.794921,0.654297 V 68.0264 q 0.28789,-0.234375 0.623046,-0.38086 0.335157,-0.151367 0.700391,-0.224609 0.365234,-0.07324 0.739063,-0.07324 0.949608,0 1.426561,0.419922 0.48125,0.415039 0.48125,1.14746 v 1.918946 q 0,0.273437 0.04297,0.410156 0.04726,0.131836 0.167578,0.131836 0.146094,0 0.395313,-0.141602 z m -2.152734,-0.952148 v -1.176758 q -0.55,0.253907 -0.803516,0.458985 -0.253515,0.200195 -0.253515,0.546875 0,0.249023 0.124608,0.380859 0.128907,0.131836 0.296486,0.131836 0.158984,0 0.313671,-0.09766 0.158985,-0.102539 0.322266,-0.244141 z M 41.74403,67.43558 38.770593,74.667025 H 37.20653 l 1.203126,-2.910156 -1.73164,-4.321289 h 1.66289 l 0.889453,2.470703 1.009766,-2.470703 z" id="text16" style="font-weight:700;font-size:10px;font-family:GillSans-Bold, 'Gill Sans';letter-spacing:-0.04em;stroke-width:0.938083" aria-label="Decay" />
    <path d="m 21.866074,348.36829 h -1.840996 v -4.31298 l -1.66042,2.49756 h -0.145342 l -1.664824,-2.49756 v 4.31298 h -1.788144 v -7.44433 h 1.669228 l 1.876231,2.79297 1.885039,-2.79297 h 1.669228 z m 7.45207,0 h -1.977529 l -0.480068,-1.32128 q -0.264258,-0.7251 -0.475664,-1.05811 -0.211407,-0.33838 -0.414004,-0.42969 -0.198193,-0.0967 -0.515303,-0.0967 h -0.207002 v 2.90576 h -1.840996 v -7.44433 h 3.131455 q 0.757539,0 1.242012,0.37598 0.484473,0.37597 0.695879,0.91308 0.215811,0.53711 0.215811,1.02051 0,0.56396 -0.180577,0.95605 -0.176172,0.38672 -0.374365,0.56397 -0.198193,0.17724 -0.444834,0.33838 0.295088,0.20947 0.484473,0.49951 0.193789,0.28467 0.524111,1.16016 z m -2.50164,-5.09179 q 0,-0.51563 -0.277471,-0.71973 -0.277471,-0.2041 -0.90288,-0.2041 h -0.387579 v 1.79395 h 0.396387 q 0.673857,0 0.920498,-0.17725 0.251045,-0.18262 0.251045,-0.69287 z m 8.804189,4.5332 q -0.378769,0.2417 -0.775156,0.38672 -0.396387,0.14502 -0.801582,0.2041 -0.400791,0.0645 -0.832412,0.0645 -0.797178,0 -1.431397,-0.26855 -0.629814,-0.26855 -1.09667,-0.78955 -0.462451,-0.52637 -0.695879,-1.22461 -0.229023,-0.70361 -0.229023,-1.5415 0,-0.96143 0.273066,-1.68116 0.273067,-0.72509 0.761944,-1.20312 0.493281,-0.47803 1.118691,-0.70361 0.629815,-0.23096 1.325693,-0.23096 1.039415,0 2.3563,0.56396 v 1.97657 q -0.453643,-0.34375 -0.898477,-0.56934 -0.44043,-0.23096 -1.039414,-0.23096 -0.53292,0 -0.995371,0.25782 -0.462452,0.25781 -0.744327,0.73583 -0.281875,0.47803 -0.281875,1.11719 0,0.56397 0.246642,1.03662 0.24664,0.46729 0.682665,0.74659 0.44043,0.27392 0.990967,0.27392 0.444834,0 0.841221,-0.1289 0.396387,-0.13428 0.665048,-0.29542 0.273067,-0.16113 0.559346,-0.38134 z m 7.940947,0.55859 h -1.885039 l -0.497685,-1.50927 h -2.651387 l -0.506494,1.50927 h -1.885039 l 2.699834,-7.44433 h 2.034785 z m -2.805536,-2.80371 -0.894073,-2.71777 -0.902881,2.71777 z" id="text17" style="font-weight:700;font-size:11px;font-family:GillSans-Bold, 'Gill Sans';stroke-width:0.905538" aria-label="MRCA" />
    <line x1="28.799999" y1="74.956139" x2="28.799999" y2="95.956139" style="fill:#ffffff;stroke:#231f20;stroke-miterlimit:10" id="line17" />
    <g id="g19" transform="translate(0.36215438,8.6917051)">
      <path d="m 20.6,18.07 c -0.37,0 -0.71,-0.17 -0.97,-0.47 -0.51,-0.6 -0.52,-1.54 -0.04,-2.16 l 6.97,-8.88 c 0.38,-0.48 1.05,-0.65 1.57,-0.39 0.5,0.25 0.79,0.82 0.79,1.45 v 4.77 l 4.64,-5.85 c 0.38,-0.48 1.01,-0.64 1.53,-0.38 0.5,0.25 0.83,0.81 0.83,1.44 v 8.82 c 0,0.86 -0.61,1.57 -1.36,1.57 -0.75,0 -1.36,-0.7 -1.36,-1.57 v -4.79 l -4.64,5.85 c -0.38,0.48 -1.01,0.64 -1.54,0.38 -0.5,-0.24 -0.83,-0.81 -0.83,-1.44 v -4.67 l -4.61,5.8 c -0.26,0.32 -0.62,0.51 -1,0.51 v 0 z" style="fill:#2cabe1" id="path17" />
      <path d="m 20.6,18.07 c -0.75,0 -1.35,-0.7 -1.35,-1.57 v -4.93 l -2.26,2.84 c -0.5,0.63 -1.44,0.65 -1.97,0.04 -0.51,-0.6 -0.52,-1.53 -0.03,-2.15 L 19.6,6.54 c 0.26,-0.32 0.63,-0.5 1,-0.5 0.18,0 0.37,0.04 0.54,0.12 0.5,0.25 0.82,0.81 0.82,1.44 v 8.89 c 0,0.86 -0.61,1.57 -1.36,1.57 v 0 z" style="fill:#ea2228" id="path18" />
      <path d="m 37.2,18.09 v 0 c -0.35,0 -0.68,-0.15 -0.94,-0.42 -0.76,-0.78 -0.14,-1.84 0.29,-2.3 l 1.95,-2.36 -1.26,-0.02 c -0.56,-0.01 -1.04,-0.4 -1.24,-1 -0.19,-0.56 -0.07,-1.21 0.29,-1.64 L 39.45,6.52 C 39.68,6.24 40,6.04 40.58,6.05 c 0.33,0 0.67,0.17 0.92,0.4 0.71,0.66 0.29,1.7 -0.07,2.2 l -1.04,1.26 1.26,0.02 c 0.56,0.01 1.04,0.4 1.24,1 0.19,0.56 0.07,1.21 -0.29,1.64 l -4.1,4.97 c -0.35,0.35 -0.65,0.55 -1.3,0.54 v 0 z" style="fill:#00a650" id="path19" />
    </g>
    <path style="fill:none;stroke:#000000;stroke-width:1.8504;stroke-dasharray:none;stroke-opacity:1" d="m 38.400208,290.85322 v 55.32759" id="path24" transform="scale(0.749996)" />
  </g>
  <g /></svg>