<svg xmlns="http://www.w3.org/2000/svg" xmlns:inkscape="http://www.inkscape.org/namespaces/inkscape" xmlns:sodipodi="http://sodipodi.sourceforge.net/DTD/sodipodi-0.dtd" width="50.800274mm" height="128.5mm" viewBox="0 0 192.00103 485.6693" version="1.1" id="svg60" sodipodi:docname="Tom_info.svg" inkscape:version="1.4 (e7c3feb1, 2024-10-09)">
  <defs id="defs60" />
  <sodipodi:namedview id="namedview60" pagecolor="#ffffff" bordercolor="#000000" borderopacity="0.25" inkscape:showpageshadow="2" inkscape:pageopacity="0.0" inkscape:pagecheckerboard="0" inkscape:deskcolor="#d1d1d1" inkscape:zoom="1.0783117" inkscape:cx="199.38576" inkscape:cy="251.3188" inkscape:window-width="1600" inkscape:window-height="847" inkscape:window-x="2037" inkscape:window-y="129" inkscape:window-maximized="0" inkscape:current-layer="components" inkscape:document-units="mm" />
  <g id="faceplate" transform="scale(1.3333405)" sodipodi:insensitive="true">
    <g id="g1">
      <rect x="0.13" y="0.13" width="143.75" height="364" style="fill:#ededed" id="rect1" />
      <path d="M 143.75,0.25 V 364 H 0.25 V 0.25 h 143.5 M 144,0 H 0 v 364.25 h 144 z" style="fill:#9d9d9e" id="path1" />
    </g>
    <path d="M 12.48,291.71 V 229.7 c 0,-7.82 6.4,-14.22 14.22,-14.22 h 90.62 c 7.82,0 14.22,6.4 14.22,14.22 v 62.01 -0.93 45.22 c 0,3.11 -2.54,5.65 -5.65,5.65 H 18.13 c -3.11,0 -5.65,-2.54 -5.65,-5.65 v -45.22" style="fill:#d1d3d4;stroke:#d1d3d4;stroke-miterlimit:10" id="path2" />
    <path d="m 132.06,318.53 v -21.52 h -21.54 c -7.49,0 -13.57,6.52 -13.57,14.57 v 30.53 h 15.07 c 0,0 0,0 0,0 h 14.39 c 3.12,0 5.64,-2.36 5.64,-5.25 v -18.39 0.08 z" id="path3" />
    <g id="g13">
      <path d="m 46.72,145.47 1.13,-1.95 c -2.75,-1.43 -5.84,-2.3 -9.12,-2.44 v 2.26 c 2.87,0.14 5.57,0.89 7.99,2.14 z" id="path4" />
      <path d="m 54.31,152.32 1.95,-1.13 c -1.72,-2.68 -4,-4.96 -6.68,-6.68 l -1.13,1.95 c 2.34,1.52 4.33,3.51 5.85,5.85 z" id="path5" />
      <path d="m 27,146.47 -1.13,-1.95 c -2.68,1.72 -4.96,4 -6.68,6.68 l 1.95,1.13 c 1.52,-2.34 3.51,-4.33 5.85,-5.85 z" id="path6" />
      <path d="m 57.45,162.05 h 2.26 c -0.15,-3.28 -1.01,-6.37 -2.44,-9.12 l -1.95,1.13 c 1.24,2.42 1.99,5.13 2.14,8 z" id="path7" />
      <path d="m 36.73,143.33 v -2.26 c -3.28,0.15 -6.37,1.01 -9.12,2.44 l 1.13,1.95 c 2.42,-1.24 5.13,-1.99 8,-2.14 z" id="path8" />
      <path d="m 21.15,173.78 -1.95,1.13 c 1.72,2.68 4,4.96 6.68,6.68 l 1.13,-1.95 c -2.34,-1.52 -4.33,-3.51 -5.85,-5.85 z" id="path9" />
      <path d="m 48.46,179.63 1.13,1.95 c 2.68,-1.72 4.96,-4 6.68,-6.68 l -1.95,-1.13 c -1.52,2.34 -3.51,4.33 -5.85,5.85 z" id="path10" />
      <path d="m 57.45,164.05 c -0.14,2.87 -0.89,5.57 -2.14,8 l 1.95,1.13 c 1.43,-2.75 2.3,-5.84 2.44,-9.12 h -2.26 z" id="path11" />
      <path d="m 18.01,164.05 h -2.26 c 0.15,3.28 1.01,6.37 2.44,9.12 l 1.95,-1.13 c -1.24,-2.42 -1.99,-5.13 -2.14,-8 z" id="path12" />
      <path d="m 20.15,154.06 -1.95,-1.13 c -1.43,2.75 -2.3,5.84 -2.44,9.12 h 2.26 c 0.14,-2.87 0.89,-5.57 2.14,-8 z" id="path13" />
    </g>
    <g id="g23">
      <path d="m 115.27,145.47 1.13,-1.95 c -2.75,-1.43 -5.84,-2.3 -9.12,-2.44 v 2.26 c 2.87,0.14 5.57,0.89 7.99,2.14 z" id="path14" />
      <path d="m 122.85,152.32 1.95,-1.13 c -1.72,-2.68 -4,-4.96 -6.68,-6.68 l -1.13,1.95 c 2.34,1.52 4.33,3.51 5.85,5.85 z" id="path15" />
      <path d="m 95.54,146.47 -1.13,-1.95 c -2.68,1.72 -4.96,4 -6.68,6.68 l 1.95,1.13 c 1.52,-2.34 3.51,-4.33 5.85,-5.85 z" id="path16" />
      <path d="m 125.99,162.05 h 2.26 c -0.15,-3.28 -1.01,-6.37 -2.44,-9.12 l -1.95,1.13 c 1.24,2.42 1.99,5.13 2.14,8 z" id="path17" />
      <path d="m 105.27,143.33 v -2.26 c -3.28,0.15 -6.37,1.01 -9.12,2.44 l 1.13,1.95 c 2.42,-1.24 5.13,-1.99 8,-2.14 z" id="path18" />
      <path d="m 89.69,173.78 -1.95,1.13 c 1.72,2.68 4,4.96 6.68,6.68 l 1.13,-1.95 c -2.34,-1.52 -4.33,-3.51 -5.85,-5.85 z" id="path19" />
      <path d="m 117,179.63 1.13,1.95 c 2.68,-1.72 4.96,-4 6.68,-6.68 l -1.95,-1.13 c -1.52,2.34 -3.51,4.33 -5.85,5.85 z" id="path20" />
      <path d="m 125.99,164.05 c -0.14,2.87 -0.89,5.57 -2.14,8 l 1.95,1.13 c 1.43,-2.75 2.3,-5.84 2.44,-9.12 h -2.26 z" id="path21" />
      <path d="m 86.55,164.05 h -2.26 c 0.15,3.28 1.01,6.37 2.44,9.12 l 1.95,-1.13 c -1.24,-2.42 -1.99,-5.13 -2.14,-8 z" id="path22" />
      <path d="m 88.69,154.06 -1.95,-1.13 c -1.43,2.75 -2.3,5.84 -2.44,9.12 h 2.26 c 0.14,-2.87 0.89,-5.57 2.14,-8 z" id="path23" />
    </g>
    <path d="m 6.7089844,-4.6386719 q 0,0.3759766 -0.131836,0.7373047 -0.1269531,0.3564453 -0.415039,0.6689453 -0.288086,0.3076172 -0.78125,0.5029297 -0.4882813,0.1904297 -1.1523438,0.1904297 H 2.890625 V 0 H 0.84960938 V -6.7675781 H 4.2285156 q 0.6640625,0 1.1523438,0.1953125 0.493164,0.1953125 0.78125,0.5078125 0.2880859,0.3125 0.415039,0.6787109 0.131836,0.366211 0.131836,0.7470703 z m -2.0800782,0.00977 q 0,-0.4833985 -0.2880859,-0.6591797 Q 4.0576172,-5.46875 3.3203125,-5.46875 H 2.890625 v 1.6308594 h 0.4394531 q 0.5078125,0 0.78125,-0.063477 0.2734375,-0.063477 0.3955078,-0.234375 0.1220703,-0.1708984 0.1220703,-0.493164 z m 4.233789,-1.4892579 q 0,0.3076172 -0.2197265,0.522461 -0.2197266,0.2148437 -0.522461,0.2148437 -0.2050781,0 -0.3759765,-0.097656 -0.1660157,-0.097656 -0.2636719,-0.2636719 -0.097656,-0.1708984 -0.097656,-0.3759766 0,-0.3027343 0.2148438,-0.5224609 0.2148437,-0.2197266 0.5224609,-0.2197266 0.3027344,0 0.522461,0.2197266 0.2197265,0.2197266 0.2197262,0.5224607 z M 9.0042968,0 H 7.2416015 v -4.9707031 h 1.7626953 z m 4.7318362,-0.28808594 q -0.273438,0.13183594 -0.756836,0.25390625 -0.478516,0.12207031 -0.917969,0.12207031 -1.899414,0 -1.899414,-1.85546872 V -3.75 H 9.3660154 v -0.3076172 l 2.3583986,-2.4023437 h 0.200195 v 1.4892578 h 1.679688 V -3.75 h -1.679688 v 1.5917969 q 0,0.2783203 0.03418,0.4492187 0.03418,0.1708985 0.19043,0.288086 0.161132,0.1123047 0.483398,0.1123047 0.419922,0 1.103516,-0.3515625 z m 4.629297,0.0585937 q -0.219727,0.0830078 -0.463867,0.15625 -0.244141,0.06835938 -0.551758,0.11230469 -0.302734,0.04882812 -0.664063,0.04882812 -0.815429,0 -1.381836,-0.27343749 Q 14.742383,-0.46386724 14.434766,-0.8789063 14.132031,-1.2988281 14.014844,-1.7333984 13.897656,-2.1679688 13.897656,-2.5 q 0,-0.3320313 0.117188,-0.7666016 0.12207,-0.4345703 0.419922,-0.8398437 0.297851,-0.4052734 0.859375,-0.6787109 0.566406,-0.2734375 1.391601,-0.2734375 0.551758,0 0.898438,0.078125 0.34668,0.078125 0.703125,0.2099609 v 1.3818359 q -0.859375,-0.2734375 -1.342774,-0.2734375 -0.46875,0 -0.83496,0.2832031 -0.361329,0.2832032 -0.361329,0.8789063 0,0.3955078 0.180664,0.6689453 0.180665,0.2685547 0.458985,0.3955078 0.27832,0.1269532 0.55664,0.1269532 0.263672,0 0.600586,-0.078125 0.336914,-0.078125 0.820313,-0.2246094 z M 24.127539,0 h -1.757813 v -2.578125 q 0,-0.029297 0,-0.053711 0.0049,-0.029297 0.0049,-0.1171875 0,-0.3564454 -0.151367,-0.6542969 -0.151367,-0.2978516 -0.576172,-0.2978516 -0.332031,0 -0.585938,0.2246094 -0.253906,0.2197266 -0.483398,0.5566406 V 0 h -1.757813 v -6.7675781 h 1.757813 v 2.5097656 q 0.43457,-0.4638672 0.859375,-0.6298828 0.424805,-0.1708984 0.90332,-0.1708984 1.78711,0 1.78711,2.0068359 z m 10.469532,-3.2617188 q 0,1.0400391 -0.38086,1.6699219 -0.375976,0.62988284 -0.888672,1.02050784 Q 32.6,0 31.291407,0 h -3.652344 v -6.7675781 h 2.8125 q 0.634766,0 1.083984,0.068359 0.454102,0.063477 0.81543,0.1855468 0.361328,0.1171875 0.615234,0.2685547 0.253907,0.1464844 0.454102,0.3173828 0.34668,0.2832032 0.605469,0.6689453 0.263672,0.3857422 0.415039,0.8935547 0.15625,0.5078125 0.15625,1.103516 z m -2.075196,-0.087891 q 0,-0.8251953 -0.317382,-1.2841797 -0.3125,-0.4638671 -0.756836,-0.6201171 -0.439453,-0.15625 -0.898438,-0.15625 h -0.86914 v 4.008789 h 0.86914 q 0.800781,0 1.386719,-0.3808594 0.585937,-0.3808593 0.585937,-1.5673828 z m 7.744532,1.2890625 H 36.76543 q 0.10254,0.4541016 0.50293,0.7421875 0.400391,0.288086 0.908203,0.288086 0.888672,0 1.962891,-0.4980469 v 1.08886717 q -0.385742,0.20019532 -0.9375,0.36621094 -0.546875,0.16113281 -1.396484,0.16113281 -0.917969,0 -1.5625,-0.34179687 -0.644532,-0.34179687 -0.966797,-0.92773435 -0.317383,-0.5859375 -0.317383,-1.328125 0,-0.7324219 0.317383,-1.3085938 0.322265,-0.5810547 0.966797,-0.9082031 0.644531,-0.3320312 1.5625,-0.3320312 0.605468,0 1.166992,0.2636718 0.566406,0.2587891 0.927734,0.8544922 0.366211,0.5908203 0.366211,1.5283203 z m -1.650391,-0.8691406 q 0,-0.4785156 -0.239257,-0.7617188 -0.234375,-0.2880859 -0.678711,-0.2880859 -0.439453,0 -0.712891,0.2929688 -0.268555,0.2880859 -0.268555,0.7568359 z m 6.37246,2.70019531 q -0.219727,0.0830078 -0.463867,0.15625 -0.244141,0.06835938 -0.551758,0.11230469 -0.302735,0.04882812 -0.664063,0.04882812 -0.815429,0 -1.381836,-0.27343749 -0.561523,-0.27832032 -0.86914,-0.69335938 Q 40.755077,-1.2988281 40.63789,-1.7333984 40.520702,-2.1679688 40.520702,-2.5 q 0,-0.3320313 0.117188,-0.7666016 0.12207,-0.4345703 0.419922,-0.8398437 0.297851,-0.4052734 0.859375,-0.6787109 0.566406,-0.2734375 1.391601,-0.2734375 0.551758,0 0.898438,0.078125 0.346679,0.078125 0.703125,0.2099609 v 1.3818359 q -0.859375,-0.2734375 -1.342774,-0.2734375 -0.46875,0 -0.834961,0.2832031 -0.361328,0.2832032 -0.361328,0.8789063 0,0.3955078 0.180664,0.6689453 0.180664,0.2685547 0.458985,0.3955078 0.27832,0.1269532 0.55664,0.1269532 0.263672,0 0.600586,-0.078125 0.336914,-0.078125 0.820313,-0.2246094 z m 5.610744,-0.0195313 q -0.385742,0.15136719 -0.71289,0.24414063 -0.327149,0.09277343 -0.786133,0.09277343 -0.43457,0 -0.605469,-0.15136718 -0.170898,-0.15625 -0.244141,-0.37597657 -0.283203,0.22949219 -0.629882,0.38085938 -0.34668,0.14648437 -0.908203,0.14648437 -0.541993,0 -0.878907,-0.18554687 -0.332031,-0.19042969 -0.46875,-0.47363281 -0.131836,-0.28808594 -0.131836,-0.59082039 0,-0.4589843 0.229493,-0.7568359 0.234375,-0.3027344 0.625,-0.4931641 0.390625,-0.1904297 1.035156,-0.3955078 0.366211,-0.1171875 0.551758,-0.1757812 0.190429,-0.063477 0.283203,-0.097656 0.09277,-0.03418 0.195312,-0.087891 0,-0.3613281 -0.146484,-0.5664063 -0.146485,-0.2050781 -0.634766,-0.2050781 -0.576172,0 -1.069336,0.2539063 -0.493164,0.2539062 -0.90332,0.6542968 v -1.3476561 q 0.327148,-0.234375 0.708008,-0.3808595 0.380859,-0.1513672 0.795898,-0.2246094 0.415039,-0.073242 0.839844,-0.073242 1.079102,0 1.621094,0.4199218 0.546875,0.415039 0.546875,1.1474609 v 1.9189453 q 0,0.2734375 0.04883,0.4101562 0.05371,0.131836 0.19043,0.131836 0.166015,0 0.449218,-0.1416016 z M 48.152931,-1.2011719 v -1.1767578 q -0.625,0.2539063 -0.913086,0.4589844 -0.288086,0.2001953 -0.288086,0.546875 0,0.2490234 0.141602,0.38085936 0.146484,0.13183594 0.336914,0.13183594 0.180664,0 0.356445,-0.0976563 0.180664,-0.1025391 0.366211,-0.2441406 z m 7.925194,-3.7695312 -3.378906,7.2314453 h -1.777344 l 1.367187,-2.91015626 -1.967773,-4.32128904 h 1.889648 L 53.22168,-2.5 54.369141,-4.9707031 Z" id="text23" style="font-weight:700;font-size:10px;font-family:GillSans-Bold, 'Gill Sans';letter-spacing:-0.04em" transform="matrix(0.88,0,0,1,13.08,192.94)" aria-label="Pitch Decay" />
    <path d="M 5.9521484,0 H 0.84960938 V -6.7675781 H 5.8691406 v 1.3574219 H 2.890625 v 1.2402343 h 2.8417969 v 1.3623047 H 2.890625 v 1.4453125 h 3.0615234 z m 5.9867186,0 h -1.757812 v -2.6806641 q 0,-0.4101562 -0.136719,-0.7128906 -0.1318361,-0.3076172 -0.5859377,-0.3076172 -0.2148437,0 -0.3808593,0.083008 -0.1611328,0.078125 -0.2929688,0.2050782 -0.1269531,0.1269531 -0.2148437,0.2441406 -0.087891,0.1171875 -0.1806641,0.2490234 V 0 H 6.6312499 v -4.9707031 h 1.7578125 v 0.7128906 q 0.4150391,-0.4443359 0.8300781,-0.6201172 0.4199219,-0.180664 0.9326175,-0.180664 1.787109,0 1.787109,2.1386718 z M 17.832812,-4.9707031 15.57207,0 h -1.298828 l -2.211914,-4.9707031 h 1.889648 l 1.030274,2.602539 1.142578,-2.602539 z m 10.005664,1.7089843 q 0,1.0400391 -0.380859,1.6699219 -0.375977,0.62988284 -0.888672,1.02050784 Q 25.841406,0 24.532812,0 h -3.652344 v -6.7675781 h 2.8125 q 0.634766,0 1.083985,0.068359 0.454101,0.063477 0.815429,0.1855468 0.361329,0.1171875 0.615235,0.2685547 0.253906,0.1464844 0.454101,0.3173828 0.34668,0.2832032 0.605469,0.6689453 0.263672,0.3857422 0.415039,0.8935547 0.15625,0.5078125 0.15625,1.103516 z m -2.075195,-0.087891 q 0,-0.8251953 -0.317383,-1.2841797 -0.3125,-0.4638671 -0.756836,-0.6201171 -0.439453,-0.15625 -0.898437,-0.15625 h -0.869141 v 4.008789 h 0.869141 q 0.800781,0 1.386718,-0.3808594 0.585938,-0.3808593 0.585938,-1.5673828 z m 7.744531,1.2890625 h -3.500976 q 0.102539,0.4541016 0.50293,0.7421875 0.40039,0.288086 0.908203,0.288086 0.888672,0 1.96289,-0.4980469 v 1.08886717 q -0.385742,0.20019532 -0.9375,0.36621094 -0.546875,0.16113281 -1.396484,0.16113281 -0.917969,0 -1.5625,-0.34179687 -0.644531,-0.34179687 -0.966797,-0.92773435 -0.317383,-0.5859375 -0.317383,-1.328125 0,-0.7324219 0.317383,-1.3085938 0.322266,-0.5810547 0.966797,-0.9082031 0.644531,-0.3320312 1.5625,-0.3320312 0.605469,0 1.166992,0.2636718 0.566406,0.2587891 0.927735,0.8544922 0.36621,0.5908203 0.36621,1.5283203 z m -1.65039,-0.8691406 q 0,-0.4785156 -0.239258,-0.7617188 -0.234375,-0.2880859 -0.678711,-0.2880859 -0.439453,0 -0.712891,0.2929688 -0.268554,0.2880859 -0.268554,0.7568359 z m 7.715233,0.4101562 q 0,0.4980469 -0.141602,0.9619141 -0.141601,0.4638672 -0.43457,0.83984376 -0.288086,0.37109375 -0.74707,0.59082032 -0.454102,0.21484374 -1.059571,0.21484374 -0.488281,0 -0.771484,-0.10253906 -0.27832,-0.10253906 -0.556641,-0.2734375 V 2.2607422 h -1.757812 v -7.2314453 h 1.757812 v 0.4492187 q 0.263672,-0.2294922 0.581055,-0.3808593 0.322266,-0.15625 0.869141,-0.15625 0.541992,0 1.064453,0.2685546 0.522461,0.2685547 0.859375,0.8398438 0.336914,0.5664062 0.336914,1.4306636 z m -1.850586,0.039063 q 0,-0.4492187 -0.141602,-0.727539 -0.141601,-0.2832031 -0.366211,-0.4052735 -0.224609,-0.1269531 -0.463867,-0.1269531 -0.3125,0 -0.512695,0.1025391 -0.200196,0.097656 -0.375977,0.2490234 v 1.8994141 q 0.09277,0.048828 0.195313,0.1123047 0.107422,0.058594 0.209961,0.102539 0.107422,0.043945 0.224609,0.073242 0.12207,0.029297 0.258789,0.029297 0.415039,0 0.693359,-0.3515625 0.278321,-0.3515625 0.278321,-0.9570312 z m 6.284572,2.19238286 q -0.273437,0.13183594 -0.756836,0.25390625 -0.478515,0.12207031 -0.917968,0.12207031 -1.899414,0 -1.899414,-1.85546872 V -3.75 h -0.795899 v -0.3076172 l 2.358399,-2.4023437 h 0.200195 v 1.4892578 h 1.679687 V -3.75 h -1.679687 v 1.5917969 q 0,0.2783203 0.03418,0.4492187 0.03418,0.1708985 0.190429,0.288086 0.161133,0.1123047 0.483399,0.1123047 0.419922,0 1.103515,-0.3515625 z M 49.685741,0 h -1.757812 v -2.578125 q 0,-0.029297 0,-0.053711 0.0049,-0.029297 0.0049,-0.1171875 0,-0.3564454 -0.151367,-0.6542969 -0.151368,-0.2978516 -0.576172,-0.2978516 -0.332032,0 -0.585938,0.2246094 -0.253906,0.2197266 -0.483398,0.5566406 V 0 h -1.757813 v -6.7675781 h 1.757813 v 2.5097656 q 0.43457,-0.4638672 0.859375,-0.6298828 0.424804,-0.1708984 0.90332,-0.1708984 1.787109,0 1.787109,2.0068359 z" id="text24" style="font-weight:700;font-size:10px;font-family:GillSans-Bold, 'Gill Sans';letter-spacing:-0.04em" transform="matrix(0.88,0,0,1,84.25,192.94)" aria-label="Env Depth" />
    <path d="M 5.9912109,0 H 0.84960938 V -6.7675781 H 2.890625 v 5.1464844 H 5.9912109 Z M 10.567187,2.3486328 H 9.3562498 V -6.8603516 H 10.567187 Z M 22.30625,0 h -2.041016 v -3.9208984 l -1.84082,2.2705078 H 18.263281 L 16.417578,-3.9208984 V 0 h -1.982422 v -6.7675781 h 1.850586 l 2.080078,2.5390625 2.089844,-2.5390625 h 1.850586 z m 5.098438,2.3486328 H 26.19375 v -9.2089844 h 1.210938 z M 38.421093,0 H 36.38496 V -2.6416016 H 33.313671 V 0 h -2.041016 v -6.7675781 h 2.041016 v 2.4853515 h 3.071289 v -2.4853515 h 2.036133 z" id="text25" style="font-weight:700;font-size:10px;font-family:GillSans-Bold, 'Gill Sans';letter-spacing:-0.04em" transform="matrix(0.88,0,0,1,55.72,127.39)" aria-label="L | M | H" />
    <path d="m 21.794297,290.59429 h -1.627188 v 4.09765 h -1.335703 v -4.09765 h -1.627187 v -1.31641 h 4.590078 z m 3.270391,0.33593 -0.426016,1.41016 q -0.262656,-0.30469 -0.531719,-0.30469 -0.243437,0 -0.422812,0.20313 -0.176172,0.19922 -0.339532,0.74218 v 1.71094 h -1.153125 v -3.97656 h 1.153125 v 0.96094 q 0.108907,-0.35547 0.384375,-0.69141 0.275469,-0.33984 0.647032,-0.33984 0.19539,0 0.339531,0.0703 0.147344,0.0703 0.349141,0.21484 z m 1.207577,-1.13281 q 0,0.24609 -0.14414,0.41797 -0.14414,0.17187 -0.342735,0.17187 -0.13453,0 -0.24664,-0.0781 -0.108906,-0.0781 -0.172968,-0.21094 -0.06407,-0.13672 -0.06407,-0.30078 0,-0.24219 0.140938,-0.41797 0.140937,-0.17578 0.342733,-0.17578 0.198594,0 0.342735,0.17578 0.14414,0.17578 0.14414,0.41797 z m 0.09289,4.89453 h -1.156329 v -3.97656 h 1.156329 z m 4.074374,-3.1289 h -0.570156 q 0.301093,0.32031 0.301093,0.78515 0,0.2461 -0.08648,0.47266 -0.08328,0.22656 -0.249845,0.40234 -0.163358,0.17578 -0.406796,0.28906 -0.240234,0.10938 -0.550937,0.13282 -0.400392,0.0195 -0.400392,0.26172 0,0.0937 0.05125,0.13671 0.05125,0.043 0.160157,0.0664 0.11211,0.0195 0.374766,0.0469 0.29789,0.0312 0.55414,0.10937 0.25625,0.0781 0.477266,0.32813 0.221016,0.25 0.221016,0.71484 0,0.37109 -0.166563,0.65625 -0.163359,0.28516 -0.531719,0.44531 -0.368359,0.16016 -0.97375,0.16016 -0.87125,0 -1.28125,-0.28516 -0.406796,-0.28515 -0.406796,-0.76172 0,-0.1289 0.05125,-0.29687 0.05445,-0.16797 0.224218,-0.32422 0.172969,-0.15625 0.499688,-0.21094 -0.115313,-0.0508 -0.198594,-0.19531 -0.08328,-0.14844 -0.08328,-0.30859 0,-0.20704 0.115312,-0.41016 0.118515,-0.20313 0.381172,-0.26172 -0.365157,-0.11719 -0.631015,-0.44141 -0.26586,-0.32421 -0.26586,-0.83984 0,-0.39062 0.121718,-0.68359 0.124923,-0.29297 0.342735,-0.47657 0.217813,-0.18359 0.506094,-0.26953 0.288281,-0.0898 0.631016,-0.0898 h 1.790546 z m -1.274843,0.67187 q 0,-0.30078 -0.169766,-0.48047 -0.166562,-0.18359 -0.374765,-0.18359 -0.26586,0 -0.41961,0.21875 -0.150545,0.21875 -0.150545,0.46094 0,0.16796 0.06407,0.3125 0.06726,0.14453 0.185781,0.23437 0.121719,0.0859 0.288281,0.0859 0.249844,0 0.413203,-0.19141 0.16336,-0.1914 0.16336,-0.45703 z m 0.230625,3.19922 q 0,-0.26172 -0.230625,-0.33984 -0.227423,-0.0742 -0.47086,-0.0742 -0.40039,0 -0.579765,0.10156 -0.176173,0.10547 -0.176173,0.33203 0,0.44531 0.73672,0.44531 0.329922,0 0.525312,-0.11718 0.195391,-0.11329 0.195391,-0.34766 z m 4.737422,-3.87109 h -0.570157 q 0.301094,0.32031 0.301094,0.78515 0,0.2461 -0.08648,0.47266 -0.08328,0.22656 -0.249845,0.40234 -0.163358,0.17578 -0.406796,0.28906 -0.240234,0.10938 -0.550937,0.13282 -0.400392,0.0195 -0.400392,0.26172 0,0.0937 0.05125,0.13671 0.05125,0.043 0.160157,0.0664 0.11211,0.0195 0.374765,0.0469 0.297891,0.0312 0.554141,0.10937 0.25625,0.0781 0.477266,0.32813 0.221016,0.25 0.221016,0.71484 0,0.37109 -0.166563,0.65625 -0.16336,0.28516 -0.531719,0.44531 -0.368359,0.16016 -0.97375,0.16016 -0.87125,0 -1.28125,-0.28516 -0.406796,-0.28515 -0.406796,-0.76172 0,-0.1289 0.05125,-0.29687 0.05446,-0.16797 0.224218,-0.32422 0.172969,-0.15625 0.499687,-0.21094 -0.115312,-0.0508 -0.198593,-0.19531 -0.08328,-0.14844 -0.08328,-0.30859 0,-0.20704 0.115313,-0.41016 0.118515,-0.20313 0.381172,-0.26172 -0.365157,-0.11719 -0.631015,-0.44141 -0.26586,-0.32421 -0.26586,-0.83984 0,-0.39062 0.121718,-0.68359 0.124922,-0.29297 0.342735,-0.47657 0.217812,-0.18359 0.506094,-0.26953 0.288281,-0.0898 0.631016,-0.0898 h 1.790547 z m -1.274845,0.67187 q 0,-0.30078 -0.169765,-0.48047 -0.166562,-0.18359 -0.374765,-0.18359 -0.26586,0 -0.41961,0.21875 -0.150547,0.21875 -0.150547,0.46094 0,0.16796 0.06407,0.3125 0.06726,0.14453 0.185781,0.23437 0.121719,0.0859 0.288281,0.0859 0.249844,0 0.413203,-0.19141 0.16336,-0.1914 0.16336,-0.45703 z m 0.230625,3.19922 q 0,-0.26172 -0.230625,-0.33984 -0.227422,-0.0742 -0.470859,-0.0742 -0.400391,0 -0.579766,0.10156 -0.176172,0.10547 -0.176172,0.33203 0,0.44531 0.73672,0.44531 0.329922,0 0.525312,-0.11718 0.19539,-0.11329 0.19539,-0.34766 z M 37.89,293.0435 h -2.29664 q 0.06726,0.36329 0.329921,0.59375 0.262657,0.23047 0.595782,0.23047 0.582968,0 1.287655,-0.39843 v 0.87109 q -0.253046,0.16016 -0.615,0.29297 -0.35875,0.1289 -0.916093,0.1289 -0.602188,0 -1.025,-0.27343 -0.422813,-0.27344 -0.634219,-0.74219 -0.208203,-0.46875 -0.208203,-1.0625 0,-0.58594 0.208203,-1.04688 0.211406,-0.46484 0.634219,-0.72656 0.422812,-0.26562 1.025,-0.26562 0.397187,0 0.765547,0.21093 0.371563,0.20704 0.608593,0.6836 0.240235,0.47265 0.240235,1.22265 z m -1.082657,-0.69531 q 0,-0.38281 -0.156953,-0.60937 -0.15375,-0.23047 -0.445234,-0.23047 -0.288281,0 -0.467656,0.23437 -0.176172,0.23047 -0.176172,0.60547 z m 4.516407,-1.41797 -0.426015,1.41016 q -0.262657,-0.30469 -0.53172,-0.30469 -0.243437,0 -0.422812,0.20313 -0.176172,0.19922 -0.339531,0.74218 v 1.71094 h -1.153125 v -3.97656 h 1.153125 v 0.96094 q 0.108906,-0.35547 0.384375,-0.69141 0.275468,-0.33984 0.647031,-0.33984 0.19539,0 0.339532,0.0703 0.147343,0.0703 0.34914,0.21484 z" id="text26" style="font-weight:700;font-size:8px;font-family:GillSans-Bold, 'Gill Sans';stroke-width:0.905538" aria-label="Trigger" />
    <path d="m 5.3671875,-3.7109375 q 0,0.3007812 -0.1054688,0.5898437 -0.1015625,0.2851563 -0.3320312,0.5351563 -0.2304688,0.2460937 -0.625,0.4023437 Q 3.9140625,-2.03125 3.3828125,-2.03125 H 2.3125 V 0 H 0.6796875 v -5.4140625 h 2.703125 q 0.53125,0 0.921875,0.15625 0.3945312,0.15625 0.625,0.40625 0.2304687,0.25 0.3320312,0.5429688 0.1054688,0.2929687 0.1054688,0.5976562 z m -1.6640625,0.00781 q 0,-0.3867187 -0.2304687,-0.5273437 Q 3.2460938,-4.375 2.65625,-4.375 H 2.3125 v 1.3046875 h 0.3515625 q 0.40625,0 0.625,-0.050781 0.21875,-0.050781 0.3164063,-0.1875 0.097656,-0.1367187 0.097656,-0.3945312 z m 3.7070312,-1.1914062 q 0,0.2460937 -0.1757812,0.4179687 -0.1757813,0.171875 -0.4179688,0.171875 -0.1640625,0 -0.3007812,-0.078125 -0.1328125,-0.078125 -0.2109375,-0.2109375 -0.078125,-0.1367187 -0.078125,-0.3007812 0,-0.2421875 0.171875,-0.4179688 0.171875,-0.1757812 0.4179687,-0.1757812 0.2421875,0 0.4179688,0.1757812 0.1757812,0.1757813 0.1757812,0.4179688 z M 7.5234375,0 H 6.1132812 v -3.9765625 h 1.4101563 z m 4.1054685,-0.23046875 q -0.21875,0.10546875 -0.605468,0.203125 -0.382813,0.09765625 -0.734375,0.09765625 -1.5195317,0 -1.5195317,-1.484375 V -3 H 8.1328125 v -0.2460938 l 1.8867185,-1.9218749 h 0.160157 v 1.1914062 h 1.34375 V -3 h -1.34375 v 1.2734375 q 0,0.2226563 0.02734,0.359375 0.02734,0.1367188 0.152344,0.2304688 0.128906,0.089844 0.386719,0.089844 0.335937,0 0.882812,-0.28125 z m 4.023438,0.046875 q -0.175781,0.0664063 -0.371094,0.125 -0.195312,0.0546875 -0.441406,0.08984375 -0.242188,0.0390625 -0.53125,0.0390625 -0.652344,0 -1.105469,-0.21875 Q 12.753906,-0.37109375 12.507813,-0.703125 12.265625,-1.0390625 12.171875,-1.3867187 12.078125,-1.734375 12.078125,-2 q 0,-0.265625 0.09375,-0.6132813 0.09766,-0.3476562 0.335938,-0.671875 0.238281,-0.3242187 0.6875,-0.5429687 0.453125,-0.21875 1.113281,-0.21875 0.441406,0 0.71875,0.0625 0.277344,0.0625 0.5625,0.1679687 v 1.1054688 q -0.6875,-0.21875 -1.074219,-0.21875 -0.375,0 -0.667969,0.2265625 Q 13.558594,-2.4765625 13.558594,-2 q 0,0.3164063 0.144531,0.5351563 0.144531,0.2148437 0.367188,0.3164062 0.222656,0.1015625 0.445312,0.1015625 0.210938,0 0.480469,-0.0625 0.269531,-0.0625 0.65625,-0.1796875 z M 20.582031,0 h -1.40625 v -2.0625 q 0,-0.023437 0,-0.042969 0.0039,-0.023437 0.0039,-0.09375 0,-0.2851562 -0.121093,-0.5234375 -0.121094,-0.2382812 -0.460938,-0.2382812 -0.265625,0 -0.46875,0.1796875 -0.203125,0.1757812 -0.386719,0.4453125 V 0 h -1.40625 v -5.4140625 h 1.40625 V -3.40625 q 0.347657,-0.3710938 0.6875,-0.5039063 0.339844,-0.1367187 0.722657,-0.1367187 1.429687,0 1.429687,1.6054687 z" id="text27" style="font-weight:700;font-size:8px;font-family:GillSans-Bold, 'Gill Sans'" transform="matrix(0.82,0,0,1,62.97,253.71)" aria-label="Pitch" />
    <path d="m 21.381094,331.01269 q 0,0.30079 -0.08648,0.58985 -0.08328,0.28515 -0.272265,0.53515 -0.188985,0.2461 -0.5125,0.40235 -0.320313,0.15234 -0.755938,0.15234 H 18.87625 v 2.03125 h -1.338906 v -5.41406 h 2.216562 q 0.435625,0 0.755938,0.15625 0.323515,0.15625 0.5125,0.40625 0.188984,0.25 0.272265,0.54297 0.08648,0.29297 0.08648,0.59765 z m -1.364531,0.008 q 0,-0.38671 -0.188985,-0.52734 -0.185781,-0.14453 -0.669453,-0.14453 H 18.87625 v 1.30469 h 0.288281 q 0.333125,0 0.5125,-0.0508 0.179375,-0.0508 0.259453,-0.1875 0.08008,-0.13672 0.08008,-0.39453 z m 2.40875,2.9336 q 0,0.35156 -0.198594,0.59765 -0.195391,0.24219 -0.483672,0.24219 -0.285078,0 -0.490078,-0.24609 -0.205,-0.2461 -0.205,-0.59375 0,-0.35156 0.205,-0.59375 0.205,-0.2461 0.490078,-0.2461 0.179375,0 0.339531,0.11329 0.16336,0.11328 0.253047,0.30469 0.08969,0.1914 0.08969,0.42187 z m 7.296719,-1.83984 q 0,0.83203 -0.249844,1.33593 -0.246641,0.50391 -0.582969,0.81641 -0.477266,0.45703 -1.335704,0.45703 h -2.395937 v -5.41406 h 1.845 q 0.416407,0 0.711094,0.0547 0.297891,0.0508 0.534922,0.14843 0.237031,0.0937 0.403594,0.21485 0.166562,0.11719 0.29789,0.2539 0.227422,0.22657 0.397187,0.53516 0.17297,0.30859 0.272267,0.71484 0.1025,0.40625 0.1025,0.88282 z m -1.361329,-0.0703 q 0,-0.66015 -0.208203,-1.02734 -0.205,-0.37109 -0.496485,-0.49609 -0.28828,-0.125 -0.589375,-0.125 h -0.570155 v 3.20703 h 0.570155 q 0.525313,0 0.909688,-0.30469 0.384375,-0.30469 0.384375,-1.25391 z m 5.342812,1.03125 h -2.29664 q 0.06726,0.36329 0.329922,0.59375 0.262656,0.23047 0.595781,0.23047 0.582969,0 1.287657,-0.39843 v 0.87109 q -0.253048,0.16016 -0.615,0.29297 -0.35875,0.1289 -0.916095,0.1289 -0.602187,0 -1.025,-0.27343 -0.422812,-0.27344 -0.634218,-0.74219 -0.208204,-0.46875 -0.208204,-1.0625 0,-0.58594 0.208204,-1.04688 0.211406,-0.46484 0.634218,-0.72656 0.422813,-0.26562 1.025,-0.26562 0.397188,0 0.765548,0.21093 0.371562,0.20704 0.608593,0.6836 0.240234,0.47265 0.240234,1.22265 z m -1.082655,-0.69531 q 0,-0.38281 -0.156954,-0.60937 -0.15375,-0.23047 -0.445234,-0.23047 -0.288282,0 -0.467657,0.23437 -0.176172,0.23047 -0.176172,0.60547 z m 4.442733,2.16016 q -0.14414,0.0664 -0.304296,0.125 -0.160157,0.0547 -0.361954,0.0898 -0.198593,0.0391 -0.435625,0.0391 -0.534921,0 -0.906483,-0.21875 -0.36836,-0.22265 -0.570157,-0.55468 -0.198593,-0.33594 -0.275468,-0.6836 -0.07688,-0.34765 -0.07688,-0.61328 0,-0.26562 0.07688,-0.61328 0.08008,-0.34766 0.275468,-0.67187 0.19539,-0.32422 0.56375,-0.54297 0.371562,-0.21875 0.91289,-0.21875 0.361954,0 0.589375,0.0625 0.227422,0.0625 0.46125,0.16797 v 1.10546 q -0.56375,-0.21875 -0.880858,-0.21875 -0.3075,0 -0.547735,0.22657 -0.237032,0.22656 -0.237032,0.70312 0,0.31641 0.118517,0.53516 0.118515,0.21484 0.301093,0.3164 0.182578,0.10157 0.365157,0.10157 0.172968,0 0.393983,-0.0625 0.221017,-0.0625 0.538125,-0.17969 z m 3.943047,-0.0156 q -0.253047,0.1211 -0.467655,0.19532 -0.21461,0.0742 -0.515704,0.0742 -0.285078,0 -0.397188,-0.12109 -0.112108,-0.125 -0.160156,-0.30078 -0.185781,0.18359 -0.413202,0.30469 -0.227423,0.11718 -0.595782,0.11718 -0.355547,0 -0.576563,-0.14843 -0.217812,-0.15235 -0.3075,-0.37891 -0.08648,-0.23047 -0.08648,-0.47266 0,-0.36718 0.150547,-0.60546 0.15375,-0.24219 0.41,-0.39454 0.25625,-0.15234 0.679062,-0.3164 0.240235,-0.0937 0.361953,-0.14063 0.124922,-0.0508 0.185782,-0.0781 0.06086,-0.0274 0.128125,-0.0703 0,-0.28907 -0.09609,-0.45313 -0.09609,-0.16406 -0.416406,-0.16406 -0.377969,0 -0.701485,0.20312 -0.323515,0.20313 -0.592577,0.52344 v -1.07812 q 0.214609,-0.1875 0.464452,-0.30469 0.249845,-0.1211 0.52211,-0.17969 0.272265,-0.0586 0.550937,-0.0586 0.707891,0 1.063438,0.33593 0.35875,0.33204 0.35875,0.91797 v 1.53516 q 0,0.21875 0.03203,0.32812 0.03524,0.10547 0.124922,0.10547 0.108907,0 0.294688,-0.11328 z m -1.604765,-0.76172 v -0.9414 q -0.41,0.20312 -0.598985,0.36719 -0.188984,0.16015 -0.188984,0.4375 0,0.19921 0.09289,0.30468 0.09609,0.10547 0.221016,0.10547 0.118515,0 0.233827,-0.0781 0.118516,-0.082 0.240235,-0.19532 z m 5.461328,-3.01562 -2.216563,5.78516 h -1.165937 l 0.896875,-2.32813 -1.29086,-3.45703 h 1.23961 l 0.663047,1.97656 0.752735,-1.97656 z" id="text28" style="font-weight:700;font-size:8px;font-family:GillSans-Bold, 'Gill Sans';stroke-width:0.905538" aria-label="P. Decay" />
    <path d="M 4.7617187,0 H 0.6796875 v -5.4140625 h 4.015625 V -4.328125 H 2.3125 v 0.9921875 h 2.2734375 v 1.0898437 H 2.3125 v 1.1562501 h 2.4492187 z m 5.1093751,0 h -1.40625 v -2.1445313 q 0,-0.328125 -0.109375,-0.5703125 Q 8.25,-2.9609375 7.8867187,-2.9609375 q -0.171875,0 -0.3046875,0.066406 -0.1289062,0.0625 -0.234375,0.1640625 -0.1015625,0.1015625 -0.171875,0.1953125 -0.070312,0.09375 -0.1445312,0.1992188 V 0 H 5.625 V -3.9765625 H 7.03125 V -3.40625 Q 7.3632812,-3.7617188 7.6953125,-3.9023438 8.03125,-4.046875 8.4414063,-4.046875 q 1.4296875,0 1.4296875,1.7109375 z M 14.90625,-3.9765625 13.097656,0 h -1.039062 l -1.769531,-3.9765625 h 1.511718 l 0.824219,2.0820313 0.914063,-2.0820313 z m 1.535156,3.20703125 q 0,0.3515625 -0.242187,0.59765625 -0.238281,0.2421875 -0.589844,0.2421875 -0.347656,0 -0.597656,-0.24609375 -0.25,-0.24609375 -0.25,-0.59375 0,-0.35156245 0.25,-0.59374995 0.25,-0.2460938 0.597656,-0.2460938 0.21875,0 0.414062,0.1132813 0.199219,0.1132812 0.308594,0.3046875 Q 16.441406,-1 16.441406,-0.76953125 Z M 25.339844,-2.609375 q 0,0.8320313 -0.304688,1.3359375 -0.300781,0.50390625 -0.710937,0.81640625 Q 23.742187,0 22.695312,0 h -2.921875 v -5.4140625 h 2.25 q 0.507813,0 0.867188,0.054687 0.363281,0.050781 0.652344,0.1484375 0.289062,0.09375 0.492187,0.2148438 0.203125,0.1171875 0.363281,0.2539062 0.277344,0.2265625 0.484375,0.5351563 0.210938,0.3085937 0.332032,0.7148437 0.125,0.40625 0.125,0.882813 z m -1.660157,-0.070312 q 0,-0.6601563 -0.253906,-1.0273438 -0.25,-0.3710937 -0.605469,-0.4960937 -0.351562,-0.125 -0.71875,-0.125 H 21.40625 v 3.2070313 h 0.695312 q 0.640625,0 1.109375,-0.3046875 0.46875,-0.3046875 0.46875,-1.2539063 z m 6.515625,1.03125 h -2.800781 q 0.08203,0.3632813 0.402344,0.59375 0.320312,0.23046875 0.726562,0.23046875 0.710938,0 1.570313,-0.39843745 v 0.8710937 q -0.308594,0.16015625 -0.75,0.29296875 -0.4375,0.12890625 -1.117188,0.12890625 -0.734375,0 -1.25,-0.2734375 -0.515625,-0.2734375 -0.773437,-0.7421875 -0.253906,-0.46875 -0.253906,-1.0625 0,-0.5859375 0.253906,-1.046875 0.257812,-0.4648438 0.773437,-0.7265625 0.515625,-0.265625 1.25,-0.265625 0.484375,0 0.933594,0.2109375 0.453125,0.2070312 0.742188,0.6835937 0.292968,0.4726563 0.292968,1.2226563 z M 28.875,-2.34375 q 0,-0.3828125 -0.191406,-0.609375 -0.1875,-0.2304688 -0.542969,-0.2304688 -0.351563,0 -0.570313,0.234375 -0.214843,0.2304688 -0.214843,0.6054688 z m 6.492187,0.328125 q 0,0.3984375 -0.113281,0.7695313 -0.113281,0.3710937 -0.347656,0.67187495 -0.230469,0.296875 -0.597656,0.47265625 -0.363282,0.171875 -0.847657,0.171875 -0.390625,0 -0.617187,-0.08203125 -0.222656,-0.08203125 -0.445313,-0.21875 V 1.8085937 h -1.40625 v -5.7851562 h 1.40625 v 0.359375 q 0.210938,-0.1835938 0.464844,-0.3046875 0.257813,-0.125 0.695313,-0.125 0.433593,0 0.851562,0.2148437 0.417969,0.2148438 0.6875,0.671875 0.269531,0.453125 0.269531,1.1445313 z m -1.480468,0.03125 q 0,-0.359375 -0.113282,-0.5820313 -0.113281,-0.2265625 -0.292968,-0.3242187 -0.179688,-0.1015625 -0.371094,-0.1015625 -0.25,0 -0.410156,0.082031 -0.160157,0.078125 -0.300782,0.1992188 v 1.5195313 q 0.07422,0.039063 0.15625,0.089844 0.08594,0.046875 0.167969,0.082031 0.08594,0.0351562 0.179688,0.0585937 Q 33,-0.9375 33.109375,-0.9375 q 0.332031,0 0.554687,-0.28125 0.222657,-0.28125 0.222657,-0.765625 z m 5.347656,1.75390625 q -0.21875,0.10546875 -0.605469,0.203125 -0.382812,0.09765625 -0.734375,0.09765625 -1.519531,0 -1.519531,-1.484375 V -3 H 35.738281 V -3.2460938 L 37.625,-5.1679687 h 0.160156 v 1.1914062 h 1.34375 V -3 h -1.34375 v 1.2734375 q 0,0.2226563 0.02734,0.359375 0.02734,0.1367188 0.152344,0.2304688 0.128906,0.089844 0.386718,0.089844 0.335938,0 0.882813,-0.28125 z M 44.097656,0 h -1.40625 v -2.0625 q 0,-0.023437 0,-0.042969 0.0039,-0.023437 0.0039,-0.09375 0,-0.2851562 -0.121093,-0.5234375 -0.121094,-0.2382812 -0.460938,-0.2382812 -0.265625,0 -0.46875,0.1796875 -0.203125,0.1757812 -0.386719,0.4453125 V 0 h -1.40625 v -5.4140625 h 1.40625 V -3.40625 q 0.347657,-0.3710938 0.6875,-0.5039063 0.339844,-0.1367187 0.722657,-0.1367187 1.429687,0 1.429687,1.6054687 z" id="text29" style="font-weight:700;font-size:8px;font-family:GillSans-Bold, 'Gill Sans'" transform="matrix(0.82,0,0,1,91.9,294.69)" aria-label="Env. Depth" />
    <path d="m 6.4726562,-2.7109375 q 0,0.7578125 -0.3515625,1.3945313 -0.3476562,0.6367187 -1.0390625,1.0117187 -0.6914062,0.375 -1.6835937,0.375 -1.0039062,0 -1.6992188,-0.390625 Q 1.0039062,-0.7109375 0.6640625,-1.3476562 0.328125,-1.984375 0.328125,-2.7109375 q 0,-0.7304688 0.3359375,-1.3632812 Q 1,-4.7109375 1.6953125,-5.0976562 q 0.6992188,-0.390625 1.703125,-0.390625 0.75,0 1.3359375,0.2226562 0.5898437,0.2226563 0.96875,0.6054688 0.3789062,0.3789062 0.5742187,0.8867187 0.1953125,0.5039062 0.1953125,1.0625 z m -1.6640625,0 q 0,-0.3046875 -0.089844,-0.5546875 -0.089844,-0.2539063 -0.2734375,-0.4375 -0.1796875,-0.1875 -0.4414063,-0.2890625 -0.2617187,-0.1054687 -0.6054687,-0.1054687 -0.65625,0 -1.03125,0.3828124 -0.375,0.3828125 -0.375,1.0039063 0,0.6210937 0.375,1.0078125 0.3789063,0.3828125 1.03125,0.3828125 0.4492188,0 0.765625,-0.1757812 0.3164062,-0.1796875 0.4804687,-0.4921875 0.1640625,-0.3164063 0.1640628,-0.7226563 z M 11.449219,0 h -1.410156 v -0.56640625 q -0.2968755,0.3203125 -0.6250005,0.48046875 -0.3242187,0.15625 -0.78125,0.15625 -0.9023438,0 -1.1679688,-0.5234375 -0.265625,-0.52734375 -0.265625,-1.1875 V -3.9765625 H 8.609375 v 2.1484375 q 0,0.3242188 0.1054688,0.5703125 0.109375,0.2421875 0.46875,0.2421875 0.3085937,0 0.4882812,-0.1757812 0.1796875,-0.1757813 0.367188,-0.4492188 v -2.3359375 h 1.410156 z m 4.035156,-0.23046875 q -0.21875,0.10546875 -0.605469,0.203125 -0.382812,0.09765625 -0.734375,0.09765625 -1.519531,0 -1.519531,-1.484375 V -3 H 11.988281 V -3.2460938 L 13.875,-5.1679687 h 0.160156 v 1.1914062 h 1.34375 V -3 h -1.34375 v 1.2734375 q 0,0.2226563 0.02734,0.359375 0.02734,0.1367188 0.152344,0.2304688 0.128906,0.089844 0.386719,0.089844 0.335937,0 0.882812,-0.28125 z" id="text30" style="font-weight:700;font-size:8px;font-family:GillSans-Bold, 'Gill Sans';fill:#ffffff" transform="matrix(0.82,0,0,1,108.24,335.63)" aria-label="Out" />
    <g id="g39">
      <path d="m 115.27,40.28 1.13,-1.95 c -2.75,-1.43 -5.84,-2.3 -9.12,-2.44 v 2.26 c 2.87,0.14 5.57,0.89 7.99,2.14 z" id="path30" />
      <path d="M 122.85,47.13 124.8,46 c -1.72,-2.68 -4,-4.96 -6.68,-6.68 l -1.13,1.95 c 2.34,1.52 4.33,3.51 5.85,5.85 z" id="path31" />
      <path d="m 95.54,41.28 -1.13,-1.95 c -2.68,1.72 -4.96,4 -6.68,6.68 l 1.95,1.13 c 1.52,-2.34 3.51,-4.33 5.85,-5.85 z" id="path32" />
      <path d="m 125.99,56.86 h 2.26 c -0.15,-3.28 -1.01,-6.37 -2.44,-9.12 l -1.95,1.13 c 1.24,2.42 1.99,5.13 2.14,8 z" id="path33" />
      <path d="m 105.27,38.14 v -2.26 c -3.28,0.15 -6.37,1.01 -9.12,2.44 l 1.13,1.95 c 2.42,-1.24 5.13,-1.99 8,-2.14 z" id="path34" />
      <path d="m 89.69,68.59 -1.95,1.13 c 1.72,2.68 4,4.96 6.68,6.68 l 1.13,-1.95 C 93.21,72.93 91.22,70.94 89.7,68.6 Z" id="path35" />
      <path d="m 117,74.44 1.13,1.95 c 2.68,-1.72 4.96,-4 6.68,-6.68 l -1.95,-1.13 c -1.52,2.34 -3.51,4.33 -5.85,5.85 z" id="path36" />
      <path d="m 125.99,58.86 c -0.14,2.87 -0.89,5.57 -2.14,8 l 1.95,1.13 c 1.43,-2.75 2.3,-5.84 2.44,-9.12 h -2.26 z" id="path37" />
      <path d="m 86.55,58.86 h -2.26 c 0.15,3.28 1.01,6.37 2.44,9.12 l 1.95,-1.13 c -1.24,-2.42 -1.99,-5.13 -2.14,-8 z" id="path38" />
      <path d="m 88.69,48.86 -1.95,-1.13 c -1.43,2.75 -2.3,5.84 -2.44,9.12 h 2.26 c 0.14,-2.87 0.89,-5.57 2.14,-8 z" id="path39" />
    </g>
    <path d="M 8.28125,0 H 6.1914062 L 5.6396484,-1.3720703 H 2.7001953 L 2.1386719,0 H 0.04882812 L 3.0419922,-6.7675781 H 5.2978516 Z M 5.1708984,-2.5488281 4.1796875,-5.0195312 3.1787109,-2.5488281 Z M 17.349023,0 h -1.757812 v -2.6513672 q 0,-0.5273437 -0.175781,-0.7861328 -0.170899,-0.2636719 -0.546875,-0.2636719 -0.366211,0 -0.600586,0.2246094 -0.234375,0.2197266 -0.46875,0.5566406 V 0 h -1.757813 v -2.6513672 q 0,-0.5029297 -0.161133,-0.7763672 -0.161132,-0.2734375 -0.571289,-0.2734375 -0.195312,0 -0.361328,0.078125 -0.161133,0.078125 -0.263672,0.1757813 -0.102539,0.097656 -0.249023,0.2880859 -0.146485,0.1904297 -0.185547,0.2392578 V 0 H 8.4916015 v -4.9707031 h 1.7578125 v 0.7128906 q 0.395508,-0.4199219 0.805664,-0.6103516 0.410156,-0.1904296 0.947266,-0.1904296 0.253906,0 0.483398,0.048828 0.229492,0.043945 0.449219,0.15625 0.224609,0.1123047 0.405273,0.3076172 0.180664,0.1953125 0.288086,0.4541015 0.424805,-0.4785156 0.878906,-0.7226562 0.458985,-0.2441406 1.054688,-0.2441406 0.595703,0 0.996094,0.2392578 0.405273,0.2392578 0.595703,0.6933593 0.195312,0.4492188 0.195312,1.09375 z m 6.103907,-2.5195313 q 0,0.4980469 -0.141601,0.9619141 -0.141602,0.4638672 -0.43457,0.83984376 -0.288086,0.37109375 -0.747071,0.59082032 -0.454101,0.21484374 -1.05957,0.21484374 -0.488281,0 -0.771484,-0.10253906 -0.278321,-0.10253906 -0.556641,-0.2734375 V 2.2607422 H 17.98418 v -7.2314453 h 1.757813 v 0.4492187 q 0.263672,-0.2294922 0.581055,-0.3808593 0.322265,-0.15625 0.86914,-0.15625 0.541992,0 1.064453,0.2685546 0.522461,0.2685547 0.859375,0.8398438 0.336914,0.5664062 0.336914,1.430664 z m -1.850585,0.039063 q 0,-0.4492187 -0.141602,-0.727539 -0.141602,-0.2832031 -0.366211,-0.4052735 -0.224609,-0.1269531 -0.463867,-0.1269531 -0.3125,0 -0.512695,0.1025391 -0.200196,0.097656 -0.375977,0.2490234 v 1.8994141 q 0.09277,0.048828 0.195312,0.1123047 0.107422,0.058594 0.209961,0.102539 0.107422,0.043945 0.22461,0.073242 0.12207,0.029297 0.258789,0.029297 0.415039,0 0.693359,-0.3515625 0.278321,-0.3515625 0.278321,-0.9570312 z m 12.178514,-0.78125 q 0,1.0400391 -0.380859,1.6699219 -0.375977,0.62988284 -0.888672,1.02050784 Q 31.783789,0 30.475195,0 h -3.652344 v -6.7675781 h 2.8125 q 0.634766,0 1.083985,0.068359 0.454101,0.063477 0.815429,0.1855468 0.361328,0.1171875 0.615235,0.2685547 0.253906,0.1464844 0.454101,0.3173828 0.34668,0.2832032 0.605469,0.6689453 0.263672,0.3857422 0.415039,0.8935547 0.15625,0.5078125 0.15625,1.1035165 z m -2.075195,-0.087891 q 0,-0.8251953 -0.317383,-1.2841797 -0.3125,-0.4638671 -0.756836,-0.6201171 -0.439453,-0.15625 -0.898438,-0.15625 h -0.86914 v 4.008789 h 0.86914 q 0.800782,0 1.386719,-0.3808594 0.585938,-0.3808593 0.585938,-1.5673828 z m 7.744531,1.2890625 h -3.500976 q 0.102539,0.4541016 0.502929,0.7421875 0.400391,0.288086 0.908204,0.288086 0.888671,0 1.96289,-0.4980469 v 1.08886717 q -0.385742,0.20019532 -0.9375,0.36621094 -0.546875,0.16113281 -1.396484,0.16113281 -0.917969,0 -1.5625,-0.34179687 -0.644531,-0.34179687 -0.966797,-0.92773435 -0.317383,-0.5859375 -0.317383,-1.328125 0,-0.7324219 0.317383,-1.3085938 0.322266,-0.5810547 0.966797,-0.9082031 0.644531,-0.3320312 1.5625,-0.3320312 0.605469,0 1.166992,0.2636718 0.566406,0.2587891 0.927734,0.8544922 0.366211,0.5908203 0.366211,1.5283203 z m -1.65039,-0.8691406 q 0,-0.4785156 -0.239258,-0.7617188 -0.234375,-0.2880859 -0.678711,-0.2880859 -0.439453,0 -0.712891,0.2929688 -0.268554,0.2880859 -0.268554,0.7568359 z m 6.372459,2.70019531 q -0.219726,0.0830078 -0.463867,0.15625 -0.244141,0.06835938 -0.551758,0.11230469 -0.302734,0.04882812 -0.664062,0.04882812 -0.81543,0 -1.381836,-0.27343749 Q 40.549217,-0.46386719 40.2416,-0.87890625 39.938866,-1.2988281 39.821678,-1.7333984 39.704491,-2.1679688 39.704491,-2.5 q 0,-0.3320313 0.117187,-0.7666016 0.12207,-0.4345703 0.419922,-0.8398437 0.297852,-0.4052734 0.859375,-0.6787109 0.566406,-0.2734375 1.391602,-0.2734375 0.551757,0 0.898437,0.078125 0.34668,0.078125 0.703125,0.2099609 v 1.3818359 q -0.859375,-0.2734375 -1.342773,-0.2734375 -0.46875,0 -0.834961,0.2832031 -0.361328,0.2832032 -0.361328,0.8789063 0,0.3955078 0.180664,0.6689453 0.180664,0.2685547 0.458984,0.3955078 0.27832,0.1269532 0.556641,0.1269532 0.263672,0 0.600586,-0.078125 0.336914,-0.078125 0.820312,-0.2246094 z m 5.610745,-0.0195313 q -0.385743,0.15136719 -0.712891,0.24414063 -0.327148,0.09277343 -0.786133,0.09277343 -0.43457,0 -0.605469,-0.15136718 -0.170898,-0.15625 -0.24414,-0.37597657 -0.283203,0.22949219 -0.629883,0.38085938 -0.34668,0.14648437 -0.908203,0.14648437 -0.541992,0 -0.878906,-0.18554687 -0.332032,-0.19042969 -0.46875,-0.47363281 -0.131836,-0.28808594 -0.131836,-0.59082039 0,-0.4589843 0.229492,-0.7568359 0.234375,-0.3027344 0.625,-0.4931641 0.390625,-0.1904297 1.035156,-0.3955078 0.366211,-0.1171875 0.551758,-0.1757812 0.19043,-0.063477 0.283203,-0.097656 0.09277,-0.03418 0.195313,-0.087891 0,-0.3613281 -0.146485,-0.5664063 -0.146484,-0.2050781 -0.634765,-0.2050781 -0.576172,0 -1.069336,0.2539063 -0.493164,0.2539062 -0.903321,0.6542968 v -1.3476562 q 0.327149,-0.234375 0.708008,-0.3808594 0.380859,-0.1513672 0.795899,-0.2246094 0.415039,-0.073242 0.839843,-0.073242 1.079102,0 1.621094,0.4199218 0.546875,0.4150392 0.546875,1.147461 v 1.9189453 q 0,0.2734375 0.04883,0.4101562 0.05371,0.131836 0.19043,0.131836 0.166015,0 0.449219,-0.1416016 z M 47.33672,-1.2011719 v -1.1767578 q -0.625,0.2539063 -0.913086,0.4589844 -0.288086,0.2001953 -0.288086,0.546875 0,0.2490234 0.141601,0.38085936 0.146485,0.13183594 0.336914,0.13183594 0.180664,0 0.356446,-0.0976563 0.180664,-0.1025391 0.366211,-0.2441406 z m 7.925193,-3.7695312 -3.378906,7.2314453 h -1.777344 l 1.367188,-2.91015626 -1.967774,-4.32128904 h 1.889649 L 52.405468,-2.5 53.552929,-4.9707031 Z" id="text39" style="font-weight:700;font-size:10px;font-family:GillSans-Bold, 'Gill Sans';letter-spacing:-0.04em" transform="matrix(0.88,0,0,1,81.96,87.63)" aria-label="Amp Decay" />
    <g id="g49">
      <path d="m 46.72,40.28 1.13,-1.95 C 45.1,36.9 42.01,36.03 38.73,35.89 v 2.26 c 2.87,0.14 5.57,0.89 7.99,2.14 z" id="path40" />
      <path d="M 54.31,47.13 56.26,46 c -1.72,-2.68 -4,-4.96 -6.68,-6.68 l -1.13,1.95 c 2.34,1.52 4.33,3.51 5.85,5.85 z" id="path41" />
      <path d="m 27,41.28 -1.13,-1.95 c -2.68,1.72 -4.96,4 -6.68,6.68 l 1.95,1.13 c 1.52,-2.34 3.51,-4.33 5.85,-5.85 z" id="path42" />
      <path d="m 57.45,56.86 h 2.26 C 59.56,53.58 58.7,50.49 57.27,47.74 l -1.95,1.13 c 1.24,2.42 1.99,5.13 2.14,8 z" id="path43" />
      <path d="m 36.73,38.14 v -2.26 c -3.28,0.15 -6.37,1.01 -9.12,2.44 l 1.13,1.95 c 2.42,-1.24 5.13,-1.99 8,-2.14 z" id="path44" />
      <path d="m 21.15,68.59 -1.95,1.13 c 1.72,2.68 4,4.96 6.68,6.68 l 1.13,-1.95 C 24.67,72.93 22.68,70.94 21.16,68.6 Z" id="path45" />
      <path d="m 48.46,74.44 1.13,1.95 c 2.68,-1.72 4.96,-4 6.68,-6.68 l -1.95,-1.13 c -1.52,2.34 -3.51,4.33 -5.85,5.85 z" id="path46" />
      <path d="m 57.45,58.86 c -0.14,2.87 -0.89,5.57 -2.14,8 l 1.95,1.13 c 1.43,-2.75 2.3,-5.84 2.44,-9.12 h -2.26 z" id="path47" />
      <path d="m 18.01,58.86 h -2.26 c 0.15,3.28 1.01,6.37 2.44,9.12 l 1.95,-1.13 C 18.9,64.43 18.15,61.72 18,58.85 Z" id="path48" />
      <path d="M 20.15,48.86 18.2,47.73 c -1.43,2.75 -2.3,5.84 -2.44,9.12 h 2.26 c 0.14,-2.87 0.89,-5.57 2.14,-8 z" id="path49" />
    </g>
    <path d="m 6.7089844,-4.6386719 q 0,0.3759766 -0.131836,0.7373047 -0.1269531,0.3564453 -0.415039,0.6689453 -0.288086,0.3076172 -0.78125,0.5029297 -0.4882813,0.1904297 -1.1523438,0.1904297 H 2.890625 V 0 H 0.84960938 V -6.7675781 H 4.2285156 q 0.6640625,0 1.1523438,0.1953125 0.493164,0.1953125 0.78125,0.5078125 0.2880859,0.3125 0.415039,0.6787109 0.131836,0.366211 0.131836,0.7470703 z m -2.0800782,0.00977 q 0,-0.4833985 -0.2880859,-0.6591797 Q 4.0576172,-5.46875 3.3203125,-5.46875 H 2.890625 v 1.6308594 h 0.4394531 q 0.5078125,0 0.78125,-0.063477 0.2734375,-0.063477 0.3955078,-0.234375 0.1220703,-0.1708984 0.1220703,-0.493164 z m 4.233789,-1.4892579 q 0,0.3076172 -0.2197265,0.522461 -0.2197266,0.2148437 -0.522461,0.2148437 -0.2050781,0 -0.3759765,-0.097656 -0.1660157,-0.097656 -0.2636719,-0.2636719 -0.097656,-0.1708984 -0.097656,-0.3759766 0,-0.3027343 0.2148438,-0.5224609 0.2148437,-0.2197266 0.5224609,-0.2197266 0.3027344,0 0.522461,0.2197266 0.2197265,0.2197266 0.2197262,0.5224607 z M 9.0042968,0 H 7.2416015 v -4.9707031 h 1.7626953 z m 4.7318362,-0.28808594 q -0.273438,0.13183594 -0.756836,0.25390625 -0.478516,0.12207031 -0.917969,0.12207031 -1.899414,0 -1.899414,-1.85546872 V -3.75 H 9.3660154 v -0.3076172 l 2.3583986,-2.4023437 h 0.200195 v 1.4892578 h 1.679688 V -3.75 h -1.679688 v 1.5917969 q 0,0.2783203 0.03418,0.4492187 0.03418,0.1708985 0.19043,0.288086 0.161132,0.1123047 0.483398,0.1123047 0.419922,0 1.103516,-0.3515625 z m 4.629297,0.0585937 q -0.219727,0.0830078 -0.463867,0.15625 -0.244141,0.06835938 -0.551758,0.11230469 -0.302734,0.04882812 -0.664063,0.04882812 -0.815429,0 -1.381836,-0.27343749 Q 14.742383,-0.46386724 14.434766,-0.8789063 14.132031,-1.2988281 14.014844,-1.7333984 13.897656,-2.1679688 13.897656,-2.5 q 0,-0.3320313 0.117188,-0.7666016 0.12207,-0.4345703 0.419922,-0.8398437 0.297851,-0.4052734 0.859375,-0.6787109 0.566406,-0.2734375 1.391601,-0.2734375 0.551758,0 0.898438,0.078125 0.34668,0.078125 0.703125,0.2099609 v 1.3818359 q -0.859375,-0.2734375 -1.342774,-0.2734375 -0.46875,0 -0.83496,0.2832031 -0.361329,0.2832032 -0.361329,0.8789063 0,0.3955078 0.180664,0.6689453 0.180665,0.2685547 0.458985,0.3955078 0.27832,0.1269532 0.55664,0.1269532 0.263672,0 0.600586,-0.078125 0.336914,-0.078125 0.820313,-0.2246094 z M 24.127539,0 h -1.757813 v -2.578125 q 0,-0.029297 0,-0.053711 0.0049,-0.029297 0.0049,-0.1171875 0,-0.3564454 -0.151367,-0.6542969 -0.151367,-0.2978516 -0.576172,-0.2978516 -0.332031,0 -0.585938,0.2246094 -0.253906,0.2197266 -0.483398,0.5566406 V 0 h -1.757813 v -6.7675781 h 1.757813 v 2.5097656 q 0.43457,-0.4638672 0.859375,-0.6298828 0.424805,-0.1708984 0.90332,-0.1708984 1.78711,0 1.78711,2.0068359 z" id="text49" style="font-weight:700;font-size:10px;font-family:GillSans-Bold, 'Gill Sans';letter-spacing:-0.04em" transform="matrix(0.88,0,0,1,26.98,87.63)" aria-label="Pitch" />
    <g id="g52">
      <path d="m 63.8,18.07 c -0.37,0 -0.71,-0.17 -0.97,-0.47 -0.51,-0.6 -0.52,-1.54 -0.04,-2.16 l 6.97,-8.88 c 0.38,-0.48 1.05,-0.65 1.57,-0.39 0.5,0.25 0.79,0.82 0.79,1.45 v 4.77 l 4.64,-5.85 c 0.38,-0.48 1.01,-0.64 1.53,-0.38 0.5,0.25 0.83,0.81 0.83,1.44 v 8.82 c 0,0.86 -0.61,1.57 -1.36,1.57 -0.75,0 -1.36,-0.7 -1.36,-1.57 v -4.79 l -4.64,5.85 c -0.38,0.48 -1.01,0.64 -1.54,0.38 -0.5,-0.24 -0.83,-0.81 -0.83,-1.44 v -4.67 l -4.61,5.8 c -0.26,0.32 -0.62,0.51 -1,0.51 v 0 z" style="fill:#2cabe1" id="path50" />
      <path d="m 63.8,18.07 c -0.75,0 -1.35,-0.7 -1.35,-1.57 v -4.93 l -2.26,2.84 c -0.5,0.63 -1.44,0.65 -1.97,0.04 -0.51,-0.6 -0.52,-1.53 -0.03,-2.15 L 62.8,6.54 c 0.26,-0.32 0.63,-0.5 1,-0.5 0.18,0 0.37,0.04 0.54,0.12 0.5,0.25 0.82,0.81 0.82,1.44 v 8.89 c 0,0.86 -0.61,1.57 -1.36,1.57 v 0 z" style="fill:#ea2228" id="path51" />
      <path d="m 80.4,18.09 v 0 c -0.35,0 -0.68,-0.15 -0.94,-0.42 -0.76,-0.78 -0.14,-1.84 0.29,-2.3 l 1.95,-2.36 -1.26,-0.02 c -0.56,-0.01 -1.04,-0.4 -1.24,-1 -0.19,-0.56 -0.07,-1.21 0.29,-1.64 l 3.16,-3.83 c 0.23,-0.28 0.55,-0.48 1.13,-0.47 0.33,0 0.67,0.17 0.92,0.4 0.71,0.66 0.29,1.7 -0.07,2.2 l -1.04,1.26 1.26,0.02 c 0.56,0.01 1.04,0.4 1.24,1 0.19,0.56 0.07,1.21 -0.29,1.64 l -4.1,4.97 c -0.35,0.35 -0.65,0.55 -1.3,0.54 v 0 z" style="fill:#00a650" id="path52" />
    </g>
    <g id="text53" style="font-weight:700;font-size:11px;font-family:GillSans-Bold, 'Gill Sans'" transform="matrix(0.82,0,0,1,60.64,357.06)" aria-label="TOM">
      <path style="letter-spacing:-0.06em" d="M 8.0727539,-5.6342773 H 5.3442383 V 0 H 3.1044922 V -5.6342773 H 0.37597656 V -7.4443359 H 8.0727539 Z" id="path60" />
      <path d="m 16.719903,-3.7275391 q 0,1.0419922 -0.483399,1.9174805 -0.478027,0.87548829 -1.428711,1.39111329 -0.950683,0.515625 -2.314941,0.515625 -1.380371,0 -2.336426,-0.53710938 Q 9.2003713,-0.97753906 8.7330861,-1.8530273 8.271172,-2.7285156 8.271172,-3.7275391 q 0,-1.0043945 0.4619141,-1.8745117 0.4619141,-0.8754883 1.4179689,-1.4072265 0.961426,-0.5371094 2.341797,-0.5371094 1.03125,0 1.836914,0.3061523 0.811035,0.3061524 1.332031,0.8325196 0.520996,0.5209961 0.789551,1.2192382 0.268555,0.6928711 0.268555,1.4609375 z m -2.288086,0 q 0,-0.4189453 -0.123536,-0.7626953 -0.123535,-0.3491211 -0.375976,-0.6015625 -0.24707,-0.2578125 -0.606934,-0.3974609 -0.359863,-0.1450195 -0.832519,-0.1450195 -0.902344,0 -1.417969,0.5263671 -0.515625,0.5263672 -0.515625,1.3803711 0,0.8540039 0.515625,1.3857422 0.520996,0.5263672 1.417969,0.5263672 0.617676,0 1.052734,-0.2416992 0.435059,-0.2470703 0.660645,-0.6767578 0.225586,-0.4350586 0.225586,-0.9936524 z M 26.77459,0 H 24.529473 V -4.3129883 L 22.50457,-1.8154297 H 22.327324 L 20.297051,-4.3129883 V 0 h -2.180664 v -7.4443359 h 2.035644 l 2.288086,2.7929687 2.298828,-2.7929687 h 2.035645 z" id="path61" />
    </g>
    <path d="M 6.625,0 H 4.953125 L 4.5117187,-1.0976562 H 2.1601563 L 1.7109375,0 H 0.0390625 L 2.4335938,-5.4140625 H 4.2382812 Z M 4.1367187,-2.0390625 3.34375,-4.015625 2.5429688,-2.0390625 Z m 4.4960938,1.26953125 q 0,0.3515625 -0.2421875,0.59765625 -0.2382812,0.2421875 -0.5898438,0.2421875 -0.3476562,0 -0.5976562,-0.24609375 -0.25,-0.24609375 -0.25,-0.59375 0,-0.35156245 0.25,-0.59374995 0.25,-0.2460938 0.5976562,-0.2460938 0.2187501,0 0.4140626,0.1132813 0.1992187,0.1132812 0.3085937,0.3046875 Q 8.6328125,-1 8.6328125,-0.76953125 Z M 17.53125,-2.609375 q 0,0.8320313 -0.304688,1.3359375 -0.300781,0.50390625 -0.710937,0.81640625 Q 15.933594,0 14.886719,0 h -2.921875 v -5.4140625 h 2.25 q 0.507812,0 0.867187,0.054687 0.363282,0.050781 0.652344,0.1484375 0.289062,0.09375 0.492187,0.2148438 0.203125,0.1171875 0.363282,0.2539062 0.277343,0.2265625 0.484375,0.5351563 0.210937,0.3085937 0.332031,0.7148437 0.125,0.40625 0.125,0.882813 z m -1.660156,-0.070312 q 0,-0.6601563 -0.253906,-1.0273438 -0.25,-0.3710937 -0.605469,-0.4960937 -0.351563,-0.125 -0.71875,-0.125 h -0.695313 v 3.2070313 h 0.695313 q 0.640625,0 1.109375,-0.3046875 0.46875,-0.3046875 0.46875,-1.2539063 z m 6.515625,1.03125 h -2.800782 q 0.08203,0.3632813 0.402344,0.59375 0.320313,0.23046875 0.726563,0.23046875 0.710937,0 1.570312,-0.39843745 v 0.8710937 q -0.308594,0.16015625 -0.75,0.29296875 -0.4375,0.12890625 -1.117187,0.12890625 -0.734375,0 -1.25,-0.2734375 -0.515625,-0.2734375 -0.773438,-0.7421875 -0.253906,-0.46875 -0.253906,-1.0625 0,-0.5859375 0.253906,-1.046875 0.257813,-0.4648438 0.773438,-0.7265625 0.515625,-0.265625 1.25,-0.265625 0.484375,0 0.933593,0.2109375 0.453125,0.2070312 0.742188,0.6835937 0.292969,0.4726563 0.292969,1.2226563 z M 21.066406,-2.34375 q 0,-0.3828125 -0.191406,-0.609375 -0.1875,-0.2304688 -0.542969,-0.2304688 -0.351562,0 -0.570312,0.234375 -0.214844,0.2304688 -0.214844,0.6054688 z m 5.417969,2.16015625 q -0.175781,0.0664063 -0.371094,0.125 -0.195312,0.0546875 -0.441406,0.08984375 -0.242188,0.0390625 -0.53125,0.0390625 -0.652344,0 -1.105469,-0.21875 Q 23.585937,-0.37109375 23.339844,-0.703125 23.097656,-1.0390625 23.003906,-1.3867187 22.910156,-1.734375 22.910156,-2 q 0,-0.265625 0.09375,-0.6132813 0.09766,-0.3476562 0.335938,-0.671875 0.238281,-0.3242187 0.6875,-0.5429687 0.453125,-0.21875 1.113281,-0.21875 0.441406,0 0.71875,0.0625 0.277344,0.0625 0.5625,0.1679687 v 1.1054688 q -0.6875,-0.21875 -1.074219,-0.21875 -0.375,0 -0.667969,0.2265625 Q 24.390625,-2.4765625 24.390625,-2 q 0,0.3164063 0.144531,0.5351563 0.144531,0.2148437 0.367188,0.3164062 0.222656,0.1015625 0.445312,0.1015625 0.210938,0 0.480469,-0.0625 0.269531,-0.0625 0.65625,-0.1796875 z m 4.808594,-0.015625 q -0.308594,0.12109375 -0.570313,0.1953125 -0.261719,0.07421875 -0.628906,0.07421875 -0.347656,0 -0.484375,-0.12109375 -0.136719,-0.125 -0.195313,-0.30078125 -0.226562,0.18359375 -0.503906,0.3046875 -0.277344,0.1171875 -0.726562,0.1171875 -0.433594,0 -0.703125,-0.1484375 -0.265625,-0.15234375 -0.375,-0.37890625 Q 27,-0.6875 27,-0.9296875 q 0,-0.3671875 0.183594,-0.6054687 0.1875,-0.2421875 0.5,-0.3945313 0.3125,-0.1523438 0.828125,-0.3164063 0.292968,-0.09375 0.441406,-0.140625 0.152344,-0.050781 0.226562,-0.078125 0.07422,-0.027344 0.15625,-0.070312 0,-0.2890625 -0.117187,-0.453125 -0.117188,-0.1640625 -0.507813,-0.1640625 -0.460937,0 -0.855468,0.203125 -0.394532,0.203125 -0.722657,0.5234375 v -1.078125 q 0.261719,-0.1875 0.566407,-0.3046875 0.304687,-0.1210937 0.636718,-0.1796875 0.332032,-0.058594 0.671875,-0.058594 0.863282,0 1.296875,0.3359375 0.4375,0.3320312 0.4375,0.9179687 v 1.5351563 q 0,0.21875 0.03906,0.328125 0.04297,0.10546875 0.152344,0.10546875 0.132812,0 0.359375,-0.11328125 z M 29.335937,-0.9609375 v -0.9414062 q -0.5,0.203125 -0.730468,0.3671875 Q 28.375,-1.375 28.375,-1.0976562 q 0,0.1992187 0.113281,0.30468745 0.117188,0.10546875 0.269531,0.10546875 0.144532,0 0.285157,-0.078125 0.144531,-0.0820313 0.292968,-0.1953125 z m 6.660157,-3.015625 -2.703125,5.7851562 h -1.421875 l 1.09375,-2.32812495 -1.574219,-3.45703125 h 1.511719 L 33.710937,-2 34.628906,-3.9765625 Z" id="text54" style="font-weight:700;font-size:8px;font-family:GillSans-Bold, 'Gill Sans'" transform="matrix(0.82,0,0,1,99.15,253.77)" aria-label="A. Decay" />
    <path style="fill:none;stroke:#000000;stroke-width:1.88976;stroke-dasharray:none;stroke-opacity:1" d="m 39.200211,308.20418 v 57.70631" id="path24" transform="scale(0.74999597)" />
  </g>
  <g /></svg>