<?xml version="1.0" encoding="utf-8"?>
<!-- Generator: Adobe Illustrator 28.7.1, SVG Export Plug-In . SVG Version: 9.03 Build 54978)  -->
<svg version="1.0"
	 id="svg93084" xmlns:inkscape="http://www.inkscape.org/namespaces/inkscape" xmlns:sodipodi="http://sodipodi.sourceforge.net/DTD/sodipodi-0.dtd" xmlns:dc="http://purl.org/dc/elements/1.1/" xmlns:rdf="http://www.w3.org/1999/02/22-rdf-syntax-ns#" xmlns:svg="http://www.w3.org/2000/svg" xmlns:cc="http://creativecommons.org/ns#" inkscape:version="0.92.4 5da689c313, 2019-01-14"
	 xmlns="http://www.w3.org/2000/svg" xmlns:xlink="http://www.w3.org/1999/xlink" x="0px" y="0px" width="90.13565px"
	 height="380px" viewBox="0 0 90.13565 380" enable-background="new 0 0 90.13565 380" xml:space="preserve">
<sodipodi:namedview  bordercolor="#666666" borderopacity="1.0" fit-margin-bottom="0" fit-margin-left="0" fit-margin-right="0" fit-margin-top="0" id="base" inkscape:bbox-nodes="true" inkscape:bbox-paths="true" inkscape:current-layer="layer1" inkscape:cx="-44.706088" inkscape:cy="208.37722" inkscape:document-units="mm" inkscape:pageopacity="0.0" inkscape:pageshadow="2" inkscape:snap-bbox="true" inkscape:window-height="882" inkscape:window-maximized="0" inkscape:window-width="1600" inkscape:window-x="0" inkscape:window-y="18" inkscape:zoom="1.979899" pagecolor="#CBCBCB" showgrid="false" units="mm">
	</sodipodi:namedview>
<g id="layer1" transform="translate(-92.86119,-70.97636)" inkscape:groupmode="layer" inkscape:label="Layer 1">
	
		<linearGradient id="path6336_00000017487070019820442480000006543100876467212682_" gradientUnits="userSpaceOnUse" x1="137.92943" y1="70.9753" x2="137.92943" y2="450.97531">
		<stop  offset="0" style="stop-color:#202020"/>
		<stop  offset="1" style="stop-color:#202020"/>
	</linearGradient>
	
		<path id="path6336" inkscape:connector-curvature="0" fill="url(#path6336_00000017487070019820442480000006543100876467212682_)" d="
		M92.86227,70.9753h90.13433v380H92.86227V70.9753z"/>
	<path id="path6338" inkscape:connector-curvature="0" fill="#EFF000" fill-opacity="0" d="M182.9966,70.97634H92.86121v379.99896
		h90.13539V70.97634z M182.44472,450.42236H93.41412V71.52822h89.03061L182.44472,450.42236z"/>
	<g id="g7078" transform="matrix(0.35277777,0,0,-0.35277777,102.42514,110.4843)">
		
			<path id="path7080" inkscape:connector-curvature="0" fill="none" stroke="#CBCBCB" stroke-width="1.04323" stroke-linecap="round" stroke-linejoin="round" d="
			M51.69919-217.53784h95.80725"/>
	</g>
	<g id="g7082" transform="matrix(0.35277777,0,0,-0.35277777,102.42514,124.48432)">
		
			<path id="path7084" inkscape:connector-curvature="0" fill="none" stroke="#CBCBCB" stroke-width="1.04323" stroke-linecap="round" stroke-linejoin="round" d="
			M51.69919-295.20929h95.80725"/>
	</g>
	<g id="g7086" transform="matrix(0.35277777,0,0,-0.35277777,96.600705,135.59869)">
		
			<path id="path7088" inkscape:connector-curvature="0" fill="none" stroke="#CBCBCB" stroke-width="1.04323" stroke-linecap="round" stroke-linejoin="round" d="
			M20.74673-358.52203h192.80922"/>
	</g>
	<g id="g7090" transform="matrix(0.35277777,0,0,-0.35277777,102.42514,152.4845)">
		
			<path id="path7092" inkscape:connector-curvature="0" fill="none" stroke="#CBCBCB" stroke-width="1.04323" stroke-linecap="round" stroke-linejoin="round" d="
			M51.69919-450.55325h95.80725"/>
	</g>
	<g id="g7094" transform="matrix(0.35277777,0,0,-0.35277777,106.81645,180.48433)">
		<path id="path7096" inkscape:connector-curvature="0" fill="#CBCBCB" d="M76.06202-605.89508
			c0-26.45807-21.45446-47.90662-47.90955-47.90662c-26.44917,0-47.90363,21.44855-47.90363,47.90662
			c0,26.45801,21.45446,47.90656,47.90363,47.90656C54.60756-557.98853,76.06202-579.43707,76.06202-605.89508"/>
	</g>
	<g id="g7098" transform="matrix(0.35277777,0,0,-0.35277777,102.42514,166.48413)">
		
			<path id="path7100" inkscape:connector-curvature="0" fill="none" stroke="#CBCBCB" stroke-width="1.04323" stroke-linecap="round" stroke-linejoin="round" d="
			M51.69919-528.22272h95.80725"/>
	</g>
	<g id="g7102" transform="matrix(0.35277777,0,0,-0.35277777,102.42514,180.48398)">
		
			<path id="path7104" inkscape:connector-curvature="0" fill="none" stroke="#CBCBCB" stroke-width="1.04323" stroke-linecap="round" stroke-linejoin="round" d="
			M51.69919-605.89319h95.80725"/>
	</g>
	<g id="g7106" transform="matrix(0.35277777,0,0,-0.35277777,106.81645,166.48449)">
		<path id="path7108" inkscape:connector-curvature="0" fill="#CBCBCB" d="M76.06202-528.22473
			c0-26.45807-21.45446-47.90662-47.90955-47.90662c-26.44917,0-47.90363,21.44855-47.90363,47.90662
			c0,26.45801,21.45446,47.90659,47.90363,47.90659C54.60756-480.31815,76.06202-501.76672,76.06202-528.22473"/>
	</g>
	<g id="g7110" transform="matrix(0.35277777,0,0,-0.35277777,106.81645,124.48481)">
		<path id="path7112" inkscape:connector-curvature="0" fill="#CBCBCB" d="M76.06202-295.21207
			c0-26.45801-21.45446-47.90659-47.90955-47.90659c-26.44917,0-47.90363,21.44855-47.90363,47.90659
			s21.45446,47.9066,47.90363,47.9066C54.60756-247.30547,76.06202-268.75403,76.06202-295.21207"/>
	</g>
	<g id="g7114" transform="matrix(0.35277777,0,0,-0.35277777,106.81645,110.48482)">
		<path id="path7116" inkscape:connector-curvature="0" fill="#CBCBCB" d="M76.06202-217.54071
			c0-26.45802-21.45446-47.90659-47.90955-47.90659c-26.44917,0-47.90363,21.44855-47.90363,47.90659
			s21.45446,47.90659,47.90363,47.90659C54.60756-169.63412,76.06202-191.08267,76.06202-217.54071"/>
	</g>
	<g id="g7118" transform="matrix(0.35277777,0,0,-0.35277777,98.25347,85.771436)">
		<path id="path7120" inkscape:connector-curvature="0" fill="#CBCBCB" d="M29.91619-82.08257h1.84529v-11.30536h6.73945v-1.62942
			h-8.58474V-82.08257z"/>
	</g>
	<g id="g7122" transform="matrix(0.35277777,0,0,-0.35277777,100.08678,87.142755)">
		<path id="path7124" inkscape:connector-curvature="0" fill="#CBCBCB" d="M40.0873-89.69043
			c1.15331,0,2.08187,0.22475,2.71175,0.89899c0.63284,0.6772,0.98179,1.81277,0.98179,3.6758v0.90786
			c0,1.84825-0.35782,2.98973-0.99657,3.6758c-0.64171,0.68311-1.57914,0.89899-2.73245,0.89899
			c-1.14148,0-2.07004-0.207-2.69992-0.88124c-0.63284-0.6772-0.98771-1.81277-0.98771-3.65805v-0.91082
			c0-1.86008,0.35487-3.00451,1.00249-3.68762C38.01726-89.46568,38.94286-89.69043,40.0873-89.69043 M40.05181-91.32871
			c-1.07346,0-2.05821,0.12125-2.89214,0.49385c-0.83984,0.3726-1.52296,0.99657-2.00202,1.9754
			c-0.47611,0.97884-0.74226,2.33915-0.74226,4.18443c0,1.84529,0.26615,3.21448,0.75113,4.20218
			c0.48498,0.9877,1.17696,1.61167,2.01976,1.99315c0.83984,0.37261,1.82755,0.50272,2.90101,0.50272
			c1.07346,0,2.06413-0.12124,2.90397-0.49385c0.83097-0.3726,1.51704-0.99657,1.99907-1.9754
			c0.47906-0.97884,0.74817-2.33914,0.74817-4.18443s-0.2691-3.2056-0.75704-4.19331
			c-0.48202-0.99066-1.17696-1.62054-2.01681-1.99315C42.12481-91.1986,41.12823-91.32871,40.05181-91.32871"/>
	</g>
	<g id="g7126" transform="matrix(0.35277777,0,0,-0.35277777,101.6135,87.334983)">
		<path id="path7128" inkscape:connector-curvature="0" fill="#CBCBCB" d="M48.55751-90.75697
			c-1.04093,0-2.00202,0.08576-2.79751,0.42583c-0.80732,0.33417-1.47268,0.91673-1.93401,1.89557
			c-0.45837,0.97883-0.7186,2.36575-0.7186,4.30567c0,1.93993,0.2691,3.32685,0.73634,4.32343s1.14444,1.58506,1.97541,1.93105
			c0.8221,0.34895,1.80981,0.44358,2.89214,0.44358c0.93743,0,1.75953-0.0621,2.41899-0.15673
			c0.64762-0.09463,1.12669-0.19813,1.3958-0.29572L52.2126-79.493c-0.3726,0.06802-0.90194,0.16264-1.51704,0.24249
			c-0.62101,0.06802-1.32483,0.13011-2.01681,0.13011c-1.28342,0-2.18537-0.2277-2.76498-0.90194
			c-0.58848-0.6772-0.85759-1.80981-0.85759-3.60483v-0.91081c0-1.75658,0.2691-2.90101,0.85759-3.62257
			c0.59144-0.71564,1.49043-0.98475,2.74723-0.98475c1.21245,0,1.9488,0.12125,2.41012,0.23362v4.59253h1.75657v-5.89074
			c-0.3105-0.10646-0.86646-0.23657-1.59393-0.34895C50.49743-90.6712,49.58661-90.75697,48.55751-90.75697"/>
	</g>
	<path id="path7130" inkscape:connector-curvature="0" fill="#CBCBCB" d="M121.12136,114.72853h0.65724v4.56312h-0.65724V114.72853z
		"/>
	<g id="g7132" transform="matrix(0.35277777,0,0,-0.35277777,103.56274,87.334983)">
		<path id="path7134" inkscape:connector-curvature="0" fill="#CBCBCB" d="M59.37178-90.75697
			c-1.04093,0-2.00202,0.08576-2.79751,0.42583c-0.80731,0.33417-1.47564,0.91673-1.93401,1.89557
			c-0.45837,0.97883-0.7186,2.36575-0.7186,4.30567c0,1.93993,0.2691,3.32685,0.72747,4.32343
			c0.46132,0.99657,1.13556,1.58506,1.95175,1.93105c0.81323,0.34895,1.76545,0.44358,2.80638,0.44358
			c0.93447,0,1.69743-0.07097,2.29478-0.1656c0.58848-0.09463,1.02319-0.207,1.29821-0.28684l-0.32825-1.59393
			c-0.37261,0.07098-0.84872,0.15673-1.40171,0.23658c-0.56483,0.06802-1.20654,0.12124-1.89852,0.12124
			c-1.21541,0-2.07891-0.2277-2.64965-0.90194c-0.5737-0.6772-0.85167-1.80981-0.85167-3.60483v-0.91081
			c0-1.75658,0.27798-2.89214,0.86646-3.60187c0.57961-0.70972,1.45494-0.9877,2.67035-0.9877
			c0.75409,0,1.48156,0.06802,2.07004,0.16264c0.57961,0.09759,1.0291,0.18335,1.21245,0.24249l0.33712-1.59393
			C62.27279-90.54996,61.13131-90.75697,59.37178-90.75697"/>
	</g>
	<g id="g7136" transform="matrix(0.35277777,0,0,-0.35277777,99.664263,89.964976)">
		<path id="path7138" inkscape:connector-curvature="0" fill="#CBCBCB" d="M37.74319-105.34801
			c1.15035,0,2.07891,0.22475,2.71175,0.89899c0.63284,0.6772,0.97883,1.81276,0.97883,3.6758v0.90786
			c0,1.84825-0.35782,2.98972-0.99657,3.6758c-0.64171,0.68311-1.57914,0.89899-2.7295,0.89899
			c-1.14148,0-2.07003-0.207-2.70288-0.88125c-0.63284-0.67719-0.9877-1.81276-0.9877-3.65805v-0.91081
			c0-1.86008,0.35486-3.00452,1.00545-3.68763C35.67316-105.12327,36.59876-105.34801,37.74319-105.34801 M37.70771-106.9863
			c-1.07346,0-2.06116,0.12124-2.89214,0.49385c-0.83984,0.3726-1.52591,0.99657-2.00202,1.9754
			c-0.47611,0.97884-0.74522,2.33914-0.74522,4.18443s0.26911,3.21448,0.75113,4.20218
			c0.48794,0.9877,1.17992,1.61167,2.02272,1.99315c0.83689,0.3726,1.82755,0.50272,2.90101,0.50272
			s2.06116-0.12125,2.90101-0.49385c0.83393-0.3726,1.51704-0.99657,2.00202-1.97541
			c0.47611-0.97883,0.74522-2.33914,0.74522-4.18443s-0.26911-3.2056-0.75409-4.1933
			c-0.48498-0.99066-1.17992-1.62054-2.01681-1.99316C39.77774-106.85619,38.78413-106.9863,37.70771-106.9863"/>
	</g>
	<g id="g7140" transform="matrix(0.35277777,0,0,-0.35277777,101.19871,90.157206)">
		<path id="path7142" inkscape:connector-curvature="0" fill="#CBCBCB" d="M46.25624-106.41455
			c-1.69743,0-2.98973,0.21587-3.85619,0.91969c-0.86646,0.70085-1.31004,1.88669-1.31004,3.82661v8.36h1.86599v-8.1944
			c0-1.24793,0.21587-2.05229,0.74226-2.53727c0.52047-0.48499,1.3544-0.65945,2.5905-0.65945
			c1.22132,0,2.05525,0.14786,2.57276,0.6151c0.52047,0.46723,0.72747,1.25681,0.72747,2.54614v8.22988h1.79502v-8.32451
			c0-1.91331-0.42583-3.11098-1.28046-3.82957C49.23413-106.18093,47.95367-106.41455,46.25624-106.41455"/>
	</g>
	<g id="g7144" transform="matrix(0.35277777,0,0,-0.35277777,102.52921,88.792943)">
		<path id="path7146" inkscape:connector-curvature="0" fill="#CBCBCB" d="M53.63783-98.8457h-4.28202v1.67082h10.36201v-1.67082
			h-4.23471v-11.26396h-1.84529V-98.8457z"/>
	</g>
	<g id="g7148" transform="matrix(0.35277777,0,0,-0.35277777,112.79885,89.371216)">
		
			<path id="path7150" inkscape:connector-curvature="0" fill="none" stroke="#CBCBCB" stroke-width="0.52162" stroke-miterlimit="10" d="
			M110.61337-102.05383c0-3.85914-3.12576-6.98785-6.9849-6.98785c-3.85914,0-6.98785,3.12872-6.98785,6.98785
			c0,3.85915,3.12872,6.98786,6.98785,6.98786C107.48762-95.06597,110.61337-98.19469,110.61337-102.05383z"/>
	</g>
	<g id="g7152" transform="matrix(0.35277777,0,0,-0.35277777,112.38493,86.54589)">
		<path id="path7154" inkscape:connector-curvature="0" fill="#CBCBCB" d="M108.31698-86.37906
			c0-1.93992-1.57323-3.51019-3.51611-3.51019c-1.93992,0-3.51315,1.57027-3.51315,3.51019
			c0,1.93993,1.57323,3.51019,3.51315,3.51019C106.74374-82.86887,108.31698-84.43913,108.31698-86.37906"/>
	</g>
	<g id="g7156" transform="matrix(0.35277777,0,0,-0.35277777,112.79885,86.54589)">
		
			<path id="path7158" inkscape:connector-curvature="0" fill="none" stroke="#CBCBCB" stroke-width="0.52162" stroke-miterlimit="10" d="
			M110.61337-86.37906c0-3.85914-3.12576-6.98489-6.9849-6.98489c-3.85914,0-6.98785,3.12576-6.98785,6.98489
			c0,3.85619,3.12872,6.9849,6.98785,6.9849C107.48762-79.39416,110.61337-82.52287,110.61337-86.37906z"/>
	</g>
	<g id="g7160" transform="matrix(0.35277777,0,0,-0.35277777,114.48851,87.081758)">
		<path id="path7162" inkscape:connector-curvature="0" fill="#CBCBCB" d="M119.98753-89.352
			c1.11486,0,1.93992,0.21587,2.47813,0.83984c0.53525,0.6151,0.78661,1.61167,0.78661,3.17012v0.96404
			c0,1.55844-0.26615,2.55502-0.81323,3.16124c-0.54708,0.60623-1.36918,0.81323-2.487,0.81323s-1.93401-0.207-2.46926-0.79549
			c-0.53526-0.59735-0.79549-1.58506-0.79549-3.14645v-0.96109c0-1.55844,0.26023-2.57276,0.81323-3.18786
			C118.04465-89.11838,118.86971-89.352,119.98753-89.352 M119.95205-91.56989c-1.17992,0-2.24451,0.13012-3.13759,0.49385
			c-0.89011,0.36374-1.6028,0.97884-2.08482,1.97541c-0.49385,0.99657-0.77478,2.36575-0.77478,4.24653
			c0,1.86895,0.28093,3.23814,0.77478,4.23471s1.21837,1.62054,2.12031,1.98428c0.89307,0.36374,1.9488,0.48499,3.13759,0.48499
			c1.17696,0,2.24451-0.11238,3.13463-0.47611c0.89307-0.36374,1.6028-0.96996,2.09666-1.95766
			c0.48793-0.9877,0.76295-2.36576,0.76295-4.23766s-0.26615-3.247-0.76888-4.24358
			c-0.50272-1.00545-1.22132-1.62942-2.11735-2.00202C122.19656-91.44865,121.13197-91.56989,119.95205-91.56989"/>
	</g>
	<g id="g7164" transform="matrix(0.35277777,0,0,-0.35277777,116.066,86.575346)">
		<path id="path7166" inkscape:connector-curvature="0" fill="#CBCBCB" d="M128.73941-86.54247
			c0.70085,0,1.24498,0.08576,1.61758,0.41697c0.37556,0.32825,0.56482,0.89011,0.56482,1.88669
			c0,1.00545-0.21587,1.57619-0.59735,1.89852c-0.39035,0.31937-0.95517,0.39035-1.62054,0.39035h-2.55502v-4.59253H128.73941z
			 M134.37878-92.78807h-2.98087l-2.78271,4.1312h-2.4663v-4.1312h-2.59051v12.98505h5.18102
			c1.6028,0,2.80638-0.18926,3.60187-0.83098c0.79843-0.64171,1.18878-1.75953,1.18878-3.56934
			c0-1.27455-0.19812-2.14101-0.57961-2.74723c-0.39035-0.60622-0.96996-0.95222-1.72404-1.13261L134.37878-92.78807z"/>
	</g>
	<g id="g7168" transform="matrix(0.35277777,0,0,-0.35277777,113.84046,88.600715)">
		<path id="path7170" inkscape:connector-curvature="0" fill="#CBCBCB" d="M116.39219-97.77916h1.80981l6.49696-9.61681v9.61681
			h1.77728v-12.93478h-1.62054l-6.68622,9.88591v-9.88591h-1.77728V-97.77916z"/>
	</g>
	<g id="g7172" transform="matrix(0.35277777,0,0,-0.35277777,115.98281,89.972209)">
		<path id="path7174" inkscape:connector-curvature="0" fill="#CBCBCB" d="M128.27786-105.38815
			c1.15331,0,2.07892,0.22475,2.71175,0.90194c0.63284,0.67424,0.9818,1.80981,0.9818,3.67284v0.90786
			c0,1.84825-0.35782,2.98973-0.99953,3.6758c-0.64172,0.68311-1.57619,0.89899-2.72655,0.89899
			c-1.14443,0-2.07003-0.207-2.70583-0.88124c-0.62988-0.6772-0.98771-1.81276-0.98771-3.65805v-0.90786
			c0-1.86304,0.35783-3.00747,1.00841-3.69058C126.20783-105.16341,127.13639-105.38815,128.27786-105.38815 M128.24533-107.02644
			c-1.07642,0-2.06412,0.12125-2.89509,0.49385c-0.83984,0.3726-1.52296,0.99657-2.00202,1.97541
			c-0.47611,0.97883-0.74226,2.33914-0.74226,4.18443s0.26614,3.21447,0.75113,4.20217
			c0.48498,0.98771,1.17992,1.61167,2.01976,1.99316c0.83984,0.3726,1.82755,0.50272,2.90101,0.50272
			c1.07642,0,2.06413-0.12125,2.90398-0.49386c0.83096-0.3726,1.51703-0.99657,1.99905-1.9754
			c0.47612-0.97884,0.74817-2.33914,0.74817-4.18443s-0.27205-3.2056-0.75407-4.19331
			c-0.48795-0.9877-1.17993-1.62054-2.01978-1.99315C130.31537-106.89632,129.3188-107.02644,128.24533-107.02644"/>
	</g>
	<g id="g7176" transform="matrix(0.35277777,0,0,-0.35277777,117.48762,89.4048)">
		<path id="path7178" inkscape:connector-curvature="0" fill="#CBCBCB" d="M136.62645-102.2402
			c0.83394,0,1.50818,0.06802,1.97542,0.42584c0.47018,0.34599,0.73042,0.9877,0.73042,2.12918
			c0,1.15331-0.28093,1.81276-0.76295,2.16763c-0.48795,0.35486-1.17105,0.42287-1.9754,0.42287h-2.8951v-5.14552H136.62645z
			 M141.84296-108.43552h-2.13806l-3.02521,4.61027h-2.98085v-4.61027h-1.84529v12.93478h4.7729
			c1.53479,0,2.67035-0.24249,3.43332-0.87533c0.75407-0.62989,1.11485-1.67082,1.11485-3.27362
			c0-1.22428-0.22475-2.08778-0.65649-2.69401c-0.43471-0.60622-1.07346-0.96109-1.89851-1.14443L141.84296-108.43552z"/>
	</g>
	<g id="g7180" transform="matrix(0.35277777,0,0,-0.35277777,102.42514,96.484275)">
		
			<path id="path7182" inkscape:connector-curvature="0" fill="none" stroke="#CBCBCB" stroke-width="1.04323" stroke-linecap="round" stroke-linejoin="round" d="
			M51.69919-139.86623h95.80725"/>
	</g>
	<g id="g7184" transform="matrix(0.35277777,0,0,-0.35277777,101.30944,80.416693)">
		<path id="path7186" inkscape:connector-curvature="0" fill="#CBCBCB" d="M46.87059-52.37456
			c0.90786,0,1.73292,0.15969,2.31844,0.6358c0.5737,0.47611,0.94039,1.28638,0.94039,2.57276s-0.36669,2.11144-0.94039,2.60529
			c-0.58553,0.49089-1.41058,0.65059-2.31844,0.65059h-5.9558v-6.46443H46.87059z M46.25253-42.28756
			c0.9049,0,1.72996,0.09463,2.31548,0.52342c0.5737,0.42879,0.94039,1.17401,0.94039,2.46039s-0.36669,2.06708-0.95517,2.47813
			c-0.58257,0.41401-1.41058,0.50864-2.3007,0.50864h-5.33774v-5.97058H46.25253z M36.19806-32.41053h10.05447
			c2.60529,0,4.6221-0.26911,5.98537-1.17401c1.36622-0.9049,2.08482-2.4456,2.08482-4.93852
			c0-1.65307-0.30459-2.85961-0.90786-3.68467c-0.60327-0.8428-1.4786-1.35144-2.60529-1.62054
			c1.16218-0.207,2.19128-0.70086,2.93945-1.62054c0.74521-0.92265,1.19175-2.25634,1.19175-4.09867
			c0-2.43082-0.61805-4.09867-1.93992-5.16327c-1.31891-1.06163-3.33572-1.50817-6.13027-1.50817H36.19806V-32.41053z"/>
	</g>
	<path id="path7188" inkscape:connector-curvature="0" fill="#CBCBCB" d="M121.81617,91.8504h1.70358v8.39909h-1.70358V91.8504z"/>
	<g id="g7190" transform="matrix(0.35277777,0,0,-0.35277777,103.70241,78.035125)">
		<path id="path7192" inkscape:connector-curvature="0" fill="#CBCBCB" d="M60.14667-39.16168h4.7463l10.48622-15.15268v15.15268
			h4.57183v-23.80839H75.8553L64.7392-46.80012v-16.16995h-4.59253V-39.16168z"/>
	</g>
	<g id="g7194" transform="matrix(0.35277777,0,0,-0.35277777,107.68841,78.802348)">
		<path id="path7196" inkscape:connector-curvature="0" fill="#CBCBCB" d="M82.26084-43.41821
			c-0.65059-1.76249-1.23611-3.32093-1.74179-4.6842c-0.22771-0.58848-0.43176-1.17696-0.63876-1.73292
			c-0.41401-1.12669-0.76-2.00202-0.96996-2.54023c-0.10941-0.27206-0.15968-0.41401-0.15968-0.41401h7.0056L82.26084-43.41821z
			 M75.73431-60.95438h-4.78178l9.22941,23.96807h4.40327l9.2235-23.96807h-5.03315l-1.58801,4.29089h-9.86521L75.73431-60.95438z"
			/>
	</g>
	<g id="g7198" transform="matrix(0.35277777,0,0,-0.35277777,110.47341,79.509103)">
		<path id="path7200" inkscape:connector-curvature="0" fill="#CBCBCB" d="M97.71194-47.33931
			c1.28934,0,2.28591,0.15673,2.97198,0.76c0.68607,0.60623,1.03207,1.63829,1.03207,3.46288
			c0,1.84529-0.39626,2.89214-1.09712,3.48062c-0.71268,0.58552-1.74474,0.71564-2.96902,0.71564h-4.6842v-8.41914H97.71194z
			 M108.05325-58.79253h-5.4649l-5.09525,7.57634h-4.52747v-7.57634h-4.74926v23.80839h9.49556
			c2.93945,0,5.14552-0.34599,6.60638-1.52296c1.46381-1.17401,2.17945-3.22334,2.17945-6.54428
			c0-2.33323-0.36373-3.92124-1.06163-5.03315c-0.7186-1.11191-1.78024-1.7477-3.1642-2.08187L108.05325-58.79253z"/>
	</g>
	<g id="g7202" transform="matrix(0.35277777,0,0,-0.35277777,112.74717,79.861528)">
		<path id="path7204" inkscape:connector-curvature="0" fill="#CBCBCB" d="M110.32665-49.29444l-9.00762,15.30941h5.1958
			l6.31953-10.63999l6.30474,10.63999h4.93852l-8.96918-15.21478v-8.59362h-4.78179V-49.29444z"/>
	</g>
	<g id="g7206" transform="matrix(0.35277777,0,0,-0.35277777,114.93241,79.515628)">
		<path id="path7208" inkscape:connector-curvature="0" fill="#CBCBCB" d="M122.45029-47.3755l4.19035,3.60778
			c0.91082,0.77479,1.5407,1.33074,1.97245,1.78024c0.4288,0.44949,0.67128,0.80436,0.79549,1.19766
			c0.12421,0.38148,0.15082,0.8221,0.15082,1.43424c0,0.68903-0.13307,1.14739-0.5175,1.44311
			c-0.39035,0.29868-1.04981,0.42288-2.12328,0.42288c-0.83984,0-1.68264-0.06802-2.38054-0.1449
			c-0.70086-0.08576-1.24498-0.18039-1.50226-0.24841l-0.39331,2.45152c0.4702,0.1242,1.16514,0.23658,1.94288,0.32233
			c0.77479,0.08872,1.61759,0.14491,2.37167,0.14491c2.07891,0,3.42739-0.25728,4.25837-0.90786
			c0.83392-0.65945,1.12964-1.72405,1.12964-3.3298c0-0.87238-0.07689-1.51408-0.27797-2.07595
			c-0.2011-0.57665-0.54413-1.06459-1.07938-1.63829c-0.53526-0.5737-1.27455-1.23315-2.26817-2.12326l-2.43082-2.15284h6.50583
			v-2.35393h-10.34427V-47.3755z"/>
	</g>
	<g id="g7210" transform="matrix(0.35277777,0,0,-0.35277777,103.25233,191.28607)">
		<path id="path7212" inkscape:connector-curvature="0" fill="#CBCBCB" d="M57.64964-667.47345c0.64762,0,0.64762,0,2.04342,0.17444
			c0.68311,0.07983,1.25977,0.29871,1.62942,0.5412v5.30225c-0.27798,0.18628-0.83097,0.33417-1.53479,0.38147
			c-1.4579,0.10352-1.4579,0.10352-2.1144,0.10352c-0.7393,0-1.2716-0.13898-1.61759-0.66833
			c-0.34599-0.53229-0.50864-1.00543-0.50864-2.54321c0-1.55841,0.15082-2.01971,0.48498-2.57568
			C56.36621-667.31085,56.89851-667.47345,57.64964-667.47345 M58.34163-674.65948c-0.81915,0-1.69743,0.04736-2.44856,0.10352
			c-0.75113,0.05914-1.3958,0.1272-1.76545,0.20996l0.24249,2.03162c0.54117-0.07983,1.22428-0.14789,1.91626-0.19519
			c0.69198-0.0473,1.42241-0.07098,2.03455-0.07098c1.24498,0,1.99611,0.08282,2.43673,0.59143
			c0.43767,0.49683,0.56483,1.39581,0.56483,3.06073v0.42584c-0.35782-0.24249-0.98179-0.51752-1.88374-0.68018
			c-1.82459-0.32233-1.82459-0.32233-2.7354-0.32233c-0.61214,0-1.22428,0.06799-1.75658,0.34601
			c-0.5323,0.27502-1.00545,0.78363-1.32778,1.62646c-0.33712,0.84576-0.5323,1.59686-0.5323,3.30615
			c0,2.0907,0.46132,3.54565,1.16809,4.34113c0.69198,0.79846,1.61463,0.97296,2.57572,0.97296c0.88716,0,0.88716,0,2.72653-0.21002
			c0.8635-0.09161,1.53479-0.31049,1.85712-0.50861l0.47611,0.9256h1.82459v-10.22302c0-2.20605-0.21883-3.64032-1.00545-4.51862
			C61.92279-674.32233,60.57135-674.65948,58.34163-674.65948"/>
	</g>
	<g id="g7214" transform="matrix(0.35277777,0,0,-0.35277777,104.26621,190.24015)">
		<path id="path7216" inkscape:connector-curvature="0" fill="#CBCBCB" d="M63.27464-661.67065h1.93992l0.35782-1.30414
			c0.47315,0.27502,1.06459,0.62396,1.75658,0.91083c0.69199,0.28979,1.53774,0.54413,2.41603,0.67126l0.23066-2.2179
			c-0.64763-0.08282-1.46677-0.21881-2.25339-0.40515c-0.79844-0.19519-1.55844-0.43768-2.03455-0.71564v-8.06427h-2.41307
			V-661.67065z"/>
	</g>
	<g id="g7218" transform="matrix(0.35277777,0,0,-0.35277777,105.63287,191.35497)">
		<path id="path7220" inkscape:connector-curvature="0" fill="#CBCBCB" d="M70.85682-667.85577
			c0.60031,0,1.27159,0.15082,1.88374,0.34601c0.61214,0.19812,1.14148,0.45245,1.50226,0.64764v2.50769
			c-1.38693,0-2.34506-0.0473-3.02818-0.12714c-0.69198-0.08282-1.09711-0.19818-1.37509-0.349
			c-0.23067-0.13599-0.34599-0.35779-0.41401-0.62396c-0.07098-0.27502-0.0828-0.58844-0.0828-0.86346
			c0-0.6358,0.13898-1.01727,0.3933-1.23615C69.99036-667.78772,70.36001-667.85577,70.85682-667.85577 M69.91051-669.79565
			c-0.7393,0-1.49043,0.18335-2.04638,0.7038c-0.56483,0.50861-0.93447,1.37506-0.93447,2.7265s0.23066,2.28595,1.01727,2.7384
			c0.61214,0.35779,1.35144,0.56482,2.34505,0.68011c0.99362,0.11536,2.25043,0.1272,3.95082,0.1272v0.49683
			c0,0.78656-0.07098,1.32776-0.36078,1.68555c-0.28685,0.36078-0.81915,0.50867-1.70926,0.50867
			c-1.67377,0-3.00156-0.23065-3.8-0.40216l-0.33416,1.99609c0.69199,0.13898,2.15875,0.44061,4.19331,0.44061
			c1.62941,0,2.73837-0.26617,3.43034-0.86646c0.68016-0.61212,0.95813-1.58209,0.95813-3.00452v-7.67096h-1.90443l-0.35782,1.15625
			c-0.2898-0.17444-0.85463-0.50861-1.62942-0.78662C71.95394-669.55316,70.98398-669.79565,69.91051-669.79565"/>
	</g>
	<g id="g7222" transform="matrix(0.35277777,0,0,-0.35277777,106.46522,190.24015)">
		<path id="path7224" inkscape:connector-curvature="0" fill="#CBCBCB" d="M75.47462-661.67065h2.55206
			c0.58848-1.5141,1.13261-2.87738,1.60576-4.06616c0.19813-0.50867,0.3933-1.00543,0.58848-1.49042
			c0.19814-0.49683,0.36965-0.92267,0.52047-1.30414s0.26614-0.69495,0.35782-0.9256
			c0.09463-0.24249,0.13898-0.35785,0.13898-0.35785l3.13168,8.14417h2.26225l-6.18941-15.8595h-2.41602l1.91922,4.89716
			L75.47462-661.67065z"/>
	</g>
	<g id="g7226" transform="matrix(0.35277777,0,0,-0.35277777,108.40927,191.592)">
		<path id="path7228" inkscape:connector-curvature="0" fill="#CBCBCB" d="M86.26016-669.17072
			c-0.78661,0-1.67377,0.07983-2.44856,0.18335c-0.78661,0.10645-1.45494,0.24542-1.83642,0.38147l0.31051,1.81573
			c0.32529-0.09467,0.96996-0.2218,1.72108-0.33716c0.7393-0.1153,1.5821-0.20697,2.27705-0.20697
			c1.06163,0,1.72108,0.09167,2.1144,0.33417c0.39035,0.24249,0.50864,0.65942,0.50864,1.30707
			c0,0.47314-0.10646,0.76294-0.46428,0.95813c-0.36965,0.19519-0.95813,0.32233-1.92809,0.4613
			c-1.75658,0.24249-2.8537,0.47314-3.52202,0.95813c-0.67129,0.48798-0.90195,1.23615-0.90195,2.54321
			c0,1.24792,0.40514,2.06708,1.16513,2.58752c0.76296,0.50867,1.89557,0.71564,3.40965,0.71564
			c0.8428,0,1.72108-0.0473,2.47221-0.1153c0.7393-0.06805,1.33961-0.1745,1.66195-0.25433l-0.33417-1.84827
			c-0.36965,0.05914-1.05276,0.15082-1.78024,0.23065c-0.72746,0.08282-1.50225,0.1272-2.06708,0.1272
			c-0.8428,0-1.39875-0.07983-1.73292-0.29871c-0.33416-0.23358-0.47315-0.56775-0.47315-1.07642
			c0-0.55298,0.11533-0.8783,0.5323-1.07343c0.41401-0.19519,1.13261-0.30164,2.33323-0.43768
			c1.57027-0.18634,2.57572-0.45245,3.18786-0.96112c0.61214-0.50861,0.83097-1.23608,0.83097-2.37756
			c0-1.52594-0.43766-2.4397-1.27159-2.94537C89.18187-669.0199,87.9221-669.17072,86.26016-669.17072"/>
	</g>
	<g id="g7230" transform="matrix(0.35277777,0,0,-0.35277777,109.78973,191.59888)">
		<path id="path7232" inkscape:connector-curvature="0" fill="#CBCBCB" d="M93.91887-669.2088
			c-1.86008,0-3.22334,0.36963-4.11346,1.2923c-0.88716,0.9256-1.32778,2.40417-1.32778,4.62207
			c0,2.20612,0.45245,3.67285,1.36327,4.59845c0.91377,0.92267,2.28887,1.2923,4.16965,1.2923
			c0.60031,0,1.25977-0.05615,1.87191-0.13898c0.60031-0.07983,1.15626-0.18335,1.53774-0.27502l-0.40514-2.02271
			c-0.70382,0.15082-1.79206,0.35779-3.07253,0.35779c-1.00545,0-1.75657-0.12714-2.25338-0.66827
			c-0.50864-0.54413-0.75113-1.47864-0.75113-3.08441c0-1.61755,0.26614-2.59937,0.77479-3.16711
			c0.50864-0.56482,1.27159-0.73932,2.27408-0.73932c1.10008,0,2.22973,0.1745,3.05183,0.39331l0.42584-1.96356
			c-0.47315-0.1272-1.0498-0.25433-1.66195-0.34601C95.19047-669.14966,94.53101-669.2088,93.91887-669.2088"/>
	</g>
	<g id="g7234" transform="matrix(0.35277777,0,0,-0.35277777,110.82291,191.35497)">
		<path id="path7236" inkscape:connector-curvature="0" fill="#CBCBCB" d="M99.65092-667.85577
			c0.60031,0,1.27159,0.15082,1.88374,0.34601c0.61214,0.19812,1.14147,0.45245,1.50225,0.64764v2.50769
			c-1.38692,0-2.34505-0.0473-3.02817-0.12714c-0.69199-0.08282-1.09712-0.19818-1.3751-0.349
			c-0.23066-0.13599-0.34599-0.35779-0.414-0.62396c-0.07098-0.27502-0.0828-0.58844-0.0828-0.86346
			c0-0.6358,0.13898-1.01727,0.3933-1.23615C98.78445-667.78772,99.15411-667.85577,99.65092-667.85577 M98.70461-669.79565
			c-0.7393,0-1.49043,0.18335-2.04638,0.7038c-0.56483,0.50861-0.93448,1.37506-0.93448,2.7265s0.23067,2.28595,1.01728,2.7384
			c0.61214,0.35779,1.35144,0.56482,2.34505,0.68011c0.99362,0.11536,2.25043,0.1272,3.95081,0.1272v0.49683
			c0,0.78656-0.07097,1.32776-0.36078,1.68555c-0.28684,0.36078-0.81914,0.50867-1.70926,0.50867
			c-1.67377,0-3.00155-0.23065-3.8-0.40216l-0.33416,1.99609c0.69198,0.13898,2.15875,0.44061,4.1933,0.44061
			c1.62942,0,2.73837-0.26617,3.43035-0.86646c0.68015-0.61212,0.95813-1.58209,0.95813-3.00452v-7.67096h-1.90443l-0.35782,1.15625
			c-0.28981-0.17444-0.85463-0.50861-1.62942-0.78662C100.74803-669.55316,99.77808-669.79565,98.70461-669.79565"/>
	</g>
	<path id="path7238" inkscape:connector-curvature="0" fill="#CBCBCB" d="M148.88597,421.336h0.84399v6.25107h-0.84399V421.336z"/>
	<g id="g7240" transform="matrix(0.35277777,0,0,-0.35277777,113.20659,190.74865)">
		<path id="path7242" inkscape:connector-curvature="0" fill="#CBCBCB" d="M112.87548-664.49194
			c0,1.12079-0.17447,1.83643-0.57665,2.26526c-0.41696,0.42578-1.04093,0.5766-1.93105,0.5766
			c-0.69199,0-1.2923-0.13898-1.72109-0.56482c-0.42583-0.42877-0.70381-1.13257-0.78365-2.27704H112.87548z M110.95922-671.61877
			c-1.90739,0-3.30614,0.36963-4.21696,1.2923c-0.9256,0.9256-1.36327,2.40417-1.36327,4.62213
			c0,2.27405,0.5323,3.76447,1.43128,4.69006c0.90195,0.91083,2.16171,1.25977,3.62848,1.25977
			c1.62942,0,2.8537-0.31342,3.64919-1.13257c0.79844-0.82214,1.20062-2.12622,1.20062-4.10162v-1.08533h-7.47284
			c0.01183-1.46674,0.30164-2.32141,0.83097-2.83002c0.5323-0.50867,1.31891-0.64764,2.33323-0.64764
			c0.55595,0,1.21541,0.03552,1.82755,0.09167c0.60031,0.05914,1.1888,0.15082,1.60576,0.25433l0.35783-1.96356
			c-0.38148-0.10352-1.01728-0.21887-1.71222-0.29871C112.36684-671.56256,111.60389-671.61877,110.95922-671.61877"/>
	</g>
	<g id="g8096" transform="matrix(0.35277777,0,0,-0.35277777,98.25347,141.73836)">
		<path id="path8098" inkscape:connector-curvature="0" fill="#CBCBCB" d="M29.91619-392.58475h1.84529v-11.30536h6.73945v-1.62943
			h-8.58474V-392.58475z"/>
	</g>
	<g id="g8100" transform="matrix(0.35277777,0,0,-0.35277777,100.08678,143.10985)">
		<path id="path8102" inkscape:connector-curvature="0" fill="#CBCBCB" d="M40.0873-400.19376
			c1.15331,0,2.08187,0.22476,2.71175,0.90195c0.63284,0.67426,0.98179,1.80981,0.98179,3.67285v0.90784
			c0,1.84827-0.35782,2.98975-0.99657,3.67581c-0.64171,0.68311-1.57914,0.89899-2.73245,0.89899
			c-1.14148,0-2.07004-0.207-2.69992-0.88126c-0.63284-0.67719-0.98771-1.81274-0.98771-3.65805v-0.90784
			c0-1.86304,0.35487-3.00748,1.00249-3.69058C38.01726-399.96899,38.94286-400.19376,40.0873-400.19376 M40.05181-401.83203
			c-1.07346,0-2.05821,0.12125-2.89214,0.49384c-0.83984,0.37262-1.52296,0.99658-2.00202,1.9754
			c-0.47611,0.97885-0.74226,2.33917-0.74226,4.18445s0.26615,3.21448,0.75113,4.20218
			c0.48498,0.9877,1.17696,1.61166,2.01976,1.99313c0.83984,0.37262,1.82755,0.50275,2.90101,0.50275
			c1.07346,0,2.06413-0.12125,2.90397-0.49387c0.83097-0.37259,1.51704-0.99658,1.99907-1.9754
			c0.47906-0.97882,0.74817-2.33914,0.74817-4.18442c0-1.84531-0.2691-3.20563-0.75704-4.19333
			c-0.48202-0.9877-1.17696-1.62054-2.01681-1.99313C42.12481-401.70193,41.12823-401.83203,40.05181-401.83203"/>
	</g>
	<g id="g8104" transform="matrix(0.35277777,0,0,-0.35277777,101.6135,143.30212)">
		<path id="path8106" inkscape:connector-curvature="0" fill="#CBCBCB" d="M48.55751-401.26035
			c-1.04093,0-2.00202,0.08575-2.79751,0.42584c-0.80732,0.33713-1.47268,0.91675-1.93401,1.89557
			c-0.45837,0.97882-0.7186,2.36575-0.7186,4.30566c0,1.93994,0.2691,3.32684,0.73634,4.32343s1.14444,1.58505,1.97541,1.93106
			c0.8221,0.34894,1.80981,0.44357,2.89214,0.44357c0.93743,0,1.75953-0.0621,2.41899-0.15674
			c0.64762-0.09464,1.12669-0.19812,1.3958-0.29276l-0.31347-1.61166c-0.3726,0.06799-0.90194,0.16263-1.51704,0.24249
			c-0.62101,0.06799-1.32483,0.1301-2.01681,0.1301c-1.28342,0-2.18537-0.22769-2.76498-0.90195
			c-0.58848-0.67719-0.85759-1.80978-0.85759-3.6048v-0.90787c0-1.75952,0.2691-2.90396,0.85759-3.62256
			c0.59144-0.7186,1.49043-0.9877,2.74723-0.9877c1.21245,0,1.9488,0.12125,2.41012,0.23361v4.59253h1.75657v-5.89075
			c-0.3105-0.10645-0.86646-0.23657-1.59393-0.34894C50.49743-401.17459,49.58661-401.26035,48.55751-401.26035"/>
	</g>
	<path id="path8108" inkscape:connector-curvature="0" fill="#CBCBCB" d="M121.12136,280.23343h0.65724v4.56308h-0.65724V280.23343z
		"/>
	<g id="g8110" transform="matrix(0.35277777,0,0,-0.35277777,103.56274,143.30212)">
		<path id="path8112" inkscape:connector-curvature="0" fill="#CBCBCB" d="M59.37178-401.26035
			c-1.04093,0-2.00202,0.08575-2.79751,0.42584c-0.80731,0.33713-1.47564,0.91675-1.93401,1.89557s-0.7186,2.36575-0.7186,4.30566
			c0,1.93994,0.2691,3.32684,0.72747,4.32343c0.46132,0.99658,1.13556,1.58505,1.95175,1.93106
			c0.81323,0.34894,1.76545,0.44357,2.80638,0.44357c0.93447,0,1.69743-0.07098,2.29478-0.16559
			c0.58848-0.09464,1.02319-0.20703,1.29821-0.28391l-0.32825-1.59689c-0.37261,0.07098-0.84872,0.15674-1.40171,0.23657
			c-0.56483,0.06802-1.20654,0.12125-1.89852,0.12125c-1.21541,0-2.07891-0.22769-2.64965-0.90195
			c-0.5737-0.67719-0.85167-1.80978-0.85167-3.6048v-0.90787c0-1.75952,0.27798-2.89511,0.86646-3.60483
			c0.57961-0.70972,1.45494-0.9877,2.67035-0.9877c0.75409,0,1.48156,0.06802,2.07004,0.16266
			c0.57961,0.09756,1.0291,0.18332,1.21245,0.24246l0.33712-1.5939C62.27279-401.05334,61.13131-401.26035,59.37178-401.26035"/>
	</g>
	<g id="g8114" transform="matrix(0.35277777,0,0,-0.35277777,99.664263,145.93208)">
		<path id="path8116" inkscape:connector-curvature="0" fill="#CBCBCB" d="M37.74319-415.85129
			c1.15035,0,2.07891,0.22473,2.71175,0.90195c0.63284,0.67422,0.97883,1.80978,0.97883,3.67282v0.90787
			c0,1.84827-0.35782,2.98972-0.99657,3.67581c-0.64171,0.68311-1.57914,0.89899-2.7295,0.89899
			c-1.14148,0-2.07003-0.207-2.70288-0.88126c-0.63284-0.67719-0.9877-1.81277-0.9877-3.65805v-0.90787
			c0-1.86304,0.35486-3.00748,1.00545-3.69058C35.67316-415.62656,36.59876-415.85129,37.74319-415.85129 M37.70771-417.48956
			c-1.07346,0-2.06116,0.12122-2.89214,0.49384c-0.83984,0.37262-1.52591,0.99658-2.00202,1.9754
			c-0.47611,0.97885-0.74522,2.33914-0.74522,4.18445c0,1.84528,0.26911,3.21448,0.75113,4.20218
			c0.48794,0.9877,1.17992,1.61166,2.02272,1.99313c0.83689,0.37262,1.82755,0.50272,2.90101,0.50272
			s2.06116-0.12125,2.90101-0.49384c0.83393-0.37262,1.51704-0.99658,2.00202-1.9754
			c0.47611-0.97885,0.74522-2.33914,0.74522-4.18445c0-1.84528-0.26911-3.2056-0.75409-4.1933
			c-0.48498-0.9877-1.17992-1.62054-2.01681-1.99316C39.77774-417.35947,38.78413-417.48956,37.70771-417.48956"/>
	</g>
	<g id="g8118" transform="matrix(0.35277777,0,0,-0.35277777,101.19871,146.12434)">
		<path id="path8120" inkscape:connector-curvature="0" fill="#CBCBCB" d="M46.25624-416.91791
			c-1.69743,0-2.98973,0.21585-3.85619,0.91968c-0.86646,0.70087-1.31004,1.88669-1.31004,3.8266v8.36298h1.86599v-8.19736
			c0-1.24796,0.21587-2.05231,0.74226-2.53729c0.52047-0.48495,1.3544-0.65945,2.5905-0.65945
			c1.22132,0,2.05525,0.14786,2.57276,0.61511c0.52047,0.46722,0.72747,1.25681,0.72747,2.54614v8.23285h1.79502v-8.32748
			c0-1.9133-0.42583-3.11096-1.28046-3.82956C49.23413-416.6843,47.95367-416.91791,46.25624-416.91791"/>
	</g>
	<g id="g8122" transform="matrix(0.35277777,0,0,-0.35277777,102.52921,144.76008)">
		<path id="path8124" inkscape:connector-curvature="0" fill="#CBCBCB" d="M53.63783-409.34906h-4.28202v1.67081h10.36201v-1.67081
			h-4.23471v-11.26398h-1.84529V-409.34906z"/>
	</g>
	<g id="g8126" transform="matrix(0.35277777,0,0,-0.35277777,112.41541,142.55194)">
		<path id="path8128" inkscape:connector-curvature="0" fill="#CBCBCB" d="M108.48608-397.09845
			c0-2.08484-1.68856-3.77045-3.77043-3.77045c-2.08186,0-3.77338,1.68561-3.77338,3.77045
			c0,2.08481,1.69151,3.77042,3.77338,3.77042C106.79752-393.32803,108.48608-395.01364,108.48608-397.09845"/>
	</g>
	<g id="g8130" transform="matrix(0.35277777,0,0,-0.35277777,112.79885,145.3707)">
		
			<path id="path8132" inkscape:connector-curvature="0" fill="none" stroke="#CBCBCB" stroke-width="0.62594" stroke-miterlimit="10" d="
			M110.61337-412.73682c0-3.85913-3.12872-6.98785-6.9849-6.98785c-3.85914,0-6.98785,3.12872-6.98785,6.98785
			c0,3.85916,3.12872,6.98785,6.98785,6.98785C107.48466-405.74896,110.61337-408.87766,110.61337-412.73682z"/>
	</g>
	<g id="g8134" transform="matrix(0.35277777,0,0,-0.35277777,112.79885,142.55194)">
		
			<path id="path8136" inkscape:connector-curvature="0" fill="none" stroke="#CBCBCB" stroke-width="0.62594" stroke-miterlimit="10" d="
			M110.61337-397.09845c0-3.85916-3.12872-6.98492-6.9849-6.98492c-3.85914,0-6.98785,3.12576-6.98785,6.98492
			c0,3.85913,3.12872,6.98489,6.98785,6.98489C107.48466-390.11356,110.61337-393.23932,110.61337-397.09845z"/>
	</g>
	<g id="g8138" transform="matrix(0.35277777,0,0,-0.35277777,102.42514,152.48433)">
		
			<path id="path8140" inkscape:connector-curvature="0" fill="none" stroke="#CBCBCB" stroke-width="1.04323" stroke-linecap="round" stroke-linejoin="round" d="
			M51.69919-450.55228h95.80725"/>
	</g>
	<g id="g8208" transform="matrix(0.35277777,0,0,-0.35277777,114.48834,143.04889)">
		<path id="path8210" inkscape:connector-curvature="0" fill="#CBCBCB" d="M119.98661-399.85556
			c1.11782,0,1.93992,0.21585,2.47813,0.83984c0.53821,0.61508,0.78661,1.61166,0.78661,3.1701v0.96405
			c0,1.55844-0.26615,2.55502-0.81323,3.16122c-0.54412,0.60623-1.36918,0.81323-2.487,0.81323s-1.93105-0.207-2.46926-0.79547
			c-0.53525-0.59735-0.79549-1.58505-0.79549-3.14645v-0.96109c0-1.55844,0.26023-2.57275,0.81323-3.18787
			C118.04669-399.62195,118.86879-399.85556,119.98661-399.85556 M119.95113-402.07346c-1.17696,0-2.24451,0.1301-3.13463,0.49384
			c-0.89307,0.36374-1.6028,0.97882-2.08778,1.9754c-0.49385,0.99658-0.77183,2.36575-0.77183,4.24655
			c0,1.86893,0.27798,3.23813,0.77183,4.23471c0.49385,0.99655,1.22133,1.62051,2.12032,1.98425
			c0.89307,0.36374,1.95174,0.48499,3.13758,0.48499c1.17696,0,2.24451-0.11237,3.13759-0.4761
			c0.89011-0.36374,1.6028-0.96997,2.09665-1.95767c0.48499-0.9877,0.76-2.36575,0.76-4.23764
			c0-1.87192-0.26615-3.24701-0.76888-4.24359c-0.50272-1.00543-1.22132-1.62943-2.1144-2.00201
			C122.19564-401.95221,121.13105-402.07346,119.95113-402.07346"/>
	</g>
	<g id="g8212" transform="matrix(0.35277777,0,0,-0.35277777,116.06582,142.54245)">
		<path id="path8214" inkscape:connector-curvature="0" fill="#CBCBCB" d="M128.73839-397.04578
			c0.70085,0,1.24794,0.08575,1.62054,0.41696c0.3726,0.32825,0.56187,0.89014,0.56187,1.88669
			c0,1.00546-0.21588,1.5762-0.59735,1.89853c-0.39035,0.31937-0.95222,0.39035-1.62054,0.39035h-2.55502v-4.59253H128.73839z
			 M134.37776-403.29138h-2.98085l-2.77977,4.13123h-2.46925v-4.13123h-2.59051v12.98508h5.18101
			c1.6028,0,2.80638-0.18927,3.60483-0.83099c0.79549-0.64169,1.18584-1.75952,1.18584-3.56934
			c0-1.27454-0.19814-2.14099-0.57962-2.74722c-0.39035-0.60623-0.96996-0.95221-1.72404-1.1326L134.37776-403.29138z"/>
	</g>
	<g id="g8216" transform="matrix(0.35277777,0,0,-0.35277777,114.29816,145.29542)">
		<path id="path8218" inkscape:connector-curvature="0" fill="#CBCBCB" d="M118.93147-412.31918l-4.04545,6.10663h2.16467
			l3.13759-4.77292l3.06661,4.77292h1.97541l-4.0277-6.26334l4.41805-6.67145h-2.14989l-3.52498,5.33774l-3.46584-5.33774h-1.96653
			L118.93147-412.31918z"/>
	</g>
	<g id="g8220" transform="matrix(0.35277777,0,0,-0.35277777,115.87292,145.93829)">
		<path id="path8222" inkscape:connector-curvature="0" fill="#CBCBCB" d="M127.66816-415.88586
			c1.15331,0,2.07891,0.22476,2.71175,0.90195c0.63284,0.67426,0.97884,1.80981,0.97884,3.67285v0.90787
			c0,1.84824-0.35487,2.98972-0.99658,3.67578c-0.64171,0.68311-1.57619,0.89899-2.72949,0.89899
			c-1.14148,0-2.07004-0.207-2.70287-0.88123c-0.63284-0.67722-0.98771-1.81277-0.98771-3.65808v-0.90784
			c0-1.86304,0.35487-3.00748,1.00545-3.69058C125.59813-415.6611,126.52373-415.88586,127.66816-415.88586 M127.63268-417.52414
			c-1.07346,0-2.06116,0.12125-2.89214,0.49387c-0.83984,0.37259-1.52592,0.99655-2.00202,1.9754
			c-0.47611,0.97882-0.74522,2.33914-0.74522,4.18442c0,1.84531,0.2691,3.21448,0.75409,4.20218
			c0.48498,0.9877,1.17696,1.61166,2.01976,1.99316c0.83984,0.37259,1.82755,0.50272,2.90101,0.50272
			c1.07346,0,2.06116-0.12125,2.90101-0.49387c0.83394-0.37259,1.51704-0.99655,2.00203-1.9754
			c0.4761-0.97882,0.74521-2.33914,0.74521-4.18442c0-1.84531-0.2691-3.2056-0.75409-4.1933
			c-0.48497-0.98773-1.17696-1.62054-2.0168-1.99316C129.70271-417.39401,128.70909-417.52414,127.63268-417.52414"/>
	</g>
	<g id="g8224" transform="matrix(0.35277777,0,0,-0.35277777,117.37635,145.37088)">
		<path id="path8226" inkscape:connector-curvature="0" fill="#CBCBCB" d="M136.00916-412.73773
			c0.83098,0,1.50818,0.06802,1.97542,0.42584c0.46724,0.34598,0.72746,0.9877,0.72746,2.12918
			c0,1.15329-0.27797,1.81274-0.76295,2.16763c-0.48499,0.35486-1.16809,0.42285-1.9754,0.42285h-2.89214v-5.14551H136.00916z
			 M141.22566-418.93307h-2.14102l-3.02225,4.61029h-2.98085v-4.61029h-1.84529v12.93478h4.7729
			c1.53479,0,2.6674-0.24249,3.43036-0.87534c0.75407-0.62988,1.11781-1.67081,1.11781-3.27359
			c0-1.22134-0.22475-2.0878-0.65945-2.69403c-0.43175-0.6062-1.07346-0.96109-1.89557-1.14441L141.22566-418.93307z"/>
	</g>
</g>
<g id="layer3" inkscape:groupmode="layer" inkscape:label="widgets" display="none">
	
		<rect id="rect95885" x="8.88575" y="57.8348" display="inline" fill-rule="evenodd" clip-rule="evenodd" fill="#0000FF" fill-opacity="0.47179" width="28.945" height="28.946"/>
	
		<rect id="rect96430" x="8.88574" y="97.5198" display="inline" fill-rule="evenodd" clip-rule="evenodd" fill="#00FF00" fill-opacity="0.47179" width="28.945" height="28.946"/>
	
		<rect id="rect96432" x="8.88574" y="137.20486" display="inline" fill-rule="evenodd" clip-rule="evenodd" fill="#00FF00" fill-opacity="0.47179" width="28.945" height="28.946"/>
	
		<rect id="rect96434" x="8.88574" y="256.25995" display="inline" fill-rule="evenodd" clip-rule="evenodd" fill="#00FF00" fill-opacity="0.47179" width="28.945" height="28.94601"/>
	
		<rect id="rect96436" x="8.88575" y="295.94501" display="inline" fill-rule="evenodd" clip-rule="evenodd" fill="#00FF00" fill-opacity="0.47179" width="28.945" height="28.94599"/>
	
		<rect id="rect96440" x="8.88574" y="216.57492" display="inline" fill-rule="evenodd" clip-rule="evenodd" fill="#0000FF" fill-opacity="0.47179" width="28.945" height="28.94601"/>
	
		<rect id="rect96442" x="48.87015" y="296.24335" display="inline" fill-rule="evenodd" clip-rule="evenodd" fill="#FF0000" fill-opacity="0.47179" width="28.34599" height="28.346"/>
	
		<rect id="rect96444" x="48.87015" y="256.55832" display="inline" fill-rule="evenodd" clip-rule="evenodd" fill="#FF0000" fill-opacity="0.47179" width="28.34599" height="28.346"/>
	
		<rect id="rect96446" x="48.87015" y="216.87325" display="inline" fill-rule="evenodd" clip-rule="evenodd" fill="#FF0000" fill-opacity="0.47179" width="28.34599" height="28.346"/>
	
		<rect id="rect96448" x="48.87015" y="137.50323" display="inline" fill-rule="evenodd" clip-rule="evenodd" fill="#FF0000" fill-opacity="0.47179" width="28.34599" height="28.34599"/>
	
		<rect id="rect96450" x="48.87015" y="97.81818" display="inline" fill-rule="evenodd" clip-rule="evenodd" fill="#FF0000" fill-opacity="0.47179" width="28.34599" height="28.34599"/>
	
		<rect id="rect96452" x="48.87015" y="58.13311" display="inline" fill-rule="evenodd" clip-rule="evenodd" fill="#FF0000" fill-opacity="0.47179" width="28.34599" height="28.34599"/>
	
		<rect id="rect96454" x="50.28855" y="59.55111" display="inline" fill-rule="evenodd" clip-rule="evenodd" fill="#FF00FF" fill-opacity="0.47179" width="25.512" height="25.51"/>
	
		<rect id="rect96456" x="50.28855" y="99.23608" display="inline" fill-rule="evenodd" clip-rule="evenodd" fill="#FF00FF" fill-opacity="0.47179" width="25.512" height="25.50999"/>
	
		<rect id="rect96458" x="50.28855" y="138.92114" display="inline" fill-rule="evenodd" clip-rule="evenodd" fill="#FF00FF" fill-opacity="0.47179" width="25.512" height="25.50999"/>
	
		<rect id="rect96460" x="50.28765" y="218.29123" display="inline" fill-rule="evenodd" clip-rule="evenodd" fill="#FF00FF" fill-opacity="0.47179" width="25.512" height="25.50999"/>
	
		<rect id="rect96462" x="50.28855" y="257.97623" display="inline" fill-rule="evenodd" clip-rule="evenodd" fill="#FF00FF" fill-opacity="0.47179" width="25.512" height="25.50999"/>
	
		<rect id="rect96464" x="50.28815" y="297.66132" display="inline" fill-rule="evenodd" clip-rule="evenodd" fill="#FF00FF" fill-opacity="0.47179" width="25.512" height="25.50999"/>
</g>
</svg>
